<svg width="1022" height="496" viewBox="0 0 1022 496" fill="none" xmlns="http://www.w3.org/2000/svg">
<rect width="511" height="248" transform="scale(2)" fill="white"/>
<rect x="364" y="140" width="130" height="342" fill="#FFFAF5"/>
<path d="M379.008 204.395C377.078 203.84 375.672 203.16 374.789 202.355C373.914 201.543 373.477 200.543 373.477 199.355C373.477 198.012 374.012 196.902 375.082 196.027C376.16 195.145 377.559 194.703 379.277 194.703C380.449 194.703 381.492 194.93 382.406 195.383C383.328 195.836 384.039 196.461 384.539 197.258C385.047 198.055 385.301 198.926 385.301 199.871H383.039C383.039 198.84 382.711 198.031 382.055 197.445C381.398 196.852 380.473 196.555 379.277 196.555C378.168 196.555 377.301 196.801 376.676 197.293C376.059 197.777 375.75 198.453 375.75 199.32C375.75 200.016 376.043 200.605 376.629 201.09C377.223 201.566 378.227 202.004 379.641 202.402C381.062 202.801 382.172 203.242 382.969 203.727C383.773 204.203 384.367 204.762 384.75 205.402C385.141 206.043 385.336 206.797 385.336 207.664C385.336 209.047 384.797 210.156 383.719 210.992C382.641 211.82 381.199 212.234 379.395 212.234C378.223 212.234 377.129 212.012 376.113 211.566C375.098 211.113 374.312 210.496 373.758 209.715C373.211 208.934 372.938 208.047 372.938 207.055H375.199C375.199 208.086 375.578 208.902 376.336 209.504C377.102 210.098 378.121 210.395 379.395 210.395C380.582 210.395 381.492 210.152 382.125 209.668C382.758 209.184 383.074 208.523 383.074 207.688C383.074 206.852 382.781 206.207 382.195 205.754C381.609 205.293 380.547 204.84 379.008 204.395ZM390.832 196.25V199.32H393.199V200.996H390.832V208.859C390.832 209.367 390.938 209.75 391.148 210.008C391.359 210.258 391.719 210.383 392.227 210.383C392.477 210.383 392.82 210.336 393.258 210.242V212C392.688 212.156 392.133 212.234 391.594 212.234C390.625 212.234 389.895 211.941 389.402 211.355C388.91 210.77 388.664 209.938 388.664 208.859V200.996H386.355V199.32H388.664V196.25H390.832ZM403.57 212C403.445 211.75 403.344 211.305 403.266 210.664C402.258 211.711 401.055 212.234 399.656 212.234C398.406 212.234 397.379 211.883 396.574 211.18C395.777 210.469 395.379 209.57 395.379 208.484C395.379 207.164 395.879 206.141 396.879 205.414C397.887 204.68 399.301 204.312 401.121 204.312H403.23V203.316C403.23 202.559 403.004 201.957 402.551 201.512C402.098 201.059 401.43 200.832 400.547 200.832C399.773 200.832 399.125 201.027 398.602 201.418C398.078 201.809 397.816 202.281 397.816 202.836H395.637C395.637 202.203 395.859 201.594 396.305 201.008C396.758 200.414 397.367 199.945 398.133 199.602C398.906 199.258 399.754 199.086 400.676 199.086C402.137 199.086 403.281 199.453 404.109 200.188C404.938 200.914 405.367 201.918 405.398 203.199V209.035C405.398 210.199 405.547 211.125 405.844 211.812V212H403.57ZM399.973 210.348C400.652 210.348 401.297 210.172 401.906 209.82C402.516 209.469 402.957 209.012 403.23 208.449V205.848H401.531C398.875 205.848 397.547 206.625 397.547 208.18C397.547 208.859 397.773 209.391 398.227 209.773C398.68 210.156 399.262 210.348 399.973 210.348ZM414.926 201.266C414.598 201.211 414.242 201.184 413.859 201.184C412.438 201.184 411.473 201.789 410.965 203V212H408.797V199.32H410.906L410.941 200.785C411.652 199.652 412.66 199.086 413.965 199.086C414.387 199.086 414.707 199.141 414.926 199.25V201.266ZM420.457 196.25V199.32H422.824V200.996H420.457V208.859C420.457 209.367 420.562 209.75 420.773 210.008C420.984 210.258 421.344 210.383 421.852 210.383C422.102 210.383 422.445 210.336 422.883 210.242V212C422.312 212.156 421.758 212.234 421.219 212.234C420.25 212.234 419.52 211.941 419.027 211.355C418.535 210.77 418.289 209.938 418.289 208.859V200.996H415.98V199.32H418.289V196.25H420.457ZM373.125 233.555C373.125 231.578 373.582 230.008 374.496 228.844C375.41 227.672 376.621 227.086 378.129 227.086C379.676 227.086 380.883 227.633 381.75 228.727L381.855 227.32H383.836V239.695C383.836 241.336 383.348 242.629 382.371 243.574C381.402 244.52 380.098 244.992 378.457 244.992C377.543 244.992 376.648 244.797 375.773 244.406C374.898 244.016 374.23 243.48 373.77 242.801L374.895 241.5C375.824 242.648 376.961 243.223 378.305 243.223C379.359 243.223 380.18 242.926 380.766 242.332C381.359 241.738 381.656 240.902 381.656 239.824V238.734C380.789 239.734 379.605 240.234 378.105 240.234C376.621 240.234 375.418 239.637 374.496 238.441C373.582 237.246 373.125 235.617 373.125 233.555ZM375.305 233.801C375.305 235.23 375.598 236.355 376.184 237.176C376.77 237.988 377.59 238.395 378.645 238.395C380.012 238.395 381.016 237.773 381.656 236.531V230.742C380.992 229.531 379.996 228.926 378.668 228.926C377.613 228.926 376.789 229.336 376.195 230.156C375.602 230.977 375.305 232.191 375.305 233.801ZM393.246 229.266C392.918 229.211 392.562 229.184 392.18 229.184C390.758 229.184 389.793 229.789 389.285 231V240H387.117V227.32H389.227L389.262 228.785C389.973 227.652 390.98 227.086 392.285 227.086C392.707 227.086 393.027 227.141 393.246 227.25V229.266ZM394.441 233.543C394.441 232.301 394.684 231.184 395.168 230.191C395.66 229.199 396.34 228.434 397.207 227.895C398.082 227.355 399.078 227.086 400.195 227.086C401.922 227.086 403.316 227.684 404.379 228.879C405.449 230.074 405.984 231.664 405.984 233.648V233.801C405.984 235.035 405.746 236.145 405.27 237.129C404.801 238.105 404.125 238.867 403.242 239.414C402.367 239.961 401.359 240.234 400.219 240.234C398.5 240.234 397.105 239.637 396.035 238.441C394.973 237.246 394.441 235.664 394.441 233.695V233.543ZM396.621 233.801C396.621 235.207 396.945 236.336 397.594 237.188C398.25 238.039 399.125 238.465 400.219 238.465C401.32 238.465 402.195 238.035 402.844 237.176C403.492 236.309 403.816 235.098 403.816 233.543C403.816 232.152 403.484 231.027 402.82 230.168C402.164 229.301 401.289 228.867 400.195 228.867C399.125 228.867 398.262 229.293 397.605 230.145C396.949 230.996 396.621 232.215 396.621 233.801ZM416.531 238.746C415.688 239.738 414.449 240.234 412.816 240.234C411.465 240.234 410.434 239.844 409.723 239.062C409.02 238.273 408.664 237.109 408.656 235.57V227.32H410.824V235.512C410.824 237.434 411.605 238.395 413.168 238.395C414.824 238.395 415.926 237.777 416.473 236.543V227.32H418.641V240H416.578L416.531 238.746ZM432.656 233.801C432.656 235.73 432.215 237.285 431.332 238.465C430.449 239.645 429.254 240.234 427.746 240.234C426.207 240.234 424.996 239.746 424.113 238.77V244.875H421.945V227.32H423.926L424.031 228.727C424.914 227.633 426.141 227.086 427.711 227.086C429.234 227.086 430.438 227.66 431.32 228.809C432.211 229.957 432.656 231.555 432.656 233.602V233.801ZM430.488 233.555C430.488 232.125 430.184 230.996 429.574 230.168C428.965 229.34 428.129 228.926 427.066 228.926C425.754 228.926 424.77 229.508 424.113 230.672V236.73C424.762 237.887 425.754 238.465 427.09 238.465C428.129 238.465 428.953 238.055 429.562 237.234C430.18 236.406 430.488 235.18 430.488 233.555ZM448.277 240H446.098V225.551L441.727 227.156V225.188L447.938 222.855H448.277V240Z" fill="black"/>
<path d="M430.466 181.059C428.898 179.667 427.658 178.059 426.746 176.235C425.85 174.411 425.402 172.363 425.402 170.091C425.402 167.819 425.85 165.771 426.746 163.947C427.658 162.123 428.898 160.515 430.466 159.123L432.434 160.683C431.01 162.075 429.97 163.523 429.314 165.027C428.674 166.515 428.354 168.203 428.354 170.091C428.354 171.035 428.434 171.931 428.594 172.779C428.754 173.611 428.994 174.411 429.314 175.179C429.65 175.947 430.074 176.683 430.586 177.387C431.098 178.107 431.714 178.811 432.434 179.499L430.466 181.059Z" fill="#D55E00"/>
<path d="M383.625 428.113H376.23V434.16H384.82V436H373.98V418.938H384.703V420.789H376.23V426.273H383.625V428.113ZM389.332 423.32L389.402 424.914C390.371 423.695 391.637 423.086 393.199 423.086C395.879 423.086 397.23 424.598 397.254 427.621V436H395.086V427.609C395.078 426.695 394.867 426.02 394.453 425.582C394.047 425.145 393.41 424.926 392.543 424.926C391.84 424.926 391.223 425.113 390.691 425.488C390.16 425.863 389.746 426.355 389.449 426.965V436H387.281V423.32H389.332ZM399.996 429.555C399.996 427.609 400.457 426.047 401.379 424.867C402.301 423.68 403.508 423.086 405 423.086C406.484 423.086 407.66 423.594 408.527 424.609V418H410.695V436H408.703L408.598 434.641C407.73 435.703 406.523 436.234 404.977 436.234C403.508 436.234 402.309 435.633 401.379 434.43C400.457 433.227 399.996 431.656 399.996 429.719V429.555ZM402.164 429.801C402.164 431.238 402.461 432.363 403.055 433.176C403.648 433.988 404.469 434.395 405.516 434.395C406.891 434.395 407.895 433.777 408.527 432.543V426.719C407.879 425.523 406.883 424.926 405.539 424.926C404.477 424.926 403.648 425.336 403.055 426.156C402.461 426.977 402.164 428.191 402.164 429.801ZM419.508 429.555C419.508 427.578 419.965 426.008 420.879 424.844C421.793 423.672 423.004 423.086 424.512 423.086C426.059 423.086 427.266 423.633 428.133 424.727L428.238 423.32H430.219V435.695C430.219 437.336 429.73 438.629 428.754 439.574C427.785 440.52 426.48 440.992 424.84 440.992C423.926 440.992 423.031 440.797 422.156 440.406C421.281 440.016 420.613 439.48 420.152 438.801L421.277 437.5C422.207 438.648 423.344 439.223 424.688 439.223C425.742 439.223 426.562 438.926 427.148 438.332C427.742 437.738 428.039 436.902 428.039 435.824V434.734C427.172 435.734 425.988 436.234 424.488 436.234C423.004 436.234 421.801 435.637 420.879 434.441C419.965 433.246 419.508 431.617 419.508 429.555ZM421.688 429.801C421.688 431.23 421.98 432.355 422.566 433.176C423.152 433.988 423.973 434.395 425.027 434.395C426.395 434.395 427.398 433.773 428.039 432.531V426.742C427.375 425.531 426.379 424.926 425.051 424.926C423.996 424.926 423.172 425.336 422.578 426.156C421.984 426.977 421.688 428.191 421.688 429.801ZM439.629 425.266C439.301 425.211 438.945 425.184 438.562 425.184C437.141 425.184 436.176 425.789 435.668 427V436H433.5V423.32H435.609L435.645 424.785C436.355 423.652 437.363 423.086 438.668 423.086C439.09 423.086 439.41 423.141 439.629 423.25V425.266ZM440.824 429.543C440.824 428.301 441.066 427.184 441.551 426.191C442.043 425.199 442.723 424.434 443.59 423.895C444.465 423.355 445.461 423.086 446.578 423.086C448.305 423.086 449.699 423.684 450.762 424.879C451.832 426.074 452.367 427.664 452.367 429.648V429.801C452.367 431.035 452.129 432.145 451.652 433.129C451.184 434.105 450.508 434.867 449.625 435.414C448.75 435.961 447.742 436.234 446.602 436.234C444.883 436.234 443.488 435.637 442.418 434.441C441.355 433.246 440.824 431.664 440.824 429.695V429.543ZM443.004 429.801C443.004 431.207 443.328 432.336 443.977 433.188C444.633 434.039 445.508 434.465 446.602 434.465C447.703 434.465 448.578 434.035 449.227 433.176C449.875 432.309 450.199 431.098 450.199 429.543C450.199 428.152 449.867 427.027 449.203 426.168C448.547 425.301 447.672 424.867 446.578 424.867C445.508 424.867 444.645 425.293 443.988 426.145C443.332 426.996 443.004 428.215 443.004 429.801ZM462.914 434.746C462.07 435.738 460.832 436.234 459.199 436.234C457.848 436.234 456.816 435.844 456.105 435.062C455.402 434.273 455.047 433.109 455.039 431.57V423.32H457.207V431.512C457.207 433.434 457.988 434.395 459.551 434.395C461.207 434.395 462.309 433.777 462.855 432.543V423.32H465.023V436H462.961L462.914 434.746ZM479.039 429.801C479.039 431.73 478.598 433.285 477.715 434.465C476.832 435.645 475.637 436.234 474.129 436.234C472.59 436.234 471.379 435.746 470.496 434.77V440.875H468.328V423.32H470.309L470.414 424.727C471.297 423.633 472.523 423.086 474.094 423.086C475.617 423.086 476.82 423.66 477.703 424.809C478.594 425.957 479.039 427.555 479.039 429.602V429.801ZM476.871 429.555C476.871 428.125 476.566 426.996 475.957 426.168C475.348 425.34 474.512 424.926 473.449 424.926C472.137 424.926 471.152 425.508 470.496 426.672V432.73C471.145 433.887 472.137 434.465 473.473 434.465C474.512 434.465 475.336 434.055 475.945 433.234C476.562 432.406 476.871 431.18 476.871 429.555ZM380.543 464H378.363V449.551L373.992 451.156V449.188L380.203 446.855H380.543V464Z" fill="black"/>
<path d="M424.61 402.736C425.33 402.048 425.946 401.344 426.458 400.624C426.97 399.92 427.386 399.184 427.706 398.416C428.042 397.648 428.29 396.848 428.45 396.016C428.61 395.168 428.69 394.272 428.69 393.328C428.69 391.44 428.362 389.752 427.706 388.264C427.066 386.76 426.034 385.312 424.61 383.92L426.578 382.36C428.146 383.752 429.378 385.36 430.274 387.184C431.186 389.008 431.642 391.056 431.642 393.328C431.642 395.6 431.186 397.648 430.274 399.472C429.378 401.296 428.146 402.904 426.578 404.296L424.61 402.736Z" fill="#D55E00"/>
<path d="M383.402 317.547H376.254L374.648 322H372.328L378.844 304.938H380.812L387.34 322H385.031L383.402 317.547ZM376.934 315.695H382.734L379.828 307.715L376.934 315.695ZM406.477 319.012L408.914 309.32H411.082L407.391 322H405.633L402.551 312.391L399.551 322H397.793L394.113 309.32H396.27L398.766 318.812L401.719 309.32H403.465L406.477 319.012ZM412.723 315.543C412.723 314.301 412.965 313.184 413.449 312.191C413.941 311.199 414.621 310.434 415.488 309.895C416.363 309.355 417.359 309.086 418.477 309.086C420.203 309.086 421.598 309.684 422.66 310.879C423.73 312.074 424.266 313.664 424.266 315.648V315.801C424.266 317.035 424.027 318.145 423.551 319.129C423.082 320.105 422.406 320.867 421.523 321.414C420.648 321.961 419.641 322.234 418.5 322.234C416.781 322.234 415.387 321.637 414.316 320.441C413.254 319.246 412.723 317.664 412.723 315.695V315.543ZM414.902 315.801C414.902 317.207 415.227 318.336 415.875 319.188C416.531 320.039 417.406 320.465 418.5 320.465C419.602 320.465 420.477 320.035 421.125 319.176C421.773 318.309 422.098 317.098 422.098 315.543C422.098 314.152 421.766 313.027 421.102 312.168C420.445 311.301 419.57 310.867 418.477 310.867C417.406 310.867 416.543 311.293 415.887 312.145C415.23 312.996 414.902 314.215 414.902 315.801ZM433.113 311.266C432.785 311.211 432.43 311.184 432.047 311.184C430.625 311.184 429.66 311.789 429.152 313V322H426.984V309.32H429.094L429.129 310.785C429.84 309.652 430.848 309.086 432.152 309.086C432.574 309.086 432.895 309.141 433.113 309.25V311.266ZM434.355 315.555C434.355 313.609 434.816 312.047 435.738 310.867C436.66 309.68 437.867 309.086 439.359 309.086C440.844 309.086 442.02 309.594 442.887 310.609V304H445.055V322H443.062L442.957 320.641C442.09 321.703 440.883 322.234 439.336 322.234C437.867 322.234 436.668 321.633 435.738 320.43C434.816 319.227 434.355 317.656 434.355 315.719V315.555ZM436.523 315.801C436.523 317.238 436.82 318.363 437.414 319.176C438.008 319.988 438.828 320.395 439.875 320.395C441.25 320.395 442.254 319.777 442.887 318.543V312.719C442.238 311.523 441.242 310.926 439.898 310.926C438.836 310.926 438.008 311.336 437.414 312.156C436.82 312.977 436.523 314.191 436.523 315.801ZM378.727 348.465C379.5 348.465 380.176 348.23 380.754 347.762C381.332 347.293 381.652 346.707 381.715 346.004H383.766C383.727 346.73 383.477 347.422 383.016 348.078C382.555 348.734 381.938 349.258 381.164 349.648C380.398 350.039 379.586 350.234 378.727 350.234C377 350.234 375.625 349.66 374.602 348.512C373.586 347.355 373.078 345.777 373.078 343.777V343.414C373.078 342.18 373.305 341.082 373.758 340.121C374.211 339.16 374.859 338.414 375.703 337.883C376.555 337.352 377.559 337.086 378.715 337.086C380.137 337.086 381.316 337.512 382.254 338.363C383.199 339.215 383.703 340.32 383.766 341.68H381.715C381.652 340.859 381.34 340.188 380.777 339.664C380.223 339.133 379.535 338.867 378.715 338.867C377.613 338.867 376.758 339.266 376.148 340.062C375.547 340.852 375.246 341.996 375.246 343.496V343.906C375.246 345.367 375.547 346.492 376.148 347.281C376.75 348.07 377.609 348.465 378.727 348.465ZM388.371 338.855C389.332 337.676 390.582 337.086 392.121 337.086C394.801 337.086 396.152 338.598 396.176 341.621V350H394.008V341.609C394 340.695 393.789 340.02 393.375 339.582C392.969 339.145 392.332 338.926 391.465 338.926C390.762 338.926 390.145 339.113 389.613 339.488C389.082 339.863 388.668 340.355 388.371 340.965V350H386.203V332H388.371V338.855ZM407.25 350C407.125 349.75 407.023 349.305 406.945 348.664C405.938 349.711 404.734 350.234 403.336 350.234C402.086 350.234 401.059 349.883 400.254 349.18C399.457 348.469 399.059 347.57 399.059 346.484C399.059 345.164 399.559 344.141 400.559 343.414C401.566 342.68 402.98 342.312 404.801 342.312H406.91V341.316C406.91 340.559 406.684 339.957 406.23 339.512C405.777 339.059 405.109 338.832 404.227 338.832C403.453 338.832 402.805 339.027 402.281 339.418C401.758 339.809 401.496 340.281 401.496 340.836H399.316C399.316 340.203 399.539 339.594 399.984 339.008C400.438 338.414 401.047 337.945 401.812 337.602C402.586 337.258 403.434 337.086 404.355 337.086C405.816 337.086 406.961 337.453 407.789 338.188C408.617 338.914 409.047 339.918 409.078 341.199V347.035C409.078 348.199 409.227 349.125 409.523 349.812V350H407.25ZM403.652 348.348C404.332 348.348 404.977 348.172 405.586 347.82C406.195 347.469 406.637 347.012 406.91 346.449V343.848H405.211C402.555 343.848 401.227 344.625 401.227 346.18C401.227 346.859 401.453 347.391 401.906 347.773C402.359 348.156 402.941 348.348 403.652 348.348ZM418.605 339.266C418.277 339.211 417.922 339.184 417.539 339.184C416.117 339.184 415.152 339.789 414.645 341V350H412.477V337.32H414.586L414.621 338.785C415.332 337.652 416.34 337.086 417.645 337.086C418.066 337.086 418.387 337.141 418.605 337.25V339.266ZM427.969 350C427.844 349.75 427.742 349.305 427.664 348.664C426.656 349.711 425.453 350.234 424.055 350.234C422.805 350.234 421.777 349.883 420.973 349.18C420.176 348.469 419.777 347.57 419.777 346.484C419.777 345.164 420.277 344.141 421.277 343.414C422.285 342.68 423.699 342.312 425.52 342.312H427.629V341.316C427.629 340.559 427.402 339.957 426.949 339.512C426.496 339.059 425.828 338.832 424.945 338.832C424.172 338.832 423.523 339.027 423 339.418C422.477 339.809 422.215 340.281 422.215 340.836H420.035C420.035 340.203 420.258 339.594 420.703 339.008C421.156 338.414 421.766 337.945 422.531 337.602C423.305 337.258 424.152 337.086 425.074 337.086C426.535 337.086 427.68 337.453 428.508 338.188C429.336 338.914 429.766 339.918 429.797 341.199V347.035C429.797 348.199 429.945 349.125 430.242 349.812V350H427.969ZM424.371 348.348C425.051 348.348 425.695 348.172 426.305 347.82C426.914 347.469 427.355 347.012 427.629 346.449V343.848H425.93C423.273 343.848 421.945 344.625 421.945 346.18C421.945 346.859 422.172 347.391 422.625 347.773C423.078 348.156 423.66 348.348 424.371 348.348ZM438.281 348.465C439.055 348.465 439.73 348.23 440.309 347.762C440.887 347.293 441.207 346.707 441.27 346.004H443.32C443.281 346.73 443.031 347.422 442.57 348.078C442.109 348.734 441.492 349.258 440.719 349.648C439.953 350.039 439.141 350.234 438.281 350.234C436.555 350.234 435.18 349.66 434.156 348.512C433.141 347.355 432.633 345.777 432.633 343.777V343.414C432.633 342.18 432.859 341.082 433.312 340.121C433.766 339.16 434.414 338.414 435.258 337.883C436.109 337.352 437.113 337.086 438.27 337.086C439.691 337.086 440.871 337.512 441.809 338.363C442.754 339.215 443.258 340.32 443.32 341.68H441.27C441.207 340.859 440.895 340.188 440.332 339.664C439.777 339.133 439.09 338.867 438.27 338.867C437.168 338.867 436.312 339.266 435.703 340.062C435.102 340.852 434.801 341.996 434.801 343.496V343.906C434.801 345.367 435.102 346.492 435.703 347.281C436.305 348.07 437.164 348.465 438.281 348.465ZM448.699 334.25V337.32H451.066V338.996H448.699V346.859C448.699 347.367 448.805 347.75 449.016 348.008C449.227 348.258 449.586 348.383 450.094 348.383C450.344 348.383 450.688 348.336 451.125 348.242V350C450.555 350.156 450 350.234 449.461 350.234C448.492 350.234 447.762 349.941 447.27 349.355C446.777 348.77 446.531 347.938 446.531 346.859V338.996H444.223V337.32H446.531V334.25H448.699ZM458.871 350.234C457.152 350.234 455.754 349.672 454.676 348.547C453.598 347.414 453.059 345.902 453.059 344.012V343.613C453.059 342.355 453.297 341.234 453.773 340.25C454.258 339.258 454.93 338.484 455.789 337.93C456.656 337.367 457.594 337.086 458.602 337.086C460.25 337.086 461.531 337.629 462.445 338.715C463.359 339.801 463.816 341.355 463.816 343.379V344.281H455.227C455.258 345.531 455.621 346.543 456.316 347.316C457.02 348.082 457.91 348.465 458.988 348.465C459.754 348.465 460.402 348.309 460.934 347.996C461.465 347.684 461.93 347.27 462.328 346.754L463.652 347.785C462.59 349.418 460.996 350.234 458.871 350.234ZM458.602 338.867C457.727 338.867 456.992 339.188 456.398 339.828C455.805 340.461 455.438 341.352 455.297 342.5H461.648V342.336C461.586 341.234 461.289 340.383 460.758 339.781C460.227 339.172 459.508 338.867 458.602 338.867ZM472.465 339.266C472.137 339.211 471.781 339.184 471.398 339.184C469.977 339.184 469.012 339.789 468.504 341V350H466.336V337.32H468.445L468.48 338.785C469.191 337.652 470.199 337.086 471.504 337.086C471.926 337.086 472.246 337.141 472.465 337.25V339.266Z" fill="black"/>
<path d="M414.587 270.303H417.785L426.339 292.923H423.141L414.587 270.303ZM428.357 275.867H432.101L432.881 281.847C432.968 282.488 433.037 283.121 433.089 283.745C433.158 284.369 433.236 285.01 433.323 285.669H433.401C433.488 285.01 433.574 284.36 433.661 283.719C433.748 283.078 433.86 282.454 433.999 281.847L434.805 277.583H437.483L438.341 281.847C438.462 282.488 438.575 283.121 438.679 283.745C438.783 284.369 438.878 285.01 438.965 285.669H439.069C439.156 285.01 439.225 284.369 439.277 283.745C439.329 283.121 439.398 282.488 439.485 281.847L440.265 275.867H443.749L441.747 288.763H437.327L436.599 284.473C436.512 283.866 436.426 283.26 436.339 282.653C436.27 282.029 436.192 281.37 436.105 280.677H436.001C435.949 281.145 435.888 281.674 435.819 282.263C435.767 282.852 435.672 283.589 435.533 284.473L434.831 288.763H430.489L428.357 275.867Z" fill="#0072B2"/>
<rect x="540" y="140" width="130" height="342" fill="#FFFAF5"/>
<path d="M561.77 196.789H556.285V212H554.047V196.789H548.574V194.938H561.77V196.789ZM566.129 200.855C567.09 199.676 568.34 199.086 569.879 199.086C572.559 199.086 573.91 200.598 573.934 203.621V212H571.766V203.609C571.758 202.695 571.547 202.02 571.133 201.582C570.727 201.145 570.09 200.926 569.223 200.926C568.52 200.926 567.902 201.113 567.371 201.488C566.84 201.863 566.426 202.355 566.129 202.965V212H563.961V194H566.129V200.855ZM582.441 212.234C580.723 212.234 579.324 211.672 578.246 210.547C577.168 209.414 576.629 207.902 576.629 206.012V205.613C576.629 204.355 576.867 203.234 577.344 202.25C577.828 201.258 578.5 200.484 579.359 199.93C580.227 199.367 581.164 199.086 582.172 199.086C583.82 199.086 585.102 199.629 586.016 200.715C586.93 201.801 587.387 203.355 587.387 205.379V206.281H578.797C578.828 207.531 579.191 208.543 579.887 209.316C580.59 210.082 581.48 210.465 582.559 210.465C583.324 210.465 583.973 210.309 584.504 209.996C585.035 209.684 585.5 209.27 585.898 208.754L587.223 209.785C586.16 211.418 584.566 212.234 582.441 212.234ZM582.172 200.867C581.297 200.867 580.562 201.188 579.969 201.828C579.375 202.461 579.008 203.352 578.867 204.5H585.219V204.336C585.156 203.234 584.859 202.383 584.328 201.781C583.797 201.172 583.078 200.867 582.172 200.867ZM554.727 238.465C555.5 238.465 556.176 238.23 556.754 237.762C557.332 237.293 557.652 236.707 557.715 236.004H559.766C559.727 236.73 559.477 237.422 559.016 238.078C558.555 238.734 557.938 239.258 557.164 239.648C556.398 240.039 555.586 240.234 554.727 240.234C553 240.234 551.625 239.66 550.602 238.512C549.586 237.355 549.078 235.777 549.078 233.777V233.414C549.078 232.18 549.305 231.082 549.758 230.121C550.211 229.16 550.859 228.414 551.703 227.883C552.555 227.352 553.559 227.086 554.715 227.086C556.137 227.086 557.316 227.512 558.254 228.363C559.199 229.215 559.703 230.32 559.766 231.68H557.715C557.652 230.859 557.34 230.188 556.777 229.664C556.223 229.133 555.535 228.867 554.715 228.867C553.613 228.867 552.758 229.266 552.148 230.062C551.547 230.852 551.246 231.996 551.246 233.496V233.906C551.246 235.367 551.547 236.492 552.148 237.281C552.75 238.07 553.609 238.465 554.727 238.465ZM561.629 233.543C561.629 232.301 561.871 231.184 562.355 230.191C562.848 229.199 563.527 228.434 564.395 227.895C565.27 227.355 566.266 227.086 567.383 227.086C569.109 227.086 570.504 227.684 571.566 228.879C572.637 230.074 573.172 231.664 573.172 233.648V233.801C573.172 235.035 572.934 236.145 572.457 237.129C571.988 238.105 571.312 238.867 570.43 239.414C569.555 239.961 568.547 240.234 567.406 240.234C565.688 240.234 564.293 239.637 563.223 238.441C562.16 237.246 561.629 235.664 561.629 233.695V233.543ZM563.809 233.801C563.809 235.207 564.133 236.336 564.781 237.188C565.438 238.039 566.312 238.465 567.406 238.465C568.508 238.465 569.383 238.035 570.031 237.176C570.68 236.309 571.004 235.098 571.004 233.543C571.004 232.152 570.672 231.027 570.008 230.168C569.352 229.301 568.477 228.867 567.383 228.867C566.312 228.867 565.449 229.293 564.793 230.145C564.137 230.996 563.809 232.215 563.809 233.801ZM577.941 227.32L578.012 228.914C578.98 227.695 580.246 227.086 581.809 227.086C584.488 227.086 585.84 228.598 585.863 231.621V240H583.695V231.609C583.688 230.695 583.477 230.02 583.062 229.582C582.656 229.145 582.02 228.926 581.152 228.926C580.449 228.926 579.832 229.113 579.301 229.488C578.77 229.863 578.355 230.355 578.059 230.965V240H575.891V227.32H577.941ZM592.074 224.25V227.32H594.441V228.996H592.074V236.859C592.074 237.367 592.18 237.75 592.391 238.008C592.602 238.258 592.961 238.383 593.469 238.383C593.719 238.383 594.062 238.336 594.5 238.242V240C593.93 240.156 593.375 240.234 592.836 240.234C591.867 240.234 591.137 239.941 590.645 239.355C590.152 238.77 589.906 237.938 589.906 236.859V228.996H587.598V227.32H589.906V224.25H592.074ZM602.246 240.234C600.527 240.234 599.129 239.672 598.051 238.547C596.973 237.414 596.434 235.902 596.434 234.012V233.613C596.434 232.355 596.672 231.234 597.148 230.25C597.633 229.258 598.305 228.484 599.164 227.93C600.031 227.367 600.969 227.086 601.977 227.086C603.625 227.086 604.906 227.629 605.82 228.715C606.734 229.801 607.191 231.355 607.191 233.379V234.281H598.602C598.633 235.531 598.996 236.543 599.691 237.316C600.395 238.082 601.285 238.465 602.363 238.465C603.129 238.465 603.777 238.309 604.309 237.996C604.84 237.684 605.305 237.27 605.703 236.754L607.027 237.785C605.965 239.418 604.371 240.234 602.246 240.234ZM601.977 228.867C601.102 228.867 600.367 229.188 599.773 229.828C599.18 230.461 598.812 231.352 598.672 232.5H605.023V232.336C604.961 231.234 604.664 230.383 604.133 229.781C603.602 229.172 602.883 228.867 601.977 228.867ZM611.762 227.32L611.832 228.914C612.801 227.695 614.066 227.086 615.629 227.086C618.309 227.086 619.66 228.598 619.684 231.621V240H617.516V231.609C617.508 230.695 617.297 230.02 616.883 229.582C616.477 229.145 615.84 228.926 614.973 228.926C614.27 228.926 613.652 229.113 613.121 229.488C612.59 229.863 612.176 230.355 611.879 230.965V240H609.711V227.32H611.762ZM625.895 224.25V227.32H628.262V228.996H625.895V236.859C625.895 237.367 626 237.75 626.211 238.008C626.422 238.258 626.781 238.383 627.289 238.383C627.539 238.383 627.883 238.336 628.32 238.242V240C627.75 240.156 627.195 240.234 626.656 240.234C625.688 240.234 624.957 239.941 624.465 239.355C623.973 238.77 623.727 237.938 623.727 236.859V228.996H621.418V227.32H623.727V224.25H625.895ZM638.188 236.637C638.188 236.051 637.965 235.598 637.52 235.277C637.082 234.949 636.312 234.668 635.211 234.434C634.117 234.199 633.246 233.918 632.598 233.59C631.957 233.262 631.48 232.871 631.168 232.418C630.863 231.965 630.711 231.426 630.711 230.801C630.711 229.762 631.148 228.883 632.023 228.164C632.906 227.445 634.031 227.086 635.398 227.086C636.836 227.086 638 227.457 638.891 228.199C639.789 228.941 640.238 229.891 640.238 231.047H638.059C638.059 230.453 637.805 229.941 637.297 229.512C636.797 229.082 636.164 228.867 635.398 228.867C634.609 228.867 633.992 229.039 633.547 229.383C633.102 229.727 632.879 230.176 632.879 230.73C632.879 231.254 633.086 231.648 633.5 231.914C633.914 232.18 634.66 232.434 635.738 232.676C636.824 232.918 637.703 233.207 638.375 233.543C639.047 233.879 639.543 234.285 639.863 234.762C640.191 235.23 640.355 235.805 640.355 236.484C640.355 237.617 639.902 238.527 638.996 239.215C638.09 239.895 636.914 240.234 635.469 240.234C634.453 240.234 633.555 240.055 632.773 239.695C631.992 239.336 631.379 238.836 630.934 238.195C630.496 237.547 630.277 236.848 630.277 236.098H632.445C632.484 236.824 632.773 237.402 633.312 237.832C633.859 238.254 634.578 238.465 635.469 238.465C636.289 238.465 636.945 238.301 637.438 237.973C637.938 237.637 638.188 237.191 638.188 236.637ZM549.066 261.543C549.066 260.301 549.309 259.184 549.793 258.191C550.285 257.199 550.965 256.434 551.832 255.895C552.707 255.355 553.703 255.086 554.82 255.086C556.547 255.086 557.941 255.684 559.004 256.879C560.074 258.074 560.609 259.664 560.609 261.648V261.801C560.609 263.035 560.371 264.145 559.895 265.129C559.426 266.105 558.75 266.867 557.867 267.414C556.992 267.961 555.984 268.234 554.844 268.234C553.125 268.234 551.73 267.637 550.66 266.441C549.598 265.246 549.066 263.664 549.066 261.695V261.543ZM551.246 261.801C551.246 263.207 551.57 264.336 552.219 265.188C552.875 266.039 553.75 266.465 554.844 266.465C555.945 266.465 556.82 266.035 557.469 265.176C558.117 264.309 558.441 263.098 558.441 261.543C558.441 260.152 558.109 259.027 557.445 258.168C556.789 257.301 555.914 256.867 554.82 256.867C553.75 256.867 552.887 257.293 552.23 258.145C551.574 258.996 551.246 260.215 551.246 261.801ZM564.395 268V256.996H562.391V255.32H564.395V254.02C564.395 252.66 564.758 251.609 565.484 250.867C566.211 250.125 567.238 249.754 568.566 249.754C569.066 249.754 569.562 249.82 570.055 249.953L569.938 251.711C569.57 251.641 569.18 251.605 568.766 251.605C568.062 251.605 567.52 251.812 567.137 252.227C566.754 252.633 566.562 253.219 566.562 253.984V255.32H569.27V256.996H566.562V268H564.395ZM577.109 261.555C577.109 259.578 577.566 258.008 578.48 256.844C579.395 255.672 580.605 255.086 582.113 255.086C583.66 255.086 584.867 255.633 585.734 256.727L585.84 255.32H587.82V267.695C587.82 269.336 587.332 270.629 586.355 271.574C585.387 272.52 584.082 272.992 582.441 272.992C581.527 272.992 580.633 272.797 579.758 272.406C578.883 272.016 578.215 271.48 577.754 270.801L578.879 269.5C579.809 270.648 580.945 271.223 582.289 271.223C583.344 271.223 584.164 270.926 584.75 270.332C585.344 269.738 585.641 268.902 585.641 267.824V266.734C584.773 267.734 583.59 268.234 582.09 268.234C580.605 268.234 579.402 267.637 578.48 266.441C577.566 265.246 577.109 263.617 577.109 261.555ZM579.289 261.801C579.289 263.23 579.582 264.355 580.168 265.176C580.754 265.988 581.574 266.395 582.629 266.395C583.996 266.395 585 265.773 585.641 264.531V258.742C584.977 257.531 583.98 256.926 582.652 256.926C581.598 256.926 580.773 257.336 580.18 258.156C579.586 258.977 579.289 260.191 579.289 261.801ZM597.23 257.266C596.902 257.211 596.547 257.184 596.164 257.184C594.742 257.184 593.777 257.789 593.27 259V268H591.102V255.32H593.211L593.246 256.785C593.957 255.652 594.965 255.086 596.27 255.086C596.691 255.086 597.012 255.141 597.23 255.25V257.266ZM598.426 261.543C598.426 260.301 598.668 259.184 599.152 258.191C599.645 257.199 600.324 256.434 601.191 255.895C602.066 255.355 603.062 255.086 604.18 255.086C605.906 255.086 607.301 255.684 608.363 256.879C609.434 258.074 609.969 259.664 609.969 261.648V261.801C609.969 263.035 609.73 264.145 609.254 265.129C608.785 266.105 608.109 266.867 607.227 267.414C606.352 267.961 605.344 268.234 604.203 268.234C602.484 268.234 601.09 267.637 600.02 266.441C598.957 265.246 598.426 263.664 598.426 261.695V261.543ZM600.605 261.801C600.605 263.207 600.93 264.336 601.578 265.188C602.234 266.039 603.109 266.465 604.203 266.465C605.305 266.465 606.18 266.035 606.828 265.176C607.477 264.309 607.801 263.098 607.801 261.543C607.801 260.152 607.469 259.027 606.805 258.168C606.148 257.301 605.273 256.867 604.18 256.867C603.109 256.867 602.246 257.293 601.59 258.145C600.934 258.996 600.605 260.215 600.605 261.801ZM620.516 266.746C619.672 267.738 618.434 268.234 616.801 268.234C615.449 268.234 614.418 267.844 613.707 267.062C613.004 266.273 612.648 265.109 612.641 263.57V255.32H614.809V263.512C614.809 265.434 615.59 266.395 617.152 266.395C618.809 266.395 619.91 265.777 620.457 264.543V255.32H622.625V268H620.562L620.516 266.746ZM636.641 261.801C636.641 263.73 636.199 265.285 635.316 266.465C634.434 267.645 633.238 268.234 631.73 268.234C630.191 268.234 628.98 267.746 628.098 266.77V272.875H625.93V255.32H627.91L628.016 256.727C628.898 255.633 630.125 255.086 631.695 255.086C633.219 255.086 634.422 255.66 635.305 256.809C636.195 257.957 636.641 259.555 636.641 261.602V261.801ZM634.473 261.555C634.473 260.125 634.168 258.996 633.559 258.168C632.949 257.34 632.113 256.926 631.051 256.926C629.738 256.926 628.754 257.508 628.098 258.672V264.73C628.746 265.887 629.738 266.465 631.074 266.465C632.113 266.465 632.938 266.055 633.547 265.234C634.164 264.406 634.473 263.18 634.473 261.555ZM652.262 268H650.082V253.551L645.711 255.156V253.188L651.922 250.855H652.262V268Z" fill="black"/>
<path d="M591.638 159.723H594.59L602.486 180.603H599.534L591.638 159.723ZM617.141 173.907V176.763H606.221V173.907H610.157V165.099H607.013V162.915C607.909 162.755 608.669 162.563 609.293 162.339C609.933 162.115 610.533 161.843 611.093 161.523H613.685V173.907H617.141Z" fill="#0072B2"/>
<path d="M328 20H697.063V68H328V20Z" fill="#F1F4F8"/>
<path d="M482.995 56.248C481.379 54.904 480.099 53.32 479.155 51.496C478.227 49.672 477.763 47.616 477.763 45.328C477.763 43.04 478.227 40.984 479.155 39.16C480.099 37.336 481.379 35.752 482.995 34.408L484.531 35.68C483.011 37.056 481.899 38.52 481.195 40.072C480.491 41.624 480.139 43.376 480.139 45.328C480.139 47.28 480.491 49.032 481.195 50.584C481.899 52.136 483.011 53.6 484.531 54.976L482.995 56.248ZM519.255 54.976C520.775 53.6 521.887 52.136 522.591 50.584C523.295 49.032 523.647 47.28 523.647 45.328C523.647 43.376 523.295 41.624 522.591 40.072C521.887 38.52 520.775 37.056 519.255 35.68L520.791 34.408C522.407 35.752 523.679 37.336 524.607 39.16C525.551 40.984 526.023 43.04 526.023 45.328C526.023 47.616 525.551 49.672 524.607 51.496C523.679 53.32 522.407 54.904 520.791 56.248L519.255 54.976Z" fill="#D55E00"/>
<path d="M489.561 34.96H491.937L499.833 55.84H497.457L489.561 34.96ZM502.032 40.216H504.768L505.848 46.336C505.944 46.896 506.024 47.456 506.088 48.016C506.168 48.576 506.248 49.144 506.328 49.72H506.424C506.504 49.144 506.592 48.576 506.688 48.016C506.784 47.456 506.896 46.896 507.024 46.336L508.128 41.368H510.192L511.296 46.336C511.424 46.896 511.536 47.456 511.632 48.016C511.744 48.576 511.848 49.144 511.944 49.72H512.04C512.136 49.144 512.216 48.576 512.28 48.016C512.36 47.456 512.44 46.896 512.52 46.336L513.6 40.216H516.144L513.96 52H510.72L509.688 47.08C509.592 46.52 509.496 45.96 509.4 45.4C509.32 44.84 509.232 44.256 509.136 43.648H509.04C508.96 44.112 508.88 44.616 508.8 45.16C508.736 45.688 508.64 46.336 508.512 47.104L507.504 52H504.312L502.032 40.216ZM532.733 34.96H535.109L543.005 55.84H540.629L532.733 34.96ZM557.852 49.744V52H547.22V49.744H551.348V39.712H548.156V37.984C549.02 37.84 549.756 37.672 550.364 37.48C550.988 37.272 551.564 37.024 552.092 36.736H554.108V49.744H557.852Z" fill="#0072B2"/>
<path d="M604.707 134.707C604.317 135.098 603.683 135.098 603.293 134.707L596.929 128.343C596.538 127.953 596.538 127.319 596.929 126.929C597.319 126.538 597.953 126.538 598.343 126.929L604 132.586L609.657 126.929C610.047 126.538 610.681 126.538 611.071 126.929C611.462 127.319 611.462 127.953 611.071 128.343L604.707 134.707ZM605 118V134H603V118H605Z" fill="#828282"/>
<path d="M548 74V88L604 118V134" stroke="#828282"/>
<path d="M429.293 134.707C429.683 135.098 430.317 135.098 430.707 134.707L437.071 128.343C437.462 127.953 437.462 127.319 437.071 126.929C436.681 126.538 436.047 126.538 435.657 126.929L430 132.586L424.343 126.929C423.953 126.538 423.319 126.538 422.929 126.929C422.538 127.319 422.538 127.953 422.929 128.343L429.293 134.707ZM429 118V134H431V118H429Z" fill="#828282"/>
<path d="M504 74V88L430 118V134" stroke="#828282"/>
</svg>
