<svg width="235" height="139" viewBox="0 0 235 139" version="1.1" xmlns="http://www.w3.org/2000/svg" xmlns:xlink="http://www.w3.org/1999/xlink">
<title>Group 16</title>
<desc>Created using Figma</desc>
<g id="Canvas" transform="translate(-501 -827)">
<g id="Group 16">
<g id="Line 12.6">
<use xlink:href="#path0_stroke" transform="matrix(0.898567 0.438835 -0.438835 0.898567 534 847)"/>
</g>
<g id="Line 12.7">
<use xlink:href="#path1_stroke" transform="matrix(0.906183 -0.422885 0.422885 0.906183 533 945)"/>
</g>
<g id="Line 13.5">
<use xlink:href="#path2_stroke" transform="matrix(1 -2.44929e-16 2.44929e-16 1 535 897)"/>
</g>
<g id="Ellipse 2.12">
<use xlink:href="#path3_fill" transform="translate(619 872)" fill="#FFFFFF"/>
<mask id="mask0_outline_ins">
<use xlink:href="#path3_fill" fill="white" transform="translate(619 872)"/>
</mask>
<g mask="url(#mask0_outline_ins)">
<use xlink:href="#path4_stroke_2x" transform="translate(619 872)"/>
</g>
</g>
<g id="Ellipse 2.13">
<use xlink:href="#path5_fill" transform="translate(501 827)" fill="#FFFFFF"/>
<mask id="mask1_outline_ins">
<use xlink:href="#path5_fill" fill="white" transform="translate(501 827)"/>
</mask>
<g mask="url(#mask1_outline_ins)">
<use xlink:href="#path6_stroke_2x" transform="translate(501 827)"/>
</g>
</g>
<g id="Ellipse 2.14">
<use xlink:href="#path5_fill" transform="translate(502 880)" fill="#FFFFFF"/>
<mask id="mask2_outline_ins">
<use xlink:href="#path5_fill" fill="white" transform="translate(502 880)"/>
</mask>
<g mask="url(#mask2_outline_ins)">
<use xlink:href="#path6_stroke_2x" transform="translate(502 880)"/>
</g>
</g>
<g id="Ellipse 2.15">
<use xlink:href="#path5_fill" transform="translate(502 933)" fill="#FFFFFF"/>
<mask id="mask3_outline_ins">
<use xlink:href="#path5_fill" fill="white" transform="translate(502 933)"/>
</mask>
<g mask="url(#mask3_outline_ins)">
<use xlink:href="#path6_stroke_2x" transform="translate(502 933)"/>
</g>
</g>
<g id="a">
<use xlink:href="#path7_fill" transform="translate(566 837)"/>
</g>
<g id="a">
<use xlink:href="#path7_fill" transform="translate(566 871)"/>
</g>
<g id="a">
<use xlink:href="#path7_fill" transform="translate(566 924)"/>
</g>
<g id="1">
<use xlink:href="#path8_fill" transform="translate(513 833)"/>
</g>
<g id="0">
<use xlink:href="#path9_fill" transform="translate(576 849)"/>
</g>
<g id="1">
<use xlink:href="#path10_fill" transform="translate(576 883)"/>
</g>
<g id="1">
<use xlink:href="#path10_fill" transform="translate(521 893)"/>
</g>
<g id="2">
<use xlink:href="#path11_fill" transform="translate(578 934)"/>
</g>
<g id="2">
<use xlink:href="#path11_fill" transform="translate(521 946)"/>
</g>
<g id="x">
<use xlink:href="#path12_fill" transform="translate(513 883)"/>
</g>
<g id="x">
<use xlink:href="#path12_fill" transform="translate(513 935)"/>
</g>
<g id="Arrow 3.3">
<use xlink:href="#path13_stroke" transform="translate(668 896)"/>
</g>
<g id="y">
<use xlink:href="#path14_fill" transform="translate(727 885)"/>
</g>
<g id="^">
<use xlink:href="#path15_fill" transform="translate(727 878)"/>
</g>
</g>
</g>
<defs>
<path id="path0_stroke" d="M 0 0L 95.7079 0L 95.7079 -1L 0 -1L 0 0Z"/>
<path id="path1_stroke" d="M 0 0L 99.3177 0L 99.3177 -1L 0 -1L 0 0Z"/>
<path id="path2_stroke" d="M 0 0L 89 0L 89 -1L 0 -1L 0 0Z"/>
<path id="path3_fill" d="M 49 24.5C 49 38.031 38.031 49 24.5 49C 10.969 49 0 38.031 0 24.5C 0 10.969 10.969 0 24.5 0C 38.031 0 49 10.969 49 24.5Z"/>
<path id="path4_stroke_2x" d="M 48 24.5C 48 37.4787 37.4787 48 24.5 48L 24.5 50C 38.5833 50 50 38.5833 50 24.5L 48 24.5ZM 24.5 48C 11.5213 48 1 37.4787 1 24.5L -1 24.5C -1 38.5833 10.4167 50 24.5 50L 24.5 48ZM 1 24.5C 1 11.5213 11.5213 1 24.5 1L 24.5 -1C 10.4167 -1 -1 10.4167 -1 24.5L 1 24.5ZM 24.5 1C 37.4787 1 48 11.5213 48 24.5L 50 24.5C 50 10.4167 38.5833 -1 24.5 -1L 24.5 1Z"/>
<path id="path5_fill" d="M 33 16.5C 33 25.6127 25.6127 33 16.5 33C 7.3873 33 0 25.6127 0 16.5C 0 7.3873 7.3873 0 16.5 0C 25.6127 0 33 7.3873 33 16.5Z"/>
<path id="path6_stroke_2x" d="M 32 16.5C 32 25.0604 25.0604 32 16.5 32L 16.5 34C 26.165 34 34 26.165 34 16.5L 32 16.5ZM 16.5 32C 7.93959 32 1 25.0604 1 16.5L -1 16.5C -1 26.165 6.83502 34 16.5 34L 16.5 32ZM 1 16.5C 1 7.93959 7.93959 1 16.5 1L 16.5 -1C 6.83502 -1 -1 6.83502 -1 16.5L 1 16.5ZM 16.5 1C 25.0604 1 32 7.93959 32 16.5L 34 16.5C 34 6.83502 26.165 -1 16.5 -1L 16.5 1Z"/>
<path id="path7_fill" d="M 7.10156 17C 7.00781 16.8125 6.93164 16.4785 6.87305 15.998C 6.11719 16.7832 5.21484 17.1758 4.16602 17.1758C 3.22852 17.1758 2.45801 16.9121 1.85449 16.3848C 1.25684 15.8516 0.958008 15.1777 0.958008 14.3633C 0.958008 13.373 1.33301 12.6055 2.08301 12.0605C 2.83887 11.5098 3.89941 11.2344 5.26465 11.2344L 6.84668 11.2344L 6.84668 10.4873C 6.84668 9.91895 6.67676 9.46777 6.33691 9.13379C 5.99707 8.79395 5.49609 8.62402 4.83398 8.62402C 4.25391 8.62402 3.76758 8.77051 3.375 9.06348C 2.98242 9.35645 2.78613 9.71094 2.78613 10.127L 1.15137 10.127C 1.15137 9.65234 1.31836 9.19531 1.65234 8.75586C 1.99219 8.31055 2.44922 7.95898 3.02344 7.70117C 3.60352 7.44336 4.23926 7.31445 4.93066 7.31445C 6.02637 7.31445 6.88477 7.58984 7.50586 8.14062C 8.12695 8.68555 8.44922 9.43848 8.47266 10.3994L 8.47266 14.7764C 8.47266 15.6494 8.58398 16.3438 8.80664 16.8594L 8.80664 17L 7.10156 17ZM 4.40332 15.7607C 4.91309 15.7607 5.39648 15.6289 5.85352 15.3652C 6.31055 15.1016 6.6416 14.7588 6.84668 14.3369L 6.84668 12.3857L 5.57227 12.3857C 3.58008 12.3857 2.58398 12.9688 2.58398 14.1348C 2.58398 14.6445 2.75391 15.043 3.09375 15.3301C 3.43359 15.6172 3.87012 15.7607 4.40332 15.7607Z"/>
<path id="path8_fill" d="M 6.40723 17L 4.77246 17L 4.77246 6.16309L 1.49414 7.36719L 1.49414 5.89062L 6.15234 4.1416L 6.40723 4.1416L 6.40723 17Z"/>
<path id="path9_fill" d="M 6.05859 7.36133C 6.05859 8.63086 5.8418 9.57422 5.4082 10.1914C 4.97461 10.8086 4.29687 11.1172 3.375 11.1172C 2.46484 11.1172 1.79102 10.8164 1.35352 10.2148C 0.916016 9.60938 0.689453 8.70703 0.673828 7.50781L 0.673828 6.06055C 0.673828 4.80664 0.890625 3.875 1.32422 3.26562C 1.75781 2.65625 2.4375 2.35156 3.36328 2.35156C 4.28125 2.35156 4.95703 2.64648 5.39062 3.23633C 5.82422 3.82227 6.04688 4.72852 6.05859 5.95508L 6.05859 7.36133ZM 4.97461 5.87891C 4.97461 4.96094 4.8457 4.29297 4.58789 3.875C 4.33008 3.45312 3.92187 3.24219 3.36328 3.24219C 2.80859 3.24219 2.4043 3.45117 2.15039 3.86914C 1.89648 4.28711 1.76563 4.92969 1.75781 5.79688L 1.75781 7.53125C 1.75781 8.45313 1.89062 9.13477 2.15625 9.57617C 2.42578 10.0137 2.83203 10.2324 3.375 10.2324C 3.91016 10.2324 4.30664 10.0254 4.56445 9.61133C 4.82617 9.19727 4.96289 8.54492 4.97461 7.6543L 4.97461 5.87891Z"/>
<path id="path10_fill" d="M 4.27148 11L 3.18164 11L 3.18164 3.77539L 0.996094 4.57812L 0.996094 3.59375L 4.10156 2.42773L 4.27148 2.42773L 4.27148 11Z"/>
<path id="path11_fill" d="M 6.29883 11L 0.708984 11L 0.708984 10.2207L 3.66211 6.93945C 4.09961 6.44336 4.40039 6.04102 4.56445 5.73242C 4.73242 5.41992 4.81641 5.09766 4.81641 4.76562C 4.81641 4.32031 4.68164 3.95508 4.41211 3.66992C 4.14258 3.38477 3.7832 3.24219 3.33398 3.24219C 2.79492 3.24219 2.375 3.39648 2.07422 3.70508C 1.77734 4.00977 1.62891 4.43555 1.62891 4.98242L 0.544922 4.98242C 0.544922 4.19727 0.796875 3.5625 1.30078 3.07812C 1.80859 2.59375 2.48633 2.35156 3.33398 2.35156C 4.12695 2.35156 4.75391 2.56055 5.21484 2.97852C 5.67578 3.39258 5.90625 3.94531 5.90625 4.63672C 5.90625 5.47656 5.37109 6.47656 4.30078 7.63672L 2.01562 10.1152L 6.29883 10.1152L 6.29883 11Z"/>
<path id="path12_fill" d="M 4.4209 10.9619L 6.53027 7.49023L 8.42871 7.49023L 5.31738 12.1924L 8.52539 17L 6.64453 17L 4.44727 13.4404L 2.25 17L 0.360352 17L 3.56836 12.1924L 0.457031 7.49023L 2.33789 7.49023L 4.4209 10.9619Z"/>
<path id="path13_stroke" d="M 44.3536 0.353553C 44.5488 0.158291 44.5488 -0.158291 44.3536 -0.353553L 41.1716 -3.53553C 40.9763 -3.7308 40.6597 -3.7308 40.4645 -3.53553C 40.2692 -3.34027 40.2692 -3.02369 40.4645 -2.82843L 43.2929 0L 40.4645 2.82843C 40.2692 3.02369 40.2692 3.34027 40.4645 3.53553C 40.6597 3.7308 40.9763 3.7308 41.1716 3.53553L 44.3536 0.353553ZM 0 0.5L 44 0.5L 44 -0.5L 0 -0.5L 0 0.5Z"/>
<path id="path14_fill" d="M 4.5791 14.6182L 6.79395 7.49023L 8.53418 7.49023L 4.71094 18.4678C 4.11914 20.0498 3.17871 20.8408 1.88965 20.8408L 1.58203 20.8145L 0.975586 20.7002L 0.975586 19.3818L 1.41504 19.417C 1.96582 19.417 2.39355 19.3057 2.69824 19.083C 3.00879 18.8604 3.26367 18.4531 3.46289 17.8613L 3.82324 16.8945L 0.430664 7.49023L 2.20605 7.49023L 4.5791 14.6182Z"/>
<path id="path15_fill" d="M 3.98242 6.35645L 2.3125 10.5928L 0.800781 10.5928L 3.42871 4.20312L 4.54492 4.20312L 7.16406 10.5928L 5.66113 10.5928L 3.98242 6.35645Z"/>
</defs>
</svg>

