<svg width="235" height="139" viewBox="0 0 235 139" version="1.1" xmlns="http://www.w3.org/2000/svg" xmlns:xlink="http://www.w3.org/1999/xlink">
<title>Group 17</title>
<desc>Created using Figma</desc>
<g id="Canvas" transform="translate(-501 -1006)">
<g id="Group 17">
<g id="activation function">
<use xlink:href="#path0_fill" transform="translate(613 1110)"/>
</g>
<g id="Line 12.4">
<use xlink:href="#path1_stroke" transform="matrix(0.898567 0.438835 -0.438835 0.898567 534 1026)"/>
</g>
<g id="Line 12.5">
<use xlink:href="#path2_stroke" transform="matrix(0.906183 -0.422885 0.422885 0.906183 533 1124)"/>
</g>
<g id="Line 13.4">
<use xlink:href="#path3_stroke" transform="matrix(1 -2.44929e-16 2.44929e-16 1 535 1076)"/>
</g>
<g id="Ellipse 2.8">
<use xlink:href="#path4_fill" transform="translate(619 1051)" fill="#F2994A"/>
<mask id="mask0_outline_ins">
<use xlink:href="#path4_fill" fill="white" transform="translate(619 1051)"/>
</mask>
<g mask="url(#mask0_outline_ins)">
<use xlink:href="#path5_stroke_2x" transform="translate(619 1051)"/>
</g>
</g>
<g id="Ellipse 2.9">
<use xlink:href="#path6_fill" transform="translate(501 1006)" fill="#FFFFFF"/>
<mask id="mask1_outline_ins">
<use xlink:href="#path6_fill" fill="white" transform="translate(501 1006)"/>
</mask>
<g mask="url(#mask1_outline_ins)">
<use xlink:href="#path7_stroke_2x" transform="translate(501 1006)"/>
</g>
</g>
<g id="Ellipse 2.10">
<use xlink:href="#path6_fill" transform="translate(502 1059)" fill="#FFFFFF"/>
<mask id="mask2_outline_ins">
<use xlink:href="#path6_fill" fill="white" transform="translate(502 1059)"/>
</mask>
<g mask="url(#mask2_outline_ins)">
<use xlink:href="#path7_stroke_2x" transform="translate(502 1059)"/>
</g>
</g>
<g id="Ellipse 2.11">
<use xlink:href="#path6_fill" transform="translate(502 1112)" fill="#FFFFFF"/>
<mask id="mask3_outline_ins">
<use xlink:href="#path6_fill" fill="white" transform="translate(502 1112)"/>
</mask>
<g mask="url(#mask3_outline_ins)">
<use xlink:href="#path7_stroke_2x" transform="translate(502 1112)"/>
</g>
</g>
<g id="a">
<use xlink:href="#path8_fill" transform="translate(566 1016)"/>
</g>
<g id="a">
<use xlink:href="#path8_fill" transform="translate(566 1050)"/>
</g>
<g id="a">
<use xlink:href="#path8_fill" transform="translate(566 1103)"/>
</g>
<g id="1">
<use xlink:href="#path9_fill" transform="translate(513 1012)"/>
</g>
<g id="0">
<use xlink:href="#path10_fill" transform="translate(576 1028)"/>
</g>
<g id="1">
<use xlink:href="#path11_fill" transform="translate(576 1062)"/>
</g>
<g id="1">
<use xlink:href="#path11_fill" transform="translate(521 1072)"/>
</g>
<g id="2">
<use xlink:href="#path12_fill" transform="translate(576 1113)"/>
</g>
<g id="2">
<use xlink:href="#path12_fill" transform="translate(521 1125)"/>
</g>
<g id="x">
<use xlink:href="#path13_fill" transform="translate(513 1062)"/>
</g>
<g id="x">
<use xlink:href="#path13_fill" transform="translate(513 1114)"/>
</g>
<g id="Arrow 3.2">
<use xlink:href="#path14_stroke" transform="translate(668 1075)"/>
</g>
<g id="y">
<use xlink:href="#path15_fill" transform="translate(727 1064)"/>
</g>
<g id="^">
<use xlink:href="#path16_fill" transform="translate(727 1057)"/>
</g>
<g id="I( )">
<use xlink:href="#path17_fill" transform="translate(633 1064)"/>
</g>
</g>
</g>
<defs>
<path id="path0_fill" d="M 5.75781 15C 5.72135 14.849 5.70312 14.7005 5.70312 14.5547L 5.72656 14.1094C 4.95052 14.8281 4.1276 15.1771 3.25781 15.1562C 2.51302 15.1458 1.90625 14.9115 1.4375 14.4531C 0.973958 13.9896 0.763021 13.4115 0.804688 12.7188C 0.856771 11.8229 1.2474 11.125 1.97656 10.625C 2.71094 10.1198 3.67448 9.86719 4.86719 9.86719L 6.34375 9.875L 6.4375 9.20312C 6.48958 8.69792 6.39062 8.29948 6.14062 8.00781C 5.89583 7.71094 5.52604 7.55729 5.03125 7.54688C 4.54688 7.53646 4.11719 7.65625 3.74219 7.90625C 3.3724 8.15104 3.14583 8.47656 3.0625 8.88281L 1.64062 8.89062C 1.6875 8.39583 1.88021 7.95833 2.21875 7.57812C 2.55729 7.19271 2.99219 6.89583 3.52344 6.6875C 4.05469 6.47396 4.60417 6.3724 5.17188 6.38281C 6.05208 6.40365 6.73698 6.67188 7.22656 7.1875C 7.71615 7.69792 7.92188 8.3776 7.84375 9.22656L 7.15625 13.4141L 7.11719 14.0156C 7.10677 14.3021 7.13802 14.5859 7.21094 14.8672L 7.19531 15L 5.75781 15ZM 3.53906 13.9062C 3.99219 13.9167 4.41927 13.8099 4.82031 13.5859C 5.22656 13.3568 5.57552 13.0417 5.86719 12.6406L 6.17188 10.8984L 5.10156 10.8906C 4.21094 10.8906 3.52865 11.0312 3.05469 11.3125C 2.58073 11.5938 2.3125 11.9922 2.25 12.5078C 2.20312 12.9036 2.29427 13.2344 2.52344 13.5C 2.75781 13.7604 3.09635 13.8958 3.53906 13.9062ZM 12.6875 13.9844C 13.1927 13.9948 13.6484 13.849 14.0547 13.5469C 14.4609 13.2396 14.7266 12.8385 14.8516 12.3438L 16.1875 12.3359C 16.1094 12.8672 15.8958 13.3516 15.5469 13.7891C 15.2031 14.2266 14.7682 14.5677 14.2422 14.8125C 13.7161 15.0573 13.1771 15.1719 12.625 15.1562C 11.9219 15.1458 11.3255 14.9635 10.8359 14.6094C 10.3516 14.25 9.99479 13.7526 9.76562 13.1172C 9.53646 12.4766 9.45833 11.7578 9.53125 10.9609L 9.57031 10.5703C 9.66927 9.75781 9.90625 9.03125 10.2812 8.39062C 10.6562 7.75 11.1458 7.2526 11.75 6.89844C 12.3542 6.53906 13.0208 6.36979 13.75 6.39062C 14.6354 6.41146 15.3438 6.70833 15.875 7.28125C 16.4062 7.85417 16.6719 8.58073 16.6719 9.46094L 15.3516 9.45312C 15.3411 8.90104 15.1875 8.45573 14.8906 8.11719C 14.5938 7.77344 14.1927 7.59115 13.6875 7.57031C 12.9531 7.55469 12.3411 7.82812 11.8516 8.39062C 11.3672 8.95312 11.0651 9.73958 10.9453 10.75L 10.9219 10.9531C 10.8906 11.2865 10.8854 11.6302 10.9062 11.9844C 10.9427 12.5938 11.1146 13.0755 11.4219 13.4297C 11.7292 13.7839 12.151 13.9688 12.6875 13.9844ZM 21.0547 4.5L 20.6953 6.54688L 22.2344 6.54688L 22.0391 7.66406L 20.5078 7.66406L 19.625 12.9219C 19.6094 13.0573 19.6068 13.1823 19.6172 13.2969C 19.6536 13.7031 19.875 13.9062 20.2812 13.9062C 20.4531 13.9062 20.6823 13.8802 20.9688 13.8281L 20.8594 15.0078C 20.5208 15.1016 20.1771 15.1484 19.8281 15.1484C 19.2656 15.138 18.8438 14.9323 18.5625 14.5312C 18.2812 14.125 18.1719 13.5807 18.2344 12.8984L 19.0938 7.66406L 17.6016 7.66406L 17.7969 6.54688L 19.2891 6.54688L 19.6484 4.5L 21.0547 4.5ZM 24.0078 15L 22.6016 15L 24.0703 6.54688L 25.4766 6.54688L 24.0078 15ZM 25.1719 3.46094C 25.4115 3.45052 25.6094 3.52344 25.7656 3.67969C 25.9271 3.83073 26.0078 4.03125 26.0078 4.28125C 26.0026 4.52604 25.9219 4.72656 25.7656 4.88281C 25.6146 5.03906 25.4167 5.1224 25.1719 5.13281C 24.9271 5.14323 24.7266 5.07292 24.5703 4.92188C 24.4141 4.77083 24.3385 4.57292 24.3438 4.32812C 24.349 4.08333 24.4271 3.88021 24.5781 3.71875C 24.7292 3.55729 24.9271 3.47135 25.1719 3.46094ZM 29.3906 13.0234L 32.4375 6.54688L 33.9297 6.54688L 29.6719 15L 28.5938 15L 26.9375 6.54688L 28.3281 6.54688L 29.3906 13.0234ZM 38.9609 15C 38.9245 14.849 38.9062 14.7005 38.9062 14.5547L 38.9297 14.1094C 38.1536 14.8281 37.3307 15.1771 36.4609 15.1562C 35.7161 15.1458 35.1094 14.9115 34.6406 14.4531C 34.1771 13.9896 33.9661 13.4115 34.0078 12.7188C 34.0599 11.8229 34.4505 11.125 35.1797 10.625C 35.9141 10.1198 36.8776 9.86719 38.0703 9.86719L 39.5469 9.875L 39.6406 9.20312C 39.6927 8.69792 39.5938 8.29948 39.3438 8.00781C 39.099 7.71094 38.7292 7.55729 38.2344 7.54688C 37.75 7.53646 37.3203 7.65625 36.9453 7.90625C 36.5755 8.15104 36.349 8.47656 36.2656 8.88281L 34.8438 8.89062C 34.8906 8.39583 35.0833 7.95833 35.4219 7.57812C 35.7604 7.19271 36.1953 6.89583 36.7266 6.6875C 37.2578 6.47396 37.8073 6.3724 38.375 6.38281C 39.2552 6.40365 39.9401 6.67188 40.4297 7.1875C 40.9193 7.69792 41.125 8.3776 41.0469 9.22656L 40.3594 13.4141L 40.3203 14.0156C 40.3099 14.3021 40.3411 14.5859 40.4141 14.8672L 40.3984 15L 38.9609 15ZM 36.7422 13.9062C 37.1953 13.9167 37.6224 13.8099 38.0234 13.5859C 38.4297 13.3568 38.7786 13.0417 39.0703 12.6406L 39.375 10.8984L 38.3047 10.8906C 37.4141 10.8906 36.7318 11.0312 36.2578 11.3125C 35.7839 11.5938 35.5156 11.9922 35.4531 12.5078C 35.4062 12.9036 35.4974 13.2344 35.7266 13.5C 35.9609 13.7604 36.2995 13.8958 36.7422 13.9062ZM 46.0547 4.5L 45.6953 6.54688L 47.2344 6.54688L 47.0391 7.66406L 45.5078 7.66406L 44.625 12.9219C 44.6094 13.0573 44.6068 13.1823 44.6172 13.2969C 44.6536 13.7031 44.875 13.9062 45.2812 13.9062C 45.4531 13.9062 45.6823 13.8802 45.9688 13.8281L 45.8594 15.0078C 45.5208 15.1016 45.1771 15.1484 44.8281 15.1484C 44.2656 15.138 43.8438 14.9323 43.5625 14.5312C 43.2812 14.125 43.1719 13.5807 43.2344 12.8984L 44.0938 7.66406L 42.6016 7.66406L 42.7969 6.54688L 44.2891 6.54688L 44.6484 4.5L 46.0547 4.5ZM 49.0078 15L 47.6016 15L 49.0703 6.54688L 50.4766 6.54688L 49.0078 15ZM 50.1719 3.46094C 50.4115 3.45052 50.6094 3.52344 50.7656 3.67969C 50.9271 3.83073 51.0078 4.03125 51.0078 4.28125C 51.0026 4.52604 50.9219 4.72656 50.7656 4.88281C 50.6146 5.03906 50.4167 5.1224 50.1719 5.13281C 49.9271 5.14323 49.7266 5.07292 49.5703 4.92188C 49.4141 4.77083 49.3385 4.57292 49.3438 4.32812C 49.349 4.08333 49.4271 3.88021 49.5781 3.71875C 49.7292 3.55729 49.9271 3.47135 50.1719 3.46094ZM 56.0156 6.39062C 56.724 6.40104 57.3307 6.59375 57.8359 6.96875C 58.3411 7.34375 58.7135 7.86198 58.9531 8.52344C 59.1979 9.17969 59.2812 9.89844 59.2031 10.6797L 59.1875 10.8516C 59.0885 11.6745 58.8438 12.4193 58.4531 13.0859C 58.0625 13.7474 57.5573 14.263 56.9375 14.6328C 56.3177 15.0026 55.638 15.1771 54.8984 15.1562C 54.1953 15.1458 53.5885 14.9531 53.0781 14.5781C 52.5729 14.2031 52.2031 13.6927 51.9688 13.0469C 51.7344 12.401 51.651 11.6901 51.7188 10.9141C 51.7969 10.0391 52.0339 9.2526 52.4297 8.55469C 52.8255 7.85677 53.3333 7.31771 53.9531 6.9375C 54.5781 6.55208 55.2656 6.36979 56.0156 6.39062ZM 53.1406 10.9219C 53.1042 11.25 53.1042 11.5911 53.1406 11.9453C 53.1927 12.5599 53.375 13.0495 53.6875 13.4141C 54.0052 13.7786 54.4271 13.9688 54.9531 13.9844C 55.4219 14 55.8542 13.8854 56.25 13.6406C 56.6458 13.3906 56.9792 13.0156 57.25 12.5156C 57.5208 12.0156 57.6953 11.4609 57.7734 10.8516C 57.8151 10.3724 57.8229 9.96875 57.7969 9.64062C 57.7344 9.01042 57.5443 8.51302 57.2266 8.14844C 56.9089 7.78385 56.487 7.59115 55.9609 7.57031C 55.2318 7.55469 54.612 7.84115 54.1016 8.42969C 53.5911 9.01823 53.276 9.78906 53.1562 10.7422L 53.1406 10.9219ZM 63.0625 6.53906L 62.8594 7.60938C 63.6198 6.77604 64.4844 6.36979 65.4531 6.39062C 66.25 6.41146 66.8385 6.6875 67.2188 7.21875C 67.599 7.75 67.7396 8.4974 67.6406 9.46094L 66.7188 15L 65.3047 15L 66.2344 9.4375C 66.2656 9.18229 66.2682 8.94531 66.2422 8.72656C 66.1536 7.9974 65.724 7.625 64.9531 7.60938C 64.1042 7.59375 63.3594 8.04688 62.7188 8.96875L 61.6719 15L 60.2578 15L 61.7266 6.54688L 63.0625 6.53906ZM 6.66406 34L 7.94531 26.6641L 6.64062 26.6641L 6.83594 25.5469L 8.13281 25.5469L 8.27344 24.5469C 8.40885 23.6979 8.73698 23.0339 9.25781 22.5547C 9.80469 22.0547 10.5026 21.8099 11.3516 21.8203C 11.6172 21.8203 11.9531 21.8646 12.3594 21.9531L 12.1875 23.1328C 11.9375 23.0807 11.6849 23.0495 11.4297 23.0391C 10.9401 23.0391 10.5417 23.1927 10.2344 23.5C 9.93229 23.8021 9.74479 24.2057 9.67188 24.7109L 9.54688 25.5469L 11.2969 25.5469L 11.1016 26.6641L 9.35156 26.6641L 8.07812 34L 6.66406 34ZM 16.8125 33.1641C 16.151 33.8464 15.3099 34.1771 14.2891 34.1562C 13.4818 34.1354 12.8828 33.8464 12.4922 33.2891C 12.1068 32.7318 11.9635 31.9714 12.0625 31.0078L 12.9688 25.5469L 14.3828 25.5469L 13.4688 31.0312C 13.4427 31.2604 13.4375 31.4844 13.4531 31.7031C 13.4792 32.0781 13.5911 32.3724 13.7891 32.5859C 13.987 32.7995 14.263 32.9141 14.6172 32.9297C 15.6276 32.9609 16.4089 32.5521 16.9609 31.7031L 18.0234 25.5469L 19.4375 25.5469L 17.9688 34L 16.6328 34L 16.8125 33.1641ZM 22.8906 25.5391L 22.6875 26.6094C 23.4479 25.776 24.3125 25.3698 25.2812 25.3906C 26.0781 25.4115 26.6667 25.6875 27.0469 26.2188C 27.4271 26.75 27.5677 27.4974 27.4688 28.4609L 26.5469 34L 25.1328 34L 26.0625 28.4375C 26.0938 28.1823 26.0964 27.9453 26.0703 27.7266C 25.9818 26.9974 25.5521 26.625 24.7812 26.6094C 23.9323 26.5938 23.1875 27.0469 22.5469 27.9688L 21.5 34L 20.0859 34L 21.5547 25.5469L 22.8906 25.5391ZM 32.2969 32.9844C 32.8021 32.9948 33.2578 32.849 33.6641 32.5469C 34.0703 32.2396 34.3359 31.8385 34.4609 31.3438L 35.7969 31.3359C 35.7188 31.8672 35.5052 32.3516 35.1562 32.7891C 34.8125 33.2266 34.3776 33.5677 33.8516 33.8125C 33.3255 34.0573 32.7865 34.1719 32.2344 34.1562C 31.5312 34.1458 30.9349 33.9635 30.4453 33.6094C 29.9609 33.25 29.6042 32.7526 29.375 32.1172C 29.1458 31.4766 29.0677 30.7578 29.1406 29.9609L 29.1797 29.5703C 29.2786 28.7578 29.5156 28.0312 29.8906 27.3906C 30.2656 26.75 30.7552 26.2526 31.3594 25.8984C 31.9635 25.5391 32.6302 25.3698 33.3594 25.3906C 34.2448 25.4115 34.9531 25.7083 35.4844 26.2812C 36.0156 26.8542 36.2812 27.5807 36.2812 28.4609L 34.9609 28.4531C 34.9505 27.901 34.7969 27.4557 34.5 27.1172C 34.2031 26.7734 33.8021 26.5911 33.2969 26.5703C 32.5625 26.5547 31.9505 26.8281 31.4609 27.3906C 30.9766 27.9531 30.6745 28.7396 30.5547 29.75L 30.5312 29.9531C 30.5 30.2865 30.4948 30.6302 30.5156 30.9844C 30.5521 31.5938 30.724 32.0755 31.0312 32.4297C 31.3385 32.7839 31.7604 32.9688 32.2969 32.9844ZM 40.6641 23.5L 40.3047 25.5469L 41.8438 25.5469L 41.6484 26.6641L 40.1172 26.6641L 39.2344 31.9219C 39.2188 32.0573 39.2161 32.1823 39.2266 32.2969C 39.263 32.7031 39.4844 32.9062 39.8906 32.9062C 40.0625 32.9062 40.2917 32.8802 40.5781 32.8281L 40.4688 34.0078C 40.1302 34.1016 39.7865 34.1484 39.4375 34.1484C 38.875 34.138 38.4531 33.9323 38.1719 33.5312C 37.8906 33.125 37.7812 32.5807 37.8438 31.8984L 38.7031 26.6641L 37.2109 26.6641L 37.4062 25.5469L 38.8984 25.5469L 39.2578 23.5L 40.6641 23.5ZM 43.6172 34L 42.2109 34L 43.6797 25.5469L 45.0859 25.5469L 43.6172 34ZM 44.7812 22.4609C 45.0208 22.4505 45.2188 22.5234 45.375 22.6797C 45.5365 22.8307 45.6172 23.0312 45.6172 23.2812C 45.612 23.526 45.5312 23.7266 45.375 23.8828C 45.224 24.0391 45.026 24.1224 44.7812 24.1328C 44.5365 24.1432 44.3359 24.0729 44.1797 23.9219C 44.0234 23.7708 43.9479 23.5729 43.9531 23.3281C 43.9583 23.0833 44.0365 22.8802 44.1875 22.7188C 44.3385 22.5573 44.5365 22.4714 44.7812 22.4609ZM 50.625 25.3906C 51.3333 25.401 51.9401 25.5938 52.4453 25.9688C 52.9505 26.3438 53.3229 26.862 53.5625 27.5234C 53.8073 28.1797 53.8906 28.8984 53.8125 29.6797L 53.7969 29.8516C 53.6979 30.6745 53.4531 31.4193 53.0625 32.0859C 52.6719 32.7474 52.1667 33.263 51.5469 33.6328C 50.9271 34.0026 50.2474 34.1771 49.5078 34.1562C 48.8047 34.1458 48.1979 33.9531 47.6875 33.5781C 47.1823 33.2031 46.8125 32.6927 46.5781 32.0469C 46.3438 31.401 46.2604 30.6901 46.3281 29.9141C 46.4062 29.0391 46.6432 28.2526 47.0391 27.5547C 47.4349 26.8568 47.9427 26.3177 48.5625 25.9375C 49.1875 25.5521 49.875 25.3698 50.625 25.3906ZM 47.75 29.9219C 47.7135 30.25 47.7135 30.5911 47.75 30.9453C 47.8021 31.5599 47.9844 32.0495 48.2969 32.4141C 48.6146 32.7786 49.0365 32.9688 49.5625 32.9844C 50.0312 33 50.4635 32.8854 50.8594 32.6406C 51.2552 32.3906 51.5885 32.0156 51.8594 31.5156C 52.1302 31.0156 52.3047 30.4609 52.3828 29.8516C 52.4245 29.3724 52.4323 28.9688 52.4062 28.6406C 52.3438 28.0104 52.1536 27.513 51.8359 27.1484C 51.5182 26.7839 51.0964 26.5911 50.5703 26.5703C 49.8411 26.5547 49.2214 26.8411 48.7109 27.4297C 48.2005 28.0182 47.8854 28.7891 47.7656 29.7422L 47.75 29.9219ZM 57.6719 25.5391L 57.4688 26.6094C 58.2292 25.776 59.0938 25.3698 60.0625 25.3906C 60.8594 25.4115 61.4479 25.6875 61.8281 26.2188C 62.2083 26.75 62.349 27.4974 62.25 28.4609L 61.3281 34L 59.9141 34L 60.8438 28.4375C 60.875 28.1823 60.8776 27.9453 60.8516 27.7266C 60.763 26.9974 60.3333 26.625 59.5625 26.6094C 58.7135 26.5938 57.9688 27.0469 57.3281 27.9688L 56.2812 34L 54.8672 34L 56.3359 25.5469L 57.6719 25.5391Z"/>
<path id="path1_stroke" d="M 0 0L 95.7079 0L 95.7079 -1L 0 -1L 0 0Z"/>
<path id="path2_stroke" d="M 0 0L 99.3177 0L 99.3177 -1L 0 -1L 0 0Z"/>
<path id="path3_stroke" d="M 0 0L 89 0L 89 -1L 0 -1L 0 0Z"/>
<path id="path4_fill" d="M 49 24.5C 49 38.031 38.031 49 24.5 49C 10.969 49 0 38.031 0 24.5C 0 10.969 10.969 0 24.5 0C 38.031 0 49 10.969 49 24.5Z"/>
<path id="path5_stroke_2x" d="M 48 24.5C 48 37.4787 37.4787 48 24.5 48L 24.5 50C 38.5833 50 50 38.5833 50 24.5L 48 24.5ZM 24.5 48C 11.5213 48 1 37.4787 1 24.5L -1 24.5C -1 38.5833 10.4167 50 24.5 50L 24.5 48ZM 1 24.5C 1 11.5213 11.5213 1 24.5 1L 24.5 -1C 10.4167 -1 -1 10.4167 -1 24.5L 1 24.5ZM 24.5 1C 37.4787 1 48 11.5213 48 24.5L 50 24.5C 50 10.4167 38.5833 -1 24.5 -1L 24.5 1Z"/>
<path id="path6_fill" d="M 33 16.5C 33 25.6127 25.6127 33 16.5 33C 7.3873 33 0 25.6127 0 16.5C 0 7.3873 7.3873 0 16.5 0C 25.6127 0 33 7.3873 33 16.5Z"/>
<path id="path7_stroke_2x" d="M 32 16.5C 32 25.0604 25.0604 32 16.5 32L 16.5 34C 26.165 34 34 26.165 34 16.5L 32 16.5ZM 16.5 32C 7.93959 32 1 25.0604 1 16.5L -1 16.5C -1 26.165 6.83502 34 16.5 34L 16.5 32ZM 1 16.5C 1 7.93959 7.93959 1 16.5 1L 16.5 -1C 6.83502 -1 -1 6.83502 -1 16.5L 1 16.5ZM 16.5 1C 25.0604 1 32 7.93959 32 16.5L 34 16.5C 34 6.83502 26.165 -1 16.5 -1L 16.5 1Z"/>
<path id="path8_fill" d="M 7.10156 17C 7.00781 16.8125 6.93164 16.4785 6.87305 15.998C 6.11719 16.7832 5.21484 17.1758 4.16602 17.1758C 3.22852 17.1758 2.45801 16.9121 1.85449 16.3848C 1.25684 15.8516 0.958008 15.1777 0.958008 14.3633C 0.958008 13.373 1.33301 12.6055 2.08301 12.0605C 2.83887 11.5098 3.89941 11.2344 5.26465 11.2344L 6.84668 11.2344L 6.84668 10.4873C 6.84668 9.91895 6.67676 9.46777 6.33691 9.13379C 5.99707 8.79395 5.49609 8.62402 4.83398 8.62402C 4.25391 8.62402 3.76758 8.77051 3.375 9.06348C 2.98242 9.35645 2.78613 9.71094 2.78613 10.127L 1.15137 10.127C 1.15137 9.65234 1.31836 9.19531 1.65234 8.75586C 1.99219 8.31055 2.44922 7.95898 3.02344 7.70117C 3.60352 7.44336 4.23926 7.31445 4.93066 7.31445C 6.02637 7.31445 6.88477 7.58984 7.50586 8.14062C 8.12695 8.68555 8.44922 9.43848 8.47266 10.3994L 8.47266 14.7764C 8.47266 15.6494 8.58398 16.3438 8.80664 16.8594L 8.80664 17L 7.10156 17ZM 4.40332 15.7607C 4.91309 15.7607 5.39648 15.6289 5.85352 15.3652C 6.31055 15.1016 6.6416 14.7588 6.84668 14.3369L 6.84668 12.3857L 5.57227 12.3857C 3.58008 12.3857 2.58398 12.9688 2.58398 14.1348C 2.58398 14.6445 2.75391 15.043 3.09375 15.3301C 3.43359 15.6172 3.87012 15.7607 4.40332 15.7607Z"/>
<path id="path9_fill" d="M 6.40723 17L 4.77246 17L 4.77246 6.16309L 1.49414 7.36719L 1.49414 5.89062L 6.15234 4.1416L 6.40723 4.1416L 6.40723 17Z"/>
<path id="path10_fill" d="M 6.05859 7.36133C 6.05859 8.63086 5.8418 9.57422 5.4082 10.1914C 4.97461 10.8086 4.29687 11.1172 3.375 11.1172C 2.46484 11.1172 1.79102 10.8164 1.35352 10.2148C 0.916016 9.60938 0.689453 8.70703 0.673828 7.50781L 0.673828 6.06055C 0.673828 4.80664 0.890625 3.875 1.32422 3.26562C 1.75781 2.65625 2.4375 2.35156 3.36328 2.35156C 4.28125 2.35156 4.95703 2.64648 5.39062 3.23633C 5.82422 3.82227 6.04688 4.72852 6.05859 5.95508L 6.05859 7.36133ZM 4.97461 5.87891C 4.97461 4.96094 4.8457 4.29297 4.58789 3.875C 4.33008 3.45312 3.92187 3.24219 3.36328 3.24219C 2.80859 3.24219 2.4043 3.45117 2.15039 3.86914C 1.89648 4.28711 1.76563 4.92969 1.75781 5.79688L 1.75781 7.53125C 1.75781 8.45313 1.89062 9.13477 2.15625 9.57617C 2.42578 10.0137 2.83203 10.2324 3.375 10.2324C 3.91016 10.2324 4.30664 10.0254 4.56445 9.61133C 4.82617 9.19727 4.96289 8.54492 4.97461 7.6543L 4.97461 5.87891Z"/>
<path id="path11_fill" d="M 4.27148 11L 3.18164 11L 3.18164 3.77539L 0.996094 4.57812L 0.996094 3.59375L 4.10156 2.42773L 4.27148 2.42773L 4.27148 11Z"/>
<path id="path12_fill" d="M 6.29883 11L 0.708984 11L 0.708984 10.2207L 3.66211 6.93945C 4.09961 6.44336 4.40039 6.04102 4.56445 5.73242C 4.73242 5.41992 4.81641 5.09766 4.81641 4.76562C 4.81641 4.32031 4.68164 3.95508 4.41211 3.66992C 4.14258 3.38477 3.7832 3.24219 3.33398 3.24219C 2.79492 3.24219 2.375 3.39648 2.07422 3.70508C 1.77734 4.00977 1.62891 4.43555 1.62891 4.98242L 0.544922 4.98242C 0.544922 4.19727 0.796875 3.5625 1.30078 3.07812C 1.80859 2.59375 2.48633 2.35156 3.33398 2.35156C 4.12695 2.35156 4.75391 2.56055 5.21484 2.97852C 5.67578 3.39258 5.90625 3.94531 5.90625 4.63672C 5.90625 5.47656 5.37109 6.47656 4.30078 7.63672L 2.01562 10.1152L 6.29883 10.1152L 6.29883 11Z"/>
<path id="path13_fill" d="M 4.4209 10.9619L 6.53027 7.49023L 8.42871 7.49023L 5.31738 12.1924L 8.52539 17L 6.64453 17L 4.44727 13.4404L 2.25 17L 0.360352 17L 3.56836 12.1924L 0.457031 7.49023L 2.33789 7.49023L 4.4209 10.9619Z"/>
<path id="path14_stroke" d="M 44.3536 0.353553C 44.5488 0.158291 44.5488 -0.158291 44.3536 -0.353553L 41.1716 -3.53553C 40.9763 -3.7308 40.6597 -3.7308 40.4645 -3.53553C 40.2692 -3.34027 40.2692 -3.02369 40.4645 -2.82843L 43.2929 0L 40.4645 2.82843C 40.2692 3.02369 40.2692 3.34027 40.4645 3.53553C 40.6597 3.7308 40.9763 3.7308 41.1716 3.53553L 44.3536 0.353553ZM 0 0.5L 44 0.5L 44 -0.5L 0 -0.5L 0 0.5Z"/>
<path id="path15_fill" d="M 4.5791 14.6182L 6.79395 7.49023L 8.53418 7.49023L 4.71094 18.4678C 4.11914 20.0498 3.17871 20.8408 1.88965 20.8408L 1.58203 20.8145L 0.975586 20.7002L 0.975586 19.3818L 1.41504 19.417C 1.96582 19.417 2.39355 19.3057 2.69824 19.083C 3.00879 18.8604 3.26367 18.4531 3.46289 17.8613L 3.82324 16.8945L 0.430664 7.49023L 2.20605 7.49023L 4.5791 14.6182Z"/>
<path id="path16_fill" d="M 3.98242 6.35645L 2.3125 10.5928L 0.800781 10.5928L 3.42871 4.20312L 4.54492 4.20312L 7.16406 10.5928L 5.66113 10.5928L 3.98242 6.35645Z"/>
<path id="path17_fill" d="M 3.40625 17L 1.71875 17L 1.71875 4.20312L 3.40625 4.20312L 3.40625 17ZM 6.18359 11.8057C 6.18359 10.4814 6.35938 9.20996 6.71094 7.99121C 7.06836 6.77246 7.59863 5.66504 8.30176 4.66895C 9.00488 3.67285 9.73438 2.96973 10.4902 2.55957L 10.8242 3.63184C 9.96875 4.28809 9.26562 5.29004 8.71484 6.6377C 8.16992 7.98535 7.87109 9.49414 7.81836 11.1641L 7.80957 11.9111C 7.80957 14.1729 8.22266 16.1357 9.04883 17.7998C 9.54688 18.7959 10.1387 19.5752 10.8242 20.1377L 10.4902 21.1309C 9.71094 20.6973 8.9668 19.9707 8.25781 18.9512C 6.875 16.959 6.18359 14.5771 6.18359 11.8057ZM 20.6152 11.8936C 20.6152 13.2002 20.4424 14.4541 20.0967 15.6553C 19.7568 16.8506 19.2324 17.9551 18.5234 18.9688C 17.8203 19.9824 17.082 20.7031 16.3086 21.1309L 15.9658 20.1377C 16.8682 19.4463 17.5918 18.374 18.1367 16.9209C 18.6875 15.4619 18.9687 13.8447 18.9805 12.0693L 18.9805 11.7881C 18.9805 10.5576 18.8516 9.41504 18.5938 8.36035C 18.3359 7.29981 17.9756 6.35059 17.5127 5.5127C 17.0557 4.6748 16.54 4.02148 15.9658 3.55273L 16.3086 2.55957C 17.082 2.9873 17.8174 3.70215 18.5146 4.7041C 19.2178 5.70605 19.7422 6.81055 20.0879 8.01758C 20.4395 9.22461 20.6152 10.5166 20.6152 11.8936Z"/>
</defs>
</svg>

