<svg width="259" height="126" viewBox="0 0 259 126" version="1.1" xmlns="http://www.w3.org/2000/svg" xmlns:xlink="http://www.w3.org/1999/xlink">
<title>Group 17</title>
<desc>Created using Figma</desc>
<g id="Canvas" transform="translate(-601 -272)">
<g id="Group 17">
<g id="1">
<use xlink:href="#path0_fill" transform="translate(613 279)"/>
</g>
<g id="1">
<use xlink:href="#path0_fill" transform="translate(613 301)"/>
</g>
<g id="1">
<use xlink:href="#path0_fill" transform="translate(613 321)"/>
</g>
<g id="2.3">
<use xlink:href="#path1_fill" transform="translate(638 279)"/>
</g>
<g id="3.1">
<use xlink:href="#path2_fill" transform="translate(638 301)"/>
</g>
<g id="1.1">
<use xlink:href="#path3_fill" transform="translate(638 321)"/>
</g>
<g id="0.2">
<use xlink:href="#path4_fill" transform="translate(675 279)"/>
</g>
<g id="0.9">
<use xlink:href="#path5_fill" transform="translate(675 301)"/>
</g>
<g id="0.5">
<use xlink:href="#path6_fill" transform="translate(675 321)"/>
</g>
<g id="Line 16">
<use xlink:href="#path7_stroke" transform="matrix(6.12323e-17 1 -1 6.12323e-17 601 273)"/>
</g>
<g id="Line 16.1">
<use xlink:href="#path7_stroke" transform="matrix(6.12323e-17 1 -1 6.12323e-17 711 273)"/>
</g>
<g id="Line 17">
<use xlink:href="#path8_stroke" transform="translate(601 273)"/>
</g>
<g id="Line 17.2">
<use xlink:href="#path8_stroke" transform="translate(707 273)"/>
</g>
<g id="Line 17.1">
<use xlink:href="#path8_stroke" transform="translate(601 350)"/>
</g>
<g id="Line 16.8">
<use xlink:href="#path7_stroke" transform="matrix(6.12323e-17 1 -1 6.12323e-17 803 273)"/>
</g>
<g id="Line 17.16">
<use xlink:href="#path8_stroke" transform="translate(803 273)"/>
</g>
<g id="Line 17.17">
<use xlink:href="#path8_stroke" transform="translate(803 350)"/>
</g>
<g id="Line 16.6">
<use xlink:href="#path7_stroke" transform="matrix(6.12323e-17 1 -1 6.12323e-17 725 273)"/>
</g>
<g id="Line 17.12">
<use xlink:href="#path8_stroke" transform="translate(725 273)"/>
</g>
<g id="Line 17.13">
<use xlink:href="#path8_stroke" transform="translate(725 350)"/>
</g>
<g id="Line 17.3">
<use xlink:href="#path8_stroke" transform="translate(707 350)"/>
</g>
<g id="Line 16.9">
<use xlink:href="#path7_stroke" transform="matrix(6.12323e-17 1 -1 6.12323e-17 859 273)"/>
</g>
<g id="Line 17.18">
<use xlink:href="#path8_stroke" transform="translate(855 273)"/>
</g>
<g id="Line 17.19">
<use xlink:href="#path8_stroke" transform="translate(855 350)"/>
</g>
<g id="Line 16.7">
<use xlink:href="#path7_stroke" transform="matrix(6.12323e-17 1 -1 6.12323e-17 766 273)"/>
</g>
<g id="Line 17.14">
<use xlink:href="#path8_stroke" transform="translate(762 273)"/>
</g>
<g id="Line 17.15">
<use xlink:href="#path8_stroke" transform="translate(762 350)"/>
</g>
<g id="2.61">
<use xlink:href="#path9_fill" transform="translate(813 279)"/>
</g>
<g id="3.52">
<use xlink:href="#path10_fill" transform="translate(814 301)"/>
</g>
<g id="1.92">
<use xlink:href="#path11_fill" transform="translate(814 321)"/>
</g>
<g id="X">
<use xlink:href="#path12_fill" transform="translate(651 377)"/>
</g>
<g id="a">
<use xlink:href="#path13_fill" transform="translate(736 377)"/>
</g>
<g id="y">
<use xlink:href="#path14_fill" transform="translate(829 377)"/>
</g>
<g id="0.9 0.7 0.5">
<use xlink:href="#path15_fill" transform="translate(732 279)"/>
</g>
<g id="=">
<use xlink:href="#path16_fill" transform="translate(778 301)"/>
</g>
<g id="^">
<use xlink:href="#path17_fill" transform="translate(829 370)"/>
</g>
<g id="T">
<use xlink:href="#path18_fill" transform="translate(744 370)"/>
</g>
</g>
</g>
<defs>
<path id="path0_fill" d="M 6.85352 17L 5.21875 17L 5.21875 6.16309L 1.94043 7.36719L 1.94043 5.89062L 6.59863 4.1416L 6.85352 4.1416L 6.85352 17Z"/>
<path id="path1_fill" d="M 9.46777 17L 1.08301 17L 1.08301 15.8311L 5.5127 10.9092C 6.16895 10.165 6.62012 9.56152 6.86621 9.09863C 7.11816 8.62988 7.24414 8.14648 7.24414 7.64844C 7.24414 6.98047 7.04199 6.43262 6.6377 6.00488C 6.2334 5.57715 5.69434 5.36328 5.02051 5.36328C 4.21191 5.36328 3.58203 5.59473 3.13086 6.05762C 2.68555 6.51465 2.46289 7.15332 2.46289 7.97363L 0.836914 7.97363C 0.836914 6.7959 1.21484 5.84375 1.9707 5.11719C 2.73242 4.39062 3.74902 4.02734 5.02051 4.02734C 6.20996 4.02734 7.15039 4.34082 7.8418 4.96777C 8.5332 5.58887 8.87891 6.41797 8.87891 7.45508C 8.87891 8.71484 8.07617 10.2148 6.4707 11.9551L 3.04297 15.6729L 9.46777 15.6729L 9.46777 17ZM 11.3926 16.1475C 11.3926 15.8662 11.4746 15.6318 11.6387 15.4443C 11.8086 15.2568 12.0605 15.1631 12.3945 15.1631C 12.7285 15.1631 12.9805 15.2568 13.1504 15.4443C 13.3262 15.6318 13.4141 15.8662 13.4141 16.1475C 13.4141 16.417 13.3262 16.6426 13.1504 16.8242C 12.9805 17.0059 12.7285 17.0967 12.3945 17.0967C 12.0605 17.0967 11.8086 17.0059 11.6387 16.8242C 11.4746 16.6426 11.3926 16.417 11.3926 16.1475ZM 18.3008 9.81055L 19.5225 9.81055C 20.29 9.79883 20.8936 9.59668 21.333 9.2041C 21.7725 8.81152 21.9922 8.28125 21.9922 7.61328C 21.9922 6.11328 21.2451 5.36328 19.751 5.36328C 19.0479 5.36328 18.4854 5.56543 18.0635 5.96973C 17.6475 6.36816 17.4395 6.89844 17.4395 7.56055L 15.8135 7.56055C 15.8135 6.54688 16.1826 5.70605 16.9209 5.03809C 17.665 4.36426 18.6084 4.02734 19.751 4.02734C 20.958 4.02734 21.9043 4.34668 22.5898 4.98535C 23.2754 5.62402 23.6182 6.51172 23.6182 7.64844C 23.6182 8.20508 23.4365 8.74414 23.0732 9.26562C 22.7158 9.78711 22.2266 10.1768 21.6055 10.4346C 22.3086 10.6572 22.8506 11.0264 23.2314 11.542C 23.6182 12.0576 23.8115 12.6875 23.8115 13.4316C 23.8115 14.5801 23.4365 15.4912 22.6865 16.165C 21.9365 16.8389 20.9609 17.1758 19.7598 17.1758C 18.5586 17.1758 17.5801 16.8506 16.8242 16.2002C 16.0742 15.5498 15.6992 14.6914 15.6992 13.625L 17.334 13.625C 17.334 14.2988 17.5537 14.8379 17.9932 15.2422C 18.4326 15.6465 19.0215 15.8486 19.7598 15.8486C 20.5449 15.8486 21.1455 15.6436 21.5615 15.2334C 21.9775 14.8232 22.1855 14.2344 22.1855 13.4668C 22.1855 12.7227 21.957 12.1514 21.5 11.7529C 21.043 11.3545 20.3838 11.1494 19.5225 11.1377L 18.3008 11.1377L 18.3008 9.81055Z"/>
<path id="path2_fill" d="M 3.44727 9.81055L 4.66895 9.81055C 5.43652 9.79883 6.04004 9.59668 6.47949 9.2041C 6.91895 8.81152 7.13867 8.28125 7.13867 7.61328C 7.13867 6.11328 6.3916 5.36328 4.89746 5.36328C 4.19434 5.36328 3.63184 5.56543 3.20996 5.96973C 2.79395 6.36816 2.58594 6.89844 2.58594 7.56055L 0.959961 7.56055C 0.959961 6.54688 1.3291 5.70605 2.06738 5.03809C 2.81152 4.36426 3.75488 4.02734 4.89746 4.02734C 6.10449 4.02734 7.05078 4.34668 7.73633 4.98535C 8.42188 5.62402 8.76465 6.51172 8.76465 7.64844C 8.76465 8.20508 8.58301 8.74414 8.21973 9.26562C 7.8623 9.78711 7.37305 10.1768 6.75195 10.4346C 7.45508 10.6572 7.99707 11.0264 8.37793 11.542C 8.76465 12.0576 8.95801 12.6875 8.95801 13.4316C 8.95801 14.5801 8.58301 15.4912 7.83301 16.165C 7.08301 16.8389 6.10742 17.1758 4.90625 17.1758C 3.70508 17.1758 2.72656 16.8506 1.9707 16.2002C 1.2207 15.5498 0.845703 14.6914 0.845703 13.625L 2.48047 13.625C 2.48047 14.2988 2.7002 14.8379 3.13965 15.2422C 3.5791 15.6465 4.16797 15.8486 4.90625 15.8486C 5.69141 15.8486 6.29199 15.6436 6.70801 15.2334C 7.12402 14.8232 7.33203 14.2344 7.33203 13.4668C 7.33203 12.7227 7.10352 12.1514 6.64648 11.7529C 6.18945 11.3545 5.53027 11.1494 4.66895 11.1377L 3.44727 11.1377L 3.44727 9.81055ZM 11.3926 16.1475C 11.3926 15.8662 11.4746 15.6318 11.6387 15.4443C 11.8086 15.2568 12.0605 15.1631 12.3945 15.1631C 12.7285 15.1631 12.9805 15.2568 13.1504 15.4443C 13.3262 15.6318 13.4141 15.8662 13.4141 16.1475C 13.4141 16.417 13.3262 16.6426 13.1504 16.8242C 12.9805 17.0059 12.7285 17.0967 12.3945 17.0967C 12.0605 17.0967 11.8086 17.0059 11.6387 16.8242C 11.4746 16.6426 11.3926 16.417 11.3926 16.1475ZM 21.2803 17L 19.6455 17L 19.6455 6.16309L 16.3672 7.36719L 16.3672 5.89062L 21.0254 4.1416L 21.2803 4.1416L 21.2803 17Z"/>
<path id="path3_fill" d="M 6.42676 17L 4.79199 17L 4.79199 6.16309L 1.51367 7.36719L 1.51367 5.89062L 6.17188 4.1416L 6.42676 4.1416L 6.42676 17ZM 11.3926 16.1475C 11.3926 15.8662 11.4746 15.6318 11.6387 15.4443C 11.8086 15.2568 12.0605 15.1631 12.3945 15.1631C 12.7285 15.1631 12.9805 15.2568 13.1504 15.4443C 13.3262 15.6318 13.4141 15.8662 13.4141 16.1475C 13.4141 16.417 13.3262 16.6426 13.1504 16.8242C 12.9805 17.0059 12.7285 17.0967 12.3945 17.0967C 12.0605 17.0967 11.8086 17.0059 11.6387 16.8242C 11.4746 16.6426 11.3926 16.417 11.3926 16.1475ZM 21.2803 17L 19.6455 17L 19.6455 6.16309L 16.3672 7.36719L 16.3672 5.89062L 21.0254 4.1416L 21.2803 4.1416L 21.2803 17Z"/>
<path id="path4_fill" d="M 9.10742 11.542C 9.10742 13.4463 8.78223 14.8613 8.13184 15.7871C 7.48145 16.7129 6.46484 17.1758 5.08203 17.1758C 3.7168 17.1758 2.70605 16.7246 2.0498 15.8223C 1.39355 14.9141 1.05371 13.5605 1.03027 11.7617L 1.03027 9.59082C 1.03027 7.70996 1.35547 6.3125 2.00586 5.39844C 2.65625 4.48438 3.67578 4.02734 5.06445 4.02734C 6.44141 4.02734 7.45508 4.46973 8.10547 5.35449C 8.75586 6.2334 9.08984 7.59277 9.10742 9.43262L 9.10742 11.542ZM 7.48145 9.31836C 7.48145 7.94141 7.28809 6.93945 6.90137 6.3125C 6.51465 5.67969 5.90234 5.36328 5.06445 5.36328C 4.23242 5.36328 3.62598 5.67676 3.24512 6.30371C 2.86426 6.93066 2.66797 7.89453 2.65625 9.19531L 2.65625 11.7969C 2.65625 13.1797 2.85547 14.2021 3.25391 14.8643C 3.6582 15.5205 4.26758 15.8486 5.08203 15.8486C 5.88477 15.8486 6.47949 15.5381 6.86621 14.917C 7.25879 14.2959 7.46387 13.3174 7.48145 11.9814L 7.48145 9.31836ZM 11.3926 16.1475C 11.3926 15.8662 11.4746 15.6318 11.6387 15.4443C 11.8086 15.2568 12.0605 15.1631 12.3945 15.1631C 12.7285 15.1631 12.9805 15.2568 13.1504 15.4443C 13.3262 15.6318 13.4141 15.8662 13.4141 16.1475C 13.4141 16.417 13.3262 16.6426 13.1504 16.8242C 12.9805 17.0059 12.7285 17.0967 12.3945 17.0967C 12.0605 17.0967 11.8086 17.0059 11.6387 16.8242C 11.4746 16.6426 11.3926 16.417 11.3926 16.1475ZM 24.3213 17L 15.9365 17L 15.9365 15.8311L 20.3662 10.9092C 21.0225 10.165 21.4736 9.56152 21.7197 9.09863C 21.9717 8.62988 22.0977 8.14648 22.0977 7.64844C 22.0977 6.98047 21.8955 6.43262 21.4912 6.00488C 21.0869 5.57715 20.5479 5.36328 19.874 5.36328C 19.0654 5.36328 18.4355 5.59473 17.9844 6.05762C 17.5391 6.51465 17.3164 7.15332 17.3164 7.97363L 15.6904 7.97363C 15.6904 6.7959 16.0684 5.84375 16.8242 5.11719C 17.5859 4.39062 18.6025 4.02734 19.874 4.02734C 21.0635 4.02734 22.0039 4.34082 22.6953 4.96777C 23.3867 5.58887 23.7324 6.41797 23.7324 7.45508C 23.7324 8.71484 22.9297 10.2148 21.3242 11.9551L 17.8965 15.6729L 24.3213 15.6729L 24.3213 17Z"/>
<path id="path5_fill" d="M 9.10742 11.542C 9.10742 13.4463 8.78223 14.8613 8.13184 15.7871C 7.48145 16.7129 6.46484 17.1758 5.08203 17.1758C 3.7168 17.1758 2.70605 16.7246 2.0498 15.8223C 1.39355 14.9141 1.05371 13.5605 1.03027 11.7617L 1.03027 9.59082C 1.03027 7.70996 1.35547 6.3125 2.00586 5.39844C 2.65625 4.48438 3.67578 4.02734 5.06445 4.02734C 6.44141 4.02734 7.45508 4.46973 8.10547 5.35449C 8.75586 6.2334 9.08984 7.59277 9.10742 9.43262L 9.10742 11.542ZM 7.48145 9.31836C 7.48145 7.94141 7.28809 6.93945 6.90137 6.3125C 6.51465 5.67969 5.90234 5.36328 5.06445 5.36328C 4.23242 5.36328 3.62598 5.67676 3.24512 6.30371C 2.86426 6.93066 2.66797 7.89453 2.65625 9.19531L 2.65625 11.7969C 2.65625 13.1797 2.85547 14.2021 3.25391 14.8643C 3.6582 15.5205 4.26758 15.8486 5.08203 15.8486C 5.88477 15.8486 6.47949 15.5381 6.86621 14.917C 7.25879 14.2959 7.46387 13.3174 7.48145 11.9814L 7.48145 9.31836ZM 11.3926 16.1475C 11.3926 15.8662 11.4746 15.6318 11.6387 15.4443C 11.8086 15.2568 12.0605 15.1631 12.3945 15.1631C 12.7285 15.1631 12.9805 15.2568 13.1504 15.4443C 13.3262 15.6318 13.4141 15.8662 13.4141 16.1475C 13.4141 16.417 13.3262 16.6426 13.1504 16.8242C 12.9805 17.0059 12.7285 17.0967 12.3945 17.0967C 12.0605 17.0967 11.8086 17.0059 11.6387 16.8242C 11.4746 16.6426 11.3926 16.417 11.3926 16.1475ZM 22.168 11.375C 21.8281 11.7793 21.4209 12.1045 20.9463 12.3506C 20.4775 12.5967 19.9619 12.7197 19.3994 12.7197C 18.6611 12.7197 18.0166 12.5381 17.4658 12.1748C 16.9209 11.8115 16.499 11.3018 16.2002 10.6455C 15.9014 9.9834 15.752 9.25391 15.752 8.45703C 15.752 7.60156 15.9131 6.83105 16.2354 6.14551C 16.5635 5.45996 17.0264 4.93555 17.624 4.57227C 18.2217 4.20898 18.9189 4.02734 19.7158 4.02734C 20.9814 4.02734 21.9775 4.50195 22.7041 5.45117C 23.4365 6.39453 23.8027 7.68359 23.8027 9.31836L 23.8027 9.79297C 23.8027 12.2832 23.3105 14.1025 22.3262 15.251C 21.3418 16.3936 19.8564 16.9795 17.8701 17.0088L 17.5537 17.0088L 17.5537 15.6377L 17.8965 15.6377C 19.2383 15.6143 20.2695 15.2656 20.9902 14.5918C 21.7109 13.9121 22.1035 12.8398 22.168 11.375ZM 19.6631 11.375C 20.208 11.375 20.709 11.208 21.166 10.874C 21.6289 10.54 21.9658 10.127 22.1768 9.63477L 22.1768 8.98438C 22.1768 7.91797 21.9453 7.05078 21.4824 6.38281C 21.0195 5.71484 20.4336 5.38086 19.7246 5.38086C 19.0098 5.38086 18.4355 5.65625 18.002 6.20703C 17.5684 6.75195 17.3516 7.47266 17.3516 8.36914C 17.3516 9.24219 17.5596 9.96289 17.9756 10.5312C 18.3975 11.0938 18.96 11.375 19.6631 11.375Z"/>
<path id="path6_fill" d="M 9.10742 11.542C 9.10742 13.4463 8.78223 14.8613 8.13184 15.7871C 7.48145 16.7129 6.46484 17.1758 5.08203 17.1758C 3.7168 17.1758 2.70605 16.7246 2.0498 15.8223C 1.39355 14.9141 1.05371 13.5605 1.03027 11.7617L 1.03027 9.59082C 1.03027 7.70996 1.35547 6.3125 2.00586 5.39844C 2.65625 4.48438 3.67578 4.02734 5.06445 4.02734C 6.44141 4.02734 7.45508 4.46973 8.10547 5.35449C 8.75586 6.2334 9.08984 7.59277 9.10742 9.43262L 9.10742 11.542ZM 7.48145 9.31836C 7.48145 7.94141 7.28809 6.93945 6.90137 6.3125C 6.51465 5.67969 5.90234 5.36328 5.06445 5.36328C 4.23242 5.36328 3.62598 5.67676 3.24512 6.30371C 2.86426 6.93066 2.66797 7.89453 2.65625 9.19531L 2.65625 11.7969C 2.65625 13.1797 2.85547 14.2021 3.25391 14.8643C 3.6582 15.5205 4.26758 15.8486 5.08203 15.8486C 5.88477 15.8486 6.47949 15.5381 6.86621 14.917C 7.25879 14.2959 7.46387 13.3174 7.48145 11.9814L 7.48145 9.31836ZM 11.3926 16.1475C 11.3926 15.8662 11.4746 15.6318 11.6387 15.4443C 11.8086 15.2568 12.0605 15.1631 12.3945 15.1631C 12.7285 15.1631 12.9805 15.2568 13.1504 15.4443C 13.3262 15.6318 13.4141 15.8662 13.4141 16.1475C 13.4141 16.417 13.3262 16.6426 13.1504 16.8242C 12.9805 17.0059 12.7285 17.0967 12.3945 17.0967C 12.0605 17.0967 11.8086 17.0059 11.6387 16.8242C 11.4746 16.6426 11.3926 16.417 11.3926 16.1475ZM 16.6836 10.584L 17.334 4.20312L 23.8906 4.20312L 23.8906 5.70605L 18.7139 5.70605L 18.3271 9.19531C 18.9541 8.82617 19.666 8.6416 20.4629 8.6416C 21.6289 8.6416 22.5547 9.02832 23.2402 9.80176C 23.9258 10.5693 24.2686 11.6094 24.2686 12.9219C 24.2686 14.2402 23.9111 15.2803 23.1963 16.042C 22.4873 16.7979 21.4941 17.1758 20.2168 17.1758C 19.0859 17.1758 18.1631 16.8623 17.4482 16.2354C 16.7334 15.6084 16.3262 14.7412 16.2266 13.6338L 17.7646 13.6338C 17.8643 14.3662 18.125 14.9199 18.5469 15.2949C 18.9688 15.6641 19.5254 15.8486 20.2168 15.8486C 20.9727 15.8486 21.5645 15.5908 21.9922 15.0752C 22.4258 14.5596 22.6426 13.8477 22.6426 12.9395C 22.6426 12.084 22.4082 11.3984 21.9395 10.8828C 21.4766 10.3613 20.8584 10.1006 20.085 10.1006C 19.376 10.1006 18.8193 10.2559 18.415 10.5664L 17.9844 10.918L 16.6836 10.584Z"/>
<path id="path7_stroke" d="M 0 0L 77 0L 77 -1L 0 -1L 0 0Z"/>
<path id="path8_stroke" d="M 0 0L 5 0L 5 -1L 0 -1L 0 0Z"/>
<path id="path9_fill" d="M 9.91406 17L 1.5293 17L 1.5293 15.8311L 5.95898 10.9092C 6.61523 10.165 7.06641 9.56152 7.3125 9.09863C 7.56445 8.62988 7.69043 8.14648 7.69043 7.64844C 7.69043 6.98047 7.48828 6.43262 7.08398 6.00488C 6.67969 5.57715 6.14062 5.36328 5.4668 5.36328C 4.6582 5.36328 4.02832 5.59473 3.57715 6.05762C 3.13184 6.51465 2.90918 7.15332 2.90918 7.97363L 1.2832 7.97363C 1.2832 6.7959 1.66113 5.84375 2.41699 5.11719C 3.17871 4.39062 4.19531 4.02734 5.4668 4.02734C 6.65625 4.02734 7.59668 4.34082 8.28809 4.96777C 8.97949 5.58887 9.3252 6.41797 9.3252 7.45508C 9.3252 8.71484 8.52246 10.2148 6.91699 11.9551L 3.48926 15.6729L 9.91406 15.6729L 9.91406 17ZM 11.8389 16.1475C 11.8389 15.8662 11.9209 15.6318 12.085 15.4443C 12.2549 15.2568 12.5068 15.1631 12.8408 15.1631C 13.1748 15.1631 13.4268 15.2568 13.5967 15.4443C 13.7725 15.6318 13.8604 15.8662 13.8604 16.1475C 13.8604 16.417 13.7725 16.6426 13.5967 16.8242C 13.4268 17.0059 13.1748 17.0967 12.8408 17.0967C 12.5068 17.0967 12.2549 17.0059 12.085 16.8242C 11.9209 16.6426 11.8389 16.417 11.8389 16.1475ZM 22.7637 4.19434L 22.7637 5.57422L 22.4648 5.57422C 21.1992 5.59766 20.1914 5.97266 19.4414 6.69922C 18.6914 7.42578 18.2578 8.44824 18.1406 9.7666C 18.8145 8.99316 19.7344 8.60645 20.9004 8.60645C 22.0137 8.60645 22.9014 8.99902 23.5635 9.78418C 24.2314 10.5693 24.5654 11.583 24.5654 12.8252C 24.5654 14.1436 24.2051 15.1982 23.4844 15.9893C 22.7695 16.7803 21.8086 17.1758 20.6016 17.1758C 19.377 17.1758 18.3838 16.707 17.6221 15.7695C 16.8604 14.8262 16.4795 13.6133 16.4795 12.1309L 16.4795 11.5068C 16.4795 9.15137 16.9805 7.35254 17.9824 6.11035C 18.9902 4.8623 20.4873 4.22363 22.4736 4.19434L 22.7637 4.19434ZM 20.6279 9.95996C 20.0713 9.95996 19.5586 10.127 19.0898 10.4609C 18.6211 10.7949 18.2959 11.2139 18.1143 11.7178L 18.1143 12.3154C 18.1143 13.3701 18.3516 14.2197 18.8262 14.8643C 19.3008 15.5088 19.8926 15.8311 20.6016 15.8311C 21.334 15.8311 21.9082 15.5615 22.3242 15.0225C 22.7461 14.4834 22.957 13.7773 22.957 12.9043C 22.957 12.0254 22.7432 11.3164 22.3154 10.7773C 21.8936 10.2324 21.3311 9.95996 20.6279 9.95996ZM 31.834 17L 30.1992 17L 30.1992 6.16309L 26.9209 7.36719L 26.9209 5.89062L 31.5791 4.1416L 31.834 4.1416L 31.834 17Z"/>
<path id="path10_fill" d="M 3.89355 9.81055L 5.11523 9.81055C 5.88281 9.79883 6.48633 9.59668 6.92578 9.2041C 7.36523 8.81152 7.58496 8.28125 7.58496 7.61328C 7.58496 6.11328 6.83789 5.36328 5.34375 5.36328C 4.64062 5.36328 4.07812 5.56543 3.65625 5.96973C 3.24023 6.36816 3.03223 6.89844 3.03223 7.56055L 1.40625 7.56055C 1.40625 6.54688 1.77539 5.70605 2.51367 5.03809C 3.25781 4.36426 4.20117 4.02734 5.34375 4.02734C 6.55078 4.02734 7.49707 4.34668 8.18262 4.98535C 8.86816 5.62402 9.21094 6.51172 9.21094 7.64844C 9.21094 8.20508 9.0293 8.74414 8.66602 9.26562C 8.30859 9.78711 7.81934 10.1768 7.19824 10.4346C 7.90137 10.6572 8.44336 11.0264 8.82422 11.542C 9.21094 12.0576 9.4043 12.6875 9.4043 13.4316C 9.4043 14.5801 9.0293 15.4912 8.2793 16.165C 7.5293 16.8389 6.55371 17.1758 5.35254 17.1758C 4.15137 17.1758 3.17285 16.8506 2.41699 16.2002C 1.66699 15.5498 1.29199 14.6914 1.29199 13.625L 2.92676 13.625C 2.92676 14.2988 3.14648 14.8379 3.58594 15.2422C 4.02539 15.6465 4.61426 15.8486 5.35254 15.8486C 6.1377 15.8486 6.73828 15.6436 7.1543 15.2334C 7.57031 14.8232 7.77832 14.2344 7.77832 13.4668C 7.77832 12.7227 7.5498 12.1514 7.09277 11.7529C 6.63574 11.3545 5.97656 11.1494 5.11523 11.1377L 3.89355 11.1377L 3.89355 9.81055ZM 11.8389 16.1475C 11.8389 15.8662 11.9209 15.6318 12.085 15.4443C 12.2549 15.2568 12.5068 15.1631 12.8408 15.1631C 13.1748 15.1631 13.4268 15.2568 13.5967 15.4443C 13.7725 15.6318 13.8604 15.8662 13.8604 16.1475C 13.8604 16.417 13.7725 16.6426 13.5967 16.8242C 13.4268 17.0059 13.1748 17.0967 12.8408 17.0967C 12.5068 17.0967 12.2549 17.0059 12.085 16.8242C 11.9209 16.6426 11.8389 16.417 11.8389 16.1475ZM 17.1299 10.584L 17.7803 4.20312L 24.3369 4.20312L 24.3369 5.70605L 19.1602 5.70605L 18.7734 9.19531C 19.4004 8.82617 20.1123 8.6416 20.9092 8.6416C 22.0752 8.6416 23.001 9.02832 23.6865 9.80176C 24.3721 10.5693 24.7148 11.6094 24.7148 12.9219C 24.7148 14.2402 24.3574 15.2803 23.6426 16.042C 22.9336 16.7979 21.9404 17.1758 20.6631 17.1758C 19.5322 17.1758 18.6094 16.8623 17.8945 16.2354C 17.1797 15.6084 16.7725 14.7412 16.6729 13.6338L 18.2109 13.6338C 18.3105 14.3662 18.5713 14.9199 18.9932 15.2949C 19.415 15.6641 19.9717 15.8486 20.6631 15.8486C 21.4189 15.8486 22.0107 15.5908 22.4385 15.0752C 22.8721 14.5596 23.0889 13.8477 23.0889 12.9395C 23.0889 12.084 22.8545 11.3984 22.3857 10.8828C 21.9229 10.3613 21.3047 10.1006 20.5312 10.1006C 19.8223 10.1006 19.2656 10.2559 18.8613 10.5664L 18.4307 10.918L 17.1299 10.584ZM 34.875 17L 26.4902 17L 26.4902 15.8311L 30.9199 10.9092C 31.5762 10.165 32.0273 9.56152 32.2734 9.09863C 32.5254 8.62988 32.6514 8.14648 32.6514 7.64844C 32.6514 6.98047 32.4492 6.43262 32.0449 6.00488C 31.6406 5.57715 31.1016 5.36328 30.4277 5.36328C 29.6191 5.36328 28.9893 5.59473 28.5381 6.05762C 28.0928 6.51465 27.8701 7.15332 27.8701 7.97363L 26.2441 7.97363C 26.2441 6.7959 26.6221 5.84375 27.3779 5.11719C 28.1396 4.39062 29.1562 4.02734 30.4277 4.02734C 31.6172 4.02734 32.5576 4.34082 33.249 4.96777C 33.9404 5.58887 34.2861 6.41797 34.2861 7.45508C 34.2861 8.71484 33.4834 10.2148 31.8779 11.9551L 28.4502 15.6729L 34.875 15.6729L 34.875 17Z"/>
<path id="path11_fill" d="M 6.87305 17L 5.23828 17L 5.23828 6.16309L 1.95996 7.36719L 1.95996 5.89062L 6.61816 4.1416L 6.87305 4.1416L 6.87305 17ZM 11.8389 16.1475C 11.8389 15.8662 11.9209 15.6318 12.085 15.4443C 12.2549 15.2568 12.5068 15.1631 12.8408 15.1631C 13.1748 15.1631 13.4268 15.2568 13.5967 15.4443C 13.7725 15.6318 13.8604 15.8662 13.8604 16.1475C 13.8604 16.417 13.7725 16.6426 13.5967 16.8242C 13.4268 17.0059 13.1748 17.0967 12.8408 17.0967C 12.5068 17.0967 12.2549 17.0059 12.085 16.8242C 11.9209 16.6426 11.8389 16.417 11.8389 16.1475ZM 22.6143 11.375C 22.2744 11.7793 21.8672 12.1045 21.3926 12.3506C 20.9238 12.5967 20.4082 12.7197 19.8457 12.7197C 19.1074 12.7197 18.4629 12.5381 17.9121 12.1748C 17.3672 11.8115 16.9453 11.3018 16.6465 10.6455C 16.3477 9.9834 16.1982 9.25391 16.1982 8.45703C 16.1982 7.60156 16.3594 6.83105 16.6816 6.14551C 17.0098 5.45996 17.4727 4.93555 18.0703 4.57227C 18.668 4.20898 19.3652 4.02734 20.1621 4.02734C 21.4277 4.02734 22.4238 4.50195 23.1504 5.45117C 23.8828 6.39453 24.249 7.68359 24.249 9.31836L 24.249 9.79297C 24.249 12.2832 23.7568 14.1025 22.7725 15.251C 21.7881 16.3936 20.3027 16.9795 18.3164 17.0088L 18 17.0088L 18 15.6377L 18.3428 15.6377C 19.6846 15.6143 20.7158 15.2656 21.4365 14.5918C 22.1572 13.9121 22.5498 12.8398 22.6143 11.375ZM 20.1094 11.375C 20.6543 11.375 21.1553 11.208 21.6123 10.874C 22.0752 10.54 22.4121 10.127 22.623 9.63477L 22.623 8.98438C 22.623 7.91797 22.3916 7.05078 21.9287 6.38281C 21.4658 5.71484 20.8799 5.38086 20.1709 5.38086C 19.4561 5.38086 18.8818 5.65625 18.4482 6.20703C 18.0146 6.75195 17.7979 7.47266 17.7979 8.36914C 17.7979 9.24219 18.0059 9.96289 18.4219 10.5312C 18.8438 11.0938 19.4062 11.375 20.1094 11.375ZM 34.875 17L 26.4902 17L 26.4902 15.8311L 30.9199 10.9092C 31.5762 10.165 32.0273 9.56152 32.2734 9.09863C 32.5254 8.62988 32.6514 8.14648 32.6514 7.64844C 32.6514 6.98047 32.4492 6.43262 32.0449 6.00488C 31.6406 5.57715 31.1016 5.36328 30.4277 5.36328C 29.6191 5.36328 28.9893 5.59473 28.5381 6.05762C 28.0928 6.51465 27.8701 7.15332 27.8701 7.97363L 26.2441 7.97363C 26.2441 6.7959 26.6221 5.84375 27.3779 5.11719C 28.1396 4.39062 29.1562 4.02734 30.4277 4.02734C 31.6172 4.02734 32.5576 4.34082 33.249 4.96777C 33.9404 5.58887 34.2861 6.41797 34.2861 7.45508C 34.2861 8.71484 33.4834 10.2148 31.8779 11.9551L 28.4502 15.6729L 34.875 15.6729L 34.875 17Z"/>
<path id="path12_fill" d="M 6.01758 9.10742L 9.08496 4.20312L 11.0713 4.20312L 7.02832 10.5488L 11.168 17L 9.16406 17L 6.01758 12.0078L 2.85352 17L 0.858398 17L 5.00684 10.5488L 0.955078 4.20312L 2.93262 4.20312L 6.01758 9.10742Z"/>
<path id="path13_fill" d="M 7.20605 17C 7.1123 16.8125 7.03613 16.4785 6.97754 15.998C 6.22168 16.7832 5.31934 17.1758 4.27051 17.1758C 3.33301 17.1758 2.5625 16.9121 1.95898 16.3848C 1.36133 15.8516 1.0625 15.1777 1.0625 14.3633C 1.0625 13.373 1.4375 12.6055 2.1875 12.0605C 2.94336 11.5098 4.00391 11.2344 5.36914 11.2344L 6.95117 11.2344L 6.95117 10.4873C 6.95117 9.91895 6.78125 9.46777 6.44141 9.13379C 6.10156 8.79395 5.60059 8.62402 4.93848 8.62402C 4.3584 8.62402 3.87207 8.77051 3.47949 9.06348C 3.08691 9.35645 2.89062 9.71094 2.89062 10.127L 1.25586 10.127C 1.25586 9.65234 1.42285 9.19531 1.75684 8.75586C 2.09668 8.31055 2.55371 7.95898 3.12793 7.70117C 3.70801 7.44336 4.34375 7.31445 5.03516 7.31445C 6.13086 7.31445 6.98926 7.58984 7.61035 8.14062C 8.23145 8.68555 8.55371 9.43848 8.57715 10.3994L 8.57715 14.7764C 8.57715 15.6494 8.68848 16.3438 8.91113 16.8594L 8.91113 17L 7.20605 17ZM 4.50781 15.7607C 5.01758 15.7607 5.50098 15.6289 5.95801 15.3652C 6.41504 15.1016 6.74609 14.7588 6.95117 14.3369L 6.95117 12.3857L 5.67676 12.3857C 3.68457 12.3857 2.68848 12.9688 2.68848 14.1348C 2.68848 14.6445 2.8584 15.043 3.19824 15.3301C 3.53809 15.6172 3.97461 15.7607 4.50781 15.7607Z"/>
<path id="path14_fill" d="M 4.5791 14.6182L 6.79395 7.49023L 8.53418 7.49023L 4.71094 18.4678C 4.11914 20.0498 3.17871 20.8408 1.88965 20.8408L 1.58203 20.8145L 0.975586 20.7002L 0.975586 19.3818L 1.41504 19.417C 1.96582 19.417 2.39355 19.3057 2.69824 19.083C 3.00879 18.8604 3.26367 18.4531 3.46289 17.8613L 3.82324 16.8945L 0.430664 7.49023L 2.20605 7.49023L 4.5791 14.6182Z"/>
<path id="path15_fill" d="M 9.10742 11.542C 9.10742 13.4463 8.78223 14.8613 8.13184 15.7871C 7.48145 16.7129 6.46484 17.1758 5.08203 17.1758C 3.7168 17.1758 2.70605 16.7246 2.0498 15.8223C 1.39355 14.9141 1.05371 13.5605 1.03027 11.7617L 1.03027 9.59082C 1.03027 7.70996 1.35547 6.3125 2.00586 5.39844C 2.65625 4.48438 3.67578 4.02734 5.06445 4.02734C 6.44141 4.02734 7.45508 4.46973 8.10547 5.35449C 8.75586 6.2334 9.08984 7.59277 9.10742 9.43262L 9.10742 11.542ZM 7.48145 9.31836C 7.48145 7.94141 7.28809 6.93945 6.90137 6.3125C 6.51465 5.67969 5.90234 5.36328 5.06445 5.36328C 4.23242 5.36328 3.62598 5.67676 3.24512 6.30371C 2.86426 6.93066 2.66797 7.89453 2.65625 9.19531L 2.65625 11.7969C 2.65625 13.1797 2.85547 14.2021 3.25391 14.8643C 3.6582 15.5205 4.26758 15.8486 5.08203 15.8486C 5.88477 15.8486 6.47949 15.5381 6.86621 14.917C 7.25879 14.2959 7.46387 13.3174 7.48145 11.9814L 7.48145 9.31836ZM 11.3926 16.1475C 11.3926 15.8662 11.4746 15.6318 11.6387 15.4443C 11.8086 15.2568 12.0605 15.1631 12.3945 15.1631C 12.7285 15.1631 12.9805 15.2568 13.1504 15.4443C 13.3262 15.6318 13.4141 15.8662 13.4141 16.1475C 13.4141 16.417 13.3262 16.6426 13.1504 16.8242C 12.9805 17.0059 12.7285 17.0967 12.3945 17.0967C 12.0605 17.0967 11.8086 17.0059 11.6387 16.8242C 11.4746 16.6426 11.3926 16.417 11.3926 16.1475ZM 22.168 11.375C 21.8281 11.7793 21.4209 12.1045 20.9463 12.3506C 20.4775 12.5967 19.9619 12.7197 19.3994 12.7197C 18.6611 12.7197 18.0166 12.5381 17.4658 12.1748C 16.9209 11.8115 16.499 11.3018 16.2002 10.6455C 15.9014 9.9834 15.752 9.25391 15.752 8.45703C 15.752 7.60156 15.9131 6.83105 16.2354 6.14551C 16.5635 5.45996 17.0264 4.93555 17.624 4.57227C 18.2217 4.20898 18.9189 4.02734 19.7158 4.02734C 20.9814 4.02734 21.9775 4.50195 22.7041 5.45117C 23.4365 6.39453 23.8027 7.68359 23.8027 9.31836L 23.8027 9.79297C 23.8027 12.2832 23.3105 14.1025 22.3262 15.251C 21.3418 16.3936 19.8564 16.9795 17.8701 17.0088L 17.5537 17.0088L 17.5537 15.6377L 17.8965 15.6377C 19.2383 15.6143 20.2695 15.2656 20.9902 14.5918C 21.7109 13.9121 22.1035 12.8398 22.168 11.375ZM 19.6631 11.375C 20.208 11.375 20.709 11.208 21.166 10.874C 21.6289 10.54 21.9658 10.127 22.1768 9.63477L 22.1768 8.98438C 22.1768 7.91797 21.9453 7.05078 21.4824 6.38281C 21.0195 5.71484 20.4336 5.38086 19.7246 5.38086C 19.0098 5.38086 18.4355 5.65625 18.002 6.20703C 17.5684 6.75195 17.3516 7.47266 17.3516 8.36914C 17.3516 9.24219 17.5596 9.96289 17.9756 10.5312C 18.3975 11.0938 18.96 11.375 19.6631 11.375ZM 9.10742 32.542C 9.10742 34.4463 8.78223 35.8613 8.13184 36.7871C 7.48145 37.7129 6.46484 38.1758 5.08203 38.1758C 3.7168 38.1758 2.70605 37.7246 2.0498 36.8223C 1.39355 35.9141 1.05371 34.5605 1.03027 32.7617L 1.03027 30.5908C 1.03027 28.71 1.35547 27.3125 2.00586 26.3984C 2.65625 25.4844 3.67578 25.0273 5.06445 25.0273C 6.44141 25.0273 7.45508 25.4697 8.10547 26.3545C 8.75586 27.2334 9.08984 28.5928 9.10742 30.4326L 9.10742 32.542ZM 7.48145 30.3184C 7.48145 28.9414 7.28809 27.9395 6.90137 27.3125C 6.51465 26.6797 5.90234 26.3633 5.06445 26.3633C 4.23242 26.3633 3.62598 26.6768 3.24512 27.3037C 2.86426 27.9307 2.66797 28.8945 2.65625 30.1953L 2.65625 32.7969C 2.65625 34.1797 2.85547 35.2021 3.25391 35.8643C 3.6582 36.5205 4.26758 36.8486 5.08203 36.8486C 5.88477 36.8486 6.47949 36.5381 6.86621 35.917C 7.25879 35.2959 7.46387 34.3174 7.48145 32.9814L 7.48145 30.3184ZM 11.3926 37.1475C 11.3926 36.8662 11.4746 36.6318 11.6387 36.4443C 11.8086 36.2568 12.0605 36.1631 12.3945 36.1631C 12.7285 36.1631 12.9805 36.2568 13.1504 36.4443C 13.3262 36.6318 13.4141 36.8662 13.4141 37.1475C 13.4141 37.417 13.3262 37.6426 13.1504 37.8242C 12.9805 38.0059 12.7285 38.0967 12.3945 38.0967C 12.0605 38.0967 11.8086 38.0059 11.6387 37.8242C 11.4746 37.6426 11.3926 37.417 11.3926 37.1475ZM 24.1982 26.1172L 18.8984 38L 17.1934 38L 22.4756 26.5391L 15.5498 26.5391L 15.5498 25.2031L 24.1982 25.2031L 24.1982 26.1172ZM 9.10742 53.542C 9.10742 55.4463 8.78223 56.8613 8.13184 57.7871C 7.48145 58.7129 6.46484 59.1758 5.08203 59.1758C 3.7168 59.1758 2.70605 58.7246 2.0498 57.8223C 1.39355 56.9141 1.05371 55.5605 1.03027 53.7617L 1.03027 51.5908C 1.03027 49.71 1.35547 48.3125 2.00586 47.3984C 2.65625 46.4844 3.67578 46.0273 5.06445 46.0273C 6.44141 46.0273 7.45508 46.4697 8.10547 47.3545C 8.75586 48.2334 9.08984 49.5928 9.10742 51.4326L 9.10742 53.542ZM 7.48145 51.3184C 7.48145 49.9414 7.28809 48.9395 6.90137 48.3125C 6.51465 47.6797 5.90234 47.3633 5.06445 47.3633C 4.23242 47.3633 3.62598 47.6768 3.24512 48.3037C 2.86426 48.9307 2.66797 49.8945 2.65625 51.1953L 2.65625 53.7969C 2.65625 55.1797 2.85547 56.2021 3.25391 56.8643C 3.6582 57.5205 4.26758 57.8486 5.08203 57.8486C 5.88477 57.8486 6.47949 57.5381 6.86621 56.917C 7.25879 56.2959 7.46387 55.3174 7.48145 53.9814L 7.48145 51.3184ZM 11.3926 58.1475C 11.3926 57.8662 11.4746 57.6318 11.6387 57.4443C 11.8086 57.2568 12.0605 57.1631 12.3945 57.1631C 12.7285 57.1631 12.9805 57.2568 13.1504 57.4443C 13.3262 57.6318 13.4141 57.8662 13.4141 58.1475C 13.4141 58.417 13.3262 58.6426 13.1504 58.8242C 12.9805 59.0059 12.7285 59.0967 12.3945 59.0967C 12.0605 59.0967 11.8086 59.0059 11.6387 58.8242C 11.4746 58.6426 11.3926 58.417 11.3926 58.1475ZM 16.6836 52.584L 17.334 46.2031L 23.8906 46.2031L 23.8906 47.7061L 18.7139 47.7061L 18.3271 51.1953C 18.9541 50.8262 19.666 50.6416 20.4629 50.6416C 21.6289 50.6416 22.5547 51.0283 23.2402 51.8018C 23.9258 52.5693 24.2686 53.6094 24.2686 54.9219C 24.2686 56.2402 23.9111 57.2803 23.1963 58.042C 22.4873 58.7979 21.4941 59.1758 20.2168 59.1758C 19.0859 59.1758 18.1631 58.8623 17.4482 58.2354C 16.7334 57.6084 16.3262 56.7412 16.2266 55.6338L 17.7646 55.6338C 17.8643 56.3662 18.125 56.9199 18.5469 57.2949C 18.9688 57.6641 19.5254 57.8486 20.2168 57.8486C 20.9727 57.8486 21.5645 57.5908 21.9922 57.0752C 22.4258 56.5596 22.6426 55.8477 22.6426 54.9395C 22.6426 54.084 22.4082 53.3984 21.9395 52.8828C 21.4766 52.3613 20.8584 52.1006 20.085 52.1006C 19.376 52.1006 18.8193 52.2559 18.415 52.5664L 17.9844 52.918L 16.6836 52.584Z"/>
<path id="path16_fill" d="M 8.72656 9.8457L 1.39648 9.8457L 1.39648 8.43066L 8.72656 8.43066L 8.72656 9.8457ZM 8.72656 13.4932L 1.39648 13.4932L 1.39648 12.0869L 8.72656 12.0869L 8.72656 13.4932Z"/>
<path id="path17_fill" d="M 3.98242 6.35645L 2.3125 10.5928L 0.800781 10.5928L 3.42871 4.20312L 4.54492 4.20312L 7.16406 10.5928L 5.66113 10.5928L 3.98242 6.35645Z"/>
<path id="path18_fill" d="M 8.35547 4.12695L 5.15625 4.12695L 5.15625 13L 3.85059 13L 3.85059 4.12695L 0.658203 4.12695L 0.658203 3.04688L 8.35547 3.04688L 8.35547 4.12695Z"/>
</defs>
</svg>

