<svg width="671" height="207" viewBox="0 0 671 207" version="1.1" xmlns="http://www.w3.org/2000/svg" xmlns:xlink="http://www.w3.org/1999/xlink">
<title>Group 17</title>
<desc>Created using Figma</desc>
<g id="Canvas" transform="translate(-588 -147)">
<g id="Group 17">
<g id="1">
<use xlink:href="#path0_fill" transform="translate(625 214)"/>
</g>
<g id="1">
<use xlink:href="#path0_fill" transform="translate(625 236)"/>
</g>
<g id="1">
<use xlink:href="#path0_fill" transform="translate(625 256)"/>
</g>
<g id="2.3">
<use xlink:href="#path1_fill" transform="translate(650 214)"/>
</g>
<g id="3.1">
<use xlink:href="#path2_fill" transform="translate(650 236)"/>
</g>
<g id="1.1">
<use xlink:href="#path3_fill" transform="translate(650 256)"/>
</g>
<g id="0.2">
<use xlink:href="#path4_fill" transform="translate(687 214)"/>
</g>
<g id="0.9">
<use xlink:href="#path5_fill" transform="translate(687 236)"/>
</g>
<g id="0.5">
<use xlink:href="#path6_fill" transform="translate(687 256)"/>
</g>
<g id="Line 16">
<use xlink:href="#path7_stroke" transform="matrix(6.12323e-17 1 -1 6.12323e-17 613 208)"/>
</g>
<g id="Line 16.1">
<use xlink:href="#path7_stroke" transform="matrix(6.12323e-17 1 -1 6.12323e-17 723 208)"/>
</g>
<g id="Line 17">
<use xlink:href="#path8_stroke" transform="translate(613 208)"/>
</g>
<g id="Line 17.2">
<use xlink:href="#path8_stroke" transform="translate(719 208)"/>
</g>
<g id="Line 17.1">
<use xlink:href="#path8_stroke" transform="translate(613 285)"/>
</g>
<g id="Line 16.8">
<use xlink:href="#path7_stroke" transform="matrix(6.12323e-17 1 -1 6.12323e-17 819 208)"/>
</g>
<g id="Line 17.16">
<use xlink:href="#path8_stroke" transform="translate(819 208)"/>
</g>
<g id="Line 17.17">
<use xlink:href="#path8_stroke" transform="translate(819 285)"/>
</g>
<g id="Line 16.6">
<use xlink:href="#path7_stroke" transform="matrix(6.12323e-17 1 -1 6.12323e-17 737 208)"/>
</g>
<g id="Line 17.12">
<use xlink:href="#path8_stroke" transform="translate(737 208)"/>
</g>
<g id="Line 17.13">
<use xlink:href="#path8_stroke" transform="translate(737 285)"/>
</g>
<g id="Line 17.3">
<use xlink:href="#path8_stroke" transform="translate(719 285)"/>
</g>
<g id="Line 16.9">
<use xlink:href="#path7_stroke" transform="matrix(6.12323e-17 1 -1 6.12323e-17 875 208)"/>
</g>
<g id="Line 17.18">
<use xlink:href="#path8_stroke" transform="translate(871 208)"/>
</g>
<g id="Line 17.19">
<use xlink:href="#path8_stroke" transform="translate(871 285)"/>
</g>
<g id="Line 16.7">
<use xlink:href="#path7_stroke" transform="matrix(6.12323e-17 1 -1 6.12323e-17 778 208)"/>
</g>
<g id="Line 17.14">
<use xlink:href="#path8_stroke" transform="translate(774 208)"/>
</g>
<g id="Line 17.15">
<use xlink:href="#path8_stroke" transform="translate(774 285)"/>
</g>
<g id="2.61">
<use xlink:href="#path9_fill" transform="translate(829 214)"/>
</g>
<g id="3.52">
<use xlink:href="#path10_fill" transform="translate(830 236)"/>
</g>
<g id="1.92">
<use xlink:href="#path11_fill" transform="translate(830 256)"/>
</g>
<g id="Line 16.10">
<use xlink:href="#path7_stroke" transform="matrix(6.12323e-17 1 -1 6.12323e-17 1202 222)"/>
</g>
<g id="Line 17.20">
<use xlink:href="#path8_stroke" transform="translate(1202 222)"/>
</g>
<g id="Line 17.21">
<use xlink:href="#path8_stroke" transform="translate(1202 299)"/>
</g>
<g id="Line 16.11">
<use xlink:href="#path7_stroke" transform="matrix(6.12323e-17 1 -1 6.12323e-17 1258 222)"/>
</g>
<g id="Line 17.22">
<use xlink:href="#path8_stroke" transform="translate(1254 222)"/>
</g>
<g id="Line 17.23">
<use xlink:href="#path8_stroke" transform="translate(1254 299)"/>
</g>
<g id="2.61">
<use xlink:href="#path9_fill" transform="translate(1212 228)"/>
</g>
<g id="3.52">
<use xlink:href="#path10_fill" transform="translate(1213 250)"/>
</g>
<g id="1.92">
<use xlink:href="#path11_fill" transform="translate(1213 270)"/>
</g>
<g id="X">
<use xlink:href="#path12_fill" transform="translate(663 312)"/>
</g>
<g id="a">
<use xlink:href="#path13_fill" transform="translate(748 312)"/>
</g>
<g id="y">
<use xlink:href="#path14_fill" transform="translate(845 312)"/>
</g>
<g id="0.9 0.7 0.5">
<use xlink:href="#path15_fill" transform="translate(744 214)"/>
</g>
<g id="=">
<use xlink:href="#path16_fill" transform="translate(801 236)"/>
</g>
<g id="^">
<use xlink:href="#path17_fill" transform="translate(845 305)"/>
</g>
<g id="T">
<use xlink:href="#path18_fill" transform="translate(756 305)"/>
</g>
<g id="Line 12.4">
<use xlink:href="#path19_stroke" transform="matrix(0.879821 0.475305 -0.475305 0.879821 978 208)"/>
</g>
<g id="Line 12.5">
<use xlink:href="#path20_stroke" transform="matrix(0.907399 -0.420269 0.420269 0.907399 973 313)"/>
</g>
<g id="Line 13.4">
<use xlink:href="#path21_stroke" transform="matrix(1 -4.51239e-10 4.51239e-10 1 978 263)"/>
</g>
<g id="Ellipse 2.8">
<use xlink:href="#path22_fill" transform="translate(1064 238)" fill="#FFFFFF"/>
<mask id="mask0_outline_ins">
<use xlink:href="#path22_fill" fill="white" transform="translate(1064 238)"/>
</mask>
<g mask="url(#mask0_outline_ins)">
<use xlink:href="#path23_stroke_2x" transform="translate(1064 238)"/>
</g>
</g>
<g id="Ellipse 2.9">
<use xlink:href="#path24_fill" transform="translate(921 173)" fill="#FFFFFF"/>
<mask id="mask1_outline_ins">
<use xlink:href="#path24_fill" fill="white" transform="translate(921 173)"/>
</mask>
<g mask="url(#mask1_outline_ins)">
<use xlink:href="#path25_stroke_2x" transform="translate(921 173)"/>
</g>
</g>
<g id="Ellipse 2.11">
<use xlink:href="#path24_fill" transform="translate(921 234)" fill="#FFFFFF"/>
<mask id="mask2_outline_ins">
<use xlink:href="#path24_fill" fill="white" transform="translate(921 234)"/>
</mask>
<g mask="url(#mask2_outline_ins)">
<use xlink:href="#path25_stroke_2x" transform="translate(921 234)"/>
</g>
</g>
<g id="Ellipse 2.10">
<use xlink:href="#path24_fill" transform="translate(921 297)" fill="#FFFFFF"/>
<mask id="mask3_outline_ins">
<use xlink:href="#path24_fill" fill="white" transform="translate(921 297)"/>
</mask>
<g mask="url(#mask3_outline_ins)">
<use xlink:href="#path25_stroke_2x" transform="translate(921 297)"/>
</g>
</g>
<g id="0.9">
<use xlink:href="#path26_fill" transform="translate(1012 209)"/>
</g>
<g id="0.7">
<use xlink:href="#path27_fill" transform="translate(1012 241)"/>
</g>
<g id="0.5">
<use xlink:href="#path28_fill" transform="translate(1012 291)"/>
</g>
<g id="Arrow 3.2">
<use xlink:href="#path29_stroke" transform="translate(1113 262)"/>
</g>
<g id="y">
<use xlink:href="#path14_fill" transform="translate(1172 251)"/>
</g>
<g id="^">
<use xlink:href="#path17_fill" transform="translate(1172 244)"/>
</g>
<g id="I( )">
<use xlink:href="#path30_fill" transform="translate(1078 251)"/>
</g>
<g id="I">
<use xlink:href="#path31_fill" transform="translate(586 230)"/>
</g>
<g id="( )">
<use xlink:href="#path32_fill" transform="translate(596 225)"/>
</g>
<g id="Linear Algebra">
<use xlink:href="#path33_fill" transform="translate(676 144)"/>
</g>
<g id="Neural Network">
<use xlink:href="#path34_fill" transform="translate(1025 144)"/>
</g>
<g id="1 1 1">
<use xlink:href="#path35_fill" transform="translate(946 180)"/>
</g>
<g id="2.3 3.1 1.1">
<use xlink:href="#path36_fill" transform="translate(941 240)"/>
</g>
<g id="0.2 0.9 0.5">
<use xlink:href="#path37_fill" transform="translate(941 305)"/>
</g>
<g id="Line 19">
<use xlink:href="#path38_stroke" transform="matrix(6.12323e-17 1 -1 6.12323e-17 938 305)"/>
</g>
<g id="Line 19.1">
<use xlink:href="#path38_stroke" transform="matrix(6.12323e-17 1 -1 6.12323e-17 960 305)"/>
</g>
<g id="Line 20">
<use xlink:href="#path39_stroke" transform="translate(938 305)"/>
</g>
<g id="Line 20.1">
<use xlink:href="#path39_stroke" transform="translate(959 305)"/>
</g>
<g id="Line 20.2">
<use xlink:href="#path39_stroke" transform="translate(959 346)"/>
</g>
<g id="Line 20.3">
<use xlink:href="#path39_stroke" transform="translate(938 346)"/>
</g>
<g id="Line 19.2">
<use xlink:href="#path38_stroke" transform="matrix(6.12323e-17 1 -1 6.12323e-17 938 241)"/>
</g>
<g id="Line 19.3">
<use xlink:href="#path38_stroke" transform="matrix(6.12323e-17 1 -1 6.12323e-17 960 241)"/>
</g>
<g id="Line 20.4">
<use xlink:href="#path39_stroke" transform="translate(938 241)"/>
</g>
<g id="Line 20.5">
<use xlink:href="#path39_stroke" transform="translate(959 241)"/>
</g>
<g id="Line 20.6">
<use xlink:href="#path39_stroke" transform="translate(959 282)"/>
</g>
<g id="Line 20.7">
<use xlink:href="#path39_stroke" transform="translate(938 282)"/>
</g>
<g id="Line 19.4">
<use xlink:href="#path38_stroke" transform="matrix(6.12323e-17 1 -1 6.12323e-17 938 181)"/>
</g>
<g id="Line 19.5">
<use xlink:href="#path38_stroke" transform="matrix(6.12323e-17 1 -1 6.12323e-17 960 181)"/>
</g>
<g id="Line 20.8">
<use xlink:href="#path39_stroke" transform="translate(938 181)"/>
</g>
<g id="Line 20.9">
<use xlink:href="#path39_stroke" transform="translate(959 181)"/>
</g>
<g id="Line 20.10">
<use xlink:href="#path39_stroke" transform="translate(959 222)"/>
</g>
<g id="Line 20.11">
<use xlink:href="#path39_stroke" transform="translate(938 222)"/>
</g>
</g>
</g>
<defs>
<path id="path0_fill" d="M 6.85352 17L 5.21875 17L 5.21875 6.16309L 1.94043 7.36719L 1.94043 5.89062L 6.59863 4.1416L 6.85352 4.1416L 6.85352 17Z"/>
<path id="path1_fill" d="M 9.46777 17L 1.08301 17L 1.08301 15.8311L 5.5127 10.9092C 6.16895 10.165 6.62012 9.56152 6.86621 9.09863C 7.11816 8.62988 7.24414 8.14648 7.24414 7.64844C 7.24414 6.98047 7.04199 6.43262 6.6377 6.00488C 6.2334 5.57715 5.69434 5.36328 5.02051 5.36328C 4.21191 5.36328 3.58203 5.59473 3.13086 6.05762C 2.68555 6.51465 2.46289 7.15332 2.46289 7.97363L 0.836914 7.97363C 0.836914 6.7959 1.21484 5.84375 1.9707 5.11719C 2.73242 4.39063 3.74902 4.02734 5.02051 4.02734C 6.20996 4.02734 7.15039 4.34082 7.8418 4.96777C 8.5332 5.58887 8.87891 6.41797 8.87891 7.45508C 8.87891 8.71484 8.07617 10.2148 6.4707 11.9551L 3.04297 15.6729L 9.46777 15.6729L 9.46777 17ZM 11.3926 16.1475C 11.3926 15.8662 11.4746 15.6318 11.6387 15.4443C 11.8086 15.2568 12.0605 15.1631 12.3945 15.1631C 12.7285 15.1631 12.9805 15.2568 13.1504 15.4443C 13.3262 15.6318 13.4141 15.8662 13.4141 16.1475C 13.4141 16.417 13.3262 16.6426 13.1504 16.8242C 12.9805 17.0059 12.7285 17.0967 12.3945 17.0967C 12.0605 17.0967 11.8086 17.0059 11.6387 16.8242C 11.4746 16.6426 11.3926 16.417 11.3926 16.1475ZM 18.3008 9.81055L 19.5225 9.81055C 20.29 9.79883 20.8936 9.59668 21.333 9.2041C 21.7725 8.81152 21.9922 8.28125 21.9922 7.61328C 21.9922 6.11328 21.2451 5.36328 19.751 5.36328C 19.0479 5.36328 18.4854 5.56543 18.0635 5.96973C 17.6475 6.36816 17.4395 6.89844 17.4395 7.56055L 15.8135 7.56055C 15.8135 6.54687 16.1826 5.70605 16.9209 5.03809C 17.665 4.36426 18.6084 4.02734 19.751 4.02734C 20.958 4.02734 21.9043 4.34668 22.5898 4.98535C 23.2754 5.62402 23.6182 6.51172 23.6182 7.64844C 23.6182 8.20508 23.4365 8.74414 23.0732 9.26562C 22.7158 9.78711 22.2266 10.1768 21.6055 10.4346C 22.3086 10.6572 22.8506 11.0264 23.2314 11.542C 23.6182 12.0576 23.8115 12.6875 23.8115 13.4316C 23.8115 14.5801 23.4365 15.4912 22.6865 16.165C 21.9365 16.8389 20.9609 17.1758 19.7598 17.1758C 18.5586 17.1758 17.5801 16.8506 16.8242 16.2002C 16.0742 15.5498 15.6992 14.6914 15.6992 13.625L 17.334 13.625C 17.334 14.2988 17.5537 14.8379 17.9932 15.2422C 18.4326 15.6465 19.0215 15.8486 19.7598 15.8486C 20.5449 15.8486 21.1455 15.6436 21.5615 15.2334C 21.9775 14.8232 22.1855 14.2344 22.1855 13.4668C 22.1855 12.7227 21.957 12.1514 21.5 11.7529C 21.043 11.3545 20.3838 11.1494 19.5225 11.1377L 18.3008 11.1377L 18.3008 9.81055Z"/>
<path id="path2_fill" d="M 3.44727 9.81055L 4.66895 9.81055C 5.43652 9.79883 6.04004 9.59668 6.47949 9.2041C 6.91895 8.81152 7.13867 8.28125 7.13867 7.61328C 7.13867 6.11328 6.3916 5.36328 4.89746 5.36328C 4.19434 5.36328 3.63184 5.56543 3.20996 5.96973C 2.79395 6.36816 2.58594 6.89844 2.58594 7.56055L 0.959961 7.56055C 0.959961 6.54687 1.3291 5.70605 2.06738 5.03809C 2.81152 4.36426 3.75488 4.02734 4.89746 4.02734C 6.10449 4.02734 7.05078 4.34668 7.73633 4.98535C 8.42188 5.62402 8.76465 6.51172 8.76465 7.64844C 8.76465 8.20508 8.58301 8.74414 8.21973 9.26562C 7.8623 9.78711 7.37305 10.1768 6.75195 10.4346C 7.45508 10.6572 7.99707 11.0264 8.37793 11.542C 8.76465 12.0576 8.95801 12.6875 8.95801 13.4316C 8.95801 14.5801 8.58301 15.4912 7.83301 16.165C 7.08301 16.8389 6.10742 17.1758 4.90625 17.1758C 3.70508 17.1758 2.72656 16.8506 1.9707 16.2002C 1.2207 15.5498 0.845703 14.6914 0.845703 13.625L 2.48047 13.625C 2.48047 14.2988 2.7002 14.8379 3.13965 15.2422C 3.5791 15.6465 4.16797 15.8486 4.90625 15.8486C 5.69141 15.8486 6.29199 15.6436 6.70801 15.2334C 7.12402 14.8232 7.33203 14.2344 7.33203 13.4668C 7.33203 12.7227 7.10352 12.1514 6.64648 11.7529C 6.18945 11.3545 5.53027 11.1494 4.66895 11.1377L 3.44727 11.1377L 3.44727 9.81055ZM 11.3926 16.1475C 11.3926 15.8662 11.4746 15.6318 11.6387 15.4443C 11.8086 15.2568 12.0605 15.1631 12.3945 15.1631C 12.7285 15.1631 12.9805 15.2568 13.1504 15.4443C 13.3262 15.6318 13.4141 15.8662 13.4141 16.1475C 13.4141 16.417 13.3262 16.6426 13.1504 16.8242C 12.9805 17.0059 12.7285 17.0967 12.3945 17.0967C 12.0605 17.0967 11.8086 17.0059 11.6387 16.8242C 11.4746 16.6426 11.3926 16.417 11.3926 16.1475ZM 21.2803 17L 19.6455 17L 19.6455 6.16309L 16.3672 7.36719L 16.3672 5.89062L 21.0254 4.1416L 21.2803 4.1416L 21.2803 17Z"/>
<path id="path3_fill" d="M 6.42676 17L 4.79199 17L 4.79199 6.16309L 1.51367 7.36719L 1.51367 5.89062L 6.17188 4.1416L 6.42676 4.1416L 6.42676 17ZM 11.3926 16.1475C 11.3926 15.8662 11.4746 15.6318 11.6387 15.4443C 11.8086 15.2568 12.0605 15.1631 12.3945 15.1631C 12.7285 15.1631 12.9805 15.2568 13.1504 15.4443C 13.3262 15.6318 13.4141 15.8662 13.4141 16.1475C 13.4141 16.417 13.3262 16.6426 13.1504 16.8242C 12.9805 17.0059 12.7285 17.0967 12.3945 17.0967C 12.0605 17.0967 11.8086 17.0059 11.6387 16.8242C 11.4746 16.6426 11.3926 16.417 11.3926 16.1475ZM 21.2803 17L 19.6455 17L 19.6455 6.16309L 16.3672 7.36719L 16.3672 5.89062L 21.0254 4.1416L 21.2803 4.1416L 21.2803 17Z"/>
<path id="path4_fill" d="M 9.10742 11.542C 9.10742 13.4463 8.78223 14.8613 8.13184 15.7871C 7.48145 16.7129 6.46484 17.1758 5.08203 17.1758C 3.7168 17.1758 2.70605 16.7246 2.0498 15.8223C 1.39355 14.9141 1.05371 13.5605 1.03027 11.7617L 1.03027 9.59082C 1.03027 7.70996 1.35547 6.3125 2.00586 5.39844C 2.65625 4.48438 3.67578 4.02734 5.06445 4.02734C 6.44141 4.02734 7.45508 4.46973 8.10547 5.35449C 8.75586 6.2334 9.08984 7.59277 9.10742 9.43262L 9.10742 11.542ZM 7.48145 9.31836C 7.48145 7.94141 7.28809 6.93945 6.90137 6.3125C 6.51465 5.67969 5.90234 5.36328 5.06445 5.36328C 4.23242 5.36328 3.62598 5.67676 3.24512 6.30371C 2.86426 6.93066 2.66797 7.89453 2.65625 9.19531L 2.65625 11.7969C 2.65625 13.1797 2.85547 14.2021 3.25391 14.8643C 3.6582 15.5205 4.26758 15.8486 5.08203 15.8486C 5.88477 15.8486 6.47949 15.5381 6.86621 14.917C 7.25879 14.2959 7.46387 13.3174 7.48145 11.9814L 7.48145 9.31836ZM 11.3926 16.1475C 11.3926 15.8662 11.4746 15.6318 11.6387 15.4443C 11.8086 15.2568 12.0605 15.1631 12.3945 15.1631C 12.7285 15.1631 12.9805 15.2568 13.1504 15.4443C 13.3262 15.6318 13.4141 15.8662 13.4141 16.1475C 13.4141 16.417 13.3262 16.6426 13.1504 16.8242C 12.9805 17.0059 12.7285 17.0967 12.3945 17.0967C 12.0605 17.0967 11.8086 17.0059 11.6387 16.8242C 11.4746 16.6426 11.3926 16.417 11.3926 16.1475ZM 24.3213 17L 15.9365 17L 15.9365 15.8311L 20.3662 10.9092C 21.0225 10.165 21.4736 9.56152 21.7197 9.09863C 21.9717 8.62988 22.0977 8.14648 22.0977 7.64844C 22.0977 6.98047 21.8955 6.43262 21.4912 6.00488C 21.0869 5.57715 20.5479 5.36328 19.874 5.36328C 19.0654 5.36328 18.4355 5.59473 17.9844 6.05762C 17.5391 6.51465 17.3164 7.15332 17.3164 7.97363L 15.6904 7.97363C 15.6904 6.7959 16.0684 5.84375 16.8242 5.11719C 17.5859 4.39063 18.6025 4.02734 19.874 4.02734C 21.0635 4.02734 22.0039 4.34082 22.6953 4.96777C 23.3867 5.58887 23.7324 6.41797 23.7324 7.45508C 23.7324 8.71484 22.9297 10.2148 21.3242 11.9551L 17.8965 15.6729L 24.3213 15.6729L 24.3213 17Z"/>
<path id="path5_fill" d="M 9.10742 11.542C 9.10742 13.4463 8.78223 14.8613 8.13184 15.7871C 7.48145 16.7129 6.46484 17.1758 5.08203 17.1758C 3.7168 17.1758 2.70605 16.7246 2.0498 15.8223C 1.39355 14.9141 1.05371 13.5605 1.03027 11.7617L 1.03027 9.59082C 1.03027 7.70996 1.35547 6.3125 2.00586 5.39844C 2.65625 4.48438 3.67578 4.02734 5.06445 4.02734C 6.44141 4.02734 7.45508 4.46973 8.10547 5.35449C 8.75586 6.2334 9.08984 7.59277 9.10742 9.43262L 9.10742 11.542ZM 7.48145 9.31836C 7.48145 7.94141 7.28809 6.93945 6.90137 6.3125C 6.51465 5.67969 5.90234 5.36328 5.06445 5.36328C 4.23242 5.36328 3.62598 5.67676 3.24512 6.30371C 2.86426 6.93066 2.66797 7.89453 2.65625 9.19531L 2.65625 11.7969C 2.65625 13.1797 2.85547 14.2021 3.25391 14.8643C 3.6582 15.5205 4.26758 15.8486 5.08203 15.8486C 5.88477 15.8486 6.47949 15.5381 6.86621 14.917C 7.25879 14.2959 7.46387 13.3174 7.48145 11.9814L 7.48145 9.31836ZM 11.3926 16.1475C 11.3926 15.8662 11.4746 15.6318 11.6387 15.4443C 11.8086 15.2568 12.0605 15.1631 12.3945 15.1631C 12.7285 15.1631 12.9805 15.2568 13.1504 15.4443C 13.3262 15.6318 13.4141 15.8662 13.4141 16.1475C 13.4141 16.417 13.3262 16.6426 13.1504 16.8242C 12.9805 17.0059 12.7285 17.0967 12.3945 17.0967C 12.0605 17.0967 11.8086 17.0059 11.6387 16.8242C 11.4746 16.6426 11.3926 16.417 11.3926 16.1475ZM 22.168 11.375C 21.8281 11.7793 21.4209 12.1045 20.9463 12.3506C 20.4775 12.5967 19.9619 12.7197 19.3994 12.7197C 18.6611 12.7197 18.0166 12.5381 17.4658 12.1748C 16.9209 11.8115 16.499 11.3018 16.2002 10.6455C 15.9014 9.9834 15.752 9.25391 15.752 8.45703C 15.752 7.60156 15.9131 6.83105 16.2354 6.14551C 16.5635 5.45996 17.0264 4.93555 17.624 4.57227C 18.2217 4.20898 18.9189 4.02734 19.7158 4.02734C 20.9814 4.02734 21.9775 4.50195 22.7041 5.45117C 23.4365 6.39453 23.8027 7.68359 23.8027 9.31836L 23.8027 9.79297C 23.8027 12.2832 23.3105 14.1025 22.3262 15.251C 21.3418 16.3936 19.8564 16.9795 17.8701 17.0088L 17.5537 17.0088L 17.5537 15.6377L 17.8965 15.6377C 19.2383 15.6143 20.2695 15.2656 20.9902 14.5918C 21.7109 13.9121 22.1035 12.8398 22.168 11.375ZM 19.6631 11.375C 20.208 11.375 20.709 11.208 21.166 10.874C 21.6289 10.54 21.9658 10.127 22.1768 9.63477L 22.1768 8.98438C 22.1768 7.91797 21.9453 7.05078 21.4824 6.38281C 21.0195 5.71484 20.4336 5.38086 19.7246 5.38086C 19.0098 5.38086 18.4355 5.65625 18.002 6.20703C 17.5684 6.75195 17.3516 7.47266 17.3516 8.36914C 17.3516 9.24219 17.5596 9.96289 17.9756 10.5312C 18.3975 11.0938 18.96 11.375 19.6631 11.375Z"/>
<path id="path6_fill" d="M 9.10742 11.542C 9.10742 13.4463 8.78223 14.8613 8.13184 15.7871C 7.48145 16.7129 6.46484 17.1758 5.08203 17.1758C 3.7168 17.1758 2.70605 16.7246 2.0498 15.8223C 1.39355 14.9141 1.05371 13.5605 1.03027 11.7617L 1.03027 9.59082C 1.03027 7.70996 1.35547 6.3125 2.00586 5.39844C 2.65625 4.48438 3.67578 4.02734 5.06445 4.02734C 6.44141 4.02734 7.45508 4.46973 8.10547 5.35449C 8.75586 6.2334 9.08984 7.59277 9.10742 9.43262L 9.10742 11.542ZM 7.48145 9.31836C 7.48145 7.94141 7.28809 6.93945 6.90137 6.3125C 6.51465 5.67969 5.90234 5.36328 5.06445 5.36328C 4.23242 5.36328 3.62598 5.67676 3.24512 6.30371C 2.86426 6.93066 2.66797 7.89453 2.65625 9.19531L 2.65625 11.7969C 2.65625 13.1797 2.85547 14.2021 3.25391 14.8643C 3.6582 15.5205 4.26758 15.8486 5.08203 15.8486C 5.88477 15.8486 6.47949 15.5381 6.86621 14.917C 7.25879 14.2959 7.46387 13.3174 7.48145 11.9814L 7.48145 9.31836ZM 11.3926 16.1475C 11.3926 15.8662 11.4746 15.6318 11.6387 15.4443C 11.8086 15.2568 12.0605 15.1631 12.3945 15.1631C 12.7285 15.1631 12.9805 15.2568 13.1504 15.4443C 13.3262 15.6318 13.4141 15.8662 13.4141 16.1475C 13.4141 16.417 13.3262 16.6426 13.1504 16.8242C 12.9805 17.0059 12.7285 17.0967 12.3945 17.0967C 12.0605 17.0967 11.8086 17.0059 11.6387 16.8242C 11.4746 16.6426 11.3926 16.417 11.3926 16.1475ZM 16.6836 10.584L 17.334 4.20312L 23.8906 4.20312L 23.8906 5.70605L 18.7139 5.70605L 18.3271 9.19531C 18.9541 8.82617 19.666 8.6416 20.4629 8.6416C 21.6289 8.6416 22.5547 9.02832 23.2402 9.80176C 23.9258 10.5693 24.2686 11.6094 24.2686 12.9219C 24.2686 14.2402 23.9111 15.2803 23.1963 16.042C 22.4873 16.7979 21.4941 17.1758 20.2168 17.1758C 19.0859 17.1758 18.1631 16.8623 17.4482 16.2354C 16.7334 15.6084 16.3262 14.7412 16.2266 13.6338L 17.7646 13.6338C 17.8643 14.3662 18.125 14.9199 18.5469 15.2949C 18.9688 15.6641 19.5254 15.8486 20.2168 15.8486C 20.9727 15.8486 21.5645 15.5908 21.9922 15.0752C 22.4258 14.5596 22.6426 13.8477 22.6426 12.9395C 22.6426 12.084 22.4082 11.3984 21.9395 10.8828C 21.4766 10.3613 20.8584 10.1006 20.085 10.1006C 19.376 10.1006 18.8193 10.2559 18.415 10.5664L 17.9844 10.918L 16.6836 10.584Z"/>
<path id="path7_stroke" d="M 0 0L 77 0L 77 -1L 0 -1L 0 0Z"/>
<path id="path8_stroke" d="M 0 0L 5 0L 5 -1L 0 -1L 0 0Z"/>
<path id="path9_fill" d="M 9.91406 17L 1.5293 17L 1.5293 15.8311L 5.95898 10.9092C 6.61523 10.165 7.06641 9.56152 7.3125 9.09863C 7.56445 8.62988 7.69043 8.14648 7.69043 7.64844C 7.69043 6.98047 7.48828 6.43262 7.08398 6.00488C 6.67969 5.57715 6.14063 5.36328 5.4668 5.36328C 4.6582 5.36328 4.02832 5.59473 3.57715 6.05762C 3.13184 6.51465 2.90918 7.15332 2.90918 7.97363L 1.2832 7.97363C 1.2832 6.7959 1.66113 5.84375 2.41699 5.11719C 3.17871 4.39063 4.19531 4.02734 5.4668 4.02734C 6.65625 4.02734 7.59668 4.34082 8.28809 4.96777C 8.97949 5.58887 9.3252 6.41797 9.3252 7.45508C 9.3252 8.71484 8.52246 10.2148 6.91699 11.9551L 3.48926 15.6729L 9.91406 15.6729L 9.91406 17ZM 11.8389 16.1475C 11.8389 15.8662 11.9209 15.6318 12.085 15.4443C 12.2549 15.2568 12.5068 15.1631 12.8408 15.1631C 13.1748 15.1631 13.4268 15.2568 13.5967 15.4443C 13.7725 15.6318 13.8604 15.8662 13.8604 16.1475C 13.8604 16.417 13.7725 16.6426 13.5967 16.8242C 13.4268 17.0059 13.1748 17.0967 12.8408 17.0967C 12.5068 17.0967 12.2549 17.0059 12.085 16.8242C 11.9209 16.6426 11.8389 16.417 11.8389 16.1475ZM 22.7637 4.19434L 22.7637 5.57422L 22.4648 5.57422C 21.1992 5.59766 20.1914 5.97266 19.4414 6.69922C 18.6914 7.42578 18.2578 8.44824 18.1406 9.7666C 18.8145 8.99316 19.7344 8.60645 20.9004 8.60645C 22.0137 8.60645 22.9014 8.99902 23.5635 9.78418C 24.2314 10.5693 24.5654 11.583 24.5654 12.8252C 24.5654 14.1436 24.2051 15.1982 23.4844 15.9893C 22.7695 16.7803 21.8086 17.1758 20.6016 17.1758C 19.377 17.1758 18.3838 16.707 17.6221 15.7695C 16.8604 14.8262 16.4795 13.6133 16.4795 12.1309L 16.4795 11.5068C 16.4795 9.15137 16.9805 7.35254 17.9824 6.11035C 18.9902 4.8623 20.4873 4.22363 22.4736 4.19434L 22.7637 4.19434ZM 20.6279 9.95996C 20.0713 9.95996 19.5586 10.127 19.0898 10.4609C 18.6211 10.7949 18.2959 11.2139 18.1143 11.7178L 18.1143 12.3154C 18.1143 13.3701 18.3516 14.2197 18.8262 14.8643C 19.3008 15.5088 19.8926 15.8311 20.6016 15.8311C 21.334 15.8311 21.9082 15.5615 22.3242 15.0225C 22.7461 14.4834 22.957 13.7773 22.957 12.9043C 22.957 12.0254 22.7432 11.3164 22.3154 10.7773C 21.8936 10.2324 21.3311 9.95996 20.6279 9.95996ZM 31.834 17L 30.1992 17L 30.1992 6.16309L 26.9209 7.36719L 26.9209 5.89062L 31.5791 4.1416L 31.834 4.1416L 31.834 17Z"/>
<path id="path10_fill" d="M 3.89355 9.81055L 5.11523 9.81055C 5.88281 9.79883 6.48633 9.59668 6.92578 9.2041C 7.36523 8.81152 7.58496 8.28125 7.58496 7.61328C 7.58496 6.11328 6.83789 5.36328 5.34375 5.36328C 4.64062 5.36328 4.07812 5.56543 3.65625 5.96973C 3.24023 6.36816 3.03223 6.89844 3.03223 7.56055L 1.40625 7.56055C 1.40625 6.54687 1.77539 5.70605 2.51367 5.03809C 3.25781 4.36426 4.20117 4.02734 5.34375 4.02734C 6.55078 4.02734 7.49707 4.34668 8.18262 4.98535C 8.86816 5.62402 9.21094 6.51172 9.21094 7.64844C 9.21094 8.20508 9.0293 8.74414 8.66602 9.26562C 8.30859 9.78711 7.81934 10.1768 7.19824 10.4346C 7.90137 10.6572 8.44336 11.0264 8.82422 11.542C 9.21094 12.0576 9.4043 12.6875 9.4043 13.4316C 9.4043 14.5801 9.0293 15.4912 8.2793 16.165C 7.5293 16.8389 6.55371 17.1758 5.35254 17.1758C 4.15137 17.1758 3.17285 16.8506 2.41699 16.2002C 1.66699 15.5498 1.29199 14.6914 1.29199 13.625L 2.92676 13.625C 2.92676 14.2988 3.14648 14.8379 3.58594 15.2422C 4.02539 15.6465 4.61426 15.8486 5.35254 15.8486C 6.1377 15.8486 6.73828 15.6436 7.1543 15.2334C 7.57031 14.8232 7.77832 14.2344 7.77832 13.4668C 7.77832 12.7227 7.5498 12.1514 7.09277 11.7529C 6.63574 11.3545 5.97656 11.1494 5.11523 11.1377L 3.89355 11.1377L 3.89355 9.81055ZM 11.8389 16.1475C 11.8389 15.8662 11.9209 15.6318 12.085 15.4443C 12.2549 15.2568 12.5068 15.1631 12.8408 15.1631C 13.1748 15.1631 13.4268 15.2568 13.5967 15.4443C 13.7725 15.6318 13.8604 15.8662 13.8604 16.1475C 13.8604 16.417 13.7725 16.6426 13.5967 16.8242C 13.4268 17.0059 13.1748 17.0967 12.8408 17.0967C 12.5068 17.0967 12.2549 17.0059 12.085 16.8242C 11.9209 16.6426 11.8389 16.417 11.8389 16.1475ZM 17.1299 10.584L 17.7803 4.20312L 24.3369 4.20312L 24.3369 5.70605L 19.1602 5.70605L 18.7734 9.19531C 19.4004 8.82617 20.1123 8.6416 20.9092 8.6416C 22.0752 8.6416 23.001 9.02832 23.6865 9.80176C 24.3721 10.5693 24.7148 11.6094 24.7148 12.9219C 24.7148 14.2402 24.3574 15.2803 23.6426 16.042C 22.9336 16.7979 21.9404 17.1758 20.6631 17.1758C 19.5322 17.1758 18.6094 16.8623 17.8945 16.2354C 17.1797 15.6084 16.7725 14.7412 16.6729 13.6338L 18.2109 13.6338C 18.3105 14.3662 18.5713 14.9199 18.9932 15.2949C 19.415 15.6641 19.9717 15.8486 20.6631 15.8486C 21.4189 15.8486 22.0107 15.5908 22.4385 15.0752C 22.8721 14.5596 23.0889 13.8477 23.0889 12.9395C 23.0889 12.084 22.8545 11.3984 22.3857 10.8828C 21.9229 10.3613 21.3047 10.1006 20.5312 10.1006C 19.8223 10.1006 19.2656 10.2559 18.8613 10.5664L 18.4307 10.918L 17.1299 10.584ZM 34.875 17L 26.4902 17L 26.4902 15.8311L 30.9199 10.9092C 31.5762 10.165 32.0273 9.56152 32.2734 9.09863C 32.5254 8.62988 32.6514 8.14648 32.6514 7.64844C 32.6514 6.98047 32.4492 6.43262 32.0449 6.00488C 31.6406 5.57715 31.1016 5.36328 30.4277 5.36328C 29.6191 5.36328 28.9893 5.59473 28.5381 6.05762C 28.0928 6.51465 27.8701 7.15332 27.8701 7.97363L 26.2441 7.97363C 26.2441 6.7959 26.6221 5.84375 27.3779 5.11719C 28.1396 4.39063 29.1563 4.02734 30.4277 4.02734C 31.6172 4.02734 32.5576 4.34082 33.249 4.96777C 33.9404 5.58887 34.2861 6.41797 34.2861 7.45508C 34.2861 8.71484 33.4834 10.2148 31.8779 11.9551L 28.4502 15.6729L 34.875 15.6729L 34.875 17Z"/>
<path id="path11_fill" d="M 6.87305 17L 5.23828 17L 5.23828 6.16309L 1.95996 7.36719L 1.95996 5.89062L 6.61816 4.1416L 6.87305 4.1416L 6.87305 17ZM 11.8389 16.1475C 11.8389 15.8662 11.9209 15.6318 12.085 15.4443C 12.2549 15.2568 12.5068 15.1631 12.8408 15.1631C 13.1748 15.1631 13.4268 15.2568 13.5967 15.4443C 13.7725 15.6318 13.8604 15.8662 13.8604 16.1475C 13.8604 16.417 13.7725 16.6426 13.5967 16.8242C 13.4268 17.0059 13.1748 17.0967 12.8408 17.0967C 12.5068 17.0967 12.2549 17.0059 12.085 16.8242C 11.9209 16.6426 11.8389 16.417 11.8389 16.1475ZM 22.6143 11.375C 22.2744 11.7793 21.8672 12.1045 21.3926 12.3506C 20.9238 12.5967 20.4082 12.7197 19.8457 12.7197C 19.1074 12.7197 18.4629 12.5381 17.9121 12.1748C 17.3672 11.8115 16.9453 11.3018 16.6465 10.6455C 16.3477 9.9834 16.1982 9.25391 16.1982 8.45703C 16.1982 7.60156 16.3594 6.83105 16.6816 6.14551C 17.0098 5.45996 17.4727 4.93555 18.0703 4.57227C 18.668 4.20898 19.3652 4.02734 20.1621 4.02734C 21.4277 4.02734 22.4238 4.50195 23.1504 5.45117C 23.8828 6.39453 24.249 7.68359 24.249 9.31836L 24.249 9.79297C 24.249 12.2832 23.7568 14.1025 22.7725 15.251C 21.7881 16.3936 20.3027 16.9795 18.3164 17.0088L 18 17.0088L 18 15.6377L 18.3428 15.6377C 19.6846 15.6143 20.7158 15.2656 21.4365 14.5918C 22.1572 13.9121 22.5498 12.8398 22.6143 11.375ZM 20.1094 11.375C 20.6543 11.375 21.1553 11.208 21.6123 10.874C 22.0752 10.54 22.4121 10.127 22.623 9.63477L 22.623 8.98438C 22.623 7.91797 22.3916 7.05078 21.9287 6.38281C 21.4658 5.71484 20.8799 5.38086 20.1709 5.38086C 19.4561 5.38086 18.8818 5.65625 18.4482 6.20703C 18.0146 6.75195 17.7979 7.47266 17.7979 8.36914C 17.7979 9.24219 18.0059 9.96289 18.4219 10.5312C 18.8438 11.0938 19.4062 11.375 20.1094 11.375ZM 34.875 17L 26.4902 17L 26.4902 15.8311L 30.9199 10.9092C 31.5762 10.165 32.0273 9.56152 32.2734 9.09863C 32.5254 8.62988 32.6514 8.14648 32.6514 7.64844C 32.6514 6.98047 32.4492 6.43262 32.0449 6.00488C 31.6406 5.57715 31.1016 5.36328 30.4277 5.36328C 29.6191 5.36328 28.9893 5.59473 28.5381 6.05762C 28.0928 6.51465 27.8701 7.15332 27.8701 7.97363L 26.2441 7.97363C 26.2441 6.7959 26.6221 5.84375 27.3779 5.11719C 28.1396 4.39063 29.1563 4.02734 30.4277 4.02734C 31.6172 4.02734 32.5576 4.34082 33.249 4.96777C 33.9404 5.58887 34.2861 6.41797 34.2861 7.45508C 34.2861 8.71484 33.4834 10.2148 31.8779 11.9551L 28.4502 15.6729L 34.875 15.6729L 34.875 17Z"/>
<path id="path12_fill" d="M 6.01758 9.10742L 9.08496 4.20312L 11.0713 4.20312L 7.02832 10.5488L 11.168 17L 9.16406 17L 6.01758 12.0078L 2.85352 17L 0.858398 17L 5.00684 10.5488L 0.955078 4.20312L 2.93262 4.20312L 6.01758 9.10742Z"/>
<path id="path13_fill" d="M 7.20605 17C 7.1123 16.8125 7.03613 16.4785 6.97754 15.998C 6.22168 16.7832 5.31934 17.1758 4.27051 17.1758C 3.33301 17.1758 2.5625 16.9121 1.95898 16.3848C 1.36133 15.8516 1.0625 15.1777 1.0625 14.3633C 1.0625 13.373 1.4375 12.6055 2.1875 12.0605C 2.94336 11.5098 4.00391 11.2344 5.36914 11.2344L 6.95117 11.2344L 6.95117 10.4873C 6.95117 9.91895 6.78125 9.46777 6.44141 9.13379C 6.10156 8.79395 5.60059 8.62402 4.93848 8.62402C 4.3584 8.62402 3.87207 8.77051 3.47949 9.06348C 3.08691 9.35645 2.89062 9.71094 2.89062 10.127L 1.25586 10.127C 1.25586 9.65234 1.42285 9.19531 1.75684 8.75586C 2.09668 8.31055 2.55371 7.95898 3.12793 7.70117C 3.70801 7.44336 4.34375 7.31445 5.03516 7.31445C 6.13086 7.31445 6.98926 7.58984 7.61035 8.14062C 8.23145 8.68555 8.55371 9.43848 8.57715 10.3994L 8.57715 14.7764C 8.57715 15.6494 8.68848 16.3438 8.91113 16.8594L 8.91113 17L 7.20605 17ZM 4.50781 15.7607C 5.01758 15.7607 5.50098 15.6289 5.95801 15.3652C 6.41504 15.1016 6.74609 14.7588 6.95117 14.3369L 6.95117 12.3857L 5.67676 12.3857C 3.68457 12.3857 2.68848 12.9688 2.68848 14.1348C 2.68848 14.6445 2.8584 15.043 3.19824 15.3301C 3.53809 15.6172 3.97461 15.7607 4.50781 15.7607Z"/>
<path id="path14_fill" d="M 4.5791 14.6182L 6.79395 7.49023L 8.53418 7.49023L 4.71094 18.4678C 4.11914 20.0498 3.17871 20.8408 1.88965 20.8408L 1.58203 20.8145L 0.975586 20.7002L 0.975586 19.3818L 1.41504 19.417C 1.96582 19.417 2.39355 19.3057 2.69824 19.083C 3.00879 18.8604 3.26367 18.4531 3.46289 17.8613L 3.82324 16.8945L 0.430664 7.49023L 2.20605 7.49023L 4.5791 14.6182Z"/>
<path id="path15_fill" d="M 9.10742 11.542C 9.10742 13.4463 8.78223 14.8613 8.13184 15.7871C 7.48145 16.7129 6.46484 17.1758 5.08203 17.1758C 3.7168 17.1758 2.70605 16.7246 2.0498 15.8223C 1.39355 14.9141 1.05371 13.5605 1.03027 11.7617L 1.03027 9.59082C 1.03027 7.70996 1.35547 6.3125 2.00586 5.39844C 2.65625 4.48438 3.67578 4.02734 5.06445 4.02734C 6.44141 4.02734 7.45508 4.46973 8.10547 5.35449C 8.75586 6.2334 9.08984 7.59277 9.10742 9.43262L 9.10742 11.542ZM 7.48145 9.31836C 7.48145 7.94141 7.28809 6.93945 6.90137 6.3125C 6.51465 5.67969 5.90234 5.36328 5.06445 5.36328C 4.23242 5.36328 3.62598 5.67676 3.24512 6.30371C 2.86426 6.93066 2.66797 7.89453 2.65625 9.19531L 2.65625 11.7969C 2.65625 13.1797 2.85547 14.2021 3.25391 14.8643C 3.6582 15.5205 4.26758 15.8486 5.08203 15.8486C 5.88477 15.8486 6.47949 15.5381 6.86621 14.917C 7.25879 14.2959 7.46387 13.3174 7.48145 11.9814L 7.48145 9.31836ZM 11.3926 16.1475C 11.3926 15.8662 11.4746 15.6318 11.6387 15.4443C 11.8086 15.2568 12.0605 15.1631 12.3945 15.1631C 12.7285 15.1631 12.9805 15.2568 13.1504 15.4443C 13.3262 15.6318 13.4141 15.8662 13.4141 16.1475C 13.4141 16.417 13.3262 16.6426 13.1504 16.8242C 12.9805 17.0059 12.7285 17.0967 12.3945 17.0967C 12.0605 17.0967 11.8086 17.0059 11.6387 16.8242C 11.4746 16.6426 11.3926 16.417 11.3926 16.1475ZM 22.168 11.375C 21.8281 11.7793 21.4209 12.1045 20.9463 12.3506C 20.4775 12.5967 19.9619 12.7197 19.3994 12.7197C 18.6611 12.7197 18.0166 12.5381 17.4658 12.1748C 16.9209 11.8115 16.499 11.3018 16.2002 10.6455C 15.9014 9.9834 15.752 9.25391 15.752 8.45703C 15.752 7.60156 15.9131 6.83105 16.2354 6.14551C 16.5635 5.45996 17.0264 4.93555 17.624 4.57227C 18.2217 4.20898 18.9189 4.02734 19.7158 4.02734C 20.9814 4.02734 21.9775 4.50195 22.7041 5.45117C 23.4365 6.39453 23.8027 7.68359 23.8027 9.31836L 23.8027 9.79297C 23.8027 12.2832 23.3105 14.1025 22.3262 15.251C 21.3418 16.3936 19.8564 16.9795 17.8701 17.0088L 17.5537 17.0088L 17.5537 15.6377L 17.8965 15.6377C 19.2383 15.6143 20.2695 15.2656 20.9902 14.5918C 21.7109 13.9121 22.1035 12.8398 22.168 11.375ZM 19.6631 11.375C 20.208 11.375 20.709 11.208 21.166 10.874C 21.6289 10.54 21.9658 10.127 22.1768 9.63477L 22.1768 8.98438C 22.1768 7.91797 21.9453 7.05078 21.4824 6.38281C 21.0195 5.71484 20.4336 5.38086 19.7246 5.38086C 19.0098 5.38086 18.4355 5.65625 18.002 6.20703C 17.5684 6.75195 17.3516 7.47266 17.3516 8.36914C 17.3516 9.24219 17.5596 9.96289 17.9756 10.5312C 18.3975 11.0938 18.96 11.375 19.6631 11.375ZM 9.10742 32.542C 9.10742 34.4463 8.78223 35.8613 8.13184 36.7871C 7.48145 37.7129 6.46484 38.1758 5.08203 38.1758C 3.7168 38.1758 2.70605 37.7246 2.0498 36.8223C 1.39355 35.9141 1.05371 34.5605 1.03027 32.7617L 1.03027 30.5908C 1.03027 28.71 1.35547 27.3125 2.00586 26.3984C 2.65625 25.4844 3.67578 25.0273 5.06445 25.0273C 6.44141 25.0273 7.45508 25.4697 8.10547 26.3545C 8.75586 27.2334 9.08984 28.5928 9.10742 30.4326L 9.10742 32.542ZM 7.48145 30.3184C 7.48145 28.9414 7.28809 27.9395 6.90137 27.3125C 6.51465 26.6797 5.90234 26.3633 5.06445 26.3633C 4.23242 26.3633 3.62598 26.6768 3.24512 27.3037C 2.86426 27.9307 2.66797 28.8945 2.65625 30.1953L 2.65625 32.7969C 2.65625 34.1797 2.85547 35.2021 3.25391 35.8643C 3.6582 36.5205 4.26758 36.8486 5.08203 36.8486C 5.88477 36.8486 6.47949 36.5381 6.86621 35.917C 7.25879 35.2959 7.46387 34.3174 7.48145 32.9814L 7.48145 30.3184ZM 11.3926 37.1475C 11.3926 36.8662 11.4746 36.6318 11.6387 36.4443C 11.8086 36.2568 12.0605 36.1631 12.3945 36.1631C 12.7285 36.1631 12.9805 36.2568 13.1504 36.4443C 13.3262 36.6318 13.4141 36.8662 13.4141 37.1475C 13.4141 37.417 13.3262 37.6426 13.1504 37.8242C 12.9805 38.0059 12.7285 38.0967 12.3945 38.0967C 12.0605 38.0967 11.8086 38.0059 11.6387 37.8242C 11.4746 37.6426 11.3926 37.417 11.3926 37.1475ZM 24.1982 26.1172L 18.8984 38L 17.1934 38L 22.4756 26.5391L 15.5498 26.5391L 15.5498 25.2031L 24.1982 25.2031L 24.1982 26.1172ZM 9.10742 53.542C 9.10742 55.4463 8.78223 56.8613 8.13184 57.7871C 7.48145 58.7129 6.46484 59.1758 5.08203 59.1758C 3.7168 59.1758 2.70605 58.7246 2.0498 57.8223C 1.39355 56.9141 1.05371 55.5605 1.03027 53.7617L 1.03027 51.5908C 1.03027 49.71 1.35547 48.3125 2.00586 47.3984C 2.65625 46.4844 3.67578 46.0273 5.06445 46.0273C 6.44141 46.0273 7.45508 46.4697 8.10547 47.3545C 8.75586 48.2334 9.08984 49.5928 9.10742 51.4326L 9.10742 53.542ZM 7.48145 51.3184C 7.48145 49.9414 7.28809 48.9395 6.90137 48.3125C 6.51465 47.6797 5.90234 47.3633 5.06445 47.3633C 4.23242 47.3633 3.62598 47.6768 3.24512 48.3037C 2.86426 48.9307 2.66797 49.8945 2.65625 51.1953L 2.65625 53.7969C 2.65625 55.1797 2.85547 56.2021 3.25391 56.8643C 3.6582 57.5205 4.26758 57.8486 5.08203 57.8486C 5.88477 57.8486 6.47949 57.5381 6.86621 56.917C 7.25879 56.2959 7.46387 55.3174 7.48145 53.9814L 7.48145 51.3184ZM 11.3926 58.1475C 11.3926 57.8662 11.4746 57.6318 11.6387 57.4443C 11.8086 57.2568 12.0605 57.1631 12.3945 57.1631C 12.7285 57.1631 12.9805 57.2568 13.1504 57.4443C 13.3262 57.6318 13.4141 57.8662 13.4141 58.1475C 13.4141 58.417 13.3262 58.6426 13.1504 58.8242C 12.9805 59.0059 12.7285 59.0967 12.3945 59.0967C 12.0605 59.0967 11.8086 59.0059 11.6387 58.8242C 11.4746 58.6426 11.3926 58.417 11.3926 58.1475ZM 16.6836 52.584L 17.334 46.2031L 23.8906 46.2031L 23.8906 47.7061L 18.7139 47.7061L 18.3271 51.1953C 18.9541 50.8262 19.666 50.6416 20.4629 50.6416C 21.6289 50.6416 22.5547 51.0283 23.2402 51.8018C 23.9258 52.5693 24.2686 53.6094 24.2686 54.9219C 24.2686 56.2402 23.9111 57.2803 23.1963 58.042C 22.4873 58.7979 21.4941 59.1758 20.2168 59.1758C 19.0859 59.1758 18.1631 58.8623 17.4482 58.2354C 16.7334 57.6084 16.3262 56.7412 16.2266 55.6338L 17.7646 55.6338C 17.8643 56.3662 18.125 56.9199 18.5469 57.2949C 18.9688 57.6641 19.5254 57.8486 20.2168 57.8486C 20.9727 57.8486 21.5645 57.5908 21.9922 57.0752C 22.4258 56.5596 22.6426 55.8477 22.6426 54.9395C 22.6426 54.084 22.4082 53.3984 21.9395 52.8828C 21.4766 52.3613 20.8584 52.1006 20.085 52.1006C 19.376 52.1006 18.8193 52.2559 18.415 52.5664L 17.9844 52.918L 16.6836 52.584Z"/>
<path id="path16_fill" d="M 8.72656 9.8457L 1.39648 9.8457L 1.39648 8.43066L 8.72656 8.43066L 8.72656 9.8457ZM 8.72656 13.4932L 1.39648 13.4932L 1.39648 12.0869L 8.72656 12.0869L 8.72656 13.4932Z"/>
<path id="path17_fill" d="M 3.98242 6.35645L 2.3125 10.5928L 0.800781 10.5928L 3.42871 4.20312L 4.54492 4.20312L 7.16406 10.5928L 5.66113 10.5928L 3.98242 6.35645Z"/>
<path id="path18_fill" d="M 8.35547 4.12695L 5.15625 4.12695L 5.15625 13L 3.85059 13L 3.85059 4.12695L 0.658203 4.12695L 0.658203 3.04688L 8.35547 3.04688L 8.35547 4.12695Z"/>
<path id="path19_stroke" d="M 0 0L 98.8838 0L 98.8838 -1L 0 -1L 0 0Z"/>
<path id="path20_stroke" d="M 0 -5.55112e-17L 104.695 -5.55112e-17L 104.695 -1L 0 -1L 0 -5.55112e-17Z"/>
<path id="path21_stroke" d="M 0 0L 91 0L 91 -1L 0 -1L 0 0Z"/>
<path id="path22_fill" d="M 49 24.5C 49 38.031 38.031 49 24.5 49C 10.969 49 0 38.031 0 24.5C 0 10.969 10.969 0 24.5 0C 38.031 0 49 10.969 49 24.5Z"/>
<path id="path23_stroke_2x" d="M 48 24.5C 48 37.4787 37.4787 48 24.5 48L 24.5 50C 38.5833 50 50 38.5833 50 24.5L 48 24.5ZM 24.5 48C 11.5213 48 1 37.4787 1 24.5L -1 24.5C -1 38.5833 10.4167 50 24.5 50L 24.5 48ZM 1 24.5C 1 11.5213 11.5213 1 24.5 1L 24.5 -1C 10.4167 -1 -1 10.4167 -1 24.5L 1 24.5ZM 24.5 1C 37.4787 1 48 11.5213 48 24.5L 50 24.5C 50 10.4167 38.5833 -1 24.5 -1L 24.5 1Z"/>
<path id="path24_fill" d="M 57 28.5C 57 44.2401 44.2401 57 28.5 57C 12.7599 57 0 44.2401 0 28.5C 0 12.7599 12.7599 0 28.5 0C 44.2401 0 57 12.7599 57 28.5Z"/>
<path id="path25_stroke_2x" d="M 56.5 28.5C 56.5 43.964 43.964 56.5 28.5 56.5L 28.5 57.5C 44.5163 57.5 57.5 44.5163 57.5 28.5L 56.5 28.5ZM 28.5 56.5C 13.036 56.5 0.5 43.964 0.5 28.5L -0.5 28.5C -0.5 44.5163 12.4837 57.5 28.5 57.5L 28.5 56.5ZM 0.5 28.5C 0.5 13.036 13.036 0.5 28.5 0.5L 28.5 -0.5C 12.4837 -0.5 -0.5 12.4837 -0.5 28.5L 0.5 28.5ZM 28.5 0.5C 43.964 0.5 56.5 13.036 56.5 28.5L 57.5 28.5C 57.5 12.4837 44.5163 -0.5 28.5 -0.5L 28.5 0.5Z"/>
<path id="path26_fill" d="M 9.08789 11.542C 9.08789 13.4463 8.7627 14.8613 8.1123 15.7871C 7.46191 16.7129 6.44531 17.1758 5.0625 17.1758C 3.69727 17.1758 2.68652 16.7246 2.03027 15.8223C 1.37402 14.9141 1.03418 13.5605 1.01074 11.7617L 1.01074 9.59082C 1.01074 7.70996 1.33594 6.3125 1.98633 5.39844C 2.63672 4.48438 3.65625 4.02734 5.04492 4.02734C 6.42188 4.02734 7.43555 4.46973 8.08594 5.35449C 8.73633 6.2334 9.07031 7.59277 9.08789 9.43262L 9.08789 11.542ZM 7.46191 9.31836C 7.46191 7.94141 7.26855 6.93945 6.88184 6.3125C 6.49512 5.67969 5.88281 5.36328 5.04492 5.36328C 4.21289 5.36328 3.60645 5.67676 3.22559 6.30371C 2.84473 6.93066 2.64844 7.89453 2.63672 9.19531L 2.63672 11.7969C 2.63672 13.1797 2.83594 14.2021 3.23438 14.8643C 3.63867 15.5205 4.24805 15.8486 5.0625 15.8486C 5.86523 15.8486 6.45996 15.5381 6.84668 14.917C 7.23926 14.2959 7.44434 13.3174 7.46191 11.9814L 7.46191 9.31836ZM 11.373 16.1475C 11.373 15.8662 11.4551 15.6318 11.6191 15.4443C 11.7891 15.2568 12.041 15.1631 12.375 15.1631C 12.709 15.1631 12.9609 15.2568 13.1309 15.4443C 13.3066 15.6318 13.3945 15.8662 13.3945 16.1475C 13.3945 16.417 13.3066 16.6426 13.1309 16.8242C 12.9609 17.0059 12.709 17.0967 12.375 17.0967C 12.041 17.0967 11.7891 17.0059 11.6191 16.8242C 11.4551 16.6426 11.373 16.417 11.373 16.1475ZM 22.1484 11.375C 21.8086 11.7793 21.4014 12.1045 20.9268 12.3506C 20.458 12.5967 19.9424 12.7197 19.3799 12.7197C 18.6416 12.7197 17.9971 12.5381 17.4463 12.1748C 16.9014 11.8115 16.4795 11.3018 16.1807 10.6455C 15.8818 9.9834 15.7324 9.25391 15.7324 8.45703C 15.7324 7.60156 15.8936 6.83105 16.2158 6.14551C 16.5439 5.45996 17.0068 4.93555 17.6045 4.57227C 18.2021 4.20898 18.8994 4.02734 19.6963 4.02734C 20.9619 4.02734 21.958 4.50195 22.6846 5.45117C 23.417 6.39453 23.7832 7.68359 23.7832 9.31836L 23.7832 9.79297C 23.7832 12.2832 23.291 14.1025 22.3066 15.251C 21.3223 16.3936 19.8369 16.9795 17.8506 17.0088L 17.5342 17.0088L 17.5342 15.6377L 17.877 15.6377C 19.2187 15.6143 20.25 15.2656 20.9707 14.5918C 21.6914 13.9121 22.084 12.8398 22.1484 11.375ZM 19.6436 11.375C 20.1885 11.375 20.6895 11.208 21.1465 10.874C 21.6094 10.54 21.9463 10.127 22.1572 9.63477L 22.1572 8.98438C 22.1572 7.91797 21.9258 7.05078 21.4629 6.38281C 21 5.71484 20.4141 5.38086 19.7051 5.38086C 18.9902 5.38086 18.416 5.65625 17.9824 6.20703C 17.5488 6.75195 17.332 7.47266 17.332 8.36914C 17.332 9.24219 17.54 9.96289 17.9561 10.5312C 18.3779 11.0938 18.9404 11.375 19.6436 11.375Z"/>
<path id="path27_fill" d="M 9.08789 11.542C 9.08789 13.4463 8.7627 14.8613 8.1123 15.7871C 7.46191 16.7129 6.44531 17.1758 5.0625 17.1758C 3.69727 17.1758 2.68652 16.7246 2.03027 15.8223C 1.37402 14.9141 1.03418 13.5605 1.01074 11.7617L 1.01074 9.59082C 1.01074 7.70996 1.33594 6.3125 1.98633 5.39844C 2.63672 4.48438 3.65625 4.02734 5.04492 4.02734C 6.42188 4.02734 7.43555 4.46973 8.08594 5.35449C 8.73633 6.2334 9.07031 7.59277 9.08789 9.43262L 9.08789 11.542ZM 7.46191 9.31836C 7.46191 7.94141 7.26855 6.93945 6.88184 6.3125C 6.49512 5.67969 5.88281 5.36328 5.04492 5.36328C 4.21289 5.36328 3.60645 5.67676 3.22559 6.30371C 2.84473 6.93066 2.64844 7.89453 2.63672 9.19531L 2.63672 11.7969C 2.63672 13.1797 2.83594 14.2021 3.23438 14.8643C 3.63867 15.5205 4.24805 15.8486 5.0625 15.8486C 5.86523 15.8486 6.45996 15.5381 6.84668 14.917C 7.23926 14.2959 7.44434 13.3174 7.46191 11.9814L 7.46191 9.31836ZM 11.373 16.1475C 11.373 15.8662 11.4551 15.6318 11.6191 15.4443C 11.7891 15.2568 12.041 15.1631 12.375 15.1631C 12.709 15.1631 12.9609 15.2568 13.1309 15.4443C 13.3066 15.6318 13.3945 15.8662 13.3945 16.1475C 13.3945 16.417 13.3066 16.6426 13.1309 16.8242C 12.9609 17.0059 12.709 17.0967 12.375 17.0967C 12.041 17.0967 11.7891 17.0059 11.6191 16.8242C 11.4551 16.6426 11.373 16.417 11.373 16.1475ZM 24.1787 5.11719L 18.8789 17L 17.1738 17L 22.4561 5.53906L 15.5303 5.53906L 15.5303 4.20312L 24.1787 4.20312L 24.1787 5.11719Z"/>
<path id="path28_fill" d="M 9.08789 11.542C 9.08789 13.4463 8.7627 14.8613 8.1123 15.7871C 7.46191 16.7129 6.44531 17.1758 5.0625 17.1758C 3.69727 17.1758 2.68652 16.7246 2.03027 15.8223C 1.37402 14.9141 1.03418 13.5605 1.01074 11.7617L 1.01074 9.59082C 1.01074 7.70996 1.33594 6.3125 1.98633 5.39844C 2.63672 4.48438 3.65625 4.02734 5.04492 4.02734C 6.42188 4.02734 7.43555 4.46973 8.08594 5.35449C 8.73633 6.2334 9.07031 7.59277 9.08789 9.43262L 9.08789 11.542ZM 7.46191 9.31836C 7.46191 7.94141 7.26855 6.93945 6.88184 6.3125C 6.49512 5.67969 5.88281 5.36328 5.04492 5.36328C 4.21289 5.36328 3.60645 5.67676 3.22559 6.30371C 2.84473 6.93066 2.64844 7.89453 2.63672 9.19531L 2.63672 11.7969C 2.63672 13.1797 2.83594 14.2021 3.23438 14.8643C 3.63867 15.5205 4.24805 15.8486 5.0625 15.8486C 5.86523 15.8486 6.45996 15.5381 6.84668 14.917C 7.23926 14.2959 7.44434 13.3174 7.46191 11.9814L 7.46191 9.31836ZM 11.373 16.1475C 11.373 15.8662 11.4551 15.6318 11.6191 15.4443C 11.7891 15.2568 12.041 15.1631 12.375 15.1631C 12.709 15.1631 12.9609 15.2568 13.1309 15.4443C 13.3066 15.6318 13.3945 15.8662 13.3945 16.1475C 13.3945 16.417 13.3066 16.6426 13.1309 16.8242C 12.9609 17.0059 12.709 17.0967 12.375 17.0967C 12.041 17.0967 11.7891 17.0059 11.6191 16.8242C 11.4551 16.6426 11.373 16.417 11.373 16.1475ZM 16.6641 10.584L 17.3145 4.20312L 23.8711 4.20312L 23.8711 5.70605L 18.6943 5.70605L 18.3076 9.19531C 18.9346 8.82617 19.6465 8.6416 20.4434 8.6416C 21.6094 8.6416 22.5352 9.02832 23.2207 9.80176C 23.9062 10.5693 24.249 11.6094 24.249 12.9219C 24.249 14.2402 23.8916 15.2803 23.1768 16.042C 22.4678 16.7979 21.4746 17.1758 20.1973 17.1758C 19.0664 17.1758 18.1436 16.8623 17.4287 16.2354C 16.7139 15.6084 16.3066 14.7412 16.207 13.6338L 17.7451 13.6338C 17.8447 14.3662 18.1055 14.9199 18.5273 15.2949C 18.9492 15.6641 19.5059 15.8486 20.1973 15.8486C 20.9531 15.8486 21.5449 15.5908 21.9727 15.0752C 22.4062 14.5596 22.623 13.8477 22.623 12.9395C 22.623 12.084 22.3887 11.3984 21.9199 10.8828C 21.457 10.3613 20.8389 10.1006 20.0654 10.1006C 19.3564 10.1006 18.7998 10.2559 18.3955 10.5664L 17.9648 10.918L 16.6641 10.584Z"/>
<path id="path29_stroke" d="M 44.3536 0.353553C 44.5488 0.158291 44.5488 -0.158291 44.3536 -0.353553L 41.1716 -3.53553C 40.9763 -3.7308 40.6597 -3.7308 40.4645 -3.53553C 40.2692 -3.34027 40.2692 -3.02369 40.4645 -2.82843L 43.2929 0L 40.4645 2.82843C 40.2692 3.02369 40.2692 3.34027 40.4645 3.53553C 40.6597 3.7308 40.9763 3.7308 41.1716 3.53553L 44.3536 0.353553ZM 0 0.5L 44 0.5L 44 -0.5L 0 -0.5L 0 0.5Z"/>
<path id="path30_fill" d="M 3.40625 17L 1.71875 17L 1.71875 4.20312L 3.40625 4.20312L 3.40625 17ZM 6.18359 11.8057C 6.18359 10.4814 6.35938 9.20996 6.71094 7.99121C 7.06836 6.77246 7.59863 5.66504 8.30176 4.66895C 9.00488 3.67285 9.73438 2.96973 10.4902 2.55957L 10.8242 3.63184C 9.96875 4.28809 9.26562 5.29004 8.71484 6.6377C 8.16992 7.98535 7.87109 9.49414 7.81836 11.1641L 7.80957 11.9111C 7.80957 14.1729 8.22266 16.1357 9.04883 17.7998C 9.54688 18.7959 10.1387 19.5752 10.8242 20.1377L 10.4902 21.1309C 9.71094 20.6973 8.9668 19.9707 8.25781 18.9512C 6.875 16.959 6.18359 14.5771 6.18359 11.8057ZM 20.6152 11.8936C 20.6152 13.2002 20.4424 14.4541 20.0967 15.6553C 19.7568 16.8506 19.2324 17.9551 18.5234 18.9688C 17.8203 19.9824 17.082 20.7031 16.3086 21.1309L 15.9658 20.1377C 16.8682 19.4463 17.5918 18.374 18.1367 16.9209C 18.6875 15.4619 18.9687 13.8447 18.9805 12.0693L 18.9805 11.7881C 18.9805 10.5576 18.8516 9.41504 18.5938 8.36035C 18.3359 7.29981 17.9756 6.35059 17.5127 5.5127C 17.0557 4.6748 16.54 4.02148 15.9658 3.55273L 16.3086 2.55957C 17.082 2.9873 17.8174 3.70215 18.5146 4.7041C 19.2178 5.70605 19.7422 6.81055 20.0879 8.01758C 20.4395 9.22461 20.6152 10.5166 20.6152 11.8936Z"/>
<path id="path31_fill" d="M 5.21875 24L 2.78125 24L 2.78125 5.51562L 5.21875 5.51562L 5.21875 24Z"/>
<path id="path32_fill" d="M 2.30957 19.3428C 2.30957 17.1357 2.60254 15.0166 3.18848 12.9854C 3.78418 10.9541 4.66797 9.1084 5.83984 7.44824C 7.01172 5.78809 8.22754 4.61621 9.4873 3.93262L 10.0439 5.71973C 8.61816 6.81348 7.44629 8.4834 6.52832 10.7295C 5.62012 12.9756 5.12207 15.4902 5.03418 18.2734L 5.01953 19.5186C 5.01953 23.2881 5.70801 26.5596 7.08496 29.333C 7.91504 30.9932 8.90137 32.292 10.0439 33.2295L 9.4873 34.8848C 8.18848 34.1621 6.94824 32.9512 5.7666 31.252C 3.46191 27.9316 2.30957 23.9619 2.30957 19.3428ZM 197.515 19.4893C 197.515 21.667 197.227 23.7568 196.65 25.7588C 196.084 27.751 195.21 29.5918 194.028 31.2812C 192.856 32.9707 191.626 34.1719 190.337 34.8848L 189.766 33.2295C 191.27 32.0771 192.476 30.29 193.384 27.8682C 194.302 25.4365 194.771 22.7412 194.79 19.7822L 194.79 19.3135C 194.79 17.2627 194.575 15.3584 194.146 13.6006C 193.716 11.833 193.115 10.251 192.344 8.85449C 191.582 7.45801 190.723 6.36914 189.766 5.58789L 190.337 3.93262C 191.626 4.64551 192.852 5.83691 194.014 7.50684C 195.186 9.17676 196.06 11.0176 196.636 13.0293C 197.222 15.041 197.515 17.1943 197.515 19.4893Z"/>
<path id="path33_fill" d="M 3.07812 13.7734L 8.46875 13.7734L 8.46875 15L 1.57031 15L 1.57031 3.625L 3.07812 3.625L 3.07812 13.7734ZM 11.5234 15L 10.0781 15L 10.0781 6.54688L 11.5234 6.54688L 11.5234 15ZM 9.96094 4.30469C 9.96094 4.07031 10.0312 3.8724 10.1719 3.71094C 10.3177 3.54948 10.5312 3.46875 10.8125 3.46875C 11.0938 3.46875 11.3073 3.54948 11.4531 3.71094C 11.599 3.8724 11.6719 4.07031 11.6719 4.30469C 11.6719 4.53906 11.599 4.73438 11.4531 4.89062C 11.3073 5.04688 11.0938 5.125 10.8125 5.125C 10.5312 5.125 10.3177 5.04688 10.1719 4.89062C 10.0312 4.73438 9.96094 4.53906 9.96094 4.30469ZM 15.2109 6.54688L 15.2578 7.60938C 15.9036 6.79688 16.7474 6.39062 17.7891 6.39062C 19.5755 6.39062 20.4766 7.39844 20.4922 9.41406L 20.4922 15L 19.0469 15L 19.0469 9.40625C 19.0417 8.79688 18.901 8.34635 18.625 8.05469C 18.3542 7.76302 17.9297 7.61719 17.3516 7.61719C 16.8828 7.61719 16.4714 7.74219 16.1172 7.99219C 15.763 8.24219 15.487 8.57031 15.2891 8.97656L 15.2891 15L 13.8438 15L 13.8438 6.54688L 15.2109 6.54688ZM 26.1797 15.1562C 25.0339 15.1562 24.1016 14.7812 23.3828 14.0312C 22.6641 13.276 22.3047 12.2682 22.3047 11.0078L 22.3047 10.7422C 22.3047 9.90365 22.4635 9.15625 22.7812 8.5C 23.1042 7.83854 23.5521 7.32292 24.125 6.95312C 24.7031 6.57812 25.3281 6.39062 26 6.39062C 27.099 6.39062 27.9531 6.7526 28.5625 7.47656C 29.1719 8.20052 29.4766 9.23698 29.4766 10.5859L 29.4766 11.1875L 23.75 11.1875C 23.7708 12.0208 24.013 12.6953 24.4766 13.2109C 24.9453 13.7214 25.5391 13.9766 26.2578 13.9766C 26.7682 13.9766 27.2005 13.8724 27.5547 13.6641C 27.9089 13.4557 28.2188 13.1797 28.4844 12.8359L 29.3672 13.5234C 28.6589 14.612 27.5964 15.1562 26.1797 15.1562ZM 26 7.57812C 25.4167 7.57812 24.9271 7.79167 24.5312 8.21875C 24.1354 8.64062 23.8906 9.23438 23.7969 10L 28.0312 10L 28.0312 9.89062C 27.9896 9.15625 27.7917 8.58854 27.4375 8.1875C 27.0833 7.78125 26.6042 7.57812 26 7.57812ZM 36.375 15C 36.2917 14.8333 36.224 14.5365 36.1719 14.1094C 35.5 14.8073 34.6979 15.1562 33.7656 15.1562C 32.9323 15.1562 32.2474 14.9219 31.7109 14.4531C 31.1797 13.9792 30.9141 13.3802 30.9141 12.6562C 30.9141 11.776 31.2474 11.0938 31.9141 10.6094C 32.5859 10.1198 33.5286 9.875 34.7422 9.875L 36.1484 9.875L 36.1484 9.21094C 36.1484 8.70573 35.9974 8.30469 35.6953 8.00781C 35.3932 7.70573 34.9479 7.55469 34.3594 7.55469C 33.8438 7.55469 33.4115 7.6849 33.0625 7.94531C 32.7135 8.20573 32.5391 8.52083 32.5391 8.89062L 31.0859 8.89062C 31.0859 8.46875 31.2344 8.0625 31.5312 7.67188C 31.8333 7.27604 32.2396 6.96354 32.75 6.73438C 33.2656 6.50521 33.8307 6.39062 34.4453 6.39062C 35.4193 6.39062 36.1823 6.63542 36.7344 7.125C 37.2865 7.60938 37.5729 8.27865 37.5938 9.13281L 37.5938 13.0234C 37.5938 13.7995 37.6927 14.4167 37.8906 14.875L 37.8906 15L 36.375 15ZM 33.9766 13.8984C 34.4297 13.8984 34.8594 13.7812 35.2656 13.5469C 35.6719 13.3125 35.9661 13.0078 36.1484 12.6328L 36.1484 10.8984L 35.0156 10.8984C 33.2448 10.8984 32.3594 11.4167 32.3594 12.4531C 32.3594 12.9062 32.5104 13.2604 32.8125 13.5156C 33.1146 13.7708 33.5026 13.8984 33.9766 13.8984ZM 43.9453 7.84375C 43.7266 7.80729 43.4896 7.78906 43.2344 7.78906C 42.2865 7.78906 41.6432 8.19271 41.3047 9L 41.3047 15L 39.8594 15L 39.8594 6.54688L 41.2656 6.54688L 41.2891 7.52344C 41.763 6.76823 42.4349 6.39062 43.3047 6.39062C 43.5859 6.39062 43.7995 6.42708 43.9453 6.5L 43.9453 7.84375ZM 55.7578 12.0312L 50.9922 12.0312L 49.9219 15L 48.375 15L 52.7188 3.625L 54.0312 3.625L 58.3828 15L 56.8438 15L 55.7578 12.0312ZM 51.4453 10.7969L 55.3125 10.7969L 53.375 5.47656L 51.4453 10.7969ZM 61.2578 15L 59.8125 15L 59.8125 3L 61.2578 3L 61.2578 15ZM 63.2344 10.7031C 63.2344 9.38542 63.5391 8.33854 64.1484 7.5625C 64.7578 6.78125 65.5651 6.39062 66.5703 6.39062C 67.6016 6.39062 68.4062 6.75521 68.9844 7.48438L 69.0547 6.54688L 70.375 6.54688L 70.375 14.7969C 70.375 15.8906 70.0495 16.7526 69.3984 17.3828C 68.7526 18.013 67.8828 18.3281 66.7891 18.3281C 66.1797 18.3281 65.5833 18.1979 65 17.9375C 64.4167 17.6771 63.9714 17.3203 63.6641 16.8672L 64.4141 16C 65.0339 16.7656 65.7917 17.1484 66.6875 17.1484C 67.3906 17.1484 67.9375 16.9505 68.3281 16.5547C 68.724 16.1589 68.9219 15.6016 68.9219 14.8828L 68.9219 14.1562C 68.3438 14.8229 67.5547 15.1562 66.5547 15.1562C 65.5651 15.1562 64.763 14.7578 64.1484 13.9609C 63.5391 13.1641 63.2344 12.0781 63.2344 10.7031ZM 64.6875 10.8672C 64.6875 11.8203 64.8828 12.5703 65.2734 13.1172C 65.6641 13.6589 66.2109 13.9297 66.9141 13.9297C 67.8255 13.9297 68.4948 13.5156 68.9219 12.6875L 68.9219 8.82812C 68.4792 8.02083 67.8151 7.61719 66.9297 7.61719C 66.2266 7.61719 65.6771 7.89062 65.2812 8.4375C 64.8854 8.98438 64.6875 9.79427 64.6875 10.8672ZM 76.0703 15.1562C 74.9245 15.1562 73.9922 14.7812 73.2734 14.0312C 72.5547 13.276 72.1953 12.2682 72.1953 11.0078L 72.1953 10.7422C 72.1953 9.90365 72.3542 9.15625 72.6719 8.5C 72.9948 7.83854 73.4427 7.32292 74.0156 6.95312C 74.5938 6.57812 75.2188 6.39062 75.8906 6.39062C 76.9896 6.39062 77.8438 6.7526 78.4531 7.47656C 79.0625 8.20052 79.3672 9.23698 79.3672 10.5859L 79.3672 11.1875L 73.6406 11.1875C 73.6615 12.0208 73.9036 12.6953 74.3672 13.2109C 74.8359 13.7214 75.4297 13.9766 76.1484 13.9766C 76.6589 13.9766 77.0911 13.8724 77.4453 13.6641C 77.7995 13.4557 78.1094 13.1797 78.375 12.8359L 79.2578 13.5234C 78.5495 14.612 77.487 15.1562 76.0703 15.1562ZM 75.8906 7.57812C 75.3073 7.57812 74.8177 7.79167 74.4219 8.21875C 74.026 8.64062 73.7812 9.23438 73.6875 10L 77.9219 10L 77.9219 9.89062C 77.8802 9.15625 77.6823 8.58854 77.3281 8.1875C 76.974 7.78125 76.4948 7.57812 75.8906 7.57812ZM 88.2031 10.8672C 88.2031 12.1589 87.9062 13.1979 87.3125 13.9844C 86.7188 14.7656 85.9219 15.1562 84.9219 15.1562C 83.8542 15.1562 83.0286 14.7786 82.4453 14.0234L 82.375 15L 81.0469 15L 81.0469 3L 82.4922 3L 82.4922 7.47656C 83.0755 6.7526 83.8802 6.39062 84.9062 6.39062C 85.9323 6.39062 86.737 6.77865 87.3203 7.55469C 87.9089 8.33073 88.2031 9.39323 88.2031 10.7422L 88.2031 10.8672ZM 86.7578 10.7031C 86.7578 9.71875 86.5677 8.95833 86.1875 8.42188C 85.8073 7.88542 85.2604 7.61719 84.5469 7.61719C 83.5938 7.61719 82.9089 8.0599 82.4922 8.94531L 82.4922 12.6016C 82.9349 13.487 83.625 13.9297 84.5625 13.9297C 85.2552 13.9297 85.7943 13.6615 86.1797 13.125C 86.5651 12.5885 86.7578 11.7812 86.7578 10.7031ZM 94.1172 7.84375C 93.8984 7.80729 93.6615 7.78906 93.4062 7.78906C 92.4583 7.78906 91.8151 8.19271 91.4766 9L 91.4766 15L 90.0312 15L 90.0312 6.54688L 91.4375 6.54688L 91.4609 7.52344C 91.9349 6.76823 92.6068 6.39062 93.4766 6.39062C 93.7578 6.39062 93.9714 6.42708 94.1172 6.5L 94.1172 7.84375ZM 100.359 15C 100.276 14.8333 100.208 14.5365 100.156 14.1094C 99.4844 14.8073 98.6823 15.1562 97.75 15.1562C 96.9167 15.1562 96.2318 14.9219 95.6953 14.4531C 95.1641 13.9792 94.8984 13.3802 94.8984 12.6562C 94.8984 11.776 95.2318 11.0938 95.8984 10.6094C 96.5703 10.1198 97.513 9.875 98.7266 9.875L 100.133 9.875L 100.133 9.21094C 100.133 8.70573 99.9818 8.30469 99.6797 8.00781C 99.3776 7.70573 98.9323 7.55469 98.3438 7.55469C 97.8281 7.55469 97.3958 7.6849 97.0469 7.94531C 96.6979 8.20573 96.5234 8.52083 96.5234 8.89062L 95.0703 8.89062C 95.0703 8.46875 95.2188 8.0625 95.5156 7.67188C 95.8177 7.27604 96.224 6.96354 96.7344 6.73438C 97.25 6.50521 97.8151 6.39062 98.4297 6.39062C 99.4036 6.39062 100.167 6.63542 100.719 7.125C 101.271 7.60938 101.557 8.27865 101.578 9.13281L 101.578 13.0234C 101.578 13.7995 101.677 14.4167 101.875 14.875L 101.875 15L 100.359 15ZM 97.9609 13.8984C 98.4141 13.8984 98.8438 13.7812 99.25 13.5469C 99.6562 13.3125 99.9505 13.0078 100.133 12.6328L 100.133 10.8984L 99 10.8984C 97.2292 10.8984 96.3438 11.4167 96.3438 12.4531C 96.3438 12.9062 96.4948 13.2604 96.7969 13.5156C 97.099 13.7708 97.487 13.8984 97.9609 13.8984Z"/>
<path id="path34_fill" d="M 10.4609 15L 8.95312 15L 3.22656 6.23438L 3.22656 15L 1.71875 15L 1.71875 3.625L 3.22656 3.625L 8.96875 12.4297L 8.96875 3.625L 10.4609 3.625L 10.4609 15ZM 16.4062 15.1562C 15.2604 15.1562 14.3281 14.7812 13.6094 14.0312C 12.8906 13.276 12.5312 12.2682 12.5312 11.0078L 12.5312 10.7422C 12.5312 9.90365 12.6901 9.15625 13.0078 8.5C 13.3307 7.83854 13.7786 7.32292 14.3516 6.95312C 14.9297 6.57812 15.5547 6.39062 16.2266 6.39062C 17.3255 6.39062 18.1797 6.7526 18.7891 7.47656C 19.3984 8.20052 19.7031 9.23698 19.7031 10.5859L 19.7031 11.1875L 13.9766 11.1875C 13.9974 12.0208 14.2396 12.6953 14.7031 13.2109C 15.1719 13.7214 15.7656 13.9766 16.4844 13.9766C 16.9948 13.9766 17.4271 13.8724 17.7812 13.6641C 18.1354 13.4557 18.4453 13.1797 18.7109 12.8359L 19.5938 13.5234C 18.8854 14.612 17.8229 15.1562 16.4062 15.1562ZM 16.2266 7.57812C 15.6432 7.57812 15.1536 7.79167 14.7578 8.21875C 14.362 8.64062 14.1172 9.23438 14.0234 10L 18.2578 10L 18.2578 9.89062C 18.2161 9.15625 18.0182 8.58854 17.6641 8.1875C 17.3099 7.78125 16.8307 7.57812 16.2266 7.57812ZM 26.6016 14.1641C 26.0391 14.8255 25.2135 15.1562 24.125 15.1562C 23.224 15.1562 22.5365 14.8958 22.0625 14.375C 21.5938 13.849 21.3568 13.0729 21.3516 12.0469L 21.3516 6.54688L 22.7969 6.54688L 22.7969 12.0078C 22.7969 13.2891 23.3177 13.9297 24.3594 13.9297C 25.4635 13.9297 26.1979 13.5182 26.5625 12.6953L 26.5625 6.54688L 28.0078 6.54688L 28.0078 15L 26.6328 15L 26.6016 14.1641ZM 34.2969 7.84375C 34.0781 7.80729 33.8411 7.78906 33.5859 7.78906C 32.638 7.78906 31.9948 8.19271 31.6562 9L 31.6562 15L 30.2109 15L 30.2109 6.54688L 31.6172 6.54688L 31.6406 7.52344C 32.1146 6.76823 32.7865 6.39062 33.6562 6.39062C 33.9375 6.39062 34.151 6.42708 34.2969 6.5L 34.2969 7.84375ZM 40.5391 15C 40.4557 14.8333 40.388 14.5365 40.3359 14.1094C 39.6641 14.8073 38.862 15.1562 37.9297 15.1562C 37.0964 15.1562 36.4115 14.9219 35.875 14.4531C 35.3438 13.9792 35.0781 13.3802 35.0781 12.6562C 35.0781 11.776 35.4115 11.0938 36.0781 10.6094C 36.75 10.1198 37.6927 9.875 38.9062 9.875L 40.3125 9.875L 40.3125 9.21094C 40.3125 8.70573 40.1615 8.30469 39.8594 8.00781C 39.5573 7.70573 39.112 7.55469 38.5234 7.55469C 38.0078 7.55469 37.5755 7.6849 37.2266 7.94531C 36.8776 8.20573 36.7031 8.52083 36.7031 8.89062L 35.25 8.89062C 35.25 8.46875 35.3984 8.0625 35.6953 7.67188C 35.9974 7.27604 36.4036 6.96354 36.9141 6.73438C 37.4297 6.50521 37.9948 6.39062 38.6094 6.39062C 39.5833 6.39062 40.3464 6.63542 40.8984 7.125C 41.4505 7.60938 41.737 8.27865 41.7578 9.13281L 41.7578 13.0234C 41.7578 13.7995 41.8568 14.4167 42.0547 14.875L 42.0547 15L 40.5391 15ZM 38.1406 13.8984C 38.5938 13.8984 39.0234 13.7812 39.4297 13.5469C 39.8359 13.3125 40.1302 13.0078 40.3125 12.6328L 40.3125 10.8984L 39.1797 10.8984C 37.4089 10.8984 36.5234 11.4167 36.5234 12.4531C 36.5234 12.9062 36.6745 13.2604 36.9766 13.5156C 37.2786 13.7708 37.6667 13.8984 38.1406 13.8984ZM 45.5938 15L 44.1484 15L 44.1484 3L 45.5938 3L 45.5938 15ZM 60.8516 15L 59.3438 15L 53.6172 6.23438L 53.6172 15L 52.1094 15L 52.1094 3.625L 53.6172 3.625L 59.3594 12.4297L 59.3594 3.625L 60.8516 3.625L 60.8516 15ZM 66.7969 15.1562C 65.651 15.1562 64.7188 14.7812 64 14.0312C 63.2812 13.276 62.9219 12.2682 62.9219 11.0078L 62.9219 10.7422C 62.9219 9.90365 63.0807 9.15625 63.3984 8.5C 63.7214 7.83854 64.1693 7.32292 64.7422 6.95312C 65.3203 6.57812 65.9453 6.39062 66.6172 6.39062C 67.7161 6.39062 68.5703 6.7526 69.1797 7.47656C 69.7891 8.20052 70.0938 9.23698 70.0938 10.5859L 70.0938 11.1875L 64.3672 11.1875C 64.388 12.0208 64.6302 12.6953 65.0938 13.2109C 65.5625 13.7214 66.1562 13.9766 66.875 13.9766C 67.3854 13.9766 67.8177 13.8724 68.1719 13.6641C 68.526 13.4557 68.8359 13.1797 69.1016 12.8359L 69.9844 13.5234C 69.276 14.612 68.2135 15.1562 66.7969 15.1562ZM 66.6172 7.57812C 66.0339 7.57812 65.5443 7.79167 65.1484 8.21875C 64.7526 8.64062 64.5078 9.23438 64.4141 10L 68.6484 10L 68.6484 9.89062C 68.6068 9.15625 68.4089 8.58854 68.0547 8.1875C 67.7005 7.78125 67.2214 7.57812 66.6172 7.57812ZM 73.7344 4.5L 73.7344 6.54688L 75.3125 6.54688L 75.3125 7.66406L 73.7344 7.66406L 73.7344 12.9062C 73.7344 13.2448 73.8047 13.5 73.9453 13.6719C 74.0859 13.8385 74.3255 13.9219 74.6641 13.9219C 74.8307 13.9219 75.0599 13.8906 75.3516 13.8281L 75.3516 15C 74.9714 15.1042 74.6016 15.1562 74.2422 15.1562C 73.5964 15.1562 73.1094 14.9609 72.7812 14.5703C 72.4531 14.1797 72.2891 13.625 72.2891 12.9062L 72.2891 7.66406L 70.75 7.66406L 70.75 6.54688L 72.2891 6.54688L 72.2891 4.5L 73.7344 4.5ZM 84.4922 13.0078L 86.1172 6.54688L 87.5625 6.54688L 85.1016 15L 83.9297 15L 81.875 8.59375L 79.875 15L 78.7031 15L 76.25 6.54688L 77.6875 6.54688L 79.3516 12.875L 81.3203 6.54688L 82.4844 6.54688L 84.4922 13.0078ZM 88.6562 10.6953C 88.6562 9.86719 88.8177 9.1224 89.1406 8.46094C 89.4688 7.79948 89.9219 7.28906 90.5 6.92969C 91.0833 6.57031 91.7474 6.39062 92.4922 6.39062C 93.6432 6.39062 94.5729 6.78906 95.2812 7.58594C 95.9948 8.38281 96.3516 9.44271 96.3516 10.7656L 96.3516 10.8672C 96.3516 11.6901 96.1927 12.4297 95.875 13.0859C 95.5625 13.737 95.112 14.2448 94.5234 14.6094C 93.9401 14.974 93.2682 15.1562 92.5078 15.1562C 91.362 15.1562 90.4323 14.7578 89.7188 13.9609C 89.0104 13.1641 88.6562 12.1094 88.6562 10.7969L 88.6562 10.6953ZM 90.1094 10.8672C 90.1094 11.8047 90.3255 12.5573 90.7578 13.125C 91.1953 13.6927 91.7786 13.9766 92.5078 13.9766C 93.2422 13.9766 93.8255 13.6901 94.2578 13.1172C 94.6901 12.5391 94.9062 11.7318 94.9062 10.6953C 94.9062 9.76823 94.6849 9.01823 94.2422 8.44531C 93.8047 7.86719 93.2214 7.57812 92.4922 7.57812C 91.7786 7.57812 91.2031 7.86198 90.7656 8.42969C 90.3281 8.9974 90.1094 9.8099 90.1094 10.8672ZM 102.25 7.84375C 102.031 7.80729 101.794 7.78906 101.539 7.78906C 100.591 7.78906 99.9479 8.19271 99.6094 9L 99.6094 15L 98.1641 15L 98.1641 6.54688L 99.5703 6.54688L 99.5938 7.52344C 100.068 6.76823 100.74 6.39062 101.609 6.39062C 101.891 6.39062 102.104 6.42708 102.25 6.5L 102.25 7.84375ZM 105.945 11.0859L 105.039 12.0312L 105.039 15L 103.594 15L 103.594 3L 105.039 3L 105.039 10.2578L 105.812 9.32812L 108.445 6.54688L 110.203 6.54688L 106.914 10.0781L 110.586 15L 108.891 15L 105.945 11.0859Z"/>
<path id="path35_fill" d="M 4.40234 11L 3.3125 11L 3.3125 3.77539L 1.12695 4.57812L 1.12695 3.59375L 4.23242 2.42773L 4.40234 2.42773L 4.40234 11ZM 4.40234 25L 3.3125 25L 3.3125 17.7754L 1.12695 18.5781L 1.12695 17.5938L 4.23242 16.4277L 4.40234 16.4277L 4.40234 25ZM 4.40234 39L 3.3125 39L 3.3125 31.7754L 1.12695 32.5781L 1.12695 31.5938L 4.23242 30.4277L 4.40234 30.4277L 4.40234 39Z"/>
<path id="path36_fill" d="M 6.47852 11L 0.888672 11L 0.888672 10.2207L 3.8418 6.93945C 4.2793 6.44336 4.58008 6.04102 4.74414 5.73242C 4.91211 5.41992 4.99609 5.09766 4.99609 4.76562C 4.99609 4.32031 4.86133 3.95508 4.5918 3.66992C 4.32227 3.38477 3.96289 3.24219 3.51367 3.24219C 2.97461 3.24219 2.55469 3.39648 2.25391 3.70508C 1.95703 4.00977 1.80859 4.43555 1.80859 4.98242L 0.724609 4.98242C 0.724609 4.19727 0.976562 3.5625 1.48047 3.07812C 1.98828 2.59375 2.66602 2.35156 3.51367 2.35156C 4.30664 2.35156 4.93359 2.56055 5.39453 2.97852C 5.85547 3.39258 6.08594 3.94531 6.08594 4.63672C 6.08594 5.47656 5.55078 6.47656 4.48047 7.63672L 2.19531 10.1152L 6.47852 10.1152L 6.47852 11ZM 7.76172 10.4316C 7.76172 10.2441 7.81641 10.0879 7.92578 9.96289C 8.03906 9.83789 8.20703 9.77539 8.42969 9.77539C 8.65234 9.77539 8.82031 9.83789 8.93359 9.96289C 9.05078 10.0879 9.10938 10.2441 9.10938 10.4316C 9.10938 10.6113 9.05078 10.7617 8.93359 10.8828C 8.82031 11.0039 8.65234 11.0645 8.42969 11.0645C 8.20703 11.0645 8.03906 11.0039 7.92578 10.8828C 7.81641 10.7617 7.76172 10.6113 7.76172 10.4316ZM 12.3672 6.20703L 13.1816 6.20703C 13.6934 6.19922 14.0957 6.06445 14.3887 5.80273C 14.6816 5.54102 14.8281 5.1875 14.8281 4.74219C 14.8281 3.74219 14.3301 3.24219 13.334 3.24219C 12.8652 3.24219 12.4902 3.37695 12.209 3.64648C 11.9316 3.91211 11.793 4.26562 11.793 4.70703L 10.709 4.70703C 10.709 4.03125 10.9551 3.4707 11.4473 3.02539C 11.9434 2.57617 12.5723 2.35156 13.334 2.35156C 14.1387 2.35156 14.7695 2.56445 15.2266 2.99023C 15.6836 3.41602 15.9121 4.00781 15.9121 4.76562C 15.9121 5.13672 15.791 5.49609 15.5488 5.84375C 15.3105 6.19141 14.9844 6.45117 14.5703 6.62305C 15.0391 6.77148 15.4004 7.01758 15.6543 7.36133C 15.9121 7.70508 16.041 8.125 16.041 8.62109C 16.041 9.38672 15.791 9.99414 15.291 10.4434C 14.791 10.8926 14.1406 11.1172 13.3398 11.1172C 12.5391 11.1172 11.8867 10.9004 11.3828 10.4668C 10.8828 10.0332 10.6328 9.46094 10.6328 8.75L 11.7227 8.75C 11.7227 9.19922 11.8691 9.55859 12.1621 9.82812C 12.4551 10.0977 12.8477 10.2324 13.3398 10.2324C 13.8633 10.2324 14.2637 10.0957 14.541 9.82227C 14.8184 9.54883 14.957 9.15625 14.957 8.64453C 14.957 8.14844 14.8047 7.76758 14.5 7.50195C 14.1953 7.23633 13.7559 7.09961 13.1816 7.0918L 12.3672 7.0918L 12.3672 6.20703ZM 2.46484 20.207L 3.2793 20.207C 3.79102 20.1992 4.19336 20.0645 4.48633 19.8027C 4.7793 19.541 4.92578 19.1875 4.92578 18.7422C 4.92578 17.7422 4.42773 17.2422 3.43164 17.2422C 2.96289 17.2422 2.58789 17.377 2.30664 17.6465C 2.0293 17.9121 1.89062 18.2656 1.89062 18.707L 0.806641 18.707C 0.806641 18.0312 1.05273 17.4707 1.54492 17.0254C 2.04102 16.5762 2.66992 16.3516 3.43164 16.3516C 4.23633 16.3516 4.86719 16.5645 5.32422 16.9902C 5.78125 17.416 6.00977 18.0078 6.00977 18.7656C 6.00977 19.1367 5.88867 19.4961 5.64648 19.8438C 5.4082 20.1914 5.08203 20.4512 4.66797 20.623C 5.13672 20.7715 5.49805 21.0176 5.75195 21.3613C 6.00977 21.7051 6.13867 22.125 6.13867 22.6211C 6.13867 23.3867 5.88867 23.9941 5.38867 24.4434C 4.88867 24.8926 4.23828 25.1172 3.4375 25.1172C 2.63672 25.1172 1.98438 24.9004 1.48047 24.4668C 0.980469 24.0332 0.730469 23.4609 0.730469 22.75L 1.82031 22.75C 1.82031 23.1992 1.9668 23.5586 2.25977 23.8281C 2.55273 24.0977 2.94531 24.2324 3.4375 24.2324C 3.96094 24.2324 4.36133 24.0957 4.63867 23.8223C 4.91602 23.5488 5.05469 23.1563 5.05469 22.6445C 5.05469 22.1484 4.90234 21.7676 4.59766 21.502C 4.29297 21.2363 3.85352 21.0996 3.2793 21.0918L 2.46484 21.0918L 2.46484 20.207ZM 7.76172 24.4316C 7.76172 24.2441 7.81641 24.0879 7.92578 23.9629C 8.03906 23.8379 8.20703 23.7754 8.42969 23.7754C 8.65234 23.7754 8.82031 23.8379 8.93359 23.9629C 9.05078 24.0879 9.10938 24.2441 9.10938 24.4316C 9.10938 24.6113 9.05078 24.7617 8.93359 24.8828C 8.82031 25.0039 8.65234 25.0645 8.42969 25.0645C 8.20703 25.0645 8.03906 25.0039 7.92578 24.8828C 7.81641 24.7617 7.76172 24.6113 7.76172 24.4316ZM 14.3535 25L 13.2637 25L 13.2637 17.7754L 11.0781 18.5781L 11.0781 17.5938L 14.1836 16.4277L 14.3535 16.4277L 14.3535 25ZM 4.45117 39L 3.36133 39L 3.36133 31.7754L 1.17578 32.5781L 1.17578 31.5938L 4.28125 30.4277L 4.45117 30.4277L 4.45117 39ZM 7.76172 38.4316C 7.76172 38.2441 7.81641 38.0879 7.92578 37.9629C 8.03906 37.8379 8.20703 37.7754 8.42969 37.7754C 8.65234 37.7754 8.82031 37.8379 8.93359 37.9629C 9.05078 38.0879 9.10938 38.2441 9.10938 38.4316C 9.10938 38.6113 9.05078 38.7617 8.93359 38.8828C 8.82031 39.0039 8.65234 39.0645 8.42969 39.0645C 8.20703 39.0645 8.03906 39.0039 7.92578 38.8828C 7.81641 38.7617 7.76172 38.6113 7.76172 38.4316ZM 14.3535 39L 13.2637 39L 13.2637 31.7754L 11.0781 32.5781L 11.0781 31.5938L 14.1836 30.4277L 14.3535 30.4277L 14.3535 39Z"/>
<path id="path37_fill" d="M 6.23828 7.36133C 6.23828 8.63086 6.02148 9.57422 5.58789 10.1914C 5.1543 10.8086 4.47656 11.1172 3.55469 11.1172C 2.64453 11.1172 1.9707 10.8164 1.5332 10.2148C 1.0957 9.60938 0.869141 8.70703 0.853516 7.50781L 0.853516 6.06055C 0.853516 4.80664 1.07031 3.875 1.50391 3.26562C 1.9375 2.65625 2.61719 2.35156 3.54297 2.35156C 4.46094 2.35156 5.13672 2.64648 5.57031 3.23633C 6.00391 3.82227 6.22656 4.72852 6.23828 5.95508L 6.23828 7.36133ZM 5.1543 5.87891C 5.1543 4.96094 5.02539 4.29297 4.76758 3.875C 4.50977 3.45312 4.10156 3.24219 3.54297 3.24219C 2.98828 3.24219 2.58398 3.45117 2.33008 3.86914C 2.07617 4.28711 1.94531 4.92969 1.9375 5.79688L 1.9375 7.53125C 1.9375 8.45313 2.07031 9.13477 2.33594 9.57617C 2.60547 10.0137 3.01172 10.2324 3.55469 10.2324C 4.08984 10.2324 4.48633 10.0254 4.74414 9.61133C 5.00586 9.19727 5.14258 8.54492 5.1543 7.6543L 5.1543 5.87891ZM 7.76172 10.4316C 7.76172 10.2441 7.81641 10.0879 7.92578 9.96289C 8.03906 9.83789 8.20703 9.77539 8.42969 9.77539C 8.65234 9.77539 8.82031 9.83789 8.93359 9.96289C 9.05078 10.0879 9.10938 10.2441 9.10938 10.4316C 9.10938 10.6113 9.05078 10.7617 8.93359 10.8828C 8.82031 11.0039 8.65234 11.0645 8.42969 11.0645C 8.20703 11.0645 8.03906 11.0039 7.92578 10.8828C 7.81641 10.7617 7.76172 10.6113 7.76172 10.4316ZM 16.3809 11L 10.791 11L 10.791 10.2207L 13.7441 6.93945C 14.1816 6.44336 14.4824 6.04102 14.6465 5.73242C 14.8145 5.41992 14.8984 5.09766 14.8984 4.76562C 14.8984 4.32031 14.7637 3.95508 14.4941 3.66992C 14.2246 3.38477 13.8652 3.24219 13.416 3.24219C 12.877 3.24219 12.457 3.39648 12.1562 3.70508C 11.8594 4.00977 11.7109 4.43555 11.7109 4.98242L 10.627 4.98242C 10.627 4.19727 10.8789 3.5625 11.3828 3.07812C 11.8906 2.59375 12.5684 2.35156 13.416 2.35156C 14.209 2.35156 14.8359 2.56055 15.2969 2.97852C 15.7578 3.39258 15.9883 3.94531 15.9883 4.63672C 15.9883 5.47656 15.4531 6.47656 14.3828 7.63672L 12.0977 10.1152L 16.3809 10.1152L 16.3809 11ZM 6.23828 21.3613C 6.23828 22.6309 6.02148 23.5742 5.58789 24.1914C 5.1543 24.8086 4.47656 25.1172 3.55469 25.1172C 2.64453 25.1172 1.9707 24.8164 1.5332 24.2148C 1.0957 23.6094 0.869141 22.707 0.853516 21.5078L 0.853516 20.0605C 0.853516 18.8066 1.07031 17.875 1.50391 17.2656C 1.9375 16.6562 2.61719 16.3516 3.54297 16.3516C 4.46094 16.3516 5.13672 16.6465 5.57031 17.2363C 6.00391 17.8223 6.22656 18.7285 6.23828 19.9551L 6.23828 21.3613ZM 5.1543 19.8789C 5.1543 18.9609 5.02539 18.293 4.76758 17.875C 4.50977 17.4531 4.10156 17.2422 3.54297 17.2422C 2.98828 17.2422 2.58398 17.4512 2.33008 17.8691C 2.07617 18.2871 1.94531 18.9297 1.9375 19.7969L 1.9375 21.5312C 1.9375 22.4531 2.07031 23.1348 2.33594 23.5762C 2.60547 24.0137 3.01172 24.2324 3.55469 24.2324C 4.08984 24.2324 4.48633 24.0254 4.74414 23.6113C 5.00586 23.1973 5.14258 22.5449 5.1543 21.6543L 5.1543 19.8789ZM 7.76172 24.4316C 7.76172 24.2441 7.81641 24.0879 7.92578 23.9629C 8.03906 23.8379 8.20703 23.7754 8.42969 23.7754C 8.65234 23.7754 8.82031 23.8379 8.93359 23.9629C 9.05078 24.0879 9.10938 24.2441 9.10938 24.4316C 9.10938 24.6113 9.05078 24.7617 8.93359 24.8828C 8.82031 25.0039 8.65234 25.0645 8.42969 25.0645C 8.20703 25.0645 8.03906 25.0039 7.92578 24.8828C 7.81641 24.7617 7.76172 24.6113 7.76172 24.4316ZM 14.9453 21.25C 14.7187 21.5195 14.4473 21.7363 14.1309 21.9004C 13.8184 22.0645 13.4746 22.1465 13.0996 22.1465C 12.6074 22.1465 12.1777 22.0254 11.8105 21.7832C 11.4473 21.541 11.166 21.2012 10.9668 20.7637C 10.7676 20.3223 10.668 19.8359 10.668 19.3047C 10.668 18.7344 10.7754 18.2207 10.9902 17.7637C 11.209 17.3066 11.5176 16.957 11.916 16.7148C 12.3145 16.4727 12.7793 16.3516 13.3105 16.3516C 14.1543 16.3516 14.8184 16.668 15.3027 17.3008C 15.791 17.9297 16.0352 18.7891 16.0352 19.8789L 16.0352 20.1953C 16.0352 21.8555 15.707 23.0684 15.0508 23.834C 14.3945 24.5957 13.4043 24.9863 12.0801 25.0059L 11.8691 25.0059L 11.8691 24.0918L 12.0977 24.0918C 12.9922 24.0762 13.6797 23.8438 14.1602 23.3945C 14.6406 22.9414 14.9023 22.2266 14.9453 21.25ZM 13.2754 21.25C 13.6387 21.25 13.9727 21.1387 14.2773 20.916C 14.5859 20.6934 14.8105 20.418 14.9512 20.0898L 14.9512 19.6562C 14.9512 18.9453 14.7969 18.3672 14.4883 17.9219C 14.1797 17.4766 13.7891 17.2539 13.3164 17.2539C 12.8398 17.2539 12.457 17.4375 12.168 17.8047C 11.8789 18.168 11.7344 18.6484 11.7344 19.2461C 11.7344 19.8281 11.873 20.3086 12.1504 20.6875C 12.4316 21.0625 12.8066 21.25 13.2754 21.25ZM 6.23828 35.3613C 6.23828 36.6309 6.02148 37.5742 5.58789 38.1914C 5.1543 38.8086 4.47656 39.1172 3.55469 39.1172C 2.64453 39.1172 1.9707 38.8164 1.5332 38.2148C 1.0957 37.6094 0.869141 36.707 0.853516 35.5078L 0.853516 34.0605C 0.853516 32.8066 1.07031 31.875 1.50391 31.2656C 1.9375 30.6562 2.61719 30.3516 3.54297 30.3516C 4.46094 30.3516 5.13672 30.6465 5.57031 31.2363C 6.00391 31.8223 6.22656 32.7285 6.23828 33.9551L 6.23828 35.3613ZM 5.1543 33.8789C 5.1543 32.9609 5.02539 32.293 4.76758 31.875C 4.50977 31.4531 4.10156 31.2422 3.54297 31.2422C 2.98828 31.2422 2.58398 31.4512 2.33008 31.8691C 2.07617 32.2871 1.94531 32.9297 1.9375 33.7969L 1.9375 35.5312C 1.9375 36.4531 2.07031 37.1348 2.33594 37.5762C 2.60547 38.0137 3.01172 38.2324 3.55469 38.2324C 4.08984 38.2324 4.48633 38.0254 4.74414 37.6113C 5.00586 37.1973 5.14258 36.5449 5.1543 35.6543L 5.1543 33.8789ZM 7.76172 38.4316C 7.76172 38.2441 7.81641 38.0879 7.92578 37.9629C 8.03906 37.8379 8.20703 37.7754 8.42969 37.7754C 8.65234 37.7754 8.82031 37.8379 8.93359 37.9629C 9.05078 38.0879 9.10938 38.2441 9.10938 38.4316C 9.10938 38.6113 9.05078 38.7617 8.93359 38.8828C 8.82031 39.0039 8.65234 39.0645 8.42969 39.0645C 8.20703 39.0645 8.03906 39.0039 7.92578 38.8828C 7.81641 38.7617 7.76172 38.6113 7.76172 38.4316ZM 11.2891 34.7227L 11.7227 30.4688L 16.0938 30.4688L 16.0938 31.4707L 12.6426 31.4707L 12.3848 33.7969C 12.8027 33.5508 13.2773 33.4277 13.8086 33.4277C 14.5859 33.4277 15.2031 33.6855 15.6602 34.2012C 16.1172 34.7129 16.3457 35.4063 16.3457 36.2812C 16.3457 37.1602 16.1074 37.8535 15.6309 38.3613C 15.1582 38.8652 14.4961 39.1172 13.6445 39.1172C 12.8906 39.1172 12.2754 38.9082 11.7988 38.4902C 11.3223 38.0723 11.0508 37.4941 10.9844 36.7559L 12.0098 36.7559C 12.0762 37.2441 12.25 37.6133 12.5312 37.8633C 12.8125 38.1094 13.1836 38.2324 13.6445 38.2324C 14.1484 38.2324 14.543 38.0605 14.8281 37.7168C 15.1172 37.373 15.2617 36.8984 15.2617 36.293C 15.2617 35.7227 15.1055 35.2656 14.793 34.9219C 14.4844 34.5742 14.0723 34.4004 13.5566 34.4004C 13.084 34.4004 12.7129 34.5039 12.4434 34.7109L 12.1562 34.9453L 11.2891 34.7227Z"/>
<path id="path38_stroke" d="M 0 0L 41 0L 41 -1L 0 -1L 0 0Z"/>
<path id="path39_stroke" d="M 0 0L 2 0L 2 -1L 0 -1L 0 0Z"/>
</defs>
</svg>

