<svg width="587" height="160" viewBox="0 0 587 160" version="1.1" xmlns="http://www.w3.org/2000/svg" xmlns:xlink="http://www.w3.org/1999/xlink">
<title>s1m2_temperature</title>
<desc>Created using Figma</desc>
<g id="Canvas" transform="translate(332 201)">
<rect x="-332" y="-201" width="587" height="160" fill="#FFFFFF"/>
<g id="Line">
<use xlink:href="#path0_stroke" transform="translate(-298 -67)"/>
</g>
<g id="Polygon">
<use xlink:href="#path1_fill" transform="matrix(0.859971 -0.510343 0.510343 0.859971 165 -70.8345)"/>
</g>
<g id="Temperature (Fahrenheit)">
<use xlink:href="#path2_fill" transform="translate(187 -82)"/>
</g>
<g id="Line">
<use xlink:href="#path0_stroke" transform="translate(-298 -120)"/>
</g>
<g id="Polygon">
<use xlink:href="#path1_fill" transform="matrix(0.859971 -0.510343 0.510343 0.859971 165 -123.835)"/>
</g>
<g id="Temperature (Kelvin)">
<use xlink:href="#path3_fill" transform="translate(187 -137)"/>
</g>
<g id="Line">
<use xlink:href="#path0_stroke" transform="translate(-298 -178)"/>
</g>
<g id="Polygon">
<use xlink:href="#path1_fill" transform="matrix(0.859971 -0.510343 0.510343 0.859971 165 -181.835)"/>
</g>
<g id="Temperature (Celsius)">
<use xlink:href="#path4_fill" transform="translate(187 -193)"/>
</g>
<g id="Line 2">
<use xlink:href="#path5_stroke" transform="matrix(6.12323e-17 1 -1 6.12323e-17 -298 -188)"/>
</g>
<g id="Line 2.5">
<use xlink:href="#path5_stroke" transform="matrix(6.12323e-17 1 -1 6.12323e-17 -298 -77)"/>
</g>
<g id="Line 2.6">
<use xlink:href="#path5_stroke" transform="matrix(6.12323e-17 1 -1 6.12323e-17 -68 -77)"/>
</g>
<g id="Line 2.4">
<use xlink:href="#path5_stroke" transform="matrix(6.12323e-17 1 -1 6.12323e-17 -298 -130)"/>
</g>
<g id="Line 2.1">
<use xlink:href="#path5_stroke" transform="matrix(6.12323e-17 1 -1 6.12323e-17 -24.85 -188)"/>
</g>
<g id="Line 2.2">
<use xlink:href="#path5_stroke" transform="matrix(6.12323e-17 1 -1 6.12323e-17 -25 -132)"/>
</g>
<g id="Line 2.7">
<use xlink:href="#path5_stroke" transform="matrix(6.12323e-17 1 -1 6.12323e-17 -68 -132)"/>
</g>
<g id="- 273.15 &#194;&#176;C">
<use xlink:href="#path6_fill" transform="translate(-332 -203)"/>
</g>
<g id="-459.67 &#194;&#176;F">
<use xlink:href="#path7_fill" transform="translate(-328 -92)"/>
</g>
<g id="0 K">
<use xlink:href="#path8_fill" transform="translate(-307 -145)"/>
</g>
<g id="0 &#194;&#176;C">
<use xlink:href="#path9_fill" transform="translate(-36 -203)"/>
</g>
<g id="273.15 K">
<use xlink:href="#path10_fill" transform="translate(-49 -112)"/>
</g>
<g id="0 &#194;&#176;F">
<use xlink:href="#path11_fill" transform="translate(-78 -53)"/>
</g>
<g id="255.37 K">
<use xlink:href="#path12_fill" transform="translate(-92 -147)"/>
</g>
<g id="Line 3">
<use xlink:href="#path13_stroke" transform="matrix(6.12323e-17 1 -1 6.12323e-17 -25 -166)"/>
</g>
<g id="Line 3.1">
<use xlink:href="#path13_stroke" transform="matrix(6.12323e-17 1 -1 6.12323e-17 -68 -111)"/>
</g>
</g>
<defs>
<path id="path0_stroke" d="M 0 0L 470 0L 470 -2L 0 -2L 0 0Z"/>
<path id="path1_fill" d="M 8 0L 14.9282 12L 1.0718 12L 8 0Z"/>
<path id="path2_fill" d="M 6.99414 3.39453L 4.25195 3.39453L 4.25195 11L 3.13281 11L 3.13281 3.39453L 0.396484 3.39453L 0.396484 2.46875L 6.99414 2.46875L 6.99414 3.39453ZM 10.1348 11.1172C 9.27539 11.1172 8.57617 10.8359 8.03711 10.2734C 7.49805 9.70703 7.22852 8.95117 7.22852 8.00586L 7.22852 7.80664C 7.22852 7.17773 7.34766 6.61719 7.58594 6.125C 7.82812 5.62891 8.16406 5.24219 8.59375 4.96484C 9.02734 4.68359 9.49609 4.54297 10 4.54297C 10.8242 4.54297 11.4648 4.81445 11.9219 5.35742C 12.3789 5.90039 12.6074 6.67773 12.6074 7.68945L 12.6074 8.14062L 8.3125 8.14062C 8.32812 8.76562 8.50977 9.27148 8.85742 9.6582C 9.20898 10.041 9.6543 10.2324 10.1934 10.2324C 10.5762 10.2324 10.9004 10.1543 11.166 9.99805C 11.4316 9.8418 11.6641 9.63477 11.8633 9.37695L 12.5254 9.89258C 11.9941 10.709 11.1973 11.1172 10.1348 11.1172ZM 10 5.43359C 9.5625 5.43359 9.19531 5.59375 8.89844 5.91406C 8.60156 6.23047 8.41797 6.67578 8.34766 7.25L 11.5234 7.25L 11.5234 7.16797C 11.4922 6.61719 11.3438 6.19141 11.0781 5.89062C 10.8125 5.58594 10.4531 5.43359 10 5.43359ZM 14.8867 4.66016L 14.916 5.36328C 15.3809 4.81641 16.0078 4.54297 16.7969 4.54297C 17.6836 4.54297 18.2871 4.88281 18.6074 5.5625C 18.8184 5.25781 19.0918 5.01172 19.4277 4.82422C 19.7676 4.63672 20.168 4.54297 20.6289 4.54297C 22.0195 4.54297 22.7266 5.2793 22.75 6.75195L 22.75 11L 21.666 11L 21.666 6.81641C 21.666 6.36328 21.5625 6.02539 21.3555 5.80273C 21.1484 5.57617 20.8008 5.46289 20.3125 5.46289C 19.9102 5.46289 19.5762 5.58398 19.3105 5.82617C 19.0449 6.06445 18.8906 6.38672 18.8477 6.79297L 18.8477 11L 17.7578 11L 17.7578 6.8457C 17.7578 5.92383 17.3066 5.46289 16.4043 5.46289C 15.6934 5.46289 15.207 5.76562 14.9453 6.37109L 14.9453 11L 13.8613 11L 13.8613 4.66016L 14.8867 4.66016ZM 29.7461 7.90039C 29.7461 8.86523 29.5254 9.64258 29.084 10.2324C 28.6426 10.8223 28.0449 11.1172 27.291 11.1172C 26.5215 11.1172 25.916 10.873 25.4746 10.3848L 25.4746 13.4375L 24.3906 13.4375L 24.3906 4.66016L 25.3809 4.66016L 25.4336 5.36328C 25.875 4.81641 26.4883 4.54297 27.2734 4.54297C 28.0352 4.54297 28.6367 4.83008 29.0781 5.4043C 29.5234 5.97852 29.7461 6.77734 29.7461 7.80078L 29.7461 7.90039ZM 28.6621 7.77734C 28.6621 7.0625 28.5098 6.49805 28.2051 6.08398C 27.9004 5.66992 27.4824 5.46289 26.9512 5.46289C 26.2949 5.46289 25.8027 5.75391 25.4746 6.33594L 25.4746 9.36523C 25.7988 9.94336 26.2949 10.2324 26.9629 10.2324C 27.4824 10.2324 27.8945 10.0273 28.1992 9.61719C 28.5078 9.20312 28.6621 8.58984 28.6621 7.77734ZM 33.7598 11.1172C 32.9004 11.1172 32.2012 10.8359 31.6621 10.2734C 31.123 9.70703 30.8535 8.95117 30.8535 8.00586L 30.8535 7.80664C 30.8535 7.17773 30.9727 6.61719 31.2109 6.125C 31.4531 5.62891 31.7891 5.24219 32.2188 4.96484C 32.6523 4.68359 33.1211 4.54297 33.625 4.54297C 34.4492 4.54297 35.0898 4.81445 35.5469 5.35742C 36.0039 5.90039 36.2324 6.67773 36.2324 7.68945L 36.2324 8.14062L 31.9375 8.14062C 31.9531 8.76562 32.1348 9.27148 32.4824 9.6582C 32.834 10.041 33.2793 10.2324 33.8184 10.2324C 34.2012 10.2324 34.5254 10.1543 34.791 9.99805C 35.0566 9.8418 35.2891 9.63477 35.4883 9.37695L 36.1504 9.89258C 35.6191 10.709 34.8223 11.1172 33.7598 11.1172ZM 33.625 5.43359C 33.1875 5.43359 32.8203 5.59375 32.5234 5.91406C 32.2266 6.23047 32.043 6.67578 31.9727 7.25L 35.1484 7.25L 35.1484 7.16797C 35.1172 6.61719 34.9688 6.19141 34.7031 5.89062C 34.4375 5.58594 34.0781 5.43359 33.625 5.43359ZM 40.5566 5.63281C 40.3926 5.60547 40.2148 5.5918 40.0234 5.5918C 39.3125 5.5918 38.8301 5.89453 38.5762 6.5L 38.5762 11L 37.4922 11L 37.4922 4.66016L 38.5469 4.66016L 38.5645 5.39258C 38.9199 4.82617 39.4238 4.54297 40.0762 4.54297C 40.2871 4.54297 40.4473 4.57031 40.5566 4.625L 40.5566 5.63281ZM 45.2383 11C 45.1758 10.875 45.125 10.6523 45.0859 10.332C 44.582 10.8555 43.9805 11.1172 43.2812 11.1172C 42.6562 11.1172 42.1426 10.9414 41.7402 10.5898C 41.3418 10.2344 41.1426 9.78516 41.1426 9.24219C 41.1426 8.58203 41.3926 8.07031 41.8926 7.70703C 42.3965 7.33984 43.1035 7.15625 44.0137 7.15625L 45.0684 7.15625L 45.0684 6.6582C 45.0684 6.2793 44.9551 5.97852 44.7285 5.75586C 44.502 5.5293 44.168 5.41602 43.7266 5.41602C 43.3398 5.41602 43.0156 5.51367 42.7539 5.70898C 42.4922 5.9043 42.3613 6.14062 42.3613 6.41797L 41.2715 6.41797C 41.2715 6.10156 41.3828 5.79688 41.6055 5.50391C 41.832 5.20703 42.1367 4.97266 42.5195 4.80078C 42.9062 4.62891 43.3301 4.54297 43.791 4.54297C 44.5215 4.54297 45.0938 4.72656 45.5078 5.09375C 45.9219 5.45703 46.1367 5.95898 46.1523 6.59961L 46.1523 9.51758C 46.1523 10.0996 46.2266 10.5625 46.375 10.9062L 46.375 11L 45.2383 11ZM 43.4395 10.1738C 43.7793 10.1738 44.1016 10.0859 44.4062 9.91016C 44.7109 9.73438 44.9316 9.50586 45.0684 9.22461L 45.0684 7.92383L 44.2188 7.92383C 42.8906 7.92383 42.2266 8.3125 42.2266 9.08984C 42.2266 9.42969 42.3398 9.69531 42.5664 9.88672C 42.793 10.0781 43.084 10.1738 43.4395 10.1738ZM 49.3223 3.125L 49.3223 4.66016L 50.5059 4.66016L 50.5059 5.49805L 49.3223 5.49805L 49.3223 9.42969C 49.3223 9.68359 49.375 9.875 49.4805 10.0039C 49.5859 10.1289 49.7656 10.1914 50.0195 10.1914C 50.1445 10.1914 50.3164 10.168 50.5352 10.1211L 50.5352 11C 50.25 11.0781 49.9727 11.1172 49.7031 11.1172C 49.2188 11.1172 48.8535 10.9707 48.6074 10.6777C 48.3613 10.3848 48.2383 9.96875 48.2383 9.42969L 48.2383 5.49805L 47.084 5.49805L 47.084 4.66016L 48.2383 4.66016L 48.2383 3.125L 49.3223 3.125ZM 55.6914 10.373C 55.2695 10.8691 54.6504 11.1172 53.834 11.1172C 53.1582 11.1172 52.6426 10.9219 52.2871 10.5312C 51.9355 10.1367 51.7578 9.55469 51.7539 8.78516L 51.7539 4.66016L 52.8379 4.66016L 52.8379 8.75586C 52.8379 9.7168 53.2285 10.1973 54.0098 10.1973C 54.8379 10.1973 55.3887 9.88867 55.6621 9.27148L 55.6621 4.66016L 56.7461 4.66016L 56.7461 11L 55.7148 11L 55.6914 10.373ZM 61.4629 5.63281C 61.2988 5.60547 61.1211 5.5918 60.9297 5.5918C 60.2188 5.5918 59.7363 5.89453 59.4824 6.5L 59.4824 11L 58.3984 11L 58.3984 4.66016L 59.4531 4.66016L 59.4707 5.39258C 59.8262 4.82617 60.3301 4.54297 60.9824 4.54297C 61.1934 4.54297 61.3535 4.57031 61.4629 4.625L 61.4629 5.63281ZM 64.9785 11.1172C 64.1191 11.1172 63.4199 10.8359 62.8809 10.2734C 62.3418 9.70703 62.0723 8.95117 62.0723 8.00586L 62.0723 7.80664C 62.0723 7.17773 62.1914 6.61719 62.4297 6.125C 62.6719 5.62891 63.0078 5.24219 63.4375 4.96484C 63.8711 4.68359 64.3398 4.54297 64.8438 4.54297C 65.668 4.54297 66.3086 4.81445 66.7656 5.35742C 67.2227 5.90039 67.4512 6.67773 67.4512 7.68945L 67.4512 8.14062L 63.1562 8.14062C 63.1719 8.76562 63.3535 9.27148 63.7012 9.6582C 64.0527 10.041 64.498 10.2324 65.0371 10.2324C 65.4199 10.2324 65.7441 10.1543 66.0098 9.99805C 66.2754 9.8418 66.5078 9.63477 66.707 9.37695L 67.3691 9.89258C 66.8379 10.709 66.041 11.1172 64.9785 11.1172ZM 64.8438 5.43359C 64.4062 5.43359 64.0391 5.59375 63.7422 5.91406C 63.4453 6.23047 63.2617 6.67578 63.1914 7.25L 66.3672 7.25L 66.3672 7.16797C 66.3359 6.61719 66.1875 6.19141 65.9219 5.89062C 65.6562 5.58594 65.2969 5.43359 64.8438 5.43359ZM 1.91406 21.5371C 1.91406 20.6543 2.03125 19.8066 2.26562 18.9941C 2.50391 18.1816 2.85742 17.4434 3.32617 16.7793C 3.79492 16.1152 4.28125 15.6465 4.78516 15.373L 5.00781 16.0879C 4.4375 16.5254 3.96875 17.1934 3.60156 18.0918C 3.23828 18.9902 3.03906 19.9961 3.00391 21.1094L 2.99805 21.6074C 2.99805 23.1152 3.27344 24.4238 3.82422 25.5332C 4.15625 26.1973 4.55078 26.7168 5.00781 27.0918L 4.78516 27.7539C 4.26562 27.4648 3.76953 26.9805 3.29688 26.3008C 2.375 24.9727 1.91406 23.3848 1.91406 21.5371ZM 11.1309 21.5137L 7.75586 21.5137L 7.75586 25L 5.99805 25L 5.99805 16.4688L 11.5527 16.4688L 11.5527 17.8926L 7.75586 17.8926L 7.75586 20.0957L 11.1309 20.0957L 11.1309 21.5137ZM 15.9355 25C 15.8574 24.8477 15.8008 24.6582 15.7656 24.4316C 15.3555 24.8887 14.8223 25.1172 14.166 25.1172C 13.5449 25.1172 13.0293 24.9375 12.6191 24.5781C 12.2129 24.2188 12.0098 23.7656 12.0098 23.2188C 12.0098 22.5469 12.2578 22.0312 12.7539 21.6719C 13.2539 21.3125 13.9746 21.1309 14.916 21.127L 15.6953 21.127L 15.6953 20.7637C 15.6953 20.4707 15.6191 20.2363 15.4668 20.0605C 15.3184 19.8848 15.082 19.7969 14.7578 19.7969C 14.4727 19.7969 14.248 19.8652 14.084 20.002C 13.9238 20.1387 13.8438 20.3262 13.8438 20.5645L 12.1504 20.5645C 12.1504 20.1973 12.2637 19.8574 12.4902 19.5449C 12.7168 19.2324 13.0371 18.9883 13.4512 18.8125C 13.8652 18.6328 14.3301 18.543 14.8457 18.543C 15.627 18.543 16.2461 18.7402 16.7031 19.1348C 17.1641 19.5254 17.3945 20.0762 17.3945 20.7871L 17.3945 23.5352C 17.3984 24.1367 17.4824 24.5918 17.6465 24.9004L 17.6465 25L 15.9355 25ZM 14.5352 23.8223C 14.7852 23.8223 15.0156 23.7676 15.2266 23.6582C 15.4375 23.5449 15.5938 23.3945 15.6953 23.207L 15.6953 22.1172L 15.0625 22.1172C 14.2148 22.1172 13.7637 22.4102 13.709 22.9961L 13.7031 23.0957C 13.7031 23.3066 13.7773 23.4805 13.9258 23.6172C 14.0742 23.7539 14.2773 23.8223 14.5352 23.8223ZM 20.3477 19.3516C 20.7969 18.8125 21.3613 18.543 22.041 18.543C 23.416 18.543 24.1133 19.3418 24.1328 20.9395L 24.1328 25L 22.4395 25L 22.4395 20.9863C 22.4395 20.623 22.3613 20.3555 22.2051 20.1836C 22.0488 20.0078 21.7891 19.9199 21.4258 19.9199C 20.9297 19.9199 20.5703 20.1113 20.3477 20.4941L 20.3477 25L 18.6543 25L 18.6543 16L 20.3477 16L 20.3477 19.3516ZM 28.9727 20.248C 28.7422 20.2168 28.5391 20.2012 28.3633 20.2012C 27.7227 20.2012 27.3027 20.418 27.1035 20.8516L 27.1035 25L 25.4102 25L 25.4102 18.6602L 27.0098 18.6602L 27.0566 19.416C 27.3965 18.834 27.8672 18.543 28.4688 18.543C 28.6562 18.543 28.832 18.5684 28.9961 18.6191L 28.9727 20.248ZM 32.5938 25.1172C 31.6641 25.1172 30.9062 24.832 30.3203 24.2617C 29.7383 23.6914 29.4473 22.9316 29.4473 21.9824L 29.4473 21.8184C 29.4473 21.1816 29.5703 20.6133 29.8164 20.1133C 30.0625 19.6094 30.4102 19.2227 30.8594 18.9531C 31.3125 18.6797 31.8281 18.543 32.4062 18.543C 33.2734 18.543 33.9551 18.8164 34.4512 19.3633C 34.9512 19.9102 35.2012 20.6855 35.2012 21.6895L 35.2012 22.3809L 31.1641 22.3809C 31.2188 22.7949 31.3828 23.127 31.6562 23.377C 31.9336 23.627 32.2832 23.752 32.7051 23.752C 33.3574 23.752 33.8672 23.5156 34.2344 23.043L 35.0664 23.9746C 34.8125 24.334 34.4688 24.6152 34.0352 24.8184C 33.6016 25.0176 33.1211 25.1172 32.5938 25.1172ZM 32.4004 19.9141C 32.0645 19.9141 31.791 20.0273 31.5801 20.2539C 31.373 20.4805 31.2402 20.8047 31.1816 21.2266L 33.5371 21.2266L 33.5371 21.0918C 33.5293 20.7168 33.4277 20.4277 33.2324 20.2246C 33.0371 20.0176 32.7598 19.9141 32.4004 19.9141ZM 37.7266 18.6602L 37.7793 19.3926C 38.2324 18.8262 38.8398 18.543 39.6016 18.543C 40.2734 18.543 40.7734 18.7402 41.1016 19.1348C 41.4297 19.5293 41.5977 20.1191 41.6055 20.9043L 41.6055 25L 39.9121 25L 39.9121 20.9453C 39.9121 20.5859 39.834 20.3262 39.6777 20.166C 39.5215 20.002 39.2617 19.9199 38.8984 19.9199C 38.4219 19.9199 38.0645 20.123 37.8262 20.5293L 37.8262 25L 36.1328 25L 36.1328 18.6602L 37.7266 18.6602ZM 44.5469 19.3516C 44.9961 18.8125 45.5605 18.543 46.2402 18.543C 47.6152 18.543 48.3125 19.3418 48.332 20.9395L 48.332 25L 46.6387 25L 46.6387 20.9863C 46.6387 20.623 46.5605 20.3555 46.4043 20.1836C 46.248 20.0078 45.9883 19.9199 45.625 19.9199C 45.1289 19.9199 44.7695 20.1113 44.5469 20.4941L 44.5469 25L 42.8535 25L 42.8535 16L 44.5469 16L 44.5469 19.3516ZM 52.5273 25.1172C 51.5977 25.1172 50.8398 24.832 50.2539 24.2617C 49.6719 23.6914 49.3809 22.9316 49.3809 21.9824L 49.3809 21.8184C 49.3809 21.1816 49.5039 20.6133 49.75 20.1133C 49.9961 19.6094 50.3438 19.2227 50.793 18.9531C 51.2461 18.6797 51.7617 18.543 52.3398 18.543C 53.207 18.543 53.8887 18.8164 54.3848 19.3633C 54.8848 19.9102 55.1348 20.6855 55.1348 21.6895L 55.1348 22.3809L 51.0977 22.3809C 51.1523 22.7949 51.3164 23.127 51.5898 23.377C 51.8672 23.627 52.2168 23.752 52.6387 23.752C 53.291 23.752 53.8008 23.5156 54.168 23.043L 55 23.9746C 54.7461 24.334 54.4023 24.6152 53.9688 24.8184C 53.5352 25.0176 53.0547 25.1172 52.5273 25.1172ZM 52.334 19.9141C 51.998 19.9141 51.7246 20.0273 51.5137 20.2539C 51.3066 20.4805 51.1738 20.8047 51.1152 21.2266L 53.4707 21.2266L 53.4707 21.0918C 53.4629 20.7168 53.3613 20.4277 53.166 20.2246C 52.9707 20.0176 52.6934 19.9141 52.334 19.9141ZM 57.8887 25L 56.1895 25L 56.1895 18.6602L 57.8887 18.6602L 57.8887 25ZM 56.0898 17.0195C 56.0898 16.7656 56.1738 16.5566 56.3418 16.3926C 56.5137 16.2285 56.7461 16.1465 57.0391 16.1465C 57.3281 16.1465 57.5586 16.2285 57.7305 16.3926C 57.9023 16.5566 57.9883 16.7656 57.9883 17.0195C 57.9883 17.2773 57.9004 17.4883 57.7246 17.6523C 57.5527 17.8164 57.3242 17.8984 57.0391 17.8984C 56.7539 17.8984 56.5234 17.8164 56.3477 17.6523C 56.1758 17.4883 56.0898 17.2773 56.0898 17.0195ZM 61.3164 17.1016L 61.3164 18.6602L 62.4004 18.6602L 62.4004 19.9023L 61.3164 19.9023L 61.3164 23.0664C 61.3164 23.3008 61.3613 23.4688 61.4512 23.5703C 61.541 23.6719 61.7129 23.7227 61.9668 23.7227C 62.1543 23.7227 62.3203 23.709 62.4648 23.6816L 62.4648 24.9648C 62.1328 25.0664 61.791 25.1172 61.4395 25.1172C 60.252 25.1172 59.6465 24.5176 59.623 23.3184L 59.623 19.9023L 58.6973 19.9023L 58.6973 18.6602L 59.623 18.6602L 59.623 17.1016L 61.3164 17.1016ZM 66.0156 21.5957C 66.0156 22.4668 65.9004 23.3027 65.6699 24.1035C 65.4434 24.9004 65.0938 25.6367 64.6211 26.3125C 64.1523 26.9883 63.6602 27.4688 63.1445 27.7539L 62.916 27.0918C 63.5176 26.6309 64 25.916 64.3633 24.9473C 64.7305 23.9746 64.918 22.8965 64.9258 21.7129L 64.9258 21.5254C 64.9258 20.7051 64.8398 19.9434 64.668 19.2402C 64.4961 18.5332 64.2559 17.9004 63.9473 17.3418C 63.6426 16.7832 63.2988 16.3477 62.916 16.0352L 63.1445 15.373C 63.6602 15.6582 64.1504 16.1348 64.6152 16.8027C 65.084 17.4707 65.4336 18.207 65.6641 19.0117C 65.8984 19.8164 66.0156 20.6777 66.0156 21.5957Z"/>
<path id="path3_fill" d="M 6.99414 3.39453L 4.25195 3.39453L 4.25195 11L 3.13281 11L 3.13281 3.39453L 0.396484 3.39453L 0.396484 2.46875L 6.99414 2.46875L 6.99414 3.39453ZM 10.1348 11.1172C 9.27539 11.1172 8.57617 10.8359 8.03711 10.2734C 7.49805 9.70703 7.22852 8.95117 7.22852 8.00586L 7.22852 7.80664C 7.22852 7.17773 7.34766 6.61719 7.58594 6.125C 7.82812 5.62891 8.16406 5.24219 8.59375 4.96484C 9.02734 4.68359 9.49609 4.54297 10 4.54297C 10.8242 4.54297 11.4648 4.81445 11.9219 5.35742C 12.3789 5.90039 12.6074 6.67773 12.6074 7.68945L 12.6074 8.14062L 8.3125 8.14062C 8.32812 8.76562 8.50977 9.27148 8.85742 9.6582C 9.20898 10.041 9.6543 10.2324 10.1934 10.2324C 10.5762 10.2324 10.9004 10.1543 11.166 9.99805C 11.4316 9.8418 11.6641 9.63477 11.8633 9.37695L 12.5254 9.89258C 11.9941 10.709 11.1973 11.1172 10.1348 11.1172ZM 10 5.43359C 9.5625 5.43359 9.19531 5.59375 8.89844 5.91406C 8.60156 6.23047 8.41797 6.67578 8.34766 7.25L 11.5234 7.25L 11.5234 7.16797C 11.4922 6.61719 11.3438 6.19141 11.0781 5.89062C 10.8125 5.58594 10.4531 5.43359 10 5.43359ZM 14.8867 4.66016L 14.916 5.36328C 15.3809 4.81641 16.0078 4.54297 16.7969 4.54297C 17.6836 4.54297 18.2871 4.88281 18.6074 5.5625C 18.8184 5.25781 19.0918 5.01172 19.4277 4.82422C 19.7676 4.63672 20.168 4.54297 20.6289 4.54297C 22.0195 4.54297 22.7266 5.2793 22.75 6.75195L 22.75 11L 21.666 11L 21.666 6.81641C 21.666 6.36328 21.5625 6.02539 21.3555 5.80273C 21.1484 5.57617 20.8008 5.46289 20.3125 5.46289C 19.9102 5.46289 19.5762 5.58398 19.3105 5.82617C 19.0449 6.06445 18.8906 6.38672 18.8477 6.79297L 18.8477 11L 17.7578 11L 17.7578 6.8457C 17.7578 5.92383 17.3066 5.46289 16.4043 5.46289C 15.6934 5.46289 15.207 5.76562 14.9453 6.37109L 14.9453 11L 13.8613 11L 13.8613 4.66016L 14.8867 4.66016ZM 29.7461 7.90039C 29.7461 8.86523 29.5254 9.64258 29.084 10.2324C 28.6426 10.8223 28.0449 11.1172 27.291 11.1172C 26.5215 11.1172 25.916 10.873 25.4746 10.3848L 25.4746 13.4375L 24.3906 13.4375L 24.3906 4.66016L 25.3809 4.66016L 25.4336 5.36328C 25.875 4.81641 26.4883 4.54297 27.2734 4.54297C 28.0352 4.54297 28.6367 4.83008 29.0781 5.4043C 29.5234 5.97852 29.7461 6.77734 29.7461 7.80078L 29.7461 7.90039ZM 28.6621 7.77734C 28.6621 7.0625 28.5098 6.49805 28.2051 6.08398C 27.9004 5.66992 27.4824 5.46289 26.9512 5.46289C 26.2949 5.46289 25.8027 5.75391 25.4746 6.33594L 25.4746 9.36523C 25.7988 9.94336 26.2949 10.2324 26.9629 10.2324C 27.4824 10.2324 27.8945 10.0273 28.1992 9.61719C 28.5078 9.20312 28.6621 8.58984 28.6621 7.77734ZM 33.7598 11.1172C 32.9004 11.1172 32.2012 10.8359 31.6621 10.2734C 31.123 9.70703 30.8535 8.95117 30.8535 8.00586L 30.8535 7.80664C 30.8535 7.17773 30.9727 6.61719 31.2109 6.125C 31.4531 5.62891 31.7891 5.24219 32.2188 4.96484C 32.6523 4.68359 33.1211 4.54297 33.625 4.54297C 34.4492 4.54297 35.0898 4.81445 35.5469 5.35742C 36.0039 5.90039 36.2324 6.67773 36.2324 7.68945L 36.2324 8.14062L 31.9375 8.14062C 31.9531 8.76562 32.1348 9.27148 32.4824 9.6582C 32.834 10.041 33.2793 10.2324 33.8184 10.2324C 34.2012 10.2324 34.5254 10.1543 34.791 9.99805C 35.0566 9.8418 35.2891 9.63477 35.4883 9.37695L 36.1504 9.89258C 35.6191 10.709 34.8223 11.1172 33.7598 11.1172ZM 33.625 5.43359C 33.1875 5.43359 32.8203 5.59375 32.5234 5.91406C 32.2266 6.23047 32.043 6.67578 31.9727 7.25L 35.1484 7.25L 35.1484 7.16797C 35.1172 6.61719 34.9688 6.19141 34.7031 5.89062C 34.4375 5.58594 34.0781 5.43359 33.625 5.43359ZM 40.5566 5.63281C 40.3926 5.60547 40.2148 5.5918 40.0234 5.5918C 39.3125 5.5918 38.8301 5.89453 38.5762 6.5L 38.5762 11L 37.4922 11L 37.4922 4.66016L 38.5469 4.66016L 38.5645 5.39258C 38.9199 4.82617 39.4238 4.54297 40.0762 4.54297C 40.2871 4.54297 40.4473 4.57031 40.5566 4.625L 40.5566 5.63281ZM 45.2383 11C 45.1758 10.875 45.125 10.6523 45.0859 10.332C 44.582 10.8555 43.9805 11.1172 43.2812 11.1172C 42.6562 11.1172 42.1426 10.9414 41.7402 10.5898C 41.3418 10.2344 41.1426 9.78516 41.1426 9.24219C 41.1426 8.58203 41.3926 8.07031 41.8926 7.70703C 42.3965 7.33984 43.1035 7.15625 44.0137 7.15625L 45.0684 7.15625L 45.0684 6.6582C 45.0684 6.2793 44.9551 5.97852 44.7285 5.75586C 44.502 5.5293 44.168 5.41602 43.7266 5.41602C 43.3398 5.41602 43.0156 5.51367 42.7539 5.70898C 42.4922 5.9043 42.3613 6.14062 42.3613 6.41797L 41.2715 6.41797C 41.2715 6.10156 41.3828 5.79688 41.6055 5.50391C 41.832 5.20703 42.1367 4.97266 42.5195 4.80078C 42.9062 4.62891 43.3301 4.54297 43.791 4.54297C 44.5215 4.54297 45.0938 4.72656 45.5078 5.09375C 45.9219 5.45703 46.1367 5.95898 46.1523 6.59961L 46.1523 9.51758C 46.1523 10.0996 46.2266 10.5625 46.375 10.9062L 46.375 11L 45.2383 11ZM 43.4395 10.1738C 43.7793 10.1738 44.1016 10.0859 44.4062 9.91016C 44.7109 9.73438 44.9316 9.50586 45.0684 9.22461L 45.0684 7.92383L 44.2188 7.92383C 42.8906 7.92383 42.2266 8.3125 42.2266 9.08984C 42.2266 9.42969 42.3398 9.69531 42.5664 9.88672C 42.793 10.0781 43.084 10.1738 43.4395 10.1738ZM 49.3223 3.125L 49.3223 4.66016L 50.5059 4.66016L 50.5059 5.49805L 49.3223 5.49805L 49.3223 9.42969C 49.3223 9.68359 49.375 9.875 49.4805 10.0039C 49.5859 10.1289 49.7656 10.1914 50.0195 10.1914C 50.1445 10.1914 50.3164 10.168 50.5352 10.1211L 50.5352 11C 50.25 11.0781 49.9727 11.1172 49.7031 11.1172C 49.2188 11.1172 48.8535 10.9707 48.6074 10.6777C 48.3613 10.3848 48.2383 9.96875 48.2383 9.42969L 48.2383 5.49805L 47.084 5.49805L 47.084 4.66016L 48.2383 4.66016L 48.2383 3.125L 49.3223 3.125ZM 55.6914 10.373C 55.2695 10.8691 54.6504 11.1172 53.834 11.1172C 53.1582 11.1172 52.6426 10.9219 52.2871 10.5312C 51.9355 10.1367 51.7578 9.55469 51.7539 8.78516L 51.7539 4.66016L 52.8379 4.66016L 52.8379 8.75586C 52.8379 9.7168 53.2285 10.1973 54.0098 10.1973C 54.8379 10.1973 55.3887 9.88867 55.6621 9.27148L 55.6621 4.66016L 56.7461 4.66016L 56.7461 11L 55.7148 11L 55.6914 10.373ZM 61.4629 5.63281C 61.2988 5.60547 61.1211 5.5918 60.9297 5.5918C 60.2188 5.5918 59.7363 5.89453 59.4824 6.5L 59.4824 11L 58.3984 11L 58.3984 4.66016L 59.4531 4.66016L 59.4707 5.39258C 59.8262 4.82617 60.3301 4.54297 60.9824 4.54297C 61.1934 4.54297 61.3535 4.57031 61.4629 4.625L 61.4629 5.63281ZM 64.9785 11.1172C 64.1191 11.1172 63.4199 10.8359 62.8809 10.2734C 62.3418 9.70703 62.0723 8.95117 62.0723 8.00586L 62.0723 7.80664C 62.0723 7.17773 62.1914 6.61719 62.4297 6.125C 62.6719 5.62891 63.0078 5.24219 63.4375 4.96484C 63.8711 4.68359 64.3398 4.54297 64.8438 4.54297C 65.668 4.54297 66.3086 4.81445 66.7656 5.35742C 67.2227 5.90039 67.4512 6.67773 67.4512 7.68945L 67.4512 8.14062L 63.1562 8.14062C 63.1719 8.76562 63.3535 9.27148 63.7012 9.6582C 64.0527 10.041 64.498 10.2324 65.0371 10.2324C 65.4199 10.2324 65.7441 10.1543 66.0098 9.99805C 66.2754 9.8418 66.5078 9.63477 66.707 9.37695L 67.3691 9.89258C 66.8379 10.709 66.041 11.1172 64.9785 11.1172ZM 64.8438 5.43359C 64.4062 5.43359 64.0391 5.59375 63.7422 5.91406C 63.4453 6.23047 63.2617 6.67578 63.1914 7.25L 66.3672 7.25L 66.3672 7.16797C 66.3359 6.61719 66.1875 6.19141 65.9219 5.89062C 65.6562 5.58594 65.2969 5.43359 64.8438 5.43359ZM 14.0781 21.5371C 14.0781 20.6543 14.1953 19.8066 14.4297 18.9941C 14.668 18.1816 15.0215 17.4434 15.4902 16.7793C 15.959 16.1152 16.4453 15.6465 16.9492 15.373L 17.1719 16.0879C 16.6016 16.5254 16.1328 17.1934 15.7656 18.0918C 15.4023 18.9902 15.2031 19.9961 15.168 21.1094L 15.1621 21.6074C 15.1621 23.1152 15.4375 24.4238 15.9883 25.5332C 16.3203 26.1973 16.7148 26.7168 17.1719 27.0918L 16.9492 27.7539C 16.4297 27.4648 15.9336 26.9805 15.4609 26.3008C 14.5391 24.9727 14.0781 23.3848 14.0781 21.5371ZM 20.834 21.5781L 19.9199 22.5625L 19.9199 25L 18.1621 25L 18.1621 16.4688L 19.9199 16.4688L 19.9199 20.3359L 20.6934 19.2754L 22.8672 16.4688L 25.0293 16.4688L 22 20.2598L 25.1172 25L 23.0254 25L 20.834 21.5781ZM 28.4336 25.1172C 27.5039 25.1172 26.7461 24.832 26.1602 24.2617C 25.5781 23.6914 25.2871 22.9316 25.2871 21.9824L 25.2871 21.8184C 25.2871 21.1816 25.4102 20.6133 25.6562 20.1133C 25.9023 19.6094 26.25 19.2227 26.6992 18.9531C 27.1523 18.6797 27.668 18.543 28.2461 18.543C 29.1133 18.543 29.7949 18.8164 30.291 19.3633C 30.791 19.9102 31.041 20.6855 31.041 21.6895L 31.041 22.3809L 27.0039 22.3809C 27.0586 22.7949 27.2227 23.127 27.4961 23.377C 27.7734 23.627 28.123 23.752 28.5449 23.752C 29.1973 23.752 29.707 23.5156 30.0742 23.043L 30.9062 23.9746C 30.6523 24.334 30.3086 24.6152 29.875 24.8184C 29.4414 25.0176 28.9609 25.1172 28.4336 25.1172ZM 28.2402 19.9141C 27.9043 19.9141 27.6309 20.0273 27.4199 20.2539C 27.2129 20.4805 27.0801 20.8047 27.0215 21.2266L 29.377 21.2266L 29.377 21.0918C 29.3691 20.7168 29.2676 20.4277 29.0723 20.2246C 28.877 20.0176 28.5996 19.9141 28.2402 19.9141ZM 33.7949 25L 32.0957 25L 32.0957 16L 33.7949 16L 33.7949 25ZM 37.5684 22.9316L 38.7461 18.6602L 40.5156 18.6602L 38.377 25L 36.7598 25L 34.6211 18.6602L 36.3906 18.6602L 37.5684 22.9316ZM 43.0527 25L 41.3535 25L 41.3535 18.6602L 43.0527 18.6602L 43.0527 25ZM 41.2539 17.0195C 41.2539 16.7656 41.3379 16.5566 41.5059 16.3926C 41.6777 16.2285 41.9102 16.1465 42.2031 16.1465C 42.4922 16.1465 42.7227 16.2285 42.8945 16.3926C 43.0664 16.5566 43.1523 16.7656 43.1523 17.0195C 43.1523 17.2773 43.0645 17.4883 42.8887 17.6523C 42.7168 17.8164 42.4883 17.8984 42.2031 17.8984C 41.918 17.8984 41.6875 17.8164 41.5117 17.6523C 41.3398 17.4883 41.2539 17.2773 41.2539 17.0195ZM 46.0117 18.6602L 46.0645 19.3926C 46.5176 18.8262 47.125 18.543 47.8867 18.543C 48.5586 18.543 49.0586 18.7402 49.3867 19.1348C 49.7148 19.5293 49.8828 20.1191 49.8906 20.9043L 49.8906 25L 48.1973 25L 48.1973 20.9453C 48.1973 20.5859 48.1191 20.3262 47.9629 20.166C 47.8066 20.002 47.5469 19.9199 47.1836 19.9199C 46.707 19.9199 46.3496 20.123 46.1113 20.5293L 46.1113 25L 44.418 25L 44.418 18.6602L 46.0117 18.6602ZM 53.8516 21.5957C 53.8516 22.4668 53.7363 23.3027 53.5059 24.1035C 53.2793 24.9004 52.9297 25.6367 52.457 26.3125C 51.9883 26.9883 51.4961 27.4688 50.9805 27.7539L 50.752 27.0918C 51.3535 26.6309 51.8359 25.916 52.1992 24.9473C 52.5664 23.9746 52.7539 22.8965 52.7617 21.7129L 52.7617 21.5254C 52.7617 20.7051 52.6758 19.9434 52.5039 19.2402C 52.332 18.5332 52.0918 17.9004 51.7832 17.3418C 51.4785 16.7832 51.1348 16.3477 50.752 16.0352L 50.9805 15.373C 51.4961 15.6582 51.9863 16.1348 52.4512 16.8027C 52.9199 17.4707 53.2695 18.207 53.5 19.0117C 53.7344 19.8164 53.8516 20.6777 53.8516 21.5957Z"/>
<path id="path4_fill" d="M 6.99414 3.39453L 4.25195 3.39453L 4.25195 11L 3.13281 11L 3.13281 3.39453L 0.396484 3.39453L 0.396484 2.46875L 6.99414 2.46875L 6.99414 3.39453ZM 10.1348 11.1172C 9.27539 11.1172 8.57617 10.8359 8.03711 10.2734C 7.49805 9.70703 7.22852 8.95117 7.22852 8.00586L 7.22852 7.80664C 7.22852 7.17773 7.34766 6.61719 7.58594 6.125C 7.82812 5.62891 8.16406 5.24219 8.59375 4.96484C 9.02734 4.68359 9.49609 4.54297 10 4.54297C 10.8242 4.54297 11.4648 4.81445 11.9219 5.35742C 12.3789 5.90039 12.6074 6.67773 12.6074 7.68945L 12.6074 8.14062L 8.3125 8.14062C 8.32812 8.76562 8.50977 9.27148 8.85742 9.6582C 9.20898 10.041 9.6543 10.2324 10.1934 10.2324C 10.5762 10.2324 10.9004 10.1543 11.166 9.99805C 11.4316 9.8418 11.6641 9.63477 11.8633 9.37695L 12.5254 9.89258C 11.9941 10.709 11.1973 11.1172 10.1348 11.1172ZM 10 5.43359C 9.5625 5.43359 9.19531 5.59375 8.89844 5.91406C 8.60156 6.23047 8.41797 6.67578 8.34766 7.25L 11.5234 7.25L 11.5234 7.16797C 11.4922 6.61719 11.3438 6.19141 11.0781 5.89062C 10.8125 5.58594 10.4531 5.43359 10 5.43359ZM 14.8867 4.66016L 14.916 5.36328C 15.3809 4.81641 16.0078 4.54297 16.7969 4.54297C 17.6836 4.54297 18.2871 4.88281 18.6074 5.5625C 18.8184 5.25781 19.0918 5.01172 19.4277 4.82422C 19.7676 4.63672 20.168 4.54297 20.6289 4.54297C 22.0195 4.54297 22.7266 5.2793 22.75 6.75195L 22.75 11L 21.666 11L 21.666 6.81641C 21.666 6.36328 21.5625 6.02539 21.3555 5.80273C 21.1484 5.57617 20.8008 5.46289 20.3125 5.46289C 19.9102 5.46289 19.5762 5.58398 19.3105 5.82617C 19.0449 6.06445 18.8906 6.38672 18.8477 6.79297L 18.8477 11L 17.7578 11L 17.7578 6.8457C 17.7578 5.92383 17.3066 5.46289 16.4043 5.46289C 15.6934 5.46289 15.207 5.76562 14.9453 6.37109L 14.9453 11L 13.8613 11L 13.8613 4.66016L 14.8867 4.66016ZM 29.7461 7.90039C 29.7461 8.86523 29.5254 9.64258 29.084 10.2324C 28.6426 10.8223 28.0449 11.1172 27.291 11.1172C 26.5215 11.1172 25.916 10.873 25.4746 10.3848L 25.4746 13.4375L 24.3906 13.4375L 24.3906 4.66016L 25.3809 4.66016L 25.4336 5.36328C 25.875 4.81641 26.4883 4.54297 27.2734 4.54297C 28.0352 4.54297 28.6367 4.83008 29.0781 5.4043C 29.5234 5.97852 29.7461 6.77734 29.7461 7.80078L 29.7461 7.90039ZM 28.6621 7.77734C 28.6621 7.0625 28.5098 6.49805 28.2051 6.08398C 27.9004 5.66992 27.4824 5.46289 26.9512 5.46289C 26.2949 5.46289 25.8027 5.75391 25.4746 6.33594L 25.4746 9.36523C 25.7988 9.94336 26.2949 10.2324 26.9629 10.2324C 27.4824 10.2324 27.8945 10.0273 28.1992 9.61719C 28.5078 9.20312 28.6621 8.58984 28.6621 7.77734ZM 33.7598 11.1172C 32.9004 11.1172 32.2012 10.8359 31.6621 10.2734C 31.123 9.70703 30.8535 8.95117 30.8535 8.00586L 30.8535 7.80664C 30.8535 7.17773 30.9727 6.61719 31.2109 6.125C 31.4531 5.62891 31.7891 5.24219 32.2188 4.96484C 32.6523 4.68359 33.1211 4.54297 33.625 4.54297C 34.4492 4.54297 35.0898 4.81445 35.5469 5.35742C 36.0039 5.90039 36.2324 6.67773 36.2324 7.68945L 36.2324 8.14062L 31.9375 8.14062C 31.9531 8.76562 32.1348 9.27148 32.4824 9.6582C 32.834 10.041 33.2793 10.2324 33.8184 10.2324C 34.2012 10.2324 34.5254 10.1543 34.791 9.99805C 35.0566 9.8418 35.2891 9.63477 35.4883 9.37695L 36.1504 9.89258C 35.6191 10.709 34.8223 11.1172 33.7598 11.1172ZM 33.625 5.43359C 33.1875 5.43359 32.8203 5.59375 32.5234 5.91406C 32.2266 6.23047 32.043 6.67578 31.9727 7.25L 35.1484 7.25L 35.1484 7.16797C 35.1172 6.61719 34.9688 6.19141 34.7031 5.89062C 34.4375 5.58594 34.0781 5.43359 33.625 5.43359ZM 40.5566 5.63281C 40.3926 5.60547 40.2148 5.5918 40.0234 5.5918C 39.3125 5.5918 38.8301 5.89453 38.5762 6.5L 38.5762 11L 37.4922 11L 37.4922 4.66016L 38.5469 4.66016L 38.5645 5.39258C 38.9199 4.82617 39.4238 4.54297 40.0762 4.54297C 40.2871 4.54297 40.4473 4.57031 40.5566 4.625L 40.5566 5.63281ZM 45.2383 11C 45.1758 10.875 45.125 10.6523 45.0859 10.332C 44.582 10.8555 43.9805 11.1172 43.2812 11.1172C 42.6562 11.1172 42.1426 10.9414 41.7402 10.5898C 41.3418 10.2344 41.1426 9.78516 41.1426 9.24219C 41.1426 8.58203 41.3926 8.07031 41.8926 7.70703C 42.3965 7.33984 43.1035 7.15625 44.0137 7.15625L 45.0684 7.15625L 45.0684 6.6582C 45.0684 6.2793 44.9551 5.97852 44.7285 5.75586C 44.502 5.5293 44.168 5.41602 43.7266 5.41602C 43.3398 5.41602 43.0156 5.51367 42.7539 5.70898C 42.4922 5.9043 42.3613 6.14062 42.3613 6.41797L 41.2715 6.41797C 41.2715 6.10156 41.3828 5.79688 41.6055 5.50391C 41.832 5.20703 42.1367 4.97266 42.5195 4.80078C 42.9062 4.62891 43.3301 4.54297 43.791 4.54297C 44.5215 4.54297 45.0938 4.72656 45.5078 5.09375C 45.9219 5.45703 46.1367 5.95898 46.1523 6.59961L 46.1523 9.51758C 46.1523 10.0996 46.2266 10.5625 46.375 10.9062L 46.375 11L 45.2383 11ZM 43.4395 10.1738C 43.7793 10.1738 44.1016 10.0859 44.4062 9.91016C 44.7109 9.73438 44.9316 9.50586 45.0684 9.22461L 45.0684 7.92383L 44.2188 7.92383C 42.8906 7.92383 42.2266 8.3125 42.2266 9.08984C 42.2266 9.42969 42.3398 9.69531 42.5664 9.88672C 42.793 10.0781 43.084 10.1738 43.4395 10.1738ZM 49.3223 3.125L 49.3223 4.66016L 50.5059 4.66016L 50.5059 5.49805L 49.3223 5.49805L 49.3223 9.42969C 49.3223 9.68359 49.375 9.875 49.4805 10.0039C 49.5859 10.1289 49.7656 10.1914 50.0195 10.1914C 50.1445 10.1914 50.3164 10.168 50.5352 10.1211L 50.5352 11C 50.25 11.0781 49.9727 11.1172 49.7031 11.1172C 49.2188 11.1172 48.8535 10.9707 48.6074 10.6777C 48.3613 10.3848 48.2383 9.96875 48.2383 9.42969L 48.2383 5.49805L 47.084 5.49805L 47.084 4.66016L 48.2383 4.66016L 48.2383 3.125L 49.3223 3.125ZM 55.6914 10.373C 55.2695 10.8691 54.6504 11.1172 53.834 11.1172C 53.1582 11.1172 52.6426 10.9219 52.2871 10.5312C 51.9355 10.1367 51.7578 9.55469 51.7539 8.78516L 51.7539 4.66016L 52.8379 4.66016L 52.8379 8.75586C 52.8379 9.7168 53.2285 10.1973 54.0098 10.1973C 54.8379 10.1973 55.3887 9.88867 55.6621 9.27148L 55.6621 4.66016L 56.7461 4.66016L 56.7461 11L 55.7148 11L 55.6914 10.373ZM 61.4629 5.63281C 61.2988 5.60547 61.1211 5.5918 60.9297 5.5918C 60.2188 5.5918 59.7363 5.89453 59.4824 6.5L 59.4824 11L 58.3984 11L 58.3984 4.66016L 59.4531 4.66016L 59.4707 5.39258C 59.8262 4.82617 60.3301 4.54297 60.9824 4.54297C 61.1934 4.54297 61.3535 4.57031 61.4629 4.625L 61.4629 5.63281ZM 64.9785 11.1172C 64.1191 11.1172 63.4199 10.8359 62.8809 10.2734C 62.3418 9.70703 62.0723 8.95117 62.0723 8.00586L 62.0723 7.80664C 62.0723 7.17773 62.1914 6.61719 62.4297 6.125C 62.6719 5.62891 63.0078 5.24219 63.4375 4.96484C 63.8711 4.68359 64.3398 4.54297 64.8438 4.54297C 65.668 4.54297 66.3086 4.81445 66.7656 5.35742C 67.2227 5.90039 67.4512 6.67773 67.4512 7.68945L 67.4512 8.14062L 63.1562 8.14062C 63.1719 8.76562 63.3535 9.27148 63.7012 9.6582C 64.0527 10.041 64.498 10.2324 65.0371 10.2324C 65.4199 10.2324 65.7441 10.1543 66.0098 9.99805C 66.2754 9.8418 66.5078 9.63477 66.707 9.37695L 67.3691 9.89258C 66.8379 10.709 66.041 11.1172 64.9785 11.1172ZM 64.8438 5.43359C 64.4062 5.43359 64.0391 5.59375 63.7422 5.91406C 63.4453 6.23047 63.2617 6.67578 63.1914 7.25L 66.3672 7.25L 66.3672 7.16797C 66.3359 6.61719 66.1875 6.19141 65.9219 5.89062C 65.6562 5.58594 65.2969 5.43359 64.8438 5.43359ZM 10.75 21.5371C 10.75 20.6543 10.8672 19.8066 11.1016 18.9941C 11.3398 18.1816 11.6934 17.4434 12.1621 16.7793C 12.6309 16.1152 13.1172 15.6465 13.6211 15.373L 13.8438 16.0879C 13.2734 16.5254 12.8047 17.1934 12.4375 18.0918C 12.0742 18.9902 11.875 19.9961 11.8398 21.1094L 11.834 21.6074C 11.834 23.1152 12.1094 24.4238 12.6602 25.5332C 12.9922 26.1973 13.3867 26.7168 13.8438 27.0918L 13.6211 27.7539C 13.1016 27.4648 12.6055 26.9805 12.1328 26.3008C 11.2109 24.9727 10.75 23.3848 10.75 21.5371ZM 21.5312 22.1582C 21.4648 23.0762 21.125 23.7988 20.5117 24.3262C 19.9023 24.8535 19.0977 25.1172 18.0977 25.1172C 17.0039 25.1172 16.1426 24.75 15.5137 24.0156C 14.8887 23.2773 14.5762 22.2656 14.5762 20.9805L 14.5762 20.459C 14.5762 19.6387 14.7207 18.916 15.0098 18.291C 15.2988 17.666 15.7109 17.1875 16.2461 16.8555C 16.7852 16.5195 17.4102 16.3516 18.1211 16.3516C 19.1055 16.3516 19.8984 16.6152 20.5 17.1426C 21.1016 17.6699 21.4492 18.4102 21.543 19.3633L 19.7852 19.3633C 19.7422 18.8125 19.5879 18.4141 19.3223 18.168C 19.0605 17.918 18.6602 17.793 18.1211 17.793C 17.5352 17.793 17.0957 18.0039 16.8027 18.4258C 16.5137 18.8438 16.3652 19.4941 16.3574 20.377L 16.3574 21.0215C 16.3574 21.9434 16.4961 22.6172 16.7734 23.043C 17.0547 23.4688 17.4961 23.6816 18.0977 23.6816C 18.6406 23.6816 19.0449 23.5586 19.3105 23.3125C 19.5801 23.0625 19.7344 22.6777 19.7734 22.1582L 21.5312 22.1582ZM 25.4922 25.1172C 24.5625 25.1172 23.8047 24.832 23.2188 24.2617C 22.6367 23.6914 22.3457 22.9316 22.3457 21.9824L 22.3457 21.8184C 22.3457 21.1816 22.4688 20.6133 22.7148 20.1133C 22.9609 19.6094 23.3086 19.2227 23.7578 18.9531C 24.2109 18.6797 24.7266 18.543 25.3047 18.543C 26.1719 18.543 26.8535 18.8164 27.3496 19.3633C 27.8496 19.9102 28.0996 20.6855 28.0996 21.6895L 28.0996 22.3809L 24.0625 22.3809C 24.1172 22.7949 24.2812 23.127 24.5547 23.377C 24.832 23.627 25.1816 23.752 25.6035 23.752C 26.2559 23.752 26.7656 23.5156 27.1328 23.043L 27.9648 23.9746C 27.7109 24.334 27.3672 24.6152 26.9336 24.8184C 26.5 25.0176 26.0195 25.1172 25.4922 25.1172ZM 25.2988 19.9141C 24.9629 19.9141 24.6895 20.0273 24.4785 20.2539C 24.2715 20.4805 24.1387 20.8047 24.0801 21.2266L 26.4355 21.2266L 26.4355 21.0918C 26.4277 20.7168 26.3262 20.4277 26.1309 20.2246C 25.9355 20.0176 25.6582 19.9141 25.2988 19.9141ZM 30.8535 25L 29.1543 25L 29.1543 16L 30.8535 16L 30.8535 25ZM 35.6875 23.248C 35.6875 23.041 35.584 22.8789 35.377 22.7617C 35.1738 22.6406 34.8457 22.5332 34.3926 22.4395C 32.8848 22.123 32.1309 21.4824 32.1309 20.5176C 32.1309 19.9551 32.3633 19.4863 32.8281 19.1113C 33.2969 18.7324 33.9082 18.543 34.6621 18.543C 35.4668 18.543 36.1094 18.7324 36.5898 19.1113C 37.0742 19.4902 37.3164 19.9824 37.3164 20.5879L 35.623 20.5879C 35.623 20.3457 35.5449 20.1465 35.3887 19.9902C 35.2324 19.8301 34.9883 19.75 34.6562 19.75C 34.3711 19.75 34.1504 19.8145 33.9941 19.9434C 33.8379 20.0723 33.7598 20.2363 33.7598 20.4355C 33.7598 20.623 33.8477 20.7754 34.0234 20.8926C 34.2031 21.0059 34.5039 21.1055 34.9258 21.1914C 35.3477 21.2734 35.7031 21.3672 35.9922 21.4727C 36.8867 21.8008 37.334 22.3691 37.334 23.1777C 37.334 23.7559 37.0859 24.2246 36.5898 24.584C 36.0938 24.9395 35.4531 25.1172 34.668 25.1172C 34.1367 25.1172 33.6641 25.0234 33.25 24.8359C 32.8398 24.6445 32.5176 24.3848 32.2832 24.0566C 32.0488 23.7246 31.9316 23.3672 31.9316 22.9844L 33.5371 22.9844C 33.5527 23.2852 33.6641 23.5156 33.8711 23.6758C 34.0781 23.8359 34.3555 23.916 34.7031 23.916C 35.0273 23.916 35.2715 23.8555 35.4355 23.7344C 35.6035 23.6094 35.6875 23.4473 35.6875 23.248ZM 40.2168 25L 38.5176 25L 38.5176 18.6602L 40.2168 18.6602L 40.2168 25ZM 38.418 17.0195C 38.418 16.7656 38.502 16.5566 38.6699 16.3926C 38.8418 16.2285 39.0742 16.1465 39.3672 16.1465C 39.6562 16.1465 39.8867 16.2285 40.0586 16.3926C 40.2305 16.5566 40.3164 16.7656 40.3164 17.0195C 40.3164 17.2773 40.2285 17.4883 40.0527 17.6523C 39.8809 17.8164 39.6523 17.8984 39.3672 17.8984C 39.082 17.8984 38.8516 17.8164 38.6758 17.6523C 38.5039 17.4883 38.418 17.2773 38.418 17.0195ZM 45.4141 24.3555C 44.9961 24.8633 44.418 25.1172 43.6797 25.1172C 43 25.1172 42.4805 24.9219 42.1211 24.5312C 41.7656 24.1406 41.584 23.5684 41.5762 22.8145L 41.5762 18.6602L 43.2695 18.6602L 43.2695 22.7559C 43.2695 23.416 43.5703 23.7461 44.1719 23.7461C 44.7461 23.7461 45.1406 23.5469 45.3555 23.1484L 45.3555 18.6602L 47.0547 18.6602L 47.0547 25L 45.4609 25L 45.4141 24.3555ZM 51.7656 23.248C 51.7656 23.041 51.6621 22.8789 51.4551 22.7617C 51.252 22.6406 50.9238 22.5332 50.4707 22.4395C 48.9629 22.123 48.209 21.4824 48.209 20.5176C 48.209 19.9551 48.4414 19.4863 48.9062 19.1113C 49.375 18.7324 49.9863 18.543 50.7402 18.543C 51.5449 18.543 52.1875 18.7324 52.668 19.1113C 53.1523 19.4902 53.3945 19.9824 53.3945 20.5879L 51.7012 20.5879C 51.7012 20.3457 51.623 20.1465 51.4668 19.9902C 51.3105 19.8301 51.0664 19.75 50.7344 19.75C 50.4492 19.75 50.2285 19.8145 50.0723 19.9434C 49.916 20.0723 49.8379 20.2363 49.8379 20.4355C 49.8379 20.623 49.9258 20.7754 50.1016 20.8926C 50.2812 21.0059 50.582 21.1055 51.0039 21.1914C 51.4258 21.2734 51.7812 21.3672 52.0703 21.4727C 52.9648 21.8008 53.4121 22.3691 53.4121 23.1777C 53.4121 23.7559 53.1641 24.2246 52.668 24.584C 52.1719 24.9395 51.5312 25.1172 50.7461 25.1172C 50.2148 25.1172 49.7422 25.0234 49.3281 24.8359C 48.918 24.6445 48.5957 24.3848 48.3613 24.0566C 48.127 23.7246 48.0098 23.3672 48.0098 22.9844L 49.6152 22.9844C 49.6309 23.2852 49.7422 23.5156 49.9492 23.6758C 50.1562 23.8359 50.4336 23.916 50.7812 23.916C 51.1055 23.916 51.3496 23.8555 51.5137 23.7344C 51.6816 23.6094 51.7656 23.4473 51.7656 23.248ZM 57.1797 21.5957C 57.1797 22.4668 57.0645 23.3027 56.834 24.1035C 56.6074 24.9004 56.2578 25.6367 55.7852 26.3125C 55.3164 26.9883 54.8242 27.4688 54.3086 27.7539L 54.0801 27.0918C 54.6816 26.6309 55.1641 25.916 55.5273 24.9473C 55.8945 23.9746 56.082 22.8965 56.0898 21.7129L 56.0898 21.5254C 56.0898 20.7051 56.0039 19.9434 55.832 19.2402C 55.6602 18.5332 55.4199 17.9004 55.1113 17.3418C 54.8066 16.7832 54.4629 16.3477 54.0801 16.0352L 54.3086 15.373C 54.8242 15.6582 55.3145 16.1348 55.7793 16.8027C 56.248 17.4707 56.5977 18.207 56.8281 19.0117C 57.0625 19.8164 57.1797 20.6777 57.1797 21.5957Z"/>
<path id="path5_stroke" d="M 0 0L 18 0L 18 -1L 0 -1L 0 0Z"/>
<path id="path6_fill" d="M 3.36133 7.81836L 0.501953 7.81836L 0.501953 6.93359L 3.36133 6.93359L 3.36133 7.81836ZM 12.877 11L 7.28711 11L 7.28711 10.2207L 10.2402 6.93945C 10.6777 6.44336 10.9785 6.04102 11.1426 5.73242C 11.3105 5.41992 11.3945 5.09766 11.3945 4.76562C 11.3945 4.32031 11.2598 3.95508 10.9902 3.66992C 10.7207 3.38477 10.3613 3.24219 9.91211 3.24219C 9.37305 3.24219 8.95312 3.39648 8.65234 3.70508C 8.35547 4.00977 8.20703 4.43555 8.20703 4.98242L 7.12305 4.98242C 7.12305 4.19727 7.375 3.5625 7.87891 3.07812C 8.38672 2.59375 9.06445 2.35156 9.91211 2.35156C 10.7051 2.35156 11.332 2.56055 11.793 2.97852C 12.2539 3.39258 12.4844 3.94531 12.4844 4.63672C 12.4844 5.47656 11.9492 6.47656 10.8789 7.63672L 8.59375 10.1152L 12.877 10.1152L 12.877 11ZM 19.5332 3.07812L 16 11L 14.8633 11L 18.3848 3.35938L 13.7676 3.35938L 13.7676 2.46875L 19.5332 2.46875L 19.5332 3.07812ZM 22.3398 6.20703L 23.1543 6.20703C 23.666 6.19922 24.0684 6.06445 24.3613 5.80273C 24.6543 5.54102 24.8008 5.1875 24.8008 4.74219C 24.8008 3.74219 24.3027 3.24219 23.3066 3.24219C 22.8379 3.24219 22.4629 3.37695 22.1816 3.64648C 21.9043 3.91211 21.7656 4.26562 21.7656 4.70703L 20.6816 4.70703C 20.6816 4.03125 20.9277 3.4707 21.4199 3.02539C 21.916 2.57617 22.5449 2.35156 23.3066 2.35156C 24.1113 2.35156 24.7422 2.56445 25.1992 2.99023C 25.6562 3.41602 25.8848 4.00781 25.8848 4.76562C 25.8848 5.13672 25.7637 5.49609 25.5215 5.84375C 25.2832 6.19141 24.957 6.45117 24.543 6.62305C 25.0117 6.77148 25.373 7.01758 25.627 7.36133C 25.8848 7.70508 26.0137 8.125 26.0137 8.62109C 26.0137 9.38672 25.7637 9.99414 25.2637 10.4434C 24.7637 10.8926 24.1133 11.1172 23.3125 11.1172C 22.5117 11.1172 21.8594 10.9004 21.3555 10.4668C 20.8555 10.0332 20.6055 9.46094 20.6055 8.75L 21.6953 8.75C 21.6953 9.19922 21.8418 9.55859 22.1348 9.82812C 22.4277 10.0977 22.8203 10.2324 23.3125 10.2324C 23.8359 10.2324 24.2363 10.0957 24.5137 9.82227C 24.791 9.54883 24.9297 9.15625 24.9297 8.64453C 24.9297 8.14844 24.7773 7.76758 24.4727 7.50195C 24.168 7.23633 23.7285 7.09961 23.1543 7.0918L 22.3398 7.0918L 22.3398 6.20703ZM 27.6367 10.4316C 27.6367 10.2441 27.6914 10.0879 27.8008 9.96289C 27.9141 9.83789 28.082 9.77539 28.3047 9.77539C 28.5273 9.77539 28.6953 9.83789 28.8086 9.96289C 28.9258 10.0879 28.9844 10.2441 28.9844 10.4316C 28.9844 10.6113 28.9258 10.7617 28.8086 10.8828C 28.6953 11.0039 28.5273 11.0645 28.3047 11.0645C 28.082 11.0645 27.9141 11.0039 27.8008 10.8828C 27.6914 10.7617 27.6367 10.6113 27.6367 10.4316ZM 34.2285 11L 33.1387 11L 33.1387 3.77539L 30.9531 4.57812L 30.9531 3.59375L 34.0586 2.42773L 34.2285 2.42773L 34.2285 11ZM 37.9023 6.72266L 38.3359 2.46875L 42.707 2.46875L 42.707 3.4707L 39.2559 3.4707L 38.998 5.79688C 39.416 5.55078 39.8906 5.42773 40.4219 5.42773C 41.1992 5.42773 41.8164 5.68555 42.2734 6.20117C 42.7305 6.71289 42.959 7.40625 42.959 8.28125C 42.959 9.16016 42.7207 9.85352 42.2441 10.3613C 41.7715 10.8652 41.1094 11.1172 40.2578 11.1172C 39.5039 11.1172 38.8887 10.9082 38.4121 10.4902C 37.9355 10.0723 37.6641 9.49414 37.5977 8.75586L 38.623 8.75586C 38.6895 9.24414 38.8633 9.61328 39.1445 9.86328C 39.4258 10.1094 39.7969 10.2324 40.2578 10.2324C 40.7617 10.2324 41.1562 10.0605 41.4414 9.7168C 41.7305 9.37305 41.875 8.89844 41.875 8.29297C 41.875 7.72266 41.7188 7.26562 41.4062 6.92188C 41.0977 6.57422 40.6855 6.40039 40.1699 6.40039C 39.6973 6.40039 39.3262 6.50391 39.0566 6.71094L 38.7695 6.94531L 37.9023 6.72266ZM 47.1719 3.875C 47.1719 3.46875 47.3164 3.11328 47.6055 2.80859C 47.8984 2.50391 48.252 2.35156 48.666 2.35156C 49.0723 2.35156 49.418 2.50391 49.7031 2.80859C 49.9922 3.10937 50.1367 3.46484 50.1367 3.875C 50.1367 4.28906 49.9922 4.64258 49.7031 4.93555C 49.418 5.22852 49.0723 5.375 48.666 5.375C 48.2559 5.375 47.9043 5.22852 47.6113 4.93555C 47.3184 4.64258 47.1719 4.28906 47.1719 3.875ZM 48.666 4.625C 48.877 4.625 49.0547 4.55664 49.1992 4.41992C 49.3438 4.2793 49.416 4.09766 49.416 3.875C 49.416 3.64844 49.3438 3.46289 49.1992 3.31836C 49.0547 3.16992 48.877 3.0957 48.666 3.0957C 48.4512 3.0957 48.2695 3.17383 48.1211 3.33008C 47.9766 3.48242 47.9043 3.66406 47.9043 3.875C 47.9043 4.08594 47.9766 4.26367 48.1211 4.4082C 48.2695 4.55273 48.4512 4.625 48.666 4.625ZM 58.1641 8.29297C 58.0586 9.19531 57.7246 9.89258 57.1621 10.3848C 56.6035 10.873 55.8594 11.1172 54.9297 11.1172C 53.9219 11.1172 53.1133 10.7559 52.5039 10.0332C 51.8984 9.31055 51.5957 8.34375 51.5957 7.13281L 51.5957 6.3125C 51.5957 5.51953 51.7363 4.82227 52.0176 4.2207C 52.3027 3.61914 52.7051 3.1582 53.2246 2.83789C 53.7441 2.51367 54.3457 2.35156 55.0293 2.35156C 55.9355 2.35156 56.6621 2.60547 57.209 3.11328C 57.7559 3.61719 58.0742 4.31641 58.1641 5.21094L 57.0332 5.21094C 56.9355 4.53125 56.7227 4.03906 56.3945 3.73438C 56.0703 3.42969 55.6152 3.27734 55.0293 3.27734C 54.3105 3.27734 53.7461 3.54297 53.3359 4.07422C 52.9297 4.60547 52.7266 5.36133 52.7266 6.3418L 52.7266 7.16797C 52.7266 8.09375 52.9199 8.83008 53.3066 9.37695C 53.6934 9.92383 54.2344 10.1973 54.9297 10.1973C 55.5547 10.1973 56.0332 10.0566 56.3652 9.77539C 56.7012 9.49023 56.9238 8.99609 57.0332 8.29297L 58.1641 8.29297Z"/>
<path id="path7_fill" d="M 3.44141 7.81836L 0.582031 7.81836L 0.582031 6.93359L 3.44141 6.93359L 3.44141 7.81836ZM 8.9668 8.13477L 10.1504 8.13477L 10.1504 9.01953L 8.9668 9.01953L 8.9668 11L 7.87695 11L 7.87695 9.01953L 3.99219 9.01953L 3.99219 8.38086L 7.8125 2.46875L 8.9668 2.46875L 8.9668 8.13477ZM 5.22266 8.13477L 7.87695 8.13477L 7.87695 3.95117L 7.74805 4.18555L 5.22266 8.13477ZM 11.627 6.72266L 12.0605 2.46875L 16.4316 2.46875L 16.4316 3.4707L 12.9805 3.4707L 12.7227 5.79688C 13.1406 5.55078 13.6152 5.42773 14.1465 5.42773C 14.9238 5.42773 15.541 5.68555 15.998 6.20117C 16.4551 6.71289 16.6836 7.40625 16.6836 8.28125C 16.6836 9.16016 16.4453 9.85352 15.9688 10.3613C 15.4961 10.8652 14.834 11.1172 13.9824 11.1172C 13.2285 11.1172 12.6133 10.9082 12.1367 10.4902C 11.6602 10.0723 11.3887 9.49414 11.3223 8.75586L 12.3477 8.75586C 12.4141 9.24414 12.5879 9.61328 12.8691 9.86328C 13.1504 10.1094 13.5215 10.2324 13.9824 10.2324C 14.4863 10.2324 14.8809 10.0605 15.166 9.7168C 15.4551 9.37305 15.5996 8.89844 15.5996 8.29297C 15.5996 7.72266 15.4434 7.26562 15.1309 6.92188C 14.8223 6.57422 14.4102 6.40039 13.8945 6.40039C 13.4219 6.40039 13.0508 6.50391 12.7812 6.71094L 12.4941 6.94531L 11.627 6.72266ZM 22.0215 7.25C 21.7949 7.51953 21.5234 7.73633 21.207 7.90039C 20.8945 8.06445 20.5508 8.14648 20.1758 8.14648C 19.6836 8.14648 19.2539 8.02539 18.8867 7.7832C 18.5234 7.54102 18.2422 7.20117 18.043 6.76367C 17.8438 6.32227 17.7441 5.83594 17.7441 5.30469C 17.7441 4.73438 17.8516 4.2207 18.0664 3.76367C 18.2852 3.30664 18.5938 2.95703 18.9922 2.71484C 19.3906 2.47266 19.8555 2.35156 20.3867 2.35156C 21.2305 2.35156 21.8945 2.66797 22.3789 3.30078C 22.8672 3.92969 23.1113 4.78906 23.1113 5.87891L 23.1113 6.19531C 23.1113 7.85547 22.7832 9.06836 22.127 9.83398C 21.4707 10.5957 20.4805 10.9863 19.1562 11.0059L 18.9453 11.0059L 18.9453 10.0918L 19.1738 10.0918C 20.0684 10.0762 20.7559 9.84375 21.2363 9.39453C 21.7168 8.94141 21.9785 8.22656 22.0215 7.25ZM 20.3516 7.25C 20.7148 7.25 21.0488 7.13867 21.3535 6.91602C 21.6621 6.69336 21.8867 6.41797 22.0273 6.08984L 22.0273 5.65625C 22.0273 4.94531 21.873 4.36719 21.5645 3.92188C 21.2559 3.47656 20.8652 3.25391 20.3926 3.25391C 19.916 3.25391 19.5332 3.4375 19.2441 3.80469C 18.9551 4.16797 18.8105 4.64844 18.8105 5.24609C 18.8105 5.82812 18.9492 6.30859 19.2266 6.6875C 19.5078 7.0625 19.8828 7.25 20.3516 7.25ZM 24.7402 10.4316C 24.7402 10.2441 24.7949 10.0879 24.9043 9.96289C 25.0176 9.83789 25.1855 9.77539 25.4082 9.77539C 25.6309 9.77539 25.7988 9.83789 25.9121 9.96289C 26.0293 10.0879 26.0879 10.2441 26.0879 10.4316C 26.0879 10.6113 26.0293 10.7617 25.9121 10.8828C 25.7988 11.0039 25.6309 11.0645 25.4082 11.0645C 25.1855 11.0645 25.0176 11.0039 24.9043 10.8828C 24.7949 10.7617 24.7402 10.6113 24.7402 10.4316ZM 32.0234 2.46289L 32.0234 3.38281L 31.8242 3.38281C 30.9805 3.39844 30.3086 3.64844 29.8086 4.13281C 29.3086 4.61719 29.0195 5.29883 28.9414 6.17773C 29.3906 5.66211 30.0039 5.4043 30.7812 5.4043C 31.5234 5.4043 32.1152 5.66602 32.5566 6.18945C 33.002 6.71289 33.2246 7.38867 33.2246 8.2168C 33.2246 9.0957 32.9844 9.79883 32.5039 10.3262C 32.0273 10.8535 31.3867 11.1172 30.582 11.1172C 29.7656 11.1172 29.1035 10.8047 28.5957 10.1797C 28.0879 9.55078 27.834 8.74219 27.834 7.75391L 27.834 7.33789C 27.834 5.76758 28.168 4.56836 28.8359 3.74023C 29.5078 2.9082 30.5059 2.48242 31.8301 2.46289L 32.0234 2.46289ZM 30.5996 6.30664C 30.2285 6.30664 29.8867 6.41797 29.5742 6.64062C 29.2617 6.86328 29.0449 7.14258 28.9238 7.47852L 28.9238 7.87695C 28.9238 8.58008 29.082 9.14648 29.3984 9.57617C 29.7148 10.0059 30.1094 10.2207 30.582 10.2207C 31.0703 10.2207 31.4531 10.041 31.7305 9.68164C 32.0117 9.32227 32.1523 8.85156 32.1523 8.26953C 32.1523 7.68359 32.0098 7.21094 31.7246 6.85156C 31.4434 6.48828 31.0684 6.30664 30.5996 6.30664ZM 40.0156 3.07812L 36.4824 11L 35.3457 11L 38.8672 3.35938L 34.25 3.35938L 34.25 2.46875L 40.0156 2.46875L 40.0156 3.07812ZM 44.2754 3.875C 44.2754 3.46875 44.4199 3.11328 44.709 2.80859C 45.002 2.50391 45.3555 2.35156 45.7695 2.35156C 46.1758 2.35156 46.5215 2.50391 46.8066 2.80859C 47.0957 3.10937 47.2402 3.46484 47.2402 3.875C 47.2402 4.28906 47.0957 4.64258 46.8066 4.93555C 46.5215 5.22852 46.1758 5.375 45.7695 5.375C 45.3594 5.375 45.0078 5.22852 44.7148 4.93555C 44.4219 4.64258 44.2754 4.28906 44.2754 3.875ZM 45.7695 4.625C 45.9805 4.625 46.1582 4.55664 46.3027 4.41992C 46.4473 4.2793 46.5195 4.09766 46.5195 3.875C 46.5195 3.64844 46.4473 3.46289 46.3027 3.31836C 46.1582 3.16992 45.9805 3.0957 45.7695 3.0957C 45.5547 3.0957 45.373 3.17383 45.2246 3.33008C 45.0801 3.48242 45.0078 3.66406 45.0078 3.875C 45.0078 4.08594 45.0801 4.26367 45.2246 4.4082C 45.373 4.55273 45.5547 4.625 45.7695 4.625ZM 53.6973 7.23242L 50.1172 7.23242L 50.1172 11L 48.9922 11L 48.9922 2.46875L 54.2773 2.46875L 54.2773 3.39453L 50.1172 3.39453L 50.1172 6.3125L 53.6973 6.3125L 53.6973 7.23242Z"/>
<path id="path8_fill" d="M 6.43945 7.36133C 6.43945 8.63086 6.22266 9.57422 5.78906 10.1914C 5.35547 10.8086 4.67773 11.1172 3.75586 11.1172C 2.8457 11.1172 2.17188 10.8164 1.73438 10.2148C 1.29688 9.60938 1.07031 8.70703 1.05469 7.50781L 1.05469 6.06055C 1.05469 4.80664 1.27148 3.875 1.70508 3.26562C 2.13867 2.65625 2.81836 2.35156 3.74414 2.35156C 4.66211 2.35156 5.33789 2.64648 5.77148 3.23633C 6.20508 3.82227 6.42773 4.72852 6.43945 5.95508L 6.43945 7.36133ZM 5.35547 5.87891C 5.35547 4.96094 5.22656 4.29297 4.96875 3.875C 4.71094 3.45312 4.30273 3.24219 3.74414 3.24219C 3.18945 3.24219 2.78516 3.45117 2.53125 3.86914C 2.27734 4.28711 2.14648 4.92969 2.13867 5.79688L 2.13867 7.53125C 2.13867 8.45312 2.27148 9.13477 2.53711 9.57617C 2.80664 10.0137 3.21289 10.2324 3.75586 10.2324C 4.29102 10.2324 4.6875 10.0254 4.94531 9.61133C 5.20703 9.19727 5.34375 8.54492 5.35547 7.6543L 5.35547 5.87891ZM 13.2539 7.0332L 12.2109 8.11719L 12.2109 11L 11.0859 11L 11.0859 2.46875L 12.2109 2.46875L 12.2109 6.6875L 16.002 2.46875L 17.3613 2.46875L 14.0039 6.23633L 17.625 11L 16.2773 11L 13.2539 7.0332Z"/>
<path id="path9_fill" d="M 6.54883 7.36133C 6.54883 8.63086 6.33203 9.57422 5.89844 10.1914C 5.46484 10.8086 4.78711 11.1172 3.86523 11.1172C 2.95508 11.1172 2.28125 10.8164 1.84375 10.2148C 1.40625 9.60938 1.17969 8.70703 1.16406 7.50781L 1.16406 6.06055C 1.16406 4.80664 1.38086 3.875 1.81445 3.26562C 2.24805 2.65625 2.92773 2.35156 3.85352 2.35156C 4.77148 2.35156 5.44727 2.64648 5.88086 3.23633C 6.31445 3.82227 6.53711 4.72852 6.54883 5.95508L 6.54883 7.36133ZM 5.46484 5.87891C 5.46484 4.96094 5.33594 4.29297 5.07812 3.875C 4.82031 3.45312 4.41211 3.24219 3.85352 3.24219C 3.29883 3.24219 2.89453 3.45117 2.64062 3.86914C 2.38672 4.28711 2.25586 4.92969 2.24805 5.79688L 2.24805 7.53125C 2.24805 8.45312 2.38086 9.13477 2.64648 9.57617C 2.91602 10.0137 3.32227 10.2324 3.86523 10.2324C 4.40039 10.2324 4.79688 10.0254 5.05469 9.61133C 5.31641 9.19727 5.45312 8.54492 5.46484 7.6543L 5.46484 5.87891ZM 10.9668 3.875C 10.9668 3.46875 11.1113 3.11328 11.4004 2.80859C 11.6934 2.50391 12.0469 2.35156 12.4609 2.35156C 12.8672 2.35156 13.2129 2.50391 13.498 2.80859C 13.7871 3.10937 13.9316 3.46484 13.9316 3.875C 13.9316 4.28906 13.7871 4.64258 13.498 4.93555C 13.2129 5.22852 12.8672 5.375 12.4609 5.375C 12.0508 5.375 11.6992 5.22852 11.4062 4.93555C 11.1133 4.64258 10.9668 4.28906 10.9668 3.875ZM 12.4609 4.625C 12.6719 4.625 12.8496 4.55664 12.9941 4.41992C 13.1387 4.2793 13.2109 4.09766 13.2109 3.875C 13.2109 3.64844 13.1387 3.46289 12.9941 3.31836C 12.8496 3.16992 12.6719 3.0957 12.4609 3.0957C 12.2461 3.0957 12.0645 3.17383 11.916 3.33008C 11.7715 3.48242 11.6992 3.66406 11.6992 3.875C 11.6992 4.08594 11.7715 4.26367 11.916 4.4082C 12.0645 4.55273 12.2461 4.625 12.4609 4.625ZM 21.959 8.29297C 21.8535 9.19531 21.5195 9.89258 20.957 10.3848C 20.3984 10.873 19.6543 11.1172 18.7246 11.1172C 17.7168 11.1172 16.9082 10.7559 16.2988 10.0332C 15.6934 9.31055 15.3906 8.34375 15.3906 7.13281L 15.3906 6.3125C 15.3906 5.51953 15.5312 4.82227 15.8125 4.2207C 16.0977 3.61914 16.5 3.1582 17.0195 2.83789C 17.5391 2.51367 18.1406 2.35156 18.8242 2.35156C 19.7305 2.35156 20.457 2.60547 21.0039 3.11328C 21.5508 3.61719 21.8691 4.31641 21.959 5.21094L 20.8281 5.21094C 20.7305 4.53125 20.5176 4.03906 20.1895 3.73438C 19.8652 3.42969 19.4102 3.27734 18.8242 3.27734C 18.1055 3.27734 17.541 3.54297 17.1309 4.07422C 16.7246 4.60547 16.5215 5.36133 16.5215 6.3418L 16.5215 7.16797C 16.5215 8.09375 16.7148 8.83008 17.1016 9.37695C 17.4883 9.92383 18.0293 10.1973 18.7246 10.1973C 19.3496 10.1973 19.8281 10.0566 20.1602 9.77539C 20.4961 9.49023 20.7188 8.99609 20.8281 8.29297L 21.959 8.29297Z"/>
<path id="path10_fill" d="M 6.62109 11L 1.03125 11L 1.03125 10.2207L 3.98438 6.93945C 4.42188 6.44336 4.72266 6.04102 4.88672 5.73242C 5.05469 5.41992 5.13867 5.09766 5.13867 4.76562C 5.13867 4.32031 5.00391 3.95508 4.73438 3.66992C 4.46484 3.38477 4.10547 3.24219 3.65625 3.24219C 3.11719 3.24219 2.69727 3.39648 2.39648 3.70508C 2.09961 4.00977 1.95117 4.43555 1.95117 4.98242L 0.867188 4.98242C 0.867188 4.19727 1.11914 3.5625 1.62305 3.07812C 2.13086 2.59375 2.80859 2.35156 3.65625 2.35156C 4.44922 2.35156 5.07617 2.56055 5.53711 2.97852C 5.99805 3.39258 6.22852 3.94531 6.22852 4.63672C 6.22852 5.47656 5.69336 6.47656 4.62305 7.63672L 2.33789 10.1152L 6.62109 10.1152L 6.62109 11ZM 13.2773 3.07812L 9.74414 11L 8.60742 11L 12.1289 3.35938L 7.51172 3.35938L 7.51172 2.46875L 13.2773 2.46875L 13.2773 3.07812ZM 16.084 6.20703L 16.8984 6.20703C 17.4102 6.19922 17.8125 6.06445 18.1055 5.80273C 18.3984 5.54102 18.5449 5.1875 18.5449 4.74219C 18.5449 3.74219 18.0469 3.24219 17.0508 3.24219C 16.582 3.24219 16.207 3.37695 15.9258 3.64648C 15.6484 3.91211 15.5098 4.26562 15.5098 4.70703L 14.4258 4.70703C 14.4258 4.03125 14.6719 3.4707 15.1641 3.02539C 15.6602 2.57617 16.2891 2.35156 17.0508 2.35156C 17.8555 2.35156 18.4863 2.56445 18.9434 2.99023C 19.4004 3.41602 19.6289 4.00781 19.6289 4.76562C 19.6289 5.13672 19.5078 5.49609 19.2656 5.84375C 19.0273 6.19141 18.7012 6.45117 18.2871 6.62305C 18.7559 6.77148 19.1172 7.01758 19.3711 7.36133C 19.6289 7.70508 19.7578 8.125 19.7578 8.62109C 19.7578 9.38672 19.5078 9.99414 19.0078 10.4434C 18.5078 10.8926 17.8574 11.1172 17.0566 11.1172C 16.2559 11.1172 15.6035 10.9004 15.0996 10.4668C 14.5996 10.0332 14.3496 9.46094 14.3496 8.75L 15.4395 8.75C 15.4395 9.19922 15.5859 9.55859 15.8789 9.82812C 16.1719 10.0977 16.5645 10.2324 17.0566 10.2324C 17.5801 10.2324 17.9805 10.0957 18.2578 9.82227C 18.5352 9.54883 18.6738 9.15625 18.6738 8.64453C 18.6738 8.14844 18.5215 7.76758 18.2168 7.50195C 17.9121 7.23633 17.4727 7.09961 16.8984 7.0918L 16.084 7.0918L 16.084 6.20703ZM 21.3809 10.4316C 21.3809 10.2441 21.4355 10.0879 21.5449 9.96289C 21.6582 9.83789 21.8262 9.77539 22.0488 9.77539C 22.2715 9.77539 22.4395 9.83789 22.5527 9.96289C 22.6699 10.0879 22.7285 10.2441 22.7285 10.4316C 22.7285 10.6113 22.6699 10.7617 22.5527 10.8828C 22.4395 11.0039 22.2715 11.0645 22.0488 11.0645C 21.8262 11.0645 21.6582 11.0039 21.5449 10.8828C 21.4355 10.7617 21.3809 10.6113 21.3809 10.4316ZM 27.9727 11L 26.8828 11L 26.8828 3.77539L 24.6973 4.57812L 24.6973 3.59375L 27.8027 2.42773L 27.9727 2.42773L 27.9727 11ZM 31.6465 6.72266L 32.0801 2.46875L 36.4512 2.46875L 36.4512 3.4707L 33 3.4707L 32.7422 5.79688C 33.1602 5.55078 33.6348 5.42773 34.166 5.42773C 34.9434 5.42773 35.5605 5.68555 36.0176 6.20117C 36.4746 6.71289 36.7031 7.40625 36.7031 8.28125C 36.7031 9.16016 36.4648 9.85352 35.9883 10.3613C 35.5156 10.8652 34.8535 11.1172 34.002 11.1172C 33.248 11.1172 32.6328 10.9082 32.1562 10.4902C 31.6797 10.0723 31.4082 9.49414 31.3418 8.75586L 32.3672 8.75586C 32.4336 9.24414 32.6074 9.61328 32.8887 9.86328C 33.1699 10.1094 33.541 10.2324 34.002 10.2324C 34.5059 10.2324 34.9004 10.0605 35.1855 9.7168C 35.4746 9.37305 35.6191 8.89844 35.6191 8.29297C 35.6191 7.72266 35.4629 7.26562 35.1504 6.92188C 34.8418 6.57422 34.4297 6.40039 33.9141 6.40039C 33.4414 6.40039 33.0703 6.50391 32.8008 6.71094L 32.5137 6.94531L 31.6465 6.72266ZM 43.3125 7.0332L 42.2695 8.11719L 42.2695 11L 41.1445 11L 41.1445 2.46875L 42.2695 2.46875L 42.2695 6.6875L 46.0605 2.46875L 47.4199 2.46875L 44.0625 6.23633L 47.6836 11L 46.3359 11L 43.3125 7.0332Z"/>
<path id="path11_fill" d="M 6.14062 7.36133C 6.14062 8.63086 5.92383 9.57422 5.49023 10.1914C 5.05664 10.8086 4.37891 11.1172 3.45703 11.1172C 2.54688 11.1172 1.87305 10.8164 1.43555 10.2148C 0.998047 9.60938 0.771484 8.70703 0.755859 7.50781L 0.755859 6.06055C 0.755859 4.80664 0.972656 3.875 1.40625 3.26562C 1.83984 2.65625 2.51953 2.35156 3.44531 2.35156C 4.36328 2.35156 5.03906 2.64648 5.47266 3.23633C 5.90625 3.82227 6.12891 4.72852 6.14062 5.95508L 6.14062 7.36133ZM 5.05664 5.87891C 5.05664 4.96094 4.92773 4.29297 4.66992 3.875C 4.41211 3.45312 4.00391 3.24219 3.44531 3.24219C 2.89062 3.24219 2.48633 3.45117 2.23242 3.86914C 1.97852 4.28711 1.84766 4.92969 1.83984 5.79688L 1.83984 7.53125C 1.83984 8.45312 1.97266 9.13477 2.23828 9.57617C 2.50781 10.0137 2.91406 10.2324 3.45703 10.2324C 3.99219 10.2324 4.38867 10.0254 4.64648 9.61133C 4.9082 9.19727 5.04492 8.54492 5.05664 7.6543L 5.05664 5.87891ZM 10.5586 3.875C 10.5586 3.46875 10.7031 3.11328 10.9922 2.80859C 11.2852 2.50391 11.6387 2.35156 12.0527 2.35156C 12.459 2.35156 12.8047 2.50391 13.0898 2.80859C 13.3789 3.10937 13.5234 3.46484 13.5234 3.875C 13.5234 4.28906 13.3789 4.64258 13.0898 4.93555C 12.8047 5.22852 12.459 5.375 12.0527 5.375C 11.6426 5.375 11.291 5.22852 10.998 4.93555C 10.7051 4.64258 10.5586 4.28906 10.5586 3.875ZM 12.0527 4.625C 12.2637 4.625 12.4414 4.55664 12.5859 4.41992C 12.7305 4.2793 12.8027 4.09766 12.8027 3.875C 12.8027 3.64844 12.7305 3.46289 12.5859 3.31836C 12.4414 3.16992 12.2637 3.0957 12.0527 3.0957C 11.8379 3.0957 11.6562 3.17383 11.5078 3.33008C 11.3633 3.48242 11.291 3.66406 11.291 3.875C 11.291 4.08594 11.3633 4.26367 11.5078 4.4082C 11.6562 4.55273 11.8379 4.625 12.0527 4.625ZM 19.9805 7.23242L 16.4004 7.23242L 16.4004 11L 15.2754 11L 15.2754 2.46875L 20.5605 2.46875L 20.5605 3.39453L 16.4004 3.39453L 16.4004 6.3125L 19.9805 6.3125L 19.9805 7.23242Z"/>
<path id="path12_fill" d="M 6.62109 11L 1.03125 11L 1.03125 10.2207L 3.98438 6.93945C 4.42188 6.44336 4.72266 6.04102 4.88672 5.73242C 5.05469 5.41992 5.13867 5.09766 5.13867 4.76562C 5.13867 4.32031 5.00391 3.95508 4.73438 3.66992C 4.46484 3.38477 4.10547 3.24219 3.65625 3.24219C 3.11719 3.24219 2.69727 3.39648 2.39648 3.70508C 2.09961 4.00977 1.95117 4.43555 1.95117 4.98242L 0.867188 4.98242C 0.867188 4.19727 1.11914 3.5625 1.62305 3.07812C 2.13086 2.59375 2.80859 2.35156 3.65625 2.35156C 4.44922 2.35156 5.07617 2.56055 5.53711 2.97852C 5.99805 3.39258 6.22852 3.94531 6.22852 4.63672C 6.22852 5.47656 5.69336 6.47656 4.62305 7.63672L 2.33789 10.1152L 6.62109 10.1152L 6.62109 11ZM 8.26758 6.72266L 8.70117 2.46875L 13.0723 2.46875L 13.0723 3.4707L 9.62109 3.4707L 9.36328 5.79688C 9.78125 5.55078 10.2559 5.42773 10.7871 5.42773C 11.5645 5.42773 12.1816 5.68555 12.6387 6.20117C 13.0957 6.71289 13.3242 7.40625 13.3242 8.28125C 13.3242 9.16016 13.0859 9.85352 12.6094 10.3613C 12.1367 10.8652 11.4746 11.1172 10.623 11.1172C 9.86914 11.1172 9.25391 10.9082 8.77734 10.4902C 8.30078 10.0723 8.0293 9.49414 7.96289 8.75586L 8.98828 8.75586C 9.05469 9.24414 9.22852 9.61328 9.50977 9.86328C 9.79102 10.1094 10.1621 10.2324 10.623 10.2324C 11.127 10.2324 11.5215 10.0605 11.8066 9.7168C 12.0957 9.37305 12.2402 8.89844 12.2402 8.29297C 12.2402 7.72266 12.084 7.26562 11.7715 6.92188C 11.4629 6.57422 11.0508 6.40039 10.5352 6.40039C 10.0625 6.40039 9.69141 6.50391 9.42188 6.71094L 9.13477 6.94531L 8.26758 6.72266ZM 15.0059 6.72266L 15.4395 2.46875L 19.8105 2.46875L 19.8105 3.4707L 16.3594 3.4707L 16.1016 5.79688C 16.5195 5.55078 16.9941 5.42773 17.5254 5.42773C 18.3027 5.42773 18.9199 5.68555 19.377 6.20117C 19.834 6.71289 20.0625 7.40625 20.0625 8.28125C 20.0625 9.16016 19.8242 9.85352 19.3477 10.3613C 18.875 10.8652 18.2129 11.1172 17.3613 11.1172C 16.6074 11.1172 15.9922 10.9082 15.5156 10.4902C 15.0391 10.0723 14.7676 9.49414 14.7012 8.75586L 15.7266 8.75586C 15.793 9.24414 15.9668 9.61328 16.248 9.86328C 16.5293 10.1094 16.9004 10.2324 17.3613 10.2324C 17.8652 10.2324 18.2598 10.0605 18.5449 9.7168C 18.834 9.37305 18.9785 8.89844 18.9785 8.29297C 18.9785 7.72266 18.8223 7.26562 18.5098 6.92188C 18.2012 6.57422 17.7891 6.40039 17.2734 6.40039C 16.8008 6.40039 16.4297 6.50391 16.1602 6.71094L 15.873 6.94531L 15.0059 6.72266ZM 21.3809 10.4316C 21.3809 10.2441 21.4355 10.0879 21.5449 9.96289C 21.6582 9.83789 21.8262 9.77539 22.0488 9.77539C 22.2715 9.77539 22.4395 9.83789 22.5527 9.96289C 22.6699 10.0879 22.7285 10.2441 22.7285 10.4316C 22.7285 10.6113 22.6699 10.7617 22.5527 10.8828C 22.4395 11.0039 22.2715 11.0645 22.0488 11.0645C 21.8262 11.0645 21.6582 11.0039 21.5449 10.8828C 21.4355 10.7617 21.3809 10.6113 21.3809 10.4316ZM 25.9863 6.20703L 26.8008 6.20703C 27.3125 6.19922 27.7148 6.06445 28.0078 5.80273C 28.3008 5.54102 28.4473 5.1875 28.4473 4.74219C 28.4473 3.74219 27.9492 3.24219 26.9531 3.24219C 26.4844 3.24219 26.1094 3.37695 25.8281 3.64648C 25.5508 3.91211 25.4121 4.26562 25.4121 4.70703L 24.3281 4.70703C 24.3281 4.03125 24.5742 3.4707 25.0664 3.02539C 25.5625 2.57617 26.1914 2.35156 26.9531 2.35156C 27.7578 2.35156 28.3887 2.56445 28.8457 2.99023C 29.3027 3.41602 29.5312 4.00781 29.5312 4.76562C 29.5312 5.13672 29.4102 5.49609 29.168 5.84375C 28.9297 6.19141 28.6035 6.45117 28.1895 6.62305C 28.6582 6.77148 29.0195 7.01758 29.2734 7.36133C 29.5312 7.70508 29.6602 8.125 29.6602 8.62109C 29.6602 9.38672 29.4102 9.99414 28.9102 10.4434C 28.4102 10.8926 27.7598 11.1172 26.959 11.1172C 26.1582 11.1172 25.5059 10.9004 25.002 10.4668C 24.502 10.0332 24.252 9.46094 24.252 8.75L 25.3418 8.75C 25.3418 9.19922 25.4883 9.55859 25.7812 9.82812C 26.0742 10.0977 26.4668 10.2324 26.959 10.2324C 27.4824 10.2324 27.8828 10.0957 28.1602 9.82227C 28.4375 9.54883 28.5762 9.15625 28.5762 8.64453C 28.5762 8.14844 28.4238 7.76758 28.1191 7.50195C 27.8145 7.23633 27.375 7.09961 26.8008 7.0918L 25.9863 7.0918L 25.9863 6.20703ZM 36.6562 3.07812L 33.123 11L 31.9863 11L 35.5078 3.35938L 30.8906 3.35938L 30.8906 2.46875L 36.6562 2.46875L 36.6562 3.07812ZM 43.3125 7.0332L 42.2695 8.11719L 42.2695 11L 41.1445 11L 41.1445 2.46875L 42.2695 2.46875L 42.2695 6.6875L 46.0605 2.46875L 47.4199 2.46875L 44.0625 6.23633L 47.6836 11L 46.3359 11L 43.3125 7.0332Z"/>
<path id="path13_stroke" d="M 0 0L 0.9375 0L 0.9375 -1L 0 -1L 0 0ZM 2.8125 0L 4.6875 0L 4.6875 -1L 2.8125 -1L 2.8125 0ZM 6.5625 0L 8.4375 0L 8.4375 -1L 6.5625 -1L 6.5625 0ZM 10.3125 0L 12.1875 0L 12.1875 -1L 10.3125 -1L 10.3125 0ZM 14.0625 0L 15.9375 0L 15.9375 -1L 14.0625 -1L 14.0625 0ZM 17.8125 0L 19.6875 0L 19.6875 -1L 17.8125 -1L 17.8125 0ZM 21.5625 0L 23.4375 0L 23.4375 -1L 21.5625 -1L 21.5625 0ZM 25.3125 0L 27.1875 0L 27.1875 -1L 25.3125 -1L 25.3125 0ZM 29.0625 0L 30 0L 30 -1L 29.0625 -1L 29.0625 0Z"/>
</defs>
</svg>
