<svg width="653" height="182" viewBox="0 0 653 182" fill="none" xmlns="http://www.w3.org/2000/svg">
<rect width="653" height="182" fill="white"/>
<rect width="192" height="182" fill="black"/>
<path d="M10.7118 134.611C10.9018 134.611 11.0818 134.581 11.2518 134.521C11.4318 134.461 11.5868 134.371 11.7168 134.251C11.8568 134.121 11.9668 133.961 12.0468 133.771C12.1268 133.571 12.1668 133.336 12.1668 133.066C12.1668 132.576 12.0368 132.226 11.7768 132.016C11.5168 131.796 11.1768 131.686 10.7568 131.686C10.4768 131.686 10.1868 131.756 9.88683 131.896C9.58683 132.036 9.29183 132.276 9.00183 132.616C9.06183 132.996 9.14683 133.316 9.25683 133.576C9.37683 133.826 9.51183 134.031 9.66183 134.191C9.81183 134.341 9.97683 134.451 10.1568 134.521C10.3368 134.581 10.5218 134.611 10.7118 134.611ZM12.8868 128.836C12.6868 128.656 12.4368 128.501 12.1368 128.371C11.8368 128.231 11.5268 128.161 11.2068 128.161C10.9168 128.161 10.6368 128.216 10.3668 128.326C10.1068 128.426 9.87183 128.596 9.66183 128.836C9.46183 129.066 9.29683 129.371 9.16683 129.751C9.03683 130.131 8.96183 130.601 8.94183 131.161C9.28183 130.831 9.65683 130.576 10.0668 130.396C10.4868 130.216 10.8768 130.126 11.2368 130.126C11.6568 130.126 12.0418 130.186 12.3918 130.306C12.7518 130.426 13.0618 130.606 13.3218 130.846C13.5918 131.086 13.8018 131.391 13.9518 131.761C14.1018 132.131 14.1768 132.566 14.1768 133.066C14.1768 133.566 14.0818 134.011 13.8918 134.401C13.7118 134.791 13.4618 135.126 13.1418 135.406C12.8318 135.686 12.4718 135.901 12.0618 136.051C11.6518 136.191 11.2168 136.261 10.7568 136.261C10.2668 136.261 9.79183 136.171 9.33183 135.991C8.87183 135.811 8.46183 135.531 8.10183 135.151C7.74183 134.771 7.45183 134.286 7.23183 133.696C7.01183 133.096 6.90183 132.376 6.90183 131.536C6.90183 130.646 7.01683 129.876 7.24683 129.226C7.47683 128.576 7.78183 128.041 8.16183 127.621C8.55183 127.201 8.99183 126.891 9.48183 126.691C9.97183 126.481 10.4818 126.376 11.0118 126.376C11.6918 126.376 12.2868 126.491 12.7968 126.721C13.3068 126.941 13.7218 127.206 14.0418 127.516L12.8868 128.836ZM7.68183 152.531C8.00183 152.791 8.34183 153.016 8.70183 153.206C9.07183 153.386 9.48183 153.476 9.93183 153.476C10.4718 153.476 10.9118 153.351 11.2518 153.101C11.6018 152.851 11.7768 152.481 11.7768 151.991C11.7768 151.511 11.6118 151.146 11.2818 150.896C10.9618 150.646 10.5468 150.521 10.0368 150.521C9.87683 150.521 9.73183 150.531 9.60183 150.551C9.48183 150.561 9.36183 150.586 9.24183 150.626C9.12183 150.666 8.99683 150.716 8.86683 150.776C8.73683 150.836 8.59183 150.911 8.43183 151.001L7.45683 150.371L7.71183 145.556H13.5468V147.416H9.61683L9.45183 149.201C9.67183 149.121 9.87683 149.066 10.0668 149.036C10.2568 148.996 10.4718 148.976 10.7118 148.976C11.1518 148.976 11.5668 149.036 11.9568 149.156C12.3568 149.276 12.7068 149.456 13.0068 149.696C13.3068 149.936 13.5418 150.241 13.7118 150.611C13.8918 150.981 13.9818 151.421 13.9818 151.931C13.9818 152.461 13.8768 152.931 13.6668 153.341C13.4668 153.751 13.1918 154.101 12.8418 154.391C12.5018 154.671 12.1068 154.886 11.6568 155.036C11.2068 155.186 10.7368 155.261 10.2468 155.261C9.41683 155.261 8.71183 155.136 8.13183 154.886C7.56183 154.626 7.08183 154.306 6.69183 153.926L7.68183 152.531Z" fill="white"/>
<path d="M10.5018 116.261C9.92183 116.261 9.38683 116.146 8.89683 115.916C8.41683 115.676 8.00183 115.336 7.65183 114.896C7.31183 114.456 7.04683 113.921 6.85683 113.291C6.66683 112.661 6.57183 111.946 6.57183 111.146C6.57183 110.346 6.66683 109.636 6.85683 109.016C7.04683 108.386 7.31183 107.861 7.65183 107.441C8.00183 107.011 8.41683 106.686 8.89683 106.466C9.38683 106.236 9.92183 106.121 10.5018 106.121C11.0818 106.121 11.6118 106.236 12.0918 106.466C12.5818 106.686 12.9968 107.011 13.3368 107.441C13.6868 107.871 13.9568 108.401 14.1468 109.031C14.3368 109.651 14.4318 110.356 14.4318 111.146C14.4318 111.946 14.3368 112.661 14.1468 113.291C13.9568 113.921 13.6868 114.456 13.3368 114.896C12.9968 115.336 12.5818 115.676 12.0918 115.916C11.6118 116.146 11.0818 116.261 10.5018 116.261ZM10.5018 114.356C11.0118 114.356 11.4168 114.071 11.7168 113.501C12.0168 112.921 12.1668 112.136 12.1668 111.146C12.1668 110.166 12.0168 109.401 11.7168 108.851C11.4168 108.301 11.0118 108.026 10.5018 108.026C9.99183 108.026 9.58683 108.301 9.28683 108.851C8.98683 109.401 8.83683 110.166 8.83683 111.146C8.83683 112.136 8.98683 112.921 9.28683 113.501C9.58683 114.071 9.99183 114.356 10.5018 114.356ZM22.871 116.081H21.071L20.906 115.016H20.846C20.516 115.396 20.151 115.701 19.751 115.931C19.351 116.151 18.881 116.261 18.341 116.261C17.491 116.261 16.876 115.991 16.496 115.451C16.116 114.911 15.926 114.171 15.926 113.231V108.641H18.131V112.946C18.131 113.446 18.206 113.811 18.356 114.041C18.506 114.271 18.791 114.386 19.211 114.386C19.491 114.386 19.736 114.326 19.946 114.206C20.166 114.086 20.406 113.861 20.666 113.531V108.641H22.871V116.081ZM26.6001 110.366H24.7251V108.731L26.7051 108.641L26.9901 106.661H28.8051V108.641H31.9551V110.366H28.8051V112.976C28.8051 113.546 28.9301 113.951 29.1801 114.191C29.4301 114.421 29.8251 114.536 30.3651 114.536C30.6551 114.536 30.9201 114.511 31.1601 114.461C31.4001 114.411 31.6301 114.346 31.8501 114.266L32.2401 115.856C31.9101 115.956 31.5401 116.046 31.1301 116.126C30.7301 116.216 30.2901 116.261 29.8101 116.261C29.2201 116.261 28.7201 116.181 28.3101 116.021C27.9001 115.861 27.5651 115.641 27.3051 115.361C27.0551 115.071 26.8751 114.726 26.7651 114.326C26.6551 113.926 26.6001 113.481 26.6001 112.991V110.366ZM36.2693 116.666V118.841H34.0643V108.641H35.8643L36.0293 109.391H36.0743C36.3743 109.121 36.7193 108.901 37.1093 108.731C37.4993 108.551 37.8943 108.461 38.2943 108.461C38.7543 108.461 39.1693 108.551 39.5393 108.731C39.9093 108.911 40.2243 109.166 40.4843 109.496C40.7443 109.826 40.9393 110.226 41.0693 110.696C41.2093 111.156 41.2793 111.671 41.2793 112.241C41.2793 112.881 41.1893 113.451 41.0093 113.951C40.8293 114.441 40.5893 114.861 40.2893 115.211C39.9893 115.551 39.6443 115.811 39.2543 115.991C38.8743 116.171 38.4743 116.261 38.0543 116.261C37.3743 116.261 36.7543 115.991 36.1943 115.451L36.2693 116.666ZM36.2693 113.966C36.4793 114.146 36.6943 114.276 36.9143 114.356C37.1443 114.426 37.3543 114.461 37.5443 114.461C37.9643 114.461 38.3143 114.291 38.5943 113.951C38.8743 113.601 39.0143 113.041 39.0143 112.271C39.0143 110.931 38.5593 110.261 37.6493 110.261C37.1793 110.261 36.7193 110.491 36.2693 110.951V113.966ZM49.8534 116.081H48.0534L47.8884 115.016H47.8284C47.4984 115.396 47.1334 115.701 46.7334 115.931C46.3334 116.151 45.8634 116.261 45.3234 116.261C44.4734 116.261 43.8584 115.991 43.4784 115.451C43.0984 114.911 42.9084 114.171 42.9084 113.231V108.641H45.1134V112.946C45.1134 113.446 45.1884 113.811 45.3384 114.041C45.4884 114.271 45.7734 114.386 46.1934 114.386C46.4734 114.386 46.7184 114.326 46.9284 114.206C47.1484 114.086 47.3884 113.861 47.6484 113.531V108.641H49.8534V116.081ZM53.5825 110.366H51.7075V108.731L53.6875 108.641L53.9725 106.661H55.7875V108.641H58.9375V110.366H55.7875V112.976C55.7875 113.546 55.9125 113.951 56.1625 114.191C56.4125 114.421 56.8075 114.536 57.3475 114.536C57.6375 114.536 57.9025 114.511 58.1425 114.461C58.3825 114.411 58.6125 114.346 58.8325 114.266L59.2225 115.856C58.8925 115.956 58.5225 116.046 58.1125 116.126C57.7125 116.216 57.2725 116.261 56.7925 116.261C56.2025 116.261 55.7025 116.181 55.2925 116.021C54.8825 115.861 54.5475 115.641 54.2875 115.361C54.0375 115.071 53.8575 114.726 53.7475 114.326C53.6375 113.926 53.5825 113.481 53.5825 112.991V110.366Z" fill="white"/>
<rect x="79" width="113" height="31" fill="#333333"/>
<rect x="79" width="113" height="31" fill="#333333"/>
<rect width="79" height="31" fill="#090808"/>
<path d="M12.105 17.8101C12.105 17.5513 11.9756 17.3486 11.7168 17.2021C11.4629 17.0508 11.0527 16.9165 10.4863 16.7993C8.60156 16.4038 7.65918 15.603 7.65918 14.397C7.65918 13.6938 7.94971 13.1079 8.53076 12.6392C9.1167 12.1655 9.88086 11.9287 10.8232 11.9287C11.8291 11.9287 12.6323 12.1655 13.2329 12.6392C13.8384 13.1128 14.1411 13.728 14.1411 14.4849H12.0244C12.0244 14.1821 11.9268 13.9331 11.7314 13.7378C11.5361 13.5376 11.231 13.4375 10.8159 13.4375C10.4595 13.4375 10.1836 13.5181 9.98828 13.6792C9.79297 13.8403 9.69531 14.0454 9.69531 14.2944C9.69531 14.5288 9.80518 14.7192 10.0249 14.8657C10.2495 15.0073 10.6255 15.1318 11.1528 15.2393C11.6802 15.3418 12.1245 15.459 12.4858 15.5908C13.604 16.001 14.1631 16.7114 14.1631 17.7222C14.1631 18.4448 13.853 19.0308 13.2329 19.48C12.6128 19.9243 11.812 20.1465 10.8306 20.1465C10.1665 20.1465 9.57568 20.0293 9.05811 19.7949C8.54541 19.5557 8.14258 19.231 7.84961 18.8208C7.55664 18.4058 7.41016 17.959 7.41016 17.4805H9.41699C9.43652 17.8564 9.57568 18.1445 9.83447 18.3447C10.0933 18.5449 10.4399 18.645 10.8745 18.645C11.2798 18.645 11.585 18.5693 11.79 18.418C12 18.2617 12.105 18.0591 12.105 17.8101ZM18.8286 18.4399C19.2192 18.4399 19.5366 18.3325 19.7808 18.1177C20.0249 17.9028 20.1519 17.6172 20.1616 17.2607H22.1465C22.1416 17.7979 21.9951 18.291 21.707 18.7402C21.4189 19.1846 21.0234 19.5312 20.5205 19.7803C20.0225 20.0244 19.4707 20.1465 18.8652 20.1465C17.7324 20.1465 16.8389 19.7876 16.1846 19.0698C15.5303 18.3472 15.2031 17.3511 15.2031 16.0815V15.9424C15.2031 14.7217 15.5278 13.7476 16.1772 13.02C16.8267 12.2925 17.7178 11.9287 18.8506 11.9287C19.8418 11.9287 20.6353 12.2119 21.231 12.7783C21.8315 13.3398 22.1367 14.0894 22.1465 15.0269H20.1616C20.1519 14.6167 20.0249 14.2847 19.7808 14.0308C19.5366 13.772 19.2144 13.6426 18.814 13.6426C18.3208 13.6426 17.9473 13.8232 17.6934 14.1846C17.4443 14.541 17.3198 15.1221 17.3198 15.9277V16.1475C17.3198 16.9629 17.4443 17.5488 17.6934 17.9053C17.9424 18.2617 18.3208 18.4399 18.8286 18.4399ZM27.8081 14.0601C27.52 14.021 27.2661 14.0015 27.0464 14.0015C26.2456 14.0015 25.7207 14.2725 25.4717 14.8145V20H23.355V12.0752H25.3545L25.4131 13.02C25.8379 12.2925 26.4263 11.9287 27.1782 11.9287C27.4126 11.9287 27.6323 11.9604 27.8374 12.0239L27.8081 14.0601ZM31.0674 20H28.9434V12.0752H31.0674V20ZM28.8188 10.0244C28.8188 9.70703 28.9238 9.4458 29.1338 9.24072C29.3486 9.03564 29.6392 8.93311 30.0054 8.93311C30.3667 8.93311 30.6548 9.03564 30.8696 9.24072C31.0845 9.4458 31.1919 9.70703 31.1919 10.0244C31.1919 10.3467 31.082 10.6104 30.8623 10.8154C30.6475 11.0205 30.3618 11.123 30.0054 11.123C29.6489 11.123 29.3608 11.0205 29.1411 10.8154C28.9263 10.6104 28.8188 10.3467 28.8188 10.0244ZM39.9517 16.1108C39.9517 17.3315 39.6733 18.3105 39.1167 19.0479C38.5649 19.7803 37.8179 20.1465 36.8755 20.1465C36.0747 20.1465 35.4277 19.8682 34.9346 19.3115V23.0469H32.8179V12.0752H34.7808L34.854 12.8516C35.3667 12.2363 36.0356 11.9287 36.8608 11.9287C37.8374 11.9287 38.5967 12.29 39.1387 13.0127C39.6807 13.7354 39.9517 14.7314 39.9517 16.001V16.1108ZM37.835 15.957C37.835 15.2197 37.7031 14.6509 37.4395 14.2505C37.1807 13.8501 36.8022 13.6499 36.3042 13.6499C35.6401 13.6499 35.1836 13.9038 34.9346 14.4116V17.6562C35.1934 18.1787 35.6548 18.4399 36.3188 18.4399C37.3296 18.4399 37.835 17.6123 37.835 15.957ZM43.8042 10.127V12.0752H45.1592V13.6279H43.8042V17.583C43.8042 17.876 43.8604 18.0859 43.9727 18.2129C44.085 18.3398 44.2998 18.4033 44.6172 18.4033C44.8516 18.4033 45.0591 18.3862 45.2397 18.3521V19.9561C44.8247 20.083 44.3975 20.1465 43.958 20.1465C42.4736 20.1465 41.7168 19.397 41.6875 17.8979V13.6279H40.5303V12.0752H41.6875V10.127H43.8042ZM46.4482 18.96C46.4482 18.623 46.5605 18.3496 46.7852 18.1396C47.0146 17.9297 47.3003 17.8247 47.6421 17.8247C47.9888 17.8247 48.2744 17.9297 48.499 18.1396C48.7285 18.3496 48.8433 18.623 48.8433 18.96C48.8433 19.292 48.731 19.563 48.5063 19.7729C48.2817 19.978 47.9937 20.0806 47.6421 20.0806C47.2954 20.0806 47.0098 19.978 46.7852 19.7729C46.5605 19.563 46.4482 19.292 46.4482 18.96ZM57.8374 16.1108C57.8374 17.3315 57.5591 18.3105 57.0024 19.0479C56.4507 19.7803 55.7036 20.1465 54.7612 20.1465C53.9604 20.1465 53.3135 19.8682 52.8203 19.3115V23.0469H50.7036V12.0752H52.6665L52.7397 12.8516C53.2524 12.2363 53.9214 11.9287 54.7466 11.9287C55.7231 11.9287 56.4824 12.29 57.0244 13.0127C57.5664 13.7354 57.8374 14.7314 57.8374 16.001V16.1108ZM55.7207 15.957C55.7207 15.2197 55.5889 14.6509 55.3252 14.2505C55.0664 13.8501 54.688 13.6499 54.1899 13.6499C53.5259 13.6499 53.0693 13.9038 52.8203 14.4116V17.6562C53.0791 18.1787 53.5405 18.4399 54.2046 18.4399C55.2153 18.4399 55.7207 17.6123 55.7207 15.957ZM62.0269 17.0044L63.4917 12.0752H65.7622L62.5762 21.2305L62.4004 21.6479C61.9268 22.6831 61.1455 23.2007 60.0566 23.2007C59.749 23.2007 59.4365 23.1543 59.1191 23.0615V21.4575L59.4414 21.4648C59.8418 21.4648 60.1396 21.4038 60.335 21.2817C60.5352 21.1597 60.6914 20.957 60.8037 20.6738L61.0527 20.022L58.2769 12.0752H60.5547L62.0269 17.0044Z" fill="white"/>
<line y1="100.5" x2="192" y2="100.5" stroke="white"/>
<path d="M10.285 51.585V53.76H8.08V43.56H9.88L10.045 44.31H10.09C10.39 44.04 10.735 43.82 11.125 43.65C11.515 43.47 11.91 43.38 12.31 43.38C12.77 43.38 13.185 43.47 13.555 43.65C13.925 43.83 14.24 44.085 14.5 44.415C14.76 44.745 14.955 45.145 15.085 45.615C15.225 46.075 15.295 46.59 15.295 47.16C15.295 47.8 15.205 48.37 15.025 48.87C14.845 49.36 14.605 49.78 14.305 50.13C14.005 50.47 13.66 50.73 13.27 50.91C12.89 51.09 12.49 51.18 12.07 51.18C11.39 51.18 10.77 50.91 10.21 50.37L10.285 51.585ZM10.285 48.885C10.495 49.065 10.71 49.195 10.93 49.275C11.16 49.345 11.37 49.38 11.56 49.38C11.98 49.38 12.33 49.21 12.61 48.87C12.89 48.52 13.03 47.96 13.03 47.19C13.03 45.85 12.575 45.18 11.665 45.18C11.195 45.18 10.735 45.41 10.285 45.87V48.885ZM17.7341 43.56H19.5341L19.7141 45.18H19.7591C20.1291 44.57 20.5741 44.12 21.0941 43.83C21.6141 43.53 22.1741 43.38 22.7741 43.38C23.1041 43.38 23.3691 43.405 23.5691 43.455C23.7791 43.505 23.9941 43.58 24.2141 43.68L23.7641 45.525C23.5341 45.455 23.3241 45.405 23.1341 45.375C22.9541 45.335 22.7241 45.315 22.4441 45.315C21.9841 45.315 21.5291 45.45 21.0791 45.72C20.6391 45.99 20.2591 46.46 19.9391 47.13V51H17.7341V43.56ZM26.1733 43.56H31.3633V51H29.1583V45.285H26.1733V43.56ZM30.1633 42.465C29.7333 42.465 29.3783 42.345 29.0983 42.105C28.8283 41.865 28.6933 41.54 28.6933 41.13C28.6933 40.72 28.8283 40.39 29.0983 40.14C29.3783 39.88 29.7333 39.75 30.1633 39.75C30.5933 39.75 30.9433 39.88 31.2133 40.14C31.4933 40.39 31.6333 40.72 31.6333 41.13C31.6333 41.54 31.4933 41.865 31.2133 42.105C30.9433 42.345 30.5933 42.465 30.1633 42.465ZM35.0624 43.56H36.8624L37.0274 44.55H37.0874C37.4074 44.23 37.7724 43.955 38.1824 43.725C38.6024 43.495 39.0924 43.38 39.6524 43.38C40.4924 43.38 41.1074 43.65 41.4974 44.19C41.8874 44.73 42.0824 45.47 42.0824 46.41V51H39.8774V46.695C39.8774 46.195 39.7974 45.83 39.6374 45.6C39.4774 45.37 39.1924 45.255 38.7824 45.255C38.4824 45.255 38.2174 45.32 37.9874 45.45C37.7674 45.58 37.5274 45.775 37.2674 46.035V51H35.0624V43.56ZM45.5866 45.285H43.7116V43.65L45.6916 43.56L45.9766 41.58H47.7916V43.56H50.9416V45.285H47.7916V47.895C47.7916 48.465 47.9166 48.87 48.1666 49.11C48.4166 49.34 48.8116 49.455 49.3516 49.455C49.6416 49.455 49.9066 49.43 50.1466 49.38C50.3866 49.33 50.6166 49.265 50.8366 49.185L51.2266 50.775C50.8966 50.875 50.5266 50.965 50.1166 51.045C49.7166 51.135 49.2766 51.18 48.7966 51.18C48.2066 51.18 47.7066 51.1 47.2966 50.94C46.8866 50.78 46.5516 50.56 46.2916 50.28C46.0416 49.99 45.8616 49.645 45.7516 49.245C45.6416 48.845 45.5866 48.4 45.5866 47.91V45.285Z" fill="#56B4E9"/>
<path d="M57.8507 53.685C56.8707 52.815 56.0957 51.81 55.5257 50.67C54.9657 49.53 54.6857 48.25 54.6857 46.83C54.6857 45.41 54.9657 44.13 55.5257 42.99C56.0957 41.85 56.8707 40.845 57.8507 39.975L59.0807 40.95C58.1907 41.82 57.5407 42.725 57.1307 43.665C56.7307 44.595 56.5307 45.65 56.5307 46.83C56.5307 47.42 56.5807 47.98 56.6807 48.51C56.7807 49.03 56.9307 49.53 57.1307 50.01C57.3407 50.49 57.6057 50.95 57.9257 51.39C58.2457 51.84 58.6307 52.28 59.0807 52.71L57.8507 53.685ZM107.826 52.71C108.276 52.28 108.661 51.84 108.981 51.39C109.301 50.95 109.561 50.49 109.761 50.01C109.971 49.53 110.126 49.03 110.226 48.51C110.326 47.98 110.376 47.42 110.376 46.83C110.376 45.65 110.171 44.595 109.761 43.665C109.361 42.725 108.716 41.82 107.826 40.95L109.056 39.975C110.036 40.845 110.806 41.85 111.366 42.99C111.936 44.13 112.221 45.41 112.221 46.83C112.221 48.25 111.936 49.53 111.366 50.67C110.806 51.81 110.036 52.815 109.056 53.685L107.826 52.71Z" fill="white"/>
<path d="M62.6448 48.45C62.9648 48.71 63.3048 48.935 63.6648 49.125C64.0348 49.305 64.4448 49.395 64.8948 49.395C65.4348 49.395 65.8748 49.27 66.2148 49.02C66.5648 48.77 66.7398 48.4 66.7398 47.91C66.7398 47.43 66.5748 47.065 66.2448 46.815C65.9248 46.565 65.5098 46.44 64.9998 46.44C64.8398 46.44 64.6948 46.45 64.5648 46.47C64.4448 46.48 64.3248 46.505 64.2048 46.545C64.0848 46.585 63.9598 46.635 63.8298 46.695C63.6998 46.755 63.5548 46.83 63.3948 46.92L62.4198 46.29L62.6748 41.475H68.5098V43.335H64.5798L64.4148 45.12C64.6348 45.04 64.8398 44.985 65.0298 44.955C65.2198 44.915 65.4348 44.895 65.6748 44.895C66.1148 44.895 66.5298 44.955 66.9198 45.075C67.3198 45.195 67.6698 45.375 67.9698 45.615C68.2698 45.855 68.5048 46.16 68.6748 46.53C68.8548 46.9 68.9448 47.34 68.9448 47.85C68.9448 48.38 68.8398 48.85 68.6298 49.26C68.4298 49.67 68.1548 50.02 67.8048 50.31C67.4648 50.59 67.0698 50.805 66.6198 50.955C66.1698 51.105 65.6998 51.18 65.2098 51.18C64.3798 51.18 63.6748 51.055 63.0948 50.805C62.5248 50.545 62.0448 50.225 61.6548 49.845L62.6448 48.45ZM104.996 49.215V51H98.1714V49.215H100.631V43.71H98.6664V42.345C99.2264 42.245 99.7014 42.125 100.091 41.985C100.491 41.845 100.866 41.675 101.216 41.475H102.836V49.215H104.996ZM7.87 68.74C8.55 68.17 9.17 67.64 9.73 67.15C10.29 66.65 10.77 66.185 11.17 65.755C11.57 65.325 11.88 64.92 12.1 64.54C12.32 64.16 12.43 63.8 12.43 63.46C12.43 62.99 12.295 62.635 12.025 62.395C11.755 62.145 11.37 62.02 10.87 62.02C10.49 62.02 10.14 62.12 9.82 62.32C9.51 62.51 9.22 62.735 8.95 62.995L7.765 61.81C8.015 61.56 8.26 61.34 8.5 61.15C8.75 60.96 9.01 60.805 9.28 60.685C9.56 60.555 9.85 60.46 10.15 60.4C10.46 60.33 10.8 60.295 11.17 60.295C11.67 60.295 12.125 60.37 12.535 60.52C12.945 60.66 13.295 60.865 13.585 61.135C13.885 61.395 14.115 61.71 14.275 62.08C14.445 62.45 14.53 62.865 14.53 63.325C14.53 63.725 14.435 64.135 14.245 64.555C14.055 64.965 13.795 65.38 13.465 65.8C13.145 66.21 12.775 66.625 12.355 67.045C11.935 67.455 11.495 67.86 11.035 68.26C11.305 68.23 11.595 68.205 11.905 68.185C12.225 68.155 12.51 68.14 12.76 68.14H15.025V70H7.87V68.74ZM44.6266 67.435C44.9466 67.715 45.3016 67.945 45.6916 68.125C46.0916 68.305 46.5116 68.395 46.9516 68.395C47.4716 68.395 47.8966 68.3 48.2266 68.11C48.5666 67.91 48.7366 67.63 48.7366 67.27C48.7366 67.06 48.6916 66.87 48.6016 66.7C48.5116 66.53 48.3566 66.39 48.1366 66.28C47.9166 66.16 47.6216 66.07 47.2516 66.01C46.8816 65.94 46.4166 65.905 45.8566 65.905V64.345C46.7966 64.345 47.4566 64.23 47.8366 64C48.2266 63.76 48.4216 63.45 48.4216 63.07C48.4216 62.74 48.2966 62.485 48.0466 62.305C47.7966 62.115 47.4516 62.02 47.0116 62.02C46.6316 62.02 46.2816 62.095 45.9616 62.245C45.6416 62.395 45.3166 62.6 44.9866 62.86L43.8766 61.51C44.3466 61.13 44.8466 60.835 45.3766 60.625C45.9166 60.405 46.4966 60.295 47.1166 60.295C47.6366 60.295 48.1116 60.355 48.5416 60.475C48.9716 60.585 49.3416 60.755 49.6516 60.985C49.9616 61.205 50.2016 61.475 50.3716 61.795C50.5416 62.115 50.6266 62.485 50.6266 62.905C50.6266 63.405 50.4666 63.83 50.1466 64.18C49.8266 64.52 49.3816 64.8 48.8116 65.02V65.08C49.4116 65.24 49.9166 65.515 50.3266 65.905C50.7366 66.285 50.9416 66.785 50.9416 67.405C50.9416 67.845 50.8366 68.24 50.6266 68.59C50.4266 68.93 50.1516 69.22 49.8016 69.46C49.4616 69.69 49.0616 69.87 48.6016 70C48.1416 70.12 47.6616 70.18 47.1616 70.18C46.3416 70.18 45.6366 70.06 45.0466 69.82C44.4566 69.57 43.9766 69.24 43.6066 68.83L44.6266 67.435Z" fill="#F0E442"/>
<path d="M82.6431 46.83H80.0031V45.27H82.6431V42.51H84.2631V45.27H86.9031V46.83H84.2631V49.59H82.6431V46.83ZM28.6783 65.83H26.0383V64.27H28.6783V61.51H30.2983V64.27H32.9383V65.83H30.2983V68.59H28.6783V65.83Z" fill="#E0E0E0"/>
<rect x="230" width="192" height="182" fill="black"/>
<path d="M240.71 134.53C240.9 134.53 241.08 134.5 241.25 134.44C241.43 134.38 241.585 134.29 241.715 134.17C241.855 134.04 241.965 133.88 242.045 133.69C242.125 133.49 242.165 133.255 242.165 132.985C242.165 132.495 242.035 132.145 241.775 131.935C241.515 131.715 241.175 131.605 240.755 131.605C240.475 131.605 240.185 131.675 239.885 131.815C239.585 131.955 239.29 132.195 239 132.535C239.06 132.915 239.145 133.235 239.255 133.495C239.375 133.745 239.51 133.95 239.66 134.11C239.81 134.26 239.975 134.37 240.155 134.44C240.335 134.5 240.52 134.53 240.71 134.53ZM242.885 128.755C242.685 128.575 242.435 128.42 242.135 128.29C241.835 128.15 241.525 128.08 241.205 128.08C240.915 128.08 240.635 128.135 240.365 128.245C240.105 128.345 239.87 128.515 239.66 128.755C239.46 128.985 239.295 129.29 239.165 129.67C239.035 130.05 238.96 130.52 238.94 131.08C239.28 130.75 239.655 130.495 240.065 130.315C240.485 130.135 240.875 130.045 241.235 130.045C241.655 130.045 242.04 130.105 242.39 130.225C242.75 130.345 243.06 130.525 243.32 130.765C243.59 131.005 243.8 131.31 243.95 131.68C244.1 132.05 244.175 132.485 244.175 132.985C244.175 133.485 244.08 133.93 243.89 134.32C243.71 134.71 243.46 135.045 243.14 135.325C242.83 135.605 242.47 135.82 242.06 135.97C241.65 136.11 241.215 136.18 240.755 136.18C240.265 136.18 239.79 136.09 239.33 135.91C238.87 135.73 238.46 135.45 238.1 135.07C237.74 134.69 237.45 134.205 237.23 133.615C237.01 133.015 236.9 132.295 236.9 131.455C236.9 130.565 237.015 129.795 237.245 129.145C237.475 128.495 237.78 127.96 238.16 127.54C238.55 127.12 238.99 126.81 239.48 126.61C239.97 126.4 240.48 126.295 241.01 126.295C241.69 126.295 242.285 126.41 242.795 126.64C243.305 126.86 243.72 127.125 244.04 127.435L242.885 128.755ZM244.055 153.215V155H237.23V153.215H239.69V147.71H237.725V146.345C238.285 146.245 238.76 146.125 239.15 145.985C239.55 145.845 239.925 145.675 240.275 145.475H241.895V153.215H244.055ZM249.494 155.18C248.944 155.18 248.444 155.075 247.994 154.865C247.544 154.645 247.159 154.325 246.839 153.905C246.519 153.485 246.269 152.965 246.089 152.345C245.919 151.725 245.834 151.01 245.834 150.2C245.834 149.39 245.919 148.68 246.089 148.07C246.269 147.46 246.519 146.95 246.839 146.54C247.159 146.12 247.544 145.81 247.994 145.61C248.444 145.4 248.944 145.295 249.494 145.295C250.044 145.295 250.544 145.4 250.994 145.61C251.444 145.81 251.829 146.12 252.149 146.54C252.469 146.95 252.714 147.46 252.884 148.07C253.064 148.68 253.154 149.39 253.154 150.2C253.154 151.01 253.064 151.725 252.884 152.345C252.714 152.965 252.469 153.485 252.149 153.905C251.829 154.325 251.444 154.645 250.994 154.865C250.544 155.075 250.044 155.18 249.494 155.18ZM249.494 147.005C249.254 147.005 249.029 147.055 248.819 147.155C248.619 147.255 248.444 147.43 248.294 147.68C248.144 147.92 248.024 148.245 247.934 148.655C247.844 149.065 247.799 149.58 247.799 150.2C247.799 150.82 247.844 151.34 247.934 151.76C248.024 152.17 248.144 152.505 248.294 152.765C248.444 153.015 248.619 153.195 248.819 153.305C249.029 153.415 249.254 153.47 249.494 153.47C249.734 153.47 249.954 153.415 250.154 153.305C250.364 153.195 250.544 153.015 250.694 152.765C250.844 152.505 250.964 152.17 251.054 151.76C251.144 151.34 251.189 150.82 251.189 150.2C251.189 149.58 251.144 149.065 251.054 148.655C250.964 148.245 250.844 147.92 250.694 147.68C250.544 147.43 250.364 147.255 250.154 147.155C249.954 147.055 249.734 147.005 249.494 147.005ZM249.494 151.31C249.174 151.31 248.904 151.21 248.684 151.01C248.474 150.8 248.369 150.52 248.369 150.17C248.369 149.82 248.474 149.545 248.684 149.345C248.904 149.135 249.174 149.03 249.494 149.03C249.814 149.03 250.079 149.135 250.289 149.345C250.509 149.545 250.619 149.82 250.619 150.17C250.619 150.52 250.509 150.8 250.289 151.01C250.079 151.21 249.814 151.31 249.494 151.31Z" fill="white"/>
<path d="M240.502 116.261C239.922 116.261 239.387 116.146 238.897 115.916C238.417 115.676 238.002 115.336 237.652 114.896C237.312 114.456 237.047 113.921 236.857 113.291C236.667 112.661 236.572 111.946 236.572 111.146C236.572 110.346 236.667 109.636 236.857 109.016C237.047 108.386 237.312 107.861 237.652 107.441C238.002 107.011 238.417 106.686 238.897 106.466C239.387 106.236 239.922 106.121 240.502 106.121C241.082 106.121 241.612 106.236 242.092 106.466C242.582 106.686 242.997 107.011 243.337 107.441C243.687 107.871 243.957 108.401 244.147 109.031C244.337 109.651 244.432 110.356 244.432 111.146C244.432 111.946 244.337 112.661 244.147 113.291C243.957 113.921 243.687 114.456 243.337 114.896C242.997 115.336 242.582 115.676 242.092 115.916C241.612 116.146 241.082 116.261 240.502 116.261ZM240.502 114.356C241.012 114.356 241.417 114.071 241.717 113.501C242.017 112.921 242.167 112.136 242.167 111.146C242.167 110.166 242.017 109.401 241.717 108.851C241.417 108.301 241.012 108.026 240.502 108.026C239.992 108.026 239.587 108.301 239.287 108.851C238.987 109.401 238.837 110.166 238.837 111.146C238.837 112.136 238.987 112.921 239.287 113.501C239.587 114.071 239.992 114.356 240.502 114.356ZM252.871 116.081H251.071L250.906 115.016H250.846C250.516 115.396 250.151 115.701 249.751 115.931C249.351 116.151 248.881 116.261 248.341 116.261C247.491 116.261 246.876 115.991 246.496 115.451C246.116 114.911 245.926 114.171 245.926 113.231V108.641H248.131V112.946C248.131 113.446 248.206 113.811 248.356 114.041C248.506 114.271 248.791 114.386 249.211 114.386C249.491 114.386 249.736 114.326 249.946 114.206C250.166 114.086 250.406 113.861 250.666 113.531V108.641H252.871V116.081ZM256.6 110.366H254.725V108.731L256.705 108.641L256.99 106.661H258.805V108.641H261.955V110.366H258.805V112.976C258.805 113.546 258.93 113.951 259.18 114.191C259.43 114.421 259.825 114.536 260.365 114.536C260.655 114.536 260.92 114.511 261.16 114.461C261.4 114.411 261.63 114.346 261.85 114.266L262.24 115.856C261.91 115.956 261.54 116.046 261.13 116.126C260.73 116.216 260.29 116.261 259.81 116.261C259.22 116.261 258.72 116.181 258.31 116.021C257.9 115.861 257.565 115.641 257.305 115.361C257.055 115.071 256.875 114.726 256.765 114.326C256.655 113.926 256.6 113.481 256.6 112.991V110.366ZM266.269 116.666V118.841H264.064V108.641H265.864L266.029 109.391H266.074C266.374 109.121 266.719 108.901 267.109 108.731C267.499 108.551 267.894 108.461 268.294 108.461C268.754 108.461 269.169 108.551 269.539 108.731C269.909 108.911 270.224 109.166 270.484 109.496C270.744 109.826 270.939 110.226 271.069 110.696C271.209 111.156 271.279 111.671 271.279 112.241C271.279 112.881 271.189 113.451 271.009 113.951C270.829 114.441 270.589 114.861 270.289 115.211C269.989 115.551 269.644 115.811 269.254 115.991C268.874 116.171 268.474 116.261 268.054 116.261C267.374 116.261 266.754 115.991 266.194 115.451L266.269 116.666ZM266.269 113.966C266.479 114.146 266.694 114.276 266.914 114.356C267.144 114.426 267.354 114.461 267.544 114.461C267.964 114.461 268.314 114.291 268.594 113.951C268.874 113.601 269.014 113.041 269.014 112.271C269.014 110.931 268.559 110.261 267.649 110.261C267.179 110.261 266.719 110.491 266.269 110.951V113.966ZM279.853 116.081H278.053L277.888 115.016H277.828C277.498 115.396 277.133 115.701 276.733 115.931C276.333 116.151 275.863 116.261 275.323 116.261C274.473 116.261 273.858 115.991 273.478 115.451C273.098 114.911 272.908 114.171 272.908 113.231V108.641H275.113V112.946C275.113 113.446 275.188 113.811 275.338 114.041C275.488 114.271 275.773 114.386 276.193 114.386C276.473 114.386 276.718 114.326 276.928 114.206C277.148 114.086 277.388 113.861 277.648 113.531V108.641H279.853V116.081ZM283.583 110.366H281.708V108.731L283.688 108.641L283.973 106.661H285.788V108.641H288.938V110.366H285.788V112.976C285.788 113.546 285.913 113.951 286.163 114.191C286.413 114.421 286.808 114.536 287.348 114.536C287.638 114.536 287.903 114.511 288.143 114.461C288.383 114.411 288.613 114.346 288.833 114.266L289.223 115.856C288.893 115.956 288.523 116.046 288.113 116.126C287.713 116.216 287.273 116.261 286.793 116.261C286.203 116.261 285.703 116.181 285.293 116.021C284.883 115.861 284.548 115.641 284.288 115.361C284.038 115.071 283.858 114.726 283.748 114.326C283.638 113.926 283.583 113.481 283.583 112.991V110.366Z" fill="white"/>
<rect x="309.001" width="113" height="31" fill="#333333"/>
<rect x="309.001" width="113" height="31" fill="#333333"/>
<rect x="230.001" width="79" height="31" fill="#090808"/>
<path d="M242.106 17.8101C242.106 17.5513 241.977 17.3486 241.718 17.2021C241.464 17.0508 241.054 16.9165 240.488 16.7993C238.603 16.4038 237.66 15.603 237.66 14.397C237.66 13.6938 237.951 13.1079 238.532 12.6392C239.118 12.1655 239.882 11.9287 240.825 11.9287C241.83 11.9287 242.634 12.1655 243.234 12.6392C243.84 13.1128 244.142 13.728 244.142 14.4849H242.026C242.026 14.1821 241.928 13.9331 241.733 13.7378C241.537 13.5376 241.232 13.4375 240.817 13.4375C240.461 13.4375 240.185 13.5181 239.99 13.6792C239.794 13.8403 239.697 14.0454 239.697 14.2944C239.697 14.5288 239.806 14.7192 240.026 14.8657C240.251 15.0073 240.627 15.1318 241.154 15.2393C241.681 15.3418 242.126 15.459 242.487 15.5908C243.605 16.001 244.164 16.7114 244.164 17.7222C244.164 18.4448 243.854 19.0308 243.234 19.48C242.614 19.9243 241.813 20.1465 240.832 20.1465C240.168 20.1465 239.577 20.0293 239.059 19.7949C238.547 19.5557 238.144 19.231 237.851 18.8208C237.558 18.4058 237.411 17.959 237.411 17.4805H239.418C239.438 17.8564 239.577 18.1445 239.836 18.3447C240.095 18.5449 240.441 18.645 240.876 18.645C241.281 18.645 241.586 18.5693 241.791 18.418C242.001 18.2617 242.106 18.0591 242.106 17.8101ZM248.83 18.4399C249.221 18.4399 249.538 18.3325 249.782 18.1177C250.026 17.9028 250.153 17.6172 250.163 17.2607H252.148C252.143 17.7979 251.996 18.291 251.708 18.7402C251.42 19.1846 251.025 19.5312 250.522 19.7803C250.024 20.0244 249.472 20.1465 248.867 20.1465C247.734 20.1465 246.84 19.7876 246.186 19.0698C245.532 18.3472 245.204 17.3511 245.204 16.0815V15.9424C245.204 14.7217 245.529 13.7476 246.179 13.02C246.828 12.2925 247.719 11.9287 248.852 11.9287C249.843 11.9287 250.637 12.2119 251.232 12.7783C251.833 13.3398 252.138 14.0894 252.148 15.0269H250.163C250.153 14.6167 250.026 14.2847 249.782 14.0308C249.538 13.772 249.216 13.6426 248.815 13.6426C248.322 13.6426 247.949 13.8232 247.695 14.1846C247.446 14.541 247.321 15.1221 247.321 15.9277V16.1475C247.321 16.9629 247.446 17.5488 247.695 17.9053C247.944 18.2617 248.322 18.4399 248.83 18.4399ZM257.809 14.0601C257.521 14.021 257.267 14.0015 257.048 14.0015C256.247 14.0015 255.722 14.2725 255.473 14.8145V20H253.356V12.0752H255.356L255.414 13.02C255.839 12.2925 256.428 11.9287 257.18 11.9287C257.414 11.9287 257.634 11.9604 257.839 12.0239L257.809 14.0601ZM261.069 20H258.945V12.0752H261.069V20ZM258.82 10.0244C258.82 9.70703 258.925 9.4458 259.135 9.24072C259.35 9.03564 259.64 8.93311 260.007 8.93311C260.368 8.93311 260.656 9.03564 260.871 9.24072C261.086 9.4458 261.193 9.70703 261.193 10.0244C261.193 10.3467 261.083 10.6104 260.864 10.8154C260.649 11.0205 260.363 11.123 260.007 11.123C259.65 11.123 259.362 11.0205 259.142 10.8154C258.928 10.6104 258.82 10.3467 258.82 10.0244ZM269.953 16.1108C269.953 17.3315 269.675 18.3105 269.118 19.0479C268.566 19.7803 267.819 20.1465 266.877 20.1465C266.076 20.1465 265.429 19.8682 264.936 19.3115V23.0469H262.819V12.0752H264.782L264.855 12.8516C265.368 12.2363 266.037 11.9287 266.862 11.9287C267.839 11.9287 268.598 12.29 269.14 13.0127C269.682 13.7354 269.953 14.7314 269.953 16.001V16.1108ZM267.836 15.957C267.836 15.2197 267.704 14.6509 267.441 14.2505C267.182 13.8501 266.804 13.6499 266.305 13.6499C265.641 13.6499 265.185 13.9038 264.936 14.4116V17.6562C265.195 18.1787 265.656 18.4399 266.32 18.4399C267.331 18.4399 267.836 17.6123 267.836 15.957ZM273.805 10.127V12.0752H275.16V13.6279H273.805V17.583C273.805 17.876 273.862 18.0859 273.974 18.2129C274.086 18.3398 274.301 18.4033 274.618 18.4033C274.853 18.4033 275.06 18.3862 275.241 18.3521V19.9561C274.826 20.083 274.399 20.1465 273.959 20.1465C272.475 20.1465 271.718 19.397 271.689 17.8979V13.6279H270.532V12.0752H271.689V10.127H273.805ZM276.45 18.96C276.45 18.623 276.562 18.3496 276.786 18.1396C277.016 17.9297 277.302 17.8247 277.643 17.8247C277.99 17.8247 278.276 17.9297 278.5 18.1396C278.73 18.3496 278.845 18.623 278.845 18.96C278.845 19.292 278.732 19.563 278.508 19.7729C278.283 19.978 277.995 20.0806 277.643 20.0806C277.297 20.0806 277.011 19.978 276.786 19.7729C276.562 19.563 276.45 19.292 276.45 18.96ZM287.839 16.1108C287.839 17.3315 287.56 18.3105 287.004 19.0479C286.452 19.7803 285.705 20.1465 284.763 20.1465C283.962 20.1465 283.315 19.8682 282.822 19.3115V23.0469H280.705V12.0752H282.668L282.741 12.8516C283.254 12.2363 283.923 11.9287 284.748 11.9287C285.724 11.9287 286.484 12.29 287.026 13.0127C287.568 13.7354 287.839 14.7314 287.839 16.001V16.1108ZM285.722 15.957C285.722 15.2197 285.59 14.6509 285.326 14.2505C285.068 13.8501 284.689 13.6499 284.191 13.6499C283.527 13.6499 283.071 13.9038 282.822 14.4116V17.6562C283.08 18.1787 283.542 18.4399 284.206 18.4399C285.217 18.4399 285.722 17.6123 285.722 15.957ZM292.028 17.0044L293.493 12.0752H295.763L292.577 21.2305L292.402 21.6479C291.928 22.6831 291.147 23.2007 290.058 23.2007C289.75 23.2007 289.438 23.1543 289.12 23.0615V21.4575L289.443 21.4648C289.843 21.4648 290.141 21.4038 290.336 21.2817C290.536 21.1597 290.693 20.957 290.805 20.6738L291.054 20.022L288.278 12.0752H290.556L292.028 17.0044Z" fill="white"/>
<line x1="230" y1="100.5" x2="422" y2="100.5" stroke="white"/>
<path d="M240.286 51.585V53.76H238.081V43.56H239.881L240.046 44.31H240.091C240.391 44.04 240.736 43.82 241.126 43.65C241.516 43.47 241.911 43.38 242.311 43.38C242.771 43.38 243.186 43.47 243.556 43.65C243.926 43.83 244.241 44.085 244.501 44.415C244.761 44.745 244.956 45.145 245.086 45.615C245.226 46.075 245.296 46.59 245.296 47.16C245.296 47.8 245.206 48.37 245.026 48.87C244.846 49.36 244.606 49.78 244.306 50.13C244.006 50.47 243.661 50.73 243.271 50.91C242.891 51.09 242.491 51.18 242.071 51.18C241.391 51.18 240.771 50.91 240.211 50.37L240.286 51.585ZM240.286 48.885C240.496 49.065 240.711 49.195 240.931 49.275C241.161 49.345 241.371 49.38 241.561 49.38C241.981 49.38 242.331 49.21 242.611 48.87C242.891 48.52 243.031 47.96 243.031 47.19C243.031 45.85 242.576 45.18 241.666 45.18C241.196 45.18 240.736 45.41 240.286 45.87V48.885ZM247.735 43.56H249.535L249.715 45.18H249.76C250.13 44.57 250.575 44.12 251.095 43.83C251.615 43.53 252.175 43.38 252.775 43.38C253.105 43.38 253.37 43.405 253.57 43.455C253.78 43.505 253.995 43.58 254.215 43.68L253.765 45.525C253.535 45.455 253.325 45.405 253.135 45.375C252.955 45.335 252.725 45.315 252.445 45.315C251.985 45.315 251.53 45.45 251.08 45.72C250.64 45.99 250.26 46.46 249.94 47.13V51H247.735V43.56ZM256.175 43.56H261.365V51H259.16V45.285H256.175V43.56ZM260.165 42.465C259.735 42.465 259.38 42.345 259.1 42.105C258.83 41.865 258.695 41.54 258.695 41.13C258.695 40.72 258.83 40.39 259.1 40.14C259.38 39.88 259.735 39.75 260.165 39.75C260.595 39.75 260.945 39.88 261.215 40.14C261.495 40.39 261.635 40.72 261.635 41.13C261.635 41.54 261.495 41.865 261.215 42.105C260.945 42.345 260.595 42.465 260.165 42.465ZM265.064 43.56H266.864L267.029 44.55H267.089C267.409 44.23 267.774 43.955 268.184 43.725C268.604 43.495 269.094 43.38 269.654 43.38C270.494 43.38 271.109 43.65 271.499 44.19C271.889 44.73 272.084 45.47 272.084 46.41V51H269.879V46.695C269.879 46.195 269.799 45.83 269.639 45.6C269.479 45.37 269.194 45.255 268.784 45.255C268.484 45.255 268.219 45.32 267.989 45.45C267.769 45.58 267.529 45.775 267.269 46.035V51H265.064V43.56ZM275.588 45.285H273.713V43.65L275.693 43.56L275.978 41.58H277.793V43.56H280.943V45.285H277.793V47.895C277.793 48.465 277.918 48.87 278.168 49.11C278.418 49.34 278.813 49.455 279.353 49.455C279.643 49.455 279.908 49.43 280.148 49.38C280.388 49.33 280.618 49.265 280.838 49.185L281.228 50.775C280.898 50.875 280.528 50.965 280.118 51.045C279.718 51.135 279.278 51.18 278.798 51.18C278.208 51.18 277.708 51.1 277.298 50.94C276.888 50.78 276.553 50.56 276.293 50.28C276.043 49.99 275.863 49.645 275.753 49.245C275.643 48.845 275.588 48.4 275.588 47.91V45.285Z" fill="#56B4E9"/>
<path d="M287.852 53.685C286.872 52.815 286.097 51.81 285.527 50.67C284.967 49.53 284.687 48.25 284.687 46.83C284.687 45.41 284.967 44.13 285.527 42.99C286.097 41.85 286.872 40.845 287.852 39.975L289.082 40.95C288.192 41.82 287.542 42.725 287.132 43.665C286.732 44.595 286.532 45.65 286.532 46.83C286.532 47.42 286.582 47.98 286.682 48.51C286.782 49.03 286.932 49.53 287.132 50.01C287.342 50.49 287.607 50.95 287.927 51.39C288.247 51.84 288.632 52.28 289.082 52.71L287.852 53.685ZM337.827 52.71C338.277 52.28 338.662 51.84 338.982 51.39C339.302 50.95 339.562 50.49 339.762 50.01C339.972 49.53 340.127 49.03 340.227 48.51C340.327 47.98 340.377 47.42 340.377 46.83C340.377 45.65 340.172 44.595 339.762 43.665C339.362 42.725 338.717 41.82 337.827 40.95L339.057 39.975C340.037 40.845 340.807 41.85 341.367 42.99C341.937 44.13 342.222 45.41 342.222 46.83C342.222 48.25 341.937 49.53 341.367 50.67C340.807 51.81 340.037 52.815 339.057 53.685L337.827 52.71Z" fill="white"/>
<path d="M292.646 48.45C292.966 48.71 293.306 48.935 293.666 49.125C294.036 49.305 294.446 49.395 294.896 49.395C295.436 49.395 295.876 49.27 296.216 49.02C296.566 48.77 296.741 48.4 296.741 47.91C296.741 47.43 296.576 47.065 296.246 46.815C295.926 46.565 295.511 46.44 295.001 46.44C294.841 46.44 294.696 46.45 294.566 46.47C294.446 46.48 294.326 46.505 294.206 46.545C294.086 46.585 293.961 46.635 293.831 46.695C293.701 46.755 293.556 46.83 293.396 46.92L292.421 46.29L292.676 41.475H298.511V43.335H294.581L294.416 45.12C294.636 45.04 294.841 44.985 295.031 44.955C295.221 44.915 295.436 44.895 295.676 44.895C296.116 44.895 296.531 44.955 296.921 45.075C297.321 45.195 297.671 45.375 297.971 45.615C298.271 45.855 298.506 46.16 298.676 46.53C298.856 46.9 298.946 47.34 298.946 47.85C298.946 48.38 298.841 48.85 298.631 49.26C298.431 49.67 298.156 50.02 297.806 50.31C297.466 50.59 297.071 50.805 296.621 50.955C296.171 51.105 295.701 51.18 295.211 51.18C294.381 51.18 293.676 51.055 293.096 50.805C292.526 50.545 292.046 50.225 291.656 49.845L292.646 48.45ZM334.998 49.215V51H328.173V49.215H330.633V43.71H328.668V42.345C329.228 42.245 329.703 42.125 330.093 41.985C330.493 41.845 330.868 41.675 331.218 41.475H332.838V49.215H334.998ZM237.871 68.74C238.551 68.17 239.171 67.64 239.731 67.15C240.291 66.65 240.771 66.185 241.171 65.755C241.571 65.325 241.881 64.92 242.101 64.54C242.321 64.16 242.431 63.8 242.431 63.46C242.431 62.99 242.296 62.635 242.026 62.395C241.756 62.145 241.371 62.02 240.871 62.02C240.491 62.02 240.141 62.12 239.821 62.32C239.511 62.51 239.221 62.735 238.951 62.995L237.766 61.81C238.016 61.56 238.261 61.34 238.501 61.15C238.751 60.96 239.011 60.805 239.281 60.685C239.561 60.555 239.851 60.46 240.151 60.4C240.461 60.33 240.801 60.295 241.171 60.295C241.671 60.295 242.126 60.37 242.536 60.52C242.946 60.66 243.296 60.865 243.586 61.135C243.886 61.395 244.116 61.71 244.276 62.08C244.446 62.45 244.531 62.865 244.531 63.325C244.531 63.725 244.436 64.135 244.246 64.555C244.056 64.965 243.796 65.38 243.466 65.8C243.146 66.21 242.776 66.625 242.356 67.045C241.936 67.455 241.496 67.86 241.036 68.26C241.306 68.23 241.596 68.205 241.906 68.185C242.226 68.155 242.511 68.14 242.761 68.14H245.026V70H237.871V68.74ZM274.628 67.435C274.948 67.715 275.303 67.945 275.693 68.125C276.093 68.305 276.513 68.395 276.953 68.395C277.473 68.395 277.898 68.3 278.228 68.11C278.568 67.91 278.738 67.63 278.738 67.27C278.738 67.06 278.693 66.87 278.603 66.7C278.513 66.53 278.358 66.39 278.138 66.28C277.918 66.16 277.623 66.07 277.253 66.01C276.883 65.94 276.418 65.905 275.858 65.905V64.345C276.798 64.345 277.458 64.23 277.838 64C278.228 63.76 278.423 63.45 278.423 63.07C278.423 62.74 278.298 62.485 278.048 62.305C277.798 62.115 277.453 62.02 277.013 62.02C276.633 62.02 276.283 62.095 275.963 62.245C275.643 62.395 275.318 62.6 274.988 62.86L273.878 61.51C274.348 61.13 274.848 60.835 275.378 60.625C275.918 60.405 276.498 60.295 277.118 60.295C277.638 60.295 278.113 60.355 278.543 60.475C278.973 60.585 279.343 60.755 279.653 60.985C279.963 61.205 280.203 61.475 280.373 61.795C280.543 62.115 280.628 62.485 280.628 62.905C280.628 63.405 280.468 63.83 280.148 64.18C279.828 64.52 279.383 64.8 278.813 65.02V65.08C279.413 65.24 279.918 65.515 280.328 65.905C280.738 66.285 280.943 66.785 280.943 67.405C280.943 67.845 280.838 68.24 280.628 68.59C280.428 68.93 280.153 69.22 279.803 69.46C279.463 69.69 279.063 69.87 278.603 70C278.143 70.12 277.663 70.18 277.163 70.18C276.343 70.18 275.638 70.06 275.048 69.82C274.458 69.57 273.978 69.24 273.608 68.83L274.628 67.435ZM241.231 82.87C241.511 82.87 241.801 82.8 242.101 82.66C242.401 82.52 242.696 82.275 242.986 81.925C242.926 81.555 242.836 81.245 242.716 80.995C242.606 80.735 242.471 80.53 242.311 80.38C242.161 80.22 241.996 80.11 241.816 80.05C241.636 79.98 241.451 79.945 241.261 79.945C241.071 79.945 240.886 79.975 240.706 80.035C240.536 80.095 240.381 80.19 240.241 80.32C240.111 80.44 240.006 80.6 239.926 80.8C239.846 80.99 239.806 81.22 239.806 81.49C239.806 81.98 239.936 82.335 240.196 82.555C240.456 82.765 240.801 82.87 241.231 82.87ZM239.101 85.72C239.301 85.9 239.551 86.06 239.851 86.2C240.151 86.33 240.461 86.395 240.781 86.395C241.071 86.395 241.346 86.345 241.606 86.245C241.876 86.135 242.111 85.965 242.311 85.735C242.521 85.495 242.691 85.185 242.821 84.805C242.951 84.415 243.026 83.94 243.046 83.38C242.696 83.71 242.311 83.97 241.891 84.16C241.481 84.34 241.101 84.43 240.751 84.43C240.331 84.43 239.941 84.37 239.581 84.25C239.221 84.13 238.906 83.95 238.636 83.71C238.376 83.47 238.171 83.165 238.021 82.795C237.871 82.425 237.796 81.99 237.796 81.49C237.796 81 237.886 80.56 238.066 80.17C238.256 79.77 238.506 79.43 238.816 79.15C239.136 78.87 239.501 78.66 239.911 78.52C240.321 78.37 240.756 78.295 241.216 78.295C241.706 78.295 242.181 78.385 242.641 78.565C243.111 78.745 243.526 79.025 243.886 79.405C244.246 79.785 244.531 80.275 244.741 80.875C244.961 81.465 245.071 82.18 245.071 83.02C245.071 83.91 244.956 84.68 244.726 85.33C244.496 85.98 244.191 86.515 243.811 86.935C243.431 87.355 242.991 87.67 242.491 87.88C242.001 88.08 241.496 88.18 240.976 88.18C240.296 88.18 239.701 88.065 239.191 87.835C238.681 87.605 238.261 87.34 237.931 87.04L239.101 85.72ZM281.033 86.215V88H274.208V86.215H276.668V80.71H274.703V79.345C275.263 79.245 275.738 79.125 276.128 78.985C276.528 78.845 276.903 78.675 277.253 78.475H278.873V86.215H281.033Z" fill="#F0E442"/>
<path d="M312.644 46.83H310.004V45.27H312.644V42.51H314.264V45.27H316.904V46.83H314.264V49.59H312.644V46.83ZM258.68 65.83H256.04V64.27H258.68V61.51H260.3V64.27H262.94V65.83H260.3V68.59H258.68V65.83ZM258.68 83.83H256.04V82.27H258.68V79.51H260.3V82.27H262.94V83.83H260.3V86.59H258.68V83.83Z" fill="#E0E0E0"/>
<rect x="460" width="192" height="182" fill="black"/>
<path d="M470.71 134.53C470.9 134.53 471.08 134.5 471.25 134.44C471.43 134.38 471.585 134.29 471.715 134.17C471.855 134.04 471.965 133.88 472.045 133.69C472.125 133.49 472.165 133.255 472.165 132.985C472.165 132.495 472.035 132.145 471.775 131.935C471.515 131.715 471.175 131.605 470.755 131.605C470.475 131.605 470.185 131.675 469.885 131.815C469.585 131.955 469.29 132.195 469 132.535C469.06 132.915 469.145 133.235 469.255 133.495C469.375 133.745 469.51 133.95 469.66 134.11C469.81 134.26 469.975 134.37 470.155 134.44C470.335 134.5 470.52 134.53 470.71 134.53ZM472.885 128.755C472.685 128.575 472.435 128.42 472.135 128.29C471.835 128.15 471.525 128.08 471.205 128.08C470.915 128.08 470.635 128.135 470.365 128.245C470.105 128.345 469.87 128.515 469.66 128.755C469.46 128.985 469.295 129.29 469.165 129.67C469.035 130.05 468.96 130.52 468.94 131.08C469.28 130.75 469.655 130.495 470.065 130.315C470.485 130.135 470.875 130.045 471.235 130.045C471.655 130.045 472.04 130.105 472.39 130.225C472.75 130.345 473.06 130.525 473.32 130.765C473.59 131.005 473.8 131.31 473.95 131.68C474.1 132.05 474.175 132.485 474.175 132.985C474.175 133.485 474.08 133.93 473.89 134.32C473.71 134.71 473.46 135.045 473.14 135.325C472.83 135.605 472.47 135.82 472.06 135.97C471.65 136.11 471.215 136.18 470.755 136.18C470.265 136.18 469.79 136.09 469.33 135.91C468.87 135.73 468.46 135.45 468.1 135.07C467.74 134.69 467.45 134.205 467.23 133.615C467.01 133.015 466.9 132.295 466.9 131.455C466.9 130.565 467.015 129.795 467.245 129.145C467.475 128.495 467.78 127.96 468.16 127.54C468.55 127.12 468.99 126.81 469.48 126.61C469.97 126.4 470.48 126.295 471.01 126.295C471.69 126.295 472.285 126.41 472.795 126.64C473.305 126.86 473.72 127.125 474.04 127.435L472.885 128.755ZM467.68 152.45C468 152.71 468.34 152.935 468.7 153.125C469.07 153.305 469.48 153.395 469.93 153.395C470.47 153.395 470.91 153.27 471.25 153.02C471.6 152.77 471.775 152.4 471.775 151.91C471.775 151.43 471.61 151.065 471.28 150.815C470.96 150.565 470.545 150.44 470.035 150.44C469.875 150.44 469.73 150.45 469.6 150.47C469.48 150.48 469.36 150.505 469.24 150.545C469.12 150.585 468.995 150.635 468.865 150.695C468.735 150.755 468.59 150.83 468.43 150.92L467.455 150.29L467.71 145.475H473.545V147.335H469.615L469.45 149.12C469.67 149.04 469.875 148.985 470.065 148.955C470.255 148.915 470.47 148.895 470.71 148.895C471.15 148.895 471.565 148.955 471.955 149.075C472.355 149.195 472.705 149.375 473.005 149.615C473.305 149.855 473.54 150.16 473.71 150.53C473.89 150.9 473.98 151.34 473.98 151.85C473.98 152.38 473.875 152.85 473.665 153.26C473.465 153.67 473.19 154.02 472.84 154.31C472.5 154.59 472.105 154.805 471.655 154.955C471.205 155.105 470.735 155.18 470.245 155.18C469.415 155.18 468.71 155.055 468.13 154.805C467.56 154.545 467.08 154.225 466.69 153.845L467.68 152.45ZM474.055 171.215V173H467.23V171.215H469.69V165.71H467.725V164.345C468.285 164.245 468.76 164.125 469.15 163.985C469.55 163.845 469.925 163.675 470.275 163.475H471.895V171.215H474.055ZM479.494 173.18C478.944 173.18 478.444 173.075 477.994 172.865C477.544 172.645 477.159 172.325 476.839 171.905C476.519 171.485 476.269 170.965 476.089 170.345C475.919 169.725 475.834 169.01 475.834 168.2C475.834 167.39 475.919 166.68 476.089 166.07C476.269 165.46 476.519 164.95 476.839 164.54C477.159 164.12 477.544 163.81 477.994 163.61C478.444 163.4 478.944 163.295 479.494 163.295C480.044 163.295 480.544 163.4 480.994 163.61C481.444 163.81 481.829 164.12 482.149 164.54C482.469 164.95 482.714 165.46 482.884 166.07C483.064 166.68 483.154 167.39 483.154 168.2C483.154 169.01 483.064 169.725 482.884 170.345C482.714 170.965 482.469 171.485 482.149 171.905C481.829 172.325 481.444 172.645 480.994 172.865C480.544 173.075 480.044 173.18 479.494 173.18ZM479.494 165.005C479.254 165.005 479.029 165.055 478.819 165.155C478.619 165.255 478.444 165.43 478.294 165.68C478.144 165.92 478.024 166.245 477.934 166.655C477.844 167.065 477.799 167.58 477.799 168.2C477.799 168.82 477.844 169.34 477.934 169.76C478.024 170.17 478.144 170.505 478.294 170.765C478.444 171.015 478.619 171.195 478.819 171.305C479.029 171.415 479.254 171.47 479.494 171.47C479.734 171.47 479.954 171.415 480.154 171.305C480.364 171.195 480.544 171.015 480.694 170.765C480.844 170.505 480.964 170.17 481.054 169.76C481.144 169.34 481.189 168.82 481.189 168.2C481.189 167.58 481.144 167.065 481.054 166.655C480.964 166.245 480.844 165.92 480.694 165.68C480.544 165.43 480.364 165.255 480.154 165.155C479.954 165.055 479.734 165.005 479.494 165.005ZM479.494 169.31C479.174 169.31 478.904 169.21 478.684 169.01C478.474 168.8 478.369 168.52 478.369 168.17C478.369 167.82 478.474 167.545 478.684 167.345C478.904 167.135 479.174 167.03 479.494 167.03C479.814 167.03 480.079 167.135 480.289 167.345C480.509 167.545 480.619 167.82 480.619 168.17C480.619 168.52 480.509 168.8 480.289 169.01C480.079 169.21 479.814 169.31 479.494 169.31Z" fill="white"/>
<path d="M470.502 116.261C469.922 116.261 469.387 116.146 468.897 115.916C468.417 115.676 468.002 115.336 467.652 114.896C467.312 114.456 467.047 113.921 466.857 113.291C466.667 112.661 466.572 111.946 466.572 111.146C466.572 110.346 466.667 109.636 466.857 109.016C467.047 108.386 467.312 107.861 467.652 107.441C468.002 107.011 468.417 106.686 468.897 106.466C469.387 106.236 469.922 106.121 470.502 106.121C471.082 106.121 471.612 106.236 472.092 106.466C472.582 106.686 472.997 107.011 473.337 107.441C473.687 107.871 473.957 108.401 474.147 109.031C474.337 109.651 474.432 110.356 474.432 111.146C474.432 111.946 474.337 112.661 474.147 113.291C473.957 113.921 473.687 114.456 473.337 114.896C472.997 115.336 472.582 115.676 472.092 115.916C471.612 116.146 471.082 116.261 470.502 116.261ZM470.502 114.356C471.012 114.356 471.417 114.071 471.717 113.501C472.017 112.921 472.167 112.136 472.167 111.146C472.167 110.166 472.017 109.401 471.717 108.851C471.417 108.301 471.012 108.026 470.502 108.026C469.992 108.026 469.587 108.301 469.287 108.851C468.987 109.401 468.837 110.166 468.837 111.146C468.837 112.136 468.987 112.921 469.287 113.501C469.587 114.071 469.992 114.356 470.502 114.356ZM482.871 116.081H481.071L480.906 115.016H480.846C480.516 115.396 480.151 115.701 479.751 115.931C479.351 116.151 478.881 116.261 478.341 116.261C477.491 116.261 476.876 115.991 476.496 115.451C476.116 114.911 475.926 114.171 475.926 113.231V108.641H478.131V112.946C478.131 113.446 478.206 113.811 478.356 114.041C478.506 114.271 478.791 114.386 479.211 114.386C479.491 114.386 479.736 114.326 479.946 114.206C480.166 114.086 480.406 113.861 480.666 113.531V108.641H482.871V116.081ZM486.6 110.366H484.725V108.731L486.705 108.641L486.99 106.661H488.805V108.641H491.955V110.366H488.805V112.976C488.805 113.546 488.93 113.951 489.18 114.191C489.43 114.421 489.825 114.536 490.365 114.536C490.655 114.536 490.92 114.511 491.16 114.461C491.4 114.411 491.63 114.346 491.85 114.266L492.24 115.856C491.91 115.956 491.54 116.046 491.13 116.126C490.73 116.216 490.29 116.261 489.81 116.261C489.22 116.261 488.72 116.181 488.31 116.021C487.9 115.861 487.565 115.641 487.305 115.361C487.055 115.071 486.875 114.726 486.765 114.326C486.655 113.926 486.6 113.481 486.6 112.991V110.366ZM496.269 116.666V118.841H494.064V108.641H495.864L496.029 109.391H496.074C496.374 109.121 496.719 108.901 497.109 108.731C497.499 108.551 497.894 108.461 498.294 108.461C498.754 108.461 499.169 108.551 499.539 108.731C499.909 108.911 500.224 109.166 500.484 109.496C500.744 109.826 500.939 110.226 501.069 110.696C501.209 111.156 501.279 111.671 501.279 112.241C501.279 112.881 501.189 113.451 501.009 113.951C500.829 114.441 500.589 114.861 500.289 115.211C499.989 115.551 499.644 115.811 499.254 115.991C498.874 116.171 498.474 116.261 498.054 116.261C497.374 116.261 496.754 115.991 496.194 115.451L496.269 116.666ZM496.269 113.966C496.479 114.146 496.694 114.276 496.914 114.356C497.144 114.426 497.354 114.461 497.544 114.461C497.964 114.461 498.314 114.291 498.594 113.951C498.874 113.601 499.014 113.041 499.014 112.271C499.014 110.931 498.559 110.261 497.649 110.261C497.179 110.261 496.719 110.491 496.269 110.951V113.966ZM509.853 116.081H508.053L507.888 115.016H507.828C507.498 115.396 507.133 115.701 506.733 115.931C506.333 116.151 505.863 116.261 505.323 116.261C504.473 116.261 503.858 115.991 503.478 115.451C503.098 114.911 502.908 114.171 502.908 113.231V108.641H505.113V112.946C505.113 113.446 505.188 113.811 505.338 114.041C505.488 114.271 505.773 114.386 506.193 114.386C506.473 114.386 506.718 114.326 506.928 114.206C507.148 114.086 507.388 113.861 507.648 113.531V108.641H509.853V116.081ZM513.583 110.366H511.708V108.731L513.688 108.641L513.973 106.661H515.788V108.641H518.938V110.366H515.788V112.976C515.788 113.546 515.913 113.951 516.163 114.191C516.413 114.421 516.808 114.536 517.348 114.536C517.638 114.536 517.903 114.511 518.143 114.461C518.383 114.411 518.613 114.346 518.833 114.266L519.223 115.856C518.893 115.956 518.523 116.046 518.113 116.126C517.713 116.216 517.273 116.261 516.793 116.261C516.203 116.261 515.703 116.181 515.293 116.021C514.883 115.861 514.548 115.641 514.288 115.361C514.038 115.071 513.858 114.726 513.748 114.326C513.638 113.926 513.583 113.481 513.583 112.991V110.366Z" fill="white"/>
<rect x="539.001" width="113" height="31" fill="#333333"/>
<rect x="539.001" width="113" height="31" fill="#333333"/>
<rect x="460.001" width="79" height="31" fill="#090808"/>
<path d="M472.106 17.8101C472.106 17.5513 471.977 17.3486 471.718 17.2021C471.464 17.0508 471.054 16.9165 470.488 16.7993C468.603 16.4038 467.66 15.603 467.66 14.397C467.66 13.6938 467.951 13.1079 468.532 12.6392C469.118 12.1655 469.882 11.9287 470.825 11.9287C471.83 11.9287 472.634 12.1655 473.234 12.6392C473.84 13.1128 474.142 13.728 474.142 14.4849H472.026C472.026 14.1821 471.928 13.9331 471.733 13.7378C471.537 13.5376 471.232 13.4375 470.817 13.4375C470.461 13.4375 470.185 13.5181 469.99 13.6792C469.794 13.8403 469.697 14.0454 469.697 14.2944C469.697 14.5288 469.806 14.7192 470.026 14.8657C470.251 15.0073 470.627 15.1318 471.154 15.2393C471.681 15.3418 472.126 15.459 472.487 15.5908C473.605 16.001 474.164 16.7114 474.164 17.7222C474.164 18.4448 473.854 19.0308 473.234 19.48C472.614 19.9243 471.813 20.1465 470.832 20.1465C470.168 20.1465 469.577 20.0293 469.059 19.7949C468.547 19.5557 468.144 19.231 467.851 18.8208C467.558 18.4058 467.411 17.959 467.411 17.4805H469.418C469.438 17.8564 469.577 18.1445 469.836 18.3447C470.095 18.5449 470.441 18.645 470.876 18.645C471.281 18.645 471.586 18.5693 471.791 18.418C472.001 18.2617 472.106 18.0591 472.106 17.8101ZM478.83 18.4399C479.221 18.4399 479.538 18.3325 479.782 18.1177C480.026 17.9028 480.153 17.6172 480.163 17.2607H482.148C482.143 17.7979 481.996 18.291 481.708 18.7402C481.42 19.1846 481.025 19.5312 480.522 19.7803C480.024 20.0244 479.472 20.1465 478.867 20.1465C477.734 20.1465 476.84 19.7876 476.186 19.0698C475.532 18.3472 475.204 17.3511 475.204 16.0815V15.9424C475.204 14.7217 475.529 13.7476 476.179 13.02C476.828 12.2925 477.719 11.9287 478.852 11.9287C479.843 11.9287 480.637 12.2119 481.232 12.7783C481.833 13.3398 482.138 14.0894 482.148 15.0269H480.163C480.153 14.6167 480.026 14.2847 479.782 14.0308C479.538 13.772 479.216 13.6426 478.815 13.6426C478.322 13.6426 477.949 13.8232 477.695 14.1846C477.446 14.541 477.321 15.1221 477.321 15.9277V16.1475C477.321 16.9629 477.446 17.5488 477.695 17.9053C477.944 18.2617 478.322 18.4399 478.83 18.4399ZM487.809 14.0601C487.521 14.021 487.267 14.0015 487.048 14.0015C486.247 14.0015 485.722 14.2725 485.473 14.8145V20H483.356V12.0752H485.356L485.414 13.02C485.839 12.2925 486.428 11.9287 487.18 11.9287C487.414 11.9287 487.634 11.9604 487.839 12.0239L487.809 14.0601ZM491.069 20H488.945V12.0752H491.069V20ZM488.82 10.0244C488.82 9.70703 488.925 9.4458 489.135 9.24072C489.35 9.03564 489.64 8.93311 490.007 8.93311C490.368 8.93311 490.656 9.03564 490.871 9.24072C491.086 9.4458 491.193 9.70703 491.193 10.0244C491.193 10.3467 491.083 10.6104 490.864 10.8154C490.649 11.0205 490.363 11.123 490.007 11.123C489.65 11.123 489.362 11.0205 489.142 10.8154C488.928 10.6104 488.82 10.3467 488.82 10.0244ZM499.953 16.1108C499.953 17.3315 499.675 18.3105 499.118 19.0479C498.566 19.7803 497.819 20.1465 496.877 20.1465C496.076 20.1465 495.429 19.8682 494.936 19.3115V23.0469H492.819V12.0752H494.782L494.855 12.8516C495.368 12.2363 496.037 11.9287 496.862 11.9287C497.839 11.9287 498.598 12.29 499.14 13.0127C499.682 13.7354 499.953 14.7314 499.953 16.001V16.1108ZM497.836 15.957C497.836 15.2197 497.704 14.6509 497.441 14.2505C497.182 13.8501 496.804 13.6499 496.305 13.6499C495.641 13.6499 495.185 13.9038 494.936 14.4116V17.6562C495.195 18.1787 495.656 18.4399 496.32 18.4399C497.331 18.4399 497.836 17.6123 497.836 15.957ZM503.805 10.127V12.0752H505.16V13.6279H503.805V17.583C503.805 17.876 503.862 18.0859 503.974 18.2129C504.086 18.3398 504.301 18.4033 504.618 18.4033C504.853 18.4033 505.06 18.3862 505.241 18.3521V19.9561C504.826 20.083 504.399 20.1465 503.959 20.1465C502.475 20.1465 501.718 19.397 501.689 17.8979V13.6279H500.532V12.0752H501.689V10.127H503.805ZM506.45 18.96C506.45 18.623 506.562 18.3496 506.786 18.1396C507.016 17.9297 507.302 17.8247 507.643 17.8247C507.99 17.8247 508.276 17.9297 508.5 18.1396C508.73 18.3496 508.845 18.623 508.845 18.96C508.845 19.292 508.732 19.563 508.508 19.7729C508.283 19.978 507.995 20.0806 507.643 20.0806C507.297 20.0806 507.011 19.978 506.786 19.7729C506.562 19.563 506.45 19.292 506.45 18.96ZM517.839 16.1108C517.839 17.3315 517.56 18.3105 517.004 19.0479C516.452 19.7803 515.705 20.1465 514.763 20.1465C513.962 20.1465 513.315 19.8682 512.822 19.3115V23.0469H510.705V12.0752H512.668L512.741 12.8516C513.254 12.2363 513.923 11.9287 514.748 11.9287C515.724 11.9287 516.484 12.29 517.026 13.0127C517.568 13.7354 517.839 14.7314 517.839 16.001V16.1108ZM515.722 15.957C515.722 15.2197 515.59 14.6509 515.326 14.2505C515.068 13.8501 514.689 13.6499 514.191 13.6499C513.527 13.6499 513.071 13.9038 512.822 14.4116V17.6562C513.08 18.1787 513.542 18.4399 514.206 18.4399C515.217 18.4399 515.722 17.6123 515.722 15.957ZM522.028 17.0044L523.493 12.0752H525.763L522.577 21.2305L522.402 21.6479C521.928 22.6831 521.147 23.2007 520.058 23.2007C519.75 23.2007 519.438 23.1543 519.12 23.0615V21.4575L519.443 21.4648C519.843 21.4648 520.141 21.4038 520.336 21.2817C520.536 21.1597 520.693 20.957 520.805 20.6738L521.054 20.022L518.278 12.0752H520.556L522.028 17.0044Z" fill="white"/>
<line x1="460" y1="100.5" x2="652" y2="100.5" stroke="white"/>
<path d="M470.286 51.585V53.76H468.081V43.56H469.881L470.046 44.31H470.091C470.391 44.04 470.736 43.82 471.126 43.65C471.516 43.47 471.911 43.38 472.311 43.38C472.771 43.38 473.186 43.47 473.556 43.65C473.926 43.83 474.241 44.085 474.501 44.415C474.761 44.745 474.956 45.145 475.086 45.615C475.226 46.075 475.296 46.59 475.296 47.16C475.296 47.8 475.206 48.37 475.026 48.87C474.846 49.36 474.606 49.78 474.306 50.13C474.006 50.47 473.661 50.73 473.271 50.91C472.891 51.09 472.491 51.18 472.071 51.18C471.391 51.18 470.771 50.91 470.211 50.37L470.286 51.585ZM470.286 48.885C470.496 49.065 470.711 49.195 470.931 49.275C471.161 49.345 471.371 49.38 471.561 49.38C471.981 49.38 472.331 49.21 472.611 48.87C472.891 48.52 473.031 47.96 473.031 47.19C473.031 45.85 472.576 45.18 471.666 45.18C471.196 45.18 470.736 45.41 470.286 45.87V48.885ZM477.735 43.56H479.535L479.715 45.18H479.76C480.13 44.57 480.575 44.12 481.095 43.83C481.615 43.53 482.175 43.38 482.775 43.38C483.105 43.38 483.37 43.405 483.57 43.455C483.78 43.505 483.995 43.58 484.215 43.68L483.765 45.525C483.535 45.455 483.325 45.405 483.135 45.375C482.955 45.335 482.725 45.315 482.445 45.315C481.985 45.315 481.53 45.45 481.08 45.72C480.64 45.99 480.26 46.46 479.94 47.13V51H477.735V43.56ZM486.175 43.56H491.365V51H489.16V45.285H486.175V43.56ZM490.165 42.465C489.735 42.465 489.38 42.345 489.1 42.105C488.83 41.865 488.695 41.54 488.695 41.13C488.695 40.72 488.83 40.39 489.1 40.14C489.38 39.88 489.735 39.75 490.165 39.75C490.595 39.75 490.945 39.88 491.215 40.14C491.495 40.39 491.635 40.72 491.635 41.13C491.635 41.54 491.495 41.865 491.215 42.105C490.945 42.345 490.595 42.465 490.165 42.465ZM495.064 43.56H496.864L497.029 44.55H497.089C497.409 44.23 497.774 43.955 498.184 43.725C498.604 43.495 499.094 43.38 499.654 43.38C500.494 43.38 501.109 43.65 501.499 44.19C501.889 44.73 502.084 45.47 502.084 46.41V51H499.879V46.695C499.879 46.195 499.799 45.83 499.639 45.6C499.479 45.37 499.194 45.255 498.784 45.255C498.484 45.255 498.219 45.32 497.989 45.45C497.769 45.58 497.529 45.775 497.269 46.035V51H495.064V43.56ZM505.588 45.285H503.713V43.65L505.693 43.56L505.978 41.58H507.793V43.56H510.943V45.285H507.793V47.895C507.793 48.465 507.918 48.87 508.168 49.11C508.418 49.34 508.813 49.455 509.353 49.455C509.643 49.455 509.908 49.43 510.148 49.38C510.388 49.33 510.618 49.265 510.838 49.185L511.228 50.775C510.898 50.875 510.528 50.965 510.118 51.045C509.718 51.135 509.278 51.18 508.798 51.18C508.208 51.18 507.708 51.1 507.298 50.94C506.888 50.78 506.553 50.56 506.293 50.28C506.043 49.99 505.863 49.645 505.753 49.245C505.643 48.845 505.588 48.4 505.588 47.91V45.285ZM470.286 70.585V72.76H468.081V62.56H469.881L470.046 63.31H470.091C470.391 63.04 470.736 62.82 471.126 62.65C471.516 62.47 471.911 62.38 472.311 62.38C472.771 62.38 473.186 62.47 473.556 62.65C473.926 62.83 474.241 63.085 474.501 63.415C474.761 63.745 474.956 64.145 475.086 64.615C475.226 65.075 475.296 65.59 475.296 66.16C475.296 66.8 475.206 67.37 475.026 67.87C474.846 68.36 474.606 68.78 474.306 69.13C474.006 69.47 473.661 69.73 473.271 69.91C472.891 70.09 472.491 70.18 472.071 70.18C471.391 70.18 470.771 69.91 470.211 69.37L470.286 70.585ZM470.286 67.885C470.496 68.065 470.711 68.195 470.931 68.275C471.161 68.345 471.371 68.38 471.561 68.38C471.981 68.38 472.331 68.21 472.611 67.87C472.891 67.52 473.031 66.96 473.031 66.19C473.031 64.85 472.576 64.18 471.666 64.18C471.196 64.18 470.736 64.41 470.286 64.87V67.885ZM477.735 62.56H479.535L479.715 64.18H479.76C480.13 63.57 480.575 63.12 481.095 62.83C481.615 62.53 482.175 62.38 482.775 62.38C483.105 62.38 483.37 62.405 483.57 62.455C483.78 62.505 483.995 62.58 484.215 62.68L483.765 64.525C483.535 64.455 483.325 64.405 483.135 64.375C482.955 64.335 482.725 64.315 482.445 64.315C481.985 64.315 481.53 64.45 481.08 64.72C480.64 64.99 480.26 65.46 479.94 66.13V70H477.735V62.56ZM486.175 62.56H491.365V70H489.16V64.285H486.175V62.56ZM490.165 61.465C489.735 61.465 489.38 61.345 489.1 61.105C488.83 60.865 488.695 60.54 488.695 60.13C488.695 59.72 488.83 59.39 489.1 59.14C489.38 58.88 489.735 58.75 490.165 58.75C490.595 58.75 490.945 58.88 491.215 59.14C491.495 59.39 491.635 59.72 491.635 60.13C491.635 60.54 491.495 60.865 491.215 61.105C490.945 61.345 490.595 61.465 490.165 61.465ZM495.064 62.56H496.864L497.029 63.55H497.089C497.409 63.23 497.774 62.955 498.184 62.725C498.604 62.495 499.094 62.38 499.654 62.38C500.494 62.38 501.109 62.65 501.499 63.19C501.889 63.73 502.084 64.47 502.084 65.41V70H499.879V65.695C499.879 65.195 499.799 64.83 499.639 64.6C499.479 64.37 499.194 64.255 498.784 64.255C498.484 64.255 498.219 64.32 497.989 64.45C497.769 64.58 497.529 64.775 497.269 65.035V70H495.064V62.56ZM505.588 64.285H503.713V62.65L505.693 62.56L505.978 60.58H507.793V62.56H510.943V64.285H507.793V66.895C507.793 67.465 507.918 67.87 508.168 68.11C508.418 68.34 508.813 68.455 509.353 68.455C509.643 68.455 509.908 68.43 510.148 68.38C510.388 68.33 510.618 68.265 510.838 68.185L511.228 69.775C510.898 69.875 510.528 69.965 510.118 70.045C509.718 70.135 509.278 70.18 508.798 70.18C508.208 70.18 507.708 70.1 507.298 69.94C506.888 69.78 506.553 69.56 506.293 69.28C506.043 68.99 505.863 68.645 505.753 68.245C505.643 67.845 505.588 67.4 505.588 66.91V64.285Z" fill="#56B4E9"/>
<path d="M517.852 53.685C516.872 52.815 516.097 51.81 515.527 50.67C514.967 49.53 514.687 48.25 514.687 46.83C514.687 45.41 514.967 44.13 515.527 42.99C516.097 41.85 516.872 40.845 517.852 39.975L519.082 40.95C518.192 41.82 517.542 42.725 517.132 43.665C516.732 44.595 516.532 45.65 516.532 46.83C516.532 47.42 516.582 47.98 516.682 48.51C516.782 49.03 516.932 49.53 517.132 50.01C517.342 50.49 517.607 50.95 517.927 51.39C518.247 51.84 518.632 52.28 519.082 52.71L517.852 53.685ZM567.827 52.71C568.277 52.28 568.662 51.84 568.982 51.39C569.302 50.95 569.562 50.49 569.762 50.01C569.972 49.53 570.127 49.03 570.227 48.51C570.327 47.98 570.377 47.42 570.377 46.83C570.377 45.65 570.172 44.595 569.762 43.665C569.362 42.725 568.717 41.82 567.827 40.95L569.057 39.975C570.037 40.845 570.807 41.85 571.367 42.99C571.937 44.13 572.222 45.41 572.222 46.83C572.222 48.25 571.937 49.53 571.367 50.67C570.807 51.81 570.037 52.815 569.057 53.685L567.827 52.71ZM517.852 72.685C516.872 71.815 516.097 70.81 515.527 69.67C514.967 68.53 514.687 67.25 514.687 65.83C514.687 64.41 514.967 63.13 515.527 61.99C516.097 60.85 516.872 59.845 517.852 58.975L519.082 59.95C518.192 60.82 517.542 61.725 517.132 62.665C516.732 63.595 516.532 64.65 516.532 65.83C516.532 66.42 516.582 66.98 516.682 67.51C516.782 68.03 516.932 68.53 517.132 69.01C517.342 69.49 517.607 69.95 517.927 70.39C518.247 70.84 518.632 71.28 519.082 71.71L517.852 72.685ZM567.827 71.71C568.277 71.28 568.662 70.84 568.982 70.39C569.302 69.95 569.562 69.49 569.762 69.01C569.972 68.53 570.127 68.03 570.227 67.51C570.327 66.98 570.377 66.42 570.377 65.83C570.377 64.65 570.172 63.595 569.762 62.665C569.362 61.725 568.717 60.82 567.827 59.95L569.057 58.975C570.037 59.845 570.807 60.85 571.367 61.99C571.937 63.13 572.222 64.41 572.222 65.83C572.222 67.25 571.937 68.53 571.367 69.67C570.807 70.81 570.037 71.815 569.057 72.685L567.827 71.71Z" fill="white"/>
<path d="M522.646 48.45C522.966 48.71 523.306 48.935 523.666 49.125C524.036 49.305 524.446 49.395 524.896 49.395C525.436 49.395 525.876 49.27 526.216 49.02C526.566 48.77 526.741 48.4 526.741 47.91C526.741 47.43 526.576 47.065 526.246 46.815C525.926 46.565 525.511 46.44 525.001 46.44C524.841 46.44 524.696 46.45 524.566 46.47C524.446 46.48 524.326 46.505 524.206 46.545C524.086 46.585 523.961 46.635 523.831 46.695C523.701 46.755 523.556 46.83 523.396 46.92L522.421 46.29L522.676 41.475H528.511V43.335H524.581L524.416 45.12C524.636 45.04 524.841 44.985 525.031 44.955C525.221 44.915 525.436 44.895 525.676 44.895C526.116 44.895 526.531 44.955 526.921 45.075C527.321 45.195 527.671 45.375 527.971 45.615C528.271 45.855 528.506 46.16 528.676 46.53C528.856 46.9 528.946 47.34 528.946 47.85C528.946 48.38 528.841 48.85 528.631 49.26C528.431 49.67 528.156 50.02 527.806 50.31C527.466 50.59 527.071 50.805 526.621 50.955C526.171 51.105 525.701 51.18 525.211 51.18C524.381 51.18 523.676 51.055 523.096 50.805C522.526 50.545 522.046 50.225 521.656 49.845L522.646 48.45ZM564.998 49.215V51H558.173V49.215H560.633V43.71H558.668V42.345C559.228 42.245 559.703 42.125 560.093 41.985C560.493 41.845 560.868 41.675 561.218 41.475H562.838V49.215H564.998ZM521.836 68.74C522.516 68.17 523.136 67.64 523.696 67.15C524.256 66.65 524.736 66.185 525.136 65.755C525.536 65.325 525.846 64.92 526.066 64.54C526.286 64.16 526.396 63.8 526.396 63.46C526.396 62.99 526.261 62.635 525.991 62.395C525.721 62.145 525.336 62.02 524.836 62.02C524.456 62.02 524.106 62.12 523.786 62.32C523.476 62.51 523.186 62.735 522.916 62.995L521.731 61.81C521.981 61.56 522.226 61.34 522.466 61.15C522.716 60.96 522.976 60.805 523.246 60.685C523.526 60.555 523.816 60.46 524.116 60.4C524.426 60.33 524.766 60.295 525.136 60.295C525.636 60.295 526.091 60.37 526.501 60.52C526.911 60.66 527.261 60.865 527.551 61.135C527.851 61.395 528.081 61.71 528.241 62.08C528.411 62.45 528.496 62.865 528.496 63.325C528.496 63.725 528.401 64.135 528.211 64.555C528.021 64.965 527.761 65.38 527.431 65.8C527.111 66.21 526.741 66.625 526.321 67.045C525.901 67.455 525.461 67.86 525.001 68.26C525.271 68.23 525.561 68.205 525.871 68.185C526.191 68.155 526.476 68.14 526.726 68.14H528.991V70H521.836V68.74ZM558.593 67.435C558.913 67.715 559.268 67.945 559.658 68.125C560.058 68.305 560.478 68.395 560.918 68.395C561.438 68.395 561.863 68.3 562.193 68.11C562.533 67.91 562.703 67.63 562.703 67.27C562.703 67.06 562.658 66.87 562.568 66.7C562.478 66.53 562.323 66.39 562.103 66.28C561.883 66.16 561.588 66.07 561.218 66.01C560.848 65.94 560.383 65.905 559.823 65.905V64.345C560.763 64.345 561.423 64.23 561.803 64C562.193 63.76 562.388 63.45 562.388 63.07C562.388 62.74 562.263 62.485 562.013 62.305C561.763 62.115 561.418 62.02 560.978 62.02C560.598 62.02 560.248 62.095 559.928 62.245C559.608 62.395 559.283 62.6 558.953 62.86L557.843 61.51C558.313 61.13 558.813 60.835 559.343 60.625C559.883 60.405 560.463 60.295 561.083 60.295C561.603 60.295 562.078 60.355 562.508 60.475C562.938 60.585 563.308 60.755 563.618 60.985C563.928 61.205 564.168 61.475 564.338 61.795C564.508 62.115 564.593 62.485 564.593 62.905C564.593 63.405 564.433 63.83 564.113 64.18C563.793 64.52 563.348 64.8 562.778 65.02V65.08C563.378 65.24 563.883 65.515 564.293 65.905C564.703 66.285 564.908 66.785 564.908 67.405C564.908 67.845 564.803 68.24 564.593 68.59C564.393 68.93 564.118 69.22 563.768 69.46C563.428 69.69 563.028 69.87 562.568 70C562.108 70.12 561.628 70.18 561.128 70.18C560.308 70.18 559.603 70.06 559.013 69.82C558.423 69.57 557.943 69.24 557.573 68.83L558.593 67.435ZM471.231 82.87C471.511 82.87 471.801 82.8 472.101 82.66C472.401 82.52 472.696 82.275 472.986 81.925C472.926 81.555 472.836 81.245 472.716 80.995C472.606 80.735 472.471 80.53 472.311 80.38C472.161 80.22 471.996 80.11 471.816 80.05C471.636 79.98 471.451 79.945 471.261 79.945C471.071 79.945 470.886 79.975 470.706 80.035C470.536 80.095 470.381 80.19 470.241 80.32C470.111 80.44 470.006 80.6 469.926 80.8C469.846 80.99 469.806 81.22 469.806 81.49C469.806 81.98 469.936 82.335 470.196 82.555C470.456 82.765 470.801 82.87 471.231 82.87ZM469.101 85.72C469.301 85.9 469.551 86.06 469.851 86.2C470.151 86.33 470.461 86.395 470.781 86.395C471.071 86.395 471.346 86.345 471.606 86.245C471.876 86.135 472.111 85.965 472.311 85.735C472.521 85.495 472.691 85.185 472.821 84.805C472.951 84.415 473.026 83.94 473.046 83.38C472.696 83.71 472.311 83.97 471.891 84.16C471.481 84.34 471.101 84.43 470.751 84.43C470.331 84.43 469.941 84.37 469.581 84.25C469.221 84.13 468.906 83.95 468.636 83.71C468.376 83.47 468.171 83.165 468.021 82.795C467.871 82.425 467.796 81.99 467.796 81.49C467.796 81 467.886 80.56 468.066 80.17C468.256 79.77 468.506 79.43 468.816 79.15C469.136 78.87 469.501 78.66 469.911 78.52C470.321 78.37 470.756 78.295 471.216 78.295C471.706 78.295 472.181 78.385 472.641 78.565C473.111 78.745 473.526 79.025 473.886 79.405C474.246 79.785 474.531 80.275 474.741 80.875C474.961 81.465 475.071 82.18 475.071 83.02C475.071 83.91 474.956 84.68 474.726 85.33C474.496 85.98 474.191 86.515 473.811 86.935C473.431 87.355 472.991 87.67 472.491 87.88C472.001 88.08 471.496 88.18 470.976 88.18C470.296 88.18 469.701 88.065 469.191 87.835C468.681 87.605 468.261 87.34 467.931 87.04L469.101 85.72ZM511.033 86.215V88H504.208V86.215H506.668V80.71H504.703V79.345C505.263 79.245 505.738 79.125 506.128 78.985C506.528 78.845 506.903 78.675 507.253 78.475H508.873V86.215H511.033Z" fill="#F0E442"/>
<path d="M542.644 46.83H540.004V45.27H542.644V42.51H544.264V45.27H546.904V46.83H544.264V49.59H542.644V46.83ZM542.644 65.83H540.004V64.27H542.644V61.51H544.264V64.27H546.904V65.83H544.264V68.59H542.644V65.83ZM488.68 83.83H486.04V82.27H488.68V79.51H490.3V82.27H492.94V83.83H490.3V86.59H488.68V83.83Z" fill="#E0E0E0"/>
</svg>
