<svg width="316" height="148" viewBox="0 0 316 148" fill="none" xmlns="http://www.w3.org/2000/svg">
<rect width="315" height="148" fill="black"/>
<path d="M11.71 130.53C11.9 130.53 12.08 130.5 12.25 130.44C12.43 130.38 12.585 130.29 12.715 130.17C12.855 130.04 12.965 129.88 13.045 129.69C13.125 129.49 13.165 129.255 13.165 128.985C13.165 128.495 13.035 128.145 12.775 127.935C12.515 127.715 12.175 127.605 11.755 127.605C11.475 127.605 11.185 127.675 10.885 127.815C10.585 127.955 10.29 128.195 10 128.535C10.06 128.915 10.145 129.235 10.255 129.495C10.375 129.745 10.51 129.95 10.66 130.11C10.81 130.26 10.975 130.37 11.155 130.44C11.335 130.5 11.52 130.53 11.71 130.53ZM13.885 124.755C13.685 124.575 13.435 124.42 13.135 124.29C12.835 124.15 12.525 124.08 12.205 124.08C11.915 124.08 11.635 124.135 11.365 124.245C11.105 124.345 10.87 124.515 10.66 124.755C10.46 124.985 10.295 125.29 10.165 125.67C10.035 126.05 9.96 126.52 9.94 127.08C10.28 126.75 10.655 126.495 11.065 126.315C11.485 126.135 11.875 126.045 12.235 126.045C12.655 126.045 13.04 126.105 13.39 126.225C13.75 126.345 14.06 126.525 14.32 126.765C14.59 127.005 14.8 127.31 14.95 127.68C15.1 128.05 15.175 128.485 15.175 128.985C15.175 129.485 15.08 129.93 14.89 130.32C14.71 130.71 14.46 131.045 14.14 131.325C13.83 131.605 13.47 131.82 13.06 131.97C12.65 132.11 12.215 132.18 11.755 132.18C11.265 132.18 10.79 132.09 10.33 131.91C9.87 131.73 9.46 131.45 9.1 131.07C8.74 130.69 8.45 130.205 8.23 129.615C8.01 129.015 7.9 128.295 7.9 127.455C7.9 126.565 8.015 125.795 8.245 125.145C8.475 124.495 8.78 123.96 9.16 123.54C9.55 123.12 9.99 122.81 10.48 122.61C10.97 122.4 11.48 122.295 12.01 122.295C12.69 122.295 13.285 122.41 13.795 122.64C14.305 122.86 14.72 123.125 15.04 123.435L13.885 124.755Z" fill="white"/>
<path d="M11.5 112.18C10.92 112.18 10.385 112.065 9.895 111.835C9.415 111.595 9 111.255 8.65 110.815C8.31 110.375 8.045 109.84 7.855 109.21C7.665 108.58 7.57 107.865 7.57 107.065C7.57 106.265 7.665 105.555 7.855 104.935C8.045 104.305 8.31 103.78 8.65 103.36C9 102.93 9.415 102.605 9.895 102.385C10.385 102.155 10.92 102.04 11.5 102.04C12.08 102.04 12.61 102.155 13.09 102.385C13.58 102.605 13.995 102.93 14.335 103.36C14.685 103.79 14.955 104.32 15.145 104.95C15.335 105.57 15.43 106.275 15.43 107.065C15.43 107.865 15.335 108.58 15.145 109.21C14.955 109.84 14.685 110.375 14.335 110.815C13.995 111.255 13.58 111.595 13.09 111.835C12.61 112.065 12.08 112.18 11.5 112.18ZM11.5 110.275C12.01 110.275 12.415 109.99 12.715 109.42C13.015 108.84 13.165 108.055 13.165 107.065C13.165 106.085 13.015 105.32 12.715 104.77C12.415 104.22 12.01 103.945 11.5 103.945C10.99 103.945 10.585 104.22 10.285 104.77C9.985 105.32 9.835 106.085 9.835 107.065C9.835 108.055 9.985 108.84 10.285 109.42C10.585 109.99 10.99 110.275 11.5 110.275ZM23.8691 112H22.0691L21.9041 110.935H21.8441C21.5141 111.315 21.1491 111.62 20.7491 111.85C20.3491 112.07 19.8791 112.18 19.3391 112.18C18.4891 112.18 17.8741 111.91 17.4941 111.37C17.1141 110.83 16.9241 110.09 16.9241 109.15V104.56H19.1291V108.865C19.1291 109.365 19.2041 109.73 19.3541 109.96C19.5041 110.19 19.7891 110.305 20.2091 110.305C20.4891 110.305 20.7341 110.245 20.9441 110.125C21.1641 110.005 21.4041 109.78 21.6641 109.45V104.56H23.8691V112ZM27.5983 106.285H25.7233V104.65L27.7033 104.56L27.9883 102.58H29.8033V104.56H32.9533V106.285H29.8033V108.895C29.8033 109.465 29.9283 109.87 30.1783 110.11C30.4283 110.34 30.8233 110.455 31.3633 110.455C31.6533 110.455 31.9183 110.43 32.1583 110.38C32.3983 110.33 32.6283 110.265 32.8483 110.185L33.2383 111.775C32.9083 111.875 32.5383 111.965 32.1283 112.045C31.7283 112.135 31.2883 112.18 30.8083 112.18C30.2183 112.18 29.7183 112.1 29.3083 111.94C28.8983 111.78 28.5633 111.56 28.3033 111.28C28.0533 110.99 27.8733 110.645 27.7633 110.245C27.6533 109.845 27.5983 109.4 27.5983 108.91V106.285ZM37.2674 112.585V114.76H35.0624V104.56H36.8624L37.0274 105.31H37.0724C37.3724 105.04 37.7174 104.82 38.1074 104.65C38.4974 104.47 38.8924 104.38 39.2924 104.38C39.7524 104.38 40.1674 104.47 40.5374 104.65C40.9074 104.83 41.2224 105.085 41.4824 105.415C41.7424 105.745 41.9374 106.145 42.0674 106.615C42.2074 107.075 42.2774 107.59 42.2774 108.16C42.2774 108.8 42.1874 109.37 42.0074 109.87C41.8274 110.36 41.5874 110.78 41.2874 111.13C40.9874 111.47 40.6424 111.73 40.2524 111.91C39.8724 112.09 39.4724 112.18 39.0524 112.18C38.3724 112.18 37.7524 111.91 37.1924 111.37L37.2674 112.585ZM37.2674 109.885C37.4774 110.065 37.6924 110.195 37.9124 110.275C38.1424 110.345 38.3524 110.38 38.5424 110.38C38.9624 110.38 39.3124 110.21 39.5924 109.87C39.8724 109.52 40.0124 108.96 40.0124 108.19C40.0124 106.85 39.5574 106.18 38.6474 106.18C38.1774 106.18 37.7174 106.41 37.2674 106.87V109.885ZM50.8516 112H49.0516L48.8866 110.935H48.8266C48.4966 111.315 48.1316 111.62 47.7316 111.85C47.3316 112.07 46.8616 112.18 46.3216 112.18C45.4716 112.18 44.8566 111.91 44.4766 111.37C44.0966 110.83 43.9066 110.09 43.9066 109.15V104.56H46.1116V108.865C46.1116 109.365 46.1866 109.73 46.3366 109.96C46.4866 110.19 46.7716 110.305 47.1916 110.305C47.4716 110.305 47.7166 110.245 47.9266 110.125C48.1466 110.005 48.3866 109.78 48.6466 109.45V104.56H50.8516V112ZM54.5807 106.285H52.7057V104.65L54.6857 104.56L54.9707 102.58H56.7857V104.56H59.9357V106.285H56.7857V108.895C56.7857 109.465 56.9107 109.87 57.1607 110.11C57.4107 110.34 57.8057 110.455 58.3457 110.455C58.6357 110.455 58.9007 110.43 59.1407 110.38C59.3807 110.33 59.6107 110.265 59.8307 110.185L60.2207 111.775C59.8907 111.875 59.5207 111.965 59.1107 112.045C58.7107 112.135 58.2707 112.18 57.7907 112.18C57.2007 112.18 56.7007 112.1 56.2907 111.94C55.8807 111.78 55.5457 111.56 55.2857 111.28C55.0357 110.99 54.8557 110.645 54.7457 110.245C54.6357 109.845 54.5807 109.4 54.5807 108.91V106.285Z" fill="white"/>
<rect x="79" width="236" height="31" fill="#333333"/>
<rect x="79" width="236" height="31" fill="#333333"/>
<rect width="79" height="31" fill="#090808"/>
<path d="M12.105 17.8101C12.105 17.5513 11.9756 17.3486 11.7168 17.2021C11.4629 17.0508 11.0527 16.9165 10.4863 16.7993C8.60156 16.4038 7.65918 15.603 7.65918 14.397C7.65918 13.6938 7.94971 13.1079 8.53076 12.6392C9.1167 12.1655 9.88086 11.9287 10.8232 11.9287C11.8291 11.9287 12.6323 12.1655 13.2329 12.6392C13.8384 13.1128 14.1411 13.728 14.1411 14.4849H12.0244C12.0244 14.1821 11.9268 13.9331 11.7314 13.7378C11.5361 13.5376 11.231 13.4375 10.8159 13.4375C10.4595 13.4375 10.1836 13.5181 9.98828 13.6792C9.79297 13.8403 9.69531 14.0454 9.69531 14.2944C9.69531 14.5288 9.80518 14.7192 10.0249 14.8657C10.2495 15.0073 10.6255 15.1318 11.1528 15.2393C11.6802 15.3418 12.1245 15.459 12.4858 15.5908C13.604 16.001 14.1631 16.7114 14.1631 17.7222C14.1631 18.4448 13.853 19.0308 13.2329 19.48C12.6128 19.9243 11.812 20.1465 10.8306 20.1465C10.1665 20.1465 9.57568 20.0293 9.05811 19.7949C8.54541 19.5557 8.14258 19.231 7.84961 18.8208C7.55664 18.4058 7.41016 17.959 7.41016 17.4805H9.41699C9.43652 17.8564 9.57568 18.1445 9.83447 18.3447C10.0933 18.5449 10.4399 18.645 10.8745 18.645C11.2798 18.645 11.585 18.5693 11.79 18.418C12 18.2617 12.105 18.0591 12.105 17.8101ZM18.8286 18.4399C19.2192 18.4399 19.5366 18.3325 19.7808 18.1177C20.0249 17.9028 20.1519 17.6172 20.1616 17.2607H22.1465C22.1416 17.7979 21.9951 18.291 21.707 18.7402C21.4189 19.1846 21.0234 19.5312 20.5205 19.7803C20.0225 20.0244 19.4707 20.1465 18.8652 20.1465C17.7324 20.1465 16.8389 19.7876 16.1846 19.0698C15.5303 18.3472 15.2031 17.3511 15.2031 16.0815V15.9424C15.2031 14.7217 15.5278 13.7476 16.1772 13.02C16.8267 12.2925 17.7178 11.9287 18.8506 11.9287C19.8418 11.9287 20.6353 12.2119 21.231 12.7783C21.8315 13.3398 22.1367 14.0894 22.1465 15.0269H20.1616C20.1519 14.6167 20.0249 14.2847 19.7808 14.0308C19.5366 13.772 19.2144 13.6426 18.814 13.6426C18.3208 13.6426 17.9473 13.8232 17.6934 14.1846C17.4443 14.541 17.3198 15.1221 17.3198 15.9277V16.1475C17.3198 16.9629 17.4443 17.5488 17.6934 17.9053C17.9424 18.2617 18.3208 18.4399 18.8286 18.4399ZM27.8081 14.0601C27.52 14.021 27.2661 14.0015 27.0464 14.0015C26.2456 14.0015 25.7207 14.2725 25.4717 14.8145V20H23.355V12.0752H25.3545L25.4131 13.02C25.8379 12.2925 26.4263 11.9287 27.1782 11.9287C27.4126 11.9287 27.6323 11.9604 27.8374 12.0239L27.8081 14.0601ZM31.0674 20H28.9434V12.0752H31.0674V20ZM28.8188 10.0244C28.8188 9.70703 28.9238 9.4458 29.1338 9.24072C29.3486 9.03564 29.6392 8.93311 30.0054 8.93311C30.3667 8.93311 30.6548 9.03564 30.8696 9.24072C31.0845 9.4458 31.1919 9.70703 31.1919 10.0244C31.1919 10.3467 31.082 10.6104 30.8623 10.8154C30.6475 11.0205 30.3618 11.123 30.0054 11.123C29.6489 11.123 29.3608 11.0205 29.1411 10.8154C28.9263 10.6104 28.8188 10.3467 28.8188 10.0244ZM39.9517 16.1108C39.9517 17.3315 39.6733 18.3105 39.1167 19.0479C38.5649 19.7803 37.8179 20.1465 36.8755 20.1465C36.0747 20.1465 35.4277 19.8682 34.9346 19.3115V23.0469H32.8179V12.0752H34.7808L34.854 12.8516C35.3667 12.2363 36.0356 11.9287 36.8608 11.9287C37.8374 11.9287 38.5967 12.29 39.1387 13.0127C39.6807 13.7354 39.9517 14.7314 39.9517 16.001V16.1108ZM37.835 15.957C37.835 15.2197 37.7031 14.6509 37.4395 14.2505C37.1807 13.8501 36.8022 13.6499 36.3042 13.6499C35.6401 13.6499 35.1836 13.9038 34.9346 14.4116V17.6562C35.1934 18.1787 35.6548 18.4399 36.3188 18.4399C37.3296 18.4399 37.835 17.6123 37.835 15.957ZM43.8042 10.127V12.0752H45.1592V13.6279H43.8042V17.583C43.8042 17.876 43.8604 18.0859 43.9727 18.2129C44.085 18.3398 44.2998 18.4033 44.6172 18.4033C44.8516 18.4033 45.0591 18.3862 45.2397 18.3521V19.9561C44.8247 20.083 44.3975 20.1465 43.958 20.1465C42.4736 20.1465 41.7168 19.397 41.6875 17.8979V13.6279H40.5303V12.0752H41.6875V10.127H43.8042ZM46.4482 18.96C46.4482 18.623 46.5605 18.3496 46.7852 18.1396C47.0146 17.9297 47.3003 17.8247 47.6421 17.8247C47.9888 17.8247 48.2744 17.9297 48.499 18.1396C48.7285 18.3496 48.8433 18.623 48.8433 18.96C48.8433 19.292 48.731 19.563 48.5063 19.7729C48.2817 19.978 47.9937 20.0806 47.6421 20.0806C47.2954 20.0806 47.0098 19.978 46.7852 19.7729C46.5605 19.563 46.4482 19.292 46.4482 18.96ZM57.8374 16.1108C57.8374 17.3315 57.5591 18.3105 57.0024 19.0479C56.4507 19.7803 55.7036 20.1465 54.7612 20.1465C53.9604 20.1465 53.3135 19.8682 52.8203 19.3115V23.0469H50.7036V12.0752H52.6665L52.7397 12.8516C53.2524 12.2363 53.9214 11.9287 54.7466 11.9287C55.7231 11.9287 56.4824 12.29 57.0244 13.0127C57.5664 13.7354 57.8374 14.7314 57.8374 16.001V16.1108ZM55.7207 15.957C55.7207 15.2197 55.5889 14.6509 55.3252 14.2505C55.0664 13.8501 54.688 13.6499 54.1899 13.6499C53.5259 13.6499 53.0693 13.9038 52.8203 14.4116V17.6562C53.0791 18.1787 53.5405 18.4399 54.2046 18.4399C55.2153 18.4399 55.7207 17.6123 55.7207 15.957ZM62.0269 17.0044L63.4917 12.0752H65.7622L62.5762 21.2305L62.4004 21.6479C61.9268 22.6831 61.1455 23.2007 60.0566 23.2007C59.749 23.2007 59.4365 23.1543 59.1191 23.0615V21.4575L59.4414 21.4648C59.8418 21.4648 60.1396 21.4038 60.335 21.2817C60.5352 21.1597 60.6914 20.957 60.8037 20.6738L61.0527 20.022L58.2769 12.0752H60.5547L62.0269 17.0044Z" fill="white"/>
<line x1="-0.000549316" y1="95.9189" x2="315.001" y2="95.9189" stroke="white"/>
<path d="M7.87 49.74C8.55 49.17 9.17 48.64 9.73 48.15C10.29 47.65 10.77 47.185 11.17 46.755C11.57 46.325 11.88 45.92 12.1 45.54C12.32 45.16 12.43 44.8 12.43 44.46C12.43 43.99 12.295 43.635 12.025 43.395C11.755 43.145 11.37 43.02 10.87 43.02C10.49 43.02 10.14 43.12 9.82 43.32C9.51 43.51 9.22 43.735 8.95 43.995L7.765 42.81C8.015 42.56 8.26 42.34 8.5 42.15C8.75 41.96 9.01 41.805 9.28 41.685C9.56 41.555 9.85 41.46 10.15 41.4C10.46 41.33 10.8 41.295 11.17 41.295C11.67 41.295 12.125 41.37 12.535 41.52C12.945 41.66 13.295 41.865 13.585 42.135C13.885 42.395 14.115 42.71 14.275 43.08C14.445 43.45 14.53 43.865 14.53 44.325C14.53 44.725 14.435 45.135 14.245 45.555C14.055 45.965 13.795 46.38 13.465 46.8C13.145 47.21 12.775 47.625 12.355 48.045C11.935 48.455 11.495 48.86 11.035 49.26C11.305 49.23 11.595 49.205 11.905 49.185C12.225 49.155 12.51 49.14 12.76 49.14H15.025V51H7.87V49.74ZM44.6266 48.435C44.9466 48.715 45.3016 48.945 45.6916 49.125C46.0916 49.305 46.5116 49.395 46.9516 49.395C47.4716 49.395 47.8966 49.3 48.2266 49.11C48.5666 48.91 48.7366 48.63 48.7366 48.27C48.7366 48.06 48.6916 47.87 48.6016 47.7C48.5116 47.53 48.3566 47.39 48.1366 47.28C47.9166 47.16 47.6216 47.07 47.2516 47.01C46.8816 46.94 46.4166 46.905 45.8566 46.905V45.345C46.7966 45.345 47.4566 45.23 47.8366 45C48.2266 44.76 48.4216 44.45 48.4216 44.07C48.4216 43.74 48.2966 43.485 48.0466 43.305C47.7966 43.115 47.4516 43.02 47.0116 43.02C46.6316 43.02 46.2816 43.095 45.9616 43.245C45.6416 43.395 45.3166 43.6 44.9866 43.86L43.8766 42.51C44.3466 42.13 44.8466 41.835 45.3766 41.625C45.9166 41.405 46.4966 41.295 47.1166 41.295C47.6366 41.295 48.1116 41.355 48.5416 41.475C48.9716 41.585 49.3416 41.755 49.6516 41.985C49.9616 42.205 50.2016 42.475 50.3716 42.795C50.5416 43.115 50.6266 43.485 50.6266 43.905C50.6266 44.405 50.4666 44.83 50.1466 45.18C49.8266 45.52 49.3816 45.8 48.8116 46.02V46.08C49.4116 46.24 49.9166 46.515 50.3266 46.905C50.7366 47.285 50.9416 47.785 50.9416 48.405C50.9416 48.845 50.8366 49.24 50.6266 49.59C50.4266 49.93 50.1516 50.22 49.8016 50.46C49.4616 50.69 49.0616 50.87 48.6016 51C48.1416 51.12 47.6616 51.18 47.1616 51.18C46.3416 51.18 45.6366 51.06 45.0466 50.82C44.4566 50.57 43.9766 50.24 43.6066 49.83L44.6266 48.435ZM62.6448 67.45C62.9648 67.71 63.3048 67.935 63.6648 68.125C64.0348 68.305 64.4448 68.395 64.8948 68.395C65.4348 68.395 65.8748 68.27 66.2148 68.02C66.5648 67.77 66.7398 67.4 66.7398 66.91C66.7398 66.43 66.5748 66.065 66.2448 65.815C65.9248 65.565 65.5098 65.44 64.9998 65.44C64.8398 65.44 64.6948 65.45 64.5648 65.47C64.4448 65.48 64.3248 65.505 64.2048 65.545C64.0848 65.585 63.9598 65.635 63.8298 65.695C63.6998 65.755 63.5548 65.83 63.3948 65.92L62.4198 65.29L62.6748 60.475H68.5098V62.335H64.5798L64.4148 64.12C64.6348 64.04 64.8398 63.985 65.0298 63.955C65.2198 63.915 65.4348 63.895 65.6748 63.895C66.1148 63.895 66.5298 63.955 66.9198 64.075C67.3198 64.195 67.6698 64.375 67.9698 64.615C68.2698 64.855 68.5048 65.16 68.6748 65.53C68.8548 65.9 68.9448 66.34 68.9448 66.85C68.9448 67.38 68.8398 67.85 68.6298 68.26C68.4298 68.67 68.1548 69.02 67.8048 69.31C67.4648 69.59 67.0698 69.805 66.6198 69.955C66.1698 70.105 65.6998 70.18 65.2098 70.18C64.3798 70.18 63.6748 70.055 63.0948 69.805C62.5248 69.545 62.0448 69.225 61.6548 68.845L62.6448 67.45ZM104.996 68.215V70H98.1714V68.215H100.631V62.71H98.6664V61.345C99.2264 61.245 99.7014 61.125 100.091 60.985C100.491 60.845 100.866 60.675 101.216 60.475H102.836V68.215H104.996Z" fill="#F0E442"/>
<path d="M28.6783 46.83H26.0383V45.27H28.6783V42.51H30.2983V45.27H32.9383V46.83H30.2983V49.59H28.6783V46.83ZM82.6431 65.83H80.0031V64.27H82.6431V61.51H84.2631V64.27H86.9031V65.83H84.2631V68.59H82.6431V65.83Z" fill="#E0E0E0"/>
<path d="M10.285 70.585V72.76H8.08V62.56H9.88L10.045 63.31H10.09C10.39 63.04 10.735 62.82 11.125 62.65C11.515 62.47 11.91 62.38 12.31 62.38C12.77 62.38 13.185 62.47 13.555 62.65C13.925 62.83 14.24 63.085 14.5 63.415C14.76 63.745 14.955 64.145 15.085 64.615C15.225 65.075 15.295 65.59 15.295 66.16C15.295 66.8 15.205 67.37 15.025 67.87C14.845 68.36 14.605 68.78 14.305 69.13C14.005 69.47 13.66 69.73 13.27 69.91C12.89 70.09 12.49 70.18 12.07 70.18C11.39 70.18 10.77 69.91 10.21 69.37L10.285 70.585ZM10.285 67.885C10.495 68.065 10.71 68.195 10.93 68.275C11.16 68.345 11.37 68.38 11.56 68.38C11.98 68.38 12.33 68.21 12.61 67.87C12.89 67.52 13.03 66.96 13.03 66.19C13.03 64.85 12.575 64.18 11.665 64.18C11.195 64.18 10.735 64.41 10.285 64.87V67.885ZM17.7341 62.56H19.5341L19.7141 64.18H19.7591C20.1291 63.57 20.5741 63.12 21.0941 62.83C21.6141 62.53 22.1741 62.38 22.7741 62.38C23.1041 62.38 23.3691 62.405 23.5691 62.455C23.7791 62.505 23.9941 62.58 24.2141 62.68L23.7641 64.525C23.5341 64.455 23.3241 64.405 23.1341 64.375C22.9541 64.335 22.7241 64.315 22.4441 64.315C21.9841 64.315 21.5291 64.45 21.0791 64.72C20.6391 64.99 20.2591 65.46 19.9391 66.13V70H17.7341V62.56ZM26.1733 62.56H31.3633V70H29.1583V64.285H26.1733V62.56ZM30.1633 61.465C29.7333 61.465 29.3783 61.345 29.0983 61.105C28.8283 60.865 28.6933 60.54 28.6933 60.13C28.6933 59.72 28.8283 59.39 29.0983 59.14C29.3783 58.88 29.7333 58.75 30.1633 58.75C30.5933 58.75 30.9433 58.88 31.2133 59.14C31.4933 59.39 31.6333 59.72 31.6333 60.13C31.6333 60.54 31.4933 60.865 31.2133 61.105C30.9433 61.345 30.5933 61.465 30.1633 61.465ZM35.0624 62.56H36.8624L37.0274 63.55H37.0874C37.4074 63.23 37.7724 62.955 38.1824 62.725C38.6024 62.495 39.0924 62.38 39.6524 62.38C40.4924 62.38 41.1074 62.65 41.4974 63.19C41.8874 63.73 42.0824 64.47 42.0824 65.41V70H39.8774V65.695C39.8774 65.195 39.7974 64.83 39.6374 64.6C39.4774 64.37 39.1924 64.255 38.7824 64.255C38.4824 64.255 38.2174 64.32 37.9874 64.45C37.7674 64.58 37.5274 64.775 37.2674 65.035V70H35.0624V62.56ZM45.5866 64.285H43.7116V62.65L45.6916 62.56L45.9766 60.58H47.7916V62.56H50.9416V64.285H47.7916V66.895C47.7916 67.465 47.9166 67.87 48.1666 68.11C48.4166 68.34 48.8116 68.455 49.3516 68.455C49.6416 68.455 49.9066 68.43 50.1466 68.38C50.3866 68.33 50.6166 68.265 50.8366 68.185L51.2266 69.775C50.8966 69.875 50.5266 69.965 50.1166 70.045C49.7166 70.135 49.2766 70.18 48.7966 70.18C48.2066 70.18 47.7066 70.1 47.2966 69.94C46.8866 69.78 46.5516 69.56 46.2916 69.28C46.0416 68.99 45.8616 68.645 45.7516 68.245C45.6416 67.845 45.5866 67.4 45.5866 66.91V64.285Z" fill="#56B4E9"/>
<path d="M57.8507 72.685C56.8707 71.815 56.0957 70.81 55.5257 69.67C54.9657 68.53 54.6857 67.25 54.6857 65.83C54.6857 64.41 54.9657 63.13 55.5257 61.99C56.0957 60.85 56.8707 59.845 57.8507 58.975L59.0807 59.95C58.1907 60.82 57.5407 61.725 57.1307 62.665C56.7307 63.595 56.5307 64.65 56.5307 65.83C56.5307 66.42 56.5807 66.98 56.6807 67.51C56.7807 68.03 56.9307 68.53 57.1307 69.01C57.3407 69.49 57.6057 69.95 57.9257 70.39C58.2457 70.84 58.6307 71.28 59.0807 71.71L57.8507 72.685ZM107.826 71.71C108.276 71.28 108.661 70.84 108.981 70.39C109.301 69.95 109.561 69.49 109.761 69.01C109.971 68.53 110.126 68.03 110.226 67.51C110.326 66.98 110.376 66.42 110.376 65.83C110.376 64.65 110.171 63.595 109.761 62.665C109.361 61.725 108.716 60.82 107.826 59.95L109.056 58.975C110.036 59.845 110.806 60.85 111.366 61.99C111.936 63.13 112.221 64.41 112.221 65.83C112.221 67.25 111.936 68.53 111.366 69.67C110.806 70.81 110.036 71.815 109.056 72.685L107.826 71.71Z" fill="white"/>
<path d="M172.423 106.493H169.105L167.457 116H166.087L167.735 106.493H164.417L164.623 105.336H172.628L172.423 106.493ZM174.649 109.042C175.343 108.285 176.141 107.917 177.044 107.936C177.787 107.946 178.336 108.202 178.692 108.705C179.054 109.203 179.188 109.904 179.095 110.807L178.231 116H176.905L177.777 110.785C177.806 110.546 177.809 110.324 177.784 110.119C177.701 109.435 177.298 109.086 176.576 109.071C175.765 109.052 175.067 109.477 174.481 110.346L173.5 116H172.174L174.129 104.75H175.455L174.649 109.042ZM181.695 116H180.377L181.754 108.075H183.072L181.695 116ZM182.787 105.182C183.011 105.172 183.197 105.241 183.343 105.387C183.495 105.529 183.57 105.717 183.57 105.951C183.565 106.181 183.49 106.369 183.343 106.515C183.202 106.662 183.016 106.74 182.787 106.75C182.557 106.759 182.369 106.693 182.223 106.552C182.076 106.41 182.005 106.225 182.01 105.995C182.015 105.766 182.088 105.575 182.23 105.424C182.372 105.272 182.557 105.192 182.787 105.182ZM188.771 113.854C188.844 113.307 188.543 112.921 187.87 112.697L186.493 112.294C185.331 111.894 184.769 111.229 184.808 110.302C184.842 109.604 185.16 109.032 185.76 108.588C186.366 108.139 187.076 107.919 187.892 107.929C188.692 107.938 189.342 108.173 189.84 108.632C190.343 109.086 190.584 109.679 190.565 110.412L189.247 110.404C189.256 110.009 189.132 109.687 188.873 109.438C188.614 109.188 188.27 109.059 187.84 109.049C187.381 109.04 186.986 109.152 186.654 109.386C186.346 109.606 186.168 109.894 186.119 110.25C186.056 110.709 186.336 111.044 186.961 111.254L187.628 111.437C188.536 111.671 189.181 111.977 189.562 112.353C189.942 112.729 190.118 113.195 190.089 113.751C190.06 114.245 189.898 114.674 189.605 115.041C189.312 115.407 188.922 115.688 188.434 115.883C187.945 116.073 187.425 116.161 186.874 116.146C186.034 116.137 185.34 115.893 184.793 115.414C184.247 114.931 183.983 114.311 184.002 113.554L185.328 113.561C185.328 114.005 185.47 114.362 185.753 114.63C186.036 114.899 186.424 115.033 186.917 115.033C187.401 115.043 187.818 114.943 188.17 114.733C188.521 114.518 188.722 114.225 188.771 113.854ZM199.962 116C199.928 115.858 199.911 115.719 199.911 115.583L199.933 115.165C199.205 115.839 198.434 116.166 197.618 116.146C196.92 116.137 196.351 115.917 195.912 115.487C195.477 115.053 195.279 114.511 195.318 113.861C195.367 113.021 195.733 112.367 196.417 111.898C197.105 111.425 198.009 111.188 199.127 111.188L200.511 111.195L200.599 110.565C200.648 110.092 200.555 109.718 200.321 109.445C200.091 109.167 199.745 109.022 199.281 109.013C198.827 109.003 198.424 109.115 198.072 109.35C197.726 109.579 197.513 109.884 197.435 110.265L196.102 110.272C196.146 109.809 196.327 109.398 196.644 109.042C196.961 108.681 197.369 108.402 197.867 108.207C198.365 108.007 198.88 107.912 199.413 107.921C200.238 107.941 200.88 108.192 201.339 108.676C201.798 109.154 201.991 109.792 201.917 110.587L201.273 114.513L201.236 115.077C201.227 115.346 201.256 115.612 201.324 115.875L201.31 116H199.962ZM197.882 114.975C198.307 114.984 198.707 114.884 199.083 114.674C199.464 114.459 199.791 114.164 200.064 113.788L200.35 112.155L199.347 112.147C198.512 112.147 197.872 112.279 197.428 112.543C196.983 112.807 196.732 113.18 196.673 113.664C196.629 114.035 196.715 114.345 196.93 114.594C197.149 114.838 197.467 114.965 197.882 114.975ZM208.041 109.284L207.418 109.218C206.568 109.218 205.899 109.601 205.411 110.368L204.437 116H203.111L204.488 108.075L205.77 108.068L205.572 108.991C206.134 108.253 206.795 107.895 207.557 107.914C207.718 107.914 207.928 107.951 208.187 108.024L208.041 109.284ZM211.388 116.146C210.401 116.127 209.63 115.763 209.073 115.055C208.517 114.347 208.282 113.441 208.37 112.338L208.407 112.023C208.49 111.237 208.722 110.519 209.103 109.87C209.488 109.22 209.957 108.732 210.509 108.405C211.061 108.073 211.656 107.914 212.296 107.929C213.111 107.948 213.751 108.219 214.215 108.742C214.679 109.264 214.933 109.972 214.977 110.866C214.991 111.183 214.981 111.5 214.947 111.818L214.867 112.426H209.688C209.601 113.144 209.718 113.754 210.04 114.257C210.367 114.76 210.853 115.021 211.498 115.041C212.279 115.06 213.001 114.708 213.666 113.986L214.427 114.63C214.095 115.109 213.666 115.485 213.138 115.758C212.616 116.027 212.032 116.156 211.388 116.146ZM212.23 109.035C211.683 109.02 211.205 109.206 210.794 109.591C210.389 109.977 210.067 110.551 209.828 111.312L213.68 111.32L213.709 111.203C213.788 110.587 213.688 110.077 213.409 109.672C213.136 109.262 212.743 109.049 212.23 109.035ZM220.587 116C220.553 115.858 220.536 115.719 220.536 115.583L220.558 115.165C219.83 115.839 219.059 116.166 218.243 116.146C217.545 116.137 216.976 115.917 216.537 115.487C216.102 115.053 215.904 114.511 215.943 113.861C215.992 113.021 216.358 112.367 217.042 111.898C217.73 111.425 218.634 111.188 219.752 111.188L221.136 111.195L221.224 110.565C221.273 110.092 221.18 109.718 220.946 109.445C220.716 109.167 220.37 109.022 219.906 109.013C219.452 109.003 219.049 109.115 218.697 109.35C218.351 109.579 218.138 109.884 218.06 110.265L216.727 110.272C216.771 109.809 216.952 109.398 217.269 109.042C217.586 108.681 217.994 108.402 218.492 108.207C218.99 108.007 219.505 107.912 220.038 107.921C220.863 107.941 221.505 108.192 221.964 108.676C222.423 109.154 222.616 109.792 222.542 110.587L221.898 114.513L221.861 115.077C221.852 115.346 221.881 115.612 221.949 115.875L221.935 116H220.587ZM218.507 114.975C218.932 114.984 219.332 114.884 219.708 114.674C220.089 114.459 220.416 114.164 220.689 113.788L220.975 112.155L219.972 112.147C219.137 112.147 218.497 112.279 218.053 112.543C217.608 112.807 217.357 113.18 217.298 113.664C217.254 114.035 217.34 114.345 217.555 114.594C217.774 114.838 218.092 114.965 218.507 114.975ZM232.32 113.854C232.394 113.307 232.093 112.921 231.419 112.697L230.042 112.294C228.88 111.894 228.319 111.229 228.358 110.302C228.392 109.604 228.709 109.032 229.31 108.588C229.916 108.139 230.626 107.919 231.441 107.929C232.242 107.938 232.892 108.173 233.39 108.632C233.893 109.086 234.134 109.679 234.115 110.412L232.796 110.404C232.806 110.009 232.682 109.687 232.423 109.438C232.164 109.188 231.82 109.059 231.39 109.049C230.931 109.04 230.536 109.152 230.204 109.386C229.896 109.606 229.718 109.894 229.669 110.25C229.605 110.709 229.886 111.044 230.511 111.254L231.178 111.437C232.086 111.671 232.73 111.977 233.111 112.353C233.492 112.729 233.668 113.195 233.639 113.751C233.609 114.245 233.448 114.674 233.155 115.041C232.862 115.407 232.472 115.688 231.983 115.883C231.495 116.073 230.975 116.161 230.423 116.146C229.583 116.137 228.89 115.893 228.343 115.414C227.796 114.931 227.533 114.311 227.552 113.554L228.878 113.561C228.878 114.005 229.02 114.362 229.303 114.63C229.586 114.899 229.974 115.033 230.467 115.033C230.951 115.043 231.368 114.943 231.72 114.733C232.071 114.518 232.271 114.225 232.32 113.854ZM237.462 109.042C238.155 108.285 238.954 107.917 239.857 107.936C240.599 107.946 241.148 108.202 241.505 108.705C241.866 109.203 242 109.904 241.908 110.807L241.043 116H239.718L240.589 110.785C240.619 110.546 240.621 110.324 240.597 110.119C240.514 109.435 240.111 109.086 239.388 109.071C238.578 109.052 237.879 109.477 237.293 110.346L236.312 116H234.986L236.942 104.75H238.268L237.462 109.042ZM247.474 107.929C248.138 107.938 248.707 108.119 249.181 108.471C249.654 108.822 250.003 109.308 250.228 109.928C250.458 110.543 250.536 111.217 250.462 111.95L250.448 112.111C250.355 112.882 250.125 113.581 249.759 114.206C249.393 114.826 248.919 115.309 248.338 115.656C247.757 116.002 247.12 116.166 246.427 116.146C245.768 116.137 245.199 115.956 244.72 115.604C244.247 115.253 243.9 114.774 243.68 114.169C243.46 113.563 243.382 112.897 243.446 112.169C243.519 111.349 243.741 110.612 244.112 109.958C244.483 109.303 244.959 108.798 245.541 108.441C246.126 108.08 246.771 107.909 247.474 107.929ZM244.779 112.177C244.745 112.484 244.745 112.804 244.779 113.136C244.828 113.712 244.999 114.171 245.292 114.513C245.589 114.855 245.985 115.033 246.478 115.048C246.917 115.062 247.323 114.955 247.694 114.726C248.065 114.491 248.377 114.14 248.631 113.671C248.885 113.202 249.049 112.682 249.122 112.111C249.161 111.662 249.168 111.283 249.144 110.976C249.085 110.385 248.907 109.918 248.609 109.577C248.312 109.235 247.916 109.054 247.423 109.035C246.739 109.02 246.158 109.289 245.68 109.84C245.201 110.392 244.906 111.115 244.793 112.008L244.779 112.177ZM258.563 114.125L261.09 108.075H262.459L258.849 116H257.772L256.952 110.009L254.095 116H253.019L252.162 108.075H253.429L253.912 113.979L256.725 108.075H257.794L258.563 114.125ZM267.374 113.854C267.447 113.307 267.147 112.921 266.473 112.697L265.096 112.294C263.934 111.894 263.373 111.229 263.412 110.302C263.446 109.604 263.763 109.032 264.364 108.588C264.969 108.139 265.68 107.919 266.495 107.929C267.296 107.938 267.945 108.173 268.443 108.632C268.946 109.086 269.188 109.679 269.168 110.412L267.85 110.404C267.86 110.009 267.735 109.687 267.477 109.438C267.218 109.188 266.874 109.059 266.444 109.049C265.985 109.04 265.589 109.152 265.257 109.386C264.95 109.606 264.771 109.894 264.723 110.25C264.659 110.709 264.94 111.044 265.565 111.254L266.231 111.437C267.14 111.671 267.784 111.977 268.165 112.353C268.546 112.729 268.722 113.195 268.692 113.751C268.663 114.245 268.502 114.674 268.209 115.041C267.916 115.407 267.525 115.688 267.037 115.883C266.549 116.073 266.029 116.161 265.477 116.146C264.637 116.137 263.944 115.893 263.397 115.414C262.85 114.931 262.586 114.311 262.606 113.554L263.932 113.561C263.932 114.005 264.073 114.362 264.356 114.63C264.64 114.899 265.028 115.033 265.521 115.033C266.004 115.043 266.422 114.943 266.773 114.733C267.125 114.518 267.325 114.225 267.374 113.854ZM138.878 124.929C139.542 124.938 140.111 125.119 140.584 125.471C141.058 125.822 141.407 126.308 141.632 126.928C141.861 127.543 141.939 128.217 141.866 128.95L141.852 129.111C141.759 129.882 141.529 130.581 141.163 131.206C140.797 131.826 140.323 132.309 139.742 132.656C139.161 133.002 138.524 133.166 137.831 133.146C137.171 133.137 136.603 132.956 136.124 132.604C135.65 132.253 135.304 131.774 135.084 131.169C134.864 130.563 134.786 129.897 134.85 129.169C134.923 128.349 135.145 127.612 135.516 126.958C135.887 126.303 136.363 125.798 136.944 125.441C137.53 125.08 138.175 124.909 138.878 124.929ZM136.183 129.177C136.148 129.484 136.148 129.804 136.183 130.136C136.231 130.712 136.402 131.171 136.695 131.513C136.993 131.855 137.389 132.033 137.882 132.048C138.321 132.062 138.727 131.955 139.098 131.726C139.469 131.491 139.781 131.14 140.035 130.671C140.289 130.202 140.453 129.682 140.526 129.111C140.565 128.662 140.572 128.283 140.548 127.976C140.489 127.385 140.311 126.918 140.013 126.577C139.715 126.235 139.32 126.054 138.827 126.035C138.143 126.02 137.562 126.289 137.083 126.84C136.605 127.392 136.31 128.115 136.197 129.008L136.183 129.177ZM145.484 125.068L145.294 126.071C146.007 125.29 146.817 124.909 147.726 124.929C148.473 124.948 149.024 125.207 149.381 125.705C149.737 126.203 149.869 126.904 149.776 127.807L148.912 133H147.586L148.458 127.785C148.487 127.546 148.49 127.324 148.465 127.119C148.382 126.435 147.979 126.086 147.257 126.071C146.461 126.057 145.763 126.481 145.162 127.346L144.181 133H142.855L144.232 125.075L145.484 125.068ZM152.391 133H151.073L153.021 121.75H154.347L152.391 133ZM157.401 131L160.221 125.075H161.686L156.983 134.318C156.329 135.603 155.489 136.237 154.464 136.223C154.283 136.218 154.017 136.174 153.666 136.091L153.783 134.992L154.127 135.029C154.547 135.048 154.908 134.953 155.211 134.743C155.519 134.538 155.79 134.204 156.024 133.74L156.5 132.832L155.13 125.075H156.515L157.401 131ZM168.695 123.156L168.358 125.075H169.801L169.618 126.123H168.182L167.354 131.052C167.34 131.179 167.337 131.296 167.347 131.403C167.381 131.784 167.589 131.975 167.97 131.975C168.131 131.975 168.346 131.95 168.614 131.901L168.512 133.007C168.194 133.095 167.872 133.139 167.545 133.139C167.018 133.129 166.622 132.937 166.358 132.561C166.095 132.18 165.992 131.669 166.051 131.03L166.856 126.123H165.458L165.641 125.075H167.04L167.376 123.156H168.695ZM172.503 126.042C173.197 125.285 173.995 124.917 174.898 124.936C175.641 124.946 176.19 125.202 176.546 125.705C176.908 126.203 177.042 126.904 176.949 127.807L176.085 133H174.759L175.631 127.785C175.66 127.546 175.663 127.324 175.638 127.119C175.555 126.435 175.152 126.086 174.43 126.071C173.619 126.052 172.921 126.477 172.335 127.346L171.354 133H170.028L171.983 121.75H173.309L172.503 126.042ZM181.542 133.146C180.555 133.127 179.784 132.763 179.227 132.055C178.67 131.347 178.436 130.441 178.524 129.338L178.561 129.023C178.644 128.237 178.875 127.519 179.256 126.87C179.642 126.22 180.111 125.732 180.663 125.405C181.214 125.073 181.81 124.914 182.45 124.929C183.265 124.948 183.905 125.219 184.369 125.742C184.833 126.264 185.086 126.972 185.13 127.866C185.145 128.183 185.135 128.5 185.101 128.818L185.021 129.426H179.842C179.754 130.144 179.872 130.754 180.194 131.257C180.521 131.76 181.007 132.021 181.651 132.041C182.433 132.06 183.155 131.708 183.819 130.986L184.581 131.63C184.249 132.109 183.819 132.485 183.292 132.758C182.77 133.027 182.186 133.156 181.542 133.146ZM182.384 126.035C181.837 126.02 181.358 126.206 180.948 126.591C180.543 126.977 180.221 127.551 179.981 128.312L183.834 128.32L183.863 128.203C183.941 127.587 183.841 127.077 183.563 126.672C183.29 126.262 182.896 126.049 182.384 126.035ZM193.297 124.921C194.034 124.941 194.63 125.236 195.084 125.808L195.86 121.75H197.933L195.985 133H194.139L194.256 132.15C193.666 132.839 192.977 133.173 192.191 133.154C191.698 133.149 191.266 133.02 190.895 132.766C190.523 132.512 190.235 132.148 190.03 131.674C189.83 131.196 189.72 130.664 189.701 130.078C189.686 129.77 189.693 129.472 189.723 129.184L189.767 128.854C189.884 128.044 190.108 127.331 190.44 126.716C190.777 126.101 191.188 125.644 191.671 125.346C192.159 125.048 192.701 124.907 193.297 124.921ZM191.795 129.184C191.756 129.555 191.744 129.868 191.759 130.122C191.808 130.981 192.154 131.418 192.799 131.433C193.38 131.457 193.885 131.184 194.315 130.612L194.879 127.463C194.688 126.94 194.308 126.667 193.736 126.643C193.233 126.628 192.813 126.823 192.477 127.229C192.145 127.629 191.917 128.281 191.795 129.184ZM199.823 133H197.743L199.12 125.075H201.2L199.823 133ZM199.361 123.061C199.352 122.734 199.459 122.463 199.684 122.248C199.908 122.033 200.179 121.926 200.497 121.926C200.809 121.916 201.08 122.011 201.31 122.211C201.539 122.412 201.659 122.67 201.668 122.988C201.678 123.291 201.576 123.554 201.361 123.779C201.151 124.003 200.875 124.121 200.533 124.13C200.226 124.14 199.955 124.047 199.72 123.852C199.491 123.657 199.371 123.393 199.361 123.061ZM206.173 130.766C206.251 130.375 205.98 130.092 205.36 129.917L204.693 129.748C203.116 129.313 202.35 128.547 202.394 127.448C202.418 126.701 202.748 126.093 203.382 125.625C204.022 125.151 204.791 124.919 205.689 124.929C206.583 124.938 207.306 125.175 207.857 125.639C208.409 126.103 208.69 126.721 208.7 127.492L206.649 127.485C206.659 126.806 206.322 126.462 205.638 126.452C205.316 126.452 205.035 126.533 204.796 126.694C204.562 126.855 204.417 127.072 204.364 127.346C204.291 127.736 204.586 128.012 205.25 128.173L205.543 128.239C206.217 128.4 206.732 128.586 207.088 128.796C207.445 129.001 207.718 129.257 207.909 129.565C208.104 129.873 208.194 130.241 208.18 130.671C208.165 131.174 208.001 131.613 207.689 131.989C207.381 132.365 206.957 132.656 206.415 132.861C205.877 133.066 205.311 133.161 204.715 133.146C203.836 133.137 203.104 132.885 202.518 132.392C201.932 131.894 201.634 131.252 201.625 130.466L203.573 130.48C203.592 131.237 203.998 131.621 204.789 131.63C205.169 131.63 205.482 131.552 205.726 131.396C205.975 131.24 206.124 131.03 206.173 130.766ZM216.749 129.06C216.646 129.89 216.429 130.627 216.097 131.271C215.765 131.916 215.353 132.395 214.859 132.707C214.366 133.02 213.819 133.168 213.219 133.154C212.452 133.134 211.847 132.849 211.402 132.297L210.677 136.047H208.612L210.509 125.075L212.413 125.068L212.274 125.866C212.845 125.222 213.519 124.909 214.295 124.929C215.072 124.948 215.675 125.231 216.104 125.778C216.534 126.32 216.764 127.058 216.793 127.99C216.803 128.293 216.788 128.649 216.749 129.06ZM214.698 128.906L214.742 128.203C214.752 127.729 214.664 127.353 214.479 127.075C214.298 126.796 214.032 126.652 213.68 126.643C213.08 126.623 212.584 126.877 212.193 127.404L211.6 130.671C211.781 131.164 212.169 131.42 212.765 131.44C213.263 131.455 213.678 131.262 214.01 130.861C214.342 130.461 214.571 129.809 214.698 128.906ZM219.583 133H217.503L219.459 121.75H221.532L219.583 133ZM225.926 133C225.863 132.8 225.836 132.561 225.846 132.282C225.25 132.878 224.576 133.166 223.824 133.146C223.131 133.137 222.555 132.912 222.096 132.473C221.642 132.028 221.429 131.481 221.458 130.832C221.493 129.968 221.854 129.306 222.542 128.847C223.236 128.383 224.164 128.151 225.326 128.151L226.292 128.166L226.395 127.69C226.424 127.529 226.432 127.375 226.417 127.229C226.393 126.999 226.305 126.821 226.153 126.694C226.007 126.562 225.812 126.494 225.567 126.489C225.245 126.479 224.972 126.56 224.747 126.73C224.522 126.896 224.378 127.138 224.315 127.456L222.242 127.463C222.276 126.706 222.623 126.093 223.282 125.625C223.946 125.151 224.764 124.919 225.736 124.929C226.634 124.948 227.337 125.217 227.845 125.734C228.353 126.247 228.565 126.909 228.482 127.719L227.875 131.513L227.838 131.982C227.828 132.329 227.87 132.622 227.962 132.861L227.955 133H225.926ZM224.337 131.542C224.933 131.562 225.453 131.303 225.897 130.766L226.153 129.396L225.436 129.389C224.674 129.409 224.125 129.641 223.788 130.085C223.666 130.246 223.59 130.444 223.561 130.678C223.521 130.942 223.575 131.152 223.722 131.308C223.873 131.459 224.078 131.538 224.337 131.542ZM232.467 129.982L234.73 125.075H237.03L232.394 134.194C232.062 134.892 231.671 135.405 231.222 135.732C230.777 136.059 230.262 136.223 229.676 136.223C229.447 136.223 229.115 136.171 228.68 136.069L228.834 134.458L229.12 134.472C229.793 134.492 230.287 134.245 230.599 133.732L231.053 132.89L229.757 125.075H231.896L232.467 129.982ZM240.15 133.146C239.457 133.142 238.841 132.973 238.304 132.641C237.772 132.304 237.374 131.845 237.11 131.264C236.847 130.678 236.744 130.034 236.803 129.331L236.825 129.038C236.898 128.266 237.123 127.558 237.499 126.914C237.875 126.269 238.358 125.773 238.949 125.427C239.54 125.075 240.194 124.909 240.912 124.929C241.932 124.948 242.704 125.324 243.226 126.057C243.753 126.784 243.954 127.707 243.827 128.825L243.709 129.726H238.854C238.834 130.239 238.958 130.649 239.227 130.957C239.496 131.264 239.862 131.423 240.326 131.433C241.078 131.452 241.737 131.162 242.303 130.561L243.248 131.733C242.95 132.182 242.521 132.534 241.959 132.788C241.397 133.037 240.794 133.156 240.15 133.146ZM240.809 126.635C240.428 126.625 240.089 126.745 239.791 126.994C239.498 127.243 239.234 127.675 239 128.291H241.842L241.886 128.1C241.915 127.905 241.917 127.719 241.893 127.543C241.844 127.26 241.725 127.041 241.534 126.884C241.344 126.723 241.102 126.64 240.809 126.635ZM248.258 124.921C248.995 124.941 249.591 125.236 250.045 125.808L250.821 121.75H252.894L250.946 133H249.1L249.217 132.15C248.626 132.839 247.938 133.173 247.152 133.154C246.659 133.149 246.227 133.02 245.855 132.766C245.484 132.512 245.196 132.148 244.991 131.674C244.791 131.196 244.681 130.664 244.662 130.078C244.647 129.77 244.654 129.472 244.684 129.184L244.728 128.854C244.845 128.044 245.069 127.331 245.401 126.716C245.738 126.101 246.148 125.644 246.632 125.346C247.12 125.048 247.662 124.907 248.258 124.921ZM246.756 129.184C246.717 129.555 246.705 129.868 246.72 130.122C246.769 130.981 247.115 131.418 247.76 131.433C248.341 131.457 248.846 131.184 249.276 130.612L249.84 127.463C249.649 126.94 249.269 126.667 248.697 126.643C248.194 126.628 247.774 126.823 247.438 127.229C247.105 127.629 246.878 128.281 246.756 129.184ZM260.885 124.929C261.549 124.938 262.118 125.119 262.591 125.471C263.065 125.822 263.414 126.308 263.639 126.928C263.868 127.543 263.946 128.217 263.873 128.95L263.858 129.111C263.766 129.882 263.536 130.581 263.17 131.206C262.804 131.826 262.33 132.309 261.749 132.656C261.168 133.002 260.531 133.166 259.837 133.146C259.178 133.137 258.609 132.956 258.131 132.604C257.657 132.253 257.311 131.774 257.091 131.169C256.871 130.563 256.793 129.897 256.856 129.169C256.93 128.349 257.152 127.612 257.523 126.958C257.894 126.303 258.37 125.798 258.951 125.441C259.537 125.08 260.182 124.909 260.885 124.929ZM258.189 129.177C258.155 129.484 258.155 129.804 258.189 130.136C258.238 130.712 258.409 131.171 258.702 131.513C259 131.855 259.396 132.033 259.889 132.048C260.328 132.062 260.733 131.955 261.104 131.726C261.476 131.491 261.788 131.14 262.042 130.671C262.296 130.202 262.459 129.682 262.533 129.111C262.572 128.662 262.579 128.283 262.555 127.976C262.496 127.385 262.318 126.918 262.02 126.577C261.722 126.235 261.327 126.054 260.833 126.035C260.15 126.02 259.569 126.289 259.09 126.84C258.612 127.392 258.316 128.115 258.204 129.008L258.189 129.177ZM269.894 132.216C269.273 132.856 268.485 133.166 267.528 133.146C266.771 133.127 266.209 132.856 265.843 132.333C265.482 131.811 265.348 131.098 265.44 130.195L266.29 125.075H267.616L266.759 130.217C266.734 130.432 266.729 130.642 266.744 130.847C266.769 131.198 266.874 131.474 267.059 131.674C267.245 131.875 267.503 131.982 267.835 131.997C268.783 132.026 269.515 131.643 270.033 130.847L271.029 125.075H272.354L270.978 133H269.725L269.894 132.216ZM276.463 123.156L276.126 125.075H277.569L277.386 126.123H275.951L275.123 131.052C275.108 131.179 275.106 131.296 275.116 131.403C275.15 131.784 275.357 131.975 275.738 131.975C275.899 131.975 276.114 131.95 276.383 131.901L276.28 133.007C275.963 133.095 275.641 133.139 275.313 133.139C274.786 133.129 274.391 132.937 274.127 132.561C273.863 132.18 273.761 131.669 273.819 131.03L274.625 126.123H273.226L273.409 125.075H274.808L275.145 123.156H276.463ZM284.974 129.074C284.876 129.88 284.659 130.605 284.322 131.25C283.985 131.894 283.568 132.377 283.07 132.7C282.572 133.017 282.02 133.168 281.415 133.154C280.497 133.134 279.793 132.824 279.305 132.224L278.595 136.047H277.269L279.173 125.075L280.375 125.068L280.228 125.954C280.882 125.251 281.666 124.909 282.579 124.929C283.341 124.948 283.934 125.229 284.359 125.771C284.784 126.313 285.008 127.06 285.033 128.012C285.038 128.325 285.025 128.627 284.996 128.92L284.974 129.074ZM283.67 128.92L283.707 128.305C283.707 127.592 283.57 127.048 283.297 126.672C283.028 126.291 282.638 126.091 282.125 126.071C281.358 126.052 280.697 126.416 280.14 127.163L279.474 130.964C279.771 131.667 280.306 132.028 281.078 132.048C281.737 132.062 282.296 131.806 282.755 131.279C283.219 130.747 283.524 129.96 283.67 128.92ZM291.075 132.216C290.455 132.856 289.667 133.166 288.709 133.146C287.953 133.127 287.391 132.856 287.025 132.333C286.664 131.811 286.529 131.098 286.622 130.195L287.472 125.075H288.797L287.94 130.217C287.916 130.432 287.911 130.642 287.926 130.847C287.95 131.198 288.055 131.474 288.241 131.674C288.426 131.875 288.685 131.982 289.017 131.997C289.964 132.026 290.697 131.643 291.214 130.847L292.21 125.075H293.536L292.159 133H290.907L291.075 132.216ZM297.645 123.156L297.308 125.075H298.751L298.568 126.123H297.132L296.305 131.052C296.29 131.179 296.288 131.296 296.297 131.403C296.332 131.784 296.539 131.975 296.92 131.975C297.081 131.975 297.296 131.95 297.564 131.901L297.462 133.007C297.145 133.095 296.822 133.139 296.495 133.139C295.968 133.129 295.572 132.937 295.309 132.561C295.045 132.18 294.942 131.669 295.001 131.03L295.807 126.123H294.408L294.591 125.075H295.99L296.327 123.156H297.645Z" fill="white"/>
</svg>
