<svg width="239" height="327" viewBox="0 0 239 327" fill="none" xmlns="http://www.w3.org/2000/svg">
<rect width="239" height="327" fill="white"/>
<path d="M3.83057 2.92578H2.43164V15.1719H3.83057V16.2852H1.06934V1.8125H3.83057V2.92578ZM11.5576 9.45166C11.5576 11.0386 11.2866 12.2178 10.7446 12.9893C10.2026 13.7607 9.35547 14.1465 8.20312 14.1465C7.06543 14.1465 6.22314 13.7705 5.67627 13.0186C5.12939 12.2617 4.84619 11.1338 4.82666 9.63477V7.82568C4.82666 6.2583 5.09766 5.09375 5.63965 4.33203C6.18164 3.57031 7.03125 3.18945 8.18848 3.18945C9.33594 3.18945 10.1807 3.55811 10.7227 4.29541C11.2646 5.02783 11.543 6.16064 11.5576 7.69385V9.45166ZM10.2026 7.59863C10.2026 6.45117 10.0415 5.61621 9.71924 5.09375C9.39697 4.56641 8.88672 4.30273 8.18848 4.30273C7.49512 4.30273 6.98975 4.56396 6.67236 5.08643C6.35498 5.60889 6.19141 6.41211 6.18164 7.49609V9.66406C6.18164 10.8164 6.34766 11.6685 6.67969 12.2202C7.0166 12.7671 7.52441 13.0405 8.20312 13.0405C8.87207 13.0405 9.36768 12.7817 9.68994 12.2642C10.0171 11.7466 10.188 10.9312 10.2026 9.81787V7.59863ZM13.3887 16.124L12.6196 15.5967C13.0786 14.957 13.3179 14.2979 13.3374 13.6191V12.396H14.6631V13.458C14.6631 13.9512 14.541 14.4443 14.2969 14.9375C14.0576 15.4307 13.7549 15.8262 13.3887 16.124ZM21.9287 8.00879H22.9468C23.5864 7.99902 24.0894 7.83057 24.4556 7.50342C24.8218 7.17627 25.0049 6.73438 25.0049 6.17773C25.0049 4.92773 24.3823 4.30273 23.1372 4.30273C22.5513 4.30273 22.0825 4.47119 21.731 4.80811C21.3843 5.14014 21.2109 5.58203 21.2109 6.13379H19.856C19.856 5.28906 20.1636 4.58838 20.7788 4.03174C21.3989 3.47021 22.1851 3.18945 23.1372 3.18945C24.1431 3.18945 24.9316 3.45557 25.5029 3.98779C26.0742 4.52002 26.3599 5.25977 26.3599 6.20703C26.3599 6.6709 26.2085 7.12012 25.9058 7.55469C25.6079 7.98926 25.2002 8.31396 24.6826 8.52881C25.2686 8.71436 25.7202 9.02197 26.0376 9.45166C26.3599 9.88135 26.521 10.4062 26.521 11.0264C26.521 11.9834 26.2085 12.7427 25.5835 13.3042C24.9585 13.8657 24.1455 14.1465 23.1445 14.1465C22.1436 14.1465 21.3281 13.8755 20.6982 13.3335C20.0732 12.7915 19.7607 12.0762 19.7607 11.1875H21.123C21.123 11.749 21.3062 12.1982 21.6724 12.5352C22.0386 12.8721 22.5293 13.0405 23.1445 13.0405C23.7988 13.0405 24.2993 12.8696 24.646 12.5278C24.9927 12.186 25.166 11.6953 25.166 11.0557C25.166 10.4355 24.9756 9.95947 24.5947 9.62744C24.2139 9.29541 23.6646 9.12451 22.9468 9.11475H21.9287V8.00879ZM27.561 1.8125H30.3296V16.2852H27.561V15.1719H28.9746V2.92578H27.561V1.8125ZM3.83057 37.9258H2.43164V50.1719H3.83057V51.2852H1.06934V36.8125H3.83057V37.9258ZM11.5576 44.4517C11.5576 46.0386 11.2866 47.2178 10.7446 47.9893C10.2026 48.7607 9.35547 49.1465 8.20312 49.1465C7.06543 49.1465 6.22314 48.7705 5.67627 48.0186C5.12939 47.2617 4.84619 46.1338 4.82666 44.6348V42.8257C4.82666 41.2583 5.09766 40.0938 5.63965 39.332C6.18164 38.5703 7.03125 38.1895 8.18848 38.1895C9.33594 38.1895 10.1807 38.5581 10.7227 39.2954C11.2646 40.0278 11.543 41.1606 11.5576 42.6938V44.4517ZM10.2026 42.5986C10.2026 41.4512 10.0415 40.6162 9.71924 40.0938C9.39697 39.5664 8.88672 39.3027 8.18848 39.3027C7.49512 39.3027 6.98975 39.564 6.67236 40.0864C6.35498 40.6089 6.19141 41.4121 6.18164 42.4961V44.6641C6.18164 45.8164 6.34766 46.6685 6.67969 47.2202C7.0166 47.7671 7.52441 48.0405 8.20312 48.0405C8.87207 48.0405 9.36768 47.7817 9.68994 47.2642C10.0171 46.7466 10.188 45.9312 10.2026 44.8179V42.5986ZM13.3887 51.124L12.6196 50.5967C13.0786 49.957 13.3179 49.2979 13.3374 48.6191V47.396H14.6631V48.458C14.6631 48.9512 14.541 49.4443 14.2969 49.9375C14.0576 50.4307 13.7549 50.8262 13.3887 51.124ZM25.2759 38.3286V39.4785H25.0269C23.9722 39.498 23.1323 39.8105 22.5073 40.416C21.8823 41.0215 21.521 41.8735 21.4233 42.9722C21.9849 42.3276 22.7515 42.0054 23.7231 42.0054C24.6509 42.0054 25.3906 42.3325 25.9424 42.9868C26.499 43.6411 26.7773 44.4858 26.7773 45.521C26.7773 46.6196 26.4771 47.4985 25.8765 48.1577C25.2808 48.8169 24.48 49.1465 23.4741 49.1465C22.4536 49.1465 21.626 48.7559 20.9912 47.9746C20.3564 47.1885 20.0391 46.1777 20.0391 44.9424V44.4224C20.0391 42.4595 20.4565 40.9604 21.2915 39.9253C22.1313 38.8853 23.3789 38.353 25.0342 38.3286H25.2759ZM23.4961 43.1333C23.0322 43.1333 22.605 43.2725 22.2144 43.5508C21.8237 43.8291 21.5527 44.1782 21.4014 44.5981V45.0962C21.4014 45.9751 21.5991 46.6831 21.9946 47.2202C22.3901 47.7573 22.8833 48.0259 23.4741 48.0259C24.0845 48.0259 24.563 47.8013 24.9097 47.3521C25.2612 46.9028 25.437 46.3145 25.437 45.5869C25.437 44.8545 25.2588 44.2637 24.9023 43.8145C24.5508 43.3604 24.082 43.1333 23.4961 43.1333ZM27.561 36.8125H30.3296V51.2852H27.561V50.1719H28.9746V37.9258H27.561V36.8125ZM3.83057 72.9258H2.43164V85.1719H3.83057V86.2852H1.06934V71.8125H3.83057V72.9258ZM11.5576 79.4517C11.5576 81.0386 11.2866 82.2178 10.7446 82.9893C10.2026 83.7607 9.35547 84.1465 8.20312 84.1465C7.06543 84.1465 6.22314 83.7705 5.67627 83.0186C5.12939 82.2617 4.84619 81.1338 4.82666 79.6348V77.8257C4.82666 76.2583 5.09766 75.0938 5.63965 74.332C6.18164 73.5703 7.03125 73.1895 8.18848 73.1895C9.33594 73.1895 10.1807 73.5581 10.7227 74.2954C11.2646 75.0278 11.543 76.1606 11.5576 77.6938V79.4517ZM10.2026 77.5986C10.2026 76.4512 10.0415 75.6162 9.71924 75.0938C9.39697 74.5664 8.88672 74.3027 8.18848 74.3027C7.49512 74.3027 6.98975 74.564 6.67236 75.0864C6.35498 75.6089 6.19141 76.4121 6.18164 77.4961V79.6641C6.18164 80.8164 6.34766 81.6685 6.67969 82.2202C7.0166 82.7671 7.52441 83.0405 8.20312 83.0405C8.87207 83.0405 9.36768 82.7817 9.68994 82.2642C10.0171 81.7466 10.188 80.9312 10.2026 79.8179V77.5986ZM13.3887 86.124L12.6196 85.5967C13.0786 84.957 13.3179 84.2979 13.3374 83.6191V82.396H14.6631V83.458C14.6631 83.9512 14.541 84.4443 14.2969 84.9375C14.0576 85.4307 13.7549 85.8262 13.3887 86.124ZM26.6455 79.4517C26.6455 81.0386 26.3745 82.2178 25.8325 82.9893C25.2905 83.7607 24.4434 84.1465 23.291 84.1465C22.1533 84.1465 21.311 83.7705 20.7642 83.0186C20.2173 82.2617 19.9341 81.1338 19.9146 79.6348V77.8257C19.9146 76.2583 20.1855 75.0938 20.7275 74.332C21.2695 73.5703 22.1191 73.1895 23.2764 73.1895C24.4238 73.1895 25.2686 73.5581 25.8105 74.2954C26.3525 75.0278 26.6309 76.1606 26.6455 77.6938V79.4517ZM25.2905 77.5986C25.2905 76.4512 25.1294 75.6162 24.8071 75.0938C24.4849 74.5664 23.9746 74.3027 23.2764 74.3027C22.583 74.3027 22.0776 74.564 21.7603 75.0864C21.4429 75.6089 21.2793 76.4121 21.2695 77.4961V79.6641C21.2695 80.8164 21.4355 81.6685 21.7676 82.2202C22.1045 82.7671 22.6123 83.0405 23.291 83.0405C23.96 83.0405 24.4556 82.7817 24.7778 82.2642C25.105 81.7466 25.2759 80.9312 25.2905 79.8179V77.5986ZM27.561 71.8125H30.3296V86.2852H27.561V85.1719H28.9746V72.9258H27.561V71.8125ZM3.83057 107.926H2.43164V120.172H3.83057V121.285H1.06934V106.812H3.83057V107.926ZM6.84082 113.009H7.85889C8.49854 112.999 9.00146 112.831 9.36768 112.503C9.73389 112.176 9.91699 111.734 9.91699 111.178C9.91699 109.928 9.29443 109.303 8.04932 109.303C7.46338 109.303 6.99463 109.471 6.64307 109.808C6.29639 110.14 6.12305 110.582 6.12305 111.134H4.76807C4.76807 110.289 5.07568 109.588 5.69092 109.032C6.31104 108.47 7.09717 108.189 8.04932 108.189C9.05518 108.189 9.84375 108.456 10.415 108.988C10.9863 109.52 11.272 110.26 11.272 111.207C11.272 111.671 11.1206 112.12 10.8179 112.555C10.52 112.989 10.1123 113.314 9.59473 113.529C10.1807 113.714 10.6323 114.022 10.9497 114.452C11.272 114.881 11.4331 115.406 11.4331 116.026C11.4331 116.983 11.1206 117.743 10.4956 118.304C9.87061 118.866 9.05762 119.146 8.05664 119.146C7.05566 119.146 6.24023 118.875 5.61035 118.333C4.98535 117.792 4.67285 117.076 4.67285 116.188H6.03516C6.03516 116.749 6.21826 117.198 6.58447 117.535C6.95068 117.872 7.44141 118.041 8.05664 118.041C8.71094 118.041 9.21143 117.87 9.55811 117.528C9.90479 117.186 10.0781 116.695 10.0781 116.056C10.0781 115.436 9.8877 114.959 9.50684 114.627C9.12598 114.295 8.57666 114.125 7.85889 114.115H6.84082V113.009ZM13.3887 121.124L12.6196 120.597C13.0786 119.957 13.3179 119.298 13.3374 118.619V117.396H14.6631V118.458C14.6631 118.951 14.541 119.444 14.2969 119.938C14.0576 120.431 13.7549 120.826 13.3887 121.124ZM26.6455 114.452C26.6455 116.039 26.3745 117.218 25.8325 117.989C25.2905 118.761 24.4434 119.146 23.291 119.146C22.1533 119.146 21.311 118.771 20.7642 118.019C20.2173 117.262 19.9341 116.134 19.9146 114.635V112.826C19.9146 111.258 20.1855 110.094 20.7275 109.332C21.2695 108.57 22.1191 108.189 23.2764 108.189C24.4238 108.189 25.2686 108.558 25.8105 109.295C26.3525 110.028 26.6309 111.161 26.6455 112.694V114.452ZM25.2905 112.599C25.2905 111.451 25.1294 110.616 24.8071 110.094C24.4849 109.566 23.9746 109.303 23.2764 109.303C22.583 109.303 22.0776 109.564 21.7603 110.086C21.4429 110.609 21.2793 111.412 21.2695 112.496V114.664C21.2695 115.816 21.4355 116.668 21.7676 117.22C22.1045 117.767 22.6123 118.041 23.291 118.041C23.96 118.041 24.4556 117.782 24.7778 117.264C25.105 116.747 25.2759 115.931 25.2905 114.818V112.599ZM27.561 106.812H30.3296V121.285H27.561V120.172H28.9746V107.926H27.561V106.812ZM3.83057 143.926H2.43164V156.172H3.83057V157.285H1.06934V142.812H3.83057V143.926ZM6.84082 149.009H7.85889C8.49854 148.999 9.00146 148.831 9.36768 148.503C9.73389 148.176 9.91699 147.734 9.91699 147.178C9.91699 145.928 9.29443 145.303 8.04932 145.303C7.46338 145.303 6.99463 145.471 6.64307 145.808C6.29639 146.14 6.12305 146.582 6.12305 147.134H4.76807C4.76807 146.289 5.07568 145.588 5.69092 145.032C6.31104 144.47 7.09717 144.189 8.04932 144.189C9.05518 144.189 9.84375 144.456 10.415 144.988C10.9863 145.52 11.272 146.26 11.272 147.207C11.272 147.671 11.1206 148.12 10.8179 148.555C10.52 148.989 10.1123 149.314 9.59473 149.529C10.1807 149.714 10.6323 150.022 10.9497 150.452C11.272 150.881 11.4331 151.406 11.4331 152.026C11.4331 152.983 11.1206 153.743 10.4956 154.304C9.87061 154.866 9.05762 155.146 8.05664 155.146C7.05566 155.146 6.24023 154.875 5.61035 154.333C4.98535 153.792 4.67285 153.076 4.67285 152.188H6.03516C6.03516 152.749 6.21826 153.198 6.58447 153.535C6.95068 153.872 7.44141 154.041 8.05664 154.041C8.71094 154.041 9.21143 153.87 9.55811 153.528C9.90479 153.186 10.0781 152.695 10.0781 152.056C10.0781 151.436 9.8877 150.959 9.50684 150.627C9.12598 150.295 8.57666 150.125 7.85889 150.115H6.84082V149.009ZM13.3887 157.124L12.6196 156.597C13.0786 155.957 13.3179 155.298 13.3374 154.619V153.396H14.6631V154.458C14.6631 154.951 14.541 155.444 14.2969 155.938C14.0576 156.431 13.7549 156.826 13.3887 157.124ZM25.2759 144.329V145.479H25.0269C23.9722 145.498 23.1323 145.811 22.5073 146.416C21.8823 147.021 21.521 147.874 21.4233 148.972C21.9849 148.328 22.7515 148.005 23.7231 148.005C24.6509 148.005 25.3906 148.333 25.9424 148.987C26.499 149.641 26.7773 150.486 26.7773 151.521C26.7773 152.62 26.4771 153.499 25.8765 154.158C25.2808 154.817 24.48 155.146 23.4741 155.146C22.4536 155.146 21.626 154.756 20.9912 153.975C20.3564 153.188 20.0391 152.178 20.0391 150.942V150.422C20.0391 148.459 20.4565 146.96 21.2915 145.925C22.1313 144.885 23.3789 144.353 25.0342 144.329H25.2759ZM23.4961 149.133C23.0322 149.133 22.605 149.272 22.2144 149.551C21.8237 149.829 21.5527 150.178 21.4014 150.598V151.096C21.4014 151.975 21.5991 152.683 21.9946 153.22C22.3901 153.757 22.8833 154.026 23.4741 154.026C24.0845 154.026 24.563 153.801 24.9097 153.352C25.2612 152.903 25.437 152.314 25.437 151.587C25.437 150.854 25.2588 150.264 24.9023 149.814C24.5508 149.36 24.082 149.133 23.4961 149.133ZM27.561 142.812H30.3296V157.285H27.561V156.172H28.9746V143.926H27.561V142.812ZM3.83057 178.926H2.43164V191.172H3.83057V192.285H1.06934V177.812H3.83057V178.926ZM6.84082 184.009H7.85889C8.49854 183.999 9.00146 183.831 9.36768 183.503C9.73389 183.176 9.91699 182.734 9.91699 182.178C9.91699 180.928 9.29443 180.303 8.04932 180.303C7.46338 180.303 6.99463 180.471 6.64307 180.808C6.29639 181.14 6.12305 181.582 6.12305 182.134H4.76807C4.76807 181.289 5.07568 180.588 5.69092 180.032C6.31104 179.47 7.09717 179.189 8.04932 179.189C9.05518 179.189 9.84375 179.456 10.415 179.988C10.9863 180.52 11.272 181.26 11.272 182.207C11.272 182.671 11.1206 183.12 10.8179 183.555C10.52 183.989 10.1123 184.314 9.59473 184.529C10.1807 184.714 10.6323 185.022 10.9497 185.452C11.272 185.881 11.4331 186.406 11.4331 187.026C11.4331 187.983 11.1206 188.743 10.4956 189.304C9.87061 189.866 9.05762 190.146 8.05664 190.146C7.05566 190.146 6.24023 189.875 5.61035 189.333C4.98535 188.792 4.67285 188.076 4.67285 187.188H6.03516C6.03516 187.749 6.21826 188.198 6.58447 188.535C6.95068 188.872 7.44141 189.041 8.05664 189.041C8.71094 189.041 9.21143 188.87 9.55811 188.528C9.90479 188.186 10.0781 187.695 10.0781 187.056C10.0781 186.436 9.8877 185.959 9.50684 185.627C9.12598 185.295 8.57666 185.125 7.85889 185.115H6.84082V184.009ZM13.3887 192.124L12.6196 191.597C13.0786 190.957 13.3179 190.298 13.3374 189.619V188.396H14.6631V189.458C14.6631 189.951 14.541 190.444 14.2969 190.938C14.0576 191.431 13.7549 191.826 13.3887 192.124ZM21.9287 184.009H22.9468C23.5864 183.999 24.0894 183.831 24.4556 183.503C24.8218 183.176 25.0049 182.734 25.0049 182.178C25.0049 180.928 24.3823 180.303 23.1372 180.303C22.5513 180.303 22.0825 180.471 21.731 180.808C21.3843 181.14 21.2109 181.582 21.2109 182.134H19.856C19.856 181.289 20.1636 180.588 20.7788 180.032C21.3989 179.47 22.1851 179.189 23.1372 179.189C24.1431 179.189 24.9316 179.456 25.5029 179.988C26.0742 180.52 26.3599 181.26 26.3599 182.207C26.3599 182.671 26.2085 183.12 25.9058 183.555C25.6079 183.989 25.2002 184.314 24.6826 184.529C25.2686 184.714 25.7202 185.022 26.0376 185.452C26.3599 185.881 26.521 186.406 26.521 187.026C26.521 187.983 26.2085 188.743 25.5835 189.304C24.9585 189.866 24.1455 190.146 23.1445 190.146C22.1436 190.146 21.3281 189.875 20.6982 189.333C20.0732 188.792 19.7607 188.076 19.7607 187.188H21.123C21.123 187.749 21.3062 188.198 21.6724 188.535C22.0386 188.872 22.5293 189.041 23.1445 189.041C23.7988 189.041 24.2993 188.87 24.646 188.528C24.9927 188.186 25.166 187.695 25.166 187.056C25.166 186.436 24.9756 185.959 24.5947 185.627C24.2139 185.295 23.6646 185.125 22.9468 185.115H21.9287V184.009ZM27.561 177.812H30.3296V192.285H27.561V191.172H28.9746V178.926H27.561V177.812ZM3.83057 213.926H2.43164V226.172H3.83057V227.285H1.06934V212.812H3.83057V213.926ZM10.188 214.329V215.479H9.93896C8.88428 215.498 8.04443 215.811 7.41943 216.416C6.79443 217.021 6.43311 217.874 6.33545 218.972C6.89697 218.328 7.66357 218.005 8.63525 218.005C9.56299 218.005 10.3027 218.333 10.8545 218.987C11.4111 219.641 11.6895 220.486 11.6895 221.521C11.6895 222.62 11.3892 223.499 10.7886 224.158C10.1929 224.817 9.39209 225.146 8.38623 225.146C7.36572 225.146 6.53809 224.756 5.90332 223.975C5.26855 223.188 4.95117 222.178 4.95117 220.942V220.422C4.95117 218.459 5.36865 216.96 6.20361 215.925C7.04346 214.885 8.29102 214.353 9.94629 214.329H10.188ZM8.4082 219.133C7.94434 219.133 7.51709 219.272 7.12646 219.551C6.73584 219.829 6.46484 220.178 6.31348 220.598V221.096C6.31348 221.975 6.51123 222.683 6.90674 223.22C7.30225 223.757 7.79541 224.026 8.38623 224.026C8.99658 224.026 9.4751 223.801 9.82178 223.352C10.1733 222.903 10.3491 222.314 10.3491 221.587C10.3491 220.854 10.1709 220.264 9.81445 219.814C9.46289 219.36 8.99414 219.133 8.4082 219.133ZM13.3887 227.124L12.6196 226.597C13.0786 225.957 13.3179 225.298 13.3374 224.619V223.396H14.6631V224.458C14.6631 224.951 14.541 225.444 14.2969 225.938C14.0576 226.431 13.7549 226.826 13.3887 227.124ZM26.6455 220.452C26.6455 222.039 26.3745 223.218 25.8325 223.989C25.2905 224.761 24.4434 225.146 23.291 225.146C22.1533 225.146 21.311 224.771 20.7642 224.019C20.2173 223.262 19.9341 222.134 19.9146 220.635V218.826C19.9146 217.258 20.1855 216.094 20.7275 215.332C21.2695 214.57 22.1191 214.189 23.2764 214.189C24.4238 214.189 25.2686 214.558 25.8105 215.295C26.3525 216.028 26.6309 217.161 26.6455 218.694V220.452ZM25.2905 218.599C25.2905 217.451 25.1294 216.616 24.8071 216.094C24.4849 215.566 23.9746 215.303 23.2764 215.303C22.583 215.303 22.0776 215.564 21.7603 216.086C21.4429 216.609 21.2793 217.412 21.2695 218.496V220.664C21.2695 221.816 21.4355 222.668 21.7676 223.22C22.1045 223.767 22.6123 224.041 23.291 224.041C23.96 224.041 24.4556 223.782 24.7778 223.264C25.105 222.747 25.2759 221.931 25.2905 220.818V218.599ZM27.561 212.812H30.3296V227.285H27.561V226.172H28.9746V213.926H27.561V212.812ZM3.83057 248.926H2.43164V261.172H3.83057V262.285H1.06934V247.812H3.83057V248.926ZM10.188 249.329V250.479H9.93896C8.88428 250.498 8.04443 250.811 7.41943 251.416C6.79443 252.021 6.43311 252.874 6.33545 253.972C6.89697 253.328 7.66357 253.005 8.63525 253.005C9.56299 253.005 10.3027 253.333 10.8545 253.987C11.4111 254.641 11.6895 255.486 11.6895 256.521C11.6895 257.62 11.3892 258.499 10.7886 259.158C10.1929 259.817 9.39209 260.146 8.38623 260.146C7.36572 260.146 6.53809 259.756 5.90332 258.975C5.26855 258.188 4.95117 257.178 4.95117 255.942V255.422C4.95117 253.459 5.36865 251.96 6.20361 250.925C7.04346 249.885 8.29102 249.353 9.94629 249.329H10.188ZM8.4082 254.133C7.94434 254.133 7.51709 254.272 7.12646 254.551C6.73584 254.829 6.46484 255.178 6.31348 255.598V256.096C6.31348 256.975 6.51123 257.683 6.90674 258.22C7.30225 258.757 7.79541 259.026 8.38623 259.026C8.99658 259.026 9.4751 258.801 9.82178 258.352C10.1733 257.903 10.3491 257.314 10.3491 256.587C10.3491 255.854 10.1709 255.264 9.81445 254.814C9.46289 254.36 8.99414 254.133 8.4082 254.133ZM13.3887 262.124L12.6196 261.597C13.0786 260.957 13.3179 260.298 13.3374 259.619V258.396H14.6631V259.458C14.6631 259.951 14.541 260.444 14.2969 260.938C14.0576 261.431 13.7549 261.826 13.3887 262.124ZM21.9287 254.009H22.9468C23.5864 253.999 24.0894 253.831 24.4556 253.503C24.8218 253.176 25.0049 252.734 25.0049 252.178C25.0049 250.928 24.3823 250.303 23.1372 250.303C22.5513 250.303 22.0825 250.471 21.731 250.808C21.3843 251.14 21.2109 251.582 21.2109 252.134H19.856C19.856 251.289 20.1636 250.588 20.7788 250.032C21.3989 249.47 22.1851 249.189 23.1372 249.189C24.1431 249.189 24.9316 249.456 25.5029 249.988C26.0742 250.52 26.3599 251.26 26.3599 252.207C26.3599 252.671 26.2085 253.12 25.9058 253.555C25.6079 253.989 25.2002 254.314 24.6826 254.529C25.2686 254.714 25.7202 255.022 26.0376 255.452C26.3599 255.881 26.521 256.406 26.521 257.026C26.521 257.983 26.2085 258.743 25.5835 259.304C24.9585 259.866 24.1455 260.146 23.1445 260.146C22.1436 260.146 21.3281 259.875 20.6982 259.333C20.0732 258.792 19.7607 258.076 19.7607 257.188H21.123C21.123 257.749 21.3062 258.198 21.6724 258.535C22.0386 258.872 22.5293 259.041 23.1445 259.041C23.7988 259.041 24.2993 258.87 24.646 258.528C24.9927 258.186 25.166 257.695 25.166 257.056C25.166 256.436 24.9756 255.959 24.5947 255.627C24.2139 255.295 23.6646 255.125 22.9468 255.115H21.9287V254.009ZM27.561 247.812H30.3296V262.285H27.561V261.172H28.9746V248.926H27.561V247.812ZM3.83057 283.926H2.43164V296.172H3.83057V297.285H1.06934V282.812H3.83057V283.926ZM10.188 284.329V285.479H9.93896C8.88428 285.498 8.04443 285.811 7.41943 286.416C6.79443 287.021 6.43311 287.874 6.33545 288.972C6.89697 288.328 7.66357 288.005 8.63525 288.005C9.56299 288.005 10.3027 288.333 10.8545 288.987C11.4111 289.641 11.6895 290.486 11.6895 291.521C11.6895 292.62 11.3892 293.499 10.7886 294.158C10.1929 294.817 9.39209 295.146 8.38623 295.146C7.36572 295.146 6.53809 294.756 5.90332 293.975C5.26855 293.188 4.95117 292.178 4.95117 290.942V290.422C4.95117 288.459 5.36865 286.96 6.20361 285.925C7.04346 284.885 8.29102 284.353 9.94629 284.329H10.188ZM8.4082 289.133C7.94434 289.133 7.51709 289.272 7.12646 289.551C6.73584 289.829 6.46484 290.178 6.31348 290.598V291.096C6.31348 291.975 6.51123 292.683 6.90674 293.22C7.30225 293.757 7.79541 294.026 8.38623 294.026C8.99658 294.026 9.4751 293.801 9.82178 293.352C10.1733 292.903 10.3491 292.314 10.3491 291.587C10.3491 290.854 10.1709 290.264 9.81445 289.814C9.46289 289.36 8.99414 289.133 8.4082 289.133ZM13.3887 297.124L12.6196 296.597C13.0786 295.957 13.3179 295.298 13.3374 294.619V293.396H14.6631V294.458C14.6631 294.951 14.541 295.444 14.2969 295.938C14.0576 296.431 13.7549 296.826 13.3887 297.124ZM25.2759 284.329V285.479H25.0269C23.9722 285.498 23.1323 285.811 22.5073 286.416C21.8823 287.021 21.521 287.874 21.4233 288.972C21.9849 288.328 22.7515 288.005 23.7231 288.005C24.6509 288.005 25.3906 288.333 25.9424 288.987C26.499 289.641 26.7773 290.486 26.7773 291.521C26.7773 292.62 26.4771 293.499 25.8765 294.158C25.2808 294.817 24.48 295.146 23.4741 295.146C22.4536 295.146 21.626 294.756 20.9912 293.975C20.3564 293.188 20.0391 292.178 20.0391 290.942V290.422C20.0391 288.459 20.4565 286.96 21.2915 285.925C22.1313 284.885 23.3789 284.353 25.0342 284.329H25.2759ZM23.4961 289.133C23.0322 289.133 22.605 289.272 22.2144 289.551C21.8237 289.829 21.5527 290.178 21.4014 290.598V291.096C21.4014 291.975 21.5991 292.683 21.9946 293.22C22.3901 293.757 22.8833 294.026 23.4741 294.026C24.0845 294.026 24.563 293.801 24.9097 293.352C25.2612 292.903 25.437 292.314 25.437 291.587C25.437 290.854 25.2588 290.264 24.9023 289.814C24.5508 289.36 24.082 289.133 23.4961 289.133ZM27.561 282.812H30.3296V297.285H27.561V296.172H28.9746V283.926H27.561V282.812Z" transform="translate(15 29)" fill="black"/>
<path d="M5.43896 14H4.07666V4.96924L1.34473 5.97266V4.74219L5.22656 3.28467H5.43896V14ZM9.57715 13.2896C9.57715 13.0552 9.64551 12.8599 9.78223 12.7036C9.92383 12.5474 10.1338 12.4692 10.4121 12.4692C10.6904 12.4692 10.9004 12.5474 11.042 12.7036C11.1885 12.8599 11.2617 13.0552 11.2617 13.2896C11.2617 13.5142 11.1885 13.7021 11.042 13.8535C10.9004 14.0049 10.6904 14.0806 10.4121 14.0806C10.1338 14.0806 9.92383 14.0049 9.78223 13.8535C9.64551 13.7021 9.57715 13.5142 9.57715 13.2896ZM13.9863 8.65332L14.5283 3.33594H19.9922V4.58838H15.6782L15.356 7.49609C15.8784 7.18848 16.4717 7.03467 17.1357 7.03467C18.1074 7.03467 18.8789 7.35693 19.4502 8.00146C20.0215 8.64111 20.3071 9.50781 20.3071 10.6016C20.3071 11.7002 20.0093 12.5669 19.4136 13.2017C18.8228 13.8315 17.9951 14.1465 16.9307 14.1465C15.9883 14.1465 15.2192 13.8853 14.6235 13.3628C14.0278 12.8403 13.6885 12.1177 13.6055 11.1948H14.8872C14.9702 11.8052 15.1875 12.2666 15.5391 12.5791C15.8906 12.8867 16.3545 13.0405 16.9307 13.0405C17.5605 13.0405 18.0537 12.8257 18.4102 12.396C18.7715 11.9663 18.9521 11.373 18.9521 10.6162C18.9521 9.90332 18.7568 9.33203 18.3662 8.90234C17.9805 8.46777 17.4653 8.25049 16.8208 8.25049C16.23 8.25049 15.7661 8.37988 15.4292 8.63867L15.0703 8.93164L13.9863 8.65332ZM9.14502 43.0088H10.1631C10.8027 42.999 11.3057 42.8306 11.6719 42.5034C12.0381 42.1763 12.2212 41.7344 12.2212 41.1777C12.2212 39.9277 11.5986 39.3027 10.3535 39.3027C9.76758 39.3027 9.29883 39.4712 8.94727 39.8081C8.60059 40.1401 8.42725 40.582 8.42725 41.1338H7.07227C7.07227 40.2891 7.37988 39.5884 7.99512 39.0317C8.61523 38.4702 9.40137 38.1895 10.3535 38.1895C11.3594 38.1895 12.1479 38.4556 12.7192 38.9878C13.2905 39.52 13.5762 40.2598 13.5762 41.207C13.5762 41.6709 13.4248 42.1201 13.1221 42.5547C12.8242 42.9893 12.4165 43.314 11.8989 43.5288C12.4849 43.7144 12.9365 44.022 13.2539 44.4517C13.5762 44.8813 13.7373 45.4062 13.7373 46.0264C13.7373 46.9834 13.4248 47.7427 12.7998 48.3042C12.1748 48.8657 11.3618 49.1465 10.3608 49.1465C9.35986 49.1465 8.54443 48.8755 7.91455 48.3335C7.28955 47.7915 6.97705 47.0762 6.97705 46.1875H8.33936C8.33936 46.749 8.52246 47.1982 8.88867 47.5352C9.25488 47.8721 9.74561 48.0405 10.3608 48.0405C11.0151 48.0405 11.5156 47.8696 11.8623 47.5278C12.209 47.186 12.3823 46.6953 12.3823 46.0557C12.3823 45.4355 12.1919 44.9595 11.811 44.6274C11.4302 44.2954 10.8809 44.1245 10.1631 44.1147H9.14502V43.0088ZM13.8618 79.4517C13.8618 81.0386 13.5908 82.2178 13.0488 82.9893C12.5068 83.7607 11.6597 84.1465 10.5073 84.1465C9.36963 84.1465 8.52734 83.7705 7.98047 83.0186C7.43359 82.2617 7.15039 81.1338 7.13086 79.6348V77.8257C7.13086 76.2583 7.40186 75.0938 7.94385 74.332C8.48584 73.5703 9.33545 73.1895 10.4927 73.1895C11.6401 73.1895 12.4849 73.5581 13.0269 74.2954C13.5688 75.0278 13.8472 76.1606 13.8618 77.6938V79.4517ZM12.5068 77.5986C12.5068 76.4512 12.3457 75.6162 12.0234 75.0938C11.7012 74.5664 11.1909 74.3027 10.4927 74.3027C9.79932 74.3027 9.29395 74.564 8.97656 75.0864C8.65918 75.6089 8.49561 76.4121 8.48584 77.4961V79.6641C8.48584 80.8164 8.65186 81.6685 8.98389 82.2202C9.3208 82.7671 9.82861 83.0405 10.5073 83.0405C11.1763 83.0405 11.6719 82.7817 11.9941 82.2642C12.3213 81.7466 12.4922 80.9312 12.5068 79.8179V77.5986ZM5.43896 119H4.07666V109.969L1.34473 110.973V109.742L5.22656 108.285H5.43896V119ZM9.57715 118.29C9.57715 118.055 9.64551 117.86 9.78223 117.704C9.92383 117.547 10.1338 117.469 10.4121 117.469C10.6904 117.469 10.9004 117.547 11.042 117.704C11.1885 117.86 11.2617 118.055 11.2617 118.29C11.2617 118.514 11.1885 118.702 11.042 118.854C10.9004 119.005 10.6904 119.081 10.4121 119.081C10.1338 119.081 9.92383 119.005 9.78223 118.854C9.64551 118.702 9.57715 118.514 9.57715 118.29ZM13.9863 113.653L14.5283 108.336H19.9922V109.588H15.6782L15.356 112.496C15.8784 112.188 16.4717 112.035 17.1357 112.035C18.1074 112.035 18.8789 112.357 19.4502 113.001C20.0215 113.641 20.3071 114.508 20.3071 115.602C20.3071 116.7 20.0093 117.567 19.4136 118.202C18.8228 118.832 17.9951 119.146 16.9307 119.146C15.9883 119.146 15.2192 118.885 14.6235 118.363C14.0278 117.84 13.6885 117.118 13.6055 116.195H14.8872C14.9702 116.805 15.1875 117.267 15.5391 117.579C15.8906 117.887 16.3545 118.041 16.9307 118.041C17.5605 118.041 18.0537 117.826 18.4102 117.396C18.7715 116.966 18.9521 116.373 18.9521 115.616C18.9521 114.903 18.7568 114.332 18.3662 113.902C17.9805 113.468 17.4653 113.25 16.8208 113.25C16.23 113.25 15.7661 113.38 15.4292 113.639L15.0703 113.932L13.9863 113.653ZM6.70605 151.418H8.18555V152.524H6.70605V155H5.34375V152.524H0.487793V151.726L5.26318 144.336H6.70605V151.418ZM2.02588 151.418H5.34375V146.189L5.18262 146.482L2.02588 151.418ZM9.57715 154.29C9.57715 154.055 9.64551 153.86 9.78223 153.704C9.92383 153.547 10.1338 153.469 10.4121 153.469C10.6904 153.469 10.9004 153.547 11.042 153.704C11.1885 153.86 11.2617 154.055 11.2617 154.29C11.2617 154.514 11.1885 154.702 11.042 154.854C10.9004 155.005 10.6904 155.081 10.4121 155.081C10.1338 155.081 9.92383 155.005 9.78223 154.854C9.64551 154.702 9.57715 154.514 9.57715 154.29ZM13.9863 149.653L14.5283 144.336H19.9922V145.588H15.6782L15.356 148.496C15.8784 148.188 16.4717 148.035 17.1357 148.035C18.1074 148.035 18.8789 148.357 19.4502 149.001C20.0215 149.641 20.3071 150.508 20.3071 151.602C20.3071 152.7 20.0093 153.567 19.4136 154.202C18.8228 154.832 17.9951 155.146 16.9307 155.146C15.9883 155.146 15.2192 154.885 14.6235 154.363C14.0278 153.84 13.6885 153.118 13.6055 152.195H14.8872C14.9702 152.805 15.1875 153.267 15.5391 153.579C15.8906 153.887 16.3545 154.041 16.9307 154.041C17.5605 154.041 18.0537 153.826 18.4102 153.396C18.7715 152.966 18.9521 152.373 18.9521 151.616C18.9521 150.903 18.7568 150.332 18.3662 149.902C17.9805 149.468 17.4653 149.25 16.8208 149.25C16.23 149.25 15.7661 149.38 15.4292 149.639L15.0703 149.932L13.9863 149.653ZM9.14502 184.009H10.1631C10.8027 183.999 11.3057 183.831 11.6719 183.503C12.0381 183.176 12.2212 182.734 12.2212 182.178C12.2212 180.928 11.5986 180.303 10.3535 180.303C9.76758 180.303 9.29883 180.471 8.94727 180.808C8.60059 181.14 8.42725 181.582 8.42725 182.134H7.07227C7.07227 181.289 7.37988 180.588 7.99512 180.032C8.61523 179.47 9.40137 179.189 10.3535 179.189C11.3594 179.189 12.1479 179.456 12.7192 179.988C13.2905 180.52 13.5762 181.26 13.5762 182.207C13.5762 182.671 13.4248 183.12 13.1221 183.555C12.8242 183.989 12.4165 184.314 11.8989 184.529C12.4849 184.714 12.9365 185.022 13.2539 185.452C13.5762 185.881 13.7373 186.406 13.7373 187.026C13.7373 187.983 13.4248 188.743 12.7998 189.304C12.1748 189.866 11.3618 190.146 10.3608 190.146C9.35986 190.146 8.54443 189.875 7.91455 189.333C7.28955 188.792 6.97705 188.076 6.97705 187.188H8.33936C8.33936 187.749 8.52246 188.198 8.88867 188.535C9.25488 188.872 9.74561 189.041 10.3608 189.041C11.0151 189.041 11.5156 188.87 11.8623 188.528C12.209 188.186 12.3823 187.695 12.3823 187.056C12.3823 186.436 12.1919 185.959 11.811 185.627C11.4302 185.295 10.8809 185.125 10.1631 185.115H9.14502V184.009ZM9.14502 219.009H10.1631C10.8027 218.999 11.3057 218.831 11.6719 218.503C12.0381 218.176 12.2212 217.734 12.2212 217.178C12.2212 215.928 11.5986 215.303 10.3535 215.303C9.76758 215.303 9.29883 215.471 8.94727 215.808C8.60059 216.14 8.42725 216.582 8.42725 217.134H7.07227C7.07227 216.289 7.37988 215.588 7.99512 215.032C8.61523 214.47 9.40137 214.189 10.3535 214.189C11.3594 214.189 12.1479 214.456 12.7192 214.988C13.2905 215.52 13.5762 216.26 13.5762 217.207C13.5762 217.671 13.4248 218.12 13.1221 218.555C12.8242 218.989 12.4165 219.314 11.8989 219.529C12.4849 219.714 12.9365 220.022 13.2539 220.452C13.5762 220.881 13.7373 221.406 13.7373 222.026C13.7373 222.983 13.4248 223.743 12.7998 224.304C12.1748 224.866 11.3618 225.146 10.3608 225.146C9.35986 225.146 8.54443 224.875 7.91455 224.333C7.28955 223.792 6.97705 223.076 6.97705 222.188H8.33936C8.33936 222.749 8.52246 223.198 8.88867 223.535C9.25488 223.872 9.74561 224.041 10.3608 224.041C11.0151 224.041 11.5156 223.87 11.8623 223.528C12.209 223.186 12.3823 222.695 12.3823 222.056C12.3823 221.436 12.1919 220.959 11.811 220.627C11.4302 220.295 10.8809 220.125 10.1631 220.115H9.14502V219.009ZM6.70605 256.418H8.18555V257.524H6.70605V260H5.34375V257.524H0.487793V256.726L5.26318 249.336H6.70605V256.418ZM2.02588 256.418H5.34375V251.189L5.18262 251.482L2.02588 256.418ZM9.57715 259.29C9.57715 259.055 9.64551 258.86 9.78223 258.704C9.92383 258.547 10.1338 258.469 10.4121 258.469C10.6904 258.469 10.9004 258.547 11.042 258.704C11.1885 258.86 11.2617 259.055 11.2617 259.29C11.2617 259.514 11.1885 259.702 11.042 259.854C10.9004 260.005 10.6904 260.081 10.4121 260.081C10.1338 260.081 9.92383 260.005 9.78223 259.854C9.64551 259.702 9.57715 259.514 9.57715 259.29ZM13.9863 254.653L14.5283 249.336H19.9922V250.588H15.6782L15.356 253.496C15.8784 253.188 16.4717 253.035 17.1357 253.035C18.1074 253.035 18.8789 253.357 19.4502 254.001C20.0215 254.641 20.3071 255.508 20.3071 256.602C20.3071 257.7 20.0093 258.567 19.4136 259.202C18.8228 259.832 17.9951 260.146 16.9307 260.146C15.9883 260.146 15.2192 259.885 14.6235 259.363C14.0278 258.84 13.6885 258.118 13.6055 257.195H14.8872C14.9702 257.805 15.1875 258.267 15.5391 258.579C15.8906 258.887 16.3545 259.041 16.9307 259.041C17.5605 259.041 18.0537 258.826 18.4102 258.396C18.7715 257.966 18.9521 257.373 18.9521 256.616C18.9521 255.903 18.7568 255.332 18.3662 254.902C17.9805 254.468 17.4653 254.25 16.8208 254.25C16.23 254.25 15.7661 254.38 15.4292 254.639L15.0703 254.932L13.9863 254.653ZM12.4922 284.329V285.479H12.2432C11.1885 285.498 10.3486 285.811 9.72363 286.416C9.09863 287.021 8.7373 287.874 8.63965 288.972C9.20117 288.328 9.96777 288.005 10.9395 288.005C11.8672 288.005 12.6069 288.333 13.1587 288.987C13.7153 289.641 13.9937 290.486 13.9937 291.521C13.9937 292.62 13.6934 293.499 13.0928 294.158C12.4971 294.817 11.6963 295.146 10.6904 295.146C9.66992 295.146 8.84229 294.756 8.20752 293.975C7.57275 293.188 7.25537 292.178 7.25537 290.942V290.422C7.25537 288.459 7.67285 286.96 8.50781 285.925C9.34766 284.885 10.5952 284.353 12.2505 284.329H12.4922ZM10.7124 289.133C10.2485 289.133 9.82129 289.272 9.43066 289.551C9.04004 289.829 8.76904 290.178 8.61768 290.598V291.096C8.61768 291.975 8.81543 292.683 9.21094 293.22C9.60645 293.757 10.0996 294.026 10.6904 294.026C11.3008 294.026 11.7793 293.801 12.126 293.352C12.4775 292.903 12.6533 292.314 12.6533 291.587C12.6533 290.854 12.4751 290.264 12.1187 289.814C11.7671 289.36 11.2983 289.133 10.7124 289.133Z" transform="translate(174 29)" fill="black"/>
<path d="M6.02051 11.1509C6.12305 10.5698 5.8374 10.1255 5.16357 9.81787L3.75 9.25391C2.10938 8.52148 1.33057 7.51318 1.41357 6.229C1.44775 5.6333 1.64307 5.10596 1.99951 4.64697C2.35596 4.18799 2.85645 3.8291 3.50098 3.57031C4.14551 3.30664 4.84131 3.17969 5.58838 3.18945C6.61865 3.20898 7.45117 3.5166 8.08594 4.1123C8.7207 4.70313 9.0332 5.49658 9.02344 6.49268H6.88477C6.90918 6.00928 6.80176 5.6333 6.5625 5.36475C6.32812 5.09619 5.96191 4.95703 5.46387 4.94727C4.97559 4.9375 4.55078 5.0498 4.18945 5.28418C3.82812 5.51367 3.61328 5.83105 3.54492 6.23633C3.45215 6.76855 3.80859 7.19092 4.61426 7.50342L5.58105 7.86963L6.1377 8.12598C7.57812 8.83887 8.25195 9.83984 8.15918 11.1289C8.11523 11.7588 7.9126 12.3032 7.55127 12.7622C7.19482 13.2163 6.70654 13.5654 6.08643 13.8096C5.47119 14.0537 4.79248 14.1685 4.05029 14.1538C3.29346 14.1392 2.61963 13.9805 2.02881 13.6777C1.43799 13.375 0.98877 12.9478 0.681152 12.396C0.393066 11.8833 0.258789 11.2974 0.27832 10.6382L2.42432 10.6455C2.35596 11.8027 2.9248 12.3911 4.13086 12.4106C4.65332 12.4106 5.08301 12.2959 5.41992 12.0664C5.75684 11.8369 5.95703 11.5317 6.02051 11.1509ZM13.6304 14C13.5669 13.7998 13.54 13.5605 13.5498 13.2822C12.9541 13.8779 12.2803 14.166 11.5283 14.1465C10.835 14.1367 10.2588 13.9121 9.7998 13.4727C9.3457 13.0283 9.1333 12.4814 9.1626 11.832C9.19678 10.9678 9.55811 10.3062 10.2466 9.84717C10.9399 9.3833 11.8677 9.15137 13.0298 9.15137L13.9966 9.16602L14.0991 8.68994C14.1284 8.52881 14.1357 8.375 14.1211 8.22852C14.0967 7.99902 14.0088 7.8208 13.8574 7.69385C13.7109 7.56201 13.5156 7.49365 13.2715 7.48877C12.9492 7.479 12.6758 7.55957 12.4512 7.73047C12.2266 7.89648 12.0825 8.13818 12.019 8.45557L9.94629 8.46289C9.98047 7.70605 10.3271 7.09326 10.9863 6.62451C11.6504 6.15088 12.4683 5.91895 13.4399 5.92871C14.3384 5.94824 15.0415 6.2168 15.5493 6.73438C16.0571 7.24707 16.2695 7.90869 16.1865 8.71924L15.5786 12.5132L15.542 12.9819C15.5322 13.3286 15.5737 13.6216 15.6665 13.8608L15.6592 14H13.6304ZM12.041 12.5425C12.6367 12.562 13.1567 12.3032 13.6011 11.7661L13.8574 10.3965L13.1396 10.3892C12.3779 10.4087 11.8286 10.6406 11.4917 11.085C11.3696 11.2461 11.2939 11.4438 11.2646 11.6782C11.2256 11.9419 11.2793 12.1519 11.4258 12.3081C11.5771 12.4595 11.7822 12.5376 12.041 12.5425ZM20.2222 6.06787L20.0537 6.96875C20.6934 6.25586 21.4673 5.90918 22.3755 5.92871C22.8638 5.93848 23.269 6.05078 23.5913 6.26562C23.9136 6.48047 24.1309 6.771 24.2432 7.13721C24.9414 6.31201 25.7617 5.90918 26.7041 5.92871C27.4316 5.94336 27.9785 6.19238 28.3447 6.67578C28.7158 7.15918 28.8721 7.85742 28.8135 8.77051L28.7988 8.95361L27.9565 14H25.8838L26.7261 8.93896C26.7456 8.7583 26.7529 8.58984 26.748 8.43359C26.7139 7.9209 26.4209 7.65723 25.8691 7.64258C25.3027 7.64258 24.8169 7.94531 24.4116 8.55078L24.3896 8.71924L23.4668 14H21.4014L22.2437 8.95361C22.2632 8.77295 22.2705 8.60449 22.2656 8.44824C22.2314 7.93066 21.9409 7.66455 21.394 7.6499C20.8716 7.63525 20.4004 7.88184 19.9805 8.38965L18.9917 14H16.9263L18.2959 6.0752L20.2222 6.06787ZM37.207 10.0596C37.1045 10.8896 36.8872 11.627 36.5552 12.2715C36.2231 12.916 35.8105 13.3945 35.3174 13.707C34.8242 14.0195 34.2773 14.1685 33.6768 14.1538C32.9102 14.1343 32.3047 13.8486 31.8604 13.2969L31.1353 17.0469H29.0698L30.9668 6.0752L32.8711 6.06787L32.7319 6.86621C33.3032 6.22168 33.9771 5.90918 34.7534 5.92871C35.5298 5.94824 36.1328 6.23145 36.5625 6.77832C36.9922 7.32031 37.2217 8.05762 37.251 8.99023C37.2607 9.29297 37.2461 9.64941 37.207 10.0596ZM35.1562 9.90576L35.2002 9.20264C35.21 8.729 35.1221 8.35303 34.9365 8.07471C34.7559 7.79639 34.4897 7.65234 34.1382 7.64258C33.5376 7.62305 33.042 7.87695 32.6514 8.4043L32.0581 11.6709C32.2388 12.1641 32.627 12.4204 33.2227 12.4399C33.7207 12.4546 34.1357 12.2617 34.4678 11.8613C34.7998 11.4609 35.0293 10.8091 35.1562 9.90576ZM40.0415 14H37.9614L39.917 2.75H41.9897L40.0415 14ZM45.564 14.1465C44.8706 14.1416 44.2554 13.9731 43.7183 13.6411C43.186 13.3042 42.7881 12.8452 42.5244 12.2642C42.2607 11.6782 42.1582 11.0337 42.2168 10.3306L42.2388 10.0376C42.312 9.26611 42.5366 8.55811 42.9126 7.91357C43.2886 7.26904 43.772 6.77344 44.3628 6.42676C44.9536 6.0752 45.6079 5.90918 46.3257 5.92871C47.3462 5.94824 48.1177 6.32422 48.6401 7.05664C49.1675 7.78418 49.3677 8.70703 49.2407 9.8252L49.1235 10.7261H44.2676C44.248 11.2388 44.3726 11.6489 44.6411 11.9565C44.9097 12.2642 45.2759 12.4229 45.7397 12.4326C46.4917 12.4521 47.1509 12.1616 47.7173 11.561L48.6621 12.7329C48.3643 13.1821 47.9346 13.5337 47.373 13.7876C46.8115 14.0366 46.2085 14.1562 45.564 14.1465ZM46.2231 7.63525C45.8423 7.62549 45.5029 7.74512 45.2051 7.99414C44.9121 8.24316 44.6484 8.67529 44.4141 9.29053H47.2559L47.2998 9.1001C47.3291 8.90479 47.3315 8.71924 47.3071 8.54346C47.2583 8.26025 47.1387 8.04053 46.9482 7.88428C46.7578 7.72314 46.5161 7.64014 46.2231 7.63525Z" transform="translate(6 -2)" fill="black"/>
<line y1="-0.5" x2="62" y2="-0.5" transform="translate(0 20)" stroke="black"/>
<line y1="-0.5" x2="110" y2="-0.5" transform="translate(129 20)" stroke="black"/>
<path d="M4.82568 3.33594L6.13672 11.0483L10.1138 3.33594H12.9702L11.1172 14H8.96387L9.49121 10.9604L10.5312 6.21436L6.44434 14H4.97217L3.54395 5.94336L2.85547 11.1948L2.36475 14H0.21875L2.07178 3.33594H4.82568ZM16.6689 14.1465C15.9756 14.1416 15.3604 13.9731 14.8232 13.6411C14.291 13.3042 13.8931 12.8452 13.6294 12.2642C13.3657 11.6782 13.2632 11.0337 13.3218 10.3306L13.3438 10.0376C13.417 9.26611 13.6416 8.55811 14.0176 7.91357C14.3936 7.26904 14.877 6.77344 15.4678 6.42676C16.0586 6.0752 16.7129 5.90918 17.4307 5.92871C18.4512 5.94824 19.2227 6.32422 19.7451 7.05664C20.2725 7.78418 20.4727 8.70703 20.3457 9.8252L20.2285 10.7261H15.3726C15.353 11.2388 15.4775 11.6489 15.7461 11.9565C16.0146 12.2642 16.3809 12.4229 16.8447 12.4326C17.5967 12.4521 18.2559 12.1616 18.8223 11.561L19.7671 12.7329C19.4692 13.1821 19.0396 13.5337 18.478 13.7876C17.9165 14.0366 17.3135 14.1562 16.6689 14.1465ZM17.3281 7.63525C16.9473 7.62549 16.6079 7.74512 16.3101 7.99414C16.0171 8.24316 15.7534 8.67529 15.519 9.29053H18.3608L18.4048 9.1001C18.4341 8.90479 18.4365 8.71924 18.4121 8.54346C18.3633 8.26025 18.2437 8.04053 18.0532 7.88428C17.8628 7.72314 17.6211 7.64014 17.3281 7.63525ZM25.4287 14C25.3652 13.7998 25.3384 13.5605 25.3481 13.2822C24.7524 13.8779 24.0786 14.166 23.3267 14.1465C22.6333 14.1367 22.0571 13.9121 21.5981 13.4727C21.144 13.0283 20.9316 12.4814 20.9609 11.832C20.9951 10.9678 21.3564 10.3062 22.0449 9.84717C22.7383 9.3833 23.666 9.15137 24.8281 9.15137L25.7949 9.16602L25.8975 8.68994C25.9268 8.52881 25.9341 8.375 25.9194 8.22852C25.895 7.99902 25.8071 7.8208 25.6558 7.69385C25.5093 7.56201 25.314 7.49365 25.0698 7.48877C24.7476 7.479 24.4741 7.55957 24.2495 7.73047C24.0249 7.89648 23.8809 8.13818 23.8174 8.45557L21.7446 8.46289C21.7788 7.70605 22.1255 7.09326 22.7847 6.62451C23.4487 6.15088 24.2666 5.91895 25.2383 5.92871C26.1367 5.94824 26.8398 6.2168 27.3477 6.73438C27.8555 7.24707 28.0679 7.90869 27.9849 8.71924L27.377 12.5132L27.3403 12.9819C27.3306 13.3286 27.3721 13.6216 27.4648 13.8608L27.4575 14H25.4287ZM23.8394 12.5425C24.4351 12.562 24.9551 12.3032 25.3994 11.7661L25.6558 10.3965L24.938 10.3892C24.1763 10.4087 23.627 10.6406 23.29 11.085C23.168 11.2461 23.0923 11.4438 23.063 11.6782C23.0239 11.9419 23.0776 12.1519 23.2241 12.3081C23.3755 12.4595 23.5806 12.5376 23.8394 12.5425ZM31.9912 6.06787L31.8154 7.00537C32.4502 6.26807 33.2192 5.90918 34.1226 5.92871C34.8696 5.94336 35.4214 6.2168 35.7778 6.74902C36.1343 7.28125 36.2637 8.01855 36.166 8.96094L35.3311 14H33.2656L34.1152 8.93896C34.1396 8.74854 34.1445 8.5752 34.1299 8.41895C34.0664 7.9209 33.7539 7.66455 33.1924 7.6499C32.6504 7.63037 32.1646 7.88184 31.7349 8.4043L30.7461 14H28.6807L30.0576 6.0752L31.9912 6.06787Z" transform="translate(166 -2)" fill="black"/>
</svg>
