<svg width="1022" height="368" viewBox="0 0 1022 368" fill="none" xmlns="http://www.w3.org/2000/svg">
<rect width="511" height="184" transform="scale(2)" fill="white"/>
<path d="M513.316 128.707C513.72 129.097 514.353 129.097 514.731 128.707L520.883 122.346C521.26 121.956 521.239 121.323 520.835 120.933C520.432 120.543 519.799 120.543 519.421 120.933L513.953 126.587L508.108 120.933C507.704 120.543 507.071 120.543 506.693 120.933C506.316 121.323 506.337 121.956 506.74 122.346L513.316 128.707ZM511 68L513 128L515 128L513 68L511 68Z" fill="#828282"/>
<path d="M165.293 128.707C165.683 129.098 166.317 129.098 166.707 128.707L173.071 122.343C173.462 121.953 173.462 121.319 173.071 120.929C172.681 120.538 172.047 120.538 171.657 120.929L166 126.586L160.343 120.929C159.953 120.538 159.319 120.538 158.929 120.929C158.538 121.319 158.538 121.953 158.929 122.343L165.293 128.707ZM165 112V128H167V112H165Z" fill="#828282"/>
<path d="M466 68V82L166 112V128" stroke="#828282"/>
<path d="M339.293 128.707C339.683 129.098 340.317 129.098 340.707 128.707L347.071 122.343C347.462 121.953 347.462 121.319 347.071 120.929C346.681 120.538 346.047 120.538 345.657 120.929L340 126.586L334.343 120.929C333.953 120.538 333.319 120.538 332.929 120.929C332.538 121.319 332.538 121.953 332.929 122.343L339.293 128.707ZM339 112V128H341V112H339Z" fill="#828282"/>
<path d="M488 68V82L340 112V128" stroke="#828282"/>
<path d="M862.707 128.707C862.317 129.098 861.683 129.098 861.293 128.707L854.929 122.343C854.538 121.953 854.538 121.319 854.929 120.929C855.319 120.538 855.953 120.538 856.343 120.929L862 126.586L867.657 120.929C868.047 120.538 868.681 120.538 869.071 120.929C869.462 121.319 869.462 121.953 869.071 122.343L862.707 128.707ZM863 112V128H861V112H863Z" fill="#828282"/>
<path d="M570 68V82L862 112V128" stroke="#828282"/>
<path d="M688.707 128.707C688.317 129.098 687.683 129.098 687.293 128.707L680.929 122.343C680.538 121.953 680.538 121.319 680.929 120.929C681.319 120.538 681.953 120.538 682.343 120.929L688 126.586L693.657 120.929C694.047 120.538 694.681 120.538 695.071 120.929C695.462 121.319 695.462 121.953 695.071 122.343L688.707 128.707ZM689 112V128H687V112H689Z" fill="#828282"/>
<path d="M546 68V82L688 112V128" stroke="#828282"/>
<rect x="100" y="140" width="130" height="208" fill="#FFFAF5"/>
<path d="M121.77 198.789H116.285V214H114.047V198.789H108.574V196.938H121.77V198.789ZM126.129 202.855C127.09 201.676 128.34 201.086 129.879 201.086C132.559 201.086 133.91 202.598 133.934 205.621V214H131.766V205.609C131.758 204.695 131.547 204.02 131.133 203.582C130.727 203.145 130.09 202.926 129.223 202.926C128.52 202.926 127.902 203.113 127.371 203.488C126.84 203.863 126.426 204.355 126.129 204.965V214H123.961V196H126.129V202.855ZM142.441 214.234C140.723 214.234 139.324 213.672 138.246 212.547C137.168 211.414 136.629 209.902 136.629 208.012V207.613C136.629 206.355 136.867 205.234 137.344 204.25C137.828 203.258 138.5 202.484 139.359 201.93C140.227 201.367 141.164 201.086 142.172 201.086C143.82 201.086 145.102 201.629 146.016 202.715C146.93 203.801 147.387 205.355 147.387 207.379V208.281H138.797C138.828 209.531 139.191 210.543 139.887 211.316C140.59 212.082 141.48 212.465 142.559 212.465C143.324 212.465 143.973 212.309 144.504 211.996C145.035 211.684 145.5 211.27 145.898 210.754L147.223 211.785C146.16 213.418 144.566 214.234 142.441 214.234ZM142.172 202.867C141.297 202.867 140.562 203.188 139.969 203.828C139.375 204.461 139.008 205.352 138.867 206.5H145.219V206.336C145.156 205.234 144.859 204.383 144.328 203.781C143.797 203.172 143.078 202.867 142.172 202.867ZM114.727 240.465C115.5 240.465 116.176 240.23 116.754 239.762C117.332 239.293 117.652 238.707 117.715 238.004H119.766C119.727 238.73 119.477 239.422 119.016 240.078C118.555 240.734 117.938 241.258 117.164 241.648C116.398 242.039 115.586 242.234 114.727 242.234C113 242.234 111.625 241.66 110.602 240.512C109.586 239.355 109.078 237.777 109.078 235.777V235.414C109.078 234.18 109.305 233.082 109.758 232.121C110.211 231.16 110.859 230.414 111.703 229.883C112.555 229.352 113.559 229.086 114.715 229.086C116.137 229.086 117.316 229.512 118.254 230.363C119.199 231.215 119.703 232.32 119.766 233.68H117.715C117.652 232.859 117.34 232.188 116.777 231.664C116.223 231.133 115.535 230.867 114.715 230.867C113.613 230.867 112.758 231.266 112.148 232.062C111.547 232.852 111.246 233.996 111.246 235.496V235.906C111.246 237.367 111.547 238.492 112.148 239.281C112.75 240.07 113.609 240.465 114.727 240.465ZM124.371 230.855C125.332 229.676 126.582 229.086 128.121 229.086C130.801 229.086 132.152 230.598 132.176 233.621V242H130.008V233.609C130 232.695 129.789 232.02 129.375 231.582C128.969 231.145 128.332 230.926 127.465 230.926C126.762 230.926 126.145 231.113 125.613 231.488C125.082 231.863 124.668 232.355 124.371 232.965V242H122.203V224H124.371V230.855ZM143.25 242C143.125 241.75 143.023 241.305 142.945 240.664C141.938 241.711 140.734 242.234 139.336 242.234C138.086 242.234 137.059 241.883 136.254 241.18C135.457 240.469 135.059 239.57 135.059 238.484C135.059 237.164 135.559 236.141 136.559 235.414C137.566 234.68 138.98 234.312 140.801 234.312H142.91V233.316C142.91 232.559 142.684 231.957 142.23 231.512C141.777 231.059 141.109 230.832 140.227 230.832C139.453 230.832 138.805 231.027 138.281 231.418C137.758 231.809 137.496 232.281 137.496 232.836H135.316C135.316 232.203 135.539 231.594 135.984 231.008C136.438 230.414 137.047 229.945 137.812 229.602C138.586 229.258 139.434 229.086 140.355 229.086C141.816 229.086 142.961 229.453 143.789 230.188C144.617 230.914 145.047 231.918 145.078 233.199V239.035C145.078 240.199 145.227 241.125 145.523 241.812V242H143.25ZM139.652 240.348C140.332 240.348 140.977 240.172 141.586 239.82C142.195 239.469 142.637 239.012 142.91 238.449V235.848H141.211C138.555 235.848 137.227 236.625 137.227 238.18C137.227 238.859 137.453 239.391 137.906 239.773C138.359 240.156 138.941 240.348 139.652 240.348ZM154.605 231.266C154.277 231.211 153.922 231.184 153.539 231.184C152.117 231.184 151.152 231.789 150.645 233V242H148.477V229.32H150.586L150.621 230.785C151.332 229.652 152.34 229.086 153.645 229.086C154.066 229.086 154.387 229.141 154.605 229.25V231.266ZM163.969 242C163.844 241.75 163.742 241.305 163.664 240.664C162.656 241.711 161.453 242.234 160.055 242.234C158.805 242.234 157.777 241.883 156.973 241.18C156.176 240.469 155.777 239.57 155.777 238.484C155.777 237.164 156.277 236.141 157.277 235.414C158.285 234.68 159.699 234.312 161.52 234.312H163.629V233.316C163.629 232.559 163.402 231.957 162.949 231.512C162.496 231.059 161.828 230.832 160.945 230.832C160.172 230.832 159.523 231.027 159 231.418C158.477 231.809 158.215 232.281 158.215 232.836H156.035C156.035 232.203 156.258 231.594 156.703 231.008C157.156 230.414 157.766 229.945 158.531 229.602C159.305 229.258 160.152 229.086 161.074 229.086C162.535 229.086 163.68 229.453 164.508 230.188C165.336 230.914 165.766 231.918 165.797 233.199V239.035C165.797 240.199 165.945 241.125 166.242 241.812V242H163.969ZM160.371 240.348C161.051 240.348 161.695 240.172 162.305 239.82C162.914 239.469 163.355 239.012 163.629 238.449V235.848H161.93C159.273 235.848 157.945 236.625 157.945 238.18C157.945 238.859 158.172 239.391 158.625 239.773C159.078 240.156 159.66 240.348 160.371 240.348ZM174.281 240.465C175.055 240.465 175.73 240.23 176.309 239.762C176.887 239.293 177.207 238.707 177.27 238.004H179.32C179.281 238.73 179.031 239.422 178.57 240.078C178.109 240.734 177.492 241.258 176.719 241.648C175.953 242.039 175.141 242.234 174.281 242.234C172.555 242.234 171.18 241.66 170.156 240.512C169.141 239.355 168.633 237.777 168.633 235.777V235.414C168.633 234.18 168.859 233.082 169.312 232.121C169.766 231.16 170.414 230.414 171.258 229.883C172.109 229.352 173.113 229.086 174.27 229.086C175.691 229.086 176.871 229.512 177.809 230.363C178.754 231.215 179.258 232.32 179.32 233.68H177.27C177.207 232.859 176.895 232.188 176.332 231.664C175.777 231.133 175.09 230.867 174.27 230.867C173.168 230.867 172.312 231.266 171.703 232.062C171.102 232.852 170.801 233.996 170.801 235.496V235.906C170.801 237.367 171.102 238.492 171.703 239.281C172.305 240.07 173.164 240.465 174.281 240.465ZM184.699 226.25V229.32H187.066V230.996H184.699V238.859C184.699 239.367 184.805 239.75 185.016 240.008C185.227 240.258 185.586 240.383 186.094 240.383C186.344 240.383 186.688 240.336 187.125 240.242V242C186.555 242.156 186 242.234 185.461 242.234C184.492 242.234 183.762 241.941 183.27 241.355C182.777 240.77 182.531 239.938 182.531 238.859V230.996H180.223V229.32H182.531V226.25H184.699ZM194.871 242.234C193.152 242.234 191.754 241.672 190.676 240.547C189.598 239.414 189.059 237.902 189.059 236.012V235.613C189.059 234.355 189.297 233.234 189.773 232.25C190.258 231.258 190.93 230.484 191.789 229.93C192.656 229.367 193.594 229.086 194.602 229.086C196.25 229.086 197.531 229.629 198.445 230.715C199.359 231.801 199.816 233.355 199.816 235.379V236.281H191.227C191.258 237.531 191.621 238.543 192.316 239.316C193.02 240.082 193.91 240.465 194.988 240.465C195.754 240.465 196.402 240.309 196.934 239.996C197.465 239.684 197.93 239.27 198.328 238.754L199.652 239.785C198.59 241.418 196.996 242.234 194.871 242.234ZM194.602 230.867C193.727 230.867 192.992 231.188 192.398 231.828C191.805 232.461 191.438 233.352 191.297 234.5H197.648V234.336C197.586 233.234 197.289 232.383 196.758 231.781C196.227 231.172 195.508 230.867 194.602 230.867ZM208.465 231.266C208.137 231.211 207.781 231.184 207.398 231.184C205.977 231.184 205.012 231.789 204.504 233V242H202.336V229.32H204.445L204.48 230.785C205.191 229.652 206.199 229.086 207.504 229.086C207.926 229.086 208.246 229.141 208.465 229.25V231.266ZM109.559 263.074C109.559 261.309 109.793 259.613 110.262 257.988C110.738 256.363 111.445 254.887 112.383 253.559C113.32 252.23 114.293 251.293 115.301 250.746L115.746 252.176C114.605 253.051 113.668 254.387 112.934 256.184C112.207 257.98 111.809 259.992 111.738 262.219L111.727 263.215C111.727 266.23 112.277 268.848 113.379 271.066C114.043 272.395 114.832 273.434 115.746 274.184L115.301 275.508C114.262 274.93 113.27 273.961 112.324 272.602C110.48 269.945 109.559 266.77 109.559 263.074ZM123.105 270.234C121.387 270.234 119.988 269.672 118.91 268.547C117.832 267.414 117.293 265.902 117.293 264.012V263.613C117.293 262.355 117.531 261.234 118.008 260.25C118.492 259.258 119.164 258.484 120.023 257.93C120.891 257.367 121.828 257.086 122.836 257.086C124.484 257.086 125.766 257.629 126.68 258.715C127.594 259.801 128.051 261.355 128.051 263.379V264.281H119.461C119.492 265.531 119.855 266.543 120.551 267.316C121.254 268.082 122.145 268.465 123.223 268.465C123.988 268.465 124.637 268.309 125.168 267.996C125.699 267.684 126.164 267.27 126.562 266.754L127.887 267.785C126.824 269.418 125.23 270.234 123.105 270.234ZM122.836 258.867C121.961 258.867 121.227 259.188 120.633 259.828C120.039 260.461 119.672 261.352 119.531 262.5H125.883V262.336C125.82 261.234 125.523 260.383 124.992 259.781C124.461 259.172 123.742 258.867 122.836 258.867ZM137.953 266.637C137.953 266.051 137.73 265.598 137.285 265.277C136.848 264.949 136.078 264.668 134.977 264.434C133.883 264.199 133.012 263.918 132.363 263.59C131.723 263.262 131.246 262.871 130.934 262.418C130.629 261.965 130.477 261.426 130.477 260.801C130.477 259.762 130.914 258.883 131.789 258.164C132.672 257.445 133.797 257.086 135.164 257.086C136.602 257.086 137.766 257.457 138.656 258.199C139.555 258.941 140.004 259.891 140.004 261.047H137.824C137.824 260.453 137.57 259.941 137.062 259.512C136.562 259.082 135.93 258.867 135.164 258.867C134.375 258.867 133.758 259.039 133.312 259.383C132.867 259.727 132.645 260.176 132.645 260.73C132.645 261.254 132.852 261.648 133.266 261.914C133.68 262.18 134.426 262.434 135.504 262.676C136.59 262.918 137.469 263.207 138.141 263.543C138.812 263.879 139.309 264.285 139.629 264.762C139.957 265.23 140.121 265.805 140.121 266.484C140.121 267.617 139.668 268.527 138.762 269.215C137.855 269.895 136.68 270.234 135.234 270.234C134.219 270.234 133.32 270.055 132.539 269.695C131.758 269.336 131.145 268.836 130.699 268.195C130.262 267.547 130.043 266.848 130.043 266.098H132.211C132.25 266.824 132.539 267.402 133.078 267.832C133.625 268.254 134.344 268.465 135.234 268.465C136.055 268.465 136.711 268.301 137.203 267.973C137.703 267.637 137.953 267.191 137.953 266.637ZM148.031 268.465C148.805 268.465 149.48 268.23 150.059 267.762C150.637 267.293 150.957 266.707 151.02 266.004H153.07C153.031 266.73 152.781 267.422 152.32 268.078C151.859 268.734 151.242 269.258 150.469 269.648C149.703 270.039 148.891 270.234 148.031 270.234C146.305 270.234 144.93 269.66 143.906 268.512C142.891 267.355 142.383 265.777 142.383 263.777V263.414C142.383 262.18 142.609 261.082 143.062 260.121C143.516 259.16 144.164 258.414 145.008 257.883C145.859 257.352 146.863 257.086 148.02 257.086C149.441 257.086 150.621 257.512 151.559 258.363C152.504 259.215 153.008 260.32 153.07 261.68H151.02C150.957 260.859 150.645 260.188 150.082 259.664C149.527 259.133 148.84 258.867 148.02 258.867C146.918 258.867 146.062 259.266 145.453 260.062C144.852 260.852 144.551 261.996 144.551 263.496V263.906C144.551 265.367 144.852 266.492 145.453 267.281C146.055 268.07 146.914 268.465 148.031 268.465ZM163.336 270C163.211 269.75 163.109 269.305 163.031 268.664C162.023 269.711 160.82 270.234 159.422 270.234C158.172 270.234 157.145 269.883 156.34 269.18C155.543 268.469 155.145 267.57 155.145 266.484C155.145 265.164 155.645 264.141 156.645 263.414C157.652 262.68 159.066 262.312 160.887 262.312H162.996V261.316C162.996 260.559 162.77 259.957 162.316 259.512C161.863 259.059 161.195 258.832 160.312 258.832C159.539 258.832 158.891 259.027 158.367 259.418C157.844 259.809 157.582 260.281 157.582 260.836H155.402C155.402 260.203 155.625 259.594 156.07 259.008C156.523 258.414 157.133 257.945 157.898 257.602C158.672 257.258 159.52 257.086 160.441 257.086C161.902 257.086 163.047 257.453 163.875 258.188C164.703 258.914 165.133 259.918 165.164 261.199V267.035C165.164 268.199 165.312 269.125 165.609 269.812V270H163.336ZM159.738 268.348C160.418 268.348 161.062 268.172 161.672 267.82C162.281 267.469 162.723 267.012 162.996 266.449V263.848H161.297C158.641 263.848 157.312 264.625 157.312 266.18C157.312 266.859 157.539 267.391 157.992 267.773C158.445 268.156 159.027 268.348 159.738 268.348ZM179.273 263.801C179.273 265.73 178.832 267.285 177.949 268.465C177.066 269.645 175.871 270.234 174.363 270.234C172.824 270.234 171.613 269.746 170.73 268.77V274.875H168.562V257.32H170.543L170.648 258.727C171.531 257.633 172.758 257.086 174.328 257.086C175.852 257.086 177.055 257.66 177.938 258.809C178.828 259.957 179.273 261.555 179.273 263.602V263.801ZM177.105 263.555C177.105 262.125 176.801 260.996 176.191 260.168C175.582 259.34 174.746 258.926 173.684 258.926C172.371 258.926 171.387 259.508 170.73 260.672V266.73C171.379 267.887 172.371 268.465 173.707 268.465C174.746 268.465 175.57 268.055 176.18 267.234C176.797 266.406 177.105 265.18 177.105 263.555ZM187.301 270.234C185.582 270.234 184.184 269.672 183.105 268.547C182.027 267.414 181.488 265.902 181.488 264.012V263.613C181.488 262.355 181.727 261.234 182.203 260.25C182.688 259.258 183.359 258.484 184.219 257.93C185.086 257.367 186.023 257.086 187.031 257.086C188.68 257.086 189.961 257.629 190.875 258.715C191.789 259.801 192.246 261.355 192.246 263.379V264.281H183.656C183.688 265.531 184.051 266.543 184.746 267.316C185.449 268.082 186.34 268.465 187.418 268.465C188.184 268.465 188.832 268.309 189.363 267.996C189.895 267.684 190.359 267.27 190.758 266.754L192.082 267.785C191.02 269.418 189.426 270.234 187.301 270.234ZM187.031 258.867C186.156 258.867 185.422 259.188 184.828 259.828C184.234 260.461 183.867 261.352 183.727 262.5H190.078V262.336C190.016 261.234 189.719 260.383 189.188 259.781C188.656 259.172 187.938 258.867 187.031 258.867ZM194.238 263.555C194.238 261.609 194.699 260.047 195.621 258.867C196.543 257.68 197.75 257.086 199.242 257.086C200.727 257.086 201.902 257.594 202.77 258.609V252H204.938V270H202.945L202.84 268.641C201.973 269.703 200.766 270.234 199.219 270.234C197.75 270.234 196.551 269.633 195.621 268.43C194.699 267.227 194.238 265.656 194.238 263.719V263.555ZM196.406 263.801C196.406 265.238 196.703 266.363 197.297 267.176C197.891 267.988 198.711 268.395 199.758 268.395C201.133 268.395 202.137 267.777 202.77 266.543V260.719C202.121 259.523 201.125 258.926 199.781 258.926C198.719 258.926 197.891 259.336 197.297 260.156C196.703 260.977 196.406 262.191 196.406 263.801ZM213.316 263.191C213.316 264.934 213.086 266.605 212.625 268.207C212.172 269.801 211.473 271.273 210.527 272.625C209.59 273.977 208.605 274.938 207.574 275.508L207.117 274.184C208.32 273.262 209.285 271.832 210.012 269.895C210.746 267.949 211.121 265.793 211.137 263.426V263.051C211.137 261.41 210.965 259.887 210.621 258.48C210.277 257.066 209.797 255.801 209.18 254.684C208.57 253.566 207.883 252.695 207.117 252.07L207.574 250.746C208.605 251.316 209.586 252.27 210.516 253.605C211.453 254.941 212.152 256.414 212.613 258.023C213.082 259.633 213.316 261.355 213.316 263.191Z" fill="black"/>
<path d="M159.331 197.008H166.195V198.52H161.467V216.136H166.195V217.648H159.331V197.008Z" fill="#A541F8"/>
<path d="M151.638 159.723H154.59L162.486 180.603H159.534L151.638 159.723ZM169.077 159.771H176.157V161.643H171.765V178.539H176.157V180.411H169.077V159.771Z" fill="#A541F8"/>
<rect x="796" y="140" width="130" height="208" fill="#FFFAF5"/>
<path d="M817.77 198.789H812.285V214H810.047V198.789H804.574V196.938H817.77V198.789ZM822.129 202.855C823.09 201.676 824.34 201.086 825.879 201.086C828.559 201.086 829.91 202.598 829.934 205.621V214H827.766V205.609C827.758 204.695 827.547 204.02 827.133 203.582C826.727 203.145 826.09 202.926 825.223 202.926C824.52 202.926 823.902 203.113 823.371 203.488C822.84 203.863 822.426 204.355 822.129 204.965V214H819.961V196H822.129V202.855ZM838.441 214.234C836.723 214.234 835.324 213.672 834.246 212.547C833.168 211.414 832.629 209.902 832.629 208.012V207.613C832.629 206.355 832.867 205.234 833.344 204.25C833.828 203.258 834.5 202.484 835.359 201.93C836.227 201.367 837.164 201.086 838.172 201.086C839.82 201.086 841.102 201.629 842.016 202.715C842.93 203.801 843.387 205.355 843.387 207.379V208.281H834.797C834.828 209.531 835.191 210.543 835.887 211.316C836.59 212.082 837.48 212.465 838.559 212.465C839.324 212.465 839.973 212.309 840.504 211.996C841.035 211.684 841.5 211.27 841.898 210.754L843.223 211.785C842.16 213.418 840.566 214.234 838.441 214.234ZM838.172 202.867C837.297 202.867 836.562 203.188 835.969 203.828C835.375 204.461 835.008 205.352 834.867 206.5H841.219V206.336C841.156 205.234 840.859 204.383 840.328 203.781C839.797 203.172 839.078 202.867 838.172 202.867ZM810.727 240.465C811.5 240.465 812.176 240.23 812.754 239.762C813.332 239.293 813.652 238.707 813.715 238.004H815.766C815.727 238.73 815.477 239.422 815.016 240.078C814.555 240.734 813.938 241.258 813.164 241.648C812.398 242.039 811.586 242.234 810.727 242.234C809 242.234 807.625 241.66 806.602 240.512C805.586 239.355 805.078 237.777 805.078 235.777V235.414C805.078 234.18 805.305 233.082 805.758 232.121C806.211 231.16 806.859 230.414 807.703 229.883C808.555 229.352 809.559 229.086 810.715 229.086C812.137 229.086 813.316 229.512 814.254 230.363C815.199 231.215 815.703 232.32 815.766 233.68H813.715C813.652 232.859 813.34 232.188 812.777 231.664C812.223 231.133 811.535 230.867 810.715 230.867C809.613 230.867 808.758 231.266 808.148 232.062C807.547 232.852 807.246 233.996 807.246 235.496V235.906C807.246 237.367 807.547 238.492 808.148 239.281C808.75 240.07 809.609 240.465 810.727 240.465ZM820.371 230.855C821.332 229.676 822.582 229.086 824.121 229.086C826.801 229.086 828.152 230.598 828.176 233.621V242H826.008V233.609C826 232.695 825.789 232.02 825.375 231.582C824.969 231.145 824.332 230.926 823.465 230.926C822.762 230.926 822.145 231.113 821.613 231.488C821.082 231.863 820.668 232.355 820.371 232.965V242H818.203V224H820.371V230.855ZM839.25 242C839.125 241.75 839.023 241.305 838.945 240.664C837.938 241.711 836.734 242.234 835.336 242.234C834.086 242.234 833.059 241.883 832.254 241.18C831.457 240.469 831.059 239.57 831.059 238.484C831.059 237.164 831.559 236.141 832.559 235.414C833.566 234.68 834.98 234.312 836.801 234.312H838.91V233.316C838.91 232.559 838.684 231.957 838.23 231.512C837.777 231.059 837.109 230.832 836.227 230.832C835.453 230.832 834.805 231.027 834.281 231.418C833.758 231.809 833.496 232.281 833.496 232.836H831.316C831.316 232.203 831.539 231.594 831.984 231.008C832.438 230.414 833.047 229.945 833.812 229.602C834.586 229.258 835.434 229.086 836.355 229.086C837.816 229.086 838.961 229.453 839.789 230.188C840.617 230.914 841.047 231.918 841.078 233.199V239.035C841.078 240.199 841.227 241.125 841.523 241.812V242H839.25ZM835.652 240.348C836.332 240.348 836.977 240.172 837.586 239.82C838.195 239.469 838.637 239.012 838.91 238.449V235.848H837.211C834.555 235.848 833.227 236.625 833.227 238.18C833.227 238.859 833.453 239.391 833.906 239.773C834.359 240.156 834.941 240.348 835.652 240.348ZM850.605 231.266C850.277 231.211 849.922 231.184 849.539 231.184C848.117 231.184 847.152 231.789 846.645 233V242H844.477V229.32H846.586L846.621 230.785C847.332 229.652 848.34 229.086 849.645 229.086C850.066 229.086 850.387 229.141 850.605 229.25V231.266ZM859.969 242C859.844 241.75 859.742 241.305 859.664 240.664C858.656 241.711 857.453 242.234 856.055 242.234C854.805 242.234 853.777 241.883 852.973 241.18C852.176 240.469 851.777 239.57 851.777 238.484C851.777 237.164 852.277 236.141 853.277 235.414C854.285 234.68 855.699 234.312 857.52 234.312H859.629V233.316C859.629 232.559 859.402 231.957 858.949 231.512C858.496 231.059 857.828 230.832 856.945 230.832C856.172 230.832 855.523 231.027 855 231.418C854.477 231.809 854.215 232.281 854.215 232.836H852.035C852.035 232.203 852.258 231.594 852.703 231.008C853.156 230.414 853.766 229.945 854.531 229.602C855.305 229.258 856.152 229.086 857.074 229.086C858.535 229.086 859.68 229.453 860.508 230.188C861.336 230.914 861.766 231.918 861.797 233.199V239.035C861.797 240.199 861.945 241.125 862.242 241.812V242H859.969ZM856.371 240.348C857.051 240.348 857.695 240.172 858.305 239.82C858.914 239.469 859.355 239.012 859.629 238.449V235.848H857.93C855.273 235.848 853.945 236.625 853.945 238.18C853.945 238.859 854.172 239.391 854.625 239.773C855.078 240.156 855.66 240.348 856.371 240.348ZM870.281 240.465C871.055 240.465 871.73 240.23 872.309 239.762C872.887 239.293 873.207 238.707 873.27 238.004H875.32C875.281 238.73 875.031 239.422 874.57 240.078C874.109 240.734 873.492 241.258 872.719 241.648C871.953 242.039 871.141 242.234 870.281 242.234C868.555 242.234 867.18 241.66 866.156 240.512C865.141 239.355 864.633 237.777 864.633 235.777V235.414C864.633 234.18 864.859 233.082 865.312 232.121C865.766 231.16 866.414 230.414 867.258 229.883C868.109 229.352 869.113 229.086 870.27 229.086C871.691 229.086 872.871 229.512 873.809 230.363C874.754 231.215 875.258 232.32 875.32 233.68H873.27C873.207 232.859 872.895 232.188 872.332 231.664C871.777 231.133 871.09 230.867 870.27 230.867C869.168 230.867 868.312 231.266 867.703 232.062C867.102 232.852 866.801 233.996 866.801 235.496V235.906C866.801 237.367 867.102 238.492 867.703 239.281C868.305 240.07 869.164 240.465 870.281 240.465ZM880.699 226.25V229.32H883.066V230.996H880.699V238.859C880.699 239.367 880.805 239.75 881.016 240.008C881.227 240.258 881.586 240.383 882.094 240.383C882.344 240.383 882.688 240.336 883.125 240.242V242C882.555 242.156 882 242.234 881.461 242.234C880.492 242.234 879.762 241.941 879.27 241.355C878.777 240.77 878.531 239.938 878.531 238.859V230.996H876.223V229.32H878.531V226.25H880.699ZM890.871 242.234C889.152 242.234 887.754 241.672 886.676 240.547C885.598 239.414 885.059 237.902 885.059 236.012V235.613C885.059 234.355 885.297 233.234 885.773 232.25C886.258 231.258 886.93 230.484 887.789 229.93C888.656 229.367 889.594 229.086 890.602 229.086C892.25 229.086 893.531 229.629 894.445 230.715C895.359 231.801 895.816 233.355 895.816 235.379V236.281H887.227C887.258 237.531 887.621 238.543 888.316 239.316C889.02 240.082 889.91 240.465 890.988 240.465C891.754 240.465 892.402 240.309 892.934 239.996C893.465 239.684 893.93 239.27 894.328 238.754L895.652 239.785C894.59 241.418 892.996 242.234 890.871 242.234ZM890.602 230.867C889.727 230.867 888.992 231.188 888.398 231.828C887.805 232.461 887.438 233.352 887.297 234.5H893.648V234.336C893.586 233.234 893.289 232.383 892.758 231.781C892.227 231.172 891.508 230.867 890.602 230.867ZM904.465 231.266C904.137 231.211 903.781 231.184 903.398 231.184C901.977 231.184 901.012 231.789 900.504 233V242H898.336V229.32H900.445L900.48 230.785C901.191 229.652 902.199 229.086 903.504 229.086C903.926 229.086 904.246 229.141 904.465 229.25V231.266ZM805.559 263.074C805.559 261.309 805.793 259.613 806.262 257.988C806.738 256.363 807.445 254.887 808.383 253.559C809.32 252.23 810.293 251.293 811.301 250.746L811.746 252.176C810.605 253.051 809.668 254.387 808.934 256.184C808.207 257.98 807.809 259.992 807.738 262.219L807.727 263.215C807.727 266.23 808.277 268.848 809.379 271.066C810.043 272.395 810.832 273.434 811.746 274.184L811.301 275.508C810.262 274.93 809.27 273.961 808.324 272.602C806.48 269.945 805.559 266.77 805.559 263.074ZM819.105 270.234C817.387 270.234 815.988 269.672 814.91 268.547C813.832 267.414 813.293 265.902 813.293 264.012V263.613C813.293 262.355 813.531 261.234 814.008 260.25C814.492 259.258 815.164 258.484 816.023 257.93C816.891 257.367 817.828 257.086 818.836 257.086C820.484 257.086 821.766 257.629 822.68 258.715C823.594 259.801 824.051 261.355 824.051 263.379V264.281H815.461C815.492 265.531 815.855 266.543 816.551 267.316C817.254 268.082 818.145 268.465 819.223 268.465C819.988 268.465 820.637 268.309 821.168 267.996C821.699 267.684 822.164 267.27 822.562 266.754L823.887 267.785C822.824 269.418 821.23 270.234 819.105 270.234ZM818.836 258.867C817.961 258.867 817.227 259.188 816.633 259.828C816.039 260.461 815.672 261.352 815.531 262.5H821.883V262.336C821.82 261.234 821.523 260.383 820.992 259.781C820.461 259.172 819.742 258.867 818.836 258.867ZM833.953 266.637C833.953 266.051 833.73 265.598 833.285 265.277C832.848 264.949 832.078 264.668 830.977 264.434C829.883 264.199 829.012 263.918 828.363 263.59C827.723 263.262 827.246 262.871 826.934 262.418C826.629 261.965 826.477 261.426 826.477 260.801C826.477 259.762 826.914 258.883 827.789 258.164C828.672 257.445 829.797 257.086 831.164 257.086C832.602 257.086 833.766 257.457 834.656 258.199C835.555 258.941 836.004 259.891 836.004 261.047H833.824C833.824 260.453 833.57 259.941 833.062 259.512C832.562 259.082 831.93 258.867 831.164 258.867C830.375 258.867 829.758 259.039 829.312 259.383C828.867 259.727 828.645 260.176 828.645 260.73C828.645 261.254 828.852 261.648 829.266 261.914C829.68 262.18 830.426 262.434 831.504 262.676C832.59 262.918 833.469 263.207 834.141 263.543C834.812 263.879 835.309 264.285 835.629 264.762C835.957 265.23 836.121 265.805 836.121 266.484C836.121 267.617 835.668 268.527 834.762 269.215C833.855 269.895 832.68 270.234 831.234 270.234C830.219 270.234 829.32 270.055 828.539 269.695C827.758 269.336 827.145 268.836 826.699 268.195C826.262 267.547 826.043 266.848 826.043 266.098H828.211C828.25 266.824 828.539 267.402 829.078 267.832C829.625 268.254 830.344 268.465 831.234 268.465C832.055 268.465 832.711 268.301 833.203 267.973C833.703 267.637 833.953 267.191 833.953 266.637ZM844.031 268.465C844.805 268.465 845.48 268.23 846.059 267.762C846.637 267.293 846.957 266.707 847.02 266.004H849.07C849.031 266.73 848.781 267.422 848.32 268.078C847.859 268.734 847.242 269.258 846.469 269.648C845.703 270.039 844.891 270.234 844.031 270.234C842.305 270.234 840.93 269.66 839.906 268.512C838.891 267.355 838.383 265.777 838.383 263.777V263.414C838.383 262.18 838.609 261.082 839.062 260.121C839.516 259.16 840.164 258.414 841.008 257.883C841.859 257.352 842.863 257.086 844.02 257.086C845.441 257.086 846.621 257.512 847.559 258.363C848.504 259.215 849.008 260.32 849.07 261.68H847.02C846.957 260.859 846.645 260.188 846.082 259.664C845.527 259.133 844.84 258.867 844.02 258.867C842.918 258.867 842.062 259.266 841.453 260.062C840.852 260.852 840.551 261.996 840.551 263.496V263.906C840.551 265.367 840.852 266.492 841.453 267.281C842.055 268.07 842.914 268.465 844.031 268.465ZM859.336 270C859.211 269.75 859.109 269.305 859.031 268.664C858.023 269.711 856.82 270.234 855.422 270.234C854.172 270.234 853.145 269.883 852.34 269.18C851.543 268.469 851.145 267.57 851.145 266.484C851.145 265.164 851.645 264.141 852.645 263.414C853.652 262.68 855.066 262.312 856.887 262.312H858.996V261.316C858.996 260.559 858.77 259.957 858.316 259.512C857.863 259.059 857.195 258.832 856.312 258.832C855.539 258.832 854.891 259.027 854.367 259.418C853.844 259.809 853.582 260.281 853.582 260.836H851.402C851.402 260.203 851.625 259.594 852.07 259.008C852.523 258.414 853.133 257.945 853.898 257.602C854.672 257.258 855.52 257.086 856.441 257.086C857.902 257.086 859.047 257.453 859.875 258.188C860.703 258.914 861.133 259.918 861.164 261.199V267.035C861.164 268.199 861.312 269.125 861.609 269.812V270H859.336ZM855.738 268.348C856.418 268.348 857.062 268.172 857.672 267.82C858.281 267.469 858.723 267.012 858.996 266.449V263.848H857.297C854.641 263.848 853.312 264.625 853.312 266.18C853.312 266.859 853.539 267.391 853.992 267.773C854.445 268.156 855.027 268.348 855.738 268.348ZM875.273 263.801C875.273 265.73 874.832 267.285 873.949 268.465C873.066 269.645 871.871 270.234 870.363 270.234C868.824 270.234 867.613 269.746 866.73 268.77V274.875H864.562V257.32H866.543L866.648 258.727C867.531 257.633 868.758 257.086 870.328 257.086C871.852 257.086 873.055 257.66 873.938 258.809C874.828 259.957 875.273 261.555 875.273 263.602V263.801ZM873.105 263.555C873.105 262.125 872.801 260.996 872.191 260.168C871.582 259.34 870.746 258.926 869.684 258.926C868.371 258.926 867.387 259.508 866.73 260.672V266.73C867.379 267.887 868.371 268.465 869.707 268.465C870.746 268.465 871.57 268.055 872.18 267.234C872.797 266.406 873.105 265.18 873.105 263.555ZM883.301 270.234C881.582 270.234 880.184 269.672 879.105 268.547C878.027 267.414 877.488 265.902 877.488 264.012V263.613C877.488 262.355 877.727 261.234 878.203 260.25C878.688 259.258 879.359 258.484 880.219 257.93C881.086 257.367 882.023 257.086 883.031 257.086C884.68 257.086 885.961 257.629 886.875 258.715C887.789 259.801 888.246 261.355 888.246 263.379V264.281H879.656C879.688 265.531 880.051 266.543 880.746 267.316C881.449 268.082 882.34 268.465 883.418 268.465C884.184 268.465 884.832 268.309 885.363 267.996C885.895 267.684 886.359 267.27 886.758 266.754L888.082 267.785C887.02 269.418 885.426 270.234 883.301 270.234ZM883.031 258.867C882.156 258.867 881.422 259.188 880.828 259.828C880.234 260.461 879.867 261.352 879.727 262.5H886.078V262.336C886.016 261.234 885.719 260.383 885.188 259.781C884.656 259.172 883.938 258.867 883.031 258.867ZM890.238 263.555C890.238 261.609 890.699 260.047 891.621 258.867C892.543 257.68 893.75 257.086 895.242 257.086C896.727 257.086 897.902 257.594 898.77 258.609V252H900.938V270H898.945L898.84 268.641C897.973 269.703 896.766 270.234 895.219 270.234C893.75 270.234 892.551 269.633 891.621 268.43C890.699 267.227 890.238 265.656 890.238 263.719V263.555ZM892.406 263.801C892.406 265.238 892.703 266.363 893.297 267.176C893.891 267.988 894.711 268.395 895.758 268.395C897.133 268.395 898.137 267.777 898.77 266.543V260.719C898.121 259.523 897.125 258.926 895.781 258.926C894.719 258.926 893.891 259.336 893.297 260.156C892.703 260.977 892.406 262.191 892.406 263.801ZM909.316 263.191C909.316 264.934 909.086 266.605 908.625 268.207C908.172 269.801 907.473 271.273 906.527 272.625C905.59 273.977 904.605 274.938 903.574 275.508L903.117 274.184C904.32 273.262 905.285 271.832 906.012 269.895C906.746 267.949 907.121 265.793 907.137 263.426V263.051C907.137 261.41 906.965 259.887 906.621 258.48C906.277 257.066 905.797 255.801 905.18 254.684C904.57 253.566 903.883 252.695 903.117 252.07L903.574 250.746C904.605 251.316 905.586 252.27 906.516 253.605C907.453 254.941 908.152 256.414 908.613 258.023C909.082 259.633 909.316 261.355 909.316 263.191Z" fill="black"/>
<path d="M857.371 216.136V198.52H852.667V197.008H859.531V217.648H852.667V216.136H857.371Z" fill="#A541F8"/>
<path d="M847.638 159.723H850.59L858.486 180.603H855.534L847.638 159.723ZM867.141 178.539V161.643H862.773V159.771H869.853V180.411H862.773V178.539H867.141Z" fill="#A541F8"/>
<rect x="448" y="140" width="130" height="208" fill="#FFFAF5"/>
<path d="M471.105 204.02C471.105 205.691 470.824 207.152 470.262 208.402C469.699 209.645 468.902 210.594 467.871 211.25C466.84 211.906 465.637 212.234 464.262 212.234C462.918 212.234 461.727 211.906 460.688 211.25C459.648 210.586 458.84 209.645 458.262 208.426C457.691 207.199 457.398 205.781 457.383 204.172V202.941C457.383 201.301 457.668 199.852 458.238 198.594C458.809 197.336 459.613 196.375 460.652 195.711C461.699 195.039 462.895 194.703 464.238 194.703C465.605 194.703 466.809 195.035 467.848 195.699C468.895 196.355 469.699 197.312 470.262 198.57C470.824 199.82 471.105 201.277 471.105 202.941V204.02ZM468.867 202.918C468.867 200.895 468.461 199.344 467.648 198.266C466.836 197.18 465.699 196.637 464.238 196.637C462.816 196.637 461.695 197.18 460.875 198.266C460.062 199.344 459.645 200.844 459.621 202.766V204.02C459.621 205.98 460.031 207.523 460.852 208.648C461.68 209.766 462.816 210.324 464.262 210.324C465.715 210.324 466.84 209.797 467.637 208.742C468.434 207.68 468.844 206.16 468.867 204.184V202.918ZM476.191 199.32L476.262 200.914C477.23 199.695 478.496 199.086 480.059 199.086C482.738 199.086 484.09 200.598 484.113 203.621V212H481.945V203.609C481.938 202.695 481.727 202.02 481.312 201.582C480.906 201.145 480.27 200.926 479.402 200.926C478.699 200.926 478.082 201.113 477.551 201.488C477.02 201.863 476.605 202.355 476.309 202.965V212H474.141V199.32H476.191ZM492.645 212.234C490.926 212.234 489.527 211.672 488.449 210.547C487.371 209.414 486.832 207.902 486.832 206.012V205.613C486.832 204.355 487.07 203.234 487.547 202.25C488.031 201.258 488.703 200.484 489.562 199.93C490.43 199.367 491.367 199.086 492.375 199.086C494.023 199.086 495.305 199.629 496.219 200.715C497.133 201.801 497.59 203.355 497.59 205.379V206.281H489C489.031 207.531 489.395 208.543 490.09 209.316C490.793 210.082 491.684 210.465 492.762 210.465C493.527 210.465 494.176 210.309 494.707 209.996C495.238 209.684 495.703 209.27 496.102 208.754L497.426 209.785C496.363 211.418 494.77 212.234 492.645 212.234ZM492.375 200.867C491.5 200.867 490.766 201.188 490.172 201.828C489.578 202.461 489.211 203.352 489.07 204.5H495.422V204.336C495.359 203.234 495.062 202.383 494.531 201.781C494 201.172 493.281 200.867 492.375 200.867ZM505.488 205.543C505.488 204.301 505.73 203.184 506.215 202.191C506.707 201.199 507.387 200.434 508.254 199.895C509.129 199.355 510.125 199.086 511.242 199.086C512.969 199.086 514.363 199.684 515.426 200.879C516.496 202.074 517.031 203.664 517.031 205.648V205.801C517.031 207.035 516.793 208.145 516.316 209.129C515.848 210.105 515.172 210.867 514.289 211.414C513.414 211.961 512.406 212.234 511.266 212.234C509.547 212.234 508.152 211.637 507.082 210.441C506.02 209.246 505.488 207.664 505.488 205.695V205.543ZM507.668 205.801C507.668 207.207 507.992 208.336 508.641 209.188C509.297 210.039 510.172 210.465 511.266 210.465C512.367 210.465 513.242 210.035 513.891 209.176C514.539 208.309 514.863 207.098 514.863 205.543C514.863 204.152 514.531 203.027 513.867 202.168C513.211 201.301 512.336 200.867 511.242 200.867C510.172 200.867 509.309 201.293 508.652 202.145C507.996 202.996 507.668 204.215 507.668 205.801ZM525.879 201.266C525.551 201.211 525.195 201.184 524.812 201.184C523.391 201.184 522.426 201.789 521.918 203V212H519.75V199.32H521.859L521.895 200.785C522.605 199.652 523.613 199.086 524.918 199.086C525.34 199.086 525.66 199.141 525.879 199.25V201.266ZM459.68 227.32L459.738 228.727C460.668 227.633 461.922 227.086 463.5 227.086C465.273 227.086 466.48 227.766 467.121 229.125C467.543 228.516 468.09 228.023 468.762 227.648C469.441 227.273 470.242 227.086 471.164 227.086C473.945 227.086 475.359 228.559 475.406 231.504V240H473.238V231.633C473.238 230.727 473.031 230.051 472.617 229.605C472.203 229.152 471.508 228.926 470.531 228.926C469.727 228.926 469.059 229.168 468.527 229.652C467.996 230.129 467.688 230.773 467.602 231.586V240H465.422V231.691C465.422 229.848 464.52 228.926 462.715 228.926C461.293 228.926 460.32 229.531 459.797 230.742V240H457.629V227.32H459.68ZM478.113 233.543C478.113 232.301 478.355 231.184 478.84 230.191C479.332 229.199 480.012 228.434 480.879 227.895C481.754 227.355 482.75 227.086 483.867 227.086C485.594 227.086 486.988 227.684 488.051 228.879C489.121 230.074 489.656 231.664 489.656 233.648V233.801C489.656 235.035 489.418 236.145 488.941 237.129C488.473 238.105 487.797 238.867 486.914 239.414C486.039 239.961 485.031 240.234 483.891 240.234C482.172 240.234 480.777 239.637 479.707 238.441C478.645 237.246 478.113 235.664 478.113 233.695V233.543ZM480.293 233.801C480.293 235.207 480.617 236.336 481.266 237.188C481.922 238.039 482.797 238.465 483.891 238.465C484.992 238.465 485.867 238.035 486.516 237.176C487.164 236.309 487.488 235.098 487.488 233.543C487.488 232.152 487.156 231.027 486.492 230.168C485.836 229.301 484.961 228.867 483.867 228.867C482.797 228.867 481.934 229.293 481.277 230.145C480.621 230.996 480.293 232.215 480.293 233.801ZM498.504 229.266C498.176 229.211 497.82 229.184 497.438 229.184C496.016 229.184 495.051 229.789 494.543 231V240H492.375V227.32H494.484L494.52 228.785C495.23 227.652 496.238 227.086 497.543 227.086C497.965 227.086 498.285 227.141 498.504 227.25V229.266ZM505.535 240.234C503.816 240.234 502.418 239.672 501.34 238.547C500.262 237.414 499.723 235.902 499.723 234.012V233.613C499.723 232.355 499.961 231.234 500.438 230.25C500.922 229.258 501.594 228.484 502.453 227.93C503.32 227.367 504.258 227.086 505.266 227.086C506.914 227.086 508.195 227.629 509.109 228.715C510.023 229.801 510.48 231.355 510.48 233.379V234.281H501.891C501.922 235.531 502.285 236.543 502.98 237.316C503.684 238.082 504.574 238.465 505.652 238.465C506.418 238.465 507.066 238.309 507.598 237.996C508.129 237.684 508.594 237.27 508.992 236.754L510.316 237.785C509.254 239.418 507.66 240.234 505.535 240.234ZM505.266 228.867C504.391 228.867 503.656 229.188 503.062 229.828C502.469 230.461 502.102 231.352 501.961 232.5H508.312V232.336C508.25 231.234 507.953 230.383 507.422 229.781C506.891 229.172 506.172 228.867 505.266 228.867ZM468.867 265.012L471.305 255.32H473.473L469.781 268H468.023L464.941 258.391L461.941 268H460.184L456.504 255.32H458.66L461.156 264.812L464.109 255.32H465.855L468.867 265.012ZM475.113 261.543C475.113 260.301 475.355 259.184 475.84 258.191C476.332 257.199 477.012 256.434 477.879 255.895C478.754 255.355 479.75 255.086 480.867 255.086C482.594 255.086 483.988 255.684 485.051 256.879C486.121 258.074 486.656 259.664 486.656 261.648V261.801C486.656 263.035 486.418 264.145 485.941 265.129C485.473 266.105 484.797 266.867 483.914 267.414C483.039 267.961 482.031 268.234 480.891 268.234C479.172 268.234 477.777 267.637 476.707 266.441C475.645 265.246 475.113 263.664 475.113 261.695V261.543ZM477.293 261.801C477.293 263.207 477.617 264.336 478.266 265.188C478.922 266.039 479.797 266.465 480.891 266.465C481.992 266.465 482.867 266.035 483.516 265.176C484.164 264.309 484.488 263.098 484.488 261.543C484.488 260.152 484.156 259.027 483.492 258.168C482.836 257.301 481.961 256.867 480.867 256.867C479.797 256.867 478.934 257.293 478.277 258.145C477.621 258.996 477.293 260.215 477.293 261.801ZM495.504 257.266C495.176 257.211 494.82 257.184 494.438 257.184C493.016 257.184 492.051 257.789 491.543 259V268H489.375V255.32H491.484L491.52 256.785C492.23 255.652 493.238 255.086 494.543 255.086C494.965 255.086 495.285 255.141 495.504 255.25V257.266ZM496.746 261.555C496.746 259.609 497.207 258.047 498.129 256.867C499.051 255.68 500.258 255.086 501.75 255.086C503.234 255.086 504.41 255.594 505.277 256.609V250H507.445V268H505.453L505.348 266.641C504.48 267.703 503.273 268.234 501.727 268.234C500.258 268.234 499.059 267.633 498.129 266.43C497.207 265.227 496.746 263.656 496.746 261.719V261.555ZM498.914 261.801C498.914 263.238 499.211 264.363 499.805 265.176C500.398 265.988 501.219 266.395 502.266 266.395C503.641 266.395 504.645 265.777 505.277 264.543V258.719C504.629 257.523 503.633 256.926 502.289 256.926C501.227 256.926 500.398 257.336 499.805 258.156C499.211 258.977 498.914 260.191 498.914 261.801ZM462.727 294.465C463.5 294.465 464.176 294.23 464.754 293.762C465.332 293.293 465.652 292.707 465.715 292.004H467.766C467.727 292.73 467.477 293.422 467.016 294.078C466.555 294.734 465.938 295.258 465.164 295.648C464.398 296.039 463.586 296.234 462.727 296.234C461 296.234 459.625 295.66 458.602 294.512C457.586 293.355 457.078 291.777 457.078 289.777V289.414C457.078 288.18 457.305 287.082 457.758 286.121C458.211 285.16 458.859 284.414 459.703 283.883C460.555 283.352 461.559 283.086 462.715 283.086C464.137 283.086 465.316 283.512 466.254 284.363C467.199 285.215 467.703 286.32 467.766 287.68H465.715C465.652 286.859 465.34 286.188 464.777 285.664C464.223 285.133 463.535 284.867 462.715 284.867C461.613 284.867 460.758 285.266 460.148 286.062C459.547 286.852 459.246 287.996 459.246 289.496V289.906C459.246 291.367 459.547 292.492 460.148 293.281C460.75 294.07 461.609 294.465 462.727 294.465ZM472.371 284.855C473.332 283.676 474.582 283.086 476.121 283.086C478.801 283.086 480.152 284.598 480.176 287.621V296H478.008V287.609C478 286.695 477.789 286.02 477.375 285.582C476.969 285.145 476.332 284.926 475.465 284.926C474.762 284.926 474.145 285.113 473.613 285.488C473.082 285.863 472.668 286.355 472.371 286.965V296H470.203V278H472.371V284.855ZM491.25 296C491.125 295.75 491.023 295.305 490.945 294.664C489.938 295.711 488.734 296.234 487.336 296.234C486.086 296.234 485.059 295.883 484.254 295.18C483.457 294.469 483.059 293.57 483.059 292.484C483.059 291.164 483.559 290.141 484.559 289.414C485.566 288.68 486.98 288.312 488.801 288.312H490.91V287.316C490.91 286.559 490.684 285.957 490.23 285.512C489.777 285.059 489.109 284.832 488.227 284.832C487.453 284.832 486.805 285.027 486.281 285.418C485.758 285.809 485.496 286.281 485.496 286.836H483.316C483.316 286.203 483.539 285.594 483.984 285.008C484.438 284.414 485.047 283.945 485.812 283.602C486.586 283.258 487.434 283.086 488.355 283.086C489.816 283.086 490.961 283.453 491.789 284.188C492.617 284.914 493.047 285.918 493.078 287.199V293.035C493.078 294.199 493.227 295.125 493.523 295.812V296H491.25ZM487.652 294.348C488.332 294.348 488.977 294.172 489.586 293.82C490.195 293.469 490.637 293.012 490.91 292.449V289.848H489.211C486.555 289.848 485.227 290.625 485.227 292.18C485.227 292.859 485.453 293.391 485.906 293.773C486.359 294.156 486.941 294.348 487.652 294.348ZM502.605 285.266C502.277 285.211 501.922 285.184 501.539 285.184C500.117 285.184 499.152 285.789 498.645 287V296H496.477V283.32H498.586L498.621 284.785C499.332 283.652 500.34 283.086 501.645 283.086C502.066 283.086 502.387 283.141 502.605 283.25V285.266ZM511.969 296C511.844 295.75 511.742 295.305 511.664 294.664C510.656 295.711 509.453 296.234 508.055 296.234C506.805 296.234 505.777 295.883 504.973 295.18C504.176 294.469 503.777 293.57 503.777 292.484C503.777 291.164 504.277 290.141 505.277 289.414C506.285 288.68 507.699 288.312 509.52 288.312H511.629V287.316C511.629 286.559 511.402 285.957 510.949 285.512C510.496 285.059 509.828 284.832 508.945 284.832C508.172 284.832 507.523 285.027 507 285.418C506.477 285.809 506.215 286.281 506.215 286.836H504.035C504.035 286.203 504.258 285.594 504.703 285.008C505.156 284.414 505.766 283.945 506.531 283.602C507.305 283.258 508.152 283.086 509.074 283.086C510.535 283.086 511.68 283.453 512.508 284.188C513.336 284.914 513.766 285.918 513.797 287.199V293.035C513.797 294.199 513.945 295.125 514.242 295.812V296H511.969ZM508.371 294.348C509.051 294.348 509.695 294.172 510.305 293.82C510.914 293.469 511.355 293.012 511.629 292.449V289.848H509.93C507.273 289.848 505.945 290.625 505.945 292.18C505.945 292.859 506.172 293.391 506.625 293.773C507.078 294.156 507.66 294.348 508.371 294.348ZM522.281 294.465C523.055 294.465 523.73 294.23 524.309 293.762C524.887 293.293 525.207 292.707 525.27 292.004H527.32C527.281 292.73 527.031 293.422 526.57 294.078C526.109 294.734 525.492 295.258 524.719 295.648C523.953 296.039 523.141 296.234 522.281 296.234C520.555 296.234 519.18 295.66 518.156 294.512C517.141 293.355 516.633 291.777 516.633 289.777V289.414C516.633 288.18 516.859 287.082 517.312 286.121C517.766 285.16 518.414 284.414 519.258 283.883C520.109 283.352 521.113 283.086 522.27 283.086C523.691 283.086 524.871 283.512 525.809 284.363C526.754 285.215 527.258 286.32 527.32 287.68H525.27C525.207 286.859 524.895 286.188 524.332 285.664C523.777 285.133 523.09 284.867 522.27 284.867C521.168 284.867 520.312 285.266 519.703 286.062C519.102 286.852 518.801 287.996 518.801 289.496V289.906C518.801 291.367 519.102 292.492 519.703 293.281C520.305 294.07 521.164 294.465 522.281 294.465ZM532.699 280.25V283.32H535.066V284.996H532.699V292.859C532.699 293.367 532.805 293.75 533.016 294.008C533.227 294.258 533.586 294.383 534.094 294.383C534.344 294.383 534.688 294.336 535.125 294.242V296C534.555 296.156 534 296.234 533.461 296.234C532.492 296.234 531.762 295.941 531.27 295.355C530.777 294.77 530.531 293.938 530.531 292.859V284.996H528.223V283.32H530.531V280.25H532.699ZM542.871 296.234C541.152 296.234 539.754 295.672 538.676 294.547C537.598 293.414 537.059 291.902 537.059 290.012V289.613C537.059 288.355 537.297 287.234 537.773 286.25C538.258 285.258 538.93 284.484 539.789 283.93C540.656 283.367 541.594 283.086 542.602 283.086C544.25 283.086 545.531 283.629 546.445 284.715C547.359 285.801 547.816 287.355 547.816 289.379V290.281H539.227C539.258 291.531 539.621 292.543 540.316 293.316C541.02 294.082 541.91 294.465 542.988 294.465C543.754 294.465 544.402 294.309 544.934 293.996C545.465 293.684 545.93 293.27 546.328 292.754L547.652 293.785C546.59 295.418 544.996 296.234 542.871 296.234ZM542.602 284.867C541.727 284.867 540.992 285.188 540.398 285.828C539.805 286.461 539.438 287.352 539.297 288.5H545.648V288.336C545.586 287.234 545.289 286.383 544.758 285.781C544.227 285.172 543.508 284.867 542.602 284.867ZM556.465 285.266C556.137 285.211 555.781 285.184 555.398 285.184C553.977 285.184 553.012 285.789 552.504 287V296H550.336V283.32H552.445L552.48 284.785C553.191 283.652 554.199 283.086 555.504 283.086C555.926 283.086 556.246 283.141 556.465 283.25V285.266ZM565.852 292.637C565.852 292.051 565.629 291.598 565.184 291.277C564.746 290.949 563.977 290.668 562.875 290.434C561.781 290.199 560.91 289.918 560.262 289.59C559.621 289.262 559.145 288.871 558.832 288.418C558.527 287.965 558.375 287.426 558.375 286.801C558.375 285.762 558.812 284.883 559.688 284.164C560.57 283.445 561.695 283.086 563.062 283.086C564.5 283.086 565.664 283.457 566.555 284.199C567.453 284.941 567.902 285.891 567.902 287.047H565.723C565.723 286.453 565.469 285.941 564.961 285.512C564.461 285.082 563.828 284.867 563.062 284.867C562.273 284.867 561.656 285.039 561.211 285.383C560.766 285.727 560.543 286.176 560.543 286.73C560.543 287.254 560.75 287.648 561.164 287.914C561.578 288.18 562.324 288.434 563.402 288.676C564.488 288.918 565.367 289.207 566.039 289.543C566.711 289.879 567.207 290.285 567.527 290.762C567.855 291.23 568.02 291.805 568.02 292.484C568.02 293.617 567.566 294.527 566.66 295.215C565.754 295.895 564.578 296.234 563.133 296.234C562.117 296.234 561.219 296.055 560.438 295.695C559.656 295.336 559.043 294.836 558.598 294.195C558.16 293.547 557.941 292.848 557.941 292.098H560.109C560.148 292.824 560.438 293.402 560.977 293.832C561.523 294.254 562.242 294.465 563.133 294.465C563.953 294.465 564.609 294.301 565.102 293.973C565.602 293.637 565.852 293.191 565.852 292.637Z" fill="black"/>
<path d="M492.443 159.723H495.395L503.291 180.603H500.339L492.443 159.723ZM505.154 164.859H508.61L509.33 170.379C509.41 170.971 509.474 171.555 509.522 172.131C509.586 172.707 509.658 173.299 509.738 173.907H509.81C509.89 173.299 509.97 172.699 510.05 172.107C510.13 171.515 510.234 170.939 510.362 170.379L511.106 166.443H513.578L514.37 170.379C514.482 170.971 514.586 171.555 514.682 172.131C514.778 172.707 514.866 173.299 514.946 173.907H515.042C515.122 173.299 515.186 172.707 515.234 172.131C515.282 171.555 515.346 170.971 515.426 170.379L516.146 164.859H519.362L517.514 176.763H513.434L512.762 172.803C512.682 172.243 512.602 171.683 512.522 171.123C512.458 170.547 512.386 169.939 512.306 169.299H512.21C512.162 169.731 512.106 170.219 512.042 170.763C511.994 171.307 511.906 171.987 511.778 172.803L511.13 176.763H507.122L505.154 164.859Z" fill="#0072B2"/>
<path d="M525.352 170.091H521.128V167.595H525.352V163.179H527.944V167.595H532.168V170.091H527.944V174.507H525.352V170.091Z" fill="#56CCF2"/>
<rect x="274" y="140" width="130" height="208" fill="#FFFAF5"/>
<path d="M289.008 204.395C287.078 203.84 285.672 203.16 284.789 202.355C283.914 201.543 283.477 200.543 283.477 199.355C283.477 198.012 284.012 196.902 285.082 196.027C286.16 195.145 287.559 194.703 289.277 194.703C290.449 194.703 291.492 194.93 292.406 195.383C293.328 195.836 294.039 196.461 294.539 197.258C295.047 198.055 295.301 198.926 295.301 199.871H293.039C293.039 198.84 292.711 198.031 292.055 197.445C291.398 196.852 290.473 196.555 289.277 196.555C288.168 196.555 287.301 196.801 286.676 197.293C286.059 197.777 285.75 198.453 285.75 199.32C285.75 200.016 286.043 200.605 286.629 201.09C287.223 201.566 288.227 202.004 289.641 202.402C291.062 202.801 292.172 203.242 292.969 203.727C293.773 204.203 294.367 204.762 294.75 205.402C295.141 206.043 295.336 206.797 295.336 207.664C295.336 209.047 294.797 210.156 293.719 210.992C292.641 211.82 291.199 212.234 289.395 212.234C288.223 212.234 287.129 212.012 286.113 211.566C285.098 211.113 284.312 210.496 283.758 209.715C283.211 208.934 282.938 208.047 282.938 207.055H285.199C285.199 208.086 285.578 208.902 286.336 209.504C287.102 210.098 288.121 210.395 289.395 210.395C290.582 210.395 291.492 210.152 292.125 209.668C292.758 209.184 293.074 208.523 293.074 207.688C293.074 206.852 292.781 206.207 292.195 205.754C291.609 205.293 290.547 204.84 289.008 204.395ZM300.832 196.25V199.32H303.199V200.996H300.832V208.859C300.832 209.367 300.938 209.75 301.148 210.008C301.359 210.258 301.719 210.383 302.227 210.383C302.477 210.383 302.82 210.336 303.258 210.242V212C302.688 212.156 302.133 212.234 301.594 212.234C300.625 212.234 299.895 211.941 299.402 211.355C298.91 210.77 298.664 209.938 298.664 208.859V200.996H296.355V199.32H298.664V196.25H300.832ZM313.57 212C313.445 211.75 313.344 211.305 313.266 210.664C312.258 211.711 311.055 212.234 309.656 212.234C308.406 212.234 307.379 211.883 306.574 211.18C305.777 210.469 305.379 209.57 305.379 208.484C305.379 207.164 305.879 206.141 306.879 205.414C307.887 204.68 309.301 204.312 311.121 204.312H313.23V203.316C313.23 202.559 313.004 201.957 312.551 201.512C312.098 201.059 311.43 200.832 310.547 200.832C309.773 200.832 309.125 201.027 308.602 201.418C308.078 201.809 307.816 202.281 307.816 202.836H305.637C305.637 202.203 305.859 201.594 306.305 201.008C306.758 200.414 307.367 199.945 308.133 199.602C308.906 199.258 309.754 199.086 310.676 199.086C312.137 199.086 313.281 199.453 314.109 200.188C314.938 200.914 315.367 201.918 315.398 203.199V209.035C315.398 210.199 315.547 211.125 315.844 211.812V212H313.57ZM309.973 210.348C310.652 210.348 311.297 210.172 311.906 209.82C312.516 209.469 312.957 209.012 313.23 208.449V205.848H311.531C308.875 205.848 307.547 206.625 307.547 208.18C307.547 208.859 307.773 209.391 308.227 209.773C308.68 210.156 309.262 210.348 309.973 210.348ZM324.926 201.266C324.598 201.211 324.242 201.184 323.859 201.184C322.438 201.184 321.473 201.789 320.965 203V212H318.797V199.32H320.906L320.941 200.785C321.652 199.652 322.66 199.086 323.965 199.086C324.387 199.086 324.707 199.141 324.926 199.25V201.266ZM330.457 196.25V199.32H332.824V200.996H330.457V208.859C330.457 209.367 330.562 209.75 330.773 210.008C330.984 210.258 331.344 210.383 331.852 210.383C332.102 210.383 332.445 210.336 332.883 210.242V212C332.312 212.156 331.758 212.234 331.219 212.234C330.25 212.234 329.52 211.941 329.027 211.355C328.535 210.77 328.289 209.938 328.289 208.859V200.996H325.98V199.32H328.289V196.25H330.457ZM288.727 238.465C289.5 238.465 290.176 238.23 290.754 237.762C291.332 237.293 291.652 236.707 291.715 236.004H293.766C293.727 236.73 293.477 237.422 293.016 238.078C292.555 238.734 291.938 239.258 291.164 239.648C290.398 240.039 289.586 240.234 288.727 240.234C287 240.234 285.625 239.66 284.602 238.512C283.586 237.355 283.078 235.777 283.078 233.777V233.414C283.078 232.18 283.305 231.082 283.758 230.121C284.211 229.16 284.859 228.414 285.703 227.883C286.555 227.352 287.559 227.086 288.715 227.086C290.137 227.086 291.316 227.512 292.254 228.363C293.199 229.215 293.703 230.32 293.766 231.68H291.715C291.652 230.859 291.34 230.188 290.777 229.664C290.223 229.133 289.535 228.867 288.715 228.867C287.613 228.867 286.758 229.266 286.148 230.062C285.547 230.852 285.246 231.996 285.246 233.496V233.906C285.246 235.367 285.547 236.492 286.148 237.281C286.75 238.07 287.609 238.465 288.727 238.465ZM304.031 240C303.906 239.75 303.805 239.305 303.727 238.664C302.719 239.711 301.516 240.234 300.117 240.234C298.867 240.234 297.84 239.883 297.035 239.18C296.238 238.469 295.84 237.57 295.84 236.484C295.84 235.164 296.34 234.141 297.34 233.414C298.348 232.68 299.762 232.312 301.582 232.312H303.691V231.316C303.691 230.559 303.465 229.957 303.012 229.512C302.559 229.059 301.891 228.832 301.008 228.832C300.234 228.832 299.586 229.027 299.062 229.418C298.539 229.809 298.277 230.281 298.277 230.836H296.098C296.098 230.203 296.32 229.594 296.766 229.008C297.219 228.414 297.828 227.945 298.594 227.602C299.367 227.258 300.215 227.086 301.137 227.086C302.598 227.086 303.742 227.453 304.57 228.188C305.398 228.914 305.828 229.918 305.859 231.199V237.035C305.859 238.199 306.008 239.125 306.305 239.812V240H304.031ZM300.434 238.348C301.113 238.348 301.758 238.172 302.367 237.82C302.977 237.469 303.418 237.012 303.691 236.449V233.848H301.992C299.336 233.848 298.008 234.625 298.008 236.18C298.008 236.859 298.234 237.391 298.688 237.773C299.141 238.156 299.723 238.348 300.434 238.348ZM319.969 233.801C319.969 235.73 319.527 237.285 318.645 238.465C317.762 239.645 316.566 240.234 315.059 240.234C313.52 240.234 312.309 239.746 311.426 238.77V244.875H309.258V227.32H311.238L311.344 228.727C312.227 227.633 313.453 227.086 315.023 227.086C316.547 227.086 317.75 227.66 318.633 228.809C319.523 229.957 319.969 231.555 319.969 233.602V233.801ZM317.801 233.555C317.801 232.125 317.496 230.996 316.887 230.168C316.277 229.34 315.441 228.926 314.379 228.926C313.066 228.926 312.082 229.508 311.426 230.672V236.73C312.074 237.887 313.066 238.465 314.402 238.465C315.441 238.465 316.266 238.055 316.875 237.234C317.492 236.406 317.801 235.18 317.801 233.555ZM325.676 224.25V227.32H328.043V228.996H325.676V236.859C325.676 237.367 325.781 237.75 325.992 238.008C326.203 238.258 326.562 238.383 327.07 238.383C327.32 238.383 327.664 238.336 328.102 238.242V240C327.531 240.156 326.977 240.234 326.438 240.234C325.469 240.234 324.738 239.941 324.246 239.355C323.754 238.77 323.508 237.938 323.508 236.859V228.996H321.199V227.32H323.508V224.25H325.676ZM338.414 238.746C337.57 239.738 336.332 240.234 334.699 240.234C333.348 240.234 332.316 239.844 331.605 239.062C330.902 238.273 330.547 237.109 330.539 235.57V227.32H332.707V235.512C332.707 237.434 333.488 238.395 335.051 238.395C336.707 238.395 337.809 237.777 338.355 236.543V227.32H340.523V240H338.461L338.414 238.746ZM349.957 229.266C349.629 229.211 349.273 229.184 348.891 229.184C347.469 229.184 346.504 229.789 345.996 231V240H343.828V227.32H345.938L345.973 228.785C346.684 227.652 347.691 227.086 348.996 227.086C349.418 227.086 349.738 227.141 349.957 227.25V229.266ZM356.988 240.234C355.27 240.234 353.871 239.672 352.793 238.547C351.715 237.414 351.176 235.902 351.176 234.012V233.613C351.176 232.355 351.414 231.234 351.891 230.25C352.375 229.258 353.047 228.484 353.906 227.93C354.773 227.367 355.711 227.086 356.719 227.086C358.367 227.086 359.648 227.629 360.562 228.715C361.477 229.801 361.934 231.355 361.934 233.379V234.281H353.344C353.375 235.531 353.738 236.543 354.434 237.316C355.137 238.082 356.027 238.465 357.105 238.465C357.871 238.465 358.52 238.309 359.051 237.996C359.582 237.684 360.047 237.27 360.445 236.754L361.77 237.785C360.707 239.418 359.113 240.234 356.988 240.234ZM356.719 228.867C355.844 228.867 355.109 229.188 354.516 229.828C353.922 230.461 353.555 231.352 353.414 232.5H359.766V232.336C359.703 231.234 359.406 230.383 358.875 229.781C358.344 229.172 357.625 228.867 356.719 228.867ZM283.125 261.555C283.125 259.578 283.582 258.008 284.496 256.844C285.41 255.672 286.621 255.086 288.129 255.086C289.676 255.086 290.883 255.633 291.75 256.727L291.855 255.32H293.836V267.695C293.836 269.336 293.348 270.629 292.371 271.574C291.402 272.52 290.098 272.992 288.457 272.992C287.543 272.992 286.648 272.797 285.773 272.406C284.898 272.016 284.23 271.48 283.77 270.801L284.895 269.5C285.824 270.648 286.961 271.223 288.305 271.223C289.359 271.223 290.18 270.926 290.766 270.332C291.359 269.738 291.656 268.902 291.656 267.824V266.734C290.789 267.734 289.605 268.234 288.105 268.234C286.621 268.234 285.418 267.637 284.496 266.441C283.582 265.246 283.125 263.617 283.125 261.555ZM285.305 261.801C285.305 263.23 285.598 264.355 286.184 265.176C286.77 265.988 287.59 266.395 288.645 266.395C290.012 266.395 291.016 265.773 291.656 264.531V258.742C290.992 257.531 289.996 256.926 288.668 256.926C287.613 256.926 286.789 257.336 286.195 258.156C285.602 258.977 285.305 260.191 285.305 261.801ZM303.246 257.266C302.918 257.211 302.562 257.184 302.18 257.184C300.758 257.184 299.793 257.789 299.285 259V268H297.117V255.32H299.227L299.262 256.785C299.973 255.652 300.98 255.086 302.285 255.086C302.707 255.086 303.027 255.141 303.246 255.25V257.266ZM304.441 261.543C304.441 260.301 304.684 259.184 305.168 258.191C305.66 257.199 306.34 256.434 307.207 255.895C308.082 255.355 309.078 255.086 310.195 255.086C311.922 255.086 313.316 255.684 314.379 256.879C315.449 258.074 315.984 259.664 315.984 261.648V261.801C315.984 263.035 315.746 264.145 315.27 265.129C314.801 266.105 314.125 266.867 313.242 267.414C312.367 267.961 311.359 268.234 310.219 268.234C308.5 268.234 307.105 267.637 306.035 266.441C304.973 265.246 304.441 263.664 304.441 261.695V261.543ZM306.621 261.801C306.621 263.207 306.945 264.336 307.594 265.188C308.25 266.039 309.125 266.465 310.219 266.465C311.32 266.465 312.195 266.035 312.844 265.176C313.492 264.309 313.816 263.098 313.816 261.543C313.816 260.152 313.484 259.027 312.82 258.168C312.164 257.301 311.289 256.867 310.195 256.867C309.125 256.867 308.262 257.293 307.605 258.145C306.949 258.996 306.621 260.215 306.621 261.801ZM326.531 266.746C325.688 267.738 324.449 268.234 322.816 268.234C321.465 268.234 320.434 267.844 319.723 267.062C319.02 266.273 318.664 265.109 318.656 263.57V255.32H320.824V263.512C320.824 265.434 321.605 266.395 323.168 266.395C324.824 266.395 325.926 265.777 326.473 264.543V255.32H328.641V268H326.578L326.531 266.746ZM342.656 261.801C342.656 263.73 342.215 265.285 341.332 266.465C340.449 267.645 339.254 268.234 337.746 268.234C336.207 268.234 334.996 267.746 334.113 266.77V272.875H331.945V255.32H333.926L334.031 256.727C334.914 255.633 336.141 255.086 337.711 255.086C339.234 255.086 340.438 255.66 341.32 256.809C342.211 257.957 342.656 259.555 342.656 261.602V261.801ZM340.488 261.555C340.488 260.125 340.184 258.996 339.574 258.168C338.965 257.34 338.129 256.926 337.066 256.926C335.754 256.926 334.77 257.508 334.113 258.672V264.73C334.762 265.887 335.754 266.465 337.09 266.465C338.129 266.465 338.953 266.055 339.562 265.234C340.18 264.406 340.488 263.18 340.488 261.555Z" fill="black"/>
<path d="M340.65 180.797C338.951 179.289 337.608 177.547 336.62 175.571C335.649 173.595 335.164 171.376 335.164 168.915C335.164 166.454 335.649 164.235 336.62 162.259C337.608 160.283 338.951 158.541 340.65 157.033L342.782 158.723C341.239 160.231 340.113 161.8 339.402 163.429C338.709 165.041 338.362 166.87 338.362 168.915C338.362 169.938 338.449 170.908 338.622 171.827C338.795 172.728 339.055 173.595 339.402 174.427C339.766 175.259 340.225 176.056 340.78 176.819C341.335 177.599 342.002 178.362 342.782 179.107L340.65 180.797Z" fill="#D55E00"/>
<rect x="622" y="140" width="130" height="208" fill="#FFFAF5"/>
<path d="M641.625 204.113H634.23V210.16H642.82V212H631.98V194.938H642.703V196.789H634.23V202.273H641.625V204.113ZM647.332 199.32L647.402 200.914C648.371 199.695 649.637 199.086 651.199 199.086C653.879 199.086 655.23 200.598 655.254 203.621V212H653.086V203.609C653.078 202.695 652.867 202.02 652.453 201.582C652.047 201.145 651.41 200.926 650.543 200.926C649.84 200.926 649.223 201.113 648.691 201.488C648.16 201.863 647.746 202.355 647.449 202.965V212H645.281V199.32H647.332ZM657.996 205.555C657.996 203.609 658.457 202.047 659.379 200.867C660.301 199.68 661.508 199.086 663 199.086C664.484 199.086 665.66 199.594 666.527 200.609V194H668.695V212H666.703L666.598 210.641C665.73 211.703 664.523 212.234 662.977 212.234C661.508 212.234 660.309 211.633 659.379 210.43C658.457 209.227 657.996 207.656 657.996 205.719V205.555ZM660.164 205.801C660.164 207.238 660.461 208.363 661.055 209.176C661.648 209.988 662.469 210.395 663.516 210.395C664.891 210.395 665.895 209.777 666.527 208.543V202.719C665.879 201.523 664.883 200.926 663.539 200.926C662.477 200.926 661.648 201.336 661.055 202.156C660.461 202.977 660.164 204.191 660.164 205.801ZM636.727 238.465C637.5 238.465 638.176 238.23 638.754 237.762C639.332 237.293 639.652 236.707 639.715 236.004H641.766C641.727 236.73 641.477 237.422 641.016 238.078C640.555 238.734 639.938 239.258 639.164 239.648C638.398 240.039 637.586 240.234 636.727 240.234C635 240.234 633.625 239.66 632.602 238.512C631.586 237.355 631.078 235.777 631.078 233.777V233.414C631.078 232.18 631.305 231.082 631.758 230.121C632.211 229.16 632.859 228.414 633.703 227.883C634.555 227.352 635.559 227.086 636.715 227.086C638.137 227.086 639.316 227.512 640.254 228.363C641.199 229.215 641.703 230.32 641.766 231.68H639.715C639.652 230.859 639.34 230.188 638.777 229.664C638.223 229.133 637.535 228.867 636.715 228.867C635.613 228.867 634.758 229.266 634.148 230.062C633.547 230.852 633.246 231.996 633.246 233.496V233.906C633.246 235.367 633.547 236.492 634.148 237.281C634.75 238.07 635.609 238.465 636.727 238.465ZM652.031 240C651.906 239.75 651.805 239.305 651.727 238.664C650.719 239.711 649.516 240.234 648.117 240.234C646.867 240.234 645.84 239.883 645.035 239.18C644.238 238.469 643.84 237.57 643.84 236.484C643.84 235.164 644.34 234.141 645.34 233.414C646.348 232.68 647.762 232.312 649.582 232.312H651.691V231.316C651.691 230.559 651.465 229.957 651.012 229.512C650.559 229.059 649.891 228.832 649.008 228.832C648.234 228.832 647.586 229.027 647.062 229.418C646.539 229.809 646.277 230.281 646.277 230.836H644.098C644.098 230.203 644.32 229.594 644.766 229.008C645.219 228.414 645.828 227.945 646.594 227.602C647.367 227.258 648.215 227.086 649.137 227.086C650.598 227.086 651.742 227.453 652.57 228.188C653.398 228.914 653.828 229.918 653.859 231.199V237.035C653.859 238.199 654.008 239.125 654.305 239.812V240H652.031ZM648.434 238.348C649.113 238.348 649.758 238.172 650.367 237.82C650.977 237.469 651.418 237.012 651.691 236.449V233.848H649.992C647.336 233.848 646.008 234.625 646.008 236.18C646.008 236.859 646.234 237.391 646.688 237.773C647.141 238.156 647.723 238.348 648.434 238.348ZM667.969 233.801C667.969 235.73 667.527 237.285 666.645 238.465C665.762 239.645 664.566 240.234 663.059 240.234C661.52 240.234 660.309 239.746 659.426 238.77V244.875H657.258V227.32H659.238L659.344 228.727C660.227 227.633 661.453 227.086 663.023 227.086C664.547 227.086 665.75 227.66 666.633 228.809C667.523 229.957 667.969 231.555 667.969 233.602V233.801ZM665.801 233.555C665.801 232.125 665.496 230.996 664.887 230.168C664.277 229.34 663.441 228.926 662.379 228.926C661.066 228.926 660.082 229.508 659.426 230.672V236.73C660.074 237.887 661.066 238.465 662.402 238.465C663.441 238.465 664.266 238.055 664.875 237.234C665.492 236.406 665.801 235.18 665.801 233.555ZM673.676 224.25V227.32H676.043V228.996H673.676V236.859C673.676 237.367 673.781 237.75 673.992 238.008C674.203 238.258 674.562 238.383 675.07 238.383C675.32 238.383 675.664 238.336 676.102 238.242V240C675.531 240.156 674.977 240.234 674.438 240.234C673.469 240.234 672.738 239.941 672.246 239.355C671.754 238.77 671.508 237.938 671.508 236.859V228.996H669.199V227.32H671.508V224.25H673.676ZM686.414 238.746C685.57 239.738 684.332 240.234 682.699 240.234C681.348 240.234 680.316 239.844 679.605 239.062C678.902 238.273 678.547 237.109 678.539 235.57V227.32H680.707V235.512C680.707 237.434 681.488 238.395 683.051 238.395C684.707 238.395 685.809 237.777 686.355 236.543V227.32H688.523V240H686.461L686.414 238.746ZM697.957 229.266C697.629 229.211 697.273 229.184 696.891 229.184C695.469 229.184 694.504 229.789 693.996 231V240H691.828V227.32H693.938L693.973 228.785C694.684 227.652 695.691 227.086 696.996 227.086C697.418 227.086 697.738 227.141 697.957 227.25V229.266ZM704.988 240.234C703.27 240.234 701.871 239.672 700.793 238.547C699.715 237.414 699.176 235.902 699.176 234.012V233.613C699.176 232.355 699.414 231.234 699.891 230.25C700.375 229.258 701.047 228.484 701.906 227.93C702.773 227.367 703.711 227.086 704.719 227.086C706.367 227.086 707.648 227.629 708.562 228.715C709.477 229.801 709.934 231.355 709.934 233.379V234.281H701.344C701.375 235.531 701.738 236.543 702.434 237.316C703.137 238.082 704.027 238.465 705.105 238.465C705.871 238.465 706.52 238.309 707.051 237.996C707.582 237.684 708.047 237.27 708.445 236.754L709.77 237.785C708.707 239.418 707.113 240.234 704.988 240.234ZM704.719 228.867C703.844 228.867 703.109 229.188 702.516 229.828C701.922 230.461 701.555 231.352 701.414 232.5H707.766V232.336C707.703 231.234 707.406 230.383 706.875 229.781C706.344 229.172 705.625 228.867 704.719 228.867ZM631.125 261.555C631.125 259.578 631.582 258.008 632.496 256.844C633.41 255.672 634.621 255.086 636.129 255.086C637.676 255.086 638.883 255.633 639.75 256.727L639.855 255.32H641.836V267.695C641.836 269.336 641.348 270.629 640.371 271.574C639.402 272.52 638.098 272.992 636.457 272.992C635.543 272.992 634.648 272.797 633.773 272.406C632.898 272.016 632.23 271.48 631.77 270.801L632.895 269.5C633.824 270.648 634.961 271.223 636.305 271.223C637.359 271.223 638.18 270.926 638.766 270.332C639.359 269.738 639.656 268.902 639.656 267.824V266.734C638.789 267.734 637.605 268.234 636.105 268.234C634.621 268.234 633.418 267.637 632.496 266.441C631.582 265.246 631.125 263.617 631.125 261.555ZM633.305 261.801C633.305 263.23 633.598 264.355 634.184 265.176C634.77 265.988 635.59 266.395 636.645 266.395C638.012 266.395 639.016 265.773 639.656 264.531V258.742C638.992 257.531 637.996 256.926 636.668 256.926C635.613 256.926 634.789 257.336 634.195 258.156C633.602 258.977 633.305 260.191 633.305 261.801ZM651.246 257.266C650.918 257.211 650.562 257.184 650.18 257.184C648.758 257.184 647.793 257.789 647.285 259V268H645.117V255.32H647.227L647.262 256.785C647.973 255.652 648.98 255.086 650.285 255.086C650.707 255.086 651.027 255.141 651.246 255.25V257.266ZM652.441 261.543C652.441 260.301 652.684 259.184 653.168 258.191C653.66 257.199 654.34 256.434 655.207 255.895C656.082 255.355 657.078 255.086 658.195 255.086C659.922 255.086 661.316 255.684 662.379 256.879C663.449 258.074 663.984 259.664 663.984 261.648V261.801C663.984 263.035 663.746 264.145 663.27 265.129C662.801 266.105 662.125 266.867 661.242 267.414C660.367 267.961 659.359 268.234 658.219 268.234C656.5 268.234 655.105 267.637 654.035 266.441C652.973 265.246 652.441 263.664 652.441 261.695V261.543ZM654.621 261.801C654.621 263.207 654.945 264.336 655.594 265.188C656.25 266.039 657.125 266.465 658.219 266.465C659.32 266.465 660.195 266.035 660.844 265.176C661.492 264.309 661.816 263.098 661.816 261.543C661.816 260.152 661.484 259.027 660.82 258.168C660.164 257.301 659.289 256.867 658.195 256.867C657.125 256.867 656.262 257.293 655.605 258.145C654.949 258.996 654.621 260.215 654.621 261.801ZM674.531 266.746C673.688 267.738 672.449 268.234 670.816 268.234C669.465 268.234 668.434 267.844 667.723 267.062C667.02 266.273 666.664 265.109 666.656 263.57V255.32H668.824V263.512C668.824 265.434 669.605 266.395 671.168 266.395C672.824 266.395 673.926 265.777 674.473 264.543V255.32H676.641V268H674.578L674.531 266.746ZM690.656 261.801C690.656 263.73 690.215 265.285 689.332 266.465C688.449 267.645 687.254 268.234 685.746 268.234C684.207 268.234 682.996 267.746 682.113 266.77V272.875H679.945V255.32H681.926L682.031 256.727C682.914 255.633 684.141 255.086 685.711 255.086C687.234 255.086 688.438 255.66 689.32 256.809C690.211 257.957 690.656 259.555 690.656 261.602V261.801ZM688.488 261.555C688.488 260.125 688.184 258.996 687.574 258.168C686.965 257.34 686.129 256.926 685.066 256.926C683.754 256.926 682.77 257.508 682.113 258.672V264.73C682.762 265.887 683.754 266.465 685.09 266.465C686.129 266.465 686.953 266.055 687.562 265.234C688.18 264.406 688.488 263.18 688.488 261.555Z" fill="black"/>
<path d="M681.734 179.107C682.514 178.362 683.181 177.599 683.736 176.819C684.291 176.056 684.741 175.259 685.088 174.427C685.452 173.595 685.721 172.728 685.894 171.827C686.067 170.908 686.154 169.938 686.154 168.915C686.154 166.87 685.799 165.041 685.088 163.429C684.395 161.8 683.277 160.231 681.734 158.723L683.866 157.033C685.565 158.541 686.899 160.283 687.87 162.259C688.858 164.235 689.352 166.454 689.352 168.915C689.352 171.376 688.858 173.595 687.87 175.571C686.899 177.547 685.565 179.289 683.866 180.797L681.734 179.107Z" fill="#D55E00"/>
<path d="M328 14H697.063V62H328V14Z" fill="#F1F4F8"/>
<path d="M453.585 28.96H455.961L463.857 49.84H461.481L453.585 28.96ZM471.023 29.008H477.887V30.52H473.159V48.136H477.887V49.648H471.023V29.008ZM554.319 28.96H556.695L564.591 49.84H562.215L554.319 28.96ZM573.798 48.136V30.52H569.094V29.008H575.958V49.648H569.094V48.136H573.798Z" fill="#A541F8"/>
<path d="M490.19 50.248C488.574 48.904 487.294 47.32 486.35 45.496C485.422 43.672 484.958 41.616 484.958 39.328C484.958 37.04 485.422 34.984 486.35 33.16C487.294 31.336 488.574 29.752 490.19 28.408L491.726 29.68C490.206 31.056 489.094 32.52 488.39 34.072C487.686 35.624 487.334 37.376 487.334 39.328C487.334 41.28 487.686 43.032 488.39 44.584C489.094 46.136 490.206 47.6 491.726 48.976L490.19 50.248ZM540.841 48.976C542.361 47.6 543.473 46.136 544.177 44.584C544.881 43.032 545.233 41.28 545.233 39.328C545.233 37.376 544.881 35.624 544.177 34.072C543.473 32.52 542.361 31.056 540.841 29.68L542.377 28.408C543.993 29.752 545.265 31.336 546.193 33.16C547.137 34.984 547.609 37.04 547.609 39.328C547.609 41.616 547.137 43.672 546.193 45.496C545.265 47.32 543.993 48.904 542.377 50.248L540.841 48.976Z" fill="#D55E00"/>
<path d="M496.757 28.96H499.133L507.029 49.84H504.653L496.757 28.96ZM509.227 34.216H511.963L513.043 40.336C513.139 40.896 513.219 41.456 513.283 42.016C513.363 42.576 513.443 43.144 513.523 43.72H513.619C513.699 43.144 513.787 42.576 513.883 42.016C513.979 41.456 514.091 40.896 514.219 40.336L515.323 35.368H517.387L518.491 40.336C518.619 40.896 518.731 41.456 518.827 42.016C518.939 42.576 519.043 43.144 519.139 43.72H519.235C519.331 43.144 519.411 42.576 519.475 42.016C519.555 41.456 519.635 40.896 519.715 40.336L520.795 34.216H523.339L521.155 46H517.915L516.883 41.08C516.787 40.52 516.691 39.96 516.595 39.4C516.515 38.84 516.427 38.256 516.331 37.648H516.235C516.155 38.112 516.075 38.616 515.995 39.16C515.931 39.688 515.835 40.336 515.707 41.104L514.699 46H511.507L509.227 34.216Z" fill="#0072B2"/>
<path d="M529.618 39.088H525.346V37.072H529.618V32.536H531.73V37.072H536.002V39.088H531.73V43.624H529.618V39.088Z" fill="#56CCF2"/>
</svg>
