<svg width="350" height="187" viewBox="0 0 350 187" fill="none" xmlns="http://www.w3.org/2000/svg">
<rect width="350" height="187" fill="black" fill-opacity="0"/>
<rect width="350" height="187" fill="black" fill-opacity="0"/>
<path d="M7.83984 43.6602L7.86914 44.3633C8.33398 43.8164 8.96094 43.543 9.75 43.543C10.6367 43.543 11.2402 43.8828 11.5605 44.5625C11.7715 44.2578 12.0449 44.0117 12.3809 43.8242C12.7207 43.6367 13.1211 43.543 13.582 43.543C14.9727 43.543 15.6797 44.2793 15.7031 45.752V50H14.6191V45.8164C14.6191 45.3633 14.5156 45.0254 14.3086 44.8027C14.1016 44.5762 13.7539 44.4629 13.2656 44.4629C12.8633 44.4629 12.5293 44.584 12.2637 44.8262C11.998 45.0645 11.8438 45.3867 11.8008 45.793V50H10.7109V45.8457C10.7109 44.9238 10.2598 44.4629 9.35742 44.4629C8.64648 44.4629 8.16016 44.7656 7.89844 45.3711V50H6.81445V43.6602H7.83984ZM21.2578 50C21.1953 49.875 21.1445 49.6523 21.1055 49.332C20.6016 49.8555 20 50.1172 19.3008 50.1172C18.6758 50.1172 18.1621 49.9414 17.7598 49.5898C17.3613 49.2344 17.1621 48.7852 17.1621 48.2422C17.1621 47.582 17.4121 47.0703 17.9121 46.707C18.416 46.3398 19.123 46.1562 20.0332 46.1562H21.0879V45.6582C21.0879 45.2793 20.9746 44.9785 20.748 44.7559C20.5215 44.5293 20.1875 44.416 19.7461 44.416C19.3594 44.416 19.0352 44.5137 18.7734 44.709C18.5117 44.9043 18.3809 45.1406 18.3809 45.418H17.291C17.291 45.1016 17.4023 44.7969 17.625 44.5039C17.8516 44.207 18.1562 43.9727 18.5391 43.8008C18.9258 43.6289 19.3496 43.543 19.8105 43.543C20.541 43.543 21.1133 43.7266 21.5273 44.0938C21.9414 44.457 22.1562 44.959 22.1719 45.5996V48.5176C22.1719 49.0996 22.2461 49.5625 22.3945 49.9062V50H21.2578ZM19.459 49.1738C19.7988 49.1738 20.1211 49.0859 20.4258 48.9102C20.7305 48.7344 20.9512 48.5059 21.0879 48.2246V46.9238H20.2383C18.9102 46.9238 18.2461 47.3125 18.2461 48.0898C18.2461 48.4297 18.3594 48.6953 18.5859 48.8867C18.8125 49.0781 19.1035 49.1738 19.459 49.1738ZM25.3418 42.125V43.6602H26.5254V44.498H25.3418V48.4297C25.3418 48.6836 25.3945 48.875 25.5 49.0039C25.6055 49.1289 25.7852 49.1914 26.0391 49.1914C26.1641 49.1914 26.3359 49.168 26.5547 49.1211V50C26.2695 50.0781 25.9922 50.1172 25.7227 50.1172C25.2383 50.1172 24.873 49.9707 24.627 49.6777C24.3809 49.3848 24.2578 48.9688 24.2578 48.4297V44.498H23.1035V43.6602H24.2578V42.125H25.3418ZM28.8809 44.4277C29.3613 43.8379 29.9863 43.543 30.7559 43.543C32.0957 43.543 32.7715 44.2988 32.7832 45.8105V50H31.6992V45.8047C31.6953 45.3477 31.5898 45.0098 31.3828 44.791C31.1797 44.5723 30.8613 44.4629 30.4277 44.4629C30.0762 44.4629 29.7676 44.5566 29.502 44.7441C29.2363 44.9316 29.0293 45.1777 28.8809 45.4824V50H27.7969V41H28.8809V44.4277Z" fill="black"/>
<path d="M9.36328 94.2324C9.75 94.2324 10.0879 94.1152 10.377 93.8809C10.666 93.6465 10.8262 93.3535 10.8574 93.002H11.8828C11.8633 93.3652 11.7383 93.7109 11.5078 94.0391C11.2773 94.3672 10.9688 94.6289 10.582 94.8242C10.1992 95.0195 9.79297 95.1172 9.36328 95.1172C8.5 95.1172 7.8125 94.8301 7.30078 94.2559C6.79297 93.6777 6.53906 92.8887 6.53906 91.8887V91.707C6.53906 91.0898 6.65234 90.541 6.87891 90.0605C7.10547 89.5801 7.42969 89.207 7.85156 88.9414C8.27734 88.6758 8.7793 88.543 9.35742 88.543C10.0684 88.543 10.6582 88.7559 11.127 89.1816C11.5996 89.6074 11.8516 90.1602 11.8828 90.8398H10.8574C10.8262 90.4297 10.6699 90.0938 10.3887 89.832C10.1113 89.5664 9.76758 89.4336 9.35742 89.4336C8.80664 89.4336 8.37891 89.6328 8.07422 90.0312C7.77344 90.4258 7.62305 90.998 7.62305 91.748V91.9531C7.62305 92.6836 7.77344 93.2461 8.07422 93.6406C8.375 94.0352 8.80469 94.2324 9.36328 94.2324ZM14.1855 89.4277C14.666 88.8379 15.291 88.543 16.0605 88.543C17.4004 88.543 18.0762 89.2988 18.0879 90.8105V95H17.0039V90.8047C17 90.3477 16.8945 90.0098 16.6875 89.791C16.4844 89.5723 16.166 89.4629 15.7324 89.4629C15.3809 89.4629 15.0723 89.5566 14.8066 89.7441C14.541 89.9316 14.334 90.1777 14.1855 90.4824V95H13.1016V86H14.1855V89.4277ZM22.3418 95.1172C21.4824 95.1172 20.7832 94.8359 20.2441 94.2734C19.7051 93.707 19.4355 92.9512 19.4355 92.0059V91.8066C19.4355 91.1777 19.5547 90.6172 19.793 90.125C20.0352 89.6289 20.3711 89.2422 20.8008 88.9648C21.2344 88.6836 21.7031 88.543 22.207 88.543C23.0312 88.543 23.6719 88.8145 24.1289 89.3574C24.5859 89.9004 24.8145 90.6777 24.8145 91.6895V92.1406H20.5195C20.5352 92.7656 20.7168 93.2715 21.0645 93.6582C21.416 94.041 21.8613 94.2324 22.4004 94.2324C22.7832 94.2324 23.1074 94.1543 23.373 93.998C23.6387 93.8418 23.8711 93.6348 24.0703 93.377L24.7324 93.8926C24.2012 94.709 23.4043 95.1172 22.3418 95.1172ZM22.207 89.4336C21.7695 89.4336 21.4023 89.5938 21.1055 89.9141C20.8086 90.2305 20.625 90.6758 20.5547 91.25H23.7305V91.168C23.6992 90.6172 23.5508 90.1914 23.2852 89.8906C23.0195 89.5859 22.6602 89.4336 22.207 89.4336ZM27.0938 88.6602L27.123 89.3633C27.5879 88.8164 28.2148 88.543 29.0039 88.543C29.8906 88.543 30.4941 88.8828 30.8145 89.5625C31.0254 89.2578 31.2988 89.0117 31.6348 88.8242C31.9746 88.6367 32.375 88.543 32.8359 88.543C34.2266 88.543 34.9336 89.2793 34.957 90.752V95H33.873V90.8164C33.873 90.3633 33.7695 90.0254 33.5625 89.8027C33.3555 89.5762 33.0078 89.4629 32.5195 89.4629C32.1172 89.4629 31.7832 89.584 31.5176 89.8262C31.252 90.0645 31.0977 90.3867 31.0547 90.793V95H29.9648V90.8457C29.9648 89.9238 29.5137 89.4629 28.6113 89.4629C27.9004 89.4629 27.4141 89.7656 27.1523 90.3711V95H26.0684V88.6602H27.0938ZM37.7754 95H36.6914V88.6602H37.7754V95ZM36.6035 86.9785C36.6035 86.8027 36.6562 86.6543 36.7617 86.5332C36.8711 86.4121 37.0312 86.3516 37.2422 86.3516C37.4531 86.3516 37.6133 86.4121 37.7227 86.5332C37.832 86.6543 37.8867 86.8027 37.8867 86.9785C37.8867 87.1543 37.832 87.3008 37.7227 87.418C37.6133 87.5352 37.4531 87.5938 37.2422 87.5938C37.0312 87.5938 36.8711 87.5352 36.7617 87.418C36.6562 87.3008 36.6035 87.1543 36.6035 86.9785ZM43.207 93.3184C43.207 93.0254 43.0957 92.7988 42.873 92.6387C42.6543 92.4746 42.2695 92.334 41.7188 92.2168C41.1719 92.0996 40.7363 91.959 40.4121 91.7949C40.0918 91.6309 39.8535 91.4355 39.6973 91.209C39.5449 90.9824 39.4688 90.7129 39.4688 90.4004C39.4688 89.8809 39.6875 89.4414 40.125 89.082C40.5664 88.7227 41.1289 88.543 41.8125 88.543C42.5312 88.543 43.1133 88.7285 43.5586 89.0996C44.0078 89.4707 44.2324 89.9453 44.2324 90.5234H43.1426C43.1426 90.2266 43.0156 89.9707 42.7617 89.7559C42.5117 89.541 42.1953 89.4336 41.8125 89.4336C41.418 89.4336 41.1094 89.5195 40.8867 89.6914C40.6641 89.8633 40.5527 90.0879 40.5527 90.3652C40.5527 90.627 40.6562 90.8242 40.8633 90.957C41.0703 91.0898 41.4434 91.2168 41.9824 91.3379C42.5254 91.459 42.9648 91.6035 43.3008 91.7715C43.6367 91.9395 43.8848 92.1426 44.0449 92.3809C44.209 92.6152 44.291 92.9023 44.291 93.2422C44.291 93.8086 44.0645 94.2637 43.6113 94.6074C43.1582 94.9473 42.5703 95.1172 41.8477 95.1172C41.3398 95.1172 40.8906 95.0273 40.5 94.8477C40.1094 94.668 39.8027 94.418 39.5801 94.0977C39.3613 93.7734 39.252 93.4238 39.252 93.0488H40.3359C40.3555 93.4121 40.5 93.7012 40.7695 93.916C41.043 94.127 41.4023 94.2324 41.8477 94.2324C42.2578 94.2324 42.5859 94.1504 42.832 93.9863C43.082 93.8184 43.207 93.5957 43.207 93.3184ZM47.1738 87.125V88.6602H48.3574V89.498H47.1738V93.4297C47.1738 93.6836 47.2266 93.875 47.332 94.0039C47.4375 94.1289 47.6172 94.1914 47.8711 94.1914C47.9961 94.1914 48.168 94.168 48.3867 94.1211V95C48.1016 95.0781 47.8242 95.1172 47.5547 95.1172C47.0703 95.1172 46.7051 94.9707 46.459 94.6777C46.2129 94.3848 46.0898 93.9688 46.0898 93.4297V89.498H44.9355V88.6602H46.0898V87.125H47.1738ZM52.6934 89.6328C52.5293 89.6055 52.3516 89.5918 52.1602 89.5918C51.4492 89.5918 50.9668 89.8945 50.7129 90.5V95H49.6289V88.6602H50.6836L50.7012 89.3926C51.0566 88.8262 51.5605 88.543 52.2129 88.543C52.4238 88.543 52.584 88.5703 52.6934 88.625V89.6328ZM55.875 93.4121L57.3516 88.6602H58.5117L55.9629 95.9785C55.5684 97.0332 54.9414 97.5605 54.082 97.5605L53.877 97.543L53.4727 97.4668V96.5879L53.7656 96.6113C54.1328 96.6113 54.418 96.5371 54.6211 96.3887C54.8281 96.2402 54.998 95.9688 55.1309 95.5742L55.3711 94.9297L53.1094 88.6602H54.293L55.875 93.4121Z" fill="black"/>
<path d="M103.102 45.6289H97.8633V44.2461H103.102V45.6289ZM103.102 48.166H97.8633V46.7832H103.102V48.166Z" fill="black"/>
<path d="M103.102 86.6289H97.8633V85.2461H103.102V86.6289ZM103.102 89.166H97.8633V87.7832H103.102V89.166Z" fill="black"/>
<path d="M143.883 43.6953C143.883 44.1211 143.77 44.5 143.543 44.832C143.32 45.1641 143.018 45.4238 142.635 45.6113C143.08 45.8027 143.432 46.082 143.689 46.4492C143.951 46.8164 144.082 47.2324 144.082 47.6973C144.082 48.4355 143.832 49.0234 143.332 49.4609C142.836 49.8984 142.182 50.1172 141.369 50.1172C140.549 50.1172 139.891 49.8984 139.395 49.4609C138.902 49.0195 138.656 48.4316 138.656 47.6973C138.656 47.2363 138.781 46.8203 139.031 46.4492C139.285 46.0781 139.635 45.7969 140.08 45.6055C139.701 45.418 139.402 45.1582 139.184 44.8262C138.965 44.4941 138.855 44.1172 138.855 43.6953C138.855 42.9766 139.086 42.4062 139.547 41.9844C140.008 41.5625 140.615 41.3516 141.369 41.3516C142.119 41.3516 142.725 41.5625 143.186 41.9844C143.65 42.4062 143.883 42.9766 143.883 43.6953ZM142.998 47.6738C142.998 47.1973 142.846 46.8086 142.541 46.5078C142.24 46.207 141.846 46.0566 141.357 46.0566C140.869 46.0566 140.477 46.2051 140.18 46.502C139.887 46.7988 139.74 47.1895 139.74 47.6738C139.74 48.1582 139.883 48.5391 140.168 48.8164C140.457 49.0938 140.857 49.2324 141.369 49.2324C141.877 49.2324 142.275 49.0938 142.564 48.8164C142.854 48.5352 142.998 48.1543 142.998 47.6738ZM141.369 42.2422C140.943 42.2422 140.598 42.375 140.332 42.6406C140.07 42.9023 139.939 43.2598 139.939 43.7129C139.939 44.1465 140.068 44.498 140.326 44.7676C140.588 45.0332 140.936 45.166 141.369 45.166C141.803 45.166 142.148 45.0332 142.406 44.7676C142.668 44.498 142.799 44.1465 142.799 43.7129C142.799 43.2793 142.664 42.9258 142.395 42.6523C142.125 42.3789 141.783 42.2422 141.369 42.2422ZM150.621 43.6953C150.621 44.1211 150.508 44.5 150.281 44.832C150.059 45.1641 149.756 45.4238 149.373 45.6113C149.818 45.8027 150.17 46.082 150.428 46.4492C150.689 46.8164 150.82 47.2324 150.82 47.6973C150.82 48.4355 150.57 49.0234 150.07 49.4609C149.574 49.8984 148.92 50.1172 148.107 50.1172C147.287 50.1172 146.629 49.8984 146.133 49.4609C145.641 49.0195 145.395 48.4316 145.395 47.6973C145.395 47.2363 145.52 46.8203 145.77 46.4492C146.023 46.0781 146.373 45.7969 146.818 45.6055C146.439 45.418 146.141 45.1582 145.922 44.8262C145.703 44.4941 145.594 44.1172 145.594 43.6953C145.594 42.9766 145.824 42.4062 146.285 41.9844C146.746 41.5625 147.354 41.3516 148.107 41.3516C148.857 41.3516 149.463 41.5625 149.924 41.9844C150.389 42.4062 150.621 42.9766 150.621 43.6953ZM149.736 47.6738C149.736 47.1973 149.584 46.8086 149.279 46.5078C148.979 46.207 148.584 46.0566 148.096 46.0566C147.607 46.0566 147.215 46.2051 146.918 46.502C146.625 46.7988 146.479 47.1895 146.479 47.6738C146.479 48.1582 146.621 48.5391 146.906 48.8164C147.195 49.0938 147.596 49.2324 148.107 49.2324C148.615 49.2324 149.014 49.0938 149.303 48.8164C149.592 48.5352 149.736 48.1543 149.736 47.6738ZM148.107 42.2422C147.682 42.2422 147.336 42.375 147.07 42.6406C146.809 42.9023 146.678 43.2598 146.678 43.7129C146.678 44.1465 146.807 44.498 147.064 44.7676C147.326 45.0332 147.674 45.166 148.107 45.166C148.541 45.166 148.887 45.0332 149.145 44.7676C149.406 44.498 149.537 44.1465 149.537 43.7129C149.537 43.2793 149.402 42.9258 149.133 42.6523C148.863 42.3789 148.521 42.2422 148.107 42.2422Z" fill="black"/>
<path d="M6.83984 166.66L6.86914 167.363C7.33398 166.816 7.96094 166.543 8.75 166.543C9.63672 166.543 10.2402 166.883 10.5605 167.562C10.7715 167.258 11.0449 167.012 11.3809 166.824C11.7207 166.637 12.1211 166.543 12.582 166.543C13.9727 166.543 14.6797 167.279 14.7031 168.752V173H13.6191V168.816C13.6191 168.363 13.5156 168.025 13.3086 167.803C13.1016 167.576 12.7539 167.463 12.2656 167.463C11.8633 167.463 11.5293 167.584 11.2637 167.826C10.998 168.064 10.8438 168.387 10.8008 168.793V173H9.71094V168.846C9.71094 167.924 9.25977 167.463 8.35742 167.463C7.64648 167.463 7.16016 167.766 6.89844 168.371V173H5.81445V166.66H6.83984ZM20.2578 173C20.1953 172.875 20.1445 172.652 20.1055 172.332C19.6016 172.855 19 173.117 18.3008 173.117C17.6758 173.117 17.1621 172.941 16.7598 172.59C16.3613 172.234 16.1621 171.785 16.1621 171.242C16.1621 170.582 16.4121 170.07 16.9121 169.707C17.416 169.34 18.123 169.156 19.0332 169.156H20.0879V168.658C20.0879 168.279 19.9746 167.979 19.748 167.756C19.5215 167.529 19.1875 167.416 18.7461 167.416C18.3594 167.416 18.0352 167.514 17.7734 167.709C17.5117 167.904 17.3809 168.141 17.3809 168.418H16.291C16.291 168.102 16.4023 167.797 16.625 167.504C16.8516 167.207 17.1562 166.973 17.5391 166.801C17.9258 166.629 18.3496 166.543 18.8105 166.543C19.541 166.543 20.1133 166.727 20.5273 167.094C20.9414 167.457 21.1562 167.959 21.1719 168.6V171.518C21.1719 172.1 21.2461 172.562 21.3945 172.906V173H20.2578ZM18.459 172.174C18.7988 172.174 19.1211 172.086 19.4258 171.91C19.7305 171.734 19.9512 171.506 20.0879 171.225V169.924H19.2383C17.9102 169.924 17.2461 170.312 17.2461 171.09C17.2461 171.43 17.3594 171.695 17.5859 171.887C17.8125 172.078 18.1035 172.174 18.459 172.174ZM24.3418 165.125V166.66H25.5254V167.498H24.3418V171.43C24.3418 171.684 24.3945 171.875 24.5 172.004C24.6055 172.129 24.7852 172.191 25.0391 172.191C25.1641 172.191 25.3359 172.168 25.5547 172.121V173C25.2695 173.078 24.9922 173.117 24.7227 173.117C24.2383 173.117 23.873 172.971 23.627 172.678C23.3809 172.385 23.2578 171.969 23.2578 171.43V167.498H22.1035V166.66H23.2578V165.125H24.3418ZM27.8809 167.428C28.3613 166.838 28.9863 166.543 29.7559 166.543C31.0957 166.543 31.7715 167.299 31.7832 168.811V173H30.6992V168.805C30.6953 168.348 30.5898 168.01 30.3828 167.791C30.1797 167.572 29.8613 167.463 29.4277 167.463C29.0762 167.463 28.7676 167.557 28.502 167.744C28.2363 167.932 28.0293 168.178 27.8809 168.482V173H26.7969V164H27.8809V167.428ZM37.9766 173.885H32.6094V173H37.9766V173.885ZM41.3633 172.232C41.75 172.232 42.0879 172.115 42.377 171.881C42.666 171.646 42.8262 171.354 42.8574 171.002H43.8828C43.8633 171.365 43.7383 171.711 43.5078 172.039C43.2773 172.367 42.9688 172.629 42.582 172.824C42.1992 173.02 41.793 173.117 41.3633 173.117C40.5 173.117 39.8125 172.83 39.3008 172.256C38.793 171.678 38.5391 170.889 38.5391 169.889V169.707C38.5391 169.09 38.6523 168.541 38.8789 168.061C39.1055 167.58 39.4297 167.207 39.8516 166.941C40.2773 166.676 40.7793 166.543 41.3574 166.543C42.0684 166.543 42.6582 166.756 43.127 167.182C43.5996 167.607 43.8516 168.16 43.8828 168.84H42.8574C42.8262 168.43 42.6699 168.094 42.3887 167.832C42.1113 167.566 41.7676 167.434 41.3574 167.434C40.8066 167.434 40.3789 167.633 40.0742 168.031C39.7734 168.426 39.623 168.998 39.623 169.748V169.953C39.623 170.684 39.7734 171.246 40.0742 171.641C40.375 172.035 40.8047 172.232 41.3633 172.232ZM46.1855 167.428C46.666 166.838 47.291 166.543 48.0605 166.543C49.4004 166.543 50.0762 167.299 50.0879 168.811V173H49.0039V168.805C49 168.348 48.8945 168.01 48.6875 167.791C48.4844 167.572 48.166 167.463 47.7324 167.463C47.3809 167.463 47.0723 167.557 46.8066 167.744C46.541 167.932 46.334 168.178 46.1855 168.482V173H45.1016V164H46.1855V167.428ZM54.3418 173.117C53.4824 173.117 52.7832 172.836 52.2441 172.273C51.7051 171.707 51.4355 170.951 51.4355 170.006V169.807C51.4355 169.178 51.5547 168.617 51.793 168.125C52.0352 167.629 52.3711 167.242 52.8008 166.965C53.2344 166.684 53.7031 166.543 54.207 166.543C55.0312 166.543 55.6719 166.814 56.1289 167.357C56.5859 167.9 56.8145 168.678 56.8145 169.689V170.141H52.5195C52.5352 170.766 52.7168 171.271 53.0645 171.658C53.416 172.041 53.8613 172.232 54.4004 172.232C54.7832 172.232 55.1074 172.154 55.373 171.998C55.6387 171.842 55.8711 171.635 56.0703 171.377L56.7324 171.893C56.2012 172.709 55.4043 173.117 54.3418 173.117ZM54.207 167.434C53.7695 167.434 53.4023 167.594 53.1055 167.914C52.8086 168.23 52.625 168.676 52.5547 169.25H55.7305V169.168C55.6992 168.617 55.5508 168.191 55.2852 167.891C55.0195 167.586 54.6602 167.434 54.207 167.434ZM59.0938 166.66L59.123 167.363C59.5879 166.816 60.2148 166.543 61.0039 166.543C61.8906 166.543 62.4941 166.883 62.8145 167.562C63.0254 167.258 63.2988 167.012 63.6348 166.824C63.9746 166.637 64.375 166.543 64.8359 166.543C66.2266 166.543 66.9336 167.279 66.957 168.752V173H65.873V168.816C65.873 168.363 65.7695 168.025 65.5625 167.803C65.3555 167.576 65.0078 167.463 64.5195 167.463C64.1172 167.463 63.7832 167.584 63.5176 167.826C63.252 168.064 63.0977 168.387 63.0547 168.793V173H61.9648V168.846C61.9648 167.924 61.5137 167.463 60.6113 167.463C59.9004 167.463 59.4141 167.766 59.1523 168.371V173H58.0684V166.66H59.0938Z" fill="black"/>
<path d="M102.102 168.629H96.8633V167.246H102.102V168.629ZM102.102 171.166H96.8633V169.783H102.102V171.166Z" fill="black"/>
<path d="M142.883 166.695C142.883 167.121 142.77 167.5 142.543 167.832C142.32 168.164 142.018 168.424 141.635 168.611C142.08 168.803 142.432 169.082 142.689 169.449C142.951 169.816 143.082 170.232 143.082 170.697C143.082 171.436 142.832 172.023 142.332 172.461C141.836 172.898 141.182 173.117 140.369 173.117C139.549 173.117 138.891 172.898 138.395 172.461C137.902 172.02 137.656 171.432 137.656 170.697C137.656 170.236 137.781 169.82 138.031 169.449C138.285 169.078 138.635 168.797 139.08 168.605C138.701 168.418 138.402 168.158 138.184 167.826C137.965 167.494 137.855 167.117 137.855 166.695C137.855 165.977 138.086 165.406 138.547 164.984C139.008 164.562 139.615 164.352 140.369 164.352C141.119 164.352 141.725 164.562 142.186 164.984C142.65 165.406 142.883 165.977 142.883 166.695ZM141.998 170.674C141.998 170.197 141.846 169.809 141.541 169.508C141.24 169.207 140.846 169.057 140.357 169.057C139.869 169.057 139.477 169.205 139.18 169.502C138.887 169.799 138.74 170.189 138.74 170.674C138.74 171.158 138.883 171.539 139.168 171.816C139.457 172.094 139.857 172.232 140.369 172.232C140.877 172.232 141.275 172.094 141.564 171.816C141.854 171.535 141.998 171.154 141.998 170.674ZM140.369 165.242C139.943 165.242 139.598 165.375 139.332 165.641C139.07 165.902 138.939 166.26 138.939 166.713C138.939 167.146 139.068 167.498 139.326 167.768C139.588 168.033 139.936 168.166 140.369 168.166C140.803 168.166 141.148 168.033 141.406 167.768C141.668 167.498 141.799 167.146 141.799 166.713C141.799 166.279 141.664 165.926 141.395 165.652C141.125 165.379 140.783 165.242 140.369 165.242ZM149.621 166.695C149.621 167.121 149.508 167.5 149.281 167.832C149.059 168.164 148.756 168.424 148.373 168.611C148.818 168.803 149.17 169.082 149.428 169.449C149.689 169.816 149.82 170.232 149.82 170.697C149.82 171.436 149.57 172.023 149.07 172.461C148.574 172.898 147.92 173.117 147.107 173.117C146.287 173.117 145.629 172.898 145.133 172.461C144.641 172.02 144.395 171.432 144.395 170.697C144.395 170.236 144.52 169.82 144.77 169.449C145.023 169.078 145.373 168.797 145.818 168.605C145.439 168.418 145.141 168.158 144.922 167.826C144.703 167.494 144.594 167.117 144.594 166.695C144.594 165.977 144.824 165.406 145.285 164.984C145.746 164.562 146.354 164.352 147.107 164.352C147.857 164.352 148.463 164.562 148.924 164.984C149.389 165.406 149.621 165.977 149.621 166.695ZM148.736 170.674C148.736 170.197 148.584 169.809 148.279 169.508C147.979 169.207 147.584 169.057 147.096 169.057C146.607 169.057 146.215 169.205 145.918 169.502C145.625 169.799 145.479 170.189 145.479 170.674C145.479 171.158 145.621 171.539 145.906 171.816C146.195 172.094 146.596 172.232 147.107 172.232C147.615 172.232 148.014 172.094 148.303 171.816C148.592 171.535 148.736 171.154 148.736 170.674ZM147.107 165.242C146.682 165.242 146.336 165.375 146.07 165.641C145.809 165.902 145.678 166.26 145.678 166.713C145.678 167.146 145.807 167.498 146.064 167.768C146.326 168.033 146.674 168.166 147.107 168.166C147.541 168.166 147.887 168.033 148.145 167.768C148.406 167.498 148.537 167.146 148.537 166.713C148.537 166.279 148.402 165.926 148.133 165.652C147.863 165.379 147.521 165.242 147.107 165.242ZM151.262 174.699L150.646 174.277C151.014 173.766 151.205 173.238 151.221 172.695V171.717H152.281V172.566C152.281 172.961 152.184 173.355 151.988 173.75C151.797 174.145 151.555 174.461 151.262 174.699ZM161.691 166.695C161.691 167.121 161.578 167.5 161.352 167.832C161.129 168.164 160.826 168.424 160.443 168.611C160.889 168.803 161.24 169.082 161.498 169.449C161.76 169.816 161.891 170.232 161.891 170.697C161.891 171.436 161.641 172.023 161.141 172.461C160.645 172.898 159.99 173.117 159.178 173.117C158.357 173.117 157.699 172.898 157.203 172.461C156.711 172.02 156.465 171.432 156.465 170.697C156.465 170.236 156.59 169.82 156.84 169.449C157.094 169.078 157.443 168.797 157.889 168.605C157.51 168.418 157.211 168.158 156.992 167.826C156.773 167.494 156.664 167.117 156.664 166.695C156.664 165.977 156.895 165.406 157.355 164.984C157.816 164.562 158.424 164.352 159.178 164.352C159.928 164.352 160.533 164.562 160.994 164.984C161.459 165.406 161.691 165.977 161.691 166.695ZM160.807 170.674C160.807 170.197 160.654 169.809 160.35 169.508C160.049 169.207 159.654 169.057 159.166 169.057C158.678 169.057 158.285 169.205 157.988 169.502C157.695 169.799 157.549 170.189 157.549 170.674C157.549 171.158 157.691 171.539 157.977 171.816C158.266 172.094 158.666 172.232 159.178 172.232C159.686 172.232 160.084 172.094 160.373 171.816C160.662 171.535 160.807 171.154 160.807 170.674ZM159.178 165.242C158.752 165.242 158.406 165.375 158.141 165.641C157.879 165.902 157.748 166.26 157.748 166.713C157.748 167.146 157.877 167.498 158.135 167.768C158.396 168.033 158.744 168.166 159.178 168.166C159.611 168.166 159.957 168.033 160.215 167.768C160.477 167.498 160.607 167.146 160.607 166.713C160.607 166.279 160.473 165.926 160.203 165.652C159.934 165.379 159.592 165.242 159.178 165.242ZM168.764 165.078L165.23 173H164.094L167.615 165.359H162.998V164.469H168.764V165.078ZM170.129 172.432C170.129 172.244 170.184 172.088 170.293 171.963C170.406 171.838 170.574 171.775 170.797 171.775C171.02 171.775 171.188 171.838 171.301 171.963C171.418 172.088 171.477 172.244 171.477 172.432C171.477 172.611 171.418 172.762 171.301 172.883C171.188 173.004 171.02 173.064 170.797 173.064C170.574 173.064 170.406 173.004 170.293 172.883C170.184 172.762 170.129 172.611 170.129 172.432ZM177.412 164.463V165.383H177.213C176.369 165.398 175.697 165.648 175.197 166.133C174.697 166.617 174.408 167.299 174.33 168.178C174.779 167.662 175.393 167.404 176.17 167.404C176.912 167.404 177.504 167.666 177.945 168.189C178.391 168.713 178.613 169.389 178.613 170.217C178.613 171.096 178.373 171.799 177.893 172.326C177.416 172.854 176.775 173.117 175.971 173.117C175.154 173.117 174.492 172.805 173.984 172.18C173.477 171.551 173.223 170.742 173.223 169.754V169.338C173.223 167.768 173.557 166.568 174.225 165.74C174.896 164.908 175.895 164.482 177.219 164.463H177.412ZM175.988 168.307C175.617 168.307 175.275 168.418 174.963 168.641C174.65 168.863 174.434 169.143 174.312 169.479V169.877C174.312 170.58 174.471 171.146 174.787 171.576C175.104 172.006 175.498 172.221 175.971 172.221C176.459 172.221 176.842 172.041 177.119 171.682C177.4 171.322 177.541 170.852 177.541 170.27C177.541 169.684 177.398 169.211 177.113 168.852C176.832 168.488 176.457 168.307 175.988 168.307ZM184.15 164.463V165.383H183.951C183.107 165.398 182.436 165.648 181.936 166.133C181.436 166.617 181.146 167.299 181.068 168.178C181.518 167.662 182.131 167.404 182.908 167.404C183.65 167.404 184.242 167.666 184.684 168.189C185.129 168.713 185.352 169.389 185.352 170.217C185.352 171.096 185.111 171.799 184.631 172.326C184.154 172.854 183.514 173.117 182.709 173.117C181.893 173.117 181.23 172.805 180.723 172.18C180.215 171.551 179.961 170.742 179.961 169.754V169.338C179.961 167.768 180.295 166.568 180.963 165.74C181.635 164.908 182.633 164.482 183.957 164.463H184.15ZM182.727 168.307C182.355 168.307 182.014 168.418 181.701 168.641C181.389 168.863 181.172 169.143 181.051 169.479V169.877C181.051 170.58 181.209 171.146 181.525 171.576C181.842 172.006 182.236 172.221 182.709 172.221C183.197 172.221 183.58 172.041 183.857 171.682C184.139 171.322 184.279 170.852 184.279 170.27C184.279 169.684 184.137 169.211 183.852 168.852C183.57 168.488 183.195 168.307 182.727 168.307ZM190.889 164.463V165.383H190.689C189.846 165.398 189.174 165.648 188.674 166.133C188.174 166.617 187.885 167.299 187.807 168.178C188.256 167.662 188.869 167.404 189.646 167.404C190.389 167.404 190.98 167.666 191.422 168.189C191.867 168.713 192.09 169.389 192.09 170.217C192.09 171.096 191.85 171.799 191.369 172.326C190.893 172.854 190.252 173.117 189.447 173.117C188.631 173.117 187.969 172.805 187.461 172.18C186.953 171.551 186.699 170.742 186.699 169.754V169.338C186.699 167.768 187.033 166.568 187.701 165.74C188.373 164.908 189.371 164.482 190.695 164.463H190.889ZM189.465 168.307C189.094 168.307 188.752 168.418 188.439 168.641C188.127 168.863 187.91 169.143 187.789 169.479V169.877C187.789 170.58 187.947 171.146 188.264 171.576C188.58 172.006 188.975 172.221 189.447 172.221C189.936 172.221 190.318 172.041 190.596 171.682C190.877 171.322 191.018 170.852 191.018 170.27C191.018 169.684 190.875 169.211 190.59 168.852C190.309 168.488 189.934 168.307 189.465 168.307ZM197.627 164.463V165.383H197.428C196.584 165.398 195.912 165.648 195.412 166.133C194.912 166.617 194.623 167.299 194.545 168.178C194.994 167.662 195.607 167.404 196.385 167.404C197.127 167.404 197.719 167.666 198.16 168.189C198.605 168.713 198.828 169.389 198.828 170.217C198.828 171.096 198.588 171.799 198.107 172.326C197.631 172.854 196.99 173.117 196.186 173.117C195.369 173.117 194.707 172.805 194.199 172.18C193.691 171.551 193.438 170.742 193.438 169.754V169.338C193.438 167.768 193.771 166.568 194.439 165.74C195.111 164.908 196.109 164.482 197.434 164.463H197.627ZM196.203 168.307C195.832 168.307 195.49 168.418 195.178 168.641C194.865 168.863 194.648 169.143 194.527 169.479V169.877C194.527 170.58 194.686 171.146 195.002 171.576C195.318 172.006 195.713 172.221 196.186 172.221C196.674 172.221 197.057 172.041 197.334 171.682C197.615 171.322 197.756 170.852 197.756 170.27C197.756 169.684 197.613 169.211 197.328 168.852C197.047 168.488 196.672 168.307 196.203 168.307ZM205.619 165.078L202.086 173H200.949L204.471 165.359H199.854V164.469H205.619V165.078Z" fill="black"/>
<path d="M143.883 88.6953C143.883 89.1211 143.77 89.5 143.543 89.832C143.32 90.1641 143.018 90.4238 142.635 90.6113C143.08 90.8027 143.432 91.082 143.689 91.4492C143.951 91.8164 144.082 92.2324 144.082 92.6973C144.082 93.4355 143.832 94.0234 143.332 94.4609C142.836 94.8984 142.182 95.1172 141.369 95.1172C140.549 95.1172 139.891 94.8984 139.395 94.4609C138.902 94.0195 138.656 93.4316 138.656 92.6973C138.656 92.2363 138.781 91.8203 139.031 91.4492C139.285 91.0781 139.635 90.7969 140.08 90.6055C139.701 90.418 139.402 90.1582 139.184 89.8262C138.965 89.4941 138.855 89.1172 138.855 88.6953C138.855 87.9766 139.086 87.4062 139.547 86.9844C140.008 86.5625 140.615 86.3516 141.369 86.3516C142.119 86.3516 142.725 86.5625 143.186 86.9844C143.65 87.4062 143.883 87.9766 143.883 88.6953ZM142.998 92.6738C142.998 92.1973 142.846 91.8086 142.541 91.5078C142.24 91.207 141.846 91.0566 141.357 91.0566C140.869 91.0566 140.477 91.2051 140.18 91.502C139.887 91.7988 139.74 92.1895 139.74 92.6738C139.74 93.1582 139.883 93.5391 140.168 93.8164C140.457 94.0938 140.857 94.2324 141.369 94.2324C141.877 94.2324 142.275 94.0938 142.564 93.8164C142.854 93.5352 142.998 93.1543 142.998 92.6738ZM141.369 87.2422C140.943 87.2422 140.598 87.375 140.332 87.6406C140.07 87.9023 139.939 88.2598 139.939 88.7129C139.939 89.1465 140.068 89.498 140.326 89.7676C140.588 90.0332 140.936 90.166 141.369 90.166C141.803 90.166 142.148 90.0332 142.406 89.7676C142.668 89.498 142.799 89.1465 142.799 88.7129C142.799 88.2793 142.664 87.9258 142.395 87.6523C142.125 87.3789 141.783 87.2422 141.369 87.2422ZM150.955 87.0781L147.422 95H146.285L149.807 87.3594H145.189V86.4688H150.955V87.0781ZM152.32 94.4316C152.32 94.2441 152.375 94.0879 152.484 93.9629C152.598 93.8379 152.766 93.7754 152.988 93.7754C153.211 93.7754 153.379 93.8379 153.492 93.9629C153.609 94.0879 153.668 94.2441 153.668 94.4316C153.668 94.6113 153.609 94.7617 153.492 94.8828C153.379 95.0039 153.211 95.0645 152.988 95.0645C152.766 95.0645 152.598 95.0039 152.484 94.8828C152.375 94.7617 152.32 94.6113 152.32 94.4316ZM159.604 86.4629V87.3828H159.404C158.561 87.3984 157.889 87.6484 157.389 88.1328C156.889 88.6172 156.6 89.2988 156.521 90.1777C156.971 89.6621 157.584 89.4043 158.361 89.4043C159.104 89.4043 159.695 89.666 160.137 90.1895C160.582 90.7129 160.805 91.3887 160.805 92.2168C160.805 93.0957 160.564 93.7988 160.084 94.3262C159.607 94.8535 158.967 95.1172 158.162 95.1172C157.346 95.1172 156.684 94.8047 156.176 94.1797C155.668 93.5508 155.414 92.7422 155.414 91.7539V91.3379C155.414 89.7676 155.748 88.5684 156.416 87.7402C157.088 86.9082 158.086 86.4824 159.41 86.4629H159.604ZM158.18 90.3066C157.809 90.3066 157.467 90.418 157.154 90.6406C156.842 90.8633 156.625 91.1426 156.504 91.4785V91.877C156.504 92.5801 156.662 93.1465 156.979 93.5762C157.295 94.0059 157.689 94.2207 158.162 94.2207C158.65 94.2207 159.033 94.041 159.311 93.6816C159.592 93.3223 159.732 92.8516 159.732 92.2695C159.732 91.6836 159.59 91.2109 159.305 90.8516C159.023 90.4883 158.648 90.3066 158.18 90.3066ZM166.342 86.4629V87.3828H166.143C165.299 87.3984 164.627 87.6484 164.127 88.1328C163.627 88.6172 163.338 89.2988 163.26 90.1777C163.709 89.6621 164.322 89.4043 165.1 89.4043C165.842 89.4043 166.434 89.666 166.875 90.1895C167.32 90.7129 167.543 91.3887 167.543 92.2168C167.543 93.0957 167.303 93.7988 166.822 94.3262C166.346 94.8535 165.705 95.1172 164.9 95.1172C164.084 95.1172 163.422 94.8047 162.914 94.1797C162.406 93.5508 162.152 92.7422 162.152 91.7539V91.3379C162.152 89.7676 162.486 88.5684 163.154 87.7402C163.826 86.9082 164.824 86.4824 166.148 86.4629H166.342ZM164.918 90.3066C164.547 90.3066 164.205 90.418 163.893 90.6406C163.58 90.8633 163.363 91.1426 163.242 91.4785V91.877C163.242 92.5801 163.4 93.1465 163.717 93.5762C164.033 94.0059 164.428 94.2207 164.9 94.2207C165.389 94.2207 165.771 94.041 166.049 93.6816C166.33 93.3223 166.471 92.8516 166.471 92.2695C166.471 91.6836 166.328 91.2109 166.043 90.8516C165.762 90.4883 165.387 90.3066 164.918 90.3066ZM173.08 86.4629V87.3828H172.881C172.037 87.3984 171.365 87.6484 170.865 88.1328C170.365 88.6172 170.076 89.2988 169.998 90.1777C170.447 89.6621 171.061 89.4043 171.838 89.4043C172.58 89.4043 173.172 89.666 173.613 90.1895C174.059 90.7129 174.281 91.3887 174.281 92.2168C174.281 93.0957 174.041 93.7988 173.561 94.3262C173.084 94.8535 172.443 95.1172 171.639 95.1172C170.822 95.1172 170.16 94.8047 169.652 94.1797C169.145 93.5508 168.891 92.7422 168.891 91.7539V91.3379C168.891 89.7676 169.225 88.5684 169.893 87.7402C170.564 86.9082 171.562 86.4824 172.887 86.4629H173.08ZM171.656 90.3066C171.285 90.3066 170.943 90.418 170.631 90.6406C170.318 90.8633 170.102 91.1426 169.98 91.4785V91.877C169.98 92.5801 170.139 93.1465 170.455 93.5762C170.771 94.0059 171.166 94.2207 171.639 94.2207C172.127 94.2207 172.51 94.041 172.787 93.6816C173.068 93.3223 173.209 92.8516 173.209 92.2695C173.209 91.6836 173.066 91.2109 172.781 90.8516C172.5 90.4883 172.125 90.3066 171.656 90.3066ZM179.818 86.4629V87.3828H179.619C178.775 87.3984 178.104 87.6484 177.604 88.1328C177.104 88.6172 176.814 89.2988 176.736 90.1777C177.186 89.6621 177.799 89.4043 178.576 89.4043C179.318 89.4043 179.91 89.666 180.352 90.1895C180.797 90.7129 181.02 91.3887 181.02 92.2168C181.02 93.0957 180.779 93.7988 180.299 94.3262C179.822 94.8535 179.182 95.1172 178.377 95.1172C177.561 95.1172 176.898 94.8047 176.391 94.1797C175.883 93.5508 175.629 92.7422 175.629 91.7539V91.3379C175.629 89.7676 175.963 88.5684 176.631 87.7402C177.303 86.9082 178.301 86.4824 179.625 86.4629H179.818ZM178.395 90.3066C178.023 90.3066 177.682 90.418 177.369 90.6406C177.057 90.8633 176.84 91.1426 176.719 91.4785V91.877C176.719 92.5801 176.877 93.1465 177.193 93.5762C177.51 94.0059 177.904 94.2207 178.377 94.2207C178.865 94.2207 179.248 94.041 179.525 93.6816C179.807 93.3223 179.947 92.8516 179.947 92.2695C179.947 91.6836 179.805 91.2109 179.52 90.8516C179.238 90.4883 178.863 90.3066 178.395 90.3066ZM187.811 87.0781L184.277 95H183.141L186.662 87.3594H182.045V86.4688H187.811V87.0781Z" fill="black"/>
<rect x="1" y="73" width="211" height="36" fill="#6FCF97" fill-opacity="0.25"/>
<rect x="1" y="28" width="211" height="36" fill="#6FCF97" fill-opacity="0.25"/>
<rect y="151" width="211" height="36" fill="#6FCF97" fill-opacity="0.25"/>
<path d="M228.812 69.0566H225.115V72.0801H229.41V73H223.99V64.4688H229.352V65.3945H225.115V68.1367H228.812V69.0566ZM234.555 73C234.492 72.875 234.441 72.6523 234.402 72.332C233.898 72.8555 233.297 73.1172 232.598 73.1172C231.973 73.1172 231.459 72.9414 231.057 72.5898C230.658 72.2344 230.459 71.7852 230.459 71.2422C230.459 70.582 230.709 70.0703 231.209 69.707C231.713 69.3398 232.42 69.1562 233.33 69.1562H234.385V68.6582C234.385 68.2793 234.271 67.9785 234.045 67.7559C233.818 67.5293 233.484 67.416 233.043 67.416C232.656 67.416 232.332 67.5137 232.07 67.709C231.809 67.9043 231.678 68.1406 231.678 68.418H230.588C230.588 68.1016 230.699 67.7969 230.922 67.5039C231.148 67.207 231.453 66.9727 231.836 66.8008C232.223 66.6289 232.646 66.543 233.107 66.543C233.838 66.543 234.41 66.7266 234.824 67.0938C235.238 67.457 235.453 67.959 235.469 68.5996V71.5176C235.469 72.0996 235.543 72.5625 235.691 72.9062V73H234.555ZM232.756 72.1738C233.096 72.1738 233.418 72.0859 233.723 71.9102C234.027 71.7344 234.248 71.5059 234.385 71.2246V69.9238H233.535C232.207 69.9238 231.543 70.3125 231.543 71.0898C231.543 71.4297 231.656 71.6953 231.883 71.8867C232.109 72.0781 232.4 72.1738 232.756 72.1738ZM239.711 72.2324C240.098 72.2324 240.436 72.1152 240.725 71.8809C241.014 71.6465 241.174 71.3535 241.205 71.002H242.23C242.211 71.3652 242.086 71.7109 241.855 72.0391C241.625 72.3672 241.316 72.6289 240.93 72.8242C240.547 73.0195 240.141 73.1172 239.711 73.1172C238.848 73.1172 238.16 72.8301 237.648 72.2559C237.141 71.6777 236.887 70.8887 236.887 69.8887V69.707C236.887 69.0898 237 68.541 237.227 68.0605C237.453 67.5801 237.777 67.207 238.199 66.9414C238.625 66.6758 239.127 66.543 239.705 66.543C240.416 66.543 241.006 66.7559 241.475 67.1816C241.947 67.6074 242.199 68.1602 242.23 68.8398H241.205C241.174 68.4297 241.018 68.0938 240.736 67.832C240.459 67.5664 240.115 67.4336 239.705 67.4336C239.154 67.4336 238.727 67.6328 238.422 68.0312C238.121 68.4258 237.971 68.998 237.971 69.748V69.9531C237.971 70.6836 238.121 71.2461 238.422 71.6406C238.723 72.0352 239.152 72.2324 239.711 72.2324ZM244.533 67.4277C245.014 66.8379 245.639 66.543 246.408 66.543C247.748 66.543 248.424 67.2988 248.436 68.8105V73H247.352V68.8047C247.348 68.3477 247.242 68.0098 247.035 67.791C246.832 67.5723 246.514 67.4629 246.08 67.4629C245.729 67.4629 245.42 67.5566 245.154 67.7441C244.889 67.9316 244.682 68.1777 244.533 68.4824V73H243.449V64H244.533V67.4277ZM255.127 71.5293L256.697 66.6602H257.805L255.531 73H254.705L252.408 66.6602H253.516L255.127 71.5293ZM262.668 73C262.605 72.875 262.555 72.6523 262.516 72.332C262.012 72.8555 261.41 73.1172 260.711 73.1172C260.086 73.1172 259.572 72.9414 259.17 72.5898C258.771 72.2344 258.572 71.7852 258.572 71.2422C258.572 70.582 258.822 70.0703 259.322 69.707C259.826 69.3398 260.533 69.1562 261.443 69.1562H262.498V68.6582C262.498 68.2793 262.385 67.9785 262.158 67.7559C261.932 67.5293 261.598 67.416 261.156 67.416C260.77 67.416 260.445 67.5137 260.184 67.709C259.922 67.9043 259.791 68.1406 259.791 68.418H258.701C258.701 68.1016 258.812 67.7969 259.035 67.5039C259.262 67.207 259.566 66.9727 259.949 66.8008C260.336 66.6289 260.76 66.543 261.221 66.543C261.951 66.543 262.523 66.7266 262.938 67.0938C263.352 67.457 263.566 67.959 263.582 68.5996V71.5176C263.582 72.0996 263.656 72.5625 263.805 72.9062V73H262.668ZM260.869 72.1738C261.209 72.1738 261.531 72.0859 261.836 71.9102C262.141 71.7344 262.361 71.5059 262.498 71.2246V69.9238H261.648C260.32 69.9238 259.656 70.3125 259.656 71.0898C259.656 71.4297 259.77 71.6953 259.996 71.8867C260.223 72.0781 260.514 72.1738 260.869 72.1738ZM268.346 67.6328C268.182 67.6055 268.004 67.5918 267.812 67.5918C267.102 67.5918 266.619 67.8945 266.365 68.5V73H265.281V66.6602H266.336L266.354 67.3926C266.709 66.8262 267.213 66.543 267.865 66.543C268.076 66.543 268.236 66.5703 268.346 66.625V67.6328ZM270.525 73H269.441V66.6602H270.525V73ZM269.354 64.9785C269.354 64.8027 269.406 64.6543 269.512 64.5332C269.621 64.4121 269.781 64.3516 269.992 64.3516C270.203 64.3516 270.363 64.4121 270.473 64.5332C270.582 64.6543 270.637 64.8027 270.637 64.9785C270.637 65.1543 270.582 65.3008 270.473 65.418C270.363 65.5352 270.203 65.5938 269.992 65.5938C269.781 65.5938 269.621 65.5352 269.512 65.418C269.406 65.3008 269.354 65.1543 269.354 64.9785ZM276.18 73C276.117 72.875 276.066 72.6523 276.027 72.332C275.523 72.8555 274.922 73.1172 274.223 73.1172C273.598 73.1172 273.084 72.9414 272.682 72.5898C272.283 72.2344 272.084 71.7852 272.084 71.2422C272.084 70.582 272.334 70.0703 272.834 69.707C273.338 69.3398 274.045 69.1562 274.955 69.1562H276.01V68.6582C276.01 68.2793 275.896 67.9785 275.67 67.7559C275.443 67.5293 275.109 67.416 274.668 67.416C274.281 67.416 273.957 67.5137 273.695 67.709C273.434 67.9043 273.303 68.1406 273.303 68.418H272.213C272.213 68.1016 272.324 67.7969 272.547 67.5039C272.773 67.207 273.078 66.9727 273.461 66.8008C273.848 66.6289 274.271 66.543 274.732 66.543C275.463 66.543 276.035 66.7266 276.449 67.0938C276.863 67.457 277.078 67.959 277.094 68.5996V71.5176C277.094 72.0996 277.168 72.5625 277.316 72.9062V73H276.18ZM274.381 72.1738C274.721 72.1738 275.043 72.0859 275.348 71.9102C275.652 71.7344 275.873 71.5059 276.01 71.2246V69.9238H275.16C273.832 69.9238 273.168 70.3125 273.168 71.0898C273.168 71.4297 273.281 71.6953 273.508 71.8867C273.734 72.0781 274.025 72.1738 274.381 72.1738ZM284.16 69.9004C284.16 70.8691 283.938 71.6484 283.492 72.2383C283.047 72.8242 282.449 73.1172 281.699 73.1172C280.898 73.1172 280.279 72.834 279.842 72.2676L279.789 73H278.793V64H279.877V67.3574C280.314 66.8145 280.918 66.543 281.688 66.543C282.457 66.543 283.061 66.834 283.498 67.416C283.939 67.998 284.16 68.7949 284.16 69.8066V69.9004ZM283.076 69.7773C283.076 69.0391 282.934 68.4688 282.648 68.0664C282.363 67.6641 281.953 67.4629 281.418 67.4629C280.703 67.4629 280.189 67.7949 279.877 68.459V71.2012C280.209 71.8652 280.727 72.1973 281.43 72.1973C281.949 72.1973 282.354 71.9961 282.643 71.5938C282.932 71.1914 283.076 70.5859 283.076 69.7773ZM286.709 73H285.625V64H286.709V73ZM291.08 73.1172C290.221 73.1172 289.521 72.8359 288.982 72.2734C288.443 71.707 288.174 70.9512 288.174 70.0059V69.8066C288.174 69.1777 288.293 68.6172 288.531 68.125C288.773 67.6289 289.109 67.2422 289.539 66.9648C289.973 66.6836 290.441 66.543 290.945 66.543C291.77 66.543 292.41 66.8145 292.867 67.3574C293.324 67.9004 293.553 68.6777 293.553 69.6895V70.1406H289.258C289.273 70.7656 289.455 71.2715 289.803 71.6582C290.154 72.041 290.6 72.2324 291.139 72.2324C291.521 72.2324 291.846 72.1543 292.111 71.998C292.377 71.8418 292.609 71.6348 292.809 71.377L293.471 71.8926C292.939 72.709 292.143 73.1172 291.08 73.1172ZM290.945 67.4336C290.508 67.4336 290.141 67.5938 289.844 67.9141C289.547 68.2305 289.363 68.6758 289.293 69.25H292.469V69.168C292.438 68.6172 292.289 68.1914 292.023 67.8906C291.758 67.5859 291.398 67.4336 290.945 67.4336ZM300.332 72.2324C300.719 72.2324 301.057 72.1152 301.346 71.8809C301.635 71.6465 301.795 71.3535 301.826 71.002H302.852C302.832 71.3652 302.707 71.7109 302.477 72.0391C302.246 72.3672 301.938 72.6289 301.551 72.8242C301.168 73.0195 300.762 73.1172 300.332 73.1172C299.469 73.1172 298.781 72.8301 298.27 72.2559C297.762 71.6777 297.508 70.8887 297.508 69.8887V69.707C297.508 69.0898 297.621 68.541 297.848 68.0605C298.074 67.5801 298.398 67.207 298.82 66.9414C299.246 66.6758 299.748 66.543 300.326 66.543C301.037 66.543 301.627 66.7559 302.096 67.1816C302.568 67.6074 302.82 68.1602 302.852 68.8398H301.826C301.795 68.4297 301.639 68.0938 301.357 67.832C301.08 67.5664 300.736 67.4336 300.326 67.4336C299.775 67.4336 299.348 67.6328 299.043 68.0312C298.742 68.4258 298.592 68.998 298.592 69.748V69.9531C298.592 70.6836 298.742 71.2461 299.043 71.6406C299.344 72.0352 299.773 72.2324 300.332 72.2324ZM303.783 69.7715C303.783 69.1504 303.904 68.5918 304.146 68.0957C304.393 67.5996 304.732 67.2168 305.166 66.9473C305.604 66.6777 306.102 66.543 306.66 66.543C307.523 66.543 308.221 66.8418 308.752 67.4395C309.287 68.0371 309.555 68.832 309.555 69.8242V69.9004C309.555 70.5176 309.436 71.0723 309.197 71.5645C308.963 72.0527 308.625 72.4336 308.184 72.707C307.746 72.9805 307.242 73.1172 306.672 73.1172C305.812 73.1172 305.115 72.8184 304.58 72.2207C304.049 71.623 303.783 70.832 303.783 69.8477V69.7715ZM304.873 69.9004C304.873 70.6035 305.035 71.168 305.359 71.5938C305.688 72.0195 306.125 72.2324 306.672 72.2324C307.223 72.2324 307.66 72.0176 307.984 71.5879C308.309 71.1543 308.471 70.5488 308.471 69.7715C308.471 69.0762 308.305 68.5137 307.973 68.084C307.645 67.6504 307.207 67.4336 306.66 67.4336C306.125 67.4336 305.693 67.6465 305.365 68.0723C305.037 68.498 304.873 69.1074 304.873 69.9004ZM311.939 66.6602L311.975 67.457C312.459 66.8477 313.092 66.543 313.873 66.543C315.213 66.543 315.889 67.2988 315.9 68.8105V73H314.816V68.8047C314.812 68.3477 314.707 68.0098 314.5 67.791C314.297 67.5723 313.979 67.4629 313.545 67.4629C313.193 67.4629 312.885 67.5566 312.619 67.7441C312.354 67.9316 312.146 68.1777 311.998 68.4824V73H310.914V66.6602H311.939ZM319.006 65.125V66.6602H320.189V67.498H319.006V71.4297C319.006 71.6836 319.059 71.875 319.164 72.0039C319.27 72.1289 319.449 72.1914 319.703 72.1914C319.828 72.1914 320 72.168 320.219 72.1211V73C319.934 73.0781 319.656 73.1172 319.387 73.1172C318.902 73.1172 318.537 72.9707 318.291 72.6777C318.045 72.3848 317.922 71.9688 317.922 71.4297V67.498H316.768V66.6602H317.922V65.125H319.006ZM325.375 73C325.312 72.875 325.262 72.6523 325.223 72.332C324.719 72.8555 324.117 73.1172 323.418 73.1172C322.793 73.1172 322.279 72.9414 321.877 72.5898C321.479 72.2344 321.279 71.7852 321.279 71.2422C321.279 70.582 321.529 70.0703 322.029 69.707C322.533 69.3398 323.24 69.1562 324.15 69.1562H325.205V68.6582C325.205 68.2793 325.092 67.9785 324.865 67.7559C324.639 67.5293 324.305 67.416 323.863 67.416C323.477 67.416 323.152 67.5137 322.891 67.709C322.629 67.9043 322.498 68.1406 322.498 68.418H321.408C321.408 68.1016 321.52 67.7969 321.742 67.5039C321.969 67.207 322.273 66.9727 322.656 66.8008C323.043 66.6289 323.467 66.543 323.928 66.543C324.658 66.543 325.23 66.7266 325.645 67.0938C326.059 67.457 326.273 67.959 326.289 68.5996V71.5176C326.289 72.0996 326.363 72.5625 326.512 72.9062V73H325.375ZM323.576 72.1738C323.916 72.1738 324.238 72.0859 324.543 71.9102C324.848 71.7344 325.068 71.5059 325.205 71.2246V69.9238H324.355C323.027 69.9238 322.363 70.3125 322.363 71.0898C322.363 71.4297 322.477 71.6953 322.703 71.8867C322.93 72.0781 323.221 72.1738 323.576 72.1738ZM329.166 73H328.082V66.6602H329.166V73ZM327.994 64.9785C327.994 64.8027 328.047 64.6543 328.152 64.5332C328.262 64.4121 328.422 64.3516 328.633 64.3516C328.844 64.3516 329.004 64.4121 329.113 64.5332C329.223 64.6543 329.277 64.8027 329.277 64.9785C329.277 65.1543 329.223 65.3008 329.113 65.418C329.004 65.5352 328.844 65.5938 328.633 65.5938C328.422 65.5938 328.262 65.5352 328.152 65.418C328.047 65.3008 327.994 65.1543 327.994 64.9785ZM331.932 66.6602L331.967 67.457C332.451 66.8477 333.084 66.543 333.865 66.543C335.205 66.543 335.881 67.2988 335.893 68.8105V73H334.809V68.8047C334.805 68.3477 334.699 68.0098 334.492 67.791C334.289 67.5723 333.971 67.4629 333.537 67.4629C333.186 67.4629 332.877 67.5566 332.611 67.7441C332.346 67.9316 332.139 68.1777 331.99 68.4824V73H330.906V66.6602H331.932ZM341.219 71.3184C341.219 71.0254 341.107 70.7988 340.885 70.6387C340.666 70.4746 340.281 70.334 339.73 70.2168C339.184 70.0996 338.748 69.959 338.424 69.7949C338.104 69.6309 337.865 69.4355 337.709 69.209C337.557 68.9824 337.48 68.7129 337.48 68.4004C337.48 67.8809 337.699 67.4414 338.137 67.082C338.578 66.7227 339.141 66.543 339.824 66.543C340.543 66.543 341.125 66.7285 341.57 67.0996C342.02 67.4707 342.244 67.9453 342.244 68.5234H341.154C341.154 68.2266 341.027 67.9707 340.773 67.7559C340.523 67.541 340.207 67.4336 339.824 67.4336C339.43 67.4336 339.121 67.5195 338.898 67.6914C338.676 67.8633 338.564 68.0879 338.564 68.3652C338.564 68.627 338.668 68.8242 338.875 68.957C339.082 69.0898 339.455 69.2168 339.994 69.3379C340.537 69.459 340.977 69.6035 341.312 69.7715C341.648 69.9395 341.896 70.1426 342.057 70.3809C342.221 70.6152 342.303 70.9023 342.303 71.2422C342.303 71.8086 342.076 72.2637 341.623 72.6074C341.17 72.9473 340.582 73.1172 339.859 73.1172C339.352 73.1172 338.902 73.0273 338.512 72.8477C338.121 72.668 337.814 72.418 337.592 72.0977C337.373 71.7734 337.264 71.4238 337.264 71.0488H338.348C338.367 71.4121 338.512 71.7012 338.781 71.916C339.055 72.127 339.414 72.2324 339.859 72.2324C340.27 72.2324 340.598 72.1504 340.844 71.9863C341.094 71.8184 341.219 71.5957 341.219 71.3184ZM223.533 83.7715C223.533 83.1504 223.654 82.5918 223.896 82.0957C224.143 81.5996 224.482 81.2168 224.916 80.9473C225.354 80.6777 225.852 80.543 226.41 80.543C227.273 80.543 227.971 80.8418 228.502 81.4395C229.037 82.0371 229.305 82.832 229.305 83.8242V83.9004C229.305 84.5176 229.186 85.0723 228.947 85.5645C228.713 86.0527 228.375 86.4336 227.934 86.707C227.496 86.9805 226.992 87.1172 226.422 87.1172C225.562 87.1172 224.865 86.8184 224.33 86.2207C223.799 85.623 223.533 84.832 223.533 83.8477V83.7715ZM224.623 83.9004C224.623 84.6035 224.785 85.168 225.109 85.5938C225.438 86.0195 225.875 86.2324 226.422 86.2324C226.973 86.2324 227.41 86.0176 227.734 85.5879C228.059 85.1543 228.221 84.5488 228.221 83.7715C228.221 83.0762 228.055 82.5137 227.723 82.084C227.395 81.6504 226.957 81.4336 226.41 81.4336C225.875 81.4336 225.443 81.6465 225.115 82.0723C224.787 82.498 224.623 83.1074 224.623 83.9004ZM231.689 80.6602L231.725 81.457C232.209 80.8477 232.842 80.543 233.623 80.543C234.963 80.543 235.639 81.2988 235.65 82.8105V87H234.566V82.8047C234.562 82.3477 234.457 82.0098 234.25 81.791C234.047 81.5723 233.729 81.4629 233.295 81.4629C232.943 81.4629 232.635 81.5566 232.369 81.7441C232.104 81.9316 231.896 82.1777 231.748 82.4824V87H230.664V80.6602H231.689ZM239.916 87.1172C239.057 87.1172 238.357 86.8359 237.818 86.2734C237.279 85.707 237.01 84.9512 237.01 84.0059V83.8066C237.01 83.1777 237.129 82.6172 237.367 82.125C237.609 81.6289 237.945 81.2422 238.375 80.9648C238.809 80.6836 239.277 80.543 239.781 80.543C240.605 80.543 241.246 80.8145 241.703 81.3574C242.16 81.9004 242.389 82.6777 242.389 83.6895V84.1406H238.094C238.109 84.7656 238.291 85.2715 238.639 85.6582C238.99 86.041 239.436 86.2324 239.975 86.2324C240.357 86.2324 240.682 86.1543 240.947 85.998C241.213 85.8418 241.445 85.6348 241.645 85.377L242.307 85.8926C241.775 86.709 240.979 87.1172 239.916 87.1172ZM239.781 81.4336C239.344 81.4336 238.977 81.5938 238.68 81.9141C238.383 82.2305 238.199 82.6758 238.129 83.25H241.305V83.168C241.273 82.6172 241.125 82.1914 240.859 81.8906C240.594 81.5859 240.234 81.4336 239.781 81.4336ZM248.717 85.5293L250.287 80.6602H251.395L249.121 87H248.295L245.998 80.6602H247.105L248.717 85.5293ZM256.258 87C256.195 86.875 256.145 86.6523 256.105 86.332C255.602 86.8555 255 87.1172 254.301 87.1172C253.676 87.1172 253.162 86.9414 252.76 86.5898C252.361 86.2344 252.162 85.7852 252.162 85.2422C252.162 84.582 252.412 84.0703 252.912 83.707C253.416 83.3398 254.123 83.1562 255.033 83.1562H256.088V82.6582C256.088 82.2793 255.975 81.9785 255.748 81.7559C255.521 81.5293 255.188 81.416 254.746 81.416C254.359 81.416 254.035 81.5137 253.773 81.709C253.512 81.9043 253.381 82.1406 253.381 82.418H252.291C252.291 82.1016 252.402 81.7969 252.625 81.5039C252.852 81.207 253.156 80.9727 253.539 80.8008C253.926 80.6289 254.35 80.543 254.811 80.543C255.541 80.543 256.113 80.7266 256.527 81.0938C256.941 81.457 257.156 81.959 257.172 82.5996V85.5176C257.172 86.0996 257.246 86.5625 257.395 86.9062V87H256.258ZM254.459 86.1738C254.799 86.1738 255.121 86.0859 255.426 85.9102C255.73 85.7344 255.951 85.5059 256.088 85.2246V83.9238H255.238C253.91 83.9238 253.246 84.3125 253.246 85.0898C253.246 85.4297 253.359 85.6953 253.586 85.8867C253.812 86.0781 254.104 86.1738 254.459 86.1738ZM260.049 87H258.965V78H260.049V87ZM265.703 86.373C265.281 86.8691 264.662 87.1172 263.846 87.1172C263.17 87.1172 262.654 86.9219 262.299 86.5312C261.947 86.1367 261.77 85.5547 261.766 84.7852V80.6602H262.85V84.7559C262.85 85.7168 263.24 86.1973 264.021 86.1973C264.85 86.1973 265.4 85.8887 265.674 85.2715V80.6602H266.758V87H265.727L265.703 86.373ZM271.041 87.1172C270.182 87.1172 269.482 86.8359 268.943 86.2734C268.404 85.707 268.135 84.9512 268.135 84.0059V83.8066C268.135 83.1777 268.254 82.6172 268.492 82.125C268.734 81.6289 269.07 81.2422 269.5 80.9648C269.934 80.6836 270.402 80.543 270.906 80.543C271.73 80.543 272.371 80.8145 272.828 81.3574C273.285 81.9004 273.514 82.6777 273.514 83.6895V84.1406H269.219C269.234 84.7656 269.416 85.2715 269.764 85.6582C270.115 86.041 270.561 86.2324 271.1 86.2324C271.482 86.2324 271.807 86.1543 272.072 85.998C272.338 85.8418 272.57 85.6348 272.77 85.377L273.432 85.8926C272.9 86.709 272.104 87.1172 271.041 87.1172ZM270.906 81.4336C270.469 81.4336 270.102 81.5938 269.805 81.9141C269.508 82.2305 269.324 82.6758 269.254 83.25H272.43V83.168C272.398 82.6172 272.25 82.1914 271.984 81.8906C271.719 81.5859 271.359 81.4336 270.906 81.4336Z" fill="black"/>
<path d="M230.553 151.01C230.553 151.846 230.412 152.576 230.131 153.201C229.85 153.822 229.451 154.297 228.936 154.625C228.42 154.953 227.818 155.117 227.131 155.117C226.459 155.117 225.863 154.953 225.344 154.625C224.824 154.293 224.42 153.822 224.131 153.213C223.846 152.6 223.699 151.891 223.691 151.086V150.471C223.691 149.65 223.834 148.926 224.119 148.297C224.404 147.668 224.807 147.188 225.326 146.855C225.85 146.52 226.447 146.352 227.119 146.352C227.803 146.352 228.404 146.518 228.924 146.85C229.447 147.178 229.85 147.656 230.131 148.285C230.412 148.91 230.553 149.639 230.553 150.471V151.01ZM229.434 150.459C229.434 149.447 229.23 148.672 228.824 148.133C228.418 147.59 227.85 147.318 227.119 147.318C226.408 147.318 225.848 147.59 225.438 148.133C225.031 148.672 224.822 149.422 224.811 150.383V151.01C224.811 151.99 225.016 152.762 225.426 153.324C225.84 153.883 226.408 154.162 227.131 154.162C227.857 154.162 228.42 153.898 228.818 153.371C229.217 152.84 229.422 152.08 229.434 151.092V150.459ZM233.096 148.66L233.131 149.457C233.615 148.848 234.248 148.543 235.029 148.543C236.369 148.543 237.045 149.299 237.057 150.811V155H235.973V150.805C235.969 150.348 235.863 150.01 235.656 149.791C235.453 149.572 235.135 149.463 234.701 149.463C234.35 149.463 234.041 149.557 233.775 149.744C233.51 149.932 233.303 150.178 233.154 150.482V155H232.07V148.66H233.096ZM241.322 155.117C240.463 155.117 239.764 154.836 239.225 154.273C238.686 153.707 238.416 152.951 238.416 152.006V151.807C238.416 151.178 238.535 150.617 238.773 150.125C239.016 149.629 239.352 149.242 239.781 148.965C240.215 148.684 240.684 148.543 241.188 148.543C242.012 148.543 242.652 148.814 243.109 149.357C243.566 149.9 243.795 150.678 243.795 151.689V152.141H239.5C239.516 152.766 239.697 153.271 240.045 153.658C240.396 154.041 240.842 154.232 241.381 154.232C241.764 154.232 242.088 154.154 242.354 153.998C242.619 153.842 242.852 153.635 243.051 153.377L243.713 153.893C243.182 154.709 242.385 155.117 241.322 155.117ZM241.188 149.434C240.75 149.434 240.383 149.594 240.086 149.914C239.789 150.23 239.605 150.676 239.535 151.25H242.711V151.168C242.68 150.617 242.531 150.191 242.266 149.891C242 149.586 241.641 149.434 241.188 149.434ZM250.123 153.529L251.693 148.66H252.801L250.527 155H249.701L247.404 148.66H248.512L250.123 153.529ZM256.393 155.117C255.533 155.117 254.834 154.836 254.295 154.273C253.756 153.707 253.486 152.951 253.486 152.006V151.807C253.486 151.178 253.605 150.617 253.844 150.125C254.086 149.629 254.422 149.242 254.852 148.965C255.285 148.684 255.754 148.543 256.258 148.543C257.082 148.543 257.723 148.814 258.18 149.357C258.637 149.9 258.865 150.678 258.865 151.689V152.141H254.57C254.586 152.766 254.768 153.271 255.115 153.658C255.467 154.041 255.912 154.232 256.451 154.232C256.834 154.232 257.158 154.154 257.424 153.998C257.689 153.842 257.922 153.635 258.121 153.377L258.783 153.893C258.252 154.709 257.455 155.117 256.393 155.117ZM256.258 149.434C255.82 149.434 255.453 149.594 255.156 149.914C254.859 150.23 254.676 150.676 254.605 151.25H257.781V151.168C257.75 150.617 257.602 150.191 257.336 149.891C257.07 149.586 256.711 149.434 256.258 149.434ZM262.668 154.232C263.055 154.232 263.393 154.115 263.682 153.881C263.971 153.646 264.131 153.354 264.162 153.002H265.188C265.168 153.365 265.043 153.711 264.812 154.039C264.582 154.367 264.273 154.629 263.887 154.824C263.504 155.02 263.098 155.117 262.668 155.117C261.805 155.117 261.117 154.83 260.605 154.256C260.098 153.678 259.844 152.889 259.844 151.889V151.707C259.844 151.09 259.957 150.541 260.184 150.061C260.41 149.58 260.734 149.207 261.156 148.941C261.582 148.676 262.084 148.543 262.662 148.543C263.373 148.543 263.963 148.756 264.432 149.182C264.904 149.607 265.156 150.16 265.188 150.84H264.162C264.131 150.43 263.975 150.094 263.693 149.832C263.416 149.566 263.072 149.434 262.662 149.434C262.111 149.434 261.684 149.633 261.379 150.031C261.078 150.426 260.928 150.998 260.928 151.748V151.953C260.928 152.684 261.078 153.246 261.379 153.641C261.68 154.035 262.109 154.232 262.668 154.232ZM267.877 147.125V148.66H269.061V149.498H267.877V153.43C267.877 153.684 267.93 153.875 268.035 154.004C268.141 154.129 268.32 154.191 268.574 154.191C268.699 154.191 268.871 154.168 269.09 154.121V155C268.805 155.078 268.527 155.117 268.258 155.117C267.773 155.117 267.408 154.971 267.162 154.678C266.916 154.385 266.793 153.969 266.793 153.43V149.498H265.639V148.66H266.793V147.125H267.877ZM269.928 151.771C269.928 151.15 270.049 150.592 270.291 150.096C270.537 149.6 270.877 149.217 271.311 148.947C271.748 148.678 272.246 148.543 272.805 148.543C273.668 148.543 274.365 148.842 274.896 149.439C275.432 150.037 275.699 150.832 275.699 151.824V151.9C275.699 152.518 275.58 153.072 275.342 153.564C275.107 154.053 274.77 154.434 274.328 154.707C273.891 154.98 273.387 155.117 272.816 155.117C271.957 155.117 271.26 154.818 270.725 154.221C270.193 153.623 269.928 152.832 269.928 151.848V151.771ZM271.018 151.9C271.018 152.604 271.18 153.168 271.504 153.594C271.832 154.02 272.27 154.232 272.816 154.232C273.367 154.232 273.805 154.018 274.129 153.588C274.453 153.154 274.615 152.549 274.615 151.771C274.615 151.076 274.449 150.514 274.117 150.084C273.789 149.65 273.352 149.434 272.805 149.434C272.27 149.434 271.838 149.646 271.51 150.072C271.182 150.498 271.018 151.107 271.018 151.9ZM280.123 149.633C279.959 149.605 279.781 149.592 279.59 149.592C278.879 149.592 278.396 149.895 278.143 150.5V155H277.059V148.66H278.113L278.131 149.393C278.486 148.826 278.99 148.543 279.643 148.543C279.854 148.543 280.014 148.57 280.123 148.625V149.633ZM286.645 154.232C287.031 154.232 287.369 154.115 287.658 153.881C287.947 153.646 288.107 153.354 288.139 153.002H289.164C289.145 153.365 289.02 153.711 288.789 154.039C288.559 154.367 288.25 154.629 287.863 154.824C287.48 155.02 287.074 155.117 286.645 155.117C285.781 155.117 285.094 154.83 284.582 154.256C284.074 153.678 283.82 152.889 283.82 151.889V151.707C283.82 151.09 283.934 150.541 284.16 150.061C284.387 149.58 284.711 149.207 285.133 148.941C285.559 148.676 286.061 148.543 286.639 148.543C287.35 148.543 287.939 148.756 288.408 149.182C288.881 149.607 289.133 150.16 289.164 150.84H288.139C288.107 150.43 287.951 150.094 287.67 149.832C287.393 149.566 287.049 149.434 286.639 149.434C286.088 149.434 285.66 149.633 285.355 150.031C285.055 150.426 284.904 150.998 284.904 151.748V151.953C284.904 152.684 285.055 153.246 285.355 153.641C285.656 154.035 286.086 154.232 286.645 154.232ZM290.096 151.771C290.096 151.15 290.217 150.592 290.459 150.096C290.705 149.6 291.045 149.217 291.479 148.947C291.916 148.678 292.414 148.543 292.973 148.543C293.836 148.543 294.533 148.842 295.064 149.439C295.6 150.037 295.867 150.832 295.867 151.824V151.9C295.867 152.518 295.748 153.072 295.51 153.564C295.275 154.053 294.938 154.434 294.496 154.707C294.059 154.98 293.555 155.117 292.984 155.117C292.125 155.117 291.428 154.818 290.893 154.221C290.361 153.623 290.096 152.832 290.096 151.848V151.771ZM291.186 151.9C291.186 152.604 291.348 153.168 291.672 153.594C292 154.02 292.438 154.232 292.984 154.232C293.535 154.232 293.973 154.018 294.297 153.588C294.621 153.154 294.783 152.549 294.783 151.771C294.783 151.076 294.617 150.514 294.285 150.084C293.957 149.65 293.52 149.434 292.973 149.434C292.438 149.434 292.006 149.646 291.678 150.072C291.35 150.498 291.186 151.107 291.186 151.9ZM298.252 148.66L298.287 149.457C298.771 148.848 299.404 148.543 300.186 148.543C301.525 148.543 302.201 149.299 302.213 150.811V155H301.129V150.805C301.125 150.348 301.02 150.01 300.812 149.791C300.609 149.572 300.291 149.463 299.857 149.463C299.506 149.463 299.197 149.557 298.932 149.744C298.666 149.932 298.459 150.178 298.311 150.482V155H297.227V148.66H298.252ZM305.318 147.125V148.66H306.502V149.498H305.318V153.43C305.318 153.684 305.371 153.875 305.477 154.004C305.582 154.129 305.762 154.191 306.016 154.191C306.141 154.191 306.312 154.168 306.531 154.121V155C306.246 155.078 305.969 155.117 305.699 155.117C305.215 155.117 304.85 154.971 304.604 154.678C304.357 154.385 304.234 153.969 304.234 153.43V149.498H303.08V148.66H304.234V147.125H305.318ZM311.688 155C311.625 154.875 311.574 154.652 311.535 154.332C311.031 154.855 310.43 155.117 309.73 155.117C309.105 155.117 308.592 154.941 308.189 154.59C307.791 154.234 307.592 153.785 307.592 153.242C307.592 152.582 307.842 152.07 308.342 151.707C308.846 151.34 309.553 151.156 310.463 151.156H311.518V150.658C311.518 150.279 311.404 149.979 311.178 149.756C310.951 149.529 310.617 149.416 310.176 149.416C309.789 149.416 309.465 149.514 309.203 149.709C308.941 149.904 308.811 150.141 308.811 150.418H307.721C307.721 150.102 307.832 149.797 308.055 149.504C308.281 149.207 308.586 148.973 308.969 148.801C309.355 148.629 309.779 148.543 310.24 148.543C310.971 148.543 311.543 148.727 311.957 149.094C312.371 149.457 312.586 149.959 312.602 150.6V153.518C312.602 154.1 312.676 154.562 312.824 154.906V155H311.688ZM309.889 154.174C310.229 154.174 310.551 154.086 310.855 153.91C311.16 153.734 311.381 153.506 311.518 153.225V151.924H310.668C309.34 151.924 308.676 152.312 308.676 153.09C308.676 153.43 308.789 153.695 309.016 153.887C309.242 154.078 309.533 154.174 309.889 154.174ZM315.479 155H314.395V148.66H315.479V155ZM314.307 146.979C314.307 146.803 314.359 146.654 314.465 146.533C314.574 146.412 314.734 146.352 314.945 146.352C315.156 146.352 315.316 146.412 315.426 146.533C315.535 146.654 315.59 146.803 315.59 146.979C315.59 147.154 315.535 147.301 315.426 147.418C315.316 147.535 315.156 147.594 314.945 147.594C314.734 147.594 314.574 147.535 314.465 147.418C314.359 147.301 314.307 147.154 314.307 146.979ZM318.244 148.66L318.279 149.457C318.764 148.848 319.396 148.543 320.178 148.543C321.518 148.543 322.193 149.299 322.205 150.811V155H321.121V150.805C321.117 150.348 321.012 150.01 320.805 149.791C320.602 149.572 320.283 149.463 319.85 149.463C319.498 149.463 319.189 149.557 318.924 149.744C318.658 149.932 318.451 150.178 318.303 150.482V155H317.219V148.66H318.244ZM325.018 155H323.934V148.66H325.018V155ZM323.846 146.979C323.846 146.803 323.898 146.654 324.004 146.533C324.113 146.412 324.273 146.352 324.484 146.352C324.695 146.352 324.855 146.412 324.965 146.533C325.074 146.654 325.129 146.803 325.129 146.979C325.129 147.154 325.074 147.301 324.965 147.418C324.855 147.535 324.695 147.594 324.484 147.594C324.273 147.594 324.113 147.535 324.004 147.418C323.898 147.301 323.846 147.154 323.846 146.979ZM327.783 148.66L327.818 149.457C328.303 148.848 328.936 148.543 329.717 148.543C331.057 148.543 331.732 149.299 331.744 150.811V155H330.66V150.805C330.656 150.348 330.551 150.01 330.344 149.791C330.141 149.572 329.822 149.463 329.389 149.463C329.037 149.463 328.729 149.557 328.463 149.744C328.197 149.932 327.99 150.178 327.842 150.482V155H326.758V148.66H327.783ZM337.07 153.318C337.07 153.025 336.959 152.799 336.736 152.639C336.518 152.475 336.133 152.334 335.582 152.217C335.035 152.1 334.6 151.959 334.275 151.795C333.955 151.631 333.717 151.436 333.561 151.209C333.408 150.982 333.332 150.713 333.332 150.4C333.332 149.881 333.551 149.441 333.988 149.082C334.43 148.723 334.992 148.543 335.676 148.543C336.395 148.543 336.977 148.729 337.422 149.1C337.871 149.471 338.096 149.945 338.096 150.523H337.006C337.006 150.227 336.879 149.971 336.625 149.756C336.375 149.541 336.059 149.434 335.676 149.434C335.281 149.434 334.973 149.52 334.75 149.691C334.527 149.863 334.416 150.088 334.416 150.365C334.416 150.627 334.52 150.824 334.727 150.957C334.934 151.09 335.307 151.217 335.846 151.338C336.389 151.459 336.828 151.604 337.164 151.771C337.5 151.939 337.748 152.143 337.908 152.381C338.072 152.615 338.154 152.902 338.154 153.242C338.154 153.809 337.928 154.264 337.475 154.607C337.021 154.947 336.434 155.117 335.711 155.117C335.203 155.117 334.754 155.027 334.363 154.848C333.973 154.668 333.666 154.418 333.443 154.098C333.225 153.773 333.115 153.424 333.115 153.049H334.199C334.219 153.412 334.363 153.701 334.633 153.916C334.906 154.127 335.266 154.232 335.711 154.232C336.121 154.232 336.449 154.15 336.695 153.986C336.945 153.818 337.07 153.596 337.07 153.318ZM224.84 162.66L224.869 163.363C225.334 162.816 225.961 162.543 226.75 162.543C227.637 162.543 228.24 162.883 228.561 163.562C228.771 163.258 229.045 163.012 229.381 162.824C229.721 162.637 230.121 162.543 230.582 162.543C231.973 162.543 232.68 163.279 232.703 164.752V169H231.619V164.816C231.619 164.363 231.516 164.025 231.309 163.803C231.102 163.576 230.754 163.463 230.266 163.463C229.863 163.463 229.529 163.584 229.264 163.826C228.998 164.064 228.844 164.387 228.801 164.793V169H227.711V164.846C227.711 163.924 227.26 163.463 226.357 163.463C225.646 163.463 225.16 163.766 224.898 164.371V169H223.814V162.66H224.84ZM238.258 168.373C237.836 168.869 237.217 169.117 236.4 169.117C235.725 169.117 235.209 168.922 234.854 168.531C234.502 168.137 234.324 167.555 234.32 166.785V162.66H235.404V166.756C235.404 167.717 235.795 168.197 236.576 168.197C237.404 168.197 237.955 167.889 238.229 167.271V162.66H239.312V169H238.281L238.258 168.373ZM242.143 169H241.059V160H242.143V169ZM245.354 161.125V162.66H246.537V163.498H245.354V167.43C245.354 167.684 245.406 167.875 245.512 168.004C245.617 168.129 245.797 168.191 246.051 168.191C246.176 168.191 246.348 168.168 246.566 168.121V169C246.281 169.078 246.004 169.117 245.734 169.117C245.25 169.117 244.885 168.971 244.639 168.678C244.393 168.385 244.27 167.969 244.27 167.43V163.498H243.115V162.66H244.27V161.125H245.354ZM248.986 169H247.902V162.66H248.986V169ZM247.814 160.979C247.814 160.803 247.867 160.654 247.973 160.533C248.082 160.412 248.242 160.352 248.453 160.352C248.664 160.352 248.824 160.412 248.934 160.533C249.043 160.654 249.098 160.803 249.098 160.979C249.098 161.154 249.043 161.301 248.934 161.418C248.824 161.535 248.664 161.594 248.453 161.594C248.242 161.594 248.082 161.535 247.973 161.418C247.867 161.301 247.814 161.154 247.814 160.979ZM256.082 165.9C256.082 166.865 255.861 167.643 255.42 168.232C254.979 168.822 254.381 169.117 253.627 169.117C252.857 169.117 252.252 168.873 251.811 168.385V171.438H250.727V162.66H251.717L251.77 163.363C252.211 162.816 252.824 162.543 253.609 162.543C254.371 162.543 254.973 162.83 255.414 163.404C255.859 163.979 256.082 164.777 256.082 165.801V165.9ZM254.998 165.777C254.998 165.062 254.846 164.498 254.541 164.084C254.236 163.67 253.818 163.463 253.287 163.463C252.631 163.463 252.139 163.754 251.811 164.336V167.365C252.135 167.943 252.631 168.232 253.299 168.232C253.818 168.232 254.23 168.027 254.535 167.617C254.844 167.203 254.998 166.59 254.998 165.777ZM258.643 169H257.559V160H258.643V169ZM263.014 169.117C262.154 169.117 261.455 168.836 260.916 168.273C260.377 167.707 260.107 166.951 260.107 166.006V165.807C260.107 165.178 260.227 164.617 260.465 164.125C260.707 163.629 261.043 163.242 261.473 162.965C261.906 162.684 262.375 162.543 262.879 162.543C263.703 162.543 264.344 162.814 264.801 163.357C265.258 163.9 265.486 164.678 265.486 165.689V166.141H261.191C261.207 166.766 261.389 167.271 261.736 167.658C262.088 168.041 262.533 168.232 263.072 168.232C263.455 168.232 263.779 168.154 264.045 167.998C264.311 167.842 264.543 167.635 264.742 167.377L265.404 167.893C264.873 168.709 264.076 169.117 263.014 169.117ZM262.879 163.434C262.441 163.434 262.074 163.594 261.777 163.914C261.48 164.23 261.297 164.676 261.227 165.25H264.402V165.168C264.371 164.617 264.223 164.191 263.957 163.891C263.691 163.586 263.332 163.434 262.879 163.434ZM271.814 167.529L273.385 162.66H274.492L272.219 169H271.393L269.096 162.66H270.203L271.814 167.529ZM279.355 169C279.293 168.875 279.242 168.652 279.203 168.332C278.699 168.855 278.098 169.117 277.398 169.117C276.773 169.117 276.26 168.941 275.857 168.59C275.459 168.234 275.26 167.785 275.26 167.242C275.26 166.582 275.51 166.07 276.01 165.707C276.514 165.34 277.221 165.156 278.131 165.156H279.186V164.658C279.186 164.279 279.072 163.979 278.846 163.756C278.619 163.529 278.285 163.416 277.844 163.416C277.457 163.416 277.133 163.514 276.871 163.709C276.609 163.904 276.479 164.141 276.479 164.418H275.389C275.389 164.102 275.5 163.797 275.723 163.504C275.949 163.207 276.254 162.973 276.637 162.801C277.023 162.629 277.447 162.543 277.908 162.543C278.639 162.543 279.211 162.727 279.625 163.094C280.039 163.457 280.254 163.959 280.27 164.6V167.518C280.27 168.1 280.344 168.562 280.492 168.906V169H279.355ZM277.557 168.174C277.896 168.174 278.219 168.086 278.523 167.91C278.828 167.734 279.049 167.506 279.186 167.225V165.924H278.336C277.008 165.924 276.344 166.312 276.344 167.09C276.344 167.43 276.457 167.695 276.684 167.887C276.91 168.078 277.201 168.174 277.557 168.174ZM283.146 169H282.062V160H283.146V169ZM288.801 168.373C288.379 168.869 287.76 169.117 286.943 169.117C286.268 169.117 285.752 168.922 285.396 168.531C285.045 168.137 284.867 167.555 284.863 166.785V162.66H285.947V166.756C285.947 167.717 286.338 168.197 287.119 168.197C287.947 168.197 288.498 167.889 288.771 167.271V162.66H289.855V169H288.824L288.801 168.373ZM294.139 169.117C293.279 169.117 292.58 168.836 292.041 168.273C291.502 167.707 291.232 166.951 291.232 166.006V165.807C291.232 165.178 291.352 164.617 291.59 164.125C291.832 163.629 292.168 163.242 292.598 162.965C293.031 162.684 293.5 162.543 294.004 162.543C294.828 162.543 295.469 162.814 295.926 163.357C296.383 163.9 296.611 164.678 296.611 165.689V166.141H292.316C292.332 166.766 292.514 167.271 292.861 167.658C293.213 168.041 293.658 168.232 294.197 168.232C294.58 168.232 294.904 168.154 295.17 167.998C295.436 167.842 295.668 167.635 295.867 167.377L296.529 167.893C295.998 168.709 295.201 169.117 294.139 169.117ZM294.004 163.434C293.566 163.434 293.199 163.594 292.902 163.914C292.605 164.23 292.422 164.676 292.352 165.25H295.527V165.168C295.496 164.617 295.348 164.191 295.082 163.891C294.816 163.586 294.457 163.434 294.004 163.434ZM301.562 167.318C301.562 167.025 301.451 166.799 301.229 166.639C301.01 166.475 300.625 166.334 300.074 166.217C299.527 166.1 299.092 165.959 298.768 165.795C298.447 165.631 298.209 165.436 298.053 165.209C297.9 164.982 297.824 164.713 297.824 164.4C297.824 163.881 298.043 163.441 298.48 163.082C298.922 162.723 299.484 162.543 300.168 162.543C300.887 162.543 301.469 162.729 301.914 163.1C302.363 163.471 302.588 163.945 302.588 164.523H301.498C301.498 164.227 301.371 163.971 301.117 163.756C300.867 163.541 300.551 163.434 300.168 163.434C299.773 163.434 299.465 163.52 299.242 163.691C299.02 163.863 298.908 164.088 298.908 164.365C298.908 164.627 299.012 164.824 299.219 164.957C299.426 165.09 299.799 165.217 300.338 165.338C300.881 165.459 301.32 165.604 301.656 165.771C301.992 165.939 302.24 166.143 302.4 166.381C302.564 166.615 302.646 166.902 302.646 167.242C302.646 167.809 302.42 168.264 301.967 168.607C301.514 168.947 300.926 169.117 300.203 169.117C299.695 169.117 299.246 169.027 298.855 168.848C298.465 168.668 298.158 168.418 297.936 168.098C297.717 167.773 297.607 167.424 297.607 167.049H298.691C298.711 167.412 298.855 167.701 299.125 167.916C299.398 168.127 299.758 168.232 300.203 168.232C300.613 168.232 300.941 168.15 301.188 167.986C301.438 167.818 301.562 167.596 301.562 167.318Z" fill="black"/>
<path d="M148.814 14.5059L151.252 7.46875H152.482L149.318 16H148.322L145.164 7.46875H146.389L148.814 14.5059ZM157.105 16C157.043 15.875 156.992 15.6523 156.953 15.332C156.449 15.8555 155.848 16.1172 155.148 16.1172C154.523 16.1172 154.01 15.9414 153.607 15.5898C153.209 15.2344 153.01 14.7852 153.01 14.2422C153.01 13.582 153.26 13.0703 153.76 12.707C154.264 12.3398 154.971 12.1562 155.881 12.1562H156.936V11.6582C156.936 11.2793 156.822 10.9785 156.596 10.7559C156.369 10.5293 156.035 10.416 155.594 10.416C155.207 10.416 154.883 10.5137 154.621 10.709C154.359 10.9043 154.229 11.1406 154.229 11.418H153.139C153.139 11.1016 153.25 10.7969 153.473 10.5039C153.699 10.207 154.004 9.97266 154.387 9.80078C154.773 9.62891 155.197 9.54297 155.658 9.54297C156.389 9.54297 156.961 9.72656 157.375 10.0938C157.789 10.457 158.004 10.959 158.02 11.5996V14.5176C158.02 15.0996 158.094 15.5625 158.242 15.9062V16H157.105ZM155.307 15.1738C155.646 15.1738 155.969 15.0859 156.273 14.9102C156.578 14.7344 156.799 14.5059 156.936 14.2246V12.9238H156.086C154.758 12.9238 154.094 13.3125 154.094 14.0898C154.094 14.4297 154.207 14.6953 154.434 14.8867C154.66 15.0781 154.951 15.1738 155.307 15.1738ZM160.896 16H159.812V7H160.896V16ZM166.551 15.373C166.129 15.8691 165.51 16.1172 164.693 16.1172C164.018 16.1172 163.502 15.9219 163.146 15.5312C162.795 15.1367 162.617 14.5547 162.613 13.7852V9.66016H163.697V13.7559C163.697 14.7168 164.088 15.1973 164.869 15.1973C165.697 15.1973 166.248 14.8887 166.521 14.2715V9.66016H167.605V16H166.574L166.551 15.373ZM171.889 16.1172C171.029 16.1172 170.33 15.8359 169.791 15.2734C169.252 14.707 168.982 13.9512 168.982 13.0059V12.8066C168.982 12.1777 169.102 11.6172 169.34 11.125C169.582 10.6289 169.918 10.2422 170.348 9.96484C170.781 9.68359 171.25 9.54297 171.754 9.54297C172.578 9.54297 173.219 9.81445 173.676 10.3574C174.133 10.9004 174.361 11.6777 174.361 12.6895V13.1406H170.066C170.082 13.7656 170.264 14.2715 170.611 14.6582C170.963 15.041 171.408 15.2324 171.947 15.2324C172.33 15.2324 172.654 15.1543 172.92 14.998C173.186 14.8418 173.418 14.6348 173.617 14.377L174.279 14.8926C173.748 15.709 172.951 16.1172 171.889 16.1172ZM171.754 10.4336C171.316 10.4336 170.949 10.5938 170.652 10.9141C170.355 11.2305 170.172 11.6758 170.102 12.25H173.277V12.168C173.246 11.6172 173.098 11.1914 172.832 10.8906C172.566 10.5859 172.207 10.4336 171.754 10.4336ZM179.312 14.3184C179.312 14.0254 179.201 13.7988 178.979 13.6387C178.76 13.4746 178.375 13.334 177.824 13.2168C177.277 13.0996 176.842 12.959 176.518 12.7949C176.197 12.6309 175.959 12.4355 175.803 12.209C175.65 11.9824 175.574 11.7129 175.574 11.4004C175.574 10.8809 175.793 10.4414 176.23 10.082C176.672 9.72266 177.234 9.54297 177.918 9.54297C178.637 9.54297 179.219 9.72852 179.664 10.0996C180.113 10.4707 180.338 10.9453 180.338 11.5234H179.248C179.248 11.2266 179.121 10.9707 178.867 10.7559C178.617 10.541 178.301 10.4336 177.918 10.4336C177.523 10.4336 177.215 10.5195 176.992 10.6914C176.77 10.8633 176.658 11.0879 176.658 11.3652C176.658 11.627 176.762 11.8242 176.969 11.957C177.176 12.0898 177.549 12.2168 178.088 12.3379C178.631 12.459 179.07 12.6035 179.406 12.7715C179.742 12.9395 179.99 13.1426 180.15 13.3809C180.314 13.6152 180.396 13.9023 180.396 14.2422C180.396 14.8086 180.17 15.2637 179.717 15.6074C179.264 15.9473 178.676 16.1172 177.953 16.1172C177.445 16.1172 176.996 16.0273 176.605 15.8477C176.215 15.668 175.908 15.418 175.686 15.0977C175.467 14.7734 175.357 14.4238 175.357 14.0488H176.441C176.461 14.4121 176.605 14.7012 176.875 14.916C177.148 15.127 177.508 15.2324 177.953 15.2324C178.363 15.2324 178.691 15.1504 178.938 14.9863C179.188 14.8184 179.312 14.5957 179.312 14.3184Z" fill="black"/>
<path d="M10.8145 14.5059L13.252 7.46875H14.4824L11.3184 16H10.3223L7.16406 7.46875H8.38867L10.8145 14.5059ZM19.1055 16C19.043 15.875 18.9922 15.6523 18.9531 15.332C18.4492 15.8555 17.8477 16.1172 17.1484 16.1172C16.5234 16.1172 16.0098 15.9414 15.6074 15.5898C15.209 15.2344 15.0098 14.7852 15.0098 14.2422C15.0098 13.582 15.2598 13.0703 15.7598 12.707C16.2637 12.3398 16.9707 12.1562 17.8809 12.1562H18.9355V11.6582C18.9355 11.2793 18.8223 10.9785 18.5957 10.7559C18.3691 10.5293 18.0352 10.416 17.5938 10.416C17.207 10.416 16.8828 10.5137 16.6211 10.709C16.3594 10.9043 16.2285 11.1406 16.2285 11.418H15.1387C15.1387 11.1016 15.25 10.7969 15.4727 10.5039C15.6992 10.207 16.0039 9.97266 16.3867 9.80078C16.7734 9.62891 17.1973 9.54297 17.6582 9.54297C18.3887 9.54297 18.9609 9.72656 19.375 10.0938C19.7891 10.457 20.0039 10.959 20.0195 11.5996V14.5176C20.0195 15.0996 20.0938 15.5625 20.2422 15.9062V16H19.1055ZM17.3066 15.1738C17.6465 15.1738 17.9688 15.0859 18.2734 14.9102C18.5781 14.7344 18.7988 14.5059 18.9355 14.2246V12.9238H18.0859C16.7578 12.9238 16.0938 13.3125 16.0938 14.0898C16.0938 14.4297 16.207 14.6953 16.4336 14.8867C16.6602 15.0781 16.9512 15.1738 17.3066 15.1738ZM24.7832 10.6328C24.6191 10.6055 24.4414 10.5918 24.25 10.5918C23.5391 10.5918 23.0566 10.8945 22.8027 11.5V16H21.7188V9.66016H22.7734L22.791 10.3926C23.1465 9.82617 23.6504 9.54297 24.3027 9.54297C24.5137 9.54297 24.6738 9.57031 24.7832 9.625V10.6328ZM26.9629 16H25.8789V9.66016H26.9629V16ZM25.791 7.97852C25.791 7.80273 25.8438 7.6543 25.9492 7.5332C26.0586 7.41211 26.2188 7.35156 26.4297 7.35156C26.6406 7.35156 26.8008 7.41211 26.9102 7.5332C27.0195 7.6543 27.0742 7.80273 27.0742 7.97852C27.0742 8.1543 27.0195 8.30078 26.9102 8.41797C26.8008 8.53516 26.6406 8.59375 26.4297 8.59375C26.2188 8.59375 26.0586 8.53516 25.9492 8.41797C25.8438 8.30078 25.791 8.1543 25.791 7.97852ZM32.6172 16C32.5547 15.875 32.5039 15.6523 32.4648 15.332C31.9609 15.8555 31.3594 16.1172 30.6602 16.1172C30.0352 16.1172 29.5215 15.9414 29.1191 15.5898C28.7207 15.2344 28.5215 14.7852 28.5215 14.2422C28.5215 13.582 28.7715 13.0703 29.2715 12.707C29.7754 12.3398 30.4824 12.1562 31.3926 12.1562H32.4473V11.6582C32.4473 11.2793 32.334 10.9785 32.1074 10.7559C31.8809 10.5293 31.5469 10.416 31.1055 10.416C30.7188 10.416 30.3945 10.5137 30.1328 10.709C29.8711 10.9043 29.7402 11.1406 29.7402 11.418H28.6504C28.6504 11.1016 28.7617 10.7969 28.9844 10.5039C29.2109 10.207 29.5156 9.97266 29.8984 9.80078C30.2852 9.62891 30.709 9.54297 31.1699 9.54297C31.9004 9.54297 32.4727 9.72656 32.8867 10.0938C33.3008 10.457 33.5156 10.959 33.5312 11.5996V14.5176C33.5312 15.0996 33.6055 15.5625 33.7539 15.9062V16H32.6172ZM30.8184 15.1738C31.1582 15.1738 31.4805 15.0859 31.7852 14.9102C32.0898 14.7344 32.3105 14.5059 32.4473 14.2246V12.9238H31.5977C30.2695 12.9238 29.6055 13.3125 29.6055 14.0898C29.6055 14.4297 29.7188 14.6953 29.9453 14.8867C30.1719 15.0781 30.4629 15.1738 30.8184 15.1738ZM40.5977 12.9004C40.5977 13.8691 40.375 14.6484 39.9297 15.2383C39.4844 15.8242 38.8867 16.1172 38.1367 16.1172C37.3359 16.1172 36.7168 15.834 36.2793 15.2676L36.2266 16H35.2305V7H36.3145V10.3574C36.752 9.81445 37.3555 9.54297 38.125 9.54297C38.8945 9.54297 39.498 9.83398 39.9355 10.416C40.377 10.998 40.5977 11.7949 40.5977 12.8066V12.9004ZM39.5137 12.7773C39.5137 12.0391 39.3711 11.4688 39.0859 11.0664C38.8008 10.6641 38.3906 10.4629 37.8555 10.4629C37.1406 10.4629 36.627 10.7949 36.3145 11.459V14.2012C36.6465 14.8652 37.1641 15.1973 37.8672 15.1973C38.3867 15.1973 38.791 14.9961 39.0801 14.5938C39.3691 14.1914 39.5137 13.5859 39.5137 12.7773ZM43.1465 16H42.0625V7H43.1465V16ZM47.5176 16.1172C46.6582 16.1172 45.959 15.8359 45.4199 15.2734C44.8809 14.707 44.6113 13.9512 44.6113 13.0059V12.8066C44.6113 12.1777 44.7305 11.6172 44.9688 11.125C45.2109 10.6289 45.5469 10.2422 45.9766 9.96484C46.4102 9.68359 46.8789 9.54297 47.3828 9.54297C48.207 9.54297 48.8477 9.81445 49.3047 10.3574C49.7617 10.9004 49.9902 11.6777 49.9902 12.6895V13.1406H45.6953C45.7109 13.7656 45.8926 14.2715 46.2402 14.6582C46.5918 15.041 47.0371 15.2324 47.5762 15.2324C47.959 15.2324 48.2832 15.1543 48.5488 14.998C48.8145 14.8418 49.0469 14.6348 49.2461 14.377L49.9082 14.8926C49.377 15.709 48.5801 16.1172 47.5176 16.1172ZM47.3828 10.4336C46.9453 10.4336 46.5781 10.5938 46.2812 10.9141C45.9844 11.2305 45.8008 11.6758 45.7305 12.25H48.9062V12.168C48.875 11.6172 48.7266 11.1914 48.4609 10.8906C48.1953 10.5859 47.8359 10.4336 47.3828 10.4336ZM60.9531 16H59.8223L55.5273 9.42578V16H54.3965V7.46875H55.5273L59.834 14.0723V7.46875H60.9531V16ZM66.6953 16C66.6328 15.875 66.582 15.6523 66.543 15.332C66.0391 15.8555 65.4375 16.1172 64.7383 16.1172C64.1133 16.1172 63.5996 15.9414 63.1973 15.5898C62.7988 15.2344 62.5996 14.7852 62.5996 14.2422C62.5996 13.582 62.8496 13.0703 63.3496 12.707C63.8535 12.3398 64.5605 12.1562 65.4707 12.1562H66.5254V11.6582C66.5254 11.2793 66.4121 10.9785 66.1855 10.7559C65.959 10.5293 65.625 10.416 65.1836 10.416C64.7969 10.416 64.4727 10.5137 64.2109 10.709C63.9492 10.9043 63.8184 11.1406 63.8184 11.418H62.7285C62.7285 11.1016 62.8398 10.7969 63.0625 10.5039C63.2891 10.207 63.5938 9.97266 63.9766 9.80078C64.3633 9.62891 64.7871 9.54297 65.248 9.54297C65.9785 9.54297 66.5508 9.72656 66.9648 10.0938C67.3789 10.457 67.5938 10.959 67.6094 11.5996V14.5176C67.6094 15.0996 67.6836 15.5625 67.832 15.9062V16H66.6953ZM64.8965 15.1738C65.2363 15.1738 65.5586 15.0859 65.8633 14.9102C66.168 14.7344 66.3887 14.5059 66.5254 14.2246V12.9238H65.6758C64.3477 12.9238 63.6836 13.3125 63.6836 14.0898C63.6836 14.4297 63.7969 14.6953 64.0234 14.8867C64.25 15.0781 64.541 15.1738 64.8965 15.1738ZM70.3281 9.66016L70.3574 10.3633C70.8223 9.81641 71.4492 9.54297 72.2383 9.54297C73.125 9.54297 73.7285 9.88281 74.0488 10.5625C74.2598 10.2578 74.5332 10.0117 74.8691 9.82422C75.209 9.63672 75.6094 9.54297 76.0703 9.54297C77.4609 9.54297 78.168 10.2793 78.1914 11.752V16H77.1074V11.8164C77.1074 11.3633 77.0039 11.0254 76.7969 10.8027C76.5898 10.5762 76.2422 10.4629 75.7539 10.4629C75.3516 10.4629 75.0176 10.584 74.752 10.8262C74.4863 11.0645 74.332 11.3867 74.2891 11.793V16H73.1992V11.8457C73.1992 10.9238 72.748 10.4629 71.8457 10.4629C71.1348 10.4629 70.6484 10.7656 70.3867 11.3711V16H69.3027V9.66016H70.3281ZM82.4629 16.1172C81.6035 16.1172 80.9043 15.8359 80.3652 15.2734C79.8262 14.707 79.5566 13.9512 79.5566 13.0059V12.8066C79.5566 12.1777 79.6758 11.6172 79.9141 11.125C80.1562 10.6289 80.4922 10.2422 80.9219 9.96484C81.3555 9.68359 81.8242 9.54297 82.3281 9.54297C83.1523 9.54297 83.793 9.81445 84.25 10.3574C84.707 10.9004 84.9355 11.6777 84.9355 12.6895V13.1406H80.6406C80.6562 13.7656 80.8379 14.2715 81.1855 14.6582C81.5371 15.041 81.9824 15.2324 82.5215 15.2324C82.9043 15.2324 83.2285 15.1543 83.4941 14.998C83.7598 14.8418 83.9922 14.6348 84.1914 14.377L84.8535 14.8926C84.3223 15.709 83.5254 16.1172 82.4629 16.1172ZM82.3281 10.4336C81.8906 10.4336 81.5234 10.5938 81.2266 10.9141C80.9297 11.2305 80.7461 11.6758 80.6758 12.25H83.8516V12.168C83.8203 11.6172 83.6719 11.1914 83.4062 10.8906C83.1406 10.5859 82.7812 10.4336 82.3281 10.4336Z" fill="black"/>
<path d="M99.6464 141.354C99.8417 141.549 100.158 141.549 100.354 141.354L103.536 138.172C103.731 137.976 103.731 137.66 103.536 137.464C103.34 137.269 103.024 137.269 102.828 137.464L100 140.293L97.1716 137.464C96.9763 137.269 96.6597 137.269 96.4645 137.464C96.2692 137.66 96.2692 137.976 96.4645 138.172L99.6464 141.354ZM99.5 117V141H100.5V117H99.5Z" fill="black"/>
</svg>
