<svg width="1120" height="660" viewBox="0 0 1120 660" version="1.1" xmlns="http://www.w3.org/2000/svg" xmlns:xlink="http://www.w3.org/1999/xlink">
<title>Frame</title>
<desc>Created using Figma</desc>
<g id="Canvas" transform="matrix(2 0 0 2 278 1012)">
<clipPath id="clip-0" clip-rule="evenodd">
<path d="M -139 -506L 421 -506L 421 -176L -139 -176L -139 -506Z" fill="#FFFFFF"/>
</clipPath>
<g id="Frame" clip-path="url(#clip-0)">
<path d="M -139 -506L 421 -506L 421 -176L -139 -176L -139 -506Z" fill="#FFFFFF"/>
<g id="Group">
<g id="Rectangle">
<use xlink:href="#path0_stroke" transform="translate(239 -490)"/>
</g>
<g id="80.0">
<use xlink:href="#path1_fill" transform="translate(240.644 -484.2)"/>
</g>
<g id="Rectangle">
<use xlink:href="#path0_stroke" transform="translate(239 -461)"/>
</g>
<g id="103.4">
<use xlink:href="#path2_fill" transform="translate(240.644 -455.2)"/>
</g>
<g id="Rectangle">
<use xlink:href="#path0_stroke" transform="translate(239 -432)"/>
</g>
<g id="96.6">
<use xlink:href="#path3_fill" transform="translate(240.644 -426.2)"/>
</g>
<g id="Rectangle">
<use xlink:href="#path0_stroke" transform="translate(239 -403)"/>
</g>
<g id="200.3">
<use xlink:href="#path4_fill" transform="translate(240.644 -397.2)"/>
</g>
</g>
<g id="c">
<use xlink:href="#path5_fill" transform="translate(250 -369)" fill="#4F4F4F"/>
</g>
<g id="Group">
<g id="Rectangle">
<use xlink:href="#path6_fill" transform="translate(-132 -455)" fill="#F1F4F8"/>
</g>
<g id="c = np.array([80.0, 103.4, 96.9, 200.3])">
<use xlink:href="#path7_fill" transform="translate(-120.19 -451.739)" fill="#2E383C"/>
<use xlink:href="#path8_fill" transform="translate(-120.19 -451.739)" fill="#0C570A"/>
</g>
</g>
<g id="Group">
<g id="Rectangle">
<use xlink:href="#path0_stroke" transform="translate(239 -334)"/>
</g>
<g id="False">
<use xlink:href="#path9_fill" transform="translate(240.644 -328.2)" fill="#EB5757"/>
</g>
<g id="Rectangle">
<use xlink:href="#path0_stroke" transform="translate(239 -305)"/>
</g>
<g id="True">
<use xlink:href="#path10_fill" transform="translate(240.644 -299.2)" fill="#27AE60"/>
</g>
<g id="Rectangle">
<use xlink:href="#path0_stroke" transform="translate(239 -276)"/>
</g>
<g id="False">
<use xlink:href="#path9_fill" transform="translate(240.644 -270.2)" fill="#EB5757"/>
</g>
<g id="Rectangle">
<use xlink:href="#path0_stroke" transform="translate(239 -247)"/>
</g>
<g id="True">
<use xlink:href="#path10_fill" transform="translate(240.644 -241.2)" fill="#27AE60"/>
</g>
</g>
<g id="c_bool">
<use xlink:href="#path11_fill" transform="translate(249 -208)" fill="#4F4F4F"/>
</g>
<g id="Group">
<g id="Rectangle">
<use xlink:href="#path12_fill" transform="translate(-132 -298)" fill="#F1F4F8"/>
</g>
<g id="c_bool = c &#62; 100">
<use xlink:href="#path13_fill" transform="translate(-120.19 -296.727)" fill="#2E383C"/>
<use xlink:href="#path14_fill" transform="translate(-120.19 -296.727)" fill="#A541F8"/>
<use xlink:href="#path15_fill" transform="translate(-120.19 -296.727)" fill="#0C570A"/>
</g>
</g>
</g>
</g>
<defs>
<path id="path0_stroke" d="M 0 0L 0 -0.5L -0.5 -0.5L -0.5 0L 0 0ZM 72.3333 0L 72.8333 0L 72.8333 -0.5L 72.3333 -0.5L 72.3333 0ZM 72.3333 29L 72.3333 29.5L 72.8333 29.5L 72.8333 29L 72.3333 29ZM 0 29L -0.5 29L -0.5 29.5L 0 29.5L 0 29ZM 0 0.5L 72.3333 0.5L 72.3333 -0.5L 0 -0.5L 0 0.5ZM 71.8333 0L 71.8333 29L 72.8333 29L 72.8333 0L 71.8333 0ZM 72.3333 28.5L 0 28.5L 0 29.5L 72.3333 29.5L 72.3333 28.5ZM 0.5 29L 0.5 0L -0.5 0L -0.5 29L 0.5 29Z"/>
<path id="path1_fill" d="M 26.2238 7.54297C 26.2238 8.18164 26.0538 8.75 25.714 9.24805C 25.38 9.74609 24.9259 10.1357 24.3517 10.417C 25.0196 10.7041 25.547 11.123 25.9337 11.6738C 26.3263 12.2246 26.5226 12.8486 26.5226 13.5459C 26.5226 14.6533 26.1476 15.5352 25.3976 16.1914C 24.6534 16.8477 23.672 17.1758 22.4532 17.1758C 21.2228 17.1758 20.2355 16.8477 19.4913 16.1914C 18.753 15.5293 18.3839 14.6475 18.3839 13.5459C 18.3839 12.8545 18.5714 12.2305 18.9464 11.6738C 19.3273 11.1172 19.8517 10.6953 20.5196 10.4082C 19.9513 10.127 19.503 9.7373 19.1749 9.23926C 18.8468 8.74121 18.6827 8.17578 18.6827 7.54297C 18.6827 6.46484 19.0284 5.60938 19.7198 4.97656C 20.4113 4.34375 21.3224 4.02734 22.4532 4.02734C 23.5782 4.02734 24.4864 4.34375 25.1779 4.97656C 25.8751 5.60938 26.2238 6.46484 26.2238 7.54297ZM 24.8966 13.5107C 24.8966 12.7959 24.6681 12.2129 24.2111 11.7617C 23.7599 11.3105 23.1681 11.085 22.4357 11.085C 21.7032 11.085 21.1144 11.3076 20.6691 11.7529C 20.2296 12.1982 20.0099 12.7842 20.0099 13.5107C 20.0099 14.2373 20.2238 14.8086 20.6515 15.2246C 21.0851 15.6406 21.6857 15.8486 22.4532 15.8486C 23.215 15.8486 23.8126 15.6406 24.2462 15.2246C 24.6798 14.8027 24.8966 14.2314 24.8966 13.5107ZM 22.4532 5.36328C 21.8146 5.36328 21.296 5.5625 20.8976 5.96094C 20.505 6.35352 20.3087 6.88965 20.3087 7.56934C 20.3087 8.21973 20.5021 8.74707 20.8888 9.15137C 21.2814 9.5498 21.8029 9.74902 22.4532 9.74902C 23.1036 9.74902 23.6222 9.5498 24.0089 9.15137C 24.4015 8.74707 24.5978 8.21973 24.5978 7.56934C 24.5978 6.91895 24.3956 6.38867 23.9913 5.97852C 23.587 5.56836 23.0743 5.36328 22.4532 5.36328ZM 36.5948 11.542C 36.5948 13.4463 36.2696 14.8613 35.6193 15.7871C 34.9689 16.7129 33.9523 17.1758 32.5695 17.1758C 31.2042 17.1758 30.1935 16.7246 29.5372 15.8223C 28.881 14.9141 28.5411 13.5605 28.5177 11.7617L 28.5177 9.59082C 28.5177 7.70996 28.8429 6.3125 29.4933 5.39844C 30.1437 4.48438 31.1632 4.02734 32.5519 4.02734C 33.9288 4.02734 34.9425 4.46973 35.5929 5.35449C 36.2433 6.2334 36.5773 7.59277 36.5948 9.43262L 36.5948 11.542ZM 34.9689 9.31836C 34.9689 7.94141 34.7755 6.93945 34.3888 6.3125C 34.0021 5.67969 33.3898 5.36328 32.5519 5.36328C 31.7198 5.36328 31.1134 5.67676 30.7325 6.30371C 30.3517 6.93066 30.1554 7.89453 30.1437 9.19531L 30.1437 11.7969C 30.1437 13.1797 30.3429 14.2021 30.7413 14.8643C 31.1456 15.5205 31.755 15.8486 32.5695 15.8486C 33.3722 15.8486 33.9669 15.5381 34.3536 14.917C 34.7462 14.2959 34.9513 13.3174 34.9689 11.9814L 34.9689 9.31836ZM 38.88 16.1475C 38.88 15.8662 38.962 15.6318 39.1261 15.4443C 39.296 15.2568 39.548 15.1631 39.882 15.1631C 40.2159 15.1631 40.4679 15.2568 40.6378 15.4443C 40.8136 15.6318 40.9015 15.8662 40.9015 16.1475C 40.9015 16.417 40.8136 16.6426 40.6378 16.8242C 40.4679 17.0059 40.2159 17.0967 39.882 17.0967C 39.548 17.0967 39.296 17.0059 39.1261 16.8242C 38.962 16.6426 38.88 16.417 38.88 16.1475ZM 51.4484 11.542C 51.4484 13.4463 51.1232 14.8613 50.4728 15.7871C 49.8224 16.7129 48.8058 17.1758 47.423 17.1758C 46.0577 17.1758 45.047 16.7246 44.3907 15.8223C 43.7345 14.9141 43.3946 13.5605 43.3712 11.7617L 43.3712 9.59082C 43.3712 7.70996 43.6964 6.3125 44.3468 5.39844C 44.9972 4.48438 46.0167 4.02734 47.4054 4.02734C 48.7823 4.02734 49.796 4.46973 50.4464 5.35449C 51.0968 6.2334 51.4308 7.59277 51.4484 9.43262L 51.4484 11.542ZM 49.8224 9.31836C 49.8224 7.94141 49.629 6.93945 49.2423 6.3125C 48.8556 5.67969 48.2433 5.36328 47.4054 5.36328C 46.5734 5.36328 45.9669 5.67676 45.5861 6.30371C 45.2052 6.93066 45.0089 7.89453 44.9972 9.19531L 44.9972 11.7969C 44.9972 13.1797 45.1964 14.2021 45.5948 14.8643C 45.9991 15.5205 46.6085 15.8486 47.423 15.8486C 48.2257 15.8486 48.8204 15.5381 49.2071 14.917C 49.5997 14.2959 49.8048 13.3174 49.8224 11.9814L 49.8224 9.31836Z"/>
<path id="path2_fill" d="M 18.753 17L 17.1183 17L 17.1183 6.16309L 13.84 7.36719L 13.84 5.89062L 18.4982 4.1416L 18.753 4.1416L 18.753 17ZM 31.5411 11.542C 31.5411 13.4463 31.2159 14.8613 30.5655 15.7871C 29.9152 16.7129 28.8986 17.1758 27.5157 17.1758C 26.1505 17.1758 25.1398 16.7246 24.4835 15.8223C 23.8273 14.9141 23.4874 13.5605 23.464 11.7617L 23.464 9.59082C 23.464 7.70996 23.7892 6.3125 24.4396 5.39844C 25.09 4.48438 26.1095 4.02734 27.4982 4.02734C 28.8751 4.02734 29.8888 4.46973 30.5392 5.35449C 31.1896 6.2334 31.5236 7.59277 31.5411 9.43262L 31.5411 11.542ZM 29.9152 9.31836C 29.9152 7.94141 29.7218 6.93945 29.3351 6.3125C 28.9484 5.67969 28.3361 5.36328 27.4982 5.36328C 26.6661 5.36328 26.0597 5.67676 25.6788 6.30371C 25.298 6.93066 25.1017 7.89453 25.09 9.19531L 25.09 11.7969C 25.09 13.1797 25.2892 14.2021 25.6876 14.8643C 26.0919 15.5205 26.7013 15.8486 27.5157 15.8486C 28.3185 15.8486 28.9132 15.5381 29.2999 14.917C 29.6925 14.2959 29.8976 13.3174 29.9152 11.9814L 29.9152 9.31836ZM 35.9884 9.81055L 37.2101 9.81055C 37.9777 9.79883 38.5812 9.59668 39.0206 9.2041C 39.4601 8.81152 39.6798 8.28125 39.6798 7.61328C 39.6798 6.11328 38.9327 5.36328 37.4386 5.36328C 36.7355 5.36328 36.173 5.56543 35.7511 5.96973C 35.3351 6.36816 35.1271 6.89844 35.1271 7.56055L 33.5011 7.56055C 33.5011 6.54687 33.8702 5.70605 34.6085 5.03809C 35.3527 4.36426 36.296 4.02734 37.4386 4.02734C 38.6456 4.02734 39.5919 4.34668 40.2775 4.98535C 40.963 5.62402 41.3058 6.51172 41.3058 7.64844C 41.3058 8.20508 41.1241 8.74414 40.7609 9.26562C 40.4034 9.78711 39.9142 10.1768 39.2931 10.4346C 39.9962 10.6572 40.5382 11.0264 40.9191 11.542C 41.3058 12.0576 41.4991 12.6875 41.4991 13.4316C 41.4991 14.5801 41.1241 15.4912 40.3741 16.165C 39.6241 16.8389 38.6486 17.1758 37.4474 17.1758C 36.2462 17.1758 35.2677 16.8506 34.5118 16.2002C 33.7618 15.5498 33.3868 14.6914 33.3868 13.625L 35.0216 13.625C 35.0216 14.2988 35.2413 14.8379 35.6808 15.2422C 36.1202 15.6465 36.7091 15.8486 37.4474 15.8486C 38.2325 15.8486 38.8331 15.6436 39.2491 15.2334C 39.6652 14.8232 39.8732 14.2344 39.8732 13.4668C 39.8732 12.7227 39.6446 12.1514 39.1876 11.7529C 38.7306 11.3545 38.0714 11.1494 37.2101 11.1377L 35.9884 11.1377L 35.9884 9.81055ZM 43.9337 16.1475C 43.9337 15.8662 44.0157 15.6318 44.1798 15.4443C 44.3497 15.2568 44.6017 15.1631 44.9357 15.1631C 45.2696 15.1631 45.5216 15.2568 45.6915 15.4443C 45.8673 15.6318 45.9552 15.8662 45.9552 16.1475C 45.9552 16.417 45.8673 16.6426 45.6915 16.8242C 45.5216 17.0059 45.2696 17.0967 44.9357 17.0967C 44.6017 17.0967 44.3497 17.0059 44.1798 16.8242C 44.0157 16.6426 43.9337 16.417 43.9337 16.1475ZM 55.3419 12.7021L 57.1173 12.7021L 57.1173 14.0293L 55.3419 14.0293L 55.3419 17L 53.7071 17L 53.7071 14.0293L 47.88 14.0293L 47.88 13.0713L 53.6105 4.20312L 55.3419 4.20312L 55.3419 12.7021ZM 49.7257 12.7021L 53.7071 12.7021L 53.7071 6.42676L 53.5138 6.77832L 49.7257 12.7021Z"/>
<path id="path3_fill" d="M 24.6945 11.375C 24.3546 11.7793 23.9474 12.1045 23.4728 12.3506C 23.004 12.5967 22.4884 12.7197 21.9259 12.7197C 21.1876 12.7197 20.5431 12.5381 19.9923 12.1748C 19.4474 11.8115 19.0255 11.3018 18.7267 10.6455C 18.4279 9.9834 18.2784 9.25391 18.2784 8.45703C 18.2784 7.60156 18.4396 6.83105 18.7618 6.14551C 19.09 5.45996 19.5529 4.93555 20.1505 4.57227C 20.7482 4.20898 21.4454 4.02734 22.2423 4.02734C 23.5079 4.02734 24.504 4.50195 25.2306 5.45117C 25.963 6.39453 26.3292 7.68359 26.3292 9.31836L 26.3292 9.79297C 26.3292 12.2832 25.837 14.1025 24.8527 15.251C 23.8683 16.3936 22.3829 16.9795 20.3966 17.0088L 20.0802 17.0088L 20.0802 15.6377L 20.423 15.6377C 21.7648 15.6143 22.796 15.2656 23.5167 14.5918C 24.2374 13.9121 24.63 12.8398 24.6945 11.375ZM 22.1896 11.375C 22.7345 11.375 23.2355 11.208 23.6925 10.874C 24.1554 10.54 24.4923 10.127 24.7032 9.63477L 24.7032 8.98438C 24.7032 7.91797 24.4718 7.05078 24.0089 6.38281C 23.546 5.71484 22.9601 5.38086 22.2511 5.38086C 21.5363 5.38086 20.962 5.65625 20.5284 6.20703C 20.0948 6.75195 19.878 7.47266 19.878 8.36914C 19.878 9.24219 20.0861 9.96289 20.5021 10.5312C 20.9239 11.0938 21.4864 11.375 22.1896 11.375ZM 34.9513 4.19434L 34.9513 5.57422L 34.6525 5.57422C 33.3868 5.59766 32.379 5.97266 31.629 6.69922C 30.879 7.42578 30.4454 8.44824 30.3282 9.7666C 31.0021 8.99316 31.922 8.60645 33.088 8.60645C 34.2013 8.60645 35.089 8.99902 35.7511 9.78418C 36.4191 10.5693 36.753 11.583 36.753 12.8252C 36.753 14.1436 36.3927 15.1982 35.672 15.9893C 34.9571 16.7803 33.9962 17.1758 32.7892 17.1758C 31.5646 17.1758 30.5714 16.707 29.8097 15.7695C 29.048 14.8262 28.6671 13.6133 28.6671 12.1309L 28.6671 11.5068C 28.6671 9.15137 29.1681 7.35254 30.17 6.11035C 31.1779 4.8623 32.6749 4.22363 34.6613 4.19434L 34.9513 4.19434ZM 32.8155 9.95996C 32.2589 9.95996 31.7462 10.127 31.2775 10.4609C 30.8087 10.7949 30.4835 11.2139 30.3019 11.7178L 30.3019 12.3154C 30.3019 13.3701 30.5392 14.2197 31.0138 14.8643C 31.4884 15.5088 32.0802 15.8311 32.7892 15.8311C 33.5216 15.8311 34.0958 15.5615 34.5118 15.0225C 34.9337 14.4834 35.1446 13.7773 35.1446 12.9043C 35.1446 12.0254 34.9308 11.3164 34.503 10.7773C 34.0812 10.2324 33.5187 9.95996 32.8155 9.95996ZM 38.88 16.1475C 38.88 15.8662 38.962 15.6318 39.1261 15.4443C 39.296 15.2568 39.548 15.1631 39.882 15.1631C 40.2159 15.1631 40.4679 15.2568 40.6378 15.4443C 40.8136 15.6318 40.9015 15.8662 40.9015 16.1475C 40.9015 16.417 40.8136 16.6426 40.6378 16.8242C 40.4679 17.0059 40.2159 17.0967 39.882 17.0967C 39.548 17.0967 39.296 17.0059 39.1261 16.8242C 38.962 16.6426 38.88 16.417 38.88 16.1475ZM 49.8048 4.19434L 49.8048 5.57422L 49.506 5.57422C 48.2404 5.59766 47.2325 5.97266 46.4825 6.69922C 45.7325 7.42578 45.2989 8.44824 45.1818 9.7666C 45.8556 8.99316 46.7755 8.60645 47.9415 8.60645C 49.0548 8.60645 49.9425 8.99902 50.6046 9.78418C 51.2726 10.5693 51.6066 11.583 51.6066 12.8252C 51.6066 14.1436 51.2462 15.1982 50.5255 15.9893C 49.8107 16.7803 48.8497 17.1758 47.6427 17.1758C 46.4181 17.1758 45.4249 16.707 44.6632 15.7695C 43.9015 14.8262 43.5206 13.6133 43.5206 12.1309L 43.5206 11.5068C 43.5206 9.15137 44.0216 7.35254 45.0236 6.11035C 46.0314 4.8623 47.5284 4.22363 49.5148 4.19434L 49.8048 4.19434ZM 47.6691 9.95996C 47.1124 9.95996 46.5997 10.127 46.131 10.4609C 45.6622 10.7949 45.337 11.2139 45.1554 11.7178L 45.1554 12.3154C 45.1554 13.3701 45.3927 14.2197 45.8673 14.8643C 46.3419 15.5088 46.9337 15.8311 47.6427 15.8311C 48.3751 15.8311 48.9493 15.5615 49.3654 15.0225C 49.7872 14.4834 49.9982 13.7773 49.9982 12.9043C 49.9982 12.0254 49.7843 11.3164 49.3566 10.7773C 48.9347 10.2324 48.3722 9.95996 47.6691 9.95996Z"/>
<path id="path4_fill" d="M 21.7941 17L 13.4093 17L 13.4093 15.8311L 17.839 10.9092C 18.4952 10.165 18.9464 9.56152 19.1925 9.09863C 19.4445 8.62988 19.5704 8.14648 19.5704 7.64844C 19.5704 6.98047 19.3683 6.43262 18.964 6.00488C 18.5597 5.57715 18.0206 5.36328 17.3468 5.36328C 16.5382 5.36328 15.9083 5.59473 15.4571 6.05762C 15.0118 6.51465 14.7892 7.15332 14.7892 7.97363L 13.1632 7.97363C 13.1632 6.7959 13.5411 5.84375 14.297 5.11719C 15.0587 4.39063 16.0753 4.02734 17.3468 4.02734C 18.5363 4.02734 19.4767 4.34082 20.1681 4.96777C 20.8595 5.58887 21.2052 6.41797 21.2052 7.45508C 21.2052 8.71484 20.4025 10.2148 18.797 11.9551L 15.3693 15.6729L 21.7941 15.6729L 21.7941 17ZM 31.5411 11.542C 31.5411 13.4463 31.2159 14.8613 30.5655 15.7871C 29.9152 16.7129 28.8986 17.1758 27.5157 17.1758C 26.1505 17.1758 25.1398 16.7246 24.4835 15.8223C 23.8273 14.9141 23.4874 13.5605 23.464 11.7617L 23.464 9.59082C 23.464 7.70996 23.7892 6.3125 24.4396 5.39844C 25.09 4.48438 26.1095 4.02734 27.4982 4.02734C 28.8751 4.02734 29.8888 4.46973 30.5392 5.35449C 31.1896 6.2334 31.5236 7.59277 31.5411 9.43262L 31.5411 11.542ZM 29.9152 9.31836C 29.9152 7.94141 29.7218 6.93945 29.3351 6.3125C 28.9484 5.67969 28.3361 5.36328 27.4982 5.36328C 26.6661 5.36328 26.0597 5.67676 25.6788 6.30371C 25.298 6.93066 25.1017 7.89453 25.09 9.19531L 25.09 11.7969C 25.09 13.1797 25.2892 14.2021 25.6876 14.8643C 26.0919 15.5205 26.7013 15.8486 27.5157 15.8486C 28.3185 15.8486 28.9132 15.5381 29.2999 14.917C 29.6925 14.2959 29.8976 13.3174 29.9152 11.9814L 29.9152 9.31836ZM 41.6486 11.542C 41.6486 13.4463 41.3234 14.8613 40.673 15.7871C 40.0226 16.7129 39.006 17.1758 37.6232 17.1758C 36.2579 17.1758 35.2472 16.7246 34.5909 15.8223C 33.9347 14.9141 33.5948 13.5605 33.5714 11.7617L 33.5714 9.59082C 33.5714 7.70996 33.8966 6.3125 34.547 5.39844C 35.1974 4.48438 36.2169 4.02734 37.6056 4.02734C 38.9825 4.02734 39.9962 4.46973 40.6466 5.35449C 41.297 6.2334 41.631 7.59277 41.6486 9.43262L 41.6486 11.542ZM 40.0226 9.31836C 40.0226 7.94141 39.8292 6.93945 39.4425 6.3125C 39.0558 5.67969 38.4435 5.36328 37.6056 5.36328C 36.7736 5.36328 36.1671 5.67676 35.7863 6.30371C 35.4054 6.93066 35.2091 7.89453 35.1974 9.19531L 35.1974 11.7969C 35.1974 13.1797 35.3966 14.2021 35.795 14.8643C 36.1993 15.5205 36.8087 15.8486 37.6232 15.8486C 38.4259 15.8486 39.0206 15.5381 39.4073 14.917C 39.7999 14.2959 40.005 13.3174 40.0226 11.9814L 40.0226 9.31836ZM 43.9337 16.1475C 43.9337 15.8662 44.0157 15.6318 44.1798 15.4443C 44.3497 15.2568 44.6017 15.1631 44.9357 15.1631C 45.2696 15.1631 45.5216 15.2568 45.6915 15.4443C 45.8673 15.6318 45.9552 15.8662 45.9552 16.1475C 45.9552 16.417 45.8673 16.6426 45.6915 16.8242C 45.5216 17.0059 45.2696 17.0967 44.9357 17.0967C 44.6017 17.0967 44.3497 17.0059 44.1798 16.8242C 44.0157 16.6426 43.9337 16.417 43.9337 16.1475ZM 50.8419 9.81055L 52.0636 9.81055C 52.8312 9.79883 53.4347 9.59668 53.8741 9.2041C 54.3136 8.81152 54.5333 8.28125 54.5333 7.61328C 54.5333 6.11328 53.7863 5.36328 52.2921 5.36328C 51.589 5.36328 51.0265 5.56543 50.6046 5.96973C 50.1886 6.36816 49.9806 6.89844 49.9806 7.56055L 48.3546 7.56055C 48.3546 6.54687 48.7238 5.70605 49.462 5.03809C 50.2062 4.36426 51.1495 4.02734 52.2921 4.02734C 53.4991 4.02734 54.4454 4.34668 55.131 4.98535C 55.8165 5.62402 56.1593 6.51172 56.1593 7.64844C 56.1593 8.20508 55.9777 8.74414 55.6144 9.26562C 55.257 9.78711 54.7677 10.1768 54.1466 10.4346C 54.8497 10.6572 55.3917 11.0264 55.7726 11.542C 56.1593 12.0576 56.3527 12.6875 56.3527 13.4316C 56.3527 14.5801 55.9777 15.4912 55.2277 16.165C 54.4777 16.8389 53.5021 17.1758 52.3009 17.1758C 51.0997 17.1758 50.1212 16.8506 49.3654 16.2002C 48.6154 15.5498 48.2404 14.6914 48.2404 13.625L 49.8751 13.625C 49.8751 14.2988 50.0948 14.8379 50.5343 15.2422C 50.9738 15.6465 51.5626 15.8486 52.3009 15.8486C 53.0861 15.8486 53.6866 15.6436 54.1027 15.2334C 54.5187 14.8232 54.7267 14.2344 54.7267 13.4668C 54.7267 12.7227 54.4982 12.1514 54.0411 11.7529C 53.5841 11.3545 52.9249 11.1494 52.0636 11.1377L 50.8419 11.1377L 50.8419 9.81055Z"/>
<path id="path5_fill" d="M 19.2407 10.528C 19.2407 9.94933 19.3481 9.436 19.5627 8.988C 19.7867 8.53067 20.0807 8.148 20.4447 7.84C 20.8181 7.532 21.2474 7.29867 21.7327 7.14C 22.2181 6.972 22.7267 6.888 23.2587 6.888C 23.8094 6.888 24.3041 6.97667 24.7427 7.154C 25.1907 7.33133 25.5641 7.55533 25.8627 7.826L 24.9107 9.1C 24.3974 8.736 23.8841 8.554 23.3707 8.554C 22.7734 8.554 22.2881 8.73133 21.9147 9.086C 21.5414 9.44067 21.3547 9.92133 21.3547 10.528C 21.3547 11.1347 21.5321 11.6153 21.8867 11.97C 22.2507 12.3247 22.7221 12.502 23.3007 12.502C 23.6647 12.502 24.0007 12.4367 24.3087 12.306C 24.6167 12.1753 24.8921 12.0213 25.1347 11.844L 25.9747 13.146C 25.5547 13.5007 25.0881 13.762 24.5747 13.93C 24.0707 14.0887 23.5807 14.168 23.1047 14.168C 22.5541 14.168 22.0454 14.0887 21.5787 13.93C 21.1121 13.762 20.7014 13.524 20.3467 13.216C 20.0014 12.908 19.7307 12.53 19.5347 12.082C 19.3387 11.6247 19.2407 11.1067 19.2407 10.528Z"/>
<path id="path6_fill" d="M 0 0L 248 0L 248 41.238L 0 41.238L 0 0Z"/>
<path id="path7_fill" d="M 1.022 10.57C 1.022 10.0007 1.12467 9.492 1.33 9.044C 1.54467 8.596 1.82933 8.218 2.184 7.91C 2.53867 7.602 2.954 7.36867 3.43 7.21C 3.906 7.042 4.40533 6.958 4.928 6.958C 5.488 6.958 5.978 7.05133 6.398 7.238C 6.82733 7.42467 7.18667 7.65333 7.476 7.924L 6.706 8.932C 6.43533 8.71733 6.16 8.554 5.88 8.442C 5.60933 8.33 5.32 8.274 5.012 8.274C 4.32133 8.274 3.76133 8.484 3.332 8.904C 2.90267 9.31467 2.688 9.87 2.688 10.57C 2.688 10.9153 2.744 11.228 2.856 11.508C 2.968 11.788 3.122 12.0307 3.318 12.236C 3.52333 12.432 3.766 12.586 4.046 12.698C 4.326 12.8007 4.634 12.852 4.97 12.852C 5.362 12.852 5.71667 12.7773 6.034 12.628C 6.36067 12.4787 6.65933 12.3013 6.93 12.096L 7.602 13.132C 7.21 13.4773 6.77133 13.7387 6.286 13.916C 5.80067 14.084 5.31067 14.168 4.816 14.168C 4.27467 14.168 3.77067 14.0887 3.304 13.93C 2.84667 13.7713 2.44533 13.538 2.1 13.23C 1.764 12.922 1.498 12.544 1.302 12.096C 1.11533 11.648 1.022 11.1393 1.022 10.57ZM 17.8811 7.224L 24.0971 7.224L 24.0971 8.4L 17.8811 8.4L 17.8811 7.224ZM 17.8811 10.346L 24.0971 10.346L 24.0971 11.522L 17.8811 11.522L 17.8811 10.346ZM 34.7261 7.126L 36.0561 7.126L 36.1821 8.162L 36.2381 8.162C 36.5648 7.83533 36.9241 7.55533 37.3161 7.322C 37.7175 7.07933 38.1841 6.958 38.7161 6.958C 39.5095 6.958 40.0928 7.20067 40.4661 7.686C 40.8395 8.162 41.0261 8.848 41.0261 9.744L 41.0261 14L 39.4021 14L 39.4021 9.954C 39.4021 9.394 39.3041 8.988 39.1081 8.736C 38.9215 8.47467 38.5901 8.344 38.1141 8.344C 37.7781 8.344 37.4795 8.42333 37.2181 8.582C 36.9568 8.74067 36.6675 8.98333 36.3501 9.31L 36.3501 14L 34.7261 14L 34.7261 7.126ZM 44.7447 14.56L 44.7447 16.716L 43.1207 16.716L 43.1207 7.126L 44.4507 7.126L 44.5767 7.91L 44.6187 7.91C 44.9173 7.63933 45.258 7.41533 45.6407 7.238C 46.0327 7.05133 46.4247 6.958 46.8167 6.958C 47.2647 6.958 47.6613 7.042 48.0067 7.21C 48.3613 7.36867 48.6553 7.602 48.8887 7.91C 49.1313 8.218 49.3133 8.58667 49.4347 9.016C 49.5653 9.44533 49.6307 9.926 49.6307 10.458C 49.6307 11.046 49.5467 11.5733 49.3787 12.04C 49.2107 12.4973 48.982 12.8847 48.6927 13.202C 48.4127 13.51 48.086 13.748 47.7127 13.916C 47.3487 14.084 46.9707 14.168 46.5787 14.168C 46.2613 14.168 45.9347 14.098 45.5987 13.958C 45.272 13.818 44.9687 13.6173 44.6887 13.356L 44.7447 14.56ZM 44.7447 12.208C 44.9967 12.4413 45.2533 12.6047 45.5147 12.698C 45.7853 12.7913 46.028 12.838 46.2427 12.838C 46.7373 12.838 47.148 12.642 47.4747 12.25C 47.8013 11.8487 47.9647 11.256 47.9647 10.472C 47.9647 9.78133 47.8387 9.24467 47.5867 8.862C 47.3347 8.47933 46.9287 8.288 46.3687 8.288C 46.1073 8.288 45.8413 8.35333 45.5707 8.484C 45.3 8.61467 45.0247 8.82467 44.7447 9.114L 44.7447 12.208ZM 53.1812 12.754C 53.1812 12.3433 53.3119 12.0073 53.5732 11.746C 53.8345 11.4753 54.1659 11.34 54.5672 11.34C 54.9685 11.34 55.2999 11.4753 55.5612 11.746C 55.8225 12.0073 55.9532 12.3433 55.9532 12.754C 55.9532 13.1647 55.8225 13.5053 55.5612 13.776C 55.2999 14.0373 54.9685 14.168 54.5672 14.168C 54.1659 14.168 53.8345 14.0373 53.5732 13.776C 53.3119 13.5053 53.1812 13.1647 53.1812 12.754ZM 59.7557 12.152C 59.7557 11.7693 59.8444 11.4333 60.0217 11.144C 60.1991 10.8453 60.4791 10.5933 60.8617 10.388C 61.2444 10.1827 61.7344 10.0147 62.3317 9.884C 62.9291 9.75333 63.6524 9.66 64.5017 9.604C 64.4737 9.212 64.3337 8.89 64.0817 8.638C 63.8297 8.386 63.4237 8.26 62.8637 8.26C 62.4717 8.26 62.0844 8.33467 61.7017 8.484C 61.3284 8.624 60.9644 8.792 60.6097 8.988L 60.0217 7.91C 60.4417 7.66733 60.9224 7.448 61.4637 7.252C 62.0051 7.056 62.5697 6.958 63.1577 6.958C 64.1191 6.958 64.8517 7.21467 65.3557 7.728C 65.8597 8.232 66.1117 8.96467 66.1117 9.926L 66.1117 14L 64.7957 14L 64.6697 13.146L 64.6277 13.146C 64.2637 13.426 63.8577 13.6687 63.4097 13.874C 62.9711 14.07 62.5184 14.168 62.0517 14.168C 61.7157 14.168 61.4077 14.1167 61.1277 14.014C 60.8477 13.9207 60.6051 13.7853 60.3997 13.608C 60.1944 13.4307 60.0357 13.2207 59.9237 12.978C 59.8117 12.726 59.7557 12.4507 59.7557 12.152ZM 61.3097 12.026C 61.3097 12.334 61.4264 12.558 61.6597 12.698C 61.9024 12.838 62.1964 12.908 62.5417 12.908C 62.8871 12.908 63.2184 12.8333 63.5357 12.684C 63.8624 12.5253 64.1844 12.32 64.5017 12.068L 64.5017 10.612C 63.8857 10.6587 63.3724 10.724 62.9617 10.808C 62.5511 10.8827 62.2244 10.9807 61.9817 11.102C 61.7391 11.2233 61.5664 11.3633 61.4637 11.522C 61.3611 11.6713 61.3097 11.8393 61.3097 12.026ZM 68.9762 7.126L 70.3062 7.126L 70.4462 8.68L 70.4883 8.68C 70.8429 8.12 71.2676 7.69533 71.7622 7.406C 72.2663 7.10733 72.8169 6.958 73.4142 6.958C 73.6943 6.958 73.9322 6.98133 74.1282 7.028C 74.3336 7.06533 74.5389 7.13533 74.7442 7.238L 74.4083 8.596C 74.1842 8.52133 73.9836 8.47 73.8062 8.442C 73.6382 8.40467 73.4236 8.386 73.1622 8.386C 72.6863 8.386 72.2289 8.52133 71.7903 8.792C 71.3516 9.06267 70.9549 9.534 70.6003 10.206L 70.6003 14L 68.9762 14L 68.9762 7.126ZM 77.3708 7.126L 78.7008 7.126L 78.8408 8.68L 78.8828 8.68C 79.2374 8.12 79.6621 7.69533 80.1568 7.406C 80.6608 7.10733 81.2114 6.958 81.8088 6.958C 82.0888 6.958 82.3268 6.98133 82.5228 7.028C 82.7281 7.06533 82.9334 7.13533 83.1388 7.238L 82.8028 8.596C 82.5788 8.52133 82.3781 8.47 82.2008 8.442C 82.0328 8.40467 81.8181 8.386 81.5568 8.386C 81.0808 8.386 80.6234 8.52133 80.1848 8.792C 79.7461 9.06267 79.3494 9.534 78.9948 10.206L 78.9948 14L 77.3708 14L 77.3708 7.126ZM 84.9393 12.152C 84.9393 11.7693 85.028 11.4333 85.2053 11.144C 85.3826 10.8453 85.6626 10.5933 86.0453 10.388C 86.428 10.1827 86.918 10.0147 87.5153 9.884C 88.1126 9.75333 88.836 9.66 89.6853 9.604C 89.6573 9.212 89.5173 8.89 89.2653 8.638C 89.0133 8.386 88.6073 8.26 88.0473 8.26C 87.6553 8.26 87.268 8.33467 86.8853 8.484C 86.512 8.624 86.148 8.792 85.7933 8.988L 85.2053 7.91C 85.6253 7.66733 86.106 7.448 86.6473 7.252C 87.1886 7.056 87.7533 6.958 88.3413 6.958C 89.3026 6.958 90.0353 7.21467 90.5393 7.728C 91.0433 8.232 91.2953 8.96467 91.2953 9.926L 91.2953 14L 89.9793 14L 89.8533 13.146L 89.8113 13.146C 89.4473 13.426 89.0413 13.6687 88.5933 13.874C 88.1546 14.07 87.702 14.168 87.2353 14.168C 86.8993 14.168 86.5913 14.1167 86.3113 14.014C 86.0313 13.9207 85.7886 13.7853 85.5833 13.608C 85.378 13.4307 85.2193 13.2207 85.1073 12.978C 84.9953 12.726 84.9393 12.4507 84.9393 12.152ZM 86.4933 12.026C 86.4933 12.334 86.61 12.558 86.8433 12.698C 87.086 12.838 87.38 12.908 87.7253 12.908C 88.0706 12.908 88.402 12.8333 88.7193 12.684C 89.046 12.5253 89.368 12.32 89.6853 12.068L 89.6853 10.612C 89.0693 10.6587 88.556 10.724 88.1453 10.808C 87.7346 10.8827 87.408 10.9807 87.1653 11.102C 86.9226 11.2233 86.75 11.3633 86.6473 11.522C 86.5446 11.6713 86.4933 11.8393 86.4933 12.026ZM 93.5858 15.428C 93.6792 15.456 93.7725 15.4793 93.8658 15.498C 93.9592 15.5167 94.0572 15.526 94.1598 15.526C 94.5985 15.526 94.9485 15.414 95.2098 15.19C 95.4712 14.9753 95.6718 14.6953 95.8118 14.35L 95.9798 13.916L 92.8998 7.126L 94.5098 7.126L 95.9238 10.5C 96.0545 10.808 96.1805 11.1347 96.3018 11.48C 96.4232 11.8253 96.5492 12.1707 96.6798 12.516L 96.7358 12.516C 96.8385 12.1893 96.9505 11.8533 97.0718 11.508C 97.1932 11.1627 97.3098 10.8267 97.4218 10.5L 98.6678 7.126L 100.194 7.126L 97.3238 14.308C 97.1745 14.7 97.0065 15.05 96.8198 15.358C 96.6425 15.666 96.4325 15.9273 96.1898 16.142C 95.9472 16.366 95.6672 16.534 95.3498 16.646C 95.0325 16.7673 94.6685 16.828 94.2578 16.828C 94.0712 16.828 93.8938 16.814 93.7258 16.786C 93.5578 16.7673 93.4085 16.7347 93.2778 16.688L 93.5858 15.428ZM 106.502 16.478C 105.56 15.694 104.813 14.77 104.262 13.706C 103.721 12.642 103.45 11.4427 103.45 10.108C 103.45 8.77333 103.721 7.574 104.262 6.51C 104.813 5.446 105.56 4.522 106.502 3.738L 107.398 4.48C 106.512 5.28267 105.863 6.13667 105.452 7.042C 105.042 7.94733 104.836 8.96933 104.836 10.108C 104.836 11.2467 105.042 12.2687 105.452 13.174C 105.863 14.0793 106.512 14.9333 107.398 15.736L 106.502 16.478ZM 112.111 4.088L 116.115 4.088L 116.115 4.97L 113.357 4.97L 113.357 15.246L 116.115 15.246L 116.115 16.128L 112.111 16.128L 112.111 4.088ZM 153.748 16.044C 154.933 15.568 155.53 14.8493 155.54 13.888C 155.493 13.8973 155.428 13.902 155.344 13.902C 154.989 13.902 154.681 13.7993 154.42 13.594C 154.158 13.3793 154.028 13.0667 154.028 12.656C 154.028 12.264 154.158 11.9607 154.42 11.746C 154.69 11.522 155.008 11.41 155.372 11.41C 155.876 11.41 156.254 11.5967 156.506 11.97C 156.758 12.3433 156.884 12.8567 156.884 13.51C 156.884 14.3687 156.65 15.092 156.184 15.68C 155.717 16.2773 155.045 16.7207 154.168 17.01L 153.748 16.044ZM 212.509 16.044C 213.695 15.568 214.292 14.8493 214.301 13.888C 214.255 13.8973 214.189 13.902 214.105 13.902C 213.751 13.902 213.443 13.7993 213.181 13.594C 212.92 13.3793 212.789 13.0667 212.789 12.656C 212.789 12.264 212.92 11.9607 213.181 11.746C 213.452 11.522 213.769 11.41 214.133 11.41C 214.637 11.41 215.015 11.5967 215.267 11.97C 215.519 12.3433 215.645 12.8567 215.645 13.51C 215.645 14.3687 215.412 15.092 214.945 15.68C 214.479 16.2773 213.807 16.7207 212.929 17.01L 212.509 16.044ZM 153.748 33.044C 154.933 32.568 155.53 31.8493 155.54 30.888C 155.493 30.8973 155.428 30.902 155.344 30.902C 154.989 30.902 154.681 30.7993 154.42 30.594C 154.158 30.3793 154.028 30.0667 154.028 29.656C 154.028 29.264 154.158 28.9607 154.42 28.746C 154.69 28.522 155.008 28.41 155.372 28.41C 155.876 28.41 156.254 28.5967 156.506 28.97C 156.758 29.3433 156.884 29.8567 156.884 30.51C 156.884 31.3687 156.65 32.092 156.184 32.68C 155.717 33.2773 155.045 33.7207 154.168 34.01L 153.748 33.044ZM 214.035 32.246L 214.035 21.97L 211.291 21.97L 211.291 21.088L 215.295 21.088L 215.295 33.128L 211.291 33.128L 211.291 32.246L 214.035 32.246ZM 219.994 32.736C 220.88 31.9333 221.529 31.0793 221.94 30.174C 222.35 29.2687 222.556 28.2467 222.556 27.108C 222.556 25.9693 222.35 24.9473 221.94 24.042C 221.529 23.1367 220.88 22.2827 219.994 21.48L 220.89 20.738C 221.832 21.522 222.574 22.446 223.116 23.51C 223.666 24.574 223.942 25.7733 223.942 27.108C 223.942 28.4427 223.666 29.642 223.116 30.706C 222.574 31.77 221.832 32.694 220.89 33.478L 219.994 32.736Z"/>
<path id="path8_fill" d="M 119.847 11.55C 119.847 11.998 120.025 12.3573 120.379 12.628C 120.734 12.8893 121.196 13.02 121.765 13.02C 122.307 13.02 122.731 12.9033 123.039 12.67C 123.347 12.4367 123.501 12.11 123.501 11.69C 123.501 11.438 123.436 11.2233 123.305 11.046C 123.184 10.8687 123.011 10.7147 122.787 10.584C 122.573 10.4533 122.316 10.3367 122.017 10.234C 121.719 10.122 121.392 10.0053 121.037 9.884C 120.692 10.0893 120.407 10.3273 120.183 10.598C 119.959 10.8593 119.847 11.1767 119.847 11.55ZM 122.395 8.974C 122.983 8.498 123.277 7.98467 123.277 7.434C 123.277 7.042 123.147 6.72 122.885 6.468C 122.624 6.20667 122.246 6.076 121.751 6.076C 121.331 6.076 120.986 6.18333 120.715 6.398C 120.454 6.60333 120.323 6.902 120.323 7.294C 120.323 7.518 120.375 7.714 120.477 7.882C 120.58 8.05 120.725 8.19933 120.911 8.33C 121.098 8.45133 121.317 8.568 121.569 8.68C 121.821 8.78267 122.097 8.88067 122.395 8.974ZM 118.419 11.718C 118.419 11.4287 118.466 11.1673 118.559 10.934C 118.662 10.7007 118.797 10.4953 118.965 10.318C 119.133 10.1313 119.325 9.968 119.539 9.828C 119.763 9.67867 119.992 9.548 120.225 9.436L 120.225 9.38C 119.852 9.13733 119.535 8.848 119.273 8.512C 119.021 8.176 118.895 7.77 118.895 7.294C 118.895 6.93 118.965 6.60333 119.105 6.314C 119.255 6.02467 119.455 5.77733 119.707 5.572C 119.969 5.36667 120.272 5.208 120.617 5.096C 120.972 4.984 121.359 4.928 121.779 4.928C 122.666 4.928 123.361 5.14733 123.865 5.586C 124.379 6.02467 124.635 6.608 124.635 7.336C 124.635 7.756 124.505 8.13867 124.243 8.484C 123.982 8.82933 123.669 9.12333 123.305 9.366L 123.305 9.422C 123.548 9.54333 123.772 9.674 123.977 9.814C 124.192 9.954 124.374 10.1173 124.523 10.304C 124.682 10.4813 124.803 10.6913 124.887 10.934C 124.981 11.1673 125.027 11.438 125.027 11.746C 125.027 12.0913 124.953 12.4133 124.803 12.712C 124.663 13.0013 124.453 13.258 124.173 13.482C 123.893 13.6967 123.548 13.8647 123.137 13.986C 122.727 14.1073 122.26 14.168 121.737 14.168C 121.224 14.168 120.762 14.1073 120.351 13.986C 119.941 13.8647 119.591 13.6967 119.301 13.482C 119.021 13.2673 118.802 13.0107 118.643 12.712C 118.494 12.4133 118.419 12.082 118.419 11.718ZM 130.118 14.168C 129.101 14.168 128.293 13.7667 127.696 12.964C 127.108 12.1613 126.814 11.0087 126.814 9.506C 126.814 7.994 127.108 6.85533 127.696 6.09C 128.293 5.31533 129.101 4.928 130.118 4.928C 131.135 4.928 131.938 5.31533 132.526 6.09C 133.123 6.85533 133.422 7.994 133.422 9.506C 133.422 11.0087 133.123 12.1613 132.526 12.964C 131.938 13.7667 131.135 14.168 130.118 14.168ZM 130.118 6.188C 129.847 6.188 129.6 6.24867 129.376 6.37C 129.152 6.482 128.956 6.66867 128.788 6.93C 128.629 7.19133 128.503 7.53667 128.41 7.966C 128.317 8.386 128.27 8.89933 128.27 9.506C 128.27 10.1127 128.317 10.6353 128.41 11.074C 128.503 11.5033 128.629 11.8533 128.788 12.124C 128.956 12.3947 129.152 12.5953 129.376 12.726C 129.6 12.8473 129.847 12.908 130.118 12.908C 130.379 12.908 130.622 12.8473 130.846 12.726C 131.079 12.5953 131.275 12.3947 131.434 12.124C 131.602 11.8533 131.733 11.5033 131.826 11.074C 131.919 10.6353 131.966 10.1127 131.966 9.506C 131.966 8.89933 131.919 8.386 131.826 7.966C 131.733 7.53667 131.602 7.19133 131.434 6.93C 131.275 6.66867 131.079 6.482 130.846 6.37C 130.622 6.24867 130.379 6.188 130.118 6.188ZM 130.118 10.444C 129.847 10.444 129.619 10.3553 129.432 10.178C 129.245 10.0007 129.152 9.758 129.152 9.45C 129.152 9.142 129.245 8.89933 129.432 8.722C 129.619 8.54467 129.847 8.456 130.118 8.456C 130.389 8.456 130.617 8.54467 130.804 8.722C 130.991 8.89933 131.084 9.142 131.084 9.45C 131.084 9.758 130.991 10.0007 130.804 10.178C 130.617 10.3553 130.389 10.444 130.118 10.444ZM 137.127 12.754C 137.127 12.3433 137.257 12.0073 137.519 11.746C 137.78 11.4753 138.111 11.34 138.513 11.34C 138.914 11.34 139.245 11.4753 139.506 11.746C 139.768 12.0073 139.898 12.3433 139.898 12.754C 139.898 13.1647 139.768 13.5053 139.506 13.776C 139.245 14.0373 138.914 14.168 138.513 14.168C 138.111 14.168 137.78 14.0373 137.519 13.776C 137.257 13.5053 137.127 13.1647 137.127 12.754ZM 146.907 14.168C 145.89 14.168 145.082 13.7667 144.485 12.964C 143.897 12.1613 143.603 11.0087 143.603 9.506C 143.603 7.994 143.897 6.85533 144.485 6.09C 145.082 5.31533 145.89 4.928 146.907 4.928C 147.924 4.928 148.727 5.31533 149.315 6.09C 149.912 6.85533 150.211 7.994 150.211 9.506C 150.211 11.0087 149.912 12.1613 149.315 12.964C 148.727 13.7667 147.924 14.168 146.907 14.168ZM 146.907 6.188C 146.636 6.188 146.389 6.24867 146.165 6.37C 145.941 6.482 145.745 6.66867 145.577 6.93C 145.418 7.19133 145.292 7.53667 145.199 7.966C 145.106 8.386 145.059 8.89933 145.059 9.506C 145.059 10.1127 145.106 10.6353 145.199 11.074C 145.292 11.5033 145.418 11.8533 145.577 12.124C 145.745 12.3947 145.941 12.5953 146.165 12.726C 146.389 12.8473 146.636 12.908 146.907 12.908C 147.168 12.908 147.411 12.8473 147.635 12.726C 147.868 12.5953 148.064 12.3947 148.223 12.124C 148.391 11.8533 148.522 11.5033 148.615 11.074C 148.708 10.6353 148.755 10.1127 148.755 9.506C 148.755 8.89933 148.708 8.386 148.615 7.966C 148.522 7.53667 148.391 7.19133 148.223 6.93C 148.064 6.66867 147.868 6.482 147.635 6.37C 147.411 6.24867 147.168 6.188 146.907 6.188ZM 146.907 10.444C 146.636 10.444 146.408 10.3553 146.221 10.178C 146.034 10.0007 145.941 9.758 145.941 9.45C 145.941 9.142 146.034 8.89933 146.221 8.722C 146.408 8.54467 146.636 8.456 146.907 8.456C 147.178 8.456 147.406 8.54467 147.593 8.722C 147.78 8.89933 147.873 9.142 147.873 9.45C 147.873 9.758 147.78 10.0007 147.593 10.178C 147.406 10.3553 147.178 10.444 146.907 10.444ZM 175.353 12.684L 175.353 14L 169.151 14L 169.151 12.684L 171.559 12.684L 171.559 6.832L 169.697 6.832L 169.697 5.824C 170.201 5.74 170.63 5.642 170.985 5.53C 171.349 5.40867 171.685 5.264 171.993 5.096L 173.169 5.096L 173.169 12.684L 175.353 12.684ZM 180.485 14.168C 179.468 14.168 178.66 13.7667 178.063 12.964C 177.475 12.1613 177.181 11.0087 177.181 9.506C 177.181 7.994 177.475 6.85533 178.063 6.09C 178.66 5.31533 179.468 4.928 180.485 4.928C 181.502 4.928 182.305 5.31533 182.893 6.09C 183.49 6.85533 183.789 7.994 183.789 9.506C 183.789 11.0087 183.49 12.1613 182.893 12.964C 182.305 13.7667 181.502 14.168 180.485 14.168ZM 180.485 6.188C 180.214 6.188 179.967 6.24867 179.743 6.37C 179.519 6.482 179.323 6.66867 179.155 6.93C 178.996 7.19133 178.87 7.53667 178.777 7.966C 178.684 8.386 178.637 8.89933 178.637 9.506C 178.637 10.1127 178.684 10.6353 178.777 11.074C 178.87 11.5033 178.996 11.8533 179.155 12.124C 179.323 12.3947 179.519 12.5953 179.743 12.726C 179.967 12.8473 180.214 12.908 180.485 12.908C 180.746 12.908 180.989 12.8473 181.213 12.726C 181.446 12.5953 181.642 12.3947 181.801 12.124C 181.969 11.8533 182.1 11.5033 182.193 11.074C 182.286 10.6353 182.333 10.1127 182.333 9.506C 182.333 8.89933 182.286 8.386 182.193 7.966C 182.1 7.53667 181.969 7.19133 181.801 6.93C 181.642 6.66867 181.446 6.482 181.213 6.37C 180.989 6.24867 180.746 6.188 180.485 6.188ZM 180.485 10.444C 180.214 10.444 179.986 10.3553 179.799 10.178C 179.612 10.0007 179.519 9.758 179.519 9.45C 179.519 9.142 179.612 8.89933 179.799 8.722C 179.986 8.54467 180.214 8.456 180.485 8.456C 180.756 8.456 180.984 8.54467 181.171 8.722C 181.358 8.89933 181.451 9.142 181.451 9.45C 181.451 9.758 181.358 10.0007 181.171 10.178C 180.984 10.3553 180.756 10.444 180.485 10.444ZM 186.136 11.872C 186.434 12.1427 186.78 12.376 187.172 12.572C 187.573 12.7587 188.016 12.852 188.502 12.852C 189.052 12.852 189.505 12.7353 189.86 12.502C 190.224 12.2593 190.406 11.928 190.406 11.508C 190.406 11.2747 190.354 11.0647 190.252 10.878C 190.149 10.6913 189.981 10.5327 189.748 10.402C 189.524 10.2713 189.22 10.1733 188.838 10.108C 188.464 10.0333 188.002 9.996 187.452 9.996L 187.452 8.82C 187.928 8.82 188.334 8.78733 188.67 8.722C 189.006 8.64733 189.276 8.54933 189.482 8.428C 189.696 8.29733 189.85 8.14333 189.944 7.966C 190.046 7.78867 190.098 7.59733 190.098 7.392C 190.098 7.01867 189.953 6.72933 189.664 6.524C 189.384 6.30933 189.006 6.202 188.53 6.202C 188.138 6.202 187.774 6.28133 187.438 6.44C 187.111 6.58933 186.798 6.79 186.5 7.042L 185.66 6.048C 186.07 5.712 186.518 5.44133 187.004 5.236C 187.489 5.03067 188.021 4.928 188.6 4.928C 189.057 4.928 189.477 4.97933 189.86 5.082C 190.242 5.18467 190.569 5.33867 190.84 5.544C 191.12 5.74 191.334 5.98733 191.484 6.286C 191.642 6.57533 191.722 6.90667 191.722 7.28C 191.722 7.784 191.558 8.204 191.232 8.54C 190.905 8.876 190.466 9.13733 189.916 9.324L 189.916 9.38C 190.205 9.45467 190.476 9.55733 190.728 9.688C 190.989 9.80933 191.213 9.96333 191.4 10.15C 191.596 10.3367 191.75 10.5513 191.862 10.794C 191.974 11.0367 192.03 11.3027 192.03 11.592C 192.03 12.0027 191.936 12.3667 191.75 12.684C 191.572 13.0013 191.33 13.272 191.022 13.496C 190.714 13.7107 190.354 13.8787 189.944 14C 189.533 14.112 189.099 14.168 188.642 14.168C 187.876 14.168 187.223 14.0467 186.682 13.804C 186.14 13.5613 185.706 13.2627 185.38 12.908L 186.136 11.872ZM 195.888 12.754C 195.888 12.3433 196.019 12.0073 196.28 11.746C 196.542 11.4753 196.873 11.34 197.274 11.34C 197.676 11.34 198.007 11.4753 198.268 11.746C 198.53 12.0073 198.66 12.3433 198.66 12.754C 198.66 13.1647 198.53 13.5053 198.268 13.776C 198.007 14.0373 197.676 14.168 197.274 14.168C 196.873 14.168 196.542 14.0373 196.28 13.776C 196.019 13.5053 195.888 13.1647 195.888 12.754ZM 206.425 10.458L 206.425 8.33C 206.434 8.05933 206.443 7.76533 206.453 7.448C 206.471 7.13067 206.49 6.83667 206.509 6.566L 206.439 6.566C 206.289 6.79933 206.135 7.03267 205.977 7.266C 205.818 7.49933 205.659 7.73733 205.501 7.98L 203.625 10.458L 206.425 10.458ZM 209.197 11.704L 207.937 11.704L 207.937 14L 206.425 14L 206.425 11.704L 201.987 11.704L 201.987 10.612L 206.075 5.082L 207.937 5.082L 207.937 10.458L 209.197 10.458L 209.197 11.704ZM 121.457 26.436C 121.765 26.436 122.087 26.3567 122.423 26.198C 122.759 26.0393 123.091 25.7687 123.417 25.386C 123.315 24.602 123.091 24.0373 122.745 23.692C 122.4 23.3373 121.975 23.16 121.471 23.16C 121.247 23.16 121.037 23.1973 120.841 23.272C 120.645 23.3467 120.473 23.454 120.323 23.594C 120.183 23.734 120.067 23.9113 119.973 24.126C 119.889 24.3313 119.847 24.5693 119.847 24.84C 119.847 25.372 119.987 25.7733 120.267 26.044C 120.557 26.3053 120.953 26.436 121.457 26.436ZM 119.371 29.18C 119.586 29.376 119.838 29.5393 120.127 29.67C 120.417 29.7913 120.725 29.852 121.051 29.852C 121.359 29.852 121.653 29.796 121.933 29.684C 122.223 29.572 122.475 29.3853 122.689 29.124C 122.913 28.8627 123.095 28.522 123.235 28.102C 123.375 27.6727 123.455 27.15 123.473 26.534C 123.119 26.8607 122.736 27.122 122.325 27.318C 121.924 27.5047 121.527 27.598 121.135 27.598C 120.734 27.598 120.361 27.542 120.015 27.43C 119.679 27.318 119.39 27.15 119.147 26.926C 118.905 26.6927 118.713 26.4033 118.573 26.058C 118.433 25.7127 118.363 25.3067 118.363 24.84C 118.363 24.392 118.447 23.9907 118.615 23.636C 118.783 23.272 119.007 22.964 119.287 22.712C 119.567 22.46 119.894 22.2687 120.267 22.138C 120.641 21.998 121.033 21.928 121.443 21.928C 121.919 21.928 122.367 22.0167 122.787 22.194C 123.217 22.362 123.59 22.6233 123.907 22.978C 124.234 23.3327 124.491 23.7853 124.677 24.336C 124.864 24.8773 124.957 25.5213 124.957 26.268C 124.957 27.136 124.85 27.878 124.635 28.494C 124.43 29.11 124.15 29.6187 123.795 30.02C 123.45 30.412 123.049 30.7013 122.591 30.888C 122.134 31.0747 121.663 31.168 121.177 31.168C 120.589 31.168 120.071 31.07 119.623 30.874C 119.175 30.678 118.802 30.44 118.503 30.16L 119.371 29.18ZM 130.37 29.936C 130.594 29.936 130.799 29.8987 130.986 29.824C 131.182 29.7493 131.355 29.642 131.504 29.502C 131.653 29.3527 131.77 29.1753 131.854 28.97C 131.938 28.7553 131.98 28.5127 131.98 28.242C 131.98 27.71 131.835 27.3133 131.546 27.052C 131.266 26.7907 130.874 26.66 130.37 26.66C 130.071 26.66 129.754 26.7393 129.418 26.898C 129.082 27.0473 128.751 27.3133 128.424 27.696C 128.527 28.4893 128.751 29.0633 129.096 29.418C 129.441 29.7633 129.866 29.936 130.37 29.936ZM 132.456 23.916C 132.251 23.72 131.999 23.5613 131.7 23.44C 131.411 23.3093 131.107 23.244 130.79 23.244C 130.473 23.244 130.169 23.3 129.88 23.412C 129.6 23.524 129.348 23.7107 129.124 23.972C 128.909 24.2333 128.732 24.5787 128.592 25.008C 128.461 25.428 128.387 25.946 128.368 26.562C 128.713 26.226 129.091 25.9647 129.502 25.778C 129.913 25.582 130.314 25.484 130.706 25.484C 131.107 25.484 131.476 25.54 131.812 25.652C 132.148 25.764 132.437 25.9367 132.68 26.17C 132.932 26.394 133.128 26.6787 133.268 27.024C 133.408 27.3693 133.478 27.7753 133.478 28.242C 133.478 28.69 133.394 29.096 133.226 29.46C 133.058 29.8147 132.829 30.118 132.54 30.37C 132.26 30.622 131.933 30.818 131.56 30.958C 131.187 31.098 130.795 31.168 130.384 31.168C 129.917 31.168 129.469 31.084 129.04 30.916C 128.62 30.7387 128.247 30.4727 127.92 30.118C 127.603 29.7633 127.346 29.3107 127.15 28.76C 126.963 28.2093 126.87 27.5607 126.87 26.814C 126.87 25.946 126.973 25.204 127.178 24.588C 127.393 23.972 127.677 23.468 128.032 23.076C 128.387 22.684 128.788 22.3947 129.236 22.208C 129.693 22.0213 130.169 21.928 130.664 21.928C 131.252 21.928 131.765 22.026 132.204 22.222C 132.652 22.418 133.025 22.656 133.324 22.936L 132.456 23.916ZM 137.127 29.754C 137.127 29.3433 137.257 29.0073 137.519 28.746C 137.78 28.4753 138.111 28.34 138.513 28.34C 138.914 28.34 139.245 28.4753 139.506 28.746C 139.768 29.0073 139.898 29.3433 139.898 29.754C 139.898 30.1647 139.768 30.5053 139.506 30.776C 139.245 31.0373 138.914 31.168 138.513 31.168C 138.111 31.168 137.78 31.0373 137.519 30.776C 137.257 30.5053 137.127 30.1647 137.127 29.754ZM 146.641 26.436C 146.949 26.436 147.271 26.3567 147.607 26.198C 147.943 26.0393 148.274 25.7687 148.601 25.386C 148.498 24.602 148.274 24.0373 147.929 23.692C 147.584 23.3373 147.159 23.16 146.655 23.16C 146.431 23.16 146.221 23.1973 146.025 23.272C 145.829 23.3467 145.656 23.454 145.507 23.594C 145.367 23.734 145.25 23.9113 145.157 24.126C 145.073 24.3313 145.031 24.5693 145.031 24.84C 145.031 25.372 145.171 25.7733 145.451 26.044C 145.74 26.3053 146.137 26.436 146.641 26.436ZM 144.555 29.18C 144.77 29.376 145.022 29.5393 145.311 29.67C 145.6 29.7913 145.908 29.852 146.235 29.852C 146.543 29.852 146.837 29.796 147.117 29.684C 147.406 29.572 147.658 29.3853 147.873 29.124C 148.097 28.8627 148.279 28.522 148.419 28.102C 148.559 27.6727 148.638 27.15 148.657 26.534C 148.302 26.8607 147.92 27.122 147.509 27.318C 147.108 27.5047 146.711 27.598 146.319 27.598C 145.918 27.598 145.544 27.542 145.199 27.43C 144.863 27.318 144.574 27.15 144.331 26.926C 144.088 26.6927 143.897 26.4033 143.757 26.058C 143.617 25.7127 143.547 25.3067 143.547 24.84C 143.547 24.392 143.631 23.9907 143.799 23.636C 143.967 23.272 144.191 22.964 144.471 22.712C 144.751 22.46 145.078 22.2687 145.451 22.138C 145.824 21.998 146.216 21.928 146.627 21.928C 147.103 21.928 147.551 22.0167 147.971 22.194C 148.4 22.362 148.774 22.6233 149.091 22.978C 149.418 23.3327 149.674 23.7853 149.861 24.336C 150.048 24.8773 150.141 25.5213 150.141 26.268C 150.141 27.136 150.034 27.878 149.819 28.494C 149.614 29.11 149.334 29.6187 148.979 30.02C 148.634 30.412 148.232 30.7013 147.775 30.888C 147.318 31.0747 146.846 31.168 146.361 31.168C 145.773 31.168 145.255 31.07 144.807 30.874C 144.359 30.678 143.986 30.44 143.687 30.16L 144.555 29.18ZM 168.801 30.062C 169.501 29.4647 170.126 28.9187 170.677 28.424C 171.227 27.92 171.694 27.4533 172.077 27.024C 172.469 26.5947 172.767 26.1933 172.973 25.82C 173.178 25.4467 173.281 25.0873 173.281 24.742C 173.281 24.266 173.136 23.8927 172.847 23.622C 172.557 23.342 172.133 23.202 171.573 23.202C 171.181 23.202 170.821 23.3 170.495 23.496C 170.177 23.692 169.883 23.9253 169.613 24.196L 168.731 23.3C 169.16 22.8613 169.613 22.5253 170.089 22.292C 170.565 22.0493 171.129 21.928 171.783 21.928C 172.24 21.928 172.655 21.9933 173.029 22.124C 173.402 22.2547 173.719 22.4413 173.981 22.684C 174.251 22.9173 174.457 23.202 174.597 23.538C 174.746 23.874 174.821 24.2473 174.821 24.658C 174.821 25.05 174.723 25.4513 174.527 25.862C 174.34 26.2633 174.083 26.674 173.757 27.094C 173.43 27.5047 173.038 27.9293 172.581 28.368C 172.133 28.8067 171.652 29.2593 171.139 29.726C 171.4 29.7073 171.675 29.6887 171.965 29.67C 172.254 29.642 172.52 29.628 172.763 29.628L 175.283 29.628L 175.283 31L 168.801 31L 168.801 30.062ZM 180.485 31.168C 179.468 31.168 178.66 30.7667 178.063 29.964C 177.475 29.1613 177.181 28.0087 177.181 26.506C 177.181 24.994 177.475 23.8553 178.063 23.09C 178.66 22.3153 179.468 21.928 180.485 21.928C 181.502 21.928 182.305 22.3153 182.893 23.09C 183.49 23.8553 183.789 24.994 183.789 26.506C 183.789 28.0087 183.49 29.1613 182.893 29.964C 182.305 30.7667 181.502 31.168 180.485 31.168ZM 180.485 23.188C 180.214 23.188 179.967 23.2487 179.743 23.37C 179.519 23.482 179.323 23.6687 179.155 23.93C 178.996 24.1913 178.87 24.5367 178.777 24.966C 178.684 25.386 178.637 25.8993 178.637 26.506C 178.637 27.1127 178.684 27.6353 178.777 28.074C 178.87 28.5033 178.996 28.8533 179.155 29.124C 179.323 29.3947 179.519 29.5953 179.743 29.726C 179.967 29.8473 180.214 29.908 180.485 29.908C 180.746 29.908 180.989 29.8473 181.213 29.726C 181.446 29.5953 181.642 29.3947 181.801 29.124C 181.969 28.8533 182.1 28.5033 182.193 28.074C 182.286 27.6353 182.333 27.1127 182.333 26.506C 182.333 25.8993 182.286 25.386 182.193 24.966C 182.1 24.5367 181.969 24.1913 181.801 23.93C 181.642 23.6687 181.446 23.482 181.213 23.37C 180.989 23.2487 180.746 23.188 180.485 23.188ZM 180.485 27.444C 180.214 27.444 179.986 27.3553 179.799 27.178C 179.612 27.0007 179.519 26.758 179.519 26.45C 179.519 26.142 179.612 25.8993 179.799 25.722C 179.986 25.5447 180.214 25.456 180.485 25.456C 180.756 25.456 180.984 25.5447 181.171 25.722C 181.358 25.8993 181.451 26.142 181.451 26.45C 181.451 26.758 181.358 27.0007 181.171 27.178C 180.984 27.3553 180.756 27.444 180.485 27.444ZM 188.88 31.168C 187.862 31.168 187.055 30.7667 186.458 29.964C 185.87 29.1613 185.576 28.0087 185.576 26.506C 185.576 24.994 185.87 23.8553 186.458 23.09C 187.055 22.3153 187.862 21.928 188.88 21.928C 189.897 21.928 190.7 22.3153 191.288 23.09C 191.885 23.8553 192.184 24.994 192.184 26.506C 192.184 28.0087 191.885 29.1613 191.288 29.964C 190.7 30.7667 189.897 31.168 188.88 31.168ZM 188.88 23.188C 188.609 23.188 188.362 23.2487 188.138 23.37C 187.914 23.482 187.718 23.6687 187.55 23.93C 187.391 24.1913 187.265 24.5367 187.172 24.966C 187.078 25.386 187.032 25.8993 187.032 26.506C 187.032 27.1127 187.078 27.6353 187.172 28.074C 187.265 28.5033 187.391 28.8533 187.55 29.124C 187.718 29.3947 187.914 29.5953 188.138 29.726C 188.362 29.8473 188.609 29.908 188.88 29.908C 189.141 29.908 189.384 29.8473 189.608 29.726C 189.841 29.5953 190.037 29.3947 190.196 29.124C 190.364 28.8533 190.494 28.5033 190.588 28.074C 190.681 27.6353 190.728 27.1127 190.728 26.506C 190.728 25.8993 190.681 25.386 190.588 24.966C 190.494 24.5367 190.364 24.1913 190.196 23.93C 190.037 23.6687 189.841 23.482 189.608 23.37C 189.384 23.2487 189.141 23.188 188.88 23.188ZM 188.88 27.444C 188.609 27.444 188.38 27.3553 188.194 27.178C 188.007 27.0007 187.914 26.758 187.914 26.45C 187.914 26.142 188.007 25.8993 188.194 25.722C 188.38 25.5447 188.609 25.456 188.88 25.456C 189.15 25.456 189.379 25.5447 189.566 25.722C 189.752 25.8993 189.846 26.142 189.846 26.45C 189.846 26.758 189.752 27.0007 189.566 27.178C 189.379 27.3553 189.15 27.444 188.88 27.444ZM 195.888 29.754C 195.888 29.3433 196.019 29.0073 196.28 28.746C 196.542 28.4753 196.873 28.34 197.274 28.34C 197.676 28.34 198.007 28.4753 198.268 28.746C 198.53 29.0073 198.66 29.3433 198.66 29.754C 198.66 30.1647 198.53 30.5053 198.268 30.776C 198.007 31.0373 197.676 31.168 197.274 31.168C 196.873 31.168 196.542 31.0373 196.28 30.776C 196.019 30.5053 195.888 30.1647 195.888 29.754ZM 202.925 28.872C 203.223 29.1427 203.569 29.376 203.961 29.572C 204.362 29.7587 204.805 29.852 205.291 29.852C 205.841 29.852 206.294 29.7353 206.649 29.502C 207.013 29.2593 207.195 28.928 207.195 28.508C 207.195 28.2747 207.143 28.0647 207.041 27.878C 206.938 27.6913 206.77 27.5327 206.537 27.402C 206.313 27.2713 206.009 27.1733 205.627 27.108C 205.253 27.0333 204.791 26.996 204.241 26.996L 204.241 25.82C 204.717 25.82 205.123 25.7873 205.459 25.722C 205.795 25.6473 206.065 25.5493 206.271 25.428C 206.485 25.2973 206.639 25.1433 206.733 24.966C 206.835 24.7887 206.887 24.5973 206.887 24.392C 206.887 24.0187 206.742 23.7293 206.453 23.524C 206.173 23.3093 205.795 23.202 205.319 23.202C 204.927 23.202 204.563 23.2813 204.227 23.44C 203.9 23.5893 203.587 23.79 203.289 24.042L 202.449 23.048C 202.859 22.712 203.307 22.4413 203.793 22.236C 204.278 22.0307 204.81 21.928 205.389 21.928C 205.846 21.928 206.266 21.9793 206.649 22.082C 207.031 22.1847 207.358 22.3387 207.629 22.544C 207.909 22.74 208.123 22.9873 208.273 23.286C 208.431 23.5753 208.511 23.9067 208.511 24.28C 208.511 24.784 208.347 25.204 208.021 25.54C 207.694 25.876 207.255 26.1373 206.705 26.324L 206.705 26.38C 206.994 26.4547 207.265 26.5573 207.517 26.688C 207.778 26.8093 208.002 26.9633 208.189 27.15C 208.385 27.3367 208.539 27.5513 208.651 27.794C 208.763 28.0367 208.819 28.3027 208.819 28.592C 208.819 29.0027 208.725 29.3667 208.539 29.684C 208.361 30.0013 208.119 30.272 207.811 30.496C 207.503 30.7107 207.143 30.8787 206.733 31C 206.322 31.112 205.888 31.168 205.431 31.168C 204.665 31.168 204.012 31.0467 203.471 30.804C 202.929 30.5613 202.495 30.2627 202.169 29.908L 202.925 28.872Z"/>
<path id="path9_fill" d="M 22.1544 11.3486L 16.7843 11.3486L 16.7843 17L 15.0968 17L 15.0968 4.20312L 23.0245 4.20312L 23.0245 5.5918L 16.7843 5.5918L 16.7843 9.96875L 22.1544 9.96875L 22.1544 11.3486ZM 30.3634 17C 30.2696 16.8125 30.1935 16.4785 30.1349 15.998C 29.379 16.7832 28.4767 17.1758 27.4279 17.1758C 26.4904 17.1758 25.7198 16.9121 25.1163 16.3848C 24.5187 15.8516 24.2198 15.1777 24.2198 14.3633C 24.2198 13.373 24.5948 12.6055 25.3448 12.0605C 26.1007 11.5098 27.1613 11.2344 28.5265 11.2344L 30.1085 11.2344L 30.1085 10.4873C 30.1085 9.91895 29.9386 9.46777 29.5988 9.13379C 29.2589 8.79395 28.7579 8.62402 28.0958 8.62402C 27.5157 8.62402 27.0294 8.77051 26.6368 9.06348C 26.2443 9.35645 26.048 9.71094 26.048 10.127L 24.4132 10.127C 24.4132 9.65234 24.5802 9.19531 24.9142 8.75586C 25.254 8.31055 25.7111 7.95898 26.2853 7.70117C 26.8654 7.44336 27.5011 7.31445 28.1925 7.31445C 29.2882 7.31445 30.1466 7.58984 30.7677 8.14062C 31.3888 8.68555 31.7111 9.43848 31.7345 10.3994L 31.7345 14.7764C 31.7345 15.6494 31.8458 16.3438 32.0685 16.8594L 32.0685 17L 30.3634 17ZM 27.6652 15.7607C 28.1749 15.7607 28.6583 15.6289 29.1154 15.3652C 29.5724 15.1016 29.9034 14.7588 30.1085 14.3369L 30.1085 12.3857L 28.8341 12.3857C 26.8419 12.3857 25.8458 12.9688 25.8458 14.1348C 25.8458 14.6445 26.0157 15.043 26.3556 15.3301C 26.6954 15.6172 27.132 15.7607 27.6652 15.7607ZM 36.0499 17L 34.4239 17L 34.4239 3.5L 36.0499 3.5L 36.0499 17ZM 44.1974 14.4775C 44.1974 14.0381 44.0304 13.6982 43.6964 13.458C 43.3683 13.2119 42.7911 13.001 41.965 12.8252C 41.1446 12.6494 40.4913 12.4385 40.005 12.1924C 39.5245 11.9463 39.1671 11.6533 38.9327 11.3135C 38.7042 10.9736 38.59 10.5693 38.59 10.1006C 38.59 9.32129 38.9181 8.66211 39.5743 8.12305C 40.2364 7.58398 41.0802 7.31445 42.1056 7.31445C 43.1837 7.31445 44.0568 7.59277 44.7247 8.14941C 45.3986 8.70605 45.7355 9.41797 45.7355 10.2852L 44.1007 10.2852C 44.1007 9.83984 43.9103 9.45605 43.5294 9.13379C 43.1544 8.81152 42.6798 8.65039 42.1056 8.65039C 41.5138 8.65039 41.0509 8.7793 40.7169 9.03711C 40.3829 9.29492 40.2159 9.63184 40.2159 10.0479C 40.2159 10.4404 40.3712 10.7363 40.6818 10.9355C 40.9923 11.1348 41.5519 11.3252 42.3605 11.5068C 43.1749 11.6885 43.8341 11.9053 44.338 12.1572C 44.8419 12.4092 45.214 12.7139 45.4542 13.0713C 45.7003 13.4229 45.8234 13.8535 45.8234 14.3633C 45.8234 15.2129 45.4835 15.8955 44.8038 16.4111C 44.1241 16.9209 43.2423 17.1758 42.1583 17.1758C 41.3966 17.1758 40.7228 17.041 40.1368 16.7715C 39.5509 16.502 39.0909 16.127 38.757 15.6465C 38.4288 15.1602 38.2648 14.6357 38.2648 14.0732L 39.8907 14.0732C 39.92 14.6182 40.1368 15.0518 40.5411 15.374C 40.9513 15.6904 41.4904 15.8486 42.1583 15.8486C 42.7736 15.8486 43.2657 15.7256 43.6349 15.4795C 44.0099 15.2275 44.1974 14.8936 44.1974 14.4775ZM 51.8878 17.1758C 50.5988 17.1758 49.5499 16.7539 48.7413 15.9102C 47.9327 15.0605 47.5284 13.9268 47.5284 12.5088L 47.5284 12.21C 47.5284 11.2666 47.7071 10.4258 48.0646 9.6875C 48.4279 8.94336 48.9318 8.36328 49.5763 7.94727C 50.2267 7.52539 50.9298 7.31445 51.6857 7.31445C 52.922 7.31445 53.8829 7.72168 54.5685 8.53613C 55.254 9.35059 55.5968 10.5166 55.5968 12.0342L 55.5968 12.7109L 49.1544 12.7109C 49.1779 13.6484 49.4503 14.4072 49.9718 14.9873C 50.4991 15.5615 51.1671 15.8486 51.9757 15.8486C 52.5499 15.8486 53.0363 15.7314 53.4347 15.4971C 53.8331 15.2627 54.1818 14.9521 54.4806 14.5654L 55.4738 15.3389C 54.6769 16.5635 53.4816 17.1758 51.8878 17.1758ZM 51.6857 8.65039C 51.0294 8.65039 50.4786 8.89062 50.0333 9.37109C 49.588 9.8457 49.3126 10.5137 49.2071 11.375L 53.9708 11.375L 53.9708 11.252C 53.9239 10.4258 53.7013 9.78711 53.3029 9.33594C 52.9044 8.87891 52.3654 8.65039 51.6857 8.65039Z"/>
<path id="path10_fill" d="M 27.4366 5.5918L 23.3234 5.5918L 23.3234 17L 21.6446 17L 21.6446 5.5918L 17.5402 5.5918L 17.5402 4.20312L 27.4366 4.20312L 27.4366 5.5918ZM 33.0089 8.94922C 32.7628 8.9082 32.4962 8.8877 32.2091 8.8877C 31.1427 8.8877 30.4191 9.3418 30.0382 10.25L 30.0382 17L 28.4122 17L 28.4122 7.49023L 29.9943 7.49023L 30.0206 8.58887C 30.5538 7.73926 31.3097 7.31445 32.2882 7.31445C 32.6046 7.31445 32.8448 7.35547 33.0089 7.4375L 33.0089 8.94922ZM 40.3829 16.0596C 39.7501 16.8037 38.8214 17.1758 37.5968 17.1758C 36.5831 17.1758 35.8097 16.8828 35.2765 16.2969C 34.7491 15.7051 34.4825 14.832 34.4767 13.6777L 34.4767 7.49023L 36.1027 7.49023L 36.1027 13.6338C 36.1027 15.0752 36.6886 15.7959 37.8605 15.7959C 39.1027 15.7959 39.9288 15.333 40.339 14.4072L 40.339 7.49023L 41.965 7.49023L 41.965 17L 40.4181 17L 40.3829 16.0596ZM 48.3898 17.1758C 47.1007 17.1758 46.0519 16.7539 45.2433 15.9102C 44.4347 15.0605 44.0304 13.9268 44.0304 12.5088L 44.0304 12.21C 44.0304 11.2666 44.2091 10.4258 44.5665 9.6875C 44.9298 8.94336 45.4337 8.36328 46.0782 7.94727C 46.7286 7.52539 47.4318 7.31445 48.1876 7.31445C 49.4239 7.31445 50.3849 7.72168 51.0704 8.53613C 51.756 9.35059 52.0988 10.5166 52.0988 12.0342L 52.0988 12.7109L 45.6564 12.7109C 45.6798 13.6484 45.9523 14.4072 46.4738 14.9873C 47.0011 15.5615 47.6691 15.8486 48.4777 15.8486C 49.0519 15.8486 49.5382 15.7314 49.9366 15.4971C 50.3351 15.2627 50.6837 14.9521 50.9825 14.5654L 51.9757 15.3389C 51.1788 16.5635 49.9835 17.1758 48.3898 17.1758ZM 48.1876 8.65039C 47.5314 8.65039 46.9806 8.89062 46.5353 9.37109C 46.09 9.8457 45.8146 10.5137 45.7091 11.375L 50.4728 11.375L 50.4728 11.252C 50.4259 10.4258 50.2032 9.78711 49.8048 9.33594C 49.4064 8.87891 48.8673 8.65039 48.1876 8.65039Z"/>
<path id="path11_fill" d="M 6.25441 10.528C 6.25441 9.94933 6.36174 9.436 6.57641 8.988C 6.80041 8.53067 7.09441 8.148 7.45841 7.84C 7.83174 7.532 8.26107 7.29867 8.74641 7.14C 9.23174 6.972 9.74041 6.888 10.2724 6.888C 10.8231 6.888 11.3177 6.97667 11.7564 7.154C 12.2044 7.33133 12.5777 7.55533 12.8764 7.826L 11.9244 9.1C 11.4111 8.736 10.8977 8.554 10.3844 8.554C 9.78707 8.554 9.30174 8.73133 8.92841 9.086C 8.55507 9.44067 8.36841 9.92133 8.36841 10.528C 8.36841 11.1347 8.54574 11.6153 8.90041 11.97C 9.26441 12.3247 9.73574 12.502 10.3144 12.502C 10.6784 12.502 11.0144 12.4367 11.3224 12.306C 11.6304 12.1753 11.9057 12.0213 12.1484 11.844L 12.9884 13.146C 12.5684 13.5007 12.1017 13.762 11.5884 13.93C 11.0844 14.0887 10.5944 14.168 10.1184 14.168C 9.56774 14.168 9.05907 14.0887 8.59241 13.93C 8.12574 13.762 7.71507 13.524 7.36041 13.216C 7.01507 12.908 6.74441 12.53 6.54841 12.082C 6.35241 11.6247 6.25441 11.1067 6.25441 10.528ZM 21.2709 14.756L 21.2709 16.296L 14.5509 16.296L 14.5509 14.756L 21.2709 14.756ZM 23.1135 4.186L 25.1715 4.186L 25.1715 6.594L 25.1155 7.686C 25.3861 7.434 25.6895 7.238 26.0255 7.098C 26.3708 6.958 26.7115 6.888 27.0475 6.888C 27.4768 6.888 27.8641 6.972 28.2095 7.14C 28.5641 7.308 28.8581 7.546 29.0915 7.854C 29.3341 8.15267 29.5208 8.52133 29.6515 8.96C 29.7821 9.38933 29.8475 9.87 29.8475 10.402C 29.8475 10.9993 29.7635 11.5313 29.5955 11.998C 29.4275 12.4647 29.2035 12.8613 28.9235 13.188C 28.6435 13.5053 28.3215 13.748 27.9575 13.916C 27.6028 14.084 27.2295 14.168 26.8375 14.168C 26.5108 14.168 26.1841 14.0887 25.8575 13.93C 25.5401 13.7713 25.2368 13.5427 24.9475 13.244L 24.8915 13.244L 24.7235 14L 23.1135 14L 23.1135 4.186ZM 25.1715 12.026C 25.3675 12.194 25.5681 12.3153 25.7735 12.39C 25.9881 12.4553 26.1888 12.488 26.3755 12.488C 26.7581 12.488 27.0801 12.3293 27.3415 12.012C 27.6028 11.6853 27.7335 11.1627 27.7335 10.444C 27.7335 9.19333 27.3088 8.568 26.4595 8.568C 26.0208 8.568 25.5915 8.78267 25.1715 9.212L 25.1715 12.026ZM 31.158 10.528C 31.158 9.94933 31.256 9.436 31.452 8.988C 31.648 8.53067 31.9093 8.148 32.236 7.84C 32.572 7.532 32.95 7.29867 33.37 7.14C 33.7993 6.972 34.2427 6.888 34.7 6.888C 35.1573 6.888 35.596 6.972 36.016 7.14C 36.4453 7.29867 36.8233 7.532 37.15 7.84C 37.486 8.148 37.752 8.53067 37.948 8.988C 38.144 9.436 38.242 9.94933 38.242 10.528C 38.242 11.1067 38.144 11.6247 37.948 12.082C 37.752 12.53 37.486 12.908 37.15 13.216C 36.8233 13.524 36.4453 13.762 36.016 13.93C 35.596 14.0887 35.1573 14.168 34.7 14.168C 34.2427 14.168 33.7993 14.0887 33.37 13.93C 32.95 13.762 32.572 13.524 32.236 13.216C 31.9093 12.908 31.648 12.53 31.452 12.082C 31.256 11.6247 31.158 11.1067 31.158 10.528ZM 33.272 10.528C 33.272 11.1347 33.3887 11.6153 33.622 11.97C 33.8647 12.3247 34.224 12.502 34.7 12.502C 35.176 12.502 35.5307 12.3247 35.764 11.97C 36.0067 11.6153 36.128 11.1347 36.128 10.528C 36.128 9.92133 36.0067 9.44067 35.764 9.086C 35.5307 8.73133 35.176 8.554 34.7 8.554C 34.224 8.554 33.8647 8.73133 33.622 9.086C 33.3887 9.44067 33.272 9.92133 33.272 10.528ZM 39.5525 10.528C 39.5525 9.94933 39.6505 9.436 39.8465 8.988C 40.0425 8.53067 40.3039 8.148 40.6305 7.84C 40.9665 7.532 41.3445 7.29867 41.7645 7.14C 42.1939 6.972 42.6372 6.888 43.0945 6.888C 43.5519 6.888 43.9905 6.972 44.4105 7.14C 44.8399 7.29867 45.2179 7.532 45.5445 7.84C 45.8805 8.148 46.1465 8.53067 46.3425 8.988C 46.5385 9.436 46.6365 9.94933 46.6365 10.528C 46.6365 11.1067 46.5385 11.6247 46.3425 12.082C 46.1465 12.53 45.8805 12.908 45.5445 13.216C 45.2179 13.524 44.8399 13.762 44.4105 13.93C 43.9905 14.0887 43.5519 14.168 43.0945 14.168C 42.6372 14.168 42.1939 14.0887 41.7645 13.93C 41.3445 13.762 40.9665 13.524 40.6305 13.216C 40.3039 12.908 40.0425 12.53 39.8465 12.082C 39.6505 11.6247 39.5525 11.1067 39.5525 10.528ZM 41.6665 10.528C 41.6665 11.1347 41.7832 11.6153 42.0165 11.97C 42.2592 12.3247 42.6185 12.502 43.0945 12.502C 43.5705 12.502 43.9252 12.3247 44.1585 11.97C 44.4012 11.6153 44.5225 11.1347 44.5225 10.528C 44.5225 9.92133 44.4012 9.44067 44.1585 9.086C 43.9252 8.73133 43.5705 8.554 43.0945 8.554C 42.6185 8.554 42.2592 8.73133 42.0165 9.086C 41.7832 9.44067 41.6665 9.92133 41.6665 10.528ZM 48.1571 4.186L 52.2311 4.186L 52.2311 11.368C 52.2311 11.5827 52.2591 11.7647 52.3151 11.914C 52.3804 12.054 52.4644 12.1707 52.5671 12.264C 52.6791 12.348 52.8004 12.4087 52.9311 12.446C 53.0711 12.4833 53.2111 12.502 53.3511 12.502C 53.5097 12.502 53.6777 12.488 53.8551 12.46C 54.0324 12.4227 54.2284 12.362 54.4431 12.278L 54.9051 13.79C 54.7184 13.846 54.5457 13.8973 54.3871 13.944C 54.2284 13.9907 54.0697 14.028 53.9111 14.056C 53.7524 14.0933 53.5844 14.1213 53.4071 14.14C 53.2297 14.1587 53.0337 14.168 52.8191 14.168C 51.9417 14.168 51.2791 13.9113 50.8311 13.398C 50.3924 12.8753 50.1731 12.1707 50.1731 11.284L 50.1731 5.81L 48.1571 5.81L 48.1571 4.186Z"/>
<path id="path12_fill" d="M 0 0L 248 0L 248 42L 0 42L 0 0Z"/>
<path id="path13_fill" d="M 1.022 10.57C 1.022 10.0007 1.12467 9.492 1.33 9.044C 1.54467 8.596 1.82933 8.218 2.184 7.91C 2.53867 7.602 2.954 7.36867 3.43 7.21C 3.906 7.042 4.40533 6.958 4.928 6.958C 5.488 6.958 5.978 7.05133 6.398 7.238C 6.82733 7.42467 7.18667 7.65333 7.476 7.924L 6.706 8.932C 6.43533 8.71733 6.16 8.554 5.88 8.442C 5.60933 8.33 5.32 8.274 5.012 8.274C 4.32133 8.274 3.76133 8.484 3.332 8.904C 2.90267 9.31467 2.688 9.87 2.688 10.57C 2.688 10.9153 2.744 11.228 2.856 11.508C 2.968 11.788 3.122 12.0307 3.318 12.236C 3.52333 12.432 3.766 12.586 4.046 12.698C 4.326 12.8007 4.634 12.852 4.97 12.852C 5.362 12.852 5.71667 12.7773 6.034 12.628C 6.36067 12.4787 6.65933 12.3013 6.93 12.096L 7.602 13.132C 7.21 13.4773 6.77133 13.7387 6.286 13.916C 5.80067 14.084 5.31067 14.168 4.816 14.168C 4.27467 14.168 3.77067 14.0887 3.304 13.93C 2.84667 13.7713 2.44533 13.538 2.1 13.23C 1.764 12.922 1.498 12.544 1.302 12.096C 1.11533 11.648 1.022 11.1393 1.022 10.57ZM 15.9545 14.868L 15.9545 16.128L 9.23453 16.128L 9.23453 14.868L 15.9545 14.868ZM 17.9371 4.116L 19.5611 4.116L 19.5611 6.664L 19.5051 7.868C 19.8037 7.588 20.1397 7.36867 20.5131 7.21C 20.8864 7.042 21.2597 6.958 21.6331 6.958C 22.0811 6.958 22.4777 7.042 22.8231 7.21C 23.1684 7.36867 23.4624 7.602 23.7051 7.91C 23.9477 8.20867 24.1297 8.57267 24.2511 9.002C 24.3817 9.43133 24.4471 9.912 24.4471 10.444C 24.4471 11.032 24.3631 11.5593 24.1951 12.026C 24.0271 12.4833 23.7984 12.8707 23.5091 13.188C 23.2291 13.5053 22.9024 13.748 22.5291 13.916C 22.1651 14.084 21.7871 14.168 21.3951 14.168C 21.0684 14.168 20.7277 14.0887 20.3731 13.93C 20.0184 13.7713 19.6917 13.5427 19.3931 13.244L 19.3511 13.244L 19.2111 14L 17.9371 14L 17.9371 4.116ZM 19.5611 12.208C 19.8131 12.4413 20.0744 12.6047 20.3451 12.698C 20.6157 12.7913 20.8584 12.838 21.0731 12.838C 21.5584 12.838 21.9644 12.642 22.2911 12.25C 22.6177 11.8487 22.7811 11.256 22.7811 10.472C 22.7811 9.78133 22.6551 9.24467 22.4031 8.862C 22.1511 8.47933 21.7451 8.288 21.1851 8.288C 20.9237 8.288 20.6577 8.35333 20.3871 8.484C 20.1164 8.61467 19.8411 8.82467 19.5611 9.114L 19.5611 12.208ZM 25.9256 10.57C 25.9256 10.0007 26.0189 9.492 26.2056 9.044C 26.4016 8.596 26.6583 8.218 26.9756 7.91C 27.2929 7.602 27.6616 7.36867 28.0816 7.21C 28.5016 7.042 28.9356 6.958 29.3836 6.958C 29.8316 6.958 30.2656 7.042 30.6856 7.21C 31.1056 7.36867 31.4743 7.602 31.7916 7.91C 32.1089 8.218 32.3609 8.596 32.5476 9.044C 32.7436 9.492 32.8416 10.0007 32.8416 10.57C 32.8416 11.1393 32.7436 11.648 32.5476 12.096C 32.3609 12.544 32.1089 12.922 31.7916 13.23C 31.4743 13.538 31.1056 13.7713 30.6856 13.93C 30.2656 14.0887 29.8316 14.168 29.3836 14.168C 28.9356 14.168 28.5016 14.0887 28.0816 13.93C 27.6616 13.7713 27.2929 13.538 26.9756 13.23C 26.6583 12.922 26.4016 12.544 26.2056 12.096C 26.0189 11.648 25.9256 11.1393 25.9256 10.57ZM 27.5916 10.57C 27.5916 11.2607 27.7503 11.816 28.0676 12.236C 28.3849 12.6467 28.8236 12.852 29.3836 12.852C 29.9436 12.852 30.3823 12.6467 30.6996 12.236C 31.0169 11.816 31.1756 11.2607 31.1756 10.57C 31.1756 9.87 31.0169 9.31467 30.6996 8.904C 30.3823 8.484 29.9436 8.274 29.3836 8.274C 28.8236 8.274 28.3849 8.484 28.0676 8.904C 27.7503 9.31467 27.5916 9.87 27.5916 10.57ZM 34.3201 10.57C 34.3201 10.0007 34.4135 9.492 34.6001 9.044C 34.7961 8.596 35.0528 8.218 35.3701 7.91C 35.6875 7.602 36.0561 7.36867 36.4761 7.21C 36.8961 7.042 37.3301 6.958 37.7781 6.958C 38.2261 6.958 38.6601 7.042 39.0801 7.21C 39.5001 7.36867 39.8688 7.602 40.1861 7.91C 40.5035 8.218 40.7555 8.596 40.9421 9.044C 41.1381 9.492 41.2361 10.0007 41.2361 10.57C 41.2361 11.1393 41.1381 11.648 40.9421 12.096C 40.7555 12.544 40.5035 12.922 40.1861 13.23C 39.8688 13.538 39.5001 13.7713 39.0801 13.93C 38.6601 14.0887 38.2261 14.168 37.7781 14.168C 37.3301 14.168 36.8961 14.0887 36.4761 13.93C 36.0561 13.7713 35.6875 13.538 35.3701 13.23C 35.0528 12.922 34.7961 12.544 34.6001 12.096C 34.4135 11.648 34.3201 11.1393 34.3201 10.57ZM 35.9861 10.57C 35.9861 11.2607 36.1448 11.816 36.4621 12.236C 36.7795 12.6467 37.2181 12.852 37.7781 12.852C 38.3381 12.852 38.7768 12.6467 39.0941 12.236C 39.4115 11.816 39.5701 11.2607 39.5701 10.57C 39.5701 9.87 39.4115 9.31467 39.0941 8.904C 38.7768 8.484 38.3381 8.274 37.7781 8.274C 37.2181 8.274 36.7795 8.484 36.4621 8.904C 36.1448 9.31467 35.9861 9.87 35.9861 10.57ZM 42.9667 4.116L 46.7467 4.116L 46.7467 11.578C 46.7467 12.0447 46.8633 12.376 47.0967 12.572C 47.33 12.7587 47.624 12.852 47.9787 12.852C 48.3147 12.852 48.7067 12.7633 49.1547 12.586L 49.5327 13.776C 49.206 13.888 48.898 13.9813 48.6087 14.056C 48.3287 14.1307 47.988 14.168 47.5867 14.168C 46.7747 14.168 46.1633 13.9347 45.7527 13.468C 45.342 13.0013 45.1367 12.3433 45.1367 11.494L 45.1367 5.39L 42.9667 5.39L 42.9667 4.116ZM 59.8537 7.224L 66.0697 7.224L 66.0697 8.4L 59.8537 8.4L 59.8537 7.224ZM 59.8537 10.346L 66.0697 10.346L 66.0697 11.522L 59.8537 11.522L 59.8537 10.346ZM 76.5728 10.57C 76.5728 10.0007 76.6754 9.492 76.8808 9.044C 77.0954 8.596 77.3801 8.218 77.7348 7.91C 78.0894 7.602 78.5048 7.36867 78.9808 7.21C 79.4568 7.042 79.9561 6.958 80.4788 6.958C 81.0388 6.958 81.5288 7.05133 81.9488 7.238C 82.3781 7.42467 82.7374 7.65333 83.0268 7.924L 82.2568 8.932C 81.9861 8.71733 81.7108 8.554 81.4308 8.442C 81.1601 8.33 80.8708 8.274 80.5628 8.274C 79.8721 8.274 79.3121 8.484 78.8828 8.904C 78.4534 9.31467 78.2388 9.87 78.2388 10.57C 78.2388 10.9153 78.2948 11.228 78.4068 11.508C 78.5188 11.788 78.6728 12.0307 78.8688 12.236C 79.0741 12.432 79.3168 12.586 79.5968 12.698C 79.8768 12.8007 80.1848 12.852 80.5208 12.852C 80.9128 12.852 81.2674 12.7773 81.5848 12.628C 81.9114 12.4787 82.2101 12.3013 82.4808 12.096L 83.1528 13.132C 82.7608 13.4773 82.3221 13.7387 81.8368 13.916C 81.3514 14.084 80.8614 14.168 80.3668 14.168C 79.8254 14.168 79.3214 14.0887 78.8548 13.93C 78.3974 13.7713 77.9961 13.538 77.6508 13.23C 77.3148 12.922 77.0488 12.544 76.8528 12.096C 76.6661 11.648 76.5728 11.1393 76.5728 10.57Z"/>
<path id="path14_fill" d="M 99.0878 9.926L 93.7678 13.454L 93.7678 11.956L 97.7298 9.38L 97.7298 9.324L 93.7678 6.748L 93.7678 5.25L 99.0878 8.778L 99.0878 9.926Z"/>
<path id="path15_fill" d="M 116.591 12.684L 116.591 14L 110.389 14L 110.389 12.684L 112.797 12.684L 112.797 6.832L 110.935 6.832L 110.935 5.824C 111.439 5.74 111.868 5.642 112.223 5.53C 112.587 5.40867 112.923 5.264 113.231 5.096L 114.407 5.096L 114.407 12.684L 116.591 12.684ZM 121.723 14.168C 120.706 14.168 119.899 13.7667 119.301 12.964C 118.713 12.1613 118.419 11.0087 118.419 9.506C 118.419 7.994 118.713 6.85533 119.301 6.09C 119.899 5.31533 120.706 4.928 121.723 4.928C 122.741 4.928 123.543 5.31533 124.131 6.09C 124.729 6.85533 125.027 7.994 125.027 9.506C 125.027 11.0087 124.729 12.1613 124.131 12.964C 123.543 13.7667 122.741 14.168 121.723 14.168ZM 121.723 6.188C 121.453 6.188 121.205 6.24867 120.981 6.37C 120.757 6.482 120.561 6.66867 120.393 6.93C 120.235 7.19133 120.109 7.53667 120.015 7.966C 119.922 8.386 119.875 8.89933 119.875 9.506C 119.875 10.1127 119.922 10.6353 120.015 11.074C 120.109 11.5033 120.235 11.8533 120.393 12.124C 120.561 12.3947 120.757 12.5953 120.981 12.726C 121.205 12.8473 121.453 12.908 121.723 12.908C 121.985 12.908 122.227 12.8473 122.451 12.726C 122.685 12.5953 122.881 12.3947 123.039 12.124C 123.207 11.8533 123.338 11.5033 123.431 11.074C 123.525 10.6353 123.571 10.1127 123.571 9.506C 123.571 8.89933 123.525 8.386 123.431 7.966C 123.338 7.53667 123.207 7.19133 123.039 6.93C 122.881 6.66867 122.685 6.482 122.451 6.37C 122.227 6.24867 121.985 6.188 121.723 6.188ZM 121.723 10.444C 121.453 10.444 121.224 10.3553 121.037 10.178C 120.851 10.0007 120.757 9.758 120.757 9.45C 120.757 9.142 120.851 8.89933 121.037 8.722C 121.224 8.54467 121.453 8.456 121.723 8.456C 121.994 8.456 122.223 8.54467 122.409 8.722C 122.596 8.89933 122.689 9.142 122.689 9.45C 122.689 9.758 122.596 10.0007 122.409 10.178C 122.223 10.3553 121.994 10.444 121.723 10.444ZM 130.118 14.168C 129.101 14.168 128.293 13.7667 127.696 12.964C 127.108 12.1613 126.814 11.0087 126.814 9.506C 126.814 7.994 127.108 6.85533 127.696 6.09C 128.293 5.31533 129.101 4.928 130.118 4.928C 131.135 4.928 131.938 5.31533 132.526 6.09C 133.123 6.85533 133.422 7.994 133.422 9.506C 133.422 11.0087 133.123 12.1613 132.526 12.964C 131.938 13.7667 131.135 14.168 130.118 14.168ZM 130.118 6.188C 129.847 6.188 129.6 6.24867 129.376 6.37C 129.152 6.482 128.956 6.66867 128.788 6.93C 128.629 7.19133 128.503 7.53667 128.41 7.966C 128.317 8.386 128.27 8.89933 128.27 9.506C 128.27 10.1127 128.317 10.6353 128.41 11.074C 128.503 11.5033 128.629 11.8533 128.788 12.124C 128.956 12.3947 129.152 12.5953 129.376 12.726C 129.6 12.8473 129.847 12.908 130.118 12.908C 130.379 12.908 130.622 12.8473 130.846 12.726C 131.079 12.5953 131.275 12.3947 131.434 12.124C 131.602 11.8533 131.733 11.5033 131.826 11.074C 131.919 10.6353 131.966 10.1127 131.966 9.506C 131.966 8.89933 131.919 8.386 131.826 7.966C 131.733 7.53667 131.602 7.19133 131.434 6.93C 131.275 6.66867 131.079 6.482 130.846 6.37C 130.622 6.24867 130.379 6.188 130.118 6.188ZM 130.118 10.444C 129.847 10.444 129.619 10.3553 129.432 10.178C 129.245 10.0007 129.152 9.758 129.152 9.45C 129.152 9.142 129.245 8.89933 129.432 8.722C 129.619 8.54467 129.847 8.456 130.118 8.456C 130.389 8.456 130.617 8.54467 130.804 8.722C 130.991 8.89933 131.084 9.142 131.084 9.45C 131.084 9.758 130.991 10.0007 130.804 10.178C 130.617 10.3553 130.389 10.444 130.118 10.444Z"/>
</defs>
</svg>
