<svg width="324" height="192" viewBox="0 0 324 192" fill="none" xmlns="http://www.w3.org/2000/svg">
<rect width="324" height="192" fill="white"/>
<path d="M0 140L4.03314 139.38C26.6329 135.903 46.6647 122.921 59.0705 103.714L110.25 24.473C113.749 19.0567 118.504 14.5396 124.088 11.3155V11.3155C136.244 4.29666 151.21 4.04507 163.574 10.6915V10.6915C170.307 14.3111 175.879 19.7619 179.646 26.414L220.855 99.1903C233.236 121.054 255.169 135.832 280.082 139.094L287 140" transform="translate(13 10)" stroke="#0072B2" stroke-width="2"/>
<line y1="-0.5" x2="314" y2="-0.5" transform="translate(0 169)" stroke="black"/>
<line y1="-0.5" x2="11" y2="-0.5" transform="translate(158 175) rotate(-90)" stroke="black"/>
<line y1="-0.5" x2="11" y2="-0.5" transform="translate(193 175) rotate(-90)" stroke="black"/>
<line y1="-0.5" x2="11" y2="-0.5" transform="translate(233 175) rotate(-90)" stroke="black"/>
<line y1="-0.5" x2="11" y2="-0.5" transform="translate(273 175) rotate(-90)" stroke="black"/>
<line y1="-0.5" x2="11" y2="-0.5" transform="translate(310 175) rotate(-90)" stroke="black"/>
<line y1="-0.5" x2="146" y2="-0.5" transform="translate(157 18) rotate(90)" stroke="black" stroke-dasharray="1 1"/>
<path d="M5.08447 12H3.25V4.92871L1.06006 5.60791V4.11621L4.8877 2.74512H5.08447V12ZM14.1172 5.21436C14.1172 5.66292 14.005 6.06071 13.7808 6.40771C13.5565 6.75472 13.2476 7.0319 12.854 7.23926C13.3026 7.45508 13.658 7.75342 13.9204 8.13428C14.1828 8.5109 14.314 8.95524 14.314 9.46729C14.314 10.2882 14.0347 10.9378 13.4761 11.416C12.9175 11.89 12.1579 12.127 11.1973 12.127C10.2367 12.127 9.47493 11.8879 8.91211 11.4097C8.34928 10.9315 8.06787 10.284 8.06787 9.46729C8.06787 8.95524 8.19906 8.50879 8.46143 8.12793C8.7238 7.74707 9.07715 7.45085 9.52148 7.23926C9.12793 7.0319 8.81901 6.75472 8.59473 6.40771C8.37467 6.06071 8.26465 5.66292 8.26465 5.21436C8.26465 4.42725 8.52702 3.80094 9.05176 3.33545C9.5765 2.86572 10.2896 2.63086 11.1909 2.63086C12.0881 2.63086 12.799 2.86361 13.3237 3.3291C13.8527 3.79036 14.1172 4.41878 14.1172 5.21436ZM12.4731 9.33398C12.4731 8.93197 12.3568 8.61035 12.124 8.36914C11.8913 8.12793 11.5781 8.00732 11.1846 8.00732C10.7952 8.00732 10.4842 8.12793 10.2515 8.36914C10.0187 8.60612 9.90234 8.92773 9.90234 9.33398C9.90234 9.72754 10.0166 10.0449 10.2451 10.2861C10.4736 10.5273 10.791 10.6479 11.1973 10.6479C11.5951 10.6479 11.9061 10.5316 12.1304 10.2988C12.3589 10.0661 12.4731 9.74447 12.4731 9.33398ZM12.2827 5.30322C12.2827 4.94352 12.1875 4.65576 11.9971 4.43994C11.8066 4.21989 11.5379 4.10986 11.1909 4.10986C10.8481 4.10986 10.5815 4.21566 10.3911 4.42725C10.2007 4.63883 10.1055 4.93083 10.1055 5.30322C10.1055 5.67139 10.2007 5.96761 10.3911 6.19189C10.5815 6.41618 10.8503 6.52832 11.1973 6.52832C11.5443 6.52832 11.8109 6.41618 11.9971 6.19189C12.1875 5.96761 12.2827 5.67139 12.2827 5.30322ZM21.7788 8.17871C21.7788 9.45671 21.5143 10.4342 20.9854 11.1113C20.4564 11.7884 19.682 12.127 18.6621 12.127C17.6549 12.127 16.8848 11.7948 16.3516 11.1304C15.8184 10.466 15.5454 9.51383 15.5327 8.27393V6.57275C15.5327 5.28206 15.7993 4.30241 16.3325 3.63379C16.87 2.96517 17.6423 2.63086 18.6494 2.63086C19.6566 2.63086 20.4268 2.96305 20.96 3.62744C21.4932 4.2876 21.7661 5.23763 21.7788 6.47754V8.17871ZM19.9443 6.3125C19.9443 5.54655 19.8385 4.99007 19.627 4.64307C19.4196 4.29183 19.0938 4.11621 18.6494 4.11621C18.2178 4.11621 17.8983 4.28337 17.6909 4.61768C17.4878 4.94775 17.3799 5.46615 17.3672 6.17285V8.41992C17.3672 9.17318 17.4688 9.73389 17.6719 10.1021C17.8792 10.466 18.2093 10.6479 18.6621 10.6479C19.1107 10.6479 19.4344 10.4723 19.6333 10.1211C19.8322 9.76986 19.9359 9.23242 19.9443 8.50879V6.3125ZM25.5938 9.24512L24.9336 9.90527V12H23.0991V2.25H24.9336V7.65186L25.2891 7.19482L27.0474 5.13184H29.25L26.7681 7.99463L29.4658 12H27.3584L25.5938 9.24512Z" transform="translate(142 179)" fill="black"/>
<path d="M4.62744 12H3.44678V4.17334L1.0791 5.04297V3.97656L4.44336 2.71338H4.62744V12ZM12.5684 7.9375C12.3229 8.22949 12.0288 8.46436 11.686 8.64209C11.3475 8.81982 10.9751 8.90869 10.5688 8.90869C10.0356 8.90869 9.57015 8.77751 9.17236 8.51514C8.77881 8.25277 8.47412 7.8846 8.2583 7.41064C8.04248 6.93245 7.93457 6.4056 7.93457 5.83008C7.93457 5.21224 8.05094 4.65576 8.28369 4.16064C8.52067 3.66553 8.85498 3.28678 9.28662 3.02441C9.71826 2.76204 10.2218 2.63086 10.7974 2.63086C11.7114 2.63086 12.4308 2.97363 12.9556 3.65918C13.4845 4.34049 13.749 5.27148 13.749 6.45215V6.79492C13.749 8.59342 13.3936 9.90739 12.6826 10.7368C11.9717 11.562 10.8989 11.9852 9.46436 12.0063H9.23584V11.0161H9.4834C10.4525 10.9992 11.1973 10.7474 11.7178 10.2607C12.2383 9.76986 12.5218 8.99544 12.5684 7.9375ZM10.7593 7.9375C11.1528 7.9375 11.5146 7.81689 11.8447 7.57568C12.179 7.33447 12.4224 7.03613 12.5747 6.68066V6.21094C12.5747 5.44076 12.4076 4.81445 12.0732 4.33203C11.7389 3.84961 11.3158 3.6084 10.8037 3.6084C10.2874 3.6084 9.87272 3.80729 9.55957 4.20508C9.24642 4.59863 9.08984 5.11914 9.08984 5.7666C9.08984 6.39714 9.24007 6.91764 9.54053 7.32812C9.84521 7.73438 10.2515 7.9375 10.7593 7.9375ZM21.1631 8.05811C21.1631 9.43343 20.9282 10.4554 20.4585 11.124C19.9888 11.7926 19.2546 12.127 18.2559 12.127C17.2699 12.127 16.5399 11.8011 16.0659 11.1494C15.592 10.4935 15.3465 9.51595 15.3296 8.2168V6.64893C15.3296 5.29053 15.5645 4.28125 16.0342 3.62109C16.5039 2.96094 17.2402 2.63086 18.2432 2.63086C19.2376 2.63086 19.9697 2.95036 20.4395 3.58936C20.9092 4.22412 21.1504 5.20589 21.1631 6.53467V8.05811ZM19.9888 6.45215C19.9888 5.45768 19.8491 4.73405 19.5698 4.28125C19.2905 3.82422 18.8483 3.5957 18.2432 3.5957C17.6423 3.5957 17.2043 3.8221 16.9292 4.2749C16.6541 4.7277 16.5124 5.42383 16.5039 6.36328V8.24219C16.5039 9.24089 16.6478 9.97933 16.9355 10.4575C17.2275 10.9315 17.6676 11.1685 18.2559 11.1685C18.8356 11.1685 19.2651 10.9442 19.5444 10.4956C19.828 10.047 19.9761 9.34033 19.9888 8.37549V6.45215ZM24.7051 8.81982L23.9688 9.58789V12H22.7944V2.25H23.9688V8.14697L24.5972 7.3916L26.7363 5.13184H28.1646L25.4922 8.00098L28.4756 12H27.0981L24.7051 8.81982Z" transform="translate(180 179)" fill="black"/>
<path d="M6.82373 12H0.768066V11.1558L3.96729 7.60107C4.44124 7.06364 4.76709 6.62777 4.94482 6.29346C5.12679 5.95492 5.21777 5.60579 5.21777 5.24609C5.21777 4.76367 5.07178 4.368 4.77979 4.05908C4.48779 3.75016 4.09847 3.5957 3.61182 3.5957C3.02783 3.5957 2.57292 3.76286 2.24707 4.09717C1.92546 4.42725 1.76465 4.88851 1.76465 5.48096H0.590332C0.590332 4.63037 0.863281 3.94271 1.40918 3.41797C1.95931 2.89323 2.69352 2.63086 3.61182 2.63086C4.47087 2.63086 5.15007 2.85726 5.64941 3.31006C6.14876 3.75863 6.39844 4.35742 6.39844 5.10645C6.39844 6.01628 5.81868 7.09961 4.65918 8.35645L2.18359 11.0415H6.82373V12ZM13.8633 8.05811C13.8633 9.43343 13.6284 10.4554 13.1587 11.124C12.689 11.7926 11.9548 12.127 10.9561 12.127C9.97005 12.127 9.24007 11.8011 8.76611 11.1494C8.29215 10.4935 8.04671 9.51595 8.02979 8.2168V6.64893C8.02979 5.29053 8.26465 4.28125 8.73438 3.62109C9.2041 2.96094 9.94043 2.63086 10.9434 2.63086C11.9378 2.63086 12.6699 2.95036 13.1396 3.58936C13.6094 4.22412 13.8506 5.20589 13.8633 6.53467V8.05811ZM12.689 6.45215C12.689 5.45768 12.5493 4.73405 12.27 4.28125C11.9907 3.82422 11.5485 3.5957 10.9434 3.5957C10.3424 3.5957 9.90446 3.8221 9.62939 4.2749C9.35433 4.7277 9.21257 5.42383 9.2041 6.36328V8.24219C9.2041 9.24089 9.34798 9.97933 9.63574 10.4575C9.92773 10.9315 10.3678 11.1685 10.9561 11.1685C11.5358 11.1685 11.9653 10.9442 12.2446 10.4956C12.5282 10.047 12.6763 9.34033 12.689 8.37549V6.45215ZM21.1631 8.05811C21.1631 9.43343 20.9282 10.4554 20.4585 11.124C19.9888 11.7926 19.2546 12.127 18.2559 12.127C17.2699 12.127 16.5399 11.8011 16.0659 11.1494C15.592 10.4935 15.3465 9.51595 15.3296 8.2168V6.64893C15.3296 5.29053 15.5645 4.28125 16.0342 3.62109C16.5039 2.96094 17.2402 2.63086 18.2432 2.63086C19.2376 2.63086 19.9697 2.95036 20.4395 3.58936C20.9092 4.22412 21.1504 5.20589 21.1631 6.53467V8.05811ZM19.9888 6.45215C19.9888 5.45768 19.8491 4.73405 19.5698 4.28125C19.2905 3.82422 18.8483 3.5957 18.2432 3.5957C17.6423 3.5957 17.2043 3.8221 16.9292 4.2749C16.6541 4.7277 16.5124 5.42383 16.5039 6.36328V8.24219C16.5039 9.24089 16.6478 9.97933 16.9355 10.4575C17.2275 10.9315 17.6676 11.1685 18.2559 11.1685C18.8356 11.1685 19.2651 10.9442 19.5444 10.4956C19.828 10.047 19.9761 9.34033 19.9888 8.37549V6.45215ZM24.7051 8.81982L23.9688 9.58789V12H22.7944V2.25H23.9688V8.14697L24.5972 7.3916L26.7363 5.13184H28.1646L25.4922 8.00098L28.4756 12H27.0981L24.7051 8.81982Z" transform="translate(217 179)" fill="black"/>
<path d="M6.82373 12H0.768066V11.1558L3.96729 7.60107C4.44124 7.06364 4.76709 6.62777 4.94482 6.29346C5.12679 5.95492 5.21777 5.60579 5.21777 5.24609C5.21777 4.76367 5.07178 4.368 4.77979 4.05908C4.48779 3.75016 4.09847 3.5957 3.61182 3.5957C3.02783 3.5957 2.57292 3.76286 2.24707 4.09717C1.92546 4.42725 1.76465 4.88851 1.76465 5.48096H0.590332C0.590332 4.63037 0.863281 3.94271 1.40918 3.41797C1.95931 2.89323 2.69352 2.63086 3.61182 2.63086C4.47087 2.63086 5.15007 2.85726 5.64941 3.31006C6.14876 3.75863 6.39844 4.35742 6.39844 5.10645C6.39844 6.01628 5.81868 7.09961 4.65918 8.35645L2.18359 11.0415H6.82373V12ZM11.9272 12H10.7466V4.17334L8.37891 5.04297V3.97656L11.7432 2.71338H11.9272V12ZM21.1631 8.05811C21.1631 9.43343 20.9282 10.4554 20.4585 11.124C19.9888 11.7926 19.2546 12.127 18.2559 12.127C17.2699 12.127 16.5399 11.8011 16.0659 11.1494C15.592 10.4935 15.3465 9.51595 15.3296 8.2168V6.64893C15.3296 5.29053 15.5645 4.28125 16.0342 3.62109C16.5039 2.96094 17.2402 2.63086 18.2432 2.63086C19.2376 2.63086 19.9697 2.95036 20.4395 3.58936C20.9092 4.22412 21.1504 5.20589 21.1631 6.53467V8.05811ZM19.9888 6.45215C19.9888 5.45768 19.8491 4.73405 19.5698 4.28125C19.2905 3.82422 18.8483 3.5957 18.2432 3.5957C17.6423 3.5957 17.2043 3.8221 16.9292 4.2749C16.6541 4.7277 16.5124 5.42383 16.5039 6.36328V8.24219C16.5039 9.24089 16.6478 9.97933 16.9355 10.4575C17.2275 10.9315 17.6676 11.1685 18.2559 11.1685C18.8356 11.1685 19.2651 10.9442 19.5444 10.4956C19.828 10.047 19.9761 9.34033 19.9888 8.37549V6.45215ZM24.7051 8.81982L23.9688 9.58789V12H22.7944V2.25H23.9688V8.14697L24.5972 7.3916L26.7363 5.13184H28.1646L25.4922 8.00098L28.4756 12H27.0981L24.7051 8.81982Z" transform="translate(257 179)" fill="black"/>
<path d="M6.96338 12H0.628418V10.7432L3.61816 7.55664C4.02865 7.10807 4.33122 6.71663 4.52588 6.38232C4.72477 6.04801 4.82422 5.73063 4.82422 5.43018C4.82422 5.01969 4.72054 4.69808 4.51318 4.46533C4.30583 4.22835 4.0096 4.10986 3.62451 4.10986C3.2098 4.10986 2.88184 4.25374 2.64062 4.5415C2.40365 4.82503 2.28516 5.19954 2.28516 5.66504H0.444336C0.444336 5.10221 0.577637 4.58805 0.844238 4.12256C1.11507 3.65706 1.49593 3.29313 1.98682 3.03076C2.4777 2.76416 3.03418 2.63086 3.65625 2.63086C4.6084 2.63086 5.34684 2.85938 5.87158 3.31641C6.40055 3.77344 6.66504 4.41878 6.66504 5.25244C6.66504 5.70947 6.54655 6.17497 6.30957 6.64893C6.07259 7.12288 5.66634 7.67513 5.09082 8.30566L2.98975 10.521H6.96338V12ZM14.4282 12H8.09326V10.7432L11.083 7.55664C11.4935 7.10807 11.7961 6.71663 11.9907 6.38232C12.1896 6.04801 12.2891 5.73063 12.2891 5.43018C12.2891 5.01969 12.1854 4.69808 11.978 4.46533C11.7707 4.22835 11.4744 4.10986 11.0894 4.10986C10.6746 4.10986 10.3467 4.25374 10.1055 4.5415C9.86849 4.82503 9.75 5.19954 9.75 5.66504H7.90918C7.90918 5.10221 8.04248 4.58805 8.30908 4.12256C8.57992 3.65706 8.96077 3.29313 9.45166 3.03076C9.94255 2.76416 10.499 2.63086 11.1211 2.63086C12.0732 2.63086 12.8117 2.85938 13.3364 3.31641C13.8654 3.77344 14.1299 4.41878 14.1299 5.25244C14.1299 5.70947 14.0114 6.17497 13.7744 6.64893C13.5374 7.12288 13.1312 7.67513 12.5557 8.30566L10.4546 10.521H14.4282V12ZM21.7788 8.17871C21.7788 9.45671 21.5143 10.4342 20.9854 11.1113C20.4564 11.7884 19.682 12.127 18.6621 12.127C17.6549 12.127 16.8848 11.7948 16.3516 11.1304C15.8184 10.466 15.5454 9.51383 15.5327 8.27393V6.57275C15.5327 5.28206 15.7993 4.30241 16.3325 3.63379C16.87 2.96517 17.6423 2.63086 18.6494 2.63086C19.6566 2.63086 20.4268 2.96305 20.96 3.62744C21.4932 4.2876 21.7661 5.23763 21.7788 6.47754V8.17871ZM19.9443 6.3125C19.9443 5.54655 19.8385 4.99007 19.627 4.64307C19.4196 4.29183 19.0938 4.11621 18.6494 4.11621C18.2178 4.11621 17.8983 4.28337 17.6909 4.61768C17.4878 4.94775 17.3799 5.46615 17.3672 6.17285V8.41992C17.3672 9.17318 17.4688 9.73389 17.6719 10.1021C17.8792 10.466 18.2093 10.6479 18.6621 10.6479C19.1107 10.6479 19.4344 10.4723 19.6333 10.1211C19.8322 9.76986 19.9359 9.23242 19.9443 8.50879V6.3125ZM25.5938 9.24512L24.9336 9.90527V12H23.0991V2.25H24.9336V7.65186L25.2891 7.19482L27.0474 5.13184H29.25L26.7681 7.99463L29.4658 12H27.3584L25.5938 9.24512Z" transform="translate(294 179)" fill="#D55E00"/>
<path d="M4.76465 10.9561C4.76465 10.7145 4.64388 10.5254 4.40234 10.3887C4.16536 10.2474 3.78255 10.1221 3.25391 10.0127C1.49479 9.64355 0.615234 8.89616 0.615234 7.77051C0.615234 7.11426 0.886393 6.56738 1.42871 6.12988C1.97559 5.68783 2.6888 5.4668 3.56836 5.4668C4.50716 5.4668 5.25684 5.68783 5.81738 6.12988C6.38249 6.57194 6.66504 7.14616 6.66504 7.85254H4.68945C4.68945 7.56999 4.59831 7.33757 4.41602 7.15527C4.23372 6.96842 3.94889 6.875 3.56152 6.875C3.22884 6.875 2.97135 6.9502 2.78906 7.10059C2.60677 7.25098 2.51562 7.44238 2.51562 7.6748C2.51562 7.89355 2.61816 8.07129 2.82324 8.20801C3.03288 8.34017 3.38379 8.45638 3.87598 8.55664C4.36816 8.65234 4.78288 8.76172 5.12012 8.88477C6.16374 9.26758 6.68555 9.93066 6.68555 10.874C6.68555 11.5485 6.39616 12.0954 5.81738 12.5146C5.23861 12.9294 4.49121 13.1367 3.5752 13.1367C2.9554 13.1367 2.40397 13.0273 1.9209 12.8086C1.44238 12.5853 1.06641 12.2822 0.792969 11.8994C0.519531 11.512 0.382812 11.0951 0.382812 10.6484H2.25586C2.27409 10.9993 2.40397 11.2682 2.64551 11.4551C2.88704 11.6419 3.21061 11.7354 3.61621 11.7354C3.99447 11.7354 4.2793 11.6647 4.4707 11.5234C4.66667 11.3776 4.76465 11.1885 4.76465 10.9561ZM17.7324 7.90039H11.6211V6.28711H17.7324V7.90039ZM17.7324 10.8604H11.6211V9.24707H17.7324V10.8604ZM27.665 13H25.6895V5.38477L23.3311 6.11621V4.50977L27.4531 3.0332H27.665V13ZM37.6045 8.88477C37.6045 10.2611 37.3197 11.3138 36.75 12.043C36.1803 12.7721 35.3464 13.1367 34.248 13.1367C33.1634 13.1367 32.334 12.779 31.7598 12.0635C31.1855 11.348 30.8916 10.3226 30.8779 8.9873V7.15527C30.8779 5.7653 31.165 4.71029 31.7393 3.99023C32.318 3.27018 33.1497 2.91016 34.2344 2.91016C35.319 2.91016 36.1484 3.2679 36.7227 3.9834C37.2969 4.69434 37.5908 5.71745 37.6045 7.05273V8.88477ZM35.6289 6.875C35.6289 6.05013 35.515 5.45085 35.2871 5.07715C35.0638 4.69889 34.7129 4.50977 34.2344 4.50977C33.7695 4.50977 33.4255 4.68978 33.2021 5.0498C32.9834 5.40527 32.8672 5.96354 32.8535 6.72461V9.14453C32.8535 9.95573 32.9629 10.5596 33.1816 10.9561C33.4049 11.348 33.7604 11.5439 34.248 11.5439C34.7311 11.5439 35.0798 11.3548 35.2939 10.9766C35.5081 10.5983 35.6198 10.0195 35.6289 9.24023V6.875ZM45.6436 8.88477C45.6436 10.2611 45.3587 11.3138 44.7891 12.043C44.2194 12.7721 43.3854 13.1367 42.2871 13.1367C41.2025 13.1367 40.373 12.779 39.7988 12.0635C39.2246 11.348 38.9307 10.3226 38.917 8.9873V7.15527C38.917 5.7653 39.2041 4.71029 39.7783 3.99023C40.3571 3.27018 41.1888 2.91016 42.2734 2.91016C43.3581 2.91016 44.1875 3.2679 44.7617 3.9834C45.3359 4.69434 45.6299 5.71745 45.6436 7.05273V8.88477ZM43.668 6.875C43.668 6.05013 43.554 5.45085 43.3262 5.07715C43.1029 4.69889 42.752 4.50977 42.2734 4.50977C41.8086 4.50977 41.4645 4.68978 41.2412 5.0498C41.0225 5.40527 40.9062 5.96354 40.8926 6.72461V9.14453C40.8926 9.95573 41.002 10.5596 41.2207 10.9561C41.444 11.348 41.7995 11.5439 42.2871 11.5439C42.7702 11.5439 43.1188 11.3548 43.333 10.9766C43.5472 10.5983 43.6589 10.0195 43.668 9.24023V6.875ZM53.6826 8.88477C53.6826 10.2611 53.3978 11.3138 52.8281 12.043C52.2585 12.7721 51.4245 13.1367 50.3262 13.1367C49.2415 13.1367 48.4121 12.779 47.8379 12.0635C47.2637 11.348 46.9697 10.3226 46.9561 8.9873V7.15527C46.9561 5.7653 47.2432 4.71029 47.8174 3.99023C48.3962 3.27018 49.2279 2.91016 50.3125 2.91016C51.3971 2.91016 52.2266 3.2679 52.8008 3.9834C53.375 4.69434 53.6689 5.71745 53.6826 7.05273V8.88477ZM51.707 6.875C51.707 6.05013 51.5931 5.45085 51.3652 5.07715C51.1419 4.69889 50.791 4.50977 50.3125 4.50977C49.8477 4.50977 49.5036 4.68978 49.2803 5.0498C49.0615 5.40527 48.9453 5.96354 48.9316 6.72461V9.14453C48.9316 9.95573 49.041 10.5596 49.2598 10.9561C49.4831 11.348 49.8385 11.5439 50.3262 11.5439C50.8092 11.5439 51.1579 11.3548 51.3721 10.9766C51.5863 10.5983 51.6979 10.0195 51.707 9.24023V6.875ZM61.7217 8.88477C61.7217 10.2611 61.4368 11.3138 60.8672 12.043C60.2975 12.7721 59.4635 13.1367 58.3652 13.1367C57.2806 13.1367 56.4512 12.779 55.877 12.0635C55.3027 11.348 55.0088 10.3226 54.9951 8.9873V7.15527C54.9951 5.7653 55.2822 4.71029 55.8564 3.99023C56.4352 3.27018 57.2669 2.91016 58.3516 2.91016C59.4362 2.91016 60.2656 3.2679 60.8398 3.9834C61.4141 4.69434 61.708 5.71745 61.7217 7.05273V8.88477ZM59.7461 6.875C59.7461 6.05013 59.6322 5.45085 59.4043 5.07715C59.181 4.69889 58.8301 4.50977 58.3516 4.50977C57.8867 4.50977 57.5426 4.68978 57.3193 5.0498C57.1006 5.40527 56.9844 5.96354 56.9707 6.72461V9.14453C56.9707 9.95573 57.0801 10.5596 57.2988 10.9561C57.5221 11.348 57.8776 11.5439 58.3652 11.5439C58.8483 11.5439 59.1969 11.3548 59.4111 10.9766C59.6253 10.5983 59.737 10.0195 59.7461 9.24023V6.875Z" transform="translate(87 101)" fill="#D55E00"/>
<path d="M33.3536 0.353553C33.5488 0.158291 33.5488 -0.158291 33.3536 -0.353553L30.1716 -3.53553C29.9763 -3.7308 29.6597 -3.7308 29.4645 -3.53553C29.2692 -3.34027 29.2692 -3.02369 29.4645 -2.82843L32.2929 0L29.4645 2.82843C29.2692 3.02369 29.2692 3.34027 29.4645 3.53553C29.6597 3.7308 29.9763 3.7308 30.1716 3.53553L33.3536 0.353553ZM0 0.5H33V-0.5H0V0.5Z" transform="translate(158 41)" fill="#D55E00"/>
<path d="M5.47559 13H3.5V5.38477L1.1416 6.11621V4.50977L5.26367 3.0332H5.47559V13ZM12.8037 10.9561C12.8037 10.7145 12.6829 10.5254 12.4414 10.3887C12.2044 10.2474 11.8216 10.1221 11.293 10.0127C9.53385 9.64355 8.6543 8.89616 8.6543 7.77051C8.6543 7.11426 8.92546 6.56738 9.46777 6.12988C10.0146 5.68783 10.7279 5.4668 11.6074 5.4668C12.5462 5.4668 13.2959 5.68783 13.8564 6.12988C14.4215 6.57194 14.7041 7.14616 14.7041 7.85254H12.7285C12.7285 7.56999 12.6374 7.33757 12.4551 7.15527C12.2728 6.96842 11.988 6.875 11.6006 6.875C11.2679 6.875 11.0104 6.9502 10.8281 7.10059C10.6458 7.25098 10.5547 7.44238 10.5547 7.6748C10.5547 7.89355 10.6572 8.07129 10.8623 8.20801C11.0719 8.34017 11.4229 8.45638 11.915 8.55664C12.4072 8.65234 12.8219 8.76172 13.1592 8.88477C14.2028 9.26758 14.7246 9.93066 14.7246 10.874C14.7246 11.5485 14.4352 12.0954 13.8564 12.5146C13.2777 12.9294 12.5303 13.1367 11.6143 13.1367C10.9945 13.1367 10.443 13.0273 9.95996 12.8086C9.48145 12.5853 9.10547 12.2822 8.83203 11.8994C8.55859 11.512 8.42188 11.0951 8.42188 10.6484H10.2949C10.3132 10.9993 10.443 11.2682 10.6846 11.4551C10.9261 11.6419 11.2497 11.7354 11.6553 11.7354C12.0335 11.7354 12.3184 11.6647 12.5098 11.5234C12.7057 11.3776 12.8037 11.1885 12.8037 10.9561Z" transform="translate(164 24)" fill="#D55E00"/>
<path d="M75.3536 0.353553C75.5488 0.158291 75.5488 -0.158291 75.3536 -0.353553L72.1716 -3.53553C71.9763 -3.7308 71.6597 -3.7308 71.4645 -3.53553C71.2692 -3.34027 71.2692 -3.02369 71.4645 -2.82843L74.2929 0L71.4645 2.82843C71.2692 3.02369 71.2692 3.34027 71.4645 3.53553C71.6597 3.7308 71.9763 3.7308 72.1716 3.53553L75.3536 0.353553ZM0 0.5H75V-0.5H0V0.5Z" transform="translate(158 114)" fill="#D55E00"/>
<path d="M7.49902 13H0.676758V11.6465L3.89648 8.21484C4.33854 7.73177 4.66439 7.31022 4.87402 6.9502C5.08822 6.59017 5.19531 6.24837 5.19531 5.9248C5.19531 5.48275 5.08366 5.13639 4.86035 4.88574C4.63704 4.63053 4.31803 4.50293 3.90332 4.50293C3.45671 4.50293 3.10352 4.65788 2.84375 4.96777C2.58854 5.27311 2.46094 5.67643 2.46094 6.17773H0.478516C0.478516 5.57161 0.62207 5.0179 0.90918 4.5166C1.20085 4.0153 1.611 3.62337 2.13965 3.34082C2.66829 3.05371 3.26758 2.91016 3.9375 2.91016C4.96289 2.91016 5.75814 3.15625 6.32324 3.64844C6.8929 4.14062 7.17773 4.83561 7.17773 5.7334C7.17773 6.22559 7.05013 6.72689 6.79492 7.2373C6.53971 7.74772 6.10221 8.34245 5.48242 9.02148L3.21973 11.4072H7.49902V13ZM12.8037 10.9561C12.8037 10.7145 12.6829 10.5254 12.4414 10.3887C12.2044 10.2474 11.8216 10.1221 11.293 10.0127C9.53385 9.64355 8.6543 8.89616 8.6543 7.77051C8.6543 7.11426 8.92546 6.56738 9.46777 6.12988C10.0146 5.68783 10.7279 5.4668 11.6074 5.4668C12.5462 5.4668 13.2959 5.68783 13.8564 6.12988C14.4215 6.57194 14.7041 7.14616 14.7041 7.85254H12.7285C12.7285 7.56999 12.6374 7.33757 12.4551 7.15527C12.2728 6.96842 11.988 6.875 11.6006 6.875C11.2679 6.875 11.0104 6.9502 10.8281 7.10059C10.6458 7.25098 10.5547 7.44238 10.5547 7.6748C10.5547 7.89355 10.6572 8.07129 10.8623 8.20801C11.0719 8.34017 11.4229 8.45638 11.915 8.55664C12.4072 8.65234 12.8219 8.76172 13.1592 8.88477C14.2028 9.26758 14.7246 9.93066 14.7246 10.874C14.7246 11.5485 14.4352 12.0954 13.8564 12.5146C13.2777 12.9294 12.5303 13.1367 11.6143 13.1367C10.9945 13.1367 10.443 13.0273 9.95996 12.8086C9.48145 12.5853 9.10547 12.2822 8.83203 11.8994C8.55859 11.512 8.42188 11.0951 8.42188 10.6484H10.2949C10.3132 10.9993 10.443 11.2682 10.6846 11.4551C10.9261 11.6419 11.2497 11.7354 11.6553 11.7354C12.0335 11.7354 12.3184 11.6647 12.5098 11.5234C12.7057 11.3776 12.8037 11.1885 12.8037 10.9561Z" transform="translate(186 99)" fill="#D55E00"/>
<path d="M115.354 0.353553C115.549 0.158291 115.549 -0.158291 115.354 -0.353553L112.172 -3.53553C111.976 -3.7308 111.66 -3.7308 111.464 -3.53553C111.269 -3.34027 111.269 -3.02369 111.464 -2.82843L114.293 0L111.464 2.82843C111.269 3.02369 111.269 3.34027 111.464 3.53553C111.66 3.7308 111.976 3.7308 112.172 3.53553L115.354 0.353553ZM0 0.5H115V-0.5H0V0.5Z" transform="translate(158 147)" fill="#D55E00"/>
<path d="M152.357 0.353553C152.552 0.158291 152.552 -0.158291 152.357 -0.353553L149.175 -3.53553C148.98 -3.7308 148.663 -3.7308 148.468 -3.53553C148.272 -3.34027 148.272 -3.02369 148.468 -2.82843L151.296 0L148.468 2.82843C148.272 3.02369 148.272 3.34027 148.468 3.53553C148.663 3.7308 148.98 3.7308 149.175 3.53553L152.357 0.353553ZM0 0.5H152.003V-0.5H0V0.5Z" transform="translate(157.998 160.5)" fill="#D55E00"/>
<path d="M2.68652 7.14844H3.73926C4.24056 7.14844 4.61198 7.02311 4.85352 6.77246C5.09505 6.52181 5.21582 6.18913 5.21582 5.77441C5.21582 5.37337 5.09505 5.0612 4.85352 4.83789C4.61654 4.61458 4.28841 4.50293 3.86914 4.50293C3.49089 4.50293 3.17415 4.60775 2.91895 4.81738C2.66374 5.02246 2.53613 5.29134 2.53613 5.62402H0.560547C0.560547 5.10449 0.699544 4.63965 0.977539 4.22949C1.26009 3.81478 1.65202 3.49121 2.15332 3.25879C2.65918 3.02637 3.21517 2.91016 3.82129 2.91016C4.87402 2.91016 5.69889 3.16309 6.2959 3.66895C6.8929 4.17025 7.19141 4.86296 7.19141 5.74707C7.19141 6.2028 7.05241 6.62207 6.77441 7.00488C6.49642 7.3877 6.13184 7.68164 5.68066 7.88672C6.24121 8.08724 6.6582 8.38802 6.93164 8.78906C7.20964 9.1901 7.34863 9.66406 7.34863 10.2109C7.34863 11.0951 7.02507 11.8037 6.37793 12.3369C5.73535 12.8701 4.88314 13.1367 3.82129 13.1367C2.8278 13.1367 2.01432 12.8747 1.38086 12.3506C0.751953 11.8265 0.4375 11.1338 0.4375 10.2725H2.41309C2.41309 10.6462 2.55208 10.9515 2.83008 11.1885C3.11263 11.4255 3.45898 11.5439 3.86914 11.5439C4.33854 11.5439 4.7054 11.4209 4.96973 11.1748C5.23861 10.9242 5.37305 10.5938 5.37305 10.1836C5.37305 9.1901 4.82617 8.69336 3.73242 8.69336H2.68652V7.14844ZM12.8037 10.9561C12.8037 10.7145 12.6829 10.5254 12.4414 10.3887C12.2044 10.2474 11.8216 10.1221 11.293 10.0127C9.53385 9.64355 8.6543 8.89616 8.6543 7.77051C8.6543 7.11426 8.92546 6.56738 9.46777 6.12988C10.0146 5.68783 10.7279 5.4668 11.6074 5.4668C12.5462 5.4668 13.2959 5.68783 13.8564 6.12988C14.4215 6.57194 14.7041 7.14616 14.7041 7.85254H12.7285C12.7285 7.56999 12.6374 7.33757 12.4551 7.15527C12.2728 6.96842 11.988 6.875 11.6006 6.875C11.2679 6.875 11.0104 6.9502 10.8281 7.10059C10.6458 7.25098 10.5547 7.44238 10.5547 7.6748C10.5547 7.89355 10.6572 8.07129 10.8623 8.20801C11.0719 8.34017 11.4229 8.45638 11.915 8.55664C12.4072 8.65234 12.8219 8.76172 13.1592 8.88477C14.2028 9.26758 14.7246 9.93066 14.7246 10.874C14.7246 11.5485 14.4352 12.0954 13.8564 12.5146C13.2777 12.9294 12.5303 13.1367 11.6143 13.1367C10.9945 13.1367 10.443 13.0273 9.95996 12.8086C9.48145 12.5853 9.10547 12.2822 8.83203 11.8994C8.55859 11.512 8.42188 11.0951 8.42188 10.6484H10.2949C10.3132 10.9993 10.443 11.2682 10.6846 11.4551C10.9261 11.6419 11.2497 11.7354 11.6553 11.7354C12.0335 11.7354 12.3184 11.6647 12.5098 11.5234C12.7057 11.3776 12.8037 11.1885 12.8037 10.9561Z" transform="translate(202 130)" fill="#D55E00"/>
<path d="M6.52148 9.25391H7.64941V10.8467H6.52148V13H4.5459V10.8467H0.464844L0.375977 9.60254L4.52539 3.04688H6.52148V9.25391ZM2.34473 9.25391H4.5459V5.74023L4.41602 5.96582L2.34473 9.25391ZM12.8037 10.9561C12.8037 10.7145 12.6829 10.5254 12.4414 10.3887C12.2044 10.2474 11.8216 10.1221 11.293 10.0127C9.53385 9.64355 8.6543 8.89616 8.6543 7.77051C8.6543 7.11426 8.92546 6.56738 9.46777 6.12988C10.0146 5.68783 10.7279 5.4668 11.6074 5.4668C12.5462 5.4668 13.2959 5.68783 13.8564 6.12988C14.4215 6.57194 14.7041 7.14616 14.7041 7.85254H12.7285C12.7285 7.56999 12.6374 7.33757 12.4551 7.15527C12.2728 6.96842 11.988 6.875 11.6006 6.875C11.2679 6.875 11.0104 6.9502 10.8281 7.10059C10.6458 7.25098 10.5547 7.44238 10.5547 7.6748C10.5547 7.89355 10.6572 8.07129 10.8623 8.20801C11.0719 8.34017 11.4229 8.45638 11.915 8.55664C12.4072 8.65234 12.8219 8.76172 13.1592 8.88477C14.2028 9.26758 14.7246 9.93066 14.7246 10.874C14.7246 11.5485 14.4352 12.0954 13.8564 12.5146C13.2777 12.9294 12.5303 13.1367 11.6143 13.1367C10.9945 13.1367 10.443 13.0273 9.95996 12.8086C9.48145 12.5853 9.10547 12.2822 8.83203 11.8994C8.55859 11.512 8.42188 11.0951 8.42188 10.6484H10.2949C10.3132 10.9993 10.443 11.2682 10.6846 11.4551C10.9261 11.6419 11.2497 11.7354 11.6553 11.7354C12.0335 11.7354 12.3184 11.6647 12.5098 11.5234C12.7057 11.3776 12.8037 11.1885 12.8037 10.9561Z" transform="translate(233 146)" fill="#D55E00"/>
<path d="M4.5 5.94434L6.23291 2.75781H8.42285L5.73145 7.34082L8.49268 12H6.27734L4.5 8.7627L2.72266 12H0.507324L3.26855 7.34082L0.577148 2.75781H2.76709L4.5 5.94434Z" transform="translate(153 -1)" fill="black"/>
<line y1="-0.5" x2="7" y2="-0.5" transform="translate(154 1)" stroke="black"/>
</svg>
