<svg width="350" height="427" viewBox="0 0 350 427" fill="none" xmlns="http://www.w3.org/2000/svg">
<rect width="350" height="427" fill="white"/>
<path d="M3.83057 2.92578H2.43164V15.1719H3.83057V16.2852H1.06934V1.8125H3.83057V2.92578ZM11.5576 9.45166C11.5576 11.0386 11.2866 12.2178 10.7446 12.9893C10.2026 13.7607 9.35547 14.1465 8.20312 14.1465C7.06543 14.1465 6.22314 13.7705 5.67627 13.0186C5.12939 12.2617 4.84619 11.1338 4.82666 9.63477V7.82568C4.82666 6.2583 5.09766 5.09375 5.63965 4.33203C6.18164 3.57031 7.03125 3.18945 8.18848 3.18945C9.33594 3.18945 10.1807 3.55811 10.7227 4.29541C11.2646 5.02783 11.543 6.16064 11.5576 7.69385V9.45166ZM10.2026 7.59863C10.2026 6.45117 10.0415 5.61621 9.71924 5.09375C9.39697 4.56641 8.88672 4.30273 8.18848 4.30273C7.49512 4.30273 6.98975 4.56396 6.67236 5.08643C6.35498 5.60889 6.19141 6.41211 6.18164 7.49609V9.66406C6.18164 10.8164 6.34766 11.6685 6.67969 12.2202C7.0166 12.7671 7.52441 13.0405 8.20312 13.0405C8.87207 13.0405 9.36768 12.7817 9.68994 12.2642C10.0171 11.7466 10.188 10.9312 10.2026 9.81787V7.59863ZM13.3887 16.124L12.6196 15.5967C13.0786 14.957 13.3179 14.2979 13.3374 13.6191V12.396H14.6631V13.458C14.6631 13.9512 14.541 14.4443 14.2969 14.9375C14.0576 15.4307 13.7549 15.8262 13.3887 16.124ZM21.9287 8.00879H22.9468C23.5864 7.99902 24.0894 7.83057 24.4556 7.50342C24.8218 7.17627 25.0049 6.73438 25.0049 6.17773C25.0049 4.92773 24.3823 4.30273 23.1372 4.30273C22.5513 4.30273 22.0825 4.47119 21.731 4.80811C21.3843 5.14014 21.2109 5.58203 21.2109 6.13379H19.856C19.856 5.28906 20.1636 4.58838 20.7788 4.03174C21.3989 3.47021 22.1851 3.18945 23.1372 3.18945C24.1431 3.18945 24.9316 3.45557 25.5029 3.98779C26.0742 4.52002 26.3599 5.25977 26.3599 6.20703C26.3599 6.6709 26.2085 7.12012 25.9058 7.55469C25.6079 7.98926 25.2002 8.31396 24.6826 8.52881C25.2686 8.71436 25.7202 9.02197 26.0376 9.45166C26.3599 9.88135 26.521 10.4062 26.521 11.0264C26.521 11.9834 26.2085 12.7427 25.5835 13.3042C24.9585 13.8657 24.1455 14.1465 23.1445 14.1465C22.1436 14.1465 21.3281 13.8755 20.6982 13.3335C20.0732 12.7915 19.7607 12.0762 19.7607 11.1875H21.123C21.123 11.749 21.3062 12.1982 21.6724 12.5352C22.0386 12.8721 22.5293 13.0405 23.1445 13.0405C23.7988 13.0405 24.2993 12.8696 24.646 12.5278C24.9927 12.186 25.166 11.6953 25.166 11.0557C25.166 10.4355 24.9756 9.95947 24.5947 9.62744C24.2139 9.29541 23.6646 9.12451 22.9468 9.11475H21.9287V8.00879ZM27.561 1.8125H30.3296V16.2852H27.561V15.1719H28.9746V2.92578H27.561V1.8125ZM3.83057 37.9258H2.43164V50.1719H3.83057V51.2852H1.06934V36.8125H3.83057V37.9258ZM11.5576 44.4517C11.5576 46.0386 11.2866 47.2178 10.7446 47.9893C10.2026 48.7607 9.35547 49.1465 8.20312 49.1465C7.06543 49.1465 6.22314 48.7705 5.67627 48.0186C5.12939 47.2617 4.84619 46.1338 4.82666 44.6348V42.8257C4.82666 41.2583 5.09766 40.0938 5.63965 39.332C6.18164 38.5703 7.03125 38.1895 8.18848 38.1895C9.33594 38.1895 10.1807 38.5581 10.7227 39.2954C11.2646 40.0278 11.543 41.1606 11.5576 42.6938V44.4517ZM10.2026 42.5986C10.2026 41.4512 10.0415 40.6162 9.71924 40.0938C9.39697 39.5664 8.88672 39.3027 8.18848 39.3027C7.49512 39.3027 6.98975 39.564 6.67236 40.0864C6.35498 40.6089 6.19141 41.4121 6.18164 42.4961V44.6641C6.18164 45.8164 6.34766 46.6685 6.67969 47.2202C7.0166 47.7671 7.52441 48.0405 8.20312 48.0405C8.87207 48.0405 9.36768 47.7817 9.68994 47.2642C10.0171 46.7466 10.188 45.9312 10.2026 44.8179V42.5986ZM13.3887 51.124L12.6196 50.5967C13.0786 49.957 13.3179 49.2979 13.3374 48.6191V47.396H14.6631V48.458C14.6631 48.9512 14.541 49.4443 14.2969 49.9375C14.0576 50.4307 13.7549 50.8262 13.3887 51.124ZM25.2759 38.3286V39.4785H25.0269C23.9722 39.498 23.1323 39.8105 22.5073 40.416C21.8823 41.0215 21.521 41.8735 21.4233 42.9722C21.9849 42.3276 22.7515 42.0054 23.7231 42.0054C24.6509 42.0054 25.3906 42.3325 25.9424 42.9868C26.499 43.6411 26.7773 44.4858 26.7773 45.521C26.7773 46.6196 26.4771 47.4985 25.8765 48.1577C25.2808 48.8169 24.48 49.1465 23.4741 49.1465C22.4536 49.1465 21.626 48.7559 20.9912 47.9746C20.3564 47.1885 20.0391 46.1777 20.0391 44.9424V44.4224C20.0391 42.4595 20.4565 40.9604 21.2915 39.9253C22.1313 38.8853 23.3789 38.353 25.0342 38.3286H25.2759ZM23.4961 43.1333C23.0322 43.1333 22.605 43.2725 22.2144 43.5508C21.8237 43.8291 21.5527 44.1782 21.4014 44.5981V45.0962C21.4014 45.9751 21.5991 46.6831 21.9946 47.2202C22.3901 47.7573 22.8833 48.0259 23.4741 48.0259C24.0845 48.0259 24.563 47.8013 24.9097 47.3521C25.2612 46.9028 25.437 46.3145 25.437 45.5869C25.437 44.8545 25.2588 44.2637 24.9023 43.8145C24.5508 43.3604 24.082 43.1333 23.4961 43.1333ZM27.561 36.8125H30.3296V51.2852H27.561V50.1719H28.9746V37.9258H27.561V36.8125ZM3.83057 72.9258H2.43164V85.1719H3.83057V86.2852H1.06934V71.8125H3.83057V72.9258ZM11.5576 79.4517C11.5576 81.0386 11.2866 82.2178 10.7446 82.9893C10.2026 83.7607 9.35547 84.1465 8.20312 84.1465C7.06543 84.1465 6.22314 83.7705 5.67627 83.0186C5.12939 82.2617 4.84619 81.1338 4.82666 79.6348V77.8257C4.82666 76.2583 5.09766 75.0938 5.63965 74.332C6.18164 73.5703 7.03125 73.1895 8.18848 73.1895C9.33594 73.1895 10.1807 73.5581 10.7227 74.2954C11.2646 75.0278 11.543 76.1606 11.5576 77.6938V79.4517ZM10.2026 77.5986C10.2026 76.4512 10.0415 75.6162 9.71924 75.0938C9.39697 74.5664 8.88672 74.3027 8.18848 74.3027C7.49512 74.3027 6.98975 74.564 6.67236 75.0864C6.35498 75.6089 6.19141 76.4121 6.18164 77.4961V79.6641C6.18164 80.8164 6.34766 81.6685 6.67969 82.2202C7.0166 82.7671 7.52441 83.0405 8.20312 83.0405C8.87207 83.0405 9.36768 82.7817 9.68994 82.2642C10.0171 81.7466 10.188 80.9312 10.2026 79.8179V77.5986ZM13.3887 86.124L12.6196 85.5967C13.0786 84.957 13.3179 84.2979 13.3374 83.6191V82.396H14.6631V83.458C14.6631 83.9512 14.541 84.4443 14.2969 84.9375C14.0576 85.4307 13.7549 85.8262 13.3887 86.124ZM26.6455 79.4517C26.6455 81.0386 26.3745 82.2178 25.8325 82.9893C25.2905 83.7607 24.4434 84.1465 23.291 84.1465C22.1533 84.1465 21.311 83.7705 20.7642 83.0186C20.2173 82.2617 19.9341 81.1338 19.9146 79.6348V77.8257C19.9146 76.2583 20.1855 75.0938 20.7275 74.332C21.2695 73.5703 22.1191 73.1895 23.2764 73.1895C24.4238 73.1895 25.2686 73.5581 25.8105 74.2954C26.3525 75.0278 26.6309 76.1606 26.6455 77.6938V79.4517ZM25.2905 77.5986C25.2905 76.4512 25.1294 75.6162 24.8071 75.0938C24.4849 74.5664 23.9746 74.3027 23.2764 74.3027C22.583 74.3027 22.0776 74.564 21.7603 75.0864C21.4429 75.6089 21.2793 76.4121 21.2695 77.4961V79.6641C21.2695 80.8164 21.4355 81.6685 21.7676 82.2202C22.1045 82.7671 22.6123 83.0405 23.291 83.0405C23.96 83.0405 24.4556 82.7817 24.7778 82.2642C25.105 81.7466 25.2759 80.9312 25.2905 79.8179V77.5986ZM27.561 71.8125H30.3296V86.2852H27.561V85.1719H28.9746V72.9258H27.561V71.8125ZM3.83057 107.926H2.43164V120.172H3.83057V121.285H1.06934V106.812H3.83057V107.926ZM6.84082 113.009H7.85889C8.49854 112.999 9.00146 112.831 9.36768 112.503C9.73389 112.176 9.91699 111.734 9.91699 111.178C9.91699 109.928 9.29443 109.303 8.04932 109.303C7.46338 109.303 6.99463 109.471 6.64307 109.808C6.29639 110.14 6.12305 110.582 6.12305 111.134H4.76807C4.76807 110.289 5.07568 109.588 5.69092 109.032C6.31104 108.47 7.09717 108.189 8.04932 108.189C9.05518 108.189 9.84375 108.456 10.415 108.988C10.9863 109.52 11.272 110.26 11.272 111.207C11.272 111.671 11.1206 112.12 10.8179 112.555C10.52 112.989 10.1123 113.314 9.59473 113.529C10.1807 113.714 10.6323 114.022 10.9497 114.452C11.272 114.881 11.4331 115.406 11.4331 116.026C11.4331 116.983 11.1206 117.743 10.4956 118.304C9.87061 118.866 9.05762 119.146 8.05664 119.146C7.05566 119.146 6.24023 118.875 5.61035 118.333C4.98535 117.792 4.67285 117.076 4.67285 116.188H6.03516C6.03516 116.749 6.21826 117.198 6.58447 117.535C6.95068 117.872 7.44141 118.041 8.05664 118.041C8.71094 118.041 9.21143 117.87 9.55811 117.528C9.90479 117.186 10.0781 116.695 10.0781 116.056C10.0781 115.436 9.8877 114.959 9.50684 114.627C9.12598 114.295 8.57666 114.125 7.85889 114.115H6.84082V113.009ZM13.3887 121.124L12.6196 120.597C13.0786 119.957 13.3179 119.298 13.3374 118.619V117.396H14.6631V118.458C14.6631 118.951 14.541 119.444 14.2969 119.938C14.0576 120.431 13.7549 120.826 13.3887 121.124ZM26.6455 114.452C26.6455 116.039 26.3745 117.218 25.8325 117.989C25.2905 118.761 24.4434 119.146 23.291 119.146C22.1533 119.146 21.311 118.771 20.7642 118.019C20.2173 117.262 19.9341 116.134 19.9146 114.635V112.826C19.9146 111.258 20.1855 110.094 20.7275 109.332C21.2695 108.57 22.1191 108.189 23.2764 108.189C24.4238 108.189 25.2686 108.558 25.8105 109.295C26.3525 110.028 26.6309 111.161 26.6455 112.694V114.452ZM25.2905 112.599C25.2905 111.451 25.1294 110.616 24.8071 110.094C24.4849 109.566 23.9746 109.303 23.2764 109.303C22.583 109.303 22.0776 109.564 21.7603 110.086C21.4429 110.609 21.2793 111.412 21.2695 112.496V114.664C21.2695 115.816 21.4355 116.668 21.7676 117.22C22.1045 117.767 22.6123 118.041 23.291 118.041C23.96 118.041 24.4556 117.782 24.7778 117.264C25.105 116.747 25.2759 115.931 25.2905 114.818V112.599ZM27.561 106.812H30.3296V121.285H27.561V120.172H28.9746V107.926H27.561V106.812ZM3.83057 143.926H2.43164V156.172H3.83057V157.285H1.06934V142.812H3.83057V143.926ZM6.84082 149.009H7.85889C8.49854 148.999 9.00146 148.831 9.36768 148.503C9.73389 148.176 9.91699 147.734 9.91699 147.178C9.91699 145.928 9.29443 145.303 8.04932 145.303C7.46338 145.303 6.99463 145.471 6.64307 145.808C6.29639 146.14 6.12305 146.582 6.12305 147.134H4.76807C4.76807 146.289 5.07568 145.588 5.69092 145.032C6.31104 144.47 7.09717 144.189 8.04932 144.189C9.05518 144.189 9.84375 144.456 10.415 144.988C10.9863 145.52 11.272 146.26 11.272 147.207C11.272 147.671 11.1206 148.12 10.8179 148.555C10.52 148.989 10.1123 149.314 9.59473 149.529C10.1807 149.714 10.6323 150.022 10.9497 150.452C11.272 150.881 11.4331 151.406 11.4331 152.026C11.4331 152.983 11.1206 153.743 10.4956 154.304C9.87061 154.866 9.05762 155.146 8.05664 155.146C7.05566 155.146 6.24023 154.875 5.61035 154.333C4.98535 153.792 4.67285 153.076 4.67285 152.188H6.03516C6.03516 152.749 6.21826 153.198 6.58447 153.535C6.95068 153.872 7.44141 154.041 8.05664 154.041C8.71094 154.041 9.21143 153.87 9.55811 153.528C9.90479 153.186 10.0781 152.695 10.0781 152.056C10.0781 151.436 9.8877 150.959 9.50684 150.627C9.12598 150.295 8.57666 150.125 7.85889 150.115H6.84082V149.009ZM13.3887 157.124L12.6196 156.597C13.0786 155.957 13.3179 155.298 13.3374 154.619V153.396H14.6631V154.458C14.6631 154.951 14.541 155.444 14.2969 155.938C14.0576 156.431 13.7549 156.826 13.3887 157.124ZM25.2759 144.329V145.479H25.0269C23.9722 145.498 23.1323 145.811 22.5073 146.416C21.8823 147.021 21.521 147.874 21.4233 148.972C21.9849 148.328 22.7515 148.005 23.7231 148.005C24.6509 148.005 25.3906 148.333 25.9424 148.987C26.499 149.641 26.7773 150.486 26.7773 151.521C26.7773 152.62 26.4771 153.499 25.8765 154.158C25.2808 154.817 24.48 155.146 23.4741 155.146C22.4536 155.146 21.626 154.756 20.9912 153.975C20.3564 153.188 20.0391 152.178 20.0391 150.942V150.422C20.0391 148.459 20.4565 146.96 21.2915 145.925C22.1313 144.885 23.3789 144.353 25.0342 144.329H25.2759ZM23.4961 149.133C23.0322 149.133 22.605 149.272 22.2144 149.551C21.8237 149.829 21.5527 150.178 21.4014 150.598V151.096C21.4014 151.975 21.5991 152.683 21.9946 153.22C22.3901 153.757 22.8833 154.026 23.4741 154.026C24.0845 154.026 24.563 153.801 24.9097 153.352C25.2612 152.903 25.437 152.314 25.437 151.587C25.437 150.854 25.2588 150.264 24.9023 149.814C24.5508 149.36 24.082 149.133 23.4961 149.133ZM27.561 142.812H30.3296V157.285H27.561V156.172H28.9746V143.926H27.561V142.812ZM3.83057 178.926H2.43164V191.172H3.83057V192.285H1.06934V177.812H3.83057V178.926ZM6.84082 184.009H7.85889C8.49854 183.999 9.00146 183.831 9.36768 183.503C9.73389 183.176 9.91699 182.734 9.91699 182.178C9.91699 180.928 9.29443 180.303 8.04932 180.303C7.46338 180.303 6.99463 180.471 6.64307 180.808C6.29639 181.14 6.12305 181.582 6.12305 182.134H4.76807C4.76807 181.289 5.07568 180.588 5.69092 180.032C6.31104 179.47 7.09717 179.189 8.04932 179.189C9.05518 179.189 9.84375 179.456 10.415 179.988C10.9863 180.52 11.272 181.26 11.272 182.207C11.272 182.671 11.1206 183.12 10.8179 183.555C10.52 183.989 10.1123 184.314 9.59473 184.529C10.1807 184.714 10.6323 185.022 10.9497 185.452C11.272 185.881 11.4331 186.406 11.4331 187.026C11.4331 187.983 11.1206 188.743 10.4956 189.304C9.87061 189.866 9.05762 190.146 8.05664 190.146C7.05566 190.146 6.24023 189.875 5.61035 189.333C4.98535 188.792 4.67285 188.076 4.67285 187.188H6.03516C6.03516 187.749 6.21826 188.198 6.58447 188.535C6.95068 188.872 7.44141 189.041 8.05664 189.041C8.71094 189.041 9.21143 188.87 9.55811 188.528C9.90479 188.186 10.0781 187.695 10.0781 187.056C10.0781 186.436 9.8877 185.959 9.50684 185.627C9.12598 185.295 8.57666 185.125 7.85889 185.115H6.84082V184.009ZM13.3887 192.124L12.6196 191.597C13.0786 190.957 13.3179 190.298 13.3374 189.619V188.396H14.6631V189.458C14.6631 189.951 14.541 190.444 14.2969 190.938C14.0576 191.431 13.7549 191.826 13.3887 192.124ZM21.9287 184.009H22.9468C23.5864 183.999 24.0894 183.831 24.4556 183.503C24.8218 183.176 25.0049 182.734 25.0049 182.178C25.0049 180.928 24.3823 180.303 23.1372 180.303C22.5513 180.303 22.0825 180.471 21.731 180.808C21.3843 181.14 21.2109 181.582 21.2109 182.134H19.856C19.856 181.289 20.1636 180.588 20.7788 180.032C21.3989 179.47 22.1851 179.189 23.1372 179.189C24.1431 179.189 24.9316 179.456 25.5029 179.988C26.0742 180.52 26.3599 181.26 26.3599 182.207C26.3599 182.671 26.2085 183.12 25.9058 183.555C25.6079 183.989 25.2002 184.314 24.6826 184.529C25.2686 184.714 25.7202 185.022 26.0376 185.452C26.3599 185.881 26.521 186.406 26.521 187.026C26.521 187.983 26.2085 188.743 25.5835 189.304C24.9585 189.866 24.1455 190.146 23.1445 190.146C22.1436 190.146 21.3281 189.875 20.6982 189.333C20.0732 188.792 19.7607 188.076 19.7607 187.188H21.123C21.123 187.749 21.3062 188.198 21.6724 188.535C22.0386 188.872 22.5293 189.041 23.1445 189.041C23.7988 189.041 24.2993 188.87 24.646 188.528C24.9927 188.186 25.166 187.695 25.166 187.056C25.166 186.436 24.9756 185.959 24.5947 185.627C24.2139 185.295 23.6646 185.125 22.9468 185.115H21.9287V184.009ZM27.561 177.812H30.3296V192.285H27.561V191.172H28.9746V178.926H27.561V177.812ZM3.83057 213.926H2.43164V226.172H3.83057V227.285H1.06934V212.812H3.83057V213.926ZM10.188 214.329V215.479H9.93896C8.88428 215.498 8.04443 215.811 7.41943 216.416C6.79443 217.021 6.43311 217.874 6.33545 218.972C6.89697 218.328 7.66357 218.005 8.63525 218.005C9.56299 218.005 10.3027 218.333 10.8545 218.987C11.4111 219.641 11.6895 220.486 11.6895 221.521C11.6895 222.62 11.3892 223.499 10.7886 224.158C10.1929 224.817 9.39209 225.146 8.38623 225.146C7.36572 225.146 6.53809 224.756 5.90332 223.975C5.26855 223.188 4.95117 222.178 4.95117 220.942V220.422C4.95117 218.459 5.36865 216.96 6.20361 215.925C7.04346 214.885 8.29102 214.353 9.94629 214.329H10.188ZM8.4082 219.133C7.94434 219.133 7.51709 219.272 7.12646 219.551C6.73584 219.829 6.46484 220.178 6.31348 220.598V221.096C6.31348 221.975 6.51123 222.683 6.90674 223.22C7.30225 223.757 7.79541 224.026 8.38623 224.026C8.99658 224.026 9.4751 223.801 9.82178 223.352C10.1733 222.903 10.3491 222.314 10.3491 221.587C10.3491 220.854 10.1709 220.264 9.81445 219.814C9.46289 219.36 8.99414 219.133 8.4082 219.133ZM13.3887 227.124L12.6196 226.597C13.0786 225.957 13.3179 225.298 13.3374 224.619V223.396H14.6631V224.458C14.6631 224.951 14.541 225.444 14.2969 225.938C14.0576 226.431 13.7549 226.826 13.3887 227.124ZM26.6455 220.452C26.6455 222.039 26.3745 223.218 25.8325 223.989C25.2905 224.761 24.4434 225.146 23.291 225.146C22.1533 225.146 21.311 224.771 20.7642 224.019C20.2173 223.262 19.9341 222.134 19.9146 220.635V218.826C19.9146 217.258 20.1855 216.094 20.7275 215.332C21.2695 214.57 22.1191 214.189 23.2764 214.189C24.4238 214.189 25.2686 214.558 25.8105 215.295C26.3525 216.028 26.6309 217.161 26.6455 218.694V220.452ZM25.2905 218.599C25.2905 217.451 25.1294 216.616 24.8071 216.094C24.4849 215.566 23.9746 215.303 23.2764 215.303C22.583 215.303 22.0776 215.564 21.7603 216.086C21.4429 216.609 21.2793 217.412 21.2695 218.496V220.664C21.2695 221.816 21.4355 222.668 21.7676 223.22C22.1045 223.767 22.6123 224.041 23.291 224.041C23.96 224.041 24.4556 223.782 24.7778 223.264C25.105 222.747 25.2759 221.931 25.2905 220.818V218.599ZM27.561 212.812H30.3296V227.285H27.561V226.172H28.9746V213.926H27.561V212.812ZM3.83057 248.926H2.43164V261.172H3.83057V262.285H1.06934V247.812H3.83057V248.926ZM10.188 249.329V250.479H9.93896C8.88428 250.498 8.04443 250.811 7.41943 251.416C6.79443 252.021 6.43311 252.874 6.33545 253.972C6.89697 253.328 7.66357 253.005 8.63525 253.005C9.56299 253.005 10.3027 253.333 10.8545 253.987C11.4111 254.641 11.6895 255.486 11.6895 256.521C11.6895 257.62 11.3892 258.499 10.7886 259.158C10.1929 259.817 9.39209 260.146 8.38623 260.146C7.36572 260.146 6.53809 259.756 5.90332 258.975C5.26855 258.188 4.95117 257.178 4.95117 255.942V255.422C4.95117 253.459 5.36865 251.96 6.20361 250.925C7.04346 249.885 8.29102 249.353 9.94629 249.329H10.188ZM8.4082 254.133C7.94434 254.133 7.51709 254.272 7.12646 254.551C6.73584 254.829 6.46484 255.178 6.31348 255.598V256.096C6.31348 256.975 6.51123 257.683 6.90674 258.22C7.30225 258.757 7.79541 259.026 8.38623 259.026C8.99658 259.026 9.4751 258.801 9.82178 258.352C10.1733 257.903 10.3491 257.314 10.3491 256.587C10.3491 255.854 10.1709 255.264 9.81445 254.814C9.46289 254.36 8.99414 254.133 8.4082 254.133ZM13.3887 262.124L12.6196 261.597C13.0786 260.957 13.3179 260.298 13.3374 259.619V258.396H14.6631V259.458C14.6631 259.951 14.541 260.444 14.2969 260.938C14.0576 261.431 13.7549 261.826 13.3887 262.124ZM21.9287 254.009H22.9468C23.5864 253.999 24.0894 253.831 24.4556 253.503C24.8218 253.176 25.0049 252.734 25.0049 252.178C25.0049 250.928 24.3823 250.303 23.1372 250.303C22.5513 250.303 22.0825 250.471 21.731 250.808C21.3843 251.14 21.2109 251.582 21.2109 252.134H19.856C19.856 251.289 20.1636 250.588 20.7788 250.032C21.3989 249.47 22.1851 249.189 23.1372 249.189C24.1431 249.189 24.9316 249.456 25.5029 249.988C26.0742 250.52 26.3599 251.26 26.3599 252.207C26.3599 252.671 26.2085 253.12 25.9058 253.555C25.6079 253.989 25.2002 254.314 24.6826 254.529C25.2686 254.714 25.7202 255.022 26.0376 255.452C26.3599 255.881 26.521 256.406 26.521 257.026C26.521 257.983 26.2085 258.743 25.5835 259.304C24.9585 259.866 24.1455 260.146 23.1445 260.146C22.1436 260.146 21.3281 259.875 20.6982 259.333C20.0732 258.792 19.7607 258.076 19.7607 257.188H21.123C21.123 257.749 21.3062 258.198 21.6724 258.535C22.0386 258.872 22.5293 259.041 23.1445 259.041C23.7988 259.041 24.2993 258.87 24.646 258.528C24.9927 258.186 25.166 257.695 25.166 257.056C25.166 256.436 24.9756 255.959 24.5947 255.627C24.2139 255.295 23.6646 255.125 22.9468 255.115H21.9287V254.009ZM27.561 247.812H30.3296V262.285H27.561V261.172H28.9746V248.926H27.561V247.812ZM3.83057 283.926H2.43164V296.172H3.83057V297.285H1.06934V282.812H3.83057V283.926ZM10.188 284.329V285.479H9.93896C8.88428 285.498 8.04443 285.811 7.41943 286.416C6.79443 287.021 6.43311 287.874 6.33545 288.972C6.89697 288.328 7.66357 288.005 8.63525 288.005C9.56299 288.005 10.3027 288.333 10.8545 288.987C11.4111 289.641 11.6895 290.486 11.6895 291.521C11.6895 292.62 11.3892 293.499 10.7886 294.158C10.1929 294.817 9.39209 295.146 8.38623 295.146C7.36572 295.146 6.53809 294.756 5.90332 293.975C5.26855 293.188 4.95117 292.178 4.95117 290.942V290.422C4.95117 288.459 5.36865 286.96 6.20361 285.925C7.04346 284.885 8.29102 284.353 9.94629 284.329H10.188ZM8.4082 289.133C7.94434 289.133 7.51709 289.272 7.12646 289.551C6.73584 289.829 6.46484 290.178 6.31348 290.598V291.096C6.31348 291.975 6.51123 292.683 6.90674 293.22C7.30225 293.757 7.79541 294.026 8.38623 294.026C8.99658 294.026 9.4751 293.801 9.82178 293.352C10.1733 292.903 10.3491 292.314 10.3491 291.587C10.3491 290.854 10.1709 290.264 9.81445 289.814C9.46289 289.36 8.99414 289.133 8.4082 289.133ZM13.3887 297.124L12.6196 296.597C13.0786 295.957 13.3179 295.298 13.3374 294.619V293.396H14.6631V294.458C14.6631 294.951 14.541 295.444 14.2969 295.938C14.0576 296.431 13.7549 296.826 13.3887 297.124ZM25.2759 284.329V285.479H25.0269C23.9722 285.498 23.1323 285.811 22.5073 286.416C21.8823 287.021 21.521 287.874 21.4233 288.972C21.9849 288.328 22.7515 288.005 23.7231 288.005C24.6509 288.005 25.3906 288.333 25.9424 288.987C26.499 289.641 26.7773 290.486 26.7773 291.521C26.7773 292.62 26.4771 293.499 25.8765 294.158C25.2808 294.817 24.48 295.146 23.4741 295.146C22.4536 295.146 21.626 294.756 20.9912 293.975C20.3564 293.188 20.0391 292.178 20.0391 290.942V290.422C20.0391 288.459 20.4565 286.96 21.2915 285.925C22.1313 284.885 23.3789 284.353 25.0342 284.329H25.2759ZM23.4961 289.133C23.0322 289.133 22.605 289.272 22.2144 289.551C21.8237 289.829 21.5527 290.178 21.4014 290.598V291.096C21.4014 291.975 21.5991 292.683 21.9946 293.22C22.3901 293.757 22.8833 294.026 23.4741 294.026C24.0845 294.026 24.563 293.801 24.9097 293.352C25.2612 292.903 25.437 292.314 25.437 291.587C25.437 290.854 25.2588 290.264 24.9023 289.814C24.5508 289.36 24.082 289.133 23.4961 289.133ZM27.561 282.812H30.3296V297.285H27.561V296.172H28.9746V283.926H27.561V282.812Z" transform="translate(15 47)" fill="black"/>
<path d="M6.70605 10.4185H8.18555V11.5244H6.70605V14H5.34375V11.5244H0.487793V10.7261L5.26318 3.33594H6.70605V10.4185ZM2.02588 10.4185H5.34375V5.18896L5.18262 5.48193L2.02588 10.4185ZM9.57715 13.2896C9.57715 13.0552 9.64551 12.8599 9.78223 12.7036C9.92383 12.5474 10.1338 12.4692 10.4121 12.4692C10.6904 12.4692 10.9004 12.5474 11.042 12.7036C11.1885 12.8599 11.2617 13.0552 11.2617 13.2896C11.2617 13.5142 11.1885 13.7021 11.042 13.8535C10.9004 14.0049 10.6904 14.0806 10.4121 14.0806C10.1338 14.0806 9.92383 14.0049 9.78223 13.8535C9.64551 13.7021 9.57715 13.5142 9.57715 13.2896ZM13.9863 8.65332L14.5283 3.33594H19.9922V4.58838H15.6782L15.356 7.49609C15.8784 7.18848 16.4717 7.03467 17.1357 7.03467C18.1074 7.03467 18.8789 7.35693 19.4502 8.00146C20.0215 8.64111 20.3071 9.50781 20.3071 10.6016C20.3071 11.7002 20.0093 12.5669 19.4136 13.2017C18.8228 13.8315 17.9951 14.1465 16.9307 14.1465C15.9883 14.1465 15.2192 13.8853 14.6235 13.3628C14.0278 12.8403 13.6885 12.1177 13.6055 11.1948H14.8872C14.9702 11.8052 15.1875 12.2666 15.5391 12.5791C15.8906 12.8867 16.3545 13.0405 16.9307 13.0405C17.5605 13.0405 18.0537 12.8257 18.4102 12.396C18.7715 11.9663 18.9521 11.373 18.9521 10.6162C18.9521 9.90332 18.7568 9.33203 18.3662 8.90234C17.9805 8.46777 17.4653 8.25049 16.8208 8.25049C16.23 8.25049 15.7661 8.37988 15.4292 8.63867L15.0703 8.93164L13.9863 8.65332ZM7.4165 49H6.0542V39.9692L3.32227 40.9727V39.7422L7.2041 38.2847H7.4165V49ZM17.8535 41.1191C17.8535 41.6514 17.7119 42.125 17.4287 42.54C17.1504 42.9551 16.772 43.2798 16.2935 43.5142C16.8501 43.7534 17.2896 44.1025 17.6118 44.5615C17.939 45.0205 18.1025 45.5405 18.1025 46.1216C18.1025 47.0444 17.79 47.7793 17.165 48.3262C16.5449 48.873 15.7271 49.1465 14.7114 49.1465C13.686 49.1465 12.8633 48.873 12.2432 48.3262C11.6279 47.7744 11.3203 47.0396 11.3203 46.1216C11.3203 45.5454 11.4766 45.0254 11.7891 44.5615C12.1064 44.0977 12.5435 43.7461 13.1001 43.5068C12.6265 43.2725 12.2529 42.9478 11.9795 42.5327C11.7061 42.1177 11.5693 41.6465 11.5693 41.1191C11.5693 40.2207 11.8574 39.5078 12.4336 38.9805C13.0098 38.4531 13.769 38.1895 14.7114 38.1895C15.6489 38.1895 16.4058 38.4531 16.9819 38.9805C17.563 39.5078 17.8535 40.2207 17.8535 41.1191ZM16.7476 46.0923C16.7476 45.4966 16.5571 45.0107 16.1763 44.6348C15.8003 44.2588 15.3071 44.0708 14.6968 44.0708C14.0864 44.0708 13.5957 44.2563 13.2246 44.6274C12.8584 44.9985 12.6753 45.4868 12.6753 46.0923C12.6753 46.6978 12.8535 47.1738 13.21 47.5205C13.5713 47.8672 14.0718 48.0405 14.7114 48.0405C15.3462 48.0405 15.8442 47.8672 16.2056 47.5205C16.5669 47.1689 16.7476 46.6929 16.7476 46.0923ZM14.7114 39.3027C14.1792 39.3027 13.7471 39.4688 13.415 39.8008C13.0879 40.1279 12.9243 40.5747 12.9243 41.1411C12.9243 41.6831 13.0854 42.1226 13.4077 42.4595C13.7349 42.7915 14.1694 42.9575 14.7114 42.9575C15.2534 42.9575 15.6855 42.7915 16.0078 42.4595C16.335 42.1226 16.4985 41.6831 16.4985 41.1411C16.4985 40.5991 16.3301 40.1572 15.9932 39.8154C15.6562 39.4736 15.229 39.3027 14.7114 39.3027ZM13.8618 79.4517C13.8618 81.0386 13.5908 82.2178 13.0488 82.9893C12.5068 83.7607 11.6597 84.1465 10.5073 84.1465C9.36963 84.1465 8.52734 83.7705 7.98047 83.0186C7.43359 82.2617 7.15039 81.1338 7.13086 79.6348V77.8257C7.13086 76.2583 7.40186 75.0938 7.94385 74.332C8.48584 73.5703 9.33545 73.1895 10.4927 73.1895C11.6401 73.1895 12.4849 73.5581 13.0269 74.2954C13.5688 75.0278 13.8472 76.1606 13.8618 77.6938V79.4517ZM12.5068 77.5986C12.5068 76.4512 12.3457 75.6162 12.0234 75.0938C11.7012 74.5664 11.1909 74.3027 10.4927 74.3027C9.79932 74.3027 9.29395 74.564 8.97656 75.0864C8.65918 75.6089 8.49561 76.4121 8.48584 77.4961V79.6641C8.48584 80.8164 8.65186 81.6685 8.98389 82.2202C9.3208 82.7671 9.82861 83.0405 10.5073 83.0405C11.1763 83.0405 11.6719 82.7817 11.9941 82.2642C12.3213 81.7466 12.4922 80.9312 12.5068 79.8179V77.5986ZM6.70605 115.418H8.18555V116.524H6.70605V119H5.34375V116.524H0.487793V115.726L5.26318 108.336H6.70605V115.418ZM2.02588 115.418H5.34375V110.189L5.18262 110.482L2.02588 115.418ZM9.57715 118.29C9.57715 118.055 9.64551 117.86 9.78223 117.704C9.92383 117.547 10.1338 117.469 10.4121 117.469C10.6904 117.469 10.9004 117.547 11.042 117.704C11.1885 117.86 11.2617 118.055 11.2617 118.29C11.2617 118.514 11.1885 118.702 11.042 118.854C10.9004 119.005 10.6904 119.081 10.4121 119.081C10.1338 119.081 9.92383 119.005 9.78223 118.854C9.64551 118.702 9.57715 118.514 9.57715 118.29ZM13.9863 113.653L14.5283 108.336H19.9922V109.588H15.6782L15.356 112.496C15.8784 112.188 16.4717 112.035 17.1357 112.035C18.1074 112.035 18.8789 112.357 19.4502 113.001C20.0215 113.641 20.3071 114.508 20.3071 115.602C20.3071 116.7 20.0093 117.567 19.4136 118.202C18.8228 118.832 17.9951 119.146 16.9307 119.146C15.9883 119.146 15.2192 118.885 14.6235 118.363C14.0278 117.84 13.6885 117.118 13.6055 116.195H14.8872C14.9702 116.805 15.1875 117.267 15.5391 117.579C15.8906 117.887 16.3545 118.041 16.9307 118.041C17.5605 118.041 18.0537 117.826 18.4102 117.396C18.7715 116.966 18.9521 116.373 18.9521 115.616C18.9521 114.903 18.7568 114.332 18.3662 113.902C17.9805 113.468 17.4653 113.25 16.8208 113.25C16.23 113.25 15.7661 113.38 15.4292 113.639L15.0703 113.932L13.9863 113.653ZM6.70605 151.418H8.18555V152.524H6.70605V155H5.34375V152.524H0.487793V151.726L5.26318 144.336H6.70605V151.418ZM2.02588 151.418H5.34375V146.189L5.18262 146.482L2.02588 151.418ZM9.57715 154.29C9.57715 154.055 9.64551 153.86 9.78223 153.704C9.92383 153.547 10.1338 153.469 10.4121 153.469C10.6904 153.469 10.9004 153.547 11.042 153.704C11.1885 153.86 11.2617 154.055 11.2617 154.29C11.2617 154.514 11.1885 154.702 11.042 154.854C10.9004 155.005 10.6904 155.081 10.4121 155.081C10.1338 155.081 9.92383 155.005 9.78223 154.854C9.64551 154.702 9.57715 154.514 9.57715 154.29ZM13.9863 149.653L14.5283 144.336H19.9922V145.588H15.6782L15.356 148.496C15.8784 148.188 16.4717 148.035 17.1357 148.035C18.1074 148.035 18.8789 148.357 19.4502 149.001C20.0215 149.641 20.3071 150.508 20.3071 151.602C20.3071 152.7 20.0093 153.567 19.4136 154.202C18.8228 154.832 17.9951 155.146 16.9307 155.146C15.9883 155.146 15.2192 154.885 14.6235 154.363C14.0278 153.84 13.6885 153.118 13.6055 152.195H14.8872C14.9702 152.805 15.1875 153.267 15.5391 153.579C15.8906 153.887 16.3545 154.041 16.9307 154.041C17.5605 154.041 18.0537 153.826 18.4102 153.396C18.7715 152.966 18.9521 152.373 18.9521 151.616C18.9521 150.903 18.7568 150.332 18.3662 149.902C17.9805 149.468 17.4653 149.25 16.8208 149.25C16.23 149.25 15.7661 149.38 15.4292 149.639L15.0703 149.932L13.9863 149.653ZM13.8618 185.452C13.8618 187.039 13.5908 188.218 13.0488 188.989C12.5068 189.761 11.6597 190.146 10.5073 190.146C9.36963 190.146 8.52734 189.771 7.98047 189.019C7.43359 188.262 7.15039 187.134 7.13086 185.635V183.826C7.13086 182.258 7.40186 181.094 7.94385 180.332C8.48584 179.57 9.33545 179.189 10.4927 179.189C11.6401 179.189 12.4849 179.558 13.0269 180.295C13.5688 181.028 13.8472 182.161 13.8618 183.694V185.452ZM12.5068 183.599C12.5068 182.451 12.3457 181.616 12.0234 181.094C11.7012 180.566 11.1909 180.303 10.4927 180.303C9.79932 180.303 9.29395 180.564 8.97656 181.086C8.65918 181.609 8.49561 182.412 8.48584 183.496V185.664C8.48584 186.816 8.65186 187.668 8.98389 188.22C9.3208 188.767 9.82861 189.041 10.5073 189.041C11.1763 189.041 11.6719 188.782 11.9941 188.264C12.3213 187.747 12.4922 186.931 12.5068 185.818V183.599ZM7.4165 225H6.0542V215.969L3.32227 216.973V215.742L7.2041 214.285H7.4165V225ZM17.8535 217.119C17.8535 217.651 17.7119 218.125 17.4287 218.54C17.1504 218.955 16.772 219.28 16.2935 219.514C16.8501 219.753 17.2896 220.103 17.6118 220.562C17.939 221.021 18.1025 221.541 18.1025 222.122C18.1025 223.044 17.79 223.779 17.165 224.326C16.5449 224.873 15.7271 225.146 14.7114 225.146C13.686 225.146 12.8633 224.873 12.2432 224.326C11.6279 223.774 11.3203 223.04 11.3203 222.122C11.3203 221.545 11.4766 221.025 11.7891 220.562C12.1064 220.098 12.5435 219.746 13.1001 219.507C12.6265 219.272 12.2529 218.948 11.9795 218.533C11.7061 218.118 11.5693 217.646 11.5693 217.119C11.5693 216.221 11.8574 215.508 12.4336 214.98C13.0098 214.453 13.769 214.189 14.7114 214.189C15.6489 214.189 16.4058 214.453 16.9819 214.98C17.563 215.508 17.8535 216.221 17.8535 217.119ZM16.7476 222.092C16.7476 221.497 16.5571 221.011 16.1763 220.635C15.8003 220.259 15.3071 220.071 14.6968 220.071C14.0864 220.071 13.5957 220.256 13.2246 220.627C12.8584 220.999 12.6753 221.487 12.6753 222.092C12.6753 222.698 12.8535 223.174 13.21 223.521C13.5713 223.867 14.0718 224.041 14.7114 224.041C15.3462 224.041 15.8442 223.867 16.2056 223.521C16.5669 223.169 16.7476 222.693 16.7476 222.092ZM14.7114 215.303C14.1792 215.303 13.7471 215.469 13.415 215.801C13.0879 216.128 12.9243 216.575 12.9243 217.141C12.9243 217.683 13.0854 218.123 13.4077 218.459C13.7349 218.792 14.1694 218.958 14.7114 218.958C15.2534 218.958 15.6855 218.792 16.0078 218.459C16.335 218.123 16.4985 217.683 16.4985 217.141C16.4985 216.599 16.3301 216.157 15.9932 215.815C15.6562 215.474 15.229 215.303 14.7114 215.303ZM6.70605 256.418H8.18555V257.524H6.70605V260H5.34375V257.524H0.487793V256.726L5.26318 249.336H6.70605V256.418ZM2.02588 256.418H5.34375V251.189L5.18262 251.482L2.02588 256.418ZM9.57715 259.29C9.57715 259.055 9.64551 258.86 9.78223 258.704C9.92383 258.547 10.1338 258.469 10.4121 258.469C10.6904 258.469 10.9004 258.547 11.042 258.704C11.1885 258.86 11.2617 259.055 11.2617 259.29C11.2617 259.514 11.1885 259.702 11.042 259.854C10.9004 260.005 10.6904 260.081 10.4121 260.081C10.1338 260.081 9.92383 260.005 9.78223 259.854C9.64551 259.702 9.57715 259.514 9.57715 259.29ZM13.9863 254.653L14.5283 249.336H19.9922V250.588H15.6782L15.356 253.496C15.8784 253.188 16.4717 253.035 17.1357 253.035C18.1074 253.035 18.8789 253.357 19.4502 254.001C20.0215 254.641 20.3071 255.508 20.3071 256.602C20.3071 257.7 20.0093 258.567 19.4136 259.202C18.8228 259.832 17.9951 260.146 16.9307 260.146C15.9883 260.146 15.2192 259.885 14.6235 259.363C14.0278 258.84 13.6885 258.118 13.6055 257.195H14.8872C14.9702 257.805 15.1875 258.267 15.5391 258.579C15.8906 258.887 16.3545 259.041 16.9307 259.041C17.5605 259.041 18.0537 258.826 18.4102 258.396C18.7715 257.966 18.9521 257.373 18.9521 256.616C18.9521 255.903 18.7568 255.332 18.3662 254.902C17.9805 254.468 17.4653 254.25 16.8208 254.25C16.23 254.25 15.7661 254.38 15.4292 254.639L15.0703 254.932L13.9863 254.653ZM13.8618 290.452C13.8618 292.039 13.5908 293.218 13.0488 293.989C12.5068 294.761 11.6597 295.146 10.5073 295.146C9.36963 295.146 8.52734 294.771 7.98047 294.019C7.43359 293.262 7.15039 292.134 7.13086 290.635V288.826C7.13086 287.258 7.40186 286.094 7.94385 285.332C8.48584 284.57 9.33545 284.189 10.4927 284.189C11.6401 284.189 12.4849 284.558 13.0269 285.295C13.5688 286.028 13.8472 287.161 13.8618 288.694V290.452ZM12.5068 288.599C12.5068 287.451 12.3457 286.616 12.0234 286.094C11.7012 285.566 11.1909 285.303 10.4927 285.303C9.79932 285.303 9.29395 285.564 8.97656 286.086C8.65918 286.609 8.49561 287.412 8.48584 288.496V290.664C8.48584 291.816 8.65186 292.668 8.98389 293.22C9.3208 293.767 9.82861 294.041 10.5073 294.041C11.1763 294.041 11.6719 293.782 11.9941 293.264C12.3213 292.747 12.4922 291.931 12.5068 290.818V288.599Z" transform="translate(174 47)" fill="black"/>
<path d="M6.02051 11.1509C6.12305 10.5698 5.8374 10.1255 5.16357 9.81787L3.75 9.25391C2.10938 8.52148 1.33057 7.51318 1.41357 6.229C1.44775 5.6333 1.64307 5.10596 1.99951 4.64697C2.35596 4.18799 2.85645 3.8291 3.50098 3.57031C4.14551 3.30664 4.84131 3.17969 5.58838 3.18945C6.61865 3.20898 7.45117 3.5166 8.08594 4.1123C8.7207 4.70313 9.0332 5.49658 9.02344 6.49268H6.88477C6.90918 6.00928 6.80176 5.6333 6.5625 5.36475C6.32812 5.09619 5.96191 4.95703 5.46387 4.94727C4.97559 4.9375 4.55078 5.0498 4.18945 5.28418C3.82812 5.51367 3.61328 5.83105 3.54492 6.23633C3.45215 6.76855 3.80859 7.19092 4.61426 7.50342L5.58105 7.86963L6.1377 8.12598C7.57812 8.83887 8.25195 9.83984 8.15918 11.1289C8.11523 11.7588 7.9126 12.3032 7.55127 12.7622C7.19482 13.2163 6.70654 13.5654 6.08643 13.8096C5.47119 14.0537 4.79248 14.1685 4.05029 14.1538C3.29346 14.1392 2.61963 13.9805 2.02881 13.6777C1.43799 13.375 0.98877 12.9478 0.681152 12.396C0.393066 11.8833 0.258789 11.2974 0.27832 10.6382L2.42432 10.6455C2.35596 11.8027 2.9248 12.3911 4.13086 12.4106C4.65332 12.4106 5.08301 12.2959 5.41992 12.0664C5.75684 11.8369 5.95703 11.5317 6.02051 11.1509ZM13.6304 14C13.5669 13.7998 13.54 13.5605 13.5498 13.2822C12.9541 13.8779 12.2803 14.166 11.5283 14.1465C10.835 14.1367 10.2588 13.9121 9.7998 13.4727C9.3457 13.0283 9.1333 12.4814 9.1626 11.832C9.19678 10.9678 9.55811 10.3062 10.2466 9.84717C10.9399 9.3833 11.8677 9.15137 13.0298 9.15137L13.9966 9.16602L14.0991 8.68994C14.1284 8.52881 14.1357 8.375 14.1211 8.22852C14.0967 7.99902 14.0088 7.8208 13.8574 7.69385C13.7109 7.56201 13.5156 7.49365 13.2715 7.48877C12.9492 7.479 12.6758 7.55957 12.4512 7.73047C12.2266 7.89648 12.0825 8.13818 12.019 8.45557L9.94629 8.46289C9.98047 7.70605 10.3271 7.09326 10.9863 6.62451C11.6504 6.15088 12.4683 5.91895 13.4399 5.92871C14.3384 5.94824 15.0415 6.2168 15.5493 6.73438C16.0571 7.24707 16.2695 7.90869 16.1865 8.71924L15.5786 12.5132L15.542 12.9819C15.5322 13.3286 15.5737 13.6216 15.6665 13.8608L15.6592 14H13.6304ZM12.041 12.5425C12.6367 12.562 13.1567 12.3032 13.6011 11.7661L13.8574 10.3965L13.1396 10.3892C12.3779 10.4087 11.8286 10.6406 11.4917 11.085C11.3696 11.2461 11.2939 11.4438 11.2646 11.6782C11.2256 11.9419 11.2793 12.1519 11.4258 12.3081C11.5771 12.4595 11.7822 12.5376 12.041 12.5425ZM20.2222 6.06787L20.0537 6.96875C20.6934 6.25586 21.4673 5.90918 22.3755 5.92871C22.8638 5.93848 23.269 6.05078 23.5913 6.26562C23.9136 6.48047 24.1309 6.771 24.2432 7.13721C24.9414 6.31201 25.7617 5.90918 26.7041 5.92871C27.4316 5.94336 27.9785 6.19238 28.3447 6.67578C28.7158 7.15918 28.8721 7.85742 28.8135 8.77051L28.7988 8.95361L27.9565 14H25.8838L26.7261 8.93896C26.7456 8.7583 26.7529 8.58984 26.748 8.43359C26.7139 7.9209 26.4209 7.65723 25.8691 7.64258C25.3027 7.64258 24.8169 7.94531 24.4116 8.55078L24.3896 8.71924L23.4668 14H21.4014L22.2437 8.95361C22.2632 8.77295 22.2705 8.60449 22.2656 8.44824C22.2314 7.93066 21.9409 7.66455 21.394 7.6499C20.8716 7.63525 20.4004 7.88184 19.9805 8.38965L18.9917 14H16.9263L18.2959 6.0752L20.2222 6.06787ZM37.207 10.0596C37.1045 10.8896 36.8872 11.627 36.5552 12.2715C36.2231 12.916 35.8105 13.3945 35.3174 13.707C34.8242 14.0195 34.2773 14.1685 33.6768 14.1538C32.9102 14.1343 32.3047 13.8486 31.8604 13.2969L31.1353 17.0469H29.0698L30.9668 6.0752L32.8711 6.06787L32.7319 6.86621C33.3032 6.22168 33.9771 5.90918 34.7534 5.92871C35.5298 5.94824 36.1328 6.23145 36.5625 6.77832C36.9922 7.32031 37.2217 8.05762 37.251 8.99023C37.2607 9.29297 37.2461 9.64941 37.207 10.0596ZM35.1562 9.90576L35.2002 9.20264C35.21 8.729 35.1221 8.35303 34.9365 8.07471C34.7559 7.79639 34.4897 7.65234 34.1382 7.64258C33.5376 7.62305 33.042 7.87695 32.6514 8.4043L32.0581 11.6709C32.2388 12.1641 32.627 12.4204 33.2227 12.4399C33.7207 12.4546 34.1357 12.2617 34.4678 11.8613C34.7998 11.4609 35.0293 10.8091 35.1562 9.90576ZM40.0415 14H37.9614L39.917 2.75H41.9897L40.0415 14ZM45.564 14.1465C44.8706 14.1416 44.2554 13.9731 43.7183 13.6411C43.186 13.3042 42.7881 12.8452 42.5244 12.2642C42.2607 11.6782 42.1582 11.0337 42.2168 10.3306L42.2388 10.0376C42.312 9.26611 42.5366 8.55811 42.9126 7.91357C43.2886 7.26904 43.772 6.77344 44.3628 6.42676C44.9536 6.0752 45.6079 5.90918 46.3257 5.92871C47.3462 5.94824 48.1177 6.32422 48.6401 7.05664C49.1675 7.78418 49.3677 8.70703 49.2407 9.8252L49.1235 10.7261H44.2676C44.248 11.2388 44.3726 11.6489 44.6411 11.9565C44.9097 12.2642 45.2759 12.4229 45.7397 12.4326C46.4917 12.4521 47.1509 12.1616 47.7173 11.561L48.6621 12.7329C48.3643 13.1821 47.9346 13.5337 47.373 13.7876C46.8115 14.0366 46.2085 14.1562 45.564 14.1465ZM46.2231 7.63525C45.8423 7.62549 45.5029 7.74512 45.2051 7.99414C44.9121 8.24316 44.6484 8.67529 44.4141 9.29053H47.2559L47.2998 9.1001C47.3291 8.90479 47.3315 8.71924 47.3071 8.54346C47.2583 8.26025 47.1387 8.04053 46.9482 7.88428C46.7578 7.72314 46.5161 7.64014 46.2231 7.63525Z" transform="translate(6 11)" fill="black"/>
<line y1="-0.5" x2="62" y2="-0.5" transform="translate(0 38)" stroke="black"/>
<line y1="-0.5" x2="62" y2="-0.5" transform="translate(153 359)" stroke="black"/>
<line y1="-0.5" x2="110" y2="-0.5" transform="translate(129 38)" stroke="black"/>
<path d="M6.19141 11.1509C6.29395 10.5698 6.0083 10.1255 5.33447 9.81787L3.9209 9.25391C2.28027 8.52148 1.50146 7.51318 1.58447 6.229C1.61865 5.6333 1.81396 5.10596 2.17041 4.64697C2.52686 4.18799 3.02734 3.8291 3.67188 3.57031C4.31641 3.30664 5.01221 3.17969 5.75928 3.18945C6.78955 3.20898 7.62207 3.5166 8.25684 4.1123C8.8916 4.70313 9.2041 5.49658 9.19434 6.49268H7.05566C7.08008 6.00928 6.97266 5.6333 6.7334 5.36475C6.49902 5.09619 6.13281 4.95703 5.63477 4.94727C5.14648 4.9375 4.72168 5.0498 4.36035 5.28418C3.99902 5.51367 3.78418 5.83105 3.71582 6.23633C3.62305 6.76855 3.97949 7.19092 4.78516 7.50342L5.75195 7.86963L6.30859 8.12598C7.74902 8.83887 8.42285 9.83984 8.33008 11.1289C8.28613 11.7588 8.0835 12.3032 7.72217 12.7622C7.36572 13.2163 6.87744 13.5654 6.25732 13.8096C5.64209 14.0537 4.96338 14.1685 4.22119 14.1538C3.46436 14.1392 2.79053 13.9805 2.19971 13.6777C1.60889 13.375 1.15967 12.9478 0.852051 12.396C0.563965 11.8833 0.429688 11.2974 0.449219 10.6382L2.59521 10.6455C2.52686 11.8027 3.0957 12.3911 4.30176 12.4106C4.82422 12.4106 5.25391 12.2959 5.59082 12.0664C5.92773 11.8369 6.12793 11.5317 6.19141 11.1509ZM13.8013 14C13.7378 13.7998 13.7109 13.5605 13.7207 13.2822C13.125 13.8779 12.4512 14.166 11.6992 14.1465C11.0059 14.1367 10.4297 13.9121 9.9707 13.4727C9.5166 13.0283 9.3042 12.4814 9.3335 11.832C9.36768 10.9678 9.729 10.3062 10.4175 9.84717C11.1108 9.3833 12.0386 9.15137 13.2007 9.15137L14.1675 9.16602L14.27 8.68994C14.2993 8.52881 14.3066 8.375 14.292 8.22852C14.2676 7.99902 14.1797 7.8208 14.0283 7.69385C13.8818 7.56201 13.6865 7.49365 13.4424 7.48877C13.1201 7.479 12.8467 7.55957 12.6221 7.73047C12.3975 7.89648 12.2534 8.13818 12.1899 8.45557L10.1172 8.46289C10.1514 7.70605 10.498 7.09326 11.1572 6.62451C11.8213 6.15088 12.6392 5.91895 13.6108 5.92871C14.5093 5.94824 15.2124 6.2168 15.7202 6.73438C16.228 7.24707 16.4404 7.90869 16.3574 8.71924L15.7495 12.5132L15.7129 12.9819C15.7031 13.3286 15.7446 13.6216 15.8374 13.8608L15.8301 14H13.8013ZM12.2119 12.5425C12.8076 12.562 13.3276 12.3032 13.772 11.7661L14.0283 10.3965L13.3105 10.3892C12.5488 10.4087 11.9995 10.6406 11.6626 11.085C11.5405 11.2461 11.4648 11.4438 11.4355 11.6782C11.3965 11.9419 11.4502 12.1519 11.5967 12.3081C11.748 12.4595 11.9531 12.5376 12.2119 12.5425ZM20.3931 6.06787L20.2246 6.96875C20.8643 6.25586 21.6382 5.90918 22.5464 5.92871C23.0347 5.93848 23.4399 6.05078 23.7622 6.26562C24.0845 6.48047 24.3018 6.771 24.4141 7.13721C25.1123 6.31201 25.9326 5.90918 26.875 5.92871C27.6025 5.94336 28.1494 6.19238 28.5156 6.67578C28.8867 7.15918 29.043 7.85742 28.9844 8.77051L28.9697 8.95361L28.1274 14H26.0547L26.897 8.93896C26.9165 8.7583 26.9238 8.58984 26.9189 8.43359C26.8848 7.9209 26.5918 7.65723 26.04 7.64258C25.4736 7.64258 24.9878 7.94531 24.5825 8.55078L24.5605 8.71924L23.6377 14H21.5723L22.4146 8.95361C22.4341 8.77295 22.4414 8.60449 22.4365 8.44824C22.4023 7.93066 22.1118 7.66455 21.5649 7.6499C21.0425 7.63525 20.5713 7.88184 20.1514 8.38965L19.1626 14H17.0972L18.4668 6.0752L20.3931 6.06787ZM37.3779 10.0596C37.2754 10.8896 37.0581 11.627 36.7261 12.2715C36.394 12.916 35.9814 13.3945 35.4883 13.707C34.9951 14.0195 34.4482 14.1685 33.8477 14.1538C33.0811 14.1343 32.4756 13.8486 32.0312 13.2969L31.3062 17.0469H29.2407L31.1377 6.0752L33.042 6.06787L32.9028 6.86621C33.4741 6.22168 34.1479 5.90918 34.9243 5.92871C35.7007 5.94824 36.3037 6.23145 36.7334 6.77832C37.1631 7.32031 37.3926 8.05762 37.4219 8.99023C37.4316 9.29297 37.417 9.64941 37.3779 10.0596ZM35.3271 9.90576L35.3711 9.20264C35.3809 8.729 35.293 8.35303 35.1074 8.07471C34.9268 7.79639 34.6606 7.65234 34.3091 7.64258C33.7085 7.62305 33.2129 7.87695 32.8223 8.4043L32.229 11.6709C32.4097 12.1641 32.7979 12.4204 33.3936 12.4399C33.8916 12.4546 34.3066 12.2617 34.6387 11.8613C34.9707 11.4609 35.2002 10.8091 35.3271 9.90576ZM40.2124 14H38.1323L40.0879 2.75H42.1606L40.2124 14ZM45.7349 14.1465C45.0415 14.1416 44.4263 13.9731 43.8892 13.6411C43.3569 13.3042 42.959 12.8452 42.6953 12.2642C42.4316 11.6782 42.3291 11.0337 42.3877 10.3306L42.4097 10.0376C42.4829 9.26611 42.7075 8.55811 43.0835 7.91357C43.4595 7.26904 43.9429 6.77344 44.5337 6.42676C45.1245 6.0752 45.7788 5.90918 46.4966 5.92871C47.5171 5.94824 48.2886 6.32422 48.811 7.05664C49.3384 7.78418 49.5386 8.70703 49.4116 9.8252L49.2944 10.7261H44.4385C44.4189 11.2388 44.5435 11.6489 44.812 11.9565C45.0806 12.2642 45.4468 12.4229 45.9106 12.4326C46.6626 12.4521 47.3218 12.1616 47.8882 11.561L48.833 12.7329C48.5352 13.1821 48.1055 13.5337 47.5439 13.7876C46.9824 14.0366 46.3794 14.1562 45.7349 14.1465ZM46.394 7.63525C46.0132 7.62549 45.6738 7.74512 45.376 7.99414C45.083 8.24316 44.8193 8.67529 44.585 9.29053H47.4268L47.4707 9.1001C47.5 8.90479 47.5024 8.71924 47.478 8.54346C47.4292 8.26025 47.3096 8.04053 47.1191 7.88428C46.9287 7.72314 46.687 7.64014 46.394 7.63525ZM56.9482 11.3853L59.2041 6.0752H61.4307L57.6001 14H55.6226L54.2676 6.0752H56.3623L56.9482 11.3853ZM65.5103 14C65.4468 13.7998 65.4199 13.5605 65.4297 13.2822C64.834 13.8779 64.1602 14.166 63.4082 14.1465C62.7148 14.1367 62.1387 13.9121 61.6797 13.4727C61.2256 13.0283 61.0132 12.4814 61.0425 11.832C61.0767 10.9678 61.438 10.3062 62.1265 9.84717C62.8198 9.3833 63.7476 9.15137 64.9097 9.15137L65.8765 9.16602L65.979 8.68994C66.0083 8.52881 66.0156 8.375 66.001 8.22852C65.9766 7.99902 65.8887 7.8208 65.7373 7.69385C65.5908 7.56201 65.3955 7.49365 65.1514 7.48877C64.8291 7.479 64.5557 7.55957 64.3311 7.73047C64.1064 7.89648 63.9624 8.13818 63.8989 8.45557L61.8262 8.46289C61.8604 7.70605 62.207 7.09326 62.8662 6.62451C63.5303 6.15088 64.3481 5.91895 65.3198 5.92871C66.2183 5.94824 66.9214 6.2168 67.4292 6.73438C67.937 7.24707 68.1494 7.90869 68.0664 8.71924L67.4585 12.5132L67.4219 12.9819C67.4121 13.3286 67.4536 13.6216 67.5464 13.8608L67.5391 14H65.5103ZM63.9209 12.5425C64.5166 12.562 65.0366 12.3032 65.481 11.7661L65.7373 10.3965L65.0195 10.3892C64.2578 10.4087 63.7085 10.6406 63.3716 11.085C63.2495 11.2461 63.1738 11.4438 63.1445 11.6782C63.1055 11.9419 63.1592 12.1519 63.3057 12.3081C63.457 12.4595 63.6621 12.5376 63.9209 12.5425ZM74.2334 8.06006C73.9502 8.01123 73.7183 7.98682 73.5376 7.98682C72.8003 7.96729 72.2168 8.24316 71.7871 8.81445L70.8716 14H68.8062L70.1831 6.0752L72.124 6.06787L71.9336 7.03467C72.4316 6.2876 73.0469 5.91406 73.7793 5.91406C73.9844 5.91406 74.2236 5.94824 74.4971 6.0166L74.2334 8.06006ZM76.3794 14H74.2993L75.6763 6.0752H77.7563L76.3794 14ZM75.918 4.06104C75.9082 3.73389 76.0156 3.46289 76.2402 3.24805C76.4648 3.0332 76.7358 2.92578 77.0532 2.92578C77.3657 2.91602 77.6367 3.01123 77.8662 3.21143C78.0957 3.41162 78.2153 3.67041 78.2251 3.98779C78.2349 4.29053 78.1323 4.5542 77.9175 4.77881C77.7075 5.00342 77.4316 5.12061 77.0898 5.13037C76.7822 5.14014 76.5112 5.04736 76.2769 4.85205C76.0474 4.65674 75.9277 4.39307 75.918 4.06104ZM82.7222 14C82.6587 13.7998 82.6318 13.5605 82.6416 13.2822C82.0459 13.8779 81.3721 14.166 80.6201 14.1465C79.9268 14.1367 79.3506 13.9121 78.8916 13.4727C78.4375 13.0283 78.2251 12.4814 78.2544 11.832C78.2886 10.9678 78.6499 10.3062 79.3384 9.84717C80.0317 9.3833 80.9595 9.15137 82.1216 9.15137L83.0884 9.16602L83.1909 8.68994C83.2202 8.52881 83.2275 8.375 83.2129 8.22852C83.1885 7.99902 83.1006 7.8208 82.9492 7.69385C82.8027 7.56201 82.6074 7.49365 82.3633 7.48877C82.041 7.479 81.7676 7.55957 81.543 7.73047C81.3184 7.89648 81.1743 8.13818 81.1108 8.45557L79.0381 8.46289C79.0723 7.70605 79.4189 7.09326 80.0781 6.62451C80.7422 6.15088 81.5601 5.91895 82.5317 5.92871C83.4302 5.94824 84.1333 6.2168 84.6411 6.73438C85.1489 7.24707 85.3613 7.90869 85.2783 8.71924L84.6704 12.5132L84.6338 12.9819C84.624 13.3286 84.6655 13.6216 84.7583 13.8608L84.751 14H82.7222ZM81.1328 12.5425C81.7285 12.562 82.2485 12.3032 82.6929 11.7661L82.9492 10.3965L82.2314 10.3892C81.4697 10.4087 80.9204 10.6406 80.5835 11.085C80.4614 11.2461 80.3857 11.4438 80.3564 11.6782C80.3174 11.9419 80.3711 12.1519 80.5176 12.3081C80.6689 12.4595 80.874 12.5376 81.1328 12.5425ZM89.2847 6.06787L89.1089 7.00537C89.7437 6.26807 90.5127 5.90918 91.416 5.92871C92.1631 5.94336 92.7148 6.2168 93.0713 6.74902C93.4277 7.28125 93.5571 8.01855 93.4595 8.96094L92.6245 14H90.5591L91.4087 8.93896C91.4331 8.74854 91.438 8.5752 91.4233 8.41895C91.3599 7.9209 91.0474 7.66455 90.4858 7.6499C89.9438 7.63037 89.458 7.88184 89.0283 8.4043L88.0396 14H85.9741L87.3511 6.0752L89.2847 6.06787ZM97.7222 12.4473C98.103 12.457 98.4204 12.3545 98.6743 12.1396C98.9282 11.9199 99.0942 11.6294 99.1724 11.2681L101.113 11.2607C101.079 11.8174 100.903 12.3179 100.586 12.7622C100.273 13.2065 99.8535 13.5532 99.3262 13.8022C98.8037 14.0513 98.252 14.1685 97.6709 14.1538C96.709 14.1392 95.9473 13.8071 95.3857 13.1577C94.8242 12.5083 94.5532 11.644 94.5728 10.5649L94.5947 10.1621L94.6021 10.0815C94.7339 8.79248 95.1685 7.77197 95.9058 7.02002C96.6431 6.26318 97.5537 5.89941 98.6377 5.92871C99.5312 5.94824 100.239 6.24121 100.762 6.80762C101.289 7.36914 101.548 8.11133 101.538 9.03418H99.6118C99.6118 8.60938 99.519 8.2749 99.3335 8.03076C99.1479 7.78662 98.8696 7.65479 98.4985 7.63525C97.5122 7.60596 96.9141 8.32617 96.7041 9.7959C96.6309 10.3281 96.604 10.7773 96.6235 11.1436C96.6724 11.998 97.0386 12.4326 97.7222 12.4473ZM105.676 14.1465C104.983 14.1416 104.368 13.9731 103.831 13.6411C103.298 13.3042 102.9 12.8452 102.637 12.2642C102.373 11.6782 102.271 11.0337 102.329 10.3306L102.351 10.0376C102.424 9.26611 102.649 8.55811 103.025 7.91357C103.401 7.26904 103.884 6.77344 104.475 6.42676C105.066 6.0752 105.72 5.90918 106.438 5.92871C107.458 5.94824 108.23 6.32422 108.752 7.05664C109.28 7.78418 109.48 8.70703 109.353 9.8252L109.236 10.7261H104.38C104.36 11.2388 104.485 11.6489 104.753 11.9565C105.022 12.2642 105.388 12.4229 105.852 12.4326C106.604 12.4521 107.263 12.1616 107.83 11.561L108.774 12.7329C108.477 13.1821 108.047 13.5337 107.485 13.7876C106.924 14.0366 106.321 14.1562 105.676 14.1465ZM106.335 7.63525C105.955 7.62549 105.615 7.74512 105.317 7.99414C105.024 8.24316 104.761 8.67529 104.526 9.29053H107.368L107.412 9.1001C107.441 8.90479 107.444 8.71924 107.419 8.54346C107.371 8.26025 107.251 8.04053 107.061 7.88428C106.87 7.72314 106.628 7.64014 106.335 7.63525ZM15.7935 26.6934C16.0278 24.9502 16.5479 23.3926 17.3535 22.0205C18.1641 20.6436 19.1797 19.6841 20.4004 19.1421L20.752 20.3213C19.082 21.5957 18.0249 23.644 17.5806 26.4663C17.4292 27.4233 17.3486 28.2827 17.3389 29.0444C17.3145 31.0513 17.7734 32.4453 18.7158 33.2266L18.2544 34.3325C17.1997 33.7466 16.4624 32.7334 16.0425 31.293C15.7642 30.3262 15.6396 29.291 15.6689 28.1875C15.6787 27.7236 15.7104 27.2842 15.7642 26.8691L15.7935 26.6934ZM25.0146 30.1797C24.4287 30.8389 23.7012 31.1611 22.832 31.1465C22.0703 31.1367 21.4941 30.8633 21.1035 30.3262C20.7129 29.7891 20.5615 29.0811 20.6494 28.2021L21.5063 23.0752H23.5718L22.7002 28.2241C22.6807 28.3853 22.6782 28.5366 22.6929 28.6782C22.7417 29.1665 23.0127 29.418 23.5059 29.4326C24.1455 29.4521 24.6753 29.2056 25.0952 28.6929L26.084 23.0752H28.1641L26.7871 31H24.8608L25.0146 30.1797ZM32.9175 28.7661C32.9956 28.3755 32.7246 28.0923 32.1045 27.9165L31.438 27.748C29.8608 27.3135 29.0942 26.5469 29.1382 25.4482C29.1626 24.7012 29.4922 24.0933 30.127 23.6245C30.7666 23.1509 31.5356 22.9189 32.4341 22.9287C33.3276 22.9385 34.0503 23.1753 34.6021 23.6392C35.1538 24.103 35.4346 24.7207 35.4443 25.4922L33.3936 25.4849C33.4033 24.8062 33.0664 24.4619 32.3828 24.4521C32.0605 24.4521 31.7798 24.5327 31.5405 24.6938C31.3062 24.855 31.1621 25.0723 31.1084 25.3457C31.0352 25.7363 31.3306 26.0122 31.9946 26.1733L32.2876 26.2393C32.9614 26.4004 33.4766 26.5859 33.833 26.7959C34.1895 27.001 34.4629 27.2573 34.6533 27.5649C34.8486 27.8726 34.939 28.2412 34.9243 28.6709C34.9097 29.1738 34.7461 29.6133 34.4336 29.9893C34.126 30.3652 33.7012 30.6558 33.1592 30.8608C32.6221 31.0659 32.0557 31.1611 31.46 31.1465C30.5811 31.1367 29.8486 30.8853 29.2627 30.3921C28.6768 29.894 28.3789 29.252 28.3691 28.4658L30.3174 28.4805C30.3369 29.2373 30.7422 29.6206 31.5332 29.6304C31.9141 29.6304 32.2266 29.5522 32.4707 29.396C32.7197 29.2397 32.8687 29.0298 32.9175 28.7661ZM38.0664 31H35.9863L37.3633 23.0752H39.4434L38.0664 31ZM37.605 21.061C37.5952 20.7339 37.7026 20.4629 37.9272 20.248C38.1519 20.0332 38.4229 19.9258 38.7402 19.9258C39.0527 19.916 39.3237 20.0112 39.5532 20.2114C39.7827 20.4116 39.9023 20.6704 39.9121 20.9878C39.9219 21.2905 39.8193 21.5542 39.6045 21.7788C39.3945 22.0034 39.1187 22.1206 38.7769 22.1304C38.4692 22.1401 38.1982 22.0474 37.9639 21.8521C37.7344 21.6567 37.6147 21.3931 37.605 21.061ZM43.0908 23.0679L42.915 24.0054C43.5498 23.2681 44.3188 22.9092 45.2222 22.9287C45.9692 22.9434 46.521 23.2168 46.8774 23.749C47.2339 24.2812 47.3633 25.0186 47.2656 25.9609L46.4307 31H44.3652L45.2148 25.939C45.2393 25.7485 45.2441 25.5752 45.2295 25.4189C45.166 24.9209 44.8535 24.6646 44.292 24.6499C43.75 24.6304 43.2642 24.8818 42.8345 25.4043L41.8457 31H39.7803L41.1572 23.0752L43.0908 23.0679ZM48.4521 27.0303C48.5986 25.8047 48.9966 24.811 49.646 24.0493C50.3003 23.2827 51.123 22.9067 52.1143 22.9214C52.959 22.9409 53.5889 23.2461 54.0039 23.8369L54.2749 23.0679L56.1719 23.0752L54.8755 30.729C54.7339 31.7837 54.2847 32.6187 53.5278 33.2339C52.771 33.8491 51.8335 34.147 50.7153 34.1274C50.1685 34.1177 49.646 33.998 49.1479 33.7686C48.6499 33.5439 48.2397 33.2339 47.9175 32.8384L48.9429 31.5786C49.4019 32.1597 49.978 32.46 50.6714 32.4795C51.2085 32.499 51.6675 32.3574 52.0483 32.0547C52.4292 31.7568 52.688 31.3345 52.8247 30.7876L52.9419 30.3115C52.3657 30.8877 51.7188 31.166 51.001 31.1465C50.2295 31.1367 49.6167 30.8511 49.1626 30.2896C48.7085 29.7231 48.4595 28.9883 48.4155 28.085C48.4009 27.7871 48.4131 27.4355 48.4521 27.0303ZM50.481 27.8945C50.481 28.3535 50.5762 28.7222 50.7666 29.0005C50.9619 29.2739 51.2427 29.418 51.6089 29.4326C52.1704 29.4521 52.6685 29.2129 53.103 28.7148L53.7183 25.3604C53.5083 24.9014 53.1201 24.6621 52.5537 24.6426C52.0264 24.6279 51.5796 24.8403 51.2134 25.2798C50.8472 25.7192 50.6177 26.3027 50.5249 27.0303C50.4907 27.3867 50.4761 27.6748 50.481 27.8945ZM63.4082 23.0679L63.2324 24.0054C63.8672 23.2681 64.6362 22.9092 65.5396 22.9287C66.2866 22.9434 66.8384 23.2168 67.1948 23.749C67.5513 24.2812 67.6807 25.0186 67.583 25.9609L66.748 31H64.6826L65.5322 25.939C65.5566 25.7485 65.5615 25.5752 65.5469 25.4189C65.4834 24.9209 65.1709 24.6646 64.6094 24.6499C64.0674 24.6304 63.5815 24.8818 63.1519 25.4043L62.1631 31H60.0977L61.4746 23.0752L63.4082 23.0679ZM76.731 27.2866H72.7173L73.0103 25.5801H77.0312L76.731 27.2866ZM86.4136 31H84.3481L85.7544 22.8848L83.1616 23.6685L83.4839 21.8594L87.937 20.3213L88.208 20.314L86.4136 31ZM89.4897 34.3545L89.1382 33.1973C90.813 31.9033 91.8701 29.833 92.3096 26.9863C92.4512 26.0732 92.5269 25.231 92.5366 24.4595C92.561 22.4526 92.1069 21.0562 91.1743 20.27L91.6357 19.1641C92.2119 19.4766 92.7051 19.9331 93.1152 20.5337C93.5303 21.1294 93.8354 21.8496 94.0308 22.6943C94.231 23.5391 94.3262 24.4082 94.3164 25.3018C94.2871 26.6592 94.0527 27.98 93.6133 29.2642C93.1738 30.5435 92.5977 31.6177 91.8848 32.4868C91.1768 33.356 90.3784 33.9785 89.4897 34.3545Z" transform="translate(129 -2)" fill="black"/>
<path d="M22.3413 3.33594L24.209 12.0225L29.1016 3.33594H30.9106L29.0576 14H27.688L28.4204 9.78125L29.292 5.48926L24.458 14H23.4033L21.499 5.3208L20.8398 9.92041L20.1294 14H18.7524L20.6055 3.33594H22.3413ZM34.7485 14.1465C33.7622 14.127 32.9907 13.7632 32.4341 13.0552C31.8774 12.3472 31.6431 11.4414 31.731 10.3379L31.7676 10.0229C31.8506 9.23682 32.0825 8.51904 32.4634 7.86963C32.8491 7.22021 33.3179 6.73193 33.8696 6.40479C34.4214 6.07275 35.0171 5.91406 35.6567 5.92871C36.4722 5.94824 37.1118 6.21924 37.5757 6.7417C38.0396 7.26416 38.2935 7.97217 38.3374 8.86572C38.3521 9.18311 38.3423 9.50049 38.3081 9.81787L38.2275 10.4258H33.0493C32.9614 11.1436 33.0786 11.7539 33.4009 12.2568C33.728 12.7598 34.2139 13.021 34.8584 13.0405C35.6396 13.0601 36.3623 12.7085 37.0264 11.9858L37.7881 12.6304C37.4561 13.1089 37.0264 13.4849 36.499 13.7583C35.9766 14.0269 35.3931 14.1562 34.7485 14.1465ZM35.5908 7.03467C35.0439 7.02002 34.5654 7.20557 34.1553 7.59131C33.75 7.97705 33.4277 8.55078 33.1885 9.3125L37.041 9.31982L37.0703 9.20264C37.1484 8.5874 37.0483 8.07715 36.77 7.67188C36.4966 7.26172 36.1035 7.04932 35.5908 7.03467ZM43.9478 14C43.9136 13.8584 43.8965 13.7192 43.8965 13.5825L43.9185 13.165C43.1909 13.8389 42.4194 14.166 41.604 14.1465C40.9058 14.1367 40.3369 13.917 39.8975 13.4873C39.4629 13.0527 39.2651 12.5107 39.3042 11.8613C39.353 11.0215 39.7192 10.3672 40.4028 9.89844C41.0913 9.4248 41.9946 9.18799 43.1128 9.18799L44.4971 9.19531L44.585 8.56543C44.6338 8.0918 44.541 7.71826 44.3066 7.44482C44.0771 7.1665 43.7305 7.02246 43.2666 7.0127C42.8125 7.00293 42.4097 7.11523 42.0581 7.34961C41.7114 7.5791 41.499 7.88428 41.4209 8.26514L40.0879 8.27246C40.1318 7.80859 40.3125 7.39844 40.6299 7.04199C40.9473 6.68066 41.355 6.40234 41.853 6.20703C42.3511 6.00684 42.8662 5.91162 43.3984 5.92139C44.2236 5.94092 44.8657 6.19238 45.3247 6.67578C45.7837 7.1543 45.9766 7.7915 45.9033 8.5874L45.2588 12.5132L45.2222 13.0771C45.2124 13.3457 45.2417 13.6118 45.3101 13.8755L45.2954 14H43.9478ZM41.8677 12.9746C42.2925 12.9844 42.6929 12.8843 43.0688 12.6743C43.4497 12.4595 43.7769 12.1641 44.0503 11.7881L44.3359 10.1548L43.3325 10.1475C42.4976 10.1475 41.8579 10.2793 41.4136 10.543C40.9692 10.8066 40.7178 11.1802 40.6592 11.6636C40.6152 12.0347 40.7007 12.3447 40.9155 12.5938C41.1353 12.8379 41.4526 12.9648 41.8677 12.9746ZM49.7266 6.06787L49.5361 7.07129C50.249 6.29004 51.0596 5.90918 51.9678 5.92871C52.7148 5.94824 53.2666 6.20703 53.623 6.70508C53.9795 7.20312 54.1113 7.90381 54.0186 8.80713L53.1543 14H51.8286L52.7002 8.78516C52.7295 8.5459 52.7319 8.32373 52.7075 8.11865C52.6245 7.43506 52.2217 7.08594 51.499 7.07129C50.7031 7.05664 50.0049 7.48145 49.4043 8.3457L48.4229 14H47.0972L48.4741 6.0752L49.7266 6.06787ZM63.7817 11.854C63.855 11.3071 63.5547 10.9214 62.8809 10.6968L61.5039 10.2939C60.3418 9.89355 59.7803 9.22949 59.8193 8.30176C59.8535 7.60352 60.1709 7.03223 60.7715 6.58789C61.377 6.13867 62.0874 5.91895 62.9028 5.92871C63.7036 5.93848 64.353 6.17285 64.8511 6.63184C65.354 7.08594 65.5957 7.6792 65.5762 8.41162L64.2578 8.4043C64.2676 8.00879 64.1431 7.68652 63.8843 7.4375C63.6255 7.18848 63.2812 7.05908 62.8516 7.04932C62.3926 7.03955 61.9971 7.15186 61.665 7.38623C61.3574 7.60596 61.1792 7.89404 61.1304 8.25049C61.0669 8.70947 61.3477 9.04395 61.9727 9.25391L62.6392 9.43701C63.5474 9.67139 64.1919 9.97656 64.5728 10.3525C64.9536 10.7285 65.1294 11.1948 65.1001 11.7515C65.0708 12.2446 64.9097 12.6743 64.6167 13.0405C64.3237 13.4067 63.9331 13.6875 63.4448 13.8828C62.9565 14.0732 62.4365 14.1611 61.8848 14.1465C61.0449 14.1367 60.3516 13.8926 59.8047 13.4141C59.2578 12.9307 58.9941 12.3105 59.0137 11.5537L60.3394 11.561C60.3394 12.0054 60.481 12.3618 60.7642 12.6304C61.0474 12.8989 61.4355 13.0332 61.9287 13.0332C62.4121 13.043 62.8296 12.9429 63.1812 12.7329C63.5327 12.5181 63.7329 12.2251 63.7817 11.854ZM71.2964 14C71.2622 13.8584 71.2451 13.7192 71.2451 13.5825L71.2671 13.165C70.5396 13.8389 69.7681 14.166 68.9526 14.1465C68.2544 14.1367 67.6855 13.917 67.2461 13.4873C66.8115 13.0527 66.6138 12.5107 66.6528 11.8613C66.7017 11.0215 67.0679 10.3672 67.7515 9.89844C68.4399 9.4248 69.3433 9.18799 70.4614 9.18799L71.8457 9.19531L71.9336 8.56543C71.9824 8.0918 71.8896 7.71826 71.6553 7.44482C71.4258 7.1665 71.0791 7.02246 70.6152 7.0127C70.1611 7.00293 69.7583 7.11523 69.4067 7.34961C69.0601 7.5791 68.8477 7.88428 68.7695 8.26514L67.4365 8.27246C67.4805 7.80859 67.6611 7.39844 67.9785 7.04199C68.2959 6.68066 68.7036 6.40234 69.2017 6.20703C69.6997 6.00684 70.2148 5.91162 70.7471 5.92139C71.5723 5.94092 72.2144 6.19238 72.6733 6.67578C73.1323 7.1543 73.3252 7.7915 73.252 8.5874L72.6074 12.5132L72.5708 13.0771C72.561 13.3457 72.5903 13.6118 72.6587 13.8755L72.644 14H71.2964ZM69.2163 12.9746C69.6411 12.9844 70.0415 12.8843 70.4175 12.6743C70.7983 12.4595 71.1255 12.1641 71.3989 11.7881L71.6846 10.1548L70.6812 10.1475C69.8462 10.1475 69.2065 10.2793 68.7622 10.543C68.3179 10.8066 68.0664 11.1802 68.0078 11.6636C67.9639 12.0347 68.0493 12.3447 68.2642 12.5938C68.4839 12.8379 68.8013 12.9648 69.2163 12.9746ZM77.0605 6.06787L76.8921 6.9541C77.5562 6.25098 78.3594 5.90918 79.3018 5.92871C79.8047 5.93848 80.2295 6.05322 80.5762 6.27295C80.9277 6.49268 81.1694 6.80273 81.3013 7.20312C82.0435 6.33398 82.9199 5.90918 83.9307 5.92871C84.7217 5.94824 85.3052 6.21436 85.6812 6.72705C86.0571 7.23975 86.1963 7.92822 86.0986 8.79248L85.2271 14H83.9087L84.7729 8.77783C84.8022 8.52393 84.8022 8.29199 84.7729 8.08203C84.6802 7.41797 84.2456 7.07861 83.4692 7.06396C82.9858 7.0542 82.5464 7.20557 82.1509 7.51807C81.7603 7.82568 81.5088 8.23096 81.3965 8.73389L80.4956 14H79.1626L80.0415 8.78516C80.105 8.24316 80.022 7.82568 79.7925 7.53271C79.5679 7.23975 79.2163 7.08838 78.7378 7.07861C77.9126 7.05908 77.2559 7.43506 76.7676 8.20654L75.7642 14H74.4385L75.8154 6.0752L77.0605 6.06787ZM94.4556 10.0742C94.3579 10.8799 94.1406 11.605 93.8037 12.2495C93.4668 12.894 93.0493 13.3774 92.5513 13.6997C92.0532 14.0171 91.5015 14.1685 90.896 14.1538C89.978 14.1343 89.2749 13.8242 88.7866 13.2236L88.0762 17.0469H86.7505L88.6548 6.0752L89.856 6.06787L89.7095 6.9541C90.3638 6.25098 91.1475 5.90918 92.0605 5.92871C92.8223 5.94824 93.4155 6.229 93.8403 6.771C94.2651 7.31299 94.4897 8.06006 94.5142 9.01221C94.519 9.32471 94.5068 9.62744 94.4775 9.92041L94.4556 10.0742ZM93.1519 9.92041L93.1885 9.30518C93.1885 8.59229 93.0518 8.04785 92.7783 7.67188C92.5098 7.29102 92.1191 7.09082 91.6064 7.07129C90.8398 7.05176 90.1782 7.41553 89.6216 8.1626L88.9551 11.9639C89.2529 12.667 89.7876 13.0283 90.5591 13.0479C91.2183 13.0625 91.7773 12.8062 92.2363 12.2788C92.7002 11.7466 93.0054 10.9604 93.1519 9.92041ZM96.9604 14H95.6421L97.5903 2.75H98.916L96.9604 14ZM102.556 14.1465C101.57 14.127 100.798 13.7632 100.242 13.0552C99.6851 12.3472 99.4507 11.4414 99.5386 10.3379L99.5752 10.0229C99.6582 9.23682 99.8901 8.51904 100.271 7.86963C100.657 7.22021 101.125 6.73193 101.677 6.40479C102.229 6.07275 102.825 5.91406 103.464 5.92871C104.28 5.94824 104.919 6.21924 105.383 6.7417C105.847 7.26416 106.101 7.97217 106.145 8.86572C106.16 9.18311 106.15 9.50049 106.116 9.81787L106.035 10.4258H100.857C100.769 11.1436 100.886 11.7539 101.208 12.2568C101.536 12.7598 102.021 13.021 102.666 13.0405C103.447 13.0601 104.17 12.7085 104.834 11.9858L105.596 12.6304C105.264 13.1089 104.834 13.4849 104.307 13.7583C103.784 14.0269 103.201 14.1562 102.556 14.1465ZM103.398 7.03467C102.852 7.02002 102.373 7.20557 101.963 7.59131C101.558 7.97705 101.235 8.55078 100.996 9.3125L104.849 9.31982L104.878 9.20264C104.956 8.5874 104.856 8.07715 104.578 7.67188C104.304 7.26172 103.911 7.04932 103.398 7.03467ZM3.1665 29.147L6.02295 23.0752H7.42188L3.43018 31H2.41943L0.866699 23.0752H2.17041L3.1665 29.147ZM12.1387 31C12.1045 30.8584 12.0874 30.7192 12.0874 30.5825L12.1094 30.165C11.3818 30.8389 10.6104 31.166 9.79492 31.1465C9.09668 31.1367 8.52783 30.917 8.08838 30.4873C7.65381 30.0527 7.45605 29.5107 7.49512 28.8613C7.54395 28.0215 7.91016 27.3672 8.59375 26.8984C9.28223 26.4248 10.1855 26.188 11.3037 26.188L12.688 26.1953L12.7759 25.5654C12.8247 25.0918 12.7319 24.7183 12.4976 24.4448C12.2681 24.1665 11.9214 24.0225 11.4575 24.0127C11.0034 24.0029 10.6006 24.1152 10.249 24.3496C9.90234 24.5791 9.68994 24.8843 9.61182 25.2651L8.27881 25.2725C8.32275 24.8086 8.50342 24.3984 8.8208 24.042C9.13818 23.6807 9.5459 23.4023 10.0439 23.207C10.542 23.0068 11.0571 22.9116 11.5894 22.9214C12.4146 22.9409 13.0566 23.1924 13.5156 23.6758C13.9746 24.1543 14.1675 24.7915 14.0942 25.5874L13.4497 29.5132L13.4131 30.0771C13.4033 30.3457 13.4326 30.6118 13.501 30.8755L13.4863 31H12.1387ZM10.0586 29.9746C10.4834 29.9844 10.8838 29.8843 11.2598 29.6743C11.6406 29.4595 11.9678 29.1641 12.2412 28.7881L12.5269 27.1548L11.5234 27.1475C10.6885 27.1475 10.0488 27.2793 9.60449 27.543C9.16016 27.8066 8.90869 28.1802 8.8501 28.6636C8.80615 29.0347 8.8916 29.3447 9.10645 29.5938C9.32617 29.8379 9.64355 29.9648 10.0586 29.9746ZM20.2173 24.2837L19.5947 24.2178C18.7451 24.2178 18.0762 24.6011 17.5879 25.3677L16.6138 31H15.2881L16.665 23.0752L17.9468 23.0679L17.749 23.9907C18.3105 23.2534 18.9722 22.8945 19.7339 22.9141C19.895 22.9141 20.105 22.9507 20.3638 23.0239L20.2173 24.2837ZM21.7188 31H20.4004L21.7773 23.0752H23.0957L21.7188 31ZM22.8101 20.1821C23.0347 20.1724 23.2202 20.2407 23.3667 20.3872C23.5181 20.5288 23.5938 20.7168 23.5938 20.9512C23.5889 21.1807 23.5132 21.3687 23.3667 21.5151C23.2251 21.6616 23.0396 21.7397 22.8101 21.7495C22.5806 21.7593 22.3926 21.6934 22.2461 21.5518C22.0996 21.4102 22.0288 21.2246 22.0337 20.9951C22.0386 20.7656 22.1118 20.5752 22.2534 20.4238C22.395 20.2725 22.5806 20.1919 22.8101 20.1821ZM28.7354 31C28.7012 30.8584 28.6841 30.7192 28.6841 30.5825L28.7061 30.165C27.9785 30.8389 27.207 31.166 26.3916 31.1465C25.6934 31.1367 25.1245 30.917 24.6851 30.4873C24.2505 30.0527 24.0527 29.5107 24.0918 28.8613C24.1406 28.0215 24.5068 27.3672 25.1904 26.8984C25.8789 26.4248 26.7822 26.188 27.9004 26.188L29.2847 26.1953L29.3726 25.5654C29.4214 25.0918 29.3286 24.7183 29.0942 24.4448C28.8647 24.1665 28.5181 24.0225 28.0542 24.0127C27.6001 24.0029 27.1973 24.1152 26.8457 24.3496C26.499 24.5791 26.2866 24.8843 26.2085 25.2651L24.8755 25.2725C24.9194 24.8086 25.1001 24.3984 25.4175 24.042C25.7349 23.6807 26.1426 23.4023 26.6406 23.207C27.1387 23.0068 27.6538 22.9116 28.186 22.9214C29.0112 22.9409 29.6533 23.1924 30.1123 23.6758C30.5713 24.1543 30.7642 24.7915 30.6909 25.5874L30.0464 29.5132L30.0098 30.0771C30 30.3457 30.0293 30.6118 30.0977 30.8755L30.083 31H28.7354ZM26.6553 29.9746C27.0801 29.9844 27.4805 29.8843 27.8564 29.6743C28.2373 29.4595 28.5645 29.1641 28.8379 28.7881L29.1235 27.1548L28.1201 27.1475C27.2852 27.1475 26.6455 27.2793 26.2012 27.543C25.7568 27.8066 25.5054 28.1802 25.4468 28.6636C25.4028 29.0347 25.4883 29.3447 25.7031 29.5938C25.9229 29.8379 26.2402 29.9648 26.6553 29.9746ZM34.5142 23.0679L34.3237 24.0713C35.0366 23.29 35.8472 22.9092 36.7554 22.9287C37.5024 22.9482 38.0542 23.207 38.4106 23.7051C38.7671 24.2031 38.8989 24.9038 38.8062 25.8071L37.9419 31H36.6162L37.4878 25.7852C37.5171 25.5459 37.5195 25.3237 37.4951 25.1187C37.4121 24.4351 37.0093 24.0859 36.2866 24.0713C35.4907 24.0566 34.7925 24.4814 34.1919 25.3457L33.2104 31H31.8848L33.2617 23.0752L34.5142 23.0679ZM43.3325 30.0479C43.8062 30.0576 44.2334 29.9209 44.6143 29.6377C44.9951 29.3496 45.2441 28.9736 45.3613 28.5098L46.6138 28.5024C46.5405 29.0005 46.3403 29.4546 46.0132 29.8647C45.6909 30.2749 45.2832 30.5947 44.79 30.8242C44.2969 31.0537 43.7915 31.1611 43.2739 31.1465C42.6147 31.1367 42.0557 30.9658 41.5967 30.6338C41.1426 30.2969 40.8081 29.8306 40.5933 29.2349C40.3784 28.6343 40.3052 27.9604 40.3735 27.2134L40.4102 26.8472C40.5029 26.0854 40.7251 25.4043 41.0767 24.8037C41.4282 24.2031 41.8872 23.7368 42.4536 23.4048C43.02 23.0679 43.645 22.9092 44.3286 22.9287C45.1587 22.9482 45.8228 23.2266 46.3208 23.7637C46.8188 24.3008 47.0679 24.9819 47.0679 25.8071L45.8301 25.7998C45.8203 25.2822 45.6763 24.8647 45.3979 24.5474C45.1196 24.2251 44.7437 24.0542 44.27 24.0347C43.5815 24.02 43.0078 24.2764 42.5488 24.8037C42.0947 25.3311 41.8115 26.0684 41.6992 27.0156L41.6772 27.2061C41.6479 27.5186 41.6431 27.8408 41.6626 28.1729C41.6968 28.7441 41.8579 29.1958 42.146 29.5278C42.4341 29.8599 42.8296 30.0332 43.3325 30.0479ZM51.1035 31.1465C50.1172 31.127 49.3457 30.7632 48.7891 30.0552C48.2324 29.3472 47.998 28.4414 48.0859 27.3379L48.1226 27.0229C48.2056 26.2368 48.4375 25.519 48.8184 24.8696C49.2041 24.2202 49.6729 23.7319 50.2246 23.4048C50.7764 23.0728 51.3721 22.9141 52.0117 22.9287C52.8271 22.9482 53.4668 23.2192 53.9307 23.7417C54.3945 24.2642 54.6484 24.9722 54.6924 25.8657C54.707 26.1831 54.6973 26.5005 54.6631 26.8179L54.5825 27.4258H49.4043C49.3164 28.1436 49.4336 28.7539 49.7559 29.2568C50.083 29.7598 50.5688 30.021 51.2134 30.0405C51.9946 30.0601 52.7173 29.7085 53.3813 28.9858L54.1431 29.6304C53.811 30.1089 53.3813 30.4849 52.854 30.7583C52.3315 31.0269 51.748 31.1562 51.1035 31.1465ZM51.9458 24.0347C51.3989 24.02 50.9204 24.2056 50.5103 24.5913C50.105 24.9771 49.7827 25.5508 49.5435 26.3125L53.396 26.3198L53.4253 26.2026C53.5034 25.5874 53.4033 25.0771 53.125 24.6719C52.8516 24.2617 52.4585 24.0493 51.9458 24.0347ZM56.355 29.4619C56.5942 29.457 56.792 29.5303 56.9482 29.6816C57.1045 29.833 57.1802 30.0283 57.1753 30.2676C57.1704 30.5068 57.0898 30.7021 56.9336 30.8535C56.7773 31 56.582 31.0781 56.3477 31.0879C56.1133 31.0977 55.9204 31.0317 55.769 30.8901C55.6177 30.7437 55.542 30.5508 55.542 30.3115C55.542 30.0723 55.6177 29.8745 55.769 29.7183C55.9204 29.5571 56.1157 29.4717 56.355 29.4619ZM57.4756 22.9946C57.7148 22.9897 57.9126 23.063 58.0688 23.2144C58.2251 23.3657 58.3008 23.561 58.2959 23.8003C58.291 24.0396 58.2104 24.2349 58.0542 24.3862C57.8979 24.5327 57.7026 24.6108 57.4683 24.6206C57.2339 24.6304 57.041 24.5645 56.8896 24.4229C56.7383 24.2764 56.6626 24.0835 56.6626 23.8442C56.6626 23.605 56.7383 23.4072 56.8896 23.251C57.041 23.0898 57.2363 23.0044 57.4756 22.9946ZM63.6353 25.7266L65.0708 20.3359H70.9009L70.6226 22.1011H66.5283L65.8252 24.4082C66.2598 24.1348 66.7725 23.998 67.3633 23.998C68.2764 23.998 68.9819 24.3228 69.48 24.9722C69.9829 25.6167 70.1953 26.4688 70.1172 27.5283C70.0586 28.2314 69.8511 28.8638 69.4946 29.4253C69.1431 29.9868 68.6792 30.4189 68.103 30.7217C67.5269 31.0244 66.8921 31.1685 66.1987 31.1538C65.5981 31.1489 65.0513 31.0122 64.5581 30.7437C64.0698 30.4702 63.689 30.0967 63.4155 29.623C63.1421 29.1445 63.0029 28.6123 62.998 28.0264H65.0269C65.0464 28.4609 65.166 28.8027 65.3857 29.0518C65.6055 29.2959 65.9033 29.4229 66.2793 29.4326C66.7676 29.4473 67.168 29.269 67.4805 28.8979C67.7979 28.5269 67.9883 28.0288 68.0518 27.4038C68.1104 26.8472 68.0249 26.4077 67.7954 26.0854C67.5708 25.7632 67.2266 25.5972 66.7627 25.5874C66.2451 25.5776 65.7666 25.7681 65.3271 26.1587L63.6353 25.7266ZM77.6538 26.9863H78.8257L78.5254 28.6929H77.3535L76.9507 31H74.8853L75.2881 28.6929H71.0547L71.2012 27.25L76.6431 20.3359H78.8037L77.6538 26.9863ZM73.3472 26.9717L75.5884 26.9863L76.3135 23.1924L76.123 23.4561L73.3472 26.9717ZM83.623 31.9155H81.9971L87.8125 20.3359H89.4458L83.623 31.9155ZM97.8613 26.73C97.2607 27.2866 96.6187 27.5601 95.9351 27.5503C95.3491 27.5454 94.8511 27.3892 94.4409 27.0815C94.0308 26.7739 93.7256 26.3467 93.5254 25.7998C93.3301 25.248 93.2617 24.6523 93.3203 24.0127C93.3887 23.2266 93.6377 22.5161 94.0674 21.8813C94.4971 21.2466 95.0562 20.7778 95.7446 20.4751C96.1987 20.2749 96.6968 20.1797 97.2388 20.1895C98.1177 20.209 98.8184 20.5166 99.3408 21.1123C99.8633 21.708 100.159 22.5063 100.227 23.5073C100.247 23.854 100.239 24.1982 100.205 24.54L100.125 25.1699C99.8853 27.0303 99.2212 28.4854 98.1323 29.5352C97.0483 30.585 95.6567 31.1099 93.9575 31.1099H93.8037L93.9648 29.3374H94.0747C95.0366 29.3521 95.8276 29.1445 96.4478 28.7148C97.0679 28.2803 97.5391 27.6187 97.8613 26.73ZM96.5063 25.939C97.0923 25.9585 97.6099 25.6582 98.0591 25.0381L98.1836 24.1519C98.208 23.9468 98.2202 23.7148 98.2202 23.4561C98.2104 22.9873 98.1128 22.6113 97.9272 22.3281C97.7417 22.0449 97.4731 21.8984 97.1216 21.8887C96.77 21.8838 96.4526 22.0107 96.1694 22.2695C95.8911 22.5234 95.6787 22.8726 95.5322 23.3169C95.3906 23.7612 95.3394 24.2031 95.3784 24.6426C95.4126 25.0332 95.5273 25.3457 95.7227 25.5801C95.9229 25.8145 96.1841 25.9341 96.5063 25.939ZM111.909 25.5361H105.544L105.852 23.8076H112.217L111.909 25.5361ZM111.36 28.7075H104.995L105.303 26.979H111.667L111.36 28.7075ZM123.774 20.2188L123.613 21.9692L123.21 21.9766C121.536 22.0645 120.327 22.9873 119.585 24.7451C120.195 24.1445 120.911 23.854 121.731 23.8735C122.307 23.8833 122.793 24.0444 123.188 24.3569C123.589 24.6694 123.882 25.0967 124.067 25.6387C124.253 26.1807 124.319 26.7788 124.265 27.4331C124.207 28.1313 123.997 28.771 123.635 29.3521C123.279 29.9282 122.81 30.3774 122.229 30.6997C121.648 31.0171 121.021 31.1685 120.347 31.1538C119.648 31.1343 119.048 30.939 118.545 30.5679C118.047 30.1919 117.683 29.6792 117.454 29.0298C117.224 28.3804 117.148 27.6724 117.227 26.9058L117.307 26.2466C117.537 24.4106 118.208 22.9482 119.321 21.8594C120.439 20.7656 121.831 20.2188 123.496 20.2188H123.774ZM121.028 25.5581C120.671 25.5483 120.352 25.6362 120.068 25.8218C119.785 26.0073 119.551 26.2441 119.365 26.5322L119.27 27.1914C119.246 27.4111 119.236 27.6504 119.241 27.9092C119.25 28.3682 119.355 28.7368 119.556 29.0151C119.756 29.2935 120.039 29.4351 120.405 29.4399C120.767 29.4546 121.096 29.3374 121.394 29.0884C121.692 28.8394 121.912 28.5049 122.053 28.085C122.195 27.665 122.241 27.2378 122.192 26.8032C122.148 26.4224 122.024 26.1221 121.819 25.9023C121.619 25.6777 121.355 25.563 121.028 25.5581Z" transform="translate(122 363)" fill="black"/>
<line y1="-0.5" x2="295" y2="-0.5" transform="translate(215 47) rotate(90)" stroke="black"/>
<line y1="-0.5" x2="10" y2="-0.5" transform="translate(205 48)" stroke="black"/>
<line y1="-0.5" x2="10" y2="-0.5" transform="translate(205 342)" stroke="black"/>
<path d="M7.5 11.2168H3.03223L2.02881 14H0.578613L4.65088 3.33594H5.88135L9.96094 14H8.51807L7.5 11.2168ZM3.45703 10.0596H7.08252L5.26611 5.07178L3.45703 10.0596ZM12.6562 14H11.3013V2.75H12.6562V14ZM16.3037 14H14.9487V2.75H16.3037V14ZM24.0381 4.15625V6.0752H25.5176V7.12256H24.0381V12.0371C24.0381 12.3545 24.104 12.5938 24.2358 12.7549C24.3677 12.9111 24.5923 12.9893 24.9097 12.9893C25.0659 12.9893 25.2808 12.96 25.5542 12.9014V14C25.1978 14.0977 24.8511 14.1465 24.5142 14.1465C23.9087 14.1465 23.4521 13.9634 23.1445 13.5972C22.8369 13.231 22.6831 12.7109 22.6831 12.0371V7.12256H21.2402V6.0752H22.6831V4.15625H24.0381ZM28.4619 7.03467C29.0625 6.29736 29.8438 5.92871 30.8057 5.92871C32.4805 5.92871 33.3252 6.87354 33.3398 8.76318V14H31.9849V8.75586C31.98 8.18457 31.8481 7.76221 31.5894 7.48877C31.3354 7.21533 30.9375 7.07861 30.3955 7.07861C29.9561 7.07861 29.5703 7.1958 29.2383 7.43018C28.9062 7.66455 28.6475 7.97217 28.4619 8.35303V14H27.1069V2.75H28.4619V7.03467ZM38.6572 14.1465C37.583 14.1465 36.709 13.7949 36.0352 13.0918C35.3613 12.3838 35.0244 11.439 35.0244 10.2573V10.0083C35.0244 9.22217 35.1733 8.52148 35.4712 7.90625C35.7739 7.28613 36.1938 6.80273 36.731 6.45605C37.2729 6.10449 37.8589 5.92871 38.4888 5.92871C39.519 5.92871 40.3198 6.26807 40.8911 6.94678C41.4624 7.62549 41.748 8.59717 41.748 9.86182V10.4258H36.3794C36.3989 11.207 36.626 11.8394 37.0605 12.3228C37.5 12.8013 38.0566 13.0405 38.7305 13.0405C39.209 13.0405 39.6143 12.9429 39.9463 12.7476C40.2783 12.5522 40.5688 12.2935 40.8179 11.9712L41.6455 12.6157C40.9814 13.6362 39.9854 14.1465 38.6572 14.1465ZM38.4888 7.04199C37.9419 7.04199 37.4829 7.24219 37.1118 7.64258C36.7407 8.03809 36.5112 8.59473 36.4233 9.3125H40.3931V9.20996C40.354 8.52148 40.1685 7.98926 39.8364 7.61328C39.5044 7.23242 39.0552 7.04199 38.4888 7.04199ZM47.937 11.8979C47.937 11.5317 47.7979 11.2485 47.5195 11.0483C47.2461 10.8433 46.7651 10.6675 46.0767 10.521C45.3931 10.3745 44.8486 10.1987 44.4434 9.99365C44.043 9.78857 43.7451 9.54443 43.5498 9.26123C43.3594 8.97803 43.2642 8.64111 43.2642 8.25049C43.2642 7.60107 43.5376 7.05176 44.0845 6.60254C44.6362 6.15332 45.3394 5.92871 46.1938 5.92871C47.0923 5.92871 47.8198 6.16064 48.3765 6.62451C48.938 7.08838 49.2188 7.68164 49.2188 8.4043H47.8564C47.8564 8.0332 47.6978 7.71338 47.3804 7.44482C47.0679 7.17627 46.6724 7.04199 46.1938 7.04199C45.7007 7.04199 45.3149 7.14941 45.0366 7.36426C44.7583 7.5791 44.6191 7.85986 44.6191 8.20654C44.6191 8.53369 44.7485 8.78027 45.0073 8.94629C45.2661 9.1123 45.7324 9.271 46.4062 9.42236C47.085 9.57373 47.6343 9.75439 48.0542 9.96436C48.4741 10.1743 48.7842 10.4282 48.9844 10.7261C49.1895 11.019 49.292 11.3779 49.292 11.8027C49.292 12.5107 49.0088 13.0796 48.4424 13.5093C47.876 13.9341 47.1411 14.1465 46.2378 14.1465C45.603 14.1465 45.0415 14.0342 44.5532 13.8096C44.0649 13.585 43.6816 13.2725 43.4033 12.8721C43.1299 12.4668 42.9932 12.0298 42.9932 11.561H44.3481C44.3726 12.0151 44.5532 12.3765 44.8901 12.645C45.2319 12.9087 45.6812 13.0405 46.2378 13.0405C46.7505 13.0405 47.1606 12.938 47.4683 12.7329C47.7808 12.5229 47.937 12.2446 47.937 11.8979ZM54.3457 14.1465C53.2715 14.1465 52.3975 13.7949 51.7236 13.0918C51.0498 12.3838 50.7129 11.439 50.7129 10.2573V10.0083C50.7129 9.22217 50.8618 8.52148 51.1597 7.90625C51.4624 7.28613 51.8823 6.80273 52.4194 6.45605C52.9614 6.10449 53.5474 5.92871 54.1772 5.92871C55.2075 5.92871 56.0083 6.26807 56.5796 6.94678C57.1509 7.62549 57.4365 8.59717 57.4365 9.86182V10.4258H52.0679C52.0874 11.207 52.3145 11.8394 52.749 12.3228C53.1885 12.8013 53.7451 13.0405 54.4189 13.0405C54.8975 13.0405 55.3027 12.9429 55.6348 12.7476C55.9668 12.5522 56.2573 12.2935 56.5063 11.9712L57.334 12.6157C56.6699 13.6362 55.6738 14.1465 54.3457 14.1465ZM54.1772 7.04199C53.6304 7.04199 53.1714 7.24219 52.8003 7.64258C52.4292 8.03809 52.1997 8.59473 52.1118 9.3125H56.0815V9.20996C56.0425 8.52148 55.8569 7.98926 55.5249 7.61328C55.1929 7.23242 54.7437 7.04199 54.1772 7.04199ZM65.3467 12.1616L67.3096 6.0752H68.6938L65.8521 14H64.8193L61.9482 6.0752H63.3325L65.3467 12.1616ZM74.7729 14C74.6948 13.8438 74.6313 13.5654 74.5825 13.165C73.9526 13.8193 73.2007 14.1465 72.3267 14.1465C71.5454 14.1465 70.9033 13.9268 70.4004 13.4873C69.9023 13.043 69.6533 12.4814 69.6533 11.8027C69.6533 10.9775 69.9658 10.3379 70.5908 9.88379C71.2207 9.4248 72.1045 9.19531 73.2422 9.19531H74.5605V8.57275C74.5605 8.09912 74.4189 7.72314 74.1357 7.44482C73.8525 7.16162 73.4351 7.02002 72.8833 7.02002C72.3999 7.02002 71.9946 7.14209 71.6675 7.38623C71.3403 7.63037 71.1768 7.92578 71.1768 8.27246H69.8145C69.8145 7.87695 69.9536 7.49609 70.2319 7.12988C70.5151 6.75879 70.896 6.46582 71.3745 6.25098C71.8579 6.03613 72.3877 5.92871 72.9639 5.92871C73.877 5.92871 74.5923 6.1582 75.1099 6.61719C75.6274 7.07129 75.896 7.69873 75.9155 8.49951V12.147C75.9155 12.8745 76.0083 13.4531 76.1938 13.8828V14H74.7729ZM72.5244 12.9673C72.9492 12.9673 73.3521 12.8574 73.7329 12.6377C74.1138 12.418 74.3896 12.1323 74.5605 11.7808V10.1548H73.4985C71.8384 10.1548 71.0083 10.6406 71.0083 11.6123C71.0083 12.0371 71.1499 12.3691 71.4331 12.6084C71.7163 12.8477 72.0801 12.9673 72.5244 12.9673ZM79.5117 14H78.1567V2.75H79.5117V14ZM86.5796 13.2163C86.0522 13.8364 85.2783 14.1465 84.2578 14.1465C83.4131 14.1465 82.7686 13.9023 82.3242 13.4141C81.8848 12.9209 81.6626 12.1934 81.6577 11.2314V6.0752H83.0127V11.1948C83.0127 12.396 83.501 12.9966 84.4775 12.9966C85.5127 12.9966 86.2012 12.6108 86.543 11.8394V6.0752H87.8979V14H86.6089L86.5796 13.2163ZM93.252 14.1465C92.1777 14.1465 91.3037 13.7949 90.6299 13.0918C89.9561 12.3838 89.6191 11.439 89.6191 10.2573V10.0083C89.6191 9.22217 89.7681 8.52148 90.0659 7.90625C90.3687 7.28613 90.7886 6.80273 91.3257 6.45605C91.8677 6.10449 92.4536 5.92871 93.0835 5.92871C94.1138 5.92871 94.9146 6.26807 95.4858 6.94678C96.0571 7.62549 96.3428 8.59717 96.3428 9.86182V10.4258H90.9741C90.9937 11.207 91.2207 11.8394 91.6553 12.3228C92.0947 12.8013 92.6514 13.0405 93.3252 13.0405C93.8037 13.0405 94.209 12.9429 94.541 12.7476C94.873 12.5522 95.1636 12.2935 95.4126 11.9712L96.2402 12.6157C95.5762 13.6362 94.5801 14.1465 93.252 14.1465ZM93.0835 7.04199C92.5366 7.04199 92.0776 7.24219 91.7065 7.64258C91.3354 8.03809 91.106 8.59473 91.0181 9.3125H94.9878V9.20996C94.9487 8.52148 94.7632 7.98926 94.4312 7.61328C94.0991 7.23242 93.6499 7.04199 93.0835 7.04199ZM102.532 11.8979C102.532 11.5317 102.393 11.2485 102.114 11.0483C101.841 10.8433 101.36 10.6675 100.671 10.521C99.9878 10.3745 99.4434 10.1987 99.0381 9.99365C98.6377 9.78857 98.3398 9.54443 98.1445 9.26123C97.9541 8.97803 97.8589 8.64111 97.8589 8.25049C97.8589 7.60107 98.1323 7.05176 98.6792 6.60254C99.231 6.15332 99.9341 5.92871 100.789 5.92871C101.687 5.92871 102.415 6.16064 102.971 6.62451C103.533 7.08838 103.813 7.68164 103.813 8.4043H102.451C102.451 8.0332 102.292 7.71338 101.975 7.44482C101.663 7.17627 101.267 7.04199 100.789 7.04199C100.295 7.04199 99.9097 7.14941 99.6313 7.36426C99.353 7.5791 99.2139 7.85986 99.2139 8.20654C99.2139 8.53369 99.3433 8.78027 99.6021 8.94629C99.8608 9.1123 100.327 9.271 101.001 9.42236C101.68 9.57373 102.229 9.75439 102.649 9.96436C103.069 10.1743 103.379 10.4282 103.579 10.7261C103.784 11.019 103.887 11.3779 103.887 11.8027C103.887 12.5107 103.604 13.0796 103.037 13.5093C102.471 13.9341 101.736 14.1465 100.833 14.1465C100.198 14.1465 99.6362 14.0342 99.1479 13.8096C98.6597 13.585 98.2764 13.2725 97.998 12.8721C97.7246 12.4668 97.5879 12.0298 97.5879 11.561H98.9429C98.9673 12.0151 99.1479 12.3765 99.4849 12.645C99.8267 12.9087 100.276 13.0405 100.833 13.0405C101.345 13.0405 101.755 12.938 102.063 12.7329C102.375 12.5229 102.532 12.2446 102.532 11.8979ZM14.3555 28.8979C14.3555 28.5317 14.2163 28.2485 13.938 28.0483C13.6646 27.8433 13.1836 27.6675 12.4951 27.521C11.8115 27.3745 11.2671 27.1987 10.8618 26.9937C10.4614 26.7886 10.1636 26.5444 9.96826 26.2612C9.77783 25.978 9.68262 25.6411 9.68262 25.2505C9.68262 24.6011 9.95605 24.0518 10.5029 23.6025C11.0547 23.1533 11.7578 22.9287 12.6123 22.9287C13.5107 22.9287 14.2383 23.1606 14.7949 23.6245C15.3564 24.0884 15.6372 24.6816 15.6372 25.4043H14.2749C14.2749 25.0332 14.1162 24.7134 13.7988 24.4448C13.4863 24.1763 13.0908 24.042 12.6123 24.042C12.1191 24.042 11.7334 24.1494 11.4551 24.3643C11.1768 24.5791 11.0376 24.8599 11.0376 25.2065C11.0376 25.5337 11.167 25.7803 11.4258 25.9463C11.6846 26.1123 12.1509 26.271 12.8247 26.4224C13.5034 26.5737 14.0527 26.7544 14.4727 26.9644C14.8926 27.1743 15.2026 27.4282 15.4028 27.7261C15.6079 28.019 15.7104 28.3779 15.7104 28.8027C15.7104 29.5107 15.4272 30.0796 14.8608 30.5093C14.2944 30.9341 13.5596 31.1465 12.6562 31.1465C12.0215 31.1465 11.46 31.0342 10.9717 30.8096C10.4834 30.585 10.1001 30.2725 9.82178 29.8721C9.54834 29.4668 9.41162 29.0298 9.41162 28.561H10.7666C10.791 29.0151 10.9717 29.3765 11.3086 29.645C11.6504 29.9087 12.0996 30.0405 12.6562 30.0405C13.1689 30.0405 13.5791 29.938 13.8867 29.7329C14.1992 29.5229 14.3555 29.2446 14.3555 28.8979ZM22.3682 30.2163C21.8408 30.8364 21.0669 31.1465 20.0464 31.1465C19.2017 31.1465 18.5571 30.9023 18.1128 30.4141C17.6733 29.9209 17.4512 29.1934 17.4463 28.2314V23.0752H18.8013V28.1948C18.8013 29.396 19.2896 29.9966 20.2661 29.9966C21.3013 29.9966 21.9897 29.6108 22.3315 28.8394V23.0752H23.6865V31H22.3975L22.3682 30.2163ZM27.0264 23.0752L27.063 23.9541C27.644 23.2705 28.4277 22.9287 29.4141 22.9287C30.5225 22.9287 31.2769 23.3535 31.6772 24.2031C31.9409 23.8223 32.2827 23.5146 32.7026 23.2803C33.1274 23.0459 33.6279 22.9287 34.2041 22.9287C35.9424 22.9287 36.8262 23.8491 36.8555 25.6899V31H35.5005V25.7705C35.5005 25.2041 35.3711 24.7817 35.1123 24.5034C34.8535 24.2202 34.4189 24.0786 33.8086 24.0786C33.3057 24.0786 32.8882 24.23 32.5562 24.5327C32.2241 24.8306 32.0312 25.2334 31.9775 25.7412V31H30.6152V25.8071C30.6152 24.6548 30.0513 24.0786 28.9233 24.0786C28.0347 24.0786 27.4268 24.457 27.0996 25.2139V31H25.7446V23.0752H27.0264ZM47.5195 30.2163C46.9922 30.8364 46.2183 31.1465 45.1978 31.1465C44.353 31.1465 43.7085 30.9023 43.2642 30.4141C42.8247 29.9209 42.6025 29.1934 42.5977 28.2314V23.0752H43.9526V28.1948C43.9526 29.396 44.4409 29.9966 45.4175 29.9966C46.4526 29.9966 47.1411 29.6108 47.4829 28.8394V23.0752H48.8379V31H47.5488L47.5195 30.2163ZM57.5977 27.1255C57.5977 28.3315 57.3218 29.3032 56.77 30.0405C56.2183 30.7778 55.4712 31.1465 54.5288 31.1465C53.5669 31.1465 52.8101 30.8413 52.2583 30.231V34.0469H50.9033V23.0752H52.1411L52.207 23.9541C52.7588 23.2705 53.5254 22.9287 54.5068 22.9287C55.459 22.9287 56.2109 23.2876 56.7627 24.0054C57.3193 24.7231 57.5977 25.7217 57.5977 27.001V27.1255ZM56.2427 26.9717C56.2427 26.0781 56.0522 25.3726 55.6714 24.855C55.2905 24.3374 54.7681 24.0786 54.104 24.0786C53.2837 24.0786 52.6685 24.4424 52.2583 25.1699V28.9565C52.6636 29.6792 53.2837 30.0405 54.1187 30.0405C54.7681 30.0405 55.2832 29.7842 55.6641 29.2715C56.0498 28.7539 56.2427 27.9873 56.2427 26.9717ZM64.8853 21.1562V23.0752H66.3647V24.1226H64.8853V29.0371C64.8853 29.3545 64.9512 29.5938 65.083 29.7549C65.2148 29.9111 65.4395 29.9893 65.7568 29.9893C65.9131 29.9893 66.1279 29.96 66.4014 29.9014V31C66.0449 31.0977 65.6982 31.1465 65.3613 31.1465C64.7559 31.1465 64.2993 30.9634 63.9917 30.5972C63.6841 30.231 63.5303 29.7109 63.5303 29.0371V24.1226H62.0874V23.0752H63.5303V21.1562H64.8853ZM67.4487 26.9644C67.4487 26.188 67.6001 25.4897 67.9028 24.8696C68.2104 24.2495 68.6353 23.771 69.1772 23.4341C69.7241 23.0972 70.3467 22.9287 71.0449 22.9287C72.124 22.9287 72.9956 23.3022 73.6597 24.0493C74.3286 24.7964 74.6631 25.79 74.6631 27.0303V27.1255C74.6631 27.897 74.5142 28.5903 74.2163 29.2056C73.9233 29.8159 73.501 30.292 72.9492 30.6338C72.4023 30.9756 71.7725 31.1465 71.0596 31.1465C69.9854 31.1465 69.1138 30.7729 68.4448 30.0259C67.7808 29.2788 67.4487 28.29 67.4487 27.0596V26.9644ZM68.811 27.1255C68.811 28.0044 69.0137 28.71 69.4189 29.2422C69.8291 29.7744 70.376 30.0405 71.0596 30.0405C71.748 30.0405 72.2949 29.772 72.7002 29.2349C73.1055 28.6929 73.3081 27.936 73.3081 26.9644C73.3081 26.0952 73.1006 25.3921 72.6855 24.855C72.2754 24.313 71.7285 24.042 71.0449 24.042C70.376 24.042 69.8364 24.3081 69.4263 24.8403C69.0161 25.3726 68.811 26.1343 68.811 27.1255ZM80.0977 25.7559L80.7129 20.3359H86.6895V22.1011H82.4487L82.1851 24.3936C82.688 24.125 83.2227 23.9907 83.7891 23.9907C84.8047 23.9907 85.6006 24.3057 86.1768 24.9355C86.7529 25.5654 87.041 26.4468 87.041 27.5796C87.041 28.2681 86.8945 28.8857 86.6016 29.4326C86.3135 29.9746 85.8984 30.397 85.3564 30.6997C84.8145 30.9976 84.1748 31.1465 83.4375 31.1465C82.793 31.1465 82.1948 31.0171 81.6431 30.7583C81.0913 30.4946 80.6543 30.126 80.332 29.6523C80.0146 29.1787 79.8462 28.6392 79.8267 28.0337H81.9214C81.9653 28.478 82.1191 28.8247 82.3828 29.0737C82.6514 29.3179 83.0005 29.4399 83.4302 29.4399C83.9087 29.4399 84.2773 29.269 84.5361 28.9272C84.7949 28.5806 84.9243 28.0923 84.9243 27.4624C84.9243 26.8569 84.7754 26.3931 84.4775 26.0708C84.1797 25.7485 83.7573 25.5874 83.2104 25.5874C82.7075 25.5874 82.2998 25.7192 81.9873 25.9829L81.7822 26.1733L80.0977 25.7559ZM94.6582 26.9863H95.8667V28.6929H94.6582V31H92.5415V28.6929H88.1689L88.0737 27.3599L92.5195 20.3359H94.6582V26.9863ZM90.1831 26.9863H92.5415V23.2217L92.4023 23.4634L90.1831 26.9863Z" transform="translate(246 166)" fill="black"/>
<line y1="-0.5" x2="225" y2="-0.5" transform="translate(332 202) rotate(90)" stroke="black"/>
<line y1="-0.5" x2="137" y2="-0.5" transform="translate(195 427)" stroke="black"/>
<path d="M28.3536 0.353553C28.5488 0.158291 28.5488 -0.158291 28.3536 -0.353553L25.1716 -3.53553C24.9763 -3.7308 24.6597 -3.7308 24.4645 -3.53553C24.2692 -3.34027 24.2692 -3.02369 24.4645 -2.82843L27.2929 0L24.4645 2.82843C24.2692 3.02369 24.2692 3.34027 24.4645 3.53553C24.6597 3.7308 24.9763 3.7308 25.1716 3.53553L28.3536 0.353553ZM0 0.5H28V-0.5H0V0.5Z" transform="translate(195 427) rotate(-90)" fill="black"/>
</svg>
