<svg width="511" height="325" viewBox="0 0 511 325" fill="none" xmlns="http://www.w3.org/2000/svg">
<rect width="511" height="325" fill="white"/>
<path d="M41.392 179.252C41.392 178.928 41.398 178.634 41.41 178.37C41.434 178.094 41.458 177.83 41.482 177.578C41.506 177.326 41.524 177.074 41.536 176.822C41.56 176.558 41.572 176.276 41.572 175.976C41.572 175.82 41.536 175.664 41.464 175.508C41.392 175.34 41.26 175.196 41.068 175.076C40.876 174.944 40.612 174.836 40.276 174.752C39.952 174.668 39.538 174.626 39.034 174.626V173.366C39.538 173.366 39.952 173.324 40.276 173.24C40.612 173.156 40.876 173.054 41.068 172.934C41.26 172.802 41.392 172.658 41.464 172.502C41.536 172.346 41.572 172.184 41.572 172.016C41.572 171.452 41.542 170.924 41.482 170.432C41.422 169.928 41.392 169.364 41.392 168.74C41.392 168.26 41.458 167.864 41.59 167.552C41.722 167.228 41.926 166.97 42.202 166.778C42.478 166.586 42.826 166.454 43.246 166.382C43.666 166.298 44.164 166.256 44.74 166.256H45.982V167.39H45.154C44.734 167.39 44.392 167.414 44.128 167.462C43.864 167.51 43.654 167.594 43.498 167.714C43.354 167.822 43.252 167.972 43.192 168.164C43.144 168.344 43.12 168.566 43.12 168.83C43.12 169.334 43.132 169.838 43.156 170.342C43.192 170.846 43.21 171.374 43.21 171.926C43.21 172.562 43.084 173.036 42.832 173.348C42.58 173.648 42.136 173.852 41.5 173.96V174.032C42.136 174.14 42.58 174.35 42.832 174.662C43.084 174.962 43.21 175.43 43.21 176.066C43.21 176.642 43.192 177.17 43.156 177.65C43.132 178.13 43.12 178.634 43.12 179.162C43.12 179.438 43.144 179.666 43.192 179.846C43.252 180.026 43.354 180.17 43.498 180.278C43.654 180.398 43.864 180.482 44.128 180.53C44.392 180.578 44.734 180.602 45.154 180.602H45.982V181.736H44.74C44.164 181.736 43.666 181.694 43.246 181.61C42.826 181.538 42.478 181.406 42.202 181.214C41.926 181.022 41.722 180.764 41.59 180.44C41.458 180.128 41.392 179.732 41.392 179.252ZM63.9859 201.216C62.6779 201.216 61.6399 200.7 60.8719 199.668C60.1159 198.636 59.7379 197.154 59.7379 195.222C59.7379 193.278 60.1159 191.814 60.8719 190.83C61.6399 189.834 62.6779 189.336 63.9859 189.336C65.2939 189.336 66.3259 189.834 67.0819 190.83C67.8499 191.814 68.2339 193.278 68.2339 195.222C68.2339 197.154 67.8499 198.636 67.0819 199.668C66.3259 200.7 65.2939 201.216 63.9859 201.216ZM63.9859 190.956C63.6379 190.956 63.3199 191.034 63.0319 191.19C62.7439 191.334 62.4919 191.574 62.2759 191.91C62.0719 192.246 61.9099 192.69 61.7899 193.242C61.6699 193.782 61.6099 194.442 61.6099 195.222C61.6099 196.002 61.6699 196.674 61.7899 197.238C61.9099 197.79 62.0719 198.24 62.2759 198.588C62.4919 198.936 62.7439 199.194 63.0319 199.362C63.3199 199.518 63.6379 199.596 63.9859 199.596C64.3219 199.596 64.6339 199.518 64.9219 199.362C65.2219 199.194 65.4739 198.936 65.6779 198.588C65.8939 198.24 66.0619 197.79 66.1819 197.238C66.3019 196.674 66.3619 196.002 66.3619 195.222C66.3619 194.442 66.3019 193.782 66.1819 193.242C66.0619 192.69 65.8939 192.246 65.6779 191.91C65.4739 191.574 65.2219 191.334 64.9219 191.19C64.6339 191.034 64.3219 190.956 63.9859 190.956ZM63.9859 196.428C63.6379 196.428 63.3439 196.314 63.1039 196.086C62.8639 195.858 62.7439 195.546 62.7439 195.15C62.7439 194.754 62.8639 194.442 63.1039 194.214C63.3439 193.986 63.6379 193.872 63.9859 193.872C64.3339 193.872 64.6279 193.986 64.8679 194.214C65.1079 194.442 65.2279 194.754 65.2279 195.15C65.2279 195.546 65.1079 195.858 64.8679 196.086C64.6279 196.314 64.3339 196.428 63.9859 196.428ZM72.9969 193.278C72.9969 192.75 73.1649 192.318 73.5009 191.982C73.8369 191.634 74.2629 191.46 74.7789 191.46C75.2949 191.46 75.7209 191.634 76.0569 191.982C76.3929 192.318 76.5609 192.75 76.5609 193.278C76.5609 193.806 76.3929 194.244 76.0569 194.592C75.7209 194.928 75.2949 195.096 74.7789 195.096C74.2629 195.096 73.8369 194.928 73.5009 194.592C73.1649 194.244 72.9969 193.806 72.9969 193.278ZM72.9969 199.398C72.9969 198.87 73.1649 198.438 73.5009 198.102C73.8369 197.754 74.2629 197.58 74.7789 197.58C75.2949 197.58 75.7209 197.754 76.0569 198.102C76.3929 198.438 76.5609 198.87 76.5609 199.398C76.5609 199.926 76.3929 200.364 76.0569 200.712C75.7209 201.048 75.2949 201.216 74.7789 201.216C74.2629 201.216 73.8369 201.048 73.5009 200.712C73.1649 200.364 72.9969 199.926 72.9969 199.398ZM96.3648 201.216C95.0568 201.216 94.0188 200.7 93.2508 199.668C92.4948 198.636 92.1168 197.154 92.1168 195.222C92.1168 193.278 92.4948 191.814 93.2508 190.83C94.0188 189.834 95.0568 189.336 96.3648 189.336C97.6728 189.336 98.7048 189.834 99.4608 190.83C100.229 191.814 100.613 193.278 100.613 195.222C100.613 197.154 100.229 198.636 99.4608 199.668C98.7048 200.7 97.6728 201.216 96.3648 201.216ZM96.3648 190.956C96.0168 190.956 95.6988 191.034 95.4108 191.19C95.1228 191.334 94.8708 191.574 94.6548 191.91C94.4508 192.246 94.2888 192.69 94.1688 193.242C94.0488 193.782 93.9888 194.442 93.9888 195.222C93.9888 196.002 94.0488 196.674 94.1688 197.238C94.2888 197.79 94.4508 198.24 94.6548 198.588C94.8708 198.936 95.1228 199.194 95.4108 199.362C95.6988 199.518 96.0168 199.596 96.3648 199.596C96.7008 199.596 97.0128 199.518 97.3008 199.362C97.6008 199.194 97.8528 198.936 98.0568 198.588C98.2728 198.24 98.4408 197.79 98.5608 197.238C98.6808 196.674 98.7408 196.002 98.7408 195.222C98.7408 194.442 98.6808 193.782 98.5608 193.242C98.4408 192.69 98.2728 192.246 98.0568 191.91C97.8528 191.574 97.6008 191.334 97.3008 191.19C97.0128 191.034 96.7008 190.956 96.3648 190.956ZM96.3648 196.428C96.0168 196.428 95.7228 196.314 95.4828 196.086C95.2428 195.858 95.1228 195.546 95.1228 195.15C95.1228 194.754 95.2428 194.442 95.4828 194.214C95.7228 193.986 96.0168 193.872 96.3648 193.872C96.7128 193.872 97.0068 193.986 97.2468 194.214C97.4868 194.442 97.6068 194.754 97.6068 195.15C97.6068 195.546 97.4868 195.858 97.2468 196.086C97.0068 196.314 96.7128 196.428 96.3648 196.428ZM105.16 203.628C106.684 203.016 107.452 202.092 107.464 200.856C107.404 200.868 107.32 200.874 107.212 200.874C106.756 200.874 106.36 200.742 106.024 200.478C105.688 200.202 105.52 199.8 105.52 199.272C105.52 198.768 105.688 198.378 106.024 198.102C106.372 197.814 106.78 197.67 107.248 197.67C107.896 197.67 108.382 197.91 108.706 198.39C109.03 198.87 109.192 199.53 109.192 200.37C109.192 201.474 108.892 202.404 108.292 203.16C107.692 203.928 106.828 204.498 105.7 204.87L105.16 203.628ZM68.1799 222.308V224H60.2059V222.308H63.3019V214.784H60.9079V213.488C61.5559 213.38 62.1079 213.254 62.5639 213.11C63.0319 212.954 63.4639 212.768 63.8599 212.552H65.3719V222.308H68.1799ZM72.9969 216.278C72.9969 215.75 73.1649 215.318 73.5009 214.982C73.8369 214.634 74.2629 214.46 74.7789 214.46C75.2949 214.46 75.7209 214.634 76.0569 214.982C76.3929 215.318 76.5609 215.75 76.5609 216.278C76.5609 216.806 76.3929 217.244 76.0569 217.592C75.7209 217.928 75.2949 218.096 74.7789 218.096C74.2629 218.096 73.8369 217.928 73.5009 217.592C73.1649 217.244 72.9969 216.806 72.9969 216.278ZM72.9969 222.398C72.9969 221.87 73.1649 221.438 73.5009 221.102C73.8369 220.754 74.2629 220.58 74.7789 220.58C75.2949 220.58 75.7209 220.754 76.0569 221.102C76.3929 221.438 76.5609 221.87 76.5609 222.398C76.5609 222.926 76.3929 223.364 76.0569 223.712C75.7209 224.048 75.2949 224.216 74.7789 224.216C74.2629 224.216 73.8369 224.048 73.5009 223.712C73.1649 223.364 72.9969 222.926 72.9969 222.398ZM100.559 222.308V224H92.5848V222.308H95.6808V214.784H93.2868V213.488C93.9348 213.38 94.4868 213.254 94.9428 213.11C95.4108 212.954 95.8428 212.768 96.2388 212.552H97.7508V222.308H100.559ZM105.16 226.628C106.684 226.016 107.452 225.092 107.464 223.856C107.404 223.868 107.32 223.874 107.212 223.874C106.756 223.874 106.36 223.742 106.024 223.478C105.688 223.202 105.52 222.8 105.52 222.272C105.52 221.768 105.688 221.378 106.024 221.102C106.372 220.814 106.78 220.67 107.248 220.67C107.896 220.67 108.382 220.91 108.706 221.39C109.03 221.87 109.192 222.53 109.192 223.37C109.192 224.474 108.892 225.404 108.292 226.16C107.692 226.928 106.828 227.498 105.7 227.87L105.16 226.628ZM59.7559 244.794C60.6559 244.026 61.4599 243.324 62.1679 242.688C62.8759 242.04 63.4759 241.44 63.9679 240.888C64.4719 240.336 64.8559 239.82 65.1199 239.34C65.3839 238.86 65.5159 238.398 65.5159 237.954C65.5159 237.342 65.3299 236.862 64.9579 236.514C64.5859 236.154 64.0399 235.974 63.3199 235.974C62.8159 235.974 62.3539 236.1 61.9339 236.352C61.5259 236.604 61.1479 236.904 60.7999 237.252L59.6659 236.1C60.2179 235.536 60.7999 235.104 61.4119 234.804C62.0239 234.492 62.7499 234.336 63.5899 234.336C64.1779 234.336 64.7119 234.42 65.1919 234.588C65.6719 234.756 66.0799 234.996 66.4159 235.308C66.7639 235.608 67.0279 235.974 67.2079 236.406C67.3999 236.838 67.4959 237.318 67.4959 237.846C67.4959 238.35 67.3699 238.866 67.1179 239.394C66.8779 239.91 66.5479 240.438 66.1279 240.978C65.7079 241.506 65.2039 242.052 64.6159 242.616C64.0399 243.18 63.4219 243.762 62.7619 244.362C63.0979 244.338 63.4519 244.314 63.8239 244.29C64.1959 244.254 64.5379 244.236 64.8499 244.236H68.0899V246H59.7559V244.794ZM72.9969 238.278C72.9969 237.75 73.1649 237.318 73.5009 236.982C73.8369 236.634 74.2629 236.46 74.7789 236.46C75.2949 236.46 75.7209 236.634 76.0569 236.982C76.3929 237.318 76.5609 237.75 76.5609 238.278C76.5609 238.806 76.3929 239.244 76.0569 239.592C75.7209 239.928 75.2949 240.096 74.7789 240.096C74.2629 240.096 73.8369 239.928 73.5009 239.592C73.1649 239.244 72.9969 238.806 72.9969 238.278ZM72.9969 244.398C72.9969 243.87 73.1649 243.438 73.5009 243.102C73.8369 242.754 74.2629 242.58 74.7789 242.58C75.2949 242.58 75.7209 242.754 76.0569 243.102C76.3929 243.438 76.5609 243.87 76.5609 244.398C76.5609 244.926 76.3929 245.364 76.0569 245.712C75.7209 246.048 75.2949 246.216 74.7789 246.216C74.2629 246.216 73.8369 246.048 73.5009 245.712C73.1649 245.364 72.9969 244.926 72.9969 244.398ZM92.1348 244.794C93.0348 244.026 93.8388 243.324 94.5468 242.688C95.2548 242.04 95.8548 241.44 96.3468 240.888C96.8508 240.336 97.2348 239.82 97.4988 239.34C97.7628 238.86 97.8948 238.398 97.8948 237.954C97.8948 237.342 97.7088 236.862 97.3368 236.514C96.9648 236.154 96.4188 235.974 95.6988 235.974C95.1948 235.974 94.7328 236.1 94.3128 236.352C93.9048 236.604 93.5268 236.904 93.1788 237.252L92.0448 236.1C92.5968 235.536 93.1788 235.104 93.7908 234.804C94.4028 234.492 95.1288 234.336 95.9688 234.336C96.5568 234.336 97.0908 234.42 97.5708 234.588C98.0508 234.756 98.4588 234.996 98.7948 235.308C99.1428 235.608 99.4068 235.974 99.5868 236.406C99.7788 236.838 99.8748 237.318 99.8748 237.846C99.8748 238.35 99.7488 238.866 99.4968 239.394C99.2568 239.91 98.9268 240.438 98.5068 240.978C98.0868 241.506 97.5828 242.052 96.9948 242.616C96.4188 243.18 95.8008 243.762 95.1408 244.362C95.4768 244.338 95.8308 244.314 96.2028 244.29C96.5748 244.254 96.9168 244.236 97.2288 244.236H100.469V246H92.1348V244.794ZM105.16 248.628C106.684 248.016 107.452 247.092 107.464 245.856C107.404 245.868 107.32 245.874 107.212 245.874C106.756 245.874 106.36 245.742 106.024 245.478C105.688 245.202 105.52 244.8 105.52 244.272C105.52 243.768 105.688 243.378 106.024 243.102C106.372 242.814 106.78 242.67 107.248 242.67C107.896 242.67 108.382 242.91 108.706 243.39C109.03 243.87 109.192 244.53 109.192 245.37C109.192 246.474 108.892 247.404 108.292 248.16C107.692 248.928 106.828 249.498 105.7 249.87L105.16 248.628ZM60.4579 266.264C60.8419 266.612 61.2859 266.912 61.7899 267.164C62.3059 267.404 62.8759 267.524 63.4999 267.524C64.2079 267.524 64.7899 267.374 65.2459 267.074C65.7139 266.762 65.9479 266.336 65.9479 265.796C65.9479 265.496 65.8819 265.226 65.7499 264.986C65.6179 264.746 65.4019 264.542 65.1019 264.374C64.8139 264.206 64.4239 264.08 63.9319 263.996C63.4519 263.9 62.8579 263.852 62.1499 263.852V262.34C62.7619 262.34 63.2839 262.298 63.7159 262.214C64.1479 262.118 64.4959 261.992 64.7599 261.836C65.0359 261.668 65.2339 261.47 65.3539 261.242C65.4859 261.014 65.5519 260.768 65.5519 260.504C65.5519 260.024 65.3659 259.652 64.9939 259.388C64.6339 259.112 64.1479 258.974 63.5359 258.974C63.0319 258.974 62.5639 259.076 62.1319 259.28C61.7119 259.472 61.3099 259.73 60.9259 260.054L59.8459 258.776C60.3739 258.344 60.9499 257.996 61.5739 257.732C62.1979 257.468 62.8819 257.336 63.6259 257.336C64.2139 257.336 64.7539 257.402 65.2459 257.534C65.7379 257.666 66.1579 257.864 66.5059 258.128C66.8659 258.38 67.1419 258.698 67.3339 259.082C67.5379 259.454 67.6399 259.88 67.6399 260.36C67.6399 261.008 67.4299 261.548 67.0099 261.98C66.5899 262.412 66.0259 262.748 65.3179 262.988V263.06C65.6899 263.156 66.0379 263.288 66.3619 263.456C66.6979 263.612 66.9859 263.81 67.2259 264.05C67.4779 264.29 67.6759 264.566 67.8199 264.878C67.9639 265.19 68.0359 265.532 68.0359 265.904C68.0359 266.432 67.9159 266.9 67.6759 267.308C67.4479 267.716 67.1359 268.064 66.7399 268.352C66.3439 268.628 65.8819 268.844 65.3539 269C64.8259 269.144 64.2679 269.216 63.6799 269.216C62.6959 269.216 61.8559 269.06 61.1599 268.748C60.4639 268.436 59.9059 268.052 59.4859 267.596L60.4579 266.264ZM72.9969 261.278C72.9969 260.75 73.1649 260.318 73.5009 259.982C73.8369 259.634 74.2629 259.46 74.7789 259.46C75.2949 259.46 75.7209 259.634 76.0569 259.982C76.3929 260.318 76.5609 260.75 76.5609 261.278C76.5609 261.806 76.3929 262.244 76.0569 262.592C75.7209 262.928 75.2949 263.096 74.7789 263.096C74.2629 263.096 73.8369 262.928 73.5009 262.592C73.1649 262.244 72.9969 261.806 72.9969 261.278ZM72.9969 267.398C72.9969 266.87 73.1649 266.438 73.5009 266.102C73.8369 265.754 74.2629 265.58 74.7789 265.58C75.2949 265.58 75.7209 265.754 76.0569 266.102C76.3929 266.438 76.5609 266.87 76.5609 267.398C76.5609 267.926 76.3929 268.364 76.0569 268.712C75.7209 269.048 75.2949 269.216 74.7789 269.216C74.2629 269.216 73.8369 269.048 73.5009 268.712C73.1649 268.364 72.9969 267.926 72.9969 267.398ZM92.8368 266.264C93.2208 266.612 93.6648 266.912 94.1688 267.164C94.6848 267.404 95.2548 267.524 95.8788 267.524C96.5868 267.524 97.1688 267.374 97.6248 267.074C98.0928 266.762 98.3268 266.336 98.3268 265.796C98.3268 265.496 98.2608 265.226 98.1288 264.986C97.9968 264.746 97.7808 264.542 97.4808 264.374C97.1928 264.206 96.8028 264.08 96.3108 263.996C95.8308 263.9 95.2368 263.852 94.5288 263.852V262.34C95.1408 262.34 95.6628 262.298 96.0948 262.214C96.5268 262.118 96.8748 261.992 97.1388 261.836C97.4148 261.668 97.6128 261.47 97.7328 261.242C97.8648 261.014 97.9308 260.768 97.9308 260.504C97.9308 260.024 97.7448 259.652 97.3728 259.388C97.0128 259.112 96.5268 258.974 95.9148 258.974C95.4108 258.974 94.9428 259.076 94.5108 259.28C94.0908 259.472 93.6888 259.73 93.3048 260.054L92.2248 258.776C92.7528 258.344 93.3288 257.996 93.9528 257.732C94.5768 257.468 95.2608 257.336 96.0048 257.336C96.5928 257.336 97.1328 257.402 97.6248 257.534C98.1168 257.666 98.5368 257.864 98.8848 258.128C99.2448 258.38 99.5208 258.698 99.7128 259.082C99.9168 259.454 100.019 259.88 100.019 260.36C100.019 261.008 99.8088 261.548 99.3888 261.98C98.9688 262.412 98.4048 262.748 97.6968 262.988V263.06C98.0688 263.156 98.4168 263.288 98.7408 263.456C99.0768 263.612 99.3648 263.81 99.6048 264.05C99.8568 264.29 100.055 264.566 100.199 264.878C100.343 265.19 100.415 265.532 100.415 265.904C100.415 266.432 100.295 266.9 100.055 267.308C99.8268 267.716 99.5148 268.064 99.1188 268.352C98.7228 268.628 98.2608 268.844 97.7328 269C97.2048 269.144 96.6468 269.216 96.0588 269.216C95.0748 269.216 94.2348 269.06 93.5388 268.748C92.8428 268.436 92.2848 268.052 91.8648 267.596L92.8368 266.264ZM105.16 271.628C106.684 271.016 107.452 270.092 107.464 268.856C107.404 268.868 107.32 268.874 107.212 268.874C106.756 268.874 106.36 268.742 106.024 268.478C105.688 268.202 105.52 267.8 105.52 267.272C105.52 266.768 105.688 266.378 106.024 266.102C106.372 265.814 106.78 265.67 107.248 265.67C107.896 265.67 108.382 265.91 108.706 266.39C109.03 266.87 109.192 267.53 109.192 268.37C109.192 269.474 108.892 270.404 108.292 271.16C107.692 271.928 106.828 272.498 105.7 272.87L105.16 271.628ZM64.9579 287.446V284.71C64.9699 284.362 64.9819 283.984 64.9939 283.576C65.0179 283.168 65.0419 282.79 65.0659 282.442H64.9759C64.7839 282.742 64.5859 283.042 64.3819 283.342C64.1779 283.642 63.9739 283.948 63.7699 284.26L61.3579 287.446H64.9579ZM68.5219 289.048H66.9019V292H64.9579V289.048H59.2519V287.644L64.5079 280.534H66.9019V287.446H68.5219V289.048ZM72.9969 284.278C72.9969 283.75 73.1649 283.318 73.5009 282.982C73.8369 282.634 74.2629 282.46 74.7789 282.46C75.2949 282.46 75.7209 282.634 76.0569 282.982C76.3929 283.318 76.5609 283.75 76.5609 284.278C76.5609 284.806 76.3929 285.244 76.0569 285.592C75.7209 285.928 75.2949 286.096 74.7789 286.096C74.2629 286.096 73.8369 285.928 73.5009 285.592C73.1649 285.244 72.9969 284.806 72.9969 284.278ZM72.9969 290.398C72.9969 289.87 73.1649 289.438 73.5009 289.102C73.8369 288.754 74.2629 288.58 74.7789 288.58C75.2949 288.58 75.7209 288.754 76.0569 289.102C76.3929 289.438 76.5609 289.87 76.5609 290.398C76.5609 290.926 76.3929 291.364 76.0569 291.712C75.7209 292.048 75.2949 292.216 74.7789 292.216C74.2629 292.216 73.8369 292.048 73.5009 291.712C73.1649 291.364 72.9969 290.926 72.9969 290.398ZM97.3368 287.446V284.71C97.3488 284.362 97.3608 283.984 97.3728 283.576C97.3968 283.168 97.4208 282.79 97.4448 282.442H97.3548C97.1628 282.742 96.9648 283.042 96.7608 283.342C96.5568 283.642 96.3528 283.948 96.1488 284.26L93.7368 287.446H97.3368ZM100.901 289.048H99.2808V292H97.3368V289.048H91.6308V287.644L96.8868 280.534H99.2808V287.446H100.901V289.048ZM39.664 315.602C40.072 315.602 40.408 315.578 40.672 315.53C40.936 315.482 41.146 315.398 41.302 315.278C41.458 315.17 41.56 315.026 41.608 314.846C41.668 314.666 41.698 314.438 41.698 314.162C41.698 313.634 41.68 313.13 41.644 312.65C41.62 312.17 41.608 311.642 41.608 311.066C41.608 310.43 41.728 309.962 41.968 309.662C42.22 309.35 42.67 309.14 43.318 309.032V308.96C42.67 308.852 42.22 308.648 41.968 308.348C41.728 308.036 41.608 307.562 41.608 306.926C41.608 306.374 41.62 305.846 41.644 305.342C41.68 304.838 41.698 304.334 41.698 303.83C41.698 303.566 41.668 303.344 41.608 303.164C41.56 302.972 41.458 302.822 41.302 302.714C41.146 302.594 40.936 302.51 40.672 302.462C40.408 302.414 40.072 302.39 39.664 302.39H38.836V301.256H40.078C40.654 301.256 41.146 301.298 41.554 301.382C41.974 301.454 42.322 301.586 42.598 301.778C42.874 301.97 43.078 302.228 43.21 302.552C43.342 302.864 43.408 303.26 43.408 303.74C43.408 304.364 43.378 304.928 43.318 305.432C43.258 305.924 43.228 306.452 43.228 307.016C43.228 307.184 43.264 307.346 43.336 307.502C43.408 307.658 43.54 307.802 43.732 307.934C43.924 308.054 44.182 308.156 44.506 308.24C44.842 308.324 45.262 308.366 45.766 308.366V309.626C45.262 309.626 44.842 309.668 44.506 309.752C44.182 309.836 43.924 309.944 43.732 310.076C43.54 310.196 43.408 310.34 43.336 310.508C43.264 310.664 43.228 310.82 43.228 310.976C43.228 311.276 43.234 311.558 43.246 311.822C43.27 312.074 43.294 312.326 43.318 312.578C43.342 312.83 43.36 313.094 43.372 313.37C43.396 313.634 43.408 313.928 43.408 314.252C43.408 314.732 43.342 315.128 43.21 315.44C43.078 315.764 42.874 316.022 42.598 316.214C42.322 316.406 41.974 316.538 41.554 316.61C41.146 316.694 40.654 316.736 40.078 316.736H38.836V315.602H39.664Z" fill="#2E383C"/>
<path d="M32 109H478.969V155H32V109Z" fill="#F1F4F8"/>
<path d="M40.9594 123.422C40.9594 122.702 41.0674 122.054 41.2834 121.478C41.4994 120.902 41.7874 120.416 42.1474 120.02C42.5194 119.624 42.9394 119.318 43.4074 119.102C43.8754 118.886 44.3614 118.778 44.8654 118.778C45.3934 118.778 45.8434 118.874 46.2154 119.066C46.5994 119.246 46.9714 119.498 47.3314 119.822L47.2414 118.328V115.124H49.3294V127.832H47.6194L47.4574 126.806H47.4034C47.0554 127.154 46.6474 127.448 46.1794 127.688C45.7234 127.928 45.2434 128.048 44.7394 128.048C44.1754 128.048 43.6594 127.946 43.1914 127.742C42.7234 127.526 42.3214 127.22 41.9854 126.824C41.6614 126.428 41.4094 125.948 41.2294 125.384C41.0494 124.808 40.9594 124.154 40.9594 123.422ZM43.1014 123.404C43.1014 124.364 43.2874 125.096 43.6594 125.6C44.0314 126.092 44.5594 126.338 45.2434 126.338C45.9754 126.338 46.6414 125.984 47.2414 125.276V121.298C46.9294 120.998 46.6174 120.788 46.3054 120.668C45.9934 120.548 45.6754 120.488 45.3514 120.488C45.0394 120.488 44.7454 120.554 44.4694 120.686C44.2054 120.818 43.9714 121.01 43.7674 121.262C43.5634 121.502 43.4014 121.802 43.2814 122.162C43.1614 122.522 43.1014 122.936 43.1014 123.404ZM52.3104 118.994H58.2144V127.832H56.1444V120.632H52.3104V118.994ZM57.0264 117.446C56.6064 117.446 56.2524 117.32 55.9644 117.068C55.6884 116.816 55.5504 116.48 55.5504 116.06C55.5504 115.64 55.6884 115.304 55.9644 115.052C56.2524 114.788 56.6064 114.656 57.0264 114.656C57.4584 114.656 57.8124 114.788 58.0884 115.052C58.3644 115.304 58.5024 115.64 58.5024 116.06C58.5024 116.48 58.3644 116.816 58.0884 117.068C57.8124 117.32 57.4584 117.446 57.0264 117.446ZM62.9054 123.422C62.9054 122.69 63.0374 122.036 63.3014 121.46C63.5774 120.884 63.9434 120.398 64.3994 120.002C64.8554 119.606 65.3894 119.306 66.0014 119.102C66.6134 118.886 67.2554 118.778 67.9274 118.778C68.6474 118.778 69.2774 118.898 69.8174 119.138C70.3694 119.378 70.8314 119.672 71.2034 120.02L70.2134 121.316C69.8654 121.04 69.5114 120.83 69.1514 120.686C68.8034 120.542 68.4314 120.47 68.0354 120.47C67.1474 120.47 66.4274 120.74 65.8754 121.28C65.3234 121.808 65.0474 122.522 65.0474 123.422C65.0474 123.866 65.1194 124.268 65.2634 124.628C65.4074 124.988 65.6054 125.3 65.8574 125.564C66.1214 125.816 66.4334 126.014 66.7934 126.158C67.1534 126.29 67.5494 126.356 67.9814 126.356C68.4854 126.356 68.9414 126.26 69.3494 126.068C69.7694 125.876 70.1534 125.648 70.5014 125.384L71.3654 126.716C70.8614 127.16 70.2974 127.496 69.6734 127.724C69.0494 127.94 68.4194 128.048 67.7834 128.048C67.0874 128.048 66.4394 127.946 65.8394 127.742C65.2514 127.538 64.7354 127.238 64.2914 126.842C63.8594 126.446 63.5174 125.96 63.2654 125.384C63.0254 124.808 62.9054 124.154 62.9054 123.422ZM75.8043 120.632H73.4463V119.084L75.8943 118.994L76.1643 116.582H77.8743V118.994H81.9063V120.632H77.8743V124.268C77.8743 125 78.0243 125.54 78.3243 125.888C78.6243 126.224 79.1523 126.392 79.9083 126.392C80.2923 126.392 80.6403 126.362 80.9523 126.302C81.2643 126.23 81.5643 126.14 81.8523 126.032L82.2483 127.544C81.8523 127.676 81.4143 127.79 80.9343 127.886C80.4543 127.994 79.9443 128.048 79.4043 128.048C78.7323 128.048 78.1683 127.958 77.7123 127.778C77.2563 127.598 76.8843 127.346 76.5963 127.022C76.3203 126.686 76.1163 126.284 75.9843 125.816C75.8643 125.348 75.8043 124.832 75.8043 124.268V120.632ZM92.8973 128.948V130.568H84.2573V128.948H92.8973ZM95.4823 118.994H101.386V127.832H99.3163V120.632H95.4823V118.994ZM100.198 117.446C99.7783 117.446 99.4243 117.32 99.1363 117.068C98.8603 116.816 98.7223 116.48 98.7223 116.06C98.7223 115.64 98.8603 115.304 99.1363 115.052C99.4243 114.788 99.7783 114.656 100.198 114.656C100.63 114.656 100.984 114.788 101.26 115.052C101.536 115.304 101.674 115.64 101.674 116.06C101.674 116.48 101.536 116.816 101.26 117.068C100.984 117.32 100.63 117.446 100.198 117.446ZM106.239 118.994H107.949L108.111 120.326H108.183C108.603 119.906 109.065 119.546 109.569 119.246C110.085 118.934 110.685 118.778 111.369 118.778C112.389 118.778 113.139 119.09 113.619 119.714C114.099 120.326 114.339 121.208 114.339 122.36V127.832H112.251V122.63C112.251 121.91 112.125 121.388 111.873 121.064C111.633 120.728 111.207 120.56 110.595 120.56C110.163 120.56 109.779 120.662 109.443 120.866C109.107 121.07 108.735 121.382 108.327 121.802V127.832H106.239V118.994ZM118.976 120.632H116.618V119.084L119.066 118.994L119.336 116.582H121.046V118.994H125.078V120.632H121.046V124.268C121.046 125 121.196 125.54 121.496 125.888C121.796 126.224 122.324 126.392 123.08 126.392C123.464 126.392 123.812 126.362 124.124 126.302C124.436 126.23 124.736 126.14 125.024 126.032L125.42 127.544C125.024 127.676 124.586 127.79 124.106 127.886C123.626 127.994 123.116 128.048 122.576 128.048C121.904 128.048 121.34 127.958 120.884 127.778C120.428 127.598 120.056 127.346 119.768 127.022C119.492 126.686 119.288 126.284 119.156 125.816C119.036 125.348 118.976 124.832 118.976 124.268V120.632ZM128.437 125.366C128.941 125.714 129.463 125.99 130.003 126.194C130.555 126.386 131.173 126.482 131.857 126.482C132.553 126.482 133.063 126.386 133.387 126.194C133.711 125.99 133.873 125.732 133.873 125.42C133.873 125.108 133.663 124.85 133.243 124.646C132.823 124.43 132.163 124.202 131.263 123.962C130.843 123.854 130.435 123.722 130.039 123.566C129.643 123.41 129.295 123.23 128.995 123.026C128.695 122.822 128.455 122.588 128.275 122.324C128.095 122.06 128.005 121.76 128.005 121.424C128.005 120.644 128.341 120.008 129.013 119.516C129.685 119.024 130.651 118.778 131.911 118.778C132.631 118.778 133.309 118.898 133.945 119.138C134.581 119.378 135.127 119.648 135.583 119.948L134.629 121.226C134.233 120.962 133.807 120.752 133.351 120.596C132.907 120.428 132.433 120.344 131.929 120.344C131.245 120.344 130.765 120.44 130.489 120.632C130.213 120.812 130.075 121.04 130.075 121.316C130.075 121.472 130.135 121.616 130.255 121.748C130.387 121.868 130.561 121.982 130.777 122.09C131.005 122.186 131.269 122.282 131.569 122.378C131.869 122.474 132.199 122.564 132.559 122.648C133.075 122.78 133.537 122.93 133.945 123.098C134.365 123.254 134.719 123.434 135.007 123.638C135.307 123.842 135.535 124.082 135.691 124.358C135.859 124.634 135.943 124.952 135.943 125.312C135.943 125.696 135.853 126.056 135.673 126.392C135.493 126.716 135.229 127.004 134.881 127.256C134.533 127.496 134.101 127.688 133.585 127.832C133.069 127.976 132.475 128.048 131.803 128.048C130.975 128.048 130.183 127.916 129.427 127.652C128.671 127.388 128.017 127.064 127.465 126.68L128.437 125.366Z" fill="#009E73"/>
<path d="M149.339 119.12H157.331V120.632H149.339V119.12ZM149.339 123.134H157.331V124.646H149.339V123.134ZM173.913 128.084C173.913 127.76 173.919 127.466 173.931 127.202C173.955 126.926 173.979 126.662 174.003 126.41C174.027 126.158 174.045 125.906 174.057 125.654C174.081 125.39 174.093 125.108 174.093 124.808C174.093 124.652 174.057 124.496 173.985 124.34C173.913 124.172 173.781 124.028 173.589 123.908C173.397 123.776 173.133 123.668 172.797 123.584C172.473 123.5 172.059 123.458 171.555 123.458V122.198C172.059 122.198 172.473 122.156 172.797 122.072C173.133 121.988 173.397 121.886 173.589 121.766C173.781 121.634 173.913 121.49 173.985 121.334C174.057 121.178 174.093 121.016 174.093 120.848C174.093 120.284 174.063 119.756 174.003 119.264C173.943 118.76 173.913 118.196 173.913 117.572C173.913 117.092 173.979 116.696 174.111 116.384C174.243 116.06 174.447 115.802 174.723 115.61C174.999 115.418 175.347 115.286 175.767 115.214C176.187 115.13 176.685 115.088 177.261 115.088H178.503V116.222H177.675C177.255 116.222 176.913 116.246 176.649 116.294C176.385 116.342 176.175 116.426 176.019 116.546C175.875 116.654 175.773 116.804 175.713 116.996C175.665 117.176 175.641 117.398 175.641 117.662C175.641 118.166 175.653 118.67 175.677 119.174C175.713 119.678 175.731 120.206 175.731 120.758C175.731 121.394 175.605 121.868 175.353 122.18C175.101 122.48 174.657 122.684 174.021 122.792V122.864C174.657 122.972 175.101 123.182 175.353 123.494C175.605 123.794 175.731 124.262 175.731 124.898C175.731 125.474 175.713 126.002 175.677 126.482C175.653 126.962 175.641 127.466 175.641 127.994C175.641 128.27 175.665 128.498 175.713 128.678C175.773 128.858 175.875 129.002 176.019 129.11C176.175 129.23 176.385 129.314 176.649 129.362C176.913 129.41 177.255 129.434 177.675 129.434H178.503V130.568H177.261C176.685 130.568 176.187 130.526 175.767 130.442C175.347 130.37 174.999 130.238 174.723 130.046C174.447 129.854 174.243 129.596 174.111 129.272C173.979 128.96 173.913 128.564 173.913 128.084ZM409.63 129.434C410.038 129.434 410.374 129.41 410.638 129.362C410.902 129.314 411.112 129.23 411.268 129.11C411.424 129.002 411.526 128.858 411.574 128.678C411.634 128.498 411.664 128.27 411.664 127.994C411.664 127.466 411.646 126.962 411.61 126.482C411.586 126.002 411.574 125.474 411.574 124.898C411.574 124.262 411.694 123.794 411.934 123.494C412.186 123.182 412.636 122.972 413.284 122.864V122.792C412.636 122.684 412.186 122.48 411.934 122.18C411.694 121.868 411.574 121.394 411.574 120.758C411.574 120.206 411.586 119.678 411.61 119.174C411.646 118.67 411.664 118.166 411.664 117.662C411.664 117.398 411.634 117.176 411.574 116.996C411.526 116.804 411.424 116.654 411.268 116.546C411.112 116.426 410.902 116.342 410.638 116.294C410.374 116.246 410.038 116.222 409.63 116.222H408.802V115.088H410.044C410.62 115.088 411.112 115.13 411.52 115.214C411.94 115.286 412.288 115.418 412.564 115.61C412.84 115.802 413.044 116.06 413.176 116.384C413.308 116.696 413.374 117.092 413.374 117.572C413.374 118.196 413.344 118.76 413.284 119.264C413.224 119.756 413.194 120.284 413.194 120.848C413.194 121.016 413.23 121.178 413.302 121.334C413.374 121.49 413.506 121.634 413.698 121.766C413.89 121.886 414.148 121.988 414.472 122.072C414.808 122.156 415.228 122.198 415.732 122.198V123.458C415.228 123.458 414.808 123.5 414.472 123.584C414.148 123.668 413.89 123.776 413.698 123.908C413.506 124.028 413.374 124.172 413.302 124.34C413.23 124.496 413.194 124.652 413.194 124.808C413.194 125.108 413.2 125.39 413.212 125.654C413.236 125.906 413.26 126.158 413.284 126.41C413.308 126.662 413.326 126.926 413.338 127.202C413.362 127.466 413.374 127.76 413.374 128.084C413.374 128.564 413.308 128.96 413.176 129.272C413.044 129.596 412.84 129.854 412.564 130.046C412.288 130.238 411.94 130.37 411.52 130.442C411.112 130.526 410.62 130.568 410.044 130.568H408.802V129.434H409.63ZM43.5694 150.552V153.324H41.4814V140.994H43.1914L43.3534 142.002H43.4074C43.7914 141.654 44.2294 141.366 44.7214 141.138C45.2254 140.898 45.7294 140.778 46.2334 140.778C46.8094 140.778 47.3194 140.886 47.7634 141.102C48.2194 141.306 48.5974 141.606 48.8974 142.002C49.2094 142.398 49.4434 142.872 49.5994 143.424C49.7674 143.976 49.8514 144.594 49.8514 145.278C49.8514 146.034 49.7434 146.712 49.5274 147.312C49.3114 147.9 49.0174 148.398 48.6454 148.806C48.2854 149.202 47.8654 149.508 47.3854 149.724C46.9174 149.94 46.4314 150.048 45.9274 150.048C45.5194 150.048 45.0994 149.958 44.6674 149.778C44.2474 149.598 43.8574 149.34 43.4974 149.004L43.5694 150.552ZM43.5694 147.528C43.8934 147.828 44.2234 148.038 44.5594 148.158C44.9074 148.278 45.2194 148.338 45.4954 148.338C46.1314 148.338 46.6594 148.086 47.0794 147.582C47.4994 147.066 47.7094 146.304 47.7094 145.296C47.7094 144.408 47.5474 143.718 47.2234 143.226C46.8994 142.734 46.3774 142.488 45.6574 142.488C45.3214 142.488 44.9794 142.572 44.6314 142.74C44.2834 142.908 43.9294 143.178 43.5694 143.55V147.528ZM53.1384 140.994H54.8484L55.0284 142.992H55.0824C55.5384 142.272 56.0844 141.726 56.7204 141.354C57.3684 140.97 58.0764 140.778 58.8444 140.778C59.2044 140.778 59.5104 140.808 59.7624 140.868C60.0264 140.916 60.2904 141.006 60.5544 141.138L60.1224 142.884C59.8344 142.788 59.5764 142.722 59.3484 142.686C59.1324 142.638 58.8564 142.614 58.5204 142.614C57.9084 142.614 57.3204 142.788 56.7564 143.136C56.1924 143.484 55.6824 144.09 55.2264 144.954V149.832H53.1384V140.994ZM63.1034 140.994H69.0074V149.832H66.9374V142.632H63.1034V140.994ZM67.8194 139.446C67.3994 139.446 67.0454 139.32 66.7574 139.068C66.4814 138.816 66.3434 138.48 66.3434 138.06C66.3434 137.64 66.4814 137.304 66.7574 137.052C67.0454 136.788 67.3994 136.656 67.8194 136.656C68.2514 136.656 68.6054 136.788 68.8814 137.052C69.1574 137.304 69.2954 137.64 69.2954 138.06C69.2954 138.48 69.1574 138.816 68.8814 139.068C68.6054 139.32 68.2514 139.446 67.8194 139.446ZM73.8603 140.994H75.5703L75.7323 142.326H75.8043C76.2243 141.906 76.6863 141.546 77.1903 141.246C77.7063 140.934 78.3063 140.778 78.9903 140.778C80.0103 140.778 80.7603 141.09 81.2403 141.714C81.7203 142.326 81.9603 143.208 81.9603 144.36V149.832H79.8723V144.63C79.8723 143.91 79.7463 143.388 79.4943 143.064C79.2543 142.728 78.8283 142.56 78.2163 142.56C77.7843 142.56 77.4003 142.662 77.0643 142.866C76.7283 143.07 76.3563 143.382 75.9483 143.802V149.832H73.8603V140.994ZM86.5973 142.632H84.2393V141.084L86.6873 140.994L86.9573 138.582H88.6673V140.994H92.6993V142.632H88.6673V146.268C88.6673 147 88.8173 147.54 89.1173 147.888C89.4173 148.224 89.9453 148.392 90.7013 148.392C91.0853 148.392 91.4333 148.362 91.7453 148.302C92.0573 148.23 92.3573 148.14 92.6453 148.032L93.0413 149.544C92.6453 149.676 92.2073 149.79 91.7273 149.886C91.2473 149.994 90.7373 150.048 90.1973 150.048C89.5253 150.048 88.9613 149.958 88.5053 149.778C88.0493 149.598 87.6773 149.346 87.3893 149.022C87.1133 148.686 86.9093 148.284 86.7773 147.816C86.6573 147.348 86.5973 146.832 86.5973 146.268V142.632ZM101.386 153.018C100.174 152.01 99.2143 150.822 98.5063 149.454C97.8103 148.086 97.4623 146.544 97.4623 144.828C97.4623 143.112 97.8103 141.57 98.5063 140.202C99.2143 138.834 100.174 137.646 101.386 136.638L102.538 137.592C101.398 138.624 100.564 139.722 100.036 140.886C99.5083 142.05 99.2443 143.364 99.2443 144.828C99.2443 146.292 99.5083 147.606 100.036 148.77C100.564 149.934 101.398 151.032 102.538 152.064L101.386 153.018ZM105.717 145.422C105.717 144.702 105.825 144.054 106.041 143.478C106.257 142.902 106.545 142.416 106.905 142.02C107.277 141.624 107.697 141.318 108.165 141.102C108.633 140.886 109.119 140.778 109.623 140.778C110.151 140.778 110.601 140.874 110.973 141.066C111.357 141.246 111.729 141.498 112.089 141.822L111.999 140.328V137.124H114.087V149.832H112.377L112.215 148.806H112.161C111.813 149.154 111.405 149.448 110.937 149.688C110.481 149.928 110.001 150.048 109.497 150.048C108.933 150.048 108.417 149.946 107.949 149.742C107.481 149.526 107.079 149.22 106.743 148.824C106.419 148.428 106.167 147.948 105.987 147.384C105.807 146.808 105.717 146.154 105.717 145.422ZM107.859 145.404C107.859 146.364 108.045 147.096 108.417 147.6C108.789 148.092 109.317 148.338 110.001 148.338C110.733 148.338 111.399 147.984 111.999 147.276V143.298C111.687 142.998 111.375 142.788 111.063 142.668C110.751 142.548 110.433 142.488 110.109 142.488C109.797 142.488 109.503 142.554 109.227 142.686C108.963 142.818 108.729 143.01 108.525 143.262C108.321 143.502 108.159 143.802 108.039 144.162C107.919 144.522 107.859 144.936 107.859 145.404ZM117.068 140.994H122.972V149.832H120.902V142.632H117.068V140.994ZM121.784 139.446C121.364 139.446 121.01 139.32 120.722 139.068C120.446 138.816 120.308 138.48 120.308 138.06C120.308 137.64 120.446 137.304 120.722 137.052C121.01 136.788 121.364 136.656 121.784 136.656C122.216 136.656 122.57 136.788 122.846 137.052C123.122 137.304 123.26 137.64 123.26 138.06C123.26 138.48 123.122 138.816 122.846 139.068C122.57 139.32 122.216 139.446 121.784 139.446ZM127.663 145.422C127.663 144.69 127.795 144.036 128.059 143.46C128.335 142.884 128.701 142.398 129.157 142.002C129.613 141.606 130.147 141.306 130.759 141.102C131.371 140.886 132.013 140.778 132.685 140.778C133.405 140.778 134.035 140.898 134.575 141.138C135.127 141.378 135.589 141.672 135.961 142.02L134.971 143.316C134.623 143.04 134.269 142.83 133.909 142.686C133.561 142.542 133.189 142.47 132.793 142.47C131.905 142.47 131.185 142.74 130.633 143.28C130.081 143.808 129.805 144.522 129.805 145.422C129.805 145.866 129.877 146.268 130.021 146.628C130.165 146.988 130.363 147.3 130.615 147.564C130.879 147.816 131.191 148.014 131.551 148.158C131.911 148.29 132.307 148.356 132.739 148.356C133.243 148.356 133.699 148.26 134.107 148.068C134.527 147.876 134.911 147.648 135.259 147.384L136.123 148.716C135.619 149.16 135.055 149.496 134.431 149.724C133.807 149.94 133.177 150.048 132.541 150.048C131.845 150.048 131.197 149.946 130.597 149.742C130.009 149.538 129.493 149.238 129.049 148.842C128.617 148.446 128.275 147.96 128.023 147.384C127.783 146.808 127.663 146.154 127.663 145.422ZM140.562 142.632H138.204V141.084L140.652 140.994L140.922 138.582H142.632V140.994H146.664V142.632H142.632V146.268C142.632 147 142.782 147.54 143.082 147.888C143.382 148.224 143.91 148.392 144.666 148.392C145.05 148.392 145.398 148.362 145.71 148.302C146.022 148.23 146.322 148.14 146.61 148.032L147.006 149.544C146.61 149.676 146.172 149.79 145.692 149.886C145.212 149.994 144.702 150.048 144.162 150.048C143.49 150.048 142.926 149.958 142.47 149.778C142.014 149.598 141.642 149.346 141.354 149.022C141.078 148.686 140.874 148.284 140.742 147.816C140.622 147.348 140.562 146.832 140.562 146.268V142.632ZM157.655 150.948V152.568H149.015V150.948H157.655ZM160.24 140.994H166.144V149.832H164.074V142.632H160.24V140.994ZM164.956 139.446C164.536 139.446 164.182 139.32 163.894 139.068C163.618 138.816 163.48 138.48 163.48 138.06C163.48 137.64 163.618 137.304 163.894 137.052C164.182 136.788 164.536 136.656 164.956 136.656C165.388 136.656 165.742 136.788 166.018 137.052C166.294 137.304 166.432 137.64 166.432 138.06C166.432 138.48 166.294 138.816 166.018 139.068C165.742 139.32 165.388 139.446 164.956 139.446ZM170.997 140.994H172.707L172.869 142.326H172.941C173.361 141.906 173.823 141.546 174.327 141.246C174.843 140.934 175.443 140.778 176.127 140.778C177.147 140.778 177.897 141.09 178.377 141.714C178.857 142.326 179.097 143.208 179.097 144.36V149.832H177.009V144.63C177.009 143.91 176.883 143.388 176.631 143.064C176.391 142.728 175.965 142.56 175.353 142.56C174.921 142.56 174.537 142.662 174.201 142.866C173.865 143.07 173.493 143.382 173.085 143.802V149.832H170.997V140.994ZM183.734 142.632H181.376V141.084L183.824 140.994L184.094 138.582H185.804V140.994H189.836V142.632H185.804V146.268C185.804 147 185.954 147.54 186.254 147.888C186.554 148.224 187.082 148.392 187.838 148.392C188.222 148.392 188.57 148.362 188.882 148.302C189.194 148.23 189.494 148.14 189.782 148.032L190.178 149.544C189.782 149.676 189.344 149.79 188.864 149.886C188.384 149.994 187.874 150.048 187.334 150.048C186.662 150.048 186.098 149.958 185.642 149.778C185.186 149.598 184.814 149.346 184.526 149.022C184.25 148.686 184.046 148.284 183.914 147.816C183.794 147.348 183.734 146.832 183.734 146.268V142.632ZM193.195 147.366C193.699 147.714 194.221 147.99 194.761 148.194C195.313 148.386 195.931 148.482 196.615 148.482C197.311 148.482 197.821 148.386 198.145 148.194C198.469 147.99 198.631 147.732 198.631 147.42C198.631 147.108 198.421 146.85 198.001 146.646C197.581 146.43 196.921 146.202 196.021 145.962C195.601 145.854 195.193 145.722 194.797 145.566C194.401 145.41 194.053 145.23 193.753 145.026C193.453 144.822 193.213 144.588 193.033 144.324C192.853 144.06 192.763 143.76 192.763 143.424C192.763 142.644 193.099 142.008 193.771 141.516C194.443 141.024 195.409 140.778 196.669 140.778C197.389 140.778 198.067 140.898 198.703 141.138C199.339 141.378 199.885 141.648 200.341 141.948L199.387 143.226C198.991 142.962 198.565 142.752 198.109 142.596C197.665 142.428 197.191 142.344 196.687 142.344C196.003 142.344 195.523 142.44 195.247 142.632C194.971 142.812 194.833 143.04 194.833 143.316C194.833 143.472 194.893 143.616 195.013 143.748C195.145 143.868 195.319 143.982 195.535 144.09C195.763 144.186 196.027 144.282 196.327 144.378C196.627 144.474 196.957 144.564 197.317 144.648C197.833 144.78 198.295 144.93 198.703 145.098C199.123 145.254 199.477 145.434 199.765 145.638C200.065 145.842 200.293 146.082 200.449 146.358C200.617 146.634 200.701 146.952 200.701 147.312C200.701 147.696 200.611 148.056 200.431 148.392C200.251 148.716 199.987 149.004 199.639 149.256C199.291 149.496 198.859 149.688 198.343 149.832C197.827 149.976 197.233 150.048 196.561 150.048C195.733 150.048 194.941 149.916 194.185 149.652C193.429 149.388 192.775 149.064 192.223 148.68L193.195 147.366ZM204.132 152.064C205.272 151.032 206.106 149.934 206.634 148.77C207.162 147.606 207.426 146.292 207.426 144.828C207.426 143.364 207.162 142.05 206.634 140.886C206.106 139.722 205.272 138.624 204.132 137.592L205.284 136.638C206.496 137.646 207.45 138.834 208.146 140.202C208.854 141.57 209.208 143.112 209.208 144.828C209.208 146.544 208.854 148.086 208.146 149.454C207.45 150.822 206.496 152.01 205.284 153.018L204.132 152.064Z" fill="#2E383C"/>
<path d="M181.826 118.994H187.73V127.832H185.66V120.632H181.826V118.994ZM186.542 117.446C186.122 117.446 185.768 117.32 185.48 117.068C185.204 116.816 185.066 116.48 185.066 116.06C185.066 115.64 185.204 115.304 185.48 115.052C185.768 114.788 186.122 114.656 186.542 114.656C186.974 114.656 187.328 114.788 187.604 115.052C187.88 115.304 188.018 115.64 188.018 116.06C188.018 116.48 187.88 116.816 187.604 117.068C187.328 117.32 186.974 117.446 186.542 117.446ZM194.725 120.11C194.725 119.582 194.893 119.15 195.229 118.814C195.565 118.466 195.991 118.292 196.507 118.292C197.023 118.292 197.449 118.466 197.785 118.814C198.121 119.15 198.289 119.582 198.289 120.11C198.289 120.638 198.121 121.076 197.785 121.424C197.449 121.76 197.023 121.928 196.507 121.928C195.991 121.928 195.565 121.76 195.229 121.424C194.893 121.076 194.725 120.638 194.725 120.11ZM194.725 126.23C194.725 125.702 194.893 125.27 195.229 124.934C195.565 124.586 195.991 124.412 196.507 124.412C197.023 124.412 197.449 124.586 197.785 124.934C198.121 125.27 198.289 125.702 198.289 126.23C198.289 126.758 198.121 127.196 197.785 127.544C197.449 127.88 197.023 128.048 196.507 128.048C195.991 128.048 195.565 127.88 195.229 127.544C194.893 127.196 194.725 126.758 194.725 126.23ZM203.412 118.994H209.316V127.832H207.246V120.632H203.412V118.994ZM208.128 117.446C207.708 117.446 207.354 117.32 207.066 117.068C206.79 116.816 206.652 116.48 206.652 116.06C206.652 115.64 206.79 115.304 207.066 115.052C207.354 114.788 207.708 114.656 208.128 114.656C208.56 114.656 208.914 114.788 209.19 115.052C209.466 115.304 209.604 115.64 209.604 116.06C209.604 116.48 209.466 116.816 209.19 117.068C208.914 117.32 208.56 117.446 208.128 117.446Z" fill="#EB5757"/>
<path d="M233.53 116.924C233.206 116.792 232.888 116.696 232.576 116.636C232.276 116.576 231.946 116.546 231.586 116.546C230.902 116.546 230.404 116.714 230.092 117.05C229.792 117.374 229.642 117.848 229.642 118.472V118.994H233.008V120.632H229.642V127.832H227.59V120.632H225.142V119.084L227.59 118.994V118.508C227.59 117.992 227.662 117.512 227.806 117.068C227.95 116.624 228.172 116.246 228.472 115.934C228.784 115.61 229.174 115.358 229.642 115.178C230.122 114.998 230.686 114.908 231.334 114.908C231.814 114.908 232.27 114.95 232.702 115.034C233.146 115.118 233.566 115.238 233.962 115.394L233.53 116.924ZM235.233 123.422C235.233 122.69 235.353 122.036 235.593 121.46C235.845 120.884 236.175 120.398 236.583 120.002C236.991 119.606 237.465 119.306 238.005 119.102C238.545 118.886 239.103 118.778 239.679 118.778C240.255 118.778 240.813 118.886 241.353 119.102C241.893 119.306 242.367 119.606 242.775 120.002C243.183 120.398 243.507 120.884 243.747 121.46C243.999 122.036 244.125 122.69 244.125 123.422C244.125 124.154 243.999 124.808 243.747 125.384C243.507 125.96 243.183 126.446 242.775 126.842C242.367 127.238 241.893 127.538 241.353 127.742C240.813 127.946 240.255 128.048 239.679 128.048C239.103 128.048 238.545 127.946 238.005 127.742C237.465 127.538 236.991 127.238 236.583 126.842C236.175 126.446 235.845 125.96 235.593 125.384C235.353 124.808 235.233 124.154 235.233 123.422ZM237.375 123.422C237.375 124.31 237.579 125.024 237.987 125.564C238.395 126.092 238.959 126.356 239.679 126.356C240.399 126.356 240.963 126.092 241.371 125.564C241.779 125.024 241.983 124.31 241.983 123.422C241.983 122.522 241.779 121.808 241.371 121.28C240.963 120.74 240.399 120.47 239.679 120.47C238.959 120.47 238.395 120.74 237.987 121.28C237.579 121.808 237.375 122.522 237.375 123.422ZM247.412 118.994H249.122L249.302 120.992H249.356C249.812 120.272 250.358 119.726 250.994 119.354C251.642 118.97 252.35 118.778 253.118 118.778C253.478 118.778 253.784 118.808 254.036 118.868C254.3 118.916 254.564 119.006 254.828 119.138L254.396 120.884C254.108 120.788 253.85 120.722 253.622 120.686C253.406 120.638 253.13 120.614 252.794 120.614C252.182 120.614 251.594 120.788 251.03 121.136C250.466 121.484 249.956 122.09 249.5 122.954V127.832H247.412V118.994ZM268.17 118.994H274.074V127.832H272.004V120.632H268.17V118.994ZM272.886 117.446C272.466 117.446 272.112 117.32 271.824 117.068C271.548 116.816 271.41 116.48 271.41 116.06C271.41 115.64 271.548 115.304 271.824 115.052C272.112 114.788 272.466 114.656 272.886 114.656C273.318 114.656 273.672 114.788 273.948 115.052C274.224 115.304 274.362 115.64 274.362 116.06C274.362 116.48 274.224 116.816 273.948 117.068C273.672 117.32 273.318 117.446 272.886 117.446ZM289.756 118.994H295.66V127.832H293.59V120.632H289.756V118.994ZM294.472 117.446C294.052 117.446 293.698 117.32 293.41 117.068C293.134 116.816 292.996 116.48 292.996 116.06C292.996 115.64 293.134 115.304 293.41 115.052C293.698 114.788 294.052 114.656 294.472 114.656C294.904 114.656 295.258 114.788 295.534 115.052C295.81 115.304 295.948 115.64 295.948 116.06C295.948 116.48 295.81 116.816 295.534 117.068C295.258 117.32 294.904 117.446 294.472 117.446ZM300.513 118.994H302.223L302.385 120.326H302.457C302.877 119.906 303.339 119.546 303.843 119.246C304.359 118.934 304.959 118.778 305.643 118.778C306.663 118.778 307.413 119.09 307.893 119.714C308.373 120.326 308.613 121.208 308.613 122.36V127.832H306.525V122.63C306.525 121.91 306.399 121.388 306.147 121.064C305.907 120.728 305.481 120.56 304.869 120.56C304.437 120.56 304.053 120.662 303.717 120.866C303.381 121.07 303.009 121.382 302.601 121.802V127.832H300.513V118.994ZM322.963 118.994H324.673L324.853 120.992H324.907C325.363 120.272 325.909 119.726 326.545 119.354C327.193 118.97 327.901 118.778 328.669 118.778C329.029 118.778 329.335 118.808 329.587 118.868C329.851 118.916 330.115 119.006 330.379 119.138L329.947 120.884C329.659 120.788 329.401 120.722 329.173 120.686C328.957 120.638 328.681 120.614 328.345 120.614C327.733 120.614 327.145 120.788 326.581 121.136C326.017 121.484 325.507 122.09 325.051 122.954V127.832H322.963V118.994ZM332.694 125.456C332.694 124.964 332.808 124.532 333.036 124.16C333.264 123.776 333.624 123.452 334.116 123.188C334.608 122.924 335.238 122.708 336.006 122.54C336.774 122.372 337.704 122.252 338.796 122.18C338.76 121.676 338.58 121.262 338.256 120.938C337.932 120.614 337.41 120.452 336.69 120.452C336.186 120.452 335.688 120.548 335.196 120.74C334.716 120.92 334.248 121.136 333.792 121.388L333.036 120.002C333.576 119.69 334.194 119.408 334.89 119.156C335.586 118.904 336.312 118.778 337.068 118.778C338.304 118.778 339.246 119.108 339.894 119.768C340.542 120.416 340.866 121.358 340.866 122.594V127.832H339.174L339.012 126.734H338.958C338.49 127.094 337.968 127.406 337.392 127.67C336.828 127.922 336.246 128.048 335.646 128.048C335.214 128.048 334.818 127.982 334.458 127.85C334.098 127.73 333.786 127.556 333.522 127.328C333.258 127.1 333.054 126.83 332.91 126.518C332.766 126.194 332.694 125.84 332.694 125.456ZM334.692 125.294C334.692 125.69 334.842 125.978 335.142 126.158C335.454 126.338 335.832 126.428 336.276 126.428C336.72 126.428 337.146 126.332 337.554 126.14C337.974 125.936 338.388 125.672 338.796 125.348V123.476C338.004 123.536 337.344 123.62 336.816 123.728C336.288 123.824 335.868 123.95 335.556 124.106C335.244 124.262 335.022 124.442 334.89 124.646C334.758 124.838 334.692 125.054 334.692 125.294ZM343.685 118.994H345.395L345.557 120.326H345.629C346.049 119.906 346.511 119.546 347.015 119.246C347.531 118.934 348.131 118.778 348.815 118.778C349.835 118.778 350.585 119.09 351.065 119.714C351.545 120.326 351.785 121.208 351.785 122.36V127.832H349.697V122.63C349.697 121.91 349.571 121.388 349.319 121.064C349.079 120.728 348.653 120.56 348.041 120.56C347.609 120.56 347.225 120.662 346.889 120.866C346.553 121.07 346.181 121.382 345.773 121.802V127.832H343.685V118.994ZM355.846 129.11C355.846 129.506 356.062 129.818 356.494 130.046C356.938 130.274 357.574 130.388 358.402 130.388C358.834 130.388 359.224 130.346 359.572 130.262C359.92 130.19 360.22 130.088 360.472 129.956C360.724 129.824 360.916 129.668 361.048 129.488C361.18 129.32 361.246 129.14 361.246 128.948C361.246 128.6 361.096 128.366 360.796 128.246C360.496 128.138 360.052 128.084 359.464 128.084H358.06C357.772 128.084 357.514 128.072 357.286 128.048C357.07 128.036 356.878 128 356.71 127.94C356.398 128.132 356.176 128.324 356.044 128.516C355.912 128.708 355.846 128.906 355.846 129.11ZM354.118 129.38C354.118 129.032 354.238 128.696 354.478 128.372C354.718 128.048 355.066 127.766 355.522 127.526V127.454C355.282 127.322 355.072 127.136 354.892 126.896C354.712 126.656 354.622 126.35 354.622 125.978C354.622 125.678 354.718 125.384 354.91 125.096C355.102 124.796 355.36 124.532 355.684 124.304V124.232C355.372 124.016 355.102 123.716 354.874 123.332C354.658 122.948 354.55 122.492 354.55 121.964C354.55 121.46 354.646 121.01 354.838 120.614C355.042 120.218 355.306 119.888 355.63 119.624C355.966 119.348 356.35 119.138 356.782 118.994C357.226 118.85 357.694 118.778 358.186 118.778C358.714 118.778 359.176 118.85 359.572 118.994H363.19V120.524H361.12C361.276 120.704 361.414 120.926 361.534 121.19C361.654 121.442 361.714 121.724 361.714 122.036C361.714 122.528 361.624 122.96 361.444 123.332C361.264 123.704 361.012 124.016 360.688 124.268C360.376 124.52 360.004 124.712 359.572 124.844C359.14 124.964 358.678 125.024 358.186 125.024C357.742 125.024 357.292 124.946 356.836 124.79C356.476 125.018 356.296 125.288 356.296 125.6C356.296 126.164 356.854 126.446 357.97 126.446H359.77C360.922 126.446 361.786 126.614 362.362 126.95C362.95 127.286 363.244 127.838 363.244 128.606C363.244 129.038 363.124 129.446 362.884 129.83C362.644 130.214 362.302 130.544 361.858 130.82C361.426 131.108 360.892 131.33 360.256 131.486C359.632 131.654 358.93 131.738 358.15 131.738C357.538 131.738 356.986 131.69 356.494 131.594C356.002 131.498 355.576 131.348 355.216 131.144C354.868 130.952 354.598 130.706 354.406 130.406C354.214 130.118 354.118 129.776 354.118 129.38ZM358.186 123.728C358.642 123.728 359.038 123.578 359.374 123.278C359.71 122.966 359.878 122.528 359.878 121.964C359.878 121.424 359.71 120.998 359.374 120.686C359.038 120.362 358.642 120.2 358.186 120.2C357.73 120.2 357.334 120.362 356.998 120.686C356.674 120.998 356.512 121.424 356.512 121.964C356.512 122.528 356.674 122.966 356.998 123.278C357.334 123.578 357.73 123.728 358.186 123.728ZM364.91 123.422C364.91 122.702 365.036 122.054 365.288 121.478C365.552 120.902 365.894 120.416 366.314 120.02C366.734 119.612 367.214 119.306 367.754 119.102C368.306 118.886 368.87 118.778 369.446 118.778C370.106 118.778 370.688 118.886 371.192 119.102C371.708 119.306 372.14 119.594 372.488 119.966C372.836 120.326 373.1 120.764 373.28 121.28C373.46 121.796 373.55 122.36 373.55 122.972C373.55 123.176 373.538 123.368 373.514 123.548C373.502 123.728 373.484 123.872 373.46 123.98H367.034C367.106 124.772 367.418 125.384 367.97 125.816C368.522 126.236 369.2 126.446 370.004 126.446C370.46 126.446 370.886 126.386 371.282 126.266C371.678 126.134 372.08 125.954 372.488 125.726L373.19 127.022C372.71 127.322 372.176 127.568 371.588 127.76C371 127.952 370.382 128.048 369.734 128.048C369.062 128.048 368.432 127.946 367.844 127.742C367.256 127.526 366.746 127.22 366.314 126.824C365.882 126.428 365.54 125.948 365.288 125.384C365.036 124.808 364.91 124.154 364.91 123.422ZM371.642 122.576C371.642 121.892 371.462 121.358 371.102 120.974C370.742 120.578 370.208 120.38 369.5 120.38C368.9 120.38 368.366 120.566 367.898 120.938C367.43 121.31 367.136 121.856 367.016 122.576H371.642ZM382.003 131.018C380.791 130.01 379.831 128.822 379.123 127.454C378.427 126.086 378.079 124.544 378.079 122.828C378.079 121.112 378.427 119.57 379.123 118.202C379.831 116.834 380.791 115.646 382.003 114.638L383.155 115.592C382.015 116.624 381.181 117.722 380.653 118.886C380.125 120.05 379.861 121.364 379.861 122.828C379.861 124.292 380.125 125.606 380.653 126.77C381.181 127.934 382.015 129.032 383.155 130.064L382.003 131.018ZM387.252 125.132C387.636 125.456 388.062 125.744 388.53 125.996C389.01 126.236 389.58 126.356 390.24 126.356C390.96 126.356 391.56 126.164 392.04 125.78C392.532 125.396 392.778 124.856 392.778 124.16C392.778 123.476 392.55 122.948 392.094 122.576C391.65 122.204 391.062 122.018 390.33 122.018C389.91 122.018 389.55 122.072 389.25 122.18C388.95 122.276 388.602 122.438 388.206 122.666L387.216 122.036L387.576 116.384H394.326V118.13H389.376L389.124 120.902C389.424 120.782 389.712 120.692 389.988 120.632C390.264 120.56 390.576 120.524 390.924 120.524C391.464 120.524 391.974 120.596 392.454 120.74C392.934 120.884 393.348 121.106 393.696 121.406C394.056 121.694 394.338 122.066 394.542 122.522C394.758 122.966 394.866 123.494 394.866 124.106C394.866 124.73 394.746 125.288 394.506 125.78C394.266 126.272 393.942 126.686 393.534 127.022C393.126 127.358 392.658 127.616 392.13 127.796C391.614 127.964 391.068 128.048 390.492 128.048C389.484 128.048 388.644 127.892 387.972 127.58C387.312 127.256 386.754 126.884 386.298 126.464L387.252 125.132ZM398.405 130.064C399.545 129.032 400.379 127.934 400.907 126.77C401.435 125.606 401.699 124.292 401.699 122.828C401.699 121.364 401.435 120.05 400.907 118.886C400.379 117.722 399.545 116.624 398.405 115.592L399.557 114.638C400.769 115.646 401.723 116.834 402.419 118.202C403.127 119.57 403.481 121.112 403.481 122.828C403.481 124.544 403.127 126.086 402.419 127.454C401.723 128.822 400.769 130.01 399.557 131.018L398.405 130.064Z" fill="#9B51E0"/>
<path d="M32 9H479.517V92H32V9Z" fill="#F1F4F8"/>
<path d="M40.9692 30.8953C40.9692 30.1753 41.0772 29.5273 41.2932 28.9513C41.5092 28.3753 41.7972 27.8893 42.1572 27.4933C42.5292 27.0973 42.9492 26.7913 43.4172 26.5753C43.8852 26.3593 44.3712 26.2513 44.8752 26.2513C45.4032 26.2513 45.8532 26.3473 46.2252 26.5393C46.6092 26.7193 46.9812 26.9713 47.3412 27.2953L47.2512 25.8013V22.5973H49.3392V35.3053H47.6292L47.4672 34.2793H47.4132C47.0652 34.6273 46.6572 34.9213 46.1892 35.1613C45.7332 35.4013 45.2532 35.5213 44.7492 35.5213C44.1852 35.5213 43.6692 35.4193 43.2012 35.2153C42.7332 34.9993 42.3312 34.6933 41.9952 34.2973C41.6712 33.9013 41.4192 33.4213 41.2392 32.8573C41.0592 32.2813 40.9692 31.6273 40.9692 30.8953ZM43.1112 30.8773C43.1112 31.8373 43.2972 32.5693 43.6692 33.0733C44.0412 33.5653 44.5692 33.8113 45.2532 33.8113C45.9852 33.8113 46.6512 33.4573 47.2512 32.7493V28.7713C46.9392 28.4713 46.6272 28.2613 46.3152 28.1413C46.0032 28.0213 45.6852 27.9613 45.3612 27.9613C45.0492 27.9613 44.7552 28.0273 44.4792 28.1593C44.2152 28.2913 43.9812 28.4833 43.7772 28.7353C43.5732 28.9753 43.4112 29.2753 43.2912 29.6353C43.1712 29.9953 43.1112 30.4093 43.1112 30.8773ZM52.3202 26.4673H58.2242V35.3053H56.1542V28.1053H52.3202V26.4673ZM57.0362 24.9193C56.6162 24.9193 56.2622 24.7933 55.9742 24.5413C55.6982 24.2893 55.5602 23.9533 55.5602 23.5333C55.5602 23.1133 55.6982 22.7773 55.9742 22.5253C56.2622 22.2613 56.6162 22.1293 57.0362 22.1293C57.4682 22.1293 57.8222 22.2613 58.0982 22.5253C58.3742 22.7773 58.5122 23.1133 58.5122 23.5333C58.5122 23.9533 58.3742 24.2893 58.0982 24.5413C57.8222 24.7933 57.4682 24.9193 57.0362 24.9193ZM62.9152 30.8953C62.9152 30.1633 63.0472 29.5093 63.3112 28.9333C63.5872 28.3573 63.9532 27.8713 64.4092 27.4753C64.8652 27.0793 65.3992 26.7793 66.0112 26.5753C66.6232 26.3593 67.2652 26.2513 67.9372 26.2513C68.6572 26.2513 69.2872 26.3713 69.8272 26.6113C70.3792 26.8513 70.8412 27.1453 71.2132 27.4933L70.2232 28.7893C69.8752 28.5133 69.5212 28.3033 69.1612 28.1593C68.8132 28.0153 68.4412 27.9433 68.0452 27.9433C67.1572 27.9433 66.4372 28.2133 65.8852 28.7533C65.3332 29.2813 65.0572 29.9953 65.0572 30.8953C65.0572 31.3393 65.1292 31.7413 65.2732 32.1013C65.4172 32.4613 65.6152 32.7733 65.8672 33.0373C66.1312 33.2893 66.4432 33.4873 66.8032 33.6313C67.1632 33.7633 67.5592 33.8293 67.9912 33.8293C68.4952 33.8293 68.9512 33.7333 69.3592 33.5413C69.7792 33.3493 70.1632 33.1213 70.5112 32.8573L71.3752 34.1893C70.8712 34.6333 70.3072 34.9693 69.6832 35.1973C69.0592 35.4133 68.4292 35.5213 67.7932 35.5213C67.0972 35.5213 66.4492 35.4193 65.8492 35.2153C65.2612 35.0113 64.7452 34.7113 64.3012 34.3153C63.8692 33.9193 63.5272 33.4333 63.2752 32.8573C63.0352 32.2813 62.9152 31.6273 62.9152 30.8953ZM75.8141 28.1053H73.4561V26.5573L75.9041 26.4673L76.1741 24.0553H77.8841V26.4673H81.9161V28.1053H77.8841V31.7413C77.8841 32.4733 78.0341 33.0133 78.3341 33.3613C78.6341 33.6973 79.1621 33.8653 79.9181 33.8653C80.3021 33.8653 80.6501 33.8353 80.9621 33.7753C81.2741 33.7033 81.5741 33.6133 81.8621 33.5053L82.2581 35.0173C81.8621 35.1493 81.4241 35.2633 80.9441 35.3593C80.4641 35.4673 79.9541 35.5213 79.4141 35.5213C78.7421 35.5213 78.1781 35.4313 77.7221 35.2513C77.2661 35.0713 76.8941 34.8193 76.6061 34.4953C76.3301 34.1593 76.1261 33.7573 75.9941 33.2893C75.8741 32.8213 75.8141 32.3053 75.8141 31.7413V28.1053ZM92.9071 36.4213V38.0413H84.2671V36.4213H92.9071ZM95.4921 26.4673H101.396V35.3053H99.3261V28.1053H95.4921V26.4673ZM100.208 24.9193C99.7881 24.9193 99.4341 24.7933 99.1461 24.5413C98.8701 24.2893 98.7321 23.9533 98.7321 23.5333C98.7321 23.1133 98.8701 22.7773 99.1461 22.5253C99.4341 22.2613 99.7881 22.1293 100.208 22.1293C100.64 22.1293 100.994 22.2613 101.27 22.5253C101.546 22.7773 101.684 23.1133 101.684 23.5333C101.684 23.9533 101.546 24.2893 101.27 24.5413C100.994 24.7933 100.64 24.9193 100.208 24.9193ZM106.249 26.4673H107.959L108.121 27.7993H108.193C108.613 27.3793 109.075 27.0193 109.579 26.7193C110.095 26.4073 110.695 26.2513 111.379 26.2513C112.399 26.2513 113.149 26.5633 113.629 27.1873C114.109 27.7993 114.349 28.6813 114.349 29.8333V35.3053H112.261V30.1033C112.261 29.3833 112.135 28.8613 111.883 28.5373C111.643 28.2013 111.217 28.0333 110.605 28.0333C110.173 28.0333 109.789 28.1353 109.453 28.3393C109.117 28.5433 108.745 28.8553 108.337 29.2753V35.3053H106.249V26.4673ZM118.986 28.1053H116.628V26.5573L119.076 26.4673L119.346 24.0553H121.056V26.4673H125.088V28.1053H121.056V31.7413C121.056 32.4733 121.206 33.0133 121.506 33.3613C121.806 33.6973 122.334 33.8653 123.09 33.8653C123.474 33.8653 123.822 33.8353 124.134 33.7753C124.446 33.7033 124.746 33.6133 125.034 33.5053L125.43 35.0173C125.034 35.1493 124.596 35.2633 124.116 35.3593C123.636 35.4673 123.126 35.5213 122.586 35.5213C121.914 35.5213 121.35 35.4313 120.894 35.2513C120.438 35.0713 120.066 34.8193 119.778 34.4953C119.502 34.1593 119.298 33.7573 119.166 33.2893C119.046 32.8213 118.986 32.3053 118.986 31.7413V28.1053ZM128.447 32.8393C128.951 33.1873 129.473 33.4633 130.013 33.6673C130.565 33.8593 131.183 33.9553 131.867 33.9553C132.563 33.9553 133.073 33.8593 133.397 33.6673C133.721 33.4633 133.883 33.2053 133.883 32.8933C133.883 32.5813 133.673 32.3233 133.253 32.1193C132.833 31.9033 132.173 31.6753 131.273 31.4353C130.853 31.3273 130.445 31.1953 130.049 31.0393C129.653 30.8833 129.305 30.7033 129.005 30.4993C128.705 30.2953 128.465 30.0613 128.285 29.7973C128.105 29.5333 128.015 29.2333 128.015 28.8973C128.015 28.1173 128.351 27.4813 129.023 26.9893C129.695 26.4973 130.661 26.2513 131.921 26.2513C132.641 26.2513 133.319 26.3713 133.955 26.6113C134.591 26.8513 135.137 27.1213 135.593 27.4213L134.639 28.6993C134.243 28.4353 133.817 28.2253 133.361 28.0693C132.917 27.9013 132.443 27.8173 131.939 27.8173C131.255 27.8173 130.775 27.9133 130.499 28.1053C130.223 28.2853 130.085 28.5133 130.085 28.7893C130.085 28.9453 130.145 29.0893 130.265 29.2213C130.397 29.3413 130.571 29.4553 130.787 29.5633C131.015 29.6593 131.279 29.7553 131.579 29.8513C131.879 29.9473 132.209 30.0373 132.569 30.1213C133.085 30.2533 133.547 30.4033 133.955 30.5713C134.375 30.7273 134.729 30.9073 135.017 31.1113C135.317 31.3153 135.545 31.5553 135.701 31.8313C135.869 32.1073 135.953 32.4253 135.953 32.7853C135.953 33.1693 135.863 33.5293 135.683 33.8653C135.503 34.1893 135.239 34.4773 134.891 34.7293C134.543 34.9693 134.111 35.1613 133.595 35.3053C133.079 35.4493 132.485 35.5213 131.813 35.5213C130.985 35.5213 130.193 35.3893 129.437 35.1253C128.681 34.8613 128.027 34.5373 127.475 34.1533L128.447 32.8393Z" fill="#009E73"/>
<path d="M149.349 26.5933H157.341V28.1053H149.349V26.5933ZM149.349 30.6073H157.341V32.1193H149.349V30.6073ZM173.923 35.5573C173.923 35.2333 173.929 34.9393 173.941 34.6753C173.965 34.3993 173.989 34.1353 174.013 33.8833C174.037 33.6313 174.055 33.3793 174.067 33.1273C174.091 32.8633 174.103 32.5813 174.103 32.2813C174.103 32.1253 174.067 31.9693 173.995 31.8133C173.923 31.6453 173.791 31.5013 173.599 31.3813C173.407 31.2493 173.143 31.1413 172.807 31.0573C172.483 30.9733 172.069 30.9313 171.565 30.9313V29.6713C172.069 29.6713 172.483 29.6293 172.807 29.5453C173.143 29.4613 173.407 29.3593 173.599 29.2393C173.791 29.1073 173.923 28.9633 173.995 28.8073C174.067 28.6513 174.103 28.4893 174.103 28.3213C174.103 27.7573 174.073 27.2293 174.013 26.7373C173.953 26.2333 173.923 25.6693 173.923 25.0453C173.923 24.5653 173.989 24.1693 174.121 23.8573C174.253 23.5333 174.457 23.2753 174.733 23.0833C175.009 22.8913 175.357 22.7593 175.777 22.6873C176.197 22.6033 176.695 22.5613 177.271 22.5613H178.513V23.6953H177.685C177.265 23.6953 176.923 23.7193 176.659 23.7673C176.395 23.8153 176.185 23.8993 176.029 24.0193C175.885 24.1273 175.783 24.2773 175.723 24.4693C175.675 24.6493 175.651 24.8713 175.651 25.1353C175.651 25.6393 175.663 26.1433 175.687 26.6473C175.723 27.1513 175.741 27.6793 175.741 28.2313C175.741 28.8673 175.615 29.3413 175.363 29.6533C175.111 29.9533 174.667 30.1573 174.031 30.2653V30.3373C174.667 30.4453 175.111 30.6553 175.363 30.9673C175.615 31.2673 175.741 31.7353 175.741 32.3713C175.741 32.9473 175.723 33.4753 175.687 33.9553C175.663 34.4353 175.651 34.9393 175.651 35.4673C175.651 35.7433 175.675 35.9713 175.723 36.1513C175.783 36.3313 175.885 36.4753 176.029 36.5833C176.185 36.7033 176.395 36.7873 176.659 36.8353C176.923 36.8833 177.265 36.9073 177.685 36.9073H178.513V38.0413H177.271C176.695 38.0413 176.197 37.9993 175.777 37.9153C175.357 37.8433 175.009 37.7113 174.733 37.5193C174.457 37.3273 174.253 37.0693 174.121 36.7453C173.989 36.4333 173.923 36.0373 173.923 35.5573ZM182.988 36.9073C183.396 36.9073 183.732 36.8833 183.996 36.8353C184.26 36.7873 184.47 36.7033 184.626 36.5833C184.782 36.4753 184.884 36.3313 184.932 36.1513C184.992 35.9713 185.022 35.7433 185.022 35.4673C185.022 34.9393 185.004 34.4353 184.968 33.9553C184.944 33.4753 184.932 32.9473 184.932 32.3713C184.932 31.7353 185.052 31.2673 185.292 30.9673C185.544 30.6553 185.994 30.4453 186.642 30.3373V30.2653C185.994 30.1573 185.544 29.9533 185.292 29.6533C185.052 29.3413 184.932 28.8673 184.932 28.2313C184.932 27.6793 184.944 27.1513 184.968 26.6473C185.004 26.1433 185.022 25.6393 185.022 25.1353C185.022 24.8713 184.992 24.6493 184.932 24.4693C184.884 24.2773 184.782 24.1273 184.626 24.0193C184.47 23.8993 184.26 23.8153 183.996 23.7673C183.732 23.7193 183.396 23.6953 182.988 23.6953H182.16V22.5613H183.402C183.978 22.5613 184.47 22.6033 184.878 22.6873C185.298 22.7593 185.646 22.8913 185.922 23.0833C186.198 23.2753 186.402 23.5333 186.534 23.8573C186.666 24.1693 186.732 24.5653 186.732 25.0453C186.732 25.6693 186.702 26.2333 186.642 26.7373C186.582 27.2293 186.552 27.7573 186.552 28.3213C186.552 28.4893 186.588 28.6513 186.66 28.8073C186.732 28.9633 186.864 29.1073 187.056 29.2393C187.248 29.3593 187.506 29.4613 187.83 29.5453C188.166 29.6293 188.586 29.6713 189.09 29.6713V30.9313C188.586 30.9313 188.166 30.9733 187.83 31.0573C187.506 31.1413 187.248 31.2493 187.056 31.3813C186.864 31.5013 186.732 31.6453 186.66 31.8133C186.588 31.9693 186.552 32.1253 186.552 32.2813C186.552 32.5813 186.558 32.8633 186.57 33.1273C186.594 33.3793 186.618 33.6313 186.642 33.8833C186.666 34.1353 186.684 34.3993 186.696 34.6753C186.72 34.9393 186.732 35.2333 186.732 35.5573C186.732 36.0373 186.666 36.4333 186.534 36.7453C186.402 37.0693 186.198 37.3273 185.922 37.5193C185.646 37.7113 185.298 37.8433 184.878 37.9153C184.47 37.9993 183.978 38.0413 183.402 38.0413H182.16V36.9073H182.988ZM227.114 49.5833C227.114 49.0553 227.282 48.6233 227.618 48.2873C227.954 47.9393 228.38 47.7653 228.896 47.7653C229.412 47.7653 229.838 47.9393 230.174 48.2873C230.51 48.6233 230.678 49.0553 230.678 49.5833C230.678 50.1113 230.51 50.5493 230.174 50.8973C229.838 51.2333 229.412 51.4013 228.896 51.4013C228.38 51.4013 227.954 51.2333 227.618 50.8973C227.282 50.5493 227.114 50.1113 227.114 49.5833ZM227.114 55.7033C227.114 55.1753 227.282 54.7433 227.618 54.4073C227.954 54.0593 228.38 53.8853 228.896 53.8853C229.412 53.8853 229.838 54.0593 230.174 54.4073C230.51 54.7433 230.678 55.1753 230.678 55.7033C230.678 56.2313 230.51 56.6693 230.174 57.0173C229.838 57.3533 229.412 57.5213 228.896 57.5213C228.38 57.5213 227.954 57.3533 227.618 57.0173C227.282 56.6693 227.114 56.2313 227.114 55.7033ZM84.1411 75.8953C84.1411 75.1753 84.2491 74.5273 84.4651 73.9513C84.6811 73.3753 84.9691 72.8893 85.3291 72.4933C85.7011 72.0973 86.1211 71.7913 86.5891 71.5753C87.0571 71.3593 87.5431 71.2513 88.0471 71.2513C88.5751 71.2513 89.0251 71.3473 89.3971 71.5393C89.7811 71.7193 90.1531 71.9713 90.5131 72.2953L90.4231 70.8013V67.5973H92.5111V80.3053H90.8011L90.6391 79.2793H90.5851C90.2371 79.6273 89.8291 79.9213 89.3611 80.1613C88.9051 80.4013 88.4251 80.5213 87.9211 80.5213C87.3571 80.5213 86.8411 80.4193 86.3731 80.2153C85.9051 79.9993 85.5031 79.6933 85.1671 79.2973C84.8431 78.9013 84.5911 78.4213 84.4111 77.8573C84.2311 77.2813 84.1411 76.6273 84.1411 75.8953ZM86.2831 75.8773C86.2831 76.8373 86.4691 77.5693 86.8411 78.0733C87.2131 78.5653 87.7411 78.8113 88.4251 78.8113C89.1571 78.8113 89.8231 78.4573 90.4231 77.7493V73.7713C90.1111 73.4713 89.7991 73.2613 89.4871 73.1413C89.1751 73.0213 88.8571 72.9613 88.5331 72.9613C88.2211 72.9613 87.9271 73.0273 87.6511 73.1593C87.3871 73.2913 87.1531 73.4833 86.9491 73.7353C86.7451 73.9753 86.5831 74.2753 86.4631 74.6353C86.3431 74.9953 86.2831 75.4093 86.2831 75.8773ZM95.4921 71.4673H101.396V80.3053H99.3261V73.1053H95.4921V71.4673ZM100.208 69.9193C99.7881 69.9193 99.4341 69.7933 99.1461 69.5413C98.8701 69.2893 98.7321 68.9533 98.7321 68.5333C98.7321 68.1133 98.8701 67.7773 99.1461 67.5253C99.4341 67.2613 99.7881 67.1293 100.208 67.1293C100.64 67.1293 100.994 67.2613 101.27 67.5253C101.546 67.7773 101.684 68.1133 101.684 68.5333C101.684 68.9533 101.546 69.2893 101.27 69.5413C100.994 69.7933 100.64 69.9193 100.208 69.9193ZM106.087 75.8953C106.087 75.1633 106.219 74.5093 106.483 73.9333C106.759 73.3573 107.125 72.8713 107.581 72.4753C108.037 72.0793 108.571 71.7793 109.183 71.5753C109.795 71.3593 110.437 71.2513 111.109 71.2513C111.829 71.2513 112.459 71.3713 112.999 71.6113C113.551 71.8513 114.013 72.1453 114.385 72.4933L113.395 73.7893C113.047 73.5133 112.693 73.3033 112.333 73.1593C111.985 73.0153 111.613 72.9433 111.217 72.9433C110.329 72.9433 109.609 73.2133 109.057 73.7533C108.505 74.2813 108.229 74.9953 108.229 75.8953C108.229 76.3393 108.301 76.7413 108.445 77.1013C108.589 77.4613 108.787 77.7733 109.039 78.0373C109.303 78.2893 109.615 78.4873 109.975 78.6313C110.335 78.7633 110.731 78.8293 111.163 78.8293C111.667 78.8293 112.123 78.7333 112.531 78.5413C112.951 78.3493 113.335 78.1213 113.683 77.8573L114.547 79.1893C114.043 79.6333 113.479 79.9693 112.855 80.1973C112.231 80.4133 111.601 80.5213 110.965 80.5213C110.269 80.5213 109.621 80.4193 109.021 80.2153C108.433 80.0113 107.917 79.7113 107.473 79.3153C107.041 78.9193 106.699 78.4333 106.447 77.8573C106.207 77.2813 106.087 76.6273 106.087 75.8953ZM118.986 73.1053H116.628V71.5573L119.076 71.4673L119.346 69.0553H121.056V71.4673H125.088V73.1053H121.056V76.7413C121.056 77.4733 121.206 78.0133 121.506 78.3613C121.806 78.6973 122.334 78.8653 123.09 78.8653C123.474 78.8653 123.822 78.8353 124.134 78.7753C124.446 78.7033 124.746 78.6133 125.034 78.5053L125.43 80.0173C125.034 80.1493 124.596 80.2633 124.116 80.3593C123.636 80.4673 123.126 80.5213 122.586 80.5213C121.914 80.5213 121.35 80.4313 120.894 80.2513C120.438 80.0713 120.066 79.8193 119.778 79.4953C119.502 79.1593 119.298 78.7573 119.166 78.2893C119.046 77.8213 118.986 77.3053 118.986 76.7413V73.1053ZM136.079 81.4213V83.0413H127.439V81.4213H136.079ZM138.664 71.4673H144.568V80.3053H142.498V73.1053H138.664V71.4673ZM143.38 69.9193C142.96 69.9193 142.606 69.7933 142.318 69.5413C142.042 69.2893 141.904 68.9533 141.904 68.5333C141.904 68.1133 142.042 67.7773 142.318 67.5253C142.606 67.2613 142.96 67.1293 143.38 67.1293C143.812 67.1293 144.166 67.2613 144.442 67.5253C144.718 67.7773 144.856 68.1133 144.856 68.5333C144.856 68.9533 144.718 69.2893 144.442 69.5413C144.166 69.7933 143.812 69.9193 143.38 69.9193ZM149.421 71.4673H151.131L151.293 72.7993H151.365C151.785 72.3793 152.247 72.0193 152.751 71.7193C153.267 71.4073 153.867 71.2513 154.551 71.2513C155.571 71.2513 156.321 71.5633 156.801 72.1873C157.281 72.7993 157.521 73.6813 157.521 74.8333V80.3053H155.433V75.1033C155.433 74.3833 155.307 73.8613 155.055 73.5373C154.815 73.2013 154.389 73.0333 153.777 73.0333C153.345 73.0333 152.961 73.1353 152.625 73.3393C152.289 73.5433 151.917 73.8553 151.509 74.2753V80.3053H149.421V71.4673ZM162.158 73.1053H159.8V71.5573L162.248 71.4673L162.518 69.0553H164.228V71.4673H168.26V73.1053H164.228V76.7413C164.228 77.4733 164.378 78.0133 164.678 78.3613C164.978 78.6973 165.506 78.8653 166.262 78.8653C166.646 78.8653 166.994 78.8353 167.306 78.7753C167.618 78.7033 167.918 78.6133 168.206 78.5053L168.602 80.0173C168.206 80.1493 167.768 80.2633 167.288 80.3593C166.808 80.4673 166.298 80.5213 165.758 80.5213C165.086 80.5213 164.522 80.4313 164.066 80.2513C163.61 80.0713 163.238 79.8193 162.95 79.4953C162.674 79.1593 162.47 78.7573 162.338 78.2893C162.218 77.8213 162.158 77.3053 162.158 76.7413V73.1053ZM171.619 77.8393C172.123 78.1873 172.645 78.4633 173.185 78.6673C173.737 78.8593 174.355 78.9553 175.039 78.9553C175.735 78.9553 176.245 78.8593 176.569 78.6673C176.893 78.4633 177.055 78.2053 177.055 77.8933C177.055 77.5813 176.845 77.3233 176.425 77.1193C176.005 76.9033 175.345 76.6753 174.445 76.4353C174.025 76.3273 173.617 76.1953 173.221 76.0393C172.825 75.8833 172.477 75.7033 172.177 75.4993C171.877 75.2953 171.637 75.0613 171.457 74.7973C171.277 74.5333 171.187 74.2333 171.187 73.8973C171.187 73.1173 171.523 72.4813 172.195 71.9893C172.867 71.4973 173.833 71.2513 175.093 71.2513C175.813 71.2513 176.491 71.3713 177.127 71.6113C177.763 71.8513 178.309 72.1213 178.765 72.4213L177.811 73.6993C177.415 73.4353 176.989 73.2253 176.533 73.0693C176.089 72.9013 175.615 72.8173 175.111 72.8173C174.427 72.8173 173.947 72.9133 173.671 73.1053C173.395 73.2853 173.257 73.5133 173.257 73.7893C173.257 73.9453 173.317 74.0893 173.437 74.2213C173.569 74.3413 173.743 74.4553 173.959 74.5633C174.187 74.6593 174.451 74.7553 174.751 74.8513C175.051 74.9473 175.381 75.0373 175.741 75.1213C176.257 75.2533 176.719 75.4033 177.127 75.5713C177.547 75.7273 177.901 75.9073 178.189 76.1113C178.489 76.3153 178.717 76.5553 178.873 76.8313C179.041 77.1073 179.125 77.4253 179.125 77.7853C179.125 78.1693 179.035 78.5293 178.855 78.8653C178.675 79.1893 178.411 79.4773 178.063 79.7293C177.715 79.9693 177.283 80.1613 176.767 80.3053C176.251 80.4493 175.657 80.5213 174.985 80.5213C174.157 80.5213 173.365 80.3893 172.609 80.1253C171.853 79.8613 171.199 79.5373 170.647 79.1533L171.619 77.8393ZM184.158 67.5613H189.306V68.6953H185.76V81.9073H189.306V83.0413H184.158V67.5613ZM207.274 81.9073V68.6953H203.746V67.5613H208.894V83.0413H203.746V81.9073H207.274ZM224.9 71.5933H232.892V73.1053H224.9V71.5933ZM224.9 75.6073H232.892V77.1193H224.9V75.6073Z" fill="#2E383C"/>
<path d="M50.0592 46.3973C49.7352 46.2653 49.4172 46.1693 49.1052 46.1093C48.8052 46.0493 48.4752 46.0193 48.1152 46.0193C47.4312 46.0193 46.9332 46.1873 46.6212 46.5233C46.3212 46.8473 46.1712 47.3213 46.1712 47.9453V48.4673H49.5372V50.1053H46.1712V57.3053H44.1192V50.1053H41.6712V48.5573L44.1192 48.4673V47.9813C44.1192 47.4653 44.1912 46.9853 44.3352 46.5413C44.4792 46.0973 44.7012 45.7193 45.0012 45.4073C45.3132 45.0833 45.7032 44.8313 46.1712 44.6513C46.6512 44.4713 47.2152 44.3813 47.8632 44.3813C48.3432 44.3813 48.7992 44.4233 49.2312 44.5073C49.6752 44.5913 50.0952 44.7113 50.4912 44.8673L50.0592 46.3973ZM51.7622 52.8953C51.7622 52.1633 51.8822 51.5093 52.1222 50.9333C52.3742 50.3573 52.7042 49.8713 53.1122 49.4753C53.5202 49.0793 53.9942 48.7793 54.5342 48.5753C55.0742 48.3593 55.6322 48.2513 56.2082 48.2513C56.7842 48.2513 57.3422 48.3593 57.8822 48.5753C58.4222 48.7793 58.8962 49.0793 59.3042 49.4753C59.7122 49.8713 60.0362 50.3573 60.2762 50.9333C60.5282 51.5093 60.6542 52.1633 60.6542 52.8953C60.6542 53.6273 60.5282 54.2813 60.2762 54.8573C60.0362 55.4333 59.7122 55.9193 59.3042 56.3153C58.8962 56.7113 58.4222 57.0113 57.8822 57.2153C57.3422 57.4193 56.7842 57.5213 56.2082 57.5213C55.6322 57.5213 55.0742 57.4193 54.5342 57.2153C53.9942 57.0113 53.5202 56.7113 53.1122 56.3153C52.7042 55.9193 52.3742 55.4333 52.1222 54.8573C51.8822 54.2813 51.7622 53.6273 51.7622 52.8953ZM53.9042 52.8953C53.9042 53.7833 54.1082 54.4973 54.5162 55.0373C54.9242 55.5653 55.4882 55.8293 56.2082 55.8293C56.9282 55.8293 57.4922 55.5653 57.9002 55.0373C58.3082 54.4973 58.5122 53.7833 58.5122 52.8953C58.5122 51.9953 58.3082 51.2813 57.9002 50.7533C57.4922 50.2133 56.9282 49.9433 56.2082 49.9433C55.4882 49.9433 54.9242 50.2133 54.5162 50.7533C54.1082 51.2813 53.9042 51.9953 53.9042 52.8953ZM63.9412 48.4673H65.6512L65.8312 50.4653H65.8852C66.3412 49.7453 66.8872 49.1993 67.5232 48.8273C68.1712 48.4433 68.8792 48.2513 69.6472 48.2513C70.0072 48.2513 70.3132 48.2813 70.5652 48.3413C70.8292 48.3893 71.0932 48.4793 71.3572 48.6113L70.9252 50.3573C70.6372 50.2613 70.3792 50.1953 70.1512 50.1593C69.9352 50.1113 69.6592 50.0873 69.3232 50.0873C68.7112 50.0873 68.1232 50.2613 67.5592 50.6093C66.9952 50.9573 66.4852 51.5633 66.0292 52.4273V57.3053H63.9412V48.4673ZM84.6991 48.4673H90.6031V57.3053H88.5331V50.1053H84.6991V48.4673ZM89.4151 46.9193C88.9951 46.9193 88.6411 46.7933 88.3531 46.5413C88.0771 46.2893 87.9391 45.9533 87.9391 45.5333C87.9391 45.1133 88.0771 44.7773 88.3531 44.5253C88.6411 44.2613 88.9951 44.1293 89.4151 44.1293C89.8471 44.1293 90.2011 44.2613 90.4771 44.5253C90.7531 44.7773 90.8911 45.1133 90.8911 45.5333C90.8911 45.9533 90.7531 46.2893 90.4771 46.5413C90.2011 46.7933 89.8471 46.9193 89.4151 46.9193ZM106.285 48.4673H112.189V57.3053H110.119V50.1053H106.285V48.4673ZM111.001 46.9193C110.581 46.9193 110.227 46.7933 109.939 46.5413C109.663 46.2893 109.525 45.9533 109.525 45.5333C109.525 45.1133 109.663 44.7773 109.939 44.5253C110.227 44.2613 110.581 44.1293 111.001 44.1293C111.433 44.1293 111.787 44.2613 112.063 44.5253C112.339 44.7773 112.477 45.1133 112.477 45.5333C112.477 45.9533 112.339 46.2893 112.063 46.5413C111.787 46.7933 111.433 46.9193 111.001 46.9193ZM117.042 48.4673H118.752L118.914 49.7993H118.986C119.406 49.3793 119.868 49.0193 120.372 48.7193C120.888 48.4073 121.488 48.2513 122.172 48.2513C123.192 48.2513 123.942 48.5633 124.422 49.1873C124.902 49.7993 125.142 50.6813 125.142 51.8333V57.3053H123.054V52.1033C123.054 51.3833 122.928 50.8613 122.676 50.5373C122.436 50.2013 122.01 50.0333 121.398 50.0333C120.966 50.0333 120.582 50.1353 120.246 50.3393C119.91 50.5433 119.538 50.8553 119.13 51.2753V57.3053H117.042V48.4673ZM139.492 48.4673H141.202L141.382 50.4653H141.436C141.892 49.7453 142.438 49.1993 143.074 48.8273C143.722 48.4433 144.43 48.2513 145.198 48.2513C145.558 48.2513 145.864 48.2813 146.116 48.3413C146.38 48.3893 146.644 48.4793 146.908 48.6113L146.476 50.3573C146.188 50.2613 145.93 50.1953 145.702 50.1593C145.486 50.1113 145.21 50.0873 144.874 50.0873C144.262 50.0873 143.674 50.2613 143.11 50.6093C142.546 50.9573 142.036 51.5633 141.58 52.4273V57.3053H139.492V48.4673ZM149.223 54.9293C149.223 54.4373 149.337 54.0053 149.565 53.6333C149.793 53.2493 150.153 52.9253 150.645 52.6613C151.137 52.3973 151.767 52.1813 152.535 52.0133C153.303 51.8453 154.233 51.7253 155.325 51.6533C155.289 51.1493 155.109 50.7353 154.785 50.4113C154.461 50.0873 153.939 49.9253 153.219 49.9253C152.715 49.9253 152.217 50.0213 151.725 50.2133C151.245 50.3933 150.777 50.6093 150.321 50.8613L149.565 49.4753C150.105 49.1633 150.723 48.8813 151.419 48.6293C152.115 48.3773 152.841 48.2513 153.597 48.2513C154.833 48.2513 155.775 48.5813 156.423 49.2413C157.071 49.8893 157.395 50.8313 157.395 52.0673V57.3053H155.703L155.541 56.2073H155.487C155.019 56.5673 154.497 56.8793 153.921 57.1433C153.357 57.3953 152.775 57.5213 152.175 57.5213C151.743 57.5213 151.347 57.4553 150.987 57.3233C150.627 57.2033 150.315 57.0293 150.051 56.8013C149.787 56.5733 149.583 56.3033 149.439 55.9913C149.295 55.6673 149.223 55.3133 149.223 54.9293ZM151.221 54.7673C151.221 55.1633 151.371 55.4513 151.671 55.6313C151.983 55.8113 152.361 55.9013 152.805 55.9013C153.249 55.9013 153.675 55.8053 154.083 55.6133C154.503 55.4093 154.917 55.1453 155.325 54.8213V52.9493C154.533 53.0093 153.873 53.0933 153.345 53.2013C152.817 53.2973 152.397 53.4233 152.085 53.5793C151.773 53.7353 151.551 53.9153 151.419 54.1193C151.287 54.3113 151.221 54.5273 151.221 54.7673ZM160.214 48.4673H161.924L162.086 49.7993H162.158C162.578 49.3793 163.04 49.0193 163.544 48.7193C164.06 48.4073 164.66 48.2513 165.344 48.2513C166.364 48.2513 167.114 48.5633 167.594 49.1873C168.074 49.7993 168.314 50.6813 168.314 51.8333V57.3053H166.226V52.1033C166.226 51.3833 166.1 50.8613 165.848 50.5373C165.608 50.2013 165.182 50.0333 164.57 50.0333C164.138 50.0333 163.754 50.1353 163.418 50.3393C163.082 50.5433 162.71 50.8553 162.302 51.2753V57.3053H160.214V48.4673ZM172.375 58.5833C172.375 58.9793 172.591 59.2913 173.023 59.5193C173.467 59.7473 174.103 59.8613 174.931 59.8613C175.363 59.8613 175.753 59.8193 176.101 59.7353C176.449 59.6633 176.749 59.5613 177.001 59.4293C177.253 59.2973 177.445 59.1413 177.577 58.9613C177.709 58.7933 177.775 58.6133 177.775 58.4213C177.775 58.0733 177.625 57.8393 177.325 57.7193C177.025 57.6113 176.581 57.5573 175.993 57.5573H174.589C174.301 57.5573 174.043 57.5453 173.815 57.5213C173.599 57.5093 173.407 57.4733 173.239 57.4133C172.927 57.6053 172.705 57.7973 172.573 57.9893C172.441 58.1813 172.375 58.3793 172.375 58.5833ZM170.647 58.8533C170.647 58.5053 170.767 58.1693 171.007 57.8453C171.247 57.5213 171.595 57.2393 172.051 56.9993V56.9273C171.811 56.7953 171.601 56.6093 171.421 56.3693C171.241 56.1293 171.151 55.8233 171.151 55.4513C171.151 55.1513 171.247 54.8573 171.439 54.5693C171.631 54.2693 171.889 54.0053 172.213 53.7773V53.7053C171.901 53.4893 171.631 53.1893 171.403 52.8053C171.187 52.4213 171.079 51.9653 171.079 51.4373C171.079 50.9333 171.175 50.4833 171.367 50.0873C171.571 49.6913 171.835 49.3613 172.159 49.0973C172.495 48.8213 172.879 48.6113 173.311 48.4673C173.755 48.3233 174.223 48.2513 174.715 48.2513C175.243 48.2513 175.705 48.3233 176.101 48.4673H179.719V49.9973H177.649C177.805 50.1773 177.943 50.3993 178.063 50.6633C178.183 50.9153 178.243 51.1973 178.243 51.5093C178.243 52.0013 178.153 52.4333 177.973 52.8053C177.793 53.1773 177.541 53.4893 177.217 53.7413C176.905 53.9933 176.533 54.1853 176.101 54.3173C175.669 54.4373 175.207 54.4973 174.715 54.4973C174.271 54.4973 173.821 54.4193 173.365 54.2633C173.005 54.4913 172.825 54.7613 172.825 55.0733C172.825 55.6373 173.383 55.9193 174.499 55.9193H176.299C177.451 55.9193 178.315 56.0873 178.891 56.4233C179.479 56.7593 179.773 57.3113 179.773 58.0793C179.773 58.5113 179.653 58.9193 179.413 59.3033C179.173 59.6873 178.831 60.0173 178.387 60.2933C177.955 60.5813 177.421 60.8033 176.785 60.9593C176.161 61.1273 175.459 61.2113 174.679 61.2113C174.067 61.2113 173.515 61.1633 173.023 61.0673C172.531 60.9713 172.105 60.8213 171.745 60.6173C171.397 60.4253 171.127 60.1793 170.935 59.8793C170.743 59.5913 170.647 59.2493 170.647 58.8533ZM174.715 53.2013C175.171 53.2013 175.567 53.0513 175.903 52.7513C176.239 52.4393 176.407 52.0013 176.407 51.4373C176.407 50.8973 176.239 50.4713 175.903 50.1593C175.567 49.8353 175.171 49.6733 174.715 49.6733C174.259 49.6733 173.863 49.8353 173.527 50.1593C173.203 50.4713 173.041 50.8973 173.041 51.4373C173.041 52.0013 173.203 52.4393 173.527 52.7513C173.863 53.0513 174.259 53.2013 174.715 53.2013ZM181.44 52.8953C181.44 52.1753 181.566 51.5273 181.818 50.9513C182.082 50.3753 182.424 49.8893 182.844 49.4933C183.264 49.0853 183.744 48.7793 184.284 48.5753C184.836 48.3593 185.4 48.2513 185.976 48.2513C186.636 48.2513 187.218 48.3593 187.722 48.5753C188.238 48.7793 188.67 49.0673 189.018 49.4393C189.366 49.7993 189.63 50.2373 189.81 50.7533C189.99 51.2693 190.08 51.8333 190.08 52.4453C190.08 52.6493 190.068 52.8413 190.044 53.0213C190.032 53.2013 190.014 53.3453 189.99 53.4533H183.564C183.636 54.2453 183.948 54.8573 184.5 55.2893C185.052 55.7093 185.73 55.9193 186.534 55.9193C186.99 55.9193 187.416 55.8593 187.812 55.7393C188.208 55.6073 188.61 55.4273 189.018 55.1993L189.72 56.4953C189.24 56.7953 188.706 57.0413 188.118 57.2333C187.53 57.4253 186.912 57.5213 186.264 57.5213C185.592 57.5213 184.962 57.4193 184.374 57.2153C183.786 56.9993 183.276 56.6933 182.844 56.2973C182.412 55.9013 182.07 55.4213 181.818 54.8573C181.566 54.2813 181.44 53.6273 181.44 52.8953ZM188.172 52.0493C188.172 51.3653 187.992 50.8313 187.632 50.4473C187.272 50.0513 186.738 49.8533 186.03 49.8533C185.43 49.8533 184.896 50.0393 184.428 50.4113C183.96 50.7833 183.666 51.3293 183.546 52.0493H188.172ZM198.533 60.4913C197.321 59.4833 196.361 58.2953 195.653 56.9273C194.957 55.5593 194.609 54.0173 194.609 52.3013C194.609 50.5853 194.957 49.0433 195.653 47.6753C196.361 46.3073 197.321 45.1193 198.533 44.1113L199.685 45.0653C198.545 46.0973 197.711 47.1953 197.183 48.3593C196.655 49.5233 196.391 50.8373 196.391 52.3013C196.391 53.7653 196.655 55.0793 197.183 56.2433C197.711 57.4073 198.545 58.5053 199.685 59.5373L198.533 60.4913ZM203.782 54.6053C204.166 54.9293 204.592 55.2173 205.06 55.4693C205.54 55.7093 206.11 55.8293 206.77 55.8293C207.49 55.8293 208.09 55.6373 208.57 55.2533C209.062 54.8693 209.308 54.3293 209.308 53.6333C209.308 52.9493 209.08 52.4213 208.624 52.0493C208.18 51.6773 207.592 51.4913 206.86 51.4913C206.44 51.4913 206.08 51.5453 205.78 51.6533C205.48 51.7493 205.132 51.9113 204.736 52.1393L203.746 51.5093L204.106 45.8573H210.856V47.6033H205.906L205.654 50.3753C205.954 50.2553 206.242 50.1653 206.518 50.1053C206.794 50.0333 207.106 49.9973 207.454 49.9973C207.994 49.9973 208.504 50.0693 208.984 50.2133C209.464 50.3573 209.878 50.5793 210.226 50.8793C210.586 51.1673 210.868 51.5393 211.072 51.9953C211.288 52.4393 211.396 52.9673 211.396 53.5793C211.396 54.2033 211.276 54.7613 211.036 55.2533C210.796 55.7453 210.472 56.1593 210.064 56.4953C209.656 56.8313 209.188 57.0893 208.66 57.2693C208.144 57.4373 207.598 57.5213 207.022 57.5213C206.014 57.5213 205.174 57.3653 204.502 57.0533C203.842 56.7293 203.284 56.3573 202.828 55.9373L203.782 54.6053ZM214.935 59.5373C216.075 58.5053 216.909 57.4073 217.437 56.2433C217.965 55.0793 218.229 53.7653 218.229 52.3013C218.229 50.8373 217.965 49.5233 217.437 48.3593C216.909 47.1953 216.075 46.0973 214.935 45.0653L216.087 44.1113C217.299 45.1193 218.253 46.3073 218.949 47.6753C219.657 49.0433 220.011 50.5853 220.011 52.3013C220.011 54.0173 219.657 55.5593 218.949 56.9273C218.253 58.2953 217.299 59.4833 216.087 60.4913L214.935 59.5373Z" fill="#9B51E0"/>
<path d="M192.629 71.4673H198.533V80.3053H196.463V73.1053H192.629V71.4673ZM197.345 69.9193C196.925 69.9193 196.571 69.7933 196.283 69.5413C196.007 69.2893 195.869 68.9533 195.869 68.5333C195.869 68.1133 196.007 67.7773 196.283 67.5253C196.571 67.2613 196.925 67.1293 197.345 67.1293C197.777 67.1293 198.131 67.2613 198.407 67.5253C198.683 67.7773 198.821 68.1133 198.821 68.5333C198.821 68.9533 198.683 69.2893 198.407 69.5413C198.131 69.7933 197.777 69.9193 197.345 69.9193ZM246.594 71.4673H252.498V80.3053H250.428V73.1053H246.594V71.4673ZM251.31 69.9193C250.89 69.9193 250.536 69.7933 250.248 69.5413C249.972 69.2893 249.834 68.9533 249.834 68.5333C249.834 68.1133 249.972 67.7773 250.248 67.5253C250.536 67.2613 250.89 67.1293 251.31 67.1293C251.742 67.1293 252.096 67.2613 252.372 67.5253C252.648 67.7773 252.786 68.1133 252.786 68.5333C252.786 68.9533 252.648 69.2893 252.372 69.5413C252.096 69.7933 251.742 69.9193 251.31 69.9193Z" fill="#EB5757"/>
</svg>
