<svg width="738" height="255" viewBox="0 0 738 255" version="1.1" xmlns="http://www.w3.org/2000/svg" xmlns:xlink="http://www.w3.org/1999/xlink">
<title>s1m1_pop_sample_v2</title>
<desc>Created using Figma</desc>
<g id="Canvas" transform="translate(1655 -58)">
<rect x="-1655" y="58" width="738" height="255" fill="#FFFFFF"/>
<g id="Component">
<g id="Rectangle">
<use xlink:href="#path0_fill" transform="translate(-1367 73.3192)" fill="#BDBDBD"/>
</g>
<g id="Rectangle">
<use xlink:href="#path0_fill" transform="translate(-1304.7 73.3192)" fill="#BDBDBD"/>
</g>
<g id="Rectangle">
<use xlink:href="#path0_fill" transform="translate(-1335.85 73.3192)" fill="#BDBDBD"/>
</g>
<g id="Ellipse 2">
<use xlink:href="#path1_fill" transform="translate(-1334.02 58)" fill="#BDBDBD"/>
</g>
<g id="Ellipse 2.1">
<use xlink:href="#path1_fill" transform="translate(-1365.17 58)" fill="#BDBDBD"/>
</g>
<g id="Ellipse 2.2">
<use xlink:href="#path1_fill" transform="translate(-1302.86 58)" fill="#BDBDBD"/>
</g>
<g id="Rectangle">
<use xlink:href="#path0_fill" transform="translate(-1273.55 73.3192)" fill="#BDBDBD"/>
</g>
<g id="Ellipse 2.3">
<use xlink:href="#path1_fill" transform="translate(-1271.71 58)" fill="#BDBDBD"/>
</g>
</g>
<g id="Component">
<g id="Rectangle">
<use xlink:href="#path0_fill" transform="translate(-1367 120.455)" fill="#BDBDBD"/>
</g>
<g id="Rectangle">
<use xlink:href="#path0_fill" transform="translate(-1304.7 120.455)" fill="#BDBDBD"/>
</g>
<g id="Rectangle">
<use xlink:href="#path0_fill" transform="translate(-1335.85 120.455)" fill="#BDBDBD"/>
</g>
<g id="Ellipse 2">
<use xlink:href="#path1_fill" transform="translate(-1334.02 105.136)" fill="#BDBDBD"/>
</g>
<g id="Ellipse 2.1">
<use xlink:href="#path1_fill" transform="translate(-1365.17 105.136)" fill="#BDBDBD"/>
</g>
<g id="Ellipse 2.2">
<use xlink:href="#path1_fill" transform="translate(-1302.86 105.136)" fill="#BDBDBD"/>
</g>
<g id="Rectangle">
<use xlink:href="#path0_fill" transform="translate(-1273.55 120.455)" fill="#BDBDBD"/>
</g>
<g id="Ellipse 2.3">
<use xlink:href="#path1_fill" transform="translate(-1271.71 105.136)" fill="#BDBDBD"/>
</g>
</g>
<g id="Component">
<g id="Rectangle">
<use xlink:href="#path0_fill" transform="translate(-1367 214.728)" fill="#BDBDBD"/>
</g>
<g id="Rectangle">
<use xlink:href="#path0_fill" transform="translate(-1304.7 214.728)" fill="#BDBDBD"/>
</g>
<g id="Rectangle">
<use xlink:href="#path0_fill" transform="translate(-1335.85 214.728)" fill="#BDBDBD"/>
</g>
<g id="Ellipse 2">
<use xlink:href="#path1_fill" transform="translate(-1334.02 199.408)" fill="#BDBDBD"/>
</g>
<g id="Ellipse 2.1">
<use xlink:href="#path1_fill" transform="translate(-1365.17 199.408)" fill="#BDBDBD"/>
</g>
<g id="Ellipse 2.2">
<use xlink:href="#path1_fill" transform="translate(-1302.86 199.408)" fill="#BDBDBD"/>
</g>
<g id="Rectangle">
<use xlink:href="#path0_fill" transform="translate(-1273.55 214.728)" fill="#BDBDBD"/>
</g>
<g id="Ellipse 2.3">
<use xlink:href="#path1_fill" transform="translate(-1271.71 199.408)" fill="#BDBDBD"/>
</g>
</g>
<g id="Component">
<g id="Rectangle">
<use xlink:href="#path0_fill" transform="translate(-1367 261.864)" fill="#BDBDBD"/>
</g>
<g id="Rectangle">
<use xlink:href="#path0_fill" transform="translate(-1304.7 261.864)" fill="#BDBDBD"/>
</g>
<g id="Rectangle">
<use xlink:href="#path0_fill" transform="translate(-1335.85 261.864)" fill="#BDBDBD"/>
</g>
<g id="Ellipse 2">
<use xlink:href="#path1_fill" transform="translate(-1334.02 246.545)" fill="#BDBDBD"/>
</g>
<g id="Ellipse 2.1">
<use xlink:href="#path1_fill" transform="translate(-1365.17 246.545)" fill="#BDBDBD"/>
</g>
<g id="Ellipse 2.2">
<use xlink:href="#path1_fill" transform="translate(-1302.86 246.545)" fill="#BDBDBD"/>
</g>
<g id="Rectangle">
<use xlink:href="#path0_fill" transform="translate(-1273.55 261.864)" fill="#BDBDBD"/>
</g>
<g id="Ellipse 2.3">
<use xlink:href="#path1_fill" transform="translate(-1271.71 246.545)" fill="#BDBDBD"/>
</g>
</g>
<g id="Ellipse">
<use xlink:href="#path2_fill" transform="translate(-1279.97 293)" fill="#C4C4C4"/>
</g>
<g id="Rectangle">
<use xlink:href="#path3_fill" transform="translate(-1281 300.373)" fill="#BDBDBD"/>
</g>
<g id="&#62;50000">
<use xlink:href="#path4_fill" transform="translate(-1352 293)"/>
</g>
<g id="......">
<use xlink:href="#path5_fill" transform="translate(-1343 138)"/>
</g>
<g id="Are people in our company satisfied at work?">
<use xlink:href="#path6_fill" transform="translate(-1668 214)"/>
</g>
<g id="Component 3">
<g id="Ellipse">
<mask id="mask0_outline_ins">
<use xlink:href="#path7_fill" fill="white" transform="translate(-1638 138)"/>
</mask>
<g mask="url(#mask0_outline_ins)">
<use xlink:href="#path8_stroke_2x" transform="translate(-1638 138)"/>
</g>
</g>
<g id="Line">
<use xlink:href="#path9_stroke" transform="matrix(0.902861 -0.429934 0.429934 0.902861 -1614 174)"/>
</g>
<g id="Line 2">
<use xlink:href="#path10_stroke" transform="matrix(-0.877096 -0.480315 0.480315 -0.877096 -1572 195)"/>
</g>
<g id="Ellipse 2">
<use xlink:href="#path11_fill" transform="translate(-1584 158)" fill="#333333"/>
</g>
</g>
<g id="Arrow 2">
<use xlink:href="#path12_stroke" transform="matrix(1 -2.44929e-16 2.44929e-16 1 -1437 173)"/>
</g>
<g id="Line 5">
<g id="Line 5">
<use xlink:href="#path13_stroke" transform="translate(-1555 174)"/>
</g>
</g>
<g id="Population">
<use xlink:href="#path14_fill" transform="translate(-1547 145)"/>
</g>
<g id="Component 3.1">
<g id="Ellipse">
<mask id="mask1_outline_ins">
<use xlink:href="#path7_fill" fill="white" transform="matrix(-0.999959 0.00908331 -0.00908331 -0.999959 -972.358 208.997)"/>
</mask>
<g mask="url(#mask1_outline_ins)">
<use xlink:href="#path8_stroke_2x" transform="matrix(-0.999959 0.00908331 -0.00908331 -0.999959 -972.358 208.997)"/>
</g>
</g>
<g id="Line">
<use xlink:href="#path9_stroke" transform="matrix(-0.898918 0.438117 -0.438117 -0.898918 -996.684 173.217)"/>
</g>
<g id="Line 2">
<use xlink:href="#path10_stroke" transform="matrix(0.881423 0.472328 -0.472328 0.881423 -1038.87 152.599)"/>
</g>
<g id="Ellipse 2">
<use xlink:href="#path11_fill" transform="matrix(-0.999959 0.00908331 -0.00908331 -0.999959 -1026.54 189.488)" fill="#333333"/>
</g>
</g>
<g id="Are people working at international companies satisified at work?">
<use xlink:href="#path15_fill" transform="translate(-1220 214)"/>
</g>
<g id="Sample">
<use xlink:href="#path16_fill" transform="translate(-1148 145)"/>
</g>
<g id="Arrow">
<use xlink:href="#path17_stroke" transform="matrix(-1 5.66554e-16 -5.66554e-16 -1 -1174 174)"/>
</g>
<g id="Line 5.1">
<g id="Line 5">
<use xlink:href="#path13_stroke" transform="translate(-1171 175)"/>
</g>
</g>
</g>
<defs>
<path id="path0_fill" d="M 0 0L 19.5459 0L 19.5459 24.1573L 0 24.1573L 0 0Z"/>
<path id="path1_fill" d="M 16.4919 7.65962C 16.4919 11.8899 12.8001 15.3192 8.24595 15.3192C 3.69184 15.3192 0 11.8899 0 7.65962C 0 3.42933 3.69184 0 8.24595 0C 12.8001 0 16.4919 3.42933 16.4919 7.65962Z"/>
<path id="path2_fill" d="M 9.28125 3.68656C 9.28125 5.72259 7.20357 7.37312 4.64062 7.37312C 2.07768 7.37312 0 5.72259 0 3.68656C 0 1.65053 2.07768 0 4.64062 0C 7.20357 0 9.28125 1.65053 9.28125 3.68656Z"/>
<path id="path3_fill" d="M 0 0L 11 0L 11 11.6268L 0 11.6268L 0 0Z"/>
<path id="path4_fill" d="M 7.76367 12.6523L 1.30859 10.123L 1.30859 8.26758L 9.64844 11.959L 9.64844 13.3848L 1.30859 17.0859L 1.30859 15.2109L 7.76367 12.6523ZM 12.4609 11.8711L 13.1836 4.78125L 20.4688 4.78125L 20.4688 6.45117L 14.7168 6.45117L 14.2871 10.3281C 14.9837 9.91797 15.7747 9.71289 16.6602 9.71289C 17.9557 9.71289 18.9844 10.1426 19.7461 11.002C 20.5078 11.8548 20.8887 13.0104 20.8887 14.4688C 20.8887 15.9336 20.4915 17.0892 19.6973 17.9355C 18.9095 18.7754 17.806 19.1953 16.3867 19.1953C 15.1302 19.1953 14.1048 18.847 13.3105 18.1504C 12.5163 17.4538 12.0638 16.4902 11.9531 15.2598L 13.6621 15.2598C 13.7728 16.0736 14.0625 16.6888 14.5312 17.1055C 15 17.5156 15.6185 17.7207 16.3867 17.7207C 17.2266 17.7207 17.8841 17.4342 18.3594 16.8613C 18.8411 16.2884 19.082 15.4974 19.082 14.4883C 19.082 13.5378 18.8216 12.776 18.3008 12.2031C 17.7865 11.6237 17.0996 11.334 16.2402 11.334C 15.4525 11.334 14.834 11.5065 14.3848 11.8516L 13.9062 12.2422L 12.4609 11.8711ZM 31.7773 12.9355C 31.7773 15.0514 31.416 16.6237 30.6934 17.6523C 29.9707 18.681 28.8411 19.1953 27.3047 19.1953C 25.7878 19.1953 24.6647 18.694 23.9355 17.6914C 23.2064 16.6823 22.8288 15.1784 22.8027 13.1797L 22.8027 10.7676C 22.8027 8.67773 23.1641 7.125 23.8867 6.10938C 24.6094 5.09375 25.7422 4.58594 27.2852 4.58594C 28.8151 4.58594 29.9414 5.07747 30.6641 6.06055C 31.3867 7.03711 31.7578 8.54753 31.7773 10.5918L 31.7773 12.9355ZM 29.9707 10.4648C 29.9707 8.9349 29.7559 7.82161 29.3262 7.125C 28.8965 6.42188 28.2161 6.07031 27.2852 6.07031C 26.3607 6.07031 25.6868 6.41862 25.2637 7.11523C 24.8405 7.81185 24.6224 8.88281 24.6094 10.3281L 24.6094 13.2188C 24.6094 14.7552 24.8307 15.8913 25.2734 16.627C 25.7227 17.3561 26.3997 17.7207 27.3047 17.7207C 28.1966 17.7207 28.8574 17.3757 29.2871 16.6855C 29.7233 15.9954 29.9512 14.9082 29.9707 13.4238L 29.9707 10.4648ZM 43.0078 12.9355C 43.0078 15.0514 42.6465 16.6237 41.9238 17.6523C 41.2012 18.681 40.0716 19.1953 38.5352 19.1953C 37.0182 19.1953 35.8952 18.694 35.166 17.6914C 34.4368 16.6823 34.0592 15.1784 34.0332 13.1797L 34.0332 10.7676C 34.0332 8.67773 34.3945 7.125 35.1172 6.10938C 35.8398 5.09375 36.9727 4.58594 38.5156 4.58594C 40.0456 4.58594 41.1719 5.07747 41.8945 6.06055C 42.6172 7.03711 42.9883 8.54753 43.0078 10.5918L 43.0078 12.9355ZM 41.2012 10.4648C 41.2012 8.9349 40.9863 7.82161 40.5566 7.125C 40.127 6.42188 39.4466 6.07031 38.5156 6.07031C 37.5911 6.07031 36.9173 6.41862 36.4941 7.11523C 36.071 7.81185 35.8529 8.88281 35.8398 10.3281L 35.8398 13.2188C 35.8398 14.7552 36.0612 15.8913 36.5039 16.627C 36.9531 17.3561 37.6302 17.7207 38.5352 17.7207C 39.4271 17.7207 40.0879 17.3757 40.5176 16.6855C 40.9538 15.9954 41.1816 14.9082 41.2012 13.4238L 41.2012 10.4648ZM 54.2383 12.9355C 54.2383 15.0514 53.877 16.6237 53.1543 17.6523C 52.4316 18.681 51.3021 19.1953 49.7656 19.1953C 48.2487 19.1953 47.1257 18.694 46.3965 17.6914C 45.6673 16.6823 45.2897 15.1784 45.2637 13.1797L 45.2637 10.7676C 45.2637 8.67773 45.625 7.125 46.3477 6.10938C 47.0703 5.09375 48.2031 4.58594 49.7461 4.58594C 51.276 4.58594 52.4023 5.07747 53.125 6.06055C 53.8477 7.03711 54.2188 8.54753 54.2383 10.5918L 54.2383 12.9355ZM 52.4316 10.4648C 52.4316 8.9349 52.2168 7.82161 51.7871 7.125C 51.3574 6.42188 50.6771 6.07031 49.7461 6.07031C 48.8216 6.07031 48.1478 6.41862 47.7246 7.11523C 47.3014 7.81185 47.0833 8.88281 47.0703 10.3281L 47.0703 13.2188C 47.0703 14.7552 47.2917 15.8913 47.7344 16.627C 48.1836 17.3561 48.8607 17.7207 49.7656 17.7207C 50.6576 17.7207 51.3184 17.3757 51.748 16.6855C 52.1842 15.9954 52.4121 14.9082 52.4316 13.4238L 52.4316 10.4648ZM 65.4688 12.9355C 65.4688 15.0514 65.1074 16.6237 64.3848 17.6523C 63.6621 18.681 62.5326 19.1953 60.9961 19.1953C 59.4792 19.1953 58.3561 18.694 57.627 17.6914C 56.8978 16.6823 56.5202 15.1784 56.4941 13.1797L 56.4941 10.7676C 56.4941 8.67773 56.8555 7.125 57.5781 6.10938C 58.3008 5.09375 59.4336 4.58594 60.9766 4.58594C 62.5065 4.58594 63.6328 5.07747 64.3555 6.06055C 65.0781 7.03711 65.4492 8.54753 65.4688 10.5918L 65.4688 12.9355ZM 63.6621 10.4648C 63.6621 8.9349 63.4473 7.82161 63.0176 7.125C 62.5879 6.42188 61.9076 6.07031 60.9766 6.07031C 60.0521 6.07031 59.3783 6.41862 58.9551 7.11523C 58.5319 7.81185 58.3138 8.88281 58.3008 10.3281L 58.3008 13.2188C 58.3008 14.7552 58.5221 15.8913 58.9648 16.627C 59.4141 17.3561 60.0911 17.7207 60.9961 17.7207C 61.888 17.7207 62.5488 17.3757 62.9785 16.6855C 63.4147 15.9954 63.6426 14.9082 63.6621 13.4238L 63.6621 10.4648Z"/>
<path id="path5_fill" d="M 2.8125 35.1055C 2.8125 34.4805 2.99479 33.9596 3.35938 33.543C 3.73698 33.1263 4.29688 32.918 5.03906 32.918C 5.78125 32.918 6.34115 33.1263 6.71875 33.543C 7.10938 33.9596 7.30469 34.4805 7.30469 35.1055C 7.30469 35.7044 7.10938 36.2057 6.71875 36.6094C 6.34115 37.013 5.78125 37.2148 5.03906 37.2148C 4.29688 37.2148 3.73698 37.013 3.35938 36.6094C 2.99479 36.2057 2.8125 35.7044 2.8125 35.1055ZM 13.3594 35.1055C 13.3594 34.4805 13.5417 33.9596 13.9062 33.543C 14.2839 33.1263 14.8438 32.918 15.5859 32.918C 16.3281 32.918 16.888 33.1263 17.2656 33.543C 17.6562 33.9596 17.8516 34.4805 17.8516 35.1055C 17.8516 35.7044 17.6562 36.2057 17.2656 36.6094C 16.888 37.013 16.3281 37.2148 15.5859 37.2148C 14.8438 37.2148 14.2839 37.013 13.9062 36.6094C 13.5417 36.2057 13.3594 35.7044 13.3594 35.1055ZM 23.9062 35.1055C 23.9062 34.4805 24.0885 33.9596 24.4531 33.543C 24.8307 33.1263 25.3906 32.918 26.1328 32.918C 26.875 32.918 27.4349 33.1263 27.8125 33.543C 28.2031 33.9596 28.3984 34.4805 28.3984 35.1055C 28.3984 35.7044 28.2031 36.2057 27.8125 36.6094C 27.4349 37.013 26.875 37.2148 26.1328 37.2148C 25.3906 37.2148 24.8307 37.013 24.4531 36.6094C 24.0885 36.2057 23.9062 35.7044 23.9062 35.1055ZM 34.4531 35.1055C 34.4531 34.4805 34.6354 33.9596 35 33.543C 35.3776 33.1263 35.9375 32.918 36.6797 32.918C 37.4219 32.918 37.9818 33.1263 38.3594 33.543C 38.75 33.9596 38.9453 34.4805 38.9453 35.1055C 38.9453 35.7044 38.75 36.2057 38.3594 36.6094C 37.9818 37.013 37.4219 37.2148 36.6797 37.2148C 35.9375 37.2148 35.3776 37.013 35 36.6094C 34.6354 36.2057 34.4531 35.7044 34.4531 35.1055ZM 45 35.1055C 45 34.4805 45.1823 33.9596 45.5469 33.543C 45.9245 33.1263 46.4844 32.918 47.2266 32.918C 47.9688 32.918 48.5286 33.1263 48.9062 33.543C 49.2969 33.9596 49.4922 34.4805 49.4922 35.1055C 49.4922 35.7044 49.2969 36.2057 48.9062 36.6094C 48.5286 37.013 47.9688 37.2148 47.2266 37.2148C 46.4844 37.2148 45.9245 37.013 45.5469 36.6094C 45.1823 36.2057 45 35.7044 45 35.1055ZM 55.5469 35.1055C 55.5469 34.4805 55.7292 33.9596 56.0938 33.543C 56.4714 33.1263 57.0312 32.918 57.7734 32.918C 58.5156 32.918 59.0755 33.1263 59.4531 33.543C 59.8438 33.9596 60.0391 34.4805 60.0391 35.1055C 60.0391 35.7044 59.8438 36.2057 59.4531 36.6094C 59.0755 37.013 58.5156 37.2148 57.7734 37.2148C 57.0312 37.2148 56.4714 37.013 56.0938 36.6094C 55.7292 36.2057 55.5469 35.7044 55.5469 35.1055Z"/>
<path id="path6_fill" d="M 23.1562 15.2891L 17.1992 15.2891L 15.8613 19L 13.9277 19L 19.3574 4.78125L 20.998 4.78125L 26.4375 19L 24.5137 19L 23.1562 15.2891ZM 17.7656 13.7461L 22.5996 13.7461L 20.1777 7.0957L 17.7656 13.7461ZM 33.1758 10.0547C 32.9023 10.0091 32.6061 9.98633 32.2871 9.98633C 31.1022 9.98633 30.2982 10.4909 29.875 11.5L 29.875 19L 28.0684 19L 28.0684 8.43359L 29.8262 8.43359L 29.8555 9.6543C 30.4479 8.71029 31.2878 8.23828 32.375 8.23828C 32.7266 8.23828 32.9935 8.28385 33.1758 8.375L 33.1758 10.0547ZM 39.0352 19.1953C 37.6029 19.1953 36.4375 18.7266 35.5391 17.7891C 34.6406 16.8451 34.1914 15.5853 34.1914 14.0098L 34.1914 13.6777C 34.1914 12.6296 34.39 11.6953 34.7871 10.875C 35.1908 10.0482 35.7507 9.40365 36.4668 8.94141C 37.1895 8.47266 37.9707 8.23828 38.8105 8.23828C 40.1842 8.23828 41.252 8.69076 42.0137 9.5957C 42.7754 10.5007 43.1562 11.7962 43.1562 13.4824L 43.1562 14.2344L 35.998 14.2344C 36.0241 15.276 36.3268 16.1191 36.9062 16.7637C 37.4922 17.4017 38.2344 17.7207 39.1328 17.7207C 39.7708 17.7207 40.3112 17.5905 40.7539 17.3301C 41.1966 17.0697 41.584 16.7246 41.916 16.2949L 43.0195 17.1543C 42.1341 18.515 40.806 19.1953 39.0352 19.1953ZM 38.8105 9.72266C 38.0814 9.72266 37.4694 9.98958 36.9746 10.5234C 36.4798 11.0508 36.1738 11.793 36.0566 12.75L 41.3496 12.75L 41.3496 12.6133C 41.2975 11.6953 41.0501 10.9857 40.6074 10.4844C 40.1647 9.97656 39.5658 9.72266 38.8105 9.72266ZM 59.1426 13.834C 59.1426 15.4421 58.7747 16.7376 58.0391 17.7207C 57.3034 18.7038 56.3073 19.1953 55.0508 19.1953C 53.7682 19.1953 52.7591 18.7884 52.0234 17.9746L 52.0234 23.0625L 50.2168 23.0625L 50.2168 8.43359L 51.8672 8.43359L 51.9551 9.60547C 52.6908 8.69401 53.7129 8.23828 55.0215 8.23828C 56.291 8.23828 57.2936 8.7168 58.0293 9.67383C 58.7715 10.6309 59.1426 11.9622 59.1426 13.668L 59.1426 13.834ZM 57.3359 13.6289C 57.3359 12.4375 57.082 11.4967 56.5742 10.8066C 56.0664 10.1165 55.3698 9.77148 54.4844 9.77148C 53.3906 9.77148 52.5703 10.2565 52.0234 11.2266L 52.0234 16.2754C 52.5638 17.2389 53.3906 17.7207 54.5039 17.7207C 55.3698 17.7207 56.0566 17.3789 56.5645 16.6953C 57.0788 16.0052 57.3359 14.9831 57.3359 13.6289ZM 65.832 19.1953C 64.3997 19.1953 63.2344 18.7266 62.3359 17.7891C 61.4375 16.8451 60.9883 15.5853 60.9883 14.0098L 60.9883 13.6777C 60.9883 12.6296 61.1868 11.6953 61.584 10.875C 61.9876 10.0482 62.5475 9.40365 63.2637 8.94141C 63.9863 8.47266 64.7676 8.23828 65.6074 8.23828C 66.9811 8.23828 68.0488 8.69076 68.8105 9.5957C 69.5723 10.5007 69.9531 11.7962 69.9531 13.4824L 69.9531 14.2344L 62.7949 14.2344C 62.821 15.276 63.1237 16.1191 63.7031 16.7637C 64.2891 17.4017 65.0312 17.7207 65.9297 17.7207C 66.5677 17.7207 67.1081 17.5905 67.5508 17.3301C 67.9935 17.0697 68.3809 16.7246 68.7129 16.2949L 69.8164 17.1543C 68.931 18.515 67.6029 19.1953 65.832 19.1953ZM 65.6074 9.72266C 64.8783 9.72266 64.2663 9.98958 63.7715 10.5234C 63.2767 11.0508 62.9707 11.793 62.8535 12.75L 68.1465 12.75L 68.1465 12.6133C 68.0944 11.6953 67.847 10.9857 67.4043 10.4844C 66.9616 9.97656 66.3626 9.72266 65.6074 9.72266ZM 71.5742 13.6191C 71.5742 12.584 71.776 11.653 72.1797 10.8262C 72.5898 9.99935 73.1562 9.36133 73.8789 8.91211C 74.6081 8.46289 75.4382 8.23828 76.3691 8.23828C 77.8079 8.23828 78.9701 8.73633 79.8555 9.73242C 80.7474 10.7285 81.1934 12.0534 81.1934 13.707L 81.1934 13.834C 81.1934 14.8626 80.9948 15.7871 80.5977 16.6074C 80.207 17.4212 79.6439 18.056 78.9082 18.5117C 78.179 18.9674 77.3392 19.1953 76.3887 19.1953C 74.9564 19.1953 73.7943 18.6973 72.9023 17.7012C 72.0169 16.7051 71.5742 15.3867 71.5742 13.7461L 71.5742 13.6191ZM 73.3906 13.834C 73.3906 15.0059 73.6608 15.9466 74.2012 16.6562C 74.748 17.3659 75.4772 17.7207 76.3887 17.7207C 77.3066 17.7207 78.0358 17.3626 78.5762 16.6465C 79.1165 15.9238 79.3867 14.9147 79.3867 13.6191C 79.3867 12.4603 79.11 11.5228 78.5566 10.8066C 78.0098 10.084 77.2806 9.72266 76.3691 9.72266C 75.4772 9.72266 74.7578 10.0775 74.2109 10.7871C 73.6641 11.4967 73.3906 12.5124 73.3906 13.834ZM 92.3848 13.834C 92.3848 15.4421 92.0169 16.7376 91.2812 17.7207C 90.5456 18.7038 89.5495 19.1953 88.293 19.1953C 87.0104 19.1953 86.0013 18.7884 85.2656 17.9746L 85.2656 23.0625L 83.459 23.0625L 83.459 8.43359L 85.1094 8.43359L 85.1973 9.60547C 85.9329 8.69401 86.9551 8.23828 88.2637 8.23828C 89.5332 8.23828 90.5358 8.7168 91.2715 9.67383C 92.0137 10.6309 92.3848 11.9622 92.3848 13.668L 92.3848 13.834ZM 90.5781 13.6289C 90.5781 12.4375 90.3242 11.4967 89.8164 10.8066C 89.3086 10.1165 88.612 9.77148 87.7266 9.77148C 86.6328 9.77148 85.8125 10.2565 85.2656 11.2266L 85.2656 16.2754C 85.806 17.2389 86.6328 17.7207 87.7461 17.7207C 88.612 17.7207 89.2988 17.3789 89.8066 16.6953C 90.321 16.0052 90.5781 14.9831 90.5781 13.6289ZM 96.6523 19L 94.8457 19L 94.8457 4L 96.6523 4L 96.6523 19ZM 103.938 19.1953C 102.505 19.1953 101.34 18.7266 100.441 17.7891C 99.543 16.8451 99.0938 15.5853 99.0938 14.0098L 99.0938 13.6777C 99.0938 12.6296 99.2923 11.6953 99.6895 10.875C 100.093 10.0482 100.653 9.40365 101.369 8.94141C 102.092 8.47266 102.873 8.23828 103.713 8.23828C 105.087 8.23828 106.154 8.69076 106.916 9.5957C 107.678 10.5007 108.059 11.7962 108.059 13.4824L 108.059 14.2344L 100.9 14.2344C 100.926 15.276 101.229 16.1191 101.809 16.7637C 102.395 17.4017 103.137 17.7207 104.035 17.7207C 104.673 17.7207 105.214 17.5905 105.656 17.3301C 106.099 17.0697 106.486 16.7246 106.818 16.2949L 107.922 17.1543C 107.036 18.515 105.708 19.1953 103.938 19.1953ZM 103.713 9.72266C 102.984 9.72266 102.372 9.98958 101.877 10.5234C 101.382 11.0508 101.076 11.793 100.959 12.75L 106.252 12.75L 106.252 12.6133C 106.2 11.6953 105.952 10.9857 105.51 10.4844C 105.067 9.97656 104.468 9.72266 103.713 9.72266ZM 117.814 19L 114.982 19L 114.982 8.43359L 117.814 8.43359L 117.814 19ZM 114.816 5.69922C 114.816 5.27604 114.956 4.92773 115.236 4.6543C 115.523 4.38086 115.91 4.24414 116.398 4.24414C 116.88 4.24414 117.264 4.38086 117.551 4.6543C 117.837 4.92773 117.98 5.27604 117.98 5.69922C 117.98 6.12891 117.834 6.48047 117.541 6.75391C 117.255 7.02734 116.874 7.16406 116.398 7.16406C 115.923 7.16406 115.539 7.02734 115.246 6.75391C 114.96 6.48047 114.816 6.12891 114.816 5.69922ZM 122.746 8.43359L 122.834 9.6543C 123.589 8.71029 124.602 8.23828 125.871 8.23828C 126.991 8.23828 127.824 8.56706 128.371 9.22461C 128.918 9.88216 129.198 10.8652 129.211 12.1738L 129.211 19L 126.389 19L 126.389 12.2422C 126.389 11.6432 126.258 11.2103 125.998 10.9434C 125.738 10.6699 125.305 10.5332 124.699 10.5332C 123.905 10.5332 123.309 10.8717 122.912 11.5488L 122.912 19L 120.09 19L 120.09 8.43359L 122.746 8.43359ZM 135.9 13.6191C 135.9 12.571 136.102 11.6367 136.506 10.8164C 136.91 9.99609 137.489 9.36133 138.244 8.91211C 139.006 8.46289 139.888 8.23828 140.891 8.23828C 142.316 8.23828 143.479 8.67448 144.377 9.54688C 145.282 10.4193 145.786 11.6042 145.891 13.1016L 145.91 13.8242C 145.91 15.4453 145.458 16.7474 144.553 17.7305C 143.648 18.707 142.434 19.1953 140.91 19.1953C 139.387 19.1953 138.169 18.707 137.258 17.7305C 136.353 16.7539 135.9 15.4258 135.9 13.7461L 135.9 13.6191ZM 138.723 13.8242C 138.723 14.8268 138.911 15.5951 139.289 16.1289C 139.667 16.6562 140.207 16.9199 140.91 16.9199C 141.594 16.9199 142.128 16.6595 142.512 16.1387C 142.896 15.6113 143.088 14.7715 143.088 13.6191C 143.088 12.6361 142.896 11.8743 142.512 11.334C 142.128 10.7936 141.587 10.5234 140.891 10.5234C 140.201 10.5234 139.667 10.7936 139.289 11.334C 138.911 11.8678 138.723 12.6979 138.723 13.8242ZM 153.977 17.9258C 153.28 18.7721 152.316 19.1953 151.086 19.1953C 149.953 19.1953 149.087 18.8698 148.488 18.2188C 147.896 17.5677 147.593 16.6139 147.58 15.3574L 147.58 8.43359L 150.402 8.43359L 150.402 15.2598C 150.402 16.36 150.904 16.9102 151.906 16.9102C 152.863 16.9102 153.521 16.5781 153.879 15.9141L 153.879 8.43359L 156.711 8.43359L 156.711 19L 154.055 19L 153.977 17.9258ZM 164.777 11.0801C 164.393 11.028 164.055 11.002 163.762 11.002C 162.694 11.002 161.994 11.3633 161.662 12.0859L 161.662 19L 158.84 19L 158.84 8.43359L 161.506 8.43359L 161.584 9.69336C 162.15 8.72331 162.935 8.23828 163.938 8.23828C 164.25 8.23828 164.543 8.2806 164.816 8.36523L 164.777 11.0801ZM 175.52 16.9199C 176.04 16.9199 176.464 16.7767 176.789 16.4902C 177.115 16.2038 177.284 15.8229 177.297 15.3477L 179.943 15.3477C 179.937 16.0638 179.742 16.7214 179.357 17.3203C 178.973 17.9128 178.446 18.375 177.775 18.707C 177.111 19.0326 176.376 19.1953 175.568 19.1953C 174.058 19.1953 172.867 18.7168 171.994 17.7598C 171.122 16.7962 170.686 15.4681 170.686 13.7754L 170.686 13.5898C 170.686 11.9622 171.118 10.6634 171.984 9.69336C 172.85 8.72331 174.038 8.23828 175.549 8.23828C 176.87 8.23828 177.928 8.61589 178.723 9.37109C 179.523 10.1198 179.93 11.1191 179.943 12.3691L 177.297 12.3691C 177.284 11.8223 177.115 11.3796 176.789 11.041C 176.464 10.696 176.034 10.5234 175.5 10.5234C 174.842 10.5234 174.344 10.7643 174.006 11.2461C 173.674 11.7214 173.508 12.4961 173.508 13.5703L 173.508 13.8633C 173.508 14.9505 173.674 15.7318 174.006 16.207C 174.338 16.6823 174.842 16.9199 175.52 16.9199ZM 181.115 13.6191C 181.115 12.571 181.317 11.6367 181.721 10.8164C 182.124 9.99609 182.704 9.36133 183.459 8.91211C 184.221 8.46289 185.103 8.23828 186.105 8.23828C 187.531 8.23828 188.693 8.67448 189.592 9.54688C 190.497 10.4193 191.001 11.6042 191.105 13.1016L 191.125 13.8242C 191.125 15.4453 190.673 16.7474 189.768 17.7305C 188.863 18.707 187.648 19.1953 186.125 19.1953C 184.602 19.1953 183.384 18.707 182.473 17.7305C 181.568 16.7539 181.115 15.4258 181.115 13.7461L 181.115 13.6191ZM 183.938 13.8242C 183.938 14.8268 184.126 15.5951 184.504 16.1289C 184.882 16.6562 185.422 16.9199 186.125 16.9199C 186.809 16.9199 187.342 16.6595 187.727 16.1387C 188.111 15.6113 188.303 14.7715 188.303 13.6191C 188.303 12.6361 188.111 11.8743 187.727 11.334C 187.342 10.7936 186.802 10.5234 186.105 10.5234C 185.415 10.5234 184.882 10.7936 184.504 11.334C 184.126 11.8678 183.938 12.6979 183.938 13.8242ZM 195.51 8.43359L 195.598 9.61523C 196.346 8.69727 197.359 8.23828 198.635 8.23828C 199.995 8.23828 200.93 8.77539 201.438 9.84961C 202.18 8.77539 203.238 8.23828 204.611 8.23828C 205.757 8.23828 206.61 8.57357 207.17 9.24414C 207.73 9.9082 208.01 10.9108 208.01 12.252L 208.01 19L 205.178 19L 205.178 12.2617C 205.178 11.6628 205.061 11.2266 204.826 10.9531C 204.592 10.6732 204.178 10.5332 203.586 10.5332C 202.74 10.5332 202.154 10.9368 201.828 11.7441L 201.838 19L 199.016 19L 199.016 12.2715C 199.016 11.6595 198.895 11.2168 198.654 10.9434C 198.413 10.6699 198.003 10.5332 197.424 10.5332C 196.623 10.5332 196.044 10.8652 195.686 11.5293L 195.686 19L 192.863 19L 192.863 8.43359L 195.51 8.43359ZM 219.699 13.8145C 219.699 15.4421 219.328 16.7474 218.586 17.7305C 217.85 18.707 216.854 19.1953 215.598 19.1953C 214.53 19.1953 213.667 18.8242 213.01 18.082L 213.01 23.0625L 210.188 23.0625L 210.188 8.43359L 212.805 8.43359L 212.902 9.46875C 213.586 8.64844 214.478 8.23828 215.578 8.23828C 216.88 8.23828 217.893 8.72005 218.615 9.68359C 219.338 10.6471 219.699 11.9753 219.699 13.668L 219.699 13.8145ZM 216.877 13.6094C 216.877 12.6263 216.701 11.8678 216.35 11.334C 216.005 10.8001 215.5 10.5332 214.836 10.5332C 213.951 10.5332 213.342 10.8717 213.01 11.5488L 213.01 15.875C 213.355 16.5716 213.97 16.9199 214.855 16.9199C 216.203 16.9199 216.877 15.8164 216.877 13.6094ZM 227.58 19C 227.45 18.7461 227.355 18.4303 227.297 18.0527C 226.613 18.8145 225.725 19.1953 224.631 19.1953C 223.596 19.1953 222.736 18.8958 222.053 18.2969C 221.376 17.6979 221.037 16.9427 221.037 16.0312C 221.037 14.9115 221.451 14.0521 222.277 13.4531C 223.111 12.8542 224.312 12.5514 225.881 12.5449L 227.18 12.5449L 227.18 11.9395C 227.18 11.4512 227.053 11.0605 226.799 10.7676C 226.551 10.4746 226.158 10.3281 225.617 10.3281C 225.142 10.3281 224.768 10.4421 224.494 10.6699C 224.227 10.8978 224.094 11.2103 224.094 11.6074L 221.271 11.6074C 221.271 10.9954 221.46 10.429 221.838 9.9082C 222.215 9.38737 222.749 8.98047 223.439 8.6875C 224.13 8.38802 224.904 8.23828 225.764 8.23828C 227.066 8.23828 228.098 8.56706 228.859 9.22461C 229.628 9.87565 230.012 10.7936 230.012 11.9785L 230.012 16.5586C 230.018 17.5612 230.158 18.3197 230.432 18.834L 230.432 19L 227.58 19ZM 225.246 17.0371C 225.663 17.0371 226.047 16.946 226.398 16.7637C 226.75 16.5749 227.01 16.3242 227.18 16.0117L 227.18 14.1953L 226.125 14.1953C 224.712 14.1953 223.96 14.6836 223.869 15.6602L 223.859 15.8262C 223.859 16.1777 223.983 16.4674 224.23 16.6953C 224.478 16.9232 224.816 17.0371 225.246 17.0371ZM 234.777 8.43359L 234.865 9.6543C 235.62 8.71029 236.633 8.23828 237.902 8.23828C 239.022 8.23828 239.855 8.56706 240.402 9.22461C 240.949 9.88216 241.229 10.8652 241.242 12.1738L 241.242 19L 238.42 19L 238.42 12.2422C 238.42 11.6432 238.29 11.2103 238.029 10.9434C 237.769 10.6699 237.336 10.5332 236.73 10.5332C 235.936 10.5332 235.34 10.8717 234.943 11.5488L 234.943 19L 232.121 19L 232.121 8.43359L 234.777 8.43359ZM 247.336 15.0059L 249.289 8.43359L 252.316 8.43359L 248.068 20.6406L 247.834 21.1973C 247.202 22.5775 246.161 23.2676 244.709 23.2676C 244.299 23.2676 243.882 23.2057 243.459 23.082L 243.459 20.9434L 243.889 20.9531C 244.423 20.9531 244.82 20.8717 245.08 20.709C 245.347 20.5462 245.555 20.276 245.705 19.8984L 246.037 19.0293L 242.336 8.43359L 245.373 8.43359L 247.336 15.0059ZM 62.502 39.1973C 62.502 38.709 62.3164 38.3314 61.9453 38.0645C 61.5807 37.791 60.9395 37.5566 60.0215 37.3613C 59.11 37.166 58.3841 36.9316 57.8438 36.6582C 57.3099 36.3848 56.9128 36.0592 56.6523 35.6816C 56.3984 35.304 56.2715 34.8548 56.2715 34.334C 56.2715 33.4681 56.6361 32.7357 57.3652 32.1367C 58.1009 31.5378 59.0384 31.2383 60.1777 31.2383C 61.3757 31.2383 62.3457 31.5475 63.0879 32.166C 63.8366 32.7845 64.2109 33.5755 64.2109 34.5391L 62.3945 34.5391C 62.3945 34.0443 62.1829 33.6178 61.7598 33.2598C 61.3431 32.9017 60.8158 32.7227 60.1777 32.7227C 59.5202 32.7227 59.0059 32.8659 58.6348 33.1523C 58.2637 33.4388 58.0781 33.8132 58.0781 34.2754C 58.0781 34.7116 58.2507 35.0404 58.5957 35.2617C 58.9408 35.4831 59.5625 35.6947 60.4609 35.8965C 61.3659 36.0983 62.0983 36.3392 62.6582 36.6191C 63.2181 36.8991 63.6315 37.2376 63.8984 37.6348C 64.1719 38.0254 64.3086 38.5039 64.3086 39.0703C 64.3086 40.0143 63.931 40.7728 63.1758 41.3457C 62.4206 41.9121 61.4408 42.1953 60.2363 42.1953C 59.39 42.1953 58.6413 42.0456 57.9902 41.7461C 57.3392 41.4466 56.8281 41.0299 56.457 40.4961C 56.0924 39.9557 55.9102 39.373 55.9102 38.748L 57.7168 38.748C 57.7493 39.3535 57.9902 39.8353 58.4395 40.1934C 58.8952 40.5449 59.4941 40.7207 60.2363 40.7207C 60.9199 40.7207 61.4668 40.584 61.877 40.3105C 62.2936 40.0306 62.502 39.6595 62.502 39.1973ZM 73.1855 42C 73.0814 41.7917 72.9967 41.4206 72.9316 40.8867C 72.0918 41.7591 71.0892 42.1953 69.9238 42.1953C 68.8822 42.1953 68.026 41.9023 67.3555 41.3164C 66.6914 40.724 66.3594 39.9753 66.3594 39.0703C 66.3594 37.9701 66.776 37.1172 67.6094 36.5117C 68.4492 35.8997 69.6276 35.5938 71.1445 35.5938L 72.9023 35.5938L 72.9023 34.7637C 72.9023 34.1322 72.7135 33.6309 72.3359 33.2598C 71.9583 32.8822 71.4017 32.6934 70.666 32.6934C 70.0215 32.6934 69.4811 32.8561 69.0449 33.1816C 68.6087 33.5072 68.3906 33.901 68.3906 34.3633L 66.5742 34.3633C 66.5742 33.8359 66.7598 33.3281 67.1309 32.8398C 67.5085 32.3451 68.0163 31.9544 68.6543 31.668C 69.2988 31.3815 70.0052 31.2383 70.7734 31.2383C 71.9909 31.2383 72.9447 31.5443 73.6348 32.1562C 74.3249 32.7617 74.6829 33.5983 74.709 34.666L 74.709 39.5293C 74.709 40.4993 74.8327 41.2708 75.0801 41.8438L 75.0801 42L 73.1855 42ZM 70.1875 40.623C 70.7539 40.623 71.291 40.4766 71.7988 40.1836C 72.3066 39.8906 72.6745 39.5098 72.9023 39.041L 72.9023 36.873L 71.4863 36.873C 69.2728 36.873 68.166 37.5208 68.166 38.8164C 68.166 39.3828 68.3548 39.8255 68.7324 40.1445C 69.11 40.4635 69.5951 40.623 70.1875 40.623ZM 79.9922 28.875L 79.9922 31.4336L 81.9648 31.4336L 81.9648 32.8301L 79.9922 32.8301L 79.9922 39.3828C 79.9922 39.806 80.0801 40.125 80.2559 40.3398C 80.4316 40.5482 80.7311 40.6523 81.1543 40.6523C 81.3626 40.6523 81.6491 40.6133 82.0137 40.5352L 82.0137 42C 81.5384 42.1302 81.0762 42.1953 80.627 42.1953C 79.8197 42.1953 79.2109 41.9512 78.8008 41.4629C 78.3906 40.9746 78.1855 40.2812 78.1855 39.3828L 78.1855 32.8301L 76.2617 32.8301L 76.2617 31.4336L 78.1855 31.4336L 78.1855 28.875L 79.9922 28.875ZM 86.0469 42L 84.2402 42L 84.2402 31.4336L 86.0469 31.4336L 86.0469 42ZM 84.0938 28.6309C 84.0938 28.3379 84.1816 28.0905 84.3574 27.8887C 84.5397 27.6868 84.8066 27.5859 85.1582 27.5859C 85.5098 27.5859 85.7767 27.6868 85.959 27.8887C 86.1413 28.0905 86.2324 28.3379 86.2324 28.6309C 86.2324 28.9238 86.1413 29.168 85.959 29.3633C 85.7767 29.5586 85.5098 29.6562 85.1582 29.6562C 84.8066 29.6562 84.5397 29.5586 84.3574 29.3633C 84.1816 29.168 84.0938 28.9238 84.0938 28.6309ZM 95.0996 39.1973C 95.0996 38.709 94.9141 38.3314 94.543 38.0645C 94.1784 37.791 93.5371 37.5566 92.6191 37.3613C 91.7077 37.166 90.9818 36.9316 90.4414 36.6582C 89.9076 36.3848 89.5104 36.0592 89.25 35.6816C 88.9961 35.304 88.8691 34.8548 88.8691 34.334C 88.8691 33.4681 89.2337 32.7357 89.9629 32.1367C 90.6986 31.5378 91.6361 31.2383 92.7754 31.2383C 93.9733 31.2383 94.9434 31.5475 95.6855 32.166C 96.4342 32.7845 96.8086 33.5755 96.8086 34.5391L 94.9922 34.5391C 94.9922 34.0443 94.7806 33.6178 94.3574 33.2598C 93.9408 32.9017 93.4134 32.7227 92.7754 32.7227C 92.1178 32.7227 91.6035 32.8659 91.2324 33.1523C 90.8613 33.4388 90.6758 33.8132 90.6758 34.2754C 90.6758 34.7116 90.8483 35.0404 91.1934 35.2617C 91.5384 35.4831 92.1602 35.6947 93.0586 35.8965C 93.9635 36.0983 94.696 36.3392 95.2559 36.6191C 95.8158 36.8991 96.2292 37.2376 96.4961 37.6348C 96.7695 38.0254 96.9062 38.5039 96.9062 39.0703C 96.9062 40.0143 96.5286 40.7728 95.7734 41.3457C 95.0182 41.9121 94.0384 42.1953 92.834 42.1953C 91.9876 42.1953 91.2389 42.0456 90.5879 41.7461C 89.9368 41.4466 89.4258 41.0299 89.0547 40.4961C 88.6901 39.9557 88.5078 39.373 88.5078 38.748L 90.3145 38.748C 90.347 39.3535 90.5879 39.8353 91.0371 40.1934C 91.4928 40.5449 92.0918 40.7207 92.834 40.7207C 93.5176 40.7207 94.0645 40.584 94.4746 40.3105C 94.8913 40.0306 95.0996 39.6595 95.0996 39.1973ZM 99.8652 42L 99.8652 32.8301L 98.1953 32.8301L 98.1953 31.4336L 99.8652 31.4336L 99.8652 30.5352C 99.8652 29.3568 100.201 28.4388 100.871 27.7812C 101.548 27.1237 102.502 26.7949 103.732 26.7949C 104.462 26.7949 105.383 26.9935 106.496 27.3906L 106.193 28.9141C 105.38 28.5885 104.605 28.4258 103.869 28.4258C 103.094 28.4258 102.535 28.6016 102.189 28.9531C 101.851 29.2982 101.682 29.819 101.682 30.5156L 101.682 31.4336L 103.84 31.4336L 103.84 32.8301L 101.682 32.8301L 101.682 42L 99.8652 42ZM 107.395 42L 105.578 42L 105.578 31.4336L 107.395 31.4336L 107.395 42ZM 114.719 42.1953C 113.286 42.1953 112.121 41.7266 111.223 40.7891C 110.324 39.8451 109.875 38.5853 109.875 37.0098L 109.875 36.6777C 109.875 35.6296 110.074 34.6953 110.471 33.875C 110.874 33.0482 111.434 32.4036 112.15 31.9414C 112.873 31.4727 113.654 31.2383 114.494 31.2383C 115.868 31.2383 116.936 31.6908 117.697 32.5957C 118.459 33.5007 118.84 34.7962 118.84 36.4824L 118.84 37.2344L 111.682 37.2344C 111.708 38.276 112.01 39.1191 112.59 39.7637C 113.176 40.4017 113.918 40.7207 114.816 40.7207C 115.454 40.7207 115.995 40.5905 116.438 40.3301C 116.88 40.0697 117.268 39.7246 117.6 39.2949L 118.703 40.1543C 117.818 41.515 116.49 42.1953 114.719 42.1953ZM 114.494 32.7227C 113.765 32.7227 113.153 32.9896 112.658 33.5234C 112.163 34.0508 111.857 34.793 111.74 35.75L 117.033 35.75L 117.033 35.6133C 116.981 34.6953 116.734 33.9857 116.291 33.4844C 115.848 32.9766 115.249 32.7227 114.494 32.7227ZM 120.5 36.6289C 120.5 35.0078 120.884 33.7057 121.652 32.7227C 122.421 31.7331 123.426 31.2383 124.67 31.2383C 125.907 31.2383 126.887 31.6615 127.609 32.5078L 127.609 27L 129.416 27L 129.416 42L 127.756 42L 127.668 40.8672C 126.945 41.7526 125.939 42.1953 124.65 42.1953C 123.426 42.1953 122.427 41.694 121.652 40.6914C 120.884 39.6888 120.5 38.3802 120.5 36.7656L 120.5 36.6289ZM 122.307 36.834C 122.307 38.0319 122.554 38.9694 123.049 39.6465C 123.544 40.3236 124.227 40.6621 125.1 40.6621C 126.245 40.6621 127.082 40.1478 127.609 39.1191L 127.609 34.2656C 127.069 33.2695 126.239 32.7715 125.119 32.7715C 124.234 32.7715 123.544 33.1133 123.049 33.7969C 122.554 34.4805 122.307 35.4928 122.307 36.834ZM 143.713 42C 143.609 41.7917 143.524 41.4206 143.459 40.8867C 142.619 41.7591 141.617 42.1953 140.451 42.1953C 139.41 42.1953 138.553 41.9023 137.883 41.3164C 137.219 40.724 136.887 39.9753 136.887 39.0703C 136.887 37.9701 137.303 37.1172 138.137 36.5117C 138.977 35.8997 140.155 35.5938 141.672 35.5938L 143.43 35.5938L 143.43 34.7637C 143.43 34.1322 143.241 33.6309 142.863 33.2598C 142.486 32.8822 141.929 32.6934 141.193 32.6934C 140.549 32.6934 140.008 32.8561 139.572 33.1816C 139.136 33.5072 138.918 33.901 138.918 34.3633L 137.102 34.3633C 137.102 33.8359 137.287 33.3281 137.658 32.8398C 138.036 32.3451 138.544 31.9544 139.182 31.668C 139.826 31.3815 140.533 31.2383 141.301 31.2383C 142.518 31.2383 143.472 31.5443 144.162 32.1562C 144.852 32.7617 145.21 33.5983 145.236 34.666L 145.236 39.5293C 145.236 40.4993 145.36 41.2708 145.607 41.8438L 145.607 42L 143.713 42ZM 140.715 40.623C 141.281 40.623 141.818 40.4766 142.326 40.1836C 142.834 39.8906 143.202 39.5098 143.43 39.041L 143.43 36.873L 142.014 36.873C 139.8 36.873 138.693 37.5208 138.693 38.8164C 138.693 39.3828 138.882 39.8255 139.26 40.1445C 139.637 40.4635 140.122 40.623 140.715 40.623ZM 150.52 28.875L 150.52 31.4336L 152.492 31.4336L 152.492 32.8301L 150.52 32.8301L 150.52 39.3828C 150.52 39.806 150.607 40.125 150.783 40.3398C 150.959 40.5482 151.258 40.6523 151.682 40.6523C 151.89 40.6523 152.176 40.6133 152.541 40.5352L 152.541 42C 152.066 42.1302 151.604 42.1953 151.154 42.1953C 150.347 42.1953 149.738 41.9512 149.328 41.4629C 148.918 40.9746 148.713 40.2812 148.713 39.3828L 148.713 32.8301L 146.789 32.8301L 146.789 31.4336L 148.713 31.4336L 148.713 28.875L 150.52 28.875ZM 168.928 39.5098L 170.959 31.4336L 172.766 31.4336L 169.689 42L 168.225 42L 165.656 33.9922L 163.156 42L 161.691 42L 158.625 31.4336L 160.422 31.4336L 162.502 39.3438L 164.963 31.4336L 166.418 31.4336L 168.928 39.5098ZM 174.133 36.6191C 174.133 35.584 174.335 34.653 174.738 33.8262C 175.148 32.9993 175.715 32.3613 176.438 31.9121C 177.167 31.4629 177.997 31.2383 178.928 31.2383C 180.367 31.2383 181.529 31.7363 182.414 32.7324C 183.306 33.7285 183.752 35.0534 183.752 36.707L 183.752 36.834C 183.752 37.8626 183.553 38.7871 183.156 39.6074C 182.766 40.4212 182.202 41.056 181.467 41.5117C 180.738 41.9674 179.898 42.1953 178.947 42.1953C 177.515 42.1953 176.353 41.6973 175.461 40.7012C 174.576 39.7051 174.133 38.3867 174.133 36.7461L 174.133 36.6191ZM 175.949 36.834C 175.949 38.0059 176.219 38.9466 176.76 39.6562C 177.307 40.3659 178.036 40.7207 178.947 40.7207C 179.865 40.7207 180.594 40.3626 181.135 39.6465C 181.675 38.9238 181.945 37.9147 181.945 36.6191C 181.945 35.4603 181.669 34.5228 181.115 33.8066C 180.568 33.084 179.839 32.7227 178.928 32.7227C 178.036 32.7227 177.316 33.0775 176.77 33.7871C 176.223 34.4967 175.949 35.5124 175.949 36.834ZM 191.125 33.0547C 190.852 33.0091 190.555 32.9863 190.236 32.9863C 189.051 32.9863 188.247 33.4909 187.824 34.5L 187.824 42L 186.018 42L 186.018 31.4336L 187.775 31.4336L 187.805 32.6543C 188.397 31.7103 189.237 31.2383 190.324 31.2383C 190.676 31.2383 190.943 31.2839 191.125 31.375L 191.125 33.0547ZM 195.744 37.1074L 194.611 38.2891L 194.611 42L 192.805 42L 192.805 27L 194.611 27L 194.611 36.0723L 195.578 34.9102L 198.869 31.4336L 201.066 31.4336L 196.955 35.8477L 201.545 42L 199.426 42L 195.744 37.1074ZM 205.051 37.9961C 205.064 37.2214 205.152 36.6094 205.314 36.1602C 205.477 35.7109 205.809 35.2129 206.311 34.666L 207.59 33.3477C 208.137 32.7292 208.41 32.0651 208.41 31.3555C 208.41 30.6719 208.231 30.138 207.873 29.7539C 207.515 29.3633 206.994 29.168 206.311 29.168C 205.646 29.168 205.113 29.3438 204.709 29.6953C 204.305 30.0469 204.104 30.5189 204.104 31.1113L 202.297 31.1113C 202.31 30.0566 202.684 29.207 203.42 28.5625C 204.162 27.9115 205.126 27.5859 206.311 27.5859C 207.541 27.5859 208.498 27.918 209.182 28.582C 209.872 29.2396 210.217 30.1445 210.217 31.2969C 210.217 32.4362 209.689 33.5592 208.635 34.666L 207.57 35.7207C 207.095 36.248 206.857 37.0065 206.857 37.9961L 205.051 37.9961ZM 204.973 41.0918C 204.973 40.7988 205.061 40.5547 205.236 40.3594C 205.419 40.1576 205.686 40.0566 206.037 40.0566C 206.389 40.0566 206.656 40.1576 206.838 40.3594C 207.02 40.5547 207.111 40.7988 207.111 41.0918C 207.111 41.3848 207.02 41.6289 206.838 41.8242C 206.656 42.013 206.389 42.1074 206.037 42.1074C 205.686 42.1074 205.419 42.013 205.236 41.8242C 205.061 41.6289 204.973 41.3848 204.973 41.0918Z"/>
<path id="path7_fill" d="M 74 35.5C 74 55.1061 57.4345 71 37 71C 16.5655 71 0 55.1061 0 35.5C 0 15.8939 16.5655 0 37 0C 57.4345 0 74 15.8939 74 35.5Z"/>
<path id="path8_stroke_2x" d="M 72 35.5C 72 53.9243 56.4088 69 37 69L 37 73C 58.4603 73 76 56.2879 76 35.5L 72 35.5ZM 37 69C 17.5912 69 2 53.9243 2 35.5L -2 35.5C -2 56.2879 15.5397 73 37 73L 37 69ZM 2 35.5C 2 17.0757 17.5912 2 37 2L 37 -2C 15.5397 -2 -2 14.7121 -2 35.5L 2 35.5ZM 37 2C 56.4088 2 72 17.0757 72 35.5L 76 35.5C 76 14.7121 58.4603 -2 37 -2L 37 2Z"/>
<path id="path9_stroke" d="M 0 0L 46.5188 0L 46.5188 -2L 0 -2L 0 0Z"/>
<path id="path10_stroke" d="M 0 -1.11022e-16L 47.8853 -1.11022e-16L 47.8853 -2L 0 -2L 0 -1.11022e-16Z"/>
<path id="path11_fill" d="M 18 15.5C 18 24.0604 13.9706 31 9 31C 4.02944 31 0 24.0604 0 15.5C 0 6.93959 4.02944 0 9 0C 13.9706 0 18 6.93959 18 15.5Z"/>
<path id="path12_stroke" d="M 4.70711 0.707107C 5.09763 0.316582 5.09763 -0.316582 4.70711 -0.707107L -1.65685 -7.07107C -2.04738 -7.46159 -2.68054 -7.46159 -3.07107 -7.07107C -3.46159 -6.68054 -3.46159 -6.04738 -3.07107 -5.65685L 2.58579 0L -3.07107 5.65685C -3.46159 6.04738 -3.46159 6.68054 -3.07107 7.07107C -2.68054 7.46159 -2.04738 7.46159 -1.65685 7.07107L 4.70711 0.707107ZM 0 1L 4 1L 4 -1L 0 -1L 0 1Z"/>
<path id="path13_stroke" d="M 0 0L 1.5 0L 1.5 -3L 0 -3L 0 0ZM 4.5 0L 7.5 0L 7.5 -3L 4.5 -3L 4.5 0ZM 10.5 0L 13.5 0L 13.5 -3L 10.5 -3L 10.5 0ZM 16.5 0L 19.5 0L 19.5 -3L 16.5 -3L 16.5 0ZM 22.5 0L 25.5 0L 25.5 -3L 22.5 -3L 22.5 0ZM 28.5 0L 31.5 0L 31.5 -3L 28.5 -3L 28.5 0ZM 34.5 0L 37.5 0L 37.5 -3L 34.5 -3L 34.5 0ZM 40.5 0L 43.5 0L 43.5 -3L 40.5 -3L 40.5 0ZM 46.5 0L 49.5 0L 49.5 -3L 46.5 -3L 46.5 0ZM 52.5 0L 55.5 0L 55.5 -3L 52.5 -3L 52.5 0ZM 58.5 0L 61.5 0L 61.5 -3L 58.5 -3L 58.5 0ZM 64.5 0L 67.5 0L 67.5 -3L 64.5 -3L 64.5 0ZM 70.5 0L 73.5 0L 73.5 -3L 70.5 -3L 70.5 0ZM 76.5 0L 79.5 0L 79.5 -3L 76.5 -3L 76.5 0ZM 82.5 0L 85.5 0L 85.5 -3L 82.5 -3L 82.5 0ZM 88.5 0L 91.5 0L 91.5 -3L 88.5 -3L 88.5 0ZM 94.5 0L 97.5 0L 97.5 -3L 94.5 -3L 94.5 0ZM 100.5 0L 103.5 0L 103.5 -3L 100.5 -3L 100.5 0ZM 106.5 0L 109.5 0L 109.5 -3L 106.5 -3L 106.5 0ZM 112.5 0L 114 0L 114 -3L 112.5 -3L 112.5 0Z"/>
<path id="path14_fill" d="M 4.61523 13.9902L 4.61523 19L 1.68555 19L 1.68555 4.78125L 7.23242 4.78125C 8.30013 4.78125 9.23763 4.97656 10.0449 5.36719C 10.8587 5.75781 11.4837 6.31445 11.9199 7.03711C 12.3561 7.75326 12.5742 8.57031 12.5742 9.48828C 12.5742 10.8815 12.0957 11.9818 11.1387 12.7891C 10.1882 13.5898 8.86979 13.9902 7.18359 13.9902L 4.61523 13.9902ZM 4.61523 11.6172L 7.23242 11.6172C 8.00716 11.6172 8.59635 11.4349 9 11.0703C 9.41016 10.7057 9.61523 10.1849 9.61523 9.50781C 9.61523 8.8112 9.41016 8.24805 9 7.81836C 8.58984 7.38867 8.02344 7.16732 7.30078 7.1543L 4.61523 7.1543L 4.61523 11.6172ZM 13.834 13.6191C 13.834 12.571 14.0358 11.6367 14.4395 10.8164C 14.8431 9.99609 15.4225 9.36133 16.1777 8.91211C 16.9395 8.46289 17.8216 8.23828 18.8242 8.23828C 20.25 8.23828 21.4121 8.67448 22.3105 9.54688C 23.2155 10.4193 23.7201 11.6042 23.8242 13.1016L 23.8438 13.8242C 23.8438 15.4453 23.3913 16.7474 22.4863 17.7305C 21.5814 18.707 20.3672 19.1953 18.8438 19.1953C 17.3203 19.1953 16.1029 18.707 15.1914 17.7305C 14.2865 16.7539 13.834 15.4258 13.834 13.7461L 13.834 13.6191ZM 16.6562 13.8242C 16.6562 14.8268 16.8451 15.5951 17.2227 16.1289C 17.6003 16.6562 18.1406 16.9199 18.8438 16.9199C 19.5273 16.9199 20.0612 16.6595 20.4453 16.1387C 20.8294 15.6113 21.0215 14.7715 21.0215 13.6191C 21.0215 12.6361 20.8294 11.8743 20.4453 11.334C 20.0612 10.7936 19.5208 10.5234 18.8242 10.5234C 18.1341 10.5234 17.6003 10.7936 17.2227 11.334C 16.8451 11.8678 16.6562 12.6979 16.6562 13.8242ZM 35.0938 13.8145C 35.0938 15.4421 34.7227 16.7474 33.9805 17.7305C 33.2448 18.707 32.2487 19.1953 30.9922 19.1953C 29.9245 19.1953 29.0618 18.8242 28.4043 18.082L 28.4043 23.0625L 25.582 23.0625L 25.582 8.43359L 28.1992 8.43359L 28.2969 9.46875C 28.9805 8.64844 29.8724 8.23828 30.9727 8.23828C 32.2747 8.23828 33.2871 8.72005 34.0098 9.68359C 34.7324 10.6471 35.0938 11.9753 35.0938 13.668L 35.0938 13.8145ZM 32.2715 13.6094C 32.2715 12.6263 32.0957 11.8678 31.7441 11.334C 31.3991 10.8001 30.8945 10.5332 30.2305 10.5332C 29.3451 10.5332 28.7363 10.8717 28.4043 11.5488L 28.4043 15.875C 28.7493 16.5716 29.3646 16.9199 30.25 16.9199C 31.5977 16.9199 32.2715 15.8164 32.2715 13.6094ZM 43.1797 17.9258C 42.4831 18.7721 41.5195 19.1953 40.2891 19.1953C 39.1562 19.1953 38.2904 18.8698 37.6914 18.2188C 37.099 17.5677 36.7962 16.6139 36.7832 15.3574L 36.7832 8.43359L 39.6055 8.43359L 39.6055 15.2598C 39.6055 16.36 40.1068 16.9102 41.1094 16.9102C 42.0664 16.9102 42.724 16.5781 43.082 15.9141L 43.082 8.43359L 45.9141 8.43359L 45.9141 19L 43.2578 19L 43.1797 17.9258ZM 51.0215 19L 48.1895 19L 48.1895 4L 51.0215 4L 51.0215 19ZM 59.4785 19C 59.3483 18.7461 59.2539 18.4303 59.1953 18.0527C 58.5117 18.8145 57.623 19.1953 56.5293 19.1953C 55.4941 19.1953 54.6348 18.8958 53.9512 18.2969C 53.2741 17.6979 52.9355 16.9427 52.9355 16.0312C 52.9355 14.9115 53.349 14.0521 54.1758 13.4531C 55.0091 12.8542 56.2103 12.5514 57.7793 12.5449L 59.0781 12.5449L 59.0781 11.9395C 59.0781 11.4512 58.9512 11.0605 58.6973 10.7676C 58.4499 10.4746 58.056 10.3281 57.5156 10.3281C 57.0404 10.3281 56.666 10.4421 56.3926 10.6699C 56.1257 10.8978 55.9922 11.2103 55.9922 11.6074L 53.1699 11.6074C 53.1699 10.9954 53.3587 10.429 53.7363 9.9082C 54.1139 9.38737 54.6478 8.98047 55.3379 8.6875C 56.028 8.38802 56.8027 8.23828 57.6621 8.23828C 58.9642 8.23828 59.9961 8.56706 60.7578 9.22461C 61.526 9.87565 61.9102 10.7936 61.9102 11.9785L 61.9102 16.5586C 61.9167 17.5612 62.0566 18.3197 62.3301 18.834L 62.3301 19L 59.4785 19ZM 57.1445 17.0371C 57.5612 17.0371 57.9453 16.946 58.2969 16.7637C 58.6484 16.5749 58.9089 16.3242 59.0781 16.0117L 59.0781 14.1953L 58.0234 14.1953C 56.6107 14.1953 55.8587 14.6836 55.7676 15.6602L 55.7578 15.8262C 55.7578 16.1777 55.8815 16.4674 56.1289 16.6953C 56.3763 16.9232 56.7148 17.0371 57.1445 17.0371ZM 67.457 5.83594L 67.457 8.43359L 69.2637 8.43359L 69.2637 10.5039L 67.457 10.5039L 67.457 15.7773C 67.457 16.168 67.5319 16.4479 67.6816 16.6172C 67.8314 16.7865 68.1178 16.8711 68.541 16.8711C 68.8535 16.8711 69.1302 16.8483 69.3711 16.8027L 69.3711 18.9414C 68.8177 19.1107 68.248 19.1953 67.6621 19.1953C 65.6829 19.1953 64.6738 18.196 64.6348 16.1973L 64.6348 10.5039L 63.0918 10.5039L 63.0918 8.43359L 64.6348 8.43359L 64.6348 5.83594L 67.457 5.83594ZM 73.8145 19L 70.9824 19L 70.9824 8.43359L 73.8145 8.43359L 73.8145 19ZM 70.8164 5.69922C 70.8164 5.27604 70.9564 4.92773 71.2363 4.6543C 71.5228 4.38086 71.9102 4.24414 72.3984 4.24414C 72.8802 4.24414 73.2643 4.38086 73.5508 4.6543C 73.8372 4.92773 73.9805 5.27604 73.9805 5.69922C 73.9805 6.12891 73.834 6.48047 73.541 6.75391C 73.2546 7.02734 72.8737 7.16406 72.3984 7.16406C 71.9232 7.16406 71.5391 7.02734 71.2461 6.75391C 70.9596 6.48047 70.8164 6.12891 70.8164 5.69922ZM 75.709 13.6191C 75.709 12.571 75.9108 11.6367 76.3145 10.8164C 76.7181 9.99609 77.2975 9.36133 78.0527 8.91211C 78.8145 8.46289 79.6966 8.23828 80.6992 8.23828C 82.125 8.23828 83.2871 8.67448 84.1855 9.54688C 85.0905 10.4193 85.5951 11.6042 85.6992 13.1016L 85.7188 13.8242C 85.7188 15.4453 85.2663 16.7474 84.3613 17.7305C 83.4564 18.707 82.2422 19.1953 80.7188 19.1953C 79.1953 19.1953 77.9779 18.707 77.0664 17.7305C 76.1615 16.7539 75.709 15.4258 75.709 13.7461L 75.709 13.6191ZM 78.5312 13.8242C 78.5312 14.8268 78.7201 15.5951 79.0977 16.1289C 79.4753 16.6562 80.0156 16.9199 80.7188 16.9199C 81.4023 16.9199 81.9362 16.6595 82.3203 16.1387C 82.7044 15.6113 82.8965 14.7715 82.8965 13.6191C 82.8965 12.6361 82.7044 11.8743 82.3203 11.334C 81.9362 10.7936 81.3958 10.5234 80.6992 10.5234C 80.0091 10.5234 79.4753 10.7936 79.0977 11.334C 78.7201 11.8678 78.5312 12.6979 78.5312 13.8242ZM 90.0547 8.43359L 90.1426 9.6543C 90.8978 8.71029 91.9102 8.23828 93.1797 8.23828C 94.2995 8.23828 95.1328 8.56706 95.6797 9.22461C 96.2266 9.88216 96.5065 10.8652 96.5195 12.1738L 96.5195 19L 93.6973 19L 93.6973 12.2422C 93.6973 11.6432 93.5671 11.2103 93.3066 10.9434C 93.0462 10.6699 92.6133 10.5332 92.0078 10.5332C 91.2135 10.5332 90.6178 10.8717 90.2207 11.5488L 90.2207 19L 87.3984 19L 87.3984 8.43359L 90.0547 8.43359Z"/>
<path id="path15_fill" d="M 65.0176 15.2891L 59.0605 15.2891L 57.7227 19L 55.7891 19L 61.2188 4.78125L 62.8594 4.78125L 68.2988 19L 66.375 19L 65.0176 15.2891ZM 59.627 13.7461L 64.4609 13.7461L 62.0391 7.0957L 59.627 13.7461ZM 75.0371 10.0547C 74.7637 10.0091 74.4674 9.98633 74.1484 9.98633C 72.9635 9.98633 72.1595 10.4909 71.7363 11.5L 71.7363 19L 69.9297 19L 69.9297 8.43359L 71.6875 8.43359L 71.7168 9.6543C 72.3092 8.71029 73.1491 8.23828 74.2363 8.23828C 74.5879 8.23828 74.8548 8.28385 75.0371 8.375L 75.0371 10.0547ZM 80.8965 19.1953C 79.4642 19.1953 78.2988 18.7266 77.4004 17.7891C 76.502 16.8451 76.0527 15.5853 76.0527 14.0098L 76.0527 13.6777C 76.0527 12.6296 76.2513 11.6953 76.6484 10.875C 77.0521 10.0482 77.612 9.40365 78.3281 8.94141C 79.0508 8.47266 79.832 8.23828 80.6719 8.23828C 82.0456 8.23828 83.1133 8.69076 83.875 9.5957C 84.6367 10.5007 85.0176 11.7962 85.0176 13.4824L 85.0176 14.2344L 77.8594 14.2344C 77.8854 15.276 78.1882 16.1191 78.7676 16.7637C 79.3535 17.4017 80.0957 17.7207 80.9941 17.7207C 81.6322 17.7207 82.1725 17.5905 82.6152 17.3301C 83.0579 17.0697 83.4453 16.7246 83.7773 16.2949L 84.8809 17.1543C 83.9954 18.515 82.6673 19.1953 80.8965 19.1953ZM 80.6719 9.72266C 79.9427 9.72266 79.3307 9.98958 78.8359 10.5234C 78.3411 11.0508 78.0352 11.793 77.918 12.75L 83.2109 12.75L 83.2109 12.6133C 83.1589 11.6953 82.9115 10.9857 82.4688 10.4844C 82.026 9.97656 81.4271 9.72266 80.6719 9.72266ZM 101.004 13.834C 101.004 15.4421 100.636 16.7376 99.9004 17.7207C 99.1647 18.7038 98.1686 19.1953 96.9121 19.1953C 95.6296 19.1953 94.6204 18.7884 93.8848 17.9746L 93.8848 23.0625L 92.0781 23.0625L 92.0781 8.43359L 93.7285 8.43359L 93.8164 9.60547C 94.5521 8.69401 95.5742 8.23828 96.8828 8.23828C 98.1523 8.23828 99.1549 8.7168 99.8906 9.67383C 100.633 10.6309 101.004 11.9622 101.004 13.668L 101.004 13.834ZM 99.1973 13.6289C 99.1973 12.4375 98.9434 11.4967 98.4355 10.8066C 97.9277 10.1165 97.2311 9.77148 96.3457 9.77148C 95.252 9.77148 94.4316 10.2565 93.8848 11.2266L 93.8848 16.2754C 94.4251 17.2389 95.252 17.7207 96.3652 17.7207C 97.2311 17.7207 97.918 17.3789 98.4258 16.6953C 98.9401 16.0052 99.1973 14.9831 99.1973 13.6289ZM 107.693 19.1953C 106.261 19.1953 105.096 18.7266 104.197 17.7891C 103.299 16.8451 102.85 15.5853 102.85 14.0098L 102.85 13.6777C 102.85 12.6296 103.048 11.6953 103.445 10.875C 103.849 10.0482 104.409 9.40365 105.125 8.94141C 105.848 8.47266 106.629 8.23828 107.469 8.23828C 108.842 8.23828 109.91 8.69076 110.672 9.5957C 111.434 10.5007 111.814 11.7962 111.814 13.4824L 111.814 14.2344L 104.656 14.2344C 104.682 15.276 104.985 16.1191 105.564 16.7637C 106.15 17.4017 106.893 17.7207 107.791 17.7207C 108.429 17.7207 108.969 17.5905 109.412 17.3301C 109.855 17.0697 110.242 16.7246 110.574 16.2949L 111.678 17.1543C 110.792 18.515 109.464 19.1953 107.693 19.1953ZM 107.469 9.72266C 106.74 9.72266 106.128 9.98958 105.633 10.5234C 105.138 11.0508 104.832 11.793 104.715 12.75L 110.008 12.75L 110.008 12.6133C 109.956 11.6953 109.708 10.9857 109.266 10.4844C 108.823 9.97656 108.224 9.72266 107.469 9.72266ZM 113.436 13.6191C 113.436 12.584 113.637 11.653 114.041 10.8262C 114.451 9.99935 115.018 9.36133 115.74 8.91211C 116.469 8.46289 117.299 8.23828 118.23 8.23828C 119.669 8.23828 120.831 8.73633 121.717 9.73242C 122.609 10.7285 123.055 12.0534 123.055 13.707L 123.055 13.834C 123.055 14.8626 122.856 15.7871 122.459 16.6074C 122.068 17.4212 121.505 18.056 120.77 18.5117C 120.04 18.9674 119.201 19.1953 118.25 19.1953C 116.818 19.1953 115.656 18.6973 114.764 17.7012C 113.878 16.7051 113.436 15.3867 113.436 13.7461L 113.436 13.6191ZM 115.252 13.834C 115.252 15.0059 115.522 15.9466 116.062 16.6562C 116.609 17.3659 117.339 17.7207 118.25 17.7207C 119.168 17.7207 119.897 17.3626 120.438 16.6465C 120.978 15.9238 121.248 14.9147 121.248 13.6191C 121.248 12.4603 120.971 11.5228 120.418 10.8066C 119.871 10.084 119.142 9.72266 118.23 9.72266C 117.339 9.72266 116.619 10.0775 116.072 10.7871C 115.525 11.4967 115.252 12.5124 115.252 13.834ZM 134.246 13.834C 134.246 15.4421 133.878 16.7376 133.143 17.7207C 132.407 18.7038 131.411 19.1953 130.154 19.1953C 128.872 19.1953 127.863 18.7884 127.127 17.9746L 127.127 23.0625L 125.32 23.0625L 125.32 8.43359L 126.971 8.43359L 127.059 9.60547C 127.794 8.69401 128.816 8.23828 130.125 8.23828C 131.395 8.23828 132.397 8.7168 133.133 9.67383C 133.875 10.6309 134.246 11.9622 134.246 13.668L 134.246 13.834ZM 132.439 13.6289C 132.439 12.4375 132.186 11.4967 131.678 10.8066C 131.17 10.1165 130.473 9.77148 129.588 9.77148C 128.494 9.77148 127.674 10.2565 127.127 11.2266L 127.127 16.2754C 127.667 17.2389 128.494 17.7207 129.607 17.7207C 130.473 17.7207 131.16 17.3789 131.668 16.6953C 132.182 16.0052 132.439 14.9831 132.439 13.6289ZM 138.514 19L 136.707 19L 136.707 4L 138.514 4L 138.514 19ZM 145.799 19.1953C 144.367 19.1953 143.201 18.7266 142.303 17.7891C 141.404 16.8451 140.955 15.5853 140.955 14.0098L 140.955 13.6777C 140.955 12.6296 141.154 11.6953 141.551 10.875C 141.954 10.0482 142.514 9.40365 143.23 8.94141C 143.953 8.47266 144.734 8.23828 145.574 8.23828C 146.948 8.23828 148.016 8.69076 148.777 9.5957C 149.539 10.5007 149.92 11.7962 149.92 13.4824L 149.92 14.2344L 142.762 14.2344C 142.788 15.276 143.09 16.1191 143.67 16.7637C 144.256 17.4017 144.998 17.7207 145.896 17.7207C 146.535 17.7207 147.075 17.5905 147.518 17.3301C 147.96 17.0697 148.348 16.7246 148.68 16.2949L 149.783 17.1543C 148.898 18.515 147.57 19.1953 145.799 19.1953ZM 145.574 9.72266C 144.845 9.72266 144.233 9.98958 143.738 10.5234C 143.243 11.0508 142.938 11.793 142.82 12.75L 148.113 12.75L 148.113 12.6133C 148.061 11.6953 147.814 10.9857 147.371 10.4844C 146.928 9.97656 146.329 9.72266 145.574 9.72266ZM 166.336 16.5098L 168.367 8.43359L 170.174 8.43359L 167.098 19L 165.633 19L 163.064 10.9922L 160.564 19L 159.1 19L 156.033 8.43359L 157.83 8.43359L 159.91 16.3438L 162.371 8.43359L 163.826 8.43359L 166.336 16.5098ZM 171.541 13.6191C 171.541 12.584 171.743 11.653 172.146 10.8262C 172.557 9.99935 173.123 9.36133 173.846 8.91211C 174.575 8.46289 175.405 8.23828 176.336 8.23828C 177.775 8.23828 178.937 8.73633 179.822 9.73242C 180.714 10.7285 181.16 12.0534 181.16 13.707L 181.16 13.834C 181.16 14.8626 180.962 15.7871 180.564 16.6074C 180.174 17.4212 179.611 18.056 178.875 18.5117C 178.146 18.9674 177.306 19.1953 176.355 19.1953C 174.923 19.1953 173.761 18.6973 172.869 17.7012C 171.984 16.7051 171.541 15.3867 171.541 13.7461L 171.541 13.6191ZM 173.357 13.834C 173.357 15.0059 173.628 15.9466 174.168 16.6562C 174.715 17.3659 175.444 17.7207 176.355 17.7207C 177.273 17.7207 178.003 17.3626 178.543 16.6465C 179.083 15.9238 179.354 14.9147 179.354 13.6191C 179.354 12.4603 179.077 11.5228 178.523 10.8066C 177.977 10.084 177.247 9.72266 176.336 9.72266C 175.444 9.72266 174.725 10.0775 174.178 10.7871C 173.631 11.4967 173.357 12.5124 173.357 13.834ZM 188.533 10.0547C 188.26 10.0091 187.964 9.98633 187.645 9.98633C 186.46 9.98633 185.656 10.4909 185.232 11.5L 185.232 19L 183.426 19L 183.426 8.43359L 185.184 8.43359L 185.213 9.6543C 185.805 8.71029 186.645 8.23828 187.732 8.23828C 188.084 8.23828 188.351 8.28385 188.533 8.375L 188.533 10.0547ZM 193.152 14.1074L 192.02 15.2891L 192.02 19L 190.213 19L 190.213 4L 192.02 4L 192.02 13.0723L 192.986 11.9102L 196.277 8.43359L 198.475 8.43359L 194.363 12.8477L 198.953 19L 196.834 19L 193.152 14.1074ZM 202.303 19L 200.496 19L 200.496 8.43359L 202.303 8.43359L 202.303 19ZM 200.35 5.63086C 200.35 5.33789 200.438 5.09049 200.613 4.88867C 200.796 4.68685 201.062 4.58594 201.414 4.58594C 201.766 4.58594 202.033 4.68685 202.215 4.88867C 202.397 5.09049 202.488 5.33789 202.488 5.63086C 202.488 5.92383 202.397 6.16797 202.215 6.36328C 202.033 6.55859 201.766 6.65625 201.414 6.65625C 201.062 6.65625 200.796 6.55859 200.613 6.36328C 200.438 6.16797 200.35 5.92383 200.35 5.63086ZM 206.912 8.43359L 206.971 9.76172C 207.778 8.74609 208.833 8.23828 210.135 8.23828C 212.368 8.23828 213.494 9.49805 213.514 12.0176L 213.514 19L 211.707 19L 211.707 12.0078C 211.701 11.2461 211.525 10.6829 211.18 10.3184C 210.841 9.95378 210.311 9.77148 209.588 9.77148C 209.002 9.77148 208.488 9.92773 208.045 10.2402C 207.602 10.5527 207.257 10.9629 207.01 11.4707L 207.01 19L 205.203 19L 205.203 8.43359L 206.912 8.43359ZM 215.809 13.6289C 215.809 11.9818 216.189 10.6732 216.951 9.70312C 217.713 8.72656 218.722 8.23828 219.979 8.23828C 221.268 8.23828 222.273 8.69401 222.996 9.60547L 223.084 8.43359L 224.734 8.43359L 224.734 18.7461C 224.734 20.1133 224.327 21.1908 223.514 21.9785C 222.706 22.7663 221.619 23.1602 220.252 23.1602C 219.49 23.1602 218.745 22.9974 218.016 22.6719C 217.286 22.3464 216.73 21.9004 216.346 21.334L 217.283 20.25C 218.058 21.207 219.005 21.6855 220.125 21.6855C 221.004 21.6855 221.688 21.4382 222.176 20.9434C 222.671 20.4486 222.918 19.752 222.918 18.8535L 222.918 17.9453C 222.195 18.7786 221.209 19.1953 219.959 19.1953C 218.722 19.1953 217.719 18.6973 216.951 17.7012C 216.189 16.7051 215.809 15.3477 215.809 13.6289ZM 217.625 13.834C 217.625 15.0254 217.869 15.9629 218.357 16.6465C 218.846 17.3236 219.529 17.6621 220.408 17.6621C 221.548 17.6621 222.384 17.1445 222.918 16.1094L 222.918 11.2852C 222.365 10.276 221.535 9.77148 220.428 9.77148C 219.549 9.77148 218.862 10.1133 218.367 10.7969C 217.872 11.4805 217.625 12.4928 217.625 13.834ZM 238.953 19C 238.849 18.7917 238.764 18.4206 238.699 17.8867C 237.859 18.7591 236.857 19.1953 235.691 19.1953C 234.65 19.1953 233.794 18.9023 233.123 18.3164C 232.459 17.724 232.127 16.9753 232.127 16.0703C 232.127 14.9701 232.544 14.1172 233.377 13.5117C 234.217 12.8997 235.395 12.5938 236.912 12.5938L 238.67 12.5938L 238.67 11.7637C 238.67 11.1322 238.481 10.6309 238.104 10.2598C 237.726 9.88216 237.169 9.69336 236.434 9.69336C 235.789 9.69336 235.249 9.85612 234.812 10.1816C 234.376 10.5072 234.158 10.901 234.158 11.3633L 232.342 11.3633C 232.342 10.8359 232.527 10.3281 232.898 9.83984C 233.276 9.34505 233.784 8.95443 234.422 8.66797C 235.066 8.38151 235.773 8.23828 236.541 8.23828C 237.758 8.23828 238.712 8.54427 239.402 9.15625C 240.092 9.76172 240.451 10.5983 240.477 11.666L 240.477 16.5293C 240.477 17.4993 240.6 18.2708 240.848 18.8438L 240.848 19L 238.953 19ZM 235.955 17.623C 236.521 17.623 237.059 17.4766 237.566 17.1836C 238.074 16.8906 238.442 16.5098 238.67 16.041L 238.67 13.873L 237.254 13.873C 235.04 13.873 233.934 14.5208 233.934 15.8164C 233.934 16.3828 234.122 16.8255 234.5 17.1445C 234.878 17.4635 235.363 17.623 235.955 17.623ZM 245.76 5.875L 245.76 8.43359L 247.732 8.43359L 247.732 9.83008L 245.76 9.83008L 245.76 16.3828C 245.76 16.806 245.848 17.125 246.023 17.3398C 246.199 17.5482 246.499 17.6523 246.922 17.6523C 247.13 17.6523 247.417 17.6133 247.781 17.5352L 247.781 19C 247.306 19.1302 246.844 19.1953 246.395 19.1953C 245.587 19.1953 244.979 18.9512 244.568 18.4629C 244.158 17.9746 243.953 17.2812 243.953 16.3828L 243.953 9.83008L 242.029 9.83008L 242.029 8.43359L 243.953 8.43359L 243.953 5.875L 245.76 5.875ZM 4.39258 42L 1.56055 42L 1.56055 31.4336L 4.39258 31.4336L 4.39258 42ZM 1.39453 28.6992C 1.39453 28.276 1.53451 27.9277 1.81445 27.6543C 2.10091 27.3809 2.48828 27.2441 2.97656 27.2441C 3.45833 27.2441 3.84245 27.3809 4.12891 27.6543C 4.41536 27.9277 4.55859 28.276 4.55859 28.6992C 4.55859 29.1289 4.41211 29.4805 4.11914 29.7539C 3.83268 30.0273 3.45182 30.1641 2.97656 30.1641C 2.5013 30.1641 2.11719 30.0273 1.82422 29.7539C 1.53776 29.4805 1.39453 29.1289 1.39453 28.6992ZM 9.32422 31.4336L 9.41211 32.6543C 10.1673 31.7103 11.1797 31.2383 12.4492 31.2383C 13.569 31.2383 14.4023 31.5671 14.9492 32.2246C 15.4961 32.8822 15.776 33.8652 15.7891 35.1738L 15.7891 42L 12.9668 42L 12.9668 35.2422C 12.9668 34.6432 12.8366 34.2103 12.5762 33.9434C 12.3158 33.6699 11.8828 33.5332 11.2773 33.5332C 10.4831 33.5332 9.88737 33.8717 9.49023 34.5488L 9.49023 42L 6.66797 42L 6.66797 31.4336L 9.32422 31.4336ZM 21.3164 28.8359L 21.3164 31.4336L 23.123 31.4336L 23.123 33.5039L 21.3164 33.5039L 21.3164 38.7773C 21.3164 39.168 21.3913 39.4479 21.541 39.6172C 21.6908 39.7865 21.9772 39.8711 22.4004 39.8711C 22.7129 39.8711 22.9896 39.8483 23.2305 39.8027L 23.2305 41.9414C 22.6771 42.1107 22.1074 42.1953 21.5215 42.1953C 19.5423 42.1953 18.5332 41.196 18.4941 39.1973L 18.4941 33.5039L 16.9512 33.5039L 16.9512 31.4336L 18.4941 31.4336L 18.4941 28.8359L 21.3164 28.8359ZM 29.5586 42.1953C 28.0091 42.1953 26.7461 41.7201 25.7695 40.7695C 24.7995 39.819 24.3145 38.5527 24.3145 36.9707L 24.3145 36.6973C 24.3145 35.6361 24.5195 34.6888 24.9297 33.8555C 25.3398 33.0156 25.9193 32.3711 26.668 31.9219C 27.4232 31.4661 28.2826 31.2383 29.2461 31.2383C 30.6914 31.2383 31.8275 31.694 32.6543 32.6055C 33.4876 33.5169 33.9043 34.8092 33.9043 36.4824L 33.9043 37.6348L 27.1758 37.6348C 27.2669 38.3249 27.5404 38.8783 27.9961 39.2949C 28.4583 39.7116 29.041 39.9199 29.7441 39.9199C 30.8314 39.9199 31.681 39.526 32.293 38.7383L 33.6797 40.291C 33.2565 40.89 32.6836 41.3587 31.9609 41.6973C 31.2383 42.0293 30.4375 42.1953 29.5586 42.1953ZM 29.2363 33.5234C 28.6764 33.5234 28.2207 33.7122 27.8691 34.0898C 27.5241 34.4674 27.3027 35.0078 27.2051 35.7109L 31.1309 35.7109L 31.1309 35.4863C 31.1178 34.8613 30.9486 34.3796 30.623 34.041C 30.2975 33.696 29.8353 33.5234 29.2363 33.5234ZM 41.4531 34.0801C 41.069 34.028 40.7305 34.002 40.4375 34.002C 39.3698 34.002 38.6699 34.3633 38.3379 35.0859L 38.3379 42L 35.5156 42L 35.5156 31.4336L 38.1816 31.4336L 38.2598 32.6934C 38.8262 31.7233 39.6107 31.2383 40.6133 31.2383C 40.9258 31.2383 41.2188 31.2806 41.4922 31.3652L 41.4531 34.0801ZM 45.418 31.4336L 45.5059 32.6543C 46.2611 31.7103 47.2734 31.2383 48.543 31.2383C 49.6628 31.2383 50.4961 31.5671 51.043 32.2246C 51.5898 32.8822 51.8698 33.8652 51.8828 35.1738L 51.8828 42L 49.0605 42L 49.0605 35.2422C 49.0605 34.6432 48.9303 34.2103 48.6699 33.9434C 48.4095 33.6699 47.9766 33.5332 47.3711 33.5332C 46.5768 33.5332 45.9811 33.8717 45.584 34.5488L 45.584 42L 42.7617 42L 42.7617 31.4336L 45.418 31.4336ZM 60.1543 42C 60.0241 41.7461 59.9297 41.4303 59.8711 41.0527C 59.1875 41.8145 58.2988 42.1953 57.2051 42.1953C 56.1699 42.1953 55.3105 41.8958 54.627 41.2969C 53.9499 40.6979 53.6113 39.9427 53.6113 39.0312C 53.6113 37.9115 54.0247 37.0521 54.8516 36.4531C 55.6849 35.8542 56.8861 35.5514 58.4551 35.5449L 59.7539 35.5449L 59.7539 34.9395C 59.7539 34.4512 59.627 34.0605 59.373 33.7676C 59.1257 33.4746 58.7318 33.3281 58.1914 33.3281C 57.7161 33.3281 57.3418 33.4421 57.0684 33.6699C 56.8014 33.8978 56.668 34.2103 56.668 34.6074L 53.8457 34.6074C 53.8457 33.9954 54.0345 33.429 54.4121 32.9082C 54.7897 32.3874 55.3236 31.9805 56.0137 31.6875C 56.7038 31.388 57.4785 31.2383 58.3379 31.2383C 59.64 31.2383 60.6719 31.5671 61.4336 32.2246C 62.2018 32.8757 62.5859 33.7936 62.5859 34.9785L 62.5859 39.5586C 62.5924 40.5612 62.7324 41.3197 63.0059 41.834L 63.0059 42L 60.1543 42ZM 57.8203 40.0371C 58.237 40.0371 58.6211 39.946 58.9727 39.7637C 59.3242 39.5749 59.5846 39.3242 59.7539 39.0117L 59.7539 37.1953L 58.6992 37.1953C 57.2865 37.1953 56.5345 37.6836 56.4434 38.6602L 56.4336 38.8262C 56.4336 39.1777 56.5573 39.4674 56.8047 39.6953C 57.0521 39.9232 57.3906 40.0371 57.8203 40.0371ZM 68.1328 28.8359L 68.1328 31.4336L 69.9395 31.4336L 69.9395 33.5039L 68.1328 33.5039L 68.1328 38.7773C 68.1328 39.168 68.2077 39.4479 68.3574 39.6172C 68.5072 39.7865 68.7936 39.8711 69.2168 39.8711C 69.5293 39.8711 69.806 39.8483 70.0469 39.8027L 70.0469 41.9414C 69.4935 42.1107 68.9238 42.1953 68.3379 42.1953C 66.3587 42.1953 65.3496 41.196 65.3105 39.1973L 65.3105 33.5039L 63.7676 33.5039L 63.7676 31.4336L 65.3105 31.4336L 65.3105 28.8359L 68.1328 28.8359ZM 74.4902 42L 71.6582 42L 71.6582 31.4336L 74.4902 31.4336L 74.4902 42ZM 71.4922 28.6992C 71.4922 28.276 71.6322 27.9277 71.9121 27.6543C 72.1986 27.3809 72.5859 27.2441 73.0742 27.2441C 73.556 27.2441 73.9401 27.3809 74.2266 27.6543C 74.513 27.9277 74.6562 28.276 74.6562 28.6992C 74.6562 29.1289 74.5098 29.4805 74.2168 29.7539C 73.9303 30.0273 73.5495 30.1641 73.0742 30.1641C 72.599 30.1641 72.2148 30.0273 71.9219 29.7539C 71.6354 29.4805 71.4922 29.1289 71.4922 28.6992ZM 76.3848 36.6191C 76.3848 35.571 76.5866 34.6367 76.9902 33.8164C 77.3939 32.9961 77.9733 32.3613 78.7285 31.9121C 79.4902 31.4629 80.3724 31.2383 81.375 31.2383C 82.8008 31.2383 83.9629 31.6745 84.8613 32.5469C 85.7663 33.4193 86.2708 34.6042 86.375 36.1016L 86.3945 36.8242C 86.3945 38.4453 85.9421 39.7474 85.0371 40.7305C 84.1322 41.707 82.918 42.1953 81.3945 42.1953C 79.8711 42.1953 78.6536 41.707 77.7422 40.7305C 76.8372 39.7539 76.3848 38.4258 76.3848 36.7461L 76.3848 36.6191ZM 79.207 36.8242C 79.207 37.8268 79.3958 38.5951 79.7734 39.1289C 80.151 39.6562 80.6914 39.9199 81.3945 39.9199C 82.0781 39.9199 82.612 39.6595 82.9961 39.1387C 83.3802 38.6113 83.5723 37.7715 83.5723 36.6191C 83.5723 35.6361 83.3802 34.8743 82.9961 34.334C 82.612 33.7936 82.0716 33.5234 81.375 33.5234C 80.6849 33.5234 80.151 33.7936 79.7734 34.334C 79.3958 34.8678 79.207 35.6979 79.207 36.8242ZM 90.7305 31.4336L 90.8184 32.6543C 91.5736 31.7103 92.5859 31.2383 93.8555 31.2383C 94.9753 31.2383 95.8086 31.5671 96.3555 32.2246C 96.9023 32.8822 97.1823 33.8652 97.1953 35.1738L 97.1953 42L 94.373 42L 94.373 35.2422C 94.373 34.6432 94.2428 34.2103 93.9824 33.9434C 93.722 33.6699 93.2891 33.5332 92.6836 33.5332C 91.8893 33.5332 91.2936 33.8717 90.8965 34.5488L 90.8965 42L 88.0742 42L 88.0742 31.4336L 90.7305 31.4336ZM 105.467 42C 105.337 41.7461 105.242 41.4303 105.184 41.0527C 104.5 41.8145 103.611 42.1953 102.518 42.1953C 101.482 42.1953 100.623 41.8958 99.9395 41.2969C 99.2624 40.6979 98.9238 39.9427 98.9238 39.0312C 98.9238 37.9115 99.3372 37.0521 100.164 36.4531C 100.997 35.8542 102.199 35.5514 103.768 35.5449L 105.066 35.5449L 105.066 34.9395C 105.066 34.4512 104.939 34.0605 104.686 33.7676C 104.438 33.4746 104.044 33.3281 103.504 33.3281C 103.029 33.3281 102.654 33.4421 102.381 33.6699C 102.114 33.8978 101.98 34.2103 101.98 34.6074L 99.1582 34.6074C 99.1582 33.9954 99.347 33.429 99.7246 32.9082C 100.102 32.3874 100.636 31.9805 101.326 31.6875C 102.016 31.388 102.791 31.2383 103.65 31.2383C 104.952 31.2383 105.984 31.5671 106.746 32.2246C 107.514 32.8757 107.898 33.7936 107.898 34.9785L 107.898 39.5586C 107.905 40.5612 108.045 41.3197 108.318 41.834L 108.318 42L 105.467 42ZM 103.133 40.0371C 103.549 40.0371 103.934 39.946 104.285 39.7637C 104.637 39.5749 104.897 39.3242 105.066 39.0117L 105.066 37.1953L 104.012 37.1953C 102.599 37.1953 101.847 37.6836 101.756 38.6602L 101.746 38.8262C 101.746 39.1777 101.87 39.4674 102.117 39.6953C 102.365 39.9232 102.703 40.0371 103.133 40.0371ZM 113.045 42L 110.213 42L 110.213 27L 113.045 27L 113.045 42ZM 124.754 39.9199C 125.275 39.9199 125.698 39.7767 126.023 39.4902C 126.349 39.2038 126.518 38.8229 126.531 38.3477L 129.178 38.3477C 129.171 39.0638 128.976 39.7214 128.592 40.3203C 128.208 40.9128 127.68 41.375 127.01 41.707C 126.346 42.0326 125.61 42.1953 124.803 42.1953C 123.292 42.1953 122.101 41.7168 121.229 40.7598C 120.356 39.7962 119.92 38.4681 119.92 36.7754L 119.92 36.5898C 119.92 34.9622 120.353 33.6634 121.219 32.6934C 122.085 31.7233 123.273 31.2383 124.783 31.2383C 126.105 31.2383 127.163 31.6159 127.957 32.3711C 128.758 33.1198 129.165 34.1191 129.178 35.3691L 126.531 35.3691C 126.518 34.8223 126.349 34.3796 126.023 34.041C 125.698 33.696 125.268 33.5234 124.734 33.5234C 124.077 33.5234 123.579 33.7643 123.24 34.2461C 122.908 34.7214 122.742 35.4961 122.742 36.5703L 122.742 36.8633C 122.742 37.9505 122.908 38.7318 123.24 39.207C 123.572 39.6823 124.077 39.9199 124.754 39.9199ZM 130.35 36.6191C 130.35 35.571 130.551 34.6367 130.955 33.8164C 131.359 32.9961 131.938 32.3613 132.693 31.9121C 133.455 31.4629 134.337 31.2383 135.34 31.2383C 136.766 31.2383 137.928 31.6745 138.826 32.5469C 139.731 33.4193 140.236 34.6042 140.34 36.1016L 140.359 36.8242C 140.359 38.4453 139.907 39.7474 139.002 40.7305C 138.097 41.707 136.883 42.1953 135.359 42.1953C 133.836 42.1953 132.618 41.707 131.707 40.7305C 130.802 39.7539 130.35 38.4258 130.35 36.7461L 130.35 36.6191ZM 133.172 36.8242C 133.172 37.8268 133.361 38.5951 133.738 39.1289C 134.116 39.6562 134.656 39.9199 135.359 39.9199C 136.043 39.9199 136.577 39.6595 136.961 39.1387C 137.345 38.6113 137.537 37.7715 137.537 36.6191C 137.537 35.6361 137.345 34.8743 136.961 34.334C 136.577 33.7936 136.036 33.5234 135.34 33.5234C 134.65 33.5234 134.116 33.7936 133.738 34.334C 133.361 34.8678 133.172 35.6979 133.172 36.8242ZM 144.744 31.4336L 144.832 32.6152C 145.581 31.6973 146.593 31.2383 147.869 31.2383C 149.23 31.2383 150.164 31.7754 150.672 32.8496C 151.414 31.7754 152.472 31.2383 153.846 31.2383C 154.992 31.2383 155.844 31.5736 156.404 32.2441C 156.964 32.9082 157.244 33.9108 157.244 35.252L 157.244 42L 154.412 42L 154.412 35.2617C 154.412 34.6628 154.295 34.2266 154.061 33.9531C 153.826 33.6732 153.413 33.5332 152.82 33.5332C 151.974 33.5332 151.388 33.9368 151.062 34.7441L 151.072 42L 148.25 42L 148.25 35.2715C 148.25 34.6595 148.13 34.2168 147.889 33.9434C 147.648 33.6699 147.238 33.5332 146.658 33.5332C 145.857 33.5332 145.278 33.8652 144.92 34.5293L 144.92 42L 142.098 42L 142.098 31.4336L 144.744 31.4336ZM 168.934 36.8145C 168.934 38.4421 168.562 39.7474 167.82 40.7305C 167.085 41.707 166.089 42.1953 164.832 42.1953C 163.764 42.1953 162.902 41.8242 162.244 41.082L 162.244 46.0625L 159.422 46.0625L 159.422 31.4336L 162.039 31.4336L 162.137 32.4688C 162.82 31.6484 163.712 31.2383 164.812 31.2383C 166.115 31.2383 167.127 31.7201 167.85 32.6836C 168.572 33.6471 168.934 34.9753 168.934 36.668L 168.934 36.8145ZM 166.111 36.6094C 166.111 35.6263 165.936 34.8678 165.584 34.334C 165.239 33.8001 164.734 33.5332 164.07 33.5332C 163.185 33.5332 162.576 33.8717 162.244 34.5488L 162.244 38.875C 162.589 39.5716 163.204 39.9199 164.09 39.9199C 165.438 39.9199 166.111 38.8164 166.111 36.6094ZM 176.814 42C 176.684 41.7461 176.59 41.4303 176.531 41.0527C 175.848 41.8145 174.959 42.1953 173.865 42.1953C 172.83 42.1953 171.971 41.8958 171.287 41.2969C 170.61 40.6979 170.271 39.9427 170.271 39.0312C 170.271 37.9115 170.685 37.0521 171.512 36.4531C 172.345 35.8542 173.546 35.5514 175.115 35.5449L 176.414 35.5449L 176.414 34.9395C 176.414 34.4512 176.287 34.0605 176.033 33.7676C 175.786 33.4746 175.392 33.3281 174.852 33.3281C 174.376 33.3281 174.002 33.4421 173.729 33.6699C 173.462 33.8978 173.328 34.2103 173.328 34.6074L 170.506 34.6074C 170.506 33.9954 170.695 33.429 171.072 32.9082C 171.45 32.3874 171.984 31.9805 172.674 31.6875C 173.364 31.388 174.139 31.2383 174.998 31.2383C 176.3 31.2383 177.332 31.5671 178.094 32.2246C 178.862 32.8757 179.246 33.7936 179.246 34.9785L 179.246 39.5586C 179.253 40.5612 179.393 41.3197 179.666 41.834L 179.666 42L 176.814 42ZM 174.48 40.0371C 174.897 40.0371 175.281 39.946 175.633 39.7637C 175.984 39.5749 176.245 39.3242 176.414 39.0117L 176.414 37.1953L 175.359 37.1953C 173.947 37.1953 173.195 37.6836 173.104 38.6602L 173.094 38.8262C 173.094 39.1777 173.217 39.4674 173.465 39.6953C 173.712 39.9232 174.051 40.0371 174.48 40.0371ZM 184.012 31.4336L 184.1 32.6543C 184.855 31.7103 185.867 31.2383 187.137 31.2383C 188.257 31.2383 189.09 31.5671 189.637 32.2246C 190.184 32.8822 190.464 33.8652 190.477 35.1738L 190.477 42L 187.654 42L 187.654 35.2422C 187.654 34.6432 187.524 34.2103 187.264 33.9434C 187.003 33.6699 186.57 33.5332 185.965 33.5332C 185.171 33.5332 184.575 33.8717 184.178 34.5488L 184.178 42L 181.355 42L 181.355 31.4336L 184.012 31.4336ZM 195.604 42L 192.771 42L 192.771 31.4336L 195.604 31.4336L 195.604 42ZM 192.605 28.6992C 192.605 28.276 192.745 27.9277 193.025 27.6543C 193.312 27.3809 193.699 27.2441 194.188 27.2441C 194.669 27.2441 195.053 27.3809 195.34 27.6543C 195.626 27.9277 195.77 28.276 195.77 28.6992C 195.77 29.1289 195.623 29.4805 195.33 29.7539C 195.044 30.0273 194.663 30.1641 194.188 30.1641C 193.712 30.1641 193.328 30.0273 193.035 29.7539C 192.749 29.4805 192.605 29.1289 192.605 28.6992ZM 202.801 42.1953C 201.251 42.1953 199.988 41.7201 199.012 40.7695C 198.042 39.819 197.557 38.5527 197.557 36.9707L 197.557 36.6973C 197.557 35.6361 197.762 34.6888 198.172 33.8555C 198.582 33.0156 199.161 32.3711 199.91 31.9219C 200.665 31.4661 201.525 31.2383 202.488 31.2383C 203.934 31.2383 205.07 31.694 205.896 32.6055C 206.73 33.5169 207.146 34.8092 207.146 36.4824L 207.146 37.6348L 200.418 37.6348C 200.509 38.3249 200.783 38.8783 201.238 39.2949C 201.701 39.7116 202.283 39.9199 202.986 39.9199C 204.074 39.9199 204.923 39.526 205.535 38.7383L 206.922 40.291C 206.499 40.89 205.926 41.3587 205.203 41.6973C 204.48 42.0293 203.68 42.1953 202.801 42.1953ZM 202.479 33.5234C 201.919 33.5234 201.463 33.7122 201.111 34.0898C 200.766 34.4674 200.545 35.0078 200.447 35.7109L 204.373 35.7109L 204.373 35.4863C 204.36 34.8613 204.191 34.3796 203.865 34.041C 203.54 33.696 203.077 33.5234 202.479 33.5234ZM 214.48 39.0801C 214.48 38.735 214.308 38.4648 213.963 38.2695C 213.624 38.0677 213.077 37.8887 212.322 37.7324C 209.809 37.2051 208.553 36.1374 208.553 34.5293C 208.553 33.5918 208.94 32.8105 209.715 32.1855C 210.496 31.554 211.515 31.2383 212.771 31.2383C 214.113 31.2383 215.184 31.554 215.984 32.1855C 216.792 32.8171 217.195 33.6374 217.195 34.6465L 214.373 34.6465C 214.373 34.2428 214.243 33.9108 213.982 33.6504C 213.722 33.3835 213.315 33.25 212.762 33.25C 212.286 33.25 211.919 33.3574 211.658 33.5723C 211.398 33.7871 211.268 34.0605 211.268 34.3926C 211.268 34.7051 211.414 34.959 211.707 35.1543C 212.007 35.3431 212.508 35.5091 213.211 35.6523C 213.914 35.7891 214.507 35.9453 214.988 36.1211C 216.479 36.668 217.225 37.6152 217.225 38.9629C 217.225 39.9264 216.811 40.7077 215.984 41.3066C 215.158 41.8991 214.09 42.1953 212.781 42.1953C 211.896 42.1953 211.108 42.0391 210.418 41.7266C 209.734 41.4076 209.197 40.9746 208.807 40.4277C 208.416 39.8743 208.221 39.2786 208.221 38.6406L 210.896 38.6406C 210.923 39.1419 211.108 39.526 211.453 39.793C 211.798 40.0599 212.26 40.1934 212.84 40.1934C 213.38 40.1934 213.787 40.0924 214.061 39.8906C 214.34 39.6823 214.48 39.4121 214.48 39.0801ZM 230.447 39.1973C 230.447 38.709 230.262 38.3314 229.891 38.0645C 229.526 37.791 228.885 37.5566 227.967 37.3613C 227.055 37.166 226.329 36.9316 225.789 36.6582C 225.255 36.3848 224.858 36.0592 224.598 35.6816C 224.344 35.304 224.217 34.8548 224.217 34.334C 224.217 33.4681 224.581 32.7357 225.311 32.1367C 226.046 31.5378 226.984 31.2383 228.123 31.2383C 229.321 31.2383 230.291 31.5475 231.033 32.166C 231.782 32.7845 232.156 33.5755 232.156 34.5391L 230.34 34.5391C 230.34 34.0443 230.128 33.6178 229.705 33.2598C 229.288 32.9017 228.761 32.7227 228.123 32.7227C 227.465 32.7227 226.951 32.8659 226.58 33.1523C 226.209 33.4388 226.023 33.8132 226.023 34.2754C 226.023 34.7116 226.196 35.0404 226.541 35.2617C 226.886 35.4831 227.508 35.6947 228.406 35.8965C 229.311 36.0983 230.044 36.3392 230.604 36.6191C 231.163 36.8991 231.577 37.2376 231.844 37.6348C 232.117 38.0254 232.254 38.5039 232.254 39.0703C 232.254 40.0143 231.876 40.7728 231.121 41.3457C 230.366 41.9121 229.386 42.1953 228.182 42.1953C 227.335 42.1953 226.587 42.0456 225.936 41.7461C 225.285 41.4466 224.773 41.0299 224.402 40.4961C 224.038 39.9557 223.855 39.373 223.855 38.748L 225.662 38.748C 225.695 39.3535 225.936 39.8353 226.385 40.1934C 226.84 40.5449 227.439 40.7207 228.182 40.7207C 228.865 40.7207 229.412 40.584 229.822 40.3105C 230.239 40.0306 230.447 39.6595 230.447 39.1973ZM 241.131 42C 241.027 41.7917 240.942 41.4206 240.877 40.8867C 240.037 41.7591 239.035 42.1953 237.869 42.1953C 236.827 42.1953 235.971 41.9023 235.301 41.3164C 234.637 40.724 234.305 39.9753 234.305 39.0703C 234.305 37.9701 234.721 37.1172 235.555 36.5117C 236.395 35.8997 237.573 35.5938 239.09 35.5938L 240.848 35.5938L 240.848 34.7637C 240.848 34.1322 240.659 33.6309 240.281 33.2598C 239.904 32.8822 239.347 32.6934 238.611 32.6934C 237.967 32.6934 237.426 32.8561 236.99 33.1816C 236.554 33.5072 236.336 33.901 236.336 34.3633L 234.52 34.3633C 234.52 33.8359 234.705 33.3281 235.076 32.8398C 235.454 32.3451 235.962 31.9544 236.6 31.668C 237.244 31.3815 237.951 31.2383 238.719 31.2383C 239.936 31.2383 240.89 31.5443 241.58 32.1562C 242.27 32.7617 242.628 33.5983 242.654 34.666L 242.654 39.5293C 242.654 40.4993 242.778 41.2708 243.025 41.8438L 243.025 42L 241.131 42ZM 238.133 40.623C 238.699 40.623 239.236 40.4766 239.744 40.1836C 240.252 39.8906 240.62 39.5098 240.848 39.041L 240.848 36.873L 239.432 36.873C 237.218 36.873 236.111 37.5208 236.111 38.8164C 236.111 39.3828 236.3 39.8255 236.678 40.1445C 237.055 40.4635 237.54 40.623 238.133 40.623ZM 247.938 28.875L 247.938 31.4336L 249.91 31.4336L 249.91 32.8301L 247.938 32.8301L 247.938 39.3828C 247.938 39.806 248.025 40.125 248.201 40.3398C 248.377 40.5482 248.676 40.6523 249.1 40.6523C 249.308 40.6523 249.594 40.6133 249.959 40.5352L 249.959 42C 249.484 42.1302 249.021 42.1953 248.572 42.1953C 247.765 42.1953 247.156 41.9512 246.746 41.4629C 246.336 40.9746 246.131 40.2812 246.131 39.3828L 246.131 32.8301L 244.207 32.8301L 244.207 31.4336L 246.131 31.4336L 246.131 28.875L 247.938 28.875ZM 253.992 42L 252.186 42L 252.186 31.4336L 253.992 31.4336L 253.992 42ZM 252.039 28.6309C 252.039 28.3379 252.127 28.0905 252.303 27.8887C 252.485 27.6868 252.752 27.5859 253.104 27.5859C 253.455 27.5859 253.722 27.6868 253.904 27.8887C 254.087 28.0905 254.178 28.3379 254.178 28.6309C 254.178 28.9238 254.087 29.168 253.904 29.3633C 253.722 29.5586 253.455 29.6562 253.104 29.6562C 252.752 29.6562 252.485 29.5586 252.303 29.3633C 252.127 29.168 252.039 28.9238 252.039 28.6309ZM 263.045 39.1973C 263.045 38.709 262.859 38.3314 262.488 38.0645C 262.124 37.791 261.482 37.5566 260.564 37.3613C 259.653 37.166 258.927 36.9316 258.387 36.6582C 257.853 36.3848 257.456 36.0592 257.195 35.6816C 256.941 35.304 256.814 34.8548 256.814 34.334C 256.814 33.4681 257.179 32.7357 257.908 32.1367C 258.644 31.5378 259.581 31.2383 260.721 31.2383C 261.919 31.2383 262.889 31.5475 263.631 32.166C 264.38 32.7845 264.754 33.5755 264.754 34.5391L 262.938 34.5391C 262.938 34.0443 262.726 33.6178 262.303 33.2598C 261.886 32.9017 261.359 32.7227 260.721 32.7227C 260.063 32.7227 259.549 32.8659 259.178 33.1523C 258.807 33.4388 258.621 33.8132 258.621 34.2754C 258.621 34.7116 258.794 35.0404 259.139 35.2617C 259.484 35.4831 260.105 35.6947 261.004 35.8965C 261.909 36.0983 262.641 36.3392 263.201 36.6191C 263.761 36.8991 264.174 37.2376 264.441 37.6348C 264.715 38.0254 264.852 38.5039 264.852 39.0703C 264.852 40.0143 264.474 40.7728 263.719 41.3457C 262.964 41.9121 261.984 42.1953 260.779 42.1953C 259.933 42.1953 259.184 42.0456 258.533 41.7461C 257.882 41.4466 257.371 41.0299 257 40.4961C 256.635 39.9557 256.453 39.373 256.453 38.748L 258.26 38.748C 258.292 39.3535 258.533 39.8353 258.982 40.1934C 259.438 40.5449 260.037 40.7207 260.779 40.7207C 261.463 40.7207 262.01 40.584 262.42 40.3105C 262.837 40.0306 263.045 39.6595 263.045 39.1973ZM 269.168 42L 267.361 42L 267.361 31.4336L 269.168 31.4336L 269.168 42ZM 267.215 28.6309C 267.215 28.3379 267.303 28.0905 267.479 27.8887C 267.661 27.6868 267.928 27.5859 268.279 27.5859C 268.631 27.5859 268.898 27.6868 269.08 27.8887C 269.262 28.0905 269.354 28.3379 269.354 28.6309C 269.354 28.9238 269.262 29.168 269.08 29.3633C 268.898 29.5586 268.631 29.6562 268.279 29.6562C 267.928 29.6562 267.661 29.5586 267.479 29.3633C 267.303 29.168 267.215 28.9238 267.215 28.6309ZM 272.674 42L 272.674 32.8301L 271.004 32.8301L 271.004 31.4336L 272.674 31.4336L 272.674 30.5352C 272.674 29.3568 273.009 28.4388 273.68 27.7812C 274.357 27.1237 275.311 26.7949 276.541 26.7949C 277.27 26.7949 278.191 26.9935 279.305 27.3906L 279.002 28.9141C 278.188 28.5885 277.413 28.4258 276.678 28.4258C 275.903 28.4258 275.343 28.6016 274.998 28.9531C 274.66 29.2982 274.49 29.819 274.49 30.5156L 274.49 31.4336L 276.648 31.4336L 276.648 32.8301L 274.49 32.8301L 274.49 42L 272.674 42ZM 280.203 42L 278.387 42L 278.387 31.4336L 280.203 31.4336L 280.203 42ZM 287.527 42.1953C 286.095 42.1953 284.93 41.7266 284.031 40.7891C 283.133 39.8451 282.684 38.5853 282.684 37.0098L 282.684 36.6777C 282.684 35.6296 282.882 34.6953 283.279 33.875C 283.683 33.0482 284.243 32.4036 284.959 31.9414C 285.682 31.4727 286.463 31.2383 287.303 31.2383C 288.676 31.2383 289.744 31.6908 290.506 32.5957C 291.268 33.5007 291.648 34.7962 291.648 36.4824L 291.648 37.2344L 284.49 37.2344C 284.516 38.276 284.819 39.1191 285.398 39.7637C 285.984 40.4017 286.727 40.7207 287.625 40.7207C 288.263 40.7207 288.803 40.5905 289.246 40.3301C 289.689 40.0697 290.076 39.7246 290.408 39.2949L 291.512 40.1543C 290.626 41.515 289.298 42.1953 287.527 42.1953ZM 287.303 32.7227C 286.574 32.7227 285.962 32.9896 285.467 33.5234C 284.972 34.0508 284.666 34.793 284.549 35.75L 289.842 35.75L 289.842 35.6133C 289.79 34.6953 289.542 33.9857 289.1 33.4844C 288.657 32.9766 288.058 32.7227 287.303 32.7227ZM 293.309 36.6289C 293.309 35.0078 293.693 33.7057 294.461 32.7227C 295.229 31.7331 296.235 31.2383 297.479 31.2383C 298.715 31.2383 299.695 31.6615 300.418 32.5078L 300.418 27L 302.225 27L 302.225 42L 300.564 42L 300.477 40.8672C 299.754 41.7526 298.748 42.1953 297.459 42.1953C 296.235 42.1953 295.236 41.694 294.461 40.6914C 293.693 39.6888 293.309 38.3802 293.309 36.7656L 293.309 36.6289ZM 295.115 36.834C 295.115 38.0319 295.363 38.9694 295.857 39.6465C 296.352 40.3236 297.036 40.6621 297.908 40.6621C 299.054 40.6621 299.891 40.1478 300.418 39.1191L 300.418 34.2656C 299.878 33.2695 299.048 32.7715 297.928 32.7715C 297.042 32.7715 296.352 33.1133 295.857 33.7969C 295.363 34.4805 295.115 35.4928 295.115 36.834ZM 122.293 65C 122.189 64.7917 122.104 64.4206 122.039 63.8867C 121.199 64.7591 120.197 65.1953 119.031 65.1953C 117.99 65.1953 117.133 64.9023 116.463 64.3164C 115.799 63.724 115.467 62.9753 115.467 62.0703C 115.467 60.9701 115.883 60.1172 116.717 59.5117C 117.557 58.8997 118.735 58.5938 120.252 58.5938L 122.01 58.5938L 122.01 57.7637C 122.01 57.1322 121.821 56.6309 121.443 56.2598C 121.066 55.8822 120.509 55.6934 119.773 55.6934C 119.129 55.6934 118.589 55.8561 118.152 56.1816C 117.716 56.5072 117.498 56.901 117.498 57.3633L 115.682 57.3633C 115.682 56.8359 115.867 56.3281 116.238 55.8398C 116.616 55.3451 117.124 54.9544 117.762 54.668C 118.406 54.3815 119.113 54.2383 119.881 54.2383C 121.098 54.2383 122.052 54.5443 122.742 55.1562C 123.432 55.7617 123.79 56.5983 123.816 57.666L 123.816 62.5293C 123.816 63.4993 123.94 64.2708 124.188 64.8438L 124.188 65L 122.293 65ZM 119.295 63.623C 119.861 63.623 120.398 63.4766 120.906 63.1836C 121.414 62.8906 121.782 62.5098 122.01 62.041L 122.01 59.873L 120.594 59.873C 118.38 59.873 117.273 60.5208 117.273 61.8164C 117.273 62.3828 117.462 62.8255 117.84 63.1445C 118.217 63.4635 118.702 63.623 119.295 63.623ZM 129.1 51.875L 129.1 54.4336L 131.072 54.4336L 131.072 55.8301L 129.1 55.8301L 129.1 62.3828C 129.1 62.806 129.188 63.125 129.363 63.3398C 129.539 63.5482 129.839 63.6523 130.262 63.6523C 130.47 63.6523 130.757 63.6133 131.121 63.5352L 131.121 65C 130.646 65.1302 130.184 65.1953 129.734 65.1953C 128.927 65.1953 128.318 64.9512 127.908 64.4629C 127.498 63.9746 127.293 63.2812 127.293 62.3828L 127.293 55.8301L 125.369 55.8301L 125.369 54.4336L 127.293 54.4336L 127.293 51.875L 129.1 51.875ZM 147.508 62.5098L 149.539 54.4336L 151.346 54.4336L 148.27 65L 146.805 65L 144.236 56.9922L 141.736 65L 140.271 65L 137.205 54.4336L 139.002 54.4336L 141.082 62.3438L 143.543 54.4336L 144.998 54.4336L 147.508 62.5098ZM 152.713 59.6191C 152.713 58.584 152.915 57.653 153.318 56.8262C 153.729 55.9993 154.295 55.3613 155.018 54.9121C 155.747 54.4629 156.577 54.2383 157.508 54.2383C 158.947 54.2383 160.109 54.7363 160.994 55.7324C 161.886 56.7285 162.332 58.0534 162.332 59.707L 162.332 59.834C 162.332 60.8626 162.133 61.7871 161.736 62.6074C 161.346 63.4212 160.783 64.056 160.047 64.5117C 159.318 64.9674 158.478 65.1953 157.527 65.1953C 156.095 65.1953 154.933 64.6973 154.041 63.7012C 153.156 62.7051 152.713 61.3867 152.713 59.7461L 152.713 59.6191ZM 154.529 59.834C 154.529 61.0059 154.799 61.9466 155.34 62.6562C 155.887 63.3659 156.616 63.7207 157.527 63.7207C 158.445 63.7207 159.174 63.3626 159.715 62.6465C 160.255 61.9238 160.525 60.9147 160.525 59.6191C 160.525 58.4603 160.249 57.5228 159.695 56.8066C 159.148 56.084 158.419 55.7227 157.508 55.7227C 156.616 55.7227 155.896 56.0775 155.35 56.7871C 154.803 57.4967 154.529 58.5124 154.529 59.834ZM 169.705 56.0547C 169.432 56.0091 169.135 55.9863 168.816 55.9863C 167.632 55.9863 166.827 56.4909 166.404 57.5L 166.404 65L 164.598 65L 164.598 54.4336L 166.355 54.4336L 166.385 55.6543C 166.977 54.7103 167.817 54.2383 168.904 54.2383C 169.256 54.2383 169.523 54.2839 169.705 54.375L 169.705 56.0547ZM 174.324 60.1074L 173.191 61.2891L 173.191 65L 171.385 65L 171.385 50L 173.191 50L 173.191 59.0723L 174.158 57.9102L 177.449 54.4336L 179.646 54.4336L 175.535 58.8477L 180.125 65L 178.006 65L 174.324 60.1074ZM 183.631 60.9961C 183.644 60.2214 183.732 59.6094 183.895 59.1602C 184.057 58.7109 184.389 58.2129 184.891 57.666L 186.17 56.3477C 186.717 55.7292 186.99 55.0651 186.99 54.3555C 186.99 53.6719 186.811 53.138 186.453 52.7539C 186.095 52.3633 185.574 52.168 184.891 52.168C 184.227 52.168 183.693 52.3438 183.289 52.6953C 182.885 53.0469 182.684 53.5189 182.684 54.1113L 180.877 54.1113C 180.89 53.0566 181.264 52.207 182 51.5625C 182.742 50.9115 183.706 50.5859 184.891 50.5859C 186.121 50.5859 187.078 50.918 187.762 51.582C 188.452 52.2396 188.797 53.1445 188.797 54.2969C 188.797 55.4362 188.27 56.5592 187.215 57.666L 186.15 58.7207C 185.675 59.248 185.438 60.0065 185.438 60.9961L 183.631 60.9961ZM 183.553 64.0918C 183.553 63.7988 183.641 63.5547 183.816 63.3594C 183.999 63.1576 184.266 63.0566 184.617 63.0566C 184.969 63.0566 185.236 63.1576 185.418 63.3594C 185.6 63.5547 185.691 63.7988 185.691 64.0918C 185.691 64.3848 185.6 64.6289 185.418 64.8242C 185.236 65.013 184.969 65.1074 184.617 65.1074C 184.266 65.1074 183.999 65.013 183.816 64.8242C 183.641 64.6289 183.553 64.3848 183.553 64.0918Z"/>
<path id="path16_fill" d="M 8.64258 15.2695C 8.64258 14.7161 8.44727 14.293 8.05664 14C 7.66602 13.7005 6.96289 13.388 5.94727 13.0625C 4.93164 12.7305 4.1276 12.4049 3.53516 12.0859C 1.92057 11.2135 1.11328 10.0384 1.11328 8.56055C 1.11328 7.79232 1.32812 7.10872 1.75781 6.50977C 2.19401 5.9043 2.81576 5.43229 3.62305 5.09375C 4.43685 4.75521 5.34831 4.58594 6.35742 4.58594C 7.37305 4.58594 8.27799 4.77148 9.07227 5.14258C 9.86654 5.50716 10.4818 6.02474 10.918 6.69531C 11.3607 7.36589 11.582 8.1276 11.582 8.98047L 8.65234 8.98047C 8.65234 8.32943 8.44727 7.82487 8.03711 7.4668C 7.62695 7.10221 7.05078 6.91992 6.30859 6.91992C 5.59245 6.91992 5.03581 7.07292 4.63867 7.37891C 4.24154 7.67839 4.04297 8.07552 4.04297 8.57031C 4.04297 9.03255 4.27409 9.41992 4.73633 9.73242C 5.20508 10.0449 5.89193 10.3379 6.79688 10.6113C 8.46354 11.1126 9.67773 11.7344 10.4395 12.4766C 11.2012 13.2188 11.582 14.1432 11.582 15.25C 11.582 16.4805 11.1165 17.4473 10.1855 18.1504C 9.25456 18.847 8.0013 19.1953 6.42578 19.1953C 5.33203 19.1953 4.33594 18.9967 3.4375 18.5996C 2.53906 18.196 1.85221 17.6458 1.37695 16.9492C 0.908203 16.2526 0.673828 15.4453 0.673828 14.5273L 3.61328 14.5273C 3.61328 16.0964 4.55078 16.8809 6.42578 16.8809C 7.1224 16.8809 7.66602 16.7409 8.05664 16.4609C 8.44727 16.1745 8.64258 15.7773 8.64258 15.2695ZM 19.5117 19C 19.3815 18.7461 19.2871 18.4303 19.2285 18.0527C 18.5449 18.8145 17.6562 19.1953 16.5625 19.1953C 15.5273 19.1953 14.668 18.8958 13.9844 18.2969C 13.3073 17.6979 12.9688 16.9427 12.9688 16.0312C 12.9688 14.9115 13.3822 14.0521 14.209 13.4531C 15.0423 12.8542 16.2435 12.5514 17.8125 12.5449L 19.1113 12.5449L 19.1113 11.9395C 19.1113 11.4512 18.9844 11.0605 18.7305 10.7676C 18.4831 10.4746 18.0892 10.3281 17.5488 10.3281C 17.0736 10.3281 16.6992 10.4421 16.4258 10.6699C 16.1589 10.8978 16.0254 11.2103 16.0254 11.6074L 13.2031 11.6074C 13.2031 10.9954 13.3919 10.429 13.7695 9.9082C 14.1471 9.38737 14.681 8.98047 15.3711 8.6875C 16.0612 8.38802 16.8359 8.23828 17.6953 8.23828C 18.9974 8.23828 20.0293 8.56706 20.791 9.22461C 21.5592 9.87565 21.9434 10.7936 21.9434 11.9785L 21.9434 16.5586C 21.9499 17.5612 22.0898 18.3197 22.3633 18.834L 22.3633 19L 19.5117 19ZM 17.1777 17.0371C 17.5944 17.0371 17.9785 16.946 18.3301 16.7637C 18.6816 16.5749 18.9421 16.3242 19.1113 16.0117L 19.1113 14.1953L 18.0566 14.1953C 16.6439 14.1953 15.8919 14.6836 15.8008 15.6602L 15.791 15.8262C 15.791 16.1777 15.9147 16.4674 16.1621 16.6953C 16.4095 16.9232 16.748 17.0371 17.1777 17.0371ZM 26.7578 8.43359L 26.8457 9.61523C 27.5944 8.69727 28.6068 8.23828 29.8828 8.23828C 31.2435 8.23828 32.1777 8.77539 32.6855 9.84961C 33.4277 8.77539 34.4857 8.23828 35.8594 8.23828C 37.0052 8.23828 37.8581 8.57357 38.418 9.24414C 38.9779 9.9082 39.2578 10.9108 39.2578 12.252L 39.2578 19L 36.4258 19L 36.4258 12.2617C 36.4258 11.6628 36.3086 11.2266 36.0742 10.9531C 35.8398 10.6732 35.4264 10.5332 34.834 10.5332C 33.9876 10.5332 33.4017 10.9368 33.0762 11.7441L 33.0859 19L 30.2637 19L 30.2637 12.2715C 30.2637 11.6595 30.1432 11.2168 29.9023 10.9434C 29.6615 10.6699 29.2513 10.5332 28.6719 10.5332C 27.8711 10.5332 27.2917 10.8652 26.9336 11.5293L 26.9336 19L 24.1113 19L 24.1113 8.43359L 26.7578 8.43359ZM 50.9473 13.8145C 50.9473 15.4421 50.5762 16.7474 49.834 17.7305C 49.0983 18.707 48.1022 19.1953 46.8457 19.1953C 45.778 19.1953 44.9154 18.8242 44.2578 18.082L 44.2578 23.0625L 41.4355 23.0625L 41.4355 8.43359L 44.0527 8.43359L 44.1504 9.46875C 44.834 8.64844 45.7259 8.23828 46.8262 8.23828C 48.1283 8.23828 49.1406 8.72005 49.8633 9.68359C 50.5859 10.6471 50.9473 11.9753 50.9473 13.668L 50.9473 13.8145ZM 48.125 13.6094C 48.125 12.6263 47.9492 11.8678 47.5977 11.334C 47.2526 10.8001 46.748 10.5332 46.084 10.5332C 45.1986 10.5332 44.5898 10.8717 44.2578 11.5488L 44.2578 15.875C 44.6029 16.5716 45.2181 16.9199 46.1035 16.9199C 47.4512 16.9199 48.125 15.8164 48.125 13.6094ZM 55.6836 19L 52.8516 19L 52.8516 4L 55.6836 4L 55.6836 19ZM 62.8809 19.1953C 61.3314 19.1953 60.0684 18.7201 59.0918 17.7695C 58.1217 16.819 57.6367 15.5527 57.6367 13.9707L 57.6367 13.6973C 57.6367 12.6361 57.8418 11.6888 58.252 10.8555C 58.6621 10.0156 59.2415 9.37109 59.9902 8.92188C 60.7454 8.46615 61.6048 8.23828 62.5684 8.23828C 64.0137 8.23828 65.1497 8.69401 65.9766 9.60547C 66.8099 10.5169 67.2266 11.8092 67.2266 13.4824L 67.2266 14.6348L 60.498 14.6348C 60.5892 15.3249 60.8626 15.8783 61.3184 16.2949C 61.7806 16.7116 62.3633 16.9199 63.0664 16.9199C 64.1536 16.9199 65.0033 16.526 65.6152 15.7383L 67.002 17.291C 66.5788 17.89 66.0059 18.3587 65.2832 18.6973C 64.5605 19.0293 63.7598 19.1953 62.8809 19.1953ZM 62.5586 10.5234C 61.9987 10.5234 61.543 10.7122 61.1914 11.0898C 60.8464 11.4674 60.625 12.0078 60.5273 12.7109L 64.4531 12.7109L 64.4531 12.4863C 64.4401 11.8613 64.2708 11.3796 63.9453 11.041C 63.6198 10.696 63.1576 10.5234 62.5586 10.5234Z"/>
<path id="path17_stroke" d="M 6.70711 0.707107C 7.09763 0.316582 7.09763 -0.316582 6.70711 -0.707107L 0.343146 -7.07107C -0.0473785 -7.46159 -0.680544 -7.46159 -1.07107 -7.07107C -1.46159 -6.68054 -1.46159 -6.04738 -1.07107 -5.65685L 4.58579 0L -1.07107 5.65685C -1.46159 6.04738 -1.46159 6.68054 -1.07107 7.07107C -0.680544 7.46159 -0.0473785 7.46159 0.343146 7.07107L 6.70711 0.707107ZM 0 1L 6 1L 6 -1L 0 -1L 0 1Z"/>
</defs>
</svg>
