<svg width="342" height="288" viewBox="0 0 342 288" fill="none" xmlns="http://www.w3.org/2000/svg">
<line x1="2" y1="253.25" x2="340" y2="253.25" stroke="black" stroke-width="1.5"/>
<line x1="1.44238" y1="253.498" x2="171.442" y2="64.4984" stroke="black" stroke-width="1.5"/>
<line x1="171.559" y1="64.5001" x2="340.559" y2="253.5" stroke="black" stroke-width="1.5"/>
<path d="M24.1787 11.8232H21.1729V17H19.4766V4.20312H23.7129C25.1543 4.20312 26.2617 4.53125 27.0352 5.1875C27.8145 5.84375 28.2041 6.79883 28.2041 8.05273C28.2041 8.84961 27.9873 9.54395 27.5537 10.1357C27.126 10.7275 26.5283 11.1699 25.7607 11.4629L28.7666 16.8945V17H26.9561L24.1787 11.8232ZM21.1729 10.4434H23.7656C24.6035 10.4434 25.2686 10.2266 25.7607 9.79297C26.2588 9.35938 26.5078 8.7793 26.5078 8.05273C26.5078 7.26172 26.2705 6.65527 25.7959 6.2334C25.3271 5.81152 24.6475 5.59766 23.7568 5.5918H21.1729V10.4434ZM32.0889 17H30.4629V7.49023H32.0889V17ZM30.3311 4.96777C30.3311 4.7041 30.4102 4.48145 30.5684 4.2998C30.7324 4.11816 30.9727 4.02734 31.2891 4.02734C31.6055 4.02734 31.8457 4.11816 32.0098 4.2998C32.1738 4.48145 32.2559 4.7041 32.2559 4.96777C32.2559 5.23145 32.1738 5.45117 32.0098 5.62695C31.8457 5.80273 31.6055 5.89062 31.2891 5.89062C30.9727 5.89062 30.7324 5.80273 30.5684 5.62695C30.4102 5.45117 30.3311 5.23145 30.3311 4.96777ZM34.3125 12.166C34.3125 10.6836 34.6553 9.50586 35.3408 8.63281C36.0264 7.75391 36.9346 7.31445 38.0654 7.31445C39.2256 7.31445 40.1309 7.72461 40.7812 8.54492L40.8604 7.49023H42.3457V16.7715C42.3457 18.002 41.9795 18.9717 41.2471 19.6807C40.5205 20.3896 39.542 20.7441 38.3115 20.7441C37.626 20.7441 36.9551 20.5977 36.2988 20.3047C35.6426 20.0117 35.1416 19.6104 34.7959 19.1006L35.6396 18.125C36.3369 18.9863 37.1895 19.417 38.1973 19.417C38.9883 19.417 39.6035 19.1943 40.043 18.749C40.4883 18.3037 40.7109 17.6768 40.7109 16.8682V16.0508C40.0605 16.8008 39.1729 17.1758 38.0479 17.1758C36.9346 17.1758 36.0322 16.7275 35.3408 15.8311C34.6553 14.9346 34.3125 13.7129 34.3125 12.166ZM35.9473 12.3506C35.9473 13.4229 36.167 14.2666 36.6064 14.8818C37.0459 15.4912 37.6611 15.7959 38.4521 15.7959C39.4775 15.7959 40.2305 15.3301 40.7109 14.3984V10.0566C40.2129 9.14844 39.4658 8.69434 38.4697 8.69434C37.6787 8.69434 37.0605 9.00195 36.6152 9.61719C36.1699 10.2324 35.9473 11.1436 35.9473 12.3506ZM46.4326 8.6416C47.1533 7.75684 48.0908 7.31445 49.2451 7.31445C51.2549 7.31445 52.2686 8.44824 52.2861 10.7158V17H50.6602V10.707C50.6543 10.0215 50.4961 9.51465 50.1855 9.18652C49.8809 8.8584 49.4033 8.69434 48.7529 8.69434C48.2256 8.69434 47.7627 8.83496 47.3643 9.11621C46.9658 9.39746 46.6553 9.7666 46.4326 10.2236V17H44.8066V3.5H46.4326V8.6416ZM56.9268 5.1875V7.49023H58.7021V8.74707H56.9268V14.6445C56.9268 15.0254 57.0059 15.3125 57.1641 15.5059C57.3223 15.6934 57.5918 15.7871 57.9727 15.7871C58.1602 15.7871 58.418 15.752 58.7461 15.6816V17C58.3184 17.1172 57.9023 17.1758 57.498 17.1758C56.7715 17.1758 56.2236 16.9561 55.8545 16.5166C55.4854 16.0771 55.3008 15.4531 55.3008 14.6445V8.74707H53.5693V7.49023H55.3008V5.1875H56.9268ZM70.9453 17C70.8516 16.8125 70.7754 16.4785 70.7168 15.998C69.9609 16.7832 69.0586 17.1758 68.0098 17.1758C67.0723 17.1758 66.3018 16.9121 65.6982 16.3848C65.1006 15.8516 64.8018 15.1777 64.8018 14.3633C64.8018 13.373 65.1768 12.6055 65.9268 12.0605C66.6826 11.5098 67.7432 11.2344 69.1084 11.2344H70.6904V10.4873C70.6904 9.91895 70.5205 9.46777 70.1807 9.13379C69.8408 8.79395 69.3398 8.62402 68.6777 8.62402C68.0977 8.62402 67.6113 8.77051 67.2188 9.06348C66.8262 9.35645 66.6299 9.71094 66.6299 10.127H64.9951C64.9951 9.65234 65.1621 9.19531 65.4961 8.75586C65.8359 8.31055 66.293 7.95898 66.8672 7.70117C67.4473 7.44336 68.083 7.31445 68.7744 7.31445C69.8701 7.31445 70.7285 7.58984 71.3496 8.14062C71.9707 8.68555 72.293 9.43848 72.3164 10.3994V14.7764C72.3164 15.6494 72.4277 16.3438 72.6504 16.8594V17H70.9453ZM68.2471 15.7607C68.7568 15.7607 69.2402 15.6289 69.6973 15.3652C70.1543 15.1016 70.4854 14.7588 70.6904 14.3369V12.3857H69.416C67.4238 12.3857 66.4277 12.9688 66.4277 14.1348C66.4277 14.6445 66.5977 15.043 66.9375 15.3301C67.2773 15.6172 67.7139 15.7607 68.2471 15.7607ZM76.4033 7.49023L76.4561 8.68555C77.1826 7.77148 78.1318 7.31445 79.3037 7.31445C81.3135 7.31445 82.3271 8.44824 82.3447 10.7158V17H80.7188V10.707C80.7129 10.0215 80.5547 9.51465 80.2441 9.18652C79.9395 8.8584 79.4619 8.69434 78.8115 8.69434C78.2842 8.69434 77.8213 8.83496 77.4229 9.11621C77.0244 9.39746 76.7139 9.7666 76.4912 10.2236V17H74.8652V7.49023H76.4033ZM84.4102 12.166C84.4102 10.6836 84.7529 9.50586 85.4385 8.63281C86.124 7.75391 87.0322 7.31445 88.1631 7.31445C89.3232 7.31445 90.2285 7.72461 90.8789 8.54492L90.958 7.49023H92.4434V16.7715C92.4434 18.002 92.0771 18.9717 91.3447 19.6807C90.6182 20.3896 89.6396 20.7441 88.4092 20.7441C87.7236 20.7441 87.0527 20.5977 86.3965 20.3047C85.7402 20.0117 85.2393 19.6104 84.8936 19.1006L85.7373 18.125C86.4346 18.9863 87.2871 19.417 88.2949 19.417C89.0859 19.417 89.7012 19.1943 90.1406 18.749C90.5859 18.3037 90.8086 17.6768 90.8086 16.8682V16.0508C90.1582 16.8008 89.2705 17.1758 88.1455 17.1758C87.0322 17.1758 86.1299 16.7275 85.4385 15.8311C84.7529 14.9346 84.4102 13.7129 84.4102 12.166ZM86.0449 12.3506C86.0449 13.4229 86.2646 14.2666 86.7041 14.8818C87.1436 15.4912 87.7588 15.7959 88.5498 15.7959C89.5752 15.7959 90.3281 15.3301 90.8086 14.3984V10.0566C90.3105 9.14844 89.5635 8.69434 88.5674 8.69434C87.7764 8.69434 87.1582 9.00195 86.7129 9.61719C86.2676 10.2324 86.0449 11.1436 86.0449 12.3506ZM96.6709 17H95.0449V3.5H96.6709V17ZM103.228 17.1758C101.938 17.1758 100.89 16.7539 100.081 15.9102C99.2725 15.0605 98.8682 13.9268 98.8682 12.5088V12.21C98.8682 11.2666 99.0469 10.4258 99.4043 9.6875C99.7676 8.94336 100.271 8.36328 100.916 7.94727C101.566 7.52539 102.27 7.31445 103.025 7.31445C104.262 7.31445 105.223 7.72168 105.908 8.53613C106.594 9.35059 106.937 10.5166 106.937 12.0342V12.7109H100.494C100.518 13.6484 100.79 14.4072 101.312 14.9873C101.839 15.5615 102.507 15.8486 103.315 15.8486C103.89 15.8486 104.376 15.7314 104.774 15.4971C105.173 15.2627 105.521 14.9521 105.82 14.5654L106.813 15.3389C106.017 16.5635 104.821 17.1758 103.228 17.1758ZM103.025 8.65039C102.369 8.65039 101.818 8.89062 101.373 9.37109C100.928 9.8457 100.652 10.5137 100.547 11.375H105.311V11.252C105.264 10.4258 105.041 9.78711 104.643 9.33594C104.244 8.87891 103.705 8.65039 103.025 8.65039ZM115.497 5.1875V7.49023H117.272V8.74707H115.497V14.6445C115.497 15.0254 115.576 15.3125 115.734 15.5059C115.893 15.6934 116.162 15.7871 116.543 15.7871C116.73 15.7871 116.988 15.752 117.316 15.6816V17C116.889 17.1172 116.473 17.1758 116.068 17.1758C115.342 17.1758 114.794 16.9561 114.425 16.5166C114.056 16.0771 113.871 15.4531 113.871 14.6445V8.74707H112.14V7.49023H113.871V5.1875H115.497ZM123.776 8.94922C123.53 8.9082 123.264 8.8877 122.977 8.8877C121.91 8.8877 121.187 9.3418 120.806 10.25V17H119.18V7.49023H120.762L120.788 8.58887C121.321 7.73926 122.077 7.31445 123.056 7.31445C123.372 7.31445 123.612 7.35547 123.776 7.4375V8.94922ZM127.046 17H125.42V7.49023H127.046V17ZM125.288 4.96777C125.288 4.7041 125.367 4.48145 125.525 4.2998C125.689 4.11816 125.93 4.02734 126.246 4.02734C126.562 4.02734 126.803 4.11816 126.967 4.2998C127.131 4.48145 127.213 4.7041 127.213 4.96777C127.213 5.23145 127.131 5.45117 126.967 5.62695C126.803 5.80273 126.562 5.89062 126.246 5.89062C125.93 5.89062 125.689 5.80273 125.525 5.62695C125.367 5.45117 125.288 5.23145 125.288 4.96777ZM135.527 17C135.434 16.8125 135.357 16.4785 135.299 15.998C134.543 16.7832 133.641 17.1758 132.592 17.1758C131.654 17.1758 130.884 16.9121 130.28 16.3848C129.683 15.8516 129.384 15.1777 129.384 14.3633C129.384 13.373 129.759 12.6055 130.509 12.0605C131.265 11.5098 132.325 11.2344 133.69 11.2344H135.272V10.4873C135.272 9.91895 135.103 9.46777 134.763 9.13379C134.423 8.79395 133.922 8.62402 133.26 8.62402C132.68 8.62402 132.193 8.77051 131.801 9.06348C131.408 9.35645 131.212 9.71094 131.212 10.127H129.577C129.577 9.65234 129.744 9.19531 130.078 8.75586C130.418 8.31055 130.875 7.95898 131.449 7.70117C132.029 7.44336 132.665 7.31445 133.356 7.31445C134.452 7.31445 135.311 7.58984 135.932 8.14062C136.553 8.68555 136.875 9.43848 136.898 10.3994V14.7764C136.898 15.6494 137.01 16.3438 137.232 16.8594V17H135.527ZM132.829 15.7607C133.339 15.7607 133.822 15.6289 134.279 15.3652C134.736 15.1016 135.067 14.7588 135.272 14.3369V12.3857H133.998C132.006 12.3857 131.01 12.9688 131.01 14.1348C131.01 14.6445 131.18 15.043 131.52 15.3301C131.859 15.6172 132.296 15.7607 132.829 15.7607ZM140.985 7.49023L141.038 8.68555C141.765 7.77148 142.714 7.31445 143.886 7.31445C145.896 7.31445 146.909 8.44824 146.927 10.7158V17H145.301V10.707C145.295 10.0215 145.137 9.51465 144.826 9.18652C144.521 8.8584 144.044 8.69434 143.394 8.69434C142.866 8.69434 142.403 8.83496 142.005 9.11621C141.606 9.39746 141.296 9.7666 141.073 10.2236V17H139.447V7.49023H140.985ZM148.992 12.166C148.992 10.6836 149.335 9.50586 150.021 8.63281C150.706 7.75391 151.614 7.31445 152.745 7.31445C153.905 7.31445 154.811 7.72461 155.461 8.54492L155.54 7.49023H157.025V16.7715C157.025 18.002 156.659 18.9717 155.927 19.6807C155.2 20.3896 154.222 20.7441 152.991 20.7441C152.306 20.7441 151.635 20.5977 150.979 20.3047C150.322 20.0117 149.821 19.6104 149.476 19.1006L150.319 18.125C151.017 18.9863 151.869 19.417 152.877 19.417C153.668 19.417 154.283 19.1943 154.723 18.749C155.168 18.3037 155.391 17.6768 155.391 16.8682V16.0508C154.74 16.8008 153.853 17.1758 152.728 17.1758C151.614 17.1758 150.712 16.7275 150.021 15.8311C149.335 14.9346 148.992 13.7129 148.992 12.166ZM150.627 12.3506C150.627 13.4229 150.847 14.2666 151.286 14.8818C151.726 15.4912 152.341 15.7959 153.132 15.7959C154.157 15.7959 154.91 15.3301 155.391 14.3984V10.0566C154.893 9.14844 154.146 8.69434 153.149 8.69434C152.358 8.69434 151.74 9.00195 151.295 9.61719C150.85 10.2324 150.627 11.1436 150.627 12.3506ZM161.253 17H159.627V3.5H161.253V17ZM167.81 17.1758C166.521 17.1758 165.472 16.7539 164.663 15.9102C163.854 15.0605 163.45 13.9268 163.45 12.5088V12.21C163.45 11.2666 163.629 10.4258 163.986 9.6875C164.35 8.94336 164.854 8.36328 165.498 7.94727C166.148 7.52539 166.852 7.31445 167.607 7.31445C168.844 7.31445 169.805 7.72168 170.49 8.53613C171.176 9.35059 171.519 10.5166 171.519 12.0342V12.7109H165.076C165.1 13.6484 165.372 14.4072 165.894 14.9873C166.421 15.5615 167.089 15.8486 167.897 15.8486C168.472 15.8486 168.958 15.7314 169.356 15.4971C169.755 15.2627 170.104 14.9521 170.402 14.5654L171.396 15.3389C170.599 16.5635 169.403 17.1758 167.81 17.1758ZM167.607 8.65039C166.951 8.65039 166.4 8.89062 165.955 9.37109C165.51 9.8457 165.234 10.5137 165.129 11.375H169.893V11.252C169.846 10.4258 169.623 9.78711 169.225 9.33594C168.826 8.87891 168.287 8.65039 167.607 8.65039Z" fill="black"/>
<path d="M167.295 102.375C166.955 102.779 166.548 103.104 166.073 103.351C165.604 103.597 165.089 103.72 164.526 103.72C163.788 103.72 163.144 103.538 162.593 103.175C162.048 102.812 161.626 102.302 161.327 101.646C161.028 100.983 160.879 100.254 160.879 99.457C160.879 98.6016 161.04 97.8311 161.362 97.1455C161.69 96.46 162.153 95.9355 162.751 95.5723C163.349 95.209 164.046 95.0273 164.843 95.0273C166.108 95.0273 167.104 95.502 167.831 96.4512C168.563 97.3945 168.93 98.6836 168.93 100.318V100.793C168.93 103.283 168.438 105.103 167.453 106.251C166.469 107.394 164.983 107.979 162.997 108.009H162.681V106.638H163.023C164.365 106.614 165.396 106.266 166.117 105.592C166.838 104.912 167.23 103.84 167.295 102.375ZM164.79 102.375C165.335 102.375 165.836 102.208 166.293 101.874C166.756 101.54 167.093 101.127 167.304 100.635V99.9844C167.304 98.918 167.072 98.0508 166.609 97.3828C166.146 96.7148 165.561 96.3809 164.852 96.3809C164.137 96.3809 163.562 96.6562 163.129 97.207C162.695 97.752 162.479 98.4727 162.479 99.3691C162.479 100.242 162.687 100.963 163.103 101.531C163.524 102.094 164.087 102.375 164.79 102.375ZM179.195 102.542C179.195 104.446 178.87 105.861 178.22 106.787C177.569 107.713 176.553 108.176 175.17 108.176C173.805 108.176 172.794 107.725 172.138 106.822C171.481 105.914 171.142 104.561 171.118 102.762V100.591C171.118 98.71 171.443 97.3125 172.094 96.3984C172.744 95.4844 173.764 95.0273 175.152 95.0273C176.529 95.0273 177.543 95.4697 178.193 96.3545C178.844 97.2334 179.178 98.5928 179.195 100.433V102.542ZM177.569 100.318C177.569 98.9414 177.376 97.9395 176.989 97.3125C176.603 96.6797 175.99 96.3633 175.152 96.3633C174.32 96.3633 173.714 96.6768 173.333 97.3037C172.952 97.9307 172.756 98.8945 172.744 100.195V102.797C172.744 104.18 172.943 105.202 173.342 105.864C173.746 106.521 174.355 106.849 175.17 106.849C175.973 106.849 176.567 106.538 176.954 105.917C177.347 105.296 177.552 104.317 177.569 102.981V100.318Z" fill="black"/>
<path d="M39.9277 238.702H41.7031V240.029H39.9277V243H38.293V240.029H32.4658V239.071L38.1963 230.203H39.9277V238.702ZM34.3115 238.702H38.293V232.427L38.0996 232.778L34.3115 238.702ZM43.918 236.584L44.5684 230.203H51.125V231.706H45.9482L45.5615 235.195C46.1885 234.826 46.9004 234.642 47.6973 234.642C48.8633 234.642 49.7891 235.028 50.4746 235.802C51.1602 236.569 51.5029 237.609 51.5029 238.922C51.5029 240.24 51.1455 241.28 50.4307 242.042C49.7217 242.798 48.7285 243.176 47.4512 243.176C46.3203 243.176 45.3975 242.862 44.6826 242.235C43.9678 241.608 43.5605 240.741 43.4609 239.634H44.999C45.0986 240.366 45.3594 240.92 45.7812 241.295C46.2031 241.664 46.7598 241.849 47.4512 241.849C48.207 241.849 48.7988 241.591 49.2266 241.075C49.6602 240.56 49.877 239.848 49.877 238.939C49.877 238.084 49.6426 237.398 49.1738 236.883C48.7109 236.361 48.0928 236.101 47.3193 236.101C46.6104 236.101 46.0537 236.256 45.6494 236.566L45.2188 236.918L43.918 236.584Z" fill="black"/>
<path d="M291.928 238.702H293.703V240.029H291.928V243H290.293V240.029H284.466V239.071L290.196 230.203H291.928V238.702ZM286.312 238.702H290.293V232.427L290.1 232.778L286.312 238.702ZM295.918 236.584L296.568 230.203H303.125V231.706H297.948L297.562 235.195C298.188 234.826 298.9 234.642 299.697 234.642C300.863 234.642 301.789 235.028 302.475 235.802C303.16 236.569 303.503 237.609 303.503 238.922C303.503 240.24 303.146 241.28 302.431 242.042C301.722 242.798 300.729 243.176 299.451 243.176C298.32 243.176 297.397 242.862 296.683 242.235C295.968 241.608 295.561 240.741 295.461 239.634H296.999C297.099 240.366 297.359 240.92 297.781 241.295C298.203 241.664 298.76 241.849 299.451 241.849C300.207 241.849 300.799 241.591 301.227 241.075C301.66 240.56 301.877 239.848 301.877 238.939C301.877 238.084 301.643 237.398 301.174 236.883C300.711 236.361 300.093 236.101 299.319 236.101C298.61 236.101 298.054 236.256 297.649 236.566L297.219 236.918L295.918 236.584Z" fill="black"/>
<path d="M181.322 96.3096C181.322 95.7855 181.423 95.3184 181.625 94.9082C181.827 94.498 182.117 94.1807 182.494 93.9561C182.875 93.7314 183.316 93.6191 183.817 93.6191C184.53 93.6191 185.111 93.8372 185.561 94.2734C186.013 94.7096 186.265 95.3021 186.317 96.0508L186.327 96.4121C186.327 97.2227 186.101 97.8737 185.648 98.3652C185.196 98.8535 184.589 99.0977 183.827 99.0977C183.065 99.0977 182.457 98.8535 182.001 98.3652C181.549 97.877 181.322 97.2129 181.322 96.373V96.3096ZM182.733 96.4121C182.733 96.9134 182.828 97.2975 183.017 97.5645C183.205 97.8281 183.476 97.96 183.827 97.96C184.169 97.96 184.436 97.8298 184.628 97.5693C184.82 97.3057 184.916 96.8857 184.916 96.3096C184.916 95.818 184.82 95.4372 184.628 95.167C184.436 94.8968 184.166 94.7617 183.817 94.7617C183.472 94.7617 183.205 94.8968 183.017 95.167C182.828 95.4339 182.733 95.849 182.733 96.4121Z" fill="black"/>
<path d="M52.3223 231.31C52.3223 230.785 52.4232 230.318 52.625 229.908C52.8268 229.498 53.1165 229.181 53.4941 228.956C53.875 228.731 54.3161 228.619 54.8174 228.619C55.5303 228.619 56.1113 228.837 56.5605 229.273C57.013 229.71 57.2653 230.302 57.3174 231.051L57.3271 231.412C57.3271 232.223 57.1009 232.874 56.6484 233.365C56.196 233.854 55.5889 234.098 54.8271 234.098C54.0654 234.098 53.4567 233.854 53.001 233.365C52.5485 232.877 52.3223 232.213 52.3223 231.373V231.31ZM53.7334 231.412C53.7334 231.913 53.8278 232.298 54.0166 232.564C54.2054 232.828 54.4756 232.96 54.8271 232.96C55.1689 232.96 55.4359 232.83 55.6279 232.569C55.82 232.306 55.916 231.886 55.916 231.31C55.916 230.818 55.82 230.437 55.6279 230.167C55.4359 229.897 55.1657 229.762 54.8174 229.762C54.4723 229.762 54.2054 229.897 54.0166 230.167C53.8278 230.434 53.7334 230.849 53.7334 231.412Z" fill="black"/>
<path d="M304.322 231.31C304.322 230.785 304.423 230.318 304.625 229.908C304.827 229.498 305.117 229.181 305.494 228.956C305.875 228.731 306.316 228.619 306.817 228.619C307.53 228.619 308.111 228.837 308.561 229.273C309.013 229.71 309.265 230.302 309.317 231.051L309.327 231.412C309.327 232.223 309.101 232.874 308.648 233.365C308.196 233.854 307.589 234.098 306.827 234.098C306.065 234.098 305.457 233.854 305.001 233.365C304.549 232.877 304.322 232.213 304.322 231.373V231.31ZM305.733 231.412C305.733 231.913 305.828 232.298 306.017 232.564C306.205 232.828 306.476 232.96 306.827 232.96C307.169 232.96 307.436 232.83 307.628 232.569C307.82 232.306 307.916 231.886 307.916 231.31C307.916 230.818 307.82 230.437 307.628 230.167C307.436 229.897 307.166 229.762 306.817 229.762C306.472 229.762 306.205 229.897 306.017 230.167C305.828 230.434 305.733 230.849 305.733 231.412Z" fill="black"/>
<line x1="160.354" y1="77.6464" x2="172.354" y2="89.6464" stroke="black"/>
<line x1="171.646" y1="89.6464" x2="183.646" y2="77.6464" stroke="black"/>
<path d="M130.243 274.65C131.075 273.742 132.033 273.3 133.117 273.323C134.008 273.335 134.667 273.643 135.095 274.246C135.528 274.844 135.689 275.685 135.578 276.769L134.541 283H132.95L133.996 276.742C134.031 276.455 134.034 276.188 134.005 275.942C133.905 275.122 133.422 274.703 132.555 274.686C131.582 274.662 130.744 275.172 130.041 276.215L128.863 283H127.272L129.619 269.5H131.21L130.243 274.65ZM140.386 280.601L143.77 273.49H145.527L139.885 284.582C139.1 286.123 138.092 286.885 136.861 286.867C136.645 286.861 136.325 286.809 135.903 286.709L136.044 285.391L136.457 285.435C136.961 285.458 137.395 285.344 137.758 285.092C138.127 284.846 138.452 284.444 138.733 283.888L139.305 282.798L137.661 273.49H139.322L140.386 280.601ZM153.938 278.289C153.821 279.256 153.561 280.126 153.156 280.899C152.752 281.673 152.251 282.253 151.653 282.64C151.056 283.021 150.394 283.202 149.667 283.185C148.565 283.161 147.722 282.789 147.136 282.068L146.283 286.656H144.692L146.978 273.49L148.419 273.481L148.243 274.545C149.028 273.701 149.969 273.291 151.064 273.314C151.979 273.338 152.69 273.675 153.2 274.325C153.71 274.976 153.979 275.872 154.009 277.015C154.015 277.39 154 277.753 153.965 278.104L153.938 278.289ZM152.374 278.104L152.418 277.366C152.418 276.511 152.254 275.857 151.926 275.406C151.604 274.949 151.135 274.709 150.52 274.686C149.6 274.662 148.806 275.099 148.138 275.995L147.338 280.557C147.695 281.4 148.337 281.834 149.263 281.857C150.054 281.875 150.725 281.567 151.275 280.935C151.832 280.296 152.198 279.353 152.374 278.104ZM160.504 273.314C161.301 273.326 161.983 273.543 162.552 273.965C163.12 274.387 163.539 274.97 163.809 275.714C164.084 276.452 164.178 277.261 164.09 278.14L164.072 278.333C163.961 279.259 163.686 280.097 163.246 280.847C162.807 281.591 162.238 282.171 161.541 282.587C160.844 283.003 160.079 283.199 159.247 283.176C158.456 283.164 157.773 282.947 157.199 282.525C156.631 282.104 156.215 281.529 155.951 280.803C155.688 280.076 155.594 279.276 155.67 278.403C155.758 277.419 156.024 276.534 156.47 275.749C156.915 274.964 157.486 274.357 158.184 273.93C158.887 273.496 159.66 273.291 160.504 273.314ZM157.27 278.412C157.229 278.781 157.229 279.165 157.27 279.563C157.328 280.255 157.533 280.806 157.885 281.216C158.242 281.626 158.717 281.84 159.309 281.857C159.836 281.875 160.322 281.746 160.768 281.471C161.213 281.189 161.588 280.768 161.893 280.205C162.197 279.643 162.394 279.019 162.481 278.333C162.528 277.794 162.537 277.34 162.508 276.971C162.438 276.262 162.224 275.702 161.866 275.292C161.509 274.882 161.034 274.665 160.442 274.642C159.622 274.624 158.925 274.946 158.351 275.608C157.776 276.271 157.422 277.138 157.287 278.21L157.27 278.412ZM169.478 271.188L169.073 273.49H170.805L170.585 274.747H168.862L167.869 280.662C167.852 280.814 167.849 280.955 167.86 281.084C167.901 281.541 168.15 281.77 168.607 281.77C168.801 281.77 169.059 281.74 169.381 281.682L169.258 283.009C168.877 283.114 168.49 283.167 168.098 283.167C167.465 283.155 166.99 282.924 166.674 282.473C166.357 282.016 166.234 281.403 166.305 280.636L167.271 274.747H165.593L165.812 273.49H167.491L167.896 271.188H169.478ZM175.19 283.176C174.007 283.152 173.081 282.716 172.413 281.866C171.745 281.017 171.464 279.93 171.569 278.605L171.613 278.228C171.713 277.284 171.991 276.423 172.448 275.644C172.911 274.864 173.474 274.278 174.136 273.886C174.798 273.487 175.513 273.297 176.28 273.314C177.259 273.338 178.026 273.663 178.583 274.29C179.14 274.917 179.444 275.767 179.497 276.839C179.515 277.22 179.503 277.601 179.462 277.981L179.365 278.711H173.151C173.046 279.572 173.187 280.305 173.573 280.908C173.966 281.512 174.549 281.825 175.322 281.849C176.26 281.872 177.127 281.45 177.924 280.583L178.838 281.356C178.439 281.931 177.924 282.382 177.291 282.71C176.664 283.032 175.964 283.188 175.19 283.176ZM176.201 274.642C175.545 274.624 174.971 274.847 174.479 275.31C173.992 275.772 173.605 276.461 173.318 277.375L177.941 277.384L177.977 277.243C178.07 276.505 177.95 275.893 177.616 275.406C177.288 274.914 176.816 274.659 176.201 274.642ZM183.566 273.481L183.338 274.686C184.193 273.748 185.166 273.291 186.256 273.314C187.152 273.338 187.814 273.648 188.242 274.246C188.67 274.844 188.828 275.685 188.717 276.769L187.68 283H186.089L187.135 276.742C187.17 276.455 187.173 276.188 187.144 275.942C187.044 275.122 186.561 274.703 185.693 274.686C184.738 274.668 183.9 275.178 183.18 276.215L182.002 283H180.411L182.063 273.49L183.566 273.481ZM196.17 282.06C195.426 282.827 194.479 283.199 193.331 283.176C192.423 283.152 191.749 282.827 191.31 282.2C190.876 281.573 190.715 280.718 190.826 279.634L191.846 273.49H193.437L192.408 279.66C192.379 279.918 192.373 280.17 192.391 280.416C192.42 280.838 192.546 281.169 192.769 281.409C192.991 281.649 193.302 281.778 193.7 281.796C194.837 281.831 195.716 281.371 196.337 280.416L197.532 273.49H199.123L197.471 283H195.968L196.17 282.06ZM205.741 280.425C205.829 279.769 205.469 279.306 204.66 279.036L203.008 278.553C201.613 278.072 200.939 277.275 200.986 276.162C201.027 275.324 201.408 274.639 202.129 274.105C202.855 273.566 203.708 273.303 204.687 273.314C205.647 273.326 206.427 273.607 207.024 274.158C207.628 274.703 207.918 275.415 207.895 276.294L206.312 276.285C206.324 275.811 206.175 275.424 205.864 275.125C205.554 274.826 205.141 274.671 204.625 274.659C204.074 274.647 203.6 274.782 203.201 275.063C202.832 275.327 202.618 275.673 202.56 276.101C202.483 276.651 202.82 277.053 203.57 277.305L204.37 277.524C205.46 277.806 206.233 278.172 206.69 278.623C207.147 279.074 207.358 279.634 207.323 280.302C207.288 280.894 207.095 281.409 206.743 281.849C206.392 282.288 205.923 282.625 205.337 282.859C204.751 283.088 204.127 283.193 203.465 283.176C202.457 283.164 201.625 282.871 200.969 282.297C200.312 281.717 199.996 280.973 200.02 280.064L201.61 280.073C201.61 280.606 201.78 281.034 202.12 281.356C202.46 281.679 202.926 281.84 203.518 281.84C204.098 281.852 204.599 281.731 205.021 281.479C205.442 281.222 205.683 280.87 205.741 280.425ZM213.054 283.176C211.87 283.152 210.944 282.716 210.276 281.866C209.608 281.017 209.327 279.93 209.433 278.605L209.477 278.228C209.576 277.284 209.854 276.423 210.312 275.644C210.774 274.864 211.337 274.278 211.999 273.886C212.661 273.487 213.376 273.297 214.144 273.314C215.122 273.338 215.89 273.663 216.446 274.29C217.003 274.917 217.308 275.767 217.36 276.839C217.378 277.22 217.366 277.601 217.325 277.981L217.229 278.711H211.015C210.909 279.572 211.05 280.305 211.437 280.908C211.829 281.512 212.412 281.825 213.186 281.849C214.123 281.872 214.99 281.45 215.787 280.583L216.701 281.356C216.303 281.931 215.787 282.382 215.154 282.71C214.527 283.032 213.827 283.188 213.054 283.176ZM214.064 274.642C213.408 274.624 212.834 274.847 212.342 275.31C211.855 275.772 211.469 276.461 211.182 277.375L215.805 277.384L215.84 277.243C215.934 276.505 215.813 275.893 215.479 275.406C215.151 274.914 214.68 274.659 214.064 274.642Z" fill="black"/>
</svg>

