<svg width="1120" height="288" viewBox="0 0 1120 288" fill="none" xmlns="http://www.w3.org/2000/svg">
<rect width="560" height="144" transform="scale(2)" fill="white"/>
<path d="M48 12H556V64H48V12Z" fill="#F1F4F8"/>
<path d="M62.4185 36.8708H58.7505V34.4628L62.5585 34.3228L62.9785 30.5708H65.6385V34.3228H71.9105V36.8708H65.6385V42.5268C65.6385 43.6655 65.8718 44.5055 66.3385 45.0468C66.8052 45.5695 67.6265 45.8308 68.8025 45.8308C69.3998 45.8308 69.9412 45.7841 70.4265 45.6908C70.9118 45.5788 71.3785 45.4388 71.8265 45.2708L72.4425 47.6228C71.8265 47.8281 71.1452 48.0055 70.3985 48.1548C69.6518 48.3228 68.8585 48.4068 68.0185 48.4068C66.9732 48.4068 66.0958 48.2668 65.3865 47.9868C64.6772 47.7068 64.0985 47.3148 63.6505 46.8108C63.2212 46.2881 62.9038 45.6628 62.6985 44.9348C62.5118 44.2068 62.4185 43.4041 62.4185 42.5268V36.8708ZM92.8606 34.5188H105.293V36.8708H92.8606V34.5188ZM92.8606 40.7628H105.293V43.1148H92.8606V40.7628ZM202.947 53.0268C201.062 51.4588 199.568 49.6108 198.467 47.4828C197.384 45.3548 196.843 42.9561 196.843 40.2868C196.843 37.6175 197.384 35.2188 198.467 33.0908C199.568 30.9628 201.062 29.1148 202.947 27.5468L204.739 29.0308C202.966 30.6361 201.668 32.3441 200.847 34.1548C200.026 35.9655 199.615 38.0095 199.615 40.2868C199.615 42.5641 200.026 44.6081 200.847 46.4188C201.668 48.2295 202.966 49.9375 204.739 51.5428L202.947 53.0268ZM212.624 50.0588C212.624 50.6748 212.96 51.1601 213.632 51.5148C214.323 51.8695 215.312 52.0468 216.6 52.0468C217.272 52.0468 217.879 51.9815 218.42 51.8508C218.961 51.7388 219.428 51.5801 219.82 51.3748C220.212 51.1695 220.511 50.9268 220.716 50.6468C220.921 50.3855 221.024 50.1055 221.024 49.8068C221.024 49.2655 220.791 48.9015 220.324 48.7148C219.857 48.5468 219.167 48.4628 218.252 48.4628H216.068C215.62 48.4628 215.219 48.4441 214.864 48.4068C214.528 48.3881 214.229 48.3321 213.968 48.2388C213.483 48.5375 213.137 48.8361 212.932 49.1348C212.727 49.4335 212.624 49.7415 212.624 50.0588ZM209.936 50.4788C209.936 49.9375 210.123 49.4148 210.496 48.9108C210.869 48.4068 211.411 47.9681 212.12 47.5948V47.4828C211.747 47.2775 211.42 46.9881 211.14 46.6148C210.86 46.2415 210.72 45.7655 210.72 45.1868C210.72 44.7201 210.869 44.2628 211.168 43.8148C211.467 43.3481 211.868 42.9375 212.372 42.5828V42.4708C211.887 42.1348 211.467 41.6681 211.112 41.0708C210.776 40.4735 210.608 39.7641 210.608 38.9428C210.608 38.1588 210.757 37.4588 211.056 36.8428C211.373 36.2268 211.784 35.7135 212.288 35.3028C212.811 34.8735 213.408 34.5468 214.08 34.3228C214.771 34.0988 215.499 33.9868 216.264 33.9868C217.085 33.9868 217.804 34.0988 218.42 34.3228H224.048V36.7028H220.828C221.071 36.9828 221.285 37.3281 221.472 37.7388C221.659 38.1308 221.752 38.5695 221.752 39.0548C221.752 39.8201 221.612 40.4921 221.332 41.0708C221.052 41.6495 220.66 42.1348 220.156 42.5268C219.671 42.9188 219.092 43.2175 218.42 43.4228C217.748 43.6095 217.029 43.7028 216.264 43.7028C215.573 43.7028 214.873 43.5815 214.164 43.3388C213.604 43.6935 213.324 44.1135 213.324 44.5988C213.324 45.4761 214.192 45.9148 215.928 45.9148H218.728C220.52 45.9148 221.864 46.1761 222.76 46.6988C223.675 47.2215 224.132 48.0801 224.132 49.2748C224.132 49.9468 223.945 50.5815 223.572 51.1788C223.199 51.7761 222.667 52.2895 221.976 52.7188C221.304 53.1668 220.473 53.5121 219.484 53.7548C218.513 54.0161 217.421 54.1468 216.208 54.1468C215.256 54.1468 214.397 54.0721 213.632 53.9228C212.867 53.7735 212.204 53.5401 211.644 53.2228C211.103 52.9241 210.683 52.5415 210.384 52.0748C210.085 51.6268 209.936 51.0948 209.936 50.4788ZM216.264 41.6868C216.973 41.6868 217.589 41.4535 218.112 40.9868C218.635 40.5015 218.896 39.8201 218.896 38.9428C218.896 38.1028 218.635 37.4401 218.112 36.9548C217.589 36.4508 216.973 36.1988 216.264 36.1988C215.555 36.1988 214.939 36.4508 214.416 36.9548C213.912 37.4401 213.66 38.1028 213.66 38.9428C213.66 39.8201 213.912 40.5015 214.416 40.9868C214.939 41.4535 215.555 41.6868 216.264 41.6868ZM228.629 34.3228H231.289L231.569 37.4308H231.653C232.362 36.3108 233.212 35.4615 234.201 34.8828C235.209 34.2855 236.31 33.9868 237.505 33.9868C238.065 33.9868 238.541 34.0335 238.933 34.1268C239.344 34.2015 239.754 34.3415 240.165 34.5468L239.493 37.2628C239.045 37.1135 238.644 37.0108 238.289 36.9548C237.953 36.8801 237.524 36.8428 237.001 36.8428C236.049 36.8428 235.134 37.1135 234.257 37.6548C233.38 38.1961 232.586 39.1388 231.877 40.4828V48.0708H228.629V34.3228ZM243.514 41.2108C243.514 40.0908 243.71 39.0828 244.102 38.1868C244.513 37.2908 245.045 36.5348 245.698 35.9188C246.352 35.2841 247.098 34.8081 247.938 34.4908C248.797 34.1548 249.674 33.9868 250.57 33.9868C251.597 33.9868 252.502 34.1548 253.286 34.4908C254.089 34.8081 254.761 35.2561 255.302 35.8348C255.844 36.3948 256.254 37.0761 256.534 37.8788C256.814 38.6815 256.954 39.5588 256.954 40.5108C256.954 40.8281 256.936 41.1268 256.898 41.4068C256.88 41.6868 256.852 41.9108 256.814 42.0788H246.818C246.93 43.3108 247.416 44.2628 248.274 44.9348C249.133 45.5881 250.188 45.9148 251.438 45.9148C252.148 45.9148 252.81 45.8215 253.426 45.6348C254.042 45.4295 254.668 45.1495 255.302 44.7948L256.394 46.8108C255.648 47.2775 254.817 47.6601 253.902 47.9588C252.988 48.2575 252.026 48.4068 251.018 48.4068C249.973 48.4068 248.993 48.2481 248.078 47.9308C247.164 47.5948 246.37 47.1188 245.698 46.5028C245.026 45.8868 244.494 45.1401 244.102 44.2628C243.71 43.3668 243.514 42.3495 243.514 41.2108ZM253.986 39.8948C253.986 38.8308 253.706 38.0001 253.146 37.4028C252.586 36.7868 251.756 36.4788 250.654 36.4788C249.721 36.4788 248.89 36.7681 248.162 37.3468C247.434 37.9255 246.977 38.7748 246.79 39.8948H253.986ZM260.303 41.2108C260.303 40.0908 260.499 39.0828 260.891 38.1868C261.302 37.2908 261.834 36.5348 262.487 35.9188C263.141 35.2841 263.887 34.8081 264.727 34.4908C265.586 34.1548 266.463 33.9868 267.359 33.9868C268.386 33.9868 269.291 34.1548 270.075 34.4908C270.878 34.8081 271.55 35.2561 272.091 35.8348C272.633 36.3948 273.043 37.0761 273.323 37.8788C273.603 38.6815 273.743 39.5588 273.743 40.5108C273.743 40.8281 273.725 41.1268 273.687 41.4068C273.669 41.6868 273.641 41.9108 273.603 42.0788H263.607C263.719 43.3108 264.205 44.2628 265.063 44.9348C265.922 45.5881 266.977 45.9148 268.227 45.9148C268.937 45.9148 269.599 45.8215 270.215 45.6348C270.831 45.4295 271.457 45.1495 272.091 44.7948L273.183 46.8108C272.437 47.2775 271.606 47.6601 270.691 47.9588C269.777 48.2575 268.815 48.4068 267.807 48.4068C266.762 48.4068 265.782 48.2481 264.867 47.9308C263.953 47.5948 263.159 47.1188 262.487 46.5028C261.815 45.8868 261.283 45.1401 260.891 44.2628C260.499 43.3668 260.303 42.3495 260.303 41.2108ZM270.775 39.8948C270.775 38.8308 270.495 38.0001 269.935 37.4028C269.375 36.7868 268.545 36.4788 267.443 36.4788C266.51 36.4788 265.679 36.7681 264.951 37.3468C264.223 37.9255 263.766 38.7748 263.579 39.8948H270.775ZM280.676 36.8708H277.008V34.4628L280.816 34.3228L281.236 30.5708H283.896V34.3228H290.168V36.8708H283.896V42.5268C283.896 43.6655 284.13 44.5055 284.596 45.0468C285.063 45.5695 285.884 45.8308 287.06 45.8308C287.658 45.8308 288.199 45.7841 288.684 45.6908C289.17 45.5788 289.636 45.4388 290.084 45.2708L290.7 47.6228C290.084 47.8281 289.403 48.0055 288.656 48.1548C287.91 48.3228 287.116 48.4068 286.276 48.4068C285.231 48.4068 284.354 48.2668 283.644 47.9868C282.935 47.7068 282.356 47.3148 281.908 46.8108C281.479 46.2881 281.162 45.6628 280.956 44.9348C280.77 44.2068 280.676 43.4041 280.676 42.5268V36.8708ZM303.681 53.0268C301.796 51.4588 300.303 49.6108 299.201 47.4828C298.119 45.3548 297.577 42.9561 297.577 40.2868C297.577 37.6175 298.119 35.2188 299.201 33.0908C300.303 30.9628 301.796 29.1148 303.681 27.5468L305.473 29.0308C303.7 30.6361 302.403 32.3441 301.581 34.1548C300.76 35.9655 300.349 38.0095 300.349 40.2868C300.349 42.5641 300.76 44.6081 301.581 46.4188C302.403 48.2295 303.7 49.9375 305.473 51.5428L303.681 53.0268ZM312.406 51.5428C314.18 49.9375 315.477 48.2295 316.298 46.4188C317.12 44.6081 317.53 42.5641 317.53 40.2868C317.53 38.0095 317.12 35.9655 316.298 34.1548C315.477 32.3441 314.18 30.6361 312.406 29.0308L314.198 27.5468C316.084 29.1148 317.568 30.9628 318.65 33.0908C319.752 35.2188 320.302 37.6175 320.302 40.2868C320.302 42.9561 319.752 45.3548 318.65 47.4828C317.568 49.6108 316.084 51.4588 314.198 53.0268L312.406 51.5428ZM329.196 51.5428C330.969 49.9375 332.266 48.2295 333.088 46.4188C333.909 44.6081 334.32 42.5641 334.32 40.2868C334.32 38.0095 333.909 35.9655 333.088 34.1548C332.266 32.3441 330.969 30.6361 329.196 29.0308L330.988 27.5468C332.873 29.1148 334.357 30.9628 335.44 33.0908C336.541 35.2188 337.092 37.6175 337.092 40.2868C337.092 42.9561 336.541 45.3548 335.44 47.4828C334.357 49.6108 332.873 51.4588 330.988 53.0268L329.196 51.5428Z" fill="#2E383C"/>
<path d="M129.575 36.8708H125.907V34.4628L129.715 34.3228L130.135 30.5708H132.795V34.3228H139.067V36.8708H132.795V42.5268C132.795 43.6655 133.028 44.5055 133.495 45.0468C133.961 45.5695 134.783 45.8308 135.959 45.8308C136.556 45.8308 137.097 45.7841 137.583 45.6908C138.068 45.5788 138.535 45.4388 138.983 45.2708L139.599 47.6228C138.983 47.8281 138.301 48.0055 137.555 48.1548C136.808 48.3228 136.015 48.4068 135.175 48.4068C134.129 48.4068 133.252 48.2668 132.543 47.9868C131.833 47.7068 131.255 47.3148 130.807 46.8108C130.377 46.2881 130.06 45.6628 129.855 44.9348C129.668 44.2068 129.575 43.4041 129.575 42.5268V36.8708ZM143.536 50.9268C143.722 50.9828 143.909 51.0295 144.096 51.0668C144.282 51.1041 144.478 51.1228 144.684 51.1228C145.561 51.1228 146.261 50.8988 146.784 50.4508C147.306 50.0215 147.708 49.4615 147.988 48.7708L148.324 47.9028L142.164 34.3228H145.384L148.212 41.0708C148.473 41.6868 148.725 42.3401 148.968 43.0308C149.21 43.7215 149.462 44.4121 149.724 45.1028H149.836C150.041 44.4495 150.265 43.7775 150.508 43.0868C150.75 42.3961 150.984 41.7241 151.208 41.0708L153.7 34.3228H156.752L151.012 48.6868C150.713 49.4708 150.377 50.1708 150.004 50.7868C149.649 51.4028 149.229 51.9255 148.744 52.3548C148.258 52.8028 147.698 53.1388 147.064 53.3628C146.429 53.6055 145.701 53.7268 144.88 53.7268C144.506 53.7268 144.152 53.6988 143.816 53.6428C143.48 53.6055 143.181 53.5401 142.92 53.4468L143.536 50.9268ZM163.377 49.1908V53.5028H160.129V34.3228H162.789L163.041 35.8908H163.125C163.722 35.3495 164.404 34.9015 165.169 34.5468C165.953 34.1735 166.737 33.9868 167.521 33.9868C168.417 33.9868 169.21 34.1548 169.901 34.4908C170.61 34.8081 171.198 35.2748 171.665 35.8908C172.15 36.5068 172.514 37.2441 172.757 38.1028C173.018 38.9615 173.149 39.9228 173.149 40.9868C173.149 42.1628 172.981 43.2175 172.645 44.1508C172.309 45.0655 171.852 45.8401 171.273 46.4748C170.713 47.0908 170.06 47.5668 169.313 47.9028C168.585 48.2388 167.829 48.4068 167.045 48.4068C166.41 48.4068 165.757 48.2668 165.085 47.9868C164.432 47.7068 163.825 47.3055 163.265 46.7828L163.377 49.1908ZM163.377 44.4868C163.881 44.9535 164.394 45.2801 164.917 45.4668C165.458 45.6535 165.944 45.7468 166.373 45.7468C167.362 45.7468 168.184 45.3548 168.837 44.5708C169.49 43.7681 169.817 42.5828 169.817 41.0148C169.817 39.6335 169.565 38.5601 169.061 37.7948C168.557 37.0295 167.745 36.6468 166.625 36.6468C166.102 36.6468 165.57 36.7775 165.029 37.0388C164.488 37.3001 163.937 37.7201 163.377 38.2988V44.4868ZM176.358 41.2108C176.358 40.0908 176.554 39.0828 176.946 38.1868C177.357 37.2908 177.889 36.5348 178.542 35.9188C179.195 35.2841 179.942 34.8081 180.782 34.4908C181.641 34.1548 182.518 33.9868 183.414 33.9868C184.441 33.9868 185.346 34.1548 186.13 34.4908C186.933 34.8081 187.605 35.2561 188.146 35.8348C188.687 36.3948 189.098 37.0761 189.378 37.8788C189.658 38.6815 189.798 39.5588 189.798 40.5108C189.798 40.8281 189.779 41.1268 189.742 41.4068C189.723 41.6868 189.695 41.9108 189.658 42.0788H179.662C179.774 43.3108 180.259 44.2628 181.118 44.9348C181.977 45.5881 183.031 45.9148 184.282 45.9148C184.991 45.9148 185.654 45.8215 186.27 45.6348C186.886 45.4295 187.511 45.1495 188.146 44.7948L189.238 46.8108C188.491 47.2775 187.661 47.6601 186.746 47.9588C185.831 48.2575 184.87 48.4068 183.862 48.4068C182.817 48.4068 181.837 48.2481 180.922 47.9308C180.007 47.5948 179.214 47.1188 178.542 46.5028C177.87 45.8868 177.338 45.1401 176.946 44.2628C176.554 43.3668 176.358 42.3495 176.358 41.2108ZM186.83 39.8948C186.83 38.8308 186.55 38.0001 185.99 37.4028C185.43 36.7868 184.599 36.4788 183.498 36.4788C182.565 36.4788 181.734 36.7681 181.006 37.3468C180.278 37.9255 179.821 38.7748 179.634 39.8948H186.83Z" fill="#0C570A"/>
<path d="M48 118H556V170H48V118Z" fill="#F1F4F8"/>
<path d="M62.4185 142.871H58.7505V140.463L62.5585 140.323L62.9785 136.571H65.6385V140.323H71.9105V142.871H65.6385V148.527C65.6385 149.665 65.8718 150.505 66.3385 151.047C66.8052 151.569 67.6265 151.831 68.8025 151.831C69.3998 151.831 69.9412 151.784 70.4265 151.691C70.9118 151.579 71.3785 151.439 71.8265 151.271L72.4425 153.623C71.8265 153.828 71.1452 154.005 70.3985 154.155C69.6518 154.323 68.8585 154.407 68.0185 154.407C66.9732 154.407 66.0958 154.267 65.3865 153.987C64.6772 153.707 64.0985 153.315 63.6505 152.811C63.2212 152.288 62.9038 151.663 62.6985 150.935C62.5118 150.207 62.4185 149.404 62.4185 148.527V142.871ZM92.8606 140.519H105.293V142.871H92.8606V140.519ZM92.8606 146.763H105.293V149.115H92.8606V146.763ZM202.947 159.027C201.062 157.459 199.568 155.611 198.467 153.483C197.384 151.355 196.843 148.956 196.843 146.287C196.843 143.617 197.384 141.219 198.467 139.091C199.568 136.963 201.062 135.115 202.947 133.547L204.739 135.031C202.966 136.636 201.668 138.344 200.847 140.155C200.026 141.965 199.615 144.009 199.615 146.287C199.615 148.564 200.026 150.608 200.847 152.419C201.668 154.229 202.966 155.937 204.739 157.543L202.947 159.027ZM329.196 157.543C330.969 155.937 332.266 154.229 333.088 152.419C333.909 150.608 334.32 148.564 334.32 146.287C334.32 144.009 333.909 141.965 333.088 140.155C332.266 138.344 330.969 136.636 329.196 135.031L330.988 133.547C332.873 135.115 334.357 136.963 335.44 139.091C336.541 141.219 337.092 143.617 337.092 146.287C337.092 148.956 336.541 151.355 335.44 153.483C334.357 155.611 332.873 157.459 330.988 159.027L329.196 157.543Z" fill="#2E383C"/>
<path d="M129.575 142.871H125.907V140.463L129.715 140.323L130.135 136.571H132.795V140.323H139.067V142.871H132.795V148.527C132.795 149.665 133.028 150.505 133.495 151.047C133.961 151.569 134.783 151.831 135.959 151.831C136.556 151.831 137.097 151.784 137.583 151.691C138.068 151.579 138.535 151.439 138.983 151.271L139.599 153.623C138.983 153.828 138.301 154.005 137.555 154.155C136.808 154.323 136.015 154.407 135.175 154.407C134.129 154.407 133.252 154.267 132.543 153.987C131.833 153.707 131.255 153.315 130.807 152.811C130.377 152.288 130.06 151.663 129.855 150.935C129.668 150.207 129.575 149.404 129.575 148.527V142.871ZM143.536 156.927C143.722 156.983 143.909 157.029 144.096 157.067C144.282 157.104 144.478 157.123 144.684 157.123C145.561 157.123 146.261 156.899 146.784 156.451C147.306 156.021 147.708 155.461 147.988 154.771L148.324 153.903L142.164 140.323H145.384L148.212 147.071C148.473 147.687 148.725 148.34 148.968 149.031C149.21 149.721 149.462 150.412 149.724 151.103H149.836C150.041 150.449 150.265 149.777 150.508 149.087C150.75 148.396 150.984 147.724 151.208 147.071L153.7 140.323H156.752L151.012 154.687C150.713 155.471 150.377 156.171 150.004 156.787C149.649 157.403 149.229 157.925 148.744 158.355C148.258 158.803 147.698 159.139 147.064 159.363C146.429 159.605 145.701 159.727 144.88 159.727C144.506 159.727 144.152 159.699 143.816 159.643C143.48 159.605 143.181 159.54 142.92 159.447L143.536 156.927ZM163.377 155.191V159.503H160.129V140.323H162.789L163.041 141.891H163.125C163.722 141.349 164.404 140.901 165.169 140.547C165.953 140.173 166.737 139.987 167.521 139.987C168.417 139.987 169.21 140.155 169.901 140.491C170.61 140.808 171.198 141.275 171.665 141.891C172.15 142.507 172.514 143.244 172.757 144.103C173.018 144.961 173.149 145.923 173.149 146.987C173.149 148.163 172.981 149.217 172.645 150.151C172.309 151.065 171.852 151.84 171.273 152.475C170.713 153.091 170.06 153.567 169.313 153.903C168.585 154.239 167.829 154.407 167.045 154.407C166.41 154.407 165.757 154.267 165.085 153.987C164.432 153.707 163.825 153.305 163.265 152.783L163.377 155.191ZM163.377 150.487C163.881 150.953 164.394 151.28 164.917 151.467C165.458 151.653 165.944 151.747 166.373 151.747C167.362 151.747 168.184 151.355 168.837 150.571C169.49 149.768 169.817 148.583 169.817 147.015C169.817 145.633 169.565 144.56 169.061 143.795C168.557 143.029 167.745 142.647 166.625 142.647C166.102 142.647 165.57 142.777 165.029 143.039C164.488 143.3 163.937 143.72 163.377 144.299V150.487ZM176.358 147.211C176.358 146.091 176.554 145.083 176.946 144.187C177.357 143.291 177.889 142.535 178.542 141.919C179.195 141.284 179.942 140.808 180.782 140.491C181.641 140.155 182.518 139.987 183.414 139.987C184.441 139.987 185.346 140.155 186.13 140.491C186.933 140.808 187.605 141.256 188.146 141.835C188.687 142.395 189.098 143.076 189.378 143.879C189.658 144.681 189.798 145.559 189.798 146.511C189.798 146.828 189.779 147.127 189.742 147.407C189.723 147.687 189.695 147.911 189.658 148.079H179.662C179.774 149.311 180.259 150.263 181.118 150.935C181.977 151.588 183.031 151.915 184.282 151.915C184.991 151.915 185.654 151.821 186.27 151.635C186.886 151.429 187.511 151.149 188.146 150.795L189.238 152.811C188.491 153.277 187.661 153.66 186.746 153.959C185.831 154.257 184.87 154.407 183.862 154.407C182.817 154.407 181.837 154.248 180.922 153.931C180.007 153.595 179.214 153.119 178.542 152.503C177.87 151.887 177.338 151.14 176.946 150.263C176.554 149.367 176.358 148.349 176.358 147.211ZM186.83 145.895C186.83 144.831 186.55 144 185.99 143.403C185.43 142.787 184.599 142.479 183.498 142.479C182.565 142.479 181.734 142.768 181.006 143.347C180.278 143.925 179.821 144.775 179.634 145.895H186.83Z" fill="#0C570A"/>
<path d="M211.28 138.447L211.196 134.863H215.116L215.032 138.447L214.192 144.915H212.12L211.28 138.447ZM218.196 138.447L218.112 134.863H222.032L221.948 138.447L221.108 144.915H219.036L218.196 138.447ZM227.285 134.303H230.533V139.399L230.337 142.339C230.972 141.704 231.681 141.153 232.465 140.687C233.268 140.22 234.201 139.987 235.265 139.987C236.852 139.987 238.018 140.472 238.765 141.443C239.512 142.395 239.885 143.767 239.885 145.559V154.071H236.637V145.979C236.637 144.859 236.441 144.047 236.049 143.543C235.676 143.02 235.013 142.759 234.061 142.759C233.389 142.759 232.792 142.917 232.269 143.235C231.746 143.552 231.168 144.037 230.533 144.691V154.071H227.285V134.303ZM243.514 147.211C243.514 146.091 243.71 145.083 244.102 144.187C244.513 143.291 245.045 142.535 245.698 141.919C246.352 141.284 247.098 140.808 247.938 140.491C248.797 140.155 249.674 139.987 250.57 139.987C251.597 139.987 252.502 140.155 253.286 140.491C254.089 140.808 254.761 141.256 255.302 141.835C255.844 142.395 256.254 143.076 256.534 143.879C256.814 144.681 256.954 145.559 256.954 146.511C256.954 146.828 256.936 147.127 256.898 147.407C256.88 147.687 256.852 147.911 256.814 148.079H246.818C246.93 149.311 247.416 150.263 248.274 150.935C249.133 151.588 250.188 151.915 251.438 151.915C252.148 151.915 252.81 151.821 253.426 151.635C254.042 151.429 254.668 151.149 255.302 150.795L256.394 152.811C255.648 153.277 254.817 153.66 253.902 153.959C252.988 154.257 252.026 154.407 251.018 154.407C249.973 154.407 248.993 154.248 248.078 153.931C247.164 153.595 246.37 153.119 245.698 152.503C245.026 151.887 244.494 151.14 244.102 150.263C243.71 149.367 243.514 148.349 243.514 147.211ZM253.986 145.895C253.986 144.831 253.706 144 253.146 143.403C252.586 142.787 251.756 142.479 250.654 142.479C249.721 142.479 248.89 142.768 248.162 143.347C247.434 143.925 246.977 144.775 246.79 145.895H253.986ZM260.555 134.303H268.115V149.227C268.115 150.16 268.349 150.823 268.815 151.215C269.282 151.588 269.87 151.775 270.579 151.775C271.251 151.775 272.035 151.597 272.931 151.243L273.687 153.623C273.034 153.847 272.418 154.033 271.839 154.183C271.279 154.332 270.598 154.407 269.795 154.407C268.171 154.407 266.949 153.94 266.127 153.007C265.306 152.073 264.895 150.757 264.895 149.059V136.851H260.555V134.303ZM277.344 134.303H284.904V149.227C284.904 150.16 285.138 150.823 285.604 151.215C286.071 151.588 286.659 151.775 287.368 151.775C288.04 151.775 288.824 151.597 289.72 151.243L290.476 153.623C289.823 153.847 289.207 154.033 288.628 154.183C288.068 154.332 287.387 154.407 286.584 154.407C284.96 154.407 283.738 153.94 282.916 153.007C282.095 152.073 281.684 150.757 281.684 149.059V136.851H277.344V134.303ZM293.629 147.211C293.629 146.072 293.816 145.055 294.189 144.159C294.581 143.263 295.095 142.507 295.729 141.891C296.364 141.275 297.101 140.808 297.941 140.491C298.781 140.155 299.649 139.987 300.545 139.987C301.441 139.987 302.309 140.155 303.149 140.491C303.989 140.808 304.727 141.275 305.361 141.891C305.996 142.507 306.5 143.263 306.873 144.159C307.265 145.055 307.461 146.072 307.461 147.211C307.461 148.349 307.265 149.367 306.873 150.263C306.5 151.159 305.996 151.915 305.361 152.531C304.727 153.147 303.989 153.613 303.149 153.931C302.309 154.248 301.441 154.407 300.545 154.407C299.649 154.407 298.781 154.248 297.941 153.931C297.101 153.613 296.364 153.147 295.729 152.531C295.095 151.915 294.581 151.159 294.189 150.263C293.816 149.367 293.629 148.349 293.629 147.211ZM296.961 147.211C296.961 148.592 297.279 149.703 297.913 150.543C298.548 151.364 299.425 151.775 300.545 151.775C301.665 151.775 302.543 151.364 303.177 150.543C303.812 149.703 304.129 148.592 304.129 147.211C304.129 145.811 303.812 144.7 303.177 143.879C302.543 143.039 301.665 142.619 300.545 142.619C299.425 142.619 298.548 143.039 297.913 143.879C297.279 144.7 296.961 145.811 296.961 147.211ZM312.014 138.447L311.93 134.863H315.85L315.766 138.447L314.926 144.915H312.854L312.014 138.447ZM318.93 138.447L318.846 134.863H322.766L322.682 138.447L321.842 144.915H319.77L318.93 138.447Z" fill="#B82629"/>
<path d="M597.555 48H594.998L598.457 28.0938H601.014L597.555 48ZM606.852 33.1934L606.496 35.0664C607.827 33.6081 609.34 32.8971 611.035 32.9336C612.43 32.9701 613.46 33.4531 614.125 34.3828C614.79 35.3125 615.036 36.6204 614.863 38.3066L613.25 48H610.775L612.402 38.2656C612.457 37.819 612.462 37.4043 612.416 37.0215C612.261 35.7454 611.509 35.0938 610.16 35.0664C608.674 35.0391 607.371 35.832 606.25 37.4453L604.418 48H601.943L604.514 33.207L606.852 33.1934ZM619.744 48H617.283L619.854 33.207H622.314L619.744 48ZM621.781 27.8066C622.201 27.7884 622.547 27.916 622.82 28.1895C623.103 28.4538 623.244 28.8047 623.244 29.2422C623.235 29.6706 623.094 30.0215 622.82 30.2949C622.556 30.5684 622.21 30.7142 621.781 30.7324C621.353 30.7507 621.002 30.6276 620.729 30.3633C620.455 30.099 620.323 29.7526 620.332 29.3242C620.341 28.8958 620.478 28.5404 620.742 28.2578C621.007 27.9753 621.353 27.8249 621.781 27.8066ZM630.326 29.625L629.697 33.207H632.391L632.049 35.1621H629.369L627.824 44.3633C627.797 44.6003 627.792 44.819 627.811 45.0195C627.874 45.7305 628.262 46.0859 628.973 46.0859C629.273 46.0859 629.674 46.0404 630.176 45.9492L629.984 48.0137C629.392 48.1777 628.79 48.2598 628.18 48.2598C627.195 48.2415 626.457 47.8815 625.965 47.1797C625.473 46.4688 625.281 45.5163 625.391 44.3223L626.895 35.1621H624.283L624.625 33.207H627.236L627.865 29.625H630.326ZM635.494 48H633.033L635.604 33.207H638.064L635.494 48ZM637.531 27.8066C637.951 27.7884 638.297 27.916 638.57 28.1895C638.853 28.4538 638.994 28.8047 638.994 29.2422C638.985 29.6706 638.844 30.0215 638.57 30.2949C638.306 30.5684 637.96 30.7142 637.531 30.7324C637.103 30.7507 636.752 30.6276 636.479 30.3633C636.205 30.099 636.073 29.7526 636.082 29.3242C636.091 28.8958 636.228 28.5404 636.492 28.2578C636.757 27.9753 637.103 27.8249 637.531 27.8066ZM648.592 48C648.528 47.7357 648.496 47.4759 648.496 47.2207L648.537 46.4414C647.179 47.6992 645.739 48.3099 644.217 48.2734C642.913 48.2552 641.852 47.8451 641.031 47.043C640.22 46.2318 639.851 45.2201 639.924 44.0078C640.015 42.4401 640.699 41.2188 641.975 40.3438C643.26 39.4596 644.946 39.0176 647.033 39.0176L649.617 39.0312L649.781 37.8555C649.872 36.9714 649.699 36.2741 649.262 35.7637C648.833 35.2441 648.186 34.9753 647.32 34.957C646.473 34.9388 645.721 35.1484 645.064 35.5859C644.417 36.0143 644.021 36.584 643.875 37.2949L641.387 37.3086C641.469 36.4427 641.806 35.6771 642.398 35.0117C642.991 34.3372 643.752 33.8177 644.682 33.4531C645.611 33.0794 646.573 32.9017 647.566 32.9199C649.107 32.9564 650.305 33.4258 651.162 34.3281C652.019 35.2214 652.379 36.4108 652.242 37.8965L651.039 45.2246L650.971 46.2773C650.952 46.7786 651.007 47.2754 651.135 47.7676L651.107 48H648.592ZM644.709 46.0859C645.502 46.1042 646.249 45.9173 646.951 45.5254C647.662 45.1243 648.273 44.5729 648.783 43.8711L649.316 40.8223L647.443 40.8086C645.885 40.8086 644.691 41.0547 643.861 41.5469C643.032 42.0391 642.562 42.7363 642.453 43.6387C642.371 44.3314 642.531 44.9102 642.932 45.375C643.342 45.8307 643.934 46.0677 644.709 46.0859ZM657.15 48H654.689L658.326 27H660.801L657.15 48ZM674.309 46.2227C675.193 46.2409 675.99 45.9857 676.701 45.457C677.412 44.9193 677.877 44.2174 678.096 43.3516L680.434 43.3379C680.297 44.2676 679.923 45.1152 679.312 45.8809C678.711 46.6465 677.95 47.2435 677.029 47.6719C676.109 48.1003 675.165 48.3008 674.199 48.2734C672.969 48.2552 671.925 47.9362 671.068 47.3164C670.221 46.6875 669.596 45.8171 669.195 44.7051C668.794 43.584 668.658 42.3262 668.785 40.9316L668.854 40.248C669.027 38.8262 669.441 37.5547 670.098 36.4336C670.754 35.3125 671.611 34.4421 672.668 33.8223C673.725 33.1934 674.892 32.8971 676.168 32.9336C677.717 32.9701 678.957 33.4896 679.887 34.4922C680.816 35.4948 681.281 36.7663 681.281 38.3066L678.971 38.293C678.952 37.3268 678.684 36.5475 678.164 35.9551C677.645 35.3535 676.943 35.0345 676.059 34.998C674.773 34.9707 673.702 35.4492 672.846 36.4336C671.998 37.418 671.469 38.7943 671.26 40.5625L671.219 40.918C671.164 41.5013 671.155 42.1029 671.191 42.7227C671.255 43.7891 671.556 44.6322 672.094 45.252C672.632 45.8717 673.37 46.1953 674.309 46.2227ZM690.633 32.9336C691.872 32.9518 692.934 33.2891 693.818 33.9453C694.702 34.6016 695.354 35.5085 695.773 36.666C696.202 37.8145 696.348 39.0723 696.211 40.4395L696.184 40.7402C696.01 42.1803 695.582 43.4837 694.898 44.6504C694.215 45.8079 693.331 46.7103 692.246 47.3574C691.161 48.0046 689.972 48.3099 688.678 48.2734C687.447 48.2552 686.385 47.918 685.492 47.2617C684.608 46.6055 683.961 45.7122 683.551 44.582C683.141 43.4518 682.995 42.2077 683.113 40.8496C683.25 39.3184 683.665 37.9421 684.357 36.7207C685.05 35.4993 685.939 34.556 687.023 33.8906C688.117 33.2161 689.32 32.8971 690.633 32.9336ZM685.602 40.8633C685.538 41.4375 685.538 42.0345 685.602 42.6543C685.693 43.7298 686.012 44.5866 686.559 45.2246C687.115 45.8626 687.853 46.1953 688.773 46.2227C689.594 46.25 690.35 46.0495 691.043 45.6211C691.736 45.1836 692.319 44.5273 692.793 43.6523C693.267 42.7773 693.572 41.8066 693.709 40.7402C693.782 39.9017 693.796 39.1953 693.75 38.6211C693.641 37.5182 693.308 36.6478 692.752 36.0098C692.196 35.3717 691.458 35.0345 690.537 34.998C689.261 34.9707 688.176 35.472 687.283 36.502C686.39 37.5319 685.839 38.8809 685.629 40.5488L685.602 40.8633ZM698.768 40.5762C698.95 39.0723 699.365 37.7142 700.012 36.502C700.659 35.2897 701.456 34.3828 702.404 33.7812C703.352 33.1797 704.396 32.8926 705.535 32.9199C707.185 32.9564 708.452 33.5579 709.336 34.7246L710.758 27H713.232L709.596 48H707.34L707.6 46.4141C706.433 47.6901 704.993 48.3099 703.279 48.2734C701.912 48.237 700.823 47.7038 700.012 46.6738C699.201 45.6348 698.763 44.2448 698.699 42.5039C698.672 41.9661 698.695 41.3236 698.768 40.5762ZM701.146 41.998C701.119 43.3014 701.352 44.3132 701.844 45.0332C702.336 45.7533 703.056 46.1224 704.004 46.1406C705.435 46.2044 706.706 45.4844 707.818 43.9805L708.994 37.1445C708.447 35.7956 707.454 35.1029 706.014 35.0664C705.038 35.0391 704.177 35.3353 703.43 35.9551C702.691 36.5658 702.126 37.4271 701.734 38.5391C701.352 39.6419 701.156 40.7949 701.146 41.998ZM719.904 48.2734C718.063 48.237 716.623 47.5579 715.584 46.2363C714.545 44.9147 714.107 43.224 714.271 41.1641L714.34 40.5762C714.495 39.1087 714.928 37.7689 715.639 36.5566C716.359 35.3444 717.234 34.4329 718.264 33.8223C719.294 33.2025 720.406 32.9062 721.6 32.9336C723.122 32.9701 724.316 33.4759 725.182 34.4512C726.048 35.4264 726.521 36.748 726.604 38.416C726.631 39.0085 726.613 39.6009 726.549 40.1934L726.398 41.3281H716.732C716.568 42.668 716.787 43.8073 717.389 44.7461C717.999 45.6849 718.906 46.1725 720.109 46.209C721.568 46.2454 722.917 45.5892 724.156 44.2402L725.578 45.4434C724.958 46.3366 724.156 47.0384 723.172 47.5488C722.197 48.0501 721.107 48.2917 719.904 48.2734ZM721.477 34.998C720.456 34.9707 719.562 35.3171 718.797 36.0371C718.04 36.7572 717.439 37.8281 716.992 39.25L724.184 39.2637L724.238 39.0449C724.384 37.8965 724.197 36.944 723.678 36.1875C723.167 35.4219 722.434 35.0254 721.477 34.998Z" fill="black"/>
<path d="M592.228 158.128C592.228 158.781 592.583 159.304 593.292 159.696C594.02 160.107 595.065 160.312 596.428 160.312C597.156 160.312 597.809 160.237 598.388 160.088C598.985 159.957 599.489 159.771 599.9 159.528C600.329 159.304 600.656 159.043 600.88 158.744C601.104 158.445 601.216 158.128 601.216 157.792C601.216 157.195 600.964 156.793 600.46 156.588C599.975 156.401 599.237 156.308 598.248 156.308H595.84C595.411 156.308 595.028 156.289 594.692 156.252C594.356 156.233 594.039 156.177 593.74 156.084C593.18 156.401 592.788 156.728 592.564 157.064C592.34 157.4 592.228 157.755 592.228 158.128ZM589.876 158.464C589.876 157.923 590.063 157.391 590.436 156.868C590.828 156.364 591.379 155.907 592.088 155.496V155.384C591.715 155.179 591.388 154.899 591.108 154.544C590.828 154.171 590.688 153.695 590.688 153.116C590.688 152.668 590.828 152.22 591.108 151.772C591.407 151.305 591.817 150.895 592.34 150.54V150.428C591.855 150.073 591.444 149.607 591.108 149.028C590.772 148.431 590.604 147.721 590.604 146.9C590.604 146.135 590.753 145.453 591.052 144.856C591.351 144.24 591.752 143.717 592.256 143.288C592.76 142.859 593.339 142.532 593.992 142.308C594.664 142.084 595.373 141.972 596.12 141.972C596.885 141.972 597.576 142.084 598.192 142.308H603.82V144.408H600.404C600.684 144.707 600.936 145.08 601.16 145.528C601.384 145.957 601.496 146.443 601.496 146.984C601.496 147.731 601.356 148.393 601.076 148.972C600.796 149.551 600.413 150.045 599.928 150.456C599.443 150.848 598.873 151.147 598.22 151.352C597.567 151.557 596.867 151.66 596.12 151.66C595.784 151.66 595.42 151.623 595.028 151.548C594.655 151.473 594.281 151.361 593.908 151.212C593.273 151.623 592.956 152.099 592.956 152.64C592.956 153.144 593.189 153.508 593.656 153.732C594.123 153.956 594.795 154.068 595.672 154.068H598.584C600.376 154.068 601.701 154.329 602.56 154.852C603.437 155.356 603.876 156.196 603.876 157.372C603.876 158.025 603.689 158.641 603.316 159.22C602.961 159.799 602.448 160.303 601.776 160.732C601.104 161.18 600.292 161.525 599.34 161.768C598.388 162.029 597.324 162.16 596.148 162.16C594.207 162.16 592.676 161.843 591.556 161.208C590.436 160.592 589.876 159.677 589.876 158.464ZM596.12 149.868C596.904 149.868 597.576 149.607 598.136 149.084C598.696 148.561 598.976 147.833 598.976 146.9C598.976 146.004 598.696 145.285 598.136 144.744C597.576 144.203 596.904 143.932 596.12 143.932C595.336 143.932 594.664 144.203 594.104 144.744C593.544 145.285 593.264 146.004 593.264 146.9C593.264 147.833 593.544 148.561 594.104 149.084C594.664 149.607 595.336 149.868 596.12 149.868ZM608.653 142.308H610.949L611.173 145.5H611.257C611.966 144.38 612.825 143.512 613.833 142.896C614.86 142.28 615.989 141.972 617.221 141.972C617.762 141.972 618.238 142.019 618.649 142.112C619.06 142.187 619.48 142.327 619.909 142.532L619.293 144.912C618.826 144.763 618.425 144.651 618.089 144.576C617.753 144.501 617.324 144.464 616.801 144.464C615.812 144.464 614.86 144.744 613.945 145.304C613.03 145.864 612.19 146.835 611.425 148.216V156H608.653V142.308ZM623.398 149.168C623.398 148.048 623.594 147.049 623.986 146.172C624.378 145.276 624.901 144.52 625.554 143.904C626.207 143.269 626.954 142.793 627.794 142.476C628.634 142.14 629.502 141.972 630.398 141.972C631.406 141.972 632.293 142.131 633.058 142.448C633.842 142.765 634.505 143.213 635.046 143.792C635.587 144.352 635.998 145.033 636.278 145.836C636.558 146.62 636.698 147.488 636.698 148.44C636.698 148.72 636.679 148.991 636.642 149.252C636.623 149.495 636.595 149.7 636.558 149.868H626.254C626.347 151.212 626.842 152.267 627.738 153.032C628.653 153.779 629.801 154.152 631.182 154.152C631.929 154.152 632.619 154.049 633.254 153.844C633.907 153.639 634.542 153.349 635.158 152.976L636.138 154.74C635.429 155.188 634.626 155.571 633.73 155.888C632.853 156.187 631.882 156.336 630.818 156.336C629.791 156.336 628.821 156.177 627.906 155.86C627.01 155.524 626.226 155.048 625.554 154.432C624.882 153.816 624.35 153.069 623.958 152.192C623.585 151.296 623.398 150.288 623.398 149.168ZM634.122 147.964C634.122 146.732 633.805 145.789 633.17 145.136C632.535 144.483 631.63 144.156 630.454 144.156C629.427 144.156 628.513 144.483 627.71 145.136C626.907 145.789 626.413 146.732 626.226 147.964H634.122ZM640.187 149.168C640.187 148.048 640.383 147.049 640.775 146.172C641.167 145.276 641.69 144.52 642.343 143.904C642.997 143.269 643.743 142.793 644.583 142.476C645.423 142.14 646.291 141.972 647.187 141.972C648.195 141.972 649.082 142.131 649.847 142.448C650.631 142.765 651.294 143.213 651.835 143.792C652.377 144.352 652.787 145.033 653.067 145.836C653.347 146.62 653.487 147.488 653.487 148.44C653.487 148.72 653.469 148.991 653.431 149.252C653.413 149.495 653.385 149.7 653.347 149.868H643.043C643.137 151.212 643.631 152.267 644.527 153.032C645.442 153.779 646.59 154.152 647.971 154.152C648.718 154.152 649.409 154.049 650.043 153.844C650.697 153.639 651.331 153.349 651.947 152.976L652.927 154.74C652.218 155.188 651.415 155.571 650.519 155.888C649.642 156.187 648.671 156.336 647.607 156.336C646.581 156.336 645.61 156.177 644.695 155.86C643.799 155.524 643.015 155.048 642.343 154.432C641.671 153.816 641.139 153.069 640.747 152.192C640.374 151.296 640.187 150.288 640.187 149.168ZM650.911 147.964C650.911 146.732 650.594 145.789 649.959 145.136C649.325 144.483 648.419 144.156 647.243 144.156C646.217 144.156 645.302 144.483 644.499 145.136C643.697 145.789 643.202 146.732 643.015 147.964H650.911ZM660.7 144.548H656.948V142.448L660.812 142.308L661.176 138.528H663.472V142.308H669.94V144.548H663.472V150.596C663.472 151.772 663.706 152.649 664.172 153.228C664.658 153.807 665.526 154.096 666.776 154.096C667.374 154.096 667.924 154.049 668.428 153.956C668.951 153.844 669.446 153.695 669.912 153.508L670.472 155.552C669.856 155.757 669.175 155.935 668.428 156.084C667.682 156.252 666.916 156.336 666.132 156.336C665.124 156.336 664.266 156.196 663.556 155.916C662.866 155.636 662.306 155.244 661.876 154.74C661.466 154.236 661.167 153.639 660.98 152.948C660.794 152.239 660.7 151.455 660.7 150.596V144.548ZM683.761 160.928C681.839 159.397 680.327 157.577 679.225 155.468C678.124 153.34 677.573 150.923 677.573 148.216C677.573 145.509 678.124 143.101 679.225 140.992C680.327 138.864 681.839 137.035 683.761 135.504L685.301 136.82C683.472 138.425 682.128 140.152 681.269 142C680.411 143.829 679.981 145.901 679.981 148.216C679.981 150.531 680.411 152.612 681.269 154.46C682.128 156.308 683.472 158.025 685.301 159.612L683.761 160.928ZM692.178 159.612C693.989 158.025 695.324 156.308 696.182 154.46C697.06 152.612 697.498 150.531 697.498 148.216C697.498 145.901 697.06 143.829 696.182 142C695.324 140.152 693.989 138.425 692.178 136.82L693.718 135.504C695.641 137.035 697.153 138.864 698.254 140.992C699.356 143.101 699.906 145.509 699.906 148.216C699.906 150.923 699.356 153.34 698.254 155.468C697.153 157.577 695.641 159.397 693.718 160.928L692.178 159.612Z" fill="#2E383C"/>
<path d="M714.014 156L716.256 143.162H713.973L714.314 141.207H716.584L716.83 139.457C717.067 137.971 717.641 136.809 718.553 135.971C719.51 135.096 720.731 134.667 722.217 134.686C722.682 134.686 723.27 134.763 723.98 134.918L723.68 136.982C723.242 136.891 722.8 136.837 722.354 136.818C721.497 136.818 720.799 137.087 720.262 137.625C719.733 138.154 719.405 138.86 719.277 139.744L719.059 141.207H722.121L721.779 143.162H718.717L716.488 156H714.014ZM731.773 154.537C730.616 155.731 729.144 156.31 727.357 156.273C725.945 156.237 724.896 155.731 724.213 154.756C723.538 153.781 723.288 152.45 723.461 150.764L725.047 141.207H727.521L725.922 150.805C725.876 151.206 725.867 151.598 725.895 151.98C725.94 152.637 726.136 153.152 726.482 153.525C726.829 153.899 727.312 154.1 727.932 154.127C729.7 154.182 731.067 153.466 732.033 151.98L733.893 141.207H736.367L733.797 156H731.459L731.773 154.537ZM742.41 141.193L742.055 143.066C743.385 141.608 744.898 140.897 746.594 140.934C747.988 140.97 749.018 141.453 749.684 142.383C750.349 143.312 750.595 144.62 750.422 146.307L748.809 156H746.334L747.961 146.266C748.016 145.819 748.02 145.404 747.975 145.021C747.82 143.745 747.068 143.094 745.719 143.066C744.233 143.039 742.93 143.832 741.809 145.445L739.977 156H737.502L740.072 141.207L742.41 141.193ZM758.871 154.223C759.755 154.241 760.553 153.986 761.264 153.457C761.975 152.919 762.439 152.217 762.658 151.352L764.996 151.338C764.859 152.268 764.486 153.115 763.875 153.881C763.273 154.646 762.512 155.243 761.592 155.672C760.671 156.1 759.728 156.301 758.762 156.273C757.531 156.255 756.488 155.936 755.631 155.316C754.783 154.688 754.159 153.817 753.758 152.705C753.357 151.584 753.22 150.326 753.348 148.932L753.416 148.248C753.589 146.826 754.004 145.555 754.66 144.434C755.316 143.312 756.173 142.442 757.23 141.822C758.288 141.193 759.454 140.897 760.73 140.934C762.28 140.97 763.52 141.49 764.449 142.492C765.379 143.495 765.844 144.766 765.844 146.307L763.533 146.293C763.515 145.327 763.246 144.548 762.727 143.955C762.207 143.354 761.505 143.035 760.621 142.998C759.336 142.971 758.265 143.449 757.408 144.434C756.561 145.418 756.032 146.794 755.822 148.562L755.781 148.918C755.727 149.501 755.717 150.103 755.754 150.723C755.818 151.789 756.118 152.632 756.656 153.252C757.194 153.872 757.932 154.195 758.871 154.223ZM773.514 137.625L772.885 141.207H775.578L775.236 143.162H772.557L771.012 152.363C770.984 152.6 770.98 152.819 770.998 153.02C771.062 153.73 771.449 154.086 772.16 154.086C772.461 154.086 772.862 154.04 773.363 153.949L773.172 156.014C772.579 156.178 771.978 156.26 771.367 156.26C770.383 156.242 769.645 155.882 769.152 155.18C768.66 154.469 768.469 153.516 768.578 152.322L770.082 143.162H767.471L767.812 141.207H770.424L771.053 137.625H773.514ZM778.682 156H776.221L778.791 141.207H781.252L778.682 156ZM780.719 135.807C781.138 135.788 781.484 135.916 781.758 136.189C782.04 136.454 782.182 136.805 782.182 137.242C782.173 137.671 782.031 138.021 781.758 138.295C781.493 138.568 781.147 138.714 780.719 138.732C780.29 138.751 779.939 138.628 779.666 138.363C779.393 138.099 779.26 137.753 779.27 137.324C779.279 136.896 779.415 136.54 779.68 136.258C779.944 135.975 780.29 135.825 780.719 135.807ZM790.945 140.934C792.185 140.952 793.247 141.289 794.131 141.945C795.015 142.602 795.667 143.508 796.086 144.666C796.514 145.814 796.66 147.072 796.523 148.439L796.496 148.74C796.323 150.18 795.895 151.484 795.211 152.65C794.527 153.808 793.643 154.71 792.559 155.357C791.474 156.005 790.285 156.31 788.99 156.273C787.76 156.255 786.698 155.918 785.805 155.262C784.921 154.605 784.273 153.712 783.863 152.582C783.453 151.452 783.307 150.208 783.426 148.85C783.562 147.318 783.977 145.942 784.67 144.721C785.363 143.499 786.251 142.556 787.336 141.891C788.43 141.216 789.633 140.897 790.945 140.934ZM785.914 148.863C785.85 149.438 785.85 150.035 785.914 150.654C786.005 151.73 786.324 152.587 786.871 153.225C787.427 153.863 788.165 154.195 789.086 154.223C789.906 154.25 790.663 154.049 791.355 153.621C792.048 153.184 792.632 152.527 793.105 151.652C793.579 150.777 793.885 149.807 794.021 148.74C794.094 147.902 794.108 147.195 794.062 146.621C793.953 145.518 793.62 144.648 793.064 144.01C792.508 143.372 791.77 143.035 790.85 142.998C789.574 142.971 788.489 143.472 787.596 144.502C786.702 145.532 786.151 146.881 785.941 148.549L785.914 148.863ZM803.277 141.193L802.922 143.066C804.253 141.608 805.766 140.897 807.461 140.934C808.855 140.97 809.885 141.453 810.551 142.383C811.216 143.312 811.462 144.62 811.289 146.307L809.676 156H807.201L808.828 146.266C808.883 145.819 808.887 145.404 808.842 145.021C808.687 143.745 807.935 143.094 806.586 143.066C805.1 143.039 803.797 143.832 802.676 145.445L800.844 156H798.369L800.939 141.207L803.277 141.193ZM829.555 143.463L828.393 143.34C826.807 143.34 825.558 144.055 824.646 145.486L822.828 156H820.354L822.924 141.207L825.316 141.193L824.947 142.916C825.995 141.54 827.23 140.87 828.652 140.906C828.953 140.906 829.345 140.975 829.828 141.111L829.555 143.463ZM835.803 156.273C833.962 156.237 832.521 155.558 831.482 154.236C830.443 152.915 830.006 151.224 830.17 149.164L830.238 148.576C830.393 147.109 830.826 145.769 831.537 144.557C832.257 143.344 833.132 142.433 834.162 141.822C835.192 141.202 836.304 140.906 837.498 140.934C839.02 140.97 840.214 141.476 841.08 142.451C841.946 143.426 842.42 144.748 842.502 146.416C842.529 147.008 842.511 147.601 842.447 148.193L842.297 149.328H832.631C832.467 150.668 832.686 151.807 833.287 152.746C833.898 153.685 834.805 154.173 836.008 154.209C837.466 154.245 838.815 153.589 840.055 152.24L841.477 153.443C840.857 154.337 840.055 155.038 839.07 155.549C838.095 156.05 837.006 156.292 835.803 156.273ZM837.375 142.998C836.354 142.971 835.461 143.317 834.695 144.037C833.939 144.757 833.337 145.828 832.891 147.25L840.082 147.264L840.137 147.045C840.283 145.896 840.096 144.944 839.576 144.188C839.066 143.422 838.332 143.025 837.375 142.998ZM850.459 137.625L849.83 141.207H852.523L852.182 143.162H849.502L847.957 152.363C847.93 152.6 847.925 152.819 847.943 153.02C848.007 153.73 848.395 154.086 849.105 154.086C849.406 154.086 849.807 154.04 850.309 153.949L850.117 156.014C849.525 156.178 848.923 156.26 848.312 156.26C847.328 156.242 846.59 155.882 846.098 155.18C845.605 154.469 845.414 153.516 845.523 152.322L847.027 143.162H844.416L844.758 141.207H847.369L847.998 137.625H850.459ZM862.34 154.537C861.182 155.731 859.71 156.31 857.924 156.273C856.511 156.237 855.463 155.731 854.779 154.756C854.105 153.781 853.854 152.45 854.027 150.764L855.613 141.207H858.088L856.488 150.805C856.443 151.206 856.434 151.598 856.461 151.98C856.507 152.637 856.702 153.152 857.049 153.525C857.395 153.899 857.878 154.1 858.498 154.127C860.266 154.182 861.633 153.466 862.6 151.98L864.459 141.207H866.934L864.363 156H862.025L862.34 154.537ZM877.27 143.463L876.107 143.34C874.521 143.34 873.273 144.055 872.361 145.486L870.543 156H868.068L870.639 141.207L873.031 141.193L872.662 142.916C873.71 141.54 874.945 140.87 876.367 140.906C876.668 140.906 877.06 140.975 877.543 141.111L877.27 143.463ZM882.301 141.193L881.945 143.066C883.276 141.608 884.789 140.897 886.484 140.934C887.879 140.97 888.909 141.453 889.574 142.383C890.24 143.312 890.486 144.62 890.312 146.307L888.699 156H886.225L887.852 146.266C887.906 145.819 887.911 145.404 887.865 145.021C887.71 143.745 886.958 143.094 885.609 143.066C884.124 143.039 882.82 143.832 881.699 145.445L879.867 156H877.393L879.963 141.207L882.301 141.193ZM901.674 151.994C901.811 150.973 901.25 150.253 899.992 149.834L897.422 149.082C895.253 148.335 894.204 147.095 894.277 145.363C894.341 144.06 894.934 142.993 896.055 142.164C897.185 141.326 898.511 140.915 900.033 140.934C901.528 140.952 902.74 141.389 903.67 142.246C904.609 143.094 905.06 144.201 905.023 145.568L902.562 145.555C902.581 144.816 902.348 144.215 901.865 143.75C901.382 143.285 900.74 143.044 899.938 143.025C899.081 143.007 898.342 143.217 897.723 143.654C897.148 144.064 896.816 144.602 896.725 145.268C896.606 146.124 897.13 146.749 898.297 147.141L899.541 147.482C901.236 147.92 902.439 148.49 903.15 149.191C903.861 149.893 904.189 150.764 904.135 151.803C904.08 152.723 903.779 153.525 903.232 154.209C902.686 154.893 901.956 155.417 901.045 155.781C900.133 156.137 899.163 156.301 898.133 156.273C896.565 156.255 895.271 155.799 894.25 154.906C893.229 154.004 892.737 152.846 892.773 151.434L895.248 151.447C895.248 152.277 895.512 152.942 896.041 153.443C896.57 153.945 897.294 154.195 898.215 154.195C899.117 154.214 899.896 154.027 900.553 153.635C901.209 153.234 901.583 152.687 901.674 151.994ZM922.564 156C922.501 155.736 922.469 155.476 922.469 155.221L922.51 154.441C921.152 155.699 919.712 156.31 918.189 156.273C916.886 156.255 915.824 155.845 915.004 155.043C914.193 154.232 913.824 153.22 913.896 152.008C913.988 150.44 914.671 149.219 915.947 148.344C917.232 147.46 918.919 147.018 921.006 147.018L923.59 147.031L923.754 145.855C923.845 144.971 923.672 144.274 923.234 143.764C922.806 143.244 922.159 142.975 921.293 142.957C920.445 142.939 919.693 143.148 919.037 143.586C918.39 144.014 917.993 144.584 917.848 145.295L915.359 145.309C915.441 144.443 915.779 143.677 916.371 143.012C916.964 142.337 917.725 141.818 918.654 141.453C919.584 141.079 920.546 140.902 921.539 140.92C923.079 140.956 924.278 141.426 925.135 142.328C925.992 143.221 926.352 144.411 926.215 145.896L925.012 153.225L924.943 154.277C924.925 154.779 924.98 155.275 925.107 155.768L925.08 156H922.564ZM918.682 154.086C919.475 154.104 920.222 153.917 920.924 153.525C921.635 153.124 922.245 152.573 922.756 151.871L923.289 148.822L921.416 148.809C919.857 148.809 918.663 149.055 917.834 149.547C917.005 150.039 916.535 150.736 916.426 151.639C916.344 152.331 916.503 152.91 916.904 153.375C917.314 153.831 917.907 154.068 918.682 154.086ZM944.467 151.994C944.604 150.973 944.043 150.253 942.785 149.834L940.215 149.082C938.046 148.335 936.997 147.095 937.07 145.363C937.134 144.06 937.727 142.993 938.848 142.164C939.978 141.326 941.304 140.915 942.826 140.934C944.321 140.952 945.533 141.389 946.463 142.246C947.402 143.094 947.853 144.201 947.816 145.568L945.355 145.555C945.374 144.816 945.141 144.215 944.658 143.75C944.175 143.285 943.533 143.044 942.73 143.025C941.874 143.007 941.135 143.217 940.516 143.654C939.941 144.064 939.609 144.602 939.518 145.268C939.399 146.124 939.923 146.749 941.09 147.141L942.334 147.482C944.029 147.92 945.232 148.49 945.943 149.191C946.654 149.893 946.982 150.764 946.928 151.803C946.873 152.723 946.572 153.525 946.025 154.209C945.479 154.893 944.749 155.417 943.838 155.781C942.926 156.137 941.956 156.301 940.926 156.273C939.358 156.255 938.064 155.799 937.043 154.906C936.022 154.004 935.53 152.846 935.566 151.434L938.041 151.447C938.041 152.277 938.305 152.942 938.834 153.443C939.363 153.945 940.087 154.195 941.008 154.195C941.91 154.214 942.689 154.027 943.346 153.635C944.002 153.234 944.376 152.687 944.467 151.994ZM955.979 137.625L955.35 141.207H958.043L957.701 143.162H955.021L953.477 152.363C953.449 152.6 953.445 152.819 953.463 153.02C953.527 153.73 953.914 154.086 954.625 154.086C954.926 154.086 955.327 154.04 955.828 153.949L955.637 156.014C955.044 156.178 954.443 156.26 953.832 156.26C952.848 156.242 952.109 155.882 951.617 155.18C951.125 154.469 950.934 153.516 951.043 152.322L952.547 143.162H949.936L950.277 141.207H952.889L953.518 137.625H955.979ZM967.668 143.463L966.506 143.34C964.92 143.34 963.671 144.055 962.76 145.486L960.941 156H958.467L961.037 141.207L963.43 141.193L963.061 142.916C964.109 141.54 965.344 140.87 966.766 140.906C967.066 140.906 967.458 140.975 967.941 141.111L967.668 143.463ZM970.471 156H968.01L970.58 141.207H973.041L970.471 156ZM972.508 135.807C972.927 135.788 973.273 135.916 973.547 136.189C973.829 136.454 973.971 136.805 973.971 137.242C973.962 137.671 973.82 138.021 973.547 138.295C973.283 138.568 972.936 138.714 972.508 138.732C972.079 138.751 971.729 138.628 971.455 138.363C971.182 138.099 971.049 137.753 971.059 137.324C971.068 136.896 971.204 136.54 971.469 136.258C971.733 135.975 972.079 135.825 972.508 135.807ZM979.426 141.193L979.07 143.066C980.401 141.608 981.914 140.897 983.609 140.934C985.004 140.97 986.034 141.453 986.699 142.383C987.365 143.312 987.611 144.62 987.438 146.307L985.824 156H983.35L984.977 146.266C985.031 145.819 985.036 145.404 984.99 145.021C984.835 143.745 984.083 143.094 982.734 143.066C981.249 143.039 979.945 143.832 978.824 145.445L976.992 156H974.518L977.088 141.207L979.426 141.193ZM990.363 148.576C990.582 146.963 991.015 145.564 991.662 144.379C992.318 143.185 993.111 142.305 994.041 141.74C994.98 141.166 996.005 140.893 997.117 140.92C998.831 140.956 1000.12 141.604 1001 142.861L1001.49 141.207H1003.76L1001.3 155.686C1001.04 157.572 1000.27 159.081 999.004 160.211C997.737 161.35 996.174 161.893 994.314 161.838C993.312 161.82 992.35 161.583 991.43 161.127C990.518 160.671 989.798 160.047 989.27 159.254L990.678 157.736C991.571 159.058 992.751 159.737 994.219 159.773C995.395 159.81 996.388 159.482 997.199 158.789C998.02 158.096 998.562 157.112 998.826 155.836L999.1 154.523C997.896 155.727 996.488 156.31 994.875 156.273C993.954 156.246 993.152 156 992.469 155.535C991.794 155.061 991.27 154.382 990.896 153.498C990.523 152.605 990.318 151.611 990.281 150.518C990.263 149.98 990.29 149.333 990.363 148.576ZM992.756 149.984C992.729 151.288 992.952 152.299 993.426 153.02C993.909 153.73 994.633 154.104 995.6 154.141C997.076 154.177 998.348 153.452 999.414 151.967L1000.58 145.172C1000.03 143.823 999.04 143.121 997.609 143.066C996.27 143.03 995.167 143.577 994.301 144.707C993.444 145.837 992.938 147.364 992.783 149.287L992.756 149.984Z" fill="black"/>
<path d="M48 224H556V276H48V224Z" fill="#F1F4F8"/>
<path d="M62.4185 248.871H58.7505V246.463L62.5585 246.323L62.9785 242.571H65.6385V246.323H71.9105V248.871H65.6385V254.527C65.6385 255.665 65.8718 256.505 66.3385 257.047C66.8052 257.569 67.6265 257.831 68.8025 257.831C69.3998 257.831 69.9412 257.784 70.4265 257.691C70.9118 257.579 71.3785 257.439 71.8265 257.271L72.4425 259.623C71.8265 259.828 71.1452 260.005 70.3985 260.155C69.6518 260.323 68.8585 260.407 68.0185 260.407C66.9732 260.407 66.0958 260.267 65.3865 259.987C64.6772 259.707 64.0985 259.315 63.6505 258.811C63.2212 258.288 62.9038 257.663 62.6985 256.935C62.5118 256.207 62.4185 255.404 62.4185 254.527V248.871ZM92.8606 246.519H105.293V248.871H92.8606V246.519ZM92.8606 252.763H105.293V255.115H92.8606V252.763Z" fill="#2E383C"/>
<path d="M127.503 256.235C128.287 256.776 129.099 257.205 129.939 257.523C130.797 257.821 131.759 257.971 132.823 257.971C133.905 257.971 134.699 257.821 135.203 257.523C135.707 257.205 135.959 256.804 135.959 256.319C135.959 255.833 135.632 255.432 134.979 255.115C134.325 254.779 133.299 254.424 131.899 254.051C131.245 253.883 130.611 253.677 129.995 253.435C129.379 253.192 128.837 252.912 128.371 252.595C127.904 252.277 127.531 251.913 127.251 251.503C126.971 251.092 126.831 250.625 126.831 250.103C126.831 248.889 127.353 247.9 128.399 247.135C129.444 246.369 130.947 245.987 132.907 245.987C134.027 245.987 135.081 246.173 136.071 246.547C137.06 246.92 137.909 247.34 138.619 247.807L137.135 249.795C136.519 249.384 135.856 249.057 135.147 248.815C134.456 248.553 133.719 248.423 132.935 248.423C131.871 248.423 131.124 248.572 130.695 248.871C130.265 249.151 130.051 249.505 130.051 249.935C130.051 250.177 130.144 250.401 130.331 250.607C130.536 250.793 130.807 250.971 131.143 251.139C131.497 251.288 131.908 251.437 132.375 251.587C132.841 251.736 133.355 251.876 133.915 252.007C134.717 252.212 135.436 252.445 136.071 252.707C136.724 252.949 137.275 253.229 137.723 253.547C138.189 253.864 138.544 254.237 138.787 254.667C139.048 255.096 139.179 255.591 139.179 256.151C139.179 256.748 139.039 257.308 138.759 257.831C138.479 258.335 138.068 258.783 137.527 259.175C136.985 259.548 136.313 259.847 135.511 260.071C134.708 260.295 133.784 260.407 132.739 260.407C131.451 260.407 130.219 260.201 129.043 259.791C127.867 259.38 126.849 258.876 125.991 258.279L127.503 256.235ZM146.364 248.871H142.696V246.463L146.504 246.323L146.924 242.571H149.584V246.323H155.856V248.871H149.584V254.527C149.584 255.665 149.817 256.505 150.284 257.047C150.75 257.569 151.572 257.831 152.748 257.831C153.345 257.831 153.886 257.784 154.372 257.691C154.857 257.579 155.324 257.439 155.772 257.271L156.388 259.623C155.772 259.828 155.09 260.005 154.344 260.155C153.597 260.323 152.804 260.407 151.964 260.407C150.918 260.407 150.041 260.267 149.332 259.987C148.622 259.707 148.044 259.315 147.596 258.811C147.166 258.288 146.849 257.663 146.644 256.935C146.457 256.207 146.364 255.404 146.364 254.527V248.871ZM161.473 246.323H164.133L164.413 249.431H164.497C165.206 248.311 166.056 247.461 167.045 246.883C168.053 246.285 169.154 245.987 170.349 245.987C170.909 245.987 171.385 246.033 171.777 246.127C172.188 246.201 172.598 246.341 173.009 246.547L172.337 249.263C171.889 249.113 171.488 249.011 171.133 248.955C170.797 248.88 170.368 248.843 169.845 248.843C168.893 248.843 167.978 249.113 167.101 249.655C166.224 250.196 165.43 251.139 164.721 252.483V260.071H161.473V246.323Z" fill="#0C570A"/>
<path d="M593.768 250.268H589.932V248.532L593.852 248.392L594.16 244.584H596.064V248.392H602.756V250.268H596.064V256.736C596.064 257.352 596.12 257.893 596.232 258.36C596.344 258.808 596.531 259.191 596.792 259.508C597.053 259.825 597.408 260.068 597.856 260.236C598.304 260.385 598.855 260.46 599.508 260.46C600.161 260.46 600.749 260.404 601.272 260.292C601.795 260.18 602.299 260.031 602.784 259.844L603.288 261.524C602.672 261.748 601.991 261.935 601.244 262.084C600.497 262.252 599.751 262.336 599.004 262.336C598.015 262.336 597.184 262.205 596.512 261.944C595.84 261.664 595.299 261.281 594.888 260.796C594.496 260.292 594.207 259.695 594.02 259.004C593.852 258.313 593.768 257.548 593.768 256.708V250.268ZM607.141 265.752C607.328 265.808 607.524 265.855 607.729 265.892C607.953 265.929 608.168 265.948 608.373 265.948C609.325 265.948 610.1 265.668 610.697 265.108C611.294 264.567 611.761 263.876 612.097 263.036L612.517 262.028L606.161 248.392H608.485L611.817 255.924C612.078 256.521 612.349 257.165 612.629 257.856C612.928 258.547 613.217 259.219 613.497 259.872H613.609C613.852 259.219 614.094 258.556 614.337 257.884C614.598 257.193 614.841 256.54 615.065 255.924L618.033 248.392H620.217L614.225 263.12C613.964 263.792 613.665 264.417 613.329 264.996C612.993 265.575 612.592 266.069 612.125 266.48C611.658 266.909 611.117 267.245 610.501 267.488C609.904 267.731 609.222 267.852 608.457 267.852C607.785 267.852 607.188 267.759 606.665 267.572L607.141 265.752ZM626.478 263.148V267.74H624.182V248.392H626.086L626.282 250.128H626.366C627.001 249.531 627.729 249.036 628.55 248.644C629.39 248.252 630.23 248.056 631.07 248.056C631.985 248.056 632.787 248.224 633.478 248.56C634.187 248.877 634.775 249.344 635.242 249.96C635.727 250.557 636.091 251.285 636.334 252.144C636.577 252.984 636.698 253.936 636.698 255C636.698 256.157 636.53 257.193 636.194 258.108C635.858 259.004 635.401 259.769 634.822 260.404C634.262 261.039 633.609 261.524 632.862 261.86C632.115 262.177 631.331 262.336 630.51 262.336C629.875 262.336 629.185 262.187 628.438 261.888C627.71 261.571 627.038 261.132 626.422 260.572L626.478 263.148ZM626.478 258.808C627.131 259.387 627.785 259.797 628.438 260.04C629.091 260.283 629.651 260.404 630.118 260.404C631.35 260.404 632.358 259.928 633.142 258.976C633.926 258.024 634.318 256.699 634.318 255C634.318 254.253 634.243 253.572 634.094 252.956C633.945 252.34 633.711 251.817 633.394 251.388C633.095 250.94 632.703 250.595 632.218 250.352C631.733 250.109 631.154 249.988 630.482 249.988C629.885 249.988 629.241 250.156 628.55 250.492C627.878 250.809 627.187 251.323 626.478 252.032V258.808ZM640.299 255.224C640.299 254.104 640.495 253.105 640.887 252.228C641.279 251.332 641.793 250.576 642.427 249.96C643.081 249.344 643.818 248.877 644.639 248.56C645.479 248.224 646.338 248.056 647.215 248.056C648.186 248.056 649.054 248.215 649.819 248.532C650.585 248.831 651.229 249.26 651.751 249.82C652.293 250.38 652.703 251.052 652.983 251.836C653.263 252.62 653.403 253.488 653.403 254.44C653.403 254.683 653.394 254.925 653.375 255.168C653.375 255.392 653.357 255.588 653.319 255.756H642.679C642.698 256.484 642.838 257.137 643.099 257.716C643.379 258.295 643.743 258.789 644.191 259.2C644.658 259.611 645.199 259.928 645.815 260.152C646.45 260.376 647.141 260.488 647.887 260.488C648.69 260.488 649.418 260.376 650.071 260.152C650.743 259.928 651.397 259.62 652.031 259.228L652.843 260.74C652.171 261.169 651.406 261.543 650.547 261.86C649.689 262.177 648.709 262.336 647.607 262.336C646.599 262.336 645.647 262.177 644.751 261.86C643.874 261.524 643.099 261.057 642.427 260.46C641.774 259.844 641.251 259.097 640.859 258.22C640.486 257.343 640.299 256.344 640.299 255.224ZM651.275 254.104C651.275 252.741 650.921 251.696 650.211 250.968C649.502 250.24 648.513 249.876 647.243 249.876C646.683 249.876 646.142 249.969 645.619 250.156C645.115 250.343 644.658 250.623 644.247 250.996C643.837 251.351 643.491 251.789 643.211 252.312C642.931 252.835 642.745 253.432 642.651 254.104H651.275ZM667.28 266.928C665.339 265.416 663.799 263.596 662.66 261.468C661.54 259.34 660.98 256.923 660.98 254.216C660.98 251.509 661.54 249.092 662.66 246.964C663.799 244.836 665.339 243.016 667.28 241.504L668.54 242.68C666.655 244.267 665.264 245.993 664.368 247.86C663.491 249.727 663.052 251.845 663.052 254.216C663.052 256.587 663.491 258.705 664.368 260.572C665.264 262.439 666.655 264.165 668.54 265.752L667.28 266.928ZM675.361 265.752C677.247 264.165 678.628 262.439 679.505 260.572C680.401 258.705 680.849 256.587 680.849 254.216C680.849 251.845 680.401 249.727 679.505 247.86C678.628 245.993 677.247 244.267 675.361 242.68L676.621 241.504C678.563 243.016 680.093 244.836 681.213 246.964C682.352 249.092 682.921 251.509 682.921 254.216C682.921 256.923 682.352 259.34 681.213 261.468C680.093 263.596 678.563 265.416 676.621 266.928L675.361 265.752ZM899.437 258.696C900.202 259.256 901.023 259.704 901.901 260.04C902.778 260.376 903.833 260.544 905.065 260.544C906.297 260.544 907.211 260.339 907.809 259.928C908.406 259.517 908.705 259.013 908.705 258.416C908.705 257.893 908.378 257.427 907.725 257.016C907.09 256.605 905.942 256.195 904.281 255.784C903.571 255.616 902.899 255.411 902.265 255.168C901.649 254.925 901.107 254.645 900.641 254.328C900.174 253.992 899.801 253.628 899.521 253.236C899.241 252.844 899.101 252.405 899.101 251.92C899.101 251.379 899.222 250.875 899.465 250.408C899.707 249.923 900.062 249.512 900.529 249.176C901.014 248.821 901.611 248.551 902.321 248.364C903.049 248.159 903.879 248.056 904.813 248.056C905.839 248.056 906.838 248.233 907.809 248.588C908.779 248.924 909.601 249.325 910.273 249.792L909.153 251.276C908.555 250.847 907.893 250.501 907.165 250.24C906.437 249.979 905.653 249.848 904.813 249.848C904.178 249.848 903.646 249.904 903.217 250.016C902.787 250.109 902.442 250.249 902.181 250.436C901.919 250.604 901.733 250.809 901.621 251.052C901.509 251.295 901.453 251.547 901.453 251.808C901.453 252.368 901.835 252.835 902.601 253.208C903.366 253.563 904.365 253.899 905.597 254.216C907.445 254.683 908.807 255.215 909.685 255.812C910.581 256.409 911.029 257.231 911.029 258.276C911.029 258.836 910.898 259.359 910.637 259.844C910.375 260.329 909.983 260.759 909.461 261.132C908.957 261.505 908.322 261.795 907.557 262C906.81 262.224 905.951 262.336 904.981 262.336C903.637 262.336 902.395 262.131 901.257 261.72C900.137 261.291 899.157 260.787 898.317 260.208L899.437 258.696ZM918.858 250.268H915.022V248.532L918.942 248.392L919.25 244.584H921.154V248.392H927.846V250.268H921.154V256.736C921.154 257.352 921.21 257.893 921.322 258.36C921.434 258.808 921.621 259.191 921.882 259.508C922.143 259.825 922.498 260.068 922.946 260.236C923.394 260.385 923.945 260.46 924.598 260.46C925.251 260.46 925.839 260.404 926.362 260.292C926.885 260.18 927.389 260.031 927.874 259.844L928.378 261.524C927.762 261.748 927.081 261.935 926.334 262.084C925.587 262.252 924.841 262.336 924.094 262.336C923.105 262.336 922.274 262.205 921.602 261.944C920.93 261.664 920.389 261.281 919.978 260.796C919.586 260.292 919.297 259.695 919.11 259.004C918.942 258.313 918.858 257.548 918.858 256.708V250.268ZM933.967 248.392H935.871L936.067 251.612H936.151C936.86 250.511 937.728 249.643 938.755 249.008C939.8 248.373 940.958 248.056 942.227 248.056C942.731 248.056 943.198 248.103 943.627 248.196C944.056 248.271 944.486 248.411 944.915 248.616L944.383 250.604C943.898 250.436 943.487 250.315 943.151 250.24C942.834 250.165 942.404 250.128 941.863 250.128C940.836 250.128 939.847 250.427 938.895 251.024C937.962 251.603 937.084 252.601 936.263 254.02V262H933.967V248.392Z" fill="#2E383C"/>
<path d="M697.225 262L699.467 249.162H697.184L697.525 247.207H699.795L700.041 245.457C700.278 243.971 700.852 242.809 701.764 241.971C702.721 241.096 703.942 240.667 705.428 240.686C705.893 240.686 706.48 240.763 707.191 240.918L706.891 242.982C706.453 242.891 706.011 242.837 705.564 242.818C704.708 242.818 704.01 243.087 703.473 243.625C702.944 244.154 702.616 244.86 702.488 245.744L702.27 247.207H705.332L704.99 249.162H701.928L699.699 262H697.225ZM714.984 260.537C713.827 261.731 712.355 262.31 710.568 262.273C709.156 262.237 708.107 261.731 707.424 260.756C706.749 259.781 706.499 258.45 706.672 256.764L708.258 247.207H710.732L709.133 256.805C709.087 257.206 709.078 257.598 709.105 257.98C709.151 258.637 709.347 259.152 709.693 259.525C710.04 259.899 710.523 260.1 711.143 260.127C712.911 260.182 714.278 259.466 715.244 257.98L717.104 247.207H719.578L717.008 262H714.67L714.984 260.537ZM725.621 247.193L725.266 249.066C726.596 247.608 728.109 246.897 729.805 246.934C731.199 246.97 732.229 247.453 732.895 248.383C733.56 249.312 733.806 250.62 733.633 252.307L732.02 262H729.545L731.172 252.266C731.227 251.819 731.231 251.404 731.186 251.021C731.031 249.745 730.279 249.094 728.93 249.066C727.444 249.039 726.141 249.832 725.02 251.445L723.188 262H720.713L723.283 247.207L725.621 247.193ZM742.082 260.223C742.966 260.241 743.764 259.986 744.475 259.457C745.186 258.919 745.65 258.217 745.869 257.352L748.207 257.338C748.07 258.268 747.697 259.115 747.086 259.881C746.484 260.646 745.723 261.243 744.803 261.672C743.882 262.1 742.939 262.301 741.973 262.273C740.742 262.255 739.699 261.936 738.842 261.316C737.994 260.688 737.37 259.817 736.969 258.705C736.568 257.584 736.431 256.326 736.559 254.932L736.627 254.248C736.8 252.826 737.215 251.555 737.871 250.434C738.527 249.312 739.384 248.442 740.441 247.822C741.499 247.193 742.665 246.897 743.941 246.934C745.491 246.97 746.73 247.49 747.66 248.492C748.59 249.495 749.055 250.766 749.055 252.307L746.744 252.293C746.726 251.327 746.457 250.548 745.938 249.955C745.418 249.354 744.716 249.035 743.832 248.998C742.547 248.971 741.476 249.449 740.619 250.434C739.771 251.418 739.243 252.794 739.033 254.562L738.992 254.918C738.938 255.501 738.928 256.103 738.965 256.723C739.029 257.789 739.329 258.632 739.867 259.252C740.405 259.872 741.143 260.195 742.082 260.223ZM756.725 243.625L756.096 247.207H758.789L758.447 249.162H755.768L754.223 258.363C754.195 258.6 754.191 258.819 754.209 259.02C754.273 259.73 754.66 260.086 755.371 260.086C755.672 260.086 756.073 260.04 756.574 259.949L756.383 262.014C755.79 262.178 755.189 262.26 754.578 262.26C753.594 262.242 752.855 261.882 752.363 261.18C751.871 260.469 751.68 259.516 751.789 258.322L753.293 249.162H750.682L751.023 247.207H753.635L754.264 243.625H756.725ZM761.893 262H759.432L762.002 247.207H764.463L761.893 262ZM763.93 241.807C764.349 241.788 764.695 241.916 764.969 242.189C765.251 242.454 765.393 242.805 765.393 243.242C765.383 243.671 765.242 244.021 764.969 244.295C764.704 244.568 764.358 244.714 763.93 244.732C763.501 244.751 763.15 244.628 762.877 244.363C762.604 244.099 762.471 243.753 762.48 243.324C762.49 242.896 762.626 242.54 762.891 242.258C763.155 241.975 763.501 241.825 763.93 241.807ZM774.156 246.934C775.396 246.952 776.458 247.289 777.342 247.945C778.226 248.602 778.878 249.508 779.297 250.666C779.725 251.814 779.871 253.072 779.734 254.439L779.707 254.74C779.534 256.18 779.105 257.484 778.422 258.65C777.738 259.808 776.854 260.71 775.77 261.357C774.685 262.005 773.495 262.31 772.201 262.273C770.971 262.255 769.909 261.918 769.016 261.262C768.132 260.605 767.484 259.712 767.074 258.582C766.664 257.452 766.518 256.208 766.637 254.85C766.773 253.318 767.188 251.942 767.881 250.721C768.574 249.499 769.462 248.556 770.547 247.891C771.641 247.216 772.844 246.897 774.156 246.934ZM769.125 254.863C769.061 255.438 769.061 256.035 769.125 256.654C769.216 257.73 769.535 258.587 770.082 259.225C770.638 259.863 771.376 260.195 772.297 260.223C773.117 260.25 773.874 260.049 774.566 259.621C775.259 259.184 775.842 258.527 776.316 257.652C776.79 256.777 777.096 255.807 777.232 254.74C777.305 253.902 777.319 253.195 777.273 252.621C777.164 251.518 776.831 250.648 776.275 250.01C775.719 249.372 774.981 249.035 774.061 248.998C772.785 248.971 771.7 249.472 770.807 250.502C769.913 251.532 769.362 252.881 769.152 254.549L769.125 254.863ZM786.488 247.193L786.133 249.066C787.464 247.608 788.977 246.897 790.672 246.934C792.066 246.97 793.096 247.453 793.762 248.383C794.427 249.312 794.673 250.62 794.5 252.307L792.887 262H790.412L792.039 252.266C792.094 251.819 792.098 251.404 792.053 251.021C791.898 249.745 791.146 249.094 789.797 249.066C788.311 249.039 787.008 249.832 785.887 251.445L784.055 262H781.58L784.15 247.207L786.488 247.193ZM812.766 249.463L811.604 249.34C810.018 249.34 808.769 250.055 807.857 251.486L806.039 262H803.564L806.135 247.207L808.527 247.193L808.158 248.916C809.206 247.54 810.441 246.87 811.863 246.906C812.164 246.906 812.556 246.975 813.039 247.111L812.766 249.463ZM819.014 262.273C817.173 262.237 815.732 261.558 814.693 260.236C813.654 258.915 813.217 257.224 813.381 255.164L813.449 254.576C813.604 253.109 814.037 251.769 814.748 250.557C815.468 249.344 816.343 248.433 817.373 247.822C818.403 247.202 819.515 246.906 820.709 246.934C822.231 246.97 823.425 247.476 824.291 248.451C825.157 249.426 825.631 250.748 825.713 252.416C825.74 253.008 825.722 253.601 825.658 254.193L825.508 255.328H815.842C815.678 256.668 815.896 257.807 816.498 258.746C817.109 259.685 818.016 260.173 819.219 260.209C820.677 260.245 822.026 259.589 823.266 258.24L824.688 259.443C824.068 260.337 823.266 261.038 822.281 261.549C821.306 262.05 820.217 262.292 819.014 262.273ZM820.586 248.998C819.565 248.971 818.672 249.317 817.906 250.037C817.15 250.757 816.548 251.828 816.102 253.25L823.293 253.264L823.348 253.045C823.493 251.896 823.307 250.944 822.787 250.188C822.277 249.422 821.543 249.025 820.586 248.998ZM833.67 243.625L833.041 247.207H835.734L835.393 249.162H832.713L831.168 258.363C831.141 258.6 831.136 258.819 831.154 259.02C831.218 259.73 831.605 260.086 832.316 260.086C832.617 260.086 833.018 260.04 833.52 259.949L833.328 262.014C832.736 262.178 832.134 262.26 831.523 262.26C830.539 262.242 829.801 261.882 829.309 261.18C828.816 260.469 828.625 259.516 828.734 258.322L830.238 249.162H827.627L827.969 247.207H830.58L831.209 243.625H833.67ZM845.551 260.537C844.393 261.731 842.921 262.31 841.135 262.273C839.722 262.237 838.674 261.731 837.99 260.756C837.316 259.781 837.065 258.45 837.238 256.764L838.824 247.207H841.299L839.699 256.805C839.654 257.206 839.645 257.598 839.672 257.98C839.717 258.637 839.913 259.152 840.26 259.525C840.606 259.899 841.089 260.1 841.709 260.127C843.477 260.182 844.844 259.466 845.811 257.98L847.67 247.207H850.145L847.574 262H845.236L845.551 260.537ZM860.48 249.463L859.318 249.34C857.732 249.34 856.484 250.055 855.572 251.486L853.754 262H851.279L853.85 247.207L856.242 247.193L855.873 248.916C856.921 247.54 858.156 246.87 859.578 246.906C859.879 246.906 860.271 246.975 860.754 247.111L860.48 249.463ZM865.512 247.193L865.156 249.066C866.487 247.608 868 246.897 869.695 246.934C871.09 246.97 872.12 247.453 872.785 248.383C873.451 249.312 873.697 250.62 873.523 252.307L871.91 262H869.436L871.062 252.266C871.117 251.819 871.122 251.404 871.076 251.021C870.921 249.745 870.169 249.094 868.82 249.066C867.335 249.039 866.031 249.832 864.91 251.445L863.078 262H860.604L863.174 247.207L865.512 247.193ZM884.885 257.994C885.021 256.973 884.461 256.253 883.203 255.834L880.633 255.082C878.464 254.335 877.415 253.095 877.488 251.363C877.552 250.06 878.145 248.993 879.266 248.164C880.396 247.326 881.722 246.915 883.244 246.934C884.739 246.952 885.951 247.389 886.881 248.246C887.82 249.094 888.271 250.201 888.234 251.568L885.773 251.555C885.792 250.816 885.559 250.215 885.076 249.75C884.593 249.285 883.951 249.044 883.148 249.025C882.292 249.007 881.553 249.217 880.934 249.654C880.359 250.064 880.027 250.602 879.936 251.268C879.817 252.124 880.341 252.749 881.508 253.141L882.752 253.482C884.447 253.92 885.65 254.49 886.361 255.191C887.072 255.893 887.4 256.764 887.346 257.803C887.291 258.723 886.99 259.525 886.443 260.209C885.896 260.893 885.167 261.417 884.256 261.781C883.344 262.137 882.374 262.301 881.344 262.273C879.776 262.255 878.482 261.799 877.461 260.906C876.44 260.004 875.948 258.846 875.984 257.434L878.459 257.447C878.459 258.277 878.723 258.942 879.252 259.443C879.781 259.945 880.505 260.195 881.426 260.195C882.328 260.214 883.107 260.027 883.764 259.635C884.42 259.234 884.794 258.687 884.885 257.994Z" fill="black"/>
<line y1="-1" x2="57.0013" y2="-1" transform="matrix(-1.99995 -0.014096 5.72439e-07 2 322 62.7064)" stroke="#56B4E9" stroke-width="2"/>
<path d="M262.544 129.414C263.302 130.194 264.569 130.194 265.373 129.414L278.475 116.691C279.279 115.91 279.316 114.645 278.558 113.864C277.8 113.083 276.533 113.083 275.729 113.864L264.083 125.173L253.102 113.864C252.344 113.083 251.078 113.083 250.274 113.864C249.47 114.645 249.432 115.91 250.19 116.691L262.544 129.414ZM264 59.9999L262 128L266 128L268 59.9999L264 59.9999Z" fill="#56B4E9"/>
<line y1="-1" x2="107.001" y2="-1" transform="matrix(-1.99999 -0.00731946 9.40546e-07 2 342 166.786)" stroke="#56B4E9" stroke-width="2"/>
<path d="M150.545 235.414C151.304 236.194 152.57 236.194 153.374 235.414L166.465 222.691C167.269 221.91 167.305 220.644 166.546 219.864C165.787 219.083 164.521 219.083 163.718 219.864L152.081 231.173L141.09 219.864C140.331 219.083 139.065 219.083 138.262 219.864C137.458 220.644 137.422 221.91 138.181 222.691L150.545 235.414ZM152 164L150 234L154 234L156 164L152 164Z" fill="#56B4E9"/>
</svg>
