<svg width="1120" height="284" viewBox="0 0 1120 284" version="1.1" xmlns="http://www.w3.org/2000/svg" xmlns:xlink="http://www.w3.org/1999/xlink">
<title>Frame</title>
<desc>Created using Figma</desc>
<g id="Canvas" transform="matrix(2 0 0 2 264 704)">
<clipPath id="clip-0" clip-rule="evenodd">
<path d="M -132 -352L 428 -352L 428 -210L -132 -210L -132 -352Z" fill="#FFFFFF"/>
</clipPath>
<g id="Frame" clip-path="url(#clip-0)">
<path d="M -132 -352L 428 -352L 428 -210L -132 -210L -132 -352Z" fill="#FFFFFF"/>
<g id="Group">
<g id="Rectangle">
<use xlink:href="#path0_fill" transform="translate(-132 -311)" fill="#F1F4F8"/>
</g>
<g id="bool_not = ~a">
<use xlink:href="#path1_fill" transform="translate(-126 -310)" fill="#2E383C"/>
<use xlink:href="#path2_fill" transform="translate(-126 -310)" fill="#A541F8"/>
</g>
</g>
<g id="Group">
<g id="Rectangle">
<use xlink:href="#path3_stroke" transform="translate(151 -343)"/>
</g>
<g id="False">
<use xlink:href="#path4_fill" transform="translate(152.205 -337.7)" fill="#EB5757"/>
</g>
<g id="Rectangle">
<use xlink:href="#path3_stroke" transform="translate(151 -316.5)"/>
</g>
<g id="True">
<use xlink:href="#path5_fill" transform="translate(152.205 -311.2)" fill="#27AE60"/>
</g>
<g id="Rectangle">
<use xlink:href="#path3_stroke" transform="translate(151 -290)"/>
</g>
<g id="False">
<use xlink:href="#path4_fill" transform="translate(152.205 -284.7)" fill="#EB5757"/>
</g>
<g id="Rectangle">
<use xlink:href="#path3_stroke" transform="translate(151 -263.5)"/>
</g>
<g id="True">
<use xlink:href="#path5_fill" transform="translate(152.205 -258.2)" fill="#27AE60"/>
</g>
<g id="a">
<use xlink:href="#path6_fill" transform="translate(142 -237)" fill="#4F4F4F"/>
</g>
<g id="x">
<use xlink:href="#path7_fill" transform="translate(133 -314)" fill="#828282"/>
</g>
<g id="y">
<use xlink:href="#path8_fill" transform="translate(133 -286)" fill="#828282"/>
</g>
<g id="z">
<use xlink:href="#path9_fill" transform="translate(133 -260)" fill="#828282"/>
</g>
<g id="w">
<use xlink:href="#path10_fill" transform="translate(133 -339)" fill="#828282"/>
</g>
</g>
<g id="Group">
<g id="Rectangle">
<use xlink:href="#path3_stroke" transform="translate(248 -343)"/>
</g>
<g id="True">
<use xlink:href="#path5_fill" transform="translate(249.205 -337.7)" fill="#27AE60"/>
</g>
<g id="Rectangle">
<use xlink:href="#path3_stroke" transform="translate(248 -316.5)"/>
</g>
<g id="False">
<use xlink:href="#path4_fill" transform="translate(249.205 -311.2)" fill="#EB5757"/>
</g>
<g id="Rectangle">
<use xlink:href="#path3_stroke" transform="translate(248 -290)"/>
</g>
<g id="True">
<use xlink:href="#path5_fill" transform="translate(249.205 -284.7)" fill="#27AE60"/>
</g>
<g id="Rectangle">
<use xlink:href="#path3_stroke" transform="translate(248 -263.5)"/>
</g>
<g id="False">
<use xlink:href="#path4_fill" transform="translate(249.205 -258.2)" fill="#EB5757"/>
</g>
<g id="bool_not">
<use xlink:href="#path11_fill" transform="translate(239 -237)" fill="#4F4F4F"/>
</g>
<g id="x">
<use xlink:href="#path7_fill" transform="translate(230 -314)" fill="#828282"/>
</g>
<g id="y">
<use xlink:href="#path8_fill" transform="translate(230 -286)" fill="#828282"/>
</g>
<g id="z">
<use xlink:href="#path9_fill" transform="translate(230 -260)" fill="#828282"/>
</g>
<g id="w">
<use xlink:href="#path10_fill" transform="translate(230 -339)" fill="#828282"/>
</g>
</g>
<g id="~">
<use xlink:href="#path12_fill" transform="translate(123 -338)" fill="#A541F8"/>
</g>
<g id="=">
<use xlink:href="#path13_fill" transform="translate(214 -339)" fill="#A541F8"/>
</g>
<g id="=">
<use xlink:href="#path13_fill" transform="translate(214 -309)" fill="#A541F8"/>
</g>
<g id="=">
<use xlink:href="#path13_fill" transform="translate(214 -283)" fill="#A541F8"/>
</g>
<g id="=">
<use xlink:href="#path13_fill" transform="translate(214 -258)" fill="#A541F8"/>
</g>
<g id="~">
<use xlink:href="#path12_fill" transform="translate(123 -311)" fill="#A541F8"/>
</g>
<g id="~">
<use xlink:href="#path12_fill" transform="translate(123 -285)" fill="#A541F8"/>
</g>
<g id="~">
<use xlink:href="#path12_fill" transform="translate(123 -258)" fill="#A541F8"/>
</g>
<g id="With boolean &#226;&#128;&#152;not&#226;&#128;&#153;, all values are &#226;&#128;&#152;flipped&#226;&#128;&#153;. True becomes False and vice-versa.">
<use xlink:href="#path14_fill" transform="translate(307 -343)"/>
</g>
</g>
</g>
<defs>
<path id="path0_fill" d="M 0 0L 168 0L 168 42L 0 42L 0 0Z"/>
<path id="path1_fill" d="M 1.148 15.116L 2.772 15.116L 2.772 17.664L 2.716 18.868C 3.01467 18.588 3.35067 18.3687 3.724 18.21C 4.09733 18.042 4.47067 17.958 4.844 17.958C 5.292 17.958 5.68867 18.042 6.034 18.21C 6.37933 18.3687 6.67333 18.602 6.916 18.91C 7.15867 19.2087 7.34067 19.5727 7.462 20.002C 7.59267 20.4313 7.658 20.912 7.658 21.444C 7.658 22.032 7.574 22.5593 7.406 23.026C 7.238 23.4833 7.00933 23.8707 6.72 24.188C 6.44 24.5053 6.11333 24.748 5.74 24.916C 5.376 25.084 4.998 25.168 4.606 25.168C 4.27933 25.168 3.93867 25.0887 3.584 24.93C 3.22933 24.7713 2.90267 24.5427 2.604 24.244L 2.562 24.244L 2.422 25L 1.148 25L 1.148 15.116ZM 2.772 23.208C 3.024 23.4413 3.28533 23.6047 3.556 23.698C 3.82667 23.7913 4.06933 23.838 4.284 23.838C 4.76933 23.838 5.17533 23.642 5.502 23.25C 5.82867 22.8487 5.992 22.256 5.992 21.472C 5.992 20.7813 5.866 20.2447 5.614 19.862C 5.362 19.4793 4.956 19.288 4.396 19.288C 4.13467 19.288 3.86867 19.3533 3.598 19.484C 3.32733 19.6147 3.052 19.8247 2.772 20.114L 2.772 23.208ZM 9.13653 21.57C 9.13653 21.0007 9.22986 20.492 9.41653 20.044C 9.61253 19.596 9.8692 19.218 10.1865 18.91C 10.5039 18.602 10.8725 18.3687 11.2925 18.21C 11.7125 18.042 12.1465 17.958 12.5945 17.958C 13.0425 17.958 13.4765 18.042 13.8965 18.21C 14.3165 18.3687 14.6852 18.602 15.0025 18.91C 15.3199 19.218 15.5719 19.596 15.7585 20.044C 15.9545 20.492 16.0525 21.0007 16.0525 21.57C 16.0525 22.1393 15.9545 22.648 15.7585 23.096C 15.5719 23.544 15.3199 23.922 15.0025 24.23C 14.6852 24.538 14.3165 24.7713 13.8965 24.93C 13.4765 25.0887 13.0425 25.168 12.5945 25.168C 12.1465 25.168 11.7125 25.0887 11.2925 24.93C 10.8725 24.7713 10.5039 24.538 10.1865 24.23C 9.8692 23.922 9.61253 23.544 9.41653 23.096C 9.22986 22.648 9.13653 22.1393 9.13653 21.57ZM 10.8025 21.57C 10.8025 22.2607 10.9612 22.816 11.2785 23.236C 11.5959 23.6467 12.0345 23.852 12.5945 23.852C 13.1545 23.852 13.5932 23.6467 13.9105 23.236C 14.2279 22.816 14.3865 22.2607 14.3865 21.57C 14.3865 20.87 14.2279 20.3147 13.9105 19.904C 13.5932 19.484 13.1545 19.274 12.5945 19.274C 12.0345 19.274 11.5959 19.484 11.2785 19.904C 10.9612 20.3147 10.8025 20.87 10.8025 21.57ZM 17.5311 21.57C 17.5311 21.0007 17.6244 20.492 17.8111 20.044C 18.0071 19.596 18.2637 19.218 18.5811 18.91C 18.8984 18.602 19.2671 18.3687 19.6871 18.21C 20.1071 18.042 20.5411 17.958 20.9891 17.958C 21.4371 17.958 21.8711 18.042 22.2911 18.21C 22.7111 18.3687 23.0797 18.602 23.3971 18.91C 23.7144 19.218 23.9664 19.596 24.1531 20.044C 24.3491 20.492 24.4471 21.0007 24.4471 21.57C 24.4471 22.1393 24.3491 22.648 24.1531 23.096C 23.9664 23.544 23.7144 23.922 23.3971 24.23C 23.0797 24.538 22.7111 24.7713 22.2911 24.93C 21.8711 25.0887 21.4371 25.168 20.9891 25.168C 20.5411 25.168 20.1071 25.0887 19.6871 24.93C 19.2671 24.7713 18.8984 24.538 18.5811 24.23C 18.2637 23.922 18.0071 23.544 17.8111 23.096C 17.6244 22.648 17.5311 22.1393 17.5311 21.57ZM 19.1971 21.57C 19.1971 22.2607 19.3557 22.816 19.6731 23.236C 19.9904 23.6467 20.4291 23.852 20.9891 23.852C 21.5491 23.852 21.9877 23.6467 22.3051 23.236C 22.6224 22.816 22.7811 22.2607 22.7811 21.57C 22.7811 20.87 22.6224 20.3147 22.3051 19.904C 21.9877 19.484 21.5491 19.274 20.9891 19.274C 20.4291 19.274 19.9904 19.484 19.6731 19.904C 19.3557 20.3147 19.1971 20.87 19.1971 21.57ZM 26.1776 15.116L 29.9576 15.116L 29.9576 22.578C 29.9576 23.0447 30.0743 23.376 30.3076 23.572C 30.5409 23.7587 30.8349 23.852 31.1896 23.852C 31.5256 23.852 31.9176 23.7633 32.3656 23.586L 32.7436 24.776C 32.4169 24.888 32.1089 24.9813 31.8196 25.056C 31.5396 25.1307 31.1989 25.168 30.7976 25.168C 29.9856 25.168 29.3743 24.9347 28.9636 24.468C 28.5529 24.0013 28.3476 23.3433 28.3476 22.494L 28.3476 16.39L 26.1776 16.39L 26.1776 15.116ZM 41.1381 25.868L 41.1381 27.128L 34.4181 27.128L 34.4181 25.868L 41.1381 25.868ZM 43.1207 18.126L 44.4507 18.126L 44.5767 19.162L 44.6327 19.162C 44.9593 18.8353 45.3187 18.5553 45.7107 18.322C 46.112 18.0793 46.5787 17.958 47.1107 17.958C 47.904 17.958 48.4873 18.2007 48.8607 18.686C 49.234 19.162 49.4207 19.848 49.4207 20.744L 49.4207 25L 47.7967 25L 47.7967 20.954C 47.7967 20.394 47.6987 19.988 47.5027 19.736C 47.316 19.4747 46.9847 19.344 46.5087 19.344C 46.1727 19.344 45.874 19.4233 45.6127 19.582C 45.3513 19.7407 45.062 19.9833 44.7447 20.31L 44.7447 25L 43.1207 25L 43.1207 18.126ZM 51.1092 21.57C 51.1092 21.0007 51.2025 20.492 51.3892 20.044C 51.5852 19.596 51.8419 19.218 52.1592 18.91C 52.4765 18.602 52.8452 18.3687 53.2652 18.21C 53.6852 18.042 54.1192 17.958 54.5672 17.958C 55.0152 17.958 55.4492 18.042 55.8692 18.21C 56.2892 18.3687 56.6579 18.602 56.9752 18.91C 57.2925 19.218 57.5445 19.596 57.7312 20.044C 57.9272 20.492 58.0252 21.0007 58.0252 21.57C 58.0252 22.1393 57.9272 22.648 57.7312 23.096C 57.5445 23.544 57.2925 23.922 56.9752 24.23C 56.6579 24.538 56.2892 24.7713 55.8692 24.93C 55.4492 25.0887 55.0152 25.168 54.5672 25.168C 54.1192 25.168 53.6852 25.0887 53.2652 24.93C 52.8452 24.7713 52.4765 24.538 52.1592 24.23C 51.8419 23.922 51.5852 23.544 51.3892 23.096C 51.2025 22.648 51.1092 22.1393 51.1092 21.57ZM 52.7752 21.57C 52.7752 22.2607 52.9339 22.816 53.2512 23.236C 53.5685 23.6467 54.0072 23.852 54.5672 23.852C 55.1272 23.852 55.5659 23.6467 55.8832 23.236C 56.2005 22.816 56.3592 22.2607 56.3592 21.57C 56.3592 20.87 56.2005 20.3147 55.8832 19.904C 55.5659 19.484 55.1272 19.274 54.5672 19.274C 54.0072 19.274 53.5685 19.484 53.2512 19.904C 52.9339 20.3147 52.7752 20.87 52.7752 21.57ZM 61.4217 19.4L 59.5877 19.4L 59.5877 18.196L 61.4917 18.126L 61.7017 16.25L 63.0317 16.25L 63.0317 18.126L 66.1677 18.126L 66.1677 19.4L 63.0317 19.4L 63.0317 22.228C 63.0317 22.7973 63.1484 23.2173 63.3817 23.488C 63.6151 23.7493 64.0257 23.88 64.6137 23.88C 64.9124 23.88 65.1831 23.8567 65.4257 23.81C 65.6684 23.754 65.9017 23.684 66.1257 23.6L 66.4337 24.776C 66.1257 24.8787 65.7851 24.9673 65.4117 25.042C 65.0384 25.126 64.6417 25.168 64.2217 25.168C 63.6991 25.168 63.2604 25.098 62.9057 24.958C 62.5511 24.818 62.2617 24.622 62.0377 24.37C 61.8231 24.1087 61.6644 23.796 61.5617 23.432C 61.4684 23.068 61.4217 22.6667 61.4217 22.228L 61.4217 19.4ZM 76.6428 18.224L 82.8588 18.224L 82.8588 19.4L 76.6428 19.4L 76.6428 18.224ZM 76.6428 21.346L 82.8588 21.346L 82.8588 22.522L 76.6428 22.522L 76.6428 21.346ZM 101.728 23.152C 101.728 22.7693 101.817 22.4333 101.994 22.144C 102.172 21.8453 102.452 21.5933 102.834 21.388C 103.217 21.1827 103.707 21.0147 104.304 20.884C 104.902 20.7533 105.625 20.66 106.474 20.604C 106.446 20.212 106.306 19.89 106.054 19.638C 105.802 19.386 105.396 19.26 104.836 19.26C 104.444 19.26 104.057 19.3347 103.674 19.484C 103.301 19.624 102.937 19.792 102.582 19.988L 101.994 18.91C 102.414 18.6673 102.895 18.448 103.436 18.252C 103.978 18.056 104.542 17.958 105.13 17.958C 106.092 17.958 106.824 18.2147 107.328 18.728C 107.832 19.232 108.084 19.9647 108.084 20.926L 108.084 25L 106.768 25L 106.642 24.146L 106.6 24.146C 106.236 24.426 105.83 24.6687 105.382 24.874C 104.944 25.07 104.491 25.168 104.024 25.168C 103.688 25.168 103.38 25.1167 103.1 25.014C 102.82 24.9207 102.578 24.7853 102.372 24.608C 102.167 24.4307 102.008 24.2207 101.896 23.978C 101.784 23.726 101.728 23.4507 101.728 23.152ZM 103.282 23.026C 103.282 23.334 103.399 23.558 103.632 23.698C 103.875 23.838 104.169 23.908 104.514 23.908C 104.86 23.908 105.191 23.8333 105.508 23.684C 105.835 23.5253 106.157 23.32 106.474 23.068L 106.474 21.612C 105.858 21.6587 105.345 21.724 104.934 21.808C 104.524 21.8827 104.197 21.9807 103.954 22.102C 103.712 22.2233 103.539 22.3633 103.436 22.522C 103.334 22.6713 103.282 22.8393 103.282 23.026Z"/>
<path id="path2_fill" d="M 93.2358 21.136C 93.5065 20.436 93.8238 19.946 94.1878 19.666C 94.5518 19.3767 94.9345 19.232 95.3358 19.232C 95.6158 19.232 95.8632 19.2927 96.0778 19.414C 96.2925 19.526 96.4932 19.652 96.6798 19.792C 96.8665 19.932 97.0438 20.0627 97.2118 20.184C 97.3892 20.296 97.5758 20.352 97.7718 20.352C 97.9865 20.352 98.1825 20.268 98.3598 20.1C 98.5372 19.932 98.7052 19.624 98.8638 19.176L 99.8438 19.638C 99.5732 20.3287 99.2558 20.8187 98.8918 21.108C 98.5278 21.388 98.1452 21.528 97.7438 21.528C 97.4638 21.528 97.2165 21.472 97.0018 21.36C 96.7872 21.2387 96.5865 21.108 96.3998 20.968C 96.2132 20.828 96.0312 20.702 95.8538 20.59C 95.6858 20.4687 95.5038 20.408 95.3078 20.408C 95.0932 20.408 94.8972 20.4967 94.7198 20.674C 94.5425 20.842 94.3745 21.1453 94.2158 21.584L 93.2358 21.136Z"/>
<path id="path3_stroke" d="M 0 0L 0 -0.5L -0.5 -0.5L -0.5 0L 0 0ZM 53 0L 53.5 0L 53.5 -0.5L 53 -0.5L 53 0ZM 53 26.5L 53 27L 53.5 27L 53.5 26.5L 53 26.5ZM 0 26.5L -0.5 26.5L -0.5 27L 0 27L 0 26.5ZM 0 0.5L 53 0.5L 53 -0.5L 0 -0.5L 0 0.5ZM 52.5 0L 52.5 26.5L 53.5 26.5L 53.5 0L 52.5 0ZM 53 26L 0 26L 0 27L 53 27L 53 26ZM 0.5 26.5L 0.5 0L -0.5 0L -0.5 26.5L 0.5 26.5Z"/>
<path id="path4_fill" d="M 15.6571 8.60449L 11.4804 8.60449L 11.4804 13L 10.1679 13L 10.1679 3.04688L 16.3339 3.04688L 16.3339 4.12695L 11.4804 4.12695L 11.4804 7.53125L 15.6571 7.53125L 15.6571 8.60449ZM 22.0419 13C 21.969 12.8542 21.9097 12.5944 21.8642 12.2207C 21.2763 12.8314 20.5745 13.1367 19.7587 13.1367C 19.0295 13.1367 18.4302 12.9316 17.9608 12.5215C 17.496 12.1068 17.2636 11.5827 17.2636 10.9492C 17.2636 10.179 17.5552 9.58203 18.1386 9.1582C 18.7265 8.72982 19.5513 8.51562 20.6132 8.51562L 21.8437 8.51562L 21.8437 7.93457C 21.8437 7.49251 21.7115 7.1416 21.4472 6.88184C 21.1829 6.61751 20.7932 6.48535 20.2782 6.48535C 19.8271 6.48535 19.4488 6.59928 19.1435 6.82715C 18.8381 7.05501 18.6855 7.33073 18.6855 7.6543L 17.414 7.6543C 17.414 7.28516 17.5439 6.92969 17.8036 6.58789C 18.0679 6.24154 18.4234 5.9681 18.87 5.76758C 19.3212 5.56706 19.8157 5.4668 20.3534 5.4668C 21.2056 5.4668 21.8733 5.68099 22.3564 6.10938C 22.8394 6.5332 23.0901 7.11882 23.1083 7.86621L 23.1083 11.2705C 23.1083 11.9495 23.1949 12.4896 23.3681 12.8906L 23.3681 13L 22.0419 13ZM 19.9433 12.0361C 20.3398 12.0361 20.7157 11.9336 21.0712 11.7285C 21.4267 11.5234 21.6842 11.2568 21.8437 10.9287L 21.8437 9.41113L 20.8524 9.41113C 19.303 9.41113 18.5282 9.86458 18.5282 10.7715C 18.5282 11.168 18.6604 11.4779 18.9247 11.7012C 19.189 11.9245 19.5286 12.0361 19.9433 12.0361ZM 26.4648 13L 25.2001 13L 25.2001 2.5L 26.4648 2.5L 26.4648 13ZM 32.8017 11.0381C 32.8017 10.6963 32.6718 10.432 32.412 10.2451C 32.1568 10.0537 31.7079 9.88965 31.0653 9.75293C 30.4273 9.61621 29.9192 9.45215 29.5409 9.26074C 29.1672 9.06934 28.8892 8.84147 28.7069 8.57715C 28.5292 8.31283 28.4403 7.99837 28.4403 7.63379C 28.4403 7.02767 28.6955 6.51497 29.206 6.0957C 29.7209 5.67643 30.3772 5.4668 31.1747 5.4668C 32.0133 5.4668 32.6923 5.68327 33.2118 6.11621C 33.7359 6.54915 33.998 7.10286 33.998 7.77734L 32.7265 7.77734C 32.7265 7.43099 32.5784 7.13249 32.2821 6.88184C 31.9905 6.63118 31.6213 6.50586 31.1747 6.50586C 30.7144 6.50586 30.3544 6.60612 30.0946 6.80664C 29.8349 7.00716 29.705 7.26921 29.705 7.59277C 29.705 7.89811 29.8258 8.12826 30.0673 8.2832C 30.3088 8.43815 30.7441 8.58626 31.373 8.72754C 32.0064 8.86882 32.5191 9.03743 32.911 9.2334C 33.303 9.42936 33.5924 9.66634 33.7792 9.94434C 33.9706 10.2178 34.0663 10.5527 34.0663 10.9492C 34.0663 11.61 33.802 12.141 33.2733 12.542C 32.7447 12.9385 32.0588 13.1367 31.2157 13.1367C 30.6233 13.1367 30.0992 13.0319 29.6435 12.8223C 29.1877 12.6126 28.83 12.321 28.5702 11.9473C 28.315 11.569 28.1874 11.1611 28.1874 10.7236L 29.4521 10.7236C 29.4748 11.1475 29.6435 11.4847 29.9579 11.7354C 30.2769 11.9814 30.6962 12.1045 31.2157 12.1045C 31.6942 12.1045 32.0771 12.0088 32.3642 11.8174C 32.6558 11.6214 32.8017 11.3617 32.8017 11.0381ZM 38.7831 13.1367C 37.7805 13.1367 36.9648 12.8086 36.3358 12.1523C 35.7069 11.4915 35.3925 10.6097 35.3925 9.50684L 35.3925 9.27441C 35.3925 8.54069 35.5315 7.88672 35.8095 7.3125C 36.092 6.73372 36.484 6.28255 36.9853 5.95898C 37.4911 5.63086 38.038 5.4668 38.6259 5.4668C 39.5875 5.4668 40.3349 5.78353 40.8681 6.41699C 41.4013 7.05046 41.6679 7.95736 41.6679 9.1377L 41.6679 9.66406L 36.6571 9.66406C 36.6754 10.3932 36.8873 10.9834 37.2929 11.4346C 37.703 11.8812 38.2226 12.1045 38.8515 12.1045C 39.2981 12.1045 39.6763 12.0133 39.9862 11.8311C 40.2961 11.6488 40.5673 11.4072 40.7997 11.1064L 41.5722 11.708C 40.9524 12.6605 40.0227 13.1367 38.7831 13.1367ZM 38.6259 6.50586C 38.1155 6.50586 37.6871 6.69271 37.3407 7.06641C 36.9944 7.43555 36.7802 7.95508 36.6982 8.625L 40.4032 8.625L 40.4032 8.5293C 40.3668 7.88672 40.1936 7.38997 39.8837 7.03906C 39.5738 6.68359 39.1545 6.50586 38.6259 6.50586Z"/>
<path id="path5_fill" d="M 19.7655 4.12695L 16.5663 4.12695L 16.5663 13L 15.2607 13L 15.2607 4.12695L 12.0683 4.12695L 12.0683 3.04688L 19.7655 3.04688L 19.7655 4.12695ZM 24.0995 6.73828C 23.9081 6.70638 23.7008 6.69043 23.4774 6.69043C 22.648 6.69043 22.0852 7.04362 21.789 7.75L 21.789 13L 20.5243 13L 20.5243 5.60352L 21.7548 5.60352L 21.7753 6.45801C 22.19 5.7972 22.7779 5.4668 23.539 5.4668C 23.7851 5.4668 23.9719 5.4987 24.0995 5.5625L 24.0995 6.73828ZM 29.8349 12.2686C 29.3427 12.8473 28.6204 13.1367 27.6679 13.1367C 26.8795 13.1367 26.2779 12.9089 25.8632 12.4531C 25.453 11.9928 25.2457 11.3138 25.2411 10.416L 25.2411 5.60352L 26.5058 5.60352L 26.5058 10.3818C 26.5058 11.5029 26.9615 12.0635 27.873 12.0635C 28.8391 12.0635 29.4817 11.7035 29.8007 10.9834L 29.8007 5.60352L 31.0653 5.60352L 31.0653 13L 29.8622 13L 29.8349 12.2686ZM 36.0624 13.1367C 35.0598 13.1367 34.244 12.8086 33.6151 12.1523C 32.9862 11.4915 32.6718 10.6097 32.6718 9.50684L 32.6718 9.27441C 32.6718 8.54069 32.8108 7.88672 33.0888 7.3125C 33.3713 6.73372 33.7633 6.28255 34.2646 5.95898C 34.7704 5.63086 35.3173 5.4668 35.9052 5.4668C 36.8668 5.4668 37.6142 5.78353 38.1474 6.41699C 38.6806 7.05046 38.9472 7.95736 38.9472 9.1377L 38.9472 9.66406L 33.9364 9.66406C 33.9547 10.3932 34.1666 10.9834 34.5722 11.4346C 34.9823 11.8812 35.5019 12.1045 36.1308 12.1045C 36.5774 12.1045 36.9556 12.0133 37.2655 11.8311C 37.5754 11.6488 37.8466 11.4072 38.079 11.1064L 38.8515 11.708C 38.2317 12.6605 37.302 13.1367 36.0624 13.1367ZM 35.9052 6.50586C 35.3948 6.50586 34.9664 6.69271 34.62 7.06641C 34.2737 7.43555 34.0595 7.95508 33.9774 8.625L 37.6825 8.625L 37.6825 8.5293C 37.6461 7.88672 37.4729 7.38997 37.163 7.03906C 36.8531 6.68359 36.4338 6.50586 35.9052 6.50586Z"/>
<path id="path6_fill" d="M 32.6567 12.068C 32.6567 11.676 32.7407 11.3353 32.9087 11.046C 33.0767 10.7473 33.3427 10.4953 33.7067 10.29C 34.0801 10.0847 34.5561 9.92133 35.1347 9.8C 35.7134 9.66933 36.4134 9.58067 37.2347 9.534C 37.1974 9.21667 37.0574 8.96933 36.8147 8.792C 36.5814 8.61467 36.2267 8.526 35.7507 8.526C 35.4147 8.526 35.0741 8.58667 34.7287 8.708C 34.3927 8.82 34.0287 8.974 33.6367 9.17L 32.9087 7.826C 33.3847 7.55533 33.8934 7.33133 34.4347 7.154C 34.9854 6.97667 35.5594 6.888 36.1567 6.888C 37.1274 6.888 37.8927 7.14467 38.4527 7.658C 39.0127 8.17133 39.2927 8.96 39.2927 10.024L 39.2927 14L 37.6127 14L 37.4587 13.216L 37.4027 13.216C 37.0481 13.4867 36.6607 13.7153 36.2407 13.902C 35.8207 14.0793 35.3867 14.168 34.9387 14.168C 34.5841 14.168 34.2667 14.112 33.9867 14C 33.7067 13.8973 33.4687 13.7527 33.2727 13.566C 33.0767 13.37 32.9227 13.146 32.8107 12.894C 32.7081 12.642 32.6567 12.3667 32.6567 12.068ZM 34.6307 11.914C 34.6307 12.138 34.7147 12.306 34.8827 12.418C 35.0601 12.5207 35.2981 12.572 35.5967 12.572C 35.9047 12.572 36.1941 12.5113 36.4647 12.39C 36.7354 12.2593 36.9921 12.1007 37.2347 11.914L 37.2347 10.766C 36.7214 10.794 36.2967 10.8407 35.9607 10.906C 35.6247 10.9713 35.3587 11.0553 35.1627 11.158C 34.9667 11.2513 34.8267 11.3633 34.7427 11.494C 34.6681 11.6247 34.6307 11.7647 34.6307 11.914Z"/>
<path id="path7_fill" d="M 8.46582 8.30371L 10.1064 5.60352L 11.583 5.60352L 9.16309 9.26074L 11.6582 13L 10.1953 13L 8.48633 10.2314L 6.77734 13L 5.30762 13L 7.80273 9.26074L 5.38281 5.60352L 6.8457 5.60352L 8.46582 8.30371Z"/>
<path id="path8_fill" d="M 8.56152 11.1475L 10.2842 5.60352L 11.6377 5.60352L 8.66406 14.1416C 8.20378 15.3721 7.47233 15.9873 6.46973 15.9873L 6.23047 15.9668L 5.75879 15.8779L 5.75879 14.8525L 6.10059 14.8799C 6.52897 14.8799 6.86165 14.7933 7.09863 14.6201C 7.34017 14.4469 7.53841 14.1302 7.69336 13.6699L 7.97363 12.918L 5.33496 5.60352L 6.71582 5.60352L 8.56152 11.1475Z"/>
<path id="path9_fill" d="M 7.17383 11.9678L 11.501 11.9678L 11.501 13L 5.62891 13L 5.62891 12.0703L 9.70996 6.64941L 5.69043 6.64941L 5.69043 5.60352L 11.2959 5.60352L 11.2959 6.49902L 7.17383 11.9678Z"/>
<path id="path10_fill" d="M 10.7422 11.2568L 12.1641 5.60352L 13.4287 5.60352L 11.2754 13L 10.25 13L 8.45215 7.39453L 6.70215 13L 5.67676 13L 3.53027 5.60352L 4.78809 5.60352L 6.24414 11.1406L 7.9668 5.60352L 8.98535 5.60352L 10.7422 11.2568Z"/>
<path id="path11_fill" d="M 3.42987 4.186L 5.48787 4.186L 5.48787 6.594L 5.43188 7.686C 5.70254 7.434 6.00588 7.238 6.34188 7.098C 6.68721 6.958 7.02787 6.888 7.36387 6.888C 7.79321 6.888 8.18054 6.972 8.52587 7.14C 8.88054 7.308 9.17454 7.546 9.40788 7.854C 9.65054 8.15267 9.83721 8.52133 9.96787 8.96C 10.0985 9.38933 10.1639 9.87 10.1639 10.402C 10.1639 10.9993 10.0799 11.5313 9.91188 11.998C 9.74388 12.4647 9.51988 12.8613 9.23987 13.188C 8.95987 13.5053 8.63787 13.748 8.27388 13.916C 7.91921 14.084 7.54587 14.168 7.15387 14.168C 6.82721 14.168 6.50054 14.0887 6.17388 13.93C 5.85654 13.7713 5.55321 13.5427 5.26387 13.244L 5.20788 13.244L 5.03988 14L 3.42987 14L 3.42987 4.186ZM 5.48787 12.026C 5.68387 12.194 5.88454 12.3153 6.08987 12.39C 6.30454 12.4553 6.50521 12.488 6.69188 12.488C 7.07454 12.488 7.39654 12.3293 7.65788 12.012C 7.91921 11.6853 8.04988 11.1627 8.04988 10.444C 8.04988 9.19333 7.62521 8.568 6.77587 8.568C 6.33721 8.568 5.90787 8.78267 5.48787 9.212L 5.48787 12.026ZM 11.4744 10.528C 11.4744 9.94933 11.5724 9.436 11.7684 8.988C 11.9644 8.53067 12.2257 8.148 12.5524 7.84C 12.8884 7.532 13.2664 7.29867 13.6864 7.14C 14.1157 6.972 14.5591 6.888 15.0164 6.888C 15.4737 6.888 15.9124 6.972 16.3324 7.14C 16.7617 7.29867 17.1397 7.532 17.4664 7.84C 17.8024 8.148 18.0684 8.53067 18.2644 8.988C 18.4604 9.436 18.5584 9.94933 18.5584 10.528C 18.5584 11.1067 18.4604 11.6247 18.2644 12.082C 18.0684 12.53 17.8024 12.908 17.4664 13.216C 17.1397 13.524 16.7617 13.762 16.3324 13.93C 15.9124 14.0887 15.4737 14.168 15.0164 14.168C 14.5591 14.168 14.1157 14.0887 13.6864 13.93C 13.2664 13.762 12.8884 13.524 12.5524 13.216C 12.2257 12.908 11.9644 12.53 11.7684 12.082C 11.5724 11.6247 11.4744 11.1067 11.4744 10.528ZM 13.5884 10.528C 13.5884 11.1347 13.7051 11.6153 13.9384 11.97C 14.1811 12.3247 14.5404 12.502 15.0164 12.502C 15.4924 12.502 15.8471 12.3247 16.0804 11.97C 16.3231 11.6153 16.4444 11.1347 16.4444 10.528C 16.4444 9.92133 16.3231 9.44067 16.0804 9.086C 15.8471 8.73133 15.4924 8.554 15.0164 8.554C 14.5404 8.554 14.1811 8.73133 13.9384 9.086C 13.7051 9.44067 13.5884 9.92133 13.5884 10.528ZM 19.8689 10.528C 19.8689 9.94933 19.9669 9.436 20.1629 8.988C 20.3589 8.53067 20.6203 8.148 20.9469 7.84C 21.2829 7.532 21.6609 7.29867 22.0809 7.14C 22.5103 6.972 22.9536 6.888 23.4109 6.888C 23.8683 6.888 24.3069 6.972 24.7269 7.14C 25.1563 7.29867 25.5343 7.532 25.8609 7.84C 26.1969 8.148 26.4629 8.53067 26.6589 8.988C 26.8549 9.436 26.9529 9.94933 26.9529 10.528C 26.9529 11.1067 26.8549 11.6247 26.6589 12.082C 26.4629 12.53 26.1969 12.908 25.8609 13.216C 25.5343 13.524 25.1563 13.762 24.7269 13.93C 24.3069 14.0887 23.8683 14.168 23.4109 14.168C 22.9536 14.168 22.5103 14.0887 22.0809 13.93C 21.6609 13.762 21.2829 13.524 20.9469 13.216C 20.6203 12.908 20.3589 12.53 20.1629 12.082C 19.9669 11.6247 19.8689 11.1067 19.8689 10.528ZM 21.9829 10.528C 21.9829 11.1347 22.0996 11.6153 22.3329 11.97C 22.5756 12.3247 22.9349 12.502 23.4109 12.502C 23.8869 12.502 24.2416 12.3247 24.4749 11.97C 24.7176 11.6153 24.8389 11.1347 24.8389 10.528C 24.8389 9.92133 24.7176 9.44067 24.4749 9.086C 24.2416 8.73133 23.8869 8.554 23.4109 8.554C 22.9349 8.554 22.5756 8.73133 22.3329 9.086C 22.0996 9.44067 21.9829 9.92133 21.9829 10.528ZM 28.4735 4.186L 32.5475 4.186L 32.5475 11.368C 32.5475 11.5827 32.5755 11.7647 32.6315 11.914C 32.6968 12.054 32.7808 12.1707 32.8835 12.264C 32.9955 12.348 33.1168 12.4087 33.2475 12.446C 33.3875 12.4833 33.5275 12.502 33.6675 12.502C 33.8261 12.502 33.9941 12.488 34.1715 12.46C 34.3488 12.4227 34.5448 12.362 34.7595 12.278L 35.2215 13.79C 35.0348 13.846 34.8621 13.8973 34.7035 13.944C 34.5448 13.9907 34.3861 14.028 34.2275 14.056C 34.0688 14.0933 33.9008 14.1213 33.7235 14.14C 33.5461 14.1587 33.3501 14.168 33.1355 14.168C 32.2581 14.168 31.5955 13.9113 31.1475 13.398C 30.7088 12.8753 30.4895 12.1707 30.4895 11.284L 30.4895 5.81L 28.4735 5.81L 28.4735 4.186ZM 43.56 14.756L 43.56 16.296L 36.84 16.296L 36.84 14.756L 43.56 14.756ZM 45.4025 7.056L 47.0825 7.056L 47.2365 7.98L 47.2925 7.98C 47.5912 7.68133 47.9319 7.42467 48.3145 7.21C 48.7065 6.99533 49.1639 6.888 49.6865 6.888C 50.4705 6.888 51.0445 7.14 51.4085 7.644C 51.7725 8.148 51.9545 8.83867 51.9545 9.716L 51.9545 14L 49.8965 14L 49.8965 9.982C 49.8965 9.51533 49.8219 9.17467 49.6725 8.96C 49.5232 8.74533 49.2572 8.638 48.8745 8.638C 48.5945 8.638 48.3472 8.69867 48.1325 8.82C 47.9272 8.94133 47.7032 9.12333 47.4605 9.366L 47.4605 14L 45.4025 14L 45.4025 7.056ZM 53.4471 10.528C 53.4471 9.94933 53.5451 9.436 53.7411 8.988C 53.9371 8.53067 54.1984 8.148 54.5251 7.84C 54.8611 7.532 55.2391 7.29867 55.6591 7.14C 56.0884 6.972 56.5317 6.888 56.9891 6.888C 57.4464 6.888 57.8851 6.972 58.3051 7.14C 58.7344 7.29867 59.1124 7.532 59.4391 7.84C 59.7751 8.148 60.0411 8.53067 60.2371 8.988C 60.4331 9.436 60.5311 9.94933 60.5311 10.528C 60.5311 11.1067 60.4331 11.6247 60.2371 12.082C 60.0411 12.53 59.7751 12.908 59.4391 13.216C 59.1124 13.524 58.7344 13.762 58.3051 13.93C 57.8851 14.0887 57.4464 14.168 56.9891 14.168C 56.5317 14.168 56.0884 14.0887 55.6591 13.93C 55.2391 13.762 54.8611 13.524 54.5251 13.216C 54.1984 12.908 53.9371 12.53 53.7411 12.082C 53.5451 11.6247 53.4471 11.1067 53.4471 10.528ZM 55.5611 10.528C 55.5611 11.1347 55.6777 11.6153 55.9111 11.97C 56.1537 12.3247 56.5131 12.502 56.9891 12.502C 57.4651 12.502 57.8197 12.3247 58.0531 11.97C 58.2957 11.6153 58.4171 11.1347 58.4171 10.528C 58.4171 9.92133 58.2957 9.44067 58.0531 9.086C 57.8197 8.73133 57.4651 8.554 56.9891 8.554C 56.5131 8.554 56.1537 8.73133 55.9111 9.086C 55.6777 9.44067 55.5611 9.92133 55.5611 10.528ZM 63.6196 8.666L 61.8696 8.666L 61.8696 7.14L 63.7176 7.056L 63.9836 5.208L 65.6776 5.208L 65.6776 7.056L 68.6176 7.056L 68.6176 8.666L 65.6776 8.666L 65.6776 11.102C 65.6776 11.634 65.7943 12.012 66.0276 12.236C 66.2609 12.4507 66.6296 12.558 67.1336 12.558C 67.4043 12.558 67.6516 12.5347 67.8756 12.488C 68.0996 12.4413 68.3143 12.3807 68.5196 12.306L 68.8836 13.79C 68.5756 13.8833 68.2303 13.9673 67.8476 14.042C 67.4743 14.126 67.0636 14.168 66.6156 14.168C 66.0649 14.168 65.5983 14.0933 65.2156 13.944C 64.8329 13.7947 64.5203 13.5893 64.2776 13.328C 64.0443 13.0573 63.8763 12.7353 63.7736 12.362C 63.6709 11.9887 63.6196 11.5733 63.6196 11.116L 63.6196 8.666Z"/>
<path id="path12_fill" d="M 0.896 9.136C 1.16667 8.436 1.484 7.946 1.848 7.666C 2.212 7.37667 2.59467 7.232 2.996 7.232C 3.276 7.232 3.52333 7.29267 3.738 7.414C 3.95267 7.526 4.15333 7.652 4.34 7.792C 4.52667 7.932 4.704 8.06267 4.872 8.184C 5.04933 8.296 5.236 8.352 5.432 8.352C 5.64667 8.352 5.84267 8.268 6.02 8.1C 6.19733 7.932 6.36533 7.624 6.524 7.176L 7.504 7.638C 7.23333 8.32867 6.916 8.81867 6.552 9.108C 6.188 9.388 5.80533 9.528 5.404 9.528C 5.124 9.528 4.87667 9.472 4.662 9.36C 4.44733 9.23867 4.24667 9.108 4.06 8.968C 3.87333 8.828 3.69133 8.702 3.514 8.59C 3.346 8.46867 3.164 8.408 2.968 8.408C 2.75333 8.408 2.55733 8.49667 2.38 8.674C 2.20267 8.842 2.03467 9.14533 1.876 9.584L 0.896 9.136Z"/>
<path id="path13_fill" d="M 1.092 6.224L 7.308 6.224L 7.308 7.4L 1.092 7.4L 1.092 6.224ZM 1.092 9.346L 7.308 9.346L 7.308 10.522L 1.092 10.522L 1.092 9.346Z"/>
<path id="path14_fill" d="M 6.82227 20.9307L 6.79492 22.1338L 7.25977 20.958L 10.2334 14.0469L 11.3203 14.0469L 12.1064 21.0469L 12.1748 22.1816L 12.6055 20.8076L 15.1484 14.0469L 16.4678 14.0469L 12.5713 24L 11.4023 24L 10.541 16.6924L 10.5137 16.0088L 10.2266 16.8018L 7.05469 24L 5.88574 24L 5.10645 14.0469L 6.35742 14.0469L 6.82227 20.9307ZM 17.4385 24L 16.208 24L 17.4932 16.6035L 18.7236 16.6035L 17.4385 24ZM 18.457 13.9033C 18.6667 13.8942 18.8398 13.958 18.9766 14.0947C 19.1178 14.2269 19.1885 14.4023 19.1885 14.6211C 19.1839 14.8353 19.1133 15.0107 18.9766 15.1475C 18.8444 15.2842 18.6712 15.3571 18.457 15.3662C 18.2428 15.3753 18.0674 15.3138 17.9307 15.1816C 17.7939 15.0495 17.7279 14.8763 17.7324 14.6621C 17.737 14.4479 17.8053 14.2702 17.9375 14.1289C 18.0697 13.9876 18.2428 13.9124 18.457 13.9033ZM 22.7295 14.8125L 22.415 16.6035L 23.7617 16.6035L 23.5908 17.5811L 22.251 17.5811L 21.4785 22.1816C 21.4648 22.3001 21.4626 22.4095 21.4717 22.5098C 21.5036 22.8652 21.6973 23.043 22.0527 23.043C 22.2031 23.043 22.4036 23.0202 22.6543 22.9746L 22.5586 24.0068C 22.2624 24.0889 21.9616 24.1299 21.6562 24.1299C 21.1641 24.1208 20.7949 23.9408 20.5488 23.5898C 20.3027 23.2344 20.207 22.7581 20.2617 22.1611L 21.0137 17.5811L 19.708 17.5811L 19.8789 16.6035L 21.1846 16.6035L 21.499 14.8125L 22.7295 14.8125ZM 26.2842 17.5059C 26.9313 16.7995 27.6764 16.4554 28.5195 16.4736C 29.2122 16.4827 29.7249 16.722 30.0576 17.1914C 30.3949 17.6562 30.5202 18.3102 30.4336 19.1533L 29.627 24L 28.3896 24L 29.2031 19.1328C 29.2305 18.9095 29.2327 18.7021 29.21 18.5107C 29.1325 17.8727 28.7565 17.5469 28.082 17.5332C 27.3255 17.515 26.6738 17.9115 26.127 18.7227L 25.2109 24L 23.9736 24L 25.7988 13.5L 27.0361 13.5L 26.2842 17.5059ZM 41.665 20.3359C 41.5739 21.0924 41.3665 21.7738 41.043 22.3799C 40.7194 22.986 40.3275 23.4349 39.8672 23.7266C 39.4069 24.0182 38.8965 24.1572 38.3359 24.1436C 37.4427 24.1253 36.7796 23.7904 36.3467 23.1387L 36.0938 24L 34.9521 24L 36.7773 13.5L 38.0146 13.5L 37.2695 17.4238C 37.862 16.7676 38.582 16.4486 39.4297 16.4668C 40.1406 16.485 40.6943 16.7471 41.0908 17.2529C 41.4873 17.7588 41.6969 18.4561 41.7197 19.3447C 41.7243 19.6364 41.7106 19.9189 41.6787 20.1924L 41.665 20.3359ZM 40.4893 19.6182C 40.5029 18.9528 40.3913 18.4447 40.1543 18.0938C 39.9173 17.7383 39.555 17.5514 39.0674 17.5332C 38.2972 17.515 37.6455 17.9023 37.1123 18.6953L 36.5586 21.915C 36.832 22.667 37.3447 23.0521 38.0967 23.0703C 38.5798 23.0885 39.0013 22.945 39.3613 22.6396C 39.7259 22.3343 40.0016 21.9082 40.1885 21.3613C 40.3753 20.8099 40.4756 20.2288 40.4893 19.6182ZM 46.7578 16.4668C 47.3776 16.4759 47.9085 16.6445 48.3506 16.9727C 48.7926 17.3008 49.1185 17.7542 49.3281 18.333C 49.5423 18.9072 49.6152 19.5361 49.5469 20.2197L 49.5332 20.3701C 49.4466 21.0902 49.2324 21.7419 48.8906 22.3252C 48.5488 22.904 48.1068 23.3551 47.5645 23.6787C 47.0221 24.0023 46.4274 24.1549 45.7803 24.1367C 45.165 24.1276 44.6341 23.959 44.1875 23.6309C 43.7454 23.3027 43.4219 22.8561 43.2168 22.291C 43.0117 21.7259 42.9388 21.1038 42.998 20.4248C 43.0664 19.6592 43.2738 18.971 43.6201 18.3604C 43.9665 17.7497 44.4108 17.278 44.9531 16.9453C 45.5 16.6081 46.1016 16.4486 46.7578 16.4668ZM 44.2422 20.4316C 44.2103 20.7188 44.2103 21.0173 44.2422 21.3271C 44.2878 21.8649 44.4473 22.2933 44.7207 22.6123C 44.9987 22.9313 45.3678 23.0977 45.8281 23.1113C 46.2383 23.125 46.6165 23.0247 46.9629 22.8105C 47.3092 22.5918 47.6009 22.2637 47.8379 21.8262C 48.0749 21.3887 48.2275 20.9033 48.2959 20.3701C 48.3324 19.9508 48.3392 19.5977 48.3164 19.3105C 48.2617 18.7591 48.0954 18.3239 47.8174 18.0049C 47.5394 17.6859 47.1702 17.5173 46.71 17.499C 46.0719 17.4854 45.5296 17.736 45.083 18.251C 44.6364 18.766 44.3607 19.4404 44.2559 20.2744L 44.2422 20.4316ZM 54.5781 16.4668C 55.1979 16.4759 55.7288 16.6445 56.1709 16.9727C 56.613 17.3008 56.9388 17.7542 57.1484 18.333C 57.3626 18.9072 57.4355 19.5361 57.3672 20.2197L 57.3535 20.3701C 57.2669 21.0902 57.0527 21.7419 56.7109 22.3252C 56.3691 22.904 55.9271 23.3551 55.3848 23.6787C 54.8424 24.0023 54.2477 24.1549 53.6006 24.1367C 52.9854 24.1276 52.4544 23.959 52.0078 23.6309C 51.5658 23.3027 51.2422 22.8561 51.0371 22.291C 50.832 21.7259 50.7591 21.1038 50.8184 20.4248C 50.8867 19.6592 51.0941 18.971 51.4404 18.3604C 51.7868 17.7497 52.2311 17.278 52.7734 16.9453C 53.3203 16.6081 53.9219 16.4486 54.5781 16.4668ZM 52.0625 20.4316C 52.0306 20.7188 52.0306 21.0173 52.0625 21.3271C 52.1081 21.8649 52.2676 22.2933 52.541 22.6123C 52.819 22.9313 53.1882 23.0977 53.6484 23.1113C 54.0586 23.125 54.4368 23.0247 54.7832 22.8105C 55.1296 22.5918 55.4212 22.2637 55.6582 21.8262C 55.8952 21.3887 56.0479 20.9033 56.1162 20.3701C 56.1527 19.9508 56.1595 19.5977 56.1367 19.3105C 56.082 18.7591 55.9157 18.3239 55.6377 18.0049C 55.3597 17.6859 54.9906 17.5173 54.5303 17.499C 53.8923 17.4854 53.3499 17.736 52.9033 18.251C 52.4567 18.766 52.181 19.4404 52.0762 20.2744L 52.0625 20.4316ZM 59.6299 24L 58.3994 24L 60.2178 13.5L 61.4551 13.5L 59.6299 24ZM 64.8525 24.1367C 63.932 24.1185 63.2119 23.779 62.6924 23.1182C 62.1729 22.4574 61.9541 21.612 62.0361 20.582L 62.0703 20.2881C 62.1478 19.5544 62.3643 18.8844 62.7197 18.2783C 63.0798 17.6722 63.5173 17.2165 64.0322 16.9111C 64.5472 16.6012 65.1032 16.4531 65.7002 16.4668C 66.4613 16.485 67.0583 16.738 67.4912 17.2256C 67.9242 17.7132 68.1611 18.374 68.2021 19.208C 68.2158 19.5042 68.2067 19.8005 68.1748 20.0967L 68.0996 20.6641L 63.2666 20.6641C 63.1846 21.334 63.2939 21.9036 63.5947 22.373C 63.9001 22.8424 64.3535 23.0863 64.9551 23.1045C 65.6842 23.1227 66.3587 22.7946 66.9785 22.1201L 67.6895 22.7217C 67.3796 23.1683 66.9785 23.5192 66.4863 23.7744C 65.9987 24.0251 65.4541 24.1458 64.8525 24.1367ZM 65.6387 17.499C 65.1283 17.4854 64.6816 17.6585 64.2988 18.0186C 63.9206 18.3786 63.6198 18.9141 63.3965 19.625L 66.9922 19.6318L 67.0195 19.5225C 67.0924 18.9482 66.999 18.472 66.7393 18.0938C 66.484 17.7109 66.1172 17.5127 65.6387 17.499ZM 73.4385 24C 73.4066 23.8678 73.3906 23.738 73.3906 23.6104L 73.4111 23.2207C 72.7321 23.8496 72.012 24.1549 71.251 24.1367C 70.5993 24.1276 70.0684 23.9225 69.6582 23.5215C 69.2526 23.1159 69.068 22.61 69.1045 22.0039C 69.1501 21.2201 69.4919 20.6094 70.1299 20.1719C 70.7725 19.7298 71.6156 19.5088 72.6592 19.5088L 73.9512 19.5156L 74.0332 18.9277C 74.0788 18.4857 73.9922 18.137 73.7734 17.8818C 73.5592 17.6221 73.2357 17.4876 72.8027 17.4785C 72.3789 17.4694 72.0029 17.5742 71.6748 17.793C 71.3512 18.0072 71.153 18.292 71.0801 18.6475L 69.8359 18.6543C 69.877 18.2214 70.0456 17.8385 70.3418 17.5059C 70.638 17.1686 71.0186 16.9089 71.4834 16.7266C 71.9482 16.5397 72.429 16.4508 72.9258 16.46C 73.696 16.4782 74.2952 16.7129 74.7236 17.1641C 75.152 17.6107 75.332 18.2054 75.2637 18.9482L 74.6621 22.6123L 74.6279 23.1387C 74.6188 23.3893 74.6462 23.6377 74.71 23.8838L 74.6963 24L 73.4385 24ZM 71.4971 23.043C 71.8936 23.0521 72.2673 22.9587 72.6182 22.7627C 72.9736 22.5622 73.279 22.2865 73.5342 21.9355L 73.8008 20.4111L 72.8643 20.4043C 72.085 20.4043 71.488 20.5273 71.0732 20.7734C 70.6585 21.0195 70.4238 21.3682 70.3691 21.8193C 70.3281 22.1657 70.4079 22.4551 70.6084 22.6875C 70.8135 22.9154 71.1097 23.0339 71.4971 23.043ZM 78.832 16.5967L 78.6543 17.5332C 79.3197 16.804 80.0762 16.4486 80.9238 16.4668C 81.6211 16.485 82.1361 16.7266 82.4688 17.1914C 82.8014 17.6562 82.9245 18.3102 82.8379 19.1533L 82.0312 24L 80.7939 24L 81.6074 19.1328C 81.6348 18.9095 81.637 18.7021 81.6143 18.5107C 81.5368 17.8727 81.1608 17.5469 80.4863 17.5332C 79.7435 17.5195 79.0918 17.916 78.5312 18.7227L 77.6152 24L 76.3779 24L 77.6631 16.6035L 78.832 16.5967ZM 90.0088 13.3701L 90.6924 13.876C 90.182 14.514 89.8652 15.1383 89.7422 15.749L 89.5781 16.665L 88.3477 16.665L 88.4707 15.8994C 88.6348 14.8877 89.1475 14.0446 90.0088 13.3701ZM 92.4766 16.5967L 92.2988 17.5332C 92.9642 16.804 93.7207 16.4486 94.5684 16.4668C 95.2656 16.485 95.7806 16.7266 96.1133 17.1914C 96.446 17.6562 96.569 18.3102 96.4824 19.1533L 95.6758 24L 94.4385 24L 95.252 19.1328C 95.2793 18.9095 95.2816 18.7021 95.2588 18.5107C 95.1813 17.8727 94.8053 17.5469 94.1309 17.5332C 93.388 17.5195 92.7363 17.916 92.1758 18.7227L 91.2598 24L 90.0225 24L 91.3076 16.6035L 92.4766 16.5967ZM 101.691 16.4668C 102.311 16.4759 102.842 16.6445 103.284 16.9727C 103.726 17.3008 104.052 17.7542 104.262 18.333C 104.476 18.9072 104.549 19.5361 104.48 20.2197L 104.467 20.3701C 104.38 21.0902 104.166 21.7419 103.824 22.3252C 103.482 22.904 103.04 23.3551 102.498 23.6787C 101.956 24.0023 101.361 24.1549 100.714 24.1367C 100.099 24.1276 99.5677 23.959 99.1211 23.6309C 98.679 23.3027 98.3555 22.8561 98.1504 22.291C 97.9453 21.7259 97.8724 21.1038 97.9316 20.4248C 98 19.6592 98.2074 18.971 98.5537 18.3604C 98.9001 17.7497 99.3444 17.278 99.8867 16.9453C 100.434 16.6081 101.035 16.4486 101.691 16.4668ZM 99.1758 20.4316C 99.1439 20.7188 99.1439 21.0173 99.1758 21.3271C 99.2214 21.8649 99.3809 22.2933 99.6543 22.6123C 99.9323 22.9313 100.301 23.0977 100.762 23.1113C 101.172 23.125 101.55 23.0247 101.896 22.8105C 102.243 22.5918 102.535 22.2637 102.771 21.8262C 103.008 21.3887 103.161 20.9033 103.229 20.3701C 103.266 19.9508 103.273 19.5977 103.25 19.3105C 103.195 18.7591 103.029 18.3239 102.751 18.0049C 102.473 17.6859 102.104 17.5173 101.644 17.499C 101.006 17.4854 100.463 17.736 100.017 18.251C 99.57 18.766 99.2943 19.4404 99.1895 20.2744L 99.1758 20.4316ZM 108.671 14.8125L 108.356 16.6035L 109.703 16.6035L 109.532 17.5811L 108.192 17.5811L 107.42 22.1816C 107.406 22.3001 107.404 22.4095 107.413 22.5098C 107.445 22.8652 107.639 23.043 107.994 23.043C 108.145 23.043 108.345 23.0202 108.596 22.9746L 108.5 24.0068C 108.204 24.0889 107.903 24.1299 107.598 24.1299C 107.105 24.1208 106.736 23.9408 106.49 23.5898C 106.244 23.2344 106.148 22.7581 106.203 22.1611L 106.955 17.5811L 105.649 17.5811L 105.82 16.6035L 107.126 16.6035L 107.44 14.8125L 108.671 14.8125ZM 111.323 16.8496L 110.64 16.3438C 111.177 15.6738 111.501 15.0244 111.61 14.3955L 111.768 13.5L 112.984 13.5L 112.854 14.3271C 112.69 15.3525 112.18 16.1934 111.323 16.8496ZM 112.431 25.9893L 111.72 25.4766C 112.248 24.8249 112.576 24.1777 112.704 23.5352L 112.882 22.5029L 114.092 22.5029L 113.948 23.4258C 113.784 24.4648 113.278 25.3193 112.431 25.9893ZM 24.459 40C 24.4271 39.8678 24.4111 39.738 24.4111 39.6104L 24.4316 39.2207C 23.7526 39.8496 23.0326 40.1549 22.2715 40.1367C 21.6198 40.1276 21.0889 39.9225 20.6787 39.5215C 20.2731 39.1159 20.0885 38.61 20.125 38.0039C 20.1706 37.2201 20.5124 36.6094 21.1504 36.1719C 21.793 35.7298 22.6361 35.5088 23.6797 35.5088L 24.9717 35.5156L 25.0537 34.9277C 25.0993 34.4857 25.0127 34.137 24.7939 33.8818C 24.5798 33.6221 24.2562 33.4876 23.8232 33.4785C 23.3994 33.4694 23.0234 33.5742 22.6953 33.793C 22.3717 34.0072 22.1735 34.292 22.1006 34.6475L 20.8564 34.6543C 20.8975 34.2214 21.0661 33.8385 21.3623 33.5059C 21.6585 33.1686 22.0391 32.9089 22.5039 32.7266C 22.9688 32.5397 23.4495 32.4508 23.9463 32.46C 24.7165 32.4782 25.3158 32.7129 25.7441 33.1641C 26.1725 33.6107 26.3525 34.2054 26.2842 34.9482L 25.6826 38.6123L 25.6484 39.1387C 25.6393 39.3893 25.6667 39.6377 25.7305 39.8838L 25.7168 40L 24.459 40ZM 22.5176 39.043C 22.9141 39.0521 23.2878 38.9587 23.6387 38.7627C 23.9941 38.5622 24.2995 38.2865 24.5547 37.9355L 24.8213 36.4111L 23.8848 36.4043C 23.1055 36.4043 22.5085 36.5273 22.0938 36.7734C 21.679 37.0195 21.4443 37.3682 21.3896 37.8193C 21.3486 38.1657 21.4284 38.4551 21.6289 38.6875C 21.834 38.9154 22.1302 39.0339 22.5176 39.043ZM 28.7383 40L 27.5078 40L 29.3262 29.5L 30.5635 29.5L 28.7383 40ZM 32.1016 40L 30.8711 40L 32.6895 29.5L 33.9268 29.5L 32.1016 40ZM 40.2432 38.2705L 42.9092 32.6035L 44.2148 32.6035L 40.4893 40L 39.5459 40L 38.0967 32.6035L 39.3135 32.6035L 40.2432 38.2705ZM 48.6172 40C 48.5853 39.8678 48.5693 39.738 48.5693 39.6104L 48.5898 39.2207C 47.9108 39.8496 47.1908 40.1549 46.4297 40.1367C 45.778 40.1276 45.2471 39.9225 44.8369 39.5215C 44.4313 39.1159 44.2467 38.61 44.2832 38.0039C 44.3288 37.2201 44.6706 36.6094 45.3086 36.1719C 45.9512 35.7298 46.7943 35.5088 47.8379 35.5088L 49.1299 35.5156L 49.2119 34.9277C 49.2575 34.4857 49.1709 34.137 48.9521 33.8818C 48.738 33.6221 48.4144 33.4876 47.9814 33.4785C 47.5576 33.4694 47.1816 33.5742 46.8535 33.793C 46.5299 34.0072 46.3317 34.292 46.2588 34.6475L 45.0146 34.6543C 45.0557 34.2214 45.2243 33.8385 45.5205 33.5059C 45.8167 33.1686 46.1973 32.9089 46.6621 32.7266C 47.127 32.5397 47.6077 32.4508 48.1045 32.46C 48.8747 32.4782 49.474 32.7129 49.9023 33.1641C 50.3307 33.6107 50.5107 34.2054 50.4424 34.9482L 49.8408 38.6123L 49.8066 39.1387C 49.7975 39.3893 49.8249 39.6377 49.8887 39.8838L 49.875 40L 48.6172 40ZM 46.6758 39.043C 47.0723 39.0521 47.446 38.9587 47.7969 38.7627C 48.1523 38.5622 48.4577 38.2865 48.7129 37.9355L 48.9795 36.4111L 48.043 36.4043C 47.2637 36.4043 46.6667 36.5273 46.252 36.7734C 45.8372 37.0195 45.6025 37.3682 45.5479 37.8193C 45.5068 38.1657 45.5866 38.4551 45.7871 38.6875C 45.9922 38.9154 46.2884 39.0339 46.6758 39.043ZM 52.8965 40L 51.666 40L 53.4844 29.5L 54.7217 29.5L 52.8965 40ZM 59.6162 39.2686C 59.0374 39.8656 58.3014 40.1549 57.4082 40.1367C 56.7018 40.1185 56.1777 39.8656 55.8359 39.3779C 55.4987 38.8903 55.3734 38.2249 55.46 37.3818L 56.2529 32.6035L 57.4902 32.6035L 56.6904 37.4023C 56.6676 37.6029 56.6631 37.7988 56.6768 37.9902C 56.6995 38.3184 56.7975 38.5758 56.9707 38.7627C 57.1439 38.9495 57.3854 39.0498 57.6953 39.0635C 58.5794 39.0908 59.263 38.7331 59.7461 37.9902L 60.6758 32.6035L 61.9131 32.6035L 60.6279 40L 59.459 40L 59.6162 39.2686ZM 65.6797 40.1367C 64.7591 40.1185 64.0391 39.779 63.5195 39.1182C 63 38.4574 62.7812 37.612 62.8633 36.582L 62.8975 36.2881C 62.9749 35.5544 63.1914 34.8844 63.5469 34.2783C 63.9069 33.6722 64.3444 33.2165 64.8594 32.9111C 65.3743 32.6012 65.9303 32.4531 66.5273 32.4668C 67.2884 32.485 67.8854 32.738 68.3184 33.2256C 68.7513 33.7132 68.9883 34.374 69.0293 35.208C 69.043 35.5042 69.0339 35.8005 69.002 36.0967L 68.9268 36.6641L 64.0938 36.6641C 64.0117 37.334 64.1211 37.9036 64.4219 38.373C 64.7272 38.8424 65.1807 39.0863 65.7822 39.1045C 66.5114 39.1227 67.1859 38.7946 67.8057 38.1201L 68.5166 38.7217C 68.2067 39.1683 67.8057 39.5192 67.3135 39.7744C 66.8258 40.0251 66.2812 40.1458 65.6797 40.1367ZM 66.4658 33.499C 65.9554 33.4854 65.5088 33.6585 65.126 34.0186C 64.7477 34.3786 64.4469 34.9141 64.2236 35.625L 67.8193 35.6318L 67.8467 35.5225C 67.9196 34.9482 67.8262 34.472 67.5664 34.0938C 67.3112 33.7109 66.9443 33.5127 66.4658 33.499ZM 74.3203 37.9971C 74.3887 37.4867 74.1084 37.1266 73.4795 36.917L 72.1943 36.541C 71.1097 36.1673 70.5856 35.5475 70.6221 34.6816C 70.654 34.0299 70.9502 33.4967 71.5107 33.082C 72.0758 32.6628 72.7389 32.4577 73.5 32.4668C 74.2474 32.4759 74.8535 32.6947 75.3184 33.123C 75.7878 33.5469 76.0133 34.1006 75.9951 34.7842L 74.7646 34.7773C 74.7738 34.4082 74.6576 34.1074 74.416 33.875C 74.1745 33.6426 73.8532 33.5218 73.4521 33.5127C 73.0238 33.5036 72.6546 33.6084 72.3447 33.8271C 72.0576 34.0322 71.8913 34.3011 71.8457 34.6338C 71.7865 35.0622 72.0485 35.3743 72.6318 35.5703L 73.2539 35.7412C 74.1016 35.96 74.7031 36.2448 75.0586 36.5957C 75.4141 36.9466 75.5781 37.3818 75.5508 37.9014C 75.5234 38.3617 75.373 38.7627 75.0996 39.1045C 74.8262 39.4463 74.4616 39.7083 74.0059 39.8906C 73.5501 40.0684 73.0648 40.1504 72.5498 40.1367C 71.766 40.1276 71.1188 39.8997 70.6084 39.4531C 70.098 39.002 69.8519 38.4232 69.8701 37.7168L 71.1074 37.7236C 71.1074 38.1383 71.2396 38.471 71.5039 38.7217C 71.7682 38.9723 72.1305 39.0977 72.5908 39.0977C 73.042 39.1068 73.4316 39.0133 73.7598 38.8174C 74.0879 38.6169 74.2747 38.3434 74.3203 37.9971ZM 84.7656 40C 84.7337 39.8678 84.7178 39.738 84.7178 39.6104L 84.7383 39.2207C 84.0592 39.8496 83.3392 40.1549 82.5781 40.1367C 81.9264 40.1276 81.3955 39.9225 80.9854 39.5215C 80.5798 39.1159 80.3952 38.61 80.4316 38.0039C 80.4772 37.2201 80.819 36.6094 81.457 36.1719C 82.0996 35.7298 82.9427 35.5088 83.9863 35.5088L 85.2783 35.5156L 85.3604 34.9277C 85.4059 34.4857 85.3193 34.137 85.1006 33.8818C 84.8864 33.6221 84.5628 33.4876 84.1299 33.4785C 83.7061 33.4694 83.3301 33.5742 83.002 33.793C 82.6784 34.0072 82.4801 34.292 82.4072 34.6475L 81.1631 34.6543C 81.2041 34.2214 81.3727 33.8385 81.6689 33.5059C 81.9652 33.1686 82.3457 32.9089 82.8105 32.7266C 83.2754 32.5397 83.7562 32.4508 84.2529 32.46C 85.0231 32.4782 85.6224 32.7129 86.0508 33.1641C 86.4792 33.6107 86.6592 34.2054 86.5908 34.9482L 85.9893 38.6123L 85.9551 39.1387C 85.946 39.3893 85.9733 39.6377 86.0371 39.8838L 86.0234 40L 84.7656 40ZM 82.8242 39.043C 83.2207 39.0521 83.5944 38.9587 83.9453 38.7627C 84.3008 38.5622 84.6061 38.2865 84.8613 37.9355L 85.1279 36.4111L 84.1914 36.4043C 83.4121 36.4043 82.8151 36.5273 82.4004 36.7734C 81.9857 37.0195 81.751 37.3682 81.6963 37.8193C 81.6553 38.1657 81.735 38.4551 81.9355 38.6875C 82.1406 38.9154 82.4368 39.0339 82.8242 39.043ZM 92.3057 33.7314L 91.7246 33.6699C 90.9316 33.6699 90.3073 34.0277 89.8516 34.7432L 88.9424 40L 87.7051 40L 88.9902 32.6035L 90.1865 32.5967L 90.002 33.458C 90.526 32.7699 91.1436 32.4349 91.8545 32.4531C 92.0049 32.4531 92.2008 32.4873 92.4424 32.5557L 92.3057 33.7314ZM 95.4297 40.1367C 94.5091 40.1185 93.7891 39.779 93.2695 39.1182C 92.75 38.4574 92.5312 37.612 92.6133 36.582L 92.6475 36.2881C 92.7249 35.5544 92.9414 34.8844 93.2969 34.2783C 93.6569 33.6722 94.0944 33.2165 94.6094 32.9111C 95.1243 32.6012 95.6803 32.4531 96.2773 32.4668C 97.0384 32.485 97.6354 32.738 98.0684 33.2256C 98.5013 33.7132 98.7383 34.374 98.7793 35.208C 98.793 35.5042 98.7839 35.8005 98.752 36.0967L 98.6768 36.6641L 93.8438 36.6641C 93.7617 37.334 93.8711 37.9036 94.1719 38.373C 94.4772 38.8424 94.9307 39.0863 95.5322 39.1045C 96.2614 39.1227 96.9359 38.7946 97.5557 38.1201L 98.2666 38.7217C 97.9567 39.1683 97.5557 39.5192 97.0635 39.7744C 96.5758 40.0251 96.0312 40.1458 95.4297 40.1367ZM 96.2158 33.499C 95.7054 33.4854 95.2588 33.6585 94.876 34.0186C 94.4977 34.3786 94.1969 34.9141 93.9736 35.625L 97.5693 35.6318L 97.5967 35.5225C 97.6696 34.9482 97.5762 34.472 97.3164 34.0938C 97.0612 33.7109 96.6943 33.5127 96.2158 33.499ZM 18.4707 46.3701L 19.1543 46.876C 18.6439 47.514 18.3271 48.1383 18.2041 48.749L 18.04 49.665L 16.8096 49.665L 16.9326 48.8994C 17.0967 47.8877 17.6094 47.0446 18.4707 46.3701ZM 24.7461 47.5596C 24.1582 47.4593 23.7298 47.4092 23.4609 47.4092C 23.0098 47.4092 22.6475 47.5368 22.374 47.792C 22.1006 48.0426 21.9297 48.3844 21.8613 48.8174L 21.7383 49.6035L 23.2764 49.6035L 23.1055 50.5811L 21.5742 50.5811L 20.46 57L 19.2227 57L 20.3438 50.5811L 19.2021 50.5811L 19.373 49.6035L 20.5078 49.6035L 20.6309 48.7354C 20.7493 47.9743 21.0547 47.3818 21.5469 46.958C 22.0391 46.5342 22.6634 46.3268 23.4199 46.3359C 23.9167 46.3451 24.5843 46.4453 25.4229 46.6367L 26.0791 46.7734L 24.3428 57L 23.1055 57L 24.7461 47.5596ZM 27.7402 57L 26.5098 57L 27.7949 49.6035L 29.0254 49.6035L 27.7402 57ZM 28.7588 46.9033C 28.9684 46.8942 29.1416 46.958 29.2783 47.0947C 29.4196 47.2269 29.4902 47.4023 29.4902 47.6211C 29.4857 47.8353 29.415 48.0107 29.2783 48.1475C 29.1462 48.2842 28.973 48.3571 28.7588 48.3662C 28.5446 48.3753 28.3691 48.3138 28.2324 48.1816C 28.0957 48.0495 28.0296 47.8763 28.0342 47.6621C 28.0387 47.4479 28.1071 47.2702 28.2393 47.1289C 28.3714 46.9876 28.5446 46.9124 28.7588 46.9033ZM 36.4629 53.3359C 36.3717 54.0879 36.1689 54.7646 35.8545 55.3662C 35.54 55.9678 35.1504 56.4189 34.6855 56.7197C 34.2207 57.016 33.7057 57.1572 33.1406 57.1436C 32.2839 57.1253 31.6276 56.8359 31.1719 56.2754L 30.5088 59.8438L 29.2715 59.8438L 31.0488 49.6035L 32.1699 49.5967L 32.0332 50.4238C 32.6439 49.7676 33.3753 49.4486 34.2275 49.4668C 34.9385 49.485 35.4922 49.7471 35.8887 50.2529C 36.2852 50.7588 36.4948 51.4561 36.5176 52.3447C 36.5221 52.6364 36.5107 52.9189 36.4834 53.1924L 36.4629 53.3359ZM 35.2461 53.1924L 35.2803 52.6182C 35.2803 51.9528 35.1527 51.4447 34.8975 51.0938C 34.6468 50.7383 34.2822 50.5514 33.8037 50.5332C 33.0882 50.515 32.4707 50.8545 31.9512 51.5518L 31.3291 55.0996C 31.6071 55.7559 32.1061 56.0931 32.8262 56.1113C 33.4414 56.125 33.9632 55.8857 34.3916 55.3936C 34.8245 54.8968 35.1094 54.1631 35.2461 53.1924ZM 44.1602 53.3359C 44.069 54.0879 43.8662 54.7646 43.5518 55.3662C 43.2373 55.9678 42.8477 56.4189 42.3828 56.7197C 41.918 57.016 41.403 57.1572 40.8379 57.1436C 39.9811 57.1253 39.3249 56.8359 38.8691 56.2754L 38.2061 59.8438L 36.9688 59.8438L 38.7461 49.6035L 39.8672 49.5967L 39.7305 50.4238C 40.3411 49.7676 41.0726 49.4486 41.9248 49.4668C 42.6357 49.485 43.1895 49.7471 43.5859 50.2529C 43.9824 50.7588 44.1921 51.4561 44.2148 52.3447C 44.2194 52.6364 44.208 52.9189 44.1807 53.1924L 44.1602 53.3359ZM 42.9434 53.1924L 42.9775 52.6182C 42.9775 51.9528 42.8499 51.4447 42.5947 51.0938C 42.3441 50.7383 41.9795 50.5514 41.501 50.5332C 40.7855 50.515 40.168 50.8545 39.6484 51.5518L 39.0264 55.0996C 39.3044 55.7559 39.8034 56.0931 40.5234 56.1113C 41.1387 56.125 41.6605 55.8857 42.0889 55.3936C 42.5218 54.8968 42.8066 54.1631 42.9434 53.1924ZM 48.3574 57.1367C 47.4368 57.1185 46.7168 56.779 46.1973 56.1182C 45.6777 55.4574 45.459 54.612 45.541 53.582L 45.5752 53.2881C 45.6527 52.5544 45.8691 51.8844 46.2246 51.2783C 46.5846 50.6722 47.0221 50.2165 47.5371 49.9111C 48.0521 49.6012 48.6081 49.4531 49.2051 49.4668C 49.9661 49.485 50.5632 49.738 50.9961 50.2256C 51.429 50.7132 51.666 51.374 51.707 52.208C 51.7207 52.5042 51.7116 52.8005 51.6797 53.0967L 51.6045 53.6641L 46.7715 53.6641C 46.6895 54.334 46.7988 54.9036 47.0996 55.373C 47.4049 55.8424 47.8584 56.0863 48.46 56.1045C 49.1891 56.1227 49.8636 55.7946 50.4834 55.1201L 51.1943 55.7217C 50.8844 56.1683 50.4834 56.5192 49.9912 56.7744C 49.5036 57.0251 48.959 57.1458 48.3574 57.1367ZM 49.1436 50.499C 48.6331 50.4854 48.1865 50.6585 47.8037 51.0186C 47.4255 51.3786 47.1247 51.9141 46.9014 52.625L 50.4971 52.6318L 50.5244 52.5225C 50.5973 51.9482 50.5039 51.472 50.2441 51.0938C 49.9889 50.7109 49.6221 50.5127 49.1436 50.499ZM 52.7734 53.2881C 52.8646 52.5361 53.0719 51.8571 53.3955 51.251C 53.7191 50.6449 54.1178 50.1914 54.5918 49.8906C 55.0658 49.5898 55.5876 49.4463 56.1572 49.46C 56.9821 49.4782 57.6156 49.779 58.0576 50.3623L 58.7686 46.5L 60.0059 46.5L 58.1875 57L 57.0596 57L 57.1895 56.207C 56.6061 56.8451 55.8861 57.1549 55.0293 57.1367C 54.3457 57.1185 53.8011 56.8519 53.3955 56.3369C 52.9899 55.8174 52.7712 55.1224 52.7393 54.252C 52.7256 53.9831 52.737 53.6618 52.7734 53.2881ZM 53.9629 53.999C 53.9492 54.6507 54.0654 55.1566 54.3115 55.5166C 54.5576 55.8766 54.9176 56.0612 55.3916 56.0703C 56.1071 56.1022 56.7428 55.7422 57.2988 54.9902L 57.8867 51.5723C 57.6133 50.8978 57.1165 50.5514 56.3965 50.5332C 55.9089 50.5195 55.4782 50.6676 55.1045 50.9775C 54.7354 51.2829 54.4528 51.7135 54.2568 52.2695C 54.0654 52.821 53.9674 53.3975 53.9629 53.999ZM 61.5508 49.8496L 60.8672 49.3438C 61.4049 48.6738 61.7285 48.0244 61.8379 47.3955L 61.9951 46.5L 63.2119 46.5L 63.082 47.3271C 62.918 48.3525 62.4076 49.1934 61.5508 49.8496ZM 63.8408 55.5645C 64.0641 55.5599 64.2487 55.6283 64.3945 55.7695C 64.5404 55.9108 64.611 56.0931 64.6064 56.3164C 64.6019 56.5397 64.5267 56.722 64.3809 56.8633C 64.235 57 64.0527 57.0729 63.834 57.082C 63.6152 57.0911 63.4352 57.0296 63.2939 56.8975C 63.1527 56.7607 63.082 56.5807 63.082 56.3574C 63.082 56.1341 63.1527 55.9495 63.2939 55.8037C 63.4352 55.6533 63.6175 55.5736 63.8408 55.5645ZM 73.1898 49.216L 70.3058 49.216L 70.3058 47.844L 77.6978 47.844L 77.6978 49.216L 74.8138 49.216L 74.8138 57L 73.1898 57L 73.1898 49.216ZM 80.0163 50.126L 81.3463 50.126L 81.4863 51.68L 81.5283 51.68C 81.883 51.12 82.3076 50.6953 82.8023 50.406C 83.3063 50.1073 83.857 49.958 84.4543 49.958C 84.7343 49.958 84.9723 49.9813 85.1683 50.028C 85.3736 50.0653 85.579 50.1353 85.7843 50.238L 85.4483 51.596C 85.2243 51.5213 85.0236 51.47 84.8463 51.442C 84.6783 51.4047 84.4636 51.386 84.2023 51.386C 83.7263 51.386 83.269 51.5213 82.8303 51.792C 82.3916 52.0627 81.995 52.534 81.6403 53.206L 81.6403 57L 80.0163 57L 80.0163 50.126ZM 93.8008 57L 92.4848 57L 92.3588 55.908L 92.3028 55.908C 91.9762 56.2907 91.6168 56.5987 91.2248 56.832C 90.8328 57.056 90.3802 57.168 89.8668 57.168C 89.0642 57.168 88.4808 56.93 88.1168 56.454C 87.7528 55.9687 87.5708 55.278 87.5708 54.382L 87.5708 50.126L 89.1808 50.126L 89.1808 54.172C 89.1808 54.732 89.2742 55.1427 89.4608 55.404C 89.6568 55.656 89.9928 55.782 90.4688 55.782C 90.7955 55.782 91.0848 55.7073 91.3368 55.558C 91.5982 55.4087 91.8828 55.1427 92.1908 54.76L 92.1908 50.126L 93.8008 50.126L 93.8008 57ZM 95.8534 53.57C 95.8534 53.01 95.9514 52.506 96.1474 52.058C 96.3527 51.61 96.6187 51.232 96.9454 50.924C 97.272 50.6067 97.6454 50.3687 98.0654 50.21C 98.4947 50.042 98.9334 49.958 99.3814 49.958C 99.8947 49.958 100.347 50.042 100.739 50.21C 101.141 50.3687 101.477 50.5927 101.747 50.882C 102.018 51.162 102.223 51.5027 102.363 51.904C 102.503 52.3053 102.573 52.744 102.573 53.22C 102.573 53.3787 102.564 53.528 102.545 53.668C 102.536 53.808 102.522 53.92 102.503 54.004L 97.5054 54.004C 97.5614 54.62 97.804 55.096 98.2334 55.432C 98.6627 55.7587 99.19 55.922 99.8154 55.922C 100.17 55.922 100.501 55.8753 100.809 55.782C 101.117 55.6793 101.43 55.5393 101.747 55.362L 102.293 56.37C 101.92 56.6033 101.505 56.7947 101.047 56.944C 100.59 57.0933 100.109 57.168 99.6054 57.168C 99.0827 57.168 98.5927 57.0887 98.1354 56.93C 97.678 56.762 97.2814 56.524 96.9454 56.216C 96.6094 55.908 96.3434 55.5347 96.1474 55.096C 95.9514 54.648 95.8534 54.1393 95.8534 53.57ZM 101.089 52.912C 101.089 52.38 100.949 51.9647 100.669 51.666C 100.389 51.358 99.974 51.204 99.4234 51.204C 98.9567 51.204 98.5414 51.3487 98.1774 51.638C 97.8134 51.9273 97.5847 52.352 97.4914 52.912L 101.089 52.912ZM 15.5928 71.3359C 15.5016 72.0924 15.2943 72.7738 14.9707 73.3799C 14.6471 73.986 14.2552 74.4349 13.7949 74.7266C 13.3346 75.0182 12.8242 75.1572 12.2637 75.1436C 11.3704 75.1253 10.7074 74.7904 10.2744 74.1387L 10.0215 75L 8.87988 75L 10.7051 64.5L 11.9424 64.5L 11.1973 68.4238C 11.7897 67.7676 12.5098 67.4486 13.3574 67.4668C 14.0684 67.485 14.6221 67.7471 15.0186 68.2529C 15.415 68.7588 15.6247 69.4561 15.6475 70.3447C 15.652 70.6364 15.6383 70.9189 15.6064 71.1924L 15.5928 71.3359ZM 14.417 70.6182C 14.4307 69.9528 14.319 69.4447 14.082 69.0938C 13.8451 68.7383 13.4827 68.5514 12.9951 68.5332C 12.2249 68.515 11.5732 68.9023 11.04 69.6953L 10.4863 72.915C 10.7598 73.667 11.2725 74.0521 12.0244 74.0703C 12.5075 74.0885 12.929 73.945 13.2891 73.6396C 13.6536 73.3343 13.9294 72.9082 14.1162 72.3613C 14.3031 71.8099 14.4033 71.2288 14.417 70.6182ZM 19.7764 75.1367C 18.8558 75.1185 18.1357 74.779 17.6162 74.1182C 17.0967 73.4574 16.8779 72.612 16.96 71.582L 16.9941 71.2881C 17.0716 70.5544 17.2881 69.8844 17.6436 69.2783C 18.0036 68.6722 18.4411 68.2165 18.9561 67.9111C 19.471 67.6012 20.027 67.4531 20.624 67.4668C 21.3851 67.485 21.9821 67.738 22.415 68.2256C 22.848 68.7132 23.085 69.374 23.126 70.208C 23.1396 70.5042 23.1305 70.8005 23.0986 71.0967L 23.0234 71.6641L 18.1904 71.6641C 18.1084 72.334 18.2178 72.9036 18.5186 73.373C 18.8239 73.8424 19.2773 74.0863 19.8789 74.1045C 20.6081 74.1227 21.2826 73.7946 21.9023 73.1201L 22.6133 73.7217C 22.3034 74.1683 21.9023 74.5192 21.4102 74.7744C 20.9225 75.0251 20.3779 75.1458 19.7764 75.1367ZM 20.5625 68.499C 20.0521 68.4854 19.6055 68.6585 19.2227 69.0186C 18.8444 69.3786 18.5436 69.9141 18.3203 70.625L 21.916 70.6318L 21.9434 70.5225C 22.0163 69.9482 21.9229 69.472 21.6631 69.0938C 21.4079 68.7109 21.041 68.5127 20.5625 68.499ZM 26.9609 74.1113C 27.403 74.1204 27.8018 73.9928 28.1572 73.7285C 28.5127 73.4596 28.7451 73.1087 28.8545 72.6758L 30.0234 72.6689C 29.9551 73.1338 29.7682 73.5576 29.4629 73.9404C 29.1621 74.3232 28.7816 74.6217 28.3213 74.8359C 27.861 75.0501 27.3893 75.1504 26.9062 75.1367C 26.291 75.1276 25.7692 74.9681 25.3408 74.6582C 24.917 74.3438 24.6048 73.9085 24.4043 73.3525C 24.2038 72.792 24.1354 72.1631 24.1992 71.4658L 24.2334 71.124C 24.32 70.4131 24.5273 69.7773 24.8555 69.2168C 25.1836 68.6562 25.612 68.221 26.1406 67.9111C 26.6693 67.5967 27.2526 67.4486 27.8906 67.4668C 28.6654 67.485 29.2852 67.7448 29.75 68.2461C 30.2148 68.7474 30.4473 69.3831 30.4473 70.1533L 29.292 70.1465C 29.2829 69.6634 29.1484 69.2738 28.8887 68.9775C 28.6289 68.6768 28.278 68.5173 27.8359 68.499C 27.1934 68.4854 26.6579 68.7246 26.2295 69.2168C 25.8057 69.709 25.5413 70.3971 25.4365 71.2812L 25.416 71.459C 25.3887 71.7507 25.3841 72.0514 25.4023 72.3613C 25.4342 72.8945 25.5846 73.3161 25.8535 73.626C 26.1224 73.9359 26.4915 74.0977 26.9609 74.1113ZM 35.123 67.4668C 35.7428 67.4759 36.2738 67.6445 36.7158 67.9727C 37.1579 68.3008 37.4837 68.7542 37.6934 69.333C 37.9076 69.9072 37.9805 70.5361 37.9121 71.2197L 37.8984 71.3701C 37.8118 72.0902 37.5977 72.7419 37.2559 73.3252C 36.9141 73.904 36.472 74.3551 35.9297 74.6787C 35.3874 75.0023 34.7926 75.1549 34.1455 75.1367C 33.5303 75.1276 32.9993 74.959 32.5527 74.6309C 32.1107 74.3027 31.7871 73.8561 31.582 73.291C 31.377 72.7259 31.304 72.1038 31.3633 71.4248C 31.4316 70.6592 31.639 69.971 31.9854 69.3604C 32.3317 68.7497 32.776 68.278 33.3184 67.9453C 33.8652 67.6081 34.4668 67.4486 35.123 67.4668ZM 32.6074 71.4316C 32.5755 71.7188 32.5755 72.0173 32.6074 72.3271C 32.653 72.8649 32.8125 73.2933 33.0859 73.6123C 33.3639 73.9313 33.7331 74.0977 34.1934 74.1113C 34.6035 74.125 34.9818 74.0247 35.3281 73.8105C 35.6745 73.5918 35.9661 73.2637 36.2031 72.8262C 36.4401 72.3887 36.5928 71.9033 36.6611 71.3701C 36.6976 70.9508 36.7044 70.5977 36.6816 70.3105C 36.627 69.7591 36.4606 69.3239 36.1826 69.0049C 35.9046 68.6859 35.5355 68.5173 35.0752 68.499C 34.4372 68.4854 33.8949 68.736 33.4482 69.251C 33.0016 69.766 32.7259 70.4404 32.6211 71.2744L 32.6074 71.4316ZM 41.2754 67.5967L 41.1182 68.4238C 41.738 67.7676 42.4876 67.4486 43.3672 67.4668C 43.8366 67.4759 44.2331 67.583 44.5566 67.7881C 44.8848 67.9932 45.1104 68.2826 45.2334 68.6562C 45.9261 67.8451 46.7441 67.4486 47.6875 67.4668C 48.4258 67.485 48.9704 67.7334 49.3213 68.2119C 49.6722 68.6904 49.8021 69.333 49.7109 70.1396L 48.8975 75L 47.667 75L 48.4736 70.126C 48.501 69.889 48.501 69.6725 48.4736 69.4766C 48.387 68.8568 47.9814 68.54 47.2568 68.5264C 46.8057 68.5173 46.3955 68.6585 46.0264 68.9502C 45.6618 69.2373 45.4271 69.6156 45.3223 70.085L 44.4814 75L 43.2373 75L 44.0576 70.1328C 44.1169 69.627 44.0394 69.2373 43.8252 68.9639C 43.6156 68.6904 43.2874 68.5492 42.8408 68.54C 42.0706 68.5218 41.4577 68.8727 41.002 69.5928L 40.0654 75L 38.8281 75L 40.1133 67.6035L 41.2754 67.5967ZM 54.0107 75.1367C 53.0902 75.1185 52.3701 74.779 51.8506 74.1182C 51.3311 73.4574 51.1123 72.612 51.1943 71.582L 51.2285 71.2881C 51.306 70.5544 51.5225 69.8844 51.8779 69.2783C 52.238 68.6722 52.6755 68.2165 53.1904 67.9111C 53.7054 67.6012 54.2614 67.4531 54.8584 67.4668C 55.6195 67.485 56.2165 67.738 56.6494 68.2256C 57.0824 68.7132 57.3193 69.374 57.3604 70.208C 57.374 70.5042 57.3649 70.8005 57.333 71.0967L 57.2578 71.6641L 52.4248 71.6641C 52.3428 72.334 52.4521 72.9036 52.7529 73.373C 53.0583 73.8424 53.5117 74.0863 54.1133 74.1045C 54.8424 74.1227 55.5169 73.7946 56.1367 73.1201L 56.8477 73.7217C 56.5378 74.1683 56.1367 74.5192 55.6445 74.7744C 55.1569 75.0251 54.6123 75.1458 54.0107 75.1367ZM 54.7969 68.499C 54.2865 68.4854 53.8398 68.6585 53.457 69.0186C 53.0788 69.3786 52.778 69.9141 52.5547 70.625L 56.1504 70.6318L 56.1777 70.5225C 56.2507 69.9482 56.1572 69.472 55.8975 69.0938C 55.6423 68.7109 55.2754 68.5127 54.7969 68.499ZM 62.6514 72.9971C 62.7197 72.4867 62.4395 72.1266 61.8105 71.917L 60.5254 71.541C 59.4408 71.1673 58.9167 70.5475 58.9531 69.6816C 58.985 69.0299 59.2812 68.4967 59.8418 68.082C 60.4069 67.6628 61.07 67.4577 61.8311 67.4668C 62.5785 67.4759 63.1846 67.6947 63.6494 68.123C 64.1188 68.5469 64.3444 69.1006 64.3262 69.7842L 63.0957 69.7773C 63.1048 69.4082 62.9886 69.1074 62.7471 68.875C 62.5055 68.6426 62.1842 68.5218 61.7832 68.5127C 61.3548 68.5036 60.9857 68.6084 60.6758 68.8271C 60.3887 69.0322 60.2223 69.3011 60.1768 69.6338C 60.1175 70.0622 60.3796 70.3743 60.9629 70.5703L 61.585 70.7412C 62.4326 70.96 63.0342 71.2448 63.3896 71.5957C 63.7451 71.9466 63.9092 72.3818 63.8818 72.9014C 63.8545 73.3617 63.7041 73.7627 63.4307 74.1045C 63.1572 74.4463 62.7926 74.7083 62.3369 74.8906C 61.8812 75.0684 61.3958 75.1504 60.8809 75.1367C 60.097 75.1276 59.4499 74.8997 58.9395 74.4531C 58.429 74.002 58.1829 73.4232 58.2012 72.7168L 59.4385 72.7236C 59.4385 73.1383 59.5706 73.471 59.835 73.7217C 60.0993 73.9723 60.4616 74.0977 60.9219 74.0977C 61.373 74.1068 61.7627 74.0133 62.0908 73.8174C 62.4189 73.6169 62.6058 73.3434 62.6514 72.9971ZM 70.0534 65.844L 75.8774 65.844L 75.8774 67.216L 71.6774 67.216L 71.6774 69.806L 75.2474 69.806L 75.2474 71.178L 71.6774 71.178L 71.6774 75L 70.0534 75L 70.0534 65.844ZM 77.7479 73.152C 77.7479 72.7693 77.8366 72.4333 78.0139 72.144C 78.1912 71.8453 78.4712 71.5933 78.8539 71.388C 79.2366 71.1827 79.7266 71.0147 80.3239 70.884C 80.9212 70.7533 81.6446 70.66 82.4939 70.604C 82.4659 70.212 82.3259 69.89 82.0739 69.638C 81.8219 69.386 81.4159 69.26 80.8559 69.26C 80.4639 69.26 80.0766 69.3347 79.6939 69.484C 79.3206 69.624 78.9566 69.792 78.6019 69.988L 78.0139 68.91C 78.4339 68.6673 78.9146 68.448 79.4559 68.252C 79.9972 68.056 80.5619 67.958 81.1499 67.958C 82.1112 67.958 82.8439 68.2147 83.3479 68.728C 83.8519 69.232 84.1039 69.9647 84.1039 70.926L 84.1039 75L 82.7879 75L 82.6619 74.146L 82.6199 74.146C 82.2559 74.426 81.8499 74.6687 81.4019 74.874C 80.9632 75.07 80.5106 75.168 80.0439 75.168C 79.7079 75.168 79.3999 75.1167 79.1199 75.014C 78.8399 74.9207 78.5972 74.7853 78.3919 74.608C 78.1866 74.4307 78.0279 74.2207 77.9159 73.978C 77.8039 73.726 77.7479 73.4507 77.7479 73.152ZM 79.3019 73.026C 79.3019 73.334 79.4186 73.558 79.6519 73.698C 79.8946 73.838 80.1886 73.908 80.5339 73.908C 80.8792 73.908 81.2106 73.8333 81.5279 73.684C 81.8546 73.5253 82.1766 73.32 82.4939 73.068L 82.4939 71.612C 81.8779 71.6587 81.3646 71.724 80.9539 71.808C 80.5432 71.8827 80.2166 71.9807 79.9739 72.102C 79.7312 72.2233 79.5586 72.3633 79.4559 72.522C 79.3532 72.6713 79.3019 72.8393 79.3019 73.026ZM 86.1424 65.116L 89.9224 65.116L 89.9224 72.578C 89.9224 73.0447 90.0391 73.376 90.2724 73.572C 90.5058 73.7587 90.7998 73.852 91.1544 73.852C 91.4904 73.852 91.8824 73.7633 92.3304 73.586L 92.7084 74.776C 92.3818 74.888 92.0738 74.9813 91.7844 75.056C 91.5044 75.1307 91.1638 75.168 90.7624 75.168C 89.9504 75.168 89.3391 74.9347 88.9284 74.468C 88.5178 74.0013 88.3124 73.3433 88.3124 72.494L 88.3124 66.39L 86.1424 66.39L 86.1424 65.116ZM 95.167 73.082C 95.559 73.3527 95.965 73.5673 96.385 73.726C 96.8143 73.8753 97.295 73.95 97.827 73.95C 98.3683 73.95 98.765 73.8753 99.017 73.726C 99.269 73.5673 99.395 73.3667 99.395 73.124C 99.395 72.8813 99.2316 72.6807 98.905 72.522C 98.5783 72.354 98.065 72.1767 97.365 71.99C 97.0383 71.906 96.721 71.8033 96.413 71.682C 96.105 71.5607 95.8343 71.4207 95.601 71.262C 95.3676 71.1033 95.181 70.9213 95.041 70.716C 94.901 70.5107 94.831 70.2773 94.831 70.016C 94.831 69.4093 95.0923 68.9147 95.615 68.532C 96.1376 68.1493 96.889 67.958 97.869 67.958C 98.429 67.958 98.9563 68.0513 99.451 68.238C 99.9456 68.4247 100.37 68.6347 100.725 68.868L 99.983 69.862C 99.675 69.6567 99.3436 69.4933 98.989 69.372C 98.6436 69.2413 98.275 69.176 97.883 69.176C 97.351 69.176 96.9776 69.2507 96.763 69.4C 96.5483 69.54 96.441 69.7173 96.441 69.932C 96.441 70.0533 96.4876 70.1653 96.581 70.268C 96.6836 70.3613 96.819 70.45 96.987 70.534C 97.1643 70.6087 97.3696 70.6833 97.603 70.758C 97.8363 70.8327 98.093 70.9027 98.373 70.968C 98.7743 71.0707 99.1336 71.1873 99.451 71.318C 99.7776 71.4393 100.053 71.5793 100.277 71.738C 100.51 71.8967 100.688 72.0833 100.809 72.298C 100.94 72.5127 101.005 72.76 101.005 73.04C 101.005 73.3387 100.935 73.6187 100.795 73.88C 100.655 74.132 100.45 74.356 100.179 74.552C 99.9083 74.7387 99.5723 74.888 99.171 75C 98.7696 75.112 98.3076 75.168 97.785 75.168C 97.141 75.168 96.525 75.0653 95.937 74.86C 95.349 74.6547 94.8403 74.4027 94.411 74.104L 95.167 73.082ZM 102.805 71.57C 102.805 71.01 102.903 70.506 103.099 70.058C 103.305 69.61 103.571 69.232 103.898 68.924C 104.224 68.6067 104.597 68.3687 105.017 68.21C 105.447 68.042 105.886 67.958 106.334 67.958C 106.847 67.958 107.299 68.042 107.692 68.21C 108.093 68.3687 108.429 68.5927 108.7 68.882C 108.97 69.162 109.176 69.5027 109.316 69.904C 109.456 70.3053 109.525 70.744 109.525 71.22C 109.525 71.3787 109.516 71.528 109.498 71.668C 109.488 71.808 109.474 71.92 109.456 72.004L 104.458 72.004C 104.514 72.62 104.756 73.096 105.185 73.432C 105.615 73.7587 106.142 73.922 106.767 73.922C 107.122 73.922 107.453 73.8753 107.762 73.782C 108.07 73.6793 108.382 73.5393 108.7 73.362L 109.246 74.37C 108.872 74.6033 108.457 74.7947 107.999 74.944C 107.542 75.0933 107.062 75.168 106.558 75.168C 106.035 75.168 105.545 75.0887 105.087 74.93C 104.63 74.762 104.233 74.524 103.898 74.216C 103.562 73.908 103.296 73.5347 103.099 73.096C 102.903 72.648 102.805 72.1393 102.805 71.57ZM 108.041 70.912C 108.041 70.38 107.901 69.9647 107.621 69.666C 107.341 69.358 106.926 69.204 106.376 69.204C 105.909 69.204 105.493 69.3487 105.13 69.638C 104.765 69.9273 104.537 70.352 104.444 70.912L 108.041 70.912ZM 18.6895 92C 18.6576 91.8678 18.6416 91.738 18.6416 91.6104L 18.6621 91.2207C 17.9831 91.8496 17.263 92.1549 16.502 92.1367C 15.8503 92.1276 15.3193 91.9225 14.9092 91.5215C 14.5036 91.1159 14.319 90.61 14.3555 90.0039C 14.401 89.2201 14.7428 88.6094 15.3809 88.1719C 16.0234 87.7298 16.8665 87.5088 17.9102 87.5088L 19.2021 87.5156L 19.2842 86.9277C 19.3298 86.4857 19.2432 86.137 19.0244 85.8818C 18.8102 85.6221 18.4867 85.4876 18.0537 85.4785C 17.6299 85.4694 17.2539 85.5742 16.9258 85.793C 16.6022 86.0072 16.404 86.292 16.3311 86.6475L 15.0869 86.6543C 15.1279 86.2214 15.2965 85.8385 15.5928 85.5059C 15.889 85.1686 16.2695 84.9089 16.7344 84.7266C 17.1992 84.5397 17.68 84.4508 18.1768 84.46C 18.9469 84.4782 19.5462 84.7129 19.9746 85.1641C 20.403 85.6107 20.583 86.2054 20.5146 86.9482L 19.9131 90.6123L 19.8789 91.1387C 19.8698 91.3893 19.8971 91.6377 19.9609 91.8838L 19.9473 92L 18.6895 92ZM 16.748 91.043C 17.1445 91.0521 17.5182 90.9587 17.8691 90.7627C 18.2246 90.5622 18.5299 90.2865 18.7852 89.9355L 19.0518 88.4111L 18.1152 88.4043C 17.3359 88.4043 16.7389 88.5273 16.3242 88.7734C 15.9095 89.0195 15.6748 89.3682 15.6201 89.8193C 15.5791 90.1657 15.6589 90.4551 15.8594 90.6875C 16.0645 90.9154 16.3607 91.0339 16.748 91.043ZM 24.083 84.5967L 23.9053 85.5332C 24.5706 84.804 25.3271 84.4486 26.1748 84.4668C 26.8721 84.485 27.387 84.7266 27.7197 85.1914C 28.0524 85.6562 28.1755 86.3102 28.0889 87.1533L 27.2822 92L 26.0449 92L 26.8584 87.1328C 26.8857 86.9095 26.888 86.7021 26.8652 86.5107C 26.7878 85.8727 26.4118 85.5469 25.7373 85.5332C 24.9945 85.5195 24.3428 85.916 23.7822 86.7227L 22.8662 92L 21.6289 92L 22.9141 84.6035L 24.083 84.5967ZM 29.5449 88.2881C 29.6361 87.5361 29.8434 86.8571 30.167 86.251C 30.4906 85.6449 30.8893 85.1914 31.3633 84.8906C 31.8372 84.5898 32.359 84.4463 32.9287 84.46C 33.7536 84.4782 34.387 84.779 34.8291 85.3623L 35.54 81.5L 36.7773 81.5L 34.959 92L 33.8311 92L 33.9609 91.207C 33.3776 91.8451 32.6576 92.1549 31.8008 92.1367C 31.1172 92.1185 30.5726 91.8519 30.167 91.3369C 29.7614 90.8174 29.5426 90.1224 29.5107 89.252C 29.4971 88.9831 29.5085 88.6618 29.5449 88.2881ZM 30.7344 88.999C 30.7207 89.6507 30.8369 90.1566 31.083 90.5166C 31.3291 90.8766 31.6891 91.0612 32.1631 91.0703C 32.8786 91.1022 33.5143 90.7422 34.0703 89.9902L 34.6582 86.5723C 34.3848 85.8978 33.888 85.5514 33.168 85.5332C 32.6803 85.5195 32.2497 85.6676 31.876 85.9775C 31.5068 86.2829 31.2243 86.7135 31.0283 87.2695C 30.8369 87.821 30.7389 88.3975 30.7344 88.999ZM 43.0322 90.2705L 45.6982 84.6035L 47.0039 84.6035L 43.2783 92L 42.335 92L 40.8857 84.6035L 42.1025 84.6035L 43.0322 90.2705ZM 48.3301 92L 47.0996 92L 48.3848 84.6035L 49.6152 84.6035L 48.3301 92ZM 49.3486 81.9033C 49.5583 81.8942 49.7314 81.958 49.8682 82.0947C 50.0094 82.2269 50.0801 82.4023 50.0801 82.6211C 50.0755 82.8353 50.0049 83.0107 49.8682 83.1475C 49.736 83.2842 49.5628 83.3571 49.3486 83.3662C 49.1344 83.3753 48.959 83.3138 48.8223 83.1816C 48.6855 83.0495 48.6195 82.8763 48.624 82.6621C 48.6286 82.4479 48.6969 82.2702 48.8291 82.1289C 48.9613 81.9876 49.1344 81.9124 49.3486 81.9033ZM 53.4775 91.1113C 53.9196 91.1204 54.3184 90.9928 54.6738 90.7285C 55.0293 90.4596 55.2617 90.1087 55.3711 89.6758L 56.54 89.6689C 56.4717 90.1338 56.2848 90.5576 55.9795 90.9404C 55.6787 91.3232 55.2982 91.6217 54.8379 91.8359C 54.3776 92.0501 53.9059 92.1504 53.4229 92.1367C 52.8076 92.1276 52.2858 91.9681 51.8574 91.6582C 51.4336 91.3438 51.1214 90.9085 50.9209 90.3525C 50.7204 89.792 50.652 89.1631 50.7158 88.4658L 50.75 88.124C 50.8366 87.4131 51.0439 86.7773 51.3721 86.2168C 51.7002 85.6562 52.1286 85.221 52.6572 84.9111C 53.1859 84.5967 53.7692 84.4486 54.4072 84.4668C 55.182 84.485 55.8018 84.7448 56.2666 85.2461C 56.7314 85.7474 56.9639 86.3831 56.9639 87.1533L 55.8086 87.1465C 55.7995 86.6634 55.665 86.2738 55.4053 85.9775C 55.1455 85.6768 54.7946 85.5173 54.3525 85.499C 53.71 85.4854 53.1745 85.7246 52.7461 86.2168C 52.3223 86.709 52.0579 87.3971 51.9531 88.2812L 51.9326 88.459C 51.9053 88.7507 51.9007 89.0514 51.9189 89.3613C 51.9508 89.8945 52.1012 90.3161 52.3701 90.626C 52.639 90.9359 53.0081 91.0977 53.4775 91.1113ZM 60.7305 92.1367C 59.8099 92.1185 59.0898 91.779 58.5703 91.1182C 58.0508 90.4574 57.832 89.612 57.9141 88.582L 57.9482 88.2881C 58.0257 87.5544 58.2422 86.8844 58.5977 86.2783C 58.9577 85.6722 59.3952 85.2165 59.9102 84.9111C 60.4251 84.6012 60.9811 84.4531 61.5781 84.4668C 62.3392 84.485 62.9362 84.738 63.3691 85.2256C 63.8021 85.7132 64.0391 86.374 64.0801 87.208C 64.0938 87.5042 64.0846 87.8005 64.0527 88.0967L 63.9775 88.6641L 59.1445 88.6641C 59.0625 89.334 59.1719 89.9036 59.4727 90.373C 59.778 90.8424 60.2314 91.0863 60.833 91.1045C 61.5622 91.1227 62.2367 90.7946 62.8564 90.1201L 63.5674 90.7217C 63.2575 91.1683 62.8564 91.5192 62.3643 91.7744C 61.8766 92.0251 61.332 92.1458 60.7305 92.1367ZM 61.5166 85.499C 61.0062 85.4854 60.5596 85.6585 60.1768 86.0186C 59.7985 86.3786 59.4977 86.9141 59.2744 87.625L 62.8701 87.6318L 62.8975 87.5225C 62.9704 86.9482 62.877 86.472 62.6172 86.0938C 62.362 85.7109 61.9951 85.5127 61.5166 85.499ZM 67.9971 88.2881L 64.75 88.2881L 64.9346 87.2559L 68.1816 87.2559L 67.9971 88.2881ZM 71.292 90.2705L 73.958 84.6035L 75.2637 84.6035L 71.5381 92L 70.5947 92L 69.1455 84.6035L 70.3623 84.6035L 71.292 90.2705ZM 78.3535 92.1367C 77.4329 92.1185 76.7129 91.779 76.1934 91.1182C 75.6738 90.4574 75.4551 89.612 75.5371 88.582L 75.5713 88.2881C 75.6488 87.5544 75.8652 86.8844 76.2207 86.2783C 76.5807 85.6722 77.0182 85.2165 77.5332 84.9111C 78.0482 84.6012 78.6042 84.4531 79.2012 84.4668C 79.9622 84.485 80.5592 84.738 80.9922 85.2256C 81.4251 85.7132 81.6621 86.374 81.7031 87.208C 81.7168 87.5042 81.7077 87.8005 81.6758 88.0967L 81.6006 88.6641L 76.7676 88.6641C 76.6855 89.334 76.7949 89.9036 77.0957 90.373C 77.401 90.8424 77.8545 91.0863 78.4561 91.1045C 79.1852 91.1227 79.8597 90.7946 80.4795 90.1201L 81.1904 90.7217C 80.8805 91.1683 80.4795 91.5192 79.9873 91.7744C 79.4997 92.0251 78.9551 92.1458 78.3535 92.1367ZM 79.1396 85.499C 78.6292 85.4854 78.1826 85.6585 77.7998 86.0186C 77.4215 86.3786 77.1208 86.9141 76.8975 87.625L 80.4932 87.6318L 80.5205 87.5225C 80.5934 86.9482 80.5 86.472 80.2402 86.0938C 79.985 85.7109 79.6182 85.5127 79.1396 85.499ZM 87.0146 85.7314L 86.4336 85.6699C 85.6406 85.6699 85.0163 86.0277 84.5605 86.7432L 83.6514 92L 82.4141 92L 83.6992 84.6035L 84.8955 84.5967L 84.7109 85.458C 85.235 84.7699 85.8525 84.4349 86.5635 84.4531C 86.7139 84.4531 86.9098 84.4873 87.1514 84.5557L 87.0146 85.7314ZM 91.6562 89.9971C 91.7246 89.4867 91.4443 89.1266 90.8154 88.917L 89.5303 88.541C 88.4456 88.1673 87.9215 87.5475 87.958 86.6816C 87.9899 86.0299 88.2861 85.4967 88.8467 85.082C 89.4118 84.6628 90.0749 84.4577 90.8359 84.4668C 91.5833 84.4759 92.1895 84.6947 92.6543 85.123C 93.1237 85.5469 93.3493 86.1006 93.3311 86.7842L 92.1006 86.7773C 92.1097 86.4082 91.9935 86.1074 91.752 85.875C 91.5104 85.6426 91.1891 85.5218 90.7881 85.5127C 90.3597 85.5036 89.9906 85.6084 89.6807 85.8271C 89.3936 86.0322 89.2272 86.3011 89.1816 86.6338C 89.1224 87.0622 89.3844 87.3743 89.9678 87.5703L 90.5898 87.7412C 91.4375 87.96 92.0391 88.2448 92.3945 88.5957C 92.75 88.9466 92.9141 89.3818 92.8867 89.9014C 92.8594 90.3617 92.709 90.7627 92.4355 91.1045C 92.1621 91.4463 91.7975 91.7083 91.3418 91.8906C 90.8861 92.0684 90.4007 92.1504 89.8857 92.1367C 89.1019 92.1276 88.4548 91.8997 87.9443 91.4531C 87.4339 91.002 87.1878 90.4232 87.2061 89.7168L 88.4434 89.7236C 88.4434 90.1383 88.5755 90.471 88.8398 90.7217C 89.1042 90.9723 89.4665 91.0977 89.9268 91.0977C 90.3779 91.1068 90.7676 91.0133 91.0957 90.8174C 91.4238 90.6169 91.6107 90.3434 91.6562 89.9971ZM 98.6699 92C 98.638 91.8678 98.6221 91.738 98.6221 91.6104L 98.6426 91.2207C 97.9635 91.8496 97.2435 92.1549 96.4824 92.1367C 95.8307 92.1276 95.2998 91.9225 94.8896 91.5215C 94.484 91.1159 94.2995 90.61 94.3359 90.0039C 94.3815 89.2201 94.7233 88.6094 95.3613 88.1719C 96.0039 87.7298 96.847 87.5088 97.8906 87.5088L 99.1826 87.5156L 99.2646 86.9277C 99.3102 86.4857 99.2236 86.137 99.0049 85.8818C 98.7907 85.6221 98.4671 85.4876 98.0342 85.4785C 97.6104 85.4694 97.2344 85.5742 96.9062 85.793C 96.5827 86.0072 96.3844 86.292 96.3115 86.6475L 95.0674 86.6543C 95.1084 86.2214 95.277 85.8385 95.5732 85.5059C 95.8695 85.1686 96.25 84.9089 96.7148 84.7266C 97.1797 84.5397 97.6605 84.4508 98.1572 84.46C 98.9274 84.4782 99.5267 84.7129 99.9551 85.1641C 100.383 85.6107 100.563 86.2054 100.495 86.9482L 99.8936 90.6123L 99.8594 91.1387C 99.8503 91.3893 99.8776 91.6377 99.9414 91.8838L 99.9277 92L 98.6699 92ZM 96.7285 91.043C 97.125 91.0521 97.4987 90.9587 97.8496 90.7627C 98.2051 90.5622 98.5104 90.2865 98.7656 89.9355L 99.0322 88.4111L 98.0957 88.4043C 97.3164 88.4043 96.7194 88.5273 96.3047 88.7734C 95.89 89.0195 95.6553 89.3682 95.6006 89.8193C 95.5596 90.1657 95.6393 90.4551 95.8398 90.6875C 96.0449 90.9154 96.3411 91.0339 96.7285 91.043ZM 102.519 90.5645C 102.742 90.5599 102.926 90.6283 103.072 90.7695C 103.218 90.9108 103.289 91.0931 103.284 91.3164C 103.28 91.5397 103.204 91.722 103.059 91.8633C 102.913 92 102.73 92.0729 102.512 92.082C 102.293 92.0911 102.113 92.0296 101.972 91.8975C 101.83 91.7607 101.76 91.5807 101.76 91.3574C 101.76 91.1341 101.83 90.9495 101.972 90.8037C 102.113 90.6533 102.295 90.5736 102.519 90.5645Z"/>
</defs>
</svg>
