<svg width="1120" height="284" viewBox="0 0 1120 284" version="1.1" xmlns="http://www.w3.org/2000/svg" xmlns:xlink="http://www.w3.org/1999/xlink">
<title>Frame</title>
<desc>Created using Figma</desc>
<g id="Canvas" transform="matrix(2 0 0 2 264 1718)">
<clipPath id="clip-0" clip-rule="evenodd">
<path d="M -132 -859L 428 -859L 428 -717L -132 -717L -132 -859Z" fill="#FFFFFF"/>
</clipPath>
<g id="Frame" clip-path="url(#clip-0)">
<path d="M -132 -859L 428 -859L 428 -717L -132 -717L -132 -859Z" fill="#FFFFFF"/>
<g id="Group">
<g id="Rectangle">
<use xlink:href="#path0_stroke" transform="translate(58 -850)"/>
</g>
<g id="False">
<use xlink:href="#path1_fill" transform="translate(59.2046 -844.7)" fill="#EB5757"/>
</g>
<g id="Rectangle">
<use xlink:href="#path0_stroke" transform="translate(58 -823.5)"/>
</g>
<g id="True">
<use xlink:href="#path2_fill" transform="translate(59.2046 -818.2)" fill="#27AE60"/>
</g>
<g id="Rectangle">
<use xlink:href="#path0_stroke" transform="translate(58 -797)"/>
</g>
<g id="False">
<use xlink:href="#path1_fill" transform="translate(59.2046 -791.7)" fill="#EB5757"/>
</g>
<g id="Rectangle">
<use xlink:href="#path0_stroke" transform="translate(58 -770.5)"/>
</g>
<g id="True">
<use xlink:href="#path2_fill" transform="translate(59.2046 -765.2)" fill="#27AE60"/>
</g>
</g>
<g id="a">
<use xlink:href="#path3_fill" transform="translate(49 -744)" fill="#4F4F4F"/>
</g>
<g id="x">
<use xlink:href="#path4_fill" transform="translate(40 -821)" fill="#828282"/>
</g>
<g id="y">
<use xlink:href="#path5_fill" transform="translate(40 -793)" fill="#828282"/>
</g>
<g id="z">
<use xlink:href="#path6_fill" transform="translate(40 -767)" fill="#828282"/>
</g>
<g id="w">
<use xlink:href="#path7_fill" transform="translate(40 -846)" fill="#828282"/>
</g>
<g id="Group">
<g id="Rectangle">
<use xlink:href="#path0_stroke" transform="translate(192 -850)"/>
</g>
<g id="True">
<use xlink:href="#path2_fill" transform="translate(193.205 -844.7)" fill="#27AE60"/>
</g>
<g id="Rectangle">
<use xlink:href="#path0_stroke" transform="translate(192 -823.5)"/>
</g>
<g id="False">
<use xlink:href="#path1_fill" transform="translate(193.205 -818.2)" fill="#EB5757"/>
</g>
<g id="Rectangle">
<use xlink:href="#path0_stroke" transform="translate(192 -797)"/>
</g>
<g id="False">
<use xlink:href="#path1_fill" transform="translate(193.205 -791.7)" fill="#EB5757"/>
</g>
<g id="Rectangle">
<use xlink:href="#path0_stroke" transform="translate(192 -770.5)"/>
</g>
<g id="True">
<use xlink:href="#path2_fill" transform="translate(193.205 -765.2)" fill="#27AE60"/>
</g>
</g>
<g id="b">
<use xlink:href="#path8_fill" transform="translate(183 -744)" fill="#4F4F4F"/>
</g>
<g id="x">
<use xlink:href="#path4_fill" transform="translate(174 -821)" fill="#828282"/>
</g>
<g id="y">
<use xlink:href="#path5_fill" transform="translate(174 -793)" fill="#828282"/>
</g>
<g id="z">
<use xlink:href="#path6_fill" transform="translate(174 -767)" fill="#828282"/>
</g>
<g id="w">
<use xlink:href="#path7_fill" transform="translate(174 -846)" fill="#828282"/>
</g>
</g>
</g>
<defs>
<path id="path0_stroke" d="M 0 0L 0 -0.5L -0.5 -0.5L -0.5 0L 0 0ZM 53 0L 53.5 0L 53.5 -0.5L 53 -0.5L 53 0ZM 53 26.5L 53 27L 53.5 27L 53.5 26.5L 53 26.5ZM 0 26.5L -0.5 26.5L -0.5 27L 0 27L 0 26.5ZM 0 0.5L 53 0.5L 53 -0.5L 0 -0.5L 0 0.5ZM 52.5 0L 52.5 26.5L 53.5 26.5L 53.5 0L 52.5 0ZM 53 26L 0 26L 0 27L 53 27L 53 26ZM 0.5 26.5L 0.5 0L -0.5 0L -0.5 26.5L 0.5 26.5Z"/>
<path id="path1_fill" d="M 15.6571 8.60449L 11.4804 8.60449L 11.4804 13L 10.1679 13L 10.1679 3.04688L 16.3339 3.04688L 16.3339 4.12695L 11.4804 4.12695L 11.4804 7.53125L 15.6571 7.53125L 15.6571 8.60449ZM 22.0419 13C 21.969 12.8542 21.9097 12.5944 21.8642 12.2207C 21.2763 12.8314 20.5745 13.1367 19.7587 13.1367C 19.0295 13.1367 18.4302 12.9316 17.9608 12.5215C 17.496 12.1068 17.2636 11.5827 17.2636 10.9492C 17.2636 10.179 17.5552 9.58203 18.1386 9.1582C 18.7265 8.72982 19.5513 8.51562 20.6132 8.51562L 21.8437 8.51562L 21.8437 7.93457C 21.8437 7.49251 21.7115 7.1416 21.4472 6.88184C 21.1829 6.61751 20.7932 6.48535 20.2782 6.48535C 19.8271 6.48535 19.4488 6.59928 19.1435 6.82715C 18.8381 7.05501 18.6855 7.33073 18.6855 7.6543L 17.414 7.6543C 17.414 7.28516 17.5439 6.92969 17.8036 6.58789C 18.0679 6.24154 18.4234 5.9681 18.87 5.76758C 19.3212 5.56706 19.8157 5.4668 20.3534 5.4668C 21.2056 5.4668 21.8733 5.68099 22.3564 6.10938C 22.8394 6.5332 23.0901 7.11882 23.1083 7.86621L 23.1083 11.2705C 23.1083 11.9495 23.1949 12.4896 23.3681 12.8906L 23.3681 13L 22.0419 13ZM 19.9433 12.0361C 20.3398 12.0361 20.7157 11.9336 21.0712 11.7285C 21.4267 11.5234 21.6842 11.2568 21.8437 10.9287L 21.8437 9.41113L 20.8524 9.41113C 19.303 9.41113 18.5282 9.86458 18.5282 10.7715C 18.5282 11.168 18.6604 11.4779 18.9247 11.7012C 19.189 11.9245 19.5286 12.0361 19.9433 12.0361ZM 26.4648 13L 25.2001 13L 25.2001 2.5L 26.4648 2.5L 26.4648 13ZM 32.8017 11.0381C 32.8017 10.6963 32.6718 10.432 32.412 10.2451C 32.1568 10.0537 31.7079 9.88965 31.0653 9.75293C 30.4273 9.61621 29.9192 9.45215 29.5409 9.26074C 29.1672 9.06934 28.8892 8.84147 28.7069 8.57715C 28.5292 8.31283 28.4403 7.99837 28.4403 7.63379C 28.4403 7.02767 28.6955 6.51497 29.206 6.0957C 29.7209 5.67643 30.3772 5.4668 31.1747 5.4668C 32.0133 5.4668 32.6923 5.68327 33.2118 6.11621C 33.7359 6.54915 33.998 7.10286 33.998 7.77734L 32.7265 7.77734C 32.7265 7.43099 32.5784 7.13249 32.2821 6.88184C 31.9905 6.63118 31.6213 6.50586 31.1747 6.50586C 30.7144 6.50586 30.3544 6.60612 30.0946 6.80664C 29.8349 7.00716 29.705 7.26921 29.705 7.59277C 29.705 7.89811 29.8258 8.12826 30.0673 8.2832C 30.3088 8.43815 30.7441 8.58626 31.373 8.72754C 32.0064 8.86882 32.5191 9.03743 32.911 9.2334C 33.303 9.42936 33.5924 9.66634 33.7792 9.94434C 33.9706 10.2178 34.0663 10.5527 34.0663 10.9492C 34.0663 11.61 33.802 12.141 33.2733 12.542C 32.7447 12.9385 32.0588 13.1367 31.2157 13.1367C 30.6233 13.1367 30.0992 13.0319 29.6435 12.8223C 29.1877 12.6126 28.83 12.321 28.5702 11.9473C 28.315 11.569 28.1874 11.1611 28.1874 10.7236L 29.4521 10.7236C 29.4748 11.1475 29.6435 11.4847 29.9579 11.7354C 30.2769 11.9814 30.6962 12.1045 31.2157 12.1045C 31.6942 12.1045 32.0771 12.0088 32.3642 11.8174C 32.6558 11.6214 32.8017 11.3617 32.8017 11.0381ZM 38.7831 13.1367C 37.7805 13.1367 36.9648 12.8086 36.3358 12.1523C 35.7069 11.4915 35.3925 10.6097 35.3925 9.50684L 35.3925 9.27441C 35.3925 8.54069 35.5315 7.88672 35.8095 7.3125C 36.092 6.73372 36.484 6.28255 36.9853 5.95898C 37.4911 5.63086 38.038 5.4668 38.6259 5.4668C 39.5875 5.4668 40.3349 5.78353 40.8681 6.41699C 41.4013 7.05046 41.6679 7.95736 41.6679 9.1377L 41.6679 9.66406L 36.6571 9.66406C 36.6754 10.3932 36.8873 10.9834 37.2929 11.4346C 37.703 11.8812 38.2226 12.1045 38.8515 12.1045C 39.2981 12.1045 39.6763 12.0133 39.9862 11.8311C 40.2961 11.6488 40.5673 11.4072 40.7997 11.1064L 41.5722 11.708C 40.9524 12.6605 40.0227 13.1367 38.7831 13.1367ZM 38.6259 6.50586C 38.1155 6.50586 37.6871 6.69271 37.3407 7.06641C 36.9944 7.43555 36.7802 7.95508 36.6982 8.625L 40.4032 8.625L 40.4032 8.5293C 40.3668 7.88672 40.1936 7.38997 39.8837 7.03906C 39.5738 6.68359 39.1545 6.50586 38.6259 6.50586Z"/>
<path id="path2_fill" d="M 19.7655 4.12695L 16.5663 4.12695L 16.5663 13L 15.2607 13L 15.2607 4.12695L 12.0683 4.12695L 12.0683 3.04688L 19.7655 3.04688L 19.7655 4.12695ZM 24.0995 6.73828C 23.9081 6.70638 23.7008 6.69043 23.4774 6.69043C 22.648 6.69043 22.0852 7.04362 21.789 7.75L 21.789 13L 20.5243 13L 20.5243 5.60352L 21.7548 5.60352L 21.7753 6.45801C 22.19 5.7972 22.7779 5.4668 23.539 5.4668C 23.7851 5.4668 23.9719 5.4987 24.0995 5.5625L 24.0995 6.73828ZM 29.8349 12.2686C 29.3427 12.8473 28.6204 13.1367 27.6679 13.1367C 26.8795 13.1367 26.2779 12.9089 25.8632 12.4531C 25.453 11.9928 25.2457 11.3138 25.2411 10.416L 25.2411 5.60352L 26.5058 5.60352L 26.5058 10.3818C 26.5058 11.5029 26.9615 12.0635 27.873 12.0635C 28.8391 12.0635 29.4817 11.7035 29.8007 10.9834L 29.8007 5.60352L 31.0653 5.60352L 31.0653 13L 29.8622 13L 29.8349 12.2686ZM 36.0624 13.1367C 35.0598 13.1367 34.244 12.8086 33.6151 12.1523C 32.9862 11.4915 32.6718 10.6097 32.6718 9.50684L 32.6718 9.27441C 32.6718 8.54069 32.8108 7.88672 33.0888 7.3125C 33.3713 6.73372 33.7633 6.28255 34.2646 5.95898C 34.7704 5.63086 35.3173 5.4668 35.9052 5.4668C 36.8668 5.4668 37.6142 5.78353 38.1474 6.41699C 38.6806 7.05046 38.9472 7.95736 38.9472 9.1377L 38.9472 9.66406L 33.9364 9.66406C 33.9547 10.3932 34.1666 10.9834 34.5722 11.4346C 34.9823 11.8812 35.5019 12.1045 36.1308 12.1045C 36.5774 12.1045 36.9556 12.0133 37.2655 11.8311C 37.5754 11.6488 37.8466 11.4072 38.079 11.1064L 38.8515 11.708C 38.2317 12.6605 37.302 13.1367 36.0624 13.1367ZM 35.9052 6.50586C 35.3948 6.50586 34.9664 6.69271 34.62 7.06641C 34.2737 7.43555 34.0595 7.95508 33.9774 8.625L 37.6825 8.625L 37.6825 8.5293C 37.6461 7.88672 37.4729 7.38997 37.163 7.03906C 36.8531 6.68359 36.4338 6.50586 35.9052 6.50586Z"/>
<path id="path3_fill" d="M 32.6567 12.068C 32.6567 11.676 32.7407 11.3353 32.9087 11.046C 33.0767 10.7473 33.3427 10.4953 33.7067 10.29C 34.0801 10.0847 34.5561 9.92133 35.1347 9.8C 35.7134 9.66933 36.4134 9.58067 37.2347 9.534C 37.1974 9.21667 37.0574 8.96933 36.8147 8.792C 36.5814 8.61467 36.2267 8.526 35.7507 8.526C 35.4147 8.526 35.0741 8.58667 34.7287 8.708C 34.3927 8.82 34.0287 8.974 33.6367 9.17L 32.9087 7.826C 33.3847 7.55533 33.8934 7.33133 34.4347 7.154C 34.9854 6.97667 35.5594 6.888 36.1567 6.888C 37.1274 6.888 37.8927 7.14467 38.4527 7.658C 39.0127 8.17133 39.2927 8.96 39.2927 10.024L 39.2927 14L 37.6127 14L 37.4587 13.216L 37.4027 13.216C 37.0481 13.4867 36.6607 13.7153 36.2407 13.902C 35.8207 14.0793 35.3867 14.168 34.9387 14.168C 34.5841 14.168 34.2667 14.112 33.9867 14C 33.7067 13.8973 33.4687 13.7527 33.2727 13.566C 33.0767 13.37 32.9227 13.146 32.8107 12.894C 32.7081 12.642 32.6567 12.3667 32.6567 12.068ZM 34.6307 11.914C 34.6307 12.138 34.7147 12.306 34.8827 12.418C 35.0601 12.5207 35.2981 12.572 35.5967 12.572C 35.9047 12.572 36.1941 12.5113 36.4647 12.39C 36.7354 12.2593 36.9921 12.1007 37.2347 11.914L 37.2347 10.766C 36.7214 10.794 36.2967 10.8407 35.9607 10.906C 35.6247 10.9713 35.3587 11.0553 35.1627 11.158C 34.9667 11.2513 34.8267 11.3633 34.7427 11.494C 34.6681 11.6247 34.6307 11.7647 34.6307 11.914Z"/>
<path id="path4_fill" d="M 8.46582 8.30371L 10.1064 5.60352L 11.583 5.60352L 9.16309 9.26074L 11.6582 13L 10.1953 13L 8.48633 10.2314L 6.77734 13L 5.30762 13L 7.80273 9.26074L 5.38281 5.60352L 6.8457 5.60352L 8.46582 8.30371Z"/>
<path id="path5_fill" d="M 8.56152 11.1475L 10.2842 5.60352L 11.6377 5.60352L 8.66406 14.1416C 8.20378 15.3721 7.47233 15.9873 6.46973 15.9873L 6.23047 15.9668L 5.75879 15.8779L 5.75879 14.8525L 6.10059 14.8799C 6.52897 14.8799 6.86165 14.7933 7.09863 14.6201C 7.34017 14.4469 7.53841 14.1302 7.69336 13.6699L 7.97363 12.918L 5.33496 5.60352L 6.71582 5.60352L 8.56152 11.1475Z"/>
<path id="path6_fill" d="M 7.17383 11.9678L 11.501 11.9678L 11.501 13L 5.62891 13L 5.62891 12.0703L 9.70996 6.64941L 5.69043 6.64941L 5.69043 5.60352L 11.2959 5.60352L 11.2959 6.49902L 7.17383 11.9678Z"/>
<path id="path7_fill" d="M 10.7422 11.2568L 12.1641 5.60352L 13.4287 5.60352L 11.2754 13L 10.25 13L 8.45215 7.39453L 6.70215 13L 5.67676 13L 3.53027 5.60352L 4.78809 5.60352L 6.24414 11.1406L 7.9668 5.60352L 8.98535 5.60352L 10.7422 11.2568Z"/>
<path id="path8_fill" d="M 32.8107 4.186L 34.8687 4.186L 34.8687 6.594L 34.8127 7.686C 35.0834 7.434 35.3867 7.238 35.7227 7.098C 36.0681 6.958 36.4087 6.888 36.7447 6.888C 37.1741 6.888 37.5614 6.972 37.9067 7.14C 38.2614 7.308 38.5554 7.546 38.7887 7.854C 39.0314 8.15267 39.2181 8.52133 39.3487 8.96C 39.4794 9.38933 39.5447 9.87 39.5447 10.402C 39.5447 10.9993 39.4607 11.5313 39.2927 11.998C 39.1247 12.4647 38.9007 12.8613 38.6207 13.188C 38.3407 13.5053 38.0187 13.748 37.6547 13.916C 37.3001 14.084 36.9267 14.168 36.5347 14.168C 36.2081 14.168 35.8814 14.0887 35.5547 13.93C 35.2374 13.7713 34.9341 13.5427 34.6447 13.244L 34.5887 13.244L 34.4207 14L 32.8107 14L 32.8107 4.186ZM 34.8687 12.026C 35.0647 12.194 35.2654 12.3153 35.4707 12.39C 35.6854 12.4553 35.8861 12.488 36.0727 12.488C 36.4554 12.488 36.7774 12.3293 37.0387 12.012C 37.3001 11.6853 37.4307 11.1627 37.4307 10.444C 37.4307 9.19333 37.0061 8.568 36.1567 8.568C 35.7181 8.568 35.2887 8.78267 34.8687 9.212L 34.8687 12.026Z"/>
</defs>
</svg>
