<svg width="1120" height="336" viewBox="0 0 1120 336" version="1.1" xmlns="http://www.w3.org/2000/svg" xmlns:xlink="http://www.w3.org/1999/xlink">
<title>Frame</title>
<desc>Created using Figma</desc>
<g id="Canvas" transform="matrix(2 0 0 2 252 188)">
<clipPath id="clip-0" clip-rule="evenodd">
<path d="M -126 -94L 434 -94L 434 74L -126 74L -126 -94Z" fill="#FFFFFF"/>
</clipPath>
<g id="Frame" clip-path="url(#clip-0)">
<path d="M -126 -94L 434 -94L 434 74L -126 74L -126 -94Z" fill="#FFFFFF"/>
<g id="Group 2">
<g id="Rectangle">
<use xlink:href="#path0_stroke" transform="translate(-108 -68)"/>
</g>
<g id="False">
<use xlink:href="#path1_fill" transform="translate(-106.795 -62.7)" fill="#EB5757"/>
</g>
<g id="Rectangle">
<use xlink:href="#path0_stroke" transform="translate(-108 -41.5)"/>
</g>
<g id="True">
<use xlink:href="#path2_fill" transform="translate(-106.795 -36.2)" fill="#27AE60"/>
</g>
<g id="Rectangle">
<use xlink:href="#path0_stroke" transform="translate(-108 -15)"/>
</g>
<g id="True">
<use xlink:href="#path2_fill" transform="translate(-106.795 -9.70001)" fill="#27AE60"/>
</g>
<g id="Rectangle">
<use xlink:href="#path0_stroke" transform="translate(-108 11.5)"/>
</g>
<g id="True">
<use xlink:href="#path2_fill" transform="translate(-106.795 16.8)" fill="#27AE60"/>
</g>
<g id="x">
<use xlink:href="#path3_fill" transform="translate(-126 -39)" fill="#828282"/>
</g>
<g id="y">
<use xlink:href="#path4_fill" transform="translate(-126 -11)" fill="#828282"/>
</g>
<g id="z">
<use xlink:href="#path5_fill" transform="translate(-126 15)" fill="#828282"/>
</g>
<g id="w">
<use xlink:href="#path6_fill" transform="translate(-126 -64)" fill="#828282"/>
</g>
<g id="E">
<use xlink:href="#path7_fill" transform="translate(-90 -88)" fill="#828282"/>
</g>
<g id="F">
<use xlink:href="#path8_fill" transform="translate(-37 -88)" fill="#828282"/>
</g>
<g id="Rectangle">
<use xlink:href="#path0_stroke" transform="translate(-55 -68)"/>
</g>
<g id="False">
<use xlink:href="#path1_fill" transform="translate(-53.7954 -62.7)" fill="#EB5757"/>
</g>
<g id="Rectangle">
<use xlink:href="#path0_stroke" transform="translate(-55 -41.5)"/>
</g>
<g id="False">
<use xlink:href="#path1_fill" transform="translate(-53.7954 -36.2)" fill="#EB5757"/>
</g>
<g id="Rectangle">
<use xlink:href="#path0_stroke" transform="translate(-55 -15)"/>
</g>
<g id="False">
<use xlink:href="#path1_fill" transform="translate(-53.7954 -9.70001)" fill="#EB5757"/>
</g>
<g id="Rectangle">
<use xlink:href="#path0_stroke" transform="translate(-55 11.5)"/>
</g>
<g id="df">
<use xlink:href="#path9_fill" transform="translate(-108 42)" fill="#4F4F4F"/>
</g>
<g id="True">
<use xlink:href="#path2_fill" transform="translate(-53.7954 16.8)" fill="#27AE60"/>
</g>
</g>
<g id="Group">
<g id="Rectangle">
<use xlink:href="#path0_stroke" transform="translate(188 -67)"/>
</g>
<g id="True">
<use xlink:href="#path2_fill" transform="translate(189.205 -61.7)" fill="#27AE60"/>
</g>
<g id="Rectangle">
<use xlink:href="#path0_stroke" transform="translate(188 -40.5)"/>
</g>
<g id="True">
<use xlink:href="#path2_fill" transform="translate(189.205 -35.2)" fill="#27AE60"/>
</g>
<g id="Rectangle">
<use xlink:href="#path0_stroke" transform="translate(188 -14)"/>
</g>
<g id="False">
<use xlink:href="#path1_fill" transform="translate(189.205 -8.70001)" fill="#EB5757"/>
</g>
<g id="Rectangle">
<use xlink:href="#path0_stroke" transform="translate(188 12.5)"/>
</g>
<g id="True">
<use xlink:href="#path2_fill" transform="translate(189.205 17.8)" fill="#27AE60"/>
</g>
<g id="1">
<use xlink:href="#path10_fill" transform="translate(179 42)" fill="#4F4F4F"/>
</g>
<g id="x">
<use xlink:href="#path3_fill" transform="translate(170 -38)" fill="#828282"/>
</g>
<g id="y">
<use xlink:href="#path4_fill" transform="translate(170 -10)" fill="#828282"/>
</g>
<g id="z">
<use xlink:href="#path5_fill" transform="translate(170 16)" fill="#828282"/>
</g>
<g id="w">
<use xlink:href="#path6_fill" transform="translate(170 -63)" fill="#828282"/>
</g>
</g>
<g id="Group">
<g id="Rectangle">
<use xlink:href="#path0_stroke" transform="translate(279 -67)"/>
</g>
<g id="True">
<use xlink:href="#path2_fill" transform="translate(280.205 -61.7)" fill="#27AE60"/>
</g>
<g id="Rectangle">
<use xlink:href="#path0_stroke" transform="translate(279 -40.5)"/>
</g>
<g id="True">
<use xlink:href="#path2_fill" transform="translate(280.205 -35.2)" fill="#27AE60"/>
</g>
<g id="Rectangle">
<use xlink:href="#path0_stroke" transform="translate(279 -14)"/>
</g>
<g id="True">
<use xlink:href="#path2_fill" transform="translate(280.205 -8.70001)" fill="#27AE60"/>
</g>
<g id="Rectangle">
<use xlink:href="#path0_stroke" transform="translate(279 12.5)"/>
</g>
<g id="False">
<use xlink:href="#path1_fill" transform="translate(280.205 17.8)" fill="#EB5757"/>
</g>
<g id="2">
<use xlink:href="#path11_fill" transform="translate(270 42)" fill="#4F4F4F"/>
</g>
<g id="x">
<use xlink:href="#path3_fill" transform="translate(261 -38)" fill="#828282"/>
</g>
<g id="y">
<use xlink:href="#path4_fill" transform="translate(261 -10)" fill="#828282"/>
</g>
<g id="z">
<use xlink:href="#path5_fill" transform="translate(261 16)" fill="#828282"/>
</g>
<g id="w">
<use xlink:href="#path6_fill" transform="translate(261 -63)" fill="#828282"/>
</g>
</g>
<g id="Group">
<g id="Rectangle">
<use xlink:href="#path0_stroke" transform="translate(371 -67)"/>
</g>
<g id="True">
<use xlink:href="#path2_fill" transform="translate(372.205 -61.7)" fill="#27AE60"/>
</g>
<g id="Rectangle">
<use xlink:href="#path0_stroke" transform="translate(371 -40.5)"/>
</g>
<g id="False">
<use xlink:href="#path1_fill" transform="translate(372.205 -35.2)" fill="#EB5757"/>
</g>
<g id="Rectangle">
<use xlink:href="#path0_stroke" transform="translate(371 -14)"/>
</g>
<g id="False">
<use xlink:href="#path1_fill" transform="translate(372.205 -8.70001)" fill="#EB5757"/>
</g>
<g id="Rectangle">
<use xlink:href="#path0_stroke" transform="translate(371 12.5)"/>
</g>
<g id="False">
<use xlink:href="#path1_fill" transform="translate(372.205 17.8)" fill="#EB5757"/>
</g>
<g id="3">
<use xlink:href="#path12_fill" transform="translate(362 42)" fill="#4F4F4F"/>
</g>
<g id="x">
<use xlink:href="#path3_fill" transform="translate(353 -38)" fill="#828282"/>
</g>
<g id="y">
<use xlink:href="#path4_fill" transform="translate(353 -10)" fill="#828282"/>
</g>
<g id="z">
<use xlink:href="#path5_fill" transform="translate(353 16)" fill="#828282"/>
</g>
<g id="w">
<use xlink:href="#path6_fill" transform="translate(353 -63)" fill="#828282"/>
</g>
</g>
<g id="Group">
<g id="Rectangle">
<use xlink:href="#path13_fill" transform="translate(37 -40)" fill="#F1F4F8"/>
</g>
<g id="~df[&#34;E&#34;]">
<use xlink:href="#path14_fill" transform="translate(37 -39)" fill="#A541F8"/>
<use xlink:href="#path15_fill" transform="translate(37 -39)" fill="#2E383C"/>
<use xlink:href="#path16_fill" transform="translate(37 -39)" fill="#B82629"/>
</g>
</g>
<g id="Line">
<use xlink:href="#path17_stroke" transform="matrix(6.12323e-17 1 -1 6.12323e-17 166 -90)"/>
</g>
</g>
</g>
<defs>
<path id="path0_stroke" d="M 0 0L 0 -0.5L -0.5 -0.5L -0.5 0L 0 0ZM 53 0L 53.5 0L 53.5 -0.5L 53 -0.5L 53 0ZM 53 26.5L 53 27L 53.5 27L 53.5 26.5L 53 26.5ZM 0 26.5L -0.5 26.5L -0.5 27L 0 27L 0 26.5ZM 0 0.5L 53 0.5L 53 -0.5L 0 -0.5L 0 0.5ZM 52.5 0L 52.5 26.5L 53.5 26.5L 53.5 0L 52.5 0ZM 53 26L 0 26L 0 27L 53 27L 53 26ZM 0.5 26.5L 0.5 0L -0.5 0L -0.5 26.5L 0.5 26.5Z"/>
<path id="path1_fill" d="M 15.6571 8.60449L 11.4804 8.60449L 11.4804 13L 10.1679 13L 10.1679 3.04688L 16.3339 3.04688L 16.3339 4.12695L 11.4804 4.12695L 11.4804 7.53125L 15.6571 7.53125L 15.6571 8.60449ZM 22.0419 13C 21.969 12.8542 21.9097 12.5944 21.8642 12.2207C 21.2763 12.8314 20.5745 13.1367 19.7587 13.1367C 19.0295 13.1367 18.4302 12.9316 17.9608 12.5215C 17.496 12.1068 17.2636 11.5827 17.2636 10.9492C 17.2636 10.179 17.5552 9.58203 18.1386 9.1582C 18.7265 8.72982 19.5513 8.51562 20.6132 8.51562L 21.8437 8.51562L 21.8437 7.93457C 21.8437 7.49251 21.7115 7.1416 21.4472 6.88184C 21.1829 6.61751 20.7932 6.48535 20.2782 6.48535C 19.8271 6.48535 19.4488 6.59928 19.1435 6.82715C 18.8381 7.05501 18.6855 7.33073 18.6855 7.6543L 17.414 7.6543C 17.414 7.28516 17.5439 6.92969 17.8036 6.58789C 18.0679 6.24154 18.4234 5.9681 18.87 5.76758C 19.3212 5.56706 19.8157 5.4668 20.3534 5.4668C 21.2056 5.4668 21.8733 5.68099 22.3564 6.10938C 22.8394 6.5332 23.0901 7.11882 23.1083 7.86621L 23.1083 11.2705C 23.1083 11.9495 23.1949 12.4896 23.3681 12.8906L 23.3681 13L 22.0419 13ZM 19.9433 12.0361C 20.3398 12.0361 20.7157 11.9336 21.0712 11.7285C 21.4267 11.5234 21.6842 11.2568 21.8437 10.9287L 21.8437 9.41113L 20.8524 9.41113C 19.303 9.41113 18.5282 9.86458 18.5282 10.7715C 18.5282 11.168 18.6604 11.4779 18.9247 11.7012C 19.189 11.9245 19.5286 12.0361 19.9433 12.0361ZM 26.4648 13L 25.2001 13L 25.2001 2.5L 26.4648 2.5L 26.4648 13ZM 32.8017 11.0381C 32.8017 10.6963 32.6718 10.432 32.412 10.2451C 32.1568 10.0537 31.7079 9.88965 31.0653 9.75293C 30.4273 9.61621 29.9192 9.45215 29.5409 9.26074C 29.1672 9.06934 28.8892 8.84147 28.7069 8.57715C 28.5292 8.31283 28.4403 7.99837 28.4403 7.63379C 28.4403 7.02767 28.6955 6.51497 29.206 6.0957C 29.7209 5.67643 30.3772 5.4668 31.1747 5.4668C 32.0133 5.4668 32.6923 5.68327 33.2118 6.11621C 33.7359 6.54915 33.998 7.10286 33.998 7.77734L 32.7265 7.77734C 32.7265 7.43099 32.5784 7.13249 32.2821 6.88184C 31.9905 6.63118 31.6213 6.50586 31.1747 6.50586C 30.7144 6.50586 30.3544 6.60612 30.0946 6.80664C 29.8349 7.00716 29.705 7.26921 29.705 7.59277C 29.705 7.89811 29.8258 8.12826 30.0673 8.2832C 30.3088 8.43815 30.7441 8.58626 31.373 8.72754C 32.0064 8.86882 32.5191 9.03743 32.911 9.2334C 33.303 9.42936 33.5924 9.66634 33.7792 9.94434C 33.9706 10.2178 34.0663 10.5527 34.0663 10.9492C 34.0663 11.61 33.802 12.141 33.2733 12.542C 32.7447 12.9385 32.0588 13.1367 31.2157 13.1367C 30.6233 13.1367 30.0992 13.0319 29.6435 12.8223C 29.1877 12.6126 28.83 12.321 28.5702 11.9473C 28.315 11.569 28.1874 11.1611 28.1874 10.7236L 29.4521 10.7236C 29.4748 11.1475 29.6435 11.4847 29.9579 11.7354C 30.2769 11.9814 30.6962 12.1045 31.2157 12.1045C 31.6942 12.1045 32.0771 12.0088 32.3642 11.8174C 32.6558 11.6214 32.8017 11.3617 32.8017 11.0381ZM 38.7831 13.1367C 37.7805 13.1367 36.9648 12.8086 36.3358 12.1523C 35.7069 11.4915 35.3925 10.6097 35.3925 9.50684L 35.3925 9.27441C 35.3925 8.54069 35.5315 7.88672 35.8095 7.3125C 36.092 6.73372 36.484 6.28255 36.9853 5.95898C 37.4911 5.63086 38.038 5.4668 38.6259 5.4668C 39.5875 5.4668 40.3349 5.78353 40.8681 6.41699C 41.4013 7.05046 41.6679 7.95736 41.6679 9.1377L 41.6679 9.66406L 36.6571 9.66406C 36.6754 10.3932 36.8873 10.9834 37.2929 11.4346C 37.703 11.8812 38.2226 12.1045 38.8515 12.1045C 39.2981 12.1045 39.6763 12.0133 39.9862 11.8311C 40.2961 11.6488 40.5673 11.4072 40.7997 11.1064L 41.5722 11.708C 40.9524 12.6605 40.0227 13.1367 38.7831 13.1367ZM 38.6259 6.50586C 38.1155 6.50586 37.6871 6.69271 37.3407 7.06641C 36.9944 7.43555 36.7802 7.95508 36.6982 8.625L 40.4032 8.625L 40.4032 8.5293C 40.3668 7.88672 40.1936 7.38997 39.8837 7.03906C 39.5738 6.68359 39.1545 6.50586 38.6259 6.50586Z"/>
<path id="path2_fill" d="M 19.7655 4.12695L 16.5663 4.12695L 16.5663 13L 15.2607 13L 15.2607 4.12695L 12.0683 4.12695L 12.0683 3.04688L 19.7655 3.04688L 19.7655 4.12695ZM 24.0995 6.73828C 23.9081 6.70638 23.7008 6.69043 23.4774 6.69043C 22.648 6.69043 22.0852 7.04362 21.789 7.75L 21.789 13L 20.5243 13L 20.5243 5.60352L 21.7548 5.60352L 21.7753 6.45801C 22.19 5.7972 22.7779 5.4668 23.539 5.4668C 23.7851 5.4668 23.9719 5.4987 24.0995 5.5625L 24.0995 6.73828ZM 29.8349 12.2686C 29.3427 12.8473 28.6204 13.1367 27.6679 13.1367C 26.8795 13.1367 26.2779 12.9089 25.8632 12.4531C 25.453 11.9928 25.2457 11.3138 25.2411 10.416L 25.2411 5.60352L 26.5058 5.60352L 26.5058 10.3818C 26.5058 11.5029 26.9615 12.0635 27.873 12.0635C 28.8391 12.0635 29.4817 11.7035 29.8007 10.9834L 29.8007 5.60352L 31.0653 5.60352L 31.0653 13L 29.8622 13L 29.8349 12.2686ZM 36.0624 13.1367C 35.0598 13.1367 34.244 12.8086 33.6151 12.1523C 32.9862 11.4915 32.6718 10.6097 32.6718 9.50684L 32.6718 9.27441C 32.6718 8.54069 32.8108 7.88672 33.0888 7.3125C 33.3713 6.73372 33.7633 6.28255 34.2646 5.95898C 34.7704 5.63086 35.3173 5.4668 35.9052 5.4668C 36.8668 5.4668 37.6142 5.78353 38.1474 6.41699C 38.6806 7.05046 38.9472 7.95736 38.9472 9.1377L 38.9472 9.66406L 33.9364 9.66406C 33.9547 10.3932 34.1666 10.9834 34.5722 11.4346C 34.9823 11.8812 35.5019 12.1045 36.1308 12.1045C 36.5774 12.1045 36.9556 12.0133 37.2655 11.8311C 37.5754 11.6488 37.8466 11.4072 38.079 11.1064L 38.8515 11.708C 38.2317 12.6605 37.302 13.1367 36.0624 13.1367ZM 35.9052 6.50586C 35.3948 6.50586 34.9664 6.69271 34.62 7.06641C 34.2737 7.43555 34.0595 7.95508 33.9774 8.625L 37.6825 8.625L 37.6825 8.5293C 37.6461 7.88672 37.4729 7.38997 37.163 7.03906C 36.8531 6.68359 36.4338 6.50586 35.9052 6.50586Z"/>
<path id="path3_fill" d="M 8.46582 8.30371L 10.1064 5.60352L 11.583 5.60352L 9.16309 9.26074L 11.6582 13L 10.1953 13L 8.48633 10.2314L 6.77734 13L 5.30762 13L 7.80273 9.26074L 5.38281 5.60352L 6.8457 5.60352L 8.46582 8.30371Z"/>
<path id="path4_fill" d="M 8.56152 11.1475L 10.2842 5.60352L 11.6377 5.60352L 8.66406 14.1416C 8.20378 15.3721 7.47233 15.9873 6.46973 15.9873L 6.23047 15.9668L 5.75879 15.8779L 5.75879 14.8525L 6.10059 14.8799C 6.52897 14.8799 6.86165 14.7933 7.09863 14.6201C 7.34017 14.4469 7.53841 14.1302 7.69336 13.6699L 7.97363 12.918L 5.33496 5.60352L 6.71582 5.60352L 8.56152 11.1475Z"/>
<path id="path5_fill" d="M 7.17383 11.9678L 11.501 11.9678L 11.501 13L 5.62891 13L 5.62891 12.0703L 9.70996 6.64941L 5.69043 6.64941L 5.69043 5.60352L 11.2959 5.60352L 11.2959 6.49902L 7.17383 11.9678Z"/>
<path id="path6_fill" d="M 10.7422 11.2568L 12.1641 5.60352L 13.4287 5.60352L 11.2754 13L 10.25 13L 8.45215 7.39453L 6.70215 13L 5.67676 13L 3.53027 5.60352L 4.78809 5.60352L 6.24414 11.1406L 7.9668 5.60352L 8.98535 5.60352L 10.7422 11.2568Z"/>
<path id="path7_fill" d="M 11.3027 8.39941L 6.98926 8.39941L 6.98926 11.9268L 12 11.9268L 12 13L 5.67676 13L 5.67676 3.04688L 11.9316 3.04688L 11.9316 4.12695L 6.98926 4.12695L 6.98926 7.32617L 11.3027 7.32617L 11.3027 8.39941Z"/>
<path id="path8_fill" d="M 11.2754 8.60449L 7.09863 8.60449L 7.09863 13L 5.78613 13L 5.78613 3.04688L 11.9521 3.04688L 11.9521 4.12695L 7.09863 4.12695L 7.09863 7.53125L 11.2754 7.53125L 11.2754 8.60449Z"/>
<path id="path9_fill" d="M 45.2635 10.528C 45.2635 9.95867 45.3475 9.45 45.5155 9.002C 45.6835 8.554 45.9028 8.176 46.1735 7.868C 46.4535 7.55067 46.7708 7.308 47.1255 7.14C 47.4801 6.972 47.8488 6.888 48.2315 6.888C 48.6328 6.888 48.9688 6.958 49.2395 7.098C 49.5101 7.22867 49.7668 7.406 50.0095 7.63L 49.9395 6.552L 49.9395 4.186L 51.9975 4.186L 51.9975 14L 50.3175 14L 50.1635 13.286L 50.1215 13.286C 49.8601 13.538 49.5615 13.748 49.2255 13.916C 48.8895 14.084 48.5441 14.168 48.1895 14.168C 47.7508 14.168 47.3495 14.084 46.9855 13.916C 46.6308 13.748 46.3228 13.51 46.0615 13.202C 45.8095 12.8847 45.6135 12.502 45.4735 12.054C 45.3335 11.606 45.2635 11.0973 45.2635 10.528ZM 47.3775 10.5C 47.3775 11.1907 47.4941 11.6947 47.7275 12.012C 47.9608 12.3293 48.2921 12.488 48.7215 12.488C 48.9548 12.488 49.1695 12.4413 49.3655 12.348C 49.5615 12.2453 49.7528 12.0773 49.9395 11.844L 49.9395 9.03C 49.7528 8.862 49.5615 8.74533 49.3655 8.68C 49.1788 8.60533 48.9828 8.568 48.7775 8.568C 48.3948 8.568 48.0635 8.72667 47.7835 9.044C 47.5128 9.36133 47.3775 9.84667 47.3775 10.5ZM 60.798 5.908C 60.3407 5.73067 59.8553 5.642 59.342 5.642C 58.894 5.642 58.5627 5.74 58.348 5.936C 58.1427 6.132 58.04 6.44 58.04 6.86L 58.04 7.056L 60.434 7.056L 60.434 8.666L 58.04 8.666L 58.04 14L 55.982 14L 55.982 8.666L 54.148 8.666L 54.148 7.14L 55.982 7.056L 55.982 6.874C 55.982 6.47267 56.0427 6.09933 56.164 5.754C 56.2853 5.40867 56.472 5.11 56.724 4.858C 56.976 4.59667 57.298 4.39133 57.69 4.242C 58.082 4.09267 58.5487 4.018 59.09 4.018C 59.4913 4.018 59.8647 4.05533 60.21 4.13C 60.5647 4.20467 60.8913 4.29333 61.19 4.396L 60.798 5.908Z"/>
<path id="path10_fill" d="M 39.3207 12.334L 39.3207 14L 32.9507 14L 32.9507 12.334L 35.2467 12.334L 35.2467 7.196L 33.4127 7.196L 33.4127 5.922C 33.9354 5.82867 34.3787 5.71667 34.7427 5.586C 35.1161 5.45533 35.4661 5.29667 35.7927 5.11L 37.3047 5.11L 37.3047 12.334L 39.3207 12.334Z"/>
<path id="path11_fill" d="M 32.6147 12.824C 33.2494 12.292 33.8281 11.7973 34.3507 11.34C 34.8734 10.8733 35.3214 10.4393 35.6947 10.038C 36.0681 9.63667 36.3574 9.25867 36.5627 8.904C 36.7681 8.54933 36.8707 8.21333 36.8707 7.896C 36.8707 7.45733 36.7447 7.126 36.4927 6.902C 36.2407 6.66867 35.8814 6.552 35.4147 6.552C 35.0601 6.552 34.7334 6.64533 34.4347 6.832C 34.1454 7.00933 33.8747 7.21933 33.6227 7.462L 32.5167 6.356C 32.7501 6.12267 32.9787 5.91733 33.2027 5.74C 33.4361 5.56267 33.6787 5.418 33.9307 5.306C 34.1921 5.18467 34.4627 5.096 34.7427 5.04C 35.0321 4.97467 35.3494 4.942 35.6947 4.942C 36.1614 4.942 36.5861 5.012 36.9687 5.152C 37.3514 5.28267 37.6781 5.474 37.9487 5.726C 38.2287 5.96867 38.4434 6.26267 38.5927 6.608C 38.7514 6.95333 38.8307 7.34067 38.8307 7.77C 38.8307 8.14333 38.7421 8.526 38.5647 8.918C 38.3874 9.30067 38.1447 9.688 37.8367 10.08C 37.5381 10.4627 37.1927 10.85 36.8007 11.242C 36.4087 11.6247 35.9981 12.0027 35.5687 12.376C 35.8207 12.348 36.0914 12.3247 36.3807 12.306C 36.6794 12.278 36.9454 12.264 37.1787 12.264L 39.2927 12.264L 39.2927 14L 32.6147 14L 32.6147 12.824Z"/>
<path id="path12_fill" d="M 33.3427 11.606C 33.6414 11.8673 33.9727 12.082 34.3367 12.25C 34.7101 12.418 35.1021 12.502 35.5127 12.502C 35.9981 12.502 36.3947 12.4133 36.7027 12.236C 37.0201 12.0493 37.1787 11.788 37.1787 11.452C 37.1787 11.256 37.1367 11.0787 37.0527 10.92C 36.9687 10.7613 36.8241 10.6307 36.6187 10.528C 36.4134 10.416 36.1381 10.332 35.7927 10.276C 35.4474 10.2107 35.0134 10.178 34.4907 10.178L 34.4907 8.722C 35.3681 8.722 35.9841 8.61467 36.3387 8.4C 36.7027 8.176 36.8847 7.88667 36.8847 7.532C 36.8847 7.224 36.7681 6.986 36.5347 6.818C 36.3014 6.64067 35.9794 6.552 35.5687 6.552C 35.2141 6.552 34.8874 6.622 34.5887 6.762C 34.2901 6.902 33.9867 7.09333 33.6787 7.336L 32.6427 6.076C 33.0814 5.72133 33.5481 5.446 34.0427 5.25C 34.5467 5.04467 35.0881 4.942 35.6667 4.942C 36.1521 4.942 36.5954 4.998 36.9967 5.11C 37.3981 5.21267 37.7434 5.37133 38.0327 5.586C 38.3221 5.79133 38.5461 6.04333 38.7047 6.342C 38.8634 6.64067 38.9427 6.986 38.9427 7.378C 38.9427 7.84467 38.7934 8.24133 38.4947 8.568C 38.1961 8.88533 37.7807 9.14667 37.2487 9.352L 37.2487 9.408C 37.8087 9.55733 38.2801 9.814 38.6627 10.178C 39.0454 10.5327 39.2367 10.9993 39.2367 11.578C 39.2367 11.9887 39.1387 12.3573 38.9427 12.684C 38.7561 13.0013 38.4994 13.272 38.1727 13.496C 37.8554 13.7107 37.4821 13.8787 37.0527 14C 36.6234 14.112 36.1754 14.168 35.7087 14.168C 34.9434 14.168 34.2854 14.056 33.7347 13.832C 33.1841 13.5987 32.7361 13.2907 32.3907 12.908L 33.3427 11.606Z"/>
<path id="path13_fill" d="M 0 0L 89 0L 89 42L 0 42L 0 0Z"/>
<path id="path14_fill" d="M 11.8179 21.136C 12.0885 20.436 12.4059 19.946 12.7699 19.666C 13.1339 19.3767 13.5165 19.232 13.9179 19.232C 14.1979 19.232 14.4452 19.2927 14.6599 19.414C 14.8745 19.526 15.0752 19.652 15.2619 19.792C 15.4485 19.932 15.6259 20.0627 15.7939 20.184C 15.9712 20.296 16.1579 20.352 16.3539 20.352C 16.5685 20.352 16.7645 20.268 16.9419 20.1C 17.1192 19.932 17.2872 19.624 17.4459 19.176L 18.4259 19.638C 18.1552 20.3287 17.8379 20.8187 17.4739 21.108C 17.1099 21.388 16.7272 21.528 16.3259 21.528C 16.0459 21.528 15.7985 21.472 15.5839 21.36C 15.3692 21.2387 15.1685 21.108 14.9819 20.968C 14.7952 20.828 14.6132 20.702 14.4359 20.59C 14.2679 20.4687 14.0859 20.408 13.8899 20.408C 13.6752 20.408 13.4792 20.4967 13.3019 20.674C 13.1245 20.842 12.9565 21.1453 12.7979 21.584L 11.8179 21.136Z"/>
<path id="path15_fill" d="M 20.0584 21.57C 20.0584 21.01 20.1424 20.506 20.3104 20.058C 20.4784 19.61 20.7024 19.232 20.9824 18.924C 21.2717 18.616 21.5984 18.378 21.9624 18.21C 22.3264 18.042 22.7044 17.958 23.0964 17.958C 23.5071 17.958 23.8571 18.0327 24.1464 18.182C 24.4451 18.322 24.7344 18.518 25.0144 18.77L 24.9444 17.608L 24.9444 15.116L 26.5684 15.116L 26.5684 25L 25.2384 25L 25.1124 24.202L 25.0704 24.202C 24.7997 24.4727 24.4824 24.7013 24.1184 24.888C 23.7637 25.0747 23.3904 25.168 22.9984 25.168C 22.5597 25.168 22.1584 25.0887 21.7944 24.93C 21.4304 24.762 21.1177 24.524 20.8564 24.216C 20.6044 23.908 20.4084 23.5347 20.2684 23.096C 20.1284 22.648 20.0584 22.1393 20.0584 21.57ZM 21.7244 21.556C 21.7244 22.3027 21.8691 22.872 22.1584 23.264C 22.4477 23.6467 22.8584 23.838 23.3904 23.838C 23.9597 23.838 24.4777 23.5627 24.9444 23.012L 24.9444 19.918C 24.7017 19.6847 24.4591 19.5213 24.2164 19.428C 23.9737 19.3347 23.7264 19.288 23.4744 19.288C 23.2317 19.288 23.0031 19.3393 22.7884 19.442C 22.5831 19.5447 22.4011 19.694 22.2424 19.89C 22.0837 20.0767 21.9577 20.31 21.8644 20.59C 21.7711 20.87 21.7244 21.192 21.7244 21.556ZM 35.5229 16.516C 35.2709 16.4133 35.0236 16.3387 34.7809 16.292C 34.5476 16.2453 34.2909 16.222 34.0109 16.222C 33.4789 16.222 33.0916 16.3527 32.8489 16.614C 32.6156 16.866 32.4989 17.2347 32.4989 17.72L 32.4989 18.126L 35.1169 18.126L 35.1169 19.4L 32.4989 19.4L 32.4989 25L 30.9029 25L 30.9029 19.4L 28.9989 19.4L 28.9989 18.196L 30.9029 18.126L 30.9029 17.748C 30.9029 17.3467 30.9589 16.9733 31.0709 16.628C 31.1829 16.2827 31.3556 15.9887 31.5889 15.746C 31.8316 15.494 32.1349 15.298 32.4989 15.158C 32.8723 15.018 33.3109 14.948 33.8149 14.948C 34.1883 14.948 34.5429 14.9807 34.8789 15.046C 35.2243 15.1113 35.5509 15.2047 35.8589 15.326L 35.5229 16.516ZM 39.0875 15.088L 43.0915 15.088L 43.0915 15.97L 40.3335 15.97L 40.3335 26.246L 43.0915 26.246L 43.0915 27.128L 39.0875 27.128L 39.0875 15.088ZM 73.8556 26.246L 73.8556 15.97L 71.1116 15.97L 71.1116 15.088L 75.1156 15.088L 75.1156 27.128L 71.1116 27.128L 71.1116 26.246L 73.8556 26.246Z"/>
<path id="path16_fill" d="M 46.04 17.188L 45.998 15.396L 47.958 15.396L 47.916 17.188L 47.496 20.422L 46.46 20.422L 46.04 17.188ZM 49.498 17.188L 49.456 15.396L 51.416 15.396L 51.374 17.188L 50.954 20.422L 49.918 20.422L 49.498 17.188ZM 54.3505 15.844L 60.2025 15.844L 60.2025 17.216L 55.9745 17.216L 55.9745 19.554L 59.5585 19.554L 59.5585 20.926L 55.9745 20.926L 55.9745 23.628L 60.3425 23.628L 60.3425 25L 54.3505 25L 54.3505 15.844ZM 62.8291 17.188L 62.7871 15.396L 64.7471 15.396L 64.7051 17.188L 64.2851 20.422L 63.2491 20.422L 62.8291 17.188ZM 66.2871 17.188L 66.2451 15.396L 68.2051 15.396L 68.1631 17.188L 67.7431 20.422L 66.7071 20.422L 66.2871 17.188Z"/>
<path id="path17_stroke" d="M 0 0L 160 0L 160 -1L 0 -1L 0 0Z"/>
</defs>
</svg>
