<svg width="1120" height="284" viewBox="0 0 1120 284" fill="none" xmlns="http://www.w3.org/2000/svg">
<rect width="1120" height="284" fill="#E5E5E5"/>
<path d="M0 0H1120V284H0V0Z" fill="white"/>
<path d="M785.257 249.518C785.257 251.634 784.805 253.286 783.902 254.474C782.999 255.654 781.737 256.244 780.118 256.244C778.685 256.244 777.542 255.695 776.688 254.596L776.529 256H773.355V237.25H776.883V243.976C777.697 243.024 778.767 242.548 780.093 242.548C781.705 242.548 782.966 243.142 783.877 244.33C784.797 245.51 785.257 247.174 785.257 249.323V249.518ZM781.729 249.262C781.729 247.927 781.517 246.955 781.094 246.344C780.671 245.726 780.04 245.417 779.202 245.417C778.079 245.417 777.306 245.876 776.883 246.796V252.008C777.314 252.936 778.095 253.4 779.227 253.4C780.366 253.4 781.115 252.838 781.473 251.715C781.644 251.178 781.729 250.36 781.729 249.262ZM786.893 249.274C786.893 247.964 787.145 246.796 787.649 245.771C788.154 244.745 788.878 243.952 789.822 243.39C790.774 242.829 791.877 242.548 793.13 242.548C794.913 242.548 796.365 243.093 797.488 244.184C798.619 245.274 799.25 246.755 799.38 248.627L799.405 249.53C799.405 251.557 798.839 253.184 797.708 254.413C796.577 255.634 795.059 256.244 793.155 256.244C791.25 256.244 789.729 255.634 788.589 254.413C787.458 253.192 786.893 251.532 786.893 249.433V249.274ZM790.42 249.53C790.42 250.784 790.656 251.744 791.128 252.411C791.6 253.07 792.276 253.4 793.155 253.4C794.009 253.4 794.677 253.074 795.157 252.423C795.637 251.764 795.877 250.714 795.877 249.274C795.877 248.045 795.637 247.093 795.157 246.417C794.677 245.742 794.001 245.404 793.13 245.404C792.268 245.404 791.6 245.742 791.128 246.417C790.656 247.085 790.42 248.122 790.42 249.53ZM801.028 249.274C801.028 247.964 801.281 246.796 801.785 245.771C802.29 244.745 803.014 243.952 803.958 243.39C804.91 242.829 806.013 242.548 807.266 242.548C809.048 242.548 810.501 243.093 811.624 244.184C812.755 245.274 813.386 246.755 813.516 248.627L813.541 249.53C813.541 251.557 812.975 253.184 811.844 254.413C810.713 255.634 809.195 256.244 807.291 256.244C805.386 256.244 803.864 255.634 802.725 254.413C801.594 253.192 801.028 251.532 801.028 249.433V249.274ZM804.556 249.53C804.556 250.784 804.792 251.744 805.264 252.411C805.736 253.07 806.412 253.4 807.291 253.4C808.145 253.4 808.812 253.074 809.292 252.423C809.773 251.764 810.013 250.714 810.013 249.274C810.013 248.045 809.773 247.093 809.292 246.417C808.812 245.742 808.137 245.404 807.266 245.404C806.403 245.404 805.736 245.742 805.264 246.417C804.792 247.085 804.556 248.122 804.556 249.53ZM819.437 256H815.896V237.25H819.437V256ZM832.132 258.759H821.011V256H832.132V258.759ZM832.962 249.274C832.962 247.964 833.214 246.796 833.719 245.771C834.223 244.745 834.948 243.952 835.892 243.39C836.844 242.829 837.946 242.548 839.2 242.548C840.982 242.548 842.435 243.093 843.558 244.184C844.689 245.274 845.319 246.755 845.45 248.627L845.474 249.53C845.474 251.557 844.909 253.184 843.777 254.413C842.646 255.634 841.128 256.244 839.224 256.244C837.32 256.244 835.798 255.634 834.659 254.413C833.528 253.192 832.962 251.532 832.962 249.433V249.274ZM836.49 249.53C836.49 250.784 836.726 251.744 837.198 252.411C837.67 253.07 838.345 253.4 839.224 253.4C840.079 253.4 840.746 253.074 841.226 252.423C841.706 251.764 841.946 250.714 841.946 249.274C841.946 248.045 841.706 247.093 841.226 246.417C840.746 245.742 840.07 245.404 839.2 245.404C838.337 245.404 837.67 245.742 837.198 246.417C836.726 247.085 836.49 248.122 836.49 249.53ZM855.069 246.1C854.589 246.035 854.166 246.002 853.799 246.002C852.465 246.002 851.59 246.454 851.175 247.357V256H847.647V242.792H850.979L851.077 244.367C851.785 243.154 852.766 242.548 854.019 242.548C854.41 242.548 854.776 242.601 855.118 242.707L855.069 246.1Z" fill="#4F4F4F"/>
<path d="M0 82H336V166H0V82Z" fill="#F1F4F8"/>
<path d="M14.296 114.232H17.544V119.328L17.432 121.736C18.0294 121.176 18.7014 120.737 19.448 120.42C20.1947 120.084 20.9414 119.916 21.688 119.916C22.584 119.916 23.3774 120.084 24.068 120.42C24.7587 120.737 25.3467 121.204 25.832 121.82C26.3174 122.417 26.6814 123.145 26.924 124.004C27.1854 124.863 27.316 125.824 27.316 126.888C27.316 128.064 27.148 129.119 26.812 130.052C26.476 130.967 26.0187 131.741 25.44 132.376C24.88 133.011 24.2267 133.496 23.48 133.832C22.752 134.168 21.996 134.336 21.212 134.336C20.5587 134.336 19.8774 134.177 19.168 133.86C18.4587 133.543 17.8054 133.085 17.208 132.488H17.124L16.844 134H14.296V114.232ZM17.544 130.416C18.048 130.883 18.5707 131.209 19.112 131.396C19.6534 131.583 20.1387 131.676 20.568 131.676C21.5387 131.676 22.3507 131.284 23.004 130.5C23.6574 129.697 23.984 128.512 23.984 126.944C23.984 125.563 23.732 124.489 23.228 123.724C22.724 122.959 21.912 122.576 20.792 122.576C20.2694 122.576 19.7374 122.707 19.196 122.968C18.6547 123.229 18.104 123.649 17.544 124.228V130.416ZM30.2731 127.14C30.2731 126.001 30.4597 124.984 30.8331 124.088C31.2251 123.192 31.7384 122.436 32.373 121.82C33.0078 121.204 33.745 120.737 34.585 120.42C35.425 120.084 36.293 119.916 37.189 119.916C38.085 119.916 38.953 120.084 39.793 120.42C40.633 120.737 41.3704 121.204 42.005 121.82C42.6398 122.436 43.1438 123.192 43.517 124.088C43.909 124.984 44.105 126.001 44.105 127.14C44.105 128.279 43.909 129.296 43.517 130.192C43.1438 131.088 42.6398 131.844 42.005 132.46C41.3704 133.076 40.633 133.543 39.793 133.86C38.953 134.177 38.085 134.336 37.189 134.336C36.293 134.336 35.425 134.177 34.585 133.86C33.745 133.543 33.0078 133.076 32.373 132.46C31.7384 131.844 31.2251 131.088 30.8331 130.192C30.4597 129.296 30.2731 128.279 30.2731 127.14ZM33.605 127.14C33.605 128.521 33.9224 129.632 34.557 130.472C35.1918 131.293 36.069 131.704 37.189 131.704C38.309 131.704 39.1864 131.293 39.821 130.472C40.4558 129.632 40.773 128.521 40.773 127.14C40.773 125.74 40.4558 124.629 39.821 123.808C39.1864 122.968 38.309 122.548 37.189 122.548C36.069 122.548 35.1918 122.968 34.557 123.808C33.9224 124.629 33.605 125.74 33.605 127.14ZM47.0622 127.14C47.0622 126.001 47.2488 124.984 47.6222 124.088C48.0142 123.192 48.5274 122.436 49.1622 121.82C49.7968 121.204 50.5342 120.737 51.3742 120.42C52.2142 120.084 53.0822 119.916 53.9782 119.916C54.8742 119.916 55.7422 120.084 56.5822 120.42C57.4222 120.737 58.1594 121.204 58.7942 121.82C59.4288 122.436 59.9328 123.192 60.3062 124.088C60.6982 124.984 60.8942 126.001 60.8942 127.14C60.8942 128.279 60.6982 129.296 60.3062 130.192C59.9328 131.088 59.4288 131.844 58.7942 132.46C58.1594 133.076 57.4222 133.543 56.5822 133.86C55.7422 134.177 54.8742 134.336 53.9782 134.336C53.0822 134.336 52.2142 134.177 51.3742 133.86C50.5342 133.543 49.7968 133.076 49.1622 132.46C48.5274 131.844 48.0142 131.088 47.6222 130.192C47.2488 129.296 47.0622 128.279 47.0622 127.14ZM50.3942 127.14C50.3942 128.521 50.7114 129.632 51.3462 130.472C51.9808 131.293 52.8582 131.704 53.9782 131.704C55.0982 131.704 55.9754 131.293 56.6102 130.472C57.2448 129.632 57.5622 128.521 57.5622 127.14C57.5622 125.74 57.2448 124.629 56.6102 123.808C55.9754 122.968 55.0982 122.548 53.9782 122.548C52.8582 122.548 51.9808 122.968 51.3462 123.808C50.7114 124.629 50.3942 125.74 50.3942 127.14ZM64.3552 114.232H71.9152V129.156C71.9152 130.089 72.1486 130.752 72.6152 131.144C73.0818 131.517 73.6698 131.704 74.3792 131.704C75.0512 131.704 75.8352 131.527 76.7312 131.172L77.4872 133.552C76.8338 133.776 76.2178 133.963 75.6392 134.112C75.0792 134.261 74.3978 134.336 73.5952 134.336C71.9712 134.336 70.7486 133.869 69.9272 132.936C69.1058 132.003 68.6952 130.687 68.6952 128.988V116.78H64.3552V114.232ZM94.2762 135.736V138.256H80.8362V135.736H94.2762ZM97.4294 127.14C97.4294 126.001 97.616 124.984 97.9894 124.088C98.3814 123.192 98.8946 122.436 99.5294 121.82C100.164 121.204 100.901 120.737 101.741 120.42C102.581 120.084 103.449 119.916 104.345 119.916C105.241 119.916 106.109 120.084 106.949 120.42C107.789 120.737 108.527 121.204 109.161 121.82C109.796 122.436 110.3 123.192 110.673 124.088C111.065 124.984 111.261 126.001 111.261 127.14C111.261 128.279 111.065 129.296 110.673 130.192C110.3 131.088 109.796 131.844 109.161 132.46C108.527 133.076 107.789 133.543 106.949 133.86C106.109 134.177 105.241 134.336 104.345 134.336C103.449 134.336 102.581 134.177 101.741 133.86C100.901 133.543 100.164 133.076 99.5294 132.46C98.8946 131.844 98.3814 131.088 97.9894 130.192C97.616 129.296 97.4294 128.279 97.4294 127.14ZM100.761 127.14C100.761 128.521 101.079 129.632 101.713 130.472C102.348 131.293 103.225 131.704 104.345 131.704C105.465 131.704 106.343 131.293 106.977 130.472C107.612 129.632 107.929 128.521 107.929 127.14C107.929 125.74 107.612 124.629 106.977 123.808C106.343 122.968 105.465 122.548 104.345 122.548C103.225 122.548 102.348 122.968 101.713 123.808C101.079 124.629 100.761 125.74 100.761 127.14ZM116.374 120.252H119.034L119.314 123.36H119.398C120.108 122.24 120.957 121.391 121.946 120.812C122.954 120.215 124.056 119.916 125.25 119.916C125.81 119.916 126.286 119.963 126.678 120.056C127.089 120.131 127.5 120.271 127.91 120.476L127.238 123.192C126.79 123.043 126.389 122.94 126.034 122.884C125.698 122.809 125.269 122.772 124.746 122.772C123.794 122.772 122.88 123.043 122.002 123.584C121.125 124.125 120.332 125.068 119.622 126.412V134H116.374V120.252ZM148.497 120.448H160.929V122.8H148.497V120.448ZM148.497 126.692H160.929V129.044H148.497V126.692ZM181.879 130.304C181.879 129.539 182.056 128.867 182.411 128.288C182.765 127.691 183.325 127.187 184.091 126.776C184.856 126.365 185.836 126.029 187.031 125.768C188.225 125.507 189.672 125.32 191.371 125.208C191.315 124.424 191.035 123.78 190.531 123.276C190.027 122.772 189.215 122.52 188.095 122.52C187.311 122.52 186.536 122.669 185.771 122.968C185.024 123.248 184.296 123.584 183.587 123.976L182.411 121.82C183.251 121.335 184.212 120.896 185.295 120.504C186.377 120.112 187.507 119.916 188.683 119.916C190.605 119.916 192.071 120.429 193.079 121.456C194.087 122.464 194.591 123.929 194.591 125.852V134H191.959L191.707 132.292H191.623C190.895 132.852 190.083 133.337 189.187 133.748C188.309 134.14 187.404 134.336 186.471 134.336C185.799 134.336 185.183 134.233 184.623 134.028C184.063 133.841 183.577 133.571 183.167 133.216C182.756 132.861 182.439 132.441 182.215 131.956C181.991 131.452 181.879 130.901 181.879 130.304ZM184.987 130.052C184.987 130.668 185.22 131.116 185.687 131.396C186.172 131.676 186.76 131.816 187.451 131.816C188.141 131.816 188.804 131.667 189.439 131.368C190.092 131.051 190.736 130.64 191.371 130.136V127.224C190.139 127.317 189.112 127.448 188.291 127.616C187.469 127.765 186.816 127.961 186.331 128.204C185.845 128.447 185.5 128.727 185.295 129.044C185.089 129.343 184.987 129.679 184.987 130.052ZM249.342 114.232H252.59V119.328L252.478 121.736C253.076 121.176 253.748 120.737 254.494 120.42C255.242 120.084 255.988 119.916 256.734 119.916C257.63 119.916 258.424 120.084 259.114 120.42C259.806 120.737 260.394 121.204 260.878 121.82C261.364 122.417 261.728 123.145 261.97 124.004C262.232 124.863 262.362 125.824 262.362 126.888C262.362 128.064 262.194 129.119 261.858 130.052C261.522 130.967 261.066 131.741 260.486 132.376C259.926 133.011 259.274 133.496 258.526 133.832C257.798 134.168 257.042 134.336 256.258 134.336C255.606 134.336 254.924 134.177 254.214 133.86C253.506 133.543 252.852 133.085 252.254 132.488H252.17L251.89 134H249.342V114.232ZM252.59 130.416C253.094 130.883 253.618 131.209 254.158 131.396C254.7 131.583 255.186 131.676 255.614 131.676C256.586 131.676 257.398 131.284 258.05 130.5C258.704 129.697 259.03 128.512 259.03 126.944C259.03 125.563 258.778 124.489 258.274 123.724C257.77 122.959 256.958 122.576 255.838 122.576C255.316 122.576 254.784 122.707 254.242 122.968C253.702 123.229 253.15 123.649 252.59 124.228V130.416Z" fill="#2E383C"/>
<path d="M220.44 113H223.296V141H220.44V113Z" fill="#A541F8"/>
<path d="M386 18V17H385V18H386ZM492 18H493V17H492V18ZM492 71V72H493V71H492ZM386 71H385V72H386V71ZM386 19H492V17H386V19ZM491 18V71H493V18H491ZM492 70H386V72H492V70ZM387 71V18H385V71H387Z" fill="black"/>
<path d="M419.723 45.809H411.37V54.6H408.745V34.6937H421.077V36.8539H411.37V43.6625H419.723V45.809ZM432.493 54.6C432.347 54.3084 432.229 53.7888 432.138 53.0414C430.962 54.2628 429.558 54.8734 427.927 54.8734C426.468 54.8734 425.27 54.4632 424.331 53.643C423.401 52.8136 422.936 51.7654 422.936 50.4984C422.936 48.958 423.52 47.764 424.686 46.9164C425.862 46.0596 427.512 45.6312 429.636 45.6312H432.097V44.4691C432.097 43.585 431.832 42.8832 431.304 42.3637C430.775 41.835 429.996 41.5707 428.966 41.5707C428.063 41.5707 427.307 41.7985 426.696 42.2543C426.085 42.71 425.78 43.2614 425.78 43.9086H423.237C423.237 43.1703 423.497 42.4594 424.016 41.7758C424.545 41.0831 425.256 40.5362 426.149 40.1351C427.052 39.7341 428.041 39.5336 429.116 39.5336C430.82 39.5336 432.156 39.962 433.122 40.8187C434.088 41.6664 434.589 42.8376 434.626 44.3324V51.141C434.626 52.499 434.799 53.5792 435.145 54.3812V54.6H432.493ZM428.296 52.6722C429.089 52.6722 429.841 52.4672 430.552 52.057C431.263 51.6468 431.778 51.1136 432.097 50.4574V47.4222H430.114C427.015 47.4222 425.466 48.3291 425.466 50.143C425.466 50.936 425.73 51.5558 426.259 52.0024C426.787 52.449 427.466 52.6722 428.296 52.6722ZM441.339 54.6H438.809V33.6H441.339V54.6ZM454.013 50.6762C454.013 49.9926 453.753 49.464 453.233 49.0902C452.723 48.7074 451.825 48.3793 450.54 48.1058C449.264 47.8324 448.248 47.5043 447.491 47.1215C446.744 46.7387 446.188 46.2829 445.823 45.7543C445.468 45.2256 445.29 44.5967 445.29 43.8676C445.29 42.6553 445.8 41.6299 446.821 40.7914C447.851 39.9528 449.164 39.5336 450.759 39.5336C452.436 39.5336 453.794 39.9665 454.833 40.8324C455.881 41.6983 456.405 42.8057 456.405 44.1547H453.862C453.862 43.462 453.566 42.865 452.973 42.3637C452.39 41.8623 451.652 41.6117 450.759 41.6117C449.838 41.6117 449.118 41.8122 448.598 42.2133C448.079 42.6143 447.819 43.1384 447.819 43.7855C447.819 44.3962 448.061 44.8565 448.544 45.1664C449.027 45.4763 449.897 45.7725 451.155 46.0551C452.422 46.3376 453.447 46.6748 454.231 47.0668C455.015 47.4587 455.594 47.9327 455.968 48.4887C456.35 49.0356 456.542 49.7054 456.542 50.4984C456.542 51.82 456.013 52.882 454.956 53.684C453.899 54.477 452.527 54.8734 450.841 54.8734C449.656 54.8734 448.608 54.6638 447.696 54.2446C446.785 53.8252 446.069 53.242 445.55 52.4946C445.039 51.738 444.784 50.9222 444.784 50.0472H447.313C447.359 50.895 447.696 51.5694 448.325 52.0708C448.963 52.5628 449.802 52.809 450.841 52.809C451.798 52.809 452.563 52.6176 453.138 52.2348C453.721 51.8428 454.013 51.3234 454.013 50.6762ZM465.975 54.8734C463.97 54.8734 462.339 54.2172 461.081 52.9046C459.823 51.583 459.194 49.8194 459.194 47.6137V47.1488C459.194 45.6814 459.472 44.3734 460.028 43.225C460.593 42.0674 461.377 41.1651 462.38 40.5179C463.391 39.8617 464.485 39.5336 465.661 39.5336C467.584 39.5336 469.079 40.167 470.145 41.434C471.212 42.7009 471.745 44.5147 471.745 46.8754V47.9281H461.723C461.76 49.3864 462.184 50.5668 462.995 51.4692C463.815 52.3624 464.854 52.809 466.112 52.809C467.005 52.809 467.762 52.6266 468.382 52.2622C469.001 51.8976 469.544 51.4144 470.009 50.8128L471.554 52.016C470.314 53.921 468.455 54.8734 465.975 54.8734ZM465.661 41.6117C464.64 41.6117 463.783 41.9854 463.091 42.7328C462.398 43.4711 461.97 44.5101 461.806 45.85H469.216V45.6586C469.143 44.3734 468.796 43.3799 468.177 42.6781C467.557 41.9672 466.718 41.6117 465.661 41.6117Z" fill="#EB5757"/>
<path d="M386 71V70H385V71H386ZM492 71H493V70H492V71ZM492 124V125H493V124H492ZM386 124H385V125H386V124ZM386 72H492V70H386V72ZM491 71V124H493V71H491ZM492 123H386V125H492V123ZM387 124V71H385V124H387Z" fill="black"/>
<path d="M427.94 89.8539H421.542V107.6H418.931V89.8539H412.546V87.6938H427.94V89.8539ZM436.608 95.0766C436.225 95.0128 435.811 94.9809 435.364 94.9809C433.705 94.9809 432.58 95.6873 431.987 97.1V107.6H429.458V92.8071H431.919L431.96 94.516C432.789 93.1944 433.965 92.5336 435.487 92.5336C435.979 92.5336 436.353 92.5974 436.608 92.725V95.0766ZM448.079 106.137C447.095 107.295 445.65 107.873 443.745 107.873C442.168 107.873 440.965 107.418 440.136 106.506C439.315 105.586 438.901 104.228 438.891 102.432V92.8071H441.421V102.364C441.421 104.606 442.332 105.727 444.155 105.727C446.087 105.727 447.373 105.007 448.011 103.567V92.8071H450.54V107.6H448.134L448.079 106.137ZM460.534 107.873C458.529 107.873 456.897 107.217 455.639 105.905C454.382 104.583 453.753 102.819 453.753 100.614V100.149C453.753 98.6814 454.031 97.3735 454.587 96.225C455.152 95.0675 455.936 94.1651 456.938 93.518C457.95 92.8617 459.044 92.5336 460.22 92.5336C462.143 92.5336 463.638 93.1671 464.704 94.434C465.77 95.7009 466.304 97.5147 466.304 99.8754V100.928H456.282C456.319 102.386 456.742 103.567 457.554 104.469C458.374 105.362 459.413 105.809 460.671 105.809C461.564 105.809 462.32 105.627 462.94 105.262C463.56 104.898 464.102 104.414 464.567 103.813L466.112 105.016C464.873 106.921 463.013 107.873 460.534 107.873ZM460.22 94.6117C459.199 94.6117 458.342 94.9854 457.649 95.7328C456.957 96.4711 456.528 97.5102 456.364 98.85H463.774V98.6586C463.701 97.3735 463.355 96.38 462.735 95.6781C462.115 94.9672 461.277 94.6117 460.22 94.6117Z" fill="#27AE60"/>
<path d="M386 124V123H385V124H386ZM492 124H493V123H492V124ZM492 177V178H493V177H492ZM386 177H385V178H386V177ZM386 125H492V123H386V125ZM491 124V177H493V124H491ZM492 176H386V178H492V176ZM387 177V124H385V177H387Z" fill="black"/>
<path d="M419.723 151.809H411.37V160.6H408.745V140.694H421.077V142.854H411.37V149.662H419.723V151.809ZM432.493 160.6C432.347 160.308 432.229 159.789 432.138 159.041C430.962 160.263 429.558 160.873 427.927 160.873C426.468 160.873 425.27 160.463 424.331 159.643C423.401 158.814 422.936 157.765 422.936 156.498C422.936 154.958 423.52 153.764 424.686 152.916C425.862 152.06 427.512 151.631 429.636 151.631H432.097V150.469C432.097 149.585 431.832 148.883 431.304 148.364C430.775 147.835 429.996 147.571 428.966 147.571C428.063 147.571 427.307 147.799 426.696 148.254C426.085 148.71 425.78 149.261 425.78 149.909H423.237C423.237 149.17 423.497 148.459 424.016 147.776C424.545 147.083 425.256 146.536 426.149 146.135C427.052 145.734 428.041 145.534 429.116 145.534C430.82 145.534 432.156 145.962 433.122 146.819C434.088 147.666 434.589 148.838 434.626 150.332V157.141C434.626 158.499 434.799 159.579 435.145 160.381V160.6H432.493ZM428.296 158.672C429.089 158.672 429.841 158.467 430.552 158.057C431.263 157.647 431.778 157.114 432.097 156.457V153.422H430.114C427.015 153.422 425.466 154.329 425.466 156.143C425.466 156.936 425.73 157.556 426.259 158.002C426.787 158.449 427.466 158.672 428.296 158.672ZM441.339 160.6H438.809V139.6H441.339V160.6ZM454.013 156.676C454.013 155.993 453.753 155.464 453.233 155.09C452.723 154.707 451.825 154.379 450.54 154.106C449.264 153.832 448.248 153.504 447.491 153.121C446.744 152.739 446.188 152.283 445.823 151.754C445.468 151.226 445.29 150.597 445.29 149.868C445.29 148.655 445.8 147.63 446.821 146.791C447.851 145.953 449.164 145.534 450.759 145.534C452.436 145.534 453.794 145.967 454.833 146.832C455.881 147.698 456.405 148.806 456.405 150.155H453.862C453.862 149.462 453.566 148.865 452.973 148.364C452.39 147.862 451.652 147.612 450.759 147.612C449.838 147.612 449.118 147.812 448.598 148.213C448.079 148.614 447.819 149.138 447.819 149.786C447.819 150.396 448.061 150.856 448.544 151.166C449.027 151.476 449.897 151.772 451.155 152.055C452.422 152.338 453.447 152.675 454.231 153.067C455.015 153.459 455.594 153.933 455.968 154.489C456.35 155.036 456.542 155.705 456.542 156.498C456.542 157.82 456.013 158.882 454.956 159.684C453.899 160.477 452.527 160.873 450.841 160.873C449.656 160.873 448.608 160.664 447.696 160.245C446.785 159.825 446.069 159.242 445.55 158.495C445.039 157.738 444.784 156.922 444.784 156.047H447.313C447.359 156.895 447.696 157.569 448.325 158.071C448.963 158.563 449.802 158.809 450.841 158.809C451.798 158.809 452.563 158.618 453.138 158.235C453.721 157.843 454.013 157.323 454.013 156.676ZM465.975 160.873C463.97 160.873 462.339 160.217 461.081 158.905C459.823 157.583 459.194 155.819 459.194 153.614V153.149C459.194 151.681 459.472 150.373 460.028 149.225C460.593 148.067 461.377 147.165 462.38 146.518C463.391 145.862 464.485 145.534 465.661 145.534C467.584 145.534 469.079 146.167 470.145 147.434C471.212 148.701 471.745 150.515 471.745 152.875V153.928H461.723C461.76 155.386 462.184 156.567 462.995 157.469C463.815 158.362 464.854 158.809 466.112 158.809C467.005 158.809 467.762 158.627 468.382 158.262C469.001 157.898 469.544 157.414 470.009 156.813L471.554 158.016C470.314 159.921 468.455 160.873 465.975 160.873ZM465.661 147.612C464.64 147.612 463.783 147.985 463.091 148.733C462.398 149.471 461.97 150.51 461.806 151.85H469.216V151.659C469.143 150.373 468.796 149.38 468.177 148.678C467.557 147.967 466.718 147.612 465.661 147.612Z" fill="#EB5757"/>
<path d="M386 177V176H385V177H386ZM492 177H493V176H492V177ZM492 230V231H493V230H492ZM386 230H385V231H386V230ZM386 178H492V176H386V178ZM491 177V230H493V177H491ZM492 229H386V231H492V229ZM387 230V177H385V230H387Z" fill="black"/>
<path d="M427.94 195.854H421.542V213.6H418.931V195.854H412.546V193.694H427.94V195.854ZM436.608 201.077C436.225 201.013 435.811 200.981 435.364 200.981C433.705 200.981 432.58 201.687 431.987 203.1V213.6H429.458V198.807H431.919L431.96 200.516C432.789 199.194 433.965 198.534 435.487 198.534C435.979 198.534 436.353 198.597 436.608 198.725V201.077ZM448.079 212.137C447.095 213.295 445.65 213.873 443.745 213.873C442.168 213.873 440.965 213.418 440.136 212.506C439.315 211.586 438.901 210.228 438.891 208.432V198.807H441.421V208.364C441.421 210.606 442.332 211.727 444.155 211.727C446.087 211.727 447.373 211.007 448.011 209.567V198.807H450.54V213.6H448.134L448.079 212.137ZM460.534 213.873C458.529 213.873 456.897 213.217 455.639 211.905C454.382 210.583 453.753 208.819 453.753 206.614V206.149C453.753 204.681 454.031 203.373 454.587 202.225C455.152 201.067 455.936 200.165 456.938 199.518C457.95 198.862 459.044 198.534 460.22 198.534C462.143 198.534 463.638 199.167 464.704 200.434C465.77 201.701 466.304 203.515 466.304 205.875V206.928H456.282C456.319 208.386 456.742 209.567 457.554 210.469C458.374 211.362 459.413 211.809 460.671 211.809C461.564 211.809 462.32 211.627 462.94 211.262C463.56 210.898 464.102 210.414 464.567 209.813L466.112 211.016C464.873 212.921 463.013 213.873 460.534 213.873ZM460.22 200.612C459.199 200.612 458.342 200.985 457.649 201.733C456.957 202.471 456.528 203.51 456.364 204.85H463.774V204.659C463.701 203.373 463.355 202.38 462.735 201.678C462.115 200.967 461.277 200.612 460.22 200.612Z" fill="#27AE60"/>
<path d="M433.313 254.136C433.313 253.352 433.481 252.671 433.817 252.092C434.153 251.495 434.685 250.991 435.413 250.58C436.16 250.169 437.112 249.843 438.269 249.6C439.427 249.339 440.827 249.161 442.469 249.068C442.395 248.433 442.115 247.939 441.629 247.584C441.163 247.229 440.453 247.052 439.501 247.052C438.829 247.052 438.148 247.173 437.457 247.416C436.785 247.64 436.057 247.948 435.273 248.34L433.817 245.652C434.769 245.111 435.787 244.663 436.869 244.308C437.971 243.953 439.119 243.776 440.313 243.776C442.255 243.776 443.785 244.289 444.905 245.316C446.025 246.343 446.585 247.92 446.585 250.048V258H443.225L442.917 256.432H442.805C442.096 256.973 441.321 257.431 440.481 257.804C439.641 258.159 438.773 258.336 437.877 258.336C437.168 258.336 436.533 258.224 435.973 258C435.413 257.795 434.937 257.505 434.545 257.132C434.153 256.74 433.845 256.292 433.621 255.788C433.416 255.284 433.313 254.733 433.313 254.136ZM437.261 253.828C437.261 254.276 437.429 254.612 437.765 254.836C438.12 255.041 438.596 255.144 439.193 255.144C439.809 255.144 440.388 255.023 440.929 254.78C441.471 254.519 441.984 254.201 442.469 253.828V251.532C441.443 251.588 440.593 251.681 439.921 251.812C439.249 251.943 438.717 252.111 438.325 252.316C437.933 252.503 437.653 252.727 437.485 252.988C437.336 253.249 437.261 253.529 437.261 253.828Z" fill="#4F4F4F"/>
<path d="M366.932 92.6074L370.213 87.207H373.166L368.326 94.5215L373.316 102H370.391L366.973 96.4628L363.555 102H360.615L365.605 94.5215L360.766 87.207H363.691L366.932 92.6074Z" fill="#828282"/>
<path d="M367.123 154.295L370.568 143.207H373.275L367.328 160.283C366.408 162.744 364.945 163.975 362.939 163.975L362.461 163.934L361.518 163.756V161.705L362.201 161.76C363.058 161.76 363.723 161.587 364.197 161.24C364.68 160.894 365.077 160.26 365.387 159.34L365.947 157.836L360.67 143.207H363.432L367.123 154.295Z" fill="#828282"/>
<path d="M364.348 207.936H373.002V210H361.258V208.141L369.42 197.299H361.381V195.207H372.592V196.998L364.348 207.936Z" fill="#828282"/>
<path d="M371.484 48.5136L374.328 37.207H376.857L372.551 52H370.5L366.904 40.7891L363.404 52H361.354L357.061 37.207H359.576L362.488 48.2812L365.934 37.207H367.971L371.484 48.5136Z" fill="#828282"/>
<path d="M566 18V17H565V18H566ZM672 18H673V17H672V18ZM672 71V72H673V71H672ZM566 71H565V72H566V71ZM566 19H672V17H566V19ZM671 18V71H673V18H671ZM672 70H566V72H672V70ZM567 71V18H565V71H567Z" fill="black"/>
<path d="M607.941 36.8539H601.543V54.6H598.931V36.8539H592.547V34.6938H607.941V36.8539ZM616.609 42.0766C616.226 42.0128 615.812 41.9809 615.365 41.9809C613.706 41.9809 612.58 42.6873 611.988 44.1V54.6H609.459V39.8071H611.92L611.961 41.516C612.79 40.1944 613.966 39.5336 615.488 39.5336C615.98 39.5336 616.354 39.5974 616.609 39.725V42.0766ZM628.08 53.1372C627.095 54.2946 625.651 54.8734 623.746 54.8734C622.169 54.8734 620.966 54.4178 620.136 53.5062C619.316 52.5856 618.901 51.2276 618.892 49.432V39.8071H621.422V49.3636C621.422 51.6058 622.333 52.727 624.156 52.727C626.088 52.727 627.373 52.007 628.011 50.5668V39.8071H630.541V54.6H628.134L628.08 53.1372ZM640.535 54.8734C638.53 54.8734 636.898 54.2172 635.64 52.9046C634.382 51.583 633.754 49.8194 633.754 47.6137V47.1488C633.754 45.6814 634.032 44.3735 634.588 43.225C635.153 42.0675 635.937 41.1651 636.939 40.518C637.951 39.8617 639.045 39.5336 640.22 39.5336C642.144 39.5336 643.638 40.1671 644.705 41.434C645.771 42.7009 646.304 44.5147 646.304 46.8754V47.9281H636.283C636.319 49.3864 636.743 50.5668 637.554 51.4692C638.375 52.3624 639.414 52.809 640.672 52.809C641.565 52.809 642.321 52.6266 642.941 52.2622C643.561 51.8976 644.103 51.4144 644.568 50.8128L646.113 52.016C644.873 53.921 643.014 54.8734 640.535 54.8734ZM640.22 41.6117C639.2 41.6117 638.343 41.9854 637.65 42.7328C636.957 43.4711 636.529 44.5102 636.365 45.85H643.775V45.6586C643.702 44.3735 643.356 43.38 642.736 42.6781C642.116 41.9672 641.278 41.6117 640.22 41.6117Z" fill="#27AE60"/>
<path d="M566 71V70H565V71H566ZM672 71H673V70H672V71ZM672 124V125H673V124H672ZM566 124H565V125H566V124ZM566 72H672V70H566V72ZM671 71V124H673V71H671ZM672 123H566V125H672V123ZM567 124V71H565V124H567Z" fill="black"/>
<path d="M599.724 98.809H591.371V107.6H588.746V87.6937H601.078V89.8539H591.371V96.6625H599.724V98.809ZM612.494 107.6C612.348 107.308 612.229 106.789 612.138 106.041C610.963 107.263 609.559 107.873 607.927 107.873C606.469 107.873 605.27 107.463 604.332 106.643C603.402 105.814 602.937 104.765 602.937 103.498C602.937 101.958 603.52 100.764 604.687 99.9164C605.863 99.0596 607.513 98.6312 609.636 98.6312H612.097V97.4691C612.097 96.585 611.833 95.8832 611.304 95.3637C610.776 94.835 609.996 94.5707 608.966 94.5707C608.064 94.5707 607.308 94.7985 606.697 95.2543C606.086 95.71 605.781 96.2614 605.781 96.9086H603.238C603.238 96.1703 603.498 95.4594 604.017 94.7758C604.546 94.0831 605.257 93.5362 606.15 93.1351C607.052 92.7341 608.041 92.5336 609.117 92.5336C610.821 92.5336 612.157 92.962 613.123 93.8187C614.089 94.6664 614.59 95.8376 614.627 97.3324V104.141C614.627 105.499 614.8 106.579 615.146 107.381V107.6H612.494ZM608.297 105.672C609.09 105.672 609.841 105.467 610.552 105.057C611.263 104.647 611.778 104.114 612.097 103.457V100.422H610.115C607.016 100.422 605.466 101.329 605.466 103.143C605.466 103.936 605.731 104.556 606.259 105.002C606.788 105.449 607.467 105.672 608.297 105.672ZM621.34 107.6H618.81V86.6H621.34V107.6ZM634.013 103.676C634.013 102.993 633.754 102.464 633.234 102.09C632.724 101.707 631.826 101.379 630.541 101.106C629.265 100.832 628.248 100.504 627.492 100.121C626.744 99.7387 626.188 99.2829 625.824 98.7543C625.468 98.2256 625.291 97.5967 625.291 96.8676C625.291 95.6553 625.801 94.6299 626.822 93.7914C627.852 92.9528 629.164 92.5336 630.759 92.5336C632.437 92.5336 633.795 92.9665 634.834 93.8324C635.882 94.6983 636.406 95.8057 636.406 97.1547H633.863C633.863 96.462 633.567 95.865 632.974 95.3637C632.391 94.8623 631.653 94.6117 630.759 94.6117C629.839 94.6117 629.119 94.8122 628.599 95.2133C628.08 95.6143 627.82 96.1384 627.82 96.7855C627.82 97.3962 628.062 97.8565 628.545 98.1664C629.028 98.4763 629.898 98.7725 631.156 99.0551C632.423 99.3376 633.448 99.6748 634.232 100.067C635.016 100.459 635.595 100.933 635.968 101.489C636.351 102.036 636.543 102.705 636.543 103.498C636.543 104.82 636.014 105.882 634.957 106.684C633.899 107.477 632.528 107.873 630.841 107.873C629.657 107.873 628.608 107.664 627.697 107.245C626.785 106.825 626.07 106.242 625.55 105.495C625.04 104.738 624.785 103.922 624.785 103.047H627.314C627.36 103.895 627.697 104.569 628.326 105.071C628.964 105.563 629.802 105.809 630.841 105.809C631.798 105.809 632.564 105.618 633.138 105.235C633.722 104.843 634.013 104.323 634.013 103.676ZM645.976 107.873C643.971 107.873 642.34 107.217 641.082 105.905C639.824 104.583 639.195 102.819 639.195 100.614V100.149C639.195 98.6814 639.473 97.3734 640.029 96.225C640.594 95.0674 641.378 94.1651 642.381 93.5179C643.392 92.8617 644.486 92.5336 645.662 92.5336C647.585 92.5336 649.08 93.167 650.146 94.434C651.213 95.7009 651.746 97.5147 651.746 99.8754V100.928H641.724C641.761 102.386 642.185 103.567 642.996 104.469C643.816 105.362 644.855 105.809 646.113 105.809C647.006 105.809 647.763 105.627 648.382 105.262C649.002 104.898 649.545 104.414 650.009 103.813L651.554 105.016C650.315 106.921 648.455 107.873 645.976 107.873ZM645.662 94.6117C644.641 94.6117 643.784 94.9854 643.091 95.7328C642.399 96.4711 641.97 97.5101 641.806 98.85H649.216V98.6586C649.144 97.3734 648.797 96.3799 648.177 95.6781C647.558 94.9672 646.719 94.6117 645.662 94.6117Z" fill="#EB5757"/>
<path d="M566 124V123H565V124H566ZM672 124H673V123H672V124ZM672 177V178H673V177H672ZM566 177H565V178H566V177ZM566 125H672V123H566V125ZM671 124V177H673V124H671ZM672 176H566V178H672V176ZM567 177V124H565V177H567Z" fill="black"/>
<path d="M599.724 151.809H591.371V160.6H588.746V140.694H601.078V142.854H591.371V149.662H599.724V151.809ZM612.494 160.6C612.348 160.308 612.229 159.789 612.138 159.041C610.963 160.263 609.559 160.873 607.927 160.873C606.469 160.873 605.27 160.463 604.332 159.643C603.402 158.814 602.937 157.765 602.937 156.498C602.937 154.958 603.52 153.764 604.687 152.916C605.863 152.06 607.513 151.631 609.636 151.631H612.097V150.469C612.097 149.585 611.833 148.883 611.304 148.364C610.776 147.835 609.996 147.571 608.966 147.571C608.064 147.571 607.308 147.799 606.697 148.254C606.086 148.71 605.781 149.261 605.781 149.909H603.238C603.238 149.17 603.498 148.459 604.017 147.776C604.546 147.083 605.257 146.536 606.15 146.135C607.052 145.734 608.041 145.534 609.117 145.534C610.821 145.534 612.157 145.962 613.123 146.819C614.089 147.666 614.59 148.838 614.627 150.332V157.141C614.627 158.499 614.8 159.579 615.146 160.381V160.6H612.494ZM608.297 158.672C609.09 158.672 609.841 158.467 610.552 158.057C611.263 157.647 611.778 157.114 612.097 156.457V153.422H610.115C607.016 153.422 605.466 154.329 605.466 156.143C605.466 156.936 605.731 157.556 606.259 158.002C606.788 158.449 607.467 158.672 608.297 158.672ZM621.34 160.6H618.81V139.6H621.34V160.6ZM634.013 156.676C634.013 155.993 633.754 155.464 633.234 155.09C632.724 154.707 631.826 154.379 630.541 154.106C629.265 153.832 628.248 153.504 627.492 153.121C626.744 152.739 626.188 152.283 625.824 151.754C625.468 151.226 625.291 150.597 625.291 149.868C625.291 148.655 625.801 147.63 626.822 146.791C627.852 145.953 629.164 145.534 630.759 145.534C632.437 145.534 633.795 145.967 634.834 146.832C635.882 147.698 636.406 148.806 636.406 150.155H633.863C633.863 149.462 633.567 148.865 632.974 148.364C632.391 147.862 631.653 147.612 630.759 147.612C629.839 147.612 629.119 147.812 628.599 148.213C628.08 148.614 627.82 149.138 627.82 149.786C627.82 150.396 628.062 150.856 628.545 151.166C629.028 151.476 629.898 151.772 631.156 152.055C632.423 152.338 633.448 152.675 634.232 153.067C635.016 153.459 635.595 153.933 635.968 154.489C636.351 155.036 636.543 155.705 636.543 156.498C636.543 157.82 636.014 158.882 634.957 159.684C633.899 160.477 632.528 160.873 630.841 160.873C629.657 160.873 628.608 160.664 627.697 160.245C626.785 159.825 626.07 159.242 625.55 158.495C625.04 157.738 624.785 156.922 624.785 156.047H627.314C627.36 156.895 627.697 157.569 628.326 158.071C628.964 158.563 629.802 158.809 630.841 158.809C631.798 158.809 632.564 158.618 633.138 158.235C633.722 157.843 634.013 157.323 634.013 156.676ZM645.976 160.873C643.971 160.873 642.34 160.217 641.082 158.905C639.824 157.583 639.195 155.819 639.195 153.614V153.149C639.195 151.681 639.473 150.373 640.029 149.225C640.594 148.067 641.378 147.165 642.381 146.518C643.392 145.862 644.486 145.534 645.662 145.534C647.585 145.534 649.08 146.167 650.146 147.434C651.213 148.701 651.746 150.515 651.746 152.875V153.928H641.724C641.761 155.386 642.185 156.567 642.996 157.469C643.816 158.362 644.855 158.809 646.113 158.809C647.006 158.809 647.763 158.627 648.382 158.262C649.002 157.898 649.545 157.414 650.009 156.813L651.554 158.016C650.315 159.921 648.455 160.873 645.976 160.873ZM645.662 147.612C644.641 147.612 643.784 147.985 643.091 148.733C642.399 149.471 641.97 150.51 641.806 151.85H649.216V151.659C649.144 150.373 648.797 149.38 648.177 148.678C647.558 147.967 646.719 147.612 645.662 147.612Z" fill="#EB5757"/>
<path d="M566 177V176H565V177H566ZM672 177H673V176H672V177ZM672 230V231H673V230H672ZM566 230H565V231H566V230ZM566 178H672V176H566V178ZM671 177V230H673V177H671ZM672 229H566V231H672V229ZM567 230V177H565V230H567Z" fill="black"/>
<path d="M607.941 195.854H601.543V213.6H598.931V195.854H592.547V193.694H607.941V195.854ZM616.609 201.077C616.226 201.013 615.812 200.981 615.365 200.981C613.706 200.981 612.58 201.687 611.988 203.1V213.6H609.459V198.807H611.92L611.961 200.516C612.79 199.194 613.966 198.534 615.488 198.534C615.98 198.534 616.354 198.597 616.609 198.725V201.077ZM628.08 212.137C627.095 213.295 625.651 213.873 623.746 213.873C622.169 213.873 620.966 213.418 620.136 212.506C619.316 211.586 618.901 210.228 618.892 208.432V198.807H621.422V208.364C621.422 210.606 622.333 211.727 624.156 211.727C626.088 211.727 627.373 211.007 628.011 209.567V198.807H630.541V213.6H628.134L628.08 212.137ZM640.535 213.873C638.53 213.873 636.898 213.217 635.64 211.905C634.382 210.583 633.754 208.819 633.754 206.614V206.149C633.754 204.681 634.032 203.373 634.588 202.225C635.153 201.067 635.937 200.165 636.939 199.518C637.951 198.862 639.045 198.534 640.22 198.534C642.144 198.534 643.638 199.167 644.705 200.434C645.771 201.701 646.304 203.515 646.304 205.875V206.928H636.283C636.319 208.386 636.743 209.567 637.554 210.469C638.375 211.362 639.414 211.809 640.672 211.809C641.565 211.809 642.321 211.627 642.941 211.262C643.561 210.898 644.103 210.414 644.568 209.813L646.113 211.016C644.873 212.921 643.014 213.873 640.535 213.873ZM640.22 200.612C639.2 200.612 638.343 200.985 637.65 201.733C636.957 202.471 636.529 203.51 636.365 204.85H643.775V204.659C643.702 203.373 643.356 202.38 642.736 201.678C642.116 200.967 641.278 200.612 640.22 200.612Z" fill="#27AE60"/>
<path d="M613.621 238.372H617.737V243.188L617.625 245.372C618.167 244.868 618.773 244.476 619.445 244.196C620.136 243.916 620.817 243.776 621.489 243.776C622.348 243.776 623.123 243.944 623.813 244.28C624.523 244.616 625.111 245.092 625.577 245.708C626.063 246.305 626.436 247.043 626.697 247.92C626.959 248.779 627.089 249.74 627.089 250.804C627.089 251.999 626.921 253.063 626.585 253.996C626.249 254.929 625.801 255.723 625.241 256.376C624.681 257.011 624.037 257.496 623.309 257.832C622.6 258.168 621.853 258.336 621.069 258.336C620.416 258.336 619.763 258.177 619.109 257.86C618.475 257.543 617.868 257.085 617.289 256.488H617.177L616.841 258H613.621V238.372ZM617.737 254.052C618.129 254.388 618.531 254.631 618.941 254.78C619.371 254.911 619.772 254.976 620.145 254.976C620.911 254.976 621.555 254.659 622.077 254.024C622.6 253.371 622.861 252.325 622.861 250.888C622.861 248.387 622.012 247.136 620.313 247.136C619.436 247.136 618.577 247.565 617.737 248.424V254.052Z" fill="#4F4F4F"/>
<path d="M546.932 92.6074L550.213 87.207H553.166L548.326 94.5215L553.316 102H550.391L546.973 96.4628L543.555 102H540.615L545.605 94.5215L540.766 87.207H543.691L546.932 92.6074Z" fill="#828282"/>
<path d="M547.123 154.295L550.568 143.207H553.275L547.328 160.283C546.408 162.744 544.945 163.975 542.939 163.975L542.461 163.934L541.518 163.756V161.705L542.201 161.76C543.058 161.76 543.723 161.587 544.197 161.24C544.68 160.894 545.077 160.26 545.387 159.34L545.947 157.836L540.67 143.207H543.432L547.123 154.295Z" fill="#828282"/>
<path d="M544.348 207.936H553.002V210H541.258V208.141L549.42 197.299H541.381V195.207H552.592V196.998L544.348 207.936Z" fill="#828282"/>
<path d="M551.484 48.5136L554.328 37.207H556.857L552.551 52H550.5L546.904 40.7891L543.404 52H541.354L537.061 37.207H539.576L542.488 48.2812L545.934 37.207H547.971L551.484 48.5136Z" fill="#828282"/>
<path d="M760 18V17H759V18H760ZM866 18H867V17H866V18ZM866 71V72H867V71H866ZM760 71H759V72H760V71ZM760 19H866V17H760V19ZM865 18V71H867V18H865ZM866 70H760V72H866V70ZM761 71V18H759V71H761Z" fill="black"/>
<path d="M801.941 36.8539H795.543V54.6H792.931V36.8539H786.547V34.6938H801.941V36.8539ZM810.609 42.0766C810.226 42.0128 809.812 41.9809 809.365 41.9809C807.706 41.9809 806.58 42.6873 805.988 44.1V54.6H803.459V39.8071H805.92L805.961 41.516C806.79 40.1944 807.966 39.5336 809.488 39.5336C809.98 39.5336 810.354 39.5974 810.609 39.725V42.0766ZM822.08 53.1372C821.095 54.2946 819.651 54.8734 817.746 54.8734C816.169 54.8734 814.966 54.4178 814.136 53.5062C813.316 52.5856 812.901 51.2276 812.892 49.432V39.8071H815.422V49.3636C815.422 51.6058 816.333 52.727 818.156 52.727C820.088 52.727 821.373 52.007 822.011 50.5668V39.8071H824.541V54.6H822.134L822.08 53.1372ZM834.535 54.8734C832.53 54.8734 830.898 54.2172 829.64 52.9046C828.382 51.583 827.754 49.8194 827.754 47.6137V47.1488C827.754 45.6814 828.032 44.3735 828.588 43.225C829.153 42.0675 829.937 41.1651 830.939 40.518C831.951 39.8617 833.045 39.5336 834.22 39.5336C836.144 39.5336 837.638 40.1671 838.705 41.434C839.771 42.7009 840.304 44.5147 840.304 46.8754V47.9281H830.283C830.319 49.3864 830.743 50.5668 831.554 51.4692C832.375 52.3624 833.414 52.809 834.672 52.809C835.565 52.809 836.321 52.6266 836.941 52.2622C837.561 51.8976 838.103 51.4144 838.568 50.8128L840.113 52.016C838.873 53.921 837.014 54.8734 834.535 54.8734ZM834.22 41.6117C833.2 41.6117 832.343 41.9854 831.65 42.7328C830.957 43.4711 830.529 44.5102 830.365 45.85H837.775V45.6586C837.702 44.3735 837.356 43.38 836.736 42.6781C836.116 41.9672 835.278 41.6117 834.22 41.6117Z" fill="#27AE60"/>
<path d="M760 71V70H759V71H760ZM866 71H867V70H866V71ZM866 124V125H867V124H866ZM760 124H759V125H760V124ZM760 72H866V70H760V72ZM865 71V124H867V71H865ZM866 123H760V125H866V123ZM761 124V71H759V124H761Z" fill="black"/>
<path d="M801.941 89.8539H795.543V107.6H792.931V89.8539H786.547V87.6938H801.941V89.8539ZM810.609 95.0766C810.226 95.0128 809.812 94.9809 809.365 94.9809C807.706 94.9809 806.58 95.6873 805.988 97.1V107.6H803.459V92.8071H805.92L805.961 94.516C806.79 93.1944 807.966 92.5336 809.488 92.5336C809.98 92.5336 810.354 92.5974 810.609 92.725V95.0766ZM822.08 106.137C821.095 107.295 819.651 107.873 817.746 107.873C816.169 107.873 814.966 107.418 814.136 106.506C813.316 105.586 812.901 104.228 812.892 102.432V92.8071H815.422V102.364C815.422 104.606 816.333 105.727 818.156 105.727C820.088 105.727 821.373 105.007 822.011 103.567V92.8071H824.541V107.6H822.134L822.08 106.137ZM834.535 107.873C832.53 107.873 830.898 107.217 829.64 105.905C828.382 104.583 827.754 102.819 827.754 100.614V100.149C827.754 98.6814 828.032 97.3735 828.588 96.225C829.153 95.0675 829.937 94.1651 830.939 93.518C831.951 92.8617 833.045 92.5336 834.22 92.5336C836.144 92.5336 837.638 93.1671 838.705 94.434C839.771 95.7009 840.304 97.5147 840.304 99.8754V100.928H830.283C830.319 102.386 830.743 103.567 831.554 104.469C832.375 105.362 833.414 105.809 834.672 105.809C835.565 105.809 836.321 105.627 836.941 105.262C837.561 104.898 838.103 104.414 838.568 103.813L840.113 105.016C838.873 106.921 837.014 107.873 834.535 107.873ZM834.22 94.6117C833.2 94.6117 832.343 94.9854 831.65 95.7328C830.957 96.4711 830.529 97.5102 830.365 98.85H837.775V98.6586C837.702 97.3735 837.356 96.38 836.736 95.6781C836.116 94.9672 835.278 94.6117 834.22 94.6117Z" fill="#27AE60"/>
<path d="M760 124V123H759V124H760ZM866 124H867V123H866V124ZM866 177V178H867V177H866ZM760 177H759V178H760V177ZM760 125H866V123H760V125ZM865 124V177H867V124H865ZM866 176H760V178H866V176ZM761 177V124H759V177H761Z" fill="black"/>
<path d="M793.724 151.809H785.371V160.6H782.746V140.694H795.078V142.854H785.371V149.662H793.724V151.809ZM806.494 160.6C806.348 160.308 806.229 159.789 806.138 159.041C804.963 160.263 803.559 160.873 801.927 160.873C800.469 160.873 799.27 160.463 798.332 159.643C797.402 158.814 796.937 157.765 796.937 156.498C796.937 154.958 797.52 153.764 798.687 152.916C799.863 152.06 801.513 151.631 803.636 151.631H806.097V150.469C806.097 149.585 805.833 148.883 805.304 148.364C804.776 147.835 803.996 147.571 802.966 147.571C802.064 147.571 801.308 147.799 800.697 148.254C800.086 148.71 799.781 149.261 799.781 149.909H797.238C797.238 149.17 797.498 148.459 798.017 147.776C798.546 147.083 799.257 146.536 800.15 146.135C801.052 145.734 802.041 145.534 803.117 145.534C804.821 145.534 806.157 145.962 807.123 146.819C808.089 147.666 808.59 148.838 808.627 150.332V157.141C808.627 158.499 808.8 159.579 809.146 160.381V160.6H806.494ZM802.297 158.672C803.09 158.672 803.841 158.467 804.552 158.057C805.263 157.647 805.778 157.114 806.097 156.457V153.422H804.115C801.016 153.422 799.466 154.329 799.466 156.143C799.466 156.936 799.731 157.556 800.259 158.002C800.788 158.449 801.467 158.672 802.297 158.672ZM815.34 160.6H812.81V139.6H815.34V160.6ZM828.013 156.676C828.013 155.993 827.754 155.464 827.234 155.09C826.724 154.707 825.826 154.379 824.541 154.106C823.265 153.832 822.248 153.504 821.492 153.121C820.744 152.739 820.188 152.283 819.824 151.754C819.468 151.226 819.291 150.597 819.291 149.868C819.291 148.655 819.801 147.63 820.822 146.791C821.852 145.953 823.164 145.534 824.759 145.534C826.437 145.534 827.795 145.967 828.834 146.832C829.882 147.698 830.406 148.806 830.406 150.155H827.863C827.863 149.462 827.567 148.865 826.974 148.364C826.391 147.862 825.653 147.612 824.759 147.612C823.839 147.612 823.119 147.812 822.599 148.213C822.08 148.614 821.82 149.138 821.82 149.786C821.82 150.396 822.062 150.856 822.545 151.166C823.028 151.476 823.898 151.772 825.156 152.055C826.423 152.338 827.448 152.675 828.232 153.067C829.016 153.459 829.595 153.933 829.968 154.489C830.351 155.036 830.543 155.705 830.543 156.498C830.543 157.82 830.014 158.882 828.957 159.684C827.899 160.477 826.528 160.873 824.841 160.873C823.657 160.873 822.608 160.664 821.697 160.245C820.785 159.825 820.07 159.242 819.55 158.495C819.04 157.738 818.785 156.922 818.785 156.047H821.314C821.36 156.895 821.697 157.569 822.326 158.071C822.964 158.563 823.802 158.809 824.841 158.809C825.798 158.809 826.564 158.618 827.138 158.235C827.722 157.843 828.013 157.323 828.013 156.676ZM839.976 160.873C837.971 160.873 836.34 160.217 835.082 158.905C833.824 157.583 833.195 155.819 833.195 153.614V153.149C833.195 151.681 833.473 150.373 834.029 149.225C834.594 148.067 835.378 147.165 836.381 146.518C837.392 145.862 838.486 145.534 839.662 145.534C841.585 145.534 843.08 146.167 844.146 147.434C845.213 148.701 845.746 150.515 845.746 152.875V153.928H835.724C835.761 155.386 836.185 156.567 836.996 157.469C837.816 158.362 838.855 158.809 840.113 158.809C841.006 158.809 841.763 158.627 842.382 158.262C843.002 157.898 843.545 157.414 844.009 156.813L845.554 158.016C844.315 159.921 842.455 160.873 839.976 160.873ZM839.662 147.612C838.641 147.612 837.784 147.985 837.091 148.733C836.399 149.471 835.97 150.51 835.806 151.85H843.216V151.659C843.144 150.373 842.797 149.38 842.177 148.678C841.558 147.967 840.719 147.612 839.662 147.612Z" fill="#EB5757"/>
<path d="M760 177V176H759V177H760ZM866 177H867V176H866V177ZM866 230V231H867V230H866ZM760 230H759V231H760V230ZM760 178H866V176H760V178ZM865 177V230H867V177H865ZM866 229H760V231H866V229ZM761 230V177H759V230H761Z" fill="black"/>
<path d="M801.941 195.854H795.543V213.6H792.931V195.854H786.547V193.694H801.941V195.854ZM810.609 201.077C810.226 201.013 809.812 200.981 809.365 200.981C807.706 200.981 806.58 201.687 805.988 203.1V213.6H803.459V198.807H805.92L805.961 200.516C806.79 199.194 807.966 198.534 809.488 198.534C809.98 198.534 810.354 198.597 810.609 198.725V201.077ZM822.08 212.137C821.095 213.295 819.651 213.873 817.746 213.873C816.169 213.873 814.966 213.418 814.136 212.506C813.316 211.586 812.901 210.228 812.892 208.432V198.807H815.422V208.364C815.422 210.606 816.333 211.727 818.156 211.727C820.088 211.727 821.373 211.007 822.011 209.567V198.807H824.541V213.6H822.134L822.08 212.137ZM834.535 213.873C832.53 213.873 830.898 213.217 829.64 211.905C828.382 210.583 827.754 208.819 827.754 206.614V206.149C827.754 204.681 828.032 203.373 828.588 202.225C829.153 201.067 829.937 200.165 830.939 199.518C831.951 198.862 833.045 198.534 834.22 198.534C836.144 198.534 837.638 199.167 838.705 200.434C839.771 201.701 840.304 203.515 840.304 205.875V206.928H830.283C830.319 208.386 830.743 209.567 831.554 210.469C832.375 211.362 833.414 211.809 834.672 211.809C835.565 211.809 836.321 211.627 836.941 211.262C837.561 210.898 838.103 210.414 838.568 209.813L840.113 211.016C838.873 212.921 837.014 213.873 834.535 213.873ZM834.22 200.612C833.2 200.612 832.343 200.985 831.65 201.733C830.957 202.471 830.529 203.51 830.365 204.85H837.775V204.659C837.702 203.373 837.356 202.38 836.736 201.678C836.116 200.967 835.278 200.612 834.22 200.612Z" fill="#27AE60"/>
<path d="M740.932 92.6074L744.213 87.207H747.166L742.326 94.5215L747.316 102H744.391L740.973 96.4628L737.555 102H734.615L739.605 94.5215L734.766 87.207H737.691L740.932 92.6074Z" fill="#828282"/>
<path d="M741.123 154.295L744.568 143.207H747.275L741.328 160.283C740.408 162.744 738.945 163.975 736.939 163.975L736.461 163.934L735.518 163.756V161.705L736.201 161.76C737.058 161.76 737.723 161.587 738.197 161.24C738.68 160.894 739.077 160.26 739.387 159.34L739.947 157.836L734.67 143.207H737.432L741.123 154.295Z" fill="#828282"/>
<path d="M738.348 207.936H747.002V210H735.258V208.141L743.42 197.299H735.381V195.207H746.592V196.998L738.348 207.936Z" fill="#828282"/>
<path d="M745.484 48.5136L748.328 37.207H750.857L746.551 52H744.5L740.904 40.7891L737.404 52H735.354L731.061 37.207H733.576L736.488 48.2812L739.934 37.207H741.971L745.484 48.5136Z" fill="#828282"/>
<path d="M518.972 33H521.828V61H518.972V33Z" fill="#A541F8"/>
<path d="M694.184 38.448H706.616V40.8H694.184V38.448ZM694.184 44.692H706.616V47.044H694.184V44.692Z" fill="#A541F8"/>
<path d="M694.184 94.448H706.616V96.8H694.184V94.448ZM694.184 100.692H706.616V103.044H694.184V100.692Z" fill="#A541F8"/>
<path d="M694.184 146.448H706.616V148.8H694.184V146.448ZM694.184 152.692H706.616V155.044H694.184V152.692Z" fill="#A541F8"/>
<path d="M694.184 200.448H706.616V202.8H694.184V200.448ZM694.184 206.692H706.616V209.044H694.184V206.692Z" fill="#A541F8"/>
<path d="M518.972 87H521.828V115H518.972V87Z" fill="#A541F8"/>
<path d="M518.972 139H521.828V167H518.972V139Z" fill="#A541F8"/>
<path d="M518.972 193H521.828V221H518.972V193Z" fill="#A541F8"/>
<path d="M899.232 59.8614L899.178 62.2676L900.107 59.916L906.055 46.0938H908.229L909.801 60.0938L909.938 62.3632L910.799 59.6152L915.885 46.0938H918.523L910.73 66H908.393L906.67 51.3848L906.615 50.0176L906.041 51.6036L899.697 66H897.359L895.801 46.0938H898.303L899.232 59.8614ZM920.465 66H918.004L920.574 51.207H923.035L920.465 66ZM922.502 45.8066C922.921 45.7884 923.268 45.916 923.541 46.1894C923.824 46.4538 923.965 46.8046 923.965 47.2422C923.956 47.6706 923.814 48.0214 923.541 48.295C923.277 48.5684 922.93 48.7142 922.502 48.7324C922.074 48.7506 921.723 48.6276 921.449 48.3632C921.176 48.099 921.044 47.7526 921.053 47.3242C921.062 46.8958 921.199 46.5404 921.463 46.2578C921.727 45.9752 922.074 45.8248 922.502 45.8066ZM931.047 47.625L930.418 51.207H933.111L932.77 53.1622H930.09L928.545 62.3632C928.518 62.6002 928.513 62.819 928.531 63.0196C928.595 63.7304 928.982 64.086 929.693 64.086C929.994 64.086 930.395 64.0404 930.896 63.9492L930.705 66.0136C930.113 66.1778 929.511 66.2598 928.9 66.2598C927.916 66.2416 927.178 65.8816 926.686 65.1796C926.193 64.4688 926.002 63.5162 926.111 62.3222L927.615 53.1622H925.004L925.346 51.207H927.957L928.586 47.625H931.047ZM938.156 53.0118C939.451 51.599 940.941 50.9108 942.627 50.9472C944.012 50.9654 945.038 51.444 945.703 52.3828C946.378 53.3124 946.628 54.6204 946.455 56.3066L944.842 66H942.367L943.994 56.2656C944.049 55.819 944.053 55.4042 944.008 55.0214C943.853 53.7454 943.101 53.0938 941.752 53.0664C940.239 53.03 938.936 53.823 937.842 55.4454L936.01 66H933.535L937.186 45H939.66L938.156 53.0118ZM968.918 58.6718C968.736 60.1848 968.321 61.5476 967.674 62.7598C967.027 63.972 966.243 64.8698 965.322 65.4532C964.402 66.0364 963.381 66.3144 962.26 66.2872C960.473 66.2506 959.147 65.5808 958.281 64.2774L957.775 66H955.492L959.143 45H961.617L960.127 52.8476C961.312 51.5352 962.752 50.8972 964.447 50.9336C965.869 50.97 966.977 51.4942 967.77 52.5058C968.562 53.5176 968.982 54.9122 969.027 56.6894C969.036 57.2728 969.009 57.8378 968.945 58.3848L968.918 58.6718ZM966.566 57.2364C966.594 55.9056 966.37 54.8894 965.896 54.1876C965.423 53.4766 964.698 53.1028 963.723 53.0664C962.182 53.03 960.879 53.8046 959.812 55.3906L958.705 61.83C959.252 63.334 960.277 64.1042 961.781 64.1406C962.747 64.177 963.59 63.89 964.311 63.2792C965.04 62.6686 965.591 61.8164 965.965 60.7226C966.339 59.6198 966.539 58.4576 966.566 57.2364ZM979.104 50.9336C980.343 50.9518 981.405 51.289 982.289 51.9454C983.173 52.6016 983.825 53.5084 984.244 54.666C984.673 55.8144 984.818 57.0722 984.682 58.4394L984.654 58.7402C984.481 60.1804 984.053 61.4838 983.369 62.6504C982.686 63.808 981.801 64.7102 980.717 65.3574C979.632 66.0046 978.443 66.3098 977.148 66.2734C975.918 66.2552 974.856 65.918 973.963 65.2618C973.079 64.6054 972.432 63.7122 972.021 62.582C971.611 61.4518 971.465 60.2076 971.584 58.8496C971.721 57.3184 972.135 55.942 972.828 54.7208C973.521 53.4994 974.41 52.556 975.494 51.8906C976.588 51.2162 977.791 50.8972 979.104 50.9336ZM974.072 58.8632C974.008 59.4376 974.008 60.0346 974.072 60.6542C974.163 61.7298 974.482 62.5866 975.029 63.2246C975.585 63.8626 976.324 64.1954 977.244 64.2226C978.064 64.25 978.821 64.0494 979.514 63.621C980.206 63.1836 980.79 62.5274 981.264 61.6524C981.738 60.7774 982.043 59.8066 982.18 58.7402C982.253 57.9016 982.266 57.1954 982.221 56.621C982.111 55.5182 981.779 54.6478 981.223 54.0098C980.667 53.3718 979.928 53.0346 979.008 52.998C977.732 52.9708 976.647 53.472 975.754 54.502C974.861 55.532 974.309 56.8808 974.1 58.5488L974.072 58.8632ZM994.744 50.9336C995.984 50.9518 997.046 51.289 997.93 51.9454C998.814 52.6016 999.465 53.5084 999.885 54.666C1000.31 55.8144 1000.46 57.0722 1000.32 58.4394L1000.3 58.7402C1000.12 60.1804 999.693 61.4838 999.01 62.6504C998.326 63.808 997.442 64.7102 996.357 65.3574C995.273 66.0046 994.083 66.3098 992.789 66.2734C991.559 66.2552 990.497 65.918 989.604 65.2618C988.719 64.6054 988.072 63.7122 987.662 62.582C987.252 61.4518 987.106 60.2076 987.225 58.8496C987.361 57.3184 987.776 55.942 988.469 54.7208C989.161 53.4994 990.05 52.556 991.135 51.8906C992.229 51.2162 993.432 50.8972 994.744 50.9336ZM989.713 58.8632C989.649 59.4376 989.649 60.0346 989.713 60.6542C989.804 61.7298 990.123 62.5866 990.67 63.2246C991.226 63.8626 991.964 64.1954 992.885 64.2226C993.705 64.25 994.462 64.0494 995.154 63.621C995.847 63.1836 996.43 62.5274 996.904 61.6524C997.378 60.7774 997.684 59.8066 997.82 58.7402C997.893 57.9016 997.907 57.1954 997.861 56.621C997.752 55.5182 997.419 54.6478 996.863 54.0098C996.307 53.3718 995.569 53.0346 994.648 52.998C993.372 52.9708 992.288 53.472 991.395 54.502C990.501 55.532 989.95 56.8808 989.74 58.5488L989.713 58.8632ZM1004.85 66H1002.39L1006.02 45H1008.5L1004.85 66ZM1015.29 66.2734C1013.45 66.237 1012.01 65.558 1010.97 64.2364C1009.93 62.9148 1009.5 61.224 1009.66 59.164L1009.73 58.5762C1009.88 57.1088 1010.32 55.7688 1011.03 54.5566C1011.75 53.3444 1012.62 52.433 1013.65 51.8222C1014.68 51.2024 1015.79 50.9062 1016.99 50.9336C1018.51 50.97 1019.7 51.476 1020.57 52.4512C1021.44 53.4264 1021.91 54.748 1021.99 56.416C1022.02 57.0084 1022 57.601 1021.94 58.1934L1021.79 59.3282H1012.12C1011.96 60.668 1012.18 61.8072 1012.78 62.746C1013.39 63.6848 1014.3 64.1726 1015.5 64.209C1016.96 64.2454 1018.31 63.5892 1019.54 62.2402L1020.97 63.4434C1020.35 64.3366 1019.54 65.0384 1018.56 65.5488C1017.59 66.0502 1016.5 66.2916 1015.29 66.2734ZM1016.87 52.998C1015.84 52.9708 1014.95 53.317 1014.19 54.0372C1013.43 54.7572 1012.83 55.8282 1012.38 57.25L1019.57 57.2636L1019.63 57.045C1019.77 55.8964 1019.59 54.944 1019.07 54.1876C1018.56 53.4218 1017.82 53.0254 1016.87 52.998ZM1032.46 66C1032.4 65.7356 1032.37 65.476 1032.37 65.2208L1032.41 64.4414C1031.05 65.6992 1029.61 66.3098 1028.09 66.2734C1026.79 66.2552 1025.72 65.845 1024.9 65.043C1024.09 64.2318 1023.72 63.22 1023.8 62.0078C1023.89 60.4402 1024.57 59.2188 1025.85 58.3438C1027.13 57.4596 1028.82 57.0176 1030.91 57.0176L1033.49 57.0312L1033.65 55.8554C1033.75 54.9714 1033.57 54.274 1033.13 53.7636C1032.71 53.2442 1032.06 52.9752 1031.19 52.957C1030.35 52.9388 1029.59 53.1484 1028.94 53.586C1028.29 54.0144 1027.89 54.584 1027.75 55.295L1025.26 55.3086C1025.34 54.4428 1025.68 53.677 1026.27 53.0118C1026.86 52.3372 1027.62 51.8178 1028.55 51.4532C1029.48 51.0794 1030.45 50.9016 1031.44 50.92C1032.98 50.9564 1034.18 51.4258 1035.04 52.3282C1035.89 53.2214 1036.25 54.4108 1036.12 55.8964L1034.91 63.2246L1034.84 64.2774C1034.83 64.7786 1034.88 65.2754 1035.01 65.7676L1034.98 66H1032.46ZM1028.58 64.086C1029.38 64.1042 1030.12 63.9174 1030.82 63.5254C1031.54 63.1244 1032.15 62.573 1032.66 61.871L1033.19 58.8222L1031.32 58.8086C1029.76 58.8086 1028.56 59.0546 1027.73 59.5468C1026.91 60.039 1026.44 60.7364 1026.33 61.6386C1026.24 62.3314 1026.4 62.9102 1026.8 63.375C1027.21 63.8308 1027.81 64.0678 1028.58 64.086ZM1043.25 51.1934L1042.9 53.0664C1044.23 51.608 1045.74 50.8972 1047.44 50.9336C1048.83 50.97 1049.86 51.4532 1050.53 52.3828C1051.19 53.3124 1051.44 54.6204 1051.26 56.3066L1049.65 66H1047.18L1048.8 56.2656C1048.86 55.819 1048.86 55.4042 1048.82 55.0214C1048.66 53.7454 1047.91 53.0938 1046.56 53.0664C1045.07 53.039 1043.77 53.832 1042.65 55.4454L1040.82 66H1038.34L1040.91 51.207L1043.25 51.1934ZM1065.61 44.7402L1066.97 45.752C1065.95 47.028 1065.32 48.2766 1065.07 49.498L1064.74 51.33H1062.28L1062.53 49.7988C1062.86 47.7754 1063.88 46.0892 1065.61 44.7402ZM1073.28 50.9336C1074.52 50.9518 1075.58 51.289 1076.46 51.9454C1077.34 52.6016 1078 53.5084 1078.42 54.666C1078.84 55.8144 1078.99 57.0722 1078.85 58.4394L1078.83 58.7402C1078.65 60.1804 1078.22 61.4838 1077.54 62.6504C1076.86 63.808 1075.97 64.7102 1074.89 65.3574C1073.8 66.0046 1072.61 66.3098 1071.32 66.2734C1070.09 66.2552 1069.03 65.918 1068.13 65.2618C1067.25 64.6054 1066.6 63.7122 1066.19 62.582C1065.78 61.4518 1065.64 60.2076 1065.76 58.8496C1065.89 57.3184 1066.31 55.942 1067 54.7208C1067.69 53.4994 1068.58 52.556 1069.67 51.8906C1070.76 51.2162 1071.96 50.8972 1073.28 50.9336ZM1068.24 58.8632C1068.18 59.4376 1068.18 60.0346 1068.24 60.6542C1068.34 61.7298 1068.65 62.5866 1069.2 63.2246C1069.76 63.8626 1070.5 64.1954 1071.42 64.2226C1072.24 64.25 1072.99 64.0494 1073.69 63.621C1074.38 63.1836 1074.96 62.5274 1075.44 61.6524C1075.91 60.7774 1076.21 59.8066 1076.35 58.7402C1076.42 57.9016 1076.44 57.1954 1076.39 56.621C1076.28 55.5182 1075.95 54.6478 1075.39 54.0098C1074.84 53.3718 1074.1 53.0346 1073.18 52.998C1071.9 52.9708 1070.82 53.472 1069.93 54.502C1069.03 55.532 1068.48 56.8808 1068.27 58.5488L1068.24 58.8632ZM1089.9 53.4628L1088.74 53.3398C1087.15 53.3398 1085.9 54.0554 1084.99 55.4864L1083.17 66H1080.7L1083.27 51.207L1085.66 51.1934L1085.29 52.916C1086.34 51.5398 1087.58 50.8698 1089 50.9062C1089.3 50.9062 1089.69 50.9746 1090.17 51.1114L1089.9 53.4628ZM1093.06 51.6992L1091.69 50.6876C1092.77 49.3476 1093.41 48.0488 1093.63 46.791L1093.95 45H1096.38L1096.12 46.6542C1095.79 48.705 1094.77 50.3868 1093.06 51.6992ZM1095.27 69.9786L1093.85 68.9532C1094.91 67.6498 1095.57 66.3554 1095.82 65.0704L1096.18 63.0058H1098.6L1098.31 64.8516C1097.98 66.9296 1096.97 68.6386 1095.27 69.9786ZM898.59 85.4628L897.428 85.3398C895.842 85.3398 894.593 86.0554 893.682 87.4864L891.863 98H889.389L891.959 83.207L894.352 83.1934L893.982 84.916C895.031 83.5398 896.266 82.8698 897.688 82.9062C897.988 82.9062 898.38 82.9746 898.863 83.1114L898.59 85.4628ZM906.656 82.9336C907.896 82.9518 908.958 83.289 909.842 83.9454C910.726 84.6016 911.378 85.5084 911.797 86.666C912.225 87.8144 912.371 89.0722 912.234 90.4394L912.207 90.7402C912.034 92.1804 911.605 93.4838 910.922 94.6504C910.238 95.808 909.354 96.7102 908.27 97.3574C907.185 98.0046 905.995 98.3098 904.701 98.2734C903.471 98.2552 902.409 97.918 901.516 97.2618C900.632 96.6054 899.984 95.7122 899.574 94.582C899.164 93.4518 899.018 92.2076 899.137 90.8496C899.273 89.3184 899.688 87.942 900.381 86.7208C901.074 85.4994 901.962 84.556 903.047 83.8906C904.141 83.2162 905.344 82.8972 906.656 82.9336ZM901.625 90.8632C901.561 91.4376 901.561 92.0346 901.625 92.6542C901.716 93.7298 902.035 94.5866 902.582 95.2246C903.138 95.8626 903.876 96.1954 904.797 96.2226C905.617 96.25 906.374 96.0494 907.066 95.621C907.759 95.1836 908.342 94.5274 908.816 93.6524C909.29 92.7774 909.596 91.8066 909.732 90.7402C909.805 89.9016 909.819 89.1954 909.773 88.621C909.664 87.5182 909.331 86.6478 908.775 86.0098C908.219 85.3718 907.481 85.0346 906.561 84.998C905.285 84.9708 904.2 85.472 903.307 86.502C902.413 87.532 901.862 88.8808 901.652 90.5488L901.625 90.8632ZM927.355 94.5L932.072 83.207H934.629L927.889 98H925.879L924.348 86.8164L919.016 98H917.006L915.406 83.207H917.771L918.674 94.2266L923.924 83.207H925.92L927.355 94.5ZM943.803 93.9942C943.939 92.9734 943.379 92.2532 942.121 91.834L939.551 91.082C937.382 90.3346 936.333 89.095 936.406 87.3632C936.47 86.0598 937.062 84.9934 938.184 84.164C939.314 83.3256 940.64 82.9154 942.162 82.9336C943.657 82.9518 944.869 83.3894 945.799 84.246C946.738 85.0938 947.189 86.2012 947.152 87.5684L944.691 87.5546C944.71 86.8164 944.477 86.2148 943.994 85.75C943.511 85.2852 942.868 85.0436 942.066 85.0254C941.21 85.0072 940.471 85.2168 939.852 85.6542C939.277 86.0644 938.945 86.6022 938.854 87.2676C938.735 88.1244 939.259 88.7486 940.426 89.1406L941.67 89.4824C943.365 89.92 944.568 90.4896 945.279 91.1914C945.99 91.8932 946.318 92.7636 946.264 93.8028C946.209 94.7234 945.908 95.5254 945.361 96.209C944.814 96.8926 944.085 97.4166 943.174 97.7812C942.262 98.1368 941.292 98.3008 940.262 98.2734C938.694 98.2552 937.4 97.7994 936.379 96.9062C935.358 96.004 934.866 94.8464 934.902 93.4336L937.377 93.4472C937.377 94.2766 937.641 94.942 938.17 95.4434C938.699 95.9446 939.423 96.1954 940.344 96.1954C941.246 96.2136 942.025 96.0266 942.682 95.6348C943.338 95.2338 943.712 94.6868 943.803 93.9942ZM968.918 94.5L973.635 83.207H976.191L969.451 98H967.441L965.91 86.8164L960.578 98H958.568L956.969 83.207H959.334L960.236 94.2266L965.486 83.207H967.482L968.918 94.5ZM980.826 85.0118C982.12 83.599 983.611 82.9108 985.297 82.9472C986.682 82.9654 987.708 83.444 988.373 84.3828C989.048 85.3124 989.298 86.6204 989.125 88.3066L987.512 98H985.037L986.664 88.2656C986.719 87.819 986.723 87.4042 986.678 87.0214C986.523 85.7454 985.771 85.0938 984.422 85.0664C982.909 85.03 981.605 85.823 980.512 87.4454L978.68 98H976.205L979.855 77H982.33L980.826 85.0118ZM997.697 98.2734C995.856 98.237 994.416 97.558 993.377 96.2364C992.338 94.9148 991.9 93.224 992.064 91.164L992.133 90.5762C992.288 89.1088 992.721 87.7688 993.432 86.5566C994.152 85.3444 995.027 84.433 996.057 83.8222C997.087 83.2024 998.199 82.9062 999.393 82.9336C1000.91 82.97 1002.11 83.476 1002.97 84.4512C1003.84 85.4264 1004.31 86.748 1004.4 88.416C1004.42 89.0084 1004.41 89.601 1004.34 90.1934L1004.19 91.3282H994.525C994.361 92.668 994.58 93.8072 995.182 94.746C995.792 95.6848 996.699 96.1726 997.902 96.209C999.361 96.2454 1000.71 95.5892 1001.95 94.2402L1003.37 95.4434C1002.75 96.3366 1001.95 97.0384 1000.96 97.5488C999.99 98.0502 998.9 98.2916 997.697 98.2734ZM999.27 84.998C998.249 84.9708 997.355 85.317 996.59 86.0372C995.833 86.7572 995.232 87.8282 994.785 89.25L1001.98 89.2636L1002.03 89.045C1002.18 87.8964 1001.99 86.944 1001.47 86.1876C1000.96 85.4218 1000.23 85.0254 999.27 84.998ZM1015.02 85.4628L1013.86 85.3398C1012.27 85.3398 1011.02 86.0554 1010.11 87.4864L1008.29 98H1005.82L1008.39 83.207L1010.78 83.1934L1010.41 84.916C1011.46 83.5398 1012.7 82.8698 1014.12 82.9062C1014.42 82.9062 1014.81 82.9746 1015.29 83.1114L1015.02 85.4628ZM1021.27 98.2734C1019.43 98.237 1017.99 97.558 1016.95 96.2364C1015.91 94.9148 1015.47 93.224 1015.63 91.164L1015.7 90.5762C1015.86 89.1088 1016.29 87.7688 1017 86.5566C1017.72 85.3444 1018.6 84.433 1019.63 83.8222C1020.66 83.2024 1021.77 82.9062 1022.96 82.9336C1024.48 82.97 1025.68 83.476 1026.54 84.4512C1027.41 85.4264 1027.88 86.748 1027.97 88.416C1027.99 89.0084 1027.98 89.601 1027.91 90.1934L1027.76 91.3282H1018.1C1017.93 92.668 1018.15 93.8072 1018.75 94.746C1019.36 95.6848 1020.27 96.1726 1021.47 96.209C1022.93 96.2454 1024.28 95.5892 1025.52 94.2402L1026.94 95.4434C1026.32 96.3366 1025.52 97.0384 1024.54 97.5488C1023.56 98.0502 1022.47 98.2916 1021.27 98.2734ZM1022.84 84.998C1021.82 84.9708 1020.93 85.317 1020.16 86.0372C1019.4 86.7572 1018.8 87.8282 1018.36 89.25L1025.55 89.2636L1025.6 89.045C1025.75 87.8964 1025.56 86.944 1025.04 86.1876C1024.53 85.4218 1023.8 85.0254 1022.84 84.998ZM1042.65 98.2734C1040.81 98.237 1039.37 97.558 1038.33 96.2364C1037.29 94.9148 1036.85 93.224 1037.02 91.164L1037.09 90.5762C1037.24 89.1088 1037.67 87.7688 1038.38 86.5566C1039.1 85.3444 1039.98 84.433 1041.01 83.8222C1042.04 83.2024 1043.15 82.9062 1044.35 82.9336C1045.87 82.97 1047.06 83.476 1047.93 84.4512C1048.79 85.4264 1049.27 86.748 1049.35 88.416C1049.38 89.0084 1049.36 89.601 1049.29 90.1934L1049.14 91.3282H1039.48C1039.31 92.668 1039.53 93.8072 1040.13 94.746C1040.75 95.6848 1041.65 96.1726 1042.86 96.209C1044.31 96.2454 1045.66 95.5892 1046.9 94.2402L1048.32 95.4434C1047.7 96.3366 1046.9 97.0384 1045.92 97.5488C1044.94 98.0502 1043.85 98.2916 1042.65 98.2734ZM1044.22 84.998C1043.2 84.9708 1042.31 85.317 1041.54 86.0372C1040.79 86.7572 1040.18 87.8282 1039.74 89.25L1046.93 89.2636L1046.98 89.045C1047.13 87.8964 1046.94 86.944 1046.42 86.1876C1045.91 85.4218 1045.18 85.0254 1044.22 84.998ZM1053.45 98H1050.99L1053.56 83.207H1056.02L1053.45 98ZM1055.49 77.8066C1055.91 77.7884 1056.25 77.916 1056.53 78.1894C1056.81 78.4538 1056.95 78.8046 1056.95 79.2422C1056.94 79.6706 1056.8 80.0214 1056.53 80.295C1056.26 80.5684 1055.92 80.7142 1055.49 80.7324C1055.06 80.7506 1054.71 80.6276 1054.44 80.3632C1054.16 80.099 1054.03 79.7526 1054.04 79.3242C1054.05 78.8958 1054.18 78.5404 1054.45 78.2578C1054.71 77.9752 1055.06 77.8248 1055.49 77.8066ZM1064.03 79.625L1063.4 83.207H1066.1L1065.76 85.1622H1063.08L1061.53 94.3632C1061.5 94.6002 1061.5 94.819 1061.52 95.0196C1061.58 95.7304 1061.97 96.086 1062.68 96.086C1062.98 96.086 1063.38 96.0404 1063.88 95.9492L1063.69 98.0136C1063.1 98.1778 1062.5 98.2598 1061.89 98.2598C1060.9 98.2416 1060.16 97.8816 1059.67 97.1796C1059.18 96.4688 1058.99 95.5162 1059.1 94.3222L1060.6 85.1622H1057.99L1058.33 83.207H1060.94L1061.57 79.625H1064.03ZM1071.14 85.0118C1072.44 83.599 1073.93 82.9108 1075.61 82.9472C1077 82.9654 1078.02 83.444 1078.69 84.3828C1079.36 85.3124 1079.61 86.6204 1079.44 88.3066L1077.83 98H1075.35L1076.98 88.2656C1077.04 87.819 1077.04 87.4042 1076.99 87.0214C1076.84 85.7454 1076.09 85.0938 1074.74 85.0664C1073.23 85.03 1071.92 85.823 1070.83 87.4454L1069 98H1066.52L1070.17 77H1072.65L1071.14 85.0118ZM1088.01 98.2734C1086.17 98.237 1084.73 97.558 1083.69 96.2364C1082.65 94.9148 1082.22 93.224 1082.38 91.164L1082.45 90.5762C1082.6 89.1088 1083.04 87.7688 1083.75 86.5566C1084.47 85.3444 1085.34 84.433 1086.37 83.8222C1087.4 83.2024 1088.51 82.9062 1089.71 82.9336C1091.23 82.97 1092.43 83.476 1093.29 84.4512C1094.16 85.4264 1094.63 86.748 1094.71 88.416C1094.74 89.0084 1094.72 89.601 1094.66 90.1934L1094.51 91.3282H1084.84C1084.68 92.668 1084.9 93.8072 1085.5 94.746C1086.11 95.6848 1087.02 96.1726 1088.22 96.209C1089.68 96.2454 1091.03 95.5892 1092.27 94.2402L1093.69 95.4434C1093.07 96.3366 1092.27 97.0384 1091.28 97.5488C1090.31 98.0502 1089.22 98.2916 1088.01 98.2734ZM1089.59 84.998C1088.57 84.9708 1087.67 85.317 1086.91 86.0372C1086.15 86.7572 1085.55 87.8282 1085.1 89.25L1092.29 89.2636L1092.35 89.045C1092.49 87.8964 1092.31 86.944 1091.79 86.1876C1091.28 85.4218 1090.54 85.0254 1089.59 84.998ZM1105.34 85.4628L1104.17 85.3398C1102.59 85.3398 1101.34 86.0554 1100.43 87.4864L1098.61 98H1096.13L1098.71 83.207L1101.1 83.1934L1100.73 84.916C1101.78 83.5398 1103.01 82.8698 1104.43 82.9062C1104.73 82.9062 1105.13 82.9746 1105.61 83.1114L1105.34 85.4628ZM917.197 130.223C918.081 130.241 918.879 129.986 919.59 129.457C920.301 128.919 920.766 128.217 920.984 127.352L923.322 127.338C923.186 128.268 922.812 129.115 922.201 129.881C921.6 130.646 920.839 131.243 919.918 131.672C918.997 132.1 918.054 132.301 917.088 132.273C915.857 132.255 914.814 131.936 913.957 131.316C913.109 130.688 912.485 129.817 912.084 128.705C911.683 127.584 911.546 126.326 911.674 124.932L911.742 124.248C911.915 122.826 912.33 121.555 912.986 120.434C913.643 119.312 914.499 118.442 915.557 117.822C916.614 117.193 917.781 116.897 919.057 116.934C920.606 116.97 921.846 117.49 922.775 118.492C923.705 119.495 924.17 120.766 924.17 122.307L921.859 122.293C921.841 121.327 921.572 120.548 921.053 119.955C920.533 119.354 919.831 119.035 918.947 118.998C917.662 118.971 916.591 119.449 915.734 120.434C914.887 121.418 914.358 122.794 914.148 124.562L914.107 124.918C914.053 125.501 914.044 126.103 914.08 126.723C914.144 127.789 914.445 128.632 914.982 129.252C915.52 129.872 916.258 130.195 917.197 130.223ZM933.521 116.934C934.761 116.952 935.823 117.289 936.707 117.945C937.591 118.602 938.243 119.508 938.662 120.666C939.09 121.814 939.236 123.072 939.1 124.439L939.072 124.74C938.899 126.18 938.471 127.484 937.787 128.65C937.104 129.808 936.219 130.71 935.135 131.357C934.05 132.005 932.861 132.31 931.566 132.273C930.336 132.255 929.274 131.918 928.381 131.262C927.497 130.605 926.85 129.712 926.439 128.582C926.029 127.452 925.883 126.208 926.002 124.85C926.139 123.318 926.553 121.942 927.246 120.721C927.939 119.499 928.827 118.556 929.912 117.891C931.006 117.216 932.209 116.897 933.521 116.934ZM928.49 124.863C928.426 125.438 928.426 126.035 928.49 126.654C928.581 127.73 928.9 128.587 929.447 129.225C930.003 129.863 930.742 130.195 931.662 130.223C932.482 130.25 933.239 130.049 933.932 129.621C934.624 129.184 935.208 128.527 935.682 127.652C936.156 126.777 936.461 125.807 936.598 124.74C936.671 123.902 936.684 123.195 936.639 122.621C936.529 121.518 936.197 120.648 935.641 120.01C935.085 119.372 934.346 119.035 933.426 118.998C932.15 118.971 931.065 119.472 930.172 120.502C929.279 121.532 928.727 122.881 928.518 124.549L928.49 124.863ZM945.826 117.193L945.512 118.848C946.751 117.535 948.251 116.897 950.01 116.934C950.949 116.952 951.742 117.166 952.389 117.576C953.045 117.986 953.496 118.565 953.742 119.312C955.128 117.69 956.764 116.897 958.65 116.934C960.127 116.97 961.216 117.467 961.918 118.424C962.62 119.381 962.88 120.666 962.697 122.279L961.07 132H958.609L960.223 122.252C960.277 121.778 960.277 121.345 960.223 120.953C960.049 119.714 959.238 119.08 957.789 119.053C956.887 119.035 956.066 119.317 955.328 119.9C954.599 120.475 954.13 121.231 953.92 122.17L952.238 132H949.75L951.391 122.266C951.509 121.254 951.354 120.475 950.926 119.928C950.507 119.381 949.85 119.098 948.957 119.08C947.417 119.044 946.191 119.745 945.279 121.186L943.406 132H940.932L943.502 117.207L945.826 117.193ZM978.297 124.672C978.115 126.176 977.709 127.529 977.08 128.732C976.451 129.936 975.672 130.838 974.742 131.439C973.812 132.032 972.783 132.314 971.652 132.287C969.939 132.251 968.626 131.672 967.715 130.551L966.389 137.688H963.914L967.469 117.207L969.711 117.193L969.438 118.848C970.659 117.535 972.122 116.897 973.826 116.934C975.248 116.97 976.355 117.494 977.148 118.506C977.941 119.518 978.361 120.912 978.406 122.689C978.415 123.273 978.393 123.838 978.338 124.385L978.297 124.672ZM975.863 124.385L975.932 123.236C975.932 121.906 975.676 120.889 975.166 120.188C974.665 119.477 973.936 119.103 972.979 119.066C971.548 119.03 970.312 119.709 969.273 121.104L968.029 128.199C968.585 129.512 969.583 130.186 971.023 130.223C972.254 130.25 973.298 129.771 974.154 128.787C975.02 127.794 975.59 126.326 975.863 124.385ZM989.344 132C989.28 131.736 989.248 131.476 989.248 131.221L989.289 130.441C987.931 131.699 986.491 132.31 984.969 132.273C983.665 132.255 982.604 131.845 981.783 131.043C980.972 130.232 980.603 129.22 980.676 128.008C980.767 126.44 981.451 125.219 982.727 124.344C984.012 123.46 985.698 123.018 987.785 123.018L990.369 123.031L990.533 121.855C990.624 120.971 990.451 120.274 990.014 119.764C989.585 119.244 988.938 118.975 988.072 118.957C987.225 118.939 986.473 119.148 985.816 119.586C985.169 120.014 984.773 120.584 984.627 121.295L982.139 121.309C982.221 120.443 982.558 119.677 983.15 119.012C983.743 118.337 984.504 117.818 985.434 117.453C986.363 117.079 987.325 116.902 988.318 116.92C989.859 116.956 991.057 117.426 991.914 118.328C992.771 119.221 993.131 120.411 992.994 121.896L991.791 129.225L991.723 130.277C991.704 130.779 991.759 131.275 991.887 131.768L991.859 132H989.344ZM985.461 130.086C986.254 130.104 987.001 129.917 987.703 129.525C988.414 129.124 989.025 128.573 989.535 127.871L990.068 124.822L988.195 124.809C986.637 124.809 985.443 125.055 984.613 125.547C983.784 126.039 983.314 126.736 983.205 127.639C983.123 128.331 983.283 128.91 983.684 129.375C984.094 129.831 984.686 130.068 985.461 130.086ZM1004.42 119.463L1003.26 119.34C1001.68 119.34 1000.43 120.055 999.516 121.486L997.697 132H995.223L997.793 117.207L1000.19 117.193L999.816 118.916C1000.86 117.54 1002.1 116.87 1003.52 116.906C1003.82 116.906 1004.21 116.975 1004.7 117.111L1004.42 119.463ZM1007.23 132H1004.77L1007.34 117.207H1009.8L1007.23 132ZM1009.26 111.807C1009.68 111.788 1010.03 111.916 1010.3 112.189C1010.59 112.454 1010.73 112.805 1010.73 113.242C1010.72 113.671 1010.58 114.021 1010.3 114.295C1010.04 114.568 1009.69 114.714 1009.26 114.732C1008.84 114.751 1008.48 114.628 1008.21 114.363C1007.94 114.099 1007.81 113.753 1007.81 113.324C1007.82 112.896 1007.96 112.54 1008.22 112.258C1008.49 111.975 1008.84 111.825 1009.26 111.807ZM1020.43 127.994C1020.57 126.973 1020.01 126.253 1018.75 125.834L1016.18 125.082C1014.01 124.335 1012.96 123.095 1013.04 121.363C1013.1 120.06 1013.69 118.993 1014.81 118.164C1015.94 117.326 1017.27 116.915 1018.79 116.934C1020.29 116.952 1021.5 117.389 1022.43 118.246C1023.37 119.094 1023.82 120.201 1023.78 121.568L1021.32 121.555C1021.34 120.816 1021.11 120.215 1020.62 119.75C1020.14 119.285 1019.5 119.044 1018.7 119.025C1017.84 119.007 1017.1 119.217 1016.48 119.654C1015.91 120.064 1015.58 120.602 1015.48 121.268C1015.37 122.124 1015.89 122.749 1017.06 123.141L1018.3 123.482C1020 123.92 1021.2 124.49 1021.91 125.191C1022.62 125.893 1022.95 126.764 1022.89 127.803C1022.84 128.723 1022.54 129.525 1021.99 130.209C1021.45 130.893 1020.72 131.417 1019.8 131.781C1018.89 132.137 1017.92 132.301 1016.89 132.273C1015.32 132.255 1014.03 131.799 1013.01 130.906C1011.99 130.004 1011.5 128.846 1011.53 127.434L1014.01 127.447C1014.01 128.277 1014.27 128.942 1014.8 129.443C1015.33 129.945 1016.05 130.195 1016.97 130.195C1017.88 130.214 1018.66 130.027 1019.31 129.635C1019.97 129.234 1020.34 128.687 1020.43 127.994ZM1033.63 116.934C1034.87 116.952 1035.93 117.289 1036.81 117.945C1037.7 118.602 1038.35 119.508 1038.77 120.666C1039.2 121.814 1039.34 123.072 1039.21 124.439L1039.18 124.74C1039 126.18 1038.58 127.484 1037.89 128.65C1037.21 129.808 1036.32 130.71 1035.24 131.357C1034.16 132.005 1032.97 132.31 1031.67 132.273C1030.44 132.255 1029.38 131.918 1028.49 131.262C1027.6 130.605 1026.95 129.712 1026.54 128.582C1026.13 127.452 1025.99 126.208 1026.11 124.85C1026.24 123.318 1026.66 121.942 1027.35 120.721C1028.04 119.499 1028.93 118.556 1030.02 117.891C1031.11 117.216 1032.31 116.897 1033.63 116.934ZM1028.6 124.863C1028.53 125.438 1028.53 126.035 1028.6 126.654C1028.69 127.73 1029.01 128.587 1029.55 129.225C1030.11 129.863 1030.85 130.195 1031.77 130.223C1032.59 130.25 1033.34 130.049 1034.04 129.621C1034.73 129.184 1035.31 128.527 1035.79 127.652C1036.26 126.777 1036.57 125.807 1036.7 124.74C1036.78 123.902 1036.79 123.195 1036.74 122.621C1036.63 121.518 1036.3 120.648 1035.75 120.01C1035.19 119.372 1034.45 119.035 1033.53 118.998C1032.26 118.971 1031.17 119.472 1030.28 120.502C1029.38 121.532 1028.83 122.881 1028.62 124.549L1028.6 124.863ZM1045.96 117.193L1045.6 119.066C1046.93 117.608 1048.45 116.897 1050.14 116.934C1051.54 116.97 1052.57 117.453 1053.23 118.383C1053.9 119.312 1054.14 120.62 1053.97 122.307L1052.36 132H1049.88L1051.51 122.266C1051.56 121.819 1051.57 121.404 1051.52 121.021C1051.37 119.745 1050.62 119.094 1049.27 119.066C1047.78 119.039 1046.48 119.832 1045.36 121.445L1043.53 132H1041.05L1043.62 117.207L1045.96 117.193ZM1065.71 132H1063.25L1065.82 117.207H1068.29L1065.71 132ZM1067.75 111.807C1068.17 111.788 1068.52 111.916 1068.79 112.189C1069.07 112.454 1069.21 112.805 1069.21 113.242C1069.21 113.671 1069.06 114.021 1068.79 114.295C1068.53 114.568 1068.18 114.714 1067.75 114.732C1067.32 114.751 1066.97 114.628 1066.7 114.363C1066.43 114.099 1066.29 113.753 1066.3 113.324C1066.31 112.896 1066.45 112.54 1066.71 112.258C1066.98 111.975 1067.32 111.825 1067.75 111.807ZM1078.92 127.994C1079.06 126.973 1078.5 126.253 1077.24 125.834L1074.67 125.082C1072.5 124.335 1071.45 123.095 1071.53 121.363C1071.59 120.06 1072.18 118.993 1073.3 118.164C1074.43 117.326 1075.76 116.915 1077.28 116.934C1078.78 116.952 1079.99 117.389 1080.92 118.246C1081.86 119.094 1082.31 120.201 1082.27 121.568L1079.81 121.555C1079.83 120.816 1079.6 120.215 1079.11 119.75C1078.63 119.285 1077.99 119.044 1077.19 119.025C1076.33 119.007 1075.59 119.217 1074.97 119.654C1074.4 120.064 1074.06 120.602 1073.97 121.268C1073.85 122.124 1074.38 122.749 1075.54 123.141L1076.79 123.482C1078.48 123.92 1079.69 124.49 1080.4 125.191C1081.11 125.893 1081.44 126.764 1081.38 127.803C1081.33 128.723 1081.03 129.525 1080.48 130.209C1079.93 130.893 1079.2 131.417 1078.29 131.781C1077.38 132.137 1076.41 132.301 1075.38 132.273C1073.81 132.255 1072.52 131.799 1071.5 130.906C1070.48 130.004 1069.98 128.846 1070.02 127.434L1072.5 127.447C1072.5 128.277 1072.76 128.942 1073.29 129.443C1073.82 129.945 1074.54 130.195 1075.46 130.195C1076.37 130.214 1077.14 130.027 1077.8 129.635C1078.46 129.234 1078.83 128.687 1078.92 127.994ZM894.319 150.432H888.551V147.688H903.335V150.432H897.567V166H894.319V150.432ZM907.972 152.252H910.632L910.912 155.36H910.996C911.705 154.24 912.555 153.391 913.544 152.812C914.552 152.215 915.653 151.916 916.848 151.916C917.408 151.916 917.884 151.963 918.276 152.056C918.687 152.131 919.097 152.271 919.508 152.476L918.836 155.192C918.388 155.043 917.987 154.94 917.632 154.884C917.296 154.809 916.867 154.772 916.344 154.772C915.392 154.772 914.477 155.043 913.6 155.584C912.723 156.125 911.929 157.068 911.22 158.412V166H907.972V152.252ZM935.541 166H932.909L932.657 163.816H932.545C931.892 164.581 931.173 165.197 930.389 165.664C929.605 166.112 928.7 166.336 927.673 166.336C926.068 166.336 924.901 165.86 924.173 164.908C923.445 163.937 923.081 162.556 923.081 160.764V152.252H926.301V160.344C926.301 161.464 926.488 162.285 926.861 162.808C927.253 163.312 927.925 163.564 928.877 163.564C929.53 163.564 930.109 163.415 930.613 163.116C931.136 162.817 931.705 162.285 932.321 161.52V152.252H935.541V166ZM939.646 159.14C939.646 158.02 939.842 157.012 940.234 156.116C940.645 155.22 941.177 154.464 941.83 153.848C942.483 153.213 943.23 152.737 944.07 152.42C944.929 152.084 945.806 151.916 946.702 151.916C947.729 151.916 948.634 152.084 949.418 152.42C950.221 152.737 950.893 153.185 951.434 153.764C951.975 154.324 952.386 155.005 952.666 155.808C952.946 156.611 953.086 157.488 953.086 158.44C953.086 158.757 953.067 159.056 953.03 159.336C953.011 159.616 952.983 159.84 952.946 160.008H942.95C943.062 161.24 943.547 162.192 944.406 162.864C945.265 163.517 946.319 163.844 947.57 163.844C948.279 163.844 948.942 163.751 949.558 163.564C950.174 163.359 950.799 163.079 951.434 162.724L952.526 164.74C951.779 165.207 950.949 165.589 950.034 165.888C949.119 166.187 948.158 166.336 947.15 166.336C946.105 166.336 945.125 166.177 944.21 165.86C943.295 165.524 942.502 165.048 941.83 164.432C941.158 163.816 940.626 163.069 940.234 162.192C939.842 161.296 939.646 160.279 939.646 159.14ZM950.118 157.824C950.118 156.76 949.838 155.929 949.278 155.332C948.718 154.716 947.887 154.408 946.786 154.408C945.853 154.408 945.022 154.697 944.294 155.276C943.566 155.855 943.109 156.704 942.922 157.824H950.118ZM975.262 162.5L979.979 151.207H982.535L975.795 166H973.785L972.254 154.816L966.922 166H964.912L963.312 151.207H965.678L966.58 162.227L971.83 151.207H973.826L975.262 162.5ZM985.229 166H982.768L985.338 151.207H987.799L985.229 166ZM987.266 145.807C987.685 145.788 988.031 145.916 988.305 146.189C988.587 146.454 988.729 146.805 988.729 147.242C988.719 147.671 988.578 148.021 988.305 148.295C988.04 148.568 987.694 148.714 987.266 148.732C986.837 148.751 986.486 148.628 986.213 148.363C985.939 148.099 985.807 147.753 985.816 147.324C985.826 146.896 985.962 146.54 986.227 146.258C986.491 145.975 986.837 145.825 987.266 145.807ZM991.955 166H989.494L993.131 145H995.605L991.955 166ZM998.682 166H996.221L999.857 145H1002.33L998.682 166ZM1018.79 153.463L1017.63 153.34C1016.04 153.34 1014.8 154.055 1013.88 155.486L1012.07 166H1009.59L1012.16 151.207L1014.55 151.193L1014.19 152.916C1015.23 151.54 1016.47 150.87 1017.89 150.906C1018.19 150.906 1018.58 150.975 1019.07 151.111L1018.79 153.463ZM1025.04 166.273C1023.2 166.237 1021.76 165.558 1020.72 164.236C1019.68 162.915 1019.24 161.224 1019.41 159.164L1019.48 158.576C1019.63 157.109 1020.06 155.769 1020.78 154.557C1021.5 153.344 1022.37 152.433 1023.4 151.822C1024.43 151.202 1025.54 150.906 1026.74 150.934C1028.26 150.97 1029.45 151.476 1030.32 152.451C1031.18 153.426 1031.66 154.748 1031.74 156.416C1031.77 157.008 1031.75 157.601 1031.69 158.193L1031.54 159.328H1021.87C1021.71 160.668 1021.92 161.807 1022.53 162.746C1023.14 163.685 1024.04 164.173 1025.25 164.209C1026.7 164.245 1028.05 163.589 1029.29 162.24L1030.71 163.443C1030.09 164.337 1029.29 165.038 1028.31 165.549C1027.33 166.05 1026.24 166.292 1025.04 166.273ZM1026.61 152.998C1025.59 152.971 1024.7 153.317 1023.93 154.037C1023.18 154.757 1022.58 155.828 1022.13 157.25L1029.32 157.264L1029.38 157.045C1029.52 155.896 1029.33 154.944 1028.81 154.188C1028.3 153.422 1027.57 153.025 1026.61 152.998ZM1042.32 161.994C1042.46 160.973 1041.9 160.253 1040.64 159.834L1038.07 159.082C1035.9 158.335 1034.85 157.095 1034.93 155.363C1034.99 154.06 1035.58 152.993 1036.7 152.164C1037.83 151.326 1039.16 150.915 1040.68 150.934C1042.18 150.952 1043.39 151.389 1044.32 152.246C1045.26 153.094 1045.71 154.201 1045.67 155.568L1043.21 155.555C1043.23 154.816 1043 154.215 1042.51 153.75C1042.03 153.285 1041.39 153.044 1040.59 153.025C1039.73 153.007 1038.99 153.217 1038.37 153.654C1037.8 154.064 1037.46 154.602 1037.37 155.268C1037.25 156.124 1037.78 156.749 1038.95 157.141L1040.19 157.482C1041.88 157.92 1043.09 158.49 1043.8 159.191C1044.51 159.893 1044.84 160.764 1044.78 161.803C1044.73 162.723 1044.43 163.525 1043.88 164.209C1043.33 164.893 1042.6 165.417 1041.69 165.781C1040.78 166.137 1039.81 166.301 1038.78 166.273C1037.21 166.255 1035.92 165.799 1034.9 164.906C1033.88 164.004 1033.39 162.846 1033.42 161.434L1035.9 161.447C1035.9 162.277 1036.16 162.942 1036.69 163.443C1037.22 163.945 1037.94 164.195 1038.86 164.195C1039.77 164.214 1040.55 164.027 1041.2 163.635C1041.86 163.234 1042.23 162.687 1042.32 161.994ZM1056.69 164.537C1055.53 165.731 1054.06 166.31 1052.28 166.273C1050.86 166.237 1049.81 165.731 1049.13 164.756C1048.46 163.781 1048.21 162.45 1048.38 160.764L1049.96 151.207H1052.44L1050.84 160.805C1050.79 161.206 1050.79 161.598 1050.81 161.98C1050.86 162.637 1051.05 163.152 1051.4 163.525C1051.75 163.899 1052.23 164.1 1052.85 164.127C1054.62 164.182 1055.99 163.466 1056.95 161.98L1058.81 151.207H1061.29L1058.71 166H1056.38L1056.69 164.537ZM1065.1 166H1062.64L1066.28 145H1068.75L1065.1 166ZM1075.68 147.625L1075.05 151.207H1077.75L1077.4 153.162H1074.72L1073.18 162.363C1073.15 162.6 1073.15 162.819 1073.17 163.02C1073.23 163.73 1073.62 164.086 1074.33 164.086C1074.63 164.086 1075.03 164.04 1075.53 163.949L1075.34 166.014C1074.75 166.178 1074.15 166.26 1073.54 166.26C1072.55 166.242 1071.81 165.882 1071.32 165.18C1070.83 164.469 1070.64 163.516 1070.75 162.322L1072.25 153.162H1069.64L1069.98 151.207H1072.59L1073.22 147.625H1075.68ZM1087.71 166H1085.25L1087.82 151.207H1090.28L1087.71 166ZM1089.75 145.807C1090.17 145.788 1090.52 145.916 1090.79 146.189C1091.07 146.454 1091.21 146.805 1091.21 147.242C1091.2 147.671 1091.06 148.021 1090.79 148.295C1090.52 148.568 1090.18 148.714 1089.75 148.732C1089.32 148.751 1088.97 148.628 1088.7 148.363C1088.42 148.099 1088.29 147.753 1088.3 147.324C1088.31 146.896 1088.45 146.54 1088.71 146.258C1088.98 145.975 1089.32 145.825 1089.75 145.807ZM1096.67 151.193L1096.31 153.066C1097.64 151.608 1099.16 150.897 1100.85 150.934C1102.25 150.97 1103.28 151.453 1103.94 152.383C1104.61 153.312 1104.85 154.62 1104.68 156.307L1103.07 166H1100.59L1102.22 156.266C1102.27 155.819 1102.28 155.404 1102.23 155.021C1102.08 153.745 1101.33 153.094 1099.98 153.066C1098.49 153.039 1097.19 153.832 1096.07 155.445L1094.23 166H1091.76L1094.33 151.207L1096.67 151.193ZM922.734 200C922.671 199.736 922.639 199.476 922.639 199.221L922.68 198.441C921.322 199.699 919.882 200.31 918.359 200.273C917.056 200.255 915.994 199.845 915.174 199.043C914.363 198.232 913.993 197.22 914.066 196.008C914.158 194.44 914.841 193.219 916.117 192.344C917.402 191.46 919.089 191.018 921.176 191.018L923.76 191.031L923.924 189.855C924.015 188.971 923.842 188.274 923.404 187.764C922.976 187.244 922.329 186.975 921.463 186.957C920.615 186.939 919.863 187.148 919.207 187.586C918.56 188.014 918.163 188.584 918.018 189.295L915.529 189.309C915.611 188.443 915.949 187.677 916.541 187.012C917.133 186.337 917.895 185.818 918.824 185.453C919.754 185.079 920.715 184.902 921.709 184.92C923.249 184.956 924.448 185.426 925.305 186.328C926.161 187.221 926.521 188.411 926.385 189.896L925.182 197.225L925.113 198.277C925.095 198.779 925.15 199.275 925.277 199.768L925.25 200H922.734ZM918.852 198.086C919.645 198.104 920.392 197.917 921.094 197.525C921.805 197.124 922.415 196.573 922.926 195.871L923.459 192.822L921.586 192.809C920.027 192.809 918.833 193.055 918.004 193.547C917.174 194.039 916.705 194.736 916.596 195.639C916.514 196.331 916.673 196.91 917.074 197.375C917.484 197.831 918.077 198.068 918.852 198.086ZM941.829 184.432H936.061V181.688H950.845V184.432H945.077V200H941.829V184.432ZM955.482 186.252H958.142L958.422 189.36H958.506C959.215 188.24 960.064 187.391 961.054 186.812C962.062 186.215 963.163 185.916 964.358 185.916C964.918 185.916 965.394 185.963 965.786 186.056C966.196 186.131 966.607 186.271 967.018 186.476L966.346 189.192C965.898 189.043 965.496 188.94 965.142 188.884C964.806 188.809 964.376 188.772 963.854 188.772C962.902 188.772 961.987 189.043 961.11 189.584C960.232 190.125 959.439 191.068 958.73 192.412V200H955.482V186.252ZM983.051 200H980.419L980.167 197.816H980.055C979.402 198.581 978.683 199.197 977.899 199.664C977.115 200.112 976.21 200.336 975.183 200.336C973.578 200.336 972.411 199.86 971.683 198.908C970.955 197.937 970.591 196.556 970.591 194.764V186.252H973.811V194.344C973.811 195.464 973.998 196.285 974.371 196.808C974.763 197.312 975.435 197.564 976.387 197.564C977.04 197.564 977.619 197.415 978.123 197.116C978.646 196.817 979.215 196.285 979.831 195.52V186.252H983.051V200ZM987.156 193.14C987.156 192.02 987.352 191.012 987.744 190.116C988.155 189.22 988.687 188.464 989.34 187.848C989.993 187.213 990.74 186.737 991.58 186.42C992.439 186.084 993.316 185.916 994.212 185.916C995.239 185.916 996.144 186.084 996.928 186.42C997.731 186.737 998.403 187.185 998.944 187.764C999.485 188.324 999.896 189.005 1000.18 189.808C1000.46 190.611 1000.6 191.488 1000.6 192.44C1000.6 192.757 1000.58 193.056 1000.54 193.336C1000.52 193.616 1000.49 193.84 1000.46 194.008H990.46C990.572 195.24 991.057 196.192 991.916 196.864C992.775 197.517 993.829 197.844 995.08 197.844C995.789 197.844 996.452 197.751 997.068 197.564C997.684 197.359 998.309 197.079 998.944 196.724L1000.04 198.74C999.289 199.207 998.459 199.589 997.544 199.888C996.629 200.187 995.668 200.336 994.66 200.336C993.615 200.336 992.635 200.177 991.72 199.86C990.805 199.524 990.012 199.048 989.34 198.432C988.668 197.816 988.136 197.069 987.744 196.192C987.352 195.296 987.156 194.279 987.156 193.14ZM997.628 191.824C997.628 190.76 997.348 189.929 996.788 189.332C996.228 188.716 995.397 188.408 994.296 188.408C993.363 188.408 992.532 188.697 991.804 189.276C991.076 189.855 990.619 190.704 990.432 191.824H997.628ZM1014.87 196.541L1020.2 185.207H1022.81L1015.36 200H1013.47L1010.58 185.207H1013.01L1014.87 196.541ZM1031.62 200C1031.55 199.736 1031.52 199.476 1031.52 199.221L1031.56 198.441C1030.2 199.699 1028.76 200.31 1027.24 200.273C1025.94 200.255 1024.88 199.845 1024.06 199.043C1023.25 198.232 1022.88 197.22 1022.95 196.008C1023.04 194.44 1023.72 193.219 1025 192.344C1026.29 191.46 1027.97 191.018 1030.06 191.018L1032.64 191.031L1032.81 189.855C1032.9 188.971 1032.72 188.274 1032.29 187.764C1031.86 187.244 1031.21 186.975 1030.35 186.957C1029.5 186.939 1028.75 187.148 1028.09 187.586C1027.44 188.014 1027.05 188.584 1026.9 189.295L1024.41 189.309C1024.49 188.443 1024.83 187.677 1025.42 187.012C1026.02 186.337 1026.78 185.818 1027.71 185.453C1028.64 185.079 1029.6 184.902 1030.59 184.92C1032.13 184.956 1033.33 185.426 1034.19 186.328C1035.04 187.221 1035.4 188.411 1035.27 189.896L1034.06 197.225L1034 198.277C1033.98 198.779 1034.03 199.275 1034.16 199.768L1034.13 200H1031.62ZM1027.73 198.086C1028.53 198.104 1029.27 197.917 1029.98 197.525C1030.69 197.124 1031.3 196.573 1031.81 195.871L1032.34 192.822L1030.47 192.809C1028.91 192.809 1027.72 193.055 1026.89 193.547C1026.06 194.039 1025.59 194.736 1025.48 195.639C1025.4 196.331 1025.56 196.91 1025.96 197.375C1026.37 197.831 1026.96 198.068 1027.73 198.086ZM1040.18 200H1037.71L1041.35 179H1043.83L1040.18 200ZM1053.62 198.537C1052.46 199.731 1050.99 200.31 1049.2 200.273C1047.79 200.237 1046.74 199.731 1046.05 198.756C1045.38 197.781 1045.13 196.45 1045.3 194.764L1046.89 185.207H1049.36L1047.76 194.805C1047.72 195.206 1047.71 195.598 1047.74 195.98C1047.78 196.637 1047.98 197.152 1048.32 197.525C1048.67 197.899 1049.15 198.1 1049.77 198.127C1051.54 198.182 1052.91 197.466 1053.88 195.98L1055.73 185.207H1058.21L1055.64 200H1053.3L1053.62 198.537ZM1065.74 200.273C1063.9 200.237 1062.46 199.558 1061.42 198.236C1060.38 196.915 1059.95 195.224 1060.11 193.164L1060.18 192.576C1060.33 191.109 1060.77 189.769 1061.48 188.557C1062.2 187.344 1063.07 186.433 1064.1 185.822C1065.13 185.202 1066.24 184.906 1067.44 184.934C1068.96 184.97 1070.15 185.476 1071.02 186.451C1071.89 187.426 1072.36 188.748 1072.44 190.416C1072.47 191.008 1072.45 191.601 1072.39 192.193L1072.24 193.328H1062.57C1062.41 194.668 1062.62 195.807 1063.23 196.746C1063.84 197.685 1064.74 198.173 1065.95 198.209C1067.41 198.245 1068.75 197.589 1069.99 196.24L1071.42 197.443C1070.8 198.337 1069.99 199.038 1069.01 199.549C1068.03 200.05 1066.95 200.292 1065.74 200.273ZM1067.31 186.998C1066.29 186.971 1065.4 187.317 1064.63 188.037C1063.88 188.757 1063.28 189.828 1062.83 191.25L1070.02 191.264L1070.08 191.045C1070.22 189.896 1070.04 188.944 1069.52 188.188C1069.01 187.422 1068.27 187.025 1067.31 186.998ZM1075.68 197.129C1076.13 197.12 1076.5 197.257 1076.79 197.539C1077.08 197.822 1077.22 198.186 1077.21 198.633C1077.2 199.079 1077.05 199.444 1076.76 199.727C1076.47 200 1076.11 200.146 1075.67 200.164C1075.23 200.182 1074.87 200.059 1074.59 199.795C1074.31 199.521 1074.16 199.161 1074.16 198.715C1074.16 198.268 1074.31 197.899 1074.59 197.607C1074.87 197.307 1075.23 197.147 1075.68 197.129Z" fill="black"/>
</svg>
