<svg width="1120" height="336" viewBox="0 0 1120 336" version="1.1" xmlns="http://www.w3.org/2000/svg" xmlns:xlink="http://www.w3.org/1999/xlink">
<title>Frame</title>
<desc>Created using Figma</desc>
<g id="Canvas" transform="matrix(2 0 0 2 252 610)">
<clipPath id="clip-0" clip-rule="evenodd">
<path d="M -126 -305L 434 -305L 434 -137L -126 -137L -126 -305Z" fill="#FFFFFF"/>
</clipPath>
<g id="Frame" clip-path="url(#clip-0)">
<path d="M -126 -305L 434 -305L 434 -137L -126 -137L -126 -305Z" fill="#FFFFFF"/>
<g id="Group 2">
<g id="Rectangle">
<use xlink:href="#path0_stroke" transform="translate(-108 -279)"/>
</g>
<g id="True">
<use xlink:href="#path1_fill" transform="translate(-106.795 -273.7)" fill="#27AE60"/>
</g>
<g id="Rectangle">
<use xlink:href="#path0_stroke" transform="translate(-108 -252.5)"/>
</g>
<g id="False">
<use xlink:href="#path2_fill" transform="translate(-106.795 -247.2)" fill="#EB5757"/>
</g>
<g id="Rectangle">
<use xlink:href="#path0_stroke" transform="translate(-108 -226)"/>
</g>
<g id="False">
<use xlink:href="#path2_fill" transform="translate(-106.795 -220.7)" fill="#EB5757"/>
</g>
<g id="Rectangle">
<use xlink:href="#path0_stroke" transform="translate(-108 -199.5)"/>
</g>
<g id="True">
<use xlink:href="#path1_fill" transform="translate(-106.795 -194.2)" fill="#27AE60"/>
</g>
<g id="x">
<use xlink:href="#path3_fill" transform="translate(-126 -250)" fill="#828282"/>
</g>
<g id="y">
<use xlink:href="#path4_fill" transform="translate(-126 -222)" fill="#828282"/>
</g>
<g id="z">
<use xlink:href="#path5_fill" transform="translate(-126 -196)" fill="#828282"/>
</g>
<g id="w">
<use xlink:href="#path6_fill" transform="translate(-126 -275)" fill="#828282"/>
</g>
<g id="C">
<use xlink:href="#path7_fill" transform="translate(-90 -299)" fill="#828282"/>
</g>
<g id="D">
<use xlink:href="#path8_fill" transform="translate(-37 -299)" fill="#828282"/>
</g>
<g id="Rectangle">
<use xlink:href="#path0_stroke" transform="translate(-55 -279)"/>
</g>
<g id="True">
<use xlink:href="#path1_fill" transform="translate(-53.7954 -273.7)" fill="#27AE60"/>
</g>
<g id="Rectangle">
<use xlink:href="#path0_stroke" transform="translate(-55 -252.5)"/>
</g>
<g id="True">
<use xlink:href="#path1_fill" transform="translate(-53.7954 -247.2)" fill="#27AE60"/>
</g>
<g id="Rectangle">
<use xlink:href="#path0_stroke" transform="translate(-55 -226)"/>
</g>
<g id="True">
<use xlink:href="#path1_fill" transform="translate(-53.7954 -220.7)" fill="#27AE60"/>
</g>
<g id="Rectangle">
<use xlink:href="#path0_stroke" transform="translate(-55 -199.5)"/>
</g>
<g id="df">
<use xlink:href="#path9_fill" transform="translate(-108 -169)" fill="#4F4F4F"/>
</g>
<g id="False">
<use xlink:href="#path2_fill" transform="translate(-53.7954 -194.2)" fill="#EB5757"/>
</g>
</g>
<g id="Group">
<g id="Rectangle">
<use xlink:href="#path0_stroke" transform="translate(188 -278)"/>
</g>
<g id="True">
<use xlink:href="#path1_fill" transform="translate(189.205 -272.7)" fill="#27AE60"/>
</g>
<g id="Rectangle">
<use xlink:href="#path0_stroke" transform="translate(188 -251.5)"/>
</g>
<g id="True">
<use xlink:href="#path1_fill" transform="translate(189.205 -246.2)" fill="#27AE60"/>
</g>
<g id="Rectangle">
<use xlink:href="#path0_stroke" transform="translate(188 -225)"/>
</g>
<g id="True">
<use xlink:href="#path1_fill" transform="translate(189.205 -219.7)" fill="#27AE60"/>
</g>
<g id="Rectangle">
<use xlink:href="#path0_stroke" transform="translate(188 -198.5)"/>
</g>
<g id="True">
<use xlink:href="#path1_fill" transform="translate(189.205 -193.2)" fill="#27AE60"/>
</g>
<g id="1">
<use xlink:href="#path10_fill" transform="translate(179 -169)" fill="#4F4F4F"/>
</g>
<g id="x">
<use xlink:href="#path3_fill" transform="translate(170 -249)" fill="#828282"/>
</g>
<g id="y">
<use xlink:href="#path4_fill" transform="translate(170 -221)" fill="#828282"/>
</g>
<g id="z">
<use xlink:href="#path5_fill" transform="translate(170 -195)" fill="#828282"/>
</g>
<g id="w">
<use xlink:href="#path6_fill" transform="translate(170 -274)" fill="#828282"/>
</g>
</g>
<g id="Group">
<g id="Rectangle">
<use xlink:href="#path0_stroke" transform="translate(279 -278)"/>
</g>
<g id="True">
<use xlink:href="#path1_fill" transform="translate(280.205 -272.7)" fill="#27AE60"/>
</g>
<g id="Rectangle">
<use xlink:href="#path0_stroke" transform="translate(279 -251.5)"/>
</g>
<g id="False">
<use xlink:href="#path2_fill" transform="translate(280.205 -246.2)" fill="#EB5757"/>
</g>
<g id="Rectangle">
<use xlink:href="#path0_stroke" transform="translate(279 -225)"/>
</g>
<g id="False">
<use xlink:href="#path2_fill" transform="translate(280.205 -219.7)" fill="#EB5757"/>
</g>
<g id="Rectangle">
<use xlink:href="#path0_stroke" transform="translate(279 -198.5)"/>
</g>
<g id="False">
<use xlink:href="#path2_fill" transform="translate(280.205 -193.2)" fill="#EB5757"/>
</g>
<g id="2">
<use xlink:href="#path11_fill" transform="translate(270 -169)" fill="#4F4F4F"/>
</g>
<g id="x">
<use xlink:href="#path3_fill" transform="translate(261 -249)" fill="#828282"/>
</g>
<g id="y">
<use xlink:href="#path4_fill" transform="translate(261 -221)" fill="#828282"/>
</g>
<g id="z">
<use xlink:href="#path5_fill" transform="translate(261 -195)" fill="#828282"/>
</g>
<g id="w">
<use xlink:href="#path6_fill" transform="translate(261 -274)" fill="#828282"/>
</g>
</g>
<g id="Group">
<g id="Rectangle">
<use xlink:href="#path0_stroke" transform="translate(371 -278)"/>
</g>
<g id="True">
<use xlink:href="#path1_fill" transform="translate(372.205 -272.7)" fill="#27AE60"/>
</g>
<g id="Rectangle">
<use xlink:href="#path0_stroke" transform="translate(371 -251.5)"/>
</g>
<g id="False">
<use xlink:href="#path2_fill" transform="translate(372.205 -246.2)" fill="#EB5757"/>
</g>
<g id="Rectangle">
<use xlink:href="#path0_stroke" transform="translate(371 -225)"/>
</g>
<g id="False">
<use xlink:href="#path2_fill" transform="translate(372.205 -219.7)" fill="#EB5757"/>
</g>
<g id="Rectangle">
<use xlink:href="#path0_stroke" transform="translate(371 -198.5)"/>
</g>
<g id="True">
<use xlink:href="#path1_fill" transform="translate(372.205 -193.2)" fill="#27AE60"/>
</g>
<g id="3">
<use xlink:href="#path12_fill" transform="translate(362 -169)" fill="#4F4F4F"/>
</g>
<g id="x">
<use xlink:href="#path3_fill" transform="translate(353 -249)" fill="#828282"/>
</g>
<g id="y">
<use xlink:href="#path4_fill" transform="translate(353 -221)" fill="#828282"/>
</g>
<g id="z">
<use xlink:href="#path5_fill" transform="translate(353 -195)" fill="#828282"/>
</g>
<g id="w">
<use xlink:href="#path6_fill" transform="translate(353 -274)" fill="#828282"/>
</g>
</g>
<g id="Group">
<g id="Rectangle">
<use xlink:href="#path13_fill" transform="translate(5 -251)" fill="#F1F4F8"/>
</g>
<g id="df[&#34;C&#34;] &#38; df[&#34;D&#34;]">
<use xlink:href="#path14_fill" transform="translate(5 -250)" fill="#2E383C"/>
<use xlink:href="#path15_fill" transform="translate(5 -250)" fill="#B82629"/>
<use xlink:href="#path16_fill" transform="translate(5 -250)" fill="#A541F8"/>
</g>
</g>
<g id="Line">
<use xlink:href="#path17_stroke" transform="matrix(6.12323e-17 1 -1 6.12323e-17 166 -305)"/>
</g>
</g>
</g>
<defs>
<path id="path0_stroke" d="M 0 0L 0 -0.5L -0.5 -0.5L -0.5 0L 0 0ZM 53 0L 53.5 0L 53.5 -0.5L 53 -0.5L 53 0ZM 53 26.5L 53 27L 53.5 27L 53.5 26.5L 53 26.5ZM 0 26.5L -0.5 26.5L -0.5 27L 0 27L 0 26.5ZM 0 0.5L 53 0.5L 53 -0.5L 0 -0.5L 0 0.5ZM 52.5 0L 52.5 26.5L 53.5 26.5L 53.5 0L 52.5 0ZM 53 26L 0 26L 0 27L 53 27L 53 26ZM 0.5 26.5L 0.5 0L -0.5 0L -0.5 26.5L 0.5 26.5Z"/>
<path id="path1_fill" d="M 19.7655 4.12695L 16.5663 4.12695L 16.5663 13L 15.2607 13L 15.2607 4.12695L 12.0683 4.12695L 12.0683 3.04688L 19.7655 3.04688L 19.7655 4.12695ZM 24.0995 6.73828C 23.9081 6.70638 23.7008 6.69043 23.4774 6.69043C 22.648 6.69043 22.0852 7.04362 21.789 7.75L 21.789 13L 20.5243 13L 20.5243 5.60352L 21.7548 5.60352L 21.7753 6.45801C 22.19 5.7972 22.7779 5.4668 23.539 5.4668C 23.7851 5.4668 23.9719 5.4987 24.0995 5.5625L 24.0995 6.73828ZM 29.8349 12.2686C 29.3427 12.8473 28.6204 13.1367 27.6679 13.1367C 26.8795 13.1367 26.2779 12.9089 25.8632 12.4531C 25.453 11.9928 25.2457 11.3138 25.2411 10.416L 25.2411 5.60352L 26.5058 5.60352L 26.5058 10.3818C 26.5058 11.5029 26.9615 12.0635 27.873 12.0635C 28.8391 12.0635 29.4817 11.7035 29.8007 10.9834L 29.8007 5.60352L 31.0653 5.60352L 31.0653 13L 29.8622 13L 29.8349 12.2686ZM 36.0624 13.1367C 35.0598 13.1367 34.244 12.8086 33.6151 12.1523C 32.9862 11.4915 32.6718 10.6097 32.6718 9.50684L 32.6718 9.27441C 32.6718 8.54069 32.8108 7.88672 33.0888 7.3125C 33.3713 6.73372 33.7633 6.28255 34.2646 5.95898C 34.7704 5.63086 35.3173 5.4668 35.9052 5.4668C 36.8668 5.4668 37.6142 5.78353 38.1474 6.41699C 38.6806 7.05046 38.9472 7.95736 38.9472 9.1377L 38.9472 9.66406L 33.9364 9.66406C 33.9547 10.3932 34.1666 10.9834 34.5722 11.4346C 34.9823 11.8812 35.5019 12.1045 36.1308 12.1045C 36.5774 12.1045 36.9556 12.0133 37.2655 11.8311C 37.5754 11.6488 37.8466 11.4072 38.079 11.1064L 38.8515 11.708C 38.2317 12.6605 37.302 13.1367 36.0624 13.1367ZM 35.9052 6.50586C 35.3948 6.50586 34.9664 6.69271 34.62 7.06641C 34.2737 7.43555 34.0595 7.95508 33.9774 8.625L 37.6825 8.625L 37.6825 8.5293C 37.6461 7.88672 37.4729 7.38997 37.163 7.03906C 36.8531 6.68359 36.4338 6.50586 35.9052 6.50586Z"/>
<path id="path2_fill" d="M 15.6571 8.60449L 11.4804 8.60449L 11.4804 13L 10.1679 13L 10.1679 3.04688L 16.3339 3.04688L 16.3339 4.12695L 11.4804 4.12695L 11.4804 7.53125L 15.6571 7.53125L 15.6571 8.60449ZM 22.0419 13C 21.969 12.8542 21.9097 12.5944 21.8642 12.2207C 21.2763 12.8314 20.5745 13.1367 19.7587 13.1367C 19.0295 13.1367 18.4302 12.9316 17.9608 12.5215C 17.496 12.1068 17.2636 11.5827 17.2636 10.9492C 17.2636 10.179 17.5552 9.58203 18.1386 9.1582C 18.7265 8.72982 19.5513 8.51562 20.6132 8.51562L 21.8437 8.51562L 21.8437 7.93457C 21.8437 7.49251 21.7115 7.1416 21.4472 6.88184C 21.1829 6.61751 20.7932 6.48535 20.2782 6.48535C 19.8271 6.48535 19.4488 6.59928 19.1435 6.82715C 18.8381 7.05501 18.6855 7.33073 18.6855 7.6543L 17.414 7.6543C 17.414 7.28516 17.5439 6.92969 17.8036 6.58789C 18.0679 6.24154 18.4234 5.9681 18.87 5.76758C 19.3212 5.56706 19.8157 5.4668 20.3534 5.4668C 21.2056 5.4668 21.8733 5.68099 22.3564 6.10938C 22.8394 6.5332 23.0901 7.11882 23.1083 7.86621L 23.1083 11.2705C 23.1083 11.9495 23.1949 12.4896 23.3681 12.8906L 23.3681 13L 22.0419 13ZM 19.9433 12.0361C 20.3398 12.0361 20.7157 11.9336 21.0712 11.7285C 21.4267 11.5234 21.6842 11.2568 21.8437 10.9287L 21.8437 9.41113L 20.8524 9.41113C 19.303 9.41113 18.5282 9.86458 18.5282 10.7715C 18.5282 11.168 18.6604 11.4779 18.9247 11.7012C 19.189 11.9245 19.5286 12.0361 19.9433 12.0361ZM 26.4648 13L 25.2001 13L 25.2001 2.5L 26.4648 2.5L 26.4648 13ZM 32.8017 11.0381C 32.8017 10.6963 32.6718 10.432 32.412 10.2451C 32.1568 10.0537 31.7079 9.88965 31.0653 9.75293C 30.4273 9.61621 29.9192 9.45215 29.5409 9.26074C 29.1672 9.06934 28.8892 8.84147 28.7069 8.57715C 28.5292 8.31283 28.4403 7.99837 28.4403 7.63379C 28.4403 7.02767 28.6955 6.51497 29.206 6.0957C 29.7209 5.67643 30.3772 5.4668 31.1747 5.4668C 32.0133 5.4668 32.6923 5.68327 33.2118 6.11621C 33.7359 6.54915 33.998 7.10286 33.998 7.77734L 32.7265 7.77734C 32.7265 7.43099 32.5784 7.13249 32.2821 6.88184C 31.9905 6.63118 31.6213 6.50586 31.1747 6.50586C 30.7144 6.50586 30.3544 6.60612 30.0946 6.80664C 29.8349 7.00716 29.705 7.26921 29.705 7.59277C 29.705 7.89811 29.8258 8.12826 30.0673 8.2832C 30.3088 8.43815 30.7441 8.58626 31.373 8.72754C 32.0064 8.86882 32.5191 9.03743 32.911 9.2334C 33.303 9.42936 33.5924 9.66634 33.7792 9.94434C 33.9706 10.2178 34.0663 10.5527 34.0663 10.9492C 34.0663 11.61 33.802 12.141 33.2733 12.542C 32.7447 12.9385 32.0588 13.1367 31.2157 13.1367C 30.6233 13.1367 30.0992 13.0319 29.6435 12.8223C 29.1877 12.6126 28.83 12.321 28.5702 11.9473C 28.315 11.569 28.1874 11.1611 28.1874 10.7236L 29.4521 10.7236C 29.4748 11.1475 29.6435 11.4847 29.9579 11.7354C 30.2769 11.9814 30.6962 12.1045 31.2157 12.1045C 31.6942 12.1045 32.0771 12.0088 32.3642 11.8174C 32.6558 11.6214 32.8017 11.3617 32.8017 11.0381ZM 38.7831 13.1367C 37.7805 13.1367 36.9648 12.8086 36.3358 12.1523C 35.7069 11.4915 35.3925 10.6097 35.3925 9.50684L 35.3925 9.27441C 35.3925 8.54069 35.5315 7.88672 35.8095 7.3125C 36.092 6.73372 36.484 6.28255 36.9853 5.95898C 37.4911 5.63086 38.038 5.4668 38.6259 5.4668C 39.5875 5.4668 40.3349 5.78353 40.8681 6.41699C 41.4013 7.05046 41.6679 7.95736 41.6679 9.1377L 41.6679 9.66406L 36.6571 9.66406C 36.6754 10.3932 36.8873 10.9834 37.2929 11.4346C 37.703 11.8812 38.2226 12.1045 38.8515 12.1045C 39.2981 12.1045 39.6763 12.0133 39.9862 11.8311C 40.2961 11.6488 40.5673 11.4072 40.7997 11.1064L 41.5722 11.708C 40.9524 12.6605 40.0227 13.1367 38.7831 13.1367ZM 38.6259 6.50586C 38.1155 6.50586 37.6871 6.69271 37.3407 7.06641C 36.9944 7.43555 36.7802 7.95508 36.6982 8.625L 40.4032 8.625L 40.4032 8.5293C 40.3668 7.88672 40.1936 7.38997 39.8837 7.03906C 39.5738 6.68359 39.1545 6.50586 38.6259 6.50586Z"/>
<path id="path3_fill" d="M 8.46582 8.30371L 10.1064 5.60352L 11.583 5.60352L 9.16309 9.26074L 11.6582 13L 10.1953 13L 8.48633 10.2314L 6.77734 13L 5.30762 13L 7.80273 9.26074L 5.38281 5.60352L 6.8457 5.60352L 8.46582 8.30371Z"/>
<path id="path4_fill" d="M 8.56152 11.1475L 10.2842 5.60352L 11.6377 5.60352L 8.66406 14.1416C 8.20378 15.3721 7.47233 15.9873 6.46973 15.9873L 6.23047 15.9668L 5.75879 15.8779L 5.75879 14.8525L 6.10059 14.8799C 6.52897 14.8799 6.86165 14.7933 7.09863 14.6201C 7.34017 14.4469 7.53841 14.1302 7.69336 13.6699L 7.97363 12.918L 5.33496 5.60352L 6.71582 5.60352L 8.56152 11.1475Z"/>
<path id="path5_fill" d="M 7.17383 11.9678L 11.501 11.9678L 11.501 13L 5.62891 13L 5.62891 12.0703L 9.70996 6.64941L 5.69043 6.64941L 5.69043 5.60352L 11.2959 5.60352L 11.2959 6.49902L 7.17383 11.9678Z"/>
<path id="path6_fill" d="M 10.7422 11.2568L 12.1641 5.60352L 13.4287 5.60352L 11.2754 13L 10.25 13L 8.45215 7.39453L 6.70215 13L 5.67676 13L 3.53027 5.60352L 4.78809 5.60352L 6.24414 11.1406L 7.9668 5.60352L 8.98535 5.60352L 10.7422 11.2568Z"/>
<path id="path7_fill" d="M 12.417 9.8418C 12.2939 10.8945 11.9043 11.708 11.248 12.2822C 10.5964 12.8519 9.72819 13.1367 8.64355 13.1367C 7.46777 13.1367 6.52441 12.7152 5.81348 11.8721C 5.1071 11.029 4.75391 9.90104 4.75391 8.48828L 4.75391 7.53125C 4.75391 6.60612 4.91797 5.79264 5.24609 5.09082C 5.57878 4.389 6.04818 3.85124 6.6543 3.47754C 7.26042 3.09928 7.96224 2.91016 8.75977 2.91016C 9.81706 2.91016 10.6647 3.20638 11.3027 3.79883C 11.9408 4.38672 12.3122 5.20247 12.417 6.24609L 11.0977 6.24609C 10.9837 5.45312 10.7354 4.87891 10.3525 4.52344C 9.97428 4.16797 9.44336 3.99023 8.75977 3.99023C 7.92122 3.99023 7.2627 4.30013 6.78418 4.91992C 6.31022 5.53971 6.07324 6.42155 6.07324 7.56543L 6.07324 8.5293C 6.07324 9.60938 6.29883 10.4684 6.75 11.1064C 7.20117 11.7445 7.83236 12.0635 8.64355 12.0635C 9.37272 12.0635 9.93099 11.8994 10.3184 11.5713C 10.7103 11.2386 10.9701 10.6621 11.0977 9.8418L 12.417 9.8418Z"/>
<path id="path8_fill" d="M 5.06152 13L 5.06152 3.04688L 7.87109 3.04688C 8.73698 3.04688 9.5026 3.23828 10.168 3.62109C 10.8333 4.00391 11.346 4.5485 11.7061 5.25488C 12.0706 5.96126 12.2552 6.77246 12.2598 7.68848L 12.2598 8.32422C 12.2598 9.26302 12.0775 10.0856 11.7129 10.792C 11.3529 11.4984 10.8356 12.0407 10.1611 12.4189C 9.49121 12.7972 8.70964 12.9909 7.81641 13L 5.06152 13ZM 6.37402 4.12695L 6.37402 11.9268L 7.75488 11.9268C 8.7666 11.9268 9.55273 11.6123 10.1133 10.9834C 10.6784 10.3545 10.9609 9.45898 10.9609 8.29688L 10.9609 7.71582C 10.9609 6.58561 10.6943 5.70833 10.1611 5.08398C 9.63249 4.45508 8.88053 4.13607 7.90527 4.12695L 6.37402 4.12695Z"/>
<path id="path9_fill" d="M 45.2635 10.528C 45.2635 9.95867 45.3475 9.45 45.5155 9.002C 45.6835 8.554 45.9028 8.176 46.1735 7.868C 46.4535 7.55067 46.7708 7.308 47.1255 7.14C 47.4801 6.972 47.8488 6.888 48.2315 6.888C 48.6328 6.888 48.9688 6.958 49.2395 7.098C 49.5101 7.22867 49.7668 7.406 50.0095 7.63L 49.9395 6.552L 49.9395 4.186L 51.9975 4.186L 51.9975 14L 50.3175 14L 50.1635 13.286L 50.1215 13.286C 49.8601 13.538 49.5615 13.748 49.2255 13.916C 48.8895 14.084 48.5441 14.168 48.1895 14.168C 47.7508 14.168 47.3495 14.084 46.9855 13.916C 46.6308 13.748 46.3228 13.51 46.0615 13.202C 45.8095 12.8847 45.6135 12.502 45.4735 12.054C 45.3335 11.606 45.2635 11.0973 45.2635 10.528ZM 47.3775 10.5C 47.3775 11.1907 47.4941 11.6947 47.7275 12.012C 47.9608 12.3293 48.2921 12.488 48.7215 12.488C 48.9548 12.488 49.1695 12.4413 49.3655 12.348C 49.5615 12.2453 49.7528 12.0773 49.9395 11.844L 49.9395 9.03C 49.7528 8.862 49.5615 8.74533 49.3655 8.68C 49.1788 8.60533 48.9828 8.568 48.7775 8.568C 48.3948 8.568 48.0635 8.72667 47.7835 9.044C 47.5128 9.36133 47.3775 9.84667 47.3775 10.5ZM 60.798 5.908C 60.3407 5.73067 59.8553 5.642 59.342 5.642C 58.894 5.642 58.5627 5.74 58.348 5.936C 58.1427 6.132 58.04 6.44 58.04 6.86L 58.04 7.056L 60.434 7.056L 60.434 8.666L 58.04 8.666L 58.04 14L 55.982 14L 55.982 8.666L 54.148 8.666L 54.148 7.14L 55.982 7.056L 55.982 6.874C 55.982 6.47267 56.0427 6.09933 56.164 5.754C 56.2853 5.40867 56.472 5.11 56.724 4.858C 56.976 4.59667 57.298 4.39133 57.69 4.242C 58.082 4.09267 58.5487 4.018 59.09 4.018C 59.4913 4.018 59.8647 4.05533 60.21 4.13C 60.5647 4.20467 60.8913 4.29333 61.19 4.396L 60.798 5.908Z"/>
<path id="path10_fill" d="M 39.3207 12.334L 39.3207 14L 32.9507 14L 32.9507 12.334L 35.2467 12.334L 35.2467 7.196L 33.4127 7.196L 33.4127 5.922C 33.9354 5.82867 34.3787 5.71667 34.7427 5.586C 35.1161 5.45533 35.4661 5.29667 35.7927 5.11L 37.3047 5.11L 37.3047 12.334L 39.3207 12.334Z"/>
<path id="path11_fill" d="M 32.6147 12.824C 33.2494 12.292 33.8281 11.7973 34.3507 11.34C 34.8734 10.8733 35.3214 10.4393 35.6947 10.038C 36.0681 9.63667 36.3574 9.25867 36.5627 8.904C 36.7681 8.54933 36.8707 8.21333 36.8707 7.896C 36.8707 7.45733 36.7447 7.126 36.4927 6.902C 36.2407 6.66867 35.8814 6.552 35.4147 6.552C 35.0601 6.552 34.7334 6.64533 34.4347 6.832C 34.1454 7.00933 33.8747 7.21933 33.6227 7.462L 32.5167 6.356C 32.7501 6.12267 32.9787 5.91733 33.2027 5.74C 33.4361 5.56267 33.6787 5.418 33.9307 5.306C 34.1921 5.18467 34.4627 5.096 34.7427 5.04C 35.0321 4.97467 35.3494 4.942 35.6947 4.942C 36.1614 4.942 36.5861 5.012 36.9687 5.152C 37.3514 5.28267 37.6781 5.474 37.9487 5.726C 38.2287 5.96867 38.4434 6.26267 38.5927 6.608C 38.7514 6.95333 38.8307 7.34067 38.8307 7.77C 38.8307 8.14333 38.7421 8.526 38.5647 8.918C 38.3874 9.30067 38.1447 9.688 37.8367 10.08C 37.5381 10.4627 37.1927 10.85 36.8007 11.242C 36.4087 11.6247 35.9981 12.0027 35.5687 12.376C 35.8207 12.348 36.0914 12.3247 36.3807 12.306C 36.6794 12.278 36.9454 12.264 37.1787 12.264L 39.2927 12.264L 39.2927 14L 32.6147 14L 32.6147 12.824Z"/>
<path id="path12_fill" d="M 33.3427 11.606C 33.6414 11.8673 33.9727 12.082 34.3367 12.25C 34.7101 12.418 35.1021 12.502 35.5127 12.502C 35.9981 12.502 36.3947 12.4133 36.7027 12.236C 37.0201 12.0493 37.1787 11.788 37.1787 11.452C 37.1787 11.256 37.1367 11.0787 37.0527 10.92C 36.9687 10.7613 36.8241 10.6307 36.6187 10.528C 36.4134 10.416 36.1381 10.332 35.7927 10.276C 35.4474 10.2107 35.0134 10.178 34.4907 10.178L 34.4907 8.722C 35.3681 8.722 35.9841 8.61467 36.3387 8.4C 36.7027 8.176 36.8847 7.88667 36.8847 7.532C 36.8847 7.224 36.7681 6.986 36.5347 6.818C 36.3014 6.64067 35.9794 6.552 35.5687 6.552C 35.2141 6.552 34.8874 6.622 34.5887 6.762C 34.2901 6.902 33.9867 7.09333 33.6787 7.336L 32.6427 6.076C 33.0814 5.72133 33.5481 5.446 34.0427 5.25C 34.5467 5.04467 35.0881 4.942 35.6667 4.942C 36.1521 4.942 36.5954 4.998 36.9967 5.11C 37.3981 5.21267 37.7434 5.37133 38.0327 5.586C 38.3221 5.79133 38.5461 6.04333 38.7047 6.342C 38.8634 6.64067 38.9427 6.986 38.9427 7.378C 38.9427 7.84467 38.7934 8.24133 38.4947 8.568C 38.1961 8.88533 37.7807 9.14667 37.2487 9.352L 37.2487 9.408C 37.8087 9.55733 38.2801 9.814 38.6627 10.178C 39.0454 10.5327 39.2367 10.9993 39.2367 11.578C 39.2367 11.9887 39.1387 12.3573 38.9427 12.684C 38.7561 13.0013 38.4994 13.272 38.1727 13.496C 37.8554 13.7107 37.4821 13.8787 37.0527 14C 36.6234 14.112 36.1754 14.168 35.7087 14.168C 34.9434 14.168 34.2854 14.056 33.7347 13.832C 33.1841 13.5987 32.7361 13.2907 32.3907 12.908L 33.3427 11.606Z"/>
<path id="path13_fill" d="M 0 0L 152 0L 152 42L 0 42L 0 0Z"/>
<path id="path14_fill" d="M 5.38848 21.57C 5.38848 21.01 5.47248 20.506 5.64048 20.058C 5.80848 19.61 6.03248 19.232 6.31248 18.924C 6.60182 18.616 6.92848 18.378 7.29248 18.21C 7.65648 18.042 8.03448 17.958 8.42648 17.958C 8.83715 17.958 9.18715 18.0327 9.47648 18.182C 9.77515 18.322 10.0645 18.518 10.3445 18.77L 10.2745 17.608L 10.2745 15.116L 11.8985 15.116L 11.8985 25L 10.5685 25L 10.4425 24.202L 10.4005 24.202C 10.1298 24.4727 9.81248 24.7013 9.44848 24.888C 9.09382 25.0747 8.72048 25.168 8.32848 25.168C 7.88982 25.168 7.48848 25.0887 7.12448 24.93C 6.76048 24.762 6.44782 24.524 6.18648 24.216C 5.93448 23.908 5.73848 23.5347 5.59848 23.096C 5.45848 22.648 5.38848 22.1393 5.38848 21.57ZM 7.05448 21.556C 7.05448 22.3027 7.19915 22.872 7.48848 23.264C 7.77782 23.6467 8.18848 23.838 8.72048 23.838C 9.28982 23.838 9.80782 23.5627 10.2745 23.012L 10.2745 19.918C 10.0318 19.6847 9.78915 19.5213 9.54648 19.428C 9.30382 19.3347 9.05648 19.288 8.80448 19.288C 8.56182 19.288 8.33315 19.3393 8.11848 19.442C 7.91315 19.5447 7.73115 19.694 7.57248 19.89C 7.41382 20.0767 7.28782 20.31 7.19448 20.59C 7.10115 20.87 7.05448 21.192 7.05448 21.556ZM 20.853 16.516C 20.601 16.4133 20.3537 16.3387 20.111 16.292C 19.8777 16.2453 19.621 16.222 19.341 16.222C 18.809 16.222 18.4217 16.3527 18.179 16.614C 17.9457 16.866 17.829 17.2347 17.829 17.72L 17.829 18.126L 20.447 18.126L 20.447 19.4L 17.829 19.4L 17.829 25L 16.233 25L 16.233 19.4L 14.329 19.4L 14.329 18.196L 16.233 18.126L 16.233 17.748C 16.233 17.3467 16.289 16.9733 16.401 16.628C 16.513 16.2827 16.6857 15.9887 16.919 15.746C 17.1617 15.494 17.465 15.298 17.829 15.158C 18.2023 15.018 18.641 14.948 19.145 14.948C 19.5183 14.948 19.873 14.9807 20.209 15.046C 20.5543 15.1113 20.881 15.2047 21.189 15.326L 20.853 16.516ZM 24.4175 15.088L 28.4215 15.088L 28.4215 15.97L 25.6635 15.97L 25.6635 26.246L 28.4215 26.246L 28.4215 27.128L 24.4175 27.128L 24.4175 15.088ZM 59.1857 26.246L 59.1857 15.97L 56.4417 15.97L 56.4417 15.088L 60.4457 15.088L 60.4457 27.128L 56.4417 27.128L 56.4417 26.246L 59.1857 26.246ZM 89.3338 21.57C 89.3338 21.01 89.4178 20.506 89.5858 20.058C 89.7538 19.61 89.9778 19.232 90.2578 18.924C 90.5471 18.616 90.8738 18.378 91.2378 18.21C 91.6018 18.042 91.9798 17.958 92.3718 17.958C 92.7825 17.958 93.1325 18.0327 93.4218 18.182C 93.7205 18.322 94.0098 18.518 94.2898 18.77L 94.2198 17.608L 94.2198 15.116L 95.8438 15.116L 95.8438 25L 94.5138 25L 94.3878 24.202L 94.3458 24.202C 94.0751 24.4727 93.7578 24.7013 93.3938 24.888C 93.0391 25.0747 92.6658 25.168 92.2738 25.168C 91.8351 25.168 91.4338 25.0887 91.0698 24.93C 90.7058 24.762 90.3931 24.524 90.1318 24.216C 89.8798 23.908 89.6838 23.5347 89.5438 23.096C 89.4038 22.648 89.3338 22.1393 89.3338 21.57ZM 90.9998 21.556C 90.9998 22.3027 91.1445 22.872 91.4338 23.264C 91.7231 23.6467 92.1338 23.838 92.6658 23.838C 93.2351 23.838 93.7531 23.5627 94.2198 23.012L 94.2198 19.918C 93.9771 19.6847 93.7345 19.5213 93.4918 19.428C 93.2491 19.3347 93.0018 19.288 92.7498 19.288C 92.5071 19.288 92.2785 19.3393 92.0638 19.442C 91.8585 19.5447 91.6765 19.694 91.5178 19.89C 91.3591 20.0767 91.2331 20.31 91.1398 20.59C 91.0465 20.87 90.9998 21.192 90.9998 21.556ZM 104.798 16.516C 104.546 16.4133 104.299 16.3387 104.056 16.292C 103.823 16.2453 103.566 16.222 103.286 16.222C 102.754 16.222 102.367 16.3527 102.124 16.614C 101.891 16.866 101.774 17.2347 101.774 17.72L 101.774 18.126L 104.392 18.126L 104.392 19.4L 101.774 19.4L 101.774 25L 100.178 25L 100.178 19.4L 98.2743 19.4L 98.2743 18.196L 100.178 18.126L 100.178 17.748C 100.178 17.3467 100.234 16.9733 100.346 16.628C 100.458 16.2827 100.631 15.9887 100.864 15.746C 101.107 15.494 101.41 15.298 101.774 15.158C 102.148 15.018 102.586 14.948 103.09 14.948C 103.464 14.948 103.818 14.9807 104.154 15.046C 104.5 15.1113 104.826 15.2047 105.134 15.326L 104.798 16.516ZM 108.363 15.088L 112.367 15.088L 112.367 15.97L 109.609 15.97L 109.609 26.246L 112.367 26.246L 112.367 27.128L 108.363 27.128L 108.363 15.088ZM 143.131 26.246L 143.131 15.97L 140.387 15.97L 140.387 15.088L 144.391 15.088L 144.391 27.128L 140.387 27.128L 140.387 26.246L 143.131 26.246Z"/>
<path id="path15_fill" d="M 31.3701 17.188L 31.3281 15.396L 33.2881 15.396L 33.2461 17.188L 32.8261 20.422L 31.7901 20.422L 31.3701 17.188ZM 34.8281 17.188L 34.7861 15.396L 36.7461 15.396L 36.7041 17.188L 36.2841 20.422L 35.2481 20.422L 34.8281 17.188ZM 39.0646 20.45C 39.0646 19.7033 39.1719 19.036 39.3866 18.448C 39.6013 17.8507 39.8953 17.3467 40.2686 16.936C 40.6513 16.5253 41.0993 16.2127 41.6126 15.998C 42.1353 15.7833 42.6999 15.676 43.3066 15.676C 43.8666 15.676 44.3659 15.7927 44.8046 16.026C 45.2433 16.2593 45.6119 16.5253 45.9106 16.824L 45.0006 17.832C 44.7766 17.608 44.5246 17.4307 44.2446 17.3C 43.9739 17.16 43.6613 17.09 43.3066 17.09C 42.9239 17.09 42.5739 17.1693 42.2566 17.328C 41.9393 17.4773 41.6686 17.6967 41.4446 17.986C 41.2206 18.266 41.0433 18.6113 40.9126 19.022C 40.7913 19.4327 40.7306 19.8947 40.7306 20.408C 40.7306 20.9307 40.7913 21.402 40.9126 21.822C 41.0433 22.2327 41.2206 22.5827 41.4446 22.872C 41.6779 23.152 41.9533 23.3713 42.2706 23.53C 42.5973 23.6793 42.9566 23.754 43.3486 23.754C 43.7219 23.754 44.0533 23.6747 44.3426 23.516C 44.6413 23.3573 44.9213 23.1333 45.1826 22.844L 46.0786 23.838C 45.7053 24.2673 45.2853 24.5987 44.8186 24.832C 44.3519 25.056 43.8293 25.168 43.2506 25.168C 42.6626 25.168 42.1119 25.0653 41.5986 24.86C 41.0946 24.6547 40.6513 24.3513 40.2686 23.95C 39.8953 23.5487 39.6013 23.054 39.3866 22.466C 39.1719 21.878 39.0646 21.206 39.0646 20.45ZM 48.1591 17.188L 48.1171 15.396L 50.0771 15.396L 50.0351 17.188L 49.6151 20.422L 48.5791 20.422L 48.1591 17.188ZM 51.6171 17.188L 51.5751 15.396L 53.5351 15.396L 53.4931 17.188L 53.0731 20.422L 52.0371 20.422L 51.6171 17.188ZM 115.315 17.188L 115.273 15.396L 117.233 15.396L 117.191 17.188L 116.771 20.422L 115.735 20.422L 115.315 17.188ZM 118.773 17.188L 118.731 15.396L 120.691 15.396L 120.649 17.188L 120.229 20.422L 119.193 20.422L 118.773 17.188ZM 123.22 15.844L 125.586 15.844C 126.939 15.844 127.994 16.222 128.75 16.978C 129.515 17.734 129.898 18.868 129.898 20.38C 129.898 21.136 129.8 21.8033 129.604 22.382C 129.408 22.9607 129.128 23.446 128.764 23.838C 128.4 24.2207 127.957 24.51 127.434 24.706C 126.911 24.902 126.323 25 125.67 25L 123.22 25L 123.22 15.844ZM 125.488 23.684C 126.365 23.684 127.042 23.418 127.518 22.886C 127.994 22.3447 128.232 21.5093 128.232 20.38C 128.232 19.26 127.994 18.4433 127.518 17.93C 127.042 17.4167 126.365 17.16 125.488 17.16L 124.844 17.16L 124.844 23.684L 125.488 23.684ZM 132.104 17.188L 132.062 15.396L 134.022 15.396L 133.98 17.188L 133.56 20.422L 132.524 20.422L 132.104 17.188ZM 135.562 17.188L 135.52 15.396L 137.48 15.396L 137.438 17.188L 137.018 20.422L 135.982 20.422L 135.562 17.188Z"/>
<path id="path16_fill" d="M 73.7907 22.494C 73.7907 22.9233 73.9307 23.2687 74.2107 23.53C 74.5001 23.7913 74.8594 23.922 75.2887 23.922C 75.5127 23.922 75.7321 23.8753 75.9467 23.782C 76.1614 23.6887 76.3667 23.558 76.5627 23.39C 76.1707 23.054 75.7974 22.6947 75.4427 22.312C 75.0974 21.92 74.7801 21.514 74.4907 21.094C 74.2854 21.2993 74.1174 21.5187 73.9867 21.752C 73.8561 21.976 73.7907 22.2233 73.7907 22.494ZM 74.5887 17.944C 74.5887 18.3453 74.7054 18.7887 74.9387 19.274C 75.2654 19.0407 75.5407 18.798 75.7647 18.546C 75.9981 18.2847 76.1147 17.9813 76.1147 17.636C 76.1147 17.3933 76.0634 17.188 75.9607 17.02C 75.8581 16.852 75.6714 16.768 75.4007 16.768C 75.1581 16.768 74.9621 16.8753 74.8127 17.09C 74.6634 17.3047 74.5887 17.5893 74.5887 17.944ZM 79.5447 25.168C 78.9287 25 78.2847 24.6827 77.6127 24.216C 77.2767 24.5053 76.8987 24.7387 76.4787 24.916C 76.0681 25.084 75.6061 25.168 75.0927 25.168C 74.6541 25.168 74.2574 25.1027 73.9027 24.972C 73.5481 24.832 73.2494 24.65 73.0067 24.426C 72.7641 24.1927 72.5774 23.922 72.4467 23.614C 72.3161 23.2967 72.2507 22.956 72.2507 22.592C 72.2507 22.284 72.2927 22.0087 72.3767 21.766C 72.4701 21.514 72.5867 21.2853 72.7267 21.08C 72.8761 20.8747 73.0441 20.688 73.2307 20.52C 73.4267 20.3427 73.6321 20.1793 73.8467 20.03C 73.6601 19.6567 73.5107 19.2973 73.3987 18.952C 73.2961 18.5973 73.2447 18.266 73.2447 17.958C 73.2447 17.6407 73.2961 17.3467 73.3987 17.076C 73.5014 16.796 73.6461 16.5533 73.8327 16.348C 74.0194 16.1427 74.2434 15.9793 74.5047 15.858C 74.7661 15.7367 75.0601 15.676 75.3867 15.676C 76.0121 15.676 76.4974 15.8533 76.8427 16.208C 77.1974 16.5627 77.3747 17.034 77.3747 17.622C 77.3747 17.9207 77.3187 18.1913 77.2067 18.434C 77.1041 18.6767 76.9641 18.9053 76.7867 19.12C 76.6094 19.3253 76.4087 19.5213 76.1847 19.708C 75.9701 19.8947 75.7461 20.0767 75.5127 20.254C 75.7834 20.6273 76.0821 20.9913 76.4087 21.346C 76.7447 21.7007 77.0947 22.0273 77.4587 22.326C 77.8881 21.6633 78.2054 20.87 78.4107 19.946L 79.8947 19.946C 79.7361 20.5247 79.5447 21.08 79.3207 21.612C 79.0967 22.144 78.8307 22.648 78.5227 23.124C 78.7841 23.3013 79.0314 23.4507 79.2647 23.572C 79.5074 23.6933 79.7361 23.7867 79.9507 23.852L 79.5447 25.168Z"/>
<path id="path17_stroke" d="M 0 0L 160 0L 160 -1L 0 -1L 0 0Z"/>
</defs>
</svg>
