<svg width="612" height="115" viewBox="0 0 612 115" version="1.1" xmlns="http://www.w3.org/2000/svg" xmlns:xlink="http://www.w3.org/1999/xlink">
<title>s1m1_two_samples</title>
<desc>Created using Figma</desc>
<g id="Canvas" transform="translate(307 103)">
<rect x="-307" y="-103" width="612" height="115" fill="#FFFFFF"/>
<g id="Rectangle">
<use xlink:href="#path0_fill" transform="translate(-307 -103)" fill="#56B4E9"/>
</g>
<g id="Proportion of women = 70%">
<use xlink:href="#path1_fill" transform="translate(-297 -27)" fill="#FFFFFF"/>
</g>
<g id="Average salary = $31000">
<use xlink:href="#path2_fill" transform="translate(-286 -58)" fill="#FFFFFF"/>
</g>
<g id="Sample 1">
<use xlink:href="#path3_fill" transform="translate(-242 -96)" fill="#FFFFFF"/>
<use xlink:href="#path4_fill" transform="translate(-242 -96)" fill="#FFFFFF"/>
</g>
<g id="Rectangle">
<use xlink:href="#path0_fill" transform="translate(61 -103)" fill="#CC79A7"/>
</g>
<g id="Proportion of women = 61%">
<use xlink:href="#path5_fill" transform="translate(71 -27)" fill="#FFFFFF"/>
</g>
<g id="Average salary = $35000">
<use xlink:href="#path6_fill" transform="translate(82 -58)" fill="#FFFFFF"/>
</g>
<g id="Sample 2">
<use xlink:href="#path7_fill" transform="translate(126 -96)" fill="#FFFFFF"/>
<use xlink:href="#path8_fill" transform="translate(126 -96)" fill="#FFFFFF"/>
</g>
</g>
<defs>
<path id="path0_fill" d="M 0 28C 0 12.536 12.536 0 28 0L 216 0C 231.464 0 244 12.536 244 28L 244 87C 244 102.464 231.464 115 216 115L 28 115C 12.536 115 0 102.464 0 87L 0 28Z"/>
<path id="path1_fill" d="M 4.19238 12.4912L 4.19238 17L 1.55566 17L 1.55566 4.20312L 6.54785 4.20312C 7.50879 4.20312 8.35254 4.37891 9.0791 4.73047C 9.81152 5.08203 10.374 5.58301 10.7666 6.2334C 11.1592 6.87793 11.3555 7.61328 11.3555 8.43945C 11.3555 9.69336 10.9248 10.6836 10.0635 11.4102C 9.20801 12.1309 8.02148 12.4912 6.50391 12.4912L 4.19238 12.4912ZM 4.19238 10.3555L 6.54785 10.3555C 7.24512 10.3555 7.77539 10.1914 8.13867 9.86328C 8.50781 9.53516 8.69238 9.06641 8.69238 8.45703C 8.69238 7.83008 8.50781 7.32324 8.13867 6.93652C 7.76953 6.5498 7.25977 6.35059 6.60938 6.33887L 4.19238 6.33887L 4.19238 10.3555ZM 18.3516 9.87207C 18.0059 9.8252 17.7012 9.80176 17.4375 9.80176C 16.4766 9.80176 15.8467 10.127 15.5479 10.7773L 15.5479 17L 13.0078 17L 13.0078 7.49023L 15.4072 7.49023L 15.4775 8.62402C 15.9873 7.75098 16.6934 7.31445 17.5957 7.31445C 17.877 7.31445 18.1406 7.35254 18.3867 7.42871L 18.3516 9.87207ZM 18.8701 12.1572C 18.8701 11.2139 19.0518 10.373 19.415 9.63477C 19.7783 8.89648 20.2998 8.3252 20.9795 7.9209C 21.665 7.5166 22.459 7.31445 23.3613 7.31445C 24.6445 7.31445 25.6904 7.70703 26.499 8.49219C 27.3135 9.27734 27.7676 10.3438 27.8613 11.6914L 27.8789 12.3418C 27.8789 13.8008 27.4717 14.9727 26.6572 15.8574C 25.8428 16.7363 24.75 17.1758 23.3789 17.1758C 22.0078 17.1758 20.9121 16.7363 20.0918 15.8574C 19.2773 14.9785 18.8701 13.7832 18.8701 12.2715L 18.8701 12.1572ZM 21.4102 12.3418C 21.4102 13.2441 21.5801 13.9355 21.9199 14.416C 22.2598 14.8906 22.7461 15.1279 23.3789 15.1279C 23.9941 15.1279 24.4746 14.8936 24.8203 14.4248C 25.166 13.9502 25.3389 13.1943 25.3389 12.1572C 25.3389 11.2725 25.166 10.5869 24.8203 10.1006C 24.4746 9.61426 23.9883 9.37109 23.3613 9.37109C 22.7402 9.37109 22.2598 9.61426 21.9199 10.1006C 21.5801 10.5811 21.4102 11.3281 21.4102 12.3418ZM 38.0039 12.333C 38.0039 13.7979 37.6699 14.9727 37.002 15.8574C 36.3398 16.7363 35.4434 17.1758 34.3125 17.1758C 33.3516 17.1758 32.5752 16.8418 31.9834 16.1738L 31.9834 20.6562L 29.4434 20.6562L 29.4434 7.49023L 31.7988 7.49023L 31.8867 8.42188C 32.502 7.68359 33.3047 7.31445 34.2949 7.31445C 35.4668 7.31445 36.3779 7.74805 37.0283 8.61523C 37.6787 9.48242 38.0039 10.6777 38.0039 12.2012L 38.0039 12.333ZM 35.4639 12.1484C 35.4639 11.2637 35.3057 10.5811 34.9893 10.1006C 34.6787 9.62012 34.2246 9.37988 33.627 9.37988C 32.8301 9.37988 32.2822 9.68457 31.9834 10.2939L 31.9834 14.1875C 32.2939 14.8145 32.8477 15.1279 33.6445 15.1279C 34.8574 15.1279 35.4639 14.1348 35.4639 12.1484ZM 39.1904 12.1572C 39.1904 11.2139 39.3721 10.373 39.7354 9.63477C 40.0986 8.89648 40.6201 8.3252 41.2998 7.9209C 41.9854 7.5166 42.7793 7.31445 43.6816 7.31445C 44.9648 7.31445 46.0107 7.70703 46.8193 8.49219C 47.6338 9.27734 48.0879 10.3438 48.1816 11.6914L 48.1992 12.3418C 48.1992 13.8008 47.792 14.9727 46.9775 15.8574C 46.1631 16.7363 45.0703 17.1758 43.6992 17.1758C 42.3281 17.1758 41.2324 16.7363 40.4121 15.8574C 39.5977 14.9785 39.1904 13.7832 39.1904 12.2715L 39.1904 12.1572ZM 41.7305 12.3418C 41.7305 13.2441 41.9004 13.9355 42.2402 14.416C 42.5801 14.8906 43.0664 15.1279 43.6992 15.1279C 44.3145 15.1279 44.7949 14.8936 45.1406 14.4248C 45.4863 13.9502 45.6592 13.1943 45.6592 12.1572C 45.6592 11.2725 45.4863 10.5869 45.1406 10.1006C 44.7949 9.61426 44.3086 9.37109 43.6816 9.37109C 43.0605 9.37109 42.5801 9.61426 42.2402 10.1006C 41.9004 10.5811 41.7305 11.3281 41.7305 12.3418ZM 55.1074 9.87207C 54.7617 9.8252 54.457 9.80176 54.1934 9.80176C 53.2324 9.80176 52.6025 10.127 52.3037 10.7773L 52.3037 17L 49.7637 17L 49.7637 7.49023L 52.1631 7.49023L 52.2334 8.62402C 52.7432 7.75098 53.4492 7.31445 54.3516 7.31445C 54.6328 7.31445 54.8965 7.35254 55.1426 7.42871L 55.1074 9.87207ZM 59.8184 5.15234L 59.8184 7.49023L 61.4443 7.49023L 61.4443 9.35352L 59.8184 9.35352L 59.8184 14.0996C 59.8184 14.4512 59.8857 14.7031 60.0205 14.8555C 60.1553 15.0078 60.4131 15.084 60.7939 15.084C 61.0752 15.084 61.3242 15.0635 61.541 15.0225L 61.541 16.9473C 61.043 17.0996 60.5303 17.1758 60.0029 17.1758C 58.2217 17.1758 57.3135 16.2764 57.2783 14.4775L 57.2783 9.35352L 55.8896 9.35352L 55.8896 7.49023L 57.2783 7.49023L 57.2783 5.15234L 59.8184 5.15234ZM 65.54 17L 62.9912 17L 62.9912 7.49023L 65.54 7.49023L 65.54 17ZM 62.8418 5.0293C 62.8418 4.64844 62.9678 4.33496 63.2197 4.08887C 63.4775 3.84277 63.8262 3.71973 64.2656 3.71973C 64.6992 3.71973 65.0449 3.84277 65.3027 4.08887C 65.5605 4.33496 65.6895 4.64844 65.6895 5.0293C 65.6895 5.41602 65.5576 5.73242 65.2939 5.97852C 65.0361 6.22461 64.6934 6.34766 64.2656 6.34766C 63.8379 6.34766 63.4922 6.22461 63.2285 5.97852C 62.9707 5.73242 62.8418 5.41602 62.8418 5.0293ZM 67.2451 12.1572C 67.2451 11.2139 67.4268 10.373 67.79 9.63477C 68.1533 8.89648 68.6748 8.3252 69.3545 7.9209C 70.04 7.5166 70.834 7.31445 71.7363 7.31445C 73.0195 7.31445 74.0654 7.70703 74.874 8.49219C 75.6885 9.27734 76.1426 10.3438 76.2363 11.6914L 76.2539 12.3418C 76.2539 13.8008 75.8467 14.9727 75.0322 15.8574C 74.2178 16.7363 73.125 17.1758 71.7539 17.1758C 70.3828 17.1758 69.2871 16.7363 68.4668 15.8574C 67.6523 14.9785 67.2451 13.7832 67.2451 12.2715L 67.2451 12.1572ZM 69.7852 12.3418C 69.7852 13.2441 69.9551 13.9355 70.2949 14.416C 70.6348 14.8906 71.1211 15.1279 71.7539 15.1279C 72.3691 15.1279 72.8496 14.8936 73.1953 14.4248C 73.541 13.9502 73.7139 13.1943 73.7139 12.1572C 73.7139 11.2725 73.541 10.5869 73.1953 10.1006C 72.8496 9.61426 72.3633 9.37109 71.7363 9.37109C 71.1152 9.37109 70.6348 9.61426 70.2949 10.1006C 69.9551 10.5811 69.7852 11.3281 69.7852 12.3418ZM 80.1562 7.49023L 80.2354 8.58887C 80.915 7.73926 81.8262 7.31445 82.9688 7.31445C 83.9766 7.31445 84.7266 7.61035 85.2188 8.20215C 85.7109 8.79395 85.9629 9.67871 85.9746 10.8564L 85.9746 17L 83.4346 17L 83.4346 10.918C 83.4346 10.3789 83.3174 9.98926 83.083 9.74902C 82.8486 9.50293 82.459 9.37988 81.9141 9.37988C 81.1992 9.37988 80.6631 9.68457 80.3057 10.2939L 80.3057 17L 77.7656 17L 77.7656 7.49023L 80.1562 7.49023ZM 91.9951 12.1572C 91.9951 11.2139 92.1768 10.373 92.54 9.63477C 92.9033 8.89648 93.4248 8.3252 94.1045 7.9209C 94.79 7.5166 95.584 7.31445 96.4863 7.31445C 97.7695 7.31445 98.8154 7.70703 99.624 8.49219C 100.438 9.27734 100.893 10.3438 100.986 11.6914L 101.004 12.3418C 101.004 13.8008 100.597 14.9727 99.7822 15.8574C 98.9678 16.7363 97.875 17.1758 96.5039 17.1758C 95.1328 17.1758 94.0371 16.7363 93.2168 15.8574C 92.4023 14.9785 91.9951 13.7832 91.9951 12.2715L 91.9951 12.1572ZM 94.5352 12.3418C 94.5352 13.2441 94.7051 13.9355 95.0449 14.416C 95.3848 14.8906 95.8711 15.1279 96.5039 15.1279C 97.1191 15.1279 97.5996 14.8936 97.9453 14.4248C 98.291 13.9502 98.4639 13.1943 98.4639 12.1572C 98.4639 11.2725 98.291 10.5869 97.9453 10.1006C 97.5996 9.61426 97.1133 9.37109 96.4863 9.37109C 95.8652 9.37109 95.3848 9.61426 95.0449 10.1006C 94.7051 10.5811 94.5352 11.3281 94.5352 12.3418ZM 103.263 17L 103.263 9.35352L 101.848 9.35352L 101.848 7.49023L 103.263 7.49023L 103.263 6.68164C 103.263 5.61523 103.567 4.78906 104.177 4.20312C 104.792 3.61133 105.65 3.31543 106.752 3.31543C 107.104 3.31543 107.534 3.37402 108.044 3.49121L 108.018 5.45996C 107.807 5.40723 107.549 5.38086 107.244 5.38086C 106.289 5.38086 105.812 5.8291 105.812 6.72559L 105.812 7.49023L 107.701 7.49023L 107.701 9.35352L 105.812 9.35352L 105.812 17L 103.263 17ZM 121.772 13.5459L 123.021 7.49023L 125.473 7.49023L 123.047 17L 120.92 17L 119.118 11.0146L 117.316 17L 115.198 17L 112.772 7.49023L 115.225 7.49023L 116.464 13.5371L 118.204 7.49023L 120.041 7.49023L 121.772 13.5459ZM 126.343 12.1572C 126.343 11.2139 126.524 10.373 126.888 9.63477C 127.251 8.89648 127.772 8.3252 128.452 7.9209C 129.138 7.5166 129.932 7.31445 130.834 7.31445C 132.117 7.31445 133.163 7.70703 133.972 8.49219C 134.786 9.27734 135.24 10.3438 135.334 11.6914L 135.352 12.3418C 135.352 13.8008 134.944 14.9727 134.13 15.8574C 133.315 16.7363 132.223 17.1758 130.852 17.1758C 129.48 17.1758 128.385 16.7363 127.564 15.8574C 126.75 14.9785 126.343 13.7832 126.343 12.2715L 126.343 12.1572ZM 128.883 12.3418C 128.883 13.2441 129.053 13.9355 129.393 14.416C 129.732 14.8906 130.219 15.1279 130.852 15.1279C 131.467 15.1279 131.947 14.8936 132.293 14.4248C 132.639 13.9502 132.812 13.1943 132.812 12.1572C 132.812 11.2725 132.639 10.5869 132.293 10.1006C 131.947 9.61426 131.461 9.37109 130.834 9.37109C 130.213 9.37109 129.732 9.61426 129.393 10.1006C 129.053 10.5811 128.883 11.3281 128.883 12.3418ZM 139.298 7.49023L 139.377 8.55371C 140.051 7.72754 140.962 7.31445 142.11 7.31445C 143.335 7.31445 144.176 7.79785 144.633 8.76465C 145.301 7.79785 146.253 7.31445 147.489 7.31445C 148.521 7.31445 149.288 7.61621 149.792 8.21973C 150.296 8.81738 150.548 9.71973 150.548 10.9268L 150.548 17L 147.999 17L 147.999 10.9355C 147.999 10.3965 147.894 10.0039 147.683 9.75781C 147.472 9.50586 147.1 9.37988 146.566 9.37988C 145.805 9.37988 145.277 9.74316 144.984 10.4697L 144.993 17L 142.453 17L 142.453 10.9443C 142.453 10.3936 142.345 9.99512 142.128 9.74902C 141.911 9.50293 141.542 9.37988 141.021 9.37988C 140.3 9.37988 139.778 9.67871 139.456 10.2764L 139.456 17L 136.916 17L 136.916 7.49023L 139.298 7.49023ZM 156.885 17.1758C 155.49 17.1758 154.354 16.748 153.475 15.8926C 152.602 15.0371 152.165 13.8975 152.165 12.4736L 152.165 12.2275C 152.165 11.2725 152.35 10.4199 152.719 9.66992C 153.088 8.91406 153.609 8.33398 154.283 7.92969C 154.963 7.51953 155.736 7.31445 156.604 7.31445C 157.904 7.31445 158.927 7.72461 159.671 8.54492C 160.421 9.36523 160.796 10.5283 160.796 12.0342L 160.796 13.0713L 154.74 13.0713C 154.822 13.6924 155.068 14.1904 155.479 14.5654C 155.895 14.9404 156.419 15.1279 157.052 15.1279C 158.03 15.1279 158.795 14.7734 159.346 14.0645L 160.594 15.4619C 160.213 16.001 159.697 16.4229 159.047 16.7275C 158.396 17.0264 157.676 17.1758 156.885 17.1758ZM 156.595 9.37109C 156.091 9.37109 155.681 9.54102 155.364 9.88086C 155.054 10.2207 154.854 10.707 154.767 11.3398L 158.3 11.3398L 158.3 11.1377C 158.288 10.5752 158.136 10.1416 157.843 9.83691C 157.55 9.52637 157.134 9.37109 156.595 9.37109ZM 164.584 7.49023L 164.663 8.58887C 165.343 7.73926 166.254 7.31445 167.396 7.31445C 168.404 7.31445 169.154 7.61035 169.646 8.20215C 170.139 8.79395 170.391 9.67871 170.402 10.8564L 170.402 17L 167.862 17L 167.862 10.918C 167.862 10.3789 167.745 9.98926 167.511 9.74902C 167.276 9.50293 166.887 9.37988 166.342 9.37988C 165.627 9.37988 165.091 9.68457 164.733 10.2939L 164.733 17L 162.193 17L 162.193 7.49023L 164.584 7.49023ZM 184.896 10.4434L 177.038 10.4434L 177.038 8.36914L 184.896 8.36914L 184.896 10.4434ZM 184.896 14.249L 177.038 14.249L 177.038 12.1748L 184.896 12.1748L 184.896 14.249ZM 200.197 5.62695L 195.249 17L 192.568 17L 197.525 6.25977L 191.162 6.25977L 191.162 4.20312L 200.197 4.20312L 200.197 5.62695ZM 210.445 11.709C 210.445 13.4785 210.079 14.832 209.347 15.7695C 208.614 16.707 207.542 17.1758 206.13 17.1758C 204.735 17.1758 203.669 16.7158 202.931 15.7959C 202.192 14.876 201.814 13.5576 201.797 11.8408L 201.797 9.48535C 201.797 7.69824 202.166 6.3418 202.904 5.41602C 203.648 4.49023 204.718 4.02734 206.112 4.02734C 207.507 4.02734 208.573 4.4873 209.312 5.40723C 210.05 6.32129 210.428 7.63672 210.445 9.35352L 210.445 11.709ZM 207.905 9.125C 207.905 8.06445 207.759 7.29395 207.466 6.81348C 207.179 6.32715 206.728 6.08398 206.112 6.08398C 205.515 6.08398 205.072 6.31543 204.785 6.77832C 204.504 7.23535 204.354 7.95313 204.337 8.93164L 204.337 12.043C 204.337 13.0859 204.478 13.8623 204.759 14.3721C 205.046 14.876 205.503 15.1279 206.13 15.1279C 206.751 15.1279 207.199 14.8848 207.475 14.3984C 207.75 13.9121 207.894 13.168 207.905 12.166L 207.905 9.125ZM 212.133 6.66406C 212.133 5.87891 212.388 5.24316 212.897 4.75684C 213.407 4.26465 214.075 4.01855 214.901 4.01855C 215.739 4.01855 216.413 4.26172 216.923 4.74805C 217.433 5.22852 217.688 5.88184 217.688 6.70801L 217.688 7.34082C 217.688 8.13184 217.433 8.76758 216.923 9.24805C 216.413 9.72852 215.745 9.96875 214.919 9.96875C 214.087 9.96875 213.413 9.72852 212.897 9.24805C 212.388 8.76172 212.133 8.1084 212.133 7.28809L 212.133 6.66406ZM 213.82 7.34082C 213.82 7.69238 213.92 7.97656 214.119 8.19336C 214.324 8.4043 214.591 8.50977 214.919 8.50977C 215.247 8.50977 215.508 8.40137 215.701 8.18457C 215.895 7.96777 215.991 7.67773 215.991 7.31445L 215.991 6.66406C 215.991 6.3125 215.895 6.02832 215.701 5.81152C 215.508 5.59473 215.241 5.48633 214.901 5.48633C 214.579 5.48633 214.318 5.59473 214.119 5.81152C 213.92 6.02246 213.82 6.31836 213.82 6.69922L 213.82 7.34082ZM 218.25 13.8623C 218.25 13.0713 218.508 12.4355 219.023 11.9551C 219.539 11.4688 220.207 11.2256 221.027 11.2256C 221.859 11.2256 222.53 11.4658 223.04 11.9463C 223.556 12.4209 223.813 13.0771 223.813 13.915L 223.813 14.5479C 223.813 15.333 223.562 15.9688 223.058 16.4551C 222.554 16.9355 221.883 17.1758 221.045 17.1758C 220.201 17.1758 219.524 16.9326 219.015 16.4463C 218.505 15.96 218.25 15.3154 218.25 14.5127L 218.25 13.8623ZM 219.938 14.5479C 219.938 14.8701 220.043 15.1455 220.254 15.374C 220.465 15.6025 220.729 15.7168 221.045 15.7168C 221.76 15.7168 222.117 15.3213 222.117 14.5303L 222.117 13.8623C 222.117 13.5107 222.018 13.2295 221.818 13.0186C 221.619 12.8018 221.355 12.6934 221.027 12.6934C 220.699 12.6934 220.436 12.8018 220.236 13.0186C 220.037 13.2295 219.938 13.5195 219.938 13.8887L 219.938 14.5479ZM 215.42 16.042L 214.181 15.374L 220.43 5.37207L 221.669 6.04004L 215.42 16.042Z"/>
<path id="path2_fill" d="M 8.74121 14.3633L 4.11816 14.3633L 3.23926 17L 0.435547 17L 5.19922 4.20312L 7.64258 4.20312L 12.4326 17L 9.62891 17L 8.74121 14.3633ZM 4.83008 12.2275L 8.0293 12.2275L 6.4209 7.4375L 4.83008 12.2275ZM 16.5811 13.8975L 18.3477 7.49023L 21.002 7.49023L 17.7939 17L 15.3682 17L 12.1602 7.49023L 14.8145 7.49023L 16.5811 13.8975ZM 26.3809 17.1758C 24.9863 17.1758 23.8496 16.748 22.9707 15.8926C 22.0977 15.0371 21.6611 13.8975 21.6611 12.4736L 21.6611 12.2275C 21.6611 11.2725 21.8457 10.4199 22.2148 9.66992C 22.584 8.91406 23.1055 8.33398 23.7793 7.92969C 24.459 7.51953 25.2324 7.31445 26.0996 7.31445C 27.4004 7.31445 28.4229 7.72461 29.167 8.54492C 29.917 9.36523 30.292 10.5283 30.292 12.0342L 30.292 13.0713L 24.2363 13.0713C 24.3184 13.6924 24.5645 14.1904 24.9746 14.5654C 25.3906 14.9404 25.915 15.1279 26.5479 15.1279C 27.5264 15.1279 28.291 14.7734 28.8418 14.0645L 30.0898 15.4619C 29.709 16.001 29.1934 16.4229 28.543 16.7275C 27.8926 17.0264 27.1719 17.1758 26.3809 17.1758ZM 26.0908 9.37109C 25.5869 9.37109 25.1768 9.54102 24.8604 9.88086C 24.5498 10.2207 24.3506 10.707 24.2627 11.3398L 27.7959 11.3398L 27.7959 11.1377C 27.7842 10.5752 27.6318 10.1416 27.3389 9.83691C 27.0459 9.52637 26.6299 9.37109 26.0908 9.37109ZM 37.0859 9.87207C 36.7402 9.8252 36.4355 9.80176 36.1719 9.80176C 35.2109 9.80176 34.5811 10.127 34.2822 10.7773L 34.2822 17L 31.7422 17L 31.7422 7.49023L 34.1416 7.49023L 34.2119 8.62402C 34.7217 7.75098 35.4277 7.31445 36.3301 7.31445C 36.6113 7.31445 36.875 7.35254 37.1211 7.42871L 37.0859 9.87207ZM 43.5635 17C 43.4463 16.7715 43.3613 16.4873 43.3086 16.1475C 42.6934 16.833 41.8936 17.1758 40.9092 17.1758C 39.9775 17.1758 39.2041 16.9062 38.5889 16.3672C 37.9795 15.8281 37.6748 15.1484 37.6748 14.3281C 37.6748 13.3203 38.0469 12.5469 38.791 12.0078C 39.541 11.4688 40.6221 11.1963 42.0342 11.1904L 43.2031 11.1904L 43.2031 10.6455C 43.2031 10.2061 43.0889 9.85449 42.8604 9.59082C 42.6377 9.32715 42.2832 9.19531 41.7969 9.19531C 41.3691 9.19531 41.0322 9.29785 40.7861 9.50293C 40.5459 9.70801 40.4258 9.98926 40.4258 10.3467L 37.8857 10.3467C 37.8857 9.7959 38.0557 9.28613 38.3955 8.81738C 38.7354 8.34863 39.2158 7.98242 39.8369 7.71875C 40.458 7.44922 41.1553 7.31445 41.9287 7.31445C 43.1006 7.31445 44.0293 7.61035 44.7148 8.20215C 45.4062 8.78809 45.752 9.61426 45.752 10.6807L 45.752 14.8027C 45.7578 15.7051 45.8838 16.3877 46.1299 16.8506L 46.1299 17L 43.5635 17ZM 41.4629 15.2334C 41.8379 15.2334 42.1836 15.1514 42.5 14.9873C 42.8164 14.8174 43.0508 14.5918 43.2031 14.3105L 43.2031 12.6758L 42.2539 12.6758C 40.9824 12.6758 40.3057 13.1152 40.2236 13.9941L 40.2148 14.1436C 40.2148 14.46 40.3262 14.7207 40.5488 14.9258C 40.7715 15.1309 41.0762 15.2334 41.4629 15.2334ZM 47.334 12.1748C 47.334 10.7158 47.6797 9.54102 48.3711 8.65039C 49.0684 7.75977 50.0059 7.31445 51.1836 7.31445C 52.2266 7.31445 53.0381 7.67188 53.6182 8.38672L 53.7236 7.49023L 56.0264 7.49023L 56.0264 16.6836C 56.0264 17.5156 55.8359 18.2393 55.4551 18.8545C 55.0801 19.4697 54.5498 19.9385 53.8643 20.2607C 53.1787 20.583 52.376 20.7441 51.4561 20.7441C 50.7588 20.7441 50.0791 20.6035 49.417 20.3223C 48.7549 20.0469 48.2539 19.6895 47.9141 19.25L 49.0391 17.7031C 49.6719 18.4121 50.4395 18.7666 51.3418 18.7666C 52.0156 18.7666 52.54 18.585 52.915 18.2217C 53.29 17.8643 53.4775 17.3545 53.4775 16.6924L 53.4775 16.1826C 52.8916 16.8447 52.1211 17.1758 51.166 17.1758C 50.0234 17.1758 49.0977 16.7305 48.3887 15.8398C 47.6855 14.9434 47.334 13.7568 47.334 12.2803L 47.334 12.1748ZM 49.874 12.3594C 49.874 13.2207 50.0469 13.8975 50.3926 14.3896C 50.7383 14.876 51.2129 15.1191 51.8164 15.1191C 52.5898 15.1191 53.1436 14.8291 53.4775 14.249L 53.4775 10.25C 53.1377 9.66992 52.5898 9.37988 51.834 9.37988C 51.2246 9.37988 50.7441 9.62891 50.3926 10.127C 50.0469 10.625 49.874 11.3691 49.874 12.3594ZM 62.3633 17.1758C 60.9688 17.1758 59.832 16.748 58.9531 15.8926C 58.0801 15.0371 57.6436 13.8975 57.6436 12.4736L 57.6436 12.2275C 57.6436 11.2725 57.8281 10.4199 58.1973 9.66992C 58.5664 8.91406 59.0879 8.33398 59.7617 7.92969C 60.4414 7.51953 61.2148 7.31445 62.082 7.31445C 63.3828 7.31445 64.4053 7.72461 65.1494 8.54492C 65.8994 9.36523 66.2744 10.5283 66.2744 12.0342L 66.2744 13.0713L 60.2188 13.0713C 60.3008 13.6924 60.5469 14.1904 60.957 14.5654C 61.373 14.9404 61.8975 15.1279 62.5303 15.1279C 63.5088 15.1279 64.2734 14.7734 64.8242 14.0645L 66.0723 15.4619C 65.6914 16.001 65.1758 16.4229 64.5254 16.7275C 63.875 17.0264 63.1543 17.1758 62.3633 17.1758ZM 62.0732 9.37109C 61.5693 9.37109 61.1592 9.54102 60.8428 9.88086C 60.5322 10.2207 60.333 10.707 60.2451 11.3398L 63.7783 11.3398L 63.7783 11.1377C 63.7666 10.5752 63.6143 10.1416 63.3213 9.83691C 63.0283 9.52637 62.6123 9.37109 62.0732 9.37109ZM 77.3574 14.3721C 77.3574 14.0615 77.2021 13.8184 76.8916 13.6426C 76.5869 13.4609 76.0947 13.2998 75.415 13.1592C 73.1533 12.6846 72.0225 11.7236 72.0225 10.2764C 72.0225 9.43262 72.3711 8.72949 73.0684 8.16699C 73.7715 7.59863 74.6885 7.31445 75.8193 7.31445C 77.0264 7.31445 77.9902 7.59863 78.7109 8.16699C 79.4375 8.73535 79.8008 9.47363 79.8008 10.3818L 77.2607 10.3818C 77.2607 10.0186 77.1436 9.71973 76.9092 9.48535C 76.6748 9.24512 76.3086 9.125 75.8105 9.125C 75.3828 9.125 75.0518 9.22168 74.8174 9.41504C 74.583 9.6084 74.4658 9.85449 74.4658 10.1533C 74.4658 10.4346 74.5977 10.6631 74.8613 10.8389C 75.1309 11.0088 75.582 11.1582 76.2148 11.2871C 76.8477 11.4102 77.3809 11.5508 77.8145 11.709C 79.1562 12.2012 79.8271 13.0537 79.8271 14.2666C 79.8271 15.1338 79.4551 15.8369 78.7109 16.376C 77.9668 16.9092 77.0059 17.1758 75.8281 17.1758C 75.0312 17.1758 74.3223 17.0352 73.7012 16.7539C 73.0859 16.4668 72.6025 16.0771 72.251 15.585C 71.8994 15.0869 71.7236 14.5508 71.7236 13.9766L 74.1318 13.9766C 74.1553 14.4277 74.3223 14.7734 74.6328 15.0137C 74.9434 15.2539 75.3594 15.374 75.8809 15.374C 76.3672 15.374 76.7334 15.2832 76.9795 15.1016C 77.2314 14.9141 77.3574 14.6709 77.3574 14.3721ZM 86.9814 17C 86.8643 16.7715 86.7793 16.4873 86.7266 16.1475C 86.1113 16.833 85.3115 17.1758 84.3271 17.1758C 83.3955 17.1758 82.6221 16.9062 82.0068 16.3672C 81.3975 15.8281 81.0928 15.1484 81.0928 14.3281C 81.0928 13.3203 81.4648 12.5469 82.209 12.0078C 82.959 11.4688 84.04 11.1963 85.4521 11.1904L 86.6211 11.1904L 86.6211 10.6455C 86.6211 10.2061 86.5068 9.85449 86.2783 9.59082C 86.0557 9.32715 85.7012 9.19531 85.2148 9.19531C 84.7871 9.19531 84.4502 9.29785 84.2041 9.50293C 83.9639 9.70801 83.8438 9.98926 83.8438 10.3467L 81.3037 10.3467C 81.3037 9.7959 81.4736 9.28613 81.8135 8.81738C 82.1533 8.34863 82.6338 7.98242 83.2549 7.71875C 83.876 7.44922 84.5732 7.31445 85.3467 7.31445C 86.5186 7.31445 87.4473 7.61035 88.1328 8.20215C 88.8242 8.78809 89.1699 9.61426 89.1699 10.6807L 89.1699 14.8027C 89.1758 15.7051 89.3018 16.3877 89.5479 16.8506L 89.5479 17L 86.9814 17ZM 84.8809 15.2334C 85.2559 15.2334 85.6016 15.1514 85.918 14.9873C 86.2344 14.8174 86.4688 14.5918 86.6211 14.3105L 86.6211 12.6758L 85.6719 12.6758C 84.4004 12.6758 83.7236 13.1152 83.6416 13.9941L 83.6328 14.1436C 83.6328 14.46 83.7441 14.7207 83.9668 14.9258C 84.1895 15.1309 84.4941 15.2334 84.8809 15.2334ZM 93.8018 17L 91.2529 17L 91.2529 3.5L 93.8018 3.5L 93.8018 17ZM 101.413 17C 101.296 16.7715 101.211 16.4873 101.158 16.1475C 100.543 16.833 99.7432 17.1758 98.7588 17.1758C 97.8271 17.1758 97.0537 16.9062 96.4385 16.3672C 95.8291 15.8281 95.5244 15.1484 95.5244 14.3281C 95.5244 13.3203 95.8965 12.5469 96.6406 12.0078C 97.3906 11.4688 98.4717 11.1963 99.8838 11.1904L 101.053 11.1904L 101.053 10.6455C 101.053 10.2061 100.938 9.85449 100.71 9.59082C 100.487 9.32715 100.133 9.19531 99.6465 9.19531C 99.2188 9.19531 98.8818 9.29785 98.6357 9.50293C 98.3955 9.70801 98.2754 9.98926 98.2754 10.3467L 95.7354 10.3467C 95.7354 9.7959 95.9053 9.28613 96.2451 8.81738C 96.585 8.34863 97.0654 7.98242 97.6865 7.71875C 98.3076 7.44922 99.0049 7.31445 99.7783 7.31445C 100.95 7.31445 101.879 7.61035 102.564 8.20215C 103.256 8.78809 103.602 9.61426 103.602 10.6807L 103.602 14.8027C 103.607 15.7051 103.733 16.3877 103.979 16.8506L 103.979 17L 101.413 17ZM 99.3125 15.2334C 99.6875 15.2334 100.033 15.1514 100.35 14.9873C 100.666 14.8174 100.9 14.5918 101.053 14.3105L 101.053 12.6758L 100.104 12.6758C 98.832 12.6758 98.1553 13.1152 98.0732 13.9941L 98.0645 14.1436C 98.0645 14.46 98.1758 14.7207 98.3984 14.9258C 98.6211 15.1309 98.9258 15.2334 99.3125 15.2334ZM 110.896 9.87207C 110.551 9.8252 110.246 9.80176 109.982 9.80176C 109.021 9.80176 108.392 10.127 108.093 10.7773L 108.093 17L 105.553 17L 105.553 7.49023L 107.952 7.49023L 108.022 8.62402C 108.532 7.75098 109.238 7.31445 110.141 7.31445C 110.422 7.31445 110.686 7.35254 110.932 7.42871L 110.896 9.87207ZM 115.836 13.4053L 117.594 7.49023L 120.318 7.49023L 116.495 18.4766L 116.284 18.9775C 115.716 20.2197 114.778 20.8408 113.472 20.8408C 113.103 20.8408 112.728 20.7852 112.347 20.6738L 112.347 18.749L 112.733 18.7578C 113.214 18.7578 113.571 18.6846 113.806 18.5381C 114.046 18.3916 114.233 18.1484 114.368 17.8086L 114.667 17.0264L 111.336 7.49023L 114.069 7.49023L 115.836 13.4053ZM 133.88 10.4434L 126.022 10.4434L 126.022 8.36914L 133.88 8.36914L 133.88 10.4434ZM 133.88 14.249L 126.022 14.249L 126.022 12.1748L 133.88 12.1748L 133.88 14.249ZM 146.554 13.6338C 146.554 13.1533 146.419 12.7725 146.149 12.4912C 145.886 12.2041 145.435 11.9404 144.796 11.7002C 144.157 11.46 143.606 11.2227 143.144 10.9883C 142.681 10.748 142.282 10.4756 141.948 10.1709C 141.62 9.86035 141.362 9.49707 141.175 9.08105C 140.993 8.66504 140.902 8.16992 140.902 7.5957C 140.902 6.60547 141.219 5.79395 141.852 5.16113C 142.484 4.52832 143.325 4.15918 144.374 4.05371L 144.374 2.17285L 145.78 2.17285L 145.78 4.08008C 146.817 4.22656 147.629 4.66016 148.215 5.38086C 148.801 6.0957 149.094 7.02441 149.094 8.16699L 146.554 8.16699C 146.554 7.46387 146.407 6.93945 146.114 6.59375C 145.827 6.24219 145.44 6.06641 144.954 6.06641C 144.474 6.06641 144.102 6.2041 143.838 6.47949C 143.574 6.74902 143.442 7.12402 143.442 7.60449C 143.442 8.0498 143.571 8.40723 143.829 8.67676C 144.087 8.94629 144.564 9.22168 145.262 9.50293C 145.965 9.78418 146.542 10.0508 146.993 10.3027C 147.444 10.5488 147.825 10.8301 148.136 11.1465C 148.446 11.457 148.684 11.8145 148.848 12.2188C 149.012 12.6172 149.094 13.083 149.094 13.6162C 149.094 14.6123 148.783 15.4209 148.162 16.042C 147.541 16.6631 146.686 17.0293 145.596 17.1406L 145.596 18.8896L 144.198 18.8896L 144.198 17.1494C 142.997 17.0205 142.065 16.5957 141.403 15.875C 140.747 15.1484 140.419 14.1846 140.419 12.9834L 142.959 12.9834C 142.959 13.6807 143.123 14.2168 143.451 14.5918C 143.785 14.9609 144.263 15.1455 144.884 15.1455C 145.399 15.1455 145.807 15.0107 146.105 14.7412C 146.404 14.4658 146.554 14.0967 146.554 13.6338ZM 153.4 9.47656L 154.754 9.47656C 155.398 9.47656 155.876 9.31543 156.187 8.99316C 156.497 8.6709 156.652 8.24316 156.652 7.70996C 156.652 7.19434 156.497 6.79297 156.187 6.50586C 155.882 6.21875 155.46 6.0752 154.921 6.0752C 154.435 6.0752 154.027 6.20996 153.699 6.47949C 153.371 6.74316 153.207 7.08887 153.207 7.5166L 150.667 7.5166C 150.667 6.84863 150.846 6.25098 151.203 5.72363C 151.566 5.19043 152.07 4.77441 152.715 4.47559C 153.365 4.17676 154.08 4.02734 154.859 4.02734C 156.213 4.02734 157.273 4.35254 158.041 5.00293C 158.809 5.64746 159.192 6.53809 159.192 7.6748C 159.192 8.26074 159.014 8.7998 158.656 9.29199C 158.299 9.78418 157.83 10.1621 157.25 10.4258C 157.971 10.6836 158.507 11.0703 158.858 11.5859C 159.216 12.1016 159.395 12.7109 159.395 13.4141C 159.395 14.5508 158.979 15.4619 158.146 16.1475C 157.32 16.833 156.225 17.1758 154.859 17.1758C 153.582 17.1758 152.536 16.8389 151.722 16.165C 150.913 15.4912 150.509 14.6006 150.509 13.4932L 153.049 13.4932C 153.049 13.9736 153.228 14.3662 153.585 14.6709C 153.948 14.9756 154.394 15.1279 154.921 15.1279C 155.524 15.1279 155.996 14.9697 156.336 14.6533C 156.682 14.3311 156.854 13.9062 156.854 13.3789C 156.854 12.1016 156.151 11.4629 154.745 11.4629L 153.4 11.4629L 153.4 9.47656ZM 167.322 17L 164.782 17L 164.782 7.20898L 161.75 8.14941L 161.75 6.08398L 167.05 4.18555L 167.322 4.18555L 167.322 17ZM 180.102 11.709C 180.102 13.4785 179.735 14.832 179.003 15.7695C 178.271 16.707 177.198 17.1758 175.786 17.1758C 174.392 17.1758 173.325 16.7158 172.587 15.7959C 171.849 14.876 171.471 13.5576 171.453 11.8408L 171.453 9.48535C 171.453 7.69824 171.822 6.3418 172.561 5.41602C 173.305 4.49023 174.374 4.02734 175.769 4.02734C 177.163 4.02734 178.229 4.4873 178.968 5.40723C 179.706 6.32129 180.084 7.63672 180.102 9.35352L 180.102 11.709ZM 177.562 9.125C 177.562 8.06445 177.415 7.29395 177.122 6.81348C 176.835 6.32715 176.384 6.08398 175.769 6.08398C 175.171 6.08398 174.729 6.31543 174.441 6.77832C 174.16 7.23535 174.011 7.95313 173.993 8.93164L 173.993 12.043C 173.993 13.0859 174.134 13.8623 174.415 14.3721C 174.702 14.876 175.159 15.1279 175.786 15.1279C 176.407 15.1279 176.855 14.8848 177.131 14.3984C 177.406 13.9121 177.55 13.168 177.562 12.166L 177.562 9.125ZM 190.438 11.709C 190.438 13.4785 190.071 14.832 189.339 15.7695C 188.606 16.707 187.534 17.1758 186.122 17.1758C 184.728 17.1758 183.661 16.7158 182.923 15.7959C 182.185 14.876 181.807 13.5576 181.789 11.8408L 181.789 9.48535C 181.789 7.69824 182.158 6.3418 182.896 5.41602C 183.641 4.49023 184.71 4.02734 186.104 4.02734C 187.499 4.02734 188.565 4.4873 189.304 5.40723C 190.042 6.32129 190.42 7.63672 190.438 9.35352L 190.438 11.709ZM 187.897 9.125C 187.897 8.06445 187.751 7.29395 187.458 6.81348C 187.171 6.32715 186.72 6.08398 186.104 6.08398C 185.507 6.08398 185.064 6.31543 184.777 6.77832C 184.496 7.23535 184.347 7.95313 184.329 8.93164L 184.329 12.043C 184.329 13.0859 184.47 13.8623 184.751 14.3721C 185.038 14.876 185.495 15.1279 186.122 15.1279C 186.743 15.1279 187.191 14.8848 187.467 14.3984C 187.742 13.9121 187.886 13.168 187.897 12.166L 187.897 9.125ZM 200.773 11.709C 200.773 13.4785 200.407 14.832 199.675 15.7695C 198.942 16.707 197.87 17.1758 196.458 17.1758C 195.063 17.1758 193.997 16.7158 193.259 15.7959C 192.521 14.876 192.143 13.5576 192.125 11.8408L 192.125 9.48535C 192.125 7.69824 192.494 6.3418 193.232 5.41602C 193.977 4.49023 195.046 4.02734 196.44 4.02734C 197.835 4.02734 198.901 4.4873 199.64 5.40723C 200.378 6.32129 200.756 7.63672 200.773 9.35352L 200.773 11.709ZM 198.233 9.125C 198.233 8.06445 198.087 7.29395 197.794 6.81348C 197.507 6.32715 197.056 6.08398 196.44 6.08398C 195.843 6.08398 195.4 6.31543 195.113 6.77832C 194.832 7.23535 194.683 7.95313 194.665 8.93164L 194.665 12.043C 194.665 13.0859 194.806 13.8623 195.087 14.3721C 195.374 14.876 195.831 15.1279 196.458 15.1279C 197.079 15.1279 197.527 14.8848 197.803 14.3984C 198.078 13.9121 198.222 13.168 198.233 12.166L 198.233 9.125Z"/>
<path id="path3_fill" d="M 24.0332 15.2695C 24.0332 14.7161 23.8379 14.293 23.4473 14C 23.0566 13.7005 22.3535 13.388 21.3379 13.0625C 20.3223 12.7305 19.5182 12.4049 18.9258 12.0859C 17.3112 11.2135 16.5039 10.0384 16.5039 8.56055C 16.5039 7.79232 16.7188 7.10872 17.1484 6.50977C 17.5846 5.9043 18.2064 5.43229 19.0137 5.09375C 19.8275 4.75521 20.7389 4.58594 21.748 4.58594C 22.7637 4.58594 23.6686 4.77148 24.4629 5.14258C 25.2572 5.50716 25.8724 6.02474 26.3086 6.69531C 26.7513 7.36589 26.9727 8.1276 26.9727 8.98047L 24.043 8.98047C 24.043 8.32943 23.8379 7.82487 23.4277 7.4668C 23.0176 7.10221 22.4414 6.91992 21.6992 6.91992C 20.9831 6.91992 20.4264 7.07292 20.0293 7.37891C 19.6322 7.67839 19.4336 8.07552 19.4336 8.57031C 19.4336 9.03255 19.6647 9.41992 20.127 9.73242C 20.5957 10.0449 21.2826 10.3379 22.1875 10.6113C 23.8542 11.1126 25.0684 11.7344 25.8301 12.4766C 26.5918 13.2188 26.9727 14.1432 26.9727 15.25C 26.9727 16.4805 26.5072 17.4473 25.5762 18.1504C 24.6452 18.847 23.3919 19.1953 21.8164 19.1953C 20.7227 19.1953 19.7266 18.9967 18.8281 18.5996C 17.9297 18.196 17.2428 17.6458 16.7676 16.9492C 16.2988 16.2526 16.0645 15.4453 16.0645 14.5273L 19.0039 14.5273C 19.0039 16.0964 19.9414 16.8809 21.8164 16.8809C 22.513 16.8809 23.0566 16.7409 23.4473 16.4609C 23.8379 16.1745 24.0332 15.7773 24.0332 15.2695ZM 34.9023 19C 34.7721 18.7461 34.6777 18.4303 34.6191 18.0527C 33.9355 18.8145 33.0469 19.1953 31.9531 19.1953C 30.918 19.1953 30.0586 18.8958 29.375 18.2969C 28.6979 17.6979 28.3594 16.9427 28.3594 16.0312C 28.3594 14.9115 28.7728 14.0521 29.5996 13.4531C 30.4329 12.8542 31.6341 12.5514 33.2031 12.5449L 34.502 12.5449L 34.502 11.9395C 34.502 11.4512 34.375 11.0605 34.1211 10.7676C 33.8737 10.4746 33.4798 10.3281 32.9395 10.3281C 32.4642 10.3281 32.0898 10.4421 31.8164 10.6699C 31.5495 10.8978 31.416 11.2103 31.416 11.6074L 28.5938 11.6074C 28.5938 10.9954 28.7826 10.429 29.1602 9.9082C 29.5378 9.38737 30.0716 8.98047 30.7617 8.6875C 31.4518 8.38802 32.2266 8.23828 33.0859 8.23828C 34.388 8.23828 35.4199 8.56706 36.1816 9.22461C 36.9499 9.87565 37.334 10.7936 37.334 11.9785L 37.334 16.5586C 37.3405 17.5612 37.4805 18.3197 37.7539 18.834L 37.7539 19L 34.9023 19ZM 32.5684 17.0371C 32.985 17.0371 33.3691 16.946 33.7207 16.7637C 34.0723 16.5749 34.3327 16.3242 34.502 16.0117L 34.502 14.1953L 33.4473 14.1953C 32.0345 14.1953 31.2826 14.6836 31.1914 15.6602L 31.1816 15.8262C 31.1816 16.1777 31.3053 16.4674 31.5527 16.6953C 31.8001 16.9232 32.1387 17.0371 32.5684 17.0371ZM 42.1484 8.43359L 42.2363 9.61523C 42.985 8.69727 43.9974 8.23828 45.2734 8.23828C 46.6341 8.23828 47.5684 8.77539 48.0762 9.84961C 48.8184 8.77539 49.8763 8.23828 51.25 8.23828C 52.3958 8.23828 53.2487 8.57357 53.8086 9.24414C 54.3685 9.9082 54.6484 10.9108 54.6484 12.252L 54.6484 19L 51.8164 19L 51.8164 12.2617C 51.8164 11.6628 51.6992 11.2266 51.4648 10.9531C 51.2305 10.6732 50.8171 10.5332 50.2246 10.5332C 49.3783 10.5332 48.7923 10.9368 48.4668 11.7441L 48.4766 19L 45.6543 19L 45.6543 12.2715C 45.6543 11.6595 45.5339 11.2168 45.293 10.9434C 45.0521 10.6699 44.6419 10.5332 44.0625 10.5332C 43.2617 10.5332 42.6823 10.8652 42.3242 11.5293L 42.3242 19L 39.502 19L 39.502 8.43359L 42.1484 8.43359ZM 66.3379 13.8145C 66.3379 15.4421 65.9668 16.7474 65.2246 17.7305C 64.4889 18.707 63.4928 19.1953 62.2363 19.1953C 61.1686 19.1953 60.306 18.8242 59.6484 18.082L 59.6484 23.0625L 56.8262 23.0625L 56.8262 8.43359L 59.4434 8.43359L 59.541 9.46875C 60.2246 8.64844 61.1165 8.23828 62.2168 8.23828C 63.5189 8.23828 64.5312 8.72005 65.2539 9.68359C 65.9766 10.6471 66.3379 11.9753 66.3379 13.668L 66.3379 13.8145ZM 63.5156 13.6094C 63.5156 12.6263 63.3398 11.8678 62.9883 11.334C 62.6432 10.8001 62.1387 10.5332 61.4746 10.5332C 60.5892 10.5332 59.9805 10.8717 59.6484 11.5488L 59.6484 15.875C 59.9935 16.5716 60.6087 16.9199 61.4941 16.9199C 62.8418 16.9199 63.5156 15.8164 63.5156 13.6094ZM 71.0742 19L 68.2422 19L 68.2422 4L 71.0742 4L 71.0742 19ZM 78.2715 19.1953C 76.722 19.1953 75.459 18.7201 74.4824 17.7695C 73.5124 16.819 73.0273 15.5527 73.0273 13.9707L 73.0273 13.6973C 73.0273 12.6361 73.2324 11.6888 73.6426 10.8555C 74.0527 10.0156 74.6322 9.37109 75.3809 8.92188C 76.1361 8.46615 76.9954 8.23828 77.959 8.23828C 79.4043 8.23828 80.5404 8.69401 81.3672 9.60547C 82.2005 10.5169 82.6172 11.8092 82.6172 13.4824L 82.6172 14.6348L 75.8887 14.6348C 75.9798 15.3249 76.2533 15.8783 76.709 16.2949C 77.1712 16.7116 77.7539 16.9199 78.457 16.9199C 79.5443 16.9199 80.3939 16.526 81.0059 15.7383L 82.3926 17.291C 81.9694 17.89 81.3965 18.3587 80.6738 18.6973C 79.9512 19.0293 79.1504 19.1953 78.2715 19.1953ZM 77.9492 10.5234C 77.3893 10.5234 76.9336 10.7122 76.582 11.0898C 76.237 11.4674 76.0156 12.0078 75.918 12.7109L 79.8438 12.7109L 79.8438 12.4863C 79.8307 11.8613 79.6615 11.3796 79.3359 11.041C 79.0104 10.696 78.5482 10.5234 77.9492 10.5234ZM 95.9473 19L 93.125 19L 93.125 8.12109L 89.7559 9.16602L 89.7559 6.87109L 95.6445 4.76172L 95.9473 4.76172L 95.9473 19Z"/>
<path id="path4_fill" d="M 15.3906 20.5078L 99.5996 20.5078L 99.5996 21.4844L 15.3906 21.4844L 15.3906 20.5078Z"/>
<path id="path5_fill" d="M 4.19238 12.4912L 4.19238 17L 1.55566 17L 1.55566 4.20312L 6.54785 4.20312C 7.50879 4.20312 8.35254 4.37891 9.0791 4.73047C 9.81152 5.08203 10.374 5.58301 10.7666 6.2334C 11.1592 6.87793 11.3555 7.61328 11.3555 8.43945C 11.3555 9.69336 10.9248 10.6836 10.0635 11.4102C 9.20801 12.1309 8.02148 12.4912 6.50391 12.4912L 4.19238 12.4912ZM 4.19238 10.3555L 6.54785 10.3555C 7.24512 10.3555 7.77539 10.1914 8.13867 9.86328C 8.50781 9.53516 8.69238 9.06641 8.69238 8.45703C 8.69238 7.83008 8.50781 7.32324 8.13867 6.93652C 7.76953 6.5498 7.25977 6.35059 6.60938 6.33887L 4.19238 6.33887L 4.19238 10.3555ZM 18.3516 9.87207C 18.0059 9.8252 17.7012 9.80176 17.4375 9.80176C 16.4766 9.80176 15.8467 10.127 15.5479 10.7773L 15.5479 17L 13.0078 17L 13.0078 7.49023L 15.4072 7.49023L 15.4775 8.62402C 15.9873 7.75098 16.6934 7.31445 17.5957 7.31445C 17.877 7.31445 18.1406 7.35254 18.3867 7.42871L 18.3516 9.87207ZM 18.8701 12.1572C 18.8701 11.2139 19.0518 10.373 19.415 9.63477C 19.7783 8.89648 20.2998 8.3252 20.9795 7.9209C 21.665 7.5166 22.459 7.31445 23.3613 7.31445C 24.6445 7.31445 25.6904 7.70703 26.499 8.49219C 27.3135 9.27734 27.7676 10.3438 27.8613 11.6914L 27.8789 12.3418C 27.8789 13.8008 27.4717 14.9727 26.6572 15.8574C 25.8428 16.7363 24.75 17.1758 23.3789 17.1758C 22.0078 17.1758 20.9121 16.7363 20.0918 15.8574C 19.2773 14.9785 18.8701 13.7832 18.8701 12.2715L 18.8701 12.1572ZM 21.4102 12.3418C 21.4102 13.2441 21.5801 13.9355 21.9199 14.416C 22.2598 14.8906 22.7461 15.1279 23.3789 15.1279C 23.9941 15.1279 24.4746 14.8936 24.8203 14.4248C 25.166 13.9502 25.3389 13.1943 25.3389 12.1572C 25.3389 11.2725 25.166 10.5869 24.8203 10.1006C 24.4746 9.61426 23.9883 9.37109 23.3613 9.37109C 22.7402 9.37109 22.2598 9.61426 21.9199 10.1006C 21.5801 10.5811 21.4102 11.3281 21.4102 12.3418ZM 38.0039 12.333C 38.0039 13.7979 37.6699 14.9727 37.002 15.8574C 36.3398 16.7363 35.4434 17.1758 34.3125 17.1758C 33.3516 17.1758 32.5752 16.8418 31.9834 16.1738L 31.9834 20.6562L 29.4434 20.6562L 29.4434 7.49023L 31.7988 7.49023L 31.8867 8.42188C 32.502 7.68359 33.3047 7.31445 34.2949 7.31445C 35.4668 7.31445 36.3779 7.74805 37.0283 8.61523C 37.6787 9.48242 38.0039 10.6777 38.0039 12.2012L 38.0039 12.333ZM 35.4639 12.1484C 35.4639 11.2637 35.3057 10.5811 34.9893 10.1006C 34.6787 9.62012 34.2246 9.37988 33.627 9.37988C 32.8301 9.37988 32.2822 9.68457 31.9834 10.2939L 31.9834 14.1875C 32.2939 14.8145 32.8477 15.1279 33.6445 15.1279C 34.8574 15.1279 35.4639 14.1348 35.4639 12.1484ZM 39.1904 12.1572C 39.1904 11.2139 39.3721 10.373 39.7354 9.63477C 40.0986 8.89648 40.6201 8.3252 41.2998 7.9209C 41.9854 7.5166 42.7793 7.31445 43.6816 7.31445C 44.9648 7.31445 46.0107 7.70703 46.8193 8.49219C 47.6338 9.27734 48.0879 10.3438 48.1816 11.6914L 48.1992 12.3418C 48.1992 13.8008 47.792 14.9727 46.9775 15.8574C 46.1631 16.7363 45.0703 17.1758 43.6992 17.1758C 42.3281 17.1758 41.2324 16.7363 40.4121 15.8574C 39.5977 14.9785 39.1904 13.7832 39.1904 12.2715L 39.1904 12.1572ZM 41.7305 12.3418C 41.7305 13.2441 41.9004 13.9355 42.2402 14.416C 42.5801 14.8906 43.0664 15.1279 43.6992 15.1279C 44.3145 15.1279 44.7949 14.8936 45.1406 14.4248C 45.4863 13.9502 45.6592 13.1943 45.6592 12.1572C 45.6592 11.2725 45.4863 10.5869 45.1406 10.1006C 44.7949 9.61426 44.3086 9.37109 43.6816 9.37109C 43.0605 9.37109 42.5801 9.61426 42.2402 10.1006C 41.9004 10.5811 41.7305 11.3281 41.7305 12.3418ZM 55.1074 9.87207C 54.7617 9.8252 54.457 9.80176 54.1934 9.80176C 53.2324 9.80176 52.6025 10.127 52.3037 10.7773L 52.3037 17L 49.7637 17L 49.7637 7.49023L 52.1631 7.49023L 52.2334 8.62402C 52.7432 7.75098 53.4492 7.31445 54.3516 7.31445C 54.6328 7.31445 54.8965 7.35254 55.1426 7.42871L 55.1074 9.87207ZM 59.8184 5.15234L 59.8184 7.49023L 61.4443 7.49023L 61.4443 9.35352L 59.8184 9.35352L 59.8184 14.0996C 59.8184 14.4512 59.8857 14.7031 60.0205 14.8555C 60.1553 15.0078 60.4131 15.084 60.7939 15.084C 61.0752 15.084 61.3242 15.0635 61.541 15.0225L 61.541 16.9473C 61.043 17.0996 60.5303 17.1758 60.0029 17.1758C 58.2217 17.1758 57.3135 16.2764 57.2783 14.4775L 57.2783 9.35352L 55.8896 9.35352L 55.8896 7.49023L 57.2783 7.49023L 57.2783 5.15234L 59.8184 5.15234ZM 65.54 17L 62.9912 17L 62.9912 7.49023L 65.54 7.49023L 65.54 17ZM 62.8418 5.0293C 62.8418 4.64844 62.9678 4.33496 63.2197 4.08887C 63.4775 3.84277 63.8262 3.71973 64.2656 3.71973C 64.6992 3.71973 65.0449 3.84277 65.3027 4.08887C 65.5605 4.33496 65.6895 4.64844 65.6895 5.0293C 65.6895 5.41602 65.5576 5.73242 65.2939 5.97852C 65.0361 6.22461 64.6934 6.34766 64.2656 6.34766C 63.8379 6.34766 63.4922 6.22461 63.2285 5.97852C 62.9707 5.73242 62.8418 5.41602 62.8418 5.0293ZM 67.2451 12.1572C 67.2451 11.2139 67.4268 10.373 67.79 9.63477C 68.1533 8.89648 68.6748 8.3252 69.3545 7.9209C 70.04 7.5166 70.834 7.31445 71.7363 7.31445C 73.0195 7.31445 74.0654 7.70703 74.874 8.49219C 75.6885 9.27734 76.1426 10.3438 76.2363 11.6914L 76.2539 12.3418C 76.2539 13.8008 75.8467 14.9727 75.0322 15.8574C 74.2178 16.7363 73.125 17.1758 71.7539 17.1758C 70.3828 17.1758 69.2871 16.7363 68.4668 15.8574C 67.6523 14.9785 67.2451 13.7832 67.2451 12.2715L 67.2451 12.1572ZM 69.7852 12.3418C 69.7852 13.2441 69.9551 13.9355 70.2949 14.416C 70.6348 14.8906 71.1211 15.1279 71.7539 15.1279C 72.3691 15.1279 72.8496 14.8936 73.1953 14.4248C 73.541 13.9502 73.7139 13.1943 73.7139 12.1572C 73.7139 11.2725 73.541 10.5869 73.1953 10.1006C 72.8496 9.61426 72.3633 9.37109 71.7363 9.37109C 71.1152 9.37109 70.6348 9.61426 70.2949 10.1006C 69.9551 10.5811 69.7852 11.3281 69.7852 12.3418ZM 80.1562 7.49023L 80.2354 8.58887C 80.915 7.73926 81.8262 7.31445 82.9688 7.31445C 83.9766 7.31445 84.7266 7.61035 85.2188 8.20215C 85.7109 8.79395 85.9629 9.67871 85.9746 10.8564L 85.9746 17L 83.4346 17L 83.4346 10.918C 83.4346 10.3789 83.3174 9.98926 83.083 9.74902C 82.8486 9.50293 82.459 9.37988 81.9141 9.37988C 81.1992 9.37988 80.6631 9.68457 80.3057 10.2939L 80.3057 17L 77.7656 17L 77.7656 7.49023L 80.1562 7.49023ZM 91.9951 12.1572C 91.9951 11.2139 92.1768 10.373 92.54 9.63477C 92.9033 8.89648 93.4248 8.3252 94.1045 7.9209C 94.79 7.5166 95.584 7.31445 96.4863 7.31445C 97.7695 7.31445 98.8154 7.70703 99.624 8.49219C 100.438 9.27734 100.893 10.3438 100.986 11.6914L 101.004 12.3418C 101.004 13.8008 100.597 14.9727 99.7822 15.8574C 98.9678 16.7363 97.875 17.1758 96.5039 17.1758C 95.1328 17.1758 94.0371 16.7363 93.2168 15.8574C 92.4023 14.9785 91.9951 13.7832 91.9951 12.2715L 91.9951 12.1572ZM 94.5352 12.3418C 94.5352 13.2441 94.7051 13.9355 95.0449 14.416C 95.3848 14.8906 95.8711 15.1279 96.5039 15.1279C 97.1191 15.1279 97.5996 14.8936 97.9453 14.4248C 98.291 13.9502 98.4639 13.1943 98.4639 12.1572C 98.4639 11.2725 98.291 10.5869 97.9453 10.1006C 97.5996 9.61426 97.1133 9.37109 96.4863 9.37109C 95.8652 9.37109 95.3848 9.61426 95.0449 10.1006C 94.7051 10.5811 94.5352 11.3281 94.5352 12.3418ZM 103.263 17L 103.263 9.35352L 101.848 9.35352L 101.848 7.49023L 103.263 7.49023L 103.263 6.68164C 103.263 5.61523 103.567 4.78906 104.177 4.20312C 104.792 3.61133 105.65 3.31543 106.752 3.31543C 107.104 3.31543 107.534 3.37402 108.044 3.49121L 108.018 5.45996C 107.807 5.40723 107.549 5.38086 107.244 5.38086C 106.289 5.38086 105.812 5.8291 105.812 6.72559L 105.812 7.49023L 107.701 7.49023L 107.701 9.35352L 105.812 9.35352L 105.812 17L 103.263 17ZM 121.772 13.5459L 123.021 7.49023L 125.473 7.49023L 123.047 17L 120.92 17L 119.118 11.0146L 117.316 17L 115.198 17L 112.772 7.49023L 115.225 7.49023L 116.464 13.5371L 118.204 7.49023L 120.041 7.49023L 121.772 13.5459ZM 126.343 12.1572C 126.343 11.2139 126.524 10.373 126.888 9.63477C 127.251 8.89648 127.772 8.3252 128.452 7.9209C 129.138 7.5166 129.932 7.31445 130.834 7.31445C 132.117 7.31445 133.163 7.70703 133.972 8.49219C 134.786 9.27734 135.24 10.3438 135.334 11.6914L 135.352 12.3418C 135.352 13.8008 134.944 14.9727 134.13 15.8574C 133.315 16.7363 132.223 17.1758 130.852 17.1758C 129.48 17.1758 128.385 16.7363 127.564 15.8574C 126.75 14.9785 126.343 13.7832 126.343 12.2715L 126.343 12.1572ZM 128.883 12.3418C 128.883 13.2441 129.053 13.9355 129.393 14.416C 129.732 14.8906 130.219 15.1279 130.852 15.1279C 131.467 15.1279 131.947 14.8936 132.293 14.4248C 132.639 13.9502 132.812 13.1943 132.812 12.1572C 132.812 11.2725 132.639 10.5869 132.293 10.1006C 131.947 9.61426 131.461 9.37109 130.834 9.37109C 130.213 9.37109 129.732 9.61426 129.393 10.1006C 129.053 10.5811 128.883 11.3281 128.883 12.3418ZM 139.298 7.49023L 139.377 8.55371C 140.051 7.72754 140.962 7.31445 142.11 7.31445C 143.335 7.31445 144.176 7.79785 144.633 8.76465C 145.301 7.79785 146.253 7.31445 147.489 7.31445C 148.521 7.31445 149.288 7.61621 149.792 8.21973C 150.296 8.81738 150.548 9.71973 150.548 10.9268L 150.548 17L 147.999 17L 147.999 10.9355C 147.999 10.3965 147.894 10.0039 147.683 9.75781C 147.472 9.50586 147.1 9.37988 146.566 9.37988C 145.805 9.37988 145.277 9.74316 144.984 10.4697L 144.993 17L 142.453 17L 142.453 10.9443C 142.453 10.3936 142.345 9.99512 142.128 9.74902C 141.911 9.50293 141.542 9.37988 141.021 9.37988C 140.3 9.37988 139.778 9.67871 139.456 10.2764L 139.456 17L 136.916 17L 136.916 7.49023L 139.298 7.49023ZM 156.885 17.1758C 155.49 17.1758 154.354 16.748 153.475 15.8926C 152.602 15.0371 152.165 13.8975 152.165 12.4736L 152.165 12.2275C 152.165 11.2725 152.35 10.4199 152.719 9.66992C 153.088 8.91406 153.609 8.33398 154.283 7.92969C 154.963 7.51953 155.736 7.31445 156.604 7.31445C 157.904 7.31445 158.927 7.72461 159.671 8.54492C 160.421 9.36523 160.796 10.5283 160.796 12.0342L 160.796 13.0713L 154.74 13.0713C 154.822 13.6924 155.068 14.1904 155.479 14.5654C 155.895 14.9404 156.419 15.1279 157.052 15.1279C 158.03 15.1279 158.795 14.7734 159.346 14.0645L 160.594 15.4619C 160.213 16.001 159.697 16.4229 159.047 16.7275C 158.396 17.0264 157.676 17.1758 156.885 17.1758ZM 156.595 9.37109C 156.091 9.37109 155.681 9.54102 155.364 9.88086C 155.054 10.2207 154.854 10.707 154.767 11.3398L 158.3 11.3398L 158.3 11.1377C 158.288 10.5752 158.136 10.1416 157.843 9.83691C 157.55 9.52637 157.134 9.37109 156.595 9.37109ZM 164.584 7.49023L 164.663 8.58887C 165.343 7.73926 166.254 7.31445 167.396 7.31445C 168.404 7.31445 169.154 7.61035 169.646 8.20215C 170.139 8.79395 170.391 9.67871 170.402 10.8564L 170.402 17L 167.862 17L 167.862 10.918C 167.862 10.3789 167.745 9.98926 167.511 9.74902C 167.276 9.50293 166.887 9.37988 166.342 9.37988C 165.627 9.37988 165.091 9.68457 164.733 10.2939L 164.733 17L 162.193 17L 162.193 7.49023L 164.584 7.49023ZM 184.896 10.4434L 177.038 10.4434L 177.038 8.36914L 184.896 8.36914L 184.896 10.4434ZM 184.896 14.249L 177.038 14.249L 177.038 12.1748L 184.896 12.1748L 184.896 14.249ZM 198.387 4.07129L 198.387 6.16309L 198.141 6.16309C 196.992 6.18066 196.066 6.47949 195.363 7.05957C 194.666 7.63965 194.247 8.44531 194.106 9.47656C 194.786 8.78516 195.645 8.43945 196.682 8.43945C 197.795 8.43945 198.68 8.83789 199.336 9.63477C 199.992 10.4316 200.32 11.4805 200.32 12.7812C 200.32 13.6133 200.139 14.3662 199.775 15.04C 199.418 15.7139 198.908 16.2383 198.246 16.6133C 197.59 16.9883 196.846 17.1758 196.014 17.1758C 194.666 17.1758 193.576 16.707 192.744 15.7695C 191.918 14.832 191.505 13.5811 191.505 12.0166L 191.505 11.1025C 191.505 9.71387 191.766 8.48926 192.287 7.42871C 192.814 6.3623 193.567 5.53906 194.546 4.95898C 195.53 4.37305 196.67 4.07715 197.965 4.07129L 198.387 4.07129ZM 195.908 10.4785C 195.498 10.4785 195.126 10.5869 194.792 10.8037C 194.458 11.0146 194.212 11.2959 194.054 11.6475L 194.054 12.4209C 194.054 13.2705 194.221 13.9355 194.555 14.416C 194.889 14.8906 195.357 15.1279 195.961 15.1279C 196.506 15.1279 196.945 14.9141 197.279 14.4863C 197.619 14.0527 197.789 13.4932 197.789 12.8076C 197.789 12.1104 197.619 11.5479 197.279 11.1201C 196.939 10.6924 196.482 10.4785 195.908 10.4785ZM 208.002 17L 205.462 17L 205.462 7.20898L 202.43 8.14941L 202.43 6.08398L 207.729 4.18555L 208.002 4.18555L 208.002 17ZM 212.133 6.66406C 212.133 5.87891 212.388 5.24316 212.897 4.75684C 213.407 4.26465 214.075 4.01855 214.901 4.01855C 215.739 4.01855 216.413 4.26172 216.923 4.74805C 217.433 5.22852 217.688 5.88184 217.688 6.70801L 217.688 7.34082C 217.688 8.13184 217.433 8.76758 216.923 9.24805C 216.413 9.72852 215.745 9.96875 214.919 9.96875C 214.087 9.96875 213.413 9.72852 212.897 9.24805C 212.388 8.76172 212.133 8.1084 212.133 7.28809L 212.133 6.66406ZM 213.82 7.34082C 213.82 7.69238 213.92 7.97656 214.119 8.19336C 214.324 8.4043 214.591 8.50977 214.919 8.50977C 215.247 8.50977 215.508 8.40137 215.701 8.18457C 215.895 7.96777 215.991 7.67773 215.991 7.31445L 215.991 6.66406C 215.991 6.3125 215.895 6.02832 215.701 5.81152C 215.508 5.59473 215.241 5.48633 214.901 5.48633C 214.579 5.48633 214.318 5.59473 214.119 5.81152C 213.92 6.02246 213.82 6.31836 213.82 6.69922L 213.82 7.34082ZM 218.25 13.8623C 218.25 13.0713 218.508 12.4355 219.023 11.9551C 219.539 11.4688 220.207 11.2256 221.027 11.2256C 221.859 11.2256 222.53 11.4658 223.04 11.9463C 223.556 12.4209 223.813 13.0771 223.813 13.915L 223.813 14.5479C 223.813 15.333 223.562 15.9688 223.058 16.4551C 222.554 16.9355 221.883 17.1758 221.045 17.1758C 220.201 17.1758 219.524 16.9326 219.015 16.4463C 218.505 15.96 218.25 15.3154 218.25 14.5127L 218.25 13.8623ZM 219.938 14.5479C 219.938 14.8701 220.043 15.1455 220.254 15.374C 220.465 15.6025 220.729 15.7168 221.045 15.7168C 221.76 15.7168 222.117 15.3213 222.117 14.5303L 222.117 13.8623C 222.117 13.5107 222.018 13.2295 221.818 13.0186C 221.619 12.8018 221.355 12.6934 221.027 12.6934C 220.699 12.6934 220.436 12.8018 220.236 13.0186C 220.037 13.2295 219.938 13.5195 219.938 13.8887L 219.938 14.5479ZM 215.42 16.042L 214.181 15.374L 220.43 5.37207L 221.669 6.04004L 215.42 16.042Z"/>
<path id="path6_fill" d="M 8.74121 14.3633L 4.11816 14.3633L 3.23926 17L 0.435547 17L 5.19922 4.20312L 7.64258 4.20312L 12.4326 17L 9.62891 17L 8.74121 14.3633ZM 4.83008 12.2275L 8.0293 12.2275L 6.4209 7.4375L 4.83008 12.2275ZM 16.5811 13.8975L 18.3477 7.49023L 21.002 7.49023L 17.7939 17L 15.3682 17L 12.1602 7.49023L 14.8145 7.49023L 16.5811 13.8975ZM 26.3809 17.1758C 24.9863 17.1758 23.8496 16.748 22.9707 15.8926C 22.0977 15.0371 21.6611 13.8975 21.6611 12.4736L 21.6611 12.2275C 21.6611 11.2725 21.8457 10.4199 22.2148 9.66992C 22.584 8.91406 23.1055 8.33398 23.7793 7.92969C 24.459 7.51953 25.2324 7.31445 26.0996 7.31445C 27.4004 7.31445 28.4229 7.72461 29.167 8.54492C 29.917 9.36523 30.292 10.5283 30.292 12.0342L 30.292 13.0713L 24.2363 13.0713C 24.3184 13.6924 24.5645 14.1904 24.9746 14.5654C 25.3906 14.9404 25.915 15.1279 26.5479 15.1279C 27.5264 15.1279 28.291 14.7734 28.8418 14.0645L 30.0898 15.4619C 29.709 16.001 29.1934 16.4229 28.543 16.7275C 27.8926 17.0264 27.1719 17.1758 26.3809 17.1758ZM 26.0908 9.37109C 25.5869 9.37109 25.1768 9.54102 24.8604 9.88086C 24.5498 10.2207 24.3506 10.707 24.2627 11.3398L 27.7959 11.3398L 27.7959 11.1377C 27.7842 10.5752 27.6318 10.1416 27.3389 9.83691C 27.0459 9.52637 26.6299 9.37109 26.0908 9.37109ZM 37.0859 9.87207C 36.7402 9.8252 36.4355 9.80176 36.1719 9.80176C 35.2109 9.80176 34.5811 10.127 34.2822 10.7773L 34.2822 17L 31.7422 17L 31.7422 7.49023L 34.1416 7.49023L 34.2119 8.62402C 34.7217 7.75098 35.4277 7.31445 36.3301 7.31445C 36.6113 7.31445 36.875 7.35254 37.1211 7.42871L 37.0859 9.87207ZM 43.5635 17C 43.4463 16.7715 43.3613 16.4873 43.3086 16.1475C 42.6934 16.833 41.8936 17.1758 40.9092 17.1758C 39.9775 17.1758 39.2041 16.9062 38.5889 16.3672C 37.9795 15.8281 37.6748 15.1484 37.6748 14.3281C 37.6748 13.3203 38.0469 12.5469 38.791 12.0078C 39.541 11.4688 40.6221 11.1963 42.0342 11.1904L 43.2031 11.1904L 43.2031 10.6455C 43.2031 10.2061 43.0889 9.85449 42.8604 9.59082C 42.6377 9.32715 42.2832 9.19531 41.7969 9.19531C 41.3691 9.19531 41.0322 9.29785 40.7861 9.50293C 40.5459 9.70801 40.4258 9.98926 40.4258 10.3467L 37.8857 10.3467C 37.8857 9.7959 38.0557 9.28613 38.3955 8.81738C 38.7354 8.34863 39.2158 7.98242 39.8369 7.71875C 40.458 7.44922 41.1553 7.31445 41.9287 7.31445C 43.1006 7.31445 44.0293 7.61035 44.7148 8.20215C 45.4062 8.78809 45.752 9.61426 45.752 10.6807L 45.752 14.8027C 45.7578 15.7051 45.8838 16.3877 46.1299 16.8506L 46.1299 17L 43.5635 17ZM 41.4629 15.2334C 41.8379 15.2334 42.1836 15.1514 42.5 14.9873C 42.8164 14.8174 43.0508 14.5918 43.2031 14.3105L 43.2031 12.6758L 42.2539 12.6758C 40.9824 12.6758 40.3057 13.1152 40.2236 13.9941L 40.2148 14.1436C 40.2148 14.46 40.3262 14.7207 40.5488 14.9258C 40.7715 15.1309 41.0762 15.2334 41.4629 15.2334ZM 47.334 12.1748C 47.334 10.7158 47.6797 9.54102 48.3711 8.65039C 49.0684 7.75977 50.0059 7.31445 51.1836 7.31445C 52.2266 7.31445 53.0381 7.67188 53.6182 8.38672L 53.7236 7.49023L 56.0264 7.49023L 56.0264 16.6836C 56.0264 17.5156 55.8359 18.2393 55.4551 18.8545C 55.0801 19.4697 54.5498 19.9385 53.8643 20.2607C 53.1787 20.583 52.376 20.7441 51.4561 20.7441C 50.7588 20.7441 50.0791 20.6035 49.417 20.3223C 48.7549 20.0469 48.2539 19.6895 47.9141 19.25L 49.0391 17.7031C 49.6719 18.4121 50.4395 18.7666 51.3418 18.7666C 52.0156 18.7666 52.54 18.585 52.915 18.2217C 53.29 17.8643 53.4775 17.3545 53.4775 16.6924L 53.4775 16.1826C 52.8916 16.8447 52.1211 17.1758 51.166 17.1758C 50.0234 17.1758 49.0977 16.7305 48.3887 15.8398C 47.6855 14.9434 47.334 13.7568 47.334 12.2803L 47.334 12.1748ZM 49.874 12.3594C 49.874 13.2207 50.0469 13.8975 50.3926 14.3896C 50.7383 14.876 51.2129 15.1191 51.8164 15.1191C 52.5898 15.1191 53.1436 14.8291 53.4775 14.249L 53.4775 10.25C 53.1377 9.66992 52.5898 9.37988 51.834 9.37988C 51.2246 9.37988 50.7441 9.62891 50.3926 10.127C 50.0469 10.625 49.874 11.3691 49.874 12.3594ZM 62.3633 17.1758C 60.9688 17.1758 59.832 16.748 58.9531 15.8926C 58.0801 15.0371 57.6436 13.8975 57.6436 12.4736L 57.6436 12.2275C 57.6436 11.2725 57.8281 10.4199 58.1973 9.66992C 58.5664 8.91406 59.0879 8.33398 59.7617 7.92969C 60.4414 7.51953 61.2148 7.31445 62.082 7.31445C 63.3828 7.31445 64.4053 7.72461 65.1494 8.54492C 65.8994 9.36523 66.2744 10.5283 66.2744 12.0342L 66.2744 13.0713L 60.2188 13.0713C 60.3008 13.6924 60.5469 14.1904 60.957 14.5654C 61.373 14.9404 61.8975 15.1279 62.5303 15.1279C 63.5088 15.1279 64.2734 14.7734 64.8242 14.0645L 66.0723 15.4619C 65.6914 16.001 65.1758 16.4229 64.5254 16.7275C 63.875 17.0264 63.1543 17.1758 62.3633 17.1758ZM 62.0732 9.37109C 61.5693 9.37109 61.1592 9.54102 60.8428 9.88086C 60.5322 10.2207 60.333 10.707 60.2451 11.3398L 63.7783 11.3398L 63.7783 11.1377C 63.7666 10.5752 63.6143 10.1416 63.3213 9.83691C 63.0283 9.52637 62.6123 9.37109 62.0732 9.37109ZM 77.3574 14.3721C 77.3574 14.0615 77.2021 13.8184 76.8916 13.6426C 76.5869 13.4609 76.0947 13.2998 75.415 13.1592C 73.1533 12.6846 72.0225 11.7236 72.0225 10.2764C 72.0225 9.43262 72.3711 8.72949 73.0684 8.16699C 73.7715 7.59863 74.6885 7.31445 75.8193 7.31445C 77.0264 7.31445 77.9902 7.59863 78.7109 8.16699C 79.4375 8.73535 79.8008 9.47363 79.8008 10.3818L 77.2607 10.3818C 77.2607 10.0186 77.1436 9.71973 76.9092 9.48535C 76.6748 9.24512 76.3086 9.125 75.8105 9.125C 75.3828 9.125 75.0518 9.22168 74.8174 9.41504C 74.583 9.6084 74.4658 9.85449 74.4658 10.1533C 74.4658 10.4346 74.5977 10.6631 74.8613 10.8389C 75.1309 11.0088 75.582 11.1582 76.2148 11.2871C 76.8477 11.4102 77.3809 11.5508 77.8145 11.709C 79.1562 12.2012 79.8271 13.0537 79.8271 14.2666C 79.8271 15.1338 79.4551 15.8369 78.7109 16.376C 77.9668 16.9092 77.0059 17.1758 75.8281 17.1758C 75.0312 17.1758 74.3223 17.0352 73.7012 16.7539C 73.0859 16.4668 72.6025 16.0771 72.251 15.585C 71.8994 15.0869 71.7236 14.5508 71.7236 13.9766L 74.1318 13.9766C 74.1553 14.4277 74.3223 14.7734 74.6328 15.0137C 74.9434 15.2539 75.3594 15.374 75.8809 15.374C 76.3672 15.374 76.7334 15.2832 76.9795 15.1016C 77.2314 14.9141 77.3574 14.6709 77.3574 14.3721ZM 86.9814 17C 86.8643 16.7715 86.7793 16.4873 86.7266 16.1475C 86.1113 16.833 85.3115 17.1758 84.3271 17.1758C 83.3955 17.1758 82.6221 16.9062 82.0068 16.3672C 81.3975 15.8281 81.0928 15.1484 81.0928 14.3281C 81.0928 13.3203 81.4648 12.5469 82.209 12.0078C 82.959 11.4688 84.04 11.1963 85.4521 11.1904L 86.6211 11.1904L 86.6211 10.6455C 86.6211 10.2061 86.5068 9.85449 86.2783 9.59082C 86.0557 9.32715 85.7012 9.19531 85.2148 9.19531C 84.7871 9.19531 84.4502 9.29785 84.2041 9.50293C 83.9639 9.70801 83.8438 9.98926 83.8438 10.3467L 81.3037 10.3467C 81.3037 9.7959 81.4736 9.28613 81.8135 8.81738C 82.1533 8.34863 82.6338 7.98242 83.2549 7.71875C 83.876 7.44922 84.5732 7.31445 85.3467 7.31445C 86.5186 7.31445 87.4473 7.61035 88.1328 8.20215C 88.8242 8.78809 89.1699 9.61426 89.1699 10.6807L 89.1699 14.8027C 89.1758 15.7051 89.3018 16.3877 89.5479 16.8506L 89.5479 17L 86.9814 17ZM 84.8809 15.2334C 85.2559 15.2334 85.6016 15.1514 85.918 14.9873C 86.2344 14.8174 86.4688 14.5918 86.6211 14.3105L 86.6211 12.6758L 85.6719 12.6758C 84.4004 12.6758 83.7236 13.1152 83.6416 13.9941L 83.6328 14.1436C 83.6328 14.46 83.7441 14.7207 83.9668 14.9258C 84.1895 15.1309 84.4941 15.2334 84.8809 15.2334ZM 93.8018 17L 91.2529 17L 91.2529 3.5L 93.8018 3.5L 93.8018 17ZM 101.413 17C 101.296 16.7715 101.211 16.4873 101.158 16.1475C 100.543 16.833 99.7432 17.1758 98.7588 17.1758C 97.8271 17.1758 97.0537 16.9062 96.4385 16.3672C 95.8291 15.8281 95.5244 15.1484 95.5244 14.3281C 95.5244 13.3203 95.8965 12.5469 96.6406 12.0078C 97.3906 11.4688 98.4717 11.1963 99.8838 11.1904L 101.053 11.1904L 101.053 10.6455C 101.053 10.2061 100.938 9.85449 100.71 9.59082C 100.487 9.32715 100.133 9.19531 99.6465 9.19531C 99.2188 9.19531 98.8818 9.29785 98.6357 9.50293C 98.3955 9.70801 98.2754 9.98926 98.2754 10.3467L 95.7354 10.3467C 95.7354 9.7959 95.9053 9.28613 96.2451 8.81738C 96.585 8.34863 97.0654 7.98242 97.6865 7.71875C 98.3076 7.44922 99.0049 7.31445 99.7783 7.31445C 100.95 7.31445 101.879 7.61035 102.564 8.20215C 103.256 8.78809 103.602 9.61426 103.602 10.6807L 103.602 14.8027C 103.607 15.7051 103.733 16.3877 103.979 16.8506L 103.979 17L 101.413 17ZM 99.3125 15.2334C 99.6875 15.2334 100.033 15.1514 100.35 14.9873C 100.666 14.8174 100.9 14.5918 101.053 14.3105L 101.053 12.6758L 100.104 12.6758C 98.832 12.6758 98.1553 13.1152 98.0732 13.9941L 98.0645 14.1436C 98.0645 14.46 98.1758 14.7207 98.3984 14.9258C 98.6211 15.1309 98.9258 15.2334 99.3125 15.2334ZM 110.896 9.87207C 110.551 9.8252 110.246 9.80176 109.982 9.80176C 109.021 9.80176 108.392 10.127 108.093 10.7773L 108.093 17L 105.553 17L 105.553 7.49023L 107.952 7.49023L 108.022 8.62402C 108.532 7.75098 109.238 7.31445 110.141 7.31445C 110.422 7.31445 110.686 7.35254 110.932 7.42871L 110.896 9.87207ZM 115.836 13.4053L 117.594 7.49023L 120.318 7.49023L 116.495 18.4766L 116.284 18.9775C 115.716 20.2197 114.778 20.8408 113.472 20.8408C 113.103 20.8408 112.728 20.7852 112.347 20.6738L 112.347 18.749L 112.733 18.7578C 113.214 18.7578 113.571 18.6846 113.806 18.5381C 114.046 18.3916 114.233 18.1484 114.368 17.8086L 114.667 17.0264L 111.336 7.49023L 114.069 7.49023L 115.836 13.4053ZM 133.88 10.4434L 126.022 10.4434L 126.022 8.36914L 133.88 8.36914L 133.88 10.4434ZM 133.88 14.249L 126.022 14.249L 126.022 12.1748L 133.88 12.1748L 133.88 14.249ZM 146.554 13.6338C 146.554 13.1533 146.419 12.7725 146.149 12.4912C 145.886 12.2041 145.435 11.9404 144.796 11.7002C 144.157 11.46 143.606 11.2227 143.144 10.9883C 142.681 10.748 142.282 10.4756 141.948 10.1709C 141.62 9.86035 141.362 9.49707 141.175 9.08105C 140.993 8.66504 140.902 8.16992 140.902 7.5957C 140.902 6.60547 141.219 5.79395 141.852 5.16113C 142.484 4.52832 143.325 4.15918 144.374 4.05371L 144.374 2.17285L 145.78 2.17285L 145.78 4.08008C 146.817 4.22656 147.629 4.66016 148.215 5.38086C 148.801 6.0957 149.094 7.02441 149.094 8.16699L 146.554 8.16699C 146.554 7.46387 146.407 6.93945 146.114 6.59375C 145.827 6.24219 145.44 6.06641 144.954 6.06641C 144.474 6.06641 144.102 6.2041 143.838 6.47949C 143.574 6.74902 143.442 7.12402 143.442 7.60449C 143.442 8.0498 143.571 8.40723 143.829 8.67676C 144.087 8.94629 144.564 9.22168 145.262 9.50293C 145.965 9.78418 146.542 10.0508 146.993 10.3027C 147.444 10.5488 147.825 10.8301 148.136 11.1465C 148.446 11.457 148.684 11.8145 148.848 12.2188C 149.012 12.6172 149.094 13.083 149.094 13.6162C 149.094 14.6123 148.783 15.4209 148.162 16.042C 147.541 16.6631 146.686 17.0293 145.596 17.1406L 145.596 18.8896L 144.198 18.8896L 144.198 17.1494C 142.997 17.0205 142.065 16.5957 141.403 15.875C 140.747 15.1484 140.419 14.1846 140.419 12.9834L 142.959 12.9834C 142.959 13.6807 143.123 14.2168 143.451 14.5918C 143.785 14.9609 144.263 15.1455 144.884 15.1455C 145.399 15.1455 145.807 15.0107 146.105 14.7412C 146.404 14.4658 146.554 14.0967 146.554 13.6338ZM 153.4 9.47656L 154.754 9.47656C 155.398 9.47656 155.876 9.31543 156.187 8.99316C 156.497 8.6709 156.652 8.24316 156.652 7.70996C 156.652 7.19434 156.497 6.79297 156.187 6.50586C 155.882 6.21875 155.46 6.0752 154.921 6.0752C 154.435 6.0752 154.027 6.20996 153.699 6.47949C 153.371 6.74316 153.207 7.08887 153.207 7.5166L 150.667 7.5166C 150.667 6.84863 150.846 6.25098 151.203 5.72363C 151.566 5.19043 152.07 4.77441 152.715 4.47559C 153.365 4.17676 154.08 4.02734 154.859 4.02734C 156.213 4.02734 157.273 4.35254 158.041 5.00293C 158.809 5.64746 159.192 6.53809 159.192 7.6748C 159.192 8.26074 159.014 8.7998 158.656 9.29199C 158.299 9.78418 157.83 10.1621 157.25 10.4258C 157.971 10.6836 158.507 11.0703 158.858 11.5859C 159.216 12.1016 159.395 12.7109 159.395 13.4141C 159.395 14.5508 158.979 15.4619 158.146 16.1475C 157.32 16.833 156.225 17.1758 154.859 17.1758C 153.582 17.1758 152.536 16.8389 151.722 16.165C 150.913 15.4912 150.509 14.6006 150.509 13.4932L 153.049 13.4932C 153.049 13.9736 153.228 14.3662 153.585 14.6709C 153.948 14.9756 154.394 15.1279 154.921 15.1279C 155.524 15.1279 155.996 14.9697 156.336 14.6533C 156.682 14.3311 156.854 13.9062 156.854 13.3789C 156.854 12.1016 156.151 11.4629 154.745 11.4629L 153.4 11.4629L 153.4 9.47656ZM 161.53 10.707L 162.269 4.20312L 169.44 4.20312L 169.44 6.32129L 164.352 6.32129L 164.035 9.07227C 164.639 8.75 165.28 8.58887 165.96 8.58887C 167.179 8.58887 168.134 8.9668 168.825 9.72266C 169.517 10.4785 169.862 11.5361 169.862 12.8955C 169.862 13.7217 169.687 14.4629 169.335 15.1191C 168.989 15.7695 168.491 16.2764 167.841 16.6396C 167.19 16.9971 166.423 17.1758 165.538 17.1758C 164.765 17.1758 164.047 17.0205 163.385 16.71C 162.723 16.3936 162.198 15.9512 161.812 15.3828C 161.431 14.8145 161.229 14.167 161.205 13.4404L 163.719 13.4404C 163.771 13.9736 163.956 14.3896 164.272 14.6885C 164.595 14.9814 165.014 15.1279 165.529 15.1279C 166.104 15.1279 166.546 14.9229 166.856 14.5127C 167.167 14.0967 167.322 13.5107 167.322 12.7549C 167.322 12.0283 167.144 11.4717 166.786 11.085C 166.429 10.6982 165.922 10.5049 165.266 10.5049C 164.662 10.5049 164.173 10.6631 163.798 10.9795L 163.552 11.208L 161.53 10.707ZM 180.102 11.709C 180.102 13.4785 179.735 14.832 179.003 15.7695C 178.271 16.707 177.198 17.1758 175.786 17.1758C 174.392 17.1758 173.325 16.7158 172.587 15.7959C 171.849 14.876 171.471 13.5576 171.453 11.8408L 171.453 9.48535C 171.453 7.69824 171.822 6.3418 172.561 5.41602C 173.305 4.49023 174.374 4.02734 175.769 4.02734C 177.163 4.02734 178.229 4.4873 178.968 5.40723C 179.706 6.32129 180.084 7.63672 180.102 9.35352L 180.102 11.709ZM 177.562 9.125C 177.562 8.06445 177.415 7.29395 177.122 6.81348C 176.835 6.32715 176.384 6.08398 175.769 6.08398C 175.171 6.08398 174.729 6.31543 174.441 6.77832C 174.16 7.23535 174.011 7.95313 173.993 8.93164L 173.993 12.043C 173.993 13.0859 174.134 13.8623 174.415 14.3721C 174.702 14.876 175.159 15.1279 175.786 15.1279C 176.407 15.1279 176.855 14.8848 177.131 14.3984C 177.406 13.9121 177.55 13.168 177.562 12.166L 177.562 9.125ZM 190.438 11.709C 190.438 13.4785 190.071 14.832 189.339 15.7695C 188.606 16.707 187.534 17.1758 186.122 17.1758C 184.728 17.1758 183.661 16.7158 182.923 15.7959C 182.185 14.876 181.807 13.5576 181.789 11.8408L 181.789 9.48535C 181.789 7.69824 182.158 6.3418 182.896 5.41602C 183.641 4.49023 184.71 4.02734 186.104 4.02734C 187.499 4.02734 188.565 4.4873 189.304 5.40723C 190.042 6.32129 190.42 7.63672 190.438 9.35352L 190.438 11.709ZM 187.897 9.125C 187.897 8.06445 187.751 7.29395 187.458 6.81348C 187.171 6.32715 186.72 6.08398 186.104 6.08398C 185.507 6.08398 185.064 6.31543 184.777 6.77832C 184.496 7.23535 184.347 7.95313 184.329 8.93164L 184.329 12.043C 184.329 13.0859 184.47 13.8623 184.751 14.3721C 185.038 14.876 185.495 15.1279 186.122 15.1279C 186.743 15.1279 187.191 14.8848 187.467 14.3984C 187.742 13.9121 187.886 13.168 187.897 12.166L 187.897 9.125ZM 200.773 11.709C 200.773 13.4785 200.407 14.832 199.675 15.7695C 198.942 16.707 197.87 17.1758 196.458 17.1758C 195.063 17.1758 193.997 16.7158 193.259 15.7959C 192.521 14.876 192.143 13.5576 192.125 11.8408L 192.125 9.48535C 192.125 7.69824 192.494 6.3418 193.232 5.41602C 193.977 4.49023 195.046 4.02734 196.44 4.02734C 197.835 4.02734 198.901 4.4873 199.64 5.40723C 200.378 6.32129 200.756 7.63672 200.773 9.35352L 200.773 11.709ZM 198.233 9.125C 198.233 8.06445 198.087 7.29395 197.794 6.81348C 197.507 6.32715 197.056 6.08398 196.44 6.08398C 195.843 6.08398 195.4 6.31543 195.113 6.77832C 194.832 7.23535 194.683 7.95313 194.665 8.93164L 194.665 12.043C 194.665 13.0859 194.806 13.8623 195.087 14.3721C 195.374 14.876 195.831 15.1279 196.458 15.1279C 197.079 15.1279 197.527 14.8848 197.803 14.3984C 198.078 13.9121 198.222 13.168 198.233 12.166L 198.233 9.125Z"/>
<path id="path7_fill" d="M 24.0332 15.2695C 24.0332 14.7161 23.8379 14.293 23.4473 14C 23.0566 13.7005 22.3535 13.388 21.3379 13.0625C 20.3223 12.7305 19.5182 12.4049 18.9258 12.0859C 17.3112 11.2135 16.5039 10.0384 16.5039 8.56055C 16.5039 7.79232 16.7188 7.10872 17.1484 6.50977C 17.5846 5.9043 18.2064 5.43229 19.0137 5.09375C 19.8275 4.75521 20.7389 4.58594 21.748 4.58594C 22.7637 4.58594 23.6686 4.77148 24.4629 5.14258C 25.2572 5.50716 25.8724 6.02474 26.3086 6.69531C 26.7513 7.36589 26.9727 8.1276 26.9727 8.98047L 24.043 8.98047C 24.043 8.32943 23.8379 7.82487 23.4277 7.4668C 23.0176 7.10221 22.4414 6.91992 21.6992 6.91992C 20.9831 6.91992 20.4264 7.07292 20.0293 7.37891C 19.6322 7.67839 19.4336 8.07552 19.4336 8.57031C 19.4336 9.03255 19.6647 9.41992 20.127 9.73242C 20.5957 10.0449 21.2826 10.3379 22.1875 10.6113C 23.8542 11.1126 25.0684 11.7344 25.8301 12.4766C 26.5918 13.2188 26.9727 14.1432 26.9727 15.25C 26.9727 16.4805 26.5072 17.4473 25.5762 18.1504C 24.6452 18.847 23.3919 19.1953 21.8164 19.1953C 20.7227 19.1953 19.7266 18.9967 18.8281 18.5996C 17.9297 18.196 17.2428 17.6458 16.7676 16.9492C 16.2988 16.2526 16.0645 15.4453 16.0645 14.5273L 19.0039 14.5273C 19.0039 16.0964 19.9414 16.8809 21.8164 16.8809C 22.513 16.8809 23.0566 16.7409 23.4473 16.4609C 23.8379 16.1745 24.0332 15.7773 24.0332 15.2695ZM 34.9023 19C 34.7721 18.7461 34.6777 18.4303 34.6191 18.0527C 33.9355 18.8145 33.0469 19.1953 31.9531 19.1953C 30.918 19.1953 30.0586 18.8958 29.375 18.2969C 28.6979 17.6979 28.3594 16.9427 28.3594 16.0312C 28.3594 14.9115 28.7728 14.0521 29.5996 13.4531C 30.4329 12.8542 31.6341 12.5514 33.2031 12.5449L 34.502 12.5449L 34.502 11.9395C 34.502 11.4512 34.375 11.0605 34.1211 10.7676C 33.8737 10.4746 33.4798 10.3281 32.9395 10.3281C 32.4642 10.3281 32.0898 10.4421 31.8164 10.6699C 31.5495 10.8978 31.416 11.2103 31.416 11.6074L 28.5938 11.6074C 28.5938 10.9954 28.7826 10.429 29.1602 9.9082C 29.5378 9.38737 30.0716 8.98047 30.7617 8.6875C 31.4518 8.38802 32.2266 8.23828 33.0859 8.23828C 34.388 8.23828 35.4199 8.56706 36.1816 9.22461C 36.9499 9.87565 37.334 10.7936 37.334 11.9785L 37.334 16.5586C 37.3405 17.5612 37.4805 18.3197 37.7539 18.834L 37.7539 19L 34.9023 19ZM 32.5684 17.0371C 32.985 17.0371 33.3691 16.946 33.7207 16.7637C 34.0723 16.5749 34.3327 16.3242 34.502 16.0117L 34.502 14.1953L 33.4473 14.1953C 32.0345 14.1953 31.2826 14.6836 31.1914 15.6602L 31.1816 15.8262C 31.1816 16.1777 31.3053 16.4674 31.5527 16.6953C 31.8001 16.9232 32.1387 17.0371 32.5684 17.0371ZM 42.1484 8.43359L 42.2363 9.61523C 42.985 8.69727 43.9974 8.23828 45.2734 8.23828C 46.6341 8.23828 47.5684 8.77539 48.0762 9.84961C 48.8184 8.77539 49.8763 8.23828 51.25 8.23828C 52.3958 8.23828 53.2487 8.57357 53.8086 9.24414C 54.3685 9.9082 54.6484 10.9108 54.6484 12.252L 54.6484 19L 51.8164 19L 51.8164 12.2617C 51.8164 11.6628 51.6992 11.2266 51.4648 10.9531C 51.2305 10.6732 50.8171 10.5332 50.2246 10.5332C 49.3783 10.5332 48.7923 10.9368 48.4668 11.7441L 48.4766 19L 45.6543 19L 45.6543 12.2715C 45.6543 11.6595 45.5339 11.2168 45.293 10.9434C 45.0521 10.6699 44.6419 10.5332 44.0625 10.5332C 43.2617 10.5332 42.6823 10.8652 42.3242 11.5293L 42.3242 19L 39.502 19L 39.502 8.43359L 42.1484 8.43359ZM 66.3379 13.8145C 66.3379 15.4421 65.9668 16.7474 65.2246 17.7305C 64.4889 18.707 63.4928 19.1953 62.2363 19.1953C 61.1686 19.1953 60.306 18.8242 59.6484 18.082L 59.6484 23.0625L 56.8262 23.0625L 56.8262 8.43359L 59.4434 8.43359L 59.541 9.46875C 60.2246 8.64844 61.1165 8.23828 62.2168 8.23828C 63.5189 8.23828 64.5312 8.72005 65.2539 9.68359C 65.9766 10.6471 66.3379 11.9753 66.3379 13.668L 66.3379 13.8145ZM 63.5156 13.6094C 63.5156 12.6263 63.3398 11.8678 62.9883 11.334C 62.6432 10.8001 62.1387 10.5332 61.4746 10.5332C 60.5892 10.5332 59.9805 10.8717 59.6484 11.5488L 59.6484 15.875C 59.9935 16.5716 60.6087 16.9199 61.4941 16.9199C 62.8418 16.9199 63.5156 15.8164 63.5156 13.6094ZM 71.0742 19L 68.2422 19L 68.2422 4L 71.0742 4L 71.0742 19ZM 78.2715 19.1953C 76.722 19.1953 75.459 18.7201 74.4824 17.7695C 73.5124 16.819 73.0273 15.5527 73.0273 13.9707L 73.0273 13.6973C 73.0273 12.6361 73.2324 11.6888 73.6426 10.8555C 74.0527 10.0156 74.6322 9.37109 75.3809 8.92188C 76.1361 8.46615 76.9954 8.23828 77.959 8.23828C 79.4043 8.23828 80.5404 8.69401 81.3672 9.60547C 82.2005 10.5169 82.6172 11.8092 82.6172 13.4824L 82.6172 14.6348L 75.8887 14.6348C 75.9798 15.3249 76.2533 15.8783 76.709 16.2949C 77.1712 16.7116 77.7539 16.9199 78.457 16.9199C 79.5443 16.9199 80.3939 16.526 81.0059 15.7383L 82.3926 17.291C 81.9694 17.89 81.3965 18.3587 80.6738 18.6973C 79.9512 19.0293 79.1504 19.1953 78.2715 19.1953ZM 77.9492 10.5234C 77.3893 10.5234 76.9336 10.7122 76.582 11.0898C 76.237 11.4674 76.0156 12.0078 75.918 12.7109L 79.8438 12.7109L 79.8438 12.4863C 79.8307 11.8613 79.6615 11.3796 79.3359 11.041C 79.0104 10.696 78.5482 10.5234 77.9492 10.5234ZM 98.8379 19L 89.0918 19L 89.0918 17.0664L 93.6914 12.1641C 94.3229 11.474 94.7884 10.8717 95.0879 10.3574C 95.3939 9.8431 95.5469 9.35482 95.5469 8.89258C 95.5469 8.26107 95.3874 7.76628 95.0684 7.4082C 94.7493 7.04362 94.2936 6.86133 93.7012 6.86133C 93.0632 6.86133 92.5586 7.08268 92.1875 7.52539C 91.8229 7.96159 91.6406 8.53776 91.6406 9.25391L 88.8086 9.25391C 88.8086 8.38802 89.0137 7.59701 89.4238 6.88086C 89.8405 6.16471 90.4264 5.60482 91.1816 5.20117C 91.9368 4.79102 92.793 4.58594 93.75 4.58594C 95.2148 4.58594 96.3509 4.9375 97.1582 5.64062C 97.972 6.34375 98.3789 7.33659 98.3789 8.61914C 98.3789 9.32227 98.1966 10.0384 97.832 10.7676C 97.4674 11.4967 96.8424 12.3464 95.957 13.3164L 92.7246 16.7246L 98.8379 16.7246L 98.8379 19Z"/>
<path id="path8_fill" d="M 15.3906 20.5078L 99.5996 20.5078L 99.5996 21.4844L 15.3906 21.4844L 15.3906 20.5078Z"/>
</defs>
</svg>
