<svg width="537" height="236" viewBox="0 0 537 236" fill="none" xmlns="http://www.w3.org/2000/svg">
<circle cx="22" cy="22" r="22" transform="translate(0 47)" fill="#C4C4C4"/>
<circle cx="22" cy="22" r="22" transform="translate(144 47)" fill="#C4C4C4"/>
<circle cx="22" cy="22" r="22" transform="translate(75 141)" fill="#C4C4C4"/>
<line y1="-0.5" x2="100" y2="-0.5" transform="translate(44 69)" stroke="black"/>
<line y1="-0.5" x2="79.3095" y2="-0.5" transform="translate(166 91) rotate(131.934)" stroke="black"/>
<line y1="-0.5" x2="79.3095" y2="-0.5" transform="translate(86 146) rotate(-131.934)" stroke="black"/>
<circle cx="22" cy="22" r="22" transform="translate(342 47)" fill="#C4C4C4"/>
<circle cx="22" cy="22" r="22" transform="translate(486 47)" fill="#C4C4C4"/>
<circle cx="22" cy="22" r="22" transform="translate(417 141)" fill="#C4C4C4"/>
<path d="M10.6152 4.20312V12.9043C10.6094 14.1113 10.2285 15.0986 9.47266 15.8662C8.72266 16.6338 7.70312 17.0645 6.41406 17.1582L5.96582 17.1758C4.56543 17.1758 3.44922 16.7979 2.61719 16.042C1.78516 15.2861 1.36328 14.2461 1.35156 12.9219V4.20312H3.02148V12.8691C3.02148 13.7949 3.27637 14.5156 3.78613 15.0312C4.2959 15.541 5.02246 15.7959 5.96582 15.7959C6.9209 15.7959 7.65039 15.541 8.1543 15.0312C8.66406 14.5215 8.91895 13.8037 8.91895 12.8779V4.20312H10.6152ZM14.5615 7.49023L14.6143 8.68555C15.3408 7.77148 16.29 7.31445 17.4619 7.31445C19.4717 7.31445 20.4854 8.44824 20.5029 10.7158V17H18.877V10.707C18.8711 10.0215 18.7129 9.51465 18.4023 9.18652C18.0977 8.8584 17.6201 8.69434 16.9697 8.69434C16.4424 8.69434 15.9795 8.83496 15.5811 9.11621C15.1826 9.39746 14.8721 9.7666 14.6494 10.2236V17H13.0234V7.49023H14.5615ZM22.5596 12.166C22.5596 10.707 22.9053 9.53516 23.5967 8.65039C24.2881 7.75977 25.1934 7.31445 26.3125 7.31445C27.4258 7.31445 28.3076 7.69531 28.958 8.45703V3.5H30.584V17H29.0898L29.0107 15.9805C28.3604 16.7773 27.4551 17.1758 26.2949 17.1758C25.1934 17.1758 24.2939 16.7246 23.5967 15.8223C22.9053 14.9199 22.5596 13.7422 22.5596 12.2891V12.166ZM24.1855 12.3506C24.1855 13.4287 24.4082 14.2725 24.8535 14.8818C25.2988 15.4912 25.9141 15.7959 26.6992 15.7959C27.7305 15.7959 28.4834 15.333 28.958 14.4072V10.0391C28.4717 9.14258 27.7246 8.69434 26.7168 8.69434C25.9199 8.69434 25.2988 9.00195 24.8535 9.61719C24.4082 10.2324 24.1855 11.1436 24.1855 12.3506ZM34.8818 17H33.2559V7.49023H34.8818V17ZM33.124 4.96777C33.124 4.7041 33.2031 4.48145 33.3613 4.2998C33.5254 4.11816 33.7656 4.02734 34.082 4.02734C34.3984 4.02734 34.6387 4.11816 34.8027 4.2998C34.9668 4.48145 35.0488 4.7041 35.0488 4.96777C35.0488 5.23145 34.9668 5.45117 34.8027 5.62695C34.6387 5.80273 34.3984 5.89062 34.082 5.89062C33.7656 5.89062 33.5254 5.80273 33.3613 5.62695C33.2031 5.45117 33.124 5.23145 33.124 4.96777ZM42.0889 8.94922C41.8428 8.9082 41.5762 8.8877 41.2891 8.8877C40.2227 8.8877 39.499 9.3418 39.1182 10.25V17H37.4922V7.49023H39.0742L39.1006 8.58887C39.6338 7.73926 40.3896 7.31445 41.3682 7.31445C41.6846 7.31445 41.9248 7.35547 42.0889 7.4375V8.94922ZM47.3623 17.1758C46.0732 17.1758 45.0244 16.7539 44.2158 15.9102C43.4072 15.0605 43.0029 13.9268 43.0029 12.5088V12.21C43.0029 11.2666 43.1816 10.4258 43.5391 9.6875C43.9023 8.94336 44.4062 8.36328 45.0508 7.94727C45.7012 7.52539 46.4043 7.31445 47.1602 7.31445C48.3965 7.31445 49.3574 7.72168 50.043 8.53613C50.7285 9.35059 51.0713 10.5166 51.0713 12.0342V12.7109H44.6289C44.6523 13.6484 44.9248 14.4072 45.4463 14.9873C45.9736 15.5615 46.6416 15.8486 47.4502 15.8486C48.0244 15.8486 48.5107 15.7314 48.9092 15.4971C49.3076 15.2627 49.6562 14.9521 49.9551 14.5654L50.9482 15.3389C50.1514 16.5635 48.9561 17.1758 47.3623 17.1758ZM47.1602 8.65039C46.5039 8.65039 45.9531 8.89062 45.5078 9.37109C45.0625 9.8457 44.7871 10.5137 44.6816 11.375H49.4453V11.252C49.3984 10.4258 49.1758 9.78711 48.7773 9.33594C48.3789 8.87891 47.8398 8.65039 47.1602 8.65039ZM56.7754 15.8486C57.3555 15.8486 57.8623 15.6729 58.2959 15.3213C58.7295 14.9697 58.9697 14.5303 59.0166 14.0029H60.5547C60.5254 14.5479 60.3379 15.0664 59.9922 15.5586C59.6465 16.0508 59.1836 16.4434 58.6035 16.7363C58.0293 17.0293 57.4199 17.1758 56.7754 17.1758C55.4805 17.1758 54.4492 16.7451 53.6816 15.8838C52.9199 15.0166 52.5391 13.833 52.5391 12.333V12.0605C52.5391 11.1348 52.709 10.3115 53.0488 9.59082C53.3887 8.87012 53.875 8.31055 54.5078 7.91211C55.1465 7.51367 55.8994 7.31445 56.7666 7.31445C57.833 7.31445 58.7178 7.63379 59.4209 8.27246C60.1299 8.91113 60.5078 9.74023 60.5547 10.7598H59.0166C58.9697 10.1445 58.7354 9.64062 58.3135 9.24805C57.8975 8.84961 57.3818 8.65039 56.7666 8.65039C55.9404 8.65039 55.2988 8.94922 54.8418 9.54688C54.3906 10.1387 54.165 10.9971 54.165 12.1221V12.4297C54.165 13.5254 54.3906 14.3691 54.8418 14.9609C55.293 15.5527 55.9375 15.8486 56.7754 15.8486ZM64.5889 5.1875V7.49023H66.3643V8.74707H64.5889V14.6445C64.5889 15.0254 64.668 15.3125 64.8262 15.5059C64.9844 15.6934 65.2539 15.7871 65.6348 15.7871C65.8223 15.7871 66.0801 15.752 66.4082 15.6816V17C65.9805 17.1172 65.5645 17.1758 65.1602 17.1758C64.4336 17.1758 63.8857 16.9561 63.5166 16.5166C63.1475 16.0771 62.9629 15.4531 62.9629 14.6445V8.74707H61.2314V7.49023H62.9629V5.1875H64.5889ZM72.2178 17.1758C70.9287 17.1758 69.8799 16.7539 69.0713 15.9102C68.2627 15.0605 67.8584 13.9268 67.8584 12.5088V12.21C67.8584 11.2666 68.0371 10.4258 68.3945 9.6875C68.7578 8.94336 69.2617 8.36328 69.9062 7.94727C70.5566 7.52539 71.2598 7.31445 72.0156 7.31445C73.252 7.31445 74.2129 7.72168 74.8984 8.53613C75.584 9.35059 75.9268 10.5166 75.9268 12.0342V12.7109H69.4844C69.5078 13.6484 69.7803 14.4072 70.3018 14.9873C70.8291 15.5615 71.4971 15.8486 72.3057 15.8486C72.8799 15.8486 73.3662 15.7314 73.7646 15.4971C74.1631 15.2627 74.5117 14.9521 74.8105 14.5654L75.8037 15.3389C75.0068 16.5635 73.8115 17.1758 72.2178 17.1758ZM72.0156 8.65039C71.3594 8.65039 70.8086 8.89062 70.3633 9.37109C69.918 9.8457 69.6426 10.5137 69.5371 11.375H74.3008V11.252C74.2539 10.4258 74.0312 9.78711 73.6328 9.33594C73.2344 8.87891 72.6953 8.65039 72.0156 8.65039ZM77.4209 12.166C77.4209 10.707 77.7666 9.53516 78.458 8.65039C79.1494 7.75977 80.0547 7.31445 81.1738 7.31445C82.2871 7.31445 83.1689 7.69531 83.8193 8.45703V3.5H85.4453V17H83.9512L83.8721 15.9805C83.2217 16.7773 82.3164 17.1758 81.1562 17.1758C80.0547 17.1758 79.1553 16.7246 78.458 15.8223C77.7666 14.9199 77.4209 13.7422 77.4209 12.2891V12.166ZM79.0469 12.3506C79.0469 13.4287 79.2695 14.2725 79.7148 14.8818C80.1602 15.4912 80.7754 15.7959 81.5605 15.7959C82.5918 15.7959 83.3447 15.333 83.8193 14.4072V10.0391C83.333 9.14258 82.5859 8.69434 81.5781 8.69434C80.7812 8.69434 80.1602 9.00195 79.7148 9.61719C79.2695 10.2324 79.0469 11.1436 79.0469 12.3506ZM92.0547 12.166C92.0547 10.6836 92.3975 9.50586 93.083 8.63281C93.7686 7.75391 94.6768 7.31445 95.8076 7.31445C96.9678 7.31445 97.873 7.72461 98.5234 8.54492L98.6025 7.49023H100.088V16.7715C100.088 18.002 99.7217 18.9717 98.9893 19.6807C98.2627 20.3896 97.2842 20.7441 96.0537 20.7441C95.3682 20.7441 94.6973 20.5977 94.041 20.3047C93.3848 20.0117 92.8838 19.6104 92.5381 19.1006L93.3818 18.125C94.0791 18.9863 94.9316 19.417 95.9395 19.417C96.7305 19.417 97.3457 19.1943 97.7852 18.749C98.2305 18.3037 98.4531 17.6768 98.4531 16.8682V16.0508C97.8027 16.8008 96.915 17.1758 95.79 17.1758C94.6768 17.1758 93.7744 16.7275 93.083 15.8311C92.3975 14.9346 92.0547 13.7129 92.0547 12.166ZM93.6895 12.3506C93.6895 13.4229 93.9092 14.2666 94.3486 14.8818C94.7881 15.4912 95.4033 15.7959 96.1943 15.7959C97.2197 15.7959 97.9727 15.3301 98.4531 14.3984V10.0566C97.9551 9.14844 97.208 8.69434 96.2119 8.69434C95.4209 8.69434 94.8027 9.00195 94.3574 9.61719C93.9121 10.2324 93.6895 11.1436 93.6895 12.3506ZM107.146 8.94922C106.899 8.9082 106.633 8.8877 106.346 8.8877C105.279 8.8877 104.556 9.3418 104.175 10.25V17H102.549V7.49023H104.131L104.157 8.58887C104.69 7.73926 105.446 7.31445 106.425 7.31445C106.741 7.31445 106.981 7.35547 107.146 7.4375V8.94922ZM114.168 17C114.074 16.8125 113.998 16.4785 113.939 15.998C113.184 16.7832 112.281 17.1758 111.232 17.1758C110.295 17.1758 109.524 16.9121 108.921 16.3848C108.323 15.8516 108.024 15.1777 108.024 14.3633C108.024 13.373 108.399 12.6055 109.149 12.0605C109.905 11.5098 110.966 11.2344 112.331 11.2344H113.913V10.4873C113.913 9.91895 113.743 9.46777 113.403 9.13379C113.063 8.79395 112.562 8.62402 111.9 8.62402C111.32 8.62402 110.834 8.77051 110.441 9.06348C110.049 9.35645 109.853 9.71094 109.853 10.127H108.218C108.218 9.65234 108.385 9.19531 108.719 8.75586C109.059 8.31055 109.516 7.95898 110.09 7.70117C110.67 7.44336 111.306 7.31445 111.997 7.31445C113.093 7.31445 113.951 7.58984 114.572 8.14062C115.193 8.68555 115.516 9.43848 115.539 10.3994V14.7764C115.539 15.6494 115.65 16.3438 115.873 16.8594V17H114.168ZM111.47 15.7607C111.979 15.7607 112.463 15.6289 112.92 15.3652C113.377 15.1016 113.708 14.7588 113.913 14.3369V12.3857H112.639C110.646 12.3857 109.65 12.9688 109.65 14.1348C109.65 14.6445 109.82 15.043 110.16 15.3301C110.5 15.6172 110.937 15.7607 111.47 15.7607ZM126.121 12.3506C126.121 13.7979 125.79 14.9639 125.128 15.8486C124.466 16.7334 123.569 17.1758 122.438 17.1758C121.284 17.1758 120.376 16.8096 119.714 16.0771V20.6562H118.088V7.49023H119.573L119.652 8.54492C120.314 7.72461 121.234 7.31445 122.412 7.31445C123.555 7.31445 124.457 7.74512 125.119 8.60645C125.787 9.46777 126.121 10.666 126.121 12.2012V12.3506ZM124.495 12.166C124.495 11.0938 124.267 10.2471 123.81 9.62598C123.353 9.00488 122.726 8.69434 121.929 8.69434C120.944 8.69434 120.206 9.13086 119.714 10.0039V14.5479C120.2 15.415 120.944 15.8486 121.946 15.8486C122.726 15.8486 123.344 15.541 123.801 14.9258C124.264 14.3047 124.495 13.3848 124.495 12.166ZM129.821 8.6416C130.542 7.75684 131.479 7.31445 132.634 7.31445C134.644 7.31445 135.657 8.44824 135.675 10.7158V17H134.049V10.707C134.043 10.0215 133.885 9.51465 133.574 9.18652C133.27 8.8584 132.792 8.69434 132.142 8.69434C131.614 8.69434 131.151 8.83496 130.753 9.11621C130.354 9.39746 130.044 9.7666 129.821 10.2236V17H128.195V3.5H129.821V8.6416Z" transform="translate(35)" fill="black"/>
<path d="M11.582 17V4.20312H15.1943C16.3076 4.20312 17.292 4.44922 18.1475 4.94141C19.0029 5.43359 19.6621 6.13379 20.125 7.04199C20.5938 7.9502 20.8311 8.99316 20.8369 10.1709V10.9883C20.8369 12.1953 20.6025 13.2529 20.1338 14.1611C19.6709 15.0693 19.0059 15.7666 18.1387 16.2529C17.2773 16.7393 16.2725 16.9883 15.124 17H11.582ZM13.2695 5.5918V15.6201H15.0449C16.3457 15.6201 17.3564 15.2158 18.0771 14.4072C18.8037 13.5986 19.167 12.4473 19.167 10.9531V10.2061C19.167 8.75293 18.8242 7.625 18.1387 6.82227C17.459 6.01367 16.4922 5.60352 15.2383 5.5918H13.2695ZM24.9062 17H23.2803V7.49023H24.9062V17ZM23.1484 4.96777C23.1484 4.7041 23.2275 4.48145 23.3857 4.2998C23.5498 4.11816 23.79 4.02734 24.1064 4.02734C24.4229 4.02734 24.6631 4.11816 24.8271 4.2998C24.9912 4.48145 25.0732 4.7041 25.0732 4.96777C25.0732 5.23145 24.9912 5.45117 24.8271 5.62695C24.6631 5.80273 24.4229 5.89062 24.1064 5.89062C23.79 5.89062 23.5498 5.80273 23.3857 5.62695C23.2275 5.45117 23.1484 5.23145 23.1484 4.96777ZM32.1133 8.94922C31.8672 8.9082 31.6006 8.8877 31.3135 8.8877C30.2471 8.8877 29.5234 9.3418 29.1426 10.25V17H27.5166V7.49023H29.0986L29.125 8.58887C29.6582 7.73926 30.4141 7.31445 31.3926 7.31445C31.709 7.31445 31.9492 7.35547 32.1133 7.4375V8.94922ZM37.3867 17.1758C36.0977 17.1758 35.0488 16.7539 34.2402 15.9102C33.4316 15.0605 33.0273 13.9268 33.0273 12.5088V12.21C33.0273 11.2666 33.2061 10.4258 33.5635 9.6875C33.9268 8.94336 34.4307 8.36328 35.0752 7.94727C35.7256 7.52539 36.4287 7.31445 37.1846 7.31445C38.4209 7.31445 39.3818 7.72168 40.0674 8.53613C40.7529 9.35059 41.0957 10.5166 41.0957 12.0342V12.7109H34.6533C34.6768 13.6484 34.9492 14.4072 35.4707 14.9873C35.998 15.5615 36.666 15.8486 37.4746 15.8486C38.0488 15.8486 38.5352 15.7314 38.9336 15.4971C39.332 15.2627 39.6807 14.9521 39.9795 14.5654L40.9727 15.3389C40.1758 16.5635 38.9805 17.1758 37.3867 17.1758ZM37.1846 8.65039C36.5283 8.65039 35.9775 8.89062 35.5322 9.37109C35.0869 9.8457 34.8115 10.5137 34.7061 11.375H39.4697V11.252C39.4229 10.4258 39.2002 9.78711 38.8018 9.33594C38.4033 8.87891 37.8643 8.65039 37.1846 8.65039ZM46.7998 15.8486C47.3799 15.8486 47.8867 15.6729 48.3203 15.3213C48.7539 14.9697 48.9941 14.5303 49.041 14.0029H50.5791C50.5498 14.5479 50.3623 15.0664 50.0166 15.5586C49.6709 16.0508 49.208 16.4434 48.6279 16.7363C48.0537 17.0293 47.4443 17.1758 46.7998 17.1758C45.5049 17.1758 44.4736 16.7451 43.7061 15.8838C42.9443 15.0166 42.5635 13.833 42.5635 12.333V12.0605C42.5635 11.1348 42.7334 10.3115 43.0732 9.59082C43.4131 8.87012 43.8994 8.31055 44.5322 7.91211C45.1709 7.51367 45.9238 7.31445 46.791 7.31445C47.8574 7.31445 48.7422 7.63379 49.4453 8.27246C50.1543 8.91113 50.5322 9.74023 50.5791 10.7598H49.041C48.9941 10.1445 48.7598 9.64062 48.3379 9.24805C47.9219 8.84961 47.4062 8.65039 46.791 8.65039C45.9648 8.65039 45.3232 8.94922 44.8662 9.54688C44.415 10.1387 44.1895 10.9971 44.1895 12.1221V12.4297C44.1895 13.5254 44.415 14.3691 44.8662 14.9609C45.3174 15.5527 45.9619 15.8486 46.7998 15.8486ZM54.6133 5.1875V7.49023H56.3887V8.74707H54.6133V14.6445C54.6133 15.0254 54.6924 15.3125 54.8506 15.5059C55.0088 15.6934 55.2783 15.7871 55.6592 15.7871C55.8467 15.7871 56.1045 15.752 56.4326 15.6816V17C56.0049 17.1172 55.5889 17.1758 55.1846 17.1758C54.458 17.1758 53.9102 16.9561 53.541 16.5166C53.1719 16.0771 52.9873 15.4531 52.9873 14.6445V8.74707H51.2559V7.49023H52.9873V5.1875H54.6133ZM62.2422 17.1758C60.9531 17.1758 59.9043 16.7539 59.0957 15.9102C58.2871 15.0605 57.8828 13.9268 57.8828 12.5088V12.21C57.8828 11.2666 58.0615 10.4258 58.4189 9.6875C58.7822 8.94336 59.2861 8.36328 59.9307 7.94727C60.5811 7.52539 61.2842 7.31445 62.04 7.31445C63.2764 7.31445 64.2373 7.72168 64.9229 8.53613C65.6084 9.35059 65.9512 10.5166 65.9512 12.0342V12.7109H59.5088C59.5322 13.6484 59.8047 14.4072 60.3262 14.9873C60.8535 15.5615 61.5215 15.8486 62.3301 15.8486C62.9043 15.8486 63.3906 15.7314 63.7891 15.4971C64.1875 15.2627 64.5361 14.9521 64.835 14.5654L65.8281 15.3389C65.0312 16.5635 63.8359 17.1758 62.2422 17.1758ZM62.04 8.65039C61.3838 8.65039 60.833 8.89062 60.3877 9.37109C59.9424 9.8457 59.667 10.5137 59.5615 11.375H64.3252V11.252C64.2783 10.4258 64.0557 9.78711 63.6572 9.33594C63.2588 8.87891 62.7197 8.65039 62.04 8.65039ZM67.4453 12.166C67.4453 10.707 67.791 9.53516 68.4824 8.65039C69.1738 7.75977 70.0791 7.31445 71.1982 7.31445C72.3115 7.31445 73.1934 7.69531 73.8438 8.45703V3.5H75.4697V17H73.9756L73.8965 15.9805C73.2461 16.7773 72.3408 17.1758 71.1807 17.1758C70.0791 17.1758 69.1797 16.7246 68.4824 15.8223C67.791 14.9199 67.4453 13.7422 67.4453 12.2891V12.166ZM69.0713 12.3506C69.0713 13.4287 69.2939 14.2725 69.7393 14.8818C70.1846 15.4912 70.7998 15.7959 71.585 15.7959C72.6162 15.7959 73.3691 15.333 73.8438 14.4072V10.0391C73.3574 9.14258 72.6104 8.69434 71.6025 8.69434C70.8057 8.69434 70.1846 9.00195 69.7393 9.61719C69.2939 10.2324 69.0713 11.1436 69.0713 12.3506ZM82.0791 12.166C82.0791 10.6836 82.4219 9.50586 83.1074 8.63281C83.793 7.75391 84.7012 7.31445 85.832 7.31445C86.9922 7.31445 87.8975 7.72461 88.5479 8.54492L88.627 7.49023H90.1123V16.7715C90.1123 18.002 89.7461 18.9717 89.0137 19.6807C88.2871 20.3896 87.3086 20.7441 86.0781 20.7441C85.3926 20.7441 84.7217 20.5977 84.0654 20.3047C83.4092 20.0117 82.9082 19.6104 82.5625 19.1006L83.4062 18.125C84.1035 18.9863 84.9561 19.417 85.9639 19.417C86.7549 19.417 87.3701 19.1943 87.8096 18.749C88.2549 18.3037 88.4775 17.6768 88.4775 16.8682V16.0508C87.8271 16.8008 86.9395 17.1758 85.8145 17.1758C84.7012 17.1758 83.7988 16.7275 83.1074 15.8311C82.4219 14.9346 82.0791 13.7129 82.0791 12.166ZM83.7139 12.3506C83.7139 13.4229 83.9336 14.2666 84.373 14.8818C84.8125 15.4912 85.4277 15.7959 86.2188 15.7959C87.2441 15.7959 87.9971 15.3301 88.4775 14.3984V10.0566C87.9795 9.14844 87.2324 8.69434 86.2363 8.69434C85.4453 8.69434 84.8271 9.00195 84.3818 9.61719C83.9365 10.2324 83.7139 11.1436 83.7139 12.3506ZM97.1699 8.94922C96.9238 8.9082 96.6572 8.8877 96.3701 8.8877C95.3037 8.8877 94.5801 9.3418 94.1992 10.25V17H92.5732V7.49023H94.1553L94.1816 8.58887C94.7148 7.73926 95.4707 7.31445 96.4492 7.31445C96.7656 7.31445 97.0059 7.35547 97.1699 7.4375V8.94922ZM104.192 17C104.099 16.8125 104.022 16.4785 103.964 15.998C103.208 16.7832 102.306 17.1758 101.257 17.1758C100.319 17.1758 99.5488 16.9121 98.9453 16.3848C98.3477 15.8516 98.0488 15.1777 98.0488 14.3633C98.0488 13.373 98.4238 12.6055 99.1738 12.0605C99.9297 11.5098 100.99 11.2344 102.355 11.2344H103.938V10.4873C103.938 9.91895 103.768 9.46777 103.428 9.13379C103.088 8.79395 102.587 8.62402 101.925 8.62402C101.345 8.62402 100.858 8.77051 100.466 9.06348C100.073 9.35645 99.877 9.71094 99.877 10.127H98.2422C98.2422 9.65234 98.4092 9.19531 98.7432 8.75586C99.083 8.31055 99.54 7.95898 100.114 7.70117C100.694 7.44336 101.33 7.31445 102.021 7.31445C103.117 7.31445 103.976 7.58984 104.597 8.14062C105.218 8.68555 105.54 9.43848 105.563 10.3994V14.7764C105.563 15.6494 105.675 16.3438 105.897 16.8594V17H104.192ZM101.494 15.7607C102.004 15.7607 102.487 15.6289 102.944 15.3652C103.401 15.1016 103.732 14.7588 103.938 14.3369V12.3857H102.663C100.671 12.3857 99.6748 12.9688 99.6748 14.1348C99.6748 14.6445 99.8447 15.043 100.185 15.3301C100.524 15.6172 100.961 15.7607 101.494 15.7607ZM116.146 12.3506C116.146 13.7979 115.814 14.9639 115.152 15.8486C114.49 16.7334 113.594 17.1758 112.463 17.1758C111.309 17.1758 110.4 16.8096 109.738 16.0771V20.6562H108.112V7.49023H109.598L109.677 8.54492C110.339 7.72461 111.259 7.31445 112.437 7.31445C113.579 7.31445 114.481 7.74512 115.144 8.60645C115.812 9.46777 116.146 10.666 116.146 12.2012V12.3506ZM114.52 12.166C114.52 11.0938 114.291 10.2471 113.834 9.62598C113.377 9.00488 112.75 8.69434 111.953 8.69434C110.969 8.69434 110.23 9.13086 109.738 10.0039V14.5479C110.225 15.415 110.969 15.8486 111.971 15.8486C112.75 15.8486 113.368 15.541 113.825 14.9258C114.288 14.3047 114.52 13.3848 114.52 12.166ZM119.846 8.6416C120.566 7.75684 121.504 7.31445 122.658 7.31445C124.668 7.31445 125.682 8.44824 125.699 10.7158V17H124.073V10.707C124.067 10.0215 123.909 9.51465 123.599 9.18652C123.294 8.8584 122.816 8.69434 122.166 8.69434C121.639 8.69434 121.176 8.83496 120.777 9.11621C120.379 9.39746 120.068 9.7666 119.846 10.2236V17H118.22V3.5H119.846V8.6416Z" transform="translate(375)" fill="black"/>
<path d="M5.62305 17.1758C4.33398 17.1758 3.28516 16.7539 2.47656 15.9102C1.66797 15.0605 1.26367 13.9268 1.26367 12.5088V12.21C1.26367 11.2666 1.44238 10.4258 1.7998 9.6875C2.16309 8.94336 2.66699 8.36328 3.31152 7.94727C3.96191 7.52539 4.66504 7.31445 5.4209 7.31445C6.65723 7.31445 7.61816 7.72168 8.30371 8.53613C8.98926 9.35059 9.33203 10.5166 9.33203 12.0342V12.7109H2.88965C2.91309 13.6484 3.18555 14.4072 3.70703 14.9873C4.23438 15.5615 4.90234 15.8486 5.71094 15.8486C6.28516 15.8486 6.77148 15.7314 7.16992 15.4971C7.56836 15.2627 7.91699 14.9521 8.21582 14.5654L9.20898 15.3389C8.41211 16.5635 7.2168 17.1758 5.62305 17.1758ZM5.4209 8.65039C4.76465 8.65039 4.21387 8.89062 3.76855 9.37109C3.32324 9.8457 3.04785 10.5137 2.94238 11.375H7.70605V11.252C7.65918 10.4258 7.43652 9.78711 7.03809 9.33594C6.63965 8.87891 6.10059 8.65039 5.4209 8.65039ZM10.8262 12.166C10.8262 10.707 11.1719 9.53516 11.8633 8.65039C12.5547 7.75977 13.46 7.31445 14.5791 7.31445C15.6924 7.31445 16.5742 7.69531 17.2246 8.45703V3.5H18.8506V17H17.3564L17.2773 15.9805C16.627 16.7773 15.7217 17.1758 14.5615 17.1758C13.46 17.1758 12.5605 16.7246 11.8633 15.8223C11.1719 14.9199 10.8262 13.7422 10.8262 12.2891V12.166ZM12.4521 12.3506C12.4521 13.4287 12.6748 14.2725 13.1201 14.8818C13.5654 15.4912 14.1807 15.7959 14.9658 15.7959C15.9971 15.7959 16.75 15.333 17.2246 14.4072V10.0391C16.7383 9.14258 15.9912 8.69434 14.9834 8.69434C14.1865 8.69434 13.5654 9.00195 13.1201 9.61719C12.6748 10.2324 12.4521 11.1436 12.4521 12.3506ZM20.9951 12.166C20.9951 10.6836 21.3379 9.50586 22.0234 8.63281C22.709 7.75391 23.6172 7.31445 24.748 7.31445C25.9082 7.31445 26.8135 7.72461 27.4639 8.54492L27.543 7.49023H29.0283V16.7715C29.0283 18.002 28.6621 18.9717 27.9297 19.6807C27.2031 20.3896 26.2246 20.7441 24.9941 20.7441C24.3086 20.7441 23.6377 20.5977 22.9814 20.3047C22.3252 20.0117 21.8242 19.6104 21.4785 19.1006L22.3223 18.125C23.0195 18.9863 23.8721 19.417 24.8799 19.417C25.6709 19.417 26.2861 19.1943 26.7256 18.749C27.1709 18.3037 27.3936 17.6768 27.3936 16.8682V16.0508C26.7432 16.8008 25.8555 17.1758 24.7305 17.1758C23.6172 17.1758 22.7148 16.7275 22.0234 15.8311C21.3379 14.9346 20.9951 13.7129 20.9951 12.166ZM22.6299 12.3506C22.6299 13.4229 22.8496 14.2666 23.2891 14.8818C23.7285 15.4912 24.3438 15.7959 25.1348 15.7959C26.1602 15.7959 26.9131 15.3301 27.3936 14.3984V10.0566C26.8955 9.14844 26.1484 8.69434 25.1523 8.69434C24.3613 8.69434 23.7432 9.00195 23.2979 9.61719C22.8525 10.2324 22.6299 11.1436 22.6299 12.3506ZM35.4355 17.1758C34.1465 17.1758 33.0977 16.7539 32.2891 15.9102C31.4805 15.0605 31.0762 13.9268 31.0762 12.5088V12.21C31.0762 11.2666 31.2549 10.4258 31.6123 9.6875C31.9756 8.94336 32.4795 8.36328 33.124 7.94727C33.7744 7.52539 34.4775 7.31445 35.2334 7.31445C36.4697 7.31445 37.4307 7.72168 38.1162 8.53613C38.8018 9.35059 39.1445 10.5166 39.1445 12.0342V12.7109H32.7021C32.7256 13.6484 32.998 14.4072 33.5195 14.9873C34.0469 15.5615 34.7148 15.8486 35.5234 15.8486C36.0977 15.8486 36.584 15.7314 36.9824 15.4971C37.3809 15.2627 37.7295 14.9521 38.0283 14.5654L39.0215 15.3389C38.2246 16.5635 37.0293 17.1758 35.4355 17.1758ZM35.2334 8.65039C34.5771 8.65039 34.0264 8.89062 33.5811 9.37109C33.1357 9.8457 32.8604 10.5137 32.7549 11.375H37.5186V11.252C37.4717 10.4258 37.249 9.78711 36.8506 9.33594C36.4521 8.87891 35.9131 8.65039 35.2334 8.65039ZM46.5713 14.4775C46.5713 14.0381 46.4043 13.6982 46.0703 13.458C45.7422 13.2119 45.165 13.001 44.3389 12.8252C43.5186 12.6494 42.8652 12.4385 42.3789 12.1924C41.8984 11.9463 41.541 11.6533 41.3066 11.3135C41.0781 10.9736 40.9639 10.5693 40.9639 10.1006C40.9639 9.32129 41.292 8.66211 41.9482 8.12305C42.6104 7.58398 43.4541 7.31445 44.4795 7.31445C45.5576 7.31445 46.4307 7.59277 47.0986 8.14941C47.7725 8.70605 48.1094 9.41797 48.1094 10.2852H46.4746C46.4746 9.83984 46.2842 9.45605 45.9033 9.13379C45.5283 8.81152 45.0537 8.65039 44.4795 8.65039C43.8877 8.65039 43.4248 8.7793 43.0908 9.03711C42.7568 9.29492 42.5898 9.63184 42.5898 10.0479C42.5898 10.4404 42.7451 10.7363 43.0557 10.9355C43.3662 11.1348 43.9258 11.3252 44.7344 11.5068C45.5488 11.6885 46.208 11.9053 46.7119 12.1572C47.2158 12.4092 47.5879 12.7139 47.8281 13.0713C48.0742 13.4229 48.1973 13.8535 48.1973 14.3633C48.1973 15.2129 47.8574 15.8955 47.1777 16.4111C46.498 16.9209 45.6162 17.1758 44.5322 17.1758C43.7705 17.1758 43.0967 17.041 42.5107 16.7715C41.9248 16.502 41.4648 16.127 41.1309 15.6465C40.8027 15.1602 40.6387 14.6357 40.6387 14.0732H42.2646C42.2939 14.6182 42.5107 15.0518 42.915 15.374C43.3252 15.6904 43.8643 15.8486 44.5322 15.8486C45.1475 15.8486 45.6396 15.7256 46.0088 15.4795C46.3838 15.2275 46.5713 14.8936 46.5713 14.4775ZM56.4062 8.6416C57.127 7.75684 58.0645 7.31445 59.2188 7.31445C61.2285 7.31445 62.2422 8.44824 62.2598 10.7158V17H60.6338V10.707C60.6279 10.0215 60.4697 9.51465 60.1592 9.18652C59.8545 8.8584 59.377 8.69434 58.7266 8.69434C58.1992 8.69434 57.7363 8.83496 57.3379 9.11621C56.9395 9.39746 56.6289 9.7666 56.4062 10.2236V17H54.7803V3.5H56.4062V8.6416ZM70.5654 17C70.4717 16.8125 70.3955 16.4785 70.3369 15.998C69.5811 16.7832 68.6787 17.1758 67.6299 17.1758C66.6924 17.1758 65.9219 16.9121 65.3184 16.3848C64.7207 15.8516 64.4219 15.1777 64.4219 14.3633C64.4219 13.373 64.7969 12.6055 65.5469 12.0605C66.3027 11.5098 67.3633 11.2344 68.7285 11.2344H70.3105V10.4873C70.3105 9.91895 70.1406 9.46777 69.8008 9.13379C69.4609 8.79395 68.96 8.62402 68.2979 8.62402C67.7178 8.62402 67.2314 8.77051 66.8389 9.06348C66.4463 9.35645 66.25 9.71094 66.25 10.127H64.6152C64.6152 9.65234 64.7822 9.19531 65.1162 8.75586C65.4561 8.31055 65.9131 7.95898 66.4873 7.70117C67.0674 7.44336 67.7031 7.31445 68.3945 7.31445C69.4902 7.31445 70.3486 7.58984 70.9697 8.14062C71.5908 8.68555 71.9131 9.43848 71.9365 10.3994V14.7764C71.9365 15.6494 72.0479 16.3438 72.2705 16.8594V17H70.5654ZM67.8672 15.7607C68.377 15.7607 68.8604 15.6289 69.3174 15.3652C69.7744 15.1016 70.1055 14.7588 70.3105 14.3369V12.3857H69.0361C67.0439 12.3857 66.0479 12.9688 66.0479 14.1348C66.0479 14.6445 66.2178 15.043 66.5576 15.3301C66.8975 15.6172 67.334 15.7607 67.8672 15.7607ZM77.4824 14.7939L79.8379 7.49023H81.499L78.0889 17H76.8496L73.4043 7.49023H75.0654L77.4824 14.7939ZM86.8867 17.1758C85.5977 17.1758 84.5488 16.7539 83.7402 15.9102C82.9316 15.0605 82.5273 13.9268 82.5273 12.5088V12.21C82.5273 11.2666 82.7061 10.4258 83.0635 9.6875C83.4268 8.94336 83.9307 8.36328 84.5752 7.94727C85.2256 7.52539 85.9287 7.31445 86.6846 7.31445C87.9209 7.31445 88.8818 7.72168 89.5674 8.53613C90.2529 9.35059 90.5957 10.5166 90.5957 12.0342V12.7109H84.1533C84.1768 13.6484 84.4492 14.4072 84.9707 14.9873C85.498 15.5615 86.166 15.8486 86.9746 15.8486C87.5488 15.8486 88.0352 15.7314 88.4336 15.4971C88.832 15.2627 89.1807 14.9521 89.4795 14.5654L90.4727 15.3389C89.6758 16.5635 88.4805 17.1758 86.8867 17.1758ZM86.6846 8.65039C86.0283 8.65039 85.4775 8.89062 85.0322 9.37109C84.5869 9.8457 84.3115 10.5137 84.2061 11.375H88.9697V11.252C88.9229 10.4258 88.7002 9.78711 88.3018 9.33594C87.9033 8.87891 87.3643 8.65039 86.6846 8.65039ZM98.4883 7.49023L98.541 8.68555C99.2676 7.77148 100.217 7.31445 101.389 7.31445C103.398 7.31445 104.412 8.44824 104.43 10.7158V17H102.804V10.707C102.798 10.0215 102.64 9.51465 102.329 9.18652C102.024 8.8584 101.547 8.69434 100.896 8.69434C100.369 8.69434 99.9062 8.83496 99.5078 9.11621C99.1094 9.39746 98.7988 9.7666 98.5762 10.2236V17H96.9502V7.49023H98.4883ZM106.451 12.1572C106.451 11.2256 106.633 10.3877 106.996 9.64355C107.365 8.89941 107.875 8.3252 108.525 7.9209C109.182 7.5166 109.929 7.31445 110.767 7.31445C112.062 7.31445 113.107 7.7627 113.904 8.65918C114.707 9.55566 115.108 10.748 115.108 12.2363V12.3506C115.108 13.2764 114.93 14.1084 114.572 14.8467C114.221 15.5791 113.714 16.1504 113.052 16.5605C112.396 16.9707 111.64 17.1758 110.784 17.1758C109.495 17.1758 108.449 16.7275 107.646 15.8311C106.85 14.9346 106.451 13.748 106.451 12.2715V12.1572ZM108.086 12.3506C108.086 13.4053 108.329 14.252 108.815 14.8906C109.308 15.5293 109.964 15.8486 110.784 15.8486C111.61 15.8486 112.267 15.5264 112.753 14.8818C113.239 14.2314 113.482 13.3232 113.482 12.1572C113.482 11.1143 113.233 10.2705 112.735 9.62598C112.243 8.97559 111.587 8.65039 110.767 8.65039C109.964 8.65039 109.316 8.96973 108.824 9.6084C108.332 10.2471 108.086 11.1611 108.086 12.3506ZM121.217 12.166C121.217 10.707 121.562 9.53516 122.254 8.65039C122.945 7.75977 123.851 7.31445 124.97 7.31445C126.083 7.31445 126.965 7.69531 127.615 8.45703V3.5H129.241V17H127.747L127.668 15.9805C127.018 16.7773 126.112 17.1758 124.952 17.1758C123.851 17.1758 122.951 16.7246 122.254 15.8223C121.562 14.9199 121.217 13.7422 121.217 12.2891V12.166ZM122.843 12.3506C122.843 13.4287 123.065 14.2725 123.511 14.8818C123.956 15.4912 124.571 15.7959 125.356 15.7959C126.388 15.7959 127.141 15.333 127.615 14.4072V10.0391C127.129 9.14258 126.382 8.69434 125.374 8.69434C124.577 8.69434 123.956 9.00195 123.511 9.61719C123.065 10.2324 122.843 11.1436 122.843 12.3506ZM133.539 17H131.913V7.49023H133.539V17ZM131.781 4.96777C131.781 4.7041 131.86 4.48145 132.019 4.2998C132.183 4.11816 132.423 4.02734 132.739 4.02734C133.056 4.02734 133.296 4.11816 133.46 4.2998C133.624 4.48145 133.706 4.7041 133.706 4.96777C133.706 5.23145 133.624 5.45117 133.46 5.62695C133.296 5.80273 133.056 5.89062 132.739 5.89062C132.423 5.89062 132.183 5.80273 132.019 5.62695C131.86 5.45117 131.781 5.23145 131.781 4.96777ZM140.746 8.94922C140.5 8.9082 140.233 8.8877 139.946 8.8877C138.88 8.8877 138.156 9.3418 137.775 10.25V17H136.149V7.49023H137.731L137.758 8.58887C138.291 7.73926 139.047 7.31445 140.025 7.31445C140.342 7.31445 140.582 7.35547 140.746 7.4375V8.94922ZM146.02 17.1758C144.73 17.1758 143.682 16.7539 142.873 15.9102C142.064 15.0605 141.66 13.9268 141.66 12.5088V12.21C141.66 11.2666 141.839 10.4258 142.196 9.6875C142.56 8.94336 143.063 8.36328 143.708 7.94727C144.358 7.52539 145.062 7.31445 145.817 7.31445C147.054 7.31445 148.015 7.72168 148.7 8.53613C149.386 9.35059 149.729 10.5166 149.729 12.0342V12.7109H143.286C143.31 13.6484 143.582 14.4072 144.104 14.9873C144.631 15.5615 145.299 15.8486 146.107 15.8486C146.682 15.8486 147.168 15.7314 147.566 15.4971C147.965 15.2627 148.313 14.9521 148.612 14.5654L149.605 15.3389C148.809 16.5635 147.613 17.1758 146.02 17.1758ZM145.817 8.65039C145.161 8.65039 144.61 8.89062 144.165 9.37109C143.72 9.8457 143.444 10.5137 143.339 11.375H148.103V11.252C148.056 10.4258 147.833 9.78711 147.435 9.33594C147.036 8.87891 146.497 8.65039 145.817 8.65039ZM155.433 15.8486C156.013 15.8486 156.52 15.6729 156.953 15.3213C157.387 14.9697 157.627 14.5303 157.674 14.0029H159.212C159.183 14.5479 158.995 15.0664 158.649 15.5586C158.304 16.0508 157.841 16.4434 157.261 16.7363C156.687 17.0293 156.077 17.1758 155.433 17.1758C154.138 17.1758 153.106 16.7451 152.339 15.8838C151.577 15.0166 151.196 13.833 151.196 12.333V12.0605C151.196 11.1348 151.366 10.3115 151.706 9.59082C152.046 8.87012 152.532 8.31055 153.165 7.91211C153.804 7.51367 154.557 7.31445 155.424 7.31445C156.49 7.31445 157.375 7.63379 158.078 8.27246C158.787 8.91113 159.165 9.74023 159.212 10.7598H157.674C157.627 10.1445 157.393 9.64062 156.971 9.24805C156.555 8.84961 156.039 8.65039 155.424 8.65039C154.598 8.65039 153.956 8.94922 153.499 9.54688C153.048 10.1387 152.822 10.9971 152.822 12.1221V12.4297C152.822 13.5254 153.048 14.3691 153.499 14.9609C153.95 15.5527 154.595 15.8486 155.433 15.8486ZM163.246 5.1875V7.49023H165.021V8.74707H163.246V14.6445C163.246 15.0254 163.325 15.3125 163.483 15.5059C163.642 15.6934 163.911 15.7871 164.292 15.7871C164.479 15.7871 164.737 15.752 165.065 15.6816V17C164.638 17.1172 164.222 17.1758 163.817 17.1758C163.091 17.1758 162.543 16.9561 162.174 16.5166C161.805 16.0771 161.62 15.4531 161.62 14.6445V8.74707H159.889V7.49023H161.62V5.1875H163.246ZM168.695 17H167.069V7.49023H168.695V17ZM166.938 4.96777C166.938 4.7041 167.017 4.48145 167.175 4.2998C167.339 4.11816 167.579 4.02734 167.896 4.02734C168.212 4.02734 168.452 4.11816 168.616 4.2998C168.78 4.48145 168.862 4.7041 168.862 4.96777C168.862 5.23145 168.78 5.45117 168.616 5.62695C168.452 5.80273 168.212 5.89062 167.896 5.89062C167.579 5.89062 167.339 5.80273 167.175 5.62695C167.017 5.45117 166.938 5.23145 166.938 4.96777ZM170.875 12.1572C170.875 11.2256 171.057 10.3877 171.42 9.64355C171.789 8.89941 172.299 8.3252 172.949 7.9209C173.605 7.5166 174.353 7.31445 175.19 7.31445C176.485 7.31445 177.531 7.7627 178.328 8.65918C179.131 9.55566 179.532 10.748 179.532 12.2363V12.3506C179.532 13.2764 179.354 14.1084 178.996 14.8467C178.645 15.5791 178.138 16.1504 177.476 16.5605C176.819 16.9707 176.063 17.1758 175.208 17.1758C173.919 17.1758 172.873 16.7275 172.07 15.8311C171.273 14.9346 170.875 13.748 170.875 12.2715V12.1572ZM172.51 12.3506C172.51 13.4053 172.753 14.252 173.239 14.8906C173.731 15.5293 174.388 15.8486 175.208 15.8486C176.034 15.8486 176.69 15.5264 177.177 14.8818C177.663 14.2314 177.906 13.3232 177.906 12.1572C177.906 11.1143 177.657 10.2705 177.159 9.62598C176.667 8.97559 176.011 8.65039 175.19 8.65039C174.388 8.65039 173.74 8.96973 173.248 9.6084C172.756 10.2471 172.51 11.1611 172.51 12.3506ZM183.109 7.49023L183.162 8.68555C183.889 7.77148 184.838 7.31445 186.01 7.31445C188.02 7.31445 189.033 8.44824 189.051 10.7158V17H187.425V10.707C187.419 10.0215 187.261 9.51465 186.95 9.18652C186.646 8.8584 186.168 8.69434 185.518 8.69434C184.99 8.69434 184.527 8.83496 184.129 9.11621C183.73 9.39746 183.42 9.7666 183.197 10.2236V17H181.571V7.49023H183.109ZM197.04 14.4775C197.04 14.0381 196.873 13.6982 196.539 13.458C196.211 13.2119 195.634 13.001 194.808 12.8252C193.987 12.6494 193.334 12.4385 192.848 12.1924C192.367 11.9463 192.01 11.6533 191.775 11.3135C191.547 10.9736 191.433 10.5693 191.433 10.1006C191.433 9.32129 191.761 8.66211 192.417 8.12305C193.079 7.58398 193.923 7.31445 194.948 7.31445C196.026 7.31445 196.899 7.59277 197.567 8.14941C198.241 8.70605 198.578 9.41797 198.578 10.2852H196.943C196.943 9.83984 196.753 9.45605 196.372 9.13379C195.997 8.81152 195.522 8.65039 194.948 8.65039C194.356 8.65039 193.894 8.7793 193.56 9.03711C193.226 9.29492 193.059 9.63184 193.059 10.0479C193.059 10.4404 193.214 10.7363 193.524 10.9355C193.835 11.1348 194.395 11.3252 195.203 11.5068C196.018 11.6885 196.677 11.9053 197.181 12.1572C197.685 12.4092 198.057 12.7139 198.297 13.0713C198.543 13.4229 198.666 13.8535 198.666 14.3633C198.666 15.2129 198.326 15.8955 197.646 16.4111C196.967 16.9209 196.085 17.1758 195.001 17.1758C194.239 17.1758 193.565 17.041 192.979 16.7715C192.394 16.502 191.934 16.127 191.6 15.6465C191.271 15.1602 191.107 14.6357 191.107 14.0732H192.733C192.763 14.6182 192.979 15.0518 193.384 15.374C193.794 15.6904 194.333 15.8486 195.001 15.8486C195.616 15.8486 196.108 15.7256 196.478 15.4795C196.853 15.2275 197.04 14.8936 197.04 14.4775Z" transform="translate(6 213)" fill="black"/>
<path d="M5.4541 17.1758C4.16504 17.1758 3.11621 16.7539 2.30762 15.9102C1.49902 15.0605 1.09473 13.9268 1.09473 12.5088V12.21C1.09473 11.2666 1.27344 10.4258 1.63086 9.6875C1.99414 8.94336 2.49805 8.36328 3.14258 7.94727C3.79297 7.52539 4.49609 7.31445 5.25195 7.31445C6.48828 7.31445 7.44922 7.72168 8.13477 8.53613C8.82031 9.35059 9.16309 10.5166 9.16309 12.0342V12.7109H2.7207C2.74414 13.6484 3.0166 14.4072 3.53809 14.9873C4.06543 15.5615 4.7334 15.8486 5.54199 15.8486C6.11621 15.8486 6.60254 15.7314 7.00098 15.4971C7.39941 15.2627 7.74805 14.9521 8.04688 14.5654L9.04004 15.3389C8.24316 16.5635 7.04785 17.1758 5.4541 17.1758ZM5.25195 8.65039C4.5957 8.65039 4.04492 8.89062 3.59961 9.37109C3.1543 9.8457 2.87891 10.5137 2.77344 11.375H7.53711V11.252C7.49023 10.4258 7.26758 9.78711 6.86914 9.33594C6.4707 8.87891 5.93164 8.65039 5.25195 8.65039ZM10.6572 12.166C10.6572 10.707 11.0029 9.53516 11.6943 8.65039C12.3857 7.75977 13.291 7.31445 14.4102 7.31445C15.5234 7.31445 16.4053 7.69531 17.0557 8.45703V3.5H18.6816V17H17.1875L17.1084 15.9805C16.458 16.7773 15.5527 17.1758 14.3926 17.1758C13.291 17.1758 12.3916 16.7246 11.6943 15.8223C11.0029 14.9199 10.6572 13.7422 10.6572 12.2891V12.166ZM12.2832 12.3506C12.2832 13.4287 12.5059 14.2725 12.9512 14.8818C13.3965 15.4912 14.0117 15.7959 14.7969 15.7959C15.8281 15.7959 16.5811 15.333 17.0557 14.4072V10.0391C16.5693 9.14258 15.8223 8.69434 14.8145 8.69434C14.0176 8.69434 13.3965 9.00195 12.9512 9.61719C12.5059 10.2324 12.2832 11.1436 12.2832 12.3506ZM20.8262 12.166C20.8262 10.6836 21.1689 9.50586 21.8545 8.63281C22.54 7.75391 23.4482 7.31445 24.5791 7.31445C25.7393 7.31445 26.6445 7.72461 27.2949 8.54492L27.374 7.49023H28.8594V16.7715C28.8594 18.002 28.4932 18.9717 27.7607 19.6807C27.0342 20.3896 26.0557 20.7441 24.8252 20.7441C24.1396 20.7441 23.4688 20.5977 22.8125 20.3047C22.1562 20.0117 21.6553 19.6104 21.3096 19.1006L22.1533 18.125C22.8506 18.9863 23.7031 19.417 24.7109 19.417C25.502 19.417 26.1172 19.1943 26.5566 18.749C27.002 18.3037 27.2246 17.6768 27.2246 16.8682V16.0508C26.5742 16.8008 25.6865 17.1758 24.5615 17.1758C23.4482 17.1758 22.5459 16.7275 21.8545 15.8311C21.1689 14.9346 20.8262 13.7129 20.8262 12.166ZM22.4609 12.3506C22.4609 13.4229 22.6807 14.2666 23.1201 14.8818C23.5596 15.4912 24.1748 15.7959 24.9658 15.7959C25.9912 15.7959 26.7441 15.3301 27.2246 14.3984V10.0566C26.7266 9.14844 25.9795 8.69434 24.9834 8.69434C24.1924 8.69434 23.5742 9.00195 23.1289 9.61719C22.6836 10.2324 22.4609 11.1436 22.4609 12.3506ZM35.2666 17.1758C33.9775 17.1758 32.9287 16.7539 32.1201 15.9102C31.3115 15.0605 30.9072 13.9268 30.9072 12.5088V12.21C30.9072 11.2666 31.0859 10.4258 31.4434 9.6875C31.8066 8.94336 32.3105 8.36328 32.9551 7.94727C33.6055 7.52539 34.3086 7.31445 35.0645 7.31445C36.3008 7.31445 37.2617 7.72168 37.9473 8.53613C38.6328 9.35059 38.9756 10.5166 38.9756 12.0342V12.7109H32.5332C32.5566 13.6484 32.8291 14.4072 33.3506 14.9873C33.8779 15.5615 34.5459 15.8486 35.3545 15.8486C35.9287 15.8486 36.415 15.7314 36.8135 15.4971C37.2119 15.2627 37.5605 14.9521 37.8594 14.5654L38.8525 15.3389C38.0557 16.5635 36.8604 17.1758 35.2666 17.1758ZM35.0645 8.65039C34.4082 8.65039 33.8574 8.89062 33.4121 9.37109C32.9668 9.8457 32.6914 10.5137 32.5859 11.375H37.3496V11.252C37.3027 10.4258 37.0801 9.78711 36.6816 9.33594C36.2832 8.87891 35.7441 8.65039 35.0645 8.65039ZM46.4023 14.4775C46.4023 14.0381 46.2354 13.6982 45.9014 13.458C45.5732 13.2119 44.9961 13.001 44.1699 12.8252C43.3496 12.6494 42.6963 12.4385 42.21 12.1924C41.7295 11.9463 41.3721 11.6533 41.1377 11.3135C40.9092 10.9736 40.7949 10.5693 40.7949 10.1006C40.7949 9.32129 41.123 8.66211 41.7793 8.12305C42.4414 7.58398 43.2852 7.31445 44.3105 7.31445C45.3887 7.31445 46.2617 7.59277 46.9297 8.14941C47.6035 8.70605 47.9404 9.41797 47.9404 10.2852H46.3057C46.3057 9.83984 46.1152 9.45605 45.7344 9.13379C45.3594 8.81152 44.8848 8.65039 44.3105 8.65039C43.7188 8.65039 43.2559 8.7793 42.9219 9.03711C42.5879 9.29492 42.4209 9.63184 42.4209 10.0479C42.4209 10.4404 42.5762 10.7363 42.8867 10.9355C43.1973 11.1348 43.7568 11.3252 44.5654 11.5068C45.3799 11.6885 46.0391 11.9053 46.543 12.1572C47.0469 12.4092 47.4189 12.7139 47.6592 13.0713C47.9053 13.4229 48.0283 13.8535 48.0283 14.3633C48.0283 15.2129 47.6885 15.8955 47.0088 16.4111C46.3291 16.9209 45.4473 17.1758 44.3633 17.1758C43.6016 17.1758 42.9277 17.041 42.3418 16.7715C41.7559 16.502 41.2959 16.127 40.9619 15.6465C40.6338 15.1602 40.4697 14.6357 40.4697 14.0732H42.0957C42.125 14.6182 42.3418 15.0518 42.7461 15.374C43.1562 15.6904 43.6953 15.8486 44.3633 15.8486C44.9785 15.8486 45.4707 15.7256 45.8398 15.4795C46.2148 15.2275 46.4023 14.8936 46.4023 14.4775ZM56.2373 8.6416C56.958 7.75684 57.8955 7.31445 59.0498 7.31445C61.0596 7.31445 62.0732 8.44824 62.0908 10.7158V17H60.4648V10.707C60.459 10.0215 60.3008 9.51465 59.9902 9.18652C59.6855 8.8584 59.208 8.69434 58.5576 8.69434C58.0303 8.69434 57.5674 8.83496 57.1689 9.11621C56.7705 9.39746 56.46 9.7666 56.2373 10.2236V17H54.6113V3.5H56.2373V8.6416ZM70.3965 17C70.3027 16.8125 70.2266 16.4785 70.168 15.998C69.4121 16.7832 68.5098 17.1758 67.4609 17.1758C66.5234 17.1758 65.7529 16.9121 65.1494 16.3848C64.5518 15.8516 64.2529 15.1777 64.2529 14.3633C64.2529 13.373 64.6279 12.6055 65.3779 12.0605C66.1338 11.5098 67.1943 11.2344 68.5596 11.2344H70.1416V10.4873C70.1416 9.91895 69.9717 9.46777 69.6318 9.13379C69.292 8.79395 68.791 8.62402 68.1289 8.62402C67.5488 8.62402 67.0625 8.77051 66.6699 9.06348C66.2773 9.35645 66.0811 9.71094 66.0811 10.127H64.4463C64.4463 9.65234 64.6133 9.19531 64.9473 8.75586C65.2871 8.31055 65.7441 7.95898 66.3184 7.70117C66.8984 7.44336 67.5342 7.31445 68.2256 7.31445C69.3213 7.31445 70.1797 7.58984 70.8008 8.14062C71.4219 8.68555 71.7441 9.43848 71.7676 10.3994V14.7764C71.7676 15.6494 71.8789 16.3438 72.1016 16.8594V17H70.3965ZM67.6982 15.7607C68.208 15.7607 68.6914 15.6289 69.1484 15.3652C69.6055 15.1016 69.9365 14.7588 70.1416 14.3369V12.3857H68.8672C66.875 12.3857 65.8789 12.9688 65.8789 14.1348C65.8789 14.6445 66.0488 15.043 66.3887 15.3301C66.7285 15.6172 67.165 15.7607 67.6982 15.7607ZM77.3135 14.7939L79.6689 7.49023H81.3301L77.9199 17H76.6807L73.2354 7.49023H74.8965L77.3135 14.7939ZM86.7178 17.1758C85.4287 17.1758 84.3799 16.7539 83.5713 15.9102C82.7627 15.0605 82.3584 13.9268 82.3584 12.5088V12.21C82.3584 11.2666 82.5371 10.4258 82.8945 9.6875C83.2578 8.94336 83.7617 8.36328 84.4062 7.94727C85.0566 7.52539 85.7598 7.31445 86.5156 7.31445C87.752 7.31445 88.7129 7.72168 89.3984 8.53613C90.084 9.35059 90.4268 10.5166 90.4268 12.0342V12.7109H83.9844C84.0078 13.6484 84.2803 14.4072 84.8018 14.9873C85.3291 15.5615 85.9971 15.8486 86.8057 15.8486C87.3799 15.8486 87.8662 15.7314 88.2646 15.4971C88.6631 15.2627 89.0117 14.9521 89.3105 14.5654L90.3037 15.3389C89.5068 16.5635 88.3115 17.1758 86.7178 17.1758ZM86.5156 8.65039C85.8594 8.65039 85.3086 8.89062 84.8633 9.37109C84.418 9.8457 84.1426 10.5137 84.0371 11.375H88.8008V11.252C88.7539 10.4258 88.5312 9.78711 88.1328 9.33594C87.7344 8.87891 87.1953 8.65039 86.5156 8.65039ZM96.3857 12.166C96.3857 10.707 96.7314 9.53516 97.4229 8.65039C98.1143 7.75977 99.0195 7.31445 100.139 7.31445C101.252 7.31445 102.134 7.69531 102.784 8.45703V3.5H104.41V17H102.916L102.837 15.9805C102.187 16.7773 101.281 17.1758 100.121 17.1758C99.0195 17.1758 98.1201 16.7246 97.4229 15.8223C96.7314 14.9199 96.3857 13.7422 96.3857 12.2891V12.166ZM98.0117 12.3506C98.0117 13.4287 98.2344 14.2725 98.6797 14.8818C99.125 15.4912 99.7402 15.7959 100.525 15.7959C101.557 15.7959 102.31 15.333 102.784 14.4072V10.0391C102.298 9.14258 101.551 8.69434 100.543 8.69434C99.7461 8.69434 99.125 9.00195 98.6797 9.61719C98.2344 10.2324 98.0117 11.1436 98.0117 12.3506ZM108.708 17H107.082V7.49023H108.708V17ZM106.95 4.96777C106.95 4.7041 107.029 4.48145 107.188 4.2998C107.352 4.11816 107.592 4.02734 107.908 4.02734C108.225 4.02734 108.465 4.11816 108.629 4.2998C108.793 4.48145 108.875 4.7041 108.875 4.96777C108.875 5.23145 108.793 5.45117 108.629 5.62695C108.465 5.80273 108.225 5.89062 107.908 5.89062C107.592 5.89062 107.352 5.80273 107.188 5.62695C107.029 5.45117 106.95 5.23145 106.95 4.96777ZM115.915 8.94922C115.669 8.9082 115.402 8.8877 115.115 8.8877C114.049 8.8877 113.325 9.3418 112.944 10.25V17H111.318V7.49023H112.9L112.927 8.58887C113.46 7.73926 114.216 7.31445 115.194 7.31445C115.511 7.31445 115.751 7.35547 115.915 7.4375V8.94922ZM121.188 17.1758C119.899 17.1758 118.851 16.7539 118.042 15.9102C117.233 15.0605 116.829 13.9268 116.829 12.5088V12.21C116.829 11.2666 117.008 10.4258 117.365 9.6875C117.729 8.94336 118.232 8.36328 118.877 7.94727C119.527 7.52539 120.23 7.31445 120.986 7.31445C122.223 7.31445 123.184 7.72168 123.869 8.53613C124.555 9.35059 124.897 10.5166 124.897 12.0342V12.7109H118.455C118.479 13.6484 118.751 14.4072 119.272 14.9873C119.8 15.5615 120.468 15.8486 121.276 15.8486C121.851 15.8486 122.337 15.7314 122.735 15.4971C123.134 15.2627 123.482 14.9521 123.781 14.5654L124.774 15.3389C123.978 16.5635 122.782 17.1758 121.188 17.1758ZM120.986 8.65039C120.33 8.65039 119.779 8.89062 119.334 9.37109C118.889 9.8457 118.613 10.5137 118.508 11.375H123.271V11.252C123.225 10.4258 123.002 9.78711 122.604 9.33594C122.205 8.87891 121.666 8.65039 120.986 8.65039ZM130.602 15.8486C131.182 15.8486 131.688 15.6729 132.122 15.3213C132.556 14.9697 132.796 14.5303 132.843 14.0029H134.381C134.352 14.5479 134.164 15.0664 133.818 15.5586C133.473 16.0508 133.01 16.4434 132.43 16.7363C131.855 17.0293 131.246 17.1758 130.602 17.1758C129.307 17.1758 128.275 16.7451 127.508 15.8838C126.746 15.0166 126.365 13.833 126.365 12.333V12.0605C126.365 11.1348 126.535 10.3115 126.875 9.59082C127.215 8.87012 127.701 8.31055 128.334 7.91211C128.973 7.51367 129.726 7.31445 130.593 7.31445C131.659 7.31445 132.544 7.63379 133.247 8.27246C133.956 8.91113 134.334 9.74023 134.381 10.7598H132.843C132.796 10.1445 132.562 9.64062 132.14 9.24805C131.724 8.84961 131.208 8.65039 130.593 8.65039C129.767 8.65039 129.125 8.94922 128.668 9.54688C128.217 10.1387 127.991 10.9971 127.991 12.1221V12.4297C127.991 13.5254 128.217 14.3691 128.668 14.9609C129.119 15.5527 129.764 15.8486 130.602 15.8486ZM138.415 5.1875V7.49023H140.19V8.74707H138.415V14.6445C138.415 15.0254 138.494 15.3125 138.652 15.5059C138.811 15.6934 139.08 15.7871 139.461 15.7871C139.648 15.7871 139.906 15.752 140.234 15.6816V17C139.807 17.1172 139.391 17.1758 138.986 17.1758C138.26 17.1758 137.712 16.9561 137.343 16.5166C136.974 16.0771 136.789 15.4531 136.789 14.6445V8.74707H135.058V7.49023H136.789V5.1875H138.415ZM143.864 17H142.238V7.49023H143.864V17ZM142.106 4.96777C142.106 4.7041 142.186 4.48145 142.344 4.2998C142.508 4.11816 142.748 4.02734 143.064 4.02734C143.381 4.02734 143.621 4.11816 143.785 4.2998C143.949 4.48145 144.031 4.7041 144.031 4.96777C144.031 5.23145 143.949 5.45117 143.785 5.62695C143.621 5.80273 143.381 5.89062 143.064 5.89062C142.748 5.89062 142.508 5.80273 142.344 5.62695C142.186 5.45117 142.106 5.23145 142.106 4.96777ZM146.044 12.1572C146.044 11.2256 146.226 10.3877 146.589 9.64355C146.958 8.89941 147.468 8.3252 148.118 7.9209C148.774 7.5166 149.521 7.31445 150.359 7.31445C151.654 7.31445 152.7 7.7627 153.497 8.65918C154.3 9.55566 154.701 10.748 154.701 12.2363V12.3506C154.701 13.2764 154.522 14.1084 154.165 14.8467C153.813 15.5791 153.307 16.1504 152.645 16.5605C151.988 16.9707 151.232 17.1758 150.377 17.1758C149.088 17.1758 148.042 16.7275 147.239 15.8311C146.442 14.9346 146.044 13.748 146.044 12.2715V12.1572ZM147.679 12.3506C147.679 13.4053 147.922 14.252 148.408 14.8906C148.9 15.5293 149.557 15.8486 150.377 15.8486C151.203 15.8486 151.859 15.5264 152.346 14.8818C152.832 14.2314 153.075 13.3232 153.075 12.1572C153.075 11.1143 152.826 10.2705 152.328 9.62598C151.836 8.97559 151.18 8.65039 150.359 8.65039C149.557 8.65039 148.909 8.96973 148.417 9.6084C147.925 10.2471 147.679 11.1611 147.679 12.3506ZM158.278 7.49023L158.331 8.68555C159.058 7.77148 160.007 7.31445 161.179 7.31445C163.188 7.31445 164.202 8.44824 164.22 10.7158V17H162.594V10.707C162.588 10.0215 162.43 9.51465 162.119 9.18652C161.814 8.8584 161.337 8.69434 160.687 8.69434C160.159 8.69434 159.696 8.83496 159.298 9.11621C158.899 9.39746 158.589 9.7666 158.366 10.2236V17H156.74V7.49023H158.278ZM172.209 14.4775C172.209 14.0381 172.042 13.6982 171.708 13.458C171.38 13.2119 170.803 13.001 169.977 12.8252C169.156 12.6494 168.503 12.4385 168.017 12.1924C167.536 11.9463 167.179 11.6533 166.944 11.3135C166.716 10.9736 166.602 10.5693 166.602 10.1006C166.602 9.32129 166.93 8.66211 167.586 8.12305C168.248 7.58398 169.092 7.31445 170.117 7.31445C171.195 7.31445 172.068 7.59277 172.736 8.14941C173.41 8.70605 173.747 9.41797 173.747 10.2852H172.112C172.112 9.83984 171.922 9.45605 171.541 9.13379C171.166 8.81152 170.691 8.65039 170.117 8.65039C169.525 8.65039 169.062 8.7793 168.729 9.03711C168.395 9.29492 168.228 9.63184 168.228 10.0479C168.228 10.4404 168.383 10.7363 168.693 10.9355C169.004 11.1348 169.563 11.3252 170.372 11.5068C171.187 11.6885 171.846 11.9053 172.35 12.1572C172.854 12.4092 173.226 12.7139 173.466 13.0713C173.712 13.4229 173.835 13.8535 173.835 14.3633C173.835 15.2129 173.495 15.8955 172.815 16.4111C172.136 16.9209 171.254 17.1758 170.17 17.1758C169.408 17.1758 168.734 17.041 168.148 16.7715C167.562 16.502 167.103 16.127 166.769 15.6465C166.44 15.1602 166.276 14.6357 166.276 14.0732H167.902C167.932 14.6182 168.148 15.0518 168.553 15.374C168.963 15.6904 169.502 15.8486 170.17 15.8486C170.785 15.8486 171.277 15.7256 171.646 15.4795C172.021 15.2275 172.209 14.8936 172.209 14.4775Z" transform="translate(362 214)" fill="black"/>
<path d="M77.4013 0.707107C77.7918 0.316582 77.7918 -0.316582 77.4013 -0.707107L71.0373 -7.07107C70.6468 -7.46159 70.0137 -7.46159 69.6231 -7.07107C69.2326 -6.68054 69.2326 -6.04738 69.6231 -5.65685L75.28 0L69.6231 5.65685C69.2326 6.04738 69.2326 6.68054 69.6231 7.07107C70.0137 7.46159 70.6468 7.46159 71.0373 7.07107L77.4013 0.707107ZM0 1H76.6942V-1H0V1Z" transform="translate(424 146) rotate(-129.71)" fill="black"/>
<path d="M102.707 0.707107C103.098 0.316582 103.098 -0.316582 102.707 -0.707107L96.3431 -7.07107C95.9526 -7.46159 95.3195 -7.46159 94.9289 -7.07107C94.5384 -6.68054 94.5384 -6.04738 94.9289 -5.65685L100.586 0L94.9289 5.65685C94.5384 6.04738 94.5384 6.68054 94.9289 7.07107C95.3195 7.46159 95.9526 7.46159 96.3431 7.07107L102.707 0.707107ZM0 1H102V-1H0V1Z" transform="translate(488 69) rotate(180)" fill="black"/>
</svg>

