<svg width="530" height="185" viewBox="0 0 530 185" fill="none" xmlns="http://www.w3.org/2000/svg">
<circle cx="22" cy="22" r="22" transform="translate(0 47)" fill="#C4C4C4"/>
<circle cx="22" cy="22" r="22" transform="translate(144 47)" fill="#C4C4C4"/>
<circle cx="22" cy="22" r="22" transform="translate(75 141)" fill="#C4C4C4"/>
<circle cx="22" cy="22" r="22" transform="translate(342 47)" fill="#C4C4C4"/>
<circle cx="22" cy="22" r="22" transform="translate(486 47)" fill="#C4C4C4"/>
<circle cx="22" cy="22" r="22" transform="translate(417 141)" fill="#C4C4C4"/>
<path d="M25.7676 15.8486C26.3477 15.8486 26.8545 15.6729 27.2881 15.3213C27.7217 14.9697 27.9619 14.5303 28.0088 14.0029H29.5469C29.5176 14.5479 29.3301 15.0664 28.9844 15.5586C28.6387 16.0508 28.1758 16.4434 27.5957 16.7363C27.0215 17.0293 26.4121 17.1758 25.7676 17.1758C24.4727 17.1758 23.4414 16.7451 22.6738 15.8838C21.9121 15.0166 21.5312 13.833 21.5312 12.333V12.0605C21.5312 11.1348 21.7012 10.3115 22.041 9.59082C22.3809 8.87012 22.8672 8.31055 23.5 7.91211C24.1387 7.51367 24.8916 7.31445 25.7588 7.31445C26.8252 7.31445 27.71 7.63379 28.4131 8.27246C29.1221 8.91113 29.5 9.74023 29.5469 10.7598H28.0088C27.9619 10.1445 27.7275 9.64062 27.3057 9.24805C26.8896 8.84961 26.374 8.65039 25.7588 8.65039C24.9326 8.65039 24.291 8.94922 23.834 9.54688C23.3828 10.1387 23.1572 10.9971 23.1572 12.1221V12.4297C23.1572 13.5254 23.3828 14.3691 23.834 14.9609C24.2852 15.5527 24.9297 15.8486 25.7676 15.8486ZM34.4863 14.6182L36.7012 7.49023H38.4414L34.6182 18.4678C34.0264 20.0498 33.0859 20.8408 31.7969 20.8408L31.4893 20.8145L30.8828 20.7002V19.3818L31.3223 19.417C31.873 19.417 32.3008 19.3057 32.6055 19.083C32.916 18.8604 33.1709 18.4531 33.3701 17.8613L33.7305 16.8945L30.3379 7.49023H32.1133L34.4863 14.6182ZM43.5918 15.8486C44.1719 15.8486 44.6787 15.6729 45.1123 15.3213C45.5459 14.9697 45.7861 14.5303 45.833 14.0029H47.3711C47.3418 14.5479 47.1543 15.0664 46.8086 15.5586C46.4629 16.0508 46 16.4434 45.4199 16.7363C44.8457 17.0293 44.2363 17.1758 43.5918 17.1758C42.2969 17.1758 41.2656 16.7451 40.498 15.8838C39.7363 15.0166 39.3555 13.833 39.3555 12.333V12.0605C39.3555 11.1348 39.5254 10.3115 39.8652 9.59082C40.2051 8.87012 40.6914 8.31055 41.3242 7.91211C41.9629 7.51367 42.7158 7.31445 43.583 7.31445C44.6494 7.31445 45.5342 7.63379 46.2373 8.27246C46.9463 8.91113 47.3242 9.74023 47.3711 10.7598H45.833C45.7861 10.1445 45.5518 9.64062 45.1299 9.24805C44.7139 8.84961 44.1982 8.65039 43.583 8.65039C42.7568 8.65039 42.1152 8.94922 41.6582 9.54688C41.207 10.1387 40.9814 10.9971 40.9814 12.1221V12.4297C40.9814 13.5254 41.207 14.3691 41.6582 14.9609C42.1094 15.5527 42.7539 15.8486 43.5918 15.8486ZM50.9658 17H49.3398V3.5H50.9658V17ZM55.3428 17H53.7168V7.49023H55.3428V17ZM53.585 4.96777C53.585 4.7041 53.6641 4.48145 53.8223 4.2998C53.9863 4.11816 54.2266 4.02734 54.543 4.02734C54.8594 4.02734 55.0996 4.11816 55.2637 4.2998C55.4277 4.48145 55.5098 4.7041 55.5098 4.96777C55.5098 5.23145 55.4277 5.45117 55.2637 5.62695C55.0996 5.80273 54.8594 5.89062 54.543 5.89062C54.2266 5.89062 53.9863 5.80273 53.8223 5.62695C53.6641 5.45117 53.585 5.23145 53.585 4.96777ZM61.7676 15.8486C62.3477 15.8486 62.8545 15.6729 63.2881 15.3213C63.7217 14.9697 63.9619 14.5303 64.0088 14.0029H65.5469C65.5176 14.5479 65.3301 15.0664 64.9844 15.5586C64.6387 16.0508 64.1758 16.4434 63.5957 16.7363C63.0215 17.0293 62.4121 17.1758 61.7676 17.1758C60.4727 17.1758 59.4414 16.7451 58.6738 15.8838C57.9121 15.0166 57.5312 13.833 57.5312 12.333V12.0605C57.5312 11.1348 57.7012 10.3115 58.041 9.59082C58.3809 8.87012 58.8672 8.31055 59.5 7.91211C60.1387 7.51367 60.8916 7.31445 61.7588 7.31445C62.8252 7.31445 63.71 7.63379 64.4131 8.27246C65.1221 8.91113 65.5 9.74023 65.5469 10.7598H64.0088C63.9619 10.1445 63.7275 9.64062 63.3057 9.24805C62.8896 8.84961 62.374 8.65039 61.7588 8.65039C60.9326 8.65039 60.291 8.94922 59.834 9.54688C59.3828 10.1387 59.1572 10.9971 59.1572 12.1221V12.4297C59.1572 13.5254 59.3828 14.3691 59.834 14.9609C60.2852 15.5527 60.9297 15.8486 61.7676 15.8486ZM71.4531 12.166C71.4531 10.6836 71.7959 9.50586 72.4814 8.63281C73.167 7.75391 74.0752 7.31445 75.2061 7.31445C76.3662 7.31445 77.2715 7.72461 77.9219 8.54492L78.001 7.49023H79.4863V16.7715C79.4863 18.002 79.1201 18.9717 78.3877 19.6807C77.6611 20.3896 76.6826 20.7441 75.4521 20.7441C74.7666 20.7441 74.0957 20.5977 73.4395 20.3047C72.7832 20.0117 72.2822 19.6104 71.9365 19.1006L72.7803 18.125C73.4775 18.9863 74.3301 19.417 75.3379 19.417C76.1289 19.417 76.7441 19.1943 77.1836 18.749C77.6289 18.3037 77.8516 17.6768 77.8516 16.8682V16.0508C77.2012 16.8008 76.3135 17.1758 75.1885 17.1758C74.0752 17.1758 73.1729 16.7275 72.4814 15.8311C71.7959 14.9346 71.4531 13.7129 71.4531 12.166ZM73.0879 12.3506C73.0879 13.4229 73.3076 14.2666 73.7471 14.8818C74.1865 15.4912 74.8018 15.7959 75.5928 15.7959C76.6182 15.7959 77.3711 15.3301 77.8516 14.3984V10.0566C77.3535 9.14844 76.6064 8.69434 75.6104 8.69434C74.8193 8.69434 74.2012 9.00195 73.7559 9.61719C73.3105 10.2324 73.0879 11.1436 73.0879 12.3506ZM86.5439 8.94922C86.2979 8.9082 86.0312 8.8877 85.7441 8.8877C84.6777 8.8877 83.9541 9.3418 83.5732 10.25V17H81.9473V7.49023H83.5293L83.5557 8.58887C84.0889 7.73926 84.8447 7.31445 85.8232 7.31445C86.1396 7.31445 86.3799 7.35547 86.5439 7.4375V8.94922ZM93.5664 17C93.4727 16.8125 93.3965 16.4785 93.3379 15.998C92.582 16.7832 91.6797 17.1758 90.6309 17.1758C89.6934 17.1758 88.9229 16.9121 88.3193 16.3848C87.7217 15.8516 87.4229 15.1777 87.4229 14.3633C87.4229 13.373 87.7979 12.6055 88.5479 12.0605C89.3037 11.5098 90.3643 11.2344 91.7295 11.2344H93.3115V10.4873C93.3115 9.91895 93.1416 9.46777 92.8018 9.13379C92.4619 8.79395 91.9609 8.62402 91.2988 8.62402C90.7188 8.62402 90.2324 8.77051 89.8398 9.06348C89.4473 9.35645 89.251 9.71094 89.251 10.127H87.6162C87.6162 9.65234 87.7832 9.19531 88.1172 8.75586C88.457 8.31055 88.9141 7.95898 89.4883 7.70117C90.0684 7.44336 90.7041 7.31445 91.3955 7.31445C92.4912 7.31445 93.3496 7.58984 93.9707 8.14062C94.5918 8.68555 94.9141 9.43848 94.9375 10.3994V14.7764C94.9375 15.6494 95.0488 16.3438 95.2715 16.8594V17H93.5664ZM90.8682 15.7607C91.3779 15.7607 91.8613 15.6289 92.3184 15.3652C92.7754 15.1016 93.1064 14.7588 93.3115 14.3369V12.3857H92.0371C90.0449 12.3857 89.0488 12.9688 89.0488 14.1348C89.0488 14.6445 89.2188 15.043 89.5586 15.3301C89.8984 15.6172 90.335 15.7607 90.8682 15.7607ZM105.52 12.3506C105.52 13.7979 105.188 14.9639 104.526 15.8486C103.864 16.7334 102.968 17.1758 101.837 17.1758C100.683 17.1758 99.7744 16.8096 99.1123 16.0771V20.6562H97.4863V7.49023H98.9717L99.0508 8.54492C99.7129 7.72461 100.633 7.31445 101.811 7.31445C102.953 7.31445 103.855 7.74512 104.518 8.60645C105.186 9.46777 105.52 10.666 105.52 12.2012V12.3506ZM103.894 12.166C103.894 11.0938 103.665 10.2471 103.208 9.62598C102.751 9.00488 102.124 8.69434 101.327 8.69434C100.343 8.69434 99.6045 9.13086 99.1123 10.0039V14.5479C99.5986 15.415 100.343 15.8486 101.345 15.8486C102.124 15.8486 102.742 15.541 103.199 14.9258C103.662 14.3047 103.894 13.3848 103.894 12.166ZM109.22 8.6416C109.94 7.75684 110.878 7.31445 112.032 7.31445C114.042 7.31445 115.056 8.44824 115.073 10.7158V17H113.447V10.707C113.441 10.0215 113.283 9.51465 112.973 9.18652C112.668 8.8584 112.19 8.69434 111.54 8.69434C111.013 8.69434 110.55 8.83496 110.151 9.11621C109.753 9.39746 109.442 9.7666 109.22 10.2236V17H107.594V3.5H109.22V8.6416Z" transform="translate(35)" fill="black"/>
<path d="M22.9287 17C22.835 16.8125 22.7588 16.4785 22.7002 15.998C21.9443 16.7832 21.042 17.1758 19.9932 17.1758C19.0557 17.1758 18.2852 16.9121 17.6816 16.3848C17.084 15.8516 16.7852 15.1777 16.7852 14.3633C16.7852 13.373 17.1602 12.6055 17.9102 12.0605C18.666 11.5098 19.7266 11.2344 21.0918 11.2344H22.6738V10.4873C22.6738 9.91895 22.5039 9.46777 22.1641 9.13379C21.8242 8.79395 21.3232 8.62402 20.6611 8.62402C20.0811 8.62402 19.5947 8.77051 19.2021 9.06348C18.8096 9.35645 18.6133 9.71094 18.6133 10.127H16.9785C16.9785 9.65234 17.1455 9.19531 17.4795 8.75586C17.8193 8.31055 18.2764 7.95898 18.8506 7.70117C19.4307 7.44336 20.0664 7.31445 20.7578 7.31445C21.8535 7.31445 22.7119 7.58984 23.333 8.14062C23.9541 8.68555 24.2764 9.43848 24.2998 10.3994V14.7764C24.2998 15.6494 24.4111 16.3438 24.6338 16.8594V17H22.9287ZM20.2305 15.7607C20.7402 15.7607 21.2236 15.6289 21.6807 15.3652C22.1377 15.1016 22.4688 14.7588 22.6738 14.3369V12.3857H21.3994C19.4072 12.3857 18.4111 12.9688 18.4111 14.1348C18.4111 14.6445 18.5811 15.043 18.9209 15.3301C19.2607 15.6172 19.6973 15.7607 20.2305 15.7607ZM30.6631 15.8486C31.2432 15.8486 31.75 15.6729 32.1836 15.3213C32.6172 14.9697 32.8574 14.5303 32.9043 14.0029H34.4424C34.4131 14.5479 34.2256 15.0664 33.8799 15.5586C33.5342 16.0508 33.0713 16.4434 32.4912 16.7363C31.917 17.0293 31.3076 17.1758 30.6631 17.1758C29.3682 17.1758 28.3369 16.7451 27.5693 15.8838C26.8076 15.0166 26.4268 13.833 26.4268 12.333V12.0605C26.4268 11.1348 26.5967 10.3115 26.9365 9.59082C27.2764 8.87012 27.7627 8.31055 28.3955 7.91211C29.0342 7.51367 29.7871 7.31445 30.6543 7.31445C31.7207 7.31445 32.6055 7.63379 33.3086 8.27246C34.0176 8.91113 34.3955 9.74023 34.4424 10.7598H32.9043C32.8574 10.1445 32.623 9.64062 32.2012 9.24805C31.7852 8.84961 31.2695 8.65039 30.6543 8.65039C29.8281 8.65039 29.1865 8.94922 28.7295 9.54688C28.2783 10.1387 28.0527 10.9971 28.0527 12.1221V12.4297C28.0527 13.5254 28.2783 14.3691 28.7295 14.9609C29.1807 15.5527 29.8252 15.8486 30.6631 15.8486ZM39.3818 14.6182L41.5967 7.49023H43.3369L39.5137 18.4678C38.9219 20.0498 37.9814 20.8408 36.6924 20.8408L36.3848 20.8145L35.7783 20.7002V19.3818L36.2178 19.417C36.7686 19.417 37.1963 19.3057 37.501 19.083C37.8115 18.8604 38.0664 18.4531 38.2656 17.8613L38.626 16.8945L35.2334 7.49023H37.0088L39.3818 14.6182ZM48.4873 15.8486C49.0674 15.8486 49.5742 15.6729 50.0078 15.3213C50.4414 14.9697 50.6816 14.5303 50.7285 14.0029H52.2666C52.2373 14.5479 52.0498 15.0664 51.7041 15.5586C51.3584 16.0508 50.8955 16.4434 50.3154 16.7363C49.7412 17.0293 49.1318 17.1758 48.4873 17.1758C47.1924 17.1758 46.1611 16.7451 45.3936 15.8838C44.6318 15.0166 44.251 13.833 44.251 12.333V12.0605C44.251 11.1348 44.4209 10.3115 44.7607 9.59082C45.1006 8.87012 45.5869 8.31055 46.2197 7.91211C46.8584 7.51367 47.6113 7.31445 48.4785 7.31445C49.5449 7.31445 50.4297 7.63379 51.1328 8.27246C51.8418 8.91113 52.2197 9.74023 52.2666 10.7598H50.7285C50.6816 10.1445 50.4473 9.64062 50.0254 9.24805C49.6094 8.84961 49.0938 8.65039 48.4785 8.65039C47.6523 8.65039 47.0107 8.94922 46.5537 9.54688C46.1025 10.1387 45.877 10.9971 45.877 12.1221V12.4297C45.877 13.5254 46.1025 14.3691 46.5537 14.9609C47.0049 15.5527 47.6494 15.8486 48.4873 15.8486ZM55.8613 17H54.2354V3.5H55.8613V17ZM60.2383 17H58.6123V7.49023H60.2383V17ZM58.4805 4.96777C58.4805 4.7041 58.5596 4.48145 58.7178 4.2998C58.8818 4.11816 59.1221 4.02734 59.4385 4.02734C59.7549 4.02734 59.9951 4.11816 60.1592 4.2998C60.3232 4.48145 60.4053 4.7041 60.4053 4.96777C60.4053 5.23145 60.3232 5.45117 60.1592 5.62695C59.9951 5.80273 59.7549 5.89062 59.4385 5.89062C59.1221 5.89062 58.8818 5.80273 58.7178 5.62695C58.5596 5.45117 58.4805 5.23145 58.4805 4.96777ZM66.6631 15.8486C67.2432 15.8486 67.75 15.6729 68.1836 15.3213C68.6172 14.9697 68.8574 14.5303 68.9043 14.0029H70.4424C70.4131 14.5479 70.2256 15.0664 69.8799 15.5586C69.5342 16.0508 69.0713 16.4434 68.4912 16.7363C67.917 17.0293 67.3076 17.1758 66.6631 17.1758C65.3682 17.1758 64.3369 16.7451 63.5693 15.8838C62.8076 15.0166 62.4268 13.833 62.4268 12.333V12.0605C62.4268 11.1348 62.5967 10.3115 62.9365 9.59082C63.2764 8.87012 63.7627 8.31055 64.3955 7.91211C65.0342 7.51367 65.7871 7.31445 66.6543 7.31445C67.7207 7.31445 68.6055 7.63379 69.3086 8.27246C70.0176 8.91113 70.3955 9.74023 70.4424 10.7598H68.9043C68.8574 10.1445 68.623 9.64062 68.2012 9.24805C67.7852 8.84961 67.2695 8.65039 66.6543 8.65039C65.8281 8.65039 65.1865 8.94922 64.7295 9.54688C64.2783 10.1387 64.0527 10.9971 64.0527 12.1221V12.4297C64.0527 13.5254 64.2783 14.3691 64.7295 14.9609C65.1807 15.5527 65.8252 15.8486 66.6631 15.8486ZM76.3486 12.166C76.3486 10.6836 76.6914 9.50586 77.377 8.63281C78.0625 7.75391 78.9707 7.31445 80.1016 7.31445C81.2617 7.31445 82.167 7.72461 82.8174 8.54492L82.8965 7.49023H84.3818V16.7715C84.3818 18.002 84.0156 18.9717 83.2832 19.6807C82.5566 20.3896 81.5781 20.7441 80.3477 20.7441C79.6621 20.7441 78.9912 20.5977 78.335 20.3047C77.6787 20.0117 77.1777 19.6104 76.832 19.1006L77.6758 18.125C78.373 18.9863 79.2256 19.417 80.2334 19.417C81.0244 19.417 81.6396 19.1943 82.0791 18.749C82.5244 18.3037 82.7471 17.6768 82.7471 16.8682V16.0508C82.0967 16.8008 81.209 17.1758 80.084 17.1758C78.9707 17.1758 78.0684 16.7275 77.377 15.8311C76.6914 14.9346 76.3486 13.7129 76.3486 12.166ZM77.9834 12.3506C77.9834 13.4229 78.2031 14.2666 78.6426 14.8818C79.082 15.4912 79.6973 15.7959 80.4883 15.7959C81.5137 15.7959 82.2666 15.3301 82.7471 14.3984V10.0566C82.249 9.14844 81.502 8.69434 80.5059 8.69434C79.7148 8.69434 79.0967 9.00195 78.6514 9.61719C78.2061 10.2324 77.9834 11.1436 77.9834 12.3506ZM91.4395 8.94922C91.1934 8.9082 90.9268 8.8877 90.6396 8.8877C89.5732 8.8877 88.8496 9.3418 88.4688 10.25V17H86.8428V7.49023H88.4248L88.4512 8.58887C88.9844 7.73926 89.7402 7.31445 90.7188 7.31445C91.0352 7.31445 91.2754 7.35547 91.4395 7.4375V8.94922ZM98.4619 17C98.3682 16.8125 98.292 16.4785 98.2334 15.998C97.4775 16.7832 96.5752 17.1758 95.5264 17.1758C94.5889 17.1758 93.8184 16.9121 93.2148 16.3848C92.6172 15.8516 92.3184 15.1777 92.3184 14.3633C92.3184 13.373 92.6934 12.6055 93.4434 12.0605C94.1992 11.5098 95.2598 11.2344 96.625 11.2344H98.207V10.4873C98.207 9.91895 98.0371 9.46777 97.6973 9.13379C97.3574 8.79395 96.8564 8.62402 96.1943 8.62402C95.6143 8.62402 95.1279 8.77051 94.7354 9.06348C94.3428 9.35645 94.1465 9.71094 94.1465 10.127H92.5117C92.5117 9.65234 92.6787 9.19531 93.0127 8.75586C93.3525 8.31055 93.8096 7.95898 94.3838 7.70117C94.9639 7.44336 95.5996 7.31445 96.291 7.31445C97.3867 7.31445 98.2451 7.58984 98.8662 8.14062C99.4873 8.68555 99.8096 9.43848 99.833 10.3994V14.7764C99.833 15.6494 99.9443 16.3438 100.167 16.8594V17H98.4619ZM95.7637 15.7607C96.2734 15.7607 96.7568 15.6289 97.2139 15.3652C97.6709 15.1016 98.002 14.7588 98.207 14.3369V12.3857H96.9326C94.9404 12.3857 93.9443 12.9688 93.9443 14.1348C93.9443 14.6445 94.1143 15.043 94.4541 15.3301C94.7939 15.6172 95.2305 15.7607 95.7637 15.7607ZM110.415 12.3506C110.415 13.7979 110.084 14.9639 109.422 15.8486C108.76 16.7334 107.863 17.1758 106.732 17.1758C105.578 17.1758 104.67 16.8096 104.008 16.0771V20.6562H102.382V7.49023H103.867L103.946 8.54492C104.608 7.72461 105.528 7.31445 106.706 7.31445C107.849 7.31445 108.751 7.74512 109.413 8.60645C110.081 9.46777 110.415 10.666 110.415 12.2012V12.3506ZM108.789 12.166C108.789 11.0938 108.561 10.2471 108.104 9.62598C107.646 9.00488 107.02 8.69434 106.223 8.69434C105.238 8.69434 104.5 9.13086 104.008 10.0039V14.5479C104.494 15.415 105.238 15.8486 106.24 15.8486C107.02 15.8486 107.638 15.541 108.095 14.9258C108.558 14.3047 108.789 13.3848 108.789 12.166ZM114.115 8.6416C114.836 7.75684 115.773 7.31445 116.928 7.31445C118.938 7.31445 119.951 8.44824 119.969 10.7158V17H118.343V10.707C118.337 10.0215 118.179 9.51465 117.868 9.18652C117.563 8.8584 117.086 8.69434 116.436 8.69434C115.908 8.69434 115.445 8.83496 115.047 9.11621C114.648 9.39746 114.338 9.7666 114.115 10.2236V17H112.489V3.5H114.115V8.6416Z" transform="translate(375)" fill="black"/>
<path d="M77.4013 0.707107C77.7918 0.316582 77.7918 -0.316582 77.4013 -0.707107L71.0373 -7.07107C70.6468 -7.46159 70.0137 -7.46159 69.6231 -7.07107C69.2326 -6.68054 69.2326 -6.04738 69.6231 -5.65685L75.28 0L69.6231 5.65685C69.2326 6.04738 69.2326 6.68054 69.6231 7.07107C70.0137 7.46159 70.6468 7.46159 71.0373 7.07107L77.4013 0.707107ZM0 1H76.6942V-1H0V1Z" transform="translate(424 146) rotate(-129.71)" fill="black"/>
<path d="M77.4013 0.707107C77.7918 0.316582 77.7918 -0.316582 77.4013 -0.707107L71.0373 -7.07107C70.6468 -7.46159 70.0137 -7.46159 69.6231 -7.07107C69.2326 -6.68054 69.2326 -6.04738 69.6231 -5.65685L75.28 0L69.6231 5.65685C69.2326 6.04738 69.2326 6.68054 69.6231 7.07107C70.0137 7.46159 70.6468 7.46159 71.0373 7.07107L77.4013 0.707107ZM0 1H76.6942V-1H0V1Z" transform="translate(84 146) rotate(-129.71)" fill="black"/>
<path d="M73.401 0.707107C73.7916 0.316582 73.7916 -0.316582 73.401 -0.707107L67.0371 -7.07107C66.6466 -7.46159 66.0134 -7.46159 65.6229 -7.07107C65.2323 -6.68054 65.2323 -6.04738 65.6229 -5.65685L71.2797 0L65.6229 5.65685C65.2323 6.04738 65.2323 6.68054 65.6229 7.07107C66.0134 7.46159 66.6466 7.46159 67.0371 7.07107L73.401 0.707107ZM0 1H72.6939V-1H0V1Z" transform="translate(154 87) rotate(125.294)" fill="black"/>
<path d="M102.707 0.707107C103.098 0.316582 103.098 -0.316582 102.707 -0.707107L96.3431 -7.07107C95.9526 -7.46159 95.3195 -7.46159 94.9289 -7.07107C94.5384 -6.68054 94.5384 -6.04738 94.9289 -5.65685L100.586 0L94.9289 5.65685C94.5384 6.04738 94.5384 6.68054 94.9289 7.07107C95.3195 7.46159 95.9526 7.46159 96.3431 7.07107L102.707 0.707107ZM0 1H102V-1H0V1Z" transform="translate(488 69) rotate(180)" fill="black"/>
<path d="M102.707 0.707107C103.098 0.316582 103.098 -0.316582 102.707 -0.707107L96.3431 -7.07107C95.9526 -7.46159 95.3195 -7.46159 94.9289 -7.07107C94.5384 -6.68054 94.5384 -6.04738 94.9289 -5.65685L100.586 0L94.9289 5.65685C94.5384 6.04738 94.5384 6.68054 94.9289 7.07107C95.3195 7.46159 95.9526 7.46159 96.3431 7.07107L102.707 0.707107ZM0 1H102V-1H0V1Z" transform="translate(44 69)" fill="black"/>
</svg>

