<svg width="818" height="230" viewBox="0 0 818 230" fill="none" xmlns="http://www.w3.org/2000/svg">
<circle cx="22" cy="22" r="22" transform="translate(0 92)" fill="#C4C4C4"/>
<circle cx="5.5" cy="5.5" r="5.5" transform="translate(122 27)" fill="#C4C4C4"/>
<circle cx="22" cy="22" r="22" transform="translate(144 92)" fill="#C4C4C4"/>
<circle cx="22" cy="22" r="22" transform="translate(75 186)" fill="#C4C4C4"/>
<circle cx="22" cy="22" r="22" transform="translate(283 92)" fill="#C4C4C4"/>
<circle cx="22" cy="22" r="22" transform="translate(427 92)" fill="#C4C4C4"/>
<circle cx="22" cy="22" r="22" transform="translate(358 186)" fill="#C4C4C4"/>
<line y1="-0.5" x2="100" y2="-0.5" transform="translate(327 114)" stroke="black"/>
<line y1="-0.5" x2="79.3095" y2="-0.5" transform="translate(449 136) rotate(131.934)" stroke="black"/>
<line y1="-0.5" x2="79.3095" y2="-0.5" transform="translate(369 191) rotate(-131.934)" stroke="black"/>
<path d="M8.55176 13.6602H3.19043L1.98633 17H0.246094L5.13281 4.20312H6.60938L11.5049 17H9.77344L8.55176 13.6602ZM3.7002 12.2715H8.05078L5.87109 6.28613L3.7002 12.2715ZM17.0508 12.166C17.0508 10.6836 17.3936 9.50586 18.0791 8.63281C18.7646 7.75391 19.6729 7.31445 20.8037 7.31445C21.9639 7.31445 22.8691 7.72461 23.5195 8.54492L23.5986 7.49023H25.084V16.7715C25.084 18.002 24.7178 18.9717 23.9854 19.6807C23.2588 20.3896 22.2803 20.7441 21.0498 20.7441C20.3643 20.7441 19.6934 20.5977 19.0371 20.3047C18.3809 20.0117 17.8799 19.6104 17.5342 19.1006L18.3779 18.125C19.0752 18.9863 19.9277 19.417 20.9355 19.417C21.7266 19.417 22.3418 19.1943 22.7812 18.749C23.2266 18.3037 23.4492 17.6768 23.4492 16.8682V16.0508C22.7988 16.8008 21.9111 17.1758 20.7861 17.1758C19.6729 17.1758 18.7705 16.7275 18.0791 15.8311C17.3936 14.9346 17.0508 13.7129 17.0508 12.166ZM18.6855 12.3506C18.6855 13.4229 18.9053 14.2666 19.3447 14.8818C19.7842 15.4912 20.3994 15.7959 21.1904 15.7959C22.2158 15.7959 22.9688 15.3301 23.4492 14.3984V10.0566C22.9512 9.14844 22.2041 8.69434 21.208 8.69434C20.417 8.69434 19.7988 9.00195 19.3535 9.61719C18.9082 10.2324 18.6855 11.1436 18.6855 12.3506ZM32.1416 8.94922C31.8955 8.9082 31.6289 8.8877 31.3418 8.8877C30.2754 8.8877 29.5518 9.3418 29.1709 10.25V17H27.5449V7.49023H29.127L29.1533 8.58887C29.6865 7.73926 30.4424 7.31445 31.4209 7.31445C31.7373 7.31445 31.9775 7.35547 32.1416 7.4375V8.94922ZM39.1641 17C39.0703 16.8125 38.9941 16.4785 38.9355 15.998C38.1797 16.7832 37.2773 17.1758 36.2285 17.1758C35.291 17.1758 34.5205 16.9121 33.917 16.3848C33.3193 15.8516 33.0205 15.1777 33.0205 14.3633C33.0205 13.373 33.3955 12.6055 34.1455 12.0605C34.9014 11.5098 35.9619 11.2344 37.3271 11.2344H38.9092V10.4873C38.9092 9.91895 38.7393 9.46777 38.3994 9.13379C38.0596 8.79395 37.5586 8.62402 36.8965 8.62402C36.3164 8.62402 35.8301 8.77051 35.4375 9.06348C35.0449 9.35645 34.8486 9.71094 34.8486 10.127H33.2139C33.2139 9.65234 33.3809 9.19531 33.7148 8.75586C34.0547 8.31055 34.5117 7.95898 35.0859 7.70117C35.666 7.44336 36.3018 7.31445 36.9932 7.31445C38.0889 7.31445 38.9473 7.58984 39.5684 8.14062C40.1895 8.68555 40.5117 9.43848 40.5352 10.3994V14.7764C40.5352 15.6494 40.6465 16.3438 40.8691 16.8594V17H39.1641ZM36.4658 15.7607C36.9756 15.7607 37.459 15.6289 37.916 15.3652C38.373 15.1016 38.7041 14.7588 38.9092 14.3369V12.3857H37.6348C35.6426 12.3857 34.6465 12.9688 34.6465 14.1348C34.6465 14.6445 34.8164 15.043 35.1562 15.3301C35.4961 15.6172 35.9326 15.7607 36.4658 15.7607ZM51.1172 12.3506C51.1172 13.7979 50.7861 14.9639 50.124 15.8486C49.4619 16.7334 48.5654 17.1758 47.4346 17.1758C46.2803 17.1758 45.3721 16.8096 44.71 16.0771V20.6562H43.084V7.49023H44.5693L44.6484 8.54492C45.3105 7.72461 46.2305 7.31445 47.4082 7.31445C48.5508 7.31445 49.4531 7.74512 50.1152 8.60645C50.7832 9.46777 51.1172 10.666 51.1172 12.2012V12.3506ZM49.4912 12.166C49.4912 11.0938 49.2627 10.2471 48.8057 9.62598C48.3486 9.00488 47.7217 8.69434 46.9248 8.69434C45.9404 8.69434 45.2021 9.13086 44.71 10.0039V14.5479C45.1963 15.415 45.9404 15.8486 46.9424 15.8486C47.7217 15.8486 48.3398 15.541 48.7969 14.9258C49.2598 14.3047 49.4912 13.3848 49.4912 12.166ZM54.8174 8.6416C55.5381 7.75684 56.4756 7.31445 57.6299 7.31445C59.6396 7.31445 60.6533 8.44824 60.6709 10.7158V17H59.0449V10.707C59.0391 10.0215 58.8809 9.51465 58.5703 9.18652C58.2656 8.8584 57.7881 8.69434 57.1377 8.69434C56.6104 8.69434 56.1475 8.83496 55.749 9.11621C55.3506 9.39746 55.04 9.7666 54.8174 10.2236V17H53.1914V3.5H54.8174V8.6416ZM75.9902 14.7588L77.8184 7.49023H79.4443L76.6758 17H75.3574L73.0459 9.79297L70.7959 17H69.4775L66.7178 7.49023H68.335L70.207 14.6094L72.4219 7.49023H73.7314L75.9902 14.7588ZM82.8721 17H81.2461V7.49023H82.8721V17ZM81.1143 4.96777C81.1143 4.7041 81.1934 4.48145 81.3516 4.2998C81.5156 4.11816 81.7559 4.02734 82.0723 4.02734C82.3887 4.02734 82.6289 4.11816 82.793 4.2998C82.957 4.48145 83.0391 4.7041 83.0391 4.96777C83.0391 5.23145 82.957 5.45117 82.793 5.62695C82.6289 5.80273 82.3887 5.89062 82.0723 5.89062C81.7559 5.89062 81.5156 5.80273 81.3516 5.62695C81.1934 5.45117 81.1143 5.23145 81.1143 4.96777ZM87.6885 5.1875V7.49023H89.4639V8.74707H87.6885V14.6445C87.6885 15.0254 87.7676 15.3125 87.9258 15.5059C88.084 15.6934 88.3535 15.7871 88.7344 15.7871C88.9219 15.7871 89.1797 15.752 89.5078 15.6816V17C89.0801 17.1172 88.6641 17.1758 88.2598 17.1758C87.5332 17.1758 86.9854 16.9561 86.6162 16.5166C86.2471 16.0771 86.0625 15.4531 86.0625 14.6445V8.74707H84.3311V7.49023H86.0625V5.1875H87.6885ZM92.9971 8.6416C93.7178 7.75684 94.6553 7.31445 95.8096 7.31445C97.8193 7.31445 98.833 8.44824 98.8506 10.7158V17H97.2246V10.707C97.2188 10.0215 97.0605 9.51465 96.75 9.18652C96.4453 8.8584 95.9678 8.69434 95.3174 8.69434C94.79 8.69434 94.3271 8.83496 93.9287 9.11621C93.5303 9.39746 93.2197 9.7666 92.9971 10.2236V17H91.3711V3.5H92.9971V8.6416ZM3.42773 30.8105H4.64941C5.41699 30.7988 6.02051 30.5967 6.45996 30.2041C6.89941 29.8115 7.11914 29.2812 7.11914 28.6133C7.11914 27.1133 6.37207 26.3633 4.87793 26.3633C4.1748 26.3633 3.6123 26.5654 3.19043 26.9697C2.77441 27.3682 2.56641 27.8984 2.56641 28.5605H0.94043C0.94043 27.5469 1.30957 26.7061 2.04785 26.0381C2.79199 25.3643 3.73535 25.0273 4.87793 25.0273C6.08496 25.0273 7.03125 25.3467 7.7168 25.9854C8.40234 26.624 8.74512 27.5117 8.74512 28.6484C8.74512 29.2051 8.56348 29.7441 8.2002 30.2656C7.84277 30.7871 7.35352 31.1768 6.73242 31.4346C7.43555 31.6572 7.97754 32.0264 8.3584 32.542C8.74512 33.0576 8.93848 33.6875 8.93848 34.4316C8.93848 35.5801 8.56348 36.4912 7.81348 37.165C7.06348 37.8389 6.08789 38.1758 4.88672 38.1758C3.68555 38.1758 2.70703 37.8506 1.95117 37.2002C1.20117 36.5498 0.826172 35.6914 0.826172 34.625H2.46094C2.46094 35.2988 2.68066 35.8379 3.12012 36.2422C3.55957 36.6465 4.14844 36.8486 4.88672 36.8486C5.67188 36.8486 6.27246 36.6436 6.68848 36.2334C7.10449 35.8232 7.3125 35.2344 7.3125 34.4668C7.3125 33.7227 7.08398 33.1514 6.62695 32.7529C6.16992 32.3545 5.51074 32.1494 4.64941 32.1377H3.42773V30.8105ZM17.3408 28.4902L17.3936 29.6855C18.1201 28.7715 19.0693 28.3145 20.2412 28.3145C22.251 28.3145 23.2646 29.4482 23.2822 31.7158V38H21.6562V31.707C21.6504 31.0215 21.4922 30.5146 21.1816 30.1865C20.877 29.8584 20.3994 29.6943 19.749 29.6943C19.2217 29.6943 18.7588 29.835 18.3604 30.1162C17.9619 30.3975 17.6514 30.7666 17.4287 31.2236V38H15.8027V28.4902H17.3408ZM25.3037 33.1572C25.3037 32.2256 25.4854 31.3877 25.8486 30.6436C26.2178 29.8994 26.7275 29.3252 27.3779 28.9209C28.0342 28.5166 28.7812 28.3145 29.6191 28.3145C30.9141 28.3145 31.96 28.7627 32.7568 29.6592C33.5596 30.5557 33.9609 31.748 33.9609 33.2363V33.3506C33.9609 34.2764 33.7822 35.1084 33.4248 35.8467C33.0732 36.5791 32.5664 37.1504 31.9043 37.5605C31.248 37.9707 30.4922 38.1758 29.6367 38.1758C28.3477 38.1758 27.3018 37.7275 26.499 36.8311C25.7021 35.9346 25.3037 34.748 25.3037 33.2715V33.1572ZM26.9385 33.3506C26.9385 34.4053 27.1816 35.252 27.668 35.8906C28.1602 36.5293 28.8164 36.8486 29.6367 36.8486C30.4629 36.8486 31.1191 36.5264 31.6055 35.8818C32.0918 35.2314 32.335 34.3232 32.335 33.1572C32.335 32.1143 32.0859 31.2705 31.5879 30.626C31.0957 29.9756 30.4395 29.6504 29.6191 29.6504C28.8164 29.6504 28.1689 29.9697 27.6768 30.6084C27.1846 31.2471 26.9385 32.1611 26.9385 33.3506ZM35.6045 33.166C35.6045 31.707 35.9502 30.5352 36.6416 29.6504C37.333 28.7598 38.2383 28.3145 39.3574 28.3145C40.4707 28.3145 41.3525 28.6953 42.0029 29.457V24.5H43.6289V38H42.1348L42.0557 36.9805C41.4053 37.7773 40.5 38.1758 39.3398 38.1758C38.2383 38.1758 37.3389 37.7246 36.6416 36.8223C35.9502 35.9199 35.6045 34.7422 35.6045 33.2891V33.166ZM37.2305 33.3506C37.2305 34.4287 37.4531 35.2725 37.8984 35.8818C38.3438 36.4912 38.959 36.7959 39.7441 36.7959C40.7754 36.7959 41.5283 36.333 42.0029 35.4072V31.0391C41.5166 30.1426 40.7695 29.6943 39.7617 29.6943C38.9648 29.6943 38.3438 30.002 37.8984 30.6172C37.4531 31.2324 37.2305 32.1436 37.2305 33.3506ZM50.1064 38.1758C48.8174 38.1758 47.7686 37.7539 46.96 36.9102C46.1514 36.0605 45.7471 34.9268 45.7471 33.5088V33.21C45.7471 32.2666 45.9258 31.4258 46.2832 30.6875C46.6465 29.9434 47.1504 29.3633 47.7949 28.9473C48.4453 28.5254 49.1484 28.3145 49.9043 28.3145C51.1406 28.3145 52.1016 28.7217 52.7871 29.5361C53.4727 30.3506 53.8154 31.5166 53.8154 33.0342V33.7109H47.373C47.3965 34.6484 47.6689 35.4072 48.1904 35.9873C48.7178 36.5615 49.3857 36.8486 50.1943 36.8486C50.7686 36.8486 51.2549 36.7314 51.6533 36.4971C52.0518 36.2627 52.4004 35.9521 52.6992 35.5654L53.6924 36.3389C52.8955 37.5635 51.7002 38.1758 50.1064 38.1758ZM49.9043 29.6504C49.248 29.6504 48.6973 29.8906 48.252 30.3711C47.8066 30.8457 47.5312 31.5137 47.4258 32.375H52.1895V32.252C52.1426 31.4258 51.9199 30.7871 51.5215 30.3359C51.123 29.8789 50.584 29.6504 49.9043 29.6504ZM61.2422 35.4775C61.2422 35.0381 61.0752 34.6982 60.7412 34.458C60.4131 34.2119 59.8359 34.001 59.0098 33.8252C58.1895 33.6494 57.5361 33.4385 57.0498 33.1924C56.5693 32.9463 56.2119 32.6533 55.9775 32.3135C55.749 31.9736 55.6348 31.5693 55.6348 31.1006C55.6348 30.3213 55.9629 29.6621 56.6191 29.123C57.2812 28.584 58.125 28.3145 59.1504 28.3145C60.2285 28.3145 61.1016 28.5928 61.7695 29.1494C62.4434 29.7061 62.7803 30.418 62.7803 31.2852H61.1455C61.1455 30.8398 60.9551 30.4561 60.5742 30.1338C60.1992 29.8115 59.7246 29.6504 59.1504 29.6504C58.5586 29.6504 58.0957 29.7793 57.7617 30.0371C57.4277 30.2949 57.2607 30.6318 57.2607 31.0479C57.2607 31.4404 57.416 31.7363 57.7266 31.9355C58.0371 32.1348 58.5967 32.3252 59.4053 32.5068C60.2197 32.6885 60.8789 32.9053 61.3828 33.1572C61.8867 33.4092 62.2588 33.7139 62.499 34.0713C62.7451 34.4229 62.8682 34.8535 62.8682 35.3633C62.8682 36.2129 62.5283 36.8955 61.8486 37.4111C61.1689 37.9209 60.2871 38.1758 59.2031 38.1758C58.4414 38.1758 57.7676 38.041 57.1816 37.7715C56.5957 37.502 56.1357 37.127 55.8018 36.6465C55.4736 36.1602 55.3096 35.6357 55.3096 35.0732H56.9355C56.9648 35.6182 57.1816 36.0518 57.5859 36.374C57.9961 36.6904 58.5352 36.8486 59.2031 36.8486C59.8184 36.8486 60.3105 36.7256 60.6797 36.4795C61.0547 36.2275 61.2422 35.8936 61.2422 35.4775ZM93.1816 38C93.0879 37.8125 93.0117 37.4785 92.9531 36.998C92.1973 37.7832 91.2949 38.1758 90.2461 38.1758C89.3086 38.1758 88.5381 37.9121 87.9346 37.3848C87.3369 36.8516 87.0381 36.1777 87.0381 35.3633C87.0381 34.373 87.4131 33.6055 88.1631 33.0605C88.9189 32.5098 89.9795 32.2344 91.3447 32.2344H92.9268V31.4873C92.9268 30.9189 92.7568 30.4678 92.417 30.1338C92.0771 29.7939 91.5762 29.624 90.9141 29.624C90.334 29.624 89.8477 29.7705 89.4551 30.0635C89.0625 30.3564 88.8662 30.7109 88.8662 31.127H87.2314C87.2314 30.6523 87.3984 30.1953 87.7324 29.7559C88.0723 29.3105 88.5293 28.959 89.1035 28.7012C89.6836 28.4434 90.3193 28.3145 91.0107 28.3145C92.1064 28.3145 92.9648 28.5898 93.5859 29.1406C94.207 29.6855 94.5293 30.4385 94.5527 31.3994V35.7764C94.5527 36.6494 94.6641 37.3438 94.8867 37.8594V38H93.1816ZM90.4834 36.7607C90.9932 36.7607 91.4766 36.6289 91.9336 36.3652C92.3906 36.1016 92.7217 35.7588 92.9268 35.3369V33.3857H91.6523C89.6602 33.3857 88.6641 33.9688 88.6641 35.1348C88.6641 35.6445 88.834 36.043 89.1738 36.3301C89.5137 36.6172 89.9502 36.7607 90.4834 36.7607ZM98.6396 28.4902L98.6924 29.6855C99.4189 28.7715 100.368 28.3145 101.54 28.3145C103.55 28.3145 104.563 29.4482 104.581 31.7158V38H102.955V31.707C102.949 31.0215 102.791 30.5146 102.48 30.1865C102.176 29.8584 101.698 29.6943 101.048 29.6943C100.521 29.6943 100.058 29.835 99.6592 30.1162C99.2607 30.3975 98.9502 30.7666 98.7275 31.2236V38H97.1016V28.4902H98.6396ZM106.638 33.166C106.638 31.707 106.983 30.5352 107.675 29.6504C108.366 28.7598 109.271 28.3145 110.391 28.3145C111.504 28.3145 112.386 28.6953 113.036 29.457V24.5H114.662V38H113.168L113.089 36.9805C112.438 37.7773 111.533 38.1758 110.373 38.1758C109.271 38.1758 108.372 37.7246 107.675 36.8223C106.983 35.9199 106.638 34.7422 106.638 33.2891V33.166ZM108.264 33.3506C108.264 34.4287 108.486 35.2725 108.932 35.8818C109.377 36.4912 109.992 36.7959 110.777 36.7959C111.809 36.7959 112.562 36.333 113.036 35.4072V31.0391C112.55 30.1426 111.803 29.6943 110.795 29.6943C109.998 29.6943 109.377 30.002 108.932 30.6172C108.486 31.2324 108.264 32.1436 108.264 33.3506ZM9.08789 53.542C9.08789 55.4463 8.7627 56.8613 8.1123 57.7871C7.46191 58.7129 6.44531 59.1758 5.0625 59.1758C3.69727 59.1758 2.68652 58.7246 2.03027 57.8223C1.37402 56.9141 1.03418 55.5605 1.01074 53.7617V51.5908C1.01074 49.71 1.33594 48.3125 1.98633 47.3984C2.63672 46.4844 3.65625 46.0273 5.04492 46.0273C6.42188 46.0273 7.43555 46.4697 8.08594 47.3545C8.73633 48.2334 9.07031 49.5928 9.08789 51.4326V53.542ZM7.46191 51.3184C7.46191 49.9414 7.26855 48.9395 6.88184 48.3125C6.49512 47.6797 5.88281 47.3633 5.04492 47.3633C4.21289 47.3633 3.60645 47.6768 3.22559 48.3037C2.84473 48.9307 2.64844 49.8945 2.63672 51.1953V53.7969C2.63672 55.1797 2.83594 56.2021 3.23438 56.8643C3.63867 57.5205 4.24805 57.8486 5.0625 57.8486C5.86523 57.8486 6.45996 57.5381 6.84668 56.917C7.23926 56.2959 7.44434 55.3174 7.46191 53.9814V51.3184ZM19.749 59.1758C18.46 59.1758 17.4111 58.7539 16.6025 57.9102C15.7939 57.0605 15.3896 55.9268 15.3896 54.5088V54.21C15.3896 53.2666 15.5684 52.4258 15.9258 51.6875C16.2891 50.9434 16.793 50.3633 17.4375 49.9473C18.0879 49.5254 18.791 49.3145 19.5469 49.3145C20.7832 49.3145 21.7441 49.7217 22.4297 50.5361C23.1152 51.3506 23.458 52.5166 23.458 54.0342V54.7109H17.0156C17.0391 55.6484 17.3115 56.4072 17.833 56.9873C18.3604 57.5615 19.0283 57.8486 19.8369 57.8486C20.4111 57.8486 20.8975 57.7314 21.2959 57.4971C21.6943 57.2627 22.043 56.9521 22.3418 56.5654L23.335 57.3389C22.5381 58.5635 21.3428 59.1758 19.749 59.1758ZM19.5469 50.6504C18.8906 50.6504 18.3398 50.8906 17.8945 51.3711C17.4492 51.8457 17.1738 52.5137 17.0684 53.375H21.832V53.252C21.7852 52.4258 21.5625 51.7871 21.1641 51.3359C20.7656 50.8789 20.2266 50.6504 19.5469 50.6504ZM24.9521 54.166C24.9521 52.707 25.2979 51.5352 25.9893 50.6504C26.6807 49.7598 27.5859 49.3145 28.7051 49.3145C29.8184 49.3145 30.7002 49.6953 31.3506 50.457V45.5H32.9766V59H31.4824L31.4033 57.9805C30.7529 58.7773 29.8477 59.1758 28.6875 59.1758C27.5859 59.1758 26.6865 58.7246 25.9893 57.8223C25.2979 56.9199 24.9521 55.7422 24.9521 54.2891V54.166ZM26.5781 54.3506C26.5781 55.4287 26.8008 56.2725 27.2461 56.8818C27.6914 57.4912 28.3066 57.7959 29.0918 57.7959C30.123 57.7959 30.876 57.333 31.3506 56.4072V52.0391C30.8643 51.1426 30.1172 50.6943 29.1094 50.6943C28.3125 50.6943 27.6914 51.002 27.2461 51.6172C26.8008 52.2324 26.5781 53.1436 26.5781 54.3506ZM35.1211 54.166C35.1211 52.6836 35.4639 51.5059 36.1494 50.6328C36.835 49.7539 37.7432 49.3145 38.874 49.3145C40.0342 49.3145 40.9395 49.7246 41.5898 50.5449L41.6689 49.4902H43.1543V58.7715C43.1543 60.002 42.7881 60.9717 42.0557 61.6807C41.3291 62.3896 40.3506 62.7441 39.1201 62.7441C38.4346 62.7441 37.7637 62.5977 37.1074 62.3047C36.4512 62.0117 35.9502 61.6104 35.6045 61.1006L36.4482 60.125C37.1455 60.9863 37.998 61.417 39.0059 61.417C39.7969 61.417 40.4121 61.1943 40.8516 60.749C41.2969 60.3037 41.5195 59.6768 41.5195 58.8682V58.0508C40.8691 58.8008 39.9814 59.1758 38.8564 59.1758C37.7432 59.1758 36.8408 58.7275 36.1494 57.8311C35.4639 56.9346 35.1211 55.7129 35.1211 54.166ZM36.7559 54.3506C36.7559 55.4229 36.9756 56.2666 37.415 56.8818C37.8545 57.4912 38.4697 57.7959 39.2607 57.7959C40.2861 57.7959 41.0391 57.3301 41.5195 56.3984V52.0566C41.0215 51.1484 40.2744 50.6943 39.2783 50.6943C38.4873 50.6943 37.8691 51.002 37.4238 51.6172C36.9785 52.2324 36.7559 53.1436 36.7559 54.3506ZM49.5615 59.1758C48.2725 59.1758 47.2236 58.7539 46.415 57.9102C45.6064 57.0605 45.2021 55.9268 45.2021 54.5088V54.21C45.2021 53.2666 45.3809 52.4258 45.7383 51.6875C46.1016 50.9434 46.6055 50.3633 47.25 49.9473C47.9004 49.5254 48.6035 49.3145 49.3594 49.3145C50.5957 49.3145 51.5566 49.7217 52.2422 50.5361C52.9277 51.3506 53.2705 52.5166 53.2705 54.0342V54.7109H46.8281C46.8516 55.6484 47.124 56.4072 47.6455 56.9873C48.1729 57.5615 48.8408 57.8486 49.6494 57.8486C50.2236 57.8486 50.71 57.7314 51.1084 57.4971C51.5068 57.2627 51.8555 56.9521 52.1543 56.5654L53.1475 57.3389C52.3506 58.5635 51.1553 59.1758 49.5615 59.1758ZM49.3594 50.6504C48.7031 50.6504 48.1523 50.8906 47.707 51.3711C47.2617 51.8457 46.9863 52.5137 46.8809 53.375H51.6445V53.252C51.5977 52.4258 51.375 51.7871 50.9766 51.3359C50.5781 50.8789 50.0391 50.6504 49.3594 50.6504ZM60.6973 56.4775C60.6973 56.0381 60.5303 55.6982 60.1963 55.458C59.8682 55.2119 59.291 55.001 58.4648 54.8252C57.6445 54.6494 56.9912 54.4385 56.5049 54.1924C56.0244 53.9463 55.667 53.6533 55.4326 53.3135C55.2041 52.9736 55.0898 52.5693 55.0898 52.1006C55.0898 51.3213 55.418 50.6621 56.0742 50.123C56.7363 49.584 57.5801 49.3145 58.6055 49.3145C59.6836 49.3145 60.5566 49.5928 61.2246 50.1494C61.8984 50.7061 62.2354 51.418 62.2354 52.2852H60.6006C60.6006 51.8398 60.4102 51.4561 60.0293 51.1338C59.6543 50.8115 59.1797 50.6504 58.6055 50.6504C58.0137 50.6504 57.5508 50.7793 57.2168 51.0371C56.8828 51.2949 56.7158 51.6318 56.7158 52.0479C56.7158 52.4404 56.8711 52.7363 57.1816 52.9355C57.4922 53.1348 58.0518 53.3252 58.8604 53.5068C59.6748 53.6885 60.334 53.9053 60.8379 54.1572C61.3418 54.4092 61.7139 54.7139 61.9541 55.0713C62.2002 55.4229 62.3232 55.8535 62.3232 56.3633C62.3232 57.2129 61.9834 57.8955 61.3037 58.4111C60.624 58.9209 59.7422 59.1758 58.6582 59.1758C57.8965 59.1758 57.2227 59.041 56.6367 58.7715C56.0508 58.502 55.5908 58.127 55.2568 57.6465C54.9287 57.1602 54.7646 56.6357 54.7646 56.0732H56.3906C56.4199 56.6182 56.6367 57.0518 57.041 57.374C57.4512 57.6904 57.9902 57.8486 58.6582 57.8486C59.2734 57.8486 59.7656 57.7256 60.1348 57.4795C60.5098 57.2275 60.6973 56.8936 60.6973 56.4775Z" transform="translate(54)" fill="black"/>
<line y1="-0.5" x2="20" y2="-0.5" transform="translate(122 55)" stroke="black"/>
<circle cx="5.5" cy="5.5" r="5.5" transform="translate(404 27)" fill="#C4C4C4"/>
<path d="M8.55176 13.6602H3.19043L1.98633 17H0.246094L5.13281 4.20312H6.60938L11.5049 17H9.77344L8.55176 13.6602ZM3.7002 12.2715H8.05078L5.87109 6.28613L3.7002 12.2715ZM17.0508 12.166C17.0508 10.6836 17.3936 9.50586 18.0791 8.63281C18.7646 7.75391 19.6729 7.31445 20.8037 7.31445C21.9639 7.31445 22.8691 7.72461 23.5195 8.54492L23.5986 7.49023H25.084V16.7715C25.084 18.002 24.7178 18.9717 23.9854 19.6807C23.2588 20.3896 22.2803 20.7441 21.0498 20.7441C20.3643 20.7441 19.6934 20.5977 19.0371 20.3047C18.3809 20.0117 17.8799 19.6104 17.5342 19.1006L18.3779 18.125C19.0752 18.9863 19.9277 19.417 20.9355 19.417C21.7266 19.417 22.3418 19.1943 22.7812 18.749C23.2266 18.3037 23.4492 17.6768 23.4492 16.8682V16.0508C22.7988 16.8008 21.9111 17.1758 20.7861 17.1758C19.6729 17.1758 18.7705 16.7275 18.0791 15.8311C17.3936 14.9346 17.0508 13.7129 17.0508 12.166ZM18.6855 12.3506C18.6855 13.4229 18.9053 14.2666 19.3447 14.8818C19.7842 15.4912 20.3994 15.7959 21.1904 15.7959C22.2158 15.7959 22.9688 15.3301 23.4492 14.3984V10.0566C22.9512 9.14844 22.2041 8.69434 21.208 8.69434C20.417 8.69434 19.7988 9.00195 19.3535 9.61719C18.9082 10.2324 18.6855 11.1436 18.6855 12.3506ZM32.1416 8.94922C31.8955 8.9082 31.6289 8.8877 31.3418 8.8877C30.2754 8.8877 29.5518 9.3418 29.1709 10.25V17H27.5449V7.49023H29.127L29.1533 8.58887C29.6865 7.73926 30.4424 7.31445 31.4209 7.31445C31.7373 7.31445 31.9775 7.35547 32.1416 7.4375V8.94922ZM39.1641 17C39.0703 16.8125 38.9941 16.4785 38.9355 15.998C38.1797 16.7832 37.2773 17.1758 36.2285 17.1758C35.291 17.1758 34.5205 16.9121 33.917 16.3848C33.3193 15.8516 33.0205 15.1777 33.0205 14.3633C33.0205 13.373 33.3955 12.6055 34.1455 12.0605C34.9014 11.5098 35.9619 11.2344 37.3271 11.2344H38.9092V10.4873C38.9092 9.91895 38.7393 9.46777 38.3994 9.13379C38.0596 8.79395 37.5586 8.62402 36.8965 8.62402C36.3164 8.62402 35.8301 8.77051 35.4375 9.06348C35.0449 9.35645 34.8486 9.71094 34.8486 10.127H33.2139C33.2139 9.65234 33.3809 9.19531 33.7148 8.75586C34.0547 8.31055 34.5117 7.95898 35.0859 7.70117C35.666 7.44336 36.3018 7.31445 36.9932 7.31445C38.0889 7.31445 38.9473 7.58984 39.5684 8.14062C40.1895 8.68555 40.5117 9.43848 40.5352 10.3994V14.7764C40.5352 15.6494 40.6465 16.3438 40.8691 16.8594V17H39.1641ZM36.4658 15.7607C36.9756 15.7607 37.459 15.6289 37.916 15.3652C38.373 15.1016 38.7041 14.7588 38.9092 14.3369V12.3857H37.6348C35.6426 12.3857 34.6465 12.9688 34.6465 14.1348C34.6465 14.6445 34.8164 15.043 35.1562 15.3301C35.4961 15.6172 35.9326 15.7607 36.4658 15.7607ZM51.1172 12.3506C51.1172 13.7979 50.7861 14.9639 50.124 15.8486C49.4619 16.7334 48.5654 17.1758 47.4346 17.1758C46.2803 17.1758 45.3721 16.8096 44.71 16.0771V20.6562H43.084V7.49023H44.5693L44.6484 8.54492C45.3105 7.72461 46.2305 7.31445 47.4082 7.31445C48.5508 7.31445 49.4531 7.74512 50.1152 8.60645C50.7832 9.46777 51.1172 10.666 51.1172 12.2012V12.3506ZM49.4912 12.166C49.4912 11.0938 49.2627 10.2471 48.8057 9.62598C48.3486 9.00488 47.7217 8.69434 46.9248 8.69434C45.9404 8.69434 45.2021 9.13086 44.71 10.0039V14.5479C45.1963 15.415 45.9404 15.8486 46.9424 15.8486C47.7217 15.8486 48.3398 15.541 48.7969 14.9258C49.2598 14.3047 49.4912 13.3848 49.4912 12.166ZM54.8174 8.6416C55.5381 7.75684 56.4756 7.31445 57.6299 7.31445C59.6396 7.31445 60.6533 8.44824 60.6709 10.7158V17H59.0449V10.707C59.0391 10.0215 58.8809 9.51465 58.5703 9.18652C58.2656 8.8584 57.7881 8.69434 57.1377 8.69434C56.6104 8.69434 56.1475 8.83496 55.749 9.11621C55.3506 9.39746 55.04 9.7666 54.8174 10.2236V17H53.1914V3.5H54.8174V8.6416ZM75.9902 14.7588L77.8184 7.49023H79.4443L76.6758 17H75.3574L73.0459 9.79297L70.7959 17H69.4775L66.7178 7.49023H68.335L70.207 14.6094L72.4219 7.49023H73.7314L75.9902 14.7588ZM82.8721 17H81.2461V7.49023H82.8721V17ZM81.1143 4.96777C81.1143 4.7041 81.1934 4.48145 81.3516 4.2998C81.5156 4.11816 81.7559 4.02734 82.0723 4.02734C82.3887 4.02734 82.6289 4.11816 82.793 4.2998C82.957 4.48145 83.0391 4.7041 83.0391 4.96777C83.0391 5.23145 82.957 5.45117 82.793 5.62695C82.6289 5.80273 82.3887 5.89062 82.0723 5.89062C81.7559 5.89062 81.5156 5.80273 81.3516 5.62695C81.1934 5.45117 81.1143 5.23145 81.1143 4.96777ZM87.6885 5.1875V7.49023H89.4639V8.74707H87.6885V14.6445C87.6885 15.0254 87.7676 15.3125 87.9258 15.5059C88.084 15.6934 88.3535 15.7871 88.7344 15.7871C88.9219 15.7871 89.1797 15.752 89.5078 15.6816V17C89.0801 17.1172 88.6641 17.1758 88.2598 17.1758C87.5332 17.1758 86.9854 16.9561 86.6162 16.5166C86.2471 16.0771 86.0625 15.4531 86.0625 14.6445V8.74707H84.3311V7.49023H86.0625V5.1875H87.6885ZM92.9971 8.6416C93.7178 7.75684 94.6553 7.31445 95.8096 7.31445C97.8193 7.31445 98.833 8.44824 98.8506 10.7158V17H97.2246V10.707C97.2188 10.0215 97.0605 9.51465 96.75 9.18652C96.4453 8.8584 95.9678 8.69434 95.3174 8.69434C94.79 8.69434 94.3271 8.83496 93.9287 9.11621C93.5303 9.39746 93.2197 9.7666 92.9971 10.2236V17H91.3711V3.5H92.9971V8.6416ZM3.42773 30.8105H4.64941C5.41699 30.7988 6.02051 30.5967 6.45996 30.2041C6.89941 29.8115 7.11914 29.2812 7.11914 28.6133C7.11914 27.1133 6.37207 26.3633 4.87793 26.3633C4.1748 26.3633 3.6123 26.5654 3.19043 26.9697C2.77441 27.3682 2.56641 27.8984 2.56641 28.5605H0.94043C0.94043 27.5469 1.30957 26.7061 2.04785 26.0381C2.79199 25.3643 3.73535 25.0273 4.87793 25.0273C6.08496 25.0273 7.03125 25.3467 7.7168 25.9854C8.40234 26.624 8.74512 27.5117 8.74512 28.6484C8.74512 29.2051 8.56348 29.7441 8.2002 30.2656C7.84277 30.7871 7.35352 31.1768 6.73242 31.4346C7.43555 31.6572 7.97754 32.0264 8.3584 32.542C8.74512 33.0576 8.93848 33.6875 8.93848 34.4316C8.93848 35.5801 8.56348 36.4912 7.81348 37.165C7.06348 37.8389 6.08789 38.1758 4.88672 38.1758C3.68555 38.1758 2.70703 37.8506 1.95117 37.2002C1.20117 36.5498 0.826172 35.6914 0.826172 34.625H2.46094C2.46094 35.2988 2.68066 35.8379 3.12012 36.2422C3.55957 36.6465 4.14844 36.8486 4.88672 36.8486C5.67188 36.8486 6.27246 36.6436 6.68848 36.2334C7.10449 35.8232 7.3125 35.2344 7.3125 34.4668C7.3125 33.7227 7.08398 33.1514 6.62695 32.7529C6.16992 32.3545 5.51074 32.1494 4.64941 32.1377H3.42773V30.8105ZM17.3408 28.4902L17.3936 29.6855C18.1201 28.7715 19.0693 28.3145 20.2412 28.3145C22.251 28.3145 23.2646 29.4482 23.2822 31.7158V38H21.6562V31.707C21.6504 31.0215 21.4922 30.5146 21.1816 30.1865C20.877 29.8584 20.3994 29.6943 19.749 29.6943C19.2217 29.6943 18.7588 29.835 18.3604 30.1162C17.9619 30.3975 17.6514 30.7666 17.4287 31.2236V38H15.8027V28.4902H17.3408ZM25.3037 33.1572C25.3037 32.2256 25.4854 31.3877 25.8486 30.6436C26.2178 29.8994 26.7275 29.3252 27.3779 28.9209C28.0342 28.5166 28.7812 28.3145 29.6191 28.3145C30.9141 28.3145 31.96 28.7627 32.7568 29.6592C33.5596 30.5557 33.9609 31.748 33.9609 33.2363V33.3506C33.9609 34.2764 33.7822 35.1084 33.4248 35.8467C33.0732 36.5791 32.5664 37.1504 31.9043 37.5605C31.248 37.9707 30.4922 38.1758 29.6367 38.1758C28.3477 38.1758 27.3018 37.7275 26.499 36.8311C25.7021 35.9346 25.3037 34.748 25.3037 33.2715V33.1572ZM26.9385 33.3506C26.9385 34.4053 27.1816 35.252 27.668 35.8906C28.1602 36.5293 28.8164 36.8486 29.6367 36.8486C30.4629 36.8486 31.1191 36.5264 31.6055 35.8818C32.0918 35.2314 32.335 34.3232 32.335 33.1572C32.335 32.1143 32.0859 31.2705 31.5879 30.626C31.0957 29.9756 30.4395 29.6504 29.6191 29.6504C28.8164 29.6504 28.1689 29.9697 27.6768 30.6084C27.1846 31.2471 26.9385 32.1611 26.9385 33.3506ZM35.6045 33.166C35.6045 31.707 35.9502 30.5352 36.6416 29.6504C37.333 28.7598 38.2383 28.3145 39.3574 28.3145C40.4707 28.3145 41.3525 28.6953 42.0029 29.457V24.5H43.6289V38H42.1348L42.0557 36.9805C41.4053 37.7773 40.5 38.1758 39.3398 38.1758C38.2383 38.1758 37.3389 37.7246 36.6416 36.8223C35.9502 35.9199 35.6045 34.7422 35.6045 33.2891V33.166ZM37.2305 33.3506C37.2305 34.4287 37.4531 35.2725 37.8984 35.8818C38.3438 36.4912 38.959 36.7959 39.7441 36.7959C40.7754 36.7959 41.5283 36.333 42.0029 35.4072V31.0391C41.5166 30.1426 40.7695 29.6943 39.7617 29.6943C38.9648 29.6943 38.3438 30.002 37.8984 30.6172C37.4531 31.2324 37.2305 32.1436 37.2305 33.3506ZM50.1064 38.1758C48.8174 38.1758 47.7686 37.7539 46.96 36.9102C46.1514 36.0605 45.7471 34.9268 45.7471 33.5088V33.21C45.7471 32.2666 45.9258 31.4258 46.2832 30.6875C46.6465 29.9434 47.1504 29.3633 47.7949 28.9473C48.4453 28.5254 49.1484 28.3145 49.9043 28.3145C51.1406 28.3145 52.1016 28.7217 52.7871 29.5361C53.4727 30.3506 53.8154 31.5166 53.8154 33.0342V33.7109H47.373C47.3965 34.6484 47.6689 35.4072 48.1904 35.9873C48.7178 36.5615 49.3857 36.8486 50.1943 36.8486C50.7686 36.8486 51.2549 36.7314 51.6533 36.4971C52.0518 36.2627 52.4004 35.9521 52.6992 35.5654L53.6924 36.3389C52.8955 37.5635 51.7002 38.1758 50.1064 38.1758ZM49.9043 29.6504C49.248 29.6504 48.6973 29.8906 48.252 30.3711C47.8066 30.8457 47.5312 31.5137 47.4258 32.375H52.1895V32.252C52.1426 31.4258 51.9199 30.7871 51.5215 30.3359C51.123 29.8789 50.584 29.6504 49.9043 29.6504ZM61.2422 35.4775C61.2422 35.0381 61.0752 34.6982 60.7412 34.458C60.4131 34.2119 59.8359 34.001 59.0098 33.8252C58.1895 33.6494 57.5361 33.4385 57.0498 33.1924C56.5693 32.9463 56.2119 32.6533 55.9775 32.3135C55.749 31.9736 55.6348 31.5693 55.6348 31.1006C55.6348 30.3213 55.9629 29.6621 56.6191 29.123C57.2812 28.584 58.125 28.3145 59.1504 28.3145C60.2285 28.3145 61.1016 28.5928 61.7695 29.1494C62.4434 29.7061 62.7803 30.418 62.7803 31.2852H61.1455C61.1455 30.8398 60.9551 30.4561 60.5742 30.1338C60.1992 29.8115 59.7246 29.6504 59.1504 29.6504C58.5586 29.6504 58.0957 29.7793 57.7617 30.0371C57.4277 30.2949 57.2607 30.6318 57.2607 31.0479C57.2607 31.4404 57.416 31.7363 57.7266 31.9355C58.0371 32.1348 58.5967 32.3252 59.4053 32.5068C60.2197 32.6885 60.8789 32.9053 61.3828 33.1572C61.8867 33.4092 62.2588 33.7139 62.499 34.0713C62.7451 34.4229 62.8682 34.8535 62.8682 35.3633C62.8682 36.2129 62.5283 36.8955 61.8486 37.4111C61.1689 37.9209 60.2871 38.1758 59.2031 38.1758C58.4414 38.1758 57.7676 38.041 57.1816 37.7715C56.5957 37.502 56.1357 37.127 55.8018 36.6465C55.4736 36.1602 55.3096 35.6357 55.3096 35.0732H56.9355C56.9648 35.6182 57.1816 36.0518 57.5859 36.374C57.9961 36.6904 58.5352 36.8486 59.2031 36.8486C59.8184 36.8486 60.3105 36.7256 60.6797 36.4795C61.0547 36.2275 61.2422 35.8936 61.2422 35.4775ZM93.1816 38C93.0879 37.8125 93.0117 37.4785 92.9531 36.998C92.1973 37.7832 91.2949 38.1758 90.2461 38.1758C89.3086 38.1758 88.5381 37.9121 87.9346 37.3848C87.3369 36.8516 87.0381 36.1777 87.0381 35.3633C87.0381 34.373 87.4131 33.6055 88.1631 33.0605C88.9189 32.5098 89.9795 32.2344 91.3447 32.2344H92.9268V31.4873C92.9268 30.9189 92.7568 30.4678 92.417 30.1338C92.0771 29.7939 91.5762 29.624 90.9141 29.624C90.334 29.624 89.8477 29.7705 89.4551 30.0635C89.0625 30.3564 88.8662 30.7109 88.8662 31.127H87.2314C87.2314 30.6523 87.3984 30.1953 87.7324 29.7559C88.0723 29.3105 88.5293 28.959 89.1035 28.7012C89.6836 28.4434 90.3193 28.3145 91.0107 28.3145C92.1064 28.3145 92.9648 28.5898 93.5859 29.1406C94.207 29.6855 94.5293 30.4385 94.5527 31.3994V35.7764C94.5527 36.6494 94.6641 37.3438 94.8867 37.8594V38H93.1816ZM90.4834 36.7607C90.9932 36.7607 91.4766 36.6289 91.9336 36.3652C92.3906 36.1016 92.7217 35.7588 92.9268 35.3369V33.3857H91.6523C89.6602 33.3857 88.6641 33.9688 88.6641 35.1348C88.6641 35.6445 88.834 36.043 89.1738 36.3301C89.5137 36.6172 89.9502 36.7607 90.4834 36.7607ZM98.6396 28.4902L98.6924 29.6855C99.4189 28.7715 100.368 28.3145 101.54 28.3145C103.55 28.3145 104.563 29.4482 104.581 31.7158V38H102.955V31.707C102.949 31.0215 102.791 30.5146 102.48 30.1865C102.176 29.8584 101.698 29.6943 101.048 29.6943C100.521 29.6943 100.058 29.835 99.6592 30.1162C99.2607 30.3975 98.9502 30.7666 98.7275 31.2236V38H97.1016V28.4902H98.6396ZM106.638 33.166C106.638 31.707 106.983 30.5352 107.675 29.6504C108.366 28.7598 109.271 28.3145 110.391 28.3145C111.504 28.3145 112.386 28.6953 113.036 29.457V24.5H114.662V38H113.168L113.089 36.9805C112.438 37.7773 111.533 38.1758 110.373 38.1758C109.271 38.1758 108.372 37.7246 107.675 36.8223C106.983 35.9199 106.638 34.7422 106.638 33.2891V33.166ZM108.264 33.3506C108.264 34.4287 108.486 35.2725 108.932 35.8818C109.377 36.4912 109.992 36.7959 110.777 36.7959C111.809 36.7959 112.562 36.333 113.036 35.4072V31.0391C112.55 30.1426 111.803 29.6943 110.795 29.6943C109.998 29.6943 109.377 30.002 108.932 30.6172C108.486 31.2324 108.264 32.1436 108.264 33.3506ZM3.42773 51.8105H4.64941C5.41699 51.7988 6.02051 51.5967 6.45996 51.2041C6.89941 50.8115 7.11914 50.2812 7.11914 49.6133C7.11914 48.1133 6.37207 47.3633 4.87793 47.3633C4.1748 47.3633 3.6123 47.5654 3.19043 47.9697C2.77441 48.3682 2.56641 48.8984 2.56641 49.5605H0.94043C0.94043 48.5469 1.30957 47.7061 2.04785 47.0381C2.79199 46.3643 3.73535 46.0273 4.87793 46.0273C6.08496 46.0273 7.03125 46.3467 7.7168 46.9854C8.40234 47.624 8.74512 48.5117 8.74512 49.6484C8.74512 50.2051 8.56348 50.7441 8.2002 51.2656C7.84277 51.7871 7.35352 52.1768 6.73242 52.4346C7.43555 52.6572 7.97754 53.0264 8.3584 53.542C8.74512 54.0576 8.93848 54.6875 8.93848 55.4316C8.93848 56.5801 8.56348 57.4912 7.81348 58.165C7.06348 58.8389 6.08789 59.1758 4.88672 59.1758C3.68555 59.1758 2.70703 58.8506 1.95117 58.2002C1.20117 57.5498 0.826172 56.6914 0.826172 55.625H2.46094C2.46094 56.2988 2.68066 56.8379 3.12012 57.2422C3.55957 57.6465 4.14844 57.8486 4.88672 57.8486C5.67188 57.8486 6.27246 57.6436 6.68848 57.2334C7.10449 56.8232 7.3125 56.2344 7.3125 55.4668C7.3125 54.7227 7.08398 54.1514 6.62695 53.7529C6.16992 53.3545 5.51074 53.1494 4.64941 53.1377H3.42773V51.8105ZM19.749 59.1758C18.46 59.1758 17.4111 58.7539 16.6025 57.9102C15.7939 57.0605 15.3896 55.9268 15.3896 54.5088V54.21C15.3896 53.2666 15.5684 52.4258 15.9258 51.6875C16.2891 50.9434 16.793 50.3633 17.4375 49.9473C18.0879 49.5254 18.791 49.3145 19.5469 49.3145C20.7832 49.3145 21.7441 49.7217 22.4297 50.5361C23.1152 51.3506 23.458 52.5166 23.458 54.0342V54.7109H17.0156C17.0391 55.6484 17.3115 56.4072 17.833 56.9873C18.3604 57.5615 19.0283 57.8486 19.8369 57.8486C20.4111 57.8486 20.8975 57.7314 21.2959 57.4971C21.6943 57.2627 22.043 56.9521 22.3418 56.5654L23.335 57.3389C22.5381 58.5635 21.3428 59.1758 19.749 59.1758ZM19.5469 50.6504C18.8906 50.6504 18.3398 50.8906 17.8945 51.3711C17.4492 51.8457 17.1738 52.5137 17.0684 53.375H21.832V53.252C21.7852 52.4258 21.5625 51.7871 21.1641 51.3359C20.7656 50.8789 20.2266 50.6504 19.5469 50.6504ZM24.9521 54.166C24.9521 52.707 25.2979 51.5352 25.9893 50.6504C26.6807 49.7598 27.5859 49.3145 28.7051 49.3145C29.8184 49.3145 30.7002 49.6953 31.3506 50.457V45.5H32.9766V59H31.4824L31.4033 57.9805C30.7529 58.7773 29.8477 59.1758 28.6875 59.1758C27.5859 59.1758 26.6865 58.7246 25.9893 57.8223C25.2979 56.9199 24.9521 55.7422 24.9521 54.2891V54.166ZM26.5781 54.3506C26.5781 55.4287 26.8008 56.2725 27.2461 56.8818C27.6914 57.4912 28.3066 57.7959 29.0918 57.7959C30.123 57.7959 30.876 57.333 31.3506 56.4072V52.0391C30.8643 51.1426 30.1172 50.6943 29.1094 50.6943C28.3125 50.6943 27.6914 51.002 27.2461 51.6172C26.8008 52.2324 26.5781 53.1436 26.5781 54.3506ZM35.1211 54.166C35.1211 52.6836 35.4639 51.5059 36.1494 50.6328C36.835 49.7539 37.7432 49.3145 38.874 49.3145C40.0342 49.3145 40.9395 49.7246 41.5898 50.5449L41.6689 49.4902H43.1543V58.7715C43.1543 60.002 42.7881 60.9717 42.0557 61.6807C41.3291 62.3896 40.3506 62.7441 39.1201 62.7441C38.4346 62.7441 37.7637 62.5977 37.1074 62.3047C36.4512 62.0117 35.9502 61.6104 35.6045 61.1006L36.4482 60.125C37.1455 60.9863 37.998 61.417 39.0059 61.417C39.7969 61.417 40.4121 61.1943 40.8516 60.749C41.2969 60.3037 41.5195 59.6768 41.5195 58.8682V58.0508C40.8691 58.8008 39.9814 59.1758 38.8564 59.1758C37.7432 59.1758 36.8408 58.7275 36.1494 57.8311C35.4639 56.9346 35.1211 55.7129 35.1211 54.166ZM36.7559 54.3506C36.7559 55.4229 36.9756 56.2666 37.415 56.8818C37.8545 57.4912 38.4697 57.7959 39.2607 57.7959C40.2861 57.7959 41.0391 57.3301 41.5195 56.3984V52.0566C41.0215 51.1484 40.2744 50.6943 39.2783 50.6943C38.4873 50.6943 37.8691 51.002 37.4238 51.6172C36.9785 52.2324 36.7559 53.1436 36.7559 54.3506ZM49.5615 59.1758C48.2725 59.1758 47.2236 58.7539 46.415 57.9102C45.6064 57.0605 45.2021 55.9268 45.2021 54.5088V54.21C45.2021 53.2666 45.3809 52.4258 45.7383 51.6875C46.1016 50.9434 46.6055 50.3633 47.25 49.9473C47.9004 49.5254 48.6035 49.3145 49.3594 49.3145C50.5957 49.3145 51.5566 49.7217 52.2422 50.5361C52.9277 51.3506 53.2705 52.5166 53.2705 54.0342V54.7109H46.8281C46.8516 55.6484 47.124 56.4072 47.6455 56.9873C48.1729 57.5615 48.8408 57.8486 49.6494 57.8486C50.2236 57.8486 50.71 57.7314 51.1084 57.4971C51.5068 57.2627 51.8555 56.9521 52.1543 56.5654L53.1475 57.3389C52.3506 58.5635 51.1553 59.1758 49.5615 59.1758ZM49.3594 50.6504C48.7031 50.6504 48.1523 50.8906 47.707 51.3711C47.2617 51.8457 46.9863 52.5137 46.8809 53.375H51.6445V53.252C51.5977 52.4258 51.375 51.7871 50.9766 51.3359C50.5781 50.8789 50.0391 50.6504 49.3594 50.6504ZM60.6973 56.4775C60.6973 56.0381 60.5303 55.6982 60.1963 55.458C59.8682 55.2119 59.291 55.001 58.4648 54.8252C57.6445 54.6494 56.9912 54.4385 56.5049 54.1924C56.0244 53.9463 55.667 53.6533 55.4326 53.3135C55.2041 52.9736 55.0898 52.5693 55.0898 52.1006C55.0898 51.3213 55.418 50.6621 56.0742 50.123C56.7363 49.584 57.5801 49.3145 58.6055 49.3145C59.6836 49.3145 60.5566 49.5928 61.2246 50.1494C61.8984 50.7061 62.2354 51.418 62.2354 52.2852H60.6006C60.6006 51.8398 60.4102 51.4561 60.0293 51.1338C59.6543 50.8115 59.1797 50.6504 58.6055 50.6504C58.0137 50.6504 57.5508 50.7793 57.2168 51.0371C56.8828 51.2949 56.7158 51.6318 56.7158 52.0479C56.7158 52.4404 56.8711 52.7363 57.1816 52.9355C57.4922 53.1348 58.0518 53.3252 58.8604 53.5068C59.6748 53.6885 60.334 53.9053 60.8379 54.1572C61.3418 54.4092 61.7139 54.7139 61.9541 55.0713C62.2002 55.4229 62.3232 55.8535 62.3232 56.3633C62.3232 57.2129 61.9834 57.8955 61.3037 58.4111C60.624 58.9209 59.7422 59.1758 58.6582 59.1758C57.8965 59.1758 57.2227 59.041 56.6367 58.7715C56.0508 58.502 55.5908 58.127 55.2568 57.6465C54.9287 57.1602 54.7646 56.6357 54.7646 56.0732H56.3906C56.4199 56.6182 56.6367 57.0518 57.041 57.374C57.4512 57.6904 57.9902 57.8486 58.6582 57.8486C59.2734 57.8486 59.7656 57.7256 60.1348 57.4795C60.5098 57.2275 60.6973 56.8936 60.6973 56.4775Z" transform="translate(336)" fill="black"/>
<line y1="-0.5" x2="20" y2="-0.5" transform="translate(398 55)" stroke="black"/>
<circle cx="22" cy="22" r="22" transform="translate(571 92)" fill="#C4C4C4"/>
<circle cx="22" cy="22" r="22" transform="translate(715 92)" fill="#C4C4C4"/>
<circle cx="22" cy="22" r="22" transform="translate(571 186)" fill="#C4C4C4"/>
<circle cx="22" cy="22" r="22" transform="translate(715 186)" fill="#C4C4C4"/>
<line y1="-0.5" x2="100" y2="-0.5" transform="translate(615 114)" stroke="black"/>
<line y1="-0.5" x2="54" y2="-0.5" transform="translate(593 186) rotate(-90)" stroke="black"/>
<circle cx="5.5" cy="5.5" r="5.5" transform="translate(692 27)" fill="#C4C4C4"/>
<path d="M8.55176 13.6602H3.19043L1.98633 17H0.246094L5.13281 4.20312H6.60938L11.5049 17H9.77344L8.55176 13.6602ZM3.7002 12.2715H8.05078L5.87109 6.28613L3.7002 12.2715ZM17.0508 12.166C17.0508 10.6836 17.3936 9.50586 18.0791 8.63281C18.7646 7.75391 19.6729 7.31445 20.8037 7.31445C21.9639 7.31445 22.8691 7.72461 23.5195 8.54492L23.5986 7.49023H25.084V16.7715C25.084 18.002 24.7178 18.9717 23.9854 19.6807C23.2588 20.3896 22.2803 20.7441 21.0498 20.7441C20.3643 20.7441 19.6934 20.5977 19.0371 20.3047C18.3809 20.0117 17.8799 19.6104 17.5342 19.1006L18.3779 18.125C19.0752 18.9863 19.9277 19.417 20.9355 19.417C21.7266 19.417 22.3418 19.1943 22.7812 18.749C23.2266 18.3037 23.4492 17.6768 23.4492 16.8682V16.0508C22.7988 16.8008 21.9111 17.1758 20.7861 17.1758C19.6729 17.1758 18.7705 16.7275 18.0791 15.8311C17.3936 14.9346 17.0508 13.7129 17.0508 12.166ZM18.6855 12.3506C18.6855 13.4229 18.9053 14.2666 19.3447 14.8818C19.7842 15.4912 20.3994 15.7959 21.1904 15.7959C22.2158 15.7959 22.9688 15.3301 23.4492 14.3984V10.0566C22.9512 9.14844 22.2041 8.69434 21.208 8.69434C20.417 8.69434 19.7988 9.00195 19.3535 9.61719C18.9082 10.2324 18.6855 11.1436 18.6855 12.3506ZM32.1416 8.94922C31.8955 8.9082 31.6289 8.8877 31.3418 8.8877C30.2754 8.8877 29.5518 9.3418 29.1709 10.25V17H27.5449V7.49023H29.127L29.1533 8.58887C29.6865 7.73926 30.4424 7.31445 31.4209 7.31445C31.7373 7.31445 31.9775 7.35547 32.1416 7.4375V8.94922ZM39.1641 17C39.0703 16.8125 38.9941 16.4785 38.9355 15.998C38.1797 16.7832 37.2773 17.1758 36.2285 17.1758C35.291 17.1758 34.5205 16.9121 33.917 16.3848C33.3193 15.8516 33.0205 15.1777 33.0205 14.3633C33.0205 13.373 33.3955 12.6055 34.1455 12.0605C34.9014 11.5098 35.9619 11.2344 37.3271 11.2344H38.9092V10.4873C38.9092 9.91895 38.7393 9.46777 38.3994 9.13379C38.0596 8.79395 37.5586 8.62402 36.8965 8.62402C36.3164 8.62402 35.8301 8.77051 35.4375 9.06348C35.0449 9.35645 34.8486 9.71094 34.8486 10.127H33.2139C33.2139 9.65234 33.3809 9.19531 33.7148 8.75586C34.0547 8.31055 34.5117 7.95898 35.0859 7.70117C35.666 7.44336 36.3018 7.31445 36.9932 7.31445C38.0889 7.31445 38.9473 7.58984 39.5684 8.14062C40.1895 8.68555 40.5117 9.43848 40.5352 10.3994V14.7764C40.5352 15.6494 40.6465 16.3438 40.8691 16.8594V17H39.1641ZM36.4658 15.7607C36.9756 15.7607 37.459 15.6289 37.916 15.3652C38.373 15.1016 38.7041 14.7588 38.9092 14.3369V12.3857H37.6348C35.6426 12.3857 34.6465 12.9688 34.6465 14.1348C34.6465 14.6445 34.8164 15.043 35.1562 15.3301C35.4961 15.6172 35.9326 15.7607 36.4658 15.7607ZM51.1172 12.3506C51.1172 13.7979 50.7861 14.9639 50.124 15.8486C49.4619 16.7334 48.5654 17.1758 47.4346 17.1758C46.2803 17.1758 45.3721 16.8096 44.71 16.0771V20.6562H43.084V7.49023H44.5693L44.6484 8.54492C45.3105 7.72461 46.2305 7.31445 47.4082 7.31445C48.5508 7.31445 49.4531 7.74512 50.1152 8.60645C50.7832 9.46777 51.1172 10.666 51.1172 12.2012V12.3506ZM49.4912 12.166C49.4912 11.0938 49.2627 10.2471 48.8057 9.62598C48.3486 9.00488 47.7217 8.69434 46.9248 8.69434C45.9404 8.69434 45.2021 9.13086 44.71 10.0039V14.5479C45.1963 15.415 45.9404 15.8486 46.9424 15.8486C47.7217 15.8486 48.3398 15.541 48.7969 14.9258C49.2598 14.3047 49.4912 13.3848 49.4912 12.166ZM54.8174 8.6416C55.5381 7.75684 56.4756 7.31445 57.6299 7.31445C59.6396 7.31445 60.6533 8.44824 60.6709 10.7158V17H59.0449V10.707C59.0391 10.0215 58.8809 9.51465 58.5703 9.18652C58.2656 8.8584 57.7881 8.69434 57.1377 8.69434C56.6104 8.69434 56.1475 8.83496 55.749 9.11621C55.3506 9.39746 55.04 9.7666 54.8174 10.2236V17H53.1914V3.5H54.8174V8.6416ZM75.9902 14.7588L77.8184 7.49023H79.4443L76.6758 17H75.3574L73.0459 9.79297L70.7959 17H69.4775L66.7178 7.49023H68.335L70.207 14.6094L72.4219 7.49023H73.7314L75.9902 14.7588ZM82.8721 17H81.2461V7.49023H82.8721V17ZM81.1143 4.96777C81.1143 4.7041 81.1934 4.48145 81.3516 4.2998C81.5156 4.11816 81.7559 4.02734 82.0723 4.02734C82.3887 4.02734 82.6289 4.11816 82.793 4.2998C82.957 4.48145 83.0391 4.7041 83.0391 4.96777C83.0391 5.23145 82.957 5.45117 82.793 5.62695C82.6289 5.80273 82.3887 5.89062 82.0723 5.89062C81.7559 5.89062 81.5156 5.80273 81.3516 5.62695C81.1934 5.45117 81.1143 5.23145 81.1143 4.96777ZM87.6885 5.1875V7.49023H89.4639V8.74707H87.6885V14.6445C87.6885 15.0254 87.7676 15.3125 87.9258 15.5059C88.084 15.6934 88.3535 15.7871 88.7344 15.7871C88.9219 15.7871 89.1797 15.752 89.5078 15.6816V17C89.0801 17.1172 88.6641 17.1758 88.2598 17.1758C87.5332 17.1758 86.9854 16.9561 86.6162 16.5166C86.2471 16.0771 86.0625 15.4531 86.0625 14.6445V8.74707H84.3311V7.49023H86.0625V5.1875H87.6885ZM92.9971 8.6416C93.7178 7.75684 94.6553 7.31445 95.8096 7.31445C97.8193 7.31445 98.833 8.44824 98.8506 10.7158V17H97.2246V10.707C97.2188 10.0215 97.0605 9.51465 96.75 9.18652C96.4453 8.8584 95.9678 8.69434 95.3174 8.69434C94.79 8.69434 94.3271 8.83496 93.9287 9.11621C93.5303 9.39746 93.2197 9.7666 92.9971 10.2236V17H91.3711V3.5H92.9971V8.6416ZM3.42773 30.8105H4.64941C5.41699 30.7988 6.02051 30.5967 6.45996 30.2041C6.89941 29.8115 7.11914 29.2812 7.11914 28.6133C7.11914 27.1133 6.37207 26.3633 4.87793 26.3633C4.1748 26.3633 3.6123 26.5654 3.19043 26.9697C2.77441 27.3682 2.56641 27.8984 2.56641 28.5605H0.94043C0.94043 27.5469 1.30957 26.7061 2.04785 26.0381C2.79199 25.3643 3.73535 25.0273 4.87793 25.0273C6.08496 25.0273 7.03125 25.3467 7.7168 25.9854C8.40234 26.624 8.74512 27.5117 8.74512 28.6484C8.74512 29.2051 8.56348 29.7441 8.2002 30.2656C7.84277 30.7871 7.35352 31.1768 6.73242 31.4346C7.43555 31.6572 7.97754 32.0264 8.3584 32.542C8.74512 33.0576 8.93848 33.6875 8.93848 34.4316C8.93848 35.5801 8.56348 36.4912 7.81348 37.165C7.06348 37.8389 6.08789 38.1758 4.88672 38.1758C3.68555 38.1758 2.70703 37.8506 1.95117 37.2002C1.20117 36.5498 0.826172 35.6914 0.826172 34.625H2.46094C2.46094 35.2988 2.68066 35.8379 3.12012 36.2422C3.55957 36.6465 4.14844 36.8486 4.88672 36.8486C5.67188 36.8486 6.27246 36.6436 6.68848 36.2334C7.10449 35.8232 7.3125 35.2344 7.3125 34.4668C7.3125 33.7227 7.08398 33.1514 6.62695 32.7529C6.16992 32.3545 5.51074 32.1494 4.64941 32.1377H3.42773V30.8105ZM17.3408 28.4902L17.3936 29.6855C18.1201 28.7715 19.0693 28.3145 20.2412 28.3145C22.251 28.3145 23.2646 29.4482 23.2822 31.7158V38H21.6562V31.707C21.6504 31.0215 21.4922 30.5146 21.1816 30.1865C20.877 29.8584 20.3994 29.6943 19.749 29.6943C19.2217 29.6943 18.7588 29.835 18.3604 30.1162C17.9619 30.3975 17.6514 30.7666 17.4287 31.2236V38H15.8027V28.4902H17.3408ZM25.3037 33.1572C25.3037 32.2256 25.4854 31.3877 25.8486 30.6436C26.2178 29.8994 26.7275 29.3252 27.3779 28.9209C28.0342 28.5166 28.7812 28.3145 29.6191 28.3145C30.9141 28.3145 31.96 28.7627 32.7568 29.6592C33.5596 30.5557 33.9609 31.748 33.9609 33.2363V33.3506C33.9609 34.2764 33.7822 35.1084 33.4248 35.8467C33.0732 36.5791 32.5664 37.1504 31.9043 37.5605C31.248 37.9707 30.4922 38.1758 29.6367 38.1758C28.3477 38.1758 27.3018 37.7275 26.499 36.8311C25.7021 35.9346 25.3037 34.748 25.3037 33.2715V33.1572ZM26.9385 33.3506C26.9385 34.4053 27.1816 35.252 27.668 35.8906C28.1602 36.5293 28.8164 36.8486 29.6367 36.8486C30.4629 36.8486 31.1191 36.5264 31.6055 35.8818C32.0918 35.2314 32.335 34.3232 32.335 33.1572C32.335 32.1143 32.0859 31.2705 31.5879 30.626C31.0957 29.9756 30.4395 29.6504 29.6191 29.6504C28.8164 29.6504 28.1689 29.9697 27.6768 30.6084C27.1846 31.2471 26.9385 32.1611 26.9385 33.3506ZM35.6045 33.166C35.6045 31.707 35.9502 30.5352 36.6416 29.6504C37.333 28.7598 38.2383 28.3145 39.3574 28.3145C40.4707 28.3145 41.3525 28.6953 42.0029 29.457V24.5H43.6289V38H42.1348L42.0557 36.9805C41.4053 37.7773 40.5 38.1758 39.3398 38.1758C38.2383 38.1758 37.3389 37.7246 36.6416 36.8223C35.9502 35.9199 35.6045 34.7422 35.6045 33.2891V33.166ZM37.2305 33.3506C37.2305 34.4287 37.4531 35.2725 37.8984 35.8818C38.3438 36.4912 38.959 36.7959 39.7441 36.7959C40.7754 36.7959 41.5283 36.333 42.0029 35.4072V31.0391C41.5166 30.1426 40.7695 29.6943 39.7617 29.6943C38.9648 29.6943 38.3438 30.002 37.8984 30.6172C37.4531 31.2324 37.2305 32.1436 37.2305 33.3506ZM50.1064 38.1758C48.8174 38.1758 47.7686 37.7539 46.96 36.9102C46.1514 36.0605 45.7471 34.9268 45.7471 33.5088V33.21C45.7471 32.2666 45.9258 31.4258 46.2832 30.6875C46.6465 29.9434 47.1504 29.3633 47.7949 28.9473C48.4453 28.5254 49.1484 28.3145 49.9043 28.3145C51.1406 28.3145 52.1016 28.7217 52.7871 29.5361C53.4727 30.3506 53.8154 31.5166 53.8154 33.0342V33.7109H47.373C47.3965 34.6484 47.6689 35.4072 48.1904 35.9873C48.7178 36.5615 49.3857 36.8486 50.1943 36.8486C50.7686 36.8486 51.2549 36.7314 51.6533 36.4971C52.0518 36.2627 52.4004 35.9521 52.6992 35.5654L53.6924 36.3389C52.8955 37.5635 51.7002 38.1758 50.1064 38.1758ZM49.9043 29.6504C49.248 29.6504 48.6973 29.8906 48.252 30.3711C47.8066 30.8457 47.5312 31.5137 47.4258 32.375H52.1895V32.252C52.1426 31.4258 51.9199 30.7871 51.5215 30.3359C51.123 29.8789 50.584 29.6504 49.9043 29.6504ZM61.2422 35.4775C61.2422 35.0381 61.0752 34.6982 60.7412 34.458C60.4131 34.2119 59.8359 34.001 59.0098 33.8252C58.1895 33.6494 57.5361 33.4385 57.0498 33.1924C56.5693 32.9463 56.2119 32.6533 55.9775 32.3135C55.749 31.9736 55.6348 31.5693 55.6348 31.1006C55.6348 30.3213 55.9629 29.6621 56.6191 29.123C57.2812 28.584 58.125 28.3145 59.1504 28.3145C60.2285 28.3145 61.1016 28.5928 61.7695 29.1494C62.4434 29.7061 62.7803 30.418 62.7803 31.2852H61.1455C61.1455 30.8398 60.9551 30.4561 60.5742 30.1338C60.1992 29.8115 59.7246 29.6504 59.1504 29.6504C58.5586 29.6504 58.0957 29.7793 57.7617 30.0371C57.4277 30.2949 57.2607 30.6318 57.2607 31.0479C57.2607 31.4404 57.416 31.7363 57.7266 31.9355C58.0371 32.1348 58.5967 32.3252 59.4053 32.5068C60.2197 32.6885 60.8789 32.9053 61.3828 33.1572C61.8867 33.4092 62.2588 33.7139 62.499 34.0713C62.7451 34.4229 62.8682 34.8535 62.8682 35.3633C62.8682 36.2129 62.5283 36.8955 61.8486 37.4111C61.1689 37.9209 60.2871 38.1758 59.2031 38.1758C58.4414 38.1758 57.7676 38.041 57.1816 37.7715C56.5957 37.502 56.1357 37.127 55.8018 36.6465C55.4736 36.1602 55.3096 35.6357 55.3096 35.0732H56.9355C56.9648 35.6182 57.1816 36.0518 57.5859 36.374C57.9961 36.6904 58.5352 36.8486 59.2031 36.8486C59.8184 36.8486 60.3105 36.7256 60.6797 36.4795C61.0547 36.2275 61.2422 35.8936 61.2422 35.4775ZM93.1816 38C93.0879 37.8125 93.0117 37.4785 92.9531 36.998C92.1973 37.7832 91.2949 38.1758 90.2461 38.1758C89.3086 38.1758 88.5381 37.9121 87.9346 37.3848C87.3369 36.8516 87.0381 36.1777 87.0381 35.3633C87.0381 34.373 87.4131 33.6055 88.1631 33.0605C88.9189 32.5098 89.9795 32.2344 91.3447 32.2344H92.9268V31.4873C92.9268 30.9189 92.7568 30.4678 92.417 30.1338C92.0771 29.7939 91.5762 29.624 90.9141 29.624C90.334 29.624 89.8477 29.7705 89.4551 30.0635C89.0625 30.3564 88.8662 30.7109 88.8662 31.127H87.2314C87.2314 30.6523 87.3984 30.1953 87.7324 29.7559C88.0723 29.3105 88.5293 28.959 89.1035 28.7012C89.6836 28.4434 90.3193 28.3145 91.0107 28.3145C92.1064 28.3145 92.9648 28.5898 93.5859 29.1406C94.207 29.6855 94.5293 30.4385 94.5527 31.3994V35.7764C94.5527 36.6494 94.6641 37.3438 94.8867 37.8594V38H93.1816ZM90.4834 36.7607C90.9932 36.7607 91.4766 36.6289 91.9336 36.3652C92.3906 36.1016 92.7217 35.7588 92.9268 35.3369V33.3857H91.6523C89.6602 33.3857 88.6641 33.9688 88.6641 35.1348C88.6641 35.6445 88.834 36.043 89.1738 36.3301C89.5137 36.6172 89.9502 36.7607 90.4834 36.7607ZM98.6396 28.4902L98.6924 29.6855C99.4189 28.7715 100.368 28.3145 101.54 28.3145C103.55 28.3145 104.563 29.4482 104.581 31.7158V38H102.955V31.707C102.949 31.0215 102.791 30.5146 102.48 30.1865C102.176 29.8584 101.698 29.6943 101.048 29.6943C100.521 29.6943 100.058 29.835 99.6592 30.1162C99.2607 30.3975 98.9502 30.7666 98.7275 31.2236V38H97.1016V28.4902H98.6396ZM106.638 33.166C106.638 31.707 106.983 30.5352 107.675 29.6504C108.366 28.7598 109.271 28.3145 110.391 28.3145C111.504 28.3145 112.386 28.6953 113.036 29.457V24.5H114.662V38H113.168L113.089 36.9805C112.438 37.7773 111.533 38.1758 110.373 38.1758C109.271 38.1758 108.372 37.7246 107.675 36.8223C106.983 35.9199 106.638 34.7422 106.638 33.2891V33.166ZM108.264 33.3506C108.264 34.4287 108.486 35.2725 108.932 35.8818C109.377 36.4912 109.992 36.7959 110.777 36.7959C111.809 36.7959 112.562 36.333 113.036 35.4072V31.0391C112.55 30.1426 111.803 29.6943 110.795 29.6943C109.998 29.6943 109.377 30.002 108.932 30.6172C108.486 31.2324 108.264 32.1436 108.264 33.3506ZM7.92773 54.7021H9.70312V56.0293H7.92773V59H6.29297V56.0293H0.46582V55.0713L6.19629 46.2031H7.92773V54.7021ZM2.31152 54.7021H6.29297V48.4268L6.09961 48.7783L2.31152 54.7021ZM19.749 59.1758C18.46 59.1758 17.4111 58.7539 16.6025 57.9102C15.7939 57.0605 15.3896 55.9268 15.3896 54.5088V54.21C15.3896 53.2666 15.5684 52.4258 15.9258 51.6875C16.2891 50.9434 16.793 50.3633 17.4375 49.9473C18.0879 49.5254 18.791 49.3145 19.5469 49.3145C20.7832 49.3145 21.7441 49.7217 22.4297 50.5361C23.1152 51.3506 23.458 52.5166 23.458 54.0342V54.7109H17.0156C17.0391 55.6484 17.3115 56.4072 17.833 56.9873C18.3604 57.5615 19.0283 57.8486 19.8369 57.8486C20.4111 57.8486 20.8975 57.7314 21.2959 57.4971C21.6943 57.2627 22.043 56.9521 22.3418 56.5654L23.335 57.3389C22.5381 58.5635 21.3428 59.1758 19.749 59.1758ZM19.5469 50.6504C18.8906 50.6504 18.3398 50.8906 17.8945 51.3711C17.4492 51.8457 17.1738 52.5137 17.0684 53.375H21.832V53.252C21.7852 52.4258 21.5625 51.7871 21.1641 51.3359C20.7656 50.8789 20.2266 50.6504 19.5469 50.6504ZM24.9521 54.166C24.9521 52.707 25.2979 51.5352 25.9893 50.6504C26.6807 49.7598 27.5859 49.3145 28.7051 49.3145C29.8184 49.3145 30.7002 49.6953 31.3506 50.457V45.5H32.9766V59H31.4824L31.4033 57.9805C30.7529 58.7773 29.8477 59.1758 28.6875 59.1758C27.5859 59.1758 26.6865 58.7246 25.9893 57.8223C25.2979 56.9199 24.9521 55.7422 24.9521 54.2891V54.166ZM26.5781 54.3506C26.5781 55.4287 26.8008 56.2725 27.2461 56.8818C27.6914 57.4912 28.3066 57.7959 29.0918 57.7959C30.123 57.7959 30.876 57.333 31.3506 56.4072V52.0391C30.8643 51.1426 30.1172 50.6943 29.1094 50.6943C28.3125 50.6943 27.6914 51.002 27.2461 51.6172C26.8008 52.2324 26.5781 53.1436 26.5781 54.3506ZM35.1211 54.166C35.1211 52.6836 35.4639 51.5059 36.1494 50.6328C36.835 49.7539 37.7432 49.3145 38.874 49.3145C40.0342 49.3145 40.9395 49.7246 41.5898 50.5449L41.6689 49.4902H43.1543V58.7715C43.1543 60.002 42.7881 60.9717 42.0557 61.6807C41.3291 62.3896 40.3506 62.7441 39.1201 62.7441C38.4346 62.7441 37.7637 62.5977 37.1074 62.3047C36.4512 62.0117 35.9502 61.6104 35.6045 61.1006L36.4482 60.125C37.1455 60.9863 37.998 61.417 39.0059 61.417C39.7969 61.417 40.4121 61.1943 40.8516 60.749C41.2969 60.3037 41.5195 59.6768 41.5195 58.8682V58.0508C40.8691 58.8008 39.9814 59.1758 38.8564 59.1758C37.7432 59.1758 36.8408 58.7275 36.1494 57.8311C35.4639 56.9346 35.1211 55.7129 35.1211 54.166ZM36.7559 54.3506C36.7559 55.4229 36.9756 56.2666 37.415 56.8818C37.8545 57.4912 38.4697 57.7959 39.2607 57.7959C40.2861 57.7959 41.0391 57.3301 41.5195 56.3984V52.0566C41.0215 51.1484 40.2744 50.6943 39.2783 50.6943C38.4873 50.6943 37.8691 51.002 37.4238 51.6172C36.9785 52.2324 36.7559 53.1436 36.7559 54.3506ZM49.5615 59.1758C48.2725 59.1758 47.2236 58.7539 46.415 57.9102C45.6064 57.0605 45.2021 55.9268 45.2021 54.5088V54.21C45.2021 53.2666 45.3809 52.4258 45.7383 51.6875C46.1016 50.9434 46.6055 50.3633 47.25 49.9473C47.9004 49.5254 48.6035 49.3145 49.3594 49.3145C50.5957 49.3145 51.5566 49.7217 52.2422 50.5361C52.9277 51.3506 53.2705 52.5166 53.2705 54.0342V54.7109H46.8281C46.8516 55.6484 47.124 56.4072 47.6455 56.9873C48.1729 57.5615 48.8408 57.8486 49.6494 57.8486C50.2236 57.8486 50.71 57.7314 51.1084 57.4971C51.5068 57.2627 51.8555 56.9521 52.1543 56.5654L53.1475 57.3389C52.3506 58.5635 51.1553 59.1758 49.5615 59.1758ZM49.3594 50.6504C48.7031 50.6504 48.1523 50.8906 47.707 51.3711C47.2617 51.8457 46.9863 52.5137 46.8809 53.375H51.6445V53.252C51.5977 52.4258 51.375 51.7871 50.9766 51.3359C50.5781 50.8789 50.0391 50.6504 49.3594 50.6504ZM60.6973 56.4775C60.6973 56.0381 60.5303 55.6982 60.1963 55.458C59.8682 55.2119 59.291 55.001 58.4648 54.8252C57.6445 54.6494 56.9912 54.4385 56.5049 54.1924C56.0244 53.9463 55.667 53.6533 55.4326 53.3135C55.2041 52.9736 55.0898 52.5693 55.0898 52.1006C55.0898 51.3213 55.418 50.6621 56.0742 50.123C56.7363 49.584 57.5801 49.3145 58.6055 49.3145C59.6836 49.3145 60.5566 49.5928 61.2246 50.1494C61.8984 50.7061 62.2354 51.418 62.2354 52.2852H60.6006C60.6006 51.8398 60.4102 51.4561 60.0293 51.1338C59.6543 50.8115 59.1797 50.6504 58.6055 50.6504C58.0137 50.6504 57.5508 50.7793 57.2168 51.0371C56.8828 51.2949 56.7158 51.6318 56.7158 52.0479C56.7158 52.4404 56.8711 52.7363 57.1816 52.9355C57.4922 53.1348 58.0518 53.3252 58.8604 53.5068C59.6748 53.6885 60.334 53.9053 60.8379 54.1572C61.3418 54.4092 61.7139 54.7139 61.9541 55.0713C62.2002 55.4229 62.3232 55.8535 62.3232 56.3633C62.3232 57.2129 61.9834 57.8955 61.3037 58.4111C60.624 58.9209 59.7422 59.1758 58.6582 59.1758C57.8965 59.1758 57.2227 59.041 56.6367 58.7715C56.0508 58.502 55.5908 58.127 55.2568 57.6465C54.9287 57.1602 54.7646 56.6357 54.7646 56.0732H56.3906C56.4199 56.6182 56.6367 57.0518 57.041 57.374C57.4512 57.6904 57.9902 57.8486 58.6582 57.8486C59.2734 57.8486 59.7656 57.7256 60.1348 57.4795C60.5098 57.2275 60.6973 56.8936 60.6973 56.4775Z" transform="translate(624)" fill="black"/>
<line y1="-0.5" x2="20" y2="-0.5" transform="translate(686 55)" stroke="black"/>
<line y1="-0.5" x2="129.321" y2="-0.5" transform="translate(611 127) rotate(31.7236)" stroke="black"/>
<line y1="-0.5" x2="125.936" y2="-0.5" transform="translate(613 196) rotate(-32.6806)" stroke="black"/>
</svg>

