<svg width="511" height="176" viewBox="0 0 511 176" fill="none" xmlns="http://www.w3.org/2000/svg">
<rect width="511" height="176" fill="white"/>
<path d="M44 34.4117H467.255V135.588H44V34.4117Z" fill="#F1F4F8"/>
<path d="M55.5407 68.2409V71.3209H53.2207V57.6209H55.1207L55.3007 58.7409H55.3607C55.7874 58.3543 56.274 58.0343 56.8207 57.7809C57.3807 57.5143 57.9407 57.3809 58.5007 57.3809C59.1407 57.3809 59.7074 57.5009 60.2007 57.7409C60.7074 57.9676 61.1274 58.3009 61.4607 58.7409C61.8074 59.1809 62.0674 59.7076 62.2407 60.3209C62.4274 60.9343 62.5207 61.6209 62.5207 62.3809C62.5207 63.2209 62.4007 63.9743 62.1607 64.6409C61.9207 65.2943 61.594 65.8476 61.1807 66.3009C60.7807 66.7409 60.314 67.0809 59.7807 67.3209C59.2607 67.5609 58.7207 67.6809 58.1607 67.6809C57.7074 67.6809 57.2407 67.5809 56.7607 67.3809C56.294 67.1809 55.8607 66.8943 55.4607 66.5209L55.5407 68.2409ZM55.5407 64.8809C55.9007 65.2143 56.2674 65.4476 56.6407 65.5809C57.0274 65.7143 57.374 65.7809 57.6807 65.7809C58.3874 65.7809 58.974 65.5009 59.4407 64.9409C59.9074 64.3676 60.1407 63.5209 60.1407 62.4009C60.1407 61.4143 59.9607 60.6476 59.6007 60.1009C59.2407 59.5543 58.6607 59.2809 57.8607 59.2809C57.4874 59.2809 57.1074 59.3743 56.7207 59.5609C56.334 59.7476 55.9407 60.0476 55.5407 60.4609V64.8809ZM64.9929 53.3209H70.3929V63.9809C70.3929 64.6476 70.5595 65.1209 70.8929 65.4009C71.2262 65.6676 71.6462 65.8009 72.1529 65.8009C72.6329 65.8009 73.1929 65.6743 73.8329 65.4209L74.3729 67.1209C73.9062 67.2809 73.4662 67.4143 73.0529 67.5209C72.6529 67.6276 72.1662 67.6809 71.5929 67.6809C70.4329 67.6809 69.5595 67.3476 68.9729 66.6809C68.3862 66.0143 68.0929 65.0743 68.0929 63.8609V55.1409H64.9929V53.3209ZM85.8651 67.4409H83.9851L83.8051 65.8809H83.7251C83.2584 66.4276 82.7451 66.8676 82.1851 67.2009C81.6251 67.5209 80.9784 67.6809 80.2451 67.6809C79.0984 67.6809 78.2651 67.3409 77.7451 66.6609C77.2251 65.9676 76.9651 64.9809 76.9651 63.7009V57.6209H79.2651V63.4009C79.2651 64.2009 79.3984 64.7876 79.6651 65.1609C79.9451 65.5209 80.4251 65.7009 81.1051 65.7009C81.5717 65.7009 81.9851 65.5943 82.3451 65.3809C82.7184 65.1676 83.1251 64.7876 83.5651 64.2409V57.6209H85.8651V67.4409ZM89.8773 64.7009C90.4373 65.0876 91.0173 65.3943 91.6173 65.6209C92.2306 65.8343 92.9173 65.9409 93.6773 65.9409C94.4506 65.9409 95.0173 65.8343 95.3773 65.6209C95.7373 65.3943 95.9173 65.1076 95.9173 64.7609C95.9173 64.4143 95.6839 64.1276 95.2173 63.9009C94.7506 63.6609 94.0173 63.4076 93.0173 63.1409C92.5506 63.0209 92.0973 62.8743 91.6573 62.7009C91.2173 62.5276 90.8306 62.3276 90.4973 62.1009C90.1639 61.8743 89.8973 61.6143 89.6973 61.3209C89.4973 61.0276 89.3973 60.6943 89.3973 60.3209C89.3973 59.4543 89.7706 58.7476 90.5173 58.2009C91.2639 57.6543 92.3373 57.3809 93.7373 57.3809C94.5373 57.3809 95.2906 57.5143 95.9973 57.7809C96.7039 58.0476 97.3106 58.3476 97.8173 58.6809L96.7573 60.1009C96.3173 59.8076 95.8439 59.5743 95.3373 59.4009C94.8439 59.2143 94.3173 59.1209 93.7573 59.1209C92.9973 59.1209 92.4639 59.2276 92.1573 59.4409C91.8506 59.6409 91.6973 59.8943 91.6973 60.2009C91.6973 60.3743 91.7639 60.5343 91.8973 60.6809C92.0439 60.8143 92.2373 60.9409 92.4773 61.0609C92.7306 61.1676 93.0239 61.2743 93.3573 61.3809C93.6906 61.4876 94.0573 61.5876 94.4573 61.6809C95.0306 61.8276 95.5439 61.9943 95.9973 62.1809C96.4639 62.3543 96.8573 62.5543 97.1773 62.7809C97.5106 63.0076 97.7639 63.2743 97.9373 63.5809C98.1239 63.8876 98.2173 64.2409 98.2173 64.6409C98.2173 65.0676 98.1173 65.4676 97.9173 65.8409C97.7173 66.2009 97.4239 66.5209 97.0373 66.8009C96.6506 67.0676 96.1706 67.2809 95.5973 67.4409C95.0239 67.6009 94.3639 67.6809 93.6173 67.6809C92.6973 67.6809 91.8173 67.5343 90.9773 67.2409C90.1373 66.9476 89.4106 66.5876 88.7973 66.1609L89.8773 64.7009ZM110.349 68.6809V70.4809H100.749V68.6809H110.349ZM112.602 62.5409C112.602 61.7276 112.735 61.0009 113.002 60.3609C113.282 59.7209 113.648 59.1809 114.102 58.7409C114.555 58.3009 115.082 57.9676 115.682 57.7409C116.282 57.5009 116.902 57.3809 117.542 57.3809C118.182 57.3809 118.802 57.5009 119.402 57.7409C120.002 57.9676 120.528 58.3009 120.982 58.7409C121.435 59.1809 121.795 59.7209 122.062 60.3609C122.342 61.0009 122.482 61.7276 122.482 62.5409C122.482 63.3543 122.342 64.0809 122.062 64.7209C121.795 65.3609 121.435 65.9009 120.982 66.3409C120.528 66.7809 120.002 67.1143 119.402 67.3409C118.802 67.5676 118.182 67.6809 117.542 67.6809C116.902 67.6809 116.282 67.5676 115.682 67.3409C115.082 67.1143 114.555 66.7809 114.102 66.3409C113.648 65.9009 113.282 65.3609 113.002 64.7209C112.735 64.0809 112.602 63.3543 112.602 62.5409ZM114.982 62.5409C114.982 63.5276 115.208 64.3209 115.662 64.9209C116.115 65.5076 116.742 65.8009 117.542 65.8009C118.342 65.8009 118.968 65.5076 119.422 64.9209C119.875 64.3209 120.102 63.5276 120.102 62.5409C120.102 61.5409 119.875 60.7476 119.422 60.1609C118.968 59.5609 118.342 59.2609 117.542 59.2609C116.742 59.2609 116.115 59.5609 115.662 60.1609C115.208 60.7476 114.982 61.5409 114.982 62.5409ZM125.174 57.6209H127.074L127.254 59.1009H127.334C127.8 58.6343 128.314 58.2343 128.874 57.9009C129.447 57.5543 130.114 57.3809 130.874 57.3809C132.007 57.3809 132.84 57.7276 133.374 58.4209C133.907 59.1009 134.174 60.0809 134.174 61.3609V67.4409H131.854V61.6609C131.854 60.8609 131.714 60.2809 131.434 59.9209C131.167 59.5476 130.694 59.3609 130.014 59.3609C129.534 59.3609 129.107 59.4743 128.734 59.7009C128.36 59.9276 127.947 60.2743 127.494 60.7409V67.4409H125.174V57.6209ZM136.766 62.5409C136.766 61.7409 136.906 61.0209 137.186 60.3809C137.479 59.7409 137.859 59.2009 138.326 58.7609C138.793 58.3076 139.326 57.9676 139.926 57.7409C140.539 57.5009 141.166 57.3809 141.806 57.3809C142.539 57.3809 143.186 57.5009 143.746 57.7409C144.319 57.9676 144.799 58.2876 145.186 58.7009C145.573 59.1009 145.866 59.5876 146.066 60.1609C146.266 60.7343 146.366 61.3609 146.366 62.0409C146.366 62.2676 146.353 62.4809 146.326 62.6809C146.313 62.8809 146.293 63.0409 146.266 63.1609H139.126C139.206 64.0409 139.553 64.7209 140.166 65.2009C140.779 65.6676 141.533 65.9009 142.426 65.9009C142.933 65.9009 143.406 65.8343 143.846 65.7009C144.286 65.5543 144.733 65.3543 145.186 65.1009L145.966 66.5409C145.433 66.8743 144.839 67.1476 144.186 67.3609C143.533 67.5743 142.846 67.6809 142.126 67.6809C141.379 67.6809 140.679 67.5676 140.026 67.3409C139.373 67.1009 138.806 66.7609 138.326 66.3209C137.846 65.8809 137.466 65.3476 137.186 64.7209C136.906 64.0809 136.766 63.3543 136.766 62.5409ZM144.246 61.6009C144.246 60.8409 144.046 60.2476 143.646 59.8209C143.246 59.3809 142.653 59.1609 141.866 59.1609C141.199 59.1609 140.606 59.3676 140.086 59.7809C139.566 60.1943 139.239 60.8009 139.106 61.6009H144.246Z" fill="#009E73"/>
<path d="M161.07 57.7609H169.95V59.4409H161.07V57.7609ZM161.07 62.2209H169.95V63.9009H161.07V62.2209ZM187.755 53.2809H193.475V54.5409H189.535V69.2209H193.475V70.4809H187.755V53.2809ZM201.447 69.2209V54.5409H197.527V53.2809H203.247V70.4809H197.527V69.2209H201.447ZM211.499 83.8609C211.499 83.2743 211.686 82.7943 212.059 82.4209C212.432 82.0343 212.906 81.8409 213.479 81.8409C214.052 81.8409 214.526 82.0343 214.899 82.4209C215.272 82.7943 215.459 83.2743 215.459 83.8609C215.459 84.4476 215.272 84.9343 214.899 85.3209C214.526 85.6943 214.052 85.8809 213.479 85.8809C212.906 85.8809 212.432 85.6943 212.059 85.3209C211.686 84.9343 211.499 84.4476 211.499 83.8609ZM211.499 90.6609C211.499 90.0743 211.686 89.5943 212.059 89.2209C212.432 88.8343 212.906 88.6409 213.479 88.6409C214.052 88.6409 214.526 88.8343 214.899 89.2209C215.272 89.5943 215.459 90.0743 215.459 90.6609C215.459 91.2476 215.272 91.7343 214.899 92.1209C214.526 92.4943 214.052 92.6809 213.479 92.6809C212.906 92.6809 212.432 92.4943 212.059 92.1209C211.686 91.7343 211.499 91.2476 211.499 90.6609ZM103.509 118.241V121.321H101.189V107.621H103.089L103.269 108.741H103.329C103.756 108.354 104.243 108.034 104.789 107.781C105.349 107.514 105.909 107.381 106.469 107.381C107.109 107.381 107.676 107.501 108.169 107.741C108.676 107.968 109.096 108.301 109.429 108.741C109.776 109.181 110.036 109.708 110.209 110.321C110.396 110.934 110.489 111.621 110.489 112.381C110.489 113.221 110.369 113.974 110.129 114.641C109.889 115.294 109.563 115.848 109.149 116.301C108.749 116.741 108.283 117.081 107.749 117.321C107.229 117.561 106.689 117.681 106.129 117.681C105.676 117.681 105.209 117.581 104.729 117.381C104.263 117.181 103.829 116.894 103.429 116.521L103.509 118.241ZM103.509 114.881C103.869 115.214 104.236 115.448 104.609 115.581C104.996 115.714 105.343 115.781 105.649 115.781C106.356 115.781 106.943 115.501 107.409 114.941C107.876 114.368 108.109 113.521 108.109 112.401C108.109 111.414 107.929 110.648 107.569 110.101C107.209 109.554 106.629 109.281 105.829 109.281C105.456 109.281 105.076 109.374 104.689 109.561C104.303 109.748 103.909 110.048 103.509 110.461V114.881ZM112.962 103.321H118.362V113.981C118.362 114.648 118.528 115.121 118.862 115.401C119.195 115.668 119.615 115.801 120.122 115.801C120.602 115.801 121.162 115.674 121.802 115.421L122.342 117.121C121.875 117.281 121.435 117.414 121.022 117.521C120.622 117.628 120.135 117.681 119.562 117.681C118.402 117.681 117.528 117.348 116.942 116.681C116.355 116.014 116.062 115.074 116.062 113.861V105.141H112.962V103.321ZM133.834 117.441H131.954L131.774 115.881H131.694C131.227 116.428 130.714 116.868 130.154 117.201C129.594 117.521 128.947 117.681 128.214 117.681C127.067 117.681 126.234 117.341 125.714 116.661C125.194 115.968 124.934 114.981 124.934 113.701V107.621H127.234V113.401C127.234 114.201 127.367 114.788 127.634 115.161C127.914 115.521 128.394 115.701 129.074 115.701C129.54 115.701 129.954 115.594 130.314 115.381C130.687 115.168 131.094 114.788 131.534 114.241V107.621H133.834V117.441ZM137.846 114.701C138.406 115.088 138.986 115.394 139.586 115.621C140.199 115.834 140.886 115.941 141.646 115.941C142.419 115.941 142.986 115.834 143.346 115.621C143.706 115.394 143.886 115.108 143.886 114.761C143.886 114.414 143.653 114.128 143.186 113.901C142.719 113.661 141.986 113.408 140.986 113.141C140.519 113.021 140.066 112.874 139.626 112.701C139.186 112.528 138.799 112.328 138.466 112.101C138.133 111.874 137.866 111.614 137.666 111.321C137.466 111.028 137.366 110.694 137.366 110.321C137.366 109.454 137.739 108.748 138.486 108.201C139.233 107.654 140.306 107.381 141.706 107.381C142.506 107.381 143.259 107.514 143.966 107.781C144.673 108.048 145.279 108.348 145.786 108.681L144.726 110.101C144.286 109.808 143.813 109.574 143.306 109.401C142.813 109.214 142.286 109.121 141.726 109.121C140.966 109.121 140.433 109.228 140.126 109.441C139.819 109.641 139.666 109.894 139.666 110.201C139.666 110.374 139.733 110.534 139.866 110.681C140.013 110.814 140.206 110.941 140.446 111.061C140.699 111.168 140.993 111.274 141.326 111.381C141.659 111.488 142.026 111.588 142.426 111.681C142.999 111.828 143.513 111.994 143.966 112.181C144.433 112.354 144.826 112.554 145.146 112.781C145.479 113.008 145.733 113.274 145.906 113.581C146.093 113.888 146.186 114.241 146.186 114.641C146.186 115.068 146.086 115.468 145.886 115.841C145.686 116.201 145.393 116.521 145.006 116.801C144.619 117.068 144.139 117.281 143.566 117.441C142.993 117.601 142.333 117.681 141.586 117.681C140.666 117.681 139.786 117.534 138.946 117.241C138.106 116.948 137.379 116.588 136.766 116.161L137.846 114.701ZM158.318 118.681V120.481H148.718V118.681H158.318ZM160.57 112.541C160.57 111.728 160.704 111.001 160.97 110.361C161.25 109.721 161.617 109.181 162.07 108.741C162.524 108.301 163.05 107.968 163.65 107.741C164.25 107.501 164.87 107.381 165.51 107.381C166.15 107.381 166.77 107.501 167.37 107.741C167.97 107.968 168.497 108.301 168.95 108.741C169.404 109.181 169.764 109.721 170.03 110.361C170.31 111.001 170.45 111.728 170.45 112.541C170.45 113.354 170.31 114.081 170.03 114.721C169.764 115.361 169.404 115.901 168.95 116.341C168.497 116.781 167.97 117.114 167.37 117.341C166.77 117.568 166.15 117.681 165.51 117.681C164.87 117.681 164.25 117.568 163.65 117.341C163.05 117.114 162.524 116.781 162.07 116.341C161.617 115.901 161.25 115.361 160.97 114.721C160.704 114.081 160.57 113.354 160.57 112.541ZM162.95 112.541C162.95 113.528 163.177 114.321 163.63 114.921C164.084 115.508 164.71 115.801 165.51 115.801C166.31 115.801 166.937 115.508 167.39 114.921C167.844 114.321 168.07 113.528 168.07 112.541C168.07 111.541 167.844 110.748 167.39 110.161C166.937 109.561 166.31 109.261 165.51 109.261C164.71 109.261 164.084 109.561 163.63 110.161C163.177 110.748 162.95 111.541 162.95 112.541ZM173.143 107.621H175.043L175.223 109.101H175.303C175.769 108.634 176.283 108.234 176.843 107.901C177.416 107.554 178.083 107.381 178.843 107.381C179.976 107.381 180.809 107.728 181.343 108.421C181.876 109.101 182.143 110.081 182.143 111.361V117.441H179.823V111.661C179.823 110.861 179.683 110.281 179.403 109.921C179.136 109.548 178.663 109.361 177.983 109.361C177.503 109.361 177.076 109.474 176.703 109.701C176.329 109.928 175.916 110.274 175.463 110.741V117.441H173.143V107.621ZM184.735 112.541C184.735 111.741 184.875 111.021 185.155 110.381C185.448 109.741 185.828 109.201 186.295 108.761C186.761 108.308 187.295 107.968 187.895 107.741C188.508 107.501 189.135 107.381 189.775 107.381C190.508 107.381 191.155 107.501 191.715 107.741C192.288 107.968 192.768 108.288 193.155 108.701C193.541 109.101 193.835 109.588 194.035 110.161C194.235 110.734 194.335 111.361 194.335 112.041C194.335 112.268 194.321 112.481 194.295 112.681C194.281 112.881 194.261 113.041 194.235 113.161H187.095C187.175 114.041 187.521 114.721 188.135 115.201C188.748 115.668 189.501 115.901 190.395 115.901C190.901 115.901 191.375 115.834 191.815 115.701C192.255 115.554 192.701 115.354 193.155 115.101L193.935 116.541C193.401 116.874 192.808 117.148 192.155 117.361C191.501 117.574 190.815 117.681 190.095 117.681C189.348 117.681 188.648 117.568 187.995 117.341C187.341 117.101 186.775 116.761 186.295 116.321C185.815 115.881 185.435 115.348 185.155 114.721C184.875 114.081 184.735 113.354 184.735 112.541ZM192.215 111.601C192.215 110.841 192.015 110.248 191.615 109.821C191.215 109.381 190.621 109.161 189.835 109.161C189.168 109.161 188.575 109.368 188.055 109.781C187.535 110.194 187.208 110.801 187.075 111.601H192.215ZM199.507 115.661C199.507 115.074 199.694 114.594 200.067 114.221C200.44 113.834 200.914 113.641 201.487 113.641C202.06 113.641 202.534 113.834 202.907 114.221C203.28 114.594 203.467 115.074 203.467 115.661C203.467 116.248 203.28 116.734 202.907 117.121C202.534 117.494 202.06 117.681 201.487 117.681C200.914 117.681 200.44 117.494 200.067 117.121C199.694 116.734 199.507 116.248 199.507 115.661ZM208.899 114.801C208.899 114.254 209.026 113.774 209.279 113.361C209.532 112.934 209.932 112.574 210.479 112.281C211.026 111.988 211.726 111.748 212.579 111.561C213.432 111.374 214.466 111.241 215.679 111.161C215.639 110.601 215.439 110.141 215.079 109.781C214.719 109.421 214.139 109.241 213.339 109.241C212.779 109.241 212.226 109.348 211.679 109.561C211.146 109.761 210.626 110.001 210.119 110.281L209.279 108.741C209.879 108.394 210.566 108.081 211.339 107.801C212.112 107.521 212.919 107.381 213.759 107.381C215.132 107.381 216.179 107.748 216.899 108.481C217.619 109.201 217.979 110.248 217.979 111.621V117.441H216.099L215.919 116.221H215.859C215.339 116.621 214.759 116.968 214.119 117.261C213.492 117.541 212.846 117.681 212.179 117.681C211.699 117.681 211.259 117.608 210.859 117.461C210.459 117.328 210.112 117.134 209.819 116.881C209.526 116.628 209.299 116.328 209.139 115.981C208.979 115.621 208.899 115.228 208.899 114.801ZM211.119 114.621C211.119 115.061 211.286 115.381 211.619 115.581C211.966 115.781 212.386 115.881 212.879 115.881C213.372 115.881 213.846 115.774 214.299 115.561C214.766 115.334 215.226 115.041 215.679 114.681V112.601C214.799 112.668 214.066 112.761 213.479 112.881C212.892 112.988 212.426 113.128 212.079 113.301C211.732 113.474 211.486 113.674 211.339 113.901C211.192 114.114 211.119 114.354 211.119 114.621ZM223.431 118.241V121.321H221.111V107.621H223.011L223.191 108.741H223.251C223.678 108.354 224.165 108.034 224.711 107.781C225.271 107.514 225.831 107.381 226.391 107.381C227.031 107.381 227.598 107.501 228.091 107.741C228.598 107.968 229.018 108.301 229.351 108.741C229.698 109.181 229.958 109.708 230.131 110.321C230.318 110.934 230.411 111.621 230.411 112.381C230.411 113.221 230.291 113.974 230.051 114.641C229.811 115.294 229.485 115.848 229.071 116.301C228.671 116.741 228.205 117.081 227.671 117.321C227.151 117.561 226.611 117.681 226.051 117.681C225.598 117.681 225.131 117.581 224.651 117.381C224.185 117.181 223.751 116.894 223.351 116.521L223.431 118.241ZM223.431 114.881C223.791 115.214 224.158 115.448 224.531 115.581C224.918 115.714 225.265 115.781 225.571 115.781C226.278 115.781 226.865 115.501 227.331 114.941C227.798 114.368 228.031 113.521 228.031 112.401C228.031 111.414 227.851 110.648 227.491 110.101C227.131 109.554 226.551 109.281 225.751 109.281C225.378 109.281 224.998 109.374 224.611 109.561C224.225 109.748 223.831 110.048 223.431 110.461V114.881ZM235.424 118.241V121.321H233.104V107.621H235.004L235.184 108.741H235.244C235.67 108.354 236.157 108.034 236.704 107.781C237.264 107.514 237.824 107.381 238.384 107.381C239.024 107.381 239.59 107.501 240.084 107.741C240.59 107.968 241.01 108.301 241.344 108.741C241.69 109.181 241.95 109.708 242.124 110.321C242.31 110.934 242.404 111.621 242.404 112.381C242.404 113.221 242.284 113.974 242.044 114.641C241.804 115.294 241.477 115.848 241.064 116.301C240.664 116.741 240.197 117.081 239.664 117.321C239.144 117.561 238.604 117.681 238.044 117.681C237.59 117.681 237.124 117.581 236.644 117.381C236.177 117.181 235.744 116.894 235.344 116.521L235.424 118.241ZM235.424 114.881C235.784 115.214 236.15 115.448 236.524 115.581C236.91 115.714 237.257 115.781 237.564 115.781C238.27 115.781 238.857 115.501 239.324 114.941C239.79 114.368 240.024 113.521 240.024 112.401C240.024 111.414 239.844 110.648 239.484 110.101C239.124 109.554 238.544 109.281 237.744 109.281C237.37 109.281 236.99 109.374 236.604 109.561C236.217 109.748 235.824 110.048 235.424 110.461V114.881ZM244.696 112.541C244.696 111.741 244.836 111.021 245.116 110.381C245.409 109.741 245.789 109.201 246.256 108.761C246.722 108.308 247.256 107.968 247.856 107.741C248.469 107.501 249.096 107.381 249.736 107.381C250.469 107.381 251.116 107.501 251.676 107.741C252.249 107.968 252.729 108.288 253.116 108.701C253.502 109.101 253.796 109.588 253.996 110.161C254.196 110.734 254.296 111.361 254.296 112.041C254.296 112.268 254.282 112.481 254.256 112.681C254.242 112.881 254.222 113.041 254.196 113.161H247.056C247.136 114.041 247.482 114.721 248.096 115.201C248.709 115.668 249.462 115.901 250.356 115.901C250.862 115.901 251.336 115.834 251.776 115.701C252.216 115.554 252.662 115.354 253.116 115.101L253.896 116.541C253.362 116.874 252.769 117.148 252.116 117.361C251.462 117.574 250.776 117.681 250.056 117.681C249.309 117.681 248.609 117.568 247.956 117.341C247.302 117.101 246.736 116.761 246.256 116.321C245.776 115.881 245.396 115.348 245.116 114.721C244.836 114.081 244.696 113.354 244.696 112.541ZM252.176 111.601C252.176 110.841 251.976 110.248 251.576 109.821C251.176 109.381 250.582 109.161 249.796 109.161C249.129 109.161 248.536 109.368 248.016 109.781C247.496 110.194 247.169 110.801 247.036 111.601H252.176ZM257.088 107.621H258.988L259.168 109.101H259.248C259.715 108.634 260.228 108.234 260.788 107.901C261.361 107.554 262.028 107.381 262.788 107.381C263.921 107.381 264.755 107.728 265.288 108.421C265.821 109.101 266.088 110.081 266.088 111.361V117.441H263.768V111.661C263.768 110.861 263.628 110.281 263.348 109.921C263.081 109.548 262.608 109.361 261.928 109.361C261.448 109.361 261.021 109.474 260.648 109.701C260.275 109.928 259.861 110.274 259.408 110.741V117.441H257.088V107.621ZM268.5 112.541C268.5 111.741 268.62 111.021 268.86 110.381C269.1 109.741 269.42 109.201 269.82 108.761C270.233 108.321 270.7 107.981 271.22 107.741C271.74 107.501 272.28 107.381 272.84 107.381C273.427 107.381 273.927 107.488 274.34 107.701C274.767 107.901 275.18 108.181 275.58 108.541L275.48 106.881V103.321H277.8V117.441H275.9L275.72 116.301H275.66C275.273 116.688 274.82 117.014 274.3 117.281C273.793 117.548 273.26 117.681 272.7 117.681C272.073 117.681 271.5 117.568 270.98 117.341C270.46 117.101 270.013 116.761 269.64 116.321C269.28 115.881 269 115.348 268.8 114.721C268.6 114.081 268.5 113.354 268.5 112.541ZM270.88 112.521C270.88 113.588 271.087 114.401 271.5 114.961C271.913 115.508 272.5 115.781 273.26 115.781C274.073 115.781 274.813 115.388 275.48 114.601V110.181C275.133 109.848 274.787 109.614 274.44 109.481C274.093 109.348 273.74 109.281 273.38 109.281C273.033 109.281 272.707 109.354 272.4 109.501C272.107 109.648 271.847 109.861 271.62 110.141C271.393 110.408 271.213 110.741 271.08 111.141C270.947 111.541 270.88 112.001 270.88 112.521ZM287.672 120.981C286.326 119.861 285.259 118.541 284.472 117.021C283.699 115.501 283.312 113.788 283.312 111.881C283.312 109.974 283.699 108.261 284.472 106.741C285.259 105.221 286.326 103.901 287.672 102.781L288.952 103.841C287.686 104.988 286.759 106.208 286.172 107.501C285.586 108.794 285.292 110.254 285.292 111.881C285.292 113.508 285.586 114.968 286.172 116.261C286.759 117.554 287.686 118.774 288.952 119.921L287.672 120.981ZM353.865 119.921C355.132 118.774 356.059 117.554 356.645 116.261C357.232 114.968 357.525 113.508 357.525 111.881C357.525 110.254 357.232 108.794 356.645 107.501C356.059 106.208 355.132 104.988 353.865 103.841L355.145 102.781C356.492 103.901 357.552 105.221 358.325 106.741C359.112 108.261 359.505 109.974 359.505 111.881C359.505 113.788 359.112 115.501 358.325 117.021C357.552 118.541 356.492 119.861 355.145 120.981L353.865 119.921Z" fill="#2E383C"/>
<path d="M62.7407 80.3209C62.3807 80.1743 62.0274 80.0676 61.6807 80.0009C61.3474 79.9343 60.9807 79.9009 60.5807 79.9009C59.8207 79.9009 59.2674 80.0876 58.9207 80.4609C58.5874 80.8209 58.4207 81.3476 58.4207 82.0409V82.6209H62.1607V84.4409H58.4207V92.4409H56.1407V84.4409H53.4207V82.7209L56.1407 82.6209V82.0809C56.1407 81.5076 56.2207 80.9743 56.3807 80.4809C56.5407 79.9876 56.7874 79.5676 57.1207 79.2209C57.4674 78.8609 57.9007 78.5809 58.4207 78.3809C58.954 78.1809 59.5807 78.0809 60.3007 78.0809C60.834 78.0809 61.3407 78.1276 61.8207 78.2209C62.314 78.3143 62.7807 78.4476 63.2207 78.6209L62.7407 80.3209ZM64.6329 87.5409C64.6329 86.7276 64.7662 86.0009 65.0329 85.3609C65.3129 84.7209 65.6795 84.1809 66.1329 83.7409C66.5862 83.3009 67.1129 82.9676 67.7129 82.7409C68.3129 82.5009 68.9329 82.3809 69.5729 82.3809C70.2129 82.3809 70.8329 82.5009 71.4329 82.7409C72.0329 82.9676 72.5595 83.3009 73.0129 83.7409C73.4662 84.1809 73.8262 84.7209 74.0929 85.3609C74.3729 86.0009 74.5129 86.7276 74.5129 87.5409C74.5129 88.3543 74.3729 89.0809 74.0929 89.7209C73.8262 90.3609 73.4662 90.9009 73.0129 91.3409C72.5595 91.7809 72.0329 92.1143 71.4329 92.3409C70.8329 92.5676 70.2129 92.6809 69.5729 92.6809C68.9329 92.6809 68.3129 92.5676 67.7129 92.3409C67.1129 92.1143 66.5862 91.7809 66.1329 91.3409C65.6795 90.9009 65.3129 90.3609 65.0329 89.7209C64.7662 89.0809 64.6329 88.3543 64.6329 87.5409ZM67.0129 87.5409C67.0129 88.5276 67.2395 89.3209 67.6929 89.9209C68.1462 90.5076 68.7729 90.8009 69.5729 90.8009C70.3729 90.8009 70.9995 90.5076 71.4529 89.9209C71.9062 89.3209 72.1329 88.5276 72.1329 87.5409C72.1329 86.5409 71.9062 85.7476 71.4529 85.1609C70.9995 84.5609 70.3729 84.2609 69.5729 84.2609C68.7729 84.2609 68.1462 84.5609 67.6929 85.1609C67.2395 85.7476 67.0129 86.5409 67.0129 87.5409ZM78.1651 82.6209H80.0651L80.2651 84.8409H80.3251C80.8317 84.0409 81.4384 83.4343 82.1451 83.0209C82.8651 82.5943 83.6517 82.3809 84.5051 82.3809C84.9051 82.3809 85.2451 82.4143 85.5251 82.4809C85.8184 82.5343 86.1117 82.6343 86.4051 82.7809L85.9251 84.7209C85.6051 84.6143 85.3184 84.5409 85.0651 84.5009C84.8251 84.4476 84.5184 84.4209 84.1451 84.4209C83.4651 84.4209 82.8117 84.6143 82.1851 85.0009C81.5584 85.3876 80.9917 86.0609 80.4851 87.0209V92.4409H78.1651V82.6209ZM101.229 82.6209H107.789V92.4409H105.489V84.4409H101.229V82.6209ZM106.469 80.9009C106.003 80.9009 105.609 80.7609 105.289 80.4809C104.983 80.2009 104.829 79.8276 104.829 79.3609C104.829 78.8943 104.983 78.5209 105.289 78.2409C105.609 77.9476 106.003 77.8009 106.469 77.8009C106.949 77.8009 107.343 77.9476 107.649 78.2409C107.956 78.5209 108.109 78.8943 108.109 79.3609C108.109 79.8276 107.956 80.2009 107.649 80.4809C107.343 80.7609 106.949 80.9009 106.469 80.9009ZM125.214 82.6209H131.774V92.4409H129.474V84.4409H125.214V82.6209ZM130.454 80.9009C129.987 80.9009 129.594 80.7609 129.274 80.4809C128.967 80.2009 128.814 79.8276 128.814 79.3609C128.814 78.8943 128.967 78.5209 129.274 78.2409C129.594 77.9476 129.987 77.8009 130.454 77.8009C130.934 77.8009 131.327 77.9476 131.634 78.2409C131.94 78.5209 132.094 78.8943 132.094 79.3609C132.094 79.8276 131.94 80.2009 131.634 80.4809C131.327 80.7609 130.934 80.9009 130.454 80.9009ZM137.166 82.6209H139.066L139.246 84.1009H139.326C139.793 83.6343 140.306 83.2343 140.866 82.9009C141.439 82.5543 142.106 82.3809 142.866 82.3809C143.999 82.3809 144.833 82.7276 145.366 83.4209C145.899 84.1009 146.166 85.0809 146.166 86.3609V92.4409H143.846V86.6609C143.846 85.8609 143.706 85.2809 143.426 84.9209C143.159 84.5476 142.686 84.3609 142.006 84.3609C141.526 84.3609 141.099 84.4743 140.726 84.7009C140.353 84.9276 139.939 85.2743 139.486 85.7409V92.4409H137.166V82.6209ZM161.19 82.6209H167.75V92.4409H165.45V84.4409H161.19V82.6209ZM166.43 80.9009C165.964 80.9009 165.57 80.7609 165.25 80.4809C164.944 80.2009 164.79 79.8276 164.79 79.3609C164.79 78.8943 164.944 78.5209 165.25 78.2409C165.57 77.9476 165.964 77.8009 166.43 77.8009C166.91 77.8009 167.304 77.9476 167.61 78.2409C167.917 78.5209 168.07 78.8943 168.07 79.3609C168.07 79.8276 167.917 80.2009 167.61 80.4809C167.304 80.7609 166.91 80.9009 166.43 80.9009ZM173.143 82.6209H175.043L175.223 84.1009H175.303C175.769 83.6343 176.283 83.2343 176.843 82.9009C177.416 82.5543 178.083 82.3809 178.843 82.3809C179.976 82.3809 180.809 82.7276 181.343 83.4209C181.876 84.1009 182.143 85.0809 182.143 86.3609V92.4409H179.823V86.6609C179.823 85.8609 179.683 85.2809 179.403 84.9209C179.136 84.5476 178.663 84.3609 177.983 84.3609C177.503 84.3609 177.076 84.4743 176.703 84.7009C176.329 84.9276 175.916 85.2743 175.463 85.7409V92.4409H173.143V82.6209ZM187.295 84.4409H184.675V82.7209L187.395 82.6209L187.695 79.9409H189.595V82.6209H194.075V84.4409H189.595V88.4809C189.595 89.2943 189.761 89.8943 190.095 90.2809C190.428 90.6543 191.015 90.8409 191.855 90.8409C192.281 90.8409 192.668 90.8076 193.015 90.7409C193.361 90.6609 193.695 90.5609 194.015 90.4409L194.455 92.1209C194.015 92.2676 193.528 92.3943 192.995 92.5009C192.461 92.6209 191.895 92.6809 191.295 92.6809C190.548 92.6809 189.921 92.5809 189.415 92.3809C188.908 92.1809 188.495 91.9009 188.175 91.5409C187.868 91.1676 187.641 90.7209 187.495 90.2009C187.361 89.6809 187.295 89.1076 187.295 88.4809V84.4409ZM197.807 89.7009C198.367 90.0876 198.947 90.3943 199.547 90.6209C200.16 90.8343 200.847 90.9409 201.607 90.9409C202.38 90.9409 202.947 90.8343 203.307 90.6209C203.667 90.3943 203.847 90.1076 203.847 89.7609C203.847 89.4143 203.614 89.1276 203.147 88.9009C202.68 88.6609 201.947 88.4076 200.947 88.1409C200.48 88.0209 200.027 87.8743 199.587 87.7009C199.147 87.5276 198.76 87.3276 198.427 87.1009C198.094 86.8743 197.827 86.6143 197.627 86.3209C197.427 86.0276 197.327 85.6943 197.327 85.3209C197.327 84.4543 197.7 83.7476 198.447 83.2009C199.194 82.6543 200.267 82.3809 201.667 82.3809C202.467 82.3809 203.22 82.5143 203.927 82.7809C204.634 83.0476 205.24 83.3476 205.747 83.6809L204.687 85.1009C204.247 84.8076 203.774 84.5743 203.267 84.4009C202.774 84.2143 202.247 84.1209 201.687 84.1209C200.927 84.1209 200.394 84.2276 200.087 84.4409C199.78 84.6409 199.627 84.8943 199.627 85.2009C199.627 85.3743 199.694 85.5343 199.827 85.6809C199.974 85.8143 200.167 85.9409 200.407 86.0609C200.66 86.1676 200.954 86.2743 201.287 86.3809C201.62 86.4876 201.987 86.5876 202.387 86.6809C202.96 86.8276 203.474 86.9943 203.927 87.1809C204.394 87.3543 204.787 87.5543 205.107 87.7809C205.44 88.0076 205.694 88.2743 205.867 88.5809C206.054 88.8876 206.147 89.2409 206.147 89.6409C206.147 90.0676 206.047 90.4676 205.847 90.8409C205.647 91.2009 205.354 91.5209 204.967 91.8009C204.58 92.0676 204.1 92.2809 203.527 92.4409C202.954 92.6009 202.294 92.6809 201.547 92.6809C200.627 92.6809 199.747 92.5343 198.907 92.2409C198.067 91.9476 197.34 91.5876 196.727 91.1609L197.807 89.7009Z" fill="#9B51E0"/>
<path d="M293.104 107.621H299.664V117.441H297.364V109.441H293.104V107.621ZM298.344 105.901C297.878 105.901 297.484 105.761 297.164 105.481C296.858 105.201 296.704 104.828 296.704 104.361C296.704 103.894 296.858 103.521 297.164 103.241C297.484 102.948 297.878 102.801 298.344 102.801C298.824 102.801 299.218 102.948 299.524 103.241C299.831 103.521 299.984 103.894 299.984 104.361C299.984 104.828 299.831 105.201 299.524 105.481C299.218 105.761 298.824 105.901 298.344 105.901ZM320.529 111.681H316.969V110.001H320.529V106.221H322.289V110.001H325.849V111.681H322.289V115.461H320.529V111.681ZM350.053 115.561V117.441H341.193V115.561H344.633V107.201H341.973V105.761C342.693 105.641 343.307 105.501 343.813 105.341C344.333 105.168 344.813 104.961 345.253 104.721H346.933V115.561H350.053Z" fill="#EB5757"/>
<path d="M58.083 6.5918H54.1016L52.124 18H50.4805L52.458 6.5918H48.4766L48.7227 5.20312H58.3291L58.083 6.5918ZM62.6006 18C62.5596 17.8301 62.5391 17.6631 62.5391 17.499L62.5654 16.998C61.6924 17.8066 60.7666 18.1992 59.7881 18.1758C58.9502 18.1641 58.2676 17.9004 57.7402 17.3848C57.2188 16.8633 56.9814 16.2129 57.0283 15.4336C57.0869 14.4258 57.5264 13.6406 58.3467 13.0781C59.1729 12.5098 60.2568 12.2256 61.5986 12.2256L63.2598 12.2344L63.3652 11.4785C63.4238 10.9102 63.3125 10.4619 63.0312 10.1338C62.7559 9.7998 62.3398 9.62695 61.7832 9.61523C61.2383 9.60352 60.7549 9.73828 60.333 10.0195C59.917 10.2949 59.6621 10.6611 59.5684 11.1182L57.9688 11.127C58.0215 10.5703 58.2383 10.0781 58.6191 9.65039C59 9.2168 59.4893 8.88281 60.0869 8.64844C60.6846 8.4082 61.3027 8.29395 61.9414 8.30566C62.9316 8.3291 63.7021 8.63086 64.2529 9.21094C64.8037 9.78516 65.0352 10.5498 64.9473 11.5049L64.1738 16.2158L64.1299 16.8926C64.1182 17.2148 64.1533 17.5342 64.2354 17.8506L64.2178 18H62.6006ZM60.1045 16.7695C60.6143 16.7812 61.0947 16.6611 61.5459 16.4092C62.0029 16.1514 62.3955 15.7969 62.7236 15.3457L63.0664 13.3857L61.8623 13.377C60.8604 13.377 60.0928 13.5352 59.5596 13.8516C59.0264 14.168 58.7246 14.6162 58.6543 15.1963C58.6016 15.6416 58.7041 16.0137 58.9619 16.3125C59.2256 16.6055 59.6064 16.7578 60.1045 16.7695ZM72.2949 9.94043L71.5479 9.86133C70.5283 9.86133 69.7256 10.3213 69.1396 11.2412L67.9707 18H66.3799L68.0322 8.49023L69.5703 8.48145L69.333 9.58887C70.0068 8.7041 70.8008 8.27344 71.7148 8.29688C71.9082 8.29688 72.1602 8.34082 72.4707 8.42871L72.2949 9.94043ZM72.6641 13.2275C72.8047 12.1904 73.083 11.291 73.499 10.5293C73.9209 9.76172 74.4307 9.19629 75.0283 8.83301C75.6318 8.46387 76.291 8.28809 77.0059 8.30566C78.1074 8.3291 78.9395 8.74512 79.502 9.55371L79.8184 8.49023H81.2773L79.6953 17.7979C79.5254 19.0107 79.0332 19.9805 78.2188 20.707C77.4043 21.4395 76.3994 21.7881 75.2041 21.7529C74.5596 21.7412 73.9414 21.5889 73.3496 21.2959C72.7637 21.0029 72.3008 20.6016 71.9609 20.0918L72.8662 19.1162C73.4404 19.9658 74.1992 20.4023 75.1426 20.4258C75.8984 20.4492 76.5371 20.2383 77.0586 19.793C77.5859 19.3477 77.9346 18.7148 78.1045 17.8945L78.2803 17.0508C77.5068 17.8242 76.6016 18.1992 75.5645 18.1758C74.9727 18.1582 74.457 18 74.0176 17.7012C73.584 17.3965 73.2471 16.96 73.0068 16.3916C72.7666 15.8174 72.6348 15.1787 72.6113 14.4756C72.5996 14.1299 72.6172 13.7139 72.6641 13.2275ZM74.2021 14.1328C74.1846 14.9707 74.3281 15.6211 74.6328 16.084C74.9434 16.541 75.4092 16.7812 76.0303 16.8047C76.9795 16.8281 77.7969 16.3623 78.4824 15.4072L79.2295 11.0391C78.8779 10.1719 78.2422 9.7207 77.3223 9.68555C76.4609 9.66211 75.752 10.0137 75.1953 10.7402C74.6445 11.4668 74.3193 12.4482 74.2197 13.6846L74.2021 14.1328ZM86.208 18.1758C85.0244 18.1523 84.0986 17.7158 83.4307 16.8662C82.7627 16.0166 82.4814 14.9297 82.5869 13.6055L82.6309 13.2275C82.7305 12.2842 83.0088 11.4229 83.4658 10.6436C83.9287 9.86426 84.4912 9.27832 85.1533 8.88574C85.8154 8.4873 86.5303 8.29688 87.2979 8.31445C88.2764 8.33789 89.0439 8.66309 89.6006 9.29004C90.1572 9.91699 90.4619 10.7666 90.5146 11.8389C90.5322 12.2197 90.5205 12.6006 90.4795 12.9814L90.3828 13.7109H84.1689C84.0635 14.5723 84.2041 15.3047 84.5908 15.9082C84.9834 16.5117 85.5664 16.8252 86.3398 16.8486C87.2773 16.8721 88.1445 16.4502 88.9414 15.583L89.8555 16.3564C89.457 16.9307 88.9414 17.3818 88.3086 17.71C87.6816 18.0322 86.9814 18.1875 86.208 18.1758ZM87.2188 9.6416C86.5625 9.62402 85.9883 9.84668 85.4961 10.3096C85.0098 10.7725 84.623 11.4609 84.3359 12.375L88.959 12.3838L88.9941 12.2432C89.0879 11.5049 88.9678 10.8926 88.6338 10.4062C88.3057 9.91406 87.834 9.65918 87.2188 9.6416ZM95.6299 6.1875L95.2256 8.49023H96.957L96.7373 9.74707H95.0146L94.0215 15.6621C94.0039 15.8145 94.001 15.9551 94.0127 16.084C94.0537 16.541 94.3027 16.7695 94.7598 16.7695C94.9531 16.7695 95.2109 16.7402 95.5332 16.6816L95.4102 18.0088C95.0293 18.1143 94.6426 18.167 94.25 18.167C93.6172 18.1553 93.1426 17.9238 92.8262 17.4727C92.5098 17.0156 92.3867 16.4033 92.457 15.6357L93.4238 9.74707H91.7451L91.9648 8.49023H93.6436L94.0479 6.1875H95.6299ZM106.414 15.7412L111.608 5.20312H113.472L106.862 18H105.403L102.811 5.20312H104.542L106.414 15.7412ZM118.253 18C118.212 17.8301 118.191 17.6631 118.191 17.499L118.218 16.998C117.345 17.8066 116.419 18.1992 115.44 18.1758C114.603 18.1641 113.92 17.9004 113.393 17.3848C112.871 16.8633 112.634 16.2129 112.681 15.4336C112.739 14.4258 113.179 13.6406 113.999 13.0781C114.825 12.5098 115.909 12.2256 117.251 12.2256L118.912 12.2344L119.018 11.4785C119.076 10.9102 118.965 10.4619 118.684 10.1338C118.408 9.7998 117.992 9.62695 117.436 9.61523C116.891 9.60352 116.407 9.73828 115.985 10.0195C115.569 10.2949 115.314 10.6611 115.221 11.1182L113.621 11.127C113.674 10.5703 113.891 10.0781 114.271 9.65039C114.652 9.2168 115.142 8.88281 115.739 8.64844C116.337 8.4082 116.955 8.29395 117.594 8.30566C118.584 8.3291 119.354 8.63086 119.905 9.21094C120.456 9.78516 120.688 10.5498 120.6 11.5049L119.826 16.2158L119.782 16.8926C119.771 17.2148 119.806 17.5342 119.888 17.8506L119.87 18H118.253ZM115.757 16.7695C116.267 16.7812 116.747 16.6611 117.198 16.4092C117.655 16.1514 118.048 15.7969 118.376 15.3457L118.719 13.3857L117.515 13.377C116.513 13.377 115.745 13.5352 115.212 13.8516C114.679 14.168 114.377 14.6162 114.307 15.1963C114.254 15.6416 114.356 16.0137 114.614 16.3125C114.878 16.6055 115.259 16.7578 115.757 16.7695ZM127.947 9.94043L127.2 9.86133C126.181 9.86133 125.378 10.3213 124.792 11.2412L123.623 18H122.032L123.685 8.49023L125.223 8.48145L124.985 9.58887C125.659 8.7041 126.453 8.27344 127.367 8.29688C127.561 8.29688 127.812 8.34082 128.123 8.42871L127.947 9.94043ZM129.749 18H128.167L129.819 8.49023H131.401L129.749 18ZM131.059 5.01855C131.328 5.00684 131.551 5.08887 131.727 5.26465C131.908 5.43457 131.999 5.66016 131.999 5.94141C131.993 6.2168 131.902 6.44238 131.727 6.61816C131.557 6.79395 131.334 6.8877 131.059 6.89941C130.783 6.91113 130.558 6.83203 130.382 6.66211C130.206 6.49219 130.121 6.26953 130.127 5.99414C130.133 5.71875 130.221 5.49023 130.391 5.30859C130.561 5.12695 130.783 5.03027 131.059 5.01855ZM138.169 18C138.128 17.8301 138.107 17.6631 138.107 17.499L138.134 16.998C137.261 17.8066 136.335 18.1992 135.356 18.1758C134.519 18.1641 133.836 17.9004 133.309 17.3848C132.787 16.8633 132.55 16.2129 132.597 15.4336C132.655 14.4258 133.095 13.6406 133.915 13.0781C134.741 12.5098 135.825 12.2256 137.167 12.2256L138.828 12.2344L138.934 11.4785C138.992 10.9102 138.881 10.4619 138.6 10.1338C138.324 9.7998 137.908 9.62695 137.352 9.61523C136.807 9.60352 136.323 9.73828 135.901 10.0195C135.485 10.2949 135.23 10.6611 135.137 11.1182L133.537 11.127C133.59 10.5703 133.807 10.0781 134.188 9.65039C134.568 9.2168 135.058 8.88281 135.655 8.64844C136.253 8.4082 136.871 8.29395 137.51 8.30566C138.5 8.3291 139.271 8.63086 139.821 9.21094C140.372 9.78516 140.604 10.5498 140.516 11.5049L139.742 16.2158L139.698 16.8926C139.687 17.2148 139.722 17.5342 139.804 17.8506L139.786 18H138.169ZM135.673 16.7695C136.183 16.7812 136.663 16.6611 137.114 16.4092C137.571 16.1514 137.964 15.7969 138.292 15.3457L138.635 13.3857L137.431 13.377C136.429 13.377 135.661 13.5352 135.128 13.8516C134.595 14.168 134.293 14.6162 134.223 15.1963C134.17 15.6416 134.272 16.0137 134.53 16.3125C134.794 16.6055 135.175 16.7578 135.673 16.7695ZM150.579 13.2891C150.462 14.2617 150.195 15.1377 149.779 15.917C149.363 16.6963 148.859 17.2734 148.268 17.6484C147.676 18.0234 147.02 18.2021 146.299 18.1846C145.15 18.1611 144.298 17.7305 143.741 16.8926L143.416 18H141.948L144.295 4.5H145.886L144.928 9.54492C145.689 8.70117 146.615 8.29102 147.705 8.31445C148.619 8.33789 149.331 8.6748 149.841 9.3252C150.351 9.97559 150.62 10.8721 150.649 12.0146C150.655 12.3896 150.638 12.7529 150.597 13.1045L150.579 13.2891ZM149.067 12.3662C149.085 11.5107 148.941 10.8574 148.637 10.4062C148.332 9.94922 147.866 9.70898 147.239 9.68555C146.249 9.66211 145.411 10.1602 144.726 11.1797L144.014 15.3193C144.365 16.2861 145.024 16.7812 145.991 16.8047C146.612 16.8281 147.154 16.6436 147.617 16.251C148.086 15.8584 148.44 15.3105 148.681 14.6074C148.921 13.8984 149.05 13.1514 149.067 12.3662ZM153.567 18H151.985L154.323 4.5H155.914L153.567 18ZM160.282 18.1758C159.099 18.1523 158.173 17.7158 157.505 16.8662C156.837 16.0166 156.556 14.9297 156.661 13.6055L156.705 13.2275C156.805 12.2842 157.083 11.4229 157.54 10.6436C158.003 9.86426 158.565 9.27832 159.228 8.88574C159.89 8.4873 160.604 8.29688 161.372 8.31445C162.351 8.33789 163.118 8.66309 163.675 9.29004C164.231 9.91699 164.536 10.7666 164.589 11.8389C164.606 12.2197 164.595 12.6006 164.554 12.9814L164.457 13.7109H158.243C158.138 14.5723 158.278 15.3047 158.665 15.9082C159.058 16.5117 159.641 16.8252 160.414 16.8486C161.352 16.8721 162.219 16.4502 163.016 15.583L163.93 16.3564C163.531 16.9307 163.016 17.3818 162.383 17.71C161.756 18.0322 161.056 18.1875 160.282 18.1758ZM161.293 9.6416C160.637 9.62402 160.062 9.84668 159.57 10.3096C159.084 10.7725 158.697 11.4609 158.41 12.375L163.033 12.3838L163.068 12.2432C163.162 11.5049 163.042 10.8926 162.708 10.4062C162.38 9.91406 161.908 9.65918 161.293 9.6416Z" fill="black"/>
<path d="M276.083 10.5918H272.102L270.124 22H268.48L270.458 10.5918H266.477L266.723 9.20312H276.329L276.083 10.5918ZM281.031 13.9404L280.284 13.8613C279.265 13.8613 278.462 14.3213 277.876 15.2412L276.707 22H275.116L276.769 12.4902L278.307 12.4814L278.069 13.5889C278.743 12.7041 279.537 12.2734 280.451 12.2969C280.645 12.2969 280.896 12.3408 281.207 12.4287L281.031 13.9404ZM286.577 22C286.536 21.8301 286.516 21.6631 286.516 21.499L286.542 20.998C285.669 21.8066 284.743 22.1992 283.765 22.1758C282.927 22.1641 282.244 21.9004 281.717 21.3848C281.195 20.8633 280.958 20.2129 281.005 19.4336C281.063 18.4258 281.503 17.6406 282.323 17.0781C283.149 16.5098 284.233 16.2256 285.575 16.2256L287.236 16.2344L287.342 15.4785C287.4 14.9102 287.289 14.4619 287.008 14.1338C286.732 13.7998 286.316 13.627 285.76 13.6152C285.215 13.6035 284.731 13.7383 284.31 14.0195C283.894 14.2949 283.639 14.6611 283.545 15.1182L281.945 15.127C281.998 14.5703 282.215 14.0781 282.596 13.6504C282.977 13.2168 283.466 12.8828 284.063 12.6484C284.661 12.4082 285.279 12.2939 285.918 12.3057C286.908 12.3291 287.679 12.6309 288.229 13.2109C288.78 13.7852 289.012 14.5498 288.924 15.5049L288.15 20.2158L288.106 20.8926C288.095 21.2148 288.13 21.5342 288.212 21.8506L288.194 22H286.577ZM284.081 20.7695C284.591 20.7812 285.071 20.6611 285.522 20.4092C285.979 20.1514 286.372 19.7969 286.7 19.3457L287.043 17.3857L285.839 17.377C284.837 17.377 284.069 17.5352 283.536 17.8516C283.003 18.168 282.701 18.6162 282.631 19.1963C282.578 19.6416 282.681 20.0137 282.938 20.3125C283.202 20.6055 283.583 20.7578 284.081 20.7695ZM293.512 12.4814L293.283 13.6855C294.139 12.748 295.111 12.291 296.201 12.3145C297.098 12.3379 297.76 12.6484 298.188 13.2461C298.615 13.8438 298.773 14.6846 298.662 15.7686L297.625 22H296.034L297.08 15.7422C297.115 15.4551 297.118 15.1885 297.089 14.9424C296.989 14.1221 296.506 13.7031 295.639 13.6855C294.684 13.668 293.846 14.1777 293.125 15.2148L291.947 22H290.356L292.009 12.4902L293.512 12.4814ZM305.966 19.4248C306.054 18.7686 305.693 18.3057 304.885 18.0361L303.232 17.5527C301.838 17.0723 301.164 16.2754 301.211 15.1621C301.252 14.3242 301.633 13.6387 302.354 13.1055C303.08 12.5664 303.933 12.3027 304.911 12.3145C305.872 12.3262 306.651 12.6074 307.249 13.1582C307.853 13.7031 308.143 14.415 308.119 15.2939L306.537 15.2852C306.549 14.8105 306.399 14.4238 306.089 14.125C305.778 13.8262 305.365 13.6709 304.85 13.6592C304.299 13.6475 303.824 13.7822 303.426 14.0635C303.057 14.3271 302.843 14.6729 302.784 15.1006C302.708 15.6514 303.045 16.0527 303.795 16.3047L304.595 16.5244C305.685 16.8057 306.458 17.1719 306.915 17.623C307.372 18.0742 307.583 18.6338 307.548 19.3018C307.513 19.8936 307.319 20.4092 306.968 20.8486C306.616 21.2881 306.147 21.625 305.562 21.8594C304.976 22.0879 304.352 22.1934 303.689 22.1758C302.682 22.1641 301.85 21.8711 301.193 21.2969C300.537 20.7168 300.221 19.9727 300.244 19.0645L301.835 19.0732C301.835 19.6064 302.005 20.0342 302.345 20.3564C302.685 20.6787 303.15 20.8398 303.742 20.8398C304.322 20.8516 304.823 20.7314 305.245 20.4795C305.667 20.2217 305.907 19.8701 305.966 19.4248ZM309.938 22L311.38 13.7471H309.912L310.132 12.4902H311.591L311.749 11.3652C311.901 10.4102 312.271 9.66309 312.856 9.12402C313.472 8.56152 314.257 8.28613 315.212 8.29785C315.511 8.29785 315.889 8.34766 316.346 8.44727L316.152 9.77441C315.871 9.71582 315.587 9.68066 315.3 9.66895C314.749 9.66895 314.301 9.8418 313.955 10.1875C313.615 10.5273 313.404 10.9814 313.322 11.5498L313.182 12.4902H315.15L314.931 13.7471H312.962L311.529 22H309.938ZM320.6 12.3145C321.396 12.3262 322.079 12.543 322.647 12.9648C323.216 13.3867 323.635 13.9697 323.904 14.7139C324.18 15.4521 324.273 16.2607 324.186 17.1396L324.168 17.333C324.057 18.2588 323.781 19.0967 323.342 19.8467C322.902 20.5908 322.334 21.1709 321.637 21.5869C320.939 22.0029 320.175 22.1992 319.343 22.1758C318.552 22.1641 317.869 21.9473 317.295 21.5254C316.727 21.1035 316.311 20.5293 316.047 19.8027C315.783 19.0762 315.689 18.2764 315.766 17.4033C315.854 16.4189 316.12 15.5342 316.565 14.749C317.011 13.9639 317.582 13.3574 318.279 12.9297C318.982 12.4961 319.756 12.291 320.6 12.3145ZM317.365 17.4121C317.324 17.7812 317.324 18.165 317.365 18.5635C317.424 19.2549 317.629 19.8057 317.98 20.2158C318.338 20.626 318.812 20.8398 319.404 20.8574C319.932 20.875 320.418 20.7461 320.863 20.4707C321.309 20.1895 321.684 19.7676 321.988 19.2051C322.293 18.6426 322.489 18.0186 322.577 17.333C322.624 16.7939 322.633 16.3398 322.604 15.9707C322.533 15.2617 322.319 14.7021 321.962 14.292C321.604 13.8818 321.13 13.665 320.538 13.6416C319.718 13.624 319.021 13.9463 318.446 14.6084C317.872 15.2705 317.518 16.1377 317.383 17.21L317.365 17.4121ZM331.287 13.9404L330.54 13.8613C329.521 13.8613 328.718 14.3213 328.132 15.2412L326.963 22H325.372L327.024 12.4902L328.562 12.4814L328.325 13.5889C328.999 12.7041 329.793 12.2734 330.707 12.2969C330.9 12.2969 331.152 12.3408 331.463 12.4287L331.287 13.9404ZM334.504 12.4814L334.302 13.5449C335.099 12.7012 336.062 12.291 337.193 12.3145C337.797 12.3262 338.307 12.4639 338.723 12.7275C339.145 12.9912 339.435 13.3633 339.593 13.8438C340.483 12.8008 341.535 12.291 342.748 12.3145C343.697 12.3379 344.397 12.6572 344.849 13.2725C345.3 13.8877 345.467 14.7139 345.35 15.751L344.304 22H342.722L343.759 15.7334C343.794 15.4287 343.794 15.1504 343.759 14.8984C343.647 14.1016 343.126 13.6943 342.194 13.6768C341.614 13.665 341.087 13.8467 340.612 14.2217C340.144 14.5908 339.842 15.0771 339.707 15.6807L338.626 22H337.026L338.081 15.7422C338.157 15.0918 338.058 14.5908 337.782 14.2393C337.513 13.8877 337.091 13.7061 336.517 13.6943C335.526 13.6709 334.738 14.1221 334.152 15.0479L332.948 22H331.357L333.01 12.4902L334.504 12.4814ZM352.583 22C352.542 21.8301 352.521 21.6631 352.521 21.499L352.548 20.998C351.675 21.8066 350.749 22.1992 349.771 22.1758C348.933 22.1641 348.25 21.9004 347.723 21.3848C347.201 20.8633 346.964 20.2129 347.011 19.4336C347.069 18.4258 347.509 17.6406 348.329 17.0781C349.155 16.5098 350.239 16.2256 351.581 16.2256L353.242 16.2344L353.348 15.4785C353.406 14.9102 353.295 14.4619 353.014 14.1338C352.738 13.7998 352.322 13.627 351.766 13.6152C351.221 13.6035 350.737 13.7383 350.315 14.0195C349.899 14.2949 349.645 14.6611 349.551 15.1182L347.951 15.127C348.004 14.5703 348.221 14.0781 348.602 13.6504C348.982 13.2168 349.472 12.8828 350.069 12.6484C350.667 12.4082 351.285 12.2939 351.924 12.3057C352.914 12.3291 353.685 12.6309 354.235 13.2109C354.786 13.7852 355.018 14.5498 354.93 15.5049L354.156 20.2158L354.112 20.8926C354.101 21.2148 354.136 21.5342 354.218 21.8506L354.2 22H352.583ZM350.087 20.7695C350.597 20.7812 351.077 20.6611 351.528 20.4092C351.985 20.1514 352.378 19.7969 352.706 19.3457L353.049 17.3857L351.845 17.377C350.843 17.377 350.075 17.5352 349.542 17.8516C349.009 18.168 348.707 18.6162 348.637 19.1963C348.584 19.6416 348.687 20.0137 348.944 20.3125C349.208 20.6055 349.589 20.7578 350.087 20.7695ZM360.563 10.1875L360.159 12.4902H361.891L361.671 13.7471H359.948L358.955 19.6621C358.938 19.8145 358.935 19.9551 358.946 20.084C358.987 20.541 359.236 20.7695 359.693 20.7695C359.887 20.7695 360.145 20.7402 360.467 20.6816L360.344 22.0088C359.963 22.1143 359.576 22.167 359.184 22.167C358.551 22.1553 358.076 21.9238 357.76 21.4727C357.443 21.0156 357.32 20.4033 357.391 19.6357L358.357 13.7471H356.679L356.898 12.4902H358.577L358.981 10.1875H360.563ZM363.886 22H362.304L363.956 12.4902H365.538L363.886 22ZM365.195 9.01855C365.465 9.00684 365.688 9.08887 365.863 9.26465C366.045 9.43457 366.136 9.66016 366.136 9.94141C366.13 10.2168 366.039 10.4424 365.863 10.6182C365.693 10.7939 365.471 10.8877 365.195 10.8994C364.92 10.9111 364.694 10.832 364.519 10.6621C364.343 10.4922 364.258 10.2695 364.264 9.99414C364.27 9.71875 364.357 9.49023 364.527 9.30859C364.697 9.12695 364.92 9.03027 365.195 9.01855ZM371.77 12.3145C372.566 12.3262 373.249 12.543 373.817 12.9648C374.386 13.3867 374.805 13.9697 375.074 14.7139C375.35 15.4521 375.443 16.2607 375.355 17.1396L375.338 17.333C375.227 18.2588 374.951 19.0967 374.512 19.8467C374.072 20.5908 373.504 21.1709 372.807 21.5869C372.109 22.0029 371.345 22.1992 370.513 22.1758C369.722 22.1641 369.039 21.9473 368.465 21.5254C367.896 21.1035 367.48 20.5293 367.217 19.8027C366.953 19.0762 366.859 18.2764 366.936 17.4033C367.023 16.4189 367.29 15.5342 367.735 14.749C368.181 13.9639 368.752 13.3574 369.449 12.9297C370.152 12.4961 370.926 12.291 371.77 12.3145ZM368.535 17.4121C368.494 17.7812 368.494 18.165 368.535 18.5635C368.594 19.2549 368.799 19.8057 369.15 20.2158C369.508 20.626 369.982 20.8398 370.574 20.8574C371.102 20.875 371.588 20.7461 372.033 20.4707C372.479 20.1895 372.854 19.7676 373.158 19.2051C373.463 18.6426 373.659 18.0186 373.747 17.333C373.794 16.7939 373.803 16.3398 373.773 15.9707C373.703 15.2617 373.489 14.7021 373.132 14.292C372.774 13.8818 372.3 13.665 371.708 13.6416C370.888 13.624 370.19 13.9463 369.616 14.6084C369.042 15.2705 368.688 16.1377 368.553 17.21L368.535 17.4121ZM379.697 12.4814L379.469 13.6855C380.324 12.748 381.297 12.291 382.387 12.3145C383.283 12.3379 383.945 12.6484 384.373 13.2461C384.801 13.8438 384.959 14.6846 384.848 15.7686L383.811 22H382.22L383.266 15.7422C383.301 15.4551 383.304 15.1885 383.274 14.9424C383.175 14.1221 382.691 13.7031 381.824 13.6855C380.869 13.668 380.031 14.1777 379.311 15.2148L378.133 22H376.542L378.194 12.4902L379.697 12.4814Z" fill="black"/>
<path d="M55.731 160.427H50.5278L49.5435 166.078H47.8911L50.1147 153.282H57.814L57.5679 154.67H51.521L50.7651 159.047H55.9771L55.731 160.427ZM62.4722 156.393C63.269 156.405 63.9517 156.621 64.52 157.043C65.0884 157.465 65.5073 158.048 65.7769 158.792C66.0522 159.531 66.146 160.339 66.0581 161.218L66.0405 161.411C65.9292 162.337 65.6538 163.175 65.2144 163.925C64.7749 164.669 64.2065 165.249 63.5093 165.665C62.812 166.081 62.0474 166.278 61.2153 166.254C60.4243 166.242 59.7417 166.026 59.1675 165.604C58.5991 165.182 58.1831 164.608 57.9194 163.881C57.6558 163.155 57.562 162.355 57.6382 161.482C57.7261 160.497 57.9927 159.613 58.438 158.827C58.8833 158.042 59.4546 157.436 60.1519 157.008C60.855 156.575 61.6284 156.369 62.4722 156.393ZM59.2378 161.491C59.1968 161.86 59.1968 162.243 59.2378 162.642C59.2964 163.333 59.5015 163.884 59.853 164.294C60.2104 164.704 60.6851 164.918 61.2769 164.936C61.8042 164.953 62.2905 164.825 62.7358 164.549C63.1812 164.268 63.5562 163.846 63.8608 163.284C64.1655 162.721 64.3618 162.097 64.4497 161.411C64.4966 160.872 64.5054 160.418 64.4761 160.049C64.4058 159.34 64.1919 158.781 63.8345 158.37C63.4771 157.96 63.0024 157.743 62.4106 157.72C61.5903 157.702 60.8931 158.025 60.3188 158.687C59.7446 159.349 59.3901 160.216 59.2554 161.288L59.2378 161.491ZM73.1597 158.019L72.4126 157.94C71.3931 157.94 70.5903 158.4 70.0044 159.32L68.8354 166.078H67.2446L68.897 156.569L70.4351 156.56L70.1978 157.667C70.8716 156.783 71.6655 156.352 72.5796 156.375C72.7729 156.375 73.0249 156.419 73.3354 156.507L73.1597 158.019ZM85.0864 162.783C85.2153 161.845 84.729 161.159 83.6274 160.726L82.1069 160.172L81.5972 159.952C79.8862 159.173 79.0864 158.077 79.1978 156.665C79.2563 155.956 79.4995 155.329 79.9272 154.784C80.355 154.24 80.9204 153.821 81.6235 153.528C82.3325 153.229 83.0854 153.088 83.8823 153.106C84.6558 153.123 85.3442 153.296 85.9478 153.624C86.5571 153.952 87.02 154.412 87.3364 155.004C87.6528 155.59 87.7935 156.252 87.7583 156.991L86.0972 156.982C86.1558 156.197 85.98 155.59 85.5698 155.162C85.1597 154.729 84.5737 154.506 83.812 154.494C83.0093 154.483 82.3384 154.67 81.7993 155.057C81.2603 155.444 80.9497 155.971 80.8677 156.639C80.7505 157.512 81.2866 158.174 82.4761 158.625L83.7856 159.091L84.4448 159.372C86.0972 160.134 86.8618 161.265 86.7388 162.765C86.6743 163.486 86.4312 164.11 86.0093 164.637C85.5874 165.159 85.0132 165.563 84.2866 165.85C83.5659 166.137 82.7896 166.272 81.9575 166.254C81.1548 166.248 80.4194 166.078 79.7515 165.744C79.0894 165.405 78.5854 164.942 78.2397 164.356C77.894 163.77 77.7417 163.105 77.7827 162.361L79.4351 162.369C79.3823 163.131 79.5874 163.738 80.0503 164.189C80.519 164.634 81.1782 164.863 82.0278 164.874C82.8774 164.886 83.5776 164.701 84.1284 164.321C84.6792 163.94 84.9985 163.427 85.0864 162.783ZM92.311 154.266L91.9067 156.569H93.6382L93.4185 157.826H91.6958L90.7026 163.741C90.6851 163.893 90.6821 164.034 90.6938 164.162C90.7349 164.619 90.9839 164.848 91.4409 164.848C91.6343 164.848 91.8921 164.819 92.2144 164.76L92.0913 166.087C91.7104 166.193 91.3237 166.245 90.9312 166.245C90.2983 166.234 89.8237 166.002 89.5073 165.551C89.1909 165.094 89.0679 164.482 89.1382 163.714L90.105 157.826H88.4263L88.646 156.569H90.3247L90.729 154.266H92.311ZM99.729 166.078C99.688 165.909 99.6675 165.742 99.6675 165.577L99.6938 165.076C98.8208 165.885 97.895 166.278 96.9165 166.254C96.0786 166.242 95.396 165.979 94.8687 165.463C94.3472 164.942 94.1099 164.291 94.1567 163.512C94.2153 162.504 94.6548 161.719 95.4751 161.157C96.3013 160.588 97.3853 160.304 98.7271 160.304L100.388 160.313L100.494 159.557C100.552 158.989 100.441 158.54 100.16 158.212C99.8843 157.878 99.4683 157.705 98.9116 157.694C98.3667 157.682 97.8833 157.817 97.4614 158.098C97.0454 158.373 96.7905 158.74 96.6968 159.197L95.0972 159.205C95.1499 158.649 95.3667 158.157 95.7476 157.729C96.1284 157.295 96.6177 156.961 97.2153 156.727C97.813 156.487 98.4312 156.372 99.0698 156.384C100.06 156.408 100.831 156.709 101.381 157.289C101.932 157.864 102.164 158.628 102.076 159.583L101.302 164.294L101.258 164.971C101.247 165.293 101.282 165.613 101.364 165.929L101.346 166.078H99.729ZM97.2329 164.848C97.7427 164.86 98.2231 164.74 98.6743 164.488C99.1313 164.23 99.5239 163.875 99.8521 163.424L100.195 161.464L98.9907 161.455C97.9888 161.455 97.2212 161.614 96.688 161.93C96.1548 162.246 95.853 162.695 95.7827 163.275C95.73 163.72 95.8325 164.092 96.0903 164.391C96.354 164.684 96.7349 164.836 97.2329 164.848ZM107.709 154.266L107.305 156.569H109.037L108.817 157.826H107.094L106.101 163.741C106.083 163.893 106.081 164.034 106.092 164.162C106.133 164.619 106.382 164.848 106.839 164.848C107.033 164.848 107.291 164.819 107.613 164.76L107.49 166.087C107.109 166.193 106.722 166.245 106.33 166.245C105.697 166.234 105.222 166.002 104.906 165.551C104.589 165.094 104.466 164.482 104.537 163.714L105.503 157.826H103.825L104.044 156.569H105.723L106.127 154.266H107.709ZM113.422 166.254C112.239 166.231 111.313 165.794 110.645 164.945C109.977 164.095 109.696 163.008 109.801 161.684L109.845 161.306C109.945 160.363 110.223 159.501 110.68 158.722C111.143 157.943 111.706 157.357 112.368 156.964C113.03 156.566 113.745 156.375 114.512 156.393C115.491 156.416 116.258 156.742 116.815 157.368C117.372 157.995 117.676 158.845 117.729 159.917C117.747 160.298 117.735 160.679 117.694 161.06L117.597 161.789H111.383C111.278 162.651 111.418 163.383 111.805 163.987C112.198 164.59 112.781 164.904 113.554 164.927C114.492 164.951 115.359 164.529 116.156 163.661L117.07 164.435C116.671 165.009 116.156 165.46 115.523 165.788C114.896 166.111 114.196 166.266 113.422 166.254ZM114.433 157.72C113.777 157.702 113.203 157.925 112.71 158.388C112.224 158.851 111.837 159.539 111.55 160.453L116.173 160.462L116.208 160.322C116.302 159.583 116.182 158.971 115.848 158.485C115.52 157.992 115.048 157.738 114.433 157.72ZM121.781 156.56L121.579 157.623C122.375 156.78 123.339 156.369 124.47 156.393C125.074 156.405 125.583 156.542 126 156.806C126.421 157.07 126.711 157.442 126.87 157.922C127.76 156.879 128.812 156.369 130.025 156.393C130.974 156.416 131.674 156.736 132.125 157.351C132.577 157.966 132.744 158.792 132.626 159.829L131.581 166.078H129.999L131.036 159.812C131.071 159.507 131.071 159.229 131.036 158.977C130.924 158.18 130.403 157.773 129.471 157.755C128.891 157.743 128.364 157.925 127.889 158.3C127.42 158.669 127.119 159.156 126.984 159.759L125.903 166.078H124.303L125.358 159.821C125.434 159.17 125.334 158.669 125.059 158.318C124.79 157.966 124.368 157.784 123.793 157.773C122.803 157.749 122.015 158.201 121.429 159.126L120.225 166.078H118.634L120.287 156.569L121.781 156.56ZM138.155 166.254C136.971 166.231 136.045 165.794 135.377 164.945C134.709 164.095 134.428 163.008 134.534 161.684L134.578 161.306C134.677 160.363 134.956 159.501 135.413 158.722C135.875 157.943 136.438 157.357 137.1 156.964C137.762 156.566 138.477 156.375 139.245 156.393C140.223 156.416 140.991 156.742 141.547 157.368C142.104 157.995 142.409 158.845 142.461 159.917C142.479 160.298 142.467 160.679 142.426 161.06L142.33 161.789H136.116C136.01 162.651 136.151 163.383 136.538 163.987C136.93 164.59 137.513 164.904 138.287 164.927C139.224 164.951 140.091 164.529 140.888 163.661L141.802 164.435C141.404 165.009 140.888 165.46 140.255 165.788C139.628 166.111 138.928 166.266 138.155 166.254ZM139.166 157.72C138.509 157.702 137.935 157.925 137.443 158.388C136.957 158.851 136.57 159.539 136.283 160.453L140.906 160.462L140.941 160.322C141.035 159.583 140.915 158.971 140.581 158.485C140.252 157.992 139.781 157.738 139.166 157.72ZM146.531 156.56L146.302 157.764C147.158 156.826 148.13 156.369 149.22 156.393C150.117 156.416 150.779 156.727 151.207 157.325C151.634 157.922 151.792 158.763 151.681 159.847L150.644 166.078H149.053L150.099 159.821C150.134 159.534 150.137 159.267 150.108 159.021C150.008 158.201 149.525 157.782 148.658 157.764C147.703 157.746 146.865 158.256 146.144 159.293L144.966 166.078H143.375L145.028 156.569L146.531 156.56ZM157.297 154.266L156.893 156.569H158.625L158.405 157.826H156.682L155.689 163.741C155.671 163.893 155.668 164.034 155.68 164.162C155.721 164.619 155.97 164.848 156.427 164.848C156.621 164.848 156.878 164.819 157.201 164.76L157.078 166.087C156.697 166.193 156.31 166.245 155.917 166.245C155.285 166.234 154.81 166.002 154.494 165.551C154.177 165.094 154.054 164.482 154.125 163.714L155.091 157.826H153.413L153.632 156.569H155.311L155.715 154.266H157.297Z" fill="black"/>
<line y1="-1" x2="62.4002" y2="-1" transform="matrix(-0.999872 0.0160256 0 -1 352.392 97.9804)" stroke="#EB5757" stroke-width="2"/>
<line y1="-1" x2="69.9875" y2="-1" transform="matrix(0.0142883 0.999898 -1 0 320.353 28.0001)" stroke="#EB5757" stroke-width="2"/>
<line x1="146" y1="44.6863" x2="50.7451" y2="44.6863" stroke="#009E73" stroke-width="2"/>
<line y1="-1" x2="21.1021" y2="-1" transform="matrix(0.0473886 0.998877 -1 0 97.0853 22.6078)" stroke="#009E73" stroke-width="2"/>
<line y1="-1" x2="172.258" y2="-1" transform="matrix(-0.999983 0.00580525 0 -1 223 95.8039)" stroke="#9B51E0" stroke-width="2"/>
<line y1="-1" x2="52.284" y2="-1" transform="matrix(-0.0191263 -0.999817 -1 0 86.7422 149.078)" stroke="#9B51E0" stroke-width="2"/>
</svg>
