<svg width="511" height="176" viewBox="0 0 511 176" fill="none" xmlns="http://www.w3.org/2000/svg">
<rect width="511" height="176" fill="white"/>
<path d="M44 34.4117H467.255V135.588H44V34.4117Z" fill="#F1F4F8"/>
<path d="M53.2607 57.6209H59.8207V67.4409H57.5207V59.4409H53.2607V57.6209ZM58.5007 55.9009C58.034 55.9009 57.6407 55.7609 57.3207 55.4809C57.014 55.2009 56.8607 54.8276 56.8607 54.3609C56.8607 53.8943 57.014 53.5209 57.3207 53.2409C57.6407 52.9476 58.034 52.8009 58.5007 52.8009C58.9807 52.8009 59.374 52.9476 59.6807 53.2409C59.9874 53.5209 60.1407 53.8943 60.1407 54.3609C60.1407 54.8276 59.9874 55.2009 59.6807 55.4809C59.374 55.7609 58.9807 55.9009 58.5007 55.9009ZM66.1729 57.6209H68.0729L68.2729 59.8409H68.3329C68.8395 59.0409 69.4462 58.4343 70.1529 58.0209C70.8729 57.5943 71.6595 57.3809 72.5129 57.3809C72.9129 57.3809 73.2529 57.4143 73.5329 57.4809C73.8262 57.5343 74.1195 57.6343 74.4129 57.7809L73.9329 59.7209C73.6129 59.6143 73.3262 59.5409 73.0729 59.5009C72.8329 59.4476 72.5262 59.4209 72.1529 59.4209C71.4729 59.4209 70.8195 59.6143 70.1929 60.0009C69.5662 60.3876 68.9995 61.0609 68.4929 62.0209V67.4409H66.1729V57.6209ZM76.8051 62.5409C76.8051 61.7409 76.9451 61.0209 77.2251 60.3809C77.5184 59.7409 77.8984 59.2009 78.3651 58.7609C78.8317 58.3076 79.3651 57.9676 79.9651 57.7409C80.5784 57.5009 81.2051 57.3809 81.8451 57.3809C82.5784 57.3809 83.2251 57.5009 83.7851 57.7409C84.3584 57.9676 84.8384 58.2876 85.2251 58.7009C85.6117 59.1009 85.9051 59.5876 86.1051 60.1609C86.3051 60.7343 86.4051 61.3609 86.4051 62.0409C86.4051 62.2676 86.3917 62.4809 86.3651 62.6809C86.3517 62.8809 86.3317 63.0409 86.3051 63.1609H79.1651C79.2451 64.0409 79.5917 64.7209 80.2051 65.2009C80.8184 65.6676 81.5717 65.9009 82.4651 65.9009C82.9717 65.9009 83.4451 65.8343 83.8851 65.7009C84.3251 65.5543 84.7717 65.3543 85.2251 65.1009L86.0051 66.5409C85.4717 66.8743 84.8784 67.1476 84.2251 67.3609C83.5717 67.5743 82.8851 67.6809 82.1651 67.6809C81.4184 67.6809 80.7184 67.5676 80.0651 67.3409C79.4117 67.1009 78.8451 66.7609 78.3651 66.3209C77.8851 65.8809 77.5051 65.3476 77.2251 64.7209C76.9451 64.0809 76.8051 63.3543 76.8051 62.5409ZM84.2851 61.6009C84.2851 60.8409 84.0851 60.2476 83.6851 59.8209C83.2851 59.3809 82.6917 59.1609 81.9051 59.1609C81.2384 59.1609 80.6451 59.3676 80.1251 59.7809C79.6051 60.1943 79.2784 60.8009 79.1451 61.6009H84.2851ZM88.9773 53.3209H94.3773V63.9809C94.3773 64.6476 94.5439 65.1209 94.8773 65.4009C95.2106 65.6676 95.6306 65.8009 96.1373 65.8009C96.6173 65.8009 97.1773 65.6743 97.8173 65.4209L98.3573 67.1209C97.8906 67.2809 97.4506 67.4143 97.0373 67.5209C96.6373 67.6276 96.1506 67.6809 95.5773 67.6809C94.4173 67.6809 93.5439 67.3476 92.9573 66.6809C92.3706 66.0143 92.0773 65.0743 92.0773 63.8609V55.1409H88.9773V53.3209ZM100.969 64.8009C100.969 64.2543 101.096 63.7743 101.349 63.3609C101.603 62.9343 102.003 62.5743 102.549 62.2809C103.096 61.9876 103.796 61.7476 104.649 61.5609C105.503 61.3743 106.536 61.2409 107.749 61.1609C107.709 60.6009 107.509 60.1409 107.149 59.7809C106.789 59.4209 106.209 59.2409 105.409 59.2409C104.849 59.2409 104.296 59.3476 103.749 59.5609C103.216 59.7609 102.696 60.0009 102.189 60.2809L101.349 58.7409C101.949 58.3943 102.636 58.0809 103.409 57.8009C104.183 57.5209 104.989 57.3809 105.829 57.3809C107.203 57.3809 108.249 57.7476 108.969 58.4809C109.689 59.2009 110.049 60.2476 110.049 61.6209V67.4409H108.169L107.989 66.2209H107.929C107.409 66.6209 106.829 66.9676 106.189 67.2609C105.563 67.5409 104.916 67.6809 104.249 67.6809C103.769 67.6809 103.329 67.6076 102.929 67.4609C102.529 67.3276 102.183 67.1343 101.889 66.8809C101.596 66.6276 101.369 66.3276 101.209 65.9809C101.049 65.6209 100.969 65.2276 100.969 64.8009ZM103.189 64.6209C103.189 65.0609 103.356 65.3809 103.689 65.5809C104.036 65.7809 104.456 65.8809 104.949 65.8809C105.443 65.8809 105.916 65.7743 106.369 65.5609C106.836 65.3343 107.296 65.0409 107.749 64.6809V62.6009C106.869 62.6676 106.136 62.7609 105.549 62.8809C104.963 62.9876 104.496 63.1276 104.149 63.3009C103.803 63.4743 103.556 63.6743 103.409 63.9009C103.263 64.1143 103.189 64.3543 103.189 64.6209ZM113.182 57.6209H115.082L115.262 59.1009H115.342C115.808 58.6343 116.322 58.2343 116.882 57.9009C117.455 57.5543 118.122 57.3809 118.882 57.3809C120.015 57.3809 120.848 57.7276 121.382 58.4209C121.915 59.1009 122.182 60.0809 122.182 61.3609V67.4409H119.862V61.6609C119.862 60.8609 119.722 60.2809 119.442 59.9209C119.175 59.5476 118.702 59.3609 118.022 59.3609C117.542 59.3609 117.115 59.4743 116.742 59.7009C116.368 59.9276 115.955 60.2743 115.502 60.7409V67.4409H113.182V57.6209ZM124.594 62.5409C124.594 61.7409 124.714 61.0209 124.954 60.3809C125.194 59.7409 125.514 59.2009 125.914 58.7609C126.327 58.3209 126.794 57.9809 127.314 57.7409C127.834 57.5009 128.374 57.3809 128.934 57.3809C129.52 57.3809 130.02 57.4876 130.434 57.7009C130.86 57.9009 131.274 58.1809 131.674 58.5409L131.574 56.8809V53.3209H133.894V67.4409H131.994L131.814 66.3009H131.754C131.367 66.6876 130.914 67.0143 130.394 67.2809C129.887 67.5476 129.354 67.6809 128.794 67.6809C128.167 67.6809 127.594 67.5676 127.074 67.3409C126.554 67.1009 126.107 66.7609 125.734 66.3209C125.374 65.8809 125.094 65.3476 124.894 64.7209C124.694 64.0809 124.594 63.3543 124.594 62.5409ZM126.974 62.5209C126.974 63.5876 127.18 64.4009 127.594 64.9609C128.007 65.5076 128.594 65.7809 129.354 65.7809C130.167 65.7809 130.907 65.3876 131.574 64.6009V60.1809C131.227 59.8476 130.88 59.6143 130.534 59.4809C130.187 59.3476 129.834 59.2809 129.474 59.2809C129.127 59.2809 128.8 59.3543 128.494 59.5009C128.2 59.6476 127.94 59.8609 127.714 60.1409C127.487 60.4076 127.307 60.7409 127.174 61.1409C127.04 61.5409 126.974 62.0009 126.974 62.5209ZM146.326 68.6809V70.4809H136.726V68.6809H146.326ZM149.198 57.6209H155.758V67.4409H153.458V59.4409H149.198V57.6209ZM154.438 55.9009C153.972 55.9009 153.578 55.7609 153.258 55.4809C152.952 55.2009 152.798 54.8276 152.798 54.3609C152.798 53.8943 152.952 53.5209 153.258 53.2409C153.578 52.9476 153.972 52.8009 154.438 52.8009C154.918 52.8009 155.312 52.9476 155.618 53.2409C155.925 53.5209 156.078 53.8943 156.078 54.3609C156.078 54.8276 155.925 55.2009 155.618 55.4809C155.312 55.7609 154.918 55.9009 154.438 55.9009ZM161.15 57.6209H163.05L163.23 59.1009H163.31C163.777 58.6343 164.29 58.2343 164.85 57.9009C165.424 57.5543 166.09 57.3809 166.85 57.3809C167.984 57.3809 168.817 57.7276 169.35 58.4209C169.884 59.1009 170.15 60.0809 170.15 61.3609V67.4409H167.83V61.6609C167.83 60.8609 167.69 60.2809 167.41 59.9209C167.144 59.5476 166.67 59.3609 165.99 59.3609C165.51 59.3609 165.084 59.4743 164.71 59.7009C164.337 59.9276 163.924 60.2743 163.47 60.7409V67.4409H161.15V57.6209ZM175.303 59.4409H172.683V57.7209L175.403 57.6209L175.703 54.9409H177.603V57.6209H182.083V59.4409H177.603V63.4809C177.603 64.2943 177.769 64.8943 178.103 65.2809C178.436 65.6543 179.023 65.8409 179.863 65.8409C180.289 65.8409 180.676 65.8076 181.023 65.7409C181.369 65.6609 181.703 65.5609 182.023 65.4409L182.463 67.1209C182.023 67.2676 181.536 67.3943 181.003 67.5009C180.469 67.6209 179.903 67.6809 179.303 67.6809C178.556 67.6809 177.929 67.5809 177.423 67.3809C176.916 67.1809 176.503 66.9009 176.183 66.5409C175.876 66.1676 175.649 65.7209 175.503 65.2009C175.369 64.6809 175.303 64.1076 175.303 63.4809V59.4409Z" fill="#009E73"/>
<path d="M197.047 57.7609H205.927V59.4409H197.047V57.7609ZM197.047 62.2209H205.927V63.9009H197.047V62.2209ZM223.731 53.2809H229.451V54.5409H225.511V69.2209H229.451V70.4809H223.731V53.2809ZM237.424 69.2209V54.5409H233.504V53.2809H239.224V70.4809H233.504V69.2209H237.424ZM247.476 83.8609C247.476 83.2743 247.662 82.7943 248.036 82.4209C248.409 82.0343 248.882 81.8409 249.456 81.8409C250.029 81.8409 250.502 82.0343 250.876 82.4209C251.249 82.7943 251.436 83.2743 251.436 83.8609C251.436 84.4476 251.249 84.9343 250.876 85.3209C250.502 85.6943 250.029 85.8809 249.456 85.8809C248.882 85.8809 248.409 85.6943 248.036 85.3209C247.662 84.9343 247.476 84.4476 247.476 83.8609ZM247.476 90.6609C247.476 90.0743 247.662 89.5943 248.036 89.2209C248.409 88.8343 248.882 88.6409 249.456 88.6409C250.029 88.6409 250.502 88.8343 250.876 89.2209C251.249 89.5943 251.436 90.0743 251.436 90.6609C251.436 91.2476 251.249 91.7343 250.876 92.1209C250.502 92.4943 250.029 92.6809 249.456 92.6809C248.882 92.6809 248.409 92.4943 248.036 92.1209C247.662 91.7343 247.476 91.2476 247.476 90.6609ZM101.229 107.621H107.789V117.441H105.489V109.441H101.229V107.621ZM106.469 105.901C106.003 105.901 105.609 105.761 105.289 105.481C104.983 105.201 104.829 104.828 104.829 104.361C104.829 103.894 104.983 103.521 105.289 103.241C105.609 102.948 106.003 102.801 106.469 102.801C106.949 102.801 107.343 102.948 107.649 103.241C107.956 103.521 108.109 103.894 108.109 104.361C108.109 104.828 107.956 105.201 107.649 105.481C107.343 105.761 106.949 105.901 106.469 105.901ZM114.142 107.621H116.042L116.242 109.841H116.302C116.808 109.041 117.415 108.434 118.122 108.021C118.842 107.594 119.628 107.381 120.482 107.381C120.882 107.381 121.222 107.414 121.502 107.481C121.795 107.534 122.088 107.634 122.382 107.781L121.902 109.721C121.582 109.614 121.295 109.541 121.042 109.501C120.802 109.448 120.495 109.421 120.122 109.421C119.442 109.421 118.788 109.614 118.162 110.001C117.535 110.388 116.968 111.061 116.462 112.021V117.441H114.142V107.621ZM124.774 112.541C124.774 111.741 124.914 111.021 125.194 110.381C125.487 109.741 125.867 109.201 126.334 108.761C126.8 108.308 127.334 107.968 127.934 107.741C128.547 107.501 129.174 107.381 129.814 107.381C130.547 107.381 131.194 107.501 131.754 107.741C132.327 107.968 132.807 108.288 133.194 108.701C133.58 109.101 133.874 109.588 134.074 110.161C134.274 110.734 134.374 111.361 134.374 112.041C134.374 112.268 134.36 112.481 134.334 112.681C134.32 112.881 134.3 113.041 134.274 113.161H127.134C127.214 114.041 127.56 114.721 128.174 115.201C128.787 115.668 129.54 115.901 130.434 115.901C130.94 115.901 131.414 115.834 131.854 115.701C132.294 115.554 132.74 115.354 133.194 115.101L133.974 116.541C133.44 116.874 132.847 117.148 132.194 117.361C131.54 117.574 130.854 117.681 130.134 117.681C129.387 117.681 128.687 117.568 128.034 117.341C127.38 117.101 126.814 116.761 126.334 116.321C125.854 115.881 125.474 115.348 125.194 114.721C124.914 114.081 124.774 113.354 124.774 112.541ZM132.254 111.601C132.254 110.841 132.054 110.248 131.654 109.821C131.254 109.381 130.66 109.161 129.874 109.161C129.207 109.161 128.614 109.368 128.094 109.781C127.574 110.194 127.247 110.801 127.114 111.601H132.254ZM136.946 103.321H142.346V113.981C142.346 114.648 142.513 115.121 142.846 115.401C143.179 115.668 143.599 115.801 144.106 115.801C144.586 115.801 145.146 115.674 145.786 115.421L146.326 117.121C145.859 117.281 145.419 117.414 145.006 117.521C144.606 117.628 144.119 117.681 143.546 117.681C142.386 117.681 141.513 117.348 140.926 116.681C140.339 116.014 140.046 115.074 140.046 113.861V105.141H136.946V103.321ZM148.938 114.801C148.938 114.254 149.065 113.774 149.318 113.361C149.572 112.934 149.972 112.574 150.518 112.281C151.065 111.988 151.765 111.748 152.618 111.561C153.472 111.374 154.505 111.241 155.718 111.161C155.678 110.601 155.478 110.141 155.118 109.781C154.758 109.421 154.178 109.241 153.378 109.241C152.818 109.241 152.265 109.348 151.718 109.561C151.185 109.761 150.665 110.001 150.158 110.281L149.318 108.741C149.918 108.394 150.605 108.081 151.378 107.801C152.152 107.521 152.958 107.381 153.798 107.381C155.172 107.381 156.218 107.748 156.938 108.481C157.658 109.201 158.018 110.248 158.018 111.621V117.441H156.138L155.958 116.221H155.898C155.378 116.621 154.798 116.968 154.158 117.261C153.532 117.541 152.885 117.681 152.218 117.681C151.738 117.681 151.298 117.608 150.898 117.461C150.498 117.328 150.152 117.134 149.858 116.881C149.565 116.628 149.338 116.328 149.178 115.981C149.018 115.621 148.938 115.228 148.938 114.801ZM151.158 114.621C151.158 115.061 151.325 115.381 151.658 115.581C152.005 115.781 152.425 115.881 152.918 115.881C153.412 115.881 153.885 115.774 154.338 115.561C154.805 115.334 155.265 115.041 155.718 114.681V112.601C154.838 112.668 154.105 112.761 153.518 112.881C152.932 112.988 152.465 113.128 152.118 113.301C151.772 113.474 151.525 113.674 151.378 113.901C151.232 114.114 151.158 114.354 151.158 114.621ZM161.15 107.621H163.05L163.23 109.101H163.31C163.777 108.634 164.29 108.234 164.85 107.901C165.424 107.554 166.09 107.381 166.85 107.381C167.984 107.381 168.817 107.728 169.35 108.421C169.884 109.101 170.15 110.081 170.15 111.361V117.441H167.83V111.661C167.83 110.861 167.69 110.281 167.41 109.921C167.144 109.548 166.67 109.361 165.99 109.361C165.51 109.361 165.084 109.474 164.71 109.701C164.337 109.928 163.924 110.274 163.47 110.741V117.441H161.15V107.621ZM172.563 112.541C172.563 111.741 172.683 111.021 172.923 110.381C173.163 109.741 173.483 109.201 173.883 108.761C174.296 108.321 174.763 107.981 175.283 107.741C175.803 107.501 176.343 107.381 176.903 107.381C177.489 107.381 177.989 107.488 178.403 107.701C178.829 107.901 179.243 108.181 179.643 108.541L179.543 106.881V103.321H181.863V117.441H179.963L179.783 116.301H179.723C179.336 116.688 178.883 117.014 178.363 117.281C177.856 117.548 177.323 117.681 176.763 117.681C176.136 117.681 175.563 117.568 175.043 117.341C174.523 117.101 174.076 116.761 173.703 116.321C173.343 115.881 173.063 115.348 172.863 114.721C172.663 114.081 172.563 113.354 172.563 112.541ZM174.943 112.521C174.943 113.588 175.149 114.401 175.563 114.961C175.976 115.508 176.563 115.781 177.323 115.781C178.136 115.781 178.876 115.388 179.543 114.601V110.181C179.196 109.848 178.849 109.614 178.503 109.481C178.156 109.348 177.803 109.281 177.443 109.281C177.096 109.281 176.769 109.354 176.463 109.501C176.169 109.648 175.909 109.861 175.683 110.141C175.456 110.408 175.276 110.741 175.143 111.141C175.009 111.541 174.943 112.001 174.943 112.521ZM194.295 118.681V120.481H184.695V118.681H194.295ZM197.167 107.621H203.727V117.441H201.427V109.441H197.167V107.621ZM202.407 105.901C201.94 105.901 201.547 105.761 201.227 105.481C200.92 105.201 200.767 104.828 200.767 104.361C200.767 103.894 200.92 103.521 201.227 103.241C201.547 102.948 201.94 102.801 202.407 102.801C202.887 102.801 203.28 102.948 203.587 103.241C203.894 103.521 204.047 103.894 204.047 104.361C204.047 104.828 203.894 105.201 203.587 105.481C203.28 105.761 202.887 105.901 202.407 105.901ZM209.119 107.621H211.019L211.199 109.101H211.279C211.746 108.634 212.259 108.234 212.819 107.901C213.392 107.554 214.059 107.381 214.819 107.381C215.952 107.381 216.786 107.728 217.319 108.421C217.852 109.101 218.119 110.081 218.119 111.361V117.441H215.799V111.661C215.799 110.861 215.659 110.281 215.379 109.921C215.112 109.548 214.639 109.361 213.959 109.361C213.479 109.361 213.052 109.474 212.679 109.701C212.306 109.928 211.892 110.274 211.439 110.741V117.441H209.119V107.621ZM223.271 109.441H220.651V107.721L223.371 107.621L223.671 104.941H225.571V107.621H230.051V109.441H225.571V113.481C225.571 114.294 225.738 114.894 226.071 115.281C226.405 115.654 226.991 115.841 227.831 115.841C228.258 115.841 228.645 115.808 228.991 115.741C229.338 115.661 229.671 115.561 229.991 115.441L230.431 117.121C229.991 117.268 229.505 117.394 228.971 117.501C228.438 117.621 227.871 117.681 227.271 117.681C226.525 117.681 225.898 117.581 225.391 117.381C224.885 117.181 224.471 116.901 224.151 116.541C223.845 116.168 223.618 115.721 223.471 115.201C223.338 114.681 223.271 114.108 223.271 113.481V109.441ZM235.484 115.661C235.484 115.074 235.67 114.594 236.044 114.221C236.417 113.834 236.89 113.641 237.464 113.641C238.037 113.641 238.51 113.834 238.884 114.221C239.257 114.594 239.444 115.074 239.444 115.661C239.444 116.248 239.257 116.734 238.884 117.121C238.51 117.494 238.037 117.681 237.464 117.681C236.89 117.681 236.417 117.494 236.044 117.121C235.67 116.734 235.484 116.248 235.484 115.661ZM244.876 114.801C244.876 114.254 245.002 113.774 245.256 113.361C245.509 112.934 245.909 112.574 246.456 112.281C247.002 111.988 247.702 111.748 248.556 111.561C249.409 111.374 250.442 111.241 251.656 111.161C251.616 110.601 251.416 110.141 251.056 109.781C250.696 109.421 250.116 109.241 249.316 109.241C248.756 109.241 248.202 109.348 247.656 109.561C247.122 109.761 246.602 110.001 246.096 110.281L245.256 108.741C245.856 108.394 246.542 108.081 247.316 107.801C248.089 107.521 248.896 107.381 249.736 107.381C251.109 107.381 252.156 107.748 252.876 108.481C253.596 109.201 253.956 110.248 253.956 111.621V117.441H252.076L251.896 116.221H251.836C251.316 116.621 250.736 116.968 250.096 117.261C249.469 117.541 248.822 117.681 248.156 117.681C247.676 117.681 247.236 117.608 246.836 117.461C246.436 117.328 246.089 117.134 245.796 116.881C245.502 116.628 245.276 116.328 245.116 115.981C244.956 115.621 244.876 115.228 244.876 114.801ZM247.096 114.621C247.096 115.061 247.262 115.381 247.596 115.581C247.942 115.781 248.362 115.881 248.856 115.881C249.349 115.881 249.822 115.774 250.276 115.561C250.742 115.334 251.202 115.041 251.656 114.681V112.601C250.776 112.668 250.042 112.761 249.456 112.881C248.869 112.988 248.402 113.128 248.056 113.301C247.709 113.474 247.462 113.674 247.316 113.901C247.169 114.114 247.096 114.354 247.096 114.621ZM259.408 118.241V121.321H257.088V107.621H258.988L259.168 108.741H259.228C259.655 108.354 260.141 108.034 260.688 107.781C261.248 107.514 261.808 107.381 262.368 107.381C263.008 107.381 263.575 107.501 264.068 107.741C264.575 107.968 264.995 108.301 265.328 108.741C265.675 109.181 265.935 109.708 266.108 110.321C266.295 110.934 266.388 111.621 266.388 112.381C266.388 113.221 266.268 113.974 266.028 114.641C265.788 115.294 265.461 115.848 265.048 116.301C264.648 116.741 264.181 117.081 263.648 117.321C263.128 117.561 262.588 117.681 262.028 117.681C261.575 117.681 261.108 117.581 260.628 117.381C260.161 117.181 259.728 116.894 259.328 116.521L259.408 118.241ZM259.408 114.881C259.768 115.214 260.135 115.448 260.508 115.581C260.895 115.714 261.241 115.781 261.548 115.781C262.255 115.781 262.841 115.501 263.308 114.941C263.775 114.368 264.008 113.521 264.008 112.401C264.008 111.414 263.828 110.648 263.468 110.101C263.108 109.554 262.528 109.281 261.728 109.281C261.355 109.281 260.975 109.374 260.588 109.561C260.201 109.748 259.808 110.048 259.408 110.461V114.881ZM271.4 118.241V121.321H269.08V107.621H270.98L271.16 108.741H271.22C271.647 108.354 272.133 108.034 272.68 107.781C273.24 107.514 273.8 107.381 274.36 107.381C275 107.381 275.567 107.501 276.06 107.741C276.567 107.968 276.987 108.301 277.32 108.741C277.667 109.181 277.927 109.708 278.1 110.321C278.287 110.934 278.38 111.621 278.38 112.381C278.38 113.221 278.26 113.974 278.02 114.641C277.78 115.294 277.453 115.848 277.04 116.301C276.64 116.741 276.173 117.081 275.64 117.321C275.12 117.561 274.58 117.681 274.02 117.681C273.567 117.681 273.1 117.581 272.62 117.381C272.153 117.181 271.72 116.894 271.32 116.521L271.4 118.241ZM271.4 114.881C271.76 115.214 272.127 115.448 272.5 115.581C272.887 115.714 273.233 115.781 273.54 115.781C274.247 115.781 274.833 115.501 275.3 114.941C275.767 114.368 276 113.521 276 112.401C276 111.414 275.82 110.648 275.46 110.101C275.1 109.554 274.52 109.281 273.72 109.281C273.347 109.281 272.967 109.374 272.58 109.561C272.193 109.748 271.8 110.048 271.4 110.461V114.881ZM280.672 112.541C280.672 111.741 280.812 111.021 281.092 110.381C281.386 109.741 281.766 109.201 282.232 108.761C282.699 108.308 283.232 107.968 283.832 107.741C284.446 107.501 285.072 107.381 285.712 107.381C286.446 107.381 287.092 107.501 287.652 107.741C288.226 107.968 288.706 108.288 289.092 108.701C289.479 109.101 289.772 109.588 289.972 110.161C290.172 110.734 290.272 111.361 290.272 112.041C290.272 112.268 290.259 112.481 290.232 112.681C290.219 112.881 290.199 113.041 290.172 113.161H283.032C283.112 114.041 283.459 114.721 284.072 115.201C284.686 115.668 285.439 115.901 286.332 115.901C286.839 115.901 287.312 115.834 287.752 115.701C288.192 115.554 288.639 115.354 289.092 115.101L289.872 116.541C289.339 116.874 288.746 117.148 288.092 117.361C287.439 117.574 286.752 117.681 286.032 117.681C285.286 117.681 284.586 117.568 283.932 117.341C283.279 117.101 282.712 116.761 282.232 116.321C281.752 115.881 281.372 115.348 281.092 114.721C280.812 114.081 280.672 113.354 280.672 112.541ZM288.152 111.601C288.152 110.841 287.952 110.248 287.552 109.821C287.152 109.381 286.559 109.161 285.772 109.161C285.106 109.161 284.512 109.368 283.992 109.781C283.472 110.194 283.146 110.801 283.012 111.601H288.152ZM293.064 107.621H294.964L295.144 109.101H295.224C295.691 108.634 296.204 108.234 296.764 107.901C297.338 107.554 298.004 107.381 298.764 107.381C299.898 107.381 300.731 107.728 301.264 108.421C301.798 109.101 302.064 110.081 302.064 111.361V117.441H299.744V111.661C299.744 110.861 299.604 110.281 299.324 109.921C299.058 109.548 298.584 109.361 297.904 109.361C297.424 109.361 296.998 109.474 296.624 109.701C296.251 109.928 295.838 110.274 295.384 110.741V117.441H293.064V107.621ZM304.477 112.541C304.477 111.741 304.597 111.021 304.837 110.381C305.077 109.741 305.397 109.201 305.797 108.761C306.21 108.321 306.677 107.981 307.197 107.741C307.717 107.501 308.257 107.381 308.817 107.381C309.403 107.381 309.903 107.488 310.317 107.701C310.743 107.901 311.157 108.181 311.557 108.541L311.457 106.881V103.321H313.777V117.441H311.877L311.697 116.301H311.637C311.25 116.688 310.797 117.014 310.277 117.281C309.77 117.548 309.237 117.681 308.677 117.681C308.05 117.681 307.477 117.568 306.957 117.341C306.437 117.101 305.99 116.761 305.617 116.321C305.257 115.881 304.977 115.348 304.777 114.721C304.577 114.081 304.477 113.354 304.477 112.541ZM306.857 112.521C306.857 113.588 307.063 114.401 307.477 114.961C307.89 115.508 308.477 115.781 309.237 115.781C310.05 115.781 310.79 115.388 311.457 114.601V110.181C311.11 109.848 310.763 109.614 310.417 109.481C310.07 109.348 309.717 109.281 309.357 109.281C309.01 109.281 308.683 109.354 308.377 109.501C308.083 109.648 307.823 109.861 307.597 110.141C307.37 110.408 307.19 110.741 307.057 111.141C306.923 111.541 306.857 112.001 306.857 112.521ZM323.649 120.981C322.302 119.861 321.235 118.541 320.449 117.021C319.675 115.501 319.289 113.788 319.289 111.881C319.289 109.974 319.675 108.261 320.449 106.741C321.235 105.221 322.302 103.901 323.649 102.781L324.929 103.841C323.662 104.988 322.735 106.208 322.149 107.501C321.562 108.794 321.269 110.254 321.269 111.881C321.269 113.508 321.562 114.968 322.149 116.261C322.735 117.554 323.662 118.774 324.929 119.921L323.649 120.981ZM401.834 119.921C403.101 118.774 404.027 117.554 404.614 116.261C405.201 114.968 405.494 113.508 405.494 111.881C405.494 110.254 405.201 108.794 404.614 107.501C404.027 106.208 403.101 104.988 401.834 103.841L403.114 102.781C404.461 103.901 405.521 105.221 406.294 106.741C407.081 108.261 407.474 109.974 407.474 111.881C407.474 113.788 407.081 115.501 406.294 117.021C405.521 118.541 404.461 119.861 403.114 120.981L401.834 119.921Z" fill="#2E383C"/>
<path d="M62.7407 80.3209C62.3807 80.1743 62.0274 80.0676 61.6807 80.0009C61.3474 79.9343 60.9807 79.9009 60.5807 79.9009C59.8207 79.9009 59.2674 80.0876 58.9207 80.4609C58.5874 80.8209 58.4207 81.3476 58.4207 82.0409V82.6209H62.1607V84.4409H58.4207V92.4409H56.1407V84.4409H53.4207V82.7209L56.1407 82.6209V82.0809C56.1407 81.5076 56.2207 80.9743 56.3807 80.4809C56.5407 79.9876 56.7874 79.5676 57.1207 79.2209C57.4674 78.8609 57.9007 78.5809 58.4207 78.3809C58.954 78.1809 59.5807 78.0809 60.3007 78.0809C60.834 78.0809 61.3407 78.1276 61.8207 78.2209C62.314 78.3143 62.7807 78.4476 63.2207 78.6209L62.7407 80.3209ZM64.6329 87.5409C64.6329 86.7276 64.7662 86.0009 65.0329 85.3609C65.3129 84.7209 65.6795 84.1809 66.1329 83.7409C66.5862 83.3009 67.1129 82.9676 67.7129 82.7409C68.3129 82.5009 68.9329 82.3809 69.5729 82.3809C70.2129 82.3809 70.8329 82.5009 71.4329 82.7409C72.0329 82.9676 72.5595 83.3009 73.0129 83.7409C73.4662 84.1809 73.8262 84.7209 74.0929 85.3609C74.3729 86.0009 74.5129 86.7276 74.5129 87.5409C74.5129 88.3543 74.3729 89.0809 74.0929 89.7209C73.8262 90.3609 73.4662 90.9009 73.0129 91.3409C72.5595 91.7809 72.0329 92.1143 71.4329 92.3409C70.8329 92.5676 70.2129 92.6809 69.5729 92.6809C68.9329 92.6809 68.3129 92.5676 67.7129 92.3409C67.1129 92.1143 66.5862 91.7809 66.1329 91.3409C65.6795 90.9009 65.3129 90.3609 65.0329 89.7209C64.7662 89.0809 64.6329 88.3543 64.6329 87.5409ZM67.0129 87.5409C67.0129 88.5276 67.2395 89.3209 67.6929 89.9209C68.1462 90.5076 68.7729 90.8009 69.5729 90.8009C70.3729 90.8009 70.9995 90.5076 71.4529 89.9209C71.9062 89.3209 72.1329 88.5276 72.1329 87.5409C72.1329 86.5409 71.9062 85.7476 71.4529 85.1609C70.9995 84.5609 70.3729 84.2609 69.5729 84.2609C68.7729 84.2609 68.1462 84.5609 67.6929 85.1609C67.2395 85.7476 67.0129 86.5409 67.0129 87.5409ZM78.1651 82.6209H80.0651L80.2651 84.8409H80.3251C80.8317 84.0409 81.4384 83.4343 82.1451 83.0209C82.8651 82.5943 83.6517 82.3809 84.5051 82.3809C84.9051 82.3809 85.2451 82.4143 85.5251 82.4809C85.8184 82.5343 86.1117 82.6343 86.4051 82.7809L85.9251 84.7209C85.6051 84.6143 85.3184 84.5409 85.0651 84.5009C84.8251 84.4476 84.5184 84.4209 84.1451 84.4209C83.4651 84.4209 82.8117 84.6143 82.1851 85.0009C81.5584 85.3876 80.9917 86.0609 80.4851 87.0209V92.4409H78.1651V82.6209ZM101.229 82.6209H107.789V92.4409H105.489V84.4409H101.229V82.6209ZM106.469 80.9009C106.003 80.9009 105.609 80.7609 105.289 80.4809C104.983 80.2009 104.829 79.8276 104.829 79.3609C104.829 78.8943 104.983 78.5209 105.289 78.2409C105.609 77.9476 106.003 77.8009 106.469 77.8009C106.949 77.8009 107.343 77.9476 107.649 78.2409C107.956 78.5209 108.109 78.8943 108.109 79.3609C108.109 79.8276 107.956 80.2009 107.649 80.4809C107.343 80.7609 106.949 80.9009 106.469 80.9009ZM125.214 82.6209H131.774V92.4409H129.474V84.4409H125.214V82.6209ZM130.454 80.9009C129.987 80.9009 129.594 80.7609 129.274 80.4809C128.967 80.2009 128.814 79.8276 128.814 79.3609C128.814 78.8943 128.967 78.5209 129.274 78.2409C129.594 77.9476 129.987 77.8009 130.454 77.8009C130.934 77.8009 131.327 77.9476 131.634 78.2409C131.94 78.5209 132.094 78.8943 132.094 79.3609C132.094 79.8276 131.94 80.2009 131.634 80.4809C131.327 80.7609 130.934 80.9009 130.454 80.9009ZM137.166 82.6209H139.066L139.246 84.1009H139.326C139.793 83.6343 140.306 83.2343 140.866 82.9009C141.439 82.5543 142.106 82.3809 142.866 82.3809C143.999 82.3809 144.833 82.7276 145.366 83.4209C145.899 84.1009 146.166 85.0809 146.166 86.3609V92.4409H143.846V86.6609C143.846 85.8609 143.706 85.2809 143.426 84.9209C143.159 84.5476 142.686 84.3609 142.006 84.3609C141.526 84.3609 141.099 84.4743 140.726 84.7009C140.353 84.9276 139.939 85.2743 139.486 85.7409V92.4409H137.166V82.6209ZM161.19 82.6209H167.75V92.4409H165.45V84.4409H161.19V82.6209ZM166.43 80.9009C165.964 80.9009 165.57 80.7609 165.25 80.4809C164.944 80.2009 164.79 79.8276 164.79 79.3609C164.79 78.8943 164.944 78.5209 165.25 78.2409C165.57 77.9476 165.964 77.8009 166.43 77.8009C166.91 77.8009 167.304 77.9476 167.61 78.2409C167.917 78.5209 168.07 78.8943 168.07 79.3609C168.07 79.8276 167.917 80.2009 167.61 80.4809C167.304 80.7609 166.91 80.9009 166.43 80.9009ZM174.103 82.6209H176.003L176.203 84.8409H176.263C176.769 84.0409 177.376 83.4343 178.083 83.0209C178.803 82.5943 179.589 82.3809 180.443 82.3809C180.843 82.3809 181.183 82.4143 181.463 82.4809C181.756 82.5343 182.049 82.6343 182.343 82.7809L181.863 84.7209C181.543 84.6143 181.256 84.5409 181.003 84.5009C180.763 84.4476 180.456 84.4209 180.083 84.4209C179.403 84.4209 178.749 84.6143 178.123 85.0009C177.496 85.3876 176.929 86.0609 176.423 87.0209V92.4409H174.103V82.6209ZM184.735 87.5409C184.735 86.7409 184.875 86.0209 185.155 85.3809C185.448 84.7409 185.828 84.2009 186.295 83.7609C186.761 83.3076 187.295 82.9676 187.895 82.7409C188.508 82.5009 189.135 82.3809 189.775 82.3809C190.508 82.3809 191.155 82.5009 191.715 82.7409C192.288 82.9676 192.768 83.2876 193.155 83.7009C193.541 84.1009 193.835 84.5876 194.035 85.1609C194.235 85.7343 194.335 86.3609 194.335 87.0409C194.335 87.2676 194.321 87.4809 194.295 87.6809C194.281 87.8809 194.261 88.0409 194.235 88.1609H187.095C187.175 89.0409 187.521 89.7209 188.135 90.2009C188.748 90.6676 189.501 90.9009 190.395 90.9009C190.901 90.9009 191.375 90.8343 191.815 90.7009C192.255 90.5543 192.701 90.3543 193.155 90.1009L193.935 91.5409C193.401 91.8743 192.808 92.1476 192.155 92.3609C191.501 92.5743 190.815 92.6809 190.095 92.6809C189.348 92.6809 188.648 92.5676 187.995 92.3409C187.341 92.1009 186.775 91.7609 186.295 91.3209C185.815 90.8809 185.435 90.3476 185.155 89.7209C184.875 89.0809 184.735 88.3543 184.735 87.5409ZM192.215 86.6009C192.215 85.8409 192.015 85.2476 191.615 84.8209C191.215 84.3809 190.621 84.1609 189.835 84.1609C189.168 84.1609 188.575 84.3676 188.055 84.7809C187.535 85.1943 187.208 85.8009 187.075 86.6009H192.215ZM196.907 78.3209H202.307V88.9809C202.307 89.6476 202.474 90.1209 202.807 90.4009C203.14 90.6676 203.56 90.8009 204.067 90.8009C204.547 90.8009 205.107 90.6743 205.747 90.4209L206.287 92.1209C205.82 92.2809 205.38 92.4143 204.967 92.5209C204.567 92.6276 204.08 92.6809 203.507 92.6809C202.347 92.6809 201.474 92.3476 200.887 91.6809C200.3 91.0143 200.007 90.0743 200.007 88.8609V80.1409H196.907V78.3209ZM208.899 89.8009C208.899 89.2543 209.026 88.7743 209.279 88.3609C209.532 87.9343 209.932 87.5743 210.479 87.2809C211.026 86.9876 211.726 86.7476 212.579 86.5609C213.432 86.3743 214.466 86.2409 215.679 86.1609C215.639 85.6009 215.439 85.1409 215.079 84.7809C214.719 84.4209 214.139 84.2409 213.339 84.2409C212.779 84.2409 212.226 84.3476 211.679 84.5609C211.146 84.7609 210.626 85.0009 210.119 85.2809L209.279 83.7409C209.879 83.3943 210.566 83.0809 211.339 82.8009C212.112 82.5209 212.919 82.3809 213.759 82.3809C215.132 82.3809 216.179 82.7476 216.899 83.4809C217.619 84.2009 217.979 85.2476 217.979 86.6209V92.4409H216.099L215.919 91.2209H215.859C215.339 91.6209 214.759 91.9676 214.119 92.2609C213.492 92.5409 212.846 92.6809 212.179 92.6809C211.699 92.6809 211.259 92.6076 210.859 92.4609C210.459 92.3276 210.112 92.1343 209.819 91.8809C209.526 91.6276 209.299 91.3276 209.139 90.9809C208.979 90.6209 208.899 90.2276 208.899 89.8009ZM211.119 89.6209C211.119 90.0609 211.286 90.3809 211.619 90.5809C211.966 90.7809 212.386 90.8809 212.879 90.8809C213.372 90.8809 213.846 90.7743 214.299 90.5609C214.766 90.3343 215.226 90.0409 215.679 89.6809V87.6009C214.799 87.6676 214.066 87.7609 213.479 87.8809C212.892 87.9876 212.426 88.1276 212.079 88.3009C211.732 88.4743 211.486 88.6743 211.339 88.9009C211.192 89.1143 211.119 89.3543 211.119 89.6209ZM221.111 82.6209H223.011L223.191 84.1009H223.271C223.738 83.6343 224.251 83.2343 224.811 82.9009C225.385 82.5543 226.051 82.3809 226.811 82.3809C227.945 82.3809 228.778 82.7276 229.311 83.4209C229.845 84.1009 230.111 85.0809 230.111 86.3609V92.4409H227.791V86.6609C227.791 85.8609 227.651 85.2809 227.371 84.9209C227.105 84.5476 226.631 84.3609 225.951 84.3609C225.471 84.3609 225.045 84.4743 224.671 84.7009C224.298 84.9276 223.885 85.2743 223.431 85.7409V92.4409H221.111V82.6209ZM232.524 87.5409C232.524 86.7409 232.644 86.0209 232.884 85.3809C233.124 84.7409 233.444 84.2009 233.844 83.7609C234.257 83.3209 234.724 82.9809 235.244 82.7409C235.764 82.5009 236.304 82.3809 236.864 82.3809C237.45 82.3809 237.95 82.4876 238.364 82.7009C238.79 82.9009 239.204 83.1809 239.604 83.5409L239.504 81.8809V78.3209H241.824V92.4409H239.924L239.744 91.3009H239.684C239.297 91.6876 238.844 92.0143 238.324 92.2809C237.817 92.5476 237.284 92.6809 236.724 92.6809C236.097 92.6809 235.524 92.5676 235.004 92.3409C234.484 92.1009 234.037 91.7609 233.664 91.3209C233.304 90.8809 233.024 90.3476 232.824 89.7209C232.624 89.0809 232.524 88.3543 232.524 87.5409ZM234.904 87.5209C234.904 88.5876 235.11 89.4009 235.524 89.9609C235.937 90.5076 236.524 90.7809 237.284 90.7809C238.097 90.7809 238.837 90.3876 239.504 89.6009V85.1809C239.157 84.8476 238.81 84.6143 238.464 84.4809C238.117 84.3476 237.764 84.2809 237.404 84.2809C237.057 84.2809 236.73 84.3543 236.424 84.5009C236.13 84.6476 235.87 84.8609 235.644 85.1409C235.417 85.4076 235.237 85.7409 235.104 86.1409C234.97 86.5409 234.904 87.0009 234.904 87.5209Z" fill="#9B51E0"/>
<path d="M329.081 107.621H335.641V117.441H333.341V109.441H329.081V107.621ZM334.321 105.901C333.854 105.901 333.461 105.761 333.141 105.481C332.834 105.201 332.681 104.828 332.681 104.361C332.681 103.894 332.834 103.521 333.141 103.241C333.461 102.948 333.854 102.801 334.321 102.801C334.801 102.801 335.194 102.948 335.501 103.241C335.808 103.521 335.961 103.894 335.961 104.361C335.961 104.828 335.808 105.201 335.501 105.481C335.194 105.761 334.801 105.901 334.321 105.901ZM341.033 107.621H342.933L343.113 109.101H343.193C343.66 108.634 344.173 108.234 344.733 107.901C345.307 107.554 345.973 107.381 346.733 107.381C347.867 107.381 348.7 107.728 349.233 108.421C349.767 109.101 350.033 110.081 350.033 111.361V117.441H347.713V111.661C347.713 110.861 347.573 110.281 347.293 109.921C347.027 109.548 346.553 109.361 345.873 109.361C345.393 109.361 344.967 109.474 344.593 109.701C344.22 109.928 343.807 110.274 343.353 110.741V117.441H341.033V107.621ZM355.185 109.441H352.565V107.721L355.285 107.621L355.585 104.941H357.485V107.621H361.965V109.441H357.485V113.481C357.485 114.294 357.652 114.894 357.985 115.281C358.319 115.654 358.905 115.841 359.745 115.841C360.172 115.841 360.559 115.808 360.905 115.741C361.252 115.661 361.585 115.561 361.905 115.441L362.345 117.121C361.905 117.268 361.419 117.394 360.885 117.501C360.352 117.621 359.785 117.681 359.185 117.681C358.439 117.681 357.812 117.581 357.305 117.381C356.799 117.181 356.385 116.901 356.065 116.541C355.759 116.168 355.532 115.721 355.385 115.201C355.252 114.681 355.185 114.108 355.185 113.481V109.441ZM371.618 120.981C370.271 119.861 369.204 118.541 368.418 117.021C367.644 115.501 367.258 113.788 367.258 111.881C367.258 109.974 367.644 108.261 368.418 106.741C369.204 105.221 370.271 103.901 371.618 102.781L372.898 103.841C371.631 104.988 370.704 106.208 370.118 107.501C369.531 108.794 369.238 110.254 369.238 111.881C369.238 113.508 369.531 114.968 370.118 116.261C370.704 117.554 371.631 118.774 372.898 119.921L371.618 120.981ZM377.05 107.621H383.61V117.441H381.31V109.441H377.05V107.621ZM382.29 105.901C381.823 105.901 381.43 105.761 381.11 105.481C380.803 105.201 380.65 104.828 380.65 104.361C380.65 103.894 380.803 103.521 381.11 103.241C381.43 102.948 381.823 102.801 382.29 102.801C382.77 102.801 383.163 102.948 383.47 103.241C383.776 103.521 383.93 103.894 383.93 104.361C383.93 104.828 383.776 105.201 383.47 105.481C383.163 105.761 382.77 105.901 382.29 105.901ZM389.842 119.921C391.109 118.774 392.035 117.554 392.622 116.261C393.209 114.968 393.502 113.508 393.502 111.881C393.502 110.254 393.209 108.794 392.622 107.501C392.035 106.208 391.109 104.988 389.842 103.841L391.122 102.781C392.469 103.901 393.529 105.221 394.302 106.741C395.089 108.261 395.482 109.974 395.482 111.881C395.482 113.788 395.089 115.501 394.302 117.021C393.529 118.541 392.469 119.861 391.122 120.981L389.842 119.921Z" fill="#EB5757"/>
<path d="M58.083 6.5918H54.1016L52.124 18H50.4805L52.458 6.5918H48.4766L48.7227 5.20312H58.3291L58.083 6.5918ZM62.6006 18C62.5596 17.8301 62.5391 17.6631 62.5391 17.499L62.5654 16.998C61.6924 17.8066 60.7666 18.1992 59.7881 18.1758C58.9502 18.1641 58.2676 17.9004 57.7402 17.3848C57.2188 16.8633 56.9814 16.2129 57.0283 15.4336C57.0869 14.4258 57.5264 13.6406 58.3467 13.0781C59.1729 12.5098 60.2568 12.2256 61.5986 12.2256L63.2598 12.2344L63.3652 11.4785C63.4238 10.9102 63.3125 10.4619 63.0312 10.1338C62.7559 9.7998 62.3398 9.62695 61.7832 9.61523C61.2383 9.60352 60.7549 9.73828 60.333 10.0195C59.917 10.2949 59.6621 10.6611 59.5684 11.1182L57.9688 11.127C58.0215 10.5703 58.2383 10.0781 58.6191 9.65039C59 9.2168 59.4893 8.88281 60.0869 8.64844C60.6846 8.4082 61.3027 8.29395 61.9414 8.30566C62.9316 8.3291 63.7021 8.63086 64.2529 9.21094C64.8037 9.78516 65.0352 10.5498 64.9473 11.5049L64.1738 16.2158L64.1299 16.8926C64.1182 17.2148 64.1533 17.5342 64.2354 17.8506L64.2178 18H62.6006ZM60.1045 16.7695C60.6143 16.7812 61.0947 16.6611 61.5459 16.4092C62.0029 16.1514 62.3955 15.7969 62.7236 15.3457L63.0664 13.3857L61.8623 13.377C60.8604 13.377 60.0928 13.5352 59.5596 13.8516C59.0264 14.168 58.7246 14.6162 58.6543 15.1963C58.6016 15.6416 58.7041 16.0137 58.9619 16.3125C59.2256 16.6055 59.6064 16.7578 60.1045 16.7695ZM72.2949 9.94043L71.5479 9.86133C70.5283 9.86133 69.7256 10.3213 69.1396 11.2412L67.9707 18H66.3799L68.0322 8.49023L69.5703 8.48145L69.333 9.58887C70.0068 8.7041 70.8008 8.27344 71.7148 8.29688C71.9082 8.29688 72.1602 8.34082 72.4707 8.42871L72.2949 9.94043ZM72.6641 13.2275C72.8047 12.1904 73.083 11.291 73.499 10.5293C73.9209 9.76172 74.4307 9.19629 75.0283 8.83301C75.6318 8.46387 76.291 8.28809 77.0059 8.30566C78.1074 8.3291 78.9395 8.74512 79.502 9.55371L79.8184 8.49023H81.2773L79.6953 17.7979C79.5254 19.0107 79.0332 19.9805 78.2188 20.707C77.4043 21.4395 76.3994 21.7881 75.2041 21.7529C74.5596 21.7412 73.9414 21.5889 73.3496 21.2959C72.7637 21.0029 72.3008 20.6016 71.9609 20.0918L72.8662 19.1162C73.4404 19.9658 74.1992 20.4023 75.1426 20.4258C75.8984 20.4492 76.5371 20.2383 77.0586 19.793C77.5859 19.3477 77.9346 18.7148 78.1045 17.8945L78.2803 17.0508C77.5068 17.8242 76.6016 18.1992 75.5645 18.1758C74.9727 18.1582 74.457 18 74.0176 17.7012C73.584 17.3965 73.2471 16.96 73.0068 16.3916C72.7666 15.8174 72.6348 15.1787 72.6113 14.4756C72.5996 14.1299 72.6172 13.7139 72.6641 13.2275ZM74.2021 14.1328C74.1846 14.9707 74.3281 15.6211 74.6328 16.084C74.9434 16.541 75.4092 16.7812 76.0303 16.8047C76.9795 16.8281 77.7969 16.3623 78.4824 15.4072L79.2295 11.0391C78.8779 10.1719 78.2422 9.7207 77.3223 9.68555C76.4609 9.66211 75.752 10.0137 75.1953 10.7402C74.6445 11.4668 74.3193 12.4482 74.2197 13.6846L74.2021 14.1328ZM86.208 18.1758C85.0244 18.1523 84.0986 17.7158 83.4307 16.8662C82.7627 16.0166 82.4814 14.9297 82.5869 13.6055L82.6309 13.2275C82.7305 12.2842 83.0088 11.4229 83.4658 10.6436C83.9287 9.86426 84.4912 9.27832 85.1533 8.88574C85.8154 8.4873 86.5303 8.29688 87.2979 8.31445C88.2764 8.33789 89.0439 8.66309 89.6006 9.29004C90.1572 9.91699 90.4619 10.7666 90.5146 11.8389C90.5322 12.2197 90.5205 12.6006 90.4795 12.9814L90.3828 13.7109H84.1689C84.0635 14.5723 84.2041 15.3047 84.5908 15.9082C84.9834 16.5117 85.5664 16.8252 86.3398 16.8486C87.2773 16.8721 88.1445 16.4502 88.9414 15.583L89.8555 16.3564C89.457 16.9307 88.9414 17.3818 88.3086 17.71C87.6816 18.0322 86.9814 18.1875 86.208 18.1758ZM87.2188 9.6416C86.5625 9.62402 85.9883 9.84668 85.4961 10.3096C85.0098 10.7725 84.623 11.4609 84.3359 12.375L88.959 12.3838L88.9941 12.2432C89.0879 11.5049 88.9678 10.8926 88.6338 10.4062C88.3057 9.91406 87.834 9.65918 87.2188 9.6416ZM95.6299 6.1875L95.2256 8.49023H96.957L96.7373 9.74707H95.0146L94.0215 15.6621C94.0039 15.8145 94.001 15.9551 94.0127 16.084C94.0537 16.541 94.3027 16.7695 94.7598 16.7695C94.9531 16.7695 95.2109 16.7402 95.5332 16.6816L95.4102 18.0088C95.0293 18.1143 94.6426 18.167 94.25 18.167C93.6172 18.1553 93.1426 17.9238 92.8262 17.4727C92.5098 17.0156 92.3867 16.4033 92.457 15.6357L93.4238 9.74707H91.7451L91.9648 8.49023H93.6436L94.0479 6.1875H95.6299ZM106.414 15.7412L111.608 5.20312H113.472L106.862 18H105.403L102.811 5.20312H104.542L106.414 15.7412ZM118.253 18C118.212 17.8301 118.191 17.6631 118.191 17.499L118.218 16.998C117.345 17.8066 116.419 18.1992 115.44 18.1758C114.603 18.1641 113.92 17.9004 113.393 17.3848C112.871 16.8633 112.634 16.2129 112.681 15.4336C112.739 14.4258 113.179 13.6406 113.999 13.0781C114.825 12.5098 115.909 12.2256 117.251 12.2256L118.912 12.2344L119.018 11.4785C119.076 10.9102 118.965 10.4619 118.684 10.1338C118.408 9.7998 117.992 9.62695 117.436 9.61523C116.891 9.60352 116.407 9.73828 115.985 10.0195C115.569 10.2949 115.314 10.6611 115.221 11.1182L113.621 11.127C113.674 10.5703 113.891 10.0781 114.271 9.65039C114.652 9.2168 115.142 8.88281 115.739 8.64844C116.337 8.4082 116.955 8.29395 117.594 8.30566C118.584 8.3291 119.354 8.63086 119.905 9.21094C120.456 9.78516 120.688 10.5498 120.6 11.5049L119.826 16.2158L119.782 16.8926C119.771 17.2148 119.806 17.5342 119.888 17.8506L119.87 18H118.253ZM115.757 16.7695C116.267 16.7812 116.747 16.6611 117.198 16.4092C117.655 16.1514 118.048 15.7969 118.376 15.3457L118.719 13.3857L117.515 13.377C116.513 13.377 115.745 13.5352 115.212 13.8516C114.679 14.168 114.377 14.6162 114.307 15.1963C114.254 15.6416 114.356 16.0137 114.614 16.3125C114.878 16.6055 115.259 16.7578 115.757 16.7695ZM127.947 9.94043L127.2 9.86133C126.181 9.86133 125.378 10.3213 124.792 11.2412L123.623 18H122.032L123.685 8.49023L125.223 8.48145L124.985 9.58887C125.659 8.7041 126.453 8.27344 127.367 8.29688C127.561 8.29688 127.812 8.34082 128.123 8.42871L127.947 9.94043ZM129.749 18H128.167L129.819 8.49023H131.401L129.749 18ZM131.059 5.01855C131.328 5.00684 131.551 5.08887 131.727 5.26465C131.908 5.43457 131.999 5.66016 131.999 5.94141C131.993 6.2168 131.902 6.44238 131.727 6.61816C131.557 6.79395 131.334 6.8877 131.059 6.89941C130.783 6.91113 130.558 6.83203 130.382 6.66211C130.206 6.49219 130.121 6.26953 130.127 5.99414C130.133 5.71875 130.221 5.49023 130.391 5.30859C130.561 5.12695 130.783 5.03027 131.059 5.01855ZM138.169 18C138.128 17.8301 138.107 17.6631 138.107 17.499L138.134 16.998C137.261 17.8066 136.335 18.1992 135.356 18.1758C134.519 18.1641 133.836 17.9004 133.309 17.3848C132.787 16.8633 132.55 16.2129 132.597 15.4336C132.655 14.4258 133.095 13.6406 133.915 13.0781C134.741 12.5098 135.825 12.2256 137.167 12.2256L138.828 12.2344L138.934 11.4785C138.992 10.9102 138.881 10.4619 138.6 10.1338C138.324 9.7998 137.908 9.62695 137.352 9.61523C136.807 9.60352 136.323 9.73828 135.901 10.0195C135.485 10.2949 135.23 10.6611 135.137 11.1182L133.537 11.127C133.59 10.5703 133.807 10.0781 134.188 9.65039C134.568 9.2168 135.058 8.88281 135.655 8.64844C136.253 8.4082 136.871 8.29395 137.51 8.30566C138.5 8.3291 139.271 8.63086 139.821 9.21094C140.372 9.78516 140.604 10.5498 140.516 11.5049L139.742 16.2158L139.698 16.8926C139.687 17.2148 139.722 17.5342 139.804 17.8506L139.786 18H138.169ZM135.673 16.7695C136.183 16.7812 136.663 16.6611 137.114 16.4092C137.571 16.1514 137.964 15.7969 138.292 15.3457L138.635 13.3857L137.431 13.377C136.429 13.377 135.661 13.5352 135.128 13.8516C134.595 14.168 134.293 14.6162 134.223 15.1963C134.17 15.6416 134.272 16.0137 134.53 16.3125C134.794 16.6055 135.175 16.7578 135.673 16.7695ZM150.579 13.2891C150.462 14.2617 150.195 15.1377 149.779 15.917C149.363 16.6963 148.859 17.2734 148.268 17.6484C147.676 18.0234 147.02 18.2021 146.299 18.1846C145.15 18.1611 144.298 17.7305 143.741 16.8926L143.416 18H141.948L144.295 4.5H145.886L144.928 9.54492C145.689 8.70117 146.615 8.29102 147.705 8.31445C148.619 8.33789 149.331 8.6748 149.841 9.3252C150.351 9.97559 150.62 10.8721 150.649 12.0146C150.655 12.3896 150.638 12.7529 150.597 13.1045L150.579 13.2891ZM149.067 12.3662C149.085 11.5107 148.941 10.8574 148.637 10.4062C148.332 9.94922 147.866 9.70898 147.239 9.68555C146.249 9.66211 145.411 10.1602 144.726 11.1797L144.014 15.3193C144.365 16.2861 145.024 16.7812 145.991 16.8047C146.612 16.8281 147.154 16.6436 147.617 16.251C148.086 15.8584 148.44 15.3105 148.681 14.6074C148.921 13.8984 149.05 13.1514 149.067 12.3662ZM153.567 18H151.985L154.323 4.5H155.914L153.567 18ZM160.282 18.1758C159.099 18.1523 158.173 17.7158 157.505 16.8662C156.837 16.0166 156.556 14.9297 156.661 13.6055L156.705 13.2275C156.805 12.2842 157.083 11.4229 157.54 10.6436C158.003 9.86426 158.565 9.27832 159.228 8.88574C159.89 8.4873 160.604 8.29688 161.372 8.31445C162.351 8.33789 163.118 8.66309 163.675 9.29004C164.231 9.91699 164.536 10.7666 164.589 11.8389C164.606 12.2197 164.595 12.6006 164.554 12.9814L164.457 13.7109H158.243C158.138 14.5723 158.278 15.3047 158.665 15.9082C159.058 16.5117 159.641 16.8252 160.414 16.8486C161.352 16.8721 162.219 16.4502 163.016 15.583L163.93 16.3564C163.531 16.9307 163.016 17.3818 162.383 17.71C161.756 18.0322 161.056 18.1875 160.282 18.1758ZM161.293 9.6416C160.637 9.62402 160.062 9.84668 159.57 10.3096C159.084 10.7725 158.697 11.4609 158.41 12.375L163.033 12.3838L163.068 12.2432C163.162 11.5049 163.042 10.8926 162.708 10.4062C162.38 9.91406 161.908 9.65918 161.293 9.6416Z" fill="black"/>
<path d="M314.083 10.5918H310.102L308.124 22H306.48L308.458 10.5918H304.477L304.723 9.20312H314.329L314.083 10.5918ZM319.031 13.9404L318.284 13.8613C317.265 13.8613 316.462 14.3213 315.876 15.2412L314.707 22H313.116L314.769 12.4902L316.307 12.4814L316.069 13.5889C316.743 12.7041 317.537 12.2734 318.451 12.2969C318.645 12.2969 318.896 12.3408 319.207 12.4287L319.031 13.9404ZM324.577 22C324.536 21.8301 324.516 21.6631 324.516 21.499L324.542 20.998C323.669 21.8066 322.743 22.1992 321.765 22.1758C320.927 22.1641 320.244 21.9004 319.717 21.3848C319.195 20.8633 318.958 20.2129 319.005 19.4336C319.063 18.4258 319.503 17.6406 320.323 17.0781C321.149 16.5098 322.233 16.2256 323.575 16.2256L325.236 16.2344L325.342 15.4785C325.4 14.9102 325.289 14.4619 325.008 14.1338C324.732 13.7998 324.316 13.627 323.76 13.6152C323.215 13.6035 322.731 13.7383 322.31 14.0195C321.894 14.2949 321.639 14.6611 321.545 15.1182L319.945 15.127C319.998 14.5703 320.215 14.0781 320.596 13.6504C320.977 13.2168 321.466 12.8828 322.063 12.6484C322.661 12.4082 323.279 12.2939 323.918 12.3057C324.908 12.3291 325.679 12.6309 326.229 13.2109C326.78 13.7852 327.012 14.5498 326.924 15.5049L326.15 20.2158L326.106 20.8926C326.095 21.2148 326.13 21.5342 326.212 21.8506L326.194 22H324.577ZM322.081 20.7695C322.591 20.7812 323.071 20.6611 323.522 20.4092C323.979 20.1514 324.372 19.7969 324.7 19.3457L325.043 17.3857L323.839 17.377C322.837 17.377 322.069 17.5352 321.536 17.8516C321.003 18.168 320.701 18.6162 320.631 19.1963C320.578 19.6416 320.681 20.0137 320.938 20.3125C321.202 20.6055 321.583 20.7578 322.081 20.7695ZM331.512 12.4814L331.283 13.6855C332.139 12.748 333.111 12.291 334.201 12.3145C335.098 12.3379 335.76 12.6484 336.188 13.2461C336.615 13.8438 336.773 14.6846 336.662 15.7686L335.625 22H334.034L335.08 15.7422C335.115 15.4551 335.118 15.1885 335.089 14.9424C334.989 14.1221 334.506 13.7031 333.639 13.6855C332.684 13.668 331.846 14.1777 331.125 15.2148L329.947 22H328.356L330.009 12.4902L331.512 12.4814ZM343.966 19.4248C344.054 18.7686 343.693 18.3057 342.885 18.0361L341.232 17.5527C339.838 17.0723 339.164 16.2754 339.211 15.1621C339.252 14.3242 339.633 13.6387 340.354 13.1055C341.08 12.5664 341.933 12.3027 342.911 12.3145C343.872 12.3262 344.651 12.6074 345.249 13.1582C345.853 13.7031 346.143 14.415 346.119 15.2939L344.537 15.2852C344.549 14.8105 344.399 14.4238 344.089 14.125C343.778 13.8262 343.365 13.6709 342.85 13.6592C342.299 13.6475 341.824 13.7822 341.426 14.0635C341.057 14.3271 340.843 14.6729 340.784 15.1006C340.708 15.6514 341.045 16.0527 341.795 16.3047L342.595 16.5244C343.685 16.8057 344.458 17.1719 344.915 17.623C345.372 18.0742 345.583 18.6338 345.548 19.3018C345.513 19.8936 345.319 20.4092 344.968 20.8486C344.616 21.2881 344.147 21.625 343.562 21.8594C342.976 22.0879 342.352 22.1934 341.689 22.1758C340.682 22.1641 339.85 21.8711 339.193 21.2969C338.537 20.7168 338.221 19.9727 338.244 19.0645L339.835 19.0732C339.835 19.6064 340.005 20.0342 340.345 20.3564C340.685 20.6787 341.15 20.8398 341.742 20.8398C342.322 20.8516 342.823 20.7314 343.245 20.4795C343.667 20.2217 343.907 19.8701 343.966 19.4248ZM347.938 22L349.38 13.7471H347.912L348.132 12.4902H349.591L349.749 11.3652C349.901 10.4102 350.271 9.66309 350.856 9.12402C351.472 8.56152 352.257 8.28613 353.212 8.29785C353.511 8.29785 353.889 8.34766 354.346 8.44727L354.152 9.77441C353.871 9.71582 353.587 9.68066 353.3 9.66895C352.749 9.66895 352.301 9.8418 351.955 10.1875C351.615 10.5273 351.404 10.9814 351.322 11.5498L351.182 12.4902H353.15L352.931 13.7471H350.962L349.529 22H347.938ZM358.6 12.3145C359.396 12.3262 360.079 12.543 360.647 12.9648C361.216 13.3867 361.635 13.9697 361.904 14.7139C362.18 15.4521 362.273 16.2607 362.186 17.1396L362.168 17.333C362.057 18.2588 361.781 19.0967 361.342 19.8467C360.902 20.5908 360.334 21.1709 359.637 21.5869C358.939 22.0029 358.175 22.1992 357.343 22.1758C356.552 22.1641 355.869 21.9473 355.295 21.5254C354.727 21.1035 354.311 20.5293 354.047 19.8027C353.783 19.0762 353.689 18.2764 353.766 17.4033C353.854 16.4189 354.12 15.5342 354.565 14.749C355.011 13.9639 355.582 13.3574 356.279 12.9297C356.982 12.4961 357.756 12.291 358.6 12.3145ZM355.365 17.4121C355.324 17.7812 355.324 18.165 355.365 18.5635C355.424 19.2549 355.629 19.8057 355.98 20.2158C356.338 20.626 356.812 20.8398 357.404 20.8574C357.932 20.875 358.418 20.7461 358.863 20.4707C359.309 20.1895 359.684 19.7676 359.988 19.2051C360.293 18.6426 360.489 18.0186 360.577 17.333C360.624 16.7939 360.633 16.3398 360.604 15.9707C360.533 15.2617 360.319 14.7021 359.962 14.292C359.604 13.8818 359.13 13.665 358.538 13.6416C357.718 13.624 357.021 13.9463 356.446 14.6084C355.872 15.2705 355.518 16.1377 355.383 17.21L355.365 17.4121ZM369.287 13.9404L368.54 13.8613C367.521 13.8613 366.718 14.3213 366.132 15.2412L364.963 22H363.372L365.024 12.4902L366.562 12.4814L366.325 13.5889C366.999 12.7041 367.793 12.2734 368.707 12.2969C368.9 12.2969 369.152 12.3408 369.463 12.4287L369.287 13.9404ZM372.504 12.4814L372.302 13.5449C373.099 12.7012 374.062 12.291 375.193 12.3145C375.797 12.3262 376.307 12.4639 376.723 12.7275C377.145 12.9912 377.435 13.3633 377.593 13.8438C378.483 12.8008 379.535 12.291 380.748 12.3145C381.697 12.3379 382.397 12.6572 382.849 13.2725C383.3 13.8877 383.467 14.7139 383.35 15.751L382.304 22H380.722L381.759 15.7334C381.794 15.4287 381.794 15.1504 381.759 14.8984C381.647 14.1016 381.126 13.6943 380.194 13.6768C379.614 13.665 379.087 13.8467 378.612 14.2217C378.144 14.5908 377.842 15.0771 377.707 15.6807L376.626 22H375.026L376.081 15.7422C376.157 15.0918 376.058 14.5908 375.782 14.2393C375.513 13.8877 375.091 13.7061 374.517 13.6943C373.526 13.6709 372.738 14.1221 372.152 15.0479L370.948 22H369.357L371.01 12.4902L372.504 12.4814ZM390.583 22C390.542 21.8301 390.521 21.6631 390.521 21.499L390.548 20.998C389.675 21.8066 388.749 22.1992 387.771 22.1758C386.933 22.1641 386.25 21.9004 385.723 21.3848C385.201 20.8633 384.964 20.2129 385.011 19.4336C385.069 18.4258 385.509 17.6406 386.329 17.0781C387.155 16.5098 388.239 16.2256 389.581 16.2256L391.242 16.2344L391.348 15.4785C391.406 14.9102 391.295 14.4619 391.014 14.1338C390.738 13.7998 390.322 13.627 389.766 13.6152C389.221 13.6035 388.737 13.7383 388.315 14.0195C387.899 14.2949 387.645 14.6611 387.551 15.1182L385.951 15.127C386.004 14.5703 386.221 14.0781 386.602 13.6504C386.982 13.2168 387.472 12.8828 388.069 12.6484C388.667 12.4082 389.285 12.2939 389.924 12.3057C390.914 12.3291 391.685 12.6309 392.235 13.2109C392.786 13.7852 393.018 14.5498 392.93 15.5049L392.156 20.2158L392.112 20.8926C392.101 21.2148 392.136 21.5342 392.218 21.8506L392.2 22H390.583ZM388.087 20.7695C388.597 20.7812 389.077 20.6611 389.528 20.4092C389.985 20.1514 390.378 19.7969 390.706 19.3457L391.049 17.3857L389.845 17.377C388.843 17.377 388.075 17.5352 387.542 17.8516C387.009 18.168 386.707 18.6162 386.637 19.1963C386.584 19.6416 386.687 20.0137 386.944 20.3125C387.208 20.6055 387.589 20.7578 388.087 20.7695ZM398.563 10.1875L398.159 12.4902H399.891L399.671 13.7471H397.948L396.955 19.6621C396.938 19.8145 396.935 19.9551 396.946 20.084C396.987 20.541 397.236 20.7695 397.693 20.7695C397.887 20.7695 398.145 20.7402 398.467 20.6816L398.344 22.0088C397.963 22.1143 397.576 22.167 397.184 22.167C396.551 22.1553 396.076 21.9238 395.76 21.4727C395.443 21.0156 395.32 20.4033 395.391 19.6357L396.357 13.7471H394.679L394.898 12.4902H396.577L396.981 10.1875H398.563ZM401.886 22H400.304L401.956 12.4902H403.538L401.886 22ZM403.195 9.01855C403.465 9.00684 403.688 9.08887 403.863 9.26465C404.045 9.43457 404.136 9.66016 404.136 9.94141C404.13 10.2168 404.039 10.4424 403.863 10.6182C403.693 10.7939 403.471 10.8877 403.195 10.8994C402.92 10.9111 402.694 10.832 402.519 10.6621C402.343 10.4922 402.258 10.2695 402.264 9.99414C402.27 9.71875 402.357 9.49023 402.527 9.30859C402.697 9.12695 402.92 9.03027 403.195 9.01855ZM409.77 12.3145C410.566 12.3262 411.249 12.543 411.817 12.9648C412.386 13.3867 412.805 13.9697 413.074 14.7139C413.35 15.4521 413.443 16.2607 413.355 17.1396L413.338 17.333C413.227 18.2588 412.951 19.0967 412.512 19.8467C412.072 20.5908 411.504 21.1709 410.807 21.5869C410.109 22.0029 409.345 22.1992 408.513 22.1758C407.722 22.1641 407.039 21.9473 406.465 21.5254C405.896 21.1035 405.48 20.5293 405.217 19.8027C404.953 19.0762 404.859 18.2764 404.936 17.4033C405.023 16.4189 405.29 15.5342 405.735 14.749C406.181 13.9639 406.752 13.3574 407.449 12.9297C408.152 12.4961 408.926 12.291 409.77 12.3145ZM406.535 17.4121C406.494 17.7812 406.494 18.165 406.535 18.5635C406.594 19.2549 406.799 19.8057 407.15 20.2158C407.508 20.626 407.982 20.8398 408.574 20.8574C409.102 20.875 409.588 20.7461 410.033 20.4707C410.479 20.1895 410.854 19.7676 411.158 19.2051C411.463 18.6426 411.659 18.0186 411.747 17.333C411.794 16.7939 411.803 16.3398 411.773 15.9707C411.703 15.2617 411.489 14.7021 411.132 14.292C410.774 13.8818 410.3 13.665 409.708 13.6416C408.888 13.624 408.19 13.9463 407.616 14.6084C407.042 15.2705 406.688 16.1377 406.553 17.21L406.535 17.4121ZM417.697 12.4814L417.469 13.6855C418.324 12.748 419.297 12.291 420.387 12.3145C421.283 12.3379 421.945 12.6484 422.373 13.2461C422.801 13.8438 422.959 14.6846 422.848 15.7686L421.811 22H420.22L421.266 15.7422C421.301 15.4551 421.304 15.1885 421.274 14.9424C421.175 14.1221 420.691 13.7031 419.824 13.6855C418.869 13.668 418.031 14.1777 417.311 15.2148L416.133 22H414.542L416.194 12.4902L417.697 12.4814Z" fill="black"/>
<path d="M55.731 160.427H50.5278L49.5435 166.078H47.8911L50.1147 153.282H57.814L57.5679 154.67H51.521L50.7651 159.047H55.9771L55.731 160.427ZM62.4722 156.393C63.269 156.405 63.9517 156.621 64.52 157.043C65.0884 157.465 65.5073 158.048 65.7769 158.792C66.0522 159.531 66.146 160.339 66.0581 161.218L66.0405 161.411C65.9292 162.337 65.6538 163.175 65.2144 163.925C64.7749 164.669 64.2065 165.249 63.5093 165.665C62.812 166.081 62.0474 166.278 61.2153 166.254C60.4243 166.242 59.7417 166.026 59.1675 165.604C58.5991 165.182 58.1831 164.608 57.9194 163.881C57.6558 163.155 57.562 162.355 57.6382 161.482C57.7261 160.497 57.9927 159.613 58.438 158.827C58.8833 158.042 59.4546 157.436 60.1519 157.008C60.855 156.575 61.6284 156.369 62.4722 156.393ZM59.2378 161.491C59.1968 161.86 59.1968 162.243 59.2378 162.642C59.2964 163.333 59.5015 163.884 59.853 164.294C60.2104 164.704 60.6851 164.918 61.2769 164.936C61.8042 164.953 62.2905 164.825 62.7358 164.549C63.1812 164.268 63.5562 163.846 63.8608 163.284C64.1655 162.721 64.3618 162.097 64.4497 161.411C64.4966 160.872 64.5054 160.418 64.4761 160.049C64.4058 159.34 64.1919 158.781 63.8345 158.37C63.4771 157.96 63.0024 157.743 62.4106 157.72C61.5903 157.702 60.8931 158.025 60.3188 158.687C59.7446 159.349 59.3901 160.216 59.2554 161.288L59.2378 161.491ZM73.1597 158.019L72.4126 157.94C71.3931 157.94 70.5903 158.4 70.0044 159.32L68.8354 166.078H67.2446L68.897 156.569L70.4351 156.56L70.1978 157.667C70.8716 156.783 71.6655 156.352 72.5796 156.375C72.7729 156.375 73.0249 156.419 73.3354 156.507L73.1597 158.019ZM85.0864 162.783C85.2153 161.845 84.729 161.159 83.6274 160.726L82.1069 160.172L81.5972 159.952C79.8862 159.173 79.0864 158.077 79.1978 156.665C79.2563 155.956 79.4995 155.329 79.9272 154.784C80.355 154.24 80.9204 153.821 81.6235 153.528C82.3325 153.229 83.0854 153.088 83.8823 153.106C84.6558 153.123 85.3442 153.296 85.9478 153.624C86.5571 153.952 87.02 154.412 87.3364 155.004C87.6528 155.59 87.7935 156.252 87.7583 156.991L86.0972 156.982C86.1558 156.197 85.98 155.59 85.5698 155.162C85.1597 154.729 84.5737 154.506 83.812 154.494C83.0093 154.483 82.3384 154.67 81.7993 155.057C81.2603 155.444 80.9497 155.971 80.8677 156.639C80.7505 157.512 81.2866 158.174 82.4761 158.625L83.7856 159.091L84.4448 159.372C86.0972 160.134 86.8618 161.265 86.7388 162.765C86.6743 163.486 86.4312 164.11 86.0093 164.637C85.5874 165.159 85.0132 165.563 84.2866 165.85C83.5659 166.137 82.7896 166.272 81.9575 166.254C81.1548 166.248 80.4194 166.078 79.7515 165.744C79.0894 165.405 78.5854 164.942 78.2397 164.356C77.894 163.77 77.7417 163.105 77.7827 162.361L79.4351 162.369C79.3823 163.131 79.5874 163.738 80.0503 164.189C80.519 164.634 81.1782 164.863 82.0278 164.874C82.8774 164.886 83.5776 164.701 84.1284 164.321C84.6792 163.94 84.9985 163.427 85.0864 162.783ZM92.311 154.266L91.9067 156.569H93.6382L93.4185 157.826H91.6958L90.7026 163.741C90.6851 163.893 90.6821 164.034 90.6938 164.162C90.7349 164.619 90.9839 164.848 91.4409 164.848C91.6343 164.848 91.8921 164.819 92.2144 164.76L92.0913 166.087C91.7104 166.193 91.3237 166.245 90.9312 166.245C90.2983 166.234 89.8237 166.002 89.5073 165.551C89.1909 165.094 89.0679 164.482 89.1382 163.714L90.105 157.826H88.4263L88.646 156.569H90.3247L90.729 154.266H92.311ZM99.729 166.078C99.688 165.909 99.6675 165.742 99.6675 165.577L99.6938 165.076C98.8208 165.885 97.895 166.278 96.9165 166.254C96.0786 166.242 95.396 165.979 94.8687 165.463C94.3472 164.942 94.1099 164.291 94.1567 163.512C94.2153 162.504 94.6548 161.719 95.4751 161.157C96.3013 160.588 97.3853 160.304 98.7271 160.304L100.388 160.313L100.494 159.557C100.552 158.989 100.441 158.54 100.16 158.212C99.8843 157.878 99.4683 157.705 98.9116 157.694C98.3667 157.682 97.8833 157.817 97.4614 158.098C97.0454 158.373 96.7905 158.74 96.6968 159.197L95.0972 159.205C95.1499 158.649 95.3667 158.157 95.7476 157.729C96.1284 157.295 96.6177 156.961 97.2153 156.727C97.813 156.487 98.4312 156.372 99.0698 156.384C100.06 156.408 100.831 156.709 101.381 157.289C101.932 157.864 102.164 158.628 102.076 159.583L101.302 164.294L101.258 164.971C101.247 165.293 101.282 165.613 101.364 165.929L101.346 166.078H99.729ZM97.2329 164.848C97.7427 164.86 98.2231 164.74 98.6743 164.488C99.1313 164.23 99.5239 163.875 99.8521 163.424L100.195 161.464L98.9907 161.455C97.9888 161.455 97.2212 161.614 96.688 161.93C96.1548 162.246 95.853 162.695 95.7827 163.275C95.73 163.72 95.8325 164.092 96.0903 164.391C96.354 164.684 96.7349 164.836 97.2329 164.848ZM107.709 154.266L107.305 156.569H109.037L108.817 157.826H107.094L106.101 163.741C106.083 163.893 106.081 164.034 106.092 164.162C106.133 164.619 106.382 164.848 106.839 164.848C107.033 164.848 107.291 164.819 107.613 164.76L107.49 166.087C107.109 166.193 106.722 166.245 106.33 166.245C105.697 166.234 105.222 166.002 104.906 165.551C104.589 165.094 104.466 164.482 104.537 163.714L105.503 157.826H103.825L104.044 156.569H105.723L106.127 154.266H107.709ZM113.422 166.254C112.239 166.231 111.313 165.794 110.645 164.945C109.977 164.095 109.696 163.008 109.801 161.684L109.845 161.306C109.945 160.363 110.223 159.501 110.68 158.722C111.143 157.943 111.706 157.357 112.368 156.964C113.03 156.566 113.745 156.375 114.512 156.393C115.491 156.416 116.258 156.742 116.815 157.368C117.372 157.995 117.676 158.845 117.729 159.917C117.747 160.298 117.735 160.679 117.694 161.06L117.597 161.789H111.383C111.278 162.651 111.418 163.383 111.805 163.987C112.198 164.59 112.781 164.904 113.554 164.927C114.492 164.951 115.359 164.529 116.156 163.661L117.07 164.435C116.671 165.009 116.156 165.46 115.523 165.788C114.896 166.111 114.196 166.266 113.422 166.254ZM114.433 157.72C113.777 157.702 113.203 157.925 112.71 158.388C112.224 158.851 111.837 159.539 111.55 160.453L116.173 160.462L116.208 160.322C116.302 159.583 116.182 158.971 115.848 158.485C115.52 157.992 115.048 157.738 114.433 157.72ZM121.781 156.56L121.579 157.623C122.375 156.78 123.339 156.369 124.47 156.393C125.074 156.405 125.583 156.542 126 156.806C126.421 157.07 126.711 157.442 126.87 157.922C127.76 156.879 128.812 156.369 130.025 156.393C130.974 156.416 131.674 156.736 132.125 157.351C132.577 157.966 132.744 158.792 132.626 159.829L131.581 166.078H129.999L131.036 159.812C131.071 159.507 131.071 159.229 131.036 158.977C130.924 158.18 130.403 157.773 129.471 157.755C128.891 157.743 128.364 157.925 127.889 158.3C127.42 158.669 127.119 159.156 126.984 159.759L125.903 166.078H124.303L125.358 159.821C125.434 159.17 125.334 158.669 125.059 158.318C124.79 157.966 124.368 157.784 123.793 157.773C122.803 157.749 122.015 158.201 121.429 159.126L120.225 166.078H118.634L120.287 156.569L121.781 156.56ZM138.155 166.254C136.971 166.231 136.045 165.794 135.377 164.945C134.709 164.095 134.428 163.008 134.534 161.684L134.578 161.306C134.677 160.363 134.956 159.501 135.413 158.722C135.875 157.943 136.438 157.357 137.1 156.964C137.762 156.566 138.477 156.375 139.245 156.393C140.223 156.416 140.991 156.742 141.547 157.368C142.104 157.995 142.409 158.845 142.461 159.917C142.479 160.298 142.467 160.679 142.426 161.06L142.33 161.789H136.116C136.01 162.651 136.151 163.383 136.538 163.987C136.93 164.59 137.513 164.904 138.287 164.927C139.224 164.951 140.091 164.529 140.888 163.661L141.802 164.435C141.404 165.009 140.888 165.46 140.255 165.788C139.628 166.111 138.928 166.266 138.155 166.254ZM139.166 157.72C138.509 157.702 137.935 157.925 137.443 158.388C136.957 158.851 136.57 159.539 136.283 160.453L140.906 160.462L140.941 160.322C141.035 159.583 140.915 158.971 140.581 158.485C140.252 157.992 139.781 157.738 139.166 157.72ZM146.531 156.56L146.302 157.764C147.158 156.826 148.13 156.369 149.22 156.393C150.117 156.416 150.779 156.727 151.207 157.325C151.634 157.922 151.792 158.763 151.681 159.847L150.644 166.078H149.053L150.099 159.821C150.134 159.534 150.137 159.267 150.108 159.021C150.008 158.201 149.525 157.782 148.658 157.764C147.703 157.746 146.865 158.256 146.144 159.293L144.966 166.078H143.375L145.028 156.569L146.531 156.56ZM157.297 154.266L156.893 156.569H158.625L158.405 157.826H156.682L155.689 163.741C155.671 163.893 155.668 164.034 155.68 164.162C155.721 164.619 155.97 164.848 156.427 164.848C156.621 164.848 156.878 164.819 157.201 164.76L157.078 166.087C156.697 166.193 156.31 166.245 155.917 166.245C155.285 166.234 154.81 166.002 154.494 165.551C154.177 165.094 154.054 164.482 154.125 163.714L155.091 157.826H153.413L153.632 156.569H155.311L155.715 154.266H157.297Z" fill="black"/>
<line y1="-1" x2="62.4002" y2="-1" transform="matrix(-0.999872 0.0160256 0 -1 390.392 97.9804)" stroke="#EB5757" stroke-width="2"/>
<line y1="-1" x2="69.9875" y2="-1" transform="matrix(0.0142883 0.999898 -1 0 358.353 28.0001)" stroke="#EB5757" stroke-width="2"/>
<line x1="146" y1="44.6863" x2="50.7451" y2="44.6863" stroke="#009E73" stroke-width="2"/>
<line y1="-1" x2="21.1021" y2="-1" transform="matrix(0.0473886 0.998877 -1 0 97.0853 22.6078)" stroke="#009E73" stroke-width="2"/>
<line y1="-1" x2="192.258" y2="-1" transform="matrix(-0.999986 0.00520136 1.01504e-08 -1 243 95.8039)" stroke="#9B51E0" stroke-width="2"/>
<line y1="-1" x2="52.2745" y2="-1" transform="matrix(-1.7969e-08 -1 -1 5.99126e-08 89.8057 149.078)" stroke="#9B51E0" stroke-width="2"/>
</svg>
