<svg width="511" height="196" viewBox="0 0 511 196" fill="none" xmlns="http://www.w3.org/2000/svg">
<rect width="511" height="196" fill="white"/>
<path d="M45 156H467V191H45V156Z" fill="#F1F4F8"/>
<path d="M56.3582 172.394H53.7382V170.674L56.4582 170.574L56.7582 167.894H58.6582V170.574H63.1382V172.394H58.6582V176.434C58.6582 177.247 58.8249 177.847 59.1582 178.234C59.4916 178.607 60.0782 178.794 60.9182 178.794C61.3449 178.794 61.7316 178.76 62.0782 178.694C62.4249 178.614 62.7582 178.514 63.0782 178.394L63.5182 180.074C63.0782 180.22 62.5916 180.347 62.0582 180.454C61.5249 180.574 60.9582 180.634 60.3582 180.634C59.6116 180.634 58.9849 180.534 58.4782 180.334C57.9716 180.134 57.5582 179.854 57.2382 179.494C56.9316 179.12 56.7049 178.674 56.5582 178.154C56.4249 177.634 56.3582 177.06 56.3582 176.434V172.394ZM66.2304 170.574H72.7904V180.394H70.4904V172.394H66.2304V170.574ZM71.4704 168.854C71.0037 168.854 70.6104 168.714 70.2904 168.434C69.9837 168.154 69.8304 167.78 69.8304 167.314C69.8304 166.847 69.9837 166.474 70.2904 166.194C70.6104 165.9 71.0037 165.754 71.4704 165.754C71.9504 165.754 72.3437 165.9 72.6504 166.194C72.9571 166.474 73.1104 166.847 73.1104 167.314C73.1104 167.78 72.9571 168.154 72.6504 168.434C72.3437 168.714 71.9504 168.854 71.4704 168.854ZM77.5026 170.574H79.2426L79.4226 171.834H79.4826C79.7093 171.407 79.9826 171.054 80.3026 170.774C80.6359 170.48 81.0826 170.334 81.6426 170.334C82.6026 170.334 83.2026 170.88 83.4426 171.974C83.6693 171.507 83.9559 171.12 84.3026 170.814C84.6626 170.494 85.1159 170.334 85.6626 170.334C86.3559 170.334 86.8893 170.607 87.2626 171.154C87.6493 171.687 87.8426 172.447 87.8426 173.434V180.394H85.6626V173.614C85.6626 172.747 85.3893 172.314 84.8426 172.314C84.5759 172.314 84.3426 172.414 84.1426 172.614C83.9426 172.814 83.7493 173.12 83.5626 173.534V180.394H81.7626V173.614C81.7626 172.747 81.4826 172.314 80.9226 172.314C80.6559 172.314 80.4293 172.414 80.2426 172.614C80.0559 172.814 79.8693 173.12 79.6826 173.534V180.394H77.5026V170.574ZM89.7748 175.494C89.7748 174.694 89.9148 173.974 90.1948 173.334C90.4881 172.694 90.8681 172.154 91.3348 171.714C91.8015 171.26 92.3348 170.92 92.9348 170.694C93.5481 170.454 94.1748 170.334 94.8148 170.334C95.5481 170.334 96.1948 170.454 96.7548 170.694C97.3281 170.92 97.8081 171.24 98.1948 171.654C98.5815 172.054 98.8748 172.54 99.0748 173.114C99.2748 173.687 99.3748 174.314 99.3748 174.994C99.3748 175.22 99.3615 175.434 99.3348 175.634C99.3215 175.834 99.3015 175.994 99.2748 176.114H92.1348C92.2148 176.994 92.5615 177.674 93.1748 178.154C93.7881 178.62 94.5415 178.854 95.4348 178.854C95.9415 178.854 96.4148 178.787 96.8548 178.654C97.2948 178.507 97.7415 178.307 98.1948 178.054L98.9748 179.494C98.4415 179.827 97.8481 180.1 97.1948 180.314C96.5415 180.527 95.8548 180.634 95.1348 180.634C94.3881 180.634 93.6881 180.52 93.0348 180.294C92.3815 180.054 91.8148 179.714 91.3348 179.274C90.8548 178.834 90.4748 178.3 90.1948 177.674C89.9148 177.034 89.7748 176.307 89.7748 175.494ZM97.2548 174.554C97.2548 173.794 97.0548 173.2 96.6548 172.774C96.2548 172.334 95.6615 172.114 94.8748 172.114C94.2081 172.114 93.6148 172.32 93.0948 172.734C92.5748 173.147 92.2481 173.754 92.1148 174.554H97.2548ZM102.847 177.654C103.407 178.04 103.987 178.347 104.587 178.574C105.2 178.787 105.887 178.894 106.647 178.894C107.42 178.894 107.987 178.787 108.347 178.574C108.707 178.347 108.887 178.06 108.887 177.714C108.887 177.367 108.654 177.08 108.187 176.854C107.72 176.614 106.987 176.36 105.987 176.094C105.52 175.974 105.067 175.827 104.627 175.654C104.187 175.48 103.8 175.28 103.467 175.054C103.134 174.827 102.867 174.567 102.667 174.274C102.467 173.98 102.367 173.647 102.367 173.274C102.367 172.407 102.74 171.7 103.487 171.154C104.234 170.607 105.307 170.334 106.707 170.334C107.507 170.334 108.26 170.467 108.967 170.734C109.674 171 110.28 171.3 110.787 171.634L109.727 173.054C109.287 172.76 108.814 172.527 108.307 172.354C107.814 172.167 107.287 172.074 106.727 172.074C105.967 172.074 105.434 172.18 105.127 172.394C104.82 172.594 104.667 172.847 104.667 173.154C104.667 173.327 104.734 173.487 104.867 173.634C105.014 173.767 105.207 173.894 105.447 174.014C105.7 174.12 105.994 174.227 106.327 174.334C106.66 174.44 107.027 174.54 107.427 174.634C108 174.78 108.514 174.947 108.967 175.134C109.434 175.307 109.827 175.507 110.147 175.734C110.48 175.96 110.734 176.227 110.907 176.534C111.094 176.84 111.187 177.194 111.187 177.594C111.187 178.02 111.087 178.42 110.887 178.794C110.687 179.154 110.394 179.474 110.007 179.754C109.62 180.02 109.14 180.234 108.567 180.394C107.994 180.554 107.334 180.634 106.587 180.634C105.667 180.634 104.787 180.487 103.947 180.194C103.107 179.9 102.38 179.54 101.767 179.114L102.847 177.654ZM123.319 181.634V183.434H113.719V181.634H123.319ZM128.311 172.394H125.691V170.674L128.411 170.574L128.711 167.894H130.611V170.574H135.091V172.394H130.611V176.434C130.611 177.247 130.778 177.847 131.111 178.234C131.445 178.607 132.031 178.794 132.871 178.794C133.298 178.794 133.685 178.76 134.031 178.694C134.378 178.614 134.711 178.514 135.031 178.394L135.471 180.074C135.031 180.22 134.545 180.347 134.011 180.454C133.478 180.574 132.911 180.634 132.311 180.634C131.565 180.634 130.938 180.534 130.431 180.334C129.925 180.134 129.511 179.854 129.191 179.494C128.885 179.12 128.658 178.674 128.511 178.154C128.378 177.634 128.311 177.06 128.311 176.434V172.394ZM137.744 175.494C137.744 174.694 137.884 173.974 138.164 173.334C138.457 172.694 138.837 172.154 139.304 171.714C139.77 171.26 140.304 170.92 140.904 170.694C141.517 170.454 142.144 170.334 142.784 170.334C143.517 170.334 144.164 170.454 144.724 170.694C145.297 170.92 145.777 171.24 146.164 171.654C146.55 172.054 146.844 172.54 147.044 173.114C147.244 173.687 147.344 174.314 147.344 174.994C147.344 175.22 147.33 175.434 147.304 175.634C147.29 175.834 147.27 175.994 147.244 176.114H140.104C140.184 176.994 140.53 177.674 141.144 178.154C141.757 178.62 142.51 178.854 143.404 178.854C143.91 178.854 144.384 178.787 144.824 178.654C145.264 178.507 145.71 178.307 146.164 178.054L146.944 179.494C146.41 179.827 145.817 180.1 145.164 180.314C144.51 180.527 143.824 180.634 143.104 180.634C142.357 180.634 141.657 180.52 141.004 180.294C140.35 180.054 139.784 179.714 139.304 179.274C138.824 178.834 138.444 178.3 138.164 177.674C137.884 177.034 137.744 176.307 137.744 175.494ZM145.224 174.554C145.224 173.794 145.024 173.2 144.624 172.774C144.224 172.334 143.63 172.114 142.844 172.114C142.177 172.114 141.584 172.32 141.064 172.734C140.544 173.147 140.217 173.754 140.084 174.554H145.224ZM150.136 170.574H152.036L152.216 172.054H152.296C152.762 171.587 153.276 171.187 153.836 170.854C154.409 170.507 155.076 170.334 155.836 170.334C156.969 170.334 157.802 170.68 158.336 171.374C158.869 172.054 159.136 173.034 159.136 174.314V180.394H156.816V174.614C156.816 173.814 156.676 173.234 156.396 172.874C156.129 172.5 155.656 172.314 154.976 172.314C154.496 172.314 154.069 172.427 153.696 172.654C153.322 172.88 152.909 173.227 152.456 173.694V180.394H150.136V170.574Z" fill="#009E73"/>
<path d="M174.04 170.714H182.92V172.394H174.04V170.714ZM174.04 175.174H182.92V176.854H174.04V175.174ZM200.724 166.234H206.444V167.494H202.504V182.174H206.444V183.434H200.724V166.234ZM454.26 182.174V167.494H450.34V166.234H456.06V183.434H450.34V182.174H454.26Z" fill="#2E383C"/>
<path d="M210.137 170.574H216.697V180.394H214.397V172.394H210.137V170.574ZM215.377 168.854C214.91 168.854 214.517 168.714 214.197 168.434C213.89 168.154 213.737 167.78 213.737 167.314C213.737 166.847 213.89 166.474 214.197 166.194C214.517 165.9 214.91 165.754 215.377 165.754C215.857 165.754 216.25 165.9 216.557 166.194C216.863 166.474 217.017 166.847 217.017 167.314C217.017 167.78 216.863 168.154 216.557 168.434C216.25 168.714 215.857 168.854 215.377 168.854ZM235.021 177.634L237.081 174.414L233.921 173.034L234.301 171.854L237.601 172.834L237.801 169.174H239.081L239.281 172.834L242.581 171.854L242.961 173.034L239.801 174.414L241.861 177.634L240.801 178.374L238.441 175.374L236.081 178.374L235.021 177.634ZM267.085 178.514V180.394H258.225V178.514H261.665V170.154H259.005V168.714C259.725 168.594 260.339 168.454 260.845 168.294C261.365 168.12 261.845 167.914 262.285 167.674H263.965V178.514H267.085ZM274.418 180.634C272.964 180.634 271.811 180.06 270.958 178.914C270.118 177.767 269.698 176.12 269.698 173.974C269.698 171.814 270.118 170.187 270.958 169.094C271.811 167.987 272.964 167.434 274.418 167.434C275.871 167.434 277.018 167.987 277.858 169.094C278.711 170.187 279.138 171.814 279.138 173.974C279.138 176.12 278.711 177.767 277.858 178.914C277.018 180.06 275.871 180.634 274.418 180.634ZM274.418 169.234C274.031 169.234 273.678 169.32 273.358 169.494C273.038 169.654 272.758 169.92 272.518 170.294C272.291 170.667 272.111 171.16 271.978 171.774C271.844 172.374 271.778 173.107 271.778 173.974C271.778 174.84 271.844 175.587 271.978 176.214C272.111 176.827 272.291 177.327 272.518 177.714C272.758 178.1 273.038 178.387 273.358 178.574C273.678 178.747 274.031 178.834 274.418 178.834C274.791 178.834 275.138 178.747 275.458 178.574C275.791 178.387 276.071 178.1 276.298 177.714C276.538 177.327 276.724 176.827 276.858 176.214C276.991 175.587 277.058 174.84 277.058 173.974C277.058 173.107 276.991 172.374 276.858 171.774C276.724 171.16 276.538 170.667 276.298 170.294C276.071 169.92 275.791 169.654 275.458 169.494C275.138 169.32 274.791 169.234 274.418 169.234ZM274.418 175.314C274.031 175.314 273.704 175.187 273.438 174.934C273.171 174.68 273.038 174.334 273.038 173.894C273.038 173.454 273.171 173.107 273.438 172.854C273.704 172.6 274.031 172.474 274.418 172.474C274.804 172.474 275.131 172.6 275.398 172.854C275.664 173.107 275.798 173.454 275.798 173.894C275.798 174.334 275.664 174.68 275.398 174.934C275.131 175.187 274.804 175.314 274.418 175.314Z" fill="#EB5757"/>
<path d="M303.562 168.274C303.202 168.127 302.849 168.02 302.502 167.954C302.169 167.887 301.802 167.854 301.402 167.854C300.642 167.854 300.089 168.04 299.742 168.414C299.409 168.774 299.242 169.3 299.242 169.994V170.574H302.982V172.394H299.242V180.394H296.962V172.394H294.242V170.674L296.962 170.574V170.034C296.962 169.46 297.042 168.927 297.202 168.434C297.362 167.94 297.609 167.52 297.942 167.174C298.289 166.814 298.722 166.534 299.242 166.334C299.775 166.134 300.402 166.034 301.122 166.034C301.655 166.034 302.162 166.08 302.642 166.174C303.135 166.267 303.602 166.4 304.042 166.574L303.562 168.274ZM305.454 175.494C305.454 174.68 305.587 173.954 305.854 173.314C306.134 172.674 306.501 172.134 306.954 171.694C307.407 171.254 307.934 170.92 308.534 170.694C309.134 170.454 309.754 170.334 310.394 170.334C311.034 170.334 311.654 170.454 312.254 170.694C312.854 170.92 313.381 171.254 313.834 171.694C314.287 172.134 314.647 172.674 314.914 173.314C315.194 173.954 315.334 174.68 315.334 175.494C315.334 176.307 315.194 177.034 314.914 177.674C314.647 178.314 314.287 178.854 313.834 179.294C313.381 179.734 312.854 180.067 312.254 180.294C311.654 180.52 311.034 180.634 310.394 180.634C309.754 180.634 309.134 180.52 308.534 180.294C307.934 180.067 307.407 179.734 306.954 179.294C306.501 178.854 306.134 178.314 305.854 177.674C305.587 177.034 305.454 176.307 305.454 175.494ZM307.834 175.494C307.834 176.48 308.061 177.274 308.514 177.874C308.967 178.46 309.594 178.754 310.394 178.754C311.194 178.754 311.821 178.46 312.274 177.874C312.727 177.274 312.954 176.48 312.954 175.494C312.954 174.494 312.727 173.7 312.274 173.114C311.821 172.514 311.194 172.214 310.394 172.214C309.594 172.214 308.967 172.514 308.514 173.114C308.061 173.7 307.834 174.494 307.834 175.494ZM318.986 170.574H320.886L321.086 172.794H321.146C321.653 171.994 322.26 171.387 322.966 170.974C323.686 170.547 324.473 170.334 325.326 170.334C325.726 170.334 326.066 170.367 326.346 170.434C326.64 170.487 326.933 170.587 327.226 170.734L326.746 172.674C326.426 172.567 326.14 172.494 325.886 172.454C325.646 172.4 325.34 172.374 324.966 172.374C324.286 172.374 323.633 172.567 323.006 172.954C322.38 173.34 321.813 174.014 321.306 174.974V180.394H318.986V170.574ZM342.051 170.574H348.611V180.394H346.311V172.394H342.051V170.574ZM347.291 168.854C346.824 168.854 346.431 168.714 346.111 168.434C345.804 168.154 345.651 167.78 345.651 167.314C345.651 166.847 345.804 166.474 346.111 166.194C346.431 165.9 346.824 165.754 347.291 165.754C347.771 165.754 348.164 165.9 348.471 166.194C348.777 166.474 348.931 166.847 348.931 167.314C348.931 167.78 348.777 168.154 348.471 168.434C348.164 168.714 347.771 168.854 347.291 168.854ZM366.035 170.574H372.595V180.394H370.295V172.394H366.035V170.574ZM371.275 168.854C370.808 168.854 370.415 168.714 370.095 168.434C369.788 168.154 369.635 167.78 369.635 167.314C369.635 166.847 369.788 166.474 370.095 166.194C370.415 165.9 370.808 165.754 371.275 165.754C371.755 165.754 372.148 165.9 372.455 166.194C372.762 166.474 372.915 166.847 372.915 167.314C372.915 167.78 372.762 168.154 372.455 168.434C372.148 168.714 371.755 168.854 371.275 168.854ZM377.987 170.574H379.887L380.067 172.054H380.147C380.614 171.587 381.127 171.187 381.687 170.854C382.261 170.507 382.927 170.334 383.687 170.334C384.821 170.334 385.654 170.68 386.187 171.374C386.721 172.054 386.987 173.034 386.987 174.314V180.394H384.667V174.614C384.667 173.814 384.527 173.234 384.247 172.874C383.981 172.5 383.507 172.314 382.827 172.314C382.347 172.314 381.921 172.427 381.547 172.654C381.174 172.88 380.761 173.227 380.307 173.694V180.394H377.987V170.574ZM402.012 170.574H408.572V180.394H406.272V172.394H402.012V170.574ZM407.252 168.854C406.785 168.854 406.392 168.714 406.072 168.434C405.765 168.154 405.612 167.78 405.612 167.314C405.612 166.847 405.765 166.474 406.072 166.194C406.392 165.9 406.785 165.754 407.252 165.754C407.732 165.754 408.125 165.9 408.432 166.194C408.738 166.474 408.892 166.847 408.892 167.314C408.892 167.78 408.738 168.154 408.432 168.434C408.125 168.714 407.732 168.854 407.252 168.854ZM413.964 170.574H415.864L416.044 172.054H416.124C416.591 171.587 417.104 171.187 417.664 170.854C418.237 170.507 418.904 170.334 419.664 170.334C420.797 170.334 421.631 170.68 422.164 171.374C422.697 172.054 422.964 173.034 422.964 174.314V180.394H420.644V174.614C420.644 173.814 420.504 173.234 420.224 172.874C419.957 172.5 419.484 172.314 418.804 172.314C418.324 172.314 417.897 172.427 417.524 172.654C417.151 172.88 416.737 173.227 416.284 173.694V180.394H413.964V170.574ZM428.116 172.394H425.496V170.674L428.216 170.574L428.516 167.894H430.416V170.574H434.896V172.394H430.416V176.434C430.416 177.247 430.583 177.847 430.916 178.234C431.249 178.607 431.836 178.794 432.676 178.794C433.103 178.794 433.489 178.76 433.836 178.694C434.183 178.614 434.516 178.514 434.836 178.394L435.276 180.074C434.836 180.22 434.349 180.347 433.816 180.454C433.283 180.574 432.716 180.634 432.116 180.634C431.369 180.634 430.743 180.534 430.236 180.334C429.729 180.134 429.316 179.854 428.996 179.494C428.689 179.12 428.463 178.674 428.316 178.154C428.183 177.634 428.116 177.06 428.116 176.434V172.394ZM438.628 177.654C439.188 178.04 439.768 178.347 440.368 178.574C440.982 178.787 441.668 178.894 442.428 178.894C443.202 178.894 443.768 178.787 444.128 178.574C444.488 178.347 444.668 178.06 444.668 177.714C444.668 177.367 444.435 177.08 443.968 176.854C443.502 176.614 442.768 176.36 441.768 176.094C441.302 175.974 440.848 175.827 440.408 175.654C439.968 175.48 439.582 175.28 439.248 175.054C438.915 174.827 438.648 174.567 438.448 174.274C438.248 173.98 438.148 173.647 438.148 173.274C438.148 172.407 438.522 171.7 439.268 171.154C440.015 170.607 441.088 170.334 442.488 170.334C443.288 170.334 444.042 170.467 444.748 170.734C445.455 171 446.062 171.3 446.568 171.634L445.508 173.054C445.068 172.76 444.595 172.527 444.088 172.354C443.595 172.167 443.068 172.074 442.508 172.074C441.748 172.074 441.215 172.18 440.908 172.394C440.602 172.594 440.448 172.847 440.448 173.154C440.448 173.327 440.515 173.487 440.648 173.634C440.795 173.767 440.988 173.894 441.228 174.014C441.482 174.12 441.775 174.227 442.108 174.334C442.442 174.44 442.808 174.54 443.208 174.634C443.782 174.78 444.295 174.947 444.748 175.134C445.215 175.307 445.608 175.507 445.928 175.734C446.262 175.96 446.515 176.227 446.688 176.534C446.875 176.84 446.968 177.194 446.968 177.594C446.968 178.02 446.868 178.42 446.668 178.794C446.468 179.154 446.175 179.474 445.788 179.754C445.402 180.02 444.922 180.234 444.348 180.394C443.775 180.554 443.115 180.634 442.368 180.634C441.448 180.634 440.568 180.487 439.728 180.194C438.888 179.9 438.162 179.54 437.548 179.114L438.628 177.654Z" fill="#9B51E0"/>
<path d="M45 13H467.517V114H45V13Z" fill="#F1F4F8"/>
<path d="M56.3675 38.0222H53.7475V36.3022L56.4675 36.2022L56.7675 33.5222H58.6675V36.2022H63.1475V38.0222H58.6675V42.0622C58.6675 42.8755 58.8342 43.4755 59.1675 43.8622C59.5008 44.2355 60.0875 44.4222 60.9275 44.4222C61.3542 44.4222 61.7408 44.3888 62.0875 44.3222C62.4342 44.2422 62.7675 44.1422 63.0875 44.0222L63.5275 45.7022C63.0875 45.8488 62.6008 45.9755 62.0675 46.0822C61.5342 46.2022 60.9675 46.2622 60.3675 46.2622C59.6208 46.2622 58.9942 46.1622 58.4875 45.9622C57.9808 45.7622 57.5675 45.4822 57.2475 45.1222C56.9408 44.7488 56.7142 44.3022 56.5675 43.7822C56.4342 43.2622 56.3675 42.6888 56.3675 42.0622V38.0222ZM66.2397 36.2022H72.7997V46.0222H70.4997V38.0222H66.2397V36.2022ZM71.4797 34.4822C71.013 34.4822 70.6197 34.3422 70.2997 34.0622C69.993 33.7822 69.8397 33.4088 69.8397 32.9422C69.8397 32.4755 69.993 32.1022 70.2997 31.8222C70.6197 31.5288 71.013 31.3822 71.4797 31.3822C71.9597 31.3822 72.353 31.5288 72.6597 31.8222C72.9664 32.1022 73.1197 32.4755 73.1197 32.9422C73.1197 33.4088 72.9664 33.7822 72.6597 34.0622C72.353 34.3422 71.9597 34.4822 71.4797 34.4822ZM77.5119 36.2022H79.2519L79.4319 37.4622H79.4919C79.7185 37.0355 79.9919 36.6822 80.3119 36.4022C80.6452 36.1088 81.0919 35.9622 81.6519 35.9622C82.6119 35.9622 83.2119 36.5088 83.4519 37.6022C83.6785 37.1355 83.9652 36.7488 84.3119 36.4422C84.6719 36.1222 85.1252 35.9622 85.6719 35.9622C86.3652 35.9622 86.8985 36.2355 87.2719 36.7822C87.6585 37.3155 87.8519 38.0755 87.8519 39.0622V46.0222H85.6719V39.2422C85.6719 38.3755 85.3985 37.9422 84.8519 37.9422C84.5852 37.9422 84.3519 38.0422 84.1519 38.2422C83.9519 38.4422 83.7585 38.7488 83.5719 39.1622V46.0222H81.7719V39.2422C81.7719 38.3755 81.4919 37.9422 80.9319 37.9422C80.6652 37.9422 80.4385 38.0422 80.2519 38.2422C80.0652 38.4422 79.8785 38.7488 79.6919 39.1622V46.0222H77.5119V36.2022ZM89.7841 41.1222C89.7841 40.3222 89.9241 39.6022 90.2041 38.9622C90.4974 38.3222 90.8774 37.7822 91.3441 37.3422C91.8107 36.8888 92.3441 36.5488 92.9441 36.3222C93.5574 36.0822 94.1841 35.9622 94.8241 35.9622C95.5574 35.9622 96.2041 36.0822 96.7641 36.3222C97.3374 36.5488 97.8174 36.8688 98.2041 37.2822C98.5907 37.6822 98.8841 38.1688 99.0841 38.7422C99.2841 39.3155 99.3841 39.9422 99.3841 40.6222C99.3841 40.8488 99.3707 41.0622 99.3441 41.2622C99.3307 41.4622 99.3107 41.6222 99.2841 41.7422H92.1441C92.2241 42.6222 92.5707 43.3022 93.1841 43.7822C93.7974 44.2488 94.5507 44.4822 95.4441 44.4822C95.9507 44.4822 96.4241 44.4155 96.8641 44.2822C97.3041 44.1355 97.7507 43.9355 98.2041 43.6822L98.9841 45.1222C98.4507 45.4555 97.8574 45.7288 97.2041 45.9422C96.5507 46.1555 95.8641 46.2622 95.1441 46.2622C94.3974 46.2622 93.6974 46.1488 93.0441 45.9222C92.3907 45.6822 91.8241 45.3422 91.3441 44.9022C90.8641 44.4622 90.4841 43.9288 90.2041 43.3022C89.9241 42.6622 89.7841 41.9355 89.7841 41.1222ZM97.2641 40.1822C97.2641 39.4222 97.0641 38.8288 96.6641 38.4022C96.2641 37.9622 95.6707 37.7422 94.8841 37.7422C94.2174 37.7422 93.6241 37.9488 93.1041 38.3622C92.5841 38.7755 92.2574 39.3822 92.1241 40.1822H97.2641ZM102.856 43.2822C103.416 43.6688 103.996 43.9755 104.596 44.2022C105.21 44.4155 105.896 44.5222 106.656 44.5222C107.43 44.5222 107.996 44.4155 108.356 44.2022C108.716 43.9755 108.896 43.6888 108.896 43.3422C108.896 42.9955 108.663 42.7088 108.196 42.4822C107.73 42.2422 106.996 41.9888 105.996 41.7222C105.53 41.6022 105.076 41.4555 104.636 41.2822C104.196 41.1088 103.81 40.9088 103.476 40.6822C103.143 40.4555 102.876 40.1955 102.676 39.9022C102.476 39.6088 102.376 39.2755 102.376 38.9022C102.376 38.0355 102.75 37.3288 103.496 36.7822C104.243 36.2355 105.316 35.9622 106.716 35.9622C107.516 35.9622 108.27 36.0955 108.976 36.3622C109.683 36.6288 110.29 36.9288 110.796 37.2622L109.736 38.6822C109.296 38.3888 108.823 38.1555 108.316 37.9822C107.823 37.7955 107.296 37.7022 106.736 37.7022C105.976 37.7022 105.443 37.8088 105.136 38.0222C104.83 38.2222 104.676 38.4755 104.676 38.7822C104.676 38.9555 104.743 39.1155 104.876 39.2622C105.023 39.3955 105.216 39.5222 105.456 39.6422C105.71 39.7488 106.003 39.8555 106.336 39.9622C106.67 40.0688 107.036 40.1688 107.436 40.2622C108.01 40.4088 108.523 40.5755 108.976 40.7622C109.443 40.9355 109.836 41.1355 110.156 41.3622C110.49 41.5888 110.743 41.8555 110.916 42.1622C111.103 42.4688 111.196 42.8222 111.196 43.2222C111.196 43.6488 111.096 44.0488 110.896 44.4222C110.696 44.7822 110.403 45.1022 110.016 45.3822C109.63 45.6488 109.15 45.8622 108.576 46.0222C108.003 46.1822 107.343 46.2622 106.596 46.2622C105.676 46.2622 104.796 46.1155 103.956 45.8222C103.116 45.5288 102.39 45.1688 101.776 44.7422L102.856 43.2822ZM123.328 47.2622V49.0622H113.728V47.2622H123.328ZM128.321 38.0222H125.701V36.3022L128.421 36.2022L128.721 33.5222H130.621V36.2022H135.101V38.0222H130.621V42.0622C130.621 42.8755 130.787 43.4755 131.121 43.8622C131.454 44.2355 132.041 44.4222 132.881 44.4222C133.307 44.4222 133.694 44.3888 134.041 44.3222C134.387 44.2422 134.721 44.1422 135.041 44.0222L135.481 45.7022C135.041 45.8488 134.554 45.9755 134.021 46.0822C133.487 46.2022 132.921 46.2622 132.321 46.2622C131.574 46.2622 130.947 46.1622 130.441 45.9622C129.934 45.7622 129.521 45.4822 129.201 45.1222C128.894 44.7488 128.667 44.3022 128.521 43.7822C128.387 43.2622 128.321 42.6888 128.321 42.0622V38.0222ZM137.753 41.1222C137.753 40.3222 137.893 39.6022 138.173 38.9622C138.466 38.3222 138.846 37.7822 139.313 37.3422C139.779 36.8888 140.313 36.5488 140.913 36.3222C141.526 36.0822 142.153 35.9622 142.793 35.9622C143.526 35.9622 144.173 36.0822 144.733 36.3222C145.306 36.5488 145.786 36.8688 146.173 37.2822C146.559 37.6822 146.853 38.1688 147.053 38.7422C147.253 39.3155 147.353 39.9422 147.353 40.6222C147.353 40.8488 147.339 41.0622 147.313 41.2622C147.299 41.4622 147.279 41.6222 147.253 41.7422H140.113C140.193 42.6222 140.539 43.3022 141.153 43.7822C141.766 44.2488 142.519 44.4822 143.413 44.4822C143.919 44.4822 144.393 44.4155 144.833 44.2822C145.273 44.1355 145.719 43.9355 146.173 43.6822L146.953 45.1222C146.419 45.4555 145.826 45.7288 145.173 45.9422C144.519 46.1555 143.833 46.2622 143.113 46.2622C142.366 46.2622 141.666 46.1488 141.013 45.9222C140.359 45.6822 139.793 45.3422 139.313 44.9022C138.833 44.4622 138.453 43.9288 138.173 43.3022C137.893 42.6622 137.753 41.9355 137.753 41.1222ZM145.233 40.1822C145.233 39.4222 145.033 38.8288 144.633 38.4022C144.233 37.9622 143.639 37.7422 142.853 37.7422C142.186 37.7422 141.593 37.9488 141.073 38.3622C140.553 38.7755 140.226 39.3822 140.093 40.1822H145.233ZM150.145 36.2022H152.045L152.225 37.6822H152.305C152.772 37.2155 153.285 36.8155 153.845 36.4822C154.418 36.1355 155.085 35.9622 155.845 35.9622C156.978 35.9622 157.812 36.3088 158.345 37.0022C158.878 37.6822 159.145 38.6622 159.145 39.9422V46.0222H156.825V40.2422C156.825 39.4422 156.685 38.8622 156.405 38.5022C156.138 38.1288 155.665 37.9422 154.985 37.9422C154.505 37.9422 154.078 38.0555 153.705 38.2822C153.332 38.5088 152.918 38.8555 152.465 39.3222V46.0222H150.145V36.2022Z" fill="#009E73"/>
<path d="M174.049 36.3422H182.929V38.0222H174.049V36.3422ZM174.049 40.8022H182.929V42.4822H174.049V40.8022ZM200.734 31.8622H206.454V33.1222H202.514V47.8022H206.454V49.0622H200.734V31.8622ZM214.426 47.8022V33.1222H210.506V31.8622H216.226V49.0622H210.506V47.8022H214.426ZM212.486 62.4422C212.486 61.8555 212.673 61.3755 213.046 61.0022C213.419 60.6155 213.893 60.4222 214.466 60.4222C215.039 60.4222 215.513 60.6155 215.886 61.0022C216.259 61.3755 216.446 61.8555 216.446 62.4422C216.446 63.0288 216.259 63.5155 215.886 63.9022C215.513 64.2755 215.039 64.4622 214.466 64.4622C213.893 64.4622 213.419 64.2755 213.046 63.9022C212.673 63.5155 212.486 63.0288 212.486 62.4422ZM212.486 69.2422C212.486 68.6555 212.673 68.1755 213.046 67.8022C213.419 67.4155 213.893 67.2222 214.466 67.2222C215.039 67.2222 215.513 67.4155 215.886 67.8022C216.259 68.1755 216.446 68.6555 216.446 69.2422C216.446 69.8288 216.259 70.3155 215.886 70.7022C215.513 71.0755 215.039 71.2622 214.466 71.2622C213.893 71.2622 213.419 71.0755 213.046 70.7022C212.673 70.3155 212.486 69.8288 212.486 69.2422ZM104.336 88.0222H101.716V86.3022L104.436 86.2022L104.736 83.5222H106.636V86.2022H111.116V88.0222H106.636V92.0622C106.636 92.8755 106.803 93.4755 107.136 93.8622C107.47 94.2355 108.056 94.4222 108.896 94.4222C109.323 94.4222 109.71 94.3888 110.056 94.3222C110.403 94.2422 110.736 94.1422 111.056 94.0222L111.496 95.7022C111.056 95.8488 110.57 95.9755 110.036 96.0822C109.503 96.2022 108.936 96.2622 108.336 96.2622C107.59 96.2622 106.963 96.1622 106.456 95.9622C105.95 95.7622 105.536 95.4822 105.216 95.1222C104.91 94.7488 104.683 94.3022 104.536 93.7822C104.403 93.2622 104.336 92.6888 104.336 92.0622V88.0222ZM114.208 86.2022H120.768V96.0222H118.468V88.0222H114.208V86.2022ZM119.448 84.4822C118.982 84.4822 118.588 84.3422 118.268 84.0622C117.962 83.7822 117.808 83.4088 117.808 82.9422C117.808 82.4755 117.962 82.1022 118.268 81.8222C118.588 81.5288 118.982 81.3822 119.448 81.3822C119.928 81.3822 120.322 81.5288 120.628 81.8222C120.935 82.1022 121.088 82.4755 121.088 82.9422C121.088 83.4088 120.935 83.7822 120.628 84.0622C120.322 84.3422 119.928 84.4822 119.448 84.4822ZM125.481 86.2022H127.221L127.401 87.4622H127.461C127.687 87.0355 127.961 86.6822 128.281 86.4022C128.614 86.1088 129.061 85.9622 129.621 85.9622C130.581 85.9622 131.181 86.5088 131.421 87.6022C131.647 87.1355 131.934 86.7488 132.281 86.4422C132.641 86.1222 133.094 85.9622 133.641 85.9622C134.334 85.9622 134.867 86.2355 135.241 86.7822C135.627 87.3155 135.821 88.0755 135.821 89.0622V96.0222H133.641V89.2422C133.641 88.3755 133.367 87.9422 132.821 87.9422C132.554 87.9422 132.321 88.0422 132.121 88.2422C131.921 88.4422 131.727 88.7488 131.541 89.1622V96.0222H129.741V89.2422C129.741 88.3755 129.461 87.9422 128.901 87.9422C128.634 87.9422 128.407 88.0422 128.221 88.2422C128.034 88.4422 127.847 88.7488 127.661 89.1622V96.0222H125.481V86.2022ZM137.753 91.1222C137.753 90.3222 137.893 89.6022 138.173 88.9622C138.466 88.3222 138.846 87.7822 139.313 87.3422C139.779 86.8888 140.313 86.5488 140.913 86.3222C141.526 86.0822 142.153 85.9622 142.793 85.9622C143.526 85.9622 144.173 86.0822 144.733 86.3222C145.306 86.5488 145.786 86.8688 146.173 87.2822C146.559 87.6822 146.853 88.1688 147.053 88.7422C147.253 89.3155 147.353 89.9422 147.353 90.6222C147.353 90.8488 147.339 91.0622 147.313 91.2622C147.299 91.4622 147.279 91.6222 147.253 91.7422H140.113C140.193 92.6222 140.539 93.3022 141.153 93.7822C141.766 94.2488 142.519 94.4822 143.413 94.4822C143.919 94.4822 144.393 94.4155 144.833 94.2822C145.273 94.1355 145.719 93.9355 146.173 93.6822L146.953 95.1222C146.419 95.4555 145.826 95.7288 145.173 95.9422C144.519 96.1555 143.833 96.2622 143.113 96.2622C142.366 96.2622 141.666 96.1488 141.013 95.9222C140.359 95.6822 139.793 95.3422 139.313 94.9022C138.833 94.4622 138.453 93.9288 138.173 93.3022C137.893 92.6622 137.753 91.9355 137.753 91.1222ZM145.233 90.1822C145.233 89.4222 145.033 88.8288 144.633 88.4022C144.233 87.9622 143.639 87.7422 142.853 87.7422C142.186 87.7422 141.593 87.9488 141.073 88.3622C140.553 88.7755 140.226 89.3822 140.093 90.1822H145.233ZM150.825 93.2822C151.385 93.6688 151.965 93.9755 152.565 94.2022C153.178 94.4155 153.865 94.5222 154.625 94.5222C155.398 94.5222 155.965 94.4155 156.325 94.2022C156.685 93.9755 156.865 93.6888 156.865 93.3422C156.865 92.9955 156.632 92.7088 156.165 92.4822C155.698 92.2422 154.965 91.9888 153.965 91.7222C153.498 91.6022 153.045 91.4555 152.605 91.2822C152.165 91.1088 151.778 90.9088 151.445 90.6822C151.112 90.4555 150.845 90.1955 150.645 89.9022C150.445 89.6088 150.345 89.2755 150.345 88.9022C150.345 88.0355 150.718 87.3288 151.465 86.7822C152.212 86.2355 153.285 85.9622 154.685 85.9622C155.485 85.9622 156.238 86.0955 156.945 86.3622C157.652 86.6288 158.258 86.9288 158.765 87.2622L157.705 88.6822C157.265 88.3888 156.792 88.1555 156.285 87.9822C155.792 87.7955 155.265 87.7022 154.705 87.7022C153.945 87.7022 153.412 87.8088 153.105 88.0222C152.798 88.2222 152.645 88.4755 152.645 88.7822C152.645 88.9555 152.712 89.1155 152.845 89.2622C152.992 89.3955 153.185 89.5222 153.425 89.6422C153.678 89.7488 153.972 89.8555 154.305 89.9622C154.638 90.0688 155.005 90.1688 155.405 90.2622C155.978 90.4088 156.492 90.5755 156.945 90.7622C157.412 90.9355 157.805 91.1355 158.125 91.3622C158.458 91.5888 158.712 91.8555 158.885 92.1622C159.072 92.4688 159.165 92.8222 159.165 93.2222C159.165 93.6488 159.065 94.0488 158.865 94.4222C158.665 94.7822 158.372 95.1022 157.985 95.3822C157.598 95.6488 157.118 95.8622 156.545 96.0222C155.972 96.1822 155.312 96.2622 154.565 96.2622C153.645 96.2622 152.765 96.1155 151.925 95.8222C151.085 95.5288 150.358 95.1688 149.745 94.7422L150.825 93.2822ZM171.297 97.2622V99.0622H161.697V97.2622H171.297ZM176.289 88.0222H173.669V86.3022L176.389 86.2022L176.689 83.5222H178.589V86.2022H183.069V88.0222H178.589V92.0622C178.589 92.8755 178.756 93.4755 179.089 93.8622C179.423 94.2355 180.009 94.4222 180.849 94.4222C181.276 94.4222 181.663 94.3888 182.009 94.3222C182.356 94.2422 182.689 94.1422 183.009 94.0222L183.449 95.7022C183.009 95.8488 182.523 95.9755 181.989 96.0822C181.456 96.2022 180.889 96.2622 180.289 96.2622C179.543 96.2622 178.916 96.1622 178.409 95.9622C177.903 95.7622 177.489 95.4822 177.169 95.1222C176.863 94.7488 176.636 94.3022 176.489 93.7822C176.356 93.2622 176.289 92.6888 176.289 92.0622V88.0222ZM185.722 91.1222C185.722 90.3222 185.862 89.6022 186.142 88.9622C186.435 88.3222 186.815 87.7822 187.282 87.3422C187.748 86.8888 188.282 86.5488 188.882 86.3222C189.495 86.0822 190.122 85.9622 190.762 85.9622C191.495 85.9622 192.142 86.0822 192.702 86.3222C193.275 86.5488 193.755 86.8688 194.142 87.2822C194.528 87.6822 194.822 88.1688 195.022 88.7422C195.222 89.3155 195.322 89.9422 195.322 90.6222C195.322 90.8488 195.308 91.0622 195.282 91.2622C195.268 91.4622 195.248 91.6222 195.222 91.7422H188.082C188.162 92.6222 188.508 93.3022 189.122 93.7822C189.735 94.2488 190.488 94.4822 191.382 94.4822C191.888 94.4822 192.362 94.4155 192.802 94.2822C193.242 94.1355 193.688 93.9355 194.142 93.6822L194.922 95.1222C194.388 95.4555 193.795 95.7288 193.142 95.9422C192.488 96.1555 191.802 96.2622 191.082 96.2622C190.335 96.2622 189.635 96.1488 188.982 95.9222C188.328 95.6822 187.762 95.3422 187.282 94.9022C186.802 94.4622 186.422 93.9288 186.142 93.3022C185.862 92.6622 185.722 91.9355 185.722 91.1222ZM193.202 90.1822C193.202 89.4222 193.002 88.8288 192.602 88.4022C192.202 87.9622 191.608 87.7422 190.822 87.7422C190.155 87.7422 189.562 87.9488 189.042 88.3622C188.522 88.7755 188.195 89.3822 188.062 90.1822H193.202ZM198.114 86.2022H200.014L200.194 87.6822H200.274C200.74 87.2155 201.254 86.8155 201.814 86.4822C202.387 86.1355 203.054 85.9622 203.814 85.9622C204.947 85.9622 205.78 86.3088 206.314 87.0022C206.847 87.6822 207.114 88.6622 207.114 89.9422V96.0222H204.794V90.2422C204.794 89.4422 204.654 88.8622 204.374 88.5022C204.107 88.1288 203.634 87.9422 202.954 87.9422C202.474 87.9422 202.047 88.0555 201.674 88.2822C201.3 88.5088 200.887 88.8555 200.434 89.3222V96.0222H198.114V86.2022ZM212.486 94.2422C212.486 93.6555 212.673 93.1755 213.046 92.8022C213.419 92.4155 213.893 92.2222 214.466 92.2222C215.039 92.2222 215.513 92.4155 215.886 92.8022C216.259 93.1755 216.446 93.6555 216.446 94.2422C216.446 94.8288 216.259 95.3155 215.886 95.7022C215.513 96.0755 215.039 96.2622 214.466 96.2622C213.893 96.2622 213.419 96.0755 213.046 95.7022C212.673 95.3155 212.486 94.8288 212.486 94.2422ZM221.878 93.3822C221.878 92.8355 222.005 92.3555 222.258 91.9422C222.511 91.5155 222.911 91.1555 223.458 90.8622C224.005 90.5688 224.705 90.3288 225.558 90.1422C226.411 89.9555 227.445 89.8222 228.658 89.7422C228.618 89.1822 228.418 88.7222 228.058 88.3622C227.698 88.0022 227.118 87.8222 226.318 87.8222C225.758 87.8222 225.205 87.9288 224.658 88.1422C224.125 88.3422 223.605 88.5822 223.098 88.8622L222.258 87.3222C222.858 86.9755 223.545 86.6622 224.318 86.3822C225.091 86.1022 225.898 85.9622 226.738 85.9622C228.111 85.9622 229.158 86.3288 229.878 87.0622C230.598 87.7822 230.958 88.8288 230.958 90.2022V96.0222H229.078L228.898 94.8022H228.838C228.318 95.2022 227.738 95.5488 227.098 95.8422C226.471 96.1222 225.825 96.2622 225.158 96.2622C224.678 96.2622 224.238 96.1888 223.838 96.0422C223.438 95.9088 223.091 95.7155 222.798 95.4622C222.505 95.2088 222.278 94.9088 222.118 94.5622C221.958 94.2022 221.878 93.8088 221.878 93.3822ZM224.098 93.2022C224.098 93.6422 224.265 93.9622 224.598 94.1622C224.945 94.3622 225.365 94.4622 225.858 94.4622C226.351 94.4622 226.825 94.3555 227.278 94.1422C227.745 93.9155 228.205 93.6222 228.658 93.2622V91.1822C227.778 91.2488 227.045 91.3422 226.458 91.4622C225.871 91.5688 225.405 91.7088 225.058 91.8822C224.711 92.0555 224.465 92.2555 224.318 92.4822C224.171 92.6955 224.098 92.9355 224.098 93.2022ZM236.41 96.8222V99.9022H234.09V86.2022H235.99L236.17 87.3222H236.23C236.657 86.9355 237.144 86.6155 237.69 86.3622C238.25 86.0955 238.81 85.9622 239.37 85.9622C240.01 85.9622 240.577 86.0822 241.07 86.3222C241.577 86.5488 241.997 86.8822 242.33 87.3222C242.677 87.7622 242.937 88.2888 243.11 88.9022C243.297 89.5155 243.39 90.2022 243.39 90.9622C243.39 91.8022 243.27 92.5555 243.03 93.2222C242.79 93.8755 242.464 94.4288 242.05 94.8822C241.65 95.3222 241.184 95.6622 240.65 95.9022C240.13 96.1422 239.59 96.2622 239.03 96.2622C238.577 96.2622 238.11 96.1622 237.63 95.9622C237.164 95.7622 236.73 95.4755 236.33 95.1022L236.41 96.8222ZM236.41 93.4622C236.77 93.7955 237.137 94.0288 237.51 94.1622C237.897 94.2955 238.244 94.3622 238.55 94.3622C239.257 94.3622 239.844 94.0822 240.31 93.5222C240.777 92.9488 241.01 92.1022 241.01 90.9822C241.01 89.9955 240.83 89.2288 240.47 88.6822C240.11 88.1355 239.53 87.8622 238.73 87.8622C238.357 87.8622 237.977 87.9555 237.59 88.1422C237.204 88.3288 236.81 88.6288 236.41 89.0422V93.4622ZM248.403 96.8222V99.9022H246.083V86.2022H247.983L248.163 87.3222H248.223C248.649 86.9355 249.136 86.6155 249.683 86.3622C250.243 86.0955 250.803 85.9622 251.363 85.9622C252.003 85.9622 252.569 86.0822 253.063 86.3222C253.569 86.5488 253.989 86.8822 254.323 87.3222C254.669 87.7622 254.929 88.2888 255.103 88.9022C255.289 89.5155 255.383 90.2022 255.383 90.9622C255.383 91.8022 255.263 92.5555 255.023 93.2222C254.783 93.8755 254.456 94.4288 254.043 94.8822C253.643 95.3222 253.176 95.6622 252.643 95.9022C252.123 96.1422 251.583 96.2622 251.023 96.2622C250.569 96.2622 250.103 96.1622 249.623 95.9622C249.156 95.7622 248.723 95.4755 248.323 95.1022L248.403 96.8222ZM248.403 93.4622C248.763 93.7955 249.129 94.0288 249.503 94.1622C249.889 94.2955 250.236 94.3622 250.543 94.3622C251.249 94.3622 251.836 94.0822 252.303 93.5222C252.769 92.9488 253.003 92.1022 253.003 90.9822C253.003 89.9955 252.823 89.2288 252.463 88.6822C252.103 88.1355 251.523 87.8622 250.723 87.8622C250.349 87.8622 249.969 87.9555 249.583 88.1422C249.196 88.3288 248.803 88.6288 248.403 89.0422V93.4622ZM257.675 91.1222C257.675 90.3222 257.815 89.6022 258.095 88.9622C258.388 88.3222 258.768 87.7822 259.235 87.3422C259.701 86.8888 260.235 86.5488 260.835 86.3222C261.448 86.0822 262.075 85.9622 262.715 85.9622C263.448 85.9622 264.095 86.0822 264.655 86.3222C265.228 86.5488 265.708 86.8688 266.095 87.2822C266.481 87.6822 266.775 88.1688 266.975 88.7422C267.175 89.3155 267.275 89.9422 267.275 90.6222C267.275 90.8488 267.261 91.0622 267.235 91.2622C267.221 91.4622 267.201 91.6222 267.175 91.7422H260.035C260.115 92.6222 260.461 93.3022 261.075 93.7822C261.688 94.2488 262.441 94.4822 263.335 94.4822C263.841 94.4822 264.315 94.4155 264.755 94.2822C265.195 94.1355 265.641 93.9355 266.095 93.6822L266.875 95.1222C266.341 95.4555 265.748 95.7288 265.095 95.9422C264.441 96.1555 263.755 96.2622 263.035 96.2622C262.288 96.2622 261.588 96.1488 260.935 95.9222C260.281 95.6822 259.715 95.3422 259.235 94.9022C258.755 94.4622 258.375 93.9288 258.095 93.3022C257.815 92.6622 257.675 91.9355 257.675 91.1222ZM265.155 90.1822C265.155 89.4222 264.955 88.8288 264.555 88.4022C264.155 87.9622 263.561 87.7422 262.775 87.7422C262.108 87.7422 261.515 87.9488 260.995 88.3622C260.475 88.7755 260.148 89.3822 260.015 90.1822H265.155ZM270.067 86.2022H271.967L272.147 87.6822H272.227C272.694 87.2155 273.207 86.8155 273.767 86.4822C274.34 86.1355 275.007 85.9622 275.767 85.9622C276.9 85.9622 277.734 86.3088 278.267 87.0022C278.8 87.6822 279.067 88.6622 279.067 89.9422V96.0222H276.747V90.2422C276.747 89.4422 276.607 88.8622 276.327 88.5022C276.06 88.1288 275.587 87.9422 274.907 87.9422C274.427 87.9422 274 88.0555 273.627 88.2822C273.254 88.5088 272.84 88.8555 272.387 89.3222V96.0222H270.067V86.2022ZM281.479 91.1222C281.479 90.3222 281.599 89.6022 281.839 88.9622C282.079 88.3222 282.399 87.7822 282.799 87.3422C283.212 86.9022 283.679 86.5622 284.199 86.3222C284.719 86.0822 285.259 85.9622 285.819 85.9622C286.406 85.9622 286.906 86.0688 287.319 86.2822C287.746 86.4822 288.159 86.7622 288.559 87.1222L288.459 85.4622V81.9022H290.779V96.0222H288.879L288.699 94.8822H288.639C288.252 95.2688 287.799 95.5955 287.279 95.8622C286.772 96.1288 286.239 96.2622 285.679 96.2622C285.052 96.2622 284.479 96.1488 283.959 95.9222C283.439 95.6822 282.992 95.3422 282.619 94.9022C282.259 94.4622 281.979 93.9288 281.779 93.3022C281.579 92.6622 281.479 91.9355 281.479 91.1222ZM283.859 91.1022C283.859 92.1688 284.066 92.9822 284.479 93.5422C284.892 94.0888 285.479 94.3622 286.239 94.3622C287.052 94.3622 287.792 93.9688 288.459 93.1822V88.7622C288.112 88.4288 287.766 88.1955 287.419 88.0622C287.072 87.9288 286.719 87.8622 286.359 87.8622C286.012 87.8622 285.686 87.9355 285.379 88.0822C285.086 88.2288 284.826 88.4422 284.599 88.7222C284.372 88.9888 284.192 89.3222 284.059 89.7222C283.926 90.1222 283.859 90.5822 283.859 91.1022ZM300.651 99.5622C299.305 98.4422 298.238 97.1222 297.451 95.6022C296.678 94.0822 296.291 92.3688 296.291 90.4622C296.291 88.5555 296.678 86.8422 297.451 85.3222C298.238 83.8022 299.305 82.4822 300.651 81.3622L301.931 82.4222C300.665 83.5688 299.738 84.7888 299.151 86.0822C298.565 87.3755 298.271 88.8355 298.271 90.4622C298.271 92.0888 298.565 93.5488 299.151 94.8422C299.738 96.1355 300.665 97.3555 301.931 98.5022L300.651 99.5622ZM378.837 98.5022C380.103 97.3555 381.03 96.1355 381.617 94.8422C382.203 93.5488 382.497 92.0888 382.497 90.4622C382.497 88.8355 382.203 87.3755 381.617 86.0822C381.03 84.7888 380.103 83.5688 378.837 82.4222L380.117 81.3622C381.463 82.4822 382.523 83.8022 383.297 85.3222C384.083 86.8422 384.477 88.5555 384.477 90.4622C384.477 92.3688 384.083 94.0822 383.297 95.6022C382.523 97.1222 381.463 98.4422 380.117 99.5622L378.837 98.5022Z" fill="#2E383C"/>
<path d="M63.7275 58.9022C63.3675 58.7555 63.0142 58.6488 62.6675 58.5822C62.3342 58.5155 61.9675 58.4822 61.5675 58.4822C60.8075 58.4822 60.2542 58.6688 59.9075 59.0422C59.5742 59.4022 59.4075 59.9288 59.4075 60.6222V61.2022H63.1475V63.0222H59.4075V71.0222H57.1275V63.0222H54.4075V61.3022L57.1275 61.2022V60.6622C57.1275 60.0888 57.2075 59.5555 57.3675 59.0622C57.5275 58.5688 57.7742 58.1488 58.1075 57.8022C58.4542 57.4422 58.8875 57.1622 59.4075 56.9622C59.9408 56.7622 60.5675 56.6622 61.2875 56.6622C61.8208 56.6622 62.3275 56.7088 62.8075 56.8022C63.3008 56.8955 63.7675 57.0288 64.2075 57.2022L63.7275 58.9022ZM65.6197 66.1222C65.6197 65.3088 65.753 64.5822 66.0197 63.9422C66.2997 63.3022 66.6664 62.7622 67.1197 62.3222C67.573 61.8822 68.0997 61.5488 68.6997 61.3222C69.2997 61.0822 69.9197 60.9622 70.5597 60.9622C71.1997 60.9622 71.8197 61.0822 72.4197 61.3222C73.0197 61.5488 73.5464 61.8822 73.9997 62.3222C74.453 62.7622 74.813 63.3022 75.0797 63.9422C75.3597 64.5822 75.4997 65.3088 75.4997 66.1222C75.4997 66.9355 75.3597 67.6622 75.0797 68.3022C74.813 68.9422 74.453 69.4822 73.9997 69.9222C73.5464 70.3622 73.0197 70.6955 72.4197 70.9222C71.8197 71.1488 71.1997 71.2622 70.5597 71.2622C69.9197 71.2622 69.2997 71.1488 68.6997 70.9222C68.0997 70.6955 67.573 70.3622 67.1197 69.9222C66.6664 69.4822 66.2997 68.9422 66.0197 68.3022C65.753 67.6622 65.6197 66.9355 65.6197 66.1222ZM67.9997 66.1222C67.9997 67.1088 68.2264 67.9022 68.6797 68.5022C69.133 69.0888 69.7597 69.3822 70.5597 69.3822C71.3597 69.3822 71.9864 69.0888 72.4397 68.5022C72.893 67.9022 73.1197 67.1088 73.1197 66.1222C73.1197 65.1222 72.893 64.3288 72.4397 63.7422C71.9864 63.1422 71.3597 62.8422 70.5597 62.8422C69.7597 62.8422 69.133 63.1422 68.6797 63.7422C68.2264 64.3288 67.9997 65.1222 67.9997 66.1222ZM79.1519 61.2022H81.0519L81.2519 63.4222H81.3119C81.8185 62.6222 82.4252 62.0155 83.1319 61.6022C83.8519 61.1755 84.6385 60.9622 85.4919 60.9622C85.8919 60.9622 86.2319 60.9955 86.5119 61.0622C86.8052 61.1155 87.0985 61.2155 87.3919 61.3622L86.9119 63.3022C86.5919 63.1955 86.3052 63.1222 86.0519 63.0822C85.8119 63.0288 85.5052 63.0022 85.1319 63.0022C84.4519 63.0022 83.7985 63.1955 83.1719 63.5822C82.5452 63.9688 81.9785 64.6422 81.4719 65.6022V71.0222H79.1519V61.2022ZM102.216 61.2022H108.776V71.0222H106.476V63.0222H102.216V61.2022ZM107.456 59.4822C106.99 59.4822 106.596 59.3422 106.276 59.0622C105.97 58.7822 105.816 58.4088 105.816 57.9422C105.816 57.4755 105.97 57.1022 106.276 56.8222C106.596 56.5288 106.99 56.3822 107.456 56.3822C107.936 56.3822 108.33 56.5288 108.636 56.8222C108.943 57.1022 109.096 57.4755 109.096 57.9422C109.096 58.4088 108.943 58.7822 108.636 59.0622C108.33 59.3422 107.936 59.4822 107.456 59.4822ZM126.201 61.2022H132.761V71.0222H130.461V63.0222H126.201V61.2022ZM131.441 59.4822C130.974 59.4822 130.581 59.3422 130.261 59.0622C129.954 58.7822 129.801 58.4088 129.801 57.9422C129.801 57.4755 129.954 57.1022 130.261 56.8222C130.581 56.5288 130.974 56.3822 131.441 56.3822C131.921 56.3822 132.314 56.5288 132.621 56.8222C132.927 57.1022 133.081 57.4755 133.081 57.9422C133.081 58.4088 132.927 58.7822 132.621 59.0622C132.314 59.3422 131.921 59.4822 131.441 59.4822ZM138.153 61.2022H140.053L140.233 62.6822H140.313C140.779 62.2155 141.293 61.8155 141.853 61.4822C142.426 61.1355 143.093 60.9622 143.853 60.9622C144.986 60.9622 145.819 61.3088 146.353 62.0022C146.886 62.6822 147.153 63.6622 147.153 64.9422V71.0222H144.833V65.2422C144.833 64.4422 144.693 63.8622 144.413 63.5022C144.146 63.1288 143.673 62.9422 142.993 62.9422C142.513 62.9422 142.086 63.0555 141.713 63.2822C141.339 63.5088 140.926 63.8555 140.473 64.3222V71.0222H138.153V61.2022ZM162.177 61.2022H168.737V71.0222H166.437V63.0222H162.177V61.2022ZM167.417 59.4822C166.951 59.4822 166.557 59.3422 166.237 59.0622C165.931 58.7822 165.777 58.4088 165.777 57.9422C165.777 57.4755 165.931 57.1022 166.237 56.8222C166.557 56.5288 166.951 56.3822 167.417 56.3822C167.897 56.3822 168.291 56.5288 168.597 56.8222C168.904 57.1022 169.057 57.4755 169.057 57.9422C169.057 58.4088 168.904 58.7822 168.597 59.0622C168.291 59.3422 167.897 59.4822 167.417 59.4822ZM174.129 61.2022H176.029L176.209 62.6822H176.289C176.756 62.2155 177.269 61.8155 177.829 61.4822C178.403 61.1355 179.069 60.9622 179.829 60.9622C180.963 60.9622 181.796 61.3088 182.329 62.0022C182.863 62.6822 183.129 63.6622 183.129 64.9422V71.0222H180.809V65.2422C180.809 64.4422 180.669 63.8622 180.389 63.5022C180.123 63.1288 179.649 62.9422 178.969 62.9422C178.489 62.9422 178.063 63.0555 177.689 63.2822C177.316 63.5088 176.903 63.8555 176.449 64.3222V71.0222H174.129V61.2022ZM188.282 63.0222H185.662V61.3022L188.382 61.2022L188.682 58.5222H190.582V61.2022H195.062V63.0222H190.582V67.0622C190.582 67.8755 190.748 68.4755 191.082 68.8622C191.415 69.2355 192.002 69.4222 192.842 69.4222C193.268 69.4222 193.655 69.3888 194.002 69.3222C194.348 69.2422 194.682 69.1422 195.002 69.0222L195.442 70.7022C195.002 70.8488 194.515 70.9755 193.982 71.0822C193.448 71.2022 192.882 71.2622 192.282 71.2622C191.535 71.2622 190.908 71.1622 190.402 70.9622C189.895 70.7622 189.482 70.4822 189.162 70.1222C188.855 69.7488 188.628 69.3022 188.482 68.7822C188.348 68.2622 188.282 67.6888 188.282 67.0622V63.0222ZM198.794 68.2822C199.354 68.6688 199.934 68.9755 200.534 69.2022C201.147 69.4155 201.834 69.5222 202.594 69.5222C203.367 69.5222 203.934 69.4155 204.294 69.2022C204.654 68.9755 204.834 68.6888 204.834 68.3422C204.834 67.9955 204.6 67.7088 204.134 67.4822C203.667 67.2422 202.934 66.9888 201.934 66.7222C201.467 66.6022 201.014 66.4555 200.574 66.2822C200.134 66.1088 199.747 65.9088 199.414 65.6822C199.08 65.4555 198.814 65.1955 198.614 64.9022C198.414 64.6088 198.314 64.2755 198.314 63.9022C198.314 63.0355 198.687 62.3288 199.434 61.7822C200.18 61.2355 201.254 60.9622 202.654 60.9622C203.454 60.9622 204.207 61.0955 204.914 61.3622C205.62 61.6288 206.227 61.9288 206.734 62.2622L205.674 63.6822C205.234 63.3888 204.76 63.1555 204.254 62.9822C203.76 62.7955 203.234 62.7022 202.674 62.7022C201.914 62.7022 201.38 62.8088 201.074 63.0222C200.767 63.2222 200.614 63.4755 200.614 63.7822C200.614 63.9555 200.68 64.1155 200.814 64.2622C200.96 64.3955 201.154 64.5222 201.394 64.6422C201.647 64.7488 201.94 64.8555 202.274 64.9622C202.607 65.0688 202.974 65.1688 203.374 65.2622C203.947 65.4088 204.46 65.5755 204.914 65.7622C205.38 65.9355 205.774 66.1355 206.094 66.3622C206.427 66.5888 206.68 66.8555 206.854 67.1622C207.04 67.4688 207.134 67.8222 207.134 68.2222C207.134 68.6488 207.034 69.0488 206.834 69.4222C206.634 69.7822 206.34 70.1022 205.954 70.3822C205.567 70.6488 205.087 70.8622 204.514 71.0222C203.94 71.1822 203.28 71.2622 202.534 71.2622C201.614 71.2622 200.734 71.1155 199.894 70.8222C199.054 70.5288 198.327 70.1688 197.714 69.7422L198.794 68.2822Z" fill="#9B51E0"/>
<path d="M306.083 86.2022H312.643V96.0222H310.343V88.0222H306.083V86.2022ZM311.323 84.4822C310.857 84.4822 310.463 84.3422 310.143 84.0622C309.837 83.7822 309.683 83.4088 309.683 82.9422C309.683 82.4755 309.837 82.1022 310.143 81.8222C310.463 81.5288 310.857 81.3822 311.323 81.3822C311.803 81.3822 312.197 81.5288 312.503 81.8222C312.81 82.1022 312.963 82.4755 312.963 82.9422C312.963 83.4088 312.81 83.7822 312.503 84.0622C312.197 84.3422 311.803 84.4822 311.323 84.4822ZM330.968 93.2622L333.028 90.0422L329.868 88.6622L330.248 87.4822L333.548 88.4622L333.748 84.8022H335.028L335.228 88.4622L338.528 87.4822L338.908 88.6622L335.748 90.0422L337.808 93.2622L336.748 94.0022L334.388 91.0022L332.028 94.0022L330.968 93.2622ZM363.032 94.1422V96.0222H354.172V94.1422H357.612V85.7822H354.952V84.3422C355.672 84.2222 356.286 84.0822 356.792 83.9222C357.312 83.7488 357.792 83.5422 358.232 83.3022H359.912V94.1422H363.032ZM370.364 96.2622C368.911 96.2622 367.758 95.6888 366.904 94.5422C366.064 93.3955 365.644 91.7488 365.644 89.6022C365.644 87.4422 366.064 85.8155 366.904 84.7222C367.758 83.6155 368.911 83.0622 370.364 83.0622C371.818 83.0622 372.964 83.6155 373.804 84.7222C374.658 85.8155 375.084 87.4422 375.084 89.6022C375.084 91.7488 374.658 93.3955 373.804 94.5422C372.964 95.6888 371.818 96.2622 370.364 96.2622ZM370.364 84.8622C369.978 84.8622 369.624 84.9488 369.304 85.1222C368.984 85.2822 368.704 85.5488 368.464 85.9222C368.238 86.2955 368.058 86.7888 367.924 87.4022C367.791 88.0022 367.724 88.7355 367.724 89.6022C367.724 90.4688 367.791 91.2155 367.924 91.8422C368.058 92.4555 368.238 92.9555 368.464 93.3422C368.704 93.7288 368.984 94.0155 369.304 94.2022C369.624 94.3755 369.978 94.4622 370.364 94.4622C370.738 94.4622 371.084 94.3755 371.404 94.2022C371.738 94.0155 372.018 93.7288 372.244 93.3422C372.484 92.9555 372.671 92.4555 372.804 91.8422C372.938 91.2155 373.004 90.4688 373.004 89.6022C373.004 88.7355 372.938 88.0022 372.804 87.4022C372.671 86.7888 372.484 86.2955 372.244 85.9222C372.018 85.5488 371.738 85.2822 371.404 85.1222C371.084 84.9488 370.738 84.8622 370.364 84.8622ZM370.364 90.9422C369.978 90.9422 369.651 90.8155 369.384 90.5622C369.118 90.3088 368.984 89.9622 368.984 89.5222C368.984 89.0822 369.118 88.7355 369.384 88.4822C369.651 88.2288 369.978 88.1022 370.364 88.1022C370.751 88.1022 371.078 88.2288 371.344 88.4822C371.611 88.7355 371.744 89.0822 371.744 89.5222C371.744 89.9622 371.611 90.3088 371.344 90.5622C371.078 90.8155 370.751 90.9422 370.364 90.9422Z" fill="#EB5757"/>
</svg>
