<svg width="511" height="192" viewBox="0 0 511 192" fill="none" xmlns="http://www.w3.org/2000/svg">
<rect width="511" height="192" fill="white"/>
<path d="M31 150H479.451V185H31V150Z" fill="#F1F4F8"/>
<path d="M41.632 164.574H43.532L43.732 166.794H43.792C44.2986 165.994 44.9053 165.387 45.612 164.974C46.332 164.547 47.1186 164.334 47.972 164.334C48.372 164.334 48.712 164.367 48.992 164.434C49.2853 164.487 49.5786 164.587 49.872 164.734L49.392 166.674C49.072 166.567 48.7853 166.494 48.532 166.454C48.292 166.4 47.9853 166.374 47.612 166.374C46.932 166.374 46.2786 166.567 45.652 166.954C45.0253 167.34 44.4586 168.014 43.952 168.974V174.394H41.632V164.574ZM52.0842 169.494C52.0842 168.68 52.2175 167.954 52.4842 167.314C52.7642 166.674 53.1308 166.134 53.5842 165.694C54.0375 165.254 54.5642 164.92 55.1642 164.694C55.7642 164.454 56.3842 164.334 57.0242 164.334C57.6642 164.334 58.2842 164.454 58.8842 164.694C59.4842 164.92 60.0108 165.254 60.4642 165.694C60.9175 166.134 61.2775 166.674 61.5442 167.314C61.8242 167.954 61.9642 168.68 61.9642 169.494C61.9642 170.307 61.8242 171.034 61.5442 171.674C61.2775 172.314 60.9175 172.854 60.4642 173.294C60.0108 173.734 59.4842 174.067 58.8842 174.294C58.2842 174.52 57.6642 174.634 57.0242 174.634C56.3842 174.634 55.7642 174.52 55.1642 174.294C54.5642 174.067 54.0375 173.734 53.5842 173.294C53.1308 172.854 52.7642 172.314 52.4842 171.674C52.2175 171.034 52.0842 170.307 52.0842 169.494ZM54.4642 169.494C54.4642 170.48 54.6908 171.274 55.1442 171.874C55.5975 172.46 56.2242 172.754 57.0242 172.754C57.8242 172.754 58.4508 172.46 58.9042 171.874C59.3575 171.274 59.5842 170.48 59.5842 169.494C59.5842 168.494 59.3575 167.7 58.9042 167.114C58.4508 166.514 57.8242 166.214 57.0242 166.214C56.2242 166.214 55.5975 166.514 55.1442 167.114C54.6908 167.7 54.4642 168.494 54.4642 169.494ZM73.3164 174.394H71.4364L71.2564 172.834H71.1764C70.7097 173.38 70.1964 173.82 69.6364 174.154C69.0764 174.474 68.4297 174.634 67.6964 174.634C66.5497 174.634 65.7164 174.294 65.1964 173.614C64.6764 172.92 64.4164 171.934 64.4164 170.654V164.574H66.7164V170.354C66.7164 171.154 66.8497 171.74 67.1164 172.114C67.3964 172.474 67.8764 172.654 68.5564 172.654C69.023 172.654 69.4364 172.547 69.7964 172.334C70.1697 172.12 70.5764 171.74 71.0164 171.194V164.574H73.3164V174.394ZM76.6485 164.574H78.5485L78.7285 166.054H78.8085C79.2752 165.587 79.7885 165.187 80.3485 164.854C80.9219 164.507 81.5885 164.334 82.3485 164.334C83.4819 164.334 84.3152 164.68 84.8485 165.374C85.3819 166.054 85.6485 167.034 85.6485 168.314V174.394H83.3285V168.614C83.3285 167.814 83.1885 167.234 82.9085 166.874C82.6419 166.5 82.1685 166.314 81.4885 166.314C81.0085 166.314 80.5819 166.427 80.2085 166.654C79.8352 166.88 79.4219 167.227 78.9685 167.694V174.394H76.6485V164.574ZM88.0607 169.494C88.0607 168.694 88.1807 167.974 88.4207 167.334C88.6607 166.694 88.9807 166.154 89.3807 165.714C89.7941 165.274 90.2607 164.934 90.7807 164.694C91.3007 164.454 91.8407 164.334 92.4007 164.334C92.9874 164.334 93.4874 164.44 93.9007 164.654C94.3274 164.854 94.7407 165.134 95.1407 165.494L95.0407 163.834V160.274H97.3607V174.394H95.4607L95.2807 173.254H95.2207C94.8341 173.64 94.3807 173.967 93.8607 174.234C93.3541 174.5 92.8207 174.634 92.2607 174.634C91.6341 174.634 91.0607 174.52 90.5407 174.294C90.0207 174.054 89.5741 173.714 89.2007 173.274C88.8407 172.834 88.5607 172.3 88.3607 171.674C88.1607 171.034 88.0607 170.307 88.0607 169.494ZM90.4407 169.474C90.4407 170.54 90.6474 171.354 91.0607 171.914C91.4741 172.46 92.0607 172.734 92.8207 172.734C93.6341 172.734 94.3741 172.34 95.0407 171.554V167.134C94.6941 166.8 94.3474 166.567 94.0007 166.434C93.6541 166.3 93.3007 166.234 92.9407 166.234C92.5941 166.234 92.2674 166.307 91.9607 166.454C91.6674 166.6 91.4074 166.814 91.1807 167.094C90.9541 167.36 90.7741 167.694 90.6407 168.094C90.5074 168.494 90.4407 168.954 90.4407 169.474ZM100.233 169.494C100.233 168.694 100.373 167.974 100.653 167.334C100.946 166.694 101.326 166.154 101.793 165.714C102.26 165.26 102.793 164.92 103.393 164.694C104.006 164.454 104.633 164.334 105.273 164.334C106.006 164.334 106.653 164.454 107.213 164.694C107.786 164.92 108.266 165.24 108.653 165.654C109.04 166.054 109.333 166.54 109.533 167.114C109.733 167.687 109.833 168.314 109.833 168.994C109.833 169.22 109.82 169.434 109.793 169.634C109.78 169.834 109.76 169.994 109.733 170.114H102.593C102.673 170.994 103.02 171.674 103.633 172.154C104.246 172.62 105 172.854 105.893 172.854C106.4 172.854 106.873 172.787 107.313 172.654C107.753 172.507 108.2 172.307 108.653 172.054L109.433 173.494C108.9 173.827 108.306 174.1 107.653 174.314C107 174.527 106.313 174.634 105.593 174.634C104.846 174.634 104.146 174.52 103.493 174.294C102.84 174.054 102.273 173.714 101.793 173.274C101.313 172.834 100.933 172.3 100.653 171.674C100.373 171.034 100.233 170.307 100.233 169.494ZM107.713 168.554C107.713 167.794 107.513 167.2 107.113 166.774C106.713 166.334 106.12 166.114 105.333 166.114C104.666 166.114 104.073 166.32 103.553 166.734C103.033 167.147 102.706 167.754 102.573 168.554H107.713ZM112.045 169.494C112.045 168.694 112.165 167.974 112.405 167.334C112.645 166.694 112.965 166.154 113.365 165.714C113.778 165.274 114.245 164.934 114.765 164.694C115.285 164.454 115.825 164.334 116.385 164.334C116.972 164.334 117.472 164.44 117.885 164.654C118.312 164.854 118.725 165.134 119.125 165.494L119.025 163.834V160.274H121.345V174.394H119.445L119.265 173.254H119.205C118.818 173.64 118.365 173.967 117.845 174.234C117.338 174.5 116.805 174.634 116.245 174.634C115.618 174.634 115.045 174.52 114.525 174.294C114.005 174.054 113.558 173.714 113.185 173.274C112.825 172.834 112.545 172.3 112.345 171.674C112.145 171.034 112.045 170.307 112.045 169.494ZM114.425 169.474C114.425 170.54 114.632 171.354 115.045 171.914C115.458 172.46 116.045 172.734 116.805 172.734C117.618 172.734 118.358 172.34 119.025 171.554V167.134C118.678 166.8 118.332 166.567 117.985 166.434C117.638 166.3 117.285 166.234 116.925 166.234C116.578 166.234 116.252 166.307 115.945 166.454C115.652 166.6 115.392 166.814 115.165 167.094C114.938 167.36 114.758 167.694 114.625 168.094C114.492 168.494 114.425 168.954 114.425 169.474Z" fill="#009E73"/>
<path d="M136.529 164.714H145.409V166.394H136.529V164.714ZM136.529 169.174H145.409V170.854H136.529V169.174ZM163.214 160.234H168.934V161.494H164.994V176.174H168.934V177.434H163.214V160.234ZM464.719 176.174V161.494H460.799V160.234H466.519V177.434H460.799V176.174H464.719Z" fill="#2E383C"/>
<path d="M173.546 164.574H175.446L175.646 166.794H175.706C176.213 165.994 176.819 165.387 177.526 164.974C178.246 164.547 179.033 164.334 179.886 164.334C180.286 164.334 180.626 164.367 180.906 164.434C181.199 164.487 181.493 164.587 181.786 164.734L181.306 166.674C180.986 166.567 180.699 166.494 180.446 166.454C180.206 166.4 179.899 166.374 179.526 166.374C178.846 166.374 178.193 166.567 177.566 166.954C176.939 167.34 176.373 168.014 175.866 168.974V174.394H173.546V164.574ZM183.998 169.494C183.998 168.68 184.132 167.954 184.398 167.314C184.678 166.674 185.045 166.134 185.498 165.694C185.952 165.254 186.478 164.92 187.078 164.694C187.678 164.454 188.298 164.334 188.938 164.334C189.578 164.334 190.198 164.454 190.798 164.694C191.398 164.92 191.925 165.254 192.378 165.694C192.832 166.134 193.192 166.674 193.458 167.314C193.738 167.954 193.878 168.68 193.878 169.494C193.878 170.307 193.738 171.034 193.458 171.674C193.192 172.314 192.832 172.854 192.378 173.294C191.925 173.734 191.398 174.067 190.798 174.294C190.198 174.52 189.578 174.634 188.938 174.634C188.298 174.634 187.678 174.52 187.078 174.294C186.478 174.067 185.952 173.734 185.498 173.294C185.045 172.854 184.678 172.314 184.398 171.674C184.132 171.034 183.998 170.307 183.998 169.494ZM186.378 169.494C186.378 170.48 186.605 171.274 187.058 171.874C187.512 172.46 188.138 172.754 188.938 172.754C189.738 172.754 190.365 172.46 190.818 171.874C191.272 171.274 191.498 170.48 191.498 169.494C191.498 168.494 191.272 167.7 190.818 167.114C190.365 166.514 189.738 166.214 188.938 166.214C188.138 166.214 187.512 166.514 187.058 167.114C186.605 167.7 186.378 168.494 186.378 169.494ZM205.23 174.394H203.35L203.17 172.834H203.09C202.624 173.38 202.11 173.82 201.55 174.154C200.99 174.474 200.344 174.634 199.61 174.634C198.464 174.634 197.63 174.294 197.11 173.614C196.59 172.92 196.33 171.934 196.33 170.654V164.574H198.63V170.354C198.63 171.154 198.764 171.74 199.03 172.114C199.31 172.474 199.79 172.654 200.47 172.654C200.937 172.654 201.35 172.547 201.71 172.334C202.084 172.12 202.49 171.74 202.93 171.194V164.574H205.23V174.394ZM208.563 164.574H210.463L210.643 166.054H210.723C211.189 165.587 211.703 165.187 212.263 164.854C212.836 164.507 213.503 164.334 214.263 164.334C215.396 164.334 216.229 164.68 216.763 165.374C217.296 166.054 217.563 167.034 217.563 168.314V174.394H215.243V168.614C215.243 167.814 215.103 167.234 214.823 166.874C214.556 166.5 214.083 166.314 213.403 166.314C212.923 166.314 212.496 166.427 212.123 166.654C211.749 166.88 211.336 167.227 210.883 167.694V174.394H208.563V164.574ZM219.975 169.494C219.975 168.694 220.095 167.974 220.335 167.334C220.575 166.694 220.895 166.154 221.295 165.714C221.708 165.274 222.175 164.934 222.695 164.694C223.215 164.454 223.755 164.334 224.315 164.334C224.901 164.334 225.401 164.44 225.815 164.654C226.241 164.854 226.655 165.134 227.055 165.494L226.955 163.834V160.274H229.275V174.394H227.375L227.195 173.254H227.135C226.748 173.64 226.295 173.967 225.775 174.234C225.268 174.5 224.735 174.634 224.175 174.634C223.548 174.634 222.975 174.52 222.455 174.294C221.935 174.054 221.488 173.714 221.115 173.274C220.755 172.834 220.475 172.3 220.275 171.674C220.075 171.034 219.975 170.307 219.975 169.494ZM222.355 169.474C222.355 170.54 222.561 171.354 222.975 171.914C223.388 172.46 223.975 172.734 224.735 172.734C225.548 172.734 226.288 172.34 226.955 171.554V167.134C226.608 166.8 226.261 166.567 225.915 166.434C225.568 166.3 225.215 166.234 224.855 166.234C224.508 166.234 224.181 166.307 223.875 166.454C223.581 166.6 223.321 166.814 223.095 167.094C222.868 167.36 222.688 167.694 222.555 168.094C222.421 168.494 222.355 168.954 222.355 169.474ZM239.147 177.934C237.8 176.814 236.734 175.494 235.947 173.974C235.174 172.454 234.787 170.74 234.787 168.834C234.787 166.927 235.174 165.214 235.947 163.694C236.734 162.174 237.8 160.854 239.147 159.734L240.427 160.794C239.16 161.94 238.234 163.16 237.647 164.454C237.06 165.747 236.767 167.207 236.767 168.834C236.767 170.46 237.06 171.92 237.647 173.214C238.234 174.507 239.16 175.727 240.427 176.874L239.147 177.934ZM254.059 162.274C253.699 162.127 253.346 162.02 252.999 161.954C252.666 161.887 252.299 161.854 251.899 161.854C251.139 161.854 250.586 162.04 250.239 162.414C249.906 162.774 249.739 163.3 249.739 163.994V164.574H253.479V166.394H249.739V174.394H247.459V166.394H244.739V164.674L247.459 164.574V164.034C247.459 163.46 247.539 162.927 247.699 162.434C247.859 161.94 248.106 161.52 248.439 161.174C248.786 160.814 249.219 160.534 249.739 160.334C250.273 160.134 250.899 160.034 251.619 160.034C252.153 160.034 252.659 160.08 253.139 160.174C253.633 160.267 254.099 160.4 254.539 160.574L254.059 162.274ZM257.371 176.874C258.638 175.727 259.565 174.507 260.151 173.214C260.738 171.92 261.031 170.46 261.031 168.834C261.031 167.207 260.738 165.747 260.151 164.454C259.565 163.16 258.638 161.94 257.371 160.794L258.651 159.734C259.998 160.854 261.058 162.174 261.831 163.694C262.618 165.214 263.011 166.927 263.011 168.834C263.011 170.74 262.618 172.454 261.831 173.974C261.058 175.494 259.998 176.814 258.651 177.934L257.371 176.874Z" fill="#EB5757"/>
<path d="M290.036 162.274C289.676 162.127 289.322 162.02 288.976 161.954C288.642 161.887 288.276 161.854 287.876 161.854C287.116 161.854 286.562 162.04 286.216 162.414C285.882 162.774 285.716 163.3 285.716 163.994V164.574H289.456V166.394H285.716V174.394H283.436V166.394H280.716V164.674L283.436 164.574V164.034C283.436 163.46 283.516 162.927 283.676 162.434C283.836 161.94 284.082 161.52 284.416 161.174C284.762 160.814 285.196 160.534 285.716 160.334C286.249 160.134 286.876 160.034 287.596 160.034C288.129 160.034 288.636 160.08 289.116 160.174C289.609 160.267 290.076 160.4 290.516 160.574L290.036 162.274ZM291.928 169.494C291.928 168.68 292.061 167.954 292.328 167.314C292.608 166.674 292.975 166.134 293.428 165.694C293.881 165.254 294.408 164.92 295.008 164.694C295.608 164.454 296.228 164.334 296.868 164.334C297.508 164.334 298.128 164.454 298.728 164.694C299.328 164.92 299.855 165.254 300.308 165.694C300.761 166.134 301.121 166.674 301.388 167.314C301.668 167.954 301.808 168.68 301.808 169.494C301.808 170.307 301.668 171.034 301.388 171.674C301.121 172.314 300.761 172.854 300.308 173.294C299.855 173.734 299.328 174.067 298.728 174.294C298.128 174.52 297.508 174.634 296.868 174.634C296.228 174.634 295.608 174.52 295.008 174.294C294.408 174.067 293.881 173.734 293.428 173.294C292.975 172.854 292.608 172.314 292.328 171.674C292.061 171.034 291.928 170.307 291.928 169.494ZM294.308 169.494C294.308 170.48 294.535 171.274 294.988 171.874C295.441 172.46 296.068 172.754 296.868 172.754C297.668 172.754 298.295 172.46 298.748 171.874C299.201 171.274 299.428 170.48 299.428 169.494C299.428 168.494 299.201 167.7 298.748 167.114C298.295 166.514 297.668 166.214 296.868 166.214C296.068 166.214 295.441 166.514 294.988 167.114C294.535 167.7 294.308 168.494 294.308 169.494ZM305.46 164.574H307.36L307.56 166.794H307.62C308.127 165.994 308.733 165.387 309.44 164.974C310.16 164.547 310.947 164.334 311.8 164.334C312.2 164.334 312.54 164.367 312.82 164.434C313.113 164.487 313.407 164.587 313.7 164.734L313.22 166.674C312.9 166.567 312.613 166.494 312.36 166.454C312.12 166.4 311.813 166.374 311.44 166.374C310.76 166.374 310.107 166.567 309.48 166.954C308.853 167.34 308.287 168.014 307.78 168.974V174.394H305.46V164.574ZM338.004 162.274C337.644 162.127 337.291 162.02 336.944 161.954C336.611 161.887 336.244 161.854 335.844 161.854C335.084 161.854 334.531 162.04 334.184 162.414C333.851 162.774 333.684 163.3 333.684 163.994V164.574H337.424V166.394H333.684V174.394H331.404V166.394H328.684V164.674L331.404 164.574V164.034C331.404 163.46 331.484 162.927 331.644 162.434C331.804 161.94 332.051 161.52 332.384 161.174C332.731 160.814 333.164 160.534 333.684 160.334C334.218 160.134 334.844 160.034 335.564 160.034C336.098 160.034 336.604 160.08 337.084 160.174C337.578 160.267 338.044 160.4 338.484 160.574L338.004 162.274ZM352.509 164.574H359.069V174.394H356.769V166.394H352.509V164.574ZM357.749 162.854C357.282 162.854 356.889 162.714 356.569 162.434C356.262 162.154 356.109 161.78 356.109 161.314C356.109 160.847 356.262 160.474 356.569 160.194C356.889 159.9 357.282 159.754 357.749 159.754C358.229 159.754 358.622 159.9 358.929 160.194C359.236 160.474 359.389 160.847 359.389 161.314C359.389 161.78 359.236 162.154 358.929 162.434C358.622 162.714 358.229 162.854 357.749 162.854ZM364.461 164.574H366.361L366.541 166.054H366.621C367.088 165.587 367.601 165.187 368.161 164.854C368.734 164.507 369.401 164.334 370.161 164.334C371.294 164.334 372.128 164.68 372.661 165.374C373.194 166.054 373.461 167.034 373.461 168.314V174.394H371.141V168.614C371.141 167.814 371.001 167.234 370.721 166.874C370.454 166.5 369.981 166.314 369.301 166.314C368.821 166.314 368.394 166.427 368.021 166.654C367.648 166.88 367.234 167.227 366.781 167.694V174.394H364.461V164.574ZM397.965 162.274C397.605 162.127 397.252 162.02 396.905 161.954C396.572 161.887 396.205 161.854 395.805 161.854C395.045 161.854 394.492 162.04 394.145 162.414C393.812 162.774 393.645 163.3 393.645 163.994V164.574H397.385V166.394H393.645V174.394H391.365V166.394H388.645V164.674L391.365 164.574V164.034C391.365 163.46 391.445 162.927 391.605 162.434C391.765 161.94 392.012 161.52 392.345 161.174C392.692 160.814 393.125 160.534 393.645 160.334C394.179 160.134 394.805 160.034 395.525 160.034C396.059 160.034 396.565 160.08 397.045 160.174C397.539 160.267 398.005 160.4 398.445 160.574L397.965 162.274ZM400.218 160.274H405.618V170.934C405.618 171.6 405.784 172.074 406.118 172.354C406.451 172.62 406.871 172.754 407.378 172.754C407.858 172.754 408.418 172.627 409.058 172.374L409.598 174.074C409.131 174.234 408.691 174.367 408.278 174.474C407.878 174.58 407.391 174.634 406.818 174.634C405.658 174.634 404.784 174.3 404.198 173.634C403.611 172.967 403.318 172.027 403.318 170.814V162.094H400.218V160.274ZM411.85 169.494C411.85 168.68 411.983 167.954 412.25 167.314C412.53 166.674 412.896 166.134 413.35 165.694C413.803 165.254 414.33 164.92 414.93 164.694C415.53 164.454 416.15 164.334 416.79 164.334C417.43 164.334 418.05 164.454 418.65 164.694C419.25 164.92 419.776 165.254 420.23 165.694C420.683 166.134 421.043 166.674 421.31 167.314C421.59 167.954 421.73 168.68 421.73 169.494C421.73 170.307 421.59 171.034 421.31 171.674C421.043 172.314 420.683 172.854 420.23 173.294C419.776 173.734 419.25 174.067 418.65 174.294C418.05 174.52 417.43 174.634 416.79 174.634C416.15 174.634 415.53 174.52 414.93 174.294C414.33 174.067 413.803 173.734 413.35 173.294C412.896 172.854 412.53 172.314 412.25 171.674C411.983 171.034 411.85 170.307 411.85 169.494ZM414.23 169.494C414.23 170.48 414.456 171.274 414.91 171.874C415.363 172.46 415.99 172.754 416.79 172.754C417.59 172.754 418.216 172.46 418.67 171.874C419.123 171.274 419.35 170.48 419.35 169.494C419.35 168.494 419.123 167.7 418.67 167.114C418.216 166.514 417.59 166.214 416.79 166.214C415.99 166.214 415.363 166.514 414.91 167.114C414.456 167.7 414.23 168.494 414.23 169.494ZM424.202 171.754C424.202 171.207 424.329 170.727 424.582 170.314C424.835 169.887 425.235 169.527 425.782 169.234C426.329 168.94 427.029 168.7 427.882 168.514C428.735 168.327 429.769 168.194 430.982 168.114C430.942 167.554 430.742 167.094 430.382 166.734C430.022 166.374 429.442 166.194 428.642 166.194C428.082 166.194 427.529 166.3 426.982 166.514C426.449 166.714 425.929 166.954 425.422 167.234L424.582 165.694C425.182 165.347 425.869 165.034 426.642 164.754C427.415 164.474 428.222 164.334 429.062 164.334C430.435 164.334 431.482 164.7 432.202 165.434C432.922 166.154 433.282 167.2 433.282 168.574V174.394H431.402L431.222 173.174H431.162C430.642 173.574 430.062 173.92 429.422 174.214C428.795 174.494 428.149 174.634 427.482 174.634C427.002 174.634 426.562 174.56 426.162 174.414C425.762 174.28 425.415 174.087 425.122 173.834C424.829 173.58 424.602 173.28 424.442 172.934C424.282 172.574 424.202 172.18 424.202 171.754ZM426.422 171.574C426.422 172.014 426.589 172.334 426.922 172.534C427.269 172.734 427.689 172.834 428.182 172.834C428.675 172.834 429.149 172.727 429.602 172.514C430.069 172.287 430.529 171.994 430.982 171.634V169.554C430.102 169.62 429.369 169.714 428.782 169.834C428.195 169.94 427.729 170.08 427.382 170.254C427.035 170.427 426.789 170.627 426.642 170.854C426.495 171.067 426.422 171.307 426.422 171.574ZM438.574 166.394H435.954V164.674L438.674 164.574L438.974 161.894H440.874V164.574H445.354V166.394H440.874V170.434C440.874 171.247 441.041 171.847 441.374 172.234C441.708 172.607 442.294 172.794 443.134 172.794C443.561 172.794 443.948 172.76 444.294 172.694C444.641 172.614 444.974 172.514 445.294 172.394L445.734 174.074C445.294 174.22 444.808 174.347 444.274 174.454C443.741 174.574 443.174 174.634 442.574 174.634C441.828 174.634 441.201 174.534 440.694 174.334C440.188 174.134 439.774 173.854 439.454 173.494C439.148 173.12 438.921 172.674 438.774 172.154C438.641 171.634 438.574 171.06 438.574 170.434V166.394ZM449.086 171.654C449.646 172.04 450.226 172.347 450.826 172.574C451.44 172.787 452.126 172.894 452.886 172.894C453.66 172.894 454.226 172.787 454.586 172.574C454.946 172.347 455.126 172.06 455.126 171.714C455.126 171.367 454.893 171.08 454.426 170.854C453.96 170.614 453.226 170.36 452.226 170.094C451.76 169.974 451.306 169.827 450.866 169.654C450.426 169.48 450.04 169.28 449.706 169.054C449.373 168.827 449.106 168.567 448.906 168.274C448.706 167.98 448.606 167.647 448.606 167.274C448.606 166.407 448.98 165.7 449.726 165.154C450.473 164.607 451.546 164.334 452.946 164.334C453.746 164.334 454.5 164.467 455.206 164.734C455.913 165 456.52 165.3 457.026 165.634L455.966 167.054C455.526 166.76 455.053 166.527 454.546 166.354C454.053 166.167 453.526 166.074 452.966 166.074C452.206 166.074 451.673 166.18 451.366 166.394C451.06 166.594 450.906 166.847 450.906 167.154C450.906 167.327 450.973 167.487 451.106 167.634C451.253 167.767 451.446 167.894 451.686 168.014C451.94 168.12 452.233 168.227 452.566 168.334C452.9 168.44 453.266 168.54 453.666 168.634C454.24 168.78 454.753 168.947 455.206 169.134C455.673 169.307 456.066 169.507 456.386 169.734C456.72 169.96 456.973 170.227 457.146 170.534C457.333 170.84 457.426 171.194 457.426 171.594C457.426 172.02 457.326 172.42 457.126 172.794C456.926 173.154 456.633 173.474 456.246 173.754C455.86 174.02 455.38 174.234 454.806 174.394C454.233 174.554 453.573 174.634 452.826 174.634C451.906 174.634 451.026 174.487 450.186 174.194C449.346 173.9 448.62 173.54 448.006 173.114L449.086 171.654Z" fill="#9B51E0"/>
<path d="M31 7H480V108H31V7Z" fill="#F1F4F8"/>
<path d="M41.6419 30.2022H43.5419L43.7419 32.4222H43.8019C44.3085 31.6222 44.9152 31.0155 45.6219 30.6022C46.3419 30.1755 47.1285 29.9622 47.9819 29.9622C48.3819 29.9622 48.7219 29.9955 49.0019 30.0622C49.2952 30.1155 49.5885 30.2155 49.8819 30.3622L49.4019 32.3022C49.0819 32.1955 48.7952 32.1222 48.5419 32.0822C48.3019 32.0288 47.9952 32.0022 47.6219 32.0022C46.9419 32.0022 46.2885 32.1955 45.6619 32.5822C45.0352 32.9688 44.4685 33.6422 43.9619 34.6022V40.0222H41.6419V30.2022ZM52.0941 35.1222C52.0941 34.3088 52.2274 33.5822 52.4941 32.9422C52.7741 32.3022 53.1407 31.7622 53.5941 31.3222C54.0474 30.8822 54.5741 30.5488 55.1741 30.3222C55.7741 30.0822 56.3941 29.9622 57.0341 29.9622C57.6741 29.9622 58.2941 30.0822 58.8941 30.3222C59.4941 30.5488 60.0207 30.8822 60.4741 31.3222C60.9274 31.7622 61.2874 32.3022 61.5541 32.9422C61.8341 33.5822 61.9741 34.3088 61.9741 35.1222C61.9741 35.9355 61.8341 36.6622 61.5541 37.3022C61.2874 37.9422 60.9274 38.4822 60.4741 38.9222C60.0207 39.3622 59.4941 39.6955 58.8941 39.9222C58.2941 40.1488 57.6741 40.2622 57.0341 40.2622C56.3941 40.2622 55.7741 40.1488 55.1741 39.9222C54.5741 39.6955 54.0474 39.3622 53.5941 38.9222C53.1407 38.4822 52.7741 37.9422 52.4941 37.3022C52.2274 36.6622 52.0941 35.9355 52.0941 35.1222ZM54.4741 35.1222C54.4741 36.1088 54.7007 36.9022 55.1541 37.5022C55.6074 38.0888 56.2341 38.3822 57.0341 38.3822C57.8341 38.3822 58.4607 38.0888 58.9141 37.5022C59.3674 36.9022 59.5941 36.1088 59.5941 35.1222C59.5941 34.1222 59.3674 33.3288 58.9141 32.7422C58.4607 32.1422 57.8341 31.8422 57.0341 31.8422C56.2341 31.8422 55.6074 32.1422 55.1541 32.7422C54.7007 33.3288 54.4741 34.1222 54.4741 35.1222ZM73.3262 40.0222H71.4462L71.2662 38.4622H71.1862C70.7196 39.0088 70.2062 39.4488 69.6462 39.7822C69.0862 40.1022 68.4396 40.2622 67.7062 40.2622C66.5596 40.2622 65.7262 39.9222 65.2062 39.2422C64.6862 38.5488 64.4262 37.5622 64.4262 36.2822V30.2022H66.7262V35.9822C66.7262 36.7822 66.8596 37.3688 67.1262 37.7422C67.4062 38.1022 67.8862 38.2822 68.5662 38.2822C69.0329 38.2822 69.4462 38.1755 69.8062 37.9622C70.1796 37.7488 70.5862 37.3688 71.0262 36.8222V30.2022H73.3262V40.0222ZM76.6584 30.2022H78.5584L78.7384 31.6822H78.8184C79.2851 31.2155 79.7984 30.8155 80.3584 30.4822C80.9318 30.1355 81.5984 29.9622 82.3584 29.9622C83.4918 29.9622 84.3251 30.3088 84.8584 31.0022C85.3918 31.6822 85.6584 32.6622 85.6584 33.9422V40.0222H83.3384V34.2422C83.3384 33.4422 83.1984 32.8622 82.9184 32.5022C82.6518 32.1288 82.1784 31.9422 81.4984 31.9422C81.0184 31.9422 80.5918 32.0555 80.2184 32.2822C79.8451 32.5088 79.4318 32.8555 78.9784 33.3222V40.0222H76.6584V30.2022ZM88.0706 35.1222C88.0706 34.3222 88.1906 33.6022 88.4306 32.9622C88.6706 32.3222 88.9906 31.7822 89.3906 31.3422C89.804 30.9022 90.2706 30.5622 90.7906 30.3222C91.3106 30.0822 91.8506 29.9622 92.4106 29.9622C92.9973 29.9622 93.4973 30.0688 93.9106 30.2822C94.3373 30.4822 94.7506 30.7622 95.1506 31.1222L95.0506 29.4622V25.9022H97.3706V40.0222H95.4706L95.2906 38.8822H95.2306C94.844 39.2688 94.3906 39.5955 93.8706 39.8622C93.364 40.1288 92.8306 40.2622 92.2706 40.2622C91.644 40.2622 91.0706 40.1488 90.5506 39.9222C90.0306 39.6822 89.584 39.3422 89.2106 38.9022C88.8506 38.4622 88.5706 37.9288 88.3706 37.3022C88.1706 36.6622 88.0706 35.9355 88.0706 35.1222ZM90.4506 35.1022C90.4506 36.1688 90.6573 36.9822 91.0706 37.5422C91.484 38.0888 92.0706 38.3622 92.8306 38.3622C93.644 38.3622 94.384 37.9688 95.0506 37.1822V32.7622C94.704 32.4288 94.3573 32.1955 94.0106 32.0622C93.664 31.9288 93.3106 31.8622 92.9506 31.8622C92.604 31.8622 92.2773 31.9355 91.9706 32.0822C91.6773 32.2288 91.4173 32.4422 91.1906 32.7222C90.964 32.9888 90.784 33.3222 90.6506 33.7222C90.5173 34.1222 90.4506 34.5822 90.4506 35.1022ZM100.243 35.1222C100.243 34.3222 100.383 33.6022 100.663 32.9622C100.956 32.3222 101.336 31.7822 101.803 31.3422C102.269 30.8888 102.803 30.5488 103.403 30.3222C104.016 30.0822 104.643 29.9622 105.283 29.9622C106.016 29.9622 106.663 30.0822 107.223 30.3222C107.796 30.5488 108.276 30.8688 108.663 31.2822C109.049 31.6822 109.343 32.1688 109.543 32.7422C109.743 33.3155 109.843 33.9422 109.843 34.6222C109.843 34.8488 109.829 35.0622 109.803 35.2622C109.789 35.4622 109.769 35.6222 109.743 35.7422H102.603C102.683 36.6222 103.029 37.3022 103.643 37.7822C104.256 38.2488 105.009 38.4822 105.903 38.4822C106.409 38.4822 106.883 38.4155 107.323 38.2822C107.763 38.1355 108.209 37.9355 108.663 37.6822L109.443 39.1222C108.909 39.4555 108.316 39.7288 107.663 39.9422C107.009 40.1555 106.323 40.2622 105.603 40.2622C104.856 40.2622 104.156 40.1488 103.503 39.9222C102.849 39.6822 102.283 39.3422 101.803 38.9022C101.323 38.4622 100.943 37.9288 100.663 37.3022C100.383 36.6622 100.243 35.9355 100.243 35.1222ZM107.723 34.1822C107.723 33.4222 107.523 32.8288 107.123 32.4022C106.723 31.9622 106.129 31.7422 105.343 31.7422C104.676 31.7422 104.083 31.9488 103.563 32.3622C103.043 32.7755 102.716 33.3822 102.583 34.1822H107.723ZM112.055 35.1222C112.055 34.3222 112.175 33.6022 112.415 32.9622C112.655 32.3222 112.975 31.7822 113.375 31.3422C113.788 30.9022 114.255 30.5622 114.775 30.3222C115.295 30.0822 115.835 29.9622 116.395 29.9622C116.982 29.9622 117.482 30.0688 117.895 30.2822C118.322 30.4822 118.735 30.7622 119.135 31.1222L119.035 29.4622V25.9022H121.355V40.0222H119.455L119.275 38.8822H119.215C118.828 39.2688 118.375 39.5955 117.855 39.8622C117.348 40.1288 116.815 40.2622 116.255 40.2622C115.628 40.2622 115.055 40.1488 114.535 39.9222C114.015 39.6822 113.568 39.3422 113.195 38.9022C112.835 38.4622 112.555 37.9288 112.355 37.3022C112.155 36.6622 112.055 35.9355 112.055 35.1222ZM114.435 35.1022C114.435 36.1688 114.642 36.9822 115.055 37.5422C115.468 38.0888 116.055 38.3622 116.815 38.3622C117.628 38.3622 118.368 37.9688 119.035 37.1822V32.7622C118.688 32.4288 118.342 32.1955 117.995 32.0622C117.648 31.9288 117.295 31.8622 116.935 31.8622C116.588 31.8622 116.262 31.9355 115.955 32.0822C115.662 32.2288 115.402 32.4422 115.175 32.7222C114.948 32.9888 114.768 33.3222 114.635 33.7222C114.502 34.1222 114.435 34.5822 114.435 35.1022Z" fill="#009E73"/>
<path d="M136.539 30.3422H145.419V32.0222H136.539V30.3422ZM136.539 34.8022H145.419V36.4822H136.539V34.8022ZM163.224 25.8622H168.944V27.1222H165.004V41.8022H168.944V43.0622H163.224V25.8622ZM176.916 41.8022V27.1222H172.996V25.8622H178.716V43.0622H172.996V41.8022H176.916ZM222.945 56.4422C222.945 55.8555 223.131 55.3755 223.505 55.0022C223.878 54.6155 224.351 54.4222 224.925 54.4222C225.498 54.4222 225.971 54.6155 226.345 55.0022C226.718 55.3755 226.905 55.8555 226.905 56.4422C226.905 57.0288 226.718 57.5155 226.345 57.9022C225.971 58.2755 225.498 58.4622 224.925 58.4622C224.351 58.4622 223.878 58.2755 223.505 57.9022C223.131 57.5155 222.945 57.0288 222.945 56.4422ZM222.945 63.2422C222.945 62.6555 223.131 62.1755 223.505 61.8022C223.878 61.4155 224.351 61.2222 224.925 61.2222C225.498 61.2222 225.971 61.4155 226.345 61.8022C226.718 62.1755 226.905 62.6555 226.905 63.2422C226.905 63.8288 226.718 64.3155 226.345 64.7022C225.971 65.0755 225.498 65.2622 224.925 65.2622C224.351 65.2622 223.878 65.0755 223.505 64.7022C223.131 64.3155 222.945 63.8288 222.945 63.2422ZM89.6106 80.2022H91.5106L91.7106 82.4222H91.7706C92.2773 81.6222 92.884 81.0155 93.5906 80.6022C94.3106 80.1755 95.0973 79.9622 95.9506 79.9622C96.3506 79.9622 96.6906 79.9955 96.9706 80.0622C97.264 80.1155 97.5573 80.2155 97.8506 80.3622L97.3706 82.3022C97.0506 82.1955 96.764 82.1222 96.5106 82.0822C96.2706 82.0288 95.964 82.0022 95.5906 82.0022C94.9106 82.0022 94.2573 82.1955 93.6306 82.5822C93.004 82.9688 92.4373 83.6422 91.9306 84.6022V90.0222H89.6106V80.2022ZM100.063 85.1222C100.063 84.3088 100.196 83.5822 100.463 82.9422C100.743 82.3022 101.109 81.7622 101.563 81.3222C102.016 80.8822 102.543 80.5488 103.143 80.3222C103.743 80.0822 104.363 79.9622 105.003 79.9622C105.643 79.9622 106.263 80.0822 106.863 80.3222C107.463 80.5488 107.989 80.8822 108.443 81.3222C108.896 81.7622 109.256 82.3022 109.523 82.9422C109.803 83.5822 109.943 84.3088 109.943 85.1222C109.943 85.9355 109.803 86.6622 109.523 87.3022C109.256 87.9422 108.896 88.4822 108.443 88.9222C107.989 89.3622 107.463 89.6955 106.863 89.9222C106.263 90.1488 105.643 90.2622 105.003 90.2622C104.363 90.2622 103.743 90.1488 103.143 89.9222C102.543 89.6955 102.016 89.3622 101.563 88.9222C101.109 88.4822 100.743 87.9422 100.463 87.3022C100.196 86.6622 100.063 85.9355 100.063 85.1222ZM102.443 85.1222C102.443 86.1088 102.669 86.9022 103.123 87.5022C103.576 88.0888 104.203 88.3822 105.003 88.3822C105.803 88.3822 106.429 88.0888 106.883 87.5022C107.336 86.9022 107.563 86.1088 107.563 85.1222C107.563 84.1222 107.336 83.3288 106.883 82.7422C106.429 82.1422 105.803 81.8422 105.003 81.8422C104.203 81.8422 103.576 82.1422 103.123 82.7422C102.669 83.3288 102.443 84.1222 102.443 85.1222ZM121.295 90.0222H119.415L119.235 88.4622H119.155C118.688 89.0088 118.175 89.4488 117.615 89.7822C117.055 90.1022 116.408 90.2622 115.675 90.2622C114.528 90.2622 113.695 89.9222 113.175 89.2422C112.655 88.5488 112.395 87.5622 112.395 86.2822V80.2022H114.695V85.9822C114.695 86.7822 114.828 87.3688 115.095 87.7422C115.375 88.1022 115.855 88.2822 116.535 88.2822C117.002 88.2822 117.415 88.1755 117.775 87.9622C118.148 87.7488 118.555 87.3688 118.995 86.8222V80.2022H121.295V90.0222ZM124.627 80.2022H126.527L126.707 81.6822H126.787C127.254 81.2155 127.767 80.8155 128.327 80.4822C128.901 80.1355 129.567 79.9622 130.327 79.9622C131.461 79.9622 132.294 80.3088 132.827 81.0022C133.361 81.6822 133.627 82.6622 133.627 83.9422V90.0222H131.307V84.2422C131.307 83.4422 131.167 82.8622 130.887 82.5022C130.621 82.1288 130.147 81.9422 129.467 81.9422C128.987 81.9422 128.561 82.0555 128.187 82.2822C127.814 82.5088 127.401 82.8555 126.947 83.3222V90.0222H124.627V80.2022ZM136.039 85.1222C136.039 84.3222 136.159 83.6022 136.399 82.9622C136.639 82.3222 136.959 81.7822 137.359 81.3422C137.773 80.9022 138.239 80.5622 138.759 80.3222C139.279 80.0822 139.819 79.9622 140.379 79.9622C140.966 79.9622 141.466 80.0688 141.879 80.2822C142.306 80.4822 142.719 80.7622 143.119 81.1222L143.019 79.4622V75.9022H145.339V90.0222H143.439L143.259 88.8822H143.199C142.813 89.2688 142.359 89.5955 141.839 89.8622C141.333 90.1288 140.799 90.2622 140.239 90.2622C139.613 90.2622 139.039 90.1488 138.519 89.9222C137.999 89.6822 137.553 89.3422 137.179 88.9022C136.819 88.4622 136.539 87.9288 136.339 87.3022C136.139 86.6622 136.039 85.9355 136.039 85.1222ZM138.419 85.1022C138.419 86.1688 138.626 86.9822 139.039 87.5422C139.453 88.0888 140.039 88.3622 140.799 88.3622C141.613 88.3622 142.353 87.9688 143.019 87.1822V82.7622C142.673 82.4288 142.326 82.1955 141.979 82.0622C141.633 81.9288 141.279 81.8622 140.919 81.8622C140.573 81.8622 140.246 81.9355 139.939 82.0822C139.646 82.2288 139.386 82.4422 139.159 82.7222C138.933 82.9888 138.753 83.3222 138.619 83.7222C138.486 84.1222 138.419 84.5822 138.419 85.1022ZM148.212 85.1222C148.212 84.3222 148.352 83.6022 148.632 82.9622C148.925 82.3222 149.305 81.7822 149.772 81.3422C150.238 80.8888 150.772 80.5488 151.372 80.3222C151.985 80.0822 152.612 79.9622 153.252 79.9622C153.985 79.9622 154.632 80.0822 155.192 80.3222C155.765 80.5488 156.245 80.8688 156.632 81.2822C157.018 81.6822 157.312 82.1688 157.512 82.7422C157.712 83.3155 157.812 83.9422 157.812 84.6222C157.812 84.8488 157.798 85.0622 157.772 85.2622C157.758 85.4622 157.738 85.6222 157.712 85.7422H150.572C150.652 86.6222 150.998 87.3022 151.612 87.7822C152.225 88.2488 152.978 88.4822 153.872 88.4822C154.378 88.4822 154.852 88.4155 155.292 88.2822C155.732 88.1355 156.178 87.9355 156.632 87.6822L157.412 89.1222C156.878 89.4555 156.285 89.7288 155.632 89.9422C154.978 90.1555 154.292 90.2622 153.572 90.2622C152.825 90.2622 152.125 90.1488 151.472 89.9222C150.818 89.6822 150.252 89.3422 149.772 88.9022C149.292 88.4622 148.912 87.9288 148.632 87.3022C148.352 86.6622 148.212 85.9355 148.212 85.1222ZM155.692 84.1822C155.692 83.4222 155.492 82.8288 155.092 82.4022C154.692 81.9622 154.098 81.7422 153.312 81.7422C152.645 81.7422 152.052 81.9488 151.532 82.3622C151.012 82.7755 150.685 83.3822 150.552 84.1822H155.692ZM160.024 85.1222C160.024 84.3222 160.144 83.6022 160.384 82.9622C160.624 82.3222 160.944 81.7822 161.344 81.3422C161.757 80.9022 162.224 80.5622 162.744 80.3222C163.264 80.0822 163.804 79.9622 164.364 79.9622C164.95 79.9622 165.45 80.0688 165.864 80.2822C166.29 80.4822 166.704 80.7622 167.104 81.1222L167.004 79.4622V75.9022H169.324V90.0222H167.424L167.244 88.8822H167.184C166.797 89.2688 166.344 89.5955 165.824 89.8622C165.317 90.1288 164.784 90.2622 164.224 90.2622C163.597 90.2622 163.024 90.1488 162.504 89.9222C161.984 89.6822 161.537 89.3422 161.164 88.9022C160.804 88.4622 160.524 87.9288 160.324 87.3022C160.124 86.6622 160.024 85.9355 160.024 85.1222ZM162.404 85.1022C162.404 86.1688 162.61 86.9822 163.024 87.5422C163.437 88.0888 164.024 88.3622 164.784 88.3622C165.597 88.3622 166.337 87.9688 167.004 87.1822V82.7622C166.657 82.4288 166.31 82.1955 165.964 82.0622C165.617 81.9288 165.264 81.8622 164.904 81.8622C164.557 81.8622 164.23 81.9355 163.924 82.0822C163.63 82.2288 163.37 82.4422 163.144 82.7222C162.917 82.9888 162.737 83.3222 162.604 83.7222C162.47 84.1222 162.404 84.5822 162.404 85.1022ZM174.976 88.2422C174.976 87.6555 175.163 87.1755 175.536 86.8022C175.909 86.4155 176.383 86.2222 176.956 86.2222C177.529 86.2222 178.003 86.4155 178.376 86.8022C178.749 87.1755 178.936 87.6555 178.936 88.2422C178.936 88.8288 178.749 89.3155 178.376 89.7022C178.003 90.0755 177.529 90.2622 176.956 90.2622C176.383 90.2622 175.909 90.0755 175.536 89.7022C175.163 89.3155 174.976 88.8288 174.976 88.2422ZM184.368 87.3822C184.368 86.8355 184.495 86.3555 184.748 85.9422C185.001 85.5155 185.401 85.1555 185.948 84.8622C186.495 84.5688 187.195 84.3288 188.048 84.1422C188.901 83.9555 189.935 83.8222 191.148 83.7422C191.108 83.1822 190.908 82.7222 190.548 82.3622C190.188 82.0022 189.608 81.8222 188.808 81.8222C188.248 81.8222 187.695 81.9288 187.148 82.1422C186.615 82.3422 186.095 82.5822 185.588 82.8622L184.748 81.3222C185.348 80.9755 186.035 80.6622 186.808 80.3822C187.581 80.1022 188.388 79.9622 189.228 79.9622C190.601 79.9622 191.648 80.3288 192.368 81.0622C193.088 81.7822 193.448 82.8288 193.448 84.2022V90.0222H191.568L191.388 88.8022H191.328C190.808 89.2022 190.228 89.5488 189.588 89.8422C188.961 90.1222 188.315 90.2622 187.648 90.2622C187.168 90.2622 186.728 90.1888 186.328 90.0422C185.928 89.9088 185.581 89.7155 185.288 89.4622C184.995 89.2088 184.768 88.9088 184.608 88.5622C184.448 88.2022 184.368 87.8088 184.368 87.3822ZM186.588 87.2022C186.588 87.6422 186.755 87.9622 187.088 88.1622C187.435 88.3622 187.855 88.4622 188.348 88.4622C188.841 88.4622 189.315 88.3555 189.768 88.1422C190.235 87.9155 190.695 87.6222 191.148 87.2622V85.1822C190.268 85.2488 189.535 85.3422 188.948 85.4622C188.361 85.5688 187.895 85.7088 187.548 85.8822C187.201 86.0555 186.955 86.2555 186.808 86.4822C186.661 86.6955 186.588 86.9355 186.588 87.2022ZM198.9 90.8222V93.9022H196.58V80.2022H198.48L198.66 81.3222H198.72C199.147 80.9355 199.634 80.6155 200.18 80.3622C200.74 80.0955 201.3 79.9622 201.86 79.9622C202.5 79.9622 203.067 80.0822 203.56 80.3222C204.067 80.5488 204.487 80.8822 204.82 81.3222C205.167 81.7622 205.427 82.2888 205.6 82.9022C205.787 83.5155 205.88 84.2022 205.88 84.9622C205.88 85.8022 205.76 86.5555 205.52 87.2222C205.28 87.8755 204.954 88.4288 204.54 88.8822C204.14 89.3222 203.674 89.6622 203.14 89.9022C202.62 90.1422 202.08 90.2622 201.52 90.2622C201.067 90.2622 200.6 90.1622 200.12 89.9622C199.654 89.7622 199.22 89.4755 198.82 89.1022L198.9 90.8222ZM198.9 87.4622C199.26 87.7955 199.627 88.0288 200 88.1622C200.387 88.2955 200.734 88.3622 201.04 88.3622C201.747 88.3622 202.334 88.0822 202.8 87.5222C203.267 86.9488 203.5 86.1022 203.5 84.9822C203.5 83.9955 203.32 83.2288 202.96 82.6822C202.6 82.1355 202.02 81.8622 201.22 81.8622C200.847 81.8622 200.467 81.9555 200.08 82.1422C199.694 82.3288 199.3 82.6288 198.9 83.0422V87.4622ZM210.892 90.8222V93.9022H208.572V80.2022H210.472L210.652 81.3222H210.712C211.139 80.9355 211.626 80.6155 212.172 80.3622C212.732 80.0955 213.292 79.9622 213.852 79.9622C214.492 79.9622 215.059 80.0822 215.552 80.3222C216.059 80.5488 216.479 80.8822 216.812 81.3222C217.159 81.7622 217.419 82.2888 217.592 82.9022C217.779 83.5155 217.872 84.2022 217.872 84.9622C217.872 85.8022 217.752 86.5555 217.512 87.2222C217.272 87.8755 216.946 88.4288 216.532 88.8822C216.132 89.3222 215.666 89.6622 215.132 89.9022C214.612 90.1422 214.072 90.2622 213.512 90.2622C213.059 90.2622 212.592 90.1622 212.112 89.9622C211.646 89.7622 211.212 89.4755 210.812 89.1022L210.892 90.8222ZM210.892 87.4622C211.252 87.7955 211.619 88.0288 211.992 88.1622C212.379 88.2955 212.726 88.3622 213.032 88.3622C213.739 88.3622 214.326 88.0822 214.792 87.5222C215.259 86.9488 215.492 86.1022 215.492 84.9822C215.492 83.9955 215.312 83.2288 214.952 82.6822C214.592 82.1355 214.012 81.8622 213.212 81.8622C212.839 81.8622 212.459 81.9555 212.072 82.1422C211.686 82.3288 211.292 82.6288 210.892 83.0422V87.4622ZM220.165 85.1222C220.165 84.3222 220.305 83.6022 220.585 82.9622C220.878 82.3222 221.258 81.7822 221.725 81.3422C222.191 80.8888 222.725 80.5488 223.325 80.3222C223.938 80.0822 224.565 79.9622 225.205 79.9622C225.938 79.9622 226.585 80.0822 227.145 80.3222C227.718 80.5488 228.198 80.8688 228.585 81.2822C228.971 81.6822 229.265 82.1688 229.465 82.7422C229.665 83.3155 229.765 83.9422 229.765 84.6222C229.765 84.8488 229.751 85.0622 229.725 85.2622C229.711 85.4622 229.691 85.6222 229.665 85.7422H222.525C222.605 86.6222 222.951 87.3022 223.565 87.7822C224.178 88.2488 224.931 88.4822 225.825 88.4822C226.331 88.4822 226.805 88.4155 227.245 88.2822C227.685 88.1355 228.131 87.9355 228.585 87.6822L229.365 89.1222C228.831 89.4555 228.238 89.7288 227.585 89.9422C226.931 90.1555 226.245 90.2622 225.525 90.2622C224.778 90.2622 224.078 90.1488 223.425 89.9222C222.771 89.6822 222.205 89.3422 221.725 88.9022C221.245 88.4622 220.865 87.9288 220.585 87.3022C220.305 86.6622 220.165 85.9355 220.165 85.1222ZM227.645 84.1822C227.645 83.4222 227.445 82.8288 227.045 82.4022C226.645 81.9622 226.051 81.7422 225.265 81.7422C224.598 81.7422 224.005 81.9488 223.485 82.3622C222.965 82.7755 222.638 83.3822 222.505 84.1822H227.645ZM232.557 80.2022H234.457L234.637 81.6822H234.717C235.184 81.2155 235.697 80.8155 236.257 80.4822C236.83 80.1355 237.497 79.9622 238.257 79.9622C239.39 79.9622 240.224 80.3088 240.757 81.0022C241.29 81.6822 241.557 82.6622 241.557 83.9422V90.0222H239.237V84.2422C239.237 83.4422 239.097 82.8622 238.817 82.5022C238.55 82.1288 238.077 81.9422 237.397 81.9422C236.917 81.9422 236.49 82.0555 236.117 82.2822C235.744 82.5088 235.33 82.8555 234.877 83.3222V90.0222H232.557V80.2022ZM243.969 85.1222C243.969 84.3222 244.089 83.6022 244.329 82.9622C244.569 82.3222 244.889 81.7822 245.289 81.3422C245.702 80.9022 246.169 80.5622 246.689 80.3222C247.209 80.0822 247.749 79.9622 248.309 79.9622C248.896 79.9622 249.396 80.0688 249.809 80.2822C250.236 80.4822 250.649 80.7622 251.049 81.1222L250.949 79.4622V75.9022H253.269V90.0222H251.369L251.189 88.8822H251.129C250.742 89.2688 250.289 89.5955 249.769 89.8622C249.262 90.1288 248.729 90.2622 248.169 90.2622C247.542 90.2622 246.969 90.1488 246.449 89.9222C245.929 89.6822 245.482 89.3422 245.109 88.9022C244.749 88.4622 244.469 87.9288 244.269 87.3022C244.069 86.6622 243.969 85.9355 243.969 85.1222ZM246.349 85.1022C246.349 86.1688 246.556 86.9822 246.969 87.5422C247.382 88.0888 247.969 88.3622 248.729 88.3622C249.542 88.3622 250.282 87.9688 250.949 87.1822V82.7622C250.602 82.4288 250.256 82.1955 249.909 82.0622C249.562 81.9288 249.209 81.8622 248.849 81.8622C248.502 81.8622 248.176 81.9355 247.869 82.0822C247.576 82.2288 247.316 82.4422 247.089 82.7222C246.862 82.9888 246.682 83.3222 246.549 83.7222C246.416 84.1222 246.349 84.5822 246.349 85.1022ZM263.141 93.5622C261.795 92.4422 260.728 91.1222 259.941 89.6022C259.168 88.0822 258.781 86.3688 258.781 84.4622C258.781 82.5555 259.168 80.8422 259.941 79.3222C260.728 77.8022 261.795 76.4822 263.141 75.3622L264.421 76.4222C263.155 77.5688 262.228 78.7888 261.641 80.0822C261.055 81.3755 260.761 82.8355 260.761 84.4622C260.761 86.0888 261.055 87.5488 261.641 88.8422C262.228 90.1355 263.155 91.3555 264.421 92.5022L263.141 93.5622ZM365.311 92.5022C366.578 91.3555 367.504 90.1355 368.091 88.8422C368.678 87.5488 368.971 86.0888 368.971 84.4622C368.971 82.8355 368.678 81.3755 368.091 80.0822C367.504 78.7888 366.578 77.5688 365.311 76.4222L366.591 75.3622C367.938 76.4822 368.998 77.8022 369.771 79.3222C370.558 80.8422 370.951 82.5555 370.951 84.4622C370.951 86.3688 370.558 88.0822 369.771 89.6022C368.998 91.1222 367.938 92.4422 366.591 93.5622L365.311 92.5022Z" fill="#2E383C"/>
<path d="M50.2019 52.9022C49.8419 52.7555 49.4885 52.6488 49.1419 52.5822C48.8085 52.5155 48.4419 52.4822 48.0419 52.4822C47.2819 52.4822 46.7285 52.6688 46.3819 53.0422C46.0485 53.4022 45.8819 53.9288 45.8819 54.6222V55.2022H49.6219V57.0222H45.8819V65.0222H43.6019V57.0222H40.8819V55.3022L43.6019 55.2022V54.6622C43.6019 54.0888 43.6819 53.5555 43.8419 53.0622C44.0019 52.5688 44.2485 52.1488 44.5819 51.8022C44.9285 51.4422 45.3619 51.1622 45.8819 50.9622C46.4152 50.7622 47.0419 50.6622 47.7619 50.6622C48.2952 50.6622 48.8019 50.7088 49.2819 50.8022C49.7752 50.8955 50.2419 51.0288 50.6819 51.2022L50.2019 52.9022ZM52.0941 60.1222C52.0941 59.3088 52.2274 58.5822 52.4941 57.9422C52.7741 57.3022 53.1407 56.7622 53.5941 56.3222C54.0474 55.8822 54.5741 55.5488 55.1741 55.3222C55.7741 55.0822 56.3941 54.9622 57.0341 54.9622C57.6741 54.9622 58.2941 55.0822 58.8941 55.3222C59.4941 55.5488 60.0207 55.8822 60.4741 56.3222C60.9274 56.7622 61.2874 57.3022 61.5541 57.9422C61.8341 58.5822 61.9741 59.3088 61.9741 60.1222C61.9741 60.9355 61.8341 61.6622 61.5541 62.3022C61.2874 62.9422 60.9274 63.4822 60.4741 63.9222C60.0207 64.3622 59.4941 64.6955 58.8941 64.9222C58.2941 65.1488 57.6741 65.2622 57.0341 65.2622C56.3941 65.2622 55.7741 65.1488 55.1741 64.9222C54.5741 64.6955 54.0474 64.3622 53.5941 63.9222C53.1407 63.4822 52.7741 62.9422 52.4941 62.3022C52.2274 61.6622 52.0941 60.9355 52.0941 60.1222ZM54.4741 60.1222C54.4741 61.1088 54.7007 61.9022 55.1541 62.5022C55.6074 63.0888 56.2341 63.3822 57.0341 63.3822C57.8341 63.3822 58.4607 63.0888 58.9141 62.5022C59.3674 61.9022 59.5941 61.1088 59.5941 60.1222C59.5941 59.1222 59.3674 58.3288 58.9141 57.7422C58.4607 57.1422 57.8341 56.8422 57.0341 56.8422C56.2341 56.8422 55.6074 57.1422 55.1541 57.7422C54.7007 58.3288 54.4741 59.1222 54.4741 60.1222ZM65.6262 55.2022H67.5262L67.7262 57.4222H67.7862C68.2929 56.6222 68.8996 56.0155 69.6062 55.6022C70.3262 55.1755 71.1129 54.9622 71.9662 54.9622C72.3662 54.9622 72.7062 54.9955 72.9862 55.0622C73.2796 55.1155 73.5729 55.2155 73.8662 55.3622L73.3862 57.3022C73.0662 57.1955 72.7796 57.1222 72.5262 57.0822C72.2862 57.0288 71.9796 57.0022 71.6062 57.0022C70.9262 57.0022 70.2729 57.1955 69.6462 57.5822C69.0196 57.9688 68.4529 58.6422 67.9462 59.6022V65.0222H65.6262V55.2022ZM98.1706 52.9022C97.8106 52.7555 97.4573 52.6488 97.1106 52.5822C96.7773 52.5155 96.4106 52.4822 96.0106 52.4822C95.2506 52.4822 94.6973 52.6688 94.3506 53.0422C94.0173 53.4022 93.8506 53.9288 93.8506 54.6222V55.2022H97.5906V57.0222H93.8506V65.0222H91.5706V57.0222H88.8506V55.3022L91.5706 55.2022V54.6622C91.5706 54.0888 91.6506 53.5555 91.8106 53.0622C91.9706 52.5688 92.2173 52.1488 92.5506 51.8022C92.8973 51.4422 93.3306 51.1622 93.8506 50.9622C94.384 50.7622 95.0106 50.6622 95.7306 50.6622C96.264 50.6622 96.7706 50.7088 97.2506 50.8022C97.744 50.8955 98.2106 51.0288 98.6506 51.2022L98.1706 52.9022ZM112.675 55.2022H119.235V65.0222H116.935V57.0222H112.675V55.2022ZM117.915 53.4822C117.448 53.4822 117.055 53.3422 116.735 53.0622C116.428 52.7822 116.275 52.4088 116.275 51.9422C116.275 51.4755 116.428 51.1022 116.735 50.8222C117.055 50.5288 117.448 50.3822 117.915 50.3822C118.395 50.3822 118.788 50.5288 119.095 50.8222C119.402 51.1022 119.555 51.4755 119.555 51.9422C119.555 52.4088 119.402 52.7822 119.095 53.0622C118.788 53.3422 118.395 53.4822 117.915 53.4822ZM124.627 55.2022H126.527L126.707 56.6822H126.787C127.254 56.2155 127.767 55.8155 128.327 55.4822C128.901 55.1355 129.567 54.9622 130.327 54.9622C131.461 54.9622 132.294 55.3088 132.827 56.0022C133.361 56.6822 133.627 57.6622 133.627 58.9422V65.0222H131.307V59.2422C131.307 58.4422 131.167 57.8622 130.887 57.5022C130.621 57.1288 130.147 56.9422 129.467 56.9422C128.987 56.9422 128.561 57.0555 128.187 57.2822C127.814 57.5088 127.401 57.8555 126.947 58.3222V65.0222H124.627V55.2022ZM158.132 52.9022C157.772 52.7555 157.418 52.6488 157.072 52.5822C156.738 52.5155 156.372 52.4822 155.972 52.4822C155.212 52.4822 154.658 52.6688 154.312 53.0422C153.978 53.4022 153.812 53.9288 153.812 54.6222V55.2022H157.552V57.0222H153.812V65.0222H151.532V57.0222H148.812V55.3022L151.532 55.2022V54.6622C151.532 54.0888 151.612 53.5555 151.772 53.0622C151.932 52.5688 152.178 52.1488 152.512 51.8022C152.858 51.4422 153.292 51.1622 153.812 50.9622C154.345 50.7622 154.972 50.6622 155.692 50.6622C156.225 50.6622 156.732 50.7088 157.212 50.8022C157.705 50.8955 158.172 51.0288 158.612 51.2022L158.132 52.9022ZM160.384 50.9022H165.784V61.5622C165.784 62.2288 165.95 62.7022 166.284 62.9822C166.617 63.2488 167.037 63.3822 167.544 63.3822C168.024 63.3822 168.584 63.2555 169.224 63.0022L169.764 64.7022C169.297 64.8622 168.857 64.9955 168.444 65.1022C168.044 65.2088 167.557 65.2622 166.984 65.2622C165.824 65.2622 164.95 64.9288 164.364 64.2622C163.777 63.5955 163.484 62.6555 163.484 61.4422V52.7222H160.384V50.9022ZM172.016 60.1222C172.016 59.3088 172.149 58.5822 172.416 57.9422C172.696 57.3022 173.063 56.7622 173.516 56.3222C173.969 55.8822 174.496 55.5488 175.096 55.3222C175.696 55.0822 176.316 54.9622 176.956 54.9622C177.596 54.9622 178.216 55.0822 178.816 55.3222C179.416 55.5488 179.943 55.8822 180.396 56.3222C180.849 56.7622 181.209 57.3022 181.476 57.9422C181.756 58.5822 181.896 59.3088 181.896 60.1222C181.896 60.9355 181.756 61.6622 181.476 62.3022C181.209 62.9422 180.849 63.4822 180.396 63.9222C179.943 64.3622 179.416 64.6955 178.816 64.9222C178.216 65.1488 177.596 65.2622 176.956 65.2622C176.316 65.2622 175.696 65.1488 175.096 64.9222C174.496 64.6955 173.969 64.3622 173.516 63.9222C173.063 63.4822 172.696 62.9422 172.416 62.3022C172.149 61.6622 172.016 60.9355 172.016 60.1222ZM174.396 60.1222C174.396 61.1088 174.623 61.9022 175.076 62.5022C175.529 63.0888 176.156 63.3822 176.956 63.3822C177.756 63.3822 178.383 63.0888 178.836 62.5022C179.289 61.9022 179.516 61.1088 179.516 60.1222C179.516 59.1222 179.289 58.3288 178.836 57.7422C178.383 57.1422 177.756 56.8422 176.956 56.8422C176.156 56.8422 175.529 57.1422 175.076 57.7422C174.623 58.3288 174.396 59.1222 174.396 60.1222ZM184.368 62.3822C184.368 61.8355 184.495 61.3555 184.748 60.9422C185.001 60.5155 185.401 60.1555 185.948 59.8622C186.495 59.5688 187.195 59.3288 188.048 59.1422C188.901 58.9555 189.935 58.8222 191.148 58.7422C191.108 58.1822 190.908 57.7222 190.548 57.3622C190.188 57.0022 189.608 56.8222 188.808 56.8222C188.248 56.8222 187.695 56.9288 187.148 57.1422C186.615 57.3422 186.095 57.5822 185.588 57.8622L184.748 56.3222C185.348 55.9755 186.035 55.6622 186.808 55.3822C187.581 55.1022 188.388 54.9622 189.228 54.9622C190.601 54.9622 191.648 55.3288 192.368 56.0622C193.088 56.7822 193.448 57.8288 193.448 59.2022V65.0222H191.568L191.388 63.8022H191.328C190.808 64.2022 190.228 64.5488 189.588 64.8422C188.961 65.1222 188.315 65.2622 187.648 65.2622C187.168 65.2622 186.728 65.1888 186.328 65.0422C185.928 64.9088 185.581 64.7155 185.288 64.4622C184.995 64.2088 184.768 63.9088 184.608 63.5622C184.448 63.2022 184.368 62.8088 184.368 62.3822ZM186.588 62.2022C186.588 62.6422 186.755 62.9622 187.088 63.1622C187.435 63.3622 187.855 63.4622 188.348 63.4622C188.841 63.4622 189.315 63.3555 189.768 63.1422C190.235 62.9155 190.695 62.6222 191.148 62.2622V60.1822C190.268 60.2488 189.535 60.3422 188.948 60.4622C188.361 60.5688 187.895 60.7088 187.548 60.8822C187.201 61.0555 186.955 61.2555 186.808 61.4822C186.661 61.6955 186.588 61.9355 186.588 62.2022ZM198.74 57.0222H196.12V55.3022L198.84 55.2022L199.14 52.5222H201.04V55.2022H205.52V57.0222H201.04V61.0622C201.04 61.8755 201.207 62.4755 201.54 62.8622C201.874 63.2355 202.46 63.4222 203.3 63.4222C203.727 63.4222 204.114 63.3888 204.46 63.3222C204.807 63.2422 205.14 63.1422 205.46 63.0222L205.9 64.7022C205.46 64.8488 204.974 64.9755 204.44 65.0822C203.907 65.2022 203.34 65.2622 202.74 65.2622C201.994 65.2622 201.367 65.1622 200.86 64.9622C200.354 64.7622 199.94 64.4822 199.62 64.1222C199.314 63.7488 199.087 63.3022 198.94 62.7822C198.807 62.2622 198.74 61.6888 198.74 61.0622V57.0222ZM209.252 62.2822C209.812 62.6688 210.392 62.9755 210.992 63.2022C211.606 63.4155 212.292 63.5222 213.052 63.5222C213.826 63.5222 214.392 63.4155 214.752 63.2022C215.112 62.9755 215.292 62.6888 215.292 62.3422C215.292 61.9955 215.059 61.7088 214.592 61.4822C214.126 61.2422 213.392 60.9888 212.392 60.7222C211.926 60.6022 211.472 60.4555 211.032 60.2822C210.592 60.1088 210.206 59.9088 209.872 59.6822C209.539 59.4555 209.272 59.1955 209.072 58.9022C208.872 58.6088 208.772 58.2755 208.772 57.9022C208.772 57.0355 209.146 56.3288 209.892 55.7822C210.639 55.2355 211.712 54.9622 213.112 54.9622C213.912 54.9622 214.666 55.0955 215.372 55.3622C216.079 55.6288 216.686 55.9288 217.192 56.2622L216.132 57.6822C215.692 57.3888 215.219 57.1555 214.712 56.9822C214.219 56.7955 213.692 56.7022 213.132 56.7022C212.372 56.7022 211.839 56.8088 211.532 57.0222C211.226 57.2222 211.072 57.4755 211.072 57.7822C211.072 57.9555 211.139 58.1155 211.272 58.2622C211.419 58.3955 211.612 58.5222 211.852 58.6422C212.106 58.7488 212.399 58.8555 212.732 58.9622C213.066 59.0688 213.432 59.1688 213.832 59.2622C214.406 59.4088 214.919 59.5755 215.372 59.7622C215.839 59.9355 216.232 60.1355 216.552 60.3622C216.886 60.5888 217.139 60.8555 217.312 61.1622C217.499 61.4688 217.592 61.8222 217.592 62.2222C217.592 62.6488 217.492 63.0488 217.292 63.4222C217.092 63.7822 216.799 64.1022 216.412 64.3822C216.026 64.6488 215.546 64.8622 214.972 65.0222C214.399 65.1822 213.739 65.2622 212.992 65.2622C212.072 65.2622 211.192 65.1155 210.352 64.8222C209.512 64.5288 208.786 64.1688 208.172 63.7422L209.252 62.2822Z" fill="#9B51E0"/>
<path d="M269.493 80.2022H271.393L271.593 82.4222H271.653C272.16 81.6222 272.767 81.0155 273.473 80.6022C274.193 80.1755 274.98 79.9622 275.833 79.9622C276.233 79.9622 276.573 79.9955 276.853 80.0622C277.147 80.1155 277.44 80.2155 277.733 80.3622L277.253 82.3022C276.933 82.1955 276.647 82.1222 276.393 82.0822C276.153 82.0288 275.847 82.0022 275.473 82.0022C274.793 82.0022 274.14 82.1955 273.513 82.5822C272.887 82.9688 272.32 83.6422 271.813 84.6022V90.0222H269.493V80.2022ZM279.946 85.1222C279.946 84.3088 280.079 83.5822 280.346 82.9422C280.626 82.3022 280.992 81.7622 281.446 81.3222C281.899 80.8822 282.426 80.5488 283.026 80.3222C283.626 80.0822 284.246 79.9622 284.886 79.9622C285.526 79.9622 286.146 80.0822 286.746 80.3222C287.346 80.5488 287.872 80.8822 288.326 81.3222C288.779 81.7622 289.139 82.3022 289.406 82.9422C289.686 83.5822 289.826 84.3088 289.826 85.1222C289.826 85.9355 289.686 86.6622 289.406 87.3022C289.139 87.9422 288.779 88.4822 288.326 88.9222C287.872 89.3622 287.346 89.6955 286.746 89.9222C286.146 90.1488 285.526 90.2622 284.886 90.2622C284.246 90.2622 283.626 90.1488 283.026 89.9222C282.426 89.6955 281.899 89.3622 281.446 88.9222C280.992 88.4822 280.626 87.9422 280.346 87.3022C280.079 86.6622 279.946 85.9355 279.946 85.1222ZM282.326 85.1222C282.326 86.1088 282.552 86.9022 283.006 87.5022C283.459 88.0888 284.086 88.3822 284.886 88.3822C285.686 88.3822 286.312 88.0888 286.766 87.5022C287.219 86.9022 287.446 86.1088 287.446 85.1222C287.446 84.1222 287.219 83.3288 286.766 82.7422C286.312 82.1422 285.686 81.8422 284.886 81.8422C284.086 81.8422 283.459 82.1422 283.006 82.7422C282.552 83.3288 282.326 84.1222 282.326 85.1222ZM301.178 90.0222H299.298L299.118 88.4622H299.038C298.571 89.0088 298.058 89.4488 297.498 89.7822C296.938 90.1022 296.291 90.2622 295.558 90.2622C294.411 90.2622 293.578 89.9222 293.058 89.2422C292.538 88.5488 292.278 87.5622 292.278 86.2822V80.2022H294.578V85.9822C294.578 86.7822 294.711 87.3688 294.978 87.7422C295.258 88.1022 295.738 88.2822 296.418 88.2822C296.884 88.2822 297.298 88.1755 297.658 87.9622C298.031 87.7488 298.438 87.3688 298.878 86.8222V80.2022H301.178V90.0222ZM304.51 80.2022H306.41L306.59 81.6822H306.67C307.137 81.2155 307.65 80.8155 308.21 80.4822C308.783 80.1355 309.45 79.9622 310.21 79.9622C311.343 79.9622 312.177 80.3088 312.71 81.0022C313.243 81.6822 313.51 82.6622 313.51 83.9422V90.0222H311.19V84.2422C311.19 83.4422 311.05 82.8622 310.77 82.5022C310.503 82.1288 310.03 81.9422 309.35 81.9422C308.87 81.9422 308.443 82.0555 308.07 82.2822C307.697 82.5088 307.283 82.8555 306.83 83.3222V90.0222H304.51V80.2022ZM315.922 85.1222C315.922 84.3222 316.042 83.6022 316.282 82.9622C316.522 82.3222 316.842 81.7822 317.242 81.3422C317.656 80.9022 318.122 80.5622 318.642 80.3222C319.162 80.0822 319.702 79.9622 320.262 79.9622C320.849 79.9622 321.349 80.0688 321.762 80.2822C322.189 80.4822 322.602 80.7622 323.002 81.1222L322.902 79.4622V75.9022H325.222V90.0222H323.322L323.142 88.8822H323.082C322.696 89.2688 322.242 89.5955 321.722 89.8622C321.216 90.1288 320.682 90.2622 320.122 90.2622C319.496 90.2622 318.922 90.1488 318.402 89.9222C317.882 89.6822 317.436 89.3422 317.062 88.9022C316.702 88.4622 316.422 87.9288 316.222 87.3022C316.022 86.6622 315.922 85.9355 315.922 85.1222ZM318.302 85.1022C318.302 86.1688 318.509 86.9822 318.922 87.5422C319.336 88.0888 319.922 88.3622 320.682 88.3622C321.496 88.3622 322.236 87.9688 322.902 87.1822V82.7622C322.556 82.4288 322.209 82.1955 321.862 82.0622C321.516 81.9288 321.162 81.8622 320.802 81.8622C320.456 81.8622 320.129 81.9355 319.822 82.0822C319.529 82.2288 319.269 82.4422 319.042 82.7222C318.816 82.9888 318.636 83.3222 318.502 83.7222C318.369 84.1222 318.302 84.5822 318.302 85.1022ZM335.094 93.5622C333.748 92.4422 332.681 91.1222 331.894 89.6022C331.121 88.0822 330.734 86.3688 330.734 84.4622C330.734 82.5555 331.121 80.8422 331.894 79.3222C332.681 77.8022 333.748 76.4822 335.094 75.3622L336.374 76.4222C335.108 77.5688 334.181 78.7888 333.594 80.0822C333.008 81.3755 332.714 82.8355 332.714 84.4622C332.714 86.0888 333.008 87.5488 333.594 88.8422C334.181 90.1355 335.108 91.3555 336.374 92.5022L335.094 93.5622ZM350.007 77.9022C349.647 77.7555 349.293 77.6488 348.947 77.5822C348.613 77.5155 348.247 77.4822 347.847 77.4822C347.087 77.4822 346.533 77.6688 346.187 78.0422C345.853 78.4022 345.687 78.9288 345.687 79.6222V80.2022H349.427V82.0222H345.687V90.0222H343.407V82.0222H340.687V80.3022L343.407 80.2022V79.6622C343.407 79.0888 343.487 78.5555 343.647 78.0622C343.807 77.5688 344.053 77.1488 344.387 76.8022C344.733 76.4422 345.167 76.1622 345.687 75.9622C346.22 75.7622 346.847 75.6622 347.567 75.6622C348.1 75.6622 348.607 75.7088 349.087 75.8022C349.58 75.8955 350.047 76.0288 350.487 76.2022L350.007 77.9022ZM353.319 92.5022C354.585 91.3555 355.512 90.1355 356.099 88.8422C356.685 87.5488 356.979 86.0888 356.979 84.4622C356.979 82.8355 356.685 81.3755 356.099 80.0822C355.512 78.7888 354.585 77.5688 353.319 76.4222L354.599 75.3622C355.945 76.4822 357.005 77.8022 357.779 79.3222C358.565 80.8422 358.959 82.5555 358.959 84.4622C358.959 86.3688 358.565 88.0822 357.779 89.6022C357.005 91.1222 355.945 92.4422 354.599 93.5622L353.319 92.5022Z" fill="#EB5757"/>
</svg>
