<svg width="544" height="212" viewBox="0 0 544 212" version="1.1" xmlns="http://www.w3.org/2000/svg" xmlns:xlink="http://www.w3.org/1999/xlink">
<title>s1m5_avg_young_old</title>
<desc>Created using Figma</desc>
<g id="Canvas" transform="translate(256 145)">
<rect x="-256" y="-145" width="544" height="212" fill="#FFFFFF"/>
<g id="Rectangle">
<use xlink:href="#path0_fill" transform="translate(-192 -63)" fill="#56B4E9"/>
</g>
<g id="Rectangle">
<use xlink:href="#path1_fill" transform="translate(-156 -131)" fill="#009E73"/>
</g>
<g id="Rectangle">
<use xlink:href="#path1_fill" transform="translate(-46 -131)" fill="#56B4E9"/>
</g>
<g id="Rectangle">
<use xlink:href="#path0_fill" transform="translate(-10 -63)" fill="#009E73"/>
</g>
<g id="Line">
<use xlink:href="#path2_stroke" transform="translate(-238 48)"/>
</g>
<g id="Legend">
<use xlink:href="#path3_fill" transform="translate(204 -139)"/>
</g>
<g id="Rectangle 2">
<use xlink:href="#path4_fill" transform="translate(150 -114)" fill="#56B4E9"/>
</g>
<g id="below average">
<use xlink:href="#path5_fill" transform="translate(183 -117)"/>
</g>
<g id="Rectangle 2.1">
<use xlink:href="#path4_fill" transform="translate(150 -94)" fill="#009E73"/>
</g>
<g id="average or above">
<use xlink:href="#path6_fill" transform="translate(183 -97)"/>
</g>
<g id="young">
<use xlink:href="#path7_fill" transform="translate(-176 50)"/>
</g>
<g id="old">
<use xlink:href="#path8_fill" transform="translate(-20 50)"/>
</g>
<g id="Line 2">
<use xlink:href="#path9_stroke" transform="matrix(6.12323e-17 1 -1 6.12323e-17 -238 -145)"/>
</g>
<g id="count">
<use xlink:href="#path10_fill" transform="matrix(2.22045e-16 -1 1 2.22045e-16 -259 -22)"/>
</g>
</g>
<defs>
<path id="path0_fill" d="M 0 0L 36 0L 36 111L 0 111L 0 0Z"/>
<path id="path1_fill" d="M 0 0L 36 0L 36 179L 0 179L 0 0Z"/>
<path id="path2_stroke" d="M 0 0L 309 0L 309 -2L 0 -2L 0 0Z"/>
<path id="path3_fill" d="M 2.69727 11.3525L 6.92188 11.3525L 6.63477 13L 0.407227 13L 2.13672 3.04688L 4.13965 3.04688L 2.69727 11.3525ZM 11.2217 13.1367C 10.5745 13.1322 10.0003 12.9749 9.49902 12.665C 9.00228 12.3506 8.63086 11.9222 8.38477 11.3799C 8.13867 10.833 8.04297 10.2314 8.09766 9.5752L 8.11816 9.30176C 8.18652 8.58171 8.39616 7.9209 8.74707 7.31934C 9.09798 6.71777 9.54915 6.25521 10.1006 5.93164C 10.652 5.60352 11.2627 5.44857 11.9326 5.4668C 12.8851 5.48503 13.6051 5.83594 14.0928 6.51953C 14.585 7.19857 14.7718 8.0599 14.6533 9.10352L 14.5439 9.94434L 10.0117 9.94434C 9.99349 10.4229 10.1097 10.8057 10.3604 11.0928C 10.611 11.3799 10.9528 11.528 11.3857 11.5371C 12.0876 11.5553 12.7028 11.2842 13.2314 10.7236L 14.1133 11.8174C 13.8353 12.2367 13.4342 12.5648 12.9102 12.8018C 12.3861 13.0342 11.8232 13.1458 11.2217 13.1367ZM 11.8369 7.05957C 11.4814 7.05046 11.1647 7.16211 10.8867 7.39453C 10.6133 7.62695 10.3672 8.03027 10.1484 8.60449L 12.8008 8.60449L 12.8418 8.42676C 12.8691 8.24447 12.8714 8.07129 12.8486 7.90723C 12.8031 7.6429 12.6914 7.43783 12.5137 7.29199C 12.3359 7.1416 12.1104 7.06413 11.8369 7.05957ZM 15.4873 9.29492C 15.624 8.15104 15.9954 7.22363 16.6016 6.5127C 17.2122 5.7972 17.9801 5.44629 18.9053 5.45996C 19.6937 5.47819 20.2816 5.76302 20.6689 6.31445L 20.9219 5.59668L 22.6924 5.60352L 21.4824 12.7471C 21.3503 13.7314 20.931 14.5107 20.2246 15.085C 19.5182 15.6592 18.6432 15.9372 17.5996 15.9189C 17.0892 15.9098 16.6016 15.7982 16.1367 15.584C 15.6719 15.3743 15.2891 15.085 14.9883 14.7158L 15.9453 13.54C 16.3737 14.0824 16.9115 14.3626 17.5586 14.3809C 18.0599 14.3991 18.4883 14.2669 18.8438 13.9844C 19.1992 13.7064 19.4408 13.3122 19.5684 12.8018L 19.6777 12.3574C 19.14 12.8952 18.5361 13.1549 17.8662 13.1367C 17.1462 13.1276 16.5742 12.861 16.1504 12.3369C 15.7266 11.8083 15.4941 11.1224 15.4531 10.2793C 15.4395 10.0013 15.4508 9.67318 15.4873 9.29492ZM 17.3809 10.1016C 17.3809 10.5299 17.4697 10.874 17.6475 11.1338C 17.8298 11.389 18.0918 11.5234 18.4336 11.5371C 18.9577 11.5553 19.4225 11.332 19.8281 10.8672L 20.4023 7.73633C 20.2064 7.30794 19.8441 7.08464 19.3154 7.06641C 18.8232 7.05273 18.4062 7.25098 18.0645 7.66113C 17.7227 8.07129 17.5085 8.61589 17.4219 9.29492C 17.39 9.6276 17.3763 9.89648 17.3809 10.1016ZM 26.4521 13.1367C 25.805 13.1322 25.2308 12.9749 24.7295 12.665C 24.2327 12.3506 23.8613 11.9222 23.6152 11.3799C 23.3691 10.833 23.2734 10.2314 23.3281 9.5752L 23.3486 9.30176C 23.417 8.58171 23.6266 7.9209 23.9775 7.31934C 24.3285 6.71777 24.7796 6.25521 25.3311 5.93164C 25.8825 5.60352 26.4932 5.44857 27.1631 5.4668C 28.1156 5.48503 28.8356 5.83594 29.3232 6.51953C 29.8154 7.19857 30.0023 8.0599 29.8838 9.10352L 29.7744 9.94434L 25.2422 9.94434C 25.224 10.4229 25.3402 10.8057 25.5908 11.0928C 25.8415 11.3799 26.1833 11.528 26.6162 11.5371C 27.318 11.5553 27.9333 11.2842 28.4619 10.7236L 29.3438 11.8174C 29.0658 12.2367 28.6647 12.5648 28.1406 12.8018C 27.6165 13.0342 27.0537 13.1458 26.4521 13.1367ZM 27.0674 7.05957C 26.7119 7.05046 26.3952 7.16211 26.1172 7.39453C 25.8438 7.62695 25.5977 8.03027 25.3789 8.60449L 28.0312 8.60449L 28.0723 8.42676C 28.0996 8.24447 28.1019 8.07129 28.0791 7.90723C 28.0335 7.6429 27.9219 7.43783 27.7441 7.29199C 27.5664 7.1416 27.3408 7.06413 27.0674 7.05957ZM 33.3975 5.59668L 33.2334 6.47168C 33.8258 5.78353 34.5436 5.44857 35.3867 5.4668C 36.084 5.48047 36.599 5.73568 36.9316 6.23242C 37.2643 6.72917 37.3851 7.41732 37.2939 8.29688L 36.5146 13L 34.5869 13L 35.3799 8.27637C 35.4027 8.09863 35.4072 7.93685 35.3936 7.79102C 35.3343 7.32617 35.0426 7.08691 34.5186 7.07324C 34.0127 7.05501 33.5592 7.28971 33.1582 7.77734L 32.2354 13L 30.3076 13L 31.5928 5.60352L 33.3975 5.59668ZM 41.7031 5.45996C 42.3913 5.47819 42.9473 5.75391 43.3711 6.28711L 44.0957 2.5L 46.0303 2.5L 44.2119 13L 42.4893 13L 42.5986 12.207C 42.0472 12.8496 41.4046 13.1618 40.6709 13.1436C 40.2106 13.139 39.8073 13.0182 39.4609 12.7812C 39.1146 12.5443 38.8457 12.2048 38.6543 11.7627C 38.4674 11.3161 38.3649 10.8193 38.3467 10.2725C 38.333 9.98535 38.3398 9.70736 38.3672 9.43848L 38.4082 9.13086C 38.5176 8.37435 38.7272 7.70898 39.0371 7.13477C 39.3516 6.56055 39.7344 6.13444 40.1855 5.85645C 40.6413 5.57845 41.1471 5.44629 41.7031 5.45996ZM 40.3018 9.43848C 40.2653 9.78483 40.2539 10.0765 40.2676 10.3135C 40.3132 11.1156 40.6367 11.5234 41.2383 11.5371C 41.7806 11.5599 42.2523 11.3047 42.6533 10.7715L 43.1797 7.83203C 43.002 7.3444 42.6465 7.08919 42.1133 7.06641C 41.6439 7.05273 41.252 7.23503 40.9375 7.61328C 40.6276 7.98698 40.4157 8.59538 40.3018 9.43848Z"/>
<path id="path4_fill" d="M 0 0L 26 0L 26 11L 0 11L 0 0Z"/>
<path id="path5_fill" d="M 7.01074 9.33594C 6.9196 10.0924 6.71224 10.7738 6.38867 11.3799C 6.0651 11.986 5.67318 12.4349 5.21289 12.7266C 4.7526 13.0182 4.24219 13.1572 3.68164 13.1436C 2.78841 13.1253 2.12533 12.7904 1.69238 12.1387L 1.43945 13L 0.297852 13L 2.12305 2.5L 3.36035 2.5L 2.61523 6.42383C 3.20768 5.76758 3.92773 5.44857 4.77539 5.4668C 5.48633 5.48503 6.04004 5.74707 6.43652 6.25293C 6.83301 6.75879 7.04264 7.45605 7.06543 8.34473C 7.06999 8.63639 7.05632 8.91895 7.02441 9.19238L 7.01074 9.33594ZM 5.83496 8.61816C 5.84863 7.9528 5.73698 7.44466 5.5 7.09375C 5.26302 6.73828 4.90072 6.55143 4.41309 6.5332C 3.6429 6.51497 2.99121 6.90234 2.45801 7.69531L 1.9043 10.915C 2.17773 11.667 2.69043 12.0521 3.44238 12.0703C 3.92546 12.0885 4.34701 11.945 4.70703 11.6396C 5.07161 11.3343 5.34733 10.9082 5.53418 10.3613C 5.72103 9.8099 5.82129 9.22884 5.83496 8.61816ZM 11.1943 13.1367C 10.2738 13.1185 9.55371 12.779 9.03418 12.1182C 8.51465 11.4574 8.2959 10.612 8.37793 9.58203L 8.41211 9.28809C 8.48958 8.55436 8.70605 7.88444 9.06152 7.27832C 9.42155 6.6722 9.85905 6.21647 10.374 5.91113C 10.889 5.60124 11.445 5.45312 12.042 5.4668C 12.8031 5.48503 13.4001 5.73796 13.833 6.22559C 14.266 6.71322 14.5029 7.37402 14.5439 8.20801C 14.5576 8.50423 14.5485 8.80046 14.5166 9.09668L 14.4414 9.66406L 9.6084 9.66406C 9.52637 10.334 9.63574 10.9036 9.93652 11.373C 10.2419 11.8424 10.6953 12.0863 11.2969 12.1045C 12.026 12.1227 12.7005 11.7946 13.3203 11.1201L 14.0312 11.7217C 13.7214 12.1683 13.3203 12.5192 12.8281 12.7744C 12.3405 13.0251 11.7959 13.1458 11.1943 13.1367ZM 11.9805 6.49902C 11.4701 6.48535 11.0234 6.65853 10.6406 7.01855C 10.2624 7.37858 9.96159 7.91406 9.73828 8.625L 13.334 8.63184L 13.3613 8.52246C 13.4342 7.94824 13.3408 7.47201 13.0811 7.09375C 12.8258 6.71094 12.459 6.5127 11.9805 6.49902ZM 16.5947 13L 15.3643 13L 17.1826 2.5L 18.4199 2.5L 16.5947 13ZM 22.7266 5.4668C 23.3464 5.47591 23.8773 5.64453 24.3193 5.97266C 24.7614 6.30078 25.0872 6.75423 25.2969 7.33301C 25.5111 7.90723 25.584 8.53613 25.5156 9.21973L 25.502 9.37012C 25.4154 10.0902 25.2012 10.7419 24.8594 11.3252C 24.5176 11.904 24.0755 12.3551 23.5332 12.6787C 22.9909 13.0023 22.3962 13.1549 21.749 13.1367C 21.1338 13.1276 20.6029 12.959 20.1562 12.6309C 19.7142 12.3027 19.3906 11.8561 19.1855 11.291C 18.9805 10.7259 18.9076 10.1038 18.9668 9.4248C 19.0352 8.65918 19.2425 7.97103 19.5889 7.36035C 19.9352 6.74967 20.3796 6.27799 20.9219 5.94531C 21.4688 5.60807 22.0703 5.44857 22.7266 5.4668ZM 20.2109 9.43164C 20.179 9.71875 20.179 10.0173 20.2109 10.3271C 20.2565 10.8649 20.416 11.2933 20.6895 11.6123C 20.9674 11.9313 21.3366 12.0977 21.7969 12.1113C 22.207 12.125 22.5853 12.0247 22.9316 11.8105C 23.278 11.5918 23.5697 11.2637 23.8066 10.8262C 24.0436 10.3887 24.1963 9.90332 24.2646 9.37012C 24.3011 8.95085 24.3079 8.59766 24.2852 8.31055C 24.2305 7.75911 24.0641 7.32389 23.7861 7.00488C 23.5081 6.68587 23.139 6.51725 22.6787 6.49902C 22.0407 6.48535 21.4984 6.736 21.0518 7.25098C 20.6051 7.76595 20.3294 8.44043 20.2246 9.27441L 20.2109 9.43164ZM 33.0762 11.25L 35.4346 5.60352L 36.7129 5.60352L 33.3428 13L 32.3379 13L 31.5723 7.4082L 28.9062 13L 27.9014 13L 27.1016 5.60352L 28.2842 5.60352L 28.7354 11.1133L 31.3604 5.60352L 32.3584 5.60352L 33.0762 11.25ZM 44.6768 13C 44.6449 12.8678 44.6289 12.738 44.6289 12.6104L 44.6494 12.2207C 43.9704 12.8496 43.2503 13.1549 42.4893 13.1367C 41.8376 13.1276 41.3066 12.9225 40.8965 12.5215C 40.4909 12.1159 40.3063 11.61 40.3428 11.0039C 40.3883 10.2201 40.7301 9.60938 41.3682 9.17188C 42.0107 8.72982 42.8538 8.50879 43.8975 8.50879L 45.1895 8.51562L 45.2715 7.92773C 45.3171 7.48568 45.2305 7.13704 45.0117 6.88184C 44.7975 6.62207 44.474 6.48763 44.041 6.47852C 43.6172 6.4694 43.2412 6.57422 42.9131 6.79297C 42.5895 7.00716 42.3913 7.29199 42.3184 7.64746L 41.0742 7.6543C 41.1152 7.22135 41.2839 6.83854 41.5801 6.50586C 41.8763 6.16862 42.2568 5.90885 42.7217 5.72656C 43.1865 5.53971 43.6673 5.45085 44.1641 5.45996C 44.9342 5.47819 45.5335 5.71289 45.9619 6.16406C 46.3903 6.61068 46.5703 7.2054 46.502 7.94824L 45.9004 11.6123L 45.8662 12.1387C 45.8571 12.3893 45.8844 12.6377 45.9482 12.8838L 45.9346 13L 44.6768 13ZM 42.7354 12.043C 43.1318 12.0521 43.5055 11.9587 43.8564 11.7627C 44.2119 11.5622 44.5173 11.2865 44.7725 10.9355L 45.0391 9.41113L 44.1025 9.4043C 43.3232 9.4043 42.7262 9.52734 42.3115 9.77344C 41.8968 10.0195 41.6621 10.3682 41.6074 10.8193C 41.5664 11.1657 41.6462 11.4551 41.8467 11.6875C 42.0518 11.9154 42.348 12.0339 42.7354 12.043ZM 50.1934 11.2705L 52.8594 5.60352L 54.165 5.60352L 50.4395 13L 49.4961 13L 48.0469 5.60352L 49.2637 5.60352L 50.1934 11.2705ZM 57.2549 13.1367C 56.3343 13.1185 55.6143 12.779 55.0947 12.1182C 54.5752 11.4574 54.3564 10.612 54.4385 9.58203L 54.4727 9.28809C 54.5501 8.55436 54.7666 7.88444 55.1221 7.27832C 55.4821 6.6722 55.9196 6.21647 56.4346 5.91113C 56.9495 5.60124 57.5055 5.45312 58.1025 5.4668C 58.8636 5.48503 59.4606 5.73796 59.8936 6.22559C 60.3265 6.71322 60.5635 7.37402 60.6045 8.20801C 60.6182 8.50423 60.609 8.80046 60.5771 9.09668L 60.502 9.66406L 55.6689 9.66406C 55.5869 10.334 55.6963 10.9036 55.9971 11.373C 56.3024 11.8424 56.7559 12.0863 57.3574 12.1045C 58.0866 12.1227 58.7611 11.7946 59.3809 11.1201L 60.0918 11.7217C 59.7819 12.1683 59.3809 12.5192 58.8887 12.7744C 58.401 13.0251 57.8564 13.1458 57.2549 13.1367ZM 58.041 6.49902C 57.5306 6.48535 57.084 6.65853 56.7012 7.01855C 56.3229 7.37858 56.0221 7.91406 55.7988 8.625L 59.3945 8.63184L 59.4219 8.52246C 59.4948 7.94824 59.4014 7.47201 59.1416 7.09375C 58.8864 6.71094 58.5195 6.5127 58.041 6.49902ZM 65.916 6.73145L 65.335 6.66992C 64.542 6.66992 63.9176 7.02767 63.4619 7.74316L 62.5527 13L 61.3154 13L 62.6006 5.60352L 63.7969 5.59668L 63.6123 6.45801C 64.1364 5.76986 64.7539 5.4349 65.4648 5.45312C 65.6152 5.45312 65.8112 5.4873 66.0527 5.55566L 65.916 6.73145ZM 70.2295 13C 70.1976 12.8678 70.1816 12.738 70.1816 12.6104L 70.2021 12.2207C 69.5231 12.8496 68.8031 13.1549 68.042 13.1367C 67.3903 13.1276 66.8594 12.9225 66.4492 12.5215C 66.0436 12.1159 65.859 11.61 65.8955 11.0039C 65.9411 10.2201 66.2829 9.60938 66.9209 9.17188C 67.5635 8.72982 68.4066 8.50879 69.4502 8.50879L 70.7422 8.51562L 70.8242 7.92773C 70.8698 7.48568 70.7832 7.13704 70.5645 6.88184C 70.3503 6.62207 70.0267 6.48763 69.5938 6.47852C 69.1699 6.4694 68.7939 6.57422 68.4658 6.79297C 68.1423 7.00716 67.944 7.29199 67.8711 7.64746L 66.627 7.6543C 66.668 7.22135 66.8366 6.83854 67.1328 6.50586C 67.429 6.16862 67.8096 5.90885 68.2744 5.72656C 68.7393 5.53971 69.2201 5.45085 69.7168 5.45996C 70.487 5.47819 71.0863 5.71289 71.5146 6.16406C 71.943 6.61068 72.123 7.2054 72.0547 7.94824L 71.4531 11.6123L 71.4189 12.1387C 71.4098 12.3893 71.4372 12.6377 71.501 12.8838L 71.4873 13L 70.2295 13ZM 68.2881 12.043C 68.6846 12.0521 69.0583 11.9587 69.4092 11.7627C 69.7646 11.5622 70.07 11.2865 70.3252 10.9355L 70.5918 9.41113L 69.6553 9.4043C 68.876 9.4043 68.279 9.52734 67.8643 9.77344C 67.4495 10.0195 67.2148 10.3682 67.1602 10.8193C 67.1191 11.1657 67.1989 11.4551 67.3994 11.6875C 67.6045 11.9154 67.9007 12.0339 68.2881 12.043ZM 73.5312 9.28809C 73.6406 8.48145 73.8571 7.7819 74.1807 7.18945C 74.5088 6.59245 74.9053 6.15267 75.3701 5.87012C 75.8395 5.58301 76.3522 5.44629 76.9082 5.45996C 77.765 5.47819 78.4121 5.80176 78.8496 6.43066L 79.0957 5.60352L 80.2305 5.60352L 79 12.8428C 78.8678 13.7861 78.485 14.5404 77.8516 15.1055C 77.2181 15.6751 76.4365 15.9463 75.5068 15.9189C 75.0055 15.9098 74.5247 15.7913 74.0645 15.5635C 73.6087 15.3356 73.2487 15.0234 72.9844 14.627L 73.6885 13.8682C 74.1351 14.529 74.7253 14.8685 75.459 14.8867C 76.0469 14.9049 76.5436 14.7409 76.9492 14.3945C 77.3594 14.0482 77.6305 13.556 77.7627 12.918L 77.8994 12.2617C 77.2979 12.8633 76.5938 13.1549 75.7871 13.1367C 75.3268 13.123 74.9258 13 74.584 12.7676C 74.2467 12.5306 73.9847 12.1911 73.7979 11.749C 73.611 11.3024 73.5085 10.8057 73.4902 10.2588C 73.4811 9.98991 73.4948 9.66634 73.5312 9.28809ZM 74.7275 9.99219C 74.7139 10.6439 74.8255 11.1497 75.0625 11.5098C 75.304 11.8652 75.6663 12.0521 76.1494 12.0703C 76.8877 12.0885 77.5234 11.7262 78.0566 10.9834L 78.6377 7.58594C 78.3643 6.91146 77.8698 6.56055 77.1543 6.5332C 76.4844 6.51497 75.9329 6.78841 75.5 7.35352C 75.0716 7.91862 74.8187 8.68197 74.7412 9.64355L 74.7275 9.99219ZM 84.0654 13.1367C 83.1449 13.1185 82.4248 12.779 81.9053 12.1182C 81.3857 11.4574 81.167 10.612 81.249 9.58203L 81.2832 9.28809C 81.3607 8.55436 81.5771 7.88444 81.9326 7.27832C 82.2926 6.6722 82.7301 6.21647 83.2451 5.91113C 83.7601 5.60124 84.3161 5.45312 84.9131 5.4668C 85.6742 5.48503 86.2712 5.73796 86.7041 6.22559C 87.137 6.71322 87.374 7.37402 87.415 8.20801C 87.4287 8.50423 87.4196 8.80046 87.3877 9.09668L 87.3125 9.66406L 82.4795 9.66406C 82.3975 10.334 82.5068 10.9036 82.8076 11.373C 83.113 11.8424 83.5664 12.0863 84.168 12.1045C 84.8971 12.1227 85.5716 11.7946 86.1914 11.1201L 86.9023 11.7217C 86.5924 12.1683 86.1914 12.5192 85.6992 12.7744C 85.2116 13.0251 84.667 13.1458 84.0654 13.1367ZM 84.8516 6.49902C 84.3411 6.48535 83.8945 6.65853 83.5117 7.01855C 83.1335 7.37858 82.8327 7.91406 82.6094 8.625L 86.2051 8.63184L 86.2324 8.52246C 86.3053 7.94824 86.2119 7.47201 85.9521 7.09375C 85.6969 6.71094 85.3301 6.5127 84.8516 6.49902Z"/>
<path id="path6_fill" d="M 5.23633 13C 5.20443 12.8678 5.18848 12.738 5.18848 12.6104L 5.20898 12.2207C 4.52995 12.8496 3.8099 13.1549 3.04883 13.1367C 2.39714 13.1276 1.86621 12.9225 1.45605 12.5215C 1.05046 12.1159 0.865885 11.61 0.902344 11.0039C 0.947917 10.2201 1.28971 9.60938 1.92773 9.17188C 2.57031 8.72982 3.41341 8.50879 4.45703 8.50879L 5.74902 8.51562L 5.83105 7.92773C 5.87663 7.48568 5.79004 7.13704 5.57129 6.88184C 5.3571 6.62207 5.03353 6.48763 4.60059 6.47852C 4.17676 6.4694 3.80078 6.57422 3.47266 6.79297C 3.14909 7.00716 2.95085 7.29199 2.87793 7.64746L 1.63379 7.6543C 1.6748 7.22135 1.84342 6.83854 2.13965 6.50586C 2.43587 6.16862 2.81641 5.90885 3.28125 5.72656C 3.74609 5.53971 4.22689 5.45085 4.72363 5.45996C 5.49382 5.47819 6.0931 5.71289 6.52148 6.16406C 6.94987 6.61068 7.12988 7.2054 7.06152 7.94824L 6.45996 11.6123L 6.42578 12.1387C 6.41667 12.3893 6.44401 12.6377 6.50781 12.8838L 6.49414 13L 5.23633 13ZM 3.29492 12.043C 3.69141 12.0521 4.0651 11.9587 4.41602 11.7627C 4.77148 11.5622 5.07682 11.2865 5.33203 10.9355L 5.59863 9.41113L 4.66211 9.4043C 3.88281 9.4043 3.28581 9.52734 2.87109 9.77344C 2.45638 10.0195 2.22168 10.3682 2.16699 10.8193C 2.12598 11.1657 2.20573 11.4551 2.40625 11.6875C 2.61133 11.9154 2.90755 12.0339 3.29492 12.043ZM 10.7529 11.2705L 13.4189 5.60352L 14.7246 5.60352L 10.999 13L 10.0557 13L 8.60645 5.60352L 9.82324 5.60352L 10.7529 11.2705ZM 17.8145 13.1367C 16.8939 13.1185 16.1738 12.779 15.6543 12.1182C 15.1348 11.4574 14.916 10.612 14.998 9.58203L 15.0322 9.28809C 15.1097 8.55436 15.3262 7.88444 15.6816 7.27832C 16.0417 6.6722 16.4792 6.21647 16.9941 5.91113C 17.5091 5.60124 18.0651 5.45312 18.6621 5.4668C 19.4232 5.48503 20.0202 5.73796 20.4531 6.22559C 20.8861 6.71322 21.123 7.37402 21.1641 8.20801C 21.1777 8.50423 21.1686 8.80046 21.1367 9.09668L 21.0615 9.66406L 16.2285 9.66406C 16.1465 10.334 16.2559 10.9036 16.5566 11.373C 16.862 11.8424 17.3154 12.0863 17.917 12.1045C 18.6462 12.1227 19.3206 11.7946 19.9404 11.1201L 20.6514 11.7217C 20.3415 12.1683 19.9404 12.5192 19.4482 12.7744C 18.9606 13.0251 18.416 13.1458 17.8145 13.1367ZM 18.6006 6.49902C 18.0902 6.48535 17.6436 6.65853 17.2607 7.01855C 16.8825 7.37858 16.5817 7.91406 16.3584 8.625L 19.9541 8.63184L 19.9814 8.52246C 20.0544 7.94824 19.9609 7.47201 19.7012 7.09375C 19.446 6.71094 19.0791 6.5127 18.6006 6.49902ZM 26.4756 6.73145L 25.8945 6.66992C 25.1016 6.66992 24.4772 7.02767 24.0215 7.74316L 23.1123 13L 21.875 13L 23.1602 5.60352L 24.3564 5.59668L 24.1719 6.45801C 24.696 5.76986 25.3135 5.4349 26.0244 5.45312C 26.1748 5.45312 26.3708 5.4873 26.6123 5.55566L 26.4756 6.73145ZM 30.7891 13C 30.7572 12.8678 30.7412 12.738 30.7412 12.6104L 30.7617 12.2207C 30.0827 12.8496 29.3626 13.1549 28.6016 13.1367C 27.9499 13.1276 27.4189 12.9225 27.0088 12.5215C 26.6032 12.1159 26.4186 11.61 26.4551 11.0039C 26.5007 10.2201 26.8424 9.60938 27.4805 9.17188C 28.123 8.72982 28.9661 8.50879 30.0098 8.50879L 31.3018 8.51562L 31.3838 7.92773C 31.4294 7.48568 31.3428 7.13704 31.124 6.88184C 30.9098 6.62207 30.5863 6.48763 30.1533 6.47852C 29.7295 6.4694 29.3535 6.57422 29.0254 6.79297C 28.7018 7.00716 28.5036 7.29199 28.4307 7.64746L 27.1865 7.6543C 27.2275 7.22135 27.3962 6.83854 27.6924 6.50586C 27.9886 6.16862 28.3691 5.90885 28.834 5.72656C 29.2988 5.53971 29.7796 5.45085 30.2764 5.45996C 31.0465 5.47819 31.6458 5.71289 32.0742 6.16406C 32.5026 6.61068 32.6826 7.2054 32.6143 7.94824L 32.0127 11.6123L 31.9785 12.1387C 31.9694 12.3893 31.9967 12.6377 32.0605 12.8838L 32.0469 13L 30.7891 13ZM 28.8477 12.043C 29.2441 12.0521 29.6178 11.9587 29.9688 11.7627C 30.3242 11.5622 30.6296 11.2865 30.8848 10.9355L 31.1514 9.41113L 30.2148 9.4043C 29.4355 9.4043 28.8385 9.52734 28.4238 9.77344C 28.0091 10.0195 27.7744 10.3682 27.7197 10.8193C 27.6787 11.1657 27.7585 11.4551 27.959 11.6875C 28.1641 11.9154 28.4603 12.0339 28.8477 12.043ZM 34.0908 9.28809C 34.2002 8.48145 34.4167 7.7819 34.7402 7.18945C 35.0684 6.59245 35.4648 6.15267 35.9297 5.87012C 36.3991 5.58301 36.9118 5.44629 37.4678 5.45996C 38.3245 5.47819 38.9717 5.80176 39.4092 6.43066L 39.6553 5.60352L 40.79 5.60352L 39.5596 12.8428C 39.4274 13.7861 39.0446 14.5404 38.4111 15.1055C 37.7777 15.6751 36.9961 15.9463 36.0664 15.9189C 35.5651 15.9098 35.0843 15.7913 34.624 15.5635C 34.1683 15.3356 33.8083 15.0234 33.5439 14.627L 34.248 13.8682C 34.6947 14.529 35.2848 14.8685 36.0186 14.8867C 36.6064 14.9049 37.1032 14.7409 37.5088 14.3945C 37.9189 14.0482 38.1901 13.556 38.3223 12.918L 38.459 12.2617C 37.8574 12.8633 37.1533 13.1549 36.3467 13.1367C 35.8864 13.123 35.4854 13 35.1436 12.7676C 34.8063 12.5306 34.5443 12.1911 34.3574 11.749C 34.1706 11.3024 34.068 10.8057 34.0498 10.2588C 34.0407 9.98991 34.0544 9.66634 34.0908 9.28809ZM 35.2871 9.99219C 35.2734 10.6439 35.3851 11.1497 35.6221 11.5098C 35.8636 11.8652 36.2259 12.0521 36.709 12.0703C 37.4473 12.0885 38.083 11.7262 38.6162 10.9834L 39.1973 7.58594C 38.9238 6.91146 38.4294 6.56055 37.7139 6.5332C 37.0439 6.51497 36.4925 6.78841 36.0596 7.35352C 35.6312 7.91862 35.3783 8.68197 35.3008 9.64355L 35.2871 9.99219ZM 44.625 13.1367C 43.7044 13.1185 42.9844 12.779 42.4648 12.1182C 41.9453 11.4574 41.7266 10.612 41.8086 9.58203L 41.8428 9.28809C 41.9202 8.55436 42.1367 7.88444 42.4922 7.27832C 42.8522 6.6722 43.2897 6.21647 43.8047 5.91113C 44.3197 5.60124 44.8757 5.45312 45.4727 5.4668C 46.2337 5.48503 46.8307 5.73796 47.2637 6.22559C 47.6966 6.71322 47.9336 7.37402 47.9746 8.20801C 47.9883 8.50423 47.9792 8.80046 47.9473 9.09668L 47.8721 9.66406L 43.0391 9.66406C 42.957 10.334 43.0664 10.9036 43.3672 11.373C 43.6725 11.8424 44.126 12.0863 44.7275 12.1045C 45.4567 12.1227 46.1312 11.7946 46.751 11.1201L 47.4619 11.7217C 47.152 12.1683 46.751 12.5192 46.2588 12.7744C 45.7712 13.0251 45.2266 13.1458 44.625 13.1367ZM 45.4111 6.49902C 44.9007 6.48535 44.4541 6.65853 44.0713 7.01855C 43.693 7.37858 43.3923 7.91406 43.1689 8.625L 46.7646 8.63184L 46.792 8.52246C 46.8649 7.94824 46.7715 7.47201 46.5117 7.09375C 46.2565 6.71094 45.8896 6.5127 45.4111 6.49902ZM 56.2256 5.4668C 56.8454 5.47591 57.3763 5.64453 57.8184 5.97266C 58.2604 6.30078 58.5863 6.75423 58.7959 7.33301C 59.0101 7.90723 59.083 8.53613 59.0146 9.21973L 59.001 9.37012C 58.9144 10.0902 58.7002 10.7419 58.3584 11.3252C 58.0166 11.904 57.5745 12.3551 57.0322 12.6787C 56.4899 13.0023 55.8952 13.1549 55.248 13.1367C 54.6328 13.1276 54.1019 12.959 53.6553 12.6309C 53.2132 12.3027 52.8896 11.8561 52.6846 11.291C 52.4795 10.7259 52.4066 10.1038 52.4658 9.4248C 52.5342 8.65918 52.7415 7.97103 53.0879 7.36035C 53.4342 6.74967 53.8786 6.27799 54.4209 5.94531C 54.9678 5.60807 55.5693 5.44857 56.2256 5.4668ZM 53.71 9.43164C 53.6781 9.71875 53.6781 10.0173 53.71 10.3271C 53.7555 10.8649 53.915 11.2933 54.1885 11.6123C 54.4665 11.9313 54.8356 12.0977 55.2959 12.1113C 55.7061 12.125 56.0843 12.0247 56.4307 11.8105C 56.777 11.5918 57.0687 11.2637 57.3057 10.8262C 57.5426 10.3887 57.6953 9.90332 57.7637 9.37012C 57.8001 8.95085 57.807 8.59766 57.7842 8.31055C 57.7295 7.75911 57.5632 7.32389 57.2852 7.00488C 57.0072 6.68587 56.638 6.51725 56.1777 6.49902C 55.5397 6.48535 54.9974 6.736 54.5508 7.25098C 54.1042 7.76595 53.8285 8.44043 53.7236 9.27441L 53.71 9.43164ZM 64.5381 6.73145L 63.957 6.66992C 63.1641 6.66992 62.5397 7.02767 62.084 7.74316L 61.1748 13L 59.9375 13L 61.2227 5.60352L 62.4189 5.59668L 62.2344 6.45801C 62.7585 5.76986 63.376 5.4349 64.0869 5.45312C 64.2373 5.45312 64.4333 5.4873 64.6748 5.55566L 64.5381 6.73145ZM 72.5566 13C 72.5247 12.8678 72.5088 12.738 72.5088 12.6104L 72.5293 12.2207C 71.8503 12.8496 71.1302 13.1549 70.3691 13.1367C 69.7174 13.1276 69.1865 12.9225 68.7764 12.5215C 68.3708 12.1159 68.1862 11.61 68.2227 11.0039C 68.2682 10.2201 68.61 9.60938 69.248 9.17188C 69.8906 8.72982 70.7337 8.50879 71.7773 8.50879L 73.0693 8.51562L 73.1514 7.92773C 73.1969 7.48568 73.1104 7.13704 72.8916 6.88184C 72.6774 6.62207 72.3538 6.48763 71.9209 6.47852C 71.4971 6.4694 71.1211 6.57422 70.793 6.79297C 70.4694 7.00716 70.2712 7.29199 70.1982 7.64746L 68.9541 7.6543C 68.9951 7.22135 69.1637 6.83854 69.46 6.50586C 69.7562 6.16862 70.1367 5.90885 70.6016 5.72656C 71.0664 5.53971 71.5472 5.45085 72.0439 5.45996C 72.8141 5.47819 73.4134 5.71289 73.8418 6.16406C 74.2702 6.61068 74.4502 7.2054 74.3818 7.94824L 73.7803 11.6123L 73.7461 12.1387C 73.737 12.3893 73.7643 12.6377 73.8281 12.8838L 73.8145 13L 72.5566 13ZM 70.6152 12.043C 71.0117 12.0521 71.3854 11.9587 71.7363 11.7627C 72.0918 11.5622 72.3971 11.2865 72.6523 10.9355L 72.9189 9.41113L 71.9824 9.4043C 71.2031 9.4043 70.6061 9.52734 70.1914 9.77344C 69.7767 10.0195 69.542 10.3682 69.4873 10.8193C 69.4463 11.1657 69.526 11.4551 69.7266 11.6875C 69.9316 11.9154 70.2279 12.0339 70.6152 12.043ZM 82.209 9.33594C 82.1178 10.0924 81.9105 10.7738 81.5869 11.3799C 81.2633 11.986 80.8714 12.4349 80.4111 12.7266C 79.9508 13.0182 79.4404 13.1572 78.8799 13.1436C 77.9867 13.1253 77.3236 12.7904 76.8906 12.1387L 76.6377 13L 75.4961 13L 77.3213 2.5L 78.5586 2.5L 77.8135 6.42383C 78.4059 5.76758 79.126 5.44857 79.9736 5.4668C 80.6846 5.48503 81.2383 5.74707 81.6348 6.25293C 82.0312 6.75879 82.2409 7.45605 82.2637 8.34473C 82.2682 8.63639 82.2546 8.91895 82.2227 9.19238L 82.209 9.33594ZM 81.0332 8.61816C 81.0469 7.9528 80.9352 7.44466 80.6982 7.09375C 80.4613 6.73828 80.099 6.55143 79.6113 6.5332C 78.8411 6.51497 78.1895 6.90234 77.6562 7.69531L 77.1025 10.915C 77.376 11.667 77.8887 12.0521 78.6406 12.0703C 79.1237 12.0885 79.5452 11.945 79.9053 11.6396C 80.2699 11.3343 80.5456 10.9082 80.7324 10.3613C 80.9193 9.8099 81.0195 9.22884 81.0332 8.61816ZM 87.3018 5.4668C 87.9215 5.47591 88.4525 5.64453 88.8945 5.97266C 89.3366 6.30078 89.6624 6.75423 89.8721 7.33301C 90.0863 7.90723 90.1592 8.53613 90.0908 9.21973L 90.0771 9.37012C 89.9906 10.0902 89.7764 10.7419 89.4346 11.3252C 89.0928 11.904 88.6507 12.3551 88.1084 12.6787C 87.5661 13.0023 86.9714 13.1549 86.3242 13.1367C 85.709 13.1276 85.1781 12.959 84.7314 12.6309C 84.2894 12.3027 83.9658 11.8561 83.7607 11.291C 83.5557 10.7259 83.4827 10.1038 83.542 9.4248C 83.6104 8.65918 83.8177 7.97103 84.1641 7.36035C 84.5104 6.74967 84.9548 6.27799 85.4971 5.94531C 86.0439 5.60807 86.6455 5.44857 87.3018 5.4668ZM 84.7861 9.43164C 84.7542 9.71875 84.7542 10.0173 84.7861 10.3271C 84.8317 10.8649 84.9912 11.2933 85.2646 11.6123C 85.5426 11.9313 85.9118 12.0977 86.3721 12.1113C 86.7822 12.125 87.1605 12.0247 87.5068 11.8105C 87.8532 11.5918 88.1449 11.2637 88.3818 10.8262C 88.6188 10.3887 88.7715 9.90332 88.8398 9.37012C 88.8763 8.95085 88.8831 8.59766 88.8604 8.31055C 88.8057 7.75911 88.6393 7.32389 88.3613 7.00488C 88.0833 6.68587 87.7142 6.51725 87.2539 6.49902C 86.6159 6.48535 86.0736 6.736 85.627 7.25098C 85.1803 7.76595 84.9046 8.44043 84.7998 9.27441L 84.7861 9.43164ZM 93.5908 11.2705L 96.2568 5.60352L 97.5625 5.60352L 93.8369 13L 92.8936 13L 91.4443 5.60352L 92.6611 5.60352L 93.5908 11.2705ZM 100.652 13.1367C 99.7318 13.1185 99.0117 12.779 98.4922 12.1182C 97.9727 11.4574 97.7539 10.612 97.8359 9.58203L 97.8701 9.28809C 97.9476 8.55436 98.1641 7.88444 98.5195 7.27832C 98.8796 6.6722 99.3171 6.21647 99.832 5.91113C 100.347 5.60124 100.903 5.45312 101.5 5.4668C 102.261 5.48503 102.858 5.73796 103.291 6.22559C 103.724 6.71322 103.961 7.37402 104.002 8.20801C 104.016 8.50423 104.007 8.80046 103.975 9.09668L 103.899 9.66406L 99.0664 9.66406C 98.9844 10.334 99.0938 10.9036 99.3945 11.373C 99.6999 11.8424 100.153 12.0863 100.755 12.1045C 101.484 12.1227 102.159 11.7946 102.778 11.1201L 103.489 11.7217C 103.179 12.1683 102.778 12.5192 102.286 12.7744C 101.799 13.0251 101.254 13.1458 100.652 13.1367ZM 101.438 6.49902C 100.928 6.48535 100.481 6.65853 100.099 7.01855C 99.7204 7.37858 99.4196 7.91406 99.1963 8.625L 102.792 8.63184L 102.819 8.52246C 102.892 7.94824 102.799 7.47201 102.539 7.09375C 102.284 6.71094 101.917 6.5127 101.438 6.49902Z"/>
<path id="path7_fill" d="M 3.30469 10.1836L 5.41699 5.60352L 7.56348 5.60352L 3.23633 14.1143C 2.92643 14.766 2.56185 15.2445 2.14258 15.5498C 1.72786 15.8551 1.24707 16.0078 0.700195 16.0078C 0.486003 16.0078 0.176107 15.96 -0.229492 15.8643L -0.0859375 14.3604L 0.180664 14.374C 0.80957 14.3923 1.26986 14.1621 1.56152 13.6836L 1.98535 12.8975L 0.775391 5.60352L 2.77148 5.60352L 3.30469 10.1836ZM 11.1797 5.4668C 11.8314 5.47591 12.3919 5.64453 12.8613 5.97266C 13.3353 6.29622 13.6816 6.74512 13.9004 7.31934C 14.1237 7.889 14.2035 8.52246 14.1396 9.21973C 14.0348 10.3955 13.6247 11.348 12.9092 12.0771C 12.1982 12.8018 11.3187 13.1549 10.2705 13.1367C 9.62793 13.1276 9.07194 12.9635 8.60254 12.6445C 8.13314 12.321 7.78678 11.8743 7.56348 11.3047C 7.34017 10.735 7.26042 10.1061 7.32422 9.41797C 7.44271 8.19661 7.85742 7.22591 8.56836 6.50586C 9.2793 5.78581 10.1497 5.43945 11.1797 5.4668ZM 9.23145 10.1221C 9.24056 10.5596 9.3431 10.9059 9.53906 11.1611C 9.73503 11.4118 10.0107 11.5417 10.3662 11.5508C 10.9587 11.569 11.4235 11.2979 11.7607 10.7373C 12.098 10.1722 12.2552 9.43164 12.2324 8.51562C 12.2142 8.07812 12.1071 7.72949 11.9111 7.46973C 11.7197 7.2054 11.444 7.06868 11.084 7.05957C 10.5098 7.04134 10.0495 7.3125 9.70312 7.87305C 9.36133 8.42904 9.2041 9.17871 9.23145 10.1221ZM 19.2803 12.2344C 18.7334 12.8496 18.0544 13.1504 17.2432 13.1367C 16.5322 13.1276 15.9945 12.8724 15.6299 12.3711C 15.2653 11.8698 15.124 11.209 15.2061 10.3887L 16.0059 5.60352L 17.9336 5.60352L 17.1201 10.4092C 17.1019 10.5596 17.0996 10.7008 17.1133 10.833C 17.1589 11.2887 17.4118 11.5234 17.8721 11.5371C 18.4691 11.5553 18.9635 11.3252 19.3555 10.8467L 20.2783 5.60352L 22.2197 5.60352L 20.9346 13L 19.1367 13L 19.2803 12.2344ZM 25.4189 5.59668L 25.2549 6.47168C 25.8473 5.78353 26.5651 5.44857 27.4082 5.4668C 28.1055 5.48047 28.6204 5.73568 28.9531 6.23242C 29.2858 6.72917 29.4066 7.41732 29.3154 8.29688L 28.5361 13L 26.6084 13L 27.4014 8.27637C 27.4242 8.09863 27.4287 7.93685 27.415 7.79102C 27.3558 7.32617 27.0641 7.08691 26.54 7.07324C 26.0342 7.05501 25.5807 7.28971 25.1797 7.77734L 24.2568 13L 22.3291 13L 23.6143 5.60352L 25.4189 5.59668ZM 30.4229 9.29492C 30.5596 8.15104 30.931 7.22363 31.5371 6.5127C 32.1478 5.7972 32.9157 5.44629 33.8408 5.45996C 34.6292 5.47819 35.2171 5.76302 35.6045 6.31445L 35.8574 5.59668L 37.6279 5.60352L 36.418 12.7471C 36.2858 13.7314 35.8665 14.5107 35.1602 15.085C 34.4538 15.6592 33.5788 15.9372 32.5352 15.9189C 32.0247 15.9098 31.5371 15.7982 31.0723 15.584C 30.6074 15.3743 30.2246 15.085 29.9238 14.7158L 30.8809 13.54C 31.3092 14.0824 31.847 14.3626 32.4941 14.3809C 32.9954 14.3991 33.4238 14.2669 33.7793 13.9844C 34.1348 13.7064 34.3763 13.3122 34.5039 12.8018L 34.6133 12.3574C 34.0755 12.8952 33.4717 13.1549 32.8018 13.1367C 32.0817 13.1276 31.5098 12.861 31.0859 12.3369C 30.6621 11.8083 30.4297 11.1224 30.3887 10.2793C 30.375 10.0013 30.3864 9.67318 30.4229 9.29492ZM 32.3164 10.1016C 32.3164 10.5299 32.4053 10.874 32.583 11.1338C 32.7653 11.389 33.0273 11.5234 33.3691 11.5371C 33.8932 11.5553 34.3581 11.332 34.7637 10.8672L 35.3379 7.73633C 35.1419 7.30794 34.7796 7.08464 34.251 7.06641C 33.7588 7.05273 33.3418 7.25098 33 7.66113C 32.6582 8.07129 32.444 8.61589 32.3574 9.29492C 32.3255 9.6276 32.3118 9.89648 32.3164 10.1016Z"/>
<path id="path8_fill" d="M 4.6748 5.4668C 5.3265 5.47591 5.88704 5.64453 6.35645 5.97266C 6.8304 6.29622 7.17676 6.74512 7.39551 7.31934C 7.61882 7.889 7.69857 8.52246 7.63477 9.21973C 7.52995 10.3955 7.11979 11.348 6.4043 12.0771C 5.69336 12.8018 4.8138 13.1549 3.76562 13.1367C 3.12305 13.1276 2.56706 12.9635 2.09766 12.6445C 1.62826 12.321 1.2819 11.8743 1.05859 11.3047C 0.835286 10.735 0.755534 10.1061 0.819336 9.41797C 0.937826 8.19661 1.35254 7.22591 2.06348 6.50586C 2.77441 5.78581 3.64486 5.43945 4.6748 5.4668ZM 2.72656 10.1221C 2.73568 10.5596 2.83822 10.9059 3.03418 11.1611C 3.23014 11.4118 3.50586 11.5417 3.86133 11.5508C 4.45378 11.569 4.91862 11.2979 5.25586 10.7373C 5.5931 10.1722 5.75033 9.43164 5.72754 8.51562C 5.70931 8.07812 5.60221 7.72949 5.40625 7.46973C 5.21484 7.2054 4.93913 7.06868 4.5791 7.05957C 4.00488 7.04134 3.5446 7.3125 3.19824 7.87305C 2.85645 8.42904 2.69922 9.17871 2.72656 10.1221ZM 10.2324 13L 8.29102 13L 10.1162 2.5L 12.0508 2.5L 10.2324 13ZM 15.5439 5.45996C 16.2321 5.47819 16.7881 5.75391 17.2119 6.28711L 17.9365 2.5L 19.8711 2.5L 18.0527 13L 16.3301 13L 16.4395 12.207C 15.888 12.8496 15.2454 13.1618 14.5117 13.1436C 14.0514 13.139 13.6481 13.0182 13.3018 12.7812C 12.9554 12.5443 12.6865 12.2048 12.4951 11.7627C 12.3083 11.3161 12.2057 10.8193 12.1875 10.2725C 12.1738 9.98535 12.1807 9.70736 12.208 9.43848L 12.249 9.13086C 12.3584 8.37435 12.568 7.70898 12.8779 7.13477C 13.1924 6.56055 13.5752 6.13444 14.0264 5.85645C 14.4821 5.57845 14.988 5.44629 15.5439 5.45996ZM 14.1426 9.43848C 14.1061 9.78483 14.0947 10.0765 14.1084 10.3135C 14.154 11.1156 14.4775 11.5234 15.0791 11.5371C 15.6214 11.5599 16.0931 11.3047 16.4941 10.7715L 17.0205 7.83203C 16.8428 7.3444 16.4873 7.08919 15.9541 7.06641C 15.4847 7.05273 15.0928 7.23503 14.7783 7.61328C 14.4684 7.98698 14.2565 8.59538 14.1426 9.43848Z"/>
<path id="path9_stroke" d="M 0 0L 193 0L 193 -2L 0 -2L 0 0Z"/>
<path id="path10_fill" d="M 13.0205 11.5439C 13.3851 11.5439 13.6813 11.4437 13.9092 11.2432C 14.137 11.0426 14.2555 10.776 14.2646 10.4434L 16.1172 10.4434C 16.1126 10.9447 15.9759 11.4049 15.707 11.8242C 15.4382 12.2389 15.069 12.5625 14.5996 12.7949C 14.1348 13.0228 13.6198 13.1367 13.0547 13.1367C 11.9974 13.1367 11.1634 12.8018 10.5527 12.1318C 9.94206 11.4574 9.63672 10.5277 9.63672 9.34277L 9.63672 9.21289C 9.63672 8.07357 9.93978 7.16439 10.5459 6.48535C 11.152 5.80632 11.9837 5.4668 13.041 5.4668C 13.9661 5.4668 14.7067 5.73112 15.2627 6.25977C 15.8232 6.78385 16.1081 7.4834 16.1172 8.3584L 14.2646 8.3584C 14.2555 7.97559 14.137 7.66569 13.9092 7.42871C 13.6813 7.18717 13.3805 7.06641 13.0068 7.06641C 12.5465 7.06641 12.1979 7.23503 11.9609 7.57227C 11.7285 7.90495 11.6123 8.44727 11.6123 9.19922L 11.6123 9.4043C 11.6123 10.1654 11.7285 10.7122 11.9609 11.0449C 12.1934 11.3776 12.5465 11.5439 13.0205 11.5439ZM 16.9375 9.2334C 16.9375 8.49967 17.0788 7.8457 17.3613 7.27148C 17.6439 6.69727 18.0495 6.25293 18.5781 5.93848C 19.1113 5.62402 19.7288 5.4668 20.4307 5.4668C 21.4287 5.4668 22.2422 5.77214 22.8711 6.38281C 23.5046 6.99349 23.8577 7.82292 23.9307 8.87109L 23.9443 9.37695C 23.9443 10.5117 23.6276 11.4232 22.9941 12.1113C 22.3607 12.7949 21.5107 13.1367 20.4443 13.1367C 19.3779 13.1367 18.5257 12.7949 17.8877 12.1113C 17.2542 11.4277 16.9375 10.498 16.9375 9.32227L 16.9375 9.2334ZM 18.9131 9.37695C 18.9131 10.0788 19.0452 10.6165 19.3096 10.9902C 19.5739 11.3594 19.9521 11.5439 20.4443 11.5439C 20.9229 11.5439 21.2965 11.3617 21.5654 10.9971C 21.8343 10.6279 21.9688 10.04 21.9688 9.2334C 21.9688 8.54525 21.8343 8.01204 21.5654 7.63379C 21.2965 7.25553 20.9183 7.06641 20.4307 7.06641C 19.9476 7.06641 19.5739 7.25553 19.3096 7.63379C 19.0452 8.00749 18.9131 8.58854 18.9131 9.37695ZM 29.5908 12.248C 29.1032 12.8405 28.4287 13.1367 27.5674 13.1367C 26.7744 13.1367 26.1683 12.9089 25.749 12.4531C 25.3343 11.9974 25.1224 11.3298 25.1133 10.4502L 25.1133 5.60352L 27.0889 5.60352L 27.0889 10.3818C 27.0889 11.152 27.4398 11.5371 28.1416 11.5371C 28.8115 11.5371 29.2718 11.3047 29.5225 10.8398L 29.5225 5.60352L 31.5049 5.60352L 31.5049 13L 29.6455 13L 29.5908 12.248ZM 34.8135 5.60352L 34.875 6.45801C 35.4036 5.7972 36.1123 5.4668 37.001 5.4668C 37.7848 5.4668 38.3682 5.69694 38.751 6.15723C 39.1338 6.61751 39.3298 7.30566 39.3389 8.22168L 39.3389 13L 37.3633 13L 37.3633 8.26953C 37.3633 7.85026 37.2721 7.5472 37.0898 7.36035C 36.9076 7.16895 36.6045 7.07324 36.1807 7.07324C 35.6247 7.07324 35.2077 7.31022 34.9297 7.78418L 34.9297 13L 32.9541 13L 32.9541 5.60352L 34.8135 5.60352ZM 43.208 3.78516L 43.208 5.60352L 44.4727 5.60352L 44.4727 7.05273L 43.208 7.05273L 43.208 10.7441C 43.208 11.0176 43.2604 11.2135 43.3652 11.332C 43.4701 11.4505 43.6706 11.5098 43.9668 11.5098C 44.1855 11.5098 44.3792 11.4938 44.5479 11.4619L 44.5479 12.959C 44.1605 13.0775 43.7617 13.1367 43.3516 13.1367C 41.9661 13.1367 41.2598 12.4372 41.2324 11.0381L 41.2324 7.05273L 40.1523 7.05273L 40.1523 5.60352L 41.2324 5.60352L 41.2324 3.78516L 43.208 3.78516Z"/>
</defs>
</svg>
