<svg width="1120" height="304" viewBox="0 0 1120 304" fill="none" xmlns="http://www.w3.org/2000/svg">
<path d="M0 0H560V152H0V0Z" transform="scale(2)" fill="white"/>
<path d="M137.5 25.5L0 26V52H137.5L173 26V0L137.5 25.5Z" transform="translate(660 170) scale(2)" fill="#27AE60" fill-opacity="0.4"/>
<path d="M174 26V0H0V26H174Z" transform="translate(658 118) scale(2)" fill="#27AE60" fill-opacity="0.4"/>
<path d="M0 2.87H1.68L1.848 4.382H1.89C2.23533 3.81267 2.65066 3.39267 3.136 3.122C3.62133 2.842 4.144 2.702 4.70399 2.702C5.01199 2.702 5.25929 2.72533 5.44599 2.772C5.64199 2.81867 5.84269 2.88867 6.04799 2.982L5.62799 4.704C5.41329 4.63867 5.21729 4.592 5.03999 4.564C4.87199 4.52667 4.65729 4.508 4.396 4.508C3.96666 4.508 3.542 4.634 3.122 4.886C2.71133 5.138 2.35666 5.57667 2.058 6.202V9.814H0V2.87ZM7.54049 6.342C7.54049 5.77267 7.63849 5.264 7.83449 4.816C8.03989 4.368 8.31049 3.99 8.64649 3.682C8.98249 3.36467 9.36519 3.122 9.79449 2.954C10.2332 2.786 10.6859 2.702 11.1525 2.702C11.6845 2.702 12.1559 2.786 12.5665 2.954C12.9772 3.122 13.3179 3.35533 13.5885 3.654C13.8592 3.95267 14.0645 4.30733 14.2045 4.718C14.3445 5.11933 14.4145 5.558 14.4145 6.034C14.4145 6.2207 14.4052 6.398 14.3865 6.566C14.3679 6.734 14.3492 6.86 14.3305 6.944H9.65449C9.72919 7.4667 9.95319 7.8447 10.3265 8.078C10.7092 8.302 11.1572 8.414 11.6705 8.414C11.9879 8.414 12.2865 8.3767 12.5665 8.302C12.8559 8.218 13.1545 8.0967 13.4625 7.938L14.1345 9.17C13.7425 9.422 13.3039 9.6227 12.8185 9.772C12.3332 9.912 11.8572 9.982 11.3905 9.982C10.8492 9.982 10.3452 9.9027 9.87849 9.744C9.41189 9.576 9.00589 9.338 8.66049 9.03C8.31519 8.7127 8.03989 8.33 7.83449 7.882C7.63849 7.434 7.54049 6.9207 7.54049 6.342ZM12.5525 5.586C12.5525 5.194 12.4452 4.87667 12.2305 4.634C12.0159 4.39133 11.6705 4.27 11.1945 4.27C10.8212 4.27 10.4899 4.37733 10.2005 4.592C9.91119 4.80667 9.71989 5.138 9.62649 5.586H12.5525ZM16.8311 7.63C17.2324 7.882 17.6337 8.0827 18.0351 8.232C18.4457 8.3813 18.8844 8.456 19.3511 8.456C19.8271 8.456 20.1677 8.4047 20.3731 8.302C20.5784 8.1993 20.6811 8.0547 20.6811 7.868C20.6811 7.6533 20.5084 7.4807 20.1631 7.35C19.8271 7.21 19.3791 7.0607 18.8191 6.902C18.5111 6.818 18.2077 6.72 17.9091 6.608C17.6197 6.4867 17.3584 6.3467 17.1251 6.188C16.8917 6.02 16.7004 5.8287 16.5511 5.614C16.4111 5.39933 16.3411 5.152 16.3411 4.872C16.3411 4.55467 16.4157 4.26067 16.5651 3.99C16.7144 3.71933 16.9244 3.49067 17.1951 3.304C17.4751 3.11733 17.8111 2.97267 18.2031 2.87C18.6044 2.758 19.0524 2.702 19.5471 2.702C20.1631 2.702 20.7231 2.80467 21.2271 3.01C21.7404 3.206 22.1791 3.42067 22.5431 3.654L21.6191 4.886C21.3017 4.69933 20.9751 4.54533 20.6391 4.424C20.3031 4.29333 19.9531 4.228 19.5891 4.228C19.1504 4.228 18.8377 4.27467 18.6511 4.368C18.4737 4.46133 18.3851 4.59667 18.3851 4.774C18.3851 4.87667 18.4317 4.97 18.5251 5.054C18.6184 5.138 18.7444 5.21267 18.9031 5.278C19.0617 5.34333 19.2484 5.40867 19.4631 5.474C19.6871 5.53 19.9204 5.59067 20.1631 5.656C20.5084 5.74933 20.8351 5.8567 21.1431 5.978C21.4511 6.09 21.7217 6.2253 21.9551 6.384C22.1884 6.5427 22.3751 6.734 22.5151 6.958C22.6551 7.182 22.7251 7.4433 22.7251 7.742C22.7251 8.0593 22.6504 8.3533 22.5011 8.624C22.3517 8.8947 22.1324 9.1327 21.8431 9.338C21.5631 9.534 21.2084 9.6927 20.7791 9.814C20.3591 9.926 19.8691 9.982 19.3091 9.982C18.6837 9.982 18.0724 9.8793 17.4751 9.674C16.8777 9.4687 16.3551 9.2167 15.9071 8.918L16.8311 7.63ZM30.9096 9.814H29.2296L29.0756 8.82H29.0196C28.7116 9.1747 28.3709 9.4593 27.9976 9.674C27.6243 9.8793 27.1856 9.982 26.6816 9.982C25.8883 9.982 25.3143 9.73 24.9596 9.226C24.6049 8.722 24.4276 8.0313 24.4276 7.154V2.87H26.4856V6.888C26.4856 7.3547 26.5556 7.6953 26.6956 7.91C26.8356 8.1247 27.1016 8.232 27.4936 8.232C27.7549 8.232 27.9836 8.176 28.1796 8.064C28.3849 7.952 28.6089 7.742 28.8516 7.434V2.87H30.9096V9.814ZM32.8221 0H36.8961V7.182C36.8961 7.3967 36.9241 7.5787 36.9801 7.728C37.0455 7.868 37.1295 7.9847 37.2321 8.078C37.3441 8.162 37.4655 8.2227 37.5961 8.26C37.7361 8.2973 37.8761 8.316 38.0161 8.316C38.1748 8.316 38.3428 8.302 38.5201 8.274C38.6975 8.2367 38.8935 8.176 39.1081 8.092L39.5701 9.604C39.3835 9.66 39.2108 9.7113 39.0521 9.758C38.8935 9.8047 38.7348 9.842 38.5761 9.87C38.4175 9.9073 38.2495 9.9353 38.0721 9.954C37.8948 9.9727 37.6988 9.982 37.4841 9.982C36.6068 9.982 35.9441 9.7253 35.4961 9.212C35.0575 8.6893 34.8381 7.9847 34.8381 7.098V1.624H32.8221V0ZM42.7847 4.48H41.0347V2.954L42.8827 2.87L43.1487 1.022H44.8427V2.87H47.7827V4.48H44.8427V6.916C44.8427 7.448 44.9593 7.826 45.1927 8.05C45.426 8.2647 45.7947 8.372 46.2987 8.372C46.5693 8.372 46.8167 8.3487 47.0407 8.302C47.2647 8.2553 47.4793 8.1947 47.6847 8.12L48.0487 9.604C47.7407 9.6973 47.3953 9.7813 47.0127 9.856C46.6393 9.94 46.2287 9.982 45.7807 9.982C45.23 9.982 44.7633 9.9073 44.3807 9.758C43.998 9.6087 43.6853 9.4033 43.4427 9.142C43.2093 8.8713 43.0413 8.5493 42.9387 8.176C42.836 7.8027 42.7847 7.3873 42.7847 6.93V4.48Z" transform="translate(1018.88 232.372) scale(2)" fill="#4F4F4F"/>
<path d="M0 0H267V42H0V0Z" transform="translate(0 124) scale(2)" fill="#F1F4F8"/>
<path d="M3.38 13.234H5.85L6.11 16.12H6.188C6.84667 15.08 7.63533 14.2913 8.554 13.754C9.49 13.1993 10.5127 12.922 11.622 12.922C12.142 12.922 12.584 12.9653 12.948 13.052C13.3293 13.1213 13.7107 13.2513 14.092 13.442L13.468 15.964C13.052 15.8253 12.6793 15.73 12.35 15.678C12.038 15.6087 11.6393 15.574 11.154 15.574C10.27 15.574 9.42067 15.8253 8.606 16.328C7.79133 16.8307 7.05467 17.706 6.396 18.954V26H3.38V13.234ZM17.2018 19.63C17.2018 18.59 17.3838 17.654 17.7478 16.822C18.1292 15.99 18.6232 15.288 19.2298 14.716C19.8365 14.1267 20.5298 13.6847 21.3098 13.39C22.1072 13.078 22.9218 12.922 23.7538 12.922C24.7072 12.922 25.5478 13.078 26.2758 13.39C27.0212 13.6847 27.6452 14.1007 28.1478 14.638C28.6505 15.158 29.0318 15.7907 29.2918 16.536C29.5518 17.2813 29.6818 18.096 29.6818 18.98C29.6818 19.2747 29.6645 19.552 29.6298 19.812C29.6125 20.072 29.5865 20.28 29.5518 20.436H20.2698C20.3738 21.58 20.8245 22.464 21.6218 23.088C22.4192 23.6947 23.3985 23.998 24.5598 23.998C25.2185 23.998 25.8338 23.9113 26.4058 23.738C26.9778 23.5473 27.5585 23.2873 28.1478 22.958L29.1618 24.83C28.4685 25.2633 27.6972 25.6187 26.8478 25.896C25.9985 26.1733 25.1058 26.312 24.1698 26.312C23.1992 26.312 22.2892 26.1647 21.4398 25.87C20.5905 25.558 19.8538 25.116 19.2298 24.544C18.6058 23.972 18.1118 23.2787 17.7478 22.464C17.3838 21.632 17.2018 20.6873 17.2018 19.63ZM26.9258 18.408C26.9258 17.42 26.6658 16.6487 26.1458 16.094C25.6258 15.522 24.8545 15.236 23.8318 15.236C22.9652 15.236 22.1938 15.5047 21.5178 16.042C20.8418 16.5793 20.4172 17.368 20.2438 18.408H26.9258ZM34.1957 22.438C34.9237 22.9407 35.6777 23.3393 36.4577 23.634C37.255 23.9113 38.1477 24.05 39.1357 24.05C40.141 24.05 40.8777 23.9113 41.3457 23.634C41.8137 23.3393 42.0477 22.9667 42.0477 22.516C42.0477 22.0653 41.7444 21.6927 41.1377 21.398C40.531 21.086 39.5777 20.7567 38.2777 20.41C37.671 20.254 37.0817 20.0633 36.5097 19.838C35.9377 19.6127 35.435 19.3527 35.0017 19.058C34.5684 18.7633 34.2217 18.4253 33.9617 18.044C33.7017 17.6627 33.5717 17.2293 33.5717 16.744C33.5717 15.6173 34.057 14.6987 35.0277 13.988C35.9984 13.2773 37.3937 12.922 39.2137 12.922C40.2537 12.922 41.233 13.0953 42.1517 13.442C43.0704 13.7887 43.859 14.1787 44.5177 14.612L43.1397 16.458C42.5677 16.0767 41.9524 15.7733 41.2937 15.548C40.6524 15.3053 39.9677 15.184 39.2397 15.184C38.2517 15.184 37.5584 15.3227 37.1597 15.6C36.761 15.86 36.5617 16.1893 36.5617 16.588C36.5617 16.8133 36.6484 17.0213 36.8217 17.212C37.0124 17.3853 37.2637 17.55 37.5757 17.706C37.905 17.8447 38.2864 17.9833 38.7197 18.122C39.153 18.2607 39.6297 18.3907 40.1497 18.512C40.895 18.7027 41.5624 18.9193 42.1517 19.162C42.7584 19.3873 43.2697 19.6473 43.6857 19.942C44.119 20.2367 44.4484 20.5833 44.6737 20.982C44.9164 21.3807 45.0377 21.84 45.0377 22.36C45.0377 22.9147 44.9077 23.4347 44.6477 23.92C44.3877 24.388 44.0064 24.804 43.5037 25.168C43.001 25.5147 42.377 25.792 41.6317 26C40.8864 26.208 40.0284 26.312 39.0577 26.312C37.8617 26.312 36.7177 26.1213 35.6257 25.74C34.5337 25.3587 33.589 24.8907 32.7917 24.336L34.1957 22.438ZM60.1595 26H57.7155L57.4815 23.972H57.3775C56.7709 24.6827 56.1035 25.2547 55.3755 25.688C54.6475 26.104 53.8069 26.312 52.8535 26.312C51.3629 26.312 50.2795 25.87 49.6035 24.986C48.9275 24.0847 48.5895 22.802 48.5895 21.138V13.234H51.5795V20.748C51.5795 21.788 51.7529 22.5507 52.0995 23.036C52.4635 23.504 53.0875 23.738 53.9715 23.738C54.5782 23.738 55.1155 23.5993 55.5835 23.322C56.0689 23.0447 56.5975 22.5507 57.1695 21.84V13.234H60.1595V26ZM64.2054 7.644H71.2254V21.502C71.2254 22.3687 71.442 22.984 71.8754 23.348C72.3087 23.6947 72.8547 23.868 73.5134 23.868C74.1374 23.868 74.8654 23.7033 75.6974 23.374L76.3994 25.584C75.7927 25.792 75.2207 25.9653 74.6834 26.104C74.1634 26.2427 73.5307 26.312 72.7854 26.312C71.2774 26.312 70.142 25.8787 69.3794 25.012C68.6167 24.1453 68.2354 22.9233 68.2354 21.346V10.01H64.2054V7.644ZM82.8892 15.6H79.4832V13.364L83.0192 13.234L83.4092 9.75H85.8792V13.234H91.7032V15.6H85.8792V20.852C85.8792 21.9093 86.0959 22.6893 86.5292 23.192C86.9626 23.6773 87.7252 23.92 88.8172 23.92C89.3719 23.92 89.8746 23.8767 90.3252 23.79C90.7759 23.686 91.2092 23.556 91.6252 23.4L92.1972 25.584C91.6252 25.7747 90.9926 25.9393 90.2992 26.078C89.6059 26.234 88.8692 26.312 88.0892 26.312C87.1186 26.312 86.3039 26.182 85.6452 25.922C84.9866 25.662 84.4492 25.298 84.0332 24.83C83.6346 24.3447 83.3399 23.764 83.1492 23.088C82.9759 22.412 82.8892 21.6667 82.8892 20.852V15.6ZM111.157 13.416H122.701V15.6H111.157V13.416ZM111.157 19.214H122.701V21.398H111.157V19.214ZM141.687 19.63C141.687 18.59 141.843 17.654 142.155 16.822C142.467 15.99 142.883 15.288 143.403 14.716C143.94 14.144 144.547 13.702 145.223 13.39C145.899 13.078 146.601 12.922 147.329 12.922C148.091 12.922 148.741 13.0607 149.279 13.338C149.833 13.598 150.371 13.962 150.891 14.43L150.761 12.272V7.644H153.777V26H151.307L151.073 24.518H150.995C150.492 25.0207 149.903 25.4453 149.227 25.792C148.568 26.1387 147.875 26.312 147.147 26.312C146.332 26.312 145.587 26.1647 144.911 25.87C144.235 25.558 143.654 25.116 143.169 24.544C142.701 23.972 142.337 23.2787 142.077 22.464C141.817 21.632 141.687 20.6873 141.687 19.63ZM144.781 19.604C144.781 20.9907 145.049 22.048 145.587 22.776C146.124 23.4867 146.887 23.842 147.875 23.842C148.932 23.842 149.894 23.3307 150.761 22.308V16.562C150.31 16.1287 149.859 15.8253 149.409 15.652C148.958 15.4787 148.499 15.392 148.031 15.392C147.58 15.392 147.155 15.4873 146.757 15.678C146.375 15.8687 146.037 16.146 145.743 16.51C145.448 16.8567 145.214 17.29 145.041 17.81C144.867 18.33 144.781 18.928 144.781 19.604ZM170.406 10.244C169.938 10.0533 169.479 9.91467 169.028 9.828C168.595 9.74133 168.118 9.698 167.598 9.698C166.61 9.698 165.891 9.94067 165.44 10.426C165.007 10.894 164.79 11.5787 164.79 12.48V13.234H169.652V15.6H164.79V26H161.826V15.6H158.29V13.364L161.826 13.234V12.532C161.826 11.7867 161.93 11.0933 162.138 10.452C162.346 9.81067 162.667 9.26467 163.1 8.814C163.551 8.346 164.114 7.982 164.79 7.722C165.484 7.462 166.298 7.332 167.234 7.332C167.928 7.332 168.586 7.39267 169.21 7.514C169.852 7.63533 170.458 7.80867 171.03 8.034L170.406 10.244ZM176.714 23.686C176.714 22.9233 176.957 22.2993 177.442 21.814C177.928 21.3113 178.543 21.06 179.288 21.06C180.034 21.06 180.649 21.3113 181.134 21.814C181.62 22.2993 181.862 22.9233 181.862 23.686C181.862 24.4487 181.62 25.0813 181.134 25.584C180.649 26.0693 180.034 26.312 179.288 26.312C178.543 26.312 177.928 26.0693 177.442 25.584C176.957 25.0813 176.714 24.4487 176.714 23.686ZM188.924 7.644H195.944V21.502C195.944 22.3687 196.161 22.984 196.594 23.348C197.027 23.6947 197.573 23.868 198.232 23.868C198.856 23.868 199.584 23.7033 200.416 23.374L201.118 25.584C200.511 25.792 199.939 25.9653 199.402 26.104C198.882 26.2427 198.249 26.312 197.504 26.312C195.996 26.312 194.861 25.8787 194.098 25.012C193.335 24.1453 192.954 22.9233 192.954 21.346V10.01H188.924V7.644ZM204.046 19.63C204.046 18.5727 204.219 17.628 204.566 16.796C204.93 15.964 205.407 15.262 205.996 14.69C206.585 14.118 207.27 13.6847 208.05 13.39C208.83 13.078 209.636 12.922 210.468 12.922C211.3 12.922 212.106 13.078 212.886 13.39C213.666 13.6847 214.351 14.118 214.94 14.69C215.529 15.262 215.997 15.964 216.344 16.796C216.708 17.628 216.89 18.5727 216.89 19.63C216.89 20.6873 216.708 21.632 216.344 22.464C215.997 23.296 215.529 23.998 214.94 24.57C214.351 25.142 213.666 25.5753 212.886 25.87C212.106 26.1647 211.3 26.312 210.468 26.312C209.636 26.312 208.83 26.1647 208.05 25.87C207.27 25.5753 206.585 25.142 205.996 24.57C205.407 23.998 204.93 23.296 204.566 22.464C204.219 21.632 204.046 20.6873 204.046 19.63ZM207.14 19.63C207.14 20.9127 207.435 21.944 208.024 22.724C208.613 23.4867 209.428 23.868 210.468 23.868C211.508 23.868 212.323 23.4867 212.912 22.724C213.501 21.944 213.796 20.9127 213.796 19.63C213.796 18.33 213.501 17.2987 212.912 16.536C212.323 15.756 211.508 15.366 210.468 15.366C209.428 15.366 208.613 15.756 208.024 16.536C207.435 17.2987 207.14 18.33 207.14 19.63ZM220.156 19.63C220.156 18.5727 220.346 17.628 220.728 16.796C221.126 15.964 221.655 15.262 222.314 14.69C222.972 14.118 223.744 13.6847 224.628 13.39C225.512 13.078 226.439 12.922 227.41 12.922C228.45 12.922 229.36 13.0953 230.14 13.442C230.937 13.7887 231.604 14.2133 232.142 14.716L230.712 16.588C230.209 16.1893 229.698 15.886 229.178 15.678C228.675 15.47 228.138 15.366 227.566 15.366C226.283 15.366 225.243 15.756 224.446 16.536C223.648 17.2987 223.25 18.33 223.25 19.63C223.25 20.2713 223.354 20.852 223.562 21.372C223.77 21.892 224.056 22.3427 224.42 22.724C224.801 23.088 225.252 23.374 225.772 23.582C226.292 23.7727 226.864 23.868 227.488 23.868C228.216 23.868 228.874 23.7293 229.464 23.452C230.07 23.1747 230.625 22.8453 231.128 22.464L232.376 24.388C231.648 25.0293 230.833 25.5147 229.932 25.844C229.03 26.156 228.12 26.312 227.202 26.312C226.196 26.312 225.26 26.1647 224.394 25.87C223.544 25.5753 222.799 25.142 222.158 24.57C221.534 23.998 221.04 23.296 220.676 22.464C220.329 21.632 220.156 20.6873 220.156 19.63ZM239.386 7.592H246.822V9.23H241.7V28.314H246.822V29.952H239.386V7.592ZM251.57 13.234H254.04L254.274 15.158H254.378C254.984 14.5513 255.652 14.0313 256.38 13.598C257.125 13.1473 257.992 12.922 258.98 12.922C260.453 12.922 261.536 13.3727 262.23 14.274C262.923 15.158 263.27 16.432 263.27 18.096V26H260.254V18.486C260.254 17.446 260.072 16.692 259.708 16.224C259.361 15.7387 258.746 15.496 257.862 15.496C257.238 15.496 256.683 15.6433 256.198 15.938C255.712 16.2327 255.175 16.6833 254.586 17.29V26H251.57V13.234ZM278.417 26H275.973L275.739 23.972H275.635C275.029 24.6827 274.361 25.2547 273.633 25.688C272.905 26.104 272.065 26.312 271.111 26.312C269.621 26.312 268.537 25.87 267.861 24.986C267.185 24.0847 266.847 22.802 266.847 21.138V13.234H269.837V20.748C269.837 21.788 270.011 22.5507 270.357 23.036C270.721 23.504 271.345 23.738 272.229 23.738C272.836 23.738 273.373 23.5993 273.841 23.322C274.327 23.0447 274.855 22.5507 275.427 21.84V13.234H278.417V26ZM281.865 13.234H284.127L284.361 14.872H284.439C284.734 14.3173 285.089 13.858 285.505 13.494C285.939 13.1127 286.519 12.922 287.247 12.922C288.495 12.922 289.275 13.6327 289.587 15.054C289.882 14.4473 290.255 13.9447 290.705 13.546C291.173 13.13 291.763 12.922 292.473 12.922C293.375 12.922 294.068 13.2773 294.553 13.988C295.056 14.6813 295.307 15.6693 295.307 16.952V26H292.473V17.186C292.473 16.0593 292.118 15.496 291.407 15.496C291.061 15.496 290.757 15.626 290.497 15.886C290.237 16.146 289.986 16.5447 289.743 17.082V26H287.403V17.186C287.403 16.0593 287.039 15.496 286.311 15.496C285.965 15.496 285.67 15.626 285.427 15.886C285.185 16.146 284.942 16.5447 284.699 17.082V26H281.865V13.234ZM310.247 27.612V29.952H297.767V27.612H310.247ZM313.929 7.644H316.945V12.376L316.841 14.612C317.396 14.092 318.02 13.6847 318.713 13.39C319.406 13.078 320.1 12.922 320.793 12.922C321.625 12.922 322.362 13.078 323.003 13.39C323.644 13.6847 324.19 14.118 324.641 14.69C325.092 15.2447 325.43 15.9207 325.655 16.718C325.898 17.5153 326.019 18.408 326.019 19.396C326.019 20.488 325.863 21.4673 325.551 22.334C325.239 23.1833 324.814 23.9027 324.277 24.492C323.757 25.0813 323.15 25.532 322.457 25.844C321.781 26.156 321.079 26.312 320.351 26.312C319.744 26.312 319.112 26.1647 318.453 25.87C317.794 25.5753 317.188 25.1507 316.633 24.596H316.555L316.295 26H313.929V7.644ZM316.945 22.672C317.413 23.1053 317.898 23.4087 318.401 23.582C318.904 23.7553 319.354 23.842 319.753 23.842C320.654 23.842 321.408 23.478 322.015 22.75C322.622 22.0047 322.925 20.904 322.925 19.448C322.925 18.1653 322.691 17.1687 322.223 16.458C321.755 15.7473 321.001 15.392 319.961 15.392C319.476 15.392 318.982 15.5133 318.479 15.756C317.976 15.9987 317.465 16.3887 316.945 16.926V22.672ZM328.765 19.63C328.765 18.5727 328.938 17.628 329.285 16.796C329.649 15.964 330.125 15.262 330.715 14.69C331.304 14.118 331.989 13.6847 332.769 13.39C333.549 13.078 334.355 12.922 335.187 12.922C336.019 12.922 336.825 13.078 337.605 13.39C338.385 13.6847 339.069 14.118 339.659 14.69C340.248 15.262 340.716 15.964 341.063 16.796C341.427 17.628 341.609 18.5727 341.609 19.63C341.609 20.6873 341.427 21.632 341.063 22.464C340.716 23.296 340.248 23.998 339.659 24.57C339.069 25.142 338.385 25.5753 337.605 25.87C336.825 26.1647 336.019 26.312 335.187 26.312C334.355 26.312 333.549 26.1647 332.769 25.87C331.989 25.5753 331.304 25.142 330.715 24.57C330.125 23.998 329.649 23.296 329.285 22.464C328.938 21.632 328.765 20.6873 328.765 19.63ZM331.859 19.63C331.859 20.9127 332.153 21.944 332.743 22.724C333.332 23.4867 334.147 23.868 335.187 23.868C336.227 23.868 337.041 23.4867 337.631 22.724C338.22 21.944 338.515 20.9127 338.515 19.63C338.515 18.33 338.22 17.2987 337.631 16.536C337.041 15.756 336.227 15.366 335.187 15.366C334.147 15.366 333.332 15.756 332.743 16.536C332.153 17.2987 331.859 18.33 331.859 19.63ZM344.355 19.63C344.355 18.5727 344.528 17.628 344.875 16.796C345.239 15.964 345.715 15.262 346.305 14.69C346.894 14.118 347.579 13.6847 348.359 13.39C349.139 13.078 349.945 12.922 350.777 12.922C351.609 12.922 352.415 13.078 353.195 13.39C353.975 13.6847 354.659 14.118 355.249 14.69C355.838 15.262 356.306 15.964 356.653 16.796C357.017 17.628 357.199 18.5727 357.199 19.63C357.199 20.6873 357.017 21.632 356.653 22.464C356.306 23.296 355.838 23.998 355.249 24.57C354.659 25.142 353.975 25.5753 353.195 25.87C352.415 26.1647 351.609 26.312 350.777 26.312C349.945 26.312 349.139 26.1647 348.359 25.87C347.579 25.5753 346.894 25.142 346.305 24.57C345.715 23.998 345.239 23.296 344.875 22.464C344.528 21.632 344.355 20.6873 344.355 19.63ZM347.449 19.63C347.449 20.9127 347.743 21.944 348.333 22.724C348.922 23.4867 349.737 23.868 350.777 23.868C351.817 23.868 352.631 23.4867 353.221 22.724C353.81 21.944 354.105 20.9127 354.105 19.63C354.105 18.33 353.81 17.2987 353.221 16.536C352.631 15.756 351.817 15.366 350.777 15.366C349.737 15.366 348.922 15.756 348.333 16.536C347.743 17.2987 347.449 18.33 347.449 19.63ZM360.412 7.644H367.432V21.502C367.432 22.3687 367.649 22.984 368.082 23.348C368.516 23.6947 369.062 23.868 369.72 23.868C370.344 23.868 371.072 23.7033 371.904 23.374L372.606 25.584C372 25.792 371.428 25.9653 370.89 26.104C370.37 26.2427 369.738 26.312 368.992 26.312C367.484 26.312 366.349 25.8787 365.586 25.012C364.824 24.1453 364.442 22.9233 364.442 21.346V10.01H360.412V7.644ZM379.07 29.796C381.272 28.912 382.381 27.5773 382.398 25.792C382.312 25.8093 382.19 25.818 382.034 25.818C381.376 25.818 380.804 25.6273 380.318 25.246C379.833 24.8473 379.59 24.2667 379.59 23.504C379.59 22.776 379.833 22.2127 380.318 21.814C380.821 21.398 381.41 21.19 382.086 21.19C383.022 21.19 383.724 21.5367 384.192 22.23C384.66 22.9233 384.894 23.8767 384.894 25.09C384.894 26.6847 384.461 28.028 383.594 29.12C382.728 30.2293 381.48 31.0527 379.85 31.59L379.07 29.796ZM506.623 28.314V9.23H501.527V7.592H508.963V29.952H501.527V28.314H506.623Z" transform="translate(11 136)" fill="black"/>
<path d="M412.252 9.49C411.403 9.94067 410.735 10.4867 410.25 11.128C409.782 11.752 409.522 12.4973 409.47 13.364C409.626 13.2947 409.817 13.26 410.042 13.26C410.666 13.26 411.169 13.4593 411.55 13.858C411.949 14.2393 412.148 14.742 412.148 15.366C412.148 16.0767 411.94 16.6487 411.524 17.082C411.125 17.498 410.597 17.706 409.938 17.706C409.106 17.706 408.447 17.3853 407.962 16.744C407.477 16.0853 407.234 15.184 407.234 14.04C407.234 12.688 407.589 11.4833 408.3 10.426C409.011 9.36867 410.042 8.51067 411.394 7.852L412.252 9.49ZM418.674 9.49C417.825 9.94067 417.157 10.4867 416.672 11.128C416.204 11.752 415.944 12.4973 415.892 13.364C416.048 13.2947 416.239 13.26 416.464 13.26C417.088 13.26 417.591 13.4593 417.972 13.858C418.371 14.2393 418.57 14.742 418.57 15.366C418.57 16.0767 418.362 16.6487 417.946 17.082C417.547 17.498 417.019 17.706 416.36 17.706C415.528 17.706 414.869 17.3853 414.384 16.744C413.899 16.0853 413.656 15.184 413.656 14.04C413.656 12.688 414.011 11.4833 414.722 10.426C415.433 9.36867 416.464 8.51067 417.816 7.852L418.674 9.49ZM423.058 13.234H425.528L425.762 15.158H425.866C426.472 14.5513 427.14 14.0313 427.868 13.598C428.613 13.1473 429.48 12.922 430.468 12.922C431.941 12.922 433.024 13.3727 433.718 14.274C434.411 15.158 434.758 16.432 434.758 18.096V26H431.742V18.486C431.742 17.446 431.56 16.692 431.196 16.224C430.849 15.7387 430.234 15.496 429.35 15.496C428.726 15.496 428.171 15.6433 427.686 15.938C427.2 16.2327 426.663 16.6833 426.074 17.29V26H423.058V13.234ZM438.362 22.568C438.362 21.8573 438.526 21.2333 438.856 20.696C439.185 20.1413 439.705 19.6733 440.416 19.292C441.126 18.9107 442.036 18.5987 443.146 18.356C444.255 18.1133 445.598 17.94 447.176 17.836C447.124 17.108 446.864 16.51 446.396 16.042C445.928 15.574 445.174 15.34 444.134 15.34C443.406 15.34 442.686 15.4787 441.976 15.756C441.282 16.016 440.606 16.328 439.948 16.692L438.856 14.69C439.636 14.2393 440.528 13.832 441.534 13.468C442.539 13.104 443.588 12.922 444.68 12.922C446.465 12.922 447.826 13.3987 448.762 14.352C449.698 15.288 450.166 16.6487 450.166 18.434V26H447.722L447.488 24.414H447.41C446.734 24.934 445.98 25.3847 445.148 25.766C444.333 26.13 443.492 26.312 442.626 26.312C442.002 26.312 441.43 26.2167 440.91 26.026C440.39 25.8527 439.939 25.6013 439.558 25.272C439.176 24.9427 438.882 24.5527 438.674 24.102C438.466 23.634 438.362 23.1227 438.362 22.568ZM441.248 22.334C441.248 22.906 441.464 23.322 441.898 23.582C442.348 23.842 442.894 23.972 443.536 23.972C444.177 23.972 444.792 23.8333 445.382 23.556C445.988 23.2613 446.586 22.88 447.176 22.412V19.708C446.032 19.7947 445.078 19.916 444.316 20.072C443.553 20.2107 442.946 20.3927 442.496 20.618C442.045 20.8433 441.724 21.1033 441.534 21.398C441.343 21.6753 441.248 21.9873 441.248 22.334ZM453.353 13.234H455.615L455.849 14.872H455.927C456.222 14.3173 456.577 13.858 456.993 13.494C457.427 13.1127 458.007 12.922 458.735 12.922C459.983 12.922 460.763 13.6327 461.075 15.054C461.37 14.4473 461.743 13.9447 462.193 13.546C462.661 13.13 463.251 12.922 463.961 12.922C464.863 12.922 465.556 13.2773 466.041 13.988C466.544 14.6813 466.795 15.6693 466.795 16.952V26H463.961V17.186C463.961 16.0593 463.606 15.496 462.895 15.496C462.549 15.496 462.245 15.626 461.985 15.886C461.725 16.146 461.474 16.5447 461.231 17.082V26H458.891V17.186C458.891 16.0593 458.527 15.496 457.799 15.496C457.453 15.496 457.158 15.626 456.915 15.886C456.673 16.146 456.43 16.5447 456.187 17.082V26H453.353V13.234ZM469.307 19.63C469.307 18.59 469.489 17.654 469.853 16.822C470.235 15.99 470.729 15.288 471.335 14.716C471.942 14.1267 472.635 13.6847 473.415 13.39C474.213 13.078 475.027 12.922 475.859 12.922C476.813 12.922 477.653 13.078 478.381 13.39C479.127 13.6847 479.751 14.1007 480.253 14.638C480.756 15.158 481.137 15.7907 481.397 16.536C481.657 17.2813 481.787 18.096 481.787 18.98C481.787 19.2747 481.77 19.552 481.735 19.812C481.718 20.072 481.692 20.28 481.657 20.436H472.375C472.479 21.58 472.93 22.464 473.727 23.088C474.525 23.6947 475.504 23.998 476.665 23.998C477.324 23.998 477.939 23.9113 478.511 23.738C479.083 23.5473 479.664 23.2873 480.253 22.958L481.267 24.83C480.574 25.2633 479.803 25.6187 478.953 25.896C478.104 26.1733 477.211 26.312 476.275 26.312C475.305 26.312 474.395 26.1647 473.545 25.87C472.696 25.558 471.959 25.116 471.335 24.544C470.711 23.972 470.217 23.2787 469.853 22.464C469.489 21.632 469.307 20.6873 469.307 19.63ZM479.031 18.408C479.031 17.42 478.771 16.6487 478.251 16.094C477.731 15.522 476.96 15.236 475.937 15.236C475.071 15.236 474.299 15.5047 473.623 16.042C472.947 16.5793 472.523 17.368 472.349 18.408H479.031ZM485.547 16.068C486.396 15.6173 487.055 15.08 487.523 14.456C488.008 13.8147 488.286 13.0607 488.355 12.194C488.164 12.2633 487.956 12.298 487.731 12.298C487.124 12.298 486.622 12.1073 486.223 11.726C485.824 11.3273 485.625 10.816 485.625 10.192C485.625 9.48133 485.833 8.918 486.249 8.502C486.665 8.06867 487.194 7.852 487.835 7.852C488.667 7.852 489.326 8.18133 489.811 8.84C490.296 9.48133 490.539 10.374 490.539 11.518C490.539 12.87 490.184 14.0747 489.473 15.132C488.78 16.1893 487.757 17.0473 486.405 17.706L485.547 16.068ZM491.969 16.068C492.818 15.6173 493.477 15.08 493.945 14.456C494.43 13.8147 494.708 13.0607 494.777 12.194C494.586 12.2633 494.378 12.298 494.153 12.298C493.546 12.298 493.044 12.1073 492.645 11.726C492.246 11.3273 492.047 10.816 492.047 10.192C492.047 9.48133 492.255 8.918 492.671 8.502C493.087 8.06867 493.616 7.852 494.257 7.852C495.089 7.852 495.748 8.18133 496.233 8.84C496.718 9.48133 496.961 10.374 496.961 11.518C496.961 12.87 496.606 14.0747 495.895 15.132C495.202 16.1893 494.179 17.0473 492.827 17.706L491.969 16.068Z" transform="translate(11 136)" fill="#B82629"/>
<path d="M16.7071 8.07107C17.0976 7.68054 17.0976 7.04738 16.7071 6.65685L10.3431 0.29289C9.95262 -0.09763 9.31946 -0.09763 8.92893 0.29289C8.53841 0.68342 8.53841 1.31658 8.92893 1.70711L14.5858 7.36396L8.92893 13.0208C8.53841 13.4113 8.53841 14.0445 8.92893 14.435C9.31946 14.8255 9.95262 14.8255 10.3431 14.435L16.7071 8.07107ZM0 8.36396H16V6.36396H0V8.36396Z" transform="translate(668 129.272) scale(2)" fill="white"/>
<path d="M16.7071 8.07107C17.0976 7.68054 17.0976 7.04738 16.7071 6.65685L10.3431 0.29289C9.95262 -0.09763 9.31946 -0.09763 8.92893 0.29289C8.53841 0.68342 8.53841 1.31658 8.92893 1.70711L14.5858 7.36396L8.92893 13.0208C8.53841 13.4113 8.53841 14.0445 8.92893 14.435C9.31946 14.8255 9.95262 14.8255 10.3431 14.435L16.7071 8.07107ZM0 8.36396H16V6.36396H0V8.36396Z" transform="translate(675 237.272) scale(2)" fill="white"/>
<path d="M16.7071 8.07107C17.0976 7.68054 17.0976 7.04738 16.7071 6.65685L10.3431 0.29289C9.95262 -0.09763 9.31946 -0.09763 8.92893 0.29289C8.53841 0.68342 8.53841 1.31658 8.92893 1.70711L14.5858 7.36396L8.92893 13.0208C8.53841 13.4113 8.53841 14.0445 8.92893 14.435C9.31946 14.8255 9.95262 14.8255 10.3431 14.435L16.7071 8.07107ZM0 8.36396H16V6.36396H0V8.36396Z" transform="translate(938 127.272) scale(2)" fill="white"/>
<path d="M16.7071 8.07107C17.0976 7.68054 17.0976 7.04738 16.7071 6.65685L10.3431 0.29289C9.95262 -0.09763 9.31946 -0.09763 8.92893 0.29289C8.53841 0.68342 8.53841 1.31658 8.92893 1.70711L14.5858 7.36396L8.92893 13.0208C8.53841 13.4113 8.53841 14.0445 8.92893 14.435C9.31946 14.8255 9.95262 14.8255 10.3431 14.435L16.7071 8.07107ZM0 8.36396H16V6.36396H0V8.36396Z" transform="translate(937.605 232.153) scale(2) rotate(-44.8968)" fill="white"/>
<path d="M0.5 0.5V0H0V0.5H0.5ZM37.5 0.5H38V0H37.5V0.5ZM37.5 26.5V27H38V26.5H37.5ZM0.5 26.5H0V27H0.5V26.5ZM0.5 1H37.5V0H0.5V1ZM37 0.5V26.5H38V0.5H37ZM37.5 26H0.5V27H37.5V26ZM1 26.5V0.5H0V26.5H1Z" transform="translate(859 65) scale(2)" fill="black"/>
<path d="M3.8213 10.0898H2.5498V1.66113L0 2.59765V1.44922L3.623 0.08886H3.8213V10.0898ZM14.0479 10.0898H7.5264V9.18064L10.9717 5.35254C11.4821 4.77376 11.833 4.30436 12.0244 3.94433C12.2204 3.57975 12.3184 3.20377 12.3184 2.8164C12.3184 2.29687 12.1611 1.87076 11.8467 1.53808C11.5322 1.2054 11.113 1.03906 10.5889 1.03906C9.96 1.03906 9.4701 1.21907 9.1191 1.5791C8.7728 1.93457 8.5996 2.43131 8.5996 3.06933H7.335C7.335 2.15332 7.6289 1.41276 8.2168 0.84765C8.8092 0.28255 9.5999 0 10.5889 0C11.514 0 12.2454 0.24381 12.7832 0.73144C13.321 1.21451 13.5898 1.85937 13.5898 2.66601C13.5898 3.64583 12.9655 4.8125 11.7168 6.16601L9.0508 9.05764H14.0479V10.0898Z" transform="translate(884.022 82.4203) scale(2)" fill="black"/>
<path d="M0 0H37V26H0V0Z" transform="translate(860 118) scale(2)" fill="white"/>
<path d="M0.5 0.5V0H0V0.5H0.5ZM37.5 0.5H38V0H37.5V0.5ZM37.5 26.5V27H38V26.5H37.5ZM0.5 26.5H0V27H0.5V26.5ZM0.5 1H37.5V0H0.5V1ZM37 0.5V26.5H38V0.5H37ZM37.5 26H0.5V27H37.5V26ZM1 26.5V0.5H0V26.5H1Z" transform="translate(859 117) scale(2)" fill="black"/>
<path d="M6.0976 2.73437C6.0976 3.23112 5.9655 3.67317 5.7012 4.06054C5.4414 4.44791 5.0882 4.75097 4.6416 4.96972C5.1611 5.19303 5.5713 5.51888 5.872 5.94726C6.1774 6.37565 6.3301 6.861 6.3301 7.40334C6.3301 8.26464 6.0384 8.95054 5.4551 9.46094C4.8763 9.97134 4.1129 10.2265 3.165 10.2265C2.208 10.2265 1.4401 9.97134 0.8613 9.46094C0.2871 8.94594 0 8.26004 0 7.40334C0 6.86556 0.1458 6.3802 0.4375 5.94726C0.7337 5.51432 1.1416 5.18619 1.6611 4.96289C1.2191 4.74414 0.8704 4.44108 0.6152 4.05371C0.36 3.66634 0.2324 3.22656 0.2324 2.73437C0.2324 1.89583 0.501301 1.23046 1.039 0.73828C1.5768 0.24609 2.2855 0 3.165 0C4.04 0 4.7464 0.24609 5.2842 0.73828C5.8265 1.23046 6.0976 1.89583 6.0976 2.73437ZM5.0654 7.37594C5.0654 6.81998 4.8877 6.36653 4.5322 6.01562C4.1813 5.66471 3.721 5.48925 3.1513 5.48925C2.5817 5.48925 2.1237 5.66243 1.7773 6.00879C1.4355 6.35514 1.2646 6.81087 1.2646 7.37594C1.2646 7.94104 1.431 8.38544 1.7637 8.70894C2.1009 9.03254 2.568 9.19434 3.165 9.19434C3.7575 9.19434 4.2223 9.03254 4.5595 8.70894C4.8968 8.38084 5.0654 7.93654 5.0654 7.37594ZM3.165 1.03906C2.6683 1.03906 2.265 1.19401 1.9551 1.5039C1.6497 1.80924 1.497 2.22623 1.497 2.75488C1.497 3.26074 1.6474 3.67089 1.9482 3.98535C2.2536 4.29524 2.6592 4.45019 3.165 4.45019C3.6709 4.45019 4.0742 4.29524 4.375 3.98535C4.6803 3.67089 4.833 3.26074 4.833 2.75488C4.833 2.24902 4.6758 1.83658 4.3613 1.51757C4.0469 1.19856 3.6481 1.03906 3.165 1.03906Z" transform="translate(891.091 135.42) scale(2)" fill="black"/>
<path d="M0.5 0.5V0H0V0.5H0.5ZM37.5 0.5H38V0H37.5V0.5ZM37.5 26.5V27H38V26.5H37.5ZM0.5 26.5H0V27H0.5V26.5ZM0.5 1H37.5V0H0.5V1ZM37 0.5V26.5H38V0.5H37ZM37.5 26H0.5V27H37.5V26ZM1 26.5V0.5H0V26.5H1Z" transform="translate(859 169) scale(2)" fill="black"/>
<path d="M0.3555 4.96289L0.8613 0H5.9609V1.16894H1.9346L1.6338 3.88281C2.1214 3.5957 2.6751 3.45214 3.2949 3.45214C4.2018 3.45214 4.9219 3.75292 5.4551 4.35449C5.9883 4.95149 6.2549 5.76041 6.2549 6.78124C6.2549 7.80662 5.9769 8.61552 5.4209 9.20802C4.8695 9.79592 4.097 10.0898 3.1035 10.0898C2.2239 10.0898 1.5062 9.84602 0.9502 9.35842C0.3942 8.87072 0.0775 8.19632 0 7.33492H1.1963C1.2738 7.90462 1.4766 8.33532 1.8047 8.62692C2.1328 8.91402 2.5657 9.05762 3.1035 9.05762C3.6914 9.05762 4.1517 8.85712 4.4844 8.45602C4.8216 8.05502 4.9902 7.50132 4.9902 6.79492C4.9902 6.12955 4.8079 5.59635 4.4433 5.19531C4.0833 4.78971 3.6025 4.58691 3.001 4.58691C2.4495 4.58691 2.0166 4.70768 1.7021 4.94921L1.3672 5.22265L0.3555 4.96289Z" transform="translate(891.665 186.694) scale(2)" fill="black"/>
<path d="M0 0H37V26H0V0Z" transform="translate(860 222) scale(2)" fill="white"/>
<path d="M0.5 0.5V0H0V0.5H0.5ZM37.5 0.5H38V0H37.5V0.5ZM37.5 26.5V27H38V26.5H37.5ZM0.5 26.5H0V27H0.5V26.5ZM0.5 1H37.5V0H0.5V1ZM37 0.5V26.5H38V0.5H37ZM37.5 26H0.5V27H37.5V26ZM1 26.5V0.5H0V26.5H1Z" transform="translate(859 221) scale(2)" fill="black"/>
<path d="M6.0976 2.73437C6.0976 3.23112 5.9655 3.67317 5.7012 4.06054C5.4414 4.44791 5.0882 4.75097 4.6416 4.96972C5.1611 5.19303 5.5713 5.51888 5.872 5.94726C6.1774 6.37565 6.3301 6.861 6.3301 7.40334C6.3301 8.26464 6.0384 8.95054 5.4551 9.46094C4.8763 9.97134 4.1129 10.2265 3.165 10.2265C2.208 10.2265 1.4401 9.97134 0.8613 9.46094C0.2871 8.94594 0 8.26004 0 7.40334C0 6.86556 0.1458 6.3802 0.4375 5.94726C0.7337 5.51432 1.1416 5.18619 1.6611 4.96289C1.2191 4.74414 0.8704 4.44108 0.6152 4.05371C0.36 3.66634 0.2324 3.22656 0.2324 2.73437C0.2324 1.89583 0.501301 1.23046 1.039 0.73828C1.5768 0.24609 2.2855 0 3.165 0C4.04 0 4.7464 0.24609 5.2842 0.73828C5.8265 1.23046 6.0976 1.89583 6.0976 2.73437ZM5.0654 7.37594C5.0654 6.81998 4.8877 6.36653 4.5322 6.01562C4.1813 5.66471 3.721 5.48925 3.1513 5.48925C2.5817 5.48925 2.1237 5.66243 1.7773 6.00879C1.4355 6.35514 1.2646 6.81087 1.2646 7.37594C1.2646 7.94104 1.431 8.38544 1.7637 8.70894C2.1009 9.03254 2.568 9.19434 3.165 9.19434C3.7575 9.19434 4.2223 9.03254 4.5595 8.70894C4.8968 8.38084 5.0654 7.93654 5.0654 7.37594ZM3.165 1.03906C2.6683 1.03906 2.265 1.19401 1.9551 1.5039C1.6497 1.80924 1.497 2.22623 1.497 2.75488C1.497 3.26074 1.6474 3.67089 1.9482 3.98535C2.2536 4.29524 2.6592 4.45019 3.165 4.45019C3.6709 4.45019 4.0742 4.29524 4.375 3.98535C4.6803 3.67089 4.833 3.26074 4.833 2.75488C4.833 2.24902 4.6758 1.83658 4.3613 1.51757C4.0469 1.19856 3.6481 1.03906 3.165 1.03906Z" transform="translate(891.091 239.42) scale(2)" fill="black"/>
<path d="M3.1582 2.70019L4.79878 0H6.27538L3.85547 3.65722L6.35058 7.39648H4.88768L3.17871 4.62788L1.46972 7.39648H0L2.49511 3.65722L0.0751901 0H1.53808L3.1582 2.70019Z" transform="translate(722.615 137.207) scale(2)" fill="#828282"/>
<path d="M3.22656 5.54398L4.94924 0H6.30274L3.3291 8.53808C2.86882 9.76858 2.13737 10.3838 1.13477 10.3838L0.89551 10.3633L0.42383 10.2744V9.24898L0.76563 9.27638C1.19401 9.27638 1.52669 9.18978 1.76367 9.01658C2.00521 8.84338 2.20345 8.52668 2.3584 8.06638L2.63867 7.31448L0 0H1.38086L3.22656 5.54398Z" transform="translate(722.67 191.207) scale(2)" fill="#828282"/>
<path d="M1.54492 6.36428H5.87209V7.39648H0V6.46678L4.08105 1.04589H0.0615201V0H5.66699V0.8955L1.54492 6.36428Z" transform="translate(723.258 243.207) scale(2)" fill="#828282"/>
<path d="M7.21193 5.65328L8.63383 0H9.89843L7.74513 7.39648H6.71973L4.92188 1.79101L3.17188 7.39648H2.14649L0 0H1.25782L2.71387 5.53708L4.43653 0H5.45508L7.21193 5.65328Z" transform="translate(719.061 87.207) scale(2)" fill="#828282"/>
<path d="M0.5 0.5V0H0V0.5H0.5ZM56.5 0.5H57V0H56.5V0.5ZM56.5 26.5V27H57V26.5H56.5ZM0.5 26.5H0V27H0.5V26.5ZM0.5 1H56.5V0H0.5V1ZM56 0.5V26.5H57V0.5H56ZM56.5 26H0.5V27H56.5V26ZM1 26.5V0.5H0V26.5H1Z" transform="translate(747 65) scale(2)" fill="black"/>
<path d="M2.5293 5.87207L1.3125 7.13672V10.5H0V0.54688H1.3125V5.46875L5.7354 0.54688H7.3213L3.4043 4.94238L7.6289 10.5H6.0567L2.5293 5.87207ZM10.7256 8.6475L12.4483 3.10352H13.8018L10.8282 11.6416C10.3679 12.8721 9.6364 13.4873 8.6338 13.4873L8.3946 13.4668L7.9229 13.3779V12.3525L8.2647 12.3799C8.6931 12.3799 9.0257 12.2933 9.2627 12.1201C9.5043 11.9469 9.7025 11.6302 9.8575 11.1699L10.1377 10.418L7.4991 3.10352H8.8799L10.7256 8.6475ZM16.3106 10.5H15.0459V0H16.3106V10.5ZM19.7149 10.5H18.4502V3.10352H19.7149V10.5ZM18.3477 1.1416C18.3477 0.93652 18.4092 0.76335 18.5323 0.62207C18.6599 0.48079 18.8467 0.41016 19.0928 0.41016C19.3389 0.41016 19.5257 0.48079 19.6534 0.62207C19.781 0.76335 19.8448 0.93652 19.8448 1.1416C19.8448 1.34668 19.781 1.51758 19.6534 1.6543C19.5257 1.79102 19.3389 1.85938 19.0928 1.85938C18.8467 1.85938 18.6599 1.79102 18.5323 1.6543C18.4092 1.51758 18.3477 1.34668 18.3477 1.1416ZM24.8145 10.6367C23.8119 10.6367 22.9961 10.3086 22.3672 9.6523C21.7383 8.9915 21.4239 8.1097 21.4239 7.00684V6.77441C21.4239 6.04069 21.5629 5.38672 21.8409 4.8125C22.1234 4.23372 22.5153 3.78255 23.0166 3.45898C23.5225 3.13086 24.0694 2.9668 24.6573 2.9668C25.6189 2.9668 26.3662 3.28353 26.8994 3.91699C27.4327 4.55046 27.6993 5.45736 27.6993 6.6377V7.16406H22.6885C22.7067 7.8932 22.9187 8.4834 23.3243 8.9346C23.7344 9.3812 24.2539 9.6045 24.8828 9.6045C25.3295 9.6045 25.7077 9.5133 26.0176 9.3311C26.3275 9.1488 26.5987 8.9072 26.8311 8.6064L27.6036 9.208C26.9838 10.1605 26.0541 10.6367 24.8145 10.6367ZM24.6573 4.00586C24.1468 4.00586 23.7185 4.19271 23.3721 4.56641C23.0258 4.93555 22.8116 5.45508 22.7295 6.125H26.4346V6.0293C26.3981 5.38672 26.225 4.88997 25.9151 4.53906C25.6052 4.18359 25.1859 4.00586 24.6573 4.00586Z" transform="translate(777.58 81.6) scale(2)" fill="black"/>
<path d="M0.5 0.5V0H0V0.5H0.5ZM56.5 0.5H57V0H56.5V0.5ZM56.5 26.5V27H57V26.5H56.5ZM0.5 26.5H0V27H0.5V26.5ZM0.5 1H56.5V0H0.5V1ZM56 0.5V26.5H57V0.5H56ZM56.5 26H0.5V27H56.5V26ZM1 26.5V0.5H0V26.5H1Z" transform="translate(747 117) scale(2)" fill="black"/>
<path d="M3.6572 6.47363H1.3193V10.5H0V0.54688H3.2949C4.416 0.54688 5.2773 0.80208 5.8789 1.3125C6.485 1.82292 6.7881 2.56576 6.7881 3.54102C6.7881 4.16081 6.6194 4.70085 6.2822 5.16113C5.9495 5.62142 5.4847 5.96549 4.8877 6.19336L7.2256 10.418V10.5H5.8174L3.6572 6.47363ZM1.3193 5.40039H3.3359C3.9876 5.40039 4.5049 5.23177 4.8877 4.89453C5.275 4.55729 5.4687 4.10612 5.4687 3.54102C5.4687 2.92578 5.2842 2.4541 4.915 2.12598C4.5504 1.79785 4.0218 1.63151 3.3291 1.62695H1.3193V5.40039ZM13.0019 10.5C12.929 10.3542 12.8698 10.0944 12.8242 9.7207C12.2363 10.3314 11.5345 10.6367 10.7187 10.6367C9.9896 10.6367 9.3903 10.4316 8.9209 10.0215C8.456 9.6068 8.2236 9.0827 8.2236 8.4492C8.2236 7.679 8.5153 7.08203 9.0986 6.6582C9.6865 6.22982 10.5114 6.01562 11.5732 6.01562H12.8037V5.43457C12.8037 4.99251 12.6715 4.6416 12.4072 4.38184C12.1429 4.11751 11.7532 3.98535 11.2383 3.98535C10.7871 3.98535 10.4088 4.09928 10.1035 4.32715C9.7982 4.55501 9.6455 4.83073 9.6455 5.1543H8.374C8.374 4.78516 8.5039 4.42969 8.7636 4.08789C9.028 3.74154 9.3834 3.4681 9.8301 3.26758C10.2812 3.06706 10.7757 2.9668 11.3135 2.9668C12.1657 2.9668 12.8333 3.18099 13.3164 3.60938C13.7995 4.0332 14.0501 4.61882 14.0683 5.36621V8.7705C14.0683 9.4495 14.1549 9.9896 14.3281 10.3906V10.5H13.0019ZM10.9033 9.5361C11.2998 9.5361 11.6758 9.4336 12.0312 9.2285C12.3867 9.0234 12.6442 8.7568 12.8037 8.4287V6.91113H11.8125C10.263 6.91113 9.4883 7.36458 9.4883 8.2715C9.4883 8.668 9.6204 8.9779 9.8847 9.2012C10.1491 9.4245 10.4886 9.5361 10.9033 9.5361ZM17.3154 3.99902C17.876 3.31087 18.6051 2.9668 19.5029 2.9668C21.0661 2.9668 21.8545 3.84863 21.8681 5.6123V10.5H20.6035V5.60547C20.5989 5.07227 20.4759 4.67806 20.2344 4.42285C19.9974 4.16764 19.626 4.04004 19.1201 4.04004C18.7099 4.04004 18.3499 4.14941 18.04 4.36816C17.7301 4.58691 17.4886 4.87402 17.3154 5.22949V10.5H16.0508V0H17.3154V3.99902ZM28.3281 9.7686C27.8359 10.3473 27.1136 10.6367 26.1611 10.6367C25.3727 10.6367 24.7711 10.4089 24.3564 9.9531C23.9463 9.4928 23.7389 8.8138 23.7344 7.916V3.10352H24.999V7.8818C24.999 9.0029 25.4547 9.5635 26.3662 9.5635C27.3323 9.5635 27.9749 9.2035 28.2939 8.4834V3.10352H29.5586V10.5H28.3554L28.3281 9.7686ZM32.8603 10.5H31.5957V0H32.8603V10.5Z" transform="translate(771.852 134.6) scale(2)" fill="black"/>
<path d="M0.5 0.5V0H0V0.5H0.5ZM56.5 0.5H57V0H56.5V0.5ZM56.5 26.5V27H57V26.5H56.5ZM0.5 26.5H0V27H0.5V26.5ZM0.5 1H56.5V0H0.5V1ZM56 0.5V26.5H57V0.5H56ZM56.5 26H0.5V27H56.5V26ZM1 26.5V0.5H0V26.5H1Z" transform="translate(747 169) scale(2)" fill="black"/>
<path d="M1.69531 0.54688L4.94922 8.668L8.20316 0.54688H9.90526V10.5H8.59276V6.62402L8.71586 2.44043L5.44824 10.5H4.44336L1.18262 2.46094L1.3125 6.62402V10.5H0V0.54688H1.69531ZM13.3985 10.5H12.1338V3.10352H13.3985V10.5ZM12.0313 1.1416C12.0313 0.93652 12.0928 0.76335 12.2159 0.62207C12.3435 0.48079 12.5303 0.41016 12.7764 0.41016C13.0225 0.41016 13.2093 0.48079 13.337 0.62207C13.4646 0.76335 13.5284 0.93652 13.5284 1.1416C13.5284 1.34668 13.4646 1.51758 13.337 1.6543C13.2093 1.79102 13.0225 1.85938 12.7764 1.85938C12.5303 1.85938 12.3435 1.79102 12.2159 1.6543C12.0928 1.51758 12.0313 1.34668 12.0313 1.1416ZM18.3955 9.6045C18.8467 9.6045 19.2409 9.4678 19.5782 9.1943C19.9154 8.9209 20.1023 8.5791 20.1387 8.1689H21.335C21.3122 8.5928 21.1664 8.9961 20.8975 9.3789C20.6286 9.7617 20.2686 10.0671 19.8174 10.2949C19.3708 10.5228 18.8968 10.6367 18.3955 10.6367C17.3884 10.6367 16.5863 10.3018 15.9893 9.6318C15.3968 8.9574 15.1006 8.0368 15.1006 6.87012V6.6582C15.1006 5.93815 15.2328 5.29785 15.4971 4.7373C15.7614 4.17676 16.1397 3.74154 16.6319 3.43164C17.1286 3.12174 17.7142 2.9668 18.3887 2.9668C19.2181 2.9668 19.9063 3.21517 20.4532 3.71191C21.0046 4.20866 21.2985 4.85352 21.335 5.64648H20.1387C20.1023 5.16797 19.92 4.77604 19.5918 4.4707C19.2683 4.16081 18.8672 4.00586 18.3887 4.00586C17.7461 4.00586 17.2471 4.23828 16.8916 4.70312C16.5407 5.16341 16.3653 5.83105 16.3653 6.70605V6.94531C16.3653 7.7975 16.5407 8.4538 16.8916 8.9141C17.2426 9.3743 17.7439 9.6045 18.3955 9.6045ZM24.0215 3.99902C24.5821 3.31087 25.3112 2.9668 26.209 2.9668C27.7722 2.9668 28.5606 3.84863 28.5743 5.6123V10.5H27.3096V5.60547C27.3051 5.07227 27.182 4.67806 26.9405 4.42285C26.7035 4.16764 26.3321 4.04004 25.8262 4.04004C25.4161 4.04004 25.056 4.14941 24.7461 4.36816C24.4362 4.58691 24.1947 4.87402 24.0215 5.22949V10.5H22.7569V0H24.0215V3.99902ZM35.0342 10.5C34.9613 10.3542 34.9021 10.0944 34.8565 9.7207C34.2686 10.3314 33.5668 10.6367 32.751 10.6367C32.0219 10.6367 31.4226 10.4316 30.9532 10.0215C30.4883 9.6068 30.2559 9.0827 30.2559 8.4492C30.2559 7.679 30.5476 7.08203 31.1309 6.6582C31.7188 6.22982 32.5437 6.01562 33.6055 6.01562H34.836V5.43457C34.836 4.99251 34.7038 4.6416 34.4395 4.38184C34.1752 4.11751 33.7855 3.98535 33.2705 3.98535C32.8194 3.98535 32.4411 4.09928 32.1358 4.32715C31.8304 4.55501 31.6778 4.83073 31.6778 5.1543H30.4063C30.4063 4.78516 30.5362 4.42969 30.7959 4.08789C31.0603 3.74154 31.4157 3.4681 31.8623 3.26758C32.3135 3.06706 32.808 2.9668 33.3457 2.9668C34.198 2.9668 34.8656 3.18099 35.3487 3.60938C35.8317 4.0332 36.0824 4.61882 36.1006 5.36621V8.7705C36.1006 9.4495 36.1872 9.9896 36.3604 10.3906V10.5H35.0342ZM32.9356 9.5361C33.3321 9.5361 33.708 9.4336 34.0635 9.2285C34.419 9.0234 34.6765 8.7568 34.836 8.4287V6.91113H33.8448C32.2953 6.91113 31.5205 7.36458 31.5205 8.2715C31.5205 8.668 31.6527 8.9779 31.917 9.2012C32.1814 9.4245 32.5209 9.5361 32.9356 9.5361ZM41.1524 10.6367C40.1498 10.6367 39.334 10.3086 38.7051 9.6523C38.0762 8.9915 37.7618 8.1097 37.7618 7.00684V6.77441C37.7618 6.04069 37.9008 5.38672 38.1788 4.8125C38.4613 4.23372 38.8532 3.78255 39.3545 3.45898C39.8604 3.13086 40.4073 2.9668 40.9952 2.9668C41.9567 2.9668 42.7041 3.28353 43.2373 3.91699C43.7705 4.55046 44.0372 5.45736 44.0372 6.6377V7.16406H39.0264C39.0446 7.8932 39.2566 8.4834 39.6622 8.9346C40.0723 9.3812 40.5918 9.6045 41.2207 9.6045C41.6674 9.6045 42.0456 9.5133 42.3555 9.3311C42.6654 9.1488 42.9366 8.9072 43.169 8.6064L43.9414 9.208C43.3217 10.1605 42.392 10.6367 41.1524 10.6367ZM40.9952 4.00586C40.4847 4.00586 40.0564 4.19271 39.71 4.56641C39.3636 4.93555 39.1495 5.45508 39.0674 6.125H42.7725V6.0293C42.736 5.38672 42.5629 4.88997 42.253 4.53906C41.9431 4.18359 41.5238 4.00586 40.9952 4.00586ZM46.8809 10.5H45.6163V0H46.8809V10.5Z" transform="translate(757.838 185.6) scale(2)" fill="black"/>
<path d="M0.5 0.5V0H0V0.5H0.5ZM56.5 0.5H57V0H56.5V0.5ZM56.5 26.5V27H57V26.5H56.5ZM0.5 26.5H0V27H0.5V26.5ZM0.5 1H56.5V0H0.5V1ZM56 0.5V26.5H57V0.5H56ZM56.5 26H0.5V27H56.5V26ZM1 26.5V0.5H0V26.5H1Z" transform="translate(747 221) scale(2)" fill="black"/>
<path d="M3.54098 6.06348C2.41538 5.73991 1.59508 5.34342 1.08008 4.87402C0.56968 4.40007 0.314481 3.81673 0.314481 3.12402C0.314481 2.34017 0.62668 1.69303 1.25098 1.18262C1.87988 0.66764 2.69568 0.41016 3.69828 0.41016C4.38188 0.41016 4.99028 0.54232 5.52348 0.80664C6.06118 1.07096 6.47588 1.43555 6.76758 1.90039C7.06378 2.36523 7.21188 2.87337 7.21188 3.4248H5.89258C5.89258 2.82324 5.70118 2.35156 5.31838 2.00977C4.93558 1.66341 4.39548 1.49023 3.69828 1.49023C3.05108 1.49023 2.54528 1.63379 2.18068 1.9209C1.82068 2.20345 1.64058 2.59766 1.64058 3.10352C1.64058 3.50911 1.81148 3.85319 2.15328 4.13574C2.49968 4.41374 3.08528 4.66895 3.91018 4.90137C4.73958 5.13379 5.38668 5.39128 5.85158 5.67383C6.32098 5.95182 6.66728 6.27767 6.89058 6.65137C7.11848 7.02507 7.23238 7.46484 7.23238 7.9707C7.23238 8.7773 6.91798 9.4245 6.28908 9.9121C5.66018 10.3952 4.81938 10.6367 3.76658 10.6367C3.08298 10.6367 2.44498 10.5068 1.85258 10.2471C1.26008 9.9827 0.80208 9.6227 0.47848 9.167C0.15951 8.7113 0 8.194 0 7.6152H1.31938C1.31938 8.2168 1.54038 8.693 1.98238 9.0439C2.42908 9.3903 3.02378 9.5635 3.76658 9.5635C4.45928 9.5635 4.99028 9.4222 5.35938 9.1396C5.72848 8.8571 5.91308 8.472 5.91308 7.9844C5.91308 7.49674 5.74218 7.12077 5.40038 6.85645C5.05858 6.58757 4.43878 6.32324 3.54098 6.06348ZM13.2891 10.5C13.2162 10.3542 13.1569 10.0944 13.1114 9.7207C12.5235 10.3314 11.8216 10.6367 11.0059 10.6367C10.2767 10.6367 9.67738 10.4316 9.20798 10.0215C8.74318 9.6068 8.51078 9.0827 8.51078 8.4492C8.51078 7.679 8.80238 7.08203 9.38578 6.6582C9.97368 6.22982 10.7985 6.01562 11.8604 6.01562H13.0908V5.43457C13.0908 4.99251 12.9587 4.6416 12.6944 4.38184C12.43 4.11751 12.0404 3.98535 11.5254 3.98535C11.0742 3.98535 10.696 4.09928 10.3906 4.32715C10.0853 4.55501 9.93258 4.83073 9.93258 5.1543H8.66118C8.66118 4.78516 8.79098 4.42969 9.05078 4.08789C9.31508 3.74154 9.67058 3.4681 10.1172 3.26758C10.5684 3.06706 11.0628 2.9668 11.6006 2.9668C12.4528 2.9668 13.1205 3.18099 13.6035 3.60938C14.0866 4.0332 14.3373 4.61882 14.3555 5.36621V8.7705C14.3555 9.4495 14.4421 9.9896 14.6153 10.3906V10.5H13.2891ZM11.1905 9.5361C11.5869 9.5361 11.9629 9.4336 12.3184 9.2285C12.6739 9.0234 12.9313 8.7568 13.0908 8.4287V6.91113H12.0996C10.5502 6.91113 9.77538 7.36458 9.77538 8.2715C9.77538 8.668 9.90758 8.9779 10.1719 9.2012C10.4362 9.4245 10.7757 9.5361 11.1905 9.5361ZM19.9131 4.23828C19.7217 4.20638 19.5143 4.19043 19.291 4.19043C18.4616 4.19043 17.8988 4.54362 17.6026 5.25V10.5H16.3379V3.10352H17.5684L17.5889 3.95801C18.0036 3.2972 18.5915 2.9668 19.3526 2.9668C19.5987 2.9668 19.7855 2.9987 19.9131 3.0625V4.23828ZM25.375 10.5C25.3021 10.3542 25.2429 10.0944 25.1973 9.7207C24.6094 10.3314 23.9076 10.6367 23.0918 10.6367C22.3627 10.6367 21.7634 10.4316 21.294 10.0215C20.8291 9.6068 20.5967 9.0827 20.5967 8.4492C20.5967 7.679 20.8884 7.08203 21.4717 6.6582C22.0596 6.22982 22.8845 6.01562 23.9463 6.01562H25.1768V5.43457C25.1768 4.99251 25.0446 4.6416 24.7803 4.38184C24.516 4.11751 24.1263 3.98535 23.6114 3.98535C23.1602 3.98535 22.7819 4.09928 22.4766 4.32715C22.1712 4.55501 22.0186 4.83073 22.0186 5.1543H20.7471C20.7471 4.78516 20.877 4.42969 21.1367 4.08789C21.4011 3.74154 21.7565 3.4681 22.2031 3.26758C22.6543 3.06706 23.1488 2.9668 23.6865 2.9668C24.5388 2.9668 25.2064 3.18099 25.6895 3.60938C26.1726 4.0332 26.4232 4.61882 26.4414 5.36621V8.7705C26.4414 9.4495 26.528 9.9896 26.7012 10.3906V10.5H25.375ZM23.2764 9.5361C23.6729 9.5361 24.0489 9.4336 24.4043 9.2285C24.7598 9.0234 25.0173 8.7568 25.1768 8.4287V6.91113H24.1856C22.6361 6.91113 21.8614 7.36458 21.8614 8.2715C21.8614 8.668 21.9935 8.9779 22.2578 9.2012C22.5222 9.4245 22.8617 9.5361 23.2764 9.5361ZM29.6885 3.99902C30.249 3.31087 30.9782 2.9668 31.876 2.9668C33.4392 2.9668 34.2276 3.84863 34.2412 5.6123V10.5H32.9766V5.60547C32.972 5.07227 32.849 4.67806 32.6074 4.42285C32.3705 4.16764 31.999 4.04004 31.4932 4.04004C31.083 4.04004 30.723 4.14941 30.4131 4.36816C30.1032 4.58691 29.8617 4.87402 29.6885 5.22949V10.5H28.4239V0H29.6885V3.99902Z" transform="translate(770.006 238.6) scale(2)" fill="black"/>
<path d="M1.1963 0.13672L1.2373 1.0664C1.8024 0.35547 2.5407 0 3.4522 0C5.0153 0 5.8037 0.88183 5.8174 2.6455V7.5332H4.5528V2.63867C4.5482 2.10547 4.4252 1.71126 4.1836 1.45605C3.9466 1.20084 3.5752 1.07324 3.0694 1.07324C2.6592 1.07324 2.2992 1.18261 1.9893 1.40136C1.6794 1.62011 1.4378 1.90722 1.2647 2.26269V7.5332H0V0.13672H1.1963ZM12.291 7.5332C12.2181 7.3874 12.1589 7.1276 12.1133 6.7539C11.5254 7.3646 10.8236 7.6699 10.0078 7.6699C9.2787 7.6699 8.6794 7.4648 8.21 7.0547C7.7451 6.64 7.5127 6.1159 7.5127 5.4824C7.5127 4.7122 7.8044 4.11523 8.3877 3.6914C8.9756 3.26302 9.8005 3.04882 10.8623 3.04882H12.0928V2.46777C12.0928 2.02571 11.9606 1.6748 11.6963 1.41504C11.432 1.15071 11.0423 1.01855 10.5274 1.01855C10.0762 1.01855 9.6979 1.13248 9.3926 1.36035C9.0873 1.58821 8.9346 1.86393 8.9346 2.1875H7.6631C7.6631 1.81836 7.793 1.46289 8.0528 1.12109C8.3171 0.77474 8.6725 0.5013 9.1192 0.30078C9.5703 0.10026 10.0648 0 10.6026 0C11.4548 0 12.1224 0.21419 12.6055 0.64258C13.0886 1.0664 13.3392 1.65202 13.3574 2.39941V5.8037C13.3574 6.4827 13.444 7.0228 13.6172 7.4238V7.5332H12.291ZM10.1924 6.5693C10.5889 6.5693 10.9649 6.4668 11.3203 6.2617C11.6758 6.0566 11.9333 5.79 12.0928 5.4619V3.94433H11.1016C9.5521 3.94433 8.7774 4.39778 8.7774 5.3047C8.7774 5.7012 8.9095 6.0111 9.1739 6.2344C9.4382 6.4577 9.7777 6.5693 10.1924 6.5693ZM16.5293 0.13672L16.5635 0.95703C17.1058 0.31901 17.8373 0 18.7578 0C19.7923 0 20.4964 0.39648 20.8701 1.18945C21.1162 0.83398 21.4352 0.54687 21.8272 0.32812C22.2237 0.10937 22.6908 0 23.2285 0C24.8509 0 25.6758 0.85905 25.7031 2.57715V7.5332H24.4385V2.65234C24.4385 2.12369 24.3177 1.72949 24.0762 1.46972C23.8347 1.2054 23.4291 1.07324 22.8594 1.07324C22.39 1.07324 22.0003 1.21452 21.6905 1.49707C21.3806 1.77506 21.2005 2.15104 21.1504 2.625V7.5332H19.8789V2.68652C19.8789 1.611 19.3526 1.07324 18.2998 1.07324C17.4704 1.07324 16.903 1.42643 16.5977 2.13281V7.5332H15.333V0.13672H16.5293ZM30.6865 7.6699C29.6839 7.6699 28.8682 7.3418 28.2393 6.6855C27.6104 6.0247 27.2959 5.1429 27.2959 4.04004V3.80761C27.2959 3.07389 27.4349 2.41992 27.7129 1.8457C27.9955 1.26692 28.3874 0.81575 28.8887 0.49218C29.3946 0.16406 29.9414 0 30.5293 0C31.4909 0 32.2383 0.31673 32.7715 0.95019C33.3047 1.58366 33.5713 2.49056 33.5713 3.6709V4.19726H28.5606C28.5788 4.9264 28.7907 5.5166 29.1963 5.9678C29.6065 6.4144 30.126 6.6377 30.7549 6.6377C31.2015 6.6377 31.5798 6.5465 31.8897 6.3643C32.1996 6.182 32.4707 5.9404 32.7031 5.6396L33.4756 6.2412C32.8558 7.1937 31.9261 7.6699 30.6865 7.6699ZM30.5293 1.03906C30.0189 1.03906 29.5905 1.22591 29.2442 1.59961C28.8978 1.96875 28.6836 2.48828 28.6016 3.1582H32.3067V3.0625C32.2702 2.41992 32.097 1.92317 31.7871 1.57226C31.4772 1.21679 31.058 1.03906 30.5293 1.03906Z" transform="translate(770.873 40.9336) scale(2)" fill="#828282"/>
<path d="M1.54492 6.36428H5.87209V7.39648H0V6.46678L4.08105 1.04589H0.0615201V0H5.66699V0.8955L1.54492 6.36428Z" transform="translate(981.258 190.037) scale(2)" fill="#828282"/>
<path d="M3.1582 2.70019L4.79878 0H6.27538L3.85547 3.65722L6.35058 7.39648H4.88768L3.17871 4.62788L1.46972 7.39648H0L2.49511 3.65722L0.0751901 0H1.53808L3.1582 2.70019Z" transform="translate(980.615 139.207) scale(2)" fill="#828282"/>
<path d="M0.5 0.5V0H0V0.5H0.5ZM56.5 0.5H57V0H56.5V0.5ZM56.5 26.5V27H57V26.5H56.5ZM0.5 26.5H0V27H0.5V26.5ZM0.5 1H56.5V0H0.5V1ZM56 0.5V26.5H57V0.5H56ZM56.5 26H0.5V27H56.5V26ZM1 26.5V0.5H0V26.5H1Z" transform="translate(1119 117) scale(-2 2)" fill="black"/>
<path d="M3.6572 6.47363H1.3193V10.5H0V0.54688H3.2949C4.416 0.54688 5.2773 0.80208 5.8789 1.3125C6.485 1.82292 6.7881 2.56576 6.7881 3.54102C6.7881 4.16081 6.6194 4.70085 6.2822 5.16113C5.9495 5.62142 5.4847 5.96549 4.8877 6.19336L7.2256 10.418V10.5H5.8174L3.6572 6.47363ZM1.3193 5.40039H3.3359C3.9876 5.40039 4.5049 5.23177 4.8877 4.89453C5.275 4.55729 5.4687 4.10612 5.4687 3.54102C5.4687 2.92578 5.2842 2.4541 4.915 2.12598C4.5504 1.79785 4.0218 1.63151 3.3291 1.62695H1.3193V5.40039ZM13.0019 10.5C12.929 10.3542 12.8698 10.0944 12.8242 9.7207C12.2363 10.3314 11.5345 10.6367 10.7187 10.6367C9.9896 10.6367 9.3903 10.4316 8.9209 10.0215C8.456 9.6068 8.2236 9.0827 8.2236 8.4492C8.2236 7.679 8.5153 7.08203 9.0986 6.6582C9.6865 6.22982 10.5114 6.01562 11.5732 6.01562H12.8037V5.43457C12.8037 4.99251 12.6715 4.6416 12.4072 4.38184C12.1429 4.11751 11.7532 3.98535 11.2383 3.98535C10.7871 3.98535 10.4088 4.09928 10.1035 4.32715C9.7982 4.55501 9.6455 4.83073 9.6455 5.1543H8.374C8.374 4.78516 8.5039 4.42969 8.7636 4.08789C9.028 3.74154 9.3834 3.4681 9.8301 3.26758C10.2812 3.06706 10.7757 2.9668 11.3135 2.9668C12.1657 2.9668 12.8333 3.18099 13.3164 3.60938C13.7995 4.0332 14.0501 4.61882 14.0683 5.36621V8.7705C14.0683 9.4495 14.1549 9.9896 14.3281 10.3906V10.5H13.0019ZM10.9033 9.5361C11.2998 9.5361 11.6758 9.4336 12.0312 9.2285C12.3867 9.0234 12.6442 8.7568 12.8037 8.4287V6.91113H11.8125C10.263 6.91113 9.4883 7.36458 9.4883 8.2715C9.4883 8.668 9.6204 8.9779 9.8847 9.2012C10.1491 9.4245 10.4886 9.5361 10.9033 9.5361ZM17.3154 3.99902C17.876 3.31087 18.6051 2.9668 19.5029 2.9668C21.0661 2.9668 21.8545 3.84863 21.8681 5.6123V10.5H20.6035V5.60547C20.5989 5.07227 20.4759 4.67806 20.2344 4.42285C19.9974 4.16764 19.626 4.04004 19.1201 4.04004C18.7099 4.04004 18.3499 4.14941 18.04 4.36816C17.7301 4.58691 17.4886 4.87402 17.3154 5.22949V10.5H16.0508V0H17.3154V3.99902ZM28.3281 9.7686C27.8359 10.3473 27.1136 10.6367 26.1611 10.6367C25.3727 10.6367 24.7711 10.4089 24.3564 9.9531C23.9463 9.4928 23.7389 8.8138 23.7344 7.916V3.10352H24.999V7.8818C24.999 9.0029 25.4547 9.5635 26.3662 9.5635C27.3323 9.5635 27.9749 9.2035 28.2939 8.4834V3.10352H29.5586V10.5H28.3554L28.3281 9.7686ZM32.8603 10.5H31.5957V0H32.8603V10.5Z" transform="translate(1025.31 133) scale(2)" fill="black"/>
<path d="M0.5 0.5V0H0V0.5H0.5ZM56.5 0.5H57V0H56.5V0.5ZM56.5 26.5V27H57V26.5H56.5ZM0.5 26.5H0V27H0.5V26.5ZM0.5 1H56.5V0H0.5V1ZM56 0.5V26.5H57V0.5H56ZM56.5 26H0.5V27H56.5V26ZM1 26.5V0.5H0V26.5H1Z" transform="translate(1005 169) scale(2)" fill="black"/>
<path d="M3.54098 6.06348C2.41538 5.73991 1.59508 5.34342 1.08008 4.87402C0.56968 4.40007 0.314481 3.81673 0.314481 3.12402C0.314481 2.34017 0.62668 1.69303 1.25098 1.18262C1.87988 0.66764 2.69568 0.41016 3.69828 0.41016C4.38188 0.41016 4.99028 0.54232 5.52348 0.80664C6.06118 1.07096 6.47588 1.43555 6.76758 1.90039C7.06378 2.36523 7.21188 2.87337 7.21188 3.4248H5.89258C5.89258 2.82324 5.70118 2.35156 5.31838 2.00977C4.93558 1.66341 4.39548 1.49023 3.69828 1.49023C3.05108 1.49023 2.54528 1.63379 2.18068 1.9209C1.82068 2.20345 1.64058 2.59766 1.64058 3.10352C1.64058 3.50911 1.81148 3.85319 2.15328 4.13574C2.49968 4.41374 3.08528 4.66895 3.91018 4.90137C4.73958 5.13379 5.38668 5.39128 5.85158 5.67383C6.32098 5.95182 6.66728 6.27767 6.89058 6.65137C7.11848 7.02507 7.23238 7.46484 7.23238 7.9707C7.23238 8.7773 6.91798 9.4245 6.28908 9.9121C5.66018 10.3952 4.81938 10.6367 3.76658 10.6367C3.08298 10.6367 2.44498 10.5068 1.85258 10.2471C1.26008 9.9827 0.80208 9.6227 0.47848 9.167C0.15951 8.7113 0 8.194 0 7.6152H1.31938C1.31938 8.2168 1.54038 8.693 1.98238 9.0439C2.42908 9.3903 3.02378 9.5635 3.76658 9.5635C4.45928 9.5635 4.99028 9.4222 5.35938 9.1396C5.72848 8.8571 5.91308 8.472 5.91308 7.9844C5.91308 7.49674 5.74218 7.12077 5.40038 6.85645C5.05858 6.58757 4.43878 6.32324 3.54098 6.06348ZM13.2891 10.5C13.2162 10.3542 13.1569 10.0944 13.1114 9.7207C12.5235 10.3314 11.8216 10.6367 11.0059 10.6367C10.2767 10.6367 9.67738 10.4316 9.20798 10.0215C8.74318 9.6068 8.51078 9.0827 8.51078 8.4492C8.51078 7.679 8.80238 7.08203 9.38578 6.6582C9.97368 6.22982 10.7985 6.01562 11.8604 6.01562H13.0908V5.43457C13.0908 4.99251 12.9587 4.6416 12.6944 4.38184C12.43 4.11751 12.0404 3.98535 11.5254 3.98535C11.0742 3.98535 10.696 4.09928 10.3906 4.32715C10.0853 4.55501 9.93258 4.83073 9.93258 5.1543H8.66118C8.66118 4.78516 8.79098 4.42969 9.05078 4.08789C9.31508 3.74154 9.67058 3.4681 10.1172 3.26758C10.5684 3.06706 11.0628 2.9668 11.6006 2.9668C12.4528 2.9668 13.1205 3.18099 13.6035 3.60938C14.0866 4.0332 14.3373 4.61882 14.3555 5.36621V8.7705C14.3555 9.4495 14.4421 9.9896 14.6153 10.3906V10.5H13.2891ZM11.1905 9.5361C11.5869 9.5361 11.9629 9.4336 12.3184 9.2285C12.6739 9.0234 12.9313 8.7568 13.0908 8.4287V6.91113H12.0996C10.5502 6.91113 9.77538 7.36458 9.77538 8.2715C9.77538 8.668 9.90758 8.9779 10.1719 9.2012C10.4362 9.4245 10.7757 9.5361 11.1905 9.5361ZM19.9131 4.23828C19.7217 4.20638 19.5143 4.19043 19.291 4.19043C18.4616 4.19043 17.8988 4.54362 17.6026 5.25V10.5H16.3379V3.10352H17.5684L17.5889 3.95801C18.0036 3.2972 18.5915 2.9668 19.3526 2.9668C19.5987 2.9668 19.7855 2.9987 19.9131 3.0625V4.23828ZM25.375 10.5C25.3021 10.3542 25.2429 10.0944 25.1973 9.7207C24.6094 10.3314 23.9076 10.6367 23.0918 10.6367C22.3627 10.6367 21.7634 10.4316 21.294 10.0215C20.8291 9.6068 20.5967 9.0827 20.5967 8.4492C20.5967 7.679 20.8884 7.08203 21.4717 6.6582C22.0596 6.22982 22.8845 6.01562 23.9463 6.01562H25.1768V5.43457C25.1768 4.99251 25.0446 4.6416 24.7803 4.38184C24.516 4.11751 24.1263 3.98535 23.6114 3.98535C23.1602 3.98535 22.7819 4.09928 22.4766 4.32715C22.1712 4.55501 22.0186 4.83073 22.0186 5.1543H20.7471C20.7471 4.78516 20.877 4.42969 21.1367 4.08789C21.4011 3.74154 21.7565 3.4681 22.2031 3.26758C22.6543 3.06706 23.1488 2.9668 23.6865 2.9668C24.5388 2.9668 25.2064 3.18099 25.6895 3.60938C26.1726 4.0332 26.4232 4.61882 26.4414 5.36621V8.7705C26.4414 9.4495 26.528 9.9896 26.7012 10.3906V10.5H25.375ZM23.2764 9.5361C23.6729 9.5361 24.0489 9.4336 24.4043 9.2285C24.7598 9.0234 25.0173 8.7568 25.1768 8.4287V6.91113H24.1856C22.6361 6.91113 21.8614 7.36458 21.8614 8.2715C21.8614 8.668 21.9935 8.9779 22.2578 9.2012C22.5222 9.4245 22.8617 9.5361 23.2764 9.5361ZM29.6885 3.99902C30.249 3.31087 30.9782 2.9668 31.876 2.9668C33.4392 2.9668 34.2276 3.84863 34.2412 5.6123V10.5H32.9766V5.60547C32.972 5.07227 32.849 4.67806 32.6074 4.42285C32.3705 4.16764 31.999 4.04004 31.4932 4.04004C31.083 4.04004 30.723 4.14941 30.4131 4.36816C30.1032 4.58691 29.8617 4.87402 29.6885 5.22949V10.5H28.4239V0H29.6885V3.99902Z" transform="translate(1028.01 185.4) scale(2)" fill="black"/>
<path d="M0.5 0.5V0H0V0.5H0.5ZM53.5 0.5H54V0H53.5V0.5ZM53.5 27V27.5H54V27H53.5ZM0.5 27H0V27.5H0.5V27ZM0.5 1H53.5V0H0.5V1ZM53 0.5V27H54V0.5H53ZM53.5 26.5H0.5V27.5H53.5V26.5ZM1 27V0.5H0V27H1Z" transform="translate(551 63) scale(2)" fill="black"/>
<path d="M5.4892 6.10449H1.3125V10.5H0V0.54688H6.166V1.62695H1.3125V5.03125H5.4892V6.10449ZM11.874 10.5C11.8011 10.3542 11.7418 10.0944 11.6963 9.7207C11.1084 10.3314 10.4066 10.6367 9.5908 10.6367C8.8616 10.6367 8.2623 10.4316 7.7929 10.0215C7.3281 9.6068 7.0957 9.0827 7.0957 8.4492C7.0957 7.679 7.3873 7.08203 7.9707 6.6582C8.5586 6.22982 9.3834 6.01562 10.4453 6.01562H11.6758V5.43457C11.6758 4.99251 11.5436 4.6416 11.2793 4.38184C11.015 4.11751 10.6253 3.98535 10.1103 3.98535C9.6592 3.98535 9.2809 4.09928 8.9756 4.32715C8.6702 4.55501 8.5176 4.83073 8.5176 5.1543H7.2461C7.2461 4.78516 7.376 4.42969 7.6357 4.08789C7.9 3.74154 8.2555 3.4681 8.7021 3.26758C9.1533 3.06706 9.6478 2.9668 10.1855 2.9668C11.0377 2.9668 11.7054 3.18099 12.1885 3.60938C12.6715 4.0332 12.9222 4.61882 12.9404 5.36621V8.7705C12.9404 9.4495 13.027 9.9896 13.2002 10.3906V10.5H11.874ZM9.7754 9.5361C10.1719 9.5361 10.5478 9.4336 10.9033 9.2285C11.2588 9.0234 11.5163 8.7568 11.6758 8.4287V6.91113H10.6845C9.1351 6.91113 8.3603 7.36458 8.3603 8.2715C8.3603 8.668 8.4925 8.9779 8.7568 9.2012C9.0211 9.4245 9.3607 9.5361 9.7754 9.5361ZM16.2969 10.5H15.0322V0H16.2969V10.5ZM22.6338 8.5381C22.6338 8.1963 22.5039 7.932 22.2441 7.7451C21.9889 7.5537 21.54 7.38965 20.8974 7.25293C20.2594 7.11621 19.7513 6.95215 19.373 6.76074C18.9993 6.56934 18.7213 6.34147 18.539 6.07715C18.3613 5.81283 18.2724 5.49837 18.2724 5.13379C18.2724 4.52767 18.5276 4.01497 19.0381 3.5957C19.553 3.17643 20.2093 2.9668 21.0068 2.9668C21.8454 2.9668 22.5244 3.18327 23.0439 3.61621C23.568 4.04915 23.8301 4.60286 23.8301 5.27734H22.5586C22.5586 4.93099 22.4105 4.63249 22.1142 4.38184C21.8226 4.13118 21.4534 4.00586 21.0068 4.00586C20.5465 4.00586 20.1865 4.10612 19.9267 4.30664C19.667 4.50716 19.5371 4.76921 19.5371 5.09277C19.5371 5.39811 19.6579 5.62826 19.8994 5.7832C20.1409 5.93815 20.5762 6.08626 21.2051 6.22754C21.8385 6.36882 22.3512 6.53743 22.7431 6.7334C23.1351 6.92936 23.4245 7.16634 23.6113 7.44434C23.8027 7.7178 23.8984 8.0527 23.8984 8.4492C23.8984 9.11 23.6341 9.641 23.1054 10.042C22.5768 10.4385 21.8909 10.6367 21.0478 10.6367C20.4554 10.6367 19.9313 10.5319 19.4756 10.3223C19.0198 10.1126 18.6621 9.821 18.4023 9.4473C18.1471 9.069 18.0195 8.6611 18.0195 8.2236H19.2842C19.3069 8.6475 19.4756 8.9847 19.79 9.2354C20.109 9.4814 20.5283 9.6045 21.0478 9.6045C21.5263 9.6045 21.9092 9.5088 22.1963 9.3174C22.4879 9.1214 22.6338 8.8617 22.6338 8.5381ZM28.6152 10.6367C27.6126 10.6367 26.7969 10.3086 26.1679 9.6523C25.539 8.9915 25.2246 8.1097 25.2246 7.00684V6.77441C25.2246 6.04069 25.3636 5.38672 25.6416 4.8125C25.9241 4.23372 26.3161 3.78255 26.8174 3.45898C27.3232 3.13086 27.8701 2.9668 28.458 2.9668C29.4196 2.9668 30.167 3.28353 30.7002 3.91699C31.2334 4.55046 31.5 5.45736 31.5 6.6377V7.16406H26.4892C26.5075 7.8932 26.7194 8.4834 27.125 8.9346C27.5351 9.3812 28.0547 9.6045 28.6836 9.6045C29.1302 9.6045 29.5084 9.5133 29.8183 9.3311C30.1282 9.1488 30.3994 8.9072 30.6318 8.6064L31.4043 9.208C30.7845 10.1605 29.8548 10.6367 28.6152 10.6367ZM28.458 4.00586C27.9476 4.00586 27.5192 4.19271 27.1728 4.56641C26.8265 4.93555 26.6123 5.45508 26.5303 6.125H30.2353V6.0293C30.1989 5.38672 30.0257 4.88997 29.7158 4.53906C29.4059 4.18359 28.9866 4.00586 28.458 4.00586Z" transform="translate(574.746 79.6) scale(2)" fill="#EB5757"/>
<path d="M0.5 0.5V0H0V0.5H0.5ZM53.5 0.5H54V0H53.5V0.5ZM53.5 27V27.5H54V27H53.5ZM0.5 27H0V27.5H0.5V27ZM0.5 1H53.5V0H0.5V1ZM53 0.5V27H54V0.5H53ZM53.5 26.5H0.5V27.5H53.5V26.5ZM1 27V0.5H0V27H1Z" transform="translate(551 116) scale(2)" fill="black"/>
<path d="M7.6972 1.08007H4.498V9.95312H3.1924V1.08007H0V0H7.6972V1.08007ZM12.0312 3.6914C11.8398 3.6595 11.6325 3.64355 11.4091 3.64355C10.5797 3.64355 10.0169 3.99674 9.7207 4.70312V9.95312H8.456V2.55664H9.6865L9.707 3.41113C10.1217 2.75032 10.7096 2.41992 11.4707 2.41992C11.7168 2.41992 11.9036 2.45182 12.0312 2.51562V3.6914ZM17.7666 9.22172C17.2744 9.80042 16.5521 10.0898 15.5996 10.0898C14.8112 10.0898 14.2096 9.86202 13.7949 9.40622C13.3847 8.94592 13.1774 8.26692 13.1728 7.36912V2.55664H14.4375V7.33492C14.4375 8.45602 14.8932 9.01662 15.8047 9.01662C16.7708 9.01662 17.4134 8.65662 17.7324 7.93652V2.55664H18.997V9.95312H17.7939L17.7666 9.22172ZM23.9941 10.0898C22.9915 10.0898 22.1757 9.76172 21.5468 9.10542C20.9179 8.44462 20.6035 7.56282 20.6035 6.45996V6.22753C20.6035 5.49381 20.7425 4.83984 21.0205 4.26562C21.303 3.68684 21.695 3.23567 22.1963 2.9121C22.7021 2.58398 23.249 2.41992 23.8369 2.41992C24.7985 2.41992 25.5459 2.73665 26.0791 3.37011C26.6123 4.00358 26.8789 4.91048 26.8789 6.09082V6.61718H21.8681C21.8864 7.34632 22.0983 7.93652 22.5039 8.38772C22.914 8.83432 23.4336 9.05762 24.0625 9.05762C24.5091 9.05762 24.8873 8.96642 25.1972 8.78422C25.5071 8.60192 25.7783 8.36032 26.0107 8.05952L26.7832 8.66112C26.1634 9.61362 25.2337 10.0898 23.9941 10.0898ZM23.8369 3.45898C23.3265 3.45898 22.8981 3.64583 22.5517 4.01953C22.2054 4.38867 21.9912 4.9082 21.9091 5.57812H25.6142V5.48242C25.5778 4.83984 25.4046 4.34309 25.0947 3.99218C24.7848 3.63671 24.3655 3.45898 23.8369 3.45898Z" transform="translate(578.547 133.694) scale(2)" fill="#27AE60"/>
<path d="M0.5 0.5V0H0V0.5H0.5ZM53.5 0.5H54V0H53.5V0.5ZM53.5 27V27.5H54V27H53.5ZM0.5 27H0V27.5H0.5V27ZM0.5 1H53.5V0H0.5V1ZM53 0.5V27H54V0.5H53ZM53.5 26.5H0.5V27.5H53.5V26.5ZM1 27V0.5H0V27H1Z" transform="translate(551 169) scale(2)" fill="black"/>
<path d="M5.4892 6.10449H1.3125V10.5H0V0.54688H6.166V1.62695H1.3125V5.03125H5.4892V6.10449ZM11.874 10.5C11.8011 10.3542 11.7418 10.0944 11.6963 9.7207C11.1084 10.3314 10.4066 10.6367 9.5908 10.6367C8.8616 10.6367 8.2623 10.4316 7.7929 10.0215C7.3281 9.6068 7.0957 9.0827 7.0957 8.4492C7.0957 7.679 7.3873 7.08203 7.9707 6.6582C8.5586 6.22982 9.3834 6.01562 10.4453 6.01562H11.6758V5.43457C11.6758 4.99251 11.5436 4.6416 11.2793 4.38184C11.015 4.11751 10.6253 3.98535 10.1103 3.98535C9.6592 3.98535 9.2809 4.09928 8.9756 4.32715C8.6702 4.55501 8.5176 4.83073 8.5176 5.1543H7.2461C7.2461 4.78516 7.376 4.42969 7.6357 4.08789C7.9 3.74154 8.2555 3.4681 8.7021 3.26758C9.1533 3.06706 9.6478 2.9668 10.1855 2.9668C11.0377 2.9668 11.7054 3.18099 12.1885 3.60938C12.6715 4.0332 12.9222 4.61882 12.9404 5.36621V8.7705C12.9404 9.4495 13.027 9.9896 13.2002 10.3906V10.5H11.874ZM9.7754 9.5361C10.1719 9.5361 10.5478 9.4336 10.9033 9.2285C11.2588 9.0234 11.5163 8.7568 11.6758 8.4287V6.91113H10.6845C9.1351 6.91113 8.3603 7.36458 8.3603 8.2715C8.3603 8.668 8.4925 8.9779 8.7568 9.2012C9.0211 9.4245 9.3607 9.5361 9.7754 9.5361ZM16.2969 10.5H15.0322V0H16.2969V10.5ZM22.6338 8.5381C22.6338 8.1963 22.5039 7.932 22.2441 7.7451C21.9889 7.5537 21.54 7.38965 20.8974 7.25293C20.2594 7.11621 19.7513 6.95215 19.373 6.76074C18.9993 6.56934 18.7213 6.34147 18.539 6.07715C18.3613 5.81283 18.2724 5.49837 18.2724 5.13379C18.2724 4.52767 18.5276 4.01497 19.0381 3.5957C19.553 3.17643 20.2093 2.9668 21.0068 2.9668C21.8454 2.9668 22.5244 3.18327 23.0439 3.61621C23.568 4.04915 23.8301 4.60286 23.8301 5.27734H22.5586C22.5586 4.93099 22.4105 4.63249 22.1142 4.38184C21.8226 4.13118 21.4534 4.00586 21.0068 4.00586C20.5465 4.00586 20.1865 4.10612 19.9267 4.30664C19.667 4.50716 19.5371 4.76921 19.5371 5.09277C19.5371 5.39811 19.6579 5.62826 19.8994 5.7832C20.1409 5.93815 20.5762 6.08626 21.2051 6.22754C21.8385 6.36882 22.3512 6.53743 22.7431 6.7334C23.1351 6.92936 23.4245 7.16634 23.6113 7.44434C23.8027 7.7178 23.8984 8.0527 23.8984 8.4492C23.8984 9.11 23.6341 9.641 23.1054 10.042C22.5768 10.4385 21.8909 10.6367 21.0478 10.6367C20.4554 10.6367 19.9313 10.5319 19.4756 10.3223C19.0198 10.1126 18.6621 9.821 18.4023 9.4473C18.1471 9.069 18.0195 8.6611 18.0195 8.2236H19.2842C19.3069 8.6475 19.4756 8.9847 19.79 9.2354C20.109 9.4814 20.5283 9.6045 21.0478 9.6045C21.5263 9.6045 21.9092 9.5088 22.1963 9.3174C22.4879 9.1214 22.6338 8.8617 22.6338 8.5381ZM28.6152 10.6367C27.6126 10.6367 26.7969 10.3086 26.1679 9.6523C25.539 8.9915 25.2246 8.1097 25.2246 7.00684V6.77441C25.2246 6.04069 25.3636 5.38672 25.6416 4.8125C25.9241 4.23372 26.3161 3.78255 26.8174 3.45898C27.3232 3.13086 27.8701 2.9668 28.458 2.9668C29.4196 2.9668 30.167 3.28353 30.7002 3.91699C31.2334 4.55046 31.5 5.45736 31.5 6.6377V7.16406H26.4892C26.5075 7.8932 26.7194 8.4834 27.125 8.9346C27.5351 9.3812 28.0547 9.6045 28.6836 9.6045C29.1302 9.6045 29.5084 9.5133 29.8183 9.3311C30.1282 9.1488 30.3994 8.9072 30.6318 8.6064L31.4043 9.208C30.7845 10.1605 29.8548 10.6367 28.6152 10.6367ZM28.458 4.00586C27.9476 4.00586 27.5192 4.19271 27.1728 4.56641C26.8265 4.93555 26.6123 5.45508 26.5303 6.125H30.2353V6.0293C30.1989 5.38672 30.0257 4.88997 29.7158 4.53906C29.4059 4.18359 28.9866 4.00586 28.458 4.00586Z" transform="translate(574.746 185.6) scale(2)" fill="#EB5757"/>
<path d="M0.5 0.5V0H0V0.5H0.5ZM53.5 0.5H54V0H53.5V0.5ZM53.5 27V27.5H54V27H53.5ZM0.5 27H0V27.5H0.5V27ZM0.5 1H53.5V0H0.5V1ZM53 0.5V27H54V0.5H53ZM53.5 26.5H0.5V27.5H53.5V26.5ZM1 27V0.5H0V27H1Z" transform="translate(551 222) scale(2)" fill="black"/>
<path d="M7.6972 1.08007H4.498V9.95312H3.1924V1.08007H0V0H7.6972V1.08007ZM12.0312 3.6914C11.8398 3.6595 11.6325 3.64355 11.4091 3.64355C10.5797 3.64355 10.0169 3.99674 9.7207 4.70312V9.95312H8.456V2.55664H9.6865L9.707 3.41113C10.1217 2.75032 10.7096 2.41992 11.4707 2.41992C11.7168 2.41992 11.9036 2.45182 12.0312 2.51562V3.6914ZM17.7666 9.22172C17.2744 9.80042 16.5521 10.0898 15.5996 10.0898C14.8112 10.0898 14.2096 9.86202 13.7949 9.40622C13.3847 8.94592 13.1774 8.26692 13.1728 7.36912V2.55664H14.4375V7.33492C14.4375 8.45602 14.8932 9.01662 15.8047 9.01662C16.7708 9.01662 17.4134 8.65662 17.7324 7.93652V2.55664H18.997V9.95312H17.7939L17.7666 9.22172ZM23.9941 10.0898C22.9915 10.0898 22.1757 9.76172 21.5468 9.10542C20.9179 8.44462 20.6035 7.56282 20.6035 6.45996V6.22753C20.6035 5.49381 20.7425 4.83984 21.0205 4.26562C21.303 3.68684 21.695 3.23567 22.1963 2.9121C22.7021 2.58398 23.249 2.41992 23.8369 2.41992C24.7985 2.41992 25.5459 2.73665 26.0791 3.37011C26.6123 4.00358 26.8789 4.91048 26.8789 6.09082V6.61718H21.8681C21.8864 7.34632 22.0983 7.93652 22.5039 8.38772C22.914 8.83432 23.4336 9.05762 24.0625 9.05762C24.5091 9.05762 24.8873 8.96642 25.1972 8.78422C25.5071 8.60192 25.7783 8.36032 26.0107 8.05952L26.7832 8.66112C26.1634 9.61362 25.2337 10.0898 23.9941 10.0898ZM23.8369 3.45898C23.3265 3.45898 22.8981 3.64583 22.5517 4.01953C22.2054 4.38867 21.9912 4.9082 21.9091 5.57812H25.6142V5.48242C25.5778 4.83984 25.4046 4.34309 25.0947 3.99218C24.7848 3.63671 24.3655 3.45898 23.8369 3.45898Z" transform="translate(578.547 239.694) scale(2)" fill="#27AE60"/>
</svg>

