<svg width="1120" height="304" viewBox="0 0 1120 304" version="1.1" xmlns="http://www.w3.org/2000/svg" xmlns:xlink="http://www.w3.org/1999/xlink">
<title>Frame</title>
<desc>Created using Figma</desc>
<g id="Canvas" transform="matrix(2 0 0 2 264 926)">
<clipPath id="clip-0" clip-rule="evenodd">
<path d="M -132 -463L 428 -463L 428 -311L -132 -311L -132 -463Z" fill="#FFFFFF"/>
</clipPath>
<g id="Frame" clip-path="url(#clip-0)">
<path d="M -132 -463L 428 -463L 428 -311L -132 -311L -132 -463Z" fill="#FFFFFF"/>
<g id="Vector 2">
<use xlink:href="#path0_fill" transform="translate(154 -379)" fill="#27AE60" fill-opacity="0.4"/>
</g>
<g id="Vector">
<use xlink:href="#path1_fill" transform="translate(153 -405)" fill="#27AE60" fill-opacity="0.4"/>
</g>
<g id="result">
<use xlink:href="#path2_fill" transform="translate(347 -352)" fill="#4F4F4F"/>
</g>
<g id="Arrow">
<use xlink:href="#path3_stroke" transform="translate(158 -392)" fill="#FFFFFF"/>
</g>
<g id="Arrow">
<use xlink:href="#path4_stroke" transform="translate(161.5 -338)" fill="#FFFFFF"/>
</g>
<g id="Arrow">
<use xlink:href="#path3_stroke" transform="translate(293 -393)" fill="#FFFFFF"/>
</g>
<g id="Arrow">
<use xlink:href="#path4_stroke" transform="matrix(0.70838 -0.705832 0.705832 0.70838 298 -342.707)" fill="#FFFFFF"/>
</g>
<g id="Group">
<g id="Rectangle">
<use xlink:href="#path5_stroke" transform="translate(254 -431)"/>
</g>
<g id="12">
<use xlink:href="#path6_fill" transform="translate(254.841 -425.7)"/>
</g>
<g id="Rectangle">
<use xlink:href="#path5_stroke" transform="translate(254 -405)"/>
</g>
<g id="8">
<use xlink:href="#path7_fill" transform="translate(254.841 -399.2)"/>
</g>
<g id="Rectangle">
<use xlink:href="#path5_stroke" transform="translate(254 -379)"/>
</g>
<g id="5">
<use xlink:href="#path8_fill" transform="translate(254.841 -373.7)"/>
</g>
<g id="Rectangle">
<use xlink:href="#path5_stroke" transform="translate(254 -353)"/>
</g>
<g id="8">
<use xlink:href="#path7_fill" transform="translate(254.841 -347.2)"/>
</g>
<g id="num">
<use xlink:href="#path9_fill" transform="translate(254 -449)" fill="#828282"/>
</g>
<g id="x">
<use xlink:href="#path10_fill" transform="translate(180 -401)" fill="#828282"/>
</g>
<g id="y">
<use xlink:href="#path11_fill" transform="translate(180 -374)" fill="#828282"/>
</g>
<g id="z">
<use xlink:href="#path12_fill" transform="translate(180 -348)" fill="#828282"/>
</g>
<g id="w">
<use xlink:href="#path13_fill" transform="translate(180 -426)" fill="#828282"/>
</g>
<g id="Rectangle">
<use xlink:href="#path14_stroke" transform="translate(198 -431)"/>
</g>
<g id="Kylie">
<use xlink:href="#path15_fill" transform="translate(199.273 -425.7)"/>
</g>
<g id="Rectangle">
<use xlink:href="#path14_stroke" transform="translate(198 -405)"/>
</g>
<g id="Rahul">
<use xlink:href="#path16_fill" transform="translate(199.273 -399.2)"/>
</g>
<g id="Rectangle">
<use xlink:href="#path14_stroke" transform="translate(198 -379)"/>
</g>
<g id="Michael">
<use xlink:href="#path17_fill" transform="translate(199.273 -373.7)"/>
</g>
<g id="Rectangle">
<use xlink:href="#path14_stroke" transform="translate(198 -353)"/>
</g>
<g id="Sarah">
<use xlink:href="#path18_fill" transform="translate(199.273 -347.2)"/>
</g>
<g id="name">
<use xlink:href="#path19_fill" transform="translate(197 -449)" fill="#828282"/>
</g>
</g>
<g id="Group">
<g id="Rectangle">
<use xlink:href="#path5_stroke" transform="translate(383 -405)"/>
</g>
<g id="8">
<use xlink:href="#path20_fill" transform="translate(383.841 -400.2)"/>
</g>
<g id="Rectangle">
<use xlink:href="#path5_stroke" transform="translate(383 -379)"/>
</g>
<g id="8">
<use xlink:href="#path20_fill" transform="translate(383.841 -373.8)"/>
</g>
<g id="num">
<use xlink:href="#path21_fill" transform="translate(383 -423)" fill="#828282"/>
</g>
<g id="z">
<use xlink:href="#path12_fill" transform="translate(309 -374.585)" fill="#828282"/>
</g>
<g id="x">
<use xlink:href="#path10_fill" transform="translate(309 -400)" fill="#828282"/>
</g>
<g id="Rectangle">
<use xlink:href="#path14_stroke" transform="matrix(-1 0 0 1 383 -405)"/>
</g>
<g id="Rahul">
<use xlink:href="#path16_fill" transform="translate(326 -400)"/>
</g>
<g id="Rectangle">
<use xlink:href="#path14_stroke" transform="translate(327 -379)"/>
</g>
<g id="Sarah">
<use xlink:href="#path18_fill" transform="translate(328.273 -373.8)"/>
</g>
<g id="name">
<use xlink:href="#path19_fill" transform="translate(326 -423)" fill="#828282"/>
</g>
</g>
<g id="Group">
<g id="Rectangle">
<use xlink:href="#path22_stroke" transform="translate(100 -432)"/>
</g>
<g id="False">
<use xlink:href="#path23_fill" transform="translate(101.205 -426.7)" fill="#EB5757"/>
</g>
<g id="Rectangle">
<use xlink:href="#path22_stroke" transform="translate(100 -405.5)"/>
</g>
<g id="True">
<use xlink:href="#path24_fill" transform="translate(101.205 -400.2)" fill="#27AE60"/>
</g>
<g id="Rectangle">
<use xlink:href="#path22_stroke" transform="translate(100 -379)"/>
</g>
<g id="False">
<use xlink:href="#path23_fill" transform="translate(101.205 -373.7)" fill="#EB5757"/>
</g>
<g id="Rectangle">
<use xlink:href="#path22_stroke" transform="translate(100 -352.5)"/>
</g>
<g id="True">
<use xlink:href="#path24_fill" transform="translate(101.205 -347.2)" fill="#27AE60"/>
</g>
</g>
<g id="Group">
<g id="Rectangle">
<use xlink:href="#path25_fill" transform="translate(-125 -409)" fill="#F1F4F8"/>
</g>
<g id="result = df[num_bool]">
<use xlink:href="#path26_fill" transform="translate(-122.152 -407.727)" fill="#2E383C"/>
</g>
</g>
</g>
</g>
<defs>
<path id="path0_fill" d="M 137.5 25.5L 0 26L 0 52L 137.5 52L 173 26L 173 0L 137.5 25.5Z"/>
<path id="path1_fill" d="M 174 26L 174 0L 0 0L 0 26L 174 26Z"/>
<path id="path2_fill" d="M 5.44041 7.056L 7.12041 7.056L 7.28841 8.568L 7.33041 8.568C 7.67574 7.99867 8.09107 7.57867 8.57641 7.308C 9.06174 7.028 9.58441 6.888 10.1444 6.888C 10.4524 6.888 10.6997 6.91133 10.8864 6.958C 11.0824 7.00467 11.2831 7.07467 11.4884 7.168L 11.0684 8.89C 10.8537 8.82467 10.6577 8.778 10.4804 8.75C 10.3124 8.71267 10.0977 8.694 9.83641 8.694C 9.40707 8.694 8.98241 8.82 8.56241 9.072C 8.15174 9.324 7.79707 9.76267 7.49841 10.388L 7.49841 14L 5.44041 14L 5.44041 7.056ZM 12.9809 10.528C 12.9809 9.95867 13.0789 9.45 13.2749 9.002C 13.4803 8.554 13.7509 8.176 14.0869 7.868C 14.4229 7.55067 14.8056 7.308 15.2349 7.14C 15.6736 6.972 16.1263 6.888 16.5929 6.888C 17.1249 6.888 17.5963 6.972 18.0069 7.14C 18.4176 7.308 18.7583 7.54133 19.0289 7.84C 19.2996 8.13867 19.5049 8.49333 19.6449 8.904C 19.7849 9.30533 19.8549 9.744 19.8549 10.22C 19.8549 10.4067 19.8456 10.584 19.8269 10.752C 19.8083 10.92 19.7896 11.046 19.7709 11.13L 15.0949 11.13C 15.1696 11.6527 15.3936 12.0307 15.7669 12.264C 16.1496 12.488 16.5976 12.6 17.1109 12.6C 17.4283 12.6 17.7269 12.5627 18.0069 12.488C 18.2963 12.404 18.5949 12.2827 18.9029 12.124L 19.5749 13.356C 19.1829 13.608 18.7443 13.8087 18.2589 13.958C 17.7736 14.098 17.2976 14.168 16.8309 14.168C 16.2896 14.168 15.7856 14.0887 15.3189 13.93C 14.8523 13.762 14.4463 13.524 14.1009 13.216C 13.7556 12.8987 13.4803 12.516 13.2749 12.068C 13.0789 11.62 12.9809 11.1067 12.9809 10.528ZM 17.9929 9.772C 17.9929 9.38 17.8856 9.06267 17.6709 8.82C 17.4563 8.57733 17.1109 8.456 16.6349 8.456C 16.2616 8.456 15.9303 8.56333 15.6409 8.778C 15.3516 8.99267 15.1603 9.324 15.0669 9.772L 17.9929 9.772ZM 22.2715 11.816C 22.6728 12.068 23.0741 12.2687 23.4755 12.418C 23.8861 12.5673 24.3248 12.642 24.7915 12.642C 25.2675 12.642 25.6081 12.5907 25.8135 12.488C 26.0188 12.3853 26.1215 12.2407 26.1215 12.054C 26.1215 11.8393 25.9488 11.6667 25.6035 11.536C 25.2675 11.396 24.8195 11.2467 24.2595 11.088C 23.9515 11.004 23.6481 10.906 23.3495 10.794C 23.0601 10.6727 22.7988 10.5327 22.5655 10.374C 22.3321 10.206 22.1408 10.0147 21.9915 9.8C 21.8515 9.58533 21.7815 9.338 21.7815 9.058C 21.7815 8.74067 21.8561 8.44667 22.0055 8.176C 22.1548 7.90533 22.3648 7.67667 22.6355 7.49C 22.9155 7.30333 23.2515 7.15867 23.6435 7.056C 24.0448 6.944 24.4928 6.888 24.9875 6.888C 25.6035 6.888 26.1635 6.99067 26.6675 7.196C 27.1808 7.392 27.6195 7.60667 27.9835 7.84L 27.0595 9.072C 26.7421 8.88533 26.4155 8.73133 26.0795 8.61C 25.7435 8.47933 25.3935 8.414 25.0295 8.414C 24.5908 8.414 24.2781 8.46067 24.0915 8.554C 23.9141 8.64733 23.8255 8.78267 23.8255 8.96C 23.8255 9.06267 23.8721 9.156 23.9655 9.24C 24.0588 9.324 24.1848 9.39867 24.3435 9.464C 24.5021 9.52933 24.6888 9.59467 24.9035 9.66C 25.1275 9.716 25.3608 9.77667 25.6035 9.842C 25.9488 9.93533 26.2755 10.0427 26.5835 10.164C 26.8915 10.276 27.1621 10.4113 27.3955 10.57C 27.6288 10.7287 27.8155 10.92 27.9555 11.144C 28.0955 11.368 28.1655 11.6293 28.1655 11.928C 28.1655 12.2453 28.0908 12.5393 27.9415 12.81C 27.7921 13.0807 27.5728 13.3187 27.2835 13.524C 27.0035 13.72 26.6488 13.8787 26.2195 14C 25.7995 14.112 25.3095 14.168 24.7495 14.168C 24.1241 14.168 23.5128 14.0653 22.9155 13.86C 22.3181 13.6547 21.7955 13.4027 21.3475 13.104L 22.2715 11.816ZM 36.35 14L 34.67 14L 34.516 13.006L 34.46 13.006C 34.152 13.3607 33.8113 13.6453 33.438 13.86C 33.0647 14.0653 32.626 14.168 32.122 14.168C 31.3287 14.168 30.7547 13.916 30.4 13.412C 30.0453 12.908 29.868 12.2173 29.868 11.34L 29.868 7.056L 31.926 7.056L 31.926 11.074C 31.926 11.5407 31.996 11.8813 32.136 12.096C 32.276 12.3107 32.542 12.418 32.934 12.418C 33.1953 12.418 33.424 12.362 33.62 12.25C 33.8253 12.138 34.0493 11.928 34.292 11.62L 34.292 7.056L 36.35 7.056L 36.35 14ZM 38.2625 4.186L 42.3365 4.186L 42.3365 11.368C 42.3365 11.5827 42.3645 11.7647 42.4205 11.914C 42.4859 12.054 42.5699 12.1707 42.6725 12.264C 42.7845 12.348 42.9059 12.4087 43.0365 12.446C 43.1765 12.4833 43.3165 12.502 43.4565 12.502C 43.6152 12.502 43.7832 12.488 43.9605 12.46C 44.1379 12.4227 44.3339 12.362 44.5485 12.278L 45.0105 13.79C 44.8239 13.846 44.6512 13.8973 44.4925 13.944C 44.3339 13.9907 44.1752 14.028 44.0165 14.056C 43.8579 14.0933 43.6899 14.1213 43.5125 14.14C 43.3352 14.1587 43.1392 14.168 42.9245 14.168C 42.0472 14.168 41.3845 13.9113 40.9365 13.398C 40.4979 12.8753 40.2785 12.1707 40.2785 11.284L 40.2785 5.81L 38.2625 5.81L 38.2625 4.186ZM 48.2251 8.666L 46.4751 8.666L 46.4751 7.14L 48.3231 7.056L 48.5891 5.208L 50.2831 5.208L 50.2831 7.056L 53.2231 7.056L 53.2231 8.666L 50.2831 8.666L 50.2831 11.102C 50.2831 11.634 50.3997 12.012 50.6331 12.236C 50.8664 12.4507 51.2351 12.558 51.7391 12.558C 52.0097 12.558 52.2571 12.5347 52.4811 12.488C 52.7051 12.4413 52.9197 12.3807 53.1251 12.306L 53.4891 13.79C 53.1811 13.8833 52.8357 13.9673 52.4531 14.042C 52.0797 14.126 51.6691 14.168 51.2211 14.168C 50.6704 14.168 50.2037 14.0933 49.8211 13.944C 49.4384 13.7947 49.1257 13.5893 48.8831 13.328C 48.6497 13.0573 48.4817 12.7353 48.3791 12.362C 48.2764 11.9887 48.2251 11.5733 48.2251 11.116L 48.2251 8.666Z"/>
<path id="path3_stroke" d="M 16.7071 0.707107C 17.0976 0.316582 17.0976 -0.316582 16.7071 -0.707107L 10.3431 -7.07107C 9.95262 -7.46159 9.31946 -7.46159 8.92893 -7.07107C 8.53841 -6.68054 8.53841 -6.04738 8.92893 -5.65685L 14.5858 0L 8.92893 5.65685C 8.53841 6.04738 8.53841 6.68054 8.92893 7.07107C 9.31946 7.46159 9.95262 7.46159 10.3431 7.07107L 16.7071 0.707107ZM 0 1L 16 1L 16 -1L 0 -1L 0 1Z"/>
<path id="path4_stroke" d="M 16.7071 0.707107C 17.0976 0.316583 17.0976 -0.316583 16.7071 -0.707107L 10.3431 -7.07107C 9.95262 -7.46159 9.31946 -7.46159 8.92893 -7.07107C 8.53841 -6.68054 8.53841 -6.04738 8.92893 -5.65685L 14.5858 0L 8.92893 5.65685C 8.53841 6.04738 8.53841 6.68054 8.92893 7.07107C 9.31946 7.46159 9.95262 7.46159 10.3431 7.07107L 16.7071 0.707107ZM 0 1L 16 1L 16 -1L 0 -1L 0 1Z"/>
<path id="path5_stroke" d="M 0 0L 0 -0.5L -0.5 -0.5L -0.5 0L 0 0ZM 37 0L 37.5 0L 37.5 -0.5L 37 -0.5L 37 0ZM 37 26L 37 26.5L 37.5 26.5L 37.5 26L 37 26ZM 0 26L -0.5 26L -0.5 26.5L 0 26.5L 0 26ZM 0 0.5L 37 0.5L 37 -0.5L 0 -0.5L 0 0.5ZM 36.5 0L 36.5 26L 37.5 26L 37.5 0L 36.5 0ZM 37 25.5L 0 25.5L 0 26.5L 37 26.5L 37 25.5ZM 0.5 26L 0.5 0L -0.5 0L -0.5 26L 0.5 26Z"/>
<path id="path6_fill" d="M 14.9914 13L 13.7199 13L 13.7199 4.57129L 11.1701 5.50781L 11.1701 4.35938L 14.7931 2.99902L 14.9914 2.99902L 14.9914 13ZM 25.218 13L 18.6965 13L 18.6965 12.0908L 22.1418 8.2627C 22.6522 7.68392 23.0031 7.21452 23.1945 6.85449C 23.3905 6.48991 23.4885 6.11393 23.4885 5.72656C 23.4885 5.20703 23.3312 4.78092 23.0168 4.44824C 22.7023 4.11556 22.2831 3.94922 21.759 3.94922C 21.1301 3.94922 20.6402 4.12923 20.2892 4.48926C 19.9429 4.84473 19.7697 5.34147 19.7697 5.97949L 18.5051 5.97949C 18.5051 5.06348 18.799 4.32292 19.3869 3.75781C 19.9793 3.19271 20.77 2.91016 21.759 2.91016C 22.6841 2.91016 23.4155 3.15397 23.9533 3.6416C 24.4911 4.12467 24.7599 4.76953 24.7599 5.57617C 24.7599 6.55599 24.1356 7.72266 22.8869 9.07617L 20.2209 11.9678L 25.218 11.9678L 25.218 13Z"/>
<path id="path7_fill" d="M 20.8019 5.64453C 20.8019 6.14128 20.6698 6.58333 20.4055 6.9707C 20.1457 7.35807 19.7925 7.66113 19.3459 7.87988C 19.8654 8.10319 20.2756 8.42904 20.5763 8.85742C 20.8817 9.28581 21.0344 9.77116 21.0344 10.3135C 21.0344 11.1748 20.7427 11.8607 20.1594 12.3711C 19.5806 12.8815 18.8172 13.1367 17.8693 13.1367C 16.9123 13.1367 16.1444 12.8815 15.5656 12.3711C 14.9914 11.8561 14.7043 11.1702 14.7043 10.3135C 14.7043 9.77572 14.8501 9.29036 15.1418 8.85742C 15.438 8.42448 15.8459 8.09635 16.3654 7.87305C 15.9234 7.6543 15.5747 7.35124 15.3195 6.96387C 15.0643 6.5765 14.9367 6.13672 14.9367 5.64453C 14.9367 4.80599 15.2056 4.14062 15.7433 3.64844C 16.2811 3.15625 16.9898 2.91016 17.8693 2.91016C 18.7443 2.91016 19.4507 3.15625 19.9885 3.64844C 20.5308 4.14062 20.8019 4.80599 20.8019 5.64453ZM 19.7697 10.2861C 19.7697 9.73014 19.592 9.27669 19.2365 8.92578C 18.8856 8.57487 18.4253 8.39941 17.8556 8.39941C 17.286 8.39941 16.828 8.57259 16.4816 8.91895C 16.1398 9.2653 15.9689 9.72103 15.9689 10.2861C 15.9689 10.8512 16.1353 11.2956 16.468 11.6191C 16.8052 11.9427 17.2723 12.1045 17.8693 12.1045C 18.4618 12.1045 18.9266 11.9427 19.2638 11.6191C 19.6011 11.291 19.7697 10.8467 19.7697 10.2861ZM 17.8693 3.94922C 17.3726 3.94922 16.9693 4.10417 16.6594 4.41406C 16.354 4.7194 16.2013 5.13639 16.2013 5.66504C 16.2013 6.1709 16.3517 6.58105 16.6525 6.89551C 16.9579 7.2054 17.3635 7.36035 17.8693 7.36035C 18.3752 7.36035 18.7785 7.2054 19.0793 6.89551C 19.3846 6.58105 19.5373 6.1709 19.5373 5.66504C 19.5373 5.15918 19.3801 4.74674 19.0656 4.42773C 18.7512 4.10872 18.3524 3.94922 17.8693 3.94922Z"/>
<path id="path8_fill" d="M 15.3469 8.00977L 15.8527 3.04688L 20.9523 3.04688L 20.9523 4.21582L 16.926 4.21582L 16.6252 6.92969C 17.1128 6.64258 17.6665 6.49902 18.2863 6.49902C 19.1932 6.49902 19.9133 6.7998 20.4465 7.40137C 20.9797 7.99837 21.2463 8.80729 21.2463 9.82812C 21.2463 10.8535 20.9683 11.6624 20.4123 12.2549C 19.8609 12.8428 19.0884 13.1367 18.0949 13.1367C 17.2153 13.1367 16.4976 12.8929 15.9416 12.4053C 15.3856 11.9176 15.0689 11.2432 14.9914 10.3818L 16.1877 10.3818C 16.2652 10.9515 16.468 11.3822 16.7961 11.6738C 17.1242 11.9609 17.5571 12.1045 18.0949 12.1045C 18.6828 12.1045 19.1431 11.904 19.4758 11.5029C 19.813 11.1019 19.9816 10.5482 19.9816 9.8418C 19.9816 9.17643 19.7993 8.64323 19.4347 8.24219C 19.0747 7.83659 18.5939 7.63379 17.9924 7.63379C 17.4409 7.63379 17.008 7.75456 16.6935 7.99609L 16.3586 8.26953L 15.3469 8.00977Z"/>
<path id="path9_fill" d="M 6.46548 5.60352L 6.50649 6.5332C 7.0716 5.82227 7.80988 5.4668 8.72134 5.4668C 10.2845 5.4668 11.0729 6.34863 11.0866 8.1123L 11.0866 13L 9.82192 13L 9.82192 8.10547C 9.81737 7.57227 9.69432 7.17806 9.45278 6.92285C 9.2158 6.66764 8.84438 6.54004 8.33852 6.54004C 7.92837 6.54004 7.56834 6.64941 7.25845 6.86816C 6.94855 7.08691 6.70701 7.37402 6.53384 7.72949L 6.53384 13L 5.26919 13L 5.26919 5.60352L 6.46548 5.60352ZM 17.5602 12.2686C 17.068 12.8473 16.3457 13.1367 15.3932 13.1367C 14.6048 13.1367 14.0032 12.9089 13.5885 12.4531C 13.1784 11.9928 12.971 11.3138 12.9665 10.416L 12.9665 5.60352L 14.2311 5.60352L 14.2311 10.3818C 14.2311 11.5029 14.6868 12.0635 15.5983 12.0635C 16.5644 12.0635 17.207 11.7035 17.526 10.9834L 17.526 5.60352L 18.7907 5.60352L 18.7907 13L 17.5875 13L 17.5602 12.2686ZM 21.9079 5.60352L 21.942 6.42383C 22.4844 5.78581 23.2158 5.4668 24.1364 5.4668C 25.1709 5.4668 25.875 5.86328 26.2487 6.65625C 26.4948 6.30078 26.8138 6.01367 27.2057 5.79492C 27.6022 5.57617 28.0693 5.4668 28.6071 5.4668C 30.2295 5.4668 31.0543 6.32585 31.0817 8.04395L 31.0817 13L 29.817 13L 29.817 8.11914C 29.817 7.59049 29.6963 7.19629 29.4547 6.93652C 29.2132 6.6722 28.8076 6.54004 28.2379 6.54004C 27.7685 6.54004 27.3789 6.68132 27.069 6.96387C 26.7591 7.24186 26.5791 7.61784 26.529 8.0918L 26.529 13L 25.2575 13L 25.2575 8.15332C 25.2575 7.0778 24.7311 6.54004 23.6784 6.54004C 22.8489 6.54004 22.2816 6.89323 21.9762 7.59961L 21.9762 13L 20.7116 13L 20.7116 5.60352L 21.9079 5.60352Z"/>
<path id="path10_fill" d="M 8.46582 8.30371L 10.1064 5.60352L 11.583 5.60352L 9.16309 9.26074L 11.6582 13L 10.1953 13L 8.48633 10.2314L 6.77734 13L 5.30762 13L 7.80273 9.26074L 5.38281 5.60352L 6.8457 5.60352L 8.46582 8.30371Z"/>
<path id="path11_fill" d="M 8.56152 11.1475L 10.2842 5.60352L 11.6377 5.60352L 8.66406 14.1416C 8.20378 15.3721 7.47233 15.9873 6.46973 15.9873L 6.23047 15.9668L 5.75879 15.8779L 5.75879 14.8525L 6.10059 14.8799C 6.52897 14.8799 6.86165 14.7933 7.09863 14.6201C 7.34017 14.4469 7.53841 14.1302 7.69336 13.6699L 7.97363 12.918L 5.33496 5.60352L 6.71582 5.60352L 8.56152 11.1475Z"/>
<path id="path12_fill" d="M 7.17383 11.9678L 11.501 11.9678L 11.501 13L 5.62891 13L 5.62891 12.0703L 9.70996 6.64941L 5.69043 6.64941L 5.69043 5.60352L 11.2959 5.60352L 11.2959 6.49902L 7.17383 11.9678Z"/>
<path id="path13_fill" d="M 10.7422 11.2568L 12.1641 5.60352L 13.4287 5.60352L 11.2754 13L 10.25 13L 8.45215 7.39453L 6.70215 13L 5.67676 13L 3.53027 5.60352L 4.78809 5.60352L 6.24414 11.1406L 7.9668 5.60352L 8.98535 5.60352L 10.7422 11.2568Z"/>
<path id="path14_stroke" d="M 0 0L 0 -0.5L -0.5 -0.5L -0.5 0L 0 0ZM 56 0L 56.5 0L 56.5 -0.5L 56 -0.5L 56 0ZM 56 26L 56 26.5L 56.5 26.5L 56.5 26L 56 26ZM 0 26L -0.5 26L -0.5 26.5L 0 26.5L 0 26ZM 0 0.5L 56 0.5L 56 -0.5L 0 -0.5L 0 0.5ZM 55.5 0L 55.5 26L 56.5 26L 56.5 0L 55.5 0ZM 56 25.5L 0 25.5L 0 26.5L 56 26.5L 56 25.5ZM 0.5 26L 0.5 0L -0.5 0L -0.5 26L 0.5 26Z"/>
<path id="path15_fill" d="M 16.0464 8.37207L 14.8296 9.63672L 14.8296 13L 13.5171 13L 13.5171 3.04688L 14.8296 3.04688L 14.8296 7.96875L 19.2525 3.04688L 20.8384 3.04688L 16.9214 7.44238L 21.146 13L 19.5738 13L 16.0464 8.37207ZM 24.2427 11.1475L 25.9654 5.60352L 27.3189 5.60352L 24.3453 14.1416C 23.885 15.3721 23.1535 15.9873 22.1509 15.9873L 21.9117 15.9668L 21.44 15.8779L 21.44 14.8525L 21.7818 14.8799C 22.2102 14.8799 22.5428 14.7933 22.7798 14.6201C 23.0214 14.4469 23.2196 14.1302 23.3746 13.6699L 23.6548 12.918L 21.0162 5.60352L 22.397 5.60352L 24.2427 11.1475ZM 29.8277 13L 28.563 13L 28.563 2.5L 29.8277 2.5L 29.8277 13ZM 33.232 13L 31.9673 13L 31.9673 5.60352L 33.232 5.60352L 33.232 13ZM 31.8648 3.6416C 31.8648 3.43652 31.9263 3.26335 32.0494 3.12207C 32.177 2.98079 32.3638 2.91016 32.6099 2.91016C 32.856 2.91016 33.0428 2.98079 33.1705 3.12207C 33.2981 3.26335 33.3619 3.43652 33.3619 3.6416C 33.3619 3.84668 33.2981 4.01758 33.1705 4.1543C 33.0428 4.29102 32.856 4.35938 32.6099 4.35938C 32.3638 4.35938 32.177 4.29102 32.0494 4.1543C 31.9263 4.01758 31.8648 3.84668 31.8648 3.6416ZM 38.3316 13.1367C 37.329 13.1367 36.5132 12.8086 35.8843 12.1523C 35.2554 11.4915 34.941 10.6097 34.941 9.50684L 34.941 9.27441C 34.941 8.54069 35.08 7.88672 35.358 7.3125C 35.6405 6.73372 36.0324 6.28255 36.5337 5.95898C 37.0396 5.63086 37.5865 5.4668 38.1744 5.4668C 39.136 5.4668 39.8833 5.78353 40.4165 6.41699C 40.9498 7.05046 41.2164 7.95736 41.2164 9.1377L 41.2164 9.66406L 36.2056 9.66406C 36.2238 10.3932 36.4358 10.9834 36.8414 11.4346C 37.2515 11.8812 37.771 12.1045 38.3999 12.1045C 38.8466 12.1045 39.2248 12.0133 39.5347 11.8311C 39.8446 11.6488 40.1158 11.4072 40.3482 11.1064L 41.1207 11.708C 40.5009 12.6605 39.5712 13.1367 38.3316 13.1367ZM 38.1744 6.50586C 37.6639 6.50586 37.2356 6.69271 36.8892 7.06641C 36.5429 7.43555 36.3287 7.95508 36.2466 8.625L 39.9517 8.625L 39.9517 8.5293C 39.9152 7.88672 39.7421 7.38997 39.4322 7.03906C 39.1223 6.68359 38.703 6.50586 38.1744 6.50586Z"/>
<path id="path16_fill" d="M 14.3101 8.97363L 11.9722 8.97363L 11.9722 13L 10.6529 13L 10.6529 3.04688L 13.9478 3.04688C 15.0689 3.04688 15.9302 3.30208 16.5318 3.8125C 17.1379 4.32292 17.441 5.06576 17.441 6.04102C 17.441 6.66081 17.2723 7.20085 16.9351 7.66113C 16.6024 8.12142 16.1376 8.46549 15.5406 8.69336L 17.8785 12.918L 17.8785 13L 16.4703 13L 14.3101 8.97363ZM 11.9722 7.90039L 13.9888 7.90039C 14.6405 7.90039 15.1578 7.73177 15.5406 7.39453C 15.9279 7.05729 16.1216 6.60612 16.1216 6.04102C 16.1216 5.42578 15.9371 4.9541 15.5679 4.62598C 15.2033 4.29785 14.6747 4.13151 13.982 4.12695L 11.9722 4.12695L 11.9722 7.90039ZM 23.6548 13C 23.5819 12.8542 23.5227 12.5944 23.4771 12.2207C 22.8892 12.8314 22.1874 13.1367 21.3716 13.1367C 20.6425 13.1367 20.0432 12.9316 19.5738 12.5215C 19.1089 12.1068 18.8765 11.5827 18.8765 10.9492C 18.8765 10.179 19.1682 9.58203 19.7515 9.1582C 20.3394 8.72982 21.1643 8.51562 22.2261 8.51562L 23.4566 8.51562L 23.4566 7.93457C 23.4566 7.49251 23.3244 7.1416 23.0601 6.88184C 22.7958 6.61751 22.4061 6.48535 21.8912 6.48535C 21.44 6.48535 21.0617 6.59928 20.7564 6.82715C 20.4511 7.05501 20.2984 7.33073 20.2984 7.6543L 19.0269 7.6543C 19.0269 7.28516 19.1568 6.92969 19.4165 6.58789C 19.6809 6.24154 20.0363 5.9681 20.483 5.76758C 20.9341 5.56706 21.4286 5.4668 21.9664 5.4668C 22.8186 5.4668 23.4862 5.68099 23.9693 6.10938C 24.4524 6.5332 24.703 7.11882 24.7212 7.86621L 24.7212 11.2705C 24.7212 11.9495 24.8078 12.4896 24.981 12.8906L 24.981 13L 23.6548 13ZM 21.5562 12.0361C 21.9527 12.0361 22.3287 11.9336 22.6841 11.7285C 23.0396 11.5234 23.2971 11.2568 23.4566 10.9287L 23.4566 9.41113L 22.4654 9.41113C 20.9159 9.41113 20.1412 9.86458 20.1412 10.7715C 20.1412 11.168 20.2733 11.4779 20.5376 11.7012C 20.802 11.9245 21.1415 12.0361 21.5562 12.0361ZM 27.9683 6.49902C 28.5289 5.81087 29.258 5.4668 30.1558 5.4668C 31.719 5.4668 32.5074 6.34863 32.521 8.1123L 32.521 13L 31.2564 13L 31.2564 8.10547C 31.2518 7.57227 31.1288 7.17806 30.8873 6.92285C 30.6503 6.66764 30.2789 6.54004 29.773 6.54004C 29.3628 6.54004 29.0028 6.64941 28.6929 6.86816C 28.383 7.08691 28.1415 7.37402 27.9683 7.72949L 27.9683 13L 26.7037 13L 26.7037 2.5L 27.9683 2.5L 27.9683 6.49902ZM 38.981 12.2686C 38.4888 12.8473 37.7665 13.1367 36.814 13.1367C 36.0256 13.1367 35.424 12.9089 35.0093 12.4531C 34.5992 11.9928 34.3918 11.3138 34.3873 10.416L 34.3873 5.60352L 35.6519 5.60352L 35.6519 10.3818C 35.6519 11.5029 36.1076 12.0635 37.0191 12.0635C 37.9852 12.0635 38.6278 11.7035 38.9468 10.9834L 38.9468 5.60352L 40.2115 5.60352L 40.2115 13L 39.0083 13L 38.981 12.2686ZM 43.5132 13L 42.2486 13L 42.2486 2.5L 43.5132 2.5L 43.5132 13Z"/>
<path id="path17_fill" d="M 5.34135 3.04688L 8.59526 11.168L 11.8492 3.04688L 13.5513 3.04688L 13.5513 13L 12.2388 13L 12.2388 9.12402L 12.3619 4.94043L 9.09428 13L 8.0894 13L 4.82866 4.96094L 4.95854 9.12402L 4.95854 13L 3.64604 13L 3.64604 3.04688L 5.34135 3.04688ZM 17.0445 13L 15.7798 13L 15.7798 5.60352L 17.0445 5.60352L 17.0445 13ZM 15.6773 3.6416C 15.6773 3.43652 15.7388 3.26335 15.8619 3.12207C 15.9895 2.98079 16.1763 2.91016 16.4224 2.91016C 16.6685 2.91016 16.8553 2.98079 16.983 3.12207C 17.1106 3.26335 17.1744 3.43652 17.1744 3.6416C 17.1744 3.84668 17.1106 4.01758 16.983 4.1543C 16.8553 4.29102 16.6685 4.35938 16.4224 4.35938C 16.1763 4.35938 15.9895 4.29102 15.8619 4.1543C 15.7388 4.01758 15.6773 3.84668 15.6773 3.6416ZM 22.0415 12.1045C 22.4927 12.1045 22.8869 11.9678 23.2242 11.6943C 23.5614 11.4209 23.7483 11.0791 23.7847 10.6689L 24.981 10.6689C 24.9582 11.0928 24.8124 11.4961 24.5435 11.8789C 24.2746 12.2617 23.9146 12.5671 23.4634 12.7949C 23.0168 13.0228 22.5428 13.1367 22.0415 13.1367C 21.0344 13.1367 20.2323 12.8018 19.6353 12.1318C 19.0428 11.4574 18.7466 10.5368 18.7466 9.37012L 18.7466 9.1582C 18.7466 8.43815 18.8788 7.79785 19.1431 7.2373C 19.4074 6.67676 19.7857 6.24154 20.2779 5.93164C 20.7746 5.62174 21.3602 5.4668 22.0347 5.4668C 22.8641 5.4668 23.5523 5.71517 24.0992 6.21191C 24.6506 6.70866 24.9445 7.35352 24.981 8.14648L 23.7847 8.14648C 23.7483 7.66797 23.566 7.27604 23.2378 6.9707C 22.9143 6.66081 22.5132 6.50586 22.0347 6.50586C 21.3921 6.50586 20.8931 6.73828 20.5376 7.20312C 20.1867 7.66341 20.0113 8.33105 20.0113 9.20605L 20.0113 9.44531C 20.0113 10.2975 20.1867 10.9538 20.5376 11.4141C 20.8886 11.8743 21.3899 12.1045 22.0415 12.1045ZM 27.6675 6.49902C 28.2281 5.81087 28.9572 5.4668 29.855 5.4668C 31.4182 5.4668 32.2066 6.34863 32.2203 8.1123L 32.2203 13L 30.9556 13L 30.9556 8.10547C 30.9511 7.57227 30.828 7.17806 30.5865 6.92285C 30.3495 6.66764 29.9781 6.54004 29.4722 6.54004C 29.0621 6.54004 28.702 6.64941 28.3921 6.86816C 28.0822 7.08691 27.8407 7.37402 27.6675 7.72949L 27.6675 13L 26.4029 13L 26.4029 2.5L 27.6675 2.5L 27.6675 6.49902ZM 38.6802 13C 38.6073 12.8542 38.5481 12.5944 38.5025 12.2207C 37.9146 12.8314 37.2128 13.1367 36.397 13.1367C 35.6679 13.1367 35.0686 12.9316 34.5992 12.5215C 34.1343 12.1068 33.9019 11.5827 33.9019 10.9492C 33.9019 10.179 34.1936 9.58203 34.7769 9.1582C 35.3648 8.72982 36.1897 8.51562 37.2515 8.51562L 38.482 8.51562L 38.482 7.93457C 38.482 7.49251 38.3498 7.1416 38.0855 6.88184C 37.8212 6.61751 37.4315 6.48535 36.9165 6.48535C 36.4654 6.48535 36.0871 6.59928 35.7818 6.82715C 35.4764 7.05501 35.3238 7.33073 35.3238 7.6543L 34.0523 7.6543C 34.0523 7.28516 34.1822 6.92969 34.4419 6.58789C 34.7063 6.24154 35.0617 5.9681 35.5083 5.76758C 35.9595 5.56706 36.454 5.4668 36.9917 5.4668C 37.844 5.4668 38.5116 5.68099 38.9947 6.10938C 39.4777 6.5332 39.7284 7.11882 39.7466 7.86621L 39.7466 11.2705C 39.7466 11.9495 39.8332 12.4896 40.0064 12.8906L 40.0064 13L 38.6802 13ZM 36.5816 12.0361C 36.9781 12.0361 37.354 11.9336 37.7095 11.7285C 38.065 11.5234 38.3225 11.2568 38.482 10.9287L 38.482 9.41113L 37.4908 9.41113C 35.9413 9.41113 35.1665 9.86458 35.1665 10.7715C 35.1665 11.168 35.2987 11.4779 35.563 11.7012C 35.8274 11.9245 36.1669 12.0361 36.5816 12.0361ZM 44.7984 13.1367C 43.7958 13.1367 42.98 12.8086 42.3511 12.1523C 41.7222 11.4915 41.4078 10.6097 41.4078 9.50684L 41.4078 9.27441C 41.4078 8.54069 41.5468 7.88672 41.8248 7.3125C 42.1073 6.73372 42.4992 6.28255 43.0005 5.95898C 43.5064 5.63086 44.0533 5.4668 44.6412 5.4668C 45.6027 5.4668 46.3501 5.78353 46.8833 6.41699C 47.4165 7.05046 47.6832 7.95736 47.6832 9.1377L 47.6832 9.66406L 42.6724 9.66406C 42.6906 10.3932 42.9026 10.9834 43.3082 11.4346C 43.7183 11.8812 44.2378 12.1045 44.8667 12.1045C 45.3134 12.1045 45.6916 12.0133 46.0015 11.8311C 46.3114 11.6488 46.5826 11.4072 46.815 11.1064L 47.5874 11.708C 46.9677 12.6605 46.038 13.1367 44.7984 13.1367ZM 44.6412 6.50586C 44.1307 6.50586 43.7024 6.69271 43.356 7.06641C 43.0096 7.43555 42.7955 7.95508 42.7134 8.625L 46.4185 8.625L 46.4185 8.5293C 46.382 7.88672 46.2089 7.38997 45.899 7.03906C 45.5891 6.68359 45.1698 6.50586 44.6412 6.50586ZM 50.5269 13L 49.2623 13L 49.2623 2.5L 50.5269 2.5L 50.5269 13Z"/>
<path id="path18_fill" d="M 13.271 8.56348C 12.1454 8.23991 11.3251 7.84342 10.8101 7.37402C 10.2997 6.90007 10.0445 6.31673 10.0445 5.62402C 10.0445 4.84017 10.3567 4.19303 10.981 3.68262C 11.6099 3.16764 12.4257 2.91016 13.4283 2.91016C 14.1119 2.91016 14.7203 3.04232 15.2535 3.30664C 15.7912 3.57096 16.2059 3.93555 16.4976 4.40039C 16.7938 4.86523 16.9419 5.37337 16.9419 5.9248L 15.6226 5.9248C 15.6226 5.32324 15.4312 4.85156 15.0484 4.50977C 14.6656 4.16341 14.1255 3.99023 13.4283 3.99023C 12.7811 3.99023 12.2753 4.13379 11.9107 4.4209C 11.5507 4.70345 11.3706 5.09766 11.3706 5.60352C 11.3706 6.00911 11.5415 6.35319 11.8833 6.63574C 12.2297 6.91374 12.8153 7.16895 13.6402 7.40137C 14.4696 7.63379 15.1167 7.89128 15.5816 8.17383C 16.051 8.45182 16.3973 8.77767 16.6206 9.15137C 16.8485 9.52507 16.9624 9.96484 16.9624 10.4707C 16.9624 11.2773 16.648 11.9245 16.0191 12.4121C 15.3902 12.8952 14.5494 13.1367 13.4966 13.1367C 12.813 13.1367 12.175 13.0068 11.5826 12.7471C 10.9901 12.4827 10.5321 12.1227 10.2085 11.667C 9.88953 11.2113 9.73002 10.694 9.73002 10.1152L 11.0494 10.1152C 11.0494 10.7168 11.2704 11.193 11.7124 11.5439C 12.1591 11.8903 12.7538 12.0635 13.4966 12.0635C 14.1893 12.0635 14.7203 11.9222 15.0894 11.6396C 15.4585 11.3571 15.6431 10.972 15.6431 10.4844C 15.6431 9.99674 15.4722 9.62077 15.1304 9.35645C 14.7886 9.08757 14.1688 8.82324 13.271 8.56348ZM 23.0191 13C 22.9462 12.8542 22.8869 12.5944 22.8414 12.2207C 22.2535 12.8314 21.5516 13.1367 20.7359 13.1367C 20.0067 13.1367 19.4074 12.9316 18.938 12.5215C 18.4732 12.1068 18.2408 11.5827 18.2408 10.9492C 18.2408 10.179 18.5324 9.58203 19.1158 9.1582C 19.7037 8.72982 20.5285 8.51562 21.5904 8.51562L 22.8208 8.51562L 22.8208 7.93457C 22.8208 7.49251 22.6887 7.1416 22.4244 6.88184C 22.16 6.61751 21.7704 6.48535 21.2554 6.48535C 20.8042 6.48535 20.426 6.59928 20.1206 6.82715C 19.8153 7.05501 19.6626 7.33073 19.6626 7.6543L 18.3912 7.6543C 18.3912 7.28516 18.521 6.92969 18.7808 6.58789C 19.0451 6.24154 19.4006 5.9681 19.8472 5.76758C 20.2984 5.56706 20.7928 5.4668 21.3306 5.4668C 22.1828 5.4668 22.8505 5.68099 23.3335 6.10938C 23.8166 6.5332 24.0673 7.11882 24.0855 7.86621L 24.0855 11.2705C 24.0855 11.9495 24.1721 12.4896 24.3453 12.8906L 24.3453 13L 23.0191 13ZM 20.9205 12.0361C 21.3169 12.0361 21.6929 11.9336 22.0484 11.7285C 22.4039 11.5234 22.6613 11.2568 22.8208 10.9287L 22.8208 9.41113L 21.8296 9.41113C 20.2802 9.41113 19.5054 9.86458 19.5054 10.7715C 19.5054 11.168 19.6376 11.4779 19.9019 11.7012C 20.1662 11.9245 20.5057 12.0361 20.9205 12.0361ZM 29.6431 6.73828C 29.4517 6.70638 29.2443 6.69043 29.021 6.69043C 28.1916 6.69043 27.6288 7.04362 27.3326 7.75L 27.3326 13L 26.0679 13L 26.0679 5.60352L 27.2984 5.60352L 27.3189 6.45801C 27.7336 5.7972 28.3215 5.4668 29.0826 5.4668C 29.3287 5.4668 29.5155 5.4987 29.6431 5.5625L 29.6431 6.73828ZM 35.105 13C 35.0321 12.8542 34.9729 12.5944 34.9273 12.2207C 34.3394 12.8314 33.6376 13.1367 32.8218 13.1367C 32.0927 13.1367 31.4934 12.9316 31.024 12.5215C 30.5591 12.1068 30.3267 11.5827 30.3267 10.9492C 30.3267 10.179 30.6184 9.58203 31.2017 9.1582C 31.7896 8.72982 32.6145 8.51562 33.6763 8.51562L 34.9068 8.51562L 34.9068 7.93457C 34.9068 7.49251 34.7746 7.1416 34.5103 6.88184C 34.246 6.61751 33.8563 6.48535 33.3414 6.48535C 32.8902 6.48535 32.5119 6.59928 32.2066 6.82715C 31.9012 7.05501 31.7486 7.33073 31.7486 7.6543L 30.4771 7.6543C 30.4771 7.28516 30.607 6.92969 30.8667 6.58789C 31.1311 6.24154 31.4865 5.9681 31.9331 5.76758C 32.3843 5.56706 32.8788 5.4668 33.4165 5.4668C 34.2688 5.4668 34.9364 5.68099 35.4195 6.10938C 35.9026 6.5332 36.1532 7.11882 36.1714 7.86621L 36.1714 11.2705C 36.1714 11.9495 36.258 12.4896 36.4312 12.8906L 36.4312 13L 35.105 13ZM 33.0064 12.0361C 33.4029 12.0361 33.7789 11.9336 34.1343 11.7285C 34.4898 11.5234 34.7473 11.2568 34.9068 10.9287L 34.9068 9.41113L 33.9156 9.41113C 32.3661 9.41113 31.5914 9.86458 31.5914 10.7715C 31.5914 11.168 31.7235 11.4779 31.9878 11.7012C 32.2522 11.9245 32.5917 12.0361 33.0064 12.0361ZM 39.4185 6.49902C 39.979 5.81087 40.7082 5.4668 41.606 5.4668C 43.1692 5.4668 43.9576 6.34863 43.9712 8.1123L 43.9712 13L 42.7066 13L 42.7066 8.10547C 42.702 7.57227 42.579 7.17806 42.3374 6.92285C 42.1005 6.66764 41.729 6.54004 41.2232 6.54004C 40.813 6.54004 40.453 6.64941 40.1431 6.86816C 39.8332 7.08691 39.5917 7.37402 39.4185 7.72949L 39.4185 13L 38.1539 13L 38.1539 2.5L 39.4185 2.5L 39.4185 6.49902Z"/>
<path id="path19_fill" d="M 13.6328 5.60352L 13.6738 6.5332C 14.2389 5.82227 14.9772 5.4668 15.8887 5.4668C 17.4518 5.4668 18.2402 6.34863 18.2539 8.1123L 18.2539 13L 16.9893 13L 16.9893 8.10547C 16.9847 7.57227 16.8617 7.17806 16.6201 6.92285C 16.3831 6.66764 16.0117 6.54004 15.5059 6.54004C 15.0957 6.54004 14.7357 6.64941 14.4258 6.86816C 14.1159 7.08691 13.8743 7.37402 13.7012 7.72949L 13.7012 13L 12.4365 13L 12.4365 5.60352L 13.6328 5.60352ZM 24.7275 13C 24.6546 12.8542 24.5954 12.5944 24.5498 12.2207C 23.9619 12.8314 23.2601 13.1367 22.4443 13.1367C 21.7152 13.1367 21.1159 12.9316 20.6465 12.5215C 20.1816 12.1068 19.9492 11.5827 19.9492 10.9492C 19.9492 10.179 20.2409 9.58203 20.8242 9.1582C 21.4121 8.72982 22.237 8.51562 23.2988 8.51562L 24.5293 8.51562L 24.5293 7.93457C 24.5293 7.49251 24.3971 7.1416 24.1328 6.88184C 23.8685 6.61751 23.4788 6.48535 22.9639 6.48535C 22.5127 6.48535 22.1344 6.59928 21.8291 6.82715C 21.5238 7.05501 21.3711 7.33073 21.3711 7.6543L 20.0996 7.6543C 20.0996 7.28516 20.2295 6.92969 20.4893 6.58789C 20.7536 6.24154 21.109 5.9681 21.5557 5.76758C 22.0068 5.56706 22.5013 5.4668 23.0391 5.4668C 23.8913 5.4668 24.5589 5.68099 25.042 6.10938C 25.5251 6.5332 25.7757 7.11882 25.7939 7.86621L 25.7939 11.2705C 25.7939 11.9495 25.8805 12.4896 26.0537 12.8906L 26.0537 13L 24.7275 13ZM 22.6289 12.0361C 23.0254 12.0361 23.4014 11.9336 23.7568 11.7285C 24.1123 11.5234 24.3698 11.2568 24.5293 10.9287L 24.5293 9.41113L 23.5381 9.41113C 21.9886 9.41113 21.2139 9.86458 21.2139 10.7715C 21.2139 11.168 21.346 11.4779 21.6104 11.7012C 21.8747 11.9245 22.2142 12.0361 22.6289 12.0361ZM 28.9658 5.60352L 29 6.42383C 29.5423 5.78581 30.2738 5.4668 31.1943 5.4668C 32.2288 5.4668 32.9329 5.86328 33.3066 6.65625C 33.5527 6.30078 33.8717 6.01367 34.2637 5.79492C 34.6602 5.57617 35.1273 5.4668 35.665 5.4668C 37.2874 5.4668 38.1123 6.32585 38.1396 8.04395L 38.1396 13L 36.875 13L 36.875 8.11914C 36.875 7.59049 36.7542 7.19629 36.5127 6.93652C 36.2712 6.6722 35.8656 6.54004 35.2959 6.54004C 34.8265 6.54004 34.4368 6.68132 34.127 6.96387C 33.8171 7.24186 33.637 7.61784 33.5869 8.0918L 33.5869 13L 32.3154 13L 32.3154 8.15332C 32.3154 7.0778 31.7891 6.54004 30.7363 6.54004C 29.9069 6.54004 29.3395 6.89323 29.0342 7.59961L 29.0342 13L 27.7695 13L 27.7695 5.60352L 28.9658 5.60352ZM 43.123 13.1367C 42.1204 13.1367 41.3047 12.8086 40.6758 12.1523C 40.0469 11.4915 39.7324 10.6097 39.7324 9.50684L 39.7324 9.27441C 39.7324 8.54069 39.8714 7.88672 40.1494 7.3125C 40.432 6.73372 40.8239 6.28255 41.3252 5.95898C 41.8311 5.63086 42.3779 5.4668 42.9658 5.4668C 43.9274 5.4668 44.6748 5.78353 45.208 6.41699C 45.7412 7.05046 46.0078 7.95736 46.0078 9.1377L 46.0078 9.66406L 40.9971 9.66406C 41.0153 10.3932 41.2272 10.9834 41.6328 11.4346C 42.043 11.8812 42.5625 12.1045 43.1914 12.1045C 43.638 12.1045 44.0163 12.0133 44.3262 11.8311C 44.6361 11.6488 44.9072 11.4072 45.1396 11.1064L 45.9121 11.708C 45.2923 12.6605 44.3626 13.1367 43.123 13.1367ZM 42.9658 6.50586C 42.4554 6.50586 42.027 6.69271 41.6807 7.06641C 41.3343 7.43555 41.1201 7.95508 41.0381 8.625L 44.7432 8.625L 44.7432 8.5293C 44.7067 7.88672 44.5335 7.38997 44.2236 7.03906C 43.9137 6.68359 43.4945 6.50586 42.9658 6.50586Z"/>
<path id="path20_fill" d="M 20.8019 5.64453C 20.8019 6.14128 20.6698 6.58333 20.4054 6.9707C 20.1457 7.35807 19.7925 7.66113 19.3459 7.87988C 19.8654 8.10319 20.2756 8.42904 20.5763 8.85742C 20.8817 9.28581 21.0344 9.77116 21.0344 10.3135C 21.0344 11.1748 20.7427 11.8607 20.1594 12.3711C 19.5806 12.8815 18.8172 13.1367 17.8693 13.1367C 16.9123 13.1367 16.1444 12.8815 15.5656 12.3711C 14.9914 11.8561 14.7043 11.1702 14.7043 10.3135C 14.7043 9.77572 14.8501 9.29036 15.1418 8.85742C 15.438 8.42448 15.8459 8.09635 16.3654 7.87305C 15.9234 7.6543 15.5747 7.35124 15.3195 6.96387C 15.0643 6.5765 14.9367 6.13672 14.9367 5.64453C 14.9367 4.80599 15.2056 4.14062 15.7433 3.64844C 16.2811 3.15625 16.9898 2.91016 17.8693 2.91016C 18.7443 2.91016 19.4507 3.15625 19.9885 3.64844C 20.5308 4.14062 20.8019 4.80599 20.8019 5.64453ZM 19.7697 10.2861C 19.7697 9.73014 19.592 9.27669 19.2365 8.92578C 18.8856 8.57487 18.4253 8.39941 17.8556 8.39941C 17.286 8.39941 16.828 8.57259 16.4816 8.91895C 16.1398 9.2653 15.9689 9.72103 15.9689 10.2861C 15.9689 10.8512 16.1353 11.2956 16.4679 11.6191C 16.8052 11.9427 17.2723 12.1045 17.8693 12.1045C 18.4618 12.1045 18.9266 11.9427 19.2638 11.6191C 19.6011 11.291 19.7697 10.8467 19.7697 10.2861ZM 17.8693 3.94922C 17.3726 3.94922 16.9693 4.10417 16.6594 4.41406C 16.354 4.7194 16.2013 5.13639 16.2013 5.66504C 16.2013 6.1709 16.3517 6.58105 16.6525 6.89551C 16.9579 7.2054 17.3635 7.36035 17.8693 7.36035C 18.3752 7.36035 18.7785 7.2054 19.0793 6.89551C 19.3846 6.58105 19.5373 6.1709 19.5373 5.66504C 19.5373 5.15918 19.3801 4.74674 19.0656 4.42773C 18.7512 4.10872 18.3524 3.94922 17.8693 3.94922Z"/>
<path id="path21_fill" d="M 6.79004 5.60352L 6.83105 6.5332C 7.39616 5.82227 8.13444 5.4668 9.0459 5.4668C 10.609 5.4668 11.3975 6.34863 11.4111 8.1123L 11.4111 13L 10.1465 13L 10.1465 8.10547C 10.1419 7.57227 10.0189 7.17806 9.77734 6.92285C 9.54036 6.66764 9.16895 6.54004 8.66309 6.54004C 8.25293 6.54004 7.8929 6.64941 7.58301 6.86816C 7.27311 7.08691 7.03158 7.37402 6.8584 7.72949L 6.8584 13L 5.59375 13L 5.59375 5.60352L 6.79004 5.60352ZM 17.8848 12.2686C 17.3926 12.8473 16.6702 13.1367 15.7178 13.1367C 14.9294 13.1367 14.3278 12.9089 13.9131 12.4531C 13.5029 11.9928 13.2956 11.3138 13.291 10.416L 13.291 5.60352L 14.5557 5.60352L 14.5557 10.3818C 14.5557 11.5029 15.0114 12.0635 15.9229 12.0635C 16.889 12.0635 17.5316 11.7035 17.8506 10.9834L 17.8506 5.60352L 19.1152 5.60352L 19.1152 13L 17.9121 13L 17.8848 12.2686ZM 22.2324 5.60352L 22.2666 6.42383C 22.8089 5.78581 23.5404 5.4668 24.4609 5.4668C 25.4954 5.4668 26.1995 5.86328 26.5732 6.65625C 26.8193 6.30078 27.1383 6.01367 27.5303 5.79492C 27.9268 5.57617 28.3939 5.4668 28.9316 5.4668C 30.554 5.4668 31.3789 6.32585 31.4062 8.04395L 31.4062 13L 30.1416 13L 30.1416 8.11914C 30.1416 7.59049 30.0208 7.19629 29.7793 6.93652C 29.5378 6.6722 29.1322 6.54004 28.5625 6.54004C 28.0931 6.54004 27.7035 6.68132 27.3936 6.96387C 27.0837 7.24186 26.9036 7.61784 26.8535 8.0918L 26.8535 13L 25.582 13L 25.582 8.15332C 25.582 7.0778 25.0557 6.54004 24.0029 6.54004C 23.1735 6.54004 22.6061 6.89323 22.3008 7.59961L 22.3008 13L 21.0361 13L 21.0361 5.60352L 22.2324 5.60352Z"/>
<path id="path22_stroke" d="M 0 0L 0 -0.5L -0.5 -0.5L -0.5 0L 0 0ZM 53 0L 53.5 0L 53.5 -0.5L 53 -0.5L 53 0ZM 53 26.5L 53 27L 53.5 27L 53.5 26.5L 53 26.5ZM 0 26.5L -0.5 26.5L -0.5 27L 0 27L 0 26.5ZM 0 0.5L 53 0.5L 53 -0.5L 0 -0.5L 0 0.5ZM 52.5 0L 52.5 26.5L 53.5 26.5L 53.5 0L 52.5 0ZM 53 26L 0 26L 0 27L 53 27L 53 26ZM 0.5 26.5L 0.5 0L -0.5 0L -0.5 26.5L 0.5 26.5Z"/>
<path id="path23_fill" d="M 15.6571 8.60449L 11.4804 8.60449L 11.4804 13L 10.1679 13L 10.1679 3.04688L 16.3339 3.04688L 16.3339 4.12695L 11.4804 4.12695L 11.4804 7.53125L 15.6571 7.53125L 15.6571 8.60449ZM 22.0419 13C 21.969 12.8542 21.9097 12.5944 21.8642 12.2207C 21.2763 12.8314 20.5745 13.1367 19.7587 13.1367C 19.0295 13.1367 18.4302 12.9316 17.9608 12.5215C 17.496 12.1068 17.2636 11.5827 17.2636 10.9492C 17.2636 10.179 17.5552 9.58203 18.1386 9.1582C 18.7265 8.72982 19.5513 8.51562 20.6132 8.51562L 21.8437 8.51562L 21.8437 7.93457C 21.8437 7.49251 21.7115 7.1416 21.4472 6.88184C 21.1829 6.61751 20.7932 6.48535 20.2782 6.48535C 19.8271 6.48535 19.4488 6.59928 19.1435 6.82715C 18.8381 7.05501 18.6855 7.33073 18.6855 7.6543L 17.414 7.6543C 17.414 7.28516 17.5439 6.92969 17.8036 6.58789C 18.0679 6.24154 18.4234 5.9681 18.87 5.76758C 19.3212 5.56706 19.8157 5.4668 20.3534 5.4668C 21.2056 5.4668 21.8733 5.68099 22.3564 6.10938C 22.8394 6.5332 23.0901 7.11882 23.1083 7.86621L 23.1083 11.2705C 23.1083 11.9495 23.1949 12.4896 23.3681 12.8906L 23.3681 13L 22.0419 13ZM 19.9433 12.0361C 20.3398 12.0361 20.7157 11.9336 21.0712 11.7285C 21.4267 11.5234 21.6842 11.2568 21.8437 10.9287L 21.8437 9.41113L 20.8524 9.41113C 19.303 9.41113 18.5282 9.86458 18.5282 10.7715C 18.5282 11.168 18.6604 11.4779 18.9247 11.7012C 19.189 11.9245 19.5286 12.0361 19.9433 12.0361ZM 26.4648 13L 25.2001 13L 25.2001 2.5L 26.4648 2.5L 26.4648 13ZM 32.8017 11.0381C 32.8017 10.6963 32.6718 10.432 32.412 10.2451C 32.1568 10.0537 31.7079 9.88965 31.0653 9.75293C 30.4273 9.61621 29.9192 9.45215 29.5409 9.26074C 29.1672 9.06934 28.8892 8.84147 28.7069 8.57715C 28.5292 8.31283 28.4403 7.99837 28.4403 7.63379C 28.4403 7.02767 28.6955 6.51497 29.206 6.0957C 29.7209 5.67643 30.3772 5.4668 31.1747 5.4668C 32.0133 5.4668 32.6923 5.68327 33.2118 6.11621C 33.7359 6.54915 33.998 7.10286 33.998 7.77734L 32.7265 7.77734C 32.7265 7.43099 32.5784 7.13249 32.2821 6.88184C 31.9905 6.63118 31.6213 6.50586 31.1747 6.50586C 30.7144 6.50586 30.3544 6.60612 30.0946 6.80664C 29.8349 7.00716 29.705 7.26921 29.705 7.59277C 29.705 7.89811 29.8258 8.12826 30.0673 8.2832C 30.3088 8.43815 30.7441 8.58626 31.373 8.72754C 32.0064 8.86882 32.5191 9.03743 32.911 9.2334C 33.303 9.42936 33.5924 9.66634 33.7792 9.94434C 33.9706 10.2178 34.0663 10.5527 34.0663 10.9492C 34.0663 11.61 33.802 12.141 33.2733 12.542C 32.7447 12.9385 32.0588 13.1367 31.2157 13.1367C 30.6233 13.1367 30.0992 13.0319 29.6435 12.8223C 29.1877 12.6126 28.83 12.321 28.5702 11.9473C 28.315 11.569 28.1874 11.1611 28.1874 10.7236L 29.4521 10.7236C 29.4748 11.1475 29.6435 11.4847 29.9579 11.7354C 30.2769 11.9814 30.6962 12.1045 31.2157 12.1045C 31.6942 12.1045 32.0771 12.0088 32.3642 11.8174C 32.6558 11.6214 32.8017 11.3617 32.8017 11.0381ZM 38.7831 13.1367C 37.7805 13.1367 36.9648 12.8086 36.3358 12.1523C 35.7069 11.4915 35.3925 10.6097 35.3925 9.50684L 35.3925 9.27441C 35.3925 8.54069 35.5315 7.88672 35.8095 7.3125C 36.092 6.73372 36.484 6.28255 36.9853 5.95898C 37.4911 5.63086 38.038 5.4668 38.6259 5.4668C 39.5875 5.4668 40.3349 5.78353 40.8681 6.41699C 41.4013 7.05046 41.6679 7.95736 41.6679 9.1377L 41.6679 9.66406L 36.6571 9.66406C 36.6754 10.3932 36.8873 10.9834 37.2929 11.4346C 37.703 11.8812 38.2226 12.1045 38.8515 12.1045C 39.2981 12.1045 39.6763 12.0133 39.9862 11.8311C 40.2961 11.6488 40.5673 11.4072 40.7997 11.1064L 41.5722 11.708C 40.9524 12.6605 40.0227 13.1367 38.7831 13.1367ZM 38.6259 6.50586C 38.1155 6.50586 37.6871 6.69271 37.3407 7.06641C 36.9944 7.43555 36.7802 7.95508 36.6982 8.625L 40.4032 8.625L 40.4032 8.5293C 40.3668 7.88672 40.1936 7.38997 39.8837 7.03906C 39.5738 6.68359 39.1545 6.50586 38.6259 6.50586Z"/>
<path id="path24_fill" d="M 19.7655 4.12695L 16.5663 4.12695L 16.5663 13L 15.2607 13L 15.2607 4.12695L 12.0683 4.12695L 12.0683 3.04688L 19.7655 3.04688L 19.7655 4.12695ZM 24.0995 6.73828C 23.9081 6.70638 23.7008 6.69043 23.4774 6.69043C 22.648 6.69043 22.0852 7.04362 21.789 7.75L 21.789 13L 20.5243 13L 20.5243 5.60352L 21.7548 5.60352L 21.7753 6.45801C 22.19 5.7972 22.7779 5.4668 23.539 5.4668C 23.7851 5.4668 23.9719 5.4987 24.0995 5.5625L 24.0995 6.73828ZM 29.8349 12.2686C 29.3427 12.8473 28.6204 13.1367 27.6679 13.1367C 26.8795 13.1367 26.2779 12.9089 25.8632 12.4531C 25.453 11.9928 25.2457 11.3138 25.2411 10.416L 25.2411 5.60352L 26.5058 5.60352L 26.5058 10.3818C 26.5058 11.5029 26.9615 12.0635 27.873 12.0635C 28.8391 12.0635 29.4817 11.7035 29.8007 10.9834L 29.8007 5.60352L 31.0653 5.60352L 31.0653 13L 29.8622 13L 29.8349 12.2686ZM 36.0624 13.1367C 35.0598 13.1367 34.244 12.8086 33.6151 12.1523C 32.9862 11.4915 32.6718 10.6097 32.6718 9.50684L 32.6718 9.27441C 32.6718 8.54069 32.8108 7.88672 33.0888 7.3125C 33.3713 6.73372 33.7633 6.28255 34.2646 5.95898C 34.7704 5.63086 35.3173 5.4668 35.9052 5.4668C 36.8668 5.4668 37.6142 5.78353 38.1474 6.41699C 38.6806 7.05046 38.9472 7.95736 38.9472 9.1377L 38.9472 9.66406L 33.9364 9.66406C 33.9547 10.3932 34.1666 10.9834 34.5722 11.4346C 34.9823 11.8812 35.5019 12.1045 36.1308 12.1045C 36.5774 12.1045 36.9556 12.0133 37.2655 11.8311C 37.5754 11.6488 37.8466 11.4072 38.079 11.1064L 38.8515 11.708C 38.2317 12.6605 37.302 13.1367 36.0624 13.1367ZM 35.9052 6.50586C 35.3948 6.50586 34.9664 6.69271 34.62 7.06641C 34.2737 7.43555 34.0595 7.95508 33.9774 8.625L 37.6825 8.625L 37.6825 8.5293C 37.6461 7.88672 37.4729 7.38997 37.163 7.03906C 36.8531 6.68359 36.4338 6.50586 35.9052 6.50586Z"/>
<path id="path25_fill" d="M 0 0L 204.744 0L 204.744 42L 0 42L 0 0Z"/>
<path id="path26_fill" d="M 1.82 7.126L 3.15 7.126L 3.29 8.68L 3.332 8.68C 3.68667 8.12 4.11133 7.69533 4.606 7.406C 5.11 7.10733 5.66067 6.958 6.258 6.958C 6.538 6.958 6.776 6.98133 6.972 7.028C 7.17733 7.06533 7.38267 7.13533 7.588 7.238L 7.252 8.596C 7.028 8.52133 6.82733 8.47 6.65 8.442C 6.482 8.40467 6.26733 8.386 6.006 8.386C 5.53 8.386 5.07267 8.52133 4.634 8.792C 4.19533 9.06267 3.79867 9.534 3.444 10.206L 3.444 14L 1.82 14L 1.82 7.126ZM 9.26253 10.57C 9.26253 10.01 9.36053 9.506 9.55653 9.058C 9.76186 8.61 10.0279 8.232 10.3545 7.924C 10.6812 7.60667 11.0545 7.36867 11.4745 7.21C 11.9039 7.042 12.3425 6.958 12.7905 6.958C 13.3039 6.958 13.7565 7.042 14.1485 7.21C 14.5499 7.36867 14.8859 7.59267 15.1565 7.882C 15.4272 8.162 15.6325 8.50267 15.7725 8.904C 15.9125 9.30533 15.9825 9.744 15.9825 10.22C 15.9825 10.3787 15.9732 10.528 15.9545 10.668C 15.9452 10.808 15.9312 10.92 15.9125 11.004L 10.9145 11.004C 10.9705 11.62 11.2132 12.096 11.6425 12.432C 12.0719 12.7587 12.5992 12.922 13.2245 12.922C 13.5792 12.922 13.9105 12.8753 14.2185 12.782C 14.5265 12.6793 14.8392 12.5393 15.1565 12.362L 15.7025 13.37C 15.3292 13.6033 14.9139 13.7947 14.4565 13.944C 13.9992 14.0933 13.5185 14.168 13.0145 14.168C 12.4919 14.168 12.0019 14.0887 11.5445 13.93C 11.0872 13.762 10.6905 13.524 10.3545 13.216C 10.0185 12.908 9.75253 12.5347 9.55653 12.096C 9.36053 11.648 9.26253 11.1393 9.26253 10.57ZM 14.4985 9.912C 14.4985 9.38 14.3585 8.96467 14.0785 8.666C 13.7985 8.358 13.3832 8.204 12.8325 8.204C 12.3659 8.204 11.9505 8.34867 11.5865 8.638C 11.2225 8.92733 10.9939 9.352 10.9005 9.912L 14.4985 9.912ZM 18.4131 12.082C 18.8051 12.3527 19.2111 12.5673 19.6311 12.726C 20.0604 12.8753 20.5411 12.95 21.0731 12.95C 21.6144 12.95 22.0111 12.8753 22.2631 12.726C 22.5151 12.5673 22.6411 12.3667 22.6411 12.124C 22.6411 11.8813 22.4777 11.6807 22.1511 11.522C 21.8244 11.354 21.3111 11.1767 20.6111 10.99C 20.2844 10.906 19.9671 10.8033 19.6591 10.682C 19.3511 10.5607 19.0804 10.4207 18.8471 10.262C 18.6137 10.1033 18.4271 9.92133 18.2871 9.716C 18.1471 9.51067 18.0771 9.27733 18.0771 9.016C 18.0771 8.40933 18.3384 7.91467 18.8611 7.532C 19.3837 7.14933 20.1351 6.958 21.1151 6.958C 21.6751 6.958 22.2024 7.05133 22.6971 7.238C 23.1917 7.42467 23.6164 7.63467 23.9711 7.868L 23.2291 8.862C 22.9211 8.65667 22.5897 8.49333 22.2351 8.372C 21.8897 8.24133 21.5211 8.176 21.1291 8.176C 20.5971 8.176 20.2237 8.25067 20.0091 8.4C 19.7944 8.54 19.6871 8.71733 19.6871 8.932C 19.6871 9.05333 19.7337 9.16533 19.8271 9.268C 19.9297 9.36133 20.0651 9.45 20.2331 9.534C 20.4104 9.60867 20.6157 9.68333 20.8491 9.758C 21.0824 9.83267 21.3391 9.90267 21.6191 9.968C 22.0204 10.0707 22.3797 10.1873 22.6971 10.318C 23.0237 10.4393 23.2991 10.5793 23.5231 10.738C 23.7564 10.8967 23.9337 11.0833 24.0551 11.298C 24.1857 11.5127 24.2511 11.76 24.2511 12.04C 24.2511 12.3387 24.1811 12.6187 24.0411 12.88C 23.9011 13.132 23.6957 13.356 23.4251 13.552C 23.1544 13.7387 22.8184 13.888 22.4171 14C 22.0157 14.112 21.5537 14.168 21.0311 14.168C 20.3871 14.168 19.7711 14.0653 19.1831 13.86C 18.5951 13.6547 18.0864 13.4027 17.6571 13.104L 18.4131 12.082ZM 32.3936 14L 31.0776 14L 30.9516 12.908L 30.8956 12.908C 30.5689 13.2907 30.2096 13.5987 29.8176 13.832C 29.4256 14.056 28.9729 14.168 28.4596 14.168C 27.6569 14.168 27.0736 13.93 26.7096 13.454C 26.3456 12.9687 26.1636 12.278 26.1636 11.382L 26.1636 7.126L 27.7736 7.126L 27.7736 11.172C 27.7736 11.732 27.8669 12.1427 28.0536 12.404C 28.2496 12.656 28.5856 12.782 29.0616 12.782C 29.3883 12.782 29.6776 12.7073 29.9296 12.558C 30.1909 12.4087 30.4756 12.1427 30.7836 11.76L 30.7836 7.126L 32.3936 7.126L 32.3936 14ZM 34.5721 4.116L 38.3521 4.116L 38.3521 11.578C 38.3521 12.0447 38.4688 12.376 38.7021 12.572C 38.9355 12.7587 39.2295 12.852 39.5841 12.852C 39.9201 12.852 40.3121 12.7633 40.7601 12.586L 41.1381 13.776C 40.8115 13.888 40.5035 13.9813 40.2141 14.056C 39.9341 14.1307 39.5935 14.168 39.1921 14.168C 38.3801 14.168 37.7688 13.9347 37.3581 13.468C 36.9475 13.0013 36.7421 12.3433 36.7421 11.494L 36.7421 5.39L 34.5721 5.39L 34.5721 4.116ZM 44.6327 8.4L 42.7987 8.4L 42.7987 7.196L 44.7027 7.126L 44.9127 5.25L 46.2427 5.25L 46.2427 7.126L 49.3787 7.126L 49.3787 8.4L 46.2427 8.4L 46.2427 11.228C 46.2427 11.7973 46.3593 12.2173 46.5927 12.488C 46.826 12.7493 47.2367 12.88 47.8247 12.88C 48.1233 12.88 48.394 12.8567 48.6367 12.81C 48.8793 12.754 49.1127 12.684 49.3367 12.6L 49.6447 13.776C 49.3367 13.8787 48.996 13.9673 48.6227 14.042C 48.2493 14.126 47.8527 14.168 47.4327 14.168C 46.91 14.168 46.4713 14.098 46.1167 13.958C 45.762 13.818 45.4727 13.622 45.2487 13.37C 45.034 13.1087 44.8753 12.796 44.7727 12.432C 44.6793 12.068 44.6327 11.6667 44.6327 11.228L 44.6327 8.4ZM 59.8537 7.224L 66.0697 7.224L 66.0697 8.4L 59.8537 8.4L 59.8537 7.224ZM 59.8537 10.346L 66.0697 10.346L 66.0697 11.522L 59.8537 11.522L 59.8537 10.346ZM 76.2928 10.57C 76.2928 10.01 76.3768 9.506 76.5448 9.058C 76.7128 8.61 76.9368 8.232 77.2168 7.924C 77.5061 7.616 77.8328 7.378 78.1968 7.21C 78.5608 7.042 78.9388 6.958 79.3308 6.958C 79.7414 6.958 80.0914 7.03267 80.3808 7.182C 80.6794 7.322 80.9688 7.518 81.2488 7.77L 81.1788 6.608L 81.1788 4.116L 82.8028 4.116L 82.8028 14L 81.4728 14L 81.3468 13.202L 81.3048 13.202C 81.0341 13.4727 80.7168 13.7013 80.3528 13.888C 79.9981 14.0747 79.6248 14.168 79.2328 14.168C 78.7941 14.168 78.3928 14.0887 78.0288 13.93C 77.6648 13.762 77.3521 13.524 77.0908 13.216C 76.8388 12.908 76.6428 12.5347 76.5028 12.096C 76.3628 11.648 76.2928 11.1393 76.2928 10.57ZM 77.9588 10.556C 77.9588 11.3027 78.1034 11.872 78.3928 12.264C 78.6821 12.6467 79.0928 12.838 79.6248 12.838C 80.1941 12.838 80.7121 12.5627 81.1788 12.012L 81.1788 8.918C 80.9361 8.68467 80.6934 8.52133 80.4508 8.428C 80.2081 8.33467 79.9608 8.288 79.7088 8.288C 79.4661 8.288 79.2374 8.33933 79.0228 8.442C 78.8174 8.54467 78.6354 8.694 78.4768 8.89C 78.3181 9.07667 78.1921 9.31 78.0988 9.59C 78.0054 9.87 77.9588 10.192 77.9588 10.556ZM 91.7573 5.516C 91.5053 5.41333 91.258 5.33867 91.0153 5.292C 90.782 5.24533 90.5253 5.222 90.2453 5.222C 89.7133 5.222 89.326 5.35267 89.0833 5.614C 88.85 5.866 88.7333 6.23467 88.7333 6.72L 88.7333 7.126L 91.3513 7.126L 91.3513 8.4L 88.7333 8.4L 88.7333 14L 87.1373 14L 87.1373 8.4L 85.2333 8.4L 85.2333 7.196L 87.1373 7.126L 87.1373 6.748C 87.1373 6.34667 87.1933 5.97333 87.3053 5.628C 87.4173 5.28267 87.59 4.98867 87.8233 4.746C 88.066 4.494 88.3693 4.298 88.7333 4.158C 89.1066 4.018 89.5453 3.948 90.0493 3.948C 90.4226 3.948 90.7773 3.98067 91.1133 4.046C 91.4586 4.11133 91.7853 4.20467 92.0933 4.326L 91.7573 5.516ZM 95.3218 4.088L 99.3258 4.088L 99.3258 4.97L 96.5678 4.97L 96.5678 15.246L 99.3258 15.246L 99.3258 16.128L 95.3218 16.128L 95.3218 4.088ZM 101.882 7.126L 103.212 7.126L 103.338 8.162L 103.394 8.162C 103.721 7.83533 104.08 7.55533 104.472 7.322C 104.874 7.07933 105.34 6.958 105.872 6.958C 106.666 6.958 107.249 7.20067 107.622 7.686C 107.996 8.162 108.182 8.848 108.182 9.744L 108.182 14L 106.558 14L 106.558 9.954C 106.558 9.394 106.46 8.988 106.264 8.736C 106.078 8.47467 105.746 8.344 105.27 8.344C 104.934 8.344 104.636 8.42333 104.374 8.582C 104.113 8.74067 103.824 8.98333 103.506 9.31L 103.506 14L 101.882 14L 101.882 7.126ZM 116.339 14L 115.023 14L 114.897 12.908L 114.841 12.908C 114.514 13.2907 114.155 13.5987 113.763 13.832C 113.371 14.056 112.918 14.168 112.405 14.168C 111.602 14.168 111.019 13.93 110.655 13.454C 110.291 12.9687 110.109 12.278 110.109 11.382L 110.109 7.126L 111.719 7.126L 111.719 11.172C 111.719 11.732 111.812 12.1427 111.999 12.404C 112.195 12.656 112.531 12.782 113.007 12.782C 113.334 12.782 113.623 12.7073 113.875 12.558C 114.136 12.4087 114.421 12.1427 114.729 11.76L 114.729 7.126L 116.339 7.126L 116.339 14ZM 118.195 7.126L 119.413 7.126L 119.539 8.008L 119.581 8.008C 119.74 7.70933 119.931 7.462 120.155 7.266C 120.389 7.06067 120.701 6.958 121.093 6.958C 121.765 6.958 122.185 7.34067 122.353 8.106C 122.512 7.77933 122.713 7.50867 122.955 7.294C 123.207 7.07 123.525 6.958 123.907 6.958C 124.393 6.958 124.766 7.14933 125.027 7.532C 125.298 7.90533 125.433 8.43733 125.433 9.128L 125.433 14L 123.907 14L 123.907 9.254C 123.907 8.64733 123.716 8.344 123.333 8.344C 123.147 8.344 122.983 8.414 122.843 8.554C 122.703 8.694 122.568 8.90867 122.437 9.198L 122.437 14L 121.177 14L 121.177 9.254C 121.177 8.64733 120.981 8.344 120.589 8.344C 120.403 8.344 120.244 8.414 120.113 8.554C 119.983 8.694 119.852 8.90867 119.721 9.198L 119.721 14L 118.195 14L 118.195 7.126ZM 133.478 14.868L 133.478 16.128L 126.758 16.128L 126.758 14.868L 133.478 14.868ZM 135.461 4.116L 137.084 4.116L 137.084 6.664L 137.029 7.868C 137.327 7.588 137.663 7.36867 138.037 7.21C 138.41 7.042 138.783 6.958 139.156 6.958C 139.604 6.958 140.001 7.042 140.346 7.21C 140.692 7.36867 140.986 7.602 141.228 7.91C 141.471 8.20867 141.653 8.57267 141.774 9.002C 141.905 9.43133 141.97 9.912 141.97 10.444C 141.97 11.032 141.886 11.5593 141.718 12.026C 141.55 12.4833 141.322 12.8707 141.032 13.188C 140.752 13.5053 140.426 13.748 140.052 13.916C 139.688 14.084 139.31 14.168 138.918 14.168C 138.592 14.168 138.251 14.0887 137.897 13.93C 137.542 13.7713 137.215 13.5427 136.917 13.244L 136.874 13.244L 136.734 14L 135.461 14L 135.461 4.116ZM 137.084 12.208C 137.336 12.4413 137.598 12.6047 137.869 12.698C 138.139 12.7913 138.382 12.838 138.596 12.838C 139.082 12.838 139.488 12.642 139.815 12.25C 140.141 11.8487 140.305 11.256 140.305 10.472C 140.305 9.78133 140.178 9.24467 139.926 8.862C 139.675 8.47933 139.269 8.288 138.709 8.288C 138.447 8.288 138.181 8.35333 137.91 8.484C 137.64 8.61467 137.364 8.82467 137.084 9.114L 137.084 12.208ZM 143.449 10.57C 143.449 10.0007 143.542 9.492 143.729 9.044C 143.925 8.596 144.182 8.218 144.499 7.91C 144.816 7.602 145.185 7.36867 145.605 7.21C 146.025 7.042 146.459 6.958 146.907 6.958C 147.355 6.958 147.789 7.042 148.209 7.21C 148.629 7.36867 148.998 7.602 149.315 7.91C 149.632 8.218 149.884 8.596 150.071 9.044C 150.267 9.492 150.365 10.0007 150.365 10.57C 150.365 11.1393 150.267 11.648 150.071 12.096C 149.884 12.544 149.632 12.922 149.315 13.23C 148.998 13.538 148.629 13.7713 148.209 13.93C 147.789 14.0887 147.355 14.168 146.907 14.168C 146.459 14.168 146.025 14.0887 145.605 13.93C 145.185 13.7713 144.816 13.538 144.499 13.23C 144.182 12.922 143.925 12.544 143.729 12.096C 143.542 11.648 143.449 11.1393 143.449 10.57ZM 145.115 10.57C 145.115 11.2607 145.274 11.816 145.591 12.236C 145.908 12.6467 146.347 12.852 146.907 12.852C 147.467 12.852 147.906 12.6467 148.223 12.236C 148.54 11.816 148.699 11.2607 148.699 10.57C 148.699 9.87 148.54 9.31467 148.223 8.904C 147.906 8.484 147.467 8.274 146.907 8.274C 146.347 8.274 145.908 8.484 145.591 8.904C 145.274 9.31467 145.115 9.87 145.115 10.57ZM 151.844 10.57C 151.844 10.0007 151.937 9.492 152.124 9.044C 152.32 8.596 152.576 8.218 152.894 7.91C 153.211 7.602 153.58 7.36867 154 7.21C 154.42 7.042 154.854 6.958 155.302 6.958C 155.75 6.958 156.184 7.042 156.604 7.21C 157.024 7.36867 157.392 7.602 157.71 7.91C 158.027 8.218 158.279 8.596 158.466 9.044C 158.662 9.492 158.76 10.0007 158.76 10.57C 158.76 11.1393 158.662 11.648 158.466 12.096C 158.279 12.544 158.027 12.922 157.71 13.23C 157.392 13.538 157.024 13.7713 156.604 13.93C 156.184 14.0887 155.75 14.168 155.302 14.168C 154.854 14.168 154.42 14.0887 154 13.93C 153.58 13.7713 153.211 13.538 152.894 13.23C 152.576 12.922 152.32 12.544 152.124 12.096C 151.937 11.648 151.844 11.1393 151.844 10.57ZM 153.51 10.57C 153.51 11.2607 153.668 11.816 153.986 12.236C 154.303 12.6467 154.742 12.852 155.302 12.852C 155.862 12.852 156.3 12.6467 156.618 12.236C 156.935 11.816 157.094 11.2607 157.094 10.57C 157.094 9.87 156.935 9.31467 156.618 8.904C 156.3 8.484 155.862 8.274 155.302 8.274C 154.742 8.274 154.303 8.484 153.986 8.904C 153.668 9.31467 153.51 9.87 153.51 10.57ZM 160.49 4.116L 164.27 4.116L 164.27 11.578C 164.27 12.0447 164.387 12.376 164.62 12.572C 164.853 12.7587 165.147 12.852 165.502 12.852C 165.838 12.852 166.23 12.7633 166.678 12.586L 167.056 13.776C 166.729 13.888 166.421 13.9813 166.132 14.056C 165.852 14.1307 165.511 14.168 165.11 14.168C 164.298 14.168 163.687 13.9347 163.276 13.468C 162.865 13.0013 162.66 12.3433 162.66 11.494L 162.66 5.39L 160.49 5.39L 160.49 4.116ZM 172.063 15.246L 172.063 4.97L 169.319 4.97L 169.319 4.088L 173.323 4.088L 173.323 16.128L 169.319 16.128L 169.319 15.246L 172.063 15.246Z"/>
</defs>
</svg>
