<svg width="676" height="322" viewBox="0 0 676 322" fill="none" xmlns="http://www.w3.org/2000/svg">
<path d="M131.483 42.835H128.987C130.159 43.7021 130.745 44.9355 130.745 46.5352V46.6846C130.745 47.5049 130.566 48.2607 130.209 48.9521C129.852 49.6377 129.348 50.1797 128.697 50.5781C128.053 50.9766 127.32 51.1758 126.5 51.1758C125.223 51.1758 124.194 50.7334 123.415 49.8486C122.636 48.958 122.246 47.7656 122.246 46.2715V46.1572C122.246 45.2666 122.419 44.4668 122.765 43.7578C123.11 43.0488 123.6 42.4951 124.232 42.0967C124.871 41.6982 125.601 41.4961 126.421 41.4902H131.483V42.835ZM123.881 46.3506C123.881 47.4229 124.115 48.2754 124.584 48.9082C125.053 49.5352 125.691 49.8486 126.5 49.8486C127.314 49.8486 127.953 49.5322 128.416 48.8994C128.885 48.2607 129.119 47.3467 129.119 46.1572C129.119 45.1494 128.882 44.3438 128.407 43.7402C127.938 43.1367 127.297 42.835 126.482 42.835C125.68 42.835 125.044 43.1338 124.575 43.7314C124.112 44.3291 123.881 45.2021 123.881 46.3506Z" fill="black"/>
<path d="M340.483 232.835H337.987C339.159 233.702 339.745 234.936 339.745 236.535V236.685C339.745 237.505 339.566 238.261 339.209 238.952C338.852 239.638 338.348 240.18 337.697 240.578C337.053 240.977 336.32 241.176 335.5 241.176C334.223 241.176 333.194 240.733 332.415 239.849C331.636 238.958 331.246 237.766 331.246 236.271V236.157C331.246 235.267 331.419 234.467 331.765 233.758C332.11 233.049 332.6 232.495 333.232 232.097C333.871 231.698 334.601 231.496 335.421 231.49H340.483V232.835ZM332.881 236.351C332.881 237.423 333.115 238.275 333.584 238.908C334.053 239.535 334.691 239.849 335.5 239.849C336.314 239.849 336.953 239.532 337.416 238.899C337.885 238.261 338.119 237.347 338.119 236.157C338.119 235.149 337.882 234.344 337.407 233.74C336.938 233.137 336.297 232.835 335.482 232.835C334.68 232.835 334.044 233.134 333.575 233.731C333.112 234.329 332.881 235.202 332.881 236.351Z" fill="black"/>
<line x1="154.5" y1="1" x2="154.5" y2="98" stroke="black"/>
<line x1="249.9" x2="249.9" y2="97" stroke="black"/>
<line x1="154" y1="0.5" x2="161" y2="0.5" stroke="black"/>
<line x1="243" y1="0.5" x2="250" y2="0.5" stroke="black"/>
<line x1="154" y1="97.5" x2="161" y2="97.5" stroke="black"/>
<line x1="256.5" y1="24" x2="256.5" y2="65" stroke="black"/>
<line x1="256" y1="23.5" x2="261" y2="23.5" stroke="black"/>
<line x1="256" y1="64.5" x2="261" y2="64.5" stroke="black"/>
<line x1="446.5" y1="222" x2="446.5" y2="263" stroke="black"/>
<line x1="446" y1="221.5" x2="451" y2="221.5" stroke="black"/>
<line x1="446" y1="262.5" x2="451" y2="262.5" stroke="black"/>
<line x1="312.5" y1="63" x2="312.5" y2="22" stroke="black"/>
<line x1="313" y1="63.5" x2="308" y2="63.5" stroke="black"/>
<line x1="313" y1="22.5" x2="308" y2="22.5" stroke="black"/>
<line x1="509.5" y1="263" x2="509.5" y2="222" stroke="black"/>
<line x1="510" y1="263.5" x2="505" y2="263.5" stroke="black"/>
<line x1="510" y1="222.5" x2="505" y2="222.5" stroke="black"/>
<line x1="243" y1="96.5" x2="250" y2="96.5" stroke="black"/>
<path d="M212.018 115.107L215.085 110.203H217.071L213.028 116.549L217.168 123H215.164L212.018 118.008L208.854 123H206.858L211.007 116.549L206.955 110.203H208.933L212.018 115.107Z" fill="black"/>
<path d="M285.206 122C285.112 121.812 285.036 121.479 284.978 120.998C284.222 121.783 283.319 122.176 282.271 122.176C281.333 122.176 280.562 121.912 279.959 121.385C279.361 120.852 279.062 120.178 279.062 119.363C279.062 118.373 279.438 117.605 280.188 117.061C280.943 116.51 282.004 116.234 283.369 116.234H284.951V115.487C284.951 114.919 284.781 114.468 284.441 114.134C284.102 113.794 283.601 113.624 282.938 113.624C282.358 113.624 281.872 113.771 281.479 114.063C281.087 114.356 280.891 114.711 280.891 115.127H279.256C279.256 114.652 279.423 114.195 279.757 113.756C280.097 113.311 280.554 112.959 281.128 112.701C281.708 112.443 282.344 112.314 283.035 112.314C284.131 112.314 284.989 112.59 285.61 113.141C286.231 113.686 286.554 114.438 286.577 115.399V119.776C286.577 120.649 286.688 121.344 286.911 121.859V122H285.206ZM282.508 120.761C283.018 120.761 283.501 120.629 283.958 120.365C284.415 120.102 284.746 119.759 284.951 119.337V117.386H283.677C281.685 117.386 280.688 117.969 280.688 119.135C280.688 119.645 280.858 120.043 281.198 120.33C281.538 120.617 281.975 120.761 282.508 120.761Z" fill="black"/>
<path d="M292.402 128H291.312V120.775L289.127 121.578V120.594L292.232 119.428H292.402V128Z" fill="black"/>
<path d="M295.305 104.395H292.562V112H291.443V104.395H288.707V103.469H295.305V104.395Z" fill="black"/>
<path d="M481.206 312C481.112 311.812 481.036 311.479 480.978 310.998C480.222 311.783 479.319 312.176 478.271 312.176C477.333 312.176 476.562 311.912 475.959 311.385C475.361 310.852 475.062 310.178 475.062 309.363C475.062 308.373 475.438 307.605 476.188 307.061C476.943 306.51 478.004 306.234 479.369 306.234H480.951V305.487C480.951 304.919 480.781 304.468 480.441 304.134C480.102 303.794 479.601 303.624 478.938 303.624C478.358 303.624 477.872 303.771 477.479 304.063C477.087 304.356 476.891 304.711 476.891 305.127H475.256C475.256 304.652 475.423 304.195 475.757 303.756C476.097 303.311 476.554 302.959 477.128 302.701C477.708 302.443 478.344 302.314 479.035 302.314C480.131 302.314 480.989 302.59 481.61 303.141C482.231 303.686 482.554 304.438 482.577 305.399V309.776C482.577 310.649 482.688 311.344 482.911 311.859V312H481.206ZM478.508 310.761C479.018 310.761 479.501 310.629 479.958 310.365C480.415 310.102 480.746 309.759 480.951 309.337V307.386H479.677C477.685 307.386 476.688 307.969 476.688 309.135C476.688 309.645 476.858 310.043 477.198 310.33C477.538 310.617 477.975 310.761 478.508 310.761Z" fill="black"/>
<path d="M490.43 318H484.84V317.221L487.793 313.939C488.23 313.443 488.531 313.041 488.695 312.732C488.863 312.42 488.947 312.098 488.947 311.766C488.947 311.32 488.812 310.955 488.543 310.67C488.273 310.385 487.914 310.242 487.465 310.242C486.926 310.242 486.506 310.396 486.205 310.705C485.908 311.01 485.76 311.436 485.76 311.982H484.676C484.676 311.197 484.928 310.562 485.432 310.078C485.939 309.594 486.617 309.352 487.465 309.352C488.258 309.352 488.885 309.561 489.346 309.979C489.807 310.393 490.037 310.945 490.037 311.637C490.037 312.477 489.502 313.477 488.432 314.637L486.146 317.115H490.43V318Z" fill="black"/>
<path d="M491.305 294.395H488.562V302H487.443V294.395H484.707V293.469H491.305V294.395Z" fill="black"/>
<path d="M626.339 308.62H632.403V310H624.643V297.203H626.339V308.62Z" fill="black"/>
<path d="M179.763 51H178.128V40.1631L174.85 41.3672V39.8906L179.508 38.1416H179.763V51ZM192.551 45.542C192.551 47.4463 192.226 48.8613 191.575 49.7871C190.925 50.7129 189.908 51.1758 188.525 51.1758C187.16 51.1758 186.149 50.7246 185.493 49.8223C184.837 48.9141 184.497 47.5605 184.474 45.7617V43.5908C184.474 41.71 184.799 40.3125 185.449 39.3984C186.1 38.4844 187.119 38.0273 188.508 38.0273C189.885 38.0273 190.898 38.4697 191.549 39.3545C192.199 40.2334 192.533 41.5928 192.551 43.4326V45.542ZM190.925 43.3184C190.925 41.9414 190.731 40.9395 190.345 40.3125C189.958 39.6797 189.346 39.3633 188.508 39.3633C187.676 39.3633 187.069 39.6768 186.688 40.3037C186.308 40.9307 186.111 41.8945 186.1 43.1953V45.7969C186.1 47.1797 186.299 48.2021 186.697 48.8643C187.102 49.5205 187.711 49.8486 188.525 49.8486C189.328 49.8486 189.923 49.5381 190.31 48.917C190.702 48.2959 190.907 47.3174 190.925 45.9814V43.3184ZM202.658 45.542C202.658 47.4463 202.333 48.8613 201.683 49.7871C201.032 50.7129 200.016 51.1758 198.633 51.1758C197.268 51.1758 196.257 50.7246 195.601 49.8223C194.944 48.9141 194.604 47.5605 194.581 45.7617V43.5908C194.581 41.71 194.906 40.3125 195.557 39.3984C196.207 38.4844 197.227 38.0273 198.615 38.0273C199.992 38.0273 201.006 38.4697 201.656 39.3545C202.307 40.2334 202.641 41.5928 202.658 43.4326V45.542ZM201.032 43.3184C201.032 41.9414 200.839 40.9395 200.452 40.3125C200.065 39.6797 199.453 39.3633 198.615 39.3633C197.783 39.3633 197.177 39.6768 196.796 40.3037C196.415 40.9307 196.219 41.8945 196.207 43.1953V45.7969C196.207 47.1797 196.406 48.2021 196.805 48.8643C197.209 49.5205 197.818 49.8486 198.633 49.8486C199.436 49.8486 200.03 49.5381 200.417 48.917C200.81 48.2959 201.015 47.3174 201.032 45.9814V43.3184ZM212.563 44.9619L214.673 41.4902H216.571L213.46 46.1924L216.668 51H214.787L212.59 47.4404L210.393 51H208.503L211.711 46.1924L208.6 41.4902H210.48L212.563 44.9619Z" fill="black"/>
<path d="M224.965 43.8105H226.187C226.954 43.7988 227.558 43.5967 227.997 43.2041C228.437 42.8115 228.656 42.2812 228.656 41.6133C228.656 40.1133 227.909 39.3633 226.415 39.3633C225.712 39.3633 225.149 39.5654 224.728 39.9697C224.312 40.3682 224.104 40.8984 224.104 41.5605H222.478C222.478 40.5469 222.847 39.7061 223.585 39.0381C224.329 38.3643 225.272 38.0273 226.415 38.0273C227.622 38.0273 228.568 38.3467 229.254 38.9854C229.939 39.624 230.282 40.5117 230.282 41.6484C230.282 42.2051 230.101 42.7441 229.737 43.2656C229.38 43.7871 228.891 44.1768 228.27 44.4346C228.973 44.6572 229.515 45.0264 229.896 45.542C230.282 46.0576 230.476 46.6875 230.476 47.4316C230.476 48.5801 230.101 49.4912 229.351 50.165C228.601 50.8389 227.625 51.1758 226.424 51.1758C225.223 51.1758 224.244 50.8506 223.488 50.2002C222.738 49.5498 222.363 48.6914 222.363 47.625H223.998C223.998 48.2988 224.218 48.8379 224.657 49.2422C225.097 49.6465 225.686 49.8486 226.424 49.8486C227.209 49.8486 227.81 49.6436 228.226 49.2334C228.642 48.8232 228.85 48.2344 228.85 47.4668C228.85 46.7227 228.621 46.1514 228.164 45.7529C227.707 45.3545 227.048 45.1494 226.187 45.1377H224.965V43.8105Z" fill="#EB5757"/>
<line x1="576.5" y1="194" x2="576.5" y2="291" stroke="black"/>
<line x1="674.9" y1="193" x2="674.9" y2="290" stroke="black"/>
<line x1="576" y1="193.5" x2="583" y2="193.5" stroke="black"/>
<line x1="668" y1="193.5" x2="675" y2="193.5" stroke="black"/>
<line x1="576" y1="290.5" x2="583" y2="290.5" stroke="black"/>
<line x1="668" y1="289.5" x2="675" y2="289.5" stroke="black"/>
<path d="M605.763 244H604.128V233.163L600.85 234.367V232.891L605.508 231.142H605.763V244ZM618.551 238.542C618.551 240.446 618.226 241.861 617.575 242.787C616.925 243.713 615.908 244.176 614.525 244.176C613.16 244.176 612.149 243.725 611.493 242.822C610.837 241.914 610.497 240.561 610.474 238.762V236.591C610.474 234.71 610.799 233.312 611.449 232.398C612.1 231.484 613.119 231.027 614.508 231.027C615.885 231.027 616.898 231.47 617.549 232.354C618.199 233.233 618.533 234.593 618.551 236.433V238.542ZM616.925 236.318C616.925 234.941 616.731 233.939 616.345 233.312C615.958 232.68 615.346 232.363 614.508 232.363C613.676 232.363 613.069 232.677 612.688 233.304C612.308 233.931 612.111 234.895 612.1 236.195V238.797C612.1 240.18 612.299 241.202 612.697 241.864C613.102 242.521 613.711 242.849 614.525 242.849C615.328 242.849 615.923 242.538 616.31 241.917C616.702 241.296 616.907 240.317 616.925 238.981V236.318ZM628.658 238.542C628.658 240.446 628.333 241.861 627.683 242.787C627.032 243.713 626.016 244.176 624.633 244.176C623.268 244.176 622.257 243.725 621.601 242.822C620.944 241.914 620.604 240.561 620.581 238.762V236.591C620.581 234.71 620.906 233.312 621.557 232.398C622.207 231.484 623.227 231.027 624.615 231.027C625.992 231.027 627.006 231.47 627.656 232.354C628.307 233.233 628.641 234.593 628.658 236.433V238.542ZM627.032 236.318C627.032 234.941 626.839 233.939 626.452 233.312C626.065 232.68 625.453 232.363 624.615 232.363C623.783 232.363 623.177 232.677 622.796 233.304C622.415 233.931 622.219 234.895 622.207 236.195V238.797C622.207 240.18 622.406 241.202 622.805 241.864C623.209 242.521 623.818 242.849 624.633 242.849C625.436 242.849 626.03 242.538 626.417 241.917C626.81 241.296 627.015 240.317 627.032 238.981V236.318ZM638.563 237.962L640.673 234.49H642.571L639.46 239.192L642.668 244H640.787L638.59 240.44L636.393 244H634.503L637.711 239.192L634.6 234.49H636.48L638.563 237.962ZM653.944 244H652.31V233.163L649.031 234.367V232.891L653.689 231.142H653.944V244Z" fill="black"/>
<path d="M268.891 43.8105H270.112C270.88 43.7988 271.483 43.5967 271.923 43.2041C272.362 42.8115 272.582 42.2812 272.582 41.6133C272.582 40.1133 271.835 39.3633 270.341 39.3633C269.638 39.3633 269.075 39.5654 268.653 39.9697C268.237 40.3682 268.029 40.8984 268.029 41.5605H266.403C266.403 40.5469 266.772 39.7061 267.511 39.0381C268.255 38.3643 269.198 38.0273 270.341 38.0273C271.548 38.0273 272.494 38.3467 273.18 38.9854C273.865 39.624 274.208 40.5117 274.208 41.6484C274.208 42.2051 274.026 42.7441 273.663 43.2656C273.306 43.7871 272.816 44.1768 272.195 44.4346C272.898 44.6572 273.44 45.0264 273.821 45.542C274.208 46.0576 274.401 46.6875 274.401 47.4316C274.401 48.5801 274.026 49.4912 273.276 50.165C272.526 50.8389 271.551 51.1758 270.35 51.1758C269.148 51.1758 268.17 50.8506 267.414 50.2002C266.664 49.5498 266.289 48.6914 266.289 47.625H267.924C267.924 48.2988 268.144 48.8379 268.583 49.2422C269.022 49.6465 269.611 49.8486 270.35 49.8486C271.135 49.8486 271.735 49.6436 272.151 49.2334C272.567 48.8232 272.775 48.2344 272.775 47.4668C272.775 46.7227 272.547 46.1514 272.09 45.7529C271.633 45.3545 270.974 45.1494 270.112 45.1377H268.891V43.8105Z" fill="#EB5757"/>
<path d="M284.456 44.9619L286.565 41.4902H288.464L285.353 46.1924L288.561 51H286.68L284.482 47.4404L282.285 51H280.396L283.604 46.1924L280.492 41.4902H282.373L284.456 44.9619ZM300.874 38.1943V39.5742H300.575C299.31 39.5977 298.302 39.9727 297.552 40.6992C296.802 41.4258 296.368 42.4482 296.251 43.7666C296.925 42.9932 297.845 42.6064 299.011 42.6064C300.124 42.6064 301.012 42.999 301.674 43.7842C302.342 44.5693 302.676 45.583 302.676 46.8252C302.676 48.1436 302.315 49.1982 301.595 49.9893C300.88 50.7803 299.919 51.1758 298.712 51.1758C297.487 51.1758 296.494 50.707 295.732 49.7695C294.971 48.8262 294.59 47.6133 294.59 46.1309V45.5068C294.59 43.1514 295.091 41.3525 296.093 40.1104C297.101 38.8623 298.598 38.2236 300.584 38.1943H300.874ZM298.738 43.96C298.182 43.96 297.669 44.127 297.2 44.4609C296.731 44.7949 296.406 45.2139 296.225 45.7178V46.3154C296.225 47.3701 296.462 48.2197 296.937 48.8643C297.411 49.5088 298.003 49.8311 298.712 49.8311C299.444 49.8311 300.019 49.5615 300.435 49.0225C300.856 48.4834 301.067 47.7773 301.067 46.9043C301.067 46.0254 300.854 45.3164 300.426 44.7773C300.004 44.2324 299.441 43.96 298.738 43.96Z" fill="black"/>
<path d="M548.727 236.846H541.396V235.431H548.727V236.846ZM548.727 240.493H541.396V239.087H548.727V240.493Z" fill="black"/>
<path d="M344.727 42.8457H337.396V41.4307H344.727V42.8457ZM344.727 46.4932H337.396V45.0869H344.727V46.4932Z" fill="black"/>
<path d="M393.339 120.62H399.403V122H391.643V109.203H393.339V120.62Z" fill="black"/>
<line x1="353.5" y1="1" x2="353.5" y2="98" stroke="black"/>
<line x1="430.9" x2="430.9" y2="97" stroke="black"/>
<line x1="353" y1="0.5" x2="360" y2="0.5" stroke="black"/>
<line x1="424" y1="0.5" x2="431" y2="0.5" stroke="black"/>
<line x1="353" y1="97.5" x2="360" y2="97.5" stroke="black"/>
<line x1="424" y1="96.5" x2="431" y2="96.5" stroke="black"/>
<path d="M370.763 51H369.128V40.1631L365.85 41.3672V39.8906L370.508 38.1416H370.763V51ZM383.551 45.542C383.551 47.4463 383.226 48.8613 382.575 49.7871C381.925 50.7129 380.908 51.1758 379.525 51.1758C378.16 51.1758 377.149 50.7246 376.493 49.8223C375.837 48.9141 375.497 47.5605 375.474 45.7617V43.5908C375.474 41.71 375.799 40.3125 376.449 39.3984C377.1 38.4844 378.119 38.0273 379.508 38.0273C380.885 38.0273 381.898 38.4697 382.549 39.3545C383.199 40.2334 383.533 41.5928 383.551 43.4326V45.542ZM381.925 43.3184C381.925 41.9414 381.731 40.9395 381.345 40.3125C380.958 39.6797 380.346 39.3633 379.508 39.3633C378.676 39.3633 378.069 39.6768 377.688 40.3037C377.308 40.9307 377.111 41.8945 377.1 43.1953V45.7969C377.1 47.1797 377.299 48.2021 377.697 48.8643C378.102 49.5205 378.711 49.8486 379.525 49.8486C380.328 49.8486 380.923 49.5381 381.31 48.917C381.702 48.2959 381.907 47.3174 381.925 45.9814V43.3184ZM393.658 45.542C393.658 47.4463 393.333 48.8613 392.683 49.7871C392.032 50.7129 391.016 51.1758 389.633 51.1758C388.268 51.1758 387.257 50.7246 386.601 49.8223C385.944 48.9141 385.604 47.5605 385.581 45.7617V43.5908C385.581 41.71 385.906 40.3125 386.557 39.3984C387.207 38.4844 388.227 38.0273 389.615 38.0273C390.992 38.0273 392.006 38.4697 392.656 39.3545C393.307 40.2334 393.641 41.5928 393.658 43.4326V45.542ZM392.032 43.3184C392.032 41.9414 391.839 40.9395 391.452 40.3125C391.065 39.6797 390.453 39.3633 389.615 39.3633C388.783 39.3633 388.177 39.6768 387.796 40.3037C387.415 40.9307 387.219 41.8945 387.207 43.1953V45.7969C387.207 47.1797 387.406 48.2021 387.805 48.8643C388.209 49.5205 388.818 49.8486 389.633 49.8486C390.436 49.8486 391.03 49.5381 391.417 48.917C391.81 48.2959 392.015 47.3174 392.032 45.9814V43.3184ZM403.563 44.9619L405.673 41.4902H407.571L404.46 46.1924L407.668 51H405.787L403.59 47.4404L401.393 51H399.503L402.711 46.1924L399.6 41.4902H401.48L403.563 44.9619ZM419.981 38.1943V39.5742H419.683C418.417 39.5977 417.409 39.9727 416.659 40.6992C415.909 41.4258 415.476 42.4482 415.358 43.7666C416.032 42.9932 416.952 42.6064 418.118 42.6064C419.231 42.6064 420.119 42.999 420.781 43.7842C421.449 44.5693 421.783 45.583 421.783 46.8252C421.783 48.1436 421.423 49.1982 420.702 49.9893C419.987 50.7803 419.026 51.1758 417.819 51.1758C416.595 51.1758 415.602 50.707 414.84 49.7695C414.078 48.8262 413.697 47.6133 413.697 46.1309V45.5068C413.697 43.1514 414.198 41.3525 415.2 40.1104C416.208 38.8623 417.705 38.2236 419.691 38.1943H419.981ZM417.846 43.96C417.289 43.96 416.776 44.127 416.308 44.4609C415.839 44.7949 415.514 45.2139 415.332 45.7178V46.3154C415.332 47.3701 415.569 48.2197 416.044 48.8643C416.519 49.5088 417.11 49.8311 417.819 49.8311C418.552 49.8311 419.126 49.5615 419.542 49.0225C419.964 48.4834 420.175 47.7773 420.175 46.9043C420.175 46.0254 419.961 45.3164 419.533 44.7773C419.111 44.2324 418.549 43.96 417.846 43.96Z" fill="black"/>
<line x1="356.5" y1="194" x2="356.5" y2="291" stroke="black"/>
<line x1="433.9" y1="193" x2="433.9" y2="290" stroke="black"/>
<line x1="356" y1="193.5" x2="363" y2="193.5" stroke="black"/>
<line x1="427" y1="193.5" x2="434" y2="193.5" stroke="black"/>
<line x1="356" y1="290.5" x2="363" y2="290.5" stroke="black"/>
<line x1="427" y1="289.5" x2="434" y2="289.5" stroke="black"/>
<path d="M373.763 244H372.128V233.163L368.85 234.367V232.891L373.508 231.142H373.763V244ZM386.551 238.542C386.551 240.446 386.226 241.861 385.575 242.787C384.925 243.713 383.908 244.176 382.525 244.176C381.16 244.176 380.149 243.725 379.493 242.822C378.837 241.914 378.497 240.561 378.474 238.762V236.591C378.474 234.71 378.799 233.312 379.449 232.398C380.1 231.484 381.119 231.027 382.508 231.027C383.885 231.027 384.898 231.47 385.549 232.354C386.199 233.233 386.533 234.593 386.551 236.433V238.542ZM384.925 236.318C384.925 234.941 384.731 233.939 384.345 233.312C383.958 232.68 383.346 232.363 382.508 232.363C381.676 232.363 381.069 232.677 380.688 233.304C380.308 233.931 380.111 234.895 380.1 236.195V238.797C380.1 240.18 380.299 241.202 380.697 241.864C381.102 242.521 381.711 242.849 382.525 242.849C383.328 242.849 383.923 242.538 384.31 241.917C384.702 241.296 384.907 240.317 384.925 238.981V236.318ZM396.658 238.542C396.658 240.446 396.333 241.861 395.683 242.787C395.032 243.713 394.016 244.176 392.633 244.176C391.268 244.176 390.257 243.725 389.601 242.822C388.944 241.914 388.604 240.561 388.581 238.762V236.591C388.581 234.71 388.906 233.312 389.557 232.398C390.207 231.484 391.227 231.027 392.615 231.027C393.992 231.027 395.006 231.47 395.656 232.354C396.307 233.233 396.641 234.593 396.658 236.433V238.542ZM395.032 236.318C395.032 234.941 394.839 233.939 394.452 233.312C394.065 232.68 393.453 232.363 392.615 232.363C391.783 232.363 391.177 232.677 390.796 233.304C390.415 233.931 390.219 234.895 390.207 236.195V238.797C390.207 240.18 390.406 241.202 390.805 241.864C391.209 242.521 391.818 242.849 392.633 242.849C393.436 242.849 394.03 242.538 394.417 241.917C394.81 241.296 395.015 240.317 395.032 238.981V236.318ZM406.563 237.962L408.673 234.49H410.571L407.46 239.192L410.668 244H408.787L406.59 240.44L404.393 244H402.503L405.711 239.192L402.6 234.49H404.48L406.563 237.962Z" fill="black"/>
<path d="M422.981 231.194V232.574H422.683C421.417 232.598 420.409 232.973 419.659 233.699C418.909 234.426 418.476 235.448 418.358 236.767C419.032 235.993 419.952 235.606 421.118 235.606C422.231 235.606 423.119 235.999 423.781 236.784C424.449 237.569 424.783 238.583 424.783 239.825C424.783 241.144 424.423 242.198 423.702 242.989C422.987 243.78 422.026 244.176 420.819 244.176C419.595 244.176 418.602 243.707 417.84 242.77C417.078 241.826 416.697 240.613 416.697 239.131V238.507C416.697 236.151 417.198 234.353 418.2 233.11C419.208 231.862 420.705 231.224 422.691 231.194H422.981ZM420.846 236.96C420.289 236.96 419.776 237.127 419.308 237.461C418.839 237.795 418.514 238.214 418.332 238.718V239.315C418.332 240.37 418.569 241.22 419.044 241.864C419.519 242.509 420.11 242.831 420.819 242.831C421.552 242.831 422.126 242.562 422.542 242.022C422.964 241.483 423.175 240.777 423.175 239.904C423.175 239.025 422.961 238.316 422.533 237.777C422.111 237.232 421.549 236.96 420.846 236.96Z" fill="#EB5757"/>
<path d="M405.402 127H404.312V119.775L402.127 120.578V119.594L405.232 118.428H405.402V127Z" fill="black"/>
<path d="M641.43 314H635.84V313.221L638.793 309.939C639.23 309.443 639.531 309.041 639.695 308.732C639.863 308.42 639.947 308.098 639.947 307.766C639.947 307.32 639.812 306.955 639.543 306.67C639.273 306.385 638.914 306.242 638.465 306.242C637.926 306.242 637.506 306.396 637.205 306.705C636.908 307.01 636.76 307.436 636.76 307.982H635.676C635.676 307.197 635.928 306.562 636.432 306.078C636.939 305.594 637.617 305.352 638.465 305.352C639.258 305.352 639.885 305.561 640.346 305.979C640.807 306.393 641.037 306.945 641.037 307.637C641.037 308.477 640.502 309.477 639.432 310.637L637.146 313.115H641.43V314Z" fill="black"/>
<path d="M396.339 310.62H402.403V312H394.643V299.203H396.339V310.62Z" fill="black"/>
<path d="M408.402 317H407.312V309.775L405.127 310.578V309.594L408.232 308.428H408.402V317Z" fill="black"/>
<path d="M467.907 233.194V234.574H467.608C466.343 234.598 465.335 234.973 464.585 235.699C463.835 236.426 463.401 237.448 463.284 238.767C463.958 237.993 464.878 237.606 466.044 237.606C467.157 237.606 468.045 237.999 468.707 238.784C469.375 239.569 469.709 240.583 469.709 241.825C469.709 243.144 469.349 244.198 468.628 244.989C467.913 245.78 466.952 246.176 465.745 246.176C464.521 246.176 463.527 245.707 462.766 244.77C462.004 243.826 461.623 242.613 461.623 241.131V240.507C461.623 238.151 462.124 236.353 463.126 235.11C464.134 233.862 465.631 233.224 467.617 233.194H467.907ZM465.771 238.96C465.215 238.96 464.702 239.127 464.233 239.461C463.765 239.795 463.439 240.214 463.258 240.718V241.315C463.258 242.37 463.495 243.22 463.97 243.864C464.444 244.509 465.036 244.831 465.745 244.831C466.478 244.831 467.052 244.562 467.468 244.022C467.89 243.483 468.101 242.777 468.101 241.904C468.101 241.025 467.887 240.316 467.459 239.777C467.037 239.232 466.475 238.96 465.771 238.96Z" fill="#EB5757"/>
<path d="M479.456 239.962L481.565 236.49H483.464L480.353 241.192L483.561 246H481.68L479.482 242.44L477.285 246H475.396L478.604 241.192L475.492 236.49H477.373L479.456 239.962ZM494.837 246H493.202V235.163L489.924 236.367V234.891L494.582 233.142H494.837V246Z" fill="#333333"/>
<path d="M139.965 48.0742C139.965 46.3086 140.199 44.6133 140.668 42.9883C141.145 41.3633 141.852 39.8867 142.789 38.5586C143.727 37.2305 144.699 36.293 145.707 35.7461L146.152 37.1758C145.012 38.0508 144.074 39.3867 143.34 41.1836C142.613 42.9805 142.215 44.9922 142.145 47.2188L142.133 48.2148C142.133 51.2305 142.684 53.8477 143.785 56.0664C144.449 57.3945 145.238 58.4336 146.152 59.1836L145.707 60.5078C144.668 59.9297 143.676 58.9609 142.73 57.6016C140.887 54.9453 139.965 51.7695 139.965 48.0742ZM325.895 48.1914C325.895 49.9336 325.664 51.6055 325.203 53.207C324.75 54.8008 324.051 56.2734 323.105 57.625C322.168 58.9766 321.184 59.9375 320.152 60.5078L319.695 59.1836C320.898 58.2617 321.863 56.832 322.59 54.8945C323.324 52.9492 323.699 50.793 323.715 48.4258V48.0508C323.715 46.4102 323.543 44.8867 323.199 43.4805C322.855 42.0664 322.375 40.8008 321.758 39.6836C321.148 38.5664 320.461 37.6953 319.695 37.0703L320.152 35.7461C321.184 36.3164 322.164 37.2695 323.094 38.6055C324.031 39.9414 324.73 41.4141 325.191 43.0234C325.66 44.6328 325.895 46.3555 325.895 48.1914Z" fill="black"/>
<path d="M345.941 237.074C345.941 235.309 346.176 233.613 346.645 231.988C347.121 230.363 347.828 228.887 348.766 227.559C349.703 226.23 350.676 225.293 351.684 224.746L352.129 226.176C350.988 227.051 350.051 228.387 349.316 230.184C348.59 231.98 348.191 233.992 348.121 236.219L348.109 237.215C348.109 240.23 348.66 242.848 349.762 245.066C350.426 246.395 351.215 247.434 352.129 248.184L351.684 249.508C350.645 248.93 349.652 247.961 348.707 246.602C346.863 243.945 345.941 240.77 345.941 237.074ZM525.918 237.191C525.918 238.934 525.687 240.605 525.227 242.207C524.773 243.801 524.074 245.273 523.129 246.625C522.191 247.977 521.207 248.938 520.176 249.508L519.719 248.184C520.922 247.262 521.887 245.832 522.613 243.895C523.348 241.949 523.723 239.793 523.738 237.426V237.051C523.738 235.41 523.566 233.887 523.223 232.48C522.879 231.066 522.398 229.801 521.781 228.684C521.172 227.566 520.484 226.695 519.719 226.07L520.176 224.746C521.207 225.316 522.188 226.27 523.117 227.605C524.055 228.941 524.754 230.414 525.215 232.023C525.684 233.633 525.918 235.355 525.918 237.191Z" fill="black"/>
<path d="M6.64844 51.4248C6.73633 50.7686 6.37598 50.3057 5.56738 50.0361L3.91504 49.5527C2.52051 49.0723 1.84668 48.2754 1.89355 47.1621C1.93457 46.3242 2.31543 45.6387 3.03613 45.1055C3.7627 44.5664 4.61523 44.3027 5.59375 44.3145C6.55469 44.3262 7.33398 44.6074 7.93164 45.1582C8.53516 45.7031 8.8252 46.415 8.80176 47.2939L7.21973 47.2852C7.23145 46.8105 7.08203 46.4238 6.77148 46.125C6.46094 45.8262 6.04785 45.6709 5.53223 45.6592C4.98145 45.6475 4.50684 45.7822 4.1084 46.0635C3.73926 46.3271 3.52539 46.6729 3.4668 47.1006C3.39063 47.6514 3.72754 48.0527 4.47754 48.3047L5.27734 48.5244C6.36719 48.8057 7.14062 49.1719 7.59766 49.623C8.05469 50.0742 8.26562 50.6338 8.23047 51.3018C8.19531 51.8936 8.00195 52.4092 7.65039 52.8486C7.29883 53.2881 6.83008 53.625 6.24414 53.8594C5.6582 54.0879 5.03418 54.1934 4.37207 54.1758C3.36426 54.1641 2.53223 53.8711 1.87598 53.2969C1.21973 52.7168 0.90332 51.9727 0.926758 51.0645L2.51758 51.0732C2.51758 51.6064 2.6875 52.0342 3.02734 52.3564C3.36719 52.6787 3.83301 52.8398 4.4248 52.8398C5.00488 52.8516 5.50586 52.7314 5.92773 52.4795C6.34961 52.2217 6.58984 51.8701 6.64844 51.4248ZM14.0488 42.1875L13.6445 44.4902H15.376L15.1562 45.7471H13.4336L12.4404 51.6621C12.4229 51.8145 12.4199 51.9551 12.4316 52.084C12.4727 52.541 12.7217 52.7695 13.1787 52.7695C13.3721 52.7695 13.6299 52.7402 13.9521 52.6816L13.8291 54.0088C13.4482 54.1143 13.0615 54.167 12.6689 54.167C12.0361 54.1553 11.5615 53.9238 11.2451 53.4727C10.9287 53.0156 10.8057 52.4033 10.876 51.6357L11.8428 45.7471H10.1641L10.3838 44.4902H12.0625L12.4668 42.1875H14.0488ZM21.4668 54C21.4258 53.8301 21.4053 53.6631 21.4053 53.499L21.4316 52.998C20.5586 53.8066 19.6328 54.1992 18.6543 54.1758C17.8164 54.1641 17.1338 53.9004 16.6064 53.3848C16.085 52.8633 15.8477 52.2129 15.8945 51.4336C15.9531 50.4258 16.3926 49.6406 17.2129 49.0781C18.0391 48.5098 19.123 48.2256 20.4648 48.2256L22.126 48.2344L22.2314 47.4785C22.29 46.9102 22.1787 46.4619 21.8975 46.1338C21.6221 45.7998 21.2061 45.627 20.6494 45.6152C20.1045 45.6035 19.6211 45.7383 19.1992 46.0195C18.7832 46.2949 18.5283 46.6611 18.4346 47.1182L16.835 47.127C16.8877 46.5703 17.1045 46.0781 17.4854 45.6504C17.8662 45.2168 18.3555 44.8828 18.9531 44.6484C19.5508 44.4082 20.1689 44.2939 20.8076 44.3057C21.7979 44.3291 22.5684 44.6309 23.1191 45.2109C23.6699 45.7852 23.9014 46.5498 23.8135 47.5049L23.04 52.2158L22.9961 52.8926C22.9844 53.2148 23.0195 53.5342 23.1016 53.8506L23.084 54H21.4668ZM18.9707 52.7695C19.4805 52.7812 19.9609 52.6611 20.4121 52.4092C20.8691 52.1514 21.2617 51.7969 21.5898 51.3457L21.9326 49.3857L20.7285 49.377C19.7266 49.377 18.959 49.5352 18.4258 49.8516C17.8926 50.168 17.5908 50.6162 17.5205 51.1963C17.4678 51.6416 17.5703 52.0137 17.8281 52.3125C18.0918 52.6055 18.4727 52.7578 18.9707 52.7695ZM25.7119 49.2275C25.8525 48.1904 26.1309 47.291 26.5469 46.5293C26.9688 45.7617 27.4785 45.1963 28.0762 44.833C28.6797 44.4639 29.3389 44.2881 30.0537 44.3057C31.1553 44.3291 31.9873 44.7451 32.5498 45.5537L32.8662 44.4902H34.3252L32.7432 53.7979C32.5732 55.0107 32.0811 55.9805 31.2666 56.707C30.4521 57.4395 29.4473 57.7881 28.252 57.7529C27.6074 57.7412 26.9893 57.5889 26.3975 57.2959C25.8115 57.0029 25.3486 56.6016 25.0088 56.0918L25.9141 55.1162C26.4883 55.9658 27.2471 56.4023 28.1904 56.4258C28.9463 56.4492 29.585 56.2383 30.1064 55.793C30.6338 55.3477 30.9824 54.7148 31.1523 53.8945L31.3281 53.0508C30.5547 53.8242 29.6494 54.1992 28.6123 54.1758C28.0205 54.1582 27.5049 54 27.0654 53.7012C26.6318 53.3965 26.2949 52.96 26.0547 52.3916C25.8145 51.8174 25.6826 51.1787 25.6592 50.4756C25.6475 50.1299 25.665 49.7139 25.7119 49.2275ZM27.25 50.1328C27.2324 50.9707 27.376 51.6211 27.6807 52.084C27.9912 52.541 28.457 52.7812 29.0781 52.8047C30.0273 52.8281 30.8447 52.3623 31.5303 51.4072L32.2773 47.0391C31.9258 46.1719 31.29 45.7207 30.3701 45.6855C29.5088 45.6621 28.7998 46.0137 28.2432 46.7402C27.6924 47.4668 27.3672 48.4482 27.2676 49.6846L27.25 50.1328ZM39.2559 54.1758C38.0723 54.1523 37.1465 53.7158 36.4785 52.8662C35.8105 52.0166 35.5293 50.9297 35.6348 49.6055L35.6787 49.2275C35.7783 48.2842 36.0566 47.4229 36.5137 46.6436C36.9766 45.8643 37.5391 45.2783 38.2012 44.8857C38.8633 44.4873 39.5781 44.2969 40.3457 44.3145C41.3242 44.3379 42.0918 44.6631 42.6484 45.29C43.2051 45.917 43.5098 46.7666 43.5625 47.8389C43.5801 48.2197 43.5684 48.6006 43.5273 48.9814L43.4307 49.7109H37.2168C37.1113 50.5723 37.252 51.3047 37.6387 51.9082C38.0312 52.5117 38.6143 52.8252 39.3877 52.8486C40.3252 52.8721 41.1924 52.4502 41.9893 51.583L42.9033 52.3564C42.5049 52.9307 41.9893 53.3818 41.3564 53.71C40.7295 54.0322 40.0293 54.1875 39.2559 54.1758ZM40.2666 45.6416C39.6104 45.624 39.0361 45.8467 38.5439 46.3096C38.0576 46.7725 37.6709 47.4609 37.3838 48.375L42.0068 48.3838L42.042 48.2432C42.1357 47.5049 42.0156 46.8926 41.6816 46.4062C41.3535 45.9141 40.8818 45.6592 40.2666 45.6416ZM53.9248 54H52.3252L54.2061 43.207L50.8047 44.4023L51.0771 42.8555L55.8232 41.1416H56.1045L53.9248 54Z" fill="black"/>
<path d="M230.648 237.425C230.736 236.769 230.376 236.306 229.567 236.036L227.915 235.553C226.521 235.072 225.847 234.275 225.894 233.162C225.935 232.324 226.315 231.639 227.036 231.105C227.763 230.566 228.615 230.303 229.594 230.314C230.555 230.326 231.334 230.607 231.932 231.158C232.535 231.703 232.825 232.415 232.802 233.294L231.22 233.285C231.231 232.811 231.082 232.424 230.771 232.125C230.461 231.826 230.048 231.671 229.532 231.659C228.981 231.647 228.507 231.782 228.108 232.063C227.739 232.327 227.525 232.673 227.467 233.101C227.391 233.651 227.728 234.053 228.478 234.305L229.277 234.524C230.367 234.806 231.141 235.172 231.598 235.623C232.055 236.074 232.266 236.634 232.23 237.302C232.195 237.894 232.002 238.409 231.65 238.849C231.299 239.288 230.83 239.625 230.244 239.859C229.658 240.088 229.034 240.193 228.372 240.176C227.364 240.164 226.532 239.871 225.876 239.297C225.22 238.717 224.903 237.973 224.927 237.064L226.518 237.073C226.518 237.606 226.687 238.034 227.027 238.356C227.367 238.679 227.833 238.84 228.425 238.84C229.005 238.852 229.506 238.731 229.928 238.479C230.35 238.222 230.59 237.87 230.648 237.425ZM238.049 228.188L237.645 230.49H239.376L239.156 231.747H237.434L236.44 237.662C236.423 237.814 236.42 237.955 236.432 238.084C236.473 238.541 236.722 238.77 237.179 238.77C237.372 238.77 237.63 238.74 237.952 238.682L237.829 240.009C237.448 240.114 237.062 240.167 236.669 240.167C236.036 240.155 235.562 239.924 235.245 239.473C234.929 239.016 234.806 238.403 234.876 237.636L235.843 231.747H234.164L234.384 230.49H236.062L236.467 228.188H238.049ZM245.467 240C245.426 239.83 245.405 239.663 245.405 239.499L245.432 238.998C244.559 239.807 243.633 240.199 242.654 240.176C241.816 240.164 241.134 239.9 240.606 239.385C240.085 238.863 239.848 238.213 239.895 237.434C239.953 236.426 240.393 235.641 241.213 235.078C242.039 234.51 243.123 234.226 244.465 234.226L246.126 234.234L246.231 233.479C246.29 232.91 246.179 232.462 245.897 232.134C245.622 231.8 245.206 231.627 244.649 231.615C244.104 231.604 243.621 231.738 243.199 232.02C242.783 232.295 242.528 232.661 242.435 233.118L240.835 233.127C240.888 232.57 241.104 232.078 241.485 231.65C241.866 231.217 242.355 230.883 242.953 230.648C243.551 230.408 244.169 230.294 244.808 230.306C245.798 230.329 246.568 230.631 247.119 231.211C247.67 231.785 247.901 232.55 247.813 233.505L247.04 238.216L246.996 238.893C246.984 239.215 247.02 239.534 247.102 239.851L247.084 240H245.467ZM242.971 238.77C243.48 238.781 243.961 238.661 244.412 238.409C244.869 238.151 245.262 237.797 245.59 237.346L245.933 235.386L244.729 235.377C243.727 235.377 242.959 235.535 242.426 235.852C241.893 236.168 241.591 236.616 241.521 237.196C241.468 237.642 241.57 238.014 241.828 238.312C242.092 238.605 242.473 238.758 242.971 238.77ZM249.712 235.228C249.853 234.19 250.131 233.291 250.547 232.529C250.969 231.762 251.479 231.196 252.076 230.833C252.68 230.464 253.339 230.288 254.054 230.306C255.155 230.329 255.987 230.745 256.55 231.554L256.866 230.49H258.325L256.743 239.798C256.573 241.011 256.081 241.98 255.267 242.707C254.452 243.439 253.447 243.788 252.252 243.753C251.607 243.741 250.989 243.589 250.397 243.296C249.812 243.003 249.349 242.602 249.009 242.092L249.914 241.116C250.488 241.966 251.247 242.402 252.19 242.426C252.946 242.449 253.585 242.238 254.106 241.793C254.634 241.348 254.982 240.715 255.152 239.895L255.328 239.051C254.555 239.824 253.649 240.199 252.612 240.176C252.021 240.158 251.505 240 251.065 239.701C250.632 239.396 250.295 238.96 250.055 238.392C249.814 237.817 249.683 237.179 249.659 236.476C249.647 236.13 249.665 235.714 249.712 235.228ZM251.25 236.133C251.232 236.971 251.376 237.621 251.681 238.084C251.991 238.541 252.457 238.781 253.078 238.805C254.027 238.828 254.845 238.362 255.53 237.407L256.277 233.039C255.926 232.172 255.29 231.721 254.37 231.686C253.509 231.662 252.8 232.014 252.243 232.74C251.692 233.467 251.367 234.448 251.268 235.685L251.25 236.133ZM263.256 240.176C262.072 240.152 261.146 239.716 260.479 238.866C259.811 238.017 259.529 236.93 259.635 235.605L259.679 235.228C259.778 234.284 260.057 233.423 260.514 232.644C260.977 231.864 261.539 231.278 262.201 230.886C262.863 230.487 263.578 230.297 264.346 230.314C265.324 230.338 266.092 230.663 266.648 231.29C267.205 231.917 267.51 232.767 267.562 233.839C267.58 234.22 267.568 234.601 267.527 234.981L267.431 235.711H261.217C261.111 236.572 261.252 237.305 261.639 237.908C262.031 238.512 262.614 238.825 263.388 238.849C264.325 238.872 265.192 238.45 265.989 237.583L266.903 238.356C266.505 238.931 265.989 239.382 265.356 239.71C264.729 240.032 264.029 240.188 263.256 240.176ZM264.267 231.642C263.61 231.624 263.036 231.847 262.544 232.31C262.058 232.772 261.671 233.461 261.384 234.375L266.007 234.384L266.042 234.243C266.136 233.505 266.016 232.893 265.682 232.406C265.354 231.914 264.882 231.659 264.267 231.642ZM280.966 240H272.818L273.012 238.761L277.731 234.173L278.593 233.32C279.583 232.33 280.131 231.416 280.236 230.578C280.313 229.934 280.187 229.409 279.858 229.005C279.53 228.595 279.067 228.378 278.47 228.354C277.702 228.331 277.061 228.557 276.545 229.031C276.029 229.5 275.716 230.145 275.604 230.965L274.031 230.974C274.107 230.188 274.348 229.494 274.752 228.891C275.162 228.281 275.698 227.815 276.36 227.493C277.028 227.165 277.752 227.01 278.531 227.027C279.592 227.051 280.433 227.373 281.054 227.994C281.681 228.609 281.95 229.409 281.862 230.394C281.763 231.519 281.115 232.702 279.92 233.944L279.111 234.762L274.998 238.673H281.177L280.966 240Z" fill="black"/>
<path d="M394.293 159.707C394.683 160.098 395.317 160.098 395.707 159.707L402.071 153.343C402.462 152.953 402.462 152.319 402.071 151.929C401.681 151.538 401.047 151.538 400.657 151.929L395 157.586L389.343 151.929C388.953 151.538 388.319 151.538 387.929 151.929C387.538 152.319 387.538 152.953 387.929 153.343L394.293 159.707ZM394 140V159H396V140H394Z" fill="black"/>
</svg>

