<svg width="177" height="173" viewBox="0 0 177 173" fill="none" xmlns="http://www.w3.org/2000/svg">
<line x1="49.9332" y1="140.504" x2="138.933" y2="128.504" stroke="black"/>
<line x1="51.1565" y1="79.5251" x2="139.156" y2="108.525" stroke="black"/>
<circle cx="157" cy="119" r="19.5" fill="white" stroke="black"/>
<circle cx="25.5" cy="147.5" r="25" fill="white" stroke="black"/>
<circle cx="25.5" cy="78.5" r="25" fill="white" stroke="black"/>
<path d="M96.1016 82C96.0078 81.8125 95.9316 81.4785 95.873 80.998C95.1172 81.7832 94.2148 82.1758 93.166 82.1758C92.2285 82.1758 91.458 81.9121 90.8545 81.3848C90.2568 80.8516 89.958 80.1777 89.958 79.3633C89.958 78.373 90.333 77.6055 91.083 77.0605C91.8389 76.5098 92.8994 76.2344 94.2646 76.2344H95.8467V75.4873C95.8467 74.9189 95.6768 74.4678 95.3369 74.1338C94.9971 73.7939 94.4961 73.624 93.834 73.624C93.2539 73.624 92.7676 73.7705 92.375 74.0635C91.9824 74.3564 91.7861 74.7109 91.7861 75.127H90.1514C90.1514 74.6523 90.3184 74.1953 90.6523 73.7559C90.9922 73.3105 91.4492 72.959 92.0234 72.7012C92.6035 72.4434 93.2393 72.3145 93.9307 72.3145C95.0264 72.3145 95.8848 72.5898 96.5059 73.1406C97.127 73.6855 97.4492 74.4385 97.4727 75.3994V79.7764C97.4727 80.6494 97.584 81.3438 97.8066 81.8594V82H96.1016ZM93.4033 80.7607C93.9131 80.7607 94.3965 80.6289 94.8535 80.3652C95.3105 80.1016 95.6416 79.7588 95.8467 79.3369V77.3857H94.5723C92.5801 77.3857 91.584 77.9688 91.584 79.1348C91.584 79.6445 91.7539 80.043 92.0938 80.3301C92.4336 80.6172 92.8701 80.7607 93.4033 80.7607Z" fill="black"/>
<path d="M96.1016 150C96.0078 149.812 95.9316 149.479 95.873 148.998C95.1172 149.783 94.2148 150.176 93.166 150.176C92.2285 150.176 91.458 149.912 90.8545 149.385C90.2568 148.852 89.958 148.178 89.958 147.363C89.958 146.373 90.333 145.605 91.083 145.061C91.8389 144.51 92.8994 144.234 94.2646 144.234H95.8467V143.487C95.8467 142.919 95.6768 142.468 95.3369 142.134C94.9971 141.794 94.4961 141.624 93.834 141.624C93.2539 141.624 92.7676 141.771 92.375 142.063C91.9824 142.356 91.7861 142.711 91.7861 143.127H90.1514C90.1514 142.652 90.3184 142.195 90.6523 141.756C90.9922 141.311 91.4492 140.959 92.0234 140.701C92.6035 140.443 93.2393 140.314 93.9307 140.314C95.0264 140.314 95.8848 140.59 96.5059 141.141C97.127 141.686 97.4492 142.438 97.4727 143.399V147.776C97.4727 148.649 97.584 149.344 97.8066 149.859V150H96.1016ZM93.4033 148.761C93.9131 148.761 94.3965 148.629 94.8535 148.365C95.3105 148.102 95.6416 147.759 95.8467 147.337V145.386H94.5723C92.5801 145.386 91.584 145.969 91.584 147.135C91.584 147.645 91.7539 148.043 92.0938 148.33C92.4336 148.617 92.8701 148.761 93.4033 148.761Z" fill="black"/>
<path d="M103.271 88H102.182V80.7754L99.9961 81.5781V80.5938L103.102 79.4277H103.271V88Z" fill="black"/>
<path d="M30.2715 85H29.1816V77.7754L26.9961 78.5781V77.5938L30.1016 76.4277H30.2715V85Z" fill="black"/>
<path d="M105.299 154H99.709V153.221L102.662 149.939C103.1 149.443 103.4 149.041 103.564 148.732C103.732 148.42 103.816 148.098 103.816 147.766C103.816 147.32 103.682 146.955 103.412 146.67C103.143 146.385 102.783 146.242 102.334 146.242C101.795 146.242 101.375 146.396 101.074 146.705C100.777 147.01 100.629 147.436 100.629 147.982H99.5449C99.5449 147.197 99.7969 146.562 100.301 146.078C100.809 145.594 101.486 145.352 102.334 145.352C103.127 145.352 103.754 145.561 104.215 145.979C104.676 146.393 104.906 146.945 104.906 147.637C104.906 148.477 104.371 149.477 103.301 150.637L101.016 153.115H105.299V154Z" fill="black"/>
<path d="M32.2988 157H26.709V156.221L29.6621 152.939C30.0996 152.443 30.4004 152.041 30.5645 151.732C30.7324 151.42 30.8164 151.098 30.8164 150.766C30.8164 150.32 30.6816 149.955 30.4121 149.67C30.1426 149.385 29.7832 149.242 29.334 149.242C28.7949 149.242 28.375 149.396 28.0742 149.705C27.7773 150.01 27.6289 150.436 27.6289 150.982H26.5449C26.5449 150.197 26.7969 149.562 27.3008 149.078C27.8086 148.594 28.4863 148.352 29.334 148.352C30.127 148.352 30.7539 148.561 31.2148 148.979C31.6758 149.393 31.9062 149.945 31.9062 150.637C31.9062 151.477 31.3711 152.477 30.3008 153.637L28.0156 156.115H32.2988V157Z" fill="black"/>
<path d="M22.4209 74.9619L24.5303 71.4902H26.4287L23.3174 76.1924L26.5254 81H24.6445L22.4473 77.4404L20.25 81H18.3604L21.5684 76.1924L18.457 71.4902H20.3379L22.4209 74.9619Z" fill="black"/>
<path d="M22.4209 145.962L24.5303 142.49H26.4287L23.3174 147.192L26.5254 152H24.6445L22.4473 148.44L20.25 152H18.3604L21.5684 147.192L18.457 142.49H20.3379L22.4209 145.962Z" fill="black"/>
<path d="M38.3418 14.6182L40.5566 7.49023H42.2969L38.4736 18.4678C37.8818 20.0498 36.9414 20.8408 35.6523 20.8408L35.3447 20.8145L34.7383 20.7002V19.3818L35.1777 19.417C35.7285 19.417 36.1562 19.3057 36.4609 19.083C36.7715 18.8604 37.0264 18.4531 37.2256 17.8613L37.5859 16.8945L34.1934 7.49023H35.9688L38.3418 14.6182ZM55.6562 9.8457H48.3262V8.43066H55.6562V9.8457ZM55.6562 13.4932H48.3262V12.0869H55.6562V13.4932ZM68.4355 17C68.3418 16.8125 68.2656 16.4785 68.207 15.998C67.4512 16.7832 66.5488 17.1758 65.5 17.1758C64.5625 17.1758 63.792 16.9121 63.1885 16.3848C62.5908 15.8516 62.292 15.1777 62.292 14.3633C62.292 13.373 62.667 12.6055 63.417 12.0605C64.1729 11.5098 65.2334 11.2344 66.5986 11.2344H68.1807V10.4873C68.1807 9.91895 68.0107 9.46777 67.6709 9.13379C67.3311 8.79395 66.8301 8.62402 66.168 8.62402C65.5879 8.62402 65.1016 8.77051 64.709 9.06348C64.3164 9.35645 64.1201 9.71094 64.1201 10.127H62.4854C62.4854 9.65234 62.6523 9.19531 62.9863 8.75586C63.3262 8.31055 63.7832 7.95898 64.3574 7.70117C64.9375 7.44336 65.5732 7.31445 66.2646 7.31445C67.3604 7.31445 68.2188 7.58984 68.8398 8.14062C69.4609 8.68555 69.7832 9.43848 69.8066 10.3994V14.7764C69.8066 15.6494 69.918 16.3438 70.1406 16.8594V17H68.4355ZM65.7373 15.7607C66.2471 15.7607 66.7305 15.6289 67.1875 15.3652C67.6445 15.1016 67.9756 14.7588 68.1807 14.3369V12.3857H66.9062C64.9141 12.3857 63.918 12.9688 63.918 14.1348C63.918 14.6445 64.0879 15.043 64.4277 15.3301C64.7676 15.6172 65.2041 15.7607 65.7373 15.7607ZM84.4756 10.9619L86.585 7.49023H88.4834L85.3721 12.1924L88.5801 17H86.6992L84.502 13.4404L82.3047 17H80.415L83.623 12.1924L80.5117 7.49023H82.3926L84.4756 10.9619ZM108.268 10.1357H111.836V11.6738H108.268V15.7168H106.633V11.6738H103.064V10.1357H106.633V6.40039H108.268V10.1357ZM128.623 17C128.529 16.8125 128.453 16.4785 128.395 15.998C127.639 16.7832 126.736 17.1758 125.688 17.1758C124.75 17.1758 123.979 16.9121 123.376 16.3848C122.778 15.8516 122.479 15.1777 122.479 14.3633C122.479 13.373 122.854 12.6055 123.604 12.0605C124.36 11.5098 125.421 11.2344 126.786 11.2344H128.368V10.4873C128.368 9.91895 128.198 9.46777 127.858 9.13379C127.519 8.79395 127.018 8.62402 126.355 8.62402C125.775 8.62402 125.289 8.77051 124.896 9.06348C124.504 9.35645 124.308 9.71094 124.308 10.127H122.673C122.673 9.65234 122.84 9.19531 123.174 8.75586C123.514 8.31055 123.971 7.95898 124.545 7.70117C125.125 7.44336 125.761 7.31445 126.452 7.31445C127.548 7.31445 128.406 7.58984 129.027 8.14062C129.648 8.68555 129.971 9.43848 129.994 10.3994V14.7764C129.994 15.6494 130.105 16.3438 130.328 16.8594V17H128.623ZM125.925 15.7607C126.435 15.7607 126.918 15.6289 127.375 15.3652C127.832 15.1016 128.163 14.7588 128.368 14.3369V12.3857H127.094C125.102 12.3857 124.105 12.9688 124.105 14.1348C124.105 14.6445 124.275 15.043 124.615 15.3301C124.955 15.6172 125.392 15.7607 125.925 15.7607ZM144.663 10.9619L146.772 7.49023H148.671L145.56 12.1924L148.768 17H146.887L144.689 13.4404L142.492 17H140.603L143.811 12.1924L140.699 7.49023H142.58L144.663 10.9619Z" fill="black"/>
<path d="M156.859 121.883L158.828 115.547H160.375L156.977 125.305C156.451 126.711 155.615 127.414 154.469 127.414L154.195 127.391L153.656 127.289V126.117L154.047 126.148C154.536 126.148 154.917 126.049 155.188 125.852C155.464 125.654 155.69 125.292 155.867 124.766L156.188 123.906L153.172 115.547H154.75L156.859 121.883Z" fill="black"/>
<path d="M76.2715 22H75.1816V14.7754L72.9961 15.5781V14.5938L76.1016 13.4277H76.2715V22Z" fill="black"/>
<path d="M93.2715 22H92.1816V14.7754L89.9961 15.5781V14.5938L93.1016 13.4277H93.2715V22Z" fill="black"/>
<path d="M138.299 22H132.709V21.2207L135.662 17.9395C136.1 17.4434 136.4 17.041 136.564 16.7324C136.732 16.4199 136.816 16.0977 136.816 15.7656C136.816 15.3203 136.682 14.9551 136.412 14.6699C136.143 14.3848 135.783 14.2422 135.334 14.2422C134.795 14.2422 134.375 14.3965 134.074 14.7051C133.777 15.0098 133.629 15.4355 133.629 15.9824H132.545C132.545 15.1973 132.797 14.5625 133.301 14.0781C133.809 13.5938 134.486 13.3516 135.334 13.3516C136.127 13.3516 136.754 13.5605 137.215 13.9785C137.676 14.3926 137.906 14.9453 137.906 15.6367C137.906 16.4766 137.371 17.4766 136.301 18.6367L134.016 21.1152H138.299V22Z" fill="black"/>
<path d="M156.299 22H150.709V21.2207L153.662 17.9395C154.1 17.4434 154.4 17.041 154.564 16.7324C154.732 16.4199 154.816 16.0977 154.816 15.7656C154.816 15.3203 154.682 14.9551 154.412 14.6699C154.143 14.3848 153.783 14.2422 153.334 14.2422C152.795 14.2422 152.375 14.3965 152.074 14.7051C151.777 15.0098 151.629 15.4355 151.629 15.9824H150.545C150.545 15.1973 150.797 14.5625 151.301 14.0781C151.809 13.5938 152.486 13.3516 153.334 13.3516C154.127 13.3516 154.754 13.5605 155.215 13.9785C155.676 14.3926 155.906 14.9453 155.906 15.6367C155.906 16.4766 155.371 17.4766 154.301 18.6367L152.016 21.1152H156.299V22Z" fill="black"/>
</svg>

