<svg width="242" height="245" viewBox="0 0 242 245" fill="none" xmlns="http://www.w3.org/2000/svg">
<rect width="242" height="245" fill="white"/>
<rect width="242" height="245" fill="black"/>
<path d="M8.65021 189.665C8.97021 189.945 9.32521 190.175 9.71521 190.355C10.1152 190.535 10.5352 190.625 10.9752 190.625C11.4952 190.625 11.9202 190.53 12.2502 190.34C12.5902 190.14 12.7602 189.86 12.7602 189.5C12.7602 189.29 12.7152 189.1 12.6252 188.93C12.5352 188.76 12.3802 188.62 12.1602 188.51C11.9402 188.39 11.6452 188.3 11.2752 188.24C10.9052 188.17 10.4402 188.135 9.88021 188.135V186.575C10.8202 186.575 11.4802 186.46 11.8602 186.23C12.2502 185.99 12.4452 185.68 12.4452 185.3C12.4452 184.97 12.3202 184.715 12.0702 184.535C11.8202 184.345 11.4752 184.25 11.0352 184.25C10.6552 184.25 10.3052 184.325 9.98521 184.475C9.66521 184.625 9.34021 184.83 9.01021 185.09L7.90021 183.74C8.37021 183.36 8.87021 183.065 9.40021 182.855C9.94021 182.635 10.5202 182.525 11.1402 182.525C11.6602 182.525 12.1352 182.585 12.5652 182.705C12.9952 182.815 13.3652 182.985 13.6752 183.215C13.9852 183.435 14.2252 183.705 14.3952 184.025C14.5652 184.345 14.6502 184.715 14.6502 185.135C14.6502 185.635 14.4902 186.06 14.1702 186.41C13.8502 186.75 13.4052 187.03 12.8352 187.25V187.31C13.4352 187.47 13.9402 187.745 14.3502 188.135C14.7602 188.515 14.9652 189.015 14.9652 189.635C14.9652 190.075 14.8602 190.47 14.6502 190.82C14.4502 191.16 14.1752 191.45 13.8252 191.69C13.4852 191.92 13.0852 192.1 12.6252 192.23C12.1652 192.35 11.6852 192.41 11.1852 192.41C10.3652 192.41 9.66021 192.29 9.07021 192.05C8.48021 191.8 8.00021 191.47 7.63021 191.06L8.65021 189.665ZM20.4944 192.41C19.9444 192.41 19.4444 192.305 18.9944 192.095C18.5444 191.875 18.1594 191.555 17.8394 191.135C17.5194 190.715 17.2694 190.195 17.0894 189.575C16.9194 188.955 16.8344 188.24 16.8344 187.43C16.8344 186.62 16.9194 185.91 17.0894 185.3C17.2694 184.69 17.5194 184.18 17.8394 183.77C18.1594 183.35 18.5444 183.04 18.9944 182.84C19.4444 182.63 19.9444 182.525 20.4944 182.525C21.0444 182.525 21.5444 182.63 21.9944 182.84C22.4444 183.04 22.8294 183.35 23.1494 183.77C23.4694 184.18 23.7144 184.69 23.8844 185.3C24.0644 185.91 24.1544 186.62 24.1544 187.43C24.1544 188.24 24.0644 188.955 23.8844 189.575C23.7144 190.195 23.4694 190.715 23.1494 191.135C22.8294 191.555 22.4444 191.875 21.9944 192.095C21.5444 192.305 21.0444 192.41 20.4944 192.41ZM20.4944 184.235C20.2544 184.235 20.0294 184.285 19.8194 184.385C19.6194 184.485 19.4444 184.66 19.2944 184.91C19.1444 185.15 19.0244 185.475 18.9344 185.885C18.8444 186.295 18.7994 186.81 18.7994 187.43C18.7994 188.05 18.8444 188.57 18.9344 188.99C19.0244 189.4 19.1444 189.735 19.2944 189.995C19.4444 190.245 19.6194 190.425 19.8194 190.535C20.0294 190.645 20.2544 190.7 20.4944 190.7C20.7344 190.7 20.9544 190.645 21.1544 190.535C21.3644 190.425 21.5444 190.245 21.6944 189.995C21.8444 189.735 21.9644 189.4 22.0544 188.99C22.1444 188.57 22.1894 188.05 22.1894 187.43C22.1894 186.81 22.1444 186.295 22.0544 185.885C21.9644 185.475 21.8444 185.15 21.6944 184.91C21.5444 184.66 21.3644 184.485 21.1544 184.385C20.9544 184.285 20.7344 184.235 20.4944 184.235ZM20.4944 188.54C20.1744 188.54 19.9044 188.44 19.6844 188.24C19.4744 188.03 19.3694 187.75 19.3694 187.4C19.3694 187.05 19.4744 186.775 19.6844 186.575C19.9044 186.365 20.1744 186.26 20.4944 186.26C20.8144 186.26 21.0794 186.365 21.2894 186.575C21.5094 186.775 21.6194 187.05 21.6194 187.4C21.6194 187.75 21.5094 188.03 21.2894 188.24C21.0794 188.44 20.8144 188.54 20.4944 188.54ZM9.89521 211.23C9.93521 210.44 10.0102 209.715 10.1202 209.055C10.2402 208.385 10.4052 207.75 10.6152 207.15C10.8352 206.54 11.1152 205.95 11.4552 205.38C11.7952 204.8 12.2152 204.195 12.7152 203.565H7.93021V201.705H15.0852V203.055C14.4852 203.725 14.0002 204.355 13.6302 204.945C13.2602 205.525 12.9702 206.13 12.7602 206.76C12.5502 207.38 12.4002 208.05 12.3102 208.77C12.2202 209.48 12.1552 210.3 12.1152 211.23H9.89521ZM20.4944 211.41C19.9444 211.41 19.4444 211.305 18.9944 211.095C18.5444 210.875 18.1594 210.555 17.8394 210.135C17.5194 209.715 17.2694 209.195 17.0894 208.575C16.9194 207.955 16.8344 207.24 16.8344 206.43C16.8344 205.62 16.9194 204.91 17.0894 204.3C17.2694 203.69 17.5194 203.18 17.8394 202.77C18.1594 202.35 18.5444 202.04 18.9944 201.84C19.4444 201.63 19.9444 201.525 20.4944 201.525C21.0444 201.525 21.5444 201.63 21.9944 201.84C22.4444 202.04 22.8294 202.35 23.1494 202.77C23.4694 203.18 23.7144 203.69 23.8844 204.3C24.0644 204.91 24.1544 205.62 24.1544 206.43C24.1544 207.24 24.0644 207.955 23.8844 208.575C23.7144 209.195 23.4694 209.715 23.1494 210.135C22.8294 210.555 22.4444 210.875 21.9944 211.095C21.5444 211.305 21.0444 211.41 20.4944 211.41ZM20.4944 203.235C20.2544 203.235 20.0294 203.285 19.8194 203.385C19.6194 203.485 19.4444 203.66 19.2944 203.91C19.1444 204.15 19.0244 204.475 18.9344 204.885C18.8444 205.295 18.7994 205.81 18.7994 206.43C18.7994 207.05 18.8444 207.57 18.9344 207.99C19.0244 208.4 19.1444 208.735 19.2944 208.995C19.4444 209.245 19.6194 209.425 19.8194 209.535C20.0294 209.645 20.2544 209.7 20.4944 209.7C20.7344 209.7 20.9544 209.645 21.1544 209.535C21.3644 209.425 21.5444 209.245 21.6944 208.995C21.8444 208.735 21.9644 208.4 22.0544 207.99C22.1444 207.57 22.1894 207.05 22.1894 206.43C22.1894 205.81 22.1444 205.295 22.0544 204.885C21.9644 204.475 21.8444 204.15 21.6944 203.91C21.5444 203.66 21.3644 203.485 21.1544 203.385C20.9544 203.285 20.7344 203.235 20.4944 203.235ZM20.4944 207.54C20.1744 207.54 19.9044 207.44 19.6844 207.24C19.4744 207.03 19.3694 206.75 19.3694 206.4C19.3694 206.05 19.4744 205.775 19.6844 205.575C19.9044 205.365 20.1744 205.26 20.4944 205.26C20.8144 205.26 21.0794 205.365 21.2894 205.575C21.5094 205.775 21.6194 206.05 21.6194 206.4C21.6194 206.75 21.5094 207.03 21.2894 207.24C21.0794 207.44 20.8144 207.54 20.4944 207.54ZM8.68021 226.68C9.00021 226.94 9.34021 227.165 9.70021 227.355C10.0702 227.535 10.4802 227.625 10.9302 227.625C11.4702 227.625 11.9102 227.5 12.2502 227.25C12.6002 227 12.7752 226.63 12.7752 226.14C12.7752 225.66 12.6102 225.295 12.2802 225.045C11.9602 224.795 11.5452 224.67 11.0352 224.67C10.8752 224.67 10.7302 224.68 10.6002 224.7C10.4802 224.71 10.3602 224.735 10.2402 224.775C10.1202 224.815 9.99521 224.865 9.86521 224.925C9.73521 224.985 9.59021 225.06 9.43021 225.15L8.45521 224.52L8.71021 219.705H14.5452V221.565H10.6152L10.4502 223.35C10.6702 223.27 10.8752 223.215 11.0652 223.185C11.2552 223.145 11.4702 223.125 11.7102 223.125C12.1502 223.125 12.5652 223.185 12.9552 223.305C13.3552 223.425 13.7052 223.605 14.0052 223.845C14.3052 224.085 14.5402 224.39 14.7102 224.76C14.8902 225.13 14.9802 225.57 14.9802 226.08C14.9802 226.61 14.8752 227.08 14.6652 227.49C14.4652 227.9 14.1902 228.25 13.8402 228.54C13.5002 228.82 13.1052 229.035 12.6552 229.185C12.2052 229.335 11.7352 229.41 11.2452 229.41C10.4152 229.41 9.71021 229.285 9.13021 229.035C8.56021 228.775 8.08021 228.455 7.69021 228.075L8.68021 226.68Z" fill="white"/>
<path d="M11.5 173.18C10.92 173.18 10.385 173.065 9.895 172.835C9.415 172.595 9 172.255 8.65 171.815C8.31 171.375 8.045 170.84 7.855 170.21C7.665 169.58 7.57 168.865 7.57 168.065C7.57 167.265 7.665 166.555 7.855 165.935C8.045 165.305 8.31 164.78 8.65 164.36C9 163.93 9.415 163.605 9.895 163.385C10.385 163.155 10.92 163.04 11.5 163.04C12.08 163.04 12.61 163.155 13.09 163.385C13.58 163.605 13.995 163.93 14.335 164.36C14.685 164.79 14.955 165.32 15.145 165.95C15.335 166.57 15.43 167.275 15.43 168.065C15.43 168.865 15.335 169.58 15.145 170.21C14.955 170.84 14.685 171.375 14.335 171.815C13.995 172.255 13.58 172.595 13.09 172.835C12.61 173.065 12.08 173.18 11.5 173.18ZM11.5 171.275C12.01 171.275 12.415 170.99 12.715 170.42C13.015 169.84 13.165 169.055 13.165 168.065C13.165 167.085 13.015 166.32 12.715 165.77C12.415 165.22 12.01 164.945 11.5 164.945C10.99 164.945 10.585 165.22 10.285 165.77C9.985 166.32 9.835 167.085 9.835 168.065C9.835 169.055 9.985 169.84 10.285 170.42C10.585 170.99 10.99 171.275 11.5 171.275ZM23.8691 173H22.0691L21.9041 171.935H21.8441C21.5141 172.315 21.1491 172.62 20.7491 172.85C20.3491 173.07 19.8791 173.18 19.3391 173.18C18.4891 173.18 17.8741 172.91 17.4941 172.37C17.1141 171.83 16.9241 171.09 16.9241 170.15V165.56H19.1291V169.865C19.1291 170.365 19.2041 170.73 19.3541 170.96C19.5041 171.19 19.7891 171.305 20.2091 171.305C20.4891 171.305 20.7341 171.245 20.9441 171.125C21.1641 171.005 21.4041 170.78 21.6641 170.45V165.56H23.8691V173ZM27.5983 167.285H25.7233V165.65L27.7033 165.56L27.9883 163.58H29.8033V165.56H32.9533V167.285H29.8033V169.895C29.8033 170.465 29.9283 170.87 30.1783 171.11C30.4283 171.34 30.8233 171.455 31.3633 171.455C31.6533 171.455 31.9183 171.43 32.1583 171.38C32.3983 171.33 32.6283 171.265 32.8483 171.185L33.2383 172.775C32.9083 172.875 32.5383 172.965 32.1283 173.045C31.7283 173.135 31.2883 173.18 30.8083 173.18C30.2183 173.18 29.7183 173.1 29.3083 172.94C28.8983 172.78 28.5633 172.56 28.3033 172.28C28.0533 171.99 27.8733 171.645 27.7633 171.245C27.6533 170.845 27.5983 170.4 27.5983 169.91V167.285ZM37.2674 173.585V175.76H35.0624V165.56H36.8624L37.0274 166.31H37.0724C37.3724 166.04 37.7174 165.82 38.1074 165.65C38.4974 165.47 38.8924 165.38 39.2924 165.38C39.7524 165.38 40.1674 165.47 40.5374 165.65C40.9074 165.83 41.2224 166.085 41.4824 166.415C41.7424 166.745 41.9374 167.145 42.0674 167.615C42.2074 168.075 42.2774 168.59 42.2774 169.16C42.2774 169.8 42.1874 170.37 42.0074 170.87C41.8274 171.36 41.5874 171.78 41.2874 172.13C40.9874 172.47 40.6424 172.73 40.2524 172.91C39.8724 173.09 39.4724 173.18 39.0524 173.18C38.3724 173.18 37.7524 172.91 37.1924 172.37L37.2674 173.585ZM37.2674 170.885C37.4774 171.065 37.6924 171.195 37.9124 171.275C38.1424 171.345 38.3524 171.38 38.5424 171.38C38.9624 171.38 39.3124 171.21 39.5924 170.87C39.8724 170.52 40.0124 169.96 40.0124 169.19C40.0124 167.85 39.5574 167.18 38.6474 167.18C38.1774 167.18 37.7174 167.41 37.2674 167.87V170.885ZM50.8516 173H49.0516L48.8866 171.935H48.8266C48.4966 172.315 48.1316 172.62 47.7316 172.85C47.3316 173.07 46.8616 173.18 46.3216 173.18C45.4716 173.18 44.8566 172.91 44.4766 172.37C44.0966 171.83 43.9066 171.09 43.9066 170.15V165.56H46.1116V169.865C46.1116 170.365 46.1866 170.73 46.3366 170.96C46.4866 171.19 46.7716 171.305 47.1916 171.305C47.4716 171.305 47.7166 171.245 47.9266 171.125C48.1466 171.005 48.3866 170.78 48.6466 170.45V165.56H50.8516V173ZM54.5807 167.285H52.7057V165.65L54.6857 165.56L54.9707 163.58H56.7857V165.56H59.9357V167.285H56.7857V169.895C56.7857 170.465 56.9107 170.87 57.1607 171.11C57.4107 171.34 57.8057 171.455 58.3457 171.455C58.6357 171.455 58.9007 171.43 59.1407 171.38C59.3807 171.33 59.6107 171.265 59.8307 171.185L60.2207 172.775C59.8907 172.875 59.5207 172.965 59.1107 173.045C58.7107 173.135 58.2707 173.18 57.7907 173.18C57.2007 173.18 56.7007 173.1 56.2907 172.94C55.8807 172.78 55.5457 172.56 55.2857 172.28C55.0357 171.99 54.8557 171.645 54.7457 171.245C54.6357 170.845 54.5807 170.4 54.5807 169.91V167.285Z" fill="white"/>
<rect x="96.75" width="145.25" height="30.6018" fill="#333333"/>
<rect x="96.75" width="145.25" height="30.6018" fill="#333333"/>
<rect width="97.1974" height="30.6018" fill="#090808"/>
<path d="M18.105 17.8101C18.105 17.5513 17.9756 17.3486 17.7168 17.2021C17.4629 17.0508 17.0527 16.9165 16.4863 16.7993C14.6016 16.4038 13.6592 15.603 13.6592 14.397C13.6592 13.6938 13.9497 13.1079 14.5308 12.6392C15.1167 12.1655 15.8809 11.9287 16.8232 11.9287C17.8291 11.9287 18.6323 12.1655 19.2329 12.6392C19.8384 13.1128 20.1411 13.728 20.1411 14.4849H18.0244C18.0244 14.1821 17.9268 13.9331 17.7314 13.7378C17.5361 13.5376 17.231 13.4375 16.8159 13.4375C16.4595 13.4375 16.1836 13.5181 15.9883 13.6792C15.793 13.8403 15.6953 14.0454 15.6953 14.2944C15.6953 14.5288 15.8052 14.7192 16.0249 14.8657C16.2495 15.0073 16.6255 15.1318 17.1528 15.2393C17.6802 15.3418 18.1245 15.459 18.4858 15.5908C19.604 16.001 20.1631 16.7114 20.1631 17.7222C20.1631 18.4448 19.853 19.0308 19.2329 19.48C18.6128 19.9243 17.812 20.1465 16.8306 20.1465C16.1665 20.1465 15.5757 20.0293 15.0581 19.7949C14.5454 19.5557 14.1426 19.231 13.8496 18.8208C13.5566 18.4058 13.4102 17.959 13.4102 17.4805H15.417C15.4365 17.8564 15.5757 18.1445 15.8345 18.3447C16.0933 18.5449 16.4399 18.645 16.8745 18.645C17.2798 18.645 17.585 18.5693 17.79 18.418C18 18.2617 18.105 18.0591 18.105 17.8101ZM24.8286 18.4399C25.2192 18.4399 25.5366 18.3325 25.7808 18.1177C26.0249 17.9028 26.1519 17.6172 26.1616 17.2607H28.1465C28.1416 17.7979 27.9951 18.291 27.707 18.7402C27.4189 19.1846 27.0234 19.5312 26.5205 19.7803C26.0225 20.0244 25.4707 20.1465 24.8652 20.1465C23.7324 20.1465 22.8389 19.7876 22.1846 19.0698C21.5303 18.3472 21.2031 17.3511 21.2031 16.0815V15.9424C21.2031 14.7217 21.5278 13.7476 22.1772 13.02C22.8267 12.2925 23.7178 11.9287 24.8506 11.9287C25.8418 11.9287 26.6353 12.2119 27.231 12.7783C27.8315 13.3398 28.1367 14.0894 28.1465 15.0269H26.1616C26.1519 14.6167 26.0249 14.2847 25.7808 14.0308C25.5366 13.772 25.2144 13.6426 24.814 13.6426C24.3208 13.6426 23.9473 13.8232 23.6934 14.1846C23.4443 14.541 23.3198 15.1221 23.3198 15.9277V16.1475C23.3198 16.9629 23.4443 17.5488 23.6934 17.9053C23.9424 18.2617 24.3208 18.4399 24.8286 18.4399ZM33.8081 14.0601C33.52 14.021 33.2661 14.0015 33.0464 14.0015C32.2456 14.0015 31.7207 14.2725 31.4717 14.8145V20H29.355V12.0752H31.3545L31.4131 13.02C31.8379 12.2925 32.4263 11.9287 33.1782 11.9287C33.4126 11.9287 33.6323 11.9604 33.8374 12.0239L33.8081 14.0601ZM37.0674 20H34.9434V12.0752H37.0674V20ZM34.8188 10.0244C34.8188 9.70703 34.9238 9.4458 35.1338 9.24072C35.3486 9.03564 35.6392 8.93311 36.0054 8.93311C36.3667 8.93311 36.6548 9.03564 36.8696 9.24072C37.0845 9.4458 37.1919 9.70703 37.1919 10.0244C37.1919 10.3467 37.082 10.6104 36.8623 10.8154C36.6475 11.0205 36.3618 11.123 36.0054 11.123C35.6489 11.123 35.3608 11.0205 35.1411 10.8154C34.9263 10.6104 34.8188 10.3467 34.8188 10.0244ZM45.9517 16.1108C45.9517 17.3315 45.6733 18.3105 45.1167 19.0479C44.5649 19.7803 43.8179 20.1465 42.8755 20.1465C42.0747 20.1465 41.4277 19.8682 40.9346 19.3115V23.0469H38.8179V12.0752H40.7808L40.854 12.8516C41.3667 12.2363 42.0356 11.9287 42.8608 11.9287C43.8374 11.9287 44.5967 12.29 45.1387 13.0127C45.6807 13.7354 45.9517 14.7314 45.9517 16.001V16.1108ZM43.835 15.957C43.835 15.2197 43.7031 14.6509 43.4395 14.2505C43.1807 13.8501 42.8022 13.6499 42.3042 13.6499C41.6401 13.6499 41.1836 13.9038 40.9346 14.4116V17.6562C41.1934 18.1787 41.6548 18.4399 42.3188 18.4399C43.3296 18.4399 43.835 17.6123 43.835 15.957ZM49.8042 10.127V12.0752H51.1592V13.6279H49.8042V17.583C49.8042 17.876 49.8604 18.0859 49.9727 18.2129C50.085 18.3398 50.2998 18.4033 50.6172 18.4033C50.8516 18.4033 51.0591 18.3862 51.2397 18.3521V19.9561C50.8247 20.083 50.3975 20.1465 49.958 20.1465C48.4736 20.1465 47.7168 19.397 47.6875 17.8979V13.6279H46.5303V12.0752H47.6875V10.127H49.8042ZM52.4482 18.96C52.4482 18.623 52.5605 18.3496 52.7852 18.1396C53.0146 17.9297 53.3003 17.8247 53.6421 17.8247C53.9888 17.8247 54.2744 17.9297 54.499 18.1396C54.7285 18.3496 54.8433 18.623 54.8433 18.96C54.8433 19.292 54.731 19.563 54.5063 19.7729C54.2817 19.978 53.9937 20.0806 53.6421 20.0806C53.2954 20.0806 53.0098 19.978 52.7852 19.7729C52.5605 19.563 52.4482 19.292 52.4482 18.96ZM63.8374 16.1108C63.8374 17.3315 63.5591 18.3105 63.0024 19.0479C62.4507 19.7803 61.7036 20.1465 60.7612 20.1465C59.9604 20.1465 59.3135 19.8682 58.8203 19.3115V23.0469H56.7036V12.0752H58.6665L58.7397 12.8516C59.2524 12.2363 59.9214 11.9287 60.7466 11.9287C61.7231 11.9287 62.4824 12.29 63.0244 13.0127C63.5664 13.7354 63.8374 14.7314 63.8374 16.001V16.1108ZM61.7207 15.957C61.7207 15.2197 61.5889 14.6509 61.3252 14.2505C61.0664 13.8501 60.688 13.6499 60.1899 13.6499C59.5259 13.6499 59.0693 13.9038 58.8203 14.4116V17.6562C59.0791 18.1787 59.5405 18.4399 60.2046 18.4399C61.2153 18.4399 61.7207 17.6123 61.7207 15.957ZM68.0269 17.0044L69.4917 12.0752H71.7622L68.5762 21.2305L68.4004 21.6479C67.9268 22.6831 67.1455 23.2007 66.0566 23.2007C65.749 23.2007 65.4365 23.1543 65.1191 23.0615V21.4575L65.4414 21.4648C65.8418 21.4648 66.1396 21.4038 66.335 21.2817C66.5352 21.1597 66.6914 20.957 66.8037 20.6738L67.0527 20.022L64.2769 12.0752H66.5547L68.0269 17.0044Z" fill="white"/>
<line y1="157.5" x2="242" y2="157.5" stroke="white"/>
<path d="M10.135 47.13L7.72 43.56H10.09L10.855 44.76C10.965 44.97 11.09 45.185 11.23 45.405C11.37 45.615 11.505 45.825 11.635 46.035H11.695C11.795 45.825 11.895 45.61 11.995 45.39C12.105 45.17 12.21 44.96 12.31 44.76L12.97 43.56H15.28L12.85 47.385L15.43 51H13.06L12.205 49.77C12.065 49.56 11.92 49.345 11.77 49.125C11.63 48.905 11.49 48.69 11.35 48.48H11.29C11.18 48.69 11.065 48.905 10.945 49.125C10.825 49.335 10.71 49.55 10.6 49.77L9.865 51H7.555L10.135 47.13ZM57.8507 72.685C56.8707 71.815 56.0957 70.81 55.5257 69.67C54.9657 68.53 54.6857 67.25 54.6857 65.83C54.6857 64.41 54.9657 63.13 55.5257 61.99C56.0957 60.85 56.8707 59.845 57.8507 58.975L59.0807 59.95C58.1907 60.82 57.5407 61.725 57.1307 62.665C56.7307 63.595 56.5307 64.65 56.5307 65.83C56.5307 66.42 56.5807 66.98 56.6807 67.51C56.7807 68.03 56.9307 68.53 57.1307 69.01C57.3407 69.49 57.6057 69.95 57.9257 70.39C58.2457 70.84 58.6307 71.28 59.0807 71.71L57.8507 72.685ZM64.0998 66.13L61.6848 62.56H64.0548L64.8198 63.76C64.9298 63.97 65.0548 64.185 65.1948 64.405C65.3348 64.615 65.4698 64.825 65.5998 65.035H65.6598C65.7598 64.825 65.8598 64.61 65.9598 64.39C66.0698 64.17 66.1748 63.96 66.2748 63.76L66.9348 62.56H69.2448L66.8148 66.385L69.3948 70H67.0248L66.1698 68.77C66.0298 68.56 65.8848 68.345 65.7348 68.125C65.5948 67.905 65.4548 67.69 65.3148 67.48H65.2548C65.1448 67.69 65.0298 67.905 64.9098 68.125C64.7898 68.335 64.6748 68.55 64.5648 68.77L63.8298 70H61.5198L64.0998 66.13ZM71.849 71.71C72.299 71.28 72.684 70.84 73.004 70.39C73.324 69.95 73.584 69.49 73.784 69.01C73.994 68.53 74.149 68.03 74.249 67.51C74.349 66.98 74.399 66.42 74.399 65.83C74.399 64.65 74.194 63.595 73.784 62.665C73.384 61.725 72.739 60.82 71.849 59.95L73.079 58.975C74.059 59.845 74.829 60.85 75.389 61.99C75.959 63.13 76.244 64.41 76.244 65.83C76.244 67.25 75.959 68.53 75.389 69.67C74.829 70.81 74.059 71.815 73.079 72.685L71.849 71.71ZM10.135 84.13L7.72 80.56H10.09L10.855 81.76C10.965 81.97 11.09 82.185 11.23 82.405C11.37 82.615 11.505 82.825 11.635 83.035H11.695C11.795 82.825 11.895 82.61 11.995 82.39C12.105 82.17 12.21 81.96 12.31 81.76L12.97 80.56H15.28L12.85 84.385L15.43 88H13.06L12.205 86.77C12.065 86.56 11.92 86.345 11.77 86.125C11.63 85.905 11.49 85.69 11.35 85.48H11.29C11.18 85.69 11.065 85.905 10.945 86.125C10.825 86.335 10.71 86.55 10.6 86.77L9.865 88H7.555L10.135 84.13ZM57.8507 109.685C56.8707 108.815 56.0957 107.81 55.5257 106.67C54.9657 105.53 54.6857 104.25 54.6857 102.83C54.6857 101.41 54.9657 100.13 55.5257 98.99C56.0957 97.85 56.8707 96.845 57.8507 95.975L59.0807 96.95C58.1907 97.82 57.5407 98.725 57.1307 99.665C56.7307 100.595 56.5307 101.65 56.5307 102.83C56.5307 103.42 56.5807 103.98 56.6807 104.51C56.7807 105.03 56.9307 105.53 57.1307 106.01C57.3407 106.49 57.6057 106.95 57.9257 107.39C58.2457 107.84 58.6307 108.28 59.0807 108.71L57.8507 109.685ZM64.0998 103.13L61.6848 99.56H64.0548L64.8198 100.76C64.9298 100.97 65.0548 101.185 65.1948 101.405C65.3348 101.615 65.4698 101.825 65.5998 102.035H65.6598C65.7598 101.825 65.8598 101.61 65.9598 101.39C66.0698 101.17 66.1748 100.96 66.2748 100.76L66.9348 99.56H69.2448L66.8148 103.385L69.3948 107H67.0248L66.1698 105.77C66.0298 105.56 65.8848 105.345 65.7348 105.125C65.5948 104.905 65.4548 104.69 65.3148 104.48H65.2548C65.1448 104.69 65.0298 104.905 64.9098 105.125C64.7898 105.335 64.6748 105.55 64.5648 105.77L63.8298 107H61.5198L64.0998 103.13ZM71.849 108.71C72.299 108.28 72.684 107.84 73.004 107.39C73.324 106.95 73.584 106.49 73.784 106.01C73.994 105.53 74.149 105.03 74.249 104.51C74.349 103.98 74.399 103.42 74.399 102.83C74.399 101.65 74.194 100.595 73.784 99.665C73.384 98.725 72.739 97.82 71.849 96.95L73.079 95.975C74.059 96.845 74.829 97.85 75.389 98.99C75.959 100.13 76.244 101.41 76.244 102.83C76.244 104.25 75.959 105.53 75.389 106.67C74.829 107.81 74.059 108.815 73.079 109.685L71.849 108.71ZM10.135 122.13L7.72 118.56H10.09L10.855 119.76C10.965 119.97 11.09 120.185 11.23 120.405C11.37 120.615 11.505 120.825 11.635 121.035H11.695C11.795 120.825 11.895 120.61 11.995 120.39C12.105 120.17 12.21 119.96 12.31 119.76L12.97 118.56H15.28L12.85 122.385L15.43 126H13.06L12.205 124.77C12.065 124.56 11.92 124.345 11.77 124.125C11.63 123.905 11.49 123.69 11.35 123.48H11.29C11.18 123.69 11.065 123.905 10.945 124.125C10.825 124.335 10.71 124.55 10.6 124.77L9.865 126H7.555L10.135 122.13ZM57.8507 147.685C56.8707 146.815 56.0957 145.81 55.5257 144.67C54.9657 143.53 54.6857 142.25 54.6857 140.83C54.6857 139.41 54.9657 138.13 55.5257 136.99C56.0957 135.85 56.8707 134.845 57.8507 133.975L59.0807 134.95C58.1907 135.82 57.5407 136.725 57.1307 137.665C56.7307 138.595 56.5307 139.65 56.5307 140.83C56.5307 141.42 56.5807 141.98 56.6807 142.51C56.7807 143.03 56.9307 143.53 57.1307 144.01C57.3407 144.49 57.6057 144.95 57.9257 145.39C58.2457 145.84 58.6307 146.28 59.0807 146.71L57.8507 147.685ZM64.0998 141.13L61.6848 137.56H64.0548L64.8198 138.76C64.9298 138.97 65.0548 139.185 65.1948 139.405C65.3348 139.615 65.4698 139.825 65.5998 140.035H65.6598C65.7598 139.825 65.8598 139.61 65.9598 139.39C66.0698 139.17 66.1748 138.96 66.2748 138.76L66.9348 137.56H69.2448L66.8148 141.385L69.3948 145H67.0248L66.1698 143.77C66.0298 143.56 65.8848 143.345 65.7348 143.125C65.5948 142.905 65.4548 142.69 65.3148 142.48H65.2548C65.1448 142.69 65.0298 142.905 64.9098 143.125C64.7898 143.335 64.6748 143.55 64.5648 143.77L63.8298 145H61.5198L64.0998 141.13ZM71.849 146.71C72.299 146.28 72.684 145.84 73.004 145.39C73.324 144.95 73.584 144.49 73.784 144.01C73.994 143.53 74.149 143.03 74.249 142.51C74.349 141.98 74.399 141.42 74.399 140.83C74.399 139.65 74.194 138.595 73.784 137.665C73.384 136.725 72.739 135.82 71.849 134.95L73.079 133.975C74.059 134.845 74.829 135.85 75.389 136.99C75.959 138.13 76.244 139.41 76.244 140.83C76.244 142.25 75.959 143.53 75.389 144.67C74.829 145.81 74.059 146.815 73.079 147.685L71.849 146.71Z" fill="white"/>
<path d="M10.285 70.585V72.76H8.08V62.56H9.88L10.045 63.31H10.09C10.39 63.04 10.735 62.82 11.125 62.65C11.515 62.47 11.91 62.38 12.31 62.38C12.77 62.38 13.185 62.47 13.555 62.65C13.925 62.83 14.24 63.085 14.5 63.415C14.76 63.745 14.955 64.145 15.085 64.615C15.225 65.075 15.295 65.59 15.295 66.16C15.295 66.8 15.205 67.37 15.025 67.87C14.845 68.36 14.605 68.78 14.305 69.13C14.005 69.47 13.66 69.73 13.27 69.91C12.89 70.09 12.49 70.18 12.07 70.18C11.39 70.18 10.77 69.91 10.21 69.37L10.285 70.585ZM10.285 67.885C10.495 68.065 10.71 68.195 10.93 68.275C11.16 68.345 11.37 68.38 11.56 68.38C11.98 68.38 12.33 68.21 12.61 67.87C12.89 67.52 13.03 66.96 13.03 66.19C13.03 64.85 12.575 64.18 11.665 64.18C11.195 64.18 10.735 64.41 10.285 64.87V67.885ZM17.7341 62.56H19.5341L19.7141 64.18H19.7591C20.1291 63.57 20.5741 63.12 21.0941 62.83C21.6141 62.53 22.1741 62.38 22.7741 62.38C23.1041 62.38 23.3691 62.405 23.5691 62.455C23.7791 62.505 23.9941 62.58 24.2141 62.68L23.7641 64.525C23.5341 64.455 23.3241 64.405 23.1341 64.375C22.9541 64.335 22.7241 64.315 22.4441 64.315C21.9841 64.315 21.5291 64.45 21.0791 64.72C20.6391 64.99 20.2591 65.46 19.9391 66.13V70H17.7341V62.56ZM26.1733 62.56H31.3633V70H29.1583V64.285H26.1733V62.56ZM30.1633 61.465C29.7333 61.465 29.3783 61.345 29.0983 61.105C28.8283 60.865 28.6933 60.54 28.6933 60.13C28.6933 59.72 28.8283 59.39 29.0983 59.14C29.3783 58.88 29.7333 58.75 30.1633 58.75C30.5933 58.75 30.9433 58.88 31.2133 59.14C31.4933 59.39 31.6333 59.72 31.6333 60.13C31.6333 60.54 31.4933 60.865 31.2133 61.105C30.9433 61.345 30.5933 61.465 30.1633 61.465ZM35.0624 62.56H36.8624L37.0274 63.55H37.0874C37.4074 63.23 37.7724 62.955 38.1824 62.725C38.6024 62.495 39.0924 62.38 39.6524 62.38C40.4924 62.38 41.1074 62.65 41.4974 63.19C41.8874 63.73 42.0824 64.47 42.0824 65.41V70H39.8774V65.695C39.8774 65.195 39.7974 64.83 39.6374 64.6C39.4774 64.37 39.1924 64.255 38.7824 64.255C38.4824 64.255 38.2174 64.32 37.9874 64.45C37.7674 64.58 37.5274 64.775 37.2674 65.035V70H35.0624V62.56ZM45.5866 64.285H43.7116V62.65L45.6916 62.56L45.9766 60.58H47.7916V62.56H50.9416V64.285H47.7916V66.895C47.7916 67.465 47.9166 67.87 48.1666 68.11C48.4166 68.34 48.8116 68.455 49.3516 68.455C49.6416 68.455 49.9066 68.43 50.1466 68.38C50.3866 68.33 50.6166 68.265 50.8366 68.185L51.2266 69.775C50.8966 69.875 50.5266 69.965 50.1166 70.045C49.7166 70.135 49.2766 70.18 48.7966 70.18C48.2066 70.18 47.7066 70.1 47.2966 69.94C46.8866 69.78 46.5516 69.56 46.2916 69.28C46.0416 68.99 45.8616 68.645 45.7516 68.245C45.6416 67.845 45.5866 67.4 45.5866 66.91V64.285ZM10.285 107.585V109.76H8.08V99.56H9.88L10.045 100.31H10.09C10.39 100.04 10.735 99.82 11.125 99.65C11.515 99.47 11.91 99.38 12.31 99.38C12.77 99.38 13.185 99.47 13.555 99.65C13.925 99.83 14.24 100.085 14.5 100.415C14.76 100.745 14.955 101.145 15.085 101.615C15.225 102.075 15.295 102.59 15.295 103.16C15.295 103.8 15.205 104.37 15.025 104.87C14.845 105.36 14.605 105.78 14.305 106.13C14.005 106.47 13.66 106.73 13.27 106.91C12.89 107.09 12.49 107.18 12.07 107.18C11.39 107.18 10.77 106.91 10.21 106.37L10.285 107.585ZM10.285 104.885C10.495 105.065 10.71 105.195 10.93 105.275C11.16 105.345 11.37 105.38 11.56 105.38C11.98 105.38 12.33 105.21 12.61 104.87C12.89 104.52 13.03 103.96 13.03 103.19C13.03 101.85 12.575 101.18 11.665 101.18C11.195 101.18 10.735 101.41 10.285 101.87V104.885ZM17.7341 99.56H19.5341L19.7141 101.18H19.7591C20.1291 100.57 20.5741 100.12 21.0941 99.83C21.6141 99.53 22.1741 99.38 22.7741 99.38C23.1041 99.38 23.3691 99.405 23.5691 99.455C23.7791 99.505 23.9941 99.58 24.2141 99.68L23.7641 101.525C23.5341 101.455 23.3241 101.405 23.1341 101.375C22.9541 101.335 22.7241 101.315 22.4441 101.315C21.9841 101.315 21.5291 101.45 21.0791 101.72C20.6391 101.99 20.2591 102.46 19.9391 103.13V107H17.7341V99.56ZM26.1733 99.56H31.3633V107H29.1583V101.285H26.1733V99.56ZM30.1633 98.465C29.7333 98.465 29.3783 98.345 29.0983 98.105C28.8283 97.865 28.6933 97.54 28.6933 97.13C28.6933 96.72 28.8283 96.39 29.0983 96.14C29.3783 95.88 29.7333 95.75 30.1633 95.75C30.5933 95.75 30.9433 95.88 31.2133 96.14C31.4933 96.39 31.6333 96.72 31.6333 97.13C31.6333 97.54 31.4933 97.865 31.2133 98.105C30.9433 98.345 30.5933 98.465 30.1633 98.465ZM35.0624 99.56H36.8624L37.0274 100.55H37.0874C37.4074 100.23 37.7724 99.955 38.1824 99.725C38.6024 99.495 39.0924 99.38 39.6524 99.38C40.4924 99.38 41.1074 99.65 41.4974 100.19C41.8874 100.73 42.0824 101.47 42.0824 102.41V107H39.8774V102.695C39.8774 102.195 39.7974 101.83 39.6374 101.6C39.4774 101.37 39.1924 101.255 38.7824 101.255C38.4824 101.255 38.2174 101.32 37.9874 101.45C37.7674 101.58 37.5274 101.775 37.2674 102.035V107H35.0624V99.56ZM45.5866 101.285H43.7116V99.65L45.6916 99.56L45.9766 97.58H47.7916V99.56H50.9416V101.285H47.7916V103.895C47.7916 104.465 47.9166 104.87 48.1666 105.11C48.4166 105.34 48.8116 105.455 49.3516 105.455C49.6416 105.455 49.9066 105.43 50.1466 105.38C50.3866 105.33 50.6166 105.265 50.8366 105.185L51.2266 106.775C50.8966 106.875 50.5266 106.965 50.1166 107.045C49.7166 107.135 49.2766 107.18 48.7966 107.18C48.2066 107.18 47.7066 107.1 47.2966 106.94C46.8866 106.78 46.5516 106.56 46.2916 106.28C46.0416 105.99 45.8616 105.645 45.7516 105.245C45.6416 104.845 45.5866 104.4 45.5866 103.91V101.285ZM10.285 145.585V147.76H8.08V137.56H9.88L10.045 138.31H10.09C10.39 138.04 10.735 137.82 11.125 137.65C11.515 137.47 11.91 137.38 12.31 137.38C12.77 137.38 13.185 137.47 13.555 137.65C13.925 137.83 14.24 138.085 14.5 138.415C14.76 138.745 14.955 139.145 15.085 139.615C15.225 140.075 15.295 140.59 15.295 141.16C15.295 141.8 15.205 142.37 15.025 142.87C14.845 143.36 14.605 143.78 14.305 144.13C14.005 144.47 13.66 144.73 13.27 144.91C12.89 145.09 12.49 145.18 12.07 145.18C11.39 145.18 10.77 144.91 10.21 144.37L10.285 145.585ZM10.285 142.885C10.495 143.065 10.71 143.195 10.93 143.275C11.16 143.345 11.37 143.38 11.56 143.38C11.98 143.38 12.33 143.21 12.61 142.87C12.89 142.52 13.03 141.96 13.03 141.19C13.03 139.85 12.575 139.18 11.665 139.18C11.195 139.18 10.735 139.41 10.285 139.87V142.885ZM17.7341 137.56H19.5341L19.7141 139.18H19.7591C20.1291 138.57 20.5741 138.12 21.0941 137.83C21.6141 137.53 22.1741 137.38 22.7741 137.38C23.1041 137.38 23.3691 137.405 23.5691 137.455C23.7791 137.505 23.9941 137.58 24.2141 137.68L23.7641 139.525C23.5341 139.455 23.3241 139.405 23.1341 139.375C22.9541 139.335 22.7241 139.315 22.4441 139.315C21.9841 139.315 21.5291 139.45 21.0791 139.72C20.6391 139.99 20.2591 140.46 19.9391 141.13V145H17.7341V137.56ZM26.1733 137.56H31.3633V145H29.1583V139.285H26.1733V137.56ZM30.1633 136.465C29.7333 136.465 29.3783 136.345 29.0983 136.105C28.8283 135.865 28.6933 135.54 28.6933 135.13C28.6933 134.72 28.8283 134.39 29.0983 134.14C29.3783 133.88 29.7333 133.75 30.1633 133.75C30.5933 133.75 30.9433 133.88 31.2133 134.14C31.4933 134.39 31.6333 134.72 31.6333 135.13C31.6333 135.54 31.4933 135.865 31.2133 136.105C30.9433 136.345 30.5933 136.465 30.1633 136.465ZM35.0624 137.56H36.8624L37.0274 138.55H37.0874C37.4074 138.23 37.7724 137.955 38.1824 137.725C38.6024 137.495 39.0924 137.38 39.6524 137.38C40.4924 137.38 41.1074 137.65 41.4974 138.19C41.8874 138.73 42.0824 139.47 42.0824 140.41V145H39.8774V140.695C39.8774 140.195 39.7974 139.83 39.6374 139.6C39.4774 139.37 39.1924 139.255 38.7824 139.255C38.4824 139.255 38.2174 139.32 37.9874 139.45C37.7674 139.58 37.5274 139.775 37.2674 140.035V145H35.0624V137.56ZM45.5866 139.285H43.7116V137.65L45.6916 137.56L45.9766 135.58H47.7916V137.56H50.9416V139.285H47.7916V141.895C47.7916 142.465 47.9166 142.87 48.1666 143.11C48.4166 143.34 48.8116 143.455 49.3516 143.455C49.6416 143.455 49.9066 143.43 50.1466 143.38C50.3866 143.33 50.6166 143.265 50.8366 143.185L51.2266 144.775C50.8966 144.875 50.5266 144.965 50.1166 145.045C49.7166 145.135 49.2766 145.18 48.7966 145.18C48.2066 145.18 47.7066 145.1 47.2966 144.94C46.8866 144.78 46.5516 144.56 46.2916 144.28C46.0416 143.99 45.8616 143.645 45.7516 143.245C45.6416 142.845 45.5866 142.4 45.5866 141.91V139.285Z" fill="#56B4E9"/>
<path d="M26.0383 43.53H32.9383V45.09H26.0383V43.53ZM26.0383 46.995H32.9383V48.555H26.0383V46.995ZM26.0383 80.53H32.9383V82.09H26.0383V80.53ZM26.0383 83.995H32.9383V85.555H26.0383V83.995ZM26.0383 118.53H32.9383V120.09H26.0383V118.53ZM26.0383 121.995H32.9383V123.555H26.0383V121.995Z" fill="#E0E0E0"/>
<path d="M44.6266 48.435C44.9466 48.715 45.3016 48.945 45.6916 49.125C46.0916 49.305 46.5116 49.395 46.9516 49.395C47.4716 49.395 47.8966 49.3 48.2266 49.11C48.5666 48.91 48.7366 48.63 48.7366 48.27C48.7366 48.06 48.6916 47.87 48.6016 47.7C48.5116 47.53 48.3566 47.39 48.1366 47.28C47.9166 47.16 47.6216 47.07 47.2516 47.01C46.8816 46.94 46.4166 46.905 45.8566 46.905V45.345C46.7966 45.345 47.4566 45.23 47.8366 45C48.2266 44.76 48.4216 44.45 48.4216 44.07C48.4216 43.74 48.2966 43.485 48.0466 43.305C47.7966 43.115 47.4516 43.02 47.0116 43.02C46.6316 43.02 46.2816 43.095 45.9616 43.245C45.6416 43.395 45.3166 43.6 44.9866 43.86L43.8766 42.51C44.3466 42.13 44.8466 41.835 45.3766 41.625C45.9166 41.405 46.4966 41.295 47.1166 41.295C47.6366 41.295 48.1116 41.355 48.5416 41.475C48.9716 41.585 49.3416 41.755 49.6516 41.985C49.9616 42.205 50.2016 42.475 50.3716 42.795C50.5416 43.115 50.6266 43.485 50.6266 43.905C50.6266 44.405 50.4666 44.83 50.1466 45.18C49.8266 45.52 49.3816 45.8 48.8116 46.02V46.08C49.4116 46.24 49.9166 46.515 50.3266 46.905C50.7366 47.285 50.9416 47.785 50.9416 48.405C50.9416 48.845 50.8366 49.24 50.6266 49.59C50.4266 49.93 50.1516 50.22 49.8016 50.46C49.4616 50.69 49.0616 50.87 48.6016 51C48.1416 51.12 47.6616 51.18 47.1616 51.18C46.3416 51.18 45.6366 51.06 45.0466 50.82C44.4566 50.57 43.9766 50.24 43.6066 49.83L44.6266 48.435ZM56.4707 51.18C55.9207 51.18 55.4207 51.075 54.9707 50.865C54.5207 50.645 54.1357 50.325 53.8157 49.905C53.4957 49.485 53.2457 48.965 53.0657 48.345C52.8957 47.725 52.8107 47.01 52.8107 46.2C52.8107 45.39 52.8957 44.68 53.0657 44.07C53.2457 43.46 53.4957 42.95 53.8157 42.54C54.1357 42.12 54.5207 41.81 54.9707 41.61C55.4207 41.4 55.9207 41.295 56.4707 41.295C57.0207 41.295 57.5207 41.4 57.9707 41.61C58.4207 41.81 58.8057 42.12 59.1257 42.54C59.4457 42.95 59.6907 43.46 59.8607 44.07C60.0407 44.68 60.1307 45.39 60.1307 46.2C60.1307 47.01 60.0407 47.725 59.8607 48.345C59.6907 48.965 59.4457 49.485 59.1257 49.905C58.8057 50.325 58.4207 50.645 57.9707 50.865C57.5207 51.075 57.0207 51.18 56.4707 51.18ZM56.4707 43.005C56.2307 43.005 56.0057 43.055 55.7957 43.155C55.5957 43.255 55.4207 43.43 55.2707 43.68C55.1207 43.92 55.0007 44.245 54.9107 44.655C54.8207 45.065 54.7757 45.58 54.7757 46.2C54.7757 46.82 54.8207 47.34 54.9107 47.76C55.0007 48.17 55.1207 48.505 55.2707 48.765C55.4207 49.015 55.5957 49.195 55.7957 49.305C56.0057 49.415 56.2307 49.47 56.4707 49.47C56.7107 49.47 56.9307 49.415 57.1307 49.305C57.3407 49.195 57.5207 49.015 57.6707 48.765C57.8207 48.505 57.9407 48.17 58.0307 47.76C58.1207 47.34 58.1657 46.82 58.1657 46.2C58.1657 45.58 58.1207 45.065 58.0307 44.655C57.9407 44.245 57.8207 43.92 57.6707 43.68C57.5207 43.43 57.3407 43.255 57.1307 43.155C56.9307 43.055 56.7107 43.005 56.4707 43.005ZM56.4707 47.31C56.1507 47.31 55.8807 47.21 55.6607 47.01C55.4507 46.8 55.3457 46.52 55.3457 46.17C55.3457 45.82 55.4507 45.545 55.6607 45.345C55.8807 45.135 56.1507 45.03 56.4707 45.03C56.7907 45.03 57.0557 45.135 57.2657 45.345C57.4857 45.545 57.5957 45.82 57.5957 46.17C57.5957 46.52 57.4857 46.8 57.2657 47.01C57.0557 47.21 56.7907 47.31 56.4707 47.31ZM45.8716 88C45.9116 87.21 45.9866 86.485 46.0966 85.825C46.2166 85.155 46.3816 84.52 46.5916 83.92C46.8116 83.31 47.0916 82.72 47.4316 82.15C47.7716 81.57 48.1916 80.965 48.6916 80.335H43.9066V78.475H51.0616V79.825C50.4616 80.495 49.9766 81.125 49.6066 81.715C49.2366 82.295 48.9466 82.9 48.7366 83.53C48.5266 84.15 48.3766 84.82 48.2866 85.54C48.1966 86.25 48.1316 87.07 48.0916 88H45.8716ZM56.4707 88.18C55.9207 88.18 55.4207 88.075 54.9707 87.865C54.5207 87.645 54.1357 87.325 53.8157 86.905C53.4957 86.485 53.2457 85.965 53.0657 85.345C52.8957 84.725 52.8107 84.01 52.8107 83.2C52.8107 82.39 52.8957 81.68 53.0657 81.07C53.2457 80.46 53.4957 79.95 53.8157 79.54C54.1357 79.12 54.5207 78.81 54.9707 78.61C55.4207 78.4 55.9207 78.295 56.4707 78.295C57.0207 78.295 57.5207 78.4 57.9707 78.61C58.4207 78.81 58.8057 79.12 59.1257 79.54C59.4457 79.95 59.6907 80.46 59.8607 81.07C60.0407 81.68 60.1307 82.39 60.1307 83.2C60.1307 84.01 60.0407 84.725 59.8607 85.345C59.6907 85.965 59.4457 86.485 59.1257 86.905C58.8057 87.325 58.4207 87.645 57.9707 87.865C57.5207 88.075 57.0207 88.18 56.4707 88.18ZM56.4707 80.005C56.2307 80.005 56.0057 80.055 55.7957 80.155C55.5957 80.255 55.4207 80.43 55.2707 80.68C55.1207 80.92 55.0007 81.245 54.9107 81.655C54.8207 82.065 54.7757 82.58 54.7757 83.2C54.7757 83.82 54.8207 84.34 54.9107 84.76C55.0007 85.17 55.1207 85.505 55.2707 85.765C55.4207 86.015 55.5957 86.195 55.7957 86.305C56.0057 86.415 56.2307 86.47 56.4707 86.47C56.7107 86.47 56.9307 86.415 57.1307 86.305C57.3407 86.195 57.5207 86.015 57.6707 85.765C57.8207 85.505 57.9407 85.17 58.0307 84.76C58.1207 84.34 58.1657 83.82 58.1657 83.2C58.1657 82.58 58.1207 82.065 58.0307 81.655C57.9407 81.245 57.8207 80.92 57.6707 80.68C57.5207 80.43 57.3407 80.255 57.1307 80.155C56.9307 80.055 56.7107 80.005 56.4707 80.005ZM56.4707 84.31C56.1507 84.31 55.8807 84.21 55.6607 84.01C55.4507 83.8 55.3457 83.52 55.3457 83.17C55.3457 82.82 55.4507 82.545 55.6607 82.345C55.8807 82.135 56.1507 82.03 56.4707 82.03C56.7907 82.03 57.0557 82.135 57.2657 82.345C57.4857 82.545 57.5957 82.82 57.5957 83.17C57.5957 83.52 57.4857 83.8 57.2657 84.01C57.0557 84.21 56.7907 84.31 56.4707 84.31ZM44.6566 123.45C44.9766 123.71 45.3166 123.935 45.6766 124.125C46.0466 124.305 46.4566 124.395 46.9066 124.395C47.4466 124.395 47.8866 124.27 48.2266 124.02C48.5766 123.77 48.7516 123.4 48.7516 122.91C48.7516 122.43 48.5866 122.065 48.2566 121.815C47.9366 121.565 47.5216 121.44 47.0116 121.44C46.8516 121.44 46.7066 121.45 46.5766 121.47C46.4566 121.48 46.3366 121.505 46.2166 121.545C46.0966 121.585 45.9716 121.635 45.8416 121.695C45.7116 121.755 45.5666 121.83 45.4066 121.92L44.4316 121.29L44.6866 116.475H50.5216V118.335H46.5916L46.4266 120.12C46.6466 120.04 46.8516 119.985 47.0416 119.955C47.2316 119.915 47.4466 119.895 47.6866 119.895C48.1266 119.895 48.5416 119.955 48.9316 120.075C49.3316 120.195 49.6816 120.375 49.9816 120.615C50.2816 120.855 50.5166 121.16 50.6866 121.53C50.8666 121.9 50.9566 122.34 50.9566 122.85C50.9566 123.38 50.8516 123.85 50.6416 124.26C50.4416 124.67 50.1666 125.02 49.8166 125.31C49.4766 125.59 49.0816 125.805 48.6316 125.955C48.1816 126.105 47.7116 126.18 47.2216 126.18C46.3916 126.18 45.6866 126.055 45.1066 125.805C44.5366 125.545 44.0566 125.225 43.6666 124.845L44.6566 123.45Z" fill="#F0E442"/>
</svg>
