<svg width="242" height="235" viewBox="0 0 242 235" fill="none" xmlns="http://www.w3.org/2000/svg">
<rect width="242" height="235" fill="black"/>
<path d="M8.65021 180.665C8.97021 180.945 9.32521 181.175 9.71521 181.355C10.1152 181.535 10.5352 181.625 10.9752 181.625C11.4952 181.625 11.9202 181.53 12.2502 181.34C12.5902 181.14 12.7602 180.86 12.7602 180.5C12.7602 180.29 12.7152 180.1 12.6252 179.93C12.5352 179.76 12.3802 179.62 12.1602 179.51C11.9402 179.39 11.6452 179.3 11.2752 179.24C10.9052 179.17 10.4402 179.135 9.88021 179.135V177.575C10.8202 177.575 11.4802 177.46 11.8602 177.23C12.2502 176.99 12.4452 176.68 12.4452 176.3C12.4452 175.97 12.3202 175.715 12.0702 175.535C11.8202 175.345 11.4752 175.25 11.0352 175.25C10.6552 175.25 10.3052 175.325 9.98521 175.475C9.66521 175.625 9.34021 175.83 9.01021 176.09L7.90021 174.74C8.37021 174.36 8.87021 174.065 9.40021 173.855C9.94021 173.635 10.5202 173.525 11.1402 173.525C11.6602 173.525 12.1352 173.585 12.5652 173.705C12.9952 173.815 13.3652 173.985 13.6752 174.215C13.9852 174.435 14.2252 174.705 14.3952 175.025C14.5652 175.345 14.6502 175.715 14.6502 176.135C14.6502 176.635 14.4902 177.06 14.1702 177.41C13.8502 177.75 13.4052 178.03 12.8352 178.25V178.31C13.4352 178.47 13.9402 178.745 14.3502 179.135C14.7602 179.515 14.9652 180.015 14.9652 180.635C14.9652 181.075 14.8602 181.47 14.6502 181.82C14.4502 182.16 14.1752 182.45 13.8252 182.69C13.4852 182.92 13.0852 183.1 12.6252 183.23C12.1652 183.35 11.6852 183.41 11.1852 183.41C10.3652 183.41 9.66021 183.29 9.07021 183.05C8.48021 182.8 8.00021 182.47 7.63021 182.06L8.65021 180.665ZM20.4944 183.41C19.9444 183.41 19.4444 183.305 18.9944 183.095C18.5444 182.875 18.1594 182.555 17.8394 182.135C17.5194 181.715 17.2694 181.195 17.0894 180.575C16.9194 179.955 16.8344 179.24 16.8344 178.43C16.8344 177.62 16.9194 176.91 17.0894 176.3C17.2694 175.69 17.5194 175.18 17.8394 174.77C18.1594 174.35 18.5444 174.04 18.9944 173.84C19.4444 173.63 19.9444 173.525 20.4944 173.525C21.0444 173.525 21.5444 173.63 21.9944 173.84C22.4444 174.04 22.8294 174.35 23.1494 174.77C23.4694 175.18 23.7144 175.69 23.8844 176.3C24.0644 176.91 24.1544 177.62 24.1544 178.43C24.1544 179.24 24.0644 179.955 23.8844 180.575C23.7144 181.195 23.4694 181.715 23.1494 182.135C22.8294 182.555 22.4444 182.875 21.9944 183.095C21.5444 183.305 21.0444 183.41 20.4944 183.41ZM20.4944 175.235C20.2544 175.235 20.0294 175.285 19.8194 175.385C19.6194 175.485 19.4444 175.66 19.2944 175.91C19.1444 176.15 19.0244 176.475 18.9344 176.885C18.8444 177.295 18.7994 177.81 18.7994 178.43C18.7994 179.05 18.8444 179.57 18.9344 179.99C19.0244 180.4 19.1444 180.735 19.2944 180.995C19.4444 181.245 19.6194 181.425 19.8194 181.535C20.0294 181.645 20.2544 181.7 20.4944 181.7C20.7344 181.7 20.9544 181.645 21.1544 181.535C21.3644 181.425 21.5444 181.245 21.6944 180.995C21.8444 180.735 21.9644 180.4 22.0544 179.99C22.1444 179.57 22.1894 179.05 22.1894 178.43C22.1894 177.81 22.1444 177.295 22.0544 176.885C21.9644 176.475 21.8444 176.15 21.6944 175.91C21.5444 175.66 21.3644 175.485 21.1544 175.385C20.9544 175.285 20.7344 175.235 20.4944 175.235ZM20.4944 179.54C20.1744 179.54 19.9044 179.44 19.6844 179.24C19.4744 179.03 19.3694 178.75 19.3694 178.4C19.3694 178.05 19.4744 177.775 19.6844 177.575C19.9044 177.365 20.1744 177.26 20.4944 177.26C20.8144 177.26 21.0794 177.365 21.2894 177.575C21.5094 177.775 21.6194 178.05 21.6194 178.4C21.6194 178.75 21.5094 179.03 21.2894 179.24C21.0794 179.44 20.8144 179.54 20.4944 179.54ZM15.0552 200.445V202.23H8.23021V200.445H10.6902V194.94H8.72521V193.575C9.28521 193.475 9.76021 193.355 10.1502 193.215C10.5502 193.075 10.9252 192.905 11.2752 192.705H12.8952V200.445H15.0552ZM20.4944 202.41C19.9444 202.41 19.4444 202.305 18.9944 202.095C18.5444 201.875 18.1594 201.555 17.8394 201.135C17.5194 200.715 17.2694 200.195 17.0894 199.575C16.9194 198.955 16.8344 198.24 16.8344 197.43C16.8344 196.62 16.9194 195.91 17.0894 195.3C17.2694 194.69 17.5194 194.18 17.8394 193.77C18.1594 193.35 18.5444 193.04 18.9944 192.84C19.4444 192.63 19.9444 192.525 20.4944 192.525C21.0444 192.525 21.5444 192.63 21.9944 192.84C22.4444 193.04 22.8294 193.35 23.1494 193.77C23.4694 194.18 23.7144 194.69 23.8844 195.3C24.0644 195.91 24.1544 196.62 24.1544 197.43C24.1544 198.24 24.0644 198.955 23.8844 199.575C23.7144 200.195 23.4694 200.715 23.1494 201.135C22.8294 201.555 22.4444 201.875 21.9944 202.095C21.5444 202.305 21.0444 202.41 20.4944 202.41ZM20.4944 194.235C20.2544 194.235 20.0294 194.285 19.8194 194.385C19.6194 194.485 19.4444 194.66 19.2944 194.91C19.1444 195.15 19.0244 195.475 18.9344 195.885C18.8444 196.295 18.7994 196.81 18.7994 197.43C18.7994 198.05 18.8444 198.57 18.9344 198.99C19.0244 199.4 19.1444 199.735 19.2944 199.995C19.4444 200.245 19.6194 200.425 19.8194 200.535C20.0294 200.645 20.2544 200.7 20.4944 200.7C20.7344 200.7 20.9544 200.645 21.1544 200.535C21.3644 200.425 21.5444 200.245 21.6944 199.995C21.8444 199.735 21.9644 199.4 22.0544 198.99C22.1444 198.57 22.1894 198.05 22.1894 197.43C22.1894 196.81 22.1444 196.295 22.0544 195.885C21.9644 195.475 21.8444 195.15 21.6944 194.91C21.5444 194.66 21.3644 194.485 21.1544 194.385C20.9544 194.285 20.7344 194.235 20.4944 194.235ZM20.4944 198.54C20.1744 198.54 19.9044 198.44 19.6844 198.24C19.4744 198.03 19.3694 197.75 19.3694 197.4C19.3694 197.05 19.4744 196.775 19.6844 196.575C19.9044 196.365 20.1744 196.26 20.4944 196.26C20.8144 196.26 21.0794 196.365 21.2894 196.575C21.5094 196.775 21.6194 197.05 21.6194 197.4C21.6194 197.75 21.5094 198.03 21.2894 198.24C21.0794 198.44 20.8144 198.54 20.4944 198.54ZM29.4885 202.41C28.9385 202.41 28.4385 202.305 27.9885 202.095C27.5385 201.875 27.1535 201.555 26.8335 201.135C26.5135 200.715 26.2635 200.195 26.0835 199.575C25.9135 198.955 25.8285 198.24 25.8285 197.43C25.8285 196.62 25.9135 195.91 26.0835 195.3C26.2635 194.69 26.5135 194.18 26.8335 193.77C27.1535 193.35 27.5385 193.04 27.9885 192.84C28.4385 192.63 28.9385 192.525 29.4885 192.525C30.0385 192.525 30.5385 192.63 30.9885 192.84C31.4385 193.04 31.8235 193.35 32.1435 193.77C32.4635 194.18 32.7085 194.69 32.8785 195.3C33.0585 195.91 33.1485 196.62 33.1485 197.43C33.1485 198.24 33.0585 198.955 32.8785 199.575C32.7085 200.195 32.4635 200.715 32.1435 201.135C31.8235 201.555 31.4385 201.875 30.9885 202.095C30.5385 202.305 30.0385 202.41 29.4885 202.41ZM29.4885 194.235C29.2485 194.235 29.0235 194.285 28.8135 194.385C28.6135 194.485 28.4385 194.66 28.2885 194.91C28.1385 195.15 28.0185 195.475 27.9285 195.885C27.8385 196.295 27.7935 196.81 27.7935 197.43C27.7935 198.05 27.8385 198.57 27.9285 198.99C28.0185 199.4 28.1385 199.735 28.2885 199.995C28.4385 200.245 28.6135 200.425 28.8135 200.535C29.0235 200.645 29.2485 200.7 29.4885 200.7C29.7285 200.7 29.9485 200.645 30.1485 200.535C30.3585 200.425 30.5385 200.245 30.6885 199.995C30.8385 199.735 30.9585 199.4 31.0485 198.99C31.1385 198.57 31.1835 198.05 31.1835 197.43C31.1835 196.81 31.1385 196.295 31.0485 195.885C30.9585 195.475 30.8385 195.15 30.6885 194.91C30.5385 194.66 30.3585 194.485 30.1485 194.385C29.9485 194.285 29.7285 194.235 29.4885 194.235ZM29.4885 198.54C29.1685 198.54 28.8985 198.44 28.6785 198.24C28.4685 198.03 28.3635 197.75 28.3635 197.4C28.3635 197.05 28.4685 196.775 28.6785 196.575C28.8985 196.365 29.1685 196.26 29.4885 196.26C29.8085 196.26 30.0735 196.365 30.2835 196.575C30.5035 196.775 30.6135 197.05 30.6135 197.4C30.6135 197.75 30.5035 198.03 30.2835 198.24C30.0735 198.44 29.8085 198.54 29.4885 198.54ZM15.0552 218.445V220.23H8.23021V218.445H10.6902V212.94H8.72521V211.575C9.28521 211.475 9.76021 211.355 10.1502 211.215C10.5502 211.075 10.9252 210.905 11.2752 210.705H12.8952V218.445H15.0552ZM20.4944 220.41C19.9444 220.41 19.4444 220.305 18.9944 220.095C18.5444 219.875 18.1594 219.555 17.8394 219.135C17.5194 218.715 17.2694 218.195 17.0894 217.575C16.9194 216.955 16.8344 216.24 16.8344 215.43C16.8344 214.62 16.9194 213.91 17.0894 213.3C17.2694 212.69 17.5194 212.18 17.8394 211.77C18.1594 211.35 18.5444 211.04 18.9944 210.84C19.4444 210.63 19.9444 210.525 20.4944 210.525C21.0444 210.525 21.5444 210.63 21.9944 210.84C22.4444 211.04 22.8294 211.35 23.1494 211.77C23.4694 212.18 23.7144 212.69 23.8844 213.3C24.0644 213.91 24.1544 214.62 24.1544 215.43C24.1544 216.24 24.0644 216.955 23.8844 217.575C23.7144 218.195 23.4694 218.715 23.1494 219.135C22.8294 219.555 22.4444 219.875 21.9944 220.095C21.5444 220.305 21.0444 220.41 20.4944 220.41ZM20.4944 212.235C20.2544 212.235 20.0294 212.285 19.8194 212.385C19.6194 212.485 19.4444 212.66 19.2944 212.91C19.1444 213.15 19.0244 213.475 18.9344 213.885C18.8444 214.295 18.7994 214.81 18.7994 215.43C18.7994 216.05 18.8444 216.57 18.9344 216.99C19.0244 217.4 19.1444 217.735 19.2944 217.995C19.4444 218.245 19.6194 218.425 19.8194 218.535C20.0294 218.645 20.2544 218.7 20.4944 218.7C20.7344 218.7 20.9544 218.645 21.1544 218.535C21.3644 218.425 21.5444 218.245 21.6944 217.995C21.8444 217.735 21.9644 217.4 22.0544 216.99C22.1444 216.57 22.1894 216.05 22.1894 215.43C22.1894 214.81 22.1444 214.295 22.0544 213.885C21.9644 213.475 21.8444 213.15 21.6944 212.91C21.5444 212.66 21.3644 212.485 21.1544 212.385C20.9544 212.285 20.7344 212.235 20.4944 212.235ZM20.4944 216.54C20.1744 216.54 19.9044 216.44 19.6844 216.24C19.4744 216.03 19.3694 215.75 19.3694 215.4C19.3694 215.05 19.4744 214.775 19.6844 214.575C19.9044 214.365 20.1744 214.26 20.4944 214.26C20.8144 214.26 21.0794 214.365 21.2894 214.575C21.5094 214.775 21.6194 215.05 21.6194 215.4C21.6194 215.75 21.5094 216.03 21.2894 216.24C21.0794 216.44 20.8144 216.54 20.4944 216.54ZM29.4885 220.41C28.9385 220.41 28.4385 220.305 27.9885 220.095C27.5385 219.875 27.1535 219.555 26.8335 219.135C26.5135 218.715 26.2635 218.195 26.0835 217.575C25.9135 216.955 25.8285 216.24 25.8285 215.43C25.8285 214.62 25.9135 213.91 26.0835 213.3C26.2635 212.69 26.5135 212.18 26.8335 211.77C27.1535 211.35 27.5385 211.04 27.9885 210.84C28.4385 210.63 28.9385 210.525 29.4885 210.525C30.0385 210.525 30.5385 210.63 30.9885 210.84C31.4385 211.04 31.8235 211.35 32.1435 211.77C32.4635 212.18 32.7085 212.69 32.8785 213.3C33.0585 213.91 33.1485 214.62 33.1485 215.43C33.1485 216.24 33.0585 216.955 32.8785 217.575C32.7085 218.195 32.4635 218.715 32.1435 219.135C31.8235 219.555 31.4385 219.875 30.9885 220.095C30.5385 220.305 30.0385 220.41 29.4885 220.41ZM29.4885 212.235C29.2485 212.235 29.0235 212.285 28.8135 212.385C28.6135 212.485 28.4385 212.66 28.2885 212.91C28.1385 213.15 28.0185 213.475 27.9285 213.885C27.8385 214.295 27.7935 214.81 27.7935 215.43C27.7935 216.05 27.8385 216.57 27.9285 216.99C28.0185 217.4 28.1385 217.735 28.2885 217.995C28.4385 218.245 28.6135 218.425 28.8135 218.535C29.0235 218.645 29.2485 218.7 29.4885 218.7C29.7285 218.7 29.9485 218.645 30.1485 218.535C30.3585 218.425 30.5385 218.245 30.6885 217.995C30.8385 217.735 30.9585 217.4 31.0485 216.99C31.1385 216.57 31.1835 216.05 31.1835 215.43C31.1835 214.81 31.1385 214.295 31.0485 213.885C30.9585 213.475 30.8385 213.15 30.6885 212.91C30.5385 212.66 30.3585 212.485 30.1485 212.385C29.9485 212.285 29.7285 212.235 29.4885 212.235ZM29.4885 216.54C29.1685 216.54 28.8985 216.44 28.6785 216.24C28.4685 216.03 28.3635 215.75 28.3635 215.4C28.3635 215.05 28.4685 214.775 28.6785 214.575C28.8985 214.365 29.1685 214.26 29.4885 214.26C29.8085 214.26 30.0735 214.365 30.2835 214.575C30.5035 214.775 30.6135 215.05 30.6135 215.4C30.6135 215.75 30.5035 216.03 30.2835 216.24C30.0735 216.44 29.8085 216.54 29.4885 216.54Z" fill="white"/>
<path d="M11.5 164.18C10.92 164.18 10.385 164.065 9.895 163.835C9.415 163.595 9 163.255 8.65 162.815C8.31 162.375 8.045 161.84 7.855 161.21C7.665 160.58 7.57 159.865 7.57 159.065C7.57 158.265 7.665 157.555 7.855 156.935C8.045 156.305 8.31 155.78 8.65 155.36C9 154.93 9.415 154.605 9.895 154.385C10.385 154.155 10.92 154.04 11.5 154.04C12.08 154.04 12.61 154.155 13.09 154.385C13.58 154.605 13.995 154.93 14.335 155.36C14.685 155.79 14.955 156.32 15.145 156.95C15.335 157.57 15.43 158.275 15.43 159.065C15.43 159.865 15.335 160.58 15.145 161.21C14.955 161.84 14.685 162.375 14.335 162.815C13.995 163.255 13.58 163.595 13.09 163.835C12.61 164.065 12.08 164.18 11.5 164.18ZM11.5 162.275C12.01 162.275 12.415 161.99 12.715 161.42C13.015 160.84 13.165 160.055 13.165 159.065C13.165 158.085 13.015 157.32 12.715 156.77C12.415 156.22 12.01 155.945 11.5 155.945C10.99 155.945 10.585 156.22 10.285 156.77C9.985 157.32 9.835 158.085 9.835 159.065C9.835 160.055 9.985 160.84 10.285 161.42C10.585 161.99 10.99 162.275 11.5 162.275ZM23.8691 164H22.0691L21.9041 162.935H21.8441C21.5141 163.315 21.1491 163.62 20.7491 163.85C20.3491 164.07 19.8791 164.18 19.3391 164.18C18.4891 164.18 17.8741 163.91 17.4941 163.37C17.1141 162.83 16.9241 162.09 16.9241 161.15V156.56H19.1291V160.865C19.1291 161.365 19.2041 161.73 19.3541 161.96C19.5041 162.19 19.7891 162.305 20.2091 162.305C20.4891 162.305 20.7341 162.245 20.9441 162.125C21.1641 162.005 21.4041 161.78 21.6641 161.45V156.56H23.8691V164ZM27.5983 158.285H25.7233V156.65L27.7033 156.56L27.9883 154.58H29.8033V156.56H32.9533V158.285H29.8033V160.895C29.8033 161.465 29.9283 161.87 30.1783 162.11C30.4283 162.34 30.8233 162.455 31.3633 162.455C31.6533 162.455 31.9183 162.43 32.1583 162.38C32.3983 162.33 32.6283 162.265 32.8483 162.185L33.2383 163.775C32.9083 163.875 32.5383 163.965 32.1283 164.045C31.7283 164.135 31.2883 164.18 30.8083 164.18C30.2183 164.18 29.7183 164.1 29.3083 163.94C28.8983 163.78 28.5633 163.56 28.3033 163.28C28.0533 162.99 27.8733 162.645 27.7633 162.245C27.6533 161.845 27.5983 161.4 27.5983 160.91V158.285ZM37.2674 164.585V166.76H35.0624V156.56H36.8624L37.0274 157.31H37.0724C37.3724 157.04 37.7174 156.82 38.1074 156.65C38.4974 156.47 38.8924 156.38 39.2924 156.38C39.7524 156.38 40.1674 156.47 40.5374 156.65C40.9074 156.83 41.2224 157.085 41.4824 157.415C41.7424 157.745 41.9374 158.145 42.0674 158.615C42.2074 159.075 42.2774 159.59 42.2774 160.16C42.2774 160.8 42.1874 161.37 42.0074 161.87C41.8274 162.36 41.5874 162.78 41.2874 163.13C40.9874 163.47 40.6424 163.73 40.2524 163.91C39.8724 164.09 39.4724 164.18 39.0524 164.18C38.3724 164.18 37.7524 163.91 37.1924 163.37L37.2674 164.585ZM37.2674 161.885C37.4774 162.065 37.6924 162.195 37.9124 162.275C38.1424 162.345 38.3524 162.38 38.5424 162.38C38.9624 162.38 39.3124 162.21 39.5924 161.87C39.8724 161.52 40.0124 160.96 40.0124 160.19C40.0124 158.85 39.5574 158.18 38.6474 158.18C38.1774 158.18 37.7174 158.41 37.2674 158.87V161.885ZM50.8516 164H49.0516L48.8866 162.935H48.8266C48.4966 163.315 48.1316 163.62 47.7316 163.85C47.3316 164.07 46.8616 164.18 46.3216 164.18C45.4716 164.18 44.8566 163.91 44.4766 163.37C44.0966 162.83 43.9066 162.09 43.9066 161.15V156.56H46.1116V160.865C46.1116 161.365 46.1866 161.73 46.3366 161.96C46.4866 162.19 46.7716 162.305 47.1916 162.305C47.4716 162.305 47.7166 162.245 47.9266 162.125C48.1466 162.005 48.3866 161.78 48.6466 161.45V156.56H50.8516V164ZM54.5807 158.285H52.7057V156.65L54.6857 156.56L54.9707 154.58H56.7857V156.56H59.9357V158.285H56.7857V160.895C56.7857 161.465 56.9107 161.87 57.1607 162.11C57.4107 162.34 57.8057 162.455 58.3457 162.455C58.6357 162.455 58.9007 162.43 59.1407 162.38C59.3807 162.33 59.6107 162.265 59.8307 162.185L60.2207 163.775C59.8907 163.875 59.5207 163.965 59.1107 164.045C58.7107 164.135 58.2707 164.18 57.7907 164.18C57.2007 164.18 56.7007 164.1 56.2907 163.94C55.8807 163.78 55.5457 163.56 55.2857 163.28C55.0357 162.99 54.8557 162.645 54.7457 162.245C54.6357 161.845 54.5807 161.4 54.5807 160.91V158.285Z" fill="white"/>
<rect x="96.75" width="145.25" height="30.6018" fill="#333333"/>
<rect x="96.75" width="145.25" height="30.6018" fill="#333333"/>
<rect width="97.1974" height="30.6018" fill="#090808"/>
<path d="M18.105 17.8101C18.105 17.5513 17.9756 17.3486 17.7168 17.2021C17.4629 17.0508 17.0527 16.9165 16.4863 16.7993C14.6016 16.4038 13.6592 15.603 13.6592 14.397C13.6592 13.6938 13.9497 13.1079 14.5308 12.6392C15.1167 12.1655 15.8809 11.9287 16.8232 11.9287C17.8291 11.9287 18.6323 12.1655 19.2329 12.6392C19.8384 13.1128 20.1411 13.728 20.1411 14.4849H18.0244C18.0244 14.1821 17.9268 13.9331 17.7314 13.7378C17.5361 13.5376 17.231 13.4375 16.8159 13.4375C16.4595 13.4375 16.1836 13.5181 15.9883 13.6792C15.793 13.8403 15.6953 14.0454 15.6953 14.2944C15.6953 14.5288 15.8052 14.7192 16.0249 14.8657C16.2495 15.0073 16.6255 15.1318 17.1528 15.2393C17.6802 15.3418 18.1245 15.459 18.4858 15.5908C19.604 16.001 20.1631 16.7114 20.1631 17.7222C20.1631 18.4448 19.853 19.0308 19.2329 19.48C18.6128 19.9243 17.812 20.1465 16.8306 20.1465C16.1665 20.1465 15.5757 20.0293 15.0581 19.7949C14.5454 19.5557 14.1426 19.231 13.8496 18.8208C13.5566 18.4058 13.4102 17.959 13.4102 17.4805H15.417C15.4365 17.8564 15.5757 18.1445 15.8345 18.3447C16.0933 18.5449 16.4399 18.645 16.8745 18.645C17.2798 18.645 17.585 18.5693 17.79 18.418C18 18.2617 18.105 18.0591 18.105 17.8101ZM24.8286 18.4399C25.2192 18.4399 25.5366 18.3325 25.7808 18.1177C26.0249 17.9028 26.1519 17.6172 26.1616 17.2607H28.1465C28.1416 17.7979 27.9951 18.291 27.707 18.7402C27.4189 19.1846 27.0234 19.5312 26.5205 19.7803C26.0225 20.0244 25.4707 20.1465 24.8652 20.1465C23.7324 20.1465 22.8389 19.7876 22.1846 19.0698C21.5303 18.3472 21.2031 17.3511 21.2031 16.0815V15.9424C21.2031 14.7217 21.5278 13.7476 22.1772 13.02C22.8267 12.2925 23.7178 11.9287 24.8506 11.9287C25.8418 11.9287 26.6353 12.2119 27.231 12.7783C27.8315 13.3398 28.1367 14.0894 28.1465 15.0269H26.1616C26.1519 14.6167 26.0249 14.2847 25.7808 14.0308C25.5366 13.772 25.2144 13.6426 24.814 13.6426C24.3208 13.6426 23.9473 13.8232 23.6934 14.1846C23.4443 14.541 23.3198 15.1221 23.3198 15.9277V16.1475C23.3198 16.9629 23.4443 17.5488 23.6934 17.9053C23.9424 18.2617 24.3208 18.4399 24.8286 18.4399ZM33.8081 14.0601C33.52 14.021 33.2661 14.0015 33.0464 14.0015C32.2456 14.0015 31.7207 14.2725 31.4717 14.8145V20H29.355V12.0752H31.3545L31.4131 13.02C31.8379 12.2925 32.4263 11.9287 33.1782 11.9287C33.4126 11.9287 33.6323 11.9604 33.8374 12.0239L33.8081 14.0601ZM37.0674 20H34.9434V12.0752H37.0674V20ZM34.8188 10.0244C34.8188 9.70703 34.9238 9.4458 35.1338 9.24072C35.3486 9.03564 35.6392 8.93311 36.0054 8.93311C36.3667 8.93311 36.6548 9.03564 36.8696 9.24072C37.0845 9.4458 37.1919 9.70703 37.1919 10.0244C37.1919 10.3467 37.082 10.6104 36.8623 10.8154C36.6475 11.0205 36.3618 11.123 36.0054 11.123C35.6489 11.123 35.3608 11.0205 35.1411 10.8154C34.9263 10.6104 34.8188 10.3467 34.8188 10.0244ZM45.9517 16.1108C45.9517 17.3315 45.6733 18.3105 45.1167 19.0479C44.5649 19.7803 43.8179 20.1465 42.8755 20.1465C42.0747 20.1465 41.4277 19.8682 40.9346 19.3115V23.0469H38.8179V12.0752H40.7808L40.854 12.8516C41.3667 12.2363 42.0356 11.9287 42.8608 11.9287C43.8374 11.9287 44.5967 12.29 45.1387 13.0127C45.6807 13.7354 45.9517 14.7314 45.9517 16.001V16.1108ZM43.835 15.957C43.835 15.2197 43.7031 14.6509 43.4395 14.2505C43.1807 13.8501 42.8022 13.6499 42.3042 13.6499C41.6401 13.6499 41.1836 13.9038 40.9346 14.4116V17.6562C41.1934 18.1787 41.6548 18.4399 42.3188 18.4399C43.3296 18.4399 43.835 17.6123 43.835 15.957ZM49.8042 10.127V12.0752H51.1592V13.6279H49.8042V17.583C49.8042 17.876 49.8604 18.0859 49.9727 18.2129C50.085 18.3398 50.2998 18.4033 50.6172 18.4033C50.8516 18.4033 51.0591 18.3862 51.2397 18.3521V19.9561C50.8247 20.083 50.3975 20.1465 49.958 20.1465C48.4736 20.1465 47.7168 19.397 47.6875 17.8979V13.6279H46.5303V12.0752H47.6875V10.127H49.8042ZM52.4482 18.96C52.4482 18.623 52.5605 18.3496 52.7852 18.1396C53.0146 17.9297 53.3003 17.8247 53.6421 17.8247C53.9888 17.8247 54.2744 17.9297 54.499 18.1396C54.7285 18.3496 54.8433 18.623 54.8433 18.96C54.8433 19.292 54.731 19.563 54.5063 19.7729C54.2817 19.978 53.9937 20.0806 53.6421 20.0806C53.2954 20.0806 53.0098 19.978 52.7852 19.7729C52.5605 19.563 52.4482 19.292 52.4482 18.96ZM63.8374 16.1108C63.8374 17.3315 63.5591 18.3105 63.0024 19.0479C62.4507 19.7803 61.7036 20.1465 60.7612 20.1465C59.9604 20.1465 59.3135 19.8682 58.8203 19.3115V23.0469H56.7036V12.0752H58.6665L58.7397 12.8516C59.2524 12.2363 59.9214 11.9287 60.7466 11.9287C61.7231 11.9287 62.4824 12.29 63.0244 13.0127C63.5664 13.7354 63.8374 14.7314 63.8374 16.001V16.1108ZM61.7207 15.957C61.7207 15.2197 61.5889 14.6509 61.3252 14.2505C61.0664 13.8501 60.688 13.6499 60.1899 13.6499C59.5259 13.6499 59.0693 13.9038 58.8203 14.4116V17.6562C59.0791 18.1787 59.5405 18.4399 60.2046 18.4399C61.2153 18.4399 61.7207 17.6123 61.7207 15.957ZM68.0269 17.0044L69.4917 12.0752H71.7622L68.5762 21.2305L68.4004 21.6479C67.9268 22.6831 67.1455 23.2007 66.0566 23.2007C65.749 23.2007 65.4365 23.1543 65.1191 23.0615V21.4575L65.4414 21.4648C65.8418 21.4648 66.1396 21.4038 66.335 21.2817C66.5352 21.1597 66.6914 20.957 66.8037 20.6738L67.0527 20.022L64.2769 12.0752H66.5547L68.0269 17.0044Z" fill="white"/>
<line y1="143.5" x2="242" y2="143.5" stroke="white"/>
<path d="M10.135 47.13L7.72 43.56H10.09L10.855 44.76C10.965 44.97 11.09 45.185 11.23 45.405C11.37 45.615 11.505 45.825 11.635 46.035H11.695C11.795 45.825 11.895 45.61 11.995 45.39C12.105 45.17 12.21 44.96 12.31 44.76L12.97 43.56H15.28L12.85 47.385L15.43 51H13.06L12.205 49.77C12.065 49.56 11.92 49.345 11.77 49.125C11.63 48.905 11.49 48.69 11.35 48.48H11.29C11.18 48.69 11.065 48.905 10.945 49.125C10.825 49.335 10.71 49.55 10.6 49.77L9.865 51H7.555L10.135 47.13ZM57.8507 72.685C56.8707 71.815 56.0957 70.81 55.5257 69.67C54.9657 68.53 54.6857 67.25 54.6857 65.83C54.6857 64.41 54.9657 63.13 55.5257 61.99C56.0957 60.85 56.8707 59.845 57.8507 58.975L59.0807 59.95C58.1907 60.82 57.5407 61.725 57.1307 62.665C56.7307 63.595 56.5307 64.65 56.5307 65.83C56.5307 66.42 56.5807 66.98 56.6807 67.51C56.7807 68.03 56.9307 68.53 57.1307 69.01C57.3407 69.49 57.6057 69.95 57.9257 70.39C58.2457 70.84 58.6307 71.28 59.0807 71.71L57.8507 72.685ZM64.0998 66.13L61.6848 62.56H64.0548L64.8198 63.76C64.9298 63.97 65.0548 64.185 65.1948 64.405C65.3348 64.615 65.4698 64.825 65.5998 65.035H65.6598C65.7598 64.825 65.8598 64.61 65.9598 64.39C66.0698 64.17 66.1748 63.96 66.2748 63.76L66.9348 62.56H69.2448L66.8148 66.385L69.3948 70H67.0248L66.1698 68.77C66.0298 68.56 65.8848 68.345 65.7348 68.125C65.5948 67.905 65.4548 67.69 65.3148 67.48H65.2548C65.1448 67.69 65.0298 67.905 64.9098 68.125C64.7898 68.335 64.6748 68.55 64.5648 68.77L63.8298 70H61.5198L64.0998 66.13ZM71.849 71.71C72.299 71.28 72.684 70.84 73.004 70.39C73.324 69.95 73.584 69.49 73.784 69.01C73.994 68.53 74.149 68.03 74.249 67.51C74.349 66.98 74.399 66.42 74.399 65.83C74.399 64.65 74.194 63.595 73.784 62.665C73.384 61.725 72.739 60.82 71.849 59.95L73.079 58.975C74.059 59.845 74.829 60.85 75.389 61.99C75.959 63.13 76.244 64.41 76.244 65.83C76.244 67.25 75.959 68.53 75.389 69.67C74.829 70.81 74.059 71.815 73.079 72.685L71.849 71.71ZM57.8507 90.685C56.8707 89.815 56.0957 88.81 55.5257 87.67C54.9657 86.53 54.6857 85.25 54.6857 83.83C54.6857 82.41 54.9657 81.13 55.5257 79.99C56.0957 78.85 56.8707 77.845 57.8507 76.975L59.0807 77.95C58.1907 78.82 57.5407 79.725 57.1307 80.665C56.7307 81.595 56.5307 82.65 56.5307 83.83C56.5307 84.42 56.5807 84.98 56.6807 85.51C56.7807 86.03 56.9307 86.53 57.1307 87.01C57.3407 87.49 57.6057 87.95 57.9257 88.39C58.2457 88.84 58.6307 89.28 59.0807 89.71L57.8507 90.685ZM64.0998 84.13L61.6848 80.56H64.0548L64.8198 81.76C64.9298 81.97 65.0548 82.185 65.1948 82.405C65.3348 82.615 65.4698 82.825 65.5998 83.035H65.6598C65.7598 82.825 65.8598 82.61 65.9598 82.39C66.0698 82.17 66.1748 81.96 66.2748 81.76L66.9348 80.56H69.2448L66.8148 84.385L69.3948 88H67.0248L66.1698 86.77C66.0298 86.56 65.8848 86.345 65.7348 86.125C65.5948 85.905 65.4548 85.69 65.3148 85.48H65.2548C65.1448 85.69 65.0298 85.905 64.9098 86.125C64.7898 86.335 64.6748 86.55 64.5648 86.77L63.8298 88H61.5198L64.0998 84.13ZM116.82 89.71C117.27 89.28 117.655 88.84 117.975 88.39C118.295 87.95 118.555 87.49 118.755 87.01C118.965 86.53 119.12 86.03 119.22 85.51C119.32 84.98 119.37 84.42 119.37 83.83C119.37 82.65 119.165 81.595 118.755 80.665C118.355 79.725 117.71 78.82 116.82 77.95L118.05 76.975C119.03 77.845 119.8 78.85 120.36 79.99C120.93 81.13 121.215 82.41 121.215 83.83C121.215 85.25 120.93 86.53 120.36 87.67C119.8 88.81 119.03 89.815 118.05 90.685L116.82 89.71ZM10.135 103.13L7.72 99.56H10.09L10.855 100.76C10.965 100.97 11.09 101.185 11.23 101.405C11.37 101.615 11.505 101.825 11.635 102.035H11.695C11.795 101.825 11.895 101.61 11.995 101.39C12.105 101.17 12.21 100.96 12.31 100.76L12.97 99.56H15.28L12.85 103.385L15.43 107H13.06L12.205 105.77C12.065 105.56 11.92 105.345 11.77 105.125C11.63 104.905 11.49 104.69 11.35 104.48H11.29C11.18 104.69 11.065 104.905 10.945 105.125C10.825 105.335 10.71 105.55 10.6 105.77L9.865 107H7.555L10.135 103.13ZM46.1116 103.13L43.6966 99.56H46.0666L46.8316 100.76C46.9416 100.97 47.0666 101.185 47.2066 101.405C47.3466 101.615 47.4816 101.825 47.6116 102.035H47.6716C47.7716 101.825 47.8716 101.61 47.9716 101.39C48.0816 101.17 48.1866 100.96 48.2866 100.76L48.9466 99.56H51.2566L48.8266 103.385L51.4066 107H49.0366L48.1816 105.77C48.0416 105.56 47.8966 105.345 47.7466 105.125C47.6066 104.905 47.4666 104.69 47.3266 104.48H47.2666C47.1566 104.69 47.0416 104.905 46.9216 105.125C46.8016 105.335 46.6866 105.55 46.5766 105.77L45.8416 107H43.5316L46.1116 103.13ZM57.8507 128.685C56.8707 127.815 56.0957 126.81 55.5257 125.67C54.9657 124.53 54.6857 123.25 54.6857 121.83C54.6857 120.41 54.9657 119.13 55.5257 117.99C56.0957 116.85 56.8707 115.845 57.8507 114.975L59.0807 115.95C58.1907 116.82 57.5407 117.725 57.1307 118.665C56.7307 119.595 56.5307 120.65 56.5307 121.83C56.5307 122.42 56.5807 122.98 56.6807 123.51C56.7807 124.03 56.9307 124.53 57.1307 125.01C57.3407 125.49 57.6057 125.95 57.9257 126.39C58.2457 126.84 58.6307 127.28 59.0807 127.71L57.8507 128.685ZM64.0998 122.13L61.6848 118.56H64.0548L64.8198 119.76C64.9298 119.97 65.0548 120.185 65.1948 120.405C65.3348 120.615 65.4698 120.825 65.5998 121.035H65.6598C65.7598 120.825 65.8598 120.61 65.9598 120.39C66.0698 120.17 66.1748 119.96 66.2748 119.76L66.9348 118.56H69.2448L66.8148 122.385L69.3948 126H67.0248L66.1698 124.77C66.0298 124.56 65.8848 124.345 65.7348 124.125C65.5948 123.905 65.4548 123.69 65.3148 123.48H65.2548C65.1448 123.69 65.0298 123.905 64.9098 124.125C64.7898 124.335 64.6748 124.55 64.5648 124.77L63.8298 126H61.5198L64.0998 122.13ZM71.849 127.71C72.299 127.28 72.684 126.84 73.004 126.39C73.324 125.95 73.584 125.49 73.784 125.01C73.994 124.53 74.149 124.03 74.249 123.51C74.349 122.98 74.399 122.42 74.399 121.83C74.399 120.65 74.194 119.595 73.784 118.665C73.384 117.725 72.739 116.82 71.849 115.95L73.079 114.975C74.059 115.845 74.829 116.85 75.389 117.99C75.959 119.13 76.244 120.41 76.244 121.83C76.244 123.25 75.959 124.53 75.389 125.67C74.829 126.81 74.059 127.815 73.079 128.685L71.849 127.71Z" fill="white"/>
<path d="M10.285 70.585V72.76H8.08V62.56H9.88L10.045 63.31H10.09C10.39 63.04 10.735 62.82 11.125 62.65C11.515 62.47 11.91 62.38 12.31 62.38C12.77 62.38 13.185 62.47 13.555 62.65C13.925 62.83 14.24 63.085 14.5 63.415C14.76 63.745 14.955 64.145 15.085 64.615C15.225 65.075 15.295 65.59 15.295 66.16C15.295 66.8 15.205 67.37 15.025 67.87C14.845 68.36 14.605 68.78 14.305 69.13C14.005 69.47 13.66 69.73 13.27 69.91C12.89 70.09 12.49 70.18 12.07 70.18C11.39 70.18 10.77 69.91 10.21 69.37L10.285 70.585ZM10.285 67.885C10.495 68.065 10.71 68.195 10.93 68.275C11.16 68.345 11.37 68.38 11.56 68.38C11.98 68.38 12.33 68.21 12.61 67.87C12.89 67.52 13.03 66.96 13.03 66.19C13.03 64.85 12.575 64.18 11.665 64.18C11.195 64.18 10.735 64.41 10.285 64.87V67.885ZM17.7341 62.56H19.5341L19.7141 64.18H19.7591C20.1291 63.57 20.5741 63.12 21.0941 62.83C21.6141 62.53 22.1741 62.38 22.7741 62.38C23.1041 62.38 23.3691 62.405 23.5691 62.455C23.7791 62.505 23.9941 62.58 24.2141 62.68L23.7641 64.525C23.5341 64.455 23.3241 64.405 23.1341 64.375C22.9541 64.335 22.7241 64.315 22.4441 64.315C21.9841 64.315 21.5291 64.45 21.0791 64.72C20.6391 64.99 20.2591 65.46 19.9391 66.13V70H17.7341V62.56ZM26.1733 62.56H31.3633V70H29.1583V64.285H26.1733V62.56ZM30.1633 61.465C29.7333 61.465 29.3783 61.345 29.0983 61.105C28.8283 60.865 28.6933 60.54 28.6933 60.13C28.6933 59.72 28.8283 59.39 29.0983 59.14C29.3783 58.88 29.7333 58.75 30.1633 58.75C30.5933 58.75 30.9433 58.88 31.2133 59.14C31.4933 59.39 31.6333 59.72 31.6333 60.13C31.6333 60.54 31.4933 60.865 31.2133 61.105C30.9433 61.345 30.5933 61.465 30.1633 61.465ZM35.0624 62.56H36.8624L37.0274 63.55H37.0874C37.4074 63.23 37.7724 62.955 38.1824 62.725C38.6024 62.495 39.0924 62.38 39.6524 62.38C40.4924 62.38 41.1074 62.65 41.4974 63.19C41.8874 63.73 42.0824 64.47 42.0824 65.41V70H39.8774V65.695C39.8774 65.195 39.7974 64.83 39.6374 64.6C39.4774 64.37 39.1924 64.255 38.7824 64.255C38.4824 64.255 38.2174 64.32 37.9874 64.45C37.7674 64.58 37.5274 64.775 37.2674 65.035V70H35.0624V62.56ZM45.5866 64.285H43.7116V62.65L45.6916 62.56L45.9766 60.58H47.7916V62.56H50.9416V64.285H47.7916V66.895C47.7916 67.465 47.9166 67.87 48.1666 68.11C48.4166 68.34 48.8116 68.455 49.3516 68.455C49.6416 68.455 49.9066 68.43 50.1466 68.38C50.3866 68.33 50.6166 68.265 50.8366 68.185L51.2266 69.775C50.8966 69.875 50.5266 69.965 50.1166 70.045C49.7166 70.135 49.2766 70.18 48.7966 70.18C48.2066 70.18 47.7066 70.1 47.2966 69.94C46.8866 69.78 46.5516 69.56 46.2916 69.28C46.0416 68.99 45.8616 68.645 45.7516 68.245C45.6416 67.845 45.5866 67.4 45.5866 66.91V64.285ZM10.285 88.585V90.76H8.08V80.56H9.88L10.045 81.31H10.09C10.39 81.04 10.735 80.82 11.125 80.65C11.515 80.47 11.91 80.38 12.31 80.38C12.77 80.38 13.185 80.47 13.555 80.65C13.925 80.83 14.24 81.085 14.5 81.415C14.76 81.745 14.955 82.145 15.085 82.615C15.225 83.075 15.295 83.59 15.295 84.16C15.295 84.8 15.205 85.37 15.025 85.87C14.845 86.36 14.605 86.78 14.305 87.13C14.005 87.47 13.66 87.73 13.27 87.91C12.89 88.09 12.49 88.18 12.07 88.18C11.39 88.18 10.77 87.91 10.21 87.37L10.285 88.585ZM10.285 85.885C10.495 86.065 10.71 86.195 10.93 86.275C11.16 86.345 11.37 86.38 11.56 86.38C11.98 86.38 12.33 86.21 12.61 85.87C12.89 85.52 13.03 84.96 13.03 84.19C13.03 82.85 12.575 82.18 11.665 82.18C11.195 82.18 10.735 82.41 10.285 82.87V85.885ZM17.7341 80.56H19.5341L19.7141 82.18H19.7591C20.1291 81.57 20.5741 81.12 21.0941 80.83C21.6141 80.53 22.1741 80.38 22.7741 80.38C23.1041 80.38 23.3691 80.405 23.5691 80.455C23.7791 80.505 23.9941 80.58 24.2141 80.68L23.7641 82.525C23.5341 82.455 23.3241 82.405 23.1341 82.375C22.9541 82.335 22.7241 82.315 22.4441 82.315C21.9841 82.315 21.5291 82.45 21.0791 82.72C20.6391 82.99 20.2591 83.46 19.9391 84.13V88H17.7341V80.56ZM26.1733 80.56H31.3633V88H29.1583V82.285H26.1733V80.56ZM30.1633 79.465C29.7333 79.465 29.3783 79.345 29.0983 79.105C28.8283 78.865 28.6933 78.54 28.6933 78.13C28.6933 77.72 28.8283 77.39 29.0983 77.14C29.3783 76.88 29.7333 76.75 30.1633 76.75C30.5933 76.75 30.9433 76.88 31.2133 77.14C31.4933 77.39 31.6333 77.72 31.6333 78.13C31.6333 78.54 31.4933 78.865 31.2133 79.105C30.9433 79.345 30.5933 79.465 30.1633 79.465ZM35.0624 80.56H36.8624L37.0274 81.55H37.0874C37.4074 81.23 37.7724 80.955 38.1824 80.725C38.6024 80.495 39.0924 80.38 39.6524 80.38C40.4924 80.38 41.1074 80.65 41.4974 81.19C41.8874 81.73 42.0824 82.47 42.0824 83.41V88H39.8774V83.695C39.8774 83.195 39.7974 82.83 39.6374 82.6C39.4774 82.37 39.1924 82.255 38.7824 82.255C38.4824 82.255 38.2174 82.32 37.9874 82.45C37.7674 82.58 37.5274 82.775 37.2674 83.035V88H35.0624V80.56ZM45.5866 82.285H43.7116V80.65L45.6916 80.56L45.9766 78.58H47.7916V80.56H50.9416V82.285H47.7916V84.895C47.7916 85.465 47.9166 85.87 48.1666 86.11C48.4166 86.34 48.8116 86.455 49.3516 86.455C49.6416 86.455 49.9066 86.43 50.1466 86.38C50.3866 86.33 50.6166 86.265 50.8366 86.185L51.2266 87.775C50.8966 87.875 50.5266 87.965 50.1166 88.045C49.7166 88.135 49.2766 88.18 48.7966 88.18C48.2066 88.18 47.7066 88.1 47.2966 87.94C46.8866 87.78 46.5516 87.56 46.2916 87.28C46.0416 86.99 45.8616 86.645 45.7516 86.245C45.6416 85.845 45.5866 85.4 45.5866 84.91V82.285ZM10.285 126.585V128.76H8.08V118.56H9.88L10.045 119.31H10.09C10.39 119.04 10.735 118.82 11.125 118.65C11.515 118.47 11.91 118.38 12.31 118.38C12.77 118.38 13.185 118.47 13.555 118.65C13.925 118.83 14.24 119.085 14.5 119.415C14.76 119.745 14.955 120.145 15.085 120.615C15.225 121.075 15.295 121.59 15.295 122.16C15.295 122.8 15.205 123.37 15.025 123.87C14.845 124.36 14.605 124.78 14.305 125.13C14.005 125.47 13.66 125.73 13.27 125.91C12.89 126.09 12.49 126.18 12.07 126.18C11.39 126.18 10.77 125.91 10.21 125.37L10.285 126.585ZM10.285 123.885C10.495 124.065 10.71 124.195 10.93 124.275C11.16 124.345 11.37 124.38 11.56 124.38C11.98 124.38 12.33 124.21 12.61 123.87C12.89 123.52 13.03 122.96 13.03 122.19C13.03 120.85 12.575 120.18 11.665 120.18C11.195 120.18 10.735 120.41 10.285 120.87V123.885ZM17.7341 118.56H19.5341L19.7141 120.18H19.7591C20.1291 119.57 20.5741 119.12 21.0941 118.83C21.6141 118.53 22.1741 118.38 22.7741 118.38C23.1041 118.38 23.3691 118.405 23.5691 118.455C23.7791 118.505 23.9941 118.58 24.2141 118.68L23.7641 120.525C23.5341 120.455 23.3241 120.405 23.1341 120.375C22.9541 120.335 22.7241 120.315 22.4441 120.315C21.9841 120.315 21.5291 120.45 21.0791 120.72C20.6391 120.99 20.2591 121.46 19.9391 122.13V126H17.7341V118.56ZM26.1733 118.56H31.3633V126H29.1583V120.285H26.1733V118.56ZM30.1633 117.465C29.7333 117.465 29.3783 117.345 29.0983 117.105C28.8283 116.865 28.6933 116.54 28.6933 116.13C28.6933 115.72 28.8283 115.39 29.0983 115.14C29.3783 114.88 29.7333 114.75 30.1633 114.75C30.5933 114.75 30.9433 114.88 31.2133 115.14C31.4933 115.39 31.6333 115.72 31.6333 116.13C31.6333 116.54 31.4933 116.865 31.2133 117.105C30.9433 117.345 30.5933 117.465 30.1633 117.465ZM35.0624 118.56H36.8624L37.0274 119.55H37.0874C37.4074 119.23 37.7724 118.955 38.1824 118.725C38.6024 118.495 39.0924 118.38 39.6524 118.38C40.4924 118.38 41.1074 118.65 41.4974 119.19C41.8874 119.73 42.0824 120.47 42.0824 121.41V126H39.8774V121.695C39.8774 121.195 39.7974 120.83 39.6374 120.6C39.4774 120.37 39.1924 120.255 38.7824 120.255C38.4824 120.255 38.2174 120.32 37.9874 120.45C37.7674 120.58 37.5274 120.775 37.2674 121.035V126H35.0624V118.56ZM45.5866 120.285H43.7116V118.65L45.6916 118.56L45.9766 116.58H47.7916V118.56H50.9416V120.285H47.7916V122.895C47.7916 123.465 47.9166 123.87 48.1666 124.11C48.4166 124.34 48.8116 124.455 49.3516 124.455C49.6416 124.455 49.9066 124.43 50.1466 124.38C50.3866 124.33 50.6166 124.265 50.8366 124.185L51.2266 125.775C50.8966 125.875 50.5266 125.965 50.1166 126.045C49.7166 126.135 49.2766 126.18 48.7966 126.18C48.2066 126.18 47.7066 126.1 47.2966 125.94C46.8866 125.78 46.5516 125.56 46.2916 125.28C46.0416 124.99 45.8616 124.645 45.7516 124.245C45.6416 123.845 45.5866 123.4 45.5866 122.91V120.285Z" fill="#56B4E9"/>
<path d="M26.0383 43.53H32.9383V45.09H26.0383V43.53ZM26.0383 46.995H32.9383V48.555H26.0383V46.995ZM82.6431 83.83H80.0031V82.27H82.6431V79.51H84.2631V82.27H86.9031V83.83H84.2631V86.59H82.6431V83.83ZM26.0383 99.53H32.9383V101.09H26.0383V99.53ZM26.0383 102.995H32.9383V104.555H26.0383V102.995ZM64.6548 102.83H62.0148V101.27H64.6548V98.51H66.2748V101.27H68.9148V102.83H66.2748V105.59H64.6548V102.83Z" fill="#E0E0E0"/>
<path d="M44.6266 48.435C44.9466 48.715 45.3016 48.945 45.6916 49.125C46.0916 49.305 46.5116 49.395 46.9516 49.395C47.4716 49.395 47.8966 49.3 48.2266 49.11C48.5666 48.91 48.7366 48.63 48.7366 48.27C48.7366 48.06 48.6916 47.87 48.6016 47.7C48.5116 47.53 48.3566 47.39 48.1366 47.28C47.9166 47.16 47.6216 47.07 47.2516 47.01C46.8816 46.94 46.4166 46.905 45.8566 46.905V45.345C46.7966 45.345 47.4566 45.23 47.8366 45C48.2266 44.76 48.4216 44.45 48.4216 44.07C48.4216 43.74 48.2966 43.485 48.0466 43.305C47.7966 43.115 47.4516 43.02 47.0116 43.02C46.6316 43.02 46.2816 43.095 45.9616 43.245C45.6416 43.395 45.3166 43.6 44.9866 43.86L43.8766 42.51C44.3466 42.13 44.8466 41.835 45.3766 41.625C45.9166 41.405 46.4966 41.295 47.1166 41.295C47.6366 41.295 48.1116 41.355 48.5416 41.475C48.9716 41.585 49.3416 41.755 49.6516 41.985C49.9616 42.205 50.2016 42.475 50.3716 42.795C50.5416 43.115 50.6266 43.485 50.6266 43.905C50.6266 44.405 50.4666 44.83 50.1466 45.18C49.8266 45.52 49.3816 45.8 48.8116 46.02V46.08C49.4116 46.24 49.9166 46.515 50.3266 46.905C50.7366 47.285 50.9416 47.785 50.9416 48.405C50.9416 48.845 50.8366 49.24 50.6266 49.59C50.4266 49.93 50.1516 50.22 49.8016 50.46C49.4616 50.69 49.0616 50.87 48.6016 51C48.1416 51.12 47.6616 51.18 47.1616 51.18C46.3416 51.18 45.6366 51.06 45.0466 50.82C44.4566 50.57 43.9766 50.24 43.6066 49.83L44.6266 48.435ZM56.4707 51.18C55.9207 51.18 55.4207 51.075 54.9707 50.865C54.5207 50.645 54.1357 50.325 53.8157 49.905C53.4957 49.485 53.2457 48.965 53.0657 48.345C52.8957 47.725 52.8107 47.01 52.8107 46.2C52.8107 45.39 52.8957 44.68 53.0657 44.07C53.2457 43.46 53.4957 42.95 53.8157 42.54C54.1357 42.12 54.5207 41.81 54.9707 41.61C55.4207 41.4 55.9207 41.295 56.4707 41.295C57.0207 41.295 57.5207 41.4 57.9707 41.61C58.4207 41.81 58.8057 42.12 59.1257 42.54C59.4457 42.95 59.6907 43.46 59.8607 44.07C60.0407 44.68 60.1307 45.39 60.1307 46.2C60.1307 47.01 60.0407 47.725 59.8607 48.345C59.6907 48.965 59.4457 49.485 59.1257 49.905C58.8057 50.325 58.4207 50.645 57.9707 50.865C57.5207 51.075 57.0207 51.18 56.4707 51.18ZM56.4707 43.005C56.2307 43.005 56.0057 43.055 55.7957 43.155C55.5957 43.255 55.4207 43.43 55.2707 43.68C55.1207 43.92 55.0007 44.245 54.9107 44.655C54.8207 45.065 54.7757 45.58 54.7757 46.2C54.7757 46.82 54.8207 47.34 54.9107 47.76C55.0007 48.17 55.1207 48.505 55.2707 48.765C55.4207 49.015 55.5957 49.195 55.7957 49.305C56.0057 49.415 56.2307 49.47 56.4707 49.47C56.7107 49.47 56.9307 49.415 57.1307 49.305C57.3407 49.195 57.5207 49.015 57.6707 48.765C57.8207 48.505 57.9407 48.17 58.0307 47.76C58.1207 47.34 58.1657 46.82 58.1657 46.2C58.1657 45.58 58.1207 45.065 58.0307 44.655C57.9407 44.245 57.8207 43.92 57.6707 43.68C57.5207 43.43 57.3407 43.255 57.1307 43.155C56.9307 43.055 56.7107 43.005 56.4707 43.005ZM56.4707 47.31C56.1507 47.31 55.8807 47.21 55.6607 47.01C55.4507 46.8 55.3457 46.52 55.3457 46.17C55.3457 45.82 55.4507 45.545 55.6607 45.345C55.8807 45.135 56.1507 45.03 56.4707 45.03C56.7907 45.03 57.0557 45.135 57.2657 45.345C57.4857 45.545 57.5957 45.82 57.5957 46.17C57.5957 46.52 57.4857 46.8 57.2657 47.01C57.0557 47.21 56.7907 47.31 56.4707 47.31ZM99.8364 88C99.8764 87.21 99.9514 86.485 100.061 85.825C100.181 85.155 100.346 84.52 100.556 83.92C100.776 83.31 101.056 82.72 101.396 82.15C101.736 81.57 102.156 80.965 102.656 80.335H97.8714V78.475H105.026V79.825C104.426 80.495 103.941 81.125 103.571 81.715C103.201 82.295 102.911 82.9 102.701 83.53C102.491 84.15 102.341 84.82 102.251 85.54C102.161 86.25 102.096 87.07 102.056 88H99.8364ZM110.436 88.18C109.886 88.18 109.386 88.075 108.936 87.865C108.486 87.645 108.101 87.325 107.781 86.905C107.461 86.485 107.211 85.965 107.031 85.345C106.861 84.725 106.776 84.01 106.776 83.2C106.776 82.39 106.861 81.68 107.031 81.07C107.211 80.46 107.461 79.95 107.781 79.54C108.101 79.12 108.486 78.81 108.936 78.61C109.386 78.4 109.886 78.295 110.436 78.295C110.986 78.295 111.486 78.4 111.936 78.61C112.386 78.81 112.771 79.12 113.091 79.54C113.411 79.95 113.656 80.46 113.826 81.07C114.006 81.68 114.096 82.39 114.096 83.2C114.096 84.01 114.006 84.725 113.826 85.345C113.656 85.965 113.411 86.485 113.091 86.905C112.771 87.325 112.386 87.645 111.936 87.865C111.486 88.075 110.986 88.18 110.436 88.18ZM110.436 80.005C110.196 80.005 109.971 80.055 109.761 80.155C109.561 80.255 109.386 80.43 109.236 80.68C109.086 80.92 108.966 81.245 108.876 81.655C108.786 82.065 108.741 82.58 108.741 83.2C108.741 83.82 108.786 84.34 108.876 84.76C108.966 85.17 109.086 85.505 109.236 85.765C109.386 86.015 109.561 86.195 109.761 86.305C109.971 86.415 110.196 86.47 110.436 86.47C110.676 86.47 110.896 86.415 111.096 86.305C111.306 86.195 111.486 86.015 111.636 85.765C111.786 85.505 111.906 85.17 111.996 84.76C112.086 84.34 112.131 83.82 112.131 83.2C112.131 82.58 112.086 82.065 111.996 81.655C111.906 81.245 111.786 80.92 111.636 80.68C111.486 80.43 111.306 80.255 111.096 80.155C110.896 80.055 110.676 80.005 110.436 80.005ZM110.436 84.31C110.116 84.31 109.846 84.21 109.626 84.01C109.416 83.8 109.311 83.52 109.311 83.17C109.311 82.82 109.416 82.545 109.626 82.345C109.846 82.135 110.116 82.03 110.436 82.03C110.756 82.03 111.021 82.135 111.231 82.345C111.451 82.545 111.561 82.82 111.561 83.17C111.561 83.52 111.451 83.8 111.231 84.01C111.021 84.21 110.756 84.31 110.436 84.31ZM81.8481 107C81.8881 106.21 81.9631 105.485 82.0731 104.825C82.1931 104.155 82.3581 103.52 82.5681 102.92C82.7881 102.31 83.0681 101.72 83.4081 101.15C83.7481 100.57 84.1681 99.965 84.6681 99.335H79.8831V97.475H87.0381V98.825C86.4381 99.495 85.9531 100.125 85.5831 100.715C85.2131 101.295 84.9231 101.9 84.7131 102.53C84.5031 103.15 84.3531 103.82 84.2631 104.54C84.1731 105.25 84.1081 106.07 84.0681 107H81.8481ZM92.4473 107.18C91.8973 107.18 91.3973 107.075 90.9473 106.865C90.4973 106.645 90.1123 106.325 89.7923 105.905C89.4723 105.485 89.2223 104.965 89.0423 104.345C88.8723 103.725 88.7873 103.01 88.7873 102.2C88.7873 101.39 88.8723 100.68 89.0423 100.07C89.2223 99.46 89.4723 98.95 89.7923 98.54C90.1123 98.12 90.4973 97.81 90.9473 97.61C91.3973 97.4 91.8973 97.295 92.4473 97.295C92.9973 97.295 93.4973 97.4 93.9473 97.61C94.3973 97.81 94.7823 98.12 95.1023 98.54C95.4223 98.95 95.6673 99.46 95.8373 100.07C96.0173 100.68 96.1073 101.39 96.1073 102.2C96.1073 103.01 96.0173 103.725 95.8373 104.345C95.6673 104.965 95.4223 105.485 95.1023 105.905C94.7823 106.325 94.3973 106.645 93.9473 106.865C93.4973 107.075 92.9973 107.18 92.4473 107.18ZM92.4473 99.005C92.2073 99.005 91.9823 99.055 91.7723 99.155C91.5723 99.255 91.3973 99.43 91.2473 99.68C91.0973 99.92 90.9773 100.245 90.8873 100.655C90.7973 101.065 90.7523 101.58 90.7523 102.2C90.7523 102.82 90.7973 103.34 90.8873 103.76C90.9773 104.17 91.0973 104.505 91.2473 104.765C91.3973 105.015 91.5723 105.195 91.7723 105.305C91.9823 105.415 92.2073 105.47 92.4473 105.47C92.6873 105.47 92.9073 105.415 93.1073 105.305C93.3173 105.195 93.4973 105.015 93.6473 104.765C93.7973 104.505 93.9173 104.17 94.0073 103.76C94.0973 103.34 94.1423 102.82 94.1423 102.2C94.1423 101.58 94.0973 101.065 94.0073 100.655C93.9173 100.245 93.7973 99.92 93.6473 99.68C93.4973 99.43 93.3173 99.255 93.1073 99.155C92.9073 99.055 92.6873 99.005 92.4473 99.005ZM92.4473 103.31C92.1273 103.31 91.8573 103.21 91.6373 103.01C91.4273 102.8 91.3223 102.52 91.3223 102.17C91.3223 101.82 91.4273 101.545 91.6373 101.345C91.8573 101.135 92.1273 101.03 92.4473 101.03C92.7673 101.03 93.0323 101.135 93.2423 101.345C93.4623 101.545 93.5723 101.82 93.5723 102.17C93.5723 102.52 93.4623 102.8 93.2423 103.01C93.0323 103.21 92.7673 103.31 92.4473 103.31Z" fill="#F0E442"/>
</svg>
