<svg width="224" height="120" viewBox="0 0 224 120" fill="none" xmlns="http://www.w3.org/2000/svg">
<rect x="1" width="222" height="120" fill="black"/>
<path d="M12.88 49.685C11.9 48.815 11.125 47.81 10.555 46.67C9.995 45.53 9.715 44.25 9.715 42.83C9.715 41.41 9.995 40.13 10.555 38.99C11.125 37.85 11.9 36.845 12.88 35.975L14.11 36.95C13.22 37.82 12.57 38.725 12.16 39.665C11.76 40.595 11.56 41.65 11.56 42.83C11.56 43.42 11.61 43.98 11.71 44.51C11.81 45.03 11.96 45.53 12.16 46.01C12.37 46.49 12.635 46.95 12.955 47.39C13.275 47.84 13.66 48.28 14.11 48.71L12.88 49.685ZM35.0324 41.27H41.9324V42.83H35.0324V41.27ZM73.649 42.83H71.009V41.27H73.649V38.51H75.269V41.27H77.909V42.83H75.269V45.59H73.649V42.83ZM98.8314 48.71C99.2814 48.28 99.6664 47.84 99.9864 47.39C100.306 46.95 100.566 46.49 100.766 46.01C100.976 45.53 101.131 45.03 101.231 44.51C101.331 43.98 101.381 43.42 101.381 42.83C101.381 41.65 101.176 40.595 100.766 39.665C100.366 38.725 99.7214 37.82 98.8314 36.95L100.061 35.975C101.041 36.845 101.811 37.85 102.371 38.99C102.941 40.13 103.226 41.41 103.226 42.83C103.226 44.25 102.941 45.53 102.371 46.67C101.811 47.81 101.041 48.815 100.061 49.685L98.8314 48.71ZM107.736 44.975L109.191 42.62L106.896 41.6L107.241 40.535L109.671 41.18L109.851 38.51H111.021L111.201 41.18L113.631 40.535L113.976 41.6L111.681 42.62L113.136 44.975L112.176 45.635L110.436 43.505L108.696 45.635L107.736 44.975ZM116.73 44.975L118.185 42.62L115.89 41.6L116.235 40.535L118.665 41.18L118.845 38.51H120.015L120.195 41.18L122.625 40.535L122.97 41.6L120.675 42.62L122.13 44.975L121.17 45.635L119.43 43.505L117.69 45.635L116.73 44.975ZM129.804 49.685C128.824 48.815 128.049 47.81 127.479 46.67C126.919 45.53 126.639 44.25 126.639 42.83C126.639 41.41 126.919 40.13 127.479 38.99C128.049 37.85 128.824 36.845 129.804 35.975L131.034 36.95C130.144 37.82 129.494 38.725 129.084 39.665C128.684 40.595 128.484 41.65 128.484 42.83C128.484 43.42 128.534 43.98 128.634 44.51C128.734 45.03 128.884 45.53 129.084 46.01C129.294 46.49 129.559 46.95 129.879 47.39C130.199 47.84 130.584 48.28 131.034 48.71L129.804 49.685ZM144.867 49.4H143.022L147.957 36.35H149.802L144.867 49.4ZM172.585 42.83H169.945V41.27H172.585V38.51H174.205V41.27H176.845V42.83H174.205V45.59H172.585V42.83ZM197.767 48.71C198.217 48.28 198.602 47.84 198.922 47.39C199.242 46.95 199.502 46.49 199.702 46.01C199.912 45.53 200.067 45.03 200.167 44.51C200.267 43.98 200.317 43.42 200.317 42.83C200.317 41.65 200.112 40.595 199.702 39.665C199.302 38.725 198.657 37.82 197.767 36.95L198.997 35.975C199.977 36.845 200.747 37.85 201.307 38.99C201.877 40.13 202.162 41.41 202.162 42.83C202.162 44.25 201.877 45.53 201.307 46.67C200.747 47.81 199.977 48.815 198.997 49.685L197.767 48.71Z" fill="white"/>
<path d="M16.8641 45.74C17.5441 45.17 18.1641 44.64 18.7241 44.15C19.2841 43.65 19.7641 43.185 20.1641 42.755C20.5641 42.325 20.8741 41.92 21.0941 41.54C21.3141 41.16 21.4241 40.8 21.4241 40.46C21.4241 39.99 21.2891 39.635 21.0191 39.395C20.7491 39.145 20.3641 39.02 19.8641 39.02C19.4841 39.02 19.1341 39.12 18.8141 39.32C18.5041 39.51 18.2141 39.735 17.9441 39.995L16.7591 38.81C17.0091 38.56 17.2541 38.34 17.4941 38.15C17.7441 37.96 18.0041 37.805 18.2741 37.685C18.5541 37.555 18.8441 37.46 19.1441 37.4C19.4541 37.33 19.7941 37.295 20.1641 37.295C20.6641 37.295 21.1191 37.37 21.5291 37.52C21.9391 37.66 22.2891 37.865 22.5791 38.135C22.8791 38.395 23.1091 38.71 23.2691 39.08C23.4391 39.45 23.5241 39.865 23.5241 40.325C23.5241 40.725 23.4291 41.135 23.2391 41.555C23.0491 41.965 22.7891 42.38 22.4591 42.8C22.1391 43.21 21.7691 43.625 21.3491 44.045C20.9291 44.455 20.4891 44.86 20.0291 45.26C20.2991 45.23 20.5891 45.205 20.8991 45.185C21.2191 45.155 21.5041 45.14 21.7541 45.14H24.0191V47H16.8641V45.74ZM53.6507 44.45C53.9707 44.71 54.3107 44.935 54.6707 45.125C55.0407 45.305 55.4507 45.395 55.9007 45.395C56.4407 45.395 56.8807 45.27 57.2207 45.02C57.5707 44.77 57.7457 44.4 57.7457 43.91C57.7457 43.43 57.5807 43.065 57.2507 42.815C56.9307 42.565 56.5157 42.44 56.0057 42.44C55.8457 42.44 55.7007 42.45 55.5707 42.47C55.4507 42.48 55.3307 42.505 55.2107 42.545C55.0907 42.585 54.9657 42.635 54.8357 42.695C54.7057 42.755 54.5607 42.83 54.4007 42.92L53.4257 42.29L53.6807 37.475H59.5157V39.335H55.5857L55.4207 41.12C55.6407 41.04 55.8457 40.985 56.0357 40.955C56.2257 40.915 56.4407 40.895 56.6807 40.895C57.1207 40.895 57.5357 40.955 57.9257 41.075C58.3257 41.195 58.6757 41.375 58.9757 41.615C59.2757 41.855 59.5107 42.16 59.6807 42.53C59.8607 42.9 59.9507 43.34 59.9507 43.85C59.9507 44.38 59.8457 44.85 59.6357 45.26C59.4357 45.67 59.1607 46.02 58.8107 46.31C58.4707 46.59 58.0757 46.805 57.6257 46.955C57.1757 47.105 56.7057 47.18 56.2157 47.18C55.3857 47.18 54.6807 47.055 54.1007 46.805C53.5307 46.545 53.0507 46.225 52.6607 45.845L53.6507 44.45ZM90.8423 47C90.8823 46.21 90.9573 45.485 91.0673 44.825C91.1873 44.155 91.3523 43.52 91.5623 42.92C91.7823 42.31 92.0623 41.72 92.4023 41.15C92.7423 40.57 93.1623 39.965 93.6623 39.335H88.8773V37.475H96.0323V38.825C95.4323 39.495 94.9473 40.125 94.5773 40.715C94.2073 41.295 93.9173 41.9 93.7073 42.53C93.4973 43.15 93.3473 43.82 93.2573 44.54C93.1673 45.25 93.1023 46.07 93.0623 47H90.8423ZM135.738 44.315C135.738 44.735 135.903 45.065 136.233 45.305C136.563 45.535 136.973 45.65 137.463 45.65C137.913 45.65 138.273 45.555 138.543 45.365C138.823 45.165 138.963 44.865 138.963 44.465C138.963 44.245 138.908 44.06 138.798 43.91C138.688 43.76 138.528 43.625 138.318 43.505C138.118 43.375 137.878 43.26 137.598 43.16C137.318 43.05 137.008 42.93 136.668 42.8C136.398 43 136.173 43.225 135.993 43.475C135.823 43.725 135.738 44.005 135.738 44.315ZM138.063 41.45C138.543 41.02 138.783 40.555 138.783 40.055C138.783 39.685 138.668 39.39 138.438 39.17C138.208 38.94 137.873 38.825 137.433 38.825C137.083 38.825 136.783 38.915 136.533 39.095C136.293 39.275 136.173 39.55 136.173 39.92C136.173 40.31 136.348 40.615 136.698 40.835C137.048 41.055 137.503 41.26 138.063 41.45ZM133.833 44.57C133.833 44.28 133.878 44.02 133.968 43.79C134.068 43.55 134.198 43.335 134.358 43.145C134.528 42.955 134.718 42.785 134.928 42.635C135.148 42.485 135.383 42.35 135.633 42.23V42.17C135.233 41.89 134.898 41.575 134.628 41.225C134.368 40.865 134.238 40.43 134.238 39.92C134.238 39.52 134.318 39.16 134.478 38.84C134.638 38.51 134.858 38.23 135.138 38C135.428 37.77 135.773 37.595 136.173 37.475C136.573 37.355 137.008 37.295 137.478 37.295C137.958 37.295 138.388 37.36 138.768 37.49C139.158 37.61 139.488 37.785 139.758 38.015C140.028 38.235 140.233 38.51 140.373 38.84C140.523 39.16 140.598 39.515 140.598 39.905C140.598 40.355 140.463 40.755 140.193 41.105C139.933 41.455 139.613 41.75 139.233 41.99V42.05C139.483 42.17 139.718 42.31 139.938 42.47C140.158 42.62 140.348 42.795 140.508 42.995C140.668 43.195 140.793 43.425 140.883 43.685C140.973 43.935 141.018 44.22 141.018 44.54C141.018 44.92 140.938 45.27 140.778 45.59C140.618 45.91 140.383 46.19 140.073 46.43C139.773 46.66 139.398 46.845 138.948 46.985C138.498 47.115 137.983 47.18 137.403 47.18C136.853 47.18 136.358 47.12 135.918 47C135.478 46.87 135.103 46.69 134.793 46.46C134.483 46.23 134.243 45.955 134.073 45.635C133.913 45.315 133.833 44.96 133.833 44.57ZM156.021 43.04V41.435C156.021 41.135 156.026 40.79 156.036 40.4C156.056 40 156.076 39.65 156.096 39.35H156.036C155.876 39.62 155.706 39.89 155.526 40.16C155.346 40.43 155.171 40.7 155.001 40.97L153.561 43.04H156.021ZM159.276 44.72H158.076V47H156.021V44.72H151.431V43.205L155.406 37.475H158.076V43.04H159.276V44.72ZM191.383 47.18C190.833 47.18 190.333 47.075 189.883 46.865C189.433 46.645 189.048 46.325 188.728 45.905C188.408 45.485 188.158 44.965 187.978 44.345C187.808 43.725 187.723 43.01 187.723 42.2C187.723 41.39 187.808 40.68 187.978 40.07C188.158 39.46 188.408 38.95 188.728 38.54C189.048 38.12 189.433 37.81 189.883 37.61C190.333 37.4 190.833 37.295 191.383 37.295C191.933 37.295 192.433 37.4 192.883 37.61C193.333 37.81 193.718 38.12 194.038 38.54C194.358 38.95 194.603 39.46 194.773 40.07C194.953 40.68 195.043 41.39 195.043 42.2C195.043 43.01 194.953 43.725 194.773 44.345C194.603 44.965 194.358 45.485 194.038 45.905C193.718 46.325 193.333 46.645 192.883 46.865C192.433 47.075 191.933 47.18 191.383 47.18ZM191.383 39.005C191.143 39.005 190.918 39.055 190.708 39.155C190.508 39.255 190.333 39.43 190.183 39.68C190.033 39.92 189.913 40.245 189.823 40.655C189.733 41.065 189.688 41.58 189.688 42.2C189.688 42.82 189.733 43.34 189.823 43.76C189.913 44.17 190.033 44.505 190.183 44.765C190.333 45.015 190.508 45.195 190.708 45.305C190.918 45.415 191.143 45.47 191.383 45.47C191.623 45.47 191.843 45.415 192.043 45.305C192.253 45.195 192.433 45.015 192.583 44.765C192.733 44.505 192.853 44.17 192.943 43.76C193.033 43.34 193.078 42.82 193.078 42.2C193.078 41.58 193.033 41.065 192.943 40.655C192.853 40.245 192.733 39.92 192.583 39.68C192.433 39.43 192.253 39.255 192.043 39.155C191.843 39.055 191.623 39.005 191.383 39.005ZM191.383 43.31C191.063 43.31 190.793 43.21 190.573 43.01C190.363 42.8 190.258 42.52 190.258 42.17C190.258 41.82 190.363 41.545 190.573 41.345C190.793 41.135 191.063 41.03 191.383 41.03C191.703 41.03 191.968 41.135 192.178 41.345C192.398 41.545 192.508 41.82 192.508 42.17C192.508 42.52 192.398 42.8 192.178 43.01C191.968 43.21 191.703 43.31 191.383 43.31Z" fill="#F0E442"/>
<path d="M15.055 107.215V109H8.23V107.215H10.69V101.71H8.725V100.345C9.285 100.245 9.76 100.125 10.15 99.985C10.55 99.845 10.925 99.675 11.275 99.475H12.895V107.215H15.055ZM20.7041 107.53C20.8941 107.53 21.0741 107.5 21.2441 107.44C21.4241 107.38 21.5791 107.29 21.7091 107.17C21.8491 107.04 21.9591 106.88 22.0391 106.69C22.1191 106.49 22.1591 106.255 22.1591 105.985C22.1591 105.495 22.0291 105.145 21.7691 104.935C21.5091 104.715 21.1691 104.605 20.7491 104.605C20.4691 104.605 20.1791 104.675 19.8791 104.815C19.5791 104.955 19.2841 105.195 18.9941 105.535C19.0541 105.915 19.1391 106.235 19.2491 106.495C19.3691 106.745 19.5041 106.95 19.6541 107.11C19.8041 107.26 19.9691 107.37 20.1491 107.44C20.3291 107.5 20.5141 107.53 20.7041 107.53ZM22.8791 101.755C22.6791 101.575 22.4291 101.42 22.1291 101.29C21.8291 101.15 21.5191 101.08 21.1991 101.08C20.9091 101.08 20.6291 101.135 20.3591 101.245C20.0991 101.345 19.8641 101.515 19.6541 101.755C19.4541 101.985 19.2891 102.29 19.1591 102.67C19.0291 103.05 18.9541 103.52 18.9341 104.08C19.2741 103.75 19.6491 103.495 20.0591 103.315C20.4791 103.135 20.8691 103.045 21.2291 103.045C21.6491 103.045 22.0341 103.105 22.3841 103.225C22.7441 103.345 23.0541 103.525 23.3141 103.765C23.5841 104.005 23.7941 104.31 23.9441 104.68C24.0941 105.05 24.1691 105.485 24.1691 105.985C24.1691 106.485 24.0741 106.93 23.8841 107.32C23.7041 107.71 23.4541 108.045 23.1341 108.325C22.8241 108.605 22.4641 108.82 22.0541 108.97C21.6441 109.11 21.2091 109.18 20.7491 109.18C20.2591 109.18 19.7841 109.09 19.3241 108.91C18.8641 108.73 18.4541 108.45 18.0941 108.07C17.7341 107.69 17.4441 107.205 17.2241 106.615C17.0041 106.015 16.8941 105.295 16.8941 104.455C16.8941 103.565 17.0091 102.795 17.2391 102.145C17.4691 101.495 17.7741 100.96 18.1541 100.54C18.5441 100.12 18.9841 99.81 19.4741 99.61C19.9641 99.4 20.4741 99.295 21.0041 99.295C21.6841 99.295 22.2791 99.41 22.7891 99.64C23.2991 99.86 23.7141 100.125 24.0341 100.435L22.8791 101.755Z" fill="white"/>
<path d="M11.5 91.18C10.92 91.18 10.385 91.065 9.895 90.835C9.415 90.595 9 90.255 8.65 89.815C8.31 89.375 8.045 88.84 7.855 88.21C7.665 87.58 7.57 86.865 7.57 86.065C7.57 85.265 7.665 84.555 7.855 83.935C8.045 83.305 8.31 82.78 8.65 82.36C9 81.93 9.415 81.605 9.895 81.385C10.385 81.155 10.92 81.04 11.5 81.04C12.08 81.04 12.61 81.155 13.09 81.385C13.58 81.605 13.995 81.93 14.335 82.36C14.685 82.79 14.955 83.32 15.145 83.95C15.335 84.57 15.43 85.275 15.43 86.065C15.43 86.865 15.335 87.58 15.145 88.21C14.955 88.84 14.685 89.375 14.335 89.815C13.995 90.255 13.58 90.595 13.09 90.835C12.61 91.065 12.08 91.18 11.5 91.18ZM11.5 89.275C12.01 89.275 12.415 88.99 12.715 88.42C13.015 87.84 13.165 87.055 13.165 86.065C13.165 85.085 13.015 84.32 12.715 83.77C12.415 83.22 12.01 82.945 11.5 82.945C10.99 82.945 10.585 83.22 10.285 83.77C9.985 84.32 9.835 85.085 9.835 86.065C9.835 87.055 9.985 87.84 10.285 88.42C10.585 88.99 10.99 89.275 11.5 89.275ZM23.8691 91H22.0691L21.9041 89.935H21.8441C21.5141 90.315 21.1491 90.62 20.7491 90.85C20.3491 91.07 19.8791 91.18 19.3391 91.18C18.4891 91.18 17.8741 90.91 17.4941 90.37C17.1141 89.83 16.9241 89.09 16.9241 88.15V83.56H19.1291V87.865C19.1291 88.365 19.2041 88.73 19.3541 88.96C19.5041 89.19 19.7891 89.305 20.2091 89.305C20.4891 89.305 20.7341 89.245 20.9441 89.125C21.1641 89.005 21.4041 88.78 21.6641 88.45V83.56H23.8691V91ZM27.5983 85.285H25.7233V83.65L27.7033 83.56L27.9883 81.58H29.8033V83.56H32.9533V85.285H29.8033V87.895C29.8033 88.465 29.9283 88.87 30.1783 89.11C30.4283 89.34 30.8233 89.455 31.3633 89.455C31.6533 89.455 31.9183 89.43 32.1583 89.38C32.3983 89.33 32.6283 89.265 32.8483 89.185L33.2383 90.775C32.9083 90.875 32.5383 90.965 32.1283 91.045C31.7283 91.135 31.2883 91.18 30.8083 91.18C30.2183 91.18 29.7183 91.1 29.3083 90.94C28.8983 90.78 28.5633 90.56 28.3033 90.28C28.0533 89.99 27.8733 89.645 27.7633 89.245C27.6533 88.845 27.5983 88.4 27.5983 87.91V85.285ZM37.2674 91.585V93.76H35.0624V83.56H36.8624L37.0274 84.31H37.0724C37.3724 84.04 37.7174 83.82 38.1074 83.65C38.4974 83.47 38.8924 83.38 39.2924 83.38C39.7524 83.38 40.1674 83.47 40.5374 83.65C40.9074 83.83 41.2224 84.085 41.4824 84.415C41.7424 84.745 41.9374 85.145 42.0674 85.615C42.2074 86.075 42.2774 86.59 42.2774 87.16C42.2774 87.8 42.1874 88.37 42.0074 88.87C41.8274 89.36 41.5874 89.78 41.2874 90.13C40.9874 90.47 40.6424 90.73 40.2524 90.91C39.8724 91.09 39.4724 91.18 39.0524 91.18C38.3724 91.18 37.7524 90.91 37.1924 90.37L37.2674 91.585ZM37.2674 88.885C37.4774 89.065 37.6924 89.195 37.9124 89.275C38.1424 89.345 38.3524 89.38 38.5424 89.38C38.9624 89.38 39.3124 89.21 39.5924 88.87C39.8724 88.52 40.0124 87.96 40.0124 87.19C40.0124 85.85 39.5574 85.18 38.6474 85.18C38.1774 85.18 37.7174 85.41 37.2674 85.87V88.885ZM50.8516 91H49.0516L48.8866 89.935H48.8266C48.4966 90.315 48.1316 90.62 47.7316 90.85C47.3316 91.07 46.8616 91.18 46.3216 91.18C45.4716 91.18 44.8566 90.91 44.4766 90.37C44.0966 89.83 43.9066 89.09 43.9066 88.15V83.56H46.1116V87.865C46.1116 88.365 46.1866 88.73 46.3366 88.96C46.4866 89.19 46.7716 89.305 47.1916 89.305C47.4716 89.305 47.7166 89.245 47.9266 89.125C48.1466 89.005 48.3866 88.78 48.6466 88.45V83.56H50.8516V91ZM54.5807 85.285H52.7057V83.65L54.6857 83.56L54.9707 81.58H56.7857V83.56H59.9357V85.285H56.7857V87.895C56.7857 88.465 56.9107 88.87 57.1607 89.11C57.4107 89.34 57.8057 89.455 58.3457 89.455C58.6357 89.455 58.9007 89.43 59.1407 89.38C59.3807 89.33 59.6107 89.265 59.8307 89.185L60.2207 90.775C59.8907 90.875 59.5207 90.965 59.1107 91.045C58.7107 91.135 58.2707 91.18 57.7907 91.18C57.2007 91.18 56.7007 91.1 56.2907 90.94C55.8807 90.78 55.5457 90.56 55.2857 90.28C55.0357 89.99 54.8557 89.645 54.7457 89.245C54.6357 88.845 54.5807 88.4 54.5807 87.91V85.285Z" fill="white"/>
<rect x="90" width="133" height="26" fill="#333333"/>
<rect x="90" width="133" height="26" fill="#333333"/>
<rect x="1" width="89" height="26" fill="#090808"/>
<path d="M17.4243 15.1021C17.4243 14.8778 17.3122 14.7021 17.0879 14.5752C16.8678 14.444 16.5124 14.3276 16.0215 14.2261C14.388 13.8833 13.5713 13.1893 13.5713 12.144C13.5713 11.5347 13.8231 11.0269 14.3267 10.6206C14.8345 10.2101 15.4967 10.0049 16.3135 10.0049C17.1852 10.0049 17.8813 10.2101 18.4019 10.6206C18.9266 11.0311 19.189 11.5643 19.189 12.2202H17.3545C17.3545 11.9578 17.2699 11.742 17.1006 11.5728C16.9313 11.3993 16.6668 11.3125 16.3071 11.3125C15.9982 11.3125 15.7591 11.3823 15.5898 11.522C15.4206 11.6616 15.3359 11.8394 15.3359 12.0552C15.3359 12.2583 15.4312 12.4233 15.6216 12.5503C15.8162 12.673 16.1421 12.7809 16.5991 12.874C17.0562 12.9629 17.4412 13.0645 17.7544 13.1787C18.7235 13.5342 19.208 14.1499 19.208 15.0259C19.208 15.6522 18.9393 16.16 18.4019 16.5493C17.8644 16.9344 17.1704 17.127 16.3198 17.127C15.7443 17.127 15.2323 17.0254 14.7837 16.8223C14.3394 16.6149 13.9902 16.3335 13.7363 15.978C13.4824 15.6183 13.3555 15.2311 13.3555 14.8164H15.0947C15.1117 15.1423 15.2323 15.3919 15.4565 15.5654C15.6808 15.7389 15.9813 15.8257 16.3579 15.8257C16.7091 15.8257 16.9736 15.7601 17.1514 15.6289C17.3333 15.4935 17.4243 15.3179 17.4243 15.1021ZM23.2515 15.6479C23.59 15.6479 23.8651 15.5549 24.0767 15.3687C24.2882 15.1825 24.3983 14.9349 24.4067 14.626H26.127C26.1227 15.0915 25.9958 15.5189 25.7461 15.9082C25.4964 16.2933 25.1536 16.5938 24.7178 16.8096C24.2861 17.0212 23.8079 17.127 23.2832 17.127C22.3014 17.127 21.527 16.8159 20.96 16.1938C20.3929 15.5675 20.1094 14.7043 20.1094 13.604V13.4834C20.1094 12.4255 20.3908 11.5812 20.9536 10.9507C21.5164 10.3201 22.2887 10.0049 23.2705 10.0049C24.1296 10.0049 24.8172 10.2503 25.3335 10.7412C25.854 11.2279 26.1185 11.8774 26.127 12.6899H24.4067C24.3983 12.3345 24.2882 12.0467 24.0767 11.8267C23.8651 11.6024 23.5858 11.4902 23.2388 11.4902C22.8114 11.4902 22.4876 11.6468 22.2676 11.96C22.0518 12.2689 21.9438 12.7725 21.9438 13.4707V13.6611C21.9438 14.3678 22.0518 14.8757 22.2676 15.1846C22.4834 15.4935 22.8114 15.6479 23.2515 15.6479ZM31.0337 11.8521C30.784 11.8182 30.564 11.8013 30.3735 11.8013C29.6795 11.8013 29.2246 12.0361 29.0088 12.5059V17H27.1743V10.1318H28.9072L28.958 10.9507C29.3262 10.3201 29.8361 10.0049 30.4878 10.0049C30.6909 10.0049 30.8813 10.0324 31.0591 10.0874L31.0337 11.8521ZM33.8584 17H32.0176V10.1318H33.8584V17ZM31.9097 8.35449C31.9097 8.07943 32.0007 7.85303 32.1826 7.67529C32.3688 7.49756 32.6206 7.40869 32.938 7.40869C33.2511 7.40869 33.5008 7.49756 33.687 7.67529C33.8732 7.85303 33.9663 8.07943 33.9663 8.35449C33.9663 8.63379 33.8711 8.8623 33.6807 9.04004C33.4945 9.21777 33.2469 9.30664 32.938 9.30664C32.6291 9.30664 32.3794 9.21777 32.189 9.04004C32.0028 8.8623 31.9097 8.63379 31.9097 8.35449ZM41.5581 13.6294C41.5581 14.6873 41.3169 15.5358 40.8345 16.1748C40.3563 16.8096 39.7088 17.127 38.8921 17.127C38.1981 17.127 37.6374 16.8857 37.21 16.4033V19.6406H35.3755V10.1318H37.0767L37.1401 10.8047C37.5845 10.2715 38.1642 10.0049 38.8794 10.0049C39.7257 10.0049 40.3838 10.318 40.8535 10.9443C41.3232 11.5706 41.5581 12.4339 41.5581 13.5342V13.6294ZM39.7236 13.4961C39.7236 12.8571 39.6094 12.3641 39.3809 12.0171C39.1566 11.6701 38.8286 11.4966 38.397 11.4966C37.8215 11.4966 37.4258 11.7166 37.21 12.1567V14.9688C37.4342 15.4215 37.8341 15.6479 38.4097 15.6479C39.2856 15.6479 39.7236 14.9307 39.7236 13.4961ZM44.897 8.44336V10.1318H46.0713V11.4775H44.897V14.9053C44.897 15.1592 44.9456 15.3411 45.043 15.4512C45.1403 15.5612 45.3265 15.6162 45.6016 15.6162C45.8047 15.6162 45.9845 15.6014 46.1411 15.5718V16.9619C45.7814 17.0719 45.4111 17.127 45.0303 17.127C43.7438 17.127 43.0879 16.4774 43.0625 15.1782V11.4775H42.0596V10.1318H43.0625V8.44336H44.897ZM47.1885 16.0986C47.1885 15.8066 47.2858 15.5697 47.4805 15.3877C47.6794 15.2057 47.9269 15.1147 48.2231 15.1147C48.5236 15.1147 48.7712 15.2057 48.9658 15.3877C49.1647 15.5697 49.2642 15.8066 49.2642 16.0986C49.2642 16.3864 49.1668 16.6213 48.9722 16.8032C48.7775 16.981 48.5278 17.0698 48.2231 17.0698C47.9227 17.0698 47.6751 16.981 47.4805 16.8032C47.2858 16.6213 47.1885 16.3864 47.1885 16.0986ZM57.0591 13.6294C57.0591 14.6873 56.8179 15.5358 56.3354 16.1748C55.8573 16.8096 55.2098 17.127 54.3931 17.127C53.6991 17.127 53.1383 16.8857 52.7109 16.4033V19.6406H50.8765V10.1318H52.5776L52.6411 10.8047C53.0854 10.2715 53.6652 10.0049 54.3804 10.0049C55.2267 10.0049 55.8848 10.318 56.3545 10.9443C56.8242 11.5706 57.0591 12.4339 57.0591 13.5342V13.6294ZM55.2246 13.4961C55.2246 12.8571 55.1104 12.3641 54.8818 12.0171C54.6576 11.6701 54.3296 11.4966 53.8979 11.4966C53.3224 11.4966 52.9268 11.7166 52.7109 12.1567V14.9688C52.9352 15.4215 53.3351 15.6479 53.9106 15.6479C54.7866 15.6479 55.2246 14.9307 55.2246 13.4961ZM60.6899 14.4038L61.9595 10.1318H63.9272L61.166 18.0664L61.0137 18.4282C60.6032 19.3254 59.9261 19.7739 58.9824 19.7739C58.7158 19.7739 58.445 19.7337 58.1699 19.6533V18.2632L58.4492 18.2695C58.7962 18.2695 59.0544 18.2166 59.2236 18.1108C59.3971 18.005 59.5326 17.8294 59.6299 17.584L59.8457 17.019L57.4399 10.1318H59.4141L60.6899 14.4038Z" fill="white"/>
<line x1="0.998871" y1="72" x2="223.001" y2="72" stroke="white"/>
</svg>
