<svg width="200" height="114" viewBox="0 0 200 114" fill="none" xmlns="http://www.w3.org/2000/svg">
<rect width="200" height="114" fill="black"/>
<path d="M11.115 43.04V41.435C11.115 41.135 11.12 40.79 11.13 40.4C11.15 40 11.17 39.65 11.19 39.35H11.13C10.97 39.62 10.8 39.89 10.62 40.16C10.44 40.43 10.265 40.7 10.095 40.97L8.655 43.04H11.115ZM14.37 44.72H13.17V47H11.115V44.72H6.525V43.205L10.5 37.475H13.17V43.04H14.37V44.72ZM33.8524 45.74C34.5324 45.17 35.1524 44.64 35.7124 44.15C36.2724 43.65 36.7524 43.185 37.1524 42.755C37.5524 42.325 37.8624 41.92 38.0824 41.54C38.3024 41.16 38.4124 40.8 38.4124 40.46C38.4124 39.99 38.2774 39.635 38.0074 39.395C37.7374 39.145 37.3524 39.02 36.8524 39.02C36.4724 39.02 36.1224 39.12 35.8024 39.32C35.4924 39.51 35.2024 39.735 34.9324 39.995L33.7474 38.81C33.9974 38.56 34.2424 38.34 34.4824 38.15C34.7324 37.96 34.9924 37.805 35.2624 37.685C35.5424 37.555 35.8324 37.46 36.1324 37.4C36.4424 37.33 36.7824 37.295 37.1524 37.295C37.6524 37.295 38.1074 37.37 38.5174 37.52C38.9274 37.66 39.2774 37.865 39.5674 38.135C39.8674 38.395 40.0974 38.71 40.2574 39.08C40.4274 39.45 40.5124 39.865 40.5124 40.325C40.5124 40.725 40.4174 41.135 40.2274 41.555C40.0374 41.965 39.7774 42.38 39.4474 42.8C39.1274 43.21 38.7574 43.625 38.3374 44.045C37.9174 44.455 37.4774 44.86 37.0174 45.26C37.2874 45.23 37.5774 45.205 37.8874 45.185C38.2074 45.155 38.4924 45.14 38.7424 45.14H41.0074V47H33.8524V45.74Z" fill="#F0E442"/>
<path d="M16.7941 44.975L18.2491 42.62L15.9541 41.6L16.2991 40.535L18.7291 41.18L18.9091 38.51H20.0791L20.2591 41.18L22.6891 40.535L23.0341 41.6L20.7391 42.62L22.1941 44.975L21.2341 45.635L19.4941 43.505L17.7541 45.635L16.7941 44.975ZM25.7883 44.975L27.2433 42.62L24.9483 41.6L25.2933 40.535L27.7233 41.18L27.9033 38.51H29.0733L29.2533 41.18L31.6833 40.535L32.0283 41.6L29.7333 42.62L31.1883 44.975L30.2283 45.635L28.4883 43.505L26.7483 45.635L25.7883 44.975Z" fill="white"/>
<path d="M14.055 102.215V104H7.23V102.215H9.69V96.71H7.725V95.345C8.285 95.245 8.76 95.125 9.15 94.985C9.55 94.845 9.925 94.675 10.275 94.475H11.895V102.215H14.055ZM19.7041 102.53C19.8941 102.53 20.0741 102.5 20.2441 102.44C20.4241 102.38 20.5791 102.29 20.7091 102.17C20.8491 102.04 20.9591 101.88 21.0391 101.69C21.1191 101.49 21.1591 101.255 21.1591 100.985C21.1591 100.495 21.0291 100.145 20.7691 99.935C20.5091 99.715 20.1691 99.605 19.7491 99.605C19.4691 99.605 19.1791 99.675 18.8791 99.815C18.5791 99.955 18.2841 100.195 17.9941 100.535C18.0541 100.915 18.1391 101.235 18.2491 101.495C18.3691 101.745 18.5041 101.95 18.6541 102.11C18.8041 102.26 18.9691 102.37 19.1491 102.44C19.3291 102.5 19.5141 102.53 19.7041 102.53ZM21.8791 96.755C21.6791 96.575 21.4291 96.42 21.1291 96.29C20.8291 96.15 20.5191 96.08 20.1991 96.08C19.9091 96.08 19.6291 96.135 19.3591 96.245C19.0991 96.345 18.8641 96.515 18.6541 96.755C18.4541 96.985 18.2891 97.29 18.1591 97.67C18.0291 98.05 17.9541 98.52 17.9341 99.08C18.2741 98.75 18.6491 98.495 19.0591 98.315C19.4791 98.135 19.8691 98.045 20.2291 98.045C20.6491 98.045 21.0341 98.105 21.3841 98.225C21.7441 98.345 22.0541 98.525 22.3141 98.765C22.5841 99.005 22.7941 99.31 22.9441 99.68C23.0941 100.05 23.1691 100.485 23.1691 100.985C23.1691 101.485 23.0741 101.93 22.8841 102.32C22.7041 102.71 22.4541 103.045 22.1341 103.325C21.8241 103.605 21.4641 103.82 21.0541 103.97C20.6441 104.11 20.2091 104.18 19.7491 104.18C19.2591 104.18 18.7841 104.09 18.3241 103.91C17.8641 103.73 17.4541 103.45 17.0941 103.07C16.7341 102.69 16.4441 102.205 16.2241 101.615C16.0041 101.015 15.8941 100.295 15.8941 99.455C15.8941 98.565 16.0091 97.795 16.2391 97.145C16.4691 96.495 16.7741 95.96 17.1541 95.54C17.5441 95.12 17.9841 94.81 18.4741 94.61C18.9641 94.4 19.4741 94.295 20.0041 94.295C20.6841 94.295 21.2791 94.41 21.7891 94.64C22.2991 94.86 22.7141 95.125 23.0341 95.435L21.8791 96.755Z" fill="white"/>
<path d="M10.5 85.18C9.92 85.18 9.385 85.065 8.895 84.835C8.415 84.595 8 84.255 7.65 83.815C7.31 83.375 7.045 82.84 6.855 82.21C6.665 81.58 6.57 80.865 6.57 80.065C6.57 79.265 6.665 78.555 6.855 77.935C7.045 77.305 7.31 76.78 7.65 76.36C8 75.93 8.415 75.605 8.895 75.385C9.385 75.155 9.92 75.04 10.5 75.04C11.08 75.04 11.61 75.155 12.09 75.385C12.58 75.605 12.995 75.93 13.335 76.36C13.685 76.79 13.955 77.32 14.145 77.95C14.335 78.57 14.43 79.275 14.43 80.065C14.43 80.865 14.335 81.58 14.145 82.21C13.955 82.84 13.685 83.375 13.335 83.815C12.995 84.255 12.58 84.595 12.09 84.835C11.61 85.065 11.08 85.18 10.5 85.18ZM10.5 83.275C11.01 83.275 11.415 82.99 11.715 82.42C12.015 81.84 12.165 81.055 12.165 80.065C12.165 79.085 12.015 78.32 11.715 77.77C11.415 77.22 11.01 76.945 10.5 76.945C9.99 76.945 9.585 77.22 9.285 77.77C8.985 78.32 8.835 79.085 8.835 80.065C8.835 81.055 8.985 81.84 9.285 82.42C9.585 82.99 9.99 83.275 10.5 83.275ZM22.8691 85H21.0691L20.9041 83.935H20.8441C20.5141 84.315 20.1491 84.62 19.7491 84.85C19.3491 85.07 18.8791 85.18 18.3391 85.18C17.4891 85.18 16.8741 84.91 16.4941 84.37C16.1141 83.83 15.9241 83.09 15.9241 82.15V77.56H18.1291V81.865C18.1291 82.365 18.2041 82.73 18.3541 82.96C18.5041 83.19 18.7891 83.305 19.2091 83.305C19.4891 83.305 19.7341 83.245 19.9441 83.125C20.1641 83.005 20.4041 82.78 20.6641 82.45V77.56H22.8691V85ZM26.5983 79.285H24.7233V77.65L26.7033 77.56L26.9883 75.58H28.8033V77.56H31.9533V79.285H28.8033V81.895C28.8033 82.465 28.9283 82.87 29.1783 83.11C29.4283 83.34 29.8233 83.455 30.3633 83.455C30.6533 83.455 30.9183 83.43 31.1583 83.38C31.3983 83.33 31.6283 83.265 31.8483 83.185L32.2383 84.775C31.9083 84.875 31.5383 84.965 31.1283 85.045C30.7283 85.135 30.2883 85.18 29.8083 85.18C29.2183 85.18 28.7183 85.1 28.3083 84.94C27.8983 84.78 27.5633 84.56 27.3033 84.28C27.0533 83.99 26.8733 83.645 26.7633 83.245C26.6533 82.845 26.5983 82.4 26.5983 81.91V79.285ZM36.2674 85.585V87.76H34.0624V77.56H35.8624L36.0274 78.31H36.0724C36.3724 78.04 36.7174 77.82 37.1074 77.65C37.4974 77.47 37.8924 77.38 38.2924 77.38C38.7524 77.38 39.1674 77.47 39.5374 77.65C39.9074 77.83 40.2224 78.085 40.4824 78.415C40.7424 78.745 40.9374 79.145 41.0674 79.615C41.2074 80.075 41.2774 80.59 41.2774 81.16C41.2774 81.8 41.1874 82.37 41.0074 82.87C40.8274 83.36 40.5874 83.78 40.2874 84.13C39.9874 84.47 39.6424 84.73 39.2524 84.91C38.8724 85.09 38.4724 85.18 38.0524 85.18C37.3724 85.18 36.7524 84.91 36.1924 84.37L36.2674 85.585ZM36.2674 82.885C36.4774 83.065 36.6924 83.195 36.9124 83.275C37.1424 83.345 37.3524 83.38 37.5424 83.38C37.9624 83.38 38.3124 83.21 38.5924 82.87C38.8724 82.52 39.0124 81.96 39.0124 81.19C39.0124 79.85 38.5574 79.18 37.6474 79.18C37.1774 79.18 36.7174 79.41 36.2674 79.87V82.885ZM49.8516 85H48.0516L47.8866 83.935H47.8266C47.4966 84.315 47.1316 84.62 46.7316 84.85C46.3316 85.07 45.8616 85.18 45.3216 85.18C44.4716 85.18 43.8566 84.91 43.4766 84.37C43.0966 83.83 42.9066 83.09 42.9066 82.15V77.56H45.1116V81.865C45.1116 82.365 45.1866 82.73 45.3366 82.96C45.4866 83.19 45.7716 83.305 46.1916 83.305C46.4716 83.305 46.7166 83.245 46.9266 83.125C47.1466 83.005 47.3866 82.78 47.6466 82.45V77.56H49.8516V85ZM53.5807 79.285H51.7057V77.65L53.6857 77.56L53.9707 75.58H55.7857V77.56H58.9357V79.285H55.7857V81.895C55.7857 82.465 55.9107 82.87 56.1607 83.11C56.4107 83.34 56.8057 83.455 57.3457 83.455C57.6357 83.455 57.9007 83.43 58.1407 83.38C58.3807 83.33 58.6107 83.265 58.8307 83.185L59.2207 84.775C58.8907 84.875 58.5207 84.965 58.1107 85.045C57.7107 85.135 57.2707 85.18 56.7907 85.18C56.2007 85.18 55.7007 85.1 55.2907 84.94C54.8807 84.78 54.5457 84.56 54.2857 84.28C54.0357 83.99 53.8557 83.645 53.7457 83.245C53.6357 82.845 53.5807 82.4 53.5807 81.91V79.285Z" fill="white"/>
<rect x="89" width="111" height="26" fill="#333333"/>
<rect x="89" width="111" height="26" fill="#333333"/>
<rect width="89" height="26" fill="#090808"/>
<path d="M16.4243 15.1021C16.4243 14.8778 16.3122 14.7021 16.0879 14.5752C15.8678 14.444 15.5124 14.3276 15.0215 14.2261C13.388 13.8833 12.5713 13.1893 12.5713 12.144C12.5713 11.5347 12.8231 11.0269 13.3267 10.6206C13.8345 10.2101 14.4967 10.0049 15.3135 10.0049C16.1852 10.0049 16.8813 10.2101 17.4019 10.6206C17.9266 11.0311 18.189 11.5643 18.189 12.2202H16.3545C16.3545 11.9578 16.2699 11.742 16.1006 11.5728C15.9313 11.3993 15.6668 11.3125 15.3071 11.3125C14.9982 11.3125 14.7591 11.3823 14.5898 11.522C14.4206 11.6616 14.3359 11.8394 14.3359 12.0552C14.3359 12.2583 14.4312 12.4233 14.6216 12.5503C14.8162 12.673 15.1421 12.7809 15.5991 12.874C16.0562 12.9629 16.4412 13.0645 16.7544 13.1787C17.7235 13.5342 18.208 14.1499 18.208 15.0259C18.208 15.6522 17.9393 16.16 17.4019 16.5493C16.8644 16.9344 16.1704 17.127 15.3198 17.127C14.7443 17.127 14.2323 17.0254 13.7837 16.8223C13.3394 16.6149 12.9902 16.3335 12.7363 15.978C12.4824 15.6183 12.3555 15.2311 12.3555 14.8164H14.0947C14.1117 15.1423 14.2323 15.3919 14.4565 15.5654C14.6808 15.7389 14.9813 15.8257 15.3579 15.8257C15.7091 15.8257 15.9736 15.7601 16.1514 15.6289C16.3333 15.4935 16.4243 15.3179 16.4243 15.1021ZM22.2515 15.6479C22.59 15.6479 22.8651 15.5549 23.0767 15.3687C23.2882 15.1825 23.3983 14.9349 23.4067 14.626H25.127C25.1227 15.0915 24.9958 15.5189 24.7461 15.9082C24.4964 16.2933 24.1536 16.5938 23.7178 16.8096C23.2861 17.0212 22.8079 17.127 22.2832 17.127C21.3014 17.127 20.527 16.8159 19.96 16.1938C19.3929 15.5675 19.1094 14.7043 19.1094 13.604V13.4834C19.1094 12.4255 19.3908 11.5812 19.9536 10.9507C20.5164 10.3201 21.2887 10.0049 22.2705 10.0049C23.1296 10.0049 23.8172 10.2503 24.3335 10.7412C24.854 11.2279 25.1185 11.8774 25.127 12.6899H23.4067C23.3983 12.3345 23.2882 12.0467 23.0767 11.8267C22.8651 11.6024 22.5858 11.4902 22.2388 11.4902C21.8114 11.4902 21.4876 11.6468 21.2676 11.96C21.0518 12.2689 20.9438 12.7725 20.9438 13.4707V13.6611C20.9438 14.3678 21.0518 14.8757 21.2676 15.1846C21.4834 15.4935 21.8114 15.6479 22.2515 15.6479ZM30.0337 11.8521C29.784 11.8182 29.564 11.8013 29.3735 11.8013C28.6795 11.8013 28.2246 12.0361 28.0088 12.5059V17H26.1743V10.1318H27.9072L27.958 10.9507C28.3262 10.3201 28.8361 10.0049 29.4878 10.0049C29.6909 10.0049 29.8813 10.0324 30.0591 10.0874L30.0337 11.8521ZM32.8584 17H31.0176V10.1318H32.8584V17ZM30.9097 8.35449C30.9097 8.07943 31.0007 7.85303 31.1826 7.67529C31.3688 7.49756 31.6206 7.40869 31.938 7.40869C32.2511 7.40869 32.5008 7.49756 32.687 7.67529C32.8732 7.85303 32.9663 8.07943 32.9663 8.35449C32.9663 8.63379 32.8711 8.8623 32.6807 9.04004C32.4945 9.21777 32.2469 9.30664 31.938 9.30664C31.6291 9.30664 31.3794 9.21777 31.189 9.04004C31.0028 8.8623 30.9097 8.63379 30.9097 8.35449ZM40.5581 13.6294C40.5581 14.6873 40.3169 15.5358 39.8345 16.1748C39.3563 16.8096 38.7088 17.127 37.8921 17.127C37.1981 17.127 36.6374 16.8857 36.21 16.4033V19.6406H34.3755V10.1318H36.0767L36.1401 10.8047C36.5845 10.2715 37.1642 10.0049 37.8794 10.0049C38.7257 10.0049 39.3838 10.318 39.8535 10.9443C40.3232 11.5706 40.5581 12.4339 40.5581 13.5342V13.6294ZM38.7236 13.4961C38.7236 12.8571 38.6094 12.3641 38.3809 12.0171C38.1566 11.6701 37.8286 11.4966 37.397 11.4966C36.8215 11.4966 36.4258 11.7166 36.21 12.1567V14.9688C36.4342 15.4215 36.8341 15.6479 37.4097 15.6479C38.2856 15.6479 38.7236 14.9307 38.7236 13.4961ZM43.897 8.44336V10.1318H45.0713V11.4775H43.897V14.9053C43.897 15.1592 43.9456 15.3411 44.043 15.4512C44.1403 15.5612 44.3265 15.6162 44.6016 15.6162C44.8047 15.6162 44.9845 15.6014 45.1411 15.5718V16.9619C44.7814 17.0719 44.4111 17.127 44.0303 17.127C42.7438 17.127 42.0879 16.4774 42.0625 15.1782V11.4775H41.0596V10.1318H42.0625V8.44336H43.897ZM46.1885 16.0986C46.1885 15.8066 46.2858 15.5697 46.4805 15.3877C46.6794 15.2057 46.9269 15.1147 47.2231 15.1147C47.5236 15.1147 47.7712 15.2057 47.9658 15.3877C48.1647 15.5697 48.2642 15.8066 48.2642 16.0986C48.2642 16.3864 48.1668 16.6213 47.9722 16.8032C47.7775 16.981 47.5278 17.0698 47.2231 17.0698C46.9227 17.0698 46.6751 16.981 46.4805 16.8032C46.2858 16.6213 46.1885 16.3864 46.1885 16.0986ZM56.0591 13.6294C56.0591 14.6873 55.8179 15.5358 55.3354 16.1748C54.8573 16.8096 54.2098 17.127 53.3931 17.127C52.6991 17.127 52.1383 16.8857 51.7109 16.4033V19.6406H49.8765V10.1318H51.5776L51.6411 10.8047C52.0854 10.2715 52.6652 10.0049 53.3804 10.0049C54.2267 10.0049 54.8848 10.318 55.3545 10.9443C55.8242 11.5706 56.0591 12.4339 56.0591 13.5342V13.6294ZM54.2246 13.4961C54.2246 12.8571 54.1104 12.3641 53.8818 12.0171C53.6576 11.6701 53.3296 11.4966 52.8979 11.4966C52.3224 11.4966 51.9268 11.7166 51.7109 12.1567V14.9688C51.9352 15.4215 52.3351 15.6479 52.9106 15.6479C53.7866 15.6479 54.2246 14.9307 54.2246 13.4961ZM59.6899 14.4038L60.9595 10.1318H62.9272L60.166 18.0664L60.0137 18.4282C59.6032 19.3254 58.9261 19.7739 57.9824 19.7739C57.7158 19.7739 57.445 19.7337 57.1699 19.6533V18.2632L57.4492 18.2695C57.7962 18.2695 58.0544 18.2166 58.2236 18.1108C58.3971 18.005 58.5326 17.8294 58.6299 17.584L58.8457 17.019L56.4399 10.1318H58.4141L59.6899 14.4038Z" fill="white"/>
<line y1="69.5" x2="200" y2="69.5" stroke="white"/>
</svg>
