<svg width="511" height="152" viewBox="0 0 511 152" fill="none" xmlns="http://www.w3.org/2000/svg">
<rect width="511" height="152" fill="white"/>
<path d="M45 108H467V143H45V108Z" fill="#F1F4F8"/>
<path d="M56.5182 133.194V136.274H54.1982V122.574H56.0982L56.2782 123.694H56.3382C56.7649 123.307 57.2516 122.987 57.7982 122.734C58.3582 122.467 58.9182 122.334 59.4782 122.334C60.1182 122.334 60.6849 122.454 61.1782 122.694C61.6849 122.92 62.1049 123.254 62.4382 123.694C62.7849 124.134 63.0449 124.66 63.2182 125.274C63.4049 125.887 63.4982 126.574 63.4982 127.334C63.4982 128.174 63.3782 128.927 63.1382 129.594C62.8982 130.247 62.5716 130.8 62.1582 131.254C61.7582 131.694 61.2916 132.034 60.7582 132.274C60.2382 132.514 59.6982 132.634 59.1382 132.634C58.6849 132.634 58.2182 132.534 57.7382 132.334C57.2716 132.134 56.8382 131.847 56.4382 131.474L56.5182 133.194ZM56.5182 129.834C56.8782 130.167 57.2449 130.4 57.6182 130.534C58.0049 130.667 58.3516 130.734 58.6582 130.734C59.3649 130.734 59.9516 130.454 60.4182 129.894C60.8849 129.32 61.1182 128.474 61.1182 127.354C61.1182 126.367 60.9382 125.6 60.5782 125.054C60.2182 124.507 59.6382 124.234 58.8382 124.234C58.4649 124.234 58.0849 124.327 57.6982 124.514C57.3116 124.7 56.9182 125 56.5182 125.414V129.834ZM65.9704 118.274H71.3704V128.934C71.3704 129.6 71.5371 130.074 71.8704 130.354C72.2037 130.62 72.6237 130.754 73.1304 130.754C73.6104 130.754 74.1704 130.627 74.8104 130.374L75.3504 132.074C74.8837 132.234 74.4437 132.367 74.0304 132.474C73.6304 132.58 73.1437 132.634 72.5704 132.634C71.4104 132.634 70.5371 132.3 69.9504 131.634C69.3637 130.967 69.0704 130.027 69.0704 128.814V120.094H65.9704V118.274ZM86.8426 132.394H84.9626L84.7826 130.834H84.7026C84.2359 131.38 83.7226 131.82 83.1626 132.154C82.6026 132.474 81.9559 132.634 81.2226 132.634C80.0759 132.634 79.2426 132.294 78.7226 131.614C78.2026 130.92 77.9426 129.934 77.9426 128.654V122.574H80.2426V128.354C80.2426 129.154 80.3759 129.74 80.6426 130.114C80.9226 130.474 81.4026 130.654 82.0826 130.654C82.5493 130.654 82.9626 130.547 83.3226 130.334C83.6959 130.12 84.1026 129.74 84.5426 129.194V122.574H86.8426V132.394ZM90.8548 129.654C91.4148 130.04 91.9948 130.347 92.5948 130.574C93.2081 130.787 93.8948 130.894 94.6548 130.894C95.4281 130.894 95.9948 130.787 96.3548 130.574C96.7148 130.347 96.8948 130.06 96.8948 129.714C96.8948 129.367 96.6615 129.08 96.1948 128.854C95.7281 128.614 94.9948 128.36 93.9948 128.094C93.5281 127.974 93.0748 127.827 92.6348 127.654C92.1948 127.48 91.8081 127.28 91.4748 127.054C91.1415 126.827 90.8748 126.567 90.6748 126.274C90.4748 125.98 90.3748 125.647 90.3748 125.274C90.3748 124.407 90.7481 123.7 91.4948 123.154C92.2415 122.607 93.3148 122.334 94.7148 122.334C95.5148 122.334 96.2681 122.467 96.9748 122.734C97.6815 123 98.2881 123.3 98.7948 123.634L97.7348 125.054C97.2948 124.76 96.8215 124.527 96.3148 124.354C95.8215 124.167 95.2948 124.074 94.7348 124.074C93.9748 124.074 93.4415 124.18 93.1348 124.394C92.8281 124.594 92.6748 124.847 92.6748 125.154C92.6748 125.327 92.7415 125.487 92.8748 125.634C93.0215 125.767 93.2148 125.894 93.4548 126.014C93.7081 126.12 94.0015 126.227 94.3348 126.334C94.6681 126.44 95.0348 126.54 95.4348 126.634C96.0081 126.78 96.5215 126.947 96.9748 127.134C97.4415 127.307 97.8348 127.507 98.1548 127.734C98.4881 127.96 98.7415 128.227 98.9148 128.534C99.1015 128.84 99.1948 129.194 99.1948 129.594C99.1948 130.02 99.0948 130.42 98.8948 130.794C98.6948 131.154 98.4015 131.474 98.0148 131.754C97.6281 132.02 97.1481 132.234 96.5748 132.394C96.0015 132.554 95.3415 132.634 94.5948 132.634C93.6748 132.634 92.7948 132.487 91.9548 132.194C91.1148 131.9 90.3881 131.54 89.7748 131.114L90.8548 129.654ZM113.579 127.494C113.579 126.68 113.712 125.954 113.979 125.314C114.259 124.674 114.626 124.134 115.079 123.694C115.532 123.254 116.059 122.92 116.659 122.694C117.259 122.454 117.879 122.334 118.519 122.334C119.159 122.334 119.779 122.454 120.379 122.694C120.979 122.92 121.506 123.254 121.959 123.694C122.412 124.134 122.772 124.674 123.039 125.314C123.319 125.954 123.459 126.68 123.459 127.494C123.459 128.307 123.319 129.034 123.039 129.674C122.772 130.314 122.412 130.854 121.959 131.294C121.506 131.734 120.979 132.067 120.379 132.294C119.779 132.52 119.159 132.634 118.519 132.634C117.879 132.634 117.259 132.52 116.659 132.294C116.059 132.067 115.532 131.734 115.079 131.294C114.626 130.854 114.259 130.314 113.979 129.674C113.712 129.034 113.579 128.307 113.579 127.494ZM115.959 127.494C115.959 128.48 116.186 129.274 116.639 129.874C117.092 130.46 117.719 130.754 118.519 130.754C119.319 130.754 119.946 130.46 120.399 129.874C120.852 129.274 121.079 128.48 121.079 127.494C121.079 126.494 120.852 125.7 120.399 125.114C119.946 124.514 119.319 124.214 118.519 124.214C117.719 124.214 117.092 124.514 116.639 125.114C116.186 125.7 115.959 126.494 115.959 127.494ZM126.151 122.574H128.051L128.231 124.054H128.311C128.778 123.587 129.291 123.187 129.851 122.854C130.425 122.507 131.091 122.334 131.851 122.334C132.985 122.334 133.818 122.68 134.351 123.374C134.885 124.054 135.151 125.034 135.151 126.314V132.394H132.831V126.614C132.831 125.814 132.691 125.234 132.411 124.874C132.145 124.5 131.671 124.314 130.991 124.314C130.511 124.314 130.085 124.427 129.711 124.654C129.338 124.88 128.925 125.227 128.471 125.694V132.394H126.151V122.574ZM137.744 127.494C137.744 126.694 137.884 125.974 138.164 125.334C138.457 124.694 138.837 124.154 139.304 123.714C139.77 123.26 140.304 122.92 140.904 122.694C141.517 122.454 142.144 122.334 142.784 122.334C143.517 122.334 144.164 122.454 144.724 122.694C145.297 122.92 145.777 123.24 146.164 123.654C146.55 124.054 146.844 124.54 147.044 125.114C147.244 125.687 147.344 126.314 147.344 126.994C147.344 127.22 147.33 127.434 147.304 127.634C147.29 127.834 147.27 127.994 147.244 128.114H140.104C140.184 128.994 140.53 129.674 141.144 130.154C141.757 130.62 142.51 130.854 143.404 130.854C143.91 130.854 144.384 130.787 144.824 130.654C145.264 130.507 145.71 130.307 146.164 130.054L146.944 131.494C146.41 131.827 145.817 132.1 145.164 132.314C144.51 132.527 143.824 132.634 143.104 132.634C142.357 132.634 141.657 132.52 141.004 132.294C140.35 132.054 139.784 131.714 139.304 131.274C138.824 130.834 138.444 130.3 138.164 129.674C137.884 129.034 137.744 128.307 137.744 127.494ZM145.224 126.554C145.224 125.794 145.024 125.2 144.624 124.774C144.224 124.334 143.63 124.114 142.844 124.114C142.177 124.114 141.584 124.32 141.064 124.734C140.544 125.147 140.217 125.754 140.084 126.554H145.224Z" fill="#9B51E0"/>
<path d="M162.048 122.714H170.928V124.394H162.048V122.714ZM162.048 127.174H170.928V128.854H162.048V127.174ZM185.892 118.274H191.292V128.934C191.292 129.6 191.459 130.074 191.792 130.354C192.126 130.62 192.546 130.754 193.052 130.754C193.532 130.754 194.092 130.627 194.732 130.374L195.272 132.074C194.806 132.234 194.366 132.367 193.952 132.474C193.552 132.58 193.066 132.634 192.492 132.634C191.332 132.634 190.459 132.3 189.872 131.634C189.286 130.967 188.992 130.027 188.992 128.814V120.094H185.892V118.274ZM197.884 129.754C197.884 129.207 198.011 128.727 198.264 128.314C198.518 127.887 198.918 127.527 199.464 127.234C200.011 126.94 200.711 126.7 201.564 126.514C202.418 126.327 203.451 126.194 204.664 126.114C204.624 125.554 204.424 125.094 204.064 124.734C203.704 124.374 203.124 124.194 202.324 124.194C201.764 124.194 201.211 124.3 200.664 124.514C200.131 124.714 199.611 124.954 199.104 125.234L198.264 123.694C198.864 123.347 199.551 123.034 200.324 122.754C201.098 122.474 201.904 122.334 202.744 122.334C204.118 122.334 205.164 122.7 205.884 123.434C206.604 124.154 206.964 125.2 206.964 126.574V132.394H205.084L204.904 131.174H204.844C204.324 131.574 203.744 131.92 203.104 132.214C202.478 132.494 201.831 132.634 201.164 132.634C200.684 132.634 200.244 132.56 199.844 132.414C199.444 132.28 199.098 132.087 198.804 131.834C198.511 131.58 198.284 131.28 198.124 130.934C197.964 130.574 197.884 130.18 197.884 129.754ZM200.104 129.574C200.104 130.014 200.271 130.334 200.604 130.534C200.951 130.734 201.371 130.834 201.864 130.834C202.358 130.834 202.831 130.727 203.284 130.514C203.751 130.287 204.211 129.994 204.664 129.634V127.554C203.784 127.62 203.051 127.714 202.464 127.834C201.878 127.94 201.411 128.08 201.064 128.254C200.718 128.427 200.471 128.627 200.324 128.854C200.178 129.067 200.104 129.307 200.104 129.574ZM209.417 122.574H211.157L211.337 123.834H211.397C211.623 123.407 211.897 123.054 212.217 122.774C212.55 122.48 212.997 122.334 213.557 122.334C214.517 122.334 215.117 122.88 215.357 123.974C215.583 123.507 215.87 123.12 216.217 122.814C216.577 122.494 217.03 122.334 217.577 122.334C218.27 122.334 218.803 122.607 219.177 123.154C219.563 123.687 219.757 124.447 219.757 125.434V132.394H217.577V125.614C217.577 124.747 217.303 124.314 216.757 124.314C216.49 124.314 216.257 124.414 216.057 124.614C215.857 124.814 215.663 125.12 215.477 125.534V132.394H213.677V125.614C213.677 124.747 213.397 124.314 212.837 124.314C212.57 124.314 212.343 124.414 212.157 124.614C211.97 124.814 211.783 125.12 211.597 125.534V132.394H209.417V122.574ZM222.089 118.274H224.409V121.914L224.329 123.634C224.756 123.234 225.236 122.92 225.769 122.694C226.302 122.454 226.836 122.334 227.369 122.334C228.009 122.334 228.576 122.454 229.069 122.694C229.562 122.92 229.982 123.254 230.329 123.694C230.676 124.12 230.936 124.64 231.109 125.254C231.296 125.867 231.389 126.554 231.389 127.314C231.389 128.154 231.269 128.907 231.029 129.574C230.789 130.227 230.462 130.78 230.049 131.234C229.649 131.687 229.182 132.034 228.649 132.274C228.129 132.514 227.589 132.634 227.029 132.634C226.562 132.634 226.076 132.52 225.569 132.294C225.062 132.067 224.596 131.74 224.169 131.314H224.109L223.909 132.394H222.089V118.274ZM224.409 129.834C224.769 130.167 225.142 130.4 225.529 130.534C225.916 130.667 226.262 130.734 226.569 130.734C227.262 130.734 227.842 130.454 228.309 129.894C228.776 129.32 229.009 128.474 229.009 127.354C229.009 126.367 228.829 125.6 228.469 125.054C228.109 124.507 227.529 124.234 226.729 124.234C226.356 124.234 225.976 124.327 225.589 124.514C225.202 124.7 224.809 125 224.409 125.414V129.834ZM233.501 127.494C233.501 126.694 233.621 125.974 233.861 125.334C234.101 124.694 234.421 124.154 234.821 123.714C235.234 123.274 235.701 122.934 236.221 122.694C236.741 122.454 237.281 122.334 237.841 122.334C238.428 122.334 238.928 122.44 239.341 122.654C239.768 122.854 240.181 123.134 240.581 123.494L240.481 121.834V118.274H242.801V132.394H240.901L240.721 131.254H240.661C240.274 131.64 239.821 131.967 239.301 132.234C238.794 132.5 238.261 132.634 237.701 132.634C237.074 132.634 236.501 132.52 235.981 132.294C235.461 132.054 235.014 131.714 234.641 131.274C234.281 130.834 234.001 130.3 233.801 129.674C233.601 129.034 233.501 128.307 233.501 127.494ZM235.881 127.474C235.881 128.54 236.088 129.354 236.501 129.914C236.914 130.46 237.501 130.734 238.261 130.734C239.074 130.734 239.814 130.34 240.481 129.554V125.134C240.134 124.8 239.788 124.567 239.441 124.434C239.094 124.3 238.741 124.234 238.381 124.234C238.034 124.234 237.708 124.307 237.401 124.454C237.108 124.6 236.848 124.814 236.621 125.094C236.394 125.36 236.214 125.694 236.081 126.094C235.948 126.494 235.881 126.954 235.881 127.474ZM245.853 129.754C245.853 129.207 245.98 128.727 246.233 128.314C246.487 127.887 246.887 127.527 247.433 127.234C247.98 126.94 248.68 126.7 249.533 126.514C250.387 126.327 251.42 126.194 252.633 126.114C252.593 125.554 252.393 125.094 252.033 124.734C251.673 124.374 251.093 124.194 250.293 124.194C249.733 124.194 249.18 124.3 248.633 124.514C248.1 124.714 247.58 124.954 247.073 125.234L246.233 123.694C246.833 123.347 247.52 123.034 248.293 122.754C249.067 122.474 249.873 122.334 250.713 122.334C252.087 122.334 253.133 122.7 253.853 123.434C254.573 124.154 254.933 125.2 254.933 126.574V132.394H253.053L252.873 131.174H252.813C252.293 131.574 251.713 131.92 251.073 132.214C250.447 132.494 249.8 132.634 249.133 132.634C248.653 132.634 248.213 132.56 247.813 132.414C247.413 132.28 247.067 132.087 246.773 131.834C246.48 131.58 246.253 131.28 246.093 130.934C245.933 130.574 245.853 130.18 245.853 129.754ZM248.073 129.574C248.073 130.014 248.24 130.334 248.573 130.534C248.92 130.734 249.34 130.834 249.833 130.834C250.327 130.834 250.8 130.727 251.253 130.514C251.72 130.287 252.18 129.994 252.633 129.634V127.554C251.753 127.62 251.02 127.714 250.433 127.834C249.847 127.94 249.38 128.08 249.033 128.254C248.687 128.427 248.44 128.627 248.293 128.854C248.147 129.067 248.073 129.307 248.073 129.574ZM284.43 123.814C284.43 123.227 284.616 122.747 284.99 122.374C285.363 121.987 285.836 121.794 286.41 121.794C286.983 121.794 287.456 121.987 287.83 122.374C288.203 122.747 288.39 123.227 288.39 123.814C288.39 124.4 288.203 124.887 287.83 125.274C287.456 125.647 286.983 125.834 286.41 125.834C285.836 125.834 285.363 125.647 284.99 125.274C284.616 124.887 284.43 124.4 284.43 123.814ZM284.43 130.614C284.43 130.027 284.616 129.547 284.99 129.174C285.363 128.787 285.836 128.594 286.41 128.594C286.983 128.594 287.456 128.787 287.83 129.174C288.203 129.547 288.39 130.027 288.39 130.614C288.39 131.2 288.203 131.687 287.83 132.074C287.456 132.447 286.983 132.634 286.41 132.634C285.836 132.634 285.363 132.447 284.99 132.074C284.616 131.687 284.43 131.2 284.43 130.614Z" fill="#2E383C"/>
<path d="M272.998 127.294L269.678 122.574H272.178L273.458 124.434C273.618 124.7 273.791 124.98 273.978 125.274C274.164 125.554 274.351 125.834 274.538 126.114H274.618C274.764 125.834 274.924 125.547 275.098 125.254C275.271 124.96 275.431 124.68 275.578 124.414L276.738 122.574H279.158L275.818 127.534L279.398 132.394H276.898L275.478 130.454C275.291 130.187 275.091 129.9 274.878 129.594C274.678 129.287 274.478 128.994 274.278 128.714H274.198C274.011 129.007 273.831 129.3 273.658 129.594C273.498 129.874 273.324 130.167 273.138 130.474L271.858 132.394H269.438L272.998 127.294Z" fill="#009E73"/>
<path d="M308.974 127.294L305.654 122.574H308.154L309.434 124.434C309.594 124.7 309.767 124.98 309.954 125.274C310.141 125.554 310.327 125.834 310.514 126.114H310.594C310.741 125.834 310.901 125.547 311.074 125.254C311.247 124.96 311.407 124.68 311.554 124.414L312.714 122.574H315.134L311.794 127.534L315.374 132.394H312.874L311.454 130.454C311.267 130.187 311.067 129.9 310.854 129.594C310.654 129.287 310.454 128.994 310.254 128.714H310.174C309.987 129.007 309.807 129.3 309.634 129.594C309.474 129.874 309.301 130.167 309.114 130.474L307.834 132.394H305.414L308.974 127.294ZM333.499 126.634H329.939V124.954H333.499V121.174H335.259V124.954H338.819V126.634H335.259V130.414H333.499V126.634ZM363.023 130.514V132.394H354.163V130.514H357.603V122.154H354.943V120.714C355.663 120.594 356.276 120.454 356.783 120.294C357.303 120.12 357.783 119.914 358.223 119.674H359.903V130.514H363.023Z" fill="#EB5757"/>
<path d="M45 9H467.517V68H45V9Z" fill="#F1F4F8"/>
<path d="M53.6275 28.4496C53.6275 27.6496 53.7475 26.9296 53.9875 26.2896C54.2275 25.6496 54.5475 25.1096 54.9475 24.6696C55.3608 24.2296 55.8275 23.8896 56.3475 23.6496C56.8675 23.4096 57.4075 23.2896 57.9675 23.2896C58.5542 23.2896 59.0542 23.3963 59.4675 23.6096C59.8942 23.8096 60.3075 24.0896 60.7075 24.4496L60.6075 22.7896V19.2296H62.9275V33.3496H61.0275L60.8475 32.2096H60.7875C60.4008 32.5963 59.9475 32.9229 59.4275 33.1896C58.9208 33.4563 58.3875 33.5896 57.8275 33.5896C57.2008 33.5896 56.6275 33.4763 56.1075 33.2496C55.5875 33.0096 55.1408 32.6696 54.7675 32.2296C54.4075 31.7896 54.1275 31.2563 53.9275 30.6296C53.7275 29.9896 53.6275 29.2629 53.6275 28.4496ZM56.0075 28.4296C56.0075 29.4963 56.2142 30.3096 56.6275 30.8696C57.0408 31.4163 57.6275 31.6896 58.3875 31.6896C59.2008 31.6896 59.9408 31.2963 60.6075 30.5096V26.0896C60.2608 25.7563 59.9142 25.5229 59.5675 25.3896C59.2208 25.2563 58.8675 25.1896 58.5075 25.1896C58.1608 25.1896 57.8342 25.2629 57.5275 25.4096C57.2342 25.5563 56.9742 25.7696 56.7475 26.0496C56.5208 26.3163 56.3408 26.6496 56.2075 27.0496C56.0742 27.4496 56.0075 27.9096 56.0075 28.4296ZM65.7997 28.4496C65.7997 27.6496 65.9397 26.9296 66.2197 26.2896C66.513 25.6496 66.893 25.1096 67.3597 24.6696C67.8264 24.2163 68.3597 23.8763 68.9597 23.6496C69.573 23.4096 70.1997 23.2896 70.8397 23.2896C71.573 23.2896 72.2197 23.4096 72.7797 23.6496C73.353 23.8763 73.833 24.1963 74.2197 24.6096C74.6064 25.0096 74.8997 25.4963 75.0997 26.0696C75.2997 26.6429 75.3997 27.2696 75.3997 27.9496C75.3997 28.1763 75.3864 28.3896 75.3597 28.5896C75.3464 28.7896 75.3264 28.9496 75.2997 29.0696H68.1597C68.2397 29.9496 68.5864 30.6296 69.1997 31.1096C69.813 31.5763 70.5664 31.8096 71.4597 31.8096C71.9664 31.8096 72.4397 31.7429 72.8797 31.6096C73.3197 31.4629 73.7664 31.2629 74.2197 31.0096L74.9997 32.4496C74.4664 32.7829 73.873 33.0563 73.2197 33.2696C72.5664 33.4829 71.8797 33.5896 71.1597 33.5896C70.413 33.5896 69.713 33.4763 69.0597 33.2496C68.4064 33.0096 67.8397 32.6696 67.3597 32.2296C66.8797 31.7896 66.4997 31.2563 66.2197 30.6296C65.9397 29.9896 65.7997 29.2629 65.7997 28.4496ZM73.2797 27.5096C73.2797 26.7496 73.0797 26.1563 72.6797 25.7296C72.2797 25.2896 71.6864 25.0696 70.8997 25.0696C70.233 25.0696 69.6397 25.2763 69.1197 25.6896C68.5997 26.1029 68.273 26.7096 68.1397 27.5096H73.2797ZM87.7119 21.2296C87.3519 21.0829 86.9985 20.9763 86.6519 20.9096C86.3185 20.8429 85.9519 20.8096 85.5519 20.8096C84.7919 20.8096 84.2385 20.9963 83.8919 21.3696C83.5585 21.7296 83.3919 22.2563 83.3919 22.9496V23.5296H87.1319V25.3496H83.3919V33.3496H81.1119V25.3496H78.3919V23.6296L81.1119 23.5296V22.9896C81.1119 22.4163 81.1919 21.8829 81.3519 21.3896C81.5119 20.8963 81.7585 20.4763 82.0919 20.1296C82.4385 19.7696 82.8719 19.4896 83.3919 19.2896C83.9252 19.0896 84.5519 18.9896 85.2719 18.9896C85.8052 18.9896 86.3119 19.0363 86.7919 19.1296C87.2852 19.2229 87.7519 19.3563 88.1919 19.5296L87.7119 21.2296ZM204.714 36.8896C203.367 35.7696 202.3 34.4496 201.514 32.9296C200.74 31.4096 200.354 29.6963 200.354 27.7896C200.354 25.8829 200.74 24.1696 201.514 22.6496C202.3 21.1296 203.367 19.8096 204.714 18.6896L205.994 19.7496C204.727 20.8963 203.8 22.1163 203.214 23.4096C202.627 24.7029 202.334 26.1629 202.334 27.7896C202.334 29.4163 202.627 30.8763 203.214 32.1696C203.8 33.4629 204.727 34.6829 205.994 35.8296L204.714 36.8896ZM222.938 35.8296C224.205 34.6829 225.131 33.4629 225.718 32.1696C226.305 30.8763 226.598 29.4163 226.598 27.7896C226.598 26.1629 226.305 24.7029 225.718 23.4096C225.131 22.1163 224.205 20.8963 222.938 19.7496L224.218 18.6896C225.565 19.8096 226.625 21.1296 227.398 22.6496C228.185 24.1696 228.578 25.8829 228.578 27.7896C228.578 29.6963 228.185 31.4096 227.398 32.9296C226.625 34.4496 225.565 35.7696 224.218 36.8896L222.938 35.8296ZM236.47 24.7696C236.47 24.1829 236.657 23.7029 237.03 23.3296C237.404 22.9429 237.877 22.7496 238.45 22.7496C239.024 22.7496 239.497 22.9429 239.87 23.3296C240.244 23.7029 240.43 24.1829 240.43 24.7696C240.43 25.3563 240.244 25.8429 239.87 26.2296C239.497 26.6029 239.024 26.7896 238.45 26.7896C237.877 26.7896 237.404 26.6029 237.03 26.2296C236.657 25.8429 236.47 25.3563 236.47 24.7696ZM236.47 31.5696C236.47 30.9829 236.657 30.5029 237.03 30.1296C237.404 29.7429 237.877 29.5496 238.45 29.5496C239.024 29.5496 239.497 29.7429 239.87 30.1296C240.244 30.5029 240.43 30.9829 240.43 31.5696C240.43 32.1563 240.244 32.6429 239.87 33.0296C239.497 33.4029 239.024 33.5896 238.45 33.5896C237.877 33.5896 237.404 33.4029 237.03 33.0296C236.657 32.6429 236.47 32.1563 236.47 31.5696ZM103.136 48.5296H105.036L105.236 50.7496H105.296C105.803 49.9496 106.41 49.3429 107.116 48.9296C107.836 48.5029 108.623 48.2896 109.476 48.2896C109.876 48.2896 110.216 48.3229 110.496 48.3896C110.79 48.4429 111.083 48.5429 111.376 48.6896L110.896 50.6296C110.576 50.5229 110.29 50.4496 110.036 50.4096C109.796 50.3563 109.49 50.3296 109.116 50.3296C108.436 50.3296 107.783 50.5229 107.156 50.9096C106.53 51.2963 105.963 51.9696 105.456 52.9296V58.3496H103.136V48.5296ZM113.768 53.4496C113.768 52.6496 113.908 51.9296 114.188 51.2896C114.482 50.6496 114.862 50.1096 115.328 49.6696C115.795 49.2163 116.328 48.8763 116.928 48.6496C117.542 48.4096 118.168 48.2896 118.808 48.2896C119.542 48.2896 120.188 48.4096 120.748 48.6496C121.322 48.8763 121.802 49.1963 122.188 49.6096C122.575 50.0096 122.868 50.4963 123.068 51.0696C123.268 51.6429 123.368 52.2696 123.368 52.9496C123.368 53.1763 123.355 53.3896 123.328 53.5896C123.315 53.7896 123.295 53.9496 123.268 54.0696H116.128C116.208 54.9496 116.555 55.6296 117.168 56.1096C117.782 56.5763 118.535 56.8096 119.428 56.8096C119.935 56.8096 120.408 56.7429 120.848 56.6096C121.288 56.4629 121.735 56.2629 122.188 56.0096L122.968 57.4496C122.435 57.7829 121.842 58.0563 121.188 58.2696C120.535 58.4829 119.848 58.5896 119.128 58.5896C118.382 58.5896 117.682 58.4763 117.028 58.2496C116.375 58.0096 115.808 57.6696 115.328 57.2296C114.848 56.7896 114.468 56.2563 114.188 55.6296C113.908 54.9896 113.768 54.2629 113.768 53.4496ZM121.248 52.5096C121.248 51.7496 121.048 51.1563 120.648 50.7296C120.248 50.2896 119.655 50.0696 118.868 50.0696C118.202 50.0696 117.608 50.2763 117.088 50.6896C116.568 51.1029 116.242 51.7096 116.108 52.5096H121.248ZM128.321 50.3496H125.701V48.6296L128.421 48.5296L128.721 45.8496H130.621V48.5296H135.101V50.3496H130.621V54.3896C130.621 55.2029 130.787 55.8029 131.121 56.1896C131.454 56.5629 132.041 56.7496 132.881 56.7496C133.307 56.7496 133.694 56.7163 134.041 56.6496C134.387 56.5696 134.721 56.4696 135.041 56.3496L135.481 58.0296C135.041 58.1763 134.554 58.3029 134.021 58.4096C133.487 58.5296 132.921 58.5896 132.321 58.5896C131.574 58.5896 130.947 58.4896 130.441 58.2896C129.934 58.0896 129.521 57.8096 129.201 57.4496C128.894 57.0763 128.667 56.6296 128.521 56.1096C128.387 55.5896 128.321 55.0163 128.321 54.3896V50.3496ZM146.813 58.3496H144.933L144.753 56.7896H144.673C144.206 57.3363 143.693 57.7763 143.133 58.1096C142.573 58.4296 141.926 58.5896 141.193 58.5896C140.046 58.5896 139.213 58.2496 138.693 57.5696C138.173 56.8763 137.913 55.8896 137.913 54.6096V48.5296H140.213V54.3096C140.213 55.1096 140.346 55.6963 140.613 56.0696C140.893 56.4296 141.373 56.6096 142.053 56.6096C142.519 56.6096 142.933 56.5029 143.293 56.2896C143.666 56.0763 144.073 55.6963 144.513 55.1496V48.5296H146.813V58.3496ZM151.105 48.5296H153.005L153.205 50.7496H153.265C153.772 49.9496 154.378 49.3429 155.085 48.9296C155.805 48.5029 156.592 48.2896 157.445 48.2896C157.845 48.2896 158.185 48.3229 158.465 48.3896C158.758 48.4429 159.052 48.5429 159.345 48.6896L158.865 50.6296C158.545 50.5229 158.258 50.4496 158.005 50.4096C157.765 50.3563 157.458 50.3296 157.085 50.3296C156.405 50.3296 155.752 50.5229 155.125 50.9096C154.498 51.2963 153.932 51.9696 153.425 52.9296V58.3496H151.105V48.5296ZM162.137 48.5296H164.037L164.217 50.0096H164.297C164.764 49.5429 165.277 49.1429 165.837 48.8096C166.411 48.4629 167.077 48.2896 167.837 48.2896C168.971 48.2896 169.804 48.6363 170.337 49.3296C170.871 50.0096 171.137 50.9896 171.137 52.2696V58.3496H168.817V52.5696C168.817 51.7696 168.677 51.1896 168.397 50.8296C168.131 50.4563 167.657 50.2696 166.977 50.2696C166.497 50.2696 166.071 50.3829 165.697 50.6096C165.324 50.8363 164.911 51.1829 164.457 51.6496V58.3496H162.137V48.5296Z" fill="#2E383C"/>
<path d="M104.496 34.1496V37.2296H102.176V23.5296H104.076L104.256 24.6496H104.316C104.743 24.2629 105.23 23.9429 105.776 23.6896C106.336 23.4229 106.896 23.2896 107.456 23.2896C108.096 23.2896 108.663 23.4096 109.156 23.6496C109.663 23.8763 110.083 24.2096 110.416 24.6496C110.763 25.0896 111.023 25.6163 111.196 26.2296C111.383 26.8429 111.476 27.5296 111.476 28.2896C111.476 29.1296 111.356 29.8829 111.116 30.5496C110.876 31.2029 110.55 31.7563 110.136 32.2096C109.736 32.6496 109.27 32.9896 108.736 33.2296C108.216 33.4696 107.676 33.5896 107.116 33.5896C106.663 33.5896 106.196 33.4896 105.716 33.2896C105.25 33.0896 104.816 32.8029 104.416 32.4296L104.496 34.1496ZM104.496 30.7896C104.856 31.1229 105.223 31.3563 105.596 31.4896C105.983 31.6229 106.33 31.6896 106.636 31.6896C107.343 31.6896 107.93 31.4096 108.396 30.8496C108.863 30.2763 109.096 29.4296 109.096 28.3096C109.096 27.3229 108.916 26.5563 108.556 26.0096C108.196 25.4629 107.616 25.1896 106.816 25.1896C106.443 25.1896 106.063 25.2829 105.676 25.4696C105.29 25.6563 104.896 25.9563 104.496 26.3696V30.7896ZM113.948 19.2296H119.348V29.8896C119.348 30.5563 119.515 31.0296 119.848 31.3096C120.182 31.5763 120.602 31.7096 121.108 31.7096C121.588 31.7096 122.148 31.5829 122.788 31.3296L123.328 33.0296C122.862 33.1896 122.422 33.3229 122.008 33.4296C121.608 33.5363 121.122 33.5896 120.548 33.5896C119.388 33.5896 118.515 33.2563 117.928 32.5896C117.342 31.9229 117.048 30.9829 117.048 29.7696V21.0496H113.948V19.2296ZM134.821 33.3496H132.941L132.761 31.7896H132.681C132.214 32.3363 131.701 32.7763 131.141 33.1096C130.581 33.4296 129.934 33.5896 129.201 33.5896C128.054 33.5896 127.221 33.2496 126.701 32.5696C126.181 31.8763 125.921 30.8896 125.921 29.6096V23.5296H128.221V29.3096C128.221 30.1096 128.354 30.6963 128.621 31.0696C128.901 31.4296 129.381 31.6096 130.061 31.6096C130.527 31.6096 130.941 31.5029 131.301 31.2896C131.674 31.0763 132.081 30.6963 132.521 30.1496V23.5296H134.821V33.3496ZM138.833 30.6096C139.393 30.9963 139.973 31.3029 140.573 31.5296C141.186 31.7429 141.873 31.8496 142.633 31.8496C143.406 31.8496 143.973 31.7429 144.333 31.5296C144.693 31.3029 144.873 31.0163 144.873 30.6696C144.873 30.3229 144.639 30.0363 144.173 29.8096C143.706 29.5696 142.973 29.3163 141.973 29.0496C141.506 28.9296 141.053 28.7829 140.613 28.6096C140.173 28.4363 139.786 28.2363 139.453 28.0096C139.119 27.7829 138.853 27.5229 138.653 27.2296C138.453 26.9363 138.353 26.6029 138.353 26.2296C138.353 25.3629 138.726 24.6563 139.473 24.1096C140.219 23.5629 141.293 23.2896 142.693 23.2896C143.493 23.2896 144.246 23.4229 144.953 23.6896C145.659 23.9563 146.266 24.2563 146.773 24.5896L145.713 26.0096C145.273 25.7163 144.799 25.4829 144.293 25.3096C143.799 25.1229 143.273 25.0296 142.713 25.0296C141.953 25.0296 141.419 25.1363 141.113 25.3496C140.806 25.5496 140.653 25.8029 140.653 26.1096C140.653 26.2829 140.719 26.4429 140.853 26.5896C140.999 26.7229 141.193 26.8496 141.433 26.9696C141.686 27.0763 141.979 27.1829 142.313 27.2896C142.646 27.3963 143.013 27.4963 143.413 27.5896C143.986 27.7363 144.499 27.9029 144.953 28.0896C145.419 28.2629 145.813 28.4629 146.133 28.6896C146.466 28.9163 146.719 29.1829 146.893 29.4896C147.079 29.7963 147.173 30.1496 147.173 30.5496C147.173 30.9763 147.073 31.3763 146.873 31.7496C146.673 32.1096 146.379 32.4296 145.993 32.7096C145.606 32.9763 145.126 33.1896 144.553 33.3496C143.979 33.5096 143.319 33.5896 142.573 33.5896C141.653 33.5896 140.773 33.4429 139.933 33.1496C139.093 32.8563 138.366 32.4963 137.753 32.0696L138.833 30.6096ZM159.305 34.5896V36.3896H149.705V34.5896H159.305ZM161.557 28.4496C161.557 27.6363 161.691 26.9096 161.957 26.2696C162.237 25.6296 162.604 25.0896 163.057 24.6496C163.511 24.2096 164.037 23.8763 164.637 23.6496C165.237 23.4096 165.857 23.2896 166.497 23.2896C167.137 23.2896 167.757 23.4096 168.357 23.6496C168.957 23.8763 169.484 24.2096 169.937 24.6496C170.391 25.0896 170.751 25.6296 171.017 26.2696C171.297 26.9096 171.437 27.6363 171.437 28.4496C171.437 29.2629 171.297 29.9896 171.017 30.6296C170.751 31.2696 170.391 31.8096 169.937 32.2496C169.484 32.6896 168.957 33.0229 168.357 33.2496C167.757 33.4763 167.137 33.5896 166.497 33.5896C165.857 33.5896 165.237 33.4763 164.637 33.2496C164.037 33.0229 163.511 32.6896 163.057 32.2496C162.604 31.8096 162.237 31.2696 161.957 30.6296C161.691 29.9896 161.557 29.2629 161.557 28.4496ZM163.937 28.4496C163.937 29.4363 164.164 30.2296 164.617 30.8296C165.071 31.4163 165.697 31.7096 166.497 31.7096C167.297 31.7096 167.924 31.4163 168.377 30.8296C168.831 30.2296 169.057 29.4363 169.057 28.4496C169.057 27.4496 168.831 26.6563 168.377 26.0696C167.924 25.4696 167.297 25.1696 166.497 25.1696C165.697 25.1696 165.071 25.4696 164.617 26.0696C164.164 26.6563 163.937 27.4496 163.937 28.4496ZM174.129 23.5296H176.029L176.209 25.0096H176.289C176.756 24.5429 177.269 24.1429 177.829 23.8096C178.403 23.4629 179.069 23.2896 179.829 23.2896C180.963 23.2896 181.796 23.6363 182.329 24.3296C182.863 25.0096 183.129 25.9896 183.129 27.2696V33.3496H180.809V27.5696C180.809 26.7696 180.669 26.1896 180.389 25.8296C180.123 25.4563 179.649 25.2696 178.969 25.2696C178.489 25.2696 178.063 25.3829 177.689 25.6096C177.316 25.8363 176.903 26.1829 176.449 26.6496V33.3496H174.129V23.5296ZM185.722 28.4496C185.722 27.6496 185.862 26.9296 186.142 26.2896C186.435 25.6496 186.815 25.1096 187.282 24.6696C187.748 24.2163 188.282 23.8763 188.882 23.6496C189.495 23.4096 190.122 23.2896 190.762 23.2896C191.495 23.2896 192.142 23.4096 192.702 23.6496C193.275 23.8763 193.755 24.1963 194.142 24.6096C194.528 25.0096 194.822 25.4963 195.022 26.0696C195.222 26.6429 195.322 27.2696 195.322 27.9496C195.322 28.1763 195.308 28.3896 195.282 28.5896C195.268 28.7896 195.248 28.9496 195.222 29.0696H188.082C188.162 29.9496 188.508 30.6296 189.122 31.1096C189.735 31.5763 190.488 31.8096 191.382 31.8096C191.888 31.8096 192.362 31.7429 192.802 31.6096C193.242 31.4629 193.688 31.2629 194.142 31.0096L194.922 32.4496C194.388 32.7829 193.795 33.0563 193.142 33.2696C192.488 33.4829 191.802 33.5896 191.082 33.5896C190.335 33.5896 189.635 33.4763 188.982 33.2496C188.328 33.0096 187.762 32.6696 187.282 32.2296C186.802 31.7896 186.422 31.2563 186.142 30.6296C185.862 29.9896 185.722 29.2629 185.722 28.4496ZM193.202 27.5096C193.202 26.7496 193.002 26.1563 192.602 25.7296C192.202 25.2896 191.608 25.0696 190.822 25.0696C190.155 25.0696 189.562 25.2763 189.042 25.6896C188.522 26.1029 188.195 26.7096 188.062 27.5096H193.202Z" fill="#9B51E0"/>
<path d="M213.046 28.2496L209.726 23.5296H212.226L213.506 25.3896C213.666 25.6563 213.839 25.9363 214.026 26.2296C214.213 26.5096 214.399 26.7896 214.586 27.0696H214.666C214.813 26.7896 214.973 26.5029 215.146 26.2096C215.319 25.9163 215.479 25.6363 215.626 25.3696L216.786 23.5296H219.206L215.866 28.4896L219.446 33.3496H216.946L215.526 31.4096C215.339 31.1429 215.139 30.8563 214.926 30.5496C214.726 30.2429 214.526 29.9496 214.326 29.6696H214.246C214.059 29.9629 213.879 30.2563 213.706 30.5496C213.546 30.8296 213.373 31.1229 213.186 31.4296L211.906 33.3496H209.486L213.046 28.2496Z" fill="#009E73"/>
<path d="M189.062 53.2496L185.742 48.5296H188.242L189.522 50.3896C189.682 50.6563 189.855 50.9363 190.042 51.2296C190.228 51.5096 190.415 51.7896 190.602 52.0696H190.682C190.828 51.7896 190.988 51.5029 191.162 51.2096C191.335 50.9163 191.495 50.6363 191.642 50.3696L192.802 48.5296H195.222L191.882 53.4896L195.462 58.3496H192.962L191.542 56.4096C191.355 56.1429 191.155 55.8563 190.942 55.5496C190.742 55.2429 190.542 54.9496 190.342 54.6696H190.262C190.075 54.9629 189.895 55.2563 189.722 55.5496C189.562 55.8296 189.388 56.1229 189.202 56.4296L187.922 58.3496H185.502L189.062 53.2496ZM213.586 52.5896H210.026V50.9096H213.586V47.1296H215.346V50.9096H218.906V52.5896H215.346V56.3696H213.586V52.5896ZM243.11 56.4696V58.3496H234.25V56.4696H237.69V48.1096H235.03V46.6696C235.75 46.5496 236.364 46.4096 236.87 46.2496C237.39 46.0763 237.87 45.8696 238.31 45.6296H239.99V56.4696H243.11Z" fill="#EB5757"/>
</svg>
