<svg width="511" height="152" viewBox="0 0 511 152" fill="none" xmlns="http://www.w3.org/2000/svg">
<rect width="511" height="152" fill="white"/>
<path d="M45 108H467V143H45V108Z" fill="#F1F4F8"/>
<path d="M62.8582 132.394H60.9782L60.7982 130.834H60.7182C60.2515 131.38 59.7382 131.82 59.1782 132.154C58.6182 132.474 57.9715 132.634 57.2382 132.634C56.0915 132.634 55.2582 132.294 54.7382 131.614C54.2182 130.92 53.9582 129.934 53.9582 128.654V122.574H56.2582V128.354C56.2582 129.154 56.3915 129.74 56.6582 130.114C56.9382 130.474 57.4182 130.654 58.0982 130.654C58.5649 130.654 58.9782 130.547 59.3382 130.334C59.7115 130.12 60.1182 129.74 60.5582 129.194V122.574H62.8582V132.394ZM66.1904 122.574H68.0904L68.2704 124.054H68.3504C68.8171 123.587 69.3304 123.187 69.8904 122.854C70.4637 122.507 71.1304 122.334 71.8904 122.334C73.0237 122.334 73.8571 122.68 74.3904 123.374C74.9237 124.054 75.1904 125.034 75.1904 126.314V132.394H72.8704V126.614C72.8704 125.814 72.7304 125.234 72.4504 124.874C72.1837 124.5 71.7104 124.314 71.0304 124.314C70.5504 124.314 70.1237 124.427 69.7504 124.654C69.3771 124.88 68.9637 125.227 68.5104 125.694V132.394H66.1904V122.574ZM78.0026 127.494C78.0026 126.68 78.1492 125.954 78.4426 125.314C78.7492 124.674 79.1559 124.134 79.6626 123.694C80.1692 123.254 80.7626 122.92 81.4426 122.694C82.1226 122.454 82.8359 122.334 83.5826 122.334C84.3826 122.334 85.0826 122.467 85.6826 122.734C86.2959 123 86.8092 123.327 87.2226 123.714L86.1226 125.154C85.7359 124.847 85.3426 124.614 84.9426 124.454C84.5559 124.294 84.1426 124.214 83.7026 124.214C82.7159 124.214 81.9159 124.514 81.3026 125.114C80.6892 125.7 80.3826 126.494 80.3826 127.494C80.3826 127.987 80.4626 128.434 80.6226 128.834C80.7826 129.234 81.0026 129.58 81.2826 129.874C81.5759 130.154 81.9226 130.374 82.3226 130.534C82.7226 130.68 83.1626 130.754 83.6426 130.754C84.2026 130.754 84.7092 130.647 85.1626 130.434C85.6292 130.22 86.0559 129.967 86.4426 129.674L87.4026 131.154C86.8426 131.647 86.2159 132.02 85.5226 132.274C84.8292 132.514 84.1292 132.634 83.4226 132.634C82.6492 132.634 81.9292 132.52 81.2626 132.294C80.6092 132.067 80.0359 131.734 79.5426 131.294C79.0626 130.854 78.6826 130.314 78.4026 129.674C78.1359 129.034 78.0026 128.307 78.0026 127.494ZM90.1748 118.274H92.4948V121.914L92.3548 124.014C92.8081 123.56 93.3148 123.167 93.8748 122.834C94.4481 122.5 95.1148 122.334 95.8748 122.334C97.0081 122.334 97.8414 122.68 98.3748 123.374C98.9081 124.054 99.1748 125.034 99.1748 126.314V132.394H96.8548V126.614C96.8548 125.814 96.7148 125.234 96.4348 124.874C96.1681 124.5 95.6948 124.314 95.0148 124.314C94.5348 124.314 94.1081 124.427 93.7348 124.654C93.3614 124.88 92.9481 125.227 92.4948 125.694V132.394H90.1748V118.274ZM101.947 129.754C101.947 129.207 102.074 128.727 102.327 128.314C102.58 127.887 102.98 127.527 103.527 127.234C104.074 126.94 104.774 126.7 105.627 126.514C106.48 126.327 107.514 126.194 108.727 126.114C108.687 125.554 108.487 125.094 108.127 124.734C107.767 124.374 107.187 124.194 106.387 124.194C105.827 124.194 105.274 124.3 104.727 124.514C104.194 124.714 103.674 124.954 103.167 125.234L102.327 123.694C102.927 123.347 103.614 123.034 104.387 122.754C105.16 122.474 105.967 122.334 106.807 122.334C108.18 122.334 109.227 122.7 109.947 123.434C110.667 124.154 111.027 125.2 111.027 126.574V132.394H109.147L108.967 131.174H108.907C108.387 131.574 107.807 131.92 107.167 132.214C106.54 132.494 105.894 132.634 105.227 132.634C104.747 132.634 104.307 132.56 103.907 132.414C103.507 132.28 103.16 132.087 102.867 131.834C102.574 131.58 102.347 131.28 102.187 130.934C102.027 130.574 101.947 130.18 101.947 129.754ZM104.167 129.574C104.167 130.014 104.334 130.334 104.667 130.534C105.014 130.734 105.434 130.834 105.927 130.834C106.42 130.834 106.894 130.727 107.347 130.514C107.814 130.287 108.274 129.994 108.727 129.634V127.554C107.847 127.62 107.114 127.714 106.527 127.834C105.94 127.94 105.474 128.08 105.127 128.254C104.78 128.427 104.534 128.627 104.387 128.854C104.24 129.067 104.167 129.307 104.167 129.574ZM114.159 122.574H116.059L116.239 124.054H116.319C116.786 123.587 117.299 123.187 117.859 122.854C118.432 122.507 119.099 122.334 119.859 122.334C120.992 122.334 121.826 122.68 122.359 123.374C122.892 124.054 123.159 125.034 123.159 126.314V132.394H120.839V126.614C120.839 125.814 120.699 125.234 120.419 124.874C120.152 124.5 119.679 124.314 118.999 124.314C118.519 124.314 118.092 124.427 117.719 124.654C117.346 124.88 116.932 125.227 116.479 125.694V132.394H114.159V122.574ZM127.671 133.814C127.671 134.254 127.911 134.6 128.391 134.854C128.885 135.107 129.591 135.234 130.511 135.234C130.991 135.234 131.425 135.187 131.811 135.094C132.198 135.014 132.531 134.9 132.811 134.754C133.091 134.607 133.305 134.434 133.451 134.234C133.598 134.047 133.671 133.847 133.671 133.634C133.671 133.247 133.505 132.987 133.171 132.854C132.838 132.734 132.345 132.674 131.691 132.674H130.131C129.811 132.674 129.525 132.66 129.271 132.634C129.031 132.62 128.818 132.58 128.631 132.514C128.285 132.727 128.038 132.94 127.891 133.154C127.745 133.367 127.671 133.587 127.671 133.814ZM125.751 134.114C125.751 133.727 125.885 133.354 126.151 132.994C126.418 132.634 126.805 132.32 127.311 132.054V131.974C127.045 131.827 126.811 131.62 126.611 131.354C126.411 131.087 126.311 130.747 126.311 130.334C126.311 130 126.418 129.674 126.631 129.354C126.845 129.02 127.131 128.727 127.491 128.474V128.394C127.145 128.154 126.845 127.82 126.591 127.394C126.351 126.967 126.231 126.46 126.231 125.874C126.231 125.314 126.338 124.814 126.551 124.374C126.778 123.934 127.071 123.567 127.431 123.274C127.805 122.967 128.231 122.734 128.711 122.574C129.205 122.414 129.725 122.334 130.271 122.334C130.858 122.334 131.371 122.414 131.811 122.574H135.831V124.274H133.531C133.705 124.474 133.858 124.72 133.991 125.014C134.125 125.294 134.191 125.607 134.191 125.954C134.191 126.5 134.091 126.98 133.891 127.394C133.691 127.807 133.411 128.154 133.051 128.434C132.705 128.714 132.291 128.927 131.811 129.074C131.331 129.207 130.818 129.274 130.271 129.274C129.778 129.274 129.278 129.187 128.771 129.014C128.371 129.267 128.171 129.567 128.171 129.914C128.171 130.54 128.791 130.854 130.031 130.854H132.031C133.311 130.854 134.271 131.04 134.911 131.414C135.565 131.787 135.891 132.4 135.891 133.254C135.891 133.734 135.758 134.187 135.491 134.614C135.225 135.04 134.845 135.407 134.351 135.714C133.871 136.034 133.278 136.28 132.571 136.454C131.878 136.64 131.098 136.734 130.231 136.734C129.551 136.734 128.938 136.68 128.391 136.574C127.845 136.467 127.371 136.3 126.971 136.074C126.585 135.86 126.285 135.587 126.071 135.254C125.858 134.934 125.751 134.554 125.751 134.114ZM130.271 127.834C130.778 127.834 131.218 127.667 131.591 127.334C131.965 126.987 132.151 126.5 132.151 125.874C132.151 125.274 131.965 124.8 131.591 124.454C131.218 124.094 130.778 123.914 130.271 123.914C129.765 123.914 129.325 124.094 128.951 124.454C128.591 124.8 128.411 125.274 128.411 125.874C128.411 126.5 128.591 126.987 128.951 127.334C129.325 127.667 129.765 127.834 130.271 127.834ZM137.744 127.494C137.744 126.694 137.884 125.974 138.164 125.334C138.457 124.694 138.837 124.154 139.304 123.714C139.77 123.26 140.304 122.92 140.904 122.694C141.517 122.454 142.144 122.334 142.784 122.334C143.517 122.334 144.164 122.454 144.724 122.694C145.297 122.92 145.777 123.24 146.164 123.654C146.55 124.054 146.844 124.54 147.044 125.114C147.244 125.687 147.344 126.314 147.344 126.994C147.344 127.22 147.33 127.434 147.304 127.634C147.29 127.834 147.27 127.994 147.244 128.114H140.104C140.184 128.994 140.53 129.674 141.144 130.154C141.757 130.62 142.51 130.854 143.404 130.854C143.91 130.854 144.384 130.787 144.824 130.654C145.264 130.507 145.71 130.307 146.164 130.054L146.944 131.494C146.41 131.827 145.817 132.1 145.164 132.314C144.51 132.527 143.824 132.634 143.104 132.634C142.357 132.634 141.657 132.52 141.004 132.294C140.35 132.054 139.784 131.714 139.304 131.274C138.824 130.834 138.444 130.3 138.164 129.674C137.884 129.034 137.744 128.307 137.744 127.494ZM145.224 126.554C145.224 125.794 145.024 125.2 144.624 124.774C144.224 124.334 143.63 124.114 142.844 124.114C142.177 124.114 141.584 124.32 141.064 124.734C140.544 125.147 140.217 125.754 140.084 126.554H145.224ZM149.556 127.494C149.556 126.694 149.676 125.974 149.916 125.334C150.156 124.694 150.476 124.154 150.876 123.714C151.289 123.274 151.756 122.934 152.276 122.694C152.796 122.454 153.336 122.334 153.896 122.334C154.482 122.334 154.982 122.44 155.396 122.654C155.822 122.854 156.236 123.134 156.636 123.494L156.536 121.834V118.274H158.856V132.394H156.956L156.776 131.254H156.716C156.329 131.64 155.876 131.967 155.356 132.234C154.849 132.5 154.316 132.634 153.756 132.634C153.129 132.634 152.556 132.52 152.036 132.294C151.516 132.054 151.069 131.714 150.696 131.274C150.336 130.834 150.056 130.3 149.856 129.674C149.656 129.034 149.556 128.307 149.556 127.494ZM151.936 127.474C151.936 128.54 152.142 129.354 152.556 129.914C152.969 130.46 153.556 130.734 154.316 130.734C155.129 130.734 155.869 130.34 156.536 129.554V125.134C156.189 124.8 155.842 124.567 155.496 124.434C155.149 124.3 154.796 124.234 154.436 124.234C154.089 124.234 153.762 124.307 153.456 124.454C153.162 124.6 152.902 124.814 152.676 125.094C152.449 125.36 152.269 125.694 152.136 126.094C152.002 126.494 151.936 126.954 151.936 127.474Z" fill="#9B51E0"/>
<path d="M174.04 122.714H182.92V124.394H174.04V122.714ZM174.04 127.174H182.92V128.854H174.04V127.174ZM197.884 118.274H203.284V128.934C203.284 129.6 203.451 130.074 203.784 130.354C204.118 130.62 204.538 130.754 205.044 130.754C205.524 130.754 206.084 130.627 206.724 130.374L207.264 132.074C206.798 132.234 206.358 132.367 205.944 132.474C205.544 132.58 205.058 132.634 204.484 132.634C203.324 132.634 202.451 132.3 201.864 131.634C201.278 130.967 200.984 130.027 200.984 128.814V120.094H197.884V118.274ZM209.877 129.754C209.877 129.207 210.003 128.727 210.257 128.314C210.51 127.887 210.91 127.527 211.457 127.234C212.003 126.94 212.703 126.7 213.557 126.514C214.41 126.327 215.443 126.194 216.657 126.114C216.617 125.554 216.417 125.094 216.057 124.734C215.697 124.374 215.117 124.194 214.317 124.194C213.757 124.194 213.203 124.3 212.657 124.514C212.123 124.714 211.603 124.954 211.097 125.234L210.257 123.694C210.857 123.347 211.543 123.034 212.317 122.754C213.09 122.474 213.897 122.334 214.737 122.334C216.11 122.334 217.157 122.7 217.877 123.434C218.597 124.154 218.957 125.2 218.957 126.574V132.394H217.077L216.897 131.174H216.837C216.317 131.574 215.737 131.92 215.097 132.214C214.47 132.494 213.823 132.634 213.157 132.634C212.677 132.634 212.237 132.56 211.837 132.414C211.437 132.28 211.09 132.087 210.797 131.834C210.503 131.58 210.277 131.28 210.117 130.934C209.957 130.574 209.877 130.18 209.877 129.754ZM212.097 129.574C212.097 130.014 212.263 130.334 212.597 130.534C212.943 130.734 213.363 130.834 213.857 130.834C214.35 130.834 214.823 130.727 215.277 130.514C215.743 130.287 216.203 129.994 216.657 129.634V127.554C215.777 127.62 215.043 127.714 214.457 127.834C213.87 127.94 213.403 128.08 213.057 128.254C212.71 128.427 212.463 128.627 212.317 128.854C212.17 129.067 212.097 129.307 212.097 129.574ZM221.409 122.574H223.149L223.329 123.834H223.389C223.615 123.407 223.889 123.054 224.209 122.774C224.542 122.48 224.989 122.334 225.549 122.334C226.509 122.334 227.109 122.88 227.349 123.974C227.575 123.507 227.862 123.12 228.209 122.814C228.569 122.494 229.022 122.334 229.569 122.334C230.262 122.334 230.795 122.607 231.169 123.154C231.555 123.687 231.749 124.447 231.749 125.434V132.394H229.569V125.614C229.569 124.747 229.295 124.314 228.749 124.314C228.482 124.314 228.249 124.414 228.049 124.614C227.849 124.814 227.655 125.12 227.469 125.534V132.394H225.669V125.614C225.669 124.747 225.389 124.314 224.829 124.314C224.562 124.314 224.335 124.414 224.149 124.614C223.962 124.814 223.775 125.12 223.589 125.534V132.394H221.409V122.574ZM234.081 118.274H236.401V121.914L236.321 123.634C236.748 123.234 237.228 122.92 237.761 122.694C238.294 122.454 238.828 122.334 239.361 122.334C240.001 122.334 240.568 122.454 241.061 122.694C241.554 122.92 241.974 123.254 242.321 123.694C242.668 124.12 242.928 124.64 243.101 125.254C243.288 125.867 243.381 126.554 243.381 127.314C243.381 128.154 243.261 128.907 243.021 129.574C242.781 130.227 242.454 130.78 242.041 131.234C241.641 131.687 241.174 132.034 240.641 132.274C240.121 132.514 239.581 132.634 239.021 132.634C238.554 132.634 238.068 132.52 237.561 132.294C237.054 132.067 236.588 131.74 236.161 131.314H236.101L235.901 132.394H234.081V118.274ZM236.401 129.834C236.761 130.167 237.134 130.4 237.521 130.534C237.908 130.667 238.254 130.734 238.561 130.734C239.254 130.734 239.834 130.454 240.301 129.894C240.768 129.32 241.001 128.474 241.001 127.354C241.001 126.367 240.821 125.6 240.461 125.054C240.101 124.507 239.521 124.234 238.721 124.234C238.348 124.234 237.968 124.327 237.581 124.514C237.194 124.7 236.801 125 236.401 125.414V129.834ZM245.493 127.494C245.493 126.694 245.613 125.974 245.853 125.334C246.093 124.694 246.413 124.154 246.813 123.714C247.227 123.274 247.693 122.934 248.213 122.694C248.733 122.454 249.273 122.334 249.833 122.334C250.42 122.334 250.92 122.44 251.333 122.654C251.76 122.854 252.173 123.134 252.573 123.494L252.473 121.834V118.274H254.793V132.394H252.893L252.713 131.254H252.653C252.267 131.64 251.813 131.967 251.293 132.234C250.787 132.5 250.253 132.634 249.693 132.634C249.067 132.634 248.493 132.52 247.973 132.294C247.453 132.054 247.007 131.714 246.633 131.274C246.273 130.834 245.993 130.3 245.793 129.674C245.593 129.034 245.493 128.307 245.493 127.494ZM247.873 127.474C247.873 128.54 248.08 129.354 248.493 129.914C248.907 130.46 249.493 130.734 250.253 130.734C251.067 130.734 251.807 130.34 252.473 129.554V125.134C252.127 124.8 251.78 124.567 251.433 124.434C251.087 124.3 250.733 124.234 250.373 124.234C250.027 124.234 249.7 124.307 249.393 124.454C249.1 124.6 248.84 124.814 248.613 125.094C248.387 125.36 248.207 125.694 248.073 126.094C247.94 126.494 247.873 126.954 247.873 127.474ZM257.845 129.754C257.845 129.207 257.972 128.727 258.225 128.314C258.479 127.887 258.879 127.527 259.425 127.234C259.972 126.94 260.672 126.7 261.525 126.514C262.379 126.327 263.412 126.194 264.625 126.114C264.585 125.554 264.385 125.094 264.025 124.734C263.665 124.374 263.085 124.194 262.285 124.194C261.725 124.194 261.172 124.3 260.625 124.514C260.092 124.714 259.572 124.954 259.065 125.234L258.225 123.694C258.825 123.347 259.512 123.034 260.285 122.754C261.059 122.474 261.865 122.334 262.705 122.334C264.079 122.334 265.125 122.7 265.845 123.434C266.565 124.154 266.925 125.2 266.925 126.574V132.394H265.045L264.865 131.174H264.805C264.285 131.574 263.705 131.92 263.065 132.214C262.439 132.494 261.792 132.634 261.125 132.634C260.645 132.634 260.205 132.56 259.805 132.414C259.405 132.28 259.059 132.087 258.765 131.834C258.472 131.58 258.245 131.28 258.085 130.934C257.925 130.574 257.845 130.18 257.845 129.754ZM260.065 129.574C260.065 130.014 260.232 130.334 260.565 130.534C260.912 130.734 261.332 130.834 261.825 130.834C262.319 130.834 262.792 130.727 263.245 130.514C263.712 130.287 264.172 129.994 264.625 129.634V127.554C263.745 127.62 263.012 127.714 262.425 127.834C261.839 127.94 261.372 128.08 261.025 128.254C260.679 128.427 260.432 128.627 260.285 128.854C260.139 129.067 260.065 129.307 260.065 129.574ZM296.422 123.814C296.422 123.227 296.609 122.747 296.982 122.374C297.355 121.987 297.829 121.794 298.402 121.794C298.975 121.794 299.449 121.987 299.822 122.374C300.195 122.747 300.382 123.227 300.382 123.814C300.382 124.4 300.195 124.887 299.822 125.274C299.449 125.647 298.975 125.834 298.402 125.834C297.829 125.834 297.355 125.647 296.982 125.274C296.609 124.887 296.422 124.4 296.422 123.814ZM296.422 130.614C296.422 130.027 296.609 129.547 296.982 129.174C297.355 128.787 297.829 128.594 298.402 128.594C298.975 128.594 299.449 128.787 299.822 129.174C300.195 129.547 300.382 130.027 300.382 130.614C300.382 131.2 300.195 131.687 299.822 132.074C299.449 132.447 298.975 132.634 298.402 132.634C297.829 132.634 297.355 132.447 296.982 132.074C296.609 131.687 296.422 131.2 296.422 130.614Z" fill="#2E383C"/>
<path d="M284.99 127.294L281.67 122.574H284.17L285.45 124.434C285.61 124.7 285.783 124.98 285.97 125.274C286.156 125.554 286.343 125.834 286.53 126.114H286.61C286.756 125.834 286.916 125.547 287.09 125.254C287.263 124.96 287.423 124.68 287.57 124.414L288.73 122.574H291.15L287.81 127.534L291.39 132.394H288.89L287.47 130.454C287.283 130.187 287.083 129.9 286.87 129.594C286.67 129.287 286.47 128.994 286.27 128.714H286.19C286.003 129.007 285.823 129.3 285.65 129.594C285.49 129.874 285.316 130.167 285.13 130.474L283.85 132.394H281.43L284.99 127.294Z" fill="#009E73"/>
<path d="M320.966 127.294L317.646 122.574H320.146L321.426 124.434C321.586 124.7 321.76 124.98 321.946 125.274C322.133 125.554 322.32 125.834 322.506 126.114H322.586C322.733 125.834 322.893 125.547 323.066 125.254C323.24 124.96 323.4 124.68 323.546 124.414L324.706 122.574H327.126L323.786 127.534L327.366 132.394H324.866L323.446 130.454C323.26 130.187 323.06 129.9 322.846 129.594C322.646 129.287 322.446 128.994 322.246 128.714H322.166C321.98 129.007 321.8 129.3 321.626 129.594C321.466 129.874 321.293 130.167 321.106 130.474L319.826 132.394H317.406L320.966 127.294Z" fill="#EB5757"/>
<path d="M45 9H467.517V68H45V9Z" fill="#F1F4F8"/>
<path d="M53.6275 28.4496C53.6275 27.6496 53.7475 26.9296 53.9875 26.2896C54.2275 25.6496 54.5475 25.1096 54.9475 24.6696C55.3608 24.2296 55.8275 23.8896 56.3475 23.6496C56.8675 23.4096 57.4075 23.2896 57.9675 23.2896C58.5541 23.2896 59.0541 23.3963 59.4675 23.6096C59.8941 23.8096 60.3075 24.0896 60.7075 24.4496L60.6075 22.7896V19.2296H62.9275V33.3496H61.0275L60.8475 32.2096H60.7875C60.4008 32.5963 59.9475 32.9229 59.4275 33.1896C58.9208 33.4563 58.3875 33.5896 57.8275 33.5896C57.2008 33.5896 56.6275 33.4763 56.1075 33.2496C55.5875 33.0096 55.1408 32.6696 54.7675 32.2296C54.4075 31.7896 54.1275 31.2563 53.9275 30.6296C53.7275 29.9896 53.6275 29.2629 53.6275 28.4496ZM56.0075 28.4296C56.0075 29.4963 56.2141 30.3096 56.6275 30.8696C57.0408 31.4163 57.6275 31.6896 58.3875 31.6896C59.2008 31.6896 59.9408 31.2963 60.6075 30.5096V26.0896C60.2608 25.7563 59.9141 25.5229 59.5675 25.3896C59.2208 25.2563 58.8675 25.1896 58.5075 25.1896C58.1608 25.1896 57.8341 25.2629 57.5275 25.4096C57.2341 25.5563 56.9741 25.7696 56.7475 26.0496C56.5208 26.3163 56.3408 26.6496 56.2075 27.0496C56.0741 27.4496 56.0075 27.9096 56.0075 28.4296ZM65.7997 28.4496C65.7997 27.6496 65.9397 26.9296 66.2197 26.2896C66.513 25.6496 66.893 25.1096 67.3597 24.6696C67.8263 24.2163 68.3597 23.8763 68.9597 23.6496C69.573 23.4096 70.1997 23.2896 70.8397 23.2896C71.573 23.2896 72.2197 23.4096 72.7797 23.6496C73.353 23.8763 73.833 24.1963 74.2197 24.6096C74.6063 25.0096 74.8997 25.4963 75.0997 26.0696C75.2997 26.6429 75.3997 27.2696 75.3997 27.9496C75.3997 28.1763 75.3863 28.3896 75.3597 28.5896C75.3463 28.7896 75.3263 28.9496 75.2997 29.0696H68.1597C68.2397 29.9496 68.5863 30.6296 69.1997 31.1096C69.813 31.5763 70.5663 31.8096 71.4597 31.8096C71.9663 31.8096 72.4397 31.7429 72.8797 31.6096C73.3197 31.4629 73.7663 31.2629 74.2197 31.0096L74.9997 32.4496C74.4663 32.7829 73.873 33.0563 73.2197 33.2696C72.5663 33.4829 71.8797 33.5896 71.1597 33.5896C70.413 33.5896 69.713 33.4763 69.0597 33.2496C68.4063 33.0096 67.8397 32.6696 67.3597 32.2296C66.8797 31.7896 66.4997 31.2563 66.2197 30.6296C65.9397 29.9896 65.7997 29.2629 65.7997 28.4496ZM73.2797 27.5096C73.2797 26.7496 73.0797 26.1563 72.6797 25.7296C72.2797 25.2896 71.6863 25.0696 70.8997 25.0696C70.233 25.0696 69.6397 25.2763 69.1197 25.6896C68.5997 26.1029 68.273 26.7096 68.1397 27.5096H73.2797ZM87.7118 21.2296C87.3518 21.0829 86.9985 20.9763 86.6518 20.9096C86.3185 20.8429 85.9518 20.8096 85.5518 20.8096C84.7918 20.8096 84.2385 20.9963 83.8918 21.3696C83.5585 21.7296 83.3918 22.2563 83.3918 22.9496V23.5296H87.1319V25.3496H83.3918V33.3496H81.1118V25.3496H78.3918V23.6296L81.1118 23.5296V22.9896C81.1118 22.4163 81.1918 21.8829 81.3518 21.3896C81.5118 20.8963 81.7585 20.4763 82.0918 20.1296C82.4385 19.7696 82.8718 19.4896 83.3918 19.2896C83.9252 19.0896 84.5518 18.9896 85.2718 18.9896C85.8052 18.9896 86.3118 19.0363 86.7918 19.1296C87.2852 19.2229 87.7518 19.3563 88.1918 19.5296L87.7118 21.2296ZM216.706 36.8896C215.359 35.7696 214.293 34.4496 213.506 32.9296C212.733 31.4096 212.346 29.6963 212.346 27.7896C212.346 25.8829 212.733 24.1696 213.506 22.6496C214.293 21.1296 215.359 19.8096 216.706 18.6896L217.986 19.7496C216.719 20.8963 215.793 22.1163 215.206 23.4096C214.619 24.7029 214.326 26.1629 214.326 27.7896C214.326 29.4163 214.619 30.8763 215.206 32.1696C215.793 33.4629 216.719 34.6829 217.986 35.8296L216.706 36.8896ZM234.93 35.8296C236.197 34.6829 237.124 33.4629 237.71 32.1696C238.297 30.8763 238.59 29.4163 238.59 27.7896C238.59 26.1629 238.297 24.7029 237.71 23.4096C237.124 22.1163 236.197 20.8963 234.93 19.7496L236.21 18.6896C237.557 19.8096 238.617 21.1296 239.39 22.6496C240.177 24.1696 240.57 25.8829 240.57 27.7896C240.57 29.6963 240.177 31.4096 239.39 32.9296C238.617 34.4496 237.557 35.7696 236.21 36.8896L234.93 35.8296ZM248.462 24.7696C248.462 24.1829 248.649 23.7029 249.022 23.3296C249.396 22.9429 249.869 22.7496 250.442 22.7496C251.016 22.7496 251.489 22.9429 251.862 23.3296C252.236 23.7029 252.422 24.1829 252.422 24.7696C252.422 25.3563 252.236 25.8429 251.862 26.2296C251.489 26.6029 251.016 26.7896 250.442 26.7896C249.869 26.7896 249.396 26.6029 249.022 26.2296C248.649 25.8429 248.462 25.3563 248.462 24.7696ZM248.462 31.5696C248.462 30.9829 248.649 30.5029 249.022 30.1296C249.396 29.7429 249.869 29.5496 250.442 29.5496C251.016 29.5496 251.489 29.7429 251.862 30.1296C252.236 30.5029 252.422 30.9829 252.422 31.5696C252.422 32.1563 252.236 32.6429 251.862 33.0296C251.489 33.4029 251.016 33.5896 250.442 33.5896C249.869 33.5896 249.396 33.4029 249.022 33.0296C248.649 32.6429 248.462 32.1563 248.462 31.5696ZM103.136 48.5296H105.036L105.236 50.7496H105.296C105.803 49.9496 106.41 49.3429 107.116 48.9296C107.836 48.5029 108.623 48.2896 109.476 48.2896C109.876 48.2896 110.216 48.3229 110.496 48.3896C110.79 48.4429 111.083 48.5429 111.376 48.6896L110.896 50.6296C110.576 50.5229 110.29 50.4496 110.036 50.4096C109.796 50.3563 109.49 50.3296 109.116 50.3296C108.436 50.3296 107.783 50.5229 107.156 50.9096C106.53 51.2963 105.963 51.9696 105.456 52.9296V58.3496H103.136V48.5296ZM113.768 53.4496C113.768 52.6496 113.908 51.9296 114.188 51.2896C114.482 50.6496 114.862 50.1096 115.328 49.6696C115.795 49.2163 116.328 48.8763 116.928 48.6496C117.542 48.4096 118.168 48.2896 118.808 48.2896C119.542 48.2896 120.188 48.4096 120.748 48.6496C121.322 48.8763 121.802 49.1963 122.188 49.6096C122.575 50.0096 122.868 50.4963 123.068 51.0696C123.268 51.6429 123.368 52.2696 123.368 52.9496C123.368 53.1763 123.355 53.3896 123.328 53.5896C123.315 53.7896 123.295 53.9496 123.268 54.0696H116.128C116.208 54.9496 116.555 55.6296 117.168 56.1096C117.782 56.5763 118.535 56.8096 119.428 56.8096C119.935 56.8096 120.408 56.7429 120.848 56.6096C121.288 56.4629 121.735 56.2629 122.188 56.0096L122.968 57.4496C122.435 57.7829 121.842 58.0563 121.188 58.2696C120.535 58.4829 119.848 58.5896 119.128 58.5896C118.382 58.5896 117.682 58.4763 117.028 58.2496C116.375 58.0096 115.808 57.6696 115.328 57.2296C114.848 56.7896 114.468 56.2563 114.188 55.6296C113.908 54.9896 113.768 54.2629 113.768 53.4496ZM121.248 52.5096C121.248 51.7496 121.048 51.1563 120.648 50.7296C120.248 50.2896 119.655 50.0696 118.868 50.0696C118.202 50.0696 117.608 50.2763 117.088 50.6896C116.568 51.1029 116.242 51.7096 116.108 52.5096H121.248ZM128.321 50.3496H125.701V48.6296L128.421 48.5296L128.721 45.8496H130.621V48.5296H135.101V50.3496H130.621V54.3896C130.621 55.2029 130.787 55.8029 131.121 56.1896C131.454 56.5629 132.041 56.7496 132.881 56.7496C133.307 56.7496 133.694 56.7163 134.041 56.6496C134.387 56.5696 134.721 56.4696 135.041 56.3496L135.481 58.0296C135.041 58.1763 134.554 58.3029 134.021 58.4096C133.487 58.5296 132.921 58.5896 132.321 58.5896C131.574 58.5896 130.947 58.4896 130.441 58.2896C129.934 58.0896 129.521 57.8096 129.201 57.4496C128.894 57.0763 128.667 56.6296 128.521 56.1096C128.387 55.5896 128.321 55.0163 128.321 54.3896V50.3496ZM146.813 58.3496H144.933L144.753 56.7896H144.673C144.206 57.3363 143.693 57.7763 143.133 58.1096C142.573 58.4296 141.926 58.5896 141.193 58.5896C140.046 58.5896 139.213 58.2496 138.693 57.5696C138.173 56.8763 137.913 55.8896 137.913 54.6096V48.5296H140.213V54.3096C140.213 55.1096 140.346 55.6963 140.613 56.0696C140.893 56.4296 141.373 56.6096 142.053 56.6096C142.519 56.6096 142.933 56.5029 143.293 56.2896C143.666 56.0763 144.073 55.6963 144.513 55.1496V48.5296H146.813V58.3496ZM151.105 48.5296H153.005L153.205 50.7496H153.265C153.772 49.9496 154.378 49.3429 155.085 48.9296C155.805 48.5029 156.592 48.2896 157.445 48.2896C157.845 48.2896 158.185 48.3229 158.465 48.3896C158.758 48.4429 159.052 48.5429 159.345 48.6896L158.865 50.6296C158.545 50.5229 158.258 50.4496 158.005 50.4096C157.765 50.3563 157.458 50.3296 157.085 50.3296C156.405 50.3296 155.752 50.5229 155.125 50.9096C154.498 51.2963 153.932 51.9696 153.425 52.9296V58.3496H151.105V48.5296ZM162.137 48.5296H164.037L164.217 50.0096H164.297C164.764 49.5429 165.277 49.1429 165.837 48.8096C166.41 48.4629 167.077 48.2896 167.837 48.2896C168.97 48.2896 169.804 48.6363 170.337 49.3296C170.87 50.0096 171.137 50.9896 171.137 52.2696V58.3496H168.817V52.5696C168.817 51.7696 168.677 51.1896 168.397 50.8296C168.13 50.4563 167.657 50.2696 166.977 50.2696C166.497 50.2696 166.07 50.3829 165.697 50.6096C165.324 50.8363 164.91 51.1829 164.457 51.6496V58.3496H162.137V48.5296Z" fill="#2E383C"/>
<path d="M110.836 33.3496H108.956L108.776 31.7896H108.696C108.23 32.3363 107.716 32.7763 107.156 33.1096C106.596 33.4296 105.95 33.5896 105.216 33.5896C104.07 33.5896 103.236 33.2496 102.716 32.5696C102.196 31.8763 101.936 30.8896 101.936 29.6096V23.5296H104.236V29.3096C104.236 30.1096 104.37 30.6963 104.636 31.0696C104.916 31.4296 105.396 31.6096 106.076 31.6096C106.543 31.6096 106.956 31.5029 107.316 31.2896C107.69 31.0763 108.096 30.6963 108.536 30.1496V23.5296H110.836V33.3496ZM114.168 23.5296H116.068L116.248 25.0096H116.328C116.795 24.5429 117.308 24.1429 117.868 23.8096C118.442 23.4629 119.108 23.2896 119.868 23.2896C121.002 23.2896 121.835 23.6363 122.368 24.3296C122.902 25.0096 123.168 25.9896 123.168 27.2696V33.3496H120.848V27.5696C120.848 26.7696 120.708 26.1896 120.428 25.8296C120.162 25.4563 119.688 25.2696 119.008 25.2696C118.528 25.2696 118.102 25.3829 117.728 25.6096C117.355 25.8363 116.942 26.1829 116.488 26.6496V33.3496H114.168V23.5296ZM125.981 28.4496C125.981 27.6363 126.127 26.9096 126.421 26.2696C126.727 25.6296 127.134 25.0896 127.641 24.6496C128.147 24.2096 128.741 23.8763 129.421 23.6496C130.101 23.4096 130.814 23.2896 131.561 23.2896C132.361 23.2896 133.061 23.4229 133.661 23.6896C134.274 23.9563 134.787 24.2829 135.201 24.6696L134.101 26.1096C133.714 25.8029 133.321 25.5696 132.921 25.4096C132.534 25.2496 132.121 25.1696 131.681 25.1696C130.694 25.1696 129.894 25.4696 129.281 26.0696C128.667 26.6563 128.361 27.4496 128.361 28.4496C128.361 28.9429 128.441 29.3896 128.601 29.7896C128.761 30.1896 128.981 30.5363 129.261 30.8296C129.554 31.1096 129.901 31.3296 130.301 31.4896C130.701 31.6363 131.141 31.7096 131.621 31.7096C132.181 31.7096 132.687 31.6029 133.141 31.3896C133.607 31.1763 134.034 30.9229 134.421 30.6296L135.381 32.1096C134.821 32.6029 134.194 32.9763 133.501 33.2296C132.807 33.4696 132.107 33.5896 131.401 33.5896C130.627 33.5896 129.907 33.4763 129.241 33.2496C128.587 33.0229 128.014 32.6896 127.521 32.2496C127.041 31.8096 126.661 31.2696 126.381 30.6296C126.114 29.9896 125.981 29.2629 125.981 28.4496ZM138.153 19.2296H140.473V22.8696L140.333 24.9696C140.786 24.5163 141.293 24.1229 141.853 23.7896C142.426 23.4563 143.093 23.2896 143.853 23.2896C144.986 23.2896 145.819 23.6363 146.353 24.3296C146.886 25.0096 147.153 25.9896 147.153 27.2696V33.3496H144.833V27.5696C144.833 26.7696 144.693 26.1896 144.413 25.8296C144.146 25.4563 143.673 25.2696 142.993 25.2696C142.513 25.2696 142.086 25.3829 141.713 25.6096C141.339 25.8363 140.926 26.1829 140.473 26.6496V33.3496H138.153V19.2296ZM149.925 30.7096C149.925 30.1629 150.052 29.6829 150.305 29.2696C150.558 28.8429 150.958 28.4829 151.505 28.1896C152.052 27.8963 152.752 27.6563 153.605 27.4696C154.458 27.2829 155.492 27.1496 156.705 27.0696C156.665 26.5096 156.465 26.0496 156.105 25.6896C155.745 25.3296 155.165 25.1496 154.365 25.1496C153.805 25.1496 153.252 25.2563 152.705 25.4696C152.172 25.6696 151.652 25.9096 151.145 26.1896L150.305 24.6496C150.905 24.3029 151.592 23.9896 152.365 23.7096C153.138 23.4296 153.945 23.2896 154.785 23.2896C156.158 23.2896 157.205 23.6563 157.925 24.3896C158.645 25.1096 159.005 26.1563 159.005 27.5296V33.3496H157.125L156.945 32.1296H156.885C156.365 32.5296 155.785 32.8763 155.145 33.1696C154.518 33.4496 153.872 33.5896 153.205 33.5896C152.725 33.5896 152.285 33.5163 151.885 33.3696C151.485 33.2363 151.138 33.0429 150.845 32.7896C150.552 32.5363 150.325 32.2363 150.165 31.8896C150.005 31.5296 149.925 31.1363 149.925 30.7096ZM152.145 30.5296C152.145 30.9696 152.312 31.2896 152.645 31.4896C152.992 31.6896 153.412 31.7896 153.905 31.7896C154.398 31.7896 154.872 31.6829 155.325 31.4696C155.792 31.2429 156.252 30.9496 156.705 30.5896V28.5096C155.825 28.5763 155.092 28.6696 154.505 28.7896C153.918 28.8963 153.452 29.0363 153.105 29.2096C152.758 29.3829 152.512 29.5829 152.365 29.8096C152.218 30.0229 152.145 30.2629 152.145 30.5296ZM162.137 23.5296H164.037L164.217 25.0096H164.297C164.764 24.5429 165.277 24.1429 165.837 23.8096C166.41 23.4629 167.077 23.2896 167.837 23.2896C168.97 23.2896 169.804 23.6363 170.337 24.3296C170.87 25.0096 171.137 25.9896 171.137 27.2696V33.3496H168.817V27.5696C168.817 26.7696 168.677 26.1896 168.397 25.8296C168.13 25.4563 167.657 25.2696 166.977 25.2696C166.497 25.2696 166.07 25.3829 165.697 25.6096C165.324 25.8363 164.91 26.1829 164.457 26.6496V33.3496H162.137V23.5296ZM175.649 34.7696C175.649 35.2096 175.889 35.5563 176.369 35.8096C176.863 36.0629 177.569 36.1896 178.489 36.1896C178.969 36.1896 179.403 36.1429 179.789 36.0496C180.176 35.9696 180.509 35.8563 180.789 35.7096C181.069 35.5629 181.283 35.3896 181.429 35.1896C181.576 35.0029 181.649 34.8029 181.649 34.5896C181.649 34.2029 181.483 33.9429 181.149 33.8096C180.816 33.6896 180.323 33.6296 179.669 33.6296H178.109C177.789 33.6296 177.503 33.6163 177.249 33.5896C177.009 33.5763 176.796 33.5363 176.609 33.4696C176.263 33.6829 176.016 33.8963 175.869 34.1096C175.723 34.3229 175.649 34.5429 175.649 34.7696ZM173.729 35.0696C173.729 34.6829 173.863 34.3096 174.129 33.9496C174.396 33.5896 174.783 33.2763 175.289 33.0096V32.9296C175.023 32.7829 174.789 32.5763 174.589 32.3096C174.389 32.0429 174.289 31.7029 174.289 31.2896C174.289 30.9563 174.396 30.6296 174.609 30.3096C174.823 29.9763 175.109 29.6829 175.469 29.4296V29.3496C175.123 29.1096 174.823 28.7763 174.569 28.3496C174.329 27.9229 174.209 27.4163 174.209 26.8296C174.209 26.2696 174.316 25.7696 174.529 25.3296C174.756 24.8896 175.049 24.5229 175.409 24.2296C175.783 23.9229 176.209 23.6896 176.689 23.5296C177.183 23.3696 177.703 23.2896 178.249 23.2896C178.836 23.2896 179.349 23.3696 179.789 23.5296H183.809V25.2296H181.509C181.683 25.4296 181.836 25.6763 181.969 25.9696C182.103 26.2496 182.169 26.5629 182.169 26.9096C182.169 27.4563 182.069 27.9363 181.869 28.3496C181.669 28.7629 181.389 29.1096 181.029 29.3896C180.683 29.6696 180.269 29.8829 179.789 30.0296C179.309 30.1629 178.796 30.2296 178.249 30.2296C177.756 30.2296 177.256 30.1429 176.749 29.9696C176.349 30.2229 176.149 30.5229 176.149 30.8696C176.149 31.4963 176.769 31.8096 178.009 31.8096H180.009C181.289 31.8096 182.249 31.9963 182.889 32.3696C183.543 32.7429 183.869 33.3563 183.869 34.2096C183.869 34.6896 183.736 35.1429 183.469 35.5696C183.203 35.9963 182.823 36.3629 182.329 36.6696C181.849 36.9896 181.256 37.2363 180.549 37.4096C179.856 37.5963 179.076 37.6896 178.209 37.6896C177.529 37.6896 176.916 37.6363 176.369 37.5296C175.823 37.4229 175.349 37.2563 174.949 37.0296C174.563 36.8163 174.263 36.5429 174.049 36.2096C173.836 35.8896 173.729 35.5096 173.729 35.0696ZM178.249 28.7896C178.756 28.7896 179.196 28.6229 179.569 28.2896C179.943 27.9429 180.129 27.4563 180.129 26.8296C180.129 26.2296 179.943 25.7563 179.569 25.4096C179.196 25.0496 178.756 24.8696 178.249 24.8696C177.743 24.8696 177.303 25.0496 176.929 25.4096C176.569 25.7563 176.389 26.2296 176.389 26.8296C176.389 27.4563 176.569 27.9429 176.929 28.2896C177.303 28.6229 177.743 28.7896 178.249 28.7896ZM185.722 28.4496C185.722 27.6496 185.862 26.9296 186.142 26.2896C186.435 25.6496 186.815 25.1096 187.282 24.6696C187.748 24.2163 188.282 23.8763 188.882 23.6496C189.495 23.4096 190.122 23.2896 190.762 23.2896C191.495 23.2896 192.142 23.4096 192.702 23.6496C193.275 23.8763 193.755 24.1963 194.142 24.6096C194.528 25.0096 194.822 25.4963 195.022 26.0696C195.222 26.6429 195.322 27.2696 195.322 27.9496C195.322 28.1763 195.308 28.3896 195.282 28.5896C195.268 28.7896 195.248 28.9496 195.222 29.0696H188.082C188.162 29.9496 188.508 30.6296 189.122 31.1096C189.735 31.5763 190.488 31.8096 191.382 31.8096C191.888 31.8096 192.362 31.7429 192.802 31.6096C193.242 31.4629 193.688 31.2629 194.142 31.0096L194.922 32.4496C194.388 32.7829 193.795 33.0563 193.142 33.2696C192.488 33.4829 191.802 33.5896 191.082 33.5896C190.335 33.5896 189.635 33.4763 188.982 33.2496C188.328 33.0096 187.762 32.6696 187.282 32.2296C186.802 31.7896 186.422 31.2563 186.142 30.6296C185.862 29.9896 185.722 29.2629 185.722 28.4496ZM193.202 27.5096C193.202 26.7496 193.002 26.1563 192.602 25.7296C192.202 25.2896 191.608 25.0696 190.822 25.0696C190.155 25.0696 189.562 25.2763 189.042 25.6896C188.522 26.1029 188.195 26.7096 188.062 27.5096H193.202ZM197.534 28.4496C197.534 27.6496 197.654 26.9296 197.894 26.2896C198.134 25.6496 198.454 25.1096 198.854 24.6696C199.267 24.2296 199.734 23.8896 200.254 23.6496C200.774 23.4096 201.314 23.2896 201.874 23.2896C202.46 23.2896 202.96 23.3963 203.374 23.6096C203.8 23.8096 204.214 24.0896 204.614 24.4496L204.514 22.7896V19.2296H206.834V33.3496H204.934L204.754 32.2096H204.694C204.307 32.5963 203.854 32.9229 203.334 33.1896C202.827 33.4563 202.294 33.5896 201.734 33.5896C201.107 33.5896 200.534 33.4763 200.014 33.2496C199.494 33.0096 199.047 32.6696 198.674 32.2296C198.314 31.7896 198.034 31.2563 197.834 30.6296C197.634 29.9896 197.534 29.2629 197.534 28.4496ZM199.914 28.4296C199.914 29.4963 200.12 30.3096 200.534 30.8696C200.947 31.4163 201.534 31.6896 202.294 31.6896C203.107 31.6896 203.847 31.2963 204.514 30.5096V26.0896C204.167 25.7563 203.82 25.5229 203.474 25.3896C203.127 25.2563 202.774 25.1896 202.414 25.1896C202.067 25.1896 201.74 25.2629 201.434 25.4096C201.14 25.5563 200.88 25.7696 200.654 26.0496C200.427 26.3163 200.247 26.6496 200.114 27.0496C199.98 27.4496 199.914 27.9096 199.914 28.4296Z" fill="#9B51E0"/>
<path d="M225.038 28.2496L221.718 23.5296H224.218L225.498 25.3896C225.658 25.6563 225.831 25.9363 226.018 26.2296C226.205 26.5096 226.391 26.7896 226.578 27.0696H226.658C226.805 26.7896 226.965 26.5029 227.138 26.2096C227.311 25.9163 227.471 25.6363 227.618 25.3696L228.778 23.5296H231.198L227.858 28.4896L231.438 33.3496H228.938L227.518 31.4096C227.331 31.1429 227.131 30.8563 226.918 30.5496C226.718 30.2429 226.518 29.9496 226.318 29.6696H226.238C226.051 29.9629 225.871 30.2563 225.698 30.5496C225.538 30.8296 225.365 31.1229 225.178 31.4296L223.898 33.3496H221.478L225.038 28.2496Z" fill="#009E73"/>
<path d="M189.062 53.2496L185.742 48.5296H188.242L189.522 50.3896C189.682 50.6563 189.855 50.9363 190.042 51.2296C190.228 51.5096 190.415 51.7896 190.602 52.0696H190.682C190.828 51.7896 190.988 51.5029 191.162 51.2096C191.335 50.9163 191.495 50.6363 191.642 50.3696L192.802 48.5296H195.222L191.882 53.4896L195.462 58.3496H192.962L191.542 56.4096C191.355 56.1429 191.155 55.8563 190.942 55.5496C190.742 55.2429 190.542 54.9496 190.342 54.6696H190.262C190.075 54.9629 189.895 55.2563 189.722 55.5496C189.562 55.8296 189.388 56.1229 189.202 56.4296L187.922 58.3496H185.502L189.062 53.2496Z" fill="#EB5757"/>
</svg>
