<svg width="511" height="170" viewBox="0 0 511 170" fill="none" xmlns="http://www.w3.org/2000/svg">
<rect width="511" height="170" fill="white"/>
<path d="M44 43.4118H467.255V100H44V43.4118Z" fill="#F1F4F8"/>
<path d="M52.6407 61.7653C52.6407 60.9653 52.7607 60.2453 53.0007 59.6053C53.2407 58.9653 53.5607 58.4253 53.9607 57.9853C54.374 57.5453 54.8407 57.2053 55.3607 56.9653C55.8807 56.7253 56.4207 56.6053 56.9807 56.6053C57.5674 56.6053 58.0674 56.7119 58.4807 56.9253C58.9074 57.1253 59.3207 57.4053 59.7207 57.7653L59.6207 56.1053V52.5453H61.9407V66.6653H60.0407L59.8607 65.5253H59.8007C59.414 65.9119 58.9607 66.2386 58.4407 66.5053C57.934 66.7719 57.4007 66.9053 56.8407 66.9053C56.214 66.9053 55.6407 66.7919 55.1207 66.5653C54.6007 66.3253 54.154 65.9853 53.7807 65.5453C53.4207 65.1053 53.1407 64.5719 52.9407 63.9453C52.7407 63.3053 52.6407 62.5786 52.6407 61.7653ZM55.0207 61.7453C55.0207 62.8119 55.2274 63.6253 55.6407 64.1853C56.054 64.7319 56.6407 65.0053 57.4007 65.0053C58.214 65.0053 58.954 64.6119 59.6207 63.8253V59.4053C59.274 59.0719 58.9274 58.8386 58.5807 58.7053C58.234 58.5719 57.8807 58.5053 57.5207 58.5053C57.174 58.5053 56.8474 58.5786 56.5407 58.7253C56.2474 58.8719 55.9874 59.0853 55.7607 59.3653C55.534 59.6319 55.354 59.9653 55.2207 60.3653C55.0874 60.7653 55.0207 61.2253 55.0207 61.7453ZM64.8129 61.7653C64.8129 60.9653 64.9529 60.2453 65.2329 59.6053C65.5262 58.9653 65.9062 58.4253 66.3729 57.9853C66.8395 57.5319 67.3729 57.1919 67.9729 56.9653C68.5862 56.7253 69.2129 56.6053 69.8529 56.6053C70.5862 56.6053 71.2329 56.7253 71.7929 56.9653C72.3662 57.1919 72.8462 57.5119 73.2329 57.9253C73.6195 58.3253 73.9129 58.8119 74.1129 59.3853C74.3129 59.9586 74.4129 60.5853 74.4129 61.2653C74.4129 61.4919 74.3995 61.7053 74.3729 61.9053C74.3595 62.1053 74.3395 62.2653 74.3129 62.3853H67.1729C67.2529 63.2653 67.5995 63.9453 68.2129 64.4253C68.8262 64.8919 69.5795 65.1253 70.4729 65.1253C70.9795 65.1253 71.4529 65.0586 71.8929 64.9253C72.3329 64.7786 72.7795 64.5786 73.2329 64.3253L74.0129 65.7653C73.4795 66.0986 72.8862 66.3719 72.2329 66.5853C71.5795 66.7986 70.8929 66.9053 70.1729 66.9053C69.4262 66.9053 68.7262 66.7919 68.0729 66.5653C67.4195 66.3253 66.8529 65.9853 66.3729 65.5453C65.8929 65.1053 65.5129 64.5719 65.2329 63.9453C64.9529 63.3053 64.8129 62.5786 64.8129 61.7653ZM72.2929 60.8253C72.2929 60.0653 72.0929 59.4719 71.6929 59.0453C71.2929 58.6053 70.6995 58.3853 69.9129 58.3853C69.2462 58.3853 68.6529 58.5919 68.1329 59.0053C67.6129 59.4186 67.2862 60.0253 67.1529 60.8253H72.2929ZM86.7251 54.5453C86.3651 54.3986 86.0117 54.2919 85.6651 54.2253C85.3317 54.1586 84.9651 54.1253 84.5651 54.1253C83.8051 54.1253 83.2517 54.3119 82.9051 54.6853C82.5717 55.0453 82.4051 55.5719 82.4051 56.2653V56.8453H86.1451V58.6653H82.4051V66.6653H80.1251V58.6653H77.4051V56.9453L80.1251 56.8453V56.3053C80.1251 55.7319 80.2051 55.1986 80.3651 54.7053C80.5251 54.2119 80.7717 53.7919 81.1051 53.4453C81.4517 53.0853 81.8851 52.8053 82.4051 52.6053C82.9384 52.4053 83.5651 52.3053 84.2851 52.3053C84.8184 52.3053 85.3251 52.3519 85.8051 52.4453C86.2984 52.5386 86.7651 52.6719 87.2051 52.8453L86.7251 54.5453ZM203.727 70.2053C202.38 69.0853 201.314 67.7653 200.527 66.2453C199.754 64.7253 199.367 63.0119 199.367 61.1053C199.367 59.1986 199.754 57.4853 200.527 55.9653C201.314 54.4453 202.38 53.1253 203.727 52.0053L205.007 53.0653C203.74 54.2119 202.814 55.4319 202.227 56.7253C201.64 58.0186 201.347 59.4786 201.347 61.1053C201.347 62.7319 201.64 64.1919 202.227 65.4853C202.814 66.7786 203.74 67.9986 205.007 69.1453L203.727 70.2053ZM221.951 69.1453C223.218 67.9986 224.145 66.7786 224.731 65.4853C225.318 64.1919 225.611 62.7319 225.611 61.1053C225.611 59.4786 225.318 58.0186 224.731 56.7253C224.145 55.4319 223.218 54.2119 221.951 53.0653L223.231 52.0053C224.578 53.1253 225.638 54.4453 226.411 55.9653C227.198 57.4853 227.591 59.1986 227.591 61.1053C227.591 63.0119 227.198 64.7253 226.411 66.2453C225.638 67.7653 224.578 69.0853 223.231 70.2053L221.951 69.1453ZM235.484 58.0853C235.484 57.4986 235.67 57.0186 236.044 56.6453C236.417 56.2586 236.89 56.0653 237.464 56.0653C238.037 56.0653 238.51 56.2586 238.884 56.6453C239.257 57.0186 239.444 57.4986 239.444 58.0853C239.444 58.6719 239.257 59.1586 238.884 59.5453C238.51 59.9186 238.037 60.1053 237.464 60.1053C236.89 60.1053 236.417 59.9186 236.044 59.5453C235.67 59.1586 235.484 58.6719 235.484 58.0853ZM235.484 64.8853C235.484 64.2986 235.67 63.8186 236.044 63.4453C236.417 63.0586 236.89 62.8653 237.464 62.8653C238.037 62.8653 238.51 63.0586 238.884 63.4453C239.257 63.8186 239.444 64.2986 239.444 64.8853C239.444 65.4719 239.257 65.9586 238.884 66.3453C238.51 66.7186 238.037 66.9053 237.464 66.9053C236.89 66.9053 236.417 66.7186 236.044 66.3453C235.67 65.9586 235.484 65.4719 235.484 64.8853ZM102.149 81.8453H104.049L104.249 84.0653H104.309C104.816 83.2653 105.423 82.6586 106.129 82.2453C106.849 81.8186 107.636 81.6053 108.489 81.6053C108.889 81.6053 109.229 81.6386 109.509 81.7053C109.803 81.7586 110.096 81.8586 110.389 82.0053L109.909 83.9453C109.589 83.8386 109.303 83.7653 109.049 83.7253C108.809 83.6719 108.503 83.6453 108.129 83.6453C107.449 83.6453 106.796 83.8386 106.169 84.2253C105.543 84.6119 104.976 85.2853 104.469 86.2453V91.6653H102.149V81.8453ZM112.782 86.7653C112.782 85.9653 112.922 85.2453 113.202 84.6053C113.495 83.9653 113.875 83.4253 114.342 82.9853C114.808 82.5319 115.342 82.1919 115.942 81.9653C116.555 81.7253 117.182 81.6053 117.822 81.6053C118.555 81.6053 119.202 81.7253 119.762 81.9653C120.335 82.1919 120.815 82.5119 121.202 82.9253C121.588 83.3253 121.882 83.8119 122.082 84.3853C122.282 84.9586 122.382 85.5853 122.382 86.2653C122.382 86.4919 122.368 86.7053 122.342 86.9053C122.328 87.1053 122.308 87.2653 122.282 87.3853H115.142C115.222 88.2653 115.568 88.9453 116.182 89.4253C116.795 89.8919 117.548 90.1253 118.442 90.1253C118.948 90.1253 119.422 90.0586 119.862 89.9253C120.302 89.7786 120.748 89.5786 121.202 89.3253L121.982 90.7653C121.448 91.0986 120.855 91.3719 120.202 91.5853C119.548 91.7986 118.862 91.9053 118.142 91.9053C117.395 91.9053 116.695 91.7919 116.042 91.5653C115.388 91.3253 114.822 90.9853 114.342 90.5453C113.862 90.1053 113.482 89.5719 113.202 88.9453C112.922 88.3053 112.782 87.5786 112.782 86.7653ZM120.262 85.8253C120.262 85.0653 120.062 84.4719 119.662 84.0453C119.262 83.6053 118.668 83.3853 117.882 83.3853C117.215 83.3853 116.622 83.5919 116.102 84.0053C115.582 84.4186 115.255 85.0253 115.122 85.8253H120.262ZM127.334 83.6653H124.714V81.9453L127.434 81.8453L127.734 79.1653H129.634V81.8453H134.114V83.6653H129.634V87.7053C129.634 88.5186 129.8 89.1186 130.134 89.5053C130.467 89.8786 131.054 90.0653 131.894 90.0653C132.32 90.0653 132.707 90.0319 133.054 89.9653C133.4 89.8853 133.734 89.7853 134.054 89.6653L134.494 91.3453C134.054 91.4919 133.567 91.6186 133.034 91.7253C132.5 91.8453 131.934 91.9053 131.334 91.9053C130.587 91.9053 129.96 91.8053 129.454 91.6053C128.947 91.4053 128.534 91.1253 128.214 90.7653C127.907 90.3919 127.68 89.9453 127.534 89.4253C127.4 88.9053 127.334 88.3319 127.334 87.7053V83.6653ZM145.826 91.6653H143.946L143.766 90.1053H143.686C143.219 90.6519 142.706 91.0919 142.146 91.4253C141.586 91.7453 140.939 91.9053 140.206 91.9053C139.059 91.9053 138.226 91.5653 137.706 90.8853C137.186 90.1919 136.926 89.2053 136.926 87.9253V81.8453H139.226V87.6253C139.226 88.4253 139.359 89.0119 139.626 89.3853C139.906 89.7453 140.386 89.9253 141.066 89.9253C141.533 89.9253 141.946 89.8186 142.306 89.6053C142.679 89.3919 143.086 89.0119 143.526 88.4653V81.8453H145.826V91.6653ZM150.118 81.8453H152.018L152.218 84.0653H152.278C152.785 83.2653 153.392 82.6586 154.098 82.2453C154.818 81.8186 155.605 81.6053 156.458 81.6053C156.858 81.6053 157.198 81.6386 157.478 81.7053C157.772 81.7586 158.065 81.8586 158.358 82.0053L157.878 83.9453C157.558 83.8386 157.272 83.7653 157.018 83.7253C156.778 83.6719 156.472 83.6453 156.098 83.6453C155.418 83.6453 154.765 83.8386 154.138 84.2253C153.512 84.6119 152.945 85.2853 152.438 86.2453V91.6653H150.118V81.8453ZM161.15 81.8453H163.05L163.23 83.3253H163.31C163.777 82.8586 164.29 82.4586 164.85 82.1253C165.424 81.7786 166.09 81.6053 166.85 81.6053C167.984 81.6053 168.817 81.9519 169.35 82.6453C169.884 83.3253 170.15 84.3053 170.15 85.5853V91.6653H167.83V85.8853C167.83 85.0853 167.69 84.5053 167.41 84.1453C167.144 83.7719 166.67 83.5853 165.99 83.5853C165.51 83.5853 165.084 83.6986 164.71 83.9253C164.337 84.1519 163.924 84.4986 163.47 84.9653V91.6653H161.15V81.8453Z" fill="#2E383C"/>
<path d="M103.509 67.4653V70.5453H101.189V56.8453H103.089L103.269 57.9653H103.329C103.756 57.5786 104.243 57.2586 104.789 57.0053C105.349 56.7386 105.909 56.6053 106.469 56.6053C107.109 56.6053 107.676 56.7253 108.169 56.9653C108.676 57.1919 109.096 57.5253 109.429 57.9653C109.776 58.4053 110.036 58.9319 110.209 59.5453C110.396 60.1586 110.489 60.8453 110.489 61.6053C110.489 62.4453 110.369 63.1986 110.129 63.8653C109.889 64.5186 109.563 65.0719 109.149 65.5253C108.749 65.9653 108.283 66.3053 107.749 66.5453C107.229 66.7853 106.689 66.9053 106.129 66.9053C105.676 66.9053 105.209 66.8053 104.729 66.6053C104.263 66.4053 103.829 66.1186 103.429 65.7453L103.509 67.4653ZM103.509 64.1053C103.869 64.4386 104.236 64.6719 104.609 64.8053C104.996 64.9386 105.343 65.0053 105.649 65.0053C106.356 65.0053 106.943 64.7253 107.409 64.1653C107.876 63.5919 108.109 62.7453 108.109 61.6253C108.109 60.6386 107.929 59.8719 107.569 59.3253C107.209 58.7786 106.629 58.5053 105.829 58.5053C105.456 58.5053 105.076 58.5986 104.689 58.7853C104.303 58.9719 103.909 59.2719 103.509 59.6853V64.1053ZM112.962 52.5453H118.362V63.2053C118.362 63.8719 118.528 64.3453 118.862 64.6253C119.195 64.8919 119.615 65.0253 120.122 65.0253C120.602 65.0253 121.162 64.8986 121.802 64.6453L122.342 66.3453C121.875 66.5053 121.435 66.6386 121.022 66.7453C120.622 66.8519 120.135 66.9053 119.562 66.9053C118.402 66.9053 117.528 66.5719 116.942 65.9053C116.355 65.2386 116.062 64.2986 116.062 63.0853V54.3653H112.962V52.5453ZM133.834 66.6653H131.954L131.774 65.1053H131.694C131.227 65.6519 130.714 66.0919 130.154 66.4253C129.594 66.7453 128.947 66.9053 128.214 66.9053C127.067 66.9053 126.234 66.5653 125.714 65.8853C125.194 65.1919 124.934 64.2053 124.934 62.9253V56.8453H127.234V62.6253C127.234 63.4253 127.367 64.0119 127.634 64.3853C127.914 64.7453 128.394 64.9253 129.074 64.9253C129.54 64.9253 129.954 64.8186 130.314 64.6053C130.687 64.3919 131.094 64.0119 131.534 63.4653V56.8453H133.834V66.6653ZM137.846 63.9253C138.406 64.3119 138.986 64.6186 139.586 64.8453C140.199 65.0586 140.886 65.1653 141.646 65.1653C142.419 65.1653 142.986 65.0586 143.346 64.8453C143.706 64.6186 143.886 64.3319 143.886 63.9853C143.886 63.6386 143.653 63.3519 143.186 63.1253C142.719 62.8853 141.986 62.6319 140.986 62.3653C140.519 62.2453 140.066 62.0986 139.626 61.9253C139.186 61.7519 138.799 61.5519 138.466 61.3253C138.133 61.0986 137.866 60.8386 137.666 60.5453C137.466 60.2519 137.366 59.9186 137.366 59.5453C137.366 58.6786 137.739 57.9719 138.486 57.4253C139.233 56.8786 140.306 56.6053 141.706 56.6053C142.506 56.6053 143.259 56.7386 143.966 57.0053C144.673 57.2719 145.279 57.5719 145.786 57.9053L144.726 59.3253C144.286 59.0319 143.813 58.7986 143.306 58.6253C142.813 58.4386 142.286 58.3453 141.726 58.3453C140.966 58.3453 140.433 58.4519 140.126 58.6653C139.819 58.8653 139.666 59.1186 139.666 59.4253C139.666 59.5986 139.733 59.7586 139.866 59.9053C140.013 60.0386 140.206 60.1653 140.446 60.2853C140.699 60.3919 140.993 60.4986 141.326 60.6053C141.659 60.7119 142.026 60.8119 142.426 60.9053C142.999 61.0519 143.513 61.2186 143.966 61.4053C144.433 61.5786 144.826 61.7786 145.146 62.0053C145.479 62.2319 145.733 62.4986 145.906 62.8053C146.093 63.1119 146.186 63.4653 146.186 63.8653C146.186 64.2919 146.086 64.6919 145.886 65.0653C145.686 65.4253 145.393 65.7453 145.006 66.0253C144.619 66.2919 144.139 66.5053 143.566 66.6653C142.993 66.8253 142.333 66.9053 141.586 66.9053C140.666 66.9053 139.786 66.7586 138.946 66.4653C138.106 66.1719 137.379 65.8119 136.766 65.3853L137.846 63.9253ZM158.318 67.9053V69.7053H148.718V67.9053H158.318ZM160.57 61.7653C160.57 60.9519 160.704 60.2253 160.97 59.5853C161.25 58.9453 161.617 58.4053 162.07 57.9653C162.524 57.5253 163.05 57.1919 163.65 56.9653C164.25 56.7253 164.87 56.6053 165.51 56.6053C166.15 56.6053 166.77 56.7253 167.37 56.9653C167.97 57.1919 168.497 57.5253 168.95 57.9653C169.404 58.4053 169.764 58.9453 170.03 59.5853C170.31 60.2253 170.45 60.9519 170.45 61.7653C170.45 62.5786 170.31 63.3053 170.03 63.9453C169.764 64.5853 169.404 65.1253 168.95 65.5653C168.497 66.0053 167.97 66.3386 167.37 66.5653C166.77 66.7919 166.15 66.9053 165.51 66.9053C164.87 66.9053 164.25 66.7919 163.65 66.5653C163.05 66.3386 162.524 66.0053 162.07 65.5653C161.617 65.1253 161.25 64.5853 160.97 63.9453C160.704 63.3053 160.57 62.5786 160.57 61.7653ZM162.95 61.7653C162.95 62.7519 163.177 63.5453 163.63 64.1453C164.084 64.7319 164.71 65.0253 165.51 65.0253C166.31 65.0253 166.937 64.7319 167.39 64.1453C167.844 63.5453 168.07 62.7519 168.07 61.7653C168.07 60.7653 167.844 59.9719 167.39 59.3853C166.937 58.7853 166.31 58.4853 165.51 58.4853C164.71 58.4853 164.084 58.7853 163.63 59.3853C163.177 59.9719 162.95 60.7653 162.95 61.7653ZM173.143 56.8453H175.043L175.223 58.3253H175.303C175.769 57.8586 176.283 57.4586 176.843 57.1253C177.416 56.7786 178.083 56.6053 178.843 56.6053C179.976 56.6053 180.809 56.9519 181.343 57.6453C181.876 58.3253 182.143 59.3053 182.143 60.5853V66.6653H179.823V60.8853C179.823 60.0853 179.683 59.5053 179.403 59.1453C179.136 58.7719 178.663 58.5853 177.983 58.5853C177.503 58.5853 177.076 58.6986 176.703 58.9253C176.329 59.1519 175.916 59.4986 175.463 59.9653V66.6653H173.143V56.8453ZM184.735 61.7653C184.735 60.9653 184.875 60.2453 185.155 59.6053C185.448 58.9653 185.828 58.4253 186.295 57.9853C186.761 57.5319 187.295 57.1919 187.895 56.9653C188.508 56.7253 189.135 56.6053 189.775 56.6053C190.508 56.6053 191.155 56.7253 191.715 56.9653C192.288 57.1919 192.768 57.5119 193.155 57.9253C193.541 58.3253 193.835 58.8119 194.035 59.3853C194.235 59.9586 194.335 60.5853 194.335 61.2653C194.335 61.4919 194.321 61.7053 194.295 61.9053C194.281 62.1053 194.261 62.2653 194.235 62.3853H187.095C187.175 63.2653 187.521 63.9453 188.135 64.4253C188.748 64.8919 189.501 65.1253 190.395 65.1253C190.901 65.1253 191.375 65.0586 191.815 64.9253C192.255 64.7786 192.701 64.5786 193.155 64.3253L193.935 65.7653C193.401 66.0986 192.808 66.3719 192.155 66.5853C191.501 66.7986 190.815 66.9053 190.095 66.9053C189.348 66.9053 188.648 66.7919 187.995 66.5653C187.341 66.3253 186.775 65.9853 186.295 65.5453C185.815 65.1053 185.435 64.5719 185.155 63.9453C184.875 63.3053 184.735 62.5786 184.735 61.7653ZM192.215 60.8253C192.215 60.0653 192.015 59.4719 191.615 59.0453C191.215 58.6053 190.621 58.3853 189.835 58.3853C189.168 58.3853 188.575 58.5919 188.055 59.0053C187.535 59.4186 187.208 60.0253 187.075 60.8253H192.215Z" fill="#9B51E0"/>
<path d="M212.059 61.5653L208.739 56.8453H211.239L212.519 58.7053C212.679 58.9719 212.852 59.2519 213.039 59.5453C213.226 59.8253 213.412 60.1053 213.599 60.3853H213.679C213.826 60.1053 213.986 59.8186 214.159 59.5253C214.332 59.2319 214.492 58.9519 214.639 58.6853L215.799 56.8453H218.219L214.879 61.8053L218.459 66.6653H215.959L214.539 64.7253C214.352 64.4586 214.152 64.1719 213.939 63.8653C213.739 63.5586 213.539 63.2653 213.339 62.9853H213.259C213.072 63.2786 212.892 63.5719 212.719 63.8653C212.559 64.1453 212.386 64.4386 212.199 64.7453L210.919 66.6653H208.499L212.059 61.5653Z" fill="#009E73"/>
<path d="M188.075 86.5653L184.755 81.8453H187.255L188.535 83.7053C188.695 83.9719 188.868 84.2519 189.055 84.5453C189.241 84.8253 189.428 85.1053 189.615 85.3853H189.695C189.841 85.1053 190.001 84.8186 190.175 84.5253C190.348 84.2319 190.508 83.9519 190.655 83.6853L191.815 81.8453H194.235L190.895 86.8053L194.475 91.6653H191.975L190.555 89.7253C190.368 89.4586 190.168 89.1719 189.955 88.8653C189.755 88.5586 189.555 88.2653 189.355 87.9853H189.275C189.088 88.2786 188.908 88.5719 188.735 88.8653C188.575 89.1453 188.401 89.4386 188.215 89.7453L186.935 91.6653H184.515L188.075 86.5653ZM212.599 85.9053H209.039V84.2253H212.599V80.4453H214.359V84.2253H217.919V85.9053H214.359V89.6853H212.599V85.9053ZM242.124 89.7853V91.6653H233.264V89.7853H236.704V81.4253H234.044V79.9853C234.764 79.8653 235.377 79.7253 235.884 79.5653C236.404 79.3919 236.884 79.1853 237.324 78.9453H239.004V89.7853H242.124Z" fill="#EB5757"/>
<path d="M198.041 12.9902L197.171 18H195.519L197.742 5.20312L202.014 5.21191C203.332 5.21191 204.349 5.56348 205.063 6.2666C205.778 6.96387 206.086 7.89258 205.986 9.05273C205.881 10.2773 205.392 11.2412 204.519 11.9443C203.651 12.6475 202.506 12.999 201.082 12.999L198.041 12.9902ZM198.278 11.6104L201.126 11.6191C202.022 11.6191 202.758 11.3936 203.332 10.9424C203.906 10.4912 204.243 9.86426 204.343 9.06152C204.437 8.34082 204.287 7.75781 203.895 7.3125C203.502 6.86133 202.931 6.62402 202.181 6.60059L199.148 6.5918L198.278 11.6104ZM212.095 18C212.054 17.8301 212.033 17.6631 212.033 17.499L212.06 16.998C211.187 17.8066 210.261 18.1992 209.282 18.1758C208.444 18.1641 207.762 17.9004 207.234 17.3848C206.713 16.8633 206.476 16.2129 206.522 15.4336C206.581 14.4258 207.021 13.6406 207.841 13.0781C208.667 12.5098 209.751 12.2256 211.093 12.2256L212.754 12.2344L212.859 11.4785C212.918 10.9102 212.807 10.4619 212.525 10.1338C212.25 9.7998 211.834 9.62695 211.277 9.61523C210.732 9.60352 210.249 9.73828 209.827 10.0195C209.411 10.2949 209.156 10.6611 209.062 11.1182L207.463 11.127C207.516 10.5703 207.732 10.0781 208.113 9.65039C208.494 9.2168 208.983 8.88281 209.581 8.64844C210.179 8.4082 210.797 8.29395 211.436 8.30566C212.426 8.3291 213.196 8.63086 213.747 9.21094C214.298 9.78516 214.529 10.5498 214.441 11.5049L213.668 16.2158L213.624 16.8926C213.612 17.2148 213.647 17.5342 213.729 17.8506L213.712 18H212.095ZM209.599 16.7695C210.108 16.7812 210.589 16.6611 211.04 16.4092C211.497 16.1514 211.89 15.7969 212.218 15.3457L212.561 13.3857L211.356 13.377C210.354 13.377 209.587 13.5352 209.054 13.8516C208.521 14.168 208.219 14.6162 208.148 15.1963C208.096 15.6416 208.198 16.0137 208.456 16.3125C208.72 16.6055 209.101 16.7578 209.599 16.7695ZM221.789 9.94043L221.042 9.86133C220.022 9.86133 219.22 10.3213 218.634 11.2412L217.465 18H215.874L217.526 8.49023L219.064 8.48145L218.827 9.58887C219.501 8.7041 220.295 8.27344 221.209 8.29688C221.402 8.29688 221.654 8.34082 221.965 8.42871L221.789 9.94043ZM227.335 18C227.294 17.8301 227.273 17.6631 227.273 17.499L227.3 16.998C226.427 17.8066 225.501 18.1992 224.522 18.1758C223.685 18.1641 223.002 17.9004 222.475 17.3848C221.953 16.8633 221.716 16.2129 221.763 15.4336C221.821 14.4258 222.261 13.6406 223.081 13.0781C223.907 12.5098 224.991 12.2256 226.333 12.2256L227.994 12.2344L228.1 11.4785C228.158 10.9102 228.047 10.4619 227.766 10.1338C227.49 9.7998 227.074 9.62695 226.518 9.61523C225.973 9.60352 225.489 9.73828 225.067 10.0195C224.651 10.2949 224.396 10.6611 224.303 11.1182L222.703 11.127C222.756 10.5703 222.973 10.0781 223.354 9.65039C223.734 9.2168 224.224 8.88281 224.821 8.64844C225.419 8.4082 226.037 8.29395 226.676 8.30566C227.666 8.3291 228.437 8.63086 228.987 9.21094C229.538 9.78516 229.77 10.5498 229.682 11.5049L228.908 16.2158L228.864 16.8926C228.853 17.2148 228.888 17.5342 228.97 17.8506L228.952 18H227.335ZM224.839 16.7695C225.349 16.7812 225.829 16.6611 226.28 16.4092C226.737 16.1514 227.13 15.7969 227.458 15.3457L227.801 13.3857L226.597 13.377C225.595 13.377 224.827 13.5352 224.294 13.8516C223.761 14.168 223.459 14.6162 223.389 15.1963C223.336 15.6416 223.438 16.0137 223.696 16.3125C223.96 16.6055 224.341 16.7578 224.839 16.7695ZM234.252 8.48145L234.05 9.54492C234.847 8.70117 235.811 8.29102 236.941 8.31445C237.545 8.32617 238.055 8.46387 238.471 8.72754C238.893 8.99121 239.183 9.36328 239.341 9.84375C240.231 8.80078 241.283 8.29102 242.496 8.31445C243.445 8.33789 244.146 8.65723 244.597 9.27246C245.048 9.8877 245.215 10.7139 245.098 11.751L244.052 18H242.47L243.507 11.7334C243.542 11.4287 243.542 11.1504 243.507 10.8984C243.396 10.1016 242.874 9.69434 241.942 9.67676C241.362 9.66504 240.835 9.84668 240.36 10.2217C239.892 10.5908 239.59 11.0771 239.455 11.6807L238.374 18H236.774L237.829 11.7422C237.905 11.0918 237.806 10.5908 237.53 10.2393C237.261 9.8877 236.839 9.70605 236.265 9.69434C235.274 9.6709 234.486 10.1221 233.9 11.0479L232.696 18H231.105L232.758 8.49023L234.252 8.48145ZM250.626 18.1758C249.442 18.1523 248.517 17.7158 247.849 16.8662C247.181 16.0166 246.899 14.9297 247.005 13.6055L247.049 13.2275C247.148 12.2842 247.427 11.4229 247.884 10.6436C248.347 9.86426 248.909 9.27832 249.571 8.88574C250.233 8.4873 250.948 8.29688 251.716 8.31445C252.694 8.33789 253.462 8.66309 254.019 9.29004C254.575 9.91699 254.88 10.7666 254.933 11.8389C254.95 12.2197 254.938 12.6006 254.897 12.9814L254.801 13.7109H248.587C248.481 14.5723 248.622 15.3047 249.009 15.9082C249.401 16.5117 249.984 16.8252 250.758 16.8486C251.695 16.8721 252.562 16.4502 253.359 15.583L254.273 16.3564C253.875 16.9307 253.359 17.3818 252.727 17.71C252.1 18.0322 251.399 18.1875 250.626 18.1758ZM251.637 9.6416C250.98 9.62402 250.406 9.84668 249.914 10.3096C249.428 10.7725 249.041 11.4609 248.754 12.375L253.377 12.3838L253.412 12.2432C253.506 11.5049 253.386 10.8926 253.052 10.4062C252.724 9.91406 252.252 9.65918 251.637 9.6416ZM260.048 6.1875L259.644 8.49023H261.375L261.155 9.74707H259.433L258.439 15.6621C258.422 15.8145 258.419 15.9551 258.431 16.084C258.472 16.541 258.721 16.7695 259.178 16.7695C259.371 16.7695 259.629 16.7402 259.951 16.6816L259.828 18.0088C259.447 18.1143 259.061 18.167 258.668 18.167C258.035 18.1553 257.561 17.9238 257.244 17.4727C256.928 17.0156 256.805 16.4033 256.875 15.6357L257.842 9.74707H256.163L256.383 8.49023H258.062L258.466 6.1875H260.048ZM265.761 18.1758C264.577 18.1523 263.651 17.7158 262.983 16.8662C262.315 16.0166 262.034 14.9297 262.14 13.6055L262.184 13.2275C262.283 12.2842 262.562 11.4229 263.019 10.6436C263.481 9.86426 264.044 9.27832 264.706 8.88574C265.368 8.4873 266.083 8.29688 266.851 8.31445C267.829 8.33789 268.597 8.66309 269.153 9.29004C269.71 9.91699 270.015 10.7666 270.067 11.8389C270.085 12.2197 270.073 12.6006 270.032 12.9814L269.936 13.7109H263.722C263.616 14.5723 263.757 15.3047 264.144 15.9082C264.536 16.5117 265.119 16.8252 265.893 16.8486C266.83 16.8721 267.697 16.4502 268.494 15.583L269.408 16.3564C269.01 16.9307 268.494 17.3818 267.861 17.71C267.234 18.0322 266.534 18.1875 265.761 18.1758ZM266.771 9.6416C266.115 9.62402 265.541 9.84668 265.049 10.3096C264.562 10.7725 264.176 11.4609 263.889 12.375L268.512 12.3838L268.547 12.2432C268.641 11.5049 268.521 10.8926 268.187 10.4062C267.858 9.91406 267.387 9.65918 266.771 9.6416ZM276.896 9.94043L276.149 9.86133C275.13 9.86133 274.327 10.3213 273.741 11.2412L272.572 18H270.981L272.634 8.49023L274.172 8.48145L273.935 9.58887C274.608 8.7041 275.402 8.27344 276.316 8.29688C276.51 8.29688 276.762 8.34082 277.072 8.42871L276.896 9.94043Z" fill="black"/>
<path d="M167.083 152.592H163.102L161.124 164H159.48L161.458 152.592H157.477L157.723 151.203H167.329L167.083 152.592ZM172.031 155.94L171.284 155.861C170.265 155.861 169.462 156.321 168.876 157.241L167.707 164H166.116L167.769 154.49L169.307 154.481L169.069 155.589C169.743 154.704 170.537 154.273 171.451 154.297C171.645 154.297 171.896 154.341 172.207 154.429L172.031 155.94ZM177.577 164C177.536 163.83 177.516 163.663 177.516 163.499L177.542 162.998C176.669 163.807 175.743 164.199 174.765 164.176C173.927 164.164 173.244 163.9 172.717 163.385C172.195 162.863 171.958 162.213 172.005 161.434C172.063 160.426 172.503 159.641 173.323 159.078C174.149 158.51 175.233 158.226 176.575 158.226L178.236 158.234L178.342 157.479C178.4 156.91 178.289 156.462 178.008 156.134C177.732 155.8 177.316 155.627 176.76 155.615C176.215 155.604 175.731 155.738 175.31 156.02C174.894 156.295 174.639 156.661 174.545 157.118L172.945 157.127C172.998 156.57 173.215 156.078 173.596 155.65C173.977 155.217 174.466 154.883 175.063 154.648C175.661 154.408 176.279 154.294 176.918 154.306C177.908 154.329 178.679 154.631 179.229 155.211C179.78 155.785 180.012 156.55 179.924 157.505L179.15 162.216L179.106 162.893C179.095 163.215 179.13 163.534 179.212 163.851L179.194 164H177.577ZM175.081 162.77C175.591 162.781 176.071 162.661 176.522 162.409C176.979 162.151 177.372 161.797 177.7 161.346L178.043 159.386L176.839 159.377C175.837 159.377 175.069 159.535 174.536 159.852C174.003 160.168 173.701 160.616 173.631 161.196C173.578 161.642 173.681 162.014 173.938 162.312C174.202 162.605 174.583 162.758 175.081 162.77ZM184.512 154.481L184.283 155.686C185.139 154.748 186.111 154.291 187.201 154.314C188.098 154.338 188.76 154.648 189.188 155.246C189.615 155.844 189.773 156.685 189.662 157.769L188.625 164H187.034L188.08 157.742C188.115 157.455 188.118 157.188 188.089 156.942C187.989 156.122 187.506 155.703 186.639 155.686C185.684 155.668 184.846 156.178 184.125 157.215L182.947 164H181.356L183.009 154.49L184.512 154.481ZM196.966 161.425C197.054 160.769 196.693 160.306 195.885 160.036L194.232 159.553C192.838 159.072 192.164 158.275 192.211 157.162C192.252 156.324 192.633 155.639 193.354 155.105C194.08 154.566 194.933 154.303 195.911 154.314C196.872 154.326 197.651 154.607 198.249 155.158C198.853 155.703 199.143 156.415 199.119 157.294L197.537 157.285C197.549 156.811 197.399 156.424 197.089 156.125C196.778 155.826 196.365 155.671 195.85 155.659C195.299 155.647 194.824 155.782 194.426 156.063C194.057 156.327 193.843 156.673 193.784 157.101C193.708 157.651 194.045 158.053 194.795 158.305L195.595 158.524C196.685 158.806 197.458 159.172 197.915 159.623C198.372 160.074 198.583 160.634 198.548 161.302C198.513 161.894 198.319 162.409 197.968 162.849C197.616 163.288 197.147 163.625 196.562 163.859C195.976 164.088 195.352 164.193 194.689 164.176C193.682 164.164 192.85 163.871 192.193 163.297C191.537 162.717 191.221 161.973 191.244 161.064L192.835 161.073C192.835 161.606 193.005 162.034 193.345 162.356C193.685 162.679 194.15 162.84 194.742 162.84C195.322 162.852 195.823 162.731 196.245 162.479C196.667 162.222 196.907 161.87 196.966 161.425ZM200.938 164L202.38 155.747H200.912L201.132 154.49H202.591L202.749 153.365C202.901 152.41 203.271 151.663 203.856 151.124C204.472 150.562 205.257 150.286 206.212 150.298C206.511 150.298 206.889 150.348 207.346 150.447L207.152 151.774C206.871 151.716 206.587 151.681 206.3 151.669C205.749 151.669 205.301 151.842 204.955 152.188C204.615 152.527 204.404 152.981 204.322 153.55L204.182 154.49H206.15L205.931 155.747H203.962L202.529 164H200.938ZM211.6 154.314C212.396 154.326 213.079 154.543 213.647 154.965C214.216 155.387 214.635 155.97 214.904 156.714C215.18 157.452 215.273 158.261 215.186 159.14L215.168 159.333C215.057 160.259 214.781 161.097 214.342 161.847C213.902 162.591 213.334 163.171 212.637 163.587C211.939 164.003 211.175 164.199 210.343 164.176C209.552 164.164 208.869 163.947 208.295 163.525C207.727 163.104 207.311 162.529 207.047 161.803C206.783 161.076 206.689 160.276 206.766 159.403C206.854 158.419 207.12 157.534 207.565 156.749C208.011 155.964 208.582 155.357 209.279 154.93C209.982 154.496 210.756 154.291 211.6 154.314ZM208.365 159.412C208.324 159.781 208.324 160.165 208.365 160.563C208.424 161.255 208.629 161.806 208.98 162.216C209.338 162.626 209.812 162.84 210.404 162.857C210.932 162.875 211.418 162.746 211.863 162.471C212.309 162.189 212.684 161.768 212.988 161.205C213.293 160.643 213.489 160.019 213.577 159.333C213.624 158.794 213.633 158.34 213.604 157.971C213.533 157.262 213.319 156.702 212.962 156.292C212.604 155.882 212.13 155.665 211.538 155.642C210.718 155.624 210.021 155.946 209.446 156.608C208.872 157.271 208.518 158.138 208.383 159.21L208.365 159.412ZM222.287 155.94L221.54 155.861C220.521 155.861 219.718 156.321 219.132 157.241L217.963 164H216.372L218.024 154.49L219.562 154.481L219.325 155.589C219.999 154.704 220.793 154.273 221.707 154.297C221.9 154.297 222.152 154.341 222.463 154.429L222.287 155.94ZM225.504 154.481L225.302 155.545C226.099 154.701 227.062 154.291 228.193 154.314C228.797 154.326 229.307 154.464 229.723 154.728C230.145 154.991 230.435 155.363 230.593 155.844C231.483 154.801 232.535 154.291 233.748 154.314C234.697 154.338 235.397 154.657 235.849 155.272C236.3 155.888 236.467 156.714 236.35 157.751L235.304 164H233.722L234.759 157.733C234.794 157.429 234.794 157.15 234.759 156.898C234.647 156.102 234.126 155.694 233.194 155.677C232.614 155.665 232.087 155.847 231.612 156.222C231.144 156.591 230.842 157.077 230.707 157.681L229.626 164H228.026L229.081 157.742C229.157 157.092 229.058 156.591 228.782 156.239C228.513 155.888 228.091 155.706 227.517 155.694C226.526 155.671 225.738 156.122 225.152 157.048L223.948 164H222.357L224.01 154.49L225.504 154.481ZM243.583 164C243.542 163.83 243.521 163.663 243.521 163.499L243.548 162.998C242.675 163.807 241.749 164.199 240.771 164.176C239.933 164.164 239.25 163.9 238.723 163.385C238.201 162.863 237.964 162.213 238.011 161.434C238.069 160.426 238.509 159.641 239.329 159.078C240.155 158.51 241.239 158.226 242.581 158.226L244.242 158.234L244.348 157.479C244.406 156.91 244.295 156.462 244.014 156.134C243.738 155.8 243.322 155.627 242.766 155.615C242.221 155.604 241.737 155.738 241.315 156.02C240.899 156.295 240.645 156.661 240.551 157.118L238.951 157.127C239.004 156.57 239.221 156.078 239.602 155.65C239.982 155.217 240.472 154.883 241.069 154.648C241.667 154.408 242.285 154.294 242.924 154.306C243.914 154.329 244.685 154.631 245.235 155.211C245.786 155.785 246.018 156.55 245.93 157.505L245.156 162.216L245.112 162.893C245.101 163.215 245.136 163.534 245.218 163.851L245.2 164H243.583ZM241.087 162.77C241.597 162.781 242.077 162.661 242.528 162.409C242.985 162.151 243.378 161.797 243.706 161.346L244.049 159.386L242.845 159.377C241.843 159.377 241.075 159.535 240.542 159.852C240.009 160.168 239.707 160.616 239.637 161.196C239.584 161.642 239.687 162.014 239.944 162.312C240.208 162.605 240.589 162.758 241.087 162.77ZM251.563 152.188L251.159 154.49H252.891L252.671 155.747H250.948L249.955 161.662C249.938 161.814 249.935 161.955 249.946 162.084C249.987 162.541 250.236 162.77 250.693 162.77C250.887 162.77 251.145 162.74 251.467 162.682L251.344 164.009C250.963 164.114 250.576 164.167 250.184 164.167C249.551 164.155 249.076 163.924 248.76 163.473C248.443 163.016 248.32 162.403 248.391 161.636L249.357 155.747H247.679L247.898 154.49H249.577L249.981 152.188H251.563ZM254.886 164H253.304L254.956 154.49H256.538L254.886 164ZM256.195 151.019C256.465 151.007 256.688 151.089 256.863 151.265C257.045 151.435 257.136 151.66 257.136 151.941C257.13 152.217 257.039 152.442 256.863 152.618C256.693 152.794 256.471 152.888 256.195 152.899C255.92 152.911 255.694 152.832 255.519 152.662C255.343 152.492 255.258 152.27 255.264 151.994C255.27 151.719 255.357 151.49 255.527 151.309C255.697 151.127 255.92 151.03 256.195 151.019ZM262.77 154.314C263.566 154.326 264.249 154.543 264.817 154.965C265.386 155.387 265.805 155.97 266.074 156.714C266.35 157.452 266.443 158.261 266.355 159.14L266.338 159.333C266.227 160.259 265.951 161.097 265.512 161.847C265.072 162.591 264.504 163.171 263.807 163.587C263.109 164.003 262.345 164.199 261.513 164.176C260.722 164.164 260.039 163.947 259.465 163.525C258.896 163.104 258.48 162.529 258.217 161.803C257.953 161.076 257.859 160.276 257.936 159.403C258.023 158.419 258.29 157.534 258.735 156.749C259.181 155.964 259.752 155.357 260.449 154.93C261.152 154.496 261.926 154.291 262.77 154.314ZM259.535 159.412C259.494 159.781 259.494 160.165 259.535 160.563C259.594 161.255 259.799 161.806 260.15 162.216C260.508 162.626 260.982 162.84 261.574 162.857C262.102 162.875 262.588 162.746 263.033 162.471C263.479 162.189 263.854 161.768 264.158 161.205C264.463 160.643 264.659 160.019 264.747 159.333C264.794 158.794 264.803 158.34 264.773 157.971C264.703 157.262 264.489 156.702 264.132 156.292C263.774 155.882 263.3 155.665 262.708 155.642C261.888 155.624 261.19 155.946 260.616 156.608C260.042 157.271 259.688 158.138 259.553 159.21L259.535 159.412ZM270.697 154.481L270.469 155.686C271.324 154.748 272.297 154.291 273.387 154.314C274.283 154.338 274.945 154.648 275.373 155.246C275.801 155.844 275.959 156.685 275.848 157.769L274.811 164H273.22L274.266 157.742C274.301 157.455 274.304 157.188 274.274 156.942C274.175 156.122 273.691 155.703 272.824 155.686C271.869 155.668 271.031 156.178 270.311 157.215L269.133 164H267.542L269.194 154.49L270.697 154.481Z" fill="black"/>
<path d="M243 95.7329L181.5 95.7329" stroke="#EB5757" stroke-width="2"/>
<line y1="-1" x2="51.0098" y2="-1" transform="matrix(0.0196041 -0.999808 1 0 216.909 147)" stroke="#EB5757" stroke-width="2"/>
<path d="M222.5 51.6443L206 51.6443" stroke="#009E73" stroke-width="2"/>
<line y1="-1" x2="29.5069" y2="-1" transform="matrix(0.0338904 0.999425 1 0 215.5 21.9999)" stroke="#009E73" stroke-width="2"/>
<path d="M52.3584 12.3486H47.1553L46.1709 18H44.5186L46.7422 5.20312H54.4414L54.1953 6.5918H48.1484L47.3926 10.9688H52.6045L52.3584 12.3486ZM59.8555 17.0596C59.1113 17.8271 58.165 18.1992 57.0166 18.1758C56.1084 18.1523 55.4346 17.8271 54.9951 17.2002C54.5615 16.5732 54.4004 15.7178 54.5117 14.6338L55.5312 8.49023H57.1221L56.0938 14.6602C56.0645 14.918 56.0586 15.1699 56.0762 15.416C56.1055 15.8379 56.2314 16.1689 56.4541 16.4092C56.6768 16.6494 56.9873 16.7783 57.3857 16.7959C58.5225 16.8311 59.4014 16.3711 60.0225 15.416L61.2178 8.49023H62.8086L61.1562 18H59.6533L59.8555 17.0596ZM66.6934 8.48145L66.4648 9.68555C67.3203 8.74805 68.293 8.29102 69.3828 8.31445C70.2793 8.33789 70.9414 8.64844 71.3691 9.24609C71.7969 9.84375 71.9551 10.6846 71.8438 11.7686L70.8066 18H69.2158L70.2617 11.7422C70.2969 11.4551 70.2998 11.1885 70.2705 10.9424C70.1709 10.1221 69.6875 9.70312 68.8203 9.68555C67.8652 9.66797 67.0273 10.1777 66.3066 11.2148L65.1289 18H63.5381L65.1904 8.49023L66.6934 8.48145ZM77.2754 16.8574C77.8438 16.8691 78.3564 16.7051 78.8135 16.3652C79.2705 16.0195 79.5693 15.5684 79.71 15.0117L81.2129 15.0029C81.125 15.6006 80.8848 16.1455 80.4922 16.6377C80.1055 17.1299 79.6162 17.5137 79.0244 17.7891C78.4326 18.0645 77.8262 18.1934 77.2051 18.1758C76.4141 18.1641 75.7432 17.959 75.1924 17.5605C74.6475 17.1562 74.2461 16.5967 73.9883 15.8818C73.7305 15.1611 73.6426 14.3525 73.7246 13.4561L73.7686 13.0166C73.8799 12.1025 74.1465 11.2852 74.5684 10.5645C74.9902 9.84375 75.541 9.28418 76.2207 8.88574C76.9004 8.48145 77.6504 8.29102 78.4707 8.31445C79.4668 8.33789 80.2637 8.67188 80.8613 9.31641C81.459 9.96094 81.7578 10.7783 81.7578 11.7686L80.2725 11.7598C80.2607 11.1387 80.0879 10.6377 79.7539 10.2568C79.4199 9.87012 78.9688 9.66504 78.4004 9.6416C77.5742 9.62402 76.8857 9.93164 76.335 10.5645C75.79 11.1973 75.4502 12.082 75.3154 13.2188L75.2891 13.4473C75.2539 13.8223 75.248 14.209 75.2715 14.6074C75.3125 15.293 75.5059 15.835 75.8516 16.2334C76.1973 16.6318 76.6719 16.8398 77.2754 16.8574ZM86.6885 6.1875L86.2842 8.49023H88.0156L87.7959 9.74707H86.0732L85.0801 15.6621C85.0625 15.8145 85.0596 15.9551 85.0713 16.084C85.1123 16.541 85.3613 16.7695 85.8184 16.7695C86.0117 16.7695 86.2695 16.7402 86.5918 16.6816L86.4688 18.0088C86.0879 18.1143 85.7012 18.167 85.3086 18.167C84.6758 18.1553 84.2012 17.9238 83.8848 17.4727C83.5684 17.0156 83.4453 16.4033 83.5156 15.6357L84.4824 9.74707H82.8037L83.0234 8.49023H84.7021L85.1064 6.1875H86.6885ZM90.0107 18H88.4287L90.0811 8.49023H91.6631L90.0107 18ZM91.3203 5.01855C91.5898 5.00684 91.8125 5.08887 91.9883 5.26465C92.1699 5.43457 92.2607 5.66016 92.2607 5.94141C92.2549 6.2168 92.1641 6.44238 91.9883 6.61816C91.8184 6.79395 91.5957 6.8877 91.3203 6.89941C91.0449 6.91113 90.8193 6.83203 90.6436 6.66211C90.4678 6.49219 90.3828 6.26953 90.3887 5.99414C90.3945 5.71875 90.4824 5.49023 90.6523 5.30859C90.8223 5.12695 91.0449 5.03027 91.3203 5.01855ZM97.8945 8.31445C98.6914 8.32617 99.374 8.54297 99.9424 8.96484C100.511 9.38672 100.93 9.96973 101.199 10.7139C101.475 11.4521 101.568 12.2607 101.48 13.1396L101.463 13.333C101.352 14.2588 101.076 15.0967 100.637 15.8467C100.197 16.5908 99.6289 17.1709 98.9316 17.5869C98.2344 18.0029 97.4697 18.1992 96.6377 18.1758C95.8467 18.1641 95.1641 17.9473 94.5898 17.5254C94.0215 17.1035 93.6055 16.5293 93.3418 15.8027C93.0781 15.0762 92.9844 14.2764 93.0605 13.4033C93.1484 12.4189 93.415 11.5342 93.8604 10.749C94.3057 9.96387 94.877 9.35742 95.5742 8.92969C96.2773 8.49609 97.0508 8.29102 97.8945 8.31445ZM94.6602 13.4121C94.6191 13.7812 94.6191 14.165 94.6602 14.5635C94.7188 15.2549 94.9238 15.8057 95.2754 16.2158C95.6328 16.626 96.1074 16.8398 96.6992 16.8574C97.2266 16.875 97.7129 16.7461 98.1582 16.4707C98.6035 16.1895 98.9785 15.7676 99.2832 15.2051C99.5879 14.6426 99.7842 14.0186 99.8721 13.333C99.9189 12.7939 99.9277 12.3398 99.8984 11.9707C99.8281 11.2617 99.6143 10.7021 99.2568 10.292C98.8994 9.88184 98.4248 9.66504 97.833 9.6416C97.0127 9.62402 96.3154 9.94629 95.7412 10.6084C95.167 11.2705 94.8125 12.1377 94.6777 13.21L94.6602 13.4121ZM105.822 8.48145L105.594 9.68555C106.449 8.74805 107.422 8.29102 108.512 8.31445C109.408 8.33789 110.07 8.64844 110.498 9.24609C110.926 9.84375 111.084 10.6846 110.973 11.7686L109.936 18H108.345L109.391 11.7422C109.426 11.4551 109.429 11.1885 109.399 10.9424C109.3 10.1221 108.816 9.70312 107.949 9.68555C106.994 9.66797 106.156 10.1777 105.436 11.2148L104.258 18H102.667L104.319 8.49023L105.822 8.48145ZM126.6 18H125L120.43 8.06836L118.707 18H117.046L119.27 5.20312H120.869L125.448 15.1787L127.18 5.20312H128.823L126.6 18ZM135.151 18C135.11 17.8301 135.09 17.6631 135.09 17.499L135.116 16.998C134.243 17.8066 133.317 18.1992 132.339 18.1758C131.501 18.1641 130.818 17.9004 130.291 17.3848C129.77 16.8633 129.532 16.2129 129.579 15.4336C129.638 14.4258 130.077 13.6406 130.897 13.0781C131.724 12.5098 132.808 12.2256 134.149 12.2256L135.811 12.2344L135.916 11.4785C135.975 10.9102 135.863 10.4619 135.582 10.1338C135.307 9.7998 134.891 9.62695 134.334 9.61523C133.789 9.60352 133.306 9.73828 132.884 10.0195C132.468 10.2949 132.213 10.6611 132.119 11.1182L130.52 11.127C130.572 10.5703 130.789 10.0781 131.17 9.65039C131.551 9.2168 132.04 8.88281 132.638 8.64844C133.235 8.4082 133.854 8.29395 134.492 8.30566C135.482 8.3291 136.253 8.63086 136.804 9.21094C137.354 9.78516 137.586 10.5498 137.498 11.5049L136.725 16.2158L136.681 16.8926C136.669 17.2148 136.704 17.5342 136.786 17.8506L136.769 18H135.151ZM132.655 16.7695C133.165 16.7812 133.646 16.6611 134.097 16.4092C134.554 16.1514 134.946 15.7969 135.274 15.3457L135.617 13.3857L134.413 13.377C133.411 13.377 132.644 13.5352 132.11 13.8516C131.577 14.168 131.275 14.6162 131.205 15.1963C131.152 15.6416 131.255 16.0137 131.513 16.3125C131.776 16.6055 132.157 16.7578 132.655 16.7695ZM142.068 8.48145L141.866 9.54492C142.663 8.70117 143.627 8.29102 144.758 8.31445C145.361 8.32617 145.871 8.46387 146.287 8.72754C146.709 8.99121 146.999 9.36328 147.157 9.84375C148.048 8.80078 149.1 8.29102 150.312 8.31445C151.262 8.33789 151.962 8.65723 152.413 9.27246C152.864 9.8877 153.031 10.7139 152.914 11.751L151.868 18H150.286L151.323 11.7334C151.358 11.4287 151.358 11.1504 151.323 10.8984C151.212 10.1016 150.69 9.69434 149.759 9.67676C149.179 9.66504 148.651 9.84668 148.177 10.2217C147.708 10.5908 147.406 11.0771 147.271 11.6807L146.19 18H144.591L145.646 11.7422C145.722 11.0918 145.622 10.5908 145.347 10.2393C145.077 9.8877 144.655 9.70605 144.081 9.69434C143.091 9.6709 142.303 10.1221 141.717 11.0479L140.513 18H138.922L140.574 8.49023L142.068 8.48145ZM158.442 18.1758C157.259 18.1523 156.333 17.7158 155.665 16.8662C154.997 16.0166 154.716 14.9297 154.821 13.6055L154.865 13.2275C154.965 12.2842 155.243 11.4229 155.7 10.6436C156.163 9.86426 156.726 9.27832 157.388 8.88574C158.05 8.4873 158.765 8.29688 159.532 8.31445C160.511 8.33789 161.278 8.66309 161.835 9.29004C162.392 9.91699 162.696 10.7666 162.749 11.8389C162.767 12.2197 162.755 12.6006 162.714 12.9814L162.617 13.7109H156.403C156.298 14.5723 156.438 15.3047 156.825 15.9082C157.218 16.5117 157.801 16.8252 158.574 16.8486C159.512 16.8721 160.379 16.4502 161.176 15.583L162.09 16.3564C161.691 16.9307 161.176 17.3818 160.543 17.71C159.916 18.0322 159.216 18.1875 158.442 18.1758ZM159.453 9.6416C158.797 9.62402 158.223 9.84668 157.73 10.3096C157.244 10.7725 156.857 11.4609 156.57 12.375L161.193 12.3838L161.229 12.2432C161.322 11.5049 161.202 10.8926 160.868 10.4062C160.54 9.91406 160.068 9.65918 159.453 9.6416Z" fill="black"/>
<path d="M195 50.6562L103 50.6562" stroke="#9B51E0" stroke-width="2"/>
<line y1="-1" x2="28.5069" y2="-1" transform="matrix(5.35267e-07 1 1 -8.9779e-08 118.623 22)" stroke="#9B51E0" stroke-width="2"/>
</svg>
