<svg width="511" height="170" viewBox="0 0 511 170" fill="none" xmlns="http://www.w3.org/2000/svg">
<rect width="511" height="170" fill="white"/>
<path d="M58 43.4118H481.255V100H58V43.4118Z" fill="#F1F4F8"/>
<path d="M66.6407 61.7653C66.6407 60.9653 66.7607 60.2453 67.0007 59.6053C67.2407 58.9653 67.5607 58.4253 67.9607 57.9853C68.374 57.5453 68.8407 57.2053 69.3607 56.9653C69.8807 56.7253 70.4207 56.6053 70.9807 56.6053C71.5674 56.6053 72.0674 56.7119 72.4807 56.9253C72.9074 57.1253 73.3207 57.4053 73.7207 57.7653L73.6207 56.1053V52.5453H75.9407V66.6653H74.0407L73.8607 65.5253H73.8007C73.414 65.9119 72.9607 66.2386 72.4407 66.5053C71.934 66.7719 71.4007 66.9053 70.8407 66.9053C70.214 66.9053 69.6407 66.7919 69.1207 66.5653C68.6007 66.3253 68.154 65.9853 67.7807 65.5453C67.4207 65.1053 67.1407 64.5719 66.9407 63.9453C66.7407 63.3053 66.6407 62.5786 66.6407 61.7653ZM69.0207 61.7453C69.0207 62.8119 69.2274 63.6253 69.6407 64.1853C70.054 64.7319 70.6407 65.0053 71.4007 65.0053C72.214 65.0053 72.954 64.6119 73.6207 63.8253V59.4053C73.274 59.0719 72.9274 58.8386 72.5807 58.7053C72.234 58.5719 71.8807 58.5053 71.5207 58.5053C71.174 58.5053 70.8474 58.5786 70.5407 58.7253C70.2474 58.8719 69.9874 59.0853 69.7607 59.3653C69.534 59.6319 69.354 59.9653 69.2207 60.3653C69.0874 60.7653 69.0207 61.2253 69.0207 61.7453ZM78.8129 61.7653C78.8129 60.9653 78.9529 60.2453 79.2329 59.6053C79.5262 58.9653 79.9062 58.4253 80.3729 57.9853C80.8395 57.5319 81.3729 57.1919 81.9729 56.9653C82.5862 56.7253 83.2129 56.6053 83.8529 56.6053C84.5862 56.6053 85.2329 56.7253 85.7929 56.9653C86.3662 57.1919 86.8462 57.5119 87.2329 57.9253C87.6195 58.3253 87.9129 58.8119 88.1129 59.3853C88.3129 59.9586 88.4129 60.5853 88.4129 61.2653C88.4129 61.4919 88.3995 61.7053 88.3729 61.9053C88.3595 62.1053 88.3395 62.2653 88.3129 62.3853H81.1729C81.2529 63.2653 81.5995 63.9453 82.2129 64.4253C82.8262 64.8919 83.5795 65.1253 84.4729 65.1253C84.9795 65.1253 85.4529 65.0586 85.8929 64.9253C86.3329 64.7786 86.7795 64.5786 87.2329 64.3253L88.0129 65.7653C87.4795 66.0986 86.8862 66.3719 86.2329 66.5853C85.5795 66.7986 84.8929 66.9053 84.1729 66.9053C83.4262 66.9053 82.7262 66.7919 82.0729 66.5653C81.4195 66.3253 80.8529 65.9853 80.3729 65.5453C79.8929 65.1053 79.5129 64.5719 79.2329 63.9453C78.9529 63.3053 78.8129 62.5786 78.8129 61.7653ZM86.2929 60.8253C86.2929 60.0653 86.0929 59.4719 85.6929 59.0453C85.2929 58.6053 84.6995 58.3853 83.9129 58.3853C83.2462 58.3853 82.6529 58.5919 82.1329 59.0053C81.6129 59.4186 81.2862 60.0253 81.1529 60.8253H86.2929ZM100.725 54.5453C100.365 54.3986 100.012 54.2919 99.6651 54.2253C99.3317 54.1586 98.9651 54.1253 98.5651 54.1253C97.8051 54.1253 97.2517 54.3119 96.9051 54.6853C96.5717 55.0453 96.4051 55.5719 96.4051 56.2653V56.8453H100.145V58.6653H96.4051V66.6653H94.1251V58.6653H91.4051V56.9453L94.1251 56.8453V56.3053C94.1251 55.7319 94.2051 55.1986 94.3651 54.7053C94.5251 54.2119 94.7717 53.7919 95.1051 53.4453C95.4517 53.0853 95.8851 52.8053 96.4051 52.6053C96.9384 52.4053 97.5651 52.3053 98.2851 52.3053C98.8184 52.3053 99.3251 52.3519 99.8051 52.4453C100.298 52.5386 100.765 52.6719 101.205 52.8453L100.725 54.5453ZM157.766 70.2053C156.419 69.0853 155.353 67.7653 154.566 66.2453C153.793 64.7253 153.406 63.0119 153.406 61.1053C153.406 59.1986 153.793 57.4853 154.566 55.9653C155.353 54.4453 156.419 53.1253 157.766 52.0053L159.046 53.0653C157.779 54.2119 156.853 55.4319 156.266 56.7253C155.679 58.0186 155.386 59.4786 155.386 61.1053C155.386 62.7319 155.679 64.1919 156.266 65.4853C156.853 66.7786 157.779 67.9986 159.046 69.1453L157.766 70.2053ZM211.967 69.1453C213.234 67.9986 214.16 66.7786 214.747 65.4853C215.334 64.1919 215.627 62.7319 215.627 61.1053C215.627 59.4786 215.334 58.0186 214.747 56.7253C214.16 55.4319 213.234 54.2119 211.967 53.0653L213.247 52.0053C214.594 53.1253 215.654 54.4453 216.427 55.9653C217.214 57.4853 217.607 59.1986 217.607 61.1053C217.607 63.0119 217.214 64.7253 216.427 66.2453C215.654 67.7653 214.594 69.0853 213.247 70.2053L211.967 69.1453ZM225.499 58.0853C225.499 57.4986 225.686 57.0186 226.059 56.6453C226.432 56.2586 226.906 56.0653 227.479 56.0653C228.052 56.0653 228.526 56.2586 228.899 56.6453C229.272 57.0186 229.459 57.4986 229.459 58.0853C229.459 58.6719 229.272 59.1586 228.899 59.5453C228.526 59.9186 228.052 60.1053 227.479 60.1053C226.906 60.1053 226.432 59.9186 226.059 59.5453C225.686 59.1586 225.499 58.6719 225.499 58.0853ZM225.499 64.8853C225.499 64.2986 225.686 63.8186 226.059 63.4453C226.432 63.0586 226.906 62.8653 227.479 62.8653C228.052 62.8653 228.526 63.0586 228.899 63.4453C229.272 63.8186 229.459 64.2986 229.459 64.8853C229.459 65.4719 229.272 65.9586 228.899 66.3453C228.526 66.7186 228.052 66.9053 227.479 66.9053C226.906 66.9053 226.432 66.7186 226.059 66.3453C225.686 65.9586 225.499 65.4719 225.499 64.8853ZM116.149 81.8453H118.049L118.249 84.0653H118.309C118.816 83.2653 119.423 82.6586 120.129 82.2453C120.849 81.8186 121.636 81.6053 122.489 81.6053C122.889 81.6053 123.229 81.6386 123.509 81.7053C123.803 81.7586 124.096 81.8586 124.389 82.0053L123.909 83.9453C123.589 83.8386 123.303 83.7653 123.049 83.7253C122.809 83.6719 122.503 83.6453 122.129 83.6453C121.449 83.6453 120.796 83.8386 120.169 84.2253C119.543 84.6119 118.976 85.2853 118.469 86.2453V91.6653H116.149V81.8453ZM126.782 86.7653C126.782 85.9653 126.922 85.2453 127.202 84.6053C127.495 83.9653 127.875 83.4253 128.342 82.9853C128.808 82.5319 129.342 82.1919 129.942 81.9653C130.555 81.7253 131.182 81.6053 131.822 81.6053C132.555 81.6053 133.202 81.7253 133.762 81.9653C134.335 82.1919 134.815 82.5119 135.202 82.9253C135.588 83.3253 135.882 83.8119 136.082 84.3853C136.282 84.9586 136.382 85.5853 136.382 86.2653C136.382 86.4919 136.368 86.7053 136.342 86.9053C136.328 87.1053 136.308 87.2653 136.282 87.3853H129.142C129.222 88.2653 129.568 88.9453 130.182 89.4253C130.795 89.8919 131.548 90.1253 132.442 90.1253C132.948 90.1253 133.422 90.0586 133.862 89.9253C134.302 89.7786 134.748 89.5786 135.202 89.3253L135.982 90.7653C135.448 91.0986 134.855 91.3719 134.202 91.5853C133.548 91.7986 132.862 91.9053 132.142 91.9053C131.395 91.9053 130.695 91.7919 130.042 91.5653C129.388 91.3253 128.822 90.9853 128.342 90.5453C127.862 90.1053 127.482 89.5719 127.202 88.9453C126.922 88.3053 126.782 87.5786 126.782 86.7653ZM134.262 85.8253C134.262 85.0653 134.062 84.4719 133.662 84.0453C133.262 83.6053 132.668 83.3853 131.882 83.3853C131.215 83.3853 130.622 83.5919 130.102 84.0053C129.582 84.4186 129.255 85.0253 129.122 85.8253H134.262ZM141.334 83.6653H138.714V81.9453L141.434 81.8453L141.734 79.1653H143.634V81.8453H148.114V83.6653H143.634V87.7053C143.634 88.5186 143.8 89.1186 144.134 89.5053C144.467 89.8786 145.054 90.0653 145.894 90.0653C146.32 90.0653 146.707 90.0319 147.054 89.9653C147.4 89.8853 147.734 89.7853 148.054 89.6653L148.494 91.3453C148.054 91.4919 147.567 91.6186 147.034 91.7253C146.5 91.8453 145.934 91.9053 145.334 91.9053C144.587 91.9053 143.96 91.8053 143.454 91.6053C142.947 91.4053 142.534 91.1253 142.214 90.7653C141.907 90.3919 141.68 89.9453 141.534 89.4253C141.4 88.9053 141.334 88.3319 141.334 87.7053V83.6653ZM159.826 91.6653H157.946L157.766 90.1053H157.686C157.219 90.6519 156.706 91.0919 156.146 91.4253C155.586 91.7453 154.939 91.9053 154.206 91.9053C153.059 91.9053 152.226 91.5653 151.706 90.8853C151.186 90.1919 150.926 89.2053 150.926 87.9253V81.8453H153.226V87.6253C153.226 88.4253 153.359 89.0119 153.626 89.3853C153.906 89.7453 154.386 89.9253 155.066 89.9253C155.533 89.9253 155.946 89.8186 156.306 89.6053C156.679 89.3919 157.086 89.0119 157.526 88.4653V81.8453H159.826V91.6653ZM164.118 81.8453H166.018L166.218 84.0653H166.278C166.785 83.2653 167.392 82.6586 168.098 82.2453C168.818 81.8186 169.605 81.6053 170.458 81.6053C170.858 81.6053 171.198 81.6386 171.478 81.7053C171.772 81.7586 172.065 81.8586 172.358 82.0053L171.878 83.9453C171.558 83.8386 171.272 83.7653 171.018 83.7253C170.778 83.6719 170.472 83.6453 170.098 83.6453C169.418 83.6453 168.765 83.8386 168.138 84.2253C167.512 84.6119 166.945 85.2853 166.438 86.2453V91.6653H164.118V81.8453ZM175.15 81.8453H177.05L177.23 83.3253H177.31C177.777 82.8586 178.29 82.4586 178.85 82.1253C179.424 81.7786 180.09 81.6053 180.85 81.6053C181.984 81.6053 182.817 81.9519 183.35 82.6453C183.884 83.3253 184.15 84.3053 184.15 85.5853V91.6653H181.83V85.8853C181.83 85.0853 181.69 84.5053 181.41 84.1453C181.144 83.7719 180.67 83.5853 179.99 83.5853C179.51 83.5853 179.084 83.6986 178.71 83.9253C178.337 84.1519 177.924 84.4986 177.47 84.9653V91.6653H175.15V81.8453Z" fill="#2E383C"/>
<path d="M114.969 64.0253C114.969 63.4786 115.096 62.9986 115.349 62.5853C115.603 62.1586 116.003 61.7986 116.549 61.5053C117.096 61.2119 117.796 60.9719 118.649 60.7853C119.503 60.5986 120.536 60.4653 121.749 60.3853C121.709 59.8253 121.509 59.3653 121.149 59.0053C120.789 58.6453 120.209 58.4653 119.409 58.4653C118.849 58.4653 118.296 58.5719 117.749 58.7853C117.216 58.9853 116.696 59.2253 116.189 59.5053L115.349 57.9653C115.949 57.6186 116.636 57.3053 117.409 57.0253C118.183 56.7453 118.989 56.6053 119.829 56.6053C121.203 56.6053 122.249 56.9719 122.969 57.7053C123.689 58.4253 124.049 59.4719 124.049 60.8453V66.6653H122.169L121.989 65.4453H121.929C121.409 65.8453 120.829 66.1919 120.189 66.4853C119.563 66.7653 118.916 66.9053 118.249 66.9053C117.769 66.9053 117.329 66.8319 116.929 66.6853C116.529 66.5519 116.183 66.3586 115.889 66.1053C115.596 65.8519 115.369 65.5519 115.209 65.2053C115.049 64.8453 114.969 64.4519 114.969 64.0253ZM117.189 63.8453C117.189 64.2853 117.356 64.6053 117.689 64.8053C118.036 65.0053 118.456 65.1053 118.949 65.1053C119.443 65.1053 119.916 64.9986 120.369 64.7853C120.836 64.5586 121.296 64.2653 121.749 63.9053V61.8253C120.869 61.8919 120.136 61.9853 119.549 62.1053C118.963 62.2119 118.496 62.3519 118.149 62.5253C117.803 62.6986 117.556 62.8986 117.409 63.1253C117.263 63.3386 117.189 63.5786 117.189 63.8453ZM126.602 61.7653C126.602 60.9653 126.722 60.2453 126.962 59.6053C127.202 58.9653 127.522 58.4253 127.922 57.9853C128.335 57.5453 128.802 57.2053 129.322 56.9653C129.842 56.7253 130.382 56.6053 130.942 56.6053C131.528 56.6053 132.028 56.7119 132.442 56.9253C132.868 57.1253 133.282 57.4053 133.682 57.7653L133.582 56.1053V52.5453H135.902V66.6653H134.002L133.822 65.5253H133.762C133.375 65.9119 132.922 66.2386 132.402 66.5053C131.895 66.7719 131.362 66.9053 130.802 66.9053C130.175 66.9053 129.602 66.7919 129.082 66.5653C128.562 66.3253 128.115 65.9853 127.742 65.5453C127.382 65.1053 127.102 64.5719 126.902 63.9453C126.702 63.3053 126.602 62.5786 126.602 61.7653ZM128.982 61.7453C128.982 62.8119 129.188 63.6253 129.602 64.1853C130.015 64.7319 130.602 65.0053 131.362 65.0053C132.175 65.0053 132.915 64.6119 133.582 63.8253V59.4053C133.235 59.0719 132.888 58.8386 132.542 58.7053C132.195 58.5719 131.842 58.5053 131.482 58.5053C131.135 58.5053 130.808 58.5786 130.502 58.7253C130.208 58.8719 129.948 59.0853 129.722 59.3653C129.495 59.6319 129.315 59.9653 129.182 60.3653C129.048 60.7653 128.982 61.2253 128.982 61.7453ZM138.594 61.7653C138.594 60.9653 138.714 60.2453 138.954 59.6053C139.194 58.9653 139.514 58.4253 139.914 57.9853C140.327 57.5453 140.794 57.2053 141.314 56.9653C141.834 56.7253 142.374 56.6053 142.934 56.6053C143.52 56.6053 144.02 56.7119 144.434 56.9253C144.86 57.1253 145.274 57.4053 145.674 57.7653L145.574 56.1053V52.5453H147.894V66.6653H145.994L145.814 65.5253H145.754C145.367 65.9119 144.914 66.2386 144.394 66.5053C143.887 66.7719 143.354 66.9053 142.794 66.9053C142.167 66.9053 141.594 66.7919 141.074 66.5653C140.554 66.3253 140.107 65.9853 139.734 65.5453C139.374 65.1053 139.094 64.5719 138.894 63.9453C138.694 63.3053 138.594 62.5786 138.594 61.7653ZM140.974 61.7453C140.974 62.8119 141.18 63.6253 141.594 64.1853C142.007 64.7319 142.594 65.0053 143.354 65.0053C144.167 65.0053 144.907 64.6119 145.574 63.8253V59.4053C145.227 59.0719 144.88 58.8386 144.534 58.7053C144.187 58.5719 143.834 58.5053 143.474 58.5053C143.127 58.5053 142.8 58.5786 142.494 58.7253C142.2 58.8719 141.94 59.0853 141.714 59.3653C141.487 59.6319 141.307 59.9653 141.174 60.3653C141.04 60.7653 140.974 61.2253 140.974 61.7453Z" fill="#9B51E0"/>
<path d="M166.098 61.5653L162.778 56.8453H165.278L166.558 58.7053C166.718 58.9719 166.892 59.2519 167.078 59.5453C167.265 59.8253 167.452 60.1053 167.638 60.3853H167.718C167.865 60.1053 168.025 59.8186 168.198 59.5253C168.372 59.2319 168.532 58.9519 168.678 58.6853L169.838 56.8453H172.258L168.918 61.8053L172.498 66.6653H169.998L168.578 64.7253C168.392 64.4586 168.192 64.1719 167.978 63.8653C167.778 63.5586 167.578 63.2653 167.378 62.9853H167.298C167.112 63.2786 166.932 63.5719 166.758 63.8653C166.598 64.1453 166.425 64.4386 166.238 64.7453L164.958 66.6653H162.538L166.098 61.5653ZM177.29 69.5853C178.984 68.9053 179.837 67.8786 179.85 66.5053C179.784 66.5186 179.69 66.5253 179.57 66.5253C179.064 66.5253 178.624 66.3786 178.25 66.0853C177.877 65.7786 177.69 65.3319 177.69 64.7453C177.69 64.1853 177.877 63.7519 178.25 63.4453C178.637 63.1253 179.09 62.9653 179.61 62.9653C180.33 62.9653 180.87 63.2319 181.23 63.7653C181.59 64.2986 181.77 65.0319 181.77 65.9653C181.77 67.1919 181.437 68.2253 180.77 69.0653C180.104 69.9186 179.144 70.552 177.89 70.9653L177.29 69.5853ZM199.275 68.7053C199.408 68.7453 199.541 68.7786 199.675 68.8053C199.808 68.8319 199.948 68.8453 200.095 68.8453C200.721 68.8453 201.221 68.6853 201.595 68.3653C201.968 68.0586 202.255 67.6586 202.455 67.1653L202.695 66.5453L198.295 56.8453H200.595L202.615 61.6653C202.801 62.1053 202.981 62.5719 203.155 63.0653C203.328 63.5586 203.508 64.0519 203.695 64.5453H203.775C203.921 64.0786 204.081 63.5986 204.255 63.1053C204.428 62.6119 204.595 62.1319 204.755 61.6653L206.535 56.8453H208.715L204.615 67.1053C204.401 67.6653 204.161 68.1653 203.895 68.6053C203.641 69.0453 203.341 69.4186 202.995 69.7253C202.648 70.0453 202.248 70.2853 201.795 70.4453C201.341 70.6186 200.821 70.7053 200.235 70.7053C199.968 70.7053 199.715 70.6853 199.475 70.6453C199.235 70.6186 199.021 70.572 198.835 70.5053L199.275 68.7053Z" fill="#009E73"/>
<path d="M202.075 86.5653L198.755 81.8453H201.255L202.535 83.7053C202.695 83.9719 202.868 84.2519 203.055 84.5453C203.241 84.8253 203.428 85.1053 203.615 85.3853H203.695C203.841 85.1053 204.001 84.8186 204.175 84.5253C204.348 84.2319 204.508 83.9519 204.655 83.6853L205.815 81.8453H208.235L204.895 86.8053L208.475 91.6653H205.975L204.555 89.7253C204.368 89.4586 204.168 89.1719 203.955 88.8653C203.755 88.5586 203.555 88.2653 203.355 87.9853H203.275C203.088 88.2786 202.908 88.5719 202.735 88.8653C202.575 89.1453 202.401 89.4386 202.215 89.7453L200.935 91.6653H198.515L202.075 86.5653ZM226.599 85.9053H223.039V84.2253H226.599V80.4453H228.359V84.2253H231.919V85.9053H228.359V89.6853H226.599V85.9053ZM247.244 93.7053C247.377 93.7453 247.51 93.7786 247.644 93.8053C247.777 93.8319 247.917 93.8453 248.064 93.8453C248.69 93.8453 249.19 93.6853 249.564 93.3653C249.937 93.0586 250.224 92.6586 250.424 92.1653L250.664 91.5453L246.264 81.8453H248.564L250.584 86.6653C250.77 87.1053 250.95 87.5719 251.124 88.0653C251.297 88.5586 251.477 89.0519 251.664 89.5453H251.744C251.89 89.0786 252.05 88.5986 252.224 88.1053C252.397 87.6119 252.564 87.1319 252.724 86.6653L254.504 81.8453H256.684L252.584 92.1053C252.37 92.6653 252.13 93.1653 251.864 93.6053C251.61 94.0453 251.31 94.4186 250.964 94.7253C250.617 95.0453 250.217 95.2853 249.764 95.4453C249.31 95.6186 248.79 95.7053 248.204 95.7053C247.937 95.7053 247.684 95.6853 247.444 95.6453C247.204 95.6186 246.99 95.572 246.804 95.5053L247.244 93.7053Z" fill="#EB5757"/>
<path d="M184.041 12.9902L183.171 18H181.519L183.742 5.20312L188.014 5.21191C189.332 5.21191 190.349 5.56348 191.063 6.2666C191.778 6.96387 192.086 7.89258 191.986 9.05273C191.881 10.2773 191.392 11.2412 190.519 11.9443C189.651 12.6475 188.506 12.999 187.082 12.999L184.041 12.9902ZM184.278 11.6104L187.126 11.6191C188.022 11.6191 188.758 11.3936 189.332 10.9424C189.906 10.4912 190.243 9.86426 190.343 9.06152C190.437 8.34082 190.287 7.75781 189.895 7.3125C189.502 6.86133 188.931 6.62402 188.181 6.60059L185.148 6.5918L184.278 11.6104ZM198.095 18C198.054 17.8301 198.033 17.6631 198.033 17.499L198.06 16.998C197.187 17.8066 196.261 18.1992 195.282 18.1758C194.444 18.1641 193.762 17.9004 193.234 17.3848C192.713 16.8633 192.476 16.2129 192.522 15.4336C192.581 14.4258 193.021 13.6406 193.841 13.0781C194.667 12.5098 195.751 12.2256 197.093 12.2256L198.754 12.2344L198.859 11.4785C198.918 10.9102 198.807 10.4619 198.525 10.1338C198.25 9.7998 197.834 9.62695 197.277 9.61523C196.732 9.60352 196.249 9.73828 195.827 10.0195C195.411 10.2949 195.156 10.6611 195.062 11.1182L193.463 11.127C193.516 10.5703 193.732 10.0781 194.113 9.65039C194.494 9.2168 194.983 8.88281 195.581 8.64844C196.179 8.4082 196.797 8.29395 197.436 8.30566C198.426 8.3291 199.196 8.63086 199.747 9.21094C200.298 9.78516 200.529 10.5498 200.441 11.5049L199.668 16.2158L199.624 16.8926C199.612 17.2148 199.647 17.5342 199.729 17.8506L199.712 18H198.095ZM195.599 16.7695C196.108 16.7812 196.589 16.6611 197.04 16.4092C197.497 16.1514 197.89 15.7969 198.218 15.3457L198.561 13.3857L197.356 13.377C196.354 13.377 195.587 13.5352 195.054 13.8516C194.521 14.168 194.219 14.6162 194.148 15.1963C194.096 15.6416 194.198 16.0137 194.456 16.3125C194.72 16.6055 195.101 16.7578 195.599 16.7695ZM207.789 9.94043L207.042 9.86133C206.022 9.86133 205.22 10.3213 204.634 11.2412L203.465 18H201.874L203.526 8.49023L205.064 8.48145L204.827 9.58887C205.501 8.7041 206.295 8.27344 207.209 8.29688C207.402 8.29688 207.654 8.34082 207.965 8.42871L207.789 9.94043ZM213.335 18C213.294 17.8301 213.273 17.6631 213.273 17.499L213.3 16.998C212.427 17.8066 211.501 18.1992 210.522 18.1758C209.685 18.1641 209.002 17.9004 208.475 17.3848C207.953 16.8633 207.716 16.2129 207.763 15.4336C207.821 14.4258 208.261 13.6406 209.081 13.0781C209.907 12.5098 210.991 12.2256 212.333 12.2256L213.994 12.2344L214.1 11.4785C214.158 10.9102 214.047 10.4619 213.766 10.1338C213.49 9.7998 213.074 9.62695 212.518 9.61523C211.973 9.60352 211.489 9.73828 211.067 10.0195C210.651 10.2949 210.396 10.6611 210.303 11.1182L208.703 11.127C208.756 10.5703 208.973 10.0781 209.354 9.65039C209.734 9.2168 210.224 8.88281 210.821 8.64844C211.419 8.4082 212.037 8.29395 212.676 8.30566C213.666 8.3291 214.437 8.63086 214.987 9.21094C215.538 9.78516 215.77 10.5498 215.682 11.5049L214.908 16.2158L214.864 16.8926C214.853 17.2148 214.888 17.5342 214.97 17.8506L214.952 18H213.335ZM210.839 16.7695C211.349 16.7812 211.829 16.6611 212.28 16.4092C212.737 16.1514 213.13 15.7969 213.458 15.3457L213.801 13.3857L212.597 13.377C211.595 13.377 210.827 13.5352 210.294 13.8516C209.761 14.168 209.459 14.6162 209.389 15.1963C209.336 15.6416 209.438 16.0137 209.696 16.3125C209.96 16.6055 210.341 16.7578 210.839 16.7695ZM220.252 8.48145L220.05 9.54492C220.847 8.70117 221.811 8.29102 222.941 8.31445C223.545 8.32617 224.055 8.46387 224.471 8.72754C224.893 8.99121 225.183 9.36328 225.341 9.84375C226.231 8.80078 227.283 8.29102 228.496 8.31445C229.445 8.33789 230.146 8.65723 230.597 9.27246C231.048 9.8877 231.215 10.7139 231.098 11.751L230.052 18H228.47L229.507 11.7334C229.542 11.4287 229.542 11.1504 229.507 10.8984C229.396 10.1016 228.874 9.69434 227.942 9.67676C227.362 9.66504 226.835 9.84668 226.36 10.2217C225.892 10.5908 225.59 11.0771 225.455 11.6807L224.374 18H222.774L223.829 11.7422C223.905 11.0918 223.806 10.5908 223.53 10.2393C223.261 9.8877 222.839 9.70605 222.265 9.69434C221.274 9.6709 220.486 10.1221 219.9 11.0479L218.696 18H217.105L218.758 8.49023L220.252 8.48145ZM236.626 18.1758C235.442 18.1523 234.517 17.7158 233.849 16.8662C233.181 16.0166 232.899 14.9297 233.005 13.6055L233.049 13.2275C233.148 12.2842 233.427 11.4229 233.884 10.6436C234.347 9.86426 234.909 9.27832 235.571 8.88574C236.233 8.4873 236.948 8.29688 237.716 8.31445C238.694 8.33789 239.462 8.66309 240.019 9.29004C240.575 9.91699 240.88 10.7666 240.933 11.8389C240.95 12.2197 240.938 12.6006 240.897 12.9814L240.801 13.7109H234.587C234.481 14.5723 234.622 15.3047 235.009 15.9082C235.401 16.5117 235.984 16.8252 236.758 16.8486C237.695 16.8721 238.562 16.4502 239.359 15.583L240.273 16.3564C239.875 16.9307 239.359 17.3818 238.727 17.71C238.1 18.0322 237.399 18.1875 236.626 18.1758ZM237.637 9.6416C236.98 9.62402 236.406 9.84668 235.914 10.3096C235.428 10.7725 235.041 11.4609 234.754 12.375L239.377 12.3838L239.412 12.2432C239.506 11.5049 239.386 10.8926 239.052 10.4062C238.724 9.91406 238.252 9.65918 237.637 9.6416ZM246.048 6.1875L245.644 8.49023H247.375L247.155 9.74707H245.433L244.439 15.6621C244.422 15.8145 244.419 15.9551 244.431 16.084C244.472 16.541 244.721 16.7695 245.178 16.7695C245.371 16.7695 245.629 16.7402 245.951 16.6816L245.828 18.0088C245.447 18.1143 245.061 18.167 244.668 18.167C244.035 18.1553 243.561 17.9238 243.244 17.4727C242.928 17.0156 242.805 16.4033 242.875 15.6357L243.842 9.74707H242.163L242.383 8.49023H244.062L244.466 6.1875H246.048ZM251.761 18.1758C250.577 18.1523 249.651 17.7158 248.983 16.8662C248.315 16.0166 248.034 14.9297 248.14 13.6055L248.184 13.2275C248.283 12.2842 248.562 11.4229 249.019 10.6436C249.481 9.86426 250.044 9.27832 250.706 8.88574C251.368 8.4873 252.083 8.29688 252.851 8.31445C253.829 8.33789 254.597 8.66309 255.153 9.29004C255.71 9.91699 256.015 10.7666 256.067 11.8389C256.085 12.2197 256.073 12.6006 256.032 12.9814L255.936 13.7109H249.722C249.616 14.5723 249.757 15.3047 250.144 15.9082C250.536 16.5117 251.119 16.8252 251.893 16.8486C252.83 16.8721 253.697 16.4502 254.494 15.583L255.408 16.3564C255.01 16.9307 254.494 17.3818 253.861 17.71C253.234 18.0322 252.534 18.1875 251.761 18.1758ZM252.771 9.6416C252.115 9.62402 251.541 9.84668 251.049 10.3096C250.562 10.7725 250.176 11.4609 249.889 12.375L254.512 12.3838L254.547 12.2432C254.641 11.5049 254.521 10.8926 254.187 10.4062C253.858 9.91406 253.387 9.65918 252.771 9.6416ZM262.896 9.94043L262.149 9.86133C261.13 9.86133 260.327 10.3213 259.741 11.2412L258.572 18H256.981L258.634 8.49023L260.172 8.48145L259.935 9.58887C260.608 8.7041 261.402 8.27344 262.316 8.29688C262.51 8.29688 262.762 8.34082 263.072 8.42871L262.896 9.94043ZM268.864 15.4248C268.952 14.7686 268.592 14.3057 267.783 14.0361L266.131 13.5527C264.736 13.0723 264.062 12.2754 264.109 11.1621C264.15 10.3242 264.531 9.63867 265.252 9.10547C265.979 8.56641 266.831 8.30273 267.81 8.31445C268.771 8.32617 269.55 8.60742 270.147 9.1582C270.751 9.70312 271.041 10.415 271.018 11.2939L269.436 11.2852C269.447 10.8105 269.298 10.4238 268.987 10.125C268.677 9.82617 268.264 9.6709 267.748 9.65918C267.197 9.64746 266.723 9.78223 266.324 10.0635C265.955 10.3271 265.741 10.6729 265.683 11.1006C265.606 11.6514 265.943 12.0527 266.693 12.3047L267.493 12.5244C268.583 12.8057 269.356 13.1719 269.813 13.623C270.271 14.0742 270.481 14.6338 270.446 15.3018C270.411 15.8936 270.218 16.4092 269.866 16.8486C269.515 17.2881 269.046 17.625 268.46 17.8594C267.874 18.0879 267.25 18.1934 266.588 18.1758C265.58 18.1641 264.748 17.8711 264.092 17.2969C263.436 16.7168 263.119 15.9727 263.143 15.0645L264.733 15.0732C264.733 15.6064 264.903 16.0342 265.243 16.3564C265.583 16.6787 266.049 16.8398 266.641 16.8398C267.221 16.8516 267.722 16.7314 268.144 16.4795C268.565 16.2217 268.806 15.8701 268.864 15.4248Z" fill="black"/>
<path d="M181.083 152.592H177.102L175.124 164H173.48L175.458 152.592H171.477L171.723 151.203H181.329L181.083 152.592ZM186.031 155.94L185.284 155.861C184.265 155.861 183.462 156.321 182.876 157.241L181.707 164H180.116L181.769 154.49L183.307 154.481L183.069 155.589C183.743 154.704 184.537 154.273 185.451 154.297C185.645 154.297 185.896 154.341 186.207 154.429L186.031 155.94ZM191.577 164C191.536 163.83 191.516 163.663 191.516 163.499L191.542 162.998C190.669 163.807 189.743 164.199 188.765 164.176C187.927 164.164 187.244 163.9 186.717 163.385C186.195 162.863 185.958 162.213 186.005 161.434C186.063 160.426 186.503 159.641 187.323 159.078C188.149 158.51 189.233 158.226 190.575 158.226L192.236 158.234L192.342 157.479C192.4 156.91 192.289 156.462 192.008 156.134C191.732 155.8 191.316 155.627 190.76 155.615C190.215 155.604 189.731 155.738 189.31 156.02C188.894 156.295 188.639 156.661 188.545 157.118L186.945 157.127C186.998 156.57 187.215 156.078 187.596 155.65C187.977 155.217 188.466 154.883 189.063 154.648C189.661 154.408 190.279 154.294 190.918 154.306C191.908 154.329 192.679 154.631 193.229 155.211C193.78 155.785 194.012 156.55 193.924 157.505L193.15 162.216L193.106 162.893C193.095 163.215 193.13 163.534 193.212 163.851L193.194 164H191.577ZM189.081 162.77C189.591 162.781 190.071 162.661 190.522 162.409C190.979 162.151 191.372 161.797 191.7 161.346L192.043 159.386L190.839 159.377C189.837 159.377 189.069 159.535 188.536 159.852C188.003 160.168 187.701 160.616 187.631 161.196C187.578 161.642 187.681 162.014 187.938 162.312C188.202 162.605 188.583 162.758 189.081 162.77ZM198.512 154.481L198.283 155.686C199.139 154.748 200.111 154.291 201.201 154.314C202.098 154.338 202.76 154.648 203.188 155.246C203.615 155.844 203.773 156.685 203.662 157.769L202.625 164H201.034L202.08 157.742C202.115 157.455 202.118 157.188 202.089 156.942C201.989 156.122 201.506 155.703 200.639 155.686C199.684 155.668 198.846 156.178 198.125 157.215L196.947 164H195.356L197.009 154.49L198.512 154.481ZM210.966 161.425C211.054 160.769 210.693 160.306 209.885 160.036L208.232 159.553C206.838 159.072 206.164 158.275 206.211 157.162C206.252 156.324 206.633 155.639 207.354 155.105C208.08 154.566 208.933 154.303 209.911 154.314C210.872 154.326 211.651 154.607 212.249 155.158C212.853 155.703 213.143 156.415 213.119 157.294L211.537 157.285C211.549 156.811 211.399 156.424 211.089 156.125C210.778 155.826 210.365 155.671 209.85 155.659C209.299 155.647 208.824 155.782 208.426 156.063C208.057 156.327 207.843 156.673 207.784 157.101C207.708 157.651 208.045 158.053 208.795 158.305L209.595 158.524C210.685 158.806 211.458 159.172 211.915 159.623C212.372 160.074 212.583 160.634 212.548 161.302C212.513 161.894 212.319 162.409 211.968 162.849C211.616 163.288 211.147 163.625 210.562 163.859C209.976 164.088 209.352 164.193 208.689 164.176C207.682 164.164 206.85 163.871 206.193 163.297C205.537 162.717 205.221 161.973 205.244 161.064L206.835 161.073C206.835 161.606 207.005 162.034 207.345 162.356C207.685 162.679 208.15 162.84 208.742 162.84C209.322 162.852 209.823 162.731 210.245 162.479C210.667 162.222 210.907 161.87 210.966 161.425ZM214.938 164L216.38 155.747H214.912L215.132 154.49H216.591L216.749 153.365C216.901 152.41 217.271 151.663 217.856 151.124C218.472 150.562 219.257 150.286 220.212 150.298C220.511 150.298 220.889 150.348 221.346 150.447L221.152 151.774C220.871 151.716 220.587 151.681 220.3 151.669C219.749 151.669 219.301 151.842 218.955 152.188C218.615 152.527 218.404 152.981 218.322 153.55L218.182 154.49H220.15L219.931 155.747H217.962L216.529 164H214.938ZM225.6 154.314C226.396 154.326 227.079 154.543 227.647 154.965C228.216 155.387 228.635 155.97 228.904 156.714C229.18 157.452 229.273 158.261 229.186 159.14L229.168 159.333C229.057 160.259 228.781 161.097 228.342 161.847C227.902 162.591 227.334 163.171 226.637 163.587C225.939 164.003 225.175 164.199 224.343 164.176C223.552 164.164 222.869 163.947 222.295 163.525C221.727 163.104 221.311 162.529 221.047 161.803C220.783 161.076 220.689 160.276 220.766 159.403C220.854 158.419 221.12 157.534 221.565 156.749C222.011 155.964 222.582 155.357 223.279 154.93C223.982 154.496 224.756 154.291 225.6 154.314ZM222.365 159.412C222.324 159.781 222.324 160.165 222.365 160.563C222.424 161.255 222.629 161.806 222.98 162.216C223.338 162.626 223.812 162.84 224.404 162.857C224.932 162.875 225.418 162.746 225.863 162.471C226.309 162.189 226.684 161.768 226.988 161.205C227.293 160.643 227.489 160.019 227.577 159.333C227.624 158.794 227.633 158.34 227.604 157.971C227.533 157.262 227.319 156.702 226.962 156.292C226.604 155.882 226.13 155.665 225.538 155.642C224.718 155.624 224.021 155.946 223.446 156.608C222.872 157.271 222.518 158.138 222.383 159.21L222.365 159.412ZM236.287 155.94L235.54 155.861C234.521 155.861 233.718 156.321 233.132 157.241L231.963 164H230.372L232.024 154.49L233.562 154.481L233.325 155.589C233.999 154.704 234.793 154.273 235.707 154.297C235.9 154.297 236.152 154.341 236.463 154.429L236.287 155.94ZM239.504 154.481L239.302 155.545C240.099 154.701 241.062 154.291 242.193 154.314C242.797 154.326 243.307 154.464 243.723 154.728C244.145 154.991 244.435 155.363 244.593 155.844C245.483 154.801 246.535 154.291 247.748 154.314C248.697 154.338 249.397 154.657 249.849 155.272C250.3 155.888 250.467 156.714 250.35 157.751L249.304 164H247.722L248.759 157.733C248.794 157.429 248.794 157.15 248.759 156.898C248.647 156.102 248.126 155.694 247.194 155.677C246.614 155.665 246.087 155.847 245.612 156.222C245.144 156.591 244.842 157.077 244.707 157.681L243.626 164H242.026L243.081 157.742C243.157 157.092 243.058 156.591 242.782 156.239C242.513 155.888 242.091 155.706 241.517 155.694C240.526 155.671 239.738 156.122 239.152 157.048L237.948 164H236.357L238.01 154.49L239.504 154.481ZM257.583 164C257.542 163.83 257.521 163.663 257.521 163.499L257.548 162.998C256.675 163.807 255.749 164.199 254.771 164.176C253.933 164.164 253.25 163.9 252.723 163.385C252.201 162.863 251.964 162.213 252.011 161.434C252.069 160.426 252.509 159.641 253.329 159.078C254.155 158.51 255.239 158.226 256.581 158.226L258.242 158.234L258.348 157.479C258.406 156.91 258.295 156.462 258.014 156.134C257.738 155.8 257.322 155.627 256.766 155.615C256.221 155.604 255.737 155.738 255.315 156.02C254.899 156.295 254.645 156.661 254.551 157.118L252.951 157.127C253.004 156.57 253.221 156.078 253.602 155.65C253.982 155.217 254.472 154.883 255.069 154.648C255.667 154.408 256.285 154.294 256.924 154.306C257.914 154.329 258.685 154.631 259.235 155.211C259.786 155.785 260.018 156.55 259.93 157.505L259.156 162.216L259.112 162.893C259.101 163.215 259.136 163.534 259.218 163.851L259.2 164H257.583ZM255.087 162.77C255.597 162.781 256.077 162.661 256.528 162.409C256.985 162.151 257.378 161.797 257.706 161.346L258.049 159.386L256.845 159.377C255.843 159.377 255.075 159.535 254.542 159.852C254.009 160.168 253.707 160.616 253.637 161.196C253.584 161.642 253.687 162.014 253.944 162.312C254.208 162.605 254.589 162.758 255.087 162.77ZM265.563 152.188L265.159 154.49H266.891L266.671 155.747H264.948L263.955 161.662C263.938 161.814 263.935 161.955 263.946 162.084C263.987 162.541 264.236 162.77 264.693 162.77C264.887 162.77 265.145 162.74 265.467 162.682L265.344 164.009C264.963 164.114 264.576 164.167 264.184 164.167C263.551 164.155 263.076 163.924 262.76 163.473C262.443 163.016 262.32 162.403 262.391 161.636L263.357 155.747H261.679L261.898 154.49H263.577L263.981 152.188H265.563ZM268.886 164H267.304L268.956 154.49H270.538L268.886 164ZM270.195 151.019C270.465 151.007 270.688 151.089 270.863 151.265C271.045 151.435 271.136 151.66 271.136 151.941C271.13 152.217 271.039 152.442 270.863 152.618C270.693 152.794 270.471 152.888 270.195 152.899C269.92 152.911 269.694 152.832 269.519 152.662C269.343 152.492 269.258 152.27 269.264 151.994C269.27 151.719 269.357 151.49 269.527 151.309C269.697 151.127 269.92 151.03 270.195 151.019ZM276.77 154.314C277.566 154.326 278.249 154.543 278.817 154.965C279.386 155.387 279.805 155.97 280.074 156.714C280.35 157.452 280.443 158.261 280.355 159.14L280.338 159.333C280.227 160.259 279.951 161.097 279.512 161.847C279.072 162.591 278.504 163.171 277.807 163.587C277.109 164.003 276.345 164.199 275.513 164.176C274.722 164.164 274.039 163.947 273.465 163.525C272.896 163.104 272.48 162.529 272.217 161.803C271.953 161.076 271.859 160.276 271.936 159.403C272.023 158.419 272.29 157.534 272.735 156.749C273.181 155.964 273.752 155.357 274.449 154.93C275.152 154.496 275.926 154.291 276.77 154.314ZM273.535 159.412C273.494 159.781 273.494 160.165 273.535 160.563C273.594 161.255 273.799 161.806 274.15 162.216C274.508 162.626 274.982 162.84 275.574 162.857C276.102 162.875 276.588 162.746 277.033 162.471C277.479 162.189 277.854 161.768 278.158 161.205C278.463 160.643 278.659 160.019 278.747 159.333C278.794 158.794 278.803 158.34 278.773 157.971C278.703 157.262 278.489 156.702 278.132 156.292C277.774 155.882 277.3 155.665 276.708 155.642C275.888 155.624 275.19 155.946 274.616 156.608C274.042 157.271 273.688 158.138 273.553 159.21L273.535 159.412ZM284.697 154.481L284.469 155.686C285.324 154.748 286.297 154.291 287.387 154.314C288.283 154.338 288.945 154.648 289.373 155.246C289.801 155.844 289.959 156.685 289.848 157.769L288.811 164H287.22L288.266 157.742C288.301 157.455 288.304 157.188 288.274 156.942C288.175 156.122 287.691 155.703 286.824 155.686C285.869 155.668 285.031 156.178 284.311 157.215L283.133 164H281.542L283.194 154.49L284.697 154.481Z" fill="black"/>
<path d="M257 97.7329L195.5 97.7329" stroke="#EB5757" stroke-width="2"/>
<line x1="229.909" y1="149" x2="229.909" y2="98" stroke="#EB5757" stroke-width="2"/>
<path d="M209 51.6443L162 51.6443" stroke="#009E73" stroke-width="2"/>
<line y1="-1" x2="29.5069" y2="-1" transform="matrix(0.0338904 0.999425 1 0 197.061 22)" stroke="#009E73" stroke-width="2"/>
<path d="M38.3584 12.3486H33.1553L32.1709 18H30.5186L32.7422 5.20312H40.4414L40.1953 6.5918H34.1484L33.3926 10.9688H38.6045L38.3584 12.3486ZM45.8555 17.0596C45.1113 17.8271 44.165 18.1992 43.0166 18.1758C42.1084 18.1523 41.4346 17.8271 40.9951 17.2002C40.5615 16.5732 40.4004 15.7178 40.5117 14.6338L41.5312 8.49023H43.1221L42.0938 14.6602C42.0645 14.918 42.0586 15.1699 42.0762 15.416C42.1055 15.8379 42.2314 16.1689 42.4541 16.4092C42.6768 16.6494 42.9873 16.7783 43.3857 16.7959C44.5225 16.8311 45.4014 16.3711 46.0225 15.416L47.2178 8.49023H48.8086L47.1562 18H45.6533L45.8555 17.0596ZM52.6934 8.48145L52.4648 9.68555C53.3203 8.74805 54.293 8.29102 55.3828 8.31445C56.2793 8.33789 56.9414 8.64844 57.3691 9.24609C57.7969 9.84375 57.9551 10.6846 57.8438 11.7686L56.8066 18H55.2158L56.2617 11.7422C56.2969 11.4551 56.2998 11.1885 56.2705 10.9424C56.1709 10.1221 55.6875 9.70312 54.8203 9.68555C53.8652 9.66797 53.0273 10.1777 52.3066 11.2148L51.1289 18H49.5381L51.1904 8.49023L52.6934 8.48145ZM63.2754 16.8574C63.8438 16.8691 64.3564 16.7051 64.8135 16.3652C65.2705 16.0195 65.5693 15.5684 65.71 15.0117L67.2129 15.0029C67.125 15.6006 66.8848 16.1455 66.4922 16.6377C66.1055 17.1299 65.6162 17.5137 65.0244 17.7891C64.4326 18.0645 63.8262 18.1934 63.2051 18.1758C62.4141 18.1641 61.7432 17.959 61.1924 17.5605C60.6475 17.1562 60.2461 16.5967 59.9883 15.8818C59.7305 15.1611 59.6426 14.3525 59.7246 13.4561L59.7686 13.0166C59.8799 12.1025 60.1465 11.2852 60.5684 10.5645C60.9902 9.84375 61.541 9.28418 62.2207 8.88574C62.9004 8.48145 63.6504 8.29102 64.4707 8.31445C65.4668 8.33789 66.2637 8.67188 66.8613 9.31641C67.459 9.96094 67.7578 10.7783 67.7578 11.7686L66.2725 11.7598C66.2607 11.1387 66.0879 10.6377 65.7539 10.2568C65.4199 9.87012 64.9688 9.66504 64.4004 9.6416C63.5742 9.62402 62.8857 9.93164 62.335 10.5645C61.79 11.1973 61.4502 12.082 61.3154 13.2188L61.2891 13.4473C61.2539 13.8223 61.248 14.209 61.2715 14.6074C61.3125 15.293 61.5059 15.835 61.8516 16.2334C62.1973 16.6318 62.6719 16.8398 63.2754 16.8574ZM72.6885 6.1875L72.2842 8.49023H74.0156L73.7959 9.74707H72.0732L71.0801 15.6621C71.0625 15.8145 71.0596 15.9551 71.0713 16.084C71.1123 16.541 71.3613 16.7695 71.8184 16.7695C72.0117 16.7695 72.2695 16.7402 72.5918 16.6816L72.4688 18.0088C72.0879 18.1143 71.7012 18.167 71.3086 18.167C70.6758 18.1553 70.2012 17.9238 69.8848 17.4727C69.5684 17.0156 69.4453 16.4033 69.5156 15.6357L70.4824 9.74707H68.8037L69.0234 8.49023H70.7021L71.1064 6.1875H72.6885ZM76.0107 18H74.4287L76.0811 8.49023H77.6631L76.0107 18ZM77.3203 5.01855C77.5898 5.00684 77.8125 5.08887 77.9883 5.26465C78.1699 5.43457 78.2607 5.66016 78.2607 5.94141C78.2549 6.2168 78.1641 6.44238 77.9883 6.61816C77.8184 6.79395 77.5957 6.8877 77.3203 6.89941C77.0449 6.91113 76.8193 6.83203 76.6436 6.66211C76.4678 6.49219 76.3828 6.26953 76.3887 5.99414C76.3945 5.71875 76.4824 5.49023 76.6523 5.30859C76.8223 5.12695 77.0449 5.03027 77.3203 5.01855ZM83.8945 8.31445C84.6914 8.32617 85.374 8.54297 85.9424 8.96484C86.5107 9.38672 86.9297 9.96973 87.1992 10.7139C87.4746 11.4521 87.5684 12.2607 87.4805 13.1396L87.4629 13.333C87.3516 14.2588 87.0762 15.0967 86.6367 15.8467C86.1973 16.5908 85.6289 17.1709 84.9316 17.5869C84.2344 18.0029 83.4697 18.1992 82.6377 18.1758C81.8467 18.1641 81.1641 17.9473 80.5898 17.5254C80.0215 17.1035 79.6055 16.5293 79.3418 15.8027C79.0781 15.0762 78.9844 14.2764 79.0605 13.4033C79.1484 12.4189 79.415 11.5342 79.8604 10.749C80.3057 9.96387 80.877 9.35742 81.5742 8.92969C82.2773 8.49609 83.0508 8.29102 83.8945 8.31445ZM80.6602 13.4121C80.6191 13.7812 80.6191 14.165 80.6602 14.5635C80.7188 15.2549 80.9238 15.8057 81.2754 16.2158C81.6328 16.626 82.1074 16.8398 82.6992 16.8574C83.2266 16.875 83.7129 16.7461 84.1582 16.4707C84.6035 16.1895 84.9785 15.7676 85.2832 15.2051C85.5879 14.6426 85.7842 14.0186 85.8721 13.333C85.9189 12.7939 85.9277 12.3398 85.8984 11.9707C85.8281 11.2617 85.6143 10.7021 85.2568 10.292C84.8994 9.88184 84.4248 9.66504 83.833 9.6416C83.0127 9.62402 82.3154 9.94629 81.7412 10.6084C81.167 11.2705 80.8125 12.1377 80.6777 13.21L80.6602 13.4121ZM91.8223 8.48145L91.5938 9.68555C92.4492 8.74805 93.4219 8.29102 94.5117 8.31445C95.4082 8.33789 96.0703 8.64844 96.498 9.24609C96.9258 9.84375 97.084 10.6846 96.9727 11.7686L95.9355 18H94.3447L95.3906 11.7422C95.4258 11.4551 95.4287 11.1885 95.3994 10.9424C95.2998 10.1221 94.8164 9.70312 93.9492 9.68555C92.9941 9.66797 92.1562 10.1777 91.4355 11.2148L90.2578 18H88.667L90.3193 8.49023L91.8223 8.48145ZM112.6 18H111L106.43 8.06836L104.707 18H103.046L105.27 5.20312H106.869L111.448 15.1787L113.18 5.20312H114.823L112.6 18ZM121.151 18C121.11 17.8301 121.09 17.6631 121.09 17.499L121.116 16.998C120.243 17.8066 119.317 18.1992 118.339 18.1758C117.501 18.1641 116.818 17.9004 116.291 17.3848C115.77 16.8633 115.532 16.2129 115.579 15.4336C115.638 14.4258 116.077 13.6406 116.897 13.0781C117.724 12.5098 118.808 12.2256 120.149 12.2256L121.811 12.2344L121.916 11.4785C121.975 10.9102 121.863 10.4619 121.582 10.1338C121.307 9.7998 120.891 9.62695 120.334 9.61523C119.789 9.60352 119.306 9.73828 118.884 10.0195C118.468 10.2949 118.213 10.6611 118.119 11.1182L116.52 11.127C116.572 10.5703 116.789 10.0781 117.17 9.65039C117.551 9.2168 118.04 8.88281 118.638 8.64844C119.235 8.4082 119.854 8.29395 120.492 8.30566C121.482 8.3291 122.253 8.63086 122.804 9.21094C123.354 9.78516 123.586 10.5498 123.498 11.5049L122.725 16.2158L122.681 16.8926C122.669 17.2148 122.704 17.5342 122.786 17.8506L122.769 18H121.151ZM118.655 16.7695C119.165 16.7812 119.646 16.6611 120.097 16.4092C120.554 16.1514 120.946 15.7969 121.274 15.3457L121.617 13.3857L120.413 13.377C119.411 13.377 118.644 13.5352 118.11 13.8516C117.577 14.168 117.275 14.6162 117.205 15.1963C117.152 15.6416 117.255 16.0137 117.513 16.3125C117.776 16.6055 118.157 16.7578 118.655 16.7695ZM128.068 8.48145L127.866 9.54492C128.663 8.70117 129.627 8.29102 130.758 8.31445C131.361 8.32617 131.871 8.46387 132.287 8.72754C132.709 8.99121 132.999 9.36328 133.157 9.84375C134.048 8.80078 135.1 8.29102 136.312 8.31445C137.262 8.33789 137.962 8.65723 138.413 9.27246C138.864 9.8877 139.031 10.7139 138.914 11.751L137.868 18H136.286L137.323 11.7334C137.358 11.4287 137.358 11.1504 137.323 10.8984C137.212 10.1016 136.69 9.69434 135.759 9.67676C135.179 9.66504 134.651 9.84668 134.177 10.2217C133.708 10.5908 133.406 11.0771 133.271 11.6807L132.19 18H130.591L131.646 11.7422C131.722 11.0918 131.622 10.5908 131.347 10.2393C131.077 9.8877 130.655 9.70605 130.081 9.69434C129.091 9.6709 128.303 10.1221 127.717 11.0479L126.513 18H124.922L126.574 8.49023L128.068 8.48145ZM144.442 18.1758C143.259 18.1523 142.333 17.7158 141.665 16.8662C140.997 16.0166 140.716 14.9297 140.821 13.6055L140.865 13.2275C140.965 12.2842 141.243 11.4229 141.7 10.6436C142.163 9.86426 142.726 9.27832 143.388 8.88574C144.05 8.4873 144.765 8.29688 145.532 8.31445C146.511 8.33789 147.278 8.66309 147.835 9.29004C148.392 9.91699 148.696 10.7666 148.749 11.8389C148.767 12.2197 148.755 12.6006 148.714 12.9814L148.617 13.7109H142.403C142.298 14.5723 142.438 15.3047 142.825 15.9082C143.218 16.5117 143.801 16.8252 144.574 16.8486C145.512 16.8721 146.379 16.4502 147.176 15.583L148.09 16.3564C147.691 16.9307 147.176 17.3818 146.543 17.71C145.916 18.0322 145.216 18.1875 144.442 18.1758ZM145.453 9.6416C144.797 9.62402 144.223 9.84668 143.73 10.3096C143.244 10.7725 142.857 11.4609 142.57 12.375L147.193 12.3838L147.229 12.2432C147.322 11.5049 147.202 10.8926 146.868 10.4062C146.54 9.91406 146.068 9.65918 145.453 9.6416Z" fill="black"/>
<path d="M149 50.6562L117 50.6673" stroke="#9B51E0" stroke-width="2"/>
<line y1="-1" x2="28.5244" y2="-1" transform="matrix(0.0350577 0.999385 1 0 132.434 22)" stroke="#9B51E0" stroke-width="2"/>
</svg>
