<svg width="511" height="88" viewBox="0 0 511 88" fill="none" xmlns="http://www.w3.org/2000/svg">
<rect width="511" height="88" fill="white"/>
<path d="M40 2H471V84H40V2Z" fill="#F1F4F8"/>
<path d="M50.3794 16.6655H48.5454V15.4615L50.4494 15.3915L50.6594 13.5155H51.9894V15.3915H55.1254V16.6655H51.9894V19.4935C51.9894 20.0628 52.1061 20.4828 52.3394 20.7535C52.5728 21.0148 52.9834 21.1455 53.5714 21.1455C53.8701 21.1455 54.1408 21.1222 54.3834 21.0755C54.6261 21.0195 54.8594 20.9495 55.0834 20.8655L55.3914 22.0415C55.0834 22.1442 54.7428 22.2328 54.3694 22.3075C53.9961 22.3915 53.5994 22.4335 53.1794 22.4335C52.6568 22.4335 52.2181 22.3635 51.8634 22.2235C51.5088 22.0835 51.2194 21.8875 50.9954 21.6355C50.7808 21.3742 50.6221 21.0615 50.5194 20.6975C50.4261 20.3335 50.3794 19.9322 50.3794 19.4935V16.6655ZM57.29 15.3915H61.882V22.2655H60.272V16.6655H57.29V15.3915ZM60.958 14.1875C60.6313 14.1875 60.356 14.0895 60.132 13.8935C59.9173 13.6975 59.81 13.4362 59.81 13.1095C59.81 12.7828 59.9173 12.5215 60.132 12.3255C60.356 12.1202 60.6313 12.0175 60.958 12.0175C61.294 12.0175 61.5693 12.1202 61.784 12.3255C61.9986 12.5215 62.106 12.7828 62.106 13.1095C62.106 13.4362 61.9986 13.6975 61.784 13.8935C61.5693 14.0895 61.294 14.1875 60.958 14.1875ZM65.1805 15.3915H66.3985L66.5245 16.2735H66.5665C66.7252 15.9748 66.9165 15.7275 67.1405 15.5315C67.3738 15.3262 67.6865 15.2235 68.0785 15.2235C68.7505 15.2235 69.1705 15.6062 69.3385 16.3715C69.4972 16.0448 69.6978 15.7742 69.9405 15.5595C70.1925 15.3355 70.5098 15.2235 70.8925 15.2235C71.3778 15.2235 71.7512 15.4148 72.0125 15.7975C72.2832 16.1708 72.4185 16.7028 72.4185 17.3935V22.2655H70.8925V17.5195C70.8925 16.9128 70.7012 16.6095 70.3185 16.6095C70.1318 16.6095 69.9685 16.6795 69.8285 16.8195C69.6885 16.9595 69.5532 17.1742 69.4225 17.4635V22.2655H68.1625V17.5195C68.1625 16.9128 67.9665 16.6095 67.5745 16.6095C67.3878 16.6095 67.2292 16.6795 67.0985 16.8195C66.9678 16.9595 66.8372 17.1742 66.7065 17.4635V22.2655H65.1805V15.3915ZM73.771 18.8355C73.771 18.2755 73.869 17.7715 74.065 17.3235C74.2703 16.8755 74.5363 16.4975 74.863 16.1895C75.1897 15.8722 75.563 15.6342 75.983 15.4755C76.4123 15.3075 76.851 15.2235 77.299 15.2235C77.8123 15.2235 78.265 15.3075 78.657 15.4755C79.0583 15.6342 79.3943 15.8582 79.665 16.1475C79.9357 16.4275 80.141 16.7682 80.281 17.1695C80.421 17.5708 80.491 18.0095 80.491 18.4855C80.491 18.6442 80.4817 18.7935 80.463 18.9335C80.4537 19.0735 80.4397 19.1855 80.421 19.2695H75.423C75.479 19.8855 75.7217 20.3615 76.151 20.6975C76.5803 21.0242 77.1077 21.1875 77.733 21.1875C78.0877 21.1875 78.419 21.1408 78.727 21.0475C79.035 20.9448 79.3477 20.8048 79.665 20.6275L80.211 21.6355C79.8377 21.8688 79.4223 22.0602 78.965 22.2095C78.5077 22.3588 78.027 22.4335 77.523 22.4335C77.0003 22.4335 76.5103 22.3542 76.053 22.1955C75.5957 22.0275 75.199 21.7895 74.863 21.4815C74.527 21.1735 74.261 20.8002 74.065 20.3615C73.869 19.9135 73.771 19.4048 73.771 18.8355ZM79.007 18.1775C79.007 17.6455 78.867 17.2302 78.587 16.9315C78.307 16.6235 77.8917 16.4695 77.341 16.4695C76.8743 16.4695 76.459 16.6142 76.095 16.9035C75.731 17.1928 75.5023 17.6175 75.409 18.1775H79.007ZM82.9215 20.3475C83.3135 20.6182 83.7195 20.8328 84.1395 20.9915C84.5689 21.1408 85.0495 21.2155 85.5815 21.2155C86.1229 21.2155 86.5195 21.1408 86.7715 20.9915C87.0235 20.8328 87.1495 20.6322 87.1495 20.3895C87.1495 20.1468 86.9862 19.9462 86.6595 19.7875C86.3329 19.6195 85.8195 19.4422 85.1195 19.2555C84.7929 19.1715 84.4755 19.0688 84.1675 18.9475C83.8595 18.8262 83.5889 18.6862 83.3555 18.5275C83.1222 18.3688 82.9355 18.1868 82.7955 17.9815C82.6555 17.7762 82.5855 17.5428 82.5855 17.2815C82.5855 16.6748 82.8469 16.1802 83.3695 15.7975C83.8922 15.4148 84.6435 15.2235 85.6235 15.2235C86.1835 15.2235 86.7109 15.3168 87.2055 15.5035C87.7002 15.6902 88.1249 15.9002 88.4795 16.1335L87.7375 17.1275C87.4295 16.9222 87.0982 16.7588 86.7435 16.6375C86.3982 16.5068 86.0295 16.4415 85.6375 16.4415C85.1055 16.4415 84.7322 16.5162 84.5175 16.6655C84.3029 16.8055 84.1955 16.9828 84.1955 17.1975C84.1955 17.3188 84.2422 17.4308 84.3355 17.5335C84.4382 17.6268 84.5735 17.7155 84.7415 17.7995C84.9189 17.8742 85.1242 17.9488 85.3575 18.0235C85.5909 18.0982 85.8475 18.1682 86.1275 18.2335C86.5289 18.3362 86.8882 18.4528 87.2055 18.5835C87.5322 18.7048 87.8075 18.8448 88.0315 19.0035C88.2649 19.1622 88.4422 19.3488 88.5635 19.5635C88.6942 19.7782 88.7595 20.0255 88.7595 20.3055C88.7595 20.6042 88.6895 20.8842 88.5495 21.1455C88.4095 21.3975 88.2042 21.6215 87.9335 21.8175C87.6629 22.0042 87.3269 22.1535 86.9255 22.2655C86.5242 22.3775 86.0622 22.4335 85.5395 22.4335C84.8955 22.4335 84.2795 22.3308 83.6915 22.1255C83.1035 21.9202 82.5949 21.6682 82.1655 21.3695L82.9215 20.3475ZM97.2521 23.1335V24.3935H90.5321V23.1335H97.2521ZM100.747 16.6655H98.9126V15.4615L100.817 15.3915L101.027 13.5155H102.357V15.3915H105.493V16.6655H102.357V19.4935C102.357 20.0628 102.473 20.4828 102.707 20.7535C102.94 21.0148 103.351 21.1455 103.939 21.1455C104.237 21.1455 104.508 21.1222 104.751 21.0755C104.993 21.0195 105.227 20.9495 105.451 20.8655L105.759 22.0415C105.451 22.1442 105.11 22.2328 104.737 22.3075C104.363 22.3915 103.967 22.4335 103.547 22.4335C103.024 22.4335 102.585 22.3635 102.231 22.2235C101.876 22.0835 101.587 21.8875 101.363 21.6355C101.148 21.3742 100.989 21.0615 100.887 20.6975C100.793 20.3335 100.747 19.9322 100.747 19.4935V16.6655ZM107.349 18.8355C107.349 18.2755 107.447 17.7715 107.643 17.3235C107.848 16.8755 108.114 16.4975 108.441 16.1895C108.768 15.8722 109.141 15.6342 109.561 15.4755C109.99 15.3075 110.429 15.2235 110.877 15.2235C111.39 15.2235 111.843 15.3075 112.235 15.4755C112.636 15.6342 112.972 15.8582 113.243 16.1475C113.514 16.4275 113.719 16.7682 113.859 17.1695C113.999 17.5708 114.069 18.0095 114.069 18.4855C114.069 18.6442 114.06 18.7935 114.041 18.9335C114.032 19.0735 114.018 19.1855 113.999 19.2695H109.001C109.057 19.8855 109.3 20.3615 109.729 20.6975C110.158 21.0242 110.686 21.1875 111.311 21.1875C111.666 21.1875 111.997 21.1408 112.305 21.0475C112.613 20.9448 112.926 20.8048 113.243 20.6275L113.789 21.6355C113.416 21.8688 113 22.0602 112.543 22.2095C112.086 22.3588 111.605 22.4335 111.101 22.4335C110.578 22.4335 110.088 22.3542 109.631 22.1955C109.174 22.0275 108.777 21.7895 108.441 21.4815C108.105 21.1735 107.839 20.8002 107.643 20.3615C107.447 19.9135 107.349 19.4048 107.349 18.8355ZM112.585 18.1775C112.585 17.6455 112.445 17.2302 112.165 16.9315C111.885 16.6235 111.47 16.4695 110.919 16.4695C110.452 16.4695 110.037 16.6142 109.673 16.9035C109.309 17.1928 109.08 17.6175 108.987 18.1775H112.585ZM116.024 15.3915H117.354L117.48 16.4275H117.536C117.862 16.1008 118.222 15.8208 118.614 15.5875C119.015 15.3448 119.482 15.2235 120.014 15.2235C120.807 15.2235 121.39 15.4662 121.764 15.9515C122.137 16.4275 122.324 17.1135 122.324 18.0095V22.2655H120.7V18.2195C120.7 17.6595 120.602 17.2535 120.406 17.0015C120.219 16.7402 119.888 16.6095 119.412 16.6095C119.076 16.6095 118.777 16.6888 118.516 16.8475C118.254 17.0062 117.965 17.2488 117.648 17.5755V22.2655H116.024V15.3915Z" fill="#009E73"/>
<path d="M132.757 15.4895H138.973V16.6655H132.757V15.4895ZM132.757 18.6115H138.973V19.7875H132.757V18.6115ZM151.436 12.3535H155.44V13.2355H152.682V23.5115H155.44V24.3935H151.436V12.3535ZM161.02 23.5115V13.2355H158.276V12.3535H162.28V24.3935H158.276V23.5115H161.02ZM176.451 33.2595C176.451 32.8488 176.582 32.5128 176.843 32.2515C177.105 31.9808 177.436 31.8455 177.837 31.8455C178.239 31.8455 178.57 31.9808 178.831 32.2515C179.093 32.5128 179.223 32.8488 179.223 33.2595C179.223 33.6702 179.093 34.0108 178.831 34.2815C178.57 34.5428 178.239 34.6735 177.837 34.6735C177.436 34.6735 177.105 34.5428 176.843 34.2815C176.582 34.0108 176.451 33.6702 176.451 33.2595ZM176.451 38.0195C176.451 37.6088 176.582 37.2728 176.843 37.0115C177.105 36.7408 177.436 36.6055 177.837 36.6055C178.239 36.6055 178.57 36.7408 178.831 37.0115C179.093 37.2728 179.223 37.6088 179.223 38.0195C179.223 38.4302 179.093 38.7708 178.831 39.0415C178.57 39.3028 178.239 39.4335 177.837 39.4335C177.436 39.4335 177.105 39.3028 176.843 39.0415C176.582 38.7708 176.451 38.4302 176.451 38.0195ZM82.4455 50.3915H83.7755L83.9015 51.4275H83.9575C84.2842 51.1008 84.6435 50.8208 85.0355 50.5875C85.4369 50.3448 85.9035 50.2235 86.4355 50.2235C87.2289 50.2235 87.8122 50.4662 88.1855 50.9515C88.5589 51.4275 88.7455 52.1135 88.7455 53.0095V57.2655H87.1215V53.2195C87.1215 52.6595 87.0235 52.2535 86.8275 52.0015C86.6409 51.7402 86.3095 51.6095 85.8335 51.6095C85.4975 51.6095 85.1989 51.6888 84.9375 51.8475C84.6762 52.0062 84.3869 52.2488 84.0695 52.5755V57.2655H82.4455V50.3915ZM90.5601 53.8355C90.5601 53.2755 90.6581 52.7715 90.8541 52.3235C91.0594 51.8755 91.3254 51.4975 91.6521 51.1895C91.9787 50.8722 92.3521 50.6342 92.7721 50.4755C93.2014 50.3075 93.6401 50.2235 94.0881 50.2235C94.6014 50.2235 95.0541 50.3075 95.4461 50.4755C95.8474 50.6342 96.1834 50.8582 96.4541 51.1475C96.7247 51.4275 96.9301 51.7682 97.0701 52.1695C97.2101 52.5708 97.2801 53.0095 97.2801 53.4855C97.2801 53.6442 97.2707 53.7935 97.2521 53.9335C97.2427 54.0735 97.2287 54.1855 97.2101 54.2695H92.2121C92.2681 54.8855 92.5107 55.3615 92.9401 55.6975C93.3694 56.0242 93.8967 56.1875 94.5221 56.1875C94.8767 56.1875 95.2081 56.1408 95.5161 56.0475C95.8241 55.9448 96.1367 55.8048 96.4541 55.6275L97.0001 56.6355C96.6267 56.8688 96.2114 57.0602 95.7541 57.2095C95.2967 57.3588 94.8161 57.4335 94.3121 57.4335C93.7894 57.4335 93.2994 57.3542 92.8421 57.1955C92.3847 57.0275 91.9881 56.7895 91.6521 56.4815C91.3161 56.1735 91.0501 55.8002 90.8541 55.3615C90.6581 54.9135 90.5601 54.4048 90.5601 53.8355ZM95.7961 53.1775C95.7961 52.6455 95.6561 52.2302 95.3761 51.9315C95.0961 51.6235 94.6807 51.4695 94.1301 51.4695C93.6634 51.4695 93.2481 51.6142 92.8841 51.9035C92.5201 52.1928 92.2914 52.6175 92.1981 53.1775H95.7961ZM98.1706 50.3915H99.7666L100.397 53.9615C100.453 54.2882 100.499 54.6148 100.537 54.9415C100.583 55.2682 100.63 55.5995 100.677 55.9355H100.733C100.779 55.5995 100.831 55.2682 100.887 54.9415C100.943 54.6148 101.008 54.2882 101.083 53.9615L101.727 51.0635H102.931L103.575 53.9615C103.649 54.2882 103.715 54.6148 103.771 54.9415C103.836 55.2682 103.897 55.5995 103.953 55.9355H104.009C104.065 55.5995 104.111 55.2682 104.149 54.9415C104.195 54.6148 104.242 54.2882 104.289 53.9615L104.919 50.3915H106.403L105.129 57.2655H103.239L102.637 54.3955C102.581 54.0688 102.525 53.7422 102.469 53.4155C102.422 53.0888 102.371 52.7482 102.315 52.3935H102.259C102.212 52.6642 102.165 52.9582 102.119 53.2755C102.081 53.5835 102.025 53.9615 101.951 54.4095L101.363 57.2655H99.5006L98.1706 50.3915ZM114.041 58.1335V59.3935H107.321V58.1335H114.041ZM116.696 50.3915H118.026L118.166 51.9455H118.208C118.562 51.3855 118.987 50.9608 119.482 50.6715C119.986 50.3728 120.536 50.2235 121.134 50.2235C121.414 50.2235 121.652 50.2468 121.848 50.2935C122.053 50.3308 122.258 50.4008 122.464 50.5035L122.128 51.8615C121.904 51.7868 121.703 51.7355 121.526 51.7075C121.358 51.6702 121.143 51.6515 120.882 51.6515C120.406 51.6515 119.948 51.7868 119.51 52.0575C119.071 52.3282 118.674 52.7995 118.32 53.4715V57.2655H116.696V50.3915ZM124.012 53.8355C124.012 53.2662 124.106 52.7575 124.292 52.3095C124.488 51.8615 124.745 51.4835 125.062 51.1755C125.38 50.8675 125.748 50.6342 126.168 50.4755C126.588 50.3075 127.022 50.2235 127.47 50.2235C127.918 50.2235 128.352 50.3075 128.772 50.4755C129.192 50.6342 129.561 50.8675 129.878 51.1755C130.196 51.4835 130.448 51.8615 130.634 52.3095C130.83 52.7575 130.928 53.2662 130.928 53.8355C130.928 54.4048 130.83 54.9135 130.634 55.3615C130.448 55.8095 130.196 56.1875 129.878 56.4955C129.561 56.8035 129.192 57.0368 128.772 57.1955C128.352 57.3542 127.918 57.4335 127.47 57.4335C127.022 57.4335 126.588 57.3542 126.168 57.1955C125.748 57.0368 125.38 56.8035 125.062 56.4955C124.745 56.1875 124.488 55.8095 124.292 55.3615C124.106 54.9135 124.012 54.4048 124.012 53.8355ZM125.678 53.8355C125.678 54.5262 125.837 55.0815 126.154 55.5015C126.472 55.9122 126.91 56.1175 127.47 56.1175C128.03 56.1175 128.469 55.9122 128.786 55.5015C129.104 55.0815 129.262 54.5262 129.262 53.8355C129.262 53.1355 129.104 52.5802 128.786 52.1695C128.469 51.7495 128.03 51.5395 127.47 51.5395C126.91 51.5395 126.472 51.7495 126.154 52.1695C125.837 52.5802 125.678 53.1355 125.678 53.8355ZM131.749 50.3915H133.345L133.975 53.9615C134.031 54.2882 134.077 54.6148 134.115 54.9415C134.161 55.2682 134.208 55.5995 134.255 55.9355H134.311C134.357 55.5995 134.409 55.2682 134.465 54.9415C134.521 54.6148 134.586 54.2882 134.661 53.9615L135.305 51.0635H136.509L137.153 53.9615C137.227 54.2882 137.293 54.6148 137.349 54.9415C137.414 55.2682 137.475 55.5995 137.531 55.9355H137.587C137.643 55.5995 137.689 55.2682 137.727 54.9415C137.773 54.6148 137.82 54.2882 137.867 53.9615L138.497 50.3915H139.981L138.707 57.2655H136.817L136.215 54.3955C136.159 54.0688 136.103 53.7422 136.047 53.4155C136 53.0888 135.949 52.7482 135.893 52.3935H135.837C135.79 52.6642 135.743 52.9582 135.697 53.2755C135.659 53.5835 135.603 53.9615 135.529 54.4095L134.941 57.2655H133.079L131.749 50.3915ZM149.546 50.4895H155.762V51.6655H149.546V50.4895ZM149.546 53.6115H155.762V54.7875H149.546V53.6115ZM83.9575 69.6655H82.1235V68.4615L84.0275 68.3915L84.2375 66.5155H85.5675V68.3915H88.7035V69.6655H85.5675V72.4935C85.5675 73.0628 85.6842 73.4828 85.9175 73.7535C86.1509 74.0148 86.5615 74.1455 87.1495 74.1455C87.4482 74.1455 87.7189 74.1222 87.9615 74.0755C88.2042 74.0195 88.4375 73.9495 88.6615 73.8655L88.9695 75.0415C88.6615 75.1442 88.3209 75.2328 87.9475 75.3075C87.5742 75.3915 87.1775 75.4335 86.7575 75.4335C86.2349 75.4335 85.7962 75.3635 85.4415 75.2235C85.0869 75.0835 84.7975 74.8875 84.5735 74.6355C84.3589 74.3742 84.2002 74.0615 84.0975 73.6975C84.0042 73.3335 83.9575 72.9322 83.9575 72.4935V69.6655ZM90.8681 68.3915H95.4601V75.2655H93.8501V69.6655H90.8681V68.3915ZM94.5361 67.1875C94.2094 67.1875 93.9341 67.0895 93.7101 66.8935C93.4954 66.6975 93.3881 66.4362 93.3881 66.1095C93.3881 65.7828 93.4954 65.5215 93.7101 65.3255C93.9341 65.1202 94.2094 65.0175 94.5361 65.0175C94.8721 65.0175 95.1474 65.1202 95.3621 65.3255C95.5767 65.5215 95.6841 65.7828 95.6841 66.1095C95.6841 66.4362 95.5767 66.6975 95.3621 66.8935C95.1474 67.0895 94.8721 67.1875 94.5361 67.1875ZM98.7586 68.3915H99.9766L100.103 69.2735H100.145C100.303 68.9748 100.495 68.7275 100.719 68.5315C100.952 68.3262 101.265 68.2235 101.657 68.2235C102.329 68.2235 102.749 68.6062 102.917 69.3715C103.075 69.0448 103.276 68.7742 103.519 68.5595C103.771 68.3355 104.088 68.2235 104.471 68.2235C104.956 68.2235 105.329 68.4148 105.591 68.7975C105.861 69.1708 105.997 69.7028 105.997 70.3935V75.2655H104.471V70.5195C104.471 69.9128 104.279 69.6095 103.897 69.6095C103.71 69.6095 103.547 69.6795 103.407 69.8195C103.267 69.9595 103.131 70.1742 103.001 70.4635V75.2655H101.741V70.5195C101.741 69.9128 101.545 69.6095 101.153 69.6095C100.966 69.6095 100.807 69.6795 100.677 69.8195C100.546 69.9595 100.415 70.1742 100.285 70.4635V75.2655H98.7586V68.3915ZM107.349 71.8355C107.349 71.2755 107.447 70.7715 107.643 70.3235C107.848 69.8755 108.114 69.4975 108.441 69.1895C108.768 68.8722 109.141 68.6342 109.561 68.4755C109.99 68.3075 110.429 68.2235 110.877 68.2235C111.39 68.2235 111.843 68.3075 112.235 68.4755C112.636 68.6342 112.972 68.8582 113.243 69.1475C113.514 69.4275 113.719 69.7682 113.859 70.1695C113.999 70.5708 114.069 71.0095 114.069 71.4855C114.069 71.6442 114.06 71.7935 114.041 71.9335C114.032 72.0735 114.018 72.1855 113.999 72.2695H109.001C109.057 72.8855 109.3 73.3615 109.729 73.6975C110.158 74.0242 110.686 74.1875 111.311 74.1875C111.666 74.1875 111.997 74.1408 112.305 74.0475C112.613 73.9448 112.926 73.8048 113.243 73.6275L113.789 74.6355C113.416 74.8688 113 75.0602 112.543 75.2095C112.086 75.3588 111.605 75.4335 111.101 75.4335C110.578 75.4335 110.088 75.3542 109.631 75.1955C109.174 75.0275 108.777 74.7895 108.441 74.4815C108.105 74.1735 107.839 73.8002 107.643 73.3615C107.447 72.9135 107.349 72.4048 107.349 71.8355ZM112.585 71.1775C112.585 70.6455 112.445 70.2302 112.165 69.9315C111.885 69.6235 111.47 69.4695 110.919 69.4695C110.452 69.4695 110.037 69.6142 109.673 69.9035C109.309 70.1928 109.08 70.6175 108.987 71.1775H112.585ZM116.5 73.3475C116.892 73.6182 117.298 73.8328 117.718 73.9915C118.147 74.1408 118.628 74.2155 119.16 74.2155C119.701 74.2155 120.098 74.1408 120.35 73.9915C120.602 73.8328 120.728 73.6322 120.728 73.3895C120.728 73.1468 120.564 72.9462 120.238 72.7875C119.911 72.6195 119.398 72.4422 118.698 72.2555C118.371 72.1715 118.054 72.0688 117.746 71.9475C117.438 71.8262 117.167 71.6862 116.934 71.5275C116.7 71.3688 116.514 71.1868 116.374 70.9815C116.234 70.7762 116.164 70.5428 116.164 70.2815C116.164 69.6748 116.425 69.1802 116.948 68.7975C117.47 68.4148 118.222 68.2235 119.202 68.2235C119.762 68.2235 120.289 68.3168 120.784 68.5035C121.278 68.6902 121.703 68.9002 122.058 69.1335L121.316 70.1275C121.008 69.9222 120.676 69.7588 120.322 69.6375C119.976 69.5068 119.608 69.4415 119.216 69.4415C118.684 69.4415 118.31 69.5162 118.096 69.6655C117.881 69.8055 117.774 69.9828 117.774 70.1975C117.774 70.3188 117.82 70.4308 117.914 70.5335C118.016 70.6268 118.152 70.7155 118.32 70.7995C118.497 70.8742 118.702 70.9488 118.936 71.0235C119.169 71.0982 119.426 71.1682 119.706 71.2335C120.107 71.3362 120.466 71.4528 120.784 71.5835C121.11 71.7048 121.386 71.8448 121.61 72.0035C121.843 72.1622 122.02 72.3488 122.142 72.5635C122.272 72.7782 122.338 73.0255 122.338 73.3055C122.338 73.6042 122.268 73.8842 122.128 74.1455C121.988 74.3975 121.782 74.6215 121.512 74.8175C121.241 75.0042 120.905 75.1535 120.504 75.2655C120.102 75.3775 119.64 75.4335 119.118 75.4335C118.474 75.4335 117.858 75.3308 117.27 75.1255C116.682 74.9202 116.173 74.6682 115.744 74.3695L116.5 73.3475ZM130.83 76.1335V77.3935H124.11V76.1335H130.83ZM134.325 69.6655H132.491V68.4615L134.395 68.3915L134.605 66.5155H135.935V68.3915H139.071V69.6655H135.935V72.4935C135.935 73.0628 136.051 73.4828 136.285 73.7535C136.518 74.0148 136.929 74.1455 137.517 74.1455C137.815 74.1455 138.086 74.1222 138.329 74.0755C138.571 74.0195 138.805 73.9495 139.029 73.8655L139.337 75.0415C139.029 75.1442 138.688 75.2328 138.315 75.3075C137.941 75.3915 137.545 75.4335 137.125 75.4335C136.602 75.4335 136.163 75.3635 135.809 75.2235C135.454 75.0835 135.165 74.8875 134.941 74.6355C134.726 74.3742 134.567 74.0615 134.465 73.6975C134.371 73.3335 134.325 72.9322 134.325 72.4935V69.6655ZM140.927 71.8355C140.927 71.2755 141.025 70.7715 141.221 70.3235C141.427 69.8755 141.693 69.4975 142.019 69.1895C142.346 68.8722 142.719 68.6342 143.139 68.4755C143.569 68.3075 144.007 68.2235 144.455 68.2235C144.969 68.2235 145.421 68.3075 145.813 68.4755C146.215 68.6342 146.551 68.8582 146.821 69.1475C147.092 69.4275 147.297 69.7682 147.437 70.1695C147.577 70.5708 147.647 71.0095 147.647 71.4855C147.647 71.6442 147.638 71.7935 147.619 71.9335C147.61 72.0735 147.596 72.1855 147.577 72.2695H142.579C142.635 72.8855 142.878 73.3615 143.307 73.6975C143.737 74.0242 144.264 74.1875 144.889 74.1875C145.244 74.1875 145.575 74.1408 145.883 74.0475C146.191 73.9448 146.504 73.8048 146.821 73.6275L147.367 74.6355C146.994 74.8688 146.579 75.0602 146.121 75.2095C145.664 75.3588 145.183 75.4335 144.679 75.4335C144.157 75.4335 143.667 75.3542 143.209 75.1955C142.752 75.0275 142.355 74.7895 142.019 74.4815C141.683 74.1735 141.417 73.8002 141.221 73.3615C141.025 72.9135 140.927 72.4048 140.927 71.8355ZM146.163 71.1775C146.163 70.6455 146.023 70.2302 145.743 69.9315C145.463 69.6235 145.048 69.4695 144.497 69.4695C144.031 69.4695 143.615 69.6142 143.251 69.9035C142.887 70.1928 142.659 70.6175 142.565 71.1775H146.163ZM149.602 68.3915H150.932L151.058 69.4275H151.114C151.44 69.1008 151.8 68.8208 152.192 68.5875C152.593 68.3448 153.06 68.2235 153.592 68.2235C154.385 68.2235 154.968 68.4662 155.342 68.9515C155.715 69.4275 155.902 70.1135 155.902 71.0095V75.2655H154.278V71.2195C154.278 70.6595 154.18 70.2535 153.984 70.0015C153.797 69.7402 153.466 69.6095 152.99 69.6095C152.654 69.6095 152.355 69.6888 152.094 69.8475C151.832 70.0062 151.543 70.2488 151.226 70.5755V75.2655H149.602V68.3915ZM159.662 74.0195C159.662 73.6088 159.793 73.2728 160.054 73.0115C160.316 72.7408 160.647 72.6055 161.048 72.6055C161.45 72.6055 161.781 72.7408 162.042 73.0115C162.304 73.2728 162.434 73.6088 162.434 74.0195C162.434 74.4302 162.304 74.7708 162.042 75.0415C161.781 75.3028 161.45 75.4335 161.048 75.4335C160.647 75.4335 160.316 75.3028 160.054 75.0415C159.793 74.7708 159.662 74.4302 159.662 74.0195ZM166.237 73.4175C166.237 73.0348 166.326 72.6988 166.503 72.4095C166.68 72.1108 166.96 71.8588 167.343 71.6535C167.726 71.4482 168.216 71.2802 168.813 71.1495C169.41 71.0188 170.134 70.9255 170.983 70.8695C170.955 70.4775 170.815 70.1555 170.563 69.9035C170.311 69.6515 169.905 69.5255 169.345 69.5255C168.953 69.5255 168.566 69.6002 168.183 69.7495C167.81 69.8895 167.446 70.0575 167.091 70.2535L166.503 69.1755C166.923 68.9328 167.404 68.7135 167.945 68.5175C168.486 68.3215 169.051 68.2235 169.639 68.2235C170.6 68.2235 171.333 68.4802 171.837 68.9935C172.341 69.4975 172.593 70.2302 172.593 71.1915V75.2655H171.277L171.151 74.4115H171.109C170.745 74.6915 170.339 74.9342 169.891 75.1395C169.452 75.3355 169 75.4335 168.533 75.4335C168.197 75.4335 167.889 75.3822 167.609 75.2795C167.329 75.1862 167.086 75.0508 166.881 74.8735C166.676 74.6962 166.517 74.4862 166.405 74.2435C166.293 73.9915 166.237 73.7162 166.237 73.4175ZM167.791 73.2915C167.791 73.5995 167.908 73.8235 168.141 73.9635C168.384 74.1035 168.678 74.1735 169.023 74.1735C169.368 74.1735 169.7 74.0988 170.017 73.9495C170.344 73.7908 170.666 73.5855 170.983 73.3335V71.8775C170.367 71.9242 169.854 71.9895 169.443 72.0735C169.032 72.1482 168.706 72.2462 168.463 72.3675C168.22 72.4888 168.048 72.6288 167.945 72.7875C167.842 72.9368 167.791 73.1048 167.791 73.2915ZM176.409 75.8255V77.9815H174.785V68.3915H176.115L176.241 69.1755H176.283C176.582 68.9048 176.923 68.6808 177.305 68.5035C177.697 68.3168 178.089 68.2235 178.481 68.2235C178.929 68.2235 179.326 68.3075 179.671 68.4755C180.026 68.6342 180.32 68.8675 180.553 69.1755C180.796 69.4835 180.978 69.8522 181.099 70.2815C181.23 70.7108 181.295 71.1915 181.295 71.7235C181.295 72.3115 181.211 72.8388 181.043 73.3055C180.875 73.7628 180.647 74.1502 180.357 74.4675C180.077 74.7755 179.751 75.0135 179.377 75.1815C179.013 75.3495 178.635 75.4335 178.243 75.4335C177.926 75.4335 177.599 75.3635 177.263 75.2235C176.937 75.0835 176.633 74.8828 176.353 74.6215L176.409 75.8255ZM176.409 73.4735C176.661 73.7068 176.918 73.8702 177.179 73.9635C177.45 74.0568 177.693 74.1035 177.907 74.1035C178.402 74.1035 178.813 73.9075 179.139 73.5155C179.466 73.1142 179.629 72.5215 179.629 71.7375C179.629 71.0468 179.503 70.5102 179.251 70.1275C178.999 69.7448 178.593 69.5535 178.033 69.5535C177.772 69.5535 177.506 69.6188 177.235 69.7495C176.965 69.8802 176.689 70.0902 176.409 70.3795V73.4735ZM184.804 75.8255V77.9815H183.18V68.3915H184.51L184.636 69.1755H184.678C184.977 68.9048 185.317 68.6808 185.7 68.5035C186.092 68.3168 186.484 68.2235 186.876 68.2235C187.324 68.2235 187.721 68.3075 188.066 68.4755C188.421 68.6342 188.715 68.8675 188.948 69.1755C189.191 69.4835 189.373 69.8522 189.494 70.2815C189.625 70.7108 189.69 71.1915 189.69 71.7235C189.69 72.3115 189.606 72.8388 189.438 73.3055C189.27 73.7628 189.041 74.1502 188.752 74.4675C188.472 74.7755 188.145 75.0135 187.772 75.1815C187.408 75.3495 187.03 75.4335 186.638 75.4335C186.321 75.4335 185.994 75.3635 185.658 75.2235C185.331 75.0835 185.028 74.8828 184.748 74.6215L184.804 75.8255ZM184.804 73.4735C185.056 73.7068 185.313 73.8702 185.574 73.9635C185.845 74.0568 186.087 74.1035 186.302 74.1035C186.797 74.1035 187.207 73.9075 187.534 73.5155C187.861 73.1142 188.024 72.5215 188.024 71.7375C188.024 71.0468 187.898 70.5102 187.646 70.1275C187.394 69.7448 186.988 69.5535 186.428 69.5535C186.167 69.5535 185.901 69.6188 185.63 69.7495C185.359 69.8802 185.084 70.0902 184.804 70.3795V73.4735ZM191.294 71.8355C191.294 71.2755 191.392 70.7715 191.588 70.3235C191.794 69.8755 192.06 69.4975 192.386 69.1895C192.713 68.8722 193.086 68.6342 193.506 68.4755C193.936 68.3075 194.374 68.2235 194.822 68.2235C195.336 68.2235 195.788 68.3075 196.18 68.4755C196.582 68.6342 196.918 68.8582 197.188 69.1475C197.459 69.4275 197.664 69.7682 197.804 70.1695C197.944 70.5708 198.014 71.0095 198.014 71.4855C198.014 71.6442 198.005 71.7935 197.986 71.9335C197.977 72.0735 197.963 72.1855 197.944 72.2695H192.946C193.002 72.8855 193.245 73.3615 193.674 73.6975C194.104 74.0242 194.631 74.1875 195.256 74.1875C195.611 74.1875 195.942 74.1408 196.25 74.0475C196.558 73.9448 196.871 73.8048 197.188 73.6275L197.734 74.6355C197.361 74.8688 196.946 75.0602 196.488 75.2095C196.031 75.3588 195.55 75.4335 195.046 75.4335C194.524 75.4335 194.034 75.3542 193.576 75.1955C193.119 75.0275 192.722 74.7895 192.386 74.4815C192.05 74.1735 191.784 73.8002 191.588 73.3615C191.392 72.9135 191.294 72.4048 191.294 71.8355ZM196.53 71.1775C196.53 70.6455 196.39 70.2302 196.11 69.9315C195.83 69.6235 195.415 69.4695 194.864 69.4695C194.398 69.4695 193.982 69.6142 193.618 69.9035C193.254 70.1928 193.026 70.6175 192.932 71.1775H196.53ZM199.969 68.3915H201.299L201.425 69.4275H201.481C201.808 69.1008 202.167 68.8208 202.559 68.5875C202.96 68.3448 203.427 68.2235 203.959 68.2235C204.752 68.2235 205.336 68.4662 205.709 68.9515C206.082 69.4275 206.269 70.1135 206.269 71.0095V75.2655H204.645V71.2195C204.645 70.6595 204.547 70.2535 204.351 70.0015C204.164 69.7402 203.833 69.6095 203.357 69.6095C203.021 69.6095 202.722 69.6888 202.461 69.8475C202.2 70.0062 201.91 70.2488 201.593 70.5755V75.2655H199.969V68.3915ZM207.958 71.8355C207.958 71.2755 208.042 70.7715 208.21 70.3235C208.378 69.8755 208.602 69.4975 208.882 69.1895C209.171 68.8815 209.498 68.6435 209.862 68.4755C210.226 68.3075 210.604 68.2235 210.996 68.2235C211.406 68.2235 211.756 68.2982 212.046 68.4475C212.344 68.5875 212.634 68.7835 212.914 69.0355L212.844 67.8735V65.3815H214.468V75.2655H213.138L213.012 74.4675H212.97C212.699 74.7382 212.382 74.9668 212.018 75.1535C211.663 75.3402 211.29 75.4335 210.898 75.4335C210.459 75.4335 210.058 75.3542 209.694 75.1955C209.33 75.0275 209.017 74.7895 208.756 74.4815C208.504 74.1735 208.308 73.8002 208.168 73.3615C208.028 72.9135 207.958 72.4048 207.958 71.8355ZM209.624 71.8215C209.624 72.5682 209.768 73.1375 210.058 73.5295C210.347 73.9122 210.758 74.1035 211.29 74.1035C211.859 74.1035 212.377 73.8282 212.844 73.2775V70.1835C212.601 69.9502 212.358 69.7868 212.116 69.6935C211.873 69.6002 211.626 69.5535 211.374 69.5535C211.131 69.5535 210.902 69.6048 210.688 69.7075C210.482 69.8102 210.3 69.9595 210.142 70.1555C209.983 70.3422 209.857 70.5755 209.764 70.8555C209.67 71.1355 209.624 71.4575 209.624 71.8215ZM221.378 77.7435C220.435 76.9595 219.689 76.0355 219.138 74.9715C218.597 73.9075 218.326 72.7082 218.326 71.3735C218.326 70.0388 218.597 68.8395 219.138 67.7755C219.689 66.7115 220.435 65.7875 221.378 65.0035L222.274 65.7455C221.387 66.5482 220.739 67.4022 220.328 68.3075C219.917 69.2128 219.712 70.2348 219.712 71.3735C219.712 72.5122 219.917 73.5342 220.328 74.4395C220.739 75.3448 221.387 76.1988 222.274 77.0015L221.378 77.7435ZM284.502 77.0015C285.389 76.1988 286.038 75.3448 286.448 74.4395C286.859 73.5342 287.064 72.5122 287.064 71.3735C287.064 70.2348 286.859 69.2128 286.448 68.3075C286.038 67.4022 285.389 66.5482 284.502 65.7455L285.398 65.0035C286.341 65.7875 287.083 66.7115 287.624 67.7755C288.175 68.8395 288.45 70.0388 288.45 71.3735C288.45 72.7082 288.175 73.9075 287.624 74.9715C287.083 76.0355 286.341 76.9595 285.398 77.7435L284.502 77.0015Z" fill="#2E383C"/>
<path d="M55.5314 30.7815C55.2794 30.6788 55.0321 30.6042 54.7894 30.5575C54.5561 30.5108 54.2994 30.4875 54.0194 30.4875C53.4874 30.4875 53.1001 30.6182 52.8574 30.8795C52.6241 31.1315 52.5074 31.5002 52.5074 31.9855V32.3915H55.1254V33.6655H52.5074V39.2655H50.9114V33.6655H49.0074V32.4615L50.9114 32.3915V32.0135C50.9114 31.6122 50.9674 31.2388 51.0794 30.8935C51.1914 30.5482 51.3641 30.2542 51.5974 30.0115C51.8401 29.7595 52.1434 29.5635 52.5074 29.4235C52.8808 29.2835 53.3194 29.2135 53.8234 29.2135C54.1968 29.2135 54.5514 29.2462 54.8874 29.3115C55.2328 29.3768 55.5594 29.4702 55.8674 29.5915L55.5314 30.7815ZM56.856 35.8355C56.856 35.2662 56.9493 34.7575 57.136 34.3095C57.332 33.8615 57.5886 33.4835 57.906 33.1755C58.2233 32.8675 58.592 32.6342 59.012 32.4755C59.432 32.3075 59.866 32.2235 60.314 32.2235C60.762 32.2235 61.196 32.3075 61.616 32.4755C62.036 32.6342 62.4046 32.8675 62.722 33.1755C63.0393 33.4835 63.2913 33.8615 63.478 34.3095C63.674 34.7575 63.772 35.2662 63.772 35.8355C63.772 36.4048 63.674 36.9135 63.478 37.3615C63.2913 37.8095 63.0393 38.1875 62.722 38.4955C62.4046 38.8035 62.036 39.0368 61.616 39.1955C61.196 39.3542 60.762 39.4335 60.314 39.4335C59.866 39.4335 59.432 39.3542 59.012 39.1955C58.592 39.0368 58.2233 38.8035 57.906 38.4955C57.5886 38.1875 57.332 37.8095 57.136 37.3615C56.9493 36.9135 56.856 36.4048 56.856 35.8355ZM58.522 35.8355C58.522 36.5262 58.6806 37.0815 58.998 37.5015C59.3153 37.9122 59.754 38.1175 60.314 38.1175C60.874 38.1175 61.3126 37.9122 61.63 37.5015C61.9473 37.0815 62.106 36.5262 62.106 35.8355C62.106 35.1355 61.9473 34.5802 61.63 34.1695C61.3126 33.7495 60.874 33.5395 60.314 33.5395C59.754 33.5395 59.3153 33.7495 58.998 34.1695C58.6806 34.5802 58.522 35.1355 58.522 35.8355ZM66.3285 32.3915H67.6585L67.7985 33.9455H67.8405C68.1952 33.3855 68.6198 32.9608 69.1145 32.6715C69.6185 32.3728 70.1692 32.2235 70.7665 32.2235C71.0465 32.2235 71.2845 32.2468 71.4805 32.2935C71.6858 32.3308 71.8912 32.4008 72.0965 32.5035L71.7605 33.8615C71.5365 33.7868 71.3358 33.7355 71.1585 33.7075C70.9905 33.6702 70.7758 33.6515 70.5145 33.6515C70.0385 33.6515 69.5812 33.7868 69.1425 34.0575C68.7038 34.3282 68.3072 34.7995 67.9525 35.4715V39.2655H66.3285V32.3915ZM83.1175 32.3915H84.4475L84.5875 33.9455H84.6295C84.9842 33.3855 85.4089 32.9608 85.9035 32.6715C86.4075 32.3728 86.9582 32.2235 87.5555 32.2235C87.8355 32.2235 88.0735 32.2468 88.2695 32.2935C88.4749 32.3308 88.6802 32.4008 88.8855 32.5035L88.5495 33.8615C88.3255 33.7868 88.1249 33.7355 87.9475 33.7075C87.7795 33.6702 87.5649 33.6515 87.3035 33.6515C86.8275 33.6515 86.3702 33.7868 85.9315 34.0575C85.4929 34.3282 85.0962 34.7995 84.7415 35.4715V39.2655H83.1175V32.3915ZM90.4341 35.8355C90.4341 35.2662 90.5274 34.7575 90.7141 34.3095C90.9101 33.8615 91.1667 33.4835 91.4841 33.1755C91.8014 32.8675 92.1701 32.6342 92.5901 32.4755C93.0101 32.3075 93.4441 32.2235 93.8921 32.2235C94.3401 32.2235 94.7741 32.3075 95.1941 32.4755C95.6141 32.6342 95.9827 32.8675 96.3001 33.1755C96.6174 33.4835 96.8694 33.8615 97.0561 34.3095C97.2521 34.7575 97.3501 35.2662 97.3501 35.8355C97.3501 36.4048 97.2521 36.9135 97.0561 37.3615C96.8694 37.8095 96.6174 38.1875 96.3001 38.4955C95.9827 38.8035 95.6141 39.0368 95.1941 39.1955C94.7741 39.3542 94.3401 39.4335 93.8921 39.4335C93.4441 39.4335 93.0101 39.3542 92.5901 39.1955C92.1701 39.0368 91.8014 38.8035 91.4841 38.4955C91.1667 38.1875 90.9101 37.8095 90.7141 37.3615C90.5274 36.9135 90.4341 36.4048 90.4341 35.8355ZM92.1001 35.8355C92.1001 36.5262 92.2587 37.0815 92.5761 37.5015C92.8934 37.9122 93.3321 38.1175 93.8921 38.1175C94.4521 38.1175 94.8907 37.9122 95.2081 37.5015C95.5254 37.0815 95.6841 36.5262 95.6841 35.8355C95.6841 35.1355 95.5254 34.5802 95.2081 34.1695C94.8907 33.7495 94.4521 33.5395 93.8921 33.5395C93.3321 33.5395 92.8934 33.7495 92.5761 34.1695C92.2587 34.5802 92.1001 35.1355 92.1001 35.8355ZM98.1706 32.3915H99.7666L100.397 35.9615C100.453 36.2882 100.499 36.6148 100.537 36.9415C100.583 37.2682 100.63 37.5995 100.677 37.9355H100.733C100.779 37.5995 100.831 37.2682 100.887 36.9415C100.943 36.6148 101.008 36.2882 101.083 35.9615L101.727 33.0635H102.931L103.575 35.9615C103.649 36.2882 103.715 36.6148 103.771 36.9415C103.836 37.2682 103.897 37.5995 103.953 37.9355H104.009C104.065 37.5995 104.111 37.2682 104.149 36.9415C104.195 36.6148 104.242 36.2882 104.289 35.9615L104.919 32.3915H106.403L105.129 39.2655H103.239L102.637 36.3955C102.581 36.0688 102.525 35.7422 102.469 35.4155C102.422 35.0888 102.371 34.7482 102.315 34.3935H102.259C102.212 34.6642 102.165 34.9582 102.119 35.2755C102.081 35.5835 102.025 35.9615 101.951 36.4095L101.363 39.2655H99.5006L98.1706 32.3915ZM116.052 32.3915H120.644V39.2655H119.034V33.6655H116.052V32.3915ZM119.72 31.1875C119.393 31.1875 119.118 31.0895 118.894 30.8935C118.679 30.6975 118.572 30.4362 118.572 30.1095C118.572 29.7828 118.679 29.5215 118.894 29.3255C119.118 29.1202 119.393 29.0175 119.72 29.0175C120.056 29.0175 120.331 29.1202 120.546 29.3255C120.76 29.5215 120.868 29.7828 120.868 30.1095C120.868 30.4362 120.76 30.6975 120.546 30.8935C120.331 31.0895 120.056 31.1875 119.72 31.1875ZM124.418 32.3915H125.748L125.874 33.4275H125.93C126.257 33.1008 126.616 32.8208 127.008 32.5875C127.41 32.3448 127.876 32.2235 128.408 32.2235C129.202 32.2235 129.785 32.4662 130.158 32.9515C130.532 33.4275 130.718 34.1135 130.718 35.0095V39.2655H129.094V35.2195C129.094 34.6595 128.996 34.2535 128.8 34.0015C128.614 33.7402 128.282 33.6095 127.806 33.6095C127.47 33.6095 127.172 33.6888 126.91 33.8475C126.649 34.0062 126.36 34.2488 126.042 34.5755V39.2655H124.418V32.3915ZM140.801 35.8355C140.801 35.2755 140.885 34.7715 141.053 34.3235C141.221 33.8755 141.445 33.4975 141.725 33.1895C142.015 32.8815 142.341 32.6435 142.705 32.4755C143.069 32.3075 143.447 32.2235 143.839 32.2235C144.25 32.2235 144.6 32.2982 144.889 32.4475C145.188 32.5875 145.477 32.7835 145.757 33.0355L145.687 31.8735V29.3815H147.311V39.2655H145.981L145.855 38.4675H145.813C145.543 38.7382 145.225 38.9668 144.861 39.1535C144.507 39.3402 144.133 39.4335 143.741 39.4335C143.303 39.4335 142.901 39.3542 142.537 39.1955C142.173 39.0275 141.861 38.7895 141.599 38.4815C141.347 38.1735 141.151 37.8002 141.011 37.3615C140.871 36.9135 140.801 36.4048 140.801 35.8355ZM142.467 35.8215C142.467 36.5682 142.612 37.1375 142.901 37.5295C143.191 37.9122 143.601 38.1035 144.133 38.1035C144.703 38.1035 145.221 37.8282 145.687 37.2775V34.1835C145.445 33.9502 145.202 33.7868 144.959 33.6935C144.717 33.6002 144.469 33.5535 144.217 33.5535C143.975 33.5535 143.746 33.6048 143.531 33.7075C143.326 33.8102 143.144 33.9595 142.985 34.1555C142.827 34.3422 142.701 34.5755 142.607 34.8555C142.514 35.1355 142.467 35.4575 142.467 35.8215ZM149.448 37.4175C149.448 37.0348 149.536 36.6988 149.714 36.4095C149.891 36.1108 150.171 35.8588 150.554 35.6535C150.936 35.4482 151.426 35.2802 152.024 35.1495C152.621 35.0188 153.344 34.9255 154.194 34.8695C154.166 34.4775 154.026 34.1555 153.774 33.9035C153.522 33.6515 153.116 33.5255 152.556 33.5255C152.164 33.5255 151.776 33.6002 151.394 33.7495C151.02 33.8895 150.656 34.0575 150.302 34.2535L149.714 33.1755C150.134 32.9328 150.614 32.7135 151.156 32.5175C151.697 32.3215 152.262 32.2235 152.85 32.2235C153.811 32.2235 154.544 32.4802 155.048 32.9935C155.552 33.4975 155.804 34.2302 155.804 35.1915V39.2655H154.488L154.362 38.4115H154.32C153.956 38.6915 153.55 38.9342 153.102 39.1395C152.663 39.3355 152.21 39.4335 151.744 39.4335C151.408 39.4335 151.1 39.3822 150.82 39.2795C150.54 39.1862 150.297 39.0508 150.092 38.8735C149.886 38.6962 149.728 38.4862 149.616 38.2435C149.504 37.9915 149.448 37.7162 149.448 37.4175ZM151.002 37.2915C151.002 37.5995 151.118 37.8235 151.352 37.9635C151.594 38.1035 151.888 38.1735 152.234 38.1735C152.579 38.1735 152.91 38.0988 153.228 37.9495C153.554 37.7908 153.876 37.5855 154.194 37.3335V35.8775C153.578 35.9242 153.064 35.9895 152.654 36.0735C152.243 36.1482 151.916 36.2462 151.674 36.3675C151.431 36.4888 151.258 36.6288 151.156 36.7875C151.053 36.9368 151.002 37.1048 151.002 37.2915ZM159.508 33.6655H157.674V32.4615L159.578 32.3915L159.788 30.5155H161.118V32.3915H164.254V33.6655H161.118V36.4935C161.118 37.0628 161.235 37.4828 161.468 37.7535C161.702 38.0148 162.112 38.1455 162.7 38.1455C162.999 38.1455 163.27 38.1222 163.512 38.0755C163.755 38.0195 163.988 37.9495 164.212 37.8655L164.52 39.0415C164.212 39.1442 163.872 39.2328 163.498 39.3075C163.125 39.3915 162.728 39.4335 162.308 39.4335C161.786 39.4335 161.347 39.3635 160.992 39.2235C160.638 39.0835 160.348 38.8875 160.124 38.6355C159.91 38.3742 159.751 38.0615 159.648 37.6975C159.555 37.3335 159.508 36.9322 159.508 36.4935V33.6655ZM166.237 37.4175C166.237 37.0348 166.326 36.6988 166.503 36.4095C166.68 36.1108 166.96 35.8588 167.343 35.6535C167.726 35.4482 168.216 35.2802 168.813 35.1495C169.41 35.0188 170.134 34.9255 170.983 34.8695C170.955 34.4775 170.815 34.1555 170.563 33.9035C170.311 33.6515 169.905 33.5255 169.345 33.5255C168.953 33.5255 168.566 33.6002 168.183 33.7495C167.81 33.8895 167.446 34.0575 167.091 34.2535L166.503 33.1755C166.923 32.9328 167.404 32.7135 167.945 32.5175C168.486 32.3215 169.051 32.2235 169.639 32.2235C170.6 32.2235 171.333 32.4802 171.837 32.9935C172.341 33.4975 172.593 34.2302 172.593 35.1915V39.2655H171.277L171.151 38.4115H171.109C170.745 38.6915 170.339 38.9342 169.891 39.1395C169.452 39.3355 169 39.4335 168.533 39.4335C168.197 39.4335 167.889 39.3822 167.609 39.2795C167.329 39.1862 167.086 39.0508 166.881 38.8735C166.676 38.6962 166.517 38.4862 166.405 38.2435C166.293 37.9915 166.237 37.7162 166.237 37.4175ZM167.791 37.2915C167.791 37.5995 167.908 37.8235 168.141 37.9635C168.384 38.1035 168.678 38.1735 169.023 38.1735C169.368 38.1735 169.7 38.0988 170.017 37.9495C170.344 37.7908 170.666 37.5855 170.983 37.3335V35.8775C170.367 35.9242 169.854 35.9895 169.443 36.0735C169.032 36.1482 168.706 36.2462 168.463 36.3675C168.22 36.4888 168.048 36.6288 167.945 36.7875C167.842 36.9368 167.791 37.1048 167.791 37.2915Z" fill="#9B51E0"/>
<path d="M168.225 47.3535H172.229V48.2355H169.471V58.5115H172.229V59.3935H168.225V47.3535ZM174.813 50.3915H179.405V57.2655H177.795V51.6655H174.813V50.3915ZM178.481 49.1875C178.155 49.1875 177.879 49.0895 177.655 48.8935C177.441 48.6975 177.333 48.4362 177.333 48.1095C177.333 47.7828 177.441 47.5215 177.655 47.3255C177.879 47.1202 178.155 47.0175 178.481 47.0175C178.817 47.0175 179.093 47.1202 179.307 47.3255C179.522 47.5215 179.629 47.7828 179.629 48.1095C179.629 48.4362 179.522 48.6975 179.307 48.8935C179.093 49.0895 178.817 49.1875 178.481 49.1875ZM184.692 51.6655H182.858V50.4615L184.762 50.3915L184.972 48.5155H186.302V50.3915H189.438V51.6655H186.302V54.4935C186.302 55.0628 186.419 55.4828 186.652 55.7535C186.885 56.0148 187.296 56.1455 187.884 56.1455C188.183 56.1455 188.453 56.1222 188.696 56.0755C188.939 56.0195 189.172 55.9495 189.396 55.8655L189.704 57.0415C189.396 57.1442 189.055 57.2328 188.682 57.3075C188.309 57.3915 187.912 57.4335 187.492 57.4335C186.969 57.4335 186.531 57.3635 186.176 57.2235C185.821 57.0835 185.532 56.8875 185.308 56.6355C185.093 56.3742 184.935 56.0615 184.832 55.6975C184.739 55.3335 184.692 54.9322 184.692 54.4935V51.6655ZM191.294 53.8355C191.294 53.2755 191.392 52.7715 191.588 52.3235C191.794 51.8755 192.06 51.4975 192.386 51.1895C192.713 50.8722 193.086 50.6342 193.506 50.4755C193.936 50.3075 194.374 50.2235 194.822 50.2235C195.336 50.2235 195.788 50.3075 196.18 50.4755C196.582 50.6342 196.918 50.8582 197.188 51.1475C197.459 51.4275 197.664 51.7682 197.804 52.1695C197.944 52.5708 198.014 53.0095 198.014 53.4855C198.014 53.6442 198.005 53.7935 197.986 53.9335C197.977 54.0735 197.963 54.1855 197.944 54.2695H192.946C193.002 54.8855 193.245 55.3615 193.674 55.6975C194.104 56.0242 194.631 56.1875 195.256 56.1875C195.611 56.1875 195.942 56.1408 196.25 56.0475C196.558 55.9448 196.871 55.8048 197.188 55.6275L197.734 56.6355C197.361 56.8688 196.946 57.0602 196.488 57.2095C196.031 57.3588 195.55 57.4335 195.046 57.4335C194.524 57.4335 194.034 57.3542 193.576 57.1955C193.119 57.0275 192.722 56.7895 192.386 56.4815C192.05 56.1735 191.784 55.8002 191.588 55.3615C191.392 54.9135 191.294 54.4048 191.294 53.8355ZM196.53 53.1775C196.53 52.6455 196.39 52.2302 196.11 51.9315C195.83 51.6235 195.415 51.4695 194.864 51.4695C194.398 51.4695 193.982 51.6142 193.618 51.9035C193.254 52.1928 193.026 52.6175 192.932 53.1775H196.53ZM199.493 50.3915H200.711L200.837 51.2735H200.879C201.038 50.9748 201.229 50.7275 201.453 50.5315C201.686 50.3262 201.999 50.2235 202.391 50.2235C203.063 50.2235 203.483 50.6062 203.651 51.3715C203.81 51.0448 204.01 50.7742 204.253 50.5595C204.505 50.3355 204.822 50.2235 205.205 50.2235C205.69 50.2235 206.064 50.4148 206.325 50.7975C206.596 51.1708 206.731 51.7028 206.731 52.3935V57.2655H205.205V52.5195C205.205 51.9128 205.014 51.6095 204.631 51.6095C204.444 51.6095 204.281 51.6795 204.141 51.8195C204.001 51.9595 203.866 52.1742 203.735 52.4635V57.2655H202.475V52.5195C202.475 51.9128 202.279 51.6095 201.887 51.6095C201.7 51.6095 201.542 51.6795 201.411 51.8195C201.28 51.9595 201.15 52.1742 201.019 52.4635V57.2655H199.493V50.3915ZM217.416 55.3335L218.858 53.0795L216.646 52.1135L216.912 51.2875L219.222 51.9735L219.362 49.4115H220.258L220.398 51.9735L222.708 51.2875L222.974 52.1135L220.762 53.0795L222.204 55.3335L221.462 55.8515L219.81 53.7515L218.158 55.8515L217.416 55.3335ZM239.861 55.9495V57.2655H233.659V55.9495H236.067V50.0975H234.205V49.0895C234.709 49.0055 235.138 48.9075 235.493 48.7955C235.857 48.6742 236.193 48.5295 236.501 48.3615H237.677V55.9495H239.861ZM244.994 57.4335C243.976 57.4335 243.169 57.0322 242.572 56.2295C241.984 55.4268 241.69 54.2742 241.69 52.7715C241.69 51.2595 241.984 50.1208 242.572 49.3555C243.169 48.5808 243.976 48.1935 244.994 48.1935C246.011 48.1935 246.814 48.5808 247.402 49.3555C247.999 50.1208 248.298 51.2595 248.298 52.7715C248.298 54.2742 247.999 55.4268 247.402 56.2295C246.814 57.0322 246.011 57.4335 244.994 57.4335ZM244.994 49.4535C244.723 49.4535 244.476 49.5142 244.252 49.6355C244.028 49.7475 243.832 49.9342 243.664 50.1955C243.505 50.4568 243.379 50.8022 243.286 51.2315C243.192 51.6515 243.146 52.1648 243.146 52.7715C243.146 53.3782 243.192 53.9008 243.286 54.3395C243.379 54.7688 243.505 55.1188 243.664 55.3895C243.832 55.6602 244.028 55.8608 244.252 55.9915C244.476 56.1128 244.723 56.1735 244.994 56.1735C245.255 56.1735 245.498 56.1128 245.722 55.9915C245.955 55.8608 246.151 55.6602 246.31 55.3895C246.478 55.1188 246.608 54.7688 246.702 54.3395C246.795 53.9008 246.842 53.3782 246.842 52.7715C246.842 52.1648 246.795 51.6515 246.702 51.2315C246.608 50.8022 246.478 50.4568 246.31 50.1955C246.151 49.9342 245.955 49.7475 245.722 49.6355C245.498 49.5142 245.255 49.4535 244.994 49.4535ZM244.994 53.7095C244.723 53.7095 244.494 53.6208 244.308 53.4435C244.121 53.2662 244.028 53.0235 244.028 52.7155C244.028 52.4075 244.121 52.1648 244.308 51.9875C244.494 51.8102 244.723 51.7215 244.994 51.7215C245.264 51.7215 245.493 51.8102 245.68 51.9875C245.866 52.1648 245.96 52.4075 245.96 52.7155C245.96 53.0235 245.866 53.2662 245.68 53.4435C245.493 53.6208 245.264 53.7095 244.994 53.7095ZM265.395 48.7815C265.143 48.6788 264.895 48.6042 264.653 48.5575C264.419 48.5108 264.163 48.4875 263.883 48.4875C263.351 48.4875 262.963 48.6182 262.721 48.8795C262.487 49.1315 262.371 49.5002 262.371 49.9855V50.3915H264.989V51.6655H262.371V57.2655H260.775V51.6655H258.871V50.4615L260.775 50.3915V50.0135C260.775 49.6122 260.831 49.2388 260.943 48.8935C261.055 48.5482 261.227 48.2542 261.461 48.0115C261.703 47.7595 262.007 47.5635 262.371 47.4235C262.744 47.2835 263.183 47.2135 263.687 47.2135C264.06 47.2135 264.415 47.2462 264.751 47.3115C265.096 47.3768 265.423 47.4702 265.731 47.5915L265.395 48.7815ZM266.719 53.8355C266.719 53.2662 266.813 52.7575 266.999 52.3095C267.195 51.8615 267.452 51.4835 267.769 51.1755C268.087 50.8675 268.455 50.6342 268.875 50.4755C269.295 50.3075 269.729 50.2235 270.177 50.2235C270.625 50.2235 271.059 50.3075 271.479 50.4755C271.899 50.6342 272.268 50.8675 272.585 51.1755C272.903 51.4835 273.155 51.8615 273.341 52.3095C273.537 52.7575 273.635 53.2662 273.635 53.8355C273.635 54.4048 273.537 54.9135 273.341 55.3615C273.155 55.8095 272.903 56.1875 272.585 56.4955C272.268 56.8035 271.899 57.0368 271.479 57.1955C271.059 57.3542 270.625 57.4335 270.177 57.4335C269.729 57.4335 269.295 57.3542 268.875 57.1955C268.455 57.0368 268.087 56.8035 267.769 56.4955C267.452 56.1875 267.195 55.8095 266.999 55.3615C266.813 54.9135 266.719 54.4048 266.719 53.8355ZM268.385 53.8355C268.385 54.5262 268.544 55.0815 268.861 55.5015C269.179 55.9122 269.617 56.1175 270.177 56.1175C270.737 56.1175 271.176 55.9122 271.493 55.5015C271.811 55.0815 271.969 54.5262 271.969 53.8355C271.969 53.1355 271.811 52.5802 271.493 52.1695C271.176 51.7495 270.737 51.5395 270.177 51.5395C269.617 51.5395 269.179 51.7495 268.861 52.1695C268.544 52.5802 268.385 53.1355 268.385 53.8355ZM276.192 50.3915H277.522L277.662 51.9455H277.704C278.058 51.3855 278.483 50.9608 278.978 50.6715C279.482 50.3728 280.032 50.2235 280.63 50.2235C280.91 50.2235 281.148 50.2468 281.344 50.2935C281.549 50.3308 281.754 50.4008 281.96 50.5035L281.624 51.8615C281.4 51.7868 281.199 51.7355 281.022 51.7075C280.854 51.6702 280.639 51.6515 280.378 51.6515C279.902 51.6515 279.444 51.7868 279.006 52.0575C278.567 52.3282 278.17 52.7995 277.816 53.4715V57.2655H276.192V50.3915ZM292.337 50.3915H296.929V57.2655H295.319V51.6655H292.337V50.3915ZM296.005 49.1875C295.678 49.1875 295.403 49.0895 295.179 48.8935C294.964 48.6975 294.857 48.4362 294.857 48.1095C294.857 47.7828 294.964 47.5215 295.179 47.3255C295.403 47.1202 295.678 47.0175 296.005 47.0175C296.341 47.0175 296.616 47.1202 296.831 47.3255C297.045 47.5215 297.153 47.7828 297.153 48.1095C297.153 48.4362 297.045 48.6975 296.831 48.8935C296.616 49.0895 296.341 49.1875 296.005 49.1875ZM302.215 51.6655H300.381V50.4615L302.285 50.3915L302.495 48.5155H303.825V50.3915H306.961V51.6655H303.825V54.4935C303.825 55.0628 303.942 55.4828 304.175 55.7535C304.409 56.0148 304.819 56.1455 305.407 56.1455C305.706 56.1455 305.977 56.1222 306.219 56.0755C306.462 56.0195 306.695 55.9495 306.919 55.8655L307.227 57.0415C306.919 57.1442 306.579 57.2328 306.205 57.3075C305.832 57.3915 305.435 57.4335 305.015 57.4335C304.493 57.4335 304.054 57.3635 303.699 57.2235C303.345 57.0835 303.055 56.8875 302.831 56.6355C302.617 56.3742 302.458 56.0615 302.355 55.6975C302.262 55.3335 302.215 54.9322 302.215 54.4935V51.6655ZM308.818 53.8355C308.818 53.2755 308.916 52.7715 309.112 52.3235C309.317 51.8755 309.583 51.4975 309.91 51.1895C310.237 50.8722 310.61 50.6342 311.03 50.4755C311.459 50.3075 311.898 50.2235 312.346 50.2235C312.859 50.2235 313.312 50.3075 313.704 50.4755C314.105 50.6342 314.441 50.8582 314.712 51.1475C314.983 51.4275 315.188 51.7682 315.328 52.1695C315.468 52.5708 315.538 53.0095 315.538 53.4855C315.538 53.6442 315.529 53.7935 315.51 53.9335C315.501 54.0735 315.487 54.1855 315.468 54.2695H310.47C310.526 54.8855 310.769 55.3615 311.198 55.6975C311.627 56.0242 312.155 56.1875 312.78 56.1875C313.135 56.1875 313.466 56.1408 313.774 56.0475C314.082 55.9448 314.395 55.8048 314.712 55.6275L315.258 56.6355C314.885 56.8688 314.469 57.0602 314.012 57.2095C313.555 57.3588 313.074 57.4335 312.57 57.4335C312.047 57.4335 311.557 57.3542 311.1 57.1955C310.643 57.0275 310.246 56.7895 309.91 56.4815C309.574 56.1735 309.308 55.8002 309.112 55.3615C308.916 54.9135 308.818 54.4048 308.818 53.8355ZM314.054 53.1775C314.054 52.6455 313.914 52.2302 313.634 51.9315C313.354 51.6235 312.939 51.4695 312.388 51.4695C311.921 51.4695 311.506 51.6142 311.142 51.9035C310.778 52.1928 310.549 52.6175 310.456 53.1775H314.054ZM317.016 50.3915H318.234L318.36 51.2735H318.402C318.561 50.9748 318.752 50.7275 318.976 50.5315C319.21 50.3262 319.522 50.2235 319.914 50.2235C320.586 50.2235 321.006 50.6062 321.174 51.3715C321.333 51.0448 321.534 50.7742 321.776 50.5595C322.028 50.3355 322.346 50.2235 322.728 50.2235C323.214 50.2235 323.587 50.4148 323.848 50.7975C324.119 51.1708 324.254 51.7028 324.254 52.3935V57.2655H322.728V52.5195C322.728 51.9128 322.537 51.6095 322.154 51.6095C321.968 51.6095 321.804 51.6795 321.664 51.8195C321.524 51.9595 321.389 52.1742 321.258 52.4635V57.2655H319.998V52.5195C319.998 51.9128 319.802 51.6095 319.41 51.6095C319.224 51.6095 319.065 51.6795 318.934 51.8195C318.804 51.9595 318.673 52.1742 318.542 52.4635V57.2655H317.016V50.3915ZM334.309 50.3915H338.901V57.2655H337.291V51.6655H334.309V50.3915ZM337.977 49.1875C337.651 49.1875 337.375 49.0895 337.151 48.8935C336.937 48.6975 336.829 48.4362 336.829 48.1095C336.829 47.7828 336.937 47.5215 337.151 47.3255C337.375 47.1202 337.651 47.0175 337.977 47.0175C338.313 47.0175 338.589 47.1202 338.803 47.3255C339.018 47.5215 339.125 47.7828 339.125 48.1095C339.125 48.4362 339.018 48.6975 338.803 48.8935C338.589 49.0895 338.313 49.1875 337.977 49.1875ZM342.676 50.3915H344.006L344.132 51.4275H344.188C344.515 51.1008 344.874 50.8208 345.266 50.5875C345.667 50.3448 346.134 50.2235 346.666 50.2235C347.459 50.2235 348.043 50.4662 348.416 50.9515C348.789 51.4275 348.976 52.1135 348.976 53.0095V57.2655H347.352V53.2195C347.352 52.6595 347.254 52.2535 347.058 52.0015C346.871 51.7402 346.54 51.6095 346.064 51.6095C345.728 51.6095 345.429 51.6888 345.168 51.8475C344.907 52.0062 344.617 52.2488 344.3 52.5755V57.2655H342.676V50.3915ZM360.137 50.3915H361.467L361.607 51.9455H361.649C362.004 51.3855 362.428 50.9608 362.923 50.6715C363.427 50.3728 363.978 50.2235 364.575 50.2235C364.855 50.2235 365.093 50.2468 365.289 50.2935C365.494 50.3308 365.7 50.4008 365.905 50.5035L365.569 51.8615C365.345 51.7868 365.144 51.7355 364.967 51.7075C364.799 51.6702 364.584 51.6515 364.323 51.6515C363.847 51.6515 363.39 51.7868 362.951 52.0575C362.512 52.3282 362.116 52.7995 361.761 53.4715V57.2655H360.137V50.3915ZM367.454 53.8355C367.454 53.2662 367.547 52.7575 367.734 52.3095C367.93 51.8615 368.186 51.4835 368.504 51.1755C368.821 50.8675 369.19 50.6342 369.61 50.4755C370.03 50.3075 370.464 50.2235 370.912 50.2235C371.36 50.2235 371.794 50.3075 372.214 50.4755C372.634 50.6342 373.002 50.8675 373.32 51.1755C373.637 51.4835 373.889 51.8615 374.076 52.3095C374.272 52.7575 374.37 53.2662 374.37 53.8355C374.37 54.4048 374.272 54.9135 374.076 55.3615C373.889 55.8095 373.637 56.1875 373.32 56.4955C373.002 56.8035 372.634 57.0368 372.214 57.1955C371.794 57.3542 371.36 57.4335 370.912 57.4335C370.464 57.4335 370.03 57.3542 369.61 57.1955C369.19 57.0368 368.821 56.8035 368.504 56.4955C368.186 56.1875 367.93 55.8095 367.734 55.3615C367.547 54.9135 367.454 54.4048 367.454 53.8355ZM369.12 53.8355C369.12 54.5262 369.278 55.0815 369.596 55.5015C369.913 55.9122 370.352 56.1175 370.912 56.1175C371.472 56.1175 371.91 55.9122 372.228 55.5015C372.545 55.0815 372.704 54.5262 372.704 53.8355C372.704 53.1355 372.545 52.5802 372.228 52.1695C371.91 51.7495 371.472 51.5395 370.912 51.5395C370.352 51.5395 369.913 51.7495 369.596 52.1695C369.278 52.5802 369.12 53.1355 369.12 53.8355ZM375.19 50.3915H376.786L377.416 53.9615C377.472 54.2882 377.519 54.6148 377.556 54.9415C377.603 55.2682 377.649 55.5995 377.696 55.9355H377.752C377.799 55.5995 377.85 55.2682 377.906 54.9415C377.962 54.6148 378.027 54.2882 378.102 53.9615L378.746 51.0635H379.95L380.594 53.9615C380.669 54.2882 380.734 54.6148 380.79 54.9415C380.855 55.2682 380.916 55.5995 380.972 55.9355H381.028C381.084 55.5995 381.131 55.2682 381.168 54.9415C381.215 54.6148 381.261 54.2882 381.308 53.9615L381.938 50.3915H383.422L382.148 57.2655H380.258L379.656 54.3955C379.6 54.0688 379.544 53.7422 379.488 53.4155C379.441 53.0888 379.39 52.7482 379.334 52.3935H379.278C379.231 52.6642 379.185 52.9582 379.138 53.2755C379.101 53.5835 379.045 53.9615 378.97 54.4095L378.382 57.2655H376.52L375.19 50.3915ZM387.673 58.5115V48.2355H384.929V47.3535H388.933V59.3935H384.929V58.5115H387.673ZM225.153 68.3915H226.483L226.609 69.4275H226.665C226.991 69.1008 227.351 68.8208 227.743 68.5875C228.144 68.3448 228.611 68.2235 229.143 68.2235C229.936 68.2235 230.519 68.4662 230.893 68.9515C231.266 69.4275 231.453 70.1135 231.453 71.0095V75.2655H229.829V71.2195C229.829 70.6595 229.731 70.2535 229.535 70.0015C229.348 69.7402 229.017 69.6095 228.541 69.6095C228.205 69.6095 227.906 69.6888 227.645 69.8475C227.383 70.0062 227.094 70.2488 226.777 70.5755V75.2655H225.153V68.3915ZM233.267 71.8355C233.267 71.2755 233.365 70.7715 233.561 70.3235C233.766 69.8755 234.032 69.4975 234.359 69.1895C234.686 68.8722 235.059 68.6342 235.479 68.4755C235.908 68.3075 236.347 68.2235 236.795 68.2235C237.308 68.2235 237.761 68.3075 238.153 68.4755C238.554 68.6342 238.89 68.8582 239.161 69.1475C239.432 69.4275 239.637 69.7682 239.777 70.1695C239.917 70.5708 239.987 71.0095 239.987 71.4855C239.987 71.6442 239.978 71.7935 239.959 71.9335C239.95 72.0735 239.936 72.1855 239.917 72.2695H234.919C234.975 72.8855 235.218 73.3615 235.647 73.6975C236.076 74.0242 236.604 74.1875 237.229 74.1875C237.584 74.1875 237.915 74.1408 238.223 74.0475C238.531 73.9448 238.844 73.8048 239.161 73.6275L239.707 74.6355C239.334 74.8688 238.918 75.0602 238.461 75.2095C238.004 75.3588 237.523 75.4335 237.019 75.4335C236.496 75.4335 236.006 75.3542 235.549 75.1955C235.092 75.0275 234.695 74.7895 234.359 74.4815C234.023 74.1735 233.757 73.8002 233.561 73.3615C233.365 72.9135 233.267 72.4048 233.267 71.8355ZM238.503 71.1775C238.503 70.6455 238.363 70.2302 238.083 69.9315C237.803 69.6235 237.388 69.4695 236.837 69.4695C236.37 69.4695 235.955 69.6142 235.591 69.9035C235.227 70.1928 234.998 70.6175 234.905 71.1775H238.503ZM240.878 68.3915H242.474L243.104 71.9615C243.16 72.2882 243.206 72.6148 243.244 72.9415C243.29 73.2682 243.337 73.5995 243.384 73.9355H243.44C243.486 73.5995 243.538 73.2682 243.594 72.9415C243.65 72.6148 243.715 72.2882 243.79 71.9615L244.434 69.0635H245.638L246.282 71.9615C246.356 72.2882 246.422 72.6148 246.478 72.9415C246.543 73.2682 246.604 73.5995 246.66 73.9355H246.716C246.772 73.5995 246.818 73.2682 246.856 72.9415C246.902 72.6148 246.949 72.2882 246.996 71.9615L247.626 68.3915H249.11L247.836 75.2655H245.946L245.344 72.3955C245.288 72.0688 245.232 71.7422 245.176 71.4155C245.129 71.0888 245.078 70.7482 245.022 70.3935H244.966C244.919 70.6642 244.872 70.9582 244.826 71.2755C244.788 71.5835 244.732 71.9615 244.658 72.4095L244.07 75.2655H242.208L240.878 68.3915ZM256.748 76.1335V77.3935H250.028V76.1335H256.748ZM259.403 68.3915H260.733L260.873 69.9455H260.915C261.269 69.3855 261.694 68.9608 262.189 68.6715C262.693 68.3728 263.243 68.2235 263.841 68.2235C264.121 68.2235 264.359 68.2468 264.555 68.2935C264.76 68.3308 264.965 68.4008 265.171 68.5035L264.835 69.8615C264.611 69.7868 264.41 69.7355 264.233 69.7075C264.065 69.6702 263.85 69.6515 263.589 69.6515C263.113 69.6515 262.655 69.7868 262.217 70.0575C261.778 70.3282 261.381 70.7995 261.027 71.4715V75.2655H259.403V68.3915ZM266.719 71.8355C266.719 71.2662 266.813 70.7575 266.999 70.3095C267.195 69.8615 267.452 69.4835 267.769 69.1755C268.087 68.8675 268.455 68.6342 268.875 68.4755C269.295 68.3075 269.729 68.2235 270.177 68.2235C270.625 68.2235 271.059 68.3075 271.479 68.4755C271.899 68.6342 272.268 68.8675 272.585 69.1755C272.903 69.4835 273.155 69.8615 273.341 70.3095C273.537 70.7575 273.635 71.2662 273.635 71.8355C273.635 72.4048 273.537 72.9135 273.341 73.3615C273.155 73.8095 272.903 74.1875 272.585 74.4955C272.268 74.8035 271.899 75.0368 271.479 75.1955C271.059 75.3542 270.625 75.4335 270.177 75.4335C269.729 75.4335 269.295 75.3542 268.875 75.1955C268.455 75.0368 268.087 74.8035 267.769 74.4955C267.452 74.1875 267.195 73.8095 266.999 73.3615C266.813 72.9135 266.719 72.4048 266.719 71.8355ZM268.385 71.8355C268.385 72.5262 268.544 73.0815 268.861 73.5015C269.179 73.9122 269.617 74.1175 270.177 74.1175C270.737 74.1175 271.176 73.9122 271.493 73.5015C271.811 73.0815 271.969 72.5262 271.969 71.8355C271.969 71.1355 271.811 70.5802 271.493 70.1695C271.176 69.7495 270.737 69.5395 270.177 69.5395C269.617 69.5395 269.179 69.7495 268.861 70.1695C268.544 70.5802 268.385 71.1355 268.385 71.8355ZM274.456 68.3915H276.052L276.682 71.9615C276.738 72.2882 276.784 72.6148 276.822 72.9415C276.868 73.2682 276.915 73.5995 276.962 73.9355H277.018C277.064 73.5995 277.116 73.2682 277.172 72.9415C277.228 72.6148 277.293 72.2882 277.368 71.9615L278.012 69.0635H279.216L279.86 71.9615C279.934 72.2882 280 72.6148 280.056 72.9415C280.121 73.2682 280.182 73.5995 280.238 73.9355H280.294C280.35 73.5995 280.396 73.2682 280.434 72.9415C280.48 72.6148 280.527 72.2882 280.574 71.9615L281.204 68.3915H282.688L281.414 75.2655H279.524L278.922 72.3955C278.866 72.0688 278.81 71.7422 278.754 71.4155C278.707 71.0888 278.656 70.7482 278.6 70.3935H278.544C278.497 70.6642 278.45 70.9582 278.404 71.2755C278.366 71.5835 278.31 71.9615 278.236 72.4095L277.648 75.2655H275.786L274.456 68.3915Z" fill="#EB5757"/>
</svg>
