<svg width="511" height="39" viewBox="0 0 511 39" fill="none" xmlns="http://www.w3.org/2000/svg">
<rect width="511" height="39" fill="white"/>
<path d="M9 5H502V35H9V5Z" fill="#F1F4F8"/>
<path d="M18.3603 19.5947H16.5263V18.3907L18.4303 18.3207L18.6403 16.4447H19.9703V18.3207H23.1063V19.5947H19.9703V22.4227C19.9703 22.992 20.0869 23.412 20.3203 23.6827C20.5536 23.944 20.9643 24.0747 21.5523 24.0747C21.8509 24.0747 22.1216 24.0514 22.3643 24.0047C22.6069 23.9487 22.8403 23.8787 23.0643 23.7947L23.3723 24.9707C23.0643 25.0734 22.7236 25.162 22.3503 25.2367C21.9769 25.3207 21.5803 25.3627 21.1603 25.3627C20.6376 25.3627 20.1989 25.2927 19.8443 25.1527C19.4896 25.0127 19.2003 24.8167 18.9763 24.5647C18.7616 24.3034 18.6029 23.9907 18.5003 23.6267C18.4069 23.2627 18.3603 22.8614 18.3603 22.4227V19.5947ZM25.2708 18.3207H29.8628V25.1947H28.2528V19.5947H25.2708V18.3207ZM28.9388 17.1167C28.6121 17.1167 28.3368 17.0187 28.1128 16.8227C27.8981 16.6267 27.7908 16.3654 27.7908 16.0387C27.7908 15.712 27.8981 15.4507 28.1128 15.2547C28.3368 15.0494 28.6121 14.9467 28.9388 14.9467C29.2748 14.9467 29.5501 15.0494 29.7648 15.2547C29.9795 15.4507 30.0868 15.712 30.0868 16.0387C30.0868 16.3654 29.9795 16.6267 29.7648 16.8227C29.5501 17.0187 29.2748 17.1167 28.9388 17.1167ZM33.1613 18.3207H34.3793L34.5053 19.2027H34.5473C34.706 18.904 34.8973 18.6567 35.1213 18.4607C35.3547 18.2554 35.6673 18.1527 36.0593 18.1527C36.7313 18.1527 37.1513 18.5354 37.3193 19.3007C37.478 18.974 37.6787 18.7034 37.9213 18.4887C38.1733 18.2647 38.4907 18.1527 38.8733 18.1527C39.3587 18.1527 39.732 18.344 39.9933 18.7267C40.264 19.1 40.3993 19.632 40.3993 20.3227V25.1947H38.8733V20.4487C38.8733 19.842 38.682 19.5387 38.2993 19.5387C38.1127 19.5387 37.9493 19.6087 37.8093 19.7487C37.6693 19.8887 37.534 20.1034 37.4033 20.3927V25.1947H36.1433V20.4487C36.1433 19.842 35.9473 19.5387 35.5553 19.5387C35.3687 19.5387 35.21 19.6087 35.0793 19.7487C34.9487 19.8887 34.818 20.1034 34.6873 20.3927V25.1947H33.1613V18.3207ZM41.7519 21.7647C41.7519 21.2047 41.8499 20.7007 42.0459 20.2527C42.2512 19.8047 42.5172 19.4267 42.8439 19.1187C43.1705 18.8014 43.5439 18.5634 43.9639 18.4047C44.3932 18.2367 44.8319 18.1527 45.2799 18.1527C45.7932 18.1527 46.2459 18.2367 46.6379 18.4047C47.0392 18.5634 47.3752 18.7874 47.6459 19.0767C47.9165 19.3567 48.1219 19.6974 48.2619 20.0987C48.4019 20.5 48.4719 20.9387 48.4719 21.4147C48.4719 21.5734 48.4625 21.7227 48.4439 21.8627C48.4345 22.0027 48.4205 22.1147 48.4019 22.1987H43.4039C43.4599 22.8147 43.7025 23.2907 44.1319 23.6267C44.5612 23.9534 45.0885 24.1167 45.7139 24.1167C46.0685 24.1167 46.3999 24.07 46.7079 23.9767C47.0159 23.874 47.3285 23.734 47.6459 23.5567L48.1919 24.5647C47.8185 24.798 47.4032 24.9894 46.9459 25.1387C46.4885 25.288 46.0079 25.3627 45.5039 25.3627C44.9812 25.3627 44.4912 25.2834 44.0339 25.1247C43.5765 24.9567 43.1799 24.7187 42.8439 24.4107C42.5079 24.1027 42.2419 23.7294 42.0459 23.2907C41.8499 22.8427 41.7519 22.334 41.7519 21.7647ZM46.9879 21.1067C46.9879 20.5747 46.8479 20.1594 46.5679 19.8607C46.2879 19.5527 45.8725 19.3987 45.3219 19.3987C44.8552 19.3987 44.4399 19.5434 44.0759 19.8327C43.7119 20.122 43.4832 20.5467 43.3899 21.1067H46.9879ZM50.9024 23.2767C51.2944 23.5474 51.7004 23.762 52.1204 23.9207C52.5497 24.07 53.0304 24.1447 53.5624 24.1447C54.1037 24.1447 54.5004 24.07 54.7524 23.9207C55.0044 23.762 55.1304 23.5614 55.1304 23.3187C55.1304 23.076 54.967 22.8754 54.6404 22.7167C54.3137 22.5487 53.8004 22.3714 53.1004 22.1847C52.7737 22.1007 52.4564 21.998 52.1484 21.8767C51.8404 21.7554 51.5697 21.6154 51.3364 21.4567C51.103 21.298 50.9164 21.116 50.7764 20.9107C50.6364 20.7054 50.5664 20.472 50.5664 20.2107C50.5664 19.604 50.8277 19.1094 51.3504 18.7267C51.873 18.344 52.6244 18.1527 53.6044 18.1527C54.1644 18.1527 54.6917 18.246 55.1864 18.4327C55.681 18.6194 56.1057 18.8294 56.4604 19.0627L55.7184 20.0567C55.4104 19.8514 55.079 19.688 54.7244 19.5667C54.379 19.436 54.0104 19.3707 53.6184 19.3707C53.0864 19.3707 52.713 19.4454 52.4984 19.5947C52.2837 19.7347 52.1764 19.912 52.1764 20.1267C52.1764 20.248 52.223 20.36 52.3164 20.4627C52.419 20.556 52.5544 20.6447 52.7224 20.7287C52.8997 20.8034 53.105 20.878 53.3384 20.9527C53.5717 21.0274 53.8284 21.0974 54.1084 21.1627C54.5097 21.2654 54.869 21.382 55.1864 21.5127C55.513 21.634 55.7884 21.774 56.0124 21.9327C56.2457 22.0914 56.423 22.278 56.5444 22.4927C56.675 22.7074 56.7404 22.9547 56.7404 23.2347C56.7404 23.5334 56.6704 23.8134 56.5304 24.0747C56.3904 24.3267 56.185 24.5507 55.9144 24.7467C55.6437 24.9334 55.3077 25.0827 54.9064 25.1947C54.505 25.3067 54.043 25.3627 53.5204 25.3627C52.8764 25.3627 52.2604 25.26 51.6724 25.0547C51.0844 24.8494 50.5757 24.5974 50.1464 24.2987L50.9024 23.2767ZM65.2329 26.0627V27.3227H58.5129V26.0627H65.2329ZM68.7274 19.5947H66.8934V18.3907L68.7974 18.3207L69.0074 16.4447H70.3374V18.3207H73.4734V19.5947H70.3374V22.4227C70.3374 22.992 70.4541 23.412 70.6874 23.6827C70.9208 23.944 71.3314 24.0747 71.9194 24.0747C72.2181 24.0747 72.4888 24.0514 72.7314 24.0047C72.9741 23.9487 73.2074 23.8787 73.4314 23.7947L73.7394 24.9707C73.4314 25.0734 73.0908 25.162 72.7174 25.2367C72.3441 25.3207 71.9474 25.3627 71.5274 25.3627C71.0048 25.3627 70.5661 25.2927 70.2114 25.1527C69.8568 25.0127 69.5674 24.8167 69.3434 24.5647C69.1288 24.3034 68.9701 23.9907 68.8674 23.6267C68.7741 23.2627 68.7274 22.8614 68.7274 22.4227V19.5947ZM75.33 21.7647C75.33 21.2047 75.428 20.7007 75.624 20.2527C75.8293 19.8047 76.0953 19.4267 76.422 19.1187C76.7486 18.8014 77.122 18.5634 77.542 18.4047C77.9713 18.2367 78.41 18.1527 78.858 18.1527C79.3713 18.1527 79.824 18.2367 80.216 18.4047C80.6173 18.5634 80.9533 18.7874 81.224 19.0767C81.4946 19.3567 81.7 19.6974 81.84 20.0987C81.98 20.5 82.05 20.9387 82.05 21.4147C82.05 21.5734 82.0406 21.7227 82.022 21.8627C82.0126 22.0027 81.9986 22.1147 81.98 22.1987H76.982C77.038 22.8147 77.2806 23.2907 77.71 23.6267C78.1393 23.9534 78.6666 24.1167 79.292 24.1167C79.6466 24.1167 79.978 24.07 80.286 23.9767C80.594 23.874 80.9066 23.734 81.224 23.5567L81.77 24.5647C81.3966 24.798 80.9813 24.9894 80.524 25.1387C80.0666 25.288 79.586 25.3627 79.082 25.3627C78.5593 25.3627 78.0693 25.2834 77.612 25.1247C77.1546 24.9567 76.758 24.7187 76.422 24.4107C76.086 24.1027 75.82 23.7294 75.624 23.2907C75.428 22.8427 75.33 22.334 75.33 21.7647ZM80.566 21.1067C80.566 20.5747 80.426 20.1594 80.146 19.8607C79.866 19.5527 79.4506 19.3987 78.9 19.3987C78.4333 19.3987 78.018 19.5434 77.654 19.8327C77.29 20.122 77.0613 20.5467 76.968 21.1067H80.566ZM84.0045 18.3207H85.3345L85.4605 19.3567H85.5165C85.8432 19.03 86.2025 18.75 86.5945 18.5167C86.9958 18.274 87.4625 18.1527 87.9945 18.1527C88.7878 18.1527 89.3712 18.3954 89.7445 18.8807C90.1178 19.3567 90.3045 20.0427 90.3045 20.9387V25.1947H88.6805V21.1487C88.6805 20.5887 88.5825 20.1827 88.3865 19.9307C88.1998 19.6694 87.8685 19.5387 87.3925 19.5387C87.0565 19.5387 86.7578 19.618 86.4965 19.7767C86.2352 19.9354 85.9458 20.178 85.6285 20.5047V25.1947H84.0045V18.3207Z" fill="#009E73"/>
<path d="M100.738 18.4187H106.954V19.5947H100.738V18.4187ZM100.738 21.5407H106.954V22.7167H100.738V21.5407ZM119.417 15.2827H123.421V16.1647H120.663V26.4407H123.421V27.3227H119.417V15.2827ZM489.966 26.4407V16.1647H487.222V15.2827H491.226V27.3227H487.222V26.4407H489.966Z" fill="#2E383C"/>
<path d="M127.811 15.2827H131.815V16.1647H129.057V26.4407H131.815V27.3227H127.811V15.2827ZM134.4 18.3207H138.992V25.1947H137.382V19.5947H134.4V18.3207ZM138.068 17.1167C137.741 17.1167 137.466 17.0187 137.242 16.8227C137.027 16.6267 136.92 16.3654 136.92 16.0387C136.92 15.712 137.027 15.4507 137.242 15.2547C137.466 15.0494 137.741 14.9467 138.068 14.9467C138.404 14.9467 138.679 15.0494 138.894 15.2547C139.108 15.4507 139.216 15.712 139.216 16.0387C139.216 16.3654 139.108 16.6267 138.894 16.8227C138.679 17.0187 138.404 17.1167 138.068 17.1167ZM144.278 19.5947H142.444V18.3907L144.348 18.3207L144.558 16.4447H145.888V18.3207H149.024V19.5947H145.888V22.4227C145.888 22.992 146.005 23.412 146.238 23.6827C146.472 23.944 146.882 24.0747 147.47 24.0747C147.769 24.0747 148.04 24.0514 148.282 24.0047C148.525 23.9487 148.758 23.8787 148.982 23.7947L149.29 24.9707C148.982 25.0734 148.642 25.162 148.268 25.2367C147.895 25.3207 147.498 25.3627 147.078 25.3627C146.556 25.3627 146.117 25.2927 145.762 25.1527C145.408 25.0127 145.118 24.8167 144.894 24.5647C144.68 24.3034 144.521 23.9907 144.418 23.6267C144.325 23.2627 144.278 22.8614 144.278 22.4227V19.5947ZM150.881 21.7647C150.881 21.2047 150.979 20.7007 151.175 20.2527C151.38 19.8047 151.646 19.4267 151.973 19.1187C152.299 18.8014 152.673 18.5634 153.093 18.4047C153.522 18.2367 153.961 18.1527 154.409 18.1527C154.922 18.1527 155.375 18.2367 155.767 18.4047C156.168 18.5634 156.504 18.7874 156.775 19.0767C157.045 19.3567 157.251 19.6974 157.391 20.0987C157.531 20.5 157.601 20.9387 157.601 21.4147C157.601 21.5734 157.591 21.7227 157.573 21.8627C157.563 22.0027 157.549 22.1147 157.531 22.1987H152.533C152.589 22.8147 152.831 23.2907 153.261 23.6267C153.69 23.9534 154.217 24.1167 154.843 24.1167C155.197 24.1167 155.529 24.07 155.837 23.9767C156.145 23.874 156.457 23.734 156.775 23.5567L157.321 24.5647C156.947 24.798 156.532 24.9894 156.075 25.1387C155.617 25.288 155.137 25.3627 154.633 25.3627C154.11 25.3627 153.62 25.2834 153.163 25.1247C152.705 24.9567 152.309 24.7187 151.973 24.4107C151.637 24.1027 151.371 23.7294 151.175 23.2907C150.979 22.8427 150.881 22.334 150.881 21.7647ZM156.117 21.1067C156.117 20.5747 155.977 20.1594 155.697 19.8607C155.417 19.5527 155.001 19.3987 154.451 19.3987C153.984 19.3987 153.569 19.5434 153.205 19.8327C152.841 20.122 152.612 20.5467 152.519 21.1067H156.117ZM159.079 18.3207H160.297L160.423 19.2027H160.465C160.624 18.904 160.815 18.6567 161.039 18.4607C161.273 18.2554 161.585 18.1527 161.977 18.1527C162.649 18.1527 163.069 18.5354 163.237 19.3007C163.396 18.974 163.597 18.7034 163.839 18.4887C164.091 18.2647 164.409 18.1527 164.791 18.1527C165.277 18.1527 165.65 18.344 165.911 18.7267C166.182 19.1 166.317 19.632 166.317 20.3227V25.1947H164.791V20.4487C164.791 19.842 164.6 19.5387 164.217 19.5387C164.031 19.5387 163.867 19.6087 163.727 19.7487C163.587 19.8887 163.452 20.1034 163.321 20.3927V25.1947H162.061V20.4487C162.061 19.842 161.865 19.5387 161.473 19.5387C161.287 19.5387 161.128 19.6087 160.997 19.7487C160.867 19.8887 160.736 20.1034 160.605 20.3927V25.1947H159.079V18.3207ZM177.002 23.2627L178.444 21.0087L176.232 20.0427L176.498 19.2167L178.808 19.9027L178.948 17.3407H179.844L179.984 19.9027L182.294 19.2167L182.56 20.0427L180.348 21.0087L181.79 23.2627L181.048 23.7807L179.396 21.6807L177.744 23.7807L177.002 23.2627ZM199.447 23.8787V25.1947H193.245V23.8787H195.653V18.0267H193.791V17.0187C194.295 16.9347 194.725 16.8367 195.079 16.7247C195.443 16.6034 195.779 16.4587 196.087 16.2907H197.263V23.8787H199.447ZM204.58 25.3627C203.563 25.3627 202.755 24.9614 202.158 24.1587C201.57 23.356 201.276 22.2034 201.276 20.7007C201.276 19.1887 201.57 18.05 202.158 17.2847C202.755 16.51 203.563 16.1227 204.58 16.1227C205.597 16.1227 206.4 16.51 206.988 17.2847C207.585 18.05 207.884 19.1887 207.884 20.7007C207.884 22.2034 207.585 23.356 206.988 24.1587C206.4 24.9614 205.597 25.3627 204.58 25.3627ZM204.58 17.3827C204.309 17.3827 204.062 17.4434 203.838 17.5647C203.614 17.6767 203.418 17.8634 203.25 18.1247C203.091 18.386 202.965 18.7314 202.872 19.1607C202.779 19.5807 202.732 20.094 202.732 20.7007C202.732 21.3074 202.779 21.83 202.872 22.2687C202.965 22.698 203.091 23.048 203.25 23.3187C203.418 23.5894 203.614 23.79 203.838 23.9207C204.062 24.042 204.309 24.1027 204.58 24.1027C204.841 24.1027 205.084 24.042 205.308 23.9207C205.541 23.79 205.737 23.5894 205.896 23.3187C206.064 23.048 206.195 22.698 206.288 22.2687C206.381 21.83 206.428 21.3074 206.428 20.7007C206.428 20.094 206.381 19.5807 206.288 19.1607C206.195 18.7314 206.064 18.386 205.896 18.1247C205.737 17.8634 205.541 17.6767 205.308 17.5647C205.084 17.4434 204.841 17.3827 204.58 17.3827ZM204.58 21.6387C204.309 21.6387 204.081 21.55 203.894 21.3727C203.707 21.1954 203.614 20.9527 203.614 20.6447C203.614 20.3367 203.707 20.094 203.894 19.9167C204.081 19.7394 204.309 19.6507 204.58 19.6507C204.851 19.6507 205.079 19.7394 205.266 19.9167C205.453 20.094 205.546 20.3367 205.546 20.6447C205.546 20.9527 205.453 21.1954 205.266 21.3727C205.079 21.55 204.851 21.6387 204.58 21.6387ZM224.981 16.7107C224.729 16.608 224.482 16.5334 224.239 16.4867C224.006 16.44 223.749 16.4167 223.469 16.4167C222.937 16.4167 222.55 16.5474 222.307 16.8087C222.074 17.0607 221.957 17.4294 221.957 17.9147V18.3207H224.575V19.5947H221.957V25.1947H220.361V19.5947H218.457V18.3907L220.361 18.3207V17.9427C220.361 17.5414 220.417 17.168 220.529 16.8227C220.641 16.4774 220.814 16.1834 221.047 15.9407C221.29 15.6887 221.593 15.4927 221.957 15.3527C222.33 15.2127 222.769 15.1427 223.273 15.1427C223.646 15.1427 224.001 15.1754 224.337 15.2407C224.682 15.306 225.009 15.3994 225.317 15.5207L224.981 16.7107ZM226.306 21.7647C226.306 21.1954 226.399 20.6867 226.586 20.2387C226.782 19.7907 227.038 19.4127 227.356 19.1047C227.673 18.7967 228.042 18.5634 228.462 18.4047C228.882 18.2367 229.316 18.1527 229.764 18.1527C230.212 18.1527 230.646 18.2367 231.066 18.4047C231.486 18.5634 231.854 18.7967 232.172 19.1047C232.489 19.4127 232.741 19.7907 232.928 20.2387C233.124 20.6867 233.222 21.1954 233.222 21.7647C233.222 22.334 233.124 22.8427 232.928 23.2907C232.741 23.7387 232.489 24.1167 232.172 24.4247C231.854 24.7327 231.486 24.966 231.066 25.1247C230.646 25.2834 230.212 25.3627 229.764 25.3627C229.316 25.3627 228.882 25.2834 228.462 25.1247C228.042 24.966 227.673 24.7327 227.356 24.4247C227.038 24.1167 226.782 23.7387 226.586 23.2907C226.399 22.8427 226.306 22.334 226.306 21.7647ZM227.972 21.7647C227.972 22.4554 228.13 23.0107 228.448 23.4307C228.765 23.8414 229.204 24.0467 229.764 24.0467C230.324 24.0467 230.762 23.8414 231.08 23.4307C231.397 23.0107 231.556 22.4554 231.556 21.7647C231.556 21.0647 231.397 20.5094 231.08 20.0987C230.762 19.6787 230.324 19.4687 229.764 19.4687C229.204 19.4687 228.765 19.6787 228.448 20.0987C228.13 20.5094 227.972 21.0647 227.972 21.7647ZM235.778 18.3207H237.108L237.248 19.8747H237.29C237.645 19.3147 238.069 18.89 238.564 18.6007C239.068 18.302 239.619 18.1527 240.216 18.1527C240.496 18.1527 240.734 18.176 240.93 18.2227C241.135 18.26 241.341 18.33 241.546 18.4327L241.21 19.7907C240.986 19.716 240.785 19.6647 240.608 19.6367C240.44 19.5994 240.225 19.5807 239.964 19.5807C239.488 19.5807 239.031 19.716 238.592 19.9867C238.153 20.2574 237.757 20.7287 237.402 21.4007V25.1947H235.778V18.3207ZM251.923 18.3207H256.515V25.1947H254.905V19.5947H251.923V18.3207ZM255.591 17.1167C255.264 17.1167 254.989 17.0187 254.765 16.8227C254.55 16.6267 254.443 16.3654 254.443 16.0387C254.443 15.712 254.55 15.4507 254.765 15.2547C254.989 15.0494 255.264 14.9467 255.591 14.9467C255.927 14.9467 256.202 15.0494 256.417 15.2547C256.632 15.4507 256.739 15.712 256.739 16.0387C256.739 16.3654 256.632 16.6267 256.417 16.8227C256.202 17.0187 255.927 17.1167 255.591 17.1167ZM261.802 19.5947H259.968V18.3907L261.872 18.3207L262.082 16.4447H263.412V18.3207H266.548V19.5947H263.412V22.4227C263.412 22.992 263.528 23.412 263.762 23.6827C263.995 23.944 264.406 24.0747 264.994 24.0747C265.292 24.0747 265.563 24.0514 265.806 24.0047C266.048 23.9487 266.282 23.8787 266.506 23.7947L266.814 24.9707C266.506 25.0734 266.165 25.162 265.792 25.2367C265.418 25.3207 265.022 25.3627 264.602 25.3627C264.079 25.3627 263.64 25.2927 263.286 25.1527C262.931 25.0127 262.642 24.8167 262.418 24.5647C262.203 24.3034 262.044 23.9907 261.942 23.6267C261.848 23.2627 261.802 22.8614 261.802 22.4227V19.5947ZM268.404 21.7647C268.404 21.2047 268.502 20.7007 268.698 20.2527C268.904 19.8047 269.17 19.4267 269.496 19.1187C269.823 18.8014 270.196 18.5634 270.616 18.4047C271.046 18.2367 271.484 18.1527 271.932 18.1527C272.446 18.1527 272.898 18.2367 273.29 18.4047C273.692 18.5634 274.028 18.7874 274.298 19.0767C274.569 19.3567 274.774 19.6974 274.914 20.0987C275.054 20.5 275.124 20.9387 275.124 21.4147C275.124 21.5734 275.115 21.7227 275.096 21.8627C275.087 22.0027 275.073 22.1147 275.054 22.1987H270.056C270.112 22.8147 270.355 23.2907 270.784 23.6267C271.214 23.9534 271.741 24.1167 272.366 24.1167C272.721 24.1167 273.052 24.07 273.36 23.9767C273.668 23.874 273.981 23.734 274.298 23.5567L274.844 24.5647C274.471 24.798 274.056 24.9894 273.598 25.1387C273.141 25.288 272.66 25.3627 272.156 25.3627C271.634 25.3627 271.144 25.2834 270.686 25.1247C270.229 24.9567 269.832 24.7187 269.496 24.4107C269.16 24.1027 268.894 23.7294 268.698 23.2907C268.502 22.8427 268.404 22.334 268.404 21.7647ZM273.64 21.1067C273.64 20.5747 273.5 20.1594 273.22 19.8607C272.94 19.5527 272.525 19.3987 271.974 19.3987C271.508 19.3987 271.092 19.5434 270.728 19.8327C270.364 20.122 270.136 20.5467 270.042 21.1067H273.64ZM276.603 18.3207H277.821L277.947 19.2027H277.989C278.147 18.904 278.339 18.6567 278.563 18.4607C278.796 18.2554 279.109 18.1527 279.501 18.1527C280.173 18.1527 280.593 18.5354 280.761 19.3007C280.919 18.974 281.12 18.7034 281.363 18.4887C281.615 18.2647 281.932 18.1527 282.315 18.1527C282.8 18.1527 283.173 18.344 283.435 18.7267C283.705 19.1 283.841 19.632 283.841 20.3227V25.1947H282.315V20.4487C282.315 19.842 282.123 19.5387 281.741 19.5387C281.554 19.5387 281.391 19.6087 281.251 19.7487C281.111 19.8887 280.975 20.1034 280.845 20.3927V25.1947H279.585V20.4487C279.585 19.842 279.389 19.5387 278.997 19.5387C278.81 19.5387 278.651 19.6087 278.521 19.7487C278.39 19.8887 278.259 20.1034 278.129 20.3927V25.1947H276.603V18.3207ZM293.896 18.3207H298.488V25.1947H296.878V19.5947H293.896V18.3207ZM297.564 17.1167C297.237 17.1167 296.962 17.0187 296.738 16.8227C296.523 16.6267 296.416 16.3654 296.416 16.0387C296.416 15.712 296.523 15.4507 296.738 15.2547C296.962 15.0494 297.237 14.9467 297.564 14.9467C297.9 14.9467 298.175 15.0494 298.39 15.2547C298.604 15.4507 298.712 15.712 298.712 16.0387C298.712 16.3654 298.604 16.6267 298.39 16.8227C298.175 17.0187 297.9 17.1167 297.564 17.1167ZM302.262 18.3207H303.592L303.718 19.3567H303.774C304.101 19.03 304.46 18.75 304.852 18.5167C305.254 18.274 305.72 18.1527 306.252 18.1527C307.046 18.1527 307.629 18.3954 308.002 18.8807C308.376 19.3567 308.562 20.0427 308.562 20.9387V25.1947H306.938V21.1487C306.938 20.5887 306.84 20.1827 306.644 19.9307C306.458 19.6694 306.126 19.5387 305.65 19.5387C305.314 19.5387 305.016 19.618 304.754 19.7767C304.493 19.9354 304.204 20.178 303.886 20.5047V25.1947H302.262V18.3207ZM319.723 18.3207H321.053L321.193 19.8747H321.235C321.59 19.3147 322.015 18.89 322.509 18.6007C323.013 18.302 323.564 18.1527 324.161 18.1527C324.441 18.1527 324.679 18.176 324.875 18.2227C325.081 18.26 325.286 18.33 325.491 18.4327L325.155 19.7907C324.931 19.716 324.731 19.6647 324.553 19.6367C324.385 19.5994 324.171 19.5807 323.909 19.5807C323.433 19.5807 322.976 19.716 322.537 19.9867C322.099 20.2574 321.702 20.7287 321.347 21.4007V25.1947H319.723V18.3207ZM327.04 21.7647C327.04 21.1954 327.133 20.6867 327.32 20.2387C327.516 19.7907 327.773 19.4127 328.09 19.1047C328.407 18.7967 328.776 18.5634 329.196 18.4047C329.616 18.2367 330.05 18.1527 330.498 18.1527C330.946 18.1527 331.38 18.2367 331.8 18.4047C332.22 18.5634 332.589 18.7967 332.906 19.1047C333.223 19.4127 333.475 19.7907 333.662 20.2387C333.858 20.6867 333.956 21.1954 333.956 21.7647C333.956 22.334 333.858 22.8427 333.662 23.2907C333.475 23.7387 333.223 24.1167 332.906 24.4247C332.589 24.7327 332.22 24.966 331.8 25.1247C331.38 25.2834 330.946 25.3627 330.498 25.3627C330.05 25.3627 329.616 25.2834 329.196 25.1247C328.776 24.966 328.407 24.7327 328.09 24.4247C327.773 24.1167 327.516 23.7387 327.32 23.2907C327.133 22.8427 327.04 22.334 327.04 21.7647ZM328.706 21.7647C328.706 22.4554 328.865 23.0107 329.182 23.4307C329.499 23.8414 329.938 24.0467 330.498 24.0467C331.058 24.0467 331.497 23.8414 331.814 23.4307C332.131 23.0107 332.29 22.4554 332.29 21.7647C332.29 21.0647 332.131 20.5094 331.814 20.0987C331.497 19.6787 331.058 19.4687 330.498 19.4687C329.938 19.4687 329.499 19.6787 329.182 20.0987C328.865 20.5094 328.706 21.0647 328.706 21.7647ZM334.776 18.3207H336.372L337.002 21.8907C337.058 22.2174 337.105 22.544 337.142 22.8707C337.189 23.1974 337.236 23.5287 337.282 23.8647H337.338C337.385 23.5287 337.436 23.1974 337.492 22.8707C337.548 22.544 337.614 22.2174 337.688 21.8907L338.332 18.9927H339.536L340.18 21.8907C340.255 22.2174 340.32 22.544 340.376 22.8707C340.442 23.1974 340.502 23.5287 340.558 23.8647H340.614C340.67 23.5287 340.717 23.1974 340.754 22.8707C340.801 22.544 340.848 22.2174 340.894 21.8907L341.524 18.3207H343.008L341.734 25.1947H339.844L339.242 22.3247C339.186 21.998 339.13 21.6714 339.074 21.3447C339.028 21.018 338.976 20.6774 338.92 20.3227H338.864C338.818 20.5934 338.771 20.8874 338.724 21.2047C338.687 21.5127 338.631 21.8907 338.556 22.3387L337.968 25.1947H336.106L334.776 18.3207ZM347.259 26.4407V16.1647H344.515V15.2827H348.519V27.3227H344.515V26.4407H347.259Z" fill="#EB5757"/>
<path d="M367.688 16.7107C367.436 16.608 367.189 16.5334 366.946 16.4867C366.713 16.44 366.456 16.4167 366.176 16.4167C365.644 16.4167 365.257 16.5474 365.014 16.8087C364.781 17.0607 364.664 17.4294 364.664 17.9147V18.3207H367.282V19.5947H364.664V25.1947H363.068V19.5947H361.164V18.3907L363.068 18.3207V17.9427C363.068 17.5414 363.124 17.168 363.236 16.8227C363.348 16.4774 363.521 16.1834 363.754 15.9407C363.997 15.6887 364.3 15.4927 364.664 15.3527C365.037 15.2127 365.476 15.1427 365.98 15.1427C366.353 15.1427 366.708 15.1754 367.044 15.2407C367.389 15.306 367.716 15.3994 368.024 15.5207L367.688 16.7107ZM369.013 21.7647C369.013 21.1954 369.106 20.6867 369.293 20.2387C369.489 19.7907 369.745 19.4127 370.063 19.1047C370.38 18.7967 370.749 18.5634 371.169 18.4047C371.589 18.2367 372.023 18.1527 372.471 18.1527C372.919 18.1527 373.353 18.2367 373.773 18.4047C374.193 18.5634 374.561 18.7967 374.879 19.1047C375.196 19.4127 375.448 19.7907 375.635 20.2387C375.831 20.6867 375.929 21.1954 375.929 21.7647C375.929 22.334 375.831 22.8427 375.635 23.2907C375.448 23.7387 375.196 24.1167 374.879 24.4247C374.561 24.7327 374.193 24.966 373.773 25.1247C373.353 25.2834 372.919 25.3627 372.471 25.3627C372.023 25.3627 371.589 25.2834 371.169 25.1247C370.749 24.966 370.38 24.7327 370.063 24.4247C369.745 24.1167 369.489 23.7387 369.293 23.2907C369.106 22.8427 369.013 22.334 369.013 21.7647ZM370.679 21.7647C370.679 22.4554 370.837 23.0107 371.155 23.4307C371.472 23.8414 371.911 24.0467 372.471 24.0467C373.031 24.0467 373.469 23.8414 373.787 23.4307C374.104 23.0107 374.263 22.4554 374.263 21.7647C374.263 21.0647 374.104 20.5094 373.787 20.0987C373.469 19.6787 373.031 19.4687 372.471 19.4687C371.911 19.4687 371.472 19.6787 371.155 20.0987C370.837 20.5094 370.679 21.0647 370.679 21.7647ZM378.485 18.3207H379.815L379.955 19.8747H379.997C380.352 19.3147 380.776 18.89 381.271 18.6007C381.775 18.302 382.326 18.1527 382.923 18.1527C383.203 18.1527 383.441 18.176 383.637 18.2227C383.842 18.26 384.048 18.33 384.253 18.4327L383.917 19.7907C383.693 19.716 383.492 19.6647 383.315 19.6367C383.147 19.5994 382.932 19.5807 382.671 19.5807C382.195 19.5807 381.738 19.716 381.299 19.9867C380.86 20.2574 380.464 20.7287 380.109 21.4007V25.1947H378.485V18.3207ZM395.274 18.3207H396.604L396.744 19.8747H396.786C397.141 19.3147 397.565 18.89 398.06 18.6007C398.564 18.302 399.115 18.1527 399.712 18.1527C399.992 18.1527 400.23 18.176 400.426 18.2227C400.631 18.26 400.837 18.33 401.042 18.4327L400.706 19.7907C400.482 19.716 400.281 19.6647 400.104 19.6367C399.936 19.5994 399.721 19.5807 399.46 19.5807C398.984 19.5807 398.527 19.716 398.088 19.9867C397.649 20.2574 397.253 20.7287 396.898 21.4007V25.1947H395.274V18.3207ZM402.591 21.7647C402.591 21.1954 402.684 20.6867 402.871 20.2387C403.067 19.7907 403.323 19.4127 403.641 19.1047C403.958 18.7967 404.327 18.5634 404.747 18.4047C405.167 18.2367 405.601 18.1527 406.049 18.1527C406.497 18.1527 406.931 18.2367 407.351 18.4047C407.771 18.5634 408.139 18.7967 408.457 19.1047C408.774 19.4127 409.026 19.7907 409.213 20.2387C409.409 20.6867 409.507 21.1954 409.507 21.7647C409.507 22.334 409.409 22.8427 409.213 23.2907C409.026 23.7387 408.774 24.1167 408.457 24.4247C408.139 24.7327 407.771 24.966 407.351 25.1247C406.931 25.2834 406.497 25.3627 406.049 25.3627C405.601 25.3627 405.167 25.2834 404.747 25.1247C404.327 24.966 403.958 24.7327 403.641 24.4247C403.323 24.1167 403.067 23.7387 402.871 23.2907C402.684 22.8427 402.591 22.334 402.591 21.7647ZM404.257 21.7647C404.257 22.4554 404.415 23.0107 404.733 23.4307C405.05 23.8414 405.489 24.0467 406.049 24.0467C406.609 24.0467 407.047 23.8414 407.365 23.4307C407.682 23.0107 407.841 22.4554 407.841 21.7647C407.841 21.0647 407.682 20.5094 407.365 20.0987C407.047 19.6787 406.609 19.4687 406.049 19.4687C405.489 19.4687 405.05 19.6787 404.733 20.0987C404.415 20.5094 404.257 21.0647 404.257 21.7647ZM410.327 18.3207H411.923L412.553 21.8907C412.609 22.2174 412.656 22.544 412.693 22.8707C412.74 23.1974 412.787 23.5287 412.833 23.8647H412.889C412.936 23.5287 412.987 23.1974 413.043 22.8707C413.099 22.544 413.165 22.2174 413.239 21.8907L413.883 18.9927H415.087L415.731 21.8907C415.806 22.2174 415.871 22.544 415.927 22.8707C415.993 23.1974 416.053 23.5287 416.109 23.8647H416.165C416.221 23.5287 416.268 23.1974 416.305 22.8707C416.352 22.544 416.399 22.2174 416.445 21.8907L417.075 18.3207H418.559L417.285 25.1947H415.395L414.793 22.3247C414.737 21.998 414.681 21.6714 414.625 21.3447C414.579 21.018 414.527 20.6774 414.471 20.3227H414.415C414.369 20.5934 414.322 20.8874 414.275 21.2047C414.238 21.5127 414.182 21.8907 414.107 22.3387L413.519 25.1947H411.657L410.327 18.3207ZM428.208 18.3207H432.8V25.1947H431.19V19.5947H428.208V18.3207ZM431.876 17.1167C431.55 17.1167 431.274 17.0187 431.05 16.8227C430.836 16.6267 430.728 16.3654 430.728 16.0387C430.728 15.712 430.836 15.4507 431.05 15.2547C431.274 15.0494 431.55 14.9467 431.876 14.9467C432.212 14.9467 432.488 15.0494 432.702 15.2547C432.917 15.4507 433.024 15.712 433.024 16.0387C433.024 16.3654 432.917 16.6267 432.702 16.8227C432.488 17.0187 432.212 17.1167 431.876 17.1167ZM436.575 18.3207H437.905L438.031 19.3567H438.087C438.413 19.03 438.773 18.75 439.165 18.5167C439.566 18.274 440.033 18.1527 440.565 18.1527C441.358 18.1527 441.941 18.3954 442.315 18.8807C442.688 19.3567 442.875 20.0427 442.875 20.9387V25.1947H441.251V21.1487C441.251 20.5887 441.153 20.1827 440.957 19.9307C440.77 19.6694 440.439 19.5387 439.963 19.5387C439.627 19.5387 439.328 19.618 439.067 19.7767C438.805 19.9354 438.516 20.178 438.199 20.5047V25.1947H436.575V18.3207ZM452.958 21.7647C452.958 21.2047 453.042 20.7007 453.21 20.2527C453.378 19.8047 453.602 19.4267 453.882 19.1187C454.171 18.8107 454.498 18.5727 454.862 18.4047C455.226 18.2367 455.604 18.1527 455.996 18.1527C456.407 18.1527 456.757 18.2274 457.046 18.3767C457.345 18.5167 457.634 18.7127 457.914 18.9647L457.844 17.8027V15.3107H459.468V25.1947H458.138L458.012 24.3967H457.97C457.699 24.6674 457.382 24.896 457.018 25.0827C456.663 25.2694 456.29 25.3627 455.898 25.3627C455.459 25.3627 455.058 25.2834 454.694 25.1247C454.33 24.9567 454.017 24.7187 453.756 24.4107C453.504 24.1027 453.308 23.7294 453.168 23.2907C453.028 22.8427 452.958 22.334 452.958 21.7647ZM454.624 21.7507C454.624 22.4974 454.769 23.0667 455.058 23.4587C455.347 23.8414 455.758 24.0327 456.29 24.0327C456.859 24.0327 457.377 23.7574 457.844 23.2067V20.1127C457.601 19.8794 457.359 19.716 457.116 19.6227C456.873 19.5294 456.626 19.4827 456.374 19.4827C456.131 19.4827 455.903 19.534 455.688 19.6367C455.483 19.7394 455.301 19.8887 455.142 20.0847C454.983 20.2714 454.857 20.5047 454.764 20.7847C454.671 21.0647 454.624 21.3867 454.624 21.7507ZM461.604 23.3467C461.604 22.964 461.693 22.628 461.87 22.3387C462.048 22.04 462.328 21.788 462.71 21.5827C463.093 21.3774 463.583 21.2094 464.18 21.0787C464.778 20.948 465.501 20.8547 466.35 20.7987C466.322 20.4067 466.182 20.0847 465.93 19.8327C465.678 19.5807 465.272 19.4547 464.712 19.4547C464.32 19.4547 463.933 19.5294 463.55 19.6787C463.177 19.8187 462.813 19.9867 462.458 20.1827L461.87 19.1047C462.29 18.862 462.771 18.6427 463.312 18.4467C463.854 18.2507 464.418 18.1527 465.006 18.1527C465.968 18.1527 466.7 18.4094 467.204 18.9227C467.708 19.4267 467.96 20.1594 467.96 21.1207V25.1947H466.644L466.518 24.3407H466.476C466.112 24.6207 465.706 24.8634 465.258 25.0687C464.82 25.2647 464.367 25.3627 463.9 25.3627C463.564 25.3627 463.256 25.3114 462.976 25.2087C462.696 25.1154 462.454 24.98 462.248 24.8027C462.043 24.6254 461.884 24.4154 461.772 24.1727C461.66 23.9207 461.604 23.6454 461.604 23.3467ZM463.158 23.2207C463.158 23.5287 463.275 23.7527 463.508 23.8927C463.751 24.0327 464.045 24.1027 464.39 24.1027C464.736 24.1027 465.067 24.028 465.384 23.8787C465.711 23.72 466.033 23.5147 466.35 23.2627V21.8067C465.734 21.8534 465.221 21.9187 464.81 22.0027C464.4 22.0774 464.073 22.1754 463.83 22.2967C463.588 22.418 463.415 22.558 463.312 22.7167C463.21 22.866 463.158 23.034 463.158 23.2207ZM471.665 19.5947H469.831V18.3907L471.735 18.3207L471.945 16.4447H473.275V18.3207H476.411V19.5947H473.275V22.4227C473.275 22.992 473.392 23.412 473.625 23.6827C473.858 23.944 474.269 24.0747 474.857 24.0747C475.156 24.0747 475.426 24.0514 475.669 24.0047C475.912 23.9487 476.145 23.8787 476.369 23.7947L476.677 24.9707C476.369 25.0734 476.028 25.162 475.655 25.2367C475.282 25.3207 474.885 25.3627 474.465 25.3627C473.942 25.3627 473.504 25.2927 473.149 25.1527C472.794 25.0127 472.505 24.8167 472.281 24.5647C472.066 24.3034 471.908 23.9907 471.805 23.6267C471.712 23.2627 471.665 22.8614 471.665 22.4227V19.5947ZM478.393 23.3467C478.393 22.964 478.482 22.628 478.659 22.3387C478.837 22.04 479.117 21.788 479.499 21.5827C479.882 21.3774 480.372 21.2094 480.969 21.0787C481.567 20.948 482.29 20.8547 483.139 20.7987C483.111 20.4067 482.971 20.0847 482.719 19.8327C482.467 19.5807 482.061 19.4547 481.501 19.4547C481.109 19.4547 480.722 19.5294 480.339 19.6787C479.966 19.8187 479.602 19.9867 479.247 20.1827L478.659 19.1047C479.079 18.862 479.56 18.6427 480.101 18.4467C480.643 18.2507 481.207 18.1527 481.795 18.1527C482.757 18.1527 483.489 18.4094 483.993 18.9227C484.497 19.4267 484.749 20.1594 484.749 21.1207V25.1947H483.433L483.307 24.3407H483.265C482.901 24.6207 482.495 24.8634 482.047 25.0687C481.609 25.2647 481.156 25.3627 480.689 25.3627C480.353 25.3627 480.045 25.3114 479.765 25.2087C479.485 25.1154 479.243 24.98 479.037 24.8027C478.832 24.6254 478.673 24.4154 478.561 24.1727C478.449 23.9207 478.393 23.6454 478.393 23.3467ZM479.947 23.2207C479.947 23.5287 480.064 23.7527 480.297 23.8927C480.54 24.0327 480.834 24.1027 481.179 24.1027C481.525 24.1027 481.856 24.028 482.173 23.8787C482.5 23.72 482.822 23.5147 483.139 23.2627V21.8067C482.523 21.8534 482.01 21.9187 481.599 22.0027C481.189 22.0774 480.862 22.1754 480.619 22.2967C480.377 22.418 480.204 22.558 480.101 22.7167C479.999 22.866 479.947 23.034 479.947 23.2207Z" fill="#9B51E0"/>
</svg>
