<svg width="471" height="277" viewBox="0 0 471 277" version="1.1" xmlns="http://www.w3.org/2000/svg" xmlns:xlink="http://www.w3.org/1999/xlink">
<title>s1m1_representativity</title>
<desc>Created using Figma</desc>
<g id="Canvas" transform="translate(285 152)">
<rect x="-285" y="-152" width="471" height="277" fill="#FFFFFF"/>
<g id="Line">
<use xlink:href="#path0_stroke" transform="matrix(-1.92554e-16 -1 1 -1.92554e-16 -179 99.0022)"/>
</g>
<g id="Line 2">
<use xlink:href="#path1_stroke" transform="translate(-179 99)"/>
</g>
<g id="Polygon">
<use xlink:href="#path2_fill" transform="translate(-185 -140)"/>
</g>
<g id="Polygon">
<use xlink:href="#path2_fill" transform="matrix(1.66533e-16 1 -1 1.66533e-16 173 93)"/>
</g>
<g id="Sample representativity">
<use xlink:href="#path3_fill" transform="translate(-84 109)"/>
</g>
<g id="+">
<use xlink:href="#path4_fill" transform="translate(-185 -158)"/>
</g>
<g id="+">
<use xlink:href="#path4_fill" transform="translate(176 87)"/>
</g>
<g id="Sampling error">
<use xlink:href="#path5_fill" transform="translate(-285 -36)"/>
</g>
<g id="Line 3">
<use xlink:href="#path6_stroke" transform="matrix(0.83378 0.552097 -0.552097 0.83378 -157 -117)"/>
</g>
</g>
<defs>
<path id="path0_stroke" d="M 0 0L 228.002 0L 228.002 -2L 0 -2L 0 0Z"/>
<path id="path1_stroke" d="M 0 0L 341 0L 341 -2L 0 -2L 0 0Z"/>
<path id="path2_fill" d="M 5 0L 9.33013 11.25L 0.669873 11.25L 5 0Z"/>
<path id="path3_fill" d="M 6.16211 10.3887C 6.16211 10.0013 6.02539 9.70508 5.75195 9.5C 5.47852 9.29036 4.98633 9.07161 4.27539 8.84375C 3.56445 8.61133 3.00163 8.38346 2.58691 8.16016C 1.45671 7.54948 0.891602 6.72689 0.891602 5.69238C 0.891602 5.15462 1.04199 4.67611 1.34277 4.25684C 1.64811 3.83301 2.08333 3.5026 2.64844 3.26562C 3.2181 3.02865 3.85612 2.91016 4.5625 2.91016C 5.27344 2.91016 5.9069 3.04004 6.46289 3.2998C 7.01888 3.55501 7.44954 3.91732 7.75488 4.38672C 8.06478 4.85612 8.21973 5.38932 8.21973 5.98633L 6.16895 5.98633C 6.16895 5.5306 6.02539 5.17741 5.73828 4.92676C 5.45117 4.67155 5.04785 4.54395 4.52832 4.54395C 4.02702 4.54395 3.63737 4.65104 3.35938 4.86523C 3.08138 5.07487 2.94238 5.35286 2.94238 5.69922C 2.94238 6.02279 3.10417 6.29395 3.42773 6.5127C 3.75586 6.73145 4.23665 6.93652 4.87012 7.12793C 6.03678 7.47884 6.88672 7.91406 7.41992 8.43359C 7.95312 8.95312 8.21973 9.60026 8.21973 10.375C 8.21973 11.2363 7.89388 11.9131 7.24219 12.4053C 6.59049 12.8929 5.71322 13.1367 4.61035 13.1367C 3.84473 13.1367 3.14746 12.9977 2.51855 12.7197C 1.88965 12.4372 1.40885 12.0521 1.07617 11.5645C 0.748047 11.0768 0.583984 10.5117 0.583984 9.86914L 2.6416 9.86914C 2.6416 10.9674 3.29785 11.5166 4.61035 11.5166C 5.09798 11.5166 5.47852 11.4186 5.75195 11.2227C 6.02539 11.0221 6.16211 10.7441 6.16211 10.3887ZM 13.7705 13C 13.6794 12.8223 13.6133 12.6012 13.5723 12.3369C 13.0938 12.8701 12.4717 13.1367 11.7061 13.1367C 10.9814 13.1367 10.3799 12.9271 9.90137 12.5078C 9.42741 12.0885 9.19043 11.5599 9.19043 10.9219C 9.19043 10.138 9.47982 9.53646 10.0586 9.11719C 10.6419 8.69792 11.4827 8.486 12.5811 8.48145L 13.4902 8.48145L 13.4902 8.05762C 13.4902 7.71582 13.4014 7.44238 13.2236 7.2373C 13.0505 7.03223 12.7747 6.92969 12.3965 6.92969C 12.0638 6.92969 11.8018 7.00944 11.6104 7.16895C 11.4235 7.32845 11.3301 7.5472 11.3301 7.8252L 9.35449 7.8252C 9.35449 7.39681 9.48665 7.00033 9.75098 6.63574C 10.0153 6.27116 10.389 5.98633 10.8721 5.78125C 11.3551 5.57161 11.8975 5.4668 12.499 5.4668C 13.4105 5.4668 14.1328 5.69694 14.666 6.15723C 15.2038 6.61296 15.4727 7.25553 15.4727 8.08496L 15.4727 11.291C 15.4772 11.9928 15.5752 12.5238 15.7666 12.8838L 15.7666 13L 13.7705 13ZM 12.1367 11.626C 12.4284 11.626 12.6973 11.5622 12.9434 11.4346C 13.1895 11.3024 13.3717 11.127 13.4902 10.9082L 13.4902 9.63672L 12.752 9.63672C 11.763 9.63672 11.2367 9.97852 11.1729 10.6621L 11.166 10.7783C 11.166 11.0244 11.2526 11.2272 11.4258 11.3867C 11.599 11.5462 11.8359 11.626 12.1367 11.626ZM 18.8428 5.60352L 18.9043 6.43066C 19.4284 5.78809 20.137 5.4668 21.0303 5.4668C 21.9827 5.4668 22.6367 5.84277 22.9922 6.59473C 23.5117 5.84277 24.2523 5.4668 25.2139 5.4668C 26.016 5.4668 26.613 5.7015 27.0049 6.1709C 27.3968 6.63574 27.5928 7.33757 27.5928 8.27637L 27.5928 13L 25.6104 13L 25.6104 8.2832C 25.6104 7.86393 25.5283 7.55859 25.3643 7.36719C 25.2002 7.17122 24.9108 7.07324 24.4961 7.07324C 23.9036 7.07324 23.4935 7.35579 23.2656 7.9209L 23.2725 13L 21.2969 13L 21.2969 8.29004C 21.2969 7.86165 21.2126 7.55176 21.0439 7.36035C 20.8753 7.16895 20.5882 7.07324 20.1826 7.07324C 19.6221 7.07324 19.2165 7.30566 18.9658 7.77051L 18.9658 13L 16.9902 13L 16.9902 5.60352L 18.8428 5.60352ZM 35.7754 9.37012C 35.7754 10.5094 35.5156 11.4232 34.9961 12.1113C 34.4811 12.7949 33.7839 13.1367 32.9043 13.1367C 32.1569 13.1367 31.5531 12.877 31.0928 12.3574L 31.0928 15.8438L 29.1172 15.8438L 29.1172 5.60352L 30.9492 5.60352L 31.0176 6.32812C 31.4961 5.75391 32.1204 5.4668 32.8906 5.4668C 33.8021 5.4668 34.5107 5.80404 35.0166 6.47852C 35.5225 7.15299 35.7754 8.08268 35.7754 9.26758L 35.7754 9.37012ZM 33.7998 9.22656C 33.7998 8.53841 33.6768 8.00749 33.4307 7.63379C 33.1891 7.26009 32.8359 7.07324 32.3711 7.07324C 31.7513 7.07324 31.3252 7.31022 31.0928 7.78418L 31.0928 10.8125C 31.3343 11.3001 31.765 11.5439 32.3848 11.5439C 33.3281 11.5439 33.7998 10.7715 33.7998 9.22656ZM 39.0908 13L 37.1084 13L 37.1084 2.5L 39.0908 2.5L 39.0908 13ZM 44.1289 13.1367C 43.0443 13.1367 42.1602 12.804 41.4766 12.1387C 40.7975 11.4733 40.458 10.5869 40.458 9.47949L 40.458 9.28809C 40.458 8.54525 40.6016 7.88216 40.8887 7.29883C 41.1758 6.71094 41.5814 6.25977 42.1055 5.94531C 42.6341 5.6263 43.2357 5.4668 43.9102 5.4668C 44.9219 5.4668 45.7171 5.78581 46.2959 6.42383C 46.8792 7.06185 47.1709 7.96647 47.1709 9.1377L 47.1709 9.94434L 42.4609 9.94434C 42.5247 10.4274 42.7161 10.8148 43.0352 11.1064C 43.3587 11.3981 43.7666 11.5439 44.2588 11.5439C 45.0199 11.5439 45.6146 11.2682 46.043 10.7168L 47.0137 11.8037C 46.7174 12.223 46.3164 12.5511 45.8105 12.7881C 45.3047 13.0205 44.7441 13.1367 44.1289 13.1367ZM 43.9033 7.06641C 43.5114 7.06641 43.1924 7.19857 42.9463 7.46289C 42.7048 7.72721 42.5498 8.10547 42.4814 8.59766L 45.2295 8.59766L 45.2295 8.44043C 45.2204 8.00293 45.1019 7.66569 44.874 7.42871C 44.6462 7.18717 44.3226 7.06641 43.9033 7.06641ZM 55.9414 7.45605C 55.6725 7.4196 55.4355 7.40137 55.2305 7.40137C 54.4831 7.40137 53.9932 7.6543 53.7607 8.16016L 53.7607 13L 51.7852 13L 51.7852 5.60352L 53.6514 5.60352L 53.7061 6.48535C 54.1025 5.80632 54.6517 5.4668 55.3535 5.4668C 55.5723 5.4668 55.7773 5.49642 55.9688 5.55566L 55.9414 7.45605ZM 60.166 13.1367C 59.0814 13.1367 58.1973 12.804 57.5137 12.1387C 56.8346 11.4733 56.4951 10.5869 56.4951 9.47949L 56.4951 9.28809C 56.4951 8.54525 56.6387 7.88216 56.9258 7.29883C 57.2129 6.71094 57.6185 6.25977 58.1426 5.94531C 58.6712 5.6263 59.2728 5.4668 59.9473 5.4668C 60.959 5.4668 61.7542 5.78581 62.333 6.42383C 62.9163 7.06185 63.208 7.96647 63.208 9.1377L 63.208 9.94434L 58.498 9.94434C 58.5618 10.4274 58.7533 10.8148 59.0723 11.1064C 59.3958 11.3981 59.8037 11.5439 60.2959 11.5439C 61.057 11.5439 61.6517 11.2682 62.0801 10.7168L 63.0508 11.8037C 62.7546 12.223 62.3535 12.5511 61.8477 12.7881C 61.3418 13.0205 60.7812 13.1367 60.166 13.1367ZM 59.9404 7.06641C 59.5485 7.06641 59.2295 7.19857 58.9834 7.46289C 58.7419 7.72721 58.5869 8.10547 58.5186 8.59766L 61.2666 8.59766L 61.2666 8.44043C 61.2575 8.00293 61.139 7.66569 60.9111 7.42871C 60.6833 7.18717 60.3597 7.06641 59.9404 7.06641ZM 70.9941 9.37012C 70.9941 10.5094 70.7344 11.4232 70.2148 12.1113C 69.6999 12.7949 69.0026 13.1367 68.123 13.1367C 67.3757 13.1367 66.7718 12.877 66.3115 12.3574L 66.3115 15.8438L 64.3359 15.8438L 64.3359 5.60352L 66.168 5.60352L 66.2363 6.32812C 66.7148 5.75391 67.3392 5.4668 68.1094 5.4668C 69.0208 5.4668 69.7295 5.80404 70.2354 6.47852C 70.7412 7.15299 70.9941 8.08268 70.9941 9.26758L 70.9941 9.37012ZM 69.0186 9.22656C 69.0186 8.53841 68.8955 8.00749 68.6494 7.63379C 68.4079 7.26009 68.0547 7.07324 67.5898 7.07324C 66.9701 7.07324 66.5439 7.31022 66.3115 7.78418L 66.3115 10.8125C 66.5531 11.3001 66.9837 11.5439 67.6035 11.5439C 68.5469 11.5439 69.0186 10.7715 69.0186 9.22656ZM 76.3809 7.45605C 76.112 7.4196 75.875 7.40137 75.6699 7.40137C 74.9225 7.40137 74.4326 7.6543 74.2002 8.16016L 74.2002 13L 72.2246 13L 72.2246 5.60352L 74.0908 5.60352L 74.1455 6.48535C 74.542 5.80632 75.0911 5.4668 75.793 5.4668C 76.0117 5.4668 76.2168 5.49642 76.4082 5.55566L 76.3809 7.45605ZM 80.6055 13.1367C 79.5208 13.1367 78.6367 12.804 77.9531 12.1387C 77.2741 11.4733 76.9346 10.5869 76.9346 9.47949L 76.9346 9.28809C 76.9346 8.54525 77.0781 7.88216 77.3652 7.29883C 77.6523 6.71094 78.0579 6.25977 78.582 5.94531C 79.1107 5.6263 79.7122 5.4668 80.3867 5.4668C 81.3984 5.4668 82.1937 5.78581 82.7725 6.42383C 83.3558 7.06185 83.6475 7.96647 83.6475 9.1377L 83.6475 9.94434L 78.9375 9.94434C 79.0013 10.4274 79.1927 10.8148 79.5117 11.1064C 79.8353 11.3981 80.2432 11.5439 80.7354 11.5439C 81.4964 11.5439 82.0911 11.2682 82.5195 10.7168L 83.4902 11.8037C 83.194 12.223 82.793 12.5511 82.2871 12.7881C 81.7812 13.0205 81.2207 13.1367 80.6055 13.1367ZM 80.3799 7.06641C 79.988 7.06641 79.6689 7.19857 79.4229 7.46289C 79.1813 7.72721 79.0264 8.10547 78.958 8.59766L 81.7061 8.59766L 81.7061 8.44043C 81.6969 8.00293 81.5785 7.66569 81.3506 7.42871C 81.1227 7.18717 80.7992 7.06641 80.3799 7.06641ZM 88.7812 10.9561C 88.7812 10.7145 88.6605 10.5254 88.4189 10.3887C 88.182 10.2474 87.7992 10.1221 87.2705 10.0127C 85.5114 9.64355 84.6318 8.89616 84.6318 7.77051C 84.6318 7.11426 84.903 6.56738 85.4453 6.12988C 85.9922 5.68783 86.7054 5.4668 87.585 5.4668C 88.5238 5.4668 89.2734 5.68783 89.834 6.12988C 90.3991 6.57194 90.6816 7.14616 90.6816 7.85254L 88.7061 7.85254C 88.7061 7.56999 88.6149 7.33757 88.4326 7.15527C 88.2503 6.96842 87.9655 6.875 87.5781 6.875C 87.2454 6.875 86.988 6.9502 86.8057 7.10059C 86.6234 7.25098 86.5322 7.44238 86.5322 7.6748C 86.5322 7.89355 86.6348 8.07129 86.8398 8.20801C 87.0495 8.34017 87.4004 8.45638 87.8926 8.55664C 88.3848 8.65234 88.7995 8.76172 89.1367 8.88477C 90.1803 9.26758 90.7021 9.93066 90.7021 10.874C 90.7021 11.5485 90.4128 12.0954 89.834 12.5146C 89.2552 12.9294 88.5078 13.1367 87.5918 13.1367C 86.972 13.1367 86.4206 13.0273 85.9375 12.8086C 85.459 12.5853 85.083 12.2822 84.8096 11.8994C 84.5361 11.512 84.3994 11.0951 84.3994 10.6484L 86.2725 10.6484C 86.2907 10.9993 86.4206 11.2682 86.6621 11.4551C 86.9036 11.6419 87.2272 11.7354 87.6328 11.7354C 88.0111 11.7354 88.2959 11.6647 88.4873 11.5234C 88.6833 11.3776 88.7812 11.1885 88.7812 10.9561ZM 95.3848 13.1367C 94.3001 13.1367 93.416 12.804 92.7324 12.1387C 92.0534 11.4733 91.7139 10.5869 91.7139 9.47949L 91.7139 9.28809C 91.7139 8.54525 91.8574 7.88216 92.1445 7.29883C 92.4316 6.71094 92.8372 6.25977 93.3613 5.94531C 93.89 5.6263 94.4915 5.4668 95.166 5.4668C 96.1777 5.4668 96.973 5.78581 97.5518 6.42383C 98.1351 7.06185 98.4268 7.96647 98.4268 9.1377L 98.4268 9.94434L 93.7168 9.94434C 93.7806 10.4274 93.972 10.8148 94.291 11.1064C 94.6146 11.3981 95.0225 11.5439 95.5146 11.5439C 96.2757 11.5439 96.8704 11.2682 97.2988 10.7168L 98.2695 11.8037C 97.9733 12.223 97.5723 12.5511 97.0664 12.7881C 96.5605 13.0205 96 13.1367 95.3848 13.1367ZM 95.1592 7.06641C 94.7673 7.06641 94.4482 7.19857 94.2021 7.46289C 93.9606 7.72721 93.8057 8.10547 93.7373 8.59766L 96.4854 8.59766L 96.4854 8.44043C 96.4762 8.00293 96.3577 7.66569 96.1299 7.42871C 95.902 7.18717 95.5785 7.06641 95.1592 7.06641ZM 101.373 5.60352L 101.435 6.45801C 101.963 5.7972 102.672 5.4668 103.561 5.4668C 104.344 5.4668 104.928 5.69694 105.311 6.15723C 105.693 6.61751 105.889 7.30566 105.898 8.22168L 105.898 13L 103.923 13L 103.923 8.26953C 103.923 7.85026 103.832 7.5472 103.649 7.36035C 103.467 7.16895 103.164 7.07324 102.74 7.07324C 102.184 7.07324 101.767 7.31022 101.489 7.78418L 101.489 13L 99.5137 13L 99.5137 5.60352L 101.373 5.60352ZM 109.768 3.78516L 109.768 5.60352L 111.032 5.60352L 111.032 7.05273L 109.768 7.05273L 109.768 10.7441C 109.768 11.0176 109.82 11.2135 109.925 11.332C 110.03 11.4505 110.23 11.5098 110.526 11.5098C 110.745 11.5098 110.939 11.4938 111.107 11.4619L 111.107 12.959C 110.72 13.0775 110.321 13.1367 109.911 13.1367C 108.526 13.1367 107.819 12.4372 107.792 11.0381L 107.792 7.05273L 106.712 7.05273L 106.712 5.60352L 107.792 5.60352L 107.792 3.78516L 109.768 3.78516ZM 116.419 13C 116.328 12.8223 116.262 12.6012 116.221 12.3369C 115.742 12.8701 115.12 13.1367 114.354 13.1367C 113.63 13.1367 113.028 12.9271 112.55 12.5078C 112.076 12.0885 111.839 11.5599 111.839 10.9219C 111.839 10.138 112.128 9.53646 112.707 9.11719C 113.29 8.69792 114.131 8.486 115.229 8.48145L 116.139 8.48145L 116.139 8.05762C 116.139 7.71582 116.05 7.44238 115.872 7.2373C 115.699 7.03223 115.423 6.92969 115.045 6.92969C 114.712 6.92969 114.45 7.00944 114.259 7.16895C 114.072 7.32845 113.979 7.5472 113.979 7.8252L 112.003 7.8252C 112.003 7.39681 112.135 7.00033 112.399 6.63574C 112.664 6.27116 113.037 5.98633 113.521 5.78125C 114.004 5.57161 114.546 5.4668 115.147 5.4668C 116.059 5.4668 116.781 5.69694 117.314 6.15723C 117.852 6.61296 118.121 7.25553 118.121 8.08496L 118.121 11.291C 118.126 11.9928 118.224 12.5238 118.415 12.8838L 118.415 13L 116.419 13ZM 114.785 11.626C 115.077 11.626 115.346 11.5622 115.592 11.4346C 115.838 11.3024 116.02 11.127 116.139 10.9082L 116.139 9.63672L 115.4 9.63672C 114.411 9.63672 113.885 9.97852 113.821 10.6621L 113.814 10.7783C 113.814 11.0244 113.901 11.2272 114.074 11.3867C 114.247 11.5462 114.484 11.626 114.785 11.626ZM 122.004 3.78516L 122.004 5.60352L 123.269 5.60352L 123.269 7.05273L 122.004 7.05273L 122.004 10.7441C 122.004 11.0176 122.056 11.2135 122.161 11.332C 122.266 11.4505 122.466 11.5098 122.763 11.5098C 122.981 11.5098 123.175 11.4938 123.344 11.4619L 123.344 12.959C 122.956 13.0775 122.558 13.1367 122.147 13.1367C 120.762 13.1367 120.056 12.4372 120.028 11.0381L 120.028 7.05273L 118.948 7.05273L 118.948 5.60352L 120.028 5.60352L 120.028 3.78516L 122.004 3.78516ZM 126.454 13L 124.472 13L 124.472 5.60352L 126.454 5.60352L 126.454 13ZM 124.355 3.68945C 124.355 3.39323 124.453 3.14941 124.649 2.95801C 124.85 2.7666 125.121 2.6709 125.463 2.6709C 125.8 2.6709 126.069 2.7666 126.27 2.95801C 126.47 3.14941 126.57 3.39323 126.57 3.68945C 126.57 3.99023 126.468 4.23633 126.263 4.42773C 126.062 4.61914 125.796 4.71484 125.463 4.71484C 125.13 4.71484 124.861 4.61914 124.656 4.42773C 124.456 4.23633 124.355 3.99023 124.355 3.68945ZM 130.856 10.5869L 132.23 5.60352L 134.295 5.60352L 131.8 13L 129.913 13L 127.418 5.60352L 129.482 5.60352L 130.856 10.5869ZM 137.255 13L 135.272 13L 135.272 5.60352L 137.255 5.60352L 137.255 13ZM 135.156 3.68945C 135.156 3.39323 135.254 3.14941 135.45 2.95801C 135.651 2.7666 135.922 2.6709 136.264 2.6709C 136.601 2.6709 136.87 2.7666 137.07 2.95801C 137.271 3.14941 137.371 3.39323 137.371 3.68945C 137.371 3.99023 137.269 4.23633 137.063 4.42773C 136.863 4.61914 136.596 4.71484 136.264 4.71484C 135.931 4.71484 135.662 4.61914 135.457 4.42773C 135.257 4.23633 135.156 3.99023 135.156 3.68945ZM 141.254 3.78516L 141.254 5.60352L 142.519 5.60352L 142.519 7.05273L 141.254 7.05273L 141.254 10.7441C 141.254 11.0176 141.306 11.2135 141.411 11.332C 141.516 11.4505 141.716 11.5098 142.013 11.5098C 142.231 11.5098 142.425 11.4938 142.594 11.4619L 142.594 12.959C 142.206 13.0775 141.808 13.1367 141.397 13.1367C 140.012 13.1367 139.306 12.4372 139.278 11.0381L 139.278 7.05273L 138.198 7.05273L 138.198 5.60352L 139.278 5.60352L 139.278 3.78516L 141.254 3.78516ZM 146.381 10.2041L 147.748 5.60352L 149.867 5.60352L 146.894 14.1484L 146.729 14.5381C 146.287 15.5042 145.558 15.9873 144.542 15.9873C 144.255 15.9873 143.963 15.944 143.667 15.8574L 143.667 14.3604L 143.968 14.3672C 144.341 14.3672 144.619 14.3102 144.802 14.1963C 144.989 14.0824 145.134 13.8932 145.239 13.6289L 145.472 13.0205L 142.881 5.60352L 145.007 5.60352L 146.381 10.2041Z"/>
<path id="path4_fill" d="M 6.18652 9.83691L 9.35938 9.83691L 9.35938 12.1309L 6.18652 12.1309L 6.18652 15.7168L 3.76953 15.7168L 3.76953 12.1309L 0.587891 12.1309L 0.587891 9.83691L 3.76953 9.83691L 3.76953 6.40039L 6.18652 6.40039L 6.18652 9.83691Z"/>
<path id="path5_fill" d="M 6.30566 10.3887C 6.30566 10.0013 6.16895 9.70508 5.89551 9.5C 5.62207 9.29036 5.12988 9.07161 4.41895 8.84375C 3.70801 8.61133 3.14518 8.38346 2.73047 8.16016C 1.60026 7.54948 1.03516 6.72689 1.03516 5.69238C 1.03516 5.15462 1.18555 4.67611 1.48633 4.25684C 1.79167 3.83301 2.22689 3.5026 2.79199 3.26562C 3.36165 3.02865 3.99967 2.91016 4.70605 2.91016C 5.41699 2.91016 6.05046 3.04004 6.60645 3.2998C 7.16243 3.55501 7.5931 3.91732 7.89844 4.38672C 8.20833 4.85612 8.36328 5.38932 8.36328 5.98633L 6.3125 5.98633C 6.3125 5.5306 6.16895 5.17741 5.88184 4.92676C 5.59473 4.67155 5.19141 4.54395 4.67188 4.54395C 4.17057 4.54395 3.78092 4.65104 3.50293 4.86523C 3.22493 5.07487 3.08594 5.35286 3.08594 5.69922C 3.08594 6.02279 3.24772 6.29395 3.57129 6.5127C 3.89941 6.73145 4.38021 6.93652 5.01367 7.12793C 6.18034 7.47884 7.03027 7.91406 7.56348 8.43359C 8.09668 8.95312 8.36328 9.60026 8.36328 10.375C 8.36328 11.2363 8.03743 11.9131 7.38574 12.4053C 6.73405 12.8929 5.85677 13.1367 4.75391 13.1367C 3.98828 13.1367 3.29102 12.9977 2.66211 12.7197C 2.0332 12.4372 1.55241 12.0521 1.21973 11.5645C 0.891602 11.0768 0.727539 10.5117 0.727539 9.86914L 2.78516 9.86914C 2.78516 10.9674 3.44141 11.5166 4.75391 11.5166C 5.24154 11.5166 5.62207 11.4186 5.89551 11.2227C 6.16895 11.0221 6.30566 10.7441 6.30566 10.3887ZM 13.9141 13C 13.8229 12.8223 13.7568 12.6012 13.7158 12.3369C 13.2373 12.8701 12.6152 13.1367 11.8496 13.1367C 11.125 13.1367 10.5234 12.9271 10.0449 12.5078C 9.57096 12.0885 9.33398 11.5599 9.33398 10.9219C 9.33398 10.138 9.62337 9.53646 10.2021 9.11719C 10.7855 8.69792 11.6263 8.486 12.7246 8.48145L 13.6338 8.48145L 13.6338 8.05762C 13.6338 7.71582 13.5449 7.44238 13.3672 7.2373C 13.194 7.03223 12.9183 6.92969 12.54 6.92969C 12.2074 6.92969 11.9453 7.00944 11.7539 7.16895C 11.5671 7.32845 11.4736 7.5472 11.4736 7.8252L 9.49805 7.8252C 9.49805 7.39681 9.63021 7.00033 9.89453 6.63574C 10.1589 6.27116 10.5326 5.98633 11.0156 5.78125C 11.4987 5.57161 12.041 5.4668 12.6426 5.4668C 13.554 5.4668 14.2764 5.69694 14.8096 6.15723C 15.3473 6.61296 15.6162 7.25553 15.6162 8.08496L 15.6162 11.291C 15.6208 11.9928 15.7188 12.5238 15.9102 12.8838L 15.9102 13L 13.9141 13ZM 12.2803 11.626C 12.5719 11.626 12.8408 11.5622 13.0869 11.4346C 13.333 11.3024 13.5153 11.127 13.6338 10.9082L 13.6338 9.63672L 12.8955 9.63672C 11.9066 9.63672 11.3802 9.97852 11.3164 10.6621L 11.3096 10.7783C 11.3096 11.0244 11.3962 11.2272 11.5693 11.3867C 11.7425 11.5462 11.9795 11.626 12.2803 11.626ZM 18.9863 5.60352L 19.0479 6.43066C 19.5719 5.78809 20.2806 5.4668 21.1738 5.4668C 22.1263 5.4668 22.7803 5.84277 23.1357 6.59473C 23.6553 5.84277 24.3958 5.4668 25.3574 5.4668C 26.1595 5.4668 26.7565 5.7015 27.1484 6.1709C 27.5404 6.63574 27.7363 7.33757 27.7363 8.27637L 27.7363 13L 25.7539 13L 25.7539 8.2832C 25.7539 7.86393 25.6719 7.55859 25.5078 7.36719C 25.3438 7.17122 25.0544 7.07324 24.6396 7.07324C 24.0472 7.07324 23.637 7.35579 23.4092 7.9209L 23.416 13L 21.4404 13L 21.4404 8.29004C 21.4404 7.86165 21.3561 7.55176 21.1875 7.36035C 21.0189 7.16895 20.7318 7.07324 20.3262 7.07324C 19.7656 7.07324 19.36 7.30566 19.1094 7.77051L 19.1094 13L 17.1338 13L 17.1338 5.60352L 18.9863 5.60352ZM 35.9189 9.37012C 35.9189 10.5094 35.6592 11.4232 35.1396 12.1113C 34.6247 12.7949 33.9274 13.1367 33.0479 13.1367C 32.3005 13.1367 31.6966 12.877 31.2363 12.3574L 31.2363 15.8438L 29.2607 15.8438L 29.2607 5.60352L 31.0928 5.60352L 31.1611 6.32812C 31.6396 5.75391 32.264 5.4668 33.0342 5.4668C 33.9456 5.4668 34.6543 5.80404 35.1602 6.47852C 35.666 7.15299 35.9189 8.08268 35.9189 9.26758L 35.9189 9.37012ZM 33.9434 9.22656C 33.9434 8.53841 33.8203 8.00749 33.5742 7.63379C 33.3327 7.26009 32.9795 7.07324 32.5146 7.07324C 31.8949 7.07324 31.4688 7.31022 31.2363 7.78418L 31.2363 10.8125C 31.4779 11.3001 31.9085 11.5439 32.5283 11.5439C 33.4717 11.5439 33.9434 10.7715 33.9434 9.22656ZM 39.2344 13L 37.252 13L 37.252 2.5L 39.2344 2.5L 39.2344 13ZM 42.9531 13L 40.9707 13L 40.9707 5.60352L 42.9531 5.60352L 42.9531 13ZM 40.8545 3.68945C 40.8545 3.39323 40.9525 3.14941 41.1484 2.95801C 41.349 2.7666 41.6201 2.6709 41.9619 2.6709C 42.2992 2.6709 42.568 2.7666 42.7686 2.95801C 42.9691 3.14941 43.0693 3.39323 43.0693 3.68945C 43.0693 3.99023 42.9668 4.23633 42.7617 4.42773C 42.5612 4.61914 42.2946 4.71484 41.9619 4.71484C 41.6292 4.71484 41.3604 4.61914 41.1553 4.42773C 40.9548 4.23633 40.8545 3.99023 40.8545 3.68945ZM 46.4053 5.60352L 46.4668 6.45801C 46.9954 5.7972 47.7041 5.4668 48.5928 5.4668C 49.3766 5.4668 49.96 5.69694 50.3428 6.15723C 50.7256 6.61751 50.9215 7.30566 50.9307 8.22168L 50.9307 13L 48.9551 13L 48.9551 8.26953C 48.9551 7.85026 48.8639 7.5472 48.6816 7.36035C 48.4993 7.16895 48.1963 7.07324 47.7725 7.07324C 47.2165 7.07324 46.7995 7.31022 46.5215 7.78418L 46.5215 13L 44.5459 13L 44.5459 5.60352L 46.4053 5.60352ZM 52.1475 9.24707C 52.1475 8.1123 52.4163 7.19857 52.9541 6.50586C 53.4964 5.81315 54.2256 5.4668 55.1416 5.4668C 55.9528 5.4668 56.584 5.74479 57.0352 6.30078L 57.1172 5.60352L 58.9082 5.60352L 58.9082 12.7539C 58.9082 13.401 58.7601 13.9639 58.4639 14.4424C 58.1722 14.9209 57.7598 15.2855 57.2266 15.5361C 56.6934 15.7868 56.069 15.9121 55.3535 15.9121C 54.8112 15.9121 54.2826 15.8027 53.7676 15.584C 53.2526 15.3698 52.863 15.0918 52.5986 14.75L 53.4736 13.5469C 53.9658 14.0983 54.5628 14.374 55.2646 14.374C 55.7887 14.374 56.1966 14.2327 56.4883 13.9502C 56.7799 13.6722 56.9258 13.2757 56.9258 12.7607L 56.9258 12.3643C 56.4701 12.8792 55.8708 13.1367 55.1279 13.1367C 54.2393 13.1367 53.5192 12.7904 52.9678 12.0977C 52.4209 11.4004 52.1475 10.4775 52.1475 9.3291L 52.1475 9.24707ZM 54.123 9.39062C 54.123 10.0605 54.2575 10.5869 54.5264 10.9697C 54.7952 11.348 55.1644 11.5371 55.6338 11.5371C 56.2354 11.5371 56.666 11.3115 56.9258 10.8604L 56.9258 7.75C 56.6615 7.29883 56.2354 7.07324 55.6475 7.07324C 55.1735 7.07324 54.7998 7.26693 54.5264 7.6543C 54.2575 8.04167 54.123 8.62044 54.123 9.39062ZM 67.3232 13.1367C 66.2386 13.1367 65.3545 12.804 64.6709 12.1387C 63.9919 11.4733 63.6523 10.5869 63.6523 9.47949L 63.6523 9.28809C 63.6523 8.54525 63.7959 7.88216 64.083 7.29883C 64.3701 6.71094 64.7757 6.25977 65.2998 5.94531C 65.8285 5.6263 66.43 5.4668 67.1045 5.4668C 68.1162 5.4668 68.9115 5.78581 69.4902 6.42383C 70.0736 7.06185 70.3652 7.96647 70.3652 9.1377L 70.3652 9.94434L 65.6553 9.94434C 65.7191 10.4274 65.9105 10.8148 66.2295 11.1064C 66.5531 11.3981 66.9609 11.5439 67.4531 11.5439C 68.2142 11.5439 68.8089 11.2682 69.2373 10.7168L 70.208 11.8037C 69.9118 12.223 69.5107 12.5511 69.0049 12.7881C 68.499 13.0205 67.9385 13.1367 67.3232 13.1367ZM 67.0977 7.06641C 66.7057 7.06641 66.3867 7.19857 66.1406 7.46289C 65.8991 7.72721 65.7441 8.10547 65.6758 8.59766L 68.4238 8.59766L 68.4238 8.44043C 68.4147 8.00293 68.2962 7.66569 68.0684 7.42871C 67.8405 7.18717 67.5169 7.06641 67.0977 7.06641ZM 75.6494 7.45605C 75.3805 7.4196 75.1436 7.40137 74.9385 7.40137C 74.1911 7.40137 73.7012 7.6543 73.4688 8.16016L 73.4688 13L 71.4932 13L 71.4932 5.60352L 73.3594 5.60352L 73.4141 6.48535C 73.8105 5.80632 74.3597 5.4668 75.0615 5.4668C 75.2803 5.4668 75.4854 5.49642 75.6768 5.55566L 75.6494 7.45605ZM 80.7627 7.45605C 80.4938 7.4196 80.2568 7.40137 80.0518 7.40137C 79.3044 7.40137 78.8145 7.6543 78.582 8.16016L 78.582 13L 76.6064 13L 76.6064 5.60352L 78.4727 5.60352L 78.5273 6.48535C 78.9238 5.80632 79.473 5.4668 80.1748 5.4668C 80.3936 5.4668 80.5986 5.49642 80.79 5.55566L 80.7627 7.45605ZM 81.166 9.2334C 81.166 8.49967 81.3073 7.8457 81.5898 7.27148C 81.8724 6.69727 82.278 6.25293 82.8066 5.93848C 83.3398 5.62402 83.9574 5.4668 84.6592 5.4668C 85.6572 5.4668 86.4707 5.77214 87.0996 6.38281C 87.7331 6.99349 88.0863 7.82292 88.1592 8.87109L 88.1729 9.37695C 88.1729 10.5117 87.8561 11.4232 87.2227 12.1113C 86.5892 12.7949 85.7393 13.1367 84.6729 13.1367C 83.6064 13.1367 82.7542 12.7949 82.1162 12.1113C 81.4827 11.4277 81.166 10.498 81.166 9.32227L 81.166 9.2334ZM 83.1416 9.37695C 83.1416 10.0788 83.2738 10.6165 83.5381 10.9902C 83.8024 11.3594 84.1807 11.5439 84.6729 11.5439C 85.1514 11.5439 85.5251 11.3617 85.7939 10.9971C 86.0628 10.6279 86.1973 10.04 86.1973 9.2334C 86.1973 8.54525 86.0628 8.01204 85.7939 7.63379C 85.5251 7.25553 85.1468 7.06641 84.6592 7.06641C 84.1761 7.06641 83.8024 7.25553 83.5381 7.63379C 83.2738 8.00749 83.1416 8.58854 83.1416 9.37695ZM 93.5459 7.45605C 93.277 7.4196 93.04 7.40137 92.835 7.40137C 92.0876 7.40137 91.5977 7.6543 91.3652 8.16016L 91.3652 13L 89.3896 13L 89.3896 5.60352L 91.2559 5.60352L 91.3105 6.48535C 91.707 5.80632 92.2562 5.4668 92.958 5.4668C 93.1768 5.4668 93.3818 5.49642 93.5732 5.55566L 93.5459 7.45605Z"/>
<path id="path6_stroke" d="M 0 0L 355.01 0L 355.01 -2L 0 -2L 0 0Z"/>
</defs>
</svg>
