<svg width="314" height="214" viewBox="0 0 314 214" fill="none" xmlns="http://www.w3.org/2000/svg">
<rect width="314" height="214" fill="white"/>
<path d="M0 140L4.03314 139.38C26.6329 135.903 46.6647 122.921 59.0705 103.714L110.25 24.473C113.749 19.0567 118.504 14.5396 124.088 11.3155V11.3155C136.244 4.29666 151.21 4.04507 163.574 10.6915V10.6915C170.307 14.3111 175.879 19.7619 179.646 26.414L220.855 99.1903C233.236 121.054 255.169 135.832 280.082 139.094L287 140" transform="translate(13 10)" stroke="#0072B2" stroke-width="2"/>
<line y1="-0.5" x2="314" y2="-0.5" transform="translate(0 160)" stroke="black"/>
<line y1="-0.5" x2="11" y2="-0.5" transform="translate(158 166) rotate(-90)" stroke="black"/>
<line y1="-0.5" x2="11" y2="-0.5" transform="translate(123 166) rotate(-90)" stroke="black"/>
<line y1="-0.5" x2="11" y2="-0.5" transform="translate(88 166) rotate(-90)" stroke="#CC79A7"/>
<line y1="-0.5" x2="11" y2="-0.5" transform="translate(193 166) rotate(-90)" stroke="black"/>
<line y1="-0.5" x2="137" y2="-0.5" transform="translate(157 18) rotate(90)" stroke="black" stroke-dasharray="1 1"/>
<line y1="-0.5" x2="116" y2="-0.5" transform="translate(193 156) rotate(-90)" stroke="black" stroke-dasharray="1 1"/>
<line y1="-0.5" x2="116" y2="-0.5" transform="translate(123 156) rotate(-90)" stroke="black" stroke-dasharray="1 1"/>
<line y1="-0.5" x2="63" y2="-0.5" transform="translate(88 156) rotate(-90)" stroke="#CC79A7" stroke-dasharray="1 1"/>
<path d="M5.08447 12H3.25V4.92871L1.06006 5.60791V4.11621L4.8877 2.74512H5.08447V12ZM14.1172 5.21436C14.1172 5.66292 14.005 6.06071 13.7808 6.40771C13.5565 6.75472 13.2476 7.0319 12.854 7.23926C13.3026 7.45508 13.658 7.75342 13.9204 8.13428C14.1828 8.5109 14.314 8.95524 14.314 9.46729C14.314 10.2882 14.0347 10.9378 13.4761 11.416C12.9175 11.89 12.1579 12.127 11.1973 12.127C10.2367 12.127 9.47493 11.8879 8.91211 11.4097C8.34928 10.9315 8.06787 10.284 8.06787 9.46729C8.06787 8.95524 8.19906 8.50879 8.46143 8.12793C8.7238 7.74707 9.07715 7.45085 9.52148 7.23926C9.12793 7.0319 8.81901 6.75472 8.59473 6.40771C8.37467 6.06071 8.26465 5.66292 8.26465 5.21436C8.26465 4.42725 8.52702 3.80094 9.05176 3.33545C9.5765 2.86572 10.2896 2.63086 11.1909 2.63086C12.0881 2.63086 12.799 2.86361 13.3237 3.3291C13.8527 3.79036 14.1172 4.41878 14.1172 5.21436ZM12.4731 9.33398C12.4731 8.93197 12.3568 8.61035 12.124 8.36914C11.8913 8.12793 11.5781 8.00732 11.1846 8.00732C10.7952 8.00732 10.4842 8.12793 10.2515 8.36914C10.0187 8.60612 9.90234 8.92773 9.90234 9.33398C9.90234 9.72754 10.0166 10.0449 10.2451 10.2861C10.4736 10.5273 10.791 10.6479 11.1973 10.6479C11.5951 10.6479 11.9061 10.5316 12.1304 10.2988C12.3589 10.0661 12.4731 9.74447 12.4731 9.33398ZM12.2827 5.30322C12.2827 4.94352 12.1875 4.65576 11.9971 4.43994C11.8066 4.21989 11.5379 4.10986 11.1909 4.10986C10.8481 4.10986 10.5815 4.21566 10.3911 4.42725C10.2007 4.63883 10.1055 4.93083 10.1055 5.30322C10.1055 5.67139 10.2007 5.96761 10.3911 6.19189C10.5815 6.41618 10.8503 6.52832 11.1973 6.52832C11.5443 6.52832 11.8109 6.41618 11.9971 6.19189C12.1875 5.96761 12.2827 5.67139 12.2827 5.30322ZM21.7788 8.17871C21.7788 9.45671 21.5143 10.4342 20.9854 11.1113C20.4564 11.7884 19.682 12.127 18.6621 12.127C17.6549 12.127 16.8848 11.7948 16.3516 11.1304C15.8184 10.466 15.5454 9.51383 15.5327 8.27393V6.57275C15.5327 5.28206 15.7993 4.30241 16.3325 3.63379C16.87 2.96517 17.6423 2.63086 18.6494 2.63086C19.6566 2.63086 20.4268 2.96305 20.96 3.62744C21.4932 4.2876 21.7661 5.23763 21.7788 6.47754V8.17871ZM19.9443 6.3125C19.9443 5.54655 19.8385 4.99007 19.627 4.64307C19.4196 4.29183 19.0938 4.11621 18.6494 4.11621C18.2178 4.11621 17.8983 4.28337 17.6909 4.61768C17.4878 4.94775 17.3799 5.46615 17.3672 6.17285V8.41992C17.3672 9.17318 17.4688 9.73389 17.6719 10.1021C17.8792 10.466 18.2093 10.6479 18.6621 10.6479C19.1107 10.6479 19.4344 10.4723 19.6333 10.1211C19.8322 9.76986 19.9359 9.23242 19.9443 8.50879V6.3125ZM25.5938 9.24512L24.9336 9.90527V12H23.0991V2.25H24.9336V7.65186L25.2891 7.19482L27.0474 5.13184H29.25L26.7681 7.99463L29.4658 12H27.3584L25.5938 9.24512Z" transform="translate(143 170)" fill="black"/>
<path d="M6.82373 12H0.768066V11.1558L3.96729 7.60107C4.44124 7.06364 4.76709 6.62777 4.94482 6.29346C5.12679 5.95492 5.21777 5.60579 5.21777 5.24609C5.21777 4.76367 5.07178 4.368 4.77979 4.05908C4.48779 3.75016 4.09847 3.5957 3.61182 3.5957C3.02783 3.5957 2.57292 3.76286 2.24707 4.09717C1.92546 4.42725 1.76465 4.88851 1.76465 5.48096H0.590332C0.590332 4.63037 0.863281 3.94271 1.40918 3.41797C1.95931 2.89323 2.69352 2.63086 3.61182 2.63086C4.47087 2.63086 5.15007 2.85726 5.64941 3.31006C6.14876 3.75863 6.39844 4.35742 6.39844 5.10645C6.39844 6.01628 5.81868 7.09961 4.65918 8.35645L2.18359 11.0415H6.82373V12ZM14.1235 12H8.06787V11.1558L11.2671 7.60107C11.741 7.06364 12.0669 6.62777 12.2446 6.29346C12.4266 5.95492 12.5176 5.60579 12.5176 5.24609C12.5176 4.76367 12.3716 4.368 12.0796 4.05908C11.7876 3.75016 11.3983 3.5957 10.9116 3.5957C10.3276 3.5957 9.87272 3.76286 9.54688 4.09717C9.22526 4.42725 9.06445 4.88851 9.06445 5.48096H7.89014C7.89014 4.63037 8.16309 3.94271 8.70898 3.41797C9.25911 2.89323 9.99333 2.63086 10.9116 2.63086C11.7707 2.63086 12.4499 2.85726 12.9492 3.31006C13.4486 3.75863 13.6982 4.35742 13.6982 5.10645C13.6982 6.01628 13.1185 7.09961 11.959 8.35645L9.4834 11.0415H14.1235V12ZM21.1631 8.05811C21.1631 9.43343 20.9282 10.4554 20.4585 11.124C19.9888 11.7926 19.2546 12.127 18.2559 12.127C17.2699 12.127 16.5399 11.8011 16.0659 11.1494C15.592 10.4935 15.3465 9.51595 15.3296 8.2168V6.64893C15.3296 5.29053 15.5645 4.28125 16.0342 3.62109C16.5039 2.96094 17.2402 2.63086 18.2432 2.63086C19.2376 2.63086 19.9697 2.95036 20.4395 3.58936C20.9092 4.22412 21.1504 5.20589 21.1631 6.53467V8.05811ZM19.9888 6.45215C19.9888 5.45768 19.8491 4.73405 19.5698 4.28125C19.2905 3.82422 18.8483 3.5957 18.2432 3.5957C17.6423 3.5957 17.2043 3.8221 16.9292 4.2749C16.6541 4.7277 16.5124 5.42383 16.5039 6.36328V8.24219C16.5039 9.24089 16.6478 9.97933 16.9355 10.4575C17.2275 10.9315 17.6676 11.1685 18.2559 11.1685C18.8356 11.1685 19.2651 10.9442 19.5444 10.4956C19.828 10.047 19.9761 9.34033 19.9888 8.37549V6.45215ZM24.7051 8.81982L23.9688 9.58789V12H22.7944V2.25H23.9688V8.14697L24.5972 7.3916L26.7363 5.13184H28.1646L25.4922 8.00098L28.4756 12H27.0981L24.7051 8.81982Z" transform="translate(180 170)" fill="black"/>
<path d="M5.08447 12H3.25V4.92871L1.06006 5.60791V4.11621L4.8877 2.74512H5.08447V12ZM14.314 8.17871C14.314 9.45671 14.0495 10.4342 13.5205 11.1113C12.9915 11.7884 12.2171 12.127 11.1973 12.127C10.1901 12.127 9.41992 11.7948 8.88672 11.1304C8.35352 10.466 8.08057 9.51383 8.06787 8.27393V6.57275C8.06787 5.28206 8.33447 4.30241 8.86768 3.63379C9.40511 2.96517 10.1774 2.63086 11.1846 2.63086C12.1917 2.63086 12.9619 2.96305 13.4951 3.62744C14.0283 4.2876 14.3013 5.23763 14.314 6.47754V8.17871ZM12.4795 6.3125C12.4795 5.54655 12.3737 4.99007 12.1621 4.64307C11.9548 4.29183 11.6289 4.11621 11.1846 4.11621C10.7529 4.11621 10.4334 4.28337 10.2261 4.61768C10.0229 4.94775 9.91504 5.46615 9.90234 6.17285V8.41992C9.90234 9.17318 10.0039 9.73389 10.207 10.1021C10.4144 10.466 10.7445 10.6479 11.1973 10.6479C11.6458 10.6479 11.9696 10.4723 12.1685 10.1211C12.3674 9.76986 12.471 9.23242 12.4795 8.50879V6.3125ZM21.7788 8.17871C21.7788 9.45671 21.5143 10.4342 20.9854 11.1113C20.4564 11.7884 19.682 12.127 18.6621 12.127C17.6549 12.127 16.8848 11.7948 16.3516 11.1304C15.8184 10.466 15.5454 9.51383 15.5327 8.27393V6.57275C15.5327 5.28206 15.7993 4.30241 16.3325 3.63379C16.87 2.96517 17.6423 2.63086 18.6494 2.63086C19.6566 2.63086 20.4268 2.96305 20.96 3.62744C21.4932 4.2876 21.7661 5.23763 21.7788 6.47754V8.17871ZM19.9443 6.3125C19.9443 5.54655 19.8385 4.99007 19.627 4.64307C19.4196 4.29183 19.0938 4.11621 18.6494 4.11621C18.2178 4.11621 17.8983 4.28337 17.6909 4.61768C17.4878 4.94775 17.3799 5.46615 17.3672 6.17285V8.41992C17.3672 9.17318 17.4688 9.73389 17.6719 10.1021C17.8792 10.466 18.2093 10.6479 18.6621 10.6479C19.1107 10.6479 19.4344 10.4723 19.6333 10.1211C19.8322 9.76986 19.9359 9.23242 19.9443 8.50879V6.3125ZM25.5938 9.24512L24.9336 9.90527V12H23.0991V2.25H24.9336V7.65186L25.2891 7.19482L27.0474 5.13184H29.25L26.7681 7.99463L29.4658 12H27.3584L25.5938 9.24512Z" transform="translate(73 170)" fill="#CC79A7"/>
<path d="M4.62744 12H3.44678V4.17334L1.0791 5.04297V3.97656L4.44336 2.71338H4.62744V12ZM13.0254 8.896H14.3076V9.85449H13.0254V12H11.8447V9.85449H7.63623V9.1626L11.7749 2.75781H13.0254V8.896ZM8.96924 8.896H11.8447V4.36377L11.7051 4.61768L8.96924 8.896ZM21.1631 8.05811C21.1631 9.43343 20.9282 10.4554 20.4585 11.124C19.9888 11.7926 19.2546 12.127 18.2559 12.127C17.2699 12.127 16.5399 11.8011 16.0659 11.1494C15.592 10.4935 15.3465 9.51595 15.3296 8.2168V6.64893C15.3296 5.29053 15.5645 4.28125 16.0342 3.62109C16.5039 2.96094 17.2402 2.63086 18.2432 2.63086C19.2376 2.63086 19.9697 2.95036 20.4395 3.58936C20.9092 4.22412 21.1504 5.20589 21.1631 6.53467V8.05811ZM19.9888 6.45215C19.9888 5.45768 19.8491 4.73405 19.5698 4.28125C19.2905 3.82422 18.8483 3.5957 18.2432 3.5957C17.6423 3.5957 17.2043 3.8221 16.9292 4.2749C16.6541 4.7277 16.5124 5.42383 16.5039 6.36328V8.24219C16.5039 9.24089 16.6478 9.97933 16.9355 10.4575C17.2275 10.9315 17.6676 11.1685 18.2559 11.1685C18.8356 11.1685 19.2651 10.9442 19.5444 10.4956C19.828 10.047 19.9761 9.34033 19.9888 8.37549V6.45215ZM24.7051 8.81982L23.9688 9.58789V12H22.7944V2.25H23.9688V8.14697L24.5972 7.3916L26.7363 5.13184H28.1646L25.4922 8.00098L28.4756 12H27.0981L24.7051 8.81982Z" transform="translate(109 170)" fill="black"/>
<line y1="-0.5" x2="314" y2="-0.5" transform="translate(0 195)" stroke="black"/>
<line y1="-0.5" x2="11" y2="-0.5" transform="translate(158 201) rotate(-90)" stroke="black"/>
<line y1="-0.5" x2="11" y2="-0.5" transform="translate(123 201) rotate(-90)" stroke="black"/>
<line y1="-0.5" x2="11" y2="-0.5" transform="translate(88 199) rotate(-90)" stroke="#CC79A7"/>
<line y1="-0.5" x2="11" y2="-0.5" transform="translate(193 201) rotate(-90)" stroke="black"/>
<path d="M6.84912 8.17871C6.84912 9.45671 6.58464 10.4342 6.05566 11.1113C5.52669 11.7884 4.75228 12.127 3.73242 12.127C2.72526 12.127 1.95508 11.7948 1.42188 11.1304C0.888672 10.466 0.615723 9.51383 0.603027 8.27393V6.57275C0.603027 5.28206 0.869629 4.30241 1.40283 3.63379C1.94027 2.96517 2.71257 2.63086 3.71973 2.63086C4.72689 2.63086 5.49707 2.96305 6.03027 3.62744C6.56348 4.2876 6.83643 5.23763 6.84912 6.47754V8.17871ZM5.01465 6.3125C5.01465 5.54655 4.90885 4.99007 4.69727 4.64307C4.48991 4.29183 4.16406 4.11621 3.71973 4.11621C3.28809 4.11621 2.96859 4.28337 2.76123 4.61768C2.55811 4.94775 2.4502 5.46615 2.4375 6.17285V8.41992C2.4375 9.17318 2.53906 9.73389 2.74219 10.1021C2.94954 10.466 3.27962 10.6479 3.73242 10.6479C4.18099 10.6479 4.50472 10.4723 4.70361 10.1211C4.90251 9.76986 5.00618 9.23242 5.01465 8.50879V6.3125Z" transform="translate(154 201)" fill="black"/>
<path d="M4.62744 12H3.44678V4.17334L1.0791 5.04297V3.97656L4.44336 2.71338H4.62744V12Z" transform="translate(189 201)" fill="black"/>
<path d="M4.27197 8.78174H0.698242V7.30273H4.27197V8.78174ZM12.0034 12H5.66846V10.7432L8.6582 7.55664C9.06868 7.10807 9.37126 6.71663 9.56592 6.38232C9.76481 6.04801 9.86426 5.73063 9.86426 5.43018C9.86426 5.01969 9.76058 4.69808 9.55322 4.46533C9.34587 4.22835 9.04964 4.10986 8.66455 4.10986C8.24984 4.10986 7.92188 4.25374 7.68066 4.5415C7.44368 4.82503 7.3252 5.19954 7.3252 5.66504H5.48438C5.48438 5.10221 5.61768 4.58805 5.88428 4.12256C6.15511 3.65706 6.53597 3.29313 7.02686 3.03076C7.51774 2.76416 8.07422 2.63086 8.69629 2.63086C9.64844 2.63086 10.3869 2.85938 10.9116 3.31641C11.4406 3.77344 11.7051 4.41878 11.7051 5.25244C11.7051 5.70947 11.5866 6.17497 11.3496 6.64893C11.1126 7.12288 10.7064 7.67513 10.1309 8.30566L8.02979 10.521H12.0034V12Z" transform="translate(79 201)" fill="#CC79A7"/>
<path d="M3.33252 8.55322H0.234863V7.59473H3.33252V8.55322ZM8.22021 12H7.03955V4.17334L4.67188 5.04297V3.97656L8.03613 2.71338H8.22021V12Z" transform="translate(115 201)" fill="black"/>
<path d="M33.3536 0.353553C33.5488 0.158291 33.5488 -0.158291 33.3536 -0.353553L30.1716 -3.53553C29.9763 -3.7308 29.6597 -3.7308 29.4645 -3.53553C29.2692 -3.34027 29.2692 -3.02369 29.4645 -2.82843L32.2929 0L29.4645 2.82843C29.2692 3.02369 29.2692 3.34027 29.4645 3.53553C29.6597 3.7308 29.9763 3.7308 30.1716 3.53553L33.3536 0.353553ZM0 0.5H33V-0.5H0V0.5Z" transform="translate(158 41)" fill="black"/>
<path d="M4.76465 10.9561C4.76465 10.7145 4.64388 10.5254 4.40234 10.3887C4.16536 10.2474 3.78255 10.1221 3.25391 10.0127C1.49479 9.64355 0.615234 8.89616 0.615234 7.77051C0.615234 7.11426 0.886393 6.56738 1.42871 6.12988C1.97559 5.68783 2.6888 5.4668 3.56836 5.4668C4.50716 5.4668 5.25684 5.68783 5.81738 6.12988C6.38249 6.57194 6.66504 7.14616 6.66504 7.85254H4.68945C4.68945 7.56999 4.59831 7.33757 4.41602 7.15527C4.23372 6.96842 3.94889 6.875 3.56152 6.875C3.22884 6.875 2.97135 6.9502 2.78906 7.10059C2.60677 7.25098 2.51562 7.44238 2.51562 7.6748C2.51562 7.89355 2.61816 8.07129 2.82324 8.20801C3.03288 8.34017 3.38379 8.45638 3.87598 8.55664C4.36816 8.65234 4.78288 8.76172 5.12012 8.88477C6.16374 9.26758 6.68555 9.93066 6.68555 10.874C6.68555 11.5485 6.39616 12.0954 5.81738 12.5146C5.23861 12.9294 4.49121 13.1367 3.5752 13.1367C2.9554 13.1367 2.40397 13.0273 1.9209 12.8086C1.44238 12.5853 1.06641 12.2822 0.792969 11.8994C0.519531 11.512 0.382812 11.0951 0.382812 10.6484H2.25586C2.27409 10.9993 2.40397 11.2682 2.64551 11.4551C2.88704 11.6419 3.21061 11.7354 3.61621 11.7354C3.99447 11.7354 4.2793 11.6647 4.4707 11.5234C4.66667 11.3776 4.76465 11.1885 4.76465 10.9561ZM17.7324 7.90039H11.6211V6.28711H17.7324V7.90039ZM17.7324 10.8604H11.6211V9.24707H17.7324V10.8604ZM28.7109 9.25391H29.8389V10.8467H28.7109V13H26.7354V10.8467H22.6543L22.5654 9.60254L26.7148 3.04688H28.7109V9.25391ZM24.5342 9.25391H26.7354V5.74023L26.6055 5.96582L24.5342 9.25391ZM37.6045 8.88477C37.6045 10.2611 37.3197 11.3138 36.75 12.043C36.1803 12.7721 35.3464 13.1367 34.248 13.1367C33.1634 13.1367 32.334 12.779 31.7598 12.0635C31.1855 11.348 30.8916 10.3226 30.8779 8.9873V7.15527C30.8779 5.7653 31.165 4.71029 31.7393 3.99023C32.318 3.27018 33.1497 2.91016 34.2344 2.91016C35.319 2.91016 36.1484 3.2679 36.7227 3.9834C37.2969 4.69434 37.5908 5.71745 37.6045 7.05273V8.88477ZM35.6289 6.875C35.6289 6.05013 35.515 5.45085 35.2871 5.07715C35.0638 4.69889 34.7129 4.50977 34.2344 4.50977C33.7695 4.50977 33.4255 4.68978 33.2021 5.0498C32.9834 5.40527 32.8672 5.96354 32.8535 6.72461V9.14453C32.8535 9.95573 32.9629 10.5596 33.1816 10.9561C33.4049 11.348 33.7604 11.5439 34.248 11.5439C34.7311 11.5439 35.0798 11.3548 35.2939 10.9766C35.5081 10.5983 35.6198 10.0195 35.6289 9.24023V6.875ZM45.6436 8.88477C45.6436 10.2611 45.3587 11.3138 44.7891 12.043C44.2194 12.7721 43.3854 13.1367 42.2871 13.1367C41.2025 13.1367 40.373 12.779 39.7988 12.0635C39.2246 11.348 38.9307 10.3226 38.917 8.9873V7.15527C38.917 5.7653 39.2041 4.71029 39.7783 3.99023C40.3571 3.27018 41.1888 2.91016 42.2734 2.91016C43.3581 2.91016 44.1875 3.2679 44.7617 3.9834C45.3359 4.69434 45.6299 5.71745 45.6436 7.05273V8.88477ZM43.668 6.875C43.668 6.05013 43.554 5.45085 43.3262 5.07715C43.1029 4.69889 42.752 4.50977 42.2734 4.50977C41.8086 4.50977 41.4645 4.68978 41.2412 5.0498C41.0225 5.40527 40.9062 5.96354 40.8926 6.72461V9.14453C40.8926 9.95573 41.002 10.5596 41.2207 10.9561C41.444 11.348 41.7995 11.5439 42.2871 11.5439C42.7702 11.5439 43.1188 11.3548 43.333 10.9766C43.5472 10.5983 43.6589 10.0195 43.668 9.24023V6.875ZM53.6826 8.88477C53.6826 10.2611 53.3978 11.3138 52.8281 12.043C52.2585 12.7721 51.4245 13.1367 50.3262 13.1367C49.2415 13.1367 48.4121 12.779 47.8379 12.0635C47.2637 11.348 46.9697 10.3226 46.9561 8.9873V7.15527C46.9561 5.7653 47.2432 4.71029 47.8174 3.99023C48.3962 3.27018 49.2279 2.91016 50.3125 2.91016C51.3971 2.91016 52.2266 3.2679 52.8008 3.9834C53.375 4.69434 53.6689 5.71745 53.6826 7.05273V8.88477ZM51.707 6.875C51.707 6.05013 51.5931 5.45085 51.3652 5.07715C51.1419 4.69889 50.791 4.50977 50.3125 4.50977C49.8477 4.50977 49.5036 4.68978 49.2803 5.0498C49.0615 5.40527 48.9453 5.96354 48.9316 6.72461V9.14453C48.9316 9.95573 49.041 10.5596 49.2598 10.9561C49.4831 11.348 49.8385 11.5439 50.3262 11.5439C50.8092 11.5439 51.1579 11.3548 51.3721 10.9766C51.5863 10.5983 51.6979 10.0195 51.707 9.24023V6.875ZM61.7217 8.88477C61.7217 10.2611 61.4368 11.3138 60.8672 12.043C60.2975 12.7721 59.4635 13.1367 58.3652 13.1367C57.2806 13.1367 56.4512 12.779 55.877 12.0635C55.3027 11.348 55.0088 10.3226 54.9951 8.9873V7.15527C54.9951 5.7653 55.2822 4.71029 55.8564 3.99023C56.4352 3.27018 57.2669 2.91016 58.3516 2.91016C59.4362 2.91016 60.2656 3.2679 60.8398 3.9834C61.4141 4.69434 61.708 5.71745 61.7217 7.05273V8.88477ZM59.7461 6.875C59.7461 6.05013 59.6322 5.45085 59.4043 5.07715C59.181 4.69889 58.8301 4.50977 58.3516 4.50977C57.8867 4.50977 57.5426 4.68978 57.3193 5.0498C57.1006 5.40527 56.9844 5.96354 56.9707 6.72461V9.14453C56.9707 9.95573 57.0801 10.5596 57.2988 10.9561C57.5221 11.348 57.8776 11.5439 58.3652 11.5439C58.8483 11.5439 59.1969 11.3548 59.4111 10.9766C59.6253 10.5983 59.737 10.0195 59.7461 9.24023V6.875Z" transform="translate(198 139)" fill="black"/>
<path d="M4.74414 7.42871H7.21191V9.21289H4.74414V12.002H2.86426V9.21289H0.389648V7.42871H2.86426V4.75586H4.74414V7.42871ZM13.1182 13H11.1426V5.38477L8.78418 6.11621V4.50977L12.9062 3.0332H13.1182V13ZM20.4463 10.9561C20.4463 10.7145 20.3255 10.5254 20.084 10.3887C19.847 10.2474 19.4642 10.1221 18.9355 10.0127C17.1764 9.64355 16.2969 8.89616 16.2969 7.77051C16.2969 7.11426 16.568 6.56738 17.1104 6.12988C17.6572 5.68783 18.3704 5.4668 19.25 5.4668C20.1888 5.4668 20.9385 5.68783 21.499 6.12988C22.0641 6.57194 22.3467 7.14616 22.3467 7.85254H20.3711C20.3711 7.56999 20.2799 7.33757 20.0977 7.15527C19.9154 6.96842 19.6305 6.875 19.2432 6.875C18.9105 6.875 18.653 6.9502 18.4707 7.10059C18.2884 7.25098 18.1973 7.44238 18.1973 7.6748C18.1973 7.89355 18.2998 8.07129 18.5049 8.20801C18.7145 8.34017 19.0654 8.45638 19.5576 8.55664C20.0498 8.65234 20.4645 8.76172 20.8018 8.88477C21.8454 9.26758 22.3672 9.93066 22.3672 10.874C22.3672 11.5485 22.0778 12.0954 21.499 12.5146C20.9202 12.9294 20.1729 13.1367 19.2568 13.1367C18.637 13.1367 18.0856 13.0273 17.6025 12.8086C17.124 12.5853 16.748 12.2822 16.4746 11.8994C16.2012 11.512 16.0645 11.0951 16.0645 10.6484H17.9375C17.9557 10.9993 18.0856 11.2682 18.3271 11.4551C18.5687 11.6419 18.8923 11.7354 19.2979 11.7354C19.6761 11.7354 19.9609 11.6647 20.1523 11.5234C20.3483 11.3776 20.4463 11.1885 20.4463 10.9561Z" transform="translate(162 26)" fill="black"/>
<path d="M4.60059 9.53418H0.751953V7.94141H4.60059V9.53418ZM10.9033 13H8.92773V5.38477L6.56934 6.11621V4.50977L10.6914 3.0332H10.9033V13ZM18.2314 10.9561C18.2314 10.7145 18.1107 10.5254 17.8691 10.3887C17.6322 10.2474 17.2493 10.1221 16.7207 10.0127C14.9616 9.64355 14.082 8.89616 14.082 7.77051C14.082 7.11426 14.3532 6.56738 14.8955 6.12988C15.4424 5.68783 16.1556 5.4668 17.0352 5.4668C17.974 5.4668 18.7236 5.68783 19.2842 6.12988C19.8493 6.57194 20.1318 7.14616 20.1318 7.85254H18.1562C18.1562 7.56999 18.0651 7.33757 17.8828 7.15527C17.7005 6.96842 17.4157 6.875 17.0283 6.875C16.6956 6.875 16.4382 6.9502 16.2559 7.10059C16.0736 7.25098 15.9824 7.44238 15.9824 7.6748C15.9824 7.89355 16.085 8.07129 16.29 8.20801C16.4997 8.34017 16.8506 8.45638 17.3428 8.55664C17.835 8.65234 18.2497 8.76172 18.5869 8.88477C19.6305 9.26758 20.1523 9.93066 20.1523 10.874C20.1523 11.5485 19.863 12.0954 19.2842 12.5146C18.7054 12.9294 17.958 13.1367 17.042 13.1367C16.4222 13.1367 15.8708 13.0273 15.3877 12.8086C14.9092 12.5853 14.5332 12.2822 14.2598 11.8994C13.9863 11.512 13.8496 11.0951 13.8496 10.6484H15.7227C15.7409 10.9993 15.8708 11.2682 16.1123 11.4551C16.3538 11.6419 16.6774 11.7354 17.083 11.7354C17.4613 11.7354 17.7461 11.6647 17.9375 11.5234C18.1335 11.3776 18.2314 11.1885 18.2314 10.9561Z" transform="translate(130 26)" fill="black"/>
<path d="M4.5 5.94434L6.23291 2.75781H8.42285L5.73145 7.34082L8.49268 12H6.27734L4.5 8.7627L2.72266 12H0.507324L3.26855 7.34082L0.577148 2.75781H2.76709L4.5 5.94434Z" transform="translate(153 -1)" fill="black"/>
<line y1="-0.5" x2="7" y2="-0.5" transform="translate(154 1)" stroke="black"/>
<path d="M33.3536 0.353553C33.5488 0.158291 33.5488 -0.158291 33.3536 -0.353553L30.1716 -3.53553C29.9763 -3.7308 29.6597 -3.7308 29.4645 -3.53553C29.2692 -3.34027 29.2692 -3.02369 29.4645 -2.82843L32.2929 0L29.4645 2.82843C29.2692 3.02369 29.2692 3.34027 29.4645 3.53553C29.6597 3.7308 29.9763 3.7308 30.1716 3.53553L33.3536 0.353553ZM0 0.5H33V-0.5H0V0.5Z" transform="translate(157 41) rotate(180)" fill="black"/>
<path d="M67.3536 0.353553C67.5488 0.158291 67.5488 -0.158291 67.3536 -0.353553L64.1716 -3.53553C63.9763 -3.7308 63.6597 -3.7308 63.4645 -3.53553C63.2692 -3.34027 63.2692 -3.02369 63.4645 -2.82843L66.2929 0L63.4645 2.82843C63.2692 3.02369 63.2692 3.34027 63.4645 3.53553C63.6597 3.7308 63.9763 3.7308 64.1716 3.53553L67.3536 0.353553ZM0 0.5H67V-0.5H0V0.5Z" transform="translate(156 93) rotate(180)" fill="#CC79A7"/>
<path d="M4.60059 9.53418H0.751953V7.94141H4.60059V9.53418ZM12.9268 13H6.10449V11.6465L9.32422 8.21484C9.76628 7.73177 10.0921 7.31022 10.3018 6.9502C10.516 6.59017 10.623 6.24837 10.623 5.9248C10.623 5.48275 10.5114 5.13639 10.2881 4.88574C10.0648 4.63053 9.74577 4.50293 9.33105 4.50293C8.88444 4.50293 8.53125 4.65788 8.27148 4.96777C8.01628 5.27311 7.88867 5.67643 7.88867 6.17773H5.90625C5.90625 5.57161 6.0498 5.0179 6.33691 4.5166C6.62858 4.0153 7.03874 3.62337 7.56738 3.34082C8.09603 3.05371 8.69531 2.91016 9.36523 2.91016C10.3906 2.91016 11.1859 3.15625 11.751 3.64844C12.3206 4.14062 12.6055 4.83561 12.6055 5.7334C12.6055 6.22559 12.4779 6.72689 12.2227 7.2373C11.9674 7.74772 11.5299 8.34245 10.9102 9.02148L8.64746 11.4072H12.9268V13ZM18.2314 10.9561C18.2314 10.7145 18.1107 10.5254 17.8691 10.3887C17.6322 10.2474 17.2493 10.1221 16.7207 10.0127C14.9616 9.64355 14.082 8.89616 14.082 7.77051C14.082 7.11426 14.3532 6.56738 14.8955 6.12988C15.4424 5.68783 16.1556 5.4668 17.0352 5.4668C17.974 5.4668 18.7236 5.68783 19.2842 6.12988C19.8493 6.57194 20.1318 7.14616 20.1318 7.85254H18.1562C18.1562 7.56999 18.0651 7.33757 17.8828 7.15527C17.7005 6.96842 17.4157 6.875 17.0283 6.875C16.6956 6.875 16.4382 6.9502 16.2559 7.10059C16.0736 7.25098 15.9824 7.44238 15.9824 7.6748C15.9824 7.89355 16.085 8.07129 16.29 8.20801C16.4997 8.34017 16.8506 8.45638 17.3428 8.55664C17.835 8.65234 18.2497 8.76172 18.5869 8.88477C19.6305 9.26758 20.1523 9.93066 20.1523 10.874C20.1523 11.5485 19.863 12.0954 19.2842 12.5146C18.7054 12.9294 17.958 13.1367 17.042 13.1367C16.4222 13.1367 15.8708 13.0273 15.3877 12.8086C14.9092 12.5853 14.5332 12.2822 14.2598 11.8994C13.9863 11.512 13.8496 11.0951 13.8496 10.6484H15.7227C15.7409 10.9993 15.8708 11.2682 16.1123 11.4551C16.3538 11.6419 16.6774 11.7354 17.083 11.7354C17.4613 11.7354 17.7461 11.6647 17.9375 11.5234C18.1335 11.3776 18.2314 11.1885 18.2314 10.9561Z" transform="translate(95 78)" fill="#CC79A7"/>
<path d="M2.81201 10.521H6.16992V12H0.469727V10.8828L3.70068 6.61719H0.564941V5.13184H6.06836V6.21729L2.81201 10.521ZM10.8862 8.78174H7.3125V7.30273H10.8862V8.78174ZM16.0786 10.1021C16.0786 9.87777 15.9665 9.70215 15.7422 9.5752C15.5221 9.44401 15.1667 9.32764 14.6758 9.22607C13.0423 8.8833 12.2256 8.18929 12.2256 7.14404C12.2256 6.53467 12.4774 6.02686 12.981 5.62061C13.4888 5.21012 14.151 5.00488 14.9678 5.00488C15.8395 5.00488 16.5356 5.21012 17.0562 5.62061C17.5809 6.03109 17.8433 6.56429 17.8433 7.22021H16.0088C16.0088 6.95785 15.9242 6.74202 15.7549 6.57275C15.5856 6.39925 15.3211 6.3125 14.9614 6.3125C14.6525 6.3125 14.4134 6.38232 14.2441 6.52197C14.0749 6.66162 13.9902 6.83936 13.9902 7.05518C13.9902 7.2583 14.0854 7.42334 14.2759 7.55029C14.4705 7.67301 14.7964 7.78092 15.2534 7.87402C15.7104 7.96289 16.0955 8.06445 16.4087 8.17871C17.3778 8.53418 17.8623 9.1499 17.8623 10.0259C17.8623 10.6522 17.5936 11.16 17.0562 11.5493C16.5187 11.9344 15.8247 12.127 14.9741 12.127C14.3986 12.127 13.8866 12.0254 13.438 11.8223C12.9937 11.6149 12.6445 11.3335 12.3906 10.978C12.1367 10.6183 12.0098 10.2311 12.0098 9.81641H13.749C13.766 10.1423 13.8866 10.3919 14.1108 10.5654C14.3351 10.7389 14.6356 10.8257 15.0122 10.8257C15.3634 10.8257 15.6279 10.7601 15.8057 10.6289C15.9876 10.4935 16.0786 10.3179 16.0786 10.1021ZM21.9058 10.6479C22.2443 10.6479 22.5194 10.5549 22.731 10.3687C22.9425 10.1825 23.0526 9.9349 23.061 9.62598H24.7812C24.777 10.0915 24.6501 10.5189 24.4004 10.9082C24.1507 11.2933 23.8079 11.5938 23.3721 11.8096C22.9404 12.0212 22.4622 12.127 21.9375 12.127C20.9557 12.127 20.1813 11.8159 19.6143 11.1938C19.0472 10.5675 18.7637 9.70426 18.7637 8.604V8.4834C18.7637 7.42546 19.0451 6.58122 19.6079 5.95068C20.1707 5.32015 20.943 5.00488 21.9248 5.00488C22.7839 5.00488 23.4715 5.25033 23.9878 5.74121C24.5083 6.22786 24.7728 6.87744 24.7812 7.68994H23.061C23.0526 7.33447 22.9425 7.04671 22.731 6.82666C22.5194 6.60238 22.2401 6.49023 21.8931 6.49023C21.4657 6.49023 21.1419 6.64681 20.9219 6.95996C20.7061 7.26888 20.5981 7.77246 20.5981 8.4707V8.66113C20.5981 9.36784 20.7061 9.87565 20.9219 10.1846C21.1377 10.4935 21.4657 10.6479 21.9058 10.6479ZM25.543 8.50244C25.543 7.82113 25.6742 7.21387 25.9365 6.68066C26.1989 6.14746 26.5755 5.73486 27.0664 5.44287C27.5615 5.15088 28.1349 5.00488 28.7866 5.00488C29.7134 5.00488 30.4688 5.28841 31.0527 5.85547C31.641 6.42253 31.9689 7.19271 32.0366 8.16602L32.0493 8.63574C32.0493 9.68945 31.7552 10.5358 31.167 11.1748C30.5788 11.8096 29.7896 12.127 28.7993 12.127C27.8091 12.127 27.0177 11.8096 26.4253 11.1748C25.8371 10.54 25.543 9.67676 25.543 8.58496V8.50244ZM27.3774 8.63574C27.3774 9.28743 27.5002 9.78678 27.7456 10.1338C27.991 10.4766 28.3423 10.6479 28.7993 10.6479C29.2437 10.6479 29.5907 10.4787 29.8403 10.1401C30.09 9.79736 30.2148 9.25146 30.2148 8.50244C30.2148 7.86344 30.09 7.36833 29.8403 7.01709C29.5907 6.66585 29.2394 6.49023 28.7866 6.49023C28.3381 6.49023 27.991 6.66585 27.7456 7.01709C27.5002 7.3641 27.3774 7.90365 27.3774 8.63574ZM37.0386 6.85205C36.7889 6.8182 36.5688 6.80127 36.3784 6.80127C35.6844 6.80127 35.2295 7.03613 35.0137 7.50586V12H33.1792V5.13184H34.9121L34.9629 5.95068C35.3311 5.32015 35.841 5.00488 36.4927 5.00488C36.6958 5.00488 36.8862 5.03239 37.064 5.0874L37.0386 6.85205ZM40.9614 12.127C39.9543 12.127 39.1333 11.818 38.4985 11.2002C37.868 10.5824 37.5527 9.75928 37.5527 8.73096V8.55322C37.5527 7.86344 37.686 7.24772 37.9526 6.70605C38.2192 6.16016 38.5959 5.74121 39.0825 5.44922C39.5734 5.15299 40.132 5.00488 40.7583 5.00488C41.6978 5.00488 42.4362 5.30111 42.9736 5.89355C43.5153 6.486 43.7861 7.32601 43.7861 8.41357V9.1626H39.4126C39.4718 9.61117 39.6496 9.97087 39.9458 10.2417C40.2463 10.5125 40.625 10.6479 41.082 10.6479C41.7887 10.6479 42.341 10.3919 42.7388 9.87988L43.6401 10.8892C43.3651 11.2785 42.9927 11.5832 42.5229 11.8032C42.0532 12.019 41.5327 12.127 40.9614 12.127ZM40.752 6.49023C40.388 6.49023 40.0918 6.61296 39.8633 6.8584C39.639 7.10384 39.4951 7.45508 39.4316 7.91211H41.9834V7.76611C41.9749 7.35986 41.8649 7.04671 41.6533 6.82666C41.4417 6.60238 41.1413 6.49023 40.752 6.49023ZM48.5532 10.1021C48.5532 9.87777 48.4411 9.70215 48.2168 9.5752C47.9967 9.44401 47.6413 9.32764 47.1504 9.22607C45.5169 8.8833 44.7002 8.18929 44.7002 7.14404C44.7002 6.53467 44.952 6.02686 45.4556 5.62061C45.9634 5.21012 46.6257 5.00488 47.4424 5.00488C48.3141 5.00488 49.0103 5.21012 49.5308 5.62061C50.0555 6.03109 50.3179 6.56429 50.3179 7.22021H48.4834C48.4834 6.95785 48.3988 6.74202 48.2295 6.57275C48.0602 6.39925 47.7957 6.3125 47.436 6.3125C47.1271 6.3125 46.888 6.38232 46.7188 6.52197C46.5495 6.66162 46.4648 6.83936 46.4648 7.05518C46.4648 7.2583 46.5601 7.42334 46.7505 7.55029C46.9451 7.67301 47.271 7.78092 47.728 7.87402C48.1851 7.96289 48.5701 8.06445 48.8833 8.17871C49.8524 8.53418 50.3369 9.1499 50.3369 10.0259C50.3369 10.6522 50.0682 11.16 49.5308 11.5493C48.9933 11.9344 48.2993 12.127 47.4487 12.127C46.8732 12.127 46.3612 12.0254 45.9126 11.8223C45.4683 11.6149 45.1191 11.3335 44.8652 10.978C44.6113 10.6183 44.4844 10.2311 44.4844 9.81641H46.2236C46.2406 10.1423 46.3612 10.3919 46.5854 10.5654C46.8097 10.7389 47.1102 10.8257 47.4868 10.8257C47.8381 10.8257 48.1025 10.7601 48.2803 10.6289C48.4622 10.4935 48.5532 10.3179 48.5532 10.1021Z" transform="translate(263 195)" fill="black"/>
<path d="M6.88721 8.62939C6.88721 9.68734 6.646 10.5358 6.16357 11.1748C5.68538 11.8096 5.03792 12.127 4.22119 12.127C3.52718 12.127 2.96647 11.8857 2.53906 11.4033V14.6406H0.70459V5.13184H2.40576L2.46924 5.80469C2.91357 5.27148 3.49333 5.00488 4.2085 5.00488C5.05485 5.00488 5.71289 5.31803 6.18262 5.94434C6.65234 6.57064 6.88721 7.43392 6.88721 8.53418V8.62939ZM5.05273 8.49609C5.05273 7.8571 4.93848 7.3641 4.70996 7.01709C4.48568 6.67008 4.15771 6.49658 3.72607 6.49658C3.15055 6.49658 2.75488 6.71663 2.53906 7.15674V9.96875C2.76335 10.4215 3.16325 10.6479 3.73877 10.6479C4.61475 10.6479 5.05273 9.93066 5.05273 8.49609ZM11.8892 6.85205C11.6395 6.8182 11.4194 6.80127 11.229 6.80127C10.535 6.80127 10.0801 7.03613 9.86426 7.50586V12H8.02979V5.13184H9.7627L9.81348 5.95068C10.1816 5.32015 10.6916 5.00488 11.3433 5.00488C11.5464 5.00488 11.7368 5.03239 11.9146 5.0874L11.8892 6.85205ZM14.7139 12H12.873V5.13184H14.7139V12ZM12.7651 3.35449C12.7651 3.07943 12.8561 2.85303 13.0381 2.67529C13.2243 2.49756 13.4761 2.40869 13.7935 2.40869C14.1066 2.40869 14.3563 2.49756 14.5425 2.67529C14.7287 2.85303 14.8218 3.07943 14.8218 3.35449C14.8218 3.63379 14.7266 3.8623 14.5361 4.04004C14.3499 4.21777 14.1024 4.30664 13.7935 4.30664C13.4845 4.30664 13.2349 4.21777 13.0444 4.04004C12.8582 3.8623 12.7651 3.63379 12.7651 3.35449ZM19.0874 10.6479C19.4259 10.6479 19.701 10.5549 19.9126 10.3687C20.1242 10.1825 20.2342 9.9349 20.2427 9.62598H21.9629C21.9587 10.0915 21.8317 10.5189 21.582 10.9082C21.3324 11.2933 20.9896 11.5938 20.5537 11.8096C20.1221 12.0212 19.6439 12.127 19.1191 12.127C18.1374 12.127 17.363 11.8159 16.7959 11.1938C16.2288 10.5675 15.9453 9.70426 15.9453 8.604V8.4834C15.9453 7.42546 16.2267 6.58122 16.7896 5.95068C17.3524 5.32015 18.1247 5.00488 19.1064 5.00488C19.9655 5.00488 20.6532 5.25033 21.1694 5.74121C21.6899 6.22786 21.9544 6.87744 21.9629 7.68994H20.2427C20.2342 7.33447 20.1242 7.04671 19.9126 6.82666C19.701 6.60238 19.4217 6.49023 19.0747 6.49023C18.6473 6.49023 18.3236 6.64681 18.1035 6.95996C17.8877 7.26888 17.7798 7.77246 17.7798 8.4707V8.66113C17.7798 9.36784 17.8877 9.87565 18.1035 10.1846C18.3193 10.4935 18.6473 10.6479 19.0874 10.6479ZM26.1714 12.127C25.1642 12.127 24.3433 11.818 23.7085 11.2002C23.078 10.5824 22.7627 9.75928 22.7627 8.73096V8.55322C22.7627 7.86344 22.896 7.24772 23.1626 6.70605C23.4292 6.16016 23.8058 5.74121 24.2925 5.44922C24.7834 5.15299 25.342 5.00488 25.9683 5.00488C26.9077 5.00488 27.6462 5.30111 28.1836 5.89355C28.7253 6.486 28.9961 7.32601 28.9961 8.41357V9.1626H24.6226C24.6818 9.61117 24.8595 9.97087 25.1558 10.2417C25.4562 10.5125 25.835 10.6479 26.292 10.6479C26.9987 10.6479 27.5509 10.3919 27.9487 9.87988L28.8501 10.8892C28.575 11.2785 28.2026 11.5832 27.7329 11.8032C27.2632 12.019 26.7427 12.127 26.1714 12.127ZM25.9619 6.49023C25.598 6.49023 25.3018 6.61296 25.0732 6.8584C24.849 7.10384 24.7051 7.45508 24.6416 7.91211H27.1934V7.76611C27.1849 7.35986 27.0749 7.04671 26.8633 6.82666C26.6517 6.60238 26.3512 6.49023 25.9619 6.49023ZM33.7632 10.1021C33.7632 9.87777 33.651 9.70215 33.4268 9.5752C33.2067 9.44401 32.8512 9.32764 32.3604 9.22607C30.7269 8.8833 29.9102 8.18929 29.9102 7.14404C29.9102 6.53467 30.1619 6.02686 30.6655 5.62061C31.1733 5.21012 31.8356 5.00488 32.6523 5.00488C33.5241 5.00488 34.2202 5.21012 34.7407 5.62061C35.2655 6.03109 35.5278 6.56429 35.5278 7.22021H33.6934C33.6934 6.95785 33.6087 6.74202 33.4395 6.57275C33.2702 6.39925 33.0057 6.3125 32.646 6.3125C32.3371 6.3125 32.098 6.38232 31.9287 6.52197C31.7594 6.66162 31.6748 6.83936 31.6748 7.05518C31.6748 7.2583 31.77 7.42334 31.9604 7.55029C32.1551 7.67301 32.481 7.78092 32.938 7.87402C33.395 7.96289 33.7801 8.06445 34.0933 8.17871C35.0623 8.53418 35.5469 9.1499 35.5469 10.0259C35.5469 10.6522 35.2782 11.16 34.7407 11.5493C34.2033 11.9344 33.5093 12.127 32.6587 12.127C32.0832 12.127 31.5711 12.0254 31.1226 11.8223C30.6782 11.6149 30.3291 11.3335 30.0752 10.978C29.8213 10.6183 29.6943 10.2311 29.6943 9.81641H31.4336C31.4505 10.1423 31.5711 10.3919 31.7954 10.5654C32.0197 10.7389 32.3201 10.8257 32.6968 10.8257C33.048 10.8257 33.3125 10.7601 33.4902 10.6289C33.6722 10.4935 33.7632 10.3179 33.7632 10.1021Z" transform="translate(278 160)" fill="black"/>
</svg>
