<svg width="1208" height="646" viewBox="0 0 1208 646" fill="none" xmlns="http://www.w3.org/2000/svg">
<rect width="604" height="323" fill="white" transform="scale(2)"/>
<path d="M416.121 198.121C417.293 196.95 417.293 195.05 416.121 193.879L397.029 174.787C395.858 173.615 393.958 173.615 392.787 174.787C391.615 175.958 391.615 177.858 392.787 179.029L409.757 196L392.787 212.971C391.615 214.142 391.615 216.042 392.787 217.213C393.958 218.385 395.858 218.385 397.029 217.213L416.121 198.121ZM298 199H414V193H298V199Z" fill="#219653"/>
<path d="M523.625 338.113H516.23V344.16H524.82V346H513.98V328.938H524.703V330.789H516.23V336.273H523.625V338.113ZM533.41 335.266C533.082 335.211 532.727 335.184 532.344 335.184C530.922 335.184 529.957 335.789 529.449 337V346H527.281V333.32H529.391L529.426 334.785C530.137 333.652 531.145 333.086 532.449 333.086C532.871 333.086 533.191 333.141 533.41 333.25V335.266ZM541.543 335.266C541.215 335.211 540.859 335.184 540.477 335.184C539.055 335.184 538.09 335.789 537.582 337V346H535.414V333.32H537.523L537.559 334.785C538.27 333.652 539.277 333.086 540.582 333.086C541.004 333.086 541.324 333.141 541.543 333.25V335.266ZM542.738 339.543C542.738 338.301 542.98 337.184 543.465 336.191C543.957 335.199 544.637 334.434 545.504 333.895C546.379 333.355 547.375 333.086 548.492 333.086C550.219 333.086 551.613 333.684 552.676 334.879C553.746 336.074 554.281 337.664 554.281 339.648V339.801C554.281 341.035 554.043 342.145 553.566 343.129C553.098 344.105 552.422 344.867 551.539 345.414C550.664 345.961 549.656 346.234 548.516 346.234C546.797 346.234 545.402 345.637 544.332 344.441C543.27 343.246 542.738 341.664 542.738 339.695V339.543ZM544.918 339.801C544.918 341.207 545.242 342.336 545.891 343.188C546.547 344.039 547.422 344.465 548.516 344.465C549.617 344.465 550.492 344.035 551.141 343.176C551.789 342.309 552.113 341.098 552.113 339.543C552.113 338.152 551.781 337.027 551.117 336.168C550.461 335.301 549.586 334.867 548.492 334.867C547.422 334.867 546.559 335.293 545.902 336.145C545.246 336.996 544.918 338.215 544.918 339.801ZM563.129 335.266C562.801 335.211 562.445 335.184 562.062 335.184C560.641 335.184 559.676 335.789 559.168 337V346H557V333.32H559.109L559.145 334.785C559.855 333.652 560.863 333.086 562.168 333.086C562.59 333.086 562.91 333.141 563.129 333.25V335.266ZM573.441 346H571.273V333.32H573.441V346ZM571.098 329.957C571.098 329.605 571.203 329.309 571.414 329.066C571.633 328.824 571.953 328.703 572.375 328.703C572.797 328.703 573.117 328.824 573.336 329.066C573.555 329.309 573.664 329.605 573.664 329.957C573.664 330.309 573.555 330.602 573.336 330.836C573.117 331.07 572.797 331.188 572.375 331.188C571.953 331.188 571.633 331.07 571.414 330.836C571.203 330.602 571.098 330.309 571.098 329.957ZM584.305 342.637C584.305 342.051 584.082 341.598 583.637 341.277C583.199 340.949 582.43 340.668 581.328 340.434C580.234 340.199 579.363 339.918 578.715 339.59C578.074 339.262 577.598 338.871 577.285 338.418C576.98 337.965 576.828 337.426 576.828 336.801C576.828 335.762 577.266 334.883 578.141 334.164C579.023 333.445 580.148 333.086 581.516 333.086C582.953 333.086 584.117 333.457 585.008 334.199C585.906 334.941 586.355 335.891 586.355 337.047H584.176C584.176 336.453 583.922 335.941 583.414 335.512C582.914 335.082 582.281 334.867 581.516 334.867C580.727 334.867 580.109 335.039 579.664 335.383C579.219 335.727 578.996 336.176 578.996 336.73C578.996 337.254 579.203 337.648 579.617 337.914C580.031 338.18 580.777 338.434 581.855 338.676C582.941 338.918 583.82 339.207 584.492 339.543C585.164 339.879 585.66 340.285 585.98 340.762C586.309 341.23 586.473 341.805 586.473 342.484C586.473 343.617 586.02 344.527 585.113 345.215C584.207 345.895 583.031 346.234 581.586 346.234C580.57 346.234 579.672 346.055 578.891 345.695C578.109 345.336 577.496 344.836 577.051 344.195C576.613 343.547 576.395 342.848 576.395 342.098H578.562C578.602 342.824 578.891 343.402 579.43 343.832C579.977 344.254 580.695 344.465 581.586 344.465C582.406 344.465 583.062 344.301 583.555 343.973C584.055 343.637 584.305 343.191 584.305 342.637ZM515.691 361.32L515.762 362.914C516.73 361.695 517.996 361.086 519.559 361.086C522.238 361.086 523.59 362.598 523.613 365.621V374H521.445V365.609C521.438 364.695 521.227 364.02 520.812 363.582C520.406 363.145 519.77 362.926 518.902 362.926C518.199 362.926 517.582 363.113 517.051 363.488C516.52 363.863 516.105 364.355 515.809 364.965V374H513.641V361.32H515.691ZM526.309 367.543C526.309 366.301 526.551 365.184 527.035 364.191C527.527 363.199 528.207 362.434 529.074 361.895C529.949 361.355 530.945 361.086 532.062 361.086C533.789 361.086 535.184 361.684 536.246 362.879C537.316 364.074 537.852 365.664 537.852 367.648V367.801C537.852 369.035 537.613 370.145 537.137 371.129C536.668 372.105 535.992 372.867 535.109 373.414C534.234 373.961 533.227 374.234 532.086 374.234C530.367 374.234 528.973 373.637 527.902 372.441C526.84 371.246 526.309 369.664 526.309 367.695V367.543ZM528.488 367.801C528.488 369.207 528.812 370.336 529.461 371.188C530.117 372.039 530.992 372.465 532.086 372.465C533.188 372.465 534.062 372.035 534.711 371.176C535.359 370.309 535.684 369.098 535.684 367.543C535.684 366.152 535.352 365.027 534.688 364.168C534.031 363.301 533.156 362.867 532.062 362.867C530.992 362.867 530.129 363.293 529.473 364.145C528.816 364.996 528.488 366.215 528.488 367.801ZM543.512 358.25V361.32H545.879V362.996H543.512V370.859C543.512 371.367 543.617 371.75 543.828 372.008C544.039 372.258 544.398 372.383 544.906 372.383C545.156 372.383 545.5 372.336 545.938 372.242V374C545.367 374.156 544.812 374.234 544.273 374.234C543.305 374.234 542.574 373.941 542.082 373.355C541.59 372.77 541.344 371.938 541.344 370.859V362.996H539.035V361.32H541.344V358.25H543.512ZM519.77 391.266C519.441 391.211 519.086 391.184 518.703 391.184C517.281 391.184 516.316 391.789 515.809 393V402H513.641V389.32H515.75L515.785 390.785C516.496 389.652 517.504 389.086 518.809 389.086C519.23 389.086 519.551 389.141 519.77 389.25V391.266ZM529.133 402C529.008 401.75 528.906 401.305 528.828 400.664C527.82 401.711 526.617 402.234 525.219 402.234C523.969 402.234 522.941 401.883 522.137 401.18C521.34 400.469 520.941 399.57 520.941 398.484C520.941 397.164 521.441 396.141 522.441 395.414C523.449 394.68 524.863 394.312 526.684 394.312H528.793V393.316C528.793 392.559 528.566 391.957 528.113 391.512C527.66 391.059 526.992 390.832 526.109 390.832C525.336 390.832 524.688 391.027 524.164 391.418C523.641 391.809 523.379 392.281 523.379 392.836H521.199C521.199 392.203 521.422 391.594 521.867 391.008C522.32 390.414 522.93 389.945 523.695 389.602C524.469 389.258 525.316 389.086 526.238 389.086C527.699 389.086 528.844 389.453 529.672 390.188C530.5 390.914 530.93 391.918 530.961 393.199V399.035C530.961 400.199 531.109 401.125 531.406 401.812V402H529.133ZM525.535 400.348C526.215 400.348 526.859 400.172 527.469 399.82C528.078 399.469 528.52 399.012 528.793 398.449V395.848H527.094C524.438 395.848 523.109 396.625 523.109 398.18C523.109 398.859 523.336 399.391 523.789 399.773C524.242 400.156 524.824 400.348 525.535 400.348ZM536.715 402H534.547V389.32H536.715V402ZM534.371 385.957C534.371 385.605 534.477 385.309 534.688 385.066C534.906 384.824 535.227 384.703 535.648 384.703C536.07 384.703 536.391 384.824 536.609 385.066C536.828 385.309 536.938 385.605 536.938 385.957C536.938 386.309 536.828 386.602 536.609 386.836C536.391 387.07 536.07 387.188 535.648 387.188C535.227 387.188 534.906 387.07 534.688 386.836C534.477 386.602 534.371 386.309 534.371 385.957ZM547.578 398.637C547.578 398.051 547.355 397.598 546.91 397.277C546.473 396.949 545.703 396.668 544.602 396.434C543.508 396.199 542.637 395.918 541.988 395.59C541.348 395.262 540.871 394.871 540.559 394.418C540.254 393.965 540.102 393.426 540.102 392.801C540.102 391.762 540.539 390.883 541.414 390.164C542.297 389.445 543.422 389.086 544.789 389.086C546.227 389.086 547.391 389.457 548.281 390.199C549.18 390.941 549.629 391.891 549.629 393.047H547.449C547.449 392.453 547.195 391.941 546.688 391.512C546.188 391.082 545.555 390.867 544.789 390.867C544 390.867 543.383 391.039 542.938 391.383C542.492 391.727 542.27 392.176 542.27 392.73C542.27 393.254 542.477 393.648 542.891 393.914C543.305 394.18 544.051 394.434 545.129 394.676C546.215 394.918 547.094 395.207 547.766 395.543C548.438 395.879 548.934 396.285 549.254 396.762C549.582 397.23 549.746 397.805 549.746 398.484C549.746 399.617 549.293 400.527 548.387 401.215C547.48 401.895 546.305 402.234 544.859 402.234C543.844 402.234 542.945 402.055 542.164 401.695C541.383 401.336 540.77 400.836 540.324 400.195C539.887 399.547 539.668 398.848 539.668 398.098H541.836C541.875 398.824 542.164 399.402 542.703 399.832C543.25 400.254 543.969 400.465 544.859 400.465C545.68 400.465 546.336 400.301 546.828 399.973C547.328 399.637 547.578 399.191 547.578 398.637ZM557.832 402.234C556.113 402.234 554.715 401.672 553.637 400.547C552.559 399.414 552.02 397.902 552.02 396.012V395.613C552.02 394.355 552.258 393.234 552.734 392.25C553.219 391.258 553.891 390.484 554.75 389.93C555.617 389.367 556.555 389.086 557.562 389.086C559.211 389.086 560.492 389.629 561.406 390.715C562.32 391.801 562.777 393.355 562.777 395.379V396.281H554.188C554.219 397.531 554.582 398.543 555.277 399.316C555.98 400.082 556.871 400.465 557.949 400.465C558.715 400.465 559.363 400.309 559.895 399.996C560.426 399.684 560.891 399.27 561.289 398.754L562.613 399.785C561.551 401.418 559.957 402.234 557.832 402.234ZM557.562 390.867C556.688 390.867 555.953 391.188 555.359 391.828C554.766 392.461 554.398 393.352 554.258 394.5H560.609V394.336C560.547 393.234 560.25 392.383 559.719 391.781C559.188 391.172 558.469 390.867 557.562 390.867ZM564.77 395.555C564.77 393.609 565.23 392.047 566.152 390.867C567.074 389.68 568.281 389.086 569.773 389.086C571.258 389.086 572.434 389.594 573.301 390.609V384H575.469V402H573.477L573.371 400.641C572.504 401.703 571.297 402.234 569.75 402.234C568.281 402.234 567.082 401.633 566.152 400.43C565.23 399.227 564.77 397.656 564.77 395.719V395.555ZM566.938 395.801C566.938 397.238 567.234 398.363 567.828 399.176C568.422 399.988 569.242 400.395 570.289 400.395C571.664 400.395 572.668 399.777 573.301 398.543V392.719C572.652 391.523 571.656 390.926 570.312 390.926C569.25 390.926 568.422 391.336 567.828 392.156C567.234 392.977 566.938 394.191 566.938 395.801Z" fill="#27AE60"/>
<path d="M780.707 196.707C781.098 196.317 781.098 195.683 780.707 195.293L774.343 188.929C773.953 188.538 773.319 188.538 772.929 188.929C772.538 189.319 772.538 189.953 772.929 190.343L778.586 196L772.929 201.657C772.538 202.047 772.538 202.681 772.929 203.071C773.319 203.462 773.953 203.462 774.343 203.071L780.707 196.707ZM594 197H597.875V195H594V197ZM605.625 197H613.375V195H605.625V197ZM621.125 197H628.875V195H621.125V197ZM636.625 197H644.375V195H636.625V197ZM652.125 197H659.875V195L652.125 195V197ZM667.625 197H675.375V195H667.625V197ZM683.125 197H690.875V195H683.125V197ZM698.625 197H706.375V195H698.625V197ZM714.125 197H721.875V195H714.125V197ZM729.625 197H737.375V195H729.625V197ZM745.125 197H752.875V195H745.125V197ZM760.625 197L768.375 197V195L760.625 195V197ZM776.125 197H780V195H776.125V197ZM781.414 197.414C782.195 196.633 782.195 195.367 781.414 194.586L768.686 181.858C767.905 181.077 766.639 181.077 765.858 181.858C765.077 182.639 765.077 183.905 765.858 184.686L777.172 196L765.858 207.314C765.077 208.095 765.077 209.361 765.858 210.142C766.639 210.923 767.905 210.923 768.686 210.142L781.414 197.414ZM594 198H597.875V194H594V198ZM605.625 198H613.375V194H605.625V198ZM621.125 198H628.875V194H621.125V198ZM636.625 198H644.375V194H636.625V198ZM652.125 198H659.875V194L652.125 194V198ZM667.625 198H675.375V194H667.625V198ZM683.125 198H690.875V194H683.125V198ZM698.625 198H706.375V194H698.625V198ZM714.125 198H721.875V194H714.125V198ZM729.625 198H737.375V194H729.625V198ZM745.125 198H752.875V194H745.125V198ZM760.625 198L768.375 198V194L760.625 194V198ZM776.125 198H780V194H776.125V198Z" fill="#828282"/>
<path d="M614.219 180.113H606.824V186.16H615.414V188H604.574V170.938H615.297V172.789H606.824V178.273H614.219V180.113ZM624.004 177.266C623.676 177.211 623.32 177.184 622.938 177.184C621.516 177.184 620.551 177.789 620.043 179V188H617.875V175.32H619.984L620.02 176.785C620.73 175.652 621.738 175.086 623.043 175.086C623.465 175.086 623.785 175.141 624.004 175.25V177.266ZM632.137 177.266C631.809 177.211 631.453 177.184 631.07 177.184C629.648 177.184 628.684 177.789 628.176 179V188H626.008V175.32H628.117L628.152 176.785C628.863 175.652 629.871 175.086 631.176 175.086C631.598 175.086 631.918 175.141 632.137 175.25V177.266ZM633.332 181.543C633.332 180.301 633.574 179.184 634.059 178.191C634.551 177.199 635.23 176.434 636.098 175.895C636.973 175.355 637.969 175.086 639.086 175.086C640.812 175.086 642.207 175.684 643.27 176.879C644.34 178.074 644.875 179.664 644.875 181.648V181.801C644.875 183.035 644.637 184.145 644.16 185.129C643.691 186.105 643.016 186.867 642.133 187.414C641.258 187.961 640.25 188.234 639.109 188.234C637.391 188.234 635.996 187.637 634.926 186.441C633.863 185.246 633.332 183.664 633.332 181.695V181.543ZM635.512 181.801C635.512 183.207 635.836 184.336 636.484 185.188C637.141 186.039 638.016 186.465 639.109 186.465C640.211 186.465 641.086 186.035 641.734 185.176C642.383 184.309 642.707 183.098 642.707 181.543C642.707 180.152 642.375 179.027 641.711 178.168C641.055 177.301 640.18 176.867 639.086 176.867C638.016 176.867 637.152 177.293 636.496 178.145C635.84 178.996 635.512 180.215 635.512 181.801ZM653.723 177.266C653.395 177.211 653.039 177.184 652.656 177.184C651.234 177.184 650.27 177.789 649.762 179V188H647.594V175.32H649.703L649.738 176.785C650.449 175.652 651.457 175.086 652.762 175.086C653.184 175.086 653.504 175.141 653.723 175.25V177.266ZM664.035 188H661.867V175.32H664.035V188ZM661.691 171.957C661.691 171.605 661.797 171.309 662.008 171.066C662.227 170.824 662.547 170.703 662.969 170.703C663.391 170.703 663.711 170.824 663.93 171.066C664.148 171.309 664.258 171.605 664.258 171.957C664.258 172.309 664.148 172.602 663.93 172.836C663.711 173.07 663.391 173.188 662.969 173.188C662.547 173.188 662.227 173.07 662.008 172.836C661.797 172.602 661.691 172.309 661.691 171.957ZM674.898 184.637C674.898 184.051 674.676 183.598 674.23 183.277C673.793 182.949 673.023 182.668 671.922 182.434C670.828 182.199 669.957 181.918 669.309 181.59C668.668 181.262 668.191 180.871 667.879 180.418C667.574 179.965 667.422 179.426 667.422 178.801C667.422 177.762 667.859 176.883 668.734 176.164C669.617 175.445 670.742 175.086 672.109 175.086C673.547 175.086 674.711 175.457 675.602 176.199C676.5 176.941 676.949 177.891 676.949 179.047H674.77C674.77 178.453 674.516 177.941 674.008 177.512C673.508 177.082 672.875 176.867 672.109 176.867C671.32 176.867 670.703 177.039 670.258 177.383C669.812 177.727 669.59 178.176 669.59 178.73C669.59 179.254 669.797 179.648 670.211 179.914C670.625 180.18 671.371 180.434 672.449 180.676C673.535 180.918 674.414 181.207 675.086 181.543C675.758 181.879 676.254 182.285 676.574 182.762C676.902 183.23 677.066 183.805 677.066 184.484C677.066 185.617 676.613 186.527 675.707 187.215C674.801 187.895 673.625 188.234 672.18 188.234C671.164 188.234 670.266 188.055 669.484 187.695C668.703 187.336 668.09 186.836 667.645 186.195C667.207 185.547 666.988 184.848 666.988 184.098H669.156C669.195 184.824 669.484 185.402 670.023 185.832C670.57 186.254 671.289 186.465 672.18 186.465C673 186.465 673.656 186.301 674.148 185.973C674.648 185.637 674.898 185.191 674.898 184.637ZM691.973 177.266C691.645 177.211 691.289 177.184 690.906 177.184C689.484 177.184 688.52 177.789 688.012 179V188H685.844V175.32H687.953L687.988 176.785C688.699 175.652 689.707 175.086 691.012 175.086C691.434 175.086 691.754 175.141 691.973 175.25V177.266ZM701.336 188C701.211 187.75 701.109 187.305 701.031 186.664C700.023 187.711 698.82 188.234 697.422 188.234C696.172 188.234 695.145 187.883 694.34 187.18C693.543 186.469 693.145 185.57 693.145 184.484C693.145 183.164 693.645 182.141 694.645 181.414C695.652 180.68 697.066 180.312 698.887 180.312H700.996V179.316C700.996 178.559 700.77 177.957 700.316 177.512C699.863 177.059 699.195 176.832 698.312 176.832C697.539 176.832 696.891 177.027 696.367 177.418C695.844 177.809 695.582 178.281 695.582 178.836H693.402C693.402 178.203 693.625 177.594 694.07 177.008C694.523 176.414 695.133 175.945 695.898 175.602C696.672 175.258 697.52 175.086 698.441 175.086C699.902 175.086 701.047 175.453 701.875 176.188C702.703 176.914 703.133 177.918 703.164 179.199V185.035C703.164 186.199 703.312 187.125 703.609 187.812V188H701.336ZM697.738 186.348C698.418 186.348 699.062 186.172 699.672 185.82C700.281 185.469 700.723 185.012 700.996 184.449V181.848H699.297C696.641 181.848 695.312 182.625 695.312 184.18C695.312 184.859 695.539 185.391 695.992 185.773C696.445 186.156 697.027 186.348 697.738 186.348ZM708.918 188H706.75V175.32H708.918V188ZM706.574 171.957C706.574 171.605 706.68 171.309 706.891 171.066C707.109 170.824 707.43 170.703 707.852 170.703C708.273 170.703 708.594 170.824 708.812 171.066C709.031 171.309 709.141 171.605 709.141 171.957C709.141 172.309 709.031 172.602 708.812 172.836C708.594 173.07 708.273 173.188 707.852 173.188C707.43 173.188 707.109 173.07 706.891 172.836C706.68 172.602 706.574 172.309 706.574 171.957ZM719.781 184.637C719.781 184.051 719.559 183.598 719.113 183.277C718.676 182.949 717.906 182.668 716.805 182.434C715.711 182.199 714.84 181.918 714.191 181.59C713.551 181.262 713.074 180.871 712.762 180.418C712.457 179.965 712.305 179.426 712.305 178.801C712.305 177.762 712.742 176.883 713.617 176.164C714.5 175.445 715.625 175.086 716.992 175.086C718.43 175.086 719.594 175.457 720.484 176.199C721.383 176.941 721.832 177.891 721.832 179.047H719.652C719.652 178.453 719.398 177.941 718.891 177.512C718.391 177.082 717.758 176.867 716.992 176.867C716.203 176.867 715.586 177.039 715.141 177.383C714.695 177.727 714.473 178.176 714.473 178.73C714.473 179.254 714.68 179.648 715.094 179.914C715.508 180.18 716.254 180.434 717.332 180.676C718.418 180.918 719.297 181.207 719.969 181.543C720.641 181.879 721.137 182.285 721.457 182.762C721.785 183.23 721.949 183.805 721.949 184.484C721.949 185.617 721.496 186.527 720.59 187.215C719.684 187.895 718.508 188.234 717.062 188.234C716.047 188.234 715.148 188.055 714.367 187.695C713.586 187.336 712.973 186.836 712.527 186.195C712.09 185.547 711.871 184.848 711.871 184.098H714.039C714.078 184.824 714.367 185.402 714.906 185.832C715.453 186.254 716.172 186.465 717.062 186.465C717.883 186.465 718.539 186.301 719.031 185.973C719.531 185.637 719.781 185.191 719.781 184.637ZM730.035 188.234C728.316 188.234 726.918 187.672 725.84 186.547C724.762 185.414 724.223 183.902 724.223 182.012V181.613C724.223 180.355 724.461 179.234 724.938 178.25C725.422 177.258 726.094 176.484 726.953 175.93C727.82 175.367 728.758 175.086 729.766 175.086C731.414 175.086 732.695 175.629 733.609 176.715C734.523 177.801 734.98 179.355 734.98 181.379V182.281H726.391C726.422 183.531 726.785 184.543 727.48 185.316C728.184 186.082 729.074 186.465 730.152 186.465C730.918 186.465 731.566 186.309 732.098 185.996C732.629 185.684 733.094 185.27 733.492 184.754L734.816 185.785C733.754 187.418 732.16 188.234 730.035 188.234ZM729.766 176.867C728.891 176.867 728.156 177.188 727.562 177.828C726.969 178.461 726.602 179.352 726.461 180.5H732.812V180.336C732.75 179.234 732.453 178.383 731.922 177.781C731.391 177.172 730.672 176.867 729.766 176.867ZM736.973 181.555C736.973 179.609 737.434 178.047 738.355 176.867C739.277 175.68 740.484 175.086 741.977 175.086C743.461 175.086 744.637 175.594 745.504 176.609V170H747.672V188H745.68L745.574 186.641C744.707 187.703 743.5 188.234 741.953 188.234C740.484 188.234 739.285 187.633 738.355 186.43C737.434 185.227 736.973 183.656 736.973 181.719V181.555ZM739.141 181.801C739.141 183.238 739.438 184.363 740.031 185.176C740.625 185.988 741.445 186.395 742.492 186.395C743.867 186.395 744.871 185.777 745.504 184.543V178.719C744.855 177.523 743.859 176.926 742.516 176.926C741.453 176.926 740.625 177.336 740.031 178.156C739.438 178.977 739.141 180.191 739.141 181.801Z" fill="#828282"/>
<path d="M225.543 47.0273H218.793V54H215.277V36.9375H226.387V39.7852H218.793V44.1914H225.543V47.0273ZM231.777 54H228.379V36H231.777V54ZM234.051 47.543C234.051 46.2852 234.293 45.1641 234.777 44.1797C235.262 43.1953 235.957 42.4336 236.863 41.8945C237.777 41.3555 238.836 41.0859 240.039 41.0859C241.75 41.0859 243.145 41.6094 244.223 42.6562C245.309 43.7031 245.914 45.125 246.039 46.9219L246.062 47.7891C246.062 49.7344 245.52 51.2969 244.434 52.4766C243.348 53.6484 241.891 54.2344 240.062 54.2344C238.234 54.2344 236.773 53.6484 235.68 52.4766C234.594 51.3047 234.051 49.7109 234.051 47.6953V47.543ZM237.438 47.7891C237.438 48.9922 237.664 49.9141 238.117 50.5547C238.57 51.1875 239.219 51.5039 240.062 51.5039C240.883 51.5039 241.523 51.1914 241.984 50.5664C242.445 49.9336 242.676 48.9258 242.676 47.543C242.676 46.3633 242.445 45.4492 241.984 44.8008C241.523 44.1523 240.875 43.8281 240.039 43.8281C239.211 43.8281 238.57 44.1523 238.117 44.8008C237.664 45.4414 237.438 46.4375 237.438 47.7891ZM259.176 49.3945L260.84 41.3203H264.109L260.875 54H258.039L255.637 46.0195L253.234 54H250.41L247.176 41.3203H250.445L252.098 49.3828L254.418 41.3203H256.867L259.176 49.3945ZM275.828 38.2031V41.3203H277.996V43.8047H275.828V50.1328C275.828 50.6016 275.918 50.9375 276.098 51.1406C276.277 51.3438 276.621 51.4453 277.129 51.4453C277.504 51.4453 277.836 51.418 278.125 51.3633V53.9297C277.461 54.1328 276.777 54.2344 276.074 54.2344C273.699 54.2344 272.488 53.0352 272.441 50.6367V43.8047H270.59V41.3203H272.441V38.2031H275.828ZM283.188 42.7031C284.086 41.625 285.215 41.0859 286.574 41.0859C289.324 41.0859 290.719 42.6836 290.758 45.8789V54H287.371V45.9727C287.371 45.2461 287.215 44.7109 286.902 44.3672C286.59 44.0156 286.07 43.8398 285.344 43.8398C284.352 43.8398 283.633 44.2227 283.188 44.9883V54H279.801V36H283.188V42.7031ZM300.438 44.4961C299.977 44.4336 299.57 44.4023 299.219 44.4023C297.938 44.4023 297.098 44.8359 296.699 45.7031V54H293.312V41.3203H296.512L296.605 42.832C297.285 41.668 298.227 41.0859 299.43 41.0859C299.805 41.0859 300.156 41.1367 300.484 41.2383L300.438 44.4961ZM301.129 47.543C301.129 46.2852 301.371 45.1641 301.855 44.1797C302.34 43.1953 303.035 42.4336 303.941 41.8945C304.855 41.3555 305.914 41.0859 307.117 41.0859C308.828 41.0859 310.223 41.6094 311.301 42.6562C312.387 43.7031 312.992 45.125 313.117 46.9219L313.141 47.7891C313.141 49.7344 312.598 51.2969 311.512 52.4766C310.426 53.6484 308.969 54.2344 307.141 54.2344C305.312 54.2344 303.852 53.6484 302.758 52.4766C301.672 51.3047 301.129 49.7109 301.129 47.6953V47.543ZM304.516 47.7891C304.516 48.9922 304.742 49.9141 305.195 50.5547C305.648 51.1875 306.297 51.5039 307.141 51.5039C307.961 51.5039 308.602 51.1914 309.062 50.5664C309.523 49.9336 309.754 48.9258 309.754 47.543C309.754 46.3633 309.523 45.4492 309.062 44.8008C308.602 44.1523 307.953 43.8281 307.117 43.8281C306.289 43.8281 305.648 44.1523 305.195 44.8008C304.742 45.4414 304.516 46.4375 304.516 47.7891ZM322.82 52.7109C321.984 53.7266 320.828 54.2344 319.352 54.2344C317.992 54.2344 316.953 53.8438 316.234 53.0625C315.523 52.2812 315.16 51.1367 315.145 49.6289V41.3203H318.531V49.5117C318.531 50.832 319.133 51.4922 320.336 51.4922C321.484 51.4922 322.273 51.0938 322.703 50.2969V41.3203H326.102V54H322.914L322.82 52.7109ZM328.164 47.5664C328.164 45.6211 328.625 44.0547 329.547 42.8672C330.477 41.6797 331.727 41.0859 333.297 41.0859C334.688 41.0859 335.77 41.5625 336.543 42.5156L336.684 41.3203H339.754V53.5781C339.754 54.6875 339.5 55.6523 338.992 56.4727C338.492 57.293 337.785 57.918 336.871 58.3477C335.957 58.7773 334.887 58.9922 333.66 58.9922C332.73 58.9922 331.824 58.8047 330.941 58.4297C330.059 58.0625 329.391 57.5859 328.938 57L330.438 54.9375C331.281 55.8828 332.305 56.3555 333.508 56.3555C334.406 56.3555 335.105 56.1133 335.605 55.6289C336.105 55.1523 336.355 54.4727 336.355 53.5898V52.9102C335.574 53.793 334.547 54.2344 333.273 54.2344C331.75 54.2344 330.516 53.6406 329.57 52.4531C328.633 51.2578 328.164 49.6758 328.164 47.707V47.5664ZM331.551 47.8125C331.551 48.9609 331.781 49.8633 332.242 50.5195C332.703 51.168 333.336 51.4922 334.141 51.4922C335.172 51.4922 335.91 51.1055 336.355 50.332V45C335.902 44.2266 335.172 43.8398 334.164 43.8398C333.352 43.8398 332.711 44.1719 332.242 44.8359C331.781 45.5 331.551 46.4922 331.551 47.8125ZM345.672 42.7031C346.57 41.625 347.699 41.0859 349.059 41.0859C351.809 41.0859 353.203 42.6836 353.242 45.8789V54H349.855V45.9727C349.855 45.2461 349.699 44.7109 349.387 44.3672C349.074 44.0156 348.555 43.8398 347.828 43.8398C346.836 43.8398 346.117 44.2227 345.672 44.9883V54H342.285V36H345.672V42.7031ZM365.828 38.2031V41.3203H367.996V43.8047H365.828V50.1328C365.828 50.6016 365.918 50.9375 366.098 51.1406C366.277 51.3438 366.621 51.4453 367.129 51.4453C367.504 51.4453 367.836 51.418 368.125 51.3633V53.9297C367.461 54.1328 366.777 54.2344 366.074 54.2344C363.699 54.2344 362.488 53.0352 362.441 50.6367V43.8047H360.59V41.3203H362.441V38.2031H365.828ZM373.188 42.7031C374.086 41.625 375.215 41.0859 376.574 41.0859C379.324 41.0859 380.719 42.6836 380.758 45.8789V54H377.371V45.9727C377.371 45.2461 377.215 44.7109 376.902 44.3672C376.59 44.0156 376.07 43.8398 375.344 43.8398C374.352 43.8398 373.633 44.2227 373.188 44.9883V54H369.801V36H373.188V42.7031ZM389.148 54.2344C387.289 54.2344 385.773 53.6641 384.602 52.5234C383.438 51.3828 382.855 49.8633 382.855 47.9648V47.6367C382.855 46.3633 383.102 45.2266 383.594 44.2266C384.086 43.2188 384.781 42.4453 385.68 41.9062C386.586 41.3594 387.617 41.0859 388.773 41.0859C390.508 41.0859 391.871 41.6328 392.863 42.7266C393.863 43.8203 394.363 45.3711 394.363 47.3789V48.7617H386.289C386.398 49.5898 386.727 50.2539 387.273 50.7539C387.828 51.2539 388.527 51.5039 389.371 51.5039C390.676 51.5039 391.695 51.0312 392.43 50.0859L394.094 51.9492C393.586 52.668 392.898 53.2305 392.031 53.6367C391.164 54.0352 390.203 54.2344 389.148 54.2344ZM388.762 43.8281C388.09 43.8281 387.543 44.0547 387.121 44.5078C386.707 44.9609 386.441 45.6094 386.324 46.4531H391.035V46.1836C391.02 45.4336 390.816 44.8555 390.426 44.4492C390.035 44.0352 389.48 43.8281 388.762 43.8281ZM413.699 47.7773C413.699 49.8086 413.266 51.3945 412.398 52.5352C411.531 53.668 410.32 54.2344 408.766 54.2344C407.391 54.2344 406.293 53.707 405.473 52.6523L405.32 54H402.273V36H405.66V42.457C406.441 41.543 407.469 41.0859 408.742 41.0859C410.289 41.0859 411.5 41.6562 412.375 42.7969C413.258 43.9297 413.699 45.5273 413.699 47.5898V47.7773ZM410.312 47.5312C410.312 46.25 410.109 45.3164 409.703 44.7305C409.297 44.1367 408.691 43.8398 407.887 43.8398C406.809 43.8398 406.066 44.2812 405.66 45.1641V50.168C406.074 51.0586 406.824 51.5039 407.91 51.5039C409.004 51.5039 409.723 50.9648 410.066 49.8867C410.23 49.3711 410.312 48.5859 410.312 47.5312ZM419.371 54H415.973V36H419.371V54ZM421.645 47.543C421.645 46.2852 421.887 45.1641 422.371 44.1797C422.855 43.1953 423.551 42.4336 424.457 41.8945C425.371 41.3555 426.43 41.0859 427.633 41.0859C429.344 41.0859 430.738 41.6094 431.816 42.6562C432.902 43.7031 433.508 45.125 433.633 46.9219L433.656 47.7891C433.656 49.7344 433.113 51.2969 432.027 52.4766C430.941 53.6484 429.484 54.2344 427.656 54.2344C425.828 54.2344 424.367 53.6484 423.273 52.4766C422.188 51.3047 421.645 49.7109 421.645 47.6953V47.543ZM425.031 47.7891C425.031 48.9922 425.258 49.9141 425.711 50.5547C426.164 51.1875 426.812 51.5039 427.656 51.5039C428.477 51.5039 429.117 51.1914 429.578 50.5664C430.039 49.9336 430.27 48.9258 430.27 47.543C430.27 46.3633 430.039 45.4492 429.578 44.8008C429.117 44.1523 428.469 43.8281 427.633 43.8281C426.805 43.8281 426.164 44.1523 425.711 44.8008C425.258 45.4414 425.031 46.4375 425.031 47.7891ZM441.016 51.5039C441.641 51.5039 442.148 51.332 442.539 50.9883C442.93 50.6445 443.133 50.1875 443.148 49.6172H446.324C446.316 50.4766 446.082 51.2656 445.621 51.9844C445.16 52.6953 444.527 53.25 443.723 53.6484C442.926 54.0391 442.043 54.2344 441.074 54.2344C439.262 54.2344 437.832 53.6602 436.785 52.5117C435.738 51.3555 435.215 49.7617 435.215 47.7305V47.5078C435.215 45.5547 435.734 43.9961 436.773 42.832C437.812 41.668 439.238 41.0859 441.051 41.0859C442.637 41.0859 443.906 41.5391 444.859 42.4453C445.82 43.3438 446.309 44.543 446.324 46.043H443.148C443.133 45.3867 442.93 44.8555 442.539 44.4492C442.148 44.0352 441.633 43.8281 440.992 43.8281C440.203 43.8281 439.605 44.1172 439.199 44.6953C438.801 45.2656 438.602 46.1953 438.602 47.4844V47.8359C438.602 49.1406 438.801 50.0781 439.199 50.6484C439.598 51.2188 440.203 51.5039 441.016 51.5039ZM452.863 48.9141L451.645 50.1328V54H448.258V36H451.645V45.9727L452.301 45.1289L455.547 41.3203H459.613L455.031 46.6055L460.012 54H456.121L452.863 48.9141ZM478.082 49.3945L479.746 41.3203H483.016L479.781 54H476.945L474.543 46.0195L472.141 54H469.316L466.082 41.3203H469.352L471.004 49.3828L473.324 41.3203H475.773L478.082 49.3945ZM488.008 42.7031C488.906 41.625 490.035 41.0859 491.395 41.0859C494.145 41.0859 495.539 42.6836 495.578 45.8789V54H492.191V45.9727C492.191 45.2461 492.035 44.7109 491.723 44.3672C491.41 44.0156 490.891 43.8398 490.164 43.8398C489.172 43.8398 488.453 44.2227 488.008 44.9883V54H484.621V36H488.008V42.7031ZM503.969 54.2344C502.109 54.2344 500.594 53.6641 499.422 52.5234C498.258 51.3828 497.676 49.8633 497.676 47.9648V47.6367C497.676 46.3633 497.922 45.2266 498.414 44.2266C498.906 43.2188 499.602 42.4453 500.5 41.9062C501.406 41.3594 502.438 41.0859 503.594 41.0859C505.328 41.0859 506.691 41.6328 507.684 42.7266C508.684 43.8203 509.184 45.3711 509.184 47.3789V48.7617H501.109C501.219 49.5898 501.547 50.2539 502.094 50.7539C502.648 51.2539 503.348 51.5039 504.191 51.5039C505.496 51.5039 506.516 51.0312 507.25 50.0859L508.914 51.9492C508.406 52.668 507.719 53.2305 506.852 53.6367C505.984 54.0352 505.023 54.2344 503.969 54.2344ZM503.582 43.8281C502.91 43.8281 502.363 44.0547 501.941 44.5078C501.527 44.9609 501.262 45.6094 501.145 46.4531H505.855V46.1836C505.84 45.4336 505.637 44.8555 505.246 44.4492C504.855 44.0352 504.301 43.8281 503.582 43.8281ZM514.234 41.3203L514.34 42.7852C515.246 41.6523 516.461 41.0859 517.984 41.0859C519.328 41.0859 520.328 41.4805 520.984 42.2695C521.641 43.0586 521.977 44.2383 521.992 45.8086V54H518.605V45.8906C518.605 45.1719 518.449 44.6523 518.137 44.332C517.824 44.0039 517.305 43.8398 516.578 43.8398C515.625 43.8398 514.91 44.2461 514.434 45.0586V54H511.047V41.3203H514.234ZM533.422 44.856H530.422V42.24L533.59 42.096L534.046 38.928H536.95V42.096H541.99V44.856H536.95V49.032C536.95 49.944 537.15 50.592 537.55 50.976C537.95 51.344 538.582 51.528 539.446 51.528C539.91 51.528 540.334 51.488 540.718 51.408C541.102 51.328 541.47 51.224 541.822 51.096L542.446 53.64C541.918 53.8 541.326 53.944 540.67 54.072C540.03 54.216 539.326 54.288 538.558 54.288C537.614 54.288 536.814 54.16 536.158 53.904C535.502 53.648 534.966 53.296 534.55 52.848C534.15 52.384 533.862 51.832 533.686 51.192C533.51 50.552 533.422 49.84 533.422 49.056V44.856ZM545.365 37.176H548.893V41.304L548.701 43.584C548.941 43.36 549.197 43.144 549.469 42.936C549.757 42.712 550.061 42.52 550.381 42.36C550.717 42.184 551.077 42.048 551.461 41.952C551.861 41.856 552.285 41.808 552.733 41.808C554.077 41.808 555.053 42.24 555.661 43.104C556.285 43.968 556.597 45.152 556.597 46.656V54H553.069V47.112C553.069 46.312 552.941 45.728 552.685 45.36C552.429 44.992 551.973 44.808 551.317 44.808C550.837 44.808 550.413 44.912 550.045 45.12C549.693 45.328 549.309 45.64 548.893 46.056V54H545.365V37.176ZM559.923 42.096H568.227V54H564.699V44.856H559.923V42.096ZM566.307 40.344C565.619 40.344 565.051 40.152 564.603 39.768C564.171 39.384 563.955 38.864 563.955 38.208C563.955 37.552 564.171 37.024 564.603 36.624C565.051 36.208 565.619 36 566.307 36C566.995 36 567.555 36.208 567.987 36.624C568.435 37.024 568.659 37.552 568.659 38.208C568.659 38.864 568.435 39.384 567.987 39.768C567.555 40.152 566.995 40.344 566.307 40.344ZM575.274 50.256C575.962 50.688 576.65 51.032 577.338 51.288C578.042 51.544 578.794 51.672 579.594 51.672C580.41 51.672 580.994 51.584 581.346 51.408C581.698 51.232 581.874 50.984 581.874 50.664C581.874 50.296 581.578 50 580.986 49.776C580.41 49.536 579.642 49.28 578.682 49.008C578.154 48.864 577.634 48.696 577.122 48.504C576.626 48.296 576.178 48.056 575.778 47.784C575.378 47.496 575.05 47.168 574.794 46.8C574.554 46.432 574.434 46.008 574.434 45.528C574.434 44.984 574.562 44.48 574.818 44.016C575.074 43.552 575.434 43.16 575.898 42.84C576.378 42.52 576.954 42.272 577.626 42.096C578.314 41.904 579.082 41.808 579.93 41.808C580.986 41.808 581.946 41.984 582.81 42.336C583.69 42.672 584.442 43.04 585.066 43.44L583.482 45.552C582.938 45.232 582.378 44.968 581.802 44.76C581.226 44.536 580.626 44.424 580.002 44.424C579.25 44.424 578.714 44.504 578.394 44.664C578.09 44.824 577.938 45.056 577.938 45.36C577.938 45.536 578.018 45.696 578.178 45.84C578.338 45.984 578.554 46.112 578.826 46.224C579.098 46.336 579.418 46.448 579.786 46.56C580.17 46.656 580.57 46.76 580.986 46.872C581.578 47.032 582.138 47.216 582.666 47.424C583.194 47.616 583.658 47.848 584.058 48.12C584.458 48.392 584.778 48.72 585.018 49.104C585.258 49.488 585.378 49.936 585.378 50.448C585.378 50.992 585.25 51.496 584.994 51.96C584.738 52.424 584.362 52.832 583.866 53.184C583.386 53.52 582.778 53.792 582.042 54C581.322 54.192 580.482 54.288 579.522 54.288C578.45 54.288 577.402 54.112 576.378 53.76C575.354 53.408 574.458 52.976 573.69 52.464L575.274 50.256ZM599.769 55.296V57.936H588.249V55.296H599.769ZM614.567 40.128C613.783 39.824 612.951 39.672 612.071 39.672C611.303 39.672 610.735 39.84 610.367 40.176C610.015 40.512 609.839 41.04 609.839 41.76V42.096H613.943V44.856H609.839V54H606.311V44.856H603.167V42.24L606.311 42.096V41.784C606.311 41.096 606.415 40.456 606.623 39.864C606.831 39.272 607.151 38.76 607.583 38.328C608.015 37.88 608.567 37.528 609.239 37.272C609.911 37.016 610.711 36.888 611.639 36.888C612.327 36.888 612.967 36.952 613.559 37.08C614.167 37.208 614.727 37.36 615.239 37.536L614.567 40.128ZM628.19 54H625.31L625.046 52.296H624.95C624.422 52.904 623.838 53.392 623.198 53.76C622.558 54.112 621.806 54.288 620.942 54.288C619.582 54.288 618.598 53.856 617.99 52.992C617.382 52.128 617.078 50.944 617.078 49.44V42.096H620.606V48.984C620.606 49.784 620.726 50.368 620.966 50.736C621.206 51.104 621.662 51.288 622.334 51.288C622.782 51.288 623.174 51.192 623.51 51C623.862 50.808 624.246 50.448 624.662 49.92V42.096H628.19V54ZM631.708 42.096H634.588L634.852 43.68H634.948C635.46 43.168 636.044 42.728 636.7 42.36C637.372 41.992 638.156 41.808 639.052 41.808C640.396 41.808 641.38 42.24 642.004 43.104C642.628 43.968 642.94 45.152 642.94 46.656V54H639.412V47.112C639.412 46.312 639.284 45.728 639.028 45.36C638.772 44.992 638.316 44.808 637.66 44.808C637.18 44.808 636.756 44.912 636.388 45.12C636.036 45.328 635.652 45.64 635.236 46.056V54H631.708V42.096ZM645.979 48.048C645.979 47.056 646.163 46.176 646.531 45.408C646.915 44.624 647.419 43.968 648.043 43.44C648.683 42.912 649.419 42.512 650.251 42.24C651.083 41.952 651.955 41.808 652.867 41.808C653.811 41.808 654.659 41.96 655.411 42.264C656.179 42.568 656.819 42.952 657.331 43.416L655.699 45.6C654.819 44.976 653.939 44.664 653.059 44.664C652.035 44.664 651.203 44.968 650.563 45.576C649.923 46.184 649.603 47.008 649.603 48.048C649.603 49.088 649.907 49.912 650.515 50.52C651.139 51.128 651.947 51.432 652.939 51.432C653.563 51.432 654.139 51.32 654.667 51.096C655.195 50.872 655.667 50.608 656.083 50.304L657.523 52.536C656.803 53.144 656.003 53.592 655.123 53.88C654.259 54.152 653.419 54.288 652.603 54.288C651.659 54.288 650.787 54.152 649.987 53.88C649.187 53.592 648.483 53.184 647.875 52.656C647.283 52.128 646.819 51.48 646.483 50.712C646.147 49.928 645.979 49.04 645.979 48.048ZM662.938 44.856H659.938V42.24L663.106 42.096L663.562 38.928H666.466V42.096H671.506V44.856H666.466V49.032C666.466 49.944 666.666 50.592 667.066 50.976C667.466 51.344 668.098 51.528 668.962 51.528C669.426 51.528 669.85 51.488 670.234 51.408C670.618 51.328 670.986 51.224 671.338 51.096L671.962 53.64C671.434 53.8 670.842 53.944 670.186 54.072C669.546 54.216 668.842 54.288 668.074 54.288C667.13 54.288 666.33 54.16 665.674 53.904C665.018 53.648 664.482 53.296 664.066 52.848C663.666 52.384 663.378 51.832 663.202 51.192C663.026 50.552 662.938 49.84 662.938 49.056V44.856ZM675.048 42.096H683.352V54H679.824V44.856H675.048V42.096ZM681.432 40.344C680.744 40.344 680.176 40.152 679.728 39.768C679.296 39.384 679.08 38.864 679.08 38.208C679.08 37.552 679.296 37.024 679.728 36.624C680.176 36.208 680.744 36 681.432 36C682.12 36 682.68 36.208 683.112 36.624C683.56 37.024 683.784 37.552 683.784 38.208C683.784 38.864 683.56 39.384 683.112 39.768C682.68 40.152 682.12 40.344 681.432 40.344ZM688.671 48.048C688.671 47.056 688.839 46.176 689.175 45.408C689.511 44.624 689.959 43.968 690.519 43.44C691.095 42.912 691.743 42.512 692.463 42.24C693.199 41.952 693.959 41.808 694.743 41.808C695.527 41.808 696.279 41.952 696.999 42.24C697.735 42.512 698.383 42.912 698.943 43.44C699.519 43.968 699.975 44.624 700.311 45.408C700.647 46.176 700.815 47.056 700.815 48.048C700.815 49.04 700.647 49.928 700.311 50.712C699.975 51.48 699.519 52.128 698.943 52.656C698.383 53.184 697.735 53.592 696.999 53.88C696.279 54.152 695.527 54.288 694.743 54.288C693.959 54.288 693.199 54.152 692.463 53.88C691.743 53.592 691.095 53.184 690.519 52.656C689.959 52.128 689.511 51.48 689.175 50.712C688.839 49.928 688.671 49.04 688.671 48.048ZM692.295 48.048C692.295 49.088 692.495 49.912 692.895 50.52C693.311 51.128 693.927 51.432 694.743 51.432C695.559 51.432 696.167 51.128 696.567 50.52C696.983 49.912 697.191 49.088 697.191 48.048C697.191 47.008 696.983 46.184 696.567 45.576C696.167 44.968 695.559 44.664 694.743 44.664C693.927 44.664 693.311 44.968 692.895 45.576C692.495 46.184 692.295 47.008 692.295 48.048ZM703.662 42.096H706.542L706.806 43.68H706.902C707.414 43.168 707.998 42.728 708.654 42.36C709.326 41.992 710.11 41.808 711.006 41.808C712.35 41.808 713.334 42.24 713.958 43.104C714.582 43.968 714.894 45.152 714.894 46.656V54H711.366V47.112C711.366 46.312 711.238 45.728 710.982 45.36C710.726 44.992 710.27 44.808 709.614 44.808C709.134 44.808 708.71 44.912 708.342 45.12C707.99 45.328 707.606 45.64 707.19 46.056V54H703.662V42.096ZM725.732 58.296C724.164 56.904 722.924 55.296 722.012 53.472C721.116 51.648 720.668 49.6 720.668 47.328C720.668 45.056 721.116 43.008 722.012 41.184C722.924 39.36 724.164 37.752 725.732 36.36L727.7 37.92C726.276 39.312 725.236 40.76 724.58 42.264C723.94 43.752 723.62 45.44 723.62 47.328C723.62 48.272 723.7 49.168 723.86 50.016C724.02 50.848 724.26 51.648 724.58 52.416C724.916 53.184 725.34 53.92 725.852 54.624C726.364 55.344 726.98 56.048 727.7 56.736L725.732 58.296ZM733.739 56.736C734.459 56.048 735.075 55.344 735.587 54.624C736.099 53.92 736.515 53.184 736.835 52.416C737.171 51.648 737.419 50.848 737.579 50.016C737.739 49.168 737.819 48.272 737.819 47.328C737.819 45.44 737.491 43.752 736.835 42.264C736.195 40.76 735.163 39.312 733.739 37.92L735.707 36.36C737.275 37.752 738.507 39.36 739.403 41.184C740.315 43.008 740.771 45.056 740.771 47.328C740.771 49.6 740.315 51.648 739.403 53.472C738.507 55.296 737.275 56.904 735.707 58.296L733.739 56.736ZM751.809 47.5664C751.809 45.5898 752.25 44.0156 753.133 42.8438C754.023 41.6719 755.238 41.0859 756.777 41.0859C758.012 41.0859 759.031 41.5469 759.836 42.4688V36H763.234V54H760.176L760.012 52.6523C759.168 53.707 758.082 54.2344 756.754 54.2344C755.262 54.2344 754.062 53.6484 753.156 52.4766C752.258 51.2969 751.809 49.6602 751.809 47.5664ZM755.195 47.8125C755.195 49 755.402 49.9102 755.816 50.543C756.23 51.1758 756.832 51.4922 757.621 51.4922C758.668 51.4922 759.406 51.0508 759.836 50.168V45.1641C759.414 44.2812 758.684 43.8398 757.645 43.8398C756.012 43.8398 755.195 45.1641 755.195 47.8125ZM765.332 47.543C765.332 46.2852 765.574 45.1641 766.059 44.1797C766.543 43.1953 767.238 42.4336 768.145 41.8945C769.059 41.3555 770.117 41.0859 771.32 41.0859C773.031 41.0859 774.426 41.6094 775.504 42.6562C776.59 43.7031 777.195 45.125 777.32 46.9219L777.344 47.7891C777.344 49.7344 776.801 51.2969 775.715 52.4766C774.629 53.6484 773.172 54.2344 771.344 54.2344C769.516 54.2344 768.055 53.6484 766.961 52.4766C765.875 51.3047 765.332 49.7109 765.332 47.6953V47.543ZM768.719 47.7891C768.719 48.9922 768.945 49.9141 769.398 50.5547C769.852 51.1875 770.5 51.5039 771.344 51.5039C772.164 51.5039 772.805 51.1914 773.266 50.5664C773.727 49.9336 773.957 48.9258 773.957 47.543C773.957 46.3633 773.727 45.4492 773.266 44.8008C772.805 44.1523 772.156 43.8281 771.32 43.8281C770.492 43.8281 769.852 44.1523 769.398 44.8008C768.945 45.4414 768.719 46.4375 768.719 47.7891ZM785.266 54.2344C783.406 54.2344 781.891 53.6641 780.719 52.5234C779.555 51.3828 778.973 49.8633 778.973 47.9648V47.6367C778.973 46.3633 779.219 45.2266 779.711 44.2266C780.203 43.2188 780.898 42.4453 781.797 41.9062C782.703 41.3594 783.734 41.0859 784.891 41.0859C786.625 41.0859 787.988 41.6328 788.98 42.7266C789.98 43.8203 790.48 45.3711 790.48 47.3789V48.7617H782.406C782.516 49.5898 782.844 50.2539 783.391 50.7539C783.945 51.2539 784.645 51.5039 785.488 51.5039C786.793 51.5039 787.812 51.0312 788.547 50.0859L790.211 51.9492C789.703 52.668 789.016 53.2305 788.148 53.6367C787.281 54.0352 786.32 54.2344 785.266 54.2344ZM784.879 43.8281C784.207 43.8281 783.66 44.0547 783.238 44.5078C782.824 44.9609 782.559 45.6094 782.441 46.4531H787.152V46.1836C787.137 45.4336 786.934 44.8555 786.543 44.4492C786.152 44.0352 785.598 43.8281 784.879 43.8281ZM799.281 50.4961C799.281 50.082 799.074 49.7578 798.66 49.5234C798.254 49.2812 797.598 49.0664 796.691 48.8789C793.676 48.2461 792.168 46.9648 792.168 45.0352C792.168 43.9102 792.633 42.9727 793.562 42.2227C794.5 41.4648 795.723 41.0859 797.23 41.0859C798.84 41.0859 800.125 41.4648 801.086 42.2227C802.055 42.9805 802.539 43.9648 802.539 45.1758H799.152C799.152 44.6914 798.996 44.293 798.684 43.9805C798.371 43.6602 797.883 43.5 797.219 43.5C796.648 43.5 796.207 43.6289 795.895 43.8867C795.582 44.1445 795.426 44.4727 795.426 44.8711C795.426 45.2461 795.602 45.5508 795.953 45.7852C796.312 46.0117 796.914 46.2109 797.758 46.3828C798.602 46.5469 799.312 46.7344 799.891 46.9453C801.68 47.6016 802.574 48.7383 802.574 50.3555C802.574 51.5117 802.078 52.4492 801.086 53.168C800.094 53.8789 798.812 54.2344 797.242 54.2344C796.18 54.2344 795.234 54.0469 794.406 53.6719C793.586 53.2891 792.941 52.7695 792.473 52.1133C792.004 51.4492 791.77 50.7344 791.77 49.9688H794.98C795.012 50.5703 795.234 51.0312 795.648 51.3516C796.062 51.6719 796.617 51.832 797.312 51.832C797.961 51.832 798.449 51.7109 798.777 51.4688C799.113 51.2188 799.281 50.8945 799.281 50.4961ZM813.859 41.3203L813.965 42.7852C814.871 41.6523 816.086 41.0859 817.609 41.0859C818.953 41.0859 819.953 41.4805 820.609 42.2695C821.266 43.0586 821.602 44.2383 821.617 45.8086V54H818.23V45.8906C818.23 45.1719 818.074 44.6523 817.762 44.332C817.449 44.0039 816.93 43.8398 816.203 43.8398C815.25 43.8398 814.535 44.2461 814.059 45.0586V54H810.672V41.3203H813.859ZM823.668 47.543C823.668 46.2852 823.91 45.1641 824.395 44.1797C824.879 43.1953 825.574 42.4336 826.48 41.8945C827.395 41.3555 828.453 41.0859 829.656 41.0859C831.367 41.0859 832.762 41.6094 833.84 42.6562C834.926 43.7031 835.531 45.125 835.656 46.9219L835.68 47.7891C835.68 49.7344 835.137 51.2969 834.051 52.4766C832.965 53.6484 831.508 54.2344 829.68 54.2344C827.852 54.2344 826.391 53.6484 825.297 52.4766C824.211 51.3047 823.668 49.7109 823.668 47.6953V47.543ZM827.055 47.7891C827.055 48.9922 827.281 49.9141 827.734 50.5547C828.188 51.1875 828.836 51.5039 829.68 51.5039C830.5 51.5039 831.141 51.1914 831.602 50.5664C832.062 49.9336 832.293 48.9258 832.293 47.543C832.293 46.3633 832.062 45.4492 831.602 44.8008C831.141 44.1523 830.492 43.8281 829.656 43.8281C828.828 43.8281 828.188 44.1523 827.734 44.8008C827.281 45.4414 827.055 46.4375 827.055 47.7891ZM841.82 38.2031V41.3203H843.988V43.8047H841.82V50.1328C841.82 50.6016 841.91 50.9375 842.09 51.1406C842.27 51.3438 842.613 51.4453 843.121 51.4453C843.496 51.4453 843.828 51.418 844.117 51.3633V53.9297C843.453 54.1328 842.77 54.2344 842.066 54.2344C839.691 54.2344 838.48 53.0352 838.434 50.6367V43.8047H836.582V41.3203H838.434V38.2031H841.82ZM858.977 44.4961C858.516 44.4336 858.109 44.4023 857.758 44.4023C856.477 44.4023 855.637 44.8359 855.238 45.7031V54H851.852V41.3203H855.051L855.145 42.832C855.824 41.668 856.766 41.0859 857.969 41.0859C858.344 41.0859 858.695 41.1367 859.023 41.2383L858.977 44.4961ZM867.613 54C867.457 53.6953 867.344 53.3164 867.273 52.8633C866.453 53.7773 865.387 54.2344 864.074 54.2344C862.832 54.2344 861.801 53.875 860.98 53.1562C860.168 52.4375 859.762 51.5312 859.762 50.4375C859.762 49.0938 860.258 48.0625 861.25 47.3438C862.25 46.625 863.691 46.2617 865.574 46.2539H867.133V45.5273C867.133 44.9414 866.98 44.4727 866.676 44.1211C866.379 43.7695 865.906 43.5938 865.258 43.5938C864.688 43.5938 864.238 43.7305 863.91 44.0039C863.59 44.2773 863.43 44.6523 863.43 45.1289H860.043C860.043 44.3945 860.27 43.7148 860.723 43.0898C861.176 42.4648 861.816 41.9766 862.645 41.625C863.473 41.2656 864.402 41.0859 865.434 41.0859C866.996 41.0859 868.234 41.4805 869.148 42.2695C870.07 43.0508 870.531 44.1523 870.531 45.5742V51.0703C870.539 52.2734 870.707 53.1836 871.035 53.8008V54H867.613ZM864.812 51.6445C865.312 51.6445 865.773 51.5352 866.195 51.3164C866.617 51.0898 866.93 50.7891 867.133 50.4141V48.2344H865.867C864.172 48.2344 863.27 48.8203 863.16 49.9922L863.148 50.1914C863.148 50.6133 863.297 50.9609 863.594 51.2344C863.891 51.5078 864.297 51.6445 864.812 51.6445ZM876.707 54H873.309V41.3203H876.707V54ZM873.109 38.0391C873.109 37.5312 873.277 37.1133 873.613 36.7852C873.957 36.457 874.422 36.293 875.008 36.293C875.586 36.293 876.047 36.457 876.391 36.7852C876.734 37.1133 876.906 37.5312 876.906 38.0391C876.906 38.5547 876.73 38.9766 876.379 39.3047C876.035 39.6328 875.578 39.7969 875.008 39.7969C874.438 39.7969 873.977 39.6328 873.625 39.3047C873.281 38.9766 873.109 38.5547 873.109 38.0391ZM886.375 50.4961C886.375 50.082 886.168 49.7578 885.754 49.5234C885.348 49.2812 884.691 49.0664 883.785 48.8789C880.77 48.2461 879.262 46.9648 879.262 45.0352C879.262 43.9102 879.727 42.9727 880.656 42.2227C881.594 41.4648 882.816 41.0859 884.324 41.0859C885.934 41.0859 887.219 41.4648 888.18 42.2227C889.148 42.9805 889.633 43.9648 889.633 45.1758H886.246C886.246 44.6914 886.09 44.293 885.777 43.9805C885.465 43.6602 884.977 43.5 884.312 43.5C883.742 43.5 883.301 43.6289 882.988 43.8867C882.676 44.1445 882.52 44.4727 882.52 44.8711C882.52 45.2461 882.695 45.5508 883.047 45.7852C883.406 46.0117 884.008 46.2109 884.852 46.3828C885.695 46.5469 886.406 46.7344 886.984 46.9453C888.773 47.6016 889.668 48.7383 889.668 50.3555C889.668 51.5117 889.172 52.4492 888.18 53.168C887.188 53.8789 885.906 54.2344 884.336 54.2344C883.273 54.2344 882.328 54.0469 881.5 53.6719C880.68 53.2891 880.035 52.7695 879.566 52.1133C879.098 51.4492 878.863 50.7344 878.863 49.9688H882.074C882.105 50.5703 882.328 51.0312 882.742 51.3516C883.156 51.6719 883.711 51.832 884.406 51.832C885.055 51.832 885.543 51.7109 885.871 51.4688C886.207 51.2188 886.375 50.8945 886.375 50.4961ZM897.695 54.2344C895.836 54.2344 894.32 53.6641 893.148 52.5234C891.984 51.3828 891.402 49.8633 891.402 47.9648V47.6367C891.402 46.3633 891.648 45.2266 892.141 44.2266C892.633 43.2188 893.328 42.4453 894.227 41.9062C895.133 41.3594 896.164 41.0859 897.32 41.0859C899.055 41.0859 900.418 41.6328 901.41 42.7266C902.41 43.8203 902.91 45.3711 902.91 47.3789V48.7617H894.836C894.945 49.5898 895.273 50.2539 895.82 50.7539C896.375 51.2539 897.074 51.5039 897.918 51.5039C899.223 51.5039 900.242 51.0312 900.977 50.0859L902.641 51.9492C902.133 52.668 901.445 53.2305 900.578 53.6367C899.711 54.0352 898.75 54.2344 897.695 54.2344ZM897.309 43.8281C896.637 43.8281 896.09 44.0547 895.668 44.5078C895.254 44.9609 894.988 45.6094 894.871 46.4531H899.582V46.1836C899.566 45.4336 899.363 44.8555 898.973 44.4492C898.582 44.0352 898.027 43.8281 897.309 43.8281ZM918.168 54C918.012 53.6953 917.898 53.3164 917.828 52.8633C917.008 53.7773 915.941 54.2344 914.629 54.2344C913.387 54.2344 912.355 53.875 911.535 53.1562C910.723 52.4375 910.316 51.5312 910.316 50.4375C910.316 49.0938 910.812 48.0625 911.805 47.3438C912.805 46.625 914.246 46.2617 916.129 46.2539H917.688V45.5273C917.688 44.9414 917.535 44.4727 917.23 44.1211C916.934 43.7695 916.461 43.5938 915.812 43.5938C915.242 43.5938 914.793 43.7305 914.465 44.0039C914.145 44.2773 913.984 44.6523 913.984 45.1289H910.598C910.598 44.3945 910.824 43.7148 911.277 43.0898C911.73 42.4648 912.371 41.9766 913.199 41.625C914.027 41.2656 914.957 41.0859 915.988 41.0859C917.551 41.0859 918.789 41.4805 919.703 42.2695C920.625 43.0508 921.086 44.1523 921.086 45.5742V51.0703C921.094 52.2734 921.262 53.1836 921.59 53.8008V54H918.168ZM915.367 51.6445C915.867 51.6445 916.328 51.5352 916.75 51.3164C917.172 51.0898 917.484 50.7891 917.688 50.4141V48.2344H916.422C914.727 48.2344 913.824 48.8203 913.715 49.9922L913.703 50.1914C913.703 50.6133 913.852 50.9609 914.148 51.2344C914.445 51.5078 914.852 51.6445 915.367 51.6445ZM926.805 41.3203L926.91 42.7852C927.816 41.6523 929.031 41.0859 930.555 41.0859C931.898 41.0859 932.898 41.4805 933.555 42.2695C934.211 43.0586 934.547 44.2383 934.562 45.8086V54H931.176V45.8906C931.176 45.1719 931.02 44.6523 930.707 44.332C930.395 44.0039 929.875 43.8398 929.148 43.8398C928.195 43.8398 927.48 44.2461 927.004 45.0586V54H923.617V41.3203H926.805ZM948.953 54.2344C947.094 54.2344 945.578 53.6641 944.406 52.5234C943.242 51.3828 942.66 49.8633 942.66 47.9648V47.6367C942.66 46.3633 942.906 45.2266 943.398 44.2266C943.891 43.2188 944.586 42.4453 945.484 41.9062C946.391 41.3594 947.422 41.0859 948.578 41.0859C950.312 41.0859 951.676 41.6328 952.668 42.7266C953.668 43.8203 954.168 45.3711 954.168 47.3789V48.7617H946.094C946.203 49.5898 946.531 50.2539 947.078 50.7539C947.633 51.2539 948.332 51.5039 949.176 51.5039C950.48 51.5039 951.5 51.0312 952.234 50.0859L953.898 51.9492C953.391 52.668 952.703 53.2305 951.836 53.6367C950.969 54.0352 950.008 54.2344 948.953 54.2344ZM948.566 43.8281C947.895 43.8281 947.348 44.0547 946.926 44.5078C946.512 44.9609 946.246 45.6094 946.129 46.4531H950.84V46.1836C950.824 45.4336 950.621 44.8555 950.23 44.4492C949.84 44.0352 949.285 43.8281 948.566 43.8281ZM963.227 44.4961C962.766 44.4336 962.359 44.4023 962.008 44.4023C960.727 44.4023 959.887 44.8359 959.488 45.7031V54H956.102V41.3203H959.301L959.395 42.832C960.074 41.668 961.016 41.0859 962.219 41.0859C962.594 41.0859 962.945 41.1367 963.273 41.2383L963.227 44.4961ZM971.992 44.4961C971.531 44.4336 971.125 44.4023 970.773 44.4023C969.492 44.4023 968.652 44.8359 968.254 45.7031V54H964.867V41.3203H968.066L968.16 42.832C968.84 41.668 969.781 41.0859 970.984 41.0859C971.359 41.0859 971.711 41.1367 972.039 41.2383L971.992 44.4961ZM972.684 47.543C972.684 46.2852 972.926 45.1641 973.41 44.1797C973.895 43.1953 974.59 42.4336 975.496 41.8945C976.41 41.3555 977.469 41.0859 978.672 41.0859C980.383 41.0859 981.777 41.6094 982.855 42.6562C983.941 43.7031 984.547 45.125 984.672 46.9219L984.695 47.7891C984.695 49.7344 984.152 51.2969 983.066 52.4766C981.98 53.6484 980.523 54.2344 978.695 54.2344C976.867 54.2344 975.406 53.6484 974.312 52.4766C973.227 51.3047 972.684 49.7109 972.684 47.6953V47.543ZM976.07 47.7891C976.07 48.9922 976.297 49.9141 976.75 50.5547C977.203 51.1875 977.852 51.5039 978.695 51.5039C979.516 51.5039 980.156 51.1914 980.617 50.5664C981.078 49.9336 981.309 48.9258 981.309 47.543C981.309 46.3633 981.078 45.4492 980.617 44.8008C980.156 44.1523 979.508 43.8281 978.672 43.8281C977.844 43.8281 977.203 44.1523 976.75 44.8008C976.297 45.4414 976.07 46.4375 976.07 47.7891ZM993.906 44.4961C993.445 44.4336 993.039 44.4023 992.688 44.4023C991.406 44.4023 990.566 44.8359 990.168 45.7031V54H986.781V41.3203H989.98L990.074 42.832C990.754 41.668 991.695 41.0859 992.898 41.0859C993.273 41.0859 993.625 41.1367 993.953 41.2383L993.906 44.4961Z" fill="black"/>
<path d="M751.035 55.9597H844.574V57.1316H751.035V55.9597Z" fill="black"/>
<rect x="504.239" y="112.707" width="117.455" height="118.133" transform="rotate(45 504.239 112.707)" fill="#6FCF97" stroke="black"/>
<path d="M501.199 188.789H495.715V204H493.477V188.789H488.004V186.938H501.199V188.789ZM508.629 193.266C508.301 193.211 507.945 193.184 507.562 193.184C506.141 193.184 505.176 193.789 504.668 195V204H502.5V191.32H504.609L504.645 192.785C505.355 191.652 506.363 191.086 507.668 191.086C508.09 191.086 508.41 191.141 508.629 191.25V193.266ZM514.992 200.824L517.945 191.32H520.266L515.168 205.957C514.379 208.066 513.125 209.121 511.406 209.121L510.996 209.086L510.188 208.934V207.176L510.773 207.223C511.508 207.223 512.078 207.074 512.484 206.777C512.898 206.48 513.238 205.938 513.504 205.148L513.984 203.859L509.461 191.32H511.828L514.992 200.824Z" fill="black"/>
<rect x="790.5" y="132.5" width="119" height="119" stroke="black"/>
<path d="M825.66 190.113H818.266V196.16H826.855V198H816.016V180.938H826.738V182.789H818.266V188.273H825.66V190.113ZM833.57 189.949L836.383 185.32H838.914L834.766 191.59L839.043 198H836.535L833.605 193.254L830.676 198H828.156L832.434 191.59L828.285 185.32H830.793L833.57 189.949ZM846.074 196.465C846.848 196.465 847.523 196.23 848.102 195.762C848.68 195.293 849 194.707 849.062 194.004H851.113C851.074 194.73 850.824 195.422 850.363 196.078C849.902 196.734 849.285 197.258 848.512 197.648C847.746 198.039 846.934 198.234 846.074 198.234C844.348 198.234 842.973 197.66 841.949 196.512C840.934 195.355 840.426 193.777 840.426 191.777V191.414C840.426 190.18 840.652 189.082 841.105 188.121C841.559 187.16 842.207 186.414 843.051 185.883C843.902 185.352 844.906 185.086 846.062 185.086C847.484 185.086 848.664 185.512 849.602 186.363C850.547 187.215 851.051 188.32 851.113 189.68H849.062C849 188.859 848.688 188.188 848.125 187.664C847.57 187.133 846.883 186.867 846.062 186.867C844.961 186.867 844.105 187.266 843.496 188.062C842.895 188.852 842.594 189.996 842.594 191.496V191.906C842.594 193.367 842.895 194.492 843.496 195.281C844.098 196.07 844.957 196.465 846.074 196.465ZM858.812 198.234C857.094 198.234 855.695 197.672 854.617 196.547C853.539 195.414 853 193.902 853 192.012V191.613C853 190.355 853.238 189.234 853.715 188.25C854.199 187.258 854.871 186.484 855.73 185.93C856.598 185.367 857.535 185.086 858.543 185.086C860.191 185.086 861.473 185.629 862.387 186.715C863.301 187.801 863.758 189.355 863.758 191.379V192.281H855.168C855.199 193.531 855.562 194.543 856.258 195.316C856.961 196.082 857.852 196.465 858.93 196.465C859.695 196.465 860.344 196.309 860.875 195.996C861.406 195.684 861.871 195.27 862.27 194.754L863.594 195.785C862.531 197.418 860.938 198.234 858.812 198.234ZM858.543 186.867C857.668 186.867 856.934 187.188 856.34 187.828C855.746 188.461 855.379 189.352 855.238 190.5H861.59V190.336C861.527 189.234 861.23 188.383 860.699 187.781C860.168 187.172 859.449 186.867 858.543 186.867ZM876.988 191.801C876.988 193.73 876.547 195.285 875.664 196.465C874.781 197.645 873.586 198.234 872.078 198.234C870.539 198.234 869.328 197.746 868.445 196.77V202.875H866.277V185.32H868.258L868.363 186.727C869.246 185.633 870.473 185.086 872.043 185.086C873.566 185.086 874.77 185.66 875.652 186.809C876.543 187.957 876.988 189.555 876.988 191.602V191.801ZM874.82 191.555C874.82 190.125 874.516 188.996 873.906 188.168C873.297 187.34 872.461 186.926 871.398 186.926C870.086 186.926 869.102 187.508 868.445 188.672V194.73C869.094 195.887 870.086 196.465 871.422 196.465C872.461 196.465 873.285 196.055 873.895 195.234C874.512 194.406 874.82 193.18 874.82 191.555ZM882.695 182.25V185.32H885.062V186.996H882.695V194.859C882.695 195.367 882.801 195.75 883.012 196.008C883.223 196.258 883.582 196.383 884.09 196.383C884.34 196.383 884.684 196.336 885.121 196.242V198C884.551 198.156 883.996 198.234 883.457 198.234C882.488 198.234 881.758 197.941 881.266 197.355C880.773 196.77 880.527 195.938 880.527 194.859V186.996H878.219V185.32H880.527V182.25H882.695Z" fill="black"/>
<rect x="444.5" y="476.5" width="119" height="119" fill="#6FCF97" stroke="black"/>
<path d="M462.703 524.586C462.492 526.391 461.824 527.785 460.699 528.77C459.582 529.746 458.094 530.234 456.234 530.234C454.219 530.234 452.602 529.512 451.383 528.066C450.172 526.621 449.566 524.688 449.566 522.266V520.625C449.566 519.039 449.848 517.645 450.41 516.441C450.98 515.238 451.785 514.316 452.824 513.676C453.863 513.027 455.066 512.703 456.434 512.703C458.246 512.703 459.699 513.211 460.793 514.227C461.887 515.234 462.523 516.633 462.703 518.422H460.441C460.246 517.062 459.82 516.078 459.164 515.469C458.516 514.859 457.605 514.555 456.434 514.555C454.996 514.555 453.867 515.086 453.047 516.148C452.234 517.211 451.828 518.723 451.828 520.684V522.336C451.828 524.188 452.215 525.66 452.988 526.754C453.762 527.848 454.844 528.395 456.234 528.395C457.484 528.395 458.441 528.113 459.105 527.551C459.777 526.98 460.223 525.992 460.441 524.586H462.703ZM464.871 523.543C464.871 522.301 465.113 521.184 465.598 520.191C466.09 519.199 466.77 518.434 467.637 517.895C468.512 517.355 469.508 517.086 470.625 517.086C472.352 517.086 473.746 517.684 474.809 518.879C475.879 520.074 476.414 521.664 476.414 523.648V523.801C476.414 525.035 476.176 526.145 475.699 527.129C475.23 528.105 474.555 528.867 473.672 529.414C472.797 529.961 471.789 530.234 470.648 530.234C468.93 530.234 467.535 529.637 466.465 528.441C465.402 527.246 464.871 525.664 464.871 523.695V523.543ZM467.051 523.801C467.051 525.207 467.375 526.336 468.023 527.188C468.68 528.039 469.555 528.465 470.648 528.465C471.75 528.465 472.625 528.035 473.273 527.176C473.922 526.309 474.246 525.098 474.246 523.543C474.246 522.152 473.914 521.027 473.25 520.168C472.594 519.301 471.719 518.867 470.625 518.867C469.555 518.867 468.691 519.293 468.035 520.145C467.379 520.996 467.051 522.215 467.051 523.801ZM478.605 523.555C478.605 521.609 479.066 520.047 479.988 518.867C480.91 517.68 482.117 517.086 483.609 517.086C485.094 517.086 486.27 517.594 487.137 518.609V512H489.305V530H487.312L487.207 528.641C486.34 529.703 485.133 530.234 483.586 530.234C482.117 530.234 480.918 529.633 479.988 528.43C479.066 527.227 478.605 525.656 478.605 523.719V523.555ZM480.773 523.801C480.773 525.238 481.07 526.363 481.664 527.176C482.258 527.988 483.078 528.395 484.125 528.395C485.5 528.395 486.504 527.777 487.137 526.543V520.719C486.488 519.523 485.492 518.926 484.148 518.926C483.086 518.926 482.258 519.336 481.664 520.156C481.07 520.977 480.773 522.191 480.773 523.801ZM497.941 530.234C496.223 530.234 494.824 529.672 493.746 528.547C492.668 527.414 492.129 525.902 492.129 524.012V523.613C492.129 522.355 492.367 521.234 492.844 520.25C493.328 519.258 494 518.484 494.859 517.93C495.727 517.367 496.664 517.086 497.672 517.086C499.32 517.086 500.602 517.629 501.516 518.715C502.43 519.801 502.887 521.355 502.887 523.379V524.281H494.297C494.328 525.531 494.691 526.543 495.387 527.316C496.09 528.082 496.98 528.465 498.059 528.465C498.824 528.465 499.473 528.309 500.004 527.996C500.535 527.684 501 527.27 501.398 526.754L502.723 527.785C501.66 529.418 500.066 530.234 497.941 530.234ZM497.672 518.867C496.797 518.867 496.062 519.188 495.469 519.828C494.875 520.461 494.508 521.352 494.367 522.5H500.719V522.336C500.656 521.234 500.359 520.383 499.828 519.781C499.297 519.172 498.578 518.867 497.672 518.867ZM519.188 530C519.062 529.75 518.961 529.305 518.883 528.664C517.875 529.711 516.672 530.234 515.273 530.234C514.023 530.234 512.996 529.883 512.191 529.18C511.395 528.469 510.996 527.57 510.996 526.484C510.996 525.164 511.496 524.141 512.496 523.414C513.504 522.68 514.918 522.312 516.738 522.312H518.848V521.316C518.848 520.559 518.621 519.957 518.168 519.512C517.715 519.059 517.047 518.832 516.164 518.832C515.391 518.832 514.742 519.027 514.219 519.418C513.695 519.809 513.434 520.281 513.434 520.836H511.254C511.254 520.203 511.477 519.594 511.922 519.008C512.375 518.414 512.984 517.945 513.75 517.602C514.523 517.258 515.371 517.086 516.293 517.086C517.754 517.086 518.898 517.453 519.727 518.188C520.555 518.914 520.984 519.918 521.016 521.199V527.035C521.016 528.199 521.164 529.125 521.461 529.812V530H519.188ZM515.59 528.348C516.27 528.348 516.914 528.172 517.523 527.82C518.133 527.469 518.574 527.012 518.848 526.449V523.848H517.148C514.492 523.848 513.164 524.625 513.164 526.18C513.164 526.859 513.391 527.391 513.844 527.773C514.297 528.156 514.879 528.348 515.59 528.348ZM525.48 530V518.996H523.477V517.32H525.48V516.02C525.48 514.66 525.844 513.609 526.57 512.867C527.297 512.125 528.324 511.754 529.652 511.754C530.152 511.754 530.648 511.82 531.141 511.953L531.023 513.711C530.656 513.641 530.266 513.605 529.852 513.605C529.148 513.605 528.605 513.812 528.223 514.227C527.84 514.633 527.648 515.219 527.648 515.984V517.32H530.355V518.996H527.648V530H525.48ZM535.699 514.25V517.32H538.066V518.996H535.699V526.859C535.699 527.367 535.805 527.75 536.016 528.008C536.227 528.258 536.586 528.383 537.094 528.383C537.344 528.383 537.688 528.336 538.125 528.242V530C537.555 530.156 537 530.234 536.461 530.234C535.492 530.234 534.762 529.941 534.27 529.355C533.777 528.77 533.531 527.938 533.531 526.859V518.996H531.223V517.32H533.531V514.25H535.699ZM545.871 530.234C544.152 530.234 542.754 529.672 541.676 528.547C540.598 527.414 540.059 525.902 540.059 524.012V523.613C540.059 522.355 540.297 521.234 540.773 520.25C541.258 519.258 541.93 518.484 542.789 517.93C543.656 517.367 544.594 517.086 545.602 517.086C547.25 517.086 548.531 517.629 549.445 518.715C550.359 519.801 550.816 521.355 550.816 523.379V524.281H542.227C542.258 525.531 542.621 526.543 543.316 527.316C544.02 528.082 544.91 528.465 545.988 528.465C546.754 528.465 547.402 528.309 547.934 527.996C548.465 527.684 548.93 527.27 549.328 526.754L550.652 527.785C549.59 529.418 547.996 530.234 545.871 530.234ZM545.602 518.867C544.727 518.867 543.992 519.188 543.398 519.828C542.805 520.461 542.438 521.352 542.297 522.5H548.648V522.336C548.586 521.234 548.289 520.383 547.758 519.781C547.227 519.172 546.508 518.867 545.602 518.867ZM559.465 519.266C559.137 519.211 558.781 519.184 558.398 519.184C556.977 519.184 556.012 519.789 555.504 521V530H553.336V517.32H555.445L555.48 518.785C556.191 517.652 557.199 517.086 558.504 517.086C558.926 517.086 559.246 517.141 559.465 517.25V519.266ZM454.348 542.25V545.32H456.715V546.996H454.348V554.859C454.348 555.367 454.453 555.75 454.664 556.008C454.875 556.258 455.234 556.383 455.742 556.383C455.992 556.383 456.336 556.336 456.773 556.242V558C456.203 558.156 455.648 558.234 455.109 558.234C454.141 558.234 453.41 557.941 452.918 557.355C452.426 556.77 452.18 555.938 452.18 554.859V546.996H449.871V545.32H452.18V542.25H454.348ZM465.387 547.266C465.059 547.211 464.703 547.184 464.32 547.184C462.898 547.184 461.934 547.789 461.426 549V558H459.258V545.32H461.367L461.402 546.785C462.113 545.652 463.121 545.086 464.426 545.086C464.848 545.086 465.168 545.141 465.387 545.25V547.266ZM471.75 554.824L474.703 545.32H477.023L471.926 559.957C471.137 562.066 469.883 563.121 468.164 563.121L467.754 563.086L466.945 562.934V561.176L467.531 561.223C468.266 561.223 468.836 561.074 469.242 560.777C469.656 560.48 469.996 559.938 470.262 559.148L470.742 557.859L466.219 545.32H468.586L471.75 554.824ZM479.402 559.465H477.539L484.664 540.938H486.516L479.402 559.465ZM494.121 558.234C492.402 558.234 491.004 557.672 489.926 556.547C488.848 555.414 488.309 553.902 488.309 552.012V551.613C488.309 550.355 488.547 549.234 489.023 548.25C489.508 547.258 490.18 546.484 491.039 545.93C491.906 545.367 492.844 545.086 493.852 545.086C495.5 545.086 496.781 545.629 497.695 546.715C498.609 547.801 499.066 549.355 499.066 551.379V552.281H490.477C490.508 553.531 490.871 554.543 491.566 555.316C492.27 556.082 493.16 556.465 494.238 556.465C495.004 556.465 495.652 556.309 496.184 555.996C496.715 555.684 497.18 555.27 497.578 554.754L498.902 555.785C497.84 557.418 496.246 558.234 494.121 558.234ZM493.852 546.867C492.977 546.867 492.242 547.188 491.648 547.828C491.055 548.461 490.688 549.352 490.547 550.5H496.898V550.336C496.836 549.234 496.539 548.383 496.008 547.781C495.477 547.172 494.758 546.867 493.852 546.867ZM505.84 549.949L508.652 545.32H511.184L507.035 551.59L511.312 558H508.805L505.875 553.254L502.945 558H500.426L504.703 551.59L500.555 545.32H503.062L505.84 549.949ZM518.344 556.465C519.117 556.465 519.793 556.23 520.371 555.762C520.949 555.293 521.27 554.707 521.332 554.004H523.383C523.344 554.73 523.094 555.422 522.633 556.078C522.172 556.734 521.555 557.258 520.781 557.648C520.016 558.039 519.203 558.234 518.344 558.234C516.617 558.234 515.242 557.66 514.219 556.512C513.203 555.355 512.695 553.777 512.695 551.777V551.414C512.695 550.18 512.922 549.082 513.375 548.121C513.828 547.16 514.477 546.414 515.32 545.883C516.172 545.352 517.176 545.086 518.332 545.086C519.754 545.086 520.934 545.512 521.871 546.363C522.816 547.215 523.32 548.32 523.383 549.68H521.332C521.27 548.859 520.957 548.188 520.395 547.664C519.84 547.133 519.152 546.867 518.332 546.867C517.23 546.867 516.375 547.266 515.766 548.062C515.164 548.852 514.863 549.996 514.863 551.496V551.906C514.863 553.367 515.164 554.492 515.766 555.281C516.367 556.07 517.227 556.465 518.344 556.465ZM531.082 558.234C529.363 558.234 527.965 557.672 526.887 556.547C525.809 555.414 525.27 553.902 525.27 552.012V551.613C525.27 550.355 525.508 549.234 525.984 548.25C526.469 547.258 527.141 546.484 528 545.93C528.867 545.367 529.805 545.086 530.812 545.086C532.461 545.086 533.742 545.629 534.656 546.715C535.57 547.801 536.027 549.355 536.027 551.379V552.281H527.438C527.469 553.531 527.832 554.543 528.527 555.316C529.23 556.082 530.121 556.465 531.199 556.465C531.965 556.465 532.613 556.309 533.145 555.996C533.676 555.684 534.141 555.27 534.539 554.754L535.863 555.785C534.801 557.418 533.207 558.234 531.082 558.234ZM530.812 546.867C529.938 546.867 529.203 547.188 528.609 547.828C528.016 548.461 527.648 549.352 527.508 550.5H533.859V550.336C533.797 549.234 533.5 548.383 532.969 547.781C532.438 547.172 531.719 546.867 530.812 546.867ZM549.258 551.801C549.258 553.73 548.816 555.285 547.934 556.465C547.051 557.645 545.855 558.234 544.348 558.234C542.809 558.234 541.598 557.746 540.715 556.77V562.875H538.547V545.32H540.527L540.633 546.727C541.516 545.633 542.742 545.086 544.312 545.086C545.836 545.086 547.039 545.66 547.922 546.809C548.812 547.957 549.258 549.555 549.258 551.602V551.801ZM547.09 551.555C547.09 550.125 546.785 548.996 546.176 548.168C545.566 547.34 544.73 546.926 543.668 546.926C542.355 546.926 541.371 547.508 540.715 548.672V554.73C541.363 555.887 542.355 556.465 543.691 556.465C544.73 556.465 545.555 556.055 546.164 555.234C546.781 554.406 547.09 553.18 547.09 551.555ZM554.965 542.25V545.32H557.332V546.996H554.965V554.859C554.965 555.367 555.07 555.75 555.281 556.008C555.492 556.258 555.852 556.383 556.359 556.383C556.609 556.383 556.953 556.336 557.391 556.242V558C556.82 558.156 556.266 558.234 555.727 558.234C554.758 558.234 554.027 557.941 553.535 557.355C553.043 556.77 552.797 555.938 552.797 554.859V546.996H550.488V545.32H552.797V542.25H554.965Z" fill="black"/>
<path d="M501.856 472.121C503.015 473.293 504.915 473.293 506.099 472.121L525.394 453.03C526.578 451.859 526.598 449.96 525.439 448.788C524.28 447.616 522.38 447.616 521.196 448.788L504.045 465.758L487.255 448.788C486.096 447.616 484.196 447.616 483.012 448.788C481.828 449.96 481.808 451.859 482.967 453.03L501.856 472.121ZM503 282L501 470L507 470L509 282L503 282Z" fill="#27AE60"/>
<path d="M565.293 535.293C564.902 535.683 564.902 536.317 565.293 536.707L571.657 543.071C572.047 543.462 572.681 543.462 573.071 543.071C573.462 542.681 573.462 542.047 573.071 541.657L567.414 536L573.071 530.343C573.462 529.953 573.462 529.319 573.071 528.929C572.681 528.538 572.047 528.538 571.657 528.929L565.293 535.293ZM854 535H850V537H854V535ZM846 535H838V537H846V535ZM834 535H826V537H834V535ZM822 535H814V537H822V535ZM810 535H802V537H810V535ZM798 535H790V537H798V535ZM786 535H778V537H786V535ZM774 535H766V537H774V535ZM762 535H754V537H762V535ZM750 535H742V537H750V535ZM738 535H730V537H738V535ZM726 535H718V537H726V535ZM714 535H706V537H714V535ZM702 535H694V537H702V535ZM690 535H682V537H690V535ZM678 535H670V537H678V535ZM666 535H658V537H666V535ZM654 535H646V537H654V535ZM642 535H634V537H642V535ZM630 535H622V537H630V535ZM618 535H610V537H618V535ZM606 535H598V537H606V535ZM594 535H586V537H594V535ZM582 535H574V537H582V535ZM570 535H566V537H570V535ZM564.586 534.586C563.805 535.367 563.805 536.633 564.586 537.414L577.314 550.142C578.095 550.923 579.361 550.923 580.142 550.142C580.923 549.361 580.923 548.095 580.142 547.314L568.828 536L580.142 524.686C580.923 523.905 580.923 522.639 580.142 521.858C579.361 521.077 578.095 521.077 577.314 521.858L564.586 534.586ZM854 534H850V538H854V534ZM846 534H838V538H846V534ZM834 534H826V538H834V534ZM822 534H814V538H822V534ZM810 534H802V538H810V534ZM798 534H790V538H798V534ZM786 534H778V538H786V534ZM774 534H766V538H774V534ZM762 534H754V538H762V534ZM750 534H742V538H750V534ZM738 534H730V538H738V534ZM726 534H718V538H726V534ZM714 534H706V538H714V534ZM702 534H694V538H702V534ZM690 534H682V538H690V534ZM678 534H670V538H678V534ZM666 534H658V538H666V534ZM654 534H646V538H654V534ZM642 534H634V538H642V534ZM630 534H622V538H630V534ZM618 534H610V538H618V534ZM606 534H598V538H606V534ZM594 534H586V538H594V534ZM582 534H574V538H582V534ZM570 534H566V538H570V534Z" fill="#828282"/>
<line x1="851.028" y1="256" x2="851.028" y2="536" stroke="#828282" stroke-dasharray="4 2"/>
</svg>
