<svg width="1220" height="302" viewBox="0 0 1220 302" fill="none" xmlns="http://www.w3.org/2000/svg">
<rect width="610" height="151" transform="scale(2)" fill="white"/>
<path d="M999.77 82.7891H994.285V98H992.047V82.7891H986.574V80.9375H999.77V82.7891ZM1004.13 86.8555C1005.09 85.6758 1006.34 85.0859 1007.88 85.0859C1010.56 85.0859 1011.91 86.5977 1011.93 89.6211V98H1009.77V89.6094C1009.76 88.6953 1009.55 88.0195 1009.13 87.582C1008.73 87.1445 1008.09 86.9258 1007.22 86.9258C1006.52 86.9258 1005.9 87.1133 1005.37 87.4883C1004.84 87.8633 1004.43 88.3555 1004.13 88.9648V98H1001.96V80H1004.13V86.8555ZM1020.44 98.2344C1018.72 98.2344 1017.32 97.6719 1016.25 96.5469C1015.17 95.4141 1014.63 93.9023 1014.63 92.0117V91.6133C1014.63 90.3555 1014.87 89.2344 1015.34 88.25C1015.83 87.2578 1016.5 86.4844 1017.36 85.9297C1018.23 85.3672 1019.16 85.0859 1020.17 85.0859C1021.82 85.0859 1023.1 85.6289 1024.02 86.7148C1024.93 87.8008 1025.39 89.3555 1025.39 91.3789V92.2812H1016.8C1016.83 93.5312 1017.19 94.543 1017.89 95.3164C1018.59 96.082 1019.48 96.4648 1020.56 96.4648C1021.32 96.4648 1021.97 96.3086 1022.5 95.9961C1023.04 95.6836 1023.5 95.2695 1023.9 94.7539L1025.22 95.7852C1024.16 97.418 1022.57 98.2344 1020.44 98.2344ZM1020.17 86.8672C1019.3 86.8672 1018.56 87.1875 1017.97 87.8281C1017.38 88.4609 1017.01 89.3516 1016.87 90.5H1023.22V90.3359C1023.16 89.2344 1022.86 88.3828 1022.33 87.7812C1021.8 87.1719 1021.08 86.8672 1020.17 86.8672ZM1037.57 82.2031V85.3203H1039.74V87.8047H1037.57V94.1328C1037.57 94.6016 1037.66 94.9375 1037.84 95.1406C1038.02 95.3438 1038.37 95.4453 1038.88 95.4453C1039.25 95.4453 1039.58 95.418 1039.87 95.3633V97.9297C1039.21 98.1328 1038.52 98.2344 1037.82 98.2344C1035.45 98.2344 1034.23 97.0352 1034.19 94.6367V87.8047H1032.34V85.3203H1034.19V82.2031H1037.57ZM1048.75 88.4961C1048.29 88.4336 1047.89 88.4023 1047.54 88.4023C1046.25 88.4023 1045.41 88.8359 1045.02 89.7031V98H1041.63V85.3203H1044.83L1044.92 86.832C1045.6 85.668 1046.54 85.0859 1047.75 85.0859C1048.12 85.0859 1048.47 85.1367 1048.8 85.2383L1048.75 88.4961ZM1055.34 93.207L1057.68 85.3203H1061.32L1056.22 99.9688L1055.94 100.637C1055.18 102.293 1053.93 103.121 1052.19 103.121C1051.7 103.121 1051.2 103.047 1050.69 102.898V100.332L1051.2 100.344C1051.84 100.344 1052.32 100.246 1052.63 100.051C1052.95 99.8555 1053.2 99.5312 1053.38 99.0781L1053.78 98.0352L1049.34 85.3203H1052.98L1055.34 93.207ZM1079.68 91.8008C1079.68 93.7383 1079.23 95.2969 1078.34 96.4766C1077.45 97.6484 1076.26 98.2344 1074.76 98.2344C1073.16 98.2344 1071.92 97.668 1071.04 96.5352L1070.94 98H1068.95V80H1071.11V86.7148C1071.99 85.6289 1073.2 85.0859 1074.73 85.0859C1076.27 85.0859 1077.48 85.668 1078.36 86.832C1079.24 87.9961 1079.68 89.5898 1079.68 91.6133V91.8008ZM1077.51 91.5547C1077.51 90.0781 1077.23 88.9375 1076.66 88.1328C1076.09 87.3281 1075.27 86.9258 1074.2 86.9258C1072.77 86.9258 1071.74 87.5898 1071.11 88.918V94.4023C1071.78 95.7305 1072.81 96.3945 1074.22 96.3945C1075.26 96.3945 1076.07 95.9922 1076.64 95.1875C1077.22 94.3828 1077.51 93.1719 1077.51 91.5547ZM1084.78 98H1082.61V80H1084.78V98ZM1087.68 91.543C1087.68 90.3008 1087.93 89.1836 1088.41 88.1914C1088.9 87.1992 1089.58 86.4336 1090.45 85.8945C1091.32 85.3555 1092.32 85.0859 1093.44 85.0859C1095.16 85.0859 1096.56 85.6836 1097.62 86.8789C1098.69 88.0742 1099.23 89.6641 1099.23 91.6484V91.8008C1099.23 93.0352 1098.99 94.1445 1098.51 95.1289C1098.04 96.1055 1097.37 96.8672 1096.48 97.4141C1095.61 97.9609 1094.6 98.2344 1093.46 98.2344C1091.74 98.2344 1090.35 97.6367 1089.28 96.4414C1088.21 95.2461 1087.68 93.6641 1087.68 91.6953V91.543ZM1089.86 91.8008C1089.86 93.207 1090.19 94.3359 1090.84 95.1875C1091.49 96.0391 1092.37 96.4648 1093.46 96.4648C1094.56 96.4648 1095.44 96.0352 1096.09 95.1758C1096.73 94.3086 1097.06 93.0977 1097.06 91.543C1097.06 90.1523 1096.73 89.0273 1096.06 88.168C1095.41 87.3008 1094.53 86.8672 1093.44 86.8672C1092.37 86.8672 1091.5 87.293 1090.85 88.1445C1090.19 88.9961 1089.86 90.2148 1089.86 91.8008ZM1107.03 96.4648C1107.8 96.4648 1108.48 96.2305 1109.06 95.7617C1109.64 95.293 1109.96 94.707 1110.02 94.0039H1112.07C1112.03 94.7305 1111.78 95.4219 1111.32 96.0781C1110.86 96.7344 1110.24 97.2578 1109.47 97.6484C1108.7 98.0391 1107.89 98.2344 1107.03 98.2344C1105.3 98.2344 1103.93 97.6602 1102.91 96.5117C1101.89 95.3555 1101.38 93.7773 1101.38 91.7773V91.4141C1101.38 90.1797 1101.61 89.082 1102.06 88.1211C1102.52 87.1602 1103.16 86.4141 1104.01 85.8828C1104.86 85.3516 1105.86 85.0859 1107.02 85.0859C1108.44 85.0859 1109.62 85.5117 1110.56 86.3633C1111.5 87.2148 1112.01 88.3203 1112.07 89.6797H1110.02C1109.96 88.8594 1109.64 88.1875 1109.08 87.6641C1108.53 87.1328 1107.84 86.8672 1107.02 86.8672C1105.92 86.8672 1105.06 87.2656 1104.45 88.0625C1103.85 88.8516 1103.55 89.9961 1103.55 91.4961V91.9062C1103.55 93.3672 1103.85 94.4922 1104.45 95.2812C1105.05 96.0703 1105.91 96.4648 1107.03 96.4648ZM1118.05 92.1289L1116.69 93.5469V98H1114.52V80H1116.69V90.8867L1117.85 89.4922L1121.8 85.3203H1124.43L1119.5 90.6172L1125.01 98H1122.46L1118.05 92.1289Z" fill="black"/>
<path d="M54.0283 104H51.9658V88.3594H54.0283V104ZM59.3779 92.377L59.4424 93.8379C60.3304 92.7207 61.4906 92.1621 62.9229 92.1621C65.3792 92.1621 66.6182 93.5479 66.6396 96.3193V104H64.6523V96.3086C64.6452 95.4707 64.4518 94.8512 64.0723 94.4502C63.6999 94.0492 63.1162 93.8486 62.3213 93.8486C61.6768 93.8486 61.111 94.0205 60.624 94.3643C60.137 94.708 59.7575 95.1592 59.4854 95.7178V104H57.498V92.377H59.3779ZM69.1533 98.0918C69.1533 96.3086 69.5758 94.8763 70.4209 93.7949C71.266 92.7064 72.3724 92.1621 73.7402 92.1621C75.1009 92.1621 76.1787 92.6276 76.9736 93.5586V87.5H78.9609V104H77.1348L77.0381 102.754C76.2432 103.728 75.1367 104.215 73.7188 104.215C72.3724 104.215 71.2731 103.663 70.4209 102.561C69.5758 101.458 69.1533 100.018 69.1533 98.2422V98.0918ZM71.1406 98.3174C71.1406 99.6351 71.4128 100.666 71.957 101.411C72.5013 102.156 73.2533 102.528 74.2129 102.528C75.4733 102.528 76.3936 101.963 76.9736 100.831V95.4922C76.3792 94.3965 75.4661 93.8486 74.2344 93.8486C73.2604 93.8486 72.5013 94.2246 71.957 94.9766C71.4128 95.7285 71.1406 96.8421 71.1406 98.3174ZM86.8779 104.215C85.3024 104.215 84.0205 103.699 83.0322 102.668C82.0439 101.63 81.5498 100.244 81.5498 98.5107V98.1455C81.5498 96.9925 81.7682 95.9648 82.2051 95.0625C82.6491 94.153 83.265 93.444 84.0527 92.9355C84.8477 92.4199 85.707 92.1621 86.6309 92.1621C88.1419 92.1621 89.3164 92.6598 90.1543 93.6553C90.9922 94.6507 91.4111 96.0758 91.4111 97.9307V98.7578H83.5371C83.5658 99.9036 83.8988 100.831 84.5361 101.54C85.1807 102.242 85.9971 102.593 86.9854 102.593C87.6872 102.593 88.2816 102.45 88.7686 102.163C89.2555 101.877 89.6816 101.497 90.0469 101.024L91.2607 101.97C90.2868 103.466 88.8258 104.215 86.8779 104.215ZM86.6309 93.7949C85.8288 93.7949 85.1556 94.0885 84.6113 94.6758C84.0671 95.2559 83.7305 96.0723 83.6016 97.125H89.4238V96.9746C89.3665 95.9648 89.0944 95.1842 88.6074 94.6328C88.1204 94.0742 87.4616 93.7949 86.6309 93.7949ZM95.6006 92.377L95.665 93.8379C96.5531 92.7207 97.7132 92.1621 99.1455 92.1621C101.602 92.1621 102.841 93.5479 102.862 96.3193V104H100.875V96.3086C100.868 95.4707 100.674 94.8512 100.295 94.4502C99.9225 94.0492 99.3389 93.8486 98.5439 93.8486C97.8994 93.8486 97.3337 94.0205 96.8467 94.3643C96.3597 94.708 95.9801 95.1592 95.708 95.7178V104H93.7207V92.377H95.6006ZM108.556 89.5625V92.377H110.726V93.9131H108.556V101.121C108.556 101.587 108.652 101.938 108.846 102.174C109.039 102.403 109.368 102.518 109.834 102.518C110.063 102.518 110.378 102.475 110.779 102.389V104C110.257 104.143 109.748 104.215 109.254 104.215C108.366 104.215 107.696 103.946 107.245 103.409C106.794 102.872 106.568 102.109 106.568 101.121V93.9131H104.452V92.377H106.568V89.5625H108.556ZM119.824 100.917C119.824 100.38 119.62 99.9645 119.212 99.6709C118.811 99.3701 118.105 99.1123 117.096 98.8975C116.093 98.6826 115.295 98.4248 114.7 98.124C114.113 97.8232 113.676 97.4652 113.39 97.0498C113.11 96.6344 112.971 96.1403 112.971 95.5674C112.971 94.6149 113.372 93.8092 114.174 93.1504C114.983 92.4915 116.014 92.1621 117.268 92.1621C118.585 92.1621 119.652 92.5023 120.469 93.1826C121.292 93.863 121.704 94.7331 121.704 95.793H119.706C119.706 95.2487 119.473 94.7796 119.008 94.3857C118.549 93.9919 117.969 93.7949 117.268 93.7949C116.544 93.7949 115.979 93.9525 115.57 94.2676C115.162 94.5827 114.958 94.9945 114.958 95.5029C114.958 95.9827 115.148 96.3444 115.527 96.5879C115.907 96.8314 116.591 97.0641 117.579 97.2861C118.575 97.5081 119.38 97.7731 119.996 98.0811C120.612 98.389 121.067 98.7614 121.36 99.1982C121.661 99.6279 121.812 100.154 121.812 100.777C121.812 101.816 121.396 102.65 120.565 103.28C119.735 103.903 118.657 104.215 117.332 104.215C116.401 104.215 115.577 104.05 114.861 103.721C114.145 103.391 113.583 102.933 113.175 102.346C112.774 101.751 112.573 101.11 112.573 100.423H114.561C114.596 101.089 114.861 101.619 115.355 102.013C115.857 102.399 116.516 102.593 117.332 102.593C118.084 102.593 118.686 102.442 119.137 102.142C119.595 101.834 119.824 101.425 119.824 100.917ZM129.374 98.0918C129.374 96.3086 129.797 94.8763 130.642 93.7949C131.487 92.7064 132.593 92.1621 133.961 92.1621C135.322 92.1621 136.399 92.6276 137.194 93.5586V87.5H139.182V104H137.355L137.259 102.754C136.464 103.728 135.357 104.215 133.939 104.215C132.593 104.215 131.494 103.663 130.642 102.561C129.797 101.458 129.374 100.018 129.374 98.2422V98.0918ZM131.361 98.3174C131.361 99.6351 131.633 100.666 132.178 101.411C132.722 102.156 133.474 102.528 134.434 102.528C135.694 102.528 136.614 101.963 137.194 100.831V95.4922C136.6 94.3965 135.687 93.8486 134.455 93.8486C133.481 93.8486 132.722 94.2246 132.178 94.9766C131.633 95.7285 131.361 96.8421 131.361 98.3174ZM147.099 104.215C145.523 104.215 144.241 103.699 143.253 102.668C142.265 101.63 141.771 100.244 141.771 98.5107V98.1455C141.771 96.9925 141.989 95.9648 142.426 95.0625C142.87 94.153 143.486 93.444 144.273 92.9355C145.068 92.4199 145.928 92.1621 146.852 92.1621C148.363 92.1621 149.537 92.6598 150.375 93.6553C151.213 94.6507 151.632 96.0758 151.632 97.9307V98.7578H143.758C143.786 99.9036 144.119 100.831 144.757 101.54C145.401 102.242 146.218 102.593 147.206 102.593C147.908 102.593 148.502 102.45 148.989 102.163C149.476 101.877 149.902 101.497 150.268 101.024L151.481 101.97C150.507 103.466 149.047 104.215 147.099 104.215ZM146.852 93.7949C146.049 93.7949 145.376 94.0885 144.832 94.6758C144.288 95.2559 143.951 96.0723 143.822 97.125H149.645V96.9746C149.587 95.9648 149.315 95.1842 148.828 94.6328C148.341 94.0742 147.682 93.7949 146.852 93.7949ZM154.607 104V93.9131H152.771V92.377H154.607V91.3887C154.607 90.0924 154.976 89.0827 155.714 88.3594C156.459 87.6361 157.508 87.2744 158.861 87.2744C159.663 87.2744 160.677 87.4928 161.901 87.9297L161.568 89.6055C160.673 89.2474 159.821 89.0684 159.012 89.0684C158.16 89.0684 157.544 89.2617 157.164 89.6484C156.792 90.028 156.605 90.6009 156.605 91.3672V92.377H158.979V93.9131H156.605V104H154.607ZM162.89 104H160.892V92.377H162.89V104ZM168.003 92.377L168.067 93.8379C168.955 92.7207 170.116 92.1621 171.548 92.1621C174.004 92.1621 175.243 93.5479 175.265 96.3193V104H173.277V96.3086C173.27 95.4707 173.077 94.8512 172.697 94.4502C172.325 94.0492 171.741 93.8486 170.946 93.8486C170.302 93.8486 169.736 94.0205 169.249 94.3643C168.762 94.708 168.382 95.1592 168.11 95.7178V104H166.123V92.377H168.003ZM183.085 104.215C181.509 104.215 180.228 103.699 179.239 102.668C178.251 101.63 177.757 100.244 177.757 98.5107V98.1455C177.757 96.9925 177.975 95.9648 178.412 95.0625C178.856 94.153 179.472 93.444 180.26 92.9355C181.055 92.4199 181.914 92.1621 182.838 92.1621C184.349 92.1621 185.523 92.6598 186.361 93.6553C187.199 94.6507 187.618 96.0758 187.618 97.9307V98.7578H179.744C179.773 99.9036 180.106 100.831 180.743 101.54C181.388 102.242 182.204 102.593 183.192 102.593C183.894 102.593 184.489 102.45 184.976 102.163C185.463 101.877 185.889 101.497 186.254 101.024L187.468 101.97C186.494 103.466 185.033 104.215 183.085 104.215ZM182.838 93.7949C182.036 93.7949 181.363 94.0885 180.818 94.6758C180.274 95.2559 179.938 96.0723 179.809 97.125H185.631V96.9746C185.574 95.9648 185.301 95.1842 184.814 94.6328C184.327 94.0742 183.669 93.7949 182.838 93.7949ZM54.2002 115.562V118.377H56.3701V119.913H54.2002V127.121C54.2002 127.587 54.2969 127.938 54.4902 128.174C54.6836 128.403 55.013 128.518 55.4785 128.518C55.7077 128.518 56.0228 128.475 56.4238 128.389V130C55.901 130.143 55.3926 130.215 54.8984 130.215C54.0104 130.215 53.3408 129.946 52.8896 129.409C52.4385 128.872 52.2129 128.109 52.2129 127.121V119.913H50.0967V118.377H52.2129V115.562H54.2002ZM60.6885 119.784C61.5693 118.703 62.7152 118.162 64.126 118.162C66.5824 118.162 67.8213 119.548 67.8428 122.319V130H65.8555V122.309C65.8483 121.471 65.6549 120.851 65.2754 120.45C64.903 120.049 64.3193 119.849 63.5244 119.849C62.8799 119.849 62.3141 120.021 61.8271 120.364C61.3402 120.708 60.9606 121.159 60.6885 121.718V130H58.7012V113.5H60.6885V119.784ZM75.6416 130.215C74.0661 130.215 72.7842 129.699 71.7959 128.668C70.8076 127.63 70.3135 126.244 70.3135 124.511V124.146C70.3135 122.993 70.5319 121.965 70.9688 121.062C71.4128 120.153 72.0286 119.444 72.8164 118.936C73.6113 118.42 74.4707 118.162 75.3945 118.162C76.9056 118.162 78.0801 118.66 78.918 119.655C79.7559 120.651 80.1748 122.076 80.1748 123.931V124.758H72.3008C72.3294 125.904 72.6624 126.831 73.2998 127.54C73.9443 128.242 74.7607 128.593 75.749 128.593C76.4508 128.593 77.0452 128.45 77.5322 128.163C78.0192 127.877 78.4453 127.497 78.8105 127.024L80.0244 127.97C79.0505 129.466 77.5895 130.215 75.6416 130.215ZM75.3945 119.795C74.5924 119.795 73.9193 120.089 73.375 120.676C72.8307 121.256 72.4941 122.072 72.3652 123.125H78.1875V122.975C78.1302 121.965 77.8581 121.184 77.3711 120.633C76.8841 120.074 76.2253 119.795 75.3945 119.795ZM92.6035 128.593C93.3125 128.593 93.932 128.378 94.4619 127.948C94.9919 127.519 95.2855 126.981 95.3428 126.337H97.2227C97.1868 127.003 96.9577 127.637 96.5352 128.238C96.1126 128.84 95.5469 129.32 94.8379 129.678C94.1361 130.036 93.3913 130.215 92.6035 130.215C91.0208 130.215 89.7604 129.688 88.8223 128.636C87.8913 127.576 87.4258 126.129 87.4258 124.296V123.963C87.4258 122.831 87.6335 121.825 88.0488 120.944C88.4642 120.063 89.0586 119.38 89.832 118.893C90.6126 118.406 91.5329 118.162 92.5928 118.162C93.8962 118.162 94.9775 118.552 95.8369 119.333C96.7035 120.114 97.1654 121.127 97.2227 122.373H95.3428C95.2855 121.621 94.999 121.005 94.4834 120.525C93.9749 120.038 93.3447 119.795 92.5928 119.795C91.583 119.795 90.7988 120.16 90.2402 120.891C89.6888 121.614 89.4131 122.663 89.4131 124.038V124.414C89.4131 125.753 89.6888 126.785 90.2402 127.508C90.7917 128.231 91.5794 128.593 92.6035 128.593ZM98.9307 124.081C98.9307 122.942 99.1527 121.918 99.5967 121.009C100.048 120.099 100.671 119.397 101.466 118.903C102.268 118.409 103.181 118.162 104.205 118.162C105.788 118.162 107.066 118.71 108.04 119.806C109.021 120.901 109.512 122.359 109.512 124.178V124.317C109.512 125.449 109.293 126.466 108.856 127.368C108.427 128.263 107.807 128.962 106.998 129.463C106.196 129.964 105.272 130.215 104.227 130.215C102.651 130.215 101.373 129.667 100.392 128.571C99.4176 127.476 98.9307 126.025 98.9307 124.221V124.081ZM100.929 124.317C100.929 125.606 101.226 126.641 101.82 127.422C102.422 128.202 103.224 128.593 104.227 128.593C105.236 128.593 106.038 128.199 106.633 127.411C107.227 126.616 107.524 125.506 107.524 124.081C107.524 122.806 107.22 121.775 106.611 120.987C106.01 120.192 105.208 119.795 104.205 119.795C103.224 119.795 102.433 120.185 101.831 120.966C101.229 121.746 100.929 122.864 100.929 124.317ZM113.884 118.377L113.948 119.838C114.836 118.721 115.996 118.162 117.429 118.162C119.885 118.162 121.124 119.548 121.146 122.319V130H119.158V122.309C119.151 121.471 118.958 120.851 118.578 120.45C118.206 120.049 117.622 119.849 116.827 119.849C116.183 119.849 115.617 120.021 115.13 120.364C114.643 120.708 114.263 121.159 113.991 121.718V130H112.004V118.377H113.884ZM126.839 115.562V118.377H129.009V119.913H126.839V127.121C126.839 127.587 126.936 127.938 127.129 128.174C127.322 128.403 127.652 128.518 128.117 128.518C128.346 128.518 128.661 128.475 129.062 128.389V130C128.54 130.143 128.031 130.215 127.537 130.215C126.649 130.215 125.979 129.946 125.528 129.409C125.077 128.872 124.852 128.109 124.852 127.121V119.913H122.735V118.377H124.852V115.562H126.839ZM136.163 130.215C134.588 130.215 133.306 129.699 132.317 128.668C131.329 127.63 130.835 126.244 130.835 124.511V124.146C130.835 122.993 131.053 121.965 131.49 121.062C131.934 120.153 132.55 119.444 133.338 118.936C134.133 118.42 134.992 118.162 135.916 118.162C137.427 118.162 138.602 118.66 139.439 119.655C140.277 120.651 140.696 122.076 140.696 123.931V124.758H132.822C132.851 125.904 133.184 126.831 133.821 127.54C134.466 128.242 135.282 128.593 136.271 128.593C136.972 128.593 137.567 128.45 138.054 128.163C138.541 127.877 138.967 127.497 139.332 127.024L140.546 127.97C139.572 129.466 138.111 130.215 136.163 130.215ZM135.916 119.795C135.114 119.795 134.441 120.089 133.896 120.676C133.352 121.256 133.016 122.072 132.887 123.125H138.709V122.975C138.652 121.965 138.38 121.184 137.893 120.633C137.406 120.074 136.747 119.795 135.916 119.795ZM144.886 118.377L144.95 119.838C145.838 118.721 146.998 118.162 148.431 118.162C150.887 118.162 152.126 119.548 152.147 122.319V130H150.16V122.309C150.153 121.471 149.96 120.851 149.58 120.45C149.208 120.049 148.624 119.849 147.829 119.849C147.185 119.849 146.619 120.021 146.132 120.364C145.645 120.708 145.265 121.159 144.993 121.718V130H143.006V118.377H144.886ZM157.841 115.562V118.377H160.011V119.913H157.841V127.121C157.841 127.587 157.938 127.938 158.131 128.174C158.324 128.403 158.654 128.518 159.119 128.518C159.348 128.518 159.663 128.475 160.064 128.389V130C159.542 130.143 159.033 130.215 158.539 130.215C157.651 130.215 156.981 129.946 156.53 129.409C156.079 128.872 155.854 128.109 155.854 127.121V119.913H153.737V118.377H155.854V115.562H157.841ZM169.109 126.917C169.109 126.38 168.905 125.965 168.497 125.671C168.096 125.37 167.391 125.112 166.381 124.897C165.378 124.683 164.58 124.425 163.985 124.124C163.398 123.823 162.961 123.465 162.675 123.05C162.396 122.634 162.256 122.14 162.256 121.567C162.256 120.615 162.657 119.809 163.459 119.15C164.268 118.492 165.299 118.162 166.553 118.162C167.87 118.162 168.938 118.502 169.754 119.183C170.577 119.863 170.989 120.733 170.989 121.793H168.991C168.991 121.249 168.758 120.78 168.293 120.386C167.835 119.992 167.255 119.795 166.553 119.795C165.829 119.795 165.264 119.952 164.855 120.268C164.447 120.583 164.243 120.994 164.243 121.503C164.243 121.983 164.433 122.344 164.812 122.588C165.192 122.831 165.876 123.064 166.864 123.286C167.86 123.508 168.665 123.773 169.281 124.081C169.897 124.389 170.352 124.761 170.646 125.198C170.946 125.628 171.097 126.154 171.097 126.777C171.097 127.816 170.681 128.65 169.851 129.28C169.02 129.903 167.942 130.215 166.617 130.215C165.686 130.215 164.863 130.05 164.146 129.721C163.43 129.391 162.868 128.933 162.46 128.346C162.059 127.751 161.858 127.11 161.858 126.423H163.846C163.882 127.089 164.146 127.619 164.641 128.013C165.142 128.399 165.801 128.593 166.617 128.593C167.369 128.593 167.971 128.442 168.422 128.142C168.88 127.834 169.109 127.425 169.109 126.917ZM178.616 124.081C178.616 122.942 178.838 121.918 179.282 121.009C179.733 120.099 180.356 119.397 181.151 118.903C181.953 118.409 182.867 118.162 183.891 118.162C185.473 118.162 186.752 118.71 187.726 119.806C188.707 120.901 189.197 122.359 189.197 124.178V124.317C189.197 125.449 188.979 126.466 188.542 127.368C188.112 128.263 187.493 128.962 186.684 129.463C185.882 129.964 184.958 130.215 183.912 130.215C182.337 130.215 181.058 129.667 180.077 128.571C179.103 127.476 178.616 126.025 178.616 124.221V124.081ZM180.614 124.317C180.614 125.606 180.911 126.641 181.506 127.422C182.107 128.202 182.91 128.593 183.912 128.593C184.922 128.593 185.724 128.199 186.318 127.411C186.913 126.616 187.21 125.506 187.21 124.081C187.21 122.806 186.906 121.775 186.297 120.987C185.695 120.192 184.893 119.795 183.891 119.795C182.91 119.795 182.118 120.185 181.517 120.966C180.915 121.746 180.614 122.864 180.614 124.317ZM192.667 130V119.913H190.83V118.377H192.667V117.185C192.667 115.938 193 114.975 193.666 114.295C194.332 113.615 195.274 113.274 196.491 113.274C196.95 113.274 197.404 113.335 197.855 113.457L197.748 115.068C197.411 115.004 197.053 114.972 196.674 114.972C196.029 114.972 195.532 115.161 195.181 115.541C194.83 115.913 194.654 116.451 194.654 117.152V118.377H197.136V119.913H194.654V130H192.667ZM56.3271 156.215C54.7516 156.215 53.4697 155.699 52.4814 154.668C51.4932 153.63 50.999 152.244 50.999 150.511V150.146C50.999 148.993 51.2174 147.965 51.6543 147.062C52.0983 146.153 52.7142 145.444 53.502 144.936C54.2969 144.42 55.1562 144.162 56.0801 144.162C57.5911 144.162 58.7656 144.66 59.6035 145.655C60.4414 146.651 60.8604 148.076 60.8604 149.931V150.758H52.9863C53.015 151.904 53.348 152.831 53.9854 153.54C54.6299 154.242 55.4463 154.593 56.4346 154.593C57.1364 154.593 57.7308 154.45 58.2178 154.163C58.7048 153.877 59.1309 153.497 59.4961 153.024L60.71 153.97C59.736 155.466 58.2751 156.215 56.3271 156.215ZM56.0801 145.795C55.278 145.795 54.6048 146.089 54.0605 146.676C53.5163 147.256 53.1797 148.072 53.0508 149.125H58.873V148.975C58.8158 147.965 58.5436 147.184 58.0566 146.633C57.5697 146.074 56.9108 145.795 56.0801 145.795ZM70.3457 156C70.2311 155.771 70.138 155.363 70.0664 154.775C69.1426 155.735 68.0397 156.215 66.7578 156.215C65.612 156.215 64.6702 155.893 63.9326 155.248C63.2021 154.596 62.8369 153.773 62.8369 152.777C62.8369 151.567 63.2952 150.629 64.2119 149.963C65.1357 149.29 66.432 148.953 68.1006 148.953H70.0342V148.04C70.0342 147.345 69.8265 146.794 69.4111 146.386C68.9958 145.97 68.3835 145.763 67.5742 145.763C66.8652 145.763 66.2708 145.942 65.791 146.3C65.3112 146.658 65.0713 147.091 65.0713 147.6H63.0732C63.0732 147.02 63.2773 146.461 63.6855 145.924C64.1009 145.38 64.6595 144.95 65.3613 144.635C66.0703 144.32 66.8473 144.162 67.6924 144.162C69.0316 144.162 70.0807 144.499 70.8398 145.172C71.599 145.838 71.9928 146.758 72.0215 147.933V153.282C72.0215 154.349 72.1576 155.198 72.4297 155.828V156H70.3457ZM67.0479 154.485C67.6709 154.485 68.2617 154.324 68.8203 154.002C69.3789 153.68 69.7835 153.261 70.0342 152.745V150.36H68.4766C66.0417 150.36 64.8242 151.073 64.8242 152.498C64.8242 153.121 65.0319 153.608 65.4473 153.959C65.8626 154.31 66.3962 154.485 67.0479 154.485ZM79.7988 154.593C80.5078 154.593 81.1273 154.378 81.6572 153.948C82.1872 153.519 82.4808 152.981 82.5381 152.337H84.418C84.3822 153.003 84.153 153.637 83.7305 154.238C83.3079 154.84 82.7422 155.32 82.0332 155.678C81.3314 156.036 80.5866 156.215 79.7988 156.215C78.2161 156.215 76.9557 155.688 76.0176 154.636C75.0866 153.576 74.6211 152.129 74.6211 150.296V149.963C74.6211 148.831 74.8288 147.825 75.2441 146.944C75.6595 146.063 76.2539 145.38 77.0273 144.893C77.8079 144.406 78.7282 144.162 79.7881 144.162C81.0915 144.162 82.1729 144.552 83.0322 145.333C83.8988 146.114 84.3607 147.127 84.418 148.373H82.5381C82.4808 147.621 82.1943 147.005 81.6787 146.525C81.1702 146.038 80.54 145.795 79.7881 145.795C78.7783 145.795 77.9941 146.16 77.4355 146.891C76.8841 147.614 76.6084 148.663 76.6084 150.038V150.414C76.6084 151.753 76.8841 152.785 77.4355 153.508C77.987 154.231 78.7747 154.593 79.7988 154.593ZM88.6396 145.784C89.5205 144.703 90.6663 144.162 92.0771 144.162C94.5335 144.162 95.7725 145.548 95.7939 148.319V156H93.8066V148.309C93.7995 147.471 93.6061 146.851 93.2266 146.45C92.8542 146.049 92.2705 145.849 91.4756 145.849C90.8311 145.849 90.2653 146.021 89.7783 146.364C89.2913 146.708 88.9118 147.159 88.6396 147.718V156H86.6523V139.5H88.6396V145.784ZM114.066 150.317C114.066 152.093 113.658 153.522 112.842 154.604C112.025 155.678 110.93 156.215 109.555 156.215C108.087 156.215 106.951 155.696 106.149 154.657L106.053 156H104.227V139.5H106.214V145.655C107.016 144.66 108.122 144.162 109.533 144.162C110.944 144.162 112.05 144.696 112.853 145.763C113.662 146.83 114.066 148.291 114.066 150.146V150.317ZM112.079 150.092C112.079 148.738 111.818 147.693 111.295 146.955C110.772 146.217 110.02 145.849 109.039 145.849C107.729 145.849 106.787 146.457 106.214 147.675V152.702C106.823 153.92 107.771 154.528 109.061 154.528C110.013 154.528 110.754 154.16 111.284 153.422C111.814 152.684 112.079 151.574 112.079 150.092ZM118.739 156H116.752V139.5H118.739V156ZM121.403 150.081C121.403 148.942 121.625 147.918 122.069 147.009C122.521 146.099 123.144 145.397 123.938 144.903C124.741 144.409 125.654 144.162 126.678 144.162C128.26 144.162 129.539 144.71 130.513 145.806C131.494 146.901 131.984 148.359 131.984 150.178V150.317C131.984 151.449 131.766 152.466 131.329 153.368C130.899 154.263 130.28 154.962 129.471 155.463C128.669 155.964 127.745 156.215 126.699 156.215C125.124 156.215 123.845 155.667 122.864 154.571C121.89 153.476 121.403 152.025 121.403 150.221V150.081ZM123.401 150.317C123.401 151.606 123.699 152.641 124.293 153.422C124.895 154.202 125.697 154.593 126.699 154.593C127.709 154.593 128.511 154.199 129.105 153.411C129.7 152.616 129.997 151.506 129.997 150.081C129.997 148.806 129.693 147.775 129.084 146.987C128.482 146.192 127.68 145.795 126.678 145.795C125.697 145.795 124.905 146.185 124.304 146.966C123.702 147.746 123.401 148.864 123.401 150.317ZM139.139 154.593C139.848 154.593 140.467 154.378 140.997 153.948C141.527 153.519 141.821 152.981 141.878 152.337H143.758C143.722 153.003 143.493 153.637 143.07 154.238C142.648 154.84 142.082 155.32 141.373 155.678C140.671 156.036 139.926 156.215 139.139 156.215C137.556 156.215 136.296 155.688 135.357 154.636C134.426 153.576 133.961 152.129 133.961 150.296V149.963C133.961 148.831 134.169 147.825 134.584 146.944C134.999 146.063 135.594 145.38 136.367 144.893C137.148 144.406 138.068 144.162 139.128 144.162C140.431 144.162 141.513 144.552 142.372 145.333C143.239 146.114 143.701 147.127 143.758 148.373H141.878C141.821 147.621 141.534 147.005 141.019 146.525C140.51 146.038 139.88 145.795 139.128 145.795C138.118 145.795 137.334 146.16 136.775 146.891C136.224 147.614 135.948 148.663 135.948 150.038V150.414C135.948 151.753 136.224 152.785 136.775 153.508C137.327 154.231 138.115 154.593 139.139 154.593ZM149.236 150.618L147.99 151.918V156H146.003V139.5H147.99V149.479L149.054 148.201L152.674 144.377H155.091L150.568 149.232L155.617 156H153.286L149.236 150.618Z" fill="black"/>
<path d="M999.77 142.789H994.285V158H992.047V142.789H986.574V140.938H999.77V142.789ZM1004.13 146.855C1005.09 145.676 1006.34 145.086 1007.88 145.086C1010.56 145.086 1011.91 146.598 1011.93 149.621V158H1009.77V149.609C1009.76 148.695 1009.55 148.02 1009.13 147.582C1008.73 147.145 1008.09 146.926 1007.22 146.926C1006.52 146.926 1005.9 147.113 1005.37 147.488C1004.84 147.863 1004.43 148.355 1004.13 148.965V158H1001.96V140H1004.13V146.855ZM1020.44 158.234C1018.72 158.234 1017.32 157.672 1016.25 156.547C1015.17 155.414 1014.63 153.902 1014.63 152.012V151.613C1014.63 150.355 1014.87 149.234 1015.34 148.25C1015.83 147.258 1016.5 146.484 1017.36 145.93C1018.23 145.367 1019.16 145.086 1020.17 145.086C1021.82 145.086 1023.1 145.629 1024.02 146.715C1024.93 147.801 1025.39 149.355 1025.39 151.379V152.281H1016.8C1016.83 153.531 1017.19 154.543 1017.89 155.316C1018.59 156.082 1019.48 156.465 1020.56 156.465C1021.32 156.465 1021.97 156.309 1022.5 155.996C1023.04 155.684 1023.5 155.27 1023.9 154.754L1025.22 155.785C1024.16 157.418 1022.57 158.234 1020.44 158.234ZM1020.17 146.867C1019.3 146.867 1018.56 147.188 1017.97 147.828C1017.38 148.461 1017.01 149.352 1016.87 150.5H1023.22V150.336C1023.16 149.234 1022.86 148.383 1022.33 147.781C1021.8 147.172 1021.08 146.867 1020.17 146.867ZM1039.38 158.234C1037.52 158.234 1036 157.664 1034.83 156.523C1033.67 155.383 1033.09 153.863 1033.09 151.965V151.637C1033.09 150.363 1033.33 149.227 1033.82 148.227C1034.32 147.219 1035.01 146.445 1035.91 145.906C1036.82 145.359 1037.85 145.086 1039 145.086C1040.74 145.086 1042.1 145.633 1043.09 146.727C1044.09 147.82 1044.59 149.371 1044.59 151.379V152.762H1036.52C1036.63 153.59 1036.96 154.254 1037.5 154.754C1038.06 155.254 1038.76 155.504 1039.6 155.504C1040.91 155.504 1041.93 155.031 1042.66 154.086L1044.32 155.949C1043.82 156.668 1043.13 157.23 1042.26 157.637C1041.39 158.035 1040.43 158.234 1039.38 158.234ZM1038.99 147.828C1038.32 147.828 1037.77 148.055 1037.35 148.508C1036.94 148.961 1036.67 149.609 1036.55 150.453H1041.27V150.184C1041.25 149.434 1041.05 148.855 1040.66 148.449C1040.27 148.035 1039.71 147.828 1038.99 147.828ZM1051.36 149.105L1053.49 145.32H1057.11L1053.5 151.531L1057.26 158H1053.63L1051.37 154.016L1049.12 158H1045.47L1049.23 151.531L1045.64 145.32H1049.27L1051.36 149.105ZM1063.78 155.504C1064.4 155.504 1064.91 155.332 1065.3 154.988C1065.69 154.645 1065.89 154.188 1065.91 153.617H1069.09C1069.08 154.477 1068.84 155.266 1068.38 155.984C1067.92 156.695 1067.29 157.25 1066.48 157.648C1065.69 158.039 1064.8 158.234 1063.84 158.234C1062.02 158.234 1060.59 157.66 1059.55 156.512C1058.5 155.355 1057.98 153.762 1057.98 151.73V151.508C1057.98 149.555 1058.5 147.996 1059.54 146.832C1060.57 145.668 1062 145.086 1063.81 145.086C1065.4 145.086 1066.67 145.539 1067.62 146.445C1068.58 147.344 1069.07 148.543 1069.09 150.043H1065.91C1065.89 149.387 1065.69 148.855 1065.3 148.449C1064.91 148.035 1064.39 147.828 1063.75 147.828C1062.96 147.828 1062.37 148.117 1061.96 148.695C1061.56 149.266 1061.36 150.195 1061.36 151.484V151.836C1061.36 153.141 1061.56 154.078 1061.96 154.648C1062.36 155.219 1062.96 155.504 1063.78 155.504ZM1076.86 158.234C1075 158.234 1073.48 157.664 1072.31 156.523C1071.14 155.383 1070.56 153.863 1070.56 151.965V151.637C1070.56 150.363 1070.81 149.227 1071.3 148.227C1071.79 147.219 1072.49 146.445 1073.39 145.906C1074.29 145.359 1075.32 145.086 1076.48 145.086C1078.21 145.086 1079.58 145.633 1080.57 146.727C1081.57 147.82 1082.07 149.371 1082.07 151.379V152.762H1074C1074.11 153.59 1074.43 154.254 1074.98 154.754C1075.54 155.254 1076.23 155.504 1077.08 155.504C1078.38 155.504 1079.4 155.031 1080.14 154.086L1081.8 155.949C1081.29 156.668 1080.61 157.23 1079.74 157.637C1078.87 158.035 1077.91 158.234 1076.86 158.234ZM1076.47 147.828C1075.8 147.828 1075.25 148.055 1074.83 148.508C1074.41 148.961 1074.15 149.609 1074.03 150.453H1078.74V150.184C1078.73 149.434 1078.52 148.855 1078.13 148.449C1077.74 148.035 1077.19 147.828 1076.47 147.828ZM1095.42 151.777C1095.42 153.73 1094.97 155.297 1094.08 156.477C1093.2 157.648 1092 158.234 1090.5 158.234C1089.21 158.234 1088.18 157.789 1087.39 156.898V162.875H1084V145.32H1087.14L1087.26 146.562C1088.08 145.578 1089.15 145.086 1090.47 145.086C1092.04 145.086 1093.25 145.664 1094.12 146.82C1094.98 147.977 1095.42 149.57 1095.42 151.602V151.777ZM1092.03 151.531C1092.03 150.352 1091.82 149.441 1091.4 148.801C1090.98 148.16 1090.38 147.84 1089.58 147.84C1088.52 147.84 1087.79 148.246 1087.39 149.059V154.25C1087.8 155.086 1088.54 155.504 1089.61 155.504C1091.22 155.504 1092.03 154.18 1092.03 151.531ZM1101.58 142.203V145.32H1103.75V147.805H1101.58V154.133C1101.58 154.602 1101.67 154.938 1101.85 155.141C1102.03 155.344 1102.38 155.445 1102.88 155.445C1103.26 155.445 1103.59 155.418 1103.88 155.363V157.93C1103.21 158.133 1102.53 158.234 1101.83 158.234C1099.45 158.234 1098.24 157.035 1098.2 154.637V147.805H1096.34V145.32H1098.2V142.203H1101.58ZM1122.66 151.801C1122.66 153.738 1122.22 155.297 1121.33 156.477C1120.44 157.648 1119.24 158.234 1117.74 158.234C1116.14 158.234 1114.9 157.668 1114.03 156.535L1113.92 158H1111.93V140H1114.1V146.715C1114.97 145.629 1116.18 145.086 1117.72 145.086C1119.26 145.086 1120.46 145.668 1121.34 146.832C1122.22 147.996 1122.66 149.59 1122.66 151.613V151.801ZM1120.5 151.555C1120.5 150.078 1120.21 148.938 1119.64 148.133C1119.07 147.328 1118.25 146.926 1117.18 146.926C1115.75 146.926 1114.72 147.59 1114.1 148.918V154.402C1114.76 155.73 1115.8 156.395 1117.2 156.395C1118.24 156.395 1119.05 155.992 1119.63 155.188C1120.21 154.383 1120.5 153.172 1120.5 151.555ZM1127.76 158H1125.59V140H1127.76V158ZM1130.67 151.543C1130.67 150.301 1130.91 149.184 1131.39 148.191C1131.89 147.199 1132.57 146.434 1133.43 145.895C1134.31 145.355 1135.3 145.086 1136.42 145.086C1138.15 145.086 1139.54 145.684 1140.61 146.879C1141.68 148.074 1142.21 149.664 1142.21 151.648V151.801C1142.21 153.035 1141.97 154.145 1141.5 155.129C1141.03 156.105 1140.35 156.867 1139.47 157.414C1138.59 157.961 1137.59 158.234 1136.45 158.234C1134.73 158.234 1133.33 157.637 1132.26 156.441C1131.2 155.246 1130.67 153.664 1130.67 151.695V151.543ZM1132.85 151.801C1132.85 153.207 1133.17 154.336 1133.82 155.188C1134.48 156.039 1135.35 156.465 1136.45 156.465C1137.55 156.465 1138.42 156.035 1139.07 155.176C1139.72 154.309 1140.04 153.098 1140.04 151.543C1140.04 150.152 1139.71 149.027 1139.05 148.168C1138.39 147.301 1137.52 146.867 1136.42 146.867C1135.35 146.867 1134.49 147.293 1133.83 148.145C1133.18 148.996 1132.85 150.215 1132.85 151.801ZM1150.02 156.465C1150.79 156.465 1151.46 156.23 1152.04 155.762C1152.62 155.293 1152.94 154.707 1153 154.004H1155.05C1155.02 154.73 1154.77 155.422 1154.3 156.078C1153.84 156.734 1153.23 157.258 1152.45 157.648C1151.69 158.039 1150.88 158.234 1150.02 158.234C1148.29 158.234 1146.91 157.66 1145.89 156.512C1144.88 155.355 1144.37 153.777 1144.37 151.777V151.414C1144.37 150.18 1144.59 149.082 1145.05 148.121C1145.5 147.16 1146.15 146.414 1146.99 145.883C1147.84 145.352 1148.85 145.086 1150 145.086C1151.43 145.086 1152.61 145.512 1153.54 146.363C1154.49 147.215 1154.99 148.32 1155.05 149.68H1153C1152.94 148.859 1152.63 148.188 1152.07 147.664C1151.51 147.133 1150.82 146.867 1150 146.867C1148.9 146.867 1148.05 147.266 1147.44 148.062C1146.84 148.852 1146.54 149.996 1146.54 151.496V151.906C1146.54 153.367 1146.84 154.492 1147.44 155.281C1148.04 156.07 1148.9 156.465 1150.02 156.465ZM1161.03 152.129L1159.67 153.547V158H1157.5V140H1159.67V150.887L1160.83 149.492L1164.78 145.32H1167.42L1162.48 150.617L1167.99 158H1165.45L1161.03 152.129Z" fill="black"/>
<path d="M210 36H870.646V250H210V36Z" fill="#F1F4F8"/>
<path d="M226.564 58.0857H223.564V55.4697L226.732 55.3257L227.188 52.1577H230.092V55.3257H235.132V58.0857H230.092V62.2617C230.092 63.1737 230.292 63.8217 230.692 64.2057C231.092 64.5737 231.724 64.7577 232.588 64.7577C233.052 64.7577 233.476 64.7177 233.86 64.6377C234.244 64.5577 234.612 64.4537 234.964 64.3257L235.588 66.8697C235.06 67.0297 234.468 67.1737 233.812 67.3017C233.172 67.4457 232.468 67.5177 231.7 67.5177C230.756 67.5177 229.956 67.3897 229.3 67.1337C228.644 66.8777 228.108 66.5257 227.692 66.0777C227.292 65.6137 227.004 65.0617 226.828 64.4217C226.652 63.7817 226.564 63.0697 226.564 62.2857V58.0857ZM239.563 55.3257H242.443L242.731 57.9177H242.803C243.395 56.9417 244.107 56.2217 244.939 55.7577C245.771 55.2777 246.667 55.0377 247.627 55.0377C248.155 55.0377 248.579 55.0777 248.899 55.1577C249.235 55.2377 249.579 55.3577 249.931 55.5177L249.211 58.4697C248.843 58.3577 248.507 58.2777 248.203 58.2297C247.915 58.1657 247.547 58.1337 247.099 58.1337C246.363 58.1337 245.635 58.3497 244.915 58.7817C244.211 59.2137 243.603 59.9657 243.091 61.0377V67.2297H239.563V55.3257ZM253.401 68.9577C253.705 69.0537 254.017 69.1017 254.337 69.1017C255.025 69.1017 255.561 68.9577 255.945 68.6697C256.345 68.3817 256.641 68.0057 256.833 67.5417L257.073 66.9177L251.913 55.3257H255.417L257.409 60.4377C257.633 60.9977 257.841 61.5817 258.033 62.1897C258.225 62.7817 258.417 63.3897 258.609 64.0137H258.705C258.865 63.4217 259.041 62.8297 259.233 62.2377C259.425 61.6297 259.609 61.0297 259.785 60.4377L261.537 55.3257H264.873L260.169 67.3497C259.881 68.1017 259.569 68.7577 259.233 69.3177C258.897 69.8937 258.513 70.3657 258.081 70.7337C257.649 71.1177 257.145 71.4057 256.569 71.5977C256.009 71.7897 255.353 71.8857 254.601 71.8857C254.249 71.8857 253.921 71.8617 253.617 71.8137C253.313 71.7817 253.033 71.7257 252.777 71.6457L253.401 68.9577ZM223.708 121.278C223.708 120.302 223.876 119.43 224.212 118.662C224.564 117.894 225.028 117.246 225.604 116.718C226.18 116.174 226.836 115.758 227.572 115.47C228.324 115.182 229.1 115.038 229.9 115.038C230.812 115.038 231.62 115.182 232.324 115.47C233.028 115.758 233.612 116.158 234.076 116.67C234.54 117.182 234.892 117.79 235.132 118.494C235.372 119.182 235.492 119.934 235.492 120.75C235.492 121.07 235.476 121.374 235.444 121.662C235.412 121.95 235.38 122.166 235.348 122.31H227.332C227.46 123.206 227.844 123.854 228.484 124.254C229.14 124.638 229.908 124.83 230.788 124.83C231.332 124.83 231.844 124.766 232.324 124.638C232.82 124.494 233.332 124.286 233.86 124.014L235.012 126.126C234.34 126.558 233.588 126.902 232.756 127.158C231.924 127.398 231.108 127.518 230.308 127.518C229.38 127.518 228.516 127.382 227.716 127.11C226.916 126.822 226.22 126.414 225.628 125.886C225.036 125.342 224.564 124.686 224.212 123.918C223.876 123.15 223.708 122.27 223.708 121.278ZM232.3 119.982C232.3 119.31 232.116 118.766 231.748 118.35C231.38 117.934 230.788 117.726 229.972 117.726C229.332 117.726 228.764 117.91 228.268 118.278C227.772 118.646 227.444 119.214 227.284 119.982H232.3ZM241.795 121.038L237.931 115.326H241.723L242.947 117.246C243.123 117.582 243.323 117.926 243.547 118.278C243.771 118.614 243.987 118.95 244.195 119.286H244.291C244.451 118.95 244.611 118.606 244.771 118.254C244.947 117.902 245.115 117.566 245.275 117.246L246.331 115.326H250.027L246.139 121.446L250.267 127.23H246.475L245.107 125.262C244.883 124.926 244.651 124.582 244.411 124.23C244.187 123.878 243.963 123.534 243.739 123.198H243.643C243.467 123.534 243.283 123.878 243.091 124.23C242.899 124.566 242.715 124.91 242.539 125.262L241.363 127.23H237.667L241.795 121.038ZM252.777 121.278C252.777 120.286 252.961 119.406 253.329 118.638C253.713 117.854 254.217 117.198 254.841 116.67C255.481 116.142 256.217 115.742 257.049 115.47C257.881 115.182 258.753 115.038 259.665 115.038C260.609 115.038 261.457 115.19 262.209 115.494C262.977 115.798 263.617 116.182 264.129 116.646L262.497 118.83C261.617 118.206 260.737 117.894 259.857 117.894C258.833 117.894 258.001 118.198 257.361 118.806C256.721 119.414 256.401 120.238 256.401 121.278C256.401 122.318 256.705 123.142 257.313 123.75C257.937 124.358 258.745 124.662 259.737 124.662C260.361 124.662 260.937 124.55 261.465 124.326C261.993 124.102 262.465 123.838 262.881 123.534L264.321 125.766C263.601 126.374 262.801 126.822 261.921 127.11C261.057 127.382 260.217 127.518 259.401 127.518C258.457 127.518 257.585 127.382 256.785 127.11C255.985 126.822 255.281 126.414 254.673 125.886C254.081 125.358 253.617 124.71 253.281 123.942C252.945 123.158 252.777 122.27 252.777 121.278ZM266.88 121.278C266.88 120.302 267.048 119.43 267.384 118.662C267.736 117.894 268.2 117.246 268.776 116.718C269.352 116.174 270.008 115.758 270.744 115.47C271.496 115.182 272.272 115.038 273.072 115.038C273.984 115.038 274.792 115.182 275.496 115.47C276.2 115.758 276.784 116.158 277.248 116.67C277.712 117.182 278.064 117.79 278.304 118.494C278.544 119.182 278.664 119.934 278.664 120.75C278.664 121.07 278.648 121.374 278.616 121.662C278.584 121.95 278.552 122.166 278.52 122.31H270.504C270.632 123.206 271.016 123.854 271.656 124.254C272.312 124.638 273.08 124.83 273.96 124.83C274.504 124.83 275.016 124.766 275.496 124.638C275.992 124.494 276.504 124.286 277.032 124.014L278.184 126.126C277.512 126.558 276.76 126.902 275.928 127.158C275.096 127.398 274.28 127.518 273.48 127.518C272.552 127.518 271.688 127.382 270.888 127.11C270.088 126.822 269.392 126.414 268.8 125.886C268.208 125.342 267.736 124.686 267.384 123.918C267.048 123.15 266.88 122.27 266.88 121.278ZM275.472 119.982C275.472 119.31 275.288 118.766 274.92 118.35C274.552 117.934 273.96 117.726 273.144 117.726C272.504 117.726 271.936 117.91 271.44 118.278C270.944 118.646 270.616 119.214 270.456 119.982H275.472ZM285.207 128.166V131.646H281.679V115.326H284.559L284.823 116.526H284.895C285.375 116.094 285.927 115.742 286.551 115.47C287.175 115.182 287.807 115.038 288.447 115.038C289.183 115.038 289.847 115.182 290.439 115.47C291.031 115.758 291.535 116.166 291.951 116.694C292.367 117.222 292.679 117.862 292.887 118.614C293.111 119.35 293.223 120.174 293.223 121.086C293.223 122.11 293.079 123.022 292.791 123.822C292.503 124.606 292.119 125.278 291.639 125.838C291.159 126.382 290.607 126.798 289.983 127.086C289.375 127.374 288.735 127.518 288.063 127.518C286.975 127.518 285.983 127.086 285.087 126.222L285.207 128.166ZM285.207 123.846C285.543 124.134 285.887 124.342 286.239 124.47C286.607 124.582 286.943 124.638 287.247 124.638C287.919 124.638 288.479 124.366 288.927 123.822C289.375 123.262 289.599 122.366 289.599 121.134C289.599 118.99 288.871 117.918 287.415 117.918C286.663 117.918 285.927 118.286 285.207 119.022V123.846ZM298.517 118.086H295.517V115.47L298.685 115.326L299.141 112.158H302.045V115.326H307.085V118.086H302.045V122.262C302.045 123.174 302.245 123.822 302.645 124.206C303.045 124.574 303.677 124.758 304.541 124.758C305.005 124.758 305.429 124.718 305.813 124.638C306.197 124.558 306.565 124.454 306.917 124.326L307.541 126.87C307.013 127.03 306.421 127.174 305.765 127.302C305.125 127.446 304.421 127.518 303.653 127.518C302.709 127.518 301.909 127.39 301.253 127.134C300.597 126.878 300.061 126.526 299.645 126.078C299.245 125.614 298.957 125.062 298.781 124.422C298.605 123.782 298.517 123.07 298.517 122.286V118.086ZM284.703 158.19V161.886H281.919V145.446H284.199L284.415 146.79H284.487C284.999 146.326 285.583 145.942 286.239 145.638C286.911 145.318 287.583 145.158 288.255 145.158C289.023 145.158 289.703 145.302 290.295 145.59C290.903 145.862 291.407 146.262 291.807 146.79C292.223 147.318 292.535 147.95 292.743 148.686C292.967 149.422 293.079 150.246 293.079 151.158C293.079 152.166 292.935 153.07 292.647 153.87C292.359 154.654 291.967 155.318 291.471 155.862C290.991 156.39 290.431 156.798 289.791 157.086C289.167 157.374 288.519 157.518 287.847 157.518C287.303 157.518 286.743 157.398 286.167 157.158C285.607 156.918 285.087 156.574 284.607 156.126L284.703 158.19ZM284.703 154.158C285.135 154.558 285.575 154.838 286.023 154.998C286.487 155.158 286.903 155.238 287.271 155.238C288.119 155.238 288.823 154.902 289.383 154.23C289.943 153.542 290.223 152.526 290.223 151.182C290.223 149.998 290.007 149.078 289.575 148.422C289.143 147.766 288.447 147.438 287.487 147.438C287.039 147.438 286.583 147.55 286.119 147.774C285.655 147.998 285.183 148.358 284.703 148.854V154.158ZM297.461 145.446H299.741L299.981 148.11H300.053C300.661 147.15 301.389 146.422 302.237 145.926C303.101 145.414 304.045 145.158 305.069 145.158C305.549 145.158 305.957 145.198 306.293 145.278C306.645 145.342 306.997 145.462 307.349 145.638L306.773 147.966C306.389 147.838 306.045 147.75 305.741 147.702C305.453 147.638 305.085 147.606 304.637 147.606C303.821 147.606 303.037 147.838 302.285 148.302C301.533 148.766 300.853 149.574 300.245 150.726V157.23H297.461V145.446ZM310.748 145.446H318.62V157.23H315.86V147.63H310.748V145.446ZM317.036 143.382C316.476 143.382 316.004 143.214 315.62 142.878C315.252 142.542 315.068 142.094 315.068 141.534C315.068 140.974 315.252 140.526 315.62 140.19C316.004 139.838 316.476 139.662 317.036 139.662C317.612 139.662 318.084 139.838 318.452 140.19C318.82 140.526 319.004 140.974 319.004 141.534C319.004 142.094 318.82 142.542 318.452 142.878C318.084 143.214 317.612 143.382 317.036 143.382ZM325.09 145.446H327.37L327.586 147.222H327.682C328.242 146.662 328.858 146.182 329.53 145.782C330.218 145.366 331.018 145.158 331.93 145.158C333.29 145.158 334.29 145.574 334.93 146.406C335.57 147.222 335.89 148.398 335.89 149.934V157.23H333.106V150.294C333.106 149.334 332.938 148.638 332.602 148.206C332.282 147.758 331.714 147.534 330.898 147.534C330.322 147.534 329.81 147.67 329.362 147.942C328.914 148.214 328.418 148.63 327.874 149.19V157.23H325.09V145.446ZM342.073 147.63H338.929V145.566L342.193 145.446L342.553 142.23H344.833V145.446H350.209V147.63H344.833V152.478C344.833 153.454 345.033 154.174 345.433 154.638C345.833 155.086 346.537 155.31 347.545 155.31C348.057 155.31 348.521 155.27 348.937 155.19C349.353 155.094 349.753 154.974 350.137 154.83L350.665 156.846C350.137 157.022 349.553 157.174 348.913 157.302C348.273 157.446 347.593 157.518 346.873 157.518C345.977 157.518 345.225 157.398 344.617 157.158C344.009 156.918 343.513 156.582 343.129 156.15C342.761 155.702 342.489 155.166 342.313 154.542C342.153 153.918 342.073 153.23 342.073 152.478V147.63ZM227.14 218.19V221.886H224.356V205.446H226.636L226.852 206.79H226.924C227.436 206.326 228.02 205.942 228.676 205.638C229.348 205.318 230.02 205.158 230.692 205.158C231.46 205.158 232.14 205.302 232.732 205.59C233.34 205.862 233.844 206.262 234.244 206.79C234.66 207.318 234.972 207.95 235.18 208.686C235.404 209.422 235.516 210.246 235.516 211.158C235.516 212.166 235.372 213.07 235.084 213.87C234.796 214.654 234.404 215.318 233.908 215.862C233.428 216.39 232.868 216.798 232.228 217.086C231.604 217.374 230.956 217.518 230.284 217.518C229.74 217.518 229.18 217.398 228.604 217.158C228.044 216.918 227.524 216.574 227.044 216.126L227.14 218.19ZM227.14 214.158C227.572 214.558 228.012 214.838 228.46 214.998C228.924 215.158 229.34 215.238 229.708 215.238C230.556 215.238 231.26 214.902 231.82 214.23C232.38 213.542 232.66 212.526 232.66 211.182C232.66 209.998 232.444 209.078 232.012 208.422C231.58 207.766 230.884 207.438 229.924 207.438C229.476 207.438 229.02 207.55 228.556 207.774C228.092 207.998 227.62 208.358 227.14 208.854V214.158ZM239.899 205.446H242.179L242.419 208.11H242.491C243.099 207.15 243.827 206.422 244.675 205.926C245.539 205.414 246.483 205.158 247.507 205.158C247.987 205.158 248.395 205.198 248.731 205.278C249.083 205.342 249.435 205.462 249.787 205.638L249.211 207.966C248.827 207.838 248.483 207.75 248.179 207.702C247.891 207.638 247.523 207.606 247.075 207.606C246.259 207.606 245.475 207.838 244.723 208.302C243.971 208.766 243.291 209.574 242.683 210.726V217.23H239.899V205.446ZM253.185 205.446H261.057V217.23H258.297V207.63H253.185V205.446ZM259.473 203.382C258.913 203.382 258.441 203.214 258.057 202.878C257.689 202.542 257.505 202.094 257.505 201.534C257.505 200.974 257.689 200.526 258.057 200.19C258.441 199.838 258.913 199.662 259.473 199.662C260.049 199.662 260.521 199.838 260.889 200.19C261.257 200.526 261.441 200.974 261.441 201.534C261.441 202.094 261.257 202.542 260.889 202.878C260.521 203.214 260.049 203.382 259.473 203.382ZM267.528 205.446H269.808L270.024 207.222H270.12C270.68 206.662 271.296 206.182 271.968 205.782C272.656 205.366 273.456 205.158 274.368 205.158C275.728 205.158 276.728 205.574 277.368 206.406C278.008 207.222 278.328 208.398 278.328 209.934V217.23H275.544V210.294C275.544 209.334 275.376 208.638 275.04 208.206C274.72 207.758 274.152 207.534 273.336 207.534C272.76 207.534 272.248 207.67 271.8 207.942C271.352 208.214 270.856 208.63 270.312 209.19V217.23H267.528V205.446ZM284.511 207.63H281.367V205.566L284.631 205.446L284.991 202.23H287.271V205.446H292.647V207.63H287.271V212.478C287.271 213.454 287.471 214.174 287.871 214.638C288.271 215.086 288.975 215.31 289.983 215.31C290.495 215.31 290.959 215.27 291.375 215.19C291.791 215.094 292.191 214.974 292.575 214.83L293.103 216.846C292.575 217.022 291.991 217.174 291.351 217.302C290.711 217.446 290.031 217.518 289.311 217.518C288.415 217.518 287.663 217.398 287.055 217.158C286.447 216.918 285.951 216.582 285.567 216.15C285.199 215.702 284.927 215.166 284.751 214.542C284.591 213.918 284.511 213.23 284.511 212.478V207.63Z" fill="#0C570A"/>
<path d="M270.384 56.9337C270.384 56.2297 270.608 55.6537 271.056 55.2057C271.504 54.7417 272.072 54.5097 272.76 54.5097C273.448 54.5097 274.016 54.7417 274.464 55.2057C274.912 55.6537 275.136 56.2297 275.136 56.9337C275.136 57.6377 274.912 58.2217 274.464 58.6857C274.016 59.1337 273.448 59.3577 272.76 59.3577C272.072 59.3577 271.504 59.1337 271.056 58.6857C270.608 58.2217 270.384 57.6377 270.384 56.9337ZM270.384 65.0937C270.384 64.3897 270.608 63.8137 271.056 63.3657C271.504 62.9017 272.072 62.6697 272.76 62.6697C273.448 62.6697 274.016 62.9017 274.464 63.3657C274.912 63.8137 275.136 64.3897 275.136 65.0937C275.136 65.7977 274.912 66.3817 274.464 66.8457C274.016 67.2937 273.448 67.5177 272.76 67.5177C272.072 67.5177 271.504 67.2937 271.056 66.8457C270.608 66.3817 270.384 65.7977 270.384 65.0937ZM284.511 87.6297H281.367V85.5657L284.631 85.4457L284.991 82.2297H287.271V85.4457H292.647V87.6297H287.271V92.4777C287.271 93.4537 287.471 94.1737 287.871 94.6377C288.271 95.0857 288.975 95.3097 289.983 95.3097C290.495 95.3097 290.959 95.2697 291.375 95.1897C291.791 95.0937 292.191 94.9737 292.575 94.8297L293.103 96.8457C292.575 97.0217 291.991 97.1737 291.351 97.3017C290.711 97.4457 290.031 97.5177 289.311 97.5177C288.415 97.5177 287.663 97.3977 287.055 97.1577C286.447 96.9177 285.951 96.5817 285.567 96.1497C285.199 95.7017 284.927 95.1657 284.751 94.5417C284.591 93.9177 284.511 93.2297 284.511 92.4777V87.6297ZM296.309 80.2857H299.093V84.6537L298.925 87.1737C299.469 86.6297 300.077 86.1577 300.749 85.7577C301.437 85.3577 302.237 85.1577 303.149 85.1577C304.509 85.1577 305.509 85.5737 306.149 86.4057C306.789 87.2217 307.109 88.3977 307.109 89.9337V97.2297H304.325V90.2937C304.325 89.3337 304.157 88.6377 303.821 88.2057C303.501 87.7577 302.933 87.5337 302.117 87.5337C301.541 87.5337 301.029 87.6697 300.581 87.9417C300.133 88.2137 299.637 88.6297 299.093 89.1897V97.2297H296.309V80.2857ZM310.748 85.4457H318.62V97.2297H315.86V87.6297H310.748V85.4457ZM317.036 83.3817C316.476 83.3817 316.004 83.2137 315.62 82.8777C315.252 82.5417 315.068 82.0937 315.068 81.5337C315.068 80.9737 315.252 80.5257 315.62 80.1897C316.004 79.8377 316.476 79.6617 317.036 79.6617C317.612 79.6617 318.084 79.8377 318.452 80.1897C318.82 80.5257 319.004 80.9737 319.004 81.5337C319.004 82.0937 318.82 82.5417 318.452 82.8777C318.084 83.2137 317.612 83.3817 317.036 83.3817ZM325.906 93.9417C326.578 94.4057 327.274 94.7737 327.994 95.0457C328.73 95.3017 329.554 95.4297 330.466 95.4297C331.394 95.4297 332.074 95.3017 332.506 95.0457C332.938 94.7737 333.154 94.4297 333.154 94.0137C333.154 93.5977 332.874 93.2537 332.314 92.9817C331.754 92.6937 330.874 92.3897 329.674 92.0697C329.114 91.9257 328.57 91.7497 328.042 91.5417C327.514 91.3337 327.05 91.0937 326.65 90.8217C326.25 90.5497 325.93 90.2377 325.69 89.8857C325.45 89.5337 325.33 89.1337 325.33 88.6857C325.33 87.6457 325.778 86.7977 326.674 86.1417C327.57 85.4857 328.858 85.1577 330.538 85.1577C331.498 85.1577 332.402 85.3177 333.25 85.6377C334.098 85.9577 334.826 86.3177 335.434 86.7177L334.162 88.4217C333.634 88.0697 333.066 87.7897 332.458 87.5817C331.866 87.3577 331.234 87.2457 330.562 87.2457C329.65 87.2457 329.01 87.3737 328.642 87.6297C328.274 87.8697 328.09 88.1737 328.09 88.5417C328.09 88.7497 328.17 88.9417 328.33 89.1177C328.506 89.2777 328.738 89.4297 329.026 89.5737C329.33 89.7017 329.682 89.8297 330.082 89.9577C330.482 90.0857 330.922 90.2057 331.402 90.3177C332.09 90.4937 332.706 90.6937 333.25 90.9177C333.81 91.1257 334.282 91.3657 334.666 91.6377C335.066 91.9097 335.37 92.2297 335.578 92.5977C335.802 92.9657 335.914 93.3897 335.914 93.8697C335.914 94.3817 335.794 94.8617 335.554 95.3097C335.314 95.7417 334.962 96.1257 334.498 96.4617C334.034 96.7817 333.458 97.0377 332.77 97.2297C332.082 97.4217 331.29 97.5177 330.394 97.5177C329.29 97.5177 328.234 97.3417 327.226 96.9897C326.218 96.6377 325.346 96.2057 324.61 95.6937L325.906 93.9417ZM350.473 98.7177V100.878H338.953V98.7177H350.473ZM365.296 82.6857C364.864 82.5097 364.44 82.3817 364.024 82.3017C363.624 82.2217 363.184 82.1817 362.704 82.1817C361.792 82.1817 361.128 82.4057 360.712 82.8537C360.312 83.2857 360.112 83.9177 360.112 84.7497V85.4457H364.6V87.6297H360.112V97.2297H357.376V87.6297H354.112V85.5657L357.376 85.4457V84.7977C357.376 84.1097 357.472 83.4697 357.664 82.8777C357.856 82.2857 358.152 81.7817 358.552 81.3657C358.968 80.9337 359.488 80.5977 360.112 80.3577C360.752 80.1177 361.504 79.9977 362.368 79.9977C363.008 79.9977 363.616 80.0537 364.192 80.1657C364.784 80.2777 365.344 80.4377 365.872 80.6457L365.296 82.6857ZM378.654 97.2297H376.398L376.182 95.3577H376.086C375.526 96.0137 374.91 96.5417 374.238 96.9417C373.566 97.3257 372.79 97.5177 371.91 97.5177C370.534 97.5177 369.534 97.1097 368.91 96.2937C368.286 95.4617 367.974 94.2777 367.974 92.7417V85.4457H370.734V92.3817C370.734 93.3417 370.894 94.0457 371.214 94.4937C371.55 94.9257 372.126 95.1417 372.942 95.1417C373.502 95.1417 373.998 95.0137 374.43 94.7577C374.878 94.5017 375.366 94.0457 375.894 93.3897V85.4457H378.654V97.2297ZM382.653 85.4457H384.933L385.149 87.2217H385.245C385.805 86.6617 386.421 86.1817 387.093 85.7817C387.781 85.3657 388.581 85.1577 389.493 85.1577C390.853 85.1577 391.853 85.5737 392.493 86.4057C393.133 87.2217 393.453 88.3977 393.453 89.9337V97.2297H390.669V90.2937C390.669 89.3337 390.501 88.6377 390.165 88.2057C389.845 87.7577 389.277 87.5337 388.461 87.5337C387.885 87.5337 387.373 87.6697 386.925 87.9417C386.477 88.2137 385.981 88.6297 385.437 89.1897V97.2297H382.653V85.4457ZM396.828 91.3497C396.828 90.3737 397.004 89.5017 397.356 88.7337C397.724 87.9657 398.212 87.3177 398.82 86.7897C399.428 86.2617 400.14 85.8617 400.956 85.5897C401.772 85.3017 402.628 85.1577 403.524 85.1577C404.484 85.1577 405.324 85.3177 406.044 85.6377C406.78 85.9577 407.396 86.3497 407.892 86.8137L406.572 88.5417C406.108 88.1737 405.636 87.8937 405.156 87.7017C404.692 87.5097 404.196 87.4137 403.668 87.4137C402.484 87.4137 401.524 87.7737 400.788 88.4937C400.052 89.1977 399.684 90.1497 399.684 91.3497C399.684 91.9417 399.78 92.4777 399.972 92.9577C400.164 93.4377 400.428 93.8537 400.764 94.2057C401.116 94.5417 401.532 94.8057 402.012 94.9977C402.492 95.1737 403.02 95.2617 403.596 95.2617C404.268 95.2617 404.876 95.1337 405.42 94.8777C405.98 94.6217 406.492 94.3177 406.956 93.9657L408.108 95.7417C407.436 96.3337 406.684 96.7817 405.852 97.0857C405.02 97.3737 404.18 97.5177 403.332 97.5177C402.404 97.5177 401.54 97.3817 400.74 97.1097C399.956 96.8377 399.268 96.4377 398.676 95.9097C398.1 95.3817 397.644 94.7337 397.308 93.9657C396.988 93.1977 396.828 92.3257 396.828 91.3497ZM414.026 87.6297H410.882V85.5657L414.146 85.4457L414.506 82.2297H416.786V85.4457H422.162V87.6297H416.786V92.4777C416.786 93.4537 416.986 94.1737 417.386 94.6377C417.786 95.0857 418.49 95.3097 419.498 95.3097C420.01 95.3097 420.474 95.2697 420.89 95.1897C421.306 95.0937 421.706 94.9737 422.09 94.8297L422.618 96.8457C422.09 97.0217 421.506 97.1737 420.866 97.3017C420.226 97.4457 419.546 97.5177 418.826 97.5177C417.93 97.5177 417.178 97.3977 416.57 97.1577C415.962 96.9177 415.466 96.5817 415.082 96.1497C414.714 95.7017 414.442 95.1657 414.266 94.5417C414.106 93.9177 414.026 93.2297 414.026 92.4777V87.6297ZM425.873 85.4457H433.745V97.2297H430.985V87.6297H425.873V85.4457ZM432.161 83.3817C431.601 83.3817 431.129 83.2137 430.745 82.8777C430.377 82.5417 430.193 82.0937 430.193 81.5337C430.193 80.9737 430.377 80.5257 430.745 80.1897C431.129 79.8377 431.601 79.6617 432.161 79.6617C432.737 79.6617 433.209 79.8377 433.577 80.1897C433.945 80.5257 434.129 80.9737 434.129 81.5337C434.129 82.0937 433.945 82.5417 433.577 82.8777C433.209 83.2137 432.737 83.3817 432.161 83.3817ZM439.519 91.3497C439.519 90.3737 439.679 89.5017 439.999 88.7337C440.335 87.9657 440.775 87.3177 441.319 86.7897C441.863 86.2617 442.495 85.8617 443.215 85.5897C443.935 85.3017 444.679 85.1577 445.447 85.1577C446.215 85.1577 446.959 85.3017 447.679 85.5897C448.399 85.8617 449.031 86.2617 449.575 86.7897C450.119 87.3177 450.551 87.9657 450.871 88.7337C451.207 89.5017 451.375 90.3737 451.375 91.3497C451.375 92.3257 451.207 93.1977 450.871 93.9657C450.551 94.7337 450.119 95.3817 449.575 95.9097C449.031 96.4377 448.399 96.8377 447.679 97.1097C446.959 97.3817 446.215 97.5177 445.447 97.5177C444.679 97.5177 443.935 97.3817 443.215 97.1097C442.495 96.8377 441.863 96.4377 441.319 95.9097C440.775 95.3817 440.335 94.7337 439.999 93.9657C439.679 93.1977 439.519 92.3257 439.519 91.3497ZM442.375 91.3497C442.375 92.5337 442.647 93.4857 443.191 94.2057C443.735 94.9097 444.487 95.2617 445.447 95.2617C446.407 95.2617 447.159 94.9097 447.703 94.2057C448.247 93.4857 448.519 92.5337 448.519 91.3497C448.519 90.1497 448.247 89.1977 447.703 88.4937C447.159 87.7737 446.407 87.4137 445.447 87.4137C444.487 87.4137 443.735 87.7737 443.191 88.4937C442.647 89.1977 442.375 90.1497 442.375 91.3497ZM454.606 85.4457H456.886L457.102 87.2217H457.198C457.758 86.6617 458.374 86.1817 459.046 85.7817C459.734 85.3657 460.534 85.1577 461.446 85.1577C462.806 85.1577 463.806 85.5737 464.446 86.4057C465.086 87.2217 465.406 88.3977 465.406 89.9337V97.2297H462.622V90.2937C462.622 89.3337 462.454 88.6377 462.118 88.2057C461.798 87.7577 461.23 87.5337 460.414 87.5337C459.838 87.5337 459.326 87.6697 458.878 87.9417C458.43 88.2137 457.934 88.6297 457.39 89.1897V97.2297H454.606V85.4457ZM476.917 101.478C475.301 100.134 474.021 98.5497 473.077 96.7257C472.149 94.9017 471.685 92.8457 471.685 90.5577C471.685 88.2697 472.149 86.2137 473.077 84.3897C474.021 82.5657 475.301 80.9817 476.917 79.6377L478.453 80.9097C476.933 82.2857 475.821 83.7497 475.117 85.3017C474.413 86.8537 474.061 88.6057 474.061 90.5577C474.061 92.5097 474.413 94.2617 475.117 95.8137C475.821 97.3657 476.933 98.8297 478.453 100.206L476.917 101.478ZM484.395 100.206C485.915 98.8297 487.027 97.3657 487.731 95.8137C488.435 94.2617 488.787 92.5097 488.787 90.5577C488.787 88.6057 488.435 86.8537 487.731 85.3017C487.027 83.7497 485.915 82.2857 484.395 80.9097L485.931 79.6377C487.547 80.9817 488.819 82.5657 489.747 84.3897C490.691 86.2137 491.163 88.2697 491.163 90.5577C491.163 92.8457 490.691 94.9017 489.747 96.7257C488.819 98.5497 487.547 100.134 485.931 101.478L484.395 100.206ZM313.556 116.934C313.556 116.23 313.78 115.654 314.228 115.206C314.676 114.742 315.244 114.51 315.932 114.51C316.62 114.51 317.188 114.742 317.636 115.206C318.084 115.654 318.308 116.23 318.308 116.934C318.308 117.638 318.084 118.222 317.636 118.686C317.188 119.134 316.62 119.358 315.932 119.358C315.244 119.358 314.676 119.134 314.228 118.686C313.78 118.222 313.556 117.638 313.556 116.934ZM313.556 125.094C313.556 124.39 313.78 123.814 314.228 123.366C314.676 122.902 315.244 122.67 315.932 122.67C316.62 122.67 317.188 122.902 317.636 123.366C318.084 123.814 318.308 124.39 318.308 125.094C318.308 125.798 318.084 126.382 317.636 126.846C317.188 127.294 316.62 127.518 315.932 127.518C315.244 127.518 314.676 127.294 314.228 126.846C313.78 126.382 313.556 125.798 313.556 125.094ZM671.473 160.206C672.993 158.83 674.105 157.366 674.809 155.814C675.513 154.262 675.865 152.51 675.865 150.558C675.865 148.606 675.513 146.854 674.809 145.302C674.105 143.75 672.993 142.286 671.473 140.91L673.009 139.638C674.625 140.982 675.897 142.566 676.825 144.39C677.769 146.214 678.241 148.27 678.241 150.558C678.241 152.846 677.769 154.902 676.825 156.726C675.897 158.55 674.625 160.134 673.009 161.478L671.473 160.206ZM304.229 221.478C302.613 220.134 301.333 218.55 300.389 216.726C299.461 214.902 298.997 212.846 298.997 210.558C298.997 208.27 299.461 206.214 300.389 204.39C301.333 202.566 302.613 200.982 304.229 199.638L305.765 200.91C304.245 202.286 303.133 203.75 302.429 205.302C301.725 206.854 301.373 208.606 301.373 210.558C301.373 212.51 301.725 214.262 302.429 215.814C303.133 217.366 304.245 218.83 305.765 220.206L304.229 221.478ZM772.208 220.206C773.728 218.83 774.84 217.366 775.544 215.814C776.248 214.262 776.6 212.51 776.6 210.558C776.6 208.606 776.248 206.854 775.544 205.302C774.84 203.75 773.728 202.286 772.208 200.91L773.744 199.638C775.36 200.982 776.632 202.566 777.56 204.39C778.504 206.214 778.976 208.27 778.976 210.558C778.976 212.846 778.504 214.902 777.56 216.726C776.632 218.55 775.36 220.134 773.744 221.478L772.208 220.206Z" fill="#2E383C"/>
<path d="M361.792 161.478C360.176 160.134 358.896 158.55 357.952 156.726C357.024 154.902 356.56 152.846 356.56 150.558C356.56 148.27 357.024 146.214 357.952 144.39C358.896 142.566 360.176 140.982 361.792 139.638L363.328 140.91C361.808 142.286 360.696 143.75 359.992 145.302C359.288 146.854 358.936 148.606 358.936 150.558C358.936 152.51 359.288 154.262 359.992 155.814C360.696 157.366 361.808 158.83 363.328 160.206L361.792 161.478ZM368.934 143.838L368.862 140.766H372.222L372.15 143.838L371.43 149.382H369.654L368.934 143.838ZM374.862 143.838L374.79 140.766H378.15L378.078 143.838L377.358 149.382H375.582L374.862 143.838ZM386.493 143.886H381.549V141.534H394.221V143.886H389.277V157.23H386.493V143.886ZM397.044 140.286H399.828V144.654L399.66 147.174C400.204 146.63 400.812 146.158 401.484 145.758C402.172 145.358 402.972 145.158 403.884 145.158C405.244 145.158 406.244 145.574 406.884 146.406C407.524 147.222 407.844 148.398 407.844 149.934V157.23H405.06V150.294C405.06 149.334 404.892 148.638 404.556 148.206C404.236 147.758 403.668 147.534 402.852 147.534C402.276 147.534 401.764 147.67 401.316 147.942C400.868 148.214 400.372 148.63 399.828 149.19V157.23H397.044V140.286ZM410.954 151.35C410.954 150.39 411.122 149.526 411.458 148.758C411.81 147.99 412.266 147.342 412.826 146.814C413.386 146.27 414.026 145.862 414.746 145.59C415.482 145.302 416.234 145.158 417.002 145.158C417.882 145.158 418.658 145.302 419.33 145.59C420.018 145.862 420.594 146.246 421.058 146.742C421.522 147.222 421.874 147.806 422.114 148.494C422.354 149.182 422.474 149.934 422.474 150.75C422.474 151.022 422.458 151.278 422.426 151.518C422.41 151.758 422.386 151.95 422.354 152.094H413.786C413.882 153.15 414.298 153.966 415.034 154.542C415.77 155.102 416.674 155.382 417.746 155.382C418.354 155.382 418.922 155.302 419.45 155.142C419.978 154.966 420.514 154.726 421.058 154.422L421.994 156.15C421.354 156.55 420.642 156.878 419.858 157.134C419.074 157.39 418.25 157.518 417.386 157.518C416.49 157.518 415.65 157.382 414.866 157.11C414.082 156.822 413.402 156.414 412.826 155.886C412.25 155.358 411.794 154.718 411.458 153.966C411.122 153.198 410.954 152.326 410.954 151.35ZM419.93 150.222C419.93 149.31 419.69 148.598 419.21 148.086C418.73 147.558 418.018 147.294 417.074 147.294C416.274 147.294 415.562 147.542 414.938 148.038C414.314 148.534 413.922 149.262 413.762 150.222H419.93ZM426.977 145.446H429.257L429.497 148.11H429.569C430.177 147.15 430.905 146.422 431.753 145.926C432.617 145.414 433.561 145.158 434.585 145.158C435.065 145.158 435.473 145.198 435.809 145.278C436.161 145.342 436.513 145.462 436.865 145.638L436.289 147.966C435.905 147.838 435.561 147.75 435.257 147.702C434.969 147.638 434.601 147.606 434.153 147.606C433.337 147.606 432.553 147.838 431.801 148.302C431.049 148.766 430.369 149.574 429.761 150.726V157.23H426.977V145.446ZM439.735 151.35C439.735 150.39 439.903 149.526 440.239 148.758C440.591 147.99 441.047 147.342 441.607 146.814C442.167 146.27 442.807 145.862 443.527 145.59C444.263 145.302 445.015 145.158 445.783 145.158C446.663 145.158 447.439 145.302 448.111 145.59C448.799 145.862 449.375 146.246 449.839 146.742C450.303 147.222 450.655 147.806 450.895 148.494C451.135 149.182 451.255 149.934 451.255 150.75C451.255 151.022 451.239 151.278 451.207 151.518C451.191 151.758 451.167 151.95 451.135 152.094H442.567C442.663 153.15 443.079 153.966 443.815 154.542C444.551 155.102 445.455 155.382 446.527 155.382C447.135 155.382 447.703 155.302 448.231 155.142C448.759 154.966 449.295 154.726 449.839 154.422L450.775 156.15C450.135 156.55 449.423 156.878 448.639 157.134C447.855 157.39 447.031 157.518 446.167 157.518C445.271 157.518 444.431 157.382 443.647 157.11C442.863 156.822 442.183 156.414 441.607 155.886C441.031 155.358 440.575 154.718 440.239 153.966C439.903 153.198 439.735 152.326 439.735 151.35ZM448.711 150.222C448.711 149.31 448.471 148.598 447.991 148.086C447.511 147.558 446.799 147.294 445.855 147.294C445.055 147.294 444.343 147.542 443.719 148.038C443.095 148.534 442.703 149.262 442.543 150.222H448.711ZM467.173 145.446H469.909L470.989 151.566C471.085 152.126 471.165 152.686 471.229 153.246C471.309 153.806 471.389 154.374 471.469 154.95H471.565C471.645 154.374 471.733 153.806 471.829 153.246C471.925 152.686 472.037 152.126 472.165 151.566L473.269 146.598H475.333L476.437 151.566C476.565 152.126 476.677 152.686 476.773 153.246C476.885 153.806 476.989 154.374 477.085 154.95H477.181C477.277 154.374 477.357 153.806 477.421 153.246C477.501 152.686 477.581 152.126 477.661 151.566L478.741 145.446H481.285L479.101 157.23H475.861L474.829 152.31C474.733 151.75 474.637 151.19 474.541 150.63C474.461 150.07 474.373 149.486 474.277 148.878H474.181C474.101 149.342 474.021 149.846 473.941 150.39C473.877 150.918 473.781 151.566 473.653 152.334L472.645 157.23H469.453L467.173 145.446ZM483.123 154.062C483.123 153.406 483.275 152.83 483.579 152.334C483.883 151.822 484.363 151.39 485.019 151.038C485.675 150.686 486.515 150.398 487.539 150.174C488.563 149.95 489.803 149.79 491.259 149.694C491.211 149.022 490.971 148.47 490.539 148.038C490.107 147.606 489.411 147.39 488.451 147.39C487.779 147.39 487.115 147.518 486.459 147.774C485.819 148.014 485.195 148.302 484.587 148.638L483.579 146.79C484.299 146.374 485.123 145.998 486.051 145.662C486.979 145.326 487.947 145.158 488.955 145.158C490.603 145.158 491.859 145.598 492.723 146.478C493.587 147.342 494.019 148.598 494.019 150.246V157.23H491.763L491.547 155.766H491.475C490.851 156.246 490.155 156.662 489.387 157.014C488.635 157.35 487.859 157.518 487.059 157.518C486.483 157.518 485.955 157.43 485.475 157.254C484.995 157.094 484.579 156.862 484.227 156.558C483.875 156.254 483.603 155.894 483.411 155.478C483.219 155.046 483.123 154.574 483.123 154.062ZM485.787 153.846C485.787 154.374 485.987 154.758 486.387 154.998C486.803 155.238 487.307 155.358 487.899 155.358C488.491 155.358 489.059 155.23 489.603 154.974C490.163 154.702 490.715 154.35 491.259 153.918V151.422C490.203 151.502 489.323 151.614 488.619 151.758C487.915 151.886 487.355 152.054 486.939 152.262C486.523 152.47 486.227 152.71 486.051 152.982C485.875 153.238 485.787 153.526 485.787 153.846ZM498.594 153.942C499.266 154.406 499.962 154.774 500.682 155.046C501.418 155.302 502.242 155.43 503.154 155.43C504.082 155.43 504.762 155.302 505.194 155.046C505.626 154.774 505.842 154.43 505.842 154.014C505.842 153.598 505.562 153.254 505.002 152.982C504.442 152.694 503.562 152.39 502.362 152.07C501.802 151.926 501.258 151.75 500.73 151.542C500.202 151.334 499.738 151.094 499.338 150.822C498.938 150.55 498.618 150.238 498.378 149.886C498.138 149.534 498.018 149.134 498.018 148.686C498.018 147.646 498.466 146.798 499.362 146.142C500.258 145.486 501.546 145.158 503.226 145.158C504.186 145.158 505.09 145.318 505.938 145.638C506.786 145.958 507.514 146.318 508.122 146.718L506.85 148.422C506.322 148.07 505.754 147.79 505.146 147.582C504.554 147.358 503.922 147.246 503.25 147.246C502.338 147.246 501.698 147.374 501.33 147.63C500.962 147.87 500.778 148.174 500.778 148.542C500.778 148.75 500.858 148.942 501.018 149.118C501.194 149.278 501.426 149.43 501.714 149.574C502.018 149.702 502.37 149.83 502.77 149.958C503.17 150.086 503.61 150.206 504.09 150.318C504.778 150.494 505.394 150.694 505.938 150.918C506.498 151.126 506.97 151.366 507.354 151.638C507.754 151.91 508.058 152.23 508.266 152.598C508.49 152.966 508.602 153.39 508.602 153.87C508.602 154.382 508.482 154.862 508.242 155.31C508.002 155.742 507.65 156.126 507.186 156.462C506.722 156.782 506.146 157.038 505.458 157.23C504.77 157.422 503.978 157.518 503.082 157.518C501.978 157.518 500.922 157.342 499.914 156.99C498.906 156.638 498.034 156.206 497.298 155.694L498.594 153.942ZM526.295 154.062C526.295 153.406 526.447 152.83 526.751 152.334C527.055 151.822 527.535 151.39 528.191 151.038C528.847 150.686 529.687 150.398 530.711 150.174C531.735 149.95 532.975 149.79 534.431 149.694C534.383 149.022 534.143 148.47 533.711 148.038C533.279 147.606 532.583 147.39 531.623 147.39C530.951 147.39 530.287 147.518 529.631 147.774C528.991 148.014 528.367 148.302 527.759 148.638L526.751 146.79C527.471 146.374 528.295 145.998 529.223 145.662C530.151 145.326 531.119 145.158 532.127 145.158C533.775 145.158 535.031 145.598 535.895 146.478C536.759 147.342 537.191 148.598 537.191 150.246V157.23H534.935L534.719 155.766H534.647C534.023 156.246 533.327 156.662 532.559 157.014C531.807 157.35 531.031 157.518 530.231 157.518C529.655 157.518 529.127 157.43 528.647 157.254C528.167 157.094 527.751 156.862 527.399 156.558C527.047 156.254 526.775 155.894 526.583 155.478C526.391 155.046 526.295 154.574 526.295 154.062ZM528.959 153.846C528.959 154.374 529.159 154.758 529.559 154.998C529.975 155.238 530.479 155.358 531.071 155.358C531.663 155.358 532.231 155.23 532.775 154.974C533.335 154.702 533.887 154.35 534.431 153.918V151.422C533.375 151.502 532.495 151.614 531.791 151.758C531.087 151.886 530.527 152.054 530.111 152.262C529.695 152.47 529.399 152.71 529.223 152.982C529.047 153.238 528.959 153.526 528.959 153.846ZM540.95 145.446H543.23L543.446 147.222H543.542C544.102 146.662 544.718 146.182 545.39 145.782C546.078 145.366 546.878 145.158 547.79 145.158C549.15 145.158 550.15 145.574 550.79 146.406C551.43 147.222 551.75 148.398 551.75 149.934V157.23H548.966V150.294C548.966 149.334 548.798 148.638 548.462 148.206C548.142 147.758 547.574 147.534 546.758 147.534C546.182 147.534 545.67 147.67 545.222 147.942C544.774 148.214 544.278 148.63 543.734 149.19V157.23H540.95V145.446ZM569.251 151.35C569.251 150.39 569.419 149.526 569.755 148.758C570.107 147.99 570.563 147.342 571.123 146.814C571.683 146.27 572.323 145.862 573.043 145.59C573.779 145.302 574.531 145.158 575.299 145.158C576.179 145.158 576.955 145.302 577.627 145.59C578.315 145.862 578.891 146.246 579.355 146.742C579.819 147.222 580.171 147.806 580.411 148.494C580.651 149.182 580.771 149.934 580.771 150.75C580.771 151.022 580.755 151.278 580.723 151.518C580.707 151.758 580.683 151.95 580.651 152.094H572.083C572.179 153.15 572.595 153.966 573.331 154.542C574.067 155.102 574.971 155.382 576.043 155.382C576.651 155.382 577.219 155.302 577.747 155.142C578.275 154.966 578.811 154.726 579.355 154.422L580.291 156.15C579.651 156.55 578.939 156.878 578.155 157.134C577.371 157.39 576.547 157.518 575.683 157.518C574.787 157.518 573.947 157.382 573.163 157.11C572.379 156.822 571.699 156.414 571.123 155.886C570.547 155.358 570.091 154.718 569.755 153.966C569.419 153.198 569.251 152.326 569.251 151.35ZM578.227 150.222C578.227 149.31 577.987 148.598 577.507 148.086C577.027 147.558 576.315 147.294 575.371 147.294C574.571 147.294 573.859 147.542 573.235 148.038C572.611 148.534 572.219 149.262 572.059 150.222H578.227ZM585.274 145.446H587.554L587.794 148.11H587.866C588.474 147.15 589.202 146.422 590.05 145.926C590.914 145.414 591.858 145.158 592.882 145.158C593.362 145.158 593.77 145.198 594.106 145.278C594.458 145.342 594.81 145.462 595.162 145.638L594.586 147.966C594.202 147.838 593.858 147.75 593.554 147.702C593.266 147.638 592.898 147.606 592.45 147.606C591.634 147.606 590.85 147.838 590.098 148.302C589.346 148.766 588.666 149.574 588.058 150.726V157.23H585.274V145.446ZM599.664 145.446H601.944L602.184 148.11H602.256C602.864 147.15 603.592 146.422 604.44 145.926C605.304 145.414 606.248 145.158 607.272 145.158C607.752 145.158 608.16 145.198 608.496 145.278C608.848 145.342 609.2 145.462 609.552 145.638L608.976 147.966C608.592 147.838 608.248 147.75 607.944 147.702C607.656 147.638 607.288 147.606 606.84 147.606C606.024 147.606 605.24 147.838 604.488 148.302C603.736 148.766 603.056 149.574 602.448 150.726V157.23H599.664V145.446ZM612.207 151.35C612.207 150.374 612.367 149.502 612.687 148.734C613.023 147.966 613.463 147.318 614.007 146.79C614.551 146.262 615.183 145.862 615.903 145.59C616.623 145.302 617.367 145.158 618.135 145.158C618.903 145.158 619.647 145.302 620.367 145.59C621.087 145.862 621.719 146.262 622.263 146.79C622.807 147.318 623.239 147.966 623.559 148.734C623.895 149.502 624.063 150.374 624.063 151.35C624.063 152.326 623.895 153.198 623.559 153.966C623.239 154.734 622.807 155.382 622.263 155.91C621.719 156.438 621.087 156.838 620.367 157.11C619.647 157.382 618.903 157.518 618.135 157.518C617.367 157.518 616.623 157.382 615.903 157.11C615.183 156.838 614.551 156.438 614.007 155.91C613.463 155.382 613.023 154.734 612.687 153.966C612.367 153.198 612.207 152.326 612.207 151.35ZM615.063 151.35C615.063 152.534 615.335 153.486 615.879 154.206C616.423 154.91 617.175 155.262 618.135 155.262C619.095 155.262 619.847 154.91 620.391 154.206C620.935 153.486 621.207 152.534 621.207 151.35C621.207 150.15 620.935 149.198 620.391 148.494C619.847 147.774 619.095 147.414 618.135 147.414C617.175 147.414 616.423 147.774 615.879 148.494C615.335 149.198 615.063 150.15 615.063 151.35ZM628.446 145.446H630.726L630.966 148.11H631.038C631.646 147.15 632.374 146.422 633.222 145.926C634.086 145.414 635.03 145.158 636.054 145.158C636.534 145.158 636.942 145.198 637.278 145.278C637.63 145.342 637.982 145.462 638.334 145.638L637.758 147.966C637.374 147.838 637.03 147.75 636.726 147.702C636.438 147.638 636.07 147.606 635.622 147.606C634.806 147.606 634.022 147.838 633.27 148.302C632.518 148.766 631.838 149.574 631.23 150.726V157.23H628.446V145.446ZM644.54 155.094C644.54 154.39 644.764 153.814 645.212 153.366C645.66 152.902 646.228 152.67 646.916 152.67C647.604 152.67 648.172 152.902 648.62 153.366C649.068 153.814 649.292 154.39 649.292 155.094C649.292 155.798 649.068 156.382 648.62 156.846C648.172 157.294 647.604 157.518 646.916 157.518C646.228 157.518 645.66 157.294 645.212 156.846C644.764 156.382 644.54 155.798 644.54 155.094ZM656.747 143.838L656.675 140.766H660.035L659.963 143.838L659.243 149.382H657.467L656.747 143.838ZM662.675 143.838L662.603 140.766H665.963L665.891 143.838L665.171 149.382H663.395L662.675 143.838ZM311.372 203.838L311.3 200.766H314.66L314.588 203.838L313.868 209.382H312.092L311.372 203.838ZM317.3 203.838L317.228 200.766H320.588L320.516 203.838L319.796 209.382H318.02L317.3 203.838ZM328.93 203.886H323.986V201.534H336.658V203.886H331.714V217.23H328.93V203.886ZM339.481 200.286H342.265V204.654L342.097 207.174C342.641 206.63 343.249 206.158 343.921 205.758C344.609 205.358 345.409 205.158 346.321 205.158C347.681 205.158 348.681 205.574 349.321 206.406C349.961 207.222 350.281 208.398 350.281 209.934V217.23H347.497V210.294C347.497 209.334 347.329 208.638 346.993 208.206C346.673 207.758 346.105 207.534 345.289 207.534C344.713 207.534 344.201 207.67 343.753 207.942C343.305 208.214 342.809 208.63 342.265 209.19V217.23H339.481V200.286ZM353.92 205.446H361.792V217.23H359.032V207.63H353.92V205.446ZM360.208 203.382C359.648 203.382 359.176 203.214 358.792 202.878C358.424 202.542 358.24 202.094 358.24 201.534C358.24 200.974 358.424 200.526 358.792 200.19C359.176 199.838 359.648 199.662 360.208 199.662C360.784 199.662 361.256 199.838 361.624 200.19C361.992 200.526 362.176 200.974 362.176 201.534C362.176 202.094 361.992 202.542 361.624 202.878C361.256 203.214 360.784 203.382 360.208 203.382ZM369.078 213.942C369.75 214.406 370.446 214.774 371.166 215.046C371.902 215.302 372.726 215.43 373.638 215.43C374.566 215.43 375.246 215.302 375.678 215.046C376.11 214.774 376.326 214.43 376.326 214.014C376.326 213.598 376.046 213.254 375.486 212.982C374.926 212.694 374.046 212.39 372.846 212.07C372.286 211.926 371.742 211.75 371.214 211.542C370.686 211.334 370.222 211.094 369.822 210.822C369.422 210.55 369.102 210.238 368.862 209.886C368.622 209.534 368.502 209.134 368.502 208.686C368.502 207.646 368.95 206.798 369.846 206.142C370.742 205.486 372.03 205.158 373.71 205.158C374.67 205.158 375.574 205.318 376.422 205.638C377.27 205.958 377.998 206.318 378.606 206.718L377.334 208.422C376.806 208.07 376.238 207.79 375.63 207.582C375.038 207.358 374.406 207.246 373.734 207.246C372.822 207.246 372.182 207.374 371.814 207.63C371.446 207.87 371.262 208.174 371.262 208.542C371.262 208.75 371.342 208.942 371.502 209.118C371.678 209.278 371.91 209.43 372.198 209.574C372.502 209.702 372.854 209.83 373.254 209.958C373.654 210.086 374.094 210.206 374.574 210.318C375.262 210.494 375.878 210.694 376.422 210.918C376.982 211.126 377.454 211.366 377.838 211.638C378.238 211.91 378.542 212.23 378.75 212.598C378.974 212.966 379.086 213.39 379.086 213.87C379.086 214.382 378.966 214.862 378.726 215.31C378.486 215.742 378.134 216.126 377.67 216.462C377.206 216.782 376.63 217.038 375.942 217.23C375.254 217.422 374.462 217.518 373.566 217.518C372.462 217.518 371.406 217.342 370.398 216.99C369.39 216.638 368.518 216.206 367.782 215.694L369.078 213.942ZM397.092 205.446H404.964V217.23H402.204V207.63H397.092V205.446ZM403.38 203.382C402.82 203.382 402.348 203.214 401.964 202.878C401.596 202.542 401.412 202.094 401.412 201.534C401.412 200.974 401.596 200.526 401.964 200.19C402.348 199.838 402.82 199.662 403.38 199.662C403.956 199.662 404.428 199.838 404.796 200.19C405.164 200.526 405.348 200.974 405.348 201.534C405.348 202.094 405.164 202.542 404.796 202.878C404.428 203.214 403.956 203.382 403.38 203.382ZM412.25 213.942C412.922 214.406 413.618 214.774 414.338 215.046C415.074 215.302 415.898 215.43 416.81 215.43C417.738 215.43 418.418 215.302 418.85 215.046C419.282 214.774 419.498 214.43 419.498 214.014C419.498 213.598 419.218 213.254 418.658 212.982C418.098 212.694 417.218 212.39 416.018 212.07C415.458 211.926 414.914 211.75 414.386 211.542C413.858 211.334 413.394 211.094 412.994 210.822C412.594 210.55 412.274 210.238 412.034 209.886C411.794 209.534 411.674 209.134 411.674 208.686C411.674 207.646 412.122 206.798 413.018 206.142C413.914 205.486 415.202 205.158 416.882 205.158C417.842 205.158 418.746 205.318 419.594 205.638C420.442 205.958 421.17 206.318 421.778 206.718L420.506 208.422C419.978 208.07 419.41 207.79 418.802 207.582C418.21 207.358 417.578 207.246 416.906 207.246C415.994 207.246 415.354 207.374 414.986 207.63C414.618 207.87 414.434 208.174 414.434 208.542C414.434 208.75 414.514 208.942 414.674 209.118C414.85 209.278 415.082 209.43 415.37 209.574C415.674 209.702 416.026 209.83 416.426 209.958C416.826 210.086 417.266 210.206 417.746 210.318C418.434 210.494 419.05 210.694 419.594 210.918C420.154 211.126 420.626 211.366 421.01 211.638C421.41 211.91 421.714 212.23 421.922 212.598C422.146 212.966 422.258 213.39 422.258 213.87C422.258 214.382 422.138 214.862 421.898 215.31C421.658 215.742 421.306 216.126 420.842 216.462C420.378 216.782 419.802 217.038 419.114 217.23C418.426 217.422 417.634 217.518 416.738 217.518C415.634 217.518 414.578 217.342 413.57 216.99C412.562 216.638 411.69 216.206 410.954 215.694L412.25 213.942ZM442.807 207.63H439.663V205.566L442.927 205.446L443.287 202.23H445.567V205.446H450.943V207.63H445.567V212.478C445.567 213.454 445.767 214.174 446.167 214.638C446.567 215.086 447.271 215.31 448.279 215.31C448.791 215.31 449.255 215.27 449.671 215.19C450.087 215.094 450.487 214.974 450.871 214.83L451.399 216.846C450.871 217.022 450.287 217.174 449.647 217.302C449.007 217.446 448.327 217.518 447.607 217.518C446.711 217.518 445.959 217.398 445.351 217.158C444.743 216.918 444.247 216.582 443.863 216.15C443.495 215.702 443.223 215.166 443.047 214.542C442.887 213.918 442.807 213.23 442.807 212.478V207.63ZM454.606 200.286H457.39V204.654L457.222 207.174C457.766 206.63 458.374 206.158 459.046 205.758C459.734 205.358 460.534 205.158 461.446 205.158C462.806 205.158 463.806 205.574 464.446 206.406C465.086 207.222 465.406 208.398 465.406 209.934V217.23H462.622V210.294C462.622 209.334 462.454 208.638 462.118 208.206C461.798 207.758 461.23 207.534 460.414 207.534C459.838 207.534 459.326 207.67 458.878 207.942C458.43 208.214 457.934 208.63 457.39 209.19V217.23H454.606V200.286ZM468.517 211.35C468.517 210.39 468.685 209.526 469.021 208.758C469.373 207.99 469.829 207.342 470.389 206.814C470.949 206.27 471.589 205.862 472.309 205.59C473.045 205.302 473.797 205.158 474.565 205.158C475.445 205.158 476.221 205.302 476.893 205.59C477.581 205.862 478.157 206.246 478.621 206.742C479.085 207.222 479.437 207.806 479.677 208.494C479.917 209.182 480.037 209.934 480.037 210.75C480.037 211.022 480.021 211.278 479.989 211.518C479.973 211.758 479.949 211.95 479.917 212.094H471.349C471.445 213.15 471.861 213.966 472.597 214.542C473.333 215.102 474.237 215.382 475.309 215.382C475.917 215.382 476.485 215.302 477.013 215.142C477.541 214.966 478.077 214.726 478.621 214.422L479.557 216.15C478.917 216.55 478.205 216.878 477.421 217.134C476.637 217.39 475.813 217.518 474.949 217.518C474.053 217.518 473.213 217.382 472.429 217.11C471.645 216.822 470.965 216.414 470.389 215.886C469.813 215.358 469.357 214.718 469.021 213.966C468.685 213.198 468.517 212.326 468.517 211.35ZM477.493 210.222C477.493 209.31 477.253 208.598 476.773 208.086C476.293 207.558 475.581 207.294 474.637 207.294C473.837 207.294 473.125 207.542 472.501 208.038C471.877 208.534 471.485 209.262 471.325 210.222H477.493ZM497.778 205.446H500.058L500.274 207.222H500.37C500.93 206.662 501.546 206.182 502.218 205.782C502.906 205.366 503.706 205.158 504.618 205.158C505.978 205.158 506.978 205.574 507.618 206.406C508.258 207.222 508.578 208.398 508.578 209.934V217.23H505.794V210.294C505.794 209.334 505.626 208.638 505.29 208.206C504.97 207.758 504.402 207.534 503.586 207.534C503.01 207.534 502.498 207.67 502.05 207.942C501.602 208.214 501.106 208.63 500.562 209.19V217.23H497.778V205.446ZM511.689 211.35C511.689 210.39 511.857 209.526 512.193 208.758C512.545 207.99 513.001 207.342 513.561 206.814C514.121 206.27 514.761 205.862 515.481 205.59C516.217 205.302 516.969 205.158 517.737 205.158C518.617 205.158 519.393 205.302 520.065 205.59C520.753 205.862 521.329 206.246 521.793 206.742C522.257 207.222 522.609 207.806 522.849 208.494C523.089 209.182 523.209 209.934 523.209 210.75C523.209 211.022 523.193 211.278 523.161 211.518C523.145 211.758 523.121 211.95 523.089 212.094H514.521C514.617 213.15 515.033 213.966 515.769 214.542C516.505 215.102 517.409 215.382 518.481 215.382C519.089 215.382 519.657 215.302 520.185 215.142C520.713 214.966 521.249 214.726 521.793 214.422L522.729 216.15C522.089 216.55 521.377 216.878 520.593 217.134C519.809 217.39 518.985 217.518 518.121 217.518C517.225 217.518 516.385 217.382 515.601 217.11C514.817 216.822 514.137 216.414 513.561 215.886C512.985 215.358 512.529 214.718 512.193 213.966C511.857 213.198 511.689 212.326 511.689 211.35ZM520.665 210.222C520.665 209.31 520.425 208.598 519.945 208.086C519.465 207.558 518.753 207.294 517.809 207.294C517.009 207.294 516.297 207.542 515.673 208.038C515.049 208.534 514.657 209.262 514.497 210.222H520.665ZM530.087 211.11L526.103 205.446H529.103L530.639 207.678C530.831 207.998 531.039 208.334 531.263 208.686C531.487 209.022 531.711 209.358 531.935 209.694H532.031C532.207 209.358 532.399 209.014 532.607 208.662C532.815 208.31 533.007 207.974 533.183 207.654L534.575 205.446H537.479L533.471 211.398L537.767 217.23H534.767L533.063 214.902C532.839 214.582 532.599 214.238 532.343 213.87C532.103 213.502 531.863 213.15 531.623 212.814H531.527C531.303 213.166 531.087 213.518 530.879 213.87C530.687 214.206 530.479 214.558 530.255 214.926L528.719 217.23H525.815L530.087 211.11ZM543.542 207.63H540.398V205.566L543.662 205.446L544.022 202.23H546.302V205.446H551.678V207.63H546.302V212.478C546.302 213.454 546.502 214.174 546.902 214.638C547.302 215.086 548.006 215.31 549.014 215.31C549.526 215.31 549.99 215.27 550.406 215.19C550.822 215.094 551.222 214.974 551.606 214.83L552.134 216.846C551.606 217.022 551.022 217.174 550.382 217.302C549.742 217.446 549.062 217.518 548.342 217.518C547.446 217.518 546.694 217.398 546.086 217.158C545.478 216.918 544.982 216.582 544.598 216.15C544.23 215.702 543.958 215.166 543.782 214.542C543.622 213.918 543.542 213.23 543.542 212.478V207.63ZM569.467 200.286H575.947V213.078C575.947 213.878 576.147 214.446 576.547 214.782C576.947 215.102 577.451 215.262 578.059 215.262C578.635 215.262 579.307 215.11 580.075 214.806L580.723 216.846C580.163 217.038 579.635 217.198 579.139 217.326C578.659 217.454 578.075 217.518 577.387 217.518C575.995 217.518 574.947 217.118 574.243 216.318C573.539 215.518 573.187 214.39 573.187 212.934V202.47H569.467V200.286ZM584.17 205.446H592.042V217.23H589.282V207.63H584.17V205.446ZM590.458 203.382C589.898 203.382 589.426 203.214 589.042 202.878C588.674 202.542 588.49 202.094 588.49 201.534C588.49 200.974 588.674 200.526 589.042 200.19C589.426 199.838 589.898 199.662 590.458 199.662C591.034 199.662 591.506 199.838 591.874 200.19C592.242 200.526 592.426 200.974 592.426 201.534C592.426 202.094 592.242 202.542 591.874 202.878C591.506 203.214 591.034 203.382 590.458 203.382ZM598.512 205.446H600.792L601.008 207.222H601.104C601.664 206.662 602.28 206.182 602.952 205.782C603.64 205.366 604.44 205.158 605.352 205.158C606.712 205.158 607.712 205.574 608.352 206.406C608.992 207.222 609.312 208.398 609.312 209.934V217.23H606.528V210.294C606.528 209.334 606.36 208.638 606.024 208.206C605.704 207.758 605.136 207.534 604.32 207.534C603.744 207.534 603.232 207.67 602.784 207.942C602.336 208.214 601.84 208.63 601.296 209.19V217.23H598.512V205.446ZM612.423 211.35C612.423 210.39 612.591 209.526 612.927 208.758C613.279 207.99 613.735 207.342 614.295 206.814C614.855 206.27 615.495 205.862 616.215 205.59C616.951 205.302 617.703 205.158 618.471 205.158C619.351 205.158 620.127 205.302 620.799 205.59C621.487 205.862 622.063 206.246 622.527 206.742C622.991 207.222 623.343 207.806 623.583 208.494C623.823 209.182 623.943 209.934 623.943 210.75C623.943 211.022 623.927 211.278 623.895 211.518C623.879 211.758 623.855 211.95 623.823 212.094H615.255C615.351 213.15 615.767 213.966 616.503 214.542C617.239 215.102 618.143 215.382 619.215 215.382C619.823 215.382 620.391 215.302 620.919 215.142C621.447 214.966 621.983 214.726 622.527 214.422L623.463 216.15C622.823 216.55 622.111 216.878 621.327 217.134C620.543 217.39 619.719 217.518 618.855 217.518C617.959 217.518 617.119 217.382 616.335 217.11C615.551 216.822 614.871 216.414 614.295 215.886C613.719 215.358 613.263 214.718 612.927 213.966C612.591 213.198 612.423 212.326 612.423 211.35ZM621.399 210.222C621.399 209.31 621.159 208.598 620.679 208.086C620.199 207.558 619.487 207.294 618.543 207.294C617.743 207.294 617.031 207.542 616.407 208.038C615.783 208.534 615.391 209.262 615.231 210.222H621.399ZM640.988 211.35C640.988 210.374 641.148 209.502 641.468 208.734C641.804 207.966 642.244 207.318 642.788 206.79C643.332 206.262 643.964 205.862 644.684 205.59C645.404 205.302 646.148 205.158 646.916 205.158C647.684 205.158 648.428 205.302 649.148 205.59C649.868 205.862 650.5 206.262 651.044 206.79C651.588 207.318 652.02 207.966 652.34 208.734C652.676 209.502 652.844 210.374 652.844 211.35C652.844 212.326 652.676 213.198 652.34 213.966C652.02 214.734 651.588 215.382 651.044 215.91C650.5 216.438 649.868 216.838 649.148 217.11C648.428 217.382 647.684 217.518 646.916 217.518C646.148 217.518 645.404 217.382 644.684 217.11C643.964 216.838 643.332 216.438 642.788 215.91C642.244 215.382 641.804 214.734 641.468 213.966C641.148 213.198 640.988 212.326 640.988 211.35ZM643.844 211.35C643.844 212.534 644.116 213.486 644.66 214.206C645.204 214.91 645.956 215.262 646.916 215.262C647.876 215.262 648.628 214.91 649.172 214.206C649.716 213.486 649.988 212.534 649.988 211.35C649.988 210.15 649.716 209.198 649.172 208.494C648.628 207.774 647.876 207.414 646.916 207.414C645.956 207.414 645.204 207.774 644.66 208.494C644.116 209.198 643.844 210.15 643.844 211.35ZM667.499 202.686C667.067 202.51 666.643 202.382 666.227 202.302C665.827 202.222 665.387 202.182 664.907 202.182C663.995 202.182 663.331 202.406 662.915 202.854C662.515 203.286 662.315 203.918 662.315 204.75V205.446H666.803V207.63H662.315V217.23H659.579V207.63H656.315V205.566L659.579 205.446V204.798C659.579 204.11 659.675 203.47 659.867 202.878C660.059 202.286 660.355 201.782 660.755 201.366C661.171 200.934 661.691 200.598 662.315 200.358C662.955 200.118 663.707 199.998 664.571 199.998C665.211 199.998 665.819 200.054 666.395 200.166C666.987 200.278 667.547 200.438 668.075 200.646L667.499 202.686ZM684.64 211.35C684.64 210.374 684.816 209.502 685.168 208.734C685.536 207.966 686.024 207.318 686.632 206.79C687.24 206.262 687.952 205.862 688.768 205.59C689.584 205.302 690.44 205.158 691.336 205.158C692.296 205.158 693.136 205.318 693.856 205.638C694.592 205.958 695.208 206.35 695.704 206.814L694.384 208.542C693.92 208.174 693.448 207.894 692.968 207.702C692.504 207.51 692.008 207.414 691.48 207.414C690.296 207.414 689.336 207.774 688.6 208.494C687.864 209.198 687.496 210.15 687.496 211.35C687.496 211.942 687.592 212.478 687.784 212.958C687.976 213.438 688.24 213.854 688.576 214.206C688.928 214.542 689.344 214.806 689.824 214.998C690.304 215.174 690.832 215.262 691.408 215.262C692.08 215.262 692.688 215.134 693.232 214.878C693.792 214.622 694.304 214.318 694.768 213.966L695.92 215.742C695.248 216.334 694.496 216.782 693.664 217.086C692.832 217.374 691.992 217.518 691.144 217.518C690.216 217.518 689.352 217.382 688.552 217.11C687.768 216.838 687.08 216.438 686.488 215.91C685.912 215.382 685.456 214.734 685.12 213.966C684.8 213.198 684.64 212.326 684.64 211.35ZM698.551 211.35C698.551 210.374 698.711 209.502 699.031 208.734C699.367 207.966 699.807 207.318 700.351 206.79C700.895 206.262 701.527 205.862 702.247 205.59C702.967 205.302 703.711 205.158 704.479 205.158C705.247 205.158 705.991 205.302 706.711 205.59C707.431 205.862 708.063 206.262 708.607 206.79C709.151 207.318 709.583 207.966 709.903 208.734C710.239 209.502 710.407 210.374 710.407 211.35C710.407 212.326 710.239 213.198 709.903 213.966C709.583 214.734 709.151 215.382 708.607 215.91C708.063 216.438 707.431 216.838 706.711 217.11C705.991 217.382 705.247 217.518 704.479 217.518C703.711 217.518 702.967 217.382 702.247 217.11C701.527 216.838 700.895 216.438 700.351 215.91C699.807 215.382 699.367 214.734 699.031 213.966C698.711 213.198 698.551 212.326 698.551 211.35ZM701.407 211.35C701.407 212.534 701.679 213.486 702.223 214.206C702.767 214.91 703.519 215.262 704.479 215.262C705.439 215.262 706.191 214.91 706.735 214.206C707.279 213.486 707.551 212.534 707.551 211.35C707.551 210.15 707.279 209.198 706.735 208.494C706.191 207.774 705.439 207.414 704.479 207.414C703.519 207.414 702.767 207.774 702.223 208.494C701.679 209.198 701.407 210.15 701.407 211.35ZM712.941 211.35C712.941 210.39 713.085 209.526 713.373 208.758C713.661 207.99 714.045 207.342 714.525 206.814C715.021 206.286 715.581 205.878 716.205 205.59C716.829 205.302 717.477 205.158 718.149 205.158C718.853 205.158 719.453 205.286 719.949 205.542C720.461 205.782 720.957 206.118 721.437 206.55L721.317 204.558V200.286H724.101V217.23H721.821L721.605 215.862H721.533C721.069 216.326 720.525 216.718 719.901 217.038C719.293 217.358 718.653 217.518 717.981 217.518C717.229 217.518 716.541 217.382 715.917 217.11C715.293 216.822 714.757 216.414 714.309 215.886C713.877 215.358 713.541 214.718 713.301 213.966C713.061 213.198 712.941 212.326 712.941 211.35ZM715.797 211.326C715.797 212.606 716.045 213.582 716.541 214.254C717.037 214.91 717.741 215.238 718.653 215.238C719.629 215.238 720.517 214.766 721.317 213.822V208.518C720.901 208.118 720.485 207.838 720.069 207.678C719.653 207.518 719.229 207.438 718.797 207.438C718.381 207.438 717.989 207.526 717.621 207.702C717.269 207.878 716.957 208.134 716.685 208.47C716.413 208.79 716.197 209.19 716.037 209.67C715.877 210.15 715.797 210.702 715.797 211.326ZM727.548 211.35C727.548 210.39 727.716 209.526 728.052 208.758C728.404 207.99 728.86 207.342 729.42 206.814C729.98 206.27 730.62 205.862 731.34 205.59C732.076 205.302 732.828 205.158 733.596 205.158C734.476 205.158 735.252 205.302 735.924 205.59C736.612 205.862 737.188 206.246 737.652 206.742C738.116 207.222 738.468 207.806 738.708 208.494C738.948 209.182 739.068 209.934 739.068 210.75C739.068 211.022 739.052 211.278 739.02 211.518C739.004 211.758 738.98 211.95 738.948 212.094H730.38C730.476 213.15 730.892 213.966 731.628 214.542C732.364 215.102 733.268 215.382 734.34 215.382C734.948 215.382 735.516 215.302 736.044 215.142C736.572 214.966 737.108 214.726 737.652 214.422L738.588 216.15C737.948 216.55 737.236 216.878 736.452 217.134C735.668 217.39 734.844 217.518 733.98 217.518C733.084 217.518 732.244 217.382 731.46 217.11C730.676 216.822 729.996 216.414 729.42 215.886C728.844 215.358 728.388 214.718 728.052 213.966C727.716 213.198 727.548 212.326 727.548 211.35ZM736.524 210.222C736.524 209.31 736.284 208.598 735.804 208.086C735.324 207.558 734.612 207.294 733.668 207.294C732.868 207.294 732.156 207.542 731.532 208.038C730.908 208.534 730.516 209.262 730.356 210.222H736.524ZM745.275 215.094C745.275 214.39 745.499 213.814 745.947 213.366C746.395 212.902 746.963 212.67 747.651 212.67C748.339 212.67 748.907 212.902 749.355 213.366C749.803 213.814 750.027 214.39 750.027 215.094C750.027 215.798 749.803 216.382 749.355 216.846C748.907 217.294 748.339 217.518 747.651 217.518C746.963 217.518 746.395 217.294 745.947 216.846C745.499 216.382 745.275 215.798 745.275 215.094ZM757.481 203.838L757.409 200.766H760.769L760.697 203.838L759.977 209.382H758.201L757.481 203.838ZM763.409 203.838L763.337 200.766H766.697L766.625 203.838L765.905 209.382H764.129L763.409 203.838Z" fill="#B82629"/>
<line x1="504" y1="78" x2="504" y2="104" stroke="#E69F00" stroke-width="2"/>
<line x1="980" y1="91" x2="502" y2="91" stroke="#E69F00" stroke-width="2"/>
<line x1="224" y1="138" x2="224" y2="164" stroke="#E69F00" stroke-width="2"/>
<line x1="276" y1="138" x2="276" y2="164" stroke="#E69F00" stroke-width="2"/>
<line x1="274" y1="151" x2="222" y2="151" stroke="#E69F00" stroke-width="2"/>
<line x1="224" y1="78" x2="224" y2="104" stroke="#E69F00" stroke-width="2"/>
<line x1="276" y1="78" x2="276" y2="104" stroke="#E69F00" stroke-width="2"/>
<line x1="274" y1="91" x2="222" y2="91" stroke="#E69F00" stroke-width="2"/>
<line x1="686" y1="138" x2="686" y2="164" stroke="#E69F00" stroke-width="2"/>
<line x1="980" y1="151" x2="684" y2="151" stroke="#E69F00" stroke-width="2"/>
</svg>
