<svg width="1208" height="646" viewBox="0 0 1208 646" fill="none" xmlns="http://www.w3.org/2000/svg">
<rect width="604" height="323" fill="white" transform="scale(2)"/>
<path d="M416.121 198.121C417.293 196.95 417.293 195.05 416.121 193.879L397.029 174.787C395.858 173.615 393.958 173.615 392.787 174.787C391.615 175.958 391.615 177.858 392.787 179.029L409.757 196L392.787 212.971C391.615 214.142 391.615 216.042 392.787 217.213C393.958 218.385 395.858 218.385 397.029 217.213L416.121 198.121ZM298 199H414V193H298V199Z" fill="#219653"/>
<path d="M523.625 338.113H516.23V344.16H524.82V346H513.98V328.938H524.703V330.789H516.23V336.273H523.625V338.113ZM533.41 335.266C533.082 335.211 532.727 335.184 532.344 335.184C530.922 335.184 529.957 335.789 529.449 337V346H527.281V333.32H529.391L529.426 334.785C530.137 333.652 531.145 333.086 532.449 333.086C532.871 333.086 533.191 333.141 533.41 333.25V335.266ZM541.543 335.266C541.215 335.211 540.859 335.184 540.477 335.184C539.055 335.184 538.09 335.789 537.582 337V346H535.414V333.32H537.523L537.559 334.785C538.27 333.652 539.277 333.086 540.582 333.086C541.004 333.086 541.324 333.141 541.543 333.25V335.266ZM542.738 339.543C542.738 338.301 542.98 337.184 543.465 336.191C543.957 335.199 544.637 334.434 545.504 333.895C546.379 333.355 547.375 333.086 548.492 333.086C550.219 333.086 551.613 333.684 552.676 334.879C553.746 336.074 554.281 337.664 554.281 339.648V339.801C554.281 341.035 554.043 342.145 553.566 343.129C553.098 344.105 552.422 344.867 551.539 345.414C550.664 345.961 549.656 346.234 548.516 346.234C546.797 346.234 545.402 345.637 544.332 344.441C543.27 343.246 542.738 341.664 542.738 339.695V339.543ZM544.918 339.801C544.918 341.207 545.242 342.336 545.891 343.188C546.547 344.039 547.422 344.465 548.516 344.465C549.617 344.465 550.492 344.035 551.141 343.176C551.789 342.309 552.113 341.098 552.113 339.543C552.113 338.152 551.781 337.027 551.117 336.168C550.461 335.301 549.586 334.867 548.492 334.867C547.422 334.867 546.559 335.293 545.902 336.145C545.246 336.996 544.918 338.215 544.918 339.801ZM563.129 335.266C562.801 335.211 562.445 335.184 562.062 335.184C560.641 335.184 559.676 335.789 559.168 337V346H557V333.32H559.109L559.145 334.785C559.855 333.652 560.863 333.086 562.168 333.086C562.59 333.086 562.91 333.141 563.129 333.25V335.266ZM573.441 346H571.273V333.32H573.441V346ZM571.098 329.957C571.098 329.605 571.203 329.309 571.414 329.066C571.633 328.824 571.953 328.703 572.375 328.703C572.797 328.703 573.117 328.824 573.336 329.066C573.555 329.309 573.664 329.605 573.664 329.957C573.664 330.309 573.555 330.602 573.336 330.836C573.117 331.07 572.797 331.188 572.375 331.188C571.953 331.188 571.633 331.07 571.414 330.836C571.203 330.602 571.098 330.309 571.098 329.957ZM584.305 342.637C584.305 342.051 584.082 341.598 583.637 341.277C583.199 340.949 582.43 340.668 581.328 340.434C580.234 340.199 579.363 339.918 578.715 339.59C578.074 339.262 577.598 338.871 577.285 338.418C576.98 337.965 576.828 337.426 576.828 336.801C576.828 335.762 577.266 334.883 578.141 334.164C579.023 333.445 580.148 333.086 581.516 333.086C582.953 333.086 584.117 333.457 585.008 334.199C585.906 334.941 586.355 335.891 586.355 337.047H584.176C584.176 336.453 583.922 335.941 583.414 335.512C582.914 335.082 582.281 334.867 581.516 334.867C580.727 334.867 580.109 335.039 579.664 335.383C579.219 335.727 578.996 336.176 578.996 336.73C578.996 337.254 579.203 337.648 579.617 337.914C580.031 338.18 580.777 338.434 581.855 338.676C582.941 338.918 583.82 339.207 584.492 339.543C585.164 339.879 585.66 340.285 585.98 340.762C586.309 341.23 586.473 341.805 586.473 342.484C586.473 343.617 586.02 344.527 585.113 345.215C584.207 345.895 583.031 346.234 581.586 346.234C580.57 346.234 579.672 346.055 578.891 345.695C578.109 345.336 577.496 344.836 577.051 344.195C576.613 343.547 576.395 342.848 576.395 342.098H578.562C578.602 342.824 578.891 343.402 579.43 343.832C579.977 344.254 580.695 344.465 581.586 344.465C582.406 344.465 583.062 344.301 583.555 343.973C584.055 343.637 584.305 343.191 584.305 342.637ZM515.691 361.32L515.762 362.914C516.73 361.695 517.996 361.086 519.559 361.086C522.238 361.086 523.59 362.598 523.613 365.621V374H521.445V365.609C521.438 364.695 521.227 364.02 520.812 363.582C520.406 363.145 519.77 362.926 518.902 362.926C518.199 362.926 517.582 363.113 517.051 363.488C516.52 363.863 516.105 364.355 515.809 364.965V374H513.641V361.32H515.691ZM526.309 367.543C526.309 366.301 526.551 365.184 527.035 364.191C527.527 363.199 528.207 362.434 529.074 361.895C529.949 361.355 530.945 361.086 532.062 361.086C533.789 361.086 535.184 361.684 536.246 362.879C537.316 364.074 537.852 365.664 537.852 367.648V367.801C537.852 369.035 537.613 370.145 537.137 371.129C536.668 372.105 535.992 372.867 535.109 373.414C534.234 373.961 533.227 374.234 532.086 374.234C530.367 374.234 528.973 373.637 527.902 372.441C526.84 371.246 526.309 369.664 526.309 367.695V367.543ZM528.488 367.801C528.488 369.207 528.812 370.336 529.461 371.188C530.117 372.039 530.992 372.465 532.086 372.465C533.188 372.465 534.062 372.035 534.711 371.176C535.359 370.309 535.684 369.098 535.684 367.543C535.684 366.152 535.352 365.027 534.688 364.168C534.031 363.301 533.156 362.867 532.062 362.867C530.992 362.867 530.129 363.293 529.473 364.145C528.816 364.996 528.488 366.215 528.488 367.801ZM543.512 358.25V361.32H545.879V362.996H543.512V370.859C543.512 371.367 543.617 371.75 543.828 372.008C544.039 372.258 544.398 372.383 544.906 372.383C545.156 372.383 545.5 372.336 545.938 372.242V374C545.367 374.156 544.812 374.234 544.273 374.234C543.305 374.234 542.574 373.941 542.082 373.355C541.59 372.77 541.344 371.938 541.344 370.859V362.996H539.035V361.32H541.344V358.25H543.512ZM519.77 391.266C519.441 391.211 519.086 391.184 518.703 391.184C517.281 391.184 516.316 391.789 515.809 393V402H513.641V389.32H515.75L515.785 390.785C516.496 389.652 517.504 389.086 518.809 389.086C519.23 389.086 519.551 389.141 519.77 389.25V391.266ZM529.133 402C529.008 401.75 528.906 401.305 528.828 400.664C527.82 401.711 526.617 402.234 525.219 402.234C523.969 402.234 522.941 401.883 522.137 401.18C521.34 400.469 520.941 399.57 520.941 398.484C520.941 397.164 521.441 396.141 522.441 395.414C523.449 394.68 524.863 394.312 526.684 394.312H528.793V393.316C528.793 392.559 528.566 391.957 528.113 391.512C527.66 391.059 526.992 390.832 526.109 390.832C525.336 390.832 524.688 391.027 524.164 391.418C523.641 391.809 523.379 392.281 523.379 392.836H521.199C521.199 392.203 521.422 391.594 521.867 391.008C522.32 390.414 522.93 389.945 523.695 389.602C524.469 389.258 525.316 389.086 526.238 389.086C527.699 389.086 528.844 389.453 529.672 390.188C530.5 390.914 530.93 391.918 530.961 393.199V399.035C530.961 400.199 531.109 401.125 531.406 401.812V402H529.133ZM525.535 400.348C526.215 400.348 526.859 400.172 527.469 399.82C528.078 399.469 528.52 399.012 528.793 398.449V395.848H527.094C524.438 395.848 523.109 396.625 523.109 398.18C523.109 398.859 523.336 399.391 523.789 399.773C524.242 400.156 524.824 400.348 525.535 400.348ZM536.715 402H534.547V389.32H536.715V402ZM534.371 385.957C534.371 385.605 534.477 385.309 534.688 385.066C534.906 384.824 535.227 384.703 535.648 384.703C536.07 384.703 536.391 384.824 536.609 385.066C536.828 385.309 536.938 385.605 536.938 385.957C536.938 386.309 536.828 386.602 536.609 386.836C536.391 387.07 536.07 387.188 535.648 387.188C535.227 387.188 534.906 387.07 534.688 386.836C534.477 386.602 534.371 386.309 534.371 385.957ZM547.578 398.637C547.578 398.051 547.355 397.598 546.91 397.277C546.473 396.949 545.703 396.668 544.602 396.434C543.508 396.199 542.637 395.918 541.988 395.59C541.348 395.262 540.871 394.871 540.559 394.418C540.254 393.965 540.102 393.426 540.102 392.801C540.102 391.762 540.539 390.883 541.414 390.164C542.297 389.445 543.422 389.086 544.789 389.086C546.227 389.086 547.391 389.457 548.281 390.199C549.18 390.941 549.629 391.891 549.629 393.047H547.449C547.449 392.453 547.195 391.941 546.688 391.512C546.188 391.082 545.555 390.867 544.789 390.867C544 390.867 543.383 391.039 542.938 391.383C542.492 391.727 542.27 392.176 542.27 392.73C542.27 393.254 542.477 393.648 542.891 393.914C543.305 394.18 544.051 394.434 545.129 394.676C546.215 394.918 547.094 395.207 547.766 395.543C548.438 395.879 548.934 396.285 549.254 396.762C549.582 397.23 549.746 397.805 549.746 398.484C549.746 399.617 549.293 400.527 548.387 401.215C547.48 401.895 546.305 402.234 544.859 402.234C543.844 402.234 542.945 402.055 542.164 401.695C541.383 401.336 540.77 400.836 540.324 400.195C539.887 399.547 539.668 398.848 539.668 398.098H541.836C541.875 398.824 542.164 399.402 542.703 399.832C543.25 400.254 543.969 400.465 544.859 400.465C545.68 400.465 546.336 400.301 546.828 399.973C547.328 399.637 547.578 399.191 547.578 398.637ZM557.832 402.234C556.113 402.234 554.715 401.672 553.637 400.547C552.559 399.414 552.02 397.902 552.02 396.012V395.613C552.02 394.355 552.258 393.234 552.734 392.25C553.219 391.258 553.891 390.484 554.75 389.93C555.617 389.367 556.555 389.086 557.562 389.086C559.211 389.086 560.492 389.629 561.406 390.715C562.32 391.801 562.777 393.355 562.777 395.379V396.281H554.188C554.219 397.531 554.582 398.543 555.277 399.316C555.98 400.082 556.871 400.465 557.949 400.465C558.715 400.465 559.363 400.309 559.895 399.996C560.426 399.684 560.891 399.27 561.289 398.754L562.613 399.785C561.551 401.418 559.957 402.234 557.832 402.234ZM557.562 390.867C556.688 390.867 555.953 391.188 555.359 391.828C554.766 392.461 554.398 393.352 554.258 394.5H560.609V394.336C560.547 393.234 560.25 392.383 559.719 391.781C559.188 391.172 558.469 390.867 557.562 390.867ZM564.77 395.555C564.77 393.609 565.23 392.047 566.152 390.867C567.074 389.68 568.281 389.086 569.773 389.086C571.258 389.086 572.434 389.594 573.301 390.609V384H575.469V402H573.477L573.371 400.641C572.504 401.703 571.297 402.234 569.75 402.234C568.281 402.234 567.082 401.633 566.152 400.43C565.23 399.227 564.77 397.656 564.77 395.719V395.555ZM566.938 395.801C566.938 397.238 567.234 398.363 567.828 399.176C568.422 399.988 569.242 400.395 570.289 400.395C571.664 400.395 572.668 399.777 573.301 398.543V392.719C572.652 391.523 571.656 390.926 570.312 390.926C569.25 390.926 568.422 391.336 567.828 392.156C567.234 392.977 566.938 394.191 566.938 395.801Z" fill="#828282"/>
<path d="M782.121 198.121C783.293 196.95 783.293 195.05 782.121 193.879L763.029 174.787C761.858 173.615 759.958 173.615 758.787 174.787C757.615 175.958 757.615 177.858 758.787 179.029L775.757 196L758.787 212.971C757.615 214.142 757.615 216.042 758.787 217.213C759.958 218.385 761.858 218.385 763.029 217.213L782.121 198.121ZM594 199L780 199V193L594 193V199Z" fill="#219653"/>
<path d="M614.219 180.113H606.824V186.16H615.414V188H604.574V170.938H615.297V172.789H606.824V178.273H614.219V180.113ZM624.004 177.266C623.676 177.211 623.32 177.184 622.938 177.184C621.516 177.184 620.551 177.789 620.043 179V188H617.875V175.32H619.984L620.02 176.785C620.73 175.652 621.738 175.086 623.043 175.086C623.465 175.086 623.785 175.141 624.004 175.25V177.266ZM632.137 177.266C631.809 177.211 631.453 177.184 631.07 177.184C629.648 177.184 628.684 177.789 628.176 179V188H626.008V175.32H628.117L628.152 176.785C628.863 175.652 629.871 175.086 631.176 175.086C631.598 175.086 631.918 175.141 632.137 175.25V177.266ZM633.332 181.543C633.332 180.301 633.574 179.184 634.059 178.191C634.551 177.199 635.23 176.434 636.098 175.895C636.973 175.355 637.969 175.086 639.086 175.086C640.812 175.086 642.207 175.684 643.27 176.879C644.34 178.074 644.875 179.664 644.875 181.648V181.801C644.875 183.035 644.637 184.145 644.16 185.129C643.691 186.105 643.016 186.867 642.133 187.414C641.258 187.961 640.25 188.234 639.109 188.234C637.391 188.234 635.996 187.637 634.926 186.441C633.863 185.246 633.332 183.664 633.332 181.695V181.543ZM635.512 181.801C635.512 183.207 635.836 184.336 636.484 185.188C637.141 186.039 638.016 186.465 639.109 186.465C640.211 186.465 641.086 186.035 641.734 185.176C642.383 184.309 642.707 183.098 642.707 181.543C642.707 180.152 642.375 179.027 641.711 178.168C641.055 177.301 640.18 176.867 639.086 176.867C638.016 176.867 637.152 177.293 636.496 178.145C635.84 178.996 635.512 180.215 635.512 181.801ZM653.723 177.266C653.395 177.211 653.039 177.184 652.656 177.184C651.234 177.184 650.27 177.789 649.762 179V188H647.594V175.32H649.703L649.738 176.785C650.449 175.652 651.457 175.086 652.762 175.086C653.184 175.086 653.504 175.141 653.723 175.25V177.266ZM664.035 188H661.867V175.32H664.035V188ZM661.691 171.957C661.691 171.605 661.797 171.309 662.008 171.066C662.227 170.824 662.547 170.703 662.969 170.703C663.391 170.703 663.711 170.824 663.93 171.066C664.148 171.309 664.258 171.605 664.258 171.957C664.258 172.309 664.148 172.602 663.93 172.836C663.711 173.07 663.391 173.188 662.969 173.188C662.547 173.188 662.227 173.07 662.008 172.836C661.797 172.602 661.691 172.309 661.691 171.957ZM674.898 184.637C674.898 184.051 674.676 183.598 674.23 183.277C673.793 182.949 673.023 182.668 671.922 182.434C670.828 182.199 669.957 181.918 669.309 181.59C668.668 181.262 668.191 180.871 667.879 180.418C667.574 179.965 667.422 179.426 667.422 178.801C667.422 177.762 667.859 176.883 668.734 176.164C669.617 175.445 670.742 175.086 672.109 175.086C673.547 175.086 674.711 175.457 675.602 176.199C676.5 176.941 676.949 177.891 676.949 179.047H674.77C674.77 178.453 674.516 177.941 674.008 177.512C673.508 177.082 672.875 176.867 672.109 176.867C671.32 176.867 670.703 177.039 670.258 177.383C669.812 177.727 669.59 178.176 669.59 178.73C669.59 179.254 669.797 179.648 670.211 179.914C670.625 180.18 671.371 180.434 672.449 180.676C673.535 180.918 674.414 181.207 675.086 181.543C675.758 181.879 676.254 182.285 676.574 182.762C676.902 183.23 677.066 183.805 677.066 184.484C677.066 185.617 676.613 186.527 675.707 187.215C674.801 187.895 673.625 188.234 672.18 188.234C671.164 188.234 670.266 188.055 669.484 187.695C668.703 187.336 668.09 186.836 667.645 186.195C667.207 185.547 666.988 184.848 666.988 184.098H669.156C669.195 184.824 669.484 185.402 670.023 185.832C670.57 186.254 671.289 186.465 672.18 186.465C673 186.465 673.656 186.301 674.148 185.973C674.648 185.637 674.898 185.191 674.898 184.637ZM691.973 177.266C691.645 177.211 691.289 177.184 690.906 177.184C689.484 177.184 688.52 177.789 688.012 179V188H685.844V175.32H687.953L687.988 176.785C688.699 175.652 689.707 175.086 691.012 175.086C691.434 175.086 691.754 175.141 691.973 175.25V177.266ZM701.336 188C701.211 187.75 701.109 187.305 701.031 186.664C700.023 187.711 698.82 188.234 697.422 188.234C696.172 188.234 695.145 187.883 694.34 187.18C693.543 186.469 693.145 185.57 693.145 184.484C693.145 183.164 693.645 182.141 694.645 181.414C695.652 180.68 697.066 180.312 698.887 180.312H700.996V179.316C700.996 178.559 700.77 177.957 700.316 177.512C699.863 177.059 699.195 176.832 698.312 176.832C697.539 176.832 696.891 177.027 696.367 177.418C695.844 177.809 695.582 178.281 695.582 178.836H693.402C693.402 178.203 693.625 177.594 694.07 177.008C694.523 176.414 695.133 175.945 695.898 175.602C696.672 175.258 697.52 175.086 698.441 175.086C699.902 175.086 701.047 175.453 701.875 176.188C702.703 176.914 703.133 177.918 703.164 179.199V185.035C703.164 186.199 703.312 187.125 703.609 187.812V188H701.336ZM697.738 186.348C698.418 186.348 699.062 186.172 699.672 185.82C700.281 185.469 700.723 185.012 700.996 184.449V181.848H699.297C696.641 181.848 695.312 182.625 695.312 184.18C695.312 184.859 695.539 185.391 695.992 185.773C696.445 186.156 697.027 186.348 697.738 186.348ZM708.918 188H706.75V175.32H708.918V188ZM706.574 171.957C706.574 171.605 706.68 171.309 706.891 171.066C707.109 170.824 707.43 170.703 707.852 170.703C708.273 170.703 708.594 170.824 708.812 171.066C709.031 171.309 709.141 171.605 709.141 171.957C709.141 172.309 709.031 172.602 708.812 172.836C708.594 173.07 708.273 173.188 707.852 173.188C707.43 173.188 707.109 173.07 706.891 172.836C706.68 172.602 706.574 172.309 706.574 171.957ZM719.781 184.637C719.781 184.051 719.559 183.598 719.113 183.277C718.676 182.949 717.906 182.668 716.805 182.434C715.711 182.199 714.84 181.918 714.191 181.59C713.551 181.262 713.074 180.871 712.762 180.418C712.457 179.965 712.305 179.426 712.305 178.801C712.305 177.762 712.742 176.883 713.617 176.164C714.5 175.445 715.625 175.086 716.992 175.086C718.43 175.086 719.594 175.457 720.484 176.199C721.383 176.941 721.832 177.891 721.832 179.047H719.652C719.652 178.453 719.398 177.941 718.891 177.512C718.391 177.082 717.758 176.867 716.992 176.867C716.203 176.867 715.586 177.039 715.141 177.383C714.695 177.727 714.473 178.176 714.473 178.73C714.473 179.254 714.68 179.648 715.094 179.914C715.508 180.18 716.254 180.434 717.332 180.676C718.418 180.918 719.297 181.207 719.969 181.543C720.641 181.879 721.137 182.285 721.457 182.762C721.785 183.23 721.949 183.805 721.949 184.484C721.949 185.617 721.496 186.527 720.59 187.215C719.684 187.895 718.508 188.234 717.062 188.234C716.047 188.234 715.148 188.055 714.367 187.695C713.586 187.336 712.973 186.836 712.527 186.195C712.09 185.547 711.871 184.848 711.871 184.098H714.039C714.078 184.824 714.367 185.402 714.906 185.832C715.453 186.254 716.172 186.465 717.062 186.465C717.883 186.465 718.539 186.301 719.031 185.973C719.531 185.637 719.781 185.191 719.781 184.637ZM730.035 188.234C728.316 188.234 726.918 187.672 725.84 186.547C724.762 185.414 724.223 183.902 724.223 182.012V181.613C724.223 180.355 724.461 179.234 724.938 178.25C725.422 177.258 726.094 176.484 726.953 175.93C727.82 175.367 728.758 175.086 729.766 175.086C731.414 175.086 732.695 175.629 733.609 176.715C734.523 177.801 734.98 179.355 734.98 181.379V182.281H726.391C726.422 183.531 726.785 184.543 727.48 185.316C728.184 186.082 729.074 186.465 730.152 186.465C730.918 186.465 731.566 186.309 732.098 185.996C732.629 185.684 733.094 185.27 733.492 184.754L734.816 185.785C733.754 187.418 732.16 188.234 730.035 188.234ZM729.766 176.867C728.891 176.867 728.156 177.188 727.562 177.828C726.969 178.461 726.602 179.352 726.461 180.5H732.812V180.336C732.75 179.234 732.453 178.383 731.922 177.781C731.391 177.172 730.672 176.867 729.766 176.867ZM736.973 181.555C736.973 179.609 737.434 178.047 738.355 176.867C739.277 175.68 740.484 175.086 741.977 175.086C743.461 175.086 744.637 175.594 745.504 176.609V170H747.672V188H745.68L745.574 186.641C744.707 187.703 743.5 188.234 741.953 188.234C740.484 188.234 739.285 187.633 738.355 186.43C737.434 185.227 736.973 183.656 736.973 181.719V181.555ZM739.141 181.801C739.141 183.238 739.438 184.363 740.031 185.176C740.625 185.988 741.445 186.395 742.492 186.395C743.867 186.395 744.871 185.777 745.504 184.543V178.719C744.855 177.523 743.859 176.926 742.516 176.926C741.453 176.926 740.625 177.336 740.031 178.156C739.438 178.977 739.141 180.191 739.141 181.801Z" fill="#828282"/>
<path d="M246.074 45.0273H239.324V52H235.809V34.9375H246.918V37.7852H239.324V42.1914H246.074V45.0273ZM252.309 52H248.91V34H252.309V52ZM254.582 45.543C254.582 44.2852 254.824 43.1641 255.309 42.1797C255.793 41.1953 256.488 40.4336 257.395 39.8945C258.309 39.3555 259.367 39.0859 260.57 39.0859C262.281 39.0859 263.676 39.6094 264.754 40.6562C265.84 41.7031 266.445 43.125 266.57 44.9219L266.594 45.7891C266.594 47.7344 266.051 49.2969 264.965 50.4766C263.879 51.6484 262.422 52.2344 260.594 52.2344C258.766 52.2344 257.305 51.6484 256.211 50.4766C255.125 49.3047 254.582 47.7109 254.582 45.6953V45.543ZM257.969 45.7891C257.969 46.9922 258.195 47.9141 258.648 48.5547C259.102 49.1875 259.75 49.5039 260.594 49.5039C261.414 49.5039 262.055 49.1914 262.516 48.5664C262.977 47.9336 263.207 46.9258 263.207 45.543C263.207 44.3633 262.977 43.4492 262.516 42.8008C262.055 42.1523 261.406 41.8281 260.57 41.8281C259.742 41.8281 259.102 42.1523 258.648 42.8008C258.195 43.4414 257.969 44.4375 257.969 45.7891ZM279.707 47.3945L281.371 39.3203H284.641L281.406 52H278.57L276.168 44.0195L273.766 52H270.941L267.707 39.3203H270.977L272.629 47.3828L274.949 39.3203H277.398L279.707 47.3945ZM296.359 36.2031V39.3203H298.527V41.8047H296.359V48.1328C296.359 48.6016 296.449 48.9375 296.629 49.1406C296.809 49.3438 297.152 49.4453 297.66 49.4453C298.035 49.4453 298.367 49.418 298.656 49.3633V51.9297C297.992 52.1328 297.309 52.2344 296.605 52.2344C294.23 52.2344 293.02 51.0352 292.973 48.6367V41.8047H291.121V39.3203H292.973V36.2031H296.359ZM303.719 40.7031C304.617 39.625 305.746 39.0859 307.105 39.0859C309.855 39.0859 311.25 40.6836 311.289 43.8789V52H307.902V43.9727C307.902 43.2461 307.746 42.7109 307.434 42.3672C307.121 42.0156 306.602 41.8398 305.875 41.8398C304.883 41.8398 304.164 42.2227 303.719 42.9883V52H300.332V34H303.719V40.7031ZM320.969 42.4961C320.508 42.4336 320.102 42.4023 319.75 42.4023C318.469 42.4023 317.629 42.8359 317.23 43.7031V52H313.844V39.3203H317.043L317.137 40.832C317.816 39.668 318.758 39.0859 319.961 39.0859C320.336 39.0859 320.688 39.1367 321.016 39.2383L320.969 42.4961ZM321.66 45.543C321.66 44.2852 321.902 43.1641 322.387 42.1797C322.871 41.1953 323.566 40.4336 324.473 39.8945C325.387 39.3555 326.445 39.0859 327.648 39.0859C329.359 39.0859 330.754 39.6094 331.832 40.6562C332.918 41.7031 333.523 43.125 333.648 44.9219L333.672 45.7891C333.672 47.7344 333.129 49.2969 332.043 50.4766C330.957 51.6484 329.5 52.2344 327.672 52.2344C325.844 52.2344 324.383 51.6484 323.289 50.4766C322.203 49.3047 321.66 47.7109 321.66 45.6953V45.543ZM325.047 45.7891C325.047 46.9922 325.273 47.9141 325.727 48.5547C326.18 49.1875 326.828 49.5039 327.672 49.5039C328.492 49.5039 329.133 49.1914 329.594 48.5664C330.055 47.9336 330.285 46.9258 330.285 45.543C330.285 44.3633 330.055 43.4492 329.594 42.8008C329.133 42.1523 328.484 41.8281 327.648 41.8281C326.82 41.8281 326.18 42.1523 325.727 42.8008C325.273 43.4414 325.047 44.4375 325.047 45.7891ZM343.352 50.7109C342.516 51.7266 341.359 52.2344 339.883 52.2344C338.523 52.2344 337.484 51.8438 336.766 51.0625C336.055 50.2812 335.691 49.1367 335.676 47.6289V39.3203H339.062V47.5117C339.062 48.832 339.664 49.4922 340.867 49.4922C342.016 49.4922 342.805 49.0938 343.234 48.2969V39.3203H346.633V52H343.445L343.352 50.7109ZM348.695 45.5664C348.695 43.6211 349.156 42.0547 350.078 40.8672C351.008 39.6797 352.258 39.0859 353.828 39.0859C355.219 39.0859 356.301 39.5625 357.074 40.5156L357.215 39.3203H360.285V51.5781C360.285 52.6875 360.031 53.6523 359.523 54.4727C359.023 55.293 358.316 55.918 357.402 56.3477C356.488 56.7773 355.418 56.9922 354.191 56.9922C353.262 56.9922 352.355 56.8047 351.473 56.4297C350.59 56.0625 349.922 55.5859 349.469 55L350.969 52.9375C351.812 53.8828 352.836 54.3555 354.039 54.3555C354.938 54.3555 355.637 54.1133 356.137 53.6289C356.637 53.1523 356.887 52.4727 356.887 51.5898V50.9102C356.105 51.793 355.078 52.2344 353.805 52.2344C352.281 52.2344 351.047 51.6406 350.102 50.4531C349.164 49.2578 348.695 47.6758 348.695 45.707V45.5664ZM352.082 45.8125C352.082 46.9609 352.312 47.8633 352.773 48.5195C353.234 49.168 353.867 49.4922 354.672 49.4922C355.703 49.4922 356.441 49.1055 356.887 48.332V43C356.434 42.2266 355.703 41.8398 354.695 41.8398C353.883 41.8398 353.242 42.1719 352.773 42.8359C352.312 43.5 352.082 44.4922 352.082 45.8125ZM366.203 40.7031C367.102 39.625 368.23 39.0859 369.59 39.0859C372.34 39.0859 373.734 40.6836 373.773 43.8789V52H370.387V43.9727C370.387 43.2461 370.23 42.7109 369.918 42.3672C369.605 42.0156 369.086 41.8398 368.359 41.8398C367.367 41.8398 366.648 42.2227 366.203 42.9883V52H362.816V34H366.203V40.7031ZM386.359 36.2031V39.3203H388.527V41.8047H386.359V48.1328C386.359 48.6016 386.449 48.9375 386.629 49.1406C386.809 49.3438 387.152 49.4453 387.66 49.4453C388.035 49.4453 388.367 49.418 388.656 49.3633V51.9297C387.992 52.1328 387.309 52.2344 386.605 52.2344C384.23 52.2344 383.02 51.0352 382.973 48.6367V41.8047H381.121V39.3203H382.973V36.2031H386.359ZM393.719 40.7031C394.617 39.625 395.746 39.0859 397.105 39.0859C399.855 39.0859 401.25 40.6836 401.289 43.8789V52H397.902V43.9727C397.902 43.2461 397.746 42.7109 397.434 42.3672C397.121 42.0156 396.602 41.8398 395.875 41.8398C394.883 41.8398 394.164 42.2227 393.719 42.9883V52H390.332V34H393.719V40.7031ZM409.68 52.2344C407.82 52.2344 406.305 51.6641 405.133 50.5234C403.969 49.3828 403.387 47.8633 403.387 45.9648V45.6367C403.387 44.3633 403.633 43.2266 404.125 42.2266C404.617 41.2188 405.312 40.4453 406.211 39.9062C407.117 39.3594 408.148 39.0859 409.305 39.0859C411.039 39.0859 412.402 39.6328 413.395 40.7266C414.395 41.8203 414.895 43.3711 414.895 45.3789V46.7617H406.82C406.93 47.5898 407.258 48.2539 407.805 48.7539C408.359 49.2539 409.059 49.5039 409.902 49.5039C411.207 49.5039 412.227 49.0312 412.961 48.0859L414.625 49.9492C414.117 50.668 413.43 51.2305 412.562 51.6367C411.695 52.0352 410.734 52.2344 409.68 52.2344ZM409.293 41.8281C408.621 41.8281 408.074 42.0547 407.652 42.5078C407.238 42.9609 406.973 43.6094 406.855 44.4531H411.566V44.1836C411.551 43.4336 411.348 42.8555 410.957 42.4492C410.566 42.0352 410.012 41.8281 409.293 41.8281ZM434.23 45.7773C434.23 47.8086 433.797 49.3945 432.93 50.5352C432.062 51.668 430.852 52.2344 429.297 52.2344C427.922 52.2344 426.824 51.707 426.004 50.6523L425.852 52H422.805V34H426.191V40.457C426.973 39.543 428 39.0859 429.273 39.0859C430.82 39.0859 432.031 39.6562 432.906 40.7969C433.789 41.9297 434.23 43.5273 434.23 45.5898V45.7773ZM430.844 45.5312C430.844 44.25 430.641 43.3164 430.234 42.7305C429.828 42.1367 429.223 41.8398 428.418 41.8398C427.34 41.8398 426.598 42.2812 426.191 43.1641V48.168C426.605 49.0586 427.355 49.5039 428.441 49.5039C429.535 49.5039 430.254 48.9648 430.598 47.8867C430.762 47.3711 430.844 46.5859 430.844 45.5312ZM439.902 52H436.504V34H439.902V52ZM442.176 45.543C442.176 44.2852 442.418 43.1641 442.902 42.1797C443.387 41.1953 444.082 40.4336 444.988 39.8945C445.902 39.3555 446.961 39.0859 448.164 39.0859C449.875 39.0859 451.27 39.6094 452.348 40.6562C453.434 41.7031 454.039 43.125 454.164 44.9219L454.188 45.7891C454.188 47.7344 453.645 49.2969 452.559 50.4766C451.473 51.6484 450.016 52.2344 448.188 52.2344C446.359 52.2344 444.898 51.6484 443.805 50.4766C442.719 49.3047 442.176 47.7109 442.176 45.6953V45.543ZM445.562 45.7891C445.562 46.9922 445.789 47.9141 446.242 48.5547C446.695 49.1875 447.344 49.5039 448.188 49.5039C449.008 49.5039 449.648 49.1914 450.109 48.5664C450.57 47.9336 450.801 46.9258 450.801 45.543C450.801 44.3633 450.57 43.4492 450.109 42.8008C449.648 42.1523 449 41.8281 448.164 41.8281C447.336 41.8281 446.695 42.1523 446.242 42.8008C445.789 43.4414 445.562 44.4375 445.562 45.7891ZM461.547 49.5039C462.172 49.5039 462.68 49.332 463.07 48.9883C463.461 48.6445 463.664 48.1875 463.68 47.6172H466.855C466.848 48.4766 466.613 49.2656 466.152 49.9844C465.691 50.6953 465.059 51.25 464.254 51.6484C463.457 52.0391 462.574 52.2344 461.605 52.2344C459.793 52.2344 458.363 51.6602 457.316 50.5117C456.27 49.3555 455.746 47.7617 455.746 45.7305V45.5078C455.746 43.5547 456.266 41.9961 457.305 40.832C458.344 39.668 459.77 39.0859 461.582 39.0859C463.168 39.0859 464.438 39.5391 465.391 40.4453C466.352 41.3438 466.84 42.543 466.855 44.043H463.68C463.664 43.3867 463.461 42.8555 463.07 42.4492C462.68 42.0352 462.164 41.8281 461.523 41.8281C460.734 41.8281 460.137 42.1172 459.73 42.6953C459.332 43.2656 459.133 44.1953 459.133 45.4844V45.8359C459.133 47.1406 459.332 48.0781 459.73 48.6484C460.129 49.2188 460.734 49.5039 461.547 49.5039ZM473.395 46.9141L472.176 48.1328V52H468.789V34H472.176V43.9727L472.832 43.1289L476.078 39.3203H480.145L475.562 44.6055L480.543 52H476.652L473.395 46.9141ZM498.613 47.3945L500.277 39.3203H503.547L500.312 52H497.477L495.074 44.0195L492.672 52H489.848L486.613 39.3203H489.883L491.535 47.3828L493.855 39.3203H496.305L498.613 47.3945ZM508.539 40.7031C509.438 39.625 510.566 39.0859 511.926 39.0859C514.676 39.0859 516.07 40.6836 516.109 43.8789V52H512.723V43.9727C512.723 43.2461 512.566 42.7109 512.254 42.3672C511.941 42.0156 511.422 41.8398 510.695 41.8398C509.703 41.8398 508.984 42.2227 508.539 42.9883V52H505.152V34H508.539V40.7031ZM524.5 52.2344C522.641 52.2344 521.125 51.6641 519.953 50.5234C518.789 49.3828 518.207 47.8633 518.207 45.9648V45.6367C518.207 44.3633 518.453 43.2266 518.945 42.2266C519.438 41.2188 520.133 40.4453 521.031 39.9062C521.938 39.3594 522.969 39.0859 524.125 39.0859C525.859 39.0859 527.223 39.6328 528.215 40.7266C529.215 41.8203 529.715 43.3711 529.715 45.3789V46.7617H521.641C521.75 47.5898 522.078 48.2539 522.625 48.7539C523.18 49.2539 523.879 49.5039 524.723 49.5039C526.027 49.5039 527.047 49.0312 527.781 48.0859L529.445 49.9492C528.938 50.668 528.25 51.2305 527.383 51.6367C526.516 52.0352 525.555 52.2344 524.5 52.2344ZM524.113 41.8281C523.441 41.8281 522.895 42.0547 522.473 42.5078C522.059 42.9609 521.793 43.6094 521.676 44.4531H526.387V44.1836C526.371 43.4336 526.168 42.8555 525.777 42.4492C525.387 42.0352 524.832 41.8281 524.113 41.8281ZM534.766 39.3203L534.871 40.7852C535.777 39.6523 536.992 39.0859 538.516 39.0859C539.859 39.0859 540.859 39.4805 541.516 40.2695C542.172 41.0586 542.508 42.2383 542.523 43.8086V52H539.137V43.8906C539.137 43.1719 538.98 42.6523 538.668 42.332C538.355 42.0039 537.836 41.8398 537.109 41.8398C536.156 41.8398 535.441 42.2461 534.965 43.0586V52H531.578V39.3203H534.766ZM553.953 42.856H550.953V40.24L554.121 40.096L554.577 36.928H557.481V40.096H562.521V42.856H557.481V47.032C557.481 47.944 557.681 48.592 558.081 48.976C558.481 49.344 559.113 49.528 559.977 49.528C560.441 49.528 560.865 49.488 561.249 49.408C561.633 49.328 562.001 49.224 562.353 49.096L562.977 51.64C562.449 51.8 561.857 51.944 561.201 52.072C560.561 52.216 559.857 52.288 559.089 52.288C558.145 52.288 557.345 52.16 556.689 51.904C556.033 51.648 555.497 51.296 555.081 50.848C554.681 50.384 554.393 49.832 554.217 49.192C554.041 48.552 553.953 47.84 553.953 47.056V42.856ZM565.896 35.176H569.424V39.304L569.232 41.584C569.472 41.36 569.728 41.144 570 40.936C570.288 40.712 570.592 40.52 570.912 40.36C571.248 40.184 571.608 40.048 571.992 39.952C572.392 39.856 572.816 39.808 573.264 39.808C574.608 39.808 575.584 40.24 576.192 41.104C576.816 41.968 577.128 43.152 577.128 44.656V52H573.6V45.112C573.6 44.312 573.472 43.728 573.216 43.36C572.96 42.992 572.504 42.808 571.848 42.808C571.368 42.808 570.944 42.912 570.576 43.12C570.224 43.328 569.84 43.64 569.424 44.056V52H565.896V35.176ZM580.455 40.096H588.759V52H585.231V42.856H580.455V40.096ZM586.839 38.344C586.151 38.344 585.583 38.152 585.135 37.768C584.703 37.384 584.487 36.864 584.487 36.208C584.487 35.552 584.703 35.024 585.135 34.624C585.583 34.208 586.151 34 586.839 34C587.527 34 588.087 34.208 588.519 34.624C588.967 35.024 589.191 35.552 589.191 36.208C589.191 36.864 588.967 37.384 588.519 37.768C588.087 38.152 587.527 38.344 586.839 38.344ZM595.805 48.256C596.493 48.688 597.181 49.032 597.869 49.288C598.573 49.544 599.325 49.672 600.125 49.672C600.941 49.672 601.525 49.584 601.877 49.408C602.229 49.232 602.405 48.984 602.405 48.664C602.405 48.296 602.109 48 601.517 47.776C600.941 47.536 600.173 47.28 599.213 47.008C598.685 46.864 598.165 46.696 597.653 46.504C597.157 46.296 596.709 46.056 596.309 45.784C595.909 45.496 595.581 45.168 595.325 44.8C595.085 44.432 594.965 44.008 594.965 43.528C594.965 42.984 595.093 42.48 595.349 42.016C595.605 41.552 595.965 41.16 596.429 40.84C596.909 40.52 597.485 40.272 598.157 40.096C598.845 39.904 599.613 39.808 600.461 39.808C601.517 39.808 602.477 39.984 603.341 40.336C604.221 40.672 604.973 41.04 605.597 41.44L604.013 43.552C603.469 43.232 602.909 42.968 602.333 42.76C601.757 42.536 601.157 42.424 600.533 42.424C599.781 42.424 599.245 42.504 598.925 42.664C598.621 42.824 598.469 43.056 598.469 43.36C598.469 43.536 598.549 43.696 598.709 43.84C598.869 43.984 599.085 44.112 599.357 44.224C599.629 44.336 599.949 44.448 600.317 44.56C600.701 44.656 601.101 44.76 601.517 44.872C602.109 45.032 602.669 45.216 603.197 45.424C603.725 45.616 604.189 45.848 604.589 46.12C604.989 46.392 605.309 46.72 605.549 47.104C605.789 47.488 605.909 47.936 605.909 48.448C605.909 48.992 605.781 49.496 605.525 49.96C605.269 50.424 604.893 50.832 604.397 51.184C603.917 51.52 603.309 51.792 602.573 52C601.853 52.192 601.013 52.288 600.053 52.288C598.981 52.288 597.933 52.112 596.909 51.76C595.885 51.408 594.989 50.976 594.221 50.464L595.805 48.256ZM620.3 53.296V55.936H608.78V53.296H620.3ZM635.098 38.128C634.314 37.824 633.482 37.672 632.602 37.672C631.834 37.672 631.266 37.84 630.898 38.176C630.546 38.512 630.37 39.04 630.37 39.76V40.096H634.474V42.856H630.37V52H626.842V42.856H623.698V40.24L626.842 40.096V39.784C626.842 39.096 626.946 38.456 627.154 37.864C627.362 37.272 627.682 36.76 628.114 36.328C628.546 35.88 629.098 35.528 629.77 35.272C630.442 35.016 631.242 34.888 632.17 34.888C632.858 34.888 633.498 34.952 634.09 35.08C634.698 35.208 635.258 35.36 635.77 35.536L635.098 38.128ZM648.721 52H645.841L645.577 50.296H645.481C644.953 50.904 644.369 51.392 643.729 51.76C643.089 52.112 642.337 52.288 641.473 52.288C640.113 52.288 639.129 51.856 638.521 50.992C637.913 50.128 637.609 48.944 637.609 47.44V40.096H641.137V46.984C641.137 47.784 641.257 48.368 641.497 48.736C641.737 49.104 642.193 49.288 642.865 49.288C643.313 49.288 643.705 49.192 644.041 49C644.393 48.808 644.777 48.448 645.193 47.92V40.096H648.721V52ZM652.24 40.096H655.12L655.384 41.68H655.48C655.992 41.168 656.576 40.728 657.232 40.36C657.904 39.992 658.688 39.808 659.584 39.808C660.928 39.808 661.912 40.24 662.536 41.104C663.16 41.968 663.472 43.152 663.472 44.656V52H659.944V45.112C659.944 44.312 659.816 43.728 659.56 43.36C659.304 42.992 658.848 42.808 658.192 42.808C657.712 42.808 657.288 42.912 656.92 43.12C656.568 43.328 656.184 43.64 655.768 44.056V52H652.24V40.096ZM666.51 46.048C666.51 45.056 666.694 44.176 667.062 43.408C667.446 42.624 667.95 41.968 668.574 41.44C669.214 40.912 669.95 40.512 670.782 40.24C671.614 39.952 672.486 39.808 673.398 39.808C674.342 39.808 675.19 39.96 675.942 40.264C676.71 40.568 677.35 40.952 677.862 41.416L676.23 43.6C675.35 42.976 674.47 42.664 673.59 42.664C672.566 42.664 671.734 42.968 671.094 43.576C670.454 44.184 670.134 45.008 670.134 46.048C670.134 47.088 670.438 47.912 671.046 48.52C671.67 49.128 672.478 49.432 673.47 49.432C674.094 49.432 674.67 49.32 675.198 49.096C675.726 48.872 676.198 48.608 676.614 48.304L678.054 50.536C677.334 51.144 676.534 51.592 675.654 51.88C674.79 52.152 673.95 52.288 673.134 52.288C672.19 52.288 671.318 52.152 670.518 51.88C669.718 51.592 669.014 51.184 668.406 50.656C667.814 50.128 667.35 49.48 667.014 48.712C666.678 47.928 666.51 47.04 666.51 46.048ZM683.469 42.856H680.469V40.24L683.637 40.096L684.093 36.928H686.997V40.096H692.037V42.856H686.997V47.032C686.997 47.944 687.197 48.592 687.597 48.976C687.997 49.344 688.629 49.528 689.493 49.528C689.957 49.528 690.381 49.488 690.765 49.408C691.149 49.328 691.517 49.224 691.869 49.096L692.493 51.64C691.965 51.8 691.373 51.944 690.717 52.072C690.077 52.216 689.373 52.288 688.605 52.288C687.661 52.288 686.861 52.16 686.205 51.904C685.549 51.648 685.013 51.296 684.597 50.848C684.197 50.384 683.909 49.832 683.733 49.192C683.557 48.552 683.469 47.84 683.469 47.056V42.856ZM695.58 40.096H703.884V52H700.356V42.856H695.58V40.096ZM701.964 38.344C701.276 38.344 700.708 38.152 700.26 37.768C699.828 37.384 699.612 36.864 699.612 36.208C699.612 35.552 699.828 35.024 700.26 34.624C700.708 34.208 701.276 34 701.964 34C702.652 34 703.212 34.208 703.644 34.624C704.092 35.024 704.316 35.552 704.316 36.208C704.316 36.864 704.092 37.384 703.644 37.768C703.212 38.152 702.652 38.344 701.964 38.344ZM709.202 46.048C709.202 45.056 709.37 44.176 709.706 43.408C710.042 42.624 710.49 41.968 711.05 41.44C711.626 40.912 712.274 40.512 712.994 40.24C713.73 39.952 714.49 39.808 715.274 39.808C716.058 39.808 716.81 39.952 717.53 40.24C718.266 40.512 718.914 40.912 719.474 41.44C720.05 41.968 720.506 42.624 720.842 43.408C721.178 44.176 721.346 45.056 721.346 46.048C721.346 47.04 721.178 47.928 720.842 48.712C720.506 49.48 720.05 50.128 719.474 50.656C718.914 51.184 718.266 51.592 717.53 51.88C716.81 52.152 716.058 52.288 715.274 52.288C714.49 52.288 713.73 52.152 712.994 51.88C712.274 51.592 711.626 51.184 711.05 50.656C710.49 50.128 710.042 49.48 709.706 48.712C709.37 47.928 709.202 47.04 709.202 46.048ZM712.826 46.048C712.826 47.088 713.026 47.912 713.426 48.52C713.842 49.128 714.458 49.432 715.274 49.432C716.09 49.432 716.698 49.128 717.098 48.52C717.514 47.912 717.722 47.088 717.722 46.048C717.722 45.008 717.514 44.184 717.098 43.576C716.698 42.968 716.09 42.664 715.274 42.664C714.458 42.664 713.842 42.968 713.426 43.576C713.026 44.184 712.826 45.008 712.826 46.048ZM724.193 40.096H727.073L727.337 41.68H727.433C727.945 41.168 728.529 40.728 729.185 40.36C729.857 39.992 730.641 39.808 731.537 39.808C732.881 39.808 733.865 40.24 734.489 41.104C735.113 41.968 735.425 43.152 735.425 44.656V52H731.897V45.112C731.897 44.312 731.769 43.728 731.513 43.36C731.257 42.992 730.801 42.808 730.145 42.808C729.665 42.808 729.241 42.912 728.873 43.12C728.521 43.328 728.137 43.64 727.721 44.056V52H724.193V40.096ZM746.263 56.296C744.695 54.904 743.455 53.296 742.543 51.472C741.647 49.648 741.199 47.6 741.199 45.328C741.199 43.056 741.647 41.008 742.543 39.184C743.455 37.36 744.695 35.752 746.263 34.36L748.231 35.92C746.807 37.312 745.767 38.76 745.111 40.264C744.471 41.752 744.151 43.44 744.151 45.328C744.151 46.272 744.231 47.168 744.391 48.016C744.551 48.848 744.791 49.648 745.111 50.416C745.447 51.184 745.871 51.92 746.383 52.624C746.895 53.344 747.511 54.048 748.231 54.736L746.263 56.296ZM754.27 54.736C754.99 54.048 755.606 53.344 756.118 52.624C756.63 51.92 757.046 51.184 757.366 50.416C757.702 49.648 757.95 48.848 758.11 48.016C758.27 47.168 758.35 46.272 758.35 45.328C758.35 43.44 758.022 41.752 757.366 40.264C756.726 38.76 755.694 37.312 754.27 35.92L756.238 34.36C757.806 35.752 759.038 37.36 759.934 39.184C760.846 41.008 761.302 43.056 761.302 45.328C761.302 47.6 760.846 49.648 759.934 51.472C759.038 53.296 757.806 54.904 756.238 56.296L754.27 54.736ZM772.387 45.5664C772.387 43.5898 772.828 42.0156 773.711 40.8438C774.602 39.6719 775.816 39.0859 777.355 39.0859C778.59 39.0859 779.609 39.5469 780.414 40.4688V34H783.812V52H780.754L780.59 50.6523C779.746 51.707 778.66 52.2344 777.332 52.2344C775.84 52.2344 774.641 51.6484 773.734 50.4766C772.836 49.2969 772.387 47.6602 772.387 45.5664ZM775.773 45.8125C775.773 47 775.98 47.9102 776.395 48.543C776.809 49.1758 777.41 49.4922 778.199 49.4922C779.246 49.4922 779.984 49.0508 780.414 48.168V43.1641C779.992 42.2812 779.262 41.8398 778.223 41.8398C776.59 41.8398 775.773 43.1641 775.773 45.8125ZM785.91 45.543C785.91 44.2852 786.152 43.1641 786.637 42.1797C787.121 41.1953 787.816 40.4336 788.723 39.8945C789.637 39.3555 790.695 39.0859 791.898 39.0859C793.609 39.0859 795.004 39.6094 796.082 40.6562C797.168 41.7031 797.773 43.125 797.898 44.9219L797.922 45.7891C797.922 47.7344 797.379 49.2969 796.293 50.4766C795.207 51.6484 793.75 52.2344 791.922 52.2344C790.094 52.2344 788.633 51.6484 787.539 50.4766C786.453 49.3047 785.91 47.7109 785.91 45.6953V45.543ZM789.297 45.7891C789.297 46.9922 789.523 47.9141 789.977 48.5547C790.43 49.1875 791.078 49.5039 791.922 49.5039C792.742 49.5039 793.383 49.1914 793.844 48.5664C794.305 47.9336 794.535 46.9258 794.535 45.543C794.535 44.3633 794.305 43.4492 793.844 42.8008C793.383 42.1523 792.734 41.8281 791.898 41.8281C791.07 41.8281 790.43 42.1523 789.977 42.8008C789.523 43.4414 789.297 44.4375 789.297 45.7891ZM805.844 52.2344C803.984 52.2344 802.469 51.6641 801.297 50.5234C800.133 49.3828 799.551 47.8633 799.551 45.9648V45.6367C799.551 44.3633 799.797 43.2266 800.289 42.2266C800.781 41.2188 801.477 40.4453 802.375 39.9062C803.281 39.3594 804.312 39.0859 805.469 39.0859C807.203 39.0859 808.566 39.6328 809.559 40.7266C810.559 41.8203 811.059 43.3711 811.059 45.3789V46.7617H802.984C803.094 47.5898 803.422 48.2539 803.969 48.7539C804.523 49.2539 805.223 49.5039 806.066 49.5039C807.371 49.5039 808.391 49.0312 809.125 48.0859L810.789 49.9492C810.281 50.668 809.594 51.2305 808.727 51.6367C807.859 52.0352 806.898 52.2344 805.844 52.2344ZM805.457 41.8281C804.785 41.8281 804.238 42.0547 803.816 42.5078C803.402 42.9609 803.137 43.6094 803.02 44.4531H807.73V44.1836C807.715 43.4336 807.512 42.8555 807.121 42.4492C806.73 42.0352 806.176 41.8281 805.457 41.8281ZM819.859 48.4961C819.859 48.082 819.652 47.7578 819.238 47.5234C818.832 47.2812 818.176 47.0664 817.27 46.8789C814.254 46.2461 812.746 44.9648 812.746 43.0352C812.746 41.9102 813.211 40.9727 814.141 40.2227C815.078 39.4648 816.301 39.0859 817.809 39.0859C819.418 39.0859 820.703 39.4648 821.664 40.2227C822.633 40.9805 823.117 41.9648 823.117 43.1758H819.73C819.73 42.6914 819.574 42.293 819.262 41.9805C818.949 41.6602 818.461 41.5 817.797 41.5C817.227 41.5 816.785 41.6289 816.473 41.8867C816.16 42.1445 816.004 42.4727 816.004 42.8711C816.004 43.2461 816.18 43.5508 816.531 43.7852C816.891 44.0117 817.492 44.2109 818.336 44.3828C819.18 44.5469 819.891 44.7344 820.469 44.9453C822.258 45.6016 823.152 46.7383 823.152 48.3555C823.152 49.5117 822.656 50.4492 821.664 51.168C820.672 51.8789 819.391 52.2344 817.82 52.2344C816.758 52.2344 815.812 52.0469 814.984 51.6719C814.164 51.2891 813.52 50.7695 813.051 50.1133C812.582 49.4492 812.348 48.7344 812.348 47.9688H815.559C815.59 48.5703 815.812 49.0312 816.227 49.3516C816.641 49.6719 817.195 49.832 817.891 49.832C818.539 49.832 819.027 49.7109 819.355 49.4688C819.691 49.2188 819.859 48.8945 819.859 48.4961ZM838.445 42.4961C837.984 42.4336 837.578 42.4023 837.227 42.4023C835.945 42.4023 835.105 42.8359 834.707 43.7031V52H831.32V39.3203H834.52L834.613 40.832C835.293 39.668 836.234 39.0859 837.438 39.0859C837.812 39.0859 838.164 39.1367 838.492 39.2383L838.445 42.4961ZM847.082 52C846.926 51.6953 846.812 51.3164 846.742 50.8633C845.922 51.7773 844.855 52.2344 843.543 52.2344C842.301 52.2344 841.27 51.875 840.449 51.1562C839.637 50.4375 839.23 49.5312 839.23 48.4375C839.23 47.0938 839.727 46.0625 840.719 45.3438C841.719 44.625 843.16 44.2617 845.043 44.2539H846.602V43.5273C846.602 42.9414 846.449 42.4727 846.145 42.1211C845.848 41.7695 845.375 41.5938 844.727 41.5938C844.156 41.5938 843.707 41.7305 843.379 42.0039C843.059 42.2773 842.898 42.6523 842.898 43.1289H839.512C839.512 42.3945 839.738 41.7148 840.191 41.0898C840.645 40.4648 841.285 39.9766 842.113 39.625C842.941 39.2656 843.871 39.0859 844.902 39.0859C846.465 39.0859 847.703 39.4805 848.617 40.2695C849.539 41.0508 850 42.1523 850 43.5742V49.0703C850.008 50.2734 850.176 51.1836 850.504 51.8008V52H847.082ZM844.281 49.6445C844.781 49.6445 845.242 49.5352 845.664 49.3164C846.086 49.0898 846.398 48.7891 846.602 48.4141V46.2344H845.336C843.641 46.2344 842.738 46.8203 842.629 47.9922L842.617 48.1914C842.617 48.6133 842.766 48.9609 843.062 49.2344C843.359 49.5078 843.766 49.6445 844.281 49.6445ZM856.176 52H852.777V39.3203H856.176V52ZM852.578 36.0391C852.578 35.5312 852.746 35.1133 853.082 34.7852C853.426 34.457 853.891 34.293 854.477 34.293C855.055 34.293 855.516 34.457 855.859 34.7852C856.203 35.1133 856.375 35.5312 856.375 36.0391C856.375 36.5547 856.199 36.9766 855.848 37.3047C855.504 37.6328 855.047 37.7969 854.477 37.7969C853.906 37.7969 853.445 37.6328 853.094 37.3047C852.75 36.9766 852.578 36.5547 852.578 36.0391ZM865.844 48.4961C865.844 48.082 865.637 47.7578 865.223 47.5234C864.816 47.2812 864.16 47.0664 863.254 46.8789C860.238 46.2461 858.73 44.9648 858.73 43.0352C858.73 41.9102 859.195 40.9727 860.125 40.2227C861.062 39.4648 862.285 39.0859 863.793 39.0859C865.402 39.0859 866.688 39.4648 867.648 40.2227C868.617 40.9805 869.102 41.9648 869.102 43.1758H865.715C865.715 42.6914 865.559 42.293 865.246 41.9805C864.934 41.6602 864.445 41.5 863.781 41.5C863.211 41.5 862.77 41.6289 862.457 41.8867C862.145 42.1445 861.988 42.4727 861.988 42.8711C861.988 43.2461 862.164 43.5508 862.516 43.7852C862.875 44.0117 863.477 44.2109 864.32 44.3828C865.164 44.5469 865.875 44.7344 866.453 44.9453C868.242 45.6016 869.137 46.7383 869.137 48.3555C869.137 49.5117 868.641 50.4492 867.648 51.168C866.656 51.8789 865.375 52.2344 863.805 52.2344C862.742 52.2344 861.797 52.0469 860.969 51.6719C860.148 51.2891 859.504 50.7695 859.035 50.1133C858.566 49.4492 858.332 48.7344 858.332 47.9688H861.543C861.574 48.5703 861.797 49.0312 862.211 49.3516C862.625 49.6719 863.18 49.832 863.875 49.832C864.523 49.832 865.012 49.7109 865.34 49.4688C865.676 49.2188 865.844 48.8945 865.844 48.4961ZM877.164 52.2344C875.305 52.2344 873.789 51.6641 872.617 50.5234C871.453 49.3828 870.871 47.8633 870.871 45.9648V45.6367C870.871 44.3633 871.117 43.2266 871.609 42.2266C872.102 41.2188 872.797 40.4453 873.695 39.9062C874.602 39.3594 875.633 39.0859 876.789 39.0859C878.523 39.0859 879.887 39.6328 880.879 40.7266C881.879 41.8203 882.379 43.3711 882.379 45.3789V46.7617H874.305C874.414 47.5898 874.742 48.2539 875.289 48.7539C875.844 49.2539 876.543 49.5039 877.387 49.5039C878.691 49.5039 879.711 49.0312 880.445 48.0859L882.109 49.9492C881.602 50.668 880.914 51.2305 880.047 51.6367C879.18 52.0352 878.219 52.2344 877.164 52.2344ZM876.777 41.8281C876.105 41.8281 875.559 42.0547 875.137 42.5078C874.723 42.9609 874.457 43.6094 874.34 44.4531H879.051V44.1836C879.035 43.4336 878.832 42.8555 878.441 42.4492C878.051 42.0352 877.496 41.8281 876.777 41.8281ZM897.637 52C897.48 51.6953 897.367 51.3164 897.297 50.8633C896.477 51.7773 895.41 52.2344 894.098 52.2344C892.855 52.2344 891.824 51.875 891.004 51.1562C890.191 50.4375 889.785 49.5312 889.785 48.4375C889.785 47.0938 890.281 46.0625 891.273 45.3438C892.273 44.625 893.715 44.2617 895.598 44.2539H897.156V43.5273C897.156 42.9414 897.004 42.4727 896.699 42.1211C896.402 41.7695 895.93 41.5938 895.281 41.5938C894.711 41.5938 894.262 41.7305 893.934 42.0039C893.613 42.2773 893.453 42.6523 893.453 43.1289H890.066C890.066 42.3945 890.293 41.7148 890.746 41.0898C891.199 40.4648 891.84 39.9766 892.668 39.625C893.496 39.2656 894.426 39.0859 895.457 39.0859C897.02 39.0859 898.258 39.4805 899.172 40.2695C900.094 41.0508 900.555 42.1523 900.555 43.5742V49.0703C900.562 50.2734 900.73 51.1836 901.059 51.8008V52H897.637ZM894.836 49.6445C895.336 49.6445 895.797 49.5352 896.219 49.3164C896.641 49.0898 896.953 48.7891 897.156 48.4141V46.2344H895.891C894.195 46.2344 893.293 46.8203 893.184 47.9922L893.172 48.1914C893.172 48.6133 893.32 48.9609 893.617 49.2344C893.914 49.5078 894.32 49.6445 894.836 49.6445ZM906.273 39.3203L906.379 40.7852C907.285 39.6523 908.5 39.0859 910.023 39.0859C911.367 39.0859 912.367 39.4805 913.023 40.2695C913.68 41.0586 914.016 42.2383 914.031 43.8086V52H910.645V43.8906C910.645 43.1719 910.488 42.6523 910.176 42.332C909.863 42.0039 909.344 41.8398 908.617 41.8398C907.664 41.8398 906.949 42.2461 906.473 43.0586V52H903.086V39.3203H906.273ZM928.422 52.2344C926.562 52.2344 925.047 51.6641 923.875 50.5234C922.711 49.3828 922.129 47.8633 922.129 45.9648V45.6367C922.129 44.3633 922.375 43.2266 922.867 42.2266C923.359 41.2188 924.055 40.4453 924.953 39.9062C925.859 39.3594 926.891 39.0859 928.047 39.0859C929.781 39.0859 931.145 39.6328 932.137 40.7266C933.137 41.8203 933.637 43.3711 933.637 45.3789V46.7617H925.562C925.672 47.5898 926 48.2539 926.547 48.7539C927.102 49.2539 927.801 49.5039 928.645 49.5039C929.949 49.5039 930.969 49.0312 931.703 48.0859L933.367 49.9492C932.859 50.668 932.172 51.2305 931.305 51.6367C930.438 52.0352 929.477 52.2344 928.422 52.2344ZM928.035 41.8281C927.363 41.8281 926.816 42.0547 926.395 42.5078C925.98 42.9609 925.715 43.6094 925.598 44.4531H930.309V44.1836C930.293 43.4336 930.09 42.8555 929.699 42.4492C929.309 42.0352 928.754 41.8281 928.035 41.8281ZM942.695 42.4961C942.234 42.4336 941.828 42.4023 941.477 42.4023C940.195 42.4023 939.355 42.8359 938.957 43.7031V52H935.57V39.3203H938.77L938.863 40.832C939.543 39.668 940.484 39.0859 941.688 39.0859C942.062 39.0859 942.414 39.1367 942.742 39.2383L942.695 42.4961ZM951.461 42.4961C951 42.4336 950.594 42.4023 950.242 42.4023C948.961 42.4023 948.121 42.8359 947.723 43.7031V52H944.336V39.3203H947.535L947.629 40.832C948.309 39.668 949.25 39.0859 950.453 39.0859C950.828 39.0859 951.18 39.1367 951.508 39.2383L951.461 42.4961ZM952.152 45.543C952.152 44.2852 952.395 43.1641 952.879 42.1797C953.363 41.1953 954.059 40.4336 954.965 39.8945C955.879 39.3555 956.938 39.0859 958.141 39.0859C959.852 39.0859 961.246 39.6094 962.324 40.6562C963.41 41.7031 964.016 43.125 964.141 44.9219L964.164 45.7891C964.164 47.7344 963.621 49.2969 962.535 50.4766C961.449 51.6484 959.992 52.2344 958.164 52.2344C956.336 52.2344 954.875 51.6484 953.781 50.4766C952.695 49.3047 952.152 47.7109 952.152 45.6953V45.543ZM955.539 45.7891C955.539 46.9922 955.766 47.9141 956.219 48.5547C956.672 49.1875 957.32 49.5039 958.164 49.5039C958.984 49.5039 959.625 49.1914 960.086 48.5664C960.547 47.9336 960.777 46.9258 960.777 45.543C960.777 44.3633 960.547 43.4492 960.086 42.8008C959.625 42.1523 958.977 41.8281 958.141 41.8281C957.312 41.8281 956.672 42.1523 956.219 42.8008C955.766 43.4414 955.539 44.4375 955.539 45.7891ZM973.375 42.4961C972.914 42.4336 972.508 42.4023 972.156 42.4023C970.875 42.4023 970.035 42.8359 969.637 43.7031V52H966.25V39.3203H969.449L969.543 40.832C970.223 39.668 971.164 39.0859 972.367 39.0859C972.742 39.0859 973.094 39.1367 973.422 39.2383L973.375 42.4961Z" fill="black"/>
<path d="M771.613 53.9597H824.031V55.1316H771.613V53.9597Z" fill="black"/>
<rect x="504.239" y="112.707" width="117.455" height="118.133" transform="rotate(45 504.239 112.707)" fill="#6FCF97" stroke="black"/>
<path d="M501.199 188.789H495.715V204H493.477V188.789H488.004V186.938H501.199V188.789ZM508.629 193.266C508.301 193.211 507.945 193.184 507.562 193.184C506.141 193.184 505.176 193.789 504.668 195V204H502.5V191.32H504.609L504.645 192.785C505.355 191.652 506.363 191.086 507.668 191.086C508.09 191.086 508.41 191.141 508.629 191.25V193.266ZM514.992 200.824L517.945 191.32H520.266L515.168 205.957C514.379 208.066 513.125 209.121 511.406 209.121L510.996 209.086L510.188 208.934V207.176L510.773 207.223C511.508 207.223 512.078 207.074 512.484 206.777C512.898 206.48 513.238 205.938 513.504 205.148L513.984 203.859L509.461 191.32H511.828L514.992 200.824Z" fill="black"/>
<rect x="790.5" y="132.5" width="119" height="119" fill="#6FCF97" stroke="black"/>
<path d="M825.66 190.113H818.266V196.16H826.855V198H816.016V180.938H826.738V182.789H818.266V188.273H825.66V190.113ZM833.57 189.949L836.383 185.32H838.914L834.766 191.59L839.043 198H836.535L833.605 193.254L830.676 198H828.156L832.434 191.59L828.285 185.32H830.793L833.57 189.949ZM846.074 196.465C846.848 196.465 847.523 196.23 848.102 195.762C848.68 195.293 849 194.707 849.062 194.004H851.113C851.074 194.73 850.824 195.422 850.363 196.078C849.902 196.734 849.285 197.258 848.512 197.648C847.746 198.039 846.934 198.234 846.074 198.234C844.348 198.234 842.973 197.66 841.949 196.512C840.934 195.355 840.426 193.777 840.426 191.777V191.414C840.426 190.18 840.652 189.082 841.105 188.121C841.559 187.16 842.207 186.414 843.051 185.883C843.902 185.352 844.906 185.086 846.062 185.086C847.484 185.086 848.664 185.512 849.602 186.363C850.547 187.215 851.051 188.32 851.113 189.68H849.062C849 188.859 848.688 188.188 848.125 187.664C847.57 187.133 846.883 186.867 846.062 186.867C844.961 186.867 844.105 187.266 843.496 188.062C842.895 188.852 842.594 189.996 842.594 191.496V191.906C842.594 193.367 842.895 194.492 843.496 195.281C844.098 196.07 844.957 196.465 846.074 196.465ZM858.812 198.234C857.094 198.234 855.695 197.672 854.617 196.547C853.539 195.414 853 193.902 853 192.012V191.613C853 190.355 853.238 189.234 853.715 188.25C854.199 187.258 854.871 186.484 855.73 185.93C856.598 185.367 857.535 185.086 858.543 185.086C860.191 185.086 861.473 185.629 862.387 186.715C863.301 187.801 863.758 189.355 863.758 191.379V192.281H855.168C855.199 193.531 855.562 194.543 856.258 195.316C856.961 196.082 857.852 196.465 858.93 196.465C859.695 196.465 860.344 196.309 860.875 195.996C861.406 195.684 861.871 195.27 862.27 194.754L863.594 195.785C862.531 197.418 860.938 198.234 858.812 198.234ZM858.543 186.867C857.668 186.867 856.934 187.188 856.34 187.828C855.746 188.461 855.379 189.352 855.238 190.5H861.59V190.336C861.527 189.234 861.23 188.383 860.699 187.781C860.168 187.172 859.449 186.867 858.543 186.867ZM876.988 191.801C876.988 193.73 876.547 195.285 875.664 196.465C874.781 197.645 873.586 198.234 872.078 198.234C870.539 198.234 869.328 197.746 868.445 196.77V202.875H866.277V185.32H868.258L868.363 186.727C869.246 185.633 870.473 185.086 872.043 185.086C873.566 185.086 874.77 185.66 875.652 186.809C876.543 187.957 876.988 189.555 876.988 191.602V191.801ZM874.82 191.555C874.82 190.125 874.516 188.996 873.906 188.168C873.297 187.34 872.461 186.926 871.398 186.926C870.086 186.926 869.102 187.508 868.445 188.672V194.73C869.094 195.887 870.086 196.465 871.422 196.465C872.461 196.465 873.285 196.055 873.895 195.234C874.512 194.406 874.82 193.18 874.82 191.555ZM882.695 182.25V185.32H885.062V186.996H882.695V194.859C882.695 195.367 882.801 195.75 883.012 196.008C883.223 196.258 883.582 196.383 884.09 196.383C884.34 196.383 884.684 196.336 885.121 196.242V198C884.551 198.156 883.996 198.234 883.457 198.234C882.488 198.234 881.758 197.941 881.266 197.355C880.773 196.77 880.527 195.938 880.527 194.859V186.996H878.219V185.32H880.527V182.25H882.695Z" fill="black"/>
<rect x="444.5" y="476.5" width="119" height="119" fill="#6FCF97" stroke="black"/>
<path d="M462.703 524.586C462.492 526.391 461.824 527.785 460.699 528.77C459.582 529.746 458.094 530.234 456.234 530.234C454.219 530.234 452.602 529.512 451.383 528.066C450.172 526.621 449.566 524.688 449.566 522.266V520.625C449.566 519.039 449.848 517.645 450.41 516.441C450.98 515.238 451.785 514.316 452.824 513.676C453.863 513.027 455.066 512.703 456.434 512.703C458.246 512.703 459.699 513.211 460.793 514.227C461.887 515.234 462.523 516.633 462.703 518.422H460.441C460.246 517.062 459.82 516.078 459.164 515.469C458.516 514.859 457.605 514.555 456.434 514.555C454.996 514.555 453.867 515.086 453.047 516.148C452.234 517.211 451.828 518.723 451.828 520.684V522.336C451.828 524.188 452.215 525.66 452.988 526.754C453.762 527.848 454.844 528.395 456.234 528.395C457.484 528.395 458.441 528.113 459.105 527.551C459.777 526.98 460.223 525.992 460.441 524.586H462.703ZM464.871 523.543C464.871 522.301 465.113 521.184 465.598 520.191C466.09 519.199 466.77 518.434 467.637 517.895C468.512 517.355 469.508 517.086 470.625 517.086C472.352 517.086 473.746 517.684 474.809 518.879C475.879 520.074 476.414 521.664 476.414 523.648V523.801C476.414 525.035 476.176 526.145 475.699 527.129C475.23 528.105 474.555 528.867 473.672 529.414C472.797 529.961 471.789 530.234 470.648 530.234C468.93 530.234 467.535 529.637 466.465 528.441C465.402 527.246 464.871 525.664 464.871 523.695V523.543ZM467.051 523.801C467.051 525.207 467.375 526.336 468.023 527.188C468.68 528.039 469.555 528.465 470.648 528.465C471.75 528.465 472.625 528.035 473.273 527.176C473.922 526.309 474.246 525.098 474.246 523.543C474.246 522.152 473.914 521.027 473.25 520.168C472.594 519.301 471.719 518.867 470.625 518.867C469.555 518.867 468.691 519.293 468.035 520.145C467.379 520.996 467.051 522.215 467.051 523.801ZM478.605 523.555C478.605 521.609 479.066 520.047 479.988 518.867C480.91 517.68 482.117 517.086 483.609 517.086C485.094 517.086 486.27 517.594 487.137 518.609V512H489.305V530H487.312L487.207 528.641C486.34 529.703 485.133 530.234 483.586 530.234C482.117 530.234 480.918 529.633 479.988 528.43C479.066 527.227 478.605 525.656 478.605 523.719V523.555ZM480.773 523.801C480.773 525.238 481.07 526.363 481.664 527.176C482.258 527.988 483.078 528.395 484.125 528.395C485.5 528.395 486.504 527.777 487.137 526.543V520.719C486.488 519.523 485.492 518.926 484.148 518.926C483.086 518.926 482.258 519.336 481.664 520.156C481.07 520.977 480.773 522.191 480.773 523.801ZM497.941 530.234C496.223 530.234 494.824 529.672 493.746 528.547C492.668 527.414 492.129 525.902 492.129 524.012V523.613C492.129 522.355 492.367 521.234 492.844 520.25C493.328 519.258 494 518.484 494.859 517.93C495.727 517.367 496.664 517.086 497.672 517.086C499.32 517.086 500.602 517.629 501.516 518.715C502.43 519.801 502.887 521.355 502.887 523.379V524.281H494.297C494.328 525.531 494.691 526.543 495.387 527.316C496.09 528.082 496.98 528.465 498.059 528.465C498.824 528.465 499.473 528.309 500.004 527.996C500.535 527.684 501 527.27 501.398 526.754L502.723 527.785C501.66 529.418 500.066 530.234 497.941 530.234ZM497.672 518.867C496.797 518.867 496.062 519.188 495.469 519.828C494.875 520.461 494.508 521.352 494.367 522.5H500.719V522.336C500.656 521.234 500.359 520.383 499.828 519.781C499.297 519.172 498.578 518.867 497.672 518.867ZM519.188 530C519.062 529.75 518.961 529.305 518.883 528.664C517.875 529.711 516.672 530.234 515.273 530.234C514.023 530.234 512.996 529.883 512.191 529.18C511.395 528.469 510.996 527.57 510.996 526.484C510.996 525.164 511.496 524.141 512.496 523.414C513.504 522.68 514.918 522.312 516.738 522.312H518.848V521.316C518.848 520.559 518.621 519.957 518.168 519.512C517.715 519.059 517.047 518.832 516.164 518.832C515.391 518.832 514.742 519.027 514.219 519.418C513.695 519.809 513.434 520.281 513.434 520.836H511.254C511.254 520.203 511.477 519.594 511.922 519.008C512.375 518.414 512.984 517.945 513.75 517.602C514.523 517.258 515.371 517.086 516.293 517.086C517.754 517.086 518.898 517.453 519.727 518.188C520.555 518.914 520.984 519.918 521.016 521.199V527.035C521.016 528.199 521.164 529.125 521.461 529.812V530H519.188ZM515.59 528.348C516.27 528.348 516.914 528.172 517.523 527.82C518.133 527.469 518.574 527.012 518.848 526.449V523.848H517.148C514.492 523.848 513.164 524.625 513.164 526.18C513.164 526.859 513.391 527.391 513.844 527.773C514.297 528.156 514.879 528.348 515.59 528.348ZM525.48 530V518.996H523.477V517.32H525.48V516.02C525.48 514.66 525.844 513.609 526.57 512.867C527.297 512.125 528.324 511.754 529.652 511.754C530.152 511.754 530.648 511.82 531.141 511.953L531.023 513.711C530.656 513.641 530.266 513.605 529.852 513.605C529.148 513.605 528.605 513.812 528.223 514.227C527.84 514.633 527.648 515.219 527.648 515.984V517.32H530.355V518.996H527.648V530H525.48ZM535.699 514.25V517.32H538.066V518.996H535.699V526.859C535.699 527.367 535.805 527.75 536.016 528.008C536.227 528.258 536.586 528.383 537.094 528.383C537.344 528.383 537.688 528.336 538.125 528.242V530C537.555 530.156 537 530.234 536.461 530.234C535.492 530.234 534.762 529.941 534.27 529.355C533.777 528.77 533.531 527.938 533.531 526.859V518.996H531.223V517.32H533.531V514.25H535.699ZM545.871 530.234C544.152 530.234 542.754 529.672 541.676 528.547C540.598 527.414 540.059 525.902 540.059 524.012V523.613C540.059 522.355 540.297 521.234 540.773 520.25C541.258 519.258 541.93 518.484 542.789 517.93C543.656 517.367 544.594 517.086 545.602 517.086C547.25 517.086 548.531 517.629 549.445 518.715C550.359 519.801 550.816 521.355 550.816 523.379V524.281H542.227C542.258 525.531 542.621 526.543 543.316 527.316C544.02 528.082 544.91 528.465 545.988 528.465C546.754 528.465 547.402 528.309 547.934 527.996C548.465 527.684 548.93 527.27 549.328 526.754L550.652 527.785C549.59 529.418 547.996 530.234 545.871 530.234ZM545.602 518.867C544.727 518.867 543.992 519.188 543.398 519.828C542.805 520.461 542.438 521.352 542.297 522.5H548.648V522.336C548.586 521.234 548.289 520.383 547.758 519.781C547.227 519.172 546.508 518.867 545.602 518.867ZM559.465 519.266C559.137 519.211 558.781 519.184 558.398 519.184C556.977 519.184 556.012 519.789 555.504 521V530H553.336V517.32H555.445L555.48 518.785C556.191 517.652 557.199 517.086 558.504 517.086C558.926 517.086 559.246 517.141 559.465 517.25V519.266ZM454.348 542.25V545.32H456.715V546.996H454.348V554.859C454.348 555.367 454.453 555.75 454.664 556.008C454.875 556.258 455.234 556.383 455.742 556.383C455.992 556.383 456.336 556.336 456.773 556.242V558C456.203 558.156 455.648 558.234 455.109 558.234C454.141 558.234 453.41 557.941 452.918 557.355C452.426 556.77 452.18 555.938 452.18 554.859V546.996H449.871V545.32H452.18V542.25H454.348ZM465.387 547.266C465.059 547.211 464.703 547.184 464.32 547.184C462.898 547.184 461.934 547.789 461.426 549V558H459.258V545.32H461.367L461.402 546.785C462.113 545.652 463.121 545.086 464.426 545.086C464.848 545.086 465.168 545.141 465.387 545.25V547.266ZM471.75 554.824L474.703 545.32H477.023L471.926 559.957C471.137 562.066 469.883 563.121 468.164 563.121L467.754 563.086L466.945 562.934V561.176L467.531 561.223C468.266 561.223 468.836 561.074 469.242 560.777C469.656 560.48 469.996 559.938 470.262 559.148L470.742 557.859L466.219 545.32H468.586L471.75 554.824ZM479.402 559.465H477.539L484.664 540.938H486.516L479.402 559.465ZM494.121 558.234C492.402 558.234 491.004 557.672 489.926 556.547C488.848 555.414 488.309 553.902 488.309 552.012V551.613C488.309 550.355 488.547 549.234 489.023 548.25C489.508 547.258 490.18 546.484 491.039 545.93C491.906 545.367 492.844 545.086 493.852 545.086C495.5 545.086 496.781 545.629 497.695 546.715C498.609 547.801 499.066 549.355 499.066 551.379V552.281H490.477C490.508 553.531 490.871 554.543 491.566 555.316C492.27 556.082 493.16 556.465 494.238 556.465C495.004 556.465 495.652 556.309 496.184 555.996C496.715 555.684 497.18 555.27 497.578 554.754L498.902 555.785C497.84 557.418 496.246 558.234 494.121 558.234ZM493.852 546.867C492.977 546.867 492.242 547.188 491.648 547.828C491.055 548.461 490.688 549.352 490.547 550.5H496.898V550.336C496.836 549.234 496.539 548.383 496.008 547.781C495.477 547.172 494.758 546.867 493.852 546.867ZM505.84 549.949L508.652 545.32H511.184L507.035 551.59L511.312 558H508.805L505.875 553.254L502.945 558H500.426L504.703 551.59L500.555 545.32H503.062L505.84 549.949ZM518.344 556.465C519.117 556.465 519.793 556.23 520.371 555.762C520.949 555.293 521.27 554.707 521.332 554.004H523.383C523.344 554.73 523.094 555.422 522.633 556.078C522.172 556.734 521.555 557.258 520.781 557.648C520.016 558.039 519.203 558.234 518.344 558.234C516.617 558.234 515.242 557.66 514.219 556.512C513.203 555.355 512.695 553.777 512.695 551.777V551.414C512.695 550.18 512.922 549.082 513.375 548.121C513.828 547.16 514.477 546.414 515.32 545.883C516.172 545.352 517.176 545.086 518.332 545.086C519.754 545.086 520.934 545.512 521.871 546.363C522.816 547.215 523.32 548.32 523.383 549.68H521.332C521.27 548.859 520.957 548.188 520.395 547.664C519.84 547.133 519.152 546.867 518.332 546.867C517.23 546.867 516.375 547.266 515.766 548.062C515.164 548.852 514.863 549.996 514.863 551.496V551.906C514.863 553.367 515.164 554.492 515.766 555.281C516.367 556.07 517.227 556.465 518.344 556.465ZM531.082 558.234C529.363 558.234 527.965 557.672 526.887 556.547C525.809 555.414 525.27 553.902 525.27 552.012V551.613C525.27 550.355 525.508 549.234 525.984 548.25C526.469 547.258 527.141 546.484 528 545.93C528.867 545.367 529.805 545.086 530.812 545.086C532.461 545.086 533.742 545.629 534.656 546.715C535.57 547.801 536.027 549.355 536.027 551.379V552.281H527.438C527.469 553.531 527.832 554.543 528.527 555.316C529.23 556.082 530.121 556.465 531.199 556.465C531.965 556.465 532.613 556.309 533.145 555.996C533.676 555.684 534.141 555.27 534.539 554.754L535.863 555.785C534.801 557.418 533.207 558.234 531.082 558.234ZM530.812 546.867C529.938 546.867 529.203 547.188 528.609 547.828C528.016 548.461 527.648 549.352 527.508 550.5H533.859V550.336C533.797 549.234 533.5 548.383 532.969 547.781C532.438 547.172 531.719 546.867 530.812 546.867ZM549.258 551.801C549.258 553.73 548.816 555.285 547.934 556.465C547.051 557.645 545.855 558.234 544.348 558.234C542.809 558.234 541.598 557.746 540.715 556.77V562.875H538.547V545.32H540.527L540.633 546.727C541.516 545.633 542.742 545.086 544.312 545.086C545.836 545.086 547.039 545.66 547.922 546.809C548.812 547.957 549.258 549.555 549.258 551.602V551.801ZM547.09 551.555C547.09 550.125 546.785 548.996 546.176 548.168C545.566 547.34 544.73 546.926 543.668 546.926C542.355 546.926 541.371 547.508 540.715 548.672V554.73C541.363 555.887 542.355 556.465 543.691 556.465C544.73 556.465 545.555 556.055 546.164 555.234C546.781 554.406 547.09 553.18 547.09 551.555ZM554.965 542.25V545.32H557.332V546.996H554.965V554.859C554.965 555.367 555.07 555.75 555.281 556.008C555.492 556.258 555.852 556.383 556.359 556.383C556.609 556.383 556.953 556.336 557.391 556.242V558C556.82 558.156 556.266 558.234 555.727 558.234C554.758 558.234 554.027 557.941 553.535 557.355C553.043 556.77 552.797 555.938 552.797 554.859V546.996H550.488V545.32H552.797V542.25H554.965Z" fill="black"/>
<path d="M503.285 470.707C503.672 471.098 504.305 471.098 504.7 470.707L511.131 464.343C511.526 463.953 511.533 463.32 511.146 462.929C510.76 462.539 510.127 462.539 509.732 462.929L504.015 468.586L498.418 462.929C498.032 462.539 497.399 462.539 497.004 462.929C496.609 463.32 496.603 463.953 496.989 464.343L503.285 470.707ZM505 282L504.958 285.917L506.958 285.917L507 282L505 282ZM504.875 293.75L504.792 301.583L506.792 301.583L506.875 293.75L504.875 293.75ZM504.708 309.417L504.625 317.25L506.625 317.25L506.708 309.417L504.708 309.417ZM504.542 325.083L504.458 332.917L506.458 332.917L506.542 325.083L504.542 325.083ZM504.375 340.75L504.292 348.583L506.292 348.583L506.375 340.75L504.375 340.75ZM504.208 356.417L504.125 364.25L506.125 364.25L506.208 356.417L504.208 356.417ZM504.042 372.083L503.958 379.917L505.958 379.917L506.042 372.083L504.042 372.083ZM503.875 387.75L503.792 395.583L505.792 395.583L505.875 387.75L503.875 387.75ZM503.708 403.417L503.625 411.25L505.625 411.25L505.708 403.417L503.708 403.417ZM503.542 419.083L503.458 426.917L505.458 426.917L505.542 419.083L503.542 419.083ZM503.375 434.75L503.292 442.583L505.292 442.583L505.375 434.75L503.375 434.75ZM503.208 450.417L503.125 458.25L505.125 458.25L505.208 450.417L503.208 450.417ZM503.042 466.083L503 470L505 470L505.042 466.083L503.042 466.083ZM502.571 471.414C503.343 472.195 504.61 472.195 505.399 471.414L518.262 458.687C519.052 457.906 519.065 456.64 518.293 455.859C517.52 455.078 516.254 455.078 515.464 455.859L504.03 467.172L492.837 455.859C492.064 455.078 490.798 455.078 490.008 455.859C489.219 456.64 489.205 457.906 489.978 458.687L502.571 471.414ZM504 282L503.958 285.917L507.958 285.917L508 282L504 282ZM503.875 293.75L503.792 301.583L507.792 301.583L507.875 293.75L503.875 293.75ZM503.708 309.417L503.625 317.25L507.625 317.25L507.708 309.417L503.708 309.417ZM503.542 325.083L503.458 332.917L507.458 332.917L507.542 325.083L503.542 325.083ZM503.375 340.75L503.292 348.583L507.292 348.583L507.375 340.75L503.375 340.75ZM503.208 356.417L503.125 364.25L507.125 364.25L507.208 356.417L503.208 356.417ZM503.042 372.083L502.958 379.917L506.958 379.917L507.042 372.083L503.042 372.083ZM502.875 387.75L502.792 395.583L506.792 395.583L506.875 387.75L502.875 387.75ZM502.708 403.417L502.625 411.25L506.625 411.25L506.708 403.417L502.708 403.417ZM502.542 419.083L502.458 426.917L506.458 426.917L506.542 419.083L502.542 419.083ZM502.375 434.75L502.292 442.583L506.292 442.583L506.375 434.75L502.375 434.75ZM502.208 450.417L502.125 458.25L506.125 458.25L506.208 450.417L502.208 450.417ZM502.042 466.083L502 470L506 470L506.042 466.083L502.042 466.083Z" fill="#828282"/>
<path d="M563.879 533.879C562.707 535.05 562.707 536.95 563.879 538.121L582.971 557.213C584.142 558.385 586.042 558.385 587.213 557.213C588.385 556.042 588.385 554.142 587.213 552.971L570.243 536L587.213 519.029C588.385 517.858 588.385 515.958 587.213 514.787C586.042 513.615 584.142 513.615 582.971 514.787L563.879 533.879ZM854 533H566V539H854V533Z" fill="#219653"/>
<line x1="853.028" y1="256" x2="853.028" y2="536" stroke="#219653" stroke-width="3"/>
</svg>
