<svg width="682" height="884" viewBox="0 0 682 884" version="1.1" xmlns="http://www.w3.org/2000/svg" xmlns:xlink="http://www.w3.org/1999/xlink">
<title>Group 23</title>
<desc>Created using Figma</desc>
<g id="Canvas" transform="translate(-2004 -1427)">
<g id="Group 23">
<g id="Rectangle 7.4">
<use xlink:href="#path0_fill" transform="translate(2204 1573)" fill="#D6D6D6"/>
</g>
<g id="Rectangle 7.5">
<use xlink:href="#path1_fill" transform="translate(2329 1482)" fill="#2D9CDB"/>
</g>
<g id="Ellipse 2.69">
<use xlink:href="#path2_fill" transform="translate(2474 1635)" fill="#F2994A"/>
<mask id="mask0_outline_ins">
<use xlink:href="#path2_fill" fill="white" transform="translate(2474 1635)"/>
</mask>
<g mask="url(#mask0_outline_ins)">
<use xlink:href="#path3_stroke_2x" transform="translate(2474 1635)"/>
</g>
</g>
<g id="Ellipse 2.70">
<use xlink:href="#path4_fill" transform="translate(2221 1585)" fill="#FFFFFF"/>
<mask id="mask1_outline_ins">
<use xlink:href="#path4_fill" fill="white" transform="translate(2221 1585)"/>
</mask>
<g mask="url(#mask1_outline_ins)">
<use xlink:href="#path5_stroke_2x" transform="translate(2221 1585)"/>
</g>
</g>
<g id="Ellipse 2.71">
<use xlink:href="#path4_fill" transform="translate(2346 1557)" fill="#FFFFFF"/>
<mask id="mask2_outline_ins">
<use xlink:href="#path4_fill" fill="white" transform="translate(2346 1557)"/>
</mask>
<g mask="url(#mask2_outline_ins)">
<use xlink:href="#path5_stroke_2x" transform="translate(2346 1557)"/>
</g>
</g>
<g id="Ellipse 2.72">
<use xlink:href="#path4_fill" transform="translate(2346 1494)" fill="#FFFFFF"/>
<mask id="mask3_outline_ins">
<use xlink:href="#path4_fill" fill="white" transform="translate(2346 1494)"/>
</mask>
<g mask="url(#mask3_outline_ins)">
<use xlink:href="#path5_stroke_2x" transform="translate(2346 1494)"/>
</g>
</g>
<g id="Ellipse 2.73">
<use xlink:href="#path4_fill" transform="translate(2221 1650)" fill="#FFFFFF"/>
<mask id="mask4_outline_ins">
<use xlink:href="#path4_fill" fill="white" transform="translate(2221 1650)"/>
</mask>
<g mask="url(#mask4_outline_ins)">
<use xlink:href="#path5_stroke_2x" transform="translate(2221 1650)"/>
</g>
</g>
<g id="Ellipse 2.74">
<use xlink:href="#path4_fill" transform="translate(2223 1710)" fill="#FFFFFF"/>
<mask id="mask5_outline_ins">
<use xlink:href="#path4_fill" fill="white" transform="translate(2223 1710)"/>
</mask>
<g mask="url(#mask5_outline_ins)">
<use xlink:href="#path5_stroke_2x" transform="translate(2223 1710)"/>
</g>
</g>
<g id="Line 14.52">
<use xlink:href="#path6_stroke" transform="matrix(-1 1.23774e-16 -1.21169e-16 -1 2501 1656)"/>
</g>
<g id="Line 14.53">
<use xlink:href="#path7_stroke" transform="matrix(-1 1.23774e-16 -1.21169e-16 -1 2501 1675)"/>
</g>
<g id="Line 14.54">
<use xlink:href="#path8_stroke" transform="matrix(-0.664664 -0.747142 0.747142 -0.664664 2495 1667)"/>
</g>
<g id="Line 14.55">
<use xlink:href="#path9_stroke" transform="matrix(0.780869 -0.624695 0.624695 0.780869 2484 1676)"/>
</g>
<g id="Line 15.26">
<use xlink:href="#path10_stroke" transform="matrix(6.12323e-17 1 -1 6.12323e-17 2500 1657)"/>
</g>
<g id="Line 15.27">
<use xlink:href="#path10_stroke" transform="matrix(6.12323e-17 1 -1 6.12323e-17 2500 1674)"/>
</g>
<g id="Line 14.56">
<use xlink:href="#path11_stroke" transform="matrix(-1 1.2625e-16 -1.18793e-16 -1 2360 1567)"/>
</g>
<g id="Line 14.57">
<use xlink:href="#path12_stroke" transform="matrix(-1 1.2625e-16 -1.18793e-16 -1 2360 1577.4)"/>
</g>
<g id="Line 14.58">
<use xlink:href="#path13_stroke" transform="matrix(-0.657294 -0.753634 0.740562 -0.671987 2356.47 1573.6)"/>
</g>
<g id="Line 14.59">
<use xlink:href="#path14_stroke" transform="matrix(0.774785 -0.632225 0.61714 0.786853 2350 1579)"/>
</g>
<g id="Line 15.28">
<use xlink:href="#path15_stroke" transform="matrix(6.00317e-17 1 -1 6.2457e-17 2359 1568)"/>
</g>
<g id="Line 15.29">
<use xlink:href="#path15_stroke" transform="matrix(6.00317e-17 1 -1 6.2457e-17 2359 1577)"/>
</g>
<g id="Line 14.60">
<use xlink:href="#path11_stroke" transform="matrix(-1 1.2625e-16 -1.18793e-16 -1 2360 1504)"/>
</g>
<g id="Line 14.61">
<use xlink:href="#path12_stroke" transform="matrix(-1 1.2625e-16 -1.18793e-16 -1 2360 1514.4)"/>
</g>
<g id="Line 14.62">
<use xlink:href="#path13_stroke" transform="matrix(-0.657294 -0.753634 0.740562 -0.671987 2356.47 1510.6)"/>
</g>
<g id="Line 14.63">
<use xlink:href="#path14_stroke" transform="matrix(0.774785 -0.632225 0.61714 0.786853 2350 1516)"/>
</g>
<g id="Line 15.30">
<use xlink:href="#path15_stroke" transform="matrix(6.00317e-17 1 -1 6.2457e-17 2359 1505)"/>
</g>
<g id="Line 15.31">
<use xlink:href="#path15_stroke" transform="matrix(6.00317e-17 1 -1 6.2457e-17 2359 1514)"/>
</g>
<g id="Arrow 4.7">
<use xlink:href="#path16_stroke" transform="matrix(0.625421 0.780287 -0.780287 0.625421 2379 1510)"/>
</g>
<g id="Arrow 5.6">
<use xlink:href="#path17_stroke" transform="matrix(0.810468 0.585783 -0.585783 0.810468 2378 1575)"/>
</g>
<g id="Arrow 6.9">
<use xlink:href="#path18_stroke" transform="matrix(0.973688 0.227884 -0.227884 0.973688 2380 1637)"/>
</g>
<g id="Arrow 6.10">
<use xlink:href="#path19_stroke" transform="matrix(0.969473 -0.245196 0.245196 0.969473 2379 1696.03)"/>
</g>
<g id="Arrow 6.11">
<use xlink:href="#path20_stroke" transform="matrix(0.815279 -0.579069 0.579069 0.815279 2379 1753.03)"/>
</g>
<g id="Arrow 6.12">
<use xlink:href="#path21_stroke" transform="matrix(0.679447 -0.733725 0.733725 0.679447 2379 1818.03)"/>
</g>
<g id="Line 16.38">
<use xlink:href="#path22_stroke" transform="matrix(6.12323e-17 1 -1 6.12323e-17 2505 1635)"/>
</g>
<g id="Arrow 3.9">
<use xlink:href="#path23_stroke" transform="matrix(1 -2.44929e-16 2.44929e-16 1 2537 1668)"/>
</g>
<g id="Arrow 7.2">
<use xlink:href="#path24_stroke" transform="matrix(0.723171 -0.690669 0.690669 0.723171 2256 1602)"/>
</g>
<g id="Arrow 8.1">
<use xlink:href="#path25_stroke" transform="matrix(0.956934 -0.290306 0.290306 0.956934 2254 1602)"/>
</g>
<g id="Arrow 9.1">
<use xlink:href="#path26_stroke" transform="matrix(0.934997 0.354654 -0.354654 0.934997 2256 1602)"/>
</g>
<g id="Arrow 10.1">
<use xlink:href="#path27_stroke" transform="matrix(0.71109 0.703101 -0.703101 0.71109 2256 1602)"/>
</g>
<g id="Arrow 11.1">
<use xlink:href="#path28_stroke" transform="matrix(0.528954 0.848651 -0.848651 0.528954 2254 1602)"/>
</g>
<g id="Arrow 12.1">
<use xlink:href="#path29_stroke" transform="matrix(0.404506 0.914535 -0.914535 0.404506 2254 1605)"/>
</g>
<g id="Arrow 13.1">
<use xlink:href="#path30_stroke" transform="matrix(0.609711 -0.792624 0.792624 0.609711 2247 1653)"/>
</g>
<g id="Arrow 14.1">
<use xlink:href="#path31_stroke" transform="matrix(0.793878 -0.608077 0.608077 0.793878 2249 1655)"/>
</g>
<g id="Arrow 15.1">
<use xlink:href="#path32_stroke" transform="matrix(0.980993 -0.194043 0.194043 0.980993 2252 1659)"/>
</g>
<g id="Arrow 16.1">
<use xlink:href="#path33_stroke" transform="matrix(0.95073 0.310021 -0.310021 0.95073 2254 1666)"/>
</g>
<g id="Arrow 17.1">
<use xlink:href="#path34_stroke" transform="matrix(0.738486 0.674269 -0.674269 0.738486 2254 1669)"/>
</g>
<g id="Arrow 18.1">
<use xlink:href="#path35_stroke" transform="matrix(0.520306 0.85398 -0.85398 0.520306 2254 1669)"/>
</g>
<g id="Arrow 19.1">
<use xlink:href="#path36_stroke" transform="matrix(0.460456 -0.887683 0.887683 0.460456 2254 1719)"/>
</g>
<g id="Arrow 20.1">
<use xlink:href="#path37_stroke" transform="matrix(0.583636 -0.812015 0.812015 0.583636 2254 1719)"/>
</g>
<g id="Arrow 21.1">
<use xlink:href="#path38_stroke" transform="matrix(0.779118 -0.626877 0.626877 0.779118 2256 1719)"/>
</g>
<g id="Arrow 22.1">
<use xlink:href="#path39_stroke" transform="matrix(0.962739 -0.270432 0.270432 0.962739 2256 1727)"/>
</g>
<g id="Arrow 23.1">
<use xlink:href="#path40_stroke" transform="matrix(0.945373 0.325991 -0.325991 0.945373 2256 1727)"/>
</g>
<g id="Arrow 24.1">
<use xlink:href="#path41_stroke" transform="matrix(0.68816 0.725559 -0.725559 0.68816 2256 1730)"/>
</g>
<g id="18 weights">
<use xlink:href="#path42_fill" transform="translate(2266 1879)"/>
</g>
<g id="6 weights">
<use xlink:href="#path43_fill" transform="translate(2424 1879)"/>
</g>
<g id="()">
<use xlink:href="#path44_fill" transform="translate(2519 1655)"/>
</g>
<g id="Line 17.76">
<use xlink:href="#path45_stroke" transform="matrix(6.12323e-17 1 -1 6.12323e-17 2362 1494)"/>
</g>
<g id="Line 17.77">
<use xlink:href="#path45_stroke" transform="matrix(6.12323e-17 1 -1 6.12323e-17 2362 1557)"/>
</g>
<g id="Ellipse 2.75">
<use xlink:href="#path4_fill" transform="translate(2346 1803)" fill="#FFFFFF"/>
<mask id="mask6_outline_ins">
<use xlink:href="#path4_fill" fill="white" transform="translate(2346 1803)"/>
</mask>
<g mask="url(#mask6_outline_ins)">
<use xlink:href="#path5_stroke_2x" transform="translate(2346 1803)"/>
</g>
</g>
<g id="Line 17.78">
<use xlink:href="#path45_stroke" transform="matrix(6.12323e-17 1 -1 6.12323e-17 2363 1803)"/>
</g>
<g id="Line 14.64">
<use xlink:href="#path11_stroke" transform="matrix(-1 1.2625e-16 -1.18793e-16 -1 2360 1813)"/>
</g>
<g id="Line 14.65">
<use xlink:href="#path12_stroke" transform="matrix(-1 1.2625e-16 -1.18793e-16 -1 2360 1823.4)"/>
</g>
<g id="Line 14.66">
<use xlink:href="#path13_stroke" transform="matrix(-0.657294 -0.753634 0.740562 -0.671987 2356.47 1819.6)"/>
</g>
<g id="Line 14.67">
<use xlink:href="#path14_stroke" transform="matrix(0.774785 -0.632225 0.61714 0.786853 2350 1825)"/>
</g>
<g id="Line 15.32">
<use xlink:href="#path15_stroke" transform="matrix(6.00317e-17 1 -1 6.2457e-17 2359 1814)"/>
</g>
<g id="Line 15.33">
<use xlink:href="#path15_stroke" transform="matrix(6.00317e-17 1 -1 6.2457e-17 2359 1823)"/>
</g>
<g id="Ellipse 2.76">
<use xlink:href="#path4_fill" transform="translate(2346 1736)" fill="#FFFFFF"/>
<mask id="mask7_outline_ins">
<use xlink:href="#path4_fill" fill="white" transform="translate(2346 1736)"/>
</mask>
<g mask="url(#mask7_outline_ins)">
<use xlink:href="#path5_stroke_2x" transform="translate(2346 1736)"/>
</g>
</g>
<g id="Line 17.79">
<use xlink:href="#path45_stroke" transform="matrix(6.12323e-17 1 -1 6.12323e-17 2363 1736)"/>
</g>
<g id="Line 14.68">
<use xlink:href="#path11_stroke" transform="matrix(-1 1.2625e-16 -1.18793e-16 -1 2360 1746)"/>
</g>
<g id="Line 14.69">
<use xlink:href="#path12_stroke" transform="matrix(-1 1.2625e-16 -1.18793e-16 -1 2360 1756.4)"/>
</g>
<g id="Line 14.70">
<use xlink:href="#path13_stroke" transform="matrix(-0.657294 -0.753634 0.740562 -0.671987 2356.47 1752.6)"/>
</g>
<g id="Line 14.71">
<use xlink:href="#path14_stroke" transform="matrix(0.774785 -0.632225 0.61714 0.786853 2350 1758)"/>
</g>
<g id="Line 15.34">
<use xlink:href="#path15_stroke" transform="matrix(6.00317e-17 1 -1 6.2457e-17 2359 1747)"/>
</g>
<g id="Line 15.35">
<use xlink:href="#path15_stroke" transform="matrix(6.00317e-17 1 -1 6.2457e-17 2359 1756)"/>
</g>
<g id="Ellipse 2.77">
<use xlink:href="#path4_fill" transform="translate(2346 1679)" fill="#FFFFFF"/>
<mask id="mask8_outline_ins">
<use xlink:href="#path4_fill" fill="white" transform="translate(2346 1679)"/>
</mask>
<g mask="url(#mask8_outline_ins)">
<use xlink:href="#path5_stroke_2x" transform="translate(2346 1679)"/>
</g>
</g>
<g id="Line 17.80">
<use xlink:href="#path45_stroke" transform="matrix(6.12323e-17 1 -1 6.12323e-17 2363 1679)"/>
</g>
<g id="Line 14.72">
<use xlink:href="#path11_stroke" transform="matrix(-1 1.2625e-16 -1.18793e-16 -1 2360 1689)"/>
</g>
<g id="Line 14.73">
<use xlink:href="#path12_stroke" transform="matrix(-1 1.2625e-16 -1.18793e-16 -1 2360 1699.4)"/>
</g>
<g id="Line 14.74">
<use xlink:href="#path13_stroke" transform="matrix(-0.657294 -0.753634 0.740562 -0.671987 2356.47 1695.6)"/>
</g>
<g id="Line 14.75">
<use xlink:href="#path14_stroke" transform="matrix(0.774785 -0.632225 0.61714 0.786853 2350 1701)"/>
</g>
<g id="Line 15.36">
<use xlink:href="#path15_stroke" transform="matrix(6.00317e-17 1 -1 6.2457e-17 2359 1690)"/>
</g>
<g id="Line 15.37">
<use xlink:href="#path15_stroke" transform="matrix(6.00317e-17 1 -1 6.2457e-17 2359 1699)"/>
</g>
<g id="Ellipse 2.78">
<use xlink:href="#path4_fill" transform="translate(2346 1623)" fill="#FFFFFF"/>
<mask id="mask9_outline_ins">
<use xlink:href="#path4_fill" fill="white" transform="translate(2346 1623)"/>
</mask>
<g mask="url(#mask9_outline_ins)">
<use xlink:href="#path5_stroke_2x" transform="translate(2346 1623)"/>
</g>
</g>
<g id="Line 17.81">
<use xlink:href="#path45_stroke" transform="matrix(6.12323e-17 1 -1 6.12323e-17 2363 1623)"/>
</g>
<g id="Line 14.76">
<use xlink:href="#path11_stroke" transform="matrix(-1 1.2625e-16 -1.18793e-16 -1 2360 1633)"/>
</g>
<g id="Line 14.77">
<use xlink:href="#path12_stroke" transform="matrix(-1 1.2625e-16 -1.18793e-16 -1 2360 1643.4)"/>
</g>
<g id="Line 14.78">
<use xlink:href="#path13_stroke" transform="matrix(-0.657294 -0.753634 0.740562 -0.671987 2356.47 1639.6)"/>
</g>
<g id="Line 14.79">
<use xlink:href="#path14_stroke" transform="matrix(0.774785 -0.632225 0.61714 0.786853 2350 1645)"/>
</g>
<g id="Line 15.38">
<use xlink:href="#path15_stroke" transform="matrix(6.00317e-17 1 -1 6.2457e-17 2359 1634)"/>
</g>
<g id="Line 15.39">
<use xlink:href="#path15_stroke" transform="matrix(6.00317e-17 1 -1 6.2457e-17 2359 1643)"/>
</g>
<g id="&#207;&#131;">
<use xlink:href="#path46_fill" transform="translate(2508 1656)"/>
</g>
<g id="&#207;&#131;">
<use xlink:href="#path46_fill" transform="translate(2364 1499)"/>
</g>
<g id="&#207;&#131;">
<use xlink:href="#path46_fill" transform="translate(2364 1562)"/>
</g>
<g id="&#207;&#131;">
<use xlink:href="#path46_fill" transform="translate(2364 1628)"/>
</g>
<g id="&#207;&#131;">
<use xlink:href="#path46_fill" transform="translate(2364 1685)"/>
</g>
<g id="&#207;&#131;">
<use xlink:href="#path46_fill" transform="translate(2125 2027)"/>
</g>
<g id="&#207;&#131;">
<use xlink:href="#path46_fill" transform="translate(2334 2217)"/>
</g>
<g id="&#207;&#131;">
<use xlink:href="#path46_fill" transform="translate(2364 1741)"/>
</g>
<g id="&#207;&#131;">
<use xlink:href="#path46_fill" transform="translate(2364 1808)"/>
</g>
<g id="Line 16.32">
<use xlink:href="#path47_stroke" transform="matrix(7.07013e-17 1 -1 5.30316e-17 2158 1994)"/>
</g>
<g id="Line 16.33">
<use xlink:href="#path47_stroke" transform="matrix(9.12559e-17 1 -1 4.10866e-17 2253.4 1993)"/>
</g>
<g id="Line 17.64">
<use xlink:href="#path48_stroke" transform="translate(2158 1994)"/>
</g>
<g id="Line 17.65">
<use xlink:href="#path48_stroke" transform="matrix(1 -2.44929e-16 2.44929e-16 1 2247 1994)"/>
</g>
<g id="Line 17.66">
<use xlink:href="#path48_stroke" transform="translate(2158 2091)"/>
</g>
<g id="Line 16.34">
<use xlink:href="#path49_stroke" transform="matrix(1.14997e-16 1 -1 3.26042e-17 2260 2017)"/>
</g>
<g id="Line 17.67">
<use xlink:href="#path50_stroke" transform="translate(2260 2017)"/>
</g>
<g id="Line 17.68">
<use xlink:href="#path50_stroke" transform="translate(2260 2058)"/>
</g>
<g id="Line 16.44">
<use xlink:href="#path49_stroke" transform="matrix(1.14997e-16 1 -1 3.26042e-17 2450 2215)"/>
</g>
<g id="Line 17.92">
<use xlink:href="#path50_stroke" transform="translate(2450 2215)"/>
</g>
<g id="Line 17.93">
<use xlink:href="#path50_stroke" transform="translate(2450 2256)"/>
</g>
<g id="Line 16.35">
<use xlink:href="#path49_stroke" transform="matrix(-2.37462e-16 -1 1 -1.55069e-16 2317 2056)"/>
</g>
<g id="Line 17.69">
<use xlink:href="#path50_stroke" transform="matrix(-1 1.22465e-16 -1.22465e-16 -1 2317 2056)"/>
</g>
<g id="Line 17.70">
<use xlink:href="#path50_stroke" transform="matrix(-1 1.22465e-16 -1.22465e-16 -1 2317 2015)"/>
</g>
<g id="Line 16.43">
<use xlink:href="#path49_stroke" transform="matrix(-2.37462e-16 -1 1 -1.55069e-16 2514 2256)"/>
</g>
<g id="Line 17.90">
<use xlink:href="#path50_stroke" transform="matrix(-1 1.22465e-16 -1.22465e-16 -1 2514 2256)"/>
</g>
<g id="Line 17.91">
<use xlink:href="#path50_stroke" transform="matrix(-1 1.22465e-16 -1.22465e-16 -1 2514 2215)"/>
</g>
<g id="Line 17.71">
<use xlink:href="#path48_stroke" transform="matrix(1 -2.4243e-16 2.47454e-16 1 2247 2090)"/>
</g>
<g id="X">
<use xlink:href="#path51_fill" transform="translate(2210 2099)"/>
</g>
<g id="a">
<use xlink:href="#path52_fill" transform="translate(2282 2098)"/>
</g>
<g id="1">
<use xlink:href="#path53_fill" transform="translate(2292 2110)"/>
</g>
<g id="T">
<use xlink:href="#path54_fill" transform="translate(2292 2094)"/>
</g>
<g id="a">
<use xlink:href="#path55_fill" transform="translate(2478 2288)"/>
</g>
<g id="2">
<use xlink:href="#path56_fill" transform="translate(2488 2300)"/>
</g>
<g id="T">
<use xlink:href="#path54_fill" transform="translate(2488 2284)"/>
</g>
<g id="P(y = y | x)">
<use xlink:href="#path57_fill" transform="translate(2589 2286)"/>
</g>
<g id="100 x 3">
<use xlink:href="#path58_fill" transform="translate(2177 2027)"/>
<use xlink:href="#path59_fill" transform="translate(2177 2027)" fill="#EB5757"/>
</g>
<g id="Line 16.36">
<use xlink:href="#path47_stroke" transform="matrix(7.07013e-17 1 -1 5.30316e-17 2580 2187)"/>
</g>
<g id="Line 16.37">
<use xlink:href="#path47_stroke" transform="matrix(9.12559e-17 1 -1 4.10866e-17 2678.4 2186)"/>
</g>
<g id="Line 17.72">
<use xlink:href="#path48_stroke" transform="translate(2580 2187)"/>
</g>
<g id="Line 17.73">
<use xlink:href="#path48_stroke" transform="matrix(1 -2.44929e-16 2.44929e-16 1 2672 2187)"/>
</g>
<g id="Line 17.74">
<use xlink:href="#path48_stroke" transform="translate(2580 2284)"/>
</g>
<g id="Line 17.75">
<use xlink:href="#path48_stroke" transform="matrix(1 -2.4243e-16 2.47454e-16 1 2672 2283)"/>
</g>
<g id="100 x 1">
<use xlink:href="#path60_fill" transform="translate(2603 2220)"/>
</g>
<g id="3 x 6">
<use xlink:href="#path61_fill" transform="translate(2269 2027)" fill="#EB5757"/>
<use xlink:href="#path62_fill" transform="translate(2269 2027)"/>
</g>
<g id="=">
<use xlink:href="#path63_fill" transform="translate(2544 2220)"/>
</g>
<g id="=">
<use xlink:href="#path63_fill" transform="translate(2343 2026)"/>
</g>
<g id="i">
<use xlink:href="#path64_fill" transform="translate(2643 2295)"/>
</g>
<g id="P(y = y | x)">
<use xlink:href="#path57_fill" transform="translate(2600 1657)"/>
</g>
<g id="i">
<use xlink:href="#path64_fill" transform="translate(2654 1666)"/>
</g>
<g id="L">
<use xlink:href="#path65_fill" transform="translate(2397 2098)"/>
</g>
<g id="Line 16.39">
<use xlink:href="#path47_stroke" transform="matrix(7.07013e-17 1 -1 5.30316e-17 2360 1994)"/>
</g>
<g id="Line 16.40">
<use xlink:href="#path47_stroke" transform="matrix(9.12559e-17 1 -1 4.10866e-17 2437.4 1993)"/>
</g>
<g id="Line 17.82">
<use xlink:href="#path48_stroke" transform="translate(2360 1994)"/>
</g>
<g id="Line 17.83">
<use xlink:href="#path48_stroke" transform="matrix(1 -2.44929e-16 2.44929e-16 1 2431 1994)"/>
</g>
<g id="Line 17.84">
<use xlink:href="#path48_stroke" transform="translate(2360 2091)"/>
</g>
<g id="Line 17.85">
<use xlink:href="#path48_stroke" transform="matrix(1 -2.4243e-16 2.47454e-16 1 2431 2090)"/>
</g>
<g id="100 x 6">
<use xlink:href="#path66_fill" transform="translate(2371 2027)"/>
</g>
<g id="Line 16.45">
<use xlink:href="#path47_stroke" transform="matrix(7.07013e-17 1 -1 5.30316e-17 2360 2187)"/>
</g>
<g id="Line 16.46">
<use xlink:href="#path47_stroke" transform="matrix(9.12559e-17 1 -1 4.10866e-17 2437.4 2186)"/>
</g>
<g id="Line 17.94">
<use xlink:href="#path48_stroke" transform="translate(2360 2187)"/>
</g>
<g id="Line 17.95">
<use xlink:href="#path48_stroke" transform="matrix(1 -2.44929e-16 2.44929e-16 1 2431 2187)"/>
</g>
<g id="Line 17.96">
<use xlink:href="#path48_stroke" transform="translate(2360 2284)"/>
</g>
<g id="Line 17.97">
<use xlink:href="#path48_stroke" transform="matrix(1 -2.4243e-16 2.47454e-16 1 2431 2283)"/>
</g>
<g id="100 x 6">
<use xlink:href="#path67_fill" transform="translate(2371 2220)"/>
<use xlink:href="#path68_fill" transform="translate(2371 2220)" fill="#EB5757"/>
</g>
<g id="1">
<use xlink:href="#path53_fill" transform="translate(2408 2109)"/>
</g>
<g id="L">
<use xlink:href="#path65_fill" transform="translate(2397 2288)"/>
</g>
<g id="1">
<use xlink:href="#path53_fill" transform="translate(2408 2299)"/>
</g>
<g id="6 x 1">
<use xlink:href="#path69_fill" transform="translate(2464 2222)" fill="#EB5757"/>
<use xlink:href="#path70_fill" transform="translate(2464 2222)" fill="#333333"/>
</g>
<g id="( )">
<use xlink:href="#path71_fill" transform="translate(2142 2023)"/>
</g>
<g id="( )">
<use xlink:href="#path72_fill" transform="translate(2348 2215)"/>
</g>
<g id="stage 1">
<use xlink:href="#path73_fill" transform="translate(2004 2030)"/>
</g>
<g id="stage 1">
<use xlink:href="#path74_fill" transform="translate(2260 1423)"/>
</g>
<g id="stage 2">
<use xlink:href="#path75_fill" transform="translate(2400 1423)"/>
</g>
<g id="stage 2">
<use xlink:href="#path75_fill" transform="translate(2228 2216)"/>
</g>
<g id="Arrow 25">
<use xlink:href="#path76_stroke" transform="matrix(6.12323e-17 1 -1 6.12323e-17 2402 2133)"/>
</g>
<g id="Arrow 26">
<use xlink:href="#path77_stroke" transform="translate(2233 1462)"/>
</g>
<g id="Arrow 26.1">
<use xlink:href="#path77_stroke" transform="translate(2375 1462)"/>
</g>
</g>
</g>
<defs>
<path id="path0_fill" d="M 0 0L 68 0L 68 189L 0 189L 0 0Z"/>
<path id="path1_fill" d="M 0 0L 68 0L 68 373L 0 373L 0 0Z"/>
<path id="path2_fill" d="M 63 31.5C 63 48.897 48.897 63 31.5 63C 14.103 63 0 48.897 0 31.5C 0 14.103 14.103 0 31.5 0C 48.897 0 63 14.103 63 31.5Z"/>
<path id="path3_stroke_2x" d="M 62 31.5C 62 48.3447 48.3447 62 31.5 62L 31.5 64C 49.4493 64 64 49.4493 64 31.5L 62 31.5ZM 31.5 62C 14.6553 62 1 48.3447 1 31.5L -1 31.5C -1 49.4493 13.5507 64 31.5 64L 31.5 62ZM 1 31.5C 1 14.6553 14.6553 1 31.5 1L 31.5 -1C 13.5507 -1 -1 13.5507 -1 31.5L 1 31.5ZM 31.5 1C 48.3447 1 62 14.6553 62 31.5L 64 31.5C 64 13.5507 49.4493 -1 31.5 -1L 31.5 1Z"/>
<path id="path4_fill" d="M 33 16.5C 33 25.6127 25.6127 33 16.5 33C 7.3873 33 0 25.6127 0 16.5C 0 7.3873 7.3873 0 16.5 0C 25.6127 0 33 7.3873 33 16.5Z"/>
<path id="path5_stroke_2x" d="M 32 16.5C 32 25.0604 25.0604 32 16.5 32L 16.5 34C 26.165 34 34 26.165 34 16.5L 32 16.5ZM 16.5 32C 7.93959 32 1 25.0604 1 16.5L -1 16.5C -1 26.165 6.83502 34 16.5 34L 16.5 32ZM 1 16.5C 1 7.93959 7.93959 1 16.5 1L 16.5 -1C 6.83502 -1 -1 6.83502 -1 16.5L 1 16.5ZM 16.5 1C 25.0604 1 32 7.93959 32 16.5L 34 16.5C 34 6.83502 26.165 -1 16.5 -1L 16.5 1Z"/>
<path id="path6_stroke" d="M 0 0L 17 0L 17 -1L 0 -1L 0 0Z"/>
<path id="path7_stroke" d="M 0 0L 17 0L 17 -1.4L 0 -1.4L 0 0Z"/>
<path id="path8_stroke" d="M 0 0L 14.7228 0L 14.7228 -1.5L 0 -1.5L 0 0Z"/>
<path id="path9_stroke" d="M 0 0L 12.8062 0L 12.8062 -1L 0 -1L 0 0Z"/>
<path id="path10_stroke" d="M 0 0L 2 0L 2 -1L 0 -1L 0 0Z"/>
<path id="path11_stroke" d="M 0 0L 10 0L 10 -1L 0 -1L 0 0Z"/>
<path id="path12_stroke" d="M 0 0L 10 0L 10 -1.4L 0 -1.4L 0 0Z"/>
<path id="path13_stroke" d="M 0 0L 8.75757 0L 8.75757 -1.5L 0 -1.5L 0 0Z"/>
<path id="path14_stroke" d="M 0 -5.55112e-17L 7.59224 -5.55112e-17L 7.59224 -1L 0 -1L 0 -5.55112e-17Z"/>
<path id="path15_stroke" d="M 0 0L 1.2 0L 1.2 -1L 0 -1L 0 0Z"/>
<path id="path16_stroke" d="M 168.24 0.353553C 168.436 0.158291 168.436 -0.158291 168.24 -0.353553L 165.058 -3.53553C 164.863 -3.7308 164.547 -3.7308 164.351 -3.53553C 164.156 -3.34027 164.156 -3.02369 164.351 -2.82843L 167.18 0L 164.351 2.82843C 164.156 3.02369 164.156 3.34027 164.351 3.53553C 164.547 3.7308 164.863 3.7308 165.058 3.53553L 168.24 0.353553ZM 0 0.5L 167.887 0.5L 167.887 -0.5L 0 -0.5L 0 0.5Z"/>
<path id="path17_stroke" d="M 124.973 0.353553C 125.168 0.158291 125.168 -0.158291 124.973 -0.353553L 121.791 -3.53553C 121.596 -3.7308 121.279 -3.7308 121.084 -3.53553C 120.889 -3.34027 120.889 -3.02369 121.084 -2.82843L 123.912 0L 121.084 2.82843C 120.889 3.02369 120.889 3.34027 121.084 3.53553C 121.279 3.7308 121.596 3.7308 121.791 3.53553L 124.973 0.353553ZM 0 0.5L 124.619 0.5L 124.619 -0.5L 0 -0.5L 0 0.5Z"/>
<path id="path18_stroke" d="M 96.8937 0.353553C 97.089 0.158291 97.089 -0.158291 96.8937 -0.353553L 93.7117 -3.53553C 93.5165 -3.7308 93.1999 -3.7308 93.0046 -3.53553C 92.8093 -3.34027 92.8093 -3.02369 93.0046 -2.82843L 95.833 0L 93.0046 2.82843C 92.8093 3.02369 92.8093 3.34027 93.0046 3.53553C 93.1999 3.7308 93.5165 3.7308 93.7117 3.53553L 96.8937 0.353553ZM 0 0.5L 96.5401 0.5L 96.5401 -0.5L 0 -0.5L 0 0.5Z"/>
<path id="path19_stroke" d="M 98.3449 0.353553C 98.5401 0.158291 98.5401 -0.158291 98.3449 -0.353553L 95.1629 -3.53553C 94.9676 -3.7308 94.6511 -3.7308 94.4558 -3.53553C 94.2605 -3.34027 94.2605 -3.02369 94.4558 -2.82843L 97.2842 0L 94.4558 2.82843C 94.2605 3.02369 94.2605 3.34027 94.4558 3.53553C 94.6511 3.7308 94.9676 3.7308 95.1629 3.53553L 98.3449 0.353553ZM 0 0.5L 97.9913 0.5L 97.9913 -0.5L 0 -0.5L 0 0.5Z"/>
<path id="path20_stroke" d="M 123.011 0.353553C 123.206 0.158291 123.206 -0.158291 123.011 -0.353553L 119.829 -3.53553C 119.634 -3.7308 119.317 -3.7308 119.122 -3.53553C 118.927 -3.34027 118.927 -3.02369 119.122 -2.82843L 121.95 0L 119.122 2.82843C 118.927 3.02369 118.927 3.34027 119.122 3.53553C 119.317 3.7308 119.634 3.7308 119.829 3.53553L 123.011 0.353553ZM 0 0.5L 122.657 0.5L 122.657 -0.5L 0 -0.5L 0 0.5Z"/>
<path id="path21_stroke" d="M 166.665 0.353553C 166.861 0.158291 166.861 -0.158291 166.665 -0.353553L 163.483 -3.53553C 163.288 -3.7308 162.972 -3.7308 162.776 -3.53553C 162.581 -3.34027 162.581 -3.02369 162.776 -2.82843L 165.605 0L 162.776 2.82843C 162.581 3.02369 162.581 3.34027 162.776 3.53553C 162.972 3.7308 163.288 3.7308 163.483 3.53553L 166.665 0.353553ZM 0 0.5L 166.312 0.5L 166.312 -0.5L 0 -0.5L 0 0.5Z"/>
<path id="path22_stroke" d="M 0 0L 62 0L 62 -1L 0 -1L 0 0Z"/>
<path id="path23_stroke" d="M 54.3536 0.353553C 54.5488 0.158291 54.5488 -0.158291 54.3536 -0.353553L 51.1716 -3.53553C 50.9763 -3.7308 50.6597 -3.7308 50.4645 -3.53553C 50.2692 -3.34027 50.2692 -3.02369 50.4645 -2.82843L 53.2929 0L 50.4645 2.82843C 50.2692 3.02369 50.2692 3.34027 50.4645 3.53553C 50.6597 3.7308 50.9763 3.7308 51.1716 3.53553L 54.3536 0.353553ZM 0 0.5L 54 0.5L 54 -0.5L 0 -0.5L 0 0.5Z"/>
<path id="path24_stroke" d="M 123.423 0.353553C 123.618 0.158291 123.618 -0.158291 123.423 -0.353553L 120.241 -3.53553C 120.045 -3.7308 119.729 -3.7308 119.534 -3.53553C 119.338 -3.34027 119.338 -3.02369 119.534 -2.82843L 122.362 0L 119.534 2.82843C 119.338 3.02369 119.338 3.34027 119.534 3.53553C 119.729 3.7308 120.045 3.7308 120.241 3.53553L 123.423 0.353553ZM 0 0.5L 123.069 0.5L 123.069 -0.5L 0 -0.5L 0 0.5Z"/>
<path id="path25_stroke" d="M 93.3589 0.353553C 93.5542 0.158291 93.5542 -0.158291 93.3589 -0.353553L 90.177 -3.53553C 89.9817 -3.7308 89.6651 -3.7308 89.4698 -3.53553C 89.2746 -3.34027 89.2746 -3.02369 89.4698 -2.82843L 92.2983 0L 89.4698 2.82843C 89.2746 3.02369 89.2746 3.34027 89.4698 3.53553C 89.6651 3.7308 89.9817 3.7308 90.177 3.53553L 93.3589 0.353553ZM 0 0.5L 93.0054 0.5L 93.0054 -0.5L 0 -0.5L 0 0.5Z"/>
<path id="path26_stroke" d="M 93.4019 0.353553C 93.5972 0.158291 93.5972 -0.158291 93.4019 -0.353553L 90.22 -3.53553C 90.0247 -3.7308 89.7081 -3.7308 89.5128 -3.53553C 89.3176 -3.34027 89.3176 -3.02369 89.5128 -2.82843L 92.3413 0L 89.5128 2.82843C 89.3176 3.02369 89.3176 3.34027 89.5128 3.53553C 89.7081 3.7308 90.0247 3.7308 90.22 3.53553L 93.4019 0.353553ZM 0 0.5L 93.0484 0.5L 93.0484 -0.5L 0 -0.5L 0 0.5Z"/>
<path id="path27_stroke" d="M 125.513 0.353553C 125.709 0.158291 125.709 -0.158291 125.513 -0.353553L 122.331 -3.53553C 122.136 -3.7308 121.82 -3.7308 121.624 -3.53553C 121.429 -3.34027 121.429 -3.02369 121.624 -2.82843L 124.453 0L 121.624 2.82843C 121.429 3.02369 121.429 3.34027 121.624 3.53553C 121.82 3.7308 122.136 3.7308 122.331 3.53553L 125.513 0.353553ZM 0 0.5L 125.16 0.5L 125.16 -0.5L 0 -0.5L 0 0.5Z"/>
<path id="path28_stroke" d="M 172.391 0.353553C 172.587 0.158291 172.587 -0.158291 172.391 -0.353553L 169.209 -3.53553C 169.014 -3.7308 168.698 -3.7308 168.502 -3.53553C 168.307 -3.34027 168.307 -3.02369 168.502 -2.82843L 171.331 0L 168.502 2.82843C 168.307 3.02369 168.307 3.34027 168.502 3.53553C 168.698 3.7308 169.014 3.7308 169.209 3.53553L 172.391 0.353553ZM 0 0.5L 172.038 0.5L 172.038 -0.5L 0 -0.5L 0 0.5Z"/>
<path id="path29_stroke" d="M 227.791 0.353553C 227.987 0.158291 227.987 -0.158291 227.791 -0.353553L 224.609 -3.53553C 224.414 -3.7308 224.098 -3.7308 223.902 -3.53553C 223.707 -3.34027 223.707 -3.02369 223.902 -2.82843L 226.731 0L 223.902 2.82843C 223.707 3.02369 223.707 3.34027 223.902 3.53553C 224.098 3.7308 224.414 3.7308 224.609 3.53553L 227.791 0.353553ZM 0 0.5L 227.438 0.5L 227.438 -0.5L 0 -0.5L 0 0.5Z"/>
<path id="path30_stroke" d="M 164.366 0.353553C 164.561 0.158291 164.561 -0.158291 164.366 -0.353553L 161.184 -3.53553C 160.989 -3.7308 160.672 -3.7308 160.477 -3.53553C 160.281 -3.34027 160.281 -3.02369 160.477 -2.82843L 163.305 0L 160.477 2.82843C 160.281 3.02369 160.281 3.34027 160.477 3.53553C 160.672 3.7308 160.989 3.7308 161.184 3.53553L 164.366 0.353553ZM 0 0.5L 164.012 0.5L 164.012 -0.5L 0 -0.5L 0 0.5Z"/>
<path id="path31_stroke" d="M 118.76 0.353553C 118.955 0.158291 118.955 -0.158291 118.76 -0.353553L 115.578 -3.53553C 115.382 -3.7308 115.066 -3.7308 114.871 -3.53553C 114.675 -3.34027 114.675 -3.02369 114.871 -2.82843L 117.699 0L 114.871 2.82843C 114.675 3.02369 114.675 3.34027 114.871 3.53553C 115.066 3.7308 115.382 3.7308 115.578 3.53553L 118.76 0.353553ZM 0 0.5L 118.406 0.5L 118.406 -0.5L 0 -0.5L 0 0.5Z"/>
<path id="path32_stroke" d="M 93.1167 0.353553C 93.312 0.158291 93.312 -0.158291 93.1167 -0.353553L 89.9347 -3.53553C 89.7394 -3.7308 89.4229 -3.7308 89.2276 -3.53553C 89.0323 -3.34027 89.0323 -3.02369 89.2276 -2.82843L 92.056 0L 89.2276 2.82843C 89.0323 3.02369 89.0323 3.34027 89.2276 3.53553C 89.4229 3.7308 89.7394 3.7308 89.9347 3.53553L 93.1167 0.353553ZM 0 0.5L 92.7631 0.5L 92.7631 -0.5L 0 -0.5L 0 0.5Z"/>
<path id="path33_stroke" d="M 97.1213 0.353553C 97.3166 0.158291 97.3166 -0.158291 97.1213 -0.353553L 93.9393 -3.53553C 93.7441 -3.7308 93.4275 -3.7308 93.2322 -3.53553C 93.037 -3.34027 93.037 -3.02369 93.2322 -2.82843L 96.0607 0L 93.2322 2.82843C 93.037 3.02369 93.037 3.34027 93.2322 3.53553C 93.4275 3.7308 93.7441 3.7308 93.9393 3.53553L 97.1213 0.353553ZM 0 0.5L 96.7678 0.5L 96.7678 -0.5L 0 -0.5L 0 0.5Z"/>
<path id="path34_stroke" d="M 124.933 0.353553C 125.128 0.158291 125.128 -0.158291 124.933 -0.353553L 121.751 -3.53553C 121.556 -3.7308 121.239 -3.7308 121.044 -3.53553C 120.848 -3.34027 120.848 -3.02369 121.044 -2.82843L 123.872 0L 121.044 2.82843C 120.848 3.02369 120.848 3.34027 121.044 3.53553C 121.239 3.7308 121.556 3.7308 121.751 3.53553L 124.933 0.353553ZM 0 0.5L 124.579 0.5L 124.579 -0.5L 0 -0.5L 0 0.5Z"/>
<path id="path35_stroke" d="M 177.173 0.353553C 177.368 0.158291 177.368 -0.158291 177.173 -0.353553L 173.991 -3.53553C 173.795 -3.7308 173.479 -3.7308 173.284 -3.53553C 173.088 -3.34027 173.088 -3.02369 173.284 -2.82843L 176.112 0L 173.284 2.82843C 173.088 3.02369 173.088 3.34027 173.284 3.53553C 173.479 3.7308 173.795 3.7308 173.991 3.53553L 177.173 0.353553ZM 0 0.5L 176.819 0.5L 176.819 -0.5L 0 -0.5L 0 0.5Z"/>
<path id="path36_stroke" d="M 211.014 0.353553C 211.21 0.158291 211.21 -0.158291 211.014 -0.353553L 207.832 -3.53553C 207.637 -3.7308 207.321 -3.7308 207.125 -3.53553C 206.93 -3.34027 206.93 -3.02369 207.125 -2.82843L 209.954 0L 207.125 2.82843C 206.93 3.02369 206.93 3.34027 207.125 3.53553C 207.321 3.7308 207.637 3.7308 207.832 3.53553L 211.014 0.353553ZM 0 0.5L 210.661 0.5L 210.661 -0.5L 0 -0.5L 0 0.5Z"/>
<path id="path37_stroke" d="M 157.986 0.353553C 158.181 0.158291 158.181 -0.158291 157.986 -0.353553L 154.804 -3.53553C 154.609 -3.7308 154.292 -3.7308 154.097 -3.53553C 153.902 -3.34027 153.902 -3.02369 154.097 -2.82843L 156.925 0L 154.097 2.82843C 153.902 3.02369 153.902 3.34027 154.097 3.53553C 154.292 3.7308 154.609 3.7308 154.804 3.53553L 157.986 0.353553ZM 0 0.5L 157.632 0.5L 157.632 -0.5L 0 -0.5L 0 0.5Z"/>
<path id="path38_stroke" d="M 112.018 0.353553C 112.213 0.158291 112.213 -0.158291 112.018 -0.353553L 108.836 -3.53553C 108.641 -3.7308 108.324 -3.7308 108.129 -3.53553C 107.934 -3.34027 107.934 -3.02369 108.129 -2.82843L 110.958 0L 108.129 2.82843C 107.934 3.02369 107.934 3.34027 108.129 3.53553C 108.324 3.7308 108.641 3.7308 108.836 3.53553L 112.018 0.353553ZM 0 0.5L 111.665 0.5L 111.665 -0.5L 0 -0.5L 0 0.5Z"/>
<path id="path39_stroke" d="M 92.7981 0.353553C 92.9934 0.158291 92.9934 -0.158291 92.7981 -0.353553L 89.6162 -3.53553C 89.4209 -3.7308 89.1043 -3.7308 88.909 -3.53553C 88.7138 -3.34027 88.7138 -3.02369 88.909 -2.82843L 91.7375 0L 88.909 2.82843C 88.7138 3.02369 88.7138 3.34027 88.909 3.53553C 89.1043 3.7308 89.4209 3.7308 89.6162 3.53553L 92.7981 0.353553ZM 0 0.5L 92.4446 0.5L 92.4446 -0.5L 0 -0.5L 0 0.5Z"/>
<path id="path40_stroke" d="M 92.3807 0.353553C 92.576 0.158291 92.576 -0.158291 92.3807 -0.353553L 89.1987 -3.53553C 89.0035 -3.7308 88.6869 -3.7308 88.4916 -3.53553C 88.2964 -3.34027 88.2964 -3.02369 88.4916 -2.82843L 91.3201 0L 88.4916 2.82843C 88.2964 3.02369 88.2964 3.34027 88.4916 3.53553C 88.6869 3.7308 89.0035 3.7308 89.1987 3.53553L 92.3807 0.353553ZM 0 0.5L 92.0272 0.5L 92.0272 -0.5L 0 -0.5L 0 0.5Z"/>
<path id="path41_stroke" d="M 134.043 0.353553C 134.239 0.158291 134.239 -0.158291 134.043 -0.353553L 130.862 -3.53553C 130.666 -3.7308 130.35 -3.7308 130.154 -3.53553C 129.959 -3.34027 129.959 -3.02369 130.154 -2.82843L 132.983 0L 130.154 2.82843C 129.959 3.02369 129.959 3.34027 130.154 3.53553C 130.35 3.7308 130.666 3.7308 130.862 3.53553L 134.043 0.353553ZM 0 0.5L 133.69 0.5L 133.69 -0.5L 0 -0.5L 0 0.5Z"/>
<path id="path42_fill" d="M 27.7998 17L 26.165 17L 26.165 6.16309L 22.8867 7.36719L 22.8867 5.89062L 27.5449 4.1416L 27.7998 4.1416L 27.7998 17ZM 40.3242 7.54297C 40.3242 8.18164 40.1543 8.75 39.8145 9.24805C 39.4805 9.74609 39.0264 10.1357 38.4521 10.417C 39.1201 10.7041 39.6475 11.123 40.0342 11.6738C 40.4268 12.2246 40.623 12.8486 40.623 13.5459C 40.623 14.6533 40.248 15.5352 39.498 16.1914C 38.7539 16.8477 37.7725 17.1758 36.5537 17.1758C 35.3232 17.1758 34.3359 16.8477 33.5918 16.1914C 32.8535 15.5293 32.4844 14.6475 32.4844 13.5459C 32.4844 12.8545 32.6719 12.2305 33.0469 11.6738C 33.4277 11.1172 33.9521 10.6953 34.6201 10.4082C 34.0518 10.127 33.6035 9.7373 33.2754 9.23926C 32.9473 8.74121 32.7832 8.17578 32.7832 7.54297C 32.7832 6.46484 33.1289 5.60938 33.8203 4.97656C 34.5117 4.34375 35.4229 4.02734 36.5537 4.02734C 37.6787 4.02734 38.5869 4.34375 39.2783 4.97656C 39.9756 5.60938 40.3242 6.46484 40.3242 7.54297ZM 38.9971 13.5107C 38.9971 12.7959 38.7686 12.2129 38.3115 11.7617C 37.8604 11.3105 37.2686 11.085 36.5361 11.085C 35.8037 11.085 35.2148 11.3076 34.7695 11.7529C 34.3301 12.1982 34.1104 12.7842 34.1104 13.5107C 34.1104 14.2373 34.3242 14.8086 34.752 15.2246C 35.1855 15.6406 35.7861 15.8486 36.5537 15.8486C 37.3154 15.8486 37.9131 15.6406 38.3467 15.2246C 38.7803 14.8027 38.9971 14.2314 38.9971 13.5107ZM 36.5537 5.36328C 35.915 5.36328 35.3965 5.5625 34.998 5.96094C 34.6055 6.35352 34.4092 6.88965 34.4092 7.56934C 34.4092 8.21973 34.6025 8.74707 34.9893 9.15137C 35.3818 9.5498 35.9033 9.74902 36.5537 9.74902C 37.2041 9.74902 37.7227 9.5498 38.1094 9.15137C 38.502 8.74707 38.6982 8.21973 38.6982 7.56934C 38.6982 6.91895 38.4961 6.38867 38.0918 5.97852C 37.6875 5.56836 37.1748 5.36328 36.5537 5.36328ZM 9.82617 35.7588L 11.6543 28.4902L 13.2803 28.4902L 10.5117 38L 9.19336 38L 6.88184 30.793L 4.63184 38L 3.31348 38L 0.553711 28.4902L 2.1709 28.4902L 4.04297 35.6094L 6.25781 28.4902L 7.56738 28.4902L 9.82617 35.7588ZM 18.8877 38.1758C 17.5986 38.1758 16.5498 37.7539 15.7412 36.9102C 14.9326 36.0605 14.5283 34.9268 14.5283 33.5088L 14.5283 33.21C 14.5283 32.2666 14.707 31.4258 15.0645 30.6875C 15.4277 29.9434 15.9316 29.3633 16.5762 28.9473C 17.2266 28.5254 17.9297 28.3145 18.6855 28.3145C 19.9219 28.3145 20.8828 28.7217 21.5684 29.5361C 22.2539 30.3506 22.5967 31.5166 22.5967 33.0342L 22.5967 33.7109L 16.1543 33.7109C 16.1777 34.6484 16.4502 35.4072 16.9717 35.9873C 17.499 36.5615 18.167 36.8486 18.9756 36.8486C 19.5498 36.8486 20.0361 36.7314 20.4346 36.4971C 20.833 36.2627 21.1816 35.9521 21.4805 35.5654L 22.4736 36.3389C 21.6768 37.5635 20.4814 38.1758 18.8877 38.1758ZM 18.6855 29.6504C 18.0293 29.6504 17.4785 29.8906 17.0332 30.3711C 16.5879 30.8457 16.3125 31.5137 16.207 32.375L 20.9707 32.375L 20.9707 32.252C 20.9238 31.4258 20.7012 30.7871 20.3027 30.3359C 19.9043 29.8789 19.3652 29.6504 18.6855 29.6504ZM 26.2529 38L 24.627 38L 24.627 28.4902L 26.2529 28.4902L 26.2529 38ZM 24.4951 25.9678C 24.4951 25.7041 24.5742 25.4814 24.7324 25.2998C 24.8965 25.1182 25.1367 25.0273 25.4531 25.0273C 25.7695 25.0273 26.0098 25.1182 26.1738 25.2998C 26.3379 25.4814 26.4199 25.7041 26.4199 25.9678C 26.4199 26.2314 26.3379 26.4512 26.1738 26.627C 26.0098 26.8027 25.7695 26.8906 25.4531 26.8906C 25.1367 26.8906 24.8965 26.8027 24.7324 26.627C 24.5742 26.4512 24.4951 26.2314 24.4951 25.9678ZM 28.4766 33.166C 28.4766 31.6836 28.8193 30.5059 29.5049 29.6328C 30.1904 28.7539 31.0986 28.3145 32.2295 28.3145C 33.3896 28.3145 34.2949 28.7246 34.9453 29.5449L 35.0244 28.4902L 36.5098 28.4902L 36.5098 37.7715C 36.5098 39.002 36.1436 39.9717 35.4111 40.6807C 34.6846 41.3896 33.7061 41.7441 32.4756 41.7441C 31.79 41.7441 31.1191 41.5977 30.4629 41.3047C 29.8066 41.0117 29.3057 40.6104 28.96 40.1006L 29.8037 39.125C 30.501 39.9863 31.3535 40.417 32.3613 40.417C 33.1523 40.417 33.7676 40.1943 34.207 39.749C 34.6523 39.3037 34.875 38.6768 34.875 37.8682L 34.875 37.0508C 34.2246 37.8008 33.3369 38.1758 32.2119 38.1758C 31.0986 38.1758 30.1963 37.7275 29.5049 36.8311C 28.8193 35.9346 28.4766 34.7129 28.4766 33.166ZM 30.1113 33.3506C 30.1113 34.4229 30.3311 35.2666 30.7705 35.8818C 31.21 36.4912 31.8252 36.7959 32.6162 36.7959C 33.6416 36.7959 34.3945 36.3301 34.875 35.3984L 34.875 31.0566C 34.377 30.1484 33.6299 29.6943 32.6338 29.6943C 31.8428 29.6943 31.2246 30.002 30.7793 30.6172C 30.334 31.2324 30.1113 32.1436 30.1113 33.3506ZM 40.5967 29.6416C 41.3174 28.7568 42.2549 28.3145 43.4092 28.3145C 45.4189 28.3145 46.4326 29.4482 46.4502 31.7158L 46.4502 38L 44.8242 38L 44.8242 31.707C 44.8184 31.0215 44.6602 30.5146 44.3496 30.1865C 44.0449 29.8584 43.5674 29.6943 42.917 29.6943C 42.3896 29.6943 41.9268 29.835 41.5283 30.1162C 41.1299 30.3975 40.8193 30.7666 40.5967 31.2236L 40.5967 38L 38.9707 38L 38.9707 24.5L 40.5967 24.5L 40.5967 29.6416ZM 51.0908 26.1875L 51.0908 28.4902L 52.8662 28.4902L 52.8662 29.7471L 51.0908 29.7471L 51.0908 35.6445C 51.0908 36.0254 51.1699 36.3125 51.3281 36.5059C 51.4863 36.6934 51.7559 36.7871 52.1367 36.7871C 52.3242 36.7871 52.582 36.752 52.9102 36.6816L 52.9102 38C 52.4824 38.1172 52.0664 38.1758 51.6621 38.1758C 50.9355 38.1758 50.3877 37.9561 50.0186 37.5166C 49.6494 37.0771 49.4648 36.4531 49.4648 35.6445L 49.4648 29.7471L 47.7334 29.7471L 47.7334 28.4902L 49.4648 28.4902L 49.4648 26.1875L 51.0908 26.1875ZM 60.3105 35.4775C 60.3105 35.0381 60.1436 34.6982 59.8096 34.458C 59.4814 34.2119 58.9043 34.001 58.0781 33.8252C 57.2578 33.6494 56.6045 33.4385 56.1182 33.1924C 55.6377 32.9463 55.2803 32.6533 55.0459 32.3135C 54.8174 31.9736 54.7031 31.5693 54.7031 31.1006C 54.7031 30.3213 55.0312 29.6621 55.6875 29.123C 56.3496 28.584 57.1934 28.3145 58.2188 28.3145C 59.2969 28.3145 60.1699 28.5928 60.8379 29.1494C 61.5117 29.7061 61.8486 30.418 61.8486 31.2852L 60.2139 31.2852C 60.2139 30.8398 60.0234 30.4561 59.6426 30.1338C 59.2676 29.8115 58.793 29.6504 58.2188 29.6504C 57.627 29.6504 57.1641 29.7793 56.8301 30.0371C 56.4961 30.2949 56.3291 30.6318 56.3291 31.0479C 56.3291 31.4404 56.4844 31.7363 56.7949 31.9355C 57.1055 32.1348 57.665 32.3252 58.4736 32.5068C 59.2881 32.6885 59.9473 32.9053 60.4512 33.1572C 60.9551 33.4092 61.3271 33.7139 61.5674 34.0713C 61.8135 34.4229 61.9365 34.8535 61.9365 35.3633C 61.9365 36.2129 61.5967 36.8955 60.917 37.4111C 60.2373 37.9209 59.3555 38.1758 58.2715 38.1758C 57.5098 38.1758 56.8359 38.041 56.25 37.7715C 55.6641 37.502 55.2041 37.127 54.8701 36.6465C 54.542 36.1602 54.3779 35.6357 54.3779 35.0732L 56.0039 35.0732C 56.0332 35.6182 56.25 36.0518 56.6543 36.374C 57.0645 36.6904 57.6035 36.8486 58.2715 36.8486C 58.8867 36.8486 59.3789 36.7256 59.748 36.4795C 60.123 36.2275 60.3105 35.8936 60.3105 35.4775Z"/>
<path id="path43_fill" d="M 33.8906 4.19434L 33.8906 5.57422L 33.5918 5.57422C 32.3262 5.59766 31.3184 5.97266 30.5684 6.69922C 29.8184 7.42578 29.3848 8.44824 29.2676 9.7666C 29.9414 8.99316 30.8613 8.60645 32.0273 8.60645C 33.1406 8.60645 34.0283 8.99902 34.6904 9.78418C 35.3584 10.5693 35.6924 11.583 35.6924 12.8252C 35.6924 14.1436 35.332 15.1982 34.6113 15.9893C 33.8965 16.7803 32.9355 17.1758 31.7285 17.1758C 30.5039 17.1758 29.5107 16.707 28.749 15.7695C 27.9873 14.8262 27.6064 13.6133 27.6064 12.1309L 27.6064 11.5068C 27.6064 9.15137 28.1074 7.35254 29.1094 6.11035C 30.1172 4.8623 31.6143 4.22363 33.6006 4.19434L 33.8906 4.19434ZM 31.7549 9.95996C 31.1982 9.95996 30.6855 10.127 30.2168 10.4609C 29.748 10.7949 29.4229 11.2139 29.2412 11.7178L 29.2412 12.3154C 29.2412 13.3701 29.4785 14.2197 29.9531 14.8643C 30.4277 15.5088 31.0195 15.8311 31.7285 15.8311C 32.4609 15.8311 33.0352 15.5615 33.4512 15.0225C 33.873 14.4834 34.084 13.7773 34.084 12.9043C 34.084 12.0254 33.8701 11.3164 33.4424 10.7773C 33.0205 10.2324 32.458 9.95996 31.7549 9.95996ZM 9.82617 35.7588L 11.6543 28.4902L 13.2803 28.4902L 10.5117 38L 9.19336 38L 6.88184 30.793L 4.63184 38L 3.31348 38L 0.553711 28.4902L 2.1709 28.4902L 4.04297 35.6094L 6.25781 28.4902L 7.56738 28.4902L 9.82617 35.7588ZM 18.8877 38.1758C 17.5986 38.1758 16.5498 37.7539 15.7412 36.9102C 14.9326 36.0605 14.5283 34.9268 14.5283 33.5088L 14.5283 33.21C 14.5283 32.2666 14.707 31.4258 15.0645 30.6875C 15.4277 29.9434 15.9316 29.3633 16.5762 28.9473C 17.2266 28.5254 17.9297 28.3145 18.6855 28.3145C 19.9219 28.3145 20.8828 28.7217 21.5684 29.5361C 22.2539 30.3506 22.5967 31.5166 22.5967 33.0342L 22.5967 33.7109L 16.1543 33.7109C 16.1777 34.6484 16.4502 35.4072 16.9717 35.9873C 17.499 36.5615 18.167 36.8486 18.9756 36.8486C 19.5498 36.8486 20.0361 36.7314 20.4346 36.4971C 20.833 36.2627 21.1816 35.9521 21.4805 35.5654L 22.4736 36.3389C 21.6768 37.5635 20.4814 38.1758 18.8877 38.1758ZM 18.6855 29.6504C 18.0293 29.6504 17.4785 29.8906 17.0332 30.3711C 16.5879 30.8457 16.3125 31.5137 16.207 32.375L 20.9707 32.375L 20.9707 32.252C 20.9238 31.4258 20.7012 30.7871 20.3027 30.3359C 19.9043 29.8789 19.3652 29.6504 18.6855 29.6504ZM 26.2529 38L 24.627 38L 24.627 28.4902L 26.2529 28.4902L 26.2529 38ZM 24.4951 25.9678C 24.4951 25.7041 24.5742 25.4814 24.7324 25.2998C 24.8965 25.1182 25.1367 25.0273 25.4531 25.0273C 25.7695 25.0273 26.0098 25.1182 26.1738 25.2998C 26.3379 25.4814 26.4199 25.7041 26.4199 25.9678C 26.4199 26.2314 26.3379 26.4512 26.1738 26.627C 26.0098 26.8027 25.7695 26.8906 25.4531 26.8906C 25.1367 26.8906 24.8965 26.8027 24.7324 26.627C 24.5742 26.4512 24.4951 26.2314 24.4951 25.9678ZM 28.4766 33.166C 28.4766 31.6836 28.8193 30.5059 29.5049 29.6328C 30.1904 28.7539 31.0986 28.3145 32.2295 28.3145C 33.3896 28.3145 34.2949 28.7246 34.9453 29.5449L 35.0244 28.4902L 36.5098 28.4902L 36.5098 37.7715C 36.5098 39.002 36.1436 39.9717 35.4111 40.6807C 34.6846 41.3896 33.7061 41.7441 32.4756 41.7441C 31.79 41.7441 31.1191 41.5977 30.4629 41.3047C 29.8066 41.0117 29.3057 40.6104 28.96 40.1006L 29.8037 39.125C 30.501 39.9863 31.3535 40.417 32.3613 40.417C 33.1523 40.417 33.7676 40.1943 34.207 39.749C 34.6523 39.3037 34.875 38.6768 34.875 37.8682L 34.875 37.0508C 34.2246 37.8008 33.3369 38.1758 32.2119 38.1758C 31.0986 38.1758 30.1963 37.7275 29.5049 36.8311C 28.8193 35.9346 28.4766 34.7129 28.4766 33.166ZM 30.1113 33.3506C 30.1113 34.4229 30.3311 35.2666 30.7705 35.8818C 31.21 36.4912 31.8252 36.7959 32.6162 36.7959C 33.6416 36.7959 34.3945 36.3301 34.875 35.3984L 34.875 31.0566C 34.377 30.1484 33.6299 29.6943 32.6338 29.6943C 31.8428 29.6943 31.2246 30.002 30.7793 30.6172C 30.334 31.2324 30.1113 32.1436 30.1113 33.3506ZM 40.5967 29.6416C 41.3174 28.7568 42.2549 28.3145 43.4092 28.3145C 45.4189 28.3145 46.4326 29.4482 46.4502 31.7158L 46.4502 38L 44.8242 38L 44.8242 31.707C 44.8184 31.0215 44.6602 30.5146 44.3496 30.1865C 44.0449 29.8584 43.5674 29.6943 42.917 29.6943C 42.3896 29.6943 41.9268 29.835 41.5283 30.1162C 41.1299 30.3975 40.8193 30.7666 40.5967 31.2236L 40.5967 38L 38.9707 38L 38.9707 24.5L 40.5967 24.5L 40.5967 29.6416ZM 51.0908 26.1875L 51.0908 28.4902L 52.8662 28.4902L 52.8662 29.7471L 51.0908 29.7471L 51.0908 35.6445C 51.0908 36.0254 51.1699 36.3125 51.3281 36.5059C 51.4863 36.6934 51.7559 36.7871 52.1367 36.7871C 52.3242 36.7871 52.582 36.752 52.9102 36.6816L 52.9102 38C 52.4824 38.1172 52.0664 38.1758 51.6621 38.1758C 50.9355 38.1758 50.3877 37.9561 50.0186 37.5166C 49.6494 37.0771 49.4648 36.4531 49.4648 35.6445L 49.4648 29.7471L 47.7334 29.7471L 47.7334 28.4902L 49.4648 28.4902L 49.4648 26.1875L 51.0908 26.1875ZM 60.3105 35.4775C 60.3105 35.0381 60.1436 34.6982 59.8096 34.458C 59.4814 34.2119 58.9043 34.001 58.0781 33.8252C 57.2578 33.6494 56.6045 33.4385 56.1182 33.1924C 55.6377 32.9463 55.2803 32.6533 55.0459 32.3135C 54.8174 31.9736 54.7031 31.5693 54.7031 31.1006C 54.7031 30.3213 55.0312 29.6621 55.6875 29.123C 56.3496 28.584 57.1934 28.3145 58.2188 28.3145C 59.2969 28.3145 60.1699 28.5928 60.8379 29.1494C 61.5117 29.7061 61.8486 30.418 61.8486 31.2852L 60.2139 31.2852C 60.2139 30.8398 60.0234 30.4561 59.6426 30.1338C 59.2676 29.8115 58.793 29.6504 58.2188 29.6504C 57.627 29.6504 57.1641 29.7793 56.8301 30.0371C 56.4961 30.2949 56.3291 30.6318 56.3291 31.0479C 56.3291 31.4404 56.4844 31.7363 56.7949 31.9355C 57.1055 32.1348 57.665 32.3252 58.4736 32.5068C 59.2881 32.6885 59.9473 32.9053 60.4512 33.1572C 60.9551 33.4092 61.3271 33.7139 61.5674 34.0713C 61.8135 34.4229 61.9365 34.8535 61.9365 35.3633C 61.9365 36.2129 61.5967 36.8955 60.917 37.4111C 60.2373 37.9209 59.3555 38.1758 58.2715 38.1758C 57.5098 38.1758 56.8359 38.041 56.25 37.7715C 55.6641 37.502 55.2041 37.127 54.8701 36.6465C 54.542 36.1602 54.3779 35.6357 54.3779 35.0732L 56.0039 35.0732C 56.0332 35.6182 56.25 36.0518 56.6543 36.374C 57.0645 36.6904 57.6035 36.8486 58.2715 36.8486C 58.8867 36.8486 59.3789 36.7256 59.748 36.4795C 60.123 36.2275 60.3105 35.8936 60.3105 35.4775Z"/>
<path id="path44_fill" d="M 1.46387 11.8057C 1.46387 10.4814 1.63965 9.20996 1.99121 7.99121C 2.34863 6.77246 2.87891 5.66504 3.58203 4.66895C 4.28516 3.67285 5.01465 2.96973 5.77051 2.55957L 6.10449 3.63184C 5.24902 4.28809 4.5459 5.29004 3.99512 6.6377C 3.4502 7.98535 3.15137 9.49414 3.09863 11.1641L 3.08984 11.9111C 3.08984 14.1729 3.50293 16.1357 4.3291 17.7998C 4.82715 18.7959 5.41895 19.5752 6.10449 20.1377L 5.77051 21.1309C 4.99121 20.6973 4.24707 19.9707 3.53809 18.9512C 2.15527 16.959 1.46387 14.5771 1.46387 11.8057ZM 11.4307 11.8936C 11.4307 13.2002 11.2578 14.4541 10.9121 15.6553C 10.5723 16.8506 10.0479 17.9551 9.33887 18.9688C 8.63574 19.9824 7.89746 20.7031 7.12402 21.1309L 6.78125 20.1377C 7.68359 19.4463 8.40723 18.374 8.95215 16.9209C 9.50293 15.4619 9.78418 13.8447 9.7959 12.0693L 9.7959 11.7881C 9.7959 10.5576 9.66699 9.41504 9.40918 8.36035C 9.15137 7.29981 8.79102 6.35059 8.32812 5.5127C 7.87109 4.6748 7.35547 4.02148 6.78125 3.55273L 7.12402 2.55957C 7.89746 2.9873 8.63281 3.70215 9.33008 4.7041C 10.0332 5.70605 10.5576 6.81055 10.9033 8.01758C 11.2549 9.22461 11.4307 10.5166 11.4307 11.8936Z"/>
<path id="path45_stroke" d="M 0 0L 33 0L 33 -0.5L 0 -0.5L 0 0Z"/>
<path id="path46_fill" d="M 10.4834 8.83496L 7.9873 8.83496C 9.15918 9.70215 9.74512 10.9355 9.74512 12.5352L 9.74512 12.6846C 9.74512 13.5049 9.56641 14.2607 9.20898 14.9521C 8.85156 15.6377 8.34766 16.1797 7.69727 16.5781C 7.05273 16.9766 6.32031 17.1758 5.5 17.1758C 4.22266 17.1758 3.19434 16.7334 2.41504 15.8486C 1.63574 14.958 1.24609 13.7656 1.24609 12.2715L 1.24609 12.1572C 1.24609 11.2666 1.41895 10.4668 1.76465 9.75781C 2.11035 9.04883 2.59961 8.49512 3.23242 8.09668C 3.87109 7.69824 4.60059 7.49609 5.4209 7.49023L 10.4834 7.49023L 10.4834 8.83496ZM 2.88086 12.3506C 2.88086 13.4229 3.11523 14.2754 3.58398 14.9082C 4.05273 15.5352 4.69141 15.8486 5.5 15.8486C 6.31445 15.8486 6.95312 15.5322 7.41602 14.8994C 7.88477 14.2607 8.11914 13.3467 8.11914 12.1572C 8.11914 11.1494 7.88184 10.3438 7.40723 9.74023C 6.93848 9.13672 6.29688 8.83496 5.48242 8.83496C 4.67969 8.83496 4.04395 9.13379 3.5752 9.73145C 3.1123 10.3291 2.88086 11.2021 2.88086 12.3506Z"/>
<path id="path47_stroke" d="M 0 0L 97 0L 97 -1L 0 -1L 0 0Z"/>
<path id="path48_stroke" d="M 0 0L 7 0L 7 -1L 0 -1L 0 0Z"/>
<path id="path49_stroke" d="M 0 0L 41 0L 41 -1L 0 -1L 0 0Z"/>
<path id="path50_stroke" d="M 0 0L 5 0L 5 -1L 0 -1L 0 0Z"/>
<path id="path51_fill" d="M 6.01758 9.10742L 9.08496 4.20312L 11.0713 4.20312L 7.02832 10.5488L 11.168 17L 9.16406 17L 6.01758 12.0078L 2.85352 17L 0.858398 17L 5.00684 10.5488L 0.955078 4.20312L 2.93262 4.20312L 6.01758 9.10742Z"/>
<path id="path52_fill" d="M 7.20605 17C 7.1123 16.8125 7.03613 16.4785 6.97754 15.998C 6.22168 16.7832 5.31934 17.1758 4.27051 17.1758C 3.33301 17.1758 2.5625 16.9121 1.95898 16.3848C 1.36133 15.8516 1.0625 15.1777 1.0625 14.3633C 1.0625 13.373 1.4375 12.6055 2.1875 12.0605C 2.94336 11.5098 4.00391 11.2344 5.36914 11.2344L 6.95117 11.2344L 6.95117 10.4873C 6.95117 9.91895 6.78125 9.46777 6.44141 9.13379C 6.10156 8.79395 5.60059 8.62402 4.93848 8.62402C 4.3584 8.62402 3.87207 8.77051 3.47949 9.06348C 3.08691 9.35645 2.89062 9.71094 2.89062 10.127L 1.25586 10.127C 1.25586 9.65234 1.42285 9.19531 1.75684 8.75586C 2.09668 8.31055 2.55371 7.95898 3.12793 7.70117C 3.70801 7.44336 4.34375 7.31445 5.03516 7.31445C 6.13086 7.31445 6.98926 7.58984 7.61035 8.14062C 8.23145 8.68555 8.55371 9.43848 8.57715 10.3994L 8.57715 14.7764C 8.57715 15.6494 8.68848 16.3438 8.91113 16.8594L 8.91113 17L 7.20605 17ZM 4.50781 15.7607C 5.01758 15.7607 5.50098 15.6289 5.95801 15.3652C 6.41504 15.1016 6.74609 14.7588 6.95117 14.3369L 6.95117 12.3857L 5.67676 12.3857C 3.68457 12.3857 2.68848 12.9688 2.68848 14.1348C 2.68848 14.6445 2.8584 15.043 3.19824 15.3301C 3.53809 15.6172 3.97461 15.7607 4.50781 15.7607Z"/>
<path id="path53_fill" d="M 4.40234 11L 3.3125 11L 3.3125 3.77539L 1.12695 4.57812L 1.12695 3.59375L 4.23242 2.42773L 4.40234 2.42773L 4.40234 11Z"/>
<path id="path54_fill" d="M 7.30469 3.39453L 4.5625 3.39453L 4.5625 11L 3.44336 11L 3.44336 3.39453L 0.707031 3.39453L 0.707031 2.46875L 7.30469 2.46875L 7.30469 3.39453Z"/>
<path id="path55_fill" d="M 7.20605 17C 7.1123 16.8125 7.03613 16.4785 6.97754 15.998C 6.22168 16.7832 5.31934 17.1758 4.27051 17.1758C 3.33301 17.1758 2.5625 16.9121 1.95898 16.3848C 1.36133 15.8516 1.0625 15.1777 1.0625 14.3633C 1.0625 13.373 1.4375 12.6055 2.1875 12.0605C 2.94336 11.5098 4.00391 11.2344 5.36914 11.2344L 6.95117 11.2344L 6.95117 10.4873C 6.95117 9.91895 6.78125 9.46777 6.44141 9.13379C 6.10156 8.79395 5.60059 8.62402 4.93848 8.62402C 4.3584 8.62402 3.87207 8.77051 3.47949 9.06348C 3.08691 9.35645 2.89062 9.71094 2.89062 10.127L 1.25586 10.127C 1.25586 9.65234 1.42285 9.19531 1.75684 8.75586C 2.09668 8.31055 2.55371 7.95898 3.12793 7.70117C 3.70801 7.44336 4.34375 7.31445 5.03516 7.31445C 6.13086 7.31445 6.98926 7.58984 7.61035 8.14062C 8.23145 8.68555 8.55371 9.43848 8.57715 10.3994L 8.57715 14.7764C 8.57715 15.6494 8.68848 16.3438 8.91113 16.8594L 8.91113 17L 7.20605 17ZM 4.50781 15.7607C 5.01758 15.7607 5.50098 15.6289 5.95801 15.3652C 6.41504 15.1016 6.74609 14.7588 6.95117 14.3369L 6.95117 12.3857L 5.67676 12.3857C 3.68457 12.3857 2.68848 12.9688 2.68848 14.1348C 2.68848 14.6445 2.8584 15.043 3.19824 15.3301C 3.53809 15.6172 3.97461 15.7607 4.50781 15.7607Z"/>
<path id="path56_fill" d="M 6.42969 11L 0.839844 11L 0.839844 10.2207L 3.79297 6.93945C 4.23047 6.44336 4.53125 6.04102 4.69531 5.73242C 4.86328 5.41992 4.94727 5.09766 4.94727 4.76562C 4.94727 4.32031 4.8125 3.95508 4.54297 3.66992C 4.27344 3.38477 3.91406 3.24219 3.46484 3.24219C 2.92578 3.24219 2.50586 3.39648 2.20508 3.70508C 1.9082 4.00977 1.75977 4.43555 1.75977 4.98242L 0.675781 4.98242C 0.675781 4.19727 0.927734 3.5625 1.43164 3.07812C 1.93945 2.59375 2.61719 2.35156 3.46484 2.35156C 4.25781 2.35156 4.88477 2.56055 5.3457 2.97852C 5.80664 3.39258 6.03711 3.94531 6.03711 4.63672C 6.03711 5.47656 5.50195 6.47656 4.43164 7.63672L 2.14648 10.1152L 6.42969 10.1152L 6.42969 11Z"/>
<path id="path57_fill" d="M 3.50098 11.9902L 3.50098 17L 1.81348 17L 1.81348 4.20312L 6.5332 4.20312C 7.93359 4.20312 9.0293 4.56055 9.82031 5.27539C 10.6172 5.99023 11.0156 6.93652 11.0156 8.11426C 11.0156 9.35645 10.626 10.3145 9.84668 10.9883C 9.07324 11.6562 7.96289 11.9902 6.51562 11.9902L 3.50098 11.9902ZM 3.50098 10.6104L 6.5332 10.6104C 7.43555 10.6104 8.12695 10.3994 8.60742 9.97754C 9.08789 9.5498 9.32812 8.93457 9.32812 8.13184C 9.32812 7.37012 9.08789 6.76074 8.60742 6.30371C 8.12695 5.84668 7.46777 5.60938 6.62988 5.5918L 3.50098 5.5918L 3.50098 10.6104ZM 12.8525 11.8057C 12.8525 10.4814 13.0283 9.20996 13.3799 7.99121C 13.7373 6.77246 14.2676 5.66504 14.9707 4.66895C 15.6738 3.67285 16.4033 2.96973 17.1592 2.55957L 17.4932 3.63184C 16.6377 4.28809 15.9346 5.29004 15.3838 6.6377C 14.8389 7.98535 14.54 9.49414 14.4873 11.1641L 14.4785 11.9111C 14.4785 14.1729 14.8916 16.1357 15.7178 17.7998C 16.2158 18.7959 16.8076 19.5752 17.4932 20.1377L 17.1592 21.1309C 16.3799 20.6973 15.6357 19.9707 14.9268 18.9512C 13.5439 16.959 12.8525 14.5771 12.8525 11.8057ZM 22.1777 14.6182L 24.3926 7.49023L 26.1328 7.49023L 22.3096 18.4678C 21.7178 20.0498 20.7773 20.8408 19.4883 20.8408L 19.1807 20.8145L 18.5742 20.7002L 18.5742 19.3818L 19.0137 19.417C 19.5645 19.417 19.9922 19.3057 20.2969 19.083C 20.6074 18.8604 20.8623 18.4531 21.0615 17.8613L 21.4219 16.8945L 18.0293 7.49023L 19.8047 7.49023L 22.1777 14.6182ZM 39.4922 9.8457L 32.1621 9.8457L 32.1621 8.43066L 39.4922 8.43066L 39.4922 9.8457ZM 39.4922 13.4932L 32.1621 13.4932L 32.1621 12.0869L 39.4922 12.0869L 39.4922 13.4932ZM 49.5117 14.6182L 51.7266 7.49023L 53.4668 7.49023L 49.6436 18.4678C 49.0518 20.0498 48.1113 20.8408 46.8223 20.8408L 46.5146 20.8145L 45.9082 20.7002L 45.9082 19.3818L 46.3477 19.417C 46.8984 19.417 47.3262 19.3057 47.6309 19.083C 47.9414 18.8604 48.1963 18.4531 48.3955 17.8613L 48.7559 16.8945L 45.3633 7.49023L 47.1387 7.49023L 49.5117 14.6182ZM 65.4727 19.373L 64.1631 19.373L 64.1631 4.20312L 65.4727 4.20312L 65.4727 19.373ZM 75.9053 10.9619L 78.0146 7.49023L 79.9131 7.49023L 76.8018 12.1924L 80.0098 17L 78.1289 17L 75.9316 13.4404L 73.7344 17L 71.8447 17L 75.0527 12.1924L 71.9414 7.49023L 73.8223 7.49023L 75.9053 10.9619ZM 85.3975 11.8936C 85.3975 13.2002 85.2246 14.4541 84.8789 15.6553C 84.5391 16.8506 84.0146 17.9551 83.3057 18.9688C 82.6025 19.9824 81.8643 20.7031 81.0908 21.1309L 80.748 20.1377C 81.6504 19.4463 82.374 18.374 82.9189 16.9209C 83.4697 15.4619 83.751 13.8447 83.7627 12.0693L 83.7627 11.7881C 83.7627 10.5576 83.6338 9.41504 83.376 8.36035C 83.1182 7.29981 82.7578 6.35059 82.2949 5.5127C 81.8379 4.6748 81.3223 4.02148 80.748 3.55273L 81.0908 2.55957C 81.8643 2.9873 82.5996 3.70215 83.2969 4.7041C 84 5.70605 84.5244 6.81055 84.8701 8.01758C 85.2217 9.22461 85.3975 10.5166 85.3975 11.8936Z"/>
<path id="path58_fill" d="M 6.7627 17L 5.12793 17L 5.12793 6.16309L 1.84961 7.36719L 1.84961 5.89062L 6.50781 4.1416L 6.7627 4.1416L 6.7627 17ZM 19.5508 11.542C 19.5508 13.4463 19.2256 14.8613 18.5752 15.7871C 17.9248 16.7129 16.9082 17.1758 15.5254 17.1758C 14.1602 17.1758 13.1494 16.7246 12.4932 15.8223C 11.8369 14.9141 11.4971 13.5605 11.4736 11.7617L 11.4736 9.59082C 11.4736 7.70996 11.7988 6.3125 12.4492 5.39844C 13.0996 4.48438 14.1191 4.02734 15.5078 4.02734C 16.8848 4.02734 17.8984 4.46973 18.5488 5.35449C 19.1992 6.2334 19.5332 7.59277 19.5508 9.43262L 19.5508 11.542ZM 17.9248 9.31836C 17.9248 7.94141 17.7314 6.93945 17.3447 6.3125C 16.958 5.67969 16.3457 5.36328 15.5078 5.36328C 14.6758 5.36328 14.0693 5.67676 13.6885 6.30371C 13.3076 6.93066 13.1113 7.89453 13.0996 9.19531L 13.0996 11.7969C 13.0996 13.1797 13.2988 14.2021 13.6973 14.8643C 14.1016 15.5205 14.7109 15.8486 15.5254 15.8486C 16.3281 15.8486 16.9229 15.5381 17.3096 14.917C 17.7021 14.2959 17.9072 13.3174 17.9248 11.9814L 17.9248 9.31836ZM 29.6582 11.542C 29.6582 13.4463 29.333 14.8613 28.6826 15.7871C 28.0322 16.7129 27.0156 17.1758 25.6328 17.1758C 24.2676 17.1758 23.2568 16.7246 22.6006 15.8223C 21.9443 14.9141 21.6045 13.5605 21.5811 11.7617L 21.5811 9.59082C 21.5811 7.70996 21.9062 6.3125 22.5566 5.39844C 23.207 4.48438 24.2266 4.02734 25.6152 4.02734C 26.9922 4.02734 28.0059 4.46973 28.6562 5.35449C 29.3066 6.2334 29.6406 7.59277 29.6582 9.43262L 29.6582 11.542ZM 28.0322 9.31836C 28.0322 7.94141 27.8389 6.93945 27.4521 6.3125C 27.0654 5.67969 26.4531 5.36328 25.6152 5.36328C 24.7832 5.36328 24.1768 5.67676 23.7959 6.30371C 23.415 6.93066 23.2188 7.89453 23.207 9.19531L 23.207 11.7969C 23.207 13.1797 23.4062 14.2021 23.8047 14.8643C 24.209 15.5205 24.8184 15.8486 25.6328 15.8486C 26.4355 15.8486 27.0303 15.5381 27.417 14.917C 27.8096 14.2959 28.0146 13.3174 28.0322 11.9814L 28.0322 9.31836ZM 39.5635 10.9619L 41.6729 7.49023L 43.5713 7.49023L 40.46 12.1924L 43.668 17L 41.7871 17L 39.5898 13.4404L 37.3926 17L 35.5029 17L 38.7109 12.1924L 35.5996 7.49023L 37.4805 7.49023L 39.5635 10.9619Z"/>
<path id="path59_fill" d="M 51.9648 9.81055L 53.1865 9.81055C 53.9541 9.79883 54.5576 9.59668 54.9971 9.2041C 55.4365 8.81152 55.6562 8.28125 55.6562 7.61328C 55.6562 6.11328 54.9092 5.36328 53.415 5.36328C 52.7119 5.36328 52.1494 5.56543 51.7275 5.96973C 51.3115 6.36816 51.1035 6.89844 51.1035 7.56055L 49.4775 7.56055C 49.4775 6.54688 49.8467 5.70605 50.585 5.03809C 51.3291 4.36426 52.2725 4.02734 53.415 4.02734C 54.6221 4.02734 55.5684 4.34668 56.2539 4.98535C 56.9395 5.62402 57.2822 6.51172 57.2822 7.64844C 57.2822 8.20508 57.1006 8.74414 56.7373 9.26562C 56.3799 9.78711 55.8906 10.1768 55.2695 10.4346C 55.9727 10.6572 56.5146 11.0264 56.8955 11.542C 57.2822 12.0576 57.4756 12.6875 57.4756 13.4316C 57.4756 14.5801 57.1006 15.4912 56.3506 16.165C 55.6006 16.8389 54.625 17.1758 53.4238 17.1758C 52.2227 17.1758 51.2441 16.8506 50.4883 16.2002C 49.7383 15.5498 49.3633 14.6914 49.3633 13.625L 50.998 13.625C 50.998 14.2988 51.2178 14.8379 51.6572 15.2422C 52.0967 15.6465 52.6855 15.8486 53.4238 15.8486C 54.209 15.8486 54.8096 15.6436 55.2256 15.2334C 55.6416 14.8232 55.8496 14.2344 55.8496 13.4668C 55.8496 12.7227 55.6211 12.1514 55.1641 11.7529C 54.707 11.3545 54.0479 11.1494 53.1865 11.1377L 51.9648 11.1377L 51.9648 9.81055Z"/>
<path id="path60_fill" d="M 6.7627 17L 5.12793 17L 5.12793 6.16309L 1.84961 7.36719L 1.84961 5.89062L 6.50781 4.1416L 6.7627 4.1416L 6.7627 17ZM 19.5508 11.542C 19.5508 13.4463 19.2256 14.8613 18.5752 15.7871C 17.9248 16.7129 16.9082 17.1758 15.5254 17.1758C 14.1602 17.1758 13.1494 16.7246 12.4932 15.8223C 11.8369 14.9141 11.4971 13.5605 11.4736 11.7617L 11.4736 9.59082C 11.4736 7.70996 11.7988 6.3125 12.4492 5.39844C 13.0996 4.48438 14.1191 4.02734 15.5078 4.02734C 16.8848 4.02734 17.8984 4.46973 18.5488 5.35449C 19.1992 6.2334 19.5332 7.59277 19.5508 9.43262L 19.5508 11.542ZM 17.9248 9.31836C 17.9248 7.94141 17.7314 6.93945 17.3447 6.3125C 16.958 5.67969 16.3457 5.36328 15.5078 5.36328C 14.6758 5.36328 14.0693 5.67676 13.6885 6.30371C 13.3076 6.93066 13.1113 7.89453 13.0996 9.19531L 13.0996 11.7969C 13.0996 13.1797 13.2988 14.2021 13.6973 14.8643C 14.1016 15.5205 14.7109 15.8486 15.5254 15.8486C 16.3281 15.8486 16.9229 15.5381 17.3096 14.917C 17.7021 14.2959 17.9072 13.3174 17.9248 11.9814L 17.9248 9.31836ZM 29.6582 11.542C 29.6582 13.4463 29.333 14.8613 28.6826 15.7871C 28.0322 16.7129 27.0156 17.1758 25.6328 17.1758C 24.2676 17.1758 23.2568 16.7246 22.6006 15.8223C 21.9443 14.9141 21.6045 13.5605 21.5811 11.7617L 21.5811 9.59082C 21.5811 7.70996 21.9062 6.3125 22.5566 5.39844C 23.207 4.48438 24.2266 4.02734 25.6152 4.02734C 26.9922 4.02734 28.0059 4.46973 28.6562 5.35449C 29.3066 6.2334 29.6406 7.59277 29.6582 9.43262L 29.6582 11.542ZM 28.0322 9.31836C 28.0322 7.94141 27.8389 6.93945 27.4521 6.3125C 27.0654 5.67969 26.4531 5.36328 25.6152 5.36328C 24.7832 5.36328 24.1768 5.67676 23.7959 6.30371C 23.415 6.93066 23.2188 7.89453 23.207 9.19531L 23.207 11.7969C 23.207 13.1797 23.4062 14.2021 23.8047 14.8643C 24.209 15.5205 24.8184 15.8486 25.6328 15.8486C 26.4355 15.8486 27.0303 15.5381 27.417 14.917C 27.8096 14.2959 28.0146 13.3174 28.0322 11.9814L 28.0322 9.31836ZM 39.5635 10.9619L 41.6729 7.49023L 43.5713 7.49023L 40.46 12.1924L 43.668 17L 41.7871 17L 39.5898 13.4404L 37.3926 17L 35.5029 17L 38.7109 12.1924L 35.5996 7.49023L 37.4805 7.49023L 39.5635 10.9619ZM 54.9443 17L 53.3096 17L 53.3096 6.16309L 50.0312 7.36719L 50.0312 5.89062L 54.6895 4.1416L 54.9443 4.1416L 54.9443 17Z"/>
<path id="path61_fill" d="M 3.89062 9.81055L 5.1123 9.81055C 5.87988 9.79883 6.4834 9.59668 6.92285 9.2041C 7.3623 8.81152 7.58203 8.28125 7.58203 7.61328C 7.58203 6.11328 6.83496 5.36328 5.34082 5.36328C 4.6377 5.36328 4.0752 5.56543 3.65332 5.96973C 3.2373 6.36816 3.0293 6.89844 3.0293 7.56055L 1.40332 7.56055C 1.40332 6.54688 1.77246 5.70605 2.51074 5.03809C 3.25488 4.36426 4.19824 4.02734 5.34082 4.02734C 6.54785 4.02734 7.49414 4.34668 8.17969 4.98535C 8.86523 5.62402 9.20801 6.51172 9.20801 7.64844C 9.20801 8.20508 9.02637 8.74414 8.66309 9.26562C 8.30566 9.78711 7.81641 10.1768 7.19531 10.4346C 7.89844 10.6572 8.44043 11.0264 8.82129 11.542C 9.20801 12.0576 9.40137 12.6875 9.40137 13.4316C 9.40137 14.5801 9.02637 15.4912 8.27637 16.165C 7.52637 16.8389 6.55078 17.1758 5.34961 17.1758C 4.14844 17.1758 3.16992 16.8506 2.41406 16.2002C 1.66406 15.5498 1.28906 14.6914 1.28906 13.625L 2.92383 13.625C 2.92383 14.2988 3.14355 14.8379 3.58301 15.2422C 4.02246 15.6465 4.61133 15.8486 5.34961 15.8486C 6.13477 15.8486 6.73535 15.6436 7.15137 15.2334C 7.56738 14.8232 7.77539 14.2344 7.77539 13.4668C 7.77539 12.7227 7.54688 12.1514 7.08984 11.7529C 6.63281 11.3545 5.97363 11.1494 5.1123 11.1377L 3.89062 11.1377L 3.89062 9.81055Z"/>
<path id="path62_fill" d="M 19.4561 10.9619L 21.5654 7.49023L 23.4639 7.49023L 20.3525 12.1924L 23.5605 17L 21.6797 17L 19.4824 13.4404L 17.2852 17L 15.3955 17L 18.6035 12.1924L 15.4922 7.49023L 17.373 7.49023L 19.4561 10.9619ZM 35.874 4.19434L 35.874 5.57422L 35.5752 5.57422C 34.3096 5.59766 33.3018 5.97266 32.5518 6.69922C 31.8018 7.42578 31.3682 8.44824 31.251 9.7666C 31.9248 8.99316 32.8447 8.60645 34.0107 8.60645C 35.124 8.60645 36.0117 8.99902 36.6738 9.78418C 37.3418 10.5693 37.6758 11.583 37.6758 12.8252C 37.6758 14.1436 37.3154 15.1982 36.5947 15.9893C 35.8799 16.7803 34.9189 17.1758 33.7119 17.1758C 32.4873 17.1758 31.4941 16.707 30.7324 15.7695C 29.9707 14.8262 29.5898 13.6133 29.5898 12.1309L 29.5898 11.5068C 29.5898 9.15137 30.0908 7.35254 31.0928 6.11035C 32.1006 4.8623 33.5977 4.22363 35.584 4.19434L 35.874 4.19434ZM 33.7383 9.95996C 33.1816 9.95996 32.6689 10.127 32.2002 10.4609C 31.7314 10.7949 31.4062 11.2139 31.2246 11.7178L 31.2246 12.3154C 31.2246 13.3701 31.4619 14.2197 31.9365 14.8643C 32.4111 15.5088 33.0029 15.8311 33.7119 15.8311C 34.4443 15.8311 35.0186 15.5615 35.4346 15.0225C 35.8564 14.4834 36.0674 13.7773 36.0674 12.9043C 36.0674 12.0254 35.8535 11.3164 35.4258 10.7773C 35.0039 10.2324 34.4414 9.95996 33.7383 9.95996Z"/>
<path id="path63_fill" d="M 8.72656 9.8457L 1.39648 9.8457L 1.39648 8.43066L 8.72656 8.43066L 8.72656 9.8457ZM 8.72656 13.4932L 1.39648 13.4932L 1.39648 12.0869L 8.72656 12.0869L 8.72656 13.4932Z"/>
<path id="path64_fill" d="M 2.03906 11L 0.955078 11L 0.955078 4.66016L 2.03906 4.66016L 2.03906 11ZM 0.867188 2.97852C 0.867188 2.80273 0.919922 2.6543 1.02539 2.5332C 1.13477 2.41211 1.29492 2.35156 1.50586 2.35156C 1.7168 2.35156 1.87695 2.41211 1.98633 2.5332C 2.0957 2.6543 2.15039 2.80273 2.15039 2.97852C 2.15039 3.1543 2.0957 3.30078 1.98633 3.41797C 1.87695 3.53516 1.7168 3.59375 1.50586 3.59375C 1.29492 3.59375 1.13477 3.53516 1.02539 3.41797C 0.919922 3.30078 0.867188 3.1543 0.867188 2.97852Z"/>
<path id="path65_fill" d="M 3.33887 15.6201L 9.40332 15.6201L 9.40332 17L 1.64258 17L 1.64258 4.20312L 3.33887 4.20312L 3.33887 15.6201Z"/>
<path id="path66_fill" d="M 6.7627 17L 5.12793 17L 5.12793 6.16309L 1.84961 7.36719L 1.84961 5.89062L 6.50781 4.1416L 6.7627 4.1416L 6.7627 17ZM 19.5508 11.542C 19.5508 13.4463 19.2256 14.8613 18.5752 15.7871C 17.9248 16.7129 16.9082 17.1758 15.5254 17.1758C 14.1602 17.1758 13.1494 16.7246 12.4932 15.8223C 11.8369 14.9141 11.4971 13.5605 11.4736 11.7617L 11.4736 9.59082C 11.4736 7.70996 11.7988 6.3125 12.4492 5.39844C 13.0996 4.48438 14.1191 4.02734 15.5078 4.02734C 16.8848 4.02734 17.8984 4.46973 18.5488 5.35449C 19.1992 6.2334 19.5332 7.59277 19.5508 9.43262L 19.5508 11.542ZM 17.9248 9.31836C 17.9248 7.94141 17.7314 6.93945 17.3447 6.3125C 16.958 5.67969 16.3457 5.36328 15.5078 5.36328C 14.6758 5.36328 14.0693 5.67676 13.6885 6.30371C 13.3076 6.93066 13.1113 7.89453 13.0996 9.19531L 13.0996 11.7969C 13.0996 13.1797 13.2988 14.2021 13.6973 14.8643C 14.1016 15.5205 14.7109 15.8486 15.5254 15.8486C 16.3281 15.8486 16.9229 15.5381 17.3096 14.917C 17.7021 14.2959 17.9072 13.3174 17.9248 11.9814L 17.9248 9.31836ZM 29.6582 11.542C 29.6582 13.4463 29.333 14.8613 28.6826 15.7871C 28.0322 16.7129 27.0156 17.1758 25.6328 17.1758C 24.2676 17.1758 23.2568 16.7246 22.6006 15.8223C 21.9443 14.9141 21.6045 13.5605 21.5811 11.7617L 21.5811 9.59082C 21.5811 7.70996 21.9062 6.3125 22.5566 5.39844C 23.207 4.48438 24.2266 4.02734 25.6152 4.02734C 26.9922 4.02734 28.0059 4.46973 28.6562 5.35449C 29.3066 6.2334 29.6406 7.59277 29.6582 9.43262L 29.6582 11.542ZM 28.0322 9.31836C 28.0322 7.94141 27.8389 6.93945 27.4521 6.3125C 27.0654 5.67969 26.4531 5.36328 25.6152 5.36328C 24.7832 5.36328 24.1768 5.67676 23.7959 6.30371C 23.415 6.93066 23.2188 7.89453 23.207 9.19531L 23.207 11.7969C 23.207 13.1797 23.4062 14.2021 23.8047 14.8643C 24.209 15.5205 24.8184 15.8486 25.6328 15.8486C 26.4355 15.8486 27.0303 15.5381 27.417 14.917C 27.8096 14.2959 28.0146 13.3174 28.0322 11.9814L 28.0322 9.31836ZM 39.5635 10.9619L 41.6729 7.49023L 43.5713 7.49023L 40.46 12.1924L 43.668 17L 41.7871 17L 39.5898 13.4404L 37.3926 17L 35.5029 17L 38.7109 12.1924L 35.5996 7.49023L 37.4805 7.49023L 39.5635 10.9619ZM 55.9814 4.19434L 55.9814 5.57422L 55.6826 5.57422C 54.417 5.59766 53.4092 5.97266 52.6592 6.69922C 51.9092 7.42578 51.4756 8.44824 51.3584 9.7666C 52.0322 8.99316 52.9521 8.60645 54.1182 8.60645C 55.2314 8.60645 56.1191 8.99902 56.7812 9.78418C 57.4492 10.5693 57.7832 11.583 57.7832 12.8252C 57.7832 14.1436 57.4229 15.1982 56.7021 15.9893C 55.9873 16.7803 55.0264 17.1758 53.8193 17.1758C 52.5947 17.1758 51.6016 16.707 50.8398 15.7695C 50.0781 14.8262 49.6973 13.6133 49.6973 12.1309L 49.6973 11.5068C 49.6973 9.15137 50.1982 7.35254 51.2002 6.11035C 52.208 4.8623 53.7051 4.22363 55.6914 4.19434L 55.9814 4.19434ZM 53.8457 9.95996C 53.2891 9.95996 52.7764 10.127 52.3076 10.4609C 51.8389 10.7949 51.5137 11.2139 51.332 11.7178L 51.332 12.3154C 51.332 13.3701 51.5693 14.2197 52.0439 14.8643C 52.5186 15.5088 53.1104 15.8311 53.8193 15.8311C 54.5518 15.8311 55.126 15.5615 55.542 15.0225C 55.9639 14.4834 56.1748 13.7773 56.1748 12.9043C 56.1748 12.0254 55.9609 11.3164 55.5332 10.7773C 55.1113 10.2324 54.5488 9.95996 53.8457 9.95996Z"/>
<path id="path67_fill" d="M 6.7627 17L 5.12793 17L 5.12793 6.16309L 1.84961 7.36719L 1.84961 5.89062L 6.50781 4.1416L 6.7627 4.1416L 6.7627 17ZM 19.5508 11.542C 19.5508 13.4463 19.2256 14.8613 18.5752 15.7871C 17.9248 16.7129 16.9082 17.1758 15.5254 17.1758C 14.1602 17.1758 13.1494 16.7246 12.4932 15.8223C 11.8369 14.9141 11.4971 13.5605 11.4736 11.7617L 11.4736 9.59082C 11.4736 7.70996 11.7988 6.3125 12.4492 5.39844C 13.0996 4.48438 14.1191 4.02734 15.5078 4.02734C 16.8848 4.02734 17.8984 4.46973 18.5488 5.35449C 19.1992 6.2334 19.5332 7.59277 19.5508 9.43262L 19.5508 11.542ZM 17.9248 9.31836C 17.9248 7.94141 17.7314 6.93945 17.3447 6.3125C 16.958 5.67969 16.3457 5.36328 15.5078 5.36328C 14.6758 5.36328 14.0693 5.67676 13.6885 6.30371C 13.3076 6.93066 13.1113 7.89453 13.0996 9.19531L 13.0996 11.7969C 13.0996 13.1797 13.2988 14.2021 13.6973 14.8643C 14.1016 15.5205 14.7109 15.8486 15.5254 15.8486C 16.3281 15.8486 16.9229 15.5381 17.3096 14.917C 17.7021 14.2959 17.9072 13.3174 17.9248 11.9814L 17.9248 9.31836ZM 29.6582 11.542C 29.6582 13.4463 29.333 14.8613 28.6826 15.7871C 28.0322 16.7129 27.0156 17.1758 25.6328 17.1758C 24.2676 17.1758 23.2568 16.7246 22.6006 15.8223C 21.9443 14.9141 21.6045 13.5605 21.5811 11.7617L 21.5811 9.59082C 21.5811 7.70996 21.9062 6.3125 22.5566 5.39844C 23.207 4.48438 24.2266 4.02734 25.6152 4.02734C 26.9922 4.02734 28.0059 4.46973 28.6562 5.35449C 29.3066 6.2334 29.6406 7.59277 29.6582 9.43262L 29.6582 11.542ZM 28.0322 9.31836C 28.0322 7.94141 27.8389 6.93945 27.4521 6.3125C 27.0654 5.67969 26.4531 5.36328 25.6152 5.36328C 24.7832 5.36328 24.1768 5.67676 23.7959 6.30371C 23.415 6.93066 23.2188 7.89453 23.207 9.19531L 23.207 11.7969C 23.207 13.1797 23.4062 14.2021 23.8047 14.8643C 24.209 15.5205 24.8184 15.8486 25.6328 15.8486C 26.4355 15.8486 27.0303 15.5381 27.417 14.917C 27.8096 14.2959 28.0146 13.3174 28.0322 11.9814L 28.0322 9.31836ZM 39.5635 10.9619L 41.6729 7.49023L 43.5713 7.49023L 40.46 12.1924L 43.668 17L 41.7871 17L 39.5898 13.4404L 37.3926 17L 35.5029 17L 38.7109 12.1924L 35.5996 7.49023L 37.4805 7.49023L 39.5635 10.9619Z"/>
<path id="path68_fill" d="M 55.9814 4.19434L 55.9814 5.57422L 55.6826 5.57422C 54.417 5.59766 53.4092 5.97266 52.6592 6.69922C 51.9092 7.42578 51.4756 8.44824 51.3584 9.7666C 52.0322 8.99316 52.9521 8.60645 54.1182 8.60645C 55.2314 8.60645 56.1191 8.99902 56.7812 9.78418C 57.4492 10.5693 57.7832 11.583 57.7832 12.8252C 57.7832 14.1436 57.4229 15.1982 56.7021 15.9893C 55.9873 16.7803 55.0264 17.1758 53.8193 17.1758C 52.5947 17.1758 51.6016 16.707 50.8398 15.7695C 50.0781 14.8262 49.6973 13.6133 49.6973 12.1309L 49.6973 11.5068C 49.6973 9.15137 50.1982 7.35254 51.2002 6.11035C 52.208 4.8623 53.7051 4.22363 55.6914 4.19434L 55.9814 4.19434ZM 53.8457 9.95996C 53.2891 9.95996 52.7764 10.127 52.3076 10.4609C 51.8389 10.7949 51.5137 11.2139 51.332 11.7178L 51.332 12.3154C 51.332 13.3701 51.5693 14.2197 52.0439 14.8643C 52.5186 15.5088 53.1104 15.8311 53.8193 15.8311C 54.5518 15.8311 55.126 15.5615 55.542 15.0225C 55.9639 14.4834 56.1748 13.7773 56.1748 12.9043C 56.1748 12.0254 55.9609 11.3164 55.5332 10.7773C 55.1113 10.2324 54.5488 9.95996 53.8457 9.95996Z"/>
<path id="path69_fill" d="M 7.90723 4.19434L 7.90723 5.57422L 7.6084 5.57422C 6.34277 5.59766 5.33496 5.97266 4.58496 6.69922C 3.83496 7.42578 3.40137 8.44824 3.28418 9.7666C 3.95801 8.99316 4.87793 8.60645 6.04395 8.60645C 7.15723 8.60645 8.04492 8.99902 8.70703 9.78418C 9.375 10.5693 9.70898 11.583 9.70898 12.8252C 9.70898 14.1436 9.34863 15.1982 8.62793 15.9893C 7.91309 16.7803 6.95215 17.1758 5.74512 17.1758C 4.52051 17.1758 3.52734 16.707 2.76562 15.7695C 2.00391 14.8262 1.62305 13.6133 1.62305 12.1309L 1.62305 11.5068C 1.62305 9.15137 2.12402 7.35254 3.12598 6.11035C 4.13379 4.8623 5.63086 4.22363 7.61719 4.19434L 7.90723 4.19434ZM 5.77148 9.95996C 5.21484 9.95996 4.70215 10.127 4.2334 10.4609C 3.76465 10.7949 3.43945 11.2139 3.25781 11.7178L 3.25781 12.3154C 3.25781 13.3701 3.49512 14.2197 3.96973 14.8643C 4.44434 15.5088 5.03613 15.8311 5.74512 15.8311C 6.47754 15.8311 7.05176 15.5615 7.46777 15.0225C 7.88965 14.4834 8.10059 13.7773 8.10059 12.9043C 8.10059 12.0254 7.88672 11.3164 7.45898 10.7773C 7.03711 10.2324 6.47461 9.95996 5.77148 9.95996Z"/>
<path id="path70_fill" d="M 19.4561 10.9619L 21.5654 7.49023L 23.4639 7.49023L 20.3525 12.1924L 23.5605 17L 21.6797 17L 19.4824 13.4404L 17.2852 17L 15.3955 17L 18.6035 12.1924L 15.4922 7.49023L 17.373 7.49023L 19.4561 10.9619ZM 34.8369 17L 33.2021 17L 33.2021 6.16309L 29.9238 7.36719L 29.9238 5.89062L 34.582 4.1416L 34.8369 4.1416L 34.8369 17Z"/>
<path id="path71_fill" d="M 1.96484 15.0742C 1.96484 13.3086 2.19922 11.6133 2.66797 9.98828C 3.14453 8.36328 3.85156 6.88672 4.78906 5.55859C 5.72656 4.23047 6.69922 3.29297 7.70703 2.74609L 8.15234 4.17578C 7.01172 5.05078 6.07422 6.38672 5.33984 8.18359C 4.61328 9.98047 4.21484 11.9922 4.14453 14.2188L 4.13281 15.2148C 4.13281 18.2305 4.68359 20.8477 5.78516 23.0664C 6.44922 24.3945 7.23828 25.4336 8.15234 26.1836L 7.70703 27.5078C 6.66797 26.9297 5.67578 25.9609 4.73047 24.6016C 2.88672 21.9453 1.96484 18.7695 1.96484 15.0742ZM 187.895 15.1914C 187.895 16.9336 187.664 18.6055 187.203 20.207C 186.75 21.8008 186.051 23.2734 185.105 24.625C 184.168 25.9766 183.184 26.9375 182.152 27.5078L 181.695 26.1836C 182.898 25.2617 183.863 23.832 184.59 21.8945C 185.324 19.9492 185.699 17.793 185.715 15.4258L 185.715 15.0508C 185.715 13.4102 185.543 11.8867 185.199 10.4805C 184.855 9.06641 184.375 7.80078 183.758 6.68359C 183.148 5.56641 182.461 4.69531 181.695 4.07031L 182.152 2.74609C 183.184 3.31641 184.164 4.26953 185.094 5.60547C 186.031 6.94141 186.73 8.41406 187.191 10.0234C 187.66 11.6328 187.895 13.3555 187.895 15.1914Z"/>
<path id="path72_fill" d="M 1.94141 15.0742C 1.94141 13.3086 2.17578 11.6133 2.64453 9.98828C 3.12109 8.36328 3.82812 6.88672 4.76562 5.55859C 5.70312 4.23047 6.67578 3.29297 7.68359 2.74609L 8.12891 4.17578C 6.98828 5.05078 6.05078 6.38672 5.31641 8.18359C 4.58984 9.98047 4.19141 11.9922 4.12109 14.2188L 4.10938 15.2148C 4.10938 18.2305 4.66016 20.8477 5.76172 23.0664C 6.42578 24.3945 7.21484 25.4336 8.12891 26.1836L 7.68359 27.5078C 6.64453 26.9297 5.65234 25.9609 4.70703 24.6016C 2.86328 21.9453 1.94141 18.7695 1.94141 15.0742ZM 181.918 15.1914C 181.918 16.9336 181.688 18.6055 181.227 20.207C 180.773 21.8008 180.074 23.2734 179.129 24.625C 178.191 25.9766 177.207 26.9375 176.176 27.5078L 175.719 26.1836C 176.922 25.2617 177.887 23.832 178.613 21.8945C 179.348 19.9492 179.723 17.793 179.738 15.4258L 179.738 15.0508C 179.738 13.4102 179.566 11.8867 179.223 10.4805C 178.879 9.06641 178.398 7.80078 177.781 6.68359C 177.172 5.56641 176.484 4.69531 175.719 4.07031L 176.176 2.74609C 177.207 3.31641 178.188 4.26953 179.117 5.60547C 180.055 6.94141 180.754 8.41406 181.215 10.0234C 181.684 11.6328 181.918 13.3555 181.918 15.1914Z"/>
<path id="path73_fill" d="M 6.64844 14.4248C 6.73633 13.7686 6.37598 13.3057 5.56738 13.0361L 3.91504 12.5527C 2.52051 12.0723 1.84668 11.2754 1.89355 10.1621C 1.93457 9.32422 2.31543 8.63867 3.03613 8.10547C 3.7627 7.56641 4.61523 7.30273 5.59375 7.31445C 6.55469 7.32617 7.33398 7.60742 7.93164 8.1582C 8.53516 8.70312 8.8252 9.41504 8.80176 10.2939L 7.21973 10.2852C 7.23145 9.81055 7.08203 9.42383 6.77148 9.125C 6.46094 8.82617 6.04785 8.6709 5.53223 8.65918C 4.98145 8.64746 4.50684 8.78223 4.1084 9.06348C 3.73926 9.32715 3.52539 9.67285 3.4668 10.1006C 3.39062 10.6514 3.72754 11.0527 4.47754 11.3047L 5.27734 11.5244C 6.36719 11.8057 7.14062 12.1719 7.59766 12.623C 8.05469 13.0742 8.26562 13.6338 8.23047 14.3018C 8.19531 14.8936 8.00195 15.4092 7.65039 15.8486C 7.29883 16.2881 6.83008 16.625 6.24414 16.8594C 5.6582 17.0879 5.03418 17.1934 4.37207 17.1758C 3.36426 17.1641 2.53223 16.8711 1.87598 16.2969C 1.21973 15.7168 0.90332 14.9727 0.926758 14.0645L 2.51758 14.0732C 2.51758 14.6064 2.6875 15.0342 3.02734 15.3564C 3.36719 15.6787 3.83301 15.8398 4.4248 15.8398C 5.00488 15.8516 5.50586 15.7314 5.92773 15.4795C 6.34961 15.2217 6.58984 14.8701 6.64844 14.4248ZM 14.0488 5.1875L 13.6445 7.49023L 15.376 7.49023L 15.1562 8.74707L 13.4336 8.74707L 12.4404 14.6621C 12.4229 14.8145 12.4199 14.9551 12.4316 15.084C 12.4727 15.541 12.7217 15.7695 13.1787 15.7695C 13.3721 15.7695 13.6299 15.7402 13.9521 15.6816L 13.8291 17.0088C 13.4482 17.1143 13.0615 17.167 12.6689 17.167C 12.0361 17.1553 11.5615 16.9238 11.2451 16.4727C 10.9287 16.0156 10.8057 15.4033 10.876 14.6357L 11.8428 8.74707L 10.1641 8.74707L 10.3838 7.49023L 12.0625 7.49023L 12.4668 5.1875L 14.0488 5.1875ZM 21.4668 17C 21.4258 16.8301 21.4053 16.6631 21.4053 16.499L 21.4316 15.998C 20.5586 16.8066 19.6328 17.1992 18.6543 17.1758C 17.8164 17.1641 17.1338 16.9004 16.6064 16.3848C 16.085 15.8633 15.8477 15.2129 15.8945 14.4336C 15.9531 13.4258 16.3926 12.6406 17.2129 12.0781C 18.0391 11.5098 19.123 11.2256 20.4648 11.2256L 22.126 11.2344L 22.2314 10.4785C 22.29 9.91016 22.1787 9.46191 21.8975 9.13379C 21.6221 8.7998 21.2061 8.62695 20.6494 8.61523C 20.1045 8.60352 19.6211 8.73828 19.1992 9.01953C 18.7832 9.29492 18.5283 9.66113 18.4346 10.1182L 16.835 10.127C 16.8877 9.57031 17.1045 9.07812 17.4854 8.65039C 17.8662 8.2168 18.3555 7.88281 18.9531 7.64844C 19.5508 7.4082 20.1689 7.29395 20.8076 7.30566C 21.7979 7.3291 22.5684 7.63086 23.1191 8.21094C 23.6699 8.78516 23.9014 9.5498 23.8135 10.5049L 23.04 15.2158L 22.9961 15.8926C 22.9844 16.2148 23.0195 16.5342 23.1016 16.8506L 23.084 17L 21.4668 17ZM 18.9707 15.7695C 19.4805 15.7812 19.9609 15.6611 20.4121 15.4092C 20.8691 15.1514 21.2617 14.7969 21.5898 14.3457L 21.9326 12.3857L 20.7285 12.377C 19.7266 12.377 18.959 12.5352 18.4258 12.8516C 17.8926 13.168 17.5908 13.6162 17.5205 14.1963C 17.4678 14.6416 17.5703 15.0137 17.8281 15.3125C 18.0918 15.6055 18.4727 15.7578 18.9707 15.7695ZM 25.7119 12.2275C 25.8525 11.1904 26.1309 10.291 26.5469 9.5293C 26.9688 8.76172 27.4785 8.19629 28.0762 7.83301C 28.6797 7.46387 29.3389 7.28809 30.0537 7.30566C 31.1553 7.3291 31.9873 7.74512 32.5498 8.55371L 32.8662 7.49023L 34.3252 7.49023L 32.7432 16.7979C 32.5732 18.0107 32.0811 18.9805 31.2666 19.707C 30.4521 20.4395 29.4473 20.7881 28.252 20.7529C 27.6074 20.7412 26.9893 20.5889 26.3975 20.2959C 25.8115 20.0029 25.3486 19.6016 25.0088 19.0918L 25.9141 18.1162C 26.4883 18.9658 27.2471 19.4023 28.1904 19.4258C 28.9463 19.4492 29.585 19.2383 30.1064 18.793C 30.6338 18.3477 30.9824 17.7148 31.1523 16.8945L 31.3281 16.0508C 30.5547 16.8242 29.6494 17.1992 28.6123 17.1758C 28.0205 17.1582 27.5049 17 27.0654 16.7012C 26.6318 16.3965 26.2949 15.96 26.0547 15.3916C 25.8145 14.8174 25.6826 14.1787 25.6592 13.4756C 25.6475 13.1299 25.665 12.7139 25.7119 12.2275ZM 27.25 13.1328C 27.2324 13.9707 27.376 14.6211 27.6807 15.084C 27.9912 15.541 28.457 15.7812 29.0781 15.8047C 30.0273 15.8281 30.8447 15.3623 31.5303 14.4072L 32.2773 10.0391C 31.9258 9.17188 31.29 8.7207 30.3701 8.68555C 29.5088 8.66211 28.7998 9.01367 28.2432 9.74023C 27.6924 10.4668 27.3672 11.4482 27.2676 12.6846L 27.25 13.1328ZM 39.2559 17.1758C 38.0723 17.1523 37.1465 16.7158 36.4785 15.8662C 35.8105 15.0166 35.5293 13.9297 35.6348 12.6055L 35.6787 12.2275C 35.7783 11.2842 36.0566 10.4229 36.5137 9.64355C 36.9766 8.86426 37.5391 8.27832 38.2012 7.88574C 38.8633 7.4873 39.5781 7.29688 40.3457 7.31445C 41.3242 7.33789 42.0918 7.66309 42.6484 8.29004C 43.2051 8.91699 43.5098 9.7666 43.5625 10.8389C 43.5801 11.2197 43.5684 11.6006 43.5273 11.9814L 43.4307 12.7109L 37.2168 12.7109C 37.1113 13.5723 37.252 14.3047 37.6387 14.9082C 38.0312 15.5117 38.6143 15.8252 39.3877 15.8486C 40.3252 15.8721 41.1924 15.4502 41.9893 14.583L 42.9033 15.3564C 42.5049 15.9307 41.9893 16.3818 41.3564 16.71C 40.7295 17.0322 40.0293 17.1875 39.2559 17.1758ZM 40.2666 8.6416C 39.6104 8.62402 39.0361 8.84668 38.5439 9.30957C 38.0576 9.77246 37.6709 10.4609 37.3838 11.375L 42.0068 11.3838L 42.042 11.2432C 42.1357 10.5049 42.0156 9.89258 41.6816 9.40625C 41.3535 8.91406 40.8818 8.65918 40.2666 8.6416ZM 53.9248 17L 52.3252 17L 54.2061 6.20703L 50.8047 7.40234L 51.0771 5.85547L 55.8232 4.1416L 56.1045 4.1416L 53.9248 17Z"/>
<path id="path74_fill" d="M 6.64844 14.4248C 6.73633 13.7686 6.37598 13.3057 5.56738 13.0361L 3.91504 12.5527C 2.52051 12.0723 1.84668 11.2754 1.89355 10.1621C 1.93457 9.32422 2.31543 8.63867 3.03613 8.10547C 3.7627 7.56641 4.61523 7.30273 5.59375 7.31445C 6.55469 7.32617 7.33398 7.60742 7.93164 8.1582C 8.53516 8.70312 8.8252 9.41504 8.80176 10.2939L 7.21973 10.2852C 7.23145 9.81055 7.08203 9.42383 6.77148 9.125C 6.46094 8.82617 6.04785 8.6709 5.53223 8.65918C 4.98145 8.64746 4.50684 8.78223 4.1084 9.06348C 3.73926 9.32715 3.52539 9.67285 3.4668 10.1006C 3.39063 10.6514 3.72754 11.0527 4.47754 11.3047L 5.27734 11.5244C 6.36719 11.8057 7.14062 12.1719 7.59766 12.623C 8.05469 13.0742 8.26562 13.6338 8.23047 14.3018C 8.19531 14.8936 8.00195 15.4092 7.65039 15.8486C 7.29883 16.2881 6.83008 16.625 6.24414 16.8594C 5.6582 17.0879 5.03418 17.1934 4.37207 17.1758C 3.36426 17.1641 2.53223 16.8711 1.87598 16.2969C 1.21973 15.7168 0.90332 14.9727 0.926758 14.0645L 2.51758 14.0732C 2.51758 14.6064 2.6875 15.0342 3.02734 15.3564C 3.36719 15.6787 3.83301 15.8398 4.4248 15.8398C 5.00488 15.8516 5.50586 15.7314 5.92773 15.4795C 6.34961 15.2217 6.58984 14.8701 6.64844 14.4248ZM 14.0488 5.1875L 13.6445 7.49023L 15.376 7.49023L 15.1562 8.74707L 13.4336 8.74707L 12.4404 14.6621C 12.4229 14.8145 12.4199 14.9551 12.4316 15.084C 12.4727 15.541 12.7217 15.7695 13.1787 15.7695C 13.3721 15.7695 13.6299 15.7402 13.9521 15.6816L 13.8291 17.0088C 13.4482 17.1143 13.0615 17.167 12.6689 17.167C 12.0361 17.1553 11.5615 16.9238 11.2451 16.4727C 10.9287 16.0156 10.8057 15.4033 10.876 14.6357L 11.8428 8.74707L 10.1641 8.74707L 10.3838 7.49023L 12.0625 7.49023L 12.4668 5.1875L 14.0488 5.1875ZM 21.4668 17C 21.4258 16.8301 21.4053 16.6631 21.4053 16.499L 21.4316 15.998C 20.5586 16.8066 19.6328 17.1992 18.6543 17.1758C 17.8164 17.1641 17.1338 16.9004 16.6064 16.3848C 16.085 15.8633 15.8477 15.2129 15.8945 14.4336C 15.9531 13.4258 16.3926 12.6406 17.2129 12.0781C 18.0391 11.5098 19.123 11.2256 20.4648 11.2256L 22.126 11.2344L 22.2314 10.4785C 22.29 9.91016 22.1787 9.46191 21.8975 9.13379C 21.6221 8.7998 21.2061 8.62695 20.6494 8.61523C 20.1045 8.60352 19.6211 8.73828 19.1992 9.01953C 18.7832 9.29492 18.5283 9.66113 18.4346 10.1182L 16.835 10.127C 16.8877 9.57031 17.1045 9.07813 17.4854 8.65039C 17.8662 8.2168 18.3555 7.88281 18.9531 7.64844C 19.5508 7.4082 20.1689 7.29394 20.8076 7.30566C 21.7979 7.3291 22.5684 7.63086 23.1191 8.21094C 23.6699 8.78516 23.9014 9.5498 23.8135 10.5049L 23.04 15.2158L 22.9961 15.8926C 22.9844 16.2148 23.0195 16.5342 23.1016 16.8506L 23.084 17L 21.4668 17ZM 18.9707 15.7695C 19.4805 15.7812 19.9609 15.6611 20.4121 15.4092C 20.8691 15.1514 21.2617 14.7969 21.5898 14.3457L 21.9326 12.3857L 20.7285 12.377C 19.7266 12.377 18.959 12.5352 18.4258 12.8516C 17.8926 13.168 17.5908 13.6162 17.5205 14.1963C 17.4678 14.6416 17.5703 15.0137 17.8281 15.3125C 18.0918 15.6055 18.4727 15.7578 18.9707 15.7695ZM 25.7119 12.2275C 25.8525 11.1904 26.1309 10.291 26.5469 9.5293C 26.9688 8.76172 27.4785 8.19629 28.0762 7.83301C 28.6797 7.46387 29.3389 7.28809 30.0537 7.30566C 31.1553 7.3291 31.9873 7.74512 32.5498 8.55371L 32.8662 7.49023L 34.3252 7.49023L 32.7432 16.7979C 32.5732 18.0107 32.0811 18.9805 31.2666 19.707C 30.4521 20.4395 29.4473 20.7881 28.252 20.7529C 27.6074 20.7412 26.9893 20.5889 26.3975 20.2959C 25.8115 20.0029 25.3486 19.6016 25.0088 19.0918L 25.9141 18.1162C 26.4883 18.9658 27.2471 19.4023 28.1904 19.4258C 28.9463 19.4492 29.585 19.2383 30.1064 18.793C 30.6338 18.3477 30.9824 17.7148 31.1523 16.8945L 31.3281 16.0508C 30.5547 16.8242 29.6494 17.1992 28.6123 17.1758C 28.0205 17.1582 27.5049 17 27.0654 16.7012C 26.6318 16.3965 26.2949 15.96 26.0547 15.3916C 25.8145 14.8174 25.6826 14.1787 25.6592 13.4756C 25.6475 13.1299 25.665 12.7139 25.7119 12.2275ZM 27.25 13.1328C 27.2324 13.9707 27.376 14.6211 27.6807 15.084C 27.9912 15.541 28.457 15.7812 29.0781 15.8047C 30.0273 15.8281 30.8447 15.3623 31.5303 14.4072L 32.2773 10.0391C 31.9258 9.17187 31.29 8.7207 30.3701 8.68555C 29.5088 8.66211 28.7998 9.01367 28.2432 9.74023C 27.6924 10.4668 27.3672 11.4482 27.2676 12.6846L 27.25 13.1328ZM 39.2559 17.1758C 38.0723 17.1523 37.1465 16.7158 36.4785 15.8662C 35.8105 15.0166 35.5293 13.9297 35.6348 12.6055L 35.6787 12.2275C 35.7783 11.2842 36.0566 10.4229 36.5137 9.64355C 36.9766 8.86426 37.5391 8.27832 38.2012 7.88574C 38.8633 7.4873 39.5781 7.29688 40.3457 7.31445C 41.3242 7.33789 42.0918 7.66309 42.6484 8.29004C 43.2051 8.91699 43.5098 9.7666 43.5625 10.8389C 43.5801 11.2197 43.5684 11.6006 43.5273 11.9814L 43.4307 12.7109L 37.2168 12.7109C 37.1113 13.5723 37.252 14.3047 37.6387 14.9082C 38.0312 15.5117 38.6143 15.8252 39.3877 15.8486C 40.3252 15.8721 41.1924 15.4502 41.9893 14.583L 42.9033 15.3564C 42.5049 15.9307 41.9893 16.3818 41.3564 16.71C 40.7295 17.0322 40.0293 17.1875 39.2559 17.1758ZM 40.2666 8.6416C 39.6104 8.62402 39.0361 8.84668 38.5439 9.30957C 38.0576 9.77246 37.6709 10.4609 37.3838 11.375L 42.0068 11.3838L 42.042 11.2432C 42.1357 10.5049 42.0156 9.89258 41.6816 9.40625C 41.3535 8.91406 40.8818 8.65918 40.2666 8.6416ZM 53.9248 17L 52.3252 17L 54.2061 6.20703L 50.8047 7.40234L 51.0771 5.85547L 55.8232 4.1416L 56.1045 4.1416L 53.9248 17Z"/>
<path id="path75_fill" d="M 6.64844 14.4248C 6.73633 13.7686 6.37598 13.3057 5.56738 13.0361L 3.91504 12.5527C 2.52051 12.0723 1.84668 11.2754 1.89355 10.1621C 1.93457 9.32422 2.31543 8.63867 3.03613 8.10547C 3.7627 7.56641 4.61523 7.30273 5.59375 7.31445C 6.55469 7.32617 7.33398 7.60742 7.93164 8.1582C 8.53516 8.70312 8.8252 9.41504 8.80176 10.2939L 7.21973 10.2852C 7.23145 9.81055 7.08203 9.42383 6.77148 9.125C 6.46094 8.82617 6.04785 8.6709 5.53223 8.65918C 4.98145 8.64746 4.50684 8.78223 4.1084 9.06348C 3.73926 9.32715 3.52539 9.67285 3.4668 10.1006C 3.39062 10.6514 3.72754 11.0527 4.47754 11.3047L 5.27734 11.5244C 6.36719 11.8057 7.14062 12.1719 7.59766 12.623C 8.05469 13.0742 8.26562 13.6338 8.23047 14.3018C 8.19531 14.8936 8.00195 15.4092 7.65039 15.8486C 7.29883 16.2881 6.83008 16.625 6.24414 16.8594C 5.6582 17.0879 5.03418 17.1934 4.37207 17.1758C 3.36426 17.1641 2.53223 16.8711 1.87598 16.2969C 1.21973 15.7168 0.90332 14.9727 0.926758 14.0645L 2.51758 14.0732C 2.51758 14.6064 2.6875 15.0342 3.02734 15.3564C 3.36719 15.6787 3.83301 15.8398 4.4248 15.8398C 5.00488 15.8516 5.50586 15.7314 5.92773 15.4795C 6.34961 15.2217 6.58984 14.8701 6.64844 14.4248ZM 14.0488 5.1875L 13.6445 7.49023L 15.376 7.49023L 15.1562 8.74707L 13.4336 8.74707L 12.4404 14.6621C 12.4229 14.8145 12.4199 14.9551 12.4316 15.084C 12.4727 15.541 12.7217 15.7695 13.1787 15.7695C 13.3721 15.7695 13.6299 15.7402 13.9521 15.6816L 13.8291 17.0088C 13.4482 17.1143 13.0615 17.167 12.6689 17.167C 12.0361 17.1553 11.5615 16.9238 11.2451 16.4727C 10.9287 16.0156 10.8057 15.4033 10.876 14.6357L 11.8428 8.74707L 10.1641 8.74707L 10.3838 7.49023L 12.0625 7.49023L 12.4668 5.1875L 14.0488 5.1875ZM 21.4668 17C 21.4258 16.8301 21.4053 16.6631 21.4053 16.499L 21.4316 15.998C 20.5586 16.8066 19.6328 17.1992 18.6543 17.1758C 17.8164 17.1641 17.1338 16.9004 16.6064 16.3848C 16.085 15.8633 15.8477 15.2129 15.8945 14.4336C 15.9531 13.4258 16.3926 12.6406 17.2129 12.0781C 18.0391 11.5098 19.123 11.2256 20.4648 11.2256L 22.126 11.2344L 22.2314 10.4785C 22.29 9.91016 22.1787 9.46191 21.8975 9.13379C 21.6221 8.7998 21.2061 8.62695 20.6494 8.61523C 20.1045 8.60352 19.6211 8.73828 19.1992 9.01953C 18.7832 9.29492 18.5283 9.66113 18.4346 10.1182L 16.835 10.127C 16.8877 9.57031 17.1045 9.07812 17.4854 8.65039C 17.8662 8.2168 18.3555 7.88281 18.9531 7.64844C 19.5508 7.4082 20.1689 7.29395 20.8076 7.30566C 21.7979 7.3291 22.5684 7.63086 23.1191 8.21094C 23.6699 8.78516 23.9014 9.5498 23.8135 10.5049L 23.04 15.2158L 22.9961 15.8926C 22.9844 16.2148 23.0195 16.5342 23.1016 16.8506L 23.084 17L 21.4668 17ZM 18.9707 15.7695C 19.4805 15.7812 19.9609 15.6611 20.4121 15.4092C 20.8691 15.1514 21.2617 14.7969 21.5898 14.3457L 21.9326 12.3857L 20.7285 12.377C 19.7266 12.377 18.959 12.5352 18.4258 12.8516C 17.8926 13.168 17.5908 13.6162 17.5205 14.1963C 17.4678 14.6416 17.5703 15.0137 17.8281 15.3125C 18.0918 15.6055 18.4727 15.7578 18.9707 15.7695ZM 25.7119 12.2275C 25.8525 11.1904 26.1309 10.291 26.5469 9.5293C 26.9688 8.76172 27.4785 8.19629 28.0762 7.83301C 28.6797 7.46387 29.3389 7.28809 30.0537 7.30566C 31.1553 7.3291 31.9873 7.74512 32.5498 8.55371L 32.8662 7.49023L 34.3252 7.49023L 32.7432 16.7979C 32.5732 18.0107 32.0811 18.9805 31.2666 19.707C 30.4521 20.4395 29.4473 20.7881 28.252 20.7529C 27.6074 20.7412 26.9893 20.5889 26.3975 20.2959C 25.8115 20.0029 25.3486 19.6016 25.0088 19.0918L 25.9141 18.1162C 26.4883 18.9658 27.2471 19.4023 28.1904 19.4258C 28.9463 19.4492 29.585 19.2383 30.1064 18.793C 30.6338 18.3477 30.9824 17.7148 31.1523 16.8945L 31.3281 16.0508C 30.5547 16.8242 29.6494 17.1992 28.6123 17.1758C 28.0205 17.1582 27.5049 17 27.0654 16.7012C 26.6318 16.3965 26.2949 15.96 26.0547 15.3916C 25.8145 14.8174 25.6826 14.1787 25.6592 13.4756C 25.6475 13.1299 25.665 12.7139 25.7119 12.2275ZM 27.25 13.1328C 27.2324 13.9707 27.376 14.6211 27.6807 15.084C 27.9912 15.541 28.457 15.7812 29.0781 15.8047C 30.0273 15.8281 30.8447 15.3623 31.5303 14.4072L 32.2773 10.0391C 31.9258 9.17188 31.29 8.7207 30.3701 8.68555C 29.5088 8.66211 28.7998 9.01367 28.2432 9.74023C 27.6924 10.4668 27.3672 11.4482 27.2676 12.6846L 27.25 13.1328ZM 39.2559 17.1758C 38.0723 17.1523 37.1465 16.7158 36.4785 15.8662C 35.8105 15.0166 35.5293 13.9297 35.6348 12.6055L 35.6787 12.2275C 35.7783 11.2842 36.0566 10.4229 36.5137 9.64355C 36.9766 8.86426 37.5391 8.27832 38.2012 7.88574C 38.8633 7.4873 39.5781 7.29688 40.3457 7.31445C 41.3242 7.33789 42.0918 7.66309 42.6484 8.29004C 43.2051 8.91699 43.5098 9.7666 43.5625 10.8389C 43.5801 11.2197 43.5684 11.6006 43.5273 11.9814L 43.4307 12.7109L 37.2168 12.7109C 37.1113 13.5723 37.252 14.3047 37.6387 14.9082C 38.0312 15.5117 38.6143 15.8252 39.3877 15.8486C 40.3252 15.8721 41.1924 15.4502 41.9893 14.583L 42.9033 15.3564C 42.5049 15.9307 41.9893 16.3818 41.3564 16.71C 40.7295 17.0322 40.0293 17.1875 39.2559 17.1758ZM 40.2666 8.6416C 39.6104 8.62402 39.0361 8.84668 38.5439 9.30957C 38.0576 9.77246 37.6709 10.4609 37.3838 11.375L 42.0068 11.3838L 42.042 11.2432C 42.1357 10.5049 42.0156 9.89258 41.6816 9.40625C 41.3535 8.91406 40.8818 8.65918 40.2666 8.6416ZM 56.9658 17L 48.8184 17L 49.0117 15.7607L 53.7314 11.1729L 54.5928 10.3203C 55.583 9.33008 56.1309 8.41602 56.2363 7.57812C 56.3125 6.93359 56.1865 6.40918 55.8584 6.00488C 55.5303 5.59473 55.0674 5.37793 54.4697 5.35449C 53.7021 5.33105 53.0605 5.55664 52.5449 6.03125C 52.0293 6.5 51.7158 7.14453 51.6045 7.96484L 50.0312 7.97363C 50.1074 7.18848 50.3477 6.49414 50.752 5.89062C 51.1621 5.28125 51.6982 4.81543 52.3604 4.49316C 53.0283 4.16504 53.752 4.00977 54.5312 4.02734C 55.5918 4.05078 56.4326 4.37305 57.0537 4.99414C 57.6807 5.60938 57.9502 6.40918 57.8623 7.39355C 57.7627 8.51855 57.1152 9.70215 55.9199 10.9443L 55.1113 11.7617L 50.998 15.6729L 57.1768 15.6729L 56.9658 17Z"/>
<path id="path76_stroke" d="M 19.7071 0.707107C 20.0976 0.316582 20.0976 -0.316582 19.7071 -0.707107L 13.3431 -7.07107C 12.9526 -7.46159 12.3195 -7.46159 11.9289 -7.07107C 11.5384 -6.68054 11.5384 -6.04738 11.9289 -5.65685L 17.5858 0L 11.9289 5.65685C 11.5384 6.04738 11.5384 6.68054 11.9289 7.07107C 12.3195 7.46159 12.9526 7.46159 13.3431 7.07107L 19.7071 0.707107ZM 0 1L 19 1L 19 -1L 0 -1L 0 1Z"/>
<path id="path77_stroke" d="M 117.707 0.707107C 118.098 0.316582 118.098 -0.316582 117.707 -0.707107L 111.343 -7.07107C 110.953 -7.46159 110.319 -7.46159 109.929 -7.07107C 109.538 -6.68054 109.538 -6.04738 109.929 -5.65685L 115.586 0L 109.929 5.65685C 109.538 6.04738 109.538 6.68054 109.929 7.07107C 110.319 7.46159 110.953 7.46159 111.343 7.07107L 117.707 0.707107ZM 0 1L 117 1L 117 -1L 0 -1L 0 1Z"/>
</defs>
</svg>

