<svg width="242" height="246" viewBox="0 0 242 246" fill="none" xmlns="http://www.w3.org/2000/svg">
<rect width="242" height="246" fill="white"/>
<rect width="242" height="246" fill="black"/>
<path d="M7.87 179.74C8.55 179.17 9.17 178.64 9.73 178.15C10.29 177.65 10.77 177.185 11.17 176.755C11.57 176.325 11.88 175.92 12.1 175.54C12.32 175.16 12.43 174.8 12.43 174.46C12.43 173.99 12.295 173.635 12.025 173.395C11.755 173.145 11.37 173.02 10.87 173.02C10.49 173.02 10.14 173.12 9.82 173.32C9.51 173.51 9.22 173.735 8.95 173.995L7.765 172.81C8.015 172.56 8.26 172.34 8.5 172.15C8.75 171.96 9.01 171.805 9.28 171.685C9.56 171.555 9.85 171.46 10.15 171.4C10.46 171.33 10.8 171.295 11.17 171.295C11.67 171.295 12.125 171.37 12.535 171.52C12.945 171.66 13.295 171.865 13.585 172.135C13.885 172.395 14.115 172.71 14.275 173.08C14.445 173.45 14.53 173.865 14.53 174.325C14.53 174.725 14.435 175.135 14.245 175.555C14.055 175.965 13.795 176.38 13.465 176.8C13.145 177.21 12.775 177.625 12.355 178.045C11.935 178.455 11.495 178.86 11.035 179.26C11.305 179.23 11.595 179.205 11.905 179.185C12.225 179.155 12.51 179.14 12.76 179.14H15.025V181H7.87V179.74ZM20.4941 181.18C19.9441 181.18 19.4441 181.075 18.9941 180.865C18.5441 180.645 18.1591 180.325 17.8391 179.905C17.5191 179.485 17.2691 178.965 17.0891 178.345C16.9191 177.725 16.8341 177.01 16.8341 176.2C16.8341 175.39 16.9191 174.68 17.0891 174.07C17.2691 173.46 17.5191 172.95 17.8391 172.54C18.1591 172.12 18.5441 171.81 18.9941 171.61C19.4441 171.4 19.9441 171.295 20.4941 171.295C21.0441 171.295 21.5441 171.4 21.9941 171.61C22.4441 171.81 22.8291 172.12 23.1491 172.54C23.4691 172.95 23.7141 173.46 23.8841 174.07C24.0641 174.68 24.1541 175.39 24.1541 176.2C24.1541 177.01 24.0641 177.725 23.8841 178.345C23.7141 178.965 23.4691 179.485 23.1491 179.905C22.8291 180.325 22.4441 180.645 21.9941 180.865C21.5441 181.075 21.0441 181.18 20.4941 181.18ZM20.4941 173.005C20.2541 173.005 20.0291 173.055 19.8191 173.155C19.6191 173.255 19.4441 173.43 19.2941 173.68C19.1441 173.92 19.0241 174.245 18.9341 174.655C18.8441 175.065 18.7991 175.58 18.7991 176.2C18.7991 176.82 18.8441 177.34 18.9341 177.76C19.0241 178.17 19.1441 178.505 19.2941 178.765C19.4441 179.015 19.6191 179.195 19.8191 179.305C20.0291 179.415 20.2541 179.47 20.4941 179.47C20.7341 179.47 20.9541 179.415 21.1541 179.305C21.3641 179.195 21.5441 179.015 21.6941 178.765C21.8441 178.505 21.9641 178.17 22.0541 177.76C22.1441 177.34 22.1891 176.82 22.1891 176.2C22.1891 175.58 22.1441 175.065 22.0541 174.655C21.9641 174.245 21.8441 173.92 21.6941 173.68C21.5441 173.43 21.3641 173.255 21.1541 173.155C20.9541 173.055 20.7341 173.005 20.4941 173.005ZM20.4941 177.31C20.1741 177.31 19.9041 177.21 19.6841 177.01C19.4741 176.8 19.3691 176.52 19.3691 176.17C19.3691 175.82 19.4741 175.545 19.6841 175.345C19.9041 175.135 20.1741 175.03 20.4941 175.03C20.8141 175.03 21.0791 175.135 21.2891 175.345C21.5091 175.545 21.6191 175.82 21.6191 176.17C21.6191 176.52 21.5091 176.8 21.2891 177.01C21.0791 177.21 20.8141 177.31 20.4941 177.31ZM8.65 197.435C8.97 197.715 9.325 197.945 9.715 198.125C10.115 198.305 10.535 198.395 10.975 198.395C11.495 198.395 11.92 198.3 12.25 198.11C12.59 197.91 12.76 197.63 12.76 197.27C12.76 197.06 12.715 196.87 12.625 196.7C12.535 196.53 12.38 196.39 12.16 196.28C11.94 196.16 11.645 196.07 11.275 196.01C10.905 195.94 10.44 195.905 9.88 195.905V194.345C10.82 194.345 11.48 194.23 11.86 194C12.25 193.76 12.445 193.45 12.445 193.07C12.445 192.74 12.32 192.485 12.07 192.305C11.82 192.115 11.475 192.02 11.035 192.02C10.655 192.02 10.305 192.095 9.985 192.245C9.665 192.395 9.34 192.6 9.01 192.86L7.9 191.51C8.37 191.13 8.87 190.835 9.4 190.625C9.94 190.405 10.52 190.295 11.14 190.295C11.66 190.295 12.135 190.355 12.565 190.475C12.995 190.585 13.365 190.755 13.675 190.985C13.985 191.205 14.225 191.475 14.395 191.795C14.565 192.115 14.65 192.485 14.65 192.905C14.65 193.405 14.49 193.83 14.17 194.18C13.85 194.52 13.405 194.8 12.835 195.02V195.08C13.435 195.24 13.94 195.515 14.35 195.905C14.76 196.285 14.965 196.785 14.965 197.405C14.965 197.845 14.86 198.24 14.65 198.59C14.45 198.93 14.175 199.22 13.825 199.46C13.485 199.69 13.085 199.87 12.625 200C12.165 200.12 11.685 200.18 11.185 200.18C10.365 200.18 9.66 200.06 9.07 199.82C8.48 199.57 8 199.24 7.63 198.83L8.65 197.435ZM20.4941 200.18C19.9441 200.18 19.4441 200.075 18.9941 199.865C18.5441 199.645 18.1591 199.325 17.8391 198.905C17.5191 198.485 17.2691 197.965 17.0891 197.345C16.9191 196.725 16.8341 196.01 16.8341 195.2C16.8341 194.39 16.9191 193.68 17.0891 193.07C17.2691 192.46 17.5191 191.95 17.8391 191.54C18.1591 191.12 18.5441 190.81 18.9941 190.61C19.4441 190.4 19.9441 190.295 20.4941 190.295C21.0441 190.295 21.5441 190.4 21.9941 190.61C22.4441 190.81 22.8291 191.12 23.1491 191.54C23.4691 191.95 23.7141 192.46 23.8841 193.07C24.0641 193.68 24.1541 194.39 24.1541 195.2C24.1541 196.01 24.0641 196.725 23.8841 197.345C23.7141 197.965 23.4691 198.485 23.1491 198.905C22.8291 199.325 22.4441 199.645 21.9941 199.865C21.5441 200.075 21.0441 200.18 20.4941 200.18ZM20.4941 192.005C20.2541 192.005 20.0291 192.055 19.8191 192.155C19.6191 192.255 19.4441 192.43 19.2941 192.68C19.1441 192.92 19.0241 193.245 18.9341 193.655C18.8441 194.065 18.7991 194.58 18.7991 195.2C18.7991 195.82 18.8441 196.34 18.9341 196.76C19.0241 197.17 19.1441 197.505 19.2941 197.765C19.4441 198.015 19.6191 198.195 19.8191 198.305C20.0291 198.415 20.2541 198.47 20.4941 198.47C20.7341 198.47 20.9541 198.415 21.1541 198.305C21.3641 198.195 21.5441 198.015 21.6941 197.765C21.8441 197.505 21.9641 197.17 22.0541 196.76C22.1441 196.34 22.1891 195.82 22.1891 195.2C22.1891 194.58 22.1441 194.065 22.0541 193.655C21.9641 193.245 21.8441 192.92 21.6941 192.68C21.5441 192.43 21.3641 192.255 21.1541 192.155C20.9541 192.055 20.7341 192.005 20.4941 192.005ZM20.4941 196.31C20.1741 196.31 19.9041 196.21 19.6841 196.01C19.4741 195.8 19.3691 195.52 19.3691 195.17C19.3691 194.82 19.4741 194.545 19.6841 194.345C19.9041 194.135 20.1741 194.03 20.4941 194.03C20.8141 194.03 21.0791 194.135 21.2891 194.345C21.5091 194.545 21.6191 194.82 21.6191 195.17C21.6191 195.52 21.5091 195.8 21.2891 196.01C21.0791 196.21 20.8141 196.31 20.4941 196.31ZM15.055 216.215V218H8.23V216.215H10.69V210.71H8.725V209.345C9.285 209.245 9.76 209.125 10.15 208.985C10.55 208.845 10.925 208.675 11.275 208.475H12.895V216.215H15.055ZM20.4941 218.18C19.9441 218.18 19.4441 218.075 18.9941 217.865C18.5441 217.645 18.1591 217.325 17.8391 216.905C17.5191 216.485 17.2691 215.965 17.0891 215.345C16.9191 214.725 16.8341 214.01 16.8341 213.2C16.8341 212.39 16.9191 211.68 17.0891 211.07C17.2691 210.46 17.5191 209.95 17.8391 209.54C18.1591 209.12 18.5441 208.81 18.9941 208.61C19.4441 208.4 19.9441 208.295 20.4941 208.295C21.0441 208.295 21.5441 208.4 21.9941 208.61C22.4441 208.81 22.8291 209.12 23.1491 209.54C23.4691 209.95 23.7141 210.46 23.8841 211.07C24.0641 211.68 24.1541 212.39 24.1541 213.2C24.1541 214.01 24.0641 214.725 23.8841 215.345C23.7141 215.965 23.4691 216.485 23.1491 216.905C22.8291 217.325 22.4441 217.645 21.9941 217.865C21.5441 218.075 21.0441 218.18 20.4941 218.18ZM20.4941 210.005C20.2541 210.005 20.0291 210.055 19.8191 210.155C19.6191 210.255 19.4441 210.43 19.2941 210.68C19.1441 210.92 19.0241 211.245 18.9341 211.655C18.8441 212.065 18.7991 212.58 18.7991 213.2C18.7991 213.82 18.8441 214.34 18.9341 214.76C19.0241 215.17 19.1441 215.505 19.2941 215.765C19.4441 216.015 19.6191 216.195 19.8191 216.305C20.0291 216.415 20.2541 216.47 20.4941 216.47C20.7341 216.47 20.9541 216.415 21.1541 216.305C21.3641 216.195 21.5441 216.015 21.6941 215.765C21.8441 215.505 21.9641 215.17 22.0541 214.76C22.1441 214.34 22.1891 213.82 22.1891 213.2C22.1891 212.58 22.1441 212.065 22.0541 211.655C21.9641 211.245 21.8441 210.92 21.6941 210.68C21.5441 210.43 21.3641 210.255 21.1541 210.155C20.9541 210.055 20.7341 210.005 20.4941 210.005ZM20.4941 214.31C20.1741 214.31 19.9041 214.21 19.6841 214.01C19.4741 213.8 19.3691 213.52 19.3691 213.17C19.3691 212.82 19.4741 212.545 19.6841 212.345C19.9041 212.135 20.1741 212.03 20.4941 212.03C20.8141 212.03 21.0791 212.135 21.2891 212.345C21.5091 212.545 21.6191 212.82 21.6191 213.17C21.6191 213.52 21.5091 213.8 21.2891 214.01C21.0791 214.21 20.8141 214.31 20.4941 214.31ZM12.115 233.04V231.435C12.115 231.135 12.12 230.79 12.13 230.4C12.15 230 12.17 229.65 12.19 229.35H12.13C11.97 229.62 11.8 229.89 11.62 230.16C11.44 230.43 11.265 230.7 11.095 230.97L9.655 233.04H12.115ZM15.37 234.72H14.17V237H12.115V234.72H7.525V233.205L11.5 227.475H14.17V233.04H15.37V234.72ZM20.4941 237.18C19.9441 237.18 19.4441 237.075 18.9941 236.865C18.5441 236.645 18.1591 236.325 17.8391 235.905C17.5191 235.485 17.2691 234.965 17.0891 234.345C16.9191 233.725 16.8341 233.01 16.8341 232.2C16.8341 231.39 16.9191 230.68 17.0891 230.07C17.2691 229.46 17.5191 228.95 17.8391 228.54C18.1591 228.12 18.5441 227.81 18.9941 227.61C19.4441 227.4 19.9441 227.295 20.4941 227.295C21.0441 227.295 21.5441 227.4 21.9941 227.61C22.4441 227.81 22.8291 228.12 23.1491 228.54C23.4691 228.95 23.7141 229.46 23.8841 230.07C24.0641 230.68 24.1541 231.39 24.1541 232.2C24.1541 233.01 24.0641 233.725 23.8841 234.345C23.7141 234.965 23.4691 235.485 23.1491 235.905C22.8291 236.325 22.4441 236.645 21.9941 236.865C21.5441 237.075 21.0441 237.18 20.4941 237.18ZM20.4941 229.005C20.2541 229.005 20.0291 229.055 19.8191 229.155C19.6191 229.255 19.4441 229.43 19.2941 229.68C19.1441 229.92 19.0241 230.245 18.9341 230.655C18.8441 231.065 18.7991 231.58 18.7991 232.2C18.7991 232.82 18.8441 233.34 18.9341 233.76C19.0241 234.17 19.1441 234.505 19.2941 234.765C19.4441 235.015 19.6191 235.195 19.8191 235.305C20.0291 235.415 20.2541 235.47 20.4941 235.47C20.7341 235.47 20.9541 235.415 21.1541 235.305C21.3641 235.195 21.5441 235.015 21.6941 234.765C21.8441 234.505 21.9641 234.17 22.0541 233.76C22.1441 233.34 22.1891 232.82 22.1891 232.2C22.1891 231.58 22.1441 231.065 22.0541 230.655C21.9641 230.245 21.8441 229.92 21.6941 229.68C21.5441 229.43 21.3641 229.255 21.1541 229.155C20.9541 229.055 20.7341 229.005 20.4941 229.005ZM20.4941 233.31C20.1741 233.31 19.9041 233.21 19.6841 233.01C19.4741 232.8 19.3691 232.52 19.3691 232.17C19.3691 231.82 19.4741 231.545 19.6841 231.345C19.9041 231.135 20.1741 231.03 20.4941 231.03C20.8141 231.03 21.0791 231.135 21.2891 231.345C21.5091 231.545 21.6191 231.82 21.6191 232.17C21.6191 232.52 21.5091 232.8 21.2891 233.01C21.0791 233.21 20.8141 233.31 20.4941 233.31Z" fill="white"/>
<path d="M11.5 162.18C10.92 162.18 10.385 162.065 9.895 161.835C9.415 161.595 9 161.255 8.65 160.815C8.31 160.375 8.045 159.84 7.855 159.21C7.665 158.58 7.57 157.865 7.57 157.065C7.57 156.265 7.665 155.555 7.855 154.935C8.045 154.305 8.31 153.78 8.65 153.36C9 152.93 9.415 152.605 9.895 152.385C10.385 152.155 10.92 152.04 11.5 152.04C12.08 152.04 12.61 152.155 13.09 152.385C13.58 152.605 13.995 152.93 14.335 153.36C14.685 153.79 14.955 154.32 15.145 154.95C15.335 155.57 15.43 156.275 15.43 157.065C15.43 157.865 15.335 158.58 15.145 159.21C14.955 159.84 14.685 160.375 14.335 160.815C13.995 161.255 13.58 161.595 13.09 161.835C12.61 162.065 12.08 162.18 11.5 162.18ZM11.5 160.275C12.01 160.275 12.415 159.99 12.715 159.42C13.015 158.84 13.165 158.055 13.165 157.065C13.165 156.085 13.015 155.32 12.715 154.77C12.415 154.22 12.01 153.945 11.5 153.945C10.99 153.945 10.585 154.22 10.285 154.77C9.985 155.32 9.835 156.085 9.835 157.065C9.835 158.055 9.985 158.84 10.285 159.42C10.585 159.99 10.99 160.275 11.5 160.275ZM23.8691 162H22.0691L21.9041 160.935H21.8441C21.5141 161.315 21.1491 161.62 20.7491 161.85C20.3491 162.07 19.8791 162.18 19.3391 162.18C18.4891 162.18 17.8741 161.91 17.4941 161.37C17.1141 160.83 16.9241 160.09 16.9241 159.15V154.56H19.1291V158.865C19.1291 159.365 19.2041 159.73 19.3541 159.96C19.5041 160.19 19.7891 160.305 20.2091 160.305C20.4891 160.305 20.7341 160.245 20.9441 160.125C21.1641 160.005 21.4041 159.78 21.6641 159.45V154.56H23.8691V162ZM27.5983 156.285H25.7233V154.65L27.7033 154.56L27.9883 152.58H29.8033V154.56H32.9533V156.285H29.8033V158.895C29.8033 159.465 29.9283 159.87 30.1783 160.11C30.4283 160.34 30.8233 160.455 31.3633 160.455C31.6533 160.455 31.9183 160.43 32.1583 160.38C32.3983 160.33 32.6283 160.265 32.8483 160.185L33.2383 161.775C32.9083 161.875 32.5383 161.965 32.1283 162.045C31.7283 162.135 31.2883 162.18 30.8083 162.18C30.2183 162.18 29.7183 162.1 29.3083 161.94C28.8983 161.78 28.5633 161.56 28.3033 161.28C28.0533 160.99 27.8733 160.645 27.7633 160.245C27.6533 159.845 27.5983 159.4 27.5983 158.91V156.285ZM37.2674 162.585V164.76H35.0624V154.56H36.8624L37.0274 155.31H37.0724C37.3724 155.04 37.7174 154.82 38.1074 154.65C38.4974 154.47 38.8924 154.38 39.2924 154.38C39.7524 154.38 40.1674 154.47 40.5374 154.65C40.9074 154.83 41.2224 155.085 41.4824 155.415C41.7424 155.745 41.9374 156.145 42.0674 156.615C42.2074 157.075 42.2774 157.59 42.2774 158.16C42.2774 158.8 42.1874 159.37 42.0074 159.87C41.8274 160.36 41.5874 160.78 41.2874 161.13C40.9874 161.47 40.6424 161.73 40.2524 161.91C39.8724 162.09 39.4724 162.18 39.0524 162.18C38.3724 162.18 37.7524 161.91 37.1924 161.37L37.2674 162.585ZM37.2674 159.885C37.4774 160.065 37.6924 160.195 37.9124 160.275C38.1424 160.345 38.3524 160.38 38.5424 160.38C38.9624 160.38 39.3124 160.21 39.5924 159.87C39.8724 159.52 40.0124 158.96 40.0124 158.19C40.0124 156.85 39.5574 156.18 38.6474 156.18C38.1774 156.18 37.7174 156.41 37.2674 156.87V159.885ZM50.8516 162H49.0516L48.8866 160.935H48.8266C48.4966 161.315 48.1316 161.62 47.7316 161.85C47.3316 162.07 46.8616 162.18 46.3216 162.18C45.4716 162.18 44.8566 161.91 44.4766 161.37C44.0966 160.83 43.9066 160.09 43.9066 159.15V154.56H46.1116V158.865C46.1116 159.365 46.1866 159.73 46.3366 159.96C46.4866 160.19 46.7716 160.305 47.1916 160.305C47.4716 160.305 47.7166 160.245 47.9266 160.125C48.1466 160.005 48.3866 159.78 48.6466 159.45V154.56H50.8516V162ZM54.5807 156.285H52.7057V154.65L54.6857 154.56L54.9707 152.58H56.7857V154.56H59.9357V156.285H56.7857V158.895C56.7857 159.465 56.9107 159.87 57.1607 160.11C57.4107 160.34 57.8057 160.455 58.3457 160.455C58.6357 160.455 58.9007 160.43 59.1407 160.38C59.3807 160.33 59.6107 160.265 59.8307 160.185L60.2207 161.775C59.8907 161.875 59.5207 161.965 59.1107 162.045C58.7107 162.135 58.2707 162.18 57.7907 162.18C57.2007 162.18 56.7007 162.1 56.2907 161.94C55.8807 161.78 55.5457 161.56 55.2857 161.28C55.0357 160.99 54.8557 160.645 54.7457 160.245C54.6357 159.845 54.5807 159.4 54.5807 158.91V156.285Z" fill="white"/>
<rect x="96.75" width="145.25" height="30.6018" fill="#333333"/>
<rect x="96.75" width="145.25" height="30.6018" fill="#333333"/>
<rect width="97" height="31" fill="#090808"/>
<path d="M18.105 17.8101C18.105 17.5513 17.9756 17.3486 17.7168 17.2021C17.4629 17.0508 17.0527 16.9165 16.4863 16.7993C14.6016 16.4038 13.6592 15.603 13.6592 14.397C13.6592 13.6938 13.9497 13.1079 14.5308 12.6392C15.1167 12.1655 15.8809 11.9287 16.8232 11.9287C17.8291 11.9287 18.6323 12.1655 19.2329 12.6392C19.8384 13.1128 20.1411 13.728 20.1411 14.4849H18.0244C18.0244 14.1821 17.9268 13.9331 17.7314 13.7378C17.5361 13.5376 17.231 13.4375 16.8159 13.4375C16.4595 13.4375 16.1836 13.5181 15.9883 13.6792C15.793 13.8403 15.6953 14.0454 15.6953 14.2944C15.6953 14.5288 15.8052 14.7192 16.0249 14.8657C16.2495 15.0073 16.6255 15.1318 17.1528 15.2393C17.6802 15.3418 18.1245 15.459 18.4858 15.5908C19.604 16.001 20.1631 16.7114 20.1631 17.7222C20.1631 18.4448 19.853 19.0308 19.2329 19.48C18.6128 19.9243 17.812 20.1465 16.8306 20.1465C16.1665 20.1465 15.5757 20.0293 15.0581 19.7949C14.5454 19.5557 14.1426 19.231 13.8496 18.8208C13.5566 18.4058 13.4102 17.959 13.4102 17.4805H15.417C15.4365 17.8564 15.5757 18.1445 15.8345 18.3447C16.0933 18.5449 16.4399 18.645 16.8745 18.645C17.2798 18.645 17.585 18.5693 17.79 18.418C18 18.2617 18.105 18.0591 18.105 17.8101ZM24.8286 18.4399C25.2192 18.4399 25.5366 18.3325 25.7808 18.1177C26.0249 17.9028 26.1519 17.6172 26.1616 17.2607H28.1465C28.1416 17.7979 27.9951 18.291 27.707 18.7402C27.4189 19.1846 27.0234 19.5312 26.5205 19.7803C26.0225 20.0244 25.4707 20.1465 24.8652 20.1465C23.7324 20.1465 22.8389 19.7876 22.1846 19.0698C21.5303 18.3472 21.2031 17.3511 21.2031 16.0815V15.9424C21.2031 14.7217 21.5278 13.7476 22.1772 13.02C22.8267 12.2925 23.7178 11.9287 24.8506 11.9287C25.8418 11.9287 26.6353 12.2119 27.231 12.7783C27.8315 13.3398 28.1367 14.0894 28.1465 15.0269H26.1616C26.1519 14.6167 26.0249 14.2847 25.7808 14.0308C25.5366 13.772 25.2144 13.6426 24.814 13.6426C24.3208 13.6426 23.9473 13.8232 23.6934 14.1846C23.4443 14.541 23.3198 15.1221 23.3198 15.9277V16.1475C23.3198 16.9629 23.4443 17.5488 23.6934 17.9053C23.9424 18.2617 24.3208 18.4399 24.8286 18.4399ZM33.8081 14.0601C33.52 14.021 33.2661 14.0015 33.0464 14.0015C32.2456 14.0015 31.7207 14.2725 31.4717 14.8145V20H29.355V12.0752H31.3545L31.4131 13.02C31.8379 12.2925 32.4263 11.9287 33.1782 11.9287C33.4126 11.9287 33.6323 11.9604 33.8374 12.0239L33.8081 14.0601ZM37.0674 20H34.9434V12.0752H37.0674V20ZM34.8188 10.0244C34.8188 9.70703 34.9238 9.4458 35.1338 9.24072C35.3486 9.03564 35.6392 8.93311 36.0054 8.93311C36.3667 8.93311 36.6548 9.03564 36.8696 9.24072C37.0845 9.4458 37.1919 9.70703 37.1919 10.0244C37.1919 10.3467 37.082 10.6104 36.8623 10.8154C36.6475 11.0205 36.3618 11.123 36.0054 11.123C35.6489 11.123 35.3608 11.0205 35.1411 10.8154C34.9263 10.6104 34.8188 10.3467 34.8188 10.0244ZM45.9517 16.1108C45.9517 17.3315 45.6733 18.3105 45.1167 19.0479C44.5649 19.7803 43.8179 20.1465 42.8755 20.1465C42.0747 20.1465 41.4277 19.8682 40.9346 19.3115V23.0469H38.8179V12.0752H40.7808L40.854 12.8516C41.3667 12.2363 42.0356 11.9287 42.8608 11.9287C43.8374 11.9287 44.5967 12.29 45.1387 13.0127C45.6807 13.7354 45.9517 14.7314 45.9517 16.001V16.1108ZM43.835 15.957C43.835 15.2197 43.7031 14.6509 43.4395 14.2505C43.1807 13.8501 42.8022 13.6499 42.3042 13.6499C41.6401 13.6499 41.1836 13.9038 40.9346 14.4116V17.6562C41.1934 18.1787 41.6548 18.4399 42.3188 18.4399C43.3296 18.4399 43.835 17.6123 43.835 15.957ZM49.8042 10.127V12.0752H51.1592V13.6279H49.8042V17.583C49.8042 17.876 49.8604 18.0859 49.9727 18.2129C50.085 18.3398 50.2998 18.4033 50.6172 18.4033C50.8516 18.4033 51.0591 18.3862 51.2397 18.3521V19.9561C50.8247 20.083 50.3975 20.1465 49.958 20.1465C48.4736 20.1465 47.7168 19.397 47.6875 17.8979V13.6279H46.5303V12.0752H47.6875V10.127H49.8042ZM52.4482 18.96C52.4482 18.623 52.5605 18.3496 52.7852 18.1396C53.0146 17.9297 53.3003 17.8247 53.6421 17.8247C53.9888 17.8247 54.2744 17.9297 54.499 18.1396C54.7285 18.3496 54.8433 18.623 54.8433 18.96C54.8433 19.292 54.731 19.563 54.5063 19.7729C54.2817 19.978 53.9937 20.0806 53.6421 20.0806C53.2954 20.0806 53.0098 19.978 52.7852 19.7729C52.5605 19.563 52.4482 19.292 52.4482 18.96ZM63.8374 16.1108C63.8374 17.3315 63.5591 18.3105 63.0024 19.0479C62.4507 19.7803 61.7036 20.1465 60.7612 20.1465C59.9604 20.1465 59.3135 19.8682 58.8203 19.3115V23.0469H56.7036V12.0752H58.6665L58.7397 12.8516C59.2524 12.2363 59.9214 11.9287 60.7466 11.9287C61.7231 11.9287 62.4824 12.29 63.0244 13.0127C63.5664 13.7354 63.8374 14.7314 63.8374 16.001V16.1108ZM61.7207 15.957C61.7207 15.2197 61.5889 14.6509 61.3252 14.2505C61.0664 13.8501 60.688 13.6499 60.1899 13.6499C59.5259 13.6499 59.0693 13.9038 58.8203 14.4116V17.6562C59.0791 18.1787 59.5405 18.4399 60.2046 18.4399C61.2153 18.4399 61.7207 17.6123 61.7207 15.957ZM68.0269 17.0044L69.4917 12.0752H71.7622L68.5762 21.2305L68.4004 21.6479C67.9268 22.6831 67.1455 23.2007 66.0566 23.2007C65.749 23.2007 65.4365 23.1543 65.1191 23.0615V21.4575L65.4414 21.4648C65.8418 21.4648 66.1396 21.4038 66.335 21.2817C66.5352 21.1597 66.6914 20.957 66.8037 20.6738L67.0527 20.022L64.2769 12.0752H66.5547L68.0269 17.0044Z" fill="white"/>
<line x1="0.000161892" y1="141.5" x2="242" y2="141.578" stroke="white"/>
<path d="M8.74 43.56H10.54L10.72 45.18H10.765C11.135 44.57 11.58 44.12 12.1 43.83C12.62 43.53 13.18 43.38 13.78 43.38C14.11 43.38 14.375 43.405 14.575 43.455C14.785 43.505 15 43.58 15.22 43.68L14.77 45.525C14.54 45.455 14.33 45.405 14.14 45.375C13.96 45.335 13.73 45.315 13.45 45.315C12.99 45.315 12.535 45.45 12.085 45.72C11.645 45.99 11.265 46.46 10.945 47.13V51H8.74V43.56ZM16.8191 47.28C16.8191 46.67 16.9241 46.125 17.1341 45.645C17.3541 45.165 17.6441 44.76 18.0041 44.43C18.3641 44.09 18.7741 43.83 19.2341 43.65C19.7041 43.47 20.1891 43.38 20.6891 43.38C21.2591 43.38 21.7641 43.47 22.2041 43.65C22.6441 43.83 23.0091 44.08 23.2991 44.4C23.5891 44.72 23.8091 45.1 23.9591 45.54C24.1091 45.97 24.1841 46.44 24.1841 46.95C24.1841 47.15 24.1741 47.34 24.1541 47.52C24.1341 47.7 24.1141 47.835 24.0941 47.925H19.0841C19.1641 48.485 19.4041 48.89 19.8041 49.14C20.2141 49.38 20.6941 49.5 21.2441 49.5C21.5841 49.5 21.9041 49.46 22.2041 49.38C22.5141 49.29 22.8341 49.16 23.1641 48.99L23.8841 50.31C23.4641 50.58 22.9941 50.795 22.4741 50.955C21.9541 51.105 21.4441 51.18 20.9441 51.18C20.3641 51.18 19.8241 51.095 19.3241 50.925C18.8241 50.745 18.3891 50.49 18.0191 50.16C17.6491 49.82 17.3541 49.41 17.1341 48.93C16.9241 48.45 16.8191 47.9 16.8191 47.28ZM22.1891 46.47C22.1891 46.05 22.0741 45.71 21.8441 45.45C21.6141 45.19 21.2441 45.06 20.7341 45.06C20.3341 45.06 19.9791 45.175 19.6691 45.405C19.3591 45.635 19.1541 45.99 19.0541 46.47H22.1891ZM26.7733 48.66C27.2033 48.93 27.6333 49.145 28.0633 49.305C28.5033 49.465 28.9733 49.545 29.4733 49.545C29.9833 49.545 30.3483 49.49 30.5683 49.38C30.7883 49.27 30.8983 49.115 30.8983 48.915C30.8983 48.685 30.7133 48.5 30.3433 48.36C29.9833 48.21 29.5033 48.05 28.9033 47.88C28.5733 47.79 28.2483 47.685 27.9283 47.565C27.6183 47.435 27.3383 47.285 27.0883 47.115C26.8383 46.935 26.6333 46.73 26.4733 46.5C26.3233 46.27 26.2483 46.005 26.2483 45.705C26.2483 45.365 26.3283 45.05 26.4883 44.76C26.6483 44.47 26.8733 44.225 27.1633 44.025C27.4633 43.825 27.8233 43.67 28.2433 43.56C28.6733 43.44 29.1533 43.38 29.6833 43.38C30.3433 43.38 30.9433 43.49 31.4833 43.71C32.0333 43.92 32.5033 44.15 32.8933 44.4L31.9033 45.72C31.5633 45.52 31.2133 45.355 30.8533 45.225C30.4933 45.085 30.1183 45.015 29.7283 45.015C29.2583 45.015 28.9233 45.065 28.7233 45.165C28.5333 45.265 28.4383 45.41 28.4383 45.6C28.4383 45.71 28.4883 45.81 28.5883 45.9C28.6883 45.99 28.8233 46.07 28.9933 46.14C29.1633 46.21 29.3633 46.28 29.5933 46.35C29.8333 46.41 30.0833 46.475 30.3433 46.545C30.7133 46.645 31.0633 46.76 31.3933 46.89C31.7233 47.01 32.0133 47.155 32.2633 47.325C32.5133 47.495 32.7133 47.7 32.8633 47.94C33.0133 48.18 33.0883 48.46 33.0883 48.78C33.0883 49.12 33.0083 49.435 32.8483 49.725C32.6883 50.015 32.4533 50.27 32.1433 50.49C31.8433 50.7 31.4633 50.87 31.0033 51C30.5533 51.12 30.0283 51.18 29.4283 51.18C28.7583 51.18 28.1033 51.07 27.4633 50.85C26.8233 50.63 26.2633 50.36 25.7833 50.04L26.7733 48.66ZM41.8574 51H40.0574L39.8924 49.935H39.8324C39.5024 50.315 39.1374 50.62 38.7374 50.85C38.3374 51.07 37.8674 51.18 37.3274 51.18C36.4774 51.18 35.8624 50.91 35.4824 50.37C35.1024 49.83 34.9124 49.09 34.9124 48.15V43.56H37.1174V47.865C37.1174 48.365 37.1924 48.73 37.3424 48.96C37.4924 49.19 37.7774 49.305 38.1974 49.305C38.4774 49.305 38.7224 49.245 38.9324 49.125C39.1524 49.005 39.3924 48.78 39.6524 48.45V43.56H41.8574V51ZM43.9066 40.485H48.2716V48.18C48.2716 48.41 48.3016 48.605 48.3616 48.765C48.4316 48.915 48.5216 49.04 48.6316 49.14C48.7516 49.23 48.8816 49.295 49.0216 49.335C49.1716 49.375 49.3216 49.395 49.4716 49.395C49.6416 49.395 49.8216 49.38 50.0116 49.35C50.2016 49.31 50.4116 49.245 50.6416 49.155L51.1366 50.775C50.9366 50.835 50.7516 50.89 50.5816 50.94C50.4116 50.99 50.2416 51.03 50.0716 51.06C49.9016 51.1 49.7216 51.13 49.5316 51.15C49.3416 51.17 49.1316 51.18 48.9016 51.18C47.9616 51.18 47.2516 50.905 46.7716 50.355C46.3016 49.795 46.0666 49.04 46.0666 48.09V42.225H43.9066V40.485ZM54.5807 45.285H52.7057V43.65L54.6857 43.56L54.9707 41.58H56.7857V43.56H59.9357V45.285H56.7857V47.895C56.7857 48.465 56.9107 48.87 57.1607 49.11C57.4107 49.34 57.8057 49.455 58.3457 49.455C58.6357 49.455 58.9007 49.43 59.1407 49.38C59.3807 49.33 59.6107 49.265 59.8307 49.185L60.2207 50.775C59.8907 50.875 59.5207 50.965 59.1107 51.045C58.7107 51.135 58.2707 51.18 57.7907 51.18C57.2007 51.18 56.7007 51.1 56.2907 50.94C55.8807 50.78 55.5457 50.56 55.2857 50.28C55.0357 49.99 54.8557 49.645 54.7457 49.245C54.6357 48.845 54.5807 48.4 54.5807 47.91V45.285ZM57.8507 72.685C56.8707 71.815 56.0957 70.81 55.5257 69.67C54.9657 68.53 54.6857 67.25 54.6857 65.83C54.6857 64.41 54.9657 63.13 55.5257 61.99C56.0957 60.85 56.8707 59.845 57.8507 58.975L59.0807 59.95C58.1907 60.82 57.5407 61.725 57.1307 62.665C56.7307 63.595 56.5307 64.65 56.5307 65.83C56.5307 66.42 56.5807 66.98 56.6807 67.51C56.7807 68.03 56.9307 68.53 57.1307 69.01C57.3407 69.49 57.6057 69.95 57.9257 70.39C58.2457 70.84 58.6307 71.28 59.0807 71.71L57.8507 72.685ZM62.7048 62.56H64.5048L64.6848 64.18H64.7298C65.0998 63.57 65.5448 63.12 66.0648 62.83C66.5848 62.53 67.1448 62.38 67.7448 62.38C68.0748 62.38 68.3398 62.405 68.5398 62.455C68.7498 62.505 68.9648 62.58 69.1848 62.68L68.7348 64.525C68.5048 64.455 68.2948 64.405 68.1048 64.375C67.9248 64.335 67.6948 64.315 67.4148 64.315C66.9548 64.315 66.4998 64.45 66.0498 64.72C65.6098 64.99 65.2298 65.46 64.9098 66.13V70H62.7048V62.56ZM70.784 66.28C70.784 65.67 70.889 65.125 71.099 64.645C71.319 64.165 71.609 63.76 71.969 63.43C72.329 63.09 72.739 62.83 73.199 62.65C73.669 62.47 74.154 62.38 74.654 62.38C75.224 62.38 75.729 62.47 76.169 62.65C76.609 62.83 76.974 63.08 77.264 63.4C77.554 63.72 77.774 64.1 77.924 64.54C78.074 64.97 78.149 65.44 78.149 65.95C78.149 66.15 78.139 66.34 78.119 66.52C78.099 66.7 78.079 66.835 78.059 66.925H73.049C73.129 67.485 73.369 67.89 73.769 68.14C74.179 68.38 74.659 68.5 75.209 68.5C75.549 68.5 75.869 68.46 76.169 68.38C76.479 68.29 76.799 68.16 77.129 67.99L77.849 69.31C77.429 69.58 76.959 69.795 76.439 69.955C75.919 70.105 75.409 70.18 74.909 70.18C74.329 70.18 73.789 70.095 73.289 69.925C72.789 69.745 72.354 69.49 71.984 69.16C71.614 68.82 71.319 68.41 71.099 67.93C70.889 67.45 70.784 66.9 70.784 66.28ZM76.154 65.47C76.154 65.05 76.039 64.71 75.809 64.45C75.579 64.19 75.209 64.06 74.699 64.06C74.299 64.06 73.944 64.175 73.634 64.405C73.324 64.635 73.119 64.99 73.019 65.47H76.154ZM80.7381 67.66C81.1681 67.93 81.5981 68.145 82.0281 68.305C82.4681 68.465 82.9381 68.545 83.4381 68.545C83.9481 68.545 84.3131 68.49 84.5331 68.38C84.7531 68.27 84.8631 68.115 84.8631 67.915C84.8631 67.685 84.6781 67.5 84.3081 67.36C83.9481 67.21 83.4681 67.05 82.8681 66.88C82.5381 66.79 82.2131 66.685 81.8931 66.565C81.5831 66.435 81.3031 66.285 81.0531 66.115C80.8031 65.935 80.5981 65.73 80.4381 65.5C80.2881 65.27 80.2131 65.005 80.2131 64.705C80.2131 64.365 80.2931 64.05 80.4531 63.76C80.6131 63.47 80.8381 63.225 81.1281 63.025C81.4281 62.825 81.7881 62.67 82.2081 62.56C82.6381 62.44 83.1181 62.38 83.6481 62.38C84.3081 62.38 84.9081 62.49 85.4481 62.71C85.9981 62.92 86.4681 63.15 86.8581 63.4L85.8681 64.72C85.5281 64.52 85.1781 64.355 84.8181 64.225C84.4581 64.085 84.0831 64.015 83.6931 64.015C83.2231 64.015 82.8881 64.065 82.6881 64.165C82.4981 64.265 82.4031 64.41 82.4031 64.6C82.4031 64.71 82.4531 64.81 82.5531 64.9C82.6531 64.99 82.7881 65.07 82.9581 65.14C83.1281 65.21 83.3281 65.28 83.5581 65.35C83.7981 65.41 84.0481 65.475 84.3081 65.545C84.6781 65.645 85.0281 65.76 85.3581 65.89C85.6881 66.01 85.9781 66.155 86.2281 66.325C86.4781 66.495 86.6781 66.7 86.8281 66.94C86.9781 67.18 87.0531 67.46 87.0531 67.78C87.0531 68.12 86.9731 68.435 86.8131 68.725C86.6531 69.015 86.4181 69.27 86.1081 69.49C85.8081 69.7 85.4281 69.87 84.9681 70C84.5181 70.12 83.9931 70.18 83.3931 70.18C82.7231 70.18 82.0681 70.07 81.4281 69.85C80.7881 69.63 80.2281 69.36 79.7481 69.04L80.7381 67.66ZM95.8223 70H94.0223L93.8573 68.935H93.7973C93.4673 69.315 93.1023 69.62 92.7023 69.85C92.3023 70.07 91.8323 70.18 91.2923 70.18C90.4423 70.18 89.8273 69.91 89.4473 69.37C89.0673 68.83 88.8773 68.09 88.8773 67.15V62.56H91.0823V66.865C91.0823 67.365 91.1573 67.73 91.3073 67.96C91.4573 68.19 91.7423 68.305 92.1623 68.305C92.4423 68.305 92.6873 68.245 92.8973 68.125C93.1173 68.005 93.3573 67.78 93.6173 67.45V62.56H95.8223V70ZM97.8714 59.485H102.236V67.18C102.236 67.41 102.266 67.605 102.326 67.765C102.396 67.915 102.486 68.04 102.596 68.14C102.716 68.23 102.846 68.295 102.986 68.335C103.136 68.375 103.286 68.395 103.436 68.395C103.606 68.395 103.786 68.38 103.976 68.35C104.166 68.31 104.376 68.245 104.606 68.155L105.101 69.775C104.901 69.835 104.716 69.89 104.546 69.94C104.376 69.99 104.206 70.03 104.036 70.06C103.866 70.1 103.686 70.13 103.496 70.15C103.306 70.17 103.096 70.18 102.866 70.18C101.926 70.18 101.216 69.905 100.736 69.355C100.266 68.795 100.031 68.04 100.031 67.09V61.225H97.8714V59.485ZM108.546 64.285H106.671V62.65L108.651 62.56L108.936 60.58H110.751V62.56H113.901V64.285H110.751V66.895C110.751 67.465 110.876 67.87 111.126 68.11C111.376 68.34 111.771 68.455 112.311 68.455C112.601 68.455 112.866 68.43 113.106 68.38C113.346 68.33 113.576 68.265 113.796 68.185L114.186 69.775C113.856 69.875 113.486 69.965 113.076 70.045C112.676 70.135 112.236 70.18 111.756 70.18C111.166 70.18 110.666 70.1 110.256 69.94C109.846 69.78 109.511 69.56 109.251 69.28C109.001 68.99 108.821 68.645 108.711 68.245C108.601 67.845 108.546 67.4 108.546 66.91V64.285ZM116.82 71.71C117.27 71.28 117.655 70.84 117.975 70.39C118.295 69.95 118.555 69.49 118.755 69.01C118.965 68.53 119.12 68.03 119.22 67.51C119.32 66.98 119.37 66.42 119.37 65.83C119.37 64.65 119.165 63.595 118.755 62.665C118.355 61.725 117.71 60.82 116.82 59.95L118.05 58.975C119.03 59.845 119.8 60.85 120.36 61.99C120.93 63.13 121.215 64.41 121.215 65.83C121.215 67.25 120.93 68.53 120.36 69.67C119.8 70.81 119.03 71.815 118.05 72.685L116.82 71.71ZM57.8507 90.685C56.8707 89.815 56.0957 88.81 55.5257 87.67C54.9657 86.53 54.6857 85.25 54.6857 83.83C54.6857 82.41 54.9657 81.13 55.5257 79.99C56.0957 78.85 56.8707 77.845 57.8507 76.975L59.0807 77.95C58.1907 78.82 57.5407 79.725 57.1307 80.665C56.7307 81.595 56.5307 82.65 56.5307 83.83C56.5307 84.42 56.5807 84.98 56.6807 85.51C56.7807 86.03 56.9307 86.53 57.1307 87.01C57.3407 87.49 57.6057 87.95 57.9257 88.39C58.2457 88.84 58.6307 89.28 59.0807 89.71L57.8507 90.685ZM62.7048 80.56H64.5048L64.6848 82.18H64.7298C65.0998 81.57 65.5448 81.12 66.0648 80.83C66.5848 80.53 67.1448 80.38 67.7448 80.38C68.0748 80.38 68.3398 80.405 68.5398 80.455C68.7498 80.505 68.9648 80.58 69.1848 80.68L68.7348 82.525C68.5048 82.455 68.2948 82.405 68.1048 82.375C67.9248 82.335 67.6948 82.315 67.4148 82.315C66.9548 82.315 66.4998 82.45 66.0498 82.72C65.6098 82.99 65.2298 83.46 64.9098 84.13V88H62.7048V80.56ZM70.784 84.28C70.784 83.67 70.889 83.125 71.099 82.645C71.319 82.165 71.609 81.76 71.969 81.43C72.329 81.09 72.739 80.83 73.199 80.65C73.669 80.47 74.154 80.38 74.654 80.38C75.224 80.38 75.729 80.47 76.169 80.65C76.609 80.83 76.974 81.08 77.264 81.4C77.554 81.72 77.774 82.1 77.924 82.54C78.074 82.97 78.149 83.44 78.149 83.95C78.149 84.15 78.139 84.34 78.119 84.52C78.099 84.7 78.079 84.835 78.059 84.925H73.049C73.129 85.485 73.369 85.89 73.769 86.14C74.179 86.38 74.659 86.5 75.209 86.5C75.549 86.5 75.869 86.46 76.169 86.38C76.479 86.29 76.799 86.16 77.129 85.99L77.849 87.31C77.429 87.58 76.959 87.795 76.439 87.955C75.919 88.105 75.409 88.18 74.909 88.18C74.329 88.18 73.789 88.095 73.289 87.925C72.789 87.745 72.354 87.49 71.984 87.16C71.614 86.82 71.319 86.41 71.099 85.93C70.889 85.45 70.784 84.9 70.784 84.28ZM76.154 83.47C76.154 83.05 76.039 82.71 75.809 82.45C75.579 82.19 75.209 82.06 74.699 82.06C74.299 82.06 73.944 82.175 73.634 82.405C73.324 82.635 73.119 82.99 73.019 83.47H76.154ZM80.7381 85.66C81.1681 85.93 81.5981 86.145 82.0281 86.305C82.4681 86.465 82.9381 86.545 83.4381 86.545C83.9481 86.545 84.3131 86.49 84.5331 86.38C84.7531 86.27 84.8631 86.115 84.8631 85.915C84.8631 85.685 84.6781 85.5 84.3081 85.36C83.9481 85.21 83.4681 85.05 82.8681 84.88C82.5381 84.79 82.2131 84.685 81.8931 84.565C81.5831 84.435 81.3031 84.285 81.0531 84.115C80.8031 83.935 80.5981 83.73 80.4381 83.5C80.2881 83.27 80.2131 83.005 80.2131 82.705C80.2131 82.365 80.2931 82.05 80.4531 81.76C80.6131 81.47 80.8381 81.225 81.1281 81.025C81.4281 80.825 81.7881 80.67 82.2081 80.56C82.6381 80.44 83.1181 80.38 83.6481 80.38C84.3081 80.38 84.9081 80.49 85.4481 80.71C85.9981 80.92 86.4681 81.15 86.8581 81.4L85.8681 82.72C85.5281 82.52 85.1781 82.355 84.8181 82.225C84.4581 82.085 84.0831 82.015 83.6931 82.015C83.2231 82.015 82.8881 82.065 82.6881 82.165C82.4981 82.265 82.4031 82.41 82.4031 82.6C82.4031 82.71 82.4531 82.81 82.5531 82.9C82.6531 82.99 82.7881 83.07 82.9581 83.14C83.1281 83.21 83.3281 83.28 83.5581 83.35C83.7981 83.41 84.0481 83.475 84.3081 83.545C84.6781 83.645 85.0281 83.76 85.3581 83.89C85.6881 84.01 85.9781 84.155 86.2281 84.325C86.4781 84.495 86.6781 84.7 86.8281 84.94C86.9781 85.18 87.0531 85.46 87.0531 85.78C87.0531 86.12 86.9731 86.435 86.8131 86.725C86.6531 87.015 86.4181 87.27 86.1081 87.49C85.8081 87.7 85.4281 87.87 84.9681 88C84.5181 88.12 83.9931 88.18 83.3931 88.18C82.7231 88.18 82.0681 88.07 81.4281 87.85C80.7881 87.63 80.2281 87.36 79.7481 87.04L80.7381 85.66ZM95.8223 88H94.0223L93.8573 86.935H93.7973C93.4673 87.315 93.1023 87.62 92.7023 87.85C92.3023 88.07 91.8323 88.18 91.2923 88.18C90.4423 88.18 89.8273 87.91 89.4473 87.37C89.0673 86.83 88.8773 86.09 88.8773 85.15V80.56H91.0823V84.865C91.0823 85.365 91.1573 85.73 91.3073 85.96C91.4573 86.19 91.7423 86.305 92.1623 86.305C92.4423 86.305 92.6873 86.245 92.8973 86.125C93.1173 86.005 93.3573 85.78 93.6173 85.45V80.56H95.8223V88ZM97.8714 77.485H102.236V85.18C102.236 85.41 102.266 85.605 102.326 85.765C102.396 85.915 102.486 86.04 102.596 86.14C102.716 86.23 102.846 86.295 102.986 86.335C103.136 86.375 103.286 86.395 103.436 86.395C103.606 86.395 103.786 86.38 103.976 86.35C104.166 86.31 104.376 86.245 104.606 86.155L105.101 87.775C104.901 87.835 104.716 87.89 104.546 87.94C104.376 87.99 104.206 88.03 104.036 88.06C103.866 88.1 103.686 88.13 103.496 88.15C103.306 88.17 103.096 88.18 102.866 88.18C101.926 88.18 101.216 87.905 100.736 87.355C100.266 86.795 100.031 86.04 100.031 85.09V79.225H97.8714V77.485ZM108.546 82.285H106.671V80.65L108.651 80.56L108.936 78.58H110.751V80.56H113.901V82.285H110.751V84.895C110.751 85.465 110.876 85.87 111.126 86.11C111.376 86.34 111.771 86.455 112.311 86.455C112.601 86.455 112.866 86.43 113.106 86.38C113.346 86.33 113.576 86.265 113.796 86.185L114.186 87.775C113.856 87.875 113.486 87.965 113.076 88.045C112.676 88.135 112.236 88.18 111.756 88.18C111.166 88.18 110.666 88.1 110.256 87.94C109.846 87.78 109.511 87.56 109.251 87.28C109.001 86.99 108.821 86.645 108.711 86.245C108.601 85.845 108.546 85.4 108.546 84.91V82.285ZM161.79 89.71C162.24 89.28 162.625 88.84 162.945 88.39C163.265 87.95 163.525 87.49 163.725 87.01C163.935 86.53 164.09 86.03 164.19 85.51C164.29 84.98 164.34 84.42 164.34 83.83C164.34 82.65 164.135 81.595 163.725 80.665C163.325 79.725 162.68 78.82 161.79 77.95L163.02 76.975C164 77.845 164.77 78.85 165.33 79.99C165.9 81.13 166.185 82.41 166.185 83.83C166.185 85.25 165.9 86.53 165.33 87.67C164.77 88.81 164 89.815 163.02 90.685L161.79 89.71ZM57.8507 109.685C56.8707 108.815 56.0957 107.81 55.5257 106.67C54.9657 105.53 54.6857 104.25 54.6857 102.83C54.6857 101.41 54.9657 100.13 55.5257 98.99C56.0957 97.85 56.8707 96.845 57.8507 95.975L59.0807 96.95C58.1907 97.82 57.5407 98.725 57.1307 99.665C56.7307 100.595 56.5307 101.65 56.5307 102.83C56.5307 103.42 56.5807 103.98 56.6807 104.51C56.7807 105.03 56.9307 105.53 57.1307 106.01C57.3407 106.49 57.6057 106.95 57.9257 107.39C58.2457 107.84 58.6307 108.28 59.0807 108.71L57.8507 109.685ZM62.7048 99.56H64.5048L64.6848 101.18H64.7298C65.0998 100.57 65.5448 100.12 66.0648 99.83C66.5848 99.53 67.1448 99.38 67.7448 99.38C68.0748 99.38 68.3398 99.405 68.5398 99.455C68.7498 99.505 68.9648 99.58 69.1848 99.68L68.7348 101.525C68.5048 101.455 68.2948 101.405 68.1048 101.375C67.9248 101.335 67.6948 101.315 67.4148 101.315C66.9548 101.315 66.4998 101.45 66.0498 101.72C65.6098 101.99 65.2298 102.46 64.9098 103.13V107H62.7048V99.56ZM70.784 103.28C70.784 102.67 70.889 102.125 71.099 101.645C71.319 101.165 71.609 100.76 71.969 100.43C72.329 100.09 72.739 99.83 73.199 99.65C73.669 99.47 74.154 99.38 74.654 99.38C75.224 99.38 75.729 99.47 76.169 99.65C76.609 99.83 76.974 100.08 77.264 100.4C77.554 100.72 77.774 101.1 77.924 101.54C78.074 101.97 78.149 102.44 78.149 102.95C78.149 103.15 78.139 103.34 78.119 103.52C78.099 103.7 78.079 103.835 78.059 103.925H73.049C73.129 104.485 73.369 104.89 73.769 105.14C74.179 105.38 74.659 105.5 75.209 105.5C75.549 105.5 75.869 105.46 76.169 105.38C76.479 105.29 76.799 105.16 77.129 104.99L77.849 106.31C77.429 106.58 76.959 106.795 76.439 106.955C75.919 107.105 75.409 107.18 74.909 107.18C74.329 107.18 73.789 107.095 73.289 106.925C72.789 106.745 72.354 106.49 71.984 106.16C71.614 105.82 71.319 105.41 71.099 104.93C70.889 104.45 70.784 103.9 70.784 103.28ZM76.154 102.47C76.154 102.05 76.039 101.71 75.809 101.45C75.579 101.19 75.209 101.06 74.699 101.06C74.299 101.06 73.944 101.175 73.634 101.405C73.324 101.635 73.119 101.99 73.019 102.47H76.154ZM80.7381 104.66C81.1681 104.93 81.5981 105.145 82.0281 105.305C82.4681 105.465 82.9381 105.545 83.4381 105.545C83.9481 105.545 84.3131 105.49 84.5331 105.38C84.7531 105.27 84.8631 105.115 84.8631 104.915C84.8631 104.685 84.6781 104.5 84.3081 104.36C83.9481 104.21 83.4681 104.05 82.8681 103.88C82.5381 103.79 82.2131 103.685 81.8931 103.565C81.5831 103.435 81.3031 103.285 81.0531 103.115C80.8031 102.935 80.5981 102.73 80.4381 102.5C80.2881 102.27 80.2131 102.005 80.2131 101.705C80.2131 101.365 80.2931 101.05 80.4531 100.76C80.6131 100.47 80.8381 100.225 81.1281 100.025C81.4281 99.825 81.7881 99.67 82.2081 99.56C82.6381 99.44 83.1181 99.38 83.6481 99.38C84.3081 99.38 84.9081 99.49 85.4481 99.71C85.9981 99.92 86.4681 100.15 86.8581 100.4L85.8681 101.72C85.5281 101.52 85.1781 101.355 84.8181 101.225C84.4581 101.085 84.0831 101.015 83.6931 101.015C83.2231 101.015 82.8881 101.065 82.6881 101.165C82.4981 101.265 82.4031 101.41 82.4031 101.6C82.4031 101.71 82.4531 101.81 82.5531 101.9C82.6531 101.99 82.7881 102.07 82.9581 102.14C83.1281 102.21 83.3281 102.28 83.5581 102.35C83.7981 102.41 84.0481 102.475 84.3081 102.545C84.6781 102.645 85.0281 102.76 85.3581 102.89C85.6881 103.01 85.9781 103.155 86.2281 103.325C86.4781 103.495 86.6781 103.7 86.8281 103.94C86.9781 104.18 87.0531 104.46 87.0531 104.78C87.0531 105.12 86.9731 105.435 86.8131 105.725C86.6531 106.015 86.4181 106.27 86.1081 106.49C85.8081 106.7 85.4281 106.87 84.9681 107C84.5181 107.12 83.9931 107.18 83.3931 107.18C82.7231 107.18 82.0681 107.07 81.4281 106.85C80.7881 106.63 80.2281 106.36 79.7481 106.04L80.7381 104.66ZM95.8223 107H94.0223L93.8573 105.935H93.7973C93.4673 106.315 93.1023 106.62 92.7023 106.85C92.3023 107.07 91.8323 107.18 91.2923 107.18C90.4423 107.18 89.8273 106.91 89.4473 106.37C89.0673 105.83 88.8773 105.09 88.8773 104.15V99.56H91.0823V103.865C91.0823 104.365 91.1573 104.73 91.3073 104.96C91.4573 105.19 91.7423 105.305 92.1623 105.305C92.4423 105.305 92.6873 105.245 92.8973 105.125C93.1173 105.005 93.3573 104.78 93.6173 104.45V99.56H95.8223V107ZM97.8714 96.485H102.236V104.18C102.236 104.41 102.266 104.605 102.326 104.765C102.396 104.915 102.486 105.04 102.596 105.14C102.716 105.23 102.846 105.295 102.986 105.335C103.136 105.375 103.286 105.395 103.436 105.395C103.606 105.395 103.786 105.38 103.976 105.35C104.166 105.31 104.376 105.245 104.606 105.155L105.101 106.775C104.901 106.835 104.716 106.89 104.546 106.94C104.376 106.99 104.206 107.03 104.036 107.06C103.866 107.1 103.686 107.13 103.496 107.15C103.306 107.17 103.096 107.18 102.866 107.18C101.926 107.18 101.216 106.905 100.736 106.355C100.266 105.795 100.031 105.04 100.031 104.09V98.225H97.8714V96.485ZM108.546 101.285H106.671V99.65L108.651 99.56L108.936 97.58H110.751V99.56H113.901V101.285H110.751V103.895C110.751 104.465 110.876 104.87 111.126 105.11C111.376 105.34 111.771 105.455 112.311 105.455C112.601 105.455 112.866 105.43 113.106 105.38C113.346 105.33 113.576 105.265 113.796 105.185L114.186 106.775C113.856 106.875 113.486 106.965 113.076 107.045C112.676 107.135 112.236 107.18 111.756 107.18C111.166 107.18 110.666 107.1 110.256 106.94C109.846 106.78 109.511 106.56 109.251 106.28C109.001 105.99 108.821 105.645 108.711 105.245C108.601 104.845 108.546 104.4 108.546 103.91V101.285ZM152.796 108.71C153.246 108.28 153.631 107.84 153.951 107.39C154.271 106.95 154.531 106.49 154.731 106.01C154.941 105.53 155.096 105.03 155.196 104.51C155.296 103.98 155.346 103.42 155.346 102.83C155.346 101.65 155.141 100.595 154.731 99.665C154.331 98.725 153.686 97.82 152.796 96.95L154.026 95.975C155.006 96.845 155.776 97.85 156.336 98.99C156.906 100.13 157.191 101.41 157.191 102.83C157.191 104.25 156.906 105.53 156.336 106.67C155.776 107.81 155.006 108.815 154.026 109.685L152.796 108.71ZM57.8507 128.685C56.8707 127.815 56.0957 126.81 55.5257 125.67C54.9657 124.53 54.6857 123.25 54.6857 121.83C54.6857 120.41 54.9657 119.13 55.5257 117.99C56.0957 116.85 56.8707 115.845 57.8507 114.975L59.0807 115.95C58.1907 116.82 57.5407 117.725 57.1307 118.665C56.7307 119.595 56.5307 120.65 56.5307 121.83C56.5307 122.42 56.5807 122.98 56.6807 123.51C56.7807 124.03 56.9307 124.53 57.1307 125.01C57.3407 125.49 57.6057 125.95 57.9257 126.39C58.2457 126.84 58.6307 127.28 59.0807 127.71L57.8507 128.685ZM62.7048 118.56H64.5048L64.6848 120.18H64.7298C65.0998 119.57 65.5448 119.12 66.0648 118.83C66.5848 118.53 67.1448 118.38 67.7448 118.38C68.0748 118.38 68.3398 118.405 68.5398 118.455C68.7498 118.505 68.9648 118.58 69.1848 118.68L68.7348 120.525C68.5048 120.455 68.2948 120.405 68.1048 120.375C67.9248 120.335 67.6948 120.315 67.4148 120.315C66.9548 120.315 66.4998 120.45 66.0498 120.72C65.6098 120.99 65.2298 121.46 64.9098 122.13V126H62.7048V118.56ZM70.784 122.28C70.784 121.67 70.889 121.125 71.099 120.645C71.319 120.165 71.609 119.76 71.969 119.43C72.329 119.09 72.739 118.83 73.199 118.65C73.669 118.47 74.154 118.38 74.654 118.38C75.224 118.38 75.729 118.47 76.169 118.65C76.609 118.83 76.974 119.08 77.264 119.4C77.554 119.72 77.774 120.1 77.924 120.54C78.074 120.97 78.149 121.44 78.149 121.95C78.149 122.15 78.139 122.34 78.119 122.52C78.099 122.7 78.079 122.835 78.059 122.925H73.049C73.129 123.485 73.369 123.89 73.769 124.14C74.179 124.38 74.659 124.5 75.209 124.5C75.549 124.5 75.869 124.46 76.169 124.38C76.479 124.29 76.799 124.16 77.129 123.99L77.849 125.31C77.429 125.58 76.959 125.795 76.439 125.955C75.919 126.105 75.409 126.18 74.909 126.18C74.329 126.18 73.789 126.095 73.289 125.925C72.789 125.745 72.354 125.49 71.984 125.16C71.614 124.82 71.319 124.41 71.099 123.93C70.889 123.45 70.784 122.9 70.784 122.28ZM76.154 121.47C76.154 121.05 76.039 120.71 75.809 120.45C75.579 120.19 75.209 120.06 74.699 120.06C74.299 120.06 73.944 120.175 73.634 120.405C73.324 120.635 73.119 120.99 73.019 121.47H76.154ZM80.7381 123.66C81.1681 123.93 81.5981 124.145 82.0281 124.305C82.4681 124.465 82.9381 124.545 83.4381 124.545C83.9481 124.545 84.3131 124.49 84.5331 124.38C84.7531 124.27 84.8631 124.115 84.8631 123.915C84.8631 123.685 84.6781 123.5 84.3081 123.36C83.9481 123.21 83.4681 123.05 82.8681 122.88C82.5381 122.79 82.2131 122.685 81.8931 122.565C81.5831 122.435 81.3031 122.285 81.0531 122.115C80.8031 121.935 80.5981 121.73 80.4381 121.5C80.2881 121.27 80.2131 121.005 80.2131 120.705C80.2131 120.365 80.2931 120.05 80.4531 119.76C80.6131 119.47 80.8381 119.225 81.1281 119.025C81.4281 118.825 81.7881 118.67 82.2081 118.56C82.6381 118.44 83.1181 118.38 83.6481 118.38C84.3081 118.38 84.9081 118.49 85.4481 118.71C85.9981 118.92 86.4681 119.15 86.8581 119.4L85.8681 120.72C85.5281 120.52 85.1781 120.355 84.8181 120.225C84.4581 120.085 84.0831 120.015 83.6931 120.015C83.2231 120.015 82.8881 120.065 82.6881 120.165C82.4981 120.265 82.4031 120.41 82.4031 120.6C82.4031 120.71 82.4531 120.81 82.5531 120.9C82.6531 120.99 82.7881 121.07 82.9581 121.14C83.1281 121.21 83.3281 121.28 83.5581 121.35C83.7981 121.41 84.0481 121.475 84.3081 121.545C84.6781 121.645 85.0281 121.76 85.3581 121.89C85.6881 122.01 85.9781 122.155 86.2281 122.325C86.4781 122.495 86.6781 122.7 86.8281 122.94C86.9781 123.18 87.0531 123.46 87.0531 123.78C87.0531 124.12 86.9731 124.435 86.8131 124.725C86.6531 125.015 86.4181 125.27 86.1081 125.49C85.8081 125.7 85.4281 125.87 84.9681 126C84.5181 126.12 83.9931 126.18 83.3931 126.18C82.7231 126.18 82.0681 126.07 81.4281 125.85C80.7881 125.63 80.2281 125.36 79.7481 125.04L80.7381 123.66ZM95.8223 126H94.0223L93.8573 124.935H93.7973C93.4673 125.315 93.1023 125.62 92.7023 125.85C92.3023 126.07 91.8323 126.18 91.2923 126.18C90.4423 126.18 89.8273 125.91 89.4473 125.37C89.0673 124.83 88.8773 124.09 88.8773 123.15V118.56H91.0823V122.865C91.0823 123.365 91.1573 123.73 91.3073 123.96C91.4573 124.19 91.7423 124.305 92.1623 124.305C92.4423 124.305 92.6873 124.245 92.8973 124.125C93.1173 124.005 93.3573 123.78 93.6173 123.45V118.56H95.8223V126ZM97.8714 115.485H102.236V123.18C102.236 123.41 102.266 123.605 102.326 123.765C102.396 123.915 102.486 124.04 102.596 124.14C102.716 124.23 102.846 124.295 102.986 124.335C103.136 124.375 103.286 124.395 103.436 124.395C103.606 124.395 103.786 124.38 103.976 124.35C104.166 124.31 104.376 124.245 104.606 124.155L105.101 125.775C104.901 125.835 104.716 125.89 104.546 125.94C104.376 125.99 104.206 126.03 104.036 126.06C103.866 126.1 103.686 126.13 103.496 126.15C103.306 126.17 103.096 126.18 102.866 126.18C101.926 126.18 101.216 125.905 100.736 125.355C100.266 124.795 100.031 124.04 100.031 123.09V117.225H97.8714V115.485ZM108.546 120.285H106.671V118.65L108.651 118.56L108.936 116.58H110.751V118.56H113.901V120.285H110.751V122.895C110.751 123.465 110.876 123.87 111.126 124.11C111.376 124.34 111.771 124.455 112.311 124.455C112.601 124.455 112.866 124.43 113.106 124.38C113.346 124.33 113.576 124.265 113.796 124.185L114.186 125.775C113.856 125.875 113.486 125.965 113.076 126.045C112.676 126.135 112.236 126.18 111.756 126.18C111.166 126.18 110.666 126.1 110.256 125.94C109.846 125.78 109.511 125.56 109.251 125.28C109.001 124.99 108.821 124.645 108.711 124.245C108.601 123.845 108.546 123.4 108.546 122.91V120.285ZM143.652 118.56H145.452L145.632 120.18H145.677C146.047 119.57 146.492 119.12 147.012 118.83C147.532 118.53 148.092 118.38 148.692 118.38C149.022 118.38 149.287 118.405 149.487 118.455C149.697 118.505 149.912 118.58 150.132 118.68L149.682 120.525C149.452 120.455 149.242 120.405 149.052 120.375C148.872 120.335 148.642 120.315 148.362 120.315C147.902 120.315 147.447 120.45 146.997 120.72C146.557 120.99 146.177 121.46 145.857 122.13V126H143.652V118.56ZM151.731 122.28C151.731 121.67 151.836 121.125 152.046 120.645C152.266 120.165 152.556 119.76 152.916 119.43C153.276 119.09 153.686 118.83 154.146 118.65C154.616 118.47 155.101 118.38 155.601 118.38C156.171 118.38 156.676 118.47 157.116 118.65C157.556 118.83 157.921 119.08 158.211 119.4C158.501 119.72 158.721 120.1 158.871 120.54C159.021 120.97 159.096 121.44 159.096 121.95C159.096 122.15 159.086 122.34 159.066 122.52C159.046 122.7 159.026 122.835 159.006 122.925H153.996C154.076 123.485 154.316 123.89 154.716 124.14C155.126 124.38 155.606 124.5 156.156 124.5C156.496 124.5 156.816 124.46 157.116 124.38C157.426 124.29 157.746 124.16 158.076 123.99L158.796 125.31C158.376 125.58 157.906 125.795 157.386 125.955C156.866 126.105 156.356 126.18 155.856 126.18C155.276 126.18 154.736 126.095 154.236 125.925C153.736 125.745 153.301 125.49 152.931 125.16C152.561 124.82 152.266 124.41 152.046 123.93C151.836 123.45 151.731 122.9 151.731 122.28ZM157.101 121.47C157.101 121.05 156.986 120.71 156.756 120.45C156.526 120.19 156.156 120.06 155.646 120.06C155.246 120.06 154.891 120.175 154.581 120.405C154.271 120.635 154.066 120.99 153.966 121.47H157.101ZM161.685 123.66C162.115 123.93 162.545 124.145 162.975 124.305C163.415 124.465 163.885 124.545 164.385 124.545C164.895 124.545 165.26 124.49 165.48 124.38C165.7 124.27 165.81 124.115 165.81 123.915C165.81 123.685 165.625 123.5 165.255 123.36C164.895 123.21 164.415 123.05 163.815 122.88C163.485 122.79 163.16 122.685 162.84 122.565C162.53 122.435 162.25 122.285 162 122.115C161.75 121.935 161.545 121.73 161.385 121.5C161.235 121.27 161.16 121.005 161.16 120.705C161.16 120.365 161.24 120.05 161.4 119.76C161.56 119.47 161.785 119.225 162.075 119.025C162.375 118.825 162.735 118.67 163.155 118.56C163.585 118.44 164.065 118.38 164.595 118.38C165.255 118.38 165.855 118.49 166.395 118.71C166.945 118.92 167.415 119.15 167.805 119.4L166.815 120.72C166.475 120.52 166.125 120.355 165.765 120.225C165.405 120.085 165.03 120.015 164.64 120.015C164.17 120.015 163.835 120.065 163.635 120.165C163.445 120.265 163.35 120.41 163.35 120.6C163.35 120.71 163.4 120.81 163.5 120.9C163.6 120.99 163.735 121.07 163.905 121.14C164.075 121.21 164.275 121.28 164.505 121.35C164.745 121.41 164.995 121.475 165.255 121.545C165.625 121.645 165.975 121.76 166.305 121.89C166.635 122.01 166.925 122.155 167.175 122.325C167.425 122.495 167.625 122.7 167.775 122.94C167.925 123.18 168 123.46 168 123.78C168 124.12 167.92 124.435 167.76 124.725C167.6 125.015 167.365 125.27 167.055 125.49C166.755 125.7 166.375 125.87 165.915 126C165.465 126.12 164.94 126.18 164.34 126.18C163.67 126.18 163.015 126.07 162.375 125.85C161.735 125.63 161.175 125.36 160.695 125.04L161.685 123.66ZM176.77 126H174.97L174.805 124.935H174.745C174.415 125.315 174.05 125.62 173.65 125.85C173.25 126.07 172.78 126.18 172.24 126.18C171.39 126.18 170.775 125.91 170.395 125.37C170.015 124.83 169.825 124.09 169.825 123.15V118.56H172.03V122.865C172.03 123.365 172.105 123.73 172.255 123.96C172.405 124.19 172.69 124.305 173.11 124.305C173.39 124.305 173.635 124.245 173.845 124.125C174.065 124.005 174.305 123.78 174.565 123.45V118.56H176.77V126ZM178.819 115.485H183.184V123.18C183.184 123.41 183.214 123.605 183.274 123.765C183.344 123.915 183.434 124.04 183.544 124.14C183.664 124.23 183.794 124.295 183.934 124.335C184.084 124.375 184.234 124.395 184.384 124.395C184.554 124.395 184.734 124.38 184.924 124.35C185.114 124.31 185.324 124.245 185.554 124.155L186.049 125.775C185.849 125.835 185.664 125.89 185.494 125.94C185.324 125.99 185.154 126.03 184.984 126.06C184.814 126.1 184.634 126.13 184.444 126.15C184.254 126.17 184.044 126.18 183.814 126.18C182.874 126.18 182.164 125.905 181.684 125.355C181.214 124.795 180.979 124.04 180.979 123.09V117.225H178.819V115.485ZM189.493 120.285H187.618V118.65L189.598 118.56L189.883 116.58H191.698V118.56H194.848V120.285H191.698V122.895C191.698 123.465 191.823 123.87 192.073 124.11C192.323 124.34 192.718 124.455 193.258 124.455C193.548 124.455 193.813 124.43 194.053 124.38C194.293 124.33 194.523 124.265 194.743 124.185L195.133 125.775C194.803 125.875 194.433 125.965 194.023 126.045C193.623 126.135 193.183 126.18 192.703 126.18C192.113 126.18 191.613 126.1 191.203 125.94C190.793 125.78 190.458 125.56 190.198 125.28C189.948 124.99 189.768 124.645 189.658 124.245C189.548 123.845 189.493 123.4 189.493 122.91V120.285ZM197.767 127.71C198.217 127.28 198.602 126.84 198.922 126.39C199.242 125.95 199.502 125.49 199.702 125.01C199.912 124.53 200.067 124.03 200.167 123.51C200.267 122.98 200.317 122.42 200.317 121.83C200.317 120.65 200.112 119.595 199.702 118.665C199.302 117.725 198.657 116.82 197.767 115.95L198.997 114.975C199.977 115.845 200.747 116.85 201.307 117.99C201.877 119.13 202.162 120.41 202.162 121.83C202.162 123.25 201.877 124.53 201.307 125.67C200.747 126.81 199.977 127.815 198.997 128.685L197.767 127.71Z" fill="white"/>
<path d="M10.285 70.585V72.76H8.08V62.56H9.88L10.045 63.31H10.09C10.39 63.04 10.735 62.82 11.125 62.65C11.515 62.47 11.91 62.38 12.31 62.38C12.77 62.38 13.185 62.47 13.555 62.65C13.925 62.83 14.24 63.085 14.5 63.415C14.76 63.745 14.955 64.145 15.085 64.615C15.225 65.075 15.295 65.59 15.295 66.16C15.295 66.8 15.205 67.37 15.025 67.87C14.845 68.36 14.605 68.78 14.305 69.13C14.005 69.47 13.66 69.73 13.27 69.91C12.89 70.09 12.49 70.18 12.07 70.18C11.39 70.18 10.77 69.91 10.21 69.37L10.285 70.585ZM10.285 67.885C10.495 68.065 10.71 68.195 10.93 68.275C11.16 68.345 11.37 68.38 11.56 68.38C11.98 68.38 12.33 68.21 12.61 67.87C12.89 67.52 13.03 66.96 13.03 66.19C13.03 64.85 12.575 64.18 11.665 64.18C11.195 64.18 10.735 64.41 10.285 64.87V67.885ZM17.7341 62.56H19.5341L19.7141 64.18H19.7591C20.1291 63.57 20.5741 63.12 21.0941 62.83C21.6141 62.53 22.1741 62.38 22.7741 62.38C23.1041 62.38 23.3691 62.405 23.5691 62.455C23.7791 62.505 23.9941 62.58 24.2141 62.68L23.7641 64.525C23.5341 64.455 23.3241 64.405 23.1341 64.375C22.9541 64.335 22.7241 64.315 22.4441 64.315C21.9841 64.315 21.5291 64.45 21.0791 64.72C20.6391 64.99 20.2591 65.46 19.9391 66.13V70H17.7341V62.56ZM26.1733 62.56H31.3633V70H29.1583V64.285H26.1733V62.56ZM30.1633 61.465C29.7333 61.465 29.3783 61.345 29.0983 61.105C28.8283 60.865 28.6933 60.54 28.6933 60.13C28.6933 59.72 28.8283 59.39 29.0983 59.14C29.3783 58.88 29.7333 58.75 30.1633 58.75C30.5933 58.75 30.9433 58.88 31.2133 59.14C31.4933 59.39 31.6333 59.72 31.6333 60.13C31.6333 60.54 31.4933 60.865 31.2133 61.105C30.9433 61.345 30.5933 61.465 30.1633 61.465ZM35.0624 62.56H36.8624L37.0274 63.55H37.0874C37.4074 63.23 37.7724 62.955 38.1824 62.725C38.6024 62.495 39.0924 62.38 39.6524 62.38C40.4924 62.38 41.1074 62.65 41.4974 63.19C41.8874 63.73 42.0824 64.47 42.0824 65.41V70H39.8774V65.695C39.8774 65.195 39.7974 64.83 39.6374 64.6C39.4774 64.37 39.1924 64.255 38.7824 64.255C38.4824 64.255 38.2174 64.32 37.9874 64.45C37.7674 64.58 37.5274 64.775 37.2674 65.035V70H35.0624V62.56ZM45.5866 64.285H43.7116V62.65L45.6916 62.56L45.9766 60.58H47.7916V62.56H50.9416V64.285H47.7916V66.895C47.7916 67.465 47.9166 67.87 48.1666 68.11C48.4166 68.34 48.8116 68.455 49.3516 68.455C49.6416 68.455 49.9066 68.43 50.1466 68.38C50.3866 68.33 50.6166 68.265 50.8366 68.185L51.2266 69.775C50.8966 69.875 50.5266 69.965 50.1166 70.045C49.7166 70.135 49.2766 70.18 48.7966 70.18C48.2066 70.18 47.7066 70.1 47.2966 69.94C46.8866 69.78 46.5516 69.56 46.2916 69.28C46.0416 68.99 45.8616 68.645 45.7516 68.245C45.6416 67.845 45.5866 67.4 45.5866 66.91V64.285ZM10.285 88.585V90.76H8.08V80.56H9.88L10.045 81.31H10.09C10.39 81.04 10.735 80.82 11.125 80.65C11.515 80.47 11.91 80.38 12.31 80.38C12.77 80.38 13.185 80.47 13.555 80.65C13.925 80.83 14.24 81.085 14.5 81.415C14.76 81.745 14.955 82.145 15.085 82.615C15.225 83.075 15.295 83.59 15.295 84.16C15.295 84.8 15.205 85.37 15.025 85.87C14.845 86.36 14.605 86.78 14.305 87.13C14.005 87.47 13.66 87.73 13.27 87.91C12.89 88.09 12.49 88.18 12.07 88.18C11.39 88.18 10.77 87.91 10.21 87.37L10.285 88.585ZM10.285 85.885C10.495 86.065 10.71 86.195 10.93 86.275C11.16 86.345 11.37 86.38 11.56 86.38C11.98 86.38 12.33 86.21 12.61 85.87C12.89 85.52 13.03 84.96 13.03 84.19C13.03 82.85 12.575 82.18 11.665 82.18C11.195 82.18 10.735 82.41 10.285 82.87V85.885ZM17.7341 80.56H19.5341L19.7141 82.18H19.7591C20.1291 81.57 20.5741 81.12 21.0941 80.83C21.6141 80.53 22.1741 80.38 22.7741 80.38C23.1041 80.38 23.3691 80.405 23.5691 80.455C23.7791 80.505 23.9941 80.58 24.2141 80.68L23.7641 82.525C23.5341 82.455 23.3241 82.405 23.1341 82.375C22.9541 82.335 22.7241 82.315 22.4441 82.315C21.9841 82.315 21.5291 82.45 21.0791 82.72C20.6391 82.99 20.2591 83.46 19.9391 84.13V88H17.7341V80.56ZM26.1733 80.56H31.3633V88H29.1583V82.285H26.1733V80.56ZM30.1633 79.465C29.7333 79.465 29.3783 79.345 29.0983 79.105C28.8283 78.865 28.6933 78.54 28.6933 78.13C28.6933 77.72 28.8283 77.39 29.0983 77.14C29.3783 76.88 29.7333 76.75 30.1633 76.75C30.5933 76.75 30.9433 76.88 31.2133 77.14C31.4933 77.39 31.6333 77.72 31.6333 78.13C31.6333 78.54 31.4933 78.865 31.2133 79.105C30.9433 79.345 30.5933 79.465 30.1633 79.465ZM35.0624 80.56H36.8624L37.0274 81.55H37.0874C37.4074 81.23 37.7724 80.955 38.1824 80.725C38.6024 80.495 39.0924 80.38 39.6524 80.38C40.4924 80.38 41.1074 80.65 41.4974 81.19C41.8874 81.73 42.0824 82.47 42.0824 83.41V88H39.8774V83.695C39.8774 83.195 39.7974 82.83 39.6374 82.6C39.4774 82.37 39.1924 82.255 38.7824 82.255C38.4824 82.255 38.2174 82.32 37.9874 82.45C37.7674 82.58 37.5274 82.775 37.2674 83.035V88H35.0624V80.56ZM45.5866 82.285H43.7116V80.65L45.6916 80.56L45.9766 78.58H47.7916V80.56H50.9416V82.285H47.7916V84.895C47.7916 85.465 47.9166 85.87 48.1666 86.11C48.4166 86.34 48.8116 86.455 49.3516 86.455C49.6416 86.455 49.9066 86.43 50.1466 86.38C50.3866 86.33 50.6166 86.265 50.8366 86.185L51.2266 87.775C50.8966 87.875 50.5266 87.965 50.1166 88.045C49.7166 88.135 49.2766 88.18 48.7966 88.18C48.2066 88.18 47.7066 88.1 47.2966 87.94C46.8866 87.78 46.5516 87.56 46.2916 87.28C46.0416 86.99 45.8616 86.645 45.7516 86.245C45.6416 85.845 45.5866 85.4 45.5866 84.91V82.285ZM10.285 107.585V109.76H8.08V99.56H9.88L10.045 100.31H10.09C10.39 100.04 10.735 99.82 11.125 99.65C11.515 99.47 11.91 99.38 12.31 99.38C12.77 99.38 13.185 99.47 13.555 99.65C13.925 99.83 14.24 100.085 14.5 100.415C14.76 100.745 14.955 101.145 15.085 101.615C15.225 102.075 15.295 102.59 15.295 103.16C15.295 103.8 15.205 104.37 15.025 104.87C14.845 105.36 14.605 105.78 14.305 106.13C14.005 106.47 13.66 106.73 13.27 106.91C12.89 107.09 12.49 107.18 12.07 107.18C11.39 107.18 10.77 106.91 10.21 106.37L10.285 107.585ZM10.285 104.885C10.495 105.065 10.71 105.195 10.93 105.275C11.16 105.345 11.37 105.38 11.56 105.38C11.98 105.38 12.33 105.21 12.61 104.87C12.89 104.52 13.03 103.96 13.03 103.19C13.03 101.85 12.575 101.18 11.665 101.18C11.195 101.18 10.735 101.41 10.285 101.87V104.885ZM17.7341 99.56H19.5341L19.7141 101.18H19.7591C20.1291 100.57 20.5741 100.12 21.0941 99.83C21.6141 99.53 22.1741 99.38 22.7741 99.38C23.1041 99.38 23.3691 99.405 23.5691 99.455C23.7791 99.505 23.9941 99.58 24.2141 99.68L23.7641 101.525C23.5341 101.455 23.3241 101.405 23.1341 101.375C22.9541 101.335 22.7241 101.315 22.4441 101.315C21.9841 101.315 21.5291 101.45 21.0791 101.72C20.6391 101.99 20.2591 102.46 19.9391 103.13V107H17.7341V99.56ZM26.1733 99.56H31.3633V107H29.1583V101.285H26.1733V99.56ZM30.1633 98.465C29.7333 98.465 29.3783 98.345 29.0983 98.105C28.8283 97.865 28.6933 97.54 28.6933 97.13C28.6933 96.72 28.8283 96.39 29.0983 96.14C29.3783 95.88 29.7333 95.75 30.1633 95.75C30.5933 95.75 30.9433 95.88 31.2133 96.14C31.4933 96.39 31.6333 96.72 31.6333 97.13C31.6333 97.54 31.4933 97.865 31.2133 98.105C30.9433 98.345 30.5933 98.465 30.1633 98.465ZM35.0624 99.56H36.8624L37.0274 100.55H37.0874C37.4074 100.23 37.7724 99.955 38.1824 99.725C38.6024 99.495 39.0924 99.38 39.6524 99.38C40.4924 99.38 41.1074 99.65 41.4974 100.19C41.8874 100.73 42.0824 101.47 42.0824 102.41V107H39.8774V102.695C39.8774 102.195 39.7974 101.83 39.6374 101.6C39.4774 101.37 39.1924 101.255 38.7824 101.255C38.4824 101.255 38.2174 101.32 37.9874 101.45C37.7674 101.58 37.5274 101.775 37.2674 102.035V107H35.0624V99.56ZM45.5866 101.285H43.7116V99.65L45.6916 99.56L45.9766 97.58H47.7916V99.56H50.9416V101.285H47.7916V103.895C47.7916 104.465 47.9166 104.87 48.1666 105.11C48.4166 105.34 48.8116 105.455 49.3516 105.455C49.6416 105.455 49.9066 105.43 50.1466 105.38C50.3866 105.33 50.6166 105.265 50.8366 105.185L51.2266 106.775C50.8966 106.875 50.5266 106.965 50.1166 107.045C49.7166 107.135 49.2766 107.18 48.7966 107.18C48.2066 107.18 47.7066 107.1 47.2966 106.94C46.8866 106.78 46.5516 106.56 46.2916 106.28C46.0416 105.99 45.8616 105.645 45.7516 105.245C45.6416 104.845 45.5866 104.4 45.5866 103.91V101.285ZM10.285 126.585V128.76H8.08V118.56H9.88L10.045 119.31H10.09C10.39 119.04 10.735 118.82 11.125 118.65C11.515 118.47 11.91 118.38 12.31 118.38C12.77 118.38 13.185 118.47 13.555 118.65C13.925 118.83 14.24 119.085 14.5 119.415C14.76 119.745 14.955 120.145 15.085 120.615C15.225 121.075 15.295 121.59 15.295 122.16C15.295 122.8 15.205 123.37 15.025 123.87C14.845 124.36 14.605 124.78 14.305 125.13C14.005 125.47 13.66 125.73 13.27 125.91C12.89 126.09 12.49 126.18 12.07 126.18C11.39 126.18 10.77 125.91 10.21 125.37L10.285 126.585ZM10.285 123.885C10.495 124.065 10.71 124.195 10.93 124.275C11.16 124.345 11.37 124.38 11.56 124.38C11.98 124.38 12.33 124.21 12.61 123.87C12.89 123.52 13.03 122.96 13.03 122.19C13.03 120.85 12.575 120.18 11.665 120.18C11.195 120.18 10.735 120.41 10.285 120.87V123.885ZM17.7341 118.56H19.5341L19.7141 120.18H19.7591C20.1291 119.57 20.5741 119.12 21.0941 118.83C21.6141 118.53 22.1741 118.38 22.7741 118.38C23.1041 118.38 23.3691 118.405 23.5691 118.455C23.7791 118.505 23.9941 118.58 24.2141 118.68L23.7641 120.525C23.5341 120.455 23.3241 120.405 23.1341 120.375C22.9541 120.335 22.7241 120.315 22.4441 120.315C21.9841 120.315 21.5291 120.45 21.0791 120.72C20.6391 120.99 20.2591 121.46 19.9391 122.13V126H17.7341V118.56ZM26.1733 118.56H31.3633V126H29.1583V120.285H26.1733V118.56ZM30.1633 117.465C29.7333 117.465 29.3783 117.345 29.0983 117.105C28.8283 116.865 28.6933 116.54 28.6933 116.13C28.6933 115.72 28.8283 115.39 29.0983 115.14C29.3783 114.88 29.7333 114.75 30.1633 114.75C30.5933 114.75 30.9433 114.88 31.2133 115.14C31.4933 115.39 31.6333 115.72 31.6333 116.13C31.6333 116.54 31.4933 116.865 31.2133 117.105C30.9433 117.345 30.5933 117.465 30.1633 117.465ZM35.0624 118.56H36.8624L37.0274 119.55H37.0874C37.4074 119.23 37.7724 118.955 38.1824 118.725C38.6024 118.495 39.0924 118.38 39.6524 118.38C40.4924 118.38 41.1074 118.65 41.4974 119.19C41.8874 119.73 42.0824 120.47 42.0824 121.41V126H39.8774V121.695C39.8774 121.195 39.7974 120.83 39.6374 120.6C39.4774 120.37 39.1924 120.255 38.7824 120.255C38.4824 120.255 38.2174 120.32 37.9874 120.45C37.7674 120.58 37.5274 120.775 37.2674 121.035V126H35.0624V118.56ZM45.5866 120.285H43.7116V118.65L45.6916 118.56L45.9766 116.58H47.7916V118.56H50.9416V120.285H47.7916V122.895C47.7916 123.465 47.9166 123.87 48.1666 124.11C48.4166 124.34 48.8116 124.455 49.3516 124.455C49.6416 124.455 49.9066 124.43 50.1466 124.38C50.3866 124.33 50.6166 124.265 50.8366 124.185L51.2266 125.775C50.8966 125.875 50.5266 125.965 50.1166 126.045C49.7166 126.135 49.2766 126.18 48.7966 126.18C48.2066 126.18 47.7066 126.1 47.2966 125.94C46.8866 125.78 46.5516 125.56 46.2916 125.28C46.0416 124.99 45.8616 124.645 45.7516 124.245C45.6416 123.845 45.5866 123.4 45.5866 122.91V120.285Z" fill="#56B4E9"/>
<path d="M71.009 43.53H77.909V45.09H71.009V43.53ZM71.009 46.995H77.909V48.555H71.009V46.995ZM127.614 83.83H124.974V82.27H127.614V79.51H129.234V82.27H131.874V83.83H129.234V86.59H127.614V83.83ZM126.879 109.4H125.034L129.969 96.35H131.814L126.879 109.4ZM127.614 121.83H124.974V120.27H127.614V117.51H129.234V120.27H131.874V121.83H129.234V124.59H127.614V121.83Z" fill="#E0E0E0"/>
<path d="M88.8173 49.74C89.4973 49.17 90.1173 48.64 90.6773 48.15C91.2373 47.65 91.7173 47.185 92.1173 46.755C92.5173 46.325 92.8273 45.92 93.0473 45.54C93.2673 45.16 93.3773 44.8 93.3773 44.46C93.3773 43.99 93.2423 43.635 92.9723 43.395C92.7023 43.145 92.3173 43.02 91.8173 43.02C91.4373 43.02 91.0873 43.12 90.7673 43.32C90.4573 43.51 90.1673 43.735 89.8973 43.995L88.7123 42.81C88.9623 42.56 89.2073 42.34 89.4473 42.15C89.6973 41.96 89.9573 41.805 90.2273 41.685C90.5073 41.555 90.7973 41.46 91.0973 41.4C91.4073 41.33 91.7473 41.295 92.1173 41.295C92.6173 41.295 93.0723 41.37 93.4823 41.52C93.8923 41.66 94.2423 41.865 94.5323 42.135C94.8323 42.395 95.0623 42.71 95.2223 43.08C95.3923 43.45 95.4773 43.865 95.4773 44.325C95.4773 44.725 95.3823 45.135 95.1923 45.555C95.0023 45.965 94.7423 46.38 94.4123 46.8C94.0923 47.21 93.7223 47.625 93.3023 48.045C92.8823 48.455 92.4423 48.86 91.9823 49.26C92.2523 49.23 92.5423 49.205 92.8523 49.185C93.1723 49.155 93.4573 49.14 93.7073 49.14H95.9723V51H88.8173V49.74ZM101.441 51.18C100.891 51.18 100.391 51.075 99.9414 50.865C99.4914 50.645 99.1064 50.325 98.7864 49.905C98.4664 49.485 98.2164 48.965 98.0364 48.345C97.8664 47.725 97.7814 47.01 97.7814 46.2C97.7814 45.39 97.8664 44.68 98.0364 44.07C98.2164 43.46 98.4664 42.95 98.7864 42.54C99.1064 42.12 99.4914 41.81 99.9414 41.61C100.391 41.4 100.891 41.295 101.441 41.295C101.991 41.295 102.491 41.4 102.941 41.61C103.391 41.81 103.776 42.12 104.096 42.54C104.416 42.95 104.661 43.46 104.831 44.07C105.011 44.68 105.101 45.39 105.101 46.2C105.101 47.01 105.011 47.725 104.831 48.345C104.661 48.965 104.416 49.485 104.096 49.905C103.776 50.325 103.391 50.645 102.941 50.865C102.491 51.075 101.991 51.18 101.441 51.18ZM101.441 43.005C101.201 43.005 100.976 43.055 100.766 43.155C100.566 43.255 100.391 43.43 100.241 43.68C100.091 43.92 99.9714 44.245 99.8814 44.655C99.7914 45.065 99.7464 45.58 99.7464 46.2C99.7464 46.82 99.7914 47.34 99.8814 47.76C99.9714 48.17 100.091 48.505 100.241 48.765C100.391 49.015 100.566 49.195 100.766 49.305C100.976 49.415 101.201 49.47 101.441 49.47C101.681 49.47 101.901 49.415 102.101 49.305C102.311 49.195 102.491 49.015 102.641 48.765C102.791 48.505 102.911 48.17 103.001 47.76C103.091 47.34 103.136 46.82 103.136 46.2C103.136 45.58 103.091 45.065 103.001 44.655C102.911 44.245 102.791 43.92 102.641 43.68C102.491 43.43 102.311 43.255 102.101 43.155C101.901 43.055 101.681 43.005 101.441 43.005ZM101.441 47.31C101.121 47.31 100.851 47.21 100.631 47.01C100.421 46.8 100.316 46.52 100.316 46.17C100.316 45.82 100.421 45.545 100.631 45.345C100.851 45.135 101.121 45.03 101.441 45.03C101.761 45.03 102.026 45.135 102.236 45.345C102.456 45.545 102.566 45.82 102.566 46.17C102.566 46.52 102.456 46.8 102.236 47.01C102.026 47.21 101.761 47.31 101.441 47.31ZM149.967 86.215V88H143.142V86.215H145.602V80.71H143.637V79.345C144.197 79.245 144.672 79.125 145.062 78.985C145.462 78.845 145.837 78.675 146.187 78.475H147.807V86.215H149.967ZM155.406 88.18C154.856 88.18 154.356 88.075 153.906 87.865C153.456 87.645 153.071 87.325 152.751 86.905C152.431 86.485 152.181 85.965 152.001 85.345C151.831 84.725 151.746 84.01 151.746 83.2C151.746 82.39 151.831 81.68 152.001 81.07C152.181 80.46 152.431 79.95 152.751 79.54C153.071 79.12 153.456 78.81 153.906 78.61C154.356 78.4 154.856 78.295 155.406 78.295C155.956 78.295 156.456 78.4 156.906 78.61C157.356 78.81 157.741 79.12 158.061 79.54C158.381 79.95 158.626 80.46 158.796 81.07C158.976 81.68 159.066 82.39 159.066 83.2C159.066 84.01 158.976 84.725 158.796 85.345C158.626 85.965 158.381 86.485 158.061 86.905C157.741 87.325 157.356 87.645 156.906 87.865C156.456 88.075 155.956 88.18 155.406 88.18ZM155.406 80.005C155.166 80.005 154.941 80.055 154.731 80.155C154.531 80.255 154.356 80.43 154.206 80.68C154.056 80.92 153.936 81.245 153.846 81.655C153.756 82.065 153.711 82.58 153.711 83.2C153.711 83.82 153.756 84.34 153.846 84.76C153.936 85.17 154.056 85.505 154.206 85.765C154.356 86.015 154.531 86.195 154.731 86.305C154.941 86.415 155.166 86.47 155.406 86.47C155.646 86.47 155.866 86.415 156.066 86.305C156.276 86.195 156.456 86.015 156.606 85.765C156.756 85.505 156.876 85.17 156.966 84.76C157.056 84.34 157.101 83.82 157.101 83.2C157.101 82.58 157.056 82.065 156.966 81.655C156.876 81.245 156.756 80.92 156.606 80.68C156.456 80.43 156.276 80.255 156.066 80.155C155.866 80.055 155.646 80.005 155.406 80.005ZM155.406 84.31C155.086 84.31 154.816 84.21 154.596 84.01C154.386 83.8 154.281 83.52 154.281 83.17C154.281 82.82 154.386 82.545 154.596 82.345C154.816 82.135 155.086 82.03 155.406 82.03C155.726 82.03 155.991 82.135 156.201 82.345C156.421 82.545 156.531 82.82 156.531 83.17C156.531 83.52 156.421 83.8 156.201 84.01C155.991 84.21 155.726 84.31 155.406 84.31ZM142.782 105.74C143.462 105.17 144.082 104.64 144.642 104.15C145.202 103.65 145.682 103.185 146.082 102.755C146.482 102.325 146.792 101.92 147.012 101.54C147.232 101.16 147.342 100.8 147.342 100.46C147.342 99.99 147.207 99.635 146.937 99.395C146.667 99.145 146.282 99.02 145.782 99.02C145.402 99.02 145.052 99.12 144.732 99.32C144.422 99.51 144.132 99.735 143.862 99.995L142.677 98.81C142.927 98.56 143.172 98.34 143.412 98.15C143.662 97.96 143.922 97.805 144.192 97.685C144.472 97.555 144.762 97.46 145.062 97.4C145.372 97.33 145.712 97.295 146.082 97.295C146.582 97.295 147.037 97.37 147.447 97.52C147.857 97.66 148.207 97.865 148.497 98.135C148.797 98.395 149.027 98.71 149.187 99.08C149.357 99.45 149.442 99.865 149.442 100.325C149.442 100.725 149.347 101.135 149.157 101.555C148.967 101.965 148.707 102.38 148.377 102.8C148.057 103.21 147.687 103.625 147.267 104.045C146.847 104.455 146.407 104.86 145.947 105.26C146.217 105.23 146.507 105.205 146.817 105.185C147.137 105.155 147.422 105.14 147.672 105.14H149.937V107H142.782V105.74Z" fill="#F0E442"/>
</svg>
