<svg width="606" height="94" viewBox="0 0 606 94" version="1.1" xmlns="http://www.w3.org/2000/svg" xmlns:xlink="http://www.w3.org/1999/xlink">
<title>s1m3_ten_intervals</title>
<desc>Created using Figma</desc>
<g id="Canvas" transform="translate(311 87)">
<rect x="-311" y="-87" width="606" height="94" fill="#FFFFFF"/>
<g id="Line">
<use xlink:href="#path0_stroke" transform="matrix(1 -0.000385029 0.000385029 1 -304 -58)"/>
</g>
<g id="Line 2">
<use xlink:href="#path1_stroke" transform="matrix(6.12323e-17 1 -1 6.12323e-17 -304 -66)"/>
</g>
<g id="Line 2.1">
<use xlink:href="#path1_stroke" transform="matrix(6.12323e-17 1 -1 6.12323e-17 -246 -66)"/>
</g>
<g id="Line 2.2">
<use xlink:href="#path1_stroke" transform="matrix(6.12323e-17 1 -1 6.12323e-17 -188 -66)"/>
</g>
<g id="Line 2.3">
<use xlink:href="#path1_stroke" transform="matrix(6.12323e-17 1 -1 6.12323e-17 -130 -66)"/>
</g>
<g id="Line 2.4">
<use xlink:href="#path1_stroke" transform="matrix(6.12323e-17 1 -1 6.12323e-17 -72 -66)"/>
</g>
<g id="Line 2.5">
<use xlink:href="#path1_stroke" transform="matrix(6.12323e-17 1 -1 6.12323e-17 -14 -66)"/>
</g>
<g id="Line">
<use xlink:href="#path0_stroke" transform="matrix(1 -0.000385029 0.000385029 1 -14 -58)"/>
</g>
<g id="Line 2.7">
<use xlink:href="#path1_stroke" transform="matrix(6.12323e-17 1 -1 6.12323e-17 44 -66)"/>
</g>
<g id="Line 2.8">
<use xlink:href="#path1_stroke" transform="matrix(6.12323e-17 1 -1 6.12323e-17 102 -66)"/>
</g>
<g id="Line 2.9">
<use xlink:href="#path1_stroke" transform="matrix(6.12323e-17 1 -1 6.12323e-17 160 -66)"/>
</g>
<g id="Line 2.10">
<use xlink:href="#path1_stroke" transform="matrix(6.12323e-17 1 -1 6.12323e-17 218 -66)"/>
</g>
<g id="Line 2.11">
<use xlink:href="#path1_stroke" transform="matrix(6.12323e-17 1 -1 6.12323e-17 276 -66)"/>
</g>
<g id="55">
<use xlink:href="#path2_fill" transform="translate(-312 -50)"/>
</g>
<g id="113">
<use xlink:href="#path3_fill" transform="translate(263 -50)"/>
</g>
<g id="kg">
<use xlink:href="#path4_fill" transform="translate(280 -66)"/>
</g>
<g id="Vector">
<use xlink:href="#path5_stroke" transform="matrix(1 1.2907e-16 -1.2907e-16 1 -304 -28)"/>
</g>
<g id="58 kg">
<use xlink:href="#path6_fill" transform="translate(-31 -9)"/>
</g>
<g id="Line 3">
<use xlink:href="#path7_stroke" transform="matrix(1 -2.44929e-16 2.44929e-16 1 -303 -71.5844)"/>
</g>
<g id="5.8">
<use xlink:href="#path8_fill" transform="translate(-285 -89)"/>
</g>
<g id="60.8">
<use xlink:href="#path9_fill" transform="translate(-260 -50)"/>
</g>
<g id="66.6">
<use xlink:href="#path10_fill" transform="translate(-202 -50)"/>
</g>
<g id="72.4">
<use xlink:href="#path11_fill" transform="translate(-144 -50)"/>
</g>
<g id="78.2">
<use xlink:href="#path12_fill" transform="translate(-86 -50)"/>
</g>
<g id="84.0">
<use xlink:href="#path13_fill" transform="translate(-28 -50)"/>
</g>
<g id="89.8">
<use xlink:href="#path14_fill" transform="translate(29 -50)"/>
</g>
<g id="95.6">
<use xlink:href="#path15_fill" transform="translate(86 -50)"/>
</g>
<g id="101.4">
<use xlink:href="#path16_fill" transform="translate(141 -50)"/>
</g>
<g id="107.2">
<use xlink:href="#path17_fill" transform="translate(199 -50)"/>
</g>
</g>
<defs>
<path id="path0_stroke" d="M 0 0L 290 0L 290 -1L 0 -1L 0 0Z"/>
<path id="path1_stroke" d="M 0 0L 16 0L 16 -1L 0 -1L 0 0Z"/>
<path id="path2_fill" d="M 1.43164 8.10547L 2.00586 3.04688L 7.58398 3.04688L 7.58398 4.69434L 3.62598 4.69434L 3.37988 6.83398C 3.84928 6.58333 4.34831 6.45801 4.87695 6.45801C 5.82487 6.45801 6.56771 6.75195 7.10547 7.33984C 7.64323 7.92773 7.91211 8.75033 7.91211 9.80762C 7.91211 10.4502 7.77539 11.0267 7.50195 11.5371C 7.23307 12.043 6.8457 12.4372 6.33984 12.7197C 5.83398 12.9977 5.23698 13.1367 4.54883 13.1367C 3.94727 13.1367 3.389 13.016 2.87402 12.7744C 2.35905 12.5283 1.95117 12.1842 1.65039 11.7422C 1.35417 11.3001 1.19694 10.7965 1.17871 10.2314L 3.13379 10.2314C 3.1748 10.6462 3.31836 10.9697 3.56445 11.2021C 3.8151 11.43 4.14095 11.5439 4.54199 11.5439C 4.98861 11.5439 5.33268 11.3844 5.57422 11.0654C 5.81576 10.7419 5.93652 10.2861 5.93652 9.69824C 5.93652 9.13314 5.79753 8.7002 5.51953 8.39941C 5.24154 8.09863 4.84733 7.94824 4.33691 7.94824C 3.86751 7.94824 3.48698 8.07129 3.19531 8.31738L 3.00391 8.49512L 1.43164 8.10547ZM 9.4707 8.10547L 10.0449 3.04688L 15.623 3.04688L 15.623 4.69434L 11.665 4.69434L 11.4189 6.83398C 11.8883 6.58333 12.3874 6.45801 12.916 6.45801C 13.8639 6.45801 14.6068 6.75195 15.1445 7.33984C 15.6823 7.92773 15.9512 8.75033 15.9512 9.80762C 15.9512 10.4502 15.8145 11.0267 15.541 11.5371C 15.2721 12.043 14.8848 12.4372 14.3789 12.7197C 13.873 12.9977 13.276 13.1367 12.5879 13.1367C 11.9863 13.1367 11.4281 13.016 10.9131 12.7744C 10.3981 12.5283 9.99023 12.1842 9.68945 11.7422C 9.39323 11.3001 9.236 10.7965 9.21777 10.2314L 11.1729 10.2314C 11.2139 10.6462 11.3574 10.9697 11.6035 11.2021C 11.8542 11.43 12.18 11.5439 12.5811 11.5439C 13.0277 11.5439 13.3717 11.3844 13.6133 11.0654C 13.8548 10.7419 13.9756 10.2861 13.9756 9.69824C 13.9756 9.13314 13.8366 8.7002 13.5586 8.39941C 13.2806 8.09863 12.8864 7.94824 12.376 7.94824C 11.9066 7.94824 11.526 8.07129 11.2344 8.31738L 11.043 8.49512L 9.4707 8.10547Z"/>
<path id="path3_fill" d="M 5.91699 13L 3.94141 13L 3.94141 5.38477L 1.58301 6.11621L 1.58301 4.50977L 5.70508 3.0332L 5.91699 3.0332L 5.91699 13ZM 13.9561 13L 11.9805 13L 11.9805 5.38477L 9.62207 6.11621L 9.62207 4.50977L 13.7441 3.0332L 13.9561 3.0332L 13.9561 13ZM 19.2061 7.14844L 20.2588 7.14844C 20.7601 7.14844 21.1315 7.02311 21.373 6.77246C 21.6146 6.52181 21.7354 6.18913 21.7354 5.77441C 21.7354 5.37337 21.6146 5.0612 21.373 4.83789C 21.1361 4.61458 20.8079 4.50293 20.3887 4.50293C 20.0104 4.50293 19.6937 4.60775 19.4385 4.81738C 19.1833 5.02246 19.0557 5.29134 19.0557 5.62402L 17.0801 5.62402C 17.0801 5.10449 17.2191 4.63965 17.4971 4.22949C 17.7796 3.81478 18.1715 3.49121 18.6729 3.25879C 19.1787 3.02637 19.7347 2.91016 20.3408 2.91016C 21.3936 2.91016 22.2184 3.16309 22.8154 3.66895C 23.4124 4.17025 23.7109 4.86296 23.7109 5.74707C 23.7109 6.2028 23.5719 6.62207 23.2939 7.00488C 23.016 7.3877 22.6514 7.68164 22.2002 7.88672C 22.7607 8.08724 23.1777 8.38802 23.4512 8.78906C 23.7292 9.1901 23.8682 9.66406 23.8682 10.2109C 23.8682 11.0951 23.5446 11.8037 22.8975 12.3369C 22.2549 12.8701 21.4027 13.1367 20.3408 13.1367C 19.3473 13.1367 18.5339 12.8747 17.9004 12.3506C 17.2715 11.8265 16.957 11.1338 16.957 10.2725L 18.9326 10.2725C 18.9326 10.6462 19.0716 10.9515 19.3496 11.1885C 19.6322 11.4255 19.9785 11.5439 20.3887 11.5439C 20.8581 11.5439 21.2249 11.4209 21.4893 11.1748C 21.7581 10.9242 21.8926 10.5938 21.8926 10.1836C 21.8926 9.1901 21.3457 8.69336 20.252 8.69336L 19.2061 8.69336L 19.2061 7.14844Z"/>
<path id="path4_fill" d="M 3.77539 10.0332L 3.06445 10.7441L 3.06445 13L 1.08887 13L 1.08887 2.5L 3.06445 2.5L 3.06445 8.31738L 3.44727 7.8252L 5.34082 5.60352L 7.71289 5.60352L 5.04004 8.68652L 7.94531 13L 5.67578 13L 3.77539 10.0332ZM 8.14355 9.24707C 8.14355 8.1123 8.41243 7.19857 8.9502 6.50586C 9.49251 5.81315 10.2217 5.4668 11.1377 5.4668C 11.9489 5.4668 12.5801 5.74479 13.0312 6.30078L 13.1133 5.60352L 14.9043 5.60352L 14.9043 12.7539C 14.9043 13.401 14.7562 13.9639 14.46 14.4424C 14.1683 14.9209 13.7559 15.2855 13.2227 15.5361C 12.6895 15.7868 12.0651 15.9121 11.3496 15.9121C 10.8073 15.9121 10.2786 15.8027 9.76367 15.584C 9.2487 15.3698 8.85905 15.0918 8.59473 14.75L 9.46973 13.5469C 9.96191 14.0983 10.5589 14.374 11.2607 14.374C 11.7848 14.374 12.1927 14.2327 12.4844 13.9502C 12.776 13.6722 12.9219 13.2757 12.9219 12.7607L 12.9219 12.3643C 12.4661 12.8792 11.8669 13.1367 11.124 13.1367C 10.2354 13.1367 9.5153 12.7904 8.96387 12.0977C 8.41699 11.4004 8.14355 10.4775 8.14355 9.3291L 8.14355 9.24707ZM 10.1191 9.39062C 10.1191 10.0605 10.2536 10.5869 10.5225 10.9697C 10.7913 11.348 11.1605 11.5371 11.6299 11.5371C 12.2314 11.5371 12.6621 11.3115 12.9219 10.8604L 12.9219 7.75C 12.6576 7.29883 12.2314 7.07324 11.6436 7.07324C 11.1696 7.07324 10.7959 7.26693 10.5225 7.6543C 10.2536 8.04167 10.1191 8.62044 10.1191 9.39062Z"/>
<path id="path5_stroke" d="M 12.0399 4.96722L 12.0399 3.46722L 12.0292 3.46722L 12.0185 3.46737L 12.0399 4.96722ZM 12.0399 4.96722C 12.0399 6.46722 12.0408 6.46722 12.0427 6.46722C 12.0446 6.46722 12.0473 6.46722 12.0511 6.46722C 12.0548 6.46722 12.0594 6.46722 12.065 6.46722C 12.0705 6.46722 12.077 6.46722 12.0844 6.46722C 12.0918 6.46722 12.1001 6.46722 12.1094 6.46722C 12.1186 6.46722 12.1288 6.46722 12.1398 6.46722C 12.1509 6.46722 12.1629 6.46722 12.1757 6.46722C 12.1886 6.46722 12.2024 6.46722 12.2171 6.46722C 12.2318 6.46722 12.2474 6.46722 12.2639 6.46722C 12.2804 6.46722 12.2978 6.46722 12.3161 6.46722C 12.3344 6.46722 12.3535 6.46722 12.3736 6.46722C 12.3937 6.46722 12.4147 6.46722 12.4366 6.46722C 12.4584 6.46722 12.4812 6.46722 12.5048 6.46722C 12.5285 6.46722 12.553 6.46722 12.5784 6.46722C 12.6038 6.46722 12.6301 6.46722 12.6573 6.46722C 12.6845 6.46722 12.7125 6.46722 12.7415 6.46722C 12.7704 6.46722 12.8002 6.46722 12.8309 6.46722C 12.8616 6.46722 12.8931 6.46722 12.9256 6.46722C 12.958 6.46722 12.9913 6.46722 13.0254 6.46722C 13.0596 6.46722 13.0946 6.46722 13.1305 6.46722C 13.1664 6.46722 13.2031 6.46722 13.2407 6.46722C 13.2783 6.46722 13.3168 6.46722 13.3561 6.46722C 13.3954 6.46722 13.4356 6.46722 13.4766 6.46722C 13.5176 6.46722 13.5595 6.46722 13.6022 6.46722C 13.645 6.46722 13.6885 6.46722 13.733 6.46722C 13.7774 6.46722 13.8226 6.46722 13.8687 6.46722C 13.9148 6.46722 13.9618 6.46722 14.0096 6.46722C 14.0573 6.46722 14.1059 6.46722 14.1554 6.46722C 14.2048 6.46722 14.2551 6.46722 14.3062 6.46722C 14.3574 6.46722 14.4093 6.46722 14.4621 6.46722C 14.5148 6.46722 14.5684 6.46722 14.6229 6.46722C 14.6773 6.46722 14.7325 6.46722 14.7886 6.46722C 14.8447 6.46722 14.9015 6.46722 14.9592 6.46722C 15.0169 6.46722 15.0755 6.46722 15.1348 6.46722C 15.1941 6.46722 15.2543 6.46722 15.3152 6.46722C 15.3762 6.46722 15.4379 6.46722 15.5005 6.46722C 15.563 6.46722 15.6264 6.46722 15.6906 6.46722C 15.7548 6.46722 15.8197 6.46722 15.8855 6.46722C 15.9513 6.46722 16.0179 6.46722 16.0852 6.46722C 16.1526 6.46722 16.2208 6.46722 16.2897 6.46722C 16.3587 6.46722 16.4284 6.46722 16.499 6.46722C 16.5695 6.46722 16.6408 6.46722 16.7129 6.46722C 16.785 6.46722 16.8579 6.46722 16.9316 6.46722C 17.0053 6.46722 17.0797 6.46722 17.1549 6.46722C 17.2302 6.46722 17.3062 6.46722 17.383 6.46722C 17.4598 6.46722 17.5373 6.46722 17.6156 6.46722C 17.694 6.46722 17.7731 6.46722 17.8529 6.46722C 17.9328 6.46722 18.0134 6.46722 18.0948 6.46722C 18.1762 6.46722 18.2584 6.46722 18.3413 6.46722C 18.4242 6.46722 18.5079 6.46722 18.5923 6.46722C 18.6768 6.46722 18.7619 6.46722 18.8479 6.46722C 18.9338 6.46722 19.0205 6.46722 19.108 6.46722C 19.1954 6.46722 19.2836 6.46722 19.3726 6.46722C 19.4615 6.46722 19.5512 6.46722 19.6416 6.46722C 19.7321 6.46722 19.8232 6.46722 19.9151 6.46722C 20.0071 6.46722 20.0997 6.46722 20.1931 6.46722C 20.2865 6.46722 20.3806 6.46722 20.4754 6.46722C 20.5703 6.46722 20.6659 6.46722 20.7622 6.46722C 20.8585 6.46722 20.9555 6.46722 21.0533 6.46722C 21.1511 6.46722 21.2496 6.46722 21.3488 6.46722C 21.448 6.46722 21.5479 6.46722 21.6486 6.46722C 21.7492 6.46722 21.8506 6.46722 21.9527 6.46722C 22.0548 6.46722 22.1576 6.46722 22.2611 6.46722C 22.3646 6.46722 22.4688 6.46722 22.5737 6.46722C 22.6786 6.46722 22.7843 6.46722 22.8906 6.46722C 22.997 6.46722 23.104 6.46722 23.2117 6.46722C 23.3195 6.46722 23.4279 6.46722 23.5371 6.46722C 23.6462 6.46722 23.756 6.46722 23.8666 6.46722C 23.9771 6.46722 24.0883 6.46722 24.2002 6.46722C 24.3121 6.46722 24.4247 6.46722 24.538 6.46722C 24.6513 6.46722 24.7653 6.46722 24.8799 6.46722C 24.9946 6.46722 25.1099 6.46722 25.2259 6.46722C 25.3419 6.46722 25.4586 6.46722 25.576 6.46722C 25.6934 6.46722 25.8114 6.46722 25.9301 6.46722C 26.0489 6.46722 26.1682 6.46722 26.2883 6.46722C 26.4084 6.46722 26.5291 6.46722 26.6505 6.46722C 26.7719 6.46722 26.8939 6.46722 27.0166 6.46722C 27.1394 6.46722 27.2627 6.46722 27.3868 6.46722C 27.5108 6.46722 27.6355 6.46722 27.7609 6.46722C 27.8862 6.46722 28.0122 6.46722 28.1389 6.46722C 28.2655 6.46722 28.3928 6.46722 28.5208 6.46722C 28.6488 6.46722 28.7774 6.46722 28.9066 6.46722C 29.0358 6.46722 29.1657 6.46722 29.2963 6.46722C 29.4268 6.46722 29.558 6.46722 29.6898 6.46722C 29.8216 6.46722 29.954 6.46722 30.0871 6.46722C 30.2202 6.46722 30.3539 6.46722 30.4882 6.46722C 30.6226 6.46722 30.7575 6.46722 30.8931 6.46722C 31.0287 6.46722 31.165 6.46722 31.3018 6.46722C 31.4386 6.46722 31.5761 6.46722 31.7142 6.46722C 31.8523 6.46722 31.991 6.46722 32.1303 6.46722C 32.2696 6.46722 32.4096 6.46722 32.5501 6.46722C 32.6907 6.46722 32.8318 6.46722 32.9736 6.46722C 33.1154 6.46722 33.2578 6.46722 33.4007 6.46722C 33.5437 6.46722 33.6873 6.46722 33.8315 6.46722C 33.9757 6.46722 34.1205 6.46722 34.2659 6.46722C 34.4113 6.46722 34.5573 6.46722 34.7039 6.46722C 34.8505 6.46722 34.9976 6.46722 35.1454 6.46722C 35.2932 6.46722 35.4415 6.46722 35.5905 6.46722C 35.7394 6.46722 35.889 6.46722 36.0391 6.46722C 36.1892 6.46722 36.3399 6.46722 36.4912 6.46722C 36.6425 6.46722 36.7944 6.46722 36.9468 6.46722C 37.0992 6.46722 37.2523 6.46722 37.4059 6.46722C 37.5595 6.46722 37.7136 6.46722 37.8684 6.46722C 38.0231 6.46722 38.1784 6.46722 38.3343 6.46722C 38.4902 6.46722 38.6466 6.46722 38.8036 6.46722C 38.9606 6.46722 39.1182 6.46722 39.2763 6.46722C 39.4344 6.46722 39.5931 6.46722 39.7524 6.46722C 39.9116 6.46722 40.0714 6.46722 40.2317 6.46722C 40.3921 6.46722 40.553 6.46722 40.7145 6.46722C 40.8759 6.46722 41.0379 6.46722 41.2005 6.46722C 41.363 6.46722 41.5261 6.46722 41.6897 6.46722C 41.8534 6.46722 42.0175 6.46722 42.1822 6.46722C 42.347 6.46722 42.5122 6.46722 42.678 6.46722C 42.8438 6.46722 43.0101 6.46722 43.177 6.46722C 43.3438 6.46722 43.5112 6.46722 43.6791 6.46722C 43.847 6.46722 44.0155 6.46722 44.1844 6.46722C 44.3534 6.46722 44.5229 6.46722 44.6929 6.46722C 44.8629 6.46722 45.0334 6.46722 45.2045 6.46722C 45.3755 6.46722 45.5471 6.46722 45.7192 6.46722C 45.8913 6.46722 46.0638 6.46722 46.237 6.46722C 46.4101 6.46722 46.5837 6.46722 46.7578 6.46722C 46.9319 6.46722 47.1065 6.46722 47.2817 6.46722C 47.4568 6.46722 47.6324 6.46722 47.8086 6.46722C 47.9847 6.46722 48.1613 6.46722 48.3385 6.46722C 48.5156 6.46722 48.6932 6.46722 48.8713 6.46722C 49.0494 6.46722 49.2281 6.46722 49.4072 6.46722C 49.5863 6.46722 49.7658 6.46722 49.9459 6.46722C 50.126 6.46722 50.3066 6.46722 50.4876 6.46722C 50.6686 6.46722 50.8502 6.46722 51.0322 6.46722C 51.2142 6.46722 51.3966 6.46722 51.5796 6.46722C 51.7626 6.46722 51.946 6.46722 52.1299 6.46722C 52.3138 6.46722 52.4982 6.46722 52.683 6.46722C 52.8679 6.46722 53.0532 6.46722 53.2389 6.46722C 53.4247 6.46722 53.611 6.46722 53.7977 6.46722C 53.9844 6.46722 54.1715 6.46722 54.3591 6.46722C 54.5468 6.46722 54.7348 6.46722 54.9234 6.46722C 55.1119 6.46722 55.3009 6.46722 55.4903 6.46722C 55.6798 6.46722 55.8696 6.46722 56.06 6.46722C 56.2503 6.46722 56.4411 6.46722 56.6323 6.46722C 56.8235 6.46722 57.0152 6.46722 57.2073 6.46722C 57.3994 6.46722 57.592 6.46722 57.785 6.46722C 57.9779 6.46722 58.1714 6.46722 58.3652 6.46722C 58.5591 6.46722 58.7533 6.46722 58.9481 6.46722C 59.1428 6.46722 59.3379 6.46722 59.5335 6.46722C 59.7291 6.46722 59.9251 6.46722 60.1215 6.46722C 60.3179 6.46722 60.5147 6.46722 60.712 6.46722C 60.9092 6.46722 61.1069 6.46722 61.305 6.46722C 61.5031 6.46722 61.7016 6.46722 61.9005 6.46722C 62.0995 6.46722 62.2988 6.46722 62.4985 6.46722C 62.6983 6.46722 62.8984 6.46722 63.099 6.46722C 63.2995 6.46722 63.5005 6.46722 63.7018 6.46722C 63.9032 6.46722 64.105 6.46722 64.3071 6.46722C 64.5093 6.46722 64.7118 6.46722 64.9148 6.46722C 65.1177 6.46722 65.3211 6.46722 65.5248 6.46722C 65.7286 6.46722 65.9327 6.46722 66.1372 6.46722C 66.3417 6.46722 66.5466 6.46722 66.7519 6.46722C 66.9572 6.46722 67.1628 6.46722 67.3689 6.46722C 67.5749 6.46722 67.7814 6.46722 67.9882 6.46722C 68.195 6.46722 68.4022 6.46722 68.6097 6.46722C 68.8173 6.46722 69.0252 6.46722 69.2335 6.46722C 69.4418 6.46722 69.6505 6.46722 69.8595 6.46722C 70.0685 6.46722 70.2779 6.46722 70.4877 6.46722C 70.6974 6.46722 70.9076 6.46722 71.118 6.46722C 71.3285 6.46722 71.5394 6.46722 71.7506 6.46722C 71.9618 6.46722 72.1733 6.46722 72.3852 6.46722C 72.5971 6.46722 72.8094 6.46722 73.022 6.46722C 73.2346 6.46722 73.4476 6.46722 73.6608 6.46722C 73.8741 6.46722 74.0878 6.46722 74.3018 6.46722C 74.5158 6.46722 74.7301 6.46722 74.9448 6.46722C 75.1594 6.46722 75.3744 6.46722 75.5898 6.46722C 75.8051 6.46722 76.0208 6.46722 76.2368 6.46722C 76.4528 6.46722 76.6691 6.46722 76.8858 6.46722C 77.1024 6.46722 77.3194 6.46722 77.5367 6.46722C 77.754 6.46722 77.9717 6.46722 78.1896 6.46722C 78.4076 6.46722 78.6259 6.46722 78.8445 6.46722C 79.063 6.46722 79.282 6.46722 79.5012 6.46722C 79.7204 6.46722 79.9399 6.46722 80.1598 6.46722C 80.3796 6.46722 80.5998 6.46722 80.8203 6.46722C 81.0407 6.46722 81.2615 6.46722 81.4826 6.46722C 81.7036 6.46722 81.925 6.46722 82.1467 6.46722C 82.3683 6.46722 82.5903 6.46722 82.8126 6.46722C 83.0349 6.46722 83.2574 6.46722 83.4803 6.46722C 83.7031 6.46722 83.9263 6.46722 84.1497 6.46722C 84.3732 6.46722 84.5969 6.46722 84.8209 6.46722C 85.0449 6.46722 85.2692 6.46722 85.4938 6.46722C 85.7184 6.46722 85.9432 6.46722 86.1684 6.46722C 86.3935 6.46722 86.6189 6.46722 86.8446 6.46722C 87.0703 6.46722 87.2963 6.46722 87.5225 6.46722C 87.7487 6.46722 87.9752 6.46722 88.202 6.46722C 88.4288 6.46722 88.6558 6.46722 88.8831 6.46722C 89.1105 6.46722 89.338 6.46722 89.5659 6.46722C 89.7937 6.46722 90.0218 6.46722 90.2501 6.46722C 90.4785 6.46722 90.7071 6.46722 90.9359 6.46722C 91.1648 6.46722 91.3939 6.46722 91.6233 6.46722C 91.8526 6.46722 92.0823 6.46722 92.3121 6.46722C 92.542 6.46722 92.7721 6.46722 93.0024 6.46722C 93.2328 6.46722 93.4634 6.46722 93.6942 6.46722C 93.925 6.46722 94.1561 6.46722 94.3874 6.46722C 94.6187 6.46722 94.8503 6.46722 95.082 6.46722C 95.3138 6.46722 95.5458 6.46722 95.7781 6.46722C 96.0103 6.46722 96.2428 6.46722 96.4755 6.46722C 96.7081 6.46722 96.9411 6.46722 97.1742 6.46722C 97.4073 6.46722 97.6407 6.46722 97.8743 6.46722C 98.1079 6.46722 98.3417 6.46722 98.5757 6.46722C 98.8097 6.46722 99.0439 6.46722 99.2783 6.46722C 99.5128 6.46722 99.7474 6.46722 99.9823 6.46722C 100.217 6.46722 100.452 6.46722 100.687 6.46722C 100.923 6.46722 101.158 6.46722 101.394 6.46722C 101.63 6.46722 101.865 6.46722 102.102 6.46722C 102.338 6.46722 102.574 6.46722 102.81 6.46722C 103.047 6.46722 103.283 6.46722 103.52 6.46722C 103.757 6.46722 103.994 6.46722 104.231 6.46722C 104.469 6.46722 104.706 6.46722 104.944 6.46722C 105.181 6.46722 105.419 6.46722 105.657 6.46722C 105.895 6.46722 106.133 6.46722 106.371 6.46722C 106.61 6.46722 106.848 6.46722 107.087 6.46722C 107.326 6.46722 107.564 6.46722 107.803 6.46722C 108.042 6.46722 108.282 6.46722 108.521 6.46722C 108.76 6.46722 109 6.46722 109.239 6.46722C 109.479 6.46722 109.719 6.46722 109.959 6.46722C 110.199 6.46722 110.439 6.46722 110.679 6.46722C 110.92 6.46722 111.16 6.46722 111.401 6.46722C 111.641 6.46722 111.882 6.46722 112.123 6.46722C 112.364 6.46722 112.605 6.46722 112.846 6.46722C 113.087 6.46722 113.329 6.46722 113.57 6.46722C 113.812 6.46722 114.053 6.46722 114.295 6.46722C 114.537 6.46722 114.779 6.46722 115.021 6.46722C 115.263 6.46722 115.505 6.46722 115.747 6.46722C 115.989 6.46722 116.232 6.46722 116.474 6.46722C 116.717 6.46722 116.96 6.46722 117.203 6.46722C 117.445 6.46722 117.688 6.46722 117.931 6.46722C 118.174 6.46722 118.418 6.46722 118.661 6.46722C 118.904 6.46722 119.147 6.46722 119.391 6.46722C 119.635 6.46722 119.878 6.46722 120.122 6.46722C 120.366 6.46722 120.609 6.46722 120.853 6.46722C 121.097 6.46722 121.341 6.46722 121.586 6.46722C 121.83 6.46722 122.074 6.46722 122.318 6.46722C 122.563 6.46722 122.807 6.46722 123.052 6.46722C 123.296 6.46722 123.541 6.46722 123.786 6.46722C 124.03 6.46722 124.275 6.46722 124.52 6.46722C 124.765 6.46722 125.01 6.46722 125.255 6.46722C 125.5 6.46722 125.746 6.46722 125.991 6.46722C 126.236 6.46722 126.481 6.46722 126.727 6.46722C 126.972 6.46722 127.218 6.46722 127.463 6.46722C 127.709 6.46722 127.955 6.46722 128.2 6.46722C 128.446 6.46722 128.692 6.46722 128.938 6.46722C 129.183 6.46722 129.429 6.46722 129.675 6.46722C 129.921 6.46722 130.167 6.46722 130.414 6.46722C 130.66 6.46722 130.906 6.46722 131.152 6.46722C 131.398 6.46722 131.645 6.46722 131.891 6.46722C 132.137 6.46722 132.384 6.46722 132.63 6.46722C 132.876 6.46722 133.123 6.46722 133.37 6.46722C 133.616 6.46722 133.863 6.46722 134.109 6.46722C 134.356 6.46722 134.603 6.46722 134.849 6.46722C 135.096 6.46722 135.343 6.46722 135.589 6.46722C 135.836 6.46722 136.083 6.46722 136.33 6.46722C 136.577 6.46722 136.824 6.46722 137.071 6.46722C 137.317 6.46722 137.564 6.46722 137.811 6.46722C 138.058 6.46722 138.305 6.46722 138.552 6.46722C 138.799 6.46722 139.046 6.46722 139.293 6.46722C 139.54 6.46722 139.788 6.46722 140.035 6.46722C 140.282 6.46722 140.529 6.46722 140.776 6.46722C 141.023 6.46722 141.27 6.46722 141.517 6.46722C 141.764 6.46722 142.011 6.46722 142.259 6.46722C 142.506 6.46722 142.753 6.46722 143 6.46722C 143.247 6.46722 143.494 6.46722 143.741 6.46722C 143.989 6.46722 144.236 6.46722 144.483 6.46722C 144.73 6.46722 144.977 6.46722 145.224 6.46722C 145.471 6.46722 145.718 6.46722 145.965 6.46722C 146.213 6.46722 146.46 6.46722 146.707 6.46722C 146.954 6.46722 147.201 6.46722 147.448 6.46722C 147.695 6.46722 147.942 6.46722 148.189 6.46722C 148.436 6.46722 148.683 6.46722 148.93 6.46722C 149.176 6.46722 149.423 6.46722 149.67 6.46722C 149.917 6.46722 150.164 6.46722 150.411 6.46722C 150.658 6.46722 150.904 6.46722 151.151 6.46722C 151.398 6.46722 151.644 6.46722 151.891 6.46722C 152.138 6.46722 152.384 6.46722 152.631 6.46722C 152.877 6.46722 153.124 6.46722 153.37 6.46722C 153.617 6.46722 153.863 6.46722 154.11 6.46722C 154.356 6.46722 154.602 6.46722 154.848 6.46722C 155.095 6.46722 155.341 6.46722 155.587 6.46722C 155.833 6.46722 156.079 6.46722 156.325 6.46722C 156.571 6.46722 156.817 6.46722 157.063 6.46722C 157.309 6.46722 157.555 6.46722 157.801 6.46722C 158.046 6.46722 158.292 6.46722 158.538 6.46722C 158.783 6.46722 159.029 6.46722 159.274 6.46722C 159.52 6.46722 159.765 6.46722 160.01 6.46722C 160.256 6.46722 160.501 6.46722 160.746 6.46722C 160.991 6.46722 161.236 6.46722 161.481 6.46722C 161.726 6.46722 161.971 6.46722 162.216 6.46722C 162.46 6.46722 162.705 6.46722 162.95 6.46722C 163.194 6.46722 163.439 6.46722 163.683 6.46722C 163.928 6.46722 164.172 6.46722 164.416 6.46722C 164.66 6.46722 164.904 6.46722 165.148 6.46722C 165.392 6.46722 165.636 6.46722 165.88 6.46722C 166.124 6.46722 166.367 6.46722 166.611 6.46722C 166.855 6.46722 167.098 6.46722 167.341 6.46722C 167.585 6.46722 167.828 6.46722 168.071 6.46722C 168.314 6.46722 168.557 6.46722 168.8 6.46722C 169.043 6.46722 169.285 6.46722 169.528 6.46722C 169.771 6.46722 170.013 6.46722 170.255 6.46722C 170.498 6.46722 170.74 6.46722 170.982 6.46722C 171.224 6.46722 171.466 6.46722 171.708 6.46722C 171.95 6.46722 172.191 6.46722 172.433 6.46722C 172.675 6.46722 172.916 6.46722 173.157 6.46722C 173.398 6.46722 173.64 6.46722 173.881 6.46722C 174.121 6.46722 174.362 6.46722 174.603 6.46722C 174.844 6.46722 175.084 6.46722 175.325 6.46722C 175.565 6.46722 175.805 6.46722 176.045 6.46722C 176.285 6.46722 176.525 6.46722 176.765 6.46722C 177.004 6.46722 177.244 6.46722 177.483 6.46722C 177.723 6.46722 177.962 6.46722 178.201 6.46722C 178.44 6.46722 178.679 6.46722 178.918 6.46722C 179.157 6.46722 179.395 6.46722 179.634 6.46722C 179.872 6.46722 180.11 6.46722 180.348 6.46722C 180.586 6.46722 180.824 6.46722 181.062 6.46722C 181.299 6.46722 181.537 6.46722 181.774 6.46722C 182.011 6.46722 182.248 6.46722 182.485 6.46722C 182.722 6.46722 182.959 6.46722 183.196 6.46722C 183.432 6.46722 183.668 6.46722 183.905 6.46722C 184.141 6.46722 184.377 6.46722 184.612 6.46722C 184.848 6.46722 185.084 6.46722 185.319 6.46722C 185.554 6.46722 185.79 6.46722 186.025 6.46722C 186.259 6.46722 186.494 6.46722 186.729 6.46722C 186.963 6.46722 187.198 6.46722 187.432 6.46722C 187.666 6.46722 187.9 6.46722 188.133 6.46722C 188.367 6.46722 188.6 6.46722 188.834 6.46722C 189.067 6.46722 189.3 6.46722 189.533 6.46722C 189.765 6.46722 189.998 6.46722 190.23 6.46722C 190.463 6.46722 190.695 6.46722 190.926 6.46722C 191.158 6.46722 191.39 6.46722 191.621 6.46722C 191.853 6.46722 192.084 6.46722 192.315 6.46722C 192.546 6.46722 192.776 6.46722 193.007 6.46722C 193.237 6.46722 193.468 6.46722 193.697 6.46722C 193.927 6.46722 194.157 6.46722 194.387 6.46722C 194.616 6.46722 194.845 6.46722 195.074 6.46722C 195.303 6.46722 195.532 6.46722 195.76 6.46722C 195.989 6.46722 196.217 6.46722 196.445 6.46722C 196.673 6.46722 196.9 6.46722 197.128 6.46722C 197.355 6.46722 197.582 6.46722 197.809 6.46722C 198.036 6.46722 198.263 6.46722 198.489 6.46722C 198.715 6.46722 198.942 6.46722 199.167 6.46722C 199.393 6.46722 199.619 6.46722 199.844 6.46722C 200.069 6.46722 200.294 6.46722 200.519 6.46722C 200.743 6.46722 200.968 6.46722 201.192 6.46722C 201.416 6.46722 201.64 6.46722 201.863 6.46722C 202.087 6.46722 202.31 6.46722 202.533 6.46722C 202.756 6.46722 202.979 6.46722 203.201 6.46722C 203.424 6.46722 203.646 6.46722 203.867 6.46722C 204.089 6.46722 204.311 6.46722 204.532 6.46722C 204.753 6.46722 204.974 6.46722 205.195 6.46722C 205.415 6.46722 205.635 6.46722 205.855 6.46722C 206.075 6.46722 206.295 6.46722 206.514 6.46722C 206.734 6.46722 206.953 6.46722 207.171 6.46722C 207.39 6.46722 207.609 6.46722 207.827 6.46722C 208.045 6.46722 208.262 6.46722 208.48 6.46722C 208.697 6.46722 208.914 6.46722 209.131 6.46722C 209.348 6.46722 209.564 6.46722 209.781 6.46722C 209.997 6.46722 210.212 6.46722 210.428 6.46722C 210.643 6.46722 210.858 6.46722 211.073 6.46722C 211.288 6.46722 211.503 6.46722 211.717 6.46722C 211.931 6.46722 212.145 6.46722 212.358 6.46722C 212.571 6.46722 212.784 6.46722 212.997 6.46722C 213.21 6.46722 213.422 6.46722 213.634 6.46722C 213.846 6.46722 214.058 6.46722 214.269 6.46722C 214.481 6.46722 214.692 6.46722 214.902 6.46722C 215.113 6.46722 215.323 6.46722 215.533 6.46722C 215.743 6.46722 215.953 6.46722 216.162 6.46722C 216.371 6.46722 216.58 6.46722 216.788 6.46722C 216.997 6.46722 217.205 6.46722 217.412 6.46722C 217.62 6.46722 217.827 6.46722 218.034 6.46722C 218.241 6.46722 218.448 6.46722 218.654 6.46722C 218.86 6.46722 219.066 6.46722 219.271 6.46722C 219.477 6.46722 219.682 6.46722 219.886 6.46722C 220.091 6.46722 220.295 6.46722 220.499 6.46722C 220.703 6.46722 220.907 6.46722 221.11 6.46722C 221.313 6.46722 221.516 6.46722 221.718 6.46722C 221.92 6.46722 222.122 6.46722 222.324 6.46722C 222.525 6.46722 222.726 6.46722 222.927 6.46722C 223.128 6.46722 223.328 6.46722 223.528 6.46722C 223.728 6.46722 223.927 6.46722 224.126 6.46722C 224.325 6.46722 224.524 6.46722 224.722 6.46722C 224.92 6.46722 225.118 6.46722 225.316 6.46722C 225.513 6.46722 225.71 6.46722 225.907 6.46722C 226.103 6.46722 226.299 6.46722 226.495 6.46722C 226.691 6.46722 226.886 6.46722 227.081 6.46722C 227.276 6.46722 227.47 6.46722 227.664 6.46722C 227.858 6.46722 228.052 6.46722 228.245 6.46722C 228.438 6.46722 228.631 6.46722 228.823 6.46722C 229.016 6.46722 229.207 6.46722 229.399 6.46722C 229.59 6.46722 229.781 6.46722 229.972 6.46722C 230.162 6.46722 230.352 6.46722 230.542 6.46722C 230.731 6.46722 230.92 6.46722 231.109 6.46722C 231.298 6.46722 231.486 6.46722 231.674 6.46722C 231.862 6.46722 232.049 6.46722 232.236 6.46722C 232.423 6.46722 232.609 6.46722 232.795 6.46722C 232.981 6.46722 233.167 6.46722 233.352 6.46722C 233.537 6.46722 233.721 6.46722 233.905 6.46722C 234.089 6.46722 234.273 6.46722 234.456 6.46722C 234.639 6.46722 234.822 6.46722 235.004 6.46722C 235.186 6.46722 235.368 6.46722 235.549 6.46722C 235.73 6.46722 235.911 6.46722 236.091 6.46722C 236.272 6.46722 236.451 6.46722 236.631 6.46722C 236.81 6.46722 236.989 6.46722 237.167 6.46722C 237.345 6.46722 237.523 6.46722 237.7 6.46722C 237.878 6.46722 238.055 6.46722 238.231 6.46722C 238.407 6.46722 238.583 6.46722 238.758 6.46722C 238.934 6.46722 239.108 6.46722 239.283 6.46722C 239.457 6.46722 239.631 6.46722 239.804 6.46722C 239.977 6.46722 240.15 6.46722 240.323 6.46722C 240.495 6.46722 240.667 6.46722 240.838 6.46722C 241.009 6.46722 241.18 6.46722 241.35 6.46722C 241.52 6.46722 241.69 6.46722 241.859 6.46722C 242.028 6.46722 242.197 6.46722 242.365 6.46722C 242.533 6.46722 242.701 6.46722 242.868 6.46722C 243.035 6.46722 243.201 6.46722 243.367 6.46722C 243.533 6.46722 243.699 6.46722 243.864 6.46722C 244.028 6.46722 244.193 6.46722 244.357 6.46722C 244.521 6.46722 244.684 6.46722 244.847 6.46722C 245.009 6.46722 245.172 6.46722 245.333 6.46722C 245.495 6.46722 245.656 6.46722 245.817 6.46722C 245.977 6.46722 246.137 6.46722 246.297 6.46722C 246.456 6.46722 246.615 6.46722 246.773 6.46722C 246.932 6.46722 247.089 6.46722 247.247 6.46722C 247.404 6.46722 247.56 6.46722 247.716 6.46722C 247.873 6.46722 248.028 6.46722 248.183 6.46722C 248.338 6.46722 248.492 6.46722 248.646 6.46722C 248.8 6.46722 248.953 6.46722 249.106 6.46722C 249.259 6.46722 249.411 6.46722 249.562 6.46722C 249.714 6.46722 249.865 6.46722 250.015 6.46722C 250.165 6.46722 250.315 6.46722 250.464 6.46722C 250.613 6.46722 250.762 6.46722 250.91 6.46722C 251.058 6.46722 251.205 6.46722 251.352 6.46722C 251.499 6.46722 251.645 6.46722 251.791 6.46722C 251.936 6.46722 252.081 6.46722 252.226 6.46722C 252.37 6.46722 252.514 6.46722 252.657 6.46722C 252.8 6.46722 252.943 6.46722 253.085 6.46722C 253.227 6.46722 253.368 6.46722 253.509 6.46722C 253.65 6.46722 253.79 6.46722 253.93 6.46722C 254.069 6.46722 254.208 6.46722 254.346 6.46722C 254.485 6.46722 254.622 6.46722 254.76 6.46722C 254.897 6.46722 255.033 6.46722 255.169 6.46722C 255.305 6.46722 255.44 6.46722 255.574 6.46722C 255.709 6.46722 255.843 6.46722 255.976 6.46722C 256.11 6.46722 256.242 6.46722 256.374 6.46722C 256.506 6.46722 256.638 6.46722 256.769 6.46722C 256.899 6.46722 257.029 6.46722 257.159 6.46722C 257.288 6.46722 257.417 6.46722 257.545 6.46722C 257.674 6.46722 257.801 6.46722 257.928 6.46722C 258.055 6.46722 258.181 6.46722 258.307 6.46722C 258.432 6.46722 258.557 6.46722 258.682 6.46722C 258.806 6.46722 258.93 6.46722 259.053 6.46722C 259.176 6.46722 259.298 6.46722 259.419 6.46722C 259.541 6.46722 259.662 6.46722 259.782 6.46722C 259.903 6.46722 260.022 6.46722 260.141 6.46722C 260.26 6.46722 260.379 6.46722 260.496 6.46722C 260.614 6.46722 260.731 6.46722 260.847 6.46722C 260.963 6.46722 261.079 6.46722 261.194 6.46722C 261.309 6.46722 261.423 6.46722 261.536 6.46722C 261.65 6.46722 261.763 6.46722 261.875 6.46722C 261.987 6.46722 262.099 6.46722 262.209 6.46722C 262.32 6.46722 262.43 6.46722 262.54 6.46722C 262.649 6.46722 262.758 6.46722 262.866 6.46722C 262.974 6.46722 263.081 6.46722 263.188 6.46722C 263.294 6.46722 263.4 6.46722 263.505 6.46722C 263.611 6.46722 263.715 6.46722 263.819 6.46722C 263.923 6.46722 264.026 6.46722 264.128 6.46722C 264.23 6.46722 264.332 6.46722 264.433 6.46722C 264.534 6.46722 264.634 6.46722 264.733 6.46722C 264.833 6.46722 264.932 6.46722 265.03 6.46722C 265.128 6.46722 265.225 6.46722 265.322 6.46722C 265.418 6.46722 265.514 6.46722 265.609 6.46722C 265.704 6.46722 265.799 6.46722 265.892 6.46722C 265.986 6.46722 266.079 6.46722 266.171 6.46722C 266.263 6.46722 266.355 6.46722 266.446 6.46722C 266.536 6.46722 266.626 6.46722 266.715 6.46722C 266.805 6.46722 266.893 6.46722 266.981 6.46722C 267.069 6.46722 267.156 6.46722 267.242 6.46722C 267.328 6.46722 267.413 6.46722 267.498 6.46722C 267.583 6.46722 267.667 6.46722 267.75 6.46722C 267.833 6.46722 267.916 6.46722 267.997 6.46722C 268.079 6.46722 268.16 6.46722 268.24 6.46722C 268.32 6.46722 268.4 6.46722 268.478 6.46722C 268.557 6.46722 268.635 6.46722 268.712 6.46722C 268.789 6.46722 268.865 6.46722 268.941 6.46722C 269.016 6.46722 269.091 6.46722 269.165 6.46722C 269.239 6.46722 269.312 6.46722 269.384 6.46722C 269.457 6.46722 269.528 6.46722 269.599 6.46722C 269.67 6.46722 269.74 6.46722 269.809 6.46722C 269.879 6.46722 269.947 6.46722 270.015 6.46722C 270.082 6.46722 270.149 6.46722 270.215 6.46722C 270.281 6.46722 270.347 6.46722 270.411 6.46722C 270.476 6.46722 270.539 6.46722 270.602 6.46722C 270.665 6.46722 270.727 6.46722 270.788 6.46722C 270.85 6.46722 270.91 6.46722 270.97 6.46722C 271.029 6.46722 271.088 6.46722 271.146 6.46722C 271.204 6.46722 271.261 6.46722 271.318 6.46722C 271.374 6.46722 271.43 6.46722 271.484 6.46722C 271.539 6.46722 271.593 6.46722 271.646 6.46722C 271.699 6.46722 271.751 6.46722 271.803 6.46722C 271.854 6.46722 271.905 6.46722 271.955 6.46722C 272.004 6.46722 272.053 6.46722 272.101 6.46722C 272.149 6.46722 272.197 6.46722 272.243 6.46722C 272.29 6.46722 272.335 6.46722 272.38 6.46722C 272.425 6.46722 272.468 6.46722 272.511 6.46722C 272.554 6.46722 272.597 6.46722 272.638 6.46722C 272.679 6.46722 272.72 6.46722 272.759 6.46722C 272.799 6.46722 272.838 6.46722 272.876 6.46722C 272.914 6.46722 272.951 6.46722 272.987 6.46722C 273.023 6.46722 273.059 6.46722 273.093 6.46722C 273.128 6.46722 273.161 6.46722 273.194 6.46722L 273.194 3.46722C 273.161 3.46722 273.128 3.46722 273.093 3.46722C 273.059 3.46722 273.023 3.46722 272.987 3.46722C 272.951 3.46722 272.914 3.46722 272.876 3.46722C 272.838 3.46722 272.799 3.46722 272.759 3.46722C 272.72 3.46722 272.679 3.46722 272.638 3.46722C 272.597 3.46722 272.554 3.46722 272.511 3.46722C 272.468 3.46722 272.425 3.46722 272.38 3.46722C 272.335 3.46722 272.29 3.46722 272.243 3.46722C 272.197 3.46722 272.149 3.46722 272.101 3.46722C 272.053 3.46722 272.004 3.46722 271.955 3.46722C 271.905 3.46722 271.854 3.46722 271.803 3.46722C 271.751 3.46722 271.699 3.46722 271.646 3.46722C 271.593 3.46722 271.539 3.46722 271.484 3.46722C 271.43 3.46722 271.374 3.46722 271.318 3.46722C 271.261 3.46722 271.204 3.46722 271.146 3.46722C 271.088 3.46722 271.029 3.46722 270.97 3.46722C 270.91 3.46722 270.85 3.46722 270.788 3.46722C 270.727 3.46722 270.665 3.46722 270.602 3.46722C 270.539 3.46722 270.476 3.46722 270.411 3.46722C 270.347 3.46722 270.281 3.46722 270.215 3.46722C 270.149 3.46722 270.082 3.46722 270.015 3.46722C 269.947 3.46722 269.879 3.46722 269.809 3.46722C 269.74 3.46722 269.67 3.46722 269.599 3.46722C 269.528 3.46722 269.457 3.46722 269.384 3.46722C 269.312 3.46722 269.239 3.46722 269.165 3.46722C 269.091 3.46722 269.016 3.46722 268.941 3.46722C 268.865 3.46722 268.789 3.46722 268.712 3.46722C 268.635 3.46722 268.557 3.46722 268.478 3.46722C 268.4 3.46722 268.32 3.46722 268.24 3.46722C 268.16 3.46722 268.079 3.46722 267.997 3.46722C 267.916 3.46722 267.833 3.46722 267.75 3.46722C 267.667 3.46722 267.583 3.46722 267.498 3.46722C 267.413 3.46722 267.328 3.46722 267.242 3.46722C 267.156 3.46722 267.069 3.46722 266.981 3.46722C 266.893 3.46722 266.805 3.46722 266.715 3.46722C 266.626 3.46722 266.536 3.46722 266.446 3.46722C 266.355 3.46722 266.263 3.46722 266.171 3.46722C 266.079 3.46722 265.986 3.46722 265.892 3.46722C 265.799 3.46722 265.704 3.46722 265.609 3.46722C 265.514 3.46722 265.418 3.46722 265.322 3.46722C 265.225 3.46722 265.128 3.46722 265.03 3.46722C 264.932 3.46722 264.833 3.46722 264.733 3.46722C 264.634 3.46722 264.534 3.46722 264.433 3.46722C 264.332 3.46722 264.23 3.46722 264.128 3.46722C 264.026 3.46722 263.923 3.46722 263.819 3.46722C 263.715 3.46722 263.611 3.46722 263.505 3.46722C 263.4 3.46722 263.294 3.46722 263.188 3.46722C 263.081 3.46722 262.974 3.46722 262.866 3.46722C 262.758 3.46722 262.649 3.46722 262.54 3.46722C 262.43 3.46722 262.32 3.46722 262.209 3.46722C 262.099 3.46722 261.987 3.46722 261.875 3.46722C 261.763 3.46722 261.65 3.46722 261.536 3.46722C 261.423 3.46722 261.309 3.46722 261.194 3.46722C 261.079 3.46722 260.963 3.46722 260.847 3.46722C 260.731 3.46722 260.614 3.46722 260.496 3.46722C 260.379 3.46722 260.26 3.46722 260.141 3.46722C 260.022 3.46722 259.903 3.46722 259.782 3.46722C 259.662 3.46722 259.541 3.46722 259.419 3.46722C 259.298 3.46722 259.176 3.46722 259.053 3.46722C 258.93 3.46722 258.806 3.46722 258.682 3.46722C 258.557 3.46722 258.432 3.46722 258.307 3.46722C 258.181 3.46722 258.055 3.46722 257.928 3.46722C 257.801 3.46722 257.674 3.46722 257.545 3.46722C 257.417 3.46722 257.288 3.46722 257.159 3.46722C 257.029 3.46722 256.899 3.46722 256.769 3.46722C 256.638 3.46722 256.506 3.46722 256.374 3.46722C 256.242 3.46722 256.11 3.46722 255.976 3.46722C 255.843 3.46722 255.709 3.46722 255.574 3.46722C 255.44 3.46722 255.305 3.46722 255.169 3.46722C 255.033 3.46722 254.897 3.46722 254.76 3.46722C 254.622 3.46722 254.485 3.46722 254.346 3.46722C 254.208 3.46722 254.069 3.46722 253.93 3.46722C 253.79 3.46722 253.65 3.46722 253.509 3.46722C 253.368 3.46722 253.227 3.46722 253.085 3.46722C 252.943 3.46722 252.8 3.46722 252.657 3.46722C 252.514 3.46722 252.37 3.46722 252.226 3.46722C 252.081 3.46722 251.936 3.46722 251.791 3.46722C 251.645 3.46722 251.499 3.46722 251.352 3.46722C 251.205 3.46722 251.058 3.46722 250.91 3.46722C 250.762 3.46722 250.613 3.46722 250.464 3.46722C 250.315 3.46722 250.165 3.46722 250.015 3.46722C 249.865 3.46722 249.714 3.46722 249.562 3.46722C 249.411 3.46722 249.259 3.46722 249.106 3.46722C 248.953 3.46722 248.8 3.46722 248.646 3.46722C 248.492 3.46722 248.338 3.46722 248.183 3.46722C 248.028 3.46722 247.873 3.46722 247.716 3.46722C 247.56 3.46722 247.404 3.46722 247.247 3.46722C 247.089 3.46722 246.932 3.46722 246.773 3.46722C 246.615 3.46722 246.456 3.46722 246.297 3.46722C 246.137 3.46722 245.977 3.46722 245.817 3.46722C 245.656 3.46722 245.495 3.46722 245.333 3.46722C 245.172 3.46722 245.009 3.46722 244.847 3.46722C 244.684 3.46722 244.521 3.46722 244.357 3.46722C 244.193 3.46722 244.028 3.46722 243.864 3.46722C 243.699 3.46722 243.533 3.46722 243.367 3.46722C 243.201 3.46722 243.035 3.46722 242.868 3.46722C 242.701 3.46722 242.533 3.46722 242.365 3.46722C 242.197 3.46722 242.028 3.46722 241.859 3.46722C 241.69 3.46722 241.52 3.46722 241.35 3.46722C 241.18 3.46722 241.009 3.46722 240.838 3.46722C 240.667 3.46722 240.495 3.46722 240.323 3.46722C 240.15 3.46722 239.977 3.46722 239.804 3.46722C 239.631 3.46722 239.457 3.46722 239.283 3.46722C 239.108 3.46722 238.934 3.46722 238.758 3.46722C 238.583 3.46722 238.407 3.46722 238.231 3.46722C 238.055 3.46722 237.878 3.46722 237.7 3.46722C 237.523 3.46722 237.345 3.46722 237.167 3.46722C 236.989 3.46722 236.81 3.46722 236.631 3.46722C 236.451 3.46722 236.272 3.46722 236.091 3.46722C 235.911 3.46722 235.73 3.46722 235.549 3.46722C 235.368 3.46722 235.186 3.46722 235.004 3.46722C 234.822 3.46722 234.639 3.46722 234.456 3.46722C 234.273 3.46722 234.089 3.46722 233.905 3.46722C 233.721 3.46722 233.537 3.46722 233.352 3.46722C 233.167 3.46722 232.981 3.46722 232.795 3.46722C 232.609 3.46722 232.423 3.46722 232.236 3.46722C 232.049 3.46722 231.862 3.46722 231.674 3.46722C 231.486 3.46722 231.298 3.46722 231.109 3.46722C 230.92 3.46722 230.731 3.46722 230.542 3.46722C 230.352 3.46722 230.162 3.46722 229.972 3.46722C 229.781 3.46722 229.59 3.46722 229.399 3.46722C 229.207 3.46722 229.016 3.46722 228.823 3.46722C 228.631 3.46722 228.438 3.46722 228.245 3.46722C 228.052 3.46722 227.858 3.46722 227.664 3.46722C 227.47 3.46722 227.276 3.46722 227.081 3.46722C 226.886 3.46722 226.691 3.46722 226.495 3.46722C 226.299 3.46722 226.103 3.46722 225.907 3.46722C 225.71 3.46722 225.513 3.46722 225.316 3.46722C 225.118 3.46722 224.92 3.46722 224.722 3.46722C 224.524 3.46722 224.325 3.46722 224.126 3.46722C 223.927 3.46722 223.728 3.46722 223.528 3.46722C 223.328 3.46722 223.128 3.46722 222.927 3.46722C 222.726 3.46722 222.525 3.46722 222.324 3.46722C 222.122 3.46722 221.92 3.46722 221.718 3.46722C 221.516 3.46722 221.313 3.46722 221.11 3.46722C 220.907 3.46722 220.703 3.46722 220.499 3.46722C 220.295 3.46722 220.091 3.46722 219.886 3.46722C 219.682 3.46722 219.477 3.46722 219.271 3.46722C 219.066 3.46722 218.86 3.46722 218.654 3.46722C 218.448 3.46722 218.241 3.46722 218.034 3.46722C 217.827 3.46722 217.62 3.46722 217.412 3.46722C 217.205 3.46722 216.997 3.46722 216.788 3.46722C 216.58 3.46722 216.371 3.46722 216.162 3.46722C 215.953 3.46722 215.743 3.46722 215.533 3.46722C 215.323 3.46722 215.113 3.46722 214.902 3.46722C 214.692 3.46722 214.481 3.46722 214.269 3.46722C 214.058 3.46722 213.846 3.46722 213.634 3.46722C 213.422 3.46722 213.21 3.46722 212.997 3.46722C 212.784 3.46722 212.571 3.46722 212.358 3.46722C 212.145 3.46722 211.931 3.46722 211.717 3.46722C 211.503 3.46722 211.288 3.46722 211.073 3.46722C 210.858 3.46722 210.643 3.46722 210.428 3.46722C 210.212 3.46722 209.997 3.46722 209.781 3.46722C 209.564 3.46722 209.348 3.46722 209.131 3.46722C 208.914 3.46722 208.697 3.46722 208.48 3.46722C 208.262 3.46722 208.045 3.46722 207.827 3.46722C 207.609 3.46722 207.39 3.46722 207.171 3.46722C 206.953 3.46722 206.734 3.46722 206.514 3.46722C 206.295 3.46722 206.075 3.46722 205.855 3.46722C 205.635 3.46722 205.415 3.46722 205.195 3.46722C 204.974 3.46722 204.753 3.46722 204.532 3.46722C 204.311 3.46722 204.089 3.46722 203.867 3.46722C 203.646 3.46722 203.424 3.46722 203.201 3.46722C 202.979 3.46722 202.756 3.46722 202.533 3.46722C 202.31 3.46722 202.087 3.46722 201.863 3.46722C 201.64 3.46722 201.416 3.46722 201.192 3.46722C 200.968 3.46722 200.743 3.46722 200.519 3.46722C 200.294 3.46722 200.069 3.46722 199.844 3.46722C 199.619 3.46722 199.393 3.46722 199.167 3.46722C 198.942 3.46722 198.715 3.46722 198.489 3.46722C 198.263 3.46722 198.036 3.46722 197.809 3.46722C 197.582 3.46722 197.355 3.46722 197.128 3.46722C 196.9 3.46722 196.673 3.46722 196.445 3.46722C 196.217 3.46722 195.989 3.46722 195.76 3.46722C 195.532 3.46722 195.303 3.46722 195.074 3.46722C 194.845 3.46722 194.616 3.46722 194.387 3.46722C 194.157 3.46722 193.927 3.46722 193.697 3.46722C 193.468 3.46722 193.237 3.46722 193.007 3.46722C 192.776 3.46722 192.546 3.46722 192.315 3.46722C 192.084 3.46722 191.853 3.46722 191.621 3.46722C 191.39 3.46722 191.158 3.46722 190.926 3.46722C 190.695 3.46722 190.463 3.46722 190.23 3.46722C 189.998 3.46722 189.765 3.46722 189.533 3.46722C 189.3 3.46722 189.067 3.46722 188.834 3.46722C 188.6 3.46722 188.367 3.46722 188.133 3.46722C 187.9 3.46722 187.666 3.46722 187.432 3.46722C 187.198 3.46722 186.963 3.46722 186.729 3.46722C 186.494 3.46722 186.259 3.46722 186.025 3.46722C 185.79 3.46722 185.554 3.46722 185.319 3.46722C 185.084 3.46722 184.848 3.46722 184.612 3.46722C 184.377 3.46722 184.141 3.46722 183.905 3.46722C 183.668 3.46722 183.432 3.46722 183.196 3.46722C 182.959 3.46722 182.722 3.46722 182.485 3.46722C 182.248 3.46722 182.011 3.46722 181.774 3.46722C 181.537 3.46722 181.299 3.46722 181.062 3.46722C 180.824 3.46722 180.586 3.46722 180.348 3.46722C 180.11 3.46722 179.872 3.46722 179.634 3.46722C 179.395 3.46722 179.157 3.46722 178.918 3.46722C 178.679 3.46722 178.44 3.46722 178.201 3.46722C 177.962 3.46722 177.723 3.46722 177.483 3.46722C 177.244 3.46722 177.004 3.46722 176.765 3.46722C 176.525 3.46722 176.285 3.46722 176.045 3.46722C 175.805 3.46722 175.565 3.46722 175.325 3.46722C 175.084 3.46722 174.844 3.46722 174.603 3.46722C 174.362 3.46722 174.121 3.46722 173.881 3.46722C 173.64 3.46722 173.398 3.46722 173.157 3.46722C 172.916 3.46722 172.675 3.46722 172.433 3.46722C 172.191 3.46722 171.95 3.46722 171.708 3.46722C 171.466 3.46722 171.224 3.46722 170.982 3.46722C 170.74 3.46722 170.498 3.46722 170.255 3.46722C 170.013 3.46722 169.771 3.46722 169.528 3.46722C 169.285 3.46722 169.043 3.46722 168.8 3.46722C 168.557 3.46722 168.314 3.46722 168.071 3.46722C 167.828 3.46722 167.585 3.46722 167.341 3.46722C 167.098 3.46722 166.855 3.46722 166.611 3.46722C 166.367 3.46722 166.124 3.46722 165.88 3.46722C 165.636 3.46722 165.392 3.46722 165.148 3.46722C 164.904 3.46722 164.66 3.46722 164.416 3.46722C 164.172 3.46722 163.928 3.46722 163.683 3.46722C 163.439 3.46722 163.194 3.46722 162.95 3.46722C 162.705 3.46722 162.46 3.46722 162.216 3.46722C 161.971 3.46722 161.726 3.46722 161.481 3.46722C 161.236 3.46722 160.991 3.46722 160.746 3.46722C 160.501 3.46722 160.256 3.46722 160.01 3.46722C 159.765 3.46722 159.52 3.46722 159.274 3.46722C 159.029 3.46722 158.783 3.46722 158.538 3.46722C 158.292 3.46722 158.046 3.46722 157.801 3.46722C 157.555 3.46722 157.309 3.46722 157.063 3.46722C 156.817 3.46722 156.571 3.46722 156.325 3.46722C 156.079 3.46722 155.833 3.46722 155.587 3.46722C 155.341 3.46722 155.095 3.46722 154.848 3.46722C 154.602 3.46722 154.356 3.46722 154.11 3.46722C 153.863 3.46722 153.617 3.46722 153.37 3.46722C 153.124 3.46722 152.877 3.46722 152.631 3.46722C 152.384 3.46722 152.138 3.46722 151.891 3.46722C 151.644 3.46722 151.398 3.46722 151.151 3.46722C 150.904 3.46722 150.658 3.46722 150.411 3.46722C 150.164 3.46722 149.917 3.46722 149.67 3.46722C 149.423 3.46722 149.176 3.46722 148.93 3.46722C 148.683 3.46722 148.436 3.46722 148.189 3.46722C 147.942 3.46722 147.695 3.46722 147.448 3.46722C 147.201 3.46722 146.954 3.46722 146.707 3.46722C 146.46 3.46722 146.213 3.46722 145.965 3.46722C 145.718 3.46722 145.471 3.46722 145.224 3.46722C 144.977 3.46722 144.73 3.46722 144.483 3.46722C 144.236 3.46722 143.989 3.46722 143.741 3.46722C 143.494 3.46722 143.247 3.46722 143 3.46722C 142.753 3.46722 142.506 3.46722 142.259 3.46722C 142.011 3.46722 141.764 3.46722 141.517 3.46722C 141.27 3.46722 141.023 3.46722 140.776 3.46722C 140.529 3.46722 140.282 3.46722 140.035 3.46722C 139.788 3.46722 139.54 3.46722 139.293 3.46722C 139.046 3.46722 138.799 3.46722 138.552 3.46722C 138.305 3.46722 138.058 3.46722 137.811 3.46722C 137.564 3.46722 137.317 3.46722 137.071 3.46722C 136.824 3.46722 136.577 3.46722 136.33 3.46722C 136.083 3.46722 135.836 3.46722 135.589 3.46722C 135.343 3.46722 135.096 3.46722 134.849 3.46722C 134.603 3.46722 134.356 3.46722 134.109 3.46722C 133.863 3.46722 133.616 3.46722 133.37 3.46722C 133.123 3.46722 132.876 3.46722 132.63 3.46722C 132.384 3.46722 132.137 3.46722 131.891 3.46722C 131.645 3.46722 131.398 3.46722 131.152 3.46722C 130.906 3.46722 130.66 3.46722 130.414 3.46722C 130.167 3.46722 129.921 3.46722 129.675 3.46722C 129.429 3.46722 129.183 3.46722 128.938 3.46722C 128.692 3.46722 128.446 3.46722 128.2 3.46722C 127.955 3.46722 127.709 3.46722 127.463 3.46722C 127.218 3.46722 126.972 3.46722 126.727 3.46722C 126.481 3.46722 126.236 3.46722 125.991 3.46722C 125.746 3.46722 125.5 3.46722 125.255 3.46722C 125.01 3.46722 124.765 3.46722 124.52 3.46722C 124.275 3.46722 124.03 3.46722 123.786 3.46722C 123.541 3.46722 123.296 3.46722 123.052 3.46722C 122.807 3.46722 122.563 3.46722 122.318 3.46722C 122.074 3.46722 121.83 3.46722 121.586 3.46722C 121.341 3.46722 121.097 3.46722 120.853 3.46722C 120.609 3.46722 120.366 3.46722 120.122 3.46722C 119.878 3.46722 119.635 3.46722 119.391 3.46722C 119.147 3.46722 118.904 3.46722 118.661 3.46722C 118.418 3.46722 118.174 3.46722 117.931 3.46722C 117.688 3.46722 117.445 3.46722 117.203 3.46722C 116.96 3.46722 116.717 3.46722 116.474 3.46722C 116.232 3.46722 115.989 3.46722 115.747 3.46722C 115.505 3.46722 115.263 3.46722 115.021 3.46722C 114.779 3.46722 114.537 3.46722 114.295 3.46722C 114.053 3.46722 113.812 3.46722 113.57 3.46722C 113.329 3.46722 113.087 3.46722 112.846 3.46722C 112.605 3.46722 112.364 3.46722 112.123 3.46722C 111.882 3.46722 111.641 3.46722 111.401 3.46722C 111.16 3.46722 110.92 3.46722 110.679 3.46722C 110.439 3.46722 110.199 3.46722 109.959 3.46722C 109.719 3.46722 109.479 3.46722 109.239 3.46722C 109 3.46722 108.76 3.46722 108.521 3.46722C 108.282 3.46722 108.042 3.46722 107.803 3.46722C 107.564 3.46722 107.326 3.46722 107.087 3.46722C 106.848 3.46722 106.61 3.46722 106.371 3.46722C 106.133 3.46722 105.895 3.46722 105.657 3.46722C 105.419 3.46722 105.181 3.46722 104.944 3.46722C 104.706 3.46722 104.469 3.46722 104.231 3.46722C 103.994 3.46722 103.757 3.46722 103.52 3.46722C 103.283 3.46722 103.047 3.46722 102.81 3.46722C 102.574 3.46722 102.338 3.46722 102.102 3.46722C 101.865 3.46722 101.63 3.46722 101.394 3.46722C 101.158 3.46722 100.923 3.46722 100.687 3.46722C 100.452 3.46722 100.217 3.46722 99.9823 3.46722C 99.7474 3.46722 99.5128 3.46722 99.2783 3.46722C 99.0439 3.46722 98.8097 3.46722 98.5757 3.46722C 98.3417 3.46722 98.1079 3.46722 97.8743 3.46722C 97.6407 3.46722 97.4073 3.46722 97.1742 3.46722C 96.9411 3.46722 96.7081 3.46722 96.4755 3.46722C 96.2428 3.46722 96.0103 3.46722 95.7781 3.46722C 95.5458 3.46722 95.3138 3.46722 95.082 3.46722C 94.8503 3.46722 94.6187 3.46722 94.3874 3.46722C 94.1561 3.46722 93.925 3.46722 93.6942 3.46722C 93.4634 3.46722 93.2328 3.46722 93.0024 3.46722C 92.7721 3.46722 92.542 3.46722 92.3121 3.46722C 92.0823 3.46722 91.8526 3.46722 91.6233 3.46722C 91.3939 3.46722 91.1648 3.46722 90.9359 3.46722C 90.7071 3.46722 90.4785 3.46722 90.2501 3.46722C 90.0218 3.46722 89.7937 3.46722 89.5659 3.46722C 89.338 3.46722 89.1105 3.46722 88.8831 3.46722C 88.6558 3.46722 88.4288 3.46722 88.202 3.46722C 87.9752 3.46722 87.7487 3.46722 87.5225 3.46722C 87.2963 3.46722 87.0703 3.46722 86.8446 3.46722C 86.6189 3.46722 86.3935 3.46722 86.1684 3.46722C 85.9432 3.46722 85.7184 3.46722 85.4938 3.46722C 85.2692 3.46722 85.0449 3.46722 84.8209 3.46722C 84.5969 3.46722 84.3732 3.46722 84.1497 3.46722C 83.9263 3.46722 83.7031 3.46722 83.4803 3.46722C 83.2574 3.46722 83.0349 3.46722 82.8126 3.46722C 82.5903 3.46722 82.3683 3.46722 82.1467 3.46722C 81.925 3.46722 81.7036 3.46722 81.4826 3.46722C 81.2615 3.46722 81.0407 3.46722 80.8203 3.46722C 80.5998 3.46722 80.3796 3.46722 80.1598 3.46722C 79.9399 3.46722 79.7204 3.46722 79.5012 3.46722C 79.282 3.46722 79.063 3.46722 78.8445 3.46722C 78.6259 3.46722 78.4076 3.46722 78.1896 3.46722C 77.9717 3.46722 77.754 3.46722 77.5367 3.46722C 77.3194 3.46722 77.1024 3.46722 76.8858 3.46722C 76.6691 3.46722 76.4528 3.46722 76.2368 3.46722C 76.0208 3.46722 75.8051 3.46722 75.5898 3.46722C 75.3744 3.46722 75.1594 3.46722 74.9448 3.46722C 74.7301 3.46722 74.5158 3.46722 74.3018 3.46722C 74.0878 3.46722 73.8741 3.46722 73.6608 3.46722C 73.4476 3.46722 73.2346 3.46722 73.022 3.46722C 72.8094 3.46722 72.5971 3.46722 72.3852 3.46722C 72.1733 3.46722 71.9618 3.46722 71.7506 3.46722C 71.5394 3.46722 71.3285 3.46722 71.118 3.46722C 70.9076 3.46722 70.6974 3.46722 70.4877 3.46722C 70.2779 3.46722 70.0685 3.46722 69.8595 3.46722C 69.6505 3.46722 69.4418 3.46722 69.2335 3.46722C 69.0252 3.46722 68.8173 3.46722 68.6097 3.46722C 68.4022 3.46722 68.195 3.46722 67.9882 3.46722C 67.7814 3.46722 67.5749 3.46722 67.3689 3.46722C 67.1628 3.46722 66.9572 3.46722 66.7519 3.46722C 66.5466 3.46722 66.3417 3.46722 66.1372 3.46722C 65.9327 3.46722 65.7286 3.46722 65.5248 3.46722C 65.3211 3.46722 65.1177 3.46722 64.9148 3.46722C 64.7118 3.46722 64.5093 3.46722 64.3071 3.46722C 64.105 3.46722 63.9032 3.46722 63.7018 3.46722C 63.5005 3.46722 63.2995 3.46722 63.099 3.46722C 62.8984 3.46722 62.6983 3.46722 62.4985 3.46722C 62.2988 3.46722 62.0995 3.46722 61.9005 3.46722C 61.7016 3.46722 61.5031 3.46722 61.305 3.46722C 61.1069 3.46722 60.9092 3.46722 60.712 3.46722C 60.5147 3.46722 60.3179 3.46722 60.1215 3.46722C 59.9251 3.46722 59.7291 3.46722 59.5335 3.46722C 59.3379 3.46722 59.1428 3.46722 58.9481 3.46722C 58.7533 3.46722 58.5591 3.46722 58.3652 3.46722C 58.1714 3.46722 57.9779 3.46722 57.785 3.46722C 57.592 3.46722 57.3994 3.46722 57.2073 3.46722C 57.0152 3.46722 56.8235 3.46722 56.6323 3.46722C 56.4411 3.46722 56.2503 3.46722 56.06 3.46722C 55.8696 3.46722 55.6798 3.46722 55.4903 3.46722C 55.3009 3.46722 55.1119 3.46722 54.9234 3.46722C 54.7348 3.46722 54.5468 3.46722 54.3591 3.46722C 54.1715 3.46722 53.9844 3.46722 53.7977 3.46722C 53.611 3.46722 53.4247 3.46722 53.2389 3.46722C 53.0532 3.46722 52.8679 3.46722 52.683 3.46722C 52.4982 3.46722 52.3138 3.46722 52.1299 3.46722C 51.946 3.46722 51.7626 3.46722 51.5796 3.46722C 51.3966 3.46722 51.2142 3.46722 51.0322 3.46722C 50.8502 3.46722 50.6686 3.46722 50.4876 3.46722C 50.3066 3.46722 50.126 3.46722 49.9459 3.46722C 49.7658 3.46722 49.5863 3.46722 49.4072 3.46722C 49.2281 3.46722 49.0494 3.46722 48.8713 3.46722C 48.6932 3.46722 48.5156 3.46722 48.3385 3.46722C 48.1613 3.46722 47.9847 3.46722 47.8086 3.46722C 47.6324 3.46722 47.4568 3.46722 47.2817 3.46722C 47.1065 3.46722 46.9319 3.46722 46.7578 3.46722C 46.5837 3.46722 46.4101 3.46722 46.237 3.46722C 46.0638 3.46722 45.8913 3.46722 45.7192 3.46722C 45.5471 3.46722 45.3755 3.46722 45.2045 3.46722C 45.0334 3.46722 44.8629 3.46722 44.6929 3.46722C 44.5229 3.46722 44.3534 3.46722 44.1844 3.46722C 44.0155 3.46722 43.847 3.46722 43.6791 3.46722C 43.5112 3.46722 43.3438 3.46722 43.177 3.46722C 43.0101 3.46722 42.8438 3.46722 42.678 3.46722C 42.5122 3.46722 42.347 3.46722 42.1822 3.46722C 42.0175 3.46722 41.8534 3.46722 41.6897 3.46722C 41.5261 3.46722 41.363 3.46722 41.2005 3.46722C 41.0379 3.46722 40.8759 3.46722 40.7145 3.46722C 40.553 3.46722 40.3921 3.46722 40.2317 3.46722C 40.0714 3.46722 39.9116 3.46722 39.7524 3.46722C 39.5931 3.46722 39.4344 3.46722 39.2763 3.46722C 39.1182 3.46722 38.9606 3.46722 38.8036 3.46722C 38.6466 3.46722 38.4902 3.46722 38.3343 3.46722C 38.1784 3.46722 38.0231 3.46722 37.8684 3.46722C 37.7136 3.46722 37.5595 3.46722 37.4059 3.46722C 37.2523 3.46722 37.0992 3.46722 36.9468 3.46722C 36.7944 3.46722 36.6425 3.46722 36.4912 3.46722C 36.3399 3.46722 36.1892 3.46722 36.0391 3.46722C 35.889 3.46722 35.7394 3.46722 35.5905 3.46722C 35.4415 3.46722 35.2932 3.46722 35.1454 3.46722C 34.9976 3.46722 34.8505 3.46722 34.7039 3.46722C 34.5573 3.46722 34.4113 3.46722 34.2659 3.46722C 34.1205 3.46722 33.9757 3.46722 33.8315 3.46722C 33.6873 3.46722 33.5437 3.46722 33.4007 3.46722C 33.2578 3.46722 33.1154 3.46722 32.9736 3.46722C 32.8318 3.46722 32.6907 3.46722 32.5501 3.46722C 32.4096 3.46722 32.2696 3.46722 32.1303 3.46722C 31.991 3.46722 31.8523 3.46722 31.7142 3.46722C 31.5761 3.46722 31.4386 3.46722 31.3018 3.46722C 31.165 3.46722 31.0287 3.46722 30.8931 3.46722C 30.7575 3.46722 30.6226 3.46722 30.4882 3.46722C 30.3539 3.46722 30.2202 3.46722 30.0871 3.46722C 29.954 3.46722 29.8216 3.46722 29.6898 3.46722C 29.558 3.46722 29.4268 3.46722 29.2963 3.46722C 29.1657 3.46722 29.0358 3.46722 28.9066 3.46722C 28.7774 3.46722 28.6488 3.46722 28.5208 3.46722C 28.3928 3.46722 28.2655 3.46722 28.1389 3.46722C 28.0122 3.46722 27.8862 3.46722 27.7609 3.46722C 27.6355 3.46722 27.5108 3.46722 27.3868 3.46722C 27.2627 3.46722 27.1394 3.46722 27.0166 3.46722C 26.8939 3.46722 26.7719 3.46722 26.6505 3.46722C 26.5291 3.46722 26.4084 3.46722 26.2883 3.46722C 26.1682 3.46722 26.0489 3.46722 25.9301 3.46722C 25.8114 3.46722 25.6934 3.46722 25.576 3.46722C 25.4586 3.46722 25.3419 3.46722 25.2259 3.46722C 25.1099 3.46722 24.9946 3.46722 24.8799 3.46722C 24.7653 3.46722 24.6513 3.46722 24.538 3.46722C 24.4247 3.46722 24.3121 3.46722 24.2002 3.46722C 24.0883 3.46722 23.9771 3.46722 23.8666 3.46722C 23.756 3.46722 23.6462 3.46722 23.5371 3.46722C 23.4279 3.46722 23.3195 3.46722 23.2117 3.46722C 23.104 3.46722 22.997 3.46722 22.8906 3.46722C 22.7843 3.46722 22.6786 3.46722 22.5737 3.46722C 22.4688 3.46722 22.3646 3.46722 22.2611 3.46722C 22.1576 3.46722 22.0548 3.46722 21.9527 3.46722C 21.8506 3.46722 21.7492 3.46722 21.6486 3.46722C 21.5479 3.46722 21.448 3.46722 21.3488 3.46722C 21.2496 3.46722 21.1511 3.46722 21.0533 3.46722C 20.9555 3.46722 20.8585 3.46722 20.7622 3.46722C 20.6659 3.46722 20.5703 3.46722 20.4754 3.46722C 20.3806 3.46722 20.2865 3.46722 20.1931 3.46722C 20.0997 3.46722 20.0071 3.46722 19.9151 3.46722C 19.8232 3.46722 19.7321 3.46722 19.6416 3.46722C 19.5512 3.46722 19.4615 3.46722 19.3726 3.46722C 19.2836 3.46722 19.1954 3.46722 19.108 3.46722C 19.0205 3.46722 18.9338 3.46722 18.8479 3.46722C 18.7619 3.46722 18.6768 3.46722 18.5923 3.46722C 18.5079 3.46722 18.4242 3.46722 18.3413 3.46722C 18.2584 3.46722 18.1762 3.46722 18.0948 3.46722C 18.0134 3.46722 17.9328 3.46722 17.8529 3.46722C 17.7731 3.46722 17.694 3.46722 17.6156 3.46722C 17.5373 3.46722 17.4598 3.46722 17.383 3.46722C 17.3062 3.46722 17.2302 3.46722 17.1549 3.46722C 17.0797 3.46722 17.0053 3.46722 16.9316 3.46722C 16.8579 3.46722 16.785 3.46722 16.7129 3.46722C 16.6408 3.46722 16.5695 3.46722 16.499 3.46722C 16.4284 3.46722 16.3587 3.46722 16.2897 3.46722C 16.2208 3.46722 16.1526 3.46722 16.0852 3.46722C 16.0179 3.46722 15.9513 3.46722 15.8855 3.46722C 15.8197 3.46722 15.7548 3.46722 15.6906 3.46722C 15.6264 3.46722 15.563 3.46722 15.5005 3.46722C 15.4379 3.46722 15.3762 3.46722 15.3152 3.46722C 15.2543 3.46722 15.1941 3.46722 15.1348 3.46722C 15.0755 3.46722 15.0169 3.46722 14.9592 3.46722C 14.9015 3.46722 14.8447 3.46722 14.7886 3.46722C 14.7325 3.46722 14.6773 3.46722 14.6229 3.46722C 14.5684 3.46722 14.5148 3.46722 14.4621 3.46722C 14.4093 3.46722 14.3574 3.46722 14.3062 3.46722C 14.2551 3.46722 14.2048 3.46722 14.1554 3.46722C 14.1059 3.46722 14.0573 3.46722 14.0096 3.46722C 13.9618 3.46722 13.9148 3.46722 13.8687 3.46722C 13.8226 3.46722 13.7774 3.46722 13.733 3.46722C 13.6885 3.46722 13.645 3.46722 13.6022 3.46722C 13.5595 3.46722 13.5176 3.46722 13.4766 3.46722C 13.4356 3.46722 13.3954 3.46722 13.3561 3.46722C 13.3168 3.46722 13.2783 3.46722 13.2407 3.46722C 13.2031 3.46722 13.1664 3.46722 13.1305 3.46722C 13.0946 3.46722 13.0596 3.46722 13.0254 3.46722C 12.9913 3.46722 12.958 3.46722 12.9256 3.46722C 12.8931 3.46722 12.8616 3.46722 12.8309 3.46722C 12.8002 3.46722 12.7704 3.46722 12.7415 3.46722C 12.7125 3.46722 12.6845 3.46722 12.6573 3.46722C 12.6301 3.46722 12.6038 3.46722 12.5784 3.46722C 12.553 3.46722 12.5285 3.46722 12.5048 3.46722C 12.4812 3.46722 12.4584 3.46722 12.4366 3.46722C 12.4147 3.46722 12.3937 3.46722 12.3736 3.46722C 12.3535 3.46722 12.3344 3.46722 12.3161 3.46722C 12.2978 3.46722 12.2804 3.46722 12.2639 3.46722C 12.2474 3.46722 12.2318 3.46722 12.2171 3.46722C 12.2024 3.46722 12.1886 3.46722 12.1757 3.46722C 12.1629 3.46722 12.1509 3.46722 12.1398 3.46722C 12.1288 3.46722 12.1186 3.46722 12.1094 3.46722C 12.1001 3.46722 12.0918 3.46722 12.0844 3.46722C 12.077 3.46722 12.0705 3.46722 12.065 3.46722C 12.0594 3.46722 12.0548 3.46722 12.0511 3.46722C 12.0473 3.46722 12.0446 3.46722 12.0427 3.46722C 12.0408 3.46722 12.0399 3.46722 12.0399 4.96722ZM 273.194 6.46722C 281.321 6.46722 284.92 8.61852 286.578 10.4417C 287.421 11.3694 287.84 12.2944 288.076 13.0048C 288.197 13.3681 288.269 13.6679 288.338 13.9401C 288.366 14.053 288.411 14.2317 288.468 14.3887C 288.496 14.4646 288.554 14.6146 288.657 14.7737C 288.738 14.8992 289.006 15.2868 289.548 15.4411L 290.37 12.5559C 290.882 12.7019 291.124 13.0641 291.178 13.1481C 291.254 13.2656 291.286 13.358 291.287 13.3615C 291.291 13.3734 291.282 13.3472 291.246 13.2041C 291.185 12.9641 291.085 12.5469 290.922 12.0572C 290.591 11.0618 289.991 9.73726 288.798 8.42385C 286.381 5.76475 281.832 3.46722 273.194 3.46722L 273.194 6.46722ZM 289.548 15.4411C 290.221 15.6327 290.749 15.328 290.999 15.1068C 291.211 14.918 291.326 14.7117 291.368 14.6348C 291.462 14.4604 291.532 14.2642 291.569 14.162C 291.667 13.8881 291.757 13.6104 291.91 13.2412C 292.203 12.5329 292.693 11.5868 293.599 10.628C 295.379 8.74529 299.021 6.55003 306.74 6.46713L 306.708 3.4673C 298.406 3.55646 293.899 5.94367 291.419 8.56704C 290.196 9.86125 289.528 11.149 289.137 12.0947C 288.948 12.5524 288.814 12.9568 288.745 13.1497C 288.698 13.281 288.698 13.2645 288.729 13.2072C 288.739 13.1888 288.824 13.0255 289.007 12.8629C 289.227 12.6679 289.727 12.3727 290.37 12.5559L 289.548 15.4411ZM 306.74 6.46713C 322.751 6.2952 545.185 6.44659 564.189 6.46722L 564.193 3.46722C 545.206 3.44661 322.742 3.29513 306.708 3.4673L 306.74 6.46713ZM 12.0185 3.46737C 8.62699 3.51585 6.24273 3.45438 4.56708 3.28857C 2.84229 3.1179 2.07265 2.85177 1.74153 2.64282C 1.61195 2.56105 1.58557 2.50983 1.5782 2.49622C 1.56347 2.46903 1.52957 2.39186 1.51183 2.19379C 1.49294 1.98272 1.49812 1.72008 1.51673 1.33013C 1.53403 0.96773 1.56272 0.497766 1.56271 -2.73897e-05L -1.43729 2.73897e-05C -1.43728 0.405366 -1.46014 0.774063 -1.47986 1.1871C -1.49825 1.57258 -1.51553 2.02216 -1.47621 2.46132C -1.43573 2.91348 -1.33074 3.42456 -1.05977 3.92489C -0.78145 4.4388 -0.375334 4.85437 0.140511 5.17989C 1.10024 5.78553 2.47316 6.09603 4.27167 6.27399C 6.11931 6.45682 8.63906 6.51598 12.0613 6.46706L 12.0185 3.46737ZM 564.189 6.46722C 568.994 6.47243 572.448 6.16184 574.929 5.67129C 577.385 5.18543 579.016 4.49893 580.05 3.65121C 581.156 2.74376 581.547 1.67031 581.496 0.700224C 581.472 0.257729 581.36 -0.106458 581.254 -0.361153C 581.201 -0.490033 581.147 -0.596371 581.101 -0.677337C 581.078 -0.718012 581.058 -0.752857 581.04 -0.781541C 581.031 -0.795903 581.022 -0.808777 581.015 -0.820124C 581.011 -0.8258 581.008 -0.8311 581.004 -0.836018C 581.003 -0.838478 581.001 -0.840843 581 -0.843113C 580.999 -0.844245 580.998 -0.845884 580.997 -0.846447C 580.996 -0.848053 580.995 -0.849639 579.759 0C 578.523 0.849639 578.522 0.848091 578.521 0.846561C 578.52 0.846074 578.519 0.844549 578.519 0.843569C 578.517 0.841602 578.516 0.839691 578.515 0.837836C 578.512 0.834125 578.51 0.830633 578.508 0.827354C 578.503 0.820802 578.5 0.815082 578.497 0.810157C 578.491 0.800346 578.487 0.793506 578.484 0.789358C 578.48 0.781446 578.481 0.782248 578.484 0.789715C 578.491 0.807711 578.498 0.833038 578.5 0.85783C 578.501 0.873653 578.501 0.902769 578.477 0.954985C 578.452 1.00969 578.376 1.14426 578.147 1.33147C 577.664 1.72813 576.589 2.28472 574.347 2.72829C 572.127 3.16716 568.886 3.47231 564.193 3.46722L 564.189 6.46722Z"/>
<path id="path6_fill" d="M 1.01855 8.10547L 1.59277 3.04688L 7.1709 3.04688L 7.1709 4.69434L 3.21289 4.69434L 2.9668 6.83398C 3.4362 6.58333 3.93522 6.45801 4.46387 6.45801C 5.41178 6.45801 6.15462 6.75195 6.69238 7.33984C 7.23014 7.92773 7.49902 8.75033 7.49902 9.80762C 7.49902 10.4502 7.3623 11.0267 7.08887 11.5371C 6.81999 12.043 6.43262 12.4372 5.92676 12.7197C 5.4209 12.9977 4.82389 13.1367 4.13574 13.1367C 3.53418 13.1367 2.97591 13.016 2.46094 12.7744C 1.94596 12.5283 1.53809 12.1842 1.2373 11.7422C 0.941081 11.3001 0.783854 10.7965 0.765625 10.2314L 2.7207 10.2314C 2.76172 10.6462 2.90527 10.9697 3.15137 11.2021C 3.40202 11.43 3.72786 11.5439 4.12891 11.5439C 4.57552 11.5439 4.9196 11.3844 5.16113 11.0654C 5.40267 10.7419 5.52344 10.2861 5.52344 9.69824C 5.52344 9.13314 5.38444 8.7002 5.10645 8.39941C 4.82845 8.09863 4.43424 7.94824 3.92383 7.94824C 3.45443 7.94824 3.07389 8.07129 2.78223 8.31738L 2.59082 8.49512L 1.01855 8.10547ZM 15.251 5.69238C 15.251 6.17546 15.1302 6.60384 14.8887 6.97754C 14.6471 7.35124 14.3145 7.64974 13.8906 7.87305C 14.3737 8.10547 14.7565 8.42676 15.0391 8.83691C 15.3216 9.24251 15.4629 9.72103 15.4629 10.2725C 15.4629 11.1566 15.1621 11.8561 14.5605 12.3711C 13.959 12.8815 13.141 13.1367 12.1064 13.1367C 11.0719 13.1367 10.2516 12.8792 9.64551 12.3643C 9.03939 11.8493 8.73633 11.152 8.73633 10.2725C 8.73633 9.72103 8.8776 9.24023 9.16016 8.83008C 9.44271 8.41992 9.82324 8.10091 10.3018 7.87305C 9.87793 7.64974 9.54525 7.35124 9.30371 6.97754C 9.06673 6.60384 8.94824 6.17546 8.94824 5.69238C 8.94824 4.84473 9.23079 4.17025 9.7959 3.66895C 10.361 3.16309 11.1289 2.91016 12.0996 2.91016C 13.0658 2.91016 13.8314 3.16081 14.3965 3.66211C 14.9661 4.15885 15.251 4.83561 15.251 5.69238ZM 13.4805 10.1289C 13.4805 9.69596 13.3551 9.34961 13.1045 9.08984C 12.8538 8.83008 12.5166 8.7002 12.0928 8.7002C 11.6735 8.7002 11.3385 8.83008 11.0879 9.08984C 10.8372 9.34505 10.7119 9.69141 10.7119 10.1289C 10.7119 10.5527 10.835 10.8945 11.0811 11.1543C 11.3271 11.4141 11.6689 11.5439 12.1064 11.5439C 12.5348 11.5439 12.8698 11.4186 13.1113 11.168C 13.3574 10.9173 13.4805 10.571 13.4805 10.1289ZM 13.2754 5.78809C 13.2754 5.40072 13.1729 5.09082 12.9678 4.8584C 12.7627 4.62142 12.4733 4.50293 12.0996 4.50293C 11.7305 4.50293 11.4434 4.61686 11.2383 4.84473C 11.0332 5.07259 10.9307 5.38704 10.9307 5.78809C 10.9307 6.18457 11.0332 6.50358 11.2383 6.74512C 11.4434 6.98665 11.7327 7.10742 12.1064 7.10742C 12.4801 7.10742 12.7673 6.98665 12.9678 6.74512C 13.1729 6.50358 13.2754 6.18457 13.2754 5.78809ZM 23.0576 10.0332L 22.3467 10.7441L 22.3467 13L 20.3711 13L 20.3711 2.5L 22.3467 2.5L 22.3467 8.31738L 22.7295 7.8252L 24.623 5.60352L 26.9951 5.60352L 24.3223 8.68652L 27.2275 13L 24.958 13L 23.0576 10.0332ZM 27.4258 9.24707C 27.4258 8.1123 27.6947 7.19857 28.2324 6.50586C 28.7747 5.81315 29.5039 5.4668 30.4199 5.4668C 31.2311 5.4668 31.8623 5.74479 32.3135 6.30078L 32.3955 5.60352L 34.1865 5.60352L 34.1865 12.7539C 34.1865 13.401 34.0384 13.9639 33.7422 14.4424C 33.4505 14.9209 33.0381 15.2855 32.5049 15.5361C 31.9717 15.7868 31.3473 15.9121 30.6318 15.9121C 30.0895 15.9121 29.5609 15.8027 29.0459 15.584C 28.5309 15.3698 28.1413 15.0918 27.877 14.75L 28.752 13.5469C 29.2441 14.0983 29.8411 14.374 30.543 14.374C 31.0671 14.374 31.4749 14.2327 31.7666 13.9502C 32.0583 13.6722 32.2041 13.2757 32.2041 12.7607L 32.2041 12.3643C 31.7484 12.8792 31.1491 13.1367 30.4062 13.1367C 29.5176 13.1367 28.7975 12.7904 28.2461 12.0977C 27.6992 11.4004 27.4258 10.4775 27.4258 9.3291L 27.4258 9.24707ZM 29.4014 9.39062C 29.4014 10.0605 29.5358 10.5869 29.8047 10.9697C 30.0736 11.348 30.4427 11.5371 30.9121 11.5371C 31.5137 11.5371 31.9443 11.3115 32.2041 10.8604L 32.2041 7.75C 31.9398 7.29883 31.5137 7.07324 30.9258 7.07324C 30.4518 7.07324 30.0781 7.26693 29.8047 7.6543C 29.5358 8.04167 29.4014 8.62044 29.4014 9.39062Z"/>
<path id="path7_stroke" d="M 0.309428 12.9771C 11.3297 4.29487 19.8605 0.348287 28.371 0.504454C 36.894 0.660848 45.5121 4.93206 56.7079 12.9902L 57.2921 12.1786C 46.0694 4.10107 37.2371 -0.333025 28.3894 -0.495378C 19.5293 -0.657958 10.7693 3.46326 -0.309428 12.1916L 0.309428 12.9771Z"/>
<path id="path8_fill" d="M 1.39453 8.10547L 1.96875 3.04688L 7.54688 3.04688L 7.54688 4.69434L 3.58887 4.69434L 3.34277 6.83398C 3.81217 6.58333 4.3112 6.45801 4.83984 6.45801C 5.78776 6.45801 6.5306 6.75195 7.06836 7.33984C 7.60612 7.92773 7.875 8.75033 7.875 9.80762C 7.875 10.4502 7.73828 11.0267 7.46484 11.5371C 7.19596 12.043 6.80859 12.4372 6.30273 12.7197C 5.79688 12.9977 5.19987 13.1367 4.51172 13.1367C 3.91016 13.1367 3.35189 13.016 2.83691 12.7744C 2.32194 12.5283 1.91406 12.1842 1.61328 11.7422C 1.31706 11.3001 1.15983 10.7965 1.1416 10.2314L 3.09668 10.2314C 3.1377 10.6462 3.28125 10.9697 3.52734 11.2021C 3.77799 11.43 4.10384 11.5439 4.50488 11.5439C 4.9515 11.5439 5.29557 11.3844 5.53711 11.0654C 5.77865 10.7419 5.89941 10.2861 5.89941 9.69824C 5.89941 9.13314 5.76042 8.7002 5.48242 8.39941C 5.20443 8.09863 4.81022 7.94824 4.2998 7.94824C 3.8304 7.94824 3.44987 8.07129 3.1582 8.31738L 2.9668 8.49512L 1.39453 8.10547ZM 9.32422 12.0293C 9.32422 11.7148 9.42904 11.4596 9.63867 11.2637C 9.85286 11.0677 10.1195 10.9697 10.4385 10.9697C 10.762 10.9697 11.0286 11.0677 11.2383 11.2637C 11.4525 11.4596 11.5596 11.7148 11.5596 12.0293C 11.5596 12.3392 11.4548 12.5921 11.2451 12.7881C 11.0355 12.9795 10.7666 13.0752 10.4385 13.0752C 10.1149 13.0752 9.84831 12.9795 9.63867 12.7881C 9.42904 12.5921 9.32422 12.3392 9.32422 12.0293ZM 19.7012 5.69238C 19.7012 6.17546 19.5804 6.60384 19.3389 6.97754C 19.0973 7.35124 18.7646 7.64974 18.3408 7.87305C 18.8239 8.10547 19.2067 8.42676 19.4893 8.83691C 19.7718 9.24251 19.9131 9.72103 19.9131 10.2725C 19.9131 11.1566 19.6123 11.8561 19.0107 12.3711C 18.4092 12.8815 17.5911 13.1367 16.5566 13.1367C 15.5221 13.1367 14.7018 12.8792 14.0957 12.3643C 13.4896 11.8493 13.1865 11.152 13.1865 10.2725C 13.1865 9.72103 13.3278 9.24023 13.6104 8.83008C 13.8929 8.41992 14.2734 8.10091 14.752 7.87305C 14.3281 7.64974 13.9954 7.35124 13.7539 6.97754C 13.5169 6.60384 13.3984 6.17546 13.3984 5.69238C 13.3984 4.84473 13.681 4.17025 14.2461 3.66895C 14.8112 3.16309 15.5791 2.91016 16.5498 2.91016C 17.516 2.91016 18.2816 3.16081 18.8467 3.66211C 19.4163 4.15885 19.7012 4.83561 19.7012 5.69238ZM 17.9307 10.1289C 17.9307 9.69596 17.8053 9.34961 17.5547 9.08984C 17.304 8.83008 16.9668 8.7002 16.543 8.7002C 16.1237 8.7002 15.7887 8.83008 15.5381 9.08984C 15.2874 9.34505 15.1621 9.69141 15.1621 10.1289C 15.1621 10.5527 15.2852 10.8945 15.5312 11.1543C 15.7773 11.4141 16.1191 11.5439 16.5566 11.5439C 16.985 11.5439 17.32 11.4186 17.5615 11.168C 17.8076 10.9173 17.9307 10.571 17.9307 10.1289ZM 17.7256 5.78809C 17.7256 5.40072 17.623 5.09082 17.418 4.8584C 17.2129 4.62142 16.9235 4.50293 16.5498 4.50293C 16.1807 4.50293 15.8936 4.61686 15.6885 4.84473C 15.4834 5.07259 15.3809 5.38704 15.3809 5.78809C 15.3809 6.18457 15.4834 6.50358 15.6885 6.74512C 15.8936 6.98665 16.1829 7.10742 16.5566 7.10742C 16.9303 7.10742 17.2174 6.98665 17.418 6.74512C 17.623 6.50358 17.7256 6.18457 17.7256 5.78809Z"/>
<path id="path9_fill" d="M 6.44043 2.94434L 6.44043 4.57129L 6.24902 4.57129C 5.35579 4.58496 4.63574 4.81738 4.08887 5.26855C 3.54655 5.71973 3.2207 6.34635 3.11133 7.14844C 3.63997 6.61068 4.30762 6.3418 5.11426 6.3418C 5.98014 6.3418 6.66829 6.65169 7.17871 7.27148C 7.68913 7.89128 7.94434 8.70703 7.94434 9.71875C 7.94434 10.3659 7.80306 10.9515 7.52051 11.4756C 7.24251 11.9997 6.84603 12.4076 6.33105 12.6992C 5.82064 12.9909 5.24186 13.1367 4.59473 13.1367C 3.54655 13.1367 2.69889 12.7721 2.05176 12.043C 1.40918 11.3138 1.08789 10.3408 1.08789 9.12402L 1.08789 8.41309C 1.08789 7.33301 1.29069 6.38053 1.69629 5.55566C 2.10645 4.72624 2.69206 4.08594 3.45312 3.63477C 4.21875 3.17904 5.10514 2.94889 6.1123 2.94434L 6.44043 2.94434ZM 4.5127 7.92773C 4.19368 7.92773 3.9043 8.01204 3.64453 8.18066C 3.38477 8.34473 3.19336 8.56348 3.07031 8.83691L 3.07031 9.43848C 3.07031 10.0993 3.2002 10.6165 3.45996 10.9902C 3.71973 11.3594 4.08431 11.5439 4.55371 11.5439C 4.97754 11.5439 5.31934 11.3776 5.5791 11.0449C 5.84342 10.7077 5.97559 10.2725 5.97559 9.73926C 5.97559 9.19694 5.84342 8.75944 5.5791 8.42676C 5.31478 8.09408 4.95931 7.92773 4.5127 7.92773ZM 15.8193 8.88477C 15.8193 10.2611 15.5345 11.3138 14.9648 12.043C 14.3952 12.7721 13.5612 13.1367 12.4629 13.1367C 11.3783 13.1367 10.5488 12.779 9.97461 12.0635C 9.40039 11.348 9.10645 10.3226 9.09277 8.9873L 9.09277 7.15527C 9.09277 5.7653 9.37988 4.71029 9.9541 3.99023C 10.5329 3.27018 11.3646 2.91016 12.4492 2.91016C 13.5339 2.91016 14.3633 3.2679 14.9375 3.9834C 15.5117 4.69434 15.8057 5.71745 15.8193 7.05273L 15.8193 8.88477ZM 13.8438 6.875C 13.8438 6.05013 13.7298 5.45085 13.502 5.07715C 13.2786 4.69889 12.9277 4.50977 12.4492 4.50977C 11.9844 4.50977 11.6403 4.68978 11.417 5.0498C 11.1982 5.40527 11.082 5.96354 11.0684 6.72461L 11.0684 9.14453C 11.0684 9.95573 11.1777 10.5596 11.3965 10.9561C 11.6198 11.348 11.9753 11.5439 12.4629 11.5439C 12.946 11.5439 13.2946 11.3548 13.5088 10.9766C 13.723 10.5983 13.8346 10.0195 13.8438 9.24023L 13.8438 6.875ZM 17.3438 12.0293C 17.3438 11.7148 17.4486 11.4596 17.6582 11.2637C 17.8724 11.0677 18.139 10.9697 18.458 10.9697C 18.7816 10.9697 19.0482 11.0677 19.2578 11.2637C 19.472 11.4596 19.5791 11.7148 19.5791 12.0293C 19.5791 12.3392 19.4743 12.5921 19.2646 12.7881C 19.055 12.9795 18.7861 13.0752 18.458 13.0752C 18.1344 13.0752 17.8678 12.9795 17.6582 12.7881C 17.4486 12.5921 17.3438 12.3392 17.3438 12.0293ZM 27.7207 5.69238C 27.7207 6.17546 27.5999 6.60384 27.3584 6.97754C 27.1169 7.35124 26.7842 7.64974 26.3604 7.87305C 26.8434 8.10547 27.2262 8.42676 27.5088 8.83691C 27.7913 9.24251 27.9326 9.72103 27.9326 10.2725C 27.9326 11.1566 27.6318 11.8561 27.0303 12.3711C 26.4287 12.8815 25.6107 13.1367 24.5762 13.1367C 23.5417 13.1367 22.7214 12.8792 22.1152 12.3643C 21.5091 11.8493 21.2061 11.152 21.2061 10.2725C 21.2061 9.72103 21.3473 9.24023 21.6299 8.83008C 21.9124 8.41992 22.293 8.10091 22.7715 7.87305C 22.3477 7.64974 22.015 7.35124 21.7734 6.97754C 21.5365 6.60384 21.418 6.17546 21.418 5.69238C 21.418 4.84473 21.7005 4.17025 22.2656 3.66895C 22.8307 3.16309 23.5986 2.91016 24.5693 2.91016C 25.5355 2.91016 26.3011 3.16081 26.8662 3.66211C 27.4359 4.15885 27.7207 4.83561 27.7207 5.69238ZM 25.9502 10.1289C 25.9502 9.69596 25.8249 9.34961 25.5742 9.08984C 25.3236 8.83008 24.9863 8.7002 24.5625 8.7002C 24.1432 8.7002 23.8083 8.83008 23.5576 9.08984C 23.307 9.34505 23.1816 9.69141 23.1816 10.1289C 23.1816 10.5527 23.3047 10.8945 23.5508 11.1543C 23.7969 11.4141 24.1387 11.5439 24.5762 11.5439C 25.0046 11.5439 25.3395 11.4186 25.5811 11.168C 25.8271 10.9173 25.9502 10.571 25.9502 10.1289ZM 25.7451 5.78809C 25.7451 5.40072 25.6426 5.09082 25.4375 4.8584C 25.2324 4.62142 24.943 4.50293 24.5693 4.50293C 24.2002 4.50293 23.9131 4.61686 23.708 4.84473C 23.5029 5.07259 23.4004 5.38704 23.4004 5.78809C 23.4004 6.18457 23.5029 6.50358 23.708 6.74512C 23.9131 6.98665 24.2025 7.10742 24.5762 7.10742C 24.9499 7.10742 25.237 6.98665 25.4375 6.74512C 25.6426 6.50358 25.7451 6.18457 25.7451 5.78809Z"/>
<path id="path10_fill" d="M 6.44043 2.94434L 6.44043 4.57129L 6.24902 4.57129C 5.35579 4.58496 4.63574 4.81738 4.08887 5.26855C 3.54655 5.71973 3.2207 6.34635 3.11133 7.14844C 3.63997 6.61068 4.30762 6.3418 5.11426 6.3418C 5.98014 6.3418 6.66829 6.65169 7.17871 7.27148C 7.68913 7.89128 7.94434 8.70703 7.94434 9.71875C 7.94434 10.3659 7.80306 10.9515 7.52051 11.4756C 7.24251 11.9997 6.84603 12.4076 6.33105 12.6992C 5.82064 12.9909 5.24186 13.1367 4.59473 13.1367C 3.54655 13.1367 2.69889 12.7721 2.05176 12.043C 1.40918 11.3138 1.08789 10.3408 1.08789 9.12402L 1.08789 8.41309C 1.08789 7.33301 1.29069 6.38053 1.69629 5.55566C 2.10645 4.72624 2.69206 4.08594 3.45312 3.63477C 4.21875 3.17904 5.10514 2.94889 6.1123 2.94434L 6.44043 2.94434ZM 4.5127 7.92773C 4.19368 7.92773 3.9043 8.01204 3.64453 8.18066C 3.38477 8.34473 3.19336 8.56348 3.07031 8.83691L 3.07031 9.43848C 3.07031 10.0993 3.2002 10.6165 3.45996 10.9902C 3.71973 11.3594 4.08431 11.5439 4.55371 11.5439C 4.97754 11.5439 5.31934 11.3776 5.5791 11.0449C 5.84342 10.7077 5.97559 10.2725 5.97559 9.73926C 5.97559 9.19694 5.84342 8.75944 5.5791 8.42676C 5.31478 8.09408 4.95931 7.92773 4.5127 7.92773ZM 14.4795 2.94434L 14.4795 4.57129L 14.2881 4.57129C 13.3949 4.58496 12.6748 4.81738 12.1279 5.26855C 11.5856 5.71973 11.2598 6.34635 11.1504 7.14844C 11.679 6.61068 12.3467 6.3418 13.1533 6.3418C 14.0192 6.3418 14.7074 6.65169 15.2178 7.27148C 15.7282 7.89128 15.9834 8.70703 15.9834 9.71875C 15.9834 10.3659 15.8421 10.9515 15.5596 11.4756C 15.2816 11.9997 14.8851 12.4076 14.3701 12.6992C 13.8597 12.9909 13.2809 13.1367 12.6338 13.1367C 11.5856 13.1367 10.738 12.7721 10.0908 12.043C 9.44824 11.3138 9.12695 10.3408 9.12695 9.12402L 9.12695 8.41309C 9.12695 7.33301 9.32975 6.38053 9.73535 5.55566C 10.1455 4.72624 10.7311 4.08594 11.4922 3.63477C 12.2578 3.17904 13.1442 2.94889 14.1514 2.94434L 14.4795 2.94434ZM 12.5518 7.92773C 12.2327 7.92773 11.9434 8.01204 11.6836 8.18066C 11.4238 8.34473 11.2324 8.56348 11.1094 8.83691L 11.1094 9.43848C 11.1094 10.0993 11.2393 10.6165 11.499 10.9902C 11.7588 11.3594 12.1234 11.5439 12.5928 11.5439C 13.0166 11.5439 13.3584 11.3776 13.6182 11.0449C 13.8825 10.7077 14.0146 10.2725 14.0146 9.73926C 14.0146 9.19694 13.8825 8.75944 13.6182 8.42676C 13.3538 8.09408 12.9984 7.92773 12.5518 7.92773ZM 17.3438 12.0293C 17.3438 11.7148 17.4486 11.4596 17.6582 11.2637C 17.8724 11.0677 18.139 10.9697 18.458 10.9697C 18.7816 10.9697 19.0482 11.0677 19.2578 11.2637C 19.472 11.4596 19.5791 11.7148 19.5791 12.0293C 19.5791 12.3392 19.4743 12.5921 19.2646 12.7881C 19.055 12.9795 18.7861 13.0752 18.458 13.0752C 18.1344 13.0752 17.8678 12.9795 17.6582 12.7881C 17.4486 12.5921 17.3438 12.3392 17.3438 12.0293ZM 26.5928 2.94434L 26.5928 4.57129L 26.4014 4.57129C 25.5081 4.58496 24.7881 4.81738 24.2412 5.26855C 23.6989 5.71973 23.373 6.34635 23.2637 7.14844C 23.7923 6.61068 24.46 6.3418 25.2666 6.3418C 26.1325 6.3418 26.8206 6.65169 27.3311 7.27148C 27.8415 7.89128 28.0967 8.70703 28.0967 9.71875C 28.0967 10.3659 27.9554 10.9515 27.6729 11.4756C 27.3949 11.9997 26.9984 12.4076 26.4834 12.6992C 25.973 12.9909 25.3942 13.1367 24.7471 13.1367C 23.6989 13.1367 22.8512 12.7721 22.2041 12.043C 21.5615 11.3138 21.2402 10.3408 21.2402 9.12402L 21.2402 8.41309C 21.2402 7.33301 21.443 6.38053 21.8486 5.55566C 22.2588 4.72624 22.8444 4.08594 23.6055 3.63477C 24.3711 3.17904 25.2575 2.94889 26.2646 2.94434L 26.5928 2.94434ZM 24.665 7.92773C 24.346 7.92773 24.0566 8.01204 23.7969 8.18066C 23.5371 8.34473 23.3457 8.56348 23.2227 8.83691L 23.2227 9.43848C 23.2227 10.0993 23.3525 10.6165 23.6123 10.9902C 23.8721 11.3594 24.2367 11.5439 24.7061 11.5439C 25.1299 11.5439 25.4717 11.3776 25.7314 11.0449C 25.9958 10.7077 26.1279 10.2725 26.1279 9.73926C 26.1279 9.19694 25.9958 8.75944 25.7314 8.42676C 25.4671 8.09408 25.1117 7.92773 24.665 7.92773Z"/>
<path id="path11_fill" d="M 7.84863 4.1543L 4 13L 1.91504 13L 5.77051 4.64648L 0.821289 4.64648L 0.821289 3.04688L 7.84863 3.04688L 7.84863 4.1543ZM 15.9424 13L 9.12012 13L 9.12012 11.6465L 12.3398 8.21484C 12.7819 7.73177 13.1077 7.31022 13.3174 6.9502C 13.5316 6.59017 13.6387 6.24837 13.6387 5.9248C 13.6387 5.48275 13.527 5.13639 13.3037 4.88574C 13.0804 4.63053 12.7614 4.50293 12.3467 4.50293C 11.9001 4.50293 11.5469 4.65788 11.2871 4.96777C 11.0319 5.27311 10.9043 5.67643 10.9043 6.17773L 8.92188 6.17773C 8.92188 5.57161 9.06543 5.0179 9.35254 4.5166C 9.64421 4.0153 10.0544 3.62337 10.583 3.34082C 11.1117 3.05371 11.7109 2.91016 12.3809 2.91016C 13.4062 2.91016 14.2015 3.15625 14.7666 3.64844C 15.3363 4.14062 15.6211 4.83561 15.6211 5.7334C 15.6211 6.22559 15.4935 6.72689 15.2383 7.2373C 14.9831 7.74772 14.5456 8.34245 13.9258 9.02148L 11.6631 11.4072L 15.9424 11.4072L 15.9424 13ZM 17.3438 12.0293C 17.3438 11.7148 17.4486 11.4596 17.6582 11.2637C 17.8724 11.0677 18.139 10.9697 18.458 10.9697C 18.7816 10.9697 19.0482 11.0677 19.2578 11.2637C 19.472 11.4596 19.5791 11.7148 19.5791 12.0293C 19.5791 12.3392 19.4743 12.5921 19.2646 12.7881C 19.055 12.9795 18.7861 13.0752 18.458 13.0752C 18.1344 13.0752 17.8678 12.9795 17.6582 12.7881C 17.4486 12.5921 17.3438 12.3392 17.3438 12.0293ZM 27.0781 9.25391L 28.2061 9.25391L 28.2061 10.8467L 27.0781 10.8467L 27.0781 13L 25.1025 13L 25.1025 10.8467L 21.0215 10.8467L 20.9326 9.60254L 25.082 3.04688L 27.0781 3.04688L 27.0781 9.25391ZM 22.9014 9.25391L 25.1025 9.25391L 25.1025 5.74023L 24.9727 5.96582L 22.9014 9.25391Z"/>
<path id="path12_fill" d="M 7.84863 4.1543L 4 13L 1.91504 13L 5.77051 4.64648L 0.821289 4.64648L 0.821289 3.04688L 7.84863 3.04688L 7.84863 4.1543ZM 15.6074 5.69238C 15.6074 6.17546 15.4867 6.60384 15.2451 6.97754C 15.0036 7.35124 14.6709 7.64974 14.2471 7.87305C 14.7301 8.10547 15.113 8.42676 15.3955 8.83691C 15.6781 9.24251 15.8193 9.72103 15.8193 10.2725C 15.8193 11.1566 15.5186 11.8561 14.917 12.3711C 14.3154 12.8815 13.4974 13.1367 12.4629 13.1367C 11.4284 13.1367 10.6081 12.8792 10.002 12.3643C 9.39583 11.8493 9.09277 11.152 9.09277 10.2725C 9.09277 9.72103 9.23405 9.24023 9.5166 8.83008C 9.79915 8.41992 10.1797 8.10091 10.6582 7.87305C 10.2344 7.64974 9.90169 7.35124 9.66016 6.97754C 9.42318 6.60384 9.30469 6.17546 9.30469 5.69238C 9.30469 4.84473 9.58724 4.17025 10.1523 3.66895C 10.7174 3.16309 11.4854 2.91016 12.4561 2.91016C 13.4222 2.91016 14.1878 3.16081 14.7529 3.66211C 15.3226 4.15885 15.6074 4.83561 15.6074 5.69238ZM 13.8369 10.1289C 13.8369 9.69596 13.7116 9.34961 13.4609 9.08984C 13.2103 8.83008 12.873 8.7002 12.4492 8.7002C 12.0299 8.7002 11.695 8.83008 11.4443 9.08984C 11.1937 9.34505 11.0684 9.69141 11.0684 10.1289C 11.0684 10.5527 11.1914 10.8945 11.4375 11.1543C 11.6836 11.4141 12.0254 11.5439 12.4629 11.5439C 12.8913 11.5439 13.2262 11.4186 13.4678 11.168C 13.7139 10.9173 13.8369 10.571 13.8369 10.1289ZM 13.6318 5.78809C 13.6318 5.40072 13.5293 5.09082 13.3242 4.8584C 13.1191 4.62142 12.8298 4.50293 12.4561 4.50293C 12.0869 4.50293 11.7998 4.61686 11.5947 4.84473C 11.3896 5.07259 11.2871 5.38704 11.2871 5.78809C 11.2871 6.18457 11.3896 6.50358 11.5947 6.74512C 11.7998 6.98665 12.0892 7.10742 12.4629 7.10742C 12.8366 7.10742 13.1237 6.98665 13.3242 6.74512C 13.5293 6.50358 13.6318 6.18457 13.6318 5.78809ZM 17.3438 12.0293C 17.3438 11.7148 17.4486 11.4596 17.6582 11.2637C 17.8724 11.0677 18.139 10.9697 18.458 10.9697C 18.7816 10.9697 19.0482 11.0677 19.2578 11.2637C 19.472 11.4596 19.5791 11.7148 19.5791 12.0293C 19.5791 12.3392 19.4743 12.5921 19.2646 12.7881C 19.055 12.9795 18.7861 13.0752 18.458 13.0752C 18.1344 13.0752 17.8678 12.9795 17.6582 12.7881C 17.4486 12.5921 17.3438 12.3392 17.3438 12.0293ZM 28.0557 13L 21.2334 13L 21.2334 11.6465L 24.4531 8.21484C 24.8952 7.73177 25.221 7.31022 25.4307 6.9502C 25.6449 6.59017 25.752 6.24837 25.752 5.9248C 25.752 5.48275 25.6403 5.13639 25.417 4.88574C 25.1937 4.63053 24.8747 4.50293 24.46 4.50293C 24.0133 4.50293 23.6602 4.65788 23.4004 4.96777C 23.1452 5.27311 23.0176 5.67643 23.0176 6.17773L 21.0352 6.17773C 21.0352 5.57161 21.1787 5.0179 21.4658 4.5166C 21.7575 4.0153 22.1676 3.62337 22.6963 3.34082C 23.2249 3.05371 23.8242 2.91016 24.4941 2.91016C 25.5195 2.91016 26.3148 3.15625 26.8799 3.64844C 27.4495 4.14062 27.7344 4.83561 27.7344 5.7334C 27.7344 6.22559 27.6068 6.72689 27.3516 7.2373C 27.0964 7.74772 26.6589 8.34245 26.0391 9.02148L 23.7764 11.4072L 28.0557 11.4072L 28.0557 13Z"/>
<path id="path13_fill" d="M 7.56836 5.69238C 7.56836 6.17546 7.44759 6.60384 7.20605 6.97754C 6.96452 7.35124 6.63184 7.64974 6.20801 7.87305C 6.69108 8.10547 7.07389 8.42676 7.35645 8.83691C 7.639 9.24251 7.78027 9.72103 7.78027 10.2725C 7.78027 11.1566 7.47949 11.8561 6.87793 12.3711C 6.27637 12.8815 5.45833 13.1367 4.42383 13.1367C 3.38932 13.1367 2.56901 12.8792 1.96289 12.3643C 1.35677 11.8493 1.05371 11.152 1.05371 10.2725C 1.05371 9.72103 1.19499 9.24023 1.47754 8.83008C 1.76009 8.41992 2.14062 8.10091 2.61914 7.87305C 2.19531 7.64974 1.86263 7.35124 1.62109 6.97754C 1.38411 6.60384 1.26562 6.17546 1.26562 5.69238C 1.26562 4.84473 1.54818 4.17025 2.11328 3.66895C 2.67839 3.16309 3.44629 2.91016 4.41699 2.91016C 5.38314 2.91016 6.14876 3.16081 6.71387 3.66211C 7.28353 4.15885 7.56836 4.83561 7.56836 5.69238ZM 5.79785 10.1289C 5.79785 9.69596 5.67253 9.34961 5.42188 9.08984C 5.17122 8.83008 4.83398 8.7002 4.41016 8.7002C 3.99089 8.7002 3.65592 8.83008 3.40527 9.08984C 3.15462 9.34505 3.0293 9.69141 3.0293 10.1289C 3.0293 10.5527 3.15234 10.8945 3.39844 11.1543C 3.64453 11.4141 3.98633 11.5439 4.42383 11.5439C 4.85221 11.5439 5.18717 11.4186 5.42871 11.168C 5.6748 10.9173 5.79785 10.571 5.79785 10.1289ZM 5.59277 5.78809C 5.59277 5.40072 5.49023 5.09082 5.28516 4.8584C 5.08008 4.62142 4.79069 4.50293 4.41699 4.50293C 4.04785 4.50293 3.76074 4.61686 3.55566 4.84473C 3.35059 5.07259 3.24805 5.38704 3.24805 5.78809C 3.24805 6.18457 3.35059 6.50358 3.55566 6.74512C 3.76074 6.98665 4.05013 7.10742 4.42383 7.10742C 4.79753 7.10742 5.08464 6.98665 5.28516 6.74512C 5.49023 6.50358 5.59277 6.18457 5.59277 5.78809ZM 14.9648 9.25391L 16.0928 9.25391L 16.0928 10.8467L 14.9648 10.8467L 14.9648 13L 12.9893 13L 12.9893 10.8467L 8.9082 10.8467L 8.81934 9.60254L 12.9688 3.04688L 14.9648 3.04688L 14.9648 9.25391ZM 10.7881 9.25391L 12.9893 9.25391L 12.9893 5.74023L 12.8594 5.96582L 10.7881 9.25391ZM 17.3438 12.0293C 17.3438 11.7148 17.4486 11.4596 17.6582 11.2637C 17.8724 11.0677 18.139 10.9697 18.458 10.9697C 18.7816 10.9697 19.0482 11.0677 19.2578 11.2637C 19.472 11.4596 19.5791 11.7148 19.5791 12.0293C 19.5791 12.3392 19.4743 12.5921 19.2646 12.7881C 19.055 12.9795 18.7861 13.0752 18.458 13.0752C 18.1344 13.0752 17.8678 12.9795 17.6582 12.7881C 17.4486 12.5921 17.3438 12.3392 17.3438 12.0293ZM 27.9326 8.88477C 27.9326 10.2611 27.6478 11.3138 27.0781 12.043C 26.5085 12.7721 25.6745 13.1367 24.5762 13.1367C 23.4915 13.1367 22.6621 12.779 22.0879 12.0635C 21.5137 11.348 21.2197 10.3226 21.2061 8.9873L 21.2061 7.15527C 21.2061 5.7653 21.4932 4.71029 22.0674 3.99023C 22.6462 3.27018 23.4779 2.91016 24.5625 2.91016C 25.6471 2.91016 26.4766 3.2679 27.0508 3.9834C 27.625 4.69434 27.9189 5.71745 27.9326 7.05273L 27.9326 8.88477ZM 25.957 6.875C 25.957 6.05013 25.8431 5.45085 25.6152 5.07715C 25.3919 4.69889 25.041 4.50977 24.5625 4.50977C 24.0977 4.50977 23.7536 4.68978 23.5303 5.0498C 23.3115 5.40527 23.1953 5.96354 23.1816 6.72461L 23.1816 9.14453C 23.1816 9.95573 23.291 10.5596 23.5098 10.9561C 23.7331 11.348 24.0885 11.5439 24.5762 11.5439C 25.0592 11.5439 25.4079 11.3548 25.6221 10.9766C 25.8363 10.5983 25.9479 10.0195 25.957 9.24023L 25.957 6.875Z"/>
<path id="path14_fill" d="M 7.56836 5.69238C 7.56836 6.17546 7.44759 6.60384 7.20605 6.97754C 6.96452 7.35124 6.63184 7.64974 6.20801 7.87305C 6.69108 8.10547 7.07389 8.42676 7.35645 8.83691C 7.639 9.24251 7.78027 9.72103 7.78027 10.2725C 7.78027 11.1566 7.47949 11.8561 6.87793 12.3711C 6.27637 12.8815 5.45833 13.1367 4.42383 13.1367C 3.38932 13.1367 2.56901 12.8792 1.96289 12.3643C 1.35677 11.8493 1.05371 11.152 1.05371 10.2725C 1.05371 9.72103 1.19499 9.24023 1.47754 8.83008C 1.76009 8.41992 2.14062 8.10091 2.61914 7.87305C 2.19531 7.64974 1.86263 7.35124 1.62109 6.97754C 1.38411 6.60384 1.26562 6.17546 1.26562 5.69238C 1.26562 4.84473 1.54818 4.17025 2.11328 3.66895C 2.67839 3.16309 3.44629 2.91016 4.41699 2.91016C 5.38314 2.91016 6.14876 3.16081 6.71387 3.66211C 7.28353 4.15885 7.56836 4.83561 7.56836 5.69238ZM 5.79785 10.1289C 5.79785 9.69596 5.67253 9.34961 5.42188 9.08984C 5.17122 8.83008 4.83398 8.7002 4.41016 8.7002C 3.99089 8.7002 3.65592 8.83008 3.40527 9.08984C 3.15462 9.34505 3.0293 9.69141 3.0293 10.1289C 3.0293 10.5527 3.15234 10.8945 3.39844 11.1543C 3.64453 11.4141 3.98633 11.5439 4.42383 11.5439C 4.85221 11.5439 5.18717 11.4186 5.42871 11.168C 5.6748 10.9173 5.79785 10.571 5.79785 10.1289ZM 5.59277 5.78809C 5.59277 5.40072 5.49023 5.09082 5.28516 4.8584C 5.08008 4.62142 4.79069 4.50293 4.41699 4.50293C 4.04785 4.50293 3.76074 4.61686 3.55566 4.84473C 3.35059 5.07259 3.24805 5.38704 3.24805 5.78809C 3.24805 6.18457 3.35059 6.50358 3.55566 6.74512C 3.76074 6.98665 4.05013 7.10742 4.42383 7.10742C 4.79753 7.10742 5.08464 6.98665 5.28516 6.74512C 5.49023 6.50358 5.59277 6.18457 5.59277 5.78809ZM 13.7412 9.02148C 13.2262 9.52734 12.6247 9.78027 11.9365 9.78027C 11.057 9.78027 10.3529 9.47949 9.82422 8.87793C 9.29557 8.27181 9.03125 7.45605 9.03125 6.43066C 9.03125 5.77897 9.17253 5.18197 9.45508 4.63965C 9.74219 4.09277 10.141 3.66895 10.6514 3.36816C 11.1618 3.06283 11.736 2.91016 12.374 2.91016C 13.0303 2.91016 13.6136 3.07422 14.124 3.40234C 14.6344 3.73047 15.0309 4.20215 15.3135 4.81738C 15.596 5.43262 15.7396 6.13672 15.7441 6.92969L 15.7441 7.66113C 15.7441 9.31999 15.3317 10.6234 14.5068 11.5713C 13.682 12.5192 12.513 13.0251 11 13.0889L 10.5146 13.0957L 10.5146 11.4482L 10.9521 11.4414C 12.6702 11.3639 13.5999 10.5573 13.7412 9.02148ZM 12.4219 8.26953C 12.7409 8.26953 13.0143 8.1875 13.2422 8.02344C 13.4746 7.85938 13.6501 7.66113 13.7686 7.42871L 13.7686 6.61523C 13.7686 5.94531 13.641 5.42578 13.3857 5.05664C 13.1305 4.6875 12.7887 4.50293 12.3604 4.50293C 11.9639 4.50293 11.638 4.68522 11.3828 5.0498C 11.1276 5.40983 11 5.86328 11 6.41016C 11 6.95247 11.123 7.39909 11.3691 7.75C 11.6198 8.09635 11.9707 8.26953 12.4219 8.26953ZM 17.3438 12.0293C 17.3438 11.7148 17.4486 11.4596 17.6582 11.2637C 17.8724 11.0677 18.139 10.9697 18.458 10.9697C 18.7816 10.9697 19.0482 11.0677 19.2578 11.2637C 19.472 11.4596 19.5791 11.7148 19.5791 12.0293C 19.5791 12.3392 19.4743 12.5921 19.2646 12.7881C 19.055 12.9795 18.7861 13.0752 18.458 13.0752C 18.1344 13.0752 17.8678 12.9795 17.6582 12.7881C 17.4486 12.5921 17.3438 12.3392 17.3438 12.0293ZM 27.7207 5.69238C 27.7207 6.17546 27.5999 6.60384 27.3584 6.97754C 27.1169 7.35124 26.7842 7.64974 26.3604 7.87305C 26.8434 8.10547 27.2262 8.42676 27.5088 8.83691C 27.7913 9.24251 27.9326 9.72103 27.9326 10.2725C 27.9326 11.1566 27.6318 11.8561 27.0303 12.3711C 26.4287 12.8815 25.6107 13.1367 24.5762 13.1367C 23.5417 13.1367 22.7214 12.8792 22.1152 12.3643C 21.5091 11.8493 21.2061 11.152 21.2061 10.2725C 21.2061 9.72103 21.3473 9.24023 21.6299 8.83008C 21.9124 8.41992 22.293 8.10091 22.7715 7.87305C 22.3477 7.64974 22.015 7.35124 21.7734 6.97754C 21.5365 6.60384 21.418 6.17546 21.418 5.69238C 21.418 4.84473 21.7005 4.17025 22.2656 3.66895C 22.8307 3.16309 23.5986 2.91016 24.5693 2.91016C 25.5355 2.91016 26.3011 3.16081 26.8662 3.66211C 27.4359 4.15885 27.7207 4.83561 27.7207 5.69238ZM 25.9502 10.1289C 25.9502 9.69596 25.8249 9.34961 25.5742 9.08984C 25.3236 8.83008 24.9863 8.7002 24.5625 8.7002C 24.1432 8.7002 23.8083 8.83008 23.5576 9.08984C 23.307 9.34505 23.1816 9.69141 23.1816 10.1289C 23.1816 10.5527 23.3047 10.8945 23.5508 11.1543C 23.7969 11.4141 24.1387 11.5439 24.5762 11.5439C 25.0046 11.5439 25.3395 11.4186 25.5811 11.168C 25.8271 10.9173 25.9502 10.571 25.9502 10.1289ZM 25.7451 5.78809C 25.7451 5.40072 25.6426 5.09082 25.4375 4.8584C 25.2324 4.62142 24.943 4.50293 24.5693 4.50293C 24.2002 4.50293 23.9131 4.61686 23.708 4.84473C 23.5029 5.07259 23.4004 5.38704 23.4004 5.78809C 23.4004 6.18457 23.5029 6.50358 23.708 6.74512C 23.9131 6.98665 24.2025 7.10742 24.5762 7.10742C 24.9499 7.10742 25.237 6.98665 25.4375 6.74512C 25.6426 6.50358 25.7451 6.18457 25.7451 5.78809Z"/>
<path id="path15_fill" d="M 5.70215 9.02148C 5.18717 9.52734 4.58561 9.78027 3.89746 9.78027C 3.0179 9.78027 2.3138 9.47949 1.78516 8.87793C 1.25651 8.27181 0.992188 7.45605 0.992188 6.43066C 0.992188 5.77897 1.13346 5.18197 1.41602 4.63965C 1.70312 4.09277 2.10189 3.66895 2.6123 3.36816C 3.12272 3.06283 3.69694 2.91016 4.33496 2.91016C 4.99121 2.91016 5.57454 3.07422 6.08496 3.40234C 6.59538 3.73047 6.99186 4.20215 7.27441 4.81738C 7.55697 5.43262 7.70052 6.13672 7.70508 6.92969L 7.70508 7.66113C 7.70508 9.31999 7.29264 10.6234 6.46777 11.5713C 5.6429 12.5192 4.47396 13.0251 2.96094 13.0889L 2.47559 13.0957L 2.47559 11.4482L 2.91309 11.4414C 4.63118 11.3639 5.56087 10.5573 5.70215 9.02148ZM 4.38281 8.26953C 4.70182 8.26953 4.97526 8.1875 5.20312 8.02344C 5.43555 7.85938 5.611 7.66113 5.72949 7.42871L 5.72949 6.61523C 5.72949 5.94531 5.60189 5.42578 5.34668 5.05664C 5.09147 4.6875 4.74967 4.50293 4.32129 4.50293C 3.9248 4.50293 3.59896 4.68522 3.34375 5.0498C 3.08854 5.40983 2.96094 5.86328 2.96094 6.41016C 2.96094 6.95247 3.08398 7.39909 3.33008 7.75C 3.58073 8.09635 3.93164 8.26953 4.38281 8.26953ZM 9.41406 8.10547L 9.98828 3.04688L 15.5664 3.04688L 15.5664 4.69434L 11.6084 4.69434L 11.3623 6.83398C 11.8317 6.58333 12.3307 6.45801 12.8594 6.45801C 13.8073 6.45801 14.5501 6.75195 15.0879 7.33984C 15.6257 7.92773 15.8945 8.75033 15.8945 9.80762C 15.8945 10.4502 15.7578 11.0267 15.4844 11.5371C 15.2155 12.043 14.8281 12.4372 14.3223 12.7197C 13.8164 12.9977 13.2194 13.1367 12.5312 13.1367C 11.9297 13.1367 11.3714 13.016 10.8564 12.7744C 10.3415 12.5283 9.93359 12.1842 9.63281 11.7422C 9.33659 11.3001 9.17936 10.7965 9.16113 10.2314L 11.1162 10.2314C 11.1572 10.6462 11.3008 10.9697 11.5469 11.2021C 11.7975 11.43 12.1234 11.5439 12.5244 11.5439C 12.971 11.5439 13.3151 11.3844 13.5566 11.0654C 13.7982 10.7419 13.9189 10.2861 13.9189 9.69824C 13.9189 9.13314 13.7799 8.7002 13.502 8.39941C 13.224 8.09863 12.8298 7.94824 12.3193 7.94824C 11.8499 7.94824 11.4694 8.07129 11.1777 8.31738L 10.9863 8.49512L 9.41406 8.10547ZM 17.3438 12.0293C 17.3438 11.7148 17.4486 11.4596 17.6582 11.2637C 17.8724 11.0677 18.139 10.9697 18.458 10.9697C 18.7816 10.9697 19.0482 11.0677 19.2578 11.2637C 19.472 11.4596 19.5791 11.7148 19.5791 12.0293C 19.5791 12.3392 19.4743 12.5921 19.2646 12.7881C 19.055 12.9795 18.7861 13.0752 18.458 13.0752C 18.1344 13.0752 17.8678 12.9795 17.6582 12.7881C 17.4486 12.5921 17.3438 12.3392 17.3438 12.0293ZM 26.5928 2.94434L 26.5928 4.57129L 26.4014 4.57129C 25.5081 4.58496 24.7881 4.81738 24.2412 5.26855C 23.6989 5.71973 23.373 6.34635 23.2637 7.14844C 23.7923 6.61068 24.46 6.3418 25.2666 6.3418C 26.1325 6.3418 26.8206 6.65169 27.3311 7.27148C 27.8415 7.89128 28.0967 8.70703 28.0967 9.71875C 28.0967 10.3659 27.9554 10.9515 27.6729 11.4756C 27.3949 11.9997 26.9984 12.4076 26.4834 12.6992C 25.973 12.9909 25.3942 13.1367 24.7471 13.1367C 23.6989 13.1367 22.8512 12.7721 22.2041 12.043C 21.5615 11.3138 21.2402 10.3408 21.2402 9.12402L 21.2402 8.41309C 21.2402 7.33301 21.443 6.38053 21.8486 5.55566C 22.2588 4.72624 22.8444 4.08594 23.6055 3.63477C 24.3711 3.17904 25.2575 2.94889 26.2646 2.94434L 26.5928 2.94434ZM 24.665 7.92773C 24.346 7.92773 24.0566 8.01204 23.7969 8.18066C 23.5371 8.34473 23.3457 8.56348 23.2227 8.83691L 23.2227 9.43848C 23.2227 10.0993 23.3525 10.6165 23.6123 10.9902C 23.8721 11.3594 24.2367 11.5439 24.7061 11.5439C 25.1299 11.5439 25.4717 11.3776 25.7314 11.0449C 25.9958 10.7077 26.1279 10.2725 26.1279 9.73926C 26.1279 9.19694 25.9958 8.75944 25.7314 8.42676C 25.4671 8.09408 25.1117 7.92773 24.665 7.92773Z"/>
<path id="path16_fill" d="M 5.86035 13L 3.88477 13L 3.88477 5.38477L 1.52637 6.11621L 1.52637 4.50977L 5.64844 3.0332L 5.86035 3.0332L 5.86035 13ZM 15.7998 8.88477C 15.7998 10.2611 15.515 11.3138 14.9453 12.043C 14.3757 12.7721 13.5417 13.1367 12.4434 13.1367C 11.3587 13.1367 10.5293 12.779 9.95508 12.0635C 9.38086 11.348 9.08691 10.3226 9.07324 8.9873L 9.07324 7.15527C 9.07324 5.7653 9.36035 4.71029 9.93457 3.99023C 10.5133 3.27018 11.3451 2.91016 12.4297 2.91016C 13.5143 2.91016 14.3438 3.2679 14.918 3.9834C 15.4922 4.69434 15.7861 5.71745 15.7998 7.05273L 15.7998 8.88477ZM 13.8242 6.875C 13.8242 6.05013 13.7103 5.45085 13.4824 5.07715C 13.2591 4.69889 12.9082 4.50977 12.4297 4.50977C 11.9648 4.50977 11.6208 4.68978 11.3975 5.0498C 11.1787 5.40527 11.0625 5.96354 11.0488 6.72461L 11.0488 9.14453C 11.0488 9.95573 11.1582 10.5596 11.377 10.9561C 11.6003 11.348 11.9557 11.5439 12.4434 11.5439C 12.9264 11.5439 13.2751 11.3548 13.4893 10.9766C 13.7035 10.5983 13.8151 10.0195 13.8242 9.24023L 13.8242 6.875ZM 21.9385 13L 19.9629 13L 19.9629 5.38477L 17.6045 6.11621L 17.6045 4.50977L 21.7266 3.0332L 21.9385 3.0332L 21.9385 13ZM 25.3633 12.0293C 25.3633 11.7148 25.4681 11.4596 25.6777 11.2637C 25.8919 11.0677 26.1585 10.9697 26.4775 10.9697C 26.8011 10.9697 27.0677 11.0677 27.2773 11.2637C 27.4915 11.4596 27.5986 11.7148 27.5986 12.0293C 27.5986 12.3392 27.4938 12.5921 27.2842 12.7881C 27.0745 12.9795 26.8057 13.0752 26.4775 13.0752C 26.154 13.0752 25.8874 12.9795 25.6777 12.7881C 25.4681 12.5921 25.3633 12.3392 25.3633 12.0293ZM 35.0977 9.25391L 36.2256 9.25391L 36.2256 10.8467L 35.0977 10.8467L 35.0977 13L 33.1221 13L 33.1221 10.8467L 29.041 10.8467L 28.9521 9.60254L 33.1016 3.04688L 35.0977 3.04688L 35.0977 9.25391ZM 30.9209 9.25391L 33.1221 9.25391L 33.1221 5.74023L 32.9922 5.96582L 30.9209 9.25391Z"/>
<path id="path17_fill" d="M 5.86035 13L 3.88477 13L 3.88477 5.38477L 1.52637 6.11621L 1.52637 4.50977L 5.64844 3.0332L 5.86035 3.0332L 5.86035 13ZM 15.7998 8.88477C 15.7998 10.2611 15.515 11.3138 14.9453 12.043C 14.3757 12.7721 13.5417 13.1367 12.4434 13.1367C 11.3587 13.1367 10.5293 12.779 9.95508 12.0635C 9.38086 11.348 9.08691 10.3226 9.07324 8.9873L 9.07324 7.15527C 9.07324 5.7653 9.36035 4.71029 9.93457 3.99023C 10.5133 3.27018 11.3451 2.91016 12.4297 2.91016C 13.5143 2.91016 14.3438 3.2679 14.918 3.9834C 15.4922 4.69434 15.7861 5.71745 15.7998 7.05273L 15.7998 8.88477ZM 13.8242 6.875C 13.8242 6.05013 13.7103 5.45085 13.4824 5.07715C 13.2591 4.69889 12.9082 4.50977 12.4297 4.50977C 11.9648 4.50977 11.6208 4.68978 11.3975 5.0498C 11.1787 5.40527 11.0625 5.96354 11.0488 6.72461L 11.0488 9.14453C 11.0488 9.95573 11.1582 10.5596 11.377 10.9561C 11.6003 11.348 11.9557 11.5439 12.4434 11.5439C 12.9264 11.5439 13.2751 11.3548 13.4893 10.9766C 13.7035 10.5983 13.8151 10.0195 13.8242 9.24023L 13.8242 6.875ZM 23.9072 4.1543L 20.0586 13L 17.9736 13L 21.8291 4.64648L 16.8799 4.64648L 16.8799 3.04688L 23.9072 3.04688L 23.9072 4.1543ZM 25.3633 12.0293C 25.3633 11.7148 25.4681 11.4596 25.6777 11.2637C 25.8919 11.0677 26.1585 10.9697 26.4775 10.9697C 26.8011 10.9697 27.0677 11.0677 27.2773 11.2637C 27.4915 11.4596 27.5986 11.7148 27.5986 12.0293C 27.5986 12.3392 27.4938 12.5921 27.2842 12.7881C 27.0745 12.9795 26.8057 13.0752 26.4775 13.0752C 26.154 13.0752 25.8874 12.9795 25.6777 12.7881C 25.4681 12.5921 25.3633 12.3392 25.3633 12.0293ZM 36.0752 13L 29.2529 13L 29.2529 11.6465L 32.4727 8.21484C 32.9147 7.73177 33.2406 7.31022 33.4502 6.9502C 33.6644 6.59017 33.7715 6.24837 33.7715 5.9248C 33.7715 5.48275 33.6598 5.13639 33.4365 4.88574C 33.2132 4.63053 32.8942 4.50293 32.4795 4.50293C 32.0329 4.50293 31.6797 4.65788 31.4199 4.96777C 31.1647 5.27311 31.0371 5.67643 31.0371 6.17773L 29.0547 6.17773C 29.0547 5.57161 29.1982 5.0179 29.4854 4.5166C 29.777 4.0153 30.1872 3.62337 30.7158 3.34082C 31.2445 3.05371 31.8438 2.91016 32.5137 2.91016C 33.5391 2.91016 34.3343 3.15625 34.8994 3.64844C 35.4691 4.14062 35.7539 4.83561 35.7539 5.7334C 35.7539 6.22559 35.6263 6.72689 35.3711 7.2373C 35.1159 7.74772 34.6784 8.34245 34.0586 9.02148L 31.7959 11.4072L 36.0752 11.4072L 36.0752 13Z"/>
</defs>
</svg>
