<svg width="228" height="237" viewBox="0 0 228 237" fill="none" xmlns="http://www.w3.org/2000/svg">
<rect width="228" height="237" fill="black"/>
<line y1="160.5" x2="228" y2="160.5" stroke="white"/>
<path d="M11.5004 181.68C10.9204 181.68 10.3854 181.565 9.8954 181.335C9.4154 181.095 9.0004 180.755 8.6504 180.315C8.3104 179.875 8.0454 179.34 7.8554 178.71C7.6654 178.08 7.5704 177.365 7.5704 176.565C7.5704 175.765 7.6654 175.055 7.8554 174.435C8.0454 173.805 8.3104 173.28 8.6504 172.86C9.0004 172.43 9.4154 172.105 9.8954 171.885C10.3854 171.655 10.9204 171.54 11.5004 171.54C12.0804 171.54 12.6104 171.655 13.0904 171.885C13.5804 172.105 13.9954 172.43 14.3354 172.86C14.6854 173.29 14.9554 173.82 15.1454 174.45C15.3354 175.07 15.4304 175.775 15.4304 176.565C15.4304 177.365 15.3354 178.08 15.1454 178.71C14.9554 179.34 14.6854 179.875 14.3354 180.315C13.9954 180.755 13.5804 181.095 13.0904 181.335C12.6104 181.565 12.0804 181.68 11.5004 181.68ZM11.5004 179.775C12.0104 179.775 12.4154 179.49 12.7154 178.92C13.0154 178.34 13.1654 177.555 13.1654 176.565C13.1654 175.585 13.0154 174.82 12.7154 174.27C12.4154 173.72 12.0104 173.445 11.5004 173.445C10.9904 173.445 10.5854 173.72 10.2854 174.27C9.9854 174.82 9.8354 175.585 9.8354 176.565C9.8354 177.555 9.9854 178.34 10.2854 178.92C10.5854 179.49 10.9904 179.775 11.5004 179.775ZM23.8695 181.5H22.0695L21.9045 180.435H21.8445C21.5145 180.815 21.1495 181.12 20.7495 181.35C20.3495 181.57 19.8795 181.68 19.3395 181.68C18.4895 181.68 17.8745 181.41 17.4945 180.87C17.1145 180.33 16.9245 179.59 16.9245 178.65V174.06H19.1295V178.365C19.1295 178.865 19.2045 179.23 19.3545 179.46C19.5045 179.69 19.7895 179.805 20.2095 179.805C20.4895 179.805 20.7345 179.745 20.9445 179.625C21.1645 179.505 21.4045 179.28 21.6645 178.95V174.06H23.8695V181.5ZM27.5987 175.785H25.7237V174.15L27.7037 174.06L27.9887 172.08H29.8037V174.06H32.9537V175.785H29.8037V178.395C29.8037 178.965 29.9287 179.37 30.1787 179.61C30.4287 179.84 30.8237 179.955 31.3637 179.955C31.6537 179.955 31.9187 179.93 32.1587 179.88C32.3987 179.83 32.6287 179.765 32.8487 179.685L33.2387 181.275C32.9087 181.375 32.5387 181.465 32.1287 181.545C31.7287 181.635 31.2887 181.68 30.8087 181.68C30.2187 181.68 29.7187 181.6 29.3087 181.44C28.8987 181.28 28.5637 181.06 28.3037 180.78C28.0537 180.49 27.8737 180.145 27.7637 179.745C27.6537 179.345 27.5987 178.9 27.5987 178.41V175.785ZM37.2678 182.085V184.26H35.0628V174.06H36.8628L37.0278 174.81H37.0728C37.3728 174.54 37.7178 174.32 38.1078 174.15C38.4978 173.97 38.8928 173.88 39.2928 173.88C39.7528 173.88 40.1678 173.97 40.5378 174.15C40.9078 174.33 41.2228 174.585 41.4828 174.915C41.7428 175.245 41.9378 175.645 42.0678 176.115C42.2078 176.575 42.2778 177.09 42.2778 177.66C42.2778 178.3 42.1878 178.87 42.0078 179.37C41.8278 179.86 41.5878 180.28 41.2878 180.63C40.9878 180.97 40.6428 181.23 40.2528 181.41C39.8728 181.59 39.4728 181.68 39.0528 181.68C38.3728 181.68 37.7528 181.41 37.1928 180.87L37.2678 182.085ZM37.2678 179.385C37.4778 179.565 37.6928 179.695 37.9128 179.775C38.1428 179.845 38.3528 179.88 38.5428 179.88C38.9628 179.88 39.3128 179.71 39.5928 179.37C39.8728 179.02 40.0128 178.46 40.0128 177.69C40.0128 176.35 39.5578 175.68 38.6478 175.68C38.1778 175.68 37.7178 175.91 37.2678 176.37V179.385ZM50.852 181.5H49.052L48.887 180.435H48.827C48.497 180.815 48.132 181.12 47.732 181.35C47.332 181.57 46.862 181.68 46.322 181.68C45.472 181.68 44.857 181.41 44.477 180.87C44.097 180.33 43.907 179.59 43.907 178.65V174.06H46.112V178.365C46.112 178.865 46.187 179.23 46.337 179.46C46.487 179.69 46.772 179.805 47.192 179.805C47.472 179.805 47.717 179.745 47.927 179.625C48.147 179.505 48.387 179.28 48.647 178.95V174.06H50.852V181.5ZM54.5811 175.785H52.7061V174.15L54.6861 174.06L54.9711 172.08H56.7861V174.06H59.9361V175.785H56.7861V178.395C56.7861 178.965 56.9111 179.37 57.1611 179.61C57.4111 179.84 57.8061 179.955 58.3461 179.955C58.6361 179.955 58.9011 179.93 59.1411 179.88C59.3811 179.83 59.6111 179.765 59.8311 179.685L60.2211 181.275C59.8911 181.375 59.5211 181.465 59.1111 181.545C58.7111 181.635 58.2711 181.68 57.7911 181.68C57.2011 181.68 56.7011 181.6 56.2911 181.44C55.8811 181.28 55.5461 181.06 55.2861 180.78C55.0361 180.49 54.8561 180.145 54.7461 179.745C54.6361 179.345 54.5811 178.9 54.5811 178.41V175.785Z" fill="white"/>
<path d="M10.015 195.38H14.44V196.55H11.695V207.11H14.44V208.28H10.015V195.38ZM24.0491 204.215V206H17.2241V204.215H19.6841V198.71H17.7191V197.345C18.2791 197.245 18.7541 197.125 19.1441 196.985C19.5441 196.845 19.9191 196.675 20.2691 196.475H21.8891V204.215H24.0491ZM27.7183 207.965C29.0183 207.515 29.6683 206.805 29.6683 205.835C29.6283 205.845 29.5733 205.85 29.5033 205.85C29.2933 205.85 29.0883 205.82 28.8883 205.76C28.6983 205.69 28.5283 205.59 28.3783 205.46C28.2283 205.33 28.1083 205.17 28.0183 204.98C27.9283 204.79 27.8833 204.57 27.8833 204.32C27.8833 203.85 28.0433 203.475 28.3633 203.195C28.6933 202.915 29.0933 202.775 29.5633 202.775C30.1833 202.775 30.6483 203.005 30.9583 203.465C31.2683 203.915 31.4233 204.545 31.4233 205.355C31.4233 206.315 31.1583 207.125 30.6283 207.785C30.0983 208.445 29.3133 208.935 28.2733 209.255L27.7183 207.965ZM43.8466 204.74C44.5266 204.17 45.1466 203.64 45.7066 203.15C46.2666 202.65 46.7466 202.185 47.1466 201.755C47.5466 201.325 47.8566 200.92 48.0766 200.54C48.2966 200.16 48.4066 199.8 48.4066 199.46C48.4066 198.99 48.2716 198.635 48.0016 198.395C47.7316 198.145 47.3466 198.02 46.8466 198.02C46.4666 198.02 46.1166 198.12 45.7966 198.32C45.4866 198.51 45.1966 198.735 44.9266 198.995L43.7416 197.81C43.9916 197.56 44.2366 197.34 44.4766 197.15C44.7266 196.96 44.9866 196.805 45.2566 196.685C45.5366 196.555 45.8266 196.46 46.1266 196.4C46.4366 196.33 46.7766 196.295 47.1466 196.295C47.6466 196.295 48.1016 196.37 48.5116 196.52C48.9216 196.66 49.2716 196.865 49.5616 197.135C49.8616 197.395 50.0916 197.71 50.2516 198.08C50.4216 198.45 50.5066 198.865 50.5066 199.325C50.5066 199.725 50.4116 200.135 50.2216 200.555C50.0316 200.965 49.7716 201.38 49.4416 201.8C49.1216 202.21 48.7516 202.625 48.3316 203.045C47.9116 203.455 47.4716 203.86 47.0116 204.26C47.2816 204.23 47.5716 204.205 47.8816 204.185C48.2016 204.155 48.4866 204.14 48.7366 204.14H51.0016V206H43.8466V204.74ZM54.7007 207.965C56.0007 207.515 56.6507 206.805 56.6507 205.835C56.6107 205.845 56.5557 205.85 56.4857 205.85C56.2757 205.85 56.0707 205.82 55.8707 205.76C55.6807 205.69 55.5107 205.59 55.3607 205.46C55.2107 205.33 55.0907 205.17 55.0007 204.98C54.9107 204.79 54.8657 204.57 54.8657 204.32C54.8657 203.85 55.0257 203.475 55.3457 203.195C55.6757 202.915 56.0757 202.775 56.5457 202.775C57.1657 202.775 57.6307 203.005 57.9407 203.465C58.2507 203.915 58.4057 204.545 58.4057 205.355C58.4057 206.315 58.1407 207.125 57.6107 207.785C57.0807 208.445 56.2957 208.935 55.2557 209.255L54.7007 207.965ZM71.609 203.435C71.929 203.715 72.284 203.945 72.674 204.125C73.074 204.305 73.494 204.395 73.934 204.395C74.454 204.395 74.879 204.3 75.209 204.11C75.549 203.91 75.719 203.63 75.719 203.27C75.719 203.06 75.674 202.87 75.584 202.7C75.494 202.53 75.339 202.39 75.119 202.28C74.899 202.16 74.604 202.07 74.234 202.01C73.864 201.94 73.399 201.905 72.839 201.905V200.345C73.779 200.345 74.439 200.23 74.819 200C75.209 199.76 75.404 199.45 75.404 199.07C75.404 198.74 75.279 198.485 75.029 198.305C74.779 198.115 74.434 198.02 73.994 198.02C73.614 198.02 73.264 198.095 72.944 198.245C72.624 198.395 72.299 198.6 71.969 198.86L70.859 197.51C71.329 197.13 71.829 196.835 72.359 196.625C72.899 196.405 73.479 196.295 74.099 196.295C74.619 196.295 75.094 196.355 75.524 196.475C75.954 196.585 76.324 196.755 76.634 196.985C76.944 197.205 77.184 197.475 77.354 197.795C77.524 198.115 77.609 198.485 77.609 198.905C77.609 199.405 77.449 199.83 77.129 200.18C76.809 200.52 76.364 200.8 75.794 201.02V201.08C76.394 201.24 76.899 201.515 77.309 201.905C77.719 202.285 77.924 202.785 77.924 203.405C77.924 203.845 77.819 204.24 77.609 204.59C77.409 204.93 77.134 205.22 76.784 205.46C76.444 205.69 76.044 205.87 75.584 206C75.124 206.12 74.644 206.18 74.144 206.18C73.324 206.18 72.619 206.06 72.029 205.82C71.439 205.57 70.959 205.24 70.589 204.83L71.609 203.435ZM83.2581 207.11V196.55H80.5281V195.38H84.9531V208.28H80.5281V207.11H83.2581ZM10.015 214.38H14.44V215.55H11.695V226.11H14.44V227.28H10.015V214.38ZM24.0491 223.215V225H17.2241V223.215H19.6841V217.71H17.7191V216.345C18.2791 216.245 18.7541 216.125 19.1441 215.985C19.5441 215.845 19.9191 215.675 20.2691 215.475H21.8891V223.215H24.0491ZM27.7183 226.965C29.0183 226.515 29.6683 225.805 29.6683 224.835C29.6283 224.845 29.5733 224.85 29.5033 224.85C29.2933 224.85 29.0883 224.82 28.8883 224.76C28.6983 224.69 28.5283 224.59 28.3783 224.46C28.2283 224.33 28.1083 224.17 28.0183 223.98C27.9283 223.79 27.8833 223.57 27.8833 223.32C27.8833 222.85 28.0433 222.475 28.3633 222.195C28.6933 221.915 29.0933 221.775 29.5633 221.775C30.1833 221.775 30.6483 222.005 30.9583 222.465C31.2683 222.915 31.4233 223.545 31.4233 224.355C31.4233 225.315 31.1583 226.125 30.6283 226.785C30.0983 227.445 29.3133 227.935 28.2733 228.255L27.7183 226.965ZM43.8466 223.74C44.5266 223.17 45.1466 222.64 45.7066 222.15C46.2666 221.65 46.7466 221.185 47.1466 220.755C47.5466 220.325 47.8566 219.92 48.0766 219.54C48.2966 219.16 48.4066 218.8 48.4066 218.46C48.4066 217.99 48.2716 217.635 48.0016 217.395C47.7316 217.145 47.3466 217.02 46.8466 217.02C46.4666 217.02 46.1166 217.12 45.7966 217.32C45.4866 217.51 45.1966 217.735 44.9266 217.995L43.7416 216.81C43.9916 216.56 44.2366 216.34 44.4766 216.15C44.7266 215.96 44.9866 215.805 45.2566 215.685C45.5366 215.555 45.8266 215.46 46.1266 215.4C46.4366 215.33 46.7766 215.295 47.1466 215.295C47.6466 215.295 48.1016 215.37 48.5116 215.52C48.9216 215.66 49.2716 215.865 49.5616 216.135C49.8616 216.395 50.0916 216.71 50.2516 217.08C50.4216 217.45 50.5066 217.865 50.5066 218.325C50.5066 218.725 50.4116 219.135 50.2216 219.555C50.0316 219.965 49.7716 220.38 49.4416 220.8C49.1216 221.21 48.7516 221.625 48.3316 222.045C47.9116 222.455 47.4716 222.86 47.0116 223.26C47.2816 223.23 47.5716 223.205 47.8816 223.185C48.2016 223.155 48.4866 223.14 48.7366 223.14H51.0016V225H43.8466V223.74ZM54.7007 226.965C56.0007 226.515 56.6507 225.805 56.6507 224.835C56.6107 224.845 56.5557 224.85 56.4857 224.85C56.2757 224.85 56.0707 224.82 55.8707 224.76C55.6807 224.69 55.5107 224.59 55.3607 224.46C55.2107 224.33 55.0907 224.17 55.0007 223.98C54.9107 223.79 54.8657 223.57 54.8657 223.32C54.8657 222.85 55.0257 222.475 55.3457 222.195C55.6757 221.915 56.0757 221.775 56.5457 221.775C57.1657 221.775 57.6307 222.005 57.9407 222.465C58.2507 222.915 58.4057 223.545 58.4057 224.355C58.4057 225.315 58.1407 226.125 57.6107 226.785C57.0807 227.445 56.2957 227.935 55.2557 228.255L54.7007 226.965ZM71.609 222.435C71.929 222.715 72.284 222.945 72.674 223.125C73.074 223.305 73.494 223.395 73.934 223.395C74.454 223.395 74.879 223.3 75.209 223.11C75.549 222.91 75.719 222.63 75.719 222.27C75.719 222.06 75.674 221.87 75.584 221.7C75.494 221.53 75.339 221.39 75.119 221.28C74.899 221.16 74.604 221.07 74.234 221.01C73.864 220.94 73.399 220.905 72.839 220.905V219.345C73.779 219.345 74.439 219.23 74.819 219C75.209 218.76 75.404 218.45 75.404 218.07C75.404 217.74 75.279 217.485 75.029 217.305C74.779 217.115 74.434 217.02 73.994 217.02C73.614 217.02 73.264 217.095 72.944 217.245C72.624 217.395 72.299 217.6 71.969 217.86L70.859 216.51C71.329 216.13 71.829 215.835 72.359 215.625C72.899 215.405 73.479 215.295 74.099 215.295C74.619 215.295 75.094 215.355 75.524 215.475C75.954 215.585 76.324 215.755 76.634 215.985C76.944 216.205 77.184 216.475 77.354 216.795C77.524 217.115 77.609 217.485 77.609 217.905C77.609 218.405 77.449 218.83 77.129 219.18C76.809 219.52 76.364 219.8 75.794 220.02V220.08C76.394 220.24 76.899 220.515 77.309 220.905C77.719 221.285 77.924 221.785 77.924 222.405C77.924 222.845 77.819 223.24 77.609 223.59C77.409 223.93 77.134 224.22 76.784 224.46C76.444 224.69 76.044 224.87 75.584 225C75.124 225.12 74.644 225.18 74.144 225.18C73.324 225.18 72.619 225.06 72.029 224.82C71.439 224.57 70.959 224.24 70.589 223.83L71.609 222.435ZM83.2581 226.11V215.55H80.5281V214.38H84.9531V227.28H80.5281V226.11H83.2581Z" fill="white"/>
<rect x="79" width="149" height="31" fill="#333333"/>
<rect x="79" width="149" height="31" fill="#333333"/>
<rect width="79" height="31" fill="#090808"/>
<path d="M12.105 17.8101C12.105 17.5513 11.9756 17.3486 11.7168 17.2021C11.4629 17.0508 11.0527 16.9165 10.4863 16.7993C8.60156 16.4038 7.65918 15.603 7.65918 14.397C7.65918 13.6938 7.94971 13.1079 8.53076 12.6392C9.1167 12.1655 9.88086 11.9287 10.8232 11.9287C11.8291 11.9287 12.6323 12.1655 13.2329 12.6392C13.8384 13.1128 14.1411 13.728 14.1411 14.4849H12.0244C12.0244 14.1821 11.9268 13.9331 11.7314 13.7378C11.5361 13.5376 11.231 13.4375 10.8159 13.4375C10.4595 13.4375 10.1836 13.5181 9.98828 13.6792C9.79297 13.8403 9.69531 14.0454 9.69531 14.2944C9.69531 14.5288 9.80518 14.7192 10.0249 14.8657C10.2495 15.0073 10.6255 15.1318 11.1528 15.2393C11.6802 15.3418 12.1245 15.459 12.4858 15.5908C13.604 16.001 14.1631 16.7114 14.1631 17.7222C14.1631 18.4448 13.853 19.0308 13.2329 19.48C12.6128 19.9243 11.812 20.1465 10.8306 20.1465C10.1665 20.1465 9.57568 20.0293 9.05811 19.7949C8.54541 19.5557 8.14258 19.231 7.84961 18.8208C7.55664 18.4058 7.41016 17.959 7.41016 17.4805H9.41699C9.43652 17.8564 9.57568 18.1445 9.83447 18.3447C10.0933 18.5449 10.4399 18.645 10.8745 18.645C11.2798 18.645 11.585 18.5693 11.79 18.418C12 18.2617 12.105 18.0591 12.105 17.8101ZM18.8286 18.4399C19.2192 18.4399 19.5366 18.3325 19.7808 18.1177C20.0249 17.9028 20.1519 17.6172 20.1616 17.2607H22.1465C22.1416 17.7979 21.9951 18.291 21.707 18.7402C21.4189 19.1846 21.0234 19.5312 20.5205 19.7803C20.0225 20.0244 19.4707 20.1465 18.8652 20.1465C17.7324 20.1465 16.8389 19.7876 16.1846 19.0698C15.5303 18.3472 15.2031 17.3511 15.2031 16.0815V15.9424C15.2031 14.7217 15.5278 13.7476 16.1772 13.02C16.8267 12.2925 17.7178 11.9287 18.8506 11.9287C19.8418 11.9287 20.6353 12.2119 21.231 12.7783C21.8315 13.3398 22.1367 14.0894 22.1465 15.0269H20.1616C20.1519 14.6167 20.0249 14.2847 19.7808 14.0308C19.5366 13.772 19.2144 13.6426 18.814 13.6426C18.3208 13.6426 17.9473 13.8232 17.6934 14.1846C17.4443 14.541 17.3198 15.1221 17.3198 15.9277V16.1475C17.3198 16.9629 17.4443 17.5488 17.6934 17.9053C17.9424 18.2617 18.3208 18.4399 18.8286 18.4399ZM27.8081 14.0601C27.52 14.021 27.2661 14.0015 27.0464 14.0015C26.2456 14.0015 25.7207 14.2725 25.4717 14.8145V20H23.355V12.0752H25.3545L25.4131 13.02C25.8379 12.2925 26.4263 11.9287 27.1782 11.9287C27.4126 11.9287 27.6323 11.9604 27.8374 12.0239L27.8081 14.0601ZM31.0674 20H28.9434V12.0752H31.0674V20ZM28.8188 10.0244C28.8188 9.70703 28.9238 9.4458 29.1338 9.24072C29.3486 9.03564 29.6392 8.93311 30.0054 8.93311C30.3667 8.93311 30.6548 9.03564 30.8696 9.24072C31.0845 9.4458 31.1919 9.70703 31.1919 10.0244C31.1919 10.3467 31.082 10.6104 30.8623 10.8154C30.6475 11.0205 30.3618 11.123 30.0054 11.123C29.6489 11.123 29.3608 11.0205 29.1411 10.8154C28.9263 10.6104 28.8188 10.3467 28.8188 10.0244ZM39.9517 16.1108C39.9517 17.3315 39.6733 18.3105 39.1167 19.0479C38.5649 19.7803 37.8179 20.1465 36.8755 20.1465C36.0747 20.1465 35.4277 19.8682 34.9346 19.3115V23.0469H32.8179V12.0752H34.7808L34.854 12.8516C35.3667 12.2363 36.0356 11.9287 36.8608 11.9287C37.8374 11.9287 38.5967 12.29 39.1387 13.0127C39.6807 13.7354 39.9517 14.7314 39.9517 16.001V16.1108ZM37.835 15.957C37.835 15.2197 37.7031 14.6509 37.4395 14.2505C37.1807 13.8501 36.8022 13.6499 36.3042 13.6499C35.6401 13.6499 35.1836 13.9038 34.9346 14.4116V17.6562C35.1934 18.1787 35.6548 18.4399 36.3188 18.4399C37.3296 18.4399 37.835 17.6123 37.835 15.957ZM43.8042 10.127V12.0752H45.1592V13.6279H43.8042V17.583C43.8042 17.876 43.8604 18.0859 43.9727 18.2129C44.085 18.3398 44.2998 18.4033 44.6172 18.4033C44.8516 18.4033 45.0591 18.3862 45.2397 18.3521V19.9561C44.8247 20.083 44.3975 20.1465 43.958 20.1465C42.4736 20.1465 41.7168 19.397 41.6875 17.8979V13.6279H40.5303V12.0752H41.6875V10.127H43.8042ZM46.4482 18.96C46.4482 18.623 46.5605 18.3496 46.7852 18.1396C47.0146 17.9297 47.3003 17.8247 47.6421 17.8247C47.9888 17.8247 48.2744 17.9297 48.499 18.1396C48.7285 18.3496 48.8433 18.623 48.8433 18.96C48.8433 19.292 48.731 19.563 48.5063 19.7729C48.2817 19.978 47.9937 20.0806 47.6421 20.0806C47.2954 20.0806 47.0098 19.978 46.7852 19.7729C46.5605 19.563 46.4482 19.292 46.4482 18.96ZM57.8374 16.1108C57.8374 17.3315 57.5591 18.3105 57.0024 19.0479C56.4507 19.7803 55.7036 20.1465 54.7612 20.1465C53.9604 20.1465 53.3135 19.8682 52.8203 19.3115V23.0469H50.7036V12.0752H52.6665L52.7397 12.8516C53.2524 12.2363 53.9214 11.9287 54.7466 11.9287C55.7231 11.9287 56.4824 12.29 57.0244 13.0127C57.5664 13.7354 57.8374 14.7314 57.8374 16.001V16.1108ZM55.7207 15.957C55.7207 15.2197 55.5889 14.6509 55.3252 14.2505C55.0664 13.8501 54.688 13.6499 54.1899 13.6499C53.5259 13.6499 53.0693 13.9038 52.8203 14.4116V17.6562C53.0791 18.1787 53.5405 18.4399 54.2046 18.4399C55.2153 18.4399 55.7207 17.6123 55.7207 15.957ZM62.0269 17.0044L63.4917 12.0752H65.7622L62.5762 21.2305L62.4004 21.6479C61.9268 22.6831 61.1455 23.2007 60.0566 23.2007C59.749 23.2007 59.4365 23.1543 59.1191 23.0615V21.4575L59.4414 21.4648C59.8418 21.4648 60.1396 21.4038 60.335 21.2817C60.5352 21.1597 60.6914 20.957 60.8037 20.6738L61.0527 20.022L58.2769 12.0752H60.5547L62.0269 17.0044Z" fill="white"/>
<path d="M7.93 40.485H12.295V48.18C12.295 48.41 12.325 48.605 12.385 48.765C12.455 48.915 12.545 49.04 12.655 49.14C12.775 49.23 12.905 49.295 13.045 49.335C13.195 49.375 13.345 49.395 13.495 49.395C13.665 49.395 13.845 49.38 14.035 49.35C14.225 49.31 14.435 49.245 14.665 49.155L15.16 50.775C14.96 50.835 14.775 50.89 14.605 50.94C14.435 50.99 14.265 51.03 14.095 51.06C13.925 51.1 13.745 51.13 13.555 51.15C13.365 51.17 13.155 51.18 12.925 51.18C11.985 51.18 11.275 50.905 10.795 50.355C10.325 49.795 10.09 49.04 10.09 48.09V42.225H7.93V40.485ZM17.1791 43.56H22.3691V51H20.1641V45.285H17.1791V43.56ZM21.1691 42.465C20.7391 42.465 20.3841 42.345 20.1041 42.105C19.8341 41.865 19.6991 41.54 19.6991 41.13C19.6991 40.72 19.8341 40.39 20.1041 40.14C20.3841 39.88 20.7391 39.75 21.1691 39.75C21.5991 39.75 21.9491 39.88 22.2191 40.14C22.4991 40.39 22.6391 40.72 22.6391 41.13C22.6391 41.54 22.4991 41.865 22.2191 42.105C21.9491 42.345 21.5991 42.465 21.1691 42.465ZM26.7733 48.66C27.2033 48.93 27.6333 49.145 28.0633 49.305C28.5033 49.465 28.9733 49.545 29.4733 49.545C29.9833 49.545 30.3483 49.49 30.5683 49.38C30.7883 49.27 30.8983 49.115 30.8983 48.915C30.8983 48.685 30.7133 48.5 30.3433 48.36C29.9833 48.21 29.5033 48.05 28.9033 47.88C28.5733 47.79 28.2483 47.685 27.9283 47.565C27.6183 47.435 27.3383 47.285 27.0883 47.115C26.8383 46.935 26.6333 46.73 26.4733 46.5C26.3233 46.27 26.2483 46.005 26.2483 45.705C26.2483 45.365 26.3283 45.05 26.4883 44.76C26.6483 44.47 26.8733 44.225 27.1633 44.025C27.4633 43.825 27.8233 43.67 28.2433 43.56C28.6733 43.44 29.1533 43.38 29.6833 43.38C30.3433 43.38 30.9433 43.49 31.4833 43.71C32.0333 43.92 32.5033 44.15 32.8933 44.4L31.9033 45.72C31.5633 45.52 31.2133 45.355 30.8533 45.225C30.4933 45.085 30.1183 45.015 29.7283 45.015C29.2583 45.015 28.9233 45.065 28.7233 45.165C28.5333 45.265 28.4383 45.41 28.4383 45.6C28.4383 45.71 28.4883 45.81 28.5883 45.9C28.6883 45.99 28.8233 46.07 28.9933 46.14C29.1633 46.21 29.3633 46.28 29.5933 46.35C29.8333 46.41 30.0833 46.475 30.3433 46.545C30.7133 46.645 31.0633 46.76 31.3933 46.89C31.7233 47.01 32.0133 47.155 32.2633 47.325C32.5133 47.495 32.7133 47.7 32.8633 47.94C33.0133 48.18 33.0883 48.46 33.0883 48.78C33.0883 49.12 33.0083 49.435 32.8483 49.725C32.6883 50.015 32.4533 50.27 32.1433 50.49C31.8433 50.7 31.4633 50.87 31.0033 51C30.5533 51.12 30.0283 51.18 29.4283 51.18C28.7583 51.18 28.1033 51.07 27.4633 50.85C26.8233 50.63 26.2633 50.36 25.7833 50.04L26.7733 48.66ZM36.5924 45.285H34.7174V43.65L36.6974 43.56L36.9824 41.58H38.7974V43.56H41.9474V45.285H38.7974V47.895C38.7974 48.465 38.9224 48.87 39.1724 49.11C39.4224 49.34 39.8174 49.455 40.3574 49.455C40.6474 49.455 40.9124 49.43 41.1524 49.38C41.3924 49.33 41.6224 49.265 41.8424 49.185L42.2324 50.775C41.9024 50.875 41.5324 50.965 41.1224 51.045C40.7224 51.135 40.2824 51.18 39.8024 51.18C39.2124 51.18 38.7124 51.1 38.3024 50.94C37.8924 50.78 37.5574 50.56 37.2974 50.28C37.0474 49.99 36.8674 49.645 36.7574 49.245C36.6474 48.845 36.5924 48.4 36.5924 47.91V45.285ZM51.0766 51.81V53.46H43.8766V51.81H51.0766ZM60.0257 49.215V51H53.2007V49.215H55.6607V43.71H53.6957V42.345C54.2557 42.245 54.7307 42.125 55.1207 41.985C55.5207 41.845 55.8957 41.675 56.2457 41.475H57.8657V49.215H60.0257ZM71.009 43.53H77.909V45.09H71.009V43.53ZM71.009 46.995H77.909V48.555H71.009V46.995ZM90.9623 40.38H95.3873V41.55H92.6423V52.11H95.3873V53.28H90.9623V40.38ZM108.666 52.965C109.966 52.515 110.616 51.805 110.616 50.835C110.576 50.845 110.521 50.85 110.451 50.85C110.241 50.85 110.036 50.82 109.836 50.76C109.646 50.69 109.476 50.59 109.326 50.46C109.176 50.33 109.056 50.17 108.966 49.98C108.876 49.79 108.831 49.57 108.831 49.32C108.831 48.85 108.991 48.475 109.311 48.195C109.641 47.915 110.041 47.775 110.511 47.775C111.131 47.775 111.596 48.005 111.906 48.465C112.216 48.915 112.371 49.545 112.371 50.355C112.371 51.315 112.106 52.125 111.576 52.785C111.046 53.445 110.261 53.935 109.221 54.255L108.666 52.965ZM137.223 52.11V41.55H134.493V40.38H138.918V53.28H134.493V52.11H137.223ZM7.93 59.485H12.295V67.18C12.295 67.41 12.325 67.605 12.385 67.765C12.455 67.915 12.545 68.04 12.655 68.14C12.775 68.23 12.905 68.295 13.045 68.335C13.195 68.375 13.345 68.395 13.495 68.395C13.665 68.395 13.845 68.38 14.035 68.35C14.225 68.31 14.435 68.245 14.665 68.155L15.16 69.775C14.96 69.835 14.775 69.89 14.605 69.94C14.435 69.99 14.265 70.03 14.095 70.06C13.925 70.1 13.745 70.13 13.555 70.15C13.365 70.17 13.155 70.18 12.925 70.18C11.985 70.18 11.275 69.905 10.795 69.355C10.325 68.795 10.09 68.04 10.09 67.09V61.225H7.93V59.485ZM17.1791 62.56H22.3691V70H20.1641V64.285H17.1791V62.56ZM21.1691 61.465C20.7391 61.465 20.3841 61.345 20.1041 61.105C19.8341 60.865 19.6991 60.54 19.6991 60.13C19.6991 59.72 19.8341 59.39 20.1041 59.14C20.3841 58.88 20.7391 58.75 21.1691 58.75C21.5991 58.75 21.9491 58.88 22.2191 59.14C22.4991 59.39 22.6391 59.72 22.6391 60.13C22.6391 60.54 22.4991 60.865 22.2191 61.105C21.9491 61.345 21.5991 61.465 21.1691 61.465ZM26.7733 67.66C27.2033 67.93 27.6333 68.145 28.0633 68.305C28.5033 68.465 28.9733 68.545 29.4733 68.545C29.9833 68.545 30.3483 68.49 30.5683 68.38C30.7883 68.27 30.8983 68.115 30.8983 67.915C30.8983 67.685 30.7133 67.5 30.3433 67.36C29.9833 67.21 29.5033 67.05 28.9033 66.88C28.5733 66.79 28.2483 66.685 27.9283 66.565C27.6183 66.435 27.3383 66.285 27.0883 66.115C26.8383 65.935 26.6333 65.73 26.4733 65.5C26.3233 65.27 26.2483 65.005 26.2483 64.705C26.2483 64.365 26.3283 64.05 26.4883 63.76C26.6483 63.47 26.8733 63.225 27.1633 63.025C27.4633 62.825 27.8233 62.67 28.2433 62.56C28.6733 62.44 29.1533 62.38 29.6833 62.38C30.3433 62.38 30.9433 62.49 31.4833 62.71C32.0333 62.92 32.5033 63.15 32.8933 63.4L31.9033 64.72C31.5633 64.52 31.2133 64.355 30.8533 64.225C30.4933 64.085 30.1183 64.015 29.7283 64.015C29.2583 64.015 28.9233 64.065 28.7233 64.165C28.5333 64.265 28.4383 64.41 28.4383 64.6C28.4383 64.71 28.4883 64.81 28.5883 64.9C28.6883 64.99 28.8233 65.07 28.9933 65.14C29.1633 65.21 29.3633 65.28 29.5933 65.35C29.8333 65.41 30.0833 65.475 30.3433 65.545C30.7133 65.645 31.0633 65.76 31.3933 65.89C31.7233 66.01 32.0133 66.155 32.2633 66.325C32.5133 66.495 32.7133 66.7 32.8633 66.94C33.0133 67.18 33.0883 67.46 33.0883 67.78C33.0883 68.12 33.0083 68.435 32.8483 68.725C32.6883 69.015 32.4533 69.27 32.1433 69.49C31.8433 69.7 31.4633 69.87 31.0033 70C30.5533 70.12 30.0283 70.18 29.4283 70.18C28.7583 70.18 28.1033 70.07 27.4633 69.85C26.8233 69.63 26.2633 69.36 25.7833 69.04L26.7733 67.66ZM36.5924 64.285H34.7174V62.65L36.6974 62.56L36.9824 60.58H38.7974V62.56H41.9474V64.285H38.7974V66.895C38.7974 67.465 38.9224 67.87 39.1724 68.11C39.4224 68.34 39.8174 68.455 40.3574 68.455C40.6474 68.455 40.9124 68.43 41.1524 68.38C41.3924 68.33 41.6224 68.265 41.8424 68.185L42.2324 69.775C41.9024 69.875 41.5324 69.965 41.1224 70.045C40.7224 70.135 40.2824 70.18 39.8024 70.18C39.2124 70.18 38.7124 70.1 38.3024 69.94C37.8924 69.78 37.5574 69.56 37.2974 69.28C37.0474 68.99 36.8674 68.645 36.7574 68.245C36.6474 67.845 36.5924 67.4 36.5924 66.91V64.285ZM51.0766 70.81V72.46H43.8766V70.81H51.0766ZM52.8407 68.74C53.5207 68.17 54.1407 67.64 54.7007 67.15C55.2607 66.65 55.7407 66.185 56.1407 65.755C56.5407 65.325 56.8507 64.92 57.0707 64.54C57.2907 64.16 57.4007 63.8 57.4007 63.46C57.4007 62.99 57.2657 62.635 56.9957 62.395C56.7257 62.145 56.3407 62.02 55.8407 62.02C55.4607 62.02 55.1107 62.12 54.7907 62.32C54.4807 62.51 54.1907 62.735 53.9207 62.995L52.7357 61.81C52.9857 61.56 53.2307 61.34 53.4707 61.15C53.7207 60.96 53.9807 60.805 54.2507 60.685C54.5307 60.555 54.8207 60.46 55.1207 60.4C55.4307 60.33 55.7707 60.295 56.1407 60.295C56.6407 60.295 57.0957 60.37 57.5057 60.52C57.9157 60.66 58.2657 60.865 58.5557 61.135C58.8557 61.395 59.0857 61.71 59.2457 62.08C59.4157 62.45 59.5007 62.865 59.5007 63.325C59.5007 63.725 59.4057 64.135 59.2157 64.555C59.0257 64.965 58.7657 65.38 58.4357 65.8C58.1157 66.21 57.7457 66.625 57.3257 67.045C56.9057 67.455 56.4657 67.86 56.0057 68.26C56.2757 68.23 56.5657 68.205 56.8757 68.185C57.1957 68.155 57.4807 68.14 57.7307 68.14H59.9957V70H52.8407V68.74ZM71.009 62.53H77.909V64.09H71.009V62.53ZM71.009 65.995H77.909V67.555H71.009V65.995ZM88.8773 59.485H93.2423V67.18C93.2423 67.41 93.2723 67.605 93.3323 67.765C93.4023 67.915 93.4923 68.04 93.6023 68.14C93.7223 68.23 93.8523 68.295 93.9923 68.335C94.1423 68.375 94.2923 68.395 94.4423 68.395C94.6123 68.395 94.7923 68.38 94.9823 68.35C95.1723 68.31 95.3823 68.245 95.6123 68.155L96.1073 69.775C95.9073 69.835 95.7223 69.89 95.5523 69.94C95.3823 69.99 95.2123 70.03 95.0423 70.06C94.8723 70.1 94.6923 70.13 94.5023 70.15C94.3123 70.17 94.1023 70.18 93.8723 70.18C92.9323 70.18 92.2223 69.905 91.7423 69.355C91.2723 68.795 91.0373 68.04 91.0373 67.09V61.225H88.8773V59.485ZM98.1264 62.56H103.316V70H101.111V64.285H98.1264V62.56ZM102.116 61.465C101.686 61.465 101.331 61.345 101.051 61.105C100.781 60.865 100.646 60.54 100.646 60.13C100.646 59.72 100.781 59.39 101.051 59.14C101.331 58.88 101.686 58.75 102.116 58.75C102.546 58.75 102.896 58.88 103.166 59.14C103.446 59.39 103.586 59.72 103.586 60.13C103.586 60.54 103.446 60.865 103.166 61.105C102.896 61.345 102.546 61.465 102.116 61.465ZM107.721 67.66C108.151 67.93 108.581 68.145 109.011 68.305C109.451 68.465 109.921 68.545 110.421 68.545C110.931 68.545 111.296 68.49 111.516 68.38C111.736 68.27 111.846 68.115 111.846 67.915C111.846 67.685 111.661 67.5 111.291 67.36C110.931 67.21 110.451 67.05 109.851 66.88C109.521 66.79 109.196 66.685 108.876 66.565C108.566 66.435 108.286 66.285 108.036 66.115C107.786 65.935 107.581 65.73 107.421 65.5C107.271 65.27 107.196 65.005 107.196 64.705C107.196 64.365 107.276 64.05 107.436 63.76C107.596 63.47 107.821 63.225 108.111 63.025C108.411 62.825 108.771 62.67 109.191 62.56C109.621 62.44 110.101 62.38 110.631 62.38C111.291 62.38 111.891 62.49 112.431 62.71C112.981 62.92 113.451 63.15 113.841 63.4L112.851 64.72C112.511 64.52 112.161 64.355 111.801 64.225C111.441 64.085 111.066 64.015 110.676 64.015C110.206 64.015 109.871 64.065 109.671 64.165C109.481 64.265 109.386 64.41 109.386 64.6C109.386 64.71 109.436 64.81 109.536 64.9C109.636 64.99 109.771 65.07 109.941 65.14C110.111 65.21 110.311 65.28 110.541 65.35C110.781 65.41 111.031 65.475 111.291 65.545C111.661 65.645 112.011 65.76 112.341 65.89C112.671 66.01 112.961 66.155 113.211 66.325C113.461 66.495 113.661 66.7 113.811 66.94C113.961 67.18 114.036 67.46 114.036 67.78C114.036 68.12 113.956 68.435 113.796 68.725C113.636 69.015 113.401 69.27 113.091 69.49C112.791 69.7 112.411 69.87 111.951 70C111.501 70.12 110.976 70.18 110.376 70.18C109.706 70.18 109.051 70.07 108.411 69.85C107.771 69.63 107.211 69.36 106.731 69.04L107.721 67.66ZM117.54 64.285H115.665V62.65L117.645 62.56L117.93 60.58H119.745V62.56H122.895V64.285H119.745V66.895C119.745 67.465 119.87 67.87 120.12 68.11C120.37 68.34 120.765 68.455 121.305 68.455C121.595 68.455 121.86 68.43 122.1 68.38C122.34 68.33 122.57 68.265 122.79 68.185L123.18 69.775C122.85 69.875 122.48 69.965 122.07 70.045C121.67 70.135 121.23 70.18 120.75 70.18C120.16 70.18 119.66 70.1 119.25 69.94C118.84 69.78 118.505 69.56 118.245 69.28C117.995 68.99 117.815 68.645 117.705 68.245C117.595 67.845 117.54 67.4 117.54 66.91V64.285ZM132.024 70.81V72.46H124.824V70.81H132.024ZM140.973 68.215V70H134.148V68.215H136.608V62.71H134.643V61.345C135.203 61.245 135.678 61.125 136.068 60.985C136.468 60.845 136.843 60.675 137.193 60.475H138.813V68.215H140.973ZM7.93 77.485H12.295V85.18C12.295 85.41 12.325 85.605 12.385 85.765C12.455 85.915 12.545 86.04 12.655 86.14C12.775 86.23 12.905 86.295 13.045 86.335C13.195 86.375 13.345 86.395 13.495 86.395C13.665 86.395 13.845 86.38 14.035 86.35C14.225 86.31 14.435 86.245 14.665 86.155L15.16 87.775C14.96 87.835 14.775 87.89 14.605 87.94C14.435 87.99 14.265 88.03 14.095 88.06C13.925 88.1 13.745 88.13 13.555 88.15C13.365 88.17 13.155 88.18 12.925 88.18C11.985 88.18 11.275 87.905 10.795 87.355C10.325 86.795 10.09 86.04 10.09 85.09V79.225H7.93V77.485ZM17.1791 80.56H22.3691V88H20.1641V82.285H17.1791V80.56ZM21.1691 79.465C20.7391 79.465 20.3841 79.345 20.1041 79.105C19.8341 78.865 19.6991 78.54 19.6991 78.13C19.6991 77.72 19.8341 77.39 20.1041 77.14C20.3841 76.88 20.7391 76.75 21.1691 76.75C21.5991 76.75 21.9491 76.88 22.2191 77.14C22.4991 77.39 22.6391 77.72 22.6391 78.13C22.6391 78.54 22.4991 78.865 22.2191 79.105C21.9491 79.345 21.5991 79.465 21.1691 79.465ZM26.7733 85.66C27.2033 85.93 27.6333 86.145 28.0633 86.305C28.5033 86.465 28.9733 86.545 29.4733 86.545C29.9833 86.545 30.3483 86.49 30.5683 86.38C30.7883 86.27 30.8983 86.115 30.8983 85.915C30.8983 85.685 30.7133 85.5 30.3433 85.36C29.9833 85.21 29.5033 85.05 28.9033 84.88C28.5733 84.79 28.2483 84.685 27.9283 84.565C27.6183 84.435 27.3383 84.285 27.0883 84.115C26.8383 83.935 26.6333 83.73 26.4733 83.5C26.3233 83.27 26.2483 83.005 26.2483 82.705C26.2483 82.365 26.3283 82.05 26.4883 81.76C26.6483 81.47 26.8733 81.225 27.1633 81.025C27.4633 80.825 27.8233 80.67 28.2433 80.56C28.6733 80.44 29.1533 80.38 29.6833 80.38C30.3433 80.38 30.9433 80.49 31.4833 80.71C32.0333 80.92 32.5033 81.15 32.8933 81.4L31.9033 82.72C31.5633 82.52 31.2133 82.355 30.8533 82.225C30.4933 82.085 30.1183 82.015 29.7283 82.015C29.2583 82.015 28.9233 82.065 28.7233 82.165C28.5333 82.265 28.4383 82.41 28.4383 82.6C28.4383 82.71 28.4883 82.81 28.5883 82.9C28.6883 82.99 28.8233 83.07 28.9933 83.14C29.1633 83.21 29.3633 83.28 29.5933 83.35C29.8333 83.41 30.0833 83.475 30.3433 83.545C30.7133 83.645 31.0633 83.76 31.3933 83.89C31.7233 84.01 32.0133 84.155 32.2633 84.325C32.5133 84.495 32.7133 84.7 32.8633 84.94C33.0133 85.18 33.0883 85.46 33.0883 85.78C33.0883 86.12 33.0083 86.435 32.8483 86.725C32.6883 87.015 32.4533 87.27 32.1433 87.49C31.8433 87.7 31.4633 87.87 31.0033 88C30.5533 88.12 30.0283 88.18 29.4283 88.18C28.7583 88.18 28.1033 88.07 27.4633 87.85C26.8233 87.63 26.2633 87.36 25.7833 87.04L26.7733 85.66ZM36.5924 82.285H34.7174V80.65L36.6974 80.56L36.9824 78.58H38.7974V80.56H41.9474V82.285H38.7974V84.895C38.7974 85.465 38.9224 85.87 39.1724 86.11C39.4224 86.34 39.8174 86.455 40.3574 86.455C40.6474 86.455 40.9124 86.43 41.1524 86.38C41.3924 86.33 41.6224 86.265 41.8424 86.185L42.2324 87.775C41.9024 87.875 41.5324 87.965 41.1224 88.045C40.7224 88.135 40.2824 88.18 39.8024 88.18C39.2124 88.18 38.7124 88.1 38.3024 87.94C37.8924 87.78 37.5574 87.56 37.2974 87.28C37.0474 86.99 36.8674 86.645 36.7574 86.245C36.6474 85.845 36.5924 85.4 36.5924 84.91V82.285ZM51.0766 88.81V90.46H43.8766V88.81H51.0766ZM60.0257 86.215V88H53.2007V86.215H55.6607V80.71H53.6957V79.345C54.2557 79.245 54.7307 79.125 55.1207 78.985C55.5207 78.845 55.8957 78.675 56.2457 78.475H57.8657V86.215H60.0257ZM63.7248 86.425C63.7248 86.175 63.7648 85.945 63.8448 85.735C63.9348 85.515 64.0548 85.325 64.2048 85.165C64.3548 85.005 64.5348 84.88 64.7448 84.79C64.9648 84.7 65.2048 84.655 65.4648 84.655C65.7248 84.655 65.9598 84.7 66.1698 84.79C66.3898 84.88 66.5748 85.005 66.7248 85.165C66.8748 85.325 66.9898 85.515 67.0698 85.735C67.1598 85.945 67.2048 86.175 67.2048 86.425C67.2048 86.925 67.0448 87.345 66.7248 87.685C66.4048 88.015 65.9848 88.18 65.4648 88.18C64.9448 88.18 64.5248 88.015 64.2048 87.685C63.8848 87.345 63.7248 86.925 63.7248 86.425ZM70.874 85.93C70.874 85.51 70.964 85.145 71.144 84.835C71.324 84.515 71.609 84.245 71.999 84.025C72.399 83.805 72.909 83.63 73.529 83.5C74.149 83.36 74.899 83.265 75.779 83.215C75.739 82.875 75.589 82.61 75.329 82.42C75.079 82.23 74.699 82.135 74.189 82.135C73.829 82.135 73.464 82.2 73.094 82.33C72.734 82.45 72.344 82.615 71.924 82.825L71.144 81.385C71.654 81.095 72.199 80.855 72.779 80.665C73.369 80.475 73.984 80.38 74.624 80.38C75.664 80.38 76.484 80.655 77.084 81.205C77.684 81.755 77.984 82.6 77.984 83.74V88H76.184L76.019 87.16H75.959C75.579 87.45 75.164 87.695 74.714 87.895C74.264 88.085 73.799 88.18 73.319 88.18C72.939 88.18 72.599 88.12 72.299 88C71.999 87.89 71.744 87.735 71.534 87.535C71.324 87.325 71.159 87.085 71.039 86.815C70.929 86.545 70.874 86.25 70.874 85.93ZM72.989 85.765C72.989 86.005 73.079 86.185 73.259 86.305C73.449 86.415 73.704 86.47 74.024 86.47C74.354 86.47 74.664 86.405 74.954 86.275C75.244 86.135 75.519 85.965 75.779 85.765V84.535C75.229 84.565 74.774 84.615 74.414 84.685C74.054 84.755 73.769 84.845 73.559 84.955C73.349 85.055 73.199 85.175 73.109 85.315C73.029 85.455 72.989 85.605 72.989 85.765ZM82.2381 88.585V90.76H80.0331V80.56H81.8331L81.9981 81.31H82.0431C82.3431 81.04 82.6881 80.82 83.0781 80.65C83.4681 80.47 83.8631 80.38 84.2631 80.38C84.7231 80.38 85.1381 80.47 85.5081 80.65C85.8781 80.83 86.1931 81.085 86.4531 81.415C86.7131 81.745 86.9081 82.145 87.0381 82.615C87.1781 83.075 87.2481 83.59 87.2481 84.16C87.2481 84.8 87.1581 85.37 86.9781 85.87C86.7981 86.36 86.5581 86.78 86.2581 87.13C85.9581 87.47 85.6131 87.73 85.2231 87.91C84.8431 88.09 84.4431 88.18 84.0231 88.18C83.3431 88.18 82.7231 87.91 82.1631 87.37L82.2381 88.585ZM82.2381 85.885C82.4481 86.065 82.6631 86.195 82.8831 86.275C83.1131 86.345 83.3231 86.38 83.5131 86.38C83.9331 86.38 84.2831 86.21 84.5631 85.87C84.8431 85.52 84.9831 84.96 84.9831 84.19C84.9831 82.85 84.5281 82.18 83.6181 82.18C83.1481 82.18 82.6881 82.41 82.2381 82.87V85.885ZM91.2323 88.585V90.76H89.0273V80.56H90.8273L90.9923 81.31H91.0373C91.3373 81.04 91.6823 80.82 92.0723 80.65C92.4623 80.47 92.8573 80.38 93.2573 80.38C93.7173 80.38 94.1323 80.47 94.5023 80.65C94.8723 80.83 95.1873 81.085 95.4473 81.415C95.7073 81.745 95.9023 82.145 96.0323 82.615C96.1723 83.075 96.2423 83.59 96.2423 84.16C96.2423 84.8 96.1523 85.37 95.9723 85.87C95.7923 86.36 95.5523 86.78 95.2523 87.13C94.9523 87.47 94.6073 87.73 94.2173 87.91C93.8373 88.09 93.4373 88.18 93.0173 88.18C92.3373 88.18 91.7173 87.91 91.1573 87.37L91.2323 88.585ZM91.2323 85.885C91.4423 86.065 91.6573 86.195 91.8773 86.275C92.1073 86.345 92.3173 86.38 92.5073 86.38C92.9273 86.38 93.2773 86.21 93.5573 85.87C93.8373 85.52 93.9773 84.96 93.9773 84.19C93.9773 82.85 93.5223 82.18 92.6123 82.18C92.1423 82.18 91.6823 82.41 91.2323 82.87V85.885ZM97.7664 84.28C97.7664 83.67 97.8714 83.125 98.0814 82.645C98.3014 82.165 98.5914 81.76 98.9514 81.43C99.3114 81.09 99.7214 80.83 100.181 80.65C100.651 80.47 101.136 80.38 101.636 80.38C102.206 80.38 102.711 80.47 103.151 80.65C103.591 80.83 103.956 81.08 104.246 81.4C104.536 81.72 104.756 82.1 104.906 82.54C105.056 82.97 105.131 83.44 105.131 83.95C105.131 84.15 105.121 84.34 105.101 84.52C105.081 84.7 105.061 84.835 105.041 84.925H100.031C100.111 85.485 100.351 85.89 100.751 86.14C101.161 86.38 101.641 86.5 102.191 86.5C102.531 86.5 102.851 86.46 103.151 86.38C103.461 86.29 103.781 86.16 104.111 85.99L104.831 87.31C104.411 87.58 103.941 87.795 103.421 87.955C102.901 88.105 102.391 88.18 101.891 88.18C101.311 88.18 100.771 88.095 100.271 87.925C99.7714 87.745 99.3364 87.49 98.9664 87.16C98.5964 86.82 98.3014 86.41 98.0814 85.93C97.8714 85.45 97.7664 84.9 97.7664 84.28ZM103.136 83.47C103.136 83.05 103.021 82.71 102.791 82.45C102.561 82.19 102.191 82.06 101.681 82.06C101.281 82.06 100.926 82.175 100.616 82.405C100.306 82.635 100.101 82.99 100.001 83.47H103.136ZM107.016 80.56H108.816L108.981 81.55H109.041C109.361 81.23 109.726 80.955 110.136 80.725C110.556 80.495 111.046 80.38 111.606 80.38C112.446 80.38 113.061 80.65 113.451 81.19C113.841 81.73 114.036 82.47 114.036 83.41V88H111.831V83.695C111.831 83.195 111.751 82.83 111.591 82.6C111.431 82.37 111.146 82.255 110.736 82.255C110.436 82.255 110.171 82.32 109.941 82.45C109.721 82.58 109.481 82.775 109.221 83.035V88H107.016V80.56ZM115.635 84.28C115.635 83.67 115.725 83.125 115.905 82.645C116.085 82.165 116.32 81.76 116.61 81.43C116.91 81.09 117.25 80.83 117.63 80.65C118.01 80.47 118.405 80.38 118.815 80.38C119.245 80.38 119.605 80.455 119.895 80.605C120.185 80.745 120.46 80.935 120.72 81.175L120.645 80.02V77.485H122.85V88H121.05L120.885 87.235H120.84C120.56 87.505 120.24 87.73 119.88 87.91C119.52 88.09 119.15 88.18 118.77 88.18C118.3 88.18 117.87 88.09 117.48 87.91C117.1 87.73 116.77 87.475 116.49 87.145C116.22 86.805 116.01 86.395 115.86 85.915C115.71 85.435 115.635 84.89 115.635 84.28ZM117.9 84.25C117.9 84.99 118.025 85.53 118.275 85.87C118.525 86.21 118.88 86.38 119.34 86.38C119.59 86.38 119.82 86.33 120.03 86.23C120.24 86.12 120.445 85.94 120.645 85.69V82.675C120.445 82.495 120.24 82.37 120.03 82.3C119.83 82.22 119.62 82.18 119.4 82.18C118.99 82.18 118.635 82.35 118.335 82.69C118.045 83.03 117.9 83.55 117.9 84.25ZM129.804 90.685C128.824 89.815 128.049 88.81 127.479 87.67C126.919 86.53 126.639 85.25 126.639 83.83C126.639 82.41 126.919 81.13 127.479 79.99C128.049 78.85 128.824 77.845 129.804 76.975L131.034 77.95C130.144 78.82 129.494 79.725 129.084 80.665C128.684 81.595 128.484 82.65 128.484 83.83C128.484 84.42 128.534 84.98 128.634 85.51C128.734 86.03 128.884 86.53 129.084 87.01C129.294 87.49 129.559 87.95 129.879 88.39C130.199 88.84 130.584 89.28 131.034 89.71L129.804 90.685ZM143.802 89.71C144.252 89.28 144.637 88.84 144.957 88.39C145.277 87.95 145.537 87.49 145.737 87.01C145.947 86.53 146.102 86.03 146.202 85.51C146.302 84.98 146.352 84.42 146.352 83.83C146.352 82.65 146.147 81.595 145.737 80.665C145.337 79.725 144.692 78.82 143.802 77.95L145.032 76.975C146.012 77.845 146.782 78.85 147.342 79.99C147.912 81.13 148.197 82.41 148.197 83.83C148.197 85.25 147.912 86.53 147.342 87.67C146.782 88.81 146.012 89.815 145.032 90.685L143.802 89.71ZM57.8507 128.685C56.8707 127.815 56.0957 126.81 55.5257 125.67C54.9657 124.53 54.6857 123.25 54.6857 121.83C54.6857 120.41 54.9657 119.13 55.5257 117.99C56.0957 116.85 56.8707 115.845 57.8507 114.975L59.0807 115.95C58.1907 116.82 57.5407 117.725 57.1307 118.665C56.7307 119.595 56.5307 120.65 56.5307 121.83C56.5307 122.42 56.5807 122.98 56.6807 123.51C56.7807 124.03 56.9307 124.53 57.1307 125.01C57.3407 125.49 57.6057 125.95 57.9257 126.39C58.2457 126.84 58.6307 127.28 59.0807 127.71L57.8507 128.685ZM61.8948 115.485H66.2598V123.18C66.2598 123.41 66.2898 123.605 66.3498 123.765C66.4198 123.915 66.5098 124.04 66.6198 124.14C66.7398 124.23 66.8698 124.295 67.0098 124.335C67.1598 124.375 67.3098 124.395 67.4598 124.395C67.6298 124.395 67.8098 124.38 67.9998 124.35C68.1898 124.31 68.3998 124.245 68.6298 124.155L69.1248 125.775C68.9248 125.835 68.7398 125.89 68.5698 125.94C68.3998 125.99 68.2298 126.03 68.0598 126.06C67.8898 126.1 67.7098 126.13 67.5198 126.15C67.3298 126.17 67.1198 126.18 66.8898 126.18C65.9498 126.18 65.2398 125.905 64.7598 125.355C64.2898 124.795 64.0548 124.04 64.0548 123.09V117.225H61.8948V115.485ZM71.144 118.56H76.334V126H74.129V120.285H71.144V118.56ZM75.134 117.465C74.704 117.465 74.349 117.345 74.069 117.105C73.799 116.865 73.664 116.54 73.664 116.13C73.664 115.72 73.799 115.39 74.069 115.14C74.349 114.88 74.704 114.75 75.134 114.75C75.564 114.75 75.914 114.88 76.184 115.14C76.464 115.39 76.604 115.72 76.604 116.13C76.604 116.54 76.464 116.865 76.184 117.105C75.914 117.345 75.564 117.465 75.134 117.465ZM80.7381 123.66C81.1681 123.93 81.5981 124.145 82.0281 124.305C82.4681 124.465 82.9381 124.545 83.4381 124.545C83.9481 124.545 84.3131 124.49 84.5331 124.38C84.7531 124.27 84.8631 124.115 84.8631 123.915C84.8631 123.685 84.6781 123.5 84.3081 123.36C83.9481 123.21 83.4681 123.05 82.8681 122.88C82.5381 122.79 82.2131 122.685 81.8931 122.565C81.5831 122.435 81.3031 122.285 81.0531 122.115C80.8031 121.935 80.5981 121.73 80.4381 121.5C80.2881 121.27 80.2131 121.005 80.2131 120.705C80.2131 120.365 80.2931 120.05 80.4531 119.76C80.6131 119.47 80.8381 119.225 81.1281 119.025C81.4281 118.825 81.7881 118.67 82.2081 118.56C82.6381 118.44 83.1181 118.38 83.6481 118.38C84.3081 118.38 84.9081 118.49 85.4481 118.71C85.9981 118.92 86.4681 119.15 86.8581 119.4L85.8681 120.72C85.5281 120.52 85.1781 120.355 84.8181 120.225C84.4581 120.085 84.0831 120.015 83.6931 120.015C83.2231 120.015 82.8881 120.065 82.6881 120.165C82.4981 120.265 82.4031 120.41 82.4031 120.6C82.4031 120.71 82.4531 120.81 82.5531 120.9C82.6531 120.99 82.7881 121.07 82.9581 121.14C83.1281 121.21 83.3281 121.28 83.5581 121.35C83.7981 121.41 84.0481 121.475 84.3081 121.545C84.6781 121.645 85.0281 121.76 85.3581 121.89C85.6881 122.01 85.9781 122.155 86.2281 122.325C86.4781 122.495 86.6781 122.7 86.8281 122.94C86.9781 123.18 87.0531 123.46 87.0531 123.78C87.0531 124.12 86.9731 124.435 86.8131 124.725C86.6531 125.015 86.4181 125.27 86.1081 125.49C85.8081 125.7 85.4281 125.87 84.9681 126C84.5181 126.12 83.9931 126.18 83.3931 126.18C82.7231 126.18 82.0681 126.07 81.4281 125.85C80.7881 125.63 80.2281 125.36 79.7481 125.04L80.7381 123.66ZM90.5573 120.285H88.6823V118.65L90.6623 118.56L90.9473 116.58H92.7623V118.56H95.9123V120.285H92.7623V122.895C92.7623 123.465 92.8873 123.87 93.1373 124.11C93.3873 124.34 93.7823 124.455 94.3223 124.455C94.6123 124.455 94.8773 124.43 95.1173 124.38C95.3573 124.33 95.5873 124.265 95.8073 124.185L96.1973 125.775C95.8673 125.875 95.4973 125.965 95.0873 126.045C94.6873 126.135 94.2473 126.18 93.7673 126.18C93.1773 126.18 92.6773 126.1 92.2673 125.94C91.8573 125.78 91.5223 125.56 91.2623 125.28C91.0123 124.99 90.8323 124.645 90.7223 124.245C90.6123 123.845 90.5573 123.4 90.5573 122.91V120.285ZM105.041 126.81V128.46H97.8414V126.81H105.041ZM113.991 124.215V126H107.166V124.215H109.626V118.71H107.661V117.345C108.221 117.245 108.696 117.125 109.086 116.985C109.486 116.845 109.861 116.675 110.211 116.475H111.831V124.215H113.991ZM116.82 127.71C117.27 127.28 117.655 126.84 117.975 126.39C118.295 125.95 118.555 125.49 118.755 125.01C118.965 124.53 119.12 124.03 119.22 123.51C119.32 122.98 119.37 122.42 119.37 121.83C119.37 120.65 119.165 119.595 118.755 118.665C118.355 117.725 117.71 116.82 116.82 115.95L118.05 114.975C119.03 115.845 119.8 116.85 120.36 117.99C120.93 119.13 121.215 120.41 121.215 121.83C121.215 123.25 120.93 124.53 120.36 125.67C119.8 126.81 119.03 127.815 118.05 128.685L116.82 127.71ZM57.8507 147.685C56.8707 146.815 56.0957 145.81 55.5257 144.67C54.9657 143.53 54.6857 142.25 54.6857 140.83C54.6857 139.41 54.9657 138.13 55.5257 136.99C56.0957 135.85 56.8707 134.845 57.8507 133.975L59.0807 134.95C58.1907 135.82 57.5407 136.725 57.1307 137.665C56.7307 138.595 56.5307 139.65 56.5307 140.83C56.5307 141.42 56.5807 141.98 56.6807 142.51C56.7807 143.03 56.9307 143.53 57.1307 144.01C57.3407 144.49 57.6057 144.95 57.9257 145.39C58.2457 145.84 58.6307 146.28 59.0807 146.71L57.8507 147.685ZM61.8948 134.485H66.2598V142.18C66.2598 142.41 66.2898 142.605 66.3498 142.765C66.4198 142.915 66.5098 143.04 66.6198 143.14C66.7398 143.23 66.8698 143.295 67.0098 143.335C67.1598 143.375 67.3098 143.395 67.4598 143.395C67.6298 143.395 67.8098 143.38 67.9998 143.35C68.1898 143.31 68.3998 143.245 68.6298 143.155L69.1248 144.775C68.9248 144.835 68.7398 144.89 68.5698 144.94C68.3998 144.99 68.2298 145.03 68.0598 145.06C67.8898 145.1 67.7098 145.13 67.5198 145.15C67.3298 145.17 67.1198 145.18 66.8898 145.18C65.9498 145.18 65.2398 144.905 64.7598 144.355C64.2898 143.795 64.0548 143.04 64.0548 142.09V136.225H61.8948V134.485ZM71.144 137.56H76.334V145H74.129V139.285H71.144V137.56ZM75.134 136.465C74.704 136.465 74.349 136.345 74.069 136.105C73.799 135.865 73.664 135.54 73.664 135.13C73.664 134.72 73.799 134.39 74.069 134.14C74.349 133.88 74.704 133.75 75.134 133.75C75.564 133.75 75.914 133.88 76.184 134.14C76.464 134.39 76.604 134.72 76.604 135.13C76.604 135.54 76.464 135.865 76.184 136.105C75.914 136.345 75.564 136.465 75.134 136.465ZM80.7381 142.66C81.1681 142.93 81.5981 143.145 82.0281 143.305C82.4681 143.465 82.9381 143.545 83.4381 143.545C83.9481 143.545 84.3131 143.49 84.5331 143.38C84.7531 143.27 84.8631 143.115 84.8631 142.915C84.8631 142.685 84.6781 142.5 84.3081 142.36C83.9481 142.21 83.4681 142.05 82.8681 141.88C82.5381 141.79 82.2131 141.685 81.8931 141.565C81.5831 141.435 81.3031 141.285 81.0531 141.115C80.8031 140.935 80.5981 140.73 80.4381 140.5C80.2881 140.27 80.2131 140.005 80.2131 139.705C80.2131 139.365 80.2931 139.05 80.4531 138.76C80.6131 138.47 80.8381 138.225 81.1281 138.025C81.4281 137.825 81.7881 137.67 82.2081 137.56C82.6381 137.44 83.1181 137.38 83.6481 137.38C84.3081 137.38 84.9081 137.49 85.4481 137.71C85.9981 137.92 86.4681 138.15 86.8581 138.4L85.8681 139.72C85.5281 139.52 85.1781 139.355 84.8181 139.225C84.4581 139.085 84.0831 139.015 83.6931 139.015C83.2231 139.015 82.8881 139.065 82.6881 139.165C82.4981 139.265 82.4031 139.41 82.4031 139.6C82.4031 139.71 82.4531 139.81 82.5531 139.9C82.6531 139.99 82.7881 140.07 82.9581 140.14C83.1281 140.21 83.3281 140.28 83.5581 140.35C83.7981 140.41 84.0481 140.475 84.3081 140.545C84.6781 140.645 85.0281 140.76 85.3581 140.89C85.6881 141.01 85.9781 141.155 86.2281 141.325C86.4781 141.495 86.6781 141.7 86.8281 141.94C86.9781 142.18 87.0531 142.46 87.0531 142.78C87.0531 143.12 86.9731 143.435 86.8131 143.725C86.6531 144.015 86.4181 144.27 86.1081 144.49C85.8081 144.7 85.4281 144.87 84.9681 145C84.5181 145.12 83.9931 145.18 83.3931 145.18C82.7231 145.18 82.0681 145.07 81.4281 144.85C80.7881 144.63 80.2281 144.36 79.7481 144.04L80.7381 142.66ZM90.5573 139.285H88.6823V137.65L90.6623 137.56L90.9473 135.58H92.7623V137.56H95.9123V139.285H92.7623V141.895C92.7623 142.465 92.8873 142.87 93.1373 143.11C93.3873 143.34 93.7823 143.455 94.3223 143.455C94.6123 143.455 94.8773 143.43 95.1173 143.38C95.3573 143.33 95.5873 143.265 95.8073 143.185L96.1973 144.775C95.8673 144.875 95.4973 144.965 95.0873 145.045C94.6873 145.135 94.2473 145.18 93.7673 145.18C93.1773 145.18 92.6773 145.1 92.2673 144.94C91.8573 144.78 91.5223 144.56 91.2623 144.28C91.0123 143.99 90.8323 143.645 90.7223 143.245C90.6123 142.845 90.5573 142.4 90.5573 141.91V139.285ZM105.041 145.81V147.46H97.8414V145.81H105.041ZM106.806 143.74C107.486 143.17 108.106 142.64 108.666 142.15C109.226 141.65 109.706 141.185 110.106 140.755C110.506 140.325 110.816 139.92 111.036 139.54C111.256 139.16 111.366 138.8 111.366 138.46C111.366 137.99 111.231 137.635 110.961 137.395C110.691 137.145 110.306 137.02 109.806 137.02C109.426 137.02 109.076 137.12 108.756 137.32C108.446 137.51 108.156 137.735 107.886 137.995L106.701 136.81C106.951 136.56 107.196 136.34 107.436 136.15C107.686 135.96 107.946 135.805 108.216 135.685C108.496 135.555 108.786 135.46 109.086 135.4C109.396 135.33 109.736 135.295 110.106 135.295C110.606 135.295 111.061 135.37 111.471 135.52C111.881 135.66 112.231 135.865 112.521 136.135C112.821 136.395 113.051 136.71 113.211 137.08C113.381 137.45 113.466 137.865 113.466 138.325C113.466 138.725 113.371 139.135 113.181 139.555C112.991 139.965 112.731 140.38 112.401 140.8C112.081 141.21 111.711 141.625 111.291 142.045C110.871 142.455 110.431 142.86 109.971 143.26C110.241 143.23 110.531 143.205 110.841 143.185C111.161 143.155 111.446 143.14 111.696 143.14H113.961V145H106.806V143.74ZM116.82 146.71C117.27 146.28 117.655 145.84 117.975 145.39C118.295 144.95 118.555 144.49 118.755 144.01C118.965 143.53 119.12 143.03 119.22 142.51C119.32 141.98 119.37 141.42 119.37 140.83C119.37 139.65 119.165 138.595 118.755 137.665C118.355 136.725 117.71 135.82 116.82 134.95L118.05 133.975C119.03 134.845 119.8 135.85 120.36 136.99C120.93 138.13 121.215 139.41 121.215 140.83C121.215 142.25 120.93 143.53 120.36 144.67C119.8 145.81 119.03 146.815 118.05 147.685L116.82 146.71Z" fill="white"/>
<path d="M104.996 49.215V51H98.1714V49.215H100.631V43.71H98.6664V42.345C99.2264 42.245 99.7014 42.125 100.091 41.985C100.491 41.845 100.866 41.675 101.216 41.475H102.836V49.215H104.996ZM124.794 49.74C125.474 49.17 126.094 48.64 126.654 48.15C127.214 47.65 127.694 47.185 128.094 46.755C128.494 46.325 128.804 45.92 129.024 45.54C129.244 45.16 129.354 44.8 129.354 44.46C129.354 43.99 129.219 43.635 128.949 43.395C128.679 43.145 128.294 43.02 127.794 43.02C127.414 43.02 127.064 43.12 126.744 43.32C126.434 43.51 126.144 43.735 125.874 43.995L124.689 42.81C124.939 42.56 125.184 42.34 125.424 42.15C125.674 41.96 125.934 41.805 126.204 41.685C126.484 41.555 126.774 41.46 127.074 41.4C127.384 41.33 127.724 41.295 128.094 41.295C128.594 41.295 129.049 41.37 129.459 41.52C129.869 41.66 130.219 41.865 130.509 42.135C130.809 42.395 131.039 42.71 131.199 43.08C131.369 43.45 131.454 43.865 131.454 44.325C131.454 44.725 131.359 45.135 131.169 45.555C130.979 45.965 130.719 46.38 130.389 46.8C130.069 47.21 129.699 47.625 129.279 48.045C128.859 48.455 128.419 48.86 127.959 49.26C128.229 49.23 128.519 49.205 128.829 49.185C129.149 49.155 129.434 49.14 129.684 49.14H131.949V51H124.794V49.74ZM134.568 85.435C134.888 85.715 135.243 85.945 135.633 86.125C136.033 86.305 136.453 86.395 136.893 86.395C137.413 86.395 137.838 86.3 138.168 86.11C138.508 85.91 138.678 85.63 138.678 85.27C138.678 85.06 138.633 84.87 138.543 84.7C138.453 84.53 138.298 84.39 138.078 84.28C137.858 84.16 137.563 84.07 137.193 84.01C136.823 83.94 136.358 83.905 135.798 83.905V82.345C136.738 82.345 137.398 82.23 137.778 82C138.168 81.76 138.363 81.45 138.363 81.07C138.363 80.74 138.238 80.485 137.988 80.305C137.738 80.115 137.393 80.02 136.953 80.02C136.573 80.02 136.223 80.095 135.903 80.245C135.583 80.395 135.258 80.6 134.928 80.86L133.818 79.51C134.288 79.13 134.788 78.835 135.318 78.625C135.858 78.405 136.438 78.295 137.058 78.295C137.578 78.295 138.053 78.355 138.483 78.475C138.913 78.585 139.283 78.755 139.593 78.985C139.903 79.205 140.143 79.475 140.313 79.795C140.483 80.115 140.568 80.485 140.568 80.905C140.568 81.405 140.408 81.83 140.088 82.18C139.768 82.52 139.323 82.8 138.753 83.02V83.08C139.353 83.24 139.858 83.515 140.268 83.905C140.678 84.285 140.883 84.785 140.883 85.405C140.883 85.845 140.778 86.24 140.568 86.59C140.368 86.93 140.093 87.22 139.743 87.46C139.403 87.69 139.003 87.87 138.543 88C138.083 88.12 137.603 88.18 137.103 88.18C136.283 88.18 135.578 88.06 134.988 87.82C134.398 87.57 133.918 87.24 133.548 86.83L134.568 85.435Z" fill="#F0E442"/>
<path d="M10.285 126.585V128.76H8.08V118.56H9.88L10.045 119.31H10.09C10.39 119.04 10.735 118.82 11.125 118.65C11.515 118.47 11.91 118.38 12.31 118.38C12.77 118.38 13.185 118.47 13.555 118.65C13.925 118.83 14.24 119.085 14.5 119.415C14.76 119.745 14.955 120.145 15.085 120.615C15.225 121.075 15.295 121.59 15.295 122.16C15.295 122.8 15.205 123.37 15.025 123.87C14.845 124.36 14.605 124.78 14.305 125.13C14.005 125.47 13.66 125.73 13.27 125.91C12.89 126.09 12.49 126.18 12.07 126.18C11.39 126.18 10.77 125.91 10.21 125.37L10.285 126.585ZM10.285 123.885C10.495 124.065 10.71 124.195 10.93 124.275C11.16 124.345 11.37 124.38 11.56 124.38C11.98 124.38 12.33 124.21 12.61 123.87C12.89 123.52 13.03 122.96 13.03 122.19C13.03 120.85 12.575 120.18 11.665 120.18C11.195 120.18 10.735 120.41 10.285 120.87V123.885ZM17.7341 118.56H19.5341L19.7141 120.18H19.7591C20.1291 119.57 20.5741 119.12 21.0941 118.83C21.6141 118.53 22.1741 118.38 22.7741 118.38C23.1041 118.38 23.3691 118.405 23.5691 118.455C23.7791 118.505 23.9941 118.58 24.2141 118.68L23.7641 120.525C23.5341 120.455 23.3241 120.405 23.1341 120.375C22.9541 120.335 22.7241 120.315 22.4441 120.315C21.9841 120.315 21.5291 120.45 21.0791 120.72C20.6391 120.99 20.2591 121.46 19.9391 122.13V126H17.7341V118.56ZM26.1733 118.56H31.3633V126H29.1583V120.285H26.1733V118.56ZM30.1633 117.465C29.7333 117.465 29.3783 117.345 29.0983 117.105C28.8283 116.865 28.6933 116.54 28.6933 116.13C28.6933 115.72 28.8283 115.39 29.0983 115.14C29.3783 114.88 29.7333 114.75 30.1633 114.75C30.5933 114.75 30.9433 114.88 31.2133 115.14C31.4933 115.39 31.6333 115.72 31.6333 116.13C31.6333 116.54 31.4933 116.865 31.2133 117.105C30.9433 117.345 30.5933 117.465 30.1633 117.465ZM35.0624 118.56H36.8624L37.0274 119.55H37.0874C37.4074 119.23 37.7724 118.955 38.1824 118.725C38.6024 118.495 39.0924 118.38 39.6524 118.38C40.4924 118.38 41.1074 118.65 41.4974 119.19C41.8874 119.73 42.0824 120.47 42.0824 121.41V126H39.8774V121.695C39.8774 121.195 39.7974 120.83 39.6374 120.6C39.4774 120.37 39.1924 120.255 38.7824 120.255C38.4824 120.255 38.2174 120.32 37.9874 120.45C37.7674 120.58 37.5274 120.775 37.2674 121.035V126H35.0624V118.56ZM45.5866 120.285H43.7116V118.65L45.6916 118.56L45.9766 116.58H47.7916V118.56H50.9416V120.285H47.7916V122.895C47.7916 123.465 47.9166 123.87 48.1666 124.11C48.4166 124.34 48.8116 124.455 49.3516 124.455C49.6416 124.455 49.9066 124.43 50.1466 124.38C50.3866 124.33 50.6166 124.265 50.8366 124.185L51.2266 125.775C50.8966 125.875 50.5266 125.965 50.1166 126.045C49.7166 126.135 49.2766 126.18 48.7966 126.18C48.2066 126.18 47.7066 126.1 47.2966 125.94C46.8866 125.78 46.5516 125.56 46.2916 125.28C46.0416 124.99 45.8616 124.645 45.7516 124.245C45.6416 123.845 45.5866 123.4 45.5866 122.91V120.285ZM10.285 145.585V147.76H8.08V137.56H9.88L10.045 138.31H10.09C10.39 138.04 10.735 137.82 11.125 137.65C11.515 137.47 11.91 137.38 12.31 137.38C12.77 137.38 13.185 137.47 13.555 137.65C13.925 137.83 14.24 138.085 14.5 138.415C14.76 138.745 14.955 139.145 15.085 139.615C15.225 140.075 15.295 140.59 15.295 141.16C15.295 141.8 15.205 142.37 15.025 142.87C14.845 143.36 14.605 143.78 14.305 144.13C14.005 144.47 13.66 144.73 13.27 144.91C12.89 145.09 12.49 145.18 12.07 145.18C11.39 145.18 10.77 144.91 10.21 144.37L10.285 145.585ZM10.285 142.885C10.495 143.065 10.71 143.195 10.93 143.275C11.16 143.345 11.37 143.38 11.56 143.38C11.98 143.38 12.33 143.21 12.61 142.87C12.89 142.52 13.03 141.96 13.03 141.19C13.03 139.85 12.575 139.18 11.665 139.18C11.195 139.18 10.735 139.41 10.285 139.87V142.885ZM17.7341 137.56H19.5341L19.7141 139.18H19.7591C20.1291 138.57 20.5741 138.12 21.0941 137.83C21.6141 137.53 22.1741 137.38 22.7741 137.38C23.1041 137.38 23.3691 137.405 23.5691 137.455C23.7791 137.505 23.9941 137.58 24.2141 137.68L23.7641 139.525C23.5341 139.455 23.3241 139.405 23.1341 139.375C22.9541 139.335 22.7241 139.315 22.4441 139.315C21.9841 139.315 21.5291 139.45 21.0791 139.72C20.6391 139.99 20.2591 140.46 19.9391 141.13V145H17.7341V137.56ZM26.1733 137.56H31.3633V145H29.1583V139.285H26.1733V137.56ZM30.1633 136.465C29.7333 136.465 29.3783 136.345 29.0983 136.105C28.8283 135.865 28.6933 135.54 28.6933 135.13C28.6933 134.72 28.8283 134.39 29.0983 134.14C29.3783 133.88 29.7333 133.75 30.1633 133.75C30.5933 133.75 30.9433 133.88 31.2133 134.14C31.4933 134.39 31.6333 134.72 31.6333 135.13C31.6333 135.54 31.4933 135.865 31.2133 136.105C30.9433 136.345 30.5933 136.465 30.1633 136.465ZM35.0624 137.56H36.8624L37.0274 138.55H37.0874C37.4074 138.23 37.7724 137.955 38.1824 137.725C38.6024 137.495 39.0924 137.38 39.6524 137.38C40.4924 137.38 41.1074 137.65 41.4974 138.19C41.8874 138.73 42.0824 139.47 42.0824 140.41V145H39.8774V140.695C39.8774 140.195 39.7974 139.83 39.6374 139.6C39.4774 139.37 39.1924 139.255 38.7824 139.255C38.4824 139.255 38.2174 139.32 37.9874 139.45C37.7674 139.58 37.5274 139.775 37.2674 140.035V145H35.0624V137.56ZM45.5866 139.285H43.7116V137.65L45.6916 137.56L45.9766 135.58H47.7916V137.56H50.9416V139.285H47.7916V141.895C47.7916 142.465 47.9166 142.87 48.1666 143.11C48.4166 143.34 48.8116 143.455 49.3516 143.455C49.6416 143.455 49.9066 143.43 50.1466 143.38C50.3866 143.33 50.6166 143.265 50.8366 143.185L51.2266 144.775C50.8966 144.875 50.5266 144.965 50.1166 145.045C49.7166 145.135 49.2766 145.18 48.7966 145.18C48.2066 145.18 47.7066 145.1 47.2966 144.94C46.8866 144.78 46.5516 144.56 46.2916 144.28C46.0416 143.99 45.8616 143.645 45.7516 143.245C45.6416 142.845 45.5866 142.4 45.5866 141.91V139.285Z" fill="#56B4E9"/>
</svg>
