<svg width="143" height="73" viewBox="0 0 143 73" fill="none" xmlns="http://www.w3.org/2000/svg">
<rect width="143" height="73" fill="black"/>
<rect x="79" width="64" height="31" fill="#333333"/>
<rect x="79" width="64" height="31" fill="#333333"/>
<rect width="79" height="31" fill="#090808"/>
<path d="M12.105 17.8101C12.105 17.5513 11.9756 17.3486 11.7168 17.2021C11.4629 17.0508 11.0527 16.9165 10.4863 16.7993C8.60156 16.4038 7.65918 15.603 7.65918 14.397C7.65918 13.6938 7.94971 13.1079 8.53076 12.6392C9.1167 12.1655 9.88086 11.9287 10.8232 11.9287C11.8291 11.9287 12.6323 12.1655 13.2329 12.6392C13.8384 13.1128 14.1411 13.728 14.1411 14.4849H12.0244C12.0244 14.1821 11.9268 13.9331 11.7314 13.7378C11.5361 13.5376 11.231 13.4375 10.8159 13.4375C10.4595 13.4375 10.1836 13.5181 9.98828 13.6792C9.79297 13.8403 9.69531 14.0454 9.69531 14.2944C9.69531 14.5288 9.80518 14.7192 10.0249 14.8657C10.2495 15.0073 10.6255 15.1318 11.1528 15.2393C11.6802 15.3418 12.1245 15.459 12.4858 15.5908C13.604 16.001 14.1631 16.7114 14.1631 17.7222C14.1631 18.4448 13.853 19.0308 13.2329 19.48C12.6128 19.9243 11.812 20.1465 10.8306 20.1465C10.1665 20.1465 9.57568 20.0293 9.05811 19.7949C8.54541 19.5557 8.14258 19.231 7.84961 18.8208C7.55664 18.4058 7.41016 17.959 7.41016 17.4805H9.41699C9.43652 17.8564 9.57568 18.1445 9.83447 18.3447C10.0933 18.5449 10.4399 18.645 10.8745 18.645C11.2798 18.645 11.585 18.5693 11.79 18.418C12 18.2617 12.105 18.0591 12.105 17.8101ZM18.8286 18.4399C19.2192 18.4399 19.5366 18.3325 19.7808 18.1177C20.0249 17.9028 20.1519 17.6172 20.1616 17.2607H22.1465C22.1416 17.7979 21.9951 18.291 21.707 18.7402C21.4189 19.1846 21.0234 19.5312 20.5205 19.7803C20.0225 20.0244 19.4707 20.1465 18.8652 20.1465C17.7324 20.1465 16.8389 19.7876 16.1846 19.0698C15.5303 18.3472 15.2031 17.3511 15.2031 16.0815V15.9424C15.2031 14.7217 15.5278 13.7476 16.1772 13.02C16.8267 12.2925 17.7178 11.9287 18.8506 11.9287C19.8418 11.9287 20.6353 12.2119 21.231 12.7783C21.8315 13.3398 22.1367 14.0894 22.1465 15.0269H20.1616C20.1519 14.6167 20.0249 14.2847 19.7808 14.0308C19.5366 13.772 19.2144 13.6426 18.814 13.6426C18.3208 13.6426 17.9473 13.8232 17.6934 14.1846C17.4443 14.541 17.3198 15.1221 17.3198 15.9277V16.1475C17.3198 16.9629 17.4443 17.5488 17.6934 17.9053C17.9424 18.2617 18.3208 18.4399 18.8286 18.4399ZM27.8081 14.0601C27.52 14.021 27.2661 14.0015 27.0464 14.0015C26.2456 14.0015 25.7207 14.2725 25.4717 14.8145V20H23.355V12.0752H25.3545L25.4131 13.02C25.8379 12.2925 26.4263 11.9287 27.1782 11.9287C27.4126 11.9287 27.6323 11.9604 27.8374 12.0239L27.8081 14.0601ZM31.0674 20H28.9434V12.0752H31.0674V20ZM28.8188 10.0244C28.8188 9.70703 28.9238 9.4458 29.1338 9.24072C29.3486 9.03564 29.6392 8.93311 30.0054 8.93311C30.3667 8.93311 30.6548 9.03564 30.8696 9.24072C31.0845 9.4458 31.1919 9.70703 31.1919 10.0244C31.1919 10.3467 31.082 10.6104 30.8623 10.8154C30.6475 11.0205 30.3618 11.123 30.0054 11.123C29.6489 11.123 29.3608 11.0205 29.1411 10.8154C28.9263 10.6104 28.8188 10.3467 28.8188 10.0244ZM39.9517 16.1108C39.9517 17.3315 39.6733 18.3105 39.1167 19.0479C38.5649 19.7803 37.8179 20.1465 36.8755 20.1465C36.0747 20.1465 35.4277 19.8682 34.9346 19.3115V23.0469H32.8179V12.0752H34.7808L34.854 12.8516C35.3667 12.2363 36.0356 11.9287 36.8608 11.9287C37.8374 11.9287 38.5967 12.29 39.1387 13.0127C39.6807 13.7354 39.9517 14.7314 39.9517 16.001V16.1108ZM37.835 15.957C37.835 15.2197 37.7031 14.6509 37.4395 14.2505C37.1807 13.8501 36.8022 13.6499 36.3042 13.6499C35.6401 13.6499 35.1836 13.9038 34.9346 14.4116V17.6562C35.1934 18.1787 35.6548 18.4399 36.3188 18.4399C37.3296 18.4399 37.835 17.6123 37.835 15.957ZM43.8042 10.127V12.0752H45.1592V13.6279H43.8042V17.583C43.8042 17.876 43.8604 18.0859 43.9727 18.2129C44.085 18.3398 44.2998 18.4033 44.6172 18.4033C44.8516 18.4033 45.0591 18.3862 45.2397 18.3521V19.9561C44.8247 20.083 44.3975 20.1465 43.958 20.1465C42.4736 20.1465 41.7168 19.397 41.6875 17.8979V13.6279H40.5303V12.0752H41.6875V10.127H43.8042ZM46.4482 18.96C46.4482 18.623 46.5605 18.3496 46.7852 18.1396C47.0146 17.9297 47.3003 17.8247 47.6421 17.8247C47.9888 17.8247 48.2744 17.9297 48.499 18.1396C48.7285 18.3496 48.8433 18.623 48.8433 18.96C48.8433 19.292 48.731 19.563 48.5063 19.7729C48.2817 19.978 47.9937 20.0806 47.6421 20.0806C47.2954 20.0806 47.0098 19.978 46.7852 19.7729C46.5605 19.563 46.4482 19.292 46.4482 18.96ZM57.8374 16.1108C57.8374 17.3315 57.5591 18.3105 57.0024 19.0479C56.4507 19.7803 55.7036 20.1465 54.7612 20.1465C53.9604 20.1465 53.3135 19.8682 52.8203 19.3115V23.0469H50.7036V12.0752H52.6665L52.7397 12.8516C53.2524 12.2363 53.9214 11.9287 54.7466 11.9287C55.7231 11.9287 56.4824 12.29 57.0244 13.0127C57.5664 13.7354 57.8374 14.7314 57.8374 16.001V16.1108ZM55.7207 15.957C55.7207 15.2197 55.5889 14.6509 55.3252 14.2505C55.0664 13.8501 54.688 13.6499 54.1899 13.6499C53.5259 13.6499 53.0693 13.9038 52.8203 14.4116V17.6562C53.0791 18.1787 53.5405 18.4399 54.2046 18.4399C55.2153 18.4399 55.7207 17.6123 55.7207 15.957ZM62.0269 17.0044L63.4917 12.0752H65.7622L62.5762 21.2305L62.4004 21.6479C61.9268 22.6831 61.1455 23.2007 60.0566 23.2007C59.749 23.2007 59.4365 23.1543 59.1191 23.0615V21.4575L59.4414 21.4648C59.8418 21.4648 60.1396 21.4038 60.335 21.2817C60.5352 21.1597 60.6914 20.957 60.8037 20.6738L61.0527 20.022L58.2769 12.0752H60.5547L62.0269 17.0044Z" fill="white"/>
<path d="M7.915 48.93C7.915 48.51 8.005 48.145 8.185 47.835C8.365 47.515 8.65 47.245 9.04 47.025C9.44 46.805 9.95 46.63 10.57 46.5C11.19 46.36 11.94 46.265 12.82 46.215C12.78 45.875 12.63 45.61 12.37 45.42C12.12 45.23 11.74 45.135 11.23 45.135C10.87 45.135 10.505 45.2 10.135 45.33C9.775 45.45 9.385 45.615 8.965 45.825L8.185 44.385C8.695 44.095 9.24 43.855 9.82 43.665C10.41 43.475 11.025 43.38 11.665 43.38C12.705 43.38 13.525 43.655 14.125 44.205C14.725 44.755 15.025 45.6 15.025 46.74V51H13.225L13.06 50.16H13C12.62 50.45 12.205 50.695 11.755 50.895C11.305 51.085 10.84 51.18 10.36 51.18C9.98 51.18 9.64 51.12 9.34 51C9.04 50.89 8.785 50.735 8.575 50.535C8.365 50.325 8.2 50.085 8.08 49.815C7.97 49.545 7.915 49.25 7.915 48.93ZM10.03 48.765C10.03 49.005 10.12 49.185 10.3 49.305C10.49 49.415 10.745 49.47 11.065 49.47C11.395 49.47 11.705 49.405 11.995 49.275C12.285 49.135 12.56 48.965 12.82 48.765V47.535C12.27 47.565 11.815 47.615 11.455 47.685C11.095 47.755 10.81 47.845 10.6 47.955C10.39 48.055 10.24 48.175 10.15 48.315C10.07 48.455 10.03 48.605 10.03 48.765ZM26.0383 43.53H32.9383V45.09H26.0383V43.53ZM26.0383 46.995H32.9383V48.555H26.0383V46.995Z" fill="white"/>
<path d="M44.6566 48.45C44.9766 48.71 45.3166 48.935 45.6766 49.125C46.0466 49.305 46.4566 49.395 46.9066 49.395C47.4466 49.395 47.8866 49.27 48.2266 49.02C48.5766 48.77 48.7516 48.4 48.7516 47.91C48.7516 47.43 48.5866 47.065 48.2566 46.815C47.9366 46.565 47.5216 46.44 47.0116 46.44C46.8516 46.44 46.7066 46.45 46.5766 46.47C46.4566 46.48 46.3366 46.505 46.2166 46.545C46.0966 46.585 45.9716 46.635 45.8416 46.695C45.7116 46.755 45.5666 46.83 45.4066 46.92L44.4316 46.29L44.6866 41.475H50.5216V43.335H46.5916L46.4266 45.12C46.6466 45.04 46.8516 44.985 47.0416 44.955C47.2316 44.915 47.4466 44.895 47.6866 44.895C48.1266 44.895 48.5416 44.955 48.9316 45.075C49.3316 45.195 49.6816 45.375 49.9816 45.615C50.2816 45.855 50.5166 46.16 50.6866 46.53C50.8666 46.9 50.9566 47.34 50.9566 47.85C50.9566 48.38 50.8516 48.85 50.6416 49.26C50.4416 49.67 50.1666 50.02 49.8166 50.31C49.4766 50.59 49.0816 50.805 48.6316 50.955C48.1816 51.105 47.7116 51.18 47.2216 51.18C46.3916 51.18 45.6866 51.055 45.1066 50.805C44.5366 50.545 44.0566 50.225 43.6666 49.845L44.6566 48.45Z" fill="#F0E442"/>
</svg>
