<svg width="228" height="237" viewBox="0 0 228 237" fill="none" xmlns="http://www.w3.org/2000/svg">
<rect width="228" height="237" fill="black"/>
<line y1="160.5" x2="228" y2="160.5" stroke="white"/>
<path d="M11.5004 181.68C10.9204 181.68 10.3854 181.565 9.8954 181.335C9.4154 181.095 9.0004 180.755 8.6504 180.315C8.3104 179.875 8.0454 179.34 7.8554 178.71C7.6654 178.08 7.5704 177.365 7.5704 176.565C7.5704 175.765 7.6654 175.055 7.8554 174.435C8.0454 173.805 8.3104 173.28 8.6504 172.86C9.0004 172.43 9.4154 172.105 9.8954 171.885C10.3854 171.655 10.9204 171.54 11.5004 171.54C12.0804 171.54 12.6104 171.655 13.0904 171.885C13.5804 172.105 13.9954 172.43 14.3354 172.86C14.6854 173.29 14.9554 173.82 15.1454 174.45C15.3354 175.07 15.4304 175.775 15.4304 176.565C15.4304 177.365 15.3354 178.08 15.1454 178.71C14.9554 179.34 14.6854 179.875 14.3354 180.315C13.9954 180.755 13.5804 181.095 13.0904 181.335C12.6104 181.565 12.0804 181.68 11.5004 181.68ZM11.5004 179.775C12.0104 179.775 12.4154 179.49 12.7154 178.92C13.0154 178.34 13.1654 177.555 13.1654 176.565C13.1654 175.585 13.0154 174.82 12.7154 174.27C12.4154 173.72 12.0104 173.445 11.5004 173.445C10.9904 173.445 10.5854 173.72 10.2854 174.27C9.9854 174.82 9.8354 175.585 9.8354 176.565C9.8354 177.555 9.9854 178.34 10.2854 178.92C10.5854 179.49 10.9904 179.775 11.5004 179.775ZM23.8695 181.5H22.0695L21.9045 180.435H21.8445C21.5145 180.815 21.1495 181.12 20.7495 181.35C20.3495 181.57 19.8795 181.68 19.3395 181.68C18.4895 181.68 17.8745 181.41 17.4945 180.87C17.1145 180.33 16.9245 179.59 16.9245 178.65V174.06H19.1295V178.365C19.1295 178.865 19.2045 179.23 19.3545 179.46C19.5045 179.69 19.7895 179.805 20.2095 179.805C20.4895 179.805 20.7345 179.745 20.9445 179.625C21.1645 179.505 21.4045 179.28 21.6645 178.95V174.06H23.8695V181.5ZM27.5987 175.785H25.7237V174.15L27.7037 174.06L27.9887 172.08H29.8037V174.06H32.9537V175.785H29.8037V178.395C29.8037 178.965 29.9287 179.37 30.1787 179.61C30.4287 179.84 30.8237 179.955 31.3637 179.955C31.6537 179.955 31.9187 179.93 32.1587 179.88C32.3987 179.83 32.6287 179.765 32.8487 179.685L33.2387 181.275C32.9087 181.375 32.5387 181.465 32.1287 181.545C31.7287 181.635 31.2887 181.68 30.8087 181.68C30.2187 181.68 29.7187 181.6 29.3087 181.44C28.8987 181.28 28.5637 181.06 28.3037 180.78C28.0537 180.49 27.8737 180.145 27.7637 179.745C27.6537 179.345 27.5987 178.9 27.5987 178.41V175.785ZM37.2678 182.085V184.26H35.0628V174.06H36.8628L37.0278 174.81H37.0728C37.3728 174.54 37.7178 174.32 38.1078 174.15C38.4978 173.97 38.8928 173.88 39.2928 173.88C39.7528 173.88 40.1678 173.97 40.5378 174.15C40.9078 174.33 41.2228 174.585 41.4828 174.915C41.7428 175.245 41.9378 175.645 42.0678 176.115C42.2078 176.575 42.2778 177.09 42.2778 177.66C42.2778 178.3 42.1878 178.87 42.0078 179.37C41.8278 179.86 41.5878 180.28 41.2878 180.63C40.9878 180.97 40.6428 181.23 40.2528 181.41C39.8728 181.59 39.4728 181.68 39.0528 181.68C38.3728 181.68 37.7528 181.41 37.1928 180.87L37.2678 182.085ZM37.2678 179.385C37.4778 179.565 37.6928 179.695 37.9128 179.775C38.1428 179.845 38.3528 179.88 38.5428 179.88C38.9628 179.88 39.3128 179.71 39.5928 179.37C39.8728 179.02 40.0128 178.46 40.0128 177.69C40.0128 176.35 39.5578 175.68 38.6478 175.68C38.1778 175.68 37.7178 175.91 37.2678 176.37V179.385ZM50.852 181.5H49.052L48.887 180.435H48.827C48.497 180.815 48.132 181.12 47.732 181.35C47.332 181.57 46.862 181.68 46.322 181.68C45.472 181.68 44.857 181.41 44.477 180.87C44.097 180.33 43.907 179.59 43.907 178.65V174.06H46.112V178.365C46.112 178.865 46.187 179.23 46.337 179.46C46.487 179.69 46.772 179.805 47.192 179.805C47.472 179.805 47.717 179.745 47.927 179.625C48.147 179.505 48.387 179.28 48.647 178.95V174.06H50.852V181.5ZM54.5811 175.785H52.7061V174.15L54.6861 174.06L54.9711 172.08H56.7861V174.06H59.9361V175.785H56.7861V178.395C56.7861 178.965 56.9111 179.37 57.1611 179.61C57.4111 179.84 57.8061 179.955 58.3461 179.955C58.6361 179.955 58.9011 179.93 59.1411 179.88C59.3811 179.83 59.6111 179.765 59.8311 179.685L60.2211 181.275C59.8911 181.375 59.5211 181.465 59.1111 181.545C58.7111 181.635 58.2711 181.68 57.7911 181.68C57.2011 181.68 56.7011 181.6 56.2911 181.44C55.8811 181.28 55.5461 181.06 55.2861 180.78C55.0361 180.49 54.8561 180.145 54.7461 179.745C54.6361 179.345 54.5811 178.9 54.5811 178.41V175.785Z" fill="white"/>
<path d="M11.71 204.53C11.9 204.53 12.08 204.5 12.25 204.44C12.43 204.38 12.585 204.29 12.715 204.17C12.855 204.04 12.965 203.88 13.045 203.69C13.125 203.49 13.165 203.255 13.165 202.985C13.165 202.495 13.035 202.145 12.775 201.935C12.515 201.715 12.175 201.605 11.755 201.605C11.475 201.605 11.185 201.675 10.885 201.815C10.585 201.955 10.29 202.195 10 202.535C10.06 202.915 10.145 203.235 10.255 203.495C10.375 203.745 10.51 203.95 10.66 204.11C10.81 204.26 10.975 204.37 11.155 204.44C11.335 204.5 11.52 204.53 11.71 204.53ZM13.885 198.755C13.685 198.575 13.435 198.42 13.135 198.29C12.835 198.15 12.525 198.08 12.205 198.08C11.915 198.08 11.635 198.135 11.365 198.245C11.105 198.345 10.87 198.515 10.66 198.755C10.46 198.985 10.295 199.29 10.165 199.67C10.035 200.05 9.96 200.52 9.94 201.08C10.28 200.75 10.655 200.495 11.065 200.315C11.485 200.135 11.875 200.045 12.235 200.045C12.655 200.045 13.04 200.105 13.39 200.225C13.75 200.345 14.06 200.525 14.32 200.765C14.59 201.005 14.8 201.31 14.95 201.68C15.1 202.05 15.175 202.485 15.175 202.985C15.175 203.485 15.08 203.93 14.89 204.32C14.71 204.71 14.46 205.045 14.14 205.325C13.83 205.605 13.47 205.82 13.06 205.97C12.65 206.11 12.215 206.18 11.755 206.18C11.265 206.18 10.79 206.09 10.33 205.91C9.87 205.73 9.46 205.45 9.1 205.07C8.74 204.69 8.45 204.205 8.23 203.615C8.01 203.015 7.9 202.295 7.9 201.455C7.9 200.565 8.015 199.795 8.245 199.145C8.475 198.495 8.78 197.96 9.16 197.54C9.55 197.12 9.99 196.81 10.48 196.61C10.97 196.4 11.48 196.295 12.01 196.295C12.69 196.295 13.285 196.41 13.795 196.64C14.305 196.86 14.72 197.125 15.04 197.435L13.885 198.755ZM8.68 222.45C9 222.71 9.34 222.935 9.7 223.125C10.07 223.305 10.48 223.395 10.93 223.395C11.47 223.395 11.91 223.27 12.25 223.02C12.6 222.77 12.775 222.4 12.775 221.91C12.775 221.43 12.61 221.065 12.28 220.815C11.96 220.565 11.545 220.44 11.035 220.44C10.875 220.44 10.73 220.45 10.6 220.47C10.48 220.48 10.36 220.505 10.24 220.545C10.12 220.585 9.995 220.635 9.865 220.695C9.735 220.755 9.59 220.83 9.43 220.92L8.455 220.29L8.71 215.475H14.545V217.335H10.615L10.45 219.12C10.67 219.04 10.875 218.985 11.065 218.955C11.255 218.915 11.47 218.895 11.71 218.895C12.15 218.895 12.565 218.955 12.955 219.075C13.355 219.195 13.705 219.375 14.005 219.615C14.305 219.855 14.54 220.16 14.71 220.53C14.89 220.9 14.98 221.34 14.98 221.85C14.98 222.38 14.875 222.85 14.665 223.26C14.465 223.67 14.19 224.02 13.84 224.31C13.5 224.59 13.105 224.805 12.655 224.955C12.205 225.105 11.735 225.18 11.245 225.18C10.415 225.18 9.71 225.055 9.13 224.805C8.56 224.545 8.08 224.225 7.69 223.845L8.68 222.45Z" fill="white"/>
<rect x="79" width="149" height="31" fill="#333333"/>
<rect x="79" width="149" height="31" fill="#333333"/>
<rect width="79" height="31" fill="#090808"/>
<path d="M12.105 17.8101C12.105 17.5513 11.9756 17.3486 11.7168 17.2021C11.4629 17.0508 11.0527 16.9165 10.4863 16.7993C8.60156 16.4038 7.65918 15.603 7.65918 14.397C7.65918 13.6938 7.94971 13.1079 8.53076 12.6392C9.1167 12.1655 9.88086 11.9287 10.8232 11.9287C11.8291 11.9287 12.6323 12.1655 13.2329 12.6392C13.8384 13.1128 14.1411 13.728 14.1411 14.4849H12.0244C12.0244 14.1821 11.9268 13.9331 11.7314 13.7378C11.5361 13.5376 11.231 13.4375 10.8159 13.4375C10.4595 13.4375 10.1836 13.5181 9.98828 13.6792C9.79297 13.8403 9.69531 14.0454 9.69531 14.2944C9.69531 14.5288 9.80518 14.7192 10.0249 14.8657C10.2495 15.0073 10.6255 15.1318 11.1528 15.2393C11.6802 15.3418 12.1245 15.459 12.4858 15.5908C13.604 16.001 14.1631 16.7114 14.1631 17.7222C14.1631 18.4448 13.853 19.0308 13.2329 19.48C12.6128 19.9243 11.812 20.1465 10.8306 20.1465C10.1665 20.1465 9.57568 20.0293 9.05811 19.7949C8.54541 19.5557 8.14258 19.231 7.84961 18.8208C7.55664 18.4058 7.41016 17.959 7.41016 17.4805H9.41699C9.43652 17.8564 9.57568 18.1445 9.83447 18.3447C10.0933 18.5449 10.4399 18.645 10.8745 18.645C11.2798 18.645 11.585 18.5693 11.79 18.418C12 18.2617 12.105 18.0591 12.105 17.8101ZM18.8286 18.4399C19.2192 18.4399 19.5366 18.3325 19.7808 18.1177C20.0249 17.9028 20.1519 17.6172 20.1616 17.2607H22.1465C22.1416 17.7979 21.9951 18.291 21.707 18.7402C21.4189 19.1846 21.0234 19.5312 20.5205 19.7803C20.0225 20.0244 19.4707 20.1465 18.8652 20.1465C17.7324 20.1465 16.8389 19.7876 16.1846 19.0698C15.5303 18.3472 15.2031 17.3511 15.2031 16.0815V15.9424C15.2031 14.7217 15.5278 13.7476 16.1772 13.02C16.8267 12.2925 17.7178 11.9287 18.8506 11.9287C19.8418 11.9287 20.6353 12.2119 21.231 12.7783C21.8315 13.3398 22.1367 14.0894 22.1465 15.0269H20.1616C20.1519 14.6167 20.0249 14.2847 19.7808 14.0308C19.5366 13.772 19.2144 13.6426 18.814 13.6426C18.3208 13.6426 17.9473 13.8232 17.6934 14.1846C17.4443 14.541 17.3198 15.1221 17.3198 15.9277V16.1475C17.3198 16.9629 17.4443 17.5488 17.6934 17.9053C17.9424 18.2617 18.3208 18.4399 18.8286 18.4399ZM27.8081 14.0601C27.52 14.021 27.2661 14.0015 27.0464 14.0015C26.2456 14.0015 25.7207 14.2725 25.4717 14.8145V20H23.355V12.0752H25.3545L25.4131 13.02C25.8379 12.2925 26.4263 11.9287 27.1782 11.9287C27.4126 11.9287 27.6323 11.9604 27.8374 12.0239L27.8081 14.0601ZM31.0674 20H28.9434V12.0752H31.0674V20ZM28.8188 10.0244C28.8188 9.70703 28.9238 9.4458 29.1338 9.24072C29.3486 9.03564 29.6392 8.93311 30.0054 8.93311C30.3667 8.93311 30.6548 9.03564 30.8696 9.24072C31.0845 9.4458 31.1919 9.70703 31.1919 10.0244C31.1919 10.3467 31.082 10.6104 30.8623 10.8154C30.6475 11.0205 30.3618 11.123 30.0054 11.123C29.6489 11.123 29.3608 11.0205 29.1411 10.8154C28.9263 10.6104 28.8188 10.3467 28.8188 10.0244ZM39.9517 16.1108C39.9517 17.3315 39.6733 18.3105 39.1167 19.0479C38.5649 19.7803 37.8179 20.1465 36.8755 20.1465C36.0747 20.1465 35.4277 19.8682 34.9346 19.3115V23.0469H32.8179V12.0752H34.7808L34.854 12.8516C35.3667 12.2363 36.0356 11.9287 36.8608 11.9287C37.8374 11.9287 38.5967 12.29 39.1387 13.0127C39.6807 13.7354 39.9517 14.7314 39.9517 16.001V16.1108ZM37.835 15.957C37.835 15.2197 37.7031 14.6509 37.4395 14.2505C37.1807 13.8501 36.8022 13.6499 36.3042 13.6499C35.6401 13.6499 35.1836 13.9038 34.9346 14.4116V17.6562C35.1934 18.1787 35.6548 18.4399 36.3188 18.4399C37.3296 18.4399 37.835 17.6123 37.835 15.957ZM43.8042 10.127V12.0752H45.1592V13.6279H43.8042V17.583C43.8042 17.876 43.8604 18.0859 43.9727 18.2129C44.085 18.3398 44.2998 18.4033 44.6172 18.4033C44.8516 18.4033 45.0591 18.3862 45.2397 18.3521V19.9561C44.8247 20.083 44.3975 20.1465 43.958 20.1465C42.4736 20.1465 41.7168 19.397 41.6875 17.8979V13.6279H40.5303V12.0752H41.6875V10.127H43.8042ZM46.4482 18.96C46.4482 18.623 46.5605 18.3496 46.7852 18.1396C47.0146 17.9297 47.3003 17.8247 47.6421 17.8247C47.9888 17.8247 48.2744 17.9297 48.499 18.1396C48.7285 18.3496 48.8433 18.623 48.8433 18.96C48.8433 19.292 48.731 19.563 48.5063 19.7729C48.2817 19.978 47.9937 20.0806 47.6421 20.0806C47.2954 20.0806 47.0098 19.978 46.7852 19.7729C46.5605 19.563 46.4482 19.292 46.4482 18.96ZM57.8374 16.1108C57.8374 17.3315 57.5591 18.3105 57.0024 19.0479C56.4507 19.7803 55.7036 20.1465 54.7612 20.1465C53.9604 20.1465 53.3135 19.8682 52.8203 19.3115V23.0469H50.7036V12.0752H52.6665L52.7397 12.8516C53.2524 12.2363 53.9214 11.9287 54.7466 11.9287C55.7231 11.9287 56.4824 12.29 57.0244 13.0127C57.5664 13.7354 57.8374 14.7314 57.8374 16.001V16.1108ZM55.7207 15.957C55.7207 15.2197 55.5889 14.6509 55.3252 14.2505C55.0664 13.8501 54.688 13.6499 54.1899 13.6499C53.5259 13.6499 53.0693 13.9038 52.8203 14.4116V17.6562C53.0791 18.1787 53.5405 18.4399 54.2046 18.4399C55.2153 18.4399 55.7207 17.6123 55.7207 15.957ZM62.0269 17.0044L63.4917 12.0752H65.7622L62.5762 21.2305L62.4004 21.6479C61.9268 22.6831 61.1455 23.2007 60.0566 23.2007C59.749 23.2007 59.4365 23.1543 59.1191 23.0615V21.4575L59.4414 21.4648C59.8418 21.4648 60.1396 21.4038 60.335 21.2817C60.5352 21.1597 60.6914 20.957 60.8037 20.6738L61.0527 20.022L58.2769 12.0752H60.5547L62.0269 17.0044Z" fill="white"/>
<path d="M7.915 48.93C7.915 48.51 8.005 48.145 8.185 47.835C8.365 47.515 8.65 47.245 9.04 47.025C9.44 46.805 9.95 46.63 10.57 46.5C11.19 46.36 11.94 46.265 12.82 46.215C12.78 45.875 12.63 45.61 12.37 45.42C12.12 45.23 11.74 45.135 11.23 45.135C10.87 45.135 10.505 45.2 10.135 45.33C9.775 45.45 9.385 45.615 8.965 45.825L8.185 44.385C8.695 44.095 9.24 43.855 9.82 43.665C10.41 43.475 11.025 43.38 11.665 43.38C12.705 43.38 13.525 43.655 14.125 44.205C14.725 44.755 15.025 45.6 15.025 46.74V51H13.225L13.06 50.16H13C12.62 50.45 12.205 50.695 11.755 50.895C11.305 51.085 10.84 51.18 10.36 51.18C9.98 51.18 9.64 51.12 9.34 51C9.04 50.89 8.785 50.735 8.575 50.535C8.365 50.325 8.2 50.085 8.08 49.815C7.97 49.545 7.915 49.25 7.915 48.93ZM10.03 48.765C10.03 49.005 10.12 49.185 10.3 49.305C10.49 49.415 10.745 49.47 11.065 49.47C11.395 49.47 11.705 49.405 11.995 49.275C12.285 49.135 12.56 48.965 12.82 48.765V47.535C12.27 47.565 11.815 47.615 11.455 47.685C11.095 47.755 10.81 47.845 10.6 47.955C10.39 48.055 10.24 48.175 10.15 48.315C10.07 48.455 10.03 48.605 10.03 48.765ZM26.0383 43.53H32.9383V45.09H26.0383V43.53ZM26.0383 46.995H32.9383V48.555H26.0383V46.995ZM8.08 59.485H10.285V62.065L10.225 63.235C10.515 62.965 10.84 62.755 11.2 62.605C11.57 62.455 11.935 62.38 12.295 62.38C12.755 62.38 13.17 62.47 13.54 62.65C13.92 62.83 14.235 63.085 14.485 63.415C14.745 63.735 14.945 64.13 15.085 64.6C15.225 65.06 15.295 65.575 15.295 66.145C15.295 66.785 15.205 67.355 15.025 67.855C14.845 68.355 14.605 68.78 14.305 69.13C14.005 69.47 13.66 69.73 13.27 69.91C12.89 70.09 12.49 70.18 12.07 70.18C11.72 70.18 11.37 70.095 11.02 69.925C10.68 69.755 10.355 69.51 10.045 69.19H9.985L9.805 70H8.08V59.485ZM10.285 67.885C10.495 68.065 10.71 68.195 10.93 68.275C11.16 68.345 11.375 68.38 11.575 68.38C11.985 68.38 12.33 68.21 12.61 67.87C12.89 67.52 13.03 66.96 13.03 66.19C13.03 64.85 12.575 64.18 11.665 64.18C11.195 64.18 10.735 64.41 10.285 64.87V67.885ZM26.0383 62.53H32.9383V64.09H26.0383V62.53ZM26.0383 65.995H32.9383V67.555H26.0383V65.995ZM43.8916 67.93C43.8916 67.51 43.9816 67.145 44.1616 66.835C44.3416 66.515 44.6266 66.245 45.0166 66.025C45.4166 65.805 45.9266 65.63 46.5466 65.5C47.1666 65.36 47.9166 65.265 48.7966 65.215C48.7566 64.875 48.6066 64.61 48.3466 64.42C48.0966 64.23 47.7166 64.135 47.2066 64.135C46.8466 64.135 46.4816 64.2 46.1116 64.33C45.7516 64.45 45.3616 64.615 44.9416 64.825L44.1616 63.385C44.6716 63.095 45.2166 62.855 45.7966 62.665C46.3866 62.475 47.0016 62.38 47.6416 62.38C48.6816 62.38 49.5016 62.655 50.1016 63.205C50.7016 63.755 51.0016 64.6 51.0016 65.74V70H49.2016L49.0366 69.16H48.9766C48.5966 69.45 48.1816 69.695 47.7316 69.895C47.2816 70.085 46.8166 70.18 46.3366 70.18C45.9566 70.18 45.6166 70.12 45.3166 70C45.0166 69.89 44.7616 69.735 44.5516 69.535C44.3416 69.325 44.1766 69.085 44.0566 68.815C43.9466 68.545 43.8916 68.25 43.8916 67.93ZM46.0066 67.765C46.0066 68.005 46.0966 68.185 46.2766 68.305C46.4666 68.415 46.7216 68.47 47.0416 68.47C47.3716 68.47 47.6816 68.405 47.9716 68.275C48.2616 68.135 48.5366 67.965 48.7966 67.765V66.535C48.2466 66.565 47.7916 66.615 47.4316 66.685C47.0716 66.755 46.7866 66.845 46.5766 66.955C46.3666 67.055 46.2166 67.175 46.1266 67.315C46.0466 67.455 46.0066 67.605 46.0066 67.765ZM7.915 85.93C7.915 85.51 8.005 85.145 8.185 84.835C8.365 84.515 8.65 84.245 9.04 84.025C9.44 83.805 9.95 83.63 10.57 83.5C11.19 83.36 11.94 83.265 12.82 83.215C12.78 82.875 12.63 82.61 12.37 82.42C12.12 82.23 11.74 82.135 11.23 82.135C10.87 82.135 10.505 82.2 10.135 82.33C9.775 82.45 9.385 82.615 8.965 82.825L8.185 81.385C8.695 81.095 9.24 80.855 9.82 80.665C10.41 80.475 11.025 80.38 11.665 80.38C12.705 80.38 13.525 80.655 14.125 81.205C14.725 81.755 15.025 82.6 15.025 83.74V88H13.225L13.06 87.16H13C12.62 87.45 12.205 87.695 11.755 87.895C11.305 88.085 10.84 88.18 10.36 88.18C9.98 88.18 9.64 88.12 9.34 88C9.04 87.89 8.785 87.735 8.575 87.535C8.365 87.325 8.2 87.085 8.08 86.815C7.97 86.545 7.915 86.25 7.915 85.93ZM10.03 85.765C10.03 86.005 10.12 86.185 10.3 86.305C10.49 86.415 10.745 86.47 11.065 86.47C11.395 86.47 11.705 86.405 11.995 86.275C12.285 86.135 12.56 85.965 12.82 85.765V84.535C12.27 84.565 11.815 84.615 11.455 84.685C11.095 84.755 10.81 84.845 10.6 84.955C10.39 85.055 10.24 85.175 10.15 85.315C10.07 85.455 10.03 85.605 10.03 85.765ZM28.6783 83.83H26.0383V82.27H28.6783V79.51H30.2983V82.27H32.9383V83.83H30.2983V86.59H28.6783V83.83ZM35.0324 80.53H41.9324V82.09H35.0324V80.53ZM35.0324 83.995H41.9324V85.555H35.0324V83.995ZM57.8507 128.685C56.8707 127.815 56.0957 126.81 55.5257 125.67C54.9657 124.53 54.6857 123.25 54.6857 121.83C54.6857 120.41 54.9657 119.13 55.5257 117.99C56.0957 116.85 56.8707 115.845 57.8507 114.975L59.0807 115.95C58.1907 116.82 57.5407 117.725 57.1307 118.665C56.7307 119.595 56.5307 120.65 56.5307 121.83C56.5307 122.42 56.5807 122.98 56.6807 123.51C56.7807 124.03 56.9307 124.53 57.1307 125.01C57.3407 125.49 57.6057 125.95 57.9257 126.39C58.2457 126.84 58.6307 127.28 59.0807 127.71L57.8507 128.685ZM61.8798 123.93C61.8798 123.51 61.9698 123.145 62.1498 122.835C62.3298 122.515 62.6148 122.245 63.0048 122.025C63.4048 121.805 63.9148 121.63 64.5348 121.5C65.1548 121.36 65.9048 121.265 66.7848 121.215C66.7448 120.875 66.5948 120.61 66.3348 120.42C66.0848 120.23 65.7048 120.135 65.1948 120.135C64.8348 120.135 64.4698 120.2 64.0998 120.33C63.7398 120.45 63.3498 120.615 62.9298 120.825L62.1498 119.385C62.6598 119.095 63.2048 118.855 63.7848 118.665C64.3748 118.475 64.9898 118.38 65.6298 118.38C66.6698 118.38 67.4898 118.655 68.0898 119.205C68.6898 119.755 68.9898 120.6 68.9898 121.74V126H67.1898L67.0248 125.16H66.9648C66.5848 125.45 66.1698 125.695 65.7198 125.895C65.2698 126.085 64.8048 126.18 64.3248 126.18C63.9448 126.18 63.6048 126.12 63.3048 126C63.0048 125.89 62.7498 125.735 62.5398 125.535C62.3298 125.325 62.1648 125.085 62.0448 124.815C61.9348 124.545 61.8798 124.25 61.8798 123.93ZM63.9948 123.765C63.9948 124.005 64.0848 124.185 64.2648 124.305C64.4548 124.415 64.7098 124.47 65.0298 124.47C65.3598 124.47 65.6698 124.405 65.9598 124.275C66.2498 124.135 66.5248 123.965 66.7848 123.765V122.535C66.2348 122.565 65.7798 122.615 65.4198 122.685C65.0598 122.755 64.7748 122.845 64.5648 122.955C64.3548 123.055 64.2048 123.175 64.1148 123.315C64.0348 123.455 63.9948 123.605 63.9948 123.765ZM71.849 127.71C72.299 127.28 72.684 126.84 73.004 126.39C73.324 125.95 73.584 125.49 73.784 125.01C73.994 124.53 74.149 124.03 74.249 123.51C74.349 122.98 74.399 122.42 74.399 121.83C74.399 120.65 74.194 119.595 73.784 118.665C73.384 117.725 72.739 116.82 71.849 115.95L73.079 114.975C74.059 115.845 74.829 116.85 75.389 117.99C75.959 119.13 76.244 120.41 76.244 121.83C76.244 123.25 75.959 124.53 75.389 125.67C74.829 126.81 74.059 127.815 73.079 128.685L71.849 127.71ZM57.8507 147.685C56.8707 146.815 56.0957 145.81 55.5257 144.67C54.9657 143.53 54.6857 142.25 54.6857 140.83C54.6857 139.41 54.9657 138.13 55.5257 136.99C56.0957 135.85 56.8707 134.845 57.8507 133.975L59.0807 134.95C58.1907 135.82 57.5407 136.725 57.1307 137.665C56.7307 138.595 56.5307 139.65 56.5307 140.83C56.5307 141.42 56.5807 141.98 56.6807 142.51C56.7807 143.03 56.9307 143.53 57.1307 144.01C57.3407 144.49 57.6057 144.95 57.9257 145.39C58.2457 145.84 58.6307 146.28 59.0807 146.71L57.8507 147.685ZM62.0448 134.485H64.2498V137.065L64.1898 138.235C64.4798 137.965 64.8048 137.755 65.1648 137.605C65.5348 137.455 65.8998 137.38 66.2598 137.38C66.7198 137.38 67.1348 137.47 67.5048 137.65C67.8848 137.83 68.1998 138.085 68.4498 138.415C68.7098 138.735 68.9098 139.13 69.0498 139.6C69.1898 140.06 69.2598 140.575 69.2598 141.145C69.2598 141.785 69.1698 142.355 68.9898 142.855C68.8098 143.355 68.5698 143.78 68.2698 144.13C67.9698 144.47 67.6248 144.73 67.2348 144.91C66.8548 145.09 66.4548 145.18 66.0348 145.18C65.6848 145.18 65.3348 145.095 64.9848 144.925C64.6448 144.755 64.3198 144.51 64.0098 144.19H63.9498L63.7698 145H62.0448V134.485ZM64.2498 142.885C64.4598 143.065 64.6748 143.195 64.8948 143.275C65.1248 143.345 65.3398 143.38 65.5398 143.38C65.9498 143.38 66.2948 143.21 66.5748 142.87C66.8548 142.52 66.9948 141.96 66.9948 141.19C66.9948 139.85 66.5398 139.18 65.6298 139.18C65.1598 139.18 64.6998 139.41 64.2498 139.87V142.885ZM71.849 146.71C72.299 146.28 72.684 145.84 73.004 145.39C73.324 144.95 73.584 144.49 73.784 144.01C73.994 143.53 74.149 143.03 74.249 142.51C74.349 141.98 74.399 141.42 74.399 140.83C74.399 139.65 74.194 138.595 73.784 137.665C73.384 136.725 72.739 135.82 71.849 134.95L73.079 133.975C74.059 134.845 74.829 135.85 75.389 136.99C75.959 138.13 76.244 139.41 76.244 140.83C76.244 142.25 75.959 143.53 75.389 144.67C74.829 145.81 74.059 146.815 73.079 147.685L71.849 146.71Z" fill="white"/>
<path d="M44.6566 48.45C44.9766 48.71 45.3166 48.935 45.6766 49.125C46.0466 49.305 46.4566 49.395 46.9066 49.395C47.4466 49.395 47.8866 49.27 48.2266 49.02C48.5766 48.77 48.7516 48.4 48.7516 47.91C48.7516 47.43 48.5866 47.065 48.2566 46.815C47.9366 46.565 47.5216 46.44 47.0116 46.44C46.8516 46.44 46.7066 46.45 46.5766 46.47C46.4566 46.48 46.3366 46.505 46.2166 46.545C46.0966 46.585 45.9716 46.635 45.8416 46.695C45.7116 46.755 45.5666 46.83 45.4066 46.92L44.4316 46.29L44.6866 41.475H50.5216V43.335H46.5916L46.4266 45.12C46.6466 45.04 46.8516 44.985 47.0416 44.955C47.2316 44.915 47.4466 44.895 47.6866 44.895C48.1266 44.895 48.5416 44.955 48.9316 45.075C49.3316 45.195 49.6816 45.375 49.9816 45.615C50.2816 45.855 50.5166 46.16 50.6866 46.53C50.8666 46.9 50.9566 47.34 50.9566 47.85C50.9566 48.38 50.8516 48.85 50.6416 49.26C50.4416 49.67 50.1666 50.02 49.8166 50.31C49.4766 50.59 49.0816 50.805 48.6316 50.955C48.1816 51.105 47.7116 51.18 47.2216 51.18C46.3916 51.18 45.6866 51.055 45.1066 50.805C44.5366 50.545 44.0566 50.225 43.6666 49.845L44.6566 48.45ZM60.0257 86.215V88H53.2007V86.215H55.6607V80.71H53.6957V79.345C54.2557 79.245 54.7307 79.125 55.1207 78.985C55.5207 78.845 55.8957 78.675 56.2457 78.475H57.8657V86.215H60.0257Z" fill="#F0E442"/>
<path d="M10.285 126.585V128.76H8.08V118.56H9.88L10.045 119.31H10.09C10.39 119.04 10.735 118.82 11.125 118.65C11.515 118.47 11.91 118.38 12.31 118.38C12.77 118.38 13.185 118.47 13.555 118.65C13.925 118.83 14.24 119.085 14.5 119.415C14.76 119.745 14.955 120.145 15.085 120.615C15.225 121.075 15.295 121.59 15.295 122.16C15.295 122.8 15.205 123.37 15.025 123.87C14.845 124.36 14.605 124.78 14.305 125.13C14.005 125.47 13.66 125.73 13.27 125.91C12.89 126.09 12.49 126.18 12.07 126.18C11.39 126.18 10.77 125.91 10.21 125.37L10.285 126.585ZM10.285 123.885C10.495 124.065 10.71 124.195 10.93 124.275C11.16 124.345 11.37 124.38 11.56 124.38C11.98 124.38 12.33 124.21 12.61 123.87C12.89 123.52 13.03 122.96 13.03 122.19C13.03 120.85 12.575 120.18 11.665 120.18C11.195 120.18 10.735 120.41 10.285 120.87V123.885ZM17.7341 118.56H19.5341L19.7141 120.18H19.7591C20.1291 119.57 20.5741 119.12 21.0941 118.83C21.6141 118.53 22.1741 118.38 22.7741 118.38C23.1041 118.38 23.3691 118.405 23.5691 118.455C23.7791 118.505 23.9941 118.58 24.2141 118.68L23.7641 120.525C23.5341 120.455 23.3241 120.405 23.1341 120.375C22.9541 120.335 22.7241 120.315 22.4441 120.315C21.9841 120.315 21.5291 120.45 21.0791 120.72C20.6391 120.99 20.2591 121.46 19.9391 122.13V126H17.7341V118.56ZM26.1733 118.56H31.3633V126H29.1583V120.285H26.1733V118.56ZM30.1633 117.465C29.7333 117.465 29.3783 117.345 29.0983 117.105C28.8283 116.865 28.6933 116.54 28.6933 116.13C28.6933 115.72 28.8283 115.39 29.0983 115.14C29.3783 114.88 29.7333 114.75 30.1633 114.75C30.5933 114.75 30.9433 114.88 31.2133 115.14C31.4933 115.39 31.6333 115.72 31.6333 116.13C31.6333 116.54 31.4933 116.865 31.2133 117.105C30.9433 117.345 30.5933 117.465 30.1633 117.465ZM35.0624 118.56H36.8624L37.0274 119.55H37.0874C37.4074 119.23 37.7724 118.955 38.1824 118.725C38.6024 118.495 39.0924 118.38 39.6524 118.38C40.4924 118.38 41.1074 118.65 41.4974 119.19C41.8874 119.73 42.0824 120.47 42.0824 121.41V126H39.8774V121.695C39.8774 121.195 39.7974 120.83 39.6374 120.6C39.4774 120.37 39.1924 120.255 38.7824 120.255C38.4824 120.255 38.2174 120.32 37.9874 120.45C37.7674 120.58 37.5274 120.775 37.2674 121.035V126H35.0624V118.56ZM45.5866 120.285H43.7116V118.65L45.6916 118.56L45.9766 116.58H47.7916V118.56H50.9416V120.285H47.7916V122.895C47.7916 123.465 47.9166 123.87 48.1666 124.11C48.4166 124.34 48.8116 124.455 49.3516 124.455C49.6416 124.455 49.9066 124.43 50.1466 124.38C50.3866 124.33 50.6166 124.265 50.8366 124.185L51.2266 125.775C50.8966 125.875 50.5266 125.965 50.1166 126.045C49.7166 126.135 49.2766 126.18 48.7966 126.18C48.2066 126.18 47.7066 126.1 47.2966 125.94C46.8866 125.78 46.5516 125.56 46.2916 125.28C46.0416 124.99 45.8616 124.645 45.7516 124.245C45.6416 123.845 45.5866 123.4 45.5866 122.91V120.285ZM10.285 145.585V147.76H8.08V137.56H9.88L10.045 138.31H10.09C10.39 138.04 10.735 137.82 11.125 137.65C11.515 137.47 11.91 137.38 12.31 137.38C12.77 137.38 13.185 137.47 13.555 137.65C13.925 137.83 14.24 138.085 14.5 138.415C14.76 138.745 14.955 139.145 15.085 139.615C15.225 140.075 15.295 140.59 15.295 141.16C15.295 141.8 15.205 142.37 15.025 142.87C14.845 143.36 14.605 143.78 14.305 144.13C14.005 144.47 13.66 144.73 13.27 144.91C12.89 145.09 12.49 145.18 12.07 145.18C11.39 145.18 10.77 144.91 10.21 144.37L10.285 145.585ZM10.285 142.885C10.495 143.065 10.71 143.195 10.93 143.275C11.16 143.345 11.37 143.38 11.56 143.38C11.98 143.38 12.33 143.21 12.61 142.87C12.89 142.52 13.03 141.96 13.03 141.19C13.03 139.85 12.575 139.18 11.665 139.18C11.195 139.18 10.735 139.41 10.285 139.87V142.885ZM17.7341 137.56H19.5341L19.7141 139.18H19.7591C20.1291 138.57 20.5741 138.12 21.0941 137.83C21.6141 137.53 22.1741 137.38 22.7741 137.38C23.1041 137.38 23.3691 137.405 23.5691 137.455C23.7791 137.505 23.9941 137.58 24.2141 137.68L23.7641 139.525C23.5341 139.455 23.3241 139.405 23.1341 139.375C22.9541 139.335 22.7241 139.315 22.4441 139.315C21.9841 139.315 21.5291 139.45 21.0791 139.72C20.6391 139.99 20.2591 140.46 19.9391 141.13V145H17.7341V137.56ZM26.1733 137.56H31.3633V145H29.1583V139.285H26.1733V137.56ZM30.1633 136.465C29.7333 136.465 29.3783 136.345 29.0983 136.105C28.8283 135.865 28.6933 135.54 28.6933 135.13C28.6933 134.72 28.8283 134.39 29.0983 134.14C29.3783 133.88 29.7333 133.75 30.1633 133.75C30.5933 133.75 30.9433 133.88 31.2133 134.14C31.4933 134.39 31.6333 134.72 31.6333 135.13C31.6333 135.54 31.4933 135.865 31.2133 136.105C30.9433 136.345 30.5933 136.465 30.1633 136.465ZM35.0624 137.56H36.8624L37.0274 138.55H37.0874C37.4074 138.23 37.7724 137.955 38.1824 137.725C38.6024 137.495 39.0924 137.38 39.6524 137.38C40.4924 137.38 41.1074 137.65 41.4974 138.19C41.8874 138.73 42.0824 139.47 42.0824 140.41V145H39.8774V140.695C39.8774 140.195 39.7974 139.83 39.6374 139.6C39.4774 139.37 39.1924 139.255 38.7824 139.255C38.4824 139.255 38.2174 139.32 37.9874 139.45C37.7674 139.58 37.5274 139.775 37.2674 140.035V145H35.0624V137.56ZM45.5866 139.285H43.7116V137.65L45.6916 137.56L45.9766 135.58H47.7916V137.56H50.9416V139.285H47.7916V141.895C47.7916 142.465 47.9166 142.87 48.1666 143.11C48.4166 143.34 48.8116 143.455 49.3516 143.455C49.6416 143.455 49.9066 143.43 50.1466 143.38C50.3866 143.33 50.6166 143.265 50.8366 143.185L51.2266 144.775C50.8966 144.875 50.5266 144.965 50.1166 145.045C49.7166 145.135 49.2766 145.18 48.7966 145.18C48.2066 145.18 47.7066 145.1 47.2966 144.94C46.8866 144.78 46.5516 144.56 46.2916 144.28C46.0416 143.99 45.8616 143.645 45.7516 143.245C45.6416 142.845 45.5866 142.4 45.5866 141.91V139.285Z" fill="#56B4E9"/>
</svg>
