<svg width="610" height="165" viewBox="0 0 610 165" fill="none" xmlns="http://www.w3.org/2000/svg">
<rect width="610" height="165" fill="black"/>
<rect x="79" width="531" height="31" fill="#333333"/>
<rect x="79" width="531" height="31" fill="#333333"/>
<rect width="79" height="31" fill="#090808"/>
<path d="M12.105 17.8101C12.105 17.5513 11.9756 17.3486 11.7168 17.2021C11.4629 17.0508 11.0527 16.9165 10.4863 16.7993C8.60156 16.4038 7.65918 15.603 7.65918 14.397C7.65918 13.6938 7.94971 13.1079 8.53076 12.6392C9.1167 12.1655 9.88086 11.9287 10.8232 11.9287C11.8291 11.9287 12.6323 12.1655 13.2329 12.6392C13.8384 13.1128 14.1411 13.728 14.1411 14.4849H12.0244C12.0244 14.1821 11.9268 13.9331 11.7314 13.7378C11.5361 13.5376 11.231 13.4375 10.8159 13.4375C10.4595 13.4375 10.1836 13.5181 9.98828 13.6792C9.79297 13.8403 9.69531 14.0454 9.69531 14.2944C9.69531 14.5288 9.80518 14.7192 10.0249 14.8657C10.2495 15.0073 10.6255 15.1318 11.1528 15.2393C11.6802 15.3418 12.1245 15.459 12.4858 15.5908C13.604 16.001 14.1631 16.7114 14.1631 17.7222C14.1631 18.4448 13.853 19.0308 13.2329 19.48C12.6128 19.9243 11.812 20.1465 10.8306 20.1465C10.1665 20.1465 9.57568 20.0293 9.05811 19.7949C8.54541 19.5557 8.14258 19.231 7.84961 18.8208C7.55664 18.4058 7.41016 17.959 7.41016 17.4805H9.41699C9.43652 17.8564 9.57568 18.1445 9.83447 18.3447C10.0933 18.5449 10.4399 18.645 10.8745 18.645C11.2798 18.645 11.585 18.5693 11.79 18.418C12 18.2617 12.105 18.0591 12.105 17.8101ZM18.8286 18.4399C19.2192 18.4399 19.5366 18.3325 19.7808 18.1177C20.0249 17.9028 20.1519 17.6172 20.1616 17.2607H22.1465C22.1416 17.7979 21.9951 18.291 21.707 18.7402C21.4189 19.1846 21.0234 19.5312 20.5205 19.7803C20.0225 20.0244 19.4707 20.1465 18.8652 20.1465C17.7324 20.1465 16.8389 19.7876 16.1846 19.0698C15.5303 18.3472 15.2031 17.3511 15.2031 16.0815V15.9424C15.2031 14.7217 15.5278 13.7476 16.1772 13.02C16.8267 12.2925 17.7178 11.9287 18.8506 11.9287C19.8418 11.9287 20.6353 12.2119 21.231 12.7783C21.8315 13.3398 22.1367 14.0894 22.1465 15.0269H20.1616C20.1519 14.6167 20.0249 14.2847 19.7808 14.0308C19.5366 13.772 19.2144 13.6426 18.814 13.6426C18.3208 13.6426 17.9473 13.8232 17.6934 14.1846C17.4443 14.541 17.3198 15.1221 17.3198 15.9277V16.1475C17.3198 16.9629 17.4443 17.5488 17.6934 17.9053C17.9424 18.2617 18.3208 18.4399 18.8286 18.4399ZM27.8081 14.0601C27.52 14.021 27.2661 14.0015 27.0464 14.0015C26.2456 14.0015 25.7207 14.2725 25.4717 14.8145V20H23.355V12.0752H25.3545L25.4131 13.02C25.8379 12.2925 26.4263 11.9287 27.1782 11.9287C27.4126 11.9287 27.6323 11.9604 27.8374 12.0239L27.8081 14.0601ZM31.0674 20H28.9434V12.0752H31.0674V20ZM28.8188 10.0244C28.8188 9.70703 28.9238 9.4458 29.1338 9.24072C29.3486 9.03564 29.6392 8.93311 30.0054 8.93311C30.3667 8.93311 30.6548 9.03564 30.8696 9.24072C31.0845 9.4458 31.1919 9.70703 31.1919 10.0244C31.1919 10.3467 31.082 10.6104 30.8623 10.8154C30.6475 11.0205 30.3618 11.123 30.0054 11.123C29.6489 11.123 29.3608 11.0205 29.1411 10.8154C28.9263 10.6104 28.8188 10.3467 28.8188 10.0244ZM39.9517 16.1108C39.9517 17.3315 39.6733 18.3105 39.1167 19.0479C38.5649 19.7803 37.8179 20.1465 36.8755 20.1465C36.0747 20.1465 35.4277 19.8682 34.9346 19.3115V23.0469H32.8179V12.0752H34.7808L34.854 12.8516C35.3667 12.2363 36.0356 11.9287 36.8608 11.9287C37.8374 11.9287 38.5967 12.29 39.1387 13.0127C39.6807 13.7354 39.9517 14.7314 39.9517 16.001V16.1108ZM37.835 15.957C37.835 15.2197 37.7031 14.6509 37.4395 14.2505C37.1807 13.8501 36.8022 13.6499 36.3042 13.6499C35.6401 13.6499 35.1836 13.9038 34.9346 14.4116V17.6562C35.1934 18.1787 35.6548 18.4399 36.3188 18.4399C37.3296 18.4399 37.835 17.6123 37.835 15.957ZM43.8042 10.127V12.0752H45.1592V13.6279H43.8042V17.583C43.8042 17.876 43.8604 18.0859 43.9727 18.2129C44.085 18.3398 44.2998 18.4033 44.6172 18.4033C44.8516 18.4033 45.0591 18.3862 45.2397 18.3521V19.9561C44.8247 20.083 44.3975 20.1465 43.958 20.1465C42.4736 20.1465 41.7168 19.397 41.6875 17.8979V13.6279H40.5303V12.0752H41.6875V10.127H43.8042ZM46.4482 18.96C46.4482 18.623 46.5605 18.3496 46.7852 18.1396C47.0146 17.9297 47.3003 17.8247 47.6421 17.8247C47.9888 17.8247 48.2744 17.9297 48.499 18.1396C48.7285 18.3496 48.8433 18.623 48.8433 18.96C48.8433 19.292 48.731 19.563 48.5063 19.7729C48.2817 19.978 47.9937 20.0806 47.6421 20.0806C47.2954 20.0806 47.0098 19.978 46.7852 19.7729C46.5605 19.563 46.4482 19.292 46.4482 18.96ZM57.8374 16.1108C57.8374 17.3315 57.5591 18.3105 57.0024 19.0479C56.4507 19.7803 55.7036 20.1465 54.7612 20.1465C53.9604 20.1465 53.3135 19.8682 52.8203 19.3115V23.0469H50.7036V12.0752H52.6665L52.7397 12.8516C53.2524 12.2363 53.9214 11.9287 54.7466 11.9287C55.7231 11.9287 56.4824 12.29 57.0244 13.0127C57.5664 13.7354 57.8374 14.7314 57.8374 16.001V16.1108ZM55.7207 15.957C55.7207 15.2197 55.5889 14.6509 55.3252 14.2505C55.0664 13.8501 54.688 13.6499 54.1899 13.6499C53.5259 13.6499 53.0693 13.9038 52.8203 14.4116V17.6562C53.0791 18.1787 53.5405 18.4399 54.2046 18.4399C55.2153 18.4399 55.7207 17.6123 55.7207 15.957ZM62.0269 17.0044L63.4917 12.0752H65.7622L62.5762 21.2305L62.4004 21.6479C61.9268 22.6831 61.1455 23.2007 60.0566 23.2007C59.749 23.2007 59.4365 23.1543 59.1191 23.0615V21.4575L59.4414 21.4648C59.8418 21.4648 60.1396 21.4038 60.335 21.2817C60.5352 21.1597 60.6914 20.957 60.8037 20.6738L61.0527 20.022L58.2769 12.0752H60.5547L62.0269 17.0044Z" fill="white"/>
<path d="M8.005 47.28C8.005 46.66 8.12 46.11 8.35 45.63C8.59 45.14 8.905 44.73 9.295 44.4C9.695 44.07 10.155 43.82 10.675 43.65C11.195 43.47 11.74 43.38 12.31 43.38C12.9 43.38 13.43 43.475 13.9 43.665C14.38 43.855 14.78 44.095 15.1 44.385L14.08 45.75C13.53 45.36 12.98 45.165 12.43 45.165C11.79 45.165 11.27 45.355 10.87 45.735C10.47 46.115 10.27 46.63 10.27 47.28C10.27 47.93 10.46 48.445 10.84 48.825C11.23 49.205 11.735 49.395 12.355 49.395C12.745 49.395 13.105 49.325 13.435 49.185C13.765 49.045 14.06 48.88 14.32 48.69L15.22 50.085C14.77 50.465 14.27 50.745 13.72 50.925C13.18 51.095 12.655 51.18 12.145 51.18C11.555 51.18 11.01 51.095 10.51 50.925C10.01 50.745 9.57 50.49 9.19 50.16C8.82 49.83 8.53 49.425 8.32 48.945C8.11 48.455 8.005 47.9 8.005 47.28ZM16.6991 47.28C16.6991 46.66 16.8041 46.11 17.0141 45.63C17.2241 45.14 17.5041 44.73 17.8541 44.4C18.2141 44.07 18.6191 43.82 19.0691 43.65C19.5291 43.47 20.0041 43.38 20.4941 43.38C20.9841 43.38 21.4541 43.47 21.9041 43.65C22.3641 43.82 22.7691 44.07 23.1191 44.4C23.4791 44.73 23.7641 45.14 23.9741 45.63C24.1841 46.11 24.2891 46.66 24.2891 47.28C24.2891 47.9 24.1841 48.455 23.9741 48.945C23.7641 49.425 23.4791 49.83 23.1191 50.16C22.7691 50.49 22.3641 50.745 21.9041 50.925C21.4541 51.095 20.9841 51.18 20.4941 51.18C20.0041 51.18 19.5291 51.095 19.0691 50.925C18.6191 50.745 18.2141 50.49 17.8541 50.16C17.5041 49.83 17.2241 49.425 17.0141 48.945C16.8041 48.455 16.6991 47.9 16.6991 47.28ZM18.9641 47.28C18.9641 47.93 19.0891 48.445 19.3391 48.825C19.5991 49.205 19.9841 49.395 20.4941 49.395C21.0041 49.395 21.3841 49.205 21.6341 48.825C21.8941 48.445 22.0241 47.93 22.0241 47.28C22.0241 46.63 21.8941 46.115 21.6341 45.735C21.3841 45.355 21.0041 45.165 20.4941 45.165C19.9841 45.165 19.5991 45.355 19.3391 45.735C19.0891 46.115 18.9641 46.63 18.9641 47.28ZM26.0683 43.56H27.8683L28.0333 44.55H28.0933C28.4133 44.23 28.7783 43.955 29.1883 43.725C29.6083 43.495 30.0983 43.38 30.6583 43.38C31.4983 43.38 32.1133 43.65 32.5033 44.19C32.8933 44.73 33.0883 45.47 33.0883 46.41V51H30.8833V46.695C30.8833 46.195 30.8033 45.83 30.6433 45.6C30.4833 45.37 30.1983 45.255 29.7883 45.255C29.4883 45.255 29.2233 45.32 28.9933 45.45C28.7733 45.58 28.5333 45.775 28.2733 46.035V51H26.0683V43.56ZM36.5924 45.285H34.7174V43.65L36.6974 43.56L36.9824 41.58H38.7974V43.56H41.9474V45.285H38.7974V47.895C38.7974 48.465 38.9224 48.87 39.1724 49.11C39.4224 49.34 39.8174 49.455 40.3574 49.455C40.6474 49.455 40.9124 49.43 41.1524 49.38C41.3924 49.33 41.6224 49.265 41.8424 49.185L42.2324 50.775C41.9024 50.875 41.5324 50.965 41.1224 51.045C40.7224 51.135 40.2824 51.18 39.8024 51.18C39.2124 51.18 38.7124 51.1 38.3024 50.94C37.8924 50.78 37.5574 50.56 37.2974 50.28C37.0474 49.99 36.8674 49.645 36.7574 49.245C36.6474 48.845 36.5924 48.4 36.5924 47.91V45.285ZM43.8016 47.28C43.8016 46.67 43.9066 46.125 44.1166 45.645C44.3366 45.165 44.6266 44.76 44.9866 44.43C45.3466 44.09 45.7566 43.83 46.2166 43.65C46.6866 43.47 47.1716 43.38 47.6716 43.38C48.2416 43.38 48.7466 43.47 49.1866 43.65C49.6266 43.83 49.9916 44.08 50.2816 44.4C50.5716 44.72 50.7916 45.1 50.9416 45.54C51.0916 45.97 51.1666 46.44 51.1666 46.95C51.1666 47.15 51.1566 47.34 51.1366 47.52C51.1166 47.7 51.0966 47.835 51.0766 47.925H46.0666C46.1466 48.485 46.3866 48.89 46.7866 49.14C47.1966 49.38 47.6766 49.5 48.2266 49.5C48.5666 49.5 48.8866 49.46 49.1866 49.38C49.4966 49.29 49.8166 49.16 50.1466 48.99L50.8666 50.31C50.4466 50.58 49.9766 50.795 49.4566 50.955C48.9366 51.105 48.4266 51.18 47.9266 51.18C47.3466 51.18 46.8066 51.095 46.3066 50.925C45.8066 50.745 45.3716 50.49 45.0016 50.16C44.6316 49.82 44.3366 49.41 44.1166 48.93C43.9066 48.45 43.8016 47.9 43.8016 47.28ZM49.1716 46.47C49.1716 46.05 49.0566 45.71 48.8266 45.45C48.5966 45.19 48.2266 45.06 47.7166 45.06C47.3166 45.06 46.9616 45.175 46.6516 45.405C46.3416 45.635 46.1366 45.99 46.0366 46.47H49.1716ZM53.0507 43.56H54.8507L55.0157 44.55H55.0757C55.3957 44.23 55.7607 43.955 56.1707 43.725C56.5907 43.495 57.0807 43.38 57.6407 43.38C58.4807 43.38 59.0957 43.65 59.4857 44.19C59.8757 44.73 60.0707 45.47 60.0707 46.41V51H57.8657V46.695C57.8657 46.195 57.7857 45.83 57.6257 45.6C57.4657 45.37 57.1807 45.255 56.7707 45.255C56.4707 45.255 56.2057 45.32 55.9757 45.45C55.7557 45.58 55.5157 45.775 55.2557 46.035V51H53.0507V43.56ZM63.5748 45.285H61.6998V43.65L63.6798 43.56L63.9648 41.58H65.7798V43.56H68.9298V45.285H65.7798V47.895C65.7798 48.465 65.9048 48.87 66.1548 49.11C66.4048 49.34 66.7998 49.455 67.3398 49.455C67.6298 49.455 67.8948 49.43 68.1348 49.38C68.3748 49.33 68.6048 49.265 68.8248 49.185L69.2148 50.775C68.8848 50.875 68.5148 50.965 68.1048 51.045C67.7048 51.135 67.2648 51.18 66.7848 51.18C66.1948 51.18 65.6948 51.1 65.2848 50.94C64.8748 50.78 64.5398 50.56 64.2798 50.28C64.0298 49.99 63.8498 49.645 63.7398 49.245C63.6298 48.845 63.5748 48.4 63.5748 47.91V45.285ZM78.059 51.81V53.46H70.859V51.81H78.059ZM80.6931 43.56H82.4931L82.6731 45.18H82.7181C83.0881 44.57 83.5331 44.12 84.0531 43.83C84.5731 43.53 85.1331 43.38 85.7331 43.38C86.0631 43.38 86.3281 43.405 86.5281 43.455C86.7381 43.505 86.9531 43.58 87.1731 43.68L86.7231 45.525C86.4931 45.455 86.2831 45.405 86.0931 45.375C85.9131 45.335 85.6831 45.315 85.4031 45.315C84.9431 45.315 84.4881 45.45 84.0381 45.72C83.5981 45.99 83.2181 46.46 82.8981 47.13V51H80.6931V43.56ZM88.8623 48.93C88.8623 48.51 88.9523 48.145 89.1323 47.835C89.3123 47.515 89.5973 47.245 89.9873 47.025C90.3873 46.805 90.8973 46.63 91.5173 46.5C92.1373 46.36 92.8873 46.265 93.7673 46.215C93.7273 45.875 93.5773 45.61 93.3173 45.42C93.0673 45.23 92.6873 45.135 92.1773 45.135C91.8173 45.135 91.4523 45.2 91.0823 45.33C90.7223 45.45 90.3323 45.615 89.9123 45.825L89.1323 44.385C89.6423 44.095 90.1873 43.855 90.7673 43.665C91.3573 43.475 91.9723 43.38 92.6123 43.38C93.6523 43.38 94.4723 43.655 95.0723 44.205C95.6723 44.755 95.9723 45.6 95.9723 46.74V51H94.1723L94.0073 50.16H93.9473C93.5673 50.45 93.1523 50.695 92.7023 50.895C92.2523 51.085 91.7873 51.18 91.3073 51.18C90.9273 51.18 90.5873 51.12 90.2873 51C89.9873 50.89 89.7323 50.735 89.5223 50.535C89.3123 50.325 89.1473 50.085 89.0273 49.815C88.9173 49.545 88.8623 49.25 88.8623 48.93ZM90.9773 48.765C90.9773 49.005 91.0673 49.185 91.2473 49.305C91.4373 49.415 91.6923 49.47 92.0123 49.47C92.3423 49.47 92.6523 49.405 92.9423 49.275C93.2323 49.135 93.5073 48.965 93.7673 48.765V47.535C93.2173 47.565 92.7623 47.615 92.4023 47.685C92.0423 47.755 91.7573 47.845 91.5473 47.955C91.3373 48.055 91.1873 48.175 91.0973 48.315C91.0173 48.455 90.9773 48.605 90.9773 48.765ZM99.5514 45.285H97.6764V43.65L99.6564 43.56L99.9414 41.58H101.756V43.56H104.906V45.285H101.756V47.895C101.756 48.465 101.881 48.87 102.131 49.11C102.381 49.34 102.776 49.455 103.316 49.455C103.606 49.455 103.871 49.43 104.111 49.38C104.351 49.33 104.581 49.265 104.801 49.185L105.191 50.775C104.861 50.875 104.491 50.965 104.081 51.045C103.681 51.135 103.241 51.18 102.761 51.18C102.171 51.18 101.671 51.1 101.261 50.94C100.851 50.78 100.516 50.56 100.256 50.28C100.006 49.99 99.8264 49.645 99.7164 49.245C99.6064 48.845 99.5514 48.4 99.5514 47.91V45.285ZM107.121 43.56H112.311V51H110.106V45.285H107.121V43.56ZM111.111 42.465C110.681 42.465 110.326 42.345 110.046 42.105C109.776 41.865 109.641 41.54 109.641 41.13C109.641 40.72 109.776 40.39 110.046 40.14C110.326 39.88 110.681 39.75 111.111 39.75C111.541 39.75 111.891 39.88 112.161 40.14C112.441 40.39 112.581 40.72 112.581 41.13C112.581 41.54 112.441 41.865 112.161 42.105C111.891 42.345 111.541 42.465 111.111 42.465ZM116.01 43.56H117.81L117.975 44.55H118.035C118.355 44.23 118.72 43.955 119.13 43.725C119.55 43.495 120.04 43.38 120.6 43.38C121.44 43.38 122.055 43.65 122.445 44.19C122.835 44.73 123.03 45.47 123.03 46.41V51H120.825V46.695C120.825 46.195 120.745 45.83 120.585 45.6C120.425 45.37 120.14 45.255 119.73 45.255C119.43 45.255 119.165 45.32 118.935 45.45C118.715 45.58 118.475 45.775 118.215 46.035V51H116.01V43.56ZM126.504 51.93C126.504 52.21 126.669 52.42 126.999 52.56C127.339 52.71 127.804 52.785 128.394 52.785C128.994 52.785 129.479 52.695 129.849 52.515C130.219 52.345 130.404 52.13 130.404 51.87C130.404 51.63 130.294 51.47 130.074 51.39C129.854 51.32 129.529 51.285 129.099 51.285H128.169C127.899 51.285 127.674 51.275 127.494 51.255C127.324 51.245 127.169 51.225 127.029 51.195C126.839 51.315 126.704 51.43 126.624 51.54C126.544 51.66 126.504 51.79 126.504 51.93ZM124.704 52.26C124.704 51.65 125.089 51.155 125.859 50.775V50.715C125.659 50.585 125.484 50.42 125.334 50.22C125.184 50.02 125.109 49.76 125.109 49.44C125.109 49.19 125.189 48.94 125.349 48.69C125.519 48.44 125.734 48.225 125.994 48.045V47.985C125.724 47.805 125.494 47.555 125.304 47.235C125.114 46.905 125.019 46.52 125.019 46.08C125.019 45.63 125.104 45.24 125.274 44.91C125.454 44.57 125.689 44.29 125.979 44.07C126.269 43.84 126.604 43.67 126.984 43.56C127.374 43.44 127.779 43.38 128.199 43.38C128.659 43.38 129.069 43.44 129.429 43.56H132.444V45.165H130.929C131.019 45.275 131.099 45.42 131.169 45.6C131.239 45.77 131.274 45.955 131.274 46.155C131.274 46.585 131.194 46.955 131.034 47.265C130.874 47.575 130.654 47.835 130.374 48.045C130.104 48.245 129.779 48.395 129.399 48.495C129.029 48.595 128.629 48.645 128.199 48.645C127.879 48.645 127.539 48.595 127.179 48.495C127.069 48.575 126.984 48.655 126.924 48.735C126.874 48.815 126.849 48.915 126.849 49.035C126.849 49.235 126.949 49.38 127.149 49.47C127.349 49.56 127.669 49.605 128.109 49.605H129.489C130.469 49.605 131.214 49.75 131.724 50.04C132.244 50.33 132.504 50.81 132.504 51.48C132.504 51.87 132.399 52.23 132.189 52.56C131.979 52.89 131.684 53.17 131.304 53.4C130.924 53.64 130.459 53.825 129.909 53.955C129.359 54.095 128.749 54.165 128.079 54.165C127.599 54.165 127.149 54.125 126.729 54.045C126.319 53.975 125.964 53.86 125.664 53.7C125.364 53.55 125.129 53.355 124.959 53.115C124.789 52.875 124.704 52.59 124.704 52.26ZM128.199 47.31C128.509 47.31 128.774 47.21 128.994 47.01C129.224 46.8 129.339 46.49 129.339 46.08C129.339 45.68 129.224 45.38 128.994 45.18C128.774 44.97 128.509 44.865 128.199 44.865C127.889 44.865 127.624 44.97 127.404 45.18C127.194 45.38 127.089 45.68 127.089 46.08C127.089 46.49 127.194 46.8 127.404 47.01C127.624 47.21 127.889 47.31 128.199 47.31ZM134.703 48.66C135.133 48.93 135.563 49.145 135.993 49.305C136.433 49.465 136.903 49.545 137.403 49.545C137.913 49.545 138.278 49.49 138.498 49.38C138.718 49.27 138.828 49.115 138.828 48.915C138.828 48.685 138.643 48.5 138.273 48.36C137.913 48.21 137.433 48.05 136.833 47.88C136.503 47.79 136.178 47.685 135.858 47.565C135.548 47.435 135.268 47.285 135.018 47.115C134.768 46.935 134.563 46.73 134.403 46.5C134.253 46.27 134.178 46.005 134.178 45.705C134.178 45.365 134.258 45.05 134.418 44.76C134.578 44.47 134.803 44.225 135.093 44.025C135.393 43.825 135.753 43.67 136.173 43.56C136.603 43.44 137.083 43.38 137.613 43.38C138.273 43.38 138.873 43.49 139.413 43.71C139.963 43.92 140.433 44.15 140.823 44.4L139.833 45.72C139.493 45.52 139.143 45.355 138.783 45.225C138.423 45.085 138.048 45.015 137.658 45.015C137.188 45.015 136.853 45.065 136.653 45.165C136.463 45.265 136.368 45.41 136.368 45.6C136.368 45.71 136.418 45.81 136.518 45.9C136.618 45.99 136.753 46.07 136.923 46.14C137.093 46.21 137.293 46.28 137.523 46.35C137.763 46.41 138.013 46.475 138.273 46.545C138.643 46.645 138.993 46.76 139.323 46.89C139.653 47.01 139.943 47.155 140.193 47.325C140.443 47.495 140.643 47.7 140.793 47.94C140.943 48.18 141.018 48.46 141.018 48.78C141.018 49.12 140.938 49.435 140.778 49.725C140.618 50.015 140.383 50.27 140.073 50.49C139.773 50.7 139.393 50.87 138.933 51C138.483 51.12 137.958 51.18 137.358 51.18C136.688 51.18 136.033 51.07 135.393 50.85C134.753 50.63 134.193 50.36 133.713 50.04L134.703 48.66ZM151.956 43.53H158.856V45.09H151.956V43.53ZM151.956 46.995H158.856V48.555H151.956V46.995ZM172.39 51.15C172.39 50.88 172.395 50.64 172.405 50.43C172.425 50.22 172.445 50.02 172.465 49.83C172.485 49.63 172.5 49.435 172.51 49.245C172.53 49.045 172.54 48.825 172.54 48.585C172.54 48.455 172.51 48.325 172.45 48.195C172.39 48.065 172.28 47.95 172.12 47.85C171.96 47.74 171.745 47.655 171.475 47.595C171.215 47.525 170.885 47.485 170.485 47.475V46.185C170.885 46.175 171.215 46.14 171.475 46.08C171.745 46.01 171.96 45.925 172.12 45.825C172.28 45.715 172.39 45.595 172.45 45.465C172.51 45.335 172.54 45.205 172.54 45.075C172.54 44.845 172.53 44.63 172.51 44.43C172.5 44.23 172.485 44.035 172.465 43.845C172.445 43.645 172.425 43.44 172.405 43.23C172.395 43.01 172.39 42.77 172.39 42.51C172.39 41.7 172.615 41.145 173.065 40.845C173.515 40.535 174.22 40.38 175.18 40.38H176.335V41.55H175.72C175.41 41.55 175.155 41.565 174.955 41.595C174.755 41.625 174.6 41.68 174.49 41.76C174.38 41.84 174.3 41.95 174.25 42.09C174.21 42.22 174.19 42.39 174.19 42.6C174.19 43 174.2 43.395 174.22 43.785C174.25 44.175 174.265 44.595 174.265 45.045C174.265 45.615 174.15 46.03 173.92 46.29C173.69 46.54 173.305 46.71 172.765 46.8V46.86C173.305 46.95 173.69 47.125 173.92 47.385C174.15 47.635 174.265 48.045 174.265 48.615C174.265 49.075 174.25 49.495 174.22 49.875C174.2 50.255 174.19 50.65 174.19 51.06C174.19 51.27 174.21 51.44 174.25 51.57C174.3 51.71 174.38 51.82 174.49 51.9C174.6 51.98 174.755 52.035 174.955 52.065C175.155 52.095 175.41 52.11 175.72 52.11H176.335V53.28H175.18C174.22 53.28 173.515 53.125 173.065 52.815C172.615 52.515 172.39 51.96 172.39 51.15ZM216.625 44.58C216.625 44.33 216.665 44.1 216.745 43.89C216.835 43.67 216.955 43.48 217.105 43.32C217.255 43.16 217.435 43.035 217.645 42.945C217.865 42.855 218.105 42.81 218.365 42.81C218.625 42.81 218.86 42.855 219.07 42.945C219.29 43.035 219.475 43.16 219.625 43.32C219.775 43.48 219.89 43.67 219.97 43.89C220.06 44.1 220.105 44.33 220.105 44.58C220.105 45.08 219.945 45.5 219.625 45.84C219.305 46.17 218.885 46.335 218.365 46.335C217.845 46.335 217.425 46.17 217.105 45.84C216.785 45.5 216.625 45.08 216.625 44.58ZM216.625 49.425C216.625 49.175 216.665 48.945 216.745 48.735C216.835 48.515 216.955 48.325 217.105 48.165C217.255 48.005 217.435 47.88 217.645 47.79C217.865 47.7 218.105 47.655 218.365 47.655C218.625 47.655 218.86 47.7 219.07 47.79C219.29 47.88 219.475 48.005 219.625 48.165C219.775 48.325 219.89 48.515 219.97 48.735C220.06 48.945 220.105 49.175 220.105 49.425C220.105 49.925 219.945 50.345 219.625 50.685C219.305 51.015 218.885 51.18 218.365 51.18C217.845 51.18 217.425 51.015 217.105 50.685C216.785 50.345 216.625 49.925 216.625 49.425ZM270.56 52.965C271.86 52.515 272.51 51.805 272.51 50.835C272.47 50.845 272.415 50.85 272.345 50.85C272.135 50.85 271.93 50.82 271.73 50.76C271.54 50.69 271.37 50.59 271.22 50.46C271.07 50.33 270.95 50.17 270.86 49.98C270.77 49.79 270.725 49.57 270.725 49.32C270.725 48.85 270.885 48.475 271.205 48.195C271.535 47.915 271.935 47.775 272.405 47.775C273.025 47.775 273.49 48.005 273.8 48.465C274.11 48.915 274.265 49.545 274.265 50.355C274.265 51.315 274 52.125 273.47 52.785C272.94 53.445 272.155 53.935 271.115 54.255L270.56 52.965ZM324.555 44.58C324.555 44.33 324.595 44.1 324.675 43.89C324.765 43.67 324.885 43.48 325.035 43.32C325.185 43.16 325.365 43.035 325.575 42.945C325.795 42.855 326.035 42.81 326.295 42.81C326.555 42.81 326.79 42.855 327 42.945C327.22 43.035 327.405 43.16 327.555 43.32C327.705 43.48 327.82 43.67 327.9 43.89C327.99 44.1 328.035 44.33 328.035 44.58C328.035 45.08 327.875 45.5 327.555 45.84C327.235 46.17 326.815 46.335 326.295 46.335C325.775 46.335 325.355 46.17 325.035 45.84C324.715 45.5 324.555 45.08 324.555 44.58ZM324.555 49.425C324.555 49.175 324.595 48.945 324.675 48.735C324.765 48.515 324.885 48.325 325.035 48.165C325.185 48.005 325.365 47.88 325.575 47.79C325.795 47.7 326.035 47.655 326.295 47.655C326.555 47.655 326.79 47.7 327 47.79C327.22 47.88 327.405 48.005 327.555 48.165C327.705 48.325 327.82 48.515 327.9 48.735C327.99 48.945 328.035 49.175 328.035 49.425C328.035 49.925 327.875 50.345 327.555 50.685C327.235 51.015 326.815 51.18 326.295 51.18C325.775 51.18 325.355 51.015 325.035 50.685C324.715 50.345 324.555 49.925 324.555 49.425ZM369.496 52.965C370.796 52.515 371.446 51.805 371.446 50.835C371.406 50.845 371.351 50.85 371.281 50.85C371.071 50.85 370.866 50.82 370.666 50.76C370.476 50.69 370.306 50.59 370.156 50.46C370.006 50.33 369.886 50.17 369.796 49.98C369.706 49.79 369.661 49.57 369.661 49.32C369.661 48.85 369.821 48.475 370.141 48.195C370.471 47.915 370.871 47.775 371.341 47.775C371.961 47.775 372.426 48.005 372.736 48.465C373.046 48.915 373.201 49.545 373.201 50.355C373.201 51.315 372.936 52.125 372.406 52.785C371.876 53.445 371.091 53.935 370.051 54.255L369.496 52.965ZM432.485 44.58C432.485 44.33 432.525 44.1 432.605 43.89C432.695 43.67 432.815 43.48 432.965 43.32C433.115 43.16 433.295 43.035 433.505 42.945C433.725 42.855 433.965 42.81 434.225 42.81C434.485 42.81 434.72 42.855 434.93 42.945C435.15 43.035 435.335 43.16 435.485 43.32C435.635 43.48 435.75 43.67 435.83 43.89C435.92 44.1 435.965 44.33 435.965 44.58C435.965 45.08 435.805 45.5 435.485 45.84C435.165 46.17 434.745 46.335 434.225 46.335C433.705 46.335 433.285 46.17 432.965 45.84C432.645 45.5 432.485 45.08 432.485 44.58ZM432.485 49.425C432.485 49.175 432.525 48.945 432.605 48.735C432.695 48.515 432.815 48.325 432.965 48.165C433.115 48.005 433.295 47.88 433.505 47.79C433.725 47.7 433.965 47.655 434.225 47.655C434.485 47.655 434.72 47.7 434.93 47.79C435.15 47.88 435.335 48.005 435.485 48.165C435.635 48.325 435.75 48.515 435.83 48.735C435.92 48.945 435.965 49.175 435.965 49.425C435.965 49.925 435.805 50.345 435.485 50.685C435.165 51.015 434.745 51.18 434.225 51.18C433.705 51.18 433.285 51.015 432.965 50.685C432.645 50.345 432.485 49.925 432.485 49.425ZM486.419 52.965C487.719 52.515 488.369 51.805 488.369 50.835C488.329 50.845 488.274 50.85 488.204 50.85C487.994 50.85 487.789 50.82 487.589 50.76C487.399 50.69 487.229 50.59 487.079 50.46C486.929 50.33 486.809 50.17 486.719 49.98C486.629 49.79 486.584 49.57 486.584 49.32C486.584 48.85 486.744 48.475 487.064 48.195C487.394 47.915 487.794 47.775 488.264 47.775C488.884 47.775 489.349 48.005 489.659 48.465C489.969 48.915 490.124 49.545 490.124 50.355C490.124 51.315 489.859 52.125 489.329 52.785C488.799 53.445 488.014 53.935 486.974 54.255L486.419 52.965ZM549.408 44.58C549.408 44.33 549.448 44.1 549.528 43.89C549.618 43.67 549.738 43.48 549.888 43.32C550.038 43.16 550.218 43.035 550.428 42.945C550.648 42.855 550.888 42.81 551.148 42.81C551.408 42.81 551.643 42.855 551.853 42.945C552.073 43.035 552.258 43.16 552.408 43.32C552.558 43.48 552.673 43.67 552.753 43.89C552.843 44.1 552.888 44.33 552.888 44.58C552.888 45.08 552.728 45.5 552.408 45.84C552.088 46.17 551.668 46.335 551.148 46.335C550.628 46.335 550.208 46.17 549.888 45.84C549.568 45.5 549.408 45.08 549.408 44.58ZM549.408 49.425C549.408 49.175 549.448 48.945 549.528 48.735C549.618 48.515 549.738 48.325 549.888 48.165C550.038 48.005 550.218 47.88 550.428 47.79C550.648 47.7 550.888 47.655 551.148 47.655C551.408 47.655 551.643 47.7 551.853 47.79C552.073 47.88 552.258 48.005 552.408 48.165C552.558 48.325 552.673 48.515 552.753 48.735C552.843 48.945 552.888 49.175 552.888 49.425C552.888 49.925 552.728 50.345 552.408 50.685C552.088 51.015 551.668 51.18 551.148 51.18C550.628 51.18 550.208 51.015 549.888 50.685C549.568 50.345 549.408 49.925 549.408 49.425ZM593.809 52.11C594.119 52.11 594.369 52.095 594.559 52.065C594.759 52.035 594.914 51.98 595.024 51.9C595.134 51.82 595.209 51.71 595.249 51.57C595.299 51.44 595.324 51.27 595.324 51.06C595.324 50.65 595.314 50.255 595.294 49.875C595.274 49.495 595.264 49.075 595.264 48.615C595.264 48.045 595.379 47.635 595.609 47.385C595.839 47.125 596.224 46.95 596.764 46.86V46.8C596.224 46.71 595.839 46.54 595.609 46.29C595.379 46.03 595.264 45.615 595.264 45.045C595.264 44.595 595.274 44.175 595.294 43.785C595.314 43.395 595.324 43 595.324 42.6C595.324 42.39 595.299 42.22 595.249 42.09C595.209 41.95 595.134 41.84 595.024 41.76C594.914 41.68 594.759 41.625 594.559 41.595C594.369 41.565 594.119 41.55 593.809 41.55H593.194V40.38H594.349C595.309 40.38 596.014 40.535 596.464 40.845C596.914 41.145 597.139 41.7 597.139 42.51C597.139 42.77 597.129 43.01 597.109 43.23C597.099 43.44 597.079 43.645 597.049 43.845C597.029 44.035 597.009 44.23 596.989 44.43C596.979 44.63 596.974 44.845 596.974 45.075C596.974 45.205 597.004 45.335 597.064 45.465C597.124 45.595 597.234 45.715 597.394 45.825C597.554 45.925 597.764 46.01 598.024 46.08C598.294 46.14 598.634 46.175 599.044 46.185V47.475C598.634 47.485 598.294 47.525 598.024 47.595C597.764 47.655 597.554 47.74 597.394 47.85C597.234 47.95 597.124 48.065 597.064 48.195C597.004 48.325 596.974 48.455 596.974 48.585C596.974 48.825 596.979 49.045 596.989 49.245C597.009 49.435 597.029 49.63 597.049 49.83C597.079 50.02 597.099 50.22 597.109 50.43C597.129 50.64 597.139 50.88 597.139 51.15C597.139 51.96 596.914 52.515 596.464 52.815C596.014 53.125 595.309 53.28 594.349 53.28H593.194V52.11H593.809ZM57.8507 72.685C56.8707 71.815 56.0957 70.81 55.5257 69.67C54.9657 68.53 54.6857 67.25 54.6857 65.83C54.6857 64.41 54.9657 63.13 55.5257 61.99C56.0957 60.85 56.8707 59.845 57.8507 58.975L59.0807 59.95C58.1907 60.82 57.5407 61.725 57.1307 62.665C56.7307 63.595 56.5307 64.65 56.5307 65.83C56.5307 66.42 56.5807 66.98 56.6807 67.51C56.7807 68.03 56.9307 68.53 57.1307 69.01C57.3407 69.49 57.6057 69.95 57.9257 70.39C58.2457 70.84 58.6307 71.28 59.0807 71.71L57.8507 72.685ZM61.9698 66.28C61.9698 65.66 62.0848 65.11 62.3148 64.63C62.5548 64.14 62.8698 63.73 63.2598 63.4C63.6598 63.07 64.1198 62.82 64.6398 62.65C65.1598 62.47 65.7048 62.38 66.2748 62.38C66.8648 62.38 67.3948 62.475 67.8648 62.665C68.3448 62.855 68.7448 63.095 69.0648 63.385L68.0448 64.75C67.4948 64.36 66.9448 64.165 66.3948 64.165C65.7548 64.165 65.2348 64.355 64.8348 64.735C64.4348 65.115 64.2348 65.63 64.2348 66.28C64.2348 66.93 64.4248 67.445 64.8048 67.825C65.1948 68.205 65.6998 68.395 66.3198 68.395C66.7098 68.395 67.0698 68.325 67.3998 68.185C67.7298 68.045 68.0248 67.88 68.2848 67.69L69.1848 69.085C68.7348 69.465 68.2348 69.745 67.6848 69.925C67.1448 70.095 66.6198 70.18 66.1098 70.18C65.5198 70.18 64.9748 70.095 64.4748 69.925C63.9748 69.745 63.5348 69.49 63.1548 69.16C62.7848 68.83 62.4948 68.425 62.2848 67.945C62.0748 67.455 61.9698 66.9 61.9698 66.28ZM70.664 66.28C70.664 65.66 70.769 65.11 70.979 64.63C71.189 64.14 71.469 63.73 71.819 63.4C72.179 63.07 72.584 62.82 73.034 62.65C73.494 62.47 73.969 62.38 74.459 62.38C74.949 62.38 75.419 62.47 75.869 62.65C76.329 62.82 76.734 63.07 77.084 63.4C77.444 63.73 77.729 64.14 77.939 64.63C78.149 65.11 78.254 65.66 78.254 66.28C78.254 66.9 78.149 67.455 77.939 67.945C77.729 68.425 77.444 68.83 77.084 69.16C76.734 69.49 76.329 69.745 75.869 69.925C75.419 70.095 74.949 70.18 74.459 70.18C73.969 70.18 73.494 70.095 73.034 69.925C72.584 69.745 72.179 69.49 71.819 69.16C71.469 68.83 71.189 68.425 70.979 67.945C70.769 67.455 70.664 66.9 70.664 66.28ZM72.929 66.28C72.929 66.93 73.054 67.445 73.304 67.825C73.564 68.205 73.949 68.395 74.459 68.395C74.969 68.395 75.349 68.205 75.599 67.825C75.859 67.445 75.989 66.93 75.989 66.28C75.989 65.63 75.859 65.115 75.599 64.735C75.349 64.355 74.969 64.165 74.459 64.165C73.949 64.165 73.564 64.355 73.304 64.735C73.054 65.115 72.929 65.63 72.929 66.28ZM80.0331 62.56H81.8331L81.9981 63.55H82.0581C82.3781 63.23 82.7431 62.955 83.1531 62.725C83.5731 62.495 84.0631 62.38 84.6231 62.38C85.4631 62.38 86.0781 62.65 86.4681 63.19C86.8581 63.73 87.0531 64.47 87.0531 65.41V70H84.8481V65.695C84.8481 65.195 84.7681 64.83 84.6081 64.6C84.4481 64.37 84.1631 64.255 83.7531 64.255C83.4531 64.255 83.1881 64.32 82.9581 64.45C82.7381 64.58 82.4981 64.775 82.2381 65.035V70H80.0331V62.56ZM90.5573 64.285H88.6823V62.65L90.6623 62.56L90.9473 60.58H92.7623V62.56H95.9123V64.285H92.7623V66.895C92.7623 67.465 92.8873 67.87 93.1373 68.11C93.3873 68.34 93.7823 68.455 94.3223 68.455C94.6123 68.455 94.8773 68.43 95.1173 68.38C95.3573 68.33 95.5873 68.265 95.8073 68.185L96.1973 69.775C95.8673 69.875 95.4973 69.965 95.0873 70.045C94.6873 70.135 94.2473 70.18 93.7673 70.18C93.1773 70.18 92.6773 70.1 92.2673 69.94C91.8573 69.78 91.5223 69.56 91.2623 69.28C91.0123 68.99 90.8323 68.645 90.7223 68.245C90.6123 67.845 90.5573 67.4 90.5573 66.91V64.285ZM97.7664 66.28C97.7664 65.67 97.8714 65.125 98.0814 64.645C98.3014 64.165 98.5914 63.76 98.9514 63.43C99.3114 63.09 99.7214 62.83 100.181 62.65C100.651 62.47 101.136 62.38 101.636 62.38C102.206 62.38 102.711 62.47 103.151 62.65C103.591 62.83 103.956 63.08 104.246 63.4C104.536 63.72 104.756 64.1 104.906 64.54C105.056 64.97 105.131 65.44 105.131 65.95C105.131 66.15 105.121 66.34 105.101 66.52C105.081 66.7 105.061 66.835 105.041 66.925H100.031C100.111 67.485 100.351 67.89 100.751 68.14C101.161 68.38 101.641 68.5 102.191 68.5C102.531 68.5 102.851 68.46 103.151 68.38C103.461 68.29 103.781 68.16 104.111 67.99L104.831 69.31C104.411 69.58 103.941 69.795 103.421 69.955C102.901 70.105 102.391 70.18 101.891 70.18C101.311 70.18 100.771 70.095 100.271 69.925C99.7714 69.745 99.3364 69.49 98.9664 69.16C98.5964 68.82 98.3014 68.41 98.0814 67.93C97.8714 67.45 97.7664 66.9 97.7664 66.28ZM103.136 65.47C103.136 65.05 103.021 64.71 102.791 64.45C102.561 64.19 102.191 64.06 101.681 64.06C101.281 64.06 100.926 64.175 100.616 64.405C100.306 64.635 100.101 64.99 100.001 65.47H103.136ZM107.016 62.56H108.816L108.981 63.55H109.041C109.361 63.23 109.726 62.955 110.136 62.725C110.556 62.495 111.046 62.38 111.606 62.38C112.446 62.38 113.061 62.65 113.451 63.19C113.841 63.73 114.036 64.47 114.036 65.41V70H111.831V65.695C111.831 65.195 111.751 64.83 111.591 64.6C111.431 64.37 111.146 64.255 110.736 64.255C110.436 64.255 110.171 64.32 109.941 64.45C109.721 64.58 109.481 64.775 109.221 65.035V70H107.016V62.56ZM117.54 64.285H115.665V62.65L117.645 62.56L117.93 60.58H119.745V62.56H122.895V64.285H119.745V66.895C119.745 67.465 119.87 67.87 120.12 68.11C120.37 68.34 120.765 68.455 121.305 68.455C121.595 68.455 121.86 68.43 122.1 68.38C122.34 68.33 122.57 68.265 122.79 68.185L123.18 69.775C122.85 69.875 122.48 69.965 122.07 70.045C121.67 70.135 121.23 70.18 120.75 70.18C120.16 70.18 119.66 70.1 119.25 69.94C118.84 69.78 118.505 69.56 118.245 69.28C117.995 68.99 117.815 68.645 117.705 68.245C117.595 67.845 117.54 67.4 117.54 66.91V64.285ZM132.024 70.81V72.46H124.824V70.81H132.024ZM134.658 62.56H136.458L136.638 64.18H136.683C137.053 63.57 137.498 63.12 138.018 62.83C138.538 62.53 139.098 62.38 139.698 62.38C140.028 62.38 140.293 62.405 140.493 62.455C140.703 62.505 140.918 62.58 141.138 62.68L140.688 64.525C140.458 64.455 140.248 64.405 140.058 64.375C139.878 64.335 139.648 64.315 139.368 64.315C138.908 64.315 138.453 64.45 138.003 64.72C137.563 64.99 137.183 65.46 136.863 66.13V70H134.658V62.56ZM142.827 67.93C142.827 67.51 142.917 67.145 143.097 66.835C143.277 66.515 143.562 66.245 143.952 66.025C144.352 65.805 144.862 65.63 145.482 65.5C146.102 65.36 146.852 65.265 147.732 65.215C147.692 64.875 147.542 64.61 147.282 64.42C147.032 64.23 146.652 64.135 146.142 64.135C145.782 64.135 145.417 64.2 145.047 64.33C144.687 64.45 144.297 64.615 143.877 64.825L143.097 63.385C143.607 63.095 144.152 62.855 144.732 62.665C145.322 62.475 145.937 62.38 146.577 62.38C147.617 62.38 148.437 62.655 149.037 63.205C149.637 63.755 149.937 64.6 149.937 65.74V70H148.137L147.972 69.16H147.912C147.532 69.45 147.117 69.695 146.667 69.895C146.217 70.085 145.752 70.18 145.272 70.18C144.892 70.18 144.552 70.12 144.252 70C143.952 69.89 143.697 69.735 143.487 69.535C143.277 69.325 143.112 69.085 142.992 68.815C142.882 68.545 142.827 68.25 142.827 67.93ZM144.942 67.765C144.942 68.005 145.032 68.185 145.212 68.305C145.402 68.415 145.657 68.47 145.977 68.47C146.307 68.47 146.617 68.405 146.907 68.275C147.197 68.135 147.472 67.965 147.732 67.765V66.535C147.182 66.565 146.727 66.615 146.367 66.685C146.007 66.755 145.722 66.845 145.512 66.955C145.302 67.055 145.152 67.175 145.062 67.315C144.982 67.455 144.942 67.605 144.942 67.765ZM153.516 64.285H151.641V62.65L153.621 62.56L153.906 60.58H155.721V62.56H158.871V64.285H155.721V66.895C155.721 67.465 155.846 67.87 156.096 68.11C156.346 68.34 156.741 68.455 157.281 68.455C157.571 68.455 157.836 68.43 158.076 68.38C158.316 68.33 158.546 68.265 158.766 68.185L159.156 69.775C158.826 69.875 158.456 69.965 158.046 70.045C157.646 70.135 157.206 70.18 156.726 70.18C156.136 70.18 155.636 70.1 155.226 69.94C154.816 69.78 154.481 69.56 154.221 69.28C153.971 68.99 153.791 68.645 153.681 68.245C153.571 67.845 153.516 67.4 153.516 66.91V64.285ZM161.085 62.56H166.275V70H164.07V64.285H161.085V62.56ZM165.075 61.465C164.645 61.465 164.29 61.345 164.01 61.105C163.74 60.865 163.605 60.54 163.605 60.13C163.605 59.72 163.74 59.39 164.01 59.14C164.29 58.88 164.645 58.75 165.075 58.75C165.505 58.75 165.855 58.88 166.125 59.14C166.405 59.39 166.545 59.72 166.545 60.13C166.545 60.54 166.405 60.865 166.125 61.105C165.855 61.345 165.505 61.465 165.075 61.465ZM169.975 62.56H171.775L171.94 63.55H172C172.32 63.23 172.685 62.955 173.095 62.725C173.515 62.495 174.005 62.38 174.565 62.38C175.405 62.38 176.02 62.65 176.41 63.19C176.8 63.73 176.995 64.47 176.995 65.41V70H174.79V65.695C174.79 65.195 174.71 64.83 174.55 64.6C174.39 64.37 174.105 64.255 173.695 64.255C173.395 64.255 173.13 64.32 172.9 64.45C172.68 64.58 172.44 64.775 172.18 65.035V70H169.975V62.56ZM180.469 70.93C180.469 71.21 180.634 71.42 180.964 71.56C181.304 71.71 181.769 71.785 182.359 71.785C182.959 71.785 183.444 71.695 183.814 71.515C184.184 71.345 184.369 71.13 184.369 70.87C184.369 70.63 184.259 70.47 184.039 70.39C183.819 70.32 183.494 70.285 183.064 70.285H182.134C181.864 70.285 181.639 70.275 181.459 70.255C181.289 70.245 181.134 70.225 180.994 70.195C180.804 70.315 180.669 70.43 180.589 70.54C180.509 70.66 180.469 70.79 180.469 70.93ZM178.669 71.26C178.669 70.65 179.054 70.155 179.824 69.775V69.715C179.624 69.585 179.449 69.42 179.299 69.22C179.149 69.02 179.074 68.76 179.074 68.44C179.074 68.19 179.154 67.94 179.314 67.69C179.484 67.44 179.699 67.225 179.959 67.045V66.985C179.689 66.805 179.459 66.555 179.269 66.235C179.079 65.905 178.984 65.52 178.984 65.08C178.984 64.63 179.069 64.24 179.239 63.91C179.419 63.57 179.654 63.29 179.944 63.07C180.234 62.84 180.569 62.67 180.949 62.56C181.339 62.44 181.744 62.38 182.164 62.38C182.624 62.38 183.034 62.44 183.394 62.56H186.409V64.165H184.894C184.984 64.275 185.064 64.42 185.134 64.6C185.204 64.77 185.239 64.955 185.239 65.155C185.239 65.585 185.159 65.955 184.999 66.265C184.839 66.575 184.619 66.835 184.339 67.045C184.069 67.245 183.744 67.395 183.364 67.495C182.994 67.595 182.594 67.645 182.164 67.645C181.844 67.645 181.504 67.595 181.144 67.495C181.034 67.575 180.949 67.655 180.889 67.735C180.839 67.815 180.814 67.915 180.814 68.035C180.814 68.235 180.914 68.38 181.114 68.47C181.314 68.56 181.634 68.605 182.074 68.605H183.454C184.434 68.605 185.179 68.75 185.689 69.04C186.209 69.33 186.469 69.81 186.469 70.48C186.469 70.87 186.364 71.23 186.154 71.56C185.944 71.89 185.649 72.17 185.269 72.4C184.889 72.64 184.424 72.825 183.874 72.955C183.324 73.095 182.714 73.165 182.044 73.165C181.564 73.165 181.114 73.125 180.694 73.045C180.284 72.975 179.929 72.86 179.629 72.7C179.329 72.55 179.094 72.355 178.924 72.115C178.754 71.875 178.669 71.59 178.669 71.26ZM182.164 66.31C182.474 66.31 182.739 66.21 182.959 66.01C183.189 65.8 183.304 65.49 183.304 65.08C183.304 64.68 183.189 64.38 182.959 64.18C182.739 63.97 182.474 63.865 182.164 63.865C181.854 63.865 181.589 63.97 181.369 64.18C181.159 64.38 181.054 64.68 181.054 65.08C181.054 65.49 181.159 65.8 181.369 66.01C181.589 66.21 181.854 66.31 182.164 66.31ZM188.668 67.66C189.098 67.93 189.528 68.145 189.958 68.305C190.398 68.465 190.868 68.545 191.368 68.545C191.878 68.545 192.243 68.49 192.463 68.38C192.683 68.27 192.793 68.115 192.793 67.915C192.793 67.685 192.608 67.5 192.238 67.36C191.878 67.21 191.398 67.05 190.798 66.88C190.468 66.79 190.143 66.685 189.823 66.565C189.513 66.435 189.233 66.285 188.983 66.115C188.733 65.935 188.528 65.73 188.368 65.5C188.218 65.27 188.143 65.005 188.143 64.705C188.143 64.365 188.223 64.05 188.383 63.76C188.543 63.47 188.768 63.225 189.058 63.025C189.358 62.825 189.718 62.67 190.138 62.56C190.568 62.44 191.048 62.38 191.578 62.38C192.238 62.38 192.838 62.49 193.378 62.71C193.928 62.92 194.398 63.15 194.788 63.4L193.798 64.72C193.458 64.52 193.108 64.355 192.748 64.225C192.388 64.085 192.013 64.015 191.623 64.015C191.153 64.015 190.818 64.065 190.618 64.165C190.428 64.265 190.333 64.41 190.333 64.6C190.333 64.71 190.383 64.81 190.483 64.9C190.583 64.99 190.718 65.07 190.888 65.14C191.058 65.21 191.258 65.28 191.488 65.35C191.728 65.41 191.978 65.475 192.238 65.545C192.608 65.645 192.958 65.76 193.288 65.89C193.618 66.01 193.908 66.155 194.158 66.325C194.408 66.495 194.608 66.7 194.758 66.94C194.908 67.18 194.983 67.46 194.983 67.78C194.983 68.12 194.903 68.435 194.743 68.725C194.583 69.015 194.348 69.27 194.038 69.49C193.738 69.7 193.358 69.87 192.898 70C192.448 70.12 191.923 70.18 191.323 70.18C190.653 70.18 189.998 70.07 189.358 69.85C188.718 69.63 188.158 69.36 187.678 69.04L188.668 67.66ZM197.767 71.71C198.217 71.28 198.602 70.84 198.922 70.39C199.242 69.95 199.502 69.49 199.702 69.01C199.912 68.53 200.067 68.03 200.167 67.51C200.267 66.98 200.317 66.42 200.317 65.83C200.317 64.65 200.112 63.595 199.702 62.665C199.302 61.725 198.657 60.82 197.767 59.95L198.997 58.975C199.977 59.845 200.747 60.85 201.307 61.99C201.877 63.13 202.162 64.41 202.162 65.83C202.162 67.25 201.877 68.53 201.307 69.67C200.747 70.81 199.977 71.815 198.997 72.685L197.767 71.71Z" fill="white"/>
<path d="M181.189 42.9L181.114 40.725H183.664L183.589 42.9L183.064 46.455H181.714L181.189 42.9ZM191.998 47.04V45.435C191.998 45.135 192.003 44.79 192.013 44.4C192.033 44 192.053 43.65 192.073 43.35H192.013C191.853 43.62 191.683 43.89 191.503 44.16C191.323 44.43 191.148 44.7 190.978 44.97L189.538 47.04H191.998ZM195.253 48.72H194.053V51H191.998V48.72H187.408V47.205L191.383 41.475H194.053V47.04H195.253V48.72ZM199.567 46.83H196.927V45.27H199.567V42.51H201.187V45.27H203.827V46.83H201.187V49.59H199.567V46.83ZM208.171 42.9L208.096 40.725H210.646L210.571 42.9L210.046 46.455H208.696L208.171 42.9ZM289.118 42.9L289.043 40.725H291.593L291.518 42.9L290.993 46.455H289.643L289.118 42.9ZM299.043 45.87C299.323 45.87 299.613 45.8 299.913 45.66C300.213 45.52 300.508 45.275 300.798 44.925C300.738 44.555 300.648 44.245 300.528 43.995C300.418 43.735 300.283 43.53 300.123 43.38C299.973 43.22 299.808 43.11 299.628 43.05C299.448 42.98 299.263 42.945 299.073 42.945C298.883 42.945 298.698 42.975 298.518 43.035C298.348 43.095 298.193 43.19 298.053 43.32C297.923 43.44 297.818 43.6 297.738 43.8C297.658 43.99 297.618 44.22 297.618 44.49C297.618 44.98 297.748 45.335 298.008 45.555C298.268 45.765 298.613 45.87 299.043 45.87ZM296.913 48.72C297.113 48.9 297.363 49.06 297.663 49.2C297.963 49.33 298.273 49.395 298.593 49.395C298.883 49.395 299.158 49.345 299.418 49.245C299.688 49.135 299.923 48.965 300.123 48.735C300.333 48.495 300.503 48.185 300.633 47.805C300.763 47.415 300.838 46.94 300.858 46.38C300.508 46.71 300.123 46.97 299.703 47.16C299.293 47.34 298.913 47.43 298.562 47.43C298.143 47.43 297.753 47.37 297.393 47.25C297.033 47.13 296.718 46.95 296.448 46.71C296.188 46.47 295.983 46.165 295.833 45.795C295.683 45.425 295.608 44.99 295.608 44.49C295.608 44 295.698 43.56 295.878 43.17C296.068 42.77 296.318 42.43 296.628 42.15C296.948 41.87 297.313 41.66 297.723 41.52C298.133 41.37 298.568 41.295 299.028 41.295C299.518 41.295 299.993 41.385 300.453 41.565C300.923 41.745 301.338 42.025 301.698 42.405C302.058 42.785 302.343 43.275 302.553 43.875C302.773 44.465 302.883 45.18 302.883 46.02C302.883 46.91 302.768 47.68 302.538 48.33C302.308 48.98 302.003 49.515 301.623 49.935C301.243 50.355 300.803 50.67 300.303 50.88C299.813 51.08 299.308 51.18 298.788 51.18C298.108 51.18 297.513 51.065 297.003 50.835C296.493 50.605 296.073 50.34 295.743 50.04L296.913 48.72ZM307.497 46.83H304.857V45.27H307.497V42.51H309.117V45.27H311.757V46.83H309.117V49.59H307.497V46.83ZM316.101 42.9L316.026 40.725H318.576L318.501 42.9L317.976 46.455H316.626L316.101 42.9ZM388.054 42.9L387.979 40.725H390.529L390.454 42.9L389.929 46.455H388.579L388.054 42.9ZM401.803 49.215V51H394.978V49.215H397.438V43.71H395.473V42.345C396.033 42.245 396.508 42.125 396.898 41.985C397.298 41.845 397.673 41.675 398.023 41.475H399.643V49.215H401.803ZM403.612 49.74C404.292 49.17 404.912 48.64 405.472 48.15C406.032 47.65 406.512 47.185 406.912 46.755C407.312 46.325 407.622 45.92 407.842 45.54C408.062 45.16 408.172 44.8 408.172 44.46C408.172 43.99 408.037 43.635 407.767 43.395C407.497 43.145 407.112 43.02 406.612 43.02C406.232 43.02 405.882 43.12 405.562 43.32C405.252 43.51 404.962 43.735 404.692 43.995L403.507 42.81C403.757 42.56 404.002 42.34 404.242 42.15C404.492 41.96 404.752 41.805 405.022 41.685C405.302 41.555 405.592 41.46 405.892 41.4C406.202 41.33 406.542 41.295 406.912 41.295C407.412 41.295 407.867 41.37 408.277 41.52C408.687 41.66 409.037 41.865 409.327 42.135C409.627 42.395 409.857 42.71 410.017 43.08C410.187 43.45 410.272 43.865 410.272 44.325C410.272 44.725 410.177 45.135 409.987 45.555C409.797 45.965 409.537 46.38 409.207 46.8C408.887 47.21 408.517 47.625 408.097 48.045C407.677 48.455 407.237 48.86 406.777 49.26C407.047 49.23 407.337 49.205 407.647 49.185C407.967 49.155 408.252 49.14 408.502 49.14H410.767V51H403.612V49.74ZM415.426 46.83H412.786V45.27H415.426V42.51H417.046V45.27H419.686V46.83H417.046V49.59H415.426V46.83ZM424.03 42.9L423.955 40.725H426.505L426.43 42.9L425.905 46.455H424.555L424.03 42.9ZM504.978 42.9L504.903 40.725H507.453L507.378 42.9L506.853 46.455H505.503L504.978 42.9ZM518.727 49.215V51H511.902V49.215H514.362V43.71H512.397V42.345C512.957 42.245 513.432 42.125 513.822 41.985C514.222 41.845 514.597 41.675 514.947 41.475H516.567V49.215H518.727ZM522.561 51C522.601 50.21 522.676 49.485 522.786 48.825C522.906 48.155 523.071 47.52 523.281 46.92C523.501 46.31 523.781 45.72 524.121 45.15C524.461 44.57 524.881 43.965 525.381 43.335H520.596V41.475H527.751V42.825C527.151 43.495 526.666 44.125 526.296 44.715C525.926 45.295 525.636 45.9 525.426 46.53C525.216 47.15 525.066 47.82 524.976 48.54C524.886 49.25 524.821 50.07 524.781 51H522.561ZM532.35 46.83H529.71V45.27H532.35V42.51H533.97V45.27H536.61V46.83H533.97V49.59H532.35V46.83ZM540.954 42.9L540.879 40.725H543.429L543.354 42.9L542.829 46.455H541.479L540.954 42.9Z" fill="#009E73"/>
<path d="M236.969 47.04V45.435C236.969 45.135 236.974 44.79 236.984 44.4C237.004 44 237.024 43.65 237.044 43.35H236.984C236.824 43.62 236.654 43.89 236.474 44.16C236.294 44.43 236.119 44.7 235.949 44.97L234.509 47.04H236.969ZM240.224 48.72H239.024V51H236.969V48.72H232.379V47.205L236.354 41.475H239.024V47.04H240.224V48.72ZM245.963 47.04V45.435C245.963 45.135 245.968 44.79 245.978 44.4C245.998 44 246.018 43.65 246.038 43.35H245.978C245.818 43.62 245.648 43.89 245.468 44.16C245.288 44.43 245.113 44.7 244.943 44.97L243.503 47.04H245.963ZM249.218 48.72H248.018V51H245.963V48.72H241.373V47.205L245.348 41.475H248.018V47.04H249.218V48.72ZM251.492 48.435C251.812 48.715 252.167 48.945 252.557 49.125C252.957 49.305 253.377 49.395 253.817 49.395C254.337 49.395 254.762 49.3 255.092 49.11C255.432 48.91 255.602 48.63 255.602 48.27C255.602 48.06 255.557 47.87 255.467 47.7C255.377 47.53 255.222 47.39 255.002 47.28C254.782 47.16 254.487 47.07 254.117 47.01C253.747 46.94 253.282 46.905 252.722 46.905V45.345C253.662 45.345 254.322 45.23 254.702 45C255.092 44.76 255.287 44.45 255.287 44.07C255.287 43.74 255.162 43.485 254.912 43.305C254.662 43.115 254.317 43.02 253.877 43.02C253.497 43.02 253.147 43.095 252.827 43.245C252.507 43.395 252.182 43.6 251.852 43.86L250.742 42.51C251.212 42.13 251.712 41.835 252.242 41.625C252.782 41.405 253.362 41.295 253.982 41.295C254.502 41.295 254.977 41.355 255.407 41.475C255.837 41.585 256.207 41.755 256.517 41.985C256.827 42.205 257.067 42.475 257.237 42.795C257.407 43.115 257.492 43.485 257.492 43.905C257.492 44.405 257.332 44.83 257.012 45.18C256.692 45.52 256.247 45.8 255.677 46.02V46.08C256.277 46.24 256.782 46.515 257.192 46.905C257.602 47.285 257.807 47.785 257.807 48.405C257.807 48.845 257.702 49.24 257.492 49.59C257.292 49.93 257.017 50.22 256.667 50.46C256.327 50.69 255.927 50.87 255.467 51C255.007 51.12 254.527 51.18 254.027 51.18C253.207 51.18 252.502 51.06 251.912 50.82C251.322 50.57 250.842 50.24 250.472 49.83L251.492 48.435ZM260.486 48.435C260.806 48.715 261.161 48.945 261.551 49.125C261.951 49.305 262.371 49.395 262.811 49.395C263.331 49.395 263.756 49.3 264.086 49.11C264.426 48.91 264.596 48.63 264.596 48.27C264.596 48.06 264.551 47.87 264.461 47.7C264.371 47.53 264.216 47.39 263.996 47.28C263.776 47.16 263.481 47.07 263.111 47.01C262.741 46.94 262.276 46.905 261.716 46.905V45.345C262.656 45.345 263.316 45.23 263.696 45C264.086 44.76 264.281 44.45 264.281 44.07C264.281 43.74 264.156 43.485 263.906 43.305C263.656 43.115 263.311 43.02 262.871 43.02C262.491 43.02 262.141 43.095 261.821 43.245C261.501 43.395 261.176 43.6 260.846 43.86L259.736 42.51C260.206 42.13 260.706 41.835 261.236 41.625C261.776 41.405 262.356 41.295 262.976 41.295C263.496 41.295 263.971 41.355 264.401 41.475C264.831 41.585 265.201 41.755 265.511 41.985C265.821 42.205 266.061 42.475 266.231 42.795C266.401 43.115 266.486 43.485 266.486 43.905C266.486 44.405 266.326 44.83 266.006 45.18C265.686 45.52 265.241 45.8 264.671 46.02V46.08C265.271 46.24 265.776 46.515 266.186 46.905C266.596 47.285 266.801 47.785 266.801 48.405C266.801 48.845 266.696 49.24 266.486 49.59C266.286 49.93 266.011 50.22 265.661 50.46C265.321 50.69 264.921 50.87 264.461 51C264.001 51.12 263.521 51.18 263.021 51.18C262.201 51.18 261.496 51.06 260.906 50.82C260.316 50.57 259.836 50.24 259.466 49.83L260.486 48.435ZM344.013 45.87C344.293 45.87 344.583 45.8 344.883 45.66C345.183 45.52 345.478 45.275 345.768 44.925C345.708 44.555 345.618 44.245 345.498 43.995C345.388 43.735 345.253 43.53 345.093 43.38C344.943 43.22 344.778 43.11 344.598 43.05C344.418 42.98 344.233 42.945 344.043 42.945C343.853 42.945 343.668 42.975 343.488 43.035C343.318 43.095 343.163 43.19 343.023 43.32C342.893 43.44 342.788 43.6 342.708 43.8C342.628 43.99 342.588 44.22 342.588 44.49C342.588 44.98 342.718 45.335 342.978 45.555C343.238 45.765 343.583 45.87 344.013 45.87ZM341.883 48.72C342.083 48.9 342.333 49.06 342.633 49.2C342.933 49.33 343.243 49.395 343.563 49.395C343.853 49.395 344.128 49.345 344.388 49.245C344.658 49.135 344.893 48.965 345.093 48.735C345.303 48.495 345.473 48.185 345.603 47.805C345.733 47.415 345.808 46.94 345.828 46.38C345.478 46.71 345.093 46.97 344.673 47.16C344.263 47.34 343.883 47.43 343.533 47.43C343.113 47.43 342.723 47.37 342.363 47.25C342.003 47.13 341.688 46.95 341.418 46.71C341.158 46.47 340.953 46.165 340.803 45.795C340.653 45.425 340.578 44.99 340.578 44.49C340.578 44 340.668 43.56 340.848 43.17C341.038 42.77 341.288 42.43 341.598 42.15C341.918 41.87 342.283 41.66 342.693 41.52C343.103 41.37 343.538 41.295 343.998 41.295C344.488 41.295 344.963 41.385 345.423 41.565C345.893 41.745 346.308 42.025 346.668 42.405C347.028 42.785 347.313 43.275 347.523 43.875C347.743 44.465 347.853 45.18 347.853 46.02C347.853 46.91 347.738 47.68 347.508 48.33C347.278 48.98 346.973 49.515 346.593 49.935C346.213 50.355 345.773 50.67 345.273 50.88C344.783 51.08 344.278 51.18 343.758 51.18C343.078 51.18 342.483 51.065 341.973 50.835C341.463 50.605 341.043 50.34 340.713 50.04L341.883 48.72ZM351.597 48.315C351.597 48.735 351.762 49.065 352.092 49.305C352.422 49.535 352.832 49.65 353.322 49.65C353.772 49.65 354.132 49.555 354.402 49.365C354.682 49.165 354.822 48.865 354.822 48.465C354.822 48.245 354.767 48.06 354.657 47.91C354.547 47.76 354.387 47.625 354.177 47.505C353.977 47.375 353.737 47.26 353.457 47.16C353.177 47.05 352.867 46.93 352.527 46.8C352.257 47 352.032 47.225 351.852 47.475C351.682 47.725 351.597 48.005 351.597 48.315ZM353.922 45.45C354.402 45.02 354.642 44.555 354.642 44.055C354.642 43.685 354.527 43.39 354.297 43.17C354.067 42.94 353.732 42.825 353.292 42.825C352.942 42.825 352.642 42.915 352.392 43.095C352.152 43.275 352.032 43.55 352.032 43.92C352.032 44.31 352.207 44.615 352.557 44.835C352.907 45.055 353.362 45.26 353.922 45.45ZM349.692 48.57C349.692 48.28 349.737 48.02 349.827 47.79C349.927 47.55 350.057 47.335 350.217 47.145C350.387 46.955 350.577 46.785 350.787 46.635C351.007 46.485 351.242 46.35 351.492 46.23V46.17C351.092 45.89 350.757 45.575 350.487 45.225C350.227 44.865 350.097 44.43 350.097 43.92C350.097 43.52 350.177 43.16 350.337 42.84C350.497 42.51 350.717 42.23 350.997 42C351.287 41.77 351.632 41.595 352.032 41.475C352.432 41.355 352.867 41.295 353.337 41.295C353.817 41.295 354.247 41.36 354.627 41.49C355.017 41.61 355.347 41.785 355.617 42.015C355.887 42.235 356.092 42.51 356.232 42.84C356.382 43.16 356.457 43.515 356.457 43.905C356.457 44.355 356.322 44.755 356.052 45.105C355.792 45.455 355.472 45.75 355.092 45.99V46.05C355.342 46.17 355.577 46.31 355.797 46.47C356.017 46.62 356.207 46.795 356.367 46.995C356.527 47.195 356.652 47.425 356.742 47.685C356.832 47.935 356.877 48.22 356.877 48.54C356.877 48.92 356.797 49.27 356.637 49.59C356.477 49.91 356.242 50.19 355.932 50.43C355.632 50.66 355.257 50.845 354.807 50.985C354.357 51.115 353.842 51.18 353.262 51.18C352.712 51.18 352.217 51.12 351.777 51C351.337 50.87 350.962 50.69 350.652 50.46C350.342 50.23 350.102 49.955 349.932 49.635C349.772 49.315 349.692 48.96 349.692 48.57ZM360.666 51C360.706 50.21 360.781 49.485 360.891 48.825C361.011 48.155 361.176 47.52 361.386 46.92C361.606 46.31 361.886 45.72 362.226 45.15C362.566 44.57 362.986 43.965 363.486 43.335H358.701V41.475H365.856V42.825C365.256 43.495 364.771 44.125 364.401 44.715C364.031 45.295 363.741 45.9 363.531 46.53C363.321 47.15 363.171 47.82 363.081 48.54C362.991 49.25 362.926 50.07 362.886 51H360.666ZM455.768 49.215V51H448.943V49.215H451.403V43.71H449.438V42.345C449.998 42.245 450.473 42.125 450.863 41.985C451.263 41.845 451.638 41.675 451.988 41.475H453.608V49.215H455.768ZM464.762 49.215V51H457.937V49.215H460.397V43.71H458.432V42.345C458.992 42.245 459.467 42.125 459.857 41.985C460.257 41.845 460.632 41.675 460.982 41.475H462.602V49.215H464.762ZM467.381 48.45C467.701 48.71 468.041 48.935 468.401 49.125C468.771 49.305 469.181 49.395 469.631 49.395C470.171 49.395 470.611 49.27 470.951 49.02C471.301 48.77 471.476 48.4 471.476 47.91C471.476 47.43 471.311 47.065 470.981 46.815C470.661 46.565 470.246 46.44 469.736 46.44C469.576 46.44 469.431 46.45 469.301 46.47C469.181 46.48 469.061 46.505 468.941 46.545C468.821 46.585 468.696 46.635 468.566 46.695C468.436 46.755 468.291 46.83 468.131 46.92L467.156 46.29L467.411 41.475H473.246V43.335H469.316L469.151 45.12C469.371 45.04 469.576 44.985 469.766 44.955C469.956 44.915 470.171 44.895 470.411 44.895C470.851 44.895 471.266 44.955 471.656 45.075C472.056 45.195 472.406 45.375 472.706 45.615C473.006 45.855 473.241 46.16 473.411 46.53C473.591 46.9 473.681 47.34 473.681 47.85C473.681 48.38 473.576 48.85 473.366 49.26C473.166 49.67 472.891 50.02 472.541 50.31C472.201 50.59 471.806 50.805 471.356 50.955C470.906 51.105 470.436 51.18 469.946 51.18C469.116 51.18 468.411 51.055 467.831 50.805C467.261 50.545 466.781 50.225 466.391 49.845L467.381 48.45ZM476.375 48.45C476.695 48.71 477.035 48.935 477.395 49.125C477.765 49.305 478.175 49.395 478.625 49.395C479.165 49.395 479.605 49.27 479.945 49.02C480.295 48.77 480.47 48.4 480.47 47.91C480.47 47.43 480.305 47.065 479.975 46.815C479.655 46.565 479.24 46.44 478.73 46.44C478.57 46.44 478.425 46.45 478.295 46.47C478.175 46.48 478.055 46.505 477.935 46.545C477.815 46.585 477.69 46.635 477.56 46.695C477.43 46.755 477.285 46.83 477.125 46.92L476.15 46.29L476.405 41.475H482.24V43.335H478.31L478.145 45.12C478.365 45.04 478.57 44.985 478.76 44.955C478.95 44.915 479.165 44.895 479.405 44.895C479.845 44.895 480.26 44.955 480.65 45.075C481.05 45.195 481.4 45.375 481.7 45.615C482 45.855 482.235 46.16 482.405 46.53C482.585 46.9 482.675 47.34 482.675 47.85C482.675 48.38 482.57 48.85 482.36 49.26C482.16 49.67 481.885 50.02 481.535 50.31C481.195 50.59 480.8 50.805 480.35 50.955C479.9 51.105 479.43 51.18 478.94 51.18C478.11 51.18 477.405 51.055 476.825 50.805C476.255 50.545 475.775 50.225 475.385 49.845L476.375 48.45ZM569.347 49.53C569.537 49.53 569.717 49.5 569.887 49.44C570.067 49.38 570.222 49.29 570.352 49.17C570.492 49.04 570.602 48.88 570.682 48.69C570.762 48.49 570.802 48.255 570.802 47.985C570.802 47.495 570.672 47.145 570.412 46.935C570.152 46.715 569.812 46.605 569.392 46.605C569.112 46.605 568.822 46.675 568.522 46.815C568.222 46.955 567.927 47.195 567.637 47.535C567.697 47.915 567.782 48.235 567.892 48.495C568.012 48.745 568.147 48.95 568.297 49.11C568.447 49.26 568.612 49.37 568.792 49.44C568.972 49.5 569.157 49.53 569.347 49.53ZM571.522 43.755C571.322 43.575 571.072 43.42 570.772 43.29C570.472 43.15 570.162 43.08 569.842 43.08C569.552 43.08 569.272 43.135 569.002 43.245C568.742 43.345 568.507 43.515 568.297 43.755C568.097 43.985 567.932 44.29 567.802 44.67C567.672 45.05 567.597 45.52 567.577 46.08C567.917 45.75 568.292 45.495 568.702 45.315C569.122 45.135 569.512 45.045 569.872 45.045C570.292 45.045 570.677 45.105 571.027 45.225C571.387 45.345 571.697 45.525 571.957 45.765C572.227 46.005 572.437 46.31 572.587 46.68C572.737 47.05 572.812 47.485 572.812 47.985C572.812 48.485 572.717 48.93 572.527 49.32C572.347 49.71 572.097 50.045 571.777 50.325C571.467 50.605 571.107 50.82 570.697 50.97C570.287 51.11 569.852 51.18 569.392 51.18C568.902 51.18 568.427 51.09 567.967 50.91C567.507 50.73 567.097 50.45 566.737 50.07C566.377 49.69 566.087 49.205 565.867 48.615C565.647 48.015 565.537 47.295 565.537 46.455C565.537 45.565 565.652 44.795 565.882 44.145C566.112 43.495 566.417 42.96 566.797 42.54C567.187 42.12 567.627 41.81 568.117 41.61C568.607 41.4 569.117 41.295 569.647 41.295C570.327 41.295 570.922 41.41 571.432 41.64C571.942 41.86 572.357 42.125 572.677 42.435L571.522 43.755ZM574.501 49.74C575.181 49.17 575.801 48.64 576.361 48.15C576.921 47.65 577.401 47.185 577.801 46.755C578.201 46.325 578.511 45.92 578.731 45.54C578.951 45.16 579.061 44.8 579.061 44.46C579.061 43.99 578.926 43.635 578.656 43.395C578.386 43.145 578.001 43.02 577.501 43.02C577.121 43.02 576.771 43.12 576.451 43.32C576.141 43.51 575.851 43.735 575.581 43.995L574.396 42.81C574.646 42.56 574.891 42.34 575.131 42.15C575.381 41.96 575.641 41.805 575.911 41.685C576.191 41.555 576.481 41.46 576.781 41.4C577.091 41.33 577.431 41.295 577.801 41.295C578.301 41.295 578.756 41.37 579.166 41.52C579.576 41.66 579.926 41.865 580.216 42.135C580.516 42.395 580.746 42.71 580.906 43.08C581.076 43.45 581.161 43.865 581.161 44.325C581.161 44.725 581.066 45.135 580.876 45.555C580.686 45.965 580.426 46.38 580.096 46.8C579.776 47.21 579.406 47.625 578.986 48.045C578.566 48.455 578.126 48.86 577.666 49.26C577.936 49.23 578.226 49.205 578.536 49.185C578.856 49.155 579.141 49.14 579.391 49.14H581.656V51H574.501V49.74ZM583.495 49.74C584.175 49.17 584.795 48.64 585.355 48.15C585.915 47.65 586.395 47.185 586.795 46.755C587.195 46.325 587.505 45.92 587.725 45.54C587.945 45.16 588.055 44.8 588.055 44.46C588.055 43.99 587.92 43.635 587.65 43.395C587.38 43.145 586.995 43.02 586.495 43.02C586.115 43.02 585.765 43.12 585.445 43.32C585.135 43.51 584.845 43.735 584.575 43.995L583.39 42.81C583.64 42.56 583.885 42.34 584.125 42.15C584.375 41.96 584.635 41.805 584.905 41.685C585.185 41.555 585.475 41.46 585.775 41.4C586.085 41.33 586.425 41.295 586.795 41.295C587.295 41.295 587.75 41.37 588.16 41.52C588.57 41.66 588.92 41.865 589.21 42.135C589.51 42.395 589.74 42.71 589.9 43.08C590.07 43.45 590.155 43.865 590.155 44.325C590.155 44.725 590.06 45.135 589.87 45.555C589.68 45.965 589.42 46.38 589.09 46.8C588.77 47.21 588.4 47.625 587.98 48.045C587.56 48.455 587.12 48.86 586.66 49.26C586.93 49.23 587.22 49.205 587.53 49.185C587.85 49.155 588.135 49.14 588.385 49.14H590.65V51H583.495V49.74Z" fill="#F0E442"/>
<path d="M10.285 70.585V72.76H8.08V62.56H9.88L10.045 63.31H10.09C10.39 63.04 10.735 62.82 11.125 62.65C11.515 62.47 11.91 62.38 12.31 62.38C12.77 62.38 13.185 62.47 13.555 62.65C13.925 62.83 14.24 63.085 14.5 63.415C14.76 63.745 14.955 64.145 15.085 64.615C15.225 65.075 15.295 65.59 15.295 66.16C15.295 66.8 15.205 67.37 15.025 67.87C14.845 68.36 14.605 68.78 14.305 69.13C14.005 69.47 13.66 69.73 13.27 69.91C12.89 70.09 12.49 70.18 12.07 70.18C11.39 70.18 10.77 69.91 10.21 69.37L10.285 70.585ZM10.285 67.885C10.495 68.065 10.71 68.195 10.93 68.275C11.16 68.345 11.37 68.38 11.56 68.38C11.98 68.38 12.33 68.21 12.61 67.87C12.89 67.52 13.03 66.96 13.03 66.19C13.03 64.85 12.575 64.18 11.665 64.18C11.195 64.18 10.735 64.41 10.285 64.87V67.885ZM17.7341 62.56H19.5341L19.7141 64.18H19.7591C20.1291 63.57 20.5741 63.12 21.0941 62.83C21.6141 62.53 22.1741 62.38 22.7741 62.38C23.1041 62.38 23.3691 62.405 23.5691 62.455C23.7791 62.505 23.9941 62.58 24.2141 62.68L23.7641 64.525C23.5341 64.455 23.3241 64.405 23.1341 64.375C22.9541 64.335 22.7241 64.315 22.4441 64.315C21.9841 64.315 21.5291 64.45 21.0791 64.72C20.6391 64.99 20.2591 65.46 19.9391 66.13V70H17.7341V62.56ZM26.1733 62.56H31.3633V70H29.1583V64.285H26.1733V62.56ZM30.1633 61.465C29.7333 61.465 29.3783 61.345 29.0983 61.105C28.8283 60.865 28.6933 60.54 28.6933 60.13C28.6933 59.72 28.8283 59.39 29.0983 59.14C29.3783 58.88 29.7333 58.75 30.1633 58.75C30.5933 58.75 30.9433 58.88 31.2133 59.14C31.4933 59.39 31.6333 59.72 31.6333 60.13C31.6333 60.54 31.4933 60.865 31.2133 61.105C30.9433 61.345 30.5933 61.465 30.1633 61.465ZM35.0624 62.56H36.8624L37.0274 63.55H37.0874C37.4074 63.23 37.7724 62.955 38.1824 62.725C38.6024 62.495 39.0924 62.38 39.6524 62.38C40.4924 62.38 41.1074 62.65 41.4974 63.19C41.8874 63.73 42.0824 64.47 42.0824 65.41V70H39.8774V65.695C39.8774 65.195 39.7974 64.83 39.6374 64.6C39.4774 64.37 39.1924 64.255 38.7824 64.255C38.4824 64.255 38.2174 64.32 37.9874 64.45C37.7674 64.58 37.5274 64.775 37.2674 65.035V70H35.0624V62.56ZM45.5866 64.285H43.7116V62.65L45.6916 62.56L45.9766 60.58H47.7916V62.56H50.9416V64.285H47.7916V66.895C47.7916 67.465 47.9166 67.87 48.1666 68.11C48.4166 68.34 48.8116 68.455 49.3516 68.455C49.6416 68.455 49.9066 68.43 50.1466 68.38C50.3866 68.33 50.6166 68.265 50.8366 68.185L51.2266 69.775C50.8966 69.875 50.5266 69.965 50.1166 70.045C49.7166 70.135 49.2766 70.18 48.7966 70.18C48.2066 70.18 47.7066 70.1 47.2966 69.94C46.8866 69.78 46.5516 69.56 46.2916 69.28C46.0416 68.99 45.8616 68.645 45.7516 68.245C45.6416 67.845 45.5866 67.4 45.5866 66.91V64.285Z" fill="#56B4E9"/>
<line x1="-0.000396729" y1="97" x2="610" y2="97" stroke="white"/>
<path d="M11.5 118.18C10.92 118.18 10.385 118.065 9.895 117.835C9.415 117.595 9 117.255 8.65 116.815C8.31 116.375 8.045 115.84 7.855 115.21C7.665 114.58 7.57 113.865 7.57 113.065C7.57 112.265 7.665 111.555 7.855 110.935C8.045 110.305 8.31 109.78 8.65 109.36C9 108.93 9.415 108.605 9.895 108.385C10.385 108.155 10.92 108.04 11.5 108.04C12.08 108.04 12.61 108.155 13.09 108.385C13.58 108.605 13.995 108.93 14.335 109.36C14.685 109.79 14.955 110.32 15.145 110.95C15.335 111.57 15.43 112.275 15.43 113.065C15.43 113.865 15.335 114.58 15.145 115.21C14.955 115.84 14.685 116.375 14.335 116.815C13.995 117.255 13.58 117.595 13.09 117.835C12.61 118.065 12.08 118.18 11.5 118.18ZM11.5 116.275C12.01 116.275 12.415 115.99 12.715 115.42C13.015 114.84 13.165 114.055 13.165 113.065C13.165 112.085 13.015 111.32 12.715 110.77C12.415 110.22 12.01 109.945 11.5 109.945C10.99 109.945 10.585 110.22 10.285 110.77C9.985 111.32 9.835 112.085 9.835 113.065C9.835 114.055 9.985 114.84 10.285 115.42C10.585 115.99 10.99 116.275 11.5 116.275ZM23.8691 118H22.0691L21.9041 116.935H21.8441C21.5141 117.315 21.1491 117.62 20.7491 117.85C20.3491 118.07 19.8791 118.18 19.3391 118.18C18.4891 118.18 17.8741 117.91 17.4941 117.37C17.1141 116.83 16.9241 116.09 16.9241 115.15V110.56H19.1291V114.865C19.1291 115.365 19.2041 115.73 19.3541 115.96C19.5041 116.19 19.7891 116.305 20.2091 116.305C20.4891 116.305 20.7341 116.245 20.9441 116.125C21.1641 116.005 21.4041 115.78 21.6641 115.45V110.56H23.8691V118ZM27.5983 112.285H25.7233V110.65L27.7033 110.56L27.9883 108.58H29.8033V110.56H32.9533V112.285H29.8033V114.895C29.8033 115.465 29.9283 115.87 30.1783 116.11C30.4283 116.34 30.8233 116.455 31.3633 116.455C31.6533 116.455 31.9183 116.43 32.1583 116.38C32.3983 116.33 32.6283 116.265 32.8483 116.185L33.2383 117.775C32.9083 117.875 32.5383 117.965 32.1283 118.045C31.7283 118.135 31.2883 118.18 30.8083 118.18C30.2183 118.18 29.7183 118.1 29.3083 117.94C28.8983 117.78 28.5633 117.56 28.3033 117.28C28.0533 116.99 27.8733 116.645 27.7633 116.245C27.6533 115.845 27.5983 115.4 27.5983 114.91V112.285ZM37.2674 118.585V120.76H35.0624V110.56H36.8624L37.0274 111.31H37.0724C37.3724 111.04 37.7174 110.82 38.1074 110.65C38.4974 110.47 38.8924 110.38 39.2924 110.38C39.7524 110.38 40.1674 110.47 40.5374 110.65C40.9074 110.83 41.2224 111.085 41.4824 111.415C41.7424 111.745 41.9374 112.145 42.0674 112.615C42.2074 113.075 42.2774 113.59 42.2774 114.16C42.2774 114.8 42.1874 115.37 42.0074 115.87C41.8274 116.36 41.5874 116.78 41.2874 117.13C40.9874 117.47 40.6424 117.73 40.2524 117.91C39.8724 118.09 39.4724 118.18 39.0524 118.18C38.3724 118.18 37.7524 117.91 37.1924 117.37L37.2674 118.585ZM37.2674 115.885C37.4774 116.065 37.6924 116.195 37.9124 116.275C38.1424 116.345 38.3524 116.38 38.5424 116.38C38.9624 116.38 39.3124 116.21 39.5924 115.87C39.8724 115.52 40.0124 114.96 40.0124 114.19C40.0124 112.85 39.5574 112.18 38.6474 112.18C38.1774 112.18 37.7174 112.41 37.2674 112.87V115.885ZM50.8516 118H49.0516L48.8866 116.935H48.8266C48.4966 117.315 48.1316 117.62 47.7316 117.85C47.3316 118.07 46.8616 118.18 46.3216 118.18C45.4716 118.18 44.8566 117.91 44.4766 117.37C44.0966 116.83 43.9066 116.09 43.9066 115.15V110.56H46.1116V114.865C46.1116 115.365 46.1866 115.73 46.3366 115.96C46.4866 116.19 46.7716 116.305 47.1916 116.305C47.4716 116.305 47.7166 116.245 47.9266 116.125C48.1466 116.005 48.3866 115.78 48.6466 115.45V110.56H50.8516V118ZM54.5807 112.285H52.7057V110.65L54.6857 110.56L54.9707 108.58H56.7857V110.56H59.9357V112.285H56.7857V114.895C56.7857 115.465 56.9107 115.87 57.1607 116.11C57.4107 116.34 57.8057 116.455 58.3457 116.455C58.6357 116.455 58.9007 116.43 59.1407 116.38C59.3807 116.33 59.6107 116.265 59.8307 116.185L60.2207 117.775C59.8907 117.875 59.5207 117.965 59.1107 118.045C58.7107 118.135 58.2707 118.18 57.7907 118.18C57.2007 118.18 56.7007 118.1 56.2907 117.94C55.8807 117.78 55.5457 117.56 55.2857 117.28C55.0357 116.99 54.8557 116.645 54.7457 116.245C54.6357 115.845 54.5807 115.4 54.5807 114.91V112.285Z" fill="white"/>
<path d="M10.495 142.15C10.495 141.88 10.5 141.64 10.51 141.43C10.53 141.22 10.55 141.02 10.57 140.83C10.59 140.63 10.605 140.435 10.615 140.245C10.635 140.045 10.645 139.825 10.645 139.585C10.645 139.455 10.615 139.325 10.555 139.195C10.495 139.065 10.385 138.95 10.225 138.85C10.065 138.74 9.85 138.655 9.58 138.595C9.32 138.525 8.99 138.485 8.59 138.475V137.185C8.99 137.175 9.32 137.14 9.58 137.08C9.85 137.01 10.065 136.925 10.225 136.825C10.385 136.715 10.495 136.595 10.555 136.465C10.615 136.335 10.645 136.205 10.645 136.075C10.645 135.845 10.635 135.63 10.615 135.43C10.605 135.23 10.59 135.035 10.57 134.845C10.55 134.645 10.53 134.44 10.51 134.23C10.5 134.01 10.495 133.77 10.495 133.51C10.495 132.7 10.72 132.145 11.17 131.845C11.62 131.535 12.325 131.38 13.285 131.38H14.44V132.55H13.825C13.515 132.55 13.26 132.565 13.06 132.595C12.86 132.625 12.705 132.68 12.595 132.76C12.485 132.84 12.405 132.95 12.355 133.09C12.315 133.22 12.295 133.39 12.295 133.6C12.295 134 12.305 134.395 12.325 134.785C12.355 135.175 12.37 135.595 12.37 136.045C12.37 136.615 12.255 137.03 12.025 137.29C11.795 137.54 11.41 137.71 10.87 137.8V137.86C11.41 137.95 11.795 138.125 12.025 138.385C12.255 138.635 12.37 139.045 12.37 139.615C12.37 140.075 12.355 140.495 12.325 140.875C12.305 141.255 12.295 141.65 12.295 142.06C12.295 142.27 12.315 142.44 12.355 142.57C12.405 142.71 12.485 142.82 12.595 142.9C12.705 142.98 12.86 143.035 13.06 143.065C13.26 143.095 13.515 143.11 13.825 143.11H14.44V144.28H13.285C12.325 144.28 11.62 144.125 11.17 143.815C10.72 143.515 10.495 142.96 10.495 142.15ZM19.2941 133.9L19.2191 131.725H21.7691L21.6941 133.9L21.1691 137.455H19.8191L19.2941 133.9ZM29.2183 136.87C29.4983 136.87 29.7883 136.8 30.0883 136.66C30.3883 136.52 30.6833 136.275 30.9733 135.925C30.9133 135.555 30.8233 135.245 30.7033 134.995C30.5933 134.735 30.4583 134.53 30.2983 134.38C30.1483 134.22 29.9833 134.11 29.8033 134.05C29.6233 133.98 29.4383 133.945 29.2483 133.945C29.0583 133.945 28.8733 133.975 28.6933 134.035C28.5233 134.095 28.3683 134.19 28.2283 134.32C28.0983 134.44 27.9933 134.6 27.9133 134.8C27.8333 134.99 27.7933 135.22 27.7933 135.49C27.7933 135.98 27.9233 136.335 28.1833 136.555C28.4433 136.765 28.7883 136.87 29.2183 136.87ZM27.0883 139.72C27.2883 139.9 27.5383 140.06 27.8383 140.2C28.1383 140.33 28.4483 140.395 28.7683 140.395C29.0583 140.395 29.3333 140.345 29.5933 140.245C29.8633 140.135 30.0983 139.965 30.2983 139.735C30.5083 139.495 30.6783 139.185 30.8083 138.805C30.9383 138.415 31.0133 137.94 31.0333 137.38C30.6833 137.71 30.2983 137.97 29.8783 138.16C29.4683 138.34 29.0883 138.43 28.7383 138.43C28.3183 138.43 27.9283 138.37 27.5683 138.25C27.2083 138.13 26.8933 137.95 26.6233 137.71C26.3633 137.47 26.1583 137.165 26.0083 136.795C25.8583 136.425 25.7833 135.99 25.7833 135.49C25.7833 135 25.8733 134.56 26.0533 134.17C26.2433 133.77 26.4933 133.43 26.8033 133.15C27.1233 132.87 27.4883 132.66 27.8983 132.52C28.3083 132.37 28.7433 132.295 29.2033 132.295C29.6933 132.295 30.1683 132.385 30.6283 132.565C31.0983 132.745 31.5133 133.025 31.8733 133.405C32.2333 133.785 32.5183 134.275 32.7283 134.875C32.9483 135.465 33.0583 136.18 33.0583 137.02C33.0583 137.91 32.9433 138.68 32.7133 139.33C32.4833 139.98 32.1783 140.515 31.7983 140.935C31.4183 141.355 30.9783 141.67 30.4783 141.88C29.9883 142.08 29.4833 142.18 28.9633 142.18C28.2833 142.18 27.6883 142.065 27.1783 141.835C26.6683 141.605 26.2483 141.34 25.9183 141.04L27.0883 139.72ZM37.6724 137.83H35.0324V136.27H37.6724V133.51H39.2924V136.27H41.9324V137.83H39.2924V140.59H37.6724V137.83ZM46.2766 133.9L46.2016 131.725H48.7516L48.6766 133.9L48.1516 137.455H46.8016L46.2766 133.9ZM54.7307 135.58C54.7307 135.33 54.7707 135.1 54.8507 134.89C54.9407 134.67 55.0607 134.48 55.2107 134.32C55.3607 134.16 55.5407 134.035 55.7507 133.945C55.9707 133.855 56.2107 133.81 56.4707 133.81C56.7307 133.81 56.9657 133.855 57.1757 133.945C57.3957 134.035 57.5807 134.16 57.7307 134.32C57.8807 134.48 57.9957 134.67 58.0757 134.89C58.1657 135.1 58.2107 135.33 58.2107 135.58C58.2107 136.08 58.0507 136.5 57.7307 136.84C57.4107 137.17 56.9907 137.335 56.4707 137.335C55.9507 137.335 55.5307 137.17 55.2107 136.84C54.8907 136.5 54.7307 136.08 54.7307 135.58ZM54.7307 140.425C54.7307 140.175 54.7707 139.945 54.8507 139.735C54.9407 139.515 55.0607 139.325 55.2107 139.165C55.3607 139.005 55.5407 138.88 55.7507 138.79C55.9707 138.7 56.2107 138.655 56.4707 138.655C56.7307 138.655 56.9657 138.7 57.1757 138.79C57.3957 138.88 57.5807 139.005 57.7307 139.165C57.8807 139.325 57.9957 139.515 58.0757 139.735C58.1657 139.945 58.2107 140.175 58.2107 140.425C58.2107 140.925 58.0507 141.345 57.7307 141.685C57.4107 142.015 56.9907 142.18 56.4707 142.18C55.9507 142.18 55.5307 142.015 55.2107 141.685C54.8907 141.345 54.7307 140.925 54.7307 140.425ZM74.189 136.87C74.469 136.87 74.759 136.8 75.059 136.66C75.359 136.52 75.654 136.275 75.944 135.925C75.884 135.555 75.794 135.245 75.674 134.995C75.564 134.735 75.429 134.53 75.269 134.38C75.119 134.22 74.954 134.11 74.774 134.05C74.594 133.98 74.409 133.945 74.219 133.945C74.029 133.945 73.844 133.975 73.664 134.035C73.494 134.095 73.339 134.19 73.199 134.32C73.069 134.44 72.964 134.6 72.884 134.8C72.804 134.99 72.764 135.22 72.764 135.49C72.764 135.98 72.894 136.335 73.154 136.555C73.414 136.765 73.759 136.87 74.189 136.87ZM72.059 139.72C72.259 139.9 72.509 140.06 72.809 140.2C73.109 140.33 73.419 140.395 73.739 140.395C74.029 140.395 74.304 140.345 74.564 140.245C74.834 140.135 75.069 139.965 75.269 139.735C75.479 139.495 75.649 139.185 75.779 138.805C75.909 138.415 75.984 137.94 76.004 137.38C75.654 137.71 75.269 137.97 74.849 138.16C74.439 138.34 74.059 138.43 73.709 138.43C73.289 138.43 72.899 138.37 72.539 138.25C72.179 138.13 71.864 137.95 71.594 137.71C71.334 137.47 71.129 137.165 70.979 136.795C70.829 136.425 70.754 135.99 70.754 135.49C70.754 135 70.844 134.56 71.024 134.17C71.214 133.77 71.464 133.43 71.774 133.15C72.094 132.87 72.459 132.66 72.869 132.52C73.279 132.37 73.714 132.295 74.174 132.295C74.664 132.295 75.139 132.385 75.599 132.565C76.069 132.745 76.484 133.025 76.844 133.405C77.204 133.785 77.489 134.275 77.699 134.875C77.919 135.465 78.029 136.18 78.029 137.02C78.029 137.91 77.914 138.68 77.684 139.33C77.454 139.98 77.149 140.515 76.769 140.935C76.389 141.355 75.949 141.67 75.449 141.88C74.959 142.08 74.454 142.18 73.934 142.18C73.254 142.18 72.659 142.065 72.149 141.835C71.639 141.605 71.219 141.34 70.889 141.04L72.059 139.72ZM81.7731 139.315C81.7731 139.735 81.9381 140.065 82.2681 140.305C82.5981 140.535 83.0081 140.65 83.4981 140.65C83.9481 140.65 84.3081 140.555 84.5781 140.365C84.8581 140.165 84.9981 139.865 84.9981 139.465C84.9981 139.245 84.9431 139.06 84.8331 138.91C84.7231 138.76 84.5631 138.625 84.3531 138.505C84.1531 138.375 83.9131 138.26 83.6331 138.16C83.3531 138.05 83.0431 137.93 82.7031 137.8C82.4331 138 82.2081 138.225 82.0281 138.475C81.8581 138.725 81.7731 139.005 81.7731 139.315ZM84.0981 136.45C84.5781 136.02 84.8181 135.555 84.8181 135.055C84.8181 134.685 84.7031 134.39 84.4731 134.17C84.2431 133.94 83.9081 133.825 83.4681 133.825C83.1181 133.825 82.8181 133.915 82.5681 134.095C82.3281 134.275 82.2081 134.55 82.2081 134.92C82.2081 135.31 82.3831 135.615 82.7331 135.835C83.0831 136.055 83.5381 136.26 84.0981 136.45ZM79.8681 139.57C79.8681 139.28 79.9131 139.02 80.0031 138.79C80.1031 138.55 80.2331 138.335 80.3931 138.145C80.5631 137.955 80.7531 137.785 80.9631 137.635C81.1831 137.485 81.4181 137.35 81.6681 137.23V137.17C81.2681 136.89 80.9331 136.575 80.6631 136.225C80.4031 135.865 80.2731 135.43 80.2731 134.92C80.2731 134.52 80.3531 134.16 80.5131 133.84C80.6731 133.51 80.8931 133.23 81.1731 133C81.4631 132.77 81.8081 132.595 82.2081 132.475C82.6081 132.355 83.0431 132.295 83.5131 132.295C83.9931 132.295 84.4231 132.36 84.8031 132.49C85.1931 132.61 85.5231 132.785 85.7931 133.015C86.0631 133.235 86.2681 133.51 86.4081 133.84C86.5581 134.16 86.6331 134.515 86.6331 134.905C86.6331 135.355 86.4981 135.755 86.2281 136.105C85.9681 136.455 85.6481 136.75 85.2681 136.99V137.05C85.5181 137.17 85.7531 137.31 85.9731 137.47C86.1931 137.62 86.3831 137.795 86.5431 137.995C86.7031 138.195 86.8281 138.425 86.9181 138.685C87.0081 138.935 87.0531 139.22 87.0531 139.54C87.0531 139.92 86.9731 140.27 86.8131 140.59C86.6531 140.91 86.4181 141.19 86.1081 141.43C85.8081 141.66 85.4331 141.845 84.9831 141.985C84.5331 142.115 84.0181 142.18 83.4381 142.18C82.8881 142.18 82.3931 142.12 81.9531 142C81.5131 141.87 81.1381 141.69 80.8281 141.46C80.5181 141.23 80.2781 140.955 80.1081 140.635C79.9481 140.315 79.8681 139.96 79.8681 139.57ZM90.8423 142C90.8823 141.21 90.9573 140.485 91.0673 139.825C91.1873 139.155 91.3523 138.52 91.5623 137.92C91.7823 137.31 92.0623 136.72 92.4023 136.15C92.7423 135.57 93.1623 134.965 93.6623 134.335H88.8773V132.475H96.0323V133.825C95.4323 134.495 94.9473 135.125 94.5773 135.715C94.2073 136.295 93.9173 136.9 93.7073 137.53C93.4973 138.15 93.3473 138.82 93.2573 139.54C93.1673 140.25 93.1023 141.07 93.0623 142H90.8423ZM99.6714 143.965C100.971 143.515 101.621 142.805 101.621 141.835C101.581 141.845 101.526 141.85 101.456 141.85C101.246 141.85 101.041 141.82 100.841 141.76C100.651 141.69 100.481 141.59 100.331 141.46C100.181 141.33 100.061 141.17 99.9714 140.98C99.8814 140.79 99.8364 140.57 99.8364 140.32C99.8364 139.85 99.9964 139.475 100.316 139.195C100.646 138.915 101.046 138.775 101.516 138.775C102.136 138.775 102.601 139.005 102.911 139.465C103.221 139.915 103.376 140.545 103.376 141.355C103.376 142.315 103.111 143.125 102.581 143.785C102.051 144.445 101.266 144.935 100.226 145.255L99.6714 143.965ZM118.23 133.9L118.155 131.725H120.705L120.63 133.9L120.105 137.455H118.755L118.23 133.9ZM131.979 140.215V142H125.154V140.215H127.614V134.71H125.649V133.345C126.209 133.245 126.684 133.125 127.074 132.985C127.474 132.845 127.849 132.675 128.199 132.475H129.819V140.215H131.979ZM135.813 142C135.853 141.21 135.928 140.485 136.038 139.825C136.158 139.155 136.323 138.52 136.533 137.92C136.753 137.31 137.033 136.72 137.373 136.15C137.713 135.57 138.133 134.965 138.633 134.335H133.848V132.475H141.003V133.825C140.403 134.495 139.918 135.125 139.548 135.715C139.178 136.295 138.888 136.9 138.678 137.53C138.468 138.15 138.318 138.82 138.228 139.54C138.138 140.25 138.073 141.07 138.033 142H135.813ZM145.602 137.83H142.962V136.27H145.602V133.51H147.222V136.27H149.862V137.83H147.222V140.59H145.602V137.83ZM154.206 133.9L154.131 131.725H156.681L156.606 133.9L156.081 137.455H154.731L154.206 133.9ZM162.66 135.58C162.66 135.33 162.7 135.1 162.78 134.89C162.87 134.67 162.99 134.48 163.14 134.32C163.29 134.16 163.47 134.035 163.68 133.945C163.9 133.855 164.14 133.81 164.4 133.81C164.66 133.81 164.895 133.855 165.105 133.945C165.325 134.035 165.51 134.16 165.66 134.32C165.81 134.48 165.925 134.67 166.005 134.89C166.095 135.1 166.14 135.33 166.14 135.58C166.14 136.08 165.98 136.5 165.66 136.84C165.34 137.17 164.92 137.335 164.4 137.335C163.88 137.335 163.46 137.17 163.14 136.84C162.82 136.5 162.66 136.08 162.66 135.58ZM162.66 140.425C162.66 140.175 162.7 139.945 162.78 139.735C162.87 139.515 162.99 139.325 163.14 139.165C163.29 139.005 163.47 138.88 163.68 138.79C163.9 138.7 164.14 138.655 164.4 138.655C164.66 138.655 164.895 138.7 165.105 138.79C165.325 138.88 165.51 139.005 165.66 139.165C165.81 139.325 165.925 139.515 166.005 139.735C166.095 139.945 166.14 140.175 166.14 140.425C166.14 140.925 165.98 141.345 165.66 141.685C165.34 142.015 164.92 142.18 164.4 142.18C163.88 142.18 163.46 142.015 163.14 141.685C162.82 141.345 162.66 140.925 162.66 140.425ZM182.599 140.53C182.789 140.53 182.969 140.5 183.139 140.44C183.319 140.38 183.474 140.29 183.604 140.17C183.744 140.04 183.854 139.88 183.934 139.69C184.014 139.49 184.054 139.255 184.054 138.985C184.054 138.495 183.924 138.145 183.664 137.935C183.404 137.715 183.064 137.605 182.644 137.605C182.364 137.605 182.074 137.675 181.774 137.815C181.474 137.955 181.179 138.195 180.889 138.535C180.949 138.915 181.034 139.235 181.144 139.495C181.264 139.745 181.399 139.95 181.549 140.11C181.699 140.26 181.864 140.37 182.044 140.44C182.224 140.5 182.409 140.53 182.599 140.53ZM184.774 134.755C184.574 134.575 184.324 134.42 184.024 134.29C183.724 134.15 183.414 134.08 183.094 134.08C182.804 134.08 182.524 134.135 182.254 134.245C181.994 134.345 181.759 134.515 181.549 134.755C181.349 134.985 181.184 135.29 181.054 135.67C180.924 136.05 180.849 136.52 180.829 137.08C181.169 136.75 181.544 136.495 181.954 136.315C182.374 136.135 182.764 136.045 183.124 136.045C183.544 136.045 183.929 136.105 184.279 136.225C184.639 136.345 184.949 136.525 185.209 136.765C185.479 137.005 185.689 137.31 185.839 137.68C185.989 138.05 186.064 138.485 186.064 138.985C186.064 139.485 185.969 139.93 185.779 140.32C185.599 140.71 185.349 141.045 185.029 141.325C184.719 141.605 184.359 141.82 183.949 141.97C183.539 142.11 183.104 142.18 182.644 142.18C182.154 142.18 181.679 142.09 181.219 141.91C180.759 141.73 180.349 141.45 179.989 141.07C179.629 140.69 179.339 140.205 179.119 139.615C178.899 139.015 178.789 138.295 178.789 137.455C178.789 136.565 178.904 135.795 179.134 135.145C179.364 134.495 179.669 133.96 180.049 133.54C180.439 133.12 180.879 132.81 181.369 132.61C181.859 132.4 182.369 132.295 182.899 132.295C183.579 132.295 184.174 132.41 184.684 132.64C185.194 132.86 185.609 133.125 185.929 133.435L184.774 134.755ZM187.753 140.74C188.433 140.17 189.053 139.64 189.613 139.15C190.173 138.65 190.653 138.185 191.053 137.755C191.453 137.325 191.763 136.92 191.983 136.54C192.203 136.16 192.313 135.8 192.313 135.46C192.313 134.99 192.178 134.635 191.908 134.395C191.638 134.145 191.253 134.02 190.753 134.02C190.373 134.02 190.023 134.12 189.703 134.32C189.393 134.51 189.103 134.735 188.833 134.995L187.648 133.81C187.898 133.56 188.143 133.34 188.383 133.15C188.633 132.96 188.893 132.805 189.163 132.685C189.443 132.555 189.733 132.46 190.033 132.4C190.343 132.33 190.683 132.295 191.053 132.295C191.553 132.295 192.008 132.37 192.418 132.52C192.828 132.66 193.178 132.865 193.468 133.135C193.768 133.395 193.998 133.71 194.158 134.08C194.328 134.45 194.413 134.865 194.413 135.325C194.413 135.725 194.318 136.135 194.128 136.555C193.938 136.965 193.678 137.38 193.348 137.8C193.028 138.21 192.658 138.625 192.238 139.045C191.818 139.455 191.378 139.86 190.918 140.26C191.188 140.23 191.478 140.205 191.788 140.185C192.108 140.155 192.393 140.14 192.643 140.14H194.908V142H187.753V140.74ZM196.747 140.74C197.427 140.17 198.047 139.64 198.607 139.15C199.167 138.65 199.647 138.185 200.047 137.755C200.447 137.325 200.757 136.92 200.977 136.54C201.197 136.16 201.307 135.8 201.307 135.46C201.307 134.99 201.172 134.635 200.902 134.395C200.632 134.145 200.247 134.02 199.747 134.02C199.367 134.02 199.017 134.12 198.697 134.32C198.387 134.51 198.097 134.735 197.827 134.995L196.642 133.81C196.892 133.56 197.137 133.34 197.377 133.15C197.627 132.96 197.887 132.805 198.157 132.685C198.437 132.555 198.727 132.46 199.027 132.4C199.337 132.33 199.677 132.295 200.047 132.295C200.547 132.295 201.002 132.37 201.412 132.52C201.822 132.66 202.172 132.865 202.462 133.135C202.762 133.395 202.992 133.71 203.152 134.08C203.322 134.45 203.407 134.865 203.407 135.325C203.407 135.725 203.312 136.135 203.122 136.555C202.932 136.965 202.672 137.38 202.342 137.8C202.022 138.21 201.652 138.625 201.232 139.045C200.812 139.455 200.372 139.86 199.912 140.26C200.182 140.23 200.472 140.205 200.782 140.185C201.102 140.155 201.387 140.14 201.637 140.14H203.902V142H196.747V140.74ZM207.601 143.965C208.901 143.515 209.551 142.805 209.551 141.835C209.511 141.845 209.456 141.85 209.386 141.85C209.176 141.85 208.971 141.82 208.771 141.76C208.581 141.69 208.411 141.59 208.261 141.46C208.111 141.33 207.991 141.17 207.901 140.98C207.811 140.79 207.766 140.57 207.766 140.32C207.766 139.85 207.926 139.475 208.246 139.195C208.576 138.915 208.976 138.775 209.446 138.775C210.066 138.775 210.531 139.005 210.841 139.465C211.151 139.915 211.306 140.545 211.306 141.355C211.306 142.315 211.041 143.125 210.511 143.785C209.981 144.445 209.196 144.935 208.156 145.255L207.601 143.965ZM226.159 133.9L226.084 131.725H228.634L228.559 133.9L228.034 137.455H226.684L226.159 133.9ZM239.909 140.215V142H233.084V140.215H235.544V134.71H233.579V133.345C234.139 133.245 234.614 133.125 235.004 132.985C235.404 132.845 235.779 132.675 236.129 132.475H237.749V140.215H239.909ZM241.718 140.74C242.398 140.17 243.018 139.64 243.578 139.15C244.138 138.65 244.618 138.185 245.018 137.755C245.418 137.325 245.728 136.92 245.948 136.54C246.168 136.16 246.278 135.8 246.278 135.46C246.278 134.99 246.143 134.635 245.873 134.395C245.603 134.145 245.218 134.02 244.718 134.02C244.338 134.02 243.988 134.12 243.668 134.32C243.358 134.51 243.068 134.735 242.798 134.995L241.613 133.81C241.863 133.56 242.108 133.34 242.348 133.15C242.598 132.96 242.858 132.805 243.128 132.685C243.408 132.555 243.698 132.46 243.998 132.4C244.308 132.33 244.648 132.295 245.018 132.295C245.518 132.295 245.973 132.37 246.383 132.52C246.793 132.66 247.143 132.865 247.433 133.135C247.733 133.395 247.963 133.71 248.123 134.08C248.293 134.45 248.378 134.865 248.378 135.325C248.378 135.725 248.283 136.135 248.093 136.555C247.903 136.965 247.643 137.38 247.313 137.8C246.993 138.21 246.623 138.625 246.203 139.045C245.783 139.455 245.343 139.86 244.883 140.26C245.153 140.23 245.443 140.205 245.753 140.185C246.073 140.155 246.358 140.14 246.608 140.14H248.873V142H241.718V140.74ZM253.532 137.83H250.892V136.27H253.532V133.51H255.152V136.27H257.792V137.83H255.152V140.59H253.532V137.83ZM262.136 133.9L262.061 131.725H264.611L264.536 133.9L264.011 137.455H262.661L262.136 133.9ZM270.59 135.58C270.59 135.33 270.63 135.1 270.71 134.89C270.8 134.67 270.92 134.48 271.07 134.32C271.22 134.16 271.4 134.035 271.61 133.945C271.83 133.855 272.07 133.81 272.33 133.81C272.59 133.81 272.825 133.855 273.035 133.945C273.255 134.035 273.44 134.16 273.59 134.32C273.74 134.48 273.855 134.67 273.935 134.89C274.025 135.1 274.07 135.33 274.07 135.58C274.07 136.08 273.91 136.5 273.59 136.84C273.27 137.17 272.85 137.335 272.33 137.335C271.81 137.335 271.39 137.17 271.07 136.84C270.75 136.5 270.59 136.08 270.59 135.58ZM270.59 140.425C270.59 140.175 270.63 139.945 270.71 139.735C270.8 139.515 270.92 139.325 271.07 139.165C271.22 139.005 271.4 138.88 271.61 138.79C271.83 138.7 272.07 138.655 272.33 138.655C272.59 138.655 272.825 138.7 273.035 138.79C273.255 138.88 273.44 139.005 273.59 139.165C273.74 139.325 273.855 139.515 273.935 139.735C274.025 139.945 274.07 140.175 274.07 140.425C274.07 140.925 273.91 141.345 273.59 141.685C273.27 142.015 272.85 142.18 272.33 142.18C271.81 142.18 271.39 142.015 271.07 141.685C270.75 141.345 270.59 140.925 270.59 140.425ZM293.873 140.215V142H287.048V140.215H289.508V134.71H287.543V133.345C288.103 133.245 288.578 133.125 288.968 132.985C289.368 132.845 289.743 132.675 290.093 132.475H291.713V140.215H293.873ZM302.868 140.215V142H296.043V140.215H298.503V134.71H296.538V133.345C297.098 133.245 297.573 133.125 297.963 132.985C298.363 132.845 298.738 132.675 299.088 132.475H300.708V140.215H302.868ZM305.487 139.45C305.807 139.71 306.147 139.935 306.507 140.125C306.877 140.305 307.287 140.395 307.737 140.395C308.277 140.395 308.717 140.27 309.057 140.02C309.407 139.77 309.582 139.4 309.582 138.91C309.582 138.43 309.417 138.065 309.087 137.815C308.767 137.565 308.352 137.44 307.842 137.44C307.682 137.44 307.537 137.45 307.407 137.47C307.287 137.48 307.167 137.505 307.047 137.545C306.927 137.585 306.802 137.635 306.672 137.695C306.542 137.755 306.397 137.83 306.237 137.92L305.262 137.29L305.517 132.475H311.352V134.335H307.422L307.257 136.12C307.477 136.04 307.682 135.985 307.872 135.955C308.062 135.915 308.277 135.895 308.517 135.895C308.957 135.895 309.372 135.955 309.762 136.075C310.162 136.195 310.512 136.375 310.812 136.615C311.112 136.855 311.347 137.16 311.517 137.53C311.697 137.9 311.787 138.34 311.787 138.85C311.787 139.38 311.682 139.85 311.472 140.26C311.272 140.67 310.997 141.02 310.647 141.31C310.307 141.59 309.912 141.805 309.462 141.955C309.012 142.105 308.542 142.18 308.052 142.18C307.222 142.18 306.517 142.055 305.937 141.805C305.367 141.545 304.887 141.225 304.497 140.845L305.487 139.45ZM314.481 139.45C314.801 139.71 315.141 139.935 315.501 140.125C315.871 140.305 316.281 140.395 316.731 140.395C317.271 140.395 317.711 140.27 318.051 140.02C318.401 139.77 318.576 139.4 318.576 138.91C318.576 138.43 318.411 138.065 318.081 137.815C317.761 137.565 317.346 137.44 316.836 137.44C316.676 137.44 316.531 137.45 316.401 137.47C316.281 137.48 316.161 137.505 316.041 137.545C315.921 137.585 315.796 137.635 315.666 137.695C315.536 137.755 315.391 137.83 315.231 137.92L314.256 137.29L314.511 132.475H320.346V134.335H316.416L316.251 136.12C316.471 136.04 316.676 135.985 316.866 135.955C317.056 135.915 317.271 135.895 317.511 135.895C317.951 135.895 318.366 135.955 318.756 136.075C319.156 136.195 319.506 136.375 319.806 136.615C320.106 136.855 320.341 137.16 320.511 137.53C320.691 137.9 320.781 138.34 320.781 138.85C320.781 139.38 320.676 139.85 320.466 140.26C320.266 140.67 319.991 141.02 319.641 141.31C319.301 141.59 318.906 141.805 318.456 141.955C318.006 142.105 317.536 142.18 317.046 142.18C316.216 142.18 315.511 142.055 314.931 141.805C314.361 141.545 313.881 141.225 313.491 140.845L314.481 139.45ZM324.525 143.965C325.825 143.515 326.475 142.805 326.475 141.835C326.435 141.845 326.38 141.85 326.31 141.85C326.1 141.85 325.895 141.82 325.695 141.76C325.505 141.69 325.335 141.59 325.185 141.46C325.035 141.33 324.915 141.17 324.825 140.98C324.735 140.79 324.69 140.57 324.69 140.32C324.69 139.85 324.85 139.475 325.17 139.195C325.5 138.915 325.9 138.775 326.37 138.775C326.99 138.775 327.455 139.005 327.765 139.465C328.075 139.915 328.23 140.545 328.23 141.355C328.23 142.315 327.965 143.125 327.435 143.785C326.905 144.445 326.12 144.935 325.08 145.255L324.525 143.965ZM343.083 133.9L343.008 131.725H345.558L345.483 133.9L344.958 137.455H343.608L343.083 133.9ZM353.892 138.04V136.435C353.892 136.135 353.897 135.79 353.907 135.4C353.927 135 353.947 134.65 353.967 134.35H353.907C353.747 134.62 353.577 134.89 353.397 135.16C353.217 135.43 353.042 135.7 352.872 135.97L351.432 138.04H353.892ZM357.147 139.72H355.947V142H353.892V139.72H349.302V138.205L353.277 132.475H355.947V138.04H357.147V139.72ZM361.461 137.83H358.821V136.27H361.461V133.51H363.081V136.27H365.721V137.83H363.081V140.59H361.461V137.83ZM370.066 133.9L369.991 131.725H372.541L372.466 133.9L371.941 137.455H370.591L370.066 133.9ZM378.52 135.58C378.52 135.33 378.56 135.1 378.64 134.89C378.73 134.67 378.85 134.48 379 134.32C379.15 134.16 379.33 134.035 379.54 133.945C379.76 133.855 380 133.81 380.26 133.81C380.52 133.81 380.755 133.855 380.965 133.945C381.185 134.035 381.37 134.16 381.52 134.32C381.67 134.48 381.785 134.67 381.865 134.89C381.955 135.1 382 135.33 382 135.58C382 136.08 381.84 136.5 381.52 136.84C381.2 137.17 380.78 137.335 380.26 137.335C379.74 137.335 379.32 137.17 379 136.84C378.68 136.5 378.52 136.08 378.52 135.58ZM378.52 140.425C378.52 140.175 378.56 139.945 378.64 139.735C378.73 139.515 378.85 139.325 379 139.165C379.15 139.005 379.33 138.88 379.54 138.79C379.76 138.7 380 138.655 380.26 138.655C380.52 138.655 380.755 138.7 380.965 138.79C381.185 138.88 381.37 139.005 381.52 139.165C381.67 139.325 381.785 139.515 381.865 139.735C381.955 139.945 382 140.175 382 140.425C382 140.925 381.84 141.345 381.52 141.685C381.2 142.015 380.78 142.18 380.26 142.18C379.74 142.18 379.32 142.015 379 141.685C378.68 141.345 378.52 140.925 378.52 140.425ZM398.863 138.04V136.435C398.863 136.135 398.868 135.79 398.878 135.4C398.898 135 398.918 134.65 398.938 134.35H398.878C398.718 134.62 398.548 134.89 398.368 135.16C398.188 135.43 398.013 135.7 397.843 135.97L396.403 138.04H398.863ZM402.118 139.72H400.918V142H398.863V139.72H394.273V138.205L398.248 132.475H400.918V138.04H402.118V139.72ZM407.857 138.04V136.435C407.857 136.135 407.862 135.79 407.872 135.4C407.892 135 407.912 134.65 407.932 134.35H407.872C407.712 134.62 407.542 134.89 407.362 135.16C407.182 135.43 407.007 135.7 406.837 135.97L405.397 138.04H407.857ZM411.112 139.72H409.912V142H407.857V139.72H403.267V138.205L407.242 132.475H409.912V138.04H411.112V139.72ZM413.386 139.435C413.706 139.715 414.061 139.945 414.451 140.125C414.851 140.305 415.271 140.395 415.711 140.395C416.231 140.395 416.656 140.3 416.986 140.11C417.326 139.91 417.496 139.63 417.496 139.27C417.496 139.06 417.451 138.87 417.361 138.7C417.271 138.53 417.116 138.39 416.896 138.28C416.676 138.16 416.381 138.07 416.011 138.01C415.641 137.94 415.176 137.905 414.616 137.905V136.345C415.556 136.345 416.216 136.23 416.596 136C416.986 135.76 417.181 135.45 417.181 135.07C417.181 134.74 417.056 134.485 416.806 134.305C416.556 134.115 416.211 134.02 415.771 134.02C415.391 134.02 415.041 134.095 414.721 134.245C414.401 134.395 414.076 134.6 413.746 134.86L412.636 133.51C413.106 133.13 413.606 132.835 414.136 132.625C414.676 132.405 415.256 132.295 415.876 132.295C416.396 132.295 416.871 132.355 417.301 132.475C417.731 132.585 418.101 132.755 418.411 132.985C418.721 133.205 418.961 133.475 419.131 133.795C419.301 134.115 419.386 134.485 419.386 134.905C419.386 135.405 419.226 135.83 418.906 136.18C418.586 136.52 418.141 136.8 417.571 137.02V137.08C418.171 137.24 418.676 137.515 419.086 137.905C419.496 138.285 419.701 138.785 419.701 139.405C419.701 139.845 419.596 140.24 419.386 140.59C419.186 140.93 418.911 141.22 418.561 141.46C418.221 141.69 417.821 141.87 417.361 142C416.901 142.12 416.421 142.18 415.921 142.18C415.101 142.18 414.396 142.06 413.806 141.82C413.216 141.57 412.736 141.24 412.366 140.83L413.386 139.435ZM422.38 139.435C422.7 139.715 423.055 139.945 423.445 140.125C423.845 140.305 424.265 140.395 424.705 140.395C425.225 140.395 425.65 140.3 425.98 140.11C426.32 139.91 426.49 139.63 426.49 139.27C426.49 139.06 426.445 138.87 426.355 138.7C426.265 138.53 426.11 138.39 425.89 138.28C425.67 138.16 425.375 138.07 425.005 138.01C424.635 137.94 424.17 137.905 423.61 137.905V136.345C424.55 136.345 425.21 136.23 425.59 136C425.98 135.76 426.175 135.45 426.175 135.07C426.175 134.74 426.05 134.485 425.8 134.305C425.55 134.115 425.205 134.02 424.765 134.02C424.385 134.02 424.035 134.095 423.715 134.245C423.395 134.395 423.07 134.6 422.74 134.86L421.63 133.51C422.1 133.13 422.6 132.835 423.13 132.625C423.67 132.405 424.25 132.295 424.87 132.295C425.39 132.295 425.865 132.355 426.295 132.475C426.725 132.585 427.095 132.755 427.405 132.985C427.715 133.205 427.955 133.475 428.125 133.795C428.295 134.115 428.38 134.485 428.38 134.905C428.38 135.405 428.22 135.83 427.9 136.18C427.58 136.52 427.135 136.8 426.565 137.02V137.08C427.165 137.24 427.67 137.515 428.08 137.905C428.49 138.285 428.695 138.785 428.695 139.405C428.695 139.845 428.59 140.24 428.38 140.59C428.18 140.93 427.905 141.22 427.555 141.46C427.215 141.69 426.815 141.87 426.355 142C425.895 142.12 425.415 142.18 424.915 142.18C424.095 142.18 423.39 142.06 422.8 141.82C422.21 141.57 421.73 141.24 421.36 140.83L422.38 139.435ZM431.915 143.11C432.225 143.11 432.475 143.095 432.665 143.065C432.865 143.035 433.02 142.98 433.13 142.9C433.24 142.82 433.315 142.71 433.355 142.57C433.405 142.44 433.43 142.27 433.43 142.06C433.43 141.65 433.42 141.255 433.4 140.875C433.38 140.495 433.37 140.075 433.37 139.615C433.37 139.045 433.485 138.635 433.715 138.385C433.945 138.125 434.33 137.95 434.87 137.86V137.8C434.33 137.71 433.945 137.54 433.715 137.29C433.485 137.03 433.37 136.615 433.37 136.045C433.37 135.595 433.38 135.175 433.4 134.785C433.42 134.395 433.43 134 433.43 133.6C433.43 133.39 433.405 133.22 433.355 133.09C433.315 132.95 433.24 132.84 433.13 132.76C433.02 132.68 432.865 132.625 432.665 132.595C432.475 132.565 432.225 132.55 431.915 132.55H431.3V131.38H432.455C433.415 131.38 434.12 131.535 434.57 131.845C435.02 132.145 435.245 132.7 435.245 133.51C435.245 133.77 435.235 134.01 435.215 134.23C435.205 134.44 435.185 134.645 435.155 134.845C435.135 135.035 435.115 135.23 435.095 135.43C435.085 135.63 435.08 135.845 435.08 136.075C435.08 136.205 435.11 136.335 435.17 136.465C435.23 136.595 435.34 136.715 435.5 136.825C435.66 136.925 435.87 137.01 436.13 137.08C436.4 137.14 436.74 137.175 437.15 137.185V138.475C436.74 138.485 436.4 138.525 436.13 138.595C435.87 138.655 435.66 138.74 435.5 138.85C435.34 138.95 435.23 139.065 435.17 139.195C435.11 139.325 435.08 139.455 435.08 139.585C435.08 139.825 435.085 140.045 435.095 140.245C435.115 140.435 435.135 140.63 435.155 140.83C435.185 141.02 435.205 141.22 435.215 141.43C435.235 141.64 435.245 141.88 435.245 142.15C435.245 142.96 435.02 143.515 434.57 143.815C434.12 144.125 433.415 144.28 432.455 144.28H431.3V143.11H431.915Z" fill="white"/>
</svg>
