<svg width="347" height="335" viewBox="0 0 347 335" version="1.1" xmlns="http://www.w3.org/2000/svg" xmlns:xlink="http://www.w3.org/1999/xlink">
<title>s1m3_workflow</title>
<desc>Created using Figma</desc>
<g id="Canvas" transform="matrix(1.5 0 0 1.5 355.5 283.5)">
<rect x="-237" y="-189" width="231" height="223" fill="#FFFFFF"/>
<g id="Line">
<use xlink:href="#path0_stroke" transform="matrix(6.12323e-17 1 -1 6.12323e-17 -237 -15)"/>
</g>
<g id="Line 2">
<use xlink:href="#path1_stroke" transform="translate(-237 -15)"/>
</g>
<g id="Line">
<use xlink:href="#path0_stroke" transform="matrix(6.12323e-17 1 -1 6.12323e-17 -83 -113)"/>
</g>
<g id="Line 2.2">
<use xlink:href="#path1_stroke" transform="translate(-83 -113)"/>
</g>
<g id="Line">
<use xlink:href="#path0_stroke" transform="matrix(6.12323e-17 1 -1 6.12323e-17 -160 -64)"/>
</g>
<g id="Line 2.1">
<use xlink:href="#path1_stroke" transform="translate(-160 -64)"/>
</g>
<g id="Line 3">
<use xlink:href="#path2_stroke" transform="matrix(2.7639e-16 1 1 -2.7639e-16 -6.01255 -116)"/>
</g>
<g id="Line 4">
<use xlink:href="#path3_stroke" transform="matrix(1 -2.44929e-16 2.44929e-16 1 -235 34)"/>
</g>
<g id="Vector">
<use xlink:href="#path4_fill" transform="translate(-236.5 -113.5)" fill="#F2F2F2"/>
<use xlink:href="#path5_stroke" transform="translate(-236.5 -113.5)"/>
</g>
<g id="Step 3">
<use xlink:href="#path6_fill" transform="translate(-62 -111)"/>
</g>
<g id="Step 2">
<use xlink:href="#path7_fill" transform="translate(-139 -62)"/>
</g>
<g id="Line 5">
<use xlink:href="#path8_stroke" transform="matrix(6.12323e-17 1 -1 6.12323e-17 -237 -16)"/>
</g>
<g id="Collecting data">
<use xlink:href="#path9_fill" transform="translate(-226 -51)"/>
</g>
<g id="Analyzing data">
<use xlink:href="#path10_fill" transform="translate(-149 -100)"/>
</g>
<g id="Making use of the analysis">
<use xlink:href="#path11_fill" transform="translate(-85 -149)"/>
</g>
<g id="Arrow">
<use xlink:href="#path12_stroke" transform="matrix(0.833712 -0.552199 0.552199 0.833712 -223 -92.9317)"/>
</g>
<g id="Arrow">
<use xlink:href="#path13_stroke" transform="matrix(0.833712 -0.552199 0.552199 0.833712 -135 -139.1)"/>
</g>
<g id="Step 1">
<use xlink:href="#path14_fill" transform="translate(-216 -12)"/>
</g>
</g>
<defs>
<path id="path0_stroke" d="M 0 0L 49 0L 49 -3L 0 -3L 0 0Z"/>
<path id="path1_stroke" d="M 0 0L 77 0L 77 -3L 0 -3L 0 0Z"/>
<path id="path2_stroke" d="M 0 0L 148 0L 148 -3L 0 -3L 0 0Z"/>
<path id="path3_stroke" d="M 0 0L 229 0L 229 -3L 0 -3L 0 0Z"/>
<path id="path4_fill" d="M 78.5 97.5L 0 97.5L 0 145.5L 29 145.5L 228.5 145.5L 228.5 0L 155.5 0L 155.5 48.5L 78.5 48.5L 78.5 97.5Z"/>
<path id="path5_stroke" d="M 0 97.5L 0 97L -0.5 97L -0.5 97.5L 0 97.5ZM 78.5 97.5L 78.5 98L 79 98L 79 97.5L 78.5 97.5ZM 78.5 48.5L 78.5 48L 78 48L 78 48.5L 78.5 48.5ZM 155.5 48.5L 155.5 49L 156 49L 156 48.5L 155.5 48.5ZM 155.5 0L 155.5 -0.5L 155 -0.5L 155 0L 155.5 0ZM 228.5 0L 229 0L 229 -0.5L 228.5 -0.5L 228.5 0ZM 228.5 145.5L 228.5 146L 229 146L 229 145.5L 228.5 145.5ZM 0 145.5L -0.5 145.5L -0.5 146L 0 146L 0 145.5ZM 0 98L 78.5 98L 78.5 97L 0 97L 0 98ZM 79 97.5L 79 48.5L 78 48.5L 78 97.5L 79 97.5ZM 78.5 49L 155.5 49L 155.5 48L 78.5 48L 78.5 49ZM 156 48.5L 156 0L 155 0L 155 48.5L 156 48.5ZM 155.5 0.5L 228.5 0.5L 228.5 -0.5L 155.5 -0.5L 155.5 0.5ZM 228 0L 228 145.5L 229 145.5L 229 0L 228 0ZM 228.5 145L 29 145L 29 146L 228.5 146L 228.5 145ZM 29 145L 0 145L 0 146L 29 146L 29 145ZM 0.5 145.5L 0.5 97.5L -0.5 97.5L -0.5 145.5L 0.5 145.5Z"/>
<path id="path6_fill" d="M 5.40039 8.76172C 5.40039 8.42969 5.2832 8.17578 5.04883 8C 4.81445 7.82031 4.39258 7.63281 3.7832 7.4375C 3.17383 7.23828 2.69141 7.04297 2.33594 6.85156C 1.36719 6.32812 0.882812 5.62305 0.882812 4.73633C 0.882812 4.27539 1.01172 3.86523 1.26953 3.50586C 1.53125 3.14258 1.9043 2.85938 2.38867 2.65625C 2.87695 2.45312 3.42383 2.35156 4.0293 2.35156C 4.63867 2.35156 5.18164 2.46289 5.6582 2.68555C 6.13477 2.9043 6.50391 3.21484 6.76562 3.61719C 7.03125 4.01953 7.16406 4.47656 7.16406 4.98828L 5.40625 4.98828C 5.40625 4.59766 5.2832 4.29492 5.03711 4.08008C 4.79102 3.86133 4.44531 3.75195 4 3.75195C 3.57031 3.75195 3.23633 3.84375 2.99805 4.02734C 2.75977 4.20703 2.64062 4.44531 2.64062 4.74219C 2.64062 5.01953 2.7793 5.25195 3.05664 5.43945C 3.33789 5.62695 3.75 5.80273 4.29297 5.9668C 5.29297 6.26758 6.02148 6.64062 6.47852 7.08594C 6.93555 7.53125 7.16406 8.08594 7.16406 8.75C 7.16406 9.48828 6.88477 10.0684 6.32617 10.4902C 5.76758 10.9082 5.01562 11.1172 4.07031 11.1172C 3.41406 11.1172 2.81641 10.998 2.27734 10.7598C 1.73828 10.5176 1.32617 10.1875 1.04102 9.76953C 0.759766 9.35156 0.619141 8.86719 0.619141 8.31641L 2.38281 8.31641C 2.38281 9.25781 2.94531 9.72852 4.07031 9.72852C 4.48828 9.72852 4.81445 9.64453 5.04883 9.47656C 5.2832 9.30469 5.40039 9.06641 5.40039 8.76172ZM 10.2754 3.10156L 10.2754 4.66016L 11.3594 4.66016L 11.3594 5.90234L 10.2754 5.90234L 10.2754 9.06641C 10.2754 9.30078 10.3203 9.46875 10.4102 9.57031C 10.5 9.67188 10.6719 9.72266 10.9258 9.72266C 11.1133 9.72266 11.2793 9.70898 11.4238 9.68164L 11.4238 10.9648C 11.0918 11.0664 10.75 11.1172 10.3984 11.1172C 9.21094 11.1172 8.60547 10.5176 8.58203 9.31836L 8.58203 5.90234L 7.65625 5.90234L 7.65625 4.66016L 8.58203 4.66016L 8.58203 3.10156L 10.2754 3.10156ZM 15.2207 11.1172C 14.291 11.1172 13.5332 10.832 12.9473 10.2617C 12.3652 9.69141 12.0742 8.93164 12.0742 7.98242L 12.0742 7.81836C 12.0742 7.18164 12.1973 6.61328 12.4434 6.11328C 12.6895 5.60938 13.0371 5.22266 13.4863 4.95312C 13.9395 4.67969 14.4551 4.54297 15.0332 4.54297C 15.9004 4.54297 16.582 4.81641 17.0781 5.36328C 17.5781 5.91016 17.8281 6.68555 17.8281 7.68945L 17.8281 8.38086L 13.791 8.38086C 13.8457 8.79492 14.0098 9.12695 14.2832 9.37695C 14.5605 9.62695 14.9102 9.75195 15.332 9.75195C 15.9844 9.75195 16.4941 9.51562 16.8613 9.04297L 17.6934 9.97461C 17.4395 10.334 17.0957 10.6152 16.6621 10.8184C 16.2285 11.0176 15.748 11.1172 15.2207 11.1172ZM 15.0273 5.91406C 14.6914 5.91406 14.418 6.02734 14.207 6.25391C 14 6.48047 13.8672 6.80469 13.8086 7.22656L 16.1641 7.22656L 16.1641 7.0918C 16.1562 6.7168 16.0547 6.42773 15.8594 6.22461C 15.6641 6.01758 15.3867 5.91406 15.0273 5.91406ZM 24.502 7.88867C 24.502 8.86523 24.2793 9.64844 23.834 10.2383C 23.3926 10.8242 22.7949 11.1172 22.041 11.1172C 21.4004 11.1172 20.8828 10.8945 20.4883 10.4492L 20.4883 13.4375L 18.7949 13.4375L 18.7949 4.66016L 20.3652 4.66016L 20.4238 5.28125C 20.834 4.78906 21.3691 4.54297 22.0293 4.54297C 22.8105 4.54297 23.418 4.83203 23.8516 5.41016C 24.2852 5.98828 24.502 6.78516 24.502 7.80078L 24.502 7.88867ZM 22.8086 7.76562C 22.8086 7.17578 22.7031 6.7207 22.4922 6.40039C 22.2852 6.08008 21.9824 5.91992 21.584 5.91992C 21.0527 5.91992 20.6875 6.12305 20.4883 6.5293L 20.4883 9.125C 20.6953 9.54297 21.0645 9.75195 21.5957 9.75195C 22.4043 9.75195 22.8086 9.08984 22.8086 7.76562ZM 30.1973 5.98438L 31.0996 5.98438C 31.5293 5.98438 31.8477 5.87695 32.0547 5.66211C 32.2617 5.44727 32.3652 5.16211 32.3652 4.80664C 32.3652 4.46289 32.2617 4.19531 32.0547 4.00391C 31.8516 3.8125 31.5703 3.7168 31.2109 3.7168C 30.8867 3.7168 30.6152 3.80664 30.3965 3.98633C 30.1777 4.16211 30.0684 4.39258 30.0684 4.67773L 28.375 4.67773C 28.375 4.23242 28.4941 3.83398 28.7324 3.48242C 28.9746 3.12695 29.3105 2.84961 29.7402 2.65039C 30.1738 2.45117 30.6504 2.35156 31.1699 2.35156C 32.0723 2.35156 32.7793 2.56836 33.291 3.00195C 33.8027 3.43164 34.0586 4.02539 34.0586 4.7832C 34.0586 5.17383 33.9395 5.5332 33.7012 5.86133C 33.4629 6.18945 33.1504 6.44141 32.7637 6.61719C 33.2441 6.78906 33.6016 7.04688 33.8359 7.39062C 34.0742 7.73438 34.1934 8.14062 34.1934 8.60938C 34.1934 9.36719 33.916 9.97461 33.3613 10.4316C 32.8105 10.8887 32.0801 11.1172 31.1699 11.1172C 30.3184 11.1172 29.6211 10.8926 29.0781 10.4434C 28.5391 9.99414 28.2695 9.40039 28.2695 8.66211L 29.9629 8.66211C 29.9629 8.98242 30.082 9.24414 30.3203 9.44727C 30.5625 9.65039 30.8594 9.75195 31.2109 9.75195C 31.6133 9.75195 31.9277 9.64648 32.1543 9.43555C 32.3848 9.2207 32.5 8.9375 32.5 8.58594C 32.5 7.73438 32.0312 7.30859 31.0938 7.30859L 30.1973 7.30859L 30.1973 5.98438Z"/>
<path id="path7_fill" d="M 5.40039 8.76172C 5.40039 8.42969 5.2832 8.17578 5.04883 8C 4.81445 7.82031 4.39258 7.63281 3.7832 7.4375C 3.17383 7.23828 2.69141 7.04297 2.33594 6.85156C 1.36719 6.32812 0.882812 5.62305 0.882812 4.73633C 0.882812 4.27539 1.01172 3.86523 1.26953 3.50586C 1.53125 3.14258 1.9043 2.85938 2.38867 2.65625C 2.87695 2.45312 3.42383 2.35156 4.0293 2.35156C 4.63867 2.35156 5.18164 2.46289 5.6582 2.68555C 6.13477 2.9043 6.50391 3.21484 6.76562 3.61719C 7.03125 4.01953 7.16406 4.47656 7.16406 4.98828L 5.40625 4.98828C 5.40625 4.59766 5.2832 4.29492 5.03711 4.08008C 4.79102 3.86133 4.44531 3.75195 4 3.75195C 3.57031 3.75195 3.23633 3.84375 2.99805 4.02734C 2.75977 4.20703 2.64062 4.44531 2.64062 4.74219C 2.64062 5.01953 2.7793 5.25195 3.05664 5.43945C 3.33789 5.62695 3.75 5.80273 4.29297 5.9668C 5.29297 6.26758 6.02148 6.64062 6.47852 7.08594C 6.93555 7.53125 7.16406 8.08594 7.16406 8.75C 7.16406 9.48828 6.88477 10.0684 6.32617 10.4902C 5.76758 10.9082 5.01562 11.1172 4.07031 11.1172C 3.41406 11.1172 2.81641 10.998 2.27734 10.7598C 1.73828 10.5176 1.32617 10.1875 1.04102 9.76953C 0.759766 9.35156 0.619141 8.86719 0.619141 8.31641L 2.38281 8.31641C 2.38281 9.25781 2.94531 9.72852 4.07031 9.72852C 4.48828 9.72852 4.81445 9.64453 5.04883 9.47656C 5.2832 9.30469 5.40039 9.06641 5.40039 8.76172ZM 10.2754 3.10156L 10.2754 4.66016L 11.3594 4.66016L 11.3594 5.90234L 10.2754 5.90234L 10.2754 9.06641C 10.2754 9.30078 10.3203 9.46875 10.4102 9.57031C 10.5 9.67188 10.6719 9.72266 10.9258 9.72266C 11.1133 9.72266 11.2793 9.70898 11.4238 9.68164L 11.4238 10.9648C 11.0918 11.0664 10.75 11.1172 10.3984 11.1172C 9.21094 11.1172 8.60547 10.5176 8.58203 9.31836L 8.58203 5.90234L 7.65625 5.90234L 7.65625 4.66016L 8.58203 4.66016L 8.58203 3.10156L 10.2754 3.10156ZM 15.2207 11.1172C 14.291 11.1172 13.5332 10.832 12.9473 10.2617C 12.3652 9.69141 12.0742 8.93164 12.0742 7.98242L 12.0742 7.81836C 12.0742 7.18164 12.1973 6.61328 12.4434 6.11328C 12.6895 5.60938 13.0371 5.22266 13.4863 4.95312C 13.9395 4.67969 14.4551 4.54297 15.0332 4.54297C 15.9004 4.54297 16.582 4.81641 17.0781 5.36328C 17.5781 5.91016 17.8281 6.68555 17.8281 7.68945L 17.8281 8.38086L 13.791 8.38086C 13.8457 8.79492 14.0098 9.12695 14.2832 9.37695C 14.5605 9.62695 14.9102 9.75195 15.332 9.75195C 15.9844 9.75195 16.4941 9.51562 16.8613 9.04297L 17.6934 9.97461C 17.4395 10.334 17.0957 10.6152 16.6621 10.8184C 16.2285 11.0176 15.748 11.1172 15.2207 11.1172ZM 15.0273 5.91406C 14.6914 5.91406 14.418 6.02734 14.207 6.25391C 14 6.48047 13.8672 6.80469 13.8086 7.22656L 16.1641 7.22656L 16.1641 7.0918C 16.1562 6.7168 16.0547 6.42773 15.8594 6.22461C 15.6641 6.01758 15.3867 5.91406 15.0273 5.91406ZM 24.502 7.88867C 24.502 8.86523 24.2793 9.64844 23.834 10.2383C 23.3926 10.8242 22.7949 11.1172 22.041 11.1172C 21.4004 11.1172 20.8828 10.8945 20.4883 10.4492L 20.4883 13.4375L 18.7949 13.4375L 18.7949 4.66016L 20.3652 4.66016L 20.4238 5.28125C 20.834 4.78906 21.3691 4.54297 22.0293 4.54297C 22.8105 4.54297 23.418 4.83203 23.8516 5.41016C 24.2852 5.98828 24.502 6.78516 24.502 7.80078L 24.502 7.88867ZM 22.8086 7.76562C 22.8086 7.17578 22.7031 6.7207 22.4922 6.40039C 22.2852 6.08008 21.9824 5.91992 21.584 5.91992C 21.0527 5.91992 20.6875 6.12305 20.4883 6.5293L 20.4883 9.125C 20.6953 9.54297 21.0645 9.75195 21.5957 9.75195C 22.4043 9.75195 22.8086 9.08984 22.8086 7.76562ZM 34.3223 11L 28.4746 11L 28.4746 9.83984L 31.2344 6.89844C 31.6133 6.48438 31.8926 6.12305 32.0723 5.81445C 32.2559 5.50586 32.3477 5.21289 32.3477 4.93555C 32.3477 4.55664 32.252 4.25977 32.0605 4.04492C 31.8691 3.82617 31.5957 3.7168 31.2402 3.7168C 30.8574 3.7168 30.5547 3.84961 30.332 4.11523C 30.1133 4.37695 30.0039 4.72266 30.0039 5.15234L 28.3047 5.15234C 28.3047 4.63281 28.4277 4.1582 28.6738 3.72852C 28.9238 3.29883 29.2754 2.96289 29.7285 2.7207C 30.1816 2.47461 30.6953 2.35156 31.2695 2.35156C 32.1484 2.35156 32.8301 2.5625 33.3145 2.98438C 33.8027 3.40625 34.0469 4.00195 34.0469 4.77148C 34.0469 5.19336 33.9375 5.62305 33.7188 6.06055C 33.5 6.49805 33.125 7.00781 32.5938 7.58984L 30.6543 9.63477L 34.3223 9.63477L 34.3223 11Z"/>
<path id="path8_stroke" d="M 0 0L 50 0L 50 -3L 0 -3L 0 0Z"/>
<path id="path9_fill" d="M 7.66602 8.1582C 7.59961 9.07617 7.25977 9.79883 6.64648 10.3262C 6.03711 10.8535 5.23242 11.1172 4.23242 11.1172C 3.13867 11.1172 2.27734 10.75 1.64844 10.0156C 1.02344 9.27734 0.710938 8.26562 0.710938 6.98047L 0.710938 6.45898C 0.710938 5.63867 0.855469 4.91602 1.14453 4.29102C 1.43359 3.66602 1.8457 3.1875 2.38086 2.85547C 2.91992 2.51953 3.54492 2.35156 4.25586 2.35156C 5.24023 2.35156 6.0332 2.61523 6.63477 3.14258C 7.23633 3.66992 7.58398 4.41016 7.67773 5.36328L 5.91992 5.36328C 5.87695 4.8125 5.72266 4.41406 5.45703 4.16797C 5.19531 3.91797 4.79492 3.79297 4.25586 3.79297C 3.66992 3.79297 3.23047 4.00391 2.9375 4.42578C 2.64844 4.84375 2.5 5.49414 2.49219 6.37695L 2.49219 7.02148C 2.49219 7.94336 2.63086 8.61719 2.9082 9.04297C 3.18945 9.46875 3.63086 9.68164 4.23242 9.68164C 4.77539 9.68164 5.17969 9.55859 5.44531 9.3125C 5.71484 9.0625 5.86914 8.67773 5.9082 8.1582L 7.66602 8.1582ZM 8.44531 7.77148C 8.44531 7.14258 8.56641 6.58203 8.80859 6.08984C 9.05078 5.59766 9.39844 5.2168 9.85156 4.94727C 10.3086 4.67773 10.8379 4.54297 11.4395 4.54297C 12.2949 4.54297 12.9922 4.80469 13.5312 5.32812C 14.0742 5.85156 14.377 6.5625 14.4395 7.46094L 14.4512 7.89453C 14.4512 8.86719 14.1797 9.64844 13.6367 10.2383C 13.0938 10.8242 12.3652 11.1172 11.4512 11.1172C 10.5371 11.1172 9.80664 10.8242 9.25977 10.2383C 8.7168 9.65234 8.44531 8.85547 8.44531 7.84766L 8.44531 7.77148ZM 10.1387 7.89453C 10.1387 8.49609 10.252 8.95703 10.4785 9.27734C 10.7051 9.59375 11.0293 9.75195 11.4512 9.75195C 11.8613 9.75195 12.1816 9.5957 12.4121 9.2832C 12.6426 8.9668 12.7578 8.46289 12.7578 7.77148C 12.7578 7.18164 12.6426 6.72461 12.4121 6.40039C 12.1816 6.07617 11.8574 5.91406 11.4395 5.91406C 11.0254 5.91406 10.7051 6.07617 10.4785 6.40039C 10.252 6.7207 10.1387 7.21875 10.1387 7.89453ZM 17.2812 11L 15.582 11L 15.582 2L 17.2812 2L 17.2812 11ZM 20.4688 11L 18.7695 11L 18.7695 2L 20.4688 2L 20.4688 11ZM 24.7871 11.1172C 23.8574 11.1172 23.0996 10.832 22.5137 10.2617C 21.9316 9.69141 21.6406 8.93164 21.6406 7.98242L 21.6406 7.81836C 21.6406 7.18164 21.7637 6.61328 22.0098 6.11328C 22.2559 5.60938 22.6035 5.22266 23.0527 4.95312C 23.5059 4.67969 24.0215 4.54297 24.5996 4.54297C 25.4668 4.54297 26.1484 4.81641 26.6445 5.36328C 27.1445 5.91016 27.3945 6.68555 27.3945 7.68945L 27.3945 8.38086L 23.3574 8.38086C 23.4121 8.79492 23.5762 9.12695 23.8496 9.37695C 24.127 9.62695 24.4766 9.75195 24.8984 9.75195C 25.5508 9.75195 26.0605 9.51562 26.4277 9.04297L 27.2598 9.97461C 27.0059 10.334 26.6621 10.6152 26.2285 10.8184C 25.7949 11.0176 25.3145 11.1172 24.7871 11.1172ZM 24.5938 5.91406C 24.2578 5.91406 23.9844 6.02734 23.7734 6.25391C 23.5664 6.48047 23.4336 6.80469 23.375 7.22656L 25.7305 7.22656L 25.7305 7.0918C 25.7227 6.7168 25.6211 6.42773 25.4258 6.22461C 25.2305 6.01758 24.9531 5.91406 24.5938 5.91406ZM 30.998 9.75195C 31.3105 9.75195 31.5645 9.66602 31.7598 9.49414C 31.9551 9.32227 32.0566 9.09375 32.0645 8.80859L 33.6523 8.80859C 33.6484 9.23828 33.5312 9.63281 33.3008 9.99219C 33.0703 10.3477 32.7539 10.625 32.3516 10.8242C 31.9531 11.0195 31.5117 11.1172 31.0273 11.1172C 30.1211 11.1172 29.4062 10.8301 28.8828 10.2559C 28.3594 9.67773 28.0977 8.88086 28.0977 7.86523L 28.0977 7.75391C 28.0977 6.77734 28.3574 5.99805 28.877 5.41602C 29.3965 4.83398 30.1094 4.54297 31.0156 4.54297C 31.8086 4.54297 32.4434 4.76953 32.9199 5.22266C 33.4004 5.67188 33.6445 6.27148 33.6523 7.02148L 32.0645 7.02148C 32.0566 6.69336 31.9551 6.42773 31.7598 6.22461C 31.5645 6.01758 31.3066 5.91406 30.9863 5.91406C 30.5918 5.91406 30.293 6.05859 30.0898 6.34766C 29.8906 6.63281 29.791 7.09766 29.791 7.74219L 29.791 7.91797C 29.791 8.57031 29.8906 9.03906 30.0898 9.32422C 30.2891 9.60938 30.5918 9.75195 30.998 9.75195ZM 36.6465 3.10156L 36.6465 4.66016L 37.7305 4.66016L 37.7305 5.90234L 36.6465 5.90234L 36.6465 9.06641C 36.6465 9.30078 36.6914 9.46875 36.7812 9.57031C 36.8711 9.67188 37.043 9.72266 37.2969 9.72266C 37.4844 9.72266 37.6504 9.70898 37.7949 9.68164L 37.7949 10.9648C 37.4629 11.0664 37.1211 11.1172 36.7695 11.1172C 35.582 11.1172 34.9766 10.5176 34.9531 9.31836L 34.9531 5.90234L 34.0273 5.90234L 34.0273 4.66016L 34.9531 4.66016L 34.9531 3.10156L 36.6465 3.10156ZM 40.4609 11L 38.7617 11L 38.7617 4.66016L 40.4609 4.66016L 40.4609 11ZM 38.6621 3.01953C 38.6621 2.76563 38.7461 2.55664 38.9141 2.39258C 39.0859 2.22852 39.3184 2.14648 39.6113 2.14648C 39.9004 2.14648 40.1309 2.22852 40.3027 2.39258C 40.4746 2.55664 40.5605 2.76563 40.5605 3.01953C 40.5605 3.27734 40.4727 3.48828 40.2969 3.65234C 40.125 3.81641 39.8965 3.89844 39.6113 3.89844C 39.3262 3.89844 39.0957 3.81641 38.9199 3.65234C 38.748 3.48828 38.6621 3.27734 38.6621 3.01953ZM 43.4199 4.66016L 43.4727 5.39258C 43.9258 4.82617 44.5332 4.54297 45.2949 4.54297C 45.9668 4.54297 46.4668 4.74023 46.7949 5.13477C 47.123 5.5293 47.291 6.11914 47.2988 6.9043L 47.2988 11L 45.6055 11L 45.6055 6.94531C 45.6055 6.58594 45.5273 6.32617 45.3711 6.16602C 45.2148 6.00195 44.9551 5.91992 44.5918 5.91992C 44.1152 5.91992 43.7578 6.12305 43.5195 6.5293L 43.5195 11L 41.8262 11L 41.8262 4.66016L 43.4199 4.66016ZM 48.3418 7.7832C 48.3418 6.81055 48.5723 6.02734 49.0332 5.43359C 49.498 4.83984 50.123 4.54297 50.9082 4.54297C 51.6035 4.54297 52.1445 4.78125 52.5312 5.25781L 52.6016 4.66016L 54.1367 4.66016L 54.1367 10.7891C 54.1367 11.3438 54.0098 11.8262 53.7559 12.2363C 53.5059 12.6465 53.1523 12.959 52.6953 13.1738C 52.2383 13.3887 51.7031 13.4961 51.0898 13.4961C 50.625 13.4961 50.1719 13.4023 49.7305 13.2148C 49.2891 13.0312 48.9551 12.793 48.7285 12.5L 49.4785 11.4688C 49.9004 11.9414 50.4121 12.1777 51.0137 12.1777C 51.4629 12.1777 51.8125 12.0566 52.0625 11.8145C 52.3125 11.5762 52.4375 11.2363 52.4375 10.7949L 52.4375 10.4551C 52.0469 10.8965 51.5332 11.1172 50.8965 11.1172C 50.1348 11.1172 49.5176 10.8203 49.0449 10.2266C 48.5762 9.62891 48.3418 8.83789 48.3418 7.85352L 48.3418 7.7832ZM 50.0352 7.90625C 50.0352 8.48047 50.1504 8.93164 50.3809 9.25977C 50.6113 9.58398 50.9277 9.74609 51.3301 9.74609C 51.8457 9.74609 52.2148 9.55273 52.4375 9.16602L 52.4375 6.5C 52.2109 6.11328 51.8457 5.91992 51.3418 5.91992C 50.9355 5.91992 50.6152 6.08594 50.3809 6.41797C 50.1504 6.75 50.0352 7.24609 50.0352 7.90625ZM 16.0449 21.7832C 16.0449 20.7949 16.2656 20.0078 16.707 19.4219C 17.1523 18.8359 17.7598 18.543 18.5293 18.543C 19.1465 18.543 19.6562 18.7734 20.0586 19.2344L 20.0586 16L 21.7578 16L 21.7578 25L 20.2285 25L 20.1465 24.3262C 19.7246 24.8535 19.1816 25.1172 18.5176 25.1172C 17.7715 25.1172 17.1719 24.8242 16.7188 24.2383C 16.2695 23.6484 16.0449 22.8301 16.0449 21.7832ZM 17.7383 21.9062C 17.7383 22.5 17.8418 22.9551 18.0488 23.2715C 18.2559 23.5879 18.5566 23.7461 18.9512 23.7461C 19.4746 23.7461 19.8438 23.5254 20.0586 23.084L 20.0586 20.582C 19.8477 20.1406 19.4824 19.9199 18.9629 19.9199C 18.1465 19.9199 17.7383 20.582 17.7383 21.9062ZM 26.7441 25C 26.666 24.8477 26.6094 24.6582 26.5742 24.4316C 26.1641 24.8887 25.6309 25.1172 24.9746 25.1172C 24.3535 25.1172 23.8379 24.9375 23.4277 24.5781C 23.0215 24.2188 22.8184 23.7656 22.8184 23.2188C 22.8184 22.5469 23.0664 22.0312 23.5625 21.6719C 24.0625 21.3125 24.7832 21.1309 25.7246 21.127L 26.5039 21.127L 26.5039 20.7637C 26.5039 20.4707 26.4277 20.2363 26.2754 20.0605C 26.127 19.8848 25.8906 19.7969 25.5664 19.7969C 25.2812 19.7969 25.0566 19.8652 24.8926 20.002C 24.7324 20.1387 24.6523 20.3262 24.6523 20.5645L 22.959 20.5645C 22.959 20.1973 23.0723 19.8574 23.2988 19.5449C 23.5254 19.2324 23.8457 18.9883 24.2598 18.8125C 24.6738 18.6328 25.1387 18.543 25.6543 18.543C 26.4355 18.543 27.0547 18.7402 27.5117 19.1348C 27.9727 19.5254 28.2031 20.0762 28.2031 20.7871L 28.2031 23.5352C 28.207 24.1367 28.291 24.5918 28.4551 24.9004L 28.4551 25L 26.7441 25ZM 25.3438 23.8223C 25.5938 23.8223 25.8242 23.7676 26.0352 23.6582C 26.2461 23.5449 26.4023 23.3945 26.5039 23.207L 26.5039 22.1172L 25.8711 22.1172C 25.0234 22.1172 24.5723 22.4102 24.5176 22.9961L 24.5117 23.0957C 24.5117 23.3066 24.5859 23.4805 24.7344 23.6172C 24.8828 23.7539 25.0859 23.8223 25.3438 23.8223ZM 31.5312 17.1016L 31.5312 18.6602L 32.6152 18.6602L 32.6152 19.9023L 31.5312 19.9023L 31.5312 23.0664C 31.5312 23.3008 31.5762 23.4688 31.666 23.5703C 31.7559 23.6719 31.9277 23.7227 32.1816 23.7227C 32.3691 23.7227 32.5352 23.709 32.6797 23.6816L 32.6797 24.9648C 32.3477 25.0664 32.0059 25.1172 31.6543 25.1172C 30.4668 25.1172 29.8613 24.5176 29.8379 23.3184L 29.8379 19.9023L 28.9121 19.9023L 28.9121 18.6602L 29.8379 18.6602L 29.8379 17.1016L 31.5312 17.1016ZM 37.2324 25C 37.1543 24.8477 37.0977 24.6582 37.0625 24.4316C 36.6523 24.8887 36.1191 25.1172 35.4629 25.1172C 34.8418 25.1172 34.3262 24.9375 33.916 24.5781C 33.5098 24.2188 33.3066 23.7656 33.3066 23.2188C 33.3066 22.5469 33.5547 22.0312 34.0508 21.6719C 34.5508 21.3125 35.2715 21.1309 36.2129 21.127L 36.9922 21.127L 36.9922 20.7637C 36.9922 20.4707 36.916 20.2363 36.7637 20.0605C 36.6152 19.8848 36.3789 19.7969 36.0547 19.7969C 35.7695 19.7969 35.5449 19.8652 35.3809 20.002C 35.2207 20.1387 35.1406 20.3262 35.1406 20.5645L 33.4473 20.5645C 33.4473 20.1973 33.5605 19.8574 33.7871 19.5449C 34.0137 19.2324 34.334 18.9883 34.748 18.8125C 35.1621 18.6328 35.627 18.543 36.1426 18.543C 36.9238 18.543 37.543 18.7402 38 19.1348C 38.4609 19.5254 38.6914 20.0762 38.6914 20.7871L 38.6914 23.5352C 38.6953 24.1367 38.7793 24.5918 38.9434 24.9004L 38.9434 25L 37.2324 25ZM 35.832 23.8223C 36.082 23.8223 36.3125 23.7676 36.5234 23.6582C 36.7344 23.5449 36.8906 23.3945 36.9922 23.207L 36.9922 22.1172L 36.3594 22.1172C 35.5117 22.1172 35.0605 22.4102 35.0059 22.9961L 35 23.0957C 35 23.3066 35.0742 23.4805 35.2227 23.6172C 35.3711 23.7539 35.5742 23.8223 35.832 23.8223Z"/>
<path id="path10_fill" d="M 6.05859 9.24219L 2.97656 9.24219L 2.39062 11L 0.521484 11L 3.69727 2.46875L 5.32617 2.46875L 8.51953 11L 6.65039 11L 6.05859 9.24219ZM 3.45117 7.81836L 5.58398 7.81836L 4.51172 4.625L 3.45117 7.81836ZM 10.4824 4.66016L 10.5352 5.39258C 10.9883 4.82617 11.5957 4.54297 12.3574 4.54297C 13.0293 4.54297 13.5293 4.74023 13.8574 5.13477C 14.1855 5.5293 14.3535 6.11914 14.3613 6.9043L 14.3613 11L 12.668 11L 12.668 6.94531C 12.668 6.58594 12.5898 6.32617 12.4336 6.16602C 12.2773 6.00195 12.0176 5.91992 11.6543 5.91992C 11.1777 5.91992 10.8203 6.12305 10.582 6.5293L 10.582 11L 8.88867 11L 8.88867 4.66016L 10.4824 4.66016ZM 19.3242 11C 19.2461 10.8477 19.1895 10.6582 19.1543 10.4316C 18.7441 10.8887 18.2109 11.1172 17.5547 11.1172C 16.9336 11.1172 16.418 10.9375 16.0078 10.5781C 15.6016 10.2188 15.3984 9.76562 15.3984 9.21875C 15.3984 8.54688 15.6465 8.03125 16.1426 7.67188C 16.6426 7.3125 17.3633 7.13086 18.3047 7.12695L 19.084 7.12695L 19.084 6.76367C 19.084 6.4707 19.0078 6.23633 18.8555 6.06055C 18.707 5.88477 18.4707 5.79688 18.1465 5.79688C 17.8613 5.79688 17.6367 5.86523 17.4727 6.00195C 17.3125 6.13867 17.2324 6.32617 17.2324 6.56445L 15.5391 6.56445C 15.5391 6.19727 15.6523 5.85742 15.8789 5.54492C 16.1055 5.23242 16.4258 4.98828 16.8398 4.8125C 17.2539 4.63281 17.7188 4.54297 18.2344 4.54297C 19.0156 4.54297 19.6348 4.74023 20.0918 5.13477C 20.5527 5.52539 20.7832 6.07617 20.7832 6.78711L 20.7832 9.53516C 20.7871 10.1367 20.8711 10.5918 21.0352 10.9004L 21.0352 11L 19.3242 11ZM 17.9238 9.82227C 18.1738 9.82227 18.4043 9.76758 18.6152 9.6582C 18.8262 9.54492 18.9824 9.39453 19.084 9.20703L 19.084 8.11719L 18.4512 8.11719C 17.6035 8.11719 17.1523 8.41016 17.0977 8.99609L 17.0918 9.0957C 17.0918 9.30664 17.166 9.48047 17.3145 9.61719C 17.4629 9.75391 17.666 9.82227 17.9238 9.82227ZM 23.8711 11L 22.1719 11L 22.1719 2L 23.8711 2L 23.8711 11ZM 27.6387 8.60352L 28.8105 4.66016L 30.627 4.66016L 28.0781 11.9844L 27.9375 12.3184C 27.5586 13.1465 26.9336 13.5605 26.0625 13.5605C 25.8164 13.5605 25.5664 13.5234 25.3125 13.4492L 25.3125 12.166L 25.5703 12.1719C 25.8906 12.1719 26.1289 12.123 26.2852 12.0254C 26.4453 11.9277 26.5703 11.7656 26.6602 11.5391L 26.8594 11.0176L 24.6387 4.66016L 26.4609 4.66016L 27.6387 8.60352ZM 33.2402 9.63477L 36.3398 9.63477L 36.3398 11L 31.0781 11L 31.0781 9.96875L 34.0605 6.03125L 31.166 6.03125L 31.166 4.66016L 36.2461 4.66016L 36.2461 5.66211L 33.2402 9.63477ZM 39.1875 11L 37.4883 11L 37.4883 4.66016L 39.1875 4.66016L 39.1875 11ZM 37.3887 3.01953C 37.3887 2.76563 37.4727 2.55664 37.6406 2.39258C 37.8125 2.22852 38.0449 2.14648 38.3379 2.14648C 38.627 2.14648 38.8574 2.22852 39.0293 2.39258C 39.2012 2.55664 39.2871 2.76563 39.2871 3.01953C 39.2871 3.27734 39.1992 3.48828 39.0234 3.65234C 38.8516 3.81641 38.623 3.89844 38.3379 3.89844C 38.0527 3.89844 37.8223 3.81641 37.6465 3.65234C 37.4746 3.48828 37.3887 3.27734 37.3887 3.01953ZM 42.1465 4.66016L 42.1992 5.39258C 42.6523 4.82617 43.2598 4.54297 44.0215 4.54297C 44.6934 4.54297 45.1934 4.74023 45.5215 5.13477C 45.8496 5.5293 46.0176 6.11914 46.0254 6.9043L 46.0254 11L 44.332 11L 44.332 6.94531C 44.332 6.58594 44.2539 6.32617 44.0977 6.16602C 43.9414 6.00195 43.6816 5.91992 43.3184 5.91992C 42.8418 5.91992 42.4844 6.12305 42.2461 6.5293L 42.2461 11L 40.5527 11L 40.5527 4.66016L 42.1465 4.66016ZM 47.0684 7.7832C 47.0684 6.81055 47.2988 6.02734 47.7598 5.43359C 48.2246 4.83984 48.8496 4.54297 49.6348 4.54297C 50.3301 4.54297 50.8711 4.78125 51.2578 5.25781L 51.3281 4.66016L 52.8633 4.66016L 52.8633 10.7891C 52.8633 11.3438 52.7363 11.8262 52.4824 12.2363C 52.2324 12.6465 51.8789 12.959 51.4219 13.1738C 50.9648 13.3887 50.4297 13.4961 49.8164 13.4961C 49.3516 13.4961 48.8984 13.4023 48.457 13.2148C 48.0156 13.0312 47.6816 12.793 47.4551 12.5L 48.2051 11.4688C 48.627 11.9414 49.1387 12.1777 49.7402 12.1777C 50.1895 12.1777 50.5391 12.0566 50.7891 11.8145C 51.0391 11.5762 51.1641 11.2363 51.1641 10.7949L 51.1641 10.4551C 50.7734 10.8965 50.2598 11.1172 49.623 11.1172C 48.8613 11.1172 48.2441 10.8203 47.7715 10.2266C 47.3027 9.62891 47.0684 8.83789 47.0684 7.85352L 47.0684 7.7832ZM 48.7617 7.90625C 48.7617 8.48047 48.877 8.93164 49.1074 9.25977C 49.3379 9.58398 49.6543 9.74609 50.0566 9.74609C 50.5723 9.74609 50.9414 9.55273 51.1641 9.16602L 51.1641 6.5C 50.9375 6.11328 50.5723 5.91992 50.0684 5.91992C 49.6621 5.91992 49.3418 6.08594 49.1074 6.41797C 48.877 6.75 48.7617 7.24609 48.7617 7.90625ZM 15.5449 21.7832C 15.5449 20.7949 15.7656 20.0078 16.207 19.4219C 16.6523 18.8359 17.2598 18.543 18.0293 18.543C 18.6465 18.543 19.1562 18.7734 19.5586 19.2344L 19.5586 16L 21.2578 16L 21.2578 25L 19.7285 25L 19.6465 24.3262C 19.2246 24.8535 18.6816 25.1172 18.0176 25.1172C 17.2715 25.1172 16.6719 24.8242 16.2188 24.2383C 15.7695 23.6484 15.5449 22.8301 15.5449 21.7832ZM 17.2383 21.9062C 17.2383 22.5 17.3418 22.9551 17.5488 23.2715C 17.7559 23.5879 18.0566 23.7461 18.4512 23.7461C 18.9746 23.7461 19.3438 23.5254 19.5586 23.084L 19.5586 20.582C 19.3477 20.1406 18.9824 19.9199 18.4629 19.9199C 17.6465 19.9199 17.2383 20.582 17.2383 21.9062ZM 26.2441 25C 26.166 24.8477 26.1094 24.6582 26.0742 24.4316C 25.6641 24.8887 25.1309 25.1172 24.4746 25.1172C 23.8535 25.1172 23.3379 24.9375 22.9277 24.5781C 22.5215 24.2188 22.3184 23.7656 22.3184 23.2188C 22.3184 22.5469 22.5664 22.0312 23.0625 21.6719C 23.5625 21.3125 24.2832 21.1309 25.2246 21.127L 26.0039 21.127L 26.0039 20.7637C 26.0039 20.4707 25.9277 20.2363 25.7754 20.0605C 25.627 19.8848 25.3906 19.7969 25.0664 19.7969C 24.7812 19.7969 24.5566 19.8652 24.3926 20.002C 24.2324 20.1387 24.1523 20.3262 24.1523 20.5645L 22.459 20.5645C 22.459 20.1973 22.5723 19.8574 22.7988 19.5449C 23.0254 19.2324 23.3457 18.9883 23.7598 18.8125C 24.1738 18.6328 24.6387 18.543 25.1543 18.543C 25.9355 18.543 26.5547 18.7402 27.0117 19.1348C 27.4727 19.5254 27.7031 20.0762 27.7031 20.7871L 27.7031 23.5352C 27.707 24.1367 27.791 24.5918 27.9551 24.9004L 27.9551 25L 26.2441 25ZM 24.8438 23.8223C 25.0938 23.8223 25.3242 23.7676 25.5352 23.6582C 25.7461 23.5449 25.9023 23.3945 26.0039 23.207L 26.0039 22.1172L 25.3711 22.1172C 24.5234 22.1172 24.0723 22.4102 24.0176 22.9961L 24.0117 23.0957C 24.0117 23.3066 24.0859 23.4805 24.2344 23.6172C 24.3828 23.7539 24.5859 23.8223 24.8438 23.8223ZM 31.0312 17.1016L 31.0312 18.6602L 32.1152 18.6602L 32.1152 19.9023L 31.0312 19.9023L 31.0312 23.0664C 31.0312 23.3008 31.0762 23.4688 31.166 23.5703C 31.2559 23.6719 31.4277 23.7227 31.6816 23.7227C 31.8691 23.7227 32.0352 23.709 32.1797 23.6816L 32.1797 24.9648C 31.8477 25.0664 31.5059 25.1172 31.1543 25.1172C 29.9668 25.1172 29.3613 24.5176 29.3379 23.3184L 29.3379 19.9023L 28.4121 19.9023L 28.4121 18.6602L 29.3379 18.6602L 29.3379 17.1016L 31.0312 17.1016ZM 36.7324 25C 36.6543 24.8477 36.5977 24.6582 36.5625 24.4316C 36.1523 24.8887 35.6191 25.1172 34.9629 25.1172C 34.3418 25.1172 33.8262 24.9375 33.416 24.5781C 33.0098 24.2188 32.8066 23.7656 32.8066 23.2188C 32.8066 22.5469 33.0547 22.0312 33.5508 21.6719C 34.0508 21.3125 34.7715 21.1309 35.7129 21.127L 36.4922 21.127L 36.4922 20.7637C 36.4922 20.4707 36.416 20.2363 36.2637 20.0605C 36.1152 19.8848 35.8789 19.7969 35.5547 19.7969C 35.2695 19.7969 35.0449 19.8652 34.8809 20.002C 34.7207 20.1387 34.6406 20.3262 34.6406 20.5645L 32.9473 20.5645C 32.9473 20.1973 33.0605 19.8574 33.2871 19.5449C 33.5137 19.2324 33.834 18.9883 34.248 18.8125C 34.6621 18.6328 35.127 18.543 35.6426 18.543C 36.4238 18.543 37.043 18.7402 37.5 19.1348C 37.9609 19.5254 38.1914 20.0762 38.1914 20.7871L 38.1914 23.5352C 38.1953 24.1367 38.2793 24.5918 38.4434 24.9004L 38.4434 25L 36.7324 25ZM 35.332 23.8223C 35.582 23.8223 35.8125 23.7676 36.0234 23.6582C 36.2344 23.5449 36.3906 23.3945 36.4922 23.207L 36.4922 22.1172L 35.8594 22.1172C 35.0117 22.1172 34.5605 22.4102 34.5059 22.9961L 34.5 23.0957C 34.5 23.3066 34.5742 23.4805 34.7227 23.6172C 34.8711 23.7539 35.0742 23.8223 35.332 23.8223Z"/>
<path id="path11_fill" d="M 3.27344 2.46875L 5.46484 8.65625L 7.64453 2.46875L 9.95312 2.46875L 9.95312 11L 8.18945 11L 8.18945 8.66797L 8.36523 4.64258L 6.0625 11L 4.85547 11L 2.55859 4.64844L 2.73438 8.66797L 2.73438 11L 0.976562 11L 0.976562 2.46875L 3.27344 2.46875ZM 15.0508 11C 14.9727 10.8477 14.916 10.6582 14.8809 10.4316C 14.4707 10.8887 13.9375 11.1172 13.2812 11.1172C 12.6602 11.1172 12.1445 10.9375 11.7344 10.5781C 11.3281 10.2188 11.125 9.76562 11.125 9.21875C 11.125 8.54688 11.373 8.03125 11.8691 7.67188C 12.3691 7.3125 13.0898 7.13086 14.0312 7.12695L 14.8105 7.12695L 14.8105 6.76367C 14.8105 6.4707 14.7344 6.23633 14.582 6.06055C 14.4336 5.88477 14.1973 5.79688 13.873 5.79688C 13.5879 5.79688 13.3633 5.86523 13.1992 6.00195C 13.0391 6.13867 12.959 6.32617 12.959 6.56445L 11.2656 6.56445C 11.2656 6.19727 11.3789 5.85742 11.6055 5.54492C 11.832 5.23242 12.1523 4.98828 12.5664 4.8125C 12.9805 4.63281 13.4453 4.54297 13.9609 4.54297C 14.7422 4.54297 15.3613 4.74023 15.8184 5.13477C 16.2793 5.52539 16.5098 6.07617 16.5098 6.78711L 16.5098 9.53516C 16.5137 10.1367 16.5977 10.5918 16.7617 10.9004L 16.7617 11L 15.0508 11ZM 13.6504 9.82227C 13.9004 9.82227 14.1309 9.76758 14.3418 9.6582C 14.5527 9.54492 14.709 9.39453 14.8105 9.20703L 14.8105 8.11719L 14.1777 8.11719C 13.3301 8.11719 12.8789 8.41016 12.8242 8.99609L 12.8184 9.0957C 12.8184 9.30664 12.8926 9.48047 13.041 9.61719C 13.1895 9.75391 13.3926 9.82227 13.6504 9.82227ZM 20.1133 8.45703L 19.5039 9.06641L 19.5039 11L 17.8105 11L 17.8105 2L 19.5039 2L 19.5039 6.98633L 19.832 6.56445L 21.4551 4.66016L 23.4883 4.66016L 21.1973 7.30273L 23.6875 11L 21.7422 11L 20.1133 8.45703ZM 26.0078 11L 24.3086 11L 24.3086 4.66016L 26.0078 4.66016L 26.0078 11ZM 24.209 3.01953C 24.209 2.76563 24.293 2.55664 24.4609 2.39258C 24.6328 2.22852 24.8652 2.14648 25.1582 2.14648C 25.4473 2.14648 25.6777 2.22852 25.8496 2.39258C 26.0215 2.55664 26.1074 2.76563 26.1074 3.01953C 26.1074 3.27734 26.0195 3.48828 25.8438 3.65234C 25.6719 3.81641 25.4434 3.89844 25.1582 3.89844C 24.873 3.89844 24.6426 3.81641 24.4668 3.65234C 24.2949 3.48828 24.209 3.27734 24.209 3.01953ZM 28.9668 4.66016L 29.0195 5.39258C 29.4727 4.82617 30.0801 4.54297 30.8418 4.54297C 31.5137 4.54297 32.0137 4.74023 32.3418 5.13477C 32.6699 5.5293 32.8379 6.11914 32.8457 6.9043L 32.8457 11L 31.1523 11L 31.1523 6.94531C 31.1523 6.58594 31.0742 6.32617 30.918 6.16602C 30.7617 6.00195 30.502 5.91992 30.1387 5.91992C 29.6621 5.91992 29.3047 6.12305 29.0664 6.5293L 29.0664 11L 27.373 11L 27.373 4.66016L 28.9668 4.66016ZM 33.8887 7.7832C 33.8887 6.81055 34.1191 6.02734 34.5801 5.43359C 35.0449 4.83984 35.6699 4.54297 36.4551 4.54297C 37.1504 4.54297 37.6914 4.78125 38.0781 5.25781L 38.1484 4.66016L 39.6836 4.66016L 39.6836 10.7891C 39.6836 11.3438 39.5566 11.8262 39.3027 12.2363C 39.0527 12.6465 38.6992 12.959 38.2422 13.1738C 37.7852 13.3887 37.25 13.4961 36.6367 13.4961C 36.1719 13.4961 35.7188 13.4023 35.2773 13.2148C 34.8359 13.0312 34.502 12.793 34.2754 12.5L 35.0254 11.4688C 35.4473 11.9414 35.959 12.1777 36.5605 12.1777C 37.0098 12.1777 37.3594 12.0566 37.6094 11.8145C 37.8594 11.5762 37.9844 11.2363 37.9844 10.7949L 37.9844 10.4551C 37.5938 10.8965 37.0801 11.1172 36.4434 11.1172C 35.6816 11.1172 35.0645 10.8203 34.5918 10.2266C 34.123 9.62891 33.8887 8.83789 33.8887 7.85352L 33.8887 7.7832ZM 35.582 7.90625C 35.582 8.48047 35.6973 8.93164 35.9277 9.25977C 36.1582 9.58398 36.4746 9.74609 36.877 9.74609C 37.3926 9.74609 37.7617 9.55273 37.9844 9.16602L 37.9844 6.5C 37.7578 6.11328 37.3926 5.91992 36.8887 5.91992C 36.4824 5.91992 36.1621 6.08594 35.9277 6.41797C 35.6973 6.75 35.582 7.24609 35.582 7.90625ZM 47.7754 10.3555C 47.3574 10.8633 46.7793 11.1172 46.041 11.1172C 45.3613 11.1172 44.8418 10.9219 44.4824 10.5312C 44.127 10.1406 43.9453 9.56836 43.9375 8.81445L 43.9375 4.66016L 45.6309 4.66016L 45.6309 8.75586C 45.6309 9.41602 45.9316 9.74609 46.5332 9.74609C 47.1074 9.74609 47.502 9.54688 47.7168 9.14844L 47.7168 4.66016L 49.416 4.66016L 49.416 11L 47.8223 11L 47.7754 10.3555ZM 54.127 9.24805C 54.127 9.04102 54.0234 8.87891 53.8164 8.76172C 53.6133 8.64062 53.2852 8.5332 52.832 8.43945C 51.3242 8.12305 50.5703 7.48242 50.5703 6.51758C 50.5703 5.95508 50.8027 5.48633 51.2676 5.11133C 51.7363 4.73242 52.3477 4.54297 53.1016 4.54297C 53.9062 4.54297 54.5488 4.73242 55.0293 5.11133C 55.5137 5.49023 55.7559 5.98242 55.7559 6.58789L 54.0625 6.58789C 54.0625 6.3457 53.9844 6.14648 53.8281 5.99023C 53.6719 5.83008 53.4277 5.75 53.0957 5.75C 52.8105 5.75 52.5898 5.81445 52.4336 5.94336C 52.2773 6.07227 52.1992 6.23633 52.1992 6.43555C 52.1992 6.62305 52.2871 6.77539 52.4629 6.89258C 52.6426 7.00586 52.9434 7.10547 53.3652 7.19141C 53.7871 7.27344 54.1426 7.36719 54.4316 7.47266C 55.3262 7.80078 55.7734 8.36914 55.7734 9.17773C 55.7734 9.75586 55.5254 10.2246 55.0293 10.584C 54.5332 10.9395 53.8926 11.1172 53.1074 11.1172C 52.5762 11.1172 52.1035 11.0234 51.6895 10.8359C 51.2793 10.6445 50.957 10.3848 50.7227 10.0566C 50.4883 9.72461 50.3711 9.36719 50.3711 8.98438L 51.9766 8.98438C 51.9922 9.28516 52.1035 9.51562 52.3105 9.67578C 52.5176 9.83594 52.7949 9.91602 53.1426 9.91602C 53.4668 9.91602 53.7109 9.85547 53.875 9.73438C 54.043 9.60938 54.127 9.44727 54.127 9.24805ZM 59.7871 11.1172C 58.8574 11.1172 58.0996 10.832 57.5137 10.2617C 56.9316 9.69141 56.6406 8.93164 56.6406 7.98242L 56.6406 7.81836C 56.6406 7.18164 56.7637 6.61328 57.0098 6.11328C 57.2559 5.60938 57.6035 5.22266 58.0527 4.95312C 58.5059 4.67969 59.0215 4.54297 59.5996 4.54297C 60.4668 4.54297 61.1484 4.81641 61.6445 5.36328C 62.1445 5.91016 62.3945 6.68555 62.3945 7.68945L 62.3945 8.38086L 58.3574 8.38086C 58.4121 8.79492 58.5762 9.12695 58.8496 9.37695C 59.127 9.62695 59.4766 9.75195 59.8984 9.75195C 60.5508 9.75195 61.0605 9.51562 61.4277 9.04297L 62.2598 9.97461C 62.0059 10.334 61.6621 10.6152 61.2285 10.8184C 60.7949 11.0176 60.3145 11.1172 59.7871 11.1172ZM 59.5938 5.91406C 59.2578 5.91406 58.9844 6.02734 58.7734 6.25391C 58.5664 6.48047 58.4336 6.80469 58.375 7.22656L 60.7305 7.22656L 60.7305 7.0918C 60.7227 6.7168 60.6211 6.42773 60.4258 6.22461C 60.2305 6.01758 59.9531 5.91406 59.5938 5.91406ZM 66.0859 7.77148C 66.0859 7.14258 66.207 6.58203 66.4492 6.08984C 66.6914 5.59766 67.0391 5.2168 67.4922 4.94727C 67.9492 4.67773 68.4785 4.54297 69.0801 4.54297C 69.9355 4.54297 70.6328 4.80469 71.1719 5.32812C 71.7148 5.85156 72.0176 6.5625 72.0801 7.46094L 72.0918 7.89453C 72.0918 8.86719 71.8203 9.64844 71.2773 10.2383C 70.7344 10.8242 70.0059 11.1172 69.0918 11.1172C 68.1777 11.1172 67.4473 10.8242 66.9004 10.2383C 66.3574 9.65234 66.0859 8.85547 66.0859 7.84766L 66.0859 7.77148ZM 67.7793 7.89453C 67.7793 8.49609 67.8926 8.95703 68.1191 9.27734C 68.3457 9.59375 68.6699 9.75195 69.0918 9.75195C 69.502 9.75195 69.8223 9.5957 70.0527 9.2832C 70.2832 8.9668 70.3984 8.46289 70.3984 7.77148C 70.3984 7.18164 70.2832 6.72461 70.0527 6.40039C 69.8223 6.07617 69.498 5.91406 69.0801 5.91406C 68.666 5.91406 68.3457 6.07617 68.1191 6.40039C 67.8926 6.7207 67.7793 7.21875 67.7793 7.89453ZM 73.5977 11L 73.5977 5.90234L 72.6543 5.90234L 72.6543 4.66016L 73.5977 4.66016L 73.5977 4.12109C 73.5977 3.41016 73.8008 2.85938 74.207 2.46875C 74.6172 2.07422 75.1895 1.87695 75.9238 1.87695C 76.1582 1.87695 76.4453 1.91602 76.7852 1.99414L 76.7676 3.30664C 76.627 3.27148 76.4551 3.25391 76.252 3.25391C 75.6152 3.25391 75.2969 3.55273 75.2969 4.15039L 75.2969 4.66016L 76.5566 4.66016L 76.5566 5.90234L 75.2969 5.90234L 75.2969 11L 73.5977 11ZM 8.88086 17.1016L 8.88086 18.6602L 9.96484 18.6602L 9.96484 19.9023L 8.88086 19.9023L 8.88086 23.0664C 8.88086 23.3008 8.92578 23.4688 9.01562 23.5703C 9.10547 23.6719 9.27734 23.7227 9.53125 23.7227C 9.71875 23.7227 9.88477 23.709 10.0293 23.6816L 10.0293 24.9648C 9.69727 25.0664 9.35547 25.1172 9.00391 25.1172C 7.81641 25.1172 7.21094 24.5176 7.1875 23.3184L 7.1875 19.9023L 6.26172 19.9023L 6.26172 18.6602L 7.1875 18.6602L 7.1875 17.1016L 8.88086 17.1016ZM 12.5605 19.3516C 13.0098 18.8125 13.5742 18.543 14.2539 18.543C 15.6289 18.543 16.3262 19.3418 16.3457 20.9395L 16.3457 25L 14.6523 25L 14.6523 20.9863C 14.6523 20.623 14.5742 20.3555 14.418 20.1836C 14.2617 20.0078 14.002 19.9199 13.6387 19.9199C 13.1426 19.9199 12.7832 20.1113 12.5605 20.4941L 12.5605 25L 10.8672 25L 10.8672 16L 12.5605 16L 12.5605 19.3516ZM 20.541 25.1172C 19.6113 25.1172 18.8535 24.832 18.2676 24.2617C 17.6855 23.6914 17.3945 22.9316 17.3945 21.9824L 17.3945 21.8184C 17.3945 21.1816 17.5176 20.6133 17.7637 20.1133C 18.0098 19.6094 18.3574 19.2227 18.8066 18.9531C 19.2598 18.6797 19.7754 18.543 20.3535 18.543C 21.2207 18.543 21.9023 18.8164 22.3984 19.3633C 22.8984 19.9102 23.1484 20.6855 23.1484 21.6895L 23.1484 22.3809L 19.1113 22.3809C 19.166 22.7949 19.3301 23.127 19.6035 23.377C 19.8809 23.627 20.2305 23.752 20.6523 23.752C 21.3047 23.752 21.8145 23.5156 22.1816 23.043L 23.0137 23.9746C 22.7598 24.334 22.416 24.6152 21.9824 24.8184C 21.5488 25.0176 21.0684 25.1172 20.541 25.1172ZM 20.3477 19.9141C 20.0117 19.9141 19.7383 20.0273 19.5273 20.2539C 19.3203 20.4805 19.1875 20.8047 19.1289 21.2266L 21.4844 21.2266L 21.4844 21.0918C 21.4766 20.7168 21.375 20.4277 21.1797 20.2246C 20.9844 20.0176 20.707 19.9141 20.3477 19.9141ZM 30.7773 25C 30.6992 24.8477 30.6426 24.6582 30.6074 24.4316C 30.1973 24.8887 29.6641 25.1172 29.0078 25.1172C 28.3867 25.1172 27.8711 24.9375 27.4609 24.5781C 27.0547 24.2188 26.8516 23.7656 26.8516 23.2188C 26.8516 22.5469 27.0996 22.0312 27.5957 21.6719C 28.0957 21.3125 28.8164 21.1309 29.7578 21.127L 30.5371 21.127L 30.5371 20.7637C 30.5371 20.4707 30.4609 20.2363 30.3086 20.0605C 30.1602 19.8848 29.9238 19.7969 29.5996 19.7969C 29.3145 19.7969 29.0898 19.8652 28.9258 20.002C 28.7656 20.1387 28.6855 20.3262 28.6855 20.5645L 26.9922 20.5645C 26.9922 20.1973 27.1055 19.8574 27.332 19.5449C 27.5586 19.2324 27.8789 18.9883 28.293 18.8125C 28.707 18.6328 29.1719 18.543 29.6875 18.543C 30.4688 18.543 31.0879 18.7402 31.5449 19.1348C 32.0059 19.5254 32.2363 20.0762 32.2363 20.7871L 32.2363 23.5352C 32.2402 24.1367 32.3242 24.5918 32.4883 24.9004L 32.4883 25L 30.7773 25ZM 29.377 23.8223C 29.627 23.8223 29.8574 23.7676 30.0684 23.6582C 30.2793 23.5449 30.4355 23.3945 30.5371 23.207L 30.5371 22.1172L 29.9043 22.1172C 29.0566 22.1172 28.6055 22.4102 28.5508 22.9961L 28.5449 23.0957C 28.5449 23.3066 28.6191 23.4805 28.7676 23.6172C 28.916 23.7539 29.1191 23.8223 29.377 23.8223ZM 35.0957 18.6602L 35.1484 19.3926C 35.6016 18.8262 36.209 18.543 36.9707 18.543C 37.6426 18.543 38.1426 18.7402 38.4707 19.1348C 38.7988 19.5293 38.9668 20.1191 38.9746 20.9043L 38.9746 25L 37.2812 25L 37.2812 20.9453C 37.2812 20.5859 37.2031 20.3262 37.0469 20.166C 36.8906 20.002 36.6309 19.9199 36.2676 19.9199C 35.791 19.9199 35.4336 20.123 35.1953 20.5293L 35.1953 25L 33.502 25L 33.502 18.6602L 35.0957 18.6602ZM 43.9375 25C 43.8594 24.8477 43.8027 24.6582 43.7676 24.4316C 43.3574 24.8887 42.8242 25.1172 42.168 25.1172C 41.5469 25.1172 41.0312 24.9375 40.6211 24.5781C 40.2148 24.2188 40.0117 23.7656 40.0117 23.2188C 40.0117 22.5469 40.2598 22.0312 40.7559 21.6719C 41.2559 21.3125 41.9766 21.1309 42.918 21.127L 43.6973 21.127L 43.6973 20.7637C 43.6973 20.4707 43.6211 20.2363 43.4688 20.0605C 43.3203 19.8848 43.084 19.7969 42.7598 19.7969C 42.4746 19.7969 42.25 19.8652 42.0859 20.002C 41.9258 20.1387 41.8457 20.3262 41.8457 20.5645L 40.1523 20.5645C 40.1523 20.1973 40.2656 19.8574 40.4922 19.5449C 40.7188 19.2324 41.0391 18.9883 41.4531 18.8125C 41.8672 18.6328 42.332 18.543 42.8477 18.543C 43.6289 18.543 44.248 18.7402 44.7051 19.1348C 45.166 19.5254 45.3965 20.0762 45.3965 20.7871L 45.3965 23.5352C 45.4004 24.1367 45.4844 24.5918 45.6484 24.9004L 45.6484 25L 43.9375 25ZM 42.5371 23.8223C 42.7871 23.8223 43.0176 23.7676 43.2285 23.6582C 43.4395 23.5449 43.5957 23.3945 43.6973 23.207L 43.6973 22.1172L 43.0645 22.1172C 42.2168 22.1172 41.7656 22.4102 41.7109 22.9961L 41.7051 23.0957C 41.7051 23.3066 41.7793 23.4805 41.9277 23.6172C 42.0762 23.7539 42.2793 23.8223 42.5371 23.8223ZM 48.4844 25L 46.7852 25L 46.7852 16L 48.4844 16L 48.4844 25ZM 52.252 22.6035L 53.4238 18.6602L 55.2402 18.6602L 52.6914 25.9844L 52.5508 26.3184C 52.1719 27.1465 51.5469 27.5605 50.6758 27.5605C 50.4297 27.5605 50.1797 27.5234 49.9258 27.4492L 49.9258 26.166L 50.1836 26.1719C 50.5039 26.1719 50.7422 26.123 50.8984 26.0254C 51.0586 25.9277 51.1836 25.7656 51.2734 25.5391L 51.4727 25.0176L 49.252 18.6602L 51.0742 18.6602L 52.252 22.6035ZM 59.3418 23.248C 59.3418 23.041 59.2383 22.8789 59.0312 22.7617C 58.8281 22.6406 58.5 22.5332 58.0469 22.4395C 56.5391 22.123 55.7852 21.4824 55.7852 20.5176C 55.7852 19.9551 56.0176 19.4863 56.4824 19.1113C 56.9512 18.7324 57.5625 18.543 58.3164 18.543C 59.1211 18.543 59.7637 18.7324 60.2441 19.1113C 60.7285 19.4902 60.9707 19.9824 60.9707 20.5879L 59.2773 20.5879C 59.2773 20.3457 59.1992 20.1465 59.043 19.9902C 58.8867 19.8301 58.6426 19.75 58.3105 19.75C 58.0254 19.75 57.8047 19.8145 57.6484 19.9434C 57.4922 20.0723 57.4141 20.2363 57.4141 20.4355C 57.4141 20.623 57.502 20.7754 57.6777 20.8926C 57.8574 21.0059 58.1582 21.1055 58.5801 21.1914C 59.002 21.2734 59.3574 21.3672 59.6465 21.4727C 60.541 21.8008 60.9883 22.3691 60.9883 23.1777C 60.9883 23.7559 60.7402 24.2246 60.2441 24.584C 59.748 24.9395 59.1074 25.1172 58.3223 25.1172C 57.791 25.1172 57.3184 25.0234 56.9043 24.8359C 56.4941 24.6445 56.1719 24.3848 55.9375 24.0566C 55.7031 23.7246 55.5859 23.3672 55.5859 22.9844L 57.1914 22.9844C 57.207 23.2852 57.3184 23.5156 57.5254 23.6758C 57.7324 23.8359 58.0098 23.916 58.3574 23.916C 58.6816 23.916 58.9258 23.8555 59.0898 23.7344C 59.2578 23.6094 59.3418 23.4473 59.3418 23.248ZM 63.8711 25L 62.1719 25L 62.1719 18.6602L 63.8711 18.6602L 63.8711 25ZM 62.0723 17.0195C 62.0723 16.7656 62.1562 16.5566 62.3242 16.3926C 62.4961 16.2285 62.7285 16.1465 63.0215 16.1465C 63.3105 16.1465 63.541 16.2285 63.7129 16.3926C 63.8848 16.5566 63.9707 16.7656 63.9707 17.0195C 63.9707 17.2773 63.8828 17.4883 63.707 17.6523C 63.5352 17.8164 63.3066 17.8984 63.0215 17.8984C 62.7363 17.8984 62.5059 17.8164 62.3301 17.6523C 62.1582 17.4883 62.0723 17.2773 62.0723 17.0195ZM 68.7051 23.248C 68.7051 23.041 68.6016 22.8789 68.3945 22.7617C 68.1914 22.6406 67.8633 22.5332 67.4102 22.4395C 65.9023 22.123 65.1484 21.4824 65.1484 20.5176C 65.1484 19.9551 65.3809 19.4863 65.8457 19.1113C 66.3145 18.7324 66.9258 18.543 67.6797 18.543C 68.4844 18.543 69.127 18.7324 69.6074 19.1113C 70.0918 19.4902 70.334 19.9824 70.334 20.5879L 68.6406 20.5879C 68.6406 20.3457 68.5625 20.1465 68.4062 19.9902C 68.25 19.8301 68.0059 19.75 67.6738 19.75C 67.3887 19.75 67.168 19.8145 67.0117 19.9434C 66.8555 20.0723 66.7773 20.2363 66.7773 20.4355C 66.7773 20.623 66.8652 20.7754 67.041 20.8926C 67.2207 21.0059 67.5215 21.1055 67.9434 21.1914C 68.3652 21.2734 68.7207 21.3672 69.0098 21.4727C 69.9043 21.8008 70.3516 22.3691 70.3516 23.1777C 70.3516 23.7559 70.1035 24.2246 69.6074 24.584C 69.1113 24.9395 68.4707 25.1172 67.6855 25.1172C 67.1543 25.1172 66.6816 25.0234 66.2676 24.8359C 65.8574 24.6445 65.5352 24.3848 65.3008 24.0566C 65.0664 23.7246 64.9492 23.3672 64.9492 22.9844L 66.5547 22.9844C 66.5703 23.2852 66.6816 23.5156 66.8887 23.6758C 67.0957 23.8359 67.373 23.916 67.7207 23.916C 68.0449 23.916 68.2891 23.8555 68.4531 23.7344C 68.6211 23.6094 68.7051 23.4473 68.7051 23.248Z"/>
<path id="path12_stroke" d="M 80.7986 36.8183C 81.1596 37.2363 81.791 37.2825 82.209 36.9215L 89.0203 31.0388C 89.4383 30.6778 89.4845 30.0463 89.1235 29.6283C 88.7625 29.2103 88.131 29.1641 87.713 29.5251L 81.6585 34.7542L 76.4295 28.6997C 76.0685 28.2818 75.437 28.2356 75.019 28.5966C 74.601 28.9576 74.5549 29.589 74.9158 30.007L 80.7986 36.8183ZM 0.853804 43.903C 12.8162 24.2844 23.9243 12.6601 33.7705 6.56404C 43.5863 0.486794 52.1291 -0.090808 59.1029 2.34098C 66.1168 4.78678 71.6972 10.331 75.4277 16.7694C 79.1622 23.2147 80.9718 30.4353 80.558 36.0917L 82.5527 36.2376C 83.0015 30.1019 81.0505 22.4845 77.1582 15.7667C 73.2619 9.04216 67.3494 3.09848 59.7614 0.452503C 52.1332 -2.20748 42.9649 -1.48073 32.7177 4.86356C 22.5008 11.1891 11.1938 23.1034 -0.853795 42.8618L 0.853804 43.903Z"/>
<path id="path13_stroke" d="M 78.6822 34.5036C 79.042 34.9226 79.6733 34.9707 80.0924 34.6109L 86.921 28.7484C 87.3401 28.3886 87.3881 27.7573 87.0284 27.3382C 86.6686 26.9192 86.0373 26.8711 85.6182 27.2309L 79.5483 32.4421L 74.3372 26.3722C 73.9774 25.9531 73.3461 25.9051 72.927 26.2648C 72.508 26.6246 72.4599 27.2559 72.8197 27.675L 78.6822 34.5036ZM 0.844373 41.1442C 24.184 4.36059 44.0594 -2.27293 57.5736 2.25561C 64.4047 4.54469 69.8327 9.73044 73.4586 15.7442C 77.0904 21.7676 78.8449 28.5074 78.4439 33.7763L 80.4381 33.9281C 80.8773 28.1589 78.9687 21.0094 75.1714 14.7115C 71.3683 8.40395 65.6013 2.83636 58.209 0.359249C 43.2764 -4.64459 22.5911 3.13809 -0.844365 40.0726L 0.844373 41.1442Z"/>
<path id="path14_fill" d="M 5.40039 8.76172C 5.40039 8.42969 5.2832 8.17578 5.04883 8C 4.81445 7.82031 4.39258 7.63281 3.7832 7.4375C 3.17383 7.23828 2.69141 7.04297 2.33594 6.85156C 1.36719 6.32812 0.882812 5.62305 0.882812 4.73633C 0.882812 4.27539 1.01172 3.86523 1.26953 3.50586C 1.53125 3.14258 1.9043 2.85938 2.38867 2.65625C 2.87695 2.45312 3.42383 2.35156 4.0293 2.35156C 4.63867 2.35156 5.18164 2.46289 5.6582 2.68555C 6.13477 2.9043 6.50391 3.21484 6.76562 3.61719C 7.03125 4.01953 7.16406 4.47656 7.16406 4.98828L 5.40625 4.98828C 5.40625 4.59766 5.2832 4.29492 5.03711 4.08008C 4.79102 3.86133 4.44531 3.75195 4 3.75195C 3.57031 3.75195 3.23633 3.84375 2.99805 4.02734C 2.75977 4.20703 2.64062 4.44531 2.64062 4.74219C 2.64062 5.01953 2.7793 5.25195 3.05664 5.43945C 3.33789 5.62695 3.75 5.80273 4.29297 5.9668C 5.29297 6.26758 6.02148 6.64062 6.47852 7.08594C 6.93555 7.53125 7.16406 8.08594 7.16406 8.75C 7.16406 9.48828 6.88477 10.0684 6.32617 10.4902C 5.76758 10.9082 5.01562 11.1172 4.07031 11.1172C 3.41406 11.1172 2.81641 10.998 2.27734 10.7598C 1.73828 10.5176 1.32617 10.1875 1.04102 9.76953C 0.759766 9.35156 0.619141 8.86719 0.619141 8.31641L 2.38281 8.31641C 2.38281 9.25781 2.94531 9.72852 4.07031 9.72852C 4.48828 9.72852 4.81445 9.64453 5.04883 9.47656C 5.2832 9.30469 5.40039 9.06641 5.40039 8.76172ZM 10.2754 3.10156L 10.2754 4.66016L 11.3594 4.66016L 11.3594 5.90234L 10.2754 5.90234L 10.2754 9.06641C 10.2754 9.30078 10.3203 9.46875 10.4102 9.57031C 10.5 9.67188 10.6719 9.72266 10.9258 9.72266C 11.1133 9.72266 11.2793 9.70898 11.4238 9.68164L 11.4238 10.9648C 11.0918 11.0664 10.75 11.1172 10.3984 11.1172C 9.21094 11.1172 8.60547 10.5176 8.58203 9.31836L 8.58203 5.90234L 7.65625 5.90234L 7.65625 4.66016L 8.58203 4.66016L 8.58203 3.10156L 10.2754 3.10156ZM 15.2207 11.1172C 14.291 11.1172 13.5332 10.832 12.9473 10.2617C 12.3652 9.69141 12.0742 8.93164 12.0742 7.98242L 12.0742 7.81836C 12.0742 7.18164 12.1973 6.61328 12.4434 6.11328C 12.6895 5.60938 13.0371 5.22266 13.4863 4.95312C 13.9395 4.67969 14.4551 4.54297 15.0332 4.54297C 15.9004 4.54297 16.582 4.81641 17.0781 5.36328C 17.5781 5.91016 17.8281 6.68555 17.8281 7.68945L 17.8281 8.38086L 13.791 8.38086C 13.8457 8.79492 14.0098 9.12695 14.2832 9.37695C 14.5605 9.62695 14.9102 9.75195 15.332 9.75195C 15.9844 9.75195 16.4941 9.51562 16.8613 9.04297L 17.6934 9.97461C 17.4395 10.334 17.0957 10.6152 16.6621 10.8184C 16.2285 11.0176 15.748 11.1172 15.2207 11.1172ZM 15.0273 5.91406C 14.6914 5.91406 14.418 6.02734 14.207 6.25391C 14 6.48047 13.8672 6.80469 13.8086 7.22656L 16.1641 7.22656L 16.1641 7.0918C 16.1562 6.7168 16.0547 6.42773 15.8594 6.22461C 15.6641 6.01758 15.3867 5.91406 15.0273 5.91406ZM 24.502 7.88867C 24.502 8.86523 24.2793 9.64844 23.834 10.2383C 23.3926 10.8242 22.7949 11.1172 22.041 11.1172C 21.4004 11.1172 20.8828 10.8945 20.4883 10.4492L 20.4883 13.4375L 18.7949 13.4375L 18.7949 4.66016L 20.3652 4.66016L 20.4238 5.28125C 20.834 4.78906 21.3691 4.54297 22.0293 4.54297C 22.8105 4.54297 23.418 4.83203 23.8516 5.41016C 24.2852 5.98828 24.502 6.78516 24.502 7.80078L 24.502 7.88867ZM 22.8086 7.76562C 22.8086 7.17578 22.7031 6.7207 22.4922 6.40039C 22.2852 6.08008 21.9824 5.91992 21.584 5.91992C 21.0527 5.91992 20.6875 6.12305 20.4883 6.5293L 20.4883 9.125C 20.6953 9.54297 21.0645 9.75195 21.5957 9.75195C 22.4043 9.75195 22.8086 9.08984 22.8086 7.76562ZM 32.5879 11L 30.8945 11L 30.8945 4.47266L 28.873 5.09961L 28.873 3.72266L 32.4062 2.45703L 32.5879 2.45703L 32.5879 11Z"/>
</defs>
</svg>
