<svg width="307" height="279" viewBox="0 0 307 279" fill="none" xmlns="http://www.w3.org/2000/svg">
<rect width="307" height="279" fill="black"/>
<line y1="216.5" x2="307" y2="216.5" stroke="white"/>
<path d="M11.5004 237.68C10.9204 237.68 10.3854 237.565 9.8954 237.335C9.4154 237.095 9.0004 236.755 8.6504 236.315C8.3104 235.875 8.0454 235.34 7.8554 234.71C7.6654 234.08 7.5704 233.365 7.5704 232.565C7.5704 231.765 7.6654 231.055 7.8554 230.435C8.0454 229.805 8.3104 229.28 8.6504 228.86C9.0004 228.43 9.4154 228.105 9.8954 227.885C10.3854 227.655 10.9204 227.54 11.5004 227.54C12.0804 227.54 12.6104 227.655 13.0904 227.885C13.5804 228.105 13.9954 228.43 14.3354 228.86C14.6854 229.29 14.9554 229.82 15.1454 230.45C15.3354 231.07 15.4304 231.775 15.4304 232.565C15.4304 233.365 15.3354 234.08 15.1454 234.71C14.9554 235.34 14.6854 235.875 14.3354 236.315C13.9954 236.755 13.5804 237.095 13.0904 237.335C12.6104 237.565 12.0804 237.68 11.5004 237.68ZM11.5004 235.775C12.0104 235.775 12.4154 235.49 12.7154 234.92C13.0154 234.34 13.1654 233.555 13.1654 232.565C13.1654 231.585 13.0154 230.82 12.7154 230.27C12.4154 229.72 12.0104 229.445 11.5004 229.445C10.9904 229.445 10.5854 229.72 10.2854 230.27C9.9854 230.82 9.8354 231.585 9.8354 232.565C9.8354 233.555 9.9854 234.34 10.2854 234.92C10.5854 235.49 10.9904 235.775 11.5004 235.775ZM23.8695 237.5H22.0695L21.9045 236.435H21.8445C21.5145 236.815 21.1495 237.12 20.7495 237.35C20.3495 237.57 19.8795 237.68 19.3395 237.68C18.4895 237.68 17.8745 237.41 17.4945 236.87C17.1145 236.33 16.9245 235.59 16.9245 234.65V230.06H19.1295V234.365C19.1295 234.865 19.2045 235.23 19.3545 235.46C19.5045 235.69 19.7895 235.805 20.2095 235.805C20.4895 235.805 20.7345 235.745 20.9445 235.625C21.1645 235.505 21.4045 235.28 21.6645 234.95V230.06H23.8695V237.5ZM27.5987 231.785H25.7237V230.15L27.7037 230.06L27.9887 228.08H29.8037V230.06H32.9537V231.785H29.8037V234.395C29.8037 234.965 29.9287 235.37 30.1787 235.61C30.4287 235.84 30.8237 235.955 31.3637 235.955C31.6537 235.955 31.9187 235.93 32.1587 235.88C32.3987 235.83 32.6287 235.765 32.8487 235.685L33.2387 237.275C32.9087 237.375 32.5387 237.465 32.1287 237.545C31.7287 237.635 31.2887 237.68 30.8087 237.68C30.2187 237.68 29.7187 237.6 29.3087 237.44C28.8987 237.28 28.5637 237.06 28.3037 236.78C28.0537 236.49 27.8737 236.145 27.7637 235.745C27.6537 235.345 27.5987 234.9 27.5987 234.41V231.785ZM37.2678 238.085V240.26H35.0628V230.06H36.8628L37.0278 230.81H37.0728C37.3728 230.54 37.7178 230.32 38.1078 230.15C38.4978 229.97 38.8928 229.88 39.2928 229.88C39.7528 229.88 40.1678 229.97 40.5378 230.15C40.9078 230.33 41.2228 230.585 41.4828 230.915C41.7428 231.245 41.9378 231.645 42.0678 232.115C42.2078 232.575 42.2778 233.09 42.2778 233.66C42.2778 234.3 42.1878 234.87 42.0078 235.37C41.8278 235.86 41.5878 236.28 41.2878 236.63C40.9878 236.97 40.6428 237.23 40.2528 237.41C39.8728 237.59 39.4728 237.68 39.0528 237.68C38.3728 237.68 37.7528 237.41 37.1928 236.87L37.2678 238.085ZM37.2678 235.385C37.4778 235.565 37.6928 235.695 37.9128 235.775C38.1428 235.845 38.3528 235.88 38.5428 235.88C38.9628 235.88 39.3128 235.71 39.5928 235.37C39.8728 235.02 40.0128 234.46 40.0128 233.69C40.0128 232.35 39.5578 231.68 38.6478 231.68C38.1778 231.68 37.7178 231.91 37.2678 232.37V235.385ZM50.852 237.5H49.052L48.887 236.435H48.827C48.497 236.815 48.132 237.12 47.732 237.35C47.332 237.57 46.862 237.68 46.322 237.68C45.472 237.68 44.857 237.41 44.477 236.87C44.097 236.33 43.907 235.59 43.907 234.65V230.06H46.112V234.365C46.112 234.865 46.187 235.23 46.337 235.46C46.487 235.69 46.772 235.805 47.192 235.805C47.472 235.805 47.717 235.745 47.927 235.625C48.147 235.505 48.387 235.28 48.647 234.95V230.06H50.852V237.5ZM54.5811 231.785H52.7061V230.15L54.6861 230.06L54.9711 228.08H56.7861V230.06H59.9361V231.785H56.7861V234.395C56.7861 234.965 56.9111 235.37 57.1611 235.61C57.4111 235.84 57.8061 235.955 58.3461 235.955C58.6361 235.955 58.9011 235.93 59.1411 235.88C59.3811 235.83 59.6111 235.765 59.8311 235.685L60.2211 237.275C59.8911 237.375 59.5211 237.465 59.1111 237.545C58.7111 237.635 58.2711 237.68 57.7911 237.68C57.2011 237.68 56.7011 237.6 56.2911 237.44C55.8811 237.28 55.5461 237.06 55.2861 236.78C55.0361 236.49 54.8561 236.145 54.7461 235.745C54.6361 235.345 54.5811 234.9 54.5811 234.41V231.785Z" fill="white"/>
<path d="M8.65 259.435C8.97 259.715 9.325 259.945 9.715 260.125C10.115 260.305 10.535 260.395 10.975 260.395C11.495 260.395 11.92 260.3 12.25 260.11C12.59 259.91 12.76 259.63 12.76 259.27C12.76 259.06 12.715 258.87 12.625 258.7C12.535 258.53 12.38 258.39 12.16 258.28C11.94 258.16 11.645 258.07 11.275 258.01C10.905 257.94 10.44 257.905 9.88 257.905V256.345C10.82 256.345 11.48 256.23 11.86 256C12.25 255.76 12.445 255.45 12.445 255.07C12.445 254.74 12.32 254.485 12.07 254.305C11.82 254.115 11.475 254.02 11.035 254.02C10.655 254.02 10.305 254.095 9.985 254.245C9.665 254.395 9.34 254.6 9.01 254.86L7.9 253.51C8.37 253.13 8.87 252.835 9.4 252.625C9.94 252.405 10.52 252.295 11.14 252.295C11.66 252.295 12.135 252.355 12.565 252.475C12.995 252.585 13.365 252.755 13.675 252.985C13.985 253.205 14.225 253.475 14.395 253.795C14.565 254.115 14.65 254.485 14.65 254.905C14.65 255.405 14.49 255.83 14.17 256.18C13.85 256.52 13.405 256.8 12.835 257.02V257.08C13.435 257.24 13.94 257.515 14.35 257.905C14.76 258.285 14.965 258.785 14.965 259.405C14.965 259.845 14.86 260.24 14.65 260.59C14.45 260.93 14.175 261.22 13.825 261.46C13.485 261.69 13.085 261.87 12.625 262C12.165 262.12 11.685 262.18 11.185 262.18C10.365 262.18 9.66 262.06 9.07 261.82C8.48 261.57 8 261.24 7.63 260.83L8.65 259.435ZM20.4941 262.18C19.9441 262.18 19.4441 262.075 18.9941 261.865C18.5441 261.645 18.1591 261.325 17.8391 260.905C17.5191 260.485 17.2691 259.965 17.0891 259.345C16.9191 258.725 16.8341 258.01 16.8341 257.2C16.8341 256.39 16.9191 255.68 17.0891 255.07C17.2691 254.46 17.5191 253.95 17.8391 253.54C18.1591 253.12 18.5441 252.81 18.9941 252.61C19.4441 252.4 19.9441 252.295 20.4941 252.295C21.0441 252.295 21.5441 252.4 21.9941 252.61C22.4441 252.81 22.8291 253.12 23.1491 253.54C23.4691 253.95 23.7141 254.46 23.8841 255.07C24.0641 255.68 24.1541 256.39 24.1541 257.2C24.1541 258.01 24.0641 258.725 23.8841 259.345C23.7141 259.965 23.4691 260.485 23.1491 260.905C22.8291 261.325 22.4441 261.645 21.9941 261.865C21.5441 262.075 21.0441 262.18 20.4941 262.18ZM20.4941 254.005C20.2541 254.005 20.0291 254.055 19.8191 254.155C19.6191 254.255 19.4441 254.43 19.2941 254.68C19.1441 254.92 19.0241 255.245 18.9341 255.655C18.8441 256.065 18.7991 256.58 18.7991 257.2C18.7991 257.82 18.8441 258.34 18.9341 258.76C19.0241 259.17 19.1441 259.505 19.2941 259.765C19.4441 260.015 19.6191 260.195 19.8191 260.305C20.0291 260.415 20.2541 260.47 20.4941 260.47C20.7341 260.47 20.9541 260.415 21.1541 260.305C21.3641 260.195 21.5441 260.015 21.6941 259.765C21.8441 259.505 21.9641 259.17 22.0541 258.76C22.1441 258.34 22.1891 257.82 22.1891 257.2C22.1891 256.58 22.1441 256.065 22.0541 255.655C21.9641 255.245 21.8441 254.92 21.6941 254.68C21.5441 254.43 21.3641 254.255 21.1541 254.155C20.9541 254.055 20.7341 254.005 20.4941 254.005ZM20.4941 258.31C20.1741 258.31 19.9041 258.21 19.6841 258.01C19.4741 257.8 19.3691 257.52 19.3691 257.17C19.3691 256.82 19.4741 256.545 19.6841 256.345C19.9041 256.135 20.1741 256.03 20.4941 256.03C20.8141 256.03 21.0791 256.135 21.2891 256.345C21.5091 256.545 21.6191 256.82 21.6191 257.17C21.6191 257.52 21.5091 257.8 21.2891 258.01C21.0791 258.21 20.8141 258.31 20.4941 258.31Z" fill="white"/>
<rect x="79" width="228" height="31" fill="#333333"/>
<rect x="79" width="228" height="31" fill="#333333"/>
<rect width="79" height="31" fill="#090808"/>
<path d="M12.105 17.8101C12.105 17.5513 11.9756 17.3486 11.7168 17.2021C11.4629 17.0508 11.0527 16.9165 10.4863 16.7993C8.60156 16.4038 7.65918 15.603 7.65918 14.397C7.65918 13.6938 7.94971 13.1079 8.53076 12.6392C9.1167 12.1655 9.88086 11.9287 10.8232 11.9287C11.8291 11.9287 12.6323 12.1655 13.2329 12.6392C13.8384 13.1128 14.1411 13.728 14.1411 14.4849H12.0244C12.0244 14.1821 11.9268 13.9331 11.7314 13.7378C11.5361 13.5376 11.231 13.4375 10.8159 13.4375C10.4595 13.4375 10.1836 13.5181 9.98828 13.6792C9.79297 13.8403 9.69531 14.0454 9.69531 14.2944C9.69531 14.5288 9.80518 14.7192 10.0249 14.8657C10.2495 15.0073 10.6255 15.1318 11.1528 15.2393C11.6802 15.3418 12.1245 15.459 12.4858 15.5908C13.604 16.001 14.1631 16.7114 14.1631 17.7222C14.1631 18.4448 13.853 19.0308 13.2329 19.48C12.6128 19.9243 11.812 20.1465 10.8306 20.1465C10.1665 20.1465 9.57568 20.0293 9.05811 19.7949C8.54541 19.5557 8.14258 19.231 7.84961 18.8208C7.55664 18.4058 7.41016 17.959 7.41016 17.4805H9.41699C9.43652 17.8564 9.57568 18.1445 9.83447 18.3447C10.0933 18.5449 10.4399 18.645 10.8745 18.645C11.2798 18.645 11.585 18.5693 11.79 18.418C12 18.2617 12.105 18.0591 12.105 17.8101ZM18.8286 18.4399C19.2192 18.4399 19.5366 18.3325 19.7808 18.1177C20.0249 17.9028 20.1519 17.6172 20.1616 17.2607H22.1465C22.1416 17.7979 21.9951 18.291 21.707 18.7402C21.4189 19.1846 21.0234 19.5312 20.5205 19.7803C20.0225 20.0244 19.4707 20.1465 18.8652 20.1465C17.7324 20.1465 16.8389 19.7876 16.1846 19.0698C15.5303 18.3472 15.2031 17.3511 15.2031 16.0815V15.9424C15.2031 14.7217 15.5278 13.7476 16.1772 13.02C16.8267 12.2925 17.7178 11.9287 18.8506 11.9287C19.8418 11.9287 20.6353 12.2119 21.231 12.7783C21.8315 13.3398 22.1367 14.0894 22.1465 15.0269H20.1616C20.1519 14.6167 20.0249 14.2847 19.7808 14.0308C19.5366 13.772 19.2144 13.6426 18.814 13.6426C18.3208 13.6426 17.9473 13.8232 17.6934 14.1846C17.4443 14.541 17.3198 15.1221 17.3198 15.9277V16.1475C17.3198 16.9629 17.4443 17.5488 17.6934 17.9053C17.9424 18.2617 18.3208 18.4399 18.8286 18.4399ZM27.8081 14.0601C27.52 14.021 27.2661 14.0015 27.0464 14.0015C26.2456 14.0015 25.7207 14.2725 25.4717 14.8145V20H23.355V12.0752H25.3545L25.4131 13.02C25.8379 12.2925 26.4263 11.9287 27.1782 11.9287C27.4126 11.9287 27.6323 11.9604 27.8374 12.0239L27.8081 14.0601ZM31.0674 20H28.9434V12.0752H31.0674V20ZM28.8188 10.0244C28.8188 9.70703 28.9238 9.4458 29.1338 9.24072C29.3486 9.03564 29.6392 8.93311 30.0054 8.93311C30.3667 8.93311 30.6548 9.03564 30.8696 9.24072C31.0845 9.4458 31.1919 9.70703 31.1919 10.0244C31.1919 10.3467 31.082 10.6104 30.8623 10.8154C30.6475 11.0205 30.3618 11.123 30.0054 11.123C29.6489 11.123 29.3608 11.0205 29.1411 10.8154C28.9263 10.6104 28.8188 10.3467 28.8188 10.0244ZM39.9517 16.1108C39.9517 17.3315 39.6733 18.3105 39.1167 19.0479C38.5649 19.7803 37.8179 20.1465 36.8755 20.1465C36.0747 20.1465 35.4277 19.8682 34.9346 19.3115V23.0469H32.8179V12.0752H34.7808L34.854 12.8516C35.3667 12.2363 36.0356 11.9287 36.8608 11.9287C37.8374 11.9287 38.5967 12.29 39.1387 13.0127C39.6807 13.7354 39.9517 14.7314 39.9517 16.001V16.1108ZM37.835 15.957C37.835 15.2197 37.7031 14.6509 37.4395 14.2505C37.1807 13.8501 36.8022 13.6499 36.3042 13.6499C35.6401 13.6499 35.1836 13.9038 34.9346 14.4116V17.6562C35.1934 18.1787 35.6548 18.4399 36.3188 18.4399C37.3296 18.4399 37.835 17.6123 37.835 15.957ZM43.8042 10.127V12.0752H45.1592V13.6279H43.8042V17.583C43.8042 17.876 43.8604 18.0859 43.9727 18.2129C44.085 18.3398 44.2998 18.4033 44.6172 18.4033C44.8516 18.4033 45.0591 18.3862 45.2397 18.3521V19.9561C44.8247 20.083 44.3975 20.1465 43.958 20.1465C42.4736 20.1465 41.7168 19.397 41.6875 17.8979V13.6279H40.5303V12.0752H41.6875V10.127H43.8042ZM46.4482 18.96C46.4482 18.623 46.5605 18.3496 46.7852 18.1396C47.0146 17.9297 47.3003 17.8247 47.6421 17.8247C47.9888 17.8247 48.2744 17.9297 48.499 18.1396C48.7285 18.3496 48.8433 18.623 48.8433 18.96C48.8433 19.292 48.731 19.563 48.5063 19.7729C48.2817 19.978 47.9937 20.0806 47.6421 20.0806C47.2954 20.0806 47.0098 19.978 46.7852 19.7729C46.5605 19.563 46.4482 19.292 46.4482 18.96ZM57.8374 16.1108C57.8374 17.3315 57.5591 18.3105 57.0024 19.0479C56.4507 19.7803 55.7036 20.1465 54.7612 20.1465C53.9604 20.1465 53.3135 19.8682 52.8203 19.3115V23.0469H50.7036V12.0752H52.6665L52.7397 12.8516C53.2524 12.2363 53.9214 11.9287 54.7466 11.9287C55.7231 11.9287 56.4824 12.29 57.0244 13.0127C57.5664 13.7354 57.8374 14.7314 57.8374 16.001V16.1108ZM55.7207 15.957C55.7207 15.2197 55.5889 14.6509 55.3252 14.2505C55.0664 13.8501 54.688 13.6499 54.1899 13.6499C53.5259 13.6499 53.0693 13.9038 52.8203 14.4116V17.6562C53.0791 18.1787 53.5405 18.4399 54.2046 18.4399C55.2153 18.4399 55.7207 17.6123 55.7207 15.957ZM62.0269 17.0044L63.4917 12.0752H65.7622L62.5762 21.2305L62.4004 21.6479C61.9268 22.6831 61.1455 23.2007 60.0566 23.2007C59.749 23.2007 59.4365 23.1543 59.1191 23.0615V21.4575L59.4414 21.4648C59.8418 21.4648 60.1396 21.4038 60.335 21.2817C60.5352 21.1597 60.6914 20.957 60.8037 20.6738L61.0527 20.022L58.2769 12.0752H60.5547L62.0269 17.0044Z" fill="white"/>
<path d="M7.705 66.28C7.705 65.67 7.795 65.125 7.975 64.645C8.155 64.165 8.39 63.76 8.68 63.43C8.98 63.09 9.32 62.83 9.7 62.65C10.08 62.47 10.475 62.38 10.885 62.38C11.315 62.38 11.675 62.455 11.965 62.605C12.255 62.745 12.53 62.935 12.79 63.175L12.715 62.02V59.485H14.92V70H13.12L12.955 69.235H12.91C12.63 69.505 12.31 69.73 11.95 69.91C11.59 70.09 11.22 70.18 10.84 70.18C10.37 70.18 9.94 70.09 9.55 69.91C9.17 69.73 8.84 69.475 8.56 69.145C8.29 68.805 8.08 68.395 7.93 67.915C7.78 67.435 7.705 66.89 7.705 66.28ZM9.97 66.25C9.97 66.99 10.095 67.53 10.345 67.87C10.595 68.21 10.95 68.38 11.41 68.38C11.66 68.38 11.89 68.33 12.1 68.23C12.31 68.12 12.515 67.94 12.715 67.69V64.675C12.515 64.495 12.31 64.37 12.1 64.3C11.9 64.22 11.69 64.18 11.47 64.18C11.06 64.18 10.705 64.35 10.405 64.69C10.115 65.03 9.97 65.55 9.97 66.25ZM16.8191 66.28C16.8191 65.67 16.9241 65.125 17.1341 64.645C17.3541 64.165 17.6441 63.76 18.0041 63.43C18.3641 63.09 18.7741 62.83 19.2341 62.65C19.7041 62.47 20.1891 62.38 20.6891 62.38C21.2591 62.38 21.7641 62.47 22.2041 62.65C22.6441 62.83 23.0091 63.08 23.2991 63.4C23.5891 63.72 23.8091 64.1 23.9591 64.54C24.1091 64.97 24.1841 65.44 24.1841 65.95C24.1841 66.15 24.1741 66.34 24.1541 66.52C24.1341 66.7 24.1141 66.835 24.0941 66.925H19.0841C19.1641 67.485 19.4041 67.89 19.8041 68.14C20.2141 68.38 20.6941 68.5 21.2441 68.5C21.5841 68.5 21.9041 68.46 22.2041 68.38C22.5141 68.29 22.8341 68.16 23.1641 67.99L23.8841 69.31C23.4641 69.58 22.9941 69.795 22.4741 69.955C21.9541 70.105 21.4441 70.18 20.9441 70.18C20.3641 70.18 19.8241 70.095 19.3241 69.925C18.8241 69.745 18.3891 69.49 18.0191 69.16C17.6491 68.82 17.3541 68.41 17.1341 67.93C16.9241 67.45 16.8191 66.9 16.8191 66.28ZM22.1891 65.47C22.1891 65.05 22.0741 64.71 21.8441 64.45C21.6141 64.19 21.2441 64.06 20.7341 64.06C20.3341 64.06 19.9791 64.175 19.6691 64.405C19.3591 64.635 19.1541 64.99 19.0541 65.47H22.1891ZM33.3433 61.33C32.8533 61.14 32.3333 61.045 31.7833 61.045C31.3033 61.045 30.9483 61.15 30.7183 61.36C30.4983 61.57 30.3883 61.9 30.3883 62.35V62.56H32.9533V64.285H30.3883V70H28.1833V64.285H26.2183V62.65L28.1833 62.56V62.365C28.1833 61.935 28.2483 61.535 28.3783 61.165C28.5083 60.795 28.7083 60.475 28.9783 60.205C29.2483 59.925 29.5933 59.705 30.0133 59.545C30.4333 59.385 30.9333 59.305 31.5133 59.305C31.9433 59.305 32.3433 59.345 32.7133 59.425C33.0933 59.505 33.4433 59.6 33.7633 59.71L33.3433 61.33ZM51.3316 98.33C50.8416 98.14 50.3216 98.045 49.7716 98.045C49.2916 98.045 48.9366 98.15 48.7066 98.36C48.4866 98.57 48.3766 98.9 48.3766 99.35V99.56H50.9416V101.285H48.3766V107H46.1716V101.285H44.2066V99.65L46.1716 99.56V99.365C46.1716 98.935 46.2366 98.535 46.3666 98.165C46.4966 97.795 46.6966 97.475 46.9666 97.205C47.2366 96.925 47.5816 96.705 48.0016 96.545C48.4216 96.385 48.9216 96.305 49.5016 96.305C49.9316 96.305 50.3316 96.345 50.7016 96.425C51.0816 96.505 51.4316 96.6 51.7516 96.71L51.3316 98.33ZM52.6757 103.28C52.6757 102.66 52.7807 102.11 52.9907 101.63C53.2007 101.14 53.4807 100.73 53.8307 100.4C54.1907 100.07 54.5957 99.82 55.0457 99.65C55.5057 99.47 55.9807 99.38 56.4707 99.38C56.9607 99.38 57.4307 99.47 57.8807 99.65C58.3407 99.82 58.7457 100.07 59.0957 100.4C59.4557 100.73 59.7407 101.14 59.9507 101.63C60.1607 102.11 60.2657 102.66 60.2657 103.28C60.2657 103.9 60.1607 104.455 59.9507 104.945C59.7407 105.425 59.4557 105.83 59.0957 106.16C58.7457 106.49 58.3407 106.745 57.8807 106.925C57.4307 107.095 56.9607 107.18 56.4707 107.18C55.9807 107.18 55.5057 107.095 55.0457 106.925C54.5957 106.745 54.1907 106.49 53.8307 106.16C53.4807 105.83 53.2007 105.425 52.9907 104.945C52.7807 104.455 52.6757 103.9 52.6757 103.28ZM54.9407 103.28C54.9407 103.93 55.0657 104.445 55.3157 104.825C55.5757 105.205 55.9607 105.395 56.4707 105.395C56.9807 105.395 57.3607 105.205 57.6107 104.825C57.8707 104.445 58.0007 103.93 58.0007 103.28C58.0007 102.63 57.8707 102.115 57.6107 101.735C57.3607 101.355 56.9807 101.165 56.4707 101.165C55.9607 101.165 55.5757 101.355 55.3157 101.735C55.0657 102.115 54.9407 102.63 54.9407 103.28ZM62.7048 99.56H64.5048L64.6848 101.18H64.7298C65.0998 100.57 65.5448 100.12 66.0648 99.83C66.5848 99.53 67.1448 99.38 67.7448 99.38C68.0748 99.38 68.3398 99.405 68.5398 99.455C68.7498 99.505 68.9648 99.58 69.1848 99.68L68.7348 101.525C68.5048 101.455 68.2948 101.405 68.1048 101.375C67.9248 101.335 67.6948 101.315 67.4148 101.315C66.9548 101.315 66.4998 101.45 66.0498 101.72C65.6098 101.99 65.2298 102.46 64.9098 103.13V107H62.7048V99.56ZM152.091 99.56H157.281V107H155.076V101.285H152.091V99.56ZM156.081 98.465C155.651 98.465 155.296 98.345 155.016 98.105C154.746 97.865 154.611 97.54 154.611 97.13C154.611 96.72 154.746 96.39 155.016 96.14C155.296 95.88 155.651 95.75 156.081 95.75C156.511 95.75 156.861 95.88 157.131 96.14C157.411 96.39 157.551 96.72 157.551 97.13C157.551 97.54 157.411 97.865 157.131 98.105C156.861 98.345 156.511 98.465 156.081 98.465ZM160.98 99.56H162.78L162.945 100.55H163.005C163.325 100.23 163.69 99.955 164.1 99.725C164.52 99.495 165.01 99.38 165.57 99.38C166.41 99.38 167.025 99.65 167.415 100.19C167.805 100.73 168 101.47 168 102.41V107H165.795V102.695C165.795 102.195 165.715 101.83 165.555 101.6C165.395 101.37 165.11 101.255 164.7 101.255C164.4 101.255 164.135 101.32 163.905 101.45C163.685 101.58 163.445 101.775 163.185 102.035V107H160.98V99.56ZM44.7166 137.56H46.5166L46.6966 139.18H46.7416C47.1116 138.57 47.5566 138.12 48.0766 137.83C48.5966 137.53 49.1566 137.38 49.7566 137.38C50.0866 137.38 50.3516 137.405 50.5516 137.455C50.7616 137.505 50.9766 137.58 51.1966 137.68L50.7466 139.525C50.5166 139.455 50.3066 139.405 50.1166 139.375C49.9366 139.335 49.7066 139.315 49.4266 139.315C48.9666 139.315 48.5116 139.45 48.0616 139.72C47.6216 139.99 47.2416 140.46 46.9216 141.13V145H44.7166V137.56ZM52.7957 141.28C52.7957 140.67 52.9007 140.125 53.1107 139.645C53.3307 139.165 53.6207 138.76 53.9807 138.43C54.3407 138.09 54.7507 137.83 55.2107 137.65C55.6807 137.47 56.1657 137.38 56.6657 137.38C57.2357 137.38 57.7407 137.47 58.1807 137.65C58.6207 137.83 58.9857 138.08 59.2757 138.4C59.5657 138.72 59.7857 139.1 59.9357 139.54C60.0857 139.97 60.1607 140.44 60.1607 140.95C60.1607 141.15 60.1507 141.34 60.1307 141.52C60.1107 141.7 60.0907 141.835 60.0707 141.925H55.0607C55.1407 142.485 55.3807 142.89 55.7807 143.14C56.1907 143.38 56.6707 143.5 57.2207 143.5C57.5607 143.5 57.8807 143.46 58.1807 143.38C58.4907 143.29 58.8107 143.16 59.1407 142.99L59.8607 144.31C59.4407 144.58 58.9707 144.795 58.4507 144.955C57.9307 145.105 57.4207 145.18 56.9207 145.18C56.3407 145.18 55.8007 145.095 55.3007 144.925C54.8007 144.745 54.3657 144.49 53.9957 144.16C53.6257 143.82 53.3307 143.41 53.1107 142.93C52.9007 142.45 52.7957 141.9 52.7957 141.28ZM58.1657 140.47C58.1657 140.05 58.0507 139.71 57.8207 139.45C57.5907 139.19 57.2207 139.06 56.7107 139.06C56.3107 139.06 55.9557 139.175 55.6457 139.405C55.3357 139.635 55.1307 139.99 55.0307 140.47H58.1657ZM63.5748 139.285H61.6998V137.65L63.6798 137.56L63.9648 135.58H65.7798V137.56H68.9298V139.285H65.7798V141.895C65.7798 142.465 65.9048 142.87 66.1548 143.11C66.4048 143.34 66.7998 143.455 67.3398 143.455C67.6298 143.455 67.8948 143.43 68.1348 143.38C68.3748 143.33 68.6048 143.265 68.8248 143.185L69.2148 144.775C68.8848 144.875 68.5148 144.965 68.1048 145.045C67.7048 145.135 67.2648 145.18 66.7848 145.18C66.1948 145.18 65.6948 145.1 65.2848 144.94C64.8748 144.78 64.5398 144.56 64.2798 144.28C64.0298 143.99 63.8498 143.645 63.7398 143.245C63.6298 142.845 63.5748 142.4 63.5748 141.91V139.285ZM77.834 145H76.034L75.869 143.935H75.809C75.479 144.315 75.114 144.62 74.714 144.85C74.314 145.07 73.844 145.18 73.304 145.18C72.454 145.18 71.839 144.91 71.459 144.37C71.079 143.83 70.889 143.09 70.889 142.15V137.56H73.094V141.865C73.094 142.365 73.169 142.73 73.319 142.96C73.469 143.19 73.754 143.305 74.174 143.305C74.454 143.305 74.699 143.245 74.909 143.125C75.129 143.005 75.369 142.78 75.629 142.45V137.56H77.834V145ZM80.6931 137.56H82.4931L82.6731 139.18H82.7181C83.0881 138.57 83.5331 138.12 84.0531 137.83C84.5731 137.53 85.1331 137.38 85.7331 137.38C86.0631 137.38 86.3281 137.405 86.5281 137.455C86.7381 137.505 86.9531 137.58 87.1731 137.68L86.7231 139.525C86.4931 139.455 86.2831 139.405 86.0931 139.375C85.9131 139.335 85.6831 139.315 85.4031 139.315C84.9431 139.315 84.4881 139.45 84.0381 139.72C83.5981 139.99 83.2181 140.46 82.8981 141.13V145H80.6931V137.56ZM89.0273 137.56H90.8273L90.9923 138.55H91.0523C91.3723 138.23 91.7373 137.955 92.1473 137.725C92.5673 137.495 93.0573 137.38 93.6173 137.38C94.4573 137.38 95.0723 137.65 95.4623 138.19C95.8523 138.73 96.0473 139.47 96.0473 140.41V145H93.8423V140.695C93.8423 140.195 93.7623 139.83 93.6023 139.6C93.4423 139.37 93.1573 139.255 92.7473 139.255C92.4473 139.255 92.1823 139.32 91.9523 139.45C91.7323 139.58 91.4923 139.775 91.2323 140.035V145H89.0273V137.56Z" fill="#E69F00"/>
<path d="M75.839 72.685C74.859 71.815 74.084 70.81 73.514 69.67C72.954 68.53 72.674 67.25 72.674 65.83C72.674 64.41 72.954 63.13 73.514 61.99C74.084 60.85 74.859 59.845 75.839 58.975L77.069 59.95C76.179 60.82 75.529 61.725 75.119 62.665C74.719 63.595 74.519 64.65 74.519 65.83C74.519 66.42 74.569 66.98 74.669 67.51C74.769 68.03 74.919 68.53 75.119 69.01C75.329 69.49 75.594 69.95 75.914 70.39C76.234 70.84 76.619 71.28 77.069 71.71L75.839 72.685ZM79.8681 67.93C79.8681 67.51 79.9581 67.145 80.1381 66.835C80.3181 66.515 80.6031 66.245 80.9931 66.025C81.3931 65.805 81.9031 65.63 82.5231 65.5C83.1431 65.36 83.8931 65.265 84.7731 65.215C84.7331 64.875 84.5831 64.61 84.3231 64.42C84.0731 64.23 83.6931 64.135 83.1831 64.135C82.8231 64.135 82.4581 64.2 82.0881 64.33C81.7281 64.45 81.3381 64.615 80.9181 64.825L80.1381 63.385C80.6481 63.095 81.1931 62.855 81.7731 62.665C82.3631 62.475 82.9781 62.38 83.6181 62.38C84.6581 62.38 85.4781 62.655 86.0781 63.205C86.6781 63.755 86.9781 64.6 86.9781 65.74V70H85.1781L85.0131 69.16H84.9531C84.5731 69.45 84.1581 69.695 83.7081 69.895C83.2581 70.085 82.7931 70.18 82.3131 70.18C81.9331 70.18 81.5931 70.12 81.2931 70C80.9931 69.89 80.7381 69.735 80.5281 69.535C80.3181 69.325 80.1531 69.085 80.0331 68.815C79.9231 68.545 79.8681 68.25 79.8681 67.93ZM81.9831 67.765C81.9831 68.005 82.0731 68.185 82.2531 68.305C82.4431 68.415 82.6981 68.47 83.0181 68.47C83.3481 68.47 83.6581 68.405 83.9481 68.275C84.2381 68.135 84.5131 67.965 84.7731 67.765V66.535C84.2231 66.565 83.7681 66.615 83.4081 66.685C83.0481 66.755 82.7631 66.845 82.5531 66.955C82.3431 67.055 82.1931 67.175 82.1031 67.315C82.0231 67.455 81.9831 67.605 81.9831 67.765ZM96.0473 70.81V72.46H88.8473V70.81H96.0473ZM97.8714 59.485H102.236V67.18C102.236 67.41 102.266 67.605 102.326 67.765C102.396 67.915 102.486 68.04 102.596 68.14C102.716 68.23 102.846 68.295 102.986 68.335C103.136 68.375 103.286 68.395 103.436 68.395C103.606 68.395 103.786 68.38 103.976 68.35C104.166 68.31 104.376 68.245 104.606 68.155L105.101 69.775C104.901 69.835 104.716 69.89 104.546 69.94C104.376 69.99 104.206 70.03 104.036 70.06C103.866 70.1 103.686 70.13 103.496 70.15C103.306 70.17 103.096 70.18 102.866 70.18C101.926 70.18 101.216 69.905 100.736 69.355C100.266 68.795 100.031 68.04 100.031 67.09V61.225H97.8714V59.485ZM107.121 62.56H112.311V70H110.106V64.285H107.121V62.56ZM111.111 61.465C110.681 61.465 110.326 61.345 110.046 61.105C109.776 60.865 109.641 60.54 109.641 60.13C109.641 59.72 109.776 59.39 110.046 59.14C110.326 58.88 110.681 58.75 111.111 58.75C111.541 58.75 111.891 58.88 112.161 59.14C112.441 59.39 112.581 59.72 112.581 60.13C112.581 60.54 112.441 60.865 112.161 61.105C111.891 61.345 111.541 61.465 111.111 61.465ZM116.715 67.66C117.145 67.93 117.575 68.145 118.005 68.305C118.445 68.465 118.915 68.545 119.415 68.545C119.925 68.545 120.29 68.49 120.51 68.38C120.73 68.27 120.84 68.115 120.84 67.915C120.84 67.685 120.655 67.5 120.285 67.36C119.925 67.21 119.445 67.05 118.845 66.88C118.515 66.79 118.19 66.685 117.87 66.565C117.56 66.435 117.28 66.285 117.03 66.115C116.78 65.935 116.575 65.73 116.415 65.5C116.265 65.27 116.19 65.005 116.19 64.705C116.19 64.365 116.27 64.05 116.43 63.76C116.59 63.47 116.815 63.225 117.105 63.025C117.405 62.825 117.765 62.67 118.185 62.56C118.615 62.44 119.095 62.38 119.625 62.38C120.285 62.38 120.885 62.49 121.425 62.71C121.975 62.92 122.445 63.15 122.835 63.4L121.845 64.72C121.505 64.52 121.155 64.355 120.795 64.225C120.435 64.085 120.06 64.015 119.67 64.015C119.2 64.015 118.865 64.065 118.665 64.165C118.475 64.265 118.38 64.41 118.38 64.6C118.38 64.71 118.43 64.81 118.53 64.9C118.63 64.99 118.765 65.07 118.935 65.14C119.105 65.21 119.305 65.28 119.535 65.35C119.775 65.41 120.025 65.475 120.285 65.545C120.655 65.645 121.005 65.76 121.335 65.89C121.665 66.01 121.955 66.155 122.205 66.325C122.455 66.495 122.655 66.7 122.805 66.94C122.955 67.18 123.03 67.46 123.03 67.78C123.03 68.12 122.95 68.435 122.79 68.725C122.63 69.015 122.395 69.27 122.085 69.49C121.785 69.7 121.405 69.87 120.945 70C120.495 70.12 119.97 70.18 119.37 70.18C118.7 70.18 118.045 70.07 117.405 69.85C116.765 69.63 116.205 69.36 115.725 69.04L116.715 67.66ZM126.534 64.285H124.659V62.65L126.639 62.56L126.924 60.58H128.739V62.56H131.889V64.285H128.739V66.895C128.739 67.465 128.864 67.87 129.114 68.11C129.364 68.34 129.759 68.455 130.299 68.455C130.589 68.455 130.854 68.43 131.094 68.38C131.334 68.33 131.564 68.265 131.784 68.185L132.174 69.775C131.844 69.875 131.474 69.965 131.064 70.045C130.664 70.135 130.224 70.18 129.744 70.18C129.154 70.18 128.654 70.1 128.244 69.94C127.834 69.78 127.499 69.56 127.239 69.28C126.989 68.99 126.809 68.645 126.699 68.245C126.589 67.845 126.534 67.4 126.534 66.91V64.285ZM134.808 71.71C135.258 71.28 135.643 70.84 135.963 70.39C136.283 69.95 136.543 69.49 136.743 69.01C136.953 68.53 137.108 68.03 137.208 67.51C137.308 66.98 137.358 66.42 137.358 65.83C137.358 64.65 137.153 63.595 136.743 62.665C136.343 61.725 135.698 60.82 134.808 59.95L136.038 58.975C137.018 59.845 137.788 60.85 138.348 61.99C138.918 63.13 139.203 64.41 139.203 65.83C139.203 67.25 138.918 68.53 138.348 69.67C137.788 70.81 137.018 71.815 136.038 72.685L134.808 71.71ZM144.672 63.58C144.672 63.33 144.712 63.1 144.792 62.89C144.882 62.67 145.002 62.48 145.152 62.32C145.302 62.16 145.482 62.035 145.692 61.945C145.912 61.855 146.152 61.81 146.412 61.81C146.672 61.81 146.907 61.855 147.117 61.945C147.337 62.035 147.522 62.16 147.672 62.32C147.822 62.48 147.937 62.67 148.017 62.89C148.107 63.1 148.152 63.33 148.152 63.58C148.152 64.08 147.992 64.5 147.672 64.84C147.352 65.17 146.932 65.335 146.412 65.335C145.892 65.335 145.472 65.17 145.152 64.84C144.832 64.5 144.672 64.08 144.672 63.58ZM144.672 68.425C144.672 68.175 144.712 67.945 144.792 67.735C144.882 67.515 145.002 67.325 145.152 67.165C145.302 67.005 145.482 66.88 145.692 66.79C145.912 66.7 146.152 66.655 146.412 66.655C146.672 66.655 146.907 66.7 147.117 66.79C147.337 66.88 147.522 67.005 147.672 67.165C147.822 67.325 147.937 67.515 148.017 67.735C148.107 67.945 148.152 68.175 148.152 68.425C148.152 68.925 147.992 69.345 147.672 69.685C147.352 70.015 146.932 70.18 146.412 70.18C145.892 70.18 145.472 70.015 145.152 69.685C144.832 69.345 144.672 68.925 144.672 68.425ZM43.8916 85.93C43.8916 85.51 43.9816 85.145 44.1616 84.835C44.3416 84.515 44.6266 84.245 45.0166 84.025C45.4166 83.805 45.9266 83.63 46.5466 83.5C47.1666 83.36 47.9166 83.265 48.7966 83.215C48.7566 82.875 48.6066 82.61 48.3466 82.42C48.0966 82.23 47.7166 82.135 47.2066 82.135C46.8466 82.135 46.4816 82.2 46.1116 82.33C45.7516 82.45 45.3616 82.615 44.9416 82.825L44.1616 81.385C44.6716 81.095 45.2166 80.855 45.7966 80.665C46.3866 80.475 47.0016 80.38 47.6416 80.38C48.6816 80.38 49.5016 80.655 50.1016 81.205C50.7016 81.755 51.0016 82.6 51.0016 83.74V88H49.2016L49.0366 87.16H48.9766C48.5966 87.45 48.1816 87.695 47.7316 87.895C47.2816 88.085 46.8166 88.18 46.3366 88.18C45.9566 88.18 45.6166 88.12 45.3166 88C45.0166 87.89 44.7616 87.735 44.5516 87.535C44.3416 87.325 44.1766 87.085 44.0566 86.815C43.9466 86.545 43.8916 86.25 43.8916 85.93ZM46.0066 85.765C46.0066 86.005 46.0966 86.185 46.2766 86.305C46.4666 86.415 46.7216 86.47 47.0416 86.47C47.3716 86.47 47.6816 86.405 47.9716 86.275C48.2616 86.135 48.5366 85.965 48.7966 85.765V84.535C48.2466 84.565 47.7916 84.615 47.4316 84.685C47.0716 84.755 46.7866 84.845 46.5766 84.955C46.3666 85.055 46.2166 85.175 46.1266 85.315C46.0466 85.455 46.0066 85.605 46.0066 85.765ZM60.0707 88.81V90.46H52.8707V88.81H60.0707ZM62.7498 85.66C63.1798 85.93 63.6098 86.145 64.0398 86.305C64.4798 86.465 64.9498 86.545 65.4498 86.545C65.9598 86.545 66.3248 86.49 66.5448 86.38C66.7648 86.27 66.8748 86.115 66.8748 85.915C66.8748 85.685 66.6898 85.5 66.3198 85.36C65.9598 85.21 65.4798 85.05 64.8798 84.88C64.5498 84.79 64.2248 84.685 63.9048 84.565C63.5948 84.435 63.3148 84.285 63.0648 84.115C62.8148 83.935 62.6098 83.73 62.4498 83.5C62.2998 83.27 62.2248 83.005 62.2248 82.705C62.2248 82.365 62.3048 82.05 62.4648 81.76C62.6248 81.47 62.8498 81.225 63.1398 81.025C63.4398 80.825 63.7998 80.67 64.2198 80.56C64.6498 80.44 65.1298 80.38 65.6598 80.38C66.3198 80.38 66.9198 80.49 67.4598 80.71C68.0098 80.92 68.4798 81.15 68.8698 81.4L67.8798 82.72C67.5398 82.52 67.1898 82.355 66.8298 82.225C66.4698 82.085 66.0948 82.015 65.7048 82.015C65.2348 82.015 64.8998 82.065 64.6998 82.165C64.5098 82.265 64.4148 82.41 64.4148 82.6C64.4148 82.71 64.4648 82.81 64.5648 82.9C64.6648 82.99 64.7998 83.07 64.9698 83.14C65.1398 83.21 65.3398 83.28 65.5698 83.35C65.8098 83.41 66.0598 83.475 66.3198 83.545C66.6898 83.645 67.0398 83.76 67.3698 83.89C67.6998 84.01 67.9898 84.155 68.2398 84.325C68.4898 84.495 68.6898 84.7 68.8398 84.94C68.9898 85.18 69.0648 85.46 69.0648 85.78C69.0648 86.12 68.9848 86.435 68.8248 86.725C68.6648 87.015 68.4298 87.27 68.1198 87.49C67.8198 87.7 67.4398 87.87 66.9798 88C66.5298 88.12 66.0048 88.18 65.4048 88.18C64.7348 88.18 64.0798 88.07 63.4398 87.85C62.7998 87.63 62.2398 87.36 61.7598 87.04L62.7498 85.66ZM77.834 88H76.034L75.869 86.935H75.809C75.479 87.315 75.114 87.62 74.714 87.85C74.314 88.07 73.844 88.18 73.304 88.18C72.454 88.18 71.839 87.91 71.459 87.37C71.079 86.83 70.889 86.09 70.889 85.15V80.56H73.094V84.865C73.094 85.365 73.169 85.73 73.319 85.96C73.469 86.19 73.754 86.305 74.174 86.305C74.454 86.305 74.699 86.245 74.909 86.125C75.129 86.005 75.369 85.78 75.629 85.45V80.56H77.834V88ZM79.4931 80.56H81.1431L81.3081 81.49H81.3681C81.5081 81.18 81.6981 80.92 81.9381 80.71C82.1881 80.49 82.5281 80.38 82.9581 80.38C83.2881 80.38 83.5631 80.485 83.7831 80.695C84.0131 80.895 84.1731 81.195 84.2631 81.595C84.4031 81.255 84.6031 80.97 84.8631 80.74C85.1331 80.5 85.4781 80.38 85.8981 80.38C86.4181 80.38 86.8231 80.595 87.1131 81.025C87.4031 81.445 87.5481 82.03 87.5481 82.78V88H85.4781V82.945C85.4781 82.485 85.3381 82.255 85.0581 82.255C84.7881 82.255 84.5581 82.495 84.3681 82.975V88H82.6731V82.945C82.6731 82.485 82.5281 82.255 82.2381 82.255C82.0981 82.255 81.9781 82.315 81.8781 82.435C81.7781 82.555 81.6731 82.735 81.5631 82.975V88H79.4931V80.56ZM97.9914 80.53H104.891V82.09H97.9914V80.53ZM97.9914 83.995H104.891V85.555H97.9914V83.995ZM79.7781 103.28C79.7781 102.67 79.8831 102.125 80.0931 101.645C80.3131 101.165 80.6031 100.76 80.9631 100.43C81.3231 100.09 81.7331 99.83 82.1931 99.65C82.6631 99.47 83.1481 99.38 83.6481 99.38C84.2181 99.38 84.7231 99.47 85.1631 99.65C85.6031 99.83 85.9681 100.08 86.2581 100.4C86.5481 100.72 86.7681 101.1 86.9181 101.54C87.0681 101.97 87.1431 102.44 87.1431 102.95C87.1431 103.15 87.1331 103.34 87.1131 103.52C87.0931 103.7 87.0731 103.835 87.0531 103.925H82.0431C82.1231 104.485 82.3631 104.89 82.7631 105.14C83.1731 105.38 83.6531 105.5 84.2031 105.5C84.5431 105.5 84.8631 105.46 85.1631 105.38C85.4731 105.29 85.7931 105.16 86.1231 104.99L86.8431 106.31C86.4231 106.58 85.9531 106.795 85.4331 106.955C84.9131 107.105 84.4031 107.18 83.9031 107.18C83.3231 107.18 82.7831 107.095 82.2831 106.925C81.7831 106.745 81.3481 106.49 80.9781 106.16C80.6081 105.82 80.3131 105.41 80.0931 104.93C79.8831 104.45 79.7781 103.9 79.7781 103.28ZM85.1481 102.47C85.1481 102.05 85.0331 101.71 84.8031 101.45C84.5731 101.19 84.2031 101.06 83.6931 101.06C83.2931 101.06 82.9381 101.175 82.6281 101.405C82.3181 101.635 82.1131 101.99 82.0131 102.47H85.1481ZM88.8773 96.485H93.2423V104.18C93.2423 104.41 93.2723 104.605 93.3323 104.765C93.4023 104.915 93.4923 105.04 93.6023 105.14C93.7223 105.23 93.8523 105.295 93.9923 105.335C94.1423 105.375 94.2923 105.395 94.4423 105.395C94.6123 105.395 94.7923 105.38 94.9823 105.35C95.1723 105.31 95.3823 105.245 95.6123 105.155L96.1073 106.775C95.9073 106.835 95.7223 106.89 95.5523 106.94C95.3823 106.99 95.2123 107.03 95.0423 107.06C94.8723 107.1 94.6923 107.13 94.5023 107.15C94.3123 107.17 94.1023 107.18 93.8723 107.18C92.9323 107.18 92.2223 106.905 91.7423 106.355C91.2723 105.795 91.0373 105.04 91.0373 104.09V98.225H88.8773V96.485ZM97.7664 103.28C97.7664 102.67 97.8714 102.125 98.0814 101.645C98.3014 101.165 98.5914 100.76 98.9514 100.43C99.3114 100.09 99.7214 99.83 100.181 99.65C100.651 99.47 101.136 99.38 101.636 99.38C102.206 99.38 102.711 99.47 103.151 99.65C103.591 99.83 103.956 100.08 104.246 100.4C104.536 100.72 104.756 101.1 104.906 101.54C105.056 101.97 105.131 102.44 105.131 102.95C105.131 103.15 105.121 103.34 105.101 103.52C105.081 103.7 105.061 103.835 105.041 103.925H100.031C100.111 104.485 100.351 104.89 100.751 105.14C101.161 105.38 101.641 105.5 102.191 105.5C102.531 105.5 102.851 105.46 103.151 105.38C103.461 105.29 103.781 105.16 104.111 104.99L104.831 106.31C104.411 106.58 103.941 106.795 103.421 106.955C102.901 107.105 102.391 107.18 101.891 107.18C101.311 107.18 100.771 107.095 100.271 106.925C99.7714 106.745 99.3364 106.49 98.9664 106.16C98.5964 105.82 98.3014 105.41 98.0814 104.93C97.8714 104.45 97.7664 103.9 97.7664 103.28ZM103.136 102.47C103.136 102.05 103.021 101.71 102.791 101.45C102.561 101.19 102.191 101.06 101.681 101.06C101.281 101.06 100.926 101.175 100.616 101.405C100.306 101.635 100.101 101.99 100.001 102.47H103.136ZM106.476 99.56H108.126L108.291 100.49H108.351C108.491 100.18 108.681 99.92 108.921 99.71C109.171 99.49 109.511 99.38 109.941 99.38C110.271 99.38 110.546 99.485 110.766 99.695C110.996 99.895 111.156 100.195 111.246 100.595C111.386 100.255 111.586 99.97 111.846 99.74C112.116 99.5 112.461 99.38 112.881 99.38C113.401 99.38 113.806 99.595 114.096 100.025C114.386 100.445 114.531 101.03 114.531 101.78V107H112.461V101.945C112.461 101.485 112.321 101.255 112.041 101.255C111.771 101.255 111.541 101.495 111.351 101.975V107H109.656V101.945C109.656 101.485 109.511 101.255 109.221 101.255C109.081 101.255 108.961 101.315 108.861 101.435C108.761 101.555 108.656 101.735 108.546 101.975V107H106.476V99.56ZM115.755 103.28C115.755 102.67 115.86 102.125 116.07 101.645C116.29 101.165 116.58 100.76 116.94 100.43C117.3 100.09 117.71 99.83 118.17 99.65C118.64 99.47 119.125 99.38 119.625 99.38C120.195 99.38 120.7 99.47 121.14 99.65C121.58 99.83 121.945 100.08 122.235 100.4C122.525 100.72 122.745 101.1 122.895 101.54C123.045 101.97 123.12 102.44 123.12 102.95C123.12 103.15 123.11 103.34 123.09 103.52C123.07 103.7 123.05 103.835 123.03 103.925H118.02C118.1 104.485 118.34 104.89 118.74 105.14C119.15 105.38 119.63 105.5 120.18 105.5C120.52 105.5 120.84 105.46 121.14 105.38C121.45 105.29 121.77 105.16 122.1 104.99L122.82 106.31C122.4 106.58 121.93 106.795 121.41 106.955C120.89 107.105 120.38 107.18 119.88 107.18C119.3 107.18 118.76 107.095 118.26 106.925C117.76 106.745 117.325 106.49 116.955 106.16C116.585 105.82 116.29 105.41 116.07 104.93C115.86 104.45 115.755 103.9 115.755 103.28ZM121.125 102.47C121.125 102.05 121.01 101.71 120.78 101.45C120.55 101.19 120.18 101.06 119.67 101.06C119.27 101.06 118.915 101.175 118.605 101.405C118.295 101.635 118.09 101.99 117.99 102.47H121.125ZM125.004 99.56H126.804L126.969 100.55H127.029C127.349 100.23 127.714 99.955 128.124 99.725C128.544 99.495 129.034 99.38 129.594 99.38C130.434 99.38 131.049 99.65 131.439 100.19C131.829 100.73 132.024 101.47 132.024 102.41V107H129.819V102.695C129.819 102.195 129.739 101.83 129.579 101.6C129.419 101.37 129.134 101.255 128.724 101.255C128.424 101.255 128.159 101.32 127.929 101.45C127.709 101.58 127.469 101.775 127.209 102.035V107H125.004V99.56ZM135.528 101.285H133.653V99.65L135.633 99.56L135.918 97.58H137.733V99.56H140.883V101.285H137.733V103.895C137.733 104.465 137.858 104.87 138.108 105.11C138.358 105.34 138.753 105.455 139.293 105.455C139.583 105.455 139.848 105.43 140.088 105.38C140.328 105.33 140.558 105.265 140.778 105.185L141.168 106.775C140.838 106.875 140.468 106.965 140.058 107.045C139.658 107.135 139.218 107.18 138.738 107.18C138.148 107.18 137.648 107.1 137.238 106.94C136.828 106.78 136.493 106.56 136.233 106.28C135.983 105.99 135.803 105.645 135.693 105.245C135.583 104.845 135.528 104.4 135.528 103.91V101.285ZM178.804 104.93C178.804 104.51 178.894 104.145 179.074 103.835C179.254 103.515 179.539 103.245 179.929 103.025C180.329 102.805 180.839 102.63 181.459 102.5C182.079 102.36 182.829 102.265 183.709 102.215C183.669 101.875 183.519 101.61 183.259 101.42C183.009 101.23 182.629 101.135 182.119 101.135C181.759 101.135 181.394 101.2 181.024 101.33C180.664 101.45 180.274 101.615 179.854 101.825L179.074 100.385C179.584 100.095 180.129 99.855 180.709 99.665C181.299 99.475 181.914 99.38 182.554 99.38C183.594 99.38 184.414 99.655 185.014 100.205C185.614 100.755 185.914 101.6 185.914 102.74V107H184.114L183.949 106.16H183.889C183.509 106.45 183.094 106.695 182.644 106.895C182.194 107.085 181.729 107.18 181.249 107.18C180.869 107.18 180.529 107.12 180.229 107C179.929 106.89 179.674 106.735 179.464 106.535C179.254 106.325 179.089 106.085 178.969 105.815C178.859 105.545 178.804 105.25 178.804 104.93ZM180.919 104.765C180.919 105.005 181.009 105.185 181.189 105.305C181.379 105.415 181.634 105.47 181.954 105.47C182.284 105.47 182.594 105.405 182.884 105.275C183.174 105.135 183.449 104.965 183.709 104.765V103.535C183.159 103.565 182.704 103.615 182.344 103.685C181.984 103.755 181.699 103.845 181.489 103.955C181.279 104.055 181.129 104.175 181.039 104.315C180.959 104.455 180.919 104.605 180.919 104.765ZM194.983 107.81V109.46H187.783V107.81H194.983ZM196.807 96.485H201.172V104.18C201.172 104.41 201.202 104.605 201.262 104.765C201.332 104.915 201.422 105.04 201.532 105.14C201.652 105.23 201.782 105.295 201.922 105.335C202.072 105.375 202.222 105.395 202.372 105.395C202.542 105.395 202.722 105.38 202.912 105.35C203.102 105.31 203.312 105.245 203.542 105.155L204.037 106.775C203.837 106.835 203.652 106.89 203.482 106.94C203.312 106.99 203.142 107.03 202.972 107.06C202.802 107.1 202.622 107.13 202.432 107.15C202.242 107.17 202.032 107.18 201.802 107.18C200.862 107.18 200.152 106.905 199.672 106.355C199.202 105.795 198.967 105.04 198.967 104.09V98.225H196.807V96.485ZM206.056 99.56H211.246V107H209.041V101.285H206.056V99.56ZM210.046 98.465C209.616 98.465 209.261 98.345 208.981 98.105C208.711 97.865 208.576 97.54 208.576 97.13C208.576 96.72 208.711 96.39 208.981 96.14C209.261 95.88 209.616 95.75 210.046 95.75C210.476 95.75 210.826 95.88 211.096 96.14C211.376 96.39 211.516 96.72 211.516 97.13C211.516 97.54 211.376 97.865 211.096 98.105C210.826 98.345 210.476 98.465 210.046 98.465ZM215.65 104.66C216.08 104.93 216.51 105.145 216.94 105.305C217.38 105.465 217.85 105.545 218.35 105.545C218.86 105.545 219.225 105.49 219.445 105.38C219.665 105.27 219.775 105.115 219.775 104.915C219.775 104.685 219.59 104.5 219.22 104.36C218.86 104.21 218.38 104.05 217.78 103.88C217.45 103.79 217.125 103.685 216.805 103.565C216.495 103.435 216.215 103.285 215.965 103.115C215.715 102.935 215.51 102.73 215.35 102.5C215.2 102.27 215.125 102.005 215.125 101.705C215.125 101.365 215.205 101.05 215.365 100.76C215.525 100.47 215.75 100.225 216.04 100.025C216.34 99.825 216.7 99.67 217.12 99.56C217.55 99.44 218.03 99.38 218.56 99.38C219.22 99.38 219.82 99.49 220.36 99.71C220.91 99.92 221.38 100.15 221.77 100.4L220.78 101.72C220.44 101.52 220.09 101.355 219.73 101.225C219.37 101.085 218.995 101.015 218.605 101.015C218.135 101.015 217.8 101.065 217.6 101.165C217.41 101.265 217.315 101.41 217.315 101.6C217.315 101.71 217.365 101.81 217.465 101.9C217.565 101.99 217.7 102.07 217.87 102.14C218.04 102.21 218.24 102.28 218.47 102.35C218.71 102.41 218.96 102.475 219.22 102.545C219.59 102.645 219.94 102.76 220.27 102.89C220.6 103.01 220.89 103.155 221.14 103.325C221.39 103.495 221.59 103.7 221.74 103.94C221.89 104.18 221.965 104.46 221.965 104.78C221.965 105.12 221.885 105.435 221.725 105.725C221.565 106.015 221.33 106.27 221.02 106.49C220.72 106.7 220.34 106.87 219.88 107C219.43 107.12 218.905 107.18 218.305 107.18C217.635 107.18 216.98 107.07 216.34 106.85C215.7 106.63 215.14 106.36 214.66 106.04L215.65 104.66ZM225.469 101.285H223.594V99.65L225.574 99.56L225.859 97.58H227.674V99.56H230.824V101.285H227.674V103.895C227.674 104.465 227.799 104.87 228.049 105.11C228.299 105.34 228.694 105.455 229.234 105.455C229.524 105.455 229.789 105.43 230.029 105.38C230.269 105.33 230.499 105.265 230.719 105.185L231.109 106.775C230.779 106.875 230.409 106.965 229.999 107.045C229.599 107.135 229.159 107.18 228.679 107.18C228.089 107.18 227.589 107.1 227.179 106.94C226.769 106.78 226.434 106.56 226.174 106.28C225.924 105.99 225.744 105.645 225.634 105.245C225.524 104.845 225.469 104.4 225.469 103.91V101.285ZM234.614 100.58C234.614 100.33 234.654 100.1 234.734 99.89C234.824 99.67 234.944 99.48 235.094 99.32C235.244 99.16 235.424 99.035 235.634 98.945C235.854 98.855 236.094 98.81 236.354 98.81C236.614 98.81 236.849 98.855 237.059 98.945C237.279 99.035 237.464 99.16 237.614 99.32C237.764 99.48 237.879 99.67 237.959 99.89C238.049 100.1 238.094 100.33 238.094 100.58C238.094 101.08 237.934 101.5 237.614 101.84C237.294 102.17 236.874 102.335 236.354 102.335C235.834 102.335 235.414 102.17 235.094 101.84C234.774 101.5 234.614 101.08 234.614 100.58ZM234.614 105.425C234.614 105.175 234.654 104.945 234.734 104.735C234.824 104.515 234.944 104.325 235.094 104.165C235.244 104.005 235.424 103.88 235.634 103.79C235.854 103.7 236.094 103.655 236.354 103.655C236.614 103.655 236.849 103.7 237.059 103.79C237.279 103.88 237.464 104.005 237.614 104.165C237.764 104.325 237.879 104.515 237.959 104.735C238.049 104.945 238.094 105.175 238.094 105.425C238.094 105.925 237.934 106.345 237.614 106.685C237.294 107.015 236.874 107.18 236.354 107.18C235.834 107.18 235.414 107.015 235.094 106.685C234.774 106.345 234.614 105.925 234.614 105.425ZM79.8681 123.93C79.8681 123.51 79.9581 123.145 80.1381 122.835C80.3181 122.515 80.6031 122.245 80.9931 122.025C81.3931 121.805 81.9031 121.63 82.5231 121.5C83.1431 121.36 83.8931 121.265 84.7731 121.215C84.7331 120.875 84.5831 120.61 84.3231 120.42C84.0731 120.23 83.6931 120.135 83.1831 120.135C82.8231 120.135 82.4581 120.2 82.0881 120.33C81.7281 120.45 81.3381 120.615 80.9181 120.825L80.1381 119.385C80.6481 119.095 81.1931 118.855 81.7731 118.665C82.3631 118.475 82.9781 118.38 83.6181 118.38C84.6581 118.38 85.4781 118.655 86.0781 119.205C86.6781 119.755 86.9781 120.6 86.9781 121.74V126H85.1781L85.0131 125.16H84.9531C84.5731 125.45 84.1581 125.695 83.7081 125.895C83.2581 126.085 82.7931 126.18 82.3131 126.18C81.9331 126.18 81.5931 126.12 81.2931 126C80.9931 125.89 80.7381 125.735 80.5281 125.535C80.3181 125.325 80.1531 125.085 80.0331 124.815C79.9231 124.545 79.8681 124.25 79.8681 123.93ZM81.9831 123.765C81.9831 124.005 82.0731 124.185 82.2531 124.305C82.4431 124.415 82.6981 124.47 83.0181 124.47C83.3481 124.47 83.6581 124.405 83.9481 124.275C84.2381 124.135 84.5131 123.965 84.7731 123.765V122.535C84.2231 122.565 83.7681 122.615 83.4081 122.685C83.0481 122.755 82.7631 122.845 82.5531 122.955C82.3431 123.055 82.1931 123.175 82.1031 123.315C82.0231 123.455 81.9831 123.605 81.9831 123.765ZM96.0473 126.81V128.46H88.8473V126.81H96.0473ZM98.7264 123.66C99.1564 123.93 99.5864 124.145 100.016 124.305C100.456 124.465 100.926 124.545 101.426 124.545C101.936 124.545 102.301 124.49 102.521 124.38C102.741 124.27 102.851 124.115 102.851 123.915C102.851 123.685 102.666 123.5 102.296 123.36C101.936 123.21 101.456 123.05 100.856 122.88C100.526 122.79 100.201 122.685 99.8814 122.565C99.5714 122.435 99.2914 122.285 99.0414 122.115C98.7914 121.935 98.5864 121.73 98.4264 121.5C98.2764 121.27 98.2014 121.005 98.2014 120.705C98.2014 120.365 98.2814 120.05 98.4414 119.76C98.6014 119.47 98.8264 119.225 99.1164 119.025C99.4164 118.825 99.7764 118.67 100.196 118.56C100.626 118.44 101.106 118.38 101.636 118.38C102.296 118.38 102.896 118.49 103.436 118.71C103.986 118.92 104.456 119.15 104.846 119.4L103.856 120.72C103.516 120.52 103.166 120.355 102.806 120.225C102.446 120.085 102.071 120.015 101.681 120.015C101.211 120.015 100.876 120.065 100.676 120.165C100.486 120.265 100.391 120.41 100.391 120.6C100.391 120.71 100.441 120.81 100.541 120.9C100.641 120.99 100.776 121.07 100.946 121.14C101.116 121.21 101.316 121.28 101.546 121.35C101.786 121.41 102.036 121.475 102.296 121.545C102.666 121.645 103.016 121.76 103.346 121.89C103.676 122.01 103.966 122.155 104.216 122.325C104.466 122.495 104.666 122.7 104.816 122.94C104.966 123.18 105.041 123.46 105.041 123.78C105.041 124.12 104.961 124.435 104.801 124.725C104.641 125.015 104.406 125.27 104.096 125.49C103.796 125.7 103.416 125.87 102.956 126C102.506 126.12 101.981 126.18 101.381 126.18C100.711 126.18 100.056 126.07 99.4164 125.85C98.7764 125.63 98.2164 125.36 97.7364 125.04L98.7264 123.66ZM113.811 126H112.011L111.846 124.935H111.786C111.456 125.315 111.091 125.62 110.691 125.85C110.291 126.07 109.821 126.18 109.281 126.18C108.431 126.18 107.816 125.91 107.436 125.37C107.056 124.83 106.866 124.09 106.866 123.15V118.56H109.071V122.865C109.071 123.365 109.146 123.73 109.296 123.96C109.446 124.19 109.731 124.305 110.151 124.305C110.431 124.305 110.676 124.245 110.886 124.125C111.106 124.005 111.346 123.78 111.606 123.45V118.56H113.811V126ZM115.47 118.56H117.12L117.285 119.49H117.345C117.485 119.18 117.675 118.92 117.915 118.71C118.165 118.49 118.505 118.38 118.935 118.38C119.265 118.38 119.54 118.485 119.76 118.695C119.99 118.895 120.15 119.195 120.24 119.595C120.38 119.255 120.58 118.97 120.84 118.74C121.11 118.5 121.455 118.38 121.875 118.38C122.395 118.38 122.8 118.595 123.09 119.025C123.38 119.445 123.525 120.03 123.525 120.78V126H121.455V120.945C121.455 120.485 121.315 120.255 121.035 120.255C120.765 120.255 120.535 120.495 120.345 120.975V126H118.65V120.945C118.65 120.485 118.505 120.255 118.215 120.255C118.075 120.255 117.955 120.315 117.855 120.435C117.755 120.555 117.65 120.735 117.54 120.975V126H115.47V118.56ZM136.608 121.83H133.968V120.27H136.608V117.51H138.228V120.27H140.868V121.83H138.228V124.59H136.608V121.83ZM142.962 118.53H149.862V120.09H142.962V118.53ZM142.962 121.995H149.862V123.555H142.962V121.995ZM160.725 122.28C160.725 121.67 160.83 121.125 161.04 120.645C161.26 120.165 161.55 119.76 161.91 119.43C162.27 119.09 162.68 118.83 163.14 118.65C163.61 118.47 164.095 118.38 164.595 118.38C165.165 118.38 165.67 118.47 166.11 118.65C166.55 118.83 166.915 119.08 167.205 119.4C167.495 119.72 167.715 120.1 167.865 120.54C168.015 120.97 168.09 121.44 168.09 121.95C168.09 122.15 168.08 122.34 168.06 122.52C168.04 122.7 168.02 122.835 168 122.925H162.99C163.07 123.485 163.31 123.89 163.71 124.14C164.12 124.38 164.6 124.5 165.15 124.5C165.49 124.5 165.81 124.46 166.11 124.38C166.42 124.29 166.74 124.16 167.07 123.99L167.79 125.31C167.37 125.58 166.9 125.795 166.38 125.955C165.86 126.105 165.35 126.18 164.85 126.18C164.27 126.18 163.73 126.095 163.23 125.925C162.73 125.745 162.295 125.49 161.925 125.16C161.555 124.82 161.26 124.41 161.04 123.93C160.83 123.45 160.725 122.9 160.725 122.28ZM166.095 121.47C166.095 121.05 165.98 120.71 165.75 120.45C165.52 120.19 165.15 120.06 164.64 120.06C164.24 120.06 163.885 120.175 163.575 120.405C163.265 120.635 163.06 120.99 162.96 121.47H166.095ZM169.825 115.485H174.19V123.18C174.19 123.41 174.22 123.605 174.28 123.765C174.35 123.915 174.44 124.04 174.55 124.14C174.67 124.23 174.8 124.295 174.94 124.335C175.09 124.375 175.24 124.395 175.39 124.395C175.56 124.395 175.74 124.38 175.93 124.35C176.12 124.31 176.33 124.245 176.56 124.155L177.055 125.775C176.855 125.835 176.67 125.89 176.5 125.94C176.33 125.99 176.16 126.03 175.99 126.06C175.82 126.1 175.64 126.13 175.45 126.15C175.26 126.17 175.05 126.18 174.82 126.18C173.88 126.18 173.17 125.905 172.69 125.355C172.22 124.795 171.985 124.04 171.985 123.09V117.225H169.825V115.485ZM178.714 122.28C178.714 121.67 178.819 121.125 179.029 120.645C179.249 120.165 179.539 119.76 179.899 119.43C180.259 119.09 180.669 118.83 181.129 118.65C181.599 118.47 182.084 118.38 182.584 118.38C183.154 118.38 183.659 118.47 184.099 118.65C184.539 118.83 184.904 119.08 185.194 119.4C185.484 119.72 185.704 120.1 185.854 120.54C186.004 120.97 186.079 121.44 186.079 121.95C186.079 122.15 186.069 122.34 186.049 122.52C186.029 122.7 186.009 122.835 185.989 122.925H180.979C181.059 123.485 181.299 123.89 181.699 124.14C182.109 124.38 182.589 124.5 183.139 124.5C183.479 124.5 183.799 124.46 184.099 124.38C184.409 124.29 184.729 124.16 185.059 123.99L185.779 125.31C185.359 125.58 184.889 125.795 184.369 125.955C183.849 126.105 183.339 126.18 182.839 126.18C182.259 126.18 181.719 126.095 181.219 125.925C180.719 125.745 180.284 125.49 179.914 125.16C179.544 124.82 179.249 124.41 179.029 123.93C178.819 123.45 178.714 122.9 178.714 122.28ZM184.084 121.47C184.084 121.05 183.969 120.71 183.739 120.45C183.509 120.19 183.139 120.06 182.629 120.06C182.229 120.06 181.874 120.175 181.564 120.405C181.254 120.635 181.049 120.99 180.949 121.47H184.084ZM187.423 118.56H189.073L189.238 119.49H189.298C189.438 119.18 189.628 118.92 189.868 118.71C190.118 118.49 190.458 118.38 190.888 118.38C191.218 118.38 191.493 118.485 191.713 118.695C191.943 118.895 192.103 119.195 192.193 119.595C192.333 119.255 192.533 118.97 192.793 118.74C193.063 118.5 193.408 118.38 193.828 118.38C194.348 118.38 194.753 118.595 195.043 119.025C195.333 119.445 195.478 120.03 195.478 120.78V126H193.408V120.945C193.408 120.485 193.268 120.255 192.988 120.255C192.718 120.255 192.488 120.495 192.298 120.975V126H190.603V120.945C190.603 120.485 190.458 120.255 190.168 120.255C190.028 120.255 189.908 120.315 189.808 120.435C189.708 120.555 189.603 120.735 189.493 120.975V126H187.423V118.56ZM196.702 122.28C196.702 121.67 196.807 121.125 197.017 120.645C197.237 120.165 197.527 119.76 197.887 119.43C198.247 119.09 198.657 118.83 199.117 118.65C199.587 118.47 200.072 118.38 200.572 118.38C201.142 118.38 201.647 118.47 202.087 118.65C202.527 118.83 202.892 119.08 203.182 119.4C203.472 119.72 203.692 120.1 203.842 120.54C203.992 120.97 204.067 121.44 204.067 121.95C204.067 122.15 204.057 122.34 204.037 122.52C204.017 122.7 203.997 122.835 203.977 122.925H198.967C199.047 123.485 199.287 123.89 199.687 124.14C200.097 124.38 200.577 124.5 201.127 124.5C201.467 124.5 201.787 124.46 202.087 124.38C202.397 124.29 202.717 124.16 203.047 123.99L203.767 125.31C203.347 125.58 202.877 125.795 202.357 125.955C201.837 126.105 201.327 126.18 200.827 126.18C200.247 126.18 199.707 126.095 199.207 125.925C198.707 125.745 198.272 125.49 197.902 125.16C197.532 124.82 197.237 124.41 197.017 123.93C196.807 123.45 196.702 122.9 196.702 122.28ZM202.072 121.47C202.072 121.05 201.957 120.71 201.727 120.45C201.497 120.19 201.127 120.06 200.617 120.06C200.217 120.06 199.862 120.175 199.552 120.405C199.242 120.635 199.037 120.99 198.937 121.47H202.072ZM205.951 118.56H207.751L207.916 119.55H207.976C208.296 119.23 208.661 118.955 209.071 118.725C209.491 118.495 209.981 118.38 210.541 118.38C211.381 118.38 211.996 118.65 212.386 119.19C212.776 119.73 212.971 120.47 212.971 121.41V126H210.766V121.695C210.766 121.195 210.686 120.83 210.526 120.6C210.366 120.37 210.081 120.255 209.671 120.255C209.371 120.255 209.106 120.32 208.876 120.45C208.656 120.58 208.416 120.775 208.156 121.035V126H205.951V118.56ZM216.475 120.285H214.6V118.65L216.58 118.56L216.865 116.58H218.68V118.56H221.83V120.285H218.68V122.895C218.68 123.465 218.805 123.87 219.055 124.11C219.305 124.34 219.7 124.455 220.24 124.455C220.53 124.455 220.795 124.43 221.035 124.38C221.275 124.33 221.505 124.265 221.725 124.185L222.115 125.775C221.785 125.875 221.415 125.965 221.005 126.045C220.605 126.135 220.165 126.18 219.685 126.18C219.095 126.18 218.595 126.1 218.185 125.94C217.775 125.78 217.44 125.56 217.18 125.28C216.93 124.99 216.75 124.645 216.64 124.245C216.53 123.845 216.475 123.4 216.475 122.91V120.285ZM106.851 142.93C106.851 142.51 106.941 142.145 107.121 141.835C107.301 141.515 107.586 141.245 107.976 141.025C108.376 140.805 108.886 140.63 109.506 140.5C110.126 140.36 110.876 140.265 111.756 140.215C111.716 139.875 111.566 139.61 111.306 139.42C111.056 139.23 110.676 139.135 110.166 139.135C109.806 139.135 109.441 139.2 109.071 139.33C108.711 139.45 108.321 139.615 107.901 139.825L107.121 138.385C107.631 138.095 108.176 137.855 108.756 137.665C109.346 137.475 109.961 137.38 110.601 137.38C111.641 137.38 112.461 137.655 113.061 138.205C113.661 138.755 113.961 139.6 113.961 140.74V145H112.161L111.996 144.16H111.936C111.556 144.45 111.141 144.695 110.691 144.895C110.241 145.085 109.776 145.18 109.296 145.18C108.916 145.18 108.576 145.12 108.276 145C107.976 144.89 107.721 144.735 107.511 144.535C107.301 144.325 107.136 144.085 107.016 143.815C106.906 143.545 106.851 143.25 106.851 142.93ZM108.966 142.765C108.966 143.005 109.056 143.185 109.236 143.305C109.426 143.415 109.681 143.47 110.001 143.47C110.331 143.47 110.641 143.405 110.931 143.275C111.221 143.135 111.496 142.965 111.756 142.765V141.535C111.206 141.565 110.751 141.615 110.391 141.685C110.031 141.755 109.746 141.845 109.536 141.955C109.326 142.055 109.176 142.175 109.086 142.315C109.006 142.455 108.966 142.605 108.966 142.765ZM123.03 145.81V147.46H115.83V145.81H123.03ZM125.709 142.66C126.139 142.93 126.569 143.145 126.999 143.305C127.439 143.465 127.909 143.545 128.409 143.545C128.919 143.545 129.284 143.49 129.504 143.38C129.724 143.27 129.834 143.115 129.834 142.915C129.834 142.685 129.649 142.5 129.279 142.36C128.919 142.21 128.439 142.05 127.839 141.88C127.509 141.79 127.184 141.685 126.864 141.565C126.554 141.435 126.274 141.285 126.024 141.115C125.774 140.935 125.569 140.73 125.409 140.5C125.259 140.27 125.184 140.005 125.184 139.705C125.184 139.365 125.264 139.05 125.424 138.76C125.584 138.47 125.809 138.225 126.099 138.025C126.399 137.825 126.759 137.67 127.179 137.56C127.609 137.44 128.089 137.38 128.619 137.38C129.279 137.38 129.879 137.49 130.419 137.71C130.969 137.92 131.439 138.15 131.829 138.4L130.839 139.72C130.499 139.52 130.149 139.355 129.789 139.225C129.429 139.085 129.054 139.015 128.664 139.015C128.194 139.015 127.859 139.065 127.659 139.165C127.469 139.265 127.374 139.41 127.374 139.6C127.374 139.71 127.424 139.81 127.524 139.9C127.624 139.99 127.759 140.07 127.929 140.14C128.099 140.21 128.299 140.28 128.529 140.35C128.769 140.41 129.019 140.475 129.279 140.545C129.649 140.645 129.999 140.76 130.329 140.89C130.659 141.01 130.949 141.155 131.199 141.325C131.449 141.495 131.649 141.7 131.799 141.94C131.949 142.18 132.024 142.46 132.024 142.78C132.024 143.12 131.944 143.435 131.784 143.725C131.624 144.015 131.389 144.27 131.079 144.49C130.779 144.7 130.399 144.87 129.939 145C129.489 145.12 128.964 145.18 128.364 145.18C127.694 145.18 127.039 145.07 126.399 144.85C125.759 144.63 125.199 144.36 124.719 144.04L125.709 142.66ZM140.793 145H138.993L138.828 143.935H138.768C138.438 144.315 138.073 144.62 137.673 144.85C137.273 145.07 136.803 145.18 136.263 145.18C135.413 145.18 134.798 144.91 134.418 144.37C134.038 143.83 133.848 143.09 133.848 142.15V137.56H136.053V141.865C136.053 142.365 136.128 142.73 136.278 142.96C136.428 143.19 136.713 143.305 137.133 143.305C137.413 143.305 137.658 143.245 137.868 143.125C138.088 143.005 138.328 142.78 138.588 142.45V137.56H140.793V145ZM142.452 137.56H144.102L144.267 138.49H144.327C144.467 138.18 144.657 137.92 144.897 137.71C145.147 137.49 145.487 137.38 145.917 137.38C146.247 137.38 146.522 137.485 146.742 137.695C146.972 137.895 147.132 138.195 147.222 138.595C147.362 138.255 147.562 137.97 147.822 137.74C148.092 137.5 148.437 137.38 148.857 137.38C149.377 137.38 149.782 137.595 150.072 138.025C150.362 138.445 150.507 139.03 150.507 139.78V145H148.437V139.945C148.437 139.485 148.297 139.255 148.017 139.255C147.747 139.255 147.517 139.495 147.327 139.975V145H145.632V139.945C145.632 139.485 145.487 139.255 145.197 139.255C145.057 139.255 144.937 139.315 144.837 139.435C144.737 139.555 144.632 139.735 144.522 139.975V145H142.452V137.56ZM7.93 172.485H12.295V180.18C12.295 180.41 12.325 180.605 12.385 180.765C12.455 180.915 12.545 181.04 12.655 181.14C12.775 181.23 12.905 181.295 13.045 181.335C13.195 181.375 13.345 181.395 13.495 181.395C13.665 181.395 13.845 181.38 14.035 181.35C14.225 181.31 14.435 181.245 14.665 181.155L15.16 182.775C14.96 182.835 14.775 182.89 14.605 182.94C14.435 182.99 14.265 183.03 14.095 183.06C13.925 183.1 13.745 183.13 13.555 183.15C13.365 183.17 13.155 183.18 12.925 183.18C11.985 183.18 11.275 182.905 10.795 182.355C10.325 181.795 10.09 181.04 10.09 180.09V174.225H7.93V172.485ZM17.1791 175.56H22.3691V183H20.1641V177.285H17.1791V175.56ZM21.1691 174.465C20.7391 174.465 20.3841 174.345 20.1041 174.105C19.8341 173.865 19.6991 173.54 19.6991 173.13C19.6991 172.72 19.8341 172.39 20.1041 172.14C20.3841 171.88 20.7391 171.75 21.1691 171.75C21.5991 171.75 21.9491 171.88 22.2191 172.14C22.4991 172.39 22.6391 172.72 22.6391 173.13C22.6391 173.54 22.4991 173.865 22.2191 174.105C21.9491 174.345 21.5991 174.465 21.1691 174.465ZM26.7733 180.66C27.2033 180.93 27.6333 181.145 28.0633 181.305C28.5033 181.465 28.9733 181.545 29.4733 181.545C29.9833 181.545 30.3483 181.49 30.5683 181.38C30.7883 181.27 30.8983 181.115 30.8983 180.915C30.8983 180.685 30.7133 180.5 30.3433 180.36C29.9833 180.21 29.5033 180.05 28.9033 179.88C28.5733 179.79 28.2483 179.685 27.9283 179.565C27.6183 179.435 27.3383 179.285 27.0883 179.115C26.8383 178.935 26.6333 178.73 26.4733 178.5C26.3233 178.27 26.2483 178.005 26.2483 177.705C26.2483 177.365 26.3283 177.05 26.4883 176.76C26.6483 176.47 26.8733 176.225 27.1633 176.025C27.4633 175.825 27.8233 175.67 28.2433 175.56C28.6733 175.44 29.1533 175.38 29.6833 175.38C30.3433 175.38 30.9433 175.49 31.4833 175.71C32.0333 175.92 32.5033 176.15 32.8933 176.4L31.9033 177.72C31.5633 177.52 31.2133 177.355 30.8533 177.225C30.4933 177.085 30.1183 177.015 29.7283 177.015C29.2583 177.015 28.9233 177.065 28.7233 177.165C28.5333 177.265 28.4383 177.41 28.4383 177.6C28.4383 177.71 28.4883 177.81 28.5883 177.9C28.6883 177.99 28.8233 178.07 28.9933 178.14C29.1633 178.21 29.3633 178.28 29.5933 178.35C29.8333 178.41 30.0833 178.475 30.3433 178.545C30.7133 178.645 31.0633 178.76 31.3933 178.89C31.7233 179.01 32.0133 179.155 32.2633 179.325C32.5133 179.495 32.7133 179.7 32.8633 179.94C33.0133 180.18 33.0883 180.46 33.0883 180.78C33.0883 181.12 33.0083 181.435 32.8483 181.725C32.6883 182.015 32.4533 182.27 32.1433 182.49C31.8433 182.7 31.4633 182.87 31.0033 183C30.5533 183.12 30.0283 183.18 29.4283 183.18C28.7583 183.18 28.1033 183.07 27.4633 182.85C26.8233 182.63 26.2633 182.36 25.7833 182.04L26.7733 180.66ZM36.5924 177.285H34.7174V175.65L36.6974 175.56L36.9824 173.58H38.7974V175.56H41.9474V177.285H38.7974V179.895C38.7974 180.465 38.9224 180.87 39.1724 181.11C39.4224 181.34 39.8174 181.455 40.3574 181.455C40.6474 181.455 40.9124 181.43 41.1524 181.38C41.3924 181.33 41.6224 181.265 41.8424 181.185L42.2324 182.775C41.9024 182.875 41.5324 182.965 41.1224 183.045C40.7224 183.135 40.2824 183.18 39.8024 183.18C39.2124 183.18 38.7124 183.1 38.3024 182.94C37.8924 182.78 37.5574 182.56 37.2974 182.28C37.0474 181.99 36.8674 181.645 36.7574 181.245C36.6474 180.845 36.5924 180.4 36.5924 179.91V177.285ZM51.0766 183.81V185.46H43.8766V183.81H51.0766ZM60.0257 181.215V183H53.2007V181.215H55.6607V175.71H53.6957V174.345C54.2557 174.245 54.7307 174.125 55.1207 173.985C55.5207 173.845 55.8957 173.675 56.2457 173.475H57.8657V181.215H60.0257ZM71.009 175.53H77.909V177.09H71.009V175.53ZM71.009 178.995H77.909V180.555H71.009V178.995ZM90.9623 172.38H95.3873V173.55H92.6423V184.11H95.3873V185.28H90.9623V172.38ZM108.666 184.965C109.966 184.515 110.616 183.805 110.616 182.835C110.576 182.845 110.521 182.85 110.451 182.85C110.241 182.85 110.036 182.82 109.836 182.76C109.646 182.69 109.476 182.59 109.326 182.46C109.176 182.33 109.056 182.17 108.966 181.98C108.876 181.79 108.831 181.57 108.831 181.32C108.831 180.85 108.991 180.475 109.311 180.195C109.641 179.915 110.041 179.775 110.511 179.775C111.131 179.775 111.596 180.005 111.906 180.465C112.216 180.915 112.371 181.545 112.371 182.355C112.371 183.315 112.106 184.125 111.576 184.785C111.046 185.445 110.261 185.935 109.221 186.255L108.666 184.965ZM144.642 184.965C145.942 184.515 146.592 183.805 146.592 182.835C146.552 182.845 146.497 182.85 146.427 182.85C146.217 182.85 146.012 182.82 145.812 182.76C145.622 182.69 145.452 182.59 145.302 182.46C145.152 182.33 145.032 182.17 144.942 181.98C144.852 181.79 144.807 181.57 144.807 181.32C144.807 180.85 144.967 180.475 145.287 180.195C145.617 179.915 146.017 179.775 146.487 179.775C147.107 179.775 147.572 180.005 147.882 180.465C148.192 180.915 148.347 181.545 148.347 182.355C148.347 183.315 148.082 184.125 147.552 184.785C147.022 185.445 146.237 185.935 145.197 186.255L144.642 184.965ZM182.194 184.11V173.55H179.464V172.38H183.889V185.28H179.464V184.11H182.194ZM39.8624 204.685C38.8824 203.815 38.1074 202.81 37.5374 201.67C36.9774 200.53 36.6974 199.25 36.6974 197.83C36.6974 196.41 36.9774 195.13 37.5374 193.99C38.1074 192.85 38.8824 191.845 39.8624 190.975L41.0924 191.95C40.2024 192.82 39.5524 193.725 39.1424 194.665C38.7424 195.595 38.5424 196.65 38.5424 197.83C38.5424 198.42 38.5924 198.98 38.6924 199.51C38.7924 200.03 38.9424 200.53 39.1424 201.01C39.3524 201.49 39.6174 201.95 39.9374 202.39C40.2574 202.84 40.6424 203.28 41.0924 203.71L39.8624 204.685ZM43.9066 191.485H48.2716V199.18C48.2716 199.41 48.3016 199.605 48.3616 199.765C48.4316 199.915 48.5216 200.04 48.6316 200.14C48.7516 200.23 48.8816 200.295 49.0216 200.335C49.1716 200.375 49.3216 200.395 49.4716 200.395C49.6416 200.395 49.8216 200.38 50.0116 200.35C50.2016 200.31 50.4116 200.245 50.6416 200.155L51.1366 201.775C50.9366 201.835 50.7516 201.89 50.5816 201.94C50.4116 201.99 50.2416 202.03 50.0716 202.06C49.9016 202.1 49.7216 202.13 49.5316 202.15C49.3416 202.17 49.1316 202.18 48.9016 202.18C47.9616 202.18 47.2516 201.905 46.7716 201.355C46.3016 200.795 46.0666 200.04 46.0666 199.09V193.225H43.9066V191.485ZM53.1557 194.56H58.3457V202H56.1407V196.285H53.1557V194.56ZM57.1457 193.465C56.7157 193.465 56.3607 193.345 56.0807 193.105C55.8107 192.865 55.6757 192.54 55.6757 192.13C55.6757 191.72 55.8107 191.39 56.0807 191.14C56.3607 190.88 56.7157 190.75 57.1457 190.75C57.5757 190.75 57.9257 190.88 58.1957 191.14C58.4757 191.39 58.6157 191.72 58.6157 192.13C58.6157 192.54 58.4757 192.865 58.1957 193.105C57.9257 193.345 57.5757 193.465 57.1457 193.465ZM62.7498 199.66C63.1798 199.93 63.6098 200.145 64.0398 200.305C64.4798 200.465 64.9498 200.545 65.4498 200.545C65.9598 200.545 66.3248 200.49 66.5448 200.38C66.7648 200.27 66.8748 200.115 66.8748 199.915C66.8748 199.685 66.6898 199.5 66.3198 199.36C65.9598 199.21 65.4798 199.05 64.8798 198.88C64.5498 198.79 64.2248 198.685 63.9048 198.565C63.5948 198.435 63.3148 198.285 63.0648 198.115C62.8148 197.935 62.6098 197.73 62.4498 197.5C62.2998 197.27 62.2248 197.005 62.2248 196.705C62.2248 196.365 62.3048 196.05 62.4648 195.76C62.6248 195.47 62.8498 195.225 63.1398 195.025C63.4398 194.825 63.7998 194.67 64.2198 194.56C64.6498 194.44 65.1298 194.38 65.6598 194.38C66.3198 194.38 66.9198 194.49 67.4598 194.71C68.0098 194.92 68.4798 195.15 68.8698 195.4L67.8798 196.72C67.5398 196.52 67.1898 196.355 66.8298 196.225C66.4698 196.085 66.0948 196.015 65.7048 196.015C65.2348 196.015 64.8998 196.065 64.6998 196.165C64.5098 196.265 64.4148 196.41 64.4148 196.6C64.4148 196.71 64.4648 196.81 64.5648 196.9C64.6648 196.99 64.7998 197.07 64.9698 197.14C65.1398 197.21 65.3398 197.28 65.5698 197.35C65.8098 197.41 66.0598 197.475 66.3198 197.545C66.6898 197.645 67.0398 197.76 67.3698 197.89C67.6998 198.01 67.9898 198.155 68.2398 198.325C68.4898 198.495 68.6898 198.7 68.8398 198.94C68.9898 199.18 69.0648 199.46 69.0648 199.78C69.0648 200.12 68.9848 200.435 68.8248 200.725C68.6648 201.015 68.4298 201.27 68.1198 201.49C67.8198 201.7 67.4398 201.87 66.9798 202C66.5298 202.12 66.0048 202.18 65.4048 202.18C64.7348 202.18 64.0798 202.07 63.4398 201.85C62.7998 201.63 62.2398 201.36 61.7598 201.04L62.7498 199.66ZM72.569 196.285H70.694V194.65L72.674 194.56L72.959 192.58H74.774V194.56H77.924V196.285H74.774V198.895C74.774 199.465 74.899 199.87 75.149 200.11C75.399 200.34 75.794 200.455 76.334 200.455C76.624 200.455 76.889 200.43 77.129 200.38C77.369 200.33 77.599 200.265 77.819 200.185L78.209 201.775C77.879 201.875 77.509 201.965 77.099 202.045C76.699 202.135 76.259 202.18 75.779 202.18C75.189 202.18 74.689 202.1 74.279 201.94C73.869 201.78 73.534 201.56 73.274 201.28C73.024 200.99 72.844 200.645 72.734 200.245C72.624 199.845 72.569 199.4 72.569 198.91V196.285ZM87.0531 202.81V204.46H79.8531V202.81H87.0531ZM96.0023 200.215V202H89.1773V200.215H91.6373V194.71H89.6723V193.345C90.2323 193.245 90.7073 193.125 91.0973 192.985C91.4973 192.845 91.8723 192.675 92.2223 192.475H93.8423V200.215H96.0023ZM98.8314 203.71C99.2814 203.28 99.6664 202.84 99.9864 202.39C100.306 201.95 100.566 201.49 100.766 201.01C100.976 200.53 101.131 200.03 101.231 199.51C101.331 198.98 101.381 198.42 101.381 197.83C101.381 196.65 101.176 195.595 100.766 194.665C100.366 193.725 99.7214 192.82 98.8314 191.95L100.061 190.975C101.041 191.845 101.811 192.85 102.371 193.99C102.941 195.13 103.226 196.41 103.226 197.83C103.226 199.25 102.941 200.53 102.371 201.67C101.811 202.81 101.041 203.815 100.061 204.685L98.8314 203.71Z" fill="white"/>
<path d="M44.7616 67.66C45.1916 67.93 45.6216 68.145 46.0516 68.305C46.4916 68.465 46.9616 68.545 47.4616 68.545C47.9716 68.545 48.3366 68.49 48.5566 68.38C48.7766 68.27 48.8866 68.115 48.8866 67.915C48.8866 67.685 48.7016 67.5 48.3316 67.36C47.9716 67.21 47.4916 67.05 46.8916 66.88C46.5616 66.79 46.2366 66.685 45.9166 66.565C45.6066 66.435 45.3266 66.285 45.0766 66.115C44.8266 65.935 44.6216 65.73 44.4616 65.5C44.3116 65.27 44.2366 65.005 44.2366 64.705C44.2366 64.365 44.3166 64.05 44.4766 63.76C44.6366 63.47 44.8616 63.225 45.1516 63.025C45.4516 62.825 45.8116 62.67 46.2316 62.56C46.6616 62.44 47.1416 62.38 47.6716 62.38C48.3316 62.38 48.9316 62.49 49.4716 62.71C50.0216 62.92 50.4916 63.15 50.8816 63.4L49.8916 64.72C49.5516 64.52 49.2016 64.355 48.8416 64.225C48.4816 64.085 48.1066 64.015 47.7166 64.015C47.2466 64.015 46.9116 64.065 46.7116 64.165C46.5216 64.265 46.4266 64.41 46.4266 64.6C46.4266 64.71 46.4766 64.81 46.5766 64.9C46.6766 64.99 46.8116 65.07 46.9816 65.14C47.1516 65.21 47.3516 65.28 47.5816 65.35C47.8216 65.41 48.0716 65.475 48.3316 65.545C48.7016 65.645 49.0516 65.76 49.3816 65.89C49.7116 66.01 50.0016 66.155 50.2516 66.325C50.5016 66.495 50.7016 66.7 50.8516 66.94C51.0016 67.18 51.0766 67.46 51.0766 67.78C51.0766 68.12 50.9966 68.435 50.8366 68.725C50.6766 69.015 50.4416 69.27 50.1316 69.49C49.8316 69.7 49.4516 69.87 48.9916 70C48.5416 70.12 48.0166 70.18 47.4166 70.18C46.7466 70.18 46.0916 70.07 45.4516 69.85C44.8116 69.63 44.2516 69.36 43.7716 69.04L44.7616 67.66ZM59.8457 70H58.0457L57.8807 68.935H57.8207C57.4907 69.315 57.1257 69.62 56.7257 69.85C56.3257 70.07 55.8557 70.18 55.3157 70.18C54.4657 70.18 53.8507 69.91 53.4707 69.37C53.0907 68.83 52.9007 68.09 52.9007 67.15V62.56H55.1057V66.865C55.1057 67.365 55.1807 67.73 55.3307 67.96C55.4807 68.19 55.7657 68.305 56.1857 68.305C56.4657 68.305 56.7107 68.245 56.9207 68.125C57.1407 68.005 57.3807 67.78 57.6407 67.45V62.56H59.8457V70ZM61.5048 62.56H63.1548L63.3198 63.49H63.3798C63.5198 63.18 63.7098 62.92 63.9498 62.71C64.1998 62.49 64.5398 62.38 64.9698 62.38C65.2998 62.38 65.5748 62.485 65.7948 62.695C66.0248 62.895 66.1848 63.195 66.2748 63.595C66.4148 63.255 66.6148 62.97 66.8748 62.74C67.1448 62.5 67.4898 62.38 67.9098 62.38C68.4298 62.38 68.8348 62.595 69.1248 63.025C69.4148 63.445 69.5598 64.03 69.5598 64.78V70H67.4898V64.945C67.4898 64.485 67.3498 64.255 67.0698 64.255C66.7998 64.255 66.5698 64.495 66.3798 64.975V70H64.6848V64.945C64.6848 64.485 64.5398 64.255 64.2498 64.255C64.1098 64.255 63.9898 64.315 63.8898 64.435C63.7898 64.555 63.6848 64.735 63.5748 64.975V70H61.5048V62.56ZM8.785 199.66C9.215 199.93 9.645 200.145 10.075 200.305C10.515 200.465 10.985 200.545 11.485 200.545C11.995 200.545 12.36 200.49 12.58 200.38C12.8 200.27 12.91 200.115 12.91 199.915C12.91 199.685 12.725 199.5 12.355 199.36C11.995 199.21 11.515 199.05 10.915 198.88C10.585 198.79 10.26 198.685 9.94 198.565C9.63 198.435 9.35 198.285 9.1 198.115C8.85 197.935 8.645 197.73 8.485 197.5C8.335 197.27 8.26 197.005 8.26 196.705C8.26 196.365 8.34 196.05 8.5 195.76C8.66 195.47 8.885 195.225 9.175 195.025C9.475 194.825 9.835 194.67 10.255 194.56C10.685 194.44 11.165 194.38 11.695 194.38C12.355 194.38 12.955 194.49 13.495 194.71C14.045 194.92 14.515 195.15 14.905 195.4L13.915 196.72C13.575 196.52 13.225 196.355 12.865 196.225C12.505 196.085 12.13 196.015 11.74 196.015C11.27 196.015 10.935 196.065 10.735 196.165C10.545 196.265 10.45 196.41 10.45 196.6C10.45 196.71 10.5 196.81 10.6 196.9C10.7 196.99 10.835 197.07 11.005 197.14C11.175 197.21 11.375 197.28 11.605 197.35C11.845 197.41 12.095 197.475 12.355 197.545C12.725 197.645 13.075 197.76 13.405 197.89C13.735 198.01 14.025 198.155 14.275 198.325C14.525 198.495 14.725 198.7 14.875 198.94C15.025 199.18 15.1 199.46 15.1 199.78C15.1 200.12 15.02 200.435 14.86 200.725C14.7 201.015 14.465 201.27 14.155 201.49C13.855 201.7 13.475 201.87 13.015 202C12.565 202.12 12.04 202.18 11.44 202.18C10.77 202.18 10.115 202.07 9.475 201.85C8.835 201.63 8.275 201.36 7.795 201.04L8.785 199.66ZM23.8691 202H22.0691L21.9041 200.935H21.8441C21.5141 201.315 21.1491 201.62 20.7491 201.85C20.3491 202.07 19.8791 202.18 19.3391 202.18C18.4891 202.18 17.8741 201.91 17.4941 201.37C17.1141 200.83 16.9241 200.09 16.9241 199.15V194.56H19.1291V198.865C19.1291 199.365 19.2041 199.73 19.3541 199.96C19.5041 200.19 19.7891 200.305 20.2091 200.305C20.4891 200.305 20.7341 200.245 20.9441 200.125C21.1641 200.005 21.4041 199.78 21.6641 199.45V194.56H23.8691V202ZM25.5283 194.56H27.1783L27.3433 195.49H27.4033C27.5433 195.18 27.7333 194.92 27.9733 194.71C28.2233 194.49 28.5633 194.38 28.9933 194.38C29.3233 194.38 29.5983 194.485 29.8183 194.695C30.0483 194.895 30.2083 195.195 30.2983 195.595C30.4383 195.255 30.6383 194.97 30.8983 194.74C31.1683 194.5 31.5133 194.38 31.9333 194.38C32.4533 194.38 32.8583 194.595 33.1483 195.025C33.4383 195.445 33.5833 196.03 33.5833 196.78V202H31.5133V196.945C31.5133 196.485 31.3733 196.255 31.0933 196.255C30.8233 196.255 30.5933 196.495 30.4033 196.975V202H28.7083V196.945C28.7083 196.485 28.5633 196.255 28.2733 196.255C28.1333 196.255 28.0133 196.315 27.9133 196.435C27.8133 196.555 27.7083 196.735 27.5983 196.975V202H25.5283V194.56Z" fill="#56B4E9"/>
<path d="M119.43 88.18C118.88 88.18 118.38 88.075 117.93 87.865C117.48 87.645 117.095 87.325 116.775 86.905C116.455 86.485 116.205 85.965 116.025 85.345C115.855 84.725 115.77 84.01 115.77 83.2C115.77 82.39 115.855 81.68 116.025 81.07C116.205 80.46 116.455 79.95 116.775 79.54C117.095 79.12 117.48 78.81 117.93 78.61C118.38 78.4 118.88 78.295 119.43 78.295C119.98 78.295 120.48 78.4 120.93 78.61C121.38 78.81 121.765 79.12 122.085 79.54C122.405 79.95 122.65 80.46 122.82 81.07C123 81.68 123.09 82.39 123.09 83.2C123.09 84.01 123 84.725 122.82 85.345C122.65 85.965 122.405 86.485 122.085 86.905C121.765 87.325 121.38 87.645 120.93 87.865C120.48 88.075 119.98 88.18 119.43 88.18ZM119.43 80.005C119.19 80.005 118.965 80.055 118.755 80.155C118.555 80.255 118.38 80.43 118.23 80.68C118.08 80.92 117.96 81.245 117.87 81.655C117.78 82.065 117.735 82.58 117.735 83.2C117.735 83.82 117.78 84.34 117.87 84.76C117.96 85.17 118.08 85.505 118.23 85.765C118.38 86.015 118.555 86.195 118.755 86.305C118.965 86.415 119.19 86.47 119.43 86.47C119.67 86.47 119.89 86.415 120.09 86.305C120.3 86.195 120.48 86.015 120.63 85.765C120.78 85.505 120.9 85.17 120.99 84.76C121.08 84.34 121.125 83.82 121.125 83.2C121.125 82.58 121.08 82.065 120.99 81.655C120.9 81.245 120.78 80.92 120.63 80.68C120.48 80.43 120.3 80.255 120.09 80.155C119.89 80.055 119.67 80.005 119.43 80.005ZM119.43 84.31C119.11 84.31 118.84 84.21 118.62 84.01C118.41 83.8 118.305 83.52 118.305 83.17C118.305 82.82 118.41 82.545 118.62 82.345C118.84 82.135 119.11 82.03 119.43 82.03C119.75 82.03 120.015 82.135 120.225 82.345C120.445 82.545 120.555 82.82 120.555 83.17C120.555 83.52 120.445 83.8 120.225 84.01C120.015 84.21 119.75 84.31 119.43 84.31ZM98.6214 180.45C98.9414 180.71 99.2814 180.935 99.6414 181.125C100.011 181.305 100.421 181.395 100.871 181.395C101.411 181.395 101.851 181.27 102.191 181.02C102.541 180.77 102.716 180.4 102.716 179.91C102.716 179.43 102.551 179.065 102.221 178.815C101.901 178.565 101.486 178.44 100.976 178.44C100.816 178.44 100.671 178.45 100.541 178.47C100.421 178.48 100.301 178.505 100.181 178.545C100.061 178.585 99.9364 178.635 99.8064 178.695C99.6764 178.755 99.5314 178.83 99.3714 178.92L98.3964 178.29L98.6514 173.475H104.486V175.335H100.556L100.391 177.12C100.611 177.04 100.816 176.985 101.006 176.955C101.196 176.915 101.411 176.895 101.651 176.895C102.091 176.895 102.506 176.955 102.896 177.075C103.296 177.195 103.646 177.375 103.946 177.615C104.246 177.855 104.481 178.16 104.651 178.53C104.831 178.9 104.921 179.34 104.921 179.85C104.921 180.38 104.816 180.85 104.606 181.26C104.406 181.67 104.131 182.02 103.781 182.31C103.441 182.59 103.046 182.805 102.596 182.955C102.146 183.105 101.676 183.18 101.186 183.18C100.356 183.18 99.6514 183.055 99.0714 182.805C98.5014 182.545 98.0214 182.225 97.6314 181.845L98.6214 180.45ZM131.979 181.215V183H125.154V181.215H127.614V175.71H125.649V174.345C126.209 174.245 126.684 174.125 127.074 173.985C127.474 173.845 127.849 173.675 128.199 173.475H129.819V181.215H131.979ZM137.418 183.18C136.868 183.18 136.368 183.075 135.918 182.865C135.468 182.645 135.083 182.325 134.763 181.905C134.443 181.485 134.193 180.965 134.013 180.345C133.843 179.725 133.758 179.01 133.758 178.2C133.758 177.39 133.843 176.68 134.013 176.07C134.193 175.46 134.443 174.95 134.763 174.54C135.083 174.12 135.468 173.81 135.918 173.61C136.368 173.4 136.868 173.295 137.418 173.295C137.968 173.295 138.468 173.4 138.918 173.61C139.368 173.81 139.753 174.12 140.073 174.54C140.393 174.95 140.638 175.46 140.808 176.07C140.988 176.68 141.078 177.39 141.078 178.2C141.078 179.01 140.988 179.725 140.808 180.345C140.638 180.965 140.393 181.485 140.073 181.905C139.753 182.325 139.368 182.645 138.918 182.865C138.468 183.075 137.968 183.18 137.418 183.18ZM137.418 175.005C137.178 175.005 136.953 175.055 136.743 175.155C136.543 175.255 136.368 175.43 136.218 175.68C136.068 175.92 135.948 176.245 135.858 176.655C135.768 177.065 135.723 177.58 135.723 178.2C135.723 178.82 135.768 179.34 135.858 179.76C135.948 180.17 136.068 180.505 136.218 180.765C136.368 181.015 136.543 181.195 136.743 181.305C136.953 181.415 137.178 181.47 137.418 181.47C137.658 181.47 137.878 181.415 138.078 181.305C138.288 181.195 138.468 181.015 138.618 180.765C138.768 180.505 138.888 180.17 138.978 179.76C139.068 179.34 139.113 178.82 139.113 178.2C139.113 177.58 139.068 177.065 138.978 176.655C138.888 176.245 138.768 175.92 138.618 175.68C138.468 175.43 138.288 175.255 138.078 175.155C137.878 175.055 137.658 175.005 137.418 175.005ZM137.418 179.31C137.098 179.31 136.828 179.21 136.608 179.01C136.398 178.8 136.293 178.52 136.293 178.17C136.293 177.82 136.398 177.545 136.608 177.345C136.828 177.135 137.098 177.03 137.418 177.03C137.738 177.03 138.003 177.135 138.213 177.345C138.433 177.545 138.543 177.82 138.543 178.17C138.543 178.52 138.433 178.8 138.213 179.01C138.003 179.21 137.738 179.31 137.418 179.31ZM167.955 181.215V183H161.13V181.215H163.59V175.71H161.625V174.345C162.185 174.245 162.66 174.125 163.05 173.985C163.45 173.845 163.825 173.675 164.175 173.475H165.795V181.215H167.955ZM170.575 180.45C170.895 180.71 171.235 180.935 171.595 181.125C171.965 181.305 172.375 181.395 172.825 181.395C173.365 181.395 173.805 181.27 174.145 181.02C174.495 180.77 174.67 180.4 174.67 179.91C174.67 179.43 174.505 179.065 174.175 178.815C173.855 178.565 173.44 178.44 172.93 178.44C172.77 178.44 172.625 178.45 172.495 178.47C172.375 178.48 172.255 178.505 172.135 178.545C172.015 178.585 171.89 178.635 171.76 178.695C171.63 178.755 171.485 178.83 171.325 178.92L170.35 178.29L170.605 173.475H176.44V175.335H172.51L172.345 177.12C172.565 177.04 172.77 176.985 172.96 176.955C173.15 176.915 173.365 176.895 173.605 176.895C174.045 176.895 174.46 176.955 174.85 177.075C175.25 177.195 175.6 177.375 175.9 177.615C176.2 177.855 176.435 178.16 176.605 178.53C176.785 178.9 176.875 179.34 176.875 179.85C176.875 180.38 176.77 180.85 176.56 181.26C176.36 181.67 176.085 182.02 175.735 182.31C175.395 182.59 175 182.805 174.55 182.955C174.1 183.105 173.63 183.18 173.14 183.18C172.31 183.18 171.605 183.055 171.025 182.805C170.455 182.545 169.975 182.225 169.585 181.845L170.575 180.45Z" fill="#F0E442"/>
<path d="M56.2929 56.7071C56.6834 57.0976 57.3166 57.0976 57.7071 56.7071L64.0711 50.3431C64.4616 49.9526 64.4616 49.3195 64.0711 48.9289C63.6805 48.5384 63.0474 48.5384 62.6569 48.9289L57 54.5858L51.3431 48.9289C50.9526 48.5384 50.3195 48.5384 49.9289 48.9289C49.5384 49.3195 49.5384 49.9526 49.9289 50.3431L56.2929 56.7071ZM56 36V56H58V36H56Z" fill="#F0E442"/>
</svg>
