<svg width="400" height="284" viewBox="0 0 400 284" version="1.1" xmlns="http://www.w3.org/2000/svg" xmlns:xlink="http://www.w3.org/1999/xlink">
<title>s1m3_tradeoff</title>
<desc>Created using Figma</desc>
<g id="Canvas" transform="translate(214 152)">
<rect x="-214" y="-152" width="400" height="284" fill="#FFFFFF"/>
<g id="Line">
<use xlink:href="#path0_stroke" transform="matrix(-1.92554e-16 -1 1 -1.92554e-16 -179 99.0022)"/>
</g>
<g id="Line 2">
<use xlink:href="#path1_stroke" transform="translate(-179 99)"/>
</g>
<g id="Polygon">
<use xlink:href="#path2_fill" transform="translate(-185 -140)"/>
</g>
<g id="Polygon">
<use xlink:href="#path2_fill" transform="matrix(1.66533e-16 1 -1 1.66533e-16 173 93)"/>
</g>
<g id="Number of class intervals">
<use xlink:href="#path3_fill" transform="translate(-90 118)"/>
</g>
<g id="Line 3">
<use xlink:href="#path4_stroke" transform="matrix(0.866656 -0.498906 0.498906 0.866656 -173.159 82.9402)" fill="#009E73"/>
</g>
<g id="Line 4">
<use xlink:href="#path5_stroke" transform="matrix(0.879884 0.475189 -0.475189 0.879884 -155.881 -136.402)" fill="#D55E00"/>
</g>
<g id="+">
<use xlink:href="#path6_fill" transform="translate(-185 -158)"/>
</g>
<g id="+">
<use xlink:href="#path6_fill" transform="translate(176 87)"/>
</g>
<g id="Comprehensibility">
<use xlink:href="#path7_fill" transform="matrix(0.768567 0.639769 -0.639769 0.768567 73.8761 -20)" fill="#D55E00"/>
</g>
<g id="Information">
<use xlink:href="#path8_fill" transform="matrix(0.823876 -0.56677 0.56677 0.823876 64.6861 -67.5044)" fill="#009E73"/>
</g>
<g id="Line 5">
<use xlink:href="#path9_stroke" transform="matrix(-1.83697e-16 -1 1 -1.83697e-16 38 93)" fill="#0072B2"/>
</g>
<g id="10">
<use xlink:href="#path10_fill" transform="translate(29 98)" fill="#0072B2"/>
</g>
<g id="Amount (magnitude)">
<use xlink:href="#path11_fill" transform="matrix(6.12323e-17 -1 1 6.12323e-17 -215 49)"/>
</g>
</g>
<defs>
<path id="path0_stroke" d="M 0 0L 228.002 0L 228.002 -2L 0 -2L 0 0Z"/>
<path id="path1_stroke" d="M 0 0L 341 0L 341 -2L 0 -2L 0 0Z"/>
<path id="path2_fill" d="M 5 0L 9.33013 11.25L 0.669873 11.25L 5 0Z"/>
<path id="path3_fill" d="M 9.35254 13L 7.30176 13L 3.30957 6.45117L 3.30957 13L 1.25879 13L 1.25879 3.04688L 3.30957 3.04688L 7.30859 9.60938L 7.30859 3.04688L 9.35254 3.04688L 9.35254 13ZM 15.4434 12.248C 14.9557 12.8405 14.2812 13.1367 13.4199 13.1367C 12.627 13.1367 12.0208 12.9089 11.6016 12.4531C 11.1868 11.9974 10.9749 11.3298 10.9658 10.4502L 10.9658 5.60352L 12.9414 5.60352L 12.9414 10.3818C 12.9414 11.152 13.2923 11.5371 13.9941 11.5371C 14.6641 11.5371 15.1243 11.3047 15.375 10.8398L 15.375 5.60352L 17.3574 5.60352L 17.3574 13L 15.498 13L 15.4434 12.248ZM 20.7002 5.60352L 20.7617 6.43066C 21.2858 5.78809 21.9945 5.4668 22.8877 5.4668C 23.8402 5.4668 24.4941 5.84277 24.8496 6.59473C 25.3691 5.84277 26.1097 5.4668 27.0713 5.4668C 27.8734 5.4668 28.4704 5.7015 28.8623 6.1709C 29.2542 6.63574 29.4502 7.33757 29.4502 8.27637L 29.4502 13L 27.4678 13L 27.4678 8.2832C 27.4678 7.86393 27.3857 7.55859 27.2217 7.36719C 27.0576 7.17122 26.7682 7.07324 26.3535 7.07324C 25.7611 7.07324 25.3509 7.35579 25.123 7.9209L 25.1299 13L 23.1543 13L 23.1543 8.29004C 23.1543 7.86165 23.07 7.55176 22.9014 7.36035C 22.7327 7.16895 22.4456 7.07324 22.04 7.07324C 21.4795 7.07324 21.0739 7.30566 20.8232 7.77051L 20.8232 13L 18.8477 13L 18.8477 5.60352L 20.7002 5.60352ZM 37.6396 9.37012C 37.6396 10.555 37.3867 11.4801 36.8809 12.1455C 36.375 12.8063 35.6686 13.1367 34.7617 13.1367C 33.9596 13.1367 33.3193 12.8291 32.8408 12.2139L 32.752 13L 30.9746 13L 30.9746 2.5L 32.9502 2.5L 32.9502 6.2666C 33.4059 5.7334 34.0052 5.4668 34.748 5.4668C 35.6504 5.4668 36.3568 5.79948 36.8672 6.46484C 37.3822 7.12565 37.6396 8.05762 37.6396 9.26074L 37.6396 9.37012ZM 35.6641 9.22656C 35.6641 8.47917 35.5456 7.93457 35.3086 7.59277C 35.0716 7.24642 34.7184 7.07324 34.249 7.07324C 33.6201 7.07324 33.1872 7.33073 32.9502 7.8457L 32.9502 10.7646C 33.1917 11.2842 33.6292 11.5439 34.2627 11.5439C 34.9007 11.5439 35.32 11.2295 35.5205 10.6006C 35.6162 10.2998 35.6641 9.8418 35.6641 9.22656ZM 42.2676 13.1367C 41.1829 13.1367 40.2988 12.804 39.6152 12.1387C 38.9362 11.4733 38.5967 10.5869 38.5967 9.47949L 38.5967 9.28809C 38.5967 8.54525 38.7402 7.88216 39.0273 7.29883C 39.3145 6.71094 39.7201 6.25977 40.2441 5.94531C 40.7728 5.6263 41.3743 5.4668 42.0488 5.4668C 43.0605 5.4668 43.8558 5.78581 44.4346 6.42383C 45.0179 7.06185 45.3096 7.96647 45.3096 9.1377L 45.3096 9.94434L 40.5996 9.94434C 40.6634 10.4274 40.8548 10.8148 41.1738 11.1064C 41.4974 11.3981 41.9053 11.5439 42.3975 11.5439C 43.1585 11.5439 43.7533 11.2682 44.1816 10.7168L 45.1523 11.8037C 44.8561 12.223 44.4551 12.5511 43.9492 12.7881C 43.4434 13.0205 42.8828 13.1367 42.2676 13.1367ZM 42.042 7.06641C 41.6501 7.06641 41.3311 7.19857 41.085 7.46289C 40.8434 7.72721 40.6885 8.10547 40.6201 8.59766L 43.3682 8.59766L 43.3682 8.44043C 43.359 8.00293 43.2406 7.66569 43.0127 7.42871C 42.7848 7.18717 42.4613 7.06641 42.042 7.06641ZM 50.5938 7.45605C 50.3249 7.4196 50.0879 7.40137 49.8828 7.40137C 49.1354 7.40137 48.6455 7.6543 48.4131 8.16016L 48.4131 13L 46.4375 13L 46.4375 5.60352L 48.3037 5.60352L 48.3584 6.48535C 48.7549 5.80631 49.304 5.4668 50.0059 5.4668C 50.2246 5.4668 50.4297 5.49642 50.6211 5.55566L 50.5938 7.45605ZM 54.7295 9.2334C 54.7295 8.49967 54.8708 7.8457 55.1533 7.27148C 55.4359 6.69727 55.8415 6.25293 56.3701 5.93848C 56.9033 5.62402 57.5208 5.4668 58.2227 5.4668C 59.2207 5.4668 60.0342 5.77214 60.6631 6.38281C 61.2965 6.99349 61.6497 7.82292 61.7227 8.87109L 61.7363 9.37695C 61.7363 10.5117 61.4196 11.4232 60.7861 12.1113C 60.1527 12.7949 59.3027 13.1367 58.2363 13.1367C 57.1699 13.1367 56.3177 12.7949 55.6797 12.1113C 55.0462 11.4277 54.7295 10.498 54.7295 9.32227L 54.7295 9.2334ZM 56.7051 9.37695C 56.7051 10.0788 56.8372 10.6165 57.1016 10.9902C 57.3659 11.3594 57.7441 11.5439 58.2363 11.5439C 58.7148 11.5439 59.0885 11.3617 59.3574 10.9971C 59.6263 10.6279 59.7607 10.04 59.7607 9.2334C 59.7607 8.54525 59.6263 8.01204 59.3574 7.63379C 59.0885 7.25553 58.7103 7.06641 58.2227 7.06641C 57.7396 7.06641 57.3659 7.25553 57.1016 7.63379C 56.8372 8.00749 56.7051 8.58854 56.7051 9.37695ZM 63.4932 13L 63.4932 7.05273L 62.3926 7.05273L 62.3926 5.60352L 63.4932 5.60352L 63.4932 4.97461C 63.4932 4.14518 63.7301 3.5026 64.2041 3.04688C 64.6826 2.58659 65.3503 2.35645 66.207 2.35645C 66.4805 2.35645 66.8154 2.40202 67.2119 2.49316L 67.1914 4.02441C 67.0273 3.9834 66.8268 3.96289 66.5898 3.96289C 65.847 3.96289 65.4756 4.31152 65.4756 5.00879L 65.4756 5.60352L 66.9453 5.60352L 66.9453 7.05273L 65.4756 7.05273L 65.4756 13L 63.4932 13ZM 74.5332 11.5439C 74.8978 11.5439 75.194 11.4437 75.4219 11.2432C 75.6497 11.0426 75.7682 10.776 75.7773 10.4434L 77.6299 10.4434C 77.6253 10.9447 77.4886 11.4049 77.2197 11.8242C 76.9508 12.2389 76.5817 12.5625 76.1123 12.7949C 75.6475 13.0228 75.1325 13.1367 74.5674 13.1367C 73.5101 13.1367 72.6761 12.8018 72.0654 12.1318C 71.4548 11.4574 71.1494 10.5277 71.1494 9.34277L 71.1494 9.21289C 71.1494 8.07357 71.4525 7.16439 72.0586 6.48535C 72.6647 5.80631 73.4964 5.4668 74.5537 5.4668C 75.4788 5.4668 76.2194 5.73112 76.7754 6.25977C 77.3359 6.78385 77.6208 7.4834 77.6299 8.3584L 75.7773 8.3584C 75.7682 7.97559 75.6497 7.66569 75.4219 7.42871C 75.194 7.18717 74.8932 7.06641 74.5195 7.06641C 74.0592 7.06641 73.7106 7.23503 73.4736 7.57227C 73.2412 7.90495 73.125 8.44727 73.125 9.19922L 73.125 9.4043C 73.125 10.1654 73.2412 10.7122 73.4736 11.0449C 73.7061 11.3776 74.0592 11.5439 74.5332 11.5439ZM 80.8428 13L 78.8604 13L 78.8604 2.5L 80.8428 2.5L 80.8428 13ZM 86.7627 13C 86.6715 12.8223 86.6055 12.6012 86.5645 12.3369C 86.0859 12.8701 85.4639 13.1367 84.6982 13.1367C 83.9736 13.1367 83.3721 12.9271 82.8936 12.5078C 82.4196 12.0885 82.1826 11.5599 82.1826 10.9219C 82.1826 10.138 82.472 9.53646 83.0508 9.11719C 83.6341 8.69792 84.4749 8.486 85.5732 8.48145L 86.4824 8.48145L 86.4824 8.05762C 86.4824 7.71582 86.3936 7.44238 86.2158 7.2373C 86.0426 7.03223 85.7669 6.92969 85.3887 6.92969C 85.056 6.92969 84.7939 7.00944 84.6025 7.16895C 84.4157 7.32845 84.3223 7.5472 84.3223 7.8252L 82.3467 7.8252C 82.3467 7.39681 82.4788 7.00033 82.7432 6.63574C 83.0075 6.27116 83.3812 5.98633 83.8643 5.78125C 84.3473 5.57161 84.8896 5.4668 85.4912 5.4668C 86.4027 5.4668 87.125 5.69694 87.6582 6.15723C 88.196 6.61296 88.4648 7.25553 88.4648 8.08496L 88.4648 11.291C 88.4694 11.9928 88.5674 12.5238 88.7588 12.8838L 88.7588 13L 86.7627 13ZM 85.1289 11.626C 85.4206 11.626 85.6895 11.5622 85.9355 11.4346C 86.1816 11.3024 86.3639 11.127 86.4824 10.9082L 86.4824 9.63672L 85.7441 9.63672C 84.7552 9.63672 84.2288 9.97852 84.165 10.6621L 84.1582 10.7783C 84.1582 11.0244 84.2448 11.2272 84.418 11.3867C 84.5911 11.5462 84.8281 11.626 85.1289 11.626ZM 93.9883 10.9561C 93.9883 10.7145 93.8675 10.5254 93.626 10.3887C 93.389 10.2474 93.0062 10.1221 92.4775 10.0127C 90.7184 9.64355 89.8389 8.89616 89.8389 7.77051C 89.8389 7.11426 90.11 6.56738 90.6523 6.12988C 91.1992 5.68783 91.9124 5.4668 92.792 5.4668C 93.7308 5.4668 94.4805 5.68783 95.041 6.12988C 95.6061 6.57194 95.8887 7.14616 95.8887 7.85254L 93.9131 7.85254C 93.9131 7.56999 93.8219 7.33757 93.6396 7.15527C 93.4574 6.96842 93.1725 6.875 92.7852 6.875C 92.4525 6.875 92.195 6.9502 92.0127 7.10059C 91.8304 7.25098 91.7393 7.44238 91.7393 7.6748C 91.7393 7.89355 91.8418 8.07129 92.0469 8.20801C 92.2565 8.34017 92.6074 8.45638 93.0996 8.55664C 93.5918 8.65234 94.0065 8.76172 94.3438 8.88477C 95.3874 9.26758 95.9092 9.93066 95.9092 10.874C 95.9092 11.5485 95.6198 12.0954 95.041 12.5146C 94.4622 12.9294 93.7148 13.1367 92.7988 13.1367C 92.179 13.1367 91.6276 13.0273 91.1445 12.8086C 90.666 12.5853 90.29 12.2822 90.0166 11.8994C 89.7432 11.512 89.6064 11.0951 89.6064 10.6484L 91.4795 10.6484C 91.4977 10.9993 91.6276 11.2682 91.8691 11.4551C 92.1107 11.6419 92.4342 11.7354 92.8398 11.7354C 93.2181 11.7354 93.5029 11.6647 93.6943 11.5234C 93.8903 11.3776 93.9883 11.1885 93.9883 10.9561ZM 101.193 10.9561C 101.193 10.7145 101.073 10.5254 100.831 10.3887C 100.594 10.2474 100.211 10.1221 99.6826 10.0127C 97.9235 9.64355 97.0439 8.89616 97.0439 7.77051C 97.0439 7.11426 97.3151 6.56738 97.8574 6.12988C 98.4043 5.68783 99.1175 5.4668 99.9971 5.4668C 100.936 5.4668 101.686 5.68783 102.246 6.12988C 102.811 6.57194 103.094 7.14616 103.094 7.85254L 101.118 7.85254C 101.118 7.56999 101.027 7.33757 100.845 7.15527C 100.662 6.96842 100.378 6.875 99.9902 6.875C 99.6576 6.875 99.4001 6.9502 99.2178 7.10059C 99.0355 7.25098 98.9443 7.44238 98.9443 7.6748C 98.9443 7.89355 99.0469 8.07129 99.252 8.20801C 99.4616 8.34017 99.8125 8.45638 100.305 8.55664C 100.797 8.65234 101.212 8.76172 101.549 8.88477C 102.592 9.26758 103.114 9.93066 103.114 10.874C 103.114 11.5485 102.825 12.0954 102.246 12.5146C 101.667 12.9294 100.92 13.1367 100.004 13.1367C 99.3841 13.1367 98.8327 13.0273 98.3496 12.8086C 97.8711 12.5853 97.4951 12.2822 97.2217 11.8994C 96.9482 11.512 96.8115 11.0951 96.8115 10.6484L 98.6846 10.6484C 98.7028 10.9993 98.8327 11.2682 99.0742 11.4551C 99.3158 11.6419 99.6393 11.7354 100.045 11.7354C 100.423 11.7354 100.708 11.6647 100.899 11.5234C 101.095 11.3776 101.193 11.1885 101.193 10.9561ZM 109.964 13L 107.981 13L 107.981 5.60352L 109.964 5.60352L 109.964 13ZM 107.865 3.68945C 107.865 3.39323 107.963 3.14941 108.159 2.95801C 108.36 2.7666 108.631 2.6709 108.973 2.6709C 109.31 2.6709 109.579 2.7666 109.779 2.95801C 109.98 3.14941 110.08 3.39323 110.08 3.68945C 110.08 3.99023 109.978 4.23633 109.772 4.42773C 109.572 4.61914 109.305 4.71484 108.973 4.71484C 108.64 4.71484 108.371 4.61914 108.166 4.42773C 107.965 4.23633 107.865 3.99023 107.865 3.68945ZM 113.416 5.60352L 113.478 6.45801C 114.006 5.7972 114.715 5.4668 115.604 5.4668C 116.387 5.4668 116.971 5.69694 117.354 6.15723C 117.736 6.61751 117.932 7.30566 117.941 8.22168L 117.941 13L 115.966 13L 115.966 8.26953C 115.966 7.85026 115.875 7.5472 115.692 7.36035C 115.51 7.16895 115.207 7.07324 114.783 7.07324C 114.227 7.07324 113.81 7.31022 113.532 7.78418L 113.532 13L 111.557 13L 111.557 5.60352L 113.416 5.60352ZM 121.811 3.78516L 121.811 5.60352L 123.075 5.60352L 123.075 7.05273L 121.811 7.05273L 121.811 10.7441C 121.811 11.0176 121.863 11.2135 121.968 11.332C 122.073 11.4505 122.273 11.5098 122.569 11.5098C 122.788 11.5098 122.982 11.4938 123.15 11.4619L 123.15 12.959C 122.763 13.0775 122.364 13.1367 121.954 13.1367C 120.569 13.1367 119.862 12.4372 119.835 11.0381L 119.835 7.05273L 118.755 7.05273L 118.755 5.60352L 119.835 5.60352L 119.835 3.78516L 121.811 3.78516ZM 127.58 13.1367C 126.495 13.1367 125.611 12.804 124.928 12.1387C 124.249 11.4733 123.909 10.5869 123.909 9.47949L 123.909 9.28809C 123.909 8.54525 124.053 7.88216 124.34 7.29883C 124.627 6.71094 125.033 6.25977 125.557 5.94531C 126.085 5.6263 126.687 5.4668 127.361 5.4668C 128.373 5.4668 129.168 5.78581 129.747 6.42383C 130.33 7.06185 130.622 7.96647 130.622 9.1377L 130.622 9.94434L 125.912 9.94434C 125.976 10.4274 126.167 10.8148 126.486 11.1064C 126.81 11.3981 127.218 11.5439 127.71 11.5439C 128.471 11.5439 129.066 11.2682 129.494 10.7168L 130.465 11.8037C 130.169 12.223 129.768 12.5511 129.262 12.7881C 128.756 13.0205 128.195 13.1367 127.58 13.1367ZM 127.354 7.06641C 126.963 7.06641 126.644 7.19857 126.397 7.46289C 126.156 7.72721 126.001 8.10547 125.933 8.59766L 128.681 8.59766L 128.681 8.44043C 128.672 8.00293 128.553 7.66569 128.325 7.42871C 128.097 7.18717 127.774 7.06641 127.354 7.06641ZM 135.906 7.45605C 135.637 7.4196 135.4 7.40137 135.195 7.40137C 134.448 7.40137 133.958 7.6543 133.726 8.16016L 133.726 13L 131.75 13L 131.75 5.60352L 133.616 5.60352L 133.671 6.48535C 134.067 5.80631 134.617 5.4668 135.318 5.4668C 135.537 5.4668 135.742 5.49642 135.934 5.55566L 135.906 7.45605ZM 139.755 10.5869L 141.129 5.60352L 143.193 5.60352L 140.698 13L 138.812 13L 136.316 5.60352L 138.381 5.60352L 139.755 10.5869ZM 148.245 13C 148.154 12.8223 148.088 12.6012 148.047 12.3369C 147.568 12.8701 146.946 13.1367 146.181 13.1367C 145.456 13.1367 144.854 12.9271 144.376 12.5078C 143.902 12.0885 143.665 11.5599 143.665 10.9219C 143.665 10.138 143.954 9.53646 144.533 9.11719C 145.117 8.69792 145.957 8.486 147.056 8.48145L 147.965 8.48145L 147.965 8.05762C 147.965 7.71582 147.876 7.44238 147.698 7.2373C 147.525 7.03223 147.249 6.92969 146.871 6.92969C 146.538 6.92969 146.276 7.00944 146.085 7.16895C 145.898 7.32845 145.805 7.5472 145.805 7.8252L 143.829 7.8252C 143.829 7.39681 143.961 7.00033 144.226 6.63574C 144.49 6.27116 144.864 5.98633 145.347 5.78125C 145.83 5.57161 146.372 5.4668 146.974 5.4668C 147.885 5.4668 148.607 5.69694 149.141 6.15723C 149.678 6.61296 149.947 7.25553 149.947 8.08496L 149.947 11.291C 149.952 11.9928 150.05 12.5238 150.241 12.8838L 150.241 13L 148.245 13ZM 146.611 11.626C 146.903 11.626 147.172 11.5622 147.418 11.4346C 147.664 11.3024 147.846 11.127 147.965 10.9082L 147.965 9.63672L 147.227 9.63672C 146.238 9.63672 145.711 9.97852 145.647 10.6621L 145.641 10.7783C 145.641 11.0244 145.727 11.2272 145.9 11.3867C 146.074 11.5462 146.311 11.626 146.611 11.626ZM 153.55 13L 151.567 13L 151.567 2.5L 153.55 2.5L 153.55 13ZM 159.189 10.9561C 159.189 10.7145 159.069 10.5254 158.827 10.3887C 158.59 10.2474 158.207 10.1221 157.679 10.0127C 155.92 9.64355 155.04 8.89616 155.04 7.77051C 155.04 7.11426 155.311 6.56738 155.854 6.12988C 156.4 5.68783 157.114 5.4668 157.993 5.4668C 158.932 5.4668 159.682 5.68783 160.242 6.12988C 160.807 6.57194 161.09 7.14616 161.09 7.85254L 159.114 7.85254C 159.114 7.56999 159.023 7.33757 158.841 7.15527C 158.659 6.96842 158.374 6.875 157.986 6.875C 157.654 6.875 157.396 6.9502 157.214 7.10059C 157.032 7.25098 156.94 7.44238 156.94 7.6748C 156.94 7.89355 157.043 8.07129 157.248 8.20801C 157.458 8.34017 157.809 8.45638 158.301 8.55664C 158.793 8.65234 159.208 8.76172 159.545 8.88477C 160.589 9.26758 161.11 9.93066 161.11 10.874C 161.11 11.5485 160.821 12.0954 160.242 12.5146C 159.663 12.9294 158.916 13.1367 158 13.1367C 157.38 13.1367 156.829 13.0273 156.346 12.8086C 155.867 12.5853 155.491 12.2822 155.218 11.8994C 154.944 11.512 154.808 11.0951 154.808 10.6484L 156.681 10.6484C 156.699 10.9993 156.829 11.2682 157.07 11.4551C 157.312 11.6419 157.635 11.7354 158.041 11.7354C 158.419 11.7354 158.704 11.6647 158.896 11.5234C 159.091 11.3776 159.189 11.1885 159.189 10.9561Z"/>
<path id="path4_stroke" d="M -0.582011 0.813181C 40.3063 30.0779 92.6469 30.4796 156.839 23.4552C 221.131 16.4201 297.406 1.92417 386.737 0.999946L 386.716 -0.999946C 297.258 -0.0743975 220.721 14.453 156.622 21.4671C 92.4241 28.492 40.7959 27.9688 0.582011 -0.813181L -0.582011 0.813181Z"/>
<path id="path5_stroke" d="M 0.490163 40.1068C 65.9019 3.32239 123.981 -3.03295 184.435 2.98912C 214.684 6.00228 245.525 12.1143 278.199 19.0754C 310.86 26.0338 345.353 33.8411 382.837 40.221L 383.173 38.2494C 345.742 31.8784 311.308 24.0842 278.616 17.1193C 245.938 10.1572 215.002 4.02406 184.634 0.998966C 123.855 -5.0555 65.3467 1.34007 -0.490163 38.3636L 0.490163 40.1068Z"/>
<path id="path6_fill" d="M 6.18652 9.83691L 9.35938 9.83691L 9.35938 12.1309L 6.18652 12.1309L 6.18652 15.7168L 3.76953 15.7168L 3.76953 12.1309L 0.587891 12.1309L 0.587891 9.83691L 3.76953 9.83691L 3.76953 6.40039L 6.18652 6.40039L 6.18652 9.83691Z"/>
<path id="path7_fill" d="M 8.88965 9.68457C 8.81217 10.7555 8.41569 11.5986 7.7002 12.2139C 6.98926 12.8291 6.05046 13.1367 4.88379 13.1367C 3.60775 13.1367 2.60286 12.7083 1.86914 11.8516C 1.13997 10.9902 0.775391 9.8099 0.775391 8.31055L 0.775391 7.70215C 0.775391 6.74512 0.94401 5.90202 1.28125 5.17285C 1.61849 4.44369 2.09928 3.88542 2.72363 3.49805C 3.35254 3.10612 4.08171 2.91016 4.91113 2.91016C 6.05957 2.91016 6.9847 3.21777 7.68652 3.83301C 8.38835 4.44824 8.79395 5.31185 8.90332 6.42383L 6.85254 6.42383C 6.80241 5.78125 6.6224 5.31641 6.3125 5.0293C 6.00716 4.73763 5.54004 4.5918 4.91113 4.5918C 4.22754 4.5918 3.71484 4.83789 3.37305 5.33008C 3.03581 5.81771 2.86263 6.5765 2.85352 7.60645L 2.85352 8.3584C 2.85352 9.43392 3.0153 10.2201 3.33887 10.7168C 3.66699 11.2135 4.18197 11.4619 4.88379 11.4619C 5.51725 11.4619 5.98893 11.3184 6.29883 11.0312C 6.61328 10.7396 6.79329 10.2907 6.83887 9.68457L 8.88965 9.68457ZM 9.79883 9.2334C 9.79883 8.49967 9.9401 7.8457 10.2227 7.27148C 10.5052 6.69727 10.9108 6.25293 11.4395 5.93848C 11.9727 5.62402 12.5902 5.4668 13.292 5.4668C 14.29 5.4668 15.1035 5.77214 15.7324 6.38281C 16.3659 6.99349 16.7191 7.82292 16.792 8.87109L 16.8057 9.37695C 16.8057 10.5117 16.4889 11.4232 15.8555 12.1113C 15.222 12.7949 14.3721 13.1367 13.3057 13.1367C 12.2393 13.1367 11.387 12.7949 10.749 12.1113C 10.1156 11.4277 9.79883 10.498 9.79883 9.32227L 9.79883 9.2334ZM 11.7744 9.37695C 11.7744 10.0788 11.9066 10.6165 12.1709 10.9902C 12.4352 11.3594 12.8135 11.5439 13.3057 11.5439C 13.7842 11.5439 14.1579 11.3617 14.4268 10.9971C 14.6956 10.6279 14.8301 10.04 14.8301 9.2334C 14.8301 8.54525 14.6956 8.01204 14.4268 7.63379C 14.1579 7.25553 13.7796 7.06641 13.292 7.06641C 12.8089 7.06641 12.4352 7.25553 12.1709 7.63379C 11.9066 8.00749 11.7744 8.58854 11.7744 9.37695ZM 19.875 5.60352L 19.9365 6.43066C 20.4606 5.78809 21.1693 5.4668 22.0625 5.4668C 23.015 5.4668 23.6689 5.84277 24.0244 6.59473C 24.5439 5.84277 25.2845 5.4668 26.2461 5.4668C 27.0482 5.4668 27.6452 5.7015 28.0371 6.1709C 28.429 6.63574 28.625 7.33757 28.625 8.27637L 28.625 13L 26.6426 13L 26.6426 8.2832C 26.6426 7.86393 26.5605 7.55859 26.3965 7.36719C 26.2324 7.17122 25.943 7.07324 25.5283 7.07324C 24.9359 7.07324 24.5257 7.35579 24.2979 7.9209L 24.3047 13L 22.3291 13L 22.3291 8.29004C 22.3291 7.86165 22.2448 7.55176 22.0762 7.36035C 21.9076 7.16895 21.6204 7.07324 21.2148 7.07324C 20.6543 7.07324 20.2487 7.30566 19.998 7.77051L 19.998 13L 18.0225 13L 18.0225 5.60352L 19.875 5.60352ZM 36.8076 9.37012C 36.8076 10.5094 36.5479 11.4232 36.0283 12.1113C 35.5133 12.7949 34.8161 13.1367 33.9365 13.1367C 33.1891 13.1367 32.5853 12.877 32.125 12.3574L 32.125 15.8438L 30.1494 15.8438L 30.1494 5.60352L 31.9814 5.60352L 32.0498 6.32812C 32.5283 5.75391 33.1527 5.4668 33.9229 5.4668C 34.8343 5.4668 35.543 5.80404 36.0488 6.47852C 36.5547 7.15299 36.8076 8.08268 36.8076 9.26758L 36.8076 9.37012ZM 34.832 9.22656C 34.832 8.53841 34.709 8.00749 34.4629 7.63379C 34.2214 7.26009 33.8682 7.07324 33.4033 7.07324C 32.7835 7.07324 32.3574 7.31022 32.125 7.78418L 32.125 10.8125C 32.3665 11.3001 32.7972 11.5439 33.417 11.5439C 34.3604 11.5439 34.832 10.7715 34.832 9.22656ZM 42.1943 7.45605C 41.9255 7.4196 41.6885 7.40137 41.4834 7.40137C 40.736 7.40137 40.2461 7.6543 40.0137 8.16016L 40.0137 13L 38.0381 13L 38.0381 5.60352L 39.9043 5.60352L 39.959 6.48535C 40.3555 5.80631 40.9046 5.4668 41.6064 5.4668C 41.8252 5.4668 42.0303 5.49642 42.2217 5.55566L 42.1943 7.45605ZM 46.4189 13.1367C 45.3343 13.1367 44.4502 12.804 43.7666 12.1387C 43.0876 11.4733 42.748 10.5869 42.748 9.47949L 42.748 9.28809C 42.748 8.54525 42.8916 7.88216 43.1787 7.29883C 43.4658 6.71094 43.8714 6.25977 44.3955 5.94531C 44.9242 5.6263 45.5257 5.4668 46.2002 5.4668C 47.2119 5.4668 48.0072 5.78581 48.5859 6.42383C 49.1693 7.06185 49.4609 7.96647 49.4609 9.1377L 49.4609 9.94434L 44.751 9.94434C 44.8148 10.4274 45.0062 10.8148 45.3252 11.1064C 45.6488 11.3981 46.0566 11.5439 46.5488 11.5439C 47.3099 11.5439 47.9046 11.2682 48.333 10.7168L 49.3037 11.8037C 49.0075 12.223 48.6064 12.5511 48.1006 12.7881C 47.5947 13.0205 47.0342 13.1367 46.4189 13.1367ZM 46.1934 7.06641C 45.8014 7.06641 45.4824 7.19857 45.2363 7.46289C 44.9948 7.72721 44.8398 8.10547 44.7715 8.59766L 47.5195 8.59766L 47.5195 8.44043C 47.5104 8.00293 47.3919 7.66569 47.1641 7.42871C 46.9362 7.18717 46.6126 7.06641 46.1934 7.06641ZM 52.5166 6.41016C 53.0407 5.78125 53.6992 5.4668 54.4922 5.4668C 56.0964 5.4668 56.9098 6.39876 56.9326 8.2627L 56.9326 13L 54.957 13L 54.957 8.31738C 54.957 7.89355 54.8659 7.58138 54.6836 7.38086C 54.5013 7.17578 54.1982 7.07324 53.7744 7.07324C 53.1956 7.07324 52.7764 7.29655 52.5166 7.74316L 52.5166 13L 50.541 13L 50.541 2.5L 52.5166 2.5L 52.5166 6.41016ZM 61.8271 13.1367C 60.7425 13.1367 59.8584 12.804 59.1748 12.1387C 58.4958 11.4733 58.1562 10.5869 58.1562 9.47949L 58.1562 9.28809C 58.1562 8.54525 58.2998 7.88216 58.5869 7.29883C 58.874 6.71094 59.2796 6.25977 59.8037 5.94531C 60.3324 5.6263 60.9339 5.4668 61.6084 5.4668C 62.6201 5.4668 63.4154 5.78581 63.9941 6.42383C 64.5775 7.06185 64.8691 7.96647 64.8691 9.1377L 64.8691 9.94434L 60.1592 9.94434C 60.223 10.4274 60.4144 10.8148 60.7334 11.1064C 61.057 11.3981 61.4648 11.5439 61.957 11.5439C 62.7181 11.5439 63.3128 11.2682 63.7412 10.7168L 64.7119 11.8037C 64.4157 12.223 64.0146 12.5511 63.5088 12.7881C 63.0029 13.0205 62.4424 13.1367 61.8271 13.1367ZM 61.6016 7.06641C 61.2096 7.06641 60.8906 7.19857 60.6445 7.46289C 60.403 7.72721 60.248 8.10547 60.1797 8.59766L 62.9277 8.59766L 62.9277 8.44043C 62.9186 8.00293 62.8001 7.66569 62.5723 7.42871C 62.3444 7.18717 62.0208 7.06641 61.6016 7.06641ZM 67.8154 5.60352L 67.877 6.45801C 68.4056 5.7972 69.1143 5.4668 70.0029 5.4668C 70.7868 5.4668 71.3701 5.69694 71.7529 6.15723C 72.1357 6.61751 72.3317 7.30566 72.3408 8.22168L 72.3408 13L 70.3652 13L 70.3652 8.26953C 70.3652 7.85026 70.2741 7.5472 70.0918 7.36035C 69.9095 7.16895 69.6064 7.07324 69.1826 7.07324C 68.6266 7.07324 68.2096 7.31022 67.9316 7.78418L 67.9316 13L 65.9561 13L 65.9561 5.60352L 67.8154 5.60352ZM 77.8506 10.9561C 77.8506 10.7145 77.7298 10.5254 77.4883 10.3887C 77.2513 10.2474 76.8685 10.1221 76.3398 10.0127C 74.5807 9.64355 73.7012 8.89616 73.7012 7.77051C 73.7012 7.11426 73.9723 6.56738 74.5146 6.12988C 75.0615 5.68783 75.7747 5.4668 76.6543 5.4668C 77.5931 5.4668 78.3428 5.68783 78.9033 6.12988C 79.4684 6.57194 79.751 7.14616 79.751 7.85254L 77.7754 7.85254C 77.7754 7.56999 77.6842 7.33757 77.502 7.15527C 77.3197 6.96842 77.0348 6.875 76.6475 6.875C 76.3148 6.875 76.0573 6.9502 75.875 7.10059C 75.6927 7.25098 75.6016 7.44238 75.6016 7.6748C 75.6016 7.89355 75.7041 8.07129 75.9092 8.20801C 76.1188 8.34017 76.4697 8.45638 76.9619 8.55664C 77.4541 8.65234 77.8688 8.76172 78.2061 8.88477C 79.2497 9.26758 79.7715 9.93066 79.7715 10.874C 79.7715 11.5485 79.4821 12.0954 78.9033 12.5146C 78.3245 12.9294 77.5771 13.1367 76.6611 13.1367C 76.0413 13.1367 75.4899 13.0273 75.0068 12.8086C 74.5283 12.5853 74.1523 12.2822 73.8789 11.8994C 73.6055 11.512 73.4688 11.0951 73.4688 10.6484L 75.3418 10.6484C 75.36 10.9993 75.4899 11.2682 75.7314 11.4551C 75.973 11.6419 76.2965 11.7354 76.7021 11.7354C 77.0804 11.7354 77.3652 11.6647 77.5566 11.5234C 77.7526 11.3776 77.8506 11.1885 77.8506 10.9561ZM 83.1348 13L 81.1523 13L 81.1523 5.60352L 83.1348 5.60352L 83.1348 13ZM 81.0361 3.68945C 81.0361 3.39323 81.1341 3.14941 81.3301 2.95801C 81.5306 2.7666 81.8018 2.6709 82.1436 2.6709C 82.4808 2.6709 82.7497 2.7666 82.9502 2.95801C 83.1507 3.14941 83.251 3.39323 83.251 3.68945C 83.251 3.99023 83.1484 4.23633 82.9434 4.42773C 82.7428 4.61914 82.4762 4.71484 82.1436 4.71484C 81.8109 4.71484 81.542 4.61914 81.3369 4.42773C 81.1364 4.23633 81.0361 3.99023 81.0361 3.68945ZM 91.4336 9.37012C 91.4336 10.555 91.1807 11.4801 90.6748 12.1455C 90.1689 12.8063 89.4626 13.1367 88.5557 13.1367C 87.7536 13.1367 87.1133 12.8291 86.6348 12.2139L 86.5459 13L 84.7686 13L 84.7686 2.5L 86.7441 2.5L 86.7441 6.2666C 87.1999 5.7334 87.7992 5.4668 88.542 5.4668C 89.4443 5.4668 90.1507 5.79948 90.6611 6.46484C 91.1761 7.12565 91.4336 8.05762 91.4336 9.26074L 91.4336 9.37012ZM 89.458 9.22656C 89.458 8.47917 89.3395 7.93457 89.1025 7.59277C 88.8656 7.24642 88.5124 7.07324 88.043 7.07324C 87.4141 7.07324 86.9811 7.33073 86.7441 7.8457L 86.7441 10.7646C 86.9857 11.2842 87.4232 11.5439 88.0566 11.5439C 88.6947 11.5439 89.1139 11.2295 89.3145 10.6006C 89.4102 10.2998 89.458 9.8418 89.458 9.22656ZM 94.7422 13L 92.7598 13L 92.7598 5.60352L 94.7422 5.60352L 94.7422 13ZM 92.6436 3.68945C 92.6436 3.39323 92.7415 3.14941 92.9375 2.95801C 93.138 2.7666 93.4092 2.6709 93.751 2.6709C 94.0882 2.6709 94.3571 2.7666 94.5576 2.95801C 94.7581 3.14941 94.8584 3.39323 94.8584 3.68945C 94.8584 3.99023 94.7559 4.23633 94.5508 4.42773C 94.3503 4.61914 94.0837 4.71484 93.751 4.71484C 93.4183 4.71484 93.1494 4.61914 92.9443 4.42773C 92.7438 4.23633 92.6436 3.99023 92.6436 3.68945ZM 98.4609 13L 96.4785 13L 96.4785 2.5L 98.4609 2.5L 98.4609 13ZM 102.18 13L 100.197 13L 100.197 5.60352L 102.18 5.60352L 102.18 13ZM 100.081 3.68945C 100.081 3.39323 100.179 3.14941 100.375 2.95801C 100.576 2.7666 100.847 2.6709 101.188 2.6709C 101.526 2.6709 101.795 2.7666 101.995 2.95801C 102.196 3.14941 102.296 3.39323 102.296 3.68945C 102.296 3.99023 102.193 4.23633 101.988 4.42773C 101.788 4.61914 101.521 4.71484 101.188 4.71484C 100.856 4.71484 100.587 4.61914 100.382 4.42773C 100.181 4.23633 100.081 3.99023 100.081 3.68945ZM 106.179 3.78516L 106.179 5.60352L 107.443 5.60352L 107.443 7.05273L 106.179 7.05273L 106.179 10.7441C 106.179 11.0176 106.231 11.2135 106.336 11.332C 106.441 11.4505 106.641 11.5098 106.938 11.5098C 107.156 11.5098 107.35 11.4938 107.519 11.4619L 107.519 12.959C 107.131 13.0775 106.732 13.1367 106.322 13.1367C 104.937 13.1367 104.23 12.4372 104.203 11.0381L 104.203 7.05273L 103.123 7.05273L 103.123 5.60352L 104.203 5.60352L 104.203 3.78516L 106.179 3.78516ZM 111.306 10.2041L 112.673 5.60352L 114.792 5.60352L 111.818 14.1484L 111.654 14.5381C 111.212 15.5042 110.483 15.9873 109.467 15.9873C 109.18 15.9873 108.888 15.944 108.592 15.8574L 108.592 14.3604L 108.893 14.3672C 109.266 14.3672 109.544 14.3102 109.727 14.1963C 109.913 14.0824 110.059 13.8932 110.164 13.6289L 110.396 13.0205L 107.806 5.60352L 109.932 5.60352L 111.306 10.2041Z"/>
<path id="path8_fill" d="M 3.15527 13L 1.10449 13L 1.10449 3.04688L 3.15527 3.04688L 3.15527 13ZM 6.75098 5.60352L 6.8125 6.45801C 7.34115 5.7972 8.0498 5.4668 8.93848 5.4668C 9.72233 5.4668 10.3057 5.69694 10.6885 6.15723C 11.0713 6.61751 11.2673 7.30566 11.2764 8.22168L 11.2764 13L 9.30078 13L 9.30078 8.26953C 9.30078 7.85026 9.20964 7.5472 9.02734 7.36035C 8.84505 7.16895 8.54199 7.07324 8.11816 7.07324C 7.56217 7.07324 7.14518 7.31022 6.86719 7.78418L 6.86719 13L 4.8916 13L 4.8916 5.60352L 6.75098 5.60352ZM 13.3203 13L 13.3203 7.05273L 12.2197 7.05273L 12.2197 5.60352L 13.3203 5.60352L 13.3203 4.97461C 13.3203 4.14518 13.5573 3.5026 14.0312 3.04688C 14.5098 2.58659 15.1774 2.35645 16.0342 2.35645C 16.3076 2.35645 16.6426 2.40202 17.0391 2.49316L 17.0186 4.02441C 16.8545 3.9834 16.654 3.96289 16.417 3.96289C 15.6742 3.96289 15.3027 4.31152 15.3027 5.00879L 15.3027 5.60352L 16.7725 5.60352L 16.7725 7.05273L 15.3027 7.05273L 15.3027 13L 13.3203 13ZM 17.4902 9.2334C 17.4902 8.49967 17.6315 7.8457 17.9141 7.27148C 18.1966 6.69727 18.6022 6.25293 19.1309 5.93848C 19.6641 5.62402 20.2816 5.4668 20.9834 5.4668C 21.9814 5.4668 22.7949 5.77214 23.4238 6.38281C 24.0573 6.99349 24.4105 7.82292 24.4834 8.87109L 24.4971 9.37695C 24.4971 10.5117 24.1803 11.4232 23.5469 12.1113C 22.9134 12.7949 22.0635 13.1367 20.9971 13.1367C 19.9307 13.1367 19.0785 12.7949 18.4404 12.1113C 17.807 11.4277 17.4902 10.498 17.4902 9.32227L 17.4902 9.2334ZM 19.4658 9.37695C 19.4658 10.0788 19.598 10.6165 19.8623 10.9902C 20.1266 11.3594 20.5049 11.5439 20.9971 11.5439C 21.4756 11.5439 21.8493 11.3617 22.1182 10.9971C 22.387 10.6279 22.5215 10.04 22.5215 9.2334C 22.5215 8.54525 22.387 8.01204 22.1182 7.63379C 21.8493 7.25553 21.471 7.06641 20.9834 7.06641C 20.5003 7.06641 20.1266 7.25553 19.8623 7.63379C 19.598 8.00749 19.4658 8.58854 19.4658 9.37695ZM 29.8701 7.45605C 29.6012 7.4196 29.3643 7.40137 29.1592 7.40137C 28.4118 7.40137 27.9219 7.6543 27.6895 8.16016L 27.6895 13L 25.7139 13L 25.7139 5.60352L 27.5801 5.60352L 27.6348 6.48535C 28.0312 5.80631 28.5804 5.4668 29.2822 5.4668C 29.501 5.4668 29.7061 5.49642 29.8975 5.55566L 29.8701 7.45605ZM 32.6797 5.60352L 32.7412 6.43066C 33.2653 5.78809 33.974 5.4668 34.8672 5.4668C 35.8197 5.4668 36.4736 5.84277 36.8291 6.59473C 37.3486 5.84277 38.0892 5.4668 39.0508 5.4668C 39.8529 5.4668 40.4499 5.7015 40.8418 6.1709C 41.2337 6.63574 41.4297 7.33757 41.4297 8.27637L 41.4297 13L 39.4473 13L 39.4473 8.2832C 39.4473 7.86393 39.3652 7.55859 39.2012 7.36719C 39.0371 7.17122 38.7477 7.07324 38.333 7.07324C 37.7406 7.07324 37.3304 7.35579 37.1025 7.9209L 37.1094 13L 35.1338 13L 35.1338 8.29004C 35.1338 7.86165 35.0495 7.55176 34.8809 7.36035C 34.7122 7.16895 34.4251 7.07324 34.0195 7.07324C 33.459 7.07324 33.0534 7.30566 32.8027 7.77051L 32.8027 13L 30.8271 13L 30.8271 5.60352L 32.6797 5.60352ZM 47.2402 13C 47.1491 12.8223 47.083 12.6012 47.042 12.3369C 46.5635 12.8701 45.9414 13.1367 45.1758 13.1367C 44.4512 13.1367 43.8496 12.9271 43.3711 12.5078C 42.8971 12.0885 42.6602 11.5599 42.6602 10.9219C 42.6602 10.138 42.9495 9.53646 43.5283 9.11719C 44.1117 8.69792 44.9525 8.486 46.0508 8.48145L 46.96 8.48145L 46.96 8.05762C 46.96 7.71582 46.8711 7.44238 46.6934 7.2373C 46.5202 7.03223 46.2445 6.92969 45.8662 6.92969C 45.5335 6.92969 45.2715 7.00944 45.0801 7.16895C 44.8932 7.32845 44.7998 7.5472 44.7998 7.8252L 42.8242 7.8252C 42.8242 7.39681 42.9564 7.00033 43.2207 6.63574C 43.485 6.27116 43.8587 5.98633 44.3418 5.78125C 44.8249 5.57161 45.3672 5.4668 45.9688 5.4668C 46.8802 5.4668 47.6025 5.69694 48.1357 6.15723C 48.6735 6.61296 48.9424 7.25553 48.9424 8.08496L 48.9424 11.291C 48.9469 11.9928 49.0449 12.5238 49.2363 12.8838L 49.2363 13L 47.2402 13ZM 45.6064 11.626C 45.8981 11.626 46.167 11.5622 46.4131 11.4346C 46.6592 11.3024 46.8415 11.127 46.96 10.9082L 46.96 9.63672L 46.2217 9.63672C 45.2327 9.63672 44.7064 9.97852 44.6426 10.6621L 44.6357 10.7783C 44.6357 11.0244 44.7223 11.2272 44.8955 11.3867C 45.0687 11.5462 45.3057 11.626 45.6064 11.626ZM 52.8252 3.78516L 52.8252 5.60352L 54.0898 5.60352L 54.0898 7.05273L 52.8252 7.05273L 52.8252 10.7441C 52.8252 11.0176 52.8776 11.2135 52.9824 11.332C 53.0872 11.4505 53.2878 11.5098 53.584 11.5098C 53.8027 11.5098 53.9964 11.4938 54.165 11.4619L 54.165 12.959C 53.7777 13.0775 53.3789 13.1367 52.9688 13.1367C 51.5833 13.1367 50.877 12.4372 50.8496 11.0381L 50.8496 7.05273L 49.7695 7.05273L 49.7695 5.60352L 50.8496 5.60352L 50.8496 3.78516L 52.8252 3.78516ZM 57.2754 13L 55.293 13L 55.293 5.60352L 57.2754 5.60352L 57.2754 13ZM 55.1768 3.68945C 55.1768 3.39323 55.2747 3.14941 55.4707 2.95801C 55.6712 2.7666 55.9424 2.6709 56.2842 2.6709C 56.6214 2.6709 56.8903 2.7666 57.0908 2.95801C 57.2913 3.14941 57.3916 3.39323 57.3916 3.68945C 57.3916 3.99023 57.2891 4.23633 57.084 4.42773C 56.8835 4.61914 56.6169 4.71484 56.2842 4.71484C 55.9515 4.71484 55.6826 4.61914 55.4775 4.42773C 55.277 4.23633 55.1768 3.99023 55.1768 3.68945ZM 58.6016 9.2334C 58.6016 8.49967 58.7428 7.8457 59.0254 7.27148C 59.3079 6.69727 59.7135 6.25293 60.2422 5.93848C 60.7754 5.62402 61.3929 5.4668 62.0947 5.4668C 63.0928 5.4668 63.9062 5.77214 64.5352 6.38281C 65.1686 6.99349 65.5218 7.82292 65.5947 8.87109L 65.6084 9.37695C 65.6084 10.5117 65.2917 11.4232 64.6582 12.1113C 64.0247 12.7949 63.1748 13.1367 62.1084 13.1367C 61.042 13.1367 60.1898 12.7949 59.5518 12.1113C 58.9183 11.4277 58.6016 10.498 58.6016 9.32227L 58.6016 9.2334ZM 60.5771 9.37695C 60.5771 10.0788 60.7093 10.6165 60.9736 10.9902C 61.238 11.3594 61.6162 11.5439 62.1084 11.5439C 62.5869 11.5439 62.9606 11.3617 63.2295 10.9971C 63.4984 10.6279 63.6328 10.04 63.6328 9.2334C 63.6328 8.54525 63.4984 8.01204 63.2295 7.63379C 62.9606 7.25553 62.5824 7.06641 62.0947 7.06641C 61.6117 7.06641 61.238 7.25553 60.9736 7.63379C 60.7093 8.00749 60.5771 8.58854 60.5771 9.37695ZM 68.6436 5.60352L 68.7051 6.45801C 69.2337 5.7972 69.9424 5.4668 70.8311 5.4668C 71.6149 5.4668 72.1982 5.69694 72.5811 6.15723C 72.9639 6.61751 73.1598 7.30566 73.1689 8.22168L 73.1689 13L 71.1934 13L 71.1934 8.26953C 71.1934 7.85026 71.1022 7.5472 70.9199 7.36035C 70.7376 7.16895 70.4346 7.07324 70.0107 7.07324C 69.4548 7.07324 69.0378 7.31022 68.7598 7.78418L 68.7598 13L 66.7842 13L 66.7842 5.60352L 68.6436 5.60352Z"/>
<path id="path9_stroke" d="M 0 0L 2.01786 0L 2.01786 -2L 0 -2L 0 0ZM 6.05357 0L 10.0893 0L 10.0893 -2L 6.05357 -2L 6.05357 0ZM 14.125 0L 18.1607 0L 18.1607 -2L 14.125 -2L 14.125 0ZM 22.1964 0L 26.2321 0L 26.2321 -2L 22.1964 -2L 22.1964 0ZM 30.2679 0L 34.3036 0L 34.3036 -2L 30.2679 -2L 30.2679 0ZM 38.3393 0L 42.375 0L 42.375 -2L 38.3393 -2L 38.3393 0ZM 46.4107 0L 50.4464 0L 50.4464 -2L 46.4107 -2L 46.4107 0ZM 54.4821 0L 58.5179 0L 58.5179 -2L 54.4821 -2L 54.4821 0ZM 62.5536 0L 66.5893 0L 66.5893 -2L 62.5536 -2L 62.5536 0ZM 70.625 0L 74.6607 0L 74.6607 -2L 70.625 -2L 70.625 0ZM 78.6964 0L 82.7321 0L 82.7321 -2L 78.6964 -2L 78.6964 0ZM 86.7679 0L 90.8036 0L 90.8036 -2L 86.7679 -2L 86.7679 0ZM 94.8393 0L 98.875 0L 98.875 -2L 94.8393 -2L 94.8393 0ZM 102.911 0L 106.946 0L 106.946 -2L 102.911 -2L 102.911 0ZM 110.982 0L 113 0L 113 -2L 110.982 -2L 110.982 0Z"/>
<path id="path10_fill" d="M 5.93652 13L 3.96094 13L 3.96094 5.38477L 1.60254 6.11621L 1.60254 4.50977L 5.72461 3.0332L 5.93652 3.0332L 5.93652 13ZM 15.876 8.88477C 15.876 10.2611 15.5911 11.3138 15.0215 12.043C 14.4518 12.7721 13.6178 13.1367 12.5195 13.1367C 11.4349 13.1367 10.6055 12.779 10.0312 12.0635C 9.45703 11.348 9.16309 10.3226 9.14941 8.9873L 9.14941 7.15527C 9.14941 5.7653 9.43652 4.71029 10.0107 3.99023C 10.5895 3.27018 11.4212 2.91016 12.5059 2.91016C 13.5905 2.91016 14.4199 3.2679 14.9941 3.9834C 15.5684 4.69434 15.8623 5.71745 15.876 7.05273L 15.876 8.88477ZM 13.9004 6.875C 13.9004 6.05013 13.7865 5.45085 13.5586 5.07715C 13.3353 4.69889 12.9844 4.50977 12.5059 4.50977C 12.041 4.50977 11.6969 4.68978 11.4736 5.0498C 11.2549 5.40527 11.1387 5.96354 11.125 6.72461L 11.125 9.14453C 11.125 9.95573 11.2344 10.5596 11.4531 10.9561C 11.6764 11.348 12.0319 11.5439 12.5195 11.5439C 13.0026 11.5439 13.3512 11.3548 13.5654 10.9766C 13.7796 10.5983 13.8913 10.0195 13.9004 9.24023L 13.9004 6.875Z"/>
<path id="path11_fill" d="M 6.50781 10.9492L 2.91211 10.9492L 2.22852 13L 0.0478516 13L 3.75293 3.04688L 5.65332 3.04688L 9.37891 13L 7.19824 13L 6.50781 10.9492ZM 3.46582 9.28809L 5.9541 9.28809L 4.70312 5.5625L 3.46582 9.28809ZM 11.7031 5.60352L 11.7646 6.43066C 12.2887 5.78809 12.9974 5.4668 13.8906 5.4668C 14.8431 5.4668 15.4971 5.84277 15.8525 6.59473C 16.3721 5.84277 17.1126 5.4668 18.0742 5.4668C 18.8763 5.4668 19.4733 5.7015 19.8652 6.1709C 20.2572 6.63574 20.4531 7.33757 20.4531 8.27637L 20.4531 13L 18.4707 13L 18.4707 8.2832C 18.4707 7.86393 18.3887 7.55859 18.2246 7.36719C 18.0605 7.17122 17.7712 7.07324 17.3564 7.07324C 16.764 7.07324 16.3538 7.35579 16.126 7.9209L 16.1328 13L 14.1572 13L 14.1572 8.29004C 14.1572 7.86165 14.0729 7.55176 13.9043 7.36035C 13.7357 7.16895 13.4486 7.07324 13.043 7.07324C 12.4824 7.07324 12.0768 7.30566 11.8262 7.77051L 11.8262 13L 9.85059 13L 9.85059 5.60352L 11.7031 5.60352ZM 21.6699 9.2334C 21.6699 8.49967 21.8112 7.8457 22.0938 7.27148C 22.3763 6.69727 22.7819 6.25293 23.3105 5.93848C 23.8438 5.62402 24.4613 5.4668 25.1631 5.4668C 26.1611 5.4668 26.9746 5.77214 27.6035 6.38281C 28.237 6.99349 28.5902 7.82292 28.6631 8.87109L 28.6768 9.37695C 28.6768 10.5117 28.36 11.4232 27.7266 12.1113C 27.0931 12.7949 26.2432 13.1367 25.1768 13.1367C 24.1104 13.1367 23.2581 12.7949 22.6201 12.1113C 21.9867 11.4277 21.6699 10.498 21.6699 9.32227L 21.6699 9.2334ZM 23.6455 9.37695C 23.6455 10.0788 23.7777 10.6165 24.042 10.9902C 24.3063 11.3594 24.6846 11.5439 25.1768 11.5439C 25.6553 11.5439 26.029 11.3617 26.2979 10.9971C 26.5667 10.6279 26.7012 10.04 26.7012 9.2334C 26.7012 8.54525 26.5667 8.01204 26.2979 7.63379C 26.029 7.25553 25.6507 7.06641 25.1631 7.06641C 24.68 7.06641 24.3063 7.25553 24.042 7.63379C 23.7777 8.00749 23.6455 8.58854 23.6455 9.37695ZM 34.3232 12.248C 33.8356 12.8405 33.1611 13.1367 32.2998 13.1367C 31.5068 13.1367 30.9007 12.9089 30.4814 12.4531C 30.0667 11.9974 29.8548 11.3298 29.8457 10.4502L 29.8457 5.60352L 31.8213 5.60352L 31.8213 10.3818C 31.8213 11.152 32.1722 11.5371 32.874 11.5371C 33.5439 11.5371 34.0042 11.3047 34.2549 10.8398L 34.2549 5.60352L 36.2373 5.60352L 36.2373 13L 34.3779 13L 34.3232 12.248ZM 39.5459 5.60352L 39.6074 6.45801C 40.1361 5.7972 40.8447 5.4668 41.7334 5.4668C 42.5173 5.4668 43.1006 5.69694 43.4834 6.15723C 43.8662 6.61751 44.0622 7.30566 44.0713 8.22168L 44.0713 13L 42.0957 13L 42.0957 8.26953C 42.0957 7.85026 42.0046 7.5472 41.8223 7.36035C 41.64 7.16895 41.3369 7.07324 40.9131 7.07324C 40.3571 7.07324 39.9401 7.31022 39.6621 7.78418L 39.6621 13L 37.6865 13L 37.6865 5.60352L 39.5459 5.60352ZM 47.9404 3.78516L 47.9404 5.60352L 49.2051 5.60352L 49.2051 7.05273L 47.9404 7.05273L 47.9404 10.7441C 47.9404 11.0176 47.9928 11.2135 48.0977 11.332C 48.2025 11.4505 48.403 11.5098 48.6992 11.5098C 48.918 11.5098 49.1117 11.4938 49.2803 11.4619L 49.2803 12.959C 48.8929 13.0775 48.4941 13.1367 48.084 13.1367C 46.6986 13.1367 45.9922 12.4372 45.9648 11.0381L 45.9648 7.05273L 44.8848 7.05273L 44.8848 5.60352L 45.9648 5.60352L 45.9648 3.78516L 47.9404 3.78516ZM 53.8809 8.95312C 53.8809 7.90951 54.0199 6.91602 54.2979 5.97266C 54.5758 5.0293 54.986 4.19531 55.5283 3.4707C 56.0706 2.74154 56.6585 2.23568 57.292 1.95312L 57.6748 3.01953C 57.0094 3.51172 56.4899 4.27279 56.1162 5.30273C 55.7425 6.33268 55.5557 7.53581 55.5557 8.91211L 55.5557 9.12402C 55.5557 10.5049 55.7402 11.7126 56.1094 12.7471C 56.4785 13.7816 57.0003 14.554 57.6748 15.0645L 57.292 16.1104C 56.6722 15.8324 56.0934 15.3402 55.5557 14.6338C 55.0225 13.932 54.6146 13.1208 54.332 12.2002C 54.0495 11.2796 53.8991 10.318 53.8809 9.31543L 53.8809 8.95312ZM 60.5664 5.60352L 60.6279 6.43066C 61.152 5.78809 61.8607 5.4668 62.7539 5.4668C 63.7064 5.4668 64.3604 5.84277 64.7158 6.59473C 65.2354 5.84277 65.9759 5.4668 66.9375 5.4668C 67.7396 5.4668 68.3366 5.7015 68.7285 6.1709C 69.1204 6.63574 69.3164 7.33757 69.3164 8.27637L 69.3164 13L 67.334 13L 67.334 8.2832C 67.334 7.86393 67.252 7.55859 67.0879 7.36719C 66.9238 7.17122 66.6344 7.07324 66.2197 7.07324C 65.6273 7.07324 65.2171 7.35579 64.9893 7.9209L 64.9961 13L 63.0205 13L 63.0205 8.29004C 63.0205 7.86165 62.9362 7.55176 62.7676 7.36035C 62.599 7.16895 62.3118 7.07324 61.9062 7.07324C 61.3457 7.07324 60.9401 7.30566 60.6895 7.77051L 60.6895 13L 58.7139 13L 58.7139 5.60352L 60.5664 5.60352ZM 75.127 13C 75.0358 12.8223 74.9697 12.6012 74.9287 12.3369C 74.4502 12.8701 73.8281 13.1367 73.0625 13.1367C 72.3379 13.1367 71.7363 12.9271 71.2578 12.5078C 70.7839 12.0885 70.5469 11.5599 70.5469 10.9219C 70.5469 10.138 70.8363 9.53646 71.415 9.11719C 71.9984 8.69792 72.8392 8.486 73.9375 8.48145L 74.8467 8.48145L 74.8467 8.05762C 74.8467 7.71582 74.7578 7.44238 74.5801 7.2373C 74.4069 7.03223 74.1312 6.92969 73.7529 6.92969C 73.4202 6.92969 73.1582 7.00944 72.9668 7.16895C 72.7799 7.32845 72.6865 7.5472 72.6865 7.8252L 70.7109 7.8252C 70.7109 7.39681 70.8431 7.00033 71.1074 6.63574C 71.3717 6.27116 71.7454 5.98633 72.2285 5.78125C 72.7116 5.57161 73.2539 5.4668 73.8555 5.4668C 74.7669 5.4668 75.4893 5.69694 76.0225 6.15723C 76.5602 6.61296 76.8291 7.25553 76.8291 8.08496L 76.8291 11.291C 76.8337 11.9928 76.9316 12.5238 77.123 12.8838L 77.123 13L 75.127 13ZM 73.4932 11.626C 73.7848 11.626 74.0537 11.5622 74.2998 11.4346C 74.5459 11.3024 74.7282 11.127 74.8467 10.9082L 74.8467 9.63672L 74.1084 9.63672C 73.1195 9.63672 72.5931 9.97852 72.5293 10.6621L 72.5225 10.7783C 72.5225 11.0244 72.609 11.2272 72.7822 11.3867C 72.9554 11.5462 73.1924 11.626 73.4932 11.626ZM 78.0596 9.24707C 78.0596 8.1123 78.3285 7.19857 78.8662 6.50586C 79.4085 5.81315 80.1377 5.4668 81.0537 5.4668C 81.8649 5.4668 82.4961 5.74479 82.9473 6.30078L 83.0293 5.60352L 84.8203 5.60352L 84.8203 12.7539C 84.8203 13.401 84.6722 13.9639 84.376 14.4424C 84.0843 14.9209 83.6719 15.2855 83.1387 15.5361C 82.6055 15.7868 81.9811 15.9121 81.2656 15.9121C 80.7233 15.9121 80.1947 15.8027 79.6797 15.584C 79.1647 15.3698 78.7751 15.0918 78.5107 14.75L 79.3857 13.5469C 79.8779 14.0983 80.4749 14.374 81.1768 14.374C 81.7008 14.374 82.1087 14.2327 82.4004 13.9502C 82.6921 13.6722 82.8379 13.2757 82.8379 12.7607L 82.8379 12.3643C 82.3822 12.8792 81.7829 13.1367 81.04 13.1367C 80.1514 13.1367 79.4313 12.7904 78.8799 12.0977C 78.333 11.4004 78.0596 10.4775 78.0596 9.3291L 78.0596 9.24707ZM 80.0352 9.39062C 80.0352 10.0605 80.1696 10.5869 80.4385 10.9697C 80.7074 11.348 81.0765 11.5371 81.5459 11.5371C 82.1475 11.5371 82.5781 11.3115 82.8379 10.8604L 82.8379 7.75C 82.5736 7.29883 82.1475 7.07324 81.5596 7.07324C 81.0856 7.07324 80.7119 7.26693 80.4385 7.6543C 80.1696 8.04167 80.0352 8.62044 80.0352 9.39062ZM 88.1631 5.60352L 88.2246 6.45801C 88.7533 5.7972 89.4619 5.4668 90.3506 5.4668C 91.1344 5.4668 91.7178 5.69694 92.1006 6.15723C 92.4834 6.61751 92.6794 7.30566 92.6885 8.22168L 92.6885 13L 90.7129 13L 90.7129 8.26953C 90.7129 7.85026 90.6217 7.5472 90.4395 7.36035C 90.2572 7.16895 89.9541 7.07324 89.5303 7.07324C 88.9743 7.07324 88.5573 7.31022 88.2793 7.78418L 88.2793 13L 86.3037 13L 86.3037 5.60352L 88.1631 5.60352ZM 96.2773 13L 94.2949 13L 94.2949 5.60352L 96.2773 5.60352L 96.2773 13ZM 94.1787 3.68945C 94.1787 3.39323 94.2767 3.14941 94.4727 2.95801C 94.6732 2.7666 94.9443 2.6709 95.2861 2.6709C 95.6234 2.6709 95.8923 2.7666 96.0928 2.95801C 96.2933 3.14941 96.3936 3.39323 96.3936 3.68945C 96.3936 3.99023 96.291 4.23633 96.0859 4.42773C 95.8854 4.61914 95.6188 4.71484 95.2861 4.71484C 94.9535 4.71484 94.6846 4.61914 94.4795 4.42773C 94.279 4.23633 94.1787 3.99023 94.1787 3.68945ZM 100.276 3.78516L 100.276 5.60352L 101.541 5.60352L 101.541 7.05273L 100.276 7.05273L 100.276 10.7441C 100.276 11.0176 100.329 11.2135 100.434 11.332C 100.538 11.4505 100.739 11.5098 101.035 11.5098C 101.254 11.5098 101.448 11.4938 101.616 11.4619L 101.616 12.959C 101.229 13.0775 100.83 13.1367 100.42 13.1367C 99.0345 13.1367 98.3281 12.4372 98.3008 11.0381L 98.3008 7.05273L 97.2207 7.05273L 97.2207 5.60352L 98.3008 5.60352L 98.3008 3.78516L 100.276 3.78516ZM 107.071 12.248C 106.584 12.8405 105.909 13.1367 105.048 13.1367C 104.255 13.1367 103.649 12.9089 103.229 12.4531C 102.815 11.9974 102.603 11.3298 102.594 10.4502L 102.594 5.60352L 104.569 5.60352L 104.569 10.3818C 104.569 11.152 104.92 11.5371 105.622 11.5371C 106.292 11.5371 106.752 11.3047 107.003 10.8398L 107.003 5.60352L 108.985 5.60352L 108.985 13L 107.126 13L 107.071 12.248ZM 110.168 9.24707C 110.168 8.09408 110.425 7.17578 110.94 6.49219C 111.46 5.80859 112.169 5.4668 113.066 5.4668C 113.786 5.4668 114.381 5.73568 114.851 6.27344L 114.851 2.5L 116.833 2.5L 116.833 13L 115.049 13L 114.953 12.2139C 114.461 12.8291 113.827 13.1367 113.053 13.1367C 112.182 13.1367 111.483 12.7949 110.954 12.1113C 110.43 11.4232 110.168 10.4684 110.168 9.24707ZM 112.144 9.39062C 112.144 10.0833 112.264 10.6143 112.506 10.9834C 112.747 11.3525 113.098 11.5371 113.559 11.5371C 114.169 11.5371 114.6 11.2796 114.851 10.7646L 114.851 7.8457C 114.604 7.33073 114.178 7.07324 113.572 7.07324C 112.62 7.07324 112.144 7.8457 112.144 9.39062ZM 121.769 13.1367C 120.684 13.1367 119.8 12.804 119.116 12.1387C 118.437 11.4733 118.098 10.5869 118.098 9.47949L 118.098 9.28809C 118.098 8.54525 118.241 7.88216 118.528 7.29883C 118.815 6.71094 119.221 6.25977 119.745 5.94531C 120.274 5.6263 120.875 5.4668 121.55 5.4668C 122.562 5.4668 123.357 5.78581 123.936 6.42383C 124.519 7.06185 124.811 7.96647 124.811 9.1377L 124.811 9.94434L 120.101 9.94434C 120.164 10.4274 120.356 10.8148 120.675 11.1064C 120.998 11.3981 121.406 11.5439 121.898 11.5439C 122.66 11.5439 123.254 11.2682 123.683 10.7168L 124.653 11.8037C 124.357 12.223 123.956 12.5511 123.45 12.7881C 122.944 13.0205 122.384 13.1367 121.769 13.1367ZM 121.543 7.06641C 121.151 7.06641 120.832 7.19857 120.586 7.46289C 120.344 7.72721 120.189 8.10547 120.121 8.59766L 122.869 8.59766L 122.869 8.44043C 122.86 8.00293 122.742 7.66569 122.514 7.42871C 122.286 7.18717 121.962 7.06641 121.543 7.06641ZM 129.343 9.11035C 129.343 10.1403 129.195 11.1315 128.898 12.084C 128.602 13.0365 128.176 13.8773 127.62 14.6064C 127.064 15.3356 126.469 15.8369 125.836 16.1104L 125.453 15.0645C 126.1 14.5768 126.611 13.8249 126.984 12.8086C 127.358 11.7923 127.552 10.6234 127.565 9.30176L 127.565 8.93945C 127.565 7.57682 127.379 6.37598 127.005 5.33691C 126.636 4.29785 126.118 3.51855 125.453 2.99902L 125.836 1.95312C 126.456 2.22201 127.039 2.70964 127.586 3.41602C 128.137 4.1224 128.563 4.94499 128.864 5.88379C 129.17 6.82259 129.329 7.79557 129.343 8.80273L 129.343 9.11035Z"/>
</defs>
</svg>
