<svg width="659" height="180" viewBox="0 0 659 180" version="1.1" xmlns="http://www.w3.org/2000/svg" xmlns:xlink="http://www.w3.org/1999/xlink">
<g id="Canvas" fill="none">
<rect width="659" height="180" fill="white"/>
<g id="Line 4.7">
<line y1="-0.5" x2="200" y2="-0.5" stroke-dasharray="3 3" transform="translate(203 67) scale(-1)" stroke="black"/>
</g>
<g id="Line 4.6">
<line y1="-0.5" x2="448.004" y2="-0.5" stroke-dasharray="3 3" transform="translate(653.004 67) scale(-1)" stroke="black"/>
</g>
<g id="Line 5.7">
<line y1="-0.5" x2="80.025" y2="-0.5" stroke-dasharray="3 3" transform="matrix(0 -1 1 0 4 149.025)" stroke="black"/>
</g>
<g id="Line 5.6">
<line y1="-0.5" x2="80" y2="-0.5" stroke-dasharray="3 3" transform="matrix(0 1 -1 0 653 69)" stroke="black"/>
</g>
<g id="4 units away">
<path d="M 5.8584 9.65723L 7.19824 9.65723L 7.01367 10.6895L 5.68066 10.6895L 5.27734 13L 4.0332 13L 4.43652 10.6895L 0.0341797 10.6895L 0.177734 9.87598L 5.64648 3.04688L 7 3.04688L 5.8584 9.65723ZM 1.66113 9.65723L 4.61426 9.65723L 5.50293 4.7627L 5.30469 5.0498L 1.66113 9.65723ZM 16.0371 12.2686C 15.4583 12.8656 14.7223 13.1549 13.8291 13.1367C 13.1227 13.1185 12.5986 12.8656 12.2568 12.3779C 11.9196 11.8903 11.7943 11.2249 11.8809 10.3818L 12.6738 5.60352L 13.9111 5.60352L 13.1113 10.4023C 13.0885 10.6029 13.084 10.7988 13.0977 10.9902C 13.1204 11.3184 13.2184 11.5758 13.3916 11.7627C 13.5648 11.9495 13.8063 12.0498 14.1162 12.0635C 15.0003 12.0908 15.6839 11.7331 16.167 10.9902L 17.0967 5.60352L 18.334 5.60352L 17.0488 13L 15.8799 13L 16.0371 12.2686ZM 21.3555 5.59668L 21.1777 6.5332C 21.8431 5.80404 22.5996 5.44857 23.4473 5.4668C 24.1445 5.48503 24.6595 5.72656 24.9922 6.19141C 25.3249 6.65625 25.4479 7.31022 25.3613 8.15332L 24.5547 13L 23.3174 13L 24.1309 8.13281C 24.1582 7.90951 24.1605 7.70215 24.1377 7.51074C 24.0602 6.87272 23.6842 6.54688 23.0098 6.5332C 22.2669 6.51953 21.6152 6.91602 21.0547 7.72266L 20.1387 13L 18.9014 13L 20.1865 5.60352L 21.3555 5.59668ZM 27.8018 13L 26.5713 13L 27.8564 5.60352L 29.0869 5.60352L 27.8018 13ZM 28.8203 2.90332C 29.0299 2.89421 29.2031 2.95801 29.3398 3.09473C 29.4811 3.22689 29.5518 3.40234 29.5518 3.62109C 29.5472 3.83529 29.4766 4.01074 29.3398 4.14746C 29.2077 4.28418 29.0345 4.3571 28.8203 4.36621C 28.6061 4.37533 28.4307 4.3138 28.2939 4.18164C 28.1572 4.04948 28.0911 3.8763 28.0957 3.66211C 28.1003 3.44792 28.1686 3.27018 28.3008 3.12891C 28.4329 2.98763 28.6061 2.91243 28.8203 2.90332ZM 33.0928 3.8125L 32.7783 5.60352L 34.125 5.60352L 33.9541 6.58105L 32.6143 6.58105L 31.8418 11.1816C 31.8281 11.3001 31.8258 11.4095 31.835 11.5098C 31.8669 11.8652 32.0605 12.043 32.416 12.043C 32.5664 12.043 32.7669 12.0202 33.0176 11.9746L 32.9219 13.0068C 32.6257 13.0889 32.3249 13.1299 32.0195 13.1299C 31.5273 13.1208 31.1582 12.9408 30.9121 12.5898C 30.666 12.2344 30.5703 11.7581 30.625 11.1611L 31.377 6.58105L 30.0713 6.58105L 30.2422 5.60352L 31.5479 5.60352L 31.8623 3.8125L 33.0928 3.8125ZM 38.917 10.9971C 38.9854 10.4867 38.7051 10.1266 38.0762 9.91699L 36.791 9.54102C 35.7064 9.16732 35.1823 8.54753 35.2188 7.68164C 35.2507 7.02995 35.5469 6.49674 36.1074 6.08203C 36.6725 5.66276 37.3356 5.45768 38.0967 5.4668C 38.8441 5.47591 39.4502 5.69466 39.915 6.12305C 40.3844 6.54688 40.61 7.10059 40.5918 7.78418L 39.3613 7.77734C 39.3704 7.4082 39.2542 7.10742 39.0127 6.875C 38.7712 6.64258 38.4499 6.52181 38.0488 6.5127C 37.6204 6.50358 37.2513 6.6084 36.9414 6.82715C 36.6543 7.03223 36.488 7.30111 36.4424 7.63379C 36.3831 8.06217 36.6452 8.37435 37.2285 8.57031L 37.8506 8.74121C 38.6982 8.95996 39.2998 9.24479 39.6553 9.5957C 40.0107 9.94661 40.1748 10.3818 40.1475 10.9014C 40.1201 11.3617 39.9697 11.7627 39.6963 12.1045C 39.4229 12.4463 39.0583 12.7083 38.6025 12.8906C 38.1468 13.0684 37.6615 13.1504 37.1465 13.1367C 36.3626 13.1276 35.7155 12.8997 35.2051 12.4531C 34.6947 12.002 34.4486 11.4232 34.4668 10.7168L 35.7041 10.7236C 35.7041 11.1383 35.8363 11.471 36.1006 11.7217C 36.3649 11.9723 36.7272 12.0977 37.1875 12.0977C 37.6387 12.1068 38.0283 12.0133 38.3564 11.8174C 38.6846 11.6169 38.8714 11.3434 38.917 10.9971ZM 49.3623 13C 49.3304 12.8678 49.3145 12.738 49.3145 12.6104L 49.335 12.2207C 48.6559 12.8496 47.9359 13.1549 47.1748 13.1367C 46.5231 13.1276 45.9922 12.9225 45.582 12.5215C 45.1764 12.1159 44.9919 11.61 45.0283 11.0039C 45.0739 10.2201 45.4157 9.60938 46.0537 9.17188C 46.6963 8.72982 47.5394 8.50879 48.583 8.50879L 49.875 8.51562L 49.957 7.92773C 50.0026 7.48568 49.916 7.13704 49.6973 6.88184C 49.4831 6.62207 49.1595 6.48763 48.7266 6.47852C 48.3027 6.4694 47.9268 6.57422 47.5986 6.79297C 47.2751 7.00716 47.0768 7.29199 47.0039 7.64746L 45.7598 7.6543C 45.8008 7.22135 45.9694 6.83854 46.2656 6.50586C 46.5618 6.16862 46.9424 5.90885 47.4072 5.72656C 47.8721 5.53971 48.3529 5.45085 48.8496 5.45996C 49.6198 5.47819 50.2191 5.71289 50.6475 6.16406C 51.0758 6.61068 51.2559 7.2054 51.1875 7.94824L 50.5859 11.6123L 50.5518 12.1387C 50.5426 12.3893 50.57 12.6377 50.6338 12.8838L 50.6201 13L 49.3623 13ZM 47.4209 12.043C 47.8174 12.0521 48.1911 11.9587 48.542 11.7627C 48.8975 11.5622 49.2028 11.2865 49.458 10.9355L 49.7246 9.41113L 48.7881 9.4043C 48.0088 9.4043 47.4118 9.52734 46.9971 9.77344C 46.5824 10.0195 46.3477 10.3682 46.293 10.8193C 46.252 11.1657 46.3317 11.4551 46.5322 11.6875C 46.7373 11.9154 47.0335 12.0339 47.4209 12.043ZM 58.9395 11.25L 61.2979 5.60352L 62.5762 5.60352L 59.2061 13L 58.2012 13L 57.4355 7.4082L 54.7695 13L 53.7646 13L 52.9648 5.60352L 54.1475 5.60352L 54.5986 11.1133L 57.2236 5.60352L 58.2217 5.60352L 58.9395 11.25ZM 67.1084 13C 67.0765 12.8678 67.0605 12.738 67.0605 12.6104L 67.0811 12.2207C 66.402 12.8496 65.682 13.1549 64.9209 13.1367C 64.2692 13.1276 63.7383 12.9225 63.3281 12.5215C 62.9225 12.1159 62.738 11.61 62.7744 11.0039C 62.82 10.2201 63.1618 9.60938 63.7998 9.17188C 64.4424 8.72982 65.2855 8.50879 66.3291 8.50879L 67.6211 8.51562L 67.7031 7.92773C 67.7487 7.48568 67.6621 7.13704 67.4434 6.88184C 67.2292 6.62207 66.9056 6.48763 66.4727 6.47852C 66.0488 6.4694 65.6729 6.57422 65.3447 6.79297C 65.0212 7.00716 64.8229 7.29199 64.75 7.64746L 63.5059 7.6543C 63.5469 7.22135 63.7155 6.83854 64.0117 6.50586C 64.3079 6.16862 64.6885 5.90885 65.1533 5.72656C 65.6182 5.53971 66.099 5.45085 66.5957 5.45996C 67.3659 5.47819 67.9652 5.71289 68.3936 6.16406C 68.8219 6.61068 69.002 7.2054 68.9336 7.94824L 68.332 11.6123L 68.2979 12.1387C 68.2887 12.3893 68.3161 12.6377 68.3799 12.8838L 68.3662 13L 67.1084 13ZM 65.167 12.043C 65.5635 12.0521 65.9372 11.9587 66.2881 11.7627C 66.6436 11.5622 66.9489 11.2865 67.2041 10.9355L 67.4707 9.41113L 66.5342 9.4043C 65.7549 9.4043 65.1579 9.52734 64.7432 9.77344C 64.3285 10.0195 64.0938 10.3682 64.0391 10.8193C 63.998 11.1657 64.0778 11.4551 64.2783 11.6875C 64.4834 11.9154 64.7796 12.0339 65.167 12.043ZM 72.5908 11.1338L 75.2227 5.60352L 76.5898 5.60352L 72.2012 14.2305C 71.5905 15.429 70.8066 16.0215 69.8496 16.0078C 69.681 16.0033 69.4326 15.9622 69.1045 15.8848L 69.2139 14.8594L 69.5352 14.8936C 69.9271 14.9118 70.2643 14.8229 70.5469 14.627C 70.834 14.4355 71.0869 14.1234 71.3057 13.6904L 71.75 12.8428L 70.4717 5.60352L 71.7637 5.60352L 72.5908 11.1338Z" transform="translate(65 50)" fill="black"/>
</g>
<g id="9 units away">
<path d="M 5.62598 8.625C 5.28874 8.98047 4.93099 9.24707 4.55273 9.4248C 4.17448 9.59798 3.7985 9.68001 3.4248 9.6709C 2.90072 9.66178 2.45182 9.51367 2.07812 9.22656C 1.70898 8.93945 1.43783 8.54525 1.26465 8.04395C 1.09603 7.54264 1.03906 6.99577 1.09375 6.40332C 1.15299 5.74707 1.33757 5.14551 1.64746 4.59863C 1.95736 4.05176 2.36068 3.63021 2.85742 3.33398C 3.35872 3.0332 3.91016 2.89193 4.51172 2.91016C 5.30469 2.92839 5.92676 3.21549 6.37793 3.77148C 6.8291 4.32747 7.07292 5.07259 7.10938 6.00684C 7.12305 6.49447 7.06608 7.10059 6.93848 7.8252C 6.6377 9.52962 6.04297 10.8148 5.1543 11.6807C 4.27018 12.542 3.13314 12.9863 1.74316 13.0137L 1.43555 13.0137L 1.54492 11.9473L 1.79785 11.9473C 2.77767 11.929 3.57975 11.6556 4.2041 11.127C 4.83301 10.5938 5.30697 9.75977 5.62598 8.625ZM 3.68457 8.625C 4.09928 8.64323 4.49805 8.52702 4.88086 8.27637C 5.26367 8.02116 5.57812 7.67936 5.82422 7.25098L 5.87891 6.75195L 5.89941 6.19824C 5.88118 5.49186 5.74902 4.94727 5.50293 4.56445C 5.26139 4.18164 4.91276 3.98112 4.45703 3.96289C 3.89193 3.9401 3.40885 4.15885 3.00781 4.61914C 2.61133 5.07487 2.38118 5.64681 2.31738 6.33496C 2.28548 6.61296 2.29004 6.89551 2.33105 7.18262C 2.37207 7.46973 2.4541 7.72266 2.57715 7.94141C 2.82324 8.38346 3.19238 8.61133 3.68457 8.625ZM 16.0371 12.2686C 15.4583 12.8656 14.7223 13.1549 13.8291 13.1367C 13.1227 13.1185 12.5986 12.8656 12.2568 12.3779C 11.9196 11.8903 11.7943 11.2249 11.8809 10.3818L 12.6738 5.60352L 13.9111 5.60352L 13.1113 10.4023C 13.0885 10.6029 13.084 10.7988 13.0977 10.9902C 13.1204 11.3184 13.2184 11.5758 13.3916 11.7627C 13.5648 11.9495 13.8063 12.0498 14.1162 12.0635C 15.0003 12.0908 15.6839 11.7331 16.167 10.9902L 17.0967 5.60352L 18.334 5.60352L 17.0488 13L 15.8799 13L 16.0371 12.2686ZM 21.3555 5.59668L 21.1777 6.5332C 21.8431 5.80404 22.5996 5.44857 23.4473 5.4668C 24.1445 5.48503 24.6595 5.72656 24.9922 6.19141C 25.3249 6.65625 25.4479 7.31022 25.3613 8.15332L 24.5547 13L 23.3174 13L 24.1309 8.13281C 24.1582 7.90951 24.1605 7.70215 24.1377 7.51074C 24.0602 6.87272 23.6842 6.54688 23.0098 6.5332C 22.2669 6.51953 21.6152 6.91602 21.0547 7.72266L 20.1387 13L 18.9014 13L 20.1865 5.60352L 21.3555 5.59668ZM 27.8018 13L 26.5713 13L 27.8564 5.60352L 29.0869 5.60352L 27.8018 13ZM 28.8203 2.90332C 29.0299 2.89421 29.2031 2.95801 29.3398 3.09473C 29.4811 3.22689 29.5518 3.40234 29.5518 3.62109C 29.5472 3.83529 29.4766 4.01074 29.3398 4.14746C 29.2077 4.28418 29.0345 4.3571 28.8203 4.36621C 28.6061 4.37533 28.4307 4.3138 28.2939 4.18164C 28.1572 4.04948 28.0911 3.8763 28.0957 3.66211C 28.1003 3.44792 28.1686 3.27018 28.3008 3.12891C 28.4329 2.98763 28.6061 2.91243 28.8203 2.90332ZM 33.0928 3.8125L 32.7783 5.60352L 34.125 5.60352L 33.9541 6.58105L 32.6143 6.58105L 31.8418 11.1816C 31.8281 11.3001 31.8258 11.4095 31.835 11.5098C 31.8669 11.8652 32.0605 12.043 32.416 12.043C 32.5664 12.043 32.7669 12.0202 33.0176 11.9746L 32.9219 13.0068C 32.6257 13.0889 32.3249 13.1299 32.0195 13.1299C 31.5273 13.1208 31.1582 12.9408 30.9121 12.5898C 30.666 12.2344 30.5703 11.7581 30.625 11.1611L 31.377 6.58105L 30.0713 6.58105L 30.2422 5.60352L 31.5479 5.60352L 31.8623 3.8125L 33.0928 3.8125ZM 38.917 10.9971C 38.9854 10.4867 38.7051 10.1266 38.0762 9.91699L 36.791 9.54102C 35.7064 9.16732 35.1823 8.54753 35.2188 7.68164C 35.2507 7.02995 35.5469 6.49674 36.1074 6.08203C 36.6725 5.66276 37.3356 5.45768 38.0967 5.4668C 38.8441 5.47591 39.4502 5.69466 39.915 6.12305C 40.3844 6.54688 40.61 7.10059 40.5918 7.78418L 39.3613 7.77734C 39.3704 7.4082 39.2542 7.10742 39.0127 6.875C 38.7712 6.64258 38.4499 6.52181 38.0488 6.5127C 37.6204 6.50358 37.2513 6.6084 36.9414 6.82715C 36.6543 7.03223 36.488 7.30111 36.4424 7.63379C 36.3831 8.06217 36.6452 8.37435 37.2285 8.57031L 37.8506 8.74121C 38.6982 8.95996 39.2998 9.24479 39.6553 9.5957C 40.0107 9.94661 40.1748 10.3818 40.1475 10.9014C 40.1201 11.3617 39.9697 11.7627 39.6963 12.1045C 39.4229 12.4463 39.0583 12.7083 38.6025 12.8906C 38.1468 13.0684 37.6615 13.1504 37.1465 13.1367C 36.3626 13.1276 35.7155 12.8997 35.2051 12.4531C 34.6947 12.002 34.4486 11.4232 34.4668 10.7168L 35.7041 10.7236C 35.7041 11.1383 35.8363 11.471 36.1006 11.7217C 36.3649 11.9723 36.7272 12.0977 37.1875 12.0977C 37.6387 12.1068 38.0283 12.0133 38.3564 11.8174C 38.6846 11.6169 38.8714 11.3434 38.917 10.9971ZM 49.3623 13C 49.3304 12.8678 49.3145 12.738 49.3145 12.6104L 49.335 12.2207C 48.6559 12.8496 47.9359 13.1549 47.1748 13.1367C 46.5231 13.1276 45.9922 12.9225 45.582 12.5215C 45.1764 12.1159 44.9919 11.61 45.0283 11.0039C 45.0739 10.2201 45.4157 9.60938 46.0537 9.17188C 46.6963 8.72982 47.5394 8.50879 48.583 8.50879L 49.875 8.51562L 49.957 7.92773C 50.0026 7.48568 49.916 7.13704 49.6973 6.88184C 49.4831 6.62207 49.1595 6.48763 48.7266 6.47852C 48.3027 6.4694 47.9268 6.57422 47.5986 6.79297C 47.2751 7.00716 47.0768 7.29199 47.0039 7.64746L 45.7598 7.6543C 45.8008 7.22135 45.9694 6.83854 46.2656 6.50586C 46.5618 6.16862 46.9424 5.90885 47.4072 5.72656C 47.8721 5.53971 48.3529 5.45085 48.8496 5.45996C 49.6198 5.47819 50.2191 5.71289 50.6475 6.16406C 51.0758 6.61068 51.2559 7.2054 51.1875 7.94824L 50.5859 11.6123L 50.5518 12.1387C 50.5426 12.3893 50.57 12.6377 50.6338 12.8838L 50.6201 13L 49.3623 13ZM 47.4209 12.043C 47.8174 12.0521 48.1911 11.9587 48.542 11.7627C 48.8975 11.5622 49.2028 11.2865 49.458 10.9355L 49.7246 9.41113L 48.7881 9.4043C 48.0088 9.4043 47.4118 9.52734 46.9971 9.77344C 46.5824 10.0195 46.3477 10.3682 46.293 10.8193C 46.252 11.1657 46.3317 11.4551 46.5322 11.6875C 46.7373 11.9154 47.0335 12.0339 47.4209 12.043ZM 58.9395 11.25L 61.2979 5.60352L 62.5762 5.60352L 59.2061 13L 58.2012 13L 57.4355 7.4082L 54.7695 13L 53.7646 13L 52.9648 5.60352L 54.1475 5.60352L 54.5986 11.1133L 57.2236 5.60352L 58.2217 5.60352L 58.9395 11.25ZM 67.1084 13C 67.0765 12.8678 67.0605 12.738 67.0605 12.6104L 67.0811 12.2207C 66.402 12.8496 65.682 13.1549 64.9209 13.1367C 64.2692 13.1276 63.7383 12.9225 63.3281 12.5215C 62.9225 12.1159 62.738 11.61 62.7744 11.0039C 62.82 10.2201 63.1618 9.60938 63.7998 9.17188C 64.4424 8.72982 65.2855 8.50879 66.3291 8.50879L 67.6211 8.51562L 67.7031 7.92773C 67.7487 7.48568 67.6621 7.13704 67.4434 6.88184C 67.2292 6.62207 66.9056 6.48763 66.4727 6.47852C 66.0488 6.4694 65.6729 6.57422 65.3447 6.79297C 65.0212 7.00716 64.8229 7.29199 64.75 7.64746L 63.5059 7.6543C 63.5469 7.22135 63.7155 6.83854 64.0117 6.50586C 64.3079 6.16862 64.6885 5.90885 65.1533 5.72656C 65.6182 5.53971 66.099 5.45085 66.5957 5.45996C 67.3659 5.47819 67.9652 5.71289 68.3936 6.16406C 68.8219 6.61068 69.002 7.2054 68.9336 7.94824L 68.332 11.6123L 68.2979 12.1387C 68.2887 12.3893 68.3161 12.6377 68.3799 12.8838L 68.3662 13L 67.1084 13ZM 65.167 12.043C 65.5635 12.0521 65.9372 11.9587 66.2881 11.7627C 66.6436 11.5622 66.9489 11.2865 67.2041 10.9355L 67.4707 9.41113L 66.5342 9.4043C 65.7549 9.4043 65.1579 9.52734 64.7432 9.77344C 64.3285 10.0195 64.0938 10.3682 64.0391 10.8193C 63.998 11.1657 64.0778 11.4551 64.2783 11.6875C 64.4834 11.9154 64.7796 12.0339 65.167 12.043ZM 72.5908 11.1338L 75.2227 5.60352L 76.5898 5.60352L 72.2012 14.2305C 71.5905 15.429 70.8066 16.0215 69.8496 16.0078C 69.681 16.0033 69.4326 15.9622 69.1045 15.8848L 69.2139 14.8594L 69.5352 14.8936C 69.9271 14.9118 70.2643 14.8229 70.5469 14.627C 70.834 14.4355 71.0869 14.1234 71.3057 13.6904L 71.75 12.8428L 70.4717 5.60352L 71.7637 5.60352L 72.5908 11.1338Z" transform="translate(398 50)" fill="black"/>
</g>
<g id="Line">
<line y1="-0.5" x2="650.001" y2="-0.5" transform="translate(2.99991 158.744)" stroke="black"/>
</g>
<g id="Line 2.11">
<line y1="-0.5" x2="14" y2="-0.5" transform="matrix(0 1 -1 0 3 151)" stroke="black"/>
</g>
<g id="Line 2.12">
<line y1="-0.5" x2="14" y2="-0.5" transform="matrix(0 1 -1 0 53 151)" stroke="black"/>
</g>
<g id="Line 2.13">
<line y1="-0.5" x2="14" y2="-0.5" transform="matrix(0 1 -1 0 103 151)" stroke="black"/>
</g>
<g id="Line 2.14">
<line y1="-0.5" x2="14" y2="-0.5" transform="matrix(0 1 -1 0 153 151)" stroke="black"/>
</g>
<g id="Line 2.15">
<line y1="-0.5" x2="14" y2="-0.5" transform="matrix(0 1 -1 0 203 151)" stroke="black"/>
</g>
<g id="Line 2.16">
<line y1="-0.5" x2="14" y2="-0.5" transform="matrix(0 1 -1 0 253 151)" stroke="black"/>
</g>
<g id="Line 2.17">
<line y1="-0.5" x2="14" y2="-0.5" transform="matrix(0 1 -1 0 303 151)" stroke="black"/>
</g>
<g id="Line 2.18">
<line y1="-0.5" x2="14" y2="-0.5" transform="matrix(0 1 -1 0 353 151)" stroke="black"/>
</g>
<g id="Line 2.19">
<line y1="-0.5" x2="14" y2="-0.5" transform="matrix(0 1 -1 0 403 151)" stroke="black"/>
</g>
<g id="Line 2.20">
<line y1="-0.5" x2="14" y2="-0.5" transform="matrix(0 1 -1 0 453 151)" stroke="black"/>
</g>
<g id="Line 2.21">
<line y1="-0.5" x2="14" y2="-0.5" transform="matrix(0 1 -1 0 503 151)" stroke="black"/>
</g>
<g id="Line 2.22">
<line y1="-0.5" x2="14" y2="-0.5" transform="matrix(0 1 -1 0 553 151)" stroke="black"/>
</g>
<g id="Line 2.23">
<line y1="-0.5" x2="14" y2="-0.5" transform="matrix(0 1 -1 0 603 151)" stroke="black"/>
</g>
<g id="Line 2.24">
<line y1="-0.5" x2="14" y2="-0.5" transform="matrix(0 1 -1 0 653 151)" stroke="black"/>
</g>
<g id="0">
<path d="M 6.05859 7.36133C 6.05859 8.63086 5.8418 9.57422 5.4082 10.1914C 4.97461 10.8086 4.29688 11.1172 3.375 11.1172C 2.46484 11.1172 1.79102 10.8164 1.35352 10.2148C 0.916016 9.60938 0.689453 8.70703 0.673828 7.50781L 0.673828 6.06055C 0.673828 4.80664 0.890625 3.875 1.32422 3.26562C 1.75781 2.65625 2.4375 2.35156 3.36328 2.35156C 4.28125 2.35156 4.95703 2.64648 5.39062 3.23633C 5.82422 3.82227 6.04688 4.72852 6.05859 5.95508L 6.05859 7.36133ZM 4.97461 5.87891C 4.97461 4.96094 4.8457 4.29297 4.58789 3.875C 4.33008 3.45312 3.92188 3.24219 3.36328 3.24219C 2.80859 3.24219 2.4043 3.45117 2.15039 3.86914C 1.89648 4.28711 1.76562 4.92969 1.75781 5.79688L 1.75781 7.53125C 1.75781 8.45312 1.89062 9.13477 2.15625 9.57617C 2.42578 10.0137 2.83203 10.2324 3.375 10.2324C 3.91016 10.2324 4.30664 10.0254 4.56445 9.61133C 4.82617 9.19727 4.96289 8.54492 4.97461 7.6543L 4.97461 5.87891Z" transform="translate(0 167)" fill="black"/>
</g>
<g id="1">
<path d="M 4.27148 11L 3.18164 11L 3.18164 3.77539L 0.996094 4.57812L 0.996094 3.59375L 4.10156 2.42773L 4.27148 2.42773L 4.27148 11Z" transform="translate(50 168)" fill="black"/>
</g>
<g id="2">
<path d="M 6.29883 11L 0.708984 11L 0.708984 10.2207L 3.66211 6.93945C 4.09961 6.44336 4.40039 6.04102 4.56445 5.73242C 4.73242 5.41992 4.81641 5.09766 4.81641 4.76562C 4.81641 4.32031 4.68164 3.95508 4.41211 3.66992C 4.14258 3.38477 3.7832 3.24219 3.33398 3.24219C 2.79492 3.24219 2.375 3.39648 2.07422 3.70508C 1.77734 4.00977 1.62891 4.43555 1.62891 4.98242L 0.544922 4.98242C 0.544922 4.19727 0.796875 3.5625 1.30078 3.07812C 1.80859 2.59375 2.48633 2.35156 3.33398 2.35156C 4.12695 2.35156 4.75391 2.56055 5.21484 2.97852C 5.67578 3.39258 5.90625 3.94531 5.90625 4.63672C 5.90625 5.47656 5.37109 6.47656 4.30078 7.63672L 2.01562 10.1152L 6.29883 10.1152L 6.29883 11Z" transform="translate(100 168)" fill="black"/>
</g>
<g id="3">
<path d="M 2.28516 6.20703L 3.09961 6.20703C 3.61133 6.19922 4.01367 6.06445 4.30664 5.80273C 4.59961 5.54102 4.74609 5.1875 4.74609 4.74219C 4.74609 3.74219 4.24805 3.24219 3.25195 3.24219C 2.7832 3.24219 2.4082 3.37695 2.12695 3.64648C 1.84961 3.91211 1.71094 4.26562 1.71094 4.70703L 0.626953 4.70703C 0.626953 4.03125 0.873047 3.4707 1.36523 3.02539C 1.86133 2.57617 2.49023 2.35156 3.25195 2.35156C 4.05664 2.35156 4.6875 2.56445 5.14453 2.99023C 5.60156 3.41602 5.83008 4.00781 5.83008 4.76562C 5.83008 5.13672 5.70898 5.49609 5.4668 5.84375C 5.22852 6.19141 4.90234 6.45117 4.48828 6.62305C 4.95703 6.77148 5.31836 7.01758 5.57227 7.36133C 5.83008 7.70508 5.95898 8.125 5.95898 8.62109C 5.95898 9.38672 5.70898 9.99414 5.20898 10.4434C 4.70898 10.8926 4.05859 11.1172 3.25781 11.1172C 2.45703 11.1172 1.80469 10.9004 1.30078 10.4668C 0.800781 10.0332 0.550781 9.46094 0.550781 8.75L 1.64062 8.75C 1.64062 9.19922 1.78711 9.55859 2.08008 9.82812C 2.37305 10.0977 2.76562 10.2324 3.25781 10.2324C 3.78125 10.2324 4.18164 10.0957 4.45898 9.82227C 4.73633 9.54883 4.875 9.15625 4.875 8.64453C 4.875 8.14844 4.72266 7.76758 4.41797 7.50195C 4.11328 7.23633 3.67383 7.09961 3.09961 7.0918L 2.28516 7.0918L 2.28516 6.20703Z" transform="translate(150 168)" fill="black"/>
</g>
<g id="4">
<path d="M 5.28516 8.13477L 6.46875 8.13477L 6.46875 9.01953L 5.28516 9.01953L 5.28516 11L 4.19531 11L 4.19531 9.01953L 0.310547 9.01953L 0.310547 8.38086L 4.13086 2.46875L 5.28516 2.46875L 5.28516 8.13477ZM 1.54102 8.13477L 4.19531 8.13477L 4.19531 3.95117L 4.06641 4.18555L 1.54102 8.13477Z" transform="translate(200 168)" fill="black"/>
</g>
<g id="5">
<path d="M 1.20703 6.72266L 1.64062 2.46875L 6.01172 2.46875L 6.01172 3.4707L 2.56055 3.4707L 2.30273 5.79688C 2.7207 5.55078 3.19531 5.42773 3.72656 5.42773C 4.50391 5.42773 5.12109 5.68555 5.57812 6.20117C 6.03516 6.71289 6.26367 7.40625 6.26367 8.28125C 6.26367 9.16016 6.02539 9.85352 5.54883 10.3613C 5.07617 10.8652 4.41406 11.1172 3.5625 11.1172C 2.80859 11.1172 2.19336 10.9082 1.7168 10.4902C 1.24023 10.0723 0.96875 9.49414 0.902344 8.75586L 1.92773 8.75586C 1.99414 9.24414 2.16797 9.61328 2.44922 9.86328C 2.73047 10.1094 3.10156 10.2324 3.5625 10.2324C 4.06641 10.2324 4.46094 10.0605 4.74609 9.7168C 5.03516 9.37305 5.17969 8.89844 5.17969 8.29297C 5.17969 7.72266 5.02344 7.26562 4.71094 6.92188C 4.40234 6.57422 3.99023 6.40039 3.47461 6.40039C 3.00195 6.40039 2.63086 6.50391 2.36133 6.71094L 2.07422 6.94531L 1.20703 6.72266Z" transform="translate(250 168)" fill="black"/>
</g>
<g id="6">
<path d="M 4.96289 2.46289L 4.96289 3.38281L 4.76367 3.38281C 3.91992 3.39844 3.24805 3.64844 2.74805 4.13281C 2.24805 4.61719 1.95898 5.29883 1.88086 6.17773C 2.33008 5.66211 2.94336 5.4043 3.7207 5.4043C 4.46289 5.4043 5.05469 5.66602 5.49609 6.18945C 5.94141 6.71289 6.16406 7.38867 6.16406 8.2168C 6.16406 9.0957 5.92383 9.79883 5.44336 10.3262C 4.9668 10.8535 4.32617 11.1172 3.52148 11.1172C 2.70508 11.1172 2.04297 10.8047 1.53516 10.1797C 1.02734 9.55078 0.773438 8.74219 0.773438 7.75391L 0.773438 7.33789C 0.773438 5.76758 1.10742 4.56836 1.77539 3.74023C 2.44727 2.9082 3.44531 2.48242 4.76953 2.46289L 4.96289 2.46289ZM 3.53906 6.30664C 3.16797 6.30664 2.82617 6.41797 2.51367 6.64062C 2.20117 6.86328 1.98438 7.14258 1.86328 7.47852L 1.86328 7.87695C 1.86328 8.58008 2.02148 9.14648 2.33789 9.57617C 2.6543 10.0059 3.04883 10.2207 3.52148 10.2207C 4.00977 10.2207 4.39258 10.041 4.66992 9.68164C 4.95117 9.32227 5.0918 8.85156 5.0918 8.26953C 5.0918 7.68359 4.94922 7.21094 4.66406 6.85156C 4.38281 6.48828 4.00781 6.30664 3.53906 6.30664Z" transform="translate(300 168)" fill="black"/>
</g>
<g id="7">
<path d="M 6.2168 3.07812L 2.68359 11L 1.54688 11L 5.06836 3.35938L 0.451172 3.35938L 0.451172 2.46875L 6.2168 2.46875L 6.2168 3.07812Z" transform="translate(349 168)" fill="black"/>
</g>
<g id="8">
<path d="M 5.88281 4.69531C 5.88281 5.12109 5.76953 5.5 5.54297 5.83203C 5.32031 6.16406 5.01758 6.42383 4.63477 6.61133C 5.08008 6.80273 5.43164 7.08203 5.68945 7.44922C 5.95117 7.81641 6.08203 8.23242 6.08203 8.69727C 6.08203 9.43555 5.83203 10.0234 5.33203 10.4609C 4.83594 10.8984 4.18164 11.1172 3.36914 11.1172C 2.54883 11.1172 1.89062 10.8984 1.39453 10.4609C 0.902344 10.0195 0.65625 9.43164 0.65625 8.69727C 0.65625 8.23633 0.78125 7.82031 1.03125 7.44922C 1.28516 7.07812 1.63477 6.79688 2.08008 6.60547C 1.70117 6.41797 1.40234 6.1582 1.18359 5.82617C 0.964844 5.49414 0.855469 5.11719 0.855469 4.69531C 0.855469 3.97656 1.08594 3.40625 1.54688 2.98438C 2.00781 2.5625 2.61523 2.35156 3.36914 2.35156C 4.11914 2.35156 4.72461 2.5625 5.18555 2.98438C 5.65039 3.40625 5.88281 3.97656 5.88281 4.69531ZM 4.99805 8.67383C 4.99805 8.19727 4.8457 7.80859 4.54102 7.50781C 4.24023 7.20703 3.8457 7.05664 3.35742 7.05664C 2.86914 7.05664 2.47656 7.20508 2.17969 7.50195C 1.88672 7.79883 1.74023 8.18945 1.74023 8.67383C 1.74023 9.1582 1.88281 9.53906 2.16797 9.81641C 2.45703 10.0938 2.85742 10.2324 3.36914 10.2324C 3.87695 10.2324 4.27539 10.0938 4.56445 9.81641C 4.85352 9.53516 4.99805 9.1543 4.99805 8.67383ZM 3.36914 3.24219C 2.94336 3.24219 2.59766 3.375 2.33203 3.64062C 2.07031 3.90234 1.93945 4.25977 1.93945 4.71289C 1.93945 5.14648 2.06836 5.49805 2.32617 5.76758C 2.58789 6.0332 2.93555 6.16602 3.36914 6.16602C 3.80273 6.16602 4.14844 6.0332 4.40625 5.76758C 4.66797 5.49805 4.79883 5.14648 4.79883 4.71289C 4.79883 4.2793 4.66406 3.92578 4.39453 3.65234C 4.125 3.37891 3.7832 3.24219 3.36914 3.24219Z" transform="translate(400 168)" fill="black"/>
</g>
<g id="9">
<path d="M 4.86328 7.25C 4.63672 7.51953 4.36523 7.73633 4.04883 7.90039C 3.73633 8.06445 3.39258 8.14648 3.01758 8.14648C 2.52539 8.14648 2.0957 8.02539 1.72852 7.7832C 1.36523 7.54102 1.08398 7.20117 0.884766 6.76367C 0.685547 6.32227 0.585938 5.83594 0.585938 5.30469C 0.585938 4.73438 0.693359 4.2207 0.908203 3.76367C 1.12695 3.30664 1.43555 2.95703 1.83398 2.71484C 2.23242 2.47266 2.69727 2.35156 3.22852 2.35156C 4.07227 2.35156 4.73633 2.66797 5.2207 3.30078C 5.70898 3.92969 5.95312 4.78906 5.95312 5.87891L 5.95312 6.19531C 5.95312 7.85547 5.625 9.06836 4.96875 9.83398C 4.3125 10.5957 3.32227 10.9863 1.99805 11.0059L 1.78711 11.0059L 1.78711 10.0918L 2.01562 10.0918C 2.91016 10.0762 3.59766 9.84375 4.07812 9.39453C 4.55859 8.94141 4.82031 8.22656 4.86328 7.25ZM 3.19336 7.25C 3.55664 7.25 3.89062 7.13867 4.19531 6.91602C 4.50391 6.69336 4.72852 6.41797 4.86914 6.08984L 4.86914 5.65625C 4.86914 4.94531 4.71484 4.36719 4.40625 3.92188C 4.09766 3.47656 3.70703 3.25391 3.23438 3.25391C 2.75781 3.25391 2.375 3.4375 2.08594 3.80469C 1.79688 4.16797 1.65234 4.64844 1.65234 5.24609C 1.65234 5.82812 1.79102 6.30859 2.06836 6.6875C 2.34961 7.0625 2.72461 7.25 3.19336 7.25Z" transform="translate(449 168)" fill="black"/>
</g>
<g id="10">
<path d="M 4.27148 11L 3.18164 11L 3.18164 3.77539L 0.996094 4.57812L 0.996094 3.59375L 4.10156 2.42773L 4.27148 2.42773L 4.27148 11ZM 12.7969 7.36133C 12.7969 8.63086 12.5801 9.57422 12.1465 10.1914C 11.7129 10.8086 11.0352 11.1172 10.1133 11.1172C 9.20312 11.1172 8.5293 10.8164 8.0918 10.2148C 7.6543 9.60938 7.42773 8.70703 7.41211 7.50781L 7.41211 6.06055C 7.41211 4.80664 7.62891 3.875 8.0625 3.26562C 8.49609 2.65625 9.17578 2.35156 10.1016 2.35156C 11.0195 2.35156 11.6953 2.64648 12.1289 3.23633C 12.5625 3.82227 12.7852 4.72852 12.7969 5.95508L 12.7969 7.36133ZM 11.7129 5.87891C 11.7129 4.96094 11.584 4.29297 11.3262 3.875C 11.0684 3.45312 10.6602 3.24219 10.1016 3.24219C 9.54688 3.24219 9.14258 3.45117 8.88867 3.86914C 8.63477 4.28711 8.50391 4.92969 8.49609 5.79688L 8.49609 7.53125C 8.49609 8.45312 8.62891 9.13477 8.89453 9.57617C 9.16406 10.0137 9.57031 10.2324 10.1133 10.2324C 10.6484 10.2324 11.0449 10.0254 11.3027 9.61133C 11.5645 9.19727 11.7012 8.54492 11.7129 7.6543L 11.7129 5.87891Z" transform="translate(496 168)" fill="black"/>
</g>
<g id="Line 3.1">
<line y1="-0.5" x2="137.015" y2="-0.5" transform="matrix(0 -1 1 0 204 152.007)" stroke="black"/>
</g>
<g id="the mean">
<path d="M 3.47949 3.8125L 3.16504 5.60352L 4.51172 5.60352L 4.34082 6.58105L 3.00098 6.58105L 2.22852 11.1816C 2.21484 11.3001 2.21257 11.4095 2.22168 11.5098C 2.25358 11.8652 2.44727 12.043 2.80273 12.043C 2.95312 12.043 3.15365 12.0202 3.4043 11.9746L 3.30859 13.0068C 3.01237 13.0889 2.71159 13.1299 2.40625 13.1299C 1.91406 13.1208 1.54492 12.9408 1.29883 12.5898C 1.05273 12.2344 0.957031 11.7581 1.01172 11.1611L 1.76367 6.58105L 0.458008 6.58105L 0.628906 5.60352L 1.93457 5.60352L 2.24902 3.8125L 3.47949 3.8125ZM 7.03418 6.50586C 7.68132 5.79948 8.42643 5.4554 9.26953 5.47363C 9.96224 5.48275 10.4749 5.72201 10.8076 6.19141C 11.1449 6.65625 11.2702 7.31022 11.1836 8.15332L 10.377 13L 9.13965 13L 9.95312 8.13281C 9.98047 7.90951 9.98275 7.70215 9.95996 7.51074C 9.88249 6.87272 9.50651 6.54688 8.83203 6.5332C 8.07552 6.51497 7.42383 6.91146 6.87695 7.72266L 5.96094 13L 4.72363 13L 6.54883 2.5L 7.78613 2.5L 7.03418 6.50586ZM 15.4697 13.1367C 14.5492 13.1185 13.8291 12.779 13.3096 12.1182C 12.79 11.4574 12.5713 10.612 12.6533 9.58203L 12.6875 9.28809C 12.765 8.55436 12.9814 7.88444 13.3369 7.27832C 13.6969 6.6722 14.1344 6.21647 14.6494 5.91113C 15.1644 5.60124 15.7204 5.45312 16.3174 5.4668C 17.0785 5.48503 17.6755 5.73796 18.1084 6.22559C 18.5413 6.71322 18.7783 7.37402 18.8193 8.20801C 18.833 8.50423 18.8239 8.80046 18.792 9.09668L 18.7168 9.66406L 13.8838 9.66406C 13.8018 10.334 13.9111 10.9036 14.2119 11.373C 14.5173 11.8424 14.9707 12.0863 15.5723 12.1045C 16.3014 12.1227 16.9759 11.7946 17.5957 11.1201L 18.3066 11.7217C 17.9967 12.1683 17.5957 12.5192 17.1035 12.7744C 16.6159 13.0251 16.0713 13.1458 15.4697 13.1367ZM 16.2559 6.49902C 15.7454 6.48535 15.2988 6.65853 14.916 7.01855C 14.5378 7.37858 14.237 7.91406 14.0137 8.625L 17.6094 8.63184L 17.6367 8.52246C 17.7096 7.94824 17.6162 7.47201 17.3564 7.09375C 17.1012 6.71094 16.7344 6.5127 16.2559 6.49902ZM 25.4023 5.59668L 25.2451 6.42383C 25.8649 5.76758 26.6146 5.44857 27.4941 5.4668C 27.9635 5.47591 28.36 5.58301 28.6836 5.78809C 29.0117 5.99316 29.2373 6.28255 29.3604 6.65625C 30.0531 5.84505 30.8711 5.44857 31.8145 5.4668C 32.5527 5.48503 33.0973 5.7334 33.4482 6.21191C 33.7992 6.69043 33.929 7.33301 33.8379 8.13965L 33.0244 13L 31.7939 13L 32.6006 8.12598C 32.6279 7.889 32.6279 7.67253 32.6006 7.47656C 32.514 6.85677 32.1084 6.54004 31.3838 6.52637C 30.9326 6.51725 30.5225 6.65853 30.1533 6.9502C 29.7887 7.2373 29.554 7.61556 29.4492 8.08496L 28.6084 13L 27.3643 13L 28.1846 8.13281C 28.2438 7.62695 28.1663 7.2373 27.9521 6.96387C 27.7425 6.69043 27.4144 6.54915 26.9678 6.54004C 26.1976 6.52181 25.5846 6.87272 25.1289 7.59277L 24.1924 13L 22.9551 13L 24.2402 5.60352L 25.4023 5.59668ZM 38.1377 13.1367C 37.2171 13.1185 36.4971 12.779 35.9775 12.1182C 35.458 11.4574 35.2393 10.612 35.3213 9.58203L 35.3555 9.28809C 35.4329 8.55436 35.6494 7.88444 36.0049 7.27832C 36.3649 6.6722 36.8024 6.21647 37.3174 5.91113C 37.8324 5.60124 38.3883 5.45312 38.9854 5.4668C 39.7464 5.48503 40.3434 5.73796 40.7764 6.22559C 41.2093 6.71322 41.4463 7.37402 41.4873 8.20801C 41.501 8.50423 41.4919 8.80046 41.46 9.09668L 41.3848 9.66406L 36.5518 9.66406C 36.4697 10.334 36.5791 10.9036 36.8799 11.373C 37.1852 11.8424 37.6387 12.0863 38.2402 12.1045C 38.9694 12.1227 39.6439 11.7946 40.2637 11.1201L 40.9746 11.7217C 40.6647 12.1683 40.2637 12.5192 39.7715 12.7744C 39.2839 13.0251 38.7393 13.1458 38.1377 13.1367ZM 38.9238 6.49902C 38.4134 6.48535 37.9668 6.65853 37.584 7.01855C 37.2057 7.37858 36.9049 7.91406 36.6816 8.625L 40.2773 8.63184L 40.3047 8.52246C 40.3776 7.94824 40.2842 7.47201 40.0244 7.09375C 39.7692 6.71094 39.4023 6.5127 38.9238 6.49902ZM 46.7236 13C 46.6917 12.8678 46.6758 12.738 46.6758 12.6104L 46.6963 12.2207C 46.0173 12.8496 45.2972 13.1549 44.5361 13.1367C 43.8844 13.1276 43.3535 12.9225 42.9434 12.5215C 42.5378 12.1159 42.3532 11.61 42.3896 11.0039C 42.4352 10.2201 42.777 9.60938 43.415 9.17188C 44.0576 8.72982 44.9007 8.50879 45.9443 8.50879L 47.2363 8.51562L 47.3184 7.92773C 47.3639 7.48568 47.2773 7.13704 47.0586 6.88184C 46.8444 6.62207 46.5208 6.48763 46.0879 6.47852C 45.6641 6.4694 45.2881 6.57422 44.96 6.79297C 44.6364 7.00716 44.4382 7.29199 44.3652 7.64746L 43.1211 7.6543C 43.1621 7.22135 43.3307 6.83854 43.627 6.50586C 43.9232 6.16862 44.3037 5.90885 44.7686 5.72656C 45.2334 5.53971 45.7142 5.45085 46.2109 5.45996C 46.9811 5.47819 47.5804 5.71289 48.0088 6.16406C 48.4372 6.61068 48.6172 7.2054 48.5488 7.94824L 47.9473 11.6123L 47.9131 12.1387C 47.904 12.3893 47.9313 12.6377 47.9951 12.8838L 47.9814 13L 46.7236 13ZM 44.7822 12.043C 45.1787 12.0521 45.5524 11.9587 45.9033 11.7627C 46.2588 11.5622 46.5641 11.2865 46.8193 10.9355L 47.0859 9.41113L 46.1494 9.4043C 45.3701 9.4043 44.7731 9.52734 44.3584 9.77344C 43.9437 10.0195 43.709 10.3682 43.6543 10.8193C 43.6133 11.1657 43.693 11.4551 43.8936 11.6875C 44.0986 11.9154 44.3949 12.0339 44.7822 12.043ZM 52.1172 5.59668L 51.9395 6.5332C 52.6048 5.80404 53.3613 5.44857 54.209 5.4668C 54.9062 5.48503 55.4212 5.72656 55.7539 6.19141C 56.0866 6.65625 56.2096 7.31022 56.123 8.15332L 55.3164 13L 54.0791 13L 54.8926 8.13281C 54.9199 7.90951 54.9222 7.70215 54.8994 7.51074C 54.8219 6.87272 54.446 6.54688 53.7715 6.5332C 53.0286 6.51953 52.377 6.91602 51.8164 7.72266L 50.9004 13L 49.6631 13L 50.9482 5.60352L 52.1172 5.59668Z" transform="translate(175 -2)" fill="black"/>
</g>
<g id="11">
<path d="M 4.27148 11L 3.18164 11L 3.18164 3.77539L 0.996094 4.57812L 0.996094 3.59375L 4.10156 2.42773L 4.27148 2.42773L 4.27148 11ZM 11.0098 11L 9.91992 11L 9.91992 3.77539L 7.73438 4.57812L 7.73438 3.59375L 10.8398 2.42773L 11.0098 2.42773L 11.0098 11Z" transform="translate(548 168)" fill="black"/>
</g>
<g id="12">
<path d="M 4.27148 11L 3.18164 11L 3.18164 3.77539L 0.996094 4.57812L 0.996094 3.59375L 4.10156 2.42773L 4.27148 2.42773L 4.27148 11ZM 13.0371 11L 7.44727 11L 7.44727 10.2207L 10.4004 6.93945C 10.8379 6.44336 11.1387 6.04102 11.3027 5.73242C 11.4707 5.41992 11.5547 5.09766 11.5547 4.76562C 11.5547 4.32031 11.4199 3.95508 11.1504 3.66992C 10.8809 3.38477 10.5215 3.24219 10.0723 3.24219C 9.5332 3.24219 9.11328 3.39648 8.8125 3.70508C 8.51562 4.00977 8.36719 4.43555 8.36719 4.98242L 7.2832 4.98242C 7.2832 4.19727 7.53516 3.5625 8.03906 3.07812C 8.54688 2.59375 9.22461 2.35156 10.0723 2.35156C 10.8652 2.35156 11.4922 2.56055 11.9531 2.97852C 12.4141 3.39258 12.6445 3.94531 12.6445 4.63672C 12.6445 5.47656 12.1094 6.47656 11.0391 7.63672L 8.75391 10.1152L 13.0371 10.1152L 13.0371 11Z" transform="translate(596 168)" fill="black"/>
</g>
<g id="13">
<path d="M 4.27148 11L 3.18164 11L 3.18164 3.77539L 0.996094 4.57812L 0.996094 3.59375L 4.10156 2.42773L 4.27148 2.42773L 4.27148 11ZM 9.02344 6.20703L 9.83789 6.20703C 10.3496 6.19922 10.752 6.06445 11.0449 5.80273C 11.3379 5.54102 11.4844 5.1875 11.4844 4.74219C 11.4844 3.74219 10.9863 3.24219 9.99023 3.24219C 9.52148 3.24219 9.14648 3.37695 8.86523 3.64648C 8.58789 3.91211 8.44922 4.26562 8.44922 4.70703L 7.36523 4.70703C 7.36523 4.03125 7.61133 3.4707 8.10352 3.02539C 8.59961 2.57617 9.22852 2.35156 9.99023 2.35156C 10.7949 2.35156 11.4258 2.56445 11.8828 2.99023C 12.3398 3.41602 12.5684 4.00781 12.5684 4.76562C 12.5684 5.13672 12.4473 5.49609 12.2051 5.84375C 11.9668 6.19141 11.6406 6.45117 11.2266 6.62305C 11.6953 6.77148 12.0566 7.01758 12.3105 7.36133C 12.5684 7.70508 12.6973 8.125 12.6973 8.62109C 12.6973 9.38672 12.4473 9.99414 11.9473 10.4434C 11.4473 10.8926 10.7969 11.1172 9.99609 11.1172C 9.19531 11.1172 8.54297 10.9004 8.03906 10.4668C 7.53906 10.0332 7.28906 9.46094 7.28906 8.75L 8.37891 8.75C 8.37891 9.19922 8.52539 9.55859 8.81836 9.82812C 9.11133 10.0977 9.50391 10.2324 9.99609 10.2324C 10.5195 10.2324 10.9199 10.0957 11.1973 9.82227C 11.4746 9.54883 11.6133 9.15625 11.6133 8.64453C 11.6133 8.14844 11.4609 7.76758 11.1562 7.50195C 10.8516 7.23633 10.4121 7.09961 9.83789 7.0918L 9.02344 7.0918L 9.02344 6.20703Z" transform="translate(646 168)" fill="black"/>
</g>
</g>
</svg>

