<svg width="698" height="212" viewBox="0 0 698 212" version="1.1" xmlns="http://www.w3.org/2000/svg" xmlns:xlink="http://www.w3.org/1999/xlink">
<g id="Canvas" fill="none">
<rect width="698" height="212" fill="white"/>
<g id="0">
<path d="M 7.57324 9.45166C 7.57324 11.0386 7.30225 12.2178 6.76025 12.9893C 6.21826 13.7607 5.37109 14.1465 4.21875 14.1465C 3.08105 14.1465 2.23877 13.7705 1.69189 13.0186C 1.14502 12.2617 0.861816 11.1338 0.842285 9.63477L 0.842285 7.82568C 0.842285 6.2583 1.11328 5.09375 1.65527 4.33203C 2.19727 3.57031 3.04688 3.18945 4.2041 3.18945C 5.35156 3.18945 6.19629 3.55811 6.73828 4.29541C 7.28027 5.02783 7.55859 6.16064 7.57324 7.69385L 7.57324 9.45166ZM 6.21826 7.59863C 6.21826 6.45117 6.05713 5.61621 5.73486 5.09375C 5.4126 4.56641 4.90234 4.30273 4.2041 4.30273C 3.51074 4.30273 3.00537 4.56396 2.68799 5.08643C 2.37061 5.60889 2.20703 6.41211 2.19727 7.49609L 2.19727 9.66406C 2.19727 10.8164 2.36328 11.6685 2.69531 12.2202C 3.03223 12.7671 3.54004 13.0405 4.21875 13.0405C 4.8877 13.0405 5.3833 12.7817 5.70557 12.2642C 6.03271 11.7466 6.20361 10.9312 6.21826 9.81787L 6.21826 7.59863Z" transform="translate(18 104)" fill="black"/>
</g>
<g id="1">
<path d="M 5.33936 14L 3.97705 14L 3.97705 4.96924L 1.24512 5.97266L 1.24512 4.74219L 5.12695 3.28467L 5.33936 3.28467L 5.33936 14Z" transform="translate(68 105)" fill="black"/>
</g>
<g id="2">
<path d="M 7.87354 14L 0.88623 14L 0.88623 13.0259L 4.57764 8.92432C 5.12451 8.3042 5.50049 7.80127 5.70557 7.41553C 5.91553 7.0249 6.02051 6.62207 6.02051 6.20703C 6.02051 5.65039 5.85205 5.19385 5.51514 4.8374C 5.17822 4.48096 4.729 4.30273 4.16748 4.30273C 3.49365 4.30273 2.96875 4.49561 2.59277 4.88135C 2.22168 5.26221 2.03613 5.79443 2.03613 6.47803L 0.681152 6.47803C 0.681152 5.49658 0.996094 4.70313 1.62598 4.09766C 2.26074 3.49219 3.10791 3.18945 4.16748 3.18945C 5.15869 3.18945 5.94238 3.45068 6.51855 3.97314C 7.09473 4.49072 7.38281 5.18164 7.38281 6.0459C 7.38281 7.0957 6.71387 8.3457 5.37598 9.7959L 2.51953 12.894L 7.87354 12.894L 7.87354 14Z" transform="translate(118 105)" fill="black"/>
</g>
<g id="3">
<path d="M 2.85645 8.00879L 3.87451 8.00879C 4.51416 7.99902 5.01709 7.83057 5.3833 7.50342C 5.74951 7.17627 5.93262 6.73438 5.93262 6.17773C 5.93262 4.92773 5.31006 4.30273 4.06494 4.30273C 3.479 4.30273 3.01025 4.47119 2.65869 4.80811C 2.31201 5.14014 2.13867 5.58203 2.13867 6.13379L 0.783691 6.13379C 0.783691 5.28906 1.09131 4.58838 1.70654 4.03174C 2.32666 3.47021 3.11279 3.18945 4.06494 3.18945C 5.0708 3.18945 5.85938 3.45557 6.43066 3.98779C 7.00195 4.52002 7.2876 5.25977 7.2876 6.20703C 7.2876 6.6709 7.13623 7.12012 6.8335 7.55469C 6.53564 7.98926 6.12793 8.31396 5.61035 8.52881C 6.19629 8.71436 6.64795 9.02197 6.96533 9.45166C 7.2876 9.88135 7.44873 10.4062 7.44873 11.0264C 7.44873 11.9834 7.13623 12.7427 6.51123 13.3042C 5.88623 13.8657 5.07324 14.1465 4.07227 14.1465C 3.07129 14.1465 2.25586 13.8755 1.62598 13.3335C 1.00098 12.7915 0.688477 12.0762 0.688477 11.1875L 2.05078 11.1875C 2.05078 11.749 2.23389 12.1982 2.6001 12.5352C 2.96631 12.8721 3.45703 13.0405 4.07227 13.0405C 4.72656 13.0405 5.22705 12.8696 5.57373 12.5278C 5.92041 12.186 6.09375 11.6953 6.09375 11.0557C 6.09375 10.4355 5.90332 9.95947 5.52246 9.62744C 5.1416 9.29541 4.59229 9.12451 3.87451 9.11475L 2.85645 9.11475L 2.85645 8.00879Z" transform="translate(168 105)" fill="black"/>
</g>
<g id="4">
<path d="M 6.60645 10.4185L 8.08594 10.4185L 8.08594 11.5244L 6.60645 11.5244L 6.60645 14L 5.24414 14L 5.24414 11.5244L 0.388184 11.5244L 0.388184 10.7261L 5.16357 3.33594L 6.60645 3.33594L 6.60645 10.4185ZM 1.92627 10.4185L 5.24414 10.4185L 5.24414 5.18896L 5.08301 5.48193L 1.92627 10.4185Z" transform="translate(218 105)" fill="black"/>
</g>
<g id="5">
<path d="M 1.50879 8.65332L 2.05078 3.33594L 7.51465 3.33594L 7.51465 4.58838L 3.20068 4.58838L 2.87842 7.49609C 3.40088 7.18848 3.99414 7.03467 4.6582 7.03467C 5.62988 7.03467 6.40137 7.35693 6.97266 8.00146C 7.54395 8.64111 7.82959 9.50781 7.82959 10.6016C 7.82959 11.7002 7.53174 12.5669 6.93604 13.2017C 6.34521 13.8315 5.51758 14.1465 4.45312 14.1465C 3.51074 14.1465 2.7417 13.8853 2.146 13.3628C 1.55029 12.8403 1.21094 12.1177 1.12793 11.1948L 2.40967 11.1948C 2.49268 11.8052 2.70996 12.2666 3.06152 12.5791C 3.41309 12.8867 3.87695 13.0405 4.45312 13.0405C 5.08301 13.0405 5.57617 12.8257 5.93262 12.396C 6.29395 11.9663 6.47461 11.373 6.47461 10.6162C 6.47461 9.90332 6.2793 9.33203 5.88867 8.90234C 5.50293 8.46777 4.98779 8.25049 4.34326 8.25049C 3.75244 8.25049 3.28857 8.37988 2.95166 8.63867L 2.59277 8.93164L 1.50879 8.65332Z" transform="translate(268 105)" fill="black"/>
</g>
<g id="6">
<path d="M 6.20361 3.32861L 6.20361 4.47852L 5.95459 4.47852C 4.8999 4.49805 4.06006 4.81055 3.43506 5.41602C 2.81006 6.02148 2.44873 6.87354 2.35107 7.97217C 2.9126 7.32764 3.6792 7.00537 4.65088 7.00537C 5.57861 7.00537 6.31836 7.33252 6.87012 7.98682C 7.42676 8.64111 7.70508 9.48584 7.70508 10.521C 7.70508 11.6196 7.40479 12.4985 6.8042 13.1577C 6.2085 13.8169 5.40771 14.1465 4.40186 14.1465C 3.38135 14.1465 2.55371 13.7559 1.91895 12.9746C 1.28418 12.1885 0.966797 11.1777 0.966797 9.94238L 0.966797 9.42236C 0.966797 7.45947 1.38428 5.96045 2.21924 4.92529C 3.05908 3.88525 4.30664 3.35303 5.96191 3.32861L 6.20361 3.32861ZM 4.42383 8.1333C 3.95996 8.1333 3.53271 8.27246 3.14209 8.55078C 2.75146 8.8291 2.48047 9.17822 2.3291 9.59814L 2.3291 10.0962C 2.3291 10.9751 2.52686 11.6831 2.92236 12.2202C 3.31787 12.7573 3.81104 13.0259 4.40186 13.0259C 5.01221 13.0259 5.49072 12.8013 5.8374 12.3521C 6.18896 11.9028 6.36475 11.3145 6.36475 10.5869C 6.36475 9.85449 6.18652 9.26367 5.83008 8.81445C 5.47852 8.36035 5.00977 8.1333 4.42383 8.1333Z" transform="translate(318 105)" fill="black"/>
</g>
<g id="7">
<path d="M 7.771 4.09766L 3.35449 14L 1.93359 14L 6.33545 4.44922L 0.563965 4.44922L 0.563965 3.33594L 7.771 3.33594L 7.771 4.09766Z" transform="translate(367 105)" fill="black"/>
</g>
<g id="8">
<path d="M 7.35352 6.11914C 7.35352 6.65137 7.21191 7.125 6.92871 7.54004C 6.65039 7.95508 6.27197 8.27979 5.79346 8.51416C 6.3501 8.75342 6.78955 9.10254 7.11182 9.56152C 7.43896 10.0205 7.60254 10.5405 7.60254 11.1216C 7.60254 12.0444 7.29004 12.7793 6.66504 13.3262C 6.04492 13.873 5.22705 14.1465 4.21143 14.1465C 3.18604 14.1465 2.36328 13.873 1.74316 13.3262C 1.12793 12.7744 0.820312 12.0396 0.820312 11.1216C 0.820312 10.5454 0.976562 10.0254 1.28906 9.56152C 1.60645 9.09766 2.04346 8.74609 2.6001 8.50684C 2.12646 8.27246 1.75293 7.94775 1.47949 7.53271C 1.20605 7.11768 1.06934 6.64648 1.06934 6.11914C 1.06934 5.2207 1.35742 4.50781 1.93359 3.98047C 2.50977 3.45312 3.26904 3.18945 4.21143 3.18945C 5.14893 3.18945 5.90576 3.45312 6.48193 3.98047C 7.06299 4.50781 7.35352 5.2207 7.35352 6.11914ZM 6.24756 11.0923C 6.24756 10.4966 6.05713 10.0107 5.67627 9.63477C 5.30029 9.25879 4.80713 9.0708 4.19678 9.0708C 3.58643 9.0708 3.0957 9.25635 2.72461 9.62744C 2.3584 9.99854 2.17529 10.4868 2.17529 11.0923C 2.17529 11.6978 2.35352 12.1738 2.70996 12.5205C 3.07129 12.8672 3.57178 13.0405 4.21143 13.0405C 4.84619 13.0405 5.34424 12.8672 5.70557 12.5205C 6.06689 12.1689 6.24756 11.6929 6.24756 11.0923ZM 4.21143 4.30273C 3.6792 4.30273 3.24707 4.46875 2.91504 4.80078C 2.58789 5.12793 2.42432 5.57471 2.42432 6.14111C 2.42432 6.68311 2.58545 7.12256 2.90771 7.45947C 3.23486 7.7915 3.66943 7.95752 4.21143 7.95752C 4.75342 7.95752 5.18555 7.7915 5.50781 7.45947C 5.83496 7.12256 5.99854 6.68311 5.99854 6.14111C 5.99854 5.59912 5.83008 5.15723 5.49316 4.81543C 5.15625 4.47363 4.729 4.30273 4.21143 4.30273Z" transform="translate(418 105)" fill="black"/>
</g>
<g id="9">
<path d="M 6.0791 9.3125C 5.7959 9.64941 5.45654 9.92041 5.06104 10.1255C 4.67041 10.3306 4.24072 10.4331 3.77197 10.4331C 3.15674 10.4331 2.61963 10.2817 2.16064 9.979C 1.70654 9.67627 1.35498 9.25146 1.10596 8.70459C 0.856934 8.15283 0.732422 7.54492 0.732422 6.88086C 0.732422 6.16797 0.866699 5.52588 1.13525 4.95459C 1.40869 4.3833 1.79443 3.94629 2.29248 3.64355C 2.79053 3.34082 3.37158 3.18945 4.03564 3.18945C 5.09033 3.18945 5.92041 3.58496 6.52588 4.37598C 7.13623 5.16211 7.44141 6.23633 7.44141 7.59863L 7.44141 7.99414C 7.44141 10.0693 7.03125 11.5854 6.21094 12.5425C 5.39062 13.4946 4.15283 13.9829 2.49756 14.0073L 2.23389 14.0073L 2.23389 12.8647L 2.51953 12.8647C 3.6377 12.8452 4.49707 12.5547 5.09766 11.9932C 5.69824 11.4268 6.02539 10.5332 6.0791 9.3125ZM 3.9917 9.3125C 4.4458 9.3125 4.86328 9.17334 5.24414 8.89502C 5.62988 8.6167 5.91064 8.27246 6.08643 7.8623L 6.08643 7.32031C 6.08643 6.43164 5.89355 5.70898 5.50781 5.15234C 5.12207 4.5957 4.63379 4.31738 4.04297 4.31738C 3.44727 4.31738 2.96875 4.54687 2.60742 5.00586C 2.24609 5.45996 2.06543 6.06055 2.06543 6.80762C 2.06543 7.53516 2.23877 8.13574 2.58545 8.60938C 2.93701 9.07812 3.40576 9.3125 3.9917 9.3125Z" transform="translate(467 105)" fill="black"/>
</g>
<g id="10">
<path d="M 5.33936 14L 3.97705 14L 3.97705 4.96924L 1.24512 5.97266L 1.24512 4.74219L 5.12695 3.28467L 5.33936 3.28467L 5.33936 14ZM 15.9961 9.45166C 15.9961 11.0386 15.7251 12.2178 15.1831 12.9893C 14.6411 13.7607 13.7939 14.1465 12.6416 14.1465C 11.5039 14.1465 10.6616 13.7705 10.1147 13.0186C 9.56787 12.2617 9.28467 11.1338 9.26514 9.63477L 9.26514 7.82568C 9.26514 6.2583 9.53613 5.09375 10.0781 4.33203C 10.6201 3.57031 11.4697 3.18945 12.627 3.18945C 13.7744 3.18945 14.6191 3.55811 15.1611 4.29541C 15.7031 5.02783 15.9814 6.16064 15.9961 7.69385L 15.9961 9.45166ZM 14.6411 7.59863C 14.6411 6.45117 14.48 5.61621 14.1577 5.09375C 13.8354 4.56641 13.3252 4.30273 12.627 4.30273C 11.9336 4.30273 11.4282 4.56396 11.1108 5.08643C 10.7935 5.60889 10.6299 6.41211 10.6201 7.49609L 10.6201 9.66406C 10.6201 10.8164 10.7861 11.6685 11.1182 12.2202C 11.4551 12.7671 11.9629 13.0405 12.6416 13.0405C 13.3105 13.0405 13.8062 12.7817 14.1284 12.2642C 14.4556 11.7466 14.6265 10.9312 14.6411 9.81787L 14.6411 7.59863Z" transform="translate(514 105)" fill="black"/>
</g>
<g id="11">
<path d="M 5.33936 14L 3.97705 14L 3.97705 4.96924L 1.24512 5.97266L 1.24512 4.74219L 5.12695 3.28467L 5.33936 3.28467L 5.33936 14ZM 13.7622 14L 12.3999 14L 12.3999 4.96924L 9.66797 5.97266L 9.66797 4.74219L 13.5498 3.28467L 13.7622 3.28467L 13.7622 14Z" transform="translate(566 105)" fill="black"/>
</g>
<g id="12">
<path d="M 5.33936 14L 3.97705 14L 3.97705 4.96924L 1.24512 5.97266L 1.24512 4.74219L 5.12695 3.28467L 5.33936 3.28467L 5.33936 14ZM 16.2964 14L 9.30908 14L 9.30908 13.0259L 13.0005 8.92432C 13.5474 8.3042 13.9233 7.80127 14.1284 7.41553C 14.3384 7.0249 14.4434 6.62207 14.4434 6.20703C 14.4434 5.65039 14.2749 5.19385 13.938 4.8374C 13.6011 4.48096 13.1519 4.30273 12.5903 4.30273C 11.9165 4.30273 11.3916 4.49561 11.0156 4.88135C 10.6445 5.26221 10.459 5.79443 10.459 6.47803L 9.104 6.47803C 9.104 5.49658 9.41895 4.70313 10.0488 4.09766C 10.6836 3.49219 11.5308 3.18945 12.5903 3.18945C 13.5815 3.18945 14.3652 3.45068 14.9414 3.97314C 15.5176 4.49072 15.8057 5.18164 15.8057 6.0459C 15.8057 7.0957 15.1367 8.3457 13.7988 9.7959L 10.9424 12.894L 16.2964 12.894L 16.2964 14Z" transform="translate(614 105)" fill="black"/>
</g>
<g id="13">
<path d="M 5.33936 14L 3.97705 14L 3.97705 4.96924L 1.24512 5.97266L 1.24512 4.74219L 5.12695 3.28467L 5.33936 3.28467L 5.33936 14ZM 11.2793 8.00879L 12.2974 8.00879C 12.937 7.99902 13.4399 7.83057 13.8062 7.50342C 14.1724 7.17627 14.3555 6.73438 14.3555 6.17773C 14.3555 4.92773 13.7329 4.30273 12.4878 4.30273C 11.9019 4.30273 11.4331 4.47119 11.0815 4.80811C 10.7349 5.14014 10.5615 5.58203 10.5615 6.13379L 9.20654 6.13379C 9.20654 5.28906 9.51416 4.58838 10.1294 4.03174C 10.7495 3.47021 11.5356 3.18945 12.4878 3.18945C 13.4937 3.18945 14.2822 3.45557 14.8535 3.98779C 15.4248 4.52002 15.7104 5.25977 15.7104 6.20703C 15.7104 6.6709 15.5591 7.12012 15.2563 7.55469C 14.9585 7.98926 14.5508 8.31396 14.0332 8.52881C 14.6191 8.71436 15.0708 9.02197 15.3882 9.45166C 15.7104 9.88135 15.8716 10.4062 15.8716 11.0264C 15.8716 11.9834 15.5591 12.7427 14.9341 13.3042C 14.3091 13.8657 13.4961 14.1465 12.4951 14.1465C 11.4941 14.1465 10.6787 13.8755 10.0488 13.3335C 9.42383 12.7915 9.11133 12.0762 9.11133 11.1875L 10.4736 11.1875C 10.4736 11.749 10.6567 12.1982 11.0229 12.5352C 11.3892 12.8721 11.8799 13.0405 12.4951 13.0405C 13.1494 13.0405 13.6499 12.8696 13.9966 12.5278C 14.3433 12.186 14.5166 11.6953 14.5166 11.0557C 14.5166 10.4355 14.3262 9.95947 13.9453 9.62744C 13.5645 9.29541 13.0151 9.12451 12.2974 9.11475L 11.2793 9.11475L 11.2793 8.00879Z" transform="translate(664 105)" fill="black"/>
</g>
<g id="Rectangle">
<rect width="698" height="45" rx="10" transform="translate(0 90)" fill="#F0E442" fill-opacity="0.45"/>
<rect x="0.5" y="0.5" width="697" height="44" rx="9.5" transform="translate(0 90)" stroke="black"/>
</g>
<g id="Ellipse">
<circle cx="15" cy="15" r="15" transform="translate(7 60)" fill="#E0E0E0"/>
</g>
<g id="Ellipse_2">
<circle cx="15" cy="15" r="15" transform="translate(107 60)" fill="#E0E0E0"/>
</g>
<g id="Ellipse_3">
<circle cx="15" cy="15" r="15" transform="translate(157 60)" fill="#E0E0E0"/>
</g>
<g id="Ellipse_4">
<circle cx="15" cy="15" r="15" transform="translate(157 30)" fill="#E0E0E0"/>
</g>
<g id="Ellipse_5">
<circle cx="15" cy="15" r="15" transform="translate(157 0)" fill="#E0E0E0"/>
</g>
<g id="Ellipse_6">
<circle cx="15" cy="15" r="15" transform="translate(658 60)" fill="#E0E0E0"/>
</g>
<g id="Polygon">
<path d="M 53 0L 98.8993 76.5L 7.10065 76.5L 53 0Z" transform="translate(169 135)" fill="#955E7D"/>
</g>
<g id="the mean">
<path d="M 3.34717 4.12695L 3.34717 6.0752L 4.70215 6.0752L 4.70215 7.62793L 3.34717 7.62793L 3.34717 11.583C 3.34717 11.876 3.40332 12.0859 3.51562 12.2129C 3.62793 12.3398 3.84277 12.4033 4.16016 12.4033C 4.39453 12.4033 4.60205 12.3862 4.78271 12.3521L 4.78271 13.9561C 4.36768 14.083 3.94043 14.1465 3.50098 14.1465C 2.0166 14.1465 1.25977 13.397 1.23047 11.8979L 1.23047 7.62793L 0.0732422 7.62793L 0.0732422 6.0752L 1.23047 6.0752L 1.23047 4.12695L 3.34717 4.12695ZM 7.94678 6.93945C 8.5083 6.26562 9.21387 5.92871 10.0635 5.92871C 11.7822 5.92871 12.6538 6.92725 12.6782 8.92432L 12.6782 14L 10.5615 14L 10.5615 8.98291C 10.5615 8.52881 10.4639 8.19434 10.2686 7.97949C 10.0732 7.75977 9.74854 7.6499 9.29443 7.6499C 8.67432 7.6499 8.2251 7.88916 7.94678 8.36768L 7.94678 14L 5.83008 14L 5.83008 2.75L 7.94678 2.75L 7.94678 6.93945ZM 17.9224 14.1465C 16.7603 14.1465 15.813 13.79 15.0806 13.0771C 14.353 12.3643 13.9893 11.4146 13.9893 10.228L 13.9893 10.0229C 13.9893 9.22705 14.1431 8.5166 14.4507 7.8916C 14.7583 7.26172 15.1929 6.77832 15.7544 6.44141C 16.3208 6.09961 16.9653 5.92871 17.688 5.92871C 18.772 5.92871 19.624 6.27051 20.2441 6.9541C 20.8691 7.6377 21.1816 8.60693 21.1816 9.86182L 21.1816 10.7261L 16.1353 10.7261C 16.2036 11.2437 16.4087 11.6587 16.7505 11.9712C 17.0972 12.2837 17.5342 12.4399 18.0615 12.4399C 18.877 12.4399 19.5142 12.1445 19.9731 11.5537L 21.0132 12.7183C 20.6958 13.1675 20.2661 13.519 19.7241 13.7729C 19.1821 14.022 18.5815 14.1465 17.9224 14.1465ZM 17.6807 7.64258C 17.2607 7.64258 16.9189 7.78418 16.6553 8.06738C 16.3965 8.35059 16.2305 8.75586 16.1572 9.2832L 19.1016 9.2832L 19.1016 9.11475C 19.0918 8.646 18.9648 8.28467 18.7207 8.03076C 18.4766 7.77197 18.1299 7.64258 17.6807 7.64258ZM 28.1104 6.0752L 28.1763 6.96143C 28.7378 6.27295 29.4971 5.92871 30.4541 5.92871C 31.4746 5.92871 32.1753 6.33154 32.5562 7.13721C 33.1128 6.33154 33.9062 5.92871 34.9365 5.92871C 35.7959 5.92871 36.4355 6.18018 36.8555 6.68311C 37.2754 7.18115 37.4854 7.93311 37.4854 8.93896L 37.4854 14L 35.3613 14L 35.3613 8.94629C 35.3613 8.49707 35.2734 8.16992 35.0977 7.96484C 34.9219 7.75488 34.6118 7.6499 34.1675 7.6499C 33.5327 7.6499 33.0933 7.95264 32.8491 8.55811L 32.8564 14L 30.7397 14L 30.7397 8.95361C 30.7397 8.49463 30.6494 8.1626 30.4688 7.95752C 30.2881 7.75244 29.9805 7.6499 29.5459 7.6499C 28.9453 7.6499 28.5107 7.89893 28.2422 8.39697L 28.2422 14L 26.1255 14L 26.1255 6.0752L 28.1104 6.0752ZM 42.7661 14.1465C 41.604 14.1465 40.6567 13.79 39.9243 13.0771C 39.1968 12.3643 38.833 11.4146 38.833 10.228L 38.833 10.0229C 38.833 9.22705 38.9868 8.5166 39.2944 7.8916C 39.6021 7.26172 40.0366 6.77832 40.5981 6.44141C 41.1646 6.09961 41.8091 5.92871 42.5317 5.92871C 43.6157 5.92871 44.4678 6.27051 45.0879 6.9541C 45.7129 7.6377 46.0254 8.60693 46.0254 9.86182L 46.0254 10.7261L 40.979 10.7261C 41.0474 11.2437 41.2524 11.6587 41.5942 11.9712C 41.9409 12.2837 42.3779 12.4399 42.9053 12.4399C 43.7207 12.4399 44.3579 12.1445 44.8169 11.5537L 45.8569 12.7183C 45.5396 13.1675 45.1099 13.519 44.5679 13.7729C 44.0259 14.022 43.4253 14.1465 42.7661 14.1465ZM 42.5244 7.64258C 42.1045 7.64258 41.7627 7.78418 41.499 8.06738C 41.2402 8.35059 41.0742 8.75586 41.001 9.2832L 43.9453 9.2832L 43.9453 9.11475C 43.9355 8.646 43.8086 8.28467 43.5645 8.03076C 43.3203 7.77197 42.9736 7.64258 42.5244 7.64258ZM 51.8262 14C 51.7285 13.8096 51.6577 13.5728 51.6138 13.2896C 51.1011 13.8608 50.4346 14.1465 49.6143 14.1465C 48.8379 14.1465 48.1934 13.9219 47.6807 13.4727C 47.1729 13.0234 46.9189 12.457 46.9189 11.7734C 46.9189 10.9336 47.229 10.2891 47.8491 9.83984C 48.4741 9.39062 49.375 9.16357 50.5518 9.15869L 51.5259 9.15869L 51.5259 8.70459C 51.5259 8.33838 51.4307 8.04541 51.2402 7.82568C 51.0547 7.60596 50.7593 7.49609 50.354 7.49609C 49.9976 7.49609 49.7168 7.58154 49.5117 7.75244C 49.3115 7.92334 49.2114 8.15771 49.2114 8.45557L 47.0947 8.45557C 47.0947 7.99658 47.2363 7.57178 47.5195 7.18115C 47.8027 6.79053 48.2031 6.48535 48.7207 6.26562C 49.2383 6.04102 49.8193 5.92871 50.4639 5.92871C 51.4404 5.92871 52.2144 6.17529 52.7856 6.66846C 53.3618 7.15674 53.6499 7.84521 53.6499 8.73389L 53.6499 12.1689C 53.6548 12.9209 53.7598 13.4897 53.9648 13.8755L 53.9648 14L 51.8262 14ZM 50.0757 12.5278C 50.3882 12.5278 50.6763 12.4595 50.9399 12.3228C 51.2036 12.1812 51.3989 11.9932 51.5259 11.7588L 51.5259 10.3965L 50.7349 10.3965C 49.6753 10.3965 49.1113 10.7627 49.043 11.4951L 49.0356 11.6196C 49.0356 11.8833 49.1284 12.1006 49.314 12.2715C 49.4995 12.4424 49.7534 12.5278 50.0757 12.5278ZM 57.2241 6.0752L 57.29 6.99072C 57.8564 6.28271 58.6157 5.92871 59.5679 5.92871C 60.4077 5.92871 61.0327 6.17529 61.4429 6.66846C 61.853 7.16162 62.063 7.89893 62.0728 8.88037L 62.0728 14L 59.9561 14L 59.9561 8.93164C 59.9561 8.48242 59.8584 8.15771 59.6631 7.95752C 59.4678 7.75244 59.1431 7.6499 58.689 7.6499C 58.0933 7.6499 57.6465 7.90381 57.3486 8.41162L 57.3486 14L 55.2319 14L 55.2319 6.0752L 57.2241 6.0752Z" transform="translate(191 186)" fill="white"/>
</g>
</g>
</svg>

