<svg width="320" height="477" viewBox="0 0 320 477" fill="none" xmlns="http://www.w3.org/2000/svg">
<rect x="208" y="344" width="77" height="106" fill="#F2994A"/>
<rect x="16" y="62" width="46" height="188" fill="#C4C4C4"/>
<rect x="9" y="344" width="111" height="110" fill="#C4C4C4"/>
<path d="M58.1904 17V4.20312H62.6729C64.2256 4.20312 65.4033 4.50195 66.2061 5.09961C67.0088 5.69141 67.4102 6.56152 67.4102 7.70996C67.4102 8.33691 67.249 8.89062 66.9268 9.37109C66.6045 9.8457 66.1562 10.1943 65.582 10.417C66.2383 10.5811 66.7539 10.9121 67.1289 11.4102C67.5098 11.9082 67.7002 12.5176 67.7002 13.2383C67.7002 14.4688 67.3076 15.4004 66.5225 16.0332C65.7373 16.666 64.6182 16.9883 63.165 17H58.1904ZM60.8271 11.4277V14.8818H63.0859C63.707 14.8818 64.1904 14.7354 64.5361 14.4424C64.8877 14.1436 65.0635 13.7334 65.0635 13.2119C65.0635 12.04 64.457 11.4453 63.2441 11.4277H60.8271ZM60.8271 9.56445H62.7783C64.1084 9.54102 64.7734 9.01074 64.7734 7.97363C64.7734 7.39355 64.6035 6.97754 64.2637 6.72559C63.9297 6.46777 63.3994 6.33887 62.6729 6.33887H60.8271V9.56445ZM72.2002 17H69.6514V7.49023H72.2002V17ZM69.502 5.0293C69.502 4.64844 69.6279 4.33496 69.8799 4.08887C70.1377 3.84277 70.4863 3.71973 70.9258 3.71973C71.3594 3.71973 71.7051 3.84277 71.9629 4.08887C72.2207 4.33496 72.3496 4.64844 72.3496 5.0293C72.3496 5.41602 72.2178 5.73242 71.9541 5.97852C71.6963 6.22461 71.3535 6.34766 70.9258 6.34766C70.498 6.34766 70.1523 6.22461 69.8887 5.97852C69.6309 5.73242 69.502 5.41602 69.502 5.0293ZM76.6387 7.49023L76.7178 8.58887C77.3975 7.73926 78.3086 7.31445 79.4512 7.31445C80.459 7.31445 81.209 7.61035 81.7012 8.20215C82.1934 8.79395 82.4453 9.67871 82.457 10.8564V17H79.917V10.918C79.917 10.3789 79.7998 9.98926 79.5654 9.74902C79.3311 9.50293 78.9414 9.37988 78.3965 9.37988C77.6816 9.37988 77.1455 9.68457 76.7881 10.2939V17H74.248V7.49023H76.6387ZM89.9014 17C89.7842 16.7715 89.6992 16.4873 89.6465 16.1475C89.0312 16.833 88.2314 17.1758 87.2471 17.1758C86.3154 17.1758 85.542 16.9062 84.9268 16.3672C84.3174 15.8281 84.0127 15.1484 84.0127 14.3281C84.0127 13.3203 84.3848 12.5469 85.1289 12.0078C85.8789 11.4688 86.96 11.1963 88.3721 11.1904H89.541V10.6455C89.541 10.2061 89.4268 9.85449 89.1982 9.59082C88.9756 9.32715 88.6211 9.19531 88.1348 9.19531C87.707 9.19531 87.3701 9.29785 87.124 9.50293C86.8838 9.70801 86.7637 9.98926 86.7637 10.3467H84.2236C84.2236 9.7959 84.3936 9.28613 84.7334 8.81738C85.0732 8.34863 85.5537 7.98242 86.1748 7.71875C86.7959 7.44922 87.4932 7.31445 88.2666 7.31445C89.4385 7.31445 90.3672 7.61035 91.0527 8.20215C91.7441 8.78809 92.0898 9.61426 92.0898 10.6807V14.8027C92.0957 15.7051 92.2217 16.3877 92.4678 16.8506V17H89.9014ZM87.8008 15.2334C88.1758 15.2334 88.5215 15.1514 88.8379 14.9873C89.1543 14.8174 89.3887 14.5918 89.541 14.3105V12.6758H88.5918C87.3203 12.6758 86.6436 13.1152 86.5615 13.9941L86.5527 14.1436C86.5527 14.46 86.6641 14.7207 86.8867 14.9258C87.1094 15.1309 87.4141 15.2334 87.8008 15.2334ZM99.3848 9.87207C99.0391 9.8252 98.7344 9.80176 98.4707 9.80176C97.5098 9.80176 96.8799 10.127 96.5811 10.7773V17H94.041V7.49023H96.4404L96.5107 8.62402C97.0205 7.75098 97.7266 7.31445 98.6289 7.31445C98.9102 7.31445 99.1738 7.35254 99.4199 7.42871L99.3848 9.87207ZM104.324 13.4053L106.082 7.49023H108.807L104.983 18.4766L104.772 18.9775C104.204 20.2197 103.267 20.8408 101.96 20.8408C101.591 20.8408 101.216 20.7852 100.835 20.6738V18.749L101.222 18.7578C101.702 18.7578 102.06 18.6846 102.294 18.5381C102.534 18.3916 102.722 18.1484 102.856 17.8086L103.155 17.0264L99.8242 7.49023H102.558L104.324 13.4053ZM124.504 12.7373C124.404 14.1143 123.895 15.1982 122.975 15.9893C122.061 16.7803 120.854 17.1758 119.354 17.1758C117.713 17.1758 116.421 16.625 115.478 15.5234C114.54 14.416 114.071 12.8984 114.071 10.9707V10.1885C114.071 8.95801 114.288 7.87402 114.722 6.93652C115.155 5.99902 115.773 5.28125 116.576 4.7832C117.385 4.2793 118.322 4.02734 119.389 4.02734C120.865 4.02734 122.055 4.42285 122.957 5.21387C123.859 6.00488 124.381 7.11523 124.521 8.54492H121.885C121.82 7.71875 121.589 7.12109 121.19 6.75195C120.798 6.37695 120.197 6.18945 119.389 6.18945C118.51 6.18945 117.851 6.50586 117.411 7.13867C116.978 7.76562 116.755 8.74121 116.743 10.0654V11.0322C116.743 12.415 116.951 13.4258 117.367 14.0645C117.789 14.7031 118.451 15.0225 119.354 15.0225C120.168 15.0225 120.774 14.8379 121.173 14.4688C121.577 14.0938 121.809 13.5166 121.867 12.7373H124.504ZM128.749 17H126.2V3.5H128.749V17ZM136.36 17C136.243 16.7715 136.158 16.4873 136.105 16.1475C135.49 16.833 134.69 17.1758 133.706 17.1758C132.774 17.1758 132.001 16.9062 131.386 16.3672C130.776 15.8281 130.472 15.1484 130.472 14.3281C130.472 13.3203 130.844 12.5469 131.588 12.0078C132.338 11.4688 133.419 11.1963 134.831 11.1904H136V10.6455C136 10.2061 135.886 9.85449 135.657 9.59082C135.435 9.32715 135.08 9.19531 134.594 9.19531C134.166 9.19531 133.829 9.29785 133.583 9.50293C133.343 9.70801 133.223 9.98926 133.223 10.3467H130.683C130.683 9.7959 130.853 9.28613 131.192 8.81738C131.532 8.34863 132.013 7.98242 132.634 7.71875C133.255 7.44922 133.952 7.31445 134.726 7.31445C135.897 7.31445 136.826 7.61035 137.512 8.20215C138.203 8.78809 138.549 9.61426 138.549 10.6807V14.8027C138.555 15.7051 138.681 16.3877 138.927 16.8506V17H136.36ZM134.26 15.2334C134.635 15.2334 134.98 15.1514 135.297 14.9873C135.613 14.8174 135.848 14.5918 136 14.3105V12.6758H135.051C133.779 12.6758 133.103 13.1152 133.021 13.9941L133.012 14.1436C133.012 14.46 133.123 14.7207 133.346 14.9258C133.568 15.1309 133.873 15.2334 134.26 15.2334ZM145.65 14.3721C145.65 14.0615 145.495 13.8184 145.185 13.6426C144.88 13.4609 144.388 13.2998 143.708 13.1592C141.446 12.6846 140.315 11.7236 140.315 10.2764C140.315 9.43262 140.664 8.72949 141.361 8.16699C142.064 7.59863 142.981 7.31445 144.112 7.31445C145.319 7.31445 146.283 7.59863 147.004 8.16699C147.73 8.73535 148.094 9.47363 148.094 10.3818H145.554C145.554 10.0186 145.437 9.71973 145.202 9.48535C144.968 9.24512 144.602 9.125 144.104 9.125C143.676 9.125 143.345 9.22168 143.11 9.41504C142.876 9.6084 142.759 9.85449 142.759 10.1533C142.759 10.4346 142.891 10.6631 143.154 10.8389C143.424 11.0088 143.875 11.1582 144.508 11.2871C145.141 11.4102 145.674 11.5508 146.107 11.709C147.449 12.2012 148.12 13.0537 148.12 14.2666C148.12 15.1338 147.748 15.8369 147.004 16.376C146.26 16.9092 145.299 17.1758 144.121 17.1758C143.324 17.1758 142.615 17.0352 141.994 16.7539C141.379 16.4668 140.896 16.0771 140.544 15.585C140.192 15.0869 140.017 14.5508 140.017 13.9766H142.425C142.448 14.4277 142.615 14.7734 142.926 15.0137C143.236 15.2539 143.652 15.374 144.174 15.374C144.66 15.374 145.026 15.2832 145.272 15.1016C145.524 14.9141 145.65 14.6709 145.65 14.3721ZM154.914 14.3721C154.914 14.0615 154.759 13.8184 154.448 13.6426C154.144 13.4609 153.651 13.2998 152.972 13.1592C150.71 12.6846 149.579 11.7236 149.579 10.2764C149.579 9.43262 149.928 8.72949 150.625 8.16699C151.328 7.59863 152.245 7.31445 153.376 7.31445C154.583 7.31445 155.547 7.59863 156.268 8.16699C156.994 8.73535 157.357 9.47363 157.357 10.3818H154.817C154.817 10.0186 154.7 9.71973 154.466 9.48535C154.231 9.24512 153.865 9.125 153.367 9.125C152.939 9.125 152.608 9.22168 152.374 9.41504C152.14 9.6084 152.022 9.85449 152.022 10.1533C152.022 10.4346 152.154 10.6631 152.418 10.8389C152.688 11.0088 153.139 11.1582 153.771 11.2871C154.404 11.4102 154.938 11.5508 155.371 11.709C156.713 12.2012 157.384 13.0537 157.384 14.2666C157.384 15.1338 157.012 15.8369 156.268 16.376C155.523 16.9092 154.562 17.1758 153.385 17.1758C152.588 17.1758 151.879 17.0352 151.258 16.7539C150.643 16.4668 150.159 16.0771 149.808 15.585C149.456 15.0869 149.28 14.5508 149.28 13.9766H151.688C151.712 14.4277 151.879 14.7734 152.189 15.0137C152.5 15.2539 152.916 15.374 153.438 15.374C153.924 15.374 154.29 15.2832 154.536 15.1016C154.788 14.9141 154.914 14.6709 154.914 14.3721ZM161.708 17H159.159V7.49023H161.708V17ZM159.01 5.0293C159.01 4.64844 159.136 4.33496 159.388 4.08887C159.646 3.84277 159.994 3.71973 160.434 3.71973C160.867 3.71973 161.213 3.84277 161.471 4.08887C161.729 4.33496 161.857 4.64844 161.857 5.0293C161.857 5.41602 161.726 5.73242 161.462 5.97852C161.204 6.22461 160.861 6.34766 160.434 6.34766C160.006 6.34766 159.66 6.22461 159.396 5.97852C159.139 5.73242 159.01 5.41602 159.01 5.0293ZM164.424 17V9.35352H163.009V7.49023H164.424V7.05078C164.436 5.85547 164.802 4.93555 165.522 4.29102C166.249 3.64062 167.271 3.31543 168.59 3.31543C169.381 3.31543 170.342 3.48828 171.473 3.83398L171.104 5.93457C170.529 5.76465 170.084 5.65625 169.768 5.60938C169.451 5.55664 169.111 5.53027 168.748 5.53027C167.564 5.53027 166.973 6.05469 166.973 7.10352V7.49023H168.845V9.35352H166.973V17H164.424ZM172.659 17H170.11V7.49023H172.659V17ZM178.715 15.1279C179.184 15.1279 179.564 14.999 179.857 14.7412C180.15 14.4834 180.303 14.1406 180.314 13.7129H182.696C182.69 14.3574 182.515 14.9492 182.169 15.4883C181.823 16.0215 181.349 16.4375 180.745 16.7363C180.147 17.0293 179.485 17.1758 178.759 17.1758C177.399 17.1758 176.327 16.7451 175.542 15.8838C174.757 15.0166 174.364 13.8213 174.364 12.2979V12.1309C174.364 10.666 174.754 9.49707 175.533 8.62402C176.312 7.75098 177.382 7.31445 178.741 7.31445C179.931 7.31445 180.883 7.6543 181.598 8.33398C182.318 9.00781 182.685 9.90723 182.696 11.0322H180.314C180.303 10.54 180.15 10.1416 179.857 9.83691C179.564 9.52637 179.178 9.37109 178.697 9.37109C178.105 9.37109 177.657 9.58789 177.353 10.0215C177.054 10.4492 176.904 11.1465 176.904 12.1133V12.377C176.904 13.3555 177.054 14.0586 177.353 14.4863C177.651 14.9141 178.105 15.1279 178.715 15.1279ZM189.657 17C189.54 16.7715 189.455 16.4873 189.402 16.1475C188.787 16.833 187.987 17.1758 187.003 17.1758C186.071 17.1758 185.298 16.9062 184.683 16.3672C184.073 15.8281 183.769 15.1484 183.769 14.3281C183.769 13.3203 184.141 12.5469 184.885 12.0078C185.635 11.4688 186.716 11.1963 188.128 11.1904H189.297V10.6455C189.297 10.2061 189.183 9.85449 188.954 9.59082C188.731 9.32715 188.377 9.19531 187.891 9.19531C187.463 9.19531 187.126 9.29785 186.88 9.50293C186.64 9.70801 186.52 9.98926 186.52 10.3467H183.979C183.979 9.7959 184.149 9.28613 184.489 8.81738C184.829 8.34863 185.31 7.98242 185.931 7.71875C186.552 7.44922 187.249 7.31445 188.022 7.31445C189.194 7.31445 190.123 7.61035 190.809 8.20215C191.5 8.78809 191.846 9.61426 191.846 10.6807V14.8027C191.852 15.7051 191.978 16.3877 192.224 16.8506V17H189.657ZM187.557 15.2334C187.932 15.2334 188.277 15.1514 188.594 14.9873C188.91 14.8174 189.145 14.5918 189.297 14.3105V12.6758H188.348C187.076 12.6758 186.399 13.1152 186.317 13.9941L186.309 14.1436C186.309 14.46 186.42 14.7207 186.643 14.9258C186.865 15.1309 187.17 15.2334 187.557 15.2334ZM196.838 5.15234V7.49023H198.464V9.35352H196.838V14.0996C196.838 14.4512 196.905 14.7031 197.04 14.8555C197.175 15.0078 197.433 15.084 197.813 15.084C198.095 15.084 198.344 15.0635 198.561 15.0225V16.9473C198.062 17.0996 197.55 17.1758 197.022 17.1758C195.241 17.1758 194.333 16.2764 194.298 14.4775V9.35352H192.909V7.49023H194.298V5.15234H196.838ZM202.56 17H200.011V7.49023H202.56V17ZM199.861 5.0293C199.861 4.64844 199.987 4.33496 200.239 4.08887C200.497 3.84277 200.846 3.71973 201.285 3.71973C201.719 3.71973 202.064 3.84277 202.322 4.08887C202.58 4.33496 202.709 4.64844 202.709 5.0293C202.709 5.41602 202.577 5.73242 202.313 5.97852C202.056 6.22461 201.713 6.34766 201.285 6.34766C200.857 6.34766 200.512 6.22461 200.248 5.97852C199.99 5.73242 199.861 5.41602 199.861 5.0293ZM204.265 12.1572C204.265 11.2139 204.446 10.373 204.81 9.63477C205.173 8.89648 205.694 8.3252 206.374 7.9209C207.06 7.5166 207.854 7.31445 208.756 7.31445C210.039 7.31445 211.085 7.70703 211.894 8.49219C212.708 9.27734 213.162 10.3438 213.256 11.6914L213.273 12.3418C213.273 13.8008 212.866 14.9727 212.052 15.8574C211.237 16.7363 210.145 17.1758 208.773 17.1758C207.402 17.1758 206.307 16.7363 205.486 15.8574C204.672 14.9785 204.265 13.7832 204.265 12.2715V12.1572ZM206.805 12.3418C206.805 13.2441 206.975 13.9355 207.314 14.416C207.654 14.8906 208.141 15.1279 208.773 15.1279C209.389 15.1279 209.869 14.8936 210.215 14.4248C210.561 13.9502 210.733 13.1943 210.733 12.1572C210.733 11.2725 210.561 10.5869 210.215 10.1006C209.869 9.61426 209.383 9.37109 208.756 9.37109C208.135 9.37109 207.654 9.61426 207.314 10.1006C206.975 10.5811 206.805 11.3281 206.805 12.3418ZM217.176 7.49023L217.255 8.58887C217.935 7.73926 218.846 7.31445 219.988 7.31445C220.996 7.31445 221.746 7.61035 222.238 8.20215C222.73 8.79395 222.982 9.67871 222.994 10.8564V17H220.454V10.918C220.454 10.3789 220.337 9.98926 220.103 9.74902C219.868 9.50293 219.479 9.37988 218.934 9.37988C218.219 9.37988 217.683 9.68457 217.325 10.2939V17H214.785V7.49023H217.176Z" fill="black"/>
<line x1="54.0803" y1="135.506" x2="140.08" y2="149.507" stroke="black"/>
<line x1="54.8774" y1="176.515" x2="137.877" y2="155.515" stroke="black"/>
<line x1="54.2297" y1="95.5559" x2="141.23" y2="140.556" stroke="black"/>
<path d="M183.5 151.5C183.5 164.193 172.989 174.5 160 174.5C147.011 174.5 136.5 164.193 136.5 151.5C136.5 138.807 147.011 128.5 160 128.5C172.989 128.5 183.5 138.807 183.5 151.5Z" fill="#F2994A" stroke="black"/>
<circle cx="38.5" cy="92.5" r="16" fill="white" stroke="black"/>
<circle cx="38.5" cy="134.5" r="16" fill="white" stroke="black"/>
<path d="M94.1016 109C94.0078 108.812 93.9316 108.479 93.873 107.998C93.1172 108.783 92.2148 109.176 91.166 109.176C90.2285 109.176 89.458 108.912 88.8545 108.385C88.2568 107.852 87.958 107.178 87.958 106.363C87.958 105.373 88.333 104.605 89.083 104.061C89.8389 103.51 90.8994 103.234 92.2646 103.234H93.8467V102.487C93.8467 101.919 93.6768 101.468 93.3369 101.134C92.9971 100.794 92.4961 100.624 91.834 100.624C91.2539 100.624 90.7676 100.771 90.375 101.063C89.9824 101.356 89.7861 101.711 89.7861 102.127H88.1514C88.1514 101.652 88.3184 101.195 88.6523 100.756C88.9922 100.311 89.4492 99.959 90.0234 99.7012C90.6035 99.4434 91.2393 99.3145 91.9307 99.3145C93.0264 99.3145 93.8848 99.5898 94.5059 100.141C95.127 100.686 95.4492 101.438 95.4727 102.399V106.776C95.4727 107.649 95.584 108.344 95.8066 108.859V109H94.1016ZM91.4033 107.761C91.9131 107.761 92.3965 107.629 92.8535 107.365C93.3105 107.102 93.6416 106.759 93.8467 106.337V104.386H92.5723C90.5801 104.386 89.584 104.969 89.584 106.135C89.584 106.645 89.7539 107.043 90.0938 107.33C90.4336 107.617 90.8701 107.761 91.4033 107.761Z" fill="black"/>
<path d="M94.1016 136C94.0078 135.812 93.9316 135.479 93.873 134.998C93.1172 135.783 92.2148 136.176 91.166 136.176C90.2285 136.176 89.458 135.912 88.8545 135.385C88.2568 134.852 87.958 134.178 87.958 133.363C87.958 132.373 88.333 131.605 89.083 131.061C89.8389 130.51 90.8994 130.234 92.2646 130.234H93.8467V129.487C93.8467 128.919 93.6768 128.468 93.3369 128.134C92.9971 127.794 92.4961 127.624 91.834 127.624C91.2539 127.624 90.7676 127.771 90.375 128.063C89.9824 128.356 89.7861 128.711 89.7861 129.127H88.1514C88.1514 128.652 88.3184 128.195 88.6523 127.756C88.9922 127.311 89.4492 126.959 90.0234 126.701C90.6035 126.443 91.2393 126.314 91.9307 126.314C93.0264 126.314 93.8848 126.59 94.5059 127.141C95.127 127.686 95.4492 128.438 95.4727 129.399V133.776C95.4727 134.649 95.584 135.344 95.8066 135.859V136H94.1016ZM91.4033 134.761C91.9131 134.761 92.3965 134.629 92.8535 134.365C93.3105 134.102 93.6416 133.759 93.8467 133.337V131.386H92.5723C90.5801 131.386 89.584 131.969 89.584 133.135C89.584 133.645 89.7539 134.043 90.0938 134.33C90.4336 134.617 90.8701 134.761 91.4033 134.761Z" fill="black"/>
<path d="M100.271 116H99.1816V108.775L96.9961 109.578V108.594L100.102 107.428H100.271V116Z" fill="black"/>
<path d="M45.2715 100H44.1816V92.7754L41.9961 93.5781V92.5938L45.1016 91.4277H45.2715V100Z" fill="black"/>
<path d="M102.299 141H96.709V140.221L99.6621 136.939C100.1 136.443 100.4 136.041 100.564 135.732C100.732 135.42 100.816 135.098 100.816 134.766C100.816 134.32 100.682 133.955 100.412 133.67C100.143 133.385 99.7832 133.242 99.334 133.242C98.7949 133.242 98.375 133.396 98.0742 133.705C97.7773 134.01 97.6289 134.436 97.6289 134.982H96.5449C96.5449 134.197 96.7969 133.562 97.3008 133.078C97.8086 132.594 98.4863 132.352 99.334 132.352C100.127 132.352 100.754 132.561 101.215 132.979C101.676 133.393 101.906 133.945 101.906 134.637C101.906 135.477 101.371 136.477 100.301 137.637L98.0156 140.115H102.299V141Z" fill="black"/>
<path d="M94.1016 183C94.0078 182.812 93.9316 182.479 93.873 181.998C93.1172 182.783 92.2148 183.176 91.166 183.176C90.2285 183.176 89.458 182.912 88.8545 182.385C88.2568 181.852 87.958 181.178 87.958 180.363C87.958 179.373 88.333 178.605 89.083 178.061C89.8389 177.51 90.8994 177.234 92.2646 177.234H93.8467V176.487C93.8467 175.919 93.6768 175.468 93.3369 175.134C92.9971 174.794 92.4961 174.624 91.834 174.624C91.2539 174.624 90.7676 174.771 90.375 175.063C89.9824 175.356 89.7861 175.711 89.7861 176.127H88.1514C88.1514 175.652 88.3184 175.195 88.6523 174.756C88.9922 174.311 89.4492 173.959 90.0234 173.701C90.6035 173.443 91.2393 173.314 91.9307 173.314C93.0264 173.314 93.8848 173.59 94.5059 174.141C95.127 174.686 95.4492 175.438 95.4727 176.399V180.776C95.4727 181.649 95.584 182.344 95.8066 182.859V183H94.1016ZM91.4033 181.761C91.9131 181.761 92.3965 181.629 92.8535 181.365C93.3105 181.102 93.6416 180.759 93.8467 180.337V178.386H92.5723C90.5801 178.386 89.584 178.969 89.584 180.135C89.584 180.645 89.7539 181.043 90.0938 181.33C90.4336 181.617 90.8701 181.761 91.4033 181.761Z" fill="black"/>
<path d="M99.2852 180.207H100.1C100.611 180.199 101.014 180.064 101.307 179.803C101.6 179.541 101.746 179.188 101.746 178.742C101.746 177.742 101.248 177.242 100.252 177.242C99.7832 177.242 99.4082 177.377 99.127 177.646C98.8496 177.912 98.7109 178.266 98.7109 178.707H97.627C97.627 178.031 97.873 177.471 98.3652 177.025C98.8613 176.576 99.4902 176.352 100.252 176.352C101.057 176.352 101.688 176.564 102.145 176.99C102.602 177.416 102.83 178.008 102.83 178.766C102.83 179.137 102.709 179.496 102.467 179.844C102.229 180.191 101.902 180.451 101.488 180.623C101.957 180.771 102.318 181.018 102.572 181.361C102.83 181.705 102.959 182.125 102.959 182.621C102.959 183.387 102.709 183.994 102.209 184.443C101.709 184.893 101.059 185.117 100.258 185.117C99.457 185.117 98.8047 184.9 98.3008 184.467C97.8008 184.033 97.5508 183.461 97.5508 182.75H98.6406C98.6406 183.199 98.7871 183.559 99.0801 183.828C99.373 184.098 99.7656 184.232 100.258 184.232C100.781 184.232 101.182 184.096 101.459 183.822C101.736 183.549 101.875 183.156 101.875 182.645C101.875 182.148 101.723 181.768 101.418 181.502C101.113 181.236 100.674 181.1 100.1 181.092H99.2852V180.207Z" fill="black"/>
<path d="M95.1016 209C95.0078 208.812 94.9316 208.479 94.873 207.998C94.1172 208.783 93.2148 209.176 92.166 209.176C91.2285 209.176 90.458 208.912 89.8545 208.385C89.2568 207.852 88.958 207.178 88.958 206.363C88.958 205.373 89.333 204.605 90.083 204.061C90.8389 203.51 91.8994 203.234 93.2646 203.234H94.8467V202.487C94.8467 201.919 94.6768 201.468 94.3369 201.134C93.9971 200.794 93.4961 200.624 92.834 200.624C92.2539 200.624 91.7676 200.771 91.375 201.063C90.9824 201.356 90.7861 201.711 90.7861 202.127H89.1514C89.1514 201.652 89.3184 201.195 89.6523 200.756C89.9922 200.311 90.4492 199.959 91.0234 199.701C91.6035 199.443 92.2393 199.314 92.9307 199.314C94.0264 199.314 94.8848 199.59 95.5059 200.141C96.127 200.686 96.4492 201.438 96.4727 202.399V206.776C96.4727 207.649 96.584 208.344 96.8066 208.859V209H95.1016ZM92.4033 207.761C92.9131 207.761 93.3965 207.629 93.8535 207.365C94.3105 207.102 94.6416 206.759 94.8467 206.337V204.386H93.5723C91.5801 204.386 90.584 204.969 90.584 206.135C90.584 206.645 90.7539 207.043 91.0938 207.33C91.4336 207.617 91.8701 207.761 92.4033 207.761Z" fill="black"/>
<path d="M102.285 210.135H103.469V211.02H102.285V213H101.195V211.02H97.3105V210.381L101.131 204.469H102.285V210.135ZM98.541 210.135H101.195V205.951L101.066 206.186L98.541 210.135Z" fill="black"/>
<path d="M46.2988 142H40.709V141.221L43.6621 137.939C44.0996 137.443 44.4004 137.041 44.5645 136.732C44.7324 136.42 44.8164 136.098 44.8164 135.766C44.8164 135.32 44.6816 134.955 44.4121 134.67C44.1426 134.385 43.7832 134.242 43.334 134.242C42.7949 134.242 42.375 134.396 42.0742 134.705C41.7773 135.01 41.6289 135.436 41.6289 135.982H40.5449C40.5449 135.197 40.7969 134.562 41.3008 134.078C41.8086 133.594 42.4863 133.352 43.334 133.352C44.127 133.352 44.7539 133.561 45.2148 133.979C45.6758 134.393 45.9062 134.945 45.9062 135.637C45.9062 136.477 45.3711 137.477 44.3008 138.637L42.0156 141.115H46.2988V142Z" fill="black"/>
<path d="M37.4209 89.9619L39.5303 86.4902H41.4287L38.3174 91.1924L41.5254 96H39.6445L37.4473 92.4404L35.25 96H33.3604L36.5684 91.1924L33.457 86.4902H35.3379L37.4209 89.9619Z" fill="black"/>
<path d="M36.4209 130.962L38.5303 127.49H40.4287L37.3174 132.192L40.5254 137H38.6445L36.4473 133.44L34.25 137H32.3604L35.5684 132.192L32.457 127.49H34.3379L36.4209 130.962Z" fill="black"/>
<circle cx="38.5" cy="177.5" r="16" fill="white" stroke="black"/>
<path d="M43.2852 180.207H44.0996C44.6113 180.199 45.0137 180.064 45.3066 179.803C45.5996 179.541 45.7461 179.188 45.7461 178.742C45.7461 177.742 45.248 177.242 44.252 177.242C43.7832 177.242 43.4082 177.377 43.127 177.646C42.8496 177.912 42.7109 178.266 42.7109 178.707H41.627C41.627 178.031 41.873 177.471 42.3652 177.025C42.8613 176.576 43.4902 176.352 44.252 176.352C45.0566 176.352 45.6875 176.564 46.1445 176.99C46.6016 177.416 46.8301 178.008 46.8301 178.766C46.8301 179.137 46.709 179.496 46.4668 179.844C46.2285 180.191 45.9023 180.451 45.4883 180.623C45.957 180.771 46.3184 181.018 46.5723 181.361C46.8301 181.705 46.959 182.125 46.959 182.621C46.959 183.387 46.709 183.994 46.209 184.443C45.709 184.893 45.0586 185.117 44.2578 185.117C43.457 185.117 42.8047 184.9 42.3008 184.467C41.8008 184.033 41.5508 183.461 41.5508 182.75H42.6406C42.6406 183.199 42.7871 183.559 43.0801 183.828C43.373 184.098 43.7656 184.232 44.2578 184.232C44.7812 184.232 45.1816 184.096 45.459 183.822C45.7363 183.549 45.875 183.156 45.875 182.645C45.875 182.148 45.7227 181.768 45.418 181.502C45.1133 181.236 44.6738 181.1 44.0996 181.092H43.2852V180.207Z" fill="black"/>
<path d="M37.4209 173.962L39.5303 170.49H41.4287L38.3174 175.192L41.5254 180H39.6445L37.4473 176.44L35.25 180H33.3604L36.5684 175.192L33.457 170.49H35.3379L37.4209 173.962Z" fill="black"/>
<circle cx="38.5" cy="219.5" r="16" fill="white" stroke="black"/>
<path d="M46.2852 224.135H47.4688V225.02H46.2852V227H45.1953V225.02H41.3105V224.381L45.1309 218.469H46.2852V224.135ZM42.541 224.135H45.1953V219.951L45.0664 220.186L42.541 224.135Z" fill="black"/>
<path d="M37.4209 215.962L39.5303 212.49H41.4287L38.3174 217.192L41.5254 222H39.6445L37.4473 218.44L35.25 222H33.3604L36.5684 217.192L33.457 212.49H35.3379L37.4209 215.962Z" fill="black"/>
<path d="M226.354 148.354C226.549 148.158 226.549 147.842 226.354 147.646L223.172 144.464C222.976 144.269 222.66 144.269 222.464 144.464C222.269 144.66 222.269 144.976 222.464 145.172L225.293 148L222.464 150.828C222.269 151.024 222.269 151.34 222.464 151.536C222.66 151.731 222.976 151.731 223.172 151.536L226.354 148.354ZM182 148.5H226V147.5H182V148.5Z" fill="black"/>
<path d="M177.483 146.835H174.987C176.159 147.702 176.745 148.936 176.745 150.535V150.685C176.745 151.505 176.566 152.261 176.209 152.952C175.852 153.638 175.348 154.18 174.697 154.578C174.053 154.977 173.32 155.176 172.5 155.176C171.223 155.176 170.194 154.733 169.415 153.849C168.636 152.958 168.246 151.766 168.246 150.271V150.157C168.246 149.267 168.419 148.467 168.765 147.758C169.11 147.049 169.6 146.495 170.232 146.097C170.871 145.698 171.601 145.496 172.421 145.49H177.483V146.835ZM169.881 150.351C169.881 151.423 170.115 152.275 170.584 152.908C171.053 153.535 171.691 153.849 172.5 153.849C173.314 153.849 173.953 153.532 174.416 152.899C174.885 152.261 175.119 151.347 175.119 150.157C175.119 149.149 174.882 148.344 174.407 147.74C173.938 147.137 173.297 146.835 172.482 146.835C171.68 146.835 171.044 147.134 170.575 147.731C170.112 148.329 169.881 149.202 169.881 150.351Z" fill="black"/>
<line x1="56.745" y1="215.57" x2="142.745" y2="164.57" stroke="black"/>
<path d="M239.442 147.99V153H237.755V140.203H242.475C243.875 140.203 244.971 140.561 245.762 141.275C246.559 141.99 246.957 142.937 246.957 144.114C246.957 145.356 246.567 146.314 245.788 146.988C245.015 147.656 243.904 147.99 242.457 147.99H239.442ZM239.442 146.61H242.475C243.377 146.61 244.068 146.399 244.549 145.978C245.029 145.55 245.27 144.935 245.27 144.132C245.27 143.37 245.029 142.761 244.549 142.304C244.068 141.847 243.409 141.609 242.571 141.592H239.442V146.61ZM248.794 147.806C248.794 146.481 248.97 145.21 249.321 143.991C249.679 142.772 250.209 141.665 250.912 140.669C251.615 139.673 252.345 138.97 253.101 138.56L253.435 139.632C252.579 140.288 251.876 141.29 251.325 142.638C250.78 143.985 250.481 145.494 250.429 147.164L250.42 147.911C250.42 150.173 250.833 152.136 251.659 153.8C252.157 154.796 252.749 155.575 253.435 156.138L253.101 157.131C252.321 156.697 251.577 155.971 250.868 154.951C249.485 152.959 248.794 150.577 248.794 147.806ZM258.119 150.618L260.334 143.49H262.074L258.251 154.468C257.659 156.05 256.719 156.841 255.43 156.841L255.122 156.814L254.516 156.7V155.382L254.955 155.417C255.506 155.417 255.934 155.306 256.238 155.083C256.549 154.86 256.804 154.453 257.003 153.861L257.363 152.895L253.971 143.49H255.746L258.119 150.618ZM275.434 145.846H268.104V144.431H275.434V145.846ZM275.434 149.493H268.104V148.087H275.434V149.493ZM287.519 153H285.884V142.163L282.605 143.367V141.891L287.264 140.142H287.519V153ZM298.531 155.373H297.222V140.203H298.531V155.373ZM308.964 146.962L311.073 143.49H312.972L309.86 148.192L313.068 153H311.188L308.99 149.44L306.793 153H304.903L308.111 148.192L305 143.49H306.881L308.964 146.962ZM318.456 147.894C318.456 149.2 318.283 150.454 317.938 151.655C317.598 152.851 317.073 153.955 316.364 154.969C315.661 155.982 314.923 156.703 314.149 157.131L313.807 156.138C314.709 155.446 315.433 154.374 315.978 152.921C316.528 151.462 316.81 149.845 316.821 148.069V147.788C316.821 146.558 316.692 145.415 316.435 144.36C316.177 143.3 315.816 142.351 315.354 141.513C314.896 140.675 314.381 140.021 313.807 139.553L314.149 138.56C314.923 138.987 315.658 139.702 316.355 140.704C317.059 141.706 317.583 142.811 317.929 144.018C318.28 145.225 318.456 146.517 318.456 147.894Z" fill="black"/>
<line x1="13.5" y1="350" x2="13.5" y2="447" stroke="black"/>
<line x1="116.9" y1="349" x2="116.9" y2="446" stroke="black"/>
<line x1="13" y1="349.5" x2="20" y2="349.5" stroke="black"/>
<line x1="110" y1="349.5" x2="117" y2="349.5" stroke="black"/>
<line x1="13" y1="446.5" x2="20" y2="446.5" stroke="black"/>
<line x1="123.5" y1="373" x2="123.5" y2="414" stroke="black"/>
<line x1="123" y1="372.5" x2="128" y2="372.5" stroke="black"/>
<line x1="123" y1="413.5" x2="128" y2="413.5" stroke="black"/>
<line x1="170.5" y1="414" x2="170.5" y2="373" stroke="black"/>
<line x1="171" y1="414.5" x2="166" y2="414.5" stroke="black"/>
<line x1="171" y1="373.5" x2="166" y2="373.5" stroke="black"/>
<line x1="110" y1="445.5" x2="117" y2="445.5" stroke="black"/>
<path d="M64.0176 464.107L67.085 459.203H69.0713L65.0283 465.549L69.168 472H67.1641L64.0176 467.008L60.8535 472H58.8584L63.0068 465.549L58.9551 459.203H60.9326L64.0176 464.107Z" fill="black"/>
<path d="M145.206 471C145.112 470.812 145.036 470.479 144.978 469.998C144.222 470.783 143.319 471.176 142.271 471.176C141.333 471.176 140.562 470.912 139.959 470.385C139.361 469.852 139.062 469.178 139.062 468.363C139.062 467.373 139.438 466.605 140.188 466.061C140.943 465.51 142.004 465.234 143.369 465.234H144.951V464.487C144.951 463.919 144.781 463.468 144.441 463.134C144.102 462.794 143.601 462.624 142.938 462.624C142.358 462.624 141.872 462.771 141.479 463.063C141.087 463.356 140.891 463.711 140.891 464.127H139.256C139.256 463.652 139.423 463.195 139.757 462.756C140.097 462.311 140.554 461.959 141.128 461.701C141.708 461.443 142.344 461.314 143.035 461.314C144.131 461.314 144.989 461.59 145.61 462.141C146.231 462.686 146.554 463.438 146.577 464.399V468.776C146.577 469.649 146.688 470.344 146.911 470.859V471H145.206ZM142.508 469.761C143.018 469.761 143.501 469.629 143.958 469.365C144.415 469.102 144.746 468.759 144.951 468.337V466.386H143.677C141.685 466.386 140.688 466.969 140.688 468.135C140.688 468.645 140.858 469.043 141.198 469.33C141.538 469.617 141.975 469.761 142.508 469.761Z" fill="black"/>
<path d="M156.355 451.127H153.156V460H151.851V451.127H148.658V450.047H156.355V451.127Z" fill="black"/>
<path d="M209.442 465.99V471H207.755V458.203H212.475C213.875 458.203 214.971 458.561 215.762 459.275C216.559 459.99 216.957 460.937 216.957 462.114C216.957 463.356 216.567 464.314 215.788 464.988C215.015 465.656 213.904 465.99 212.457 465.99H209.442ZM209.442 464.61H212.475C213.377 464.61 214.068 464.399 214.549 463.978C215.029 463.55 215.27 462.935 215.27 462.132C215.27 461.37 215.029 460.761 214.549 460.304C214.068 459.847 213.409 459.609 212.571 459.592H209.442V464.61ZM218.794 465.806C218.794 464.481 218.97 463.21 219.321 461.991C219.679 460.772 220.209 459.665 220.912 458.669C221.615 457.673 222.345 456.97 223.101 456.56L223.435 457.632C222.579 458.288 221.876 459.29 221.325 460.638C220.78 461.985 220.481 463.494 220.429 465.164L220.42 465.911C220.42 468.173 220.833 470.136 221.659 471.8C222.157 472.796 222.749 473.575 223.435 474.138L223.101 475.131C222.321 474.697 221.577 473.971 220.868 472.951C219.485 470.959 218.794 468.577 218.794 465.806ZM228.119 468.618L230.334 461.49H232.074L228.251 472.468C227.659 474.05 226.719 474.841 225.43 474.841L225.122 474.814L224.516 474.7V473.382L224.955 473.417C225.506 473.417 225.934 473.306 226.238 473.083C226.549 472.86 226.804 472.453 227.003 471.861L227.363 470.895L223.971 461.49H225.746L228.119 468.618ZM245.434 463.846H238.104V462.431H245.434V463.846ZM245.434 467.493H238.104V466.087H245.434V467.493ZM257.519 471H255.884V460.163L252.605 461.367V459.891L257.264 458.142H257.519V471ZM268.531 473.373H267.222V458.203H268.531V473.373ZM278.964 464.962L281.073 461.49H282.972L279.86 466.192L283.068 471H281.188L278.99 467.44L276.793 471H274.903L278.111 466.192L275 461.49H276.881L278.964 464.962ZM288.456 465.894C288.456 467.2 288.283 468.454 287.938 469.655C287.598 470.851 287.073 471.955 286.364 472.969C285.661 473.982 284.923 474.703 284.149 475.131L283.807 474.138C284.709 473.446 285.433 472.374 285.978 470.921C286.528 469.462 286.81 467.845 286.821 466.069V465.788C286.821 464.558 286.692 463.415 286.435 462.36C286.177 461.3 285.816 460.351 285.354 459.513C284.896 458.675 284.381 458.021 283.807 457.553L284.149 456.56C284.923 456.987 285.658 457.702 286.355 458.704C287.059 459.706 287.583 460.811 287.929 462.018C288.28 463.225 288.456 464.517 288.456 465.894Z" fill="black"/>
<path d="M40.7627 400H39.1279V389.163L35.8496 390.367V388.891L40.5078 387.142H40.7627V400ZM53.5508 394.542C53.5508 396.446 53.2256 397.861 52.5752 398.787C51.9248 399.713 50.9082 400.176 49.5254 400.176C48.1602 400.176 47.1494 399.725 46.4932 398.822C45.8369 397.914 45.4971 396.561 45.4736 394.762V392.591C45.4736 390.71 45.7988 389.312 46.4492 388.398C47.0996 387.484 48.1191 387.027 49.5078 387.027C50.8848 387.027 51.8984 387.47 52.5488 388.354C53.1992 389.233 53.5332 390.593 53.5508 392.433V394.542ZM51.9248 392.318C51.9248 390.941 51.7314 389.939 51.3447 389.312C50.958 388.68 50.3457 388.363 49.5078 388.363C48.6758 388.363 48.0693 388.677 47.6885 389.304C47.3076 389.931 47.1113 390.895 47.0996 392.195V394.797C47.0996 396.18 47.2988 397.202 47.6973 397.864C48.1016 398.521 48.7109 398.849 49.5254 398.849C50.3281 398.849 50.9229 398.538 51.3096 397.917C51.7021 397.296 51.9072 396.317 51.9248 394.981V392.318ZM63.6582 394.542C63.6582 396.446 63.333 397.861 62.6826 398.787C62.0322 399.713 61.0156 400.176 59.6328 400.176C58.2676 400.176 57.2568 399.725 56.6006 398.822C55.9443 397.914 55.6045 396.561 55.5811 394.762V392.591C55.5811 390.71 55.9062 389.312 56.5566 388.398C57.207 387.484 58.2266 387.027 59.6152 387.027C60.9922 387.027 62.0059 387.47 62.6562 388.354C63.3066 389.233 63.6406 390.593 63.6582 392.433V394.542ZM62.0322 392.318C62.0322 390.941 61.8389 389.939 61.4521 389.312C61.0654 388.68 60.4531 388.363 59.6152 388.363C58.7832 388.363 58.1768 388.677 57.7959 389.304C57.415 389.931 57.2188 390.895 57.207 392.195V394.797C57.207 396.18 57.4062 397.202 57.8047 397.864C58.209 398.521 58.8184 398.849 59.6328 398.849C60.4355 398.849 61.0303 398.538 61.417 397.917C61.8096 397.296 62.0146 396.317 62.0322 394.981V392.318ZM73.5635 393.962L75.6729 390.49H77.5713L74.46 395.192L77.668 400H75.7871L73.5898 396.44L71.3926 400H69.5029L72.7109 395.192L69.5996 390.49H71.4805L73.5635 393.962Z" fill="black"/>
<path d="M90.4648 395.702H92.2402V397.029H90.4648V400H88.8301V397.029H83.0029V396.071L88.7334 387.203H90.4648V395.702ZM84.8486 395.702H88.8301V389.427L88.6367 389.778L84.8486 395.702Z" fill="#EB5757"/>
<line x1="210.5" y1="350" x2="210.5" y2="447" stroke="black"/>
<line x1="282.9" y1="349" x2="282.9" y2="446" stroke="black"/>
<line x1="210" y1="349.5" x2="217" y2="349.5" stroke="black"/>
<line x1="276" y1="349.5" x2="283" y2="349.5" stroke="black"/>
<line x1="210" y1="446.5" x2="217" y2="446.5" stroke="black"/>
<line x1="276" y1="445.5" x2="283" y2="445.5" stroke="black"/>
<path d="M224.763 400H223.128V389.163L219.85 390.367V388.891L224.508 387.142H224.763V400ZM237.551 394.542C237.551 396.446 237.226 397.861 236.575 398.787C235.925 399.713 234.908 400.176 233.525 400.176C232.16 400.176 231.149 399.725 230.493 398.822C229.837 397.914 229.497 396.561 229.474 394.762V392.591C229.474 390.71 229.799 389.312 230.449 388.398C231.1 387.484 232.119 387.027 233.508 387.027C234.885 387.027 235.898 387.47 236.549 388.354C237.199 389.233 237.533 390.593 237.551 392.433V394.542ZM235.925 392.318C235.925 390.941 235.731 389.939 235.345 389.312C234.958 388.68 234.346 388.363 233.508 388.363C232.676 388.363 232.069 388.677 231.688 389.304C231.308 389.931 231.111 390.895 231.1 392.195V394.797C231.1 396.18 231.299 397.202 231.697 397.864C232.102 398.521 232.711 398.849 233.525 398.849C234.328 398.849 234.923 398.538 235.31 397.917C235.702 397.296 235.907 396.317 235.925 394.981V392.318ZM247.658 394.542C247.658 396.446 247.333 397.861 246.683 398.787C246.032 399.713 245.016 400.176 243.633 400.176C242.268 400.176 241.257 399.725 240.601 398.822C239.944 397.914 239.604 396.561 239.581 394.762V392.591C239.581 390.71 239.906 389.312 240.557 388.398C241.207 387.484 242.227 387.027 243.615 387.027C244.992 387.027 246.006 387.47 246.656 388.354C247.307 389.233 247.641 390.593 247.658 392.433V394.542ZM246.032 392.318C246.032 390.941 245.839 389.939 245.452 389.312C245.065 388.68 244.453 388.363 243.615 388.363C242.783 388.363 242.177 388.677 241.796 389.304C241.415 389.931 241.219 390.895 241.207 392.195V394.797C241.207 396.18 241.406 397.202 241.805 397.864C242.209 398.521 242.818 398.849 243.633 398.849C244.436 398.849 245.03 398.538 245.417 397.917C245.81 397.296 246.015 396.317 246.032 394.981V392.318ZM257.563 393.962L259.673 390.49H261.571L258.46 395.192L261.668 400H259.787L257.59 396.44L255.393 400H253.503L256.711 395.192L253.6 390.49H255.48L257.563 393.962ZM272.944 400H271.31V389.163L268.031 390.367V388.891L272.689 387.142H272.944V400Z" fill="black"/>
<path d="M136.391 395.702H138.166V397.029H136.391V400H134.756V397.029H128.929V396.071L134.659 387.203H136.391V395.702ZM130.774 395.702H134.756V389.427L134.562 389.778L130.774 395.702Z" fill="#EB5757"/>
<path d="M147.456 393.962L149.565 390.49H151.464L148.353 395.192L151.561 400H149.68L147.482 396.44L145.285 400H143.396L146.604 395.192L143.492 390.49H145.373L147.456 393.962ZM162.837 400H161.202V389.163L157.924 390.367V388.891L162.582 387.142H162.837V400Z" fill="black"/>
<path d="M198.727 390.846H191.396V389.431H198.727V390.846ZM198.727 394.493H191.396V393.087H198.727V394.493Z" fill="black"/>
<path d="M2.38965 284H0.807617L2.45996 274.49H4.04199L2.38965 284ZM3.69922 271.019C3.96875 271.007 4.19141 271.089 4.36719 271.265C4.54883 271.435 4.63965 271.66 4.63965 271.941C4.63379 272.217 4.54297 272.442 4.36719 272.618C4.19727 272.794 3.97461 272.888 3.69922 272.899C3.42383 272.911 3.19824 272.832 3.02246 272.662C2.84668 272.492 2.76172 272.27 2.76758 271.994C2.77344 271.719 2.86133 271.49 3.03125 271.309C3.20117 271.127 3.42383 271.03 3.69922 271.019ZM8.14648 274.481L7.91797 275.686C8.77344 274.748 9.74609 274.291 10.8359 274.314C11.7324 274.338 12.3945 274.648 12.8223 275.246C13.25 275.844 13.4082 276.685 13.2969 277.769L12.2598 284H10.6689L11.7148 277.742C11.75 277.455 11.7529 277.188 11.7236 276.942C11.624 276.122 11.1406 275.703 10.2734 275.686C9.31836 275.668 8.48047 276.178 7.75977 277.215L6.58203 284H4.99121L6.64355 274.49L8.14648 274.481ZM23.3252 279.289C23.208 280.256 22.9473 281.126 22.543 281.899C22.1387 282.673 21.6377 283.253 21.04 283.64C20.4424 284.021 19.7803 284.202 19.0537 284.185C17.9521 284.161 17.1084 283.789 16.5225 283.068L15.6699 287.656H14.0791L16.3643 274.49L17.8057 274.481L17.6299 275.545C18.415 274.701 19.3555 274.291 20.4512 274.314C21.3652 274.338 22.0771 274.675 22.5869 275.325C23.0967 275.976 23.3662 276.872 23.3955 278.015C23.4014 278.39 23.3867 278.753 23.3516 279.104L23.3252 279.289ZM21.7607 279.104L21.8047 278.366C21.8047 277.511 21.6406 276.857 21.3125 276.406C20.9902 275.949 20.5215 275.709 19.9062 275.686C18.9863 275.662 18.1924 276.099 17.5244 276.995L16.7246 281.557C17.082 282.4 17.7236 282.834 18.6494 282.857C19.4404 282.875 20.1113 282.567 20.6621 281.935C21.2188 281.296 21.585 280.353 21.7607 279.104ZM30.6465 283.06C29.9023 283.827 28.9561 284.199 27.8076 284.176C26.8994 284.152 26.2256 283.827 25.7861 283.2C25.3525 282.573 25.1914 281.718 25.3027 280.634L26.3223 274.49H27.9131L26.8848 280.66C26.8555 280.918 26.8496 281.17 26.8672 281.416C26.8965 281.838 27.0225 282.169 27.2451 282.409C27.4678 282.649 27.7783 282.778 28.1768 282.796C29.3135 282.831 30.1924 282.371 30.8135 281.416L32.0088 274.49H33.5996L31.9473 284H30.4443L30.6465 283.06ZM38.5303 272.188L38.126 274.49H39.8574L39.6377 275.747H37.915L36.9219 281.662C36.9043 281.814 36.9014 281.955 36.9131 282.084C36.9541 282.541 37.2031 282.77 37.6602 282.77C37.8535 282.77 38.1113 282.74 38.4336 282.682L38.3105 284.009C37.9297 284.114 37.543 284.167 37.1504 284.167C36.5176 284.155 36.043 283.924 35.7266 283.473C35.4102 283.016 35.2871 282.403 35.3574 281.636L36.3242 275.747H34.6455L34.8652 274.49H36.5439L36.9482 272.188H38.5303ZM46.2646 284H44.6826L47.0205 270.5H48.6113L46.2646 284ZM54.6846 284C54.6436 283.83 54.623 283.663 54.623 283.499L54.6494 282.998C53.7764 283.807 52.8506 284.199 51.8721 284.176C51.0342 284.164 50.3516 283.9 49.8242 283.385C49.3027 282.863 49.0654 282.213 49.1123 281.434C49.1709 280.426 49.6104 279.641 50.4307 279.078C51.2568 278.51 52.3408 278.226 53.6826 278.226L55.3438 278.234L55.4492 277.479C55.5078 276.91 55.3965 276.462 55.1152 276.134C54.8398 275.8 54.4238 275.627 53.8672 275.615C53.3223 275.604 52.8389 275.738 52.417 276.02C52.001 276.295 51.7461 276.661 51.6523 277.118L50.0527 277.127C50.1055 276.57 50.3223 276.078 50.7031 275.65C51.084 275.217 51.5732 274.883 52.1709 274.648C52.7686 274.408 53.3867 274.294 54.0254 274.306C55.0156 274.329 55.7861 274.631 56.3369 275.211C56.8877 275.785 57.1191 276.55 57.0312 277.505L56.2578 282.216L56.2139 282.893C56.2021 283.215 56.2373 283.534 56.3193 283.851L56.3018 284H54.6846ZM52.1885 282.77C52.6982 282.781 53.1787 282.661 53.6299 282.409C54.0869 282.151 54.4795 281.797 54.8076 281.346L55.1504 279.386L53.9463 279.377C52.9443 279.377 52.1768 279.535 51.6436 279.852C51.1104 280.168 50.8086 280.616 50.7383 281.196C50.6855 281.642 50.7881 282.014 51.0459 282.312C51.3096 282.605 51.6904 282.758 52.1885 282.77ZM61.7334 281.601L65.1172 274.49H66.875L61.2324 285.582C60.4473 287.123 59.4395 287.885 58.209 287.867C57.9922 287.861 57.6729 287.809 57.251 287.709L57.3916 286.391L57.8047 286.435C58.3086 286.458 58.7422 286.344 59.1055 286.092C59.4746 285.846 59.7998 285.444 60.0811 284.888L60.6523 283.798L59.0088 274.49H60.6699L61.7334 281.601ZM70.6631 284.176C69.4795 284.152 68.5537 283.716 67.8857 282.866C67.2178 282.017 66.9365 280.93 67.042 279.605L67.0859 279.228C67.1855 278.284 67.4639 277.423 67.9209 276.644C68.3838 275.864 68.9463 275.278 69.6084 274.886C70.2705 274.487 70.9854 274.297 71.7529 274.314C72.7314 274.338 73.499 274.663 74.0557 275.29C74.6123 275.917 74.917 276.767 74.9697 277.839C74.9873 278.22 74.9756 278.601 74.9346 278.981L74.8379 279.711H68.624C68.5186 280.572 68.6592 281.305 69.0459 281.908C69.4385 282.512 70.0215 282.825 70.7949 282.849C71.7324 282.872 72.5996 282.45 73.3965 281.583L74.3105 282.356C73.9121 282.931 73.3965 283.382 72.7637 283.71C72.1367 284.032 71.4365 284.188 70.6631 284.176ZM71.6738 275.642C71.0176 275.624 70.4434 275.847 69.9512 276.31C69.4648 276.772 69.0781 277.461 68.791 278.375L73.4141 278.384L73.4492 278.243C73.543 277.505 73.4229 276.893 73.0889 276.406C72.7607 275.914 72.2891 275.659 71.6738 275.642ZM81.7988 275.94L81.0518 275.861C80.0322 275.861 79.2295 276.321 78.6436 277.241L77.4746 284H75.8838L77.5361 274.49L79.0742 274.481L78.8369 275.589C79.5107 274.704 80.3047 274.273 81.2188 274.297C81.4121 274.297 81.6641 274.341 81.9746 274.429L81.7988 275.94Z" fill="black"/>
<path d="M155.684 274.314C156.48 274.326 157.163 274.543 157.731 274.965C158.3 275.387 158.719 275.97 158.988 276.714C159.264 277.452 159.357 278.261 159.27 279.14L159.252 279.333C159.141 280.259 158.865 281.097 158.426 281.847C157.986 282.591 157.418 283.171 156.721 283.587C156.023 284.003 155.259 284.199 154.427 284.176C153.636 284.164 152.953 283.947 152.379 283.525C151.811 283.104 151.395 282.529 151.131 281.803C150.867 281.076 150.773 280.276 150.85 279.403C150.938 278.419 151.204 277.534 151.649 276.749C152.095 275.964 152.666 275.357 153.363 274.93C154.066 274.496 154.84 274.291 155.684 274.314ZM152.449 279.412C152.408 279.781 152.408 280.165 152.449 280.563C152.508 281.255 152.713 281.806 153.064 282.216C153.422 282.626 153.896 282.84 154.488 282.857C155.016 282.875 155.502 282.746 155.947 282.471C156.393 282.189 156.768 281.768 157.072 281.205C157.377 280.643 157.573 280.019 157.661 279.333C157.708 278.794 157.717 278.34 157.688 277.971C157.617 277.262 157.403 276.702 157.046 276.292C156.688 275.882 156.214 275.665 155.622 275.642C154.802 275.624 154.104 275.946 153.53 276.608C152.956 277.271 152.602 278.138 152.467 279.21L152.449 279.412ZM166.494 283.06C165.75 283.827 164.804 284.199 163.655 284.176C162.747 284.152 162.073 283.827 161.634 283.2C161.2 282.573 161.039 281.718 161.15 280.634L162.17 274.49H163.761L162.732 280.66C162.703 280.918 162.697 281.17 162.715 281.416C162.744 281.838 162.87 282.169 163.093 282.409C163.315 282.649 163.626 282.778 164.024 282.796C165.161 282.831 166.04 282.371 166.661 281.416L167.856 274.49H169.447L167.795 284H166.292L166.494 283.06ZM174.378 272.188L173.974 274.49H175.705L175.485 275.747H173.763L172.77 281.662C172.752 281.814 172.749 281.955 172.761 282.084C172.802 282.541 173.051 282.77 173.508 282.77C173.701 282.77 173.959 282.74 174.281 282.682L174.158 284.009C173.777 284.114 173.391 284.167 172.998 284.167C172.365 284.155 171.891 283.924 171.574 283.473C171.258 283.016 171.135 282.403 171.205 281.636L172.172 275.747H170.493L170.713 274.49H172.392L172.796 272.188H174.378ZM184.591 279.289C184.474 280.256 184.213 281.126 183.809 281.899C183.404 282.673 182.903 283.253 182.306 283.64C181.708 284.021 181.046 284.202 180.319 284.185C179.218 284.161 178.374 283.789 177.788 283.068L176.936 287.656H175.345L177.63 274.49L179.071 274.481L178.896 275.545C179.681 274.701 180.621 274.291 181.717 274.314C182.631 274.338 183.343 274.675 183.853 275.325C184.362 275.976 184.632 276.872 184.661 278.015C184.667 278.39 184.652 278.753 184.617 279.104L184.591 279.289ZM183.026 279.104L183.07 278.366C183.07 277.511 182.906 276.857 182.578 276.406C182.256 275.949 181.787 275.709 181.172 275.686C180.252 275.662 179.458 276.099 178.79 276.995L177.99 281.557C178.348 282.4 178.989 282.834 179.915 282.857C180.706 282.875 181.377 282.567 181.928 281.935C182.484 281.296 182.851 280.353 183.026 279.104ZM191.912 283.06C191.168 283.827 190.222 284.199 189.073 284.176C188.165 284.152 187.491 283.827 187.052 283.2C186.618 282.573 186.457 281.718 186.568 280.634L187.588 274.49H189.179L188.15 280.66C188.121 280.918 188.115 281.17 188.133 281.416C188.162 281.838 188.288 282.169 188.511 282.409C188.733 282.649 189.044 282.778 189.442 282.796C190.579 282.831 191.458 282.371 192.079 281.416L193.274 274.49H194.865L193.213 284H191.71L191.912 283.06ZM199.796 272.188L199.392 274.49H201.123L200.903 275.747H199.181L198.188 281.662C198.17 281.814 198.167 281.955 198.179 282.084C198.22 282.541 198.469 282.77 198.926 282.77C199.119 282.77 199.377 282.74 199.699 282.682L199.576 284.009C199.195 284.114 198.809 284.167 198.416 284.167C197.783 284.155 197.309 283.924 196.992 283.473C196.676 283.016 196.553 282.403 196.623 281.636L197.59 275.747H195.911L196.131 274.49H197.81L198.214 272.188H199.796ZM207.53 284H205.948L208.286 270.5H209.877L207.53 284ZM215.95 284C215.909 283.83 215.889 283.663 215.889 283.499L215.915 282.998C215.042 283.807 214.116 284.199 213.138 284.176C212.3 284.164 211.617 283.9 211.09 283.385C210.568 282.863 210.331 282.213 210.378 281.434C210.437 280.426 210.876 279.641 211.696 279.078C212.522 278.51 213.606 278.226 214.948 278.226L216.609 278.234L216.715 277.479C216.773 276.91 216.662 276.462 216.381 276.134C216.105 275.8 215.689 275.627 215.133 275.615C214.588 275.604 214.104 275.738 213.683 276.02C213.267 276.295 213.012 276.661 212.918 277.118L211.318 277.127C211.371 276.57 211.588 276.078 211.969 275.65C212.35 275.217 212.839 274.883 213.437 274.648C214.034 274.408 214.652 274.294 215.291 274.306C216.281 274.329 217.052 274.631 217.603 275.211C218.153 275.785 218.385 276.55 218.297 277.505L217.523 282.216L217.479 282.893C217.468 283.215 217.503 283.534 217.585 283.851L217.567 284H215.95ZM213.454 282.77C213.964 282.781 214.444 282.661 214.896 282.409C215.353 282.151 215.745 281.797 216.073 281.346L216.416 279.386L215.212 279.377C214.21 279.377 213.442 279.535 212.909 279.852C212.376 280.168 212.074 280.616 212.004 281.196C211.951 281.642 212.054 282.014 212.312 282.312C212.575 282.605 212.956 282.758 213.454 282.77ZM222.999 281.601L226.383 274.49H228.141L222.498 285.582C221.713 287.123 220.705 287.885 219.475 287.867C219.258 287.861 218.938 287.809 218.517 287.709L218.657 286.391L219.07 286.435C219.574 286.458 220.008 286.344 220.371 286.092C220.74 285.846 221.065 285.444 221.347 284.888L221.918 283.798L220.274 274.49H221.936L222.999 281.601ZM231.929 284.176C230.745 284.152 229.819 283.716 229.151 282.866C228.483 282.017 228.202 280.93 228.308 279.605L228.352 279.228C228.451 278.284 228.729 277.423 229.187 276.644C229.649 275.864 230.212 275.278 230.874 274.886C231.536 274.487 232.251 274.297 233.019 274.314C233.997 274.338 234.765 274.663 235.321 275.29C235.878 275.917 236.183 276.767 236.235 277.839C236.253 278.22 236.241 278.601 236.2 278.981L236.104 279.711H229.89C229.784 280.572 229.925 281.305 230.312 281.908C230.704 282.512 231.287 282.825 232.061 282.849C232.998 282.872 233.865 282.45 234.662 281.583L235.576 282.356C235.178 282.931 234.662 283.382 234.029 283.71C233.402 284.032 232.702 284.188 231.929 284.176ZM232.939 275.642C232.283 275.624 231.709 275.847 231.217 276.31C230.73 276.772 230.344 277.461 230.057 278.375L234.68 278.384L234.715 278.243C234.809 277.505 234.688 276.893 234.354 276.406C234.026 275.914 233.555 275.659 232.939 275.642ZM243.064 275.94L242.317 275.861C241.298 275.861 240.495 276.321 239.909 277.241L238.74 284H237.149L238.802 274.49L240.34 274.481L240.103 275.589C240.776 274.704 241.57 274.273 242.484 274.297C242.678 274.297 242.93 274.341 243.24 274.429L243.064 275.94Z" fill="black"/>
<line x1="158" y1="158.7" x2="144" y2="158.7" stroke="black" stroke-width="1.4"/>
<line x1="158" y1="143.7" x2="144" y2="143.7" stroke="black" stroke-width="1.4"/>
<line x1="152.498" y1="152.557" x2="144.44" y2="143.499" stroke="black" stroke-width="1.5"/>
<line x1="143.688" y1="159.08" x2="151.923" y2="152.492" stroke="black"/>
<line x1="157.5" y1="144" x2="157.5" y2="145" stroke="black"/>
<line x1="157.5" y1="158" x2="157.5" y2="159" stroke="black"/>
<line x1="161.25" y1="128" x2="161.25" y2="175" stroke="black" stroke-width="0.5"/>
</svg>

