<svg width="510" height="246" viewBox="0 0 510 246" version="1.1" xmlns="http://www.w3.org/2000/svg" xmlns:xlink="http://www.w3.org/1999/xlink">
<title>Frame 2</title>
<desc>Created using Figma</desc>
<g id="Canvas" transform="translate(150 -88)">
<clipPath id="clip-0" clip-rule="evenodd">
<path d="M -150 88L 360 88L 360 334L -150 334L -150 88Z" fill="#FFFFFF"/>
</clipPath>
<g id="Frame 2" clip-path="url(#clip-0)">
<path d="M -150 88L 360 88L 360 334L -150 334L -150 88Z" fill="#FFFFFF"/>
<clipPath id="clip-1" clip-rule="evenodd">
<path d="M -136 112L 329 112L 329 309L -136 309L -136 112Z" fill="#FFFFFF"/>
</clipPath>
<g id="Frame" style="mix-blend-mode:darken" clip-path="url(#clip-1)">
<path d="M -136 112L 329 112L 329 309L -136 309L -136 112Z" fill="#FFFFFF"/>
<g id="Line 2">
<use xlink:href="#path0_stroke" transform="matrix(1 4.35563e-19 8.67362e-19 1 -135 161.5)"/>
</g>
<g id="We can tell whether two individuals are different">
<use xlink:href="#path1_fill" transform="translate(-116 169)"/>
</g>
<g id="Line 3">
<use xlink:href="#path2_stroke" transform="translate(-135 212.5)"/>
</g>
<g id="Line 3.1">
<use xlink:href="#path3_stroke" transform="translate(-136 261)"/>
</g>
<g id="Line 3.2">
<use xlink:href="#path4_stroke" transform="translate(-135 309)"/>
</g>
<g id="Team">
<use xlink:href="#path5_fill" transform="translate(105 123)"/>
</g>
<g id="Height">
<use xlink:href="#path6_fill" transform="translate(230 123)"/>
</g>
<g id="We can tell the size of the difference">
<use xlink:href="#path7_fill" transform="translate(-116 218)"/>
</g>
<g id="YES">
<use xlink:href="#path8_fill" transform="translate(240 226)" fill="#27AE60"/>
</g>
<g id="YES">
<use xlink:href="#path8_fill" transform="translate(240 174)" fill="#27AE60"/>
</g>
<g id="YES">
<use xlink:href="#path8_fill" transform="translate(111 174)" fill="#27AE60"/>
</g>
<g id="YES">
<use xlink:href="#path8_fill" transform="translate(240 273)" fill="#27AE60"/>
</g>
<g id="NO">
<use xlink:href="#path9_fill" transform="translate(115 224)" fill="#EB5757"/>
</g>
<g id="NO">
<use xlink:href="#path9_fill" transform="translate(115 273)" fill="#EB5757"/>
</g>
<g id="Line 4">
<use xlink:href="#path10_stroke" transform="matrix(-2.14238e-16 -1 1 -2.14238e-16 71 455.003)"/>
</g>
<g id="Line 4.1">
<use xlink:href="#path11_stroke" transform="matrix(6.12323e-17 1 -1 6.12323e-17 197 114)"/>
</g>
<g id="We can tell the direction of the difference">
<use xlink:href="#path12_fill" transform="translate(-117 264)"/>
</g>
</g>
<g id="Rectangle 2">
<mask id="mask0_outline_ins">
<use xlink:href="#path13_fill" fill="white" transform="translate(-136 112)"/>
</mask>
<g mask="url(#mask0_outline_ins)">
<use xlink:href="#path14_stroke_2x" transform="translate(-136 112)"/>
</g>
</g>
</g>
</g>
<defs>
<path id="path0_stroke" d="M 0 0.5L 463 0.5L 463 -0.5L 0 -0.5L 0 0.5Z"/>
<path id="path1_fill" d="M 4.07812 11.4141L 4.29688 12.9141L 4.61719 11.5625L 6.86719 3.625L 8.13281 3.625L 10.3281 11.5625L 10.6406 12.9375L 10.8828 11.4062L 12.6484 3.625L 14.1562 3.625L 11.3984 15L 10.0312 15L 7.6875 6.71094L 7.50781 5.84375L 7.32812 6.71094L 4.89844 15L 3.53125 15L 0.78125 3.625L 2.28125 3.625L 4.07812 11.4141ZM 18.8594 15.1562C 17.7135 15.1562 16.7812 14.7812 16.0625 14.0312C 15.3438 13.276 14.9844 12.2682 14.9844 11.0078L 14.9844 10.7422C 14.9844 9.90365 15.1432 9.15625 15.4609 8.5C 15.7839 7.83854 16.2318 7.32292 16.8047 6.95312C 17.3828 6.57812 18.0078 6.39062 18.6797 6.39062C 19.7786 6.39062 20.6328 6.7526 21.2422 7.47656C 21.8516 8.20052 22.1562 9.23698 22.1562 10.5859L 22.1562 11.1875L 16.4297 11.1875C 16.4505 12.0208 16.6927 12.6953 17.1562 13.2109C 17.625 13.7214 18.2188 13.9766 18.9375 13.9766C 19.4479 13.9766 19.8802 13.8724 20.2344 13.6641C 20.5885 13.4557 20.8984 13.1797 21.1641 12.8359L 22.0469 13.5234C 21.3385 14.612 20.276 15.1562 18.8594 15.1562ZM 18.6797 7.57812C 18.0964 7.57812 17.6068 7.79167 17.2109 8.21875C 16.8151 8.64062 16.5703 9.23438 16.4766 10L 20.7109 10L 20.7109 9.89062C 20.6693 9.15625 20.4714 8.58854 20.1172 8.1875C 19.763 7.78125 19.2839 7.57812 18.6797 7.57812ZM 31.1953 13.9766C 31.7109 13.9766 32.1615 13.8203 32.5469 13.5078C 32.9323 13.1953 33.1458 12.8047 33.1875 12.3359L 34.5547 12.3359C 34.5286 12.8203 34.362 13.2812 34.0547 13.7188C 33.7474 14.1562 33.3359 14.5052 32.8203 14.7656C 32.3099 15.026 31.7682 15.1562 31.1953 15.1562C 30.0443 15.1562 29.1276 14.7734 28.4453 14.0078C 27.7682 13.237 27.4297 12.1849 27.4297 10.8516L 27.4297 10.6094C 27.4297 9.78646 27.5807 9.05469 27.8828 8.41406C 28.1849 7.77344 28.6172 7.27604 29.1797 6.92188C 29.7474 6.56771 30.4167 6.39062 31.1875 6.39062C 32.1354 6.39062 32.9219 6.67448 33.5469 7.24219C 34.1771 7.8099 34.513 8.54688 34.5547 9.45312L 33.1875 9.45312C 33.1458 8.90625 32.9375 8.45833 32.5625 8.10938C 32.1927 7.75521 31.7344 7.57812 31.1875 7.57812C 30.4531 7.57812 29.8828 7.84375 29.4766 8.375C 29.0755 8.90104 28.875 9.66406 28.875 10.6641L 28.875 10.9375C 28.875 11.9115 29.0755 12.6615 29.4766 13.1875C 29.8776 13.7135 30.4505 13.9766 31.1953 13.9766ZM 41.3984 15C 41.3151 14.8333 41.2474 14.5365 41.1953 14.1094C 40.5234 14.8073 39.7214 15.1562 38.7891 15.1562C 37.9557 15.1562 37.2708 14.9219 36.7344 14.4531C 36.2031 13.9792 35.9375 13.3802 35.9375 12.6562C 35.9375 11.776 36.2708 11.0938 36.9375 10.6094C 37.6094 10.1198 38.5521 9.875 39.7656 9.875L 41.1719 9.875L 41.1719 9.21094C 41.1719 8.70573 41.0208 8.30469 40.7188 8.00781C 40.4167 7.70573 39.9714 7.55469 39.3828 7.55469C 38.8672 7.55469 38.4349 7.6849 38.0859 7.94531C 37.737 8.20573 37.5625 8.52083 37.5625 8.89062L 36.1094 8.89062C 36.1094 8.46875 36.2578 8.0625 36.5547 7.67188C 36.8568 7.27604 37.263 6.96354 37.7734 6.73438C 38.2891 6.50521 38.8542 6.39062 39.4688 6.39062C 40.4427 6.39062 41.2057 6.63542 41.7578 7.125C 42.3099 7.60938 42.5964 8.27865 42.6172 9.13281L 42.6172 13.0234C 42.6172 13.7995 42.7161 14.4167 42.9141 14.875L 42.9141 15L 41.3984 15ZM 39 13.8984C 39.4531 13.8984 39.8828 13.7812 40.2891 13.5469C 40.6953 13.3125 40.9896 13.0078 41.1719 12.6328L 41.1719 10.8984L 40.0391 10.8984C 38.2682 10.8984 37.3828 11.4167 37.3828 12.4531C 37.3828 12.9062 37.5339 13.2604 37.8359 13.5156C 38.138 13.7708 38.526 13.8984 39 13.8984ZM 46.25 6.54688L 46.2969 7.60938C 46.9427 6.79688 47.7865 6.39062 48.8281 6.39062C 50.6146 6.39062 51.5156 7.39844 51.5312 9.41406L 51.5312 15L 50.0859 15L 50.0859 9.40625C 50.0807 8.79688 49.9401 8.34635 49.6641 8.05469C 49.3932 7.76302 48.9688 7.61719 48.3906 7.61719C 47.9219 7.61719 47.5104 7.74219 47.1562 7.99219C 46.8021 8.24219 46.526 8.57031 46.3281 8.97656L 46.3281 15L 44.8828 15L 44.8828 6.54688L 46.25 6.54688ZM 59.6406 4.5L 59.6406 6.54688L 61.2188 6.54688L 61.2188 7.66406L 59.6406 7.66406L 59.6406 12.9062C 59.6406 13.2448 59.7109 13.5 59.8516 13.6719C 59.9922 13.8385 60.2318 13.9219 60.5703 13.9219C 60.737 13.9219 60.9661 13.8906 61.2578 13.8281L 61.2578 15C 60.8776 15.1042 60.5078 15.1562 60.1484 15.1562C 59.5026 15.1562 59.0156 14.9609 58.6875 14.5703C 58.3594 14.1797 58.1953 13.625 58.1953 12.9062L 58.1953 7.66406L 56.6562 7.66406L 56.6562 6.54688L 58.1953 6.54688L 58.1953 4.5L 59.6406 4.5ZM 66.4219 15.1562C 65.276 15.1562 64.3438 14.7812 63.625 14.0312C 62.9062 13.276 62.5469 12.2682 62.5469 11.0078L 62.5469 10.7422C 62.5469 9.90365 62.7057 9.15625 63.0234 8.5C 63.3464 7.83854 63.7943 7.32292 64.3672 6.95312C 64.9453 6.57812 65.5703 6.39062 66.2422 6.39062C 67.3411 6.39062 68.1953 6.7526 68.8047 7.47656C 69.4141 8.20052 69.7188 9.23698 69.7188 10.5859L 69.7188 11.1875L 63.9922 11.1875C 64.013 12.0208 64.2552 12.6953 64.7188 13.2109C 65.1875 13.7214 65.7812 13.9766 66.5 13.9766C 67.0104 13.9766 67.4427 13.8724 67.7969 13.6641C 68.151 13.4557 68.4609 13.1797 68.7266 12.8359L 69.6094 13.5234C 68.901 14.612 67.8385 15.1562 66.4219 15.1562ZM 66.2422 7.57812C 65.6589 7.57812 65.1693 7.79167 64.7734 8.21875C 64.3776 8.64062 64.1328 9.23438 64.0391 10L 68.2734 10L 68.2734 9.89062C 68.2318 9.15625 68.0339 8.58854 67.6797 8.1875C 67.3255 7.78125 66.8464 7.57812 66.2422 7.57812ZM 72.9688 15L 71.5234 15L 71.5234 3L 72.9688 3L 72.9688 15ZM 76.8594 15L 75.4141 15L 75.4141 3L 76.8594 3L 76.8594 15ZM 90.6328 13.0078L 92.2578 6.54688L 93.7031 6.54688L 91.2422 15L 90.0703 15L 88.0156 8.59375L 86.0156 15L 84.8438 15L 82.3906 6.54688L 83.8281 6.54688L 85.4922 12.875L 87.4609 6.54688L 88.625 6.54688L 90.6328 13.0078ZM 96.625 7.57031C 97.2656 6.78385 98.099 6.39062 99.125 6.39062C 100.911 6.39062 101.812 7.39844 101.828 9.41406L 101.828 15L 100.383 15L 100.383 9.40625C 100.378 8.79688 100.237 8.34635 99.9609 8.05469C 99.6901 7.76302 99.2656 7.61719 98.6875 7.61719C 98.2188 7.61719 97.8073 7.74219 97.4531 7.99219C 97.099 8.24219 96.8229 8.57031 96.625 8.97656L 96.625 15L 95.1797 15L 95.1797 3L 96.625 3L 96.625 7.57031ZM 107.5 15.1562C 106.354 15.1562 105.422 14.7812 104.703 14.0312C 103.984 13.276 103.625 12.2682 103.625 11.0078L 103.625 10.7422C 103.625 9.90365 103.784 9.15625 104.102 8.5C 104.424 7.83854 104.872 7.32292 105.445 6.95312C 106.023 6.57812 106.648 6.39062 107.32 6.39062C 108.419 6.39062 109.273 6.7526 109.883 7.47656C 110.492 8.20052 110.797 9.23698 110.797 10.5859L 110.797 11.1875L 105.07 11.1875C 105.091 12.0208 105.333 12.6953 105.797 13.2109C 106.266 13.7214 106.859 13.9766 107.578 13.9766C 108.089 13.9766 108.521 13.8724 108.875 13.6641C 109.229 13.4557 109.539 13.1797 109.805 12.8359L 110.688 13.5234C 109.979 14.612 108.917 15.1562 107.5 15.1562ZM 107.32 7.57812C 106.737 7.57812 106.247 7.79167 105.852 8.21875C 105.456 8.64062 105.211 9.23438 105.117 10L 109.352 10L 109.352 9.89062C 109.31 9.15625 109.112 8.58854 108.758 8.1875C 108.404 7.78125 107.924 7.57812 107.32 7.57812ZM 114.438 4.5L 114.438 6.54688L 116.016 6.54688L 116.016 7.66406L 114.438 7.66406L 114.438 12.9062C 114.438 13.2448 114.508 13.5 114.648 13.6719C 114.789 13.8385 115.029 13.9219 115.367 13.9219C 115.534 13.9219 115.763 13.8906 116.055 13.8281L 116.055 15C 115.674 15.1042 115.305 15.1562 114.945 15.1562C 114.299 15.1562 113.812 14.9609 113.484 14.5703C 113.156 14.1797 112.992 13.625 112.992 12.9062L 112.992 7.66406L 111.453 7.66406L 111.453 6.54688L 112.992 6.54688L 112.992 4.5L 114.438 4.5ZM 119.156 7.57031C 119.797 6.78385 120.63 6.39062 121.656 6.39062C 123.443 6.39062 124.344 7.39844 124.359 9.41406L 124.359 15L 122.914 15L 122.914 9.40625C 122.909 8.79688 122.768 8.34635 122.492 8.05469C 122.221 7.76302 121.797 7.61719 121.219 7.61719C 120.75 7.61719 120.339 7.74219 119.984 7.99219C 119.63 8.24219 119.354 8.57031 119.156 8.97656L 119.156 15L 117.711 15L 117.711 3L 119.156 3L 119.156 7.57031ZM 130.031 15.1562C 128.885 15.1562 127.953 14.7812 127.234 14.0312C 126.516 13.276 126.156 12.2682 126.156 11.0078L 126.156 10.7422C 126.156 9.90365 126.315 9.15625 126.633 8.5C 126.956 7.83854 127.404 7.32292 127.977 6.95312C 128.555 6.57812 129.18 6.39062 129.852 6.39062C 130.951 6.39062 131.805 6.7526 132.414 7.47656C 133.023 8.20052 133.328 9.23698 133.328 10.5859L 133.328 11.1875L 127.602 11.1875C 127.622 12.0208 127.865 12.6953 128.328 13.2109C 128.797 13.7214 129.391 13.9766 130.109 13.9766C 130.62 13.9766 131.052 13.8724 131.406 13.6641C 131.76 13.4557 132.07 13.1797 132.336 12.8359L 133.219 13.5234C 132.51 14.612 131.448 15.1562 130.031 15.1562ZM 129.852 7.57812C 129.268 7.57812 128.779 7.79167 128.383 8.21875C 127.987 8.64062 127.742 9.23438 127.648 10L 131.883 10L 131.883 9.89062C 131.841 9.15625 131.643 8.58854 131.289 8.1875C 130.935 7.78125 130.456 7.57812 129.852 7.57812ZM 139.094 7.84375C 138.875 7.80729 138.638 7.78906 138.383 7.78906C 137.435 7.78906 136.792 8.19271 136.453 9L 136.453 15L 135.008 15L 135.008 6.54688L 136.414 6.54688L 136.438 7.52344C 136.911 6.76823 137.583 6.39062 138.453 6.39062C 138.734 6.39062 138.948 6.42708 139.094 6.5L 139.094 7.84375ZM 146.359 4.5L 146.359 6.54688L 147.938 6.54688L 147.938 7.66406L 146.359 7.66406L 146.359 12.9062C 146.359 13.2448 146.43 13.5 146.57 13.6719C 146.711 13.8385 146.951 13.9219 147.289 13.9219C 147.456 13.9219 147.685 13.8906 147.977 13.8281L 147.977 15C 147.596 15.1042 147.227 15.1562 146.867 15.1562C 146.221 15.1562 145.734 14.9609 145.406 14.5703C 145.078 14.1797 144.914 13.625 144.914 12.9062L 144.914 7.66406L 143.375 7.66406L 143.375 6.54688L 144.914 6.54688L 144.914 4.5L 146.359 4.5ZM 157.117 13.0078L 158.742 6.54688L 160.188 6.54688L 157.727 15L 156.555 15L 154.5 8.59375L 152.5 15L 151.328 15L 148.875 6.54688L 150.312 6.54688L 151.977 12.875L 153.945 6.54688L 155.109 6.54688L 157.117 13.0078ZM 161.281 10.6953C 161.281 9.86719 161.443 9.1224 161.766 8.46094C 162.094 7.79948 162.547 7.28906 163.125 6.92969C 163.708 6.57031 164.372 6.39062 165.117 6.39062C 166.268 6.39062 167.198 6.78906 167.906 7.58594C 168.62 8.38281 168.977 9.44271 168.977 10.7656L 168.977 10.8672C 168.977 11.6901 168.818 12.4297 168.5 13.0859C 168.188 13.737 167.737 14.2448 167.148 14.6094C 166.565 14.974 165.893 15.1562 165.133 15.1562C 163.987 15.1562 163.057 14.7578 162.344 13.9609C 161.635 13.1641 161.281 12.1094 161.281 10.7969L 161.281 10.6953ZM 162.734 10.8672C 162.734 11.8047 162.951 12.5573 163.383 13.125C 163.82 13.6927 164.404 13.9766 165.133 13.9766C 165.867 13.9766 166.451 13.6901 166.883 13.1172C 167.315 12.5391 167.531 11.7318 167.531 10.6953C 167.531 9.76823 167.31 9.01823 166.867 8.44531C 166.43 7.86719 165.846 7.57812 165.117 7.57812C 164.404 7.57812 163.828 7.86198 163.391 8.42969C 162.953 8.9974 162.734 9.8099 162.734 10.8672ZM 3.51562 34L 2.07031 34L 2.07031 25.5469L 3.51562 25.5469L 3.51562 34ZM 1.95312 23.3047C 1.95312 23.0703 2.02344 22.8724 2.16406 22.7109C 2.3099 22.5495 2.52344 22.4688 2.80469 22.4688C 3.08594 22.4688 3.29948 22.5495 3.44531 22.7109C 3.59115 22.8724 3.66406 23.0703 3.66406 23.3047C 3.66406 23.5391 3.59115 23.7344 3.44531 23.8906C 3.29948 24.0469 3.08594 24.125 2.80469 24.125C 2.52344 24.125 2.3099 24.0469 2.16406 23.8906C 2.02344 23.7344 1.95312 23.5391 1.95312 23.3047ZM 7.20312 25.5469L 7.25 26.6094C 7.89583 25.7969 8.73958 25.3906 9.78125 25.3906C 11.5677 25.3906 12.4688 26.3984 12.4844 28.4141L 12.4844 34L 11.0391 34L 11.0391 28.4062C 11.0339 27.7969 10.8932 27.3464 10.6172 27.0547C 10.3464 26.763 9.92188 26.6172 9.34375 26.6172C 8.875 26.6172 8.46354 26.7422 8.10938 26.9922C 7.75521 27.2422 7.47917 27.5703 7.28125 27.9766L 7.28125 34L 5.83594 34L 5.83594 25.5469L 7.20312 25.5469ZM 14.3125 29.7031C 14.3125 28.4062 14.6198 27.3646 15.2344 26.5781C 15.849 25.7865 16.6536 25.3906 17.6484 25.3906C 18.638 25.3906 19.4219 25.7292 20 26.4062L 20 22L 21.4453 22L 21.4453 34L 20.1172 34L 20.0469 33.0938C 19.4688 33.8021 18.6641 34.1562 17.6328 34.1562C 16.6536 34.1562 15.8542 33.7552 15.2344 32.9531C 14.6198 32.151 14.3125 31.1042 14.3125 29.8125L 14.3125 29.7031ZM 15.7578 29.8672C 15.7578 30.8255 15.9557 31.5755 16.3516 32.1172C 16.7474 32.6589 17.2943 32.9297 17.9922 32.9297C 18.9089 32.9297 19.5781 32.5182 20 31.6953L 20 27.8125C 19.5677 27.0156 18.9036 26.6172 18.0078 26.6172C 17.2995 26.6172 16.7474 26.8906 16.3516 27.4375C 15.9557 27.9844 15.7578 28.7943 15.7578 29.8672ZM 25.2656 34L 23.8203 34L 23.8203 25.5469L 25.2656 25.5469L 25.2656 34ZM 23.7031 23.3047C 23.7031 23.0703 23.7734 22.8724 23.9141 22.7109C 24.0599 22.5495 24.2734 22.4688 24.5547 22.4688C 24.8359 22.4688 25.0495 22.5495 25.1953 22.7109C 25.3411 22.8724 25.4141 23.0703 25.4141 23.3047C 25.4141 23.5391 25.3411 23.7344 25.1953 23.8906C 25.0495 24.0469 24.8359 24.125 24.5547 24.125C 24.2734 24.125 24.0599 24.0469 23.9141 23.8906C 23.7734 23.7344 23.7031 23.5391 23.7031 23.3047ZM 30.375 32.0391L 32.4688 25.5469L 33.9453 25.5469L 30.9141 34L 29.8125 34L 26.75 25.5469L 28.2266 25.5469L 30.375 32.0391ZM 36.9062 34L 35.4609 34L 35.4609 25.5469L 36.9062 25.5469L 36.9062 34ZM 35.3438 23.3047C 35.3438 23.0703 35.4141 22.8724 35.5547 22.7109C 35.7005 22.5495 35.9141 22.4688 36.1953 22.4688C 36.4766 22.4688 36.6901 22.5495 36.8359 22.7109C 36.9818 22.8724 37.0547 23.0703 37.0547 23.3047C 37.0547 23.5391 36.9818 23.7344 36.8359 23.8906C 36.6901 24.0469 36.4766 24.125 36.1953 24.125C 35.9141 24.125 35.7005 24.0469 35.5547 23.8906C 35.4141 23.7344 35.3438 23.5391 35.3438 23.3047ZM 38.875 29.7031C 38.875 28.4062 39.1823 27.3646 39.7969 26.5781C 40.4115 25.7865 41.2161 25.3906 42.2109 25.3906C 43.2005 25.3906 43.9844 25.7292 44.5625 26.4062L 44.5625 22L 46.0078 22L 46.0078 34L 44.6797 34L 44.6094 33.0938C 44.0312 33.8021 43.2266 34.1562 42.1953 34.1562C 41.2161 34.1562 40.4167 33.7552 39.7969 32.9531C 39.1823 32.151 38.875 31.1042 38.875 29.8125L 38.875 29.7031ZM 40.3203 29.8672C 40.3203 30.8255 40.5182 31.5755 40.9141 32.1172C 41.3099 32.6589 41.8568 32.9297 42.5547 32.9297C 43.4714 32.9297 44.1406 32.5182 44.5625 31.6953L 44.5625 27.8125C 44.1302 27.0156 43.4661 26.6172 42.5703 26.6172C 41.862 26.6172 41.3099 26.8906 40.9141 27.4375C 40.5182 27.9844 40.3203 28.7943 40.3203 29.8672ZM 53.4766 33.1641C 52.9141 33.8255 52.0885 34.1562 51 34.1562C 50.099 34.1562 49.4115 33.8958 48.9375 33.375C 48.4688 32.849 48.2318 32.0729 48.2266 31.0469L 48.2266 25.5469L 49.6719 25.5469L 49.6719 31.0078C 49.6719 32.2891 50.1927 32.9297 51.2344 32.9297C 52.3385 32.9297 53.0729 32.5182 53.4375 31.6953L 53.4375 25.5469L 54.8828 25.5469L 54.8828 34L 53.5078 34L 53.4766 33.1641ZM 62.3047 34C 62.2214 33.8333 62.1536 33.5365 62.1016 33.1094C 61.4297 33.8073 60.6276 34.1562 59.6953 34.1562C 58.862 34.1562 58.1771 33.9219 57.6406 33.4531C 57.1094 32.9792 56.8438 32.3802 56.8438 31.6562C 56.8438 30.776 57.1771 30.0938 57.8438 29.6094C 58.5156 29.1198 59.4583 28.875 60.6719 28.875L 62.0781 28.875L 62.0781 28.2109C 62.0781 27.7057 61.9271 27.3047 61.625 27.0078C 61.3229 26.7057 60.8776 26.5547 60.2891 26.5547C 59.7734 26.5547 59.3411 26.6849 58.9922 26.9453C 58.6432 27.2057 58.4688 27.5208 58.4688 27.8906L 57.0156 27.8906C 57.0156 27.4688 57.1641 27.0625 57.4609 26.6719C 57.763 26.276 58.1693 25.9635 58.6797 25.7344C 59.1953 25.5052 59.7604 25.3906 60.375 25.3906C 61.349 25.3906 62.112 25.6354 62.6641 26.125C 63.2161 26.6094 63.5026 27.2786 63.5234 28.1328L 63.5234 32.0234C 63.5234 32.7995 63.6224 33.4167 63.8203 33.875L 63.8203 34L 62.3047 34ZM 59.9062 32.8984C 60.3594 32.8984 60.7891 32.7812 61.1953 32.5469C 61.6016 32.3125 61.8958 32.0078 62.0781 31.6328L 62.0781 29.8984L 60.9453 29.8984C 59.1745 29.8984 58.2891 30.4167 58.2891 31.4531C 58.2891 31.9062 58.4401 32.2604 58.7422 32.5156C 59.0443 32.7708 59.4323 32.8984 59.9062 32.8984ZM 67.3594 34L 65.9141 34L 65.9141 22L 67.3594 22L 67.3594 34ZM 74.6016 31.7578C 74.6016 31.3672 74.4531 31.0651 74.1562 30.8516C 73.8646 30.6328 73.3516 30.4453 72.6172 30.2891C 71.888 30.1328 71.3073 29.9453 70.875 29.7266C 70.4479 29.5078 70.1302 29.2474 69.9219 28.9453C 69.7188 28.6432 69.6172 28.2839 69.6172 27.8672C 69.6172 27.1745 69.9089 26.5885 70.4922 26.1094C 71.0807 25.6302 71.8307 25.3906 72.7422 25.3906C 73.7005 25.3906 74.4766 25.638 75.0703 26.1328C 75.6693 26.6276 75.9688 27.2604 75.9688 28.0312L 74.5156 28.0312C 74.5156 27.6354 74.3464 27.2943 74.0078 27.0078C 73.6745 26.7214 73.2526 26.5781 72.7422 26.5781C 72.2161 26.5781 71.8047 26.6927 71.5078 26.9219C 71.2109 27.151 71.0625 27.4505 71.0625 27.8203C 71.0625 28.1693 71.2005 28.4323 71.4766 28.6094C 71.7526 28.7865 72.25 28.9557 72.9688 29.1172C 73.6927 29.2786 74.2786 29.4714 74.7266 29.6953C 75.1745 29.9193 75.5052 30.1901 75.7188 30.5078C 75.9375 30.8203 76.0469 31.2031 76.0469 31.6562C 76.0469 32.4115 75.7448 33.0182 75.1406 33.4766C 74.5365 33.9297 73.7526 34.1562 72.7891 34.1562C 72.112 34.1562 71.513 34.0365 70.9922 33.7969C 70.4714 33.5573 70.0625 33.224 69.7656 32.7969C 69.474 32.3646 69.3281 31.8984 69.3281 31.3984L 70.7734 31.3984C 70.7995 31.8828 70.9922 32.2682 71.3516 32.5547C 71.7161 32.8359 72.1953 32.9766 72.7891 32.9766C 73.3359 32.9766 73.7734 32.8672 74.1016 32.6484C 74.4349 32.4245 74.6016 32.1276 74.6016 31.7578ZM 87.1172 34C 87.0339 33.8333 86.9661 33.5365 86.9141 33.1094C 86.2422 33.8073 85.4401 34.1562 84.5078 34.1562C 83.6745 34.1562 82.9896 33.9219 82.4531 33.4531C 81.9219 32.9792 81.6562 32.3802 81.6562 31.6562C 81.6562 30.776 81.9896 30.0938 82.6562 29.6094C 83.3281 29.1198 84.2708 28.875 85.4844 28.875L 86.8906 28.875L 86.8906 28.2109C 86.8906 27.7057 86.7396 27.3047 86.4375 27.0078C 86.1354 26.7057 85.6901 26.5547 85.1016 26.5547C 84.5859 26.5547 84.1536 26.6849 83.8047 26.9453C 83.4557 27.2057 83.2812 27.5208 83.2812 27.8906L 81.8281 27.8906C 81.8281 27.4688 81.9766 27.0625 82.2734 26.6719C 82.5755 26.276 82.9818 25.9635 83.4922 25.7344C 84.0078 25.5052 84.5729 25.3906 85.1875 25.3906C 86.1615 25.3906 86.9245 25.6354 87.4766 26.125C 88.0286 26.6094 88.3151 27.2786 88.3359 28.1328L 88.3359 32.0234C 88.3359 32.7995 88.4349 33.4167 88.6328 33.875L 88.6328 34L 87.1172 34ZM 84.7188 32.8984C 85.1719 32.8984 85.6016 32.7812 86.0078 32.5469C 86.4141 32.3125 86.7083 32.0078 86.8906 31.6328L 86.8906 29.8984L 85.7578 29.8984C 83.987 29.8984 83.1016 30.4167 83.1016 31.4531C 83.1016 31.9062 83.2526 32.2604 83.5547 32.5156C 83.8568 32.7708 84.2448 32.8984 84.7188 32.8984ZM 94.6875 26.8438C 94.4688 26.8073 94.2318 26.7891 93.9766 26.7891C 93.0286 26.7891 92.3854 27.1927 92.0469 28L 92.0469 34L 90.6016 34L 90.6016 25.5469L 92.0078 25.5469L 92.0312 26.5234C 92.5052 25.7682 93.1771 25.3906 94.0469 25.3906C 94.3281 25.3906 94.5417 25.4271 94.6875 25.5L 94.6875 26.8438ZM 99.375 34.1562C 98.2292 34.1562 97.2969 33.7812 96.5781 33.0312C 95.8594 32.276 95.5 31.2682 95.5 30.0078L 95.5 29.7422C 95.5 28.9036 95.6589 28.1562 95.9766 27.5C 96.2995 26.8385 96.7474 26.3229 97.3203 25.9531C 97.8984 25.5781 98.5234 25.3906 99.1953 25.3906C 100.294 25.3906 101.148 25.7526 101.758 26.4766C 102.367 27.2005 102.672 28.237 102.672 29.5859L 102.672 30.1875L 96.9453 30.1875C 96.9661 31.0208 97.2083 31.6953 97.6719 32.2109C 98.1406 32.7214 98.7344 32.9766 99.4531 32.9766C 99.9635 32.9766 100.396 32.8724 100.75 32.6641C 101.104 32.4557 101.414 32.1797 101.68 31.8359L 102.562 32.5234C 101.854 33.612 100.792 34.1562 99.375 34.1562ZM 99.1953 26.5781C 98.612 26.5781 98.1224 26.7917 97.7266 27.2188C 97.3307 27.6406 97.0859 28.2344 96.9922 29L 101.227 29L 101.227 28.8906C 101.185 28.1562 100.987 27.5885 100.633 27.1875C 100.279 26.7812 99.7995 26.5781 99.1953 26.5781ZM 107.742 29.7109C 107.742 28.3932 108.036 27.3438 108.625 26.5625C 109.219 25.7812 110.029 25.3906 111.055 25.3906C 111.878 25.3906 112.557 25.6979 113.094 26.3125L 113.094 22L 115.359 22L 115.359 34L 113.32 34L 113.211 33.1016C 112.648 33.8047 111.924 34.1562 111.039 34.1562C 110.044 34.1562 109.245 33.7656 108.641 32.9844C 108.042 32.1979 107.742 31.1068 107.742 29.7109ZM 110 29.875C 110 30.6667 110.138 31.2734 110.414 31.6953C 110.69 32.1172 111.091 32.3281 111.617 32.3281C 112.315 32.3281 112.807 32.0339 113.094 31.4453L 113.094 28.1094C 112.812 27.5208 112.326 27.2266 111.633 27.2266C 110.544 27.2266 110 28.1094 110 29.875ZM 119.492 34L 117.227 34L 117.227 25.5469L 119.492 25.5469L 119.492 34ZM 117.094 23.3594C 117.094 23.0208 117.206 22.7422 117.43 22.5234C 117.659 22.3047 117.969 22.1953 118.359 22.1953C 118.745 22.1953 119.052 22.3047 119.281 22.5234C 119.51 22.7422 119.625 23.0208 119.625 23.3594C 119.625 23.7031 119.508 23.9844 119.273 24.2031C 119.044 24.4219 118.74 24.5312 118.359 24.5312C 117.979 24.5312 117.672 24.4219 117.438 24.2031C 117.208 23.9844 117.094 23.7031 117.094 23.3594ZM 121.977 34L 121.977 27.2031L 120.719 27.2031L 120.719 25.5469L 121.977 25.5469L 121.977 24.8281C 121.977 23.8802 122.247 23.1458 122.789 22.625C 123.336 22.099 124.099 21.8359 125.078 21.8359C 125.391 21.8359 125.773 21.888 126.227 21.9922L 126.203 23.7422C 126.016 23.6953 125.786 23.6719 125.516 23.6719C 124.667 23.6719 124.242 24.0703 124.242 24.8672L 124.242 25.5469L 125.922 25.5469L 125.922 27.2031L 124.242 27.2031L 124.242 34L 121.977 34ZM 127.711 34L 127.711 27.2031L 126.453 27.2031L 126.453 25.5469L 127.711 25.5469L 127.711 24.8281C 127.711 23.8802 127.982 23.1458 128.523 22.625C 129.07 22.099 129.833 21.8359 130.812 21.8359C 131.125 21.8359 131.508 21.888 131.961 21.9922L 131.938 23.7422C 131.75 23.6953 131.521 23.6719 131.25 23.6719C 130.401 23.6719 129.977 24.0703 129.977 24.8672L 129.977 25.5469L 131.656 25.5469L 131.656 27.2031L 129.977 27.2031L 129.977 34L 127.711 34ZM 136.531 34.1562C 135.292 34.1562 134.281 33.776 133.5 33.0156C 132.724 32.2552 132.336 31.2422 132.336 29.9766L 132.336 29.7578C 132.336 28.9089 132.5 28.151 132.828 27.4844C 133.156 26.8125 133.62 26.2969 134.219 25.9375C 134.823 25.5729 135.51 25.3906 136.281 25.3906C 137.438 25.3906 138.346 25.7552 139.008 26.4844C 139.674 27.2135 140.008 28.2474 140.008 29.5859L 140.008 30.5078L 134.625 30.5078C 134.698 31.0599 134.917 31.5026 135.281 31.8359C 135.651 32.1693 136.117 32.3359 136.68 32.3359C 137.549 32.3359 138.229 32.0208 138.719 31.3906L 139.828 32.6328C 139.49 33.112 139.031 33.487 138.453 33.7578C 137.875 34.0234 137.234 34.1562 136.531 34.1562ZM 136.273 27.2188C 135.826 27.2188 135.461 27.3698 135.18 27.6719C 134.904 27.974 134.727 28.4062 134.648 28.9688L 137.789 28.9688L 137.789 28.7891C 137.779 28.2891 137.643 27.9036 137.383 27.6328C 137.122 27.3568 136.753 27.2188 136.273 27.2188ZM 146.047 27.6641C 145.74 27.6224 145.469 27.6016 145.234 27.6016C 144.38 27.6016 143.82 27.8906 143.555 28.4688L 143.555 34L 141.297 34L 141.297 25.5469L 143.43 25.5469L 143.492 26.5547C 143.945 25.7786 144.573 25.3906 145.375 25.3906C 145.625 25.3906 145.859 25.4245 146.078 25.4922L 146.047 27.6641ZM 150.875 34.1562C 149.635 34.1562 148.625 33.776 147.844 33.0156C 147.068 32.2552 146.68 31.2422 146.68 29.9766L 146.68 29.7578C 146.68 28.9089 146.844 28.151 147.172 27.4844C 147.5 26.8125 147.964 26.2969 148.562 25.9375C 149.167 25.5729 149.854 25.3906 150.625 25.3906C 151.781 25.3906 152.69 25.7552 153.352 26.4844C 154.018 27.2135 154.352 28.2474 154.352 29.5859L 154.352 30.5078L 148.969 30.5078C 149.042 31.0599 149.26 31.5026 149.625 31.8359C 149.995 32.1693 150.461 32.3359 151.023 32.3359C 151.893 32.3359 152.573 32.0208 153.062 31.3906L 154.172 32.6328C 153.833 33.112 153.375 33.487 152.797 33.7578C 152.219 34.0234 151.578 34.1562 150.875 34.1562ZM 150.617 27.2188C 150.169 27.2188 149.805 27.3698 149.523 27.6719C 149.247 27.974 149.07 28.4062 148.992 28.9688L 152.133 28.9688L 152.133 28.7891C 152.122 28.2891 151.987 27.9036 151.727 27.6328C 151.466 27.3568 151.096 27.2188 150.617 27.2188ZM 157.719 25.5469L 157.789 26.5234C 158.393 25.7682 159.203 25.3906 160.219 25.3906C 161.115 25.3906 161.781 25.6536 162.219 26.1797C 162.656 26.7057 162.88 27.4922 162.891 28.5391L 162.891 34L 160.633 34L 160.633 28.5938C 160.633 28.1146 160.529 27.7682 160.32 27.5547C 160.112 27.3359 159.766 27.2266 159.281 27.2266C 158.646 27.2266 158.169 27.4974 157.852 28.0391L 157.852 34L 155.594 34L 155.594 25.5469L 157.719 25.5469ZM 167.312 23.4688L 167.312 25.5469L 168.758 25.5469L 168.758 27.2031L 167.312 27.2031L 167.312 31.4219C 167.312 31.7344 167.372 31.9583 167.492 32.0938C 167.612 32.2292 167.841 32.2969 168.18 32.2969C 168.43 32.2969 168.651 32.2786 168.844 32.2422L 168.844 33.9531C 168.401 34.0885 167.945 34.1562 167.477 34.1562C 165.893 34.1562 165.086 33.3568 165.055 31.7578L 165.055 27.2031L 163.82 27.2031L 163.82 25.5469L 165.055 25.5469L 165.055 23.4688L 167.312 23.4688Z"/>
<path id="path2_stroke" d="M 0 0.5L 463.584 0.5L 463.584 -0.5L 0 -0.5L 0 0.5Z"/>
<path id="path3_stroke" d="M 0 0L 464 0L 464 -1L 0 -1L 0 0Z"/>
<path id="path4_stroke" d="M 0 -5.55112e-17L 463.167 -5.55112e-17L 463.167 -1L 0 -1L 0 -5.55112e-17Z"/>
<path id="path5_fill" d="M 12.2871 7.1543L 7.93164 7.1543L 7.93164 19L 5.00195 19L 5.00195 7.1543L 0.705078 7.1543L 0.705078 4.78125L 12.2871 4.78125L 12.2871 7.1543ZM 17.7656 19.1953C 16.2161 19.1953 14.9531 18.7201 13.9766 17.7695C 13.0065 16.819 12.5215 15.5527 12.5215 13.9707L 12.5215 13.6973C 12.5215 12.6361 12.7266 11.6888 13.1367 10.8555C 13.5469 10.0156 14.1263 9.37109 14.875 8.92188C 15.6302 8.46615 16.4896 8.23828 17.4531 8.23828C 18.8984 8.23828 20.0345 8.69401 20.8613 9.60547C 21.6947 10.5169 22.1113 11.8092 22.1113 13.4824L 22.1113 14.6348L 15.3828 14.6348C 15.474 15.3249 15.7474 15.8783 16.2031 16.2949C 16.6654 16.7116 17.248 16.9199 17.9512 16.9199C 19.0384 16.9199 19.888 16.526 20.5 15.7383L 21.8867 17.291C 21.4635 17.89 20.8906 18.3587 20.168 18.6973C 19.4453 19.0293 18.6445 19.1953 17.7656 19.1953ZM 17.4434 10.5234C 16.8835 10.5234 16.4277 10.7122 16.0762 11.0898C 15.7311 11.4674 15.5098 12.0078 15.4121 12.7109L 19.3379 12.7109L 19.3379 12.4863C 19.3249 11.8613 19.1556 11.3796 18.8301 11.041C 18.5046 10.696 18.0423 10.5234 17.4434 10.5234ZM 29.8457 19C 29.7155 18.7461 29.6211 18.4303 29.5625 18.0527C 28.8789 18.8145 27.9902 19.1953 26.8965 19.1953C 25.8613 19.1953 25.002 18.8958 24.3184 18.2969C 23.6413 17.6979 23.3027 16.9427 23.3027 16.0312C 23.3027 14.9115 23.7161 14.0521 24.543 13.4531C 25.3763 12.8542 26.5775 12.5514 28.1465 12.5449L 29.4453 12.5449L 29.4453 11.9395C 29.4453 11.4512 29.3184 11.0605 29.0645 10.7676C 28.8171 10.4746 28.4232 10.3281 27.8828 10.3281C 27.4076 10.3281 27.0332 10.4421 26.7598 10.6699C 26.4928 10.8978 26.3594 11.2103 26.3594 11.6074L 23.5371 11.6074C 23.5371 10.9954 23.7259 10.429 24.1035 9.9082C 24.4811 9.38737 25.015 8.98047 25.7051 8.6875C 26.3952 8.38802 27.1699 8.23828 28.0293 8.23828C 29.3314 8.23828 30.3633 8.56706 31.125 9.22461C 31.8932 9.87565 32.2773 10.7936 32.2773 11.9785L 32.2773 16.5586C 32.2839 17.5612 32.4238 18.3197 32.6973 18.834L 32.6973 19L 29.8457 19ZM 27.5117 17.0371C 27.9284 17.0371 28.3125 16.946 28.6641 16.7637C 29.0156 16.5749 29.276 16.3242 29.4453 16.0117L 29.4453 14.1953L 28.3906 14.1953C 26.9779 14.1953 26.2259 14.6836 26.1348 15.6602L 26.125 15.8262C 26.125 16.1777 26.2487 16.4674 26.4961 16.6953C 26.7435 16.9232 27.082 17.0371 27.5117 17.0371ZM 37.0918 8.43359L 37.1797 9.61523C 37.9284 8.69727 38.9408 8.23828 40.2168 8.23828C 41.5775 8.23828 42.5117 8.77539 43.0195 9.84961C 43.7617 8.77539 44.8197 8.23828 46.1934 8.23828C 47.3392 8.23828 48.1921 8.57357 48.752 9.24414C 49.3118 9.9082 49.5918 10.9108 49.5918 12.252L 49.5918 19L 46.7598 19L 46.7598 12.2617C 46.7598 11.6628 46.6426 11.2266 46.4082 10.9531C 46.1738 10.6732 45.7604 10.5332 45.168 10.5332C 44.3216 10.5332 43.7357 10.9368 43.4102 11.7441L 43.4199 19L 40.5977 19L 40.5977 12.2715C 40.5977 11.6595 40.4772 11.2168 40.2363 10.9434C 39.9954 10.6699 39.5853 10.5332 39.0059 10.5332C 38.2051 10.5332 37.6257 10.8652 37.2676 11.5293L 37.2676 19L 34.4453 19L 34.4453 8.43359L 37.0918 8.43359Z"/>
<path id="path6_fill" d="M 13.0176 19L 10.0879 19L 10.0879 12.9062L 4.375 12.9062L 4.375 19L 1.44531 19L 1.44531 4.78125L 4.375 4.78125L 4.375 10.543L 10.0879 10.543L 10.0879 4.78125L 13.0176 4.78125L 13.0176 19ZM 20.2637 19.1953C 18.7142 19.1953 17.4512 18.7201 16.4746 17.7695C 15.5046 16.819 15.0195 15.5527 15.0195 13.9707L 15.0195 13.6973C 15.0195 12.6361 15.2246 11.6888 15.6348 10.8555C 16.0449 10.0156 16.6243 9.37109 17.373 8.92188C 18.1283 8.46615 18.9876 8.23828 19.9512 8.23828C 21.3965 8.23828 22.5326 8.69401 23.3594 9.60547C 24.1927 10.5169 24.6094 11.8092 24.6094 13.4824L 24.6094 14.6348L 17.8809 14.6348C 17.972 15.3249 18.2454 15.8783 18.7012 16.2949C 19.1634 16.7116 19.7461 16.9199 20.4492 16.9199C 21.5365 16.9199 22.3861 16.526 22.998 15.7383L 24.3848 17.291C 23.9616 17.89 23.3887 18.3587 22.666 18.6973C 21.9434 19.0293 21.1426 19.1953 20.2637 19.1953ZM 19.9414 10.5234C 19.3815 10.5234 18.9258 10.7122 18.5742 11.0898C 18.2292 11.4674 18.0078 12.0078 17.9102 12.7109L 21.8359 12.7109L 21.8359 12.4863C 21.8229 11.8613 21.6536 11.3796 21.3281 11.041C 21.0026 10.696 20.5404 10.5234 19.9414 10.5234ZM 29.1992 19L 26.3672 19L 26.3672 8.43359L 29.1992 8.43359L 29.1992 19ZM 26.2012 5.69922C 26.2012 5.27604 26.3411 4.92773 26.6211 4.6543C 26.9076 4.38086 27.2949 4.24414 27.7832 4.24414C 28.265 4.24414 28.6491 4.38086 28.9355 4.6543C 29.222 4.92773 29.3652 5.27604 29.3652 5.69922C 29.3652 6.12891 29.2188 6.48047 28.9258 6.75391C 28.6393 7.02734 28.2585 7.16406 27.7832 7.16406C 27.3079 7.16406 26.9238 7.02734 26.6309 6.75391C 26.3444 6.48047 26.2012 6.12891 26.2012 5.69922ZM 31.123 13.6387C 31.123 12.0176 31.5072 10.7122 32.2754 9.72266C 33.0501 8.73307 34.0918 8.23828 35.4004 8.23828C 36.5592 8.23828 37.4609 8.63542 38.1055 9.42969L 38.2227 8.43359L 40.7812 8.43359L 40.7812 18.6484C 40.7812 19.5729 40.5697 20.377 40.1465 21.0605C 39.7298 21.7441 39.1406 22.265 38.3789 22.623C 37.6172 22.9811 36.7253 23.1602 35.7031 23.1602C 34.9284 23.1602 34.1732 23.0039 33.4375 22.6914C 32.7018 22.3854 32.1452 21.9883 31.7676 21.5L 33.0176 19.7812C 33.7207 20.569 34.5736 20.9629 35.5762 20.9629C 36.3249 20.9629 36.9076 20.7611 37.3242 20.3574C 37.7409 19.9603 37.9492 19.3939 37.9492 18.6582L 37.9492 18.0918C 37.2982 18.8275 36.4421 19.1953 35.3809 19.1953C 34.1113 19.1953 33.0827 18.7005 32.2949 17.7109C 31.5137 16.7148 31.123 15.3965 31.123 13.7559L 31.123 13.6387ZM 33.9453 13.8438C 33.9453 14.8008 34.1374 15.5527 34.5215 16.0996C 34.9056 16.64 35.4329 16.9102 36.1035 16.9102C 36.9629 16.9102 37.5781 16.5879 37.9492 15.9434L 37.9492 11.5C 37.5716 10.8555 36.9629 10.5332 36.123 10.5332C 35.446 10.5332 34.9121 10.8099 34.5215 11.3633C 34.1374 11.9167 33.9453 12.7435 33.9453 13.8438ZM 45.7129 9.58594C 46.4616 8.6875 47.4023 8.23828 48.5352 8.23828C 50.8268 8.23828 51.9889 9.56966 52.0215 12.2324L 52.0215 19L 49.1992 19L 49.1992 12.3105C 49.1992 11.7051 49.069 11.2591 48.8086 10.9727C 48.5482 10.6797 48.1152 10.5332 47.5098 10.5332C 46.6829 10.5332 46.084 10.8522 45.7129 11.4902L 45.7129 19L 42.8906 19L 42.8906 4L 45.7129 4L 45.7129 9.58594ZM 57.5293 5.83594L 57.5293 8.43359L 59.3359 8.43359L 59.3359 10.5039L 57.5293 10.5039L 57.5293 15.7773C 57.5293 16.168 57.6042 16.4479 57.7539 16.6172C 57.9036 16.7865 58.1901 16.8711 58.6133 16.8711C 58.9258 16.8711 59.2025 16.8483 59.4434 16.8027L 59.4434 18.9414C 58.89 19.1107 58.3203 19.1953 57.7344 19.1953C 55.7552 19.1953 54.7461 18.196 54.707 16.1973L 54.707 10.5039L 53.1641 10.5039L 53.1641 8.43359L 54.707 8.43359L 54.707 5.83594L 57.5293 5.83594Z"/>
<path id="path7_fill" d="M 9.99219 11.4141L 10.2109 12.9141L 10.5312 11.5625L 12.7812 3.625L 14.0469 3.625L 16.2422 11.5625L 16.5547 12.9375L 16.7969 11.4062L 18.5625 3.625L 20.0703 3.625L 17.3125 15L 15.9453 15L 13.6016 6.71094L 13.4219 5.84375L 13.2422 6.71094L 10.8125 15L 9.44531 15L 6.69531 3.625L 8.19531 3.625L 9.99219 11.4141ZM 24.7734 15.1562C 23.6276 15.1562 22.6953 14.7812 21.9766 14.0312C 21.2578 13.276 20.8984 12.2682 20.8984 11.0078L 20.8984 10.7422C 20.8984 9.90365 21.0573 9.15625 21.375 8.5C 21.6979 7.83854 22.1458 7.32292 22.7188 6.95312C 23.2969 6.57812 23.9219 6.39062 24.5938 6.39062C 25.6927 6.39062 26.5469 6.7526 27.1562 7.47656C 27.7656 8.20052 28.0703 9.23698 28.0703 10.5859L 28.0703 11.1875L 22.3438 11.1875C 22.3646 12.0208 22.6068 12.6953 23.0703 13.2109C 23.5391 13.7214 24.1328 13.9766 24.8516 13.9766C 25.362 13.9766 25.7943 13.8724 26.1484 13.6641C 26.5026 13.4557 26.8125 13.1797 27.0781 12.8359L 27.9609 13.5234C 27.2526 14.612 26.1901 15.1562 24.7734 15.1562ZM 24.5938 7.57812C 24.0104 7.57812 23.5208 7.79167 23.125 8.21875C 22.7292 8.64062 22.4844 9.23438 22.3906 10L 26.625 10L 26.625 9.89062C 26.5833 9.15625 26.3854 8.58854 26.0312 8.1875C 25.6771 7.78125 25.1979 7.57812 24.5938 7.57812ZM 37.1094 13.9766C 37.625 13.9766 38.0755 13.8203 38.4609 13.5078C 38.8464 13.1953 39.0599 12.8047 39.1016 12.3359L 40.4688 12.3359C 40.4427 12.8203 40.276 13.2812 39.9688 13.7188C 39.6615 14.1562 39.25 14.5052 38.7344 14.7656C 38.224 15.026 37.6823 15.1562 37.1094 15.1562C 35.9583 15.1562 35.0417 14.7734 34.3594 14.0078C 33.6823 13.237 33.3438 12.1849 33.3438 10.8516L 33.3438 10.6094C 33.3438 9.78646 33.4948 9.05469 33.7969 8.41406C 34.099 7.77344 34.5312 7.27604 35.0938 6.92188C 35.6615 6.56771 36.3307 6.39062 37.1016 6.39062C 38.0495 6.39062 38.8359 6.67448 39.4609 7.24219C 40.0911 7.8099 40.4271 8.54688 40.4688 9.45312L 39.1016 9.45312C 39.0599 8.90625 38.8516 8.45833 38.4766 8.10938C 38.1068 7.75521 37.6484 7.57812 37.1016 7.57812C 36.3672 7.57812 35.7969 7.84375 35.3906 8.375C 34.9896 8.90104 34.7891 9.66406 34.7891 10.6641L 34.7891 10.9375C 34.7891 11.9115 34.9896 12.6615 35.3906 13.1875C 35.7917 13.7135 36.3646 13.9766 37.1094 13.9766ZM 47.3125 15C 47.2292 14.8333 47.1615 14.5365 47.1094 14.1094C 46.4375 14.8073 45.6354 15.1562 44.7031 15.1562C 43.8698 15.1562 43.1849 14.9219 42.6484 14.4531C 42.1172 13.9792 41.8516 13.3802 41.8516 12.6562C 41.8516 11.776 42.1849 11.0938 42.8516 10.6094C 43.5234 10.1198 44.4661 9.875 45.6797 9.875L 47.0859 9.875L 47.0859 9.21094C 47.0859 8.70573 46.9349 8.30469 46.6328 8.00781C 46.3307 7.70573 45.8854 7.55469 45.2969 7.55469C 44.7812 7.55469 44.349 7.6849 44 7.94531C 43.651 8.20573 43.4766 8.52083 43.4766 8.89062L 42.0234 8.89062C 42.0234 8.46875 42.1719 8.0625 42.4688 7.67188C 42.7708 7.27604 43.1771 6.96354 43.6875 6.73438C 44.2031 6.50521 44.7682 6.39062 45.3828 6.39062C 46.3568 6.39062 47.1198 6.63542 47.6719 7.125C 48.224 7.60938 48.5104 8.27865 48.5312 9.13281L 48.5312 13.0234C 48.5312 13.7995 48.6302 14.4167 48.8281 14.875L 48.8281 15L 47.3125 15ZM 44.9141 13.8984C 45.3672 13.8984 45.7969 13.7812 46.2031 13.5469C 46.6094 13.3125 46.9036 13.0078 47.0859 12.6328L 47.0859 10.8984L 45.9531 10.8984C 44.1823 10.8984 43.2969 11.4167 43.2969 12.4531C 43.2969 12.9062 43.4479 13.2604 43.75 13.5156C 44.0521 13.7708 44.4401 13.8984 44.9141 13.8984ZM 52.1641 6.54688L 52.2109 7.60938C 52.8568 6.79688 53.7005 6.39062 54.7422 6.39062C 56.5286 6.39062 57.4297 7.39844 57.4453 9.41406L 57.4453 15L 56 15L 56 9.40625C 55.9948 8.79688 55.8542 8.34635 55.5781 8.05469C 55.3073 7.76302 54.8828 7.61719 54.3047 7.61719C 53.8359 7.61719 53.4245 7.74219 53.0703 7.99219C 52.7161 8.24219 52.4401 8.57031 52.2422 8.97656L 52.2422 15L 50.7969 15L 50.7969 6.54688L 52.1641 6.54688ZM 65.5547 4.5L 65.5547 6.54688L 67.1328 6.54688L 67.1328 7.66406L 65.5547 7.66406L 65.5547 12.9062C 65.5547 13.2448 65.625 13.5 65.7656 13.6719C 65.9062 13.8385 66.1458 13.9219 66.4844 13.9219C 66.651 13.9219 66.8802 13.8906 67.1719 13.8281L 67.1719 15C 66.7917 15.1042 66.4219 15.1562 66.0625 15.1562C 65.4167 15.1562 64.9297 14.9609 64.6016 14.5703C 64.2734 14.1797 64.1094 13.625 64.1094 12.9062L 64.1094 7.66406L 62.5703 7.66406L 62.5703 6.54688L 64.1094 6.54688L 64.1094 4.5L 65.5547 4.5ZM 72.3359 15.1562C 71.1901 15.1562 70.2578 14.7812 69.5391 14.0312C 68.8203 13.276 68.4609 12.2682 68.4609 11.0078L 68.4609 10.7422C 68.4609 9.90365 68.6198 9.15625 68.9375 8.5C 69.2604 7.83854 69.7083 7.32292 70.2812 6.95312C 70.8594 6.57812 71.4844 6.39062 72.1562 6.39062C 73.2552 6.39062 74.1094 6.7526 74.7188 7.47656C 75.3281 8.20052 75.6328 9.23698 75.6328 10.5859L 75.6328 11.1875L 69.9062 11.1875C 69.9271 12.0208 70.1693 12.6953 70.6328 13.2109C 71.1016 13.7214 71.6953 13.9766 72.4141 13.9766C 72.9245 13.9766 73.3568 13.8724 73.7109 13.6641C 74.0651 13.4557 74.375 13.1797 74.6406 12.8359L 75.5234 13.5234C 74.8151 14.612 73.7526 15.1562 72.3359 15.1562ZM 72.1562 7.57812C 71.5729 7.57812 71.0833 7.79167 70.6875 8.21875C 70.2917 8.64062 70.0469 9.23438 69.9531 10L 74.1875 10L 74.1875 9.89062C 74.1458 9.15625 73.9479 8.58854 73.5938 8.1875C 73.2396 7.78125 72.7604 7.57812 72.1562 7.57812ZM 78.8828 15L 77.4375 15L 77.4375 3L 78.8828 3L 78.8828 15ZM 82.7734 15L 81.3281 15L 81.3281 3L 82.7734 3L 82.7734 15ZM 91.5391 4.46875L 91.5391 6.54688L 92.9844 6.54688L 92.9844 8.20312L 91.5391 8.20312L 91.5391 12.4219C 91.5391 12.7344 91.599 12.9583 91.7188 13.0938C 91.8385 13.2292 92.0677 13.2969 92.4062 13.2969C 92.6562 13.2969 92.8776 13.2786 93.0703 13.2422L 93.0703 14.9531C 92.6276 15.0885 92.1719 15.1562 91.7031 15.1562C 90.1198 15.1562 89.3125 14.3568 89.2812 12.7578L 89.2812 8.20312L 88.0469 8.20312L 88.0469 6.54688L 89.2812 6.54688L 89.2812 4.46875L 91.5391 4.46875ZM 96.4453 7.46875C 97.0443 6.75 97.7969 6.39062 98.7031 6.39062C 100.536 6.39062 101.466 7.45573 101.492 9.58594L 101.492 15L 99.2344 15L 99.2344 9.64844C 99.2344 9.16406 99.1302 8.80729 98.9219 8.57812C 98.7135 8.34375 98.3672 8.22656 97.8828 8.22656C 97.2214 8.22656 96.7422 8.48177 96.4453 8.99219L 96.4453 15L 94.1875 15L 94.1875 3L 96.4453 3L 96.4453 7.46875ZM 107.086 15.1562C 105.846 15.1562 104.836 14.776 104.055 14.0156C 103.279 13.2552 102.891 12.2422 102.891 10.9766L 102.891 10.7578C 102.891 9.90885 103.055 9.15104 103.383 8.48438C 103.711 7.8125 104.174 7.29688 104.773 6.9375C 105.378 6.57292 106.065 6.39062 106.836 6.39062C 107.992 6.39062 108.901 6.75521 109.562 7.48438C 110.229 8.21354 110.562 9.2474 110.562 10.5859L 110.562 11.5078L 105.18 11.5078C 105.253 12.0599 105.471 12.5026 105.836 12.8359C 106.206 13.1693 106.672 13.3359 107.234 13.3359C 108.104 13.3359 108.784 13.0208 109.273 12.3906L 110.383 13.6328C 110.044 14.112 109.586 14.487 109.008 14.7578C 108.43 15.0234 107.789 15.1562 107.086 15.1562ZM 106.828 8.21875C 106.38 8.21875 106.016 8.36979 105.734 8.67188C 105.458 8.97396 105.281 9.40625 105.203 9.96875L 108.344 9.96875L 108.344 9.78906C 108.333 9.28906 108.198 8.90365 107.938 8.63281C 107.677 8.35677 107.307 8.21875 106.828 8.21875ZM 120.414 12.6641C 120.414 12.388 120.276 12.1719 120 12.0156C 119.729 11.8542 119.292 11.7109 118.688 11.5859C 116.677 11.1641 115.672 10.3099 115.672 9.02344C 115.672 8.27344 115.982 7.64844 116.602 7.14844C 117.227 6.64323 118.042 6.39062 119.047 6.39062C 120.12 6.39062 120.977 6.64323 121.617 7.14844C 122.263 7.65365 122.586 8.3099 122.586 9.11719L 120.328 9.11719C 120.328 8.79427 120.224 8.52865 120.016 8.32031C 119.807 8.10677 119.482 8 119.039 8C 118.659 8 118.365 8.08594 118.156 8.25781C 117.948 8.42969 117.844 8.64844 117.844 8.91406C 117.844 9.16406 117.961 9.36719 118.195 9.52344C 118.435 9.67448 118.836 9.80729 119.398 9.92188C 119.961 10.0312 120.435 10.1562 120.82 10.2969C 122.013 10.7344 122.609 11.4922 122.609 12.5703C 122.609 13.3411 122.279 13.9661 121.617 14.4453C 120.956 14.9193 120.102 15.1562 119.055 15.1562C 118.346 15.1562 117.716 15.0312 117.164 14.7812C 116.617 14.526 116.188 14.1797 115.875 13.7422C 115.562 13.2995 115.406 12.8229 115.406 12.3125L 117.547 12.3125C 117.568 12.7135 117.716 13.0208 117.992 13.2344C 118.268 13.4479 118.638 13.5547 119.102 13.5547C 119.534 13.5547 119.859 13.474 120.078 13.3125C 120.302 13.1458 120.414 12.9297 120.414 12.6641ZM 126.453 15L 124.188 15L 124.188 6.54688L 126.453 6.54688L 126.453 15ZM 124.055 4.35938C 124.055 4.02083 124.167 3.74219 124.391 3.52344C 124.62 3.30469 124.93 3.19531 125.32 3.19531C 125.706 3.19531 126.013 3.30469 126.242 3.52344C 126.471 3.74219 126.586 4.02083 126.586 4.35938C 126.586 4.70312 126.469 4.98438 126.234 5.20312C 126.005 5.42188 125.701 5.53125 125.32 5.53125C 124.94 5.53125 124.633 5.42188 124.398 5.20312C 124.169 4.98438 124.055 4.70312 124.055 4.35938ZM 130.914 13.1797L 135.047 13.1797L 135.047 15L 128.031 15L 128.031 13.625L 132.008 8.375L 128.148 8.375L 128.148 6.54688L 134.922 6.54688L 134.922 7.88281L 130.914 13.1797ZM 140.227 15.1562C 138.987 15.1562 137.977 14.776 137.195 14.0156C 136.419 13.2552 136.031 12.2422 136.031 10.9766L 136.031 10.7578C 136.031 9.90885 136.195 9.15104 136.523 8.48438C 136.852 7.8125 137.315 7.29688 137.914 6.9375C 138.518 6.57292 139.206 6.39062 139.977 6.39062C 141.133 6.39062 142.042 6.75521 142.703 7.48438C 143.37 8.21354 143.703 9.2474 143.703 10.5859L 143.703 11.5078L 138.32 11.5078C 138.393 12.0599 138.612 12.5026 138.977 12.8359C 139.346 13.1693 139.812 13.3359 140.375 13.3359C 141.245 13.3359 141.924 13.0208 142.414 12.3906L 143.523 13.6328C 143.185 14.112 142.727 14.487 142.148 14.7578C 141.57 15.0234 140.93 15.1562 140.227 15.1562ZM 139.969 8.21875C 139.521 8.21875 139.156 8.36979 138.875 8.67188C 138.599 8.97396 138.422 9.40625 138.344 9.96875L 141.484 9.96875L 141.484 9.78906C 141.474 9.28906 141.339 8.90365 141.078 8.63281C 140.818 8.35677 140.448 8.21875 139.969 8.21875ZM 148.805 10.6953C 148.805 9.86719 148.966 9.1224 149.289 8.46094C 149.617 7.79948 150.07 7.28906 150.648 6.92969C 151.232 6.57031 151.896 6.39062 152.641 6.39062C 153.792 6.39062 154.721 6.78906 155.43 7.58594C 156.143 8.38281 156.5 9.44271 156.5 10.7656L 156.5 10.8672C 156.5 11.6901 156.341 12.4297 156.023 13.0859C 155.711 13.737 155.26 14.2448 154.672 14.6094C 154.089 14.974 153.417 15.1562 152.656 15.1562C 151.51 15.1562 150.581 14.7578 149.867 13.9609C 149.159 13.1641 148.805 12.1094 148.805 10.7969L 148.805 10.6953ZM 150.258 10.8672C 150.258 11.8047 150.474 12.5573 150.906 13.125C 151.344 13.6927 151.927 13.9766 152.656 13.9766C 153.391 13.9766 153.974 13.6901 154.406 13.1172C 154.839 12.5391 155.055 11.7318 155.055 10.6953C 155.055 9.76823 154.833 9.01823 154.391 8.44531C 153.953 7.86719 153.37 7.57812 152.641 7.57812C 151.927 7.57812 151.352 7.86198 150.914 8.42969C 150.477 8.9974 150.258 9.8099 150.258 10.8672ZM 159.023 15L 159.023 7.66406L 157.688 7.66406L 157.688 6.54688L 159.023 6.54688L 159.023 5.67969C 159.023 4.77344 159.266 4.07292 159.75 3.57812C 160.234 3.08333 160.919 2.83594 161.805 2.83594C 162.138 2.83594 162.469 2.88021 162.797 2.96875L 162.719 4.14062C 162.474 4.09375 162.214 4.07031 161.938 4.07031C 161.469 4.07031 161.107 4.20833 160.852 4.48438C 160.596 4.75521 160.469 5.14583 160.469 5.65625L 160.469 6.54688L 162.273 6.54688L 162.273 7.66406L 160.469 7.66406L 160.469 15L 159.023 15ZM 38.4141 23.5L 38.4141 25.5469L 39.9922 25.5469L 39.9922 26.6641L 38.4141 26.6641L 38.4141 31.9062C 38.4141 32.2448 38.4844 32.5 38.625 32.6719C 38.7656 32.8385 39.0052 32.9219 39.3438 32.9219C 39.5104 32.9219 39.7396 32.8906 40.0312 32.8281L 40.0312 34C 39.651 34.1042 39.2812 34.1562 38.9219 34.1562C 38.276 34.1562 37.7891 33.9609 37.4609 33.5703C 37.1328 33.1797 36.9688 32.625 36.9688 31.9062L 36.9688 26.6641L 35.4297 26.6641L 35.4297 25.5469L 36.9688 25.5469L 36.9688 23.5L 38.4141 23.5ZM 43.1328 26.5703C 43.7734 25.7839 44.6068 25.3906 45.6328 25.3906C 47.4193 25.3906 48.3203 26.3984 48.3359 28.4141L 48.3359 34L 46.8906 34L 46.8906 28.4062C 46.8854 27.7969 46.7448 27.3464 46.4688 27.0547C 46.1979 26.763 45.7734 26.6172 45.1953 26.6172C 44.7266 26.6172 44.3151 26.7422 43.9609 26.9922C 43.6068 27.2422 43.3307 27.5703 43.1328 27.9766L 43.1328 34L 41.6875 34L 41.6875 22L 43.1328 22L 43.1328 26.5703ZM 54.0078 34.1562C 52.862 34.1562 51.9297 33.7812 51.2109 33.0312C 50.4922 32.276 50.1328 31.2682 50.1328 30.0078L 50.1328 29.7422C 50.1328 28.9036 50.2917 28.1562 50.6094 27.5C 50.9323 26.8385 51.3802 26.3229 51.9531 25.9531C 52.5312 25.5781 53.1562 25.3906 53.8281 25.3906C 54.9271 25.3906 55.7812 25.7526 56.3906 26.4766C 57 27.2005 57.3047 28.237 57.3047 29.5859L 57.3047 30.1875L 51.5781 30.1875C 51.599 31.0208 51.8411 31.6953 52.3047 32.2109C 52.7734 32.7214 53.3672 32.9766 54.0859 32.9766C 54.5964 32.9766 55.0286 32.8724 55.3828 32.6641C 55.737 32.4557 56.0469 32.1797 56.3125 31.8359L 57.1953 32.5234C 56.487 33.612 55.4245 34.1562 54.0078 34.1562ZM 53.8281 26.5781C 53.2448 26.5781 52.7552 26.7917 52.3594 27.2188C 51.9635 27.6406 51.7188 28.2344 51.625 29L 55.8594 29L 55.8594 28.8906C 55.8177 28.1562 55.6198 27.5885 55.2656 27.1875C 54.9115 26.7812 54.4323 26.5781 53.8281 26.5781ZM 62.6016 29.7031C 62.6016 28.4062 62.9089 27.3646 63.5234 26.5781C 64.138 25.7865 64.9427 25.3906 65.9375 25.3906C 66.9271 25.3906 67.7109 25.7292 68.2891 26.4062L 68.2891 22L 69.7344 22L 69.7344 34L 68.4062 34L 68.3359 33.0938C 67.7578 33.8021 66.9531 34.1562 65.9219 34.1562C 64.9427 34.1562 64.1432 33.7552 63.5234 32.9531C 62.9089 32.151 62.6016 31.1042 62.6016 29.8125L 62.6016 29.7031ZM 64.0469 29.8672C 64.0469 30.8255 64.2448 31.5755 64.6406 32.1172C 65.0365 32.6589 65.5833 32.9297 66.2812 32.9297C 67.1979 32.9297 67.8672 32.5182 68.2891 31.6953L 68.2891 27.8125C 67.8568 27.0156 67.1927 26.6172 66.2969 26.6172C 65.5885 26.6172 65.0365 26.8906 64.6406 27.4375C 64.2448 27.9844 64.0469 28.7943 64.0469 29.8672ZM 73.5547 34L 72.1094 34L 72.1094 25.5469L 73.5547 25.5469L 73.5547 34ZM 71.9922 23.3047C 71.9922 23.0703 72.0625 22.8724 72.2031 22.7109C 72.349 22.5495 72.5625 22.4688 72.8438 22.4688C 73.125 22.4688 73.3385 22.5495 73.4844 22.7109C 73.6302 22.8724 73.7031 23.0703 73.7031 23.3047C 73.7031 23.5391 73.6302 23.7344 73.4844 23.8906C 73.3385 24.0469 73.125 24.125 72.8438 24.125C 72.5625 24.125 72.349 24.0469 72.2031 23.8906C 72.0625 23.7344 71.9922 23.5391 71.9922 23.3047ZM 76.5859 34L 76.5859 26.6641L 75.25 26.6641L 75.25 25.5469L 76.5859 25.5469L 76.5859 24.6797C 76.5859 23.7734 76.8281 23.0729 77.3125 22.5781C 77.7969 22.0833 78.4818 21.8359 79.3672 21.8359C 79.7005 21.8359 80.0312 21.8802 80.3594 21.9688L 80.2812 23.1406C 80.0365 23.0938 79.776 23.0703 79.5 23.0703C 79.0312 23.0703 78.6693 23.2083 78.4141 23.4844C 78.1589 23.7552 78.0312 24.1458 78.0312 24.6562L 78.0312 25.5469L 79.8359 25.5469L 79.8359 26.6641L 78.0312 26.6641L 78.0312 34L 76.5859 34ZM 82.1484 34L 82.1484 26.6641L 80.8125 26.6641L 80.8125 25.5469L 82.1484 25.5469L 82.1484 24.6797C 82.1484 23.7734 82.3906 23.0729 82.875 22.5781C 83.3594 22.0833 84.0443 21.8359 84.9297 21.8359C 85.263 21.8359 85.5938 21.8802 85.9219 21.9688L 85.8438 23.1406C 85.599 23.0938 85.3385 23.0703 85.0625 23.0703C 84.5938 23.0703 84.2318 23.2083 83.9766 23.4844C 83.7214 23.7552 83.5938 24.1458 83.5938 24.6562L 83.5938 25.5469L 85.3984 25.5469L 85.3984 26.6641L 83.5938 26.6641L 83.5938 34L 82.1484 34ZM 90.3203 34.1562C 89.1745 34.1562 88.2422 33.7812 87.5234 33.0312C 86.8047 32.276 86.4453 31.2682 86.4453 30.0078L 86.4453 29.7422C 86.4453 28.9036 86.6042 28.1562 86.9219 27.5C 87.2448 26.8385 87.6927 26.3229 88.2656 25.9531C 88.8438 25.5781 89.4688 25.3906 90.1406 25.3906C 91.2396 25.3906 92.0938 25.7526 92.7031 26.4766C 93.3125 27.2005 93.6172 28.237 93.6172 29.5859L 93.6172 30.1875L 87.8906 30.1875C 87.9115 31.0208 88.1536 31.6953 88.6172 32.2109C 89.0859 32.7214 89.6797 32.9766 90.3984 32.9766C 90.9089 32.9766 91.3411 32.8724 91.6953 32.6641C 92.0495 32.4557 92.3594 32.1797 92.625 31.8359L 93.5078 32.5234C 92.7995 33.612 91.737 34.1562 90.3203 34.1562ZM 90.1406 26.5781C 89.5573 26.5781 89.0677 26.7917 88.6719 27.2188C 88.276 27.6406 88.0312 28.2344 87.9375 29L 92.1719 29L 92.1719 28.8906C 92.1302 28.1562 91.9323 27.5885 91.5781 27.1875C 91.224 26.7812 90.7448 26.5781 90.1406 26.5781ZM 99.3828 26.8438C 99.1641 26.8073 98.9271 26.7891 98.6719 26.7891C 97.724 26.7891 97.0807 27.1927 96.7422 28L 96.7422 34L 95.2969 34L 95.2969 25.5469L 96.7031 25.5469L 96.7266 26.5234C 97.2005 25.7682 97.8724 25.3906 98.7422 25.3906C 99.0234 25.3906 99.237 25.4271 99.3828 25.5L 99.3828 26.8438ZM 104.07 34.1562C 102.924 34.1562 101.992 33.7812 101.273 33.0312C 100.555 32.276 100.195 31.2682 100.195 30.0078L 100.195 29.7422C 100.195 28.9036 100.354 28.1562 100.672 27.5C 100.995 26.8385 101.443 26.3229 102.016 25.9531C 102.594 25.5781 103.219 25.3906 103.891 25.3906C 104.99 25.3906 105.844 25.7526 106.453 26.4766C 107.062 27.2005 107.367 28.237 107.367 29.5859L 107.367 30.1875L 101.641 30.1875C 101.661 31.0208 101.904 31.6953 102.367 32.2109C 102.836 32.7214 103.43 32.9766 104.148 32.9766C 104.659 32.9766 105.091 32.8724 105.445 32.6641C 105.799 32.4557 106.109 32.1797 106.375 31.8359L 107.258 32.5234C 106.549 33.612 105.487 34.1562 104.07 34.1562ZM 103.891 26.5781C 103.307 26.5781 102.818 26.7917 102.422 27.2188C 102.026 27.6406 101.781 28.2344 101.688 29L 105.922 29L 105.922 28.8906C 105.88 28.1562 105.682 27.5885 105.328 27.1875C 104.974 26.7812 104.495 26.5781 103.891 26.5781ZM 110.414 25.5469L 110.461 26.6094C 111.107 25.7969 111.951 25.3906 112.992 25.3906C 114.779 25.3906 115.68 26.3984 115.695 28.4141L 115.695 34L 114.25 34L 114.25 28.4062C 114.245 27.7969 114.104 27.3464 113.828 27.0547C 113.557 26.763 113.133 26.6172 112.555 26.6172C 112.086 26.6172 111.674 26.7422 111.32 26.9922C 110.966 27.2422 110.69 27.5703 110.492 27.9766L 110.492 34L 109.047 34L 109.047 25.5469L 110.414 25.5469ZM 121.266 32.9766C 121.781 32.9766 122.232 32.8203 122.617 32.5078C 123.003 32.1953 123.216 31.8047 123.258 31.3359L 124.625 31.3359C 124.599 31.8203 124.432 32.2812 124.125 32.7188C 123.818 33.1562 123.406 33.5052 122.891 33.7656C 122.38 34.026 121.839 34.1562 121.266 34.1562C 120.115 34.1562 119.198 33.7734 118.516 33.0078C 117.839 32.237 117.5 31.1849 117.5 29.8516L 117.5 29.6094C 117.5 28.7865 117.651 28.0547 117.953 27.4141C 118.255 26.7734 118.688 26.276 119.25 25.9219C 119.818 25.5677 120.487 25.3906 121.258 25.3906C 122.206 25.3906 122.992 25.6745 123.617 26.2422C 124.247 26.8099 124.583 27.5469 124.625 28.4531L 123.258 28.4531C 123.216 27.9062 123.008 27.4583 122.633 27.1094C 122.263 26.7552 121.805 26.5781 121.258 26.5781C 120.523 26.5781 119.953 26.8438 119.547 27.375C 119.146 27.901 118.945 28.6641 118.945 29.6641L 118.945 29.9375C 118.945 30.9115 119.146 31.6615 119.547 32.1875C 119.948 32.7135 120.521 32.9766 121.266 32.9766ZM 129.758 34.1562C 128.612 34.1562 127.68 33.7812 126.961 33.0312C 126.242 32.276 125.883 31.2682 125.883 30.0078L 125.883 29.7422C 125.883 28.9036 126.042 28.1562 126.359 27.5C 126.682 26.8385 127.13 26.3229 127.703 25.9531C 128.281 25.5781 128.906 25.3906 129.578 25.3906C 130.677 25.3906 131.531 25.7526 132.141 26.4766C 132.75 27.2005 133.055 28.237 133.055 29.5859L 133.055 30.1875L 127.328 30.1875C 127.349 31.0208 127.591 31.6953 128.055 32.2109C 128.523 32.7214 129.117 32.9766 129.836 32.9766C 130.346 32.9766 130.779 32.8724 131.133 32.6641C 131.487 32.4557 131.797 32.1797 132.062 31.8359L 132.945 32.5234C 132.237 33.612 131.174 34.1562 129.758 34.1562ZM 129.578 26.5781C 128.995 26.5781 128.505 26.7917 128.109 27.2188C 127.714 27.6406 127.469 28.2344 127.375 29L 131.609 29L 131.609 28.8906C 131.568 28.1562 131.37 27.5885 131.016 27.1875C 130.661 26.7812 130.182 26.5781 129.578 26.5781Z"/>
<path id="path8_fill" d="M 7.03418 11.4062L 10.2891 4.35938L 13.8125 4.35938L 8.67773 14.3281L 8.67773 20L 5.40137 20L 5.40137 14.3281L 0.266602 4.35938L 3.80078 4.35938L 7.03418 11.4062ZM 24.6514 13.2217L 18.4639 13.2217L 18.4639 17.4111L 25.7256 17.4111L 25.7256 20L 15.2412 20L 15.2412 4.35938L 25.7041 4.35938L 25.7041 6.96973L 18.4639 6.96973L 18.4639 10.6973L 24.6514 10.6973L 24.6514 13.2217ZM 35.7266 15.8965C 35.7266 15.2878 35.5117 14.8223 35.082 14.5C 34.6523 14.1706 33.8789 13.8268 32.7617 13.4688C 31.6445 13.1035 30.7601 12.7454 30.1084 12.3945C 28.3324 11.4349 27.4443 10.1423 27.4443 8.5166C 27.4443 7.67155 27.6807 6.9196 28.1533 6.26074C 28.6331 5.59473 29.3171 5.07552 30.2051 4.70312C 31.1003 4.33073 32.1029 4.14453 33.2129 4.14453C 34.3301 4.14453 35.3255 4.34863 36.1992 4.75684C 37.0729 5.15788 37.7497 5.72721 38.2295 6.46484C 38.7165 7.20247 38.96 8.04036 38.96 8.97852L 35.7373 8.97852C 35.7373 8.26237 35.5117 7.70736 35.0605 7.31348C 34.6094 6.91243 33.9756 6.71191 33.1592 6.71191C 32.3714 6.71191 31.7591 6.88021 31.3223 7.2168C 30.8854 7.54622 30.667 7.98307 30.667 8.52734C 30.667 9.03581 30.9212 9.46191 31.4297 9.80566C 31.9453 10.1494 32.7008 10.4717 33.6963 10.7725C 35.5296 11.3239 36.8652 12.0078 37.7031 12.8242C 38.541 13.6406 38.96 14.6576 38.96 15.875C 38.96 17.2285 38.4479 18.292 37.4238 19.0654C 36.3997 19.8317 35.0212 20.2148 33.2881 20.2148C 32.085 20.2148 30.9893 19.9964 30.001 19.5596C 29.0127 19.1156 28.2572 18.5104 27.7344 17.7441C 27.2188 16.9779 26.9609 16.0898 26.9609 15.0801L 30.1943 15.0801C 30.1943 16.806 31.2256 17.6689 33.2881 17.6689C 34.0544 17.6689 34.6523 17.515 35.082 17.207C 35.5117 16.8919 35.7266 16.4551 35.7266 15.8965Z"/>
<path id="path9_fill" d="M 14.2539 20L 11.0312 20L 4.75781 9.70898L 4.75781 20L 1.53516 20L 1.53516 4.35938L 4.75781 4.35938L 11.042 14.6719L 11.042 4.35938L 14.2539 4.35938L 14.2539 20ZM 29.916 12.5342C 29.916 14.0739 29.6439 15.4238 29.0996 16.584C 28.5553 17.7441 27.7747 18.6393 26.7578 19.2695C 25.748 19.8997 24.5879 20.2148 23.2773 20.2148C 21.9811 20.2148 20.8245 19.9033 19.8076 19.2803C 18.7907 18.6572 18.0029 17.7692 17.4443 16.6162C 16.8857 15.4561 16.6029 14.124 16.5957 12.6201L 16.5957 11.8467C 16.5957 10.307 16.8714 8.95345 17.4229 7.78613C 17.9814 6.61165 18.7656 5.71289 19.7754 5.08984C 20.7923 4.45964 21.9525 4.14453 23.2559 4.14453C 24.5592 4.14453 25.7158 4.45964 26.7256 5.08984C 27.7425 5.71289 28.5267 6.61165 29.0781 7.78613C 29.6367 8.95345 29.916 10.3034 29.916 11.8359L 29.916 12.5342ZM 26.6504 11.8252C 26.6504 10.1852 26.3568 8.93913 25.7695 8.08691C 25.1823 7.2347 24.3444 6.80859 23.2559 6.80859C 22.1745 6.80859 21.3402 7.23112 20.7529 8.07617C 20.1657 8.91406 19.8685 10.1458 19.8613 11.7715L 19.8613 12.5342C 19.8613 14.1312 20.1549 15.3701 20.7422 16.251C 21.3294 17.1318 22.1745 17.5723 23.2773 17.5723C 24.3587 17.5723 25.1895 17.1497 25.7695 16.3047C 26.3496 15.4525 26.6432 14.2135 26.6504 12.5879L 26.6504 11.8252Z"/>
<path id="path10_stroke" d="M 0 -5.55112e-17L 343.006 -5.55112e-17L 343.006 -1L 0 -1L 0 -5.55112e-17Z"/>
<path id="path11_stroke" d="M 0 0L 341 0L 341 -1L 0 -1L 0 0Z"/>
<path id="path12_fill" d="M 3.83594 11.4141L 4.05469 12.9141L 4.375 11.5625L 6.625 3.625L 7.89062 3.625L 10.0859 11.5625L 10.3984 12.9375L 10.6406 11.4062L 12.4062 3.625L 13.9141 3.625L 11.1562 15L 9.78906 15L 7.44531 6.71094L 7.26562 5.84375L 7.08594 6.71094L 4.65625 15L 3.28906 15L 0.539062 3.625L 2.03906 3.625L 3.83594 11.4141ZM 18.6172 15.1562C 17.4714 15.1562 16.5391 14.7812 15.8203 14.0312C 15.1016 13.276 14.7422 12.2682 14.7422 11.0078L 14.7422 10.7422C 14.7422 9.90365 14.901 9.15625 15.2188 8.5C 15.5417 7.83854 15.9896 7.32292 16.5625 6.95312C 17.1406 6.57812 17.7656 6.39062 18.4375 6.39062C 19.5365 6.39062 20.3906 6.7526 21 7.47656C 21.6094 8.20052 21.9141 9.23698 21.9141 10.5859L 21.9141 11.1875L 16.1875 11.1875C 16.2083 12.0208 16.4505 12.6953 16.9141 13.2109C 17.3828 13.7214 17.9766 13.9766 18.6953 13.9766C 19.2057 13.9766 19.638 13.8724 19.9922 13.6641C 20.3464 13.4557 20.6562 13.1797 20.9219 12.8359L 21.8047 13.5234C 21.0964 14.612 20.0339 15.1562 18.6172 15.1562ZM 18.4375 7.57812C 17.8542 7.57812 17.3646 7.79167 16.9688 8.21875C 16.5729 8.64062 16.3281 9.23438 16.2344 10L 20.4688 10L 20.4688 9.89062C 20.4271 9.15625 20.2292 8.58854 19.875 8.1875C 19.5208 7.78125 19.0417 7.57812 18.4375 7.57812ZM 30.9531 13.9766C 31.4688 13.9766 31.9193 13.8203 32.3047 13.5078C 32.6901 13.1953 32.9036 12.8047 32.9453 12.3359L 34.3125 12.3359C 34.2865 12.8203 34.1198 13.2812 33.8125 13.7188C 33.5052 14.1562 33.0938 14.5052 32.5781 14.7656C 32.0677 15.026 31.526 15.1562 30.9531 15.1562C 29.8021 15.1562 28.8854 14.7734 28.2031 14.0078C 27.526 13.237 27.1875 12.1849 27.1875 10.8516L 27.1875 10.6094C 27.1875 9.78646 27.3385 9.05469 27.6406 8.41406C 27.9427 7.77344 28.375 7.27604 28.9375 6.92188C 29.5052 6.56771 30.1745 6.39062 30.9453 6.39062C 31.8932 6.39062 32.6797 6.67448 33.3047 7.24219C 33.9349 7.8099 34.2708 8.54688 34.3125 9.45312L 32.9453 9.45312C 32.9036 8.90625 32.6953 8.45833 32.3203 8.10938C 31.9505 7.75521 31.4922 7.57812 30.9453 7.57812C 30.2109 7.57812 29.6406 7.84375 29.2344 8.375C 28.8333 8.90104 28.6328 9.66406 28.6328 10.6641L 28.6328 10.9375C 28.6328 11.9115 28.8333 12.6615 29.2344 13.1875C 29.6354 13.7135 30.2083 13.9766 30.9531 13.9766ZM 41.1562 15C 41.0729 14.8333 41.0052 14.5365 40.9531 14.1094C 40.2812 14.8073 39.4792 15.1562 38.5469 15.1562C 37.7135 15.1562 37.0286 14.9219 36.4922 14.4531C 35.9609 13.9792 35.6953 13.3802 35.6953 12.6562C 35.6953 11.776 36.0286 11.0938 36.6953 10.6094C 37.3672 10.1198 38.3099 9.875 39.5234 9.875L 40.9297 9.875L 40.9297 9.21094C 40.9297 8.70573 40.7786 8.30469 40.4766 8.00781C 40.1745 7.70573 39.7292 7.55469 39.1406 7.55469C 38.625 7.55469 38.1927 7.6849 37.8438 7.94531C 37.4948 8.20573 37.3203 8.52083 37.3203 8.89062L 35.8672 8.89062C 35.8672 8.46875 36.0156 8.0625 36.3125 7.67188C 36.6146 7.27604 37.0208 6.96354 37.5312 6.73438C 38.0469 6.50521 38.612 6.39062 39.2266 6.39062C 40.2005 6.39062 40.9635 6.63542 41.5156 7.125C 42.0677 7.60938 42.3542 8.27865 42.375 9.13281L 42.375 13.0234C 42.375 13.7995 42.474 14.4167 42.6719 14.875L 42.6719 15L 41.1562 15ZM 38.7578 13.8984C 39.2109 13.8984 39.6406 13.7812 40.0469 13.5469C 40.4531 13.3125 40.7474 13.0078 40.9297 12.6328L 40.9297 10.8984L 39.7969 10.8984C 38.026 10.8984 37.1406 11.4167 37.1406 12.4531C 37.1406 12.9062 37.2917 13.2604 37.5938 13.5156C 37.8958 13.7708 38.2839 13.8984 38.7578 13.8984ZM 46.0078 6.54688L 46.0547 7.60938C 46.7005 6.79688 47.5443 6.39062 48.5859 6.39062C 50.3724 6.39062 51.2734 7.39844 51.2891 9.41406L 51.2891 15L 49.8438 15L 49.8438 9.40625C 49.8385 8.79688 49.6979 8.34635 49.4219 8.05469C 49.151 7.76302 48.7266 7.61719 48.1484 7.61719C 47.6797 7.61719 47.2682 7.74219 46.9141 7.99219C 46.5599 8.24219 46.2839 8.57031 46.0859 8.97656L 46.0859 15L 44.6406 15L 44.6406 6.54688L 46.0078 6.54688ZM 59.3984 4.5L 59.3984 6.54688L 60.9766 6.54688L 60.9766 7.66406L 59.3984 7.66406L 59.3984 12.9062C 59.3984 13.2448 59.4688 13.5 59.6094 13.6719C 59.75 13.8385 59.9896 13.9219 60.3281 13.9219C 60.4948 13.9219 60.724 13.8906 61.0156 13.8281L 61.0156 15C 60.6354 15.1042 60.2656 15.1562 59.9062 15.1562C 59.2604 15.1562 58.7734 14.9609 58.4453 14.5703C 58.1172 14.1797 57.9531 13.625 57.9531 12.9062L 57.9531 7.66406L 56.4141 7.66406L 56.4141 6.54688L 57.9531 6.54688L 57.9531 4.5L 59.3984 4.5ZM 66.1797 15.1562C 65.0339 15.1562 64.1016 14.7812 63.3828 14.0312C 62.6641 13.276 62.3047 12.2682 62.3047 11.0078L 62.3047 10.7422C 62.3047 9.90365 62.4635 9.15625 62.7812 8.5C 63.1042 7.83854 63.5521 7.32292 64.125 6.95312C 64.7031 6.57812 65.3281 6.39062 66 6.39062C 67.099 6.39062 67.9531 6.7526 68.5625 7.47656C 69.1719 8.20052 69.4766 9.23698 69.4766 10.5859L 69.4766 11.1875L 63.75 11.1875C 63.7708 12.0208 64.013 12.6953 64.4766 13.2109C 64.9453 13.7214 65.5391 13.9766 66.2578 13.9766C 66.7682 13.9766 67.2005 13.8724 67.5547 13.6641C 67.9089 13.4557 68.2188 13.1797 68.4844 12.8359L 69.3672 13.5234C 68.6589 14.612 67.5964 15.1562 66.1797 15.1562ZM 66 7.57812C 65.4167 7.57812 64.9271 7.79167 64.5312 8.21875C 64.1354 8.64062 63.8906 9.23438 63.7969 10L 68.0312 10L 68.0312 9.89062C 67.9896 9.15625 67.7917 8.58854 67.4375 8.1875C 67.0833 7.78125 66.6042 7.57812 66 7.57812ZM 72.7266 15L 71.2812 15L 71.2812 3L 72.7266 3L 72.7266 15ZM 76.6172 15L 75.1719 15L 75.1719 3L 76.6172 3L 76.6172 15ZM 84.8672 4.5L 84.8672 6.54688L 86.4453 6.54688L 86.4453 7.66406L 84.8672 7.66406L 84.8672 12.9062C 84.8672 13.2448 84.9375 13.5 85.0781 13.6719C 85.2188 13.8385 85.4583 13.9219 85.7969 13.9219C 85.9635 13.9219 86.1927 13.8906 86.4844 13.8281L 86.4844 15C 86.1042 15.1042 85.7344 15.1562 85.375 15.1562C 84.7292 15.1562 84.2422 14.9609 83.9141 14.5703C 83.5859 14.1797 83.4219 13.625 83.4219 12.9062L 83.4219 7.66406L 81.8828 7.66406L 81.8828 6.54688L 83.4219 6.54688L 83.4219 4.5L 84.8672 4.5ZM 89.5859 7.57031C 90.2266 6.78385 91.0599 6.39062 92.0859 6.39062C 93.8724 6.39062 94.7734 7.39844 94.7891 9.41406L 94.7891 15L 93.3438 15L 93.3438 9.40625C 93.3385 8.79688 93.1979 8.34635 92.9219 8.05469C 92.651 7.76302 92.2266 7.61719 91.6484 7.61719C 91.1797 7.61719 90.7682 7.74219 90.4141 7.99219C 90.0599 8.24219 89.7839 8.57031 89.5859 8.97656L 89.5859 15L 88.1406 15L 88.1406 3L 89.5859 3L 89.5859 7.57031ZM 100.461 15.1562C 99.3151 15.1562 98.3828 14.7812 97.6641 14.0312C 96.9453 13.276 96.5859 12.2682 96.5859 11.0078L 96.5859 10.7422C 96.5859 9.90365 96.7448 9.15625 97.0625 8.5C 97.3854 7.83854 97.8333 7.32292 98.4062 6.95312C 98.9844 6.57812 99.6094 6.39062 100.281 6.39062C 101.38 6.39062 102.234 6.7526 102.844 7.47656C 103.453 8.20052 103.758 9.23698 103.758 10.5859L 103.758 11.1875L 98.0312 11.1875C 98.0521 12.0208 98.2943 12.6953 98.7578 13.2109C 99.2266 13.7214 99.8203 13.9766 100.539 13.9766C 101.049 13.9766 101.482 13.8724 101.836 13.6641C 102.19 13.4557 102.5 13.1797 102.766 12.8359L 103.648 13.5234C 102.94 14.612 101.878 15.1562 100.461 15.1562ZM 100.281 7.57812C 99.6979 7.57812 99.2083 7.79167 98.8125 8.21875C 98.4167 8.64062 98.1719 9.23438 98.0781 10L 102.312 10L 102.312 9.89062C 102.271 9.15625 102.073 8.58854 101.719 8.1875C 101.365 7.78125 100.885 7.57812 100.281 7.57812ZM 108.828 10.7109C 108.828 9.39323 109.122 8.34375 109.711 7.5625C 110.305 6.78125 111.115 6.39062 112.141 6.39062C 112.964 6.39062 113.643 6.69792 114.18 7.3125L 114.18 3L 116.445 3L 116.445 15L 114.406 15L 114.297 14.1016C 113.734 14.8047 113.01 15.1562 112.125 15.1562C 111.13 15.1562 110.331 14.7656 109.727 13.9844C 109.128 13.1979 108.828 12.1068 108.828 10.7109ZM 111.086 10.875C 111.086 11.6667 111.224 12.2734 111.5 12.6953C 111.776 13.1172 112.177 13.3281 112.703 13.3281C 113.401 13.3281 113.893 13.0339 114.18 12.4453L 114.18 9.10938C 113.898 8.52083 113.411 8.22656 112.719 8.22656C 111.63 8.22656 111.086 9.10938 111.086 10.875ZM 120.578 15L 118.312 15L 118.312 6.54688L 120.578 6.54688L 120.578 15ZM 118.18 4.35938C 118.18 4.02083 118.292 3.74219 118.516 3.52344C 118.745 3.30469 119.055 3.19531 119.445 3.19531C 119.831 3.19531 120.138 3.30469 120.367 3.52344C 120.596 3.74219 120.711 4.02083 120.711 4.35938C 120.711 4.70312 120.594 4.98438 120.359 5.20312C 120.13 5.42188 119.826 5.53125 119.445 5.53125C 119.065 5.53125 118.758 5.42188 118.523 5.20312C 118.294 4.98438 118.18 4.70312 118.18 4.35938ZM 127.195 8.66406C 126.888 8.6224 126.617 8.60156 126.383 8.60156C 125.529 8.60156 124.969 8.89062 124.703 9.46875L 124.703 15L 122.445 15L 122.445 6.54688L 124.578 6.54688L 124.641 7.55469C 125.094 6.77865 125.721 6.39062 126.523 6.39062C 126.773 6.39062 127.008 6.42448 127.227 6.49219L 127.195 8.66406ZM 132.023 15.1562C 130.784 15.1562 129.773 14.776 128.992 14.0156C 128.216 13.2552 127.828 12.2422 127.828 10.9766L 127.828 10.7578C 127.828 9.90885 127.992 9.15104 128.32 8.48438C 128.648 7.8125 129.112 7.29688 129.711 6.9375C 130.315 6.57292 131.003 6.39062 131.773 6.39062C 132.93 6.39062 133.839 6.75521 134.5 7.48438C 135.167 8.21354 135.5 9.2474 135.5 10.5859L 135.5 11.5078L 130.117 11.5078C 130.19 12.0599 130.409 12.5026 130.773 12.8359C 131.143 13.1693 131.609 13.3359 132.172 13.3359C 133.042 13.3359 133.721 13.0208 134.211 12.3906L 135.32 13.6328C 134.982 14.112 134.523 14.487 133.945 14.7578C 133.367 15.0234 132.727 15.1562 132.023 15.1562ZM 131.766 8.21875C 131.318 8.21875 130.953 8.36979 130.672 8.67188C 130.396 8.97396 130.219 9.40625 130.141 9.96875L 133.281 9.96875L 133.281 9.78906C 133.271 9.28906 133.135 8.90365 132.875 8.63281C 132.615 8.35677 132.245 8.21875 131.766 8.21875ZM 140.305 13.3359C 140.721 13.3359 141.06 13.2214 141.32 12.9922C 141.581 12.763 141.716 12.4583 141.727 12.0781L 143.844 12.0781C 143.839 12.651 143.682 13.1771 143.375 13.6562C 143.068 14.1302 142.646 14.5 142.109 14.7656C 141.578 15.026 140.99 15.1562 140.344 15.1562C 139.135 15.1562 138.182 14.7734 137.484 14.0078C 136.786 13.237 136.438 12.1745 136.438 10.8203L 136.438 10.6719C 136.438 9.36979 136.784 8.33073 137.477 7.55469C 138.169 6.77865 139.12 6.39062 140.328 6.39062C 141.385 6.39062 142.232 6.69271 142.867 7.29688C 143.508 7.89583 143.833 8.69531 143.844 9.69531L 141.727 9.69531C 141.716 9.25781 141.581 8.90365 141.32 8.63281C 141.06 8.35677 140.716 8.21875 140.289 8.21875C 139.763 8.21875 139.365 8.41146 139.094 8.79688C 138.828 9.17708 138.695 9.79688 138.695 10.6562L 138.695 10.8906C 138.695 11.7604 138.828 12.3854 139.094 12.7656C 139.359 13.1458 139.763 13.3359 140.305 13.3359ZM 147.836 4.46875L 147.836 6.54688L 149.281 6.54688L 149.281 8.20312L 147.836 8.20312L 147.836 12.4219C 147.836 12.7344 147.896 12.9583 148.016 13.0938C 148.135 13.2292 148.365 13.2969 148.703 13.2969C 148.953 13.2969 149.174 13.2786 149.367 13.2422L 149.367 14.9531C 148.924 15.0885 148.469 15.1562 148 15.1562C 146.417 15.1562 145.609 14.3568 145.578 12.7578L 145.578 8.20312L 144.344 8.20312L 144.344 6.54688L 145.578 6.54688L 145.578 4.46875L 147.836 4.46875ZM 152.922 15L 150.656 15L 150.656 6.54688L 152.922 6.54688L 152.922 15ZM 150.523 4.35938C 150.523 4.02083 150.635 3.74219 150.859 3.52344C 151.089 3.30469 151.398 3.19531 151.789 3.19531C 152.174 3.19531 152.482 3.30469 152.711 3.52344C 152.94 3.74219 153.055 4.02083 153.055 4.35938C 153.055 4.70312 152.938 4.98438 152.703 5.20312C 152.474 5.42188 152.169 5.53125 151.789 5.53125C 151.409 5.53125 151.102 5.42188 150.867 5.20312C 150.638 4.98438 150.523 4.70312 150.523 4.35938ZM 154.438 10.6953C 154.438 9.85677 154.599 9.10938 154.922 8.45312C 155.245 7.79688 155.708 7.28906 156.312 6.92969C 156.922 6.57031 157.628 6.39062 158.43 6.39062C 159.57 6.39062 160.5 6.73958 161.219 7.4375C 161.943 8.13542 162.346 9.08333 162.43 10.2812L 162.445 10.8594C 162.445 12.1562 162.083 13.1979 161.359 13.9844C 160.635 14.7656 159.664 15.1562 158.445 15.1562C 157.227 15.1562 156.253 14.7656 155.523 13.9844C 154.799 13.2031 154.438 12.1406 154.438 10.7969L 154.438 10.6953ZM 156.695 10.8594C 156.695 11.6615 156.846 12.276 157.148 12.7031C 157.451 13.125 157.883 13.3359 158.445 13.3359C 158.992 13.3359 159.419 13.1276 159.727 12.7109C 160.034 12.2891 160.188 11.6172 160.188 10.6953C 160.188 9.90885 160.034 9.29948 159.727 8.86719C 159.419 8.4349 158.987 8.21875 158.43 8.21875C 157.878 8.21875 157.451 8.4349 157.148 8.86719C 156.846 9.29427 156.695 9.95833 156.695 10.8594ZM 165.914 6.54688L 165.984 7.52344C 166.589 6.76823 167.398 6.39062 168.414 6.39062C 169.31 6.39062 169.977 6.65365 170.414 7.17969C 170.852 7.70573 171.076 8.49219 171.086 9.53906L 171.086 15L 168.828 15L 168.828 9.59375C 168.828 9.11458 168.724 8.76823 168.516 8.55469C 168.307 8.33594 167.961 8.22656 167.477 8.22656C 166.841 8.22656 166.365 8.4974 166.047 9.03906L 166.047 15L 163.789 15L 163.789 6.54688L 165.914 6.54688ZM 28.2422 29.6953C 28.2422 28.8672 28.4036 28.1224 28.7266 27.4609C 29.0547 26.7995 29.5078 26.2891 30.0859 25.9297C 30.6693 25.5703 31.3333 25.3906 32.0781 25.3906C 33.2292 25.3906 34.1589 25.7891 34.8672 26.5859C 35.5807 27.3828 35.9375 28.4427 35.9375 29.7656L 35.9375 29.8672C 35.9375 30.6901 35.7786 31.4297 35.4609 32.0859C 35.1484 32.737 34.6979 33.2448 34.1094 33.6094C 33.526 33.974 32.8542 34.1562 32.0938 34.1562C 30.9479 34.1562 30.0182 33.7578 29.3047 32.9609C 28.5964 32.1641 28.2422 31.1094 28.2422 29.7969L 28.2422 29.6953ZM 29.6953 29.8672C 29.6953 30.8047 29.9115 31.5573 30.3438 32.125C 30.7812 32.6927 31.3646 32.9766 32.0938 32.9766C 32.8281 32.9766 33.4115 32.6901 33.8438 32.1172C 34.276 31.5391 34.4922 30.7318 34.4922 29.6953C 34.4922 28.7682 34.2708 28.0182 33.8281 27.4453C 33.3906 26.8672 32.8073 26.5781 32.0781 26.5781C 31.3646 26.5781 30.7891 26.862 30.3516 27.4297C 29.9141 27.9974 29.6953 28.8099 29.6953 29.8672ZM 38.4609 34L 38.4609 26.6641L 37.125 26.6641L 37.125 25.5469L 38.4609 25.5469L 38.4609 24.6797C 38.4609 23.7734 38.7031 23.0729 39.1875 22.5781C 39.6719 22.0833 40.3568 21.8359 41.2422 21.8359C 41.5755 21.8359 41.9062 21.8802 42.2344 21.9688L 42.1562 23.1406C 41.9115 23.0938 41.651 23.0703 41.375 23.0703C 40.9062 23.0703 40.5443 23.2083 40.2891 23.4844C 40.0339 23.7552 39.9062 24.1458 39.9062 24.6562L 39.9062 25.5469L 41.7109 25.5469L 41.7109 26.6641L 39.9062 26.6641L 39.9062 34L 38.4609 34ZM 49.2422 23.5L 49.2422 25.5469L 50.8203 25.5469L 50.8203 26.6641L 49.2422 26.6641L 49.2422 31.9062C 49.2422 32.2448 49.3125 32.5 49.4531 32.6719C 49.5938 32.8385 49.8333 32.9219 50.1719 32.9219C 50.3385 32.9219 50.5677 32.8906 50.8594 32.8281L 50.8594 34C 50.4792 34.1042 50.1094 34.1562 49.75 34.1562C 49.1042 34.1562 48.6172 33.9609 48.2891 33.5703C 47.9609 33.1797 47.7969 32.625 47.7969 31.9062L 47.7969 26.6641L 46.2578 26.6641L 46.2578 25.5469L 47.7969 25.5469L 47.7969 23.5L 49.2422 23.5ZM 53.9609 26.5703C 54.6016 25.7839 55.4349 25.3906 56.4609 25.3906C 58.2474 25.3906 59.1484 26.3984 59.1641 28.4141L 59.1641 34L 57.7188 34L 57.7188 28.4062C 57.7135 27.7969 57.5729 27.3464 57.2969 27.0547C 57.026 26.763 56.6016 26.6172 56.0234 26.6172C 55.5547 26.6172 55.1432 26.7422 54.7891 26.9922C 54.4349 27.2422 54.1589 27.5703 53.9609 27.9766L 53.9609 34L 52.5156 34L 52.5156 22L 53.9609 22L 53.9609 26.5703ZM 64.8359 34.1562C 63.6901 34.1562 62.7578 33.7812 62.0391 33.0312C 61.3203 32.276 60.9609 31.2682 60.9609 30.0078L 60.9609 29.7422C 60.9609 28.9036 61.1198 28.1562 61.4375 27.5C 61.7604 26.8385 62.2083 26.3229 62.7812 25.9531C 63.3594 25.5781 63.9844 25.3906 64.6562 25.3906C 65.7552 25.3906 66.6094 25.7526 67.2188 26.4766C 67.8281 27.2005 68.1328 28.237 68.1328 29.5859L 68.1328 30.1875L 62.4062 30.1875C 62.4271 31.0208 62.6693 31.6953 63.1328 32.2109C 63.6016 32.7214 64.1953 32.9766 64.9141 32.9766C 65.4245 32.9766 65.8568 32.8724 66.2109 32.6641C 66.5651 32.4557 66.875 32.1797 67.1406 31.8359L 68.0234 32.5234C 67.3151 33.612 66.2526 34.1562 64.8359 34.1562ZM 64.6562 26.5781C 64.0729 26.5781 63.5833 26.7917 63.1875 27.2188C 62.7917 27.6406 62.5469 28.2344 62.4531 29L 66.6875 29L 66.6875 28.8906C 66.6458 28.1562 66.4479 27.5885 66.0938 27.1875C 65.7396 26.7812 65.2604 26.5781 64.6562 26.5781ZM 73.4297 29.7031C 73.4297 28.4062 73.737 27.3646 74.3516 26.5781C 74.9661 25.7865 75.7708 25.3906 76.7656 25.3906C 77.7552 25.3906 78.5391 25.7292 79.1172 26.4062L 79.1172 22L 80.5625 22L 80.5625 34L 79.2344 34L 79.1641 33.0938C 78.5859 33.8021 77.7812 34.1562 76.75 34.1562C 75.7708 34.1562 74.9714 33.7552 74.3516 32.9531C 73.737 32.151 73.4297 31.1042 73.4297 29.8125L 73.4297 29.7031ZM 74.875 29.8672C 74.875 30.8255 75.0729 31.5755 75.4688 32.1172C 75.8646 32.6589 76.4115 32.9297 77.1094 32.9297C 78.026 32.9297 78.6953 32.5182 79.1172 31.6953L 79.1172 27.8125C 78.6849 27.0156 78.0208 26.6172 77.125 26.6172C 76.4167 26.6172 75.8646 26.8906 75.4688 27.4375C 75.0729 27.9844 74.875 28.7943 74.875 29.8672ZM 84.3828 34L 82.9375 34L 82.9375 25.5469L 84.3828 25.5469L 84.3828 34ZM 82.8203 23.3047C 82.8203 23.0703 82.8906 22.8724 83.0312 22.7109C 83.1771 22.5495 83.3906 22.4688 83.6719 22.4688C 83.9531 22.4688 84.1667 22.5495 84.3125 22.7109C 84.4583 22.8724 84.5312 23.0703 84.5312 23.3047C 84.5312 23.5391 84.4583 23.7344 84.3125 23.8906C 84.1667 24.0469 83.9531 24.125 83.6719 24.125C 83.3906 24.125 83.1771 24.0469 83.0312 23.8906C 82.8906 23.7344 82.8203 23.5391 82.8203 23.3047ZM 87.4141 34L 87.4141 26.6641L 86.0781 26.6641L 86.0781 25.5469L 87.4141 25.5469L 87.4141 24.6797C 87.4141 23.7734 87.6562 23.0729 88.1406 22.5781C 88.625 22.0833 89.3099 21.8359 90.1953 21.8359C 90.5286 21.8359 90.8594 21.8802 91.1875 21.9688L 91.1094 23.1406C 90.8646 23.0938 90.6042 23.0703 90.3281 23.0703C 89.8594 23.0703 89.4974 23.2083 89.2422 23.4844C 88.987 23.7552 88.8594 24.1458 88.8594 24.6562L 88.8594 25.5469L 90.6641 25.5469L 90.6641 26.6641L 88.8594 26.6641L 88.8594 34L 87.4141 34ZM 92.9766 34L 92.9766 26.6641L 91.6406 26.6641L 91.6406 25.5469L 92.9766 25.5469L 92.9766 24.6797C 92.9766 23.7734 93.2188 23.0729 93.7031 22.5781C 94.1875 22.0833 94.8724 21.8359 95.7578 21.8359C 96.0911 21.8359 96.4219 21.8802 96.75 21.9688L 96.6719 23.1406C 96.4271 23.0938 96.1667 23.0703 95.8906 23.0703C 95.4219 23.0703 95.0599 23.2083 94.8047 23.4844C 94.5495 23.7552 94.4219 24.1458 94.4219 24.6562L 94.4219 25.5469L 96.2266 25.5469L 96.2266 26.6641L 94.4219 26.6641L 94.4219 34L 92.9766 34ZM 101.148 34.1562C 100.003 34.1562 99.0703 33.7812 98.3516 33.0312C 97.6328 32.276 97.2734 31.2682 97.2734 30.0078L 97.2734 29.7422C 97.2734 28.9036 97.4323 28.1562 97.75 27.5C 98.0729 26.8385 98.5208 26.3229 99.0938 25.9531C 99.6719 25.5781 100.297 25.3906 100.969 25.3906C 102.068 25.3906 102.922 25.7526 103.531 26.4766C 104.141 27.2005 104.445 28.237 104.445 29.5859L 104.445 30.1875L 98.7188 30.1875C 98.7396 31.0208 98.9818 31.6953 99.4453 32.2109C 99.9141 32.7214 100.508 32.9766 101.227 32.9766C 101.737 32.9766 102.169 32.8724 102.523 32.6641C 102.878 32.4557 103.188 32.1797 103.453 31.8359L 104.336 32.5234C 103.628 33.612 102.565 34.1562 101.148 34.1562ZM 100.969 26.5781C 100.385 26.5781 99.8958 26.7917 99.5 27.2188C 99.1042 27.6406 98.8594 28.2344 98.7656 29L 103 29L 103 28.8906C 102.958 28.1562 102.76 27.5885 102.406 27.1875C 102.052 26.7812 101.573 26.5781 100.969 26.5781ZM 110.211 26.8438C 109.992 26.8073 109.755 26.7891 109.5 26.7891C 108.552 26.7891 107.909 27.1927 107.57 28L 107.57 34L 106.125 34L 106.125 25.5469L 107.531 25.5469L 107.555 26.5234C 108.029 25.7682 108.701 25.3906 109.57 25.3906C 109.852 25.3906 110.065 25.4271 110.211 25.5L 110.211 26.8438ZM 114.898 34.1562C 113.753 34.1562 112.82 33.7812 112.102 33.0312C 111.383 32.276 111.023 31.2682 111.023 30.0078L 111.023 29.7422C 111.023 28.9036 111.182 28.1562 111.5 27.5C 111.823 26.8385 112.271 26.3229 112.844 25.9531C 113.422 25.5781 114.047 25.3906 114.719 25.3906C 115.818 25.3906 116.672 25.7526 117.281 26.4766C 117.891 27.2005 118.195 28.237 118.195 29.5859L 118.195 30.1875L 112.469 30.1875C 112.49 31.0208 112.732 31.6953 113.195 32.2109C 113.664 32.7214 114.258 32.9766 114.977 32.9766C 115.487 32.9766 115.919 32.8724 116.273 32.6641C 116.628 32.4557 116.938 32.1797 117.203 31.8359L 118.086 32.5234C 117.378 33.612 116.315 34.1562 114.898 34.1562ZM 114.719 26.5781C 114.135 26.5781 113.646 26.7917 113.25 27.2188C 112.854 27.6406 112.609 28.2344 112.516 29L 116.75 29L 116.75 28.8906C 116.708 28.1562 116.51 27.5885 116.156 27.1875C 115.802 26.7812 115.323 26.5781 114.719 26.5781ZM 121.242 25.5469L 121.289 26.6094C 121.935 25.7969 122.779 25.3906 123.82 25.3906C 125.607 25.3906 126.508 26.3984 126.523 28.4141L 126.523 34L 125.078 34L 125.078 28.4062C 125.073 27.7969 124.932 27.3464 124.656 27.0547C 124.385 26.763 123.961 26.6172 123.383 26.6172C 122.914 26.6172 122.503 26.7422 122.148 26.9922C 121.794 27.2422 121.518 27.5703 121.32 27.9766L 121.32 34L 119.875 34L 119.875 25.5469L 121.242 25.5469ZM 132.094 32.9766C 132.609 32.9766 133.06 32.8203 133.445 32.5078C 133.831 32.1953 134.044 31.8047 134.086 31.3359L 135.453 31.3359C 135.427 31.8203 135.26 32.2812 134.953 32.7188C 134.646 33.1562 134.234 33.5052 133.719 33.7656C 133.208 34.026 132.667 34.1562 132.094 34.1562C 130.943 34.1562 130.026 33.7734 129.344 33.0078C 128.667 32.237 128.328 31.1849 128.328 29.8516L 128.328 29.6094C 128.328 28.7865 128.479 28.0547 128.781 27.4141C 129.083 26.7734 129.516 26.276 130.078 25.9219C 130.646 25.5677 131.315 25.3906 132.086 25.3906C 133.034 25.3906 133.82 25.6745 134.445 26.2422C 135.076 26.8099 135.411 27.5469 135.453 28.4531L 134.086 28.4531C 134.044 27.9062 133.836 27.4583 133.461 27.1094C 133.091 26.7552 132.633 26.5781 132.086 26.5781C 131.352 26.5781 130.781 26.8438 130.375 27.375C 129.974 27.901 129.773 28.6641 129.773 29.6641L 129.773 29.9375C 129.773 30.9115 129.974 31.6615 130.375 32.1875C 130.776 32.7135 131.349 32.9766 132.094 32.9766ZM 140.586 34.1562C 139.44 34.1562 138.508 33.7812 137.789 33.0312C 137.07 32.276 136.711 31.2682 136.711 30.0078L 136.711 29.7422C 136.711 28.9036 136.87 28.1562 137.188 27.5C 137.51 26.8385 137.958 26.3229 138.531 25.9531C 139.109 25.5781 139.734 25.3906 140.406 25.3906C 141.505 25.3906 142.359 25.7526 142.969 26.4766C 143.578 27.2005 143.883 28.237 143.883 29.5859L 143.883 30.1875L 138.156 30.1875C 138.177 31.0208 138.419 31.6953 138.883 32.2109C 139.352 32.7214 139.945 32.9766 140.664 32.9766C 141.174 32.9766 141.607 32.8724 141.961 32.6641C 142.315 32.4557 142.625 32.1797 142.891 31.8359L 143.773 32.5234C 143.065 33.612 142.003 34.1562 140.586 34.1562ZM 140.406 26.5781C 139.823 26.5781 139.333 26.7917 138.938 27.2188C 138.542 27.6406 138.297 28.2344 138.203 29L 142.438 29L 142.438 28.8906C 142.396 28.1562 142.198 27.5885 141.844 27.1875C 141.49 26.7812 141.01 26.5781 140.406 26.5781Z"/>
<path id="path13_fill" d="M 0 0L 465 0L 465 197L 0 197L 0 0Z"/>
<path id="path14_stroke_2x" d="M 0 0L 0 -1L -1 -1L -1 0L 0 0ZM 465 0L 466 0L 466 -1L 465 -1L 465 0ZM 465 197L 465 198L 466 198L 466 197L 465 197ZM 0 197L -1 197L -1 198L 0 198L 0 197ZM 0 1L 465 1L 465 -1L 0 -1L 0 1ZM 464 0L 464 197L 466 197L 466 0L 464 0ZM 465 196L 0 196L 0 198L 465 198L 465 196ZM 1 197L 1 0L -1 0L -1 197L 1 197Z"/>
</defs>
</svg>
