<svg width="511" height="169" viewBox="0 0 511 169" fill="none" xmlns="http://www.w3.org/2000/svg">
<rect width="511" height="169" fill="white"/>
<path d="M19.982 146.088H23.986V146.97H21.228V157.246H23.986V158.128H19.982V146.088ZM28.6565 148.188L28.6145 146.396H30.5745L30.5325 148.188L30.1125 151.422H29.0765L28.6565 148.188ZM39.1231 152.248L38.8011 151.128C38.6704 150.643 38.5351 150.143 38.3951 149.63C38.2551 149.117 38.1197 148.608 37.9891 148.104H37.9331C37.8024 148.617 37.6671 149.131 37.5271 149.644C37.3964 150.148 37.2611 150.643 37.1211 151.128L36.7991 152.248H39.1231ZM39.4871 153.522H36.4351L35.7211 156H34.0691L37.0371 146.844H38.9411L41.9091 156H40.1871L39.4871 153.522ZM43.1776 146.116H46.9576V153.578C46.9576 154.045 47.0743 154.376 47.3076 154.572C47.5409 154.759 47.8349 154.852 48.1896 154.852C48.5256 154.852 48.9176 154.763 49.3656 154.586L49.7436 155.776C49.4169 155.888 49.1089 155.981 48.8196 156.056C48.5396 156.131 48.1989 156.168 47.7976 156.168C46.9856 156.168 46.3743 155.935 45.9636 155.468C45.5529 155.001 45.3476 154.343 45.3476 153.494V147.39H43.1776V146.116ZM51.7541 149.126H56.3461V156H54.7361V150.4H51.7541V149.126ZM55.4221 147.922C55.0955 147.922 54.8201 147.824 54.5961 147.628C54.3815 147.432 54.2741 147.171 54.2741 146.844C54.2741 146.517 54.3815 146.256 54.5961 146.06C54.8201 145.855 55.0955 145.752 55.4221 145.752C55.7581 145.752 56.0335 145.855 56.2481 146.06C56.4628 146.256 56.5701 146.517 56.5701 146.844C56.5701 147.171 56.4628 147.432 56.2481 147.628C56.0335 147.824 55.7581 147.922 55.4221 147.922ZM60.5967 154.082C60.9887 154.353 61.3947 154.567 61.8147 154.726C62.244 154.875 62.7247 154.95 63.2567 154.95C63.798 154.95 64.1947 154.875 64.4467 154.726C64.6987 154.567 64.8247 154.367 64.8247 154.124C64.8247 153.881 64.6613 153.681 64.3347 153.522C64.008 153.354 63.4947 153.177 62.7947 152.99C62.468 152.906 62.1507 152.803 61.8427 152.682C61.5347 152.561 61.264 152.421 61.0307 152.262C60.7973 152.103 60.6107 151.921 60.4707 151.716C60.3307 151.511 60.2607 151.277 60.2607 151.016C60.2607 150.409 60.522 149.915 61.0447 149.532C61.5673 149.149 62.3187 148.958 63.2987 148.958C63.8587 148.958 64.386 149.051 64.8807 149.238C65.3753 149.425 65.8 149.635 66.1547 149.868L65.4127 150.862C65.1047 150.657 64.7733 150.493 64.4187 150.372C64.0733 150.241 63.7047 150.176 63.3127 150.176C62.7807 150.176 62.4073 150.251 62.1927 150.4C61.978 150.54 61.8707 150.717 61.8707 150.932C61.8707 151.053 61.9173 151.165 62.0107 151.268C62.1133 151.361 62.2487 151.45 62.4167 151.534C62.594 151.609 62.7993 151.683 63.0327 151.758C63.266 151.833 63.5227 151.903 63.8027 151.968C64.204 152.071 64.5633 152.187 64.8807 152.318C65.2073 152.439 65.4827 152.579 65.7067 152.738C65.94 152.897 66.1173 153.083 66.2387 153.298C66.3693 153.513 66.4347 153.76 66.4347 154.04C66.4347 154.339 66.3647 154.619 66.2247 154.88C66.0847 155.132 65.8793 155.356 65.6087 155.552C65.338 155.739 65.002 155.888 64.6007 156C64.1993 156.112 63.7373 156.168 63.2147 156.168C62.5707 156.168 61.9547 156.065 61.3667 155.86C60.7787 155.655 60.27 155.403 59.8407 155.104L60.5967 154.082ZM68.1092 152.57C68.1092 152.001 68.2025 151.492 68.3892 151.044C68.5852 150.596 68.8419 150.218 69.1592 149.91C69.4765 149.602 69.8452 149.369 70.2652 149.21C70.6852 149.042 71.1192 148.958 71.5672 148.958C72.0152 148.958 72.4492 149.042 72.8692 149.21C73.2892 149.369 73.6579 149.602 73.9752 149.91C74.2925 150.218 74.5445 150.596 74.7312 151.044C74.9272 151.492 75.0252 152.001 75.0252 152.57C75.0252 153.139 74.9272 153.648 74.7312 154.096C74.5445 154.544 74.2925 154.922 73.9752 155.23C73.6579 155.538 73.2892 155.771 72.8692 155.93C72.4492 156.089 72.0152 156.168 71.5672 156.168C71.1192 156.168 70.6852 156.089 70.2652 155.93C69.8452 155.771 69.4765 155.538 69.1592 155.23C68.8419 154.922 68.5852 154.544 68.3892 154.096C68.2025 153.648 68.1092 153.139 68.1092 152.57ZM69.7752 152.57C69.7752 153.261 69.9339 153.816 70.2512 154.236C70.5685 154.647 71.0072 154.852 71.5672 154.852C72.1272 154.852 72.5659 154.647 72.8832 154.236C73.2005 153.816 73.3592 153.261 73.3592 152.57C73.3592 151.87 73.2005 151.315 72.8832 150.904C72.5659 150.484 72.1272 150.274 71.5672 150.274C71.0072 150.274 70.5685 150.484 70.2512 150.904C69.9339 151.315 69.7752 151.87 69.7752 152.57ZM76.9097 149.126H78.2397L78.3657 150.162H78.4217C78.7484 149.835 79.1077 149.555 79.4997 149.322C79.9011 149.079 80.3677 148.958 80.8997 148.958C81.6931 148.958 82.2764 149.201 82.6497 149.686C83.0231 150.162 83.2097 150.848 83.2097 151.744V156H81.5857V151.954C81.5857 151.394 81.4877 150.988 81.2917 150.736C81.1051 150.475 80.7737 150.344 80.2977 150.344C79.9617 150.344 79.6631 150.423 79.4017 150.582C79.1404 150.741 78.8511 150.983 78.5337 151.31V156H76.9097V149.126ZM87.4183 148.188L87.3763 146.396H89.3363L89.2943 148.188L88.8743 151.422H87.8383L87.4183 148.188ZM95.1968 158.044C96.3821 157.568 96.9794 156.849 96.9888 155.888C96.9421 155.897 96.8768 155.902 96.7928 155.902C96.4381 155.902 96.1301 155.799 95.8688 155.594C95.6074 155.379 95.4768 155.067 95.4768 154.656C95.4768 154.264 95.6074 153.961 95.8688 153.746C96.1394 153.522 96.4568 153.41 96.8208 153.41C97.3248 153.41 97.7028 153.597 97.9548 153.97C98.2068 154.343 98.3328 154.857 98.3328 155.51C98.3328 156.369 98.0994 157.092 97.6328 157.68C97.1661 158.277 96.4941 158.721 95.6168 159.01L95.1968 158.044ZM112.602 148.188L112.56 146.396H114.52L114.478 148.188L114.058 151.422H113.022L112.602 148.188ZM118.126 146.844H119.848L121.136 151.45C121.286 151.973 121.416 152.467 121.528 152.934C121.65 153.401 121.79 153.9 121.948 154.432H122.004C122.163 153.9 122.298 153.401 122.41 152.934C122.532 152.467 122.662 151.973 122.802 151.45L124.076 146.844H125.742L122.9 156H120.982L118.126 146.844ZM127.305 149.126H131.897V156H130.287V150.4H127.305V149.126ZM130.973 147.922C130.646 147.922 130.371 147.824 130.147 147.628C129.932 147.432 129.825 147.171 129.825 146.844C129.825 146.517 129.932 146.256 130.147 146.06C130.371 145.855 130.646 145.752 130.973 145.752C131.309 145.752 131.584 145.855 131.799 146.06C132.014 146.256 132.121 146.517 132.121 146.844C132.121 147.171 132.014 147.432 131.799 147.628C131.584 147.824 131.309 147.922 130.973 147.922ZM135.545 152.57C135.545 152.001 135.648 151.492 135.853 151.044C136.068 150.596 136.353 150.218 136.707 149.91C137.062 149.602 137.477 149.369 137.953 149.21C138.429 149.042 138.929 148.958 139.451 148.958C140.011 148.958 140.501 149.051 140.921 149.238C141.351 149.425 141.71 149.653 141.999 149.924L141.229 150.932C140.959 150.717 140.683 150.554 140.403 150.442C140.133 150.33 139.843 150.274 139.535 150.274C138.845 150.274 138.285 150.484 137.855 150.904C137.426 151.315 137.211 151.87 137.211 152.57C137.211 152.915 137.267 153.228 137.379 153.508C137.491 153.788 137.645 154.031 137.841 154.236C138.047 154.432 138.289 154.586 138.569 154.698C138.849 154.801 139.157 154.852 139.493 154.852C139.885 154.852 140.24 154.777 140.557 154.628C140.884 154.479 141.183 154.301 141.453 154.096L142.125 155.132C141.733 155.477 141.295 155.739 140.809 155.916C140.324 156.084 139.834 156.168 139.339 156.168C138.798 156.168 138.294 156.089 137.827 155.93C137.37 155.771 136.969 155.538 136.623 155.23C136.287 154.922 136.021 154.544 135.825 154.096C135.639 153.648 135.545 153.139 135.545 152.57ZM144.178 146.116H145.802V152.304H145.858L148.952 149.126H150.744L148.084 151.898L151.038 156H149.274L147.118 152.892L145.802 154.208V156H144.178V146.116ZM152.559 157.428C152.652 157.456 152.745 157.479 152.839 157.498C152.932 157.517 153.03 157.526 153.133 157.526C153.571 157.526 153.921 157.414 154.183 157.19C154.444 156.975 154.645 156.695 154.785 156.35L154.953 155.916L151.873 149.126H153.483L154.897 152.5C155.027 152.808 155.153 153.135 155.275 153.48C155.396 153.825 155.522 154.171 155.653 154.516H155.709C155.811 154.189 155.923 153.853 156.045 153.508C156.166 153.163 156.283 152.827 156.395 152.5L157.641 149.126H159.167L156.297 156.308C156.147 156.7 155.979 157.05 155.793 157.358C155.615 157.666 155.405 157.927 155.163 158.142C154.92 158.366 154.64 158.534 154.323 158.646C154.005 158.767 153.641 158.828 153.231 158.828C153.044 158.828 152.867 158.814 152.699 158.786C152.531 158.767 152.381 158.735 152.251 158.688L152.559 157.428ZM162.969 148.188L162.927 146.396H164.887L164.845 148.188L164.425 151.422H163.389L162.969 148.188ZM172.274 157.246V146.97H169.53V146.088H173.534V158.128H169.53V157.246H172.274Z" fill="#2E383C"/>
<path d="M14 90H491V132H14V90Z" fill="#F1F4F8"/>
<path d="M23.6913 100.799H25.0213L25.1473 101.835H25.2033C25.53 101.508 25.8893 101.228 26.2813 100.995C26.6827 100.752 27.1493 100.631 27.6813 100.631C28.4747 100.631 29.058 100.873 29.4313 101.359C29.8047 101.835 29.9913 102.521 29.9913 103.417V107.673H28.3673V103.627C28.3673 103.067 28.2693 102.661 28.0733 102.409C27.8867 102.147 27.5553 102.017 27.0793 102.017C26.7433 102.017 26.4447 102.096 26.1833 102.255C25.922 102.413 25.6327 102.656 25.3153 102.983V107.673H23.6913V100.799ZM31.9319 105.825C31.9319 105.442 32.0205 105.106 32.1979 104.817C32.3752 104.518 32.6552 104.266 33.0379 104.061C33.4205 103.855 33.9105 103.687 34.5079 103.557C35.1052 103.426 35.8285 103.333 36.6779 103.277C36.6499 102.885 36.5099 102.563 36.2579 102.311C36.0059 102.059 35.5999 101.933 35.0399 101.933C34.6479 101.933 34.2605 102.007 33.8779 102.157C33.5045 102.297 33.1405 102.465 32.7859 102.661L32.1979 101.583C32.6179 101.34 33.0985 101.121 33.6399 100.925C34.1812 100.729 34.7459 100.631 35.3339 100.631C36.2952 100.631 37.0279 100.887 37.5319 101.401C38.0359 101.905 38.2879 102.637 38.2879 103.599V107.673H36.9719L36.8459 106.819H36.8039C36.4399 107.099 36.0339 107.341 35.5859 107.547C35.1472 107.743 34.6945 107.841 34.2279 107.841C33.8919 107.841 33.5839 107.789 33.3039 107.687C33.0239 107.593 32.7812 107.458 32.5759 107.281C32.3705 107.103 32.2119 106.893 32.0999 106.651C31.9879 106.399 31.9319 106.123 31.9319 105.825ZM33.4859 105.699C33.4859 106.007 33.6025 106.231 33.8359 106.371C34.0785 106.511 34.3725 106.581 34.7179 106.581C35.0632 106.581 35.3945 106.506 35.7119 106.357C36.0385 106.198 36.3605 105.993 36.6779 105.741V104.285C36.0619 104.331 35.5485 104.397 35.1379 104.481C34.7272 104.555 34.4005 104.653 34.1579 104.775C33.9152 104.896 33.7425 105.036 33.6399 105.195C33.5372 105.344 33.4859 105.512 33.4859 105.699ZM40.0044 100.799H41.2224L41.3484 101.681H41.3904C41.5491 101.382 41.7404 101.135 41.9644 100.939C42.1977 100.733 42.5104 100.631 42.9024 100.631C43.5744 100.631 43.9944 101.013 44.1624 101.779C44.3211 101.452 44.5217 101.181 44.7644 100.967C45.0164 100.743 45.3337 100.631 45.7164 100.631C46.2017 100.631 46.5751 100.822 46.8364 101.205C47.1071 101.578 47.2424 102.11 47.2424 102.801V107.673H45.7164V102.927C45.7164 102.32 45.5251 102.017 45.1424 102.017C44.9557 102.017 44.7924 102.087 44.6524 102.227C44.5124 102.367 44.3771 102.581 44.2464 102.871V107.673H42.9864V102.927C42.9864 102.32 42.7904 102.017 42.3984 102.017C42.2117 102.017 42.0531 102.087 41.9224 102.227C41.7917 102.367 41.6611 102.581 41.5304 102.871V107.673H40.0044V100.799ZM48.5949 104.243C48.5949 103.683 48.6929 103.179 48.8889 102.731C49.0943 102.283 49.3603 101.905 49.6869 101.597C50.0136 101.279 50.3869 101.041 50.8069 100.883C51.2363 100.715 51.6749 100.631 52.1229 100.631C52.6363 100.631 53.0889 100.715 53.4809 100.883C53.8823 101.041 54.2183 101.265 54.4889 101.555C54.7596 101.835 54.9649 102.175 55.1049 102.577C55.2449 102.978 55.3149 103.417 55.3149 103.893C55.3149 104.051 55.3056 104.201 55.2869 104.341C55.2776 104.481 55.2636 104.593 55.2449 104.677H50.2469C50.3029 105.293 50.5456 105.769 50.9749 106.105C51.4043 106.431 51.9316 106.595 52.5569 106.595C52.9116 106.595 53.2429 106.548 53.5509 106.455C53.8589 106.352 54.1716 106.212 54.4889 106.035L55.0349 107.043C54.6616 107.276 54.2463 107.467 53.7889 107.617C53.3316 107.766 52.8509 107.841 52.3469 107.841C51.8243 107.841 51.3343 107.761 50.8769 107.603C50.4196 107.435 50.0229 107.197 49.6869 106.889C49.3509 106.581 49.0849 106.207 48.8889 105.769C48.6929 105.321 48.5949 104.812 48.5949 104.243ZM53.8309 103.585C53.8309 103.053 53.6909 102.637 53.4109 102.339C53.1309 102.031 52.7156 101.877 52.1649 101.877C51.6983 101.877 51.2829 102.021 50.9189 102.311C50.5549 102.6 50.3263 103.025 50.2329 103.585H53.8309ZM57.7455 105.755C58.1375 106.025 58.5435 106.24 58.9635 106.399C59.3928 106.548 59.8735 106.623 60.4055 106.623C60.9468 106.623 61.3435 106.548 61.5955 106.399C61.8475 106.24 61.9735 106.039 61.9735 105.797C61.9735 105.554 61.8101 105.353 61.4835 105.195C61.1568 105.027 60.6435 104.849 59.9435 104.663C59.6168 104.579 59.2995 104.476 58.9915 104.355C58.6835 104.233 58.4128 104.093 58.1795 103.935C57.9461 103.776 57.7595 103.594 57.6195 103.389C57.4795 103.183 57.4095 102.95 57.4095 102.689C57.4095 102.082 57.6708 101.587 58.1935 101.205C58.7161 100.822 59.4675 100.631 60.4475 100.631C61.0075 100.631 61.5348 100.724 62.0295 100.911C62.5241 101.097 62.9488 101.307 63.3035 101.541L62.5615 102.535C62.2535 102.329 61.9221 102.166 61.5675 102.045C61.2221 101.914 60.8535 101.849 60.4615 101.849C59.9295 101.849 59.5561 101.923 59.3415 102.073C59.1268 102.213 59.0195 102.39 59.0195 102.605C59.0195 102.726 59.0661 102.838 59.1595 102.941C59.2621 103.034 59.3975 103.123 59.5655 103.207C59.7428 103.281 59.9481 103.356 60.1815 103.431C60.4148 103.505 60.6715 103.575 60.9515 103.641C61.3528 103.743 61.7121 103.86 62.0295 103.991C62.3561 104.112 62.6315 104.252 62.8555 104.411C63.0888 104.569 63.2661 104.756 63.3875 104.971C63.5181 105.185 63.5835 105.433 63.5835 105.713C63.5835 106.011 63.5135 106.291 63.3735 106.553C63.2335 106.805 63.0281 107.029 62.7575 107.225C62.4868 107.411 62.1508 107.561 61.7495 107.673C61.3481 107.785 60.8861 107.841 60.3635 107.841C59.7195 107.841 59.1035 107.738 58.5155 107.533C57.9275 107.327 57.4188 107.075 56.9895 106.777L57.7455 105.755Z" fill="#009E73"/>
<path d="M74.0025 100.897H80.2185V102.073H74.0025V100.897ZM74.0025 104.019H80.2185V105.195H74.0025V104.019ZM92.6816 97.7605H96.6856V98.6425H93.9276V108.919H96.6856V109.801H92.6816V97.7605ZM480.02 108.919V98.6425H477.276V97.7605H481.28V109.801H477.276V108.919H480.02ZM25.3153 125.233V127.389H23.6913V117.799H25.0213L25.1473 118.583H25.1893C25.488 118.312 25.8287 118.088 26.2113 117.911C26.6033 117.724 26.9953 117.631 27.3873 117.631C27.8353 117.631 28.232 117.715 28.5773 117.883C28.932 118.041 29.226 118.275 29.4593 118.583C29.702 118.891 29.884 119.259 30.0053 119.689C30.136 120.118 30.2013 120.599 30.2013 121.131C30.2013 121.719 30.1173 122.246 29.9493 122.713C29.7813 123.17 29.5527 123.557 29.2633 123.875C28.9833 124.183 28.6567 124.421 28.2833 124.589C27.9193 124.757 27.5413 124.841 27.1493 124.841C26.832 124.841 26.5053 124.771 26.1693 124.631C25.8427 124.491 25.5393 124.29 25.2593 124.029L25.3153 125.233ZM25.3153 122.881C25.5673 123.114 25.824 123.277 26.0853 123.371C26.356 123.464 26.5987 123.511 26.8133 123.511C27.308 123.511 27.7187 123.315 28.0453 122.923C28.372 122.521 28.5353 121.929 28.5353 121.145C28.5353 120.454 28.4093 119.917 28.1573 119.535C27.9053 119.152 27.4993 118.961 26.9393 118.961C26.678 118.961 26.412 119.026 26.1413 119.157C25.8707 119.287 25.5953 119.497 25.3153 119.787V122.881ZM32.7579 117.799H34.0879L34.2279 119.353H34.2699C34.6245 118.793 35.0492 118.368 35.5439 118.079C36.0479 117.78 36.5985 117.631 37.1959 117.631C37.4759 117.631 37.7139 117.654 37.9099 117.701C38.1152 117.738 38.3205 117.808 38.5259 117.911L38.1899 119.269C37.9659 119.194 37.7652 119.143 37.5879 119.115C37.4199 119.077 37.2052 119.059 36.9439 119.059C36.4679 119.059 36.0105 119.194 35.5719 119.465C35.1332 119.735 34.7365 120.207 34.3819 120.879V124.673H32.7579V117.799ZM40.5084 117.799H45.1004V124.673H43.4904V119.073H40.5084V117.799ZM44.1764 116.595C43.8497 116.595 43.5744 116.497 43.3504 116.301C43.1357 116.105 43.0284 115.843 43.0284 115.517C43.0284 115.19 43.1357 114.929 43.3504 114.733C43.5744 114.527 43.8497 114.425 44.1764 114.425C44.5124 114.425 44.7877 114.527 45.0024 114.733C45.2171 114.929 45.3244 115.19 45.3244 115.517C45.3244 115.843 45.2171 116.105 45.0024 116.301C44.7877 116.497 44.5124 116.595 44.1764 116.595ZM48.8749 117.799H50.2049L50.3309 118.835H50.3869C50.7136 118.508 51.0729 118.228 51.4649 117.995C51.8663 117.752 52.3329 117.631 52.8649 117.631C53.6583 117.631 54.2416 117.873 54.6149 118.359C54.9883 118.835 55.1749 119.521 55.1749 120.417V124.673H53.5509V120.627C53.5509 120.067 53.4529 119.661 53.2569 119.409C53.0703 119.147 52.7389 119.017 52.2629 119.017C51.9269 119.017 51.6283 119.096 51.3669 119.255C51.1056 119.413 50.8163 119.656 50.4989 119.983V124.673H48.8749V117.799ZM58.7815 119.073H56.9475V117.869L58.8515 117.799L59.0615 115.923H60.3915V117.799H63.5275V119.073H60.3915V121.901C60.3915 122.47 60.5081 122.89 60.7415 123.161C60.9748 123.422 61.3855 123.553 61.9735 123.553C62.2721 123.553 62.5428 123.529 62.7855 123.483C63.0281 123.427 63.2615 123.357 63.4855 123.273L63.7935 124.449C63.4855 124.551 63.1448 124.64 62.7715 124.715C62.3981 124.799 62.0015 124.841 61.5815 124.841C61.0588 124.841 60.6201 124.771 60.2655 124.631C59.9108 124.491 59.6215 124.295 59.3975 124.043C59.1828 123.781 59.0241 123.469 58.9215 123.105C58.8281 122.741 58.7815 122.339 58.7815 121.901V119.073ZM70.284 127.151C69.3413 126.367 68.5947 125.443 68.044 124.379C67.5027 123.315 67.232 122.115 67.232 120.781C67.232 119.446 67.5027 118.247 68.044 117.183C68.5947 116.119 69.3413 115.195 70.284 114.411L71.18 115.153C70.2933 115.955 69.6447 116.809 69.234 117.715C68.8233 118.62 68.618 119.642 68.618 120.781C68.618 121.919 68.8233 122.941 69.234 123.847C69.6447 124.752 70.2933 125.606 71.18 126.409L70.284 127.151ZM74.0585 117.799H75.3885L75.5145 118.835H75.5705C75.8972 118.508 76.2565 118.228 76.6485 117.995C77.0499 117.752 77.5165 117.631 78.0485 117.631C78.8419 117.631 79.4252 117.873 79.7985 118.359C80.1719 118.835 80.3585 119.521 80.3585 120.417V124.673H78.7345V120.627C78.7345 120.067 78.6365 119.661 78.4405 119.409C78.2539 119.147 77.9225 119.017 77.4465 119.017C77.1105 119.017 76.8119 119.096 76.5505 119.255C76.2892 119.413 75.9999 119.656 75.6825 119.983V124.673H74.0585V117.799ZM82.2991 122.825C82.2991 122.442 82.3877 122.106 82.5651 121.817C82.7424 121.518 83.0224 121.266 83.4051 121.061C83.7877 120.855 84.2777 120.687 84.8751 120.557C85.4724 120.426 86.1957 120.333 87.0451 120.277C87.0171 119.885 86.8771 119.563 86.6251 119.311C86.3731 119.059 85.9671 118.933 85.4071 118.933C85.0151 118.933 84.6277 119.007 84.2451 119.157C83.8717 119.297 83.5077 119.465 83.1531 119.661L82.5651 118.583C82.9851 118.34 83.4657 118.121 84.0071 117.925C84.5484 117.729 85.1131 117.631 85.7011 117.631C86.6624 117.631 87.3951 117.887 87.8991 118.401C88.4031 118.905 88.6551 119.637 88.6551 120.599V124.673H87.3391L87.2131 123.819H87.1711C86.8071 124.099 86.4011 124.341 85.9531 124.547C85.5144 124.743 85.0617 124.841 84.5951 124.841C84.2591 124.841 83.9511 124.789 83.6711 124.687C83.3911 124.593 83.1484 124.458 82.9431 124.281C82.7377 124.103 82.5791 123.893 82.4671 123.651C82.3551 123.399 82.2991 123.123 82.2991 122.825ZM83.8531 122.699C83.8531 123.007 83.9697 123.231 84.2031 123.371C84.4457 123.511 84.7397 123.581 85.0851 123.581C85.4304 123.581 85.7617 123.506 86.0791 123.357C86.4057 123.198 86.7277 122.993 87.0451 122.741V121.285C86.4291 121.331 85.9157 121.397 85.5051 121.481C85.0944 121.555 84.7677 121.653 84.5251 121.775C84.2824 121.896 84.1097 122.036 84.0071 122.195C83.9044 122.344 83.8531 122.512 83.8531 122.699ZM90.3716 117.799H91.5896L91.7156 118.681H91.7576C91.9163 118.382 92.1076 118.135 92.3316 117.939C92.5649 117.733 92.8776 117.631 93.2696 117.631C93.9416 117.631 94.3616 118.013 94.5296 118.779C94.6883 118.452 94.8889 118.181 95.1316 117.967C95.3836 117.743 95.7009 117.631 96.0836 117.631C96.5689 117.631 96.9423 117.822 97.2036 118.205C97.4743 118.578 97.6096 119.11 97.6096 119.801V124.673H96.0836V119.927C96.0836 119.32 95.8923 119.017 95.5096 119.017C95.3229 119.017 95.1596 119.087 95.0196 119.227C94.8796 119.367 94.7443 119.581 94.6136 119.871V124.673H93.3536V119.927C93.3536 119.32 93.1576 119.017 92.7656 119.017C92.5789 119.017 92.4203 119.087 92.2896 119.227C92.1589 119.367 92.0283 119.581 91.8976 119.871V124.673H90.3716V117.799ZM98.9621 121.243C98.9621 120.683 99.0601 120.179 99.2561 119.731C99.4614 119.283 99.7274 118.905 100.054 118.597C100.381 118.279 100.754 118.041 101.174 117.883C101.603 117.715 102.042 117.631 102.49 117.631C103.003 117.631 103.456 117.715 103.848 117.883C104.249 118.041 104.585 118.265 104.856 118.555C105.127 118.835 105.332 119.175 105.472 119.577C105.612 119.978 105.682 120.417 105.682 120.893C105.682 121.051 105.673 121.201 105.654 121.341C105.645 121.481 105.631 121.593 105.612 121.677H100.614C100.67 122.293 100.913 122.769 101.342 123.105C101.771 123.431 102.299 123.595 102.924 123.595C103.279 123.595 103.61 123.548 103.918 123.455C104.226 123.352 104.539 123.212 104.856 123.035L105.402 124.043C105.029 124.276 104.613 124.467 104.156 124.617C103.699 124.766 103.218 124.841 102.714 124.841C102.191 124.841 101.701 124.761 101.244 124.603C100.787 124.435 100.39 124.197 100.054 123.889C99.7181 123.581 99.4521 123.207 99.2561 122.769C99.0601 122.321 98.9621 121.812 98.9621 121.243ZM104.198 120.585C104.198 120.053 104.058 119.637 103.778 119.339C103.498 119.031 103.083 118.877 102.532 118.877C102.065 118.877 101.65 119.021 101.286 119.311C100.922 119.6 100.693 120.025 100.6 120.585H104.198ZM108.113 122.755C108.505 123.025 108.911 123.24 109.331 123.399C109.76 123.548 110.241 123.623 110.773 123.623C111.314 123.623 111.711 123.548 111.963 123.399C112.215 123.24 112.341 123.039 112.341 122.797C112.341 122.554 112.177 122.353 111.851 122.195C111.524 122.027 111.011 121.849 110.311 121.663C109.984 121.579 109.667 121.476 109.359 121.355C109.051 121.233 108.78 121.093 108.547 120.935C108.313 120.776 108.127 120.594 107.987 120.389C107.847 120.183 107.777 119.95 107.777 119.689C107.777 119.082 108.038 118.587 108.561 118.205C109.083 117.822 109.835 117.631 110.815 117.631C111.375 117.631 111.902 117.724 112.397 117.911C112.891 118.097 113.316 118.307 113.671 118.541L112.929 119.535C112.621 119.329 112.289 119.166 111.935 119.045C111.589 118.914 111.221 118.849 110.829 118.849C110.297 118.849 109.923 118.923 109.709 119.073C109.494 119.213 109.387 119.39 109.387 119.605C109.387 119.726 109.433 119.838 109.527 119.941C109.629 120.034 109.765 120.123 109.933 120.207C110.11 120.281 110.315 120.356 110.549 120.431C110.782 120.505 111.039 120.575 111.319 120.641C111.72 120.743 112.079 120.86 112.397 120.991C112.723 121.112 112.999 121.252 113.223 121.411C113.456 121.569 113.633 121.756 113.755 121.971C113.885 122.185 113.951 122.433 113.951 122.713C113.951 123.011 113.881 123.291 113.741 123.553C113.601 123.805 113.395 124.029 113.125 124.225C112.854 124.411 112.518 124.561 112.117 124.673C111.715 124.785 111.253 124.841 110.731 124.841C110.087 124.841 109.471 124.738 108.883 124.533C108.295 124.327 107.786 124.075 107.357 123.777L108.113 122.755ZM116.619 126.409C117.506 125.606 118.155 124.752 118.565 123.847C118.976 122.941 119.181 121.919 119.181 120.781C119.181 119.642 118.976 118.62 118.565 117.715C118.155 116.809 117.506 115.955 116.619 115.153L117.515 114.411C118.458 115.195 119.2 116.119 119.741 117.183C120.292 118.247 120.567 119.446 120.567 120.781C120.567 122.115 120.292 123.315 119.741 124.379C119.2 125.443 118.458 126.367 117.515 127.151L116.619 126.409Z" fill="#2E383C"/>
<path d="M99.9141 100.799H101.244L101.384 102.353H101.426C101.781 101.793 102.205 101.368 102.7 101.079C103.204 100.78 103.755 100.631 104.352 100.631C104.632 100.631 104.87 100.654 105.066 100.701C105.271 100.738 105.477 100.808 105.682 100.911L105.346 102.269C105.122 102.194 104.921 102.143 104.744 102.115C104.576 102.077 104.361 102.059 104.1 102.059C103.624 102.059 103.167 102.194 102.728 102.465C102.289 102.735 101.893 103.207 101.538 103.879V107.673H99.9141V100.799ZM107.231 104.243C107.231 103.673 107.324 103.165 107.511 102.717C107.707 102.269 107.963 101.891 108.281 101.583C108.598 101.275 108.967 101.041 109.387 100.883C109.807 100.715 110.241 100.631 110.689 100.631C111.137 100.631 111.571 100.715 111.991 100.883C112.411 101.041 112.779 101.275 113.097 101.583C113.414 101.891 113.666 102.269 113.853 102.717C114.049 103.165 114.147 103.673 114.147 104.243C114.147 104.812 114.049 105.321 113.853 105.769C113.666 106.217 113.414 106.595 113.097 106.903C112.779 107.211 112.411 107.444 111.991 107.603C111.571 107.761 111.137 107.841 110.689 107.841C110.241 107.841 109.807 107.761 109.387 107.603C108.967 107.444 108.598 107.211 108.281 106.903C107.963 106.595 107.707 106.217 107.511 105.769C107.324 105.321 107.231 104.812 107.231 104.243ZM108.897 104.243C108.897 104.933 109.055 105.489 109.373 105.909C109.69 106.319 110.129 106.525 110.689 106.525C111.249 106.525 111.687 106.319 112.005 105.909C112.322 105.489 112.481 104.933 112.481 104.243C112.481 103.543 112.322 102.987 112.005 102.577C111.687 102.157 111.249 101.947 110.689 101.947C110.129 101.947 109.69 102.157 109.373 102.577C109.055 102.987 108.897 103.543 108.897 104.243ZM114.967 100.799H116.563L117.193 104.369C117.249 104.695 117.296 105.022 117.333 105.349C117.38 105.675 117.427 106.007 117.473 106.343H117.529C117.576 106.007 117.627 105.675 117.683 105.349C117.739 105.022 117.805 104.695 117.879 104.369L118.523 101.471H119.727L120.371 104.369C120.446 104.695 120.511 105.022 120.567 105.349C120.633 105.675 120.693 106.007 120.749 106.343H120.805C120.861 106.007 120.908 105.675 120.945 105.349C120.992 105.022 121.039 104.695 121.085 104.369L121.715 100.799H123.199L121.925 107.673H120.035L119.433 104.803C119.377 104.476 119.321 104.149 119.265 103.823C119.219 103.496 119.167 103.155 119.111 102.801H119.055C119.009 103.071 118.962 103.365 118.915 103.683C118.878 103.991 118.822 104.369 118.747 104.817L118.159 107.673H116.297L114.967 100.799ZM126.26 97.7605H130.264V98.6425H127.506V108.919H130.264V109.801H126.26V97.7605ZM135.872 107.841C134.855 107.841 134.048 107.439 133.45 106.637C132.862 105.834 132.568 104.681 132.568 103.179C132.568 101.667 132.862 100.528 133.45 99.7625C134.048 98.9879 134.855 98.6005 135.872 98.6005C136.89 98.6005 137.692 98.9879 138.28 99.7625C138.878 100.528 139.176 101.667 139.176 103.179C139.176 104.681 138.878 105.834 138.28 106.637C137.692 107.439 136.89 107.841 135.872 107.841ZM135.872 99.8605C135.602 99.8605 135.354 99.9212 135.13 100.043C134.906 100.155 134.71 100.341 134.542 100.603C134.384 100.864 134.258 101.209 134.164 101.639C134.071 102.059 134.024 102.572 134.024 103.179C134.024 103.785 134.071 104.308 134.164 104.747C134.258 105.176 134.384 105.526 134.542 105.797C134.71 106.067 134.906 106.268 135.13 106.399C135.354 106.52 135.602 106.581 135.872 106.581C136.134 106.581 136.376 106.52 136.6 106.399C136.834 106.268 137.03 106.067 137.188 105.797C137.356 105.526 137.487 105.176 137.58 104.747C137.674 104.308 137.72 103.785 137.72 103.179C137.72 102.572 137.674 102.059 137.58 101.639C137.487 101.209 137.356 100.864 137.188 100.603C137.03 100.341 136.834 100.155 136.6 100.043C136.376 99.9212 136.134 99.8605 135.872 99.8605ZM135.872 104.117C135.602 104.117 135.373 104.028 135.186 103.851C135 103.673 134.906 103.431 134.906 103.123C134.906 102.815 135 102.572 135.186 102.395C135.373 102.217 135.602 102.129 135.872 102.129C136.143 102.129 136.372 102.217 136.558 102.395C136.745 102.572 136.838 102.815 136.838 103.123C136.838 103.431 136.745 103.673 136.558 103.851C136.372 104.028 136.143 104.117 135.872 104.117ZM144.239 108.919V98.6425H141.495V97.7605H145.499V109.801H141.495V108.919H144.239Z" fill="#EB5757"/>
<path d="M164.668 99.1885C164.416 99.0859 164.169 99.0112 163.926 98.9645C163.693 98.9179 163.436 98.8945 163.156 98.8945C162.624 98.8945 162.237 99.0252 161.994 99.2865C161.761 99.5385 161.644 99.9072 161.644 100.393V100.799H164.262V102.073H161.644V107.673H160.048V102.073H158.144V100.869L160.048 100.799V100.421C160.048 100.019 160.104 99.6459 160.216 99.3005C160.328 98.9552 160.501 98.6612 160.734 98.4185C160.977 98.1665 161.28 97.9705 161.644 97.8305C162.017 97.6905 162.456 97.6205 162.96 97.6205C163.333 97.6205 163.688 97.6532 164.024 97.7185C164.369 97.7839 164.696 97.8772 165.004 97.9985L164.668 99.1885ZM165.992 104.243C165.992 103.673 166.086 103.165 166.272 102.717C166.468 102.269 166.725 101.891 167.042 101.583C167.36 101.275 167.728 101.041 168.148 100.883C168.568 100.715 169.002 100.631 169.45 100.631C169.898 100.631 170.332 100.715 170.752 100.883C171.172 101.041 171.541 101.275 171.858 101.583C172.176 101.891 172.428 102.269 172.614 102.717C172.81 103.165 172.908 103.673 172.908 104.243C172.908 104.812 172.81 105.321 172.614 105.769C172.428 106.217 172.176 106.595 171.858 106.903C171.541 107.211 171.172 107.444 170.752 107.603C170.332 107.761 169.898 107.841 169.45 107.841C169.002 107.841 168.568 107.761 168.148 107.603C167.728 107.444 167.36 107.211 167.042 106.903C166.725 106.595 166.468 106.217 166.272 105.769C166.086 105.321 165.992 104.812 165.992 104.243ZM167.658 104.243C167.658 104.933 167.817 105.489 168.134 105.909C168.452 106.319 168.89 106.525 169.45 106.525C170.01 106.525 170.449 106.319 170.766 105.909C171.084 105.489 171.242 104.933 171.242 104.243C171.242 103.543 171.084 102.987 170.766 102.577C170.449 102.157 170.01 101.947 169.45 101.947C168.89 101.947 168.452 102.157 168.134 102.577C167.817 102.987 167.658 103.543 167.658 104.243ZM175.465 100.799H176.795L176.935 102.353H176.977C177.332 101.793 177.756 101.368 178.251 101.079C178.755 100.78 179.306 100.631 179.903 100.631C180.183 100.631 180.421 100.654 180.617 100.701C180.822 100.738 181.028 100.808 181.233 100.911L180.897 102.269C180.673 102.194 180.472 102.143 180.295 102.115C180.127 102.077 179.912 102.059 179.651 102.059C179.175 102.059 178.718 102.194 178.279 102.465C177.84 102.735 177.444 103.207 177.089 103.879V107.673H175.465V100.799ZM192.254 100.799H193.584L193.724 102.353H193.766C194.121 101.793 194.545 101.368 195.04 101.079C195.544 100.78 196.095 100.631 196.692 100.631C196.972 100.631 197.21 100.654 197.406 100.701C197.611 100.738 197.817 100.808 198.022 100.911L197.686 102.269C197.462 102.194 197.261 102.143 197.084 102.115C196.916 102.077 196.701 102.059 196.44 102.059C195.964 102.059 195.507 102.194 195.068 102.465C194.629 102.735 194.233 103.207 193.878 103.879V107.673H192.254V100.799ZM199.57 104.243C199.57 103.673 199.664 103.165 199.85 102.717C200.046 102.269 200.303 101.891 200.62 101.583C200.938 101.275 201.306 101.041 201.726 100.883C202.146 100.715 202.58 100.631 203.028 100.631C203.476 100.631 203.91 100.715 204.33 100.883C204.75 101.041 205.119 101.275 205.436 101.583C205.754 101.891 206.006 102.269 206.192 102.717C206.388 103.165 206.486 103.673 206.486 104.243C206.486 104.812 206.388 105.321 206.192 105.769C206.006 106.217 205.754 106.595 205.436 106.903C205.119 107.211 204.75 107.444 204.33 107.603C203.91 107.761 203.476 107.841 203.028 107.841C202.58 107.841 202.146 107.761 201.726 107.603C201.306 107.444 200.938 107.211 200.62 106.903C200.303 106.595 200.046 106.217 199.85 105.769C199.664 105.321 199.57 104.812 199.57 104.243ZM201.236 104.243C201.236 104.933 201.395 105.489 201.712 105.909C202.03 106.319 202.468 106.525 203.028 106.525C203.588 106.525 204.027 106.319 204.344 105.909C204.662 105.489 204.82 104.933 204.82 104.243C204.82 103.543 204.662 102.987 204.344 102.577C204.027 102.157 203.588 101.947 203.028 101.947C202.468 101.947 202.03 102.157 201.712 102.577C201.395 102.987 201.236 103.543 201.236 104.243ZM207.307 100.799H208.903L209.533 104.369C209.589 104.695 209.636 105.022 209.673 105.349C209.72 105.675 209.766 106.007 209.813 106.343H209.869C209.916 106.007 209.967 105.675 210.023 105.349C210.079 105.022 210.144 104.695 210.219 104.369L210.863 101.471H212.067L212.711 104.369C212.786 104.695 212.851 105.022 212.907 105.349C212.972 105.675 213.033 106.007 213.089 106.343H213.145C213.201 106.007 213.248 105.675 213.285 105.349C213.332 105.022 213.378 104.695 213.425 104.369L214.055 100.799H215.539L214.265 107.673H212.375L211.773 104.803C211.717 104.476 211.661 104.149 211.605 103.823C211.558 103.496 211.507 103.155 211.451 102.801H211.395C211.348 103.071 211.302 103.365 211.255 103.683C211.218 103.991 211.162 104.369 211.087 104.817L210.499 107.673H208.637L207.307 100.799ZM225.188 100.799H229.78V107.673H228.17V102.073H225.188V100.799ZM228.856 99.5945C228.529 99.5945 228.254 99.4965 228.03 99.3005C227.815 99.1045 227.708 98.8432 227.708 98.5165C227.708 98.1899 227.815 97.9285 228.03 97.7325C228.254 97.5272 228.529 97.4245 228.856 97.4245C229.192 97.4245 229.467 97.5272 229.682 97.7325C229.897 97.9285 230.004 98.1899 230.004 98.5165C230.004 98.8432 229.897 99.1045 229.682 99.3005C229.467 99.4965 229.192 99.5945 228.856 99.5945ZM233.555 100.799H234.885L235.011 101.835H235.067C235.393 101.508 235.753 101.228 236.145 100.995C236.546 100.752 237.013 100.631 237.545 100.631C238.338 100.631 238.921 100.873 239.295 101.359C239.668 101.835 239.855 102.521 239.855 103.417V107.673H238.231V103.627C238.231 103.067 238.133 102.661 237.937 102.409C237.75 102.147 237.419 102.017 236.943 102.017C236.607 102.017 236.308 102.096 236.047 102.255C235.785 102.413 235.496 102.656 235.179 102.983V107.673H233.555V100.799ZM249.868 100.799H251.086L251.212 101.681H251.254C251.412 101.382 251.604 101.135 251.828 100.939C252.061 100.733 252.374 100.631 252.766 100.631C253.438 100.631 253.858 101.013 254.026 101.779C254.184 101.452 254.385 101.181 254.628 100.967C254.88 100.743 255.197 100.631 255.58 100.631C256.065 100.631 256.438 100.822 256.7 101.205C256.97 101.578 257.106 102.11 257.106 102.801V107.673H255.58V102.927C255.58 102.32 255.388 102.017 255.006 102.017C254.819 102.017 254.656 102.087 254.516 102.227C254.376 102.367 254.24 102.581 254.11 102.871V107.673H252.85V102.927C252.85 102.32 252.654 102.017 252.262 102.017C252.075 102.017 251.916 102.087 251.786 102.227C251.655 102.367 251.524 102.581 251.394 102.871V107.673H249.868V100.799ZM258.836 109.101C258.93 109.129 259.023 109.152 259.116 109.171C259.21 109.189 259.308 109.199 259.41 109.199C259.849 109.199 260.199 109.087 260.46 108.863C260.722 108.648 260.922 108.368 261.062 108.023L261.23 107.589L258.15 100.799H259.76L261.174 104.173C261.305 104.481 261.431 104.807 261.552 105.153C261.674 105.498 261.8 105.843 261.93 106.189H261.986C262.089 105.862 262.201 105.526 262.322 105.181C262.444 104.835 262.56 104.499 262.672 104.173L263.918 100.799H265.444L262.574 107.981C262.425 108.373 262.257 108.723 262.07 109.031C261.893 109.339 261.683 109.6 261.44 109.815C261.198 110.039 260.918 110.207 260.6 110.319C260.283 110.44 259.919 110.501 259.508 110.501C259.322 110.501 259.144 110.487 258.976 110.459C258.808 110.44 258.659 110.407 258.528 110.361L258.836 109.101ZM273.545 108.541V109.801H266.825V108.541H273.545ZM275.121 104.243C275.121 103.683 275.205 103.179 275.373 102.731C275.541 102.283 275.765 101.905 276.045 101.597C276.335 101.289 276.661 101.051 277.025 100.883C277.389 100.715 277.767 100.631 278.159 100.631C278.57 100.631 278.92 100.705 279.209 100.855C279.508 100.995 279.797 101.191 280.077 101.443L280.007 100.281V97.7885H281.631V107.673H280.301L280.175 106.875H280.133C279.863 107.145 279.545 107.374 279.181 107.561C278.827 107.747 278.453 107.841 278.061 107.841C277.623 107.841 277.221 107.761 276.857 107.603C276.493 107.435 276.181 107.197 275.919 106.889C275.667 106.581 275.471 106.207 275.331 105.769C275.191 105.321 275.121 104.812 275.121 104.243ZM276.787 104.229C276.787 104.975 276.932 105.545 277.221 105.937C277.511 106.319 277.921 106.511 278.453 106.511C279.023 106.511 279.541 106.235 280.007 105.685V102.591C279.765 102.357 279.522 102.194 279.279 102.101C279.037 102.007 278.789 101.961 278.537 101.961C278.295 101.961 278.066 102.012 277.851 102.115C277.646 102.217 277.464 102.367 277.305 102.563C277.147 102.749 277.021 102.983 276.927 103.263C276.834 103.543 276.787 103.865 276.787 104.229ZM283.768 105.825C283.768 105.442 283.856 105.106 284.034 104.817C284.211 104.518 284.491 104.266 284.874 104.061C285.256 103.855 285.746 103.687 286.344 103.557C286.941 103.426 287.664 103.333 288.514 103.277C288.486 102.885 288.346 102.563 288.094 102.311C287.842 102.059 287.436 101.933 286.876 101.933C286.484 101.933 286.096 102.007 285.714 102.157C285.34 102.297 284.976 102.465 284.622 102.661L284.034 101.583C284.454 101.34 284.934 101.121 285.476 100.925C286.017 100.729 286.582 100.631 287.17 100.631C288.131 100.631 288.864 100.887 289.368 101.401C289.872 101.905 290.124 102.637 290.124 103.599V107.673H288.808L288.682 106.819H288.64C288.276 107.099 287.87 107.341 287.422 107.547C286.983 107.743 286.53 107.841 286.064 107.841C285.728 107.841 285.42 107.789 285.14 107.687C284.86 107.593 284.617 107.458 284.412 107.281C284.206 107.103 284.048 106.893 283.936 106.651C283.824 106.399 283.768 106.123 283.768 105.825ZM285.322 105.699C285.322 106.007 285.438 106.231 285.672 106.371C285.914 106.511 286.208 106.581 286.554 106.581C286.899 106.581 287.23 106.506 287.548 106.357C287.874 106.198 288.196 105.993 288.514 105.741V104.285C287.898 104.331 287.384 104.397 286.974 104.481C286.563 104.555 286.236 104.653 285.994 104.775C285.751 104.896 285.578 105.036 285.476 105.195C285.373 105.344 285.322 105.512 285.322 105.699ZM293.828 102.073H291.994V100.869L293.898 100.799L294.108 98.9225H295.438V100.799H298.574V102.073H295.438V104.901C295.438 105.47 295.555 105.89 295.788 106.161C296.022 106.422 296.432 106.553 297.02 106.553C297.319 106.553 297.59 106.529 297.832 106.483C298.075 106.427 298.308 106.357 298.532 106.273L298.84 107.449C298.532 107.551 298.192 107.64 297.818 107.715C297.445 107.799 297.048 107.841 296.628 107.841C296.106 107.841 295.667 107.771 295.312 107.631C294.958 107.491 294.668 107.295 294.444 107.043C294.23 106.781 294.071 106.469 293.968 106.105C293.875 105.741 293.828 105.339 293.828 104.901V102.073ZM300.557 105.825C300.557 105.442 300.646 105.106 300.823 104.817C301 104.518 301.28 104.266 301.663 104.061C302.046 103.855 302.536 103.687 303.133 103.557C303.73 103.426 304.454 103.333 305.303 103.277C305.275 102.885 305.135 102.563 304.883 102.311C304.631 102.059 304.225 101.933 303.665 101.933C303.273 101.933 302.886 102.007 302.503 102.157C302.13 102.297 301.766 102.465 301.411 102.661L300.823 101.583C301.243 101.34 301.724 101.121 302.265 100.925C302.806 100.729 303.371 100.631 303.959 100.631C304.92 100.631 305.653 100.887 306.157 101.401C306.661 101.905 306.913 102.637 306.913 103.599V107.673H305.597L305.471 106.819H305.429C305.065 107.099 304.659 107.341 304.211 107.547C303.772 107.743 303.32 107.841 302.853 107.841C302.517 107.841 302.209 107.789 301.929 107.687C301.649 107.593 301.406 107.458 301.201 107.281C300.996 107.103 300.837 106.893 300.725 106.651C300.613 106.399 300.557 106.123 300.557 105.825ZM302.111 105.699C302.111 106.007 302.228 106.231 302.461 106.371C302.704 106.511 302.998 106.581 303.343 106.581C303.688 106.581 304.02 106.506 304.337 106.357C304.664 106.198 304.986 105.993 305.303 105.741V104.285C304.687 104.331 304.174 104.397 303.763 104.481C303.352 104.555 303.026 104.653 302.783 104.775C302.54 104.896 302.368 105.036 302.265 105.195C302.162 105.344 302.111 105.512 302.111 105.699Z" fill="#9B51E0"/>
<path d="M317.528 100.799H322.12V107.673H320.51V102.073H317.528V100.799ZM321.196 99.5945C320.869 99.5945 320.594 99.4965 320.37 99.3005C320.155 99.1045 320.048 98.8432 320.048 98.5165C320.048 98.1899 320.155 97.9285 320.37 97.7325C320.594 97.5272 320.869 97.4245 321.196 97.4245C321.532 97.4245 321.807 97.5272 322.022 97.7325C322.237 97.9285 322.344 98.1899 322.344 98.5165C322.344 98.8432 322.237 99.1045 322.022 99.3005C321.807 99.4965 321.532 99.5945 321.196 99.5945ZM332.558 99.1885C332.306 99.0859 332.059 99.0112 331.816 98.9645C331.583 98.9179 331.326 98.8945 331.046 98.8945C330.514 98.8945 330.127 99.0252 329.884 99.2865C329.651 99.5385 329.534 99.9072 329.534 100.393V100.799H332.152V102.073H329.534V107.673H327.938V102.073H326.034V100.869L327.938 100.799V100.421C327.938 100.019 327.994 99.6459 328.106 99.3005C328.218 98.9552 328.391 98.6612 328.624 98.4185C328.867 98.1665 329.17 97.9705 329.534 97.8305C329.908 97.6905 330.346 97.6205 330.85 97.6205C331.224 97.6205 331.578 97.6532 331.914 97.7185C332.26 97.7839 332.586 97.8772 332.894 97.9985L332.558 99.1885ZM343.356 100.799H344.686L344.826 102.353H344.868C345.222 101.793 345.647 101.368 346.142 101.079C346.646 100.78 347.196 100.631 347.794 100.631C348.074 100.631 348.312 100.654 348.508 100.701C348.713 100.738 348.918 100.808 349.124 100.911L348.788 102.269C348.564 102.194 348.363 102.143 348.186 102.115C348.018 102.077 347.803 102.059 347.542 102.059C347.066 102.059 346.608 102.194 346.17 102.465C345.731 102.735 345.334 103.207 344.98 103.879V107.673H343.356V100.799ZM350.672 104.243C350.672 103.673 350.765 103.165 350.952 102.717C351.148 102.269 351.405 101.891 351.722 101.583C352.039 101.275 352.408 101.041 352.828 100.883C353.248 100.715 353.682 100.631 354.13 100.631C354.578 100.631 355.012 100.715 355.432 100.883C355.852 101.041 356.221 101.275 356.538 101.583C356.855 101.891 357.107 102.269 357.294 102.717C357.49 103.165 357.588 103.673 357.588 104.243C357.588 104.812 357.49 105.321 357.294 105.769C357.107 106.217 356.855 106.595 356.538 106.903C356.221 107.211 355.852 107.444 355.432 107.603C355.012 107.761 354.578 107.841 354.13 107.841C353.682 107.841 353.248 107.761 352.828 107.603C352.408 107.444 352.039 107.211 351.722 106.903C351.405 106.595 351.148 106.217 350.952 105.769C350.765 105.321 350.672 104.812 350.672 104.243ZM352.338 104.243C352.338 104.933 352.497 105.489 352.814 105.909C353.131 106.319 353.57 106.525 354.13 106.525C354.69 106.525 355.129 106.319 355.446 105.909C355.763 105.489 355.922 104.933 355.922 104.243C355.922 103.543 355.763 102.987 355.446 102.577C355.129 102.157 354.69 101.947 354.13 101.947C353.57 101.947 353.131 102.157 352.814 102.577C352.497 102.987 352.338 103.543 352.338 104.243ZM358.409 100.799H360.005L360.635 104.369C360.691 104.695 360.737 105.022 360.775 105.349C360.821 105.675 360.868 106.007 360.915 106.343H360.971C361.017 106.007 361.069 105.675 361.125 105.349C361.181 105.022 361.246 104.695 361.321 104.369L361.965 101.471H363.169L363.813 104.369C363.887 104.695 363.953 105.022 364.009 105.349C364.074 105.675 364.135 106.007 364.191 106.343H364.247C364.303 106.007 364.349 105.675 364.387 105.349C364.433 105.022 364.48 104.695 364.527 104.369L365.157 100.799H366.641L365.367 107.673H363.477L362.875 104.803C362.819 104.476 362.763 104.149 362.707 103.823C362.66 103.496 362.609 103.155 362.553 102.801H362.497C362.45 103.071 362.403 103.365 362.357 103.683C362.319 103.991 362.263 104.369 362.189 104.817L361.601 107.673H359.739L358.409 100.799ZM369.701 97.7605H373.705V98.6425H370.947V108.919H373.705V109.801H369.701V97.7605ZM382.576 106.357V107.673H376.374V106.357H378.782V100.505H376.92V99.4965C377.424 99.4125 377.853 99.3145 378.208 99.2025C378.572 99.0812 378.908 98.9365 379.216 98.7685H380.392V106.357H382.576ZM387.68 108.919V98.6425H384.936V97.7605H388.94V109.801H384.936V108.919H387.68ZM401.389 100.897H407.605V102.073H401.389V100.897ZM401.389 104.019H407.605V105.195H401.389V104.019ZM409.784 100.897H416V102.073H409.784V100.897ZM409.784 104.019H416V105.195H409.784V104.019ZM427.021 99.8605L426.979 98.0685H428.939L428.897 99.8605L428.477 103.095H427.441L427.021 99.8605ZM430.479 99.8605L430.437 98.0685H432.397L432.355 99.8605L431.935 103.095H430.899L430.479 99.8605ZM435.177 98.5165H437.879C438.346 98.5165 438.775 98.5585 439.167 98.6425C439.569 98.7172 439.914 98.8432 440.203 99.0205C440.493 99.1885 440.717 99.4172 440.875 99.7065C441.043 99.9959 441.127 100.351 441.127 100.771C441.127 101.209 440.997 101.615 440.735 101.989C440.474 102.362 440.073 102.619 439.531 102.759V102.815C440.203 102.927 440.712 103.165 441.057 103.529C441.412 103.883 441.589 104.369 441.589 104.985C441.589 105.442 441.501 105.839 441.323 106.175C441.155 106.511 440.913 106.791 440.595 107.015C440.287 107.239 439.919 107.407 439.489 107.519C439.069 107.621 438.607 107.673 438.103 107.673H435.177V98.5165ZM437.725 102.311C438.369 102.311 438.831 102.194 439.111 101.961C439.391 101.727 439.531 101.396 439.531 100.967C439.531 100.547 439.382 100.243 439.083 100.057C438.794 99.8699 438.355 99.7765 437.767 99.7765H436.801V102.311H437.725ZM437.935 106.413C438.607 106.413 439.121 106.287 439.475 106.035C439.83 105.783 440.007 105.395 440.007 104.873C440.007 103.939 439.317 103.473 437.935 103.473H436.801V106.413H437.935ZM443.264 97.7885H447.044V105.251C447.044 105.717 447.161 106.049 447.394 106.245C447.627 106.431 447.921 106.525 448.276 106.525C448.612 106.525 449.004 106.436 449.452 106.259L449.83 107.449C449.503 107.561 449.195 107.654 448.906 107.729C448.626 107.803 448.285 107.841 447.884 107.841C447.072 107.841 446.461 107.607 446.05 107.141C445.639 106.674 445.434 106.016 445.434 105.167V99.0625H443.264V97.7885ZM457.874 107.673H456.558L456.432 106.581H456.376C456.05 106.963 455.69 107.271 455.298 107.505C454.906 107.729 454.454 107.841 453.94 107.841C453.138 107.841 452.554 107.603 452.19 107.127C451.826 106.641 451.644 105.951 451.644 105.055V100.799H453.254V104.845C453.254 105.405 453.348 105.815 453.534 106.077C453.73 106.329 454.066 106.455 454.542 106.455C454.869 106.455 455.158 106.38 455.41 106.231C455.672 106.081 455.956 105.815 456.264 105.433V100.799H457.874V107.673ZM459.927 104.243C459.927 103.683 460.025 103.179 460.221 102.731C460.426 102.283 460.692 101.905 461.019 101.597C461.346 101.279 461.719 101.041 462.139 100.883C462.568 100.715 463.007 100.631 463.455 100.631C463.968 100.631 464.421 100.715 464.813 100.883C465.214 101.041 465.55 101.265 465.821 101.555C466.092 101.835 466.297 102.175 466.437 102.577C466.577 102.978 466.647 103.417 466.647 103.893C466.647 104.051 466.638 104.201 466.619 104.341C466.61 104.481 466.596 104.593 466.577 104.677H461.579C461.635 105.293 461.878 105.769 462.307 106.105C462.736 106.431 463.264 106.595 463.889 106.595C464.244 106.595 464.575 106.548 464.883 106.455C465.191 106.352 465.504 106.212 465.821 106.035L466.367 107.043C465.994 107.276 465.578 107.467 465.121 107.617C464.664 107.766 464.183 107.841 463.679 107.841C463.156 107.841 462.666 107.761 462.209 107.603C461.752 107.435 461.355 107.197 461.019 106.889C460.683 106.581 460.417 106.207 460.221 105.769C460.025 105.321 459.927 104.812 459.927 104.243ZM465.163 103.585C465.163 103.053 465.023 102.637 464.743 102.339C464.463 102.031 464.048 101.877 463.497 101.877C463.03 101.877 462.615 102.021 462.251 102.311C461.887 102.6 461.658 103.025 461.565 103.585H465.163ZM468.993 99.8605L468.951 98.0685H470.911L470.869 99.8605L470.449 103.095H469.413L468.993 99.8605ZM472.451 99.8605L472.409 98.0685H474.369L474.327 99.8605L473.907 103.095H472.871L472.451 99.8605Z" fill="#E69F00"/>
<path d="M14 4H490.476V78H14V4Z" fill="#F1F4F8"/>
<path d="M23.6819 13.0729H25.0119L25.1379 14.1089H25.1939C25.5206 13.7822 25.8799 13.5022 26.2719 13.2689C26.6733 13.0262 27.1399 12.9049 27.6719 12.9049C28.4653 12.9049 29.0486 13.1476 29.4219 13.6329C29.7953 14.1089 29.9819 14.7949 29.9819 15.6909V19.9469H28.3579V15.9009C28.3579 15.3409 28.2599 14.9349 28.0639 14.6829C27.8773 14.4216 27.5459 14.2909 27.0699 14.2909C26.7339 14.2909 26.4353 14.3702 26.1739 14.5289C25.9126 14.6876 25.6233 14.9302 25.3059 15.2569V19.9469H23.6819V13.0729ZM31.9225 18.0989C31.9225 17.7162 32.0111 17.3802 32.1885 17.0909C32.3658 16.7922 32.6458 16.5402 33.0285 16.3349C33.4111 16.1296 33.9011 15.9616 34.4985 15.8309C35.0958 15.7002 35.8191 15.6069 36.6685 15.5509C36.6405 15.1589 36.5005 14.8369 36.2485 14.5849C35.9965 14.3329 35.5905 14.2069 35.0305 14.2069C34.6385 14.2069 34.2511 14.2816 33.8685 14.4309C33.4951 14.5709 33.1311 14.7389 32.7765 14.9349L32.1885 13.8569C32.6085 13.6142 33.0891 13.3949 33.6305 13.1989C34.1718 13.0029 34.7365 12.9049 35.3245 12.9049C36.2858 12.9049 37.0185 13.1616 37.5225 13.6749C38.0265 14.1789 38.2785 14.9116 38.2785 15.8729V19.9469H36.9625L36.8365 19.0929H36.7945C36.4305 19.3729 36.0245 19.6156 35.5765 19.8209C35.1378 20.0169 34.6851 20.1149 34.2185 20.1149C33.8825 20.1149 33.5745 20.0636 33.2945 19.9609C33.0145 19.8676 32.7718 19.7322 32.5665 19.5549C32.3611 19.3776 32.2025 19.1676 32.0905 18.9249C31.9785 18.6729 31.9225 18.3976 31.9225 18.0989ZM33.4765 17.9729C33.4765 18.2809 33.5931 18.5049 33.8265 18.6449C34.0691 18.7849 34.3631 18.8549 34.7085 18.8549C35.0538 18.8549 35.3851 18.7802 35.7025 18.6309C36.0291 18.4722 36.3511 18.2669 36.6685 18.0149V16.5589C36.0525 16.6056 35.5391 16.6709 35.1285 16.7549C34.7178 16.8296 34.3911 16.9276 34.1485 17.0489C33.9058 17.1702 33.7331 17.3102 33.6305 17.4689C33.5278 17.6182 33.4765 17.7862 33.4765 17.9729ZM39.995 13.0729H41.213L41.339 13.9549H41.381C41.5397 13.6562 41.731 13.4089 41.955 13.2129C42.1883 13.0076 42.501 12.9049 42.893 12.9049C43.565 12.9049 43.985 13.2876 44.153 14.0529C44.3117 13.7262 44.5123 13.4556 44.755 13.2409C45.007 13.0169 45.3243 12.9049 45.707 12.9049C46.1923 12.9049 46.5657 13.0962 46.827 13.4789C47.0977 13.8522 47.233 14.3842 47.233 15.0749V19.9469H45.707V15.2009C45.707 14.5942 45.5157 14.2909 45.133 14.2909C44.9463 14.2909 44.783 14.3609 44.643 14.5009C44.503 14.6409 44.3677 14.8556 44.237 15.1449V19.9469H42.977V15.2009C42.977 14.5942 42.781 14.2909 42.389 14.2909C42.2023 14.2909 42.0437 14.3609 41.913 14.5009C41.7823 14.6409 41.6517 14.8556 41.521 15.1449V19.9469H39.995V13.0729ZM48.5855 16.5169C48.5855 15.9569 48.6835 15.4529 48.8795 15.0049C49.0849 14.5569 49.3509 14.1789 49.6775 13.8709C50.0042 13.5536 50.3775 13.3156 50.7975 13.1569C51.2269 12.9889 51.6655 12.9049 52.1135 12.9049C52.6269 12.9049 53.0795 12.9889 53.4715 13.1569C53.8729 13.3156 54.2089 13.5396 54.4795 13.8289C54.7502 14.1089 54.9555 14.4496 55.0955 14.8509C55.2355 15.2522 55.3055 15.6909 55.3055 16.1669C55.3055 16.3256 55.2962 16.4749 55.2775 16.6149C55.2682 16.7549 55.2542 16.8669 55.2355 16.9509H50.2375C50.2935 17.5669 50.5362 18.0429 50.9655 18.3789C51.3949 18.7056 51.9222 18.8689 52.5475 18.8689C52.9022 18.8689 53.2335 18.8222 53.5415 18.7289C53.8495 18.6262 54.1622 18.4862 54.4795 18.3089L55.0255 19.3169C54.6522 19.5502 54.2369 19.7416 53.7795 19.8909C53.3222 20.0402 52.8415 20.1149 52.3375 20.1149C51.8149 20.1149 51.3249 20.0356 50.8675 19.8769C50.4102 19.7089 50.0135 19.4709 49.6775 19.1629C49.3415 18.8549 49.0755 18.4816 48.8795 18.0429C48.6835 17.5949 48.5855 17.0862 48.5855 16.5169ZM53.8215 15.8589C53.8215 15.3269 53.6815 14.9116 53.4015 14.6129C53.1215 14.3049 52.7062 14.1509 52.1555 14.1509C51.6889 14.1509 51.2735 14.2956 50.9095 14.5849C50.5455 14.8742 50.3169 15.2989 50.2235 15.8589H53.8215ZM57.7361 18.0289C58.1281 18.2996 58.5341 18.5142 58.9541 18.6729C59.3834 18.8222 59.8641 18.8969 60.3961 18.8969C60.9374 18.8969 61.3341 18.8222 61.5861 18.6729C61.8381 18.5142 61.9641 18.3136 61.9641 18.0709C61.9641 17.8282 61.8007 17.6276 61.4741 17.4689C61.1474 17.3009 60.6341 17.1236 59.9341 16.9369C59.6074 16.8529 59.2901 16.7502 58.9821 16.6289C58.6741 16.5076 58.4034 16.3676 58.1701 16.2089C57.9367 16.0502 57.7501 15.8682 57.6101 15.6629C57.4701 15.4576 57.4001 15.2242 57.4001 14.9629C57.4001 14.3562 57.6614 13.8616 58.1841 13.4789C58.7067 13.0962 59.4581 12.9049 60.4381 12.9049C60.9981 12.9049 61.5254 12.9982 62.0201 13.1849C62.5147 13.3716 62.9394 13.5816 63.2941 13.8149L62.5521 14.8089C62.2441 14.6036 61.9127 14.4402 61.5581 14.3189C61.2127 14.1882 60.8441 14.1229 60.4521 14.1229C59.9201 14.1229 59.5467 14.1976 59.3321 14.3469C59.1174 14.4869 59.0101 14.6642 59.0101 14.8789C59.0101 15.0002 59.0567 15.1122 59.1501 15.2149C59.2527 15.3082 59.3881 15.3969 59.5561 15.4809C59.7334 15.5556 59.9387 15.6302 60.1721 15.7049C60.4054 15.7796 60.6621 15.8496 60.9421 15.9149C61.3434 16.0176 61.7027 16.1342 62.0201 16.2649C62.3467 16.3862 62.6221 16.5262 62.8461 16.6849C63.0794 16.8436 63.2567 17.0302 63.3781 17.2449C63.5087 17.4596 63.5741 17.7069 63.5741 17.9869C63.5741 18.2856 63.5041 18.5656 63.3641 18.8269C63.2241 19.0789 63.0187 19.3029 62.7481 19.4989C62.4774 19.6856 62.1414 19.8349 61.7401 19.9469C61.3387 20.0589 60.8767 20.1149 60.3541 20.1149C59.7101 20.1149 59.0941 20.0122 58.5061 19.8069C57.9181 19.6016 57.4094 19.3496 56.9801 19.0509L57.7361 18.0289Z" fill="#009E73"/>
<path d="M73.9931 13.1709H80.2091V14.3469H73.9931V13.1709ZM73.9931 16.2929H80.2091V17.4689H73.9931V16.2929ZM92.6722 10.0349H96.6762V10.9169H93.9182V21.1929H96.6762V22.0749H92.6722V10.0349ZM102.257 21.1929V10.9169H99.5127V10.0349H103.517V22.0749H99.5127V21.1929H102.257ZM176.449 31.9409C176.449 31.5302 176.58 31.1942 176.841 30.9329C177.103 30.6622 177.434 30.5269 177.835 30.5269C178.237 30.5269 178.568 30.6622 178.829 30.9329C179.091 31.1942 179.221 31.5302 179.221 31.9409C179.221 32.3516 179.091 32.6922 178.829 32.9629C178.568 33.2242 178.237 33.3549 177.835 33.3549C177.434 33.3549 177.103 33.2242 176.841 32.9629C176.58 32.6922 176.449 32.3516 176.449 31.9409ZM176.449 36.7009C176.449 36.2902 176.58 35.9542 176.841 35.6929C177.103 35.4222 177.434 35.2869 177.835 35.2869C178.237 35.2869 178.568 35.4222 178.829 35.6929C179.091 35.9542 179.221 36.2902 179.221 36.7009C179.221 37.1116 179.091 37.4522 178.829 37.7229C178.568 37.9842 178.237 38.1149 177.835 38.1149C177.434 38.1149 177.103 37.9842 176.841 37.7229C176.58 37.4522 176.449 37.1116 176.449 36.7009ZM218.422 48.9409C218.422 48.5302 218.553 48.1942 218.814 47.9329C219.075 47.6622 219.407 47.5269 219.808 47.5269C220.209 47.5269 220.541 47.6622 220.802 47.9329C221.063 48.1942 221.194 48.5302 221.194 48.9409C221.194 49.3516 221.063 49.6922 220.802 49.9629C220.541 50.2242 220.209 50.3549 219.808 50.3549C219.407 50.3549 219.075 50.2242 218.814 49.9629C218.553 49.6922 218.422 49.3516 218.422 48.9409ZM218.422 53.7009C218.422 53.2902 218.553 52.9542 218.814 52.6929C219.075 52.4222 219.407 52.2869 219.808 52.2869C220.209 52.2869 220.541 52.4222 220.802 52.6929C221.063 52.9542 221.194 53.2902 221.194 53.7009C221.194 54.1116 221.063 54.4522 220.802 54.7229C220.541 54.9842 220.209 55.1149 219.808 55.1149C219.407 55.1149 219.075 54.9842 218.814 54.7229C218.553 54.4522 218.422 54.1116 218.422 53.7009ZM90.8382 66.0729H92.1682L92.2942 67.1089H92.3502C92.6769 66.7822 93.0362 66.5022 93.4282 66.2689C93.8295 66.0262 94.2962 65.9049 94.8282 65.9049C95.6215 65.9049 96.2049 66.1476 96.5782 66.6329C96.9515 67.1089 97.1382 67.7949 97.1382 68.6909V72.9469H95.5142V68.9009C95.5142 68.3409 95.4162 67.9349 95.2202 67.6829C95.0335 67.4216 94.7022 67.2909 94.2262 67.2909C93.8902 67.2909 93.5915 67.3702 93.3302 67.5289C93.0689 67.6876 92.7795 67.9302 92.4622 68.2569V72.9469H90.8382V66.0729ZM99.0787 71.0989C99.0787 70.7162 99.1674 70.3802 99.3447 70.0909C99.5221 69.7922 99.8021 69.5402 100.185 69.3349C100.567 69.1296 101.057 68.9616 101.655 68.8309C102.252 68.7002 102.975 68.6069 103.825 68.5509C103.797 68.1589 103.657 67.8369 103.405 67.5849C103.153 67.3329 102.747 67.2069 102.187 67.2069C101.795 67.2069 101.407 67.2816 101.025 67.4309C100.651 67.5709 100.287 67.7389 99.9327 67.9349L99.3447 66.8569C99.7647 66.6142 100.245 66.3949 100.787 66.1989C101.328 66.0029 101.893 65.9049 102.481 65.9049C103.442 65.9049 104.175 66.1616 104.679 66.6749C105.183 67.1789 105.435 67.9116 105.435 68.8729V72.9469H104.119L103.993 72.0929H103.951C103.587 72.3729 103.181 72.6156 102.733 72.8209C102.294 73.0169 101.841 73.1149 101.375 73.1149C101.039 73.1149 100.731 73.0636 100.451 72.9609C100.171 72.8676 99.9281 72.7322 99.7227 72.5549C99.5174 72.3776 99.3587 72.1676 99.2467 71.9249C99.1347 71.6729 99.0787 71.3976 99.0787 71.0989ZM100.633 70.9729C100.633 71.2809 100.749 71.5049 100.983 71.6449C101.225 71.7849 101.519 71.8549 101.865 71.8549C102.21 71.8549 102.541 71.7802 102.859 71.6309C103.185 71.4722 103.507 71.2669 103.825 71.0149V69.5589C103.209 69.6056 102.695 69.6709 102.285 69.7549C101.874 69.8296 101.547 69.9276 101.305 70.0489C101.062 70.1702 100.889 70.3102 100.787 70.4689C100.684 70.6182 100.633 70.7862 100.633 70.9729ZM107.151 66.0729H108.369L108.495 66.9549H108.537C108.696 66.6562 108.887 66.4089 109.111 66.2129C109.345 66.0076 109.657 65.9049 110.049 65.9049C110.721 65.9049 111.141 66.2876 111.309 67.0529C111.468 66.7262 111.669 66.4556 111.911 66.2409C112.163 66.0169 112.481 65.9049 112.863 65.9049C113.349 65.9049 113.722 66.0962 113.983 66.4789C114.254 66.8522 114.389 67.3842 114.389 68.0749V72.9469H112.863V68.2009C112.863 67.5942 112.672 67.2909 112.289 67.2909C112.103 67.2909 111.939 67.3609 111.799 67.5009C111.659 67.6409 111.524 67.8556 111.393 68.1449V72.9469H110.133V68.2009C110.133 67.5942 109.937 67.2909 109.545 67.2909C109.359 67.2909 109.2 67.3609 109.069 67.5009C108.939 67.6409 108.808 67.8556 108.677 68.1449V72.9469H107.151V66.0729ZM115.742 69.5169C115.742 68.9569 115.84 68.4529 116.036 68.0049C116.241 67.5569 116.507 67.1789 116.834 66.8709C117.16 66.5536 117.534 66.3156 117.954 66.1569C118.383 65.9889 118.822 65.9049 119.27 65.9049C119.783 65.9049 120.236 65.9889 120.628 66.1569C121.029 66.3156 121.365 66.5396 121.636 66.8289C121.906 67.1089 122.112 67.4496 122.252 67.8509C122.392 68.2522 122.462 68.6909 122.462 69.1669C122.462 69.3256 122.452 69.4749 122.434 69.6149C122.424 69.7549 122.41 69.8669 122.392 69.9509H117.394C117.45 70.5669 117.692 71.0429 118.122 71.3789C118.551 71.7056 119.078 71.8689 119.704 71.8689C120.058 71.8689 120.39 71.8222 120.698 71.7289C121.006 71.6262 121.318 71.4862 121.636 71.3089L122.182 72.3169C121.808 72.5502 121.393 72.7416 120.936 72.8909C120.478 73.0402 119.998 73.1149 119.494 73.1149C118.971 73.1149 118.481 73.0356 118.024 72.8769C117.566 72.7089 117.17 72.4709 116.834 72.1629C116.498 71.8549 116.232 71.4816 116.036 71.0429C115.84 70.5949 115.742 70.0862 115.742 69.5169ZM120.978 68.8589C120.978 68.3269 120.838 67.9116 120.558 67.6129C120.278 67.3049 119.862 67.1509 119.312 67.1509C118.845 67.1509 118.43 67.2956 118.066 67.5849C117.702 67.8742 117.473 68.2989 117.38 68.8589H120.978ZM124.892 71.0289C125.284 71.2996 125.69 71.5142 126.11 71.6729C126.54 71.8222 127.02 71.8969 127.552 71.8969C128.094 71.8969 128.49 71.8222 128.742 71.6729C128.994 71.5142 129.12 71.3136 129.12 71.0709C129.12 70.8282 128.957 70.6276 128.63 70.4689C128.304 70.3009 127.79 70.1236 127.09 69.9369C126.764 69.8529 126.446 69.7502 126.138 69.6289C125.83 69.5076 125.56 69.3676 125.326 69.2089C125.093 69.0502 124.906 68.8682 124.766 68.6629C124.626 68.4576 124.556 68.2242 124.556 67.9629C124.556 67.3562 124.818 66.8616 125.34 66.4789C125.863 66.0962 126.614 65.9049 127.594 65.9049C128.154 65.9049 128.682 65.9982 129.176 66.1849C129.671 66.3716 130.096 66.5816 130.45 66.8149L129.708 67.8089C129.4 67.6036 129.069 67.4402 128.714 67.3189C128.369 67.1882 128 67.1229 127.608 67.1229C127.076 67.1229 126.703 67.1976 126.488 67.3469C126.274 67.4869 126.166 67.6642 126.166 67.8789C126.166 68.0002 126.213 68.1122 126.306 68.2149C126.409 68.3082 126.544 68.3969 126.712 68.4809C126.89 68.5556 127.095 68.6302 127.328 68.7049C127.562 68.7796 127.818 68.8496 128.098 68.9149C128.5 69.0176 128.859 69.1342 129.176 69.2649C129.503 69.3862 129.778 69.5262 130.002 69.6849C130.236 69.8436 130.413 70.0302 130.534 70.2449C130.665 70.4596 130.73 70.7069 130.73 70.9869C130.73 71.2856 130.66 71.5656 130.52 71.8269C130.38 72.0789 130.175 72.3029 129.904 72.4989C129.634 72.6856 129.298 72.8349 128.896 72.9469C128.495 73.0589 128.033 73.1149 127.51 73.1149C126.866 73.1149 126.25 73.0122 125.662 72.8069C125.074 72.6016 124.566 72.3496 124.136 72.0509L124.892 71.0289ZM134.477 71.7009C134.477 71.2902 134.608 70.9542 134.869 70.6929C135.13 70.4222 135.462 70.2869 135.863 70.2869C136.264 70.2869 136.596 70.4222 136.857 70.6929C137.118 70.9542 137.249 71.2902 137.249 71.7009C137.249 72.1116 137.118 72.4522 136.857 72.7229C136.596 72.9842 136.264 73.1149 135.863 73.1149C135.462 73.1149 135.13 72.9842 134.869 72.7229C134.608 72.4522 134.477 72.1116 134.477 71.7009ZM141.051 71.0989C141.051 70.7162 141.14 70.3802 141.317 70.0909C141.495 69.7922 141.775 69.5402 142.157 69.3349C142.54 69.1296 143.03 68.9616 143.627 68.8309C144.225 68.7002 144.948 68.6069 145.797 68.5509C145.769 68.1589 145.629 67.8369 145.377 67.5849C145.125 67.3329 144.719 67.2069 144.159 67.2069C143.767 67.2069 143.38 67.2816 142.997 67.4309C142.624 67.5709 142.26 67.7389 141.905 67.9349L141.317 66.8569C141.737 66.6142 142.218 66.3949 142.759 66.1989C143.301 66.0029 143.865 65.9049 144.453 65.9049C145.415 65.9049 146.147 66.1616 146.651 66.6749C147.155 67.1789 147.407 67.9116 147.407 68.8729V72.9469H146.091L145.965 72.0929H145.923C145.559 72.3729 145.153 72.6156 144.705 72.8209C144.267 73.0169 143.814 73.1149 143.347 73.1149C143.011 73.1149 142.703 73.0636 142.423 72.9609C142.143 72.8676 141.901 72.7322 141.695 72.5549C141.49 72.3776 141.331 72.1676 141.219 71.9249C141.107 71.6729 141.051 71.3976 141.051 71.0989ZM142.605 70.9729C142.605 71.2809 142.722 71.5049 142.955 71.6449C143.198 71.7849 143.492 71.8549 143.837 71.8549C144.183 71.8549 144.514 71.7802 144.831 71.6309C145.158 71.4722 145.48 71.2669 145.797 71.0149V69.5589C145.181 69.6056 144.668 69.6709 144.257 69.7549C143.847 69.8296 143.52 69.9276 143.277 70.0489C143.035 70.1702 142.862 70.3102 142.759 70.4689C142.657 70.6182 142.605 70.7862 142.605 70.9729ZM151.224 73.5069V75.6629H149.6V66.0729H150.93L151.056 66.8569H151.098C151.397 66.5862 151.737 66.3622 152.12 66.1849C152.512 65.9982 152.904 65.9049 153.296 65.9049C153.744 65.9049 154.141 65.9889 154.486 66.1569C154.841 66.3156 155.135 66.5489 155.368 66.8569C155.611 67.1649 155.793 67.5336 155.914 67.9629C156.045 68.3922 156.11 68.8729 156.11 69.4049C156.11 69.9929 156.026 70.5202 155.858 70.9869C155.69 71.4442 155.461 71.8316 155.172 72.1489C154.892 72.4569 154.565 72.6949 154.192 72.8629C153.828 73.0309 153.45 73.1149 153.058 73.1149C152.741 73.1149 152.414 73.0449 152.078 72.9049C151.751 72.7649 151.448 72.5642 151.168 72.3029L151.224 73.5069ZM151.224 71.1549C151.476 71.3882 151.733 71.5516 151.994 71.6449C152.265 71.7382 152.507 71.7849 152.722 71.7849C153.217 71.7849 153.627 71.5889 153.954 71.1969C154.281 70.7956 154.444 70.2029 154.444 69.4189C154.444 68.7282 154.318 68.1916 154.066 67.8089C153.814 67.4262 153.408 67.2349 152.848 67.2349C152.587 67.2349 152.321 67.3002 152.05 67.4309C151.779 67.5616 151.504 67.7716 151.224 68.0609V71.1549ZM159.618 73.5069V75.6629H157.994V66.0729H159.324L159.45 66.8569H159.492C159.791 66.5862 160.132 66.3622 160.514 66.1849C160.906 65.9982 161.298 65.9049 161.69 65.9049C162.138 65.9049 162.535 65.9889 162.88 66.1569C163.235 66.3156 163.529 66.5489 163.762 66.8569C164.005 67.1649 164.187 67.5336 164.308 67.9629C164.439 68.3922 164.504 68.8729 164.504 69.4049C164.504 69.9929 164.42 70.5202 164.252 70.9869C164.084 71.4442 163.856 71.8316 163.566 72.1489C163.286 72.4569 162.96 72.6949 162.586 72.8629C162.222 73.0309 161.844 73.1149 161.452 73.1149C161.135 73.1149 160.808 73.0449 160.472 72.9049C160.146 72.7649 159.842 72.5642 159.562 72.3029L159.618 73.5069ZM159.618 71.1549C159.87 71.3882 160.127 71.5516 160.388 71.6449C160.659 71.7382 160.902 71.7849 161.116 71.7849C161.611 71.7849 162.022 71.5889 162.348 71.1969C162.675 70.7956 162.838 70.2029 162.838 69.4189C162.838 68.7282 162.712 68.1916 162.46 67.8089C162.208 67.4262 161.802 67.2349 161.242 67.2349C160.981 67.2349 160.715 67.3002 160.444 67.4309C160.174 67.5616 159.898 67.7716 159.618 68.0609V71.1549ZM166.109 69.5169C166.109 68.9569 166.207 68.4529 166.403 68.0049C166.608 67.5569 166.874 67.1789 167.201 66.8709C167.528 66.5536 167.901 66.3156 168.321 66.1569C168.75 65.9889 169.189 65.9049 169.637 65.9049C170.15 65.9049 170.603 65.9889 170.995 66.1569C171.396 66.3156 171.732 66.5396 172.003 66.8289C172.274 67.1089 172.479 67.4496 172.619 67.8509C172.759 68.2522 172.829 68.6909 172.829 69.1669C172.829 69.3256 172.82 69.4749 172.801 69.6149C172.792 69.7549 172.778 69.8669 172.759 69.9509H167.761C167.817 70.5669 168.06 71.0429 168.489 71.3789C168.918 71.7056 169.446 71.8689 170.071 71.8689C170.426 71.8689 170.757 71.8222 171.065 71.7289C171.373 71.6262 171.686 71.4862 172.003 71.3089L172.549 72.3169C172.176 72.5502 171.76 72.7416 171.303 72.8909C170.846 73.0402 170.365 73.1149 169.861 73.1149C169.338 73.1149 168.848 73.0356 168.391 72.8769C167.934 72.7089 167.537 72.4709 167.201 72.1629C166.865 71.8549 166.599 71.4816 166.403 71.0429C166.207 70.5949 166.109 70.0862 166.109 69.5169ZM171.345 68.8589C171.345 68.3269 171.205 67.9116 170.925 67.6129C170.645 67.3049 170.23 67.1509 169.679 67.1509C169.212 67.1509 168.797 67.2956 168.433 67.5849C168.069 67.8742 167.84 68.2989 167.747 68.8589H171.345ZM174.783 66.0729H176.113L176.239 67.1089H176.295C176.622 66.7822 176.981 66.5022 177.373 66.2689C177.775 66.0262 178.241 65.9049 178.773 65.9049C179.567 65.9049 180.15 66.1476 180.523 66.6329C180.897 67.1089 181.083 67.7949 181.083 68.6909V72.9469H179.459V68.9009C179.459 68.3409 179.361 67.9349 179.165 67.6829C178.979 67.4216 178.647 67.2909 178.171 67.2909C177.835 67.2909 177.537 67.3702 177.275 67.5289C177.014 67.6876 176.725 67.9302 176.407 68.2569V72.9469H174.783V66.0729ZM182.772 69.5169C182.772 68.9569 182.856 68.4529 183.024 68.0049C183.192 67.5569 183.416 67.1789 183.696 66.8709C183.985 66.5629 184.312 66.3249 184.676 66.1569C185.04 65.9889 185.418 65.9049 185.81 65.9049C186.221 65.9049 186.571 65.9796 186.86 66.1289C187.159 66.2689 187.448 66.4649 187.728 66.7169L187.658 65.5549V63.0629H189.282V72.9469H187.952L187.826 72.1489H187.784C187.513 72.4196 187.196 72.6482 186.832 72.8349C186.477 73.0216 186.104 73.1149 185.712 73.1149C185.273 73.1149 184.872 73.0356 184.508 72.8769C184.144 72.7089 183.831 72.4709 183.57 72.1629C183.318 71.8549 183.122 71.4816 182.982 71.0429C182.842 70.5949 182.772 70.0862 182.772 69.5169ZM184.438 69.5029C184.438 70.2496 184.583 70.8189 184.872 71.2109C185.161 71.5936 185.572 71.7849 186.104 71.7849C186.673 71.7849 187.191 71.5096 187.658 70.9589V67.8649C187.415 67.6316 187.173 67.4682 186.93 67.3749C186.687 67.2816 186.44 67.2349 186.188 67.2349C185.945 67.2349 185.717 67.2862 185.502 67.3889C185.297 67.4916 185.115 67.6409 184.956 67.8369C184.797 68.0236 184.671 68.2569 184.578 68.5369C184.485 68.8169 184.438 69.1389 184.438 69.5029ZM196.193 75.4249C195.25 74.6409 194.503 73.7169 193.953 72.6529C193.411 71.5889 193.141 70.3896 193.141 69.0549C193.141 67.7202 193.411 66.5209 193.953 65.4569C194.503 64.3929 195.25 63.4689 196.193 62.6849L197.089 63.4269C196.202 64.2296 195.553 65.0836 195.143 65.9889C194.732 66.8942 194.527 67.9162 194.527 69.0549C194.527 70.1936 194.732 71.2156 195.143 72.1209C195.553 73.0262 196.202 73.8802 197.089 74.6829L196.193 75.4249ZM250.922 74.6829C251.809 73.8802 252.458 73.0262 252.868 72.1209C253.279 71.2156 253.484 70.1936 253.484 69.0549C253.484 67.9162 253.279 66.8942 252.868 65.9889C252.458 65.0836 251.809 64.2296 250.922 63.4269L251.818 62.6849C252.761 63.4689 253.503 64.3929 254.044 65.4569C254.595 66.5209 254.87 67.7202 254.87 69.0549C254.87 70.3896 254.595 71.5889 254.044 72.6529C253.503 73.7169 252.761 74.6409 251.818 75.4249L250.922 74.6829Z" fill="#2E383C"/>
<path d="M30.3459 29.4629C30.0939 29.3602 29.8466 29.2856 29.6039 29.2389C29.3706 29.1922 29.1139 29.1689 28.8339 29.1689C28.3019 29.1689 27.9146 29.2996 27.6719 29.5609C27.4386 29.8129 27.3219 30.1816 27.3219 30.6669V31.0729H29.9399V32.3469H27.3219V37.9469H25.7259V32.3469H23.8219V31.1429L25.7259 31.0729V30.6949C25.7259 30.2936 25.7819 29.9202 25.8939 29.5749C26.0059 29.2296 26.1786 28.9356 26.4119 28.6929C26.6546 28.4409 26.9579 28.2449 27.3219 28.1049C27.6953 27.9649 28.1339 27.8949 28.6379 27.8949C29.0113 27.8949 29.3659 27.9276 29.7019 27.9929C30.0473 28.0582 30.3739 28.1516 30.6819 28.2729L30.3459 29.4629ZM31.6705 34.5169C31.6705 33.9476 31.7638 33.4389 31.9505 32.9909C32.1465 32.5429 32.4031 32.1649 32.7205 31.8569C33.0378 31.5489 33.4065 31.3156 33.8265 31.1569C34.2465 30.9889 34.6805 30.9049 35.1285 30.9049C35.5765 30.9049 36.0105 30.9889 36.4305 31.1569C36.8505 31.3156 37.2191 31.5489 37.5365 31.8569C37.8538 32.1649 38.1058 32.5429 38.2925 32.9909C38.4885 33.4389 38.5865 33.9476 38.5865 34.5169C38.5865 35.0862 38.4885 35.5949 38.2925 36.0429C38.1058 36.4909 37.8538 36.8689 37.5365 37.1769C37.2191 37.4849 36.8505 37.7182 36.4305 37.8769C36.0105 38.0356 35.5765 38.1149 35.1285 38.1149C34.6805 38.1149 34.2465 38.0356 33.8265 37.8769C33.4065 37.7182 33.0378 37.4849 32.7205 37.1769C32.4031 36.8689 32.1465 36.4909 31.9505 36.0429C31.7638 35.5949 31.6705 35.0862 31.6705 34.5169ZM33.3365 34.5169C33.3365 35.2076 33.4951 35.7629 33.8125 36.1829C34.1298 36.5936 34.5685 36.7989 35.1285 36.7989C35.6885 36.7989 36.1271 36.5936 36.4445 36.1829C36.7618 35.7629 36.9205 35.2076 36.9205 34.5169C36.9205 33.8169 36.7618 33.2616 36.4445 32.8509C36.1271 32.4309 35.6885 32.2209 35.1285 32.2209C34.5685 32.2209 34.1298 32.4309 33.8125 32.8509C33.4951 33.2616 33.3365 33.8169 33.3365 34.5169ZM41.143 31.0729H42.473L42.613 32.6269H42.655C43.0097 32.0669 43.4343 31.6422 43.929 31.3529C44.433 31.0542 44.9837 30.9049 45.581 30.9049C45.861 30.9049 46.099 30.9282 46.295 30.9749C46.5003 31.0122 46.7057 31.0822 46.911 31.1849L46.575 32.5429C46.351 32.4682 46.1503 32.4169 45.973 32.3889C45.805 32.3516 45.5903 32.3329 45.329 32.3329C44.853 32.3329 44.3957 32.4682 43.957 32.7389C43.5183 33.0096 43.1217 33.4809 42.767 34.1529V37.9469H41.143V31.0729ZM57.9321 31.0729H59.2621L59.4021 32.6269H59.4441C59.7987 32.0669 60.2234 31.6422 60.7181 31.3529C61.2221 31.0542 61.7727 30.9049 62.3701 30.9049C62.6501 30.9049 62.8881 30.9282 63.0841 30.9749C63.2894 31.0122 63.4947 31.0822 63.7001 31.1849L63.3641 32.5429C63.1401 32.4682 62.9394 32.4169 62.7621 32.3889C62.5941 32.3516 62.3794 32.3329 62.1181 32.3329C61.6421 32.3329 61.1847 32.4682 60.7461 32.7389C60.3074 33.0096 59.9107 33.4809 59.5561 34.1529V37.9469H57.9321V31.0729ZM65.2486 34.5169C65.2486 33.9476 65.3419 33.4389 65.5286 32.9909C65.7246 32.5429 65.9813 32.1649 66.2986 31.8569C66.6159 31.5489 66.9846 31.3156 67.4046 31.1569C67.8246 30.9889 68.2586 30.9049 68.7066 30.9049C69.1546 30.9049 69.5886 30.9889 70.0086 31.1569C70.4286 31.3156 70.7973 31.5489 71.1146 31.8569C71.4319 32.1649 71.6839 32.5429 71.8706 32.9909C72.0666 33.4389 72.1646 33.9476 72.1646 34.5169C72.1646 35.0862 72.0666 35.5949 71.8706 36.0429C71.6839 36.4909 71.4319 36.8689 71.1146 37.1769C70.7973 37.4849 70.4286 37.7182 70.0086 37.8769C69.5886 38.0356 69.1546 38.1149 68.7066 38.1149C68.2586 38.1149 67.8246 38.0356 67.4046 37.8769C66.9846 37.7182 66.6159 37.4849 66.2986 37.1769C65.9813 36.8689 65.7246 36.4909 65.5286 36.0429C65.3419 35.5949 65.2486 35.0862 65.2486 34.5169ZM66.9146 34.5169C66.9146 35.2076 67.0733 35.7629 67.3906 36.1829C67.7079 36.5936 68.1466 36.7989 68.7066 36.7989C69.2666 36.7989 69.7053 36.5936 70.0226 36.1829C70.3399 35.7629 70.4986 35.2076 70.4986 34.5169C70.4986 33.8169 70.3399 33.2616 70.0226 32.8509C69.7053 32.4309 69.2666 32.2209 68.7066 32.2209C68.1466 32.2209 67.7079 32.4309 67.3906 32.8509C67.0733 33.2616 66.9146 33.8169 66.9146 34.5169ZM72.9851 31.0729H74.5811L75.2111 34.6429C75.2671 34.9696 75.3138 35.2962 75.3511 35.6229C75.3978 35.9496 75.4445 36.2809 75.4911 36.6169H75.5471C75.5938 36.2809 75.6451 35.9496 75.7011 35.6229C75.7571 35.2962 75.8225 34.9696 75.8971 34.6429L76.5411 31.7449H77.7451L78.3891 34.6429C78.4638 34.9696 78.5291 35.2962 78.5851 35.6229C78.6505 35.9496 78.7111 36.2809 78.7671 36.6169H78.8231C78.8791 36.2809 78.9258 35.9496 78.9631 35.6229C79.0098 35.2962 79.0565 34.9696 79.1031 34.6429L79.7331 31.0729H81.2171L79.9431 37.9469H78.0531L77.4511 35.0769C77.3951 34.7502 77.3391 34.4236 77.2831 34.0969C77.2365 33.7702 77.1851 33.4296 77.1291 33.0749H77.0731C77.0265 33.3456 76.9798 33.6396 76.9331 33.9569C76.8958 34.2649 76.8398 34.6429 76.7651 35.0909L76.1771 37.9469H74.3151L72.9851 31.0729ZM90.8662 31.0729H95.4582V37.9469H93.8482V32.3469H90.8662V31.0729ZM94.5342 29.8689C94.2075 29.8689 93.9322 29.7709 93.7082 29.5749C93.4935 29.3789 93.3862 29.1176 93.3862 28.7909C93.3862 28.4642 93.4935 28.2029 93.7082 28.0069C93.9322 27.8016 94.2075 27.6989 94.5342 27.6989C94.8702 27.6989 95.1455 27.8016 95.3602 28.0069C95.5749 28.2029 95.6822 28.4642 95.6822 28.7909C95.6822 29.1176 95.5749 29.3789 95.3602 29.5749C95.1455 29.7709 94.8702 29.8689 94.5342 29.8689ZM99.2327 31.0729H100.563L100.689 32.1089H100.745C101.071 31.7822 101.431 31.5022 101.823 31.2689C102.224 31.0262 102.691 30.9049 103.223 30.9049C104.016 30.9049 104.599 31.1476 104.973 31.6329C105.346 32.1089 105.533 32.7949 105.533 33.6909V37.9469H103.909V33.9009C103.909 33.3409 103.811 32.9349 103.615 32.6829C103.428 32.4216 103.097 32.2909 102.621 32.2909C102.285 32.2909 101.986 32.3702 101.725 32.5289C101.463 32.6876 101.174 32.9302 100.857 33.2569V37.9469H99.2327V31.0729ZM115.546 31.0729H116.764L116.89 31.9549H116.932C117.09 31.6562 117.282 31.4089 117.506 31.2129C117.739 31.0076 118.052 30.9049 118.444 30.9049C119.116 30.9049 119.536 31.2876 119.704 32.0529C119.862 31.7262 120.063 31.4556 120.306 31.2409C120.558 31.0169 120.875 30.9049 121.258 30.9049C121.743 30.9049 122.116 31.0962 122.378 31.4789C122.648 31.8522 122.784 32.3842 122.784 33.0749V37.9469H121.258V33.2009C121.258 32.5942 121.066 32.2909 120.684 32.2909C120.497 32.2909 120.334 32.3609 120.194 32.5009C120.054 32.6409 119.918 32.8556 119.788 33.1449V37.9469H118.528V33.2009C118.528 32.5942 118.332 32.2909 117.94 32.2909C117.753 32.2909 117.594 32.3609 117.464 32.5009C117.333 32.6409 117.202 32.8556 117.072 33.1449V37.9469H115.546V31.0729ZM124.514 39.3749C124.608 39.4029 124.701 39.4262 124.794 39.4449C124.888 39.4636 124.986 39.4729 125.088 39.4729C125.527 39.4729 125.877 39.3609 126.138 39.1369C126.4 38.9222 126.6 38.6422 126.74 38.2969L126.908 37.8629L123.828 31.0729H125.438L126.852 34.4469C126.983 34.7549 127.109 35.0816 127.23 35.4269C127.352 35.7722 127.478 36.1176 127.608 36.4629H127.664C127.767 36.1362 127.879 35.8002 128 35.4549C128.122 35.1096 128.238 34.7736 128.35 34.4469L129.596 31.0729H131.122L128.252 38.2549C128.103 38.6469 127.935 38.9969 127.748 39.3049C127.571 39.6129 127.361 39.8742 127.118 40.0889C126.876 40.3129 126.596 40.4809 126.278 40.5929C125.961 40.7142 125.597 40.7749 125.186 40.7749C125 40.7749 124.822 40.7609 124.654 40.7329C124.486 40.7142 124.337 40.6816 124.206 40.6349L124.514 39.3749ZM139.223 38.8149V40.0749H132.503V38.8149H139.223ZM140.799 34.5169C140.799 33.9569 140.883 33.4529 141.051 33.0049C141.219 32.5569 141.443 32.1789 141.723 31.8709C142.013 31.5629 142.339 31.3249 142.703 31.1569C143.067 30.9889 143.445 30.9049 143.837 30.9049C144.248 30.9049 144.598 30.9796 144.887 31.1289C145.186 31.2689 145.475 31.4649 145.755 31.7169L145.685 30.5549V28.0629H147.309V37.9469H145.979L145.853 37.1489H145.811C145.541 37.4196 145.223 37.6482 144.859 37.8349C144.505 38.0216 144.131 38.1149 143.739 38.1149C143.301 38.1149 142.899 38.0356 142.535 37.8769C142.171 37.7089 141.859 37.4709 141.597 37.1629C141.345 36.8549 141.149 36.4816 141.009 36.0429C140.869 35.5949 140.799 35.0862 140.799 34.5169ZM142.465 34.5029C142.465 35.2496 142.61 35.8189 142.899 36.2109C143.189 36.5936 143.599 36.7849 144.131 36.7849C144.701 36.7849 145.219 36.5096 145.685 35.9589V32.8649C145.443 32.6316 145.2 32.4682 144.957 32.3749C144.715 32.2816 144.467 32.2349 144.215 32.2349C143.973 32.2349 143.744 32.2862 143.529 32.3889C143.324 32.4916 143.142 32.6409 142.983 32.8369C142.825 33.0236 142.699 33.2569 142.605 33.5369C142.512 33.8169 142.465 34.1389 142.465 34.5029ZM149.446 36.0989C149.446 35.7162 149.535 35.3802 149.712 35.0909C149.889 34.7922 150.169 34.5402 150.552 34.3349C150.935 34.1296 151.425 33.9616 152.022 33.8309C152.619 33.7002 153.343 33.6069 154.192 33.5509C154.164 33.1589 154.024 32.8369 153.772 32.5849C153.52 32.3329 153.114 32.2069 152.554 32.2069C152.162 32.2069 151.775 32.2816 151.392 32.4309C151.019 32.5709 150.655 32.7389 150.3 32.9349L149.712 31.8569C150.132 31.6142 150.613 31.3949 151.154 31.1989C151.695 31.0029 152.26 30.9049 152.848 30.9049C153.809 30.9049 154.542 31.1616 155.046 31.6749C155.55 32.1789 155.802 32.9116 155.802 33.8729V37.9469H154.486L154.36 37.0929H154.318C153.954 37.3729 153.548 37.6156 153.1 37.8209C152.661 38.0169 152.209 38.1149 151.742 38.1149C151.406 38.1149 151.098 38.0636 150.818 37.9609C150.538 37.8676 150.295 37.7322 150.09 37.5549C149.885 37.3776 149.726 37.1676 149.614 36.9249C149.502 36.6729 149.446 36.3976 149.446 36.0989ZM151 35.9729C151 36.2809 151.117 36.5049 151.35 36.6449C151.593 36.7849 151.887 36.8549 152.232 36.8549C152.577 36.8549 152.909 36.7802 153.226 36.6309C153.553 36.4722 153.875 36.2669 154.192 36.0149V34.5589C153.576 34.6056 153.063 34.6709 152.652 34.7549C152.241 34.8296 151.915 34.9276 151.672 35.0489C151.429 35.1702 151.257 35.3102 151.154 35.4689C151.051 35.6182 151 35.7862 151 35.9729ZM159.506 32.3469H157.672V31.1429L159.576 31.0729L159.786 29.1969H161.116V31.0729H164.252V32.3469H161.116V35.1749C161.116 35.7442 161.233 36.1642 161.466 36.4349C161.7 36.6962 162.11 36.8269 162.698 36.8269C162.997 36.8269 163.268 36.8036 163.51 36.7569C163.753 36.7009 163.986 36.6309 164.21 36.5469L164.518 37.7229C164.21 37.8256 163.87 37.9142 163.496 37.9889C163.123 38.0729 162.726 38.1149 162.306 38.1149C161.784 38.1149 161.345 38.0449 160.99 37.9049C160.636 37.7649 160.346 37.5689 160.122 37.3169C159.908 37.0556 159.749 36.7429 159.646 36.3789C159.553 36.0149 159.506 35.6136 159.506 35.1749V32.3469ZM166.235 36.0989C166.235 35.7162 166.324 35.3802 166.501 35.0909C166.678 34.7922 166.958 34.5402 167.341 34.3349C167.724 34.1296 168.214 33.9616 168.811 33.8309C169.408 33.7002 170.132 33.6069 170.981 33.5509C170.953 33.1589 170.813 32.8369 170.561 32.5849C170.309 32.3329 169.903 32.2069 169.343 32.2069C168.951 32.2069 168.564 32.2816 168.181 32.4309C167.808 32.5709 167.444 32.7389 167.089 32.9349L166.501 31.8569C166.921 31.6142 167.402 31.3949 167.943 31.1989C168.484 31.0029 169.049 30.9049 169.637 30.9049C170.598 30.9049 171.331 31.1616 171.835 31.6749C172.339 32.1789 172.591 32.9116 172.591 33.8729V37.9469H171.275L171.149 37.0929H171.107C170.743 37.3729 170.337 37.6156 169.889 37.8209C169.45 38.0169 168.998 38.1149 168.531 38.1149C168.195 38.1149 167.887 38.0636 167.607 37.9609C167.327 37.8676 167.084 37.7322 166.879 37.5549C166.674 37.3776 166.515 37.1676 166.403 36.9249C166.291 36.6729 166.235 36.3976 166.235 36.0989ZM167.789 35.9729C167.789 36.2809 167.906 36.5049 168.139 36.6449C168.382 36.7849 168.676 36.8549 169.021 36.8549C169.366 36.8549 169.698 36.7802 170.015 36.6309C170.342 36.4722 170.664 36.2669 170.981 36.0149V34.5589C170.365 34.6056 169.852 34.6709 169.441 34.7549C169.03 34.8296 168.704 34.9276 168.461 35.0489C168.218 35.1702 168.046 35.3102 167.943 35.4689C167.84 35.6182 167.789 35.7862 167.789 35.9729Z" fill="#9B51E0"/>
<path d="M57.2881 48.0729H61.8801V54.9469H60.2701V49.3469H57.2881V48.0729ZM60.9561 46.8689C60.6294 46.8689 60.3541 46.7709 60.1301 46.5749C59.9154 46.3789 59.8081 46.1176 59.8081 45.7909C59.8081 45.4642 59.9154 45.2029 60.1301 45.0069C60.3541 44.8016 60.6294 44.6989 60.9561 44.6989C61.2921 44.6989 61.5674 44.8016 61.7821 45.0069C61.9967 45.2029 62.1041 45.4642 62.1041 45.7909C62.1041 46.1176 61.9967 46.3789 61.7821 46.5749C61.5674 46.7709 61.2921 46.8689 60.9561 46.8689ZM72.3186 46.4629C72.0666 46.3602 71.8193 46.2856 71.5766 46.2389C71.3433 46.1922 71.0866 46.1689 70.8066 46.1689C70.2746 46.1689 69.8873 46.2996 69.6446 46.5609C69.4113 46.8129 69.2946 47.1816 69.2946 47.6669V48.0729H71.9126V49.3469H69.2946V54.9469H67.6986V49.3469H65.7946V48.1429L67.6986 48.0729V47.6949C67.6986 47.2936 67.7546 46.9202 67.8666 46.5749C67.9786 46.2296 68.1513 45.9356 68.3846 45.6929C68.6273 45.4409 68.9306 45.2449 69.2946 45.1049C69.6679 44.9649 70.1066 44.8949 70.6106 44.8949C70.9839 44.8949 71.3386 44.9276 71.6746 44.9929C72.0199 45.0582 72.3466 45.1516 72.6546 45.2729L72.3186 46.4629ZM83.1157 48.0729H84.4457L84.5857 49.6269H84.6277C84.9823 49.0669 85.407 48.6422 85.9017 48.3529C86.4057 48.0542 86.9563 47.9049 87.5537 47.9049C87.8337 47.9049 88.0717 47.9282 88.2677 47.9749C88.473 48.0122 88.6783 48.0822 88.8837 48.1849L88.5477 49.5429C88.3237 49.4682 88.123 49.4169 87.9457 49.3889C87.7777 49.3516 87.563 49.3329 87.3017 49.3329C86.8257 49.3329 86.3683 49.4682 85.9297 49.7389C85.491 50.0096 85.0943 50.4809 84.7397 51.1529V54.9469H83.1157V48.0729ZM90.4322 51.5169C90.4322 50.9476 90.5255 50.4389 90.7122 49.9909C90.9082 49.5429 91.1649 49.1649 91.4822 48.8569C91.7995 48.5489 92.1682 48.3156 92.5882 48.1569C93.0082 47.9889 93.4422 47.9049 93.8902 47.9049C94.3382 47.9049 94.7722 47.9889 95.1922 48.1569C95.6122 48.3156 95.9809 48.5489 96.2982 48.8569C96.6155 49.1649 96.8675 49.5429 97.0542 49.9909C97.2502 50.4389 97.3482 50.9476 97.3482 51.5169C97.3482 52.0862 97.2502 52.5949 97.0542 53.0429C96.8675 53.4909 96.6155 53.8689 96.2982 54.1769C95.9809 54.4849 95.6122 54.7182 95.1922 54.8769C94.7722 55.0356 94.3382 55.1149 93.8902 55.1149C93.4422 55.1149 93.0082 55.0356 92.5882 54.8769C92.1682 54.7182 91.7995 54.4849 91.4822 54.1769C91.1649 53.8689 90.9082 53.4909 90.7122 53.0429C90.5255 52.5949 90.4322 52.0862 90.4322 51.5169ZM92.0982 51.5169C92.0982 52.2076 92.2569 52.7629 92.5742 53.1829C92.8915 53.5936 93.3302 53.7989 93.8902 53.7989C94.4502 53.7989 94.8889 53.5936 95.2062 53.1829C95.5235 52.7629 95.6822 52.2076 95.6822 51.5169C95.6822 50.8169 95.5235 50.2616 95.2062 49.8509C94.8889 49.4309 94.4502 49.2209 93.8902 49.2209C93.3302 49.2209 92.8915 49.4309 92.5742 49.8509C92.2569 50.2616 92.0982 50.8169 92.0982 51.5169ZM98.1687 48.0729H99.7647L100.395 51.6429C100.451 51.9696 100.497 52.2962 100.535 52.6229C100.581 52.9496 100.628 53.2809 100.675 53.6169H100.731C100.777 53.2809 100.829 52.9496 100.885 52.6229C100.941 52.2962 101.006 51.9696 101.081 51.6429L101.725 48.7449H102.929L103.573 51.6429C103.647 51.9696 103.713 52.2962 103.769 52.6229C103.834 52.9496 103.895 53.2809 103.951 53.6169H104.007C104.063 53.2809 104.109 52.9496 104.147 52.6229C104.193 52.2962 104.24 51.9696 104.287 51.6429L104.917 48.0729H106.401L105.127 54.9469H103.237L102.635 52.0769C102.579 51.7502 102.523 51.4236 102.467 51.0969C102.42 50.7702 102.369 50.4296 102.313 50.0749H102.257C102.21 50.3456 102.163 50.6396 102.117 50.9569C102.079 51.2649 102.023 51.6429 101.949 52.0909L101.361 54.9469H99.4987L98.1687 48.0729ZM109.461 45.0349H113.465V45.9169H110.707V56.1929H113.465V57.0749H109.461V45.0349ZM122.336 53.6309V54.9469H116.134V53.6309H118.542V47.7789H116.68V46.7709C117.184 46.6869 117.613 46.5889 117.968 46.4769C118.332 46.3556 118.668 46.2109 118.976 46.0429H120.152V53.6309H122.336ZM127.44 56.1929V45.9169H124.696V45.0349H128.7V57.0749H124.696V56.1929H127.44ZM141.149 48.1709H147.365V49.3469H141.149V48.1709ZM141.149 51.2929H147.365V52.4689H141.149V51.2929ZM149.544 48.1709H155.76V49.3469H149.544V48.1709ZM149.544 51.2929H155.76V52.4689H149.544V51.2929ZM166.781 47.1349L166.739 45.3429H168.699L168.657 47.1349L168.237 50.3689H167.201L166.781 47.1349ZM170.239 47.1349L170.197 45.3429H172.157L172.115 47.1349L171.695 50.3689H170.659L170.239 47.1349ZM174.937 45.7909H177.639C178.106 45.7909 178.535 45.8329 178.927 45.9169C179.329 45.9916 179.674 46.1176 179.963 46.2949C180.253 46.4629 180.477 46.6916 180.635 46.9809C180.803 47.2702 180.887 47.6249 180.887 48.0449C180.887 48.4836 180.757 48.8896 180.495 49.2629C180.234 49.6362 179.833 49.8929 179.291 50.0329V50.0889C179.963 50.2009 180.472 50.4389 180.817 50.8029C181.172 51.1576 181.349 51.6429 181.349 52.2589C181.349 52.7162 181.261 53.1129 181.083 53.4489C180.915 53.7849 180.673 54.0649 180.355 54.2889C180.047 54.5129 179.679 54.6809 179.249 54.7929C178.829 54.8956 178.367 54.9469 177.863 54.9469H174.937V45.7909ZM177.485 49.5849C178.129 49.5849 178.591 49.4682 178.871 49.2349C179.151 49.0016 179.291 48.6702 179.291 48.2409C179.291 47.8209 179.142 47.5176 178.843 47.3309C178.554 47.1442 178.115 47.0509 177.527 47.0509H176.561V49.5849H177.485ZM177.695 53.6869C178.367 53.6869 178.881 53.5609 179.235 53.3089C179.59 53.0569 179.767 52.6696 179.767 52.1469C179.767 51.2136 179.077 50.7469 177.695 50.7469H176.561V53.6869H177.695ZM183.024 45.0629H186.804V52.5249C186.804 52.9916 186.921 53.3229 187.154 53.5189C187.387 53.7056 187.681 53.7989 188.036 53.7989C188.372 53.7989 188.764 53.7102 189.212 53.5329L189.59 54.7229C189.263 54.8349 188.955 54.9282 188.666 55.0029C188.386 55.0776 188.045 55.1149 187.644 55.1149C186.832 55.1149 186.221 54.8816 185.81 54.4149C185.399 53.9482 185.194 53.2902 185.194 52.4409V46.3369H183.024V45.0629ZM197.635 54.9469H196.319L196.193 53.8549H196.137C195.81 54.2376 195.451 54.5456 195.059 54.7789C194.667 55.0029 194.214 55.1149 193.701 55.1149C192.898 55.1149 192.315 54.8769 191.951 54.4009C191.587 53.9156 191.405 53.2249 191.405 52.3289V48.0729H193.015V52.1189C193.015 52.6789 193.108 53.0896 193.295 53.3509C193.491 53.6029 193.827 53.7289 194.303 53.7289C194.629 53.7289 194.919 53.6542 195.171 53.5049C195.432 53.3556 195.717 53.0896 196.025 52.7069V48.0729H197.635V54.9469ZM199.687 51.5169C199.687 50.9569 199.785 50.4529 199.981 50.0049C200.186 49.5569 200.452 49.1789 200.779 48.8709C201.106 48.5536 201.479 48.3156 201.899 48.1569C202.328 47.9889 202.767 47.9049 203.215 47.9049C203.728 47.9049 204.181 47.9889 204.573 48.1569C204.974 48.3156 205.31 48.5396 205.581 48.8289C205.852 49.1089 206.057 49.4496 206.197 49.8509C206.337 50.2522 206.407 50.6909 206.407 51.1669C206.407 51.3256 206.398 51.4749 206.379 51.6149C206.37 51.7549 206.356 51.8669 206.337 51.9509H201.339C201.395 52.5669 201.638 53.0429 202.067 53.3789C202.496 53.7056 203.024 53.8689 203.649 53.8689C204.004 53.8689 204.335 53.8222 204.643 53.7289C204.951 53.6262 205.264 53.4862 205.581 53.3089L206.127 54.3169C205.754 54.5502 205.338 54.7416 204.881 54.8909C204.424 55.0402 203.943 55.1149 203.439 55.1149C202.916 55.1149 202.426 55.0356 201.969 54.8769C201.512 54.7089 201.115 54.4709 200.779 54.1629C200.443 53.8549 200.177 53.4816 199.981 53.0429C199.785 52.5949 199.687 52.0862 199.687 51.5169ZM204.923 50.8589C204.923 50.3269 204.783 49.9116 204.503 49.6129C204.223 49.3049 203.808 49.1509 203.257 49.1509C202.79 49.1509 202.375 49.2956 202.011 49.5849C201.647 49.8742 201.418 50.2989 201.325 50.8589H204.923ZM208.754 47.1349L208.712 45.3429H210.672L210.63 47.1349L210.21 50.3689H209.174L208.754 47.1349ZM212.212 47.1349L212.17 45.3429H214.13L214.088 47.1349L213.668 50.3689H212.632L212.212 47.1349Z" fill="#E69F00"/>
<path d="M200.639 66.0729H201.969L202.109 67.6269H202.151C202.506 67.0669 202.93 66.6422 203.425 66.3529C203.929 66.0542 204.48 65.9049 205.077 65.9049C205.357 65.9049 205.595 65.9282 205.791 65.9749C205.996 66.0122 206.202 66.0822 206.407 66.1849L206.071 67.5429C205.847 67.4682 205.646 67.4169 205.469 67.3889C205.301 67.3516 205.086 67.3329 204.825 67.3329C204.349 67.3329 203.892 67.4682 203.453 67.7389C203.014 68.0096 202.618 68.4809 202.263 69.1529V72.9469H200.639V66.0729ZM207.956 69.5169C207.956 68.9476 208.049 68.4389 208.236 67.9909C208.432 67.5429 208.688 67.1649 209.006 66.8569C209.323 66.5489 209.692 66.3156 210.112 66.1569C210.532 65.9889 210.966 65.9049 211.414 65.9049C211.862 65.9049 212.296 65.9889 212.716 66.1569C213.136 66.3156 213.504 66.5489 213.822 66.8569C214.139 67.1649 214.391 67.5429 214.578 67.9909C214.774 68.4389 214.872 68.9476 214.872 69.5169C214.872 70.0862 214.774 70.5949 214.578 71.0429C214.391 71.4909 214.139 71.8689 213.822 72.1769C213.504 72.4849 213.136 72.7182 212.716 72.8769C212.296 73.0356 211.862 73.1149 211.414 73.1149C210.966 73.1149 210.532 73.0356 210.112 72.8769C209.692 72.7182 209.323 72.4849 209.006 72.1769C208.688 71.8689 208.432 71.4909 208.236 71.0429C208.049 70.5949 207.956 70.0862 207.956 69.5169ZM209.622 69.5169C209.622 70.2076 209.78 70.7629 210.098 71.1829C210.415 71.5936 210.854 71.7989 211.414 71.7989C211.974 71.7989 212.412 71.5936 212.73 71.1829C213.047 70.7629 213.206 70.2076 213.206 69.5169C213.206 68.8169 213.047 68.2616 212.73 67.8509C212.412 67.4309 211.974 67.2209 211.414 67.2209C210.854 67.2209 210.415 67.4309 210.098 67.8509C209.78 68.2616 209.622 68.8169 209.622 69.5169ZM215.692 66.0729H217.288L217.918 69.6429C217.974 69.9696 218.021 70.2962 218.058 70.6229C218.105 70.9496 218.151 71.2809 218.198 71.6169H218.254C218.301 71.2809 218.352 70.9496 218.408 70.6229C218.464 70.2962 218.529 69.9696 218.604 69.6429L219.248 66.7449H220.452L221.096 69.6429C221.171 69.9696 221.236 70.2962 221.292 70.6229C221.357 70.9496 221.418 71.2809 221.474 71.6169H221.53C221.586 71.2809 221.633 70.9496 221.67 70.6229C221.717 70.2962 221.763 69.9696 221.81 69.6429L222.44 66.0729H223.924L222.65 72.9469H220.76L220.158 70.0769C220.102 69.7502 220.046 69.4236 219.99 69.0969C219.943 68.7702 219.892 68.4296 219.836 68.0749H219.78C219.733 68.3456 219.687 68.6396 219.64 68.9569C219.603 69.2649 219.547 69.6429 219.472 70.0909L218.884 72.9469H217.022L215.692 66.0729ZM226.985 63.0349H230.989V63.9169H228.231V74.1929H230.989V75.0749H226.985V63.0349ZM236.597 73.1149C235.58 73.1149 234.773 72.7136 234.175 71.9109C233.587 71.1082 233.293 69.9556 233.293 68.4529C233.293 66.9409 233.587 65.8022 234.175 65.0369C234.773 64.2622 235.58 63.8749 236.597 63.8749C237.615 63.8749 238.417 64.2622 239.005 65.0369C239.603 65.8022 239.901 66.9409 239.901 68.4529C239.901 69.9556 239.603 71.1082 239.005 71.9109C238.417 72.7136 237.615 73.1149 236.597 73.1149ZM236.597 65.1349C236.327 65.1349 236.079 65.1956 235.855 65.3169C235.631 65.4289 235.435 65.6156 235.267 65.8769C235.109 66.1382 234.983 66.4836 234.889 66.9129C234.796 67.3329 234.749 67.8462 234.749 68.4529C234.749 69.0596 234.796 69.5822 234.889 70.0209C234.983 70.4502 235.109 70.8002 235.267 71.0709C235.435 71.3416 235.631 71.5422 235.855 71.6729C236.079 71.7942 236.327 71.8549 236.597 71.8549C236.859 71.8549 237.101 71.7942 237.325 71.6729C237.559 71.5422 237.755 71.3416 237.913 71.0709C238.081 70.8002 238.212 70.4502 238.305 70.0209C238.399 69.5822 238.445 69.0596 238.445 68.4529C238.445 67.8462 238.399 67.3329 238.305 66.9129C238.212 66.4836 238.081 66.1382 237.913 65.8769C237.755 65.6156 237.559 65.4289 237.325 65.3169C237.101 65.1956 236.859 65.1349 236.597 65.1349ZM236.597 69.3909C236.327 69.3909 236.098 69.3022 235.911 69.1249C235.725 68.9476 235.631 68.7049 235.631 68.3969C235.631 68.0889 235.725 67.8462 235.911 67.6689C236.098 67.4916 236.327 67.4029 236.597 67.4029C236.868 67.4029 237.097 67.4916 237.283 67.6689C237.47 67.8462 237.563 68.0889 237.563 68.3969C237.563 68.7049 237.47 68.9476 237.283 69.1249C237.097 69.3022 236.868 69.3909 236.597 69.3909ZM244.964 74.1929V63.9169H242.22V63.0349H246.224V75.0749H242.22V74.1929H244.964Z" fill="#EB5757"/>
</svg>
