<svg width="511" height="163" viewBox="0 0 511 163" fill="none" xmlns="http://www.w3.org/2000/svg">
<rect width="511" height="163" fill="white"/>
<path d="M45.982 143.088H49.986V143.97H47.228V154.246H49.986V155.128H45.982V143.088ZM54.6565 145.188L54.6145 143.396H56.5745L56.5325 145.188L56.1125 148.422H55.0765L54.6565 145.188ZM61.7491 150.662C62.0104 151.026 62.2997 151.301 62.6171 151.488C62.9344 151.675 63.2564 151.768 63.5831 151.768C64.1431 151.768 64.5584 151.623 64.8291 151.334C65.0997 151.035 65.2351 150.536 65.2351 149.836V145.202H61.5251V143.844H66.8591V149.976C66.8591 150.415 66.8031 150.83 66.6911 151.222C66.5791 151.605 66.3971 151.941 66.1451 152.23C65.8931 152.519 65.5571 152.748 65.1371 152.916C64.7264 153.084 64.2224 153.168 63.6251 153.168C63.3731 153.168 63.1117 153.14 62.8411 153.084C62.5797 153.028 62.3231 152.939 62.0711 152.818C61.8284 152.697 61.5951 152.543 61.3711 152.356C61.1471 152.16 60.9464 151.927 60.7691 151.656L61.7491 150.662ZM68.9256 149.57C68.9256 149.001 69.0189 148.492 69.2056 148.044C69.4016 147.596 69.6583 147.218 69.9756 146.91C70.2929 146.602 70.6616 146.369 71.0816 146.21C71.5016 146.042 71.9356 145.958 72.3836 145.958C72.8316 145.958 73.2656 146.042 73.6856 146.21C74.1056 146.369 74.4743 146.602 74.7916 146.91C75.1089 147.218 75.3609 147.596 75.5476 148.044C75.7436 148.492 75.8416 149.001 75.8416 149.57C75.8416 150.139 75.7436 150.648 75.5476 151.096C75.3609 151.544 75.1089 151.922 74.7916 152.23C74.4743 152.538 74.1056 152.771 73.6856 152.93C73.2656 153.089 72.8316 153.168 72.3836 153.168C71.9356 153.168 71.5016 153.089 71.0816 152.93C70.6616 152.771 70.2929 152.538 69.9756 152.23C69.6583 151.922 69.4016 151.544 69.2056 151.096C69.0189 150.648 68.9256 150.139 68.9256 149.57ZM70.5916 149.57C70.5916 150.261 70.7503 150.816 71.0676 151.236C71.3849 151.647 71.8236 151.852 72.3836 151.852C72.9436 151.852 73.3823 151.647 73.6996 151.236C74.0169 150.816 74.1756 150.261 74.1756 149.57C74.1756 148.87 74.0169 148.315 73.6996 147.904C73.3823 147.484 72.9436 147.274 72.3836 147.274C71.8236 147.274 71.3849 147.484 71.0676 147.904C70.7503 148.315 70.5916 148.87 70.5916 149.57ZM77.7261 143.116H79.3501V145.664L79.2521 147.134C79.5695 146.817 79.9241 146.541 80.3161 146.308C80.7175 146.075 81.1841 145.958 81.7161 145.958C82.5095 145.958 83.0928 146.201 83.4661 146.686C83.8395 147.162 84.0261 147.848 84.0261 148.744V153H82.4021V148.954C82.4021 148.394 82.3041 147.988 82.1081 147.736C81.9215 147.475 81.5901 147.344 81.1141 147.344C80.7781 147.344 80.4795 147.423 80.2181 147.582C79.9568 147.741 79.6675 147.983 79.3501 148.31V153H77.7261V143.116ZM86.1207 146.126H87.4507L87.5767 147.162H87.6327C87.9593 146.835 88.3187 146.555 88.7107 146.322C89.112 146.079 89.5787 145.958 90.1107 145.958C90.904 145.958 91.4873 146.201 91.8607 146.686C92.234 147.162 92.4207 147.848 92.4207 148.744V153H90.7967V148.954C90.7967 148.394 90.6987 147.988 90.5027 147.736C90.316 147.475 89.9847 147.344 89.5087 147.344C89.1727 147.344 88.874 147.423 88.6127 147.582C88.3513 147.741 88.062 147.983 87.7447 148.31V153H86.1207V146.126ZM96.6292 145.188L96.5872 143.396H98.5472L98.5052 145.188L98.0852 148.422H97.0492L96.6292 145.188ZM104.408 155.044C105.593 154.568 106.19 153.849 106.2 152.888C106.153 152.897 106.088 152.902 106.004 152.902C105.649 152.902 105.341 152.799 105.08 152.594C104.818 152.379 104.688 152.067 104.688 151.656C104.688 151.264 104.818 150.961 105.08 150.746C105.35 150.522 105.668 150.41 106.032 150.41C106.536 150.41 106.914 150.597 107.166 150.97C107.418 151.343 107.544 151.857 107.544 152.51C107.544 153.369 107.31 154.092 106.844 154.68C106.377 155.277 105.705 155.721 104.828 156.01L104.408 155.044ZM121.813 145.188L121.771 143.396H123.731L123.689 145.188L123.269 148.422H122.233L121.813 145.188ZM132.279 149.248L131.957 148.128C131.827 147.643 131.691 147.143 131.551 146.63C131.411 146.117 131.276 145.608 131.145 145.104H131.089C130.959 145.617 130.823 146.131 130.683 146.644C130.553 147.148 130.417 147.643 130.277 148.128L129.955 149.248H132.279ZM132.643 150.522H129.591L128.877 153H127.225L130.193 143.844H132.097L135.065 153H133.343L132.643 150.522ZM136.334 143.116H140.114V150.578C140.114 151.045 140.231 151.376 140.464 151.572C140.697 151.759 140.991 151.852 141.346 151.852C141.682 151.852 142.074 151.763 142.522 151.586L142.9 152.776C142.573 152.888 142.265 152.981 141.976 153.056C141.696 153.131 141.355 153.168 140.954 153.168C140.142 153.168 139.531 152.935 139.12 152.468C138.709 152.001 138.504 151.343 138.504 150.494V144.39H136.334V143.116ZM144.91 146.126H149.502V153H147.892V147.4H144.91V146.126ZM148.578 144.922C148.252 144.922 147.976 144.824 147.752 144.628C147.538 144.432 147.43 144.171 147.43 143.844C147.43 143.517 147.538 143.256 147.752 143.06C147.976 142.855 148.252 142.752 148.578 142.752C148.914 142.752 149.19 142.855 149.404 143.06C149.619 143.256 149.726 143.517 149.726 143.844C149.726 144.171 149.619 144.432 149.404 144.628C149.19 144.824 148.914 144.922 148.578 144.922ZM153.753 151.082C154.145 151.353 154.551 151.567 154.971 151.726C155.4 151.875 155.881 151.95 156.413 151.95C156.954 151.95 157.351 151.875 157.603 151.726C157.855 151.567 157.981 151.367 157.981 151.124C157.981 150.881 157.818 150.681 157.491 150.522C157.164 150.354 156.651 150.177 155.951 149.99C155.624 149.906 155.307 149.803 154.999 149.682C154.691 149.561 154.42 149.421 154.187 149.262C153.954 149.103 153.767 148.921 153.627 148.716C153.487 148.511 153.417 148.277 153.417 148.016C153.417 147.409 153.678 146.915 154.201 146.532C154.724 146.149 155.475 145.958 156.455 145.958C157.015 145.958 157.542 146.051 158.037 146.238C158.532 146.425 158.956 146.635 159.311 146.868L158.569 147.862C158.261 147.657 157.93 147.493 157.575 147.372C157.23 147.241 156.861 147.176 156.469 147.176C155.937 147.176 155.564 147.251 155.349 147.4C155.134 147.54 155.027 147.717 155.027 147.932C155.027 148.053 155.074 148.165 155.167 148.268C155.27 148.361 155.405 148.45 155.573 148.534C155.75 148.609 155.956 148.683 156.189 148.758C156.422 148.833 156.679 148.903 156.959 148.968C157.36 149.071 157.72 149.187 158.037 149.318C158.364 149.439 158.639 149.579 158.863 149.738C159.096 149.897 159.274 150.083 159.395 150.298C159.526 150.513 159.591 150.76 159.591 151.04C159.591 151.339 159.521 151.619 159.381 151.88C159.241 152.132 159.036 152.356 158.765 152.552C158.494 152.739 158.158 152.888 157.757 153C157.356 153.112 156.894 153.168 156.371 153.168C155.727 153.168 155.111 153.065 154.523 152.86C153.935 152.655 153.426 152.403 152.997 152.104L153.753 151.082ZM161.265 149.57C161.265 149.001 161.359 148.492 161.545 148.044C161.741 147.596 161.998 147.218 162.315 146.91C162.633 146.602 163.001 146.369 163.421 146.21C163.841 146.042 164.275 145.958 164.723 145.958C165.171 145.958 165.605 146.042 166.025 146.21C166.445 146.369 166.814 146.602 167.131 146.91C167.449 147.218 167.701 147.596 167.887 148.044C168.083 148.492 168.181 149.001 168.181 149.57C168.181 150.139 168.083 150.648 167.887 151.096C167.701 151.544 167.449 151.922 167.131 152.23C166.814 152.538 166.445 152.771 166.025 152.93C165.605 153.089 165.171 153.168 164.723 153.168C164.275 153.168 163.841 153.089 163.421 152.93C163.001 152.771 162.633 152.538 162.315 152.23C161.998 151.922 161.741 151.544 161.545 151.096C161.359 150.648 161.265 150.139 161.265 149.57ZM162.931 149.57C162.931 150.261 163.09 150.816 163.407 151.236C163.725 151.647 164.163 151.852 164.723 151.852C165.283 151.852 165.722 151.647 166.039 151.236C166.357 150.816 166.515 150.261 166.515 149.57C166.515 148.87 166.357 148.315 166.039 147.904C165.722 147.484 165.283 147.274 164.723 147.274C164.163 147.274 163.725 147.484 163.407 147.904C163.09 148.315 162.931 148.87 162.931 149.57ZM170.066 146.126H171.396L171.522 147.162H171.578C171.905 146.835 172.264 146.555 172.656 146.322C173.057 146.079 173.524 145.958 174.056 145.958C174.849 145.958 175.433 146.201 175.806 146.686C176.179 147.162 176.366 147.848 176.366 148.744V153H174.742V148.954C174.742 148.394 174.644 147.988 174.448 147.736C174.261 147.475 173.93 147.344 173.454 147.344C173.118 147.344 172.819 147.423 172.558 147.582C172.297 147.741 172.007 147.983 171.69 148.31V153H170.066V146.126ZM180.575 145.188L180.533 143.396H182.493L182.451 145.188L182.031 148.422H180.995L180.575 145.188ZM188.353 155.044C189.538 154.568 190.136 153.849 190.145 152.888C190.098 152.897 190.033 152.902 189.949 152.902C189.594 152.902 189.286 152.799 189.025 152.594C188.764 152.379 188.633 152.067 188.633 151.656C188.633 151.264 188.764 150.961 189.025 150.746C189.296 150.522 189.613 150.41 189.977 150.41C190.481 150.41 190.859 150.597 191.111 150.97C191.363 151.343 191.489 151.857 191.489 152.51C191.489 153.369 191.256 154.092 190.789 154.68C190.322 155.277 189.65 155.721 188.773 156.01L188.353 155.044ZM205.758 145.188L205.716 143.396H207.676L207.634 145.188L207.214 148.422H206.178L205.758 145.188ZM211.283 143.844H213.005L214.293 148.45C214.442 148.973 214.573 149.467 214.685 149.934C214.806 150.401 214.946 150.9 215.105 151.432H215.161C215.319 150.9 215.455 150.401 215.567 149.934C215.688 149.467 215.819 148.973 215.959 148.45L217.233 143.844H218.899L216.057 153H214.139L211.283 143.844ZM220.461 146.126H225.053V153H223.443V147.4H220.461V146.126ZM224.129 144.922C223.802 144.922 223.527 144.824 223.303 144.628C223.088 144.432 222.981 144.171 222.981 143.844C222.981 143.517 223.088 143.256 223.303 143.06C223.527 142.855 223.802 142.752 224.129 142.752C224.465 142.752 224.74 142.855 224.955 143.06C225.17 143.256 225.277 143.517 225.277 143.844C225.277 144.171 225.17 144.432 224.955 144.628C224.74 144.824 224.465 144.922 224.129 144.922ZM228.702 149.57C228.702 149.001 228.804 148.492 229.01 148.044C229.224 147.596 229.509 147.218 229.864 146.91C230.218 146.602 230.634 146.369 231.11 146.21C231.586 146.042 232.085 145.958 232.608 145.958C233.168 145.958 233.658 146.051 234.078 146.238C234.507 146.425 234.866 146.653 235.156 146.924L234.386 147.932C234.115 147.717 233.84 147.554 233.56 147.442C233.289 147.33 233 147.274 232.692 147.274C232.001 147.274 231.441 147.484 231.012 147.904C230.582 148.315 230.368 148.87 230.368 149.57C230.368 149.915 230.424 150.228 230.536 150.508C230.648 150.788 230.802 151.031 230.998 151.236C231.203 151.432 231.446 151.586 231.726 151.698C232.006 151.801 232.314 151.852 232.65 151.852C233.042 151.852 233.396 151.777 233.714 151.628C234.04 151.479 234.339 151.301 234.61 151.096L235.282 152.132C234.89 152.477 234.451 152.739 233.966 152.916C233.48 153.084 232.99 153.168 232.496 153.168C231.954 153.168 231.45 153.089 230.984 152.93C230.526 152.771 230.125 152.538 229.78 152.23C229.444 151.922 229.178 151.544 228.982 151.096C228.795 150.648 228.702 150.139 228.702 149.57ZM237.334 143.116H238.958V149.304H239.014L242.108 146.126H243.9L241.24 148.898L244.194 153H242.43L240.274 149.892L238.958 151.208V153H237.334V143.116ZM245.715 154.428C245.808 154.456 245.901 154.479 245.995 154.498C246.088 154.517 246.186 154.526 246.289 154.526C246.727 154.526 247.077 154.414 247.339 154.19C247.6 153.975 247.801 153.695 247.941 153.35L248.109 152.916L245.029 146.126H246.639L248.053 149.5C248.183 149.808 248.309 150.135 248.431 150.48C248.552 150.825 248.678 151.171 248.809 151.516H248.865C248.967 151.189 249.079 150.853 249.201 150.508C249.322 150.163 249.439 149.827 249.551 149.5L250.797 146.126H252.323L249.453 153.308C249.303 153.7 249.135 154.05 248.949 154.358C248.771 154.666 248.561 154.927 248.319 155.142C248.076 155.366 247.796 155.534 247.479 155.646C247.161 155.767 246.797 155.828 246.387 155.828C246.2 155.828 246.023 155.814 245.855 155.786C245.687 155.767 245.537 155.735 245.407 155.688L245.715 154.428ZM256.125 145.188L256.083 143.396H258.043L258.001 145.188L257.581 148.422H256.545L256.125 145.188ZM263.904 155.044C265.089 154.568 265.686 153.849 265.696 152.888C265.649 152.897 265.584 152.902 265.5 152.902C265.145 152.902 264.837 152.799 264.576 152.594C264.314 152.379 264.184 152.067 264.184 151.656C264.184 151.264 264.314 150.961 264.576 150.746C264.846 150.522 265.164 150.41 265.528 150.41C266.032 150.41 266.41 150.597 266.662 150.97C266.914 151.343 267.04 151.857 267.04 152.51C267.04 153.369 266.806 154.092 266.34 154.68C265.873 155.277 265.201 155.721 264.324 156.01L263.904 155.044ZM281.309 145.188L281.267 143.396H283.227L283.185 145.188L282.765 148.422H281.729L281.309 145.188ZM287.659 143.844H290.739C291.243 143.844 291.705 143.891 292.125 143.984C292.555 144.077 292.923 144.236 293.231 144.46C293.549 144.684 293.791 144.978 293.959 145.342C294.137 145.697 294.225 146.14 294.225 146.672C294.225 147.176 294.137 147.615 293.959 147.988C293.782 148.361 293.535 148.674 293.217 148.926C292.909 149.169 292.541 149.351 292.111 149.472C291.691 149.584 291.234 149.64 290.739 149.64H289.283V153H287.659V143.844ZM290.613 148.338C291.957 148.338 292.629 147.783 292.629 146.672C292.629 146.093 292.461 145.697 292.125 145.482C291.789 145.258 291.285 145.146 290.613 145.146H289.283V148.338H290.613ZM295.704 149.57C295.704 149.01 295.802 148.506 295.998 148.058C296.203 147.61 296.469 147.232 296.796 146.924C297.123 146.607 297.496 146.369 297.916 146.21C298.345 146.042 298.784 145.958 299.232 145.958C299.745 145.958 300.198 146.042 300.59 146.21C300.991 146.369 301.327 146.593 301.598 146.882C301.869 147.162 302.074 147.503 302.214 147.904C302.354 148.305 302.424 148.744 302.424 149.22C302.424 149.379 302.415 149.528 302.396 149.668C302.387 149.808 302.373 149.92 302.354 150.004H297.356C297.412 150.62 297.655 151.096 298.084 151.432C298.513 151.759 299.041 151.922 299.666 151.922C300.021 151.922 300.352 151.875 300.66 151.782C300.968 151.679 301.281 151.539 301.598 151.362L302.144 152.37C301.771 152.603 301.355 152.795 300.898 152.944C300.441 153.093 299.96 153.168 299.456 153.168C298.933 153.168 298.443 153.089 297.986 152.93C297.529 152.762 297.132 152.524 296.796 152.216C296.46 151.908 296.194 151.535 295.998 151.096C295.802 150.648 295.704 150.139 295.704 149.57ZM300.94 148.912C300.94 148.38 300.8 147.965 300.52 147.666C300.24 147.358 299.825 147.204 299.274 147.204C298.807 147.204 298.392 147.349 298.028 147.638C297.664 147.927 297.435 148.352 297.342 148.912H300.94ZM305.05 146.126H306.38L306.52 147.68H306.562C306.917 147.12 307.342 146.695 307.836 146.406C308.34 146.107 308.891 145.958 309.488 145.958C309.768 145.958 310.006 145.981 310.202 146.028C310.408 146.065 310.613 146.135 310.818 146.238L310.482 147.596C310.258 147.521 310.058 147.47 309.88 147.442C309.712 147.405 309.498 147.386 309.236 147.386C308.76 147.386 308.303 147.521 307.864 147.792C307.426 148.063 307.029 148.534 306.674 149.206V153H305.05V146.126ZM313.445 146.126H314.775L314.915 147.68H314.957C315.312 147.12 315.736 146.695 316.231 146.406C316.735 146.107 317.286 145.958 317.883 145.958C318.163 145.958 318.401 145.981 318.597 146.028C318.802 146.065 319.008 146.135 319.213 146.238L318.877 147.596C318.653 147.521 318.452 147.47 318.275 147.442C318.107 147.405 317.892 147.386 317.631 147.386C317.155 147.386 316.698 147.521 316.259 147.792C315.82 148.063 315.424 148.534 315.069 149.206V153H313.445V146.126ZM321.266 154.428C321.359 154.456 321.452 154.479 321.546 154.498C321.639 154.517 321.737 154.526 321.84 154.526C322.278 154.526 322.628 154.414 322.89 154.19C323.151 153.975 323.352 153.695 323.492 153.35L323.66 152.916L320.58 146.126H322.19L323.604 149.5C323.734 149.808 323.86 150.135 323.982 150.48C324.103 150.825 324.229 151.171 324.36 151.516H324.416C324.518 151.189 324.63 150.853 324.752 150.508C324.873 150.163 324.99 149.827 325.102 149.5L326.348 146.126H327.874L325.004 153.308C324.854 153.7 324.686 154.05 324.5 154.358C324.322 154.666 324.112 154.927 323.87 155.142C323.627 155.366 323.347 155.534 323.03 155.646C322.712 155.767 322.348 155.828 321.938 155.828C321.751 155.828 321.574 155.814 321.406 155.786C321.238 155.767 321.088 155.735 320.958 155.688L321.266 154.428ZM331.676 145.188L331.634 143.396H333.594L333.552 145.188L333.132 148.422H332.096L331.676 145.188ZM340.981 154.246V143.97H338.237V143.088H342.241V155.128H338.237V154.246H340.981Z" fill="#2E383C"/>
<path d="M40 87H470.473V129H40V87Z" fill="#F1F4F8"/>
<path d="M48.858 97.7985H50.188L50.314 98.8345H50.37C50.6966 98.5079 51.056 98.2279 51.448 97.9945C51.8493 97.7519 52.316 97.6305 52.848 97.6305C53.6413 97.6305 54.2246 97.8732 54.598 98.3585C54.9713 98.8345 55.158 99.5205 55.158 100.417V104.673H53.534V100.627C53.534 100.067 53.436 99.6605 53.24 99.4085C53.0533 99.1472 52.722 99.0165 52.246 99.0165C51.91 99.0165 51.6113 99.0959 51.35 99.2545C51.0886 99.4132 50.7993 99.6559 50.482 99.9825V104.673H48.858V97.7985ZM57.0985 102.825C57.0985 102.442 57.1872 102.106 57.3645 101.817C57.5418 101.518 57.8218 101.266 58.2045 101.061C58.5872 100.855 59.0772 100.687 59.6745 100.557C60.2718 100.426 60.9952 100.333 61.8445 100.277C61.8165 99.8845 61.6765 99.5625 61.4245 99.3105C61.1725 99.0585 60.7665 98.9325 60.2065 98.9325C59.8145 98.9325 59.4272 99.0072 59.0445 99.1565C58.6712 99.2965 58.3072 99.4645 57.9525 99.6605L57.3645 98.5825C57.7845 98.3399 58.2652 98.1205 58.8065 97.9245C59.3478 97.7285 59.9125 97.6305 60.5005 97.6305C61.4618 97.6305 62.1945 97.8872 62.6985 98.4005C63.2025 98.9045 63.4545 99.6372 63.4545 100.599V104.673H62.1385L62.0125 103.819H61.9705C61.6065 104.099 61.2005 104.341 60.7525 104.547C60.3138 104.743 59.8612 104.841 59.3945 104.841C59.0585 104.841 58.7505 104.789 58.4705 104.687C58.1905 104.593 57.9478 104.458 57.7425 104.281C57.5372 104.103 57.3785 103.893 57.2665 103.651C57.1545 103.399 57.0985 103.123 57.0985 102.825ZM58.6525 102.699C58.6525 103.007 58.7692 103.231 59.0025 103.371C59.2452 103.511 59.5392 103.581 59.8845 103.581C60.2298 103.581 60.5612 103.506 60.8785 103.357C61.2052 103.198 61.5272 102.993 61.8445 102.741V101.285C61.2285 101.331 60.7152 101.397 60.3045 101.481C59.8938 101.555 59.5672 101.653 59.3245 101.775C59.0818 101.896 58.9092 102.036 58.8065 102.195C58.7038 102.344 58.6525 102.512 58.6525 102.699ZM65.171 97.7985H66.389L66.515 98.6805H66.557C66.7157 98.3819 66.907 98.1345 67.131 97.9385C67.3644 97.7332 67.677 97.6305 68.069 97.6305C68.741 97.6305 69.161 98.0132 69.329 98.7785C69.4877 98.4519 69.6884 98.1812 69.931 97.9665C70.183 97.7425 70.5004 97.6305 70.883 97.6305C71.3684 97.6305 71.7417 97.8219 72.003 98.2045C72.2737 98.5779 72.409 99.1099 72.409 99.8005V104.673H70.883V99.9265C70.883 99.3199 70.6917 99.0165 70.309 99.0165C70.1224 99.0165 69.959 99.0865 69.819 99.2265C69.679 99.3665 69.5437 99.5812 69.413 99.8705V104.673H68.153V99.9265C68.153 99.3199 67.957 99.0165 67.565 99.0165C67.3784 99.0165 67.2197 99.0865 67.089 99.2265C66.9584 99.3665 66.8277 99.5812 66.697 99.8705V104.673H65.171V97.7985ZM73.7616 101.243C73.7616 100.683 73.8596 100.179 74.0556 99.7305C74.2609 99.2825 74.5269 98.9045 74.8536 98.5965C75.1802 98.2792 75.5536 98.0412 75.9736 97.8825C76.4029 97.7145 76.8416 97.6305 77.2896 97.6305C77.8029 97.6305 78.2556 97.7145 78.6476 97.8825C79.0489 98.0412 79.3849 98.2652 79.6556 98.5545C79.9262 98.8345 80.1316 99.1752 80.2716 99.5765C80.4116 99.9779 80.4816 100.417 80.4816 100.893C80.4816 101.051 80.4722 101.201 80.4536 101.341C80.4442 101.481 80.4302 101.593 80.4116 101.677H75.4136C75.4696 102.293 75.7122 102.769 76.1416 103.105C76.5709 103.431 77.0982 103.595 77.7236 103.595C78.0782 103.595 78.4096 103.548 78.7176 103.455C79.0256 103.352 79.3382 103.212 79.6556 103.035L80.2016 104.043C79.8282 104.276 79.4129 104.467 78.9556 104.617C78.4982 104.766 78.0176 104.841 77.5136 104.841C76.9909 104.841 76.5009 104.761 76.0436 104.603C75.5862 104.435 75.1896 104.197 74.8536 103.889C74.5176 103.581 74.2516 103.207 74.0556 102.769C73.8596 102.321 73.7616 101.812 73.7616 101.243ZM78.9976 100.585C78.9976 100.053 78.8576 99.6372 78.5776 99.3385C78.2976 99.0305 77.8822 98.8765 77.3316 98.8765C76.8649 98.8765 76.4496 99.0212 76.0856 99.3105C75.7216 99.5999 75.4929 100.025 75.3996 100.585H78.9976ZM82.9121 102.755C83.3041 103.025 83.7101 103.24 84.1301 103.399C84.5594 103.548 85.0401 103.623 85.5721 103.623C86.1134 103.623 86.5101 103.548 86.7621 103.399C87.0141 103.24 87.1401 103.039 87.1401 102.797C87.1401 102.554 86.9768 102.353 86.6501 102.195C86.3234 102.027 85.8101 101.849 85.1101 101.663C84.7834 101.579 84.4661 101.476 84.1581 101.355C83.8501 101.233 83.5794 101.093 83.3461 100.935C83.1128 100.776 82.9261 100.594 82.7861 100.389C82.6461 100.183 82.5761 99.9499 82.5761 99.6885C82.5761 99.0819 82.8374 98.5872 83.3601 98.2045C83.8828 97.8219 84.6341 97.6305 85.6141 97.6305C86.1741 97.6305 86.7014 97.7239 87.1961 97.9105C87.6908 98.0972 88.1154 98.3072 88.4701 98.5405L87.7281 99.5345C87.4201 99.3292 87.0888 99.1659 86.7341 99.0445C86.3888 98.9139 86.0201 98.8485 85.6281 98.8485C85.0961 98.8485 84.7228 98.9232 84.5081 99.0725C84.2934 99.2125 84.1861 99.3899 84.1861 99.6045C84.1861 99.7259 84.2328 99.8379 84.3261 99.9405C84.4288 100.034 84.5641 100.123 84.7321 100.207C84.9094 100.281 85.1148 100.356 85.3481 100.431C85.5814 100.505 85.8381 100.575 86.1181 100.641C86.5194 100.743 86.8788 100.86 87.1961 100.991C87.5228 101.112 87.7981 101.252 88.0221 101.411C88.2554 101.569 88.4328 101.756 88.5541 101.971C88.6848 102.185 88.7501 102.433 88.7501 102.713C88.7501 103.011 88.6801 103.291 88.5401 103.553C88.4001 103.805 88.1948 104.029 87.9241 104.225C87.6534 104.411 87.3174 104.561 86.9161 104.673C86.5148 104.785 86.0528 104.841 85.5301 104.841C84.8861 104.841 84.2701 104.738 83.6821 104.533C83.0941 104.327 82.5854 104.075 82.1561 103.777L82.9121 102.755Z" fill="#009E73"/>
<path d="M99.1691 97.8965H105.385V99.0725H99.1691V97.8965ZM99.1691 101.019H105.385V102.195H99.1691V101.019ZM117.848 94.7605H121.852V95.6425H119.094V105.919H121.852V106.801H117.848V94.7605ZM337.296 105.919V95.6425H334.552V94.7605H338.556V106.801H334.552V105.919H337.296ZM50.482 122.233V124.389H48.858V114.799H50.188L50.314 115.583H50.356C50.6546 115.312 50.9953 115.088 51.378 114.911C51.77 114.724 52.162 114.631 52.554 114.631C53.002 114.631 53.3986 114.715 53.744 114.883C54.0986 115.041 54.3926 115.275 54.626 115.583C54.8686 115.891 55.0506 116.259 55.172 116.689C55.3026 117.118 55.368 117.599 55.368 118.131C55.368 118.719 55.284 119.246 55.116 119.713C54.948 120.17 54.7193 120.557 54.43 120.875C54.15 121.183 53.8233 121.421 53.45 121.589C53.086 121.757 52.708 121.841 52.316 121.841C51.9986 121.841 51.672 121.771 51.336 121.631C51.0093 121.491 50.706 121.29 50.426 121.029L50.482 122.233ZM50.482 119.881C50.734 120.114 50.9906 120.277 51.252 120.371C51.5226 120.464 51.7653 120.511 51.98 120.511C52.4746 120.511 52.8853 120.315 53.212 119.923C53.5386 119.521 53.702 118.929 53.702 118.145C53.702 117.454 53.576 116.917 53.324 116.535C53.072 116.152 52.666 115.961 52.106 115.961C51.8446 115.961 51.5786 116.026 51.308 116.157C51.0373 116.287 50.762 116.497 50.482 116.787V119.881ZM57.9245 114.799H59.2545L59.3945 116.353H59.4365C59.7912 115.793 60.2158 115.368 60.7105 115.079C61.2145 114.78 61.7652 114.631 62.3625 114.631C62.6425 114.631 62.8805 114.654 63.0765 114.701C63.2818 114.738 63.4872 114.808 63.6925 114.911L63.3565 116.269C63.1325 116.194 62.9318 116.143 62.7545 116.115C62.5865 116.077 62.3718 116.059 62.1105 116.059C61.6345 116.059 61.1772 116.194 60.7385 116.465C60.2998 116.735 59.9032 117.207 59.5485 117.879V121.673H57.9245V114.799ZM65.675 114.799H70.267V121.673H68.657V116.073H65.675V114.799ZM69.343 113.595C69.0164 113.595 68.741 113.497 68.517 113.301C68.3024 113.105 68.195 112.843 68.195 112.517C68.195 112.19 68.3024 111.929 68.517 111.733C68.741 111.527 69.0164 111.425 69.343 111.425C69.679 111.425 69.9544 111.527 70.169 111.733C70.3837 111.929 70.491 112.19 70.491 112.517C70.491 112.843 70.3837 113.105 70.169 113.301C69.9544 113.497 69.679 113.595 69.343 113.595ZM74.0416 114.799H75.3716L75.4976 115.835H75.5536C75.8802 115.508 76.2396 115.228 76.6316 114.995C77.0329 114.752 77.4996 114.631 78.0316 114.631C78.8249 114.631 79.4082 114.873 79.7816 115.359C80.1549 115.835 80.3416 116.521 80.3416 117.417V121.673H78.7176V117.627C78.7176 117.067 78.6196 116.661 78.4236 116.409C78.2369 116.147 77.9056 116.017 77.4296 116.017C77.0936 116.017 76.7949 116.096 76.5336 116.255C76.2722 116.413 75.9829 116.656 75.6656 116.983V121.673H74.0416V114.799ZM83.9481 116.073H82.1141V114.869L84.0181 114.799L84.2281 112.923H85.5581V114.799H88.6941V116.073H85.5581V118.901C85.5581 119.47 85.6748 119.89 85.9081 120.161C86.1414 120.422 86.5521 120.553 87.1401 120.553C87.4388 120.553 87.7094 120.529 87.9521 120.483C88.1948 120.427 88.4281 120.357 88.6521 120.273L88.9601 121.449C88.6521 121.551 88.3114 121.64 87.9381 121.715C87.5648 121.799 87.1681 121.841 86.7481 121.841C86.2254 121.841 85.7868 121.771 85.4321 121.631C85.0774 121.491 84.7881 121.295 84.5641 121.043C84.3494 120.781 84.1908 120.469 84.0881 120.105C83.9948 119.741 83.9481 119.339 83.9481 118.901V116.073ZM95.4506 124.151C94.508 123.367 93.7613 122.443 93.2106 121.379C92.6693 120.315 92.3986 119.115 92.3986 117.781C92.3986 116.446 92.6693 115.247 93.2106 114.183C93.7613 113.119 94.508 112.195 95.4506 111.411L96.3466 112.153C95.46 112.955 94.8113 113.809 94.4006 114.715C93.99 115.62 93.7846 116.642 93.7846 117.781C93.7846 118.919 93.99 119.941 94.4006 120.847C94.8113 121.752 95.46 122.606 96.3466 123.409L95.4506 124.151ZM99.2251 114.799H100.555L100.681 115.835H100.737C101.064 115.508 101.423 115.228 101.815 114.995C102.216 114.752 102.683 114.631 103.215 114.631C104.008 114.631 104.592 114.873 104.965 115.359C105.338 115.835 105.525 116.521 105.525 117.417V121.673H103.901V117.627C103.901 117.067 103.803 116.661 103.607 116.409C103.42 116.147 103.089 116.017 102.613 116.017C102.277 116.017 101.978 116.096 101.717 116.255C101.456 116.413 101.166 116.656 100.849 116.983V121.673H99.2251V114.799ZM107.466 119.825C107.466 119.442 107.554 119.106 107.732 118.817C107.909 118.518 108.189 118.266 108.572 118.061C108.954 117.855 109.444 117.687 110.042 117.557C110.639 117.426 111.362 117.333 112.212 117.277C112.184 116.885 112.044 116.563 111.792 116.311C111.54 116.059 111.134 115.933 110.574 115.933C110.182 115.933 109.794 116.007 109.412 116.157C109.038 116.297 108.674 116.465 108.32 116.661L107.732 115.583C108.152 115.34 108.632 115.121 109.174 114.925C109.715 114.729 110.28 114.631 110.868 114.631C111.829 114.631 112.562 114.887 113.066 115.401C113.57 115.905 113.822 116.637 113.822 117.599V121.673H112.506L112.38 120.819H112.338C111.974 121.099 111.568 121.341 111.12 121.547C110.681 121.743 110.228 121.841 109.762 121.841C109.426 121.841 109.118 121.789 108.838 121.687C108.558 121.593 108.315 121.458 108.11 121.281C107.904 121.103 107.746 120.893 107.634 120.651C107.522 120.399 107.466 120.123 107.466 119.825ZM109.02 119.699C109.02 120.007 109.136 120.231 109.37 120.371C109.612 120.511 109.906 120.581 110.252 120.581C110.597 120.581 110.928 120.506 111.246 120.357C111.572 120.198 111.894 119.993 112.212 119.741V118.285C111.596 118.331 111.082 118.397 110.672 118.481C110.261 118.555 109.934 118.653 109.692 118.775C109.449 118.896 109.276 119.036 109.174 119.195C109.071 119.344 109.02 119.512 109.02 119.699ZM115.538 114.799H116.756L116.882 115.681H116.924C117.083 115.382 117.274 115.135 117.498 114.939C117.732 114.733 118.044 114.631 118.436 114.631C119.108 114.631 119.528 115.013 119.696 115.779C119.855 115.452 120.056 115.181 120.298 114.967C120.55 114.743 120.868 114.631 121.25 114.631C121.736 114.631 122.109 114.822 122.37 115.205C122.641 115.578 122.776 116.11 122.776 116.801V121.673H121.25V116.927C121.25 116.32 121.059 116.017 120.676 116.017C120.49 116.017 120.326 116.087 120.186 116.227C120.046 116.367 119.911 116.581 119.78 116.871V121.673H118.52V116.927C118.52 116.32 118.324 116.017 117.932 116.017C117.746 116.017 117.587 116.087 117.456 116.227C117.326 116.367 117.195 116.581 117.064 116.871V121.673H115.538V114.799ZM124.129 118.243C124.129 117.683 124.227 117.179 124.423 116.731C124.628 116.283 124.894 115.905 125.221 115.597C125.547 115.279 125.921 115.041 126.341 114.883C126.77 114.715 127.209 114.631 127.657 114.631C128.17 114.631 128.623 114.715 129.015 114.883C129.416 115.041 129.752 115.265 130.023 115.555C130.293 115.835 130.499 116.175 130.639 116.577C130.779 116.978 130.849 117.417 130.849 117.893C130.849 118.051 130.839 118.201 130.821 118.341C130.811 118.481 130.797 118.593 130.779 118.677H125.781C125.837 119.293 126.079 119.769 126.509 120.105C126.938 120.431 127.465 120.595 128.091 120.595C128.445 120.595 128.777 120.548 129.085 120.455C129.393 120.352 129.705 120.212 130.023 120.035L130.569 121.043C130.195 121.276 129.78 121.467 129.323 121.617C128.865 121.766 128.385 121.841 127.881 121.841C127.358 121.841 126.868 121.761 126.411 121.603C125.953 121.435 125.557 121.197 125.221 120.889C124.885 120.581 124.619 120.207 124.423 119.769C124.227 119.321 124.129 118.812 124.129 118.243ZM129.365 117.585C129.365 117.053 129.225 116.637 128.945 116.339C128.665 116.031 128.249 115.877 127.699 115.877C127.232 115.877 126.817 116.021 126.453 116.311C126.089 116.6 125.86 117.025 125.767 117.585H129.365ZM133.279 119.755C133.671 120.025 134.077 120.24 134.497 120.399C134.927 120.548 135.407 120.623 135.939 120.623C136.481 120.623 136.877 120.548 137.129 120.399C137.381 120.24 137.507 120.039 137.507 119.797C137.507 119.554 137.344 119.353 137.017 119.195C136.691 119.027 136.177 118.849 135.477 118.663C135.151 118.579 134.833 118.476 134.525 118.355C134.217 118.233 133.947 118.093 133.713 117.935C133.48 117.776 133.293 117.594 133.153 117.389C133.013 117.183 132.943 116.95 132.943 116.689C132.943 116.082 133.205 115.587 133.727 115.205C134.25 114.822 135.001 114.631 135.981 114.631C136.541 114.631 137.069 114.724 137.563 114.911C138.058 115.097 138.483 115.307 138.837 115.541L138.095 116.535C137.787 116.329 137.456 116.166 137.101 116.045C136.756 115.914 136.387 115.849 135.995 115.849C135.463 115.849 135.09 115.923 134.875 116.073C134.661 116.213 134.553 116.39 134.553 116.605C134.553 116.726 134.6 116.838 134.693 116.941C134.796 117.034 134.931 117.123 135.099 117.207C135.277 117.281 135.482 117.356 135.715 117.431C135.949 117.505 136.205 117.575 136.485 117.641C136.887 117.743 137.246 117.86 137.563 117.991C137.89 118.112 138.165 118.252 138.389 118.411C138.623 118.569 138.8 118.756 138.921 118.971C139.052 119.185 139.117 119.433 139.117 119.713C139.117 120.011 139.047 120.291 138.907 120.553C138.767 120.805 138.562 121.029 138.291 121.225C138.021 121.411 137.685 121.561 137.283 121.673C136.882 121.785 136.42 121.841 135.897 121.841C135.253 121.841 134.637 121.738 134.049 121.533C133.461 121.327 132.953 121.075 132.523 120.777L133.279 119.755ZM141.786 123.409C142.672 122.606 143.321 121.752 143.732 120.847C144.142 119.941 144.348 118.919 144.348 117.781C144.348 116.642 144.142 115.62 143.732 114.715C143.321 113.809 142.672 112.955 141.786 112.153L142.682 111.411C143.624 112.195 144.366 113.119 144.908 114.183C145.458 115.247 145.734 116.446 145.734 117.781C145.734 119.115 145.458 120.315 144.908 121.379C144.366 122.443 143.624 123.367 142.682 124.151L141.786 123.409Z" fill="#2E383C"/>
<path d="M125.081 97.7985H126.411L126.551 99.3525H126.593C126.947 98.7925 127.372 98.3679 127.867 98.0785C128.371 97.7799 128.921 97.6305 129.519 97.6305C129.799 97.6305 130.037 97.6539 130.233 97.7005C130.438 97.7379 130.643 97.8079 130.849 97.9105L130.513 99.2685C130.289 99.1939 130.088 99.1425 129.911 99.1145C129.743 99.0772 129.528 99.0585 129.267 99.0585C128.791 99.0585 128.333 99.1939 127.895 99.4645C127.456 99.7352 127.059 100.207 126.705 100.879V104.673H125.081V97.7985ZM132.397 101.243C132.397 100.673 132.491 100.165 132.677 99.7165C132.873 99.2685 133.13 98.8905 133.447 98.5825C133.765 98.2745 134.133 98.0412 134.553 97.8825C134.973 97.7145 135.407 97.6305 135.855 97.6305C136.303 97.6305 136.737 97.7145 137.157 97.8825C137.577 98.0412 137.946 98.2745 138.263 98.5825C138.581 98.8905 138.833 99.2685 139.019 99.7165C139.215 100.165 139.313 100.673 139.313 101.243C139.313 101.812 139.215 102.321 139.019 102.769C138.833 103.217 138.581 103.595 138.263 103.903C137.946 104.211 137.577 104.444 137.157 104.603C136.737 104.761 136.303 104.841 135.855 104.841C135.407 104.841 134.973 104.761 134.553 104.603C134.133 104.444 133.765 104.211 133.447 103.903C133.13 103.595 132.873 103.217 132.677 102.769C132.491 102.321 132.397 101.812 132.397 101.243ZM134.063 101.243C134.063 101.933 134.222 102.489 134.539 102.909C134.857 103.319 135.295 103.525 135.855 103.525C136.415 103.525 136.854 103.319 137.171 102.909C137.489 102.489 137.647 101.933 137.647 101.243C137.647 100.543 137.489 99.9872 137.171 99.5765C136.854 99.1565 136.415 98.9465 135.855 98.9465C135.295 98.9465 134.857 99.1565 134.539 99.5765C134.222 99.9872 134.063 100.543 134.063 101.243ZM140.134 97.7985H141.73L142.36 101.369C142.416 101.695 142.462 102.022 142.5 102.349C142.546 102.675 142.593 103.007 142.64 103.343H142.696C142.742 103.007 142.794 102.675 142.85 102.349C142.906 102.022 142.971 101.695 143.046 101.369L143.69 98.4705H144.894L145.538 101.369C145.612 101.695 145.678 102.022 145.734 102.349C145.799 102.675 145.86 103.007 145.916 103.343H145.972C146.028 103.007 146.074 102.675 146.112 102.349C146.158 102.022 146.205 101.695 146.252 101.369L146.882 97.7985H148.366L147.092 104.673H145.202L144.6 101.803C144.544 101.476 144.488 101.149 144.432 100.823C144.385 100.496 144.334 100.155 144.278 99.8005H144.222C144.175 100.071 144.128 100.365 144.082 100.683C144.044 100.991 143.988 101.369 143.914 101.817L143.326 104.673H141.464L140.134 97.7985ZM151.426 94.7605H155.43V95.6425H152.672V105.919H155.43V106.801H151.426V94.7605ZM161.039 104.841C160.022 104.841 159.214 104.439 158.617 103.637C158.029 102.834 157.735 101.681 157.735 100.179C157.735 98.6665 158.029 97.5279 158.617 96.7625C159.214 95.9879 160.022 95.6005 161.039 95.6005C162.056 95.6005 162.859 95.9879 163.447 96.7625C164.044 97.5279 164.343 98.6665 164.343 100.179C164.343 101.681 164.044 102.834 163.447 103.637C162.859 104.439 162.056 104.841 161.039 104.841ZM161.039 96.8605C160.768 96.8605 160.521 96.9212 160.297 97.0425C160.073 97.1545 159.877 97.3412 159.709 97.6025C159.55 97.8639 159.424 98.2092 159.331 98.6385C159.238 99.0585 159.191 99.5719 159.191 100.179C159.191 100.785 159.238 101.308 159.331 101.747C159.424 102.176 159.55 102.526 159.709 102.797C159.877 103.067 160.073 103.268 160.297 103.399C160.521 103.52 160.768 103.581 161.039 103.581C161.3 103.581 161.543 103.52 161.767 103.399C162 103.268 162.196 103.067 162.355 102.797C162.523 102.526 162.654 102.176 162.747 101.747C162.84 101.308 162.887 100.785 162.887 100.179C162.887 99.5719 162.84 99.0585 162.747 98.6385C162.654 98.2092 162.523 97.8639 162.355 97.6025C162.196 97.3412 162 97.1545 161.767 97.0425C161.543 96.9212 161.3 96.8605 161.039 96.8605ZM161.039 101.117C160.768 101.117 160.54 101.028 160.353 100.851C160.166 100.673 160.073 100.431 160.073 100.123C160.073 99.8145 160.166 99.5719 160.353 99.3945C160.54 99.2172 160.768 99.1285 161.039 99.1285C161.31 99.1285 161.538 99.2172 161.725 99.3945C161.912 99.5719 162.005 99.8145 162.005 100.123C162.005 100.431 161.912 100.673 161.725 100.851C161.538 101.028 161.31 101.117 161.039 101.117ZM169.405 105.919V95.6425H166.661V94.7605H170.665V106.801H166.661V105.919H169.405Z" fill="#EB5757"/>
<path d="M189.834 96.1885C189.582 96.0859 189.335 96.0112 189.092 95.9645C188.859 95.9179 188.602 95.8945 188.322 95.8945C187.79 95.8945 187.403 96.0252 187.16 96.2865C186.927 96.5385 186.81 96.9072 186.81 97.3925V97.7985H189.428V99.0725H186.81V104.673H185.214V99.0725H183.31V97.8685L185.214 97.7985V97.4205C185.214 97.0192 185.27 96.6459 185.382 96.3005C185.494 95.9552 185.667 95.6612 185.9 95.4185C186.143 95.1665 186.446 94.9705 186.81 94.8305C187.184 94.6905 187.622 94.6205 188.126 94.6205C188.5 94.6205 188.854 94.6532 189.19 94.7185C189.536 94.7839 189.862 94.8772 190.17 94.9985L189.834 96.1885ZM191.159 101.243C191.159 100.673 191.252 100.165 191.439 99.7165C191.635 99.2685 191.892 98.8905 192.209 98.5825C192.526 98.2745 192.895 98.0412 193.315 97.8825C193.735 97.7145 194.169 97.6305 194.617 97.6305C195.065 97.6305 195.499 97.7145 195.919 97.8825C196.339 98.0412 196.708 98.2745 197.025 98.5825C197.342 98.8905 197.594 99.2685 197.781 99.7165C197.977 100.165 198.075 100.673 198.075 101.243C198.075 101.812 197.977 102.321 197.781 102.769C197.594 103.217 197.342 103.595 197.025 103.903C196.708 104.211 196.339 104.444 195.919 104.603C195.499 104.761 195.065 104.841 194.617 104.841C194.169 104.841 193.735 104.761 193.315 104.603C192.895 104.444 192.526 104.211 192.209 103.903C191.892 103.595 191.635 103.217 191.439 102.769C191.252 102.321 191.159 101.812 191.159 101.243ZM192.825 101.243C192.825 101.933 192.984 102.489 193.301 102.909C193.618 103.319 194.057 103.525 194.617 103.525C195.177 103.525 195.616 103.319 195.933 102.909C196.25 102.489 196.409 101.933 196.409 101.243C196.409 100.543 196.25 99.9872 195.933 99.5765C195.616 99.1565 195.177 98.9465 194.617 98.9465C194.057 98.9465 193.618 99.1565 193.301 99.5765C192.984 99.9872 192.825 100.543 192.825 101.243ZM200.632 97.7985H201.962L202.102 99.3525H202.144C202.498 98.7925 202.923 98.3679 203.418 98.0785C203.922 97.7799 204.472 97.6305 205.07 97.6305C205.35 97.6305 205.588 97.6539 205.784 97.7005C205.989 97.7379 206.194 97.8079 206.4 97.9105L206.064 99.2685C205.84 99.1939 205.639 99.1425 205.462 99.1145C205.294 99.0772 205.079 99.0585 204.818 99.0585C204.342 99.0585 203.884 99.1939 203.446 99.4645C203.007 99.7352 202.61 100.207 202.256 100.879V104.673H200.632V97.7985ZM217.421 97.7985H218.751L218.891 99.3525H218.933C219.287 98.7925 219.712 98.3679 220.207 98.0785C220.711 97.7799 221.261 97.6305 221.859 97.6305C222.139 97.6305 222.377 97.6539 222.573 97.7005C222.778 97.7379 222.983 97.8079 223.189 97.9105L222.853 99.2685C222.629 99.1939 222.428 99.1425 222.251 99.1145C222.083 99.0772 221.868 99.0585 221.607 99.0585C221.131 99.0585 220.673 99.1939 220.235 99.4645C219.796 99.7352 219.399 100.207 219.045 100.879V104.673H217.421V97.7985ZM224.737 101.243C224.737 100.673 224.83 100.165 225.017 99.7165C225.213 99.2685 225.47 98.8905 225.787 98.5825C226.104 98.2745 226.473 98.0412 226.893 97.8825C227.313 97.7145 227.747 97.6305 228.195 97.6305C228.643 97.6305 229.077 97.7145 229.497 97.8825C229.917 98.0412 230.286 98.2745 230.603 98.5825C230.92 98.8905 231.172 99.2685 231.359 99.7165C231.555 100.165 231.653 100.673 231.653 101.243C231.653 101.812 231.555 102.321 231.359 102.769C231.172 103.217 230.92 103.595 230.603 103.903C230.286 104.211 229.917 104.444 229.497 104.603C229.077 104.761 228.643 104.841 228.195 104.841C227.747 104.841 227.313 104.761 226.893 104.603C226.473 104.444 226.104 104.211 225.787 103.903C225.47 103.595 225.213 103.217 225.017 102.769C224.83 102.321 224.737 101.812 224.737 101.243ZM226.403 101.243C226.403 101.933 226.562 102.489 226.879 102.909C227.196 103.319 227.635 103.525 228.195 103.525C228.755 103.525 229.194 103.319 229.511 102.909C229.828 102.489 229.987 101.933 229.987 101.243C229.987 100.543 229.828 99.9872 229.511 99.5765C229.194 99.1565 228.755 98.9465 228.195 98.9465C227.635 98.9465 227.196 99.1565 226.879 99.5765C226.562 99.9872 226.403 100.543 226.403 101.243ZM232.474 97.7985H234.07L234.7 101.369C234.756 101.695 234.802 102.022 234.84 102.349C234.886 102.675 234.933 103.007 234.98 103.343H235.036C235.082 103.007 235.134 102.675 235.19 102.349C235.246 102.022 235.311 101.695 235.386 101.369L236.03 98.4705H237.234L237.878 101.369C237.952 101.695 238.018 102.022 238.074 102.349C238.139 102.675 238.2 103.007 238.256 103.343H238.312C238.368 103.007 238.414 102.675 238.452 102.349C238.498 102.022 238.545 101.695 238.592 101.369L239.222 97.7985H240.706L239.432 104.673H237.542L236.94 101.803C236.884 101.476 236.828 101.149 236.772 100.823C236.725 100.496 236.674 100.155 236.618 99.8005H236.562C236.515 100.071 236.468 100.365 236.422 100.683C236.384 100.991 236.328 101.369 236.254 101.817L235.666 104.673H233.804L232.474 97.7985ZM250.355 97.7985H254.947V104.673H253.337V99.0725H250.355V97.7985ZM254.023 96.5945C253.696 96.5945 253.421 96.4965 253.197 96.3005C252.982 96.1045 252.875 95.8432 252.875 95.5165C252.875 95.1899 252.982 94.9285 253.197 94.7325C253.421 94.5272 253.696 94.4245 254.023 94.4245C254.359 94.4245 254.634 94.5272 254.849 94.7325C255.063 94.9285 255.171 95.1899 255.171 95.5165C255.171 95.8432 255.063 96.1045 254.849 96.3005C254.634 96.4965 254.359 96.5945 254.023 96.5945ZM258.721 97.7985H260.051L260.177 98.8345H260.233C260.56 98.5079 260.919 98.2279 261.311 97.9945C261.713 97.7519 262.179 97.6305 262.711 97.6305C263.505 97.6305 264.088 97.8732 264.461 98.3585C264.835 98.8345 265.021 99.5205 265.021 100.417V104.673H263.397V100.627C263.397 100.067 263.299 99.6605 263.103 99.4085C262.917 99.1472 262.585 99.0165 262.109 99.0165C261.773 99.0165 261.475 99.0959 261.213 99.2545C260.952 99.4132 260.663 99.6559 260.345 99.9825V104.673H258.721V97.7985ZM275.034 97.7985H276.252L276.378 98.6805H276.42C276.579 98.3819 276.77 98.1345 276.994 97.9385C277.228 97.7332 277.54 97.6305 277.932 97.6305C278.604 97.6305 279.024 98.0132 279.192 98.7785C279.351 98.4519 279.552 98.1812 279.794 97.9665C280.046 97.7425 280.364 97.6305 280.746 97.6305C281.232 97.6305 281.605 97.8219 281.866 98.2045C282.137 98.5779 282.272 99.1099 282.272 99.8005V104.673H280.746V99.9265C280.746 99.3199 280.555 99.0165 280.172 99.0165C279.986 99.0165 279.822 99.0865 279.682 99.2265C279.542 99.3665 279.407 99.5812 279.276 99.8705V104.673H278.016V99.9265C278.016 99.3199 277.82 99.0165 277.428 99.0165C277.242 99.0165 277.083 99.0865 276.952 99.2265C276.822 99.3665 276.691 99.5812 276.56 99.8705V104.673H275.034V97.7985ZM284.003 106.101C284.096 106.129 284.19 106.152 284.283 106.171C284.376 106.189 284.474 106.199 284.577 106.199C285.016 106.199 285.366 106.087 285.627 105.863C285.888 105.648 286.089 105.368 286.229 105.023L286.397 104.589L283.317 97.7985H284.927L286.341 101.173C286.472 101.481 286.598 101.807 286.719 102.153C286.84 102.498 286.966 102.843 287.097 103.189H287.153C287.256 102.862 287.368 102.526 287.489 102.181C287.61 101.835 287.727 101.499 287.839 101.173L289.085 97.7985H290.611L287.741 104.981C287.592 105.373 287.424 105.723 287.237 106.031C287.06 106.339 286.85 106.6 286.607 106.815C286.364 107.039 286.084 107.207 285.767 107.319C285.45 107.44 285.086 107.501 284.675 107.501C284.488 107.501 284.311 107.487 284.143 107.459C283.975 107.44 283.826 107.407 283.695 107.361L284.003 106.101ZM298.711 105.541V106.801H291.991V105.541H298.711ZM300.288 101.243C300.288 100.683 300.372 100.179 300.54 99.7305C300.708 99.2825 300.932 98.9045 301.212 98.5965C301.501 98.2885 301.828 98.0505 302.192 97.8825C302.556 97.7145 302.934 97.6305 303.326 97.6305C303.737 97.6305 304.087 97.7052 304.376 97.8545C304.675 97.9945 304.964 98.1905 305.244 98.4425L305.174 97.2805V94.7885H306.798V104.673H305.468L305.342 103.875H305.3C305.029 104.145 304.712 104.374 304.348 104.561C303.993 104.747 303.62 104.841 303.228 104.841C302.789 104.841 302.388 104.761 302.024 104.603C301.66 104.435 301.347 104.197 301.086 103.889C300.834 103.581 300.638 103.207 300.498 102.769C300.358 102.321 300.288 101.812 300.288 101.243ZM301.954 101.229C301.954 101.975 302.099 102.545 302.388 102.937C302.677 103.319 303.088 103.511 303.62 103.511C304.189 103.511 304.707 103.235 305.174 102.685V99.5905C304.931 99.3572 304.689 99.1939 304.446 99.1005C304.203 99.0072 303.956 98.9605 303.704 98.9605C303.461 98.9605 303.233 99.0119 303.018 99.1145C302.813 99.2172 302.631 99.3665 302.472 99.5625C302.313 99.7492 302.187 99.9825 302.094 100.263C302.001 100.543 301.954 100.865 301.954 101.229ZM308.934 102.825C308.934 102.442 309.023 102.106 309.2 101.817C309.378 101.518 309.658 101.266 310.04 101.061C310.423 100.855 310.913 100.687 311.51 100.557C312.108 100.426 312.831 100.333 313.68 100.277C313.652 99.8845 313.512 99.5625 313.26 99.3105C313.008 99.0585 312.602 98.9325 312.042 98.9325C311.65 98.9325 311.263 99.0072 310.88 99.1565C310.507 99.2965 310.143 99.4645 309.788 99.6605L309.2 98.5825C309.62 98.3399 310.101 98.1205 310.642 97.9245C311.184 97.7285 311.748 97.6305 312.336 97.6305C313.298 97.6305 314.03 97.8872 314.534 98.4005C315.038 98.9045 315.29 99.6372 315.29 100.599V104.673H313.974L313.848 103.819H313.806C313.442 104.099 313.036 104.341 312.588 104.547C312.15 104.743 311.697 104.841 311.23 104.841C310.894 104.841 310.586 104.789 310.306 104.687C310.026 104.593 309.784 104.458 309.578 104.281C309.373 104.103 309.214 103.893 309.102 103.651C308.99 103.399 308.934 103.123 308.934 102.825ZM310.488 102.699C310.488 103.007 310.605 103.231 310.838 103.371C311.081 103.511 311.375 103.581 311.72 103.581C312.066 103.581 312.397 103.506 312.714 103.357C313.041 103.198 313.363 102.993 313.68 102.741V101.285C313.064 101.331 312.551 101.397 312.14 101.481C311.73 101.555 311.403 101.653 311.16 101.775C310.918 101.896 310.745 102.036 310.642 102.195C310.54 102.344 310.488 102.512 310.488 102.699ZM318.995 99.0725H317.161V97.8685L319.065 97.7985L319.275 95.9225H320.605V97.7985H323.741V99.0725H320.605V101.901C320.605 102.47 320.722 102.89 320.955 103.161C321.188 103.422 321.599 103.553 322.187 103.553C322.486 103.553 322.756 103.529 322.999 103.483C323.242 103.427 323.475 103.357 323.699 103.273L324.007 104.449C323.699 104.551 323.358 104.64 322.985 104.715C322.612 104.799 322.215 104.841 321.795 104.841C321.272 104.841 320.834 104.771 320.479 104.631C320.124 104.491 319.835 104.295 319.611 104.043C319.396 103.781 319.238 103.469 319.135 103.105C319.042 102.741 318.995 102.339 318.995 101.901V99.0725ZM325.723 102.825C325.723 102.442 325.812 102.106 325.989 101.817C326.167 101.518 326.447 101.266 326.829 101.061C327.212 100.855 327.702 100.687 328.299 100.557C328.897 100.426 329.62 100.333 330.469 100.277C330.441 99.8845 330.301 99.5625 330.049 99.3105C329.797 99.0585 329.391 98.9325 328.831 98.9325C328.439 98.9325 328.052 99.0072 327.669 99.1565C327.296 99.2965 326.932 99.4645 326.577 99.6605L325.989 98.5825C326.409 98.3399 326.89 98.1205 327.431 97.9245C327.973 97.7285 328.537 97.6305 329.125 97.6305C330.087 97.6305 330.819 97.8872 331.323 98.4005C331.827 98.9045 332.079 99.6372 332.079 100.599V104.673H330.763L330.637 103.819H330.595C330.231 104.099 329.825 104.341 329.377 104.547C328.939 104.743 328.486 104.841 328.019 104.841C327.683 104.841 327.375 104.789 327.095 104.687C326.815 104.593 326.573 104.458 326.367 104.281C326.162 104.103 326.003 103.893 325.891 103.651C325.779 103.399 325.723 103.123 325.723 102.825ZM327.277 102.699C327.277 103.007 327.394 103.231 327.627 103.371C327.87 103.511 328.164 103.581 328.509 103.581C328.855 103.581 329.186 103.506 329.503 103.357C329.83 103.198 330.152 102.993 330.469 102.741V101.285C329.853 101.331 329.34 101.397 328.929 101.481C328.519 101.555 328.192 101.653 327.949 101.775C327.707 101.896 327.534 102.036 327.431 102.195C327.329 102.344 327.277 102.512 327.277 102.699Z" fill="#9B51E0"/>
<path d="M40 8H470V69H40V8Z" fill="#F1F4F8"/>
<path d="M48.8495 19.5552H50.1795L50.3055 20.5912H50.3615C50.6882 20.2645 51.0475 19.9845 51.4395 19.7512C51.8409 19.5085 52.3075 19.3872 52.8395 19.3872C53.6329 19.3872 54.2162 19.6299 54.5895 20.1152C54.9629 20.5912 55.1495 21.2772 55.1495 22.1732V26.4292H53.5255V22.3832C53.5255 21.8232 53.4275 21.4172 53.2315 21.1652C53.0449 20.9039 52.7135 20.7732 52.2375 20.7732C51.9015 20.7732 51.6029 20.8525 51.3415 21.0112C51.0802 21.1699 50.7909 21.4125 50.4735 21.7392V26.4292H48.8495V19.5552ZM57.0901 24.5812C57.0901 24.1985 57.1787 23.8625 57.3561 23.5732C57.5334 23.2745 57.8134 23.0225 58.1961 22.8172C58.5787 22.6119 59.0687 22.4439 59.6661 22.3132C60.2634 22.1825 60.9867 22.0892 61.8361 22.0332C61.8081 21.6412 61.6681 21.3192 61.4161 21.0672C61.1641 20.8152 60.7581 20.6892 60.1981 20.6892C59.8061 20.6892 59.4187 20.7639 59.0361 20.9132C58.6627 21.0532 58.2987 21.2212 57.9441 21.4172L57.3561 20.3392C57.7761 20.0965 58.2567 19.8772 58.7981 19.6812C59.3394 19.4852 59.9041 19.3872 60.4921 19.3872C61.4534 19.3872 62.1861 19.6439 62.6901 20.1572C63.1941 20.6612 63.4461 21.3939 63.4461 22.3552V26.4292H62.1301L62.0041 25.5752H61.9621C61.5981 25.8552 61.1921 26.0979 60.7441 26.3032C60.3054 26.4992 59.8527 26.5972 59.3861 26.5972C59.0501 26.5972 58.7421 26.5459 58.4621 26.4432C58.1821 26.3499 57.9394 26.2145 57.7341 26.0372C57.5287 25.8599 57.3701 25.6499 57.2581 25.4072C57.1461 25.1552 57.0901 24.8799 57.0901 24.5812ZM58.6441 24.4552C58.6441 24.7632 58.7607 24.9872 58.9941 25.1272C59.2367 25.2672 59.5307 25.3372 59.8761 25.3372C60.2214 25.3372 60.5527 25.2625 60.8701 25.1132C61.1967 24.9545 61.5187 24.7492 61.8361 24.4972V23.0412C61.2201 23.0879 60.7067 23.1532 60.2961 23.2372C59.8854 23.3119 59.5587 23.4099 59.3161 23.5312C59.0734 23.6525 58.9007 23.7925 58.7981 23.9512C58.6954 24.1005 58.6441 24.2685 58.6441 24.4552ZM65.1626 19.5552H66.3806L66.5066 20.4372H66.5486C66.7073 20.1385 66.8986 19.8912 67.1226 19.6952C67.3559 19.4899 67.6686 19.3872 68.0606 19.3872C68.7326 19.3872 69.1526 19.7699 69.3206 20.5352C69.4793 20.2085 69.6799 19.9379 69.9226 19.7232C70.1746 19.4992 70.4919 19.3872 70.8746 19.3872C71.3599 19.3872 71.7333 19.5785 71.9946 19.9612C72.2653 20.3345 72.4006 20.8665 72.4006 21.5572V26.4292H70.8746V21.6832C70.8746 21.0765 70.6833 20.7732 70.3006 20.7732C70.1139 20.7732 69.9506 20.8432 69.8106 20.9832C69.6706 21.1232 69.5353 21.3379 69.4046 21.6272V26.4292H68.1446V21.6832C68.1446 21.0765 67.9486 20.7732 67.5566 20.7732C67.3699 20.7732 67.2113 20.8432 67.0806 20.9832C66.9499 21.1232 66.8193 21.3379 66.6886 21.6272V26.4292H65.1626V19.5552ZM73.7531 22.9992C73.7531 22.4392 73.8511 21.9352 74.0471 21.4872C74.2525 21.0392 74.5185 20.6612 74.8451 20.3532C75.1718 20.0359 75.5451 19.7979 75.9651 19.6392C76.3945 19.4712 76.8331 19.3872 77.2811 19.3872C77.7945 19.3872 78.2471 19.4712 78.6391 19.6392C79.0405 19.7979 79.3765 20.0219 79.6471 20.3112C79.9178 20.5912 80.1231 20.9319 80.2631 21.3332C80.4031 21.7345 80.4731 22.1732 80.4731 22.6492C80.4731 22.8079 80.4638 22.9572 80.4451 23.0972C80.4358 23.2372 80.4218 23.3492 80.4031 23.4332H75.4051C75.4611 24.0492 75.7038 24.5252 76.1331 24.8612C76.5625 25.1879 77.0898 25.3512 77.7151 25.3512C78.0698 25.3512 78.4011 25.3045 78.7091 25.2112C79.0171 25.1085 79.3298 24.9685 79.6471 24.7912L80.1931 25.7992C79.8198 26.0325 79.4045 26.2239 78.9471 26.3732C78.4898 26.5225 78.0091 26.5972 77.5051 26.5972C76.9825 26.5972 76.4925 26.5179 76.0351 26.3592C75.5778 26.1912 75.1811 25.9532 74.8451 25.6452C74.5091 25.3372 74.2431 24.9639 74.0471 24.5252C73.8511 24.0772 73.7531 23.5685 73.7531 22.9992ZM78.9891 22.3412C78.9891 21.8092 78.8491 21.3939 78.5691 21.0952C78.2891 20.7872 77.8738 20.6332 77.3231 20.6332C76.8565 20.6332 76.4411 20.7779 76.0771 21.0672C75.7131 21.3565 75.4845 21.7812 75.3911 22.3412H78.9891ZM82.9037 24.5112C83.2957 24.7819 83.7017 24.9965 84.1217 25.1552C84.551 25.3045 85.0317 25.3792 85.5637 25.3792C86.105 25.3792 86.5017 25.3045 86.7537 25.1552C87.0057 24.9965 87.1317 24.7959 87.1317 24.5532C87.1317 24.3105 86.9683 24.1099 86.6417 23.9512C86.315 23.7832 85.8017 23.6059 85.1017 23.4192C84.775 23.3352 84.4577 23.2325 84.1497 23.1112C83.8417 22.9899 83.571 22.8499 83.3377 22.6912C83.1043 22.5325 82.9177 22.3505 82.7777 22.1452C82.6377 21.9399 82.5677 21.7065 82.5677 21.4452C82.5677 20.8385 82.829 20.3439 83.3517 19.9612C83.8743 19.5785 84.6257 19.3872 85.6057 19.3872C86.1657 19.3872 86.693 19.4805 87.1877 19.6672C87.6823 19.8539 88.107 20.0639 88.4617 20.2972L87.7197 21.2912C87.4117 21.0859 87.0803 20.9225 86.7257 20.8012C86.3803 20.6705 86.0117 20.6052 85.6197 20.6052C85.0877 20.6052 84.7143 20.6799 84.4997 20.8292C84.285 20.9692 84.1777 21.1465 84.1777 21.3612C84.1777 21.4825 84.2243 21.5945 84.3177 21.6972C84.4203 21.7905 84.5557 21.8792 84.7237 21.9632C84.901 22.0379 85.1063 22.1125 85.3397 22.1872C85.573 22.2619 85.8297 22.3319 86.1097 22.3972C86.511 22.4999 86.8703 22.6165 87.1877 22.7472C87.5143 22.8685 87.7897 23.0085 88.0137 23.1672C88.247 23.3259 88.4243 23.5125 88.5457 23.7272C88.6763 23.9419 88.7417 24.1892 88.7417 24.4692C88.7417 24.7679 88.6717 25.0479 88.5317 25.3092C88.3917 25.5612 88.1863 25.7852 87.9157 25.9812C87.645 26.1679 87.309 26.3172 86.9077 26.4292C86.5063 26.5412 86.0443 26.5972 85.5217 26.5972C84.8777 26.5972 84.2617 26.4945 83.6737 26.2892C83.0857 26.0839 82.577 25.8319 82.1477 25.5332L82.9037 24.5112Z" fill="#009E73"/>
<path d="M99.1607 19.6532H105.377V20.8292H99.1607V19.6532ZM99.1607 22.7752H105.377V23.9512H99.1607V22.7752ZM117.84 16.5172H121.844V17.3992H119.086V27.6752H121.844V28.5572H117.84V16.5172ZM127.424 27.6752V17.3992H124.68V16.5172H128.684V28.5572H124.68V27.6752H127.424ZM201.617 37.4232C201.617 37.0125 201.748 36.6765 202.009 36.4152C202.27 36.1445 202.602 36.0092 203.003 36.0092C203.404 36.0092 203.736 36.1445 203.997 36.4152C204.258 36.6765 204.389 37.0125 204.389 37.4232C204.389 37.8339 204.258 38.1745 203.997 38.4452C203.736 38.7065 203.404 38.8372 203.003 38.8372C202.602 38.8372 202.27 38.7065 202.009 38.4452C201.748 38.1745 201.617 37.8339 201.617 37.4232ZM201.617 42.1832C201.617 41.7725 201.748 41.4365 202.009 41.1752C202.27 40.9045 202.602 40.7692 203.003 40.7692C203.404 40.7692 203.736 40.9045 203.997 41.1752C204.258 41.4365 204.389 41.7725 204.389 42.1832C204.389 42.5939 204.258 42.9345 203.997 43.2052C203.736 43.4665 203.404 43.5972 203.003 43.5972C202.602 43.5972 202.27 43.4665 202.009 43.2052C201.748 42.9345 201.617 42.5939 201.617 42.1832ZM82.4277 54.5552H83.7577L83.8837 55.5912H83.9397C84.2663 55.2645 84.6257 54.9845 85.0177 54.7512C85.419 54.5085 85.8857 54.3872 86.4177 54.3872C87.211 54.3872 87.7943 54.6299 88.1677 55.1152C88.541 55.5912 88.7277 56.2772 88.7277 57.1732V61.4292H87.1037V57.3832C87.1037 56.8232 87.0057 56.4172 86.8097 56.1652C86.623 55.9039 86.2917 55.7732 85.8157 55.7732C85.4797 55.7732 85.181 55.8525 84.9197 56.0112C84.6583 56.1699 84.369 56.4125 84.0517 56.7392V61.4292H82.4277V54.5552ZM90.6682 59.5812C90.6682 59.1985 90.7569 58.8625 90.9342 58.5732C91.1115 58.2745 91.3915 58.0225 91.7742 57.8172C92.1569 57.6119 92.6469 57.4439 93.2442 57.3132C93.8415 57.1825 94.5649 57.0892 95.4142 57.0332C95.3862 56.6412 95.2462 56.3192 94.9942 56.0672C94.7422 55.8152 94.3362 55.6892 93.7762 55.6892C93.3842 55.6892 92.9969 55.7639 92.6142 55.9132C92.2409 56.0532 91.8769 56.2212 91.5222 56.4172L90.9342 55.3392C91.3542 55.0965 91.8349 54.8772 92.3762 54.6812C92.9175 54.4852 93.4822 54.3872 94.0702 54.3872C95.0315 54.3872 95.7642 54.6439 96.2682 55.1572C96.7722 55.6612 97.0242 56.3939 97.0242 57.3552V61.4292H95.7082L95.5822 60.5752H95.5402C95.1762 60.8552 94.7702 61.0979 94.3222 61.3032C93.8835 61.4992 93.4309 61.5972 92.9642 61.5972C92.6282 61.5972 92.3202 61.5459 92.0402 61.4432C91.7602 61.3499 91.5175 61.2145 91.3122 61.0372C91.1069 60.8599 90.9482 60.6499 90.8362 60.4072C90.7242 60.1552 90.6682 59.8799 90.6682 59.5812ZM92.2222 59.4552C92.2222 59.7632 92.3389 59.9872 92.5722 60.1272C92.8149 60.2672 93.1089 60.3372 93.4542 60.3372C93.7995 60.3372 94.1309 60.2625 94.4482 60.1132C94.7749 59.9545 95.0969 59.7492 95.4142 59.4972V58.0412C94.7982 58.0879 94.2849 58.1532 93.8742 58.2372C93.4635 58.3119 93.1369 58.4099 92.8942 58.5312C92.6515 58.6525 92.4789 58.7925 92.3762 58.9512C92.2735 59.1005 92.2222 59.2685 92.2222 59.4552ZM98.7407 54.5552H99.9587L100.085 55.4372H100.127C100.285 55.1385 100.477 54.8912 100.701 54.6952C100.934 54.4899 101.247 54.3872 101.639 54.3872C102.311 54.3872 102.731 54.7699 102.899 55.5352C103.057 55.2085 103.258 54.9379 103.501 54.7232C103.753 54.4992 104.07 54.3872 104.453 54.3872C104.938 54.3872 105.311 54.5785 105.573 54.9612C105.843 55.3345 105.979 55.8665 105.979 56.5572V61.4292H104.453V56.6832C104.453 56.0765 104.261 55.7732 103.879 55.7732C103.692 55.7732 103.529 55.8432 103.389 55.9832C103.249 56.1232 103.113 56.3379 102.983 56.6272V61.4292H101.723V56.6832C101.723 56.0765 101.527 55.7732 101.135 55.7732C100.948 55.7732 100.789 55.8432 100.659 55.9832C100.528 56.1232 100.397 56.3379 100.267 56.6272V61.4292H98.7407V54.5552ZM107.331 57.9992C107.331 57.4392 107.429 56.9352 107.625 56.4872C107.831 56.0392 108.097 55.6612 108.423 55.3532C108.75 55.0359 109.123 54.7979 109.543 54.6392C109.973 54.4712 110.411 54.3872 110.859 54.3872C111.373 54.3872 111.825 54.4712 112.217 54.6392C112.619 54.7979 112.955 55.0219 113.225 55.3112C113.496 55.5912 113.701 55.9319 113.841 56.3332C113.981 56.7345 114.051 57.1732 114.051 57.6492C114.051 57.8079 114.042 57.9572 114.023 58.0972C114.014 58.2372 114 58.3492 113.981 58.4332H108.983C109.039 59.0492 109.282 59.5252 109.711 59.8612C110.141 60.1879 110.668 60.3512 111.293 60.3512C111.648 60.3512 111.979 60.3045 112.287 60.2112C112.595 60.1085 112.908 59.9685 113.225 59.7912L113.771 60.7992C113.398 61.0325 112.983 61.2239 112.525 61.3732C112.068 61.5225 111.587 61.5972 111.083 61.5972C110.561 61.5972 110.071 61.5179 109.613 61.3592C109.156 61.1912 108.759 60.9532 108.423 60.6452C108.087 60.3372 107.821 59.9639 107.625 59.5252C107.429 59.0772 107.331 58.5685 107.331 57.9992ZM112.567 57.3412C112.567 56.8092 112.427 56.3939 112.147 56.0952C111.867 55.7872 111.452 55.6332 110.901 55.6332C110.435 55.6332 110.019 55.7779 109.655 56.0672C109.291 56.3565 109.063 56.7812 108.969 57.3412H112.567ZM116.482 59.5112C116.874 59.7819 117.28 59.9965 117.7 60.1552C118.129 60.3045 118.61 60.3792 119.142 60.3792C119.683 60.3792 120.08 60.3045 120.332 60.1552C120.584 59.9965 120.71 59.7959 120.71 59.5532C120.71 59.3105 120.546 59.1099 120.22 58.9512C119.893 58.7832 119.38 58.6059 118.68 58.4192C118.353 58.3352 118.036 58.2325 117.728 58.1112C117.42 57.9899 117.149 57.8499 116.916 57.6912C116.682 57.5325 116.496 57.3505 116.356 57.1452C116.216 56.9399 116.146 56.7065 116.146 56.4452C116.146 55.8385 116.407 55.3439 116.93 54.9612C117.452 54.5785 118.204 54.3872 119.184 54.3872C119.744 54.3872 120.271 54.4805 120.766 54.6672C121.26 54.8539 121.685 55.0639 122.04 55.2972L121.298 56.2912C120.99 56.0859 120.658 55.9225 120.304 55.8012C119.958 55.6705 119.59 55.6052 119.198 55.6052C118.666 55.6052 118.292 55.6799 118.078 55.8292C117.863 55.9692 117.756 56.1465 117.756 56.3612C117.756 56.4825 117.802 56.5945 117.896 56.6972C117.998 56.7905 118.134 56.8792 118.302 56.9632C118.479 57.0379 118.684 57.1125 118.918 57.1872C119.151 57.2619 119.408 57.3319 119.688 57.3972C120.089 57.4999 120.448 57.6165 120.766 57.7472C121.092 57.8685 121.368 58.0085 121.592 58.1672C121.825 58.3259 122.002 58.5125 122.124 58.7272C122.254 58.9419 122.32 59.1892 122.32 59.4692C122.32 59.7679 122.25 60.0479 122.11 60.3092C121.97 60.5612 121.764 60.7852 121.494 60.9812C121.223 61.1679 120.887 61.3172 120.486 61.4292C120.084 61.5412 119.622 61.5972 119.1 61.5972C118.456 61.5972 117.84 61.4945 117.252 61.2892C116.664 61.0839 116.155 60.8319 115.726 60.5332L116.482 59.5112ZM126.066 60.1832C126.066 59.7725 126.197 59.4365 126.458 59.1752C126.72 58.9045 127.051 58.7692 127.452 58.7692C127.854 58.7692 128.185 58.9045 128.446 59.1752C128.708 59.4365 128.838 59.7725 128.838 60.1832C128.838 60.5939 128.708 60.9345 128.446 61.2052C128.185 61.4665 127.854 61.5972 127.452 61.5972C127.051 61.5972 126.72 61.4665 126.458 61.2052C126.197 60.9345 126.066 60.5939 126.066 60.1832ZM132.641 59.5812C132.641 59.1985 132.73 58.8625 132.907 58.5732C133.084 58.2745 133.364 58.0225 133.747 57.8172C134.13 57.6119 134.62 57.4439 135.217 57.3132C135.814 57.1825 136.538 57.0892 137.387 57.0332C137.359 56.6412 137.219 56.3192 136.967 56.0672C136.715 55.8152 136.309 55.6892 135.749 55.6892C135.357 55.6892 134.97 55.7639 134.587 55.9132C134.214 56.0532 133.85 56.2212 133.495 56.4172L132.907 55.3392C133.327 55.0965 133.808 54.8772 134.349 54.6812C134.89 54.4852 135.455 54.3872 136.043 54.3872C137.004 54.3872 137.737 54.6439 138.241 55.1572C138.745 55.6612 138.997 56.3939 138.997 57.3552V61.4292H137.681L137.555 60.5752H137.513C137.149 60.8552 136.743 61.0979 136.295 61.3032C135.856 61.4992 135.404 61.5972 134.937 61.5972C134.601 61.5972 134.293 61.5459 134.013 61.4432C133.733 61.3499 133.49 61.2145 133.285 61.0372C133.08 60.8599 132.921 60.6499 132.809 60.4072C132.697 60.1552 132.641 59.8799 132.641 59.5812ZM134.195 59.4552C134.195 59.7632 134.312 59.9872 134.545 60.1272C134.788 60.2672 135.082 60.3372 135.427 60.3372C135.772 60.3372 136.104 60.2625 136.421 60.1132C136.748 59.9545 137.07 59.7492 137.387 59.4972V58.0412C136.771 58.0879 136.258 58.1532 135.847 58.2372C135.436 58.3119 135.11 58.4099 134.867 58.5312C134.624 58.6525 134.452 58.7925 134.349 58.9512C134.246 59.1005 134.195 59.2685 134.195 59.4552ZM142.813 61.9892V64.1452H141.189V54.5552H142.519L142.645 55.3392H142.687C142.986 55.0685 143.327 54.8445 143.709 54.6672C144.101 54.4805 144.493 54.3872 144.885 54.3872C145.333 54.3872 145.73 54.4712 146.075 54.6392C146.43 54.7979 146.724 55.0312 146.957 55.3392C147.2 55.6472 147.382 56.0159 147.503 56.4452C147.634 56.8745 147.699 57.3552 147.699 57.8872C147.699 58.4752 147.615 59.0025 147.447 59.4692C147.279 59.9265 147.051 60.3139 146.761 60.6312C146.481 60.9392 146.155 61.1772 145.781 61.3452C145.417 61.5132 145.039 61.5972 144.647 61.5972C144.33 61.5972 144.003 61.5272 143.667 61.3872C143.341 61.2472 143.037 61.0465 142.757 60.7852L142.813 61.9892ZM142.813 59.6372C143.065 59.8705 143.322 60.0339 143.583 60.1272C143.854 60.2205 144.097 60.2672 144.311 60.2672C144.806 60.2672 145.217 60.0712 145.543 59.6792C145.87 59.2779 146.033 58.6852 146.033 57.9012C146.033 57.2105 145.907 56.6739 145.655 56.2912C145.403 55.9085 144.997 55.7172 144.437 55.7172C144.176 55.7172 143.91 55.7825 143.639 55.9132C143.369 56.0439 143.093 56.2539 142.813 56.5432V59.6372ZM151.208 61.9892V64.1452H149.584V54.5552H150.914L151.04 55.3392H151.082C151.381 55.0685 151.721 54.8445 152.104 54.6672C152.496 54.4805 152.888 54.3872 153.28 54.3872C153.728 54.3872 154.125 54.4712 154.47 54.6392C154.825 54.7979 155.119 55.0312 155.352 55.3392C155.595 55.6472 155.777 56.0159 155.898 56.4452C156.029 56.8745 156.094 57.3552 156.094 57.8872C156.094 58.4752 156.01 59.0025 155.842 59.4692C155.674 59.9265 155.445 60.3139 155.156 60.6312C154.876 60.9392 154.549 61.1772 154.176 61.3452C153.812 61.5132 153.434 61.5972 153.042 61.5972C152.725 61.5972 152.398 61.5272 152.062 61.3872C151.735 61.2472 151.432 61.0465 151.152 60.7852L151.208 61.9892ZM151.208 59.6372C151.46 59.8705 151.717 60.0339 151.978 60.1272C152.249 60.2205 152.491 60.2672 152.706 60.2672C153.201 60.2672 153.611 60.0712 153.938 59.6792C154.265 59.2779 154.428 58.6852 154.428 57.9012C154.428 57.2105 154.302 56.6739 154.05 56.2912C153.798 55.9085 153.392 55.7172 152.832 55.7172C152.571 55.7172 152.305 55.7825 152.034 55.9132C151.763 56.0439 151.488 56.2539 151.208 56.5432V59.6372ZM157.698 57.9992C157.698 57.4392 157.796 56.9352 157.992 56.4872C158.198 56.0392 158.464 55.6612 158.79 55.3532C159.117 55.0359 159.49 54.7979 159.91 54.6392C160.34 54.4712 160.778 54.3872 161.226 54.3872C161.74 54.3872 162.192 54.4712 162.584 54.6392C162.986 54.7979 163.322 55.0219 163.592 55.3112C163.863 55.5912 164.068 55.9319 164.208 56.3332C164.348 56.7345 164.418 57.1732 164.418 57.6492C164.418 57.8079 164.409 57.9572 164.39 58.0972C164.381 58.2372 164.367 58.3492 164.348 58.4332H159.35C159.406 59.0492 159.649 59.5252 160.078 59.8612C160.508 60.1879 161.035 60.3512 161.66 60.3512C162.015 60.3512 162.346 60.3045 162.654 60.2112C162.962 60.1085 163.275 59.9685 163.592 59.7912L164.138 60.7992C163.765 61.0325 163.35 61.2239 162.892 61.3732C162.435 61.5225 161.954 61.5972 161.45 61.5972C160.928 61.5972 160.438 61.5179 159.98 61.3592C159.523 61.1912 159.126 60.9532 158.79 60.6452C158.454 60.3372 158.188 59.9639 157.992 59.5252C157.796 59.0772 157.698 58.5685 157.698 57.9992ZM162.934 57.3412C162.934 56.8092 162.794 56.3939 162.514 56.0952C162.234 55.7872 161.819 55.6332 161.268 55.6332C160.802 55.6332 160.386 55.7779 160.022 56.0672C159.658 56.3565 159.43 56.7812 159.336 57.3412H162.934ZM166.373 54.5552H167.703L167.829 55.5912H167.885C168.212 55.2645 168.571 54.9845 168.963 54.7512C169.364 54.5085 169.831 54.3872 170.363 54.3872C171.156 54.3872 171.74 54.6299 172.113 55.1152C172.486 55.5912 172.673 56.2772 172.673 57.1732V61.4292H171.049V57.3832C171.049 56.8232 170.951 56.4172 170.755 56.1652C170.568 55.9039 170.237 55.7732 169.761 55.7732C169.425 55.7732 169.126 55.8525 168.865 56.0112C168.604 56.1699 168.314 56.4125 167.997 56.7392V61.4292H166.373V54.5552ZM174.362 57.9992C174.362 57.4392 174.446 56.9352 174.614 56.4872C174.782 56.0392 175.006 55.6612 175.286 55.3532C175.575 55.0452 175.902 54.8072 176.266 54.6392C176.63 54.4712 177.008 54.3872 177.4 54.3872C177.81 54.3872 178.16 54.4619 178.45 54.6112C178.748 54.7512 179.038 54.9472 179.318 55.1992L179.248 54.0372V51.5452H180.872V61.4292H179.542L179.416 60.6312H179.374C179.103 60.9019 178.786 61.1305 178.422 61.3172C178.067 61.5039 177.694 61.5972 177.302 61.5972C176.863 61.5972 176.462 61.5179 176.098 61.3592C175.734 61.1912 175.421 60.9532 175.16 60.6452C174.908 60.3372 174.712 59.9639 174.572 59.5252C174.432 59.0772 174.362 58.5685 174.362 57.9992ZM176.028 57.9852C176.028 58.7319 176.172 59.3012 176.462 59.6932C176.751 60.0759 177.162 60.2672 177.694 60.2672C178.263 60.2672 178.781 59.9919 179.248 59.4412V56.3472C179.005 56.1139 178.762 55.9505 178.52 55.8572C178.277 55.7639 178.03 55.7172 177.778 55.7172C177.535 55.7172 177.306 55.7685 177.092 55.8712C176.886 55.9739 176.704 56.1232 176.546 56.3192C176.387 56.5059 176.261 56.7392 176.168 57.0192C176.074 57.2992 176.028 57.6212 176.028 57.9852ZM187.782 63.9072C186.839 63.1232 186.093 62.1992 185.542 61.1352C185.001 60.0712 184.73 58.8719 184.73 57.5372C184.73 56.2025 185.001 55.0032 185.542 53.9392C186.093 52.8752 186.839 51.9512 187.782 51.1672L188.678 51.9092C187.791 52.7119 187.143 53.5659 186.732 54.4712C186.321 55.3765 186.116 56.3985 186.116 57.5372C186.116 58.6759 186.321 59.6979 186.732 60.6032C187.143 61.5085 187.791 62.3625 188.678 63.1652L187.782 63.9072ZM242.512 63.1652C243.398 62.3625 244.047 61.5085 244.458 60.6032C244.868 59.6979 245.074 58.6759 245.074 57.5372C245.074 56.3985 244.868 55.3765 244.458 54.4712C244.047 53.5659 243.398 52.7119 242.512 51.9092L243.408 51.1672C244.35 51.9512 245.092 52.8752 245.634 53.9392C246.184 55.0032 246.46 56.2025 246.46 57.5372C246.46 58.8719 246.184 60.0712 245.634 61.1352C245.092 62.1992 244.35 63.1232 243.408 63.9072L242.512 63.1652Z" fill="#2E383C"/>
<path d="M55.5135 34.9452C55.2615 34.8425 55.0142 34.7679 54.7715 34.7212C54.5382 34.6745 54.2815 34.6512 54.0015 34.6512C53.4695 34.6512 53.0822 34.7819 52.8395 35.0432C52.6062 35.2952 52.4895 35.6639 52.4895 36.1492V36.5552H55.1075V37.8292H52.4895V43.4292H50.8935V37.8292H48.9895V36.6252L50.8935 36.5552V36.1772C50.8935 35.7759 50.9495 35.4025 51.0615 35.0572C51.1735 34.7119 51.3462 34.4179 51.5795 34.1752C51.8222 33.9232 52.1255 33.7272 52.4895 33.5872C52.8629 33.4472 53.3015 33.3772 53.8055 33.3772C54.1789 33.3772 54.5335 33.4099 54.8695 33.4752C55.2149 33.5405 55.5415 33.6339 55.8495 33.7552L55.5135 34.9452ZM56.8381 39.9992C56.8381 39.4299 56.9314 38.9212 57.1181 38.4732C57.3141 38.0252 57.5707 37.6472 57.8881 37.3392C58.2054 37.0312 58.5741 36.7979 58.9941 36.6392C59.4141 36.4712 59.8481 36.3872 60.2961 36.3872C60.7441 36.3872 61.1781 36.4712 61.5981 36.6392C62.0181 36.7979 62.3867 37.0312 62.7041 37.3392C63.0214 37.6472 63.2734 38.0252 63.4601 38.4732C63.6561 38.9212 63.7541 39.4299 63.7541 39.9992C63.7541 40.5685 63.6561 41.0772 63.4601 41.5252C63.2734 41.9732 63.0214 42.3512 62.7041 42.6592C62.3867 42.9672 62.0181 43.2005 61.5981 43.3592C61.1781 43.5179 60.7441 43.5972 60.2961 43.5972C59.8481 43.5972 59.4141 43.5179 58.9941 43.3592C58.5741 43.2005 58.2054 42.9672 57.8881 42.6592C57.5707 42.3512 57.3141 41.9732 57.1181 41.5252C56.9314 41.0772 56.8381 40.5685 56.8381 39.9992ZM58.5041 39.9992C58.5041 40.6899 58.6627 41.2452 58.9801 41.6652C59.2974 42.0759 59.7361 42.2812 60.2961 42.2812C60.8561 42.2812 61.2947 42.0759 61.6121 41.6652C61.9294 41.2452 62.0881 40.6899 62.0881 39.9992C62.0881 39.2992 61.9294 38.7439 61.6121 38.3332C61.2947 37.9132 60.8561 37.7032 60.2961 37.7032C59.7361 37.7032 59.2974 37.9132 58.9801 38.3332C58.6627 38.7439 58.5041 39.2992 58.5041 39.9992ZM66.3106 36.5552H67.6406L67.7806 38.1092H67.8226C68.1773 37.5492 68.6019 37.1245 69.0966 36.8352C69.6006 36.5365 70.1513 36.3872 70.7486 36.3872C71.0286 36.3872 71.2666 36.4105 71.4626 36.4572C71.6679 36.4945 71.8733 36.5645 72.0786 36.6672L71.7426 38.0252C71.5186 37.9505 71.3179 37.8992 71.1406 37.8712C70.9726 37.8339 70.7579 37.8152 70.4966 37.8152C70.0206 37.8152 69.5633 37.9505 69.1246 38.2212C68.6859 38.4919 68.2893 38.9632 67.9346 39.6352V43.4292H66.3106V36.5552ZM83.0997 36.5552H84.4297L84.5697 38.1092H84.6117C84.9663 37.5492 85.391 37.1245 85.8857 36.8352C86.3897 36.5365 86.9403 36.3872 87.5377 36.3872C87.8177 36.3872 88.0557 36.4105 88.2517 36.4572C88.457 36.4945 88.6623 36.5645 88.8677 36.6672L88.5317 38.0252C88.3077 37.9505 88.107 37.8992 87.9297 37.8712C87.7617 37.8339 87.547 37.8152 87.2857 37.8152C86.8097 37.8152 86.3523 37.9505 85.9137 38.2212C85.475 38.4919 85.0783 38.9632 84.7237 39.6352V43.4292H83.0997V36.5552ZM90.4162 39.9992C90.4162 39.4299 90.5095 38.9212 90.6962 38.4732C90.8922 38.0252 91.1489 37.6472 91.4662 37.3392C91.7835 37.0312 92.1522 36.7979 92.5722 36.6392C92.9922 36.4712 93.4262 36.3872 93.8742 36.3872C94.3222 36.3872 94.7562 36.4712 95.1762 36.6392C95.5962 36.7979 95.9649 37.0312 96.2822 37.3392C96.5995 37.6472 96.8515 38.0252 97.0382 38.4732C97.2342 38.9212 97.3322 39.4299 97.3322 39.9992C97.3322 40.5685 97.2342 41.0772 97.0382 41.5252C96.8515 41.9732 96.5995 42.3512 96.2822 42.6592C95.9649 42.9672 95.5962 43.2005 95.1762 43.3592C94.7562 43.5179 94.3222 43.5972 93.8742 43.5972C93.4262 43.5972 92.9922 43.5179 92.5722 43.3592C92.1522 43.2005 91.7835 42.9672 91.4662 42.6592C91.1489 42.3512 90.8922 41.9732 90.6962 41.5252C90.5095 41.0772 90.4162 40.5685 90.4162 39.9992ZM92.0822 39.9992C92.0822 40.6899 92.2409 41.2452 92.5582 41.6652C92.8755 42.0759 93.3142 42.2812 93.8742 42.2812C94.4342 42.2812 94.8729 42.0759 95.1902 41.6652C95.5075 41.2452 95.6662 40.6899 95.6662 39.9992C95.6662 39.2992 95.5075 38.7439 95.1902 38.3332C94.8729 37.9132 94.4342 37.7032 93.8742 37.7032C93.3142 37.7032 92.8755 37.9132 92.5582 38.3332C92.2409 38.7439 92.0822 39.2992 92.0822 39.9992ZM98.1527 36.5552H99.7487L100.379 40.1252C100.435 40.4519 100.481 40.7785 100.519 41.1052C100.565 41.4319 100.612 41.7632 100.659 42.0992H100.715C100.761 41.7632 100.813 41.4319 100.869 41.1052C100.925 40.7785 100.99 40.4519 101.065 40.1252L101.709 37.2272H102.913L103.557 40.1252C103.631 40.4519 103.697 40.7785 103.753 41.1052C103.818 41.4319 103.879 41.7632 103.935 42.0992H103.991C104.047 41.7632 104.093 41.4319 104.131 41.1052C104.177 40.7785 104.224 40.4519 104.271 40.1252L104.901 36.5552H106.385L105.111 43.4292H103.221L102.619 40.5592C102.563 40.2325 102.507 39.9059 102.451 39.5792C102.404 39.2525 102.353 38.9119 102.297 38.5572H102.241C102.194 38.8279 102.147 39.1219 102.101 39.4392C102.063 39.7472 102.007 40.1252 101.933 40.5732L101.345 43.4292H99.4827L98.1527 36.5552ZM116.034 36.5552H120.626V43.4292H119.016V37.8292H116.034V36.5552ZM119.702 35.3512C119.375 35.3512 119.1 35.2532 118.876 35.0572C118.661 34.8612 118.554 34.5999 118.554 34.2732C118.554 33.9465 118.661 33.6852 118.876 33.4892C119.1 33.2839 119.375 33.1812 119.702 33.1812C120.038 33.1812 120.313 33.2839 120.528 33.4892C120.742 33.6852 120.85 33.9465 120.85 34.2732C120.85 34.5999 120.742 34.8612 120.528 35.0572C120.313 35.2532 120.038 35.3512 119.702 35.3512ZM124.4 36.5552H125.73L125.856 37.5912H125.912C126.239 37.2645 126.598 36.9845 126.99 36.7512C127.392 36.5085 127.858 36.3872 128.39 36.3872C129.184 36.3872 129.767 36.6299 130.14 37.1152C130.514 37.5912 130.7 38.2772 130.7 39.1732V43.4292H129.076V39.3832C129.076 38.8232 128.978 38.4172 128.782 38.1652C128.596 37.9039 128.264 37.7732 127.788 37.7732C127.452 37.7732 127.154 37.8525 126.892 38.0112C126.631 38.1699 126.342 38.4125 126.024 38.7392V43.4292H124.4V36.5552ZM140.713 36.5552H141.931L142.057 37.4372H142.099C142.258 37.1385 142.449 36.8912 142.673 36.6952C142.907 36.4899 143.219 36.3872 143.611 36.3872C144.283 36.3872 144.703 36.7699 144.871 37.5352C145.03 37.2085 145.231 36.9379 145.473 36.7232C145.725 36.4992 146.043 36.3872 146.425 36.3872C146.911 36.3872 147.284 36.5785 147.545 36.9612C147.816 37.3345 147.951 37.8665 147.951 38.5572V43.4292H146.425V38.6832C146.425 38.0765 146.234 37.7732 145.851 37.7732C145.665 37.7732 145.501 37.8432 145.361 37.9832C145.221 38.1232 145.086 38.3379 144.955 38.6272V43.4292H143.695V38.6832C143.695 38.0765 143.499 37.7732 143.107 37.7732C142.921 37.7732 142.762 37.8432 142.631 37.9832C142.501 38.1232 142.37 38.3379 142.239 38.6272V43.4292H140.713V36.5552ZM149.682 44.8572C149.775 44.8852 149.869 44.9085 149.962 44.9272C150.055 44.9459 150.153 44.9552 150.256 44.9552C150.695 44.9552 151.045 44.8432 151.306 44.6192C151.567 44.4045 151.768 44.1245 151.908 43.7792L152.076 43.3452L148.996 36.5552H150.606L152.02 39.9292C152.151 40.2372 152.277 40.5639 152.398 40.9092C152.519 41.2545 152.645 41.5999 152.776 41.9452H152.832C152.935 41.6185 153.047 41.2825 153.168 40.9372C153.289 40.5919 153.406 40.2559 153.518 39.9292L154.764 36.5552H156.29L153.42 43.7372C153.271 44.1292 153.103 44.4792 152.916 44.7872C152.739 45.0952 152.529 45.3565 152.286 45.5712C152.043 45.7952 151.763 45.9632 151.446 46.0752C151.129 46.1965 150.765 46.2572 150.354 46.2572C150.167 46.2572 149.99 46.2432 149.822 46.2152C149.654 46.1965 149.505 46.1639 149.374 46.1172L149.682 44.8572ZM164.39 44.2972V45.5572H157.67V44.2972H164.39ZM165.967 39.9992C165.967 39.4392 166.051 38.9352 166.219 38.4872C166.387 38.0392 166.611 37.6612 166.891 37.3532C167.18 37.0452 167.507 36.8072 167.871 36.6392C168.235 36.4712 168.613 36.3872 169.005 36.3872C169.416 36.3872 169.766 36.4619 170.055 36.6112C170.354 36.7512 170.643 36.9472 170.923 37.1992L170.853 36.0372V33.5452H172.477V43.4292H171.147L171.021 42.6312H170.979C170.708 42.9019 170.391 43.1305 170.027 43.3172C169.672 43.5039 169.299 43.5972 168.907 43.5972C168.468 43.5972 168.067 43.5179 167.703 43.3592C167.339 43.1912 167.026 42.9532 166.765 42.6452C166.513 42.3372 166.317 41.9639 166.177 41.5252C166.037 41.0772 165.967 40.5685 165.967 39.9992ZM167.633 39.9852C167.633 40.7319 167.778 41.3012 168.067 41.6932C168.356 42.0759 168.767 42.2672 169.299 42.2672C169.868 42.2672 170.386 41.9919 170.853 41.4412V38.3472C170.61 38.1139 170.368 37.9505 170.125 37.8572C169.882 37.7639 169.635 37.7172 169.383 37.7172C169.14 37.7172 168.912 37.7685 168.697 37.8712C168.492 37.9739 168.31 38.1232 168.151 38.3192C167.992 38.5059 167.866 38.7392 167.773 39.0192C167.68 39.2992 167.633 39.6212 167.633 39.9852ZM174.614 41.5812C174.614 41.1985 174.702 40.8625 174.88 40.5732C175.057 40.2745 175.337 40.0225 175.72 39.8172C176.102 39.6119 176.592 39.4439 177.19 39.3132C177.787 39.1825 178.51 39.0892 179.36 39.0332C179.332 38.6412 179.192 38.3192 178.94 38.0672C178.688 37.8152 178.282 37.6892 177.722 37.6892C177.33 37.6892 176.942 37.7639 176.56 37.9132C176.186 38.0532 175.822 38.2212 175.468 38.4172L174.88 37.3392C175.3 37.0965 175.78 36.8772 176.322 36.6812C176.863 36.4852 177.428 36.3872 178.016 36.3872C178.977 36.3872 179.71 36.6439 180.214 37.1572C180.718 37.6612 180.97 38.3939 180.97 39.3552V43.4292H179.654L179.528 42.5752H179.486C179.122 42.8552 178.716 43.0979 178.268 43.3032C177.829 43.4992 177.376 43.5972 176.91 43.5972C176.574 43.5972 176.266 43.5459 175.986 43.4432C175.706 43.3499 175.463 43.2145 175.258 43.0372C175.052 42.8599 174.894 42.6499 174.782 42.4072C174.67 42.1552 174.614 41.8799 174.614 41.5812ZM176.168 41.4552C176.168 41.7632 176.284 41.9872 176.518 42.1272C176.76 42.2672 177.054 42.3372 177.4 42.3372C177.745 42.3372 178.076 42.2625 178.394 42.1132C178.72 41.9545 179.042 41.7492 179.36 41.4972V40.0412C178.744 40.0879 178.23 40.1532 177.82 40.2372C177.409 40.3119 177.082 40.4099 176.84 40.5312C176.597 40.6525 176.424 40.7925 176.322 40.9512C176.219 41.1005 176.168 41.2685 176.168 41.4552ZM184.674 37.8292H182.84V36.6252L184.744 36.5552L184.954 34.6792H186.284V36.5552H189.42V37.8292H186.284V40.6572C186.284 41.2265 186.401 41.6465 186.634 41.9172C186.867 42.1785 187.278 42.3092 187.866 42.3092C188.165 42.3092 188.435 42.2859 188.678 42.2392C188.921 42.1832 189.154 42.1132 189.378 42.0292L189.686 43.2052C189.378 43.3079 189.037 43.3965 188.664 43.4712C188.291 43.5552 187.894 43.5972 187.474 43.5972C186.951 43.5972 186.513 43.5272 186.158 43.3872C185.803 43.2472 185.514 43.0512 185.29 42.7992C185.075 42.5379 184.917 42.2252 184.814 41.8612C184.721 41.4972 184.674 41.0959 184.674 40.6572V37.8292ZM191.403 41.5812C191.403 41.1985 191.491 40.8625 191.669 40.5732C191.846 40.2745 192.126 40.0225 192.509 39.8172C192.891 39.6119 193.381 39.4439 193.979 39.3132C194.576 39.1825 195.299 39.0892 196.149 39.0332C196.121 38.6412 195.981 38.3192 195.729 38.0672C195.477 37.8152 195.071 37.6892 194.511 37.6892C194.119 37.6892 193.731 37.7639 193.349 37.9132C192.975 38.0532 192.611 38.2212 192.257 38.4172L191.669 37.3392C192.089 37.0965 192.569 36.8772 193.111 36.6812C193.652 36.4852 194.217 36.3872 194.805 36.3872C195.766 36.3872 196.499 36.6439 197.003 37.1572C197.507 37.6612 197.759 38.3939 197.759 39.3552V43.4292H196.443L196.317 42.5752H196.275C195.911 42.8552 195.505 43.0979 195.057 43.3032C194.618 43.4992 194.165 43.5972 193.699 43.5972C193.363 43.5972 193.055 43.5459 192.775 43.4432C192.495 43.3499 192.252 43.2145 192.047 43.0372C191.841 42.8599 191.683 42.6499 191.571 42.4072C191.459 42.1552 191.403 41.8799 191.403 41.5812ZM192.957 41.4552C192.957 41.7632 193.073 41.9872 193.307 42.1272C193.549 42.2672 193.843 42.3372 194.189 42.3372C194.534 42.3372 194.865 42.2625 195.183 42.1132C195.509 41.9545 195.831 41.7492 196.149 41.4972V40.0412C195.533 40.0879 195.019 40.1532 194.609 40.2372C194.198 40.3119 193.871 40.4099 193.629 40.5312C193.386 40.6525 193.213 40.7925 193.111 40.9512C193.008 41.1005 192.957 41.2685 192.957 41.4552Z" fill="#9B51E0"/>
<path d="M192.229 54.5552H193.559L193.699 56.1092H193.741C194.095 55.5492 194.52 55.1245 195.015 54.8352C195.519 54.5365 196.069 54.3872 196.667 54.3872C196.947 54.3872 197.185 54.4105 197.381 54.4572C197.586 54.4945 197.791 54.5645 197.997 54.6672L197.661 56.0252C197.437 55.9505 197.236 55.8992 197.059 55.8712C196.891 55.8339 196.676 55.8152 196.415 55.8152C195.939 55.8152 195.481 55.9505 195.043 56.2212C194.604 56.4919 194.207 56.9632 193.853 57.6352V61.4292H192.229V54.5552ZM199.545 57.9992C199.545 57.4299 199.638 56.9212 199.825 56.4732C200.021 56.0252 200.278 55.6472 200.595 55.3392C200.912 55.0312 201.281 54.7979 201.701 54.6392C202.121 54.4712 202.555 54.3872 203.003 54.3872C203.451 54.3872 203.885 54.4712 204.305 54.6392C204.725 54.7979 205.094 55.0312 205.411 55.3392C205.728 55.6472 205.98 56.0252 206.167 56.4732C206.363 56.9212 206.461 57.4299 206.461 57.9992C206.461 58.5685 206.363 59.0772 206.167 59.5252C205.98 59.9732 205.728 60.3512 205.411 60.6592C205.094 60.9672 204.725 61.2005 204.305 61.3592C203.885 61.5179 203.451 61.5972 203.003 61.5972C202.555 61.5972 202.121 61.5179 201.701 61.3592C201.281 61.2005 200.912 60.9672 200.595 60.6592C200.278 60.3512 200.021 59.9732 199.825 59.5252C199.638 59.0772 199.545 58.5685 199.545 57.9992ZM201.211 57.9992C201.211 58.6899 201.37 59.2452 201.687 59.6652C202.004 60.0759 202.443 60.2812 203.003 60.2812C203.563 60.2812 204.002 60.0759 204.319 59.6652C204.636 59.2452 204.795 58.6899 204.795 57.9992C204.795 57.2992 204.636 56.7439 204.319 56.3332C204.002 55.9132 203.563 55.7032 203.003 55.7032C202.443 55.7032 202.004 55.9132 201.687 56.3332C201.37 56.7439 201.211 57.2992 201.211 57.9992ZM207.282 54.5552H208.878L209.508 58.1252C209.564 58.4519 209.61 58.7785 209.648 59.1052C209.694 59.4319 209.741 59.7632 209.788 60.0992H209.844C209.89 59.7632 209.942 59.4319 209.998 59.1052C210.054 58.7785 210.119 58.4519 210.194 58.1252L210.838 55.2272H212.042L212.686 58.1252C212.76 58.4519 212.826 58.7785 212.882 59.1052C212.947 59.4319 213.008 59.7632 213.064 60.0992H213.12C213.176 59.7632 213.222 59.4319 213.26 59.1052C213.306 58.7785 213.353 58.4519 213.4 58.1252L214.03 54.5552H215.514L214.24 61.4292H212.35L211.748 58.5592C211.692 58.2325 211.636 57.9059 211.58 57.5792C211.533 57.2525 211.482 56.9119 211.426 56.5572H211.37C211.323 56.8279 211.276 57.1219 211.23 57.4392C211.192 57.7472 211.136 58.1252 211.062 58.5732L210.474 61.4292H208.612L207.282 54.5552ZM218.574 51.5172H222.578V52.3992H219.82V62.6752H222.578V63.5572H218.574V51.5172ZM228.187 61.5972C227.169 61.5972 226.362 61.1959 225.765 60.3932C225.177 59.5905 224.883 58.4379 224.883 56.9352C224.883 55.4232 225.177 54.2845 225.765 53.5192C226.362 52.7445 227.169 52.3572 228.187 52.3572C229.204 52.3572 230.007 52.7445 230.595 53.5192C231.192 54.2845 231.491 55.4232 231.491 56.9352C231.491 58.4379 231.192 59.5905 230.595 60.3932C230.007 61.1959 229.204 61.5972 228.187 61.5972ZM228.187 53.6172C227.916 53.6172 227.669 53.6779 227.445 53.7992C227.221 53.9112 227.025 54.0979 226.857 54.3592C226.698 54.6205 226.572 54.9659 226.479 55.3952C226.385 55.8152 226.339 56.3285 226.339 56.9352C226.339 57.5419 226.385 58.0645 226.479 58.5032C226.572 58.9325 226.698 59.2825 226.857 59.5532C227.025 59.8239 227.221 60.0245 227.445 60.1552C227.669 60.2765 227.916 60.3372 228.187 60.3372C228.448 60.3372 228.691 60.2765 228.915 60.1552C229.148 60.0245 229.344 59.8239 229.503 59.5532C229.671 59.2825 229.801 58.9325 229.895 58.5032C229.988 58.0645 230.035 57.5419 230.035 56.9352C230.035 56.3285 229.988 55.8152 229.895 55.3952C229.801 54.9659 229.671 54.6205 229.503 54.3592C229.344 54.0979 229.148 53.9112 228.915 53.7992C228.691 53.6779 228.448 53.6172 228.187 53.6172ZM228.187 57.8732C227.916 57.8732 227.687 57.7845 227.501 57.6072C227.314 57.4299 227.221 57.1872 227.221 56.8792C227.221 56.5712 227.314 56.3285 227.501 56.1512C227.687 55.9739 227.916 55.8852 228.187 55.8852C228.457 55.8852 228.686 55.9739 228.873 56.1512C229.059 56.3285 229.153 56.5712 229.153 56.8792C229.153 57.1872 229.059 57.4299 228.873 57.6072C228.686 57.7845 228.457 57.8732 228.187 57.8732ZM236.553 62.6752V52.3992H233.809V51.5172H237.813V63.5572H233.809V62.6752H236.553Z" fill="#EB5757"/>
</svg>
