<svg width="1120" height="420" viewBox="0 0 1120 420" fill="none" xmlns="http://www.w3.org/2000/svg">
<rect width="560" height="210" transform="scale(2)" fill="white"/>
<rect x="464" y="192" width="58" height="52" stroke="black"/>
<path d="M495.273 222.496L494.629 220.256C494.368 219.285 494.097 218.287 493.817 217.26C493.537 216.233 493.267 215.216 493.005 214.208H492.893C492.632 215.235 492.361 216.261 492.081 217.288C491.82 218.296 491.549 219.285 491.269 220.256L490.625 222.496H495.273ZM496.001 225.044H489.897L488.469 230H485.165L491.101 211.688H494.909L500.845 230H497.401L496.001 225.044Z" fill="#B82629"/>
<rect x="336" y="14" width="58" height="52" stroke="black"/>
<path d="M359.593 48.304C359.593 47.5387 359.771 46.8667 360.125 46.288C360.48 45.6907 361.04 45.1867 361.805 44.776C362.571 44.3653 363.551 44.0293 364.745 43.768C365.94 43.5067 367.387 43.32 369.085 43.208C369.029 42.424 368.749 41.78 368.245 41.276C367.741 40.772 366.929 40.52 365.809 40.52C365.025 40.52 364.251 40.6693 363.485 40.968C362.739 41.248 362.011 41.584 361.301 41.976L360.125 39.82C360.965 39.3347 361.927 38.896 363.009 38.504C364.092 38.112 365.221 37.916 366.397 37.916C368.32 37.916 369.785 38.4293 370.793 39.456C371.801 40.464 372.305 41.9293 372.305 43.852V52H369.673L369.421 50.292H369.337C368.609 50.852 367.797 51.3373 366.901 51.748C366.024 52.14 365.119 52.336 364.185 52.336C363.513 52.336 362.897 52.2333 362.337 52.028C361.777 51.8413 361.292 51.5707 360.881 51.216C360.471 50.8613 360.153 50.4413 359.929 49.956C359.705 49.452 359.593 48.9013 359.593 48.304ZM362.701 48.052C362.701 48.668 362.935 49.116 363.401 49.396C363.887 49.676 364.475 49.816 365.165 49.816C365.856 49.816 366.519 49.6667 367.153 49.368C367.807 49.0507 368.451 48.64 369.085 48.136V45.224C367.853 45.3173 366.827 45.448 366.005 45.616C365.184 45.7653 364.531 45.9613 364.045 46.204C363.56 46.4467 363.215 46.7267 363.009 47.044C362.804 47.3427 362.701 47.6787 362.701 48.052Z" fill="#B82629"/>
<rect x="394" y="14" width="60" height="52" stroke="black"/>
<path d="M418.901 32.232H422.149V37.328L422.037 39.736C422.635 39.176 423.307 38.7373 424.053 38.42C424.8 38.084 425.547 37.916 426.293 37.916C427.189 37.916 427.983 38.084 428.673 38.42C429.364 38.7373 429.952 39.204 430.437 39.82C430.923 40.4173 431.287 41.1453 431.529 42.004C431.791 42.8627 431.921 43.824 431.921 44.888C431.921 46.064 431.753 47.1187 431.417 48.052C431.081 48.9667 430.624 49.7413 430.045 50.376C429.485 51.0107 428.832 51.496 428.085 51.832C427.357 52.168 426.601 52.336 425.817 52.336C425.164 52.336 424.483 52.1773 423.773 51.86C423.064 51.5427 422.411 51.0853 421.813 50.488H421.729L421.449 52H418.901V32.232ZM422.149 48.416C422.653 48.8827 423.176 49.2093 423.717 49.396C424.259 49.5827 424.744 49.676 425.173 49.676C426.144 49.676 426.956 49.284 427.609 48.5C428.263 47.6973 428.589 46.512 428.589 44.944C428.589 43.5627 428.337 42.4893 427.833 41.724C427.329 40.9587 426.517 40.576 425.397 40.576C424.875 40.576 424.343 40.7067 423.801 40.968C423.26 41.2293 422.709 41.6493 422.149 42.228V48.416Z" fill="#B82629"/>
<rect x="454" y="14" width="60" height="52" stroke="black"/>
<path d="M477.649 45.14C477.649 44.0013 477.855 42.984 478.265 42.088C478.695 41.192 479.264 40.436 479.973 39.82C480.683 39.204 481.513 38.7373 482.465 38.42C483.417 38.084 484.416 37.916 485.461 37.916C486.581 37.916 487.561 38.1027 488.401 38.476C489.26 38.8493 489.979 39.3067 490.557 39.848L489.017 41.864C488.476 41.4347 487.925 41.108 487.365 40.884C486.824 40.66 486.245 40.548 485.629 40.548C484.248 40.548 483.128 40.968 482.269 41.808C481.411 42.6293 480.981 43.74 480.981 45.14C480.981 45.8307 481.093 46.456 481.317 47.016C481.541 47.576 481.849 48.0613 482.241 48.472C482.652 48.864 483.137 49.172 483.697 49.396C484.257 49.6013 484.873 49.704 485.545 49.704C486.329 49.704 487.039 49.5547 487.673 49.256C488.327 48.9573 488.924 48.6027 489.465 48.192L490.809 50.264C490.025 50.9547 489.148 51.4773 488.177 51.832C487.207 52.168 486.227 52.336 485.237 52.336C484.155 52.336 483.147 52.1773 482.213 51.86C481.299 51.5427 480.496 51.076 479.805 50.46C479.133 49.844 478.601 49.088 478.209 48.192C477.836 47.296 477.649 46.2787 477.649 45.14Z" fill="#B82629"/>
<rect x="514" y="14" width="58" height="52" stroke="black"/>
<path d="M536.089 45.14C536.089 44.02 536.257 43.012 536.593 42.116C536.929 41.22 537.377 40.464 537.937 39.848C538.516 39.232 539.169 38.756 539.897 38.42C540.625 38.084 541.381 37.916 542.165 37.916C542.987 37.916 543.687 38.0653 544.265 38.364C544.863 38.644 545.441 39.036 546.001 39.54L545.861 37.216V32.232H549.109V52H546.449L546.197 50.404H546.113C545.572 50.9453 544.937 51.4027 544.209 51.776C543.5 52.1493 542.753 52.336 541.969 52.336C541.092 52.336 540.289 52.1773 539.561 51.86C538.833 51.524 538.208 51.048 537.685 50.432C537.181 49.816 536.789 49.0693 536.509 48.192C536.229 47.296 536.089 46.2787 536.089 45.14ZM539.421 45.112C539.421 46.6053 539.711 47.744 540.289 48.528C540.868 49.2933 541.689 49.676 542.753 49.676C543.892 49.676 544.928 49.1253 545.861 48.024V41.836C545.376 41.3693 544.891 41.0427 544.405 40.856C543.92 40.6693 543.425 40.576 542.921 40.576C542.436 40.576 541.979 40.6787 541.549 40.884C541.139 41.0893 540.775 41.388 540.457 41.78C540.14 42.1533 539.888 42.62 539.701 43.18C539.515 43.74 539.421 44.384 539.421 45.112Z" fill="#B82629"/>
<rect x="464" y="244" width="58" height="54" stroke="black"/>
<path d="M487.209 265.688H492.613C493.547 265.688 494.405 265.772 495.189 265.94C495.992 266.089 496.683 266.341 497.261 266.696C497.84 267.032 498.288 267.489 498.605 268.068C498.941 268.647 499.109 269.356 499.109 270.196C499.109 271.073 498.848 271.885 498.325 272.632C497.803 273.379 497 273.892 495.917 274.172V274.284C497.261 274.508 498.279 274.984 498.969 275.712C499.679 276.421 500.033 277.392 500.033 278.624C500.033 279.539 499.856 280.332 499.501 281.004C499.165 281.676 498.68 282.236 498.045 282.684C497.429 283.132 496.692 283.468 495.833 283.692C494.993 283.897 494.069 284 493.061 284H487.209V265.688ZM492.305 273.276C493.593 273.276 494.517 273.043 495.077 272.576C495.637 272.109 495.917 271.447 495.917 270.588C495.917 269.748 495.619 269.141 495.021 268.768C494.443 268.395 493.565 268.208 492.389 268.208H490.457V273.276H492.305ZM492.725 281.48C494.069 281.48 495.096 281.228 495.805 280.724C496.515 280.22 496.869 279.445 496.869 278.4C496.869 276.533 495.488 275.6 492.725 275.6H490.457V281.48H492.725Z" fill="#B82629"/>
<rect x="464" y="298" width="58" height="52" stroke="black"/>
<path d="M486.285 326.9C486.285 325.407 486.5 324.072 486.929 322.896C487.359 321.701 487.947 320.693 488.693 319.872C489.459 319.051 490.355 318.425 491.381 317.996C492.427 317.567 493.556 317.352 494.769 317.352C495.889 317.352 496.888 317.585 497.765 318.052C498.643 318.519 499.38 319.051 499.977 319.648L498.157 321.664C497.709 321.216 497.205 320.861 496.645 320.6C496.104 320.32 495.479 320.18 494.769 320.18C494.004 320.18 493.304 320.339 492.669 320.656C492.035 320.955 491.493 321.393 491.045 321.972C490.597 322.532 490.243 323.223 489.981 324.044C489.739 324.865 489.617 325.789 489.617 326.816C489.617 327.861 489.739 328.804 489.981 329.644C490.243 330.465 490.597 331.165 491.045 331.744C491.512 332.304 492.063 332.743 492.697 333.06C493.351 333.359 494.069 333.508 494.853 333.508C495.6 333.508 496.263 333.349 496.841 333.032C497.439 332.715 497.999 332.267 498.521 331.688L500.313 333.676C499.567 334.535 498.727 335.197 497.793 335.664C496.86 336.112 495.815 336.336 494.657 336.336C493.481 336.336 492.38 336.131 491.353 335.72C490.345 335.309 489.459 334.703 488.693 333.9C487.947 333.097 487.359 332.108 486.929 330.932C486.5 329.756 486.285 328.412 486.285 326.9Z" fill="#B82629"/>
<rect x="464" y="350" width="58" height="54" stroke="black"/>
<path d="M486.705 371.688H491.437C494.144 371.688 496.253 372.444 497.765 373.956C499.296 375.468 500.061 377.736 500.061 380.76C500.061 382.272 499.865 383.607 499.473 384.764C499.081 385.921 498.521 386.892 497.793 387.676C497.065 388.441 496.179 389.02 495.133 389.412C494.088 389.804 492.912 390 491.605 390H486.705V371.688ZM491.241 387.368C492.996 387.368 494.349 386.836 495.301 385.772C496.253 384.689 496.729 383.019 496.729 380.76C496.729 378.52 496.253 376.887 495.301 375.86C494.349 374.833 492.996 374.32 491.241 374.32H489.953V387.368H491.241Z" fill="#B82629"/>
<rect x="406" y="192" width="58" height="52" stroke="black"/>
<path d="M428.593 226.304C428.593 225.539 428.771 224.867 429.125 224.288C429.48 223.691 430.04 223.187 430.805 222.776C431.571 222.365 432.551 222.029 433.745 221.768C434.94 221.507 436.387 221.32 438.085 221.208C438.029 220.424 437.749 219.78 437.245 219.276C436.741 218.772 435.929 218.52 434.809 218.52C434.025 218.52 433.251 218.669 432.485 218.968C431.739 219.248 431.011 219.584 430.301 219.976L429.125 217.82C429.965 217.335 430.927 216.896 432.009 216.504C433.092 216.112 434.221 215.916 435.397 215.916C437.32 215.916 438.785 216.429 439.793 217.456C440.801 218.464 441.305 219.929 441.305 221.852V230H438.673L438.421 228.292H438.337C437.609 228.852 436.797 229.337 435.901 229.748C435.024 230.14 434.119 230.336 433.185 230.336C432.513 230.336 431.897 230.233 431.337 230.028C430.777 229.841 430.292 229.571 429.881 229.216C429.471 228.861 429.153 228.441 428.929 227.956C428.705 227.452 428.593 226.901 428.593 226.304ZM431.701 226.052C431.701 226.668 431.935 227.116 432.401 227.396C432.887 227.676 433.475 227.816 434.165 227.816C434.856 227.816 435.519 227.667 436.153 227.368C436.807 227.051 437.451 226.64 438.085 226.136V223.224C436.853 223.317 435.827 223.448 435.005 223.616C434.184 223.765 433.531 223.961 433.045 224.204C432.56 224.447 432.215 224.727 432.009 225.044C431.804 225.343 431.701 225.679 431.701 226.052Z" fill="#B82629"/>
<rect x="406" y="244" width="58" height="54" stroke="black"/>
<path d="M428.901 264.232H432.149V269.328L432.037 271.736C432.635 271.176 433.307 270.737 434.053 270.42C434.8 270.084 435.547 269.916 436.293 269.916C437.189 269.916 437.983 270.084 438.673 270.42C439.364 270.737 439.952 271.204 440.437 271.82C440.923 272.417 441.287 273.145 441.529 274.004C441.791 274.863 441.921 275.824 441.921 276.888C441.921 278.064 441.753 279.119 441.417 280.052C441.081 280.967 440.624 281.741 440.045 282.376C439.485 283.011 438.832 283.496 438.085 283.832C437.357 284.168 436.601 284.336 435.817 284.336C435.164 284.336 434.483 284.177 433.773 283.86C433.064 283.543 432.411 283.085 431.813 282.488H431.729L431.449 284H428.901V264.232ZM432.149 280.416C432.653 280.883 433.176 281.209 433.717 281.396C434.259 281.583 434.744 281.676 435.173 281.676C436.144 281.676 436.956 281.284 437.609 280.5C438.263 279.697 438.589 278.512 438.589 276.944C438.589 275.563 438.337 274.489 437.833 273.724C437.329 272.959 436.517 272.576 435.397 272.576C434.875 272.576 434.343 272.707 433.801 272.968C433.26 273.229 432.709 273.649 432.149 274.228V280.416Z" fill="#B82629"/>
<rect x="406" y="298" width="58" height="52" stroke="black"/>
<path d="M428.649 329.14C428.649 328.001 428.855 326.984 429.265 326.088C429.695 325.192 430.264 324.436 430.973 323.82C431.683 323.204 432.513 322.737 433.465 322.42C434.417 322.084 435.416 321.916 436.461 321.916C437.581 321.916 438.561 322.103 439.401 322.476C440.26 322.849 440.979 323.307 441.557 323.848L440.017 325.864C439.476 325.435 438.925 325.108 438.365 324.884C437.824 324.66 437.245 324.548 436.629 324.548C435.248 324.548 434.128 324.968 433.269 325.808C432.411 326.629 431.981 327.74 431.981 329.14C431.981 329.831 432.093 330.456 432.317 331.016C432.541 331.576 432.849 332.061 433.241 332.472C433.652 332.864 434.137 333.172 434.697 333.396C435.257 333.601 435.873 333.704 436.545 333.704C437.329 333.704 438.039 333.555 438.673 333.256C439.327 332.957 439.924 332.603 440.465 332.192L441.809 334.264C441.025 334.955 440.148 335.477 439.177 335.832C438.207 336.168 437.227 336.336 436.237 336.336C435.155 336.336 434.147 336.177 433.213 335.86C432.299 335.543 431.496 335.076 430.805 334.46C430.133 333.844 429.601 333.088 429.209 332.192C428.836 331.296 428.649 330.279 428.649 329.14Z" fill="#B82629"/>
<rect x="406" y="350" width="58" height="54" stroke="black"/>
<path d="M428.089 383.14C428.089 382.02 428.257 381.012 428.593 380.116C428.929 379.22 429.377 378.464 429.937 377.848C430.516 377.232 431.169 376.756 431.897 376.42C432.625 376.084 433.381 375.916 434.165 375.916C434.987 375.916 435.687 376.065 436.265 376.364C436.863 376.644 437.441 377.036 438.001 377.54L437.861 375.216V370.232H441.109V390H438.449L438.197 388.404H438.113C437.572 388.945 436.937 389.403 436.209 389.776C435.5 390.149 434.753 390.336 433.969 390.336C433.092 390.336 432.289 390.177 431.561 389.86C430.833 389.524 430.208 389.048 429.685 388.432C429.181 387.816 428.789 387.069 428.509 386.192C428.229 385.296 428.089 384.279 428.089 383.14ZM431.421 383.112C431.421 384.605 431.711 385.744 432.289 386.528C432.868 387.293 433.689 387.676 434.753 387.676C435.892 387.676 436.928 387.125 437.861 386.024V379.836C437.376 379.369 436.891 379.043 436.405 378.856C435.92 378.669 435.425 378.576 434.921 378.576C434.436 378.576 433.979 378.679 433.549 378.884C433.139 379.089 432.775 379.388 432.457 379.78C432.14 380.153 431.888 380.62 431.701 381.18C431.515 381.74 431.421 382.384 431.421 383.112Z" fill="#B82629"/>
<path d="M116.361 47.8535H125.521L125.139 50H113.408L116.867 30.0938H119.451L116.361 47.8535ZM130.471 50H128.01L130.58 35.207H133.041L130.471 50ZM132.508 29.8066C132.927 29.7884 133.273 29.916 133.547 30.1895C133.829 30.4538 133.971 30.8047 133.971 31.2422C133.962 31.6706 133.82 32.0215 133.547 32.2949C133.283 32.5684 132.936 32.7142 132.508 32.7324C132.079 32.7507 131.729 32.6276 131.455 32.3633C131.182 32.099 131.049 31.7526 131.059 31.3242C131.068 30.8958 131.204 30.5404 131.469 30.2578C131.733 29.9753 132.079 29.8249 132.508 29.8066ZM143.678 45.9941C143.814 44.9733 143.254 44.2533 141.996 43.834L139.426 43.082C137.257 42.3346 136.208 41.0951 136.281 39.3633C136.345 38.0599 136.938 36.9935 138.059 36.1641C139.189 35.3255 140.515 34.9154 142.037 34.9336C143.532 34.9518 144.744 35.3893 145.674 36.2461C146.613 37.0938 147.064 38.2012 147.027 39.5684L144.566 39.5547C144.585 38.8164 144.352 38.2148 143.869 37.75C143.386 37.2852 142.743 37.0436 141.941 37.0254C141.085 37.0072 140.346 37.2168 139.727 37.6543C139.152 38.0645 138.82 38.6022 138.729 39.2676C138.61 40.1243 139.134 40.7487 140.301 41.1406L141.545 41.4824C143.24 41.9199 144.443 42.4896 145.154 43.1914C145.865 43.8932 146.193 44.7637 146.139 45.8027C146.084 46.7233 145.783 47.5254 145.236 48.209C144.689 48.8926 143.96 49.4167 143.049 49.7812C142.137 50.1367 141.167 50.3008 140.137 50.2734C138.569 50.2552 137.275 49.7995 136.254 48.9062C135.233 48.0039 134.741 46.8464 134.777 45.4336L137.252 45.4473C137.252 46.2767 137.516 46.9421 138.045 47.4434C138.574 47.9447 139.298 48.1953 140.219 48.1953C141.121 48.2135 141.9 48.0267 142.557 47.6348C143.213 47.2337 143.587 46.6868 143.678 45.9941ZM155.189 31.625L154.561 35.207H157.254L156.912 37.1621H154.232L152.688 46.3633C152.66 46.6003 152.656 46.819 152.674 47.0195C152.738 47.7305 153.125 48.0859 153.836 48.0859C154.137 48.0859 154.538 48.0404 155.039 47.9492L154.848 50.0137C154.255 50.1777 153.654 50.2598 153.043 50.2598C152.059 50.2415 151.32 49.8815 150.828 49.1797C150.336 48.4688 150.145 47.5163 150.254 46.3223L151.758 37.1621H149.146L149.488 35.207H152.1L152.729 31.625H155.189ZM172.758 34.9336C173.997 34.9518 175.059 35.2891 175.943 35.9453C176.827 36.6016 177.479 37.5085 177.898 38.666C178.327 39.8145 178.473 41.0723 178.336 42.4395L178.309 42.7402C178.135 44.1803 177.707 45.4837 177.023 46.6504C176.34 47.8079 175.456 48.7103 174.371 49.3574C173.286 50.0046 172.097 50.3099 170.803 50.2734C169.572 50.2552 168.51 49.918 167.617 49.2617C166.733 48.6055 166.086 47.7122 165.676 46.582C165.266 45.4518 165.12 44.2077 165.238 42.8496C165.375 41.3184 165.79 39.9421 166.482 38.7207C167.175 37.4993 168.064 36.556 169.148 35.8906C170.242 35.2161 171.445 34.8971 172.758 34.9336ZM167.727 42.8633C167.663 43.4375 167.663 44.0345 167.727 44.6543C167.818 45.7298 168.137 46.5866 168.684 47.2246C169.24 47.8626 169.978 48.1953 170.898 48.2227C171.719 48.25 172.475 48.0495 173.168 47.6211C173.861 47.1836 174.444 46.5273 174.918 45.6523C175.392 44.7773 175.697 43.8066 175.834 42.7402C175.907 41.9017 175.921 41.1953 175.875 40.6211C175.766 39.5182 175.433 38.6478 174.877 38.0098C174.321 37.3717 173.583 37.0345 172.662 36.998C171.386 36.9707 170.301 37.472 169.408 38.502C168.515 39.5319 167.964 40.8809 167.754 42.5488L167.727 42.8633ZM185.09 35.1934L184.734 37.0664C186.065 35.6081 187.578 34.8971 189.273 34.9336C190.668 34.9701 191.698 35.4531 192.363 36.3828C193.029 37.3125 193.275 38.6204 193.102 40.3066L191.488 50H189.014L190.641 40.2656C190.695 39.819 190.7 39.4043 190.654 39.0215C190.499 37.7454 189.747 37.0938 188.398 37.0664C186.913 37.0391 185.609 37.832 184.488 39.4453L182.656 50H180.182L182.752 35.207L185.09 35.1934ZM201.701 50.2734C199.86 50.237 198.42 49.5579 197.381 48.2363C196.342 46.9147 195.904 45.224 196.068 43.1641L196.137 42.5762C196.292 41.1087 196.725 39.7689 197.436 38.5566C198.156 37.3444 199.031 36.4329 200.061 35.8223C201.09 35.2025 202.202 34.9062 203.396 34.9336C204.919 34.9701 206.113 35.4759 206.979 36.4512C207.844 37.4264 208.318 38.748 208.4 40.416C208.428 41.0085 208.41 41.6009 208.346 42.1934L208.195 43.3281H198.529C198.365 44.668 198.584 45.8073 199.186 46.7461C199.796 47.6849 200.703 48.1725 201.906 48.209C203.365 48.2454 204.714 47.5892 205.953 46.2402L207.375 47.4434C206.755 48.3366 205.953 49.0384 204.969 49.5488C203.993 50.0501 202.904 50.2917 201.701 50.2734ZM203.273 36.998C202.253 36.9707 201.359 37.3171 200.594 38.0371C199.837 38.7572 199.236 39.8281 198.789 41.25L205.98 41.2637L206.035 41.0449C206.181 39.8965 205.994 38.944 205.475 38.1875C204.964 37.4219 204.23 37.0254 203.273 36.998Z" fill="black"/>
<path d="M66.0664 307.854H75.2266L74.8438 310H63.1133L66.5723 290.094H69.1562L66.0664 307.854ZM80.1758 310H77.7148L80.2852 295.207H82.7461L80.1758 310ZM82.2129 289.807C82.6322 289.788 82.9785 289.916 83.252 290.189C83.5345 290.454 83.6758 290.805 83.6758 291.242C83.6667 291.671 83.5254 292.021 83.252 292.295C82.9876 292.568 82.6413 292.714 82.2129 292.732C81.7845 292.751 81.4336 292.628 81.1602 292.363C80.8867 292.099 80.7546 291.753 80.7637 291.324C80.7728 290.896 80.9095 290.54 81.1738 290.258C81.4382 289.975 81.7845 289.825 82.2129 289.807ZM93.3828 305.994C93.5195 304.973 92.959 304.253 91.7012 303.834L89.1309 303.082C86.9616 302.335 85.9134 301.095 85.9863 299.363C86.0501 298.06 86.6426 296.993 87.7637 296.164C88.8939 295.326 90.2201 294.915 91.7422 294.934C93.237 294.952 94.4492 295.389 95.3789 296.246C96.3177 297.094 96.7689 298.201 96.7324 299.568L94.2715 299.555C94.2897 298.816 94.0573 298.215 93.5742 297.75C93.0911 297.285 92.4486 297.044 91.6465 297.025C90.7897 297.007 90.0514 297.217 89.4316 297.654C88.8574 298.064 88.5247 298.602 88.4336 299.268C88.3151 300.124 88.8392 300.749 90.0059 301.141L91.25 301.482C92.9453 301.92 94.1484 302.49 94.8594 303.191C95.5703 303.893 95.8984 304.764 95.8438 305.803C95.7891 306.723 95.4883 307.525 94.9414 308.209C94.3945 308.893 93.6654 309.417 92.7539 309.781C91.8424 310.137 90.8717 310.301 89.8418 310.273C88.2741 310.255 86.9798 309.799 85.959 308.906C84.9382 308.004 84.446 306.846 84.4824 305.434L86.957 305.447C86.957 306.277 87.2214 306.942 87.75 307.443C88.2786 307.945 89.0033 308.195 89.9238 308.195C90.8262 308.214 91.6055 308.027 92.2617 307.635C92.918 307.234 93.2917 306.687 93.3828 305.994ZM104.895 291.625L104.266 295.207H106.959L106.617 297.162H103.938L102.393 306.363C102.365 306.6 102.361 306.819 102.379 307.02C102.443 307.73 102.83 308.086 103.541 308.086C103.842 308.086 104.243 308.04 104.744 307.949L104.553 310.014C103.96 310.178 103.359 310.26 102.748 310.26C101.764 310.242 101.025 309.882 100.533 309.18C100.041 308.469 99.8496 307.516 99.959 306.322L101.463 297.162H98.8516L99.1934 295.207H101.805L102.434 291.625H104.895ZM116.543 305.994C116.68 304.973 116.119 304.253 114.861 303.834L112.291 303.082C110.122 302.335 109.074 301.095 109.146 299.363C109.21 298.06 109.803 296.993 110.924 296.164C112.054 295.326 113.38 294.915 114.902 294.934C116.397 294.952 117.609 295.389 118.539 296.246C119.478 297.094 119.929 298.201 119.893 299.568L117.432 299.555C117.45 298.816 117.217 298.215 116.734 297.75C116.251 297.285 115.609 297.044 114.807 297.025C113.95 297.007 113.212 297.217 112.592 297.654C112.018 298.064 111.685 298.602 111.594 299.268C111.475 300.124 111.999 300.749 113.166 301.141L114.41 301.482C116.105 301.92 117.309 302.49 118.02 303.191C118.73 303.893 119.059 304.764 119.004 305.803C118.949 306.723 118.648 307.525 118.102 308.209C117.555 308.893 116.826 309.417 115.914 309.781C115.003 310.137 114.032 310.301 113.002 310.273C111.434 310.255 110.14 309.799 109.119 308.906C108.098 308.004 107.606 306.846 107.643 305.434L110.117 305.447C110.117 306.277 110.382 306.942 110.91 307.443C111.439 307.945 112.163 308.195 113.084 308.195C113.986 308.214 114.766 308.027 115.422 307.635C116.078 307.234 116.452 306.687 116.543 305.994ZM136.6 294.934C137.839 294.952 138.901 295.289 139.785 295.945C140.669 296.602 141.321 297.508 141.74 298.666C142.169 299.814 142.314 301.072 142.178 302.439L142.15 302.74C141.977 304.18 141.549 305.484 140.865 306.65C140.182 307.808 139.298 308.71 138.213 309.357C137.128 310.005 135.939 310.31 134.645 310.273C133.414 310.255 132.352 309.918 131.459 309.262C130.575 308.605 129.928 307.712 129.518 306.582C129.107 305.452 128.962 304.208 129.08 302.85C129.217 301.318 129.632 299.942 130.324 298.721C131.017 297.499 131.906 296.556 132.99 295.891C134.084 295.216 135.287 294.897 136.6 294.934ZM131.568 302.863C131.505 303.438 131.505 304.035 131.568 304.654C131.66 305.73 131.979 306.587 132.525 307.225C133.081 307.863 133.82 308.195 134.74 308.223C135.561 308.25 136.317 308.049 137.01 307.621C137.702 307.184 138.286 306.527 138.76 305.652C139.234 304.777 139.539 303.807 139.676 302.74C139.749 301.902 139.762 301.195 139.717 300.621C139.607 299.518 139.275 298.648 138.719 298.01C138.163 297.372 137.424 297.035 136.504 296.998C135.228 296.971 134.143 297.472 133.25 298.502C132.357 299.532 131.805 300.881 131.596 302.549L131.568 302.863ZM148.932 295.193L148.576 297.066C149.907 295.608 151.42 294.897 153.115 294.934C154.51 294.97 155.54 295.453 156.205 296.383C156.87 297.312 157.117 298.62 156.943 300.307L155.33 310H152.855L154.482 300.266C154.537 299.819 154.542 299.404 154.496 299.021C154.341 297.745 153.589 297.094 152.24 297.066C150.755 297.039 149.451 297.832 148.33 299.445L146.498 310H144.023L146.594 295.207L148.932 295.193ZM165.543 310.273C163.702 310.237 162.262 309.558 161.223 308.236C160.184 306.915 159.746 305.224 159.91 303.164L159.979 302.576C160.133 301.109 160.566 299.769 161.277 298.557C161.997 297.344 162.872 296.433 163.902 295.822C164.932 295.202 166.044 294.906 167.238 294.934C168.76 294.97 169.954 295.476 170.82 296.451C171.686 297.426 172.16 298.748 172.242 300.416C172.27 301.008 172.251 301.601 172.188 302.193L172.037 303.328H162.371C162.207 304.668 162.426 305.807 163.027 306.746C163.638 307.685 164.545 308.173 165.748 308.209C167.206 308.245 168.555 307.589 169.795 306.24L171.217 307.443C170.597 308.337 169.795 309.038 168.811 309.549C167.835 310.05 166.746 310.292 165.543 310.273ZM167.115 296.998C166.094 296.971 165.201 297.317 164.436 298.037C163.679 298.757 163.077 299.828 162.631 301.25L169.822 301.264L169.877 301.045C170.023 299.896 169.836 298.944 169.316 298.188C168.806 297.422 168.072 297.025 167.115 296.998ZM189.578 310C189.514 309.736 189.482 309.476 189.482 309.221L189.523 308.441C188.165 309.699 186.725 310.31 185.203 310.273C183.9 310.255 182.838 309.845 182.018 309.043C181.206 308.232 180.837 307.22 180.91 306.008C181.001 304.44 181.685 303.219 182.961 302.344C184.246 301.46 185.932 301.018 188.02 301.018L190.604 301.031L190.768 299.855C190.859 298.971 190.686 298.274 190.248 297.764C189.82 297.244 189.173 296.975 188.307 296.957C187.459 296.939 186.707 297.148 186.051 297.586C185.404 298.014 185.007 298.584 184.861 299.295L182.373 299.309C182.455 298.443 182.792 297.677 183.385 297.012C183.977 296.337 184.738 295.818 185.668 295.453C186.598 295.079 187.559 294.902 188.553 294.92C190.093 294.956 191.292 295.426 192.148 296.328C193.005 297.221 193.365 298.411 193.229 299.896L192.025 307.225L191.957 308.277C191.939 308.779 191.993 309.275 192.121 309.768L192.094 310H189.578ZM185.695 308.086C186.488 308.104 187.236 307.917 187.938 307.525C188.648 307.124 189.259 306.573 189.77 305.871L190.303 302.822L188.43 302.809C186.871 302.809 185.677 303.055 184.848 303.547C184.018 304.039 183.549 304.736 183.439 305.639C183.357 306.331 183.517 306.91 183.918 307.375C184.328 307.831 184.921 308.068 185.695 308.086ZM200.365 295.193L200.01 297.066C201.34 295.608 202.854 294.897 204.549 294.934C205.943 294.97 206.973 295.453 207.639 296.383C208.304 297.312 208.55 298.62 208.377 300.307L206.764 310H204.289L205.916 300.266C205.971 299.819 205.975 299.404 205.93 299.021C205.775 297.745 205.023 297.094 203.674 297.066C202.188 297.039 200.885 297.832 199.764 299.445L197.932 310H195.457L198.027 295.207L200.365 295.193ZM211.289 302.576C211.471 301.072 211.886 299.714 212.533 298.502C213.18 297.29 213.978 296.383 214.926 295.781C215.874 295.18 216.917 294.893 218.057 294.92C219.706 294.956 220.973 295.558 221.857 296.725L223.279 289H225.754L222.117 310H219.861L220.121 308.414C218.954 309.69 217.514 310.31 215.801 310.273C214.434 310.237 213.344 309.704 212.533 308.674C211.722 307.635 211.285 306.245 211.221 304.504C211.193 303.966 211.216 303.324 211.289 302.576ZM213.668 303.998C213.641 305.301 213.873 306.313 214.365 307.033C214.857 307.753 215.577 308.122 216.525 308.141C217.956 308.204 219.228 307.484 220.34 305.98L221.516 299.145C220.969 297.796 219.975 297.103 218.535 297.066C217.56 297.039 216.699 297.335 215.951 297.955C215.213 298.566 214.648 299.427 214.256 300.539C213.873 301.642 213.677 302.795 213.668 303.998ZM239.426 291.625L238.797 295.207H241.49L241.148 297.162H238.469L236.924 306.363C236.896 306.6 236.892 306.819 236.91 307.02C236.974 307.73 237.361 308.086 238.072 308.086C238.373 308.086 238.774 308.04 239.275 307.949L239.084 310.014C238.492 310.178 237.89 310.26 237.279 310.26C236.295 310.242 235.557 309.882 235.064 309.18C234.572 308.469 234.381 307.516 234.49 306.322L235.994 297.162H233.383L233.725 295.207H236.336L236.965 291.625H239.426ZM255.189 306.5L259.906 295.207H262.463L255.723 310H253.713L252.182 298.816L246.85 310H244.84L243.24 295.207H245.605L246.508 306.227L251.758 295.207H253.754L255.189 306.5ZM270.693 294.934C271.933 294.952 272.995 295.289 273.879 295.945C274.763 296.602 275.415 297.508 275.834 298.666C276.262 299.814 276.408 301.072 276.271 302.439L276.244 302.74C276.071 304.18 275.643 305.484 274.959 306.65C274.275 307.808 273.391 308.71 272.307 309.357C271.222 310.005 270.033 310.31 268.738 310.273C267.508 310.255 266.446 309.918 265.553 309.262C264.669 308.605 264.021 307.712 263.611 306.582C263.201 305.452 263.055 304.208 263.174 302.85C263.311 301.318 263.725 299.942 264.418 298.721C265.111 297.499 265.999 296.556 267.084 295.891C268.178 295.216 269.381 294.897 270.693 294.934ZM265.662 302.863C265.598 303.438 265.598 304.035 265.662 304.654C265.753 305.73 266.072 306.587 266.619 307.225C267.175 307.863 267.913 308.195 268.834 308.223C269.654 308.25 270.411 308.049 271.104 307.621C271.796 307.184 272.38 306.527 272.854 305.652C273.327 304.777 273.633 303.807 273.77 302.74C273.842 301.902 273.856 301.195 273.811 300.621C273.701 299.518 273.368 298.648 272.812 298.01C272.257 297.372 271.518 297.035 270.598 296.998C269.322 296.971 268.237 297.472 267.344 298.502C266.451 299.532 265.899 300.881 265.689 302.549L265.662 302.863ZM78.084 339.936H86.3965L86.0273 342H74.625L74.9668 340.018L84.6602 329.299H76.9355L77.3184 327.207H88.2012L87.873 329.121L78.084 339.936ZM91.6055 342H89.1445L91.7148 327.207H94.1758L91.6055 342ZM93.6426 321.807C94.0618 321.788 94.4082 321.916 94.6816 322.189C94.9642 322.454 95.1055 322.805 95.1055 323.242C95.0964 323.671 94.9551 324.021 94.6816 324.295C94.4173 324.568 94.071 324.714 93.6426 324.732C93.2142 324.751 92.8633 324.628 92.5898 324.363C92.3164 324.099 92.1842 323.753 92.1934 323.324C92.2025 322.896 92.3392 322.54 92.6035 322.258C92.8678 321.975 93.2142 321.825 93.6426 321.807ZM109.051 334.672C108.868 336.176 108.463 337.529 107.834 338.732C107.205 339.936 106.426 340.838 105.496 341.439C104.566 342.032 103.536 342.314 102.406 342.287C100.693 342.251 99.3802 341.672 98.4688 340.551L97.1426 347.688H94.668L98.2227 327.207L100.465 327.193L100.191 328.848C101.413 327.535 102.876 326.897 104.58 326.934C106.002 326.97 107.109 327.494 107.902 328.506C108.695 329.518 109.115 330.912 109.16 332.689C109.169 333.273 109.146 333.838 109.092 334.385L109.051 334.672ZM106.617 334.385L106.686 333.236C106.686 331.906 106.43 330.889 105.92 330.188C105.419 329.477 104.689 329.103 103.732 329.066C102.301 329.03 101.066 329.709 100.027 331.104L98.7832 338.199C99.3392 339.512 100.337 340.186 101.777 340.223C103.008 340.25 104.051 339.771 104.908 338.787C105.774 337.794 106.344 336.326 106.617 334.385ZM124.445 334.672C124.263 336.176 123.857 337.529 123.229 338.732C122.6 339.936 121.82 340.838 120.891 341.439C119.961 342.032 118.931 342.314 117.801 342.287C116.087 342.251 114.775 341.672 113.863 340.551L112.537 347.688H110.062L113.617 327.207L115.859 327.193L115.586 328.848C116.807 327.535 118.27 326.897 119.975 326.934C121.396 326.97 122.504 327.494 123.297 328.506C124.09 329.518 124.509 330.912 124.555 332.689C124.564 333.273 124.541 333.838 124.486 334.385L124.445 334.672ZM122.012 334.385L122.08 333.236C122.08 331.906 121.825 330.889 121.314 330.188C120.813 329.477 120.084 329.103 119.127 329.066C117.696 329.03 116.461 329.709 115.422 331.104L114.178 338.199C114.734 339.512 115.732 340.186 117.172 340.223C118.402 340.25 119.446 339.771 120.303 338.787C121.169 337.794 121.738 336.326 122.012 334.385ZM132.84 342.273C130.999 342.237 129.559 341.558 128.52 340.236C127.48 338.915 127.043 337.224 127.207 335.164L127.275 334.576C127.43 333.109 127.863 331.769 128.574 330.557C129.294 329.344 130.169 328.433 131.199 327.822C132.229 327.202 133.341 326.906 134.535 326.934C136.057 326.97 137.251 327.476 138.117 328.451C138.983 329.426 139.457 330.748 139.539 332.416C139.566 333.008 139.548 333.601 139.484 334.193L139.334 335.328H129.668C129.504 336.668 129.723 337.807 130.324 338.746C130.935 339.685 131.842 340.173 133.045 340.209C134.503 340.245 135.852 339.589 137.092 338.24L138.514 339.443C137.894 340.337 137.092 341.038 136.107 341.549C135.132 342.05 134.043 342.292 132.84 342.273ZM134.412 328.998C133.391 328.971 132.498 329.317 131.732 330.037C130.976 330.757 130.374 331.828 129.928 333.25L137.119 333.264L137.174 333.045C137.32 331.896 137.133 330.944 136.613 330.188C136.103 329.422 135.369 329.025 134.412 328.998ZM141.672 334.576C141.854 333.072 142.269 331.714 142.916 330.502C143.563 329.29 144.361 328.383 145.309 327.781C146.257 327.18 147.3 326.893 148.439 326.92C150.089 326.956 151.356 327.558 152.24 328.725L153.662 321H156.137L152.5 342H150.244L150.504 340.414C149.337 341.69 147.897 342.31 146.184 342.273C144.816 342.237 143.727 341.704 142.916 340.674C142.105 339.635 141.667 338.245 141.604 336.504C141.576 335.966 141.599 335.324 141.672 334.576ZM144.051 335.998C144.023 337.301 144.256 338.313 144.748 339.033C145.24 339.753 145.96 340.122 146.908 340.141C148.339 340.204 149.611 339.484 150.723 337.98L151.898 331.145C151.352 329.796 150.358 329.103 148.918 329.066C147.943 329.039 147.081 329.335 146.334 329.955C145.596 330.566 145.031 331.427 144.639 332.539C144.256 333.642 144.06 334.795 144.051 335.998ZM169.809 323.625L169.18 327.207H171.873L171.531 329.162H168.852L167.307 338.363C167.279 338.6 167.275 338.819 167.293 339.02C167.357 339.73 167.744 340.086 168.455 340.086C168.756 340.086 169.157 340.04 169.658 339.949L169.467 342.014C168.874 342.178 168.273 342.26 167.662 342.26C166.678 342.242 165.939 341.882 165.447 341.18C164.955 340.469 164.764 339.516 164.873 338.322L166.377 329.162H163.766L164.107 327.207H166.719L167.348 323.625H169.809ZM180.24 326.934C181.48 326.952 182.542 327.289 183.426 327.945C184.31 328.602 184.962 329.508 185.381 330.666C185.809 331.814 185.955 333.072 185.818 334.439L185.791 334.74C185.618 336.18 185.189 337.484 184.506 338.65C183.822 339.808 182.938 340.71 181.854 341.357C180.769 342.005 179.579 342.31 178.285 342.273C177.055 342.255 175.993 341.918 175.1 341.262C174.215 340.605 173.568 339.712 173.158 338.582C172.748 337.452 172.602 336.208 172.721 334.85C172.857 333.318 173.272 331.942 173.965 330.721C174.658 329.499 175.546 328.556 176.631 327.891C177.725 327.216 178.928 326.897 180.24 326.934ZM175.209 334.863C175.145 335.438 175.145 336.035 175.209 336.654C175.3 337.73 175.619 338.587 176.166 339.225C176.722 339.863 177.46 340.195 178.381 340.223C179.201 340.25 179.958 340.049 180.65 339.621C181.343 339.184 181.926 338.527 182.4 337.652C182.874 336.777 183.18 335.807 183.316 334.74C183.389 333.902 183.403 333.195 183.357 332.621C183.248 331.518 182.915 330.648 182.359 330.01C181.803 329.372 181.065 329.035 180.145 328.998C178.868 328.971 177.784 329.472 176.891 330.502C175.997 331.532 175.446 332.881 175.236 334.549L175.209 334.863ZM188.389 334.576C188.607 332.963 189.04 331.564 189.688 330.379C190.344 329.185 191.137 328.305 192.066 327.74C193.005 327.166 194.031 326.893 195.143 326.92C196.856 326.956 198.15 327.604 199.025 328.861L199.518 327.207H201.787L199.326 341.686C199.062 343.572 198.296 345.081 197.029 346.211C195.762 347.35 194.199 347.893 192.34 347.838C191.337 347.82 190.376 347.583 189.455 347.127C188.544 346.671 187.824 346.047 187.295 345.254L188.703 343.736C189.596 345.058 190.777 345.737 192.244 345.773C193.42 345.81 194.413 345.482 195.225 344.789C196.045 344.096 196.587 343.112 196.852 341.836L197.125 340.523C195.922 341.727 194.514 342.31 192.9 342.273C191.98 342.246 191.178 342 190.494 341.535C189.82 341.061 189.296 340.382 188.922 339.498C188.548 338.605 188.343 337.611 188.307 336.518C188.288 335.98 188.316 335.333 188.389 334.576ZM190.781 335.984C190.754 337.288 190.977 338.299 191.451 339.02C191.934 339.73 192.659 340.104 193.625 340.141C195.102 340.177 196.373 339.452 197.439 337.967L198.602 331.172C198.055 329.823 197.066 329.121 195.635 329.066C194.295 329.03 193.192 329.577 192.326 330.707C191.469 331.837 190.964 333.364 190.809 335.287L190.781 335.984ZM209.457 342.273C207.616 342.237 206.176 341.558 205.137 340.236C204.098 338.915 203.66 337.224 203.824 335.164L203.893 334.576C204.048 333.109 204.48 331.769 205.191 330.557C205.911 329.344 206.786 328.433 207.816 327.822C208.846 327.202 209.958 326.906 211.152 326.934C212.674 326.97 213.868 327.476 214.734 328.451C215.6 329.426 216.074 330.748 216.156 332.416C216.184 333.008 216.165 333.601 216.102 334.193L215.951 335.328H206.285C206.121 336.668 206.34 337.807 206.941 338.746C207.552 339.685 208.459 340.173 209.662 340.209C211.12 340.245 212.469 339.589 213.709 338.24L215.131 339.443C214.511 340.337 213.709 341.038 212.725 341.549C211.749 342.05 210.66 342.292 209.457 342.273ZM211.029 328.998C210.008 328.971 209.115 329.317 208.35 330.037C207.593 330.757 206.992 331.828 206.545 333.25L213.736 333.264L213.791 333.045C213.937 331.896 213.75 330.944 213.23 330.188C212.72 329.422 211.986 329.025 211.029 328.998ZM224.113 323.625L223.484 327.207H226.178L225.836 329.162H223.156L221.611 338.363C221.584 338.6 221.579 338.819 221.598 339.02C221.661 339.73 222.049 340.086 222.76 340.086C223.061 340.086 223.462 340.04 223.963 339.949L223.771 342.014C223.179 342.178 222.577 342.26 221.967 342.26C220.982 342.242 220.244 341.882 219.752 341.18C219.26 340.469 219.068 339.516 219.178 338.322L220.682 329.162H218.07L218.412 327.207H221.023L221.652 323.625H224.113ZM231.223 329.012C232.517 327.599 234.007 326.911 235.693 326.947C237.079 326.965 238.104 327.444 238.77 328.383C239.444 329.312 239.695 330.62 239.521 332.307L237.908 342H235.434L237.061 332.266C237.115 331.819 237.12 331.404 237.074 331.021C236.919 329.745 236.167 329.094 234.818 329.066C233.305 329.03 232.002 329.823 230.908 331.445L229.076 342H226.602L230.252 321H232.727L231.223 329.012ZM248.094 342.273C246.253 342.237 244.812 341.558 243.773 340.236C242.734 338.915 242.297 337.224 242.461 335.164L242.529 334.576C242.684 333.109 243.117 331.769 243.828 330.557C244.548 329.344 245.423 328.433 246.453 327.822C247.483 327.202 248.595 326.906 249.789 326.934C251.311 326.97 252.505 327.476 253.371 328.451C254.237 329.426 254.711 330.748 254.793 332.416C254.82 333.008 254.802 333.601 254.738 334.193L254.588 335.328H244.922C244.758 336.668 244.977 337.807 245.578 338.746C246.189 339.685 247.096 340.173 248.299 340.209C249.757 340.245 251.106 339.589 252.346 338.24L253.768 339.443C253.148 340.337 252.346 341.038 251.361 341.549C250.386 342.05 249.297 342.292 248.094 342.273ZM249.666 328.998C248.645 328.971 247.752 329.317 246.986 330.037C246.23 330.757 245.628 331.828 245.182 333.25L252.373 333.264L252.428 333.045C252.574 331.896 252.387 330.944 251.867 330.188C251.357 329.422 250.623 329.025 249.666 328.998ZM265.416 329.463L264.254 329.34C262.668 329.34 261.419 330.055 260.508 331.486L258.689 342H256.215L258.785 327.207L261.178 327.193L260.809 328.916C261.857 327.54 263.092 326.87 264.514 326.906C264.814 326.906 265.206 326.975 265.689 327.111L265.416 329.463Z" fill="black"/>
<path d="M676 14H1058V66H676V14Z" fill="#F1F4F8"/>
<path d="M688.806 30.2468H696.814V32.0108H691.298V52.5628H696.814V54.3268H688.806V30.2468ZM755.29 54.1588C757.661 53.2068 758.855 51.7695 758.874 49.8468C758.781 49.8655 758.65 49.8748 758.482 49.8748C757.773 49.8748 757.157 49.6695 756.634 49.2588C756.111 48.8295 755.85 48.2041 755.85 47.3828C755.85 46.5988 756.111 45.9921 756.634 45.5628C757.175 45.1148 757.81 44.8908 758.538 44.8908C759.546 44.8908 760.302 45.2641 760.806 46.0108C761.31 46.7575 761.562 47.7841 761.562 49.0908C761.562 50.8081 761.095 52.2548 760.162 53.4308C759.229 54.6255 757.885 55.5121 756.13 56.0908L755.29 54.1588ZM839.235 54.1588C841.606 53.2068 842.801 51.7695 842.819 49.8468C842.726 49.8655 842.595 49.8748 842.427 49.8748C841.718 49.8748 841.102 49.6695 840.579 49.2588C840.057 48.8295 839.795 48.2041 839.795 47.3828C839.795 46.5988 840.057 45.9921 840.579 45.5628C841.121 45.1148 841.755 44.8908 842.483 44.8908C843.491 44.8908 844.247 45.2641 844.751 46.0108C845.255 46.7575 845.507 47.7841 845.507 49.0908C845.507 50.8081 845.041 52.2548 844.107 53.4308C843.174 54.6255 841.83 55.5121 840.075 56.0908L839.235 54.1588ZM923.181 54.1588C925.551 53.2068 926.746 51.7695 926.765 49.8468C926.671 49.8655 926.541 49.8748 926.373 49.8748C925.663 49.8748 925.047 49.6695 924.525 49.2588C924.002 48.8295 923.741 48.2041 923.741 47.3828C923.741 46.5988 924.002 45.9921 924.525 45.5628C925.066 45.1148 925.701 44.8908 926.429 44.8908C927.437 44.8908 928.193 45.2641 928.697 46.0108C929.201 46.7575 929.453 47.7841 929.453 49.0908C929.453 50.8081 928.986 52.2548 928.053 53.4308C927.119 54.6255 925.775 55.5121 924.021 56.0908L923.181 54.1588ZM1010.18 52.5628V32.0108H1004.69V30.2468H1012.7V54.3268H1004.69V52.5628H1010.18Z" fill="#2E383C"/>
<path d="M706.155 34.4468L706.071 30.8628H709.991L709.907 34.4468L709.067 40.9148H706.995L706.155 34.4468ZM718.408 46.3748C718.408 45.6095 718.585 44.9375 718.94 44.3588C719.295 43.7615 719.855 43.2575 720.62 42.8468C721.385 42.4361 722.365 42.1001 723.56 41.8388C724.755 41.5775 726.201 41.3908 727.9 41.2788C727.844 40.4948 727.564 39.8508 727.06 39.3468C726.556 38.8428 725.744 38.5908 724.624 38.5908C723.84 38.5908 723.065 38.7401 722.3 39.0388C721.553 39.3188 720.825 39.6548 720.116 40.0468L718.94 37.8908C719.78 37.4055 720.741 36.9668 721.824 36.5748C722.907 36.1828 724.036 35.9868 725.212 35.9868C727.135 35.9868 728.6 36.5001 729.608 37.5268C730.616 38.5348 731.12 40.0001 731.12 41.9228V50.0708H728.488L728.236 48.3628H728.152C727.424 48.9228 726.612 49.4081 725.716 49.8188C724.839 50.2108 723.933 50.4068 723 50.4068C722.328 50.4068 721.712 50.3041 721.152 50.0988C720.592 49.9121 720.107 49.6415 719.696 49.2868C719.285 48.9321 718.968 48.5121 718.744 48.0268C718.52 47.5228 718.408 46.9721 718.408 46.3748ZM721.516 46.1228C721.516 46.7388 721.749 47.1868 722.216 47.4668C722.701 47.7468 723.289 47.8868 723.98 47.8868C724.671 47.8868 725.333 47.7375 725.968 47.4388C726.621 47.1215 727.265 46.7108 727.9 46.2068V43.2948C726.668 43.3881 725.641 43.5188 724.82 43.6868C723.999 43.8361 723.345 44.0321 722.86 44.2748C722.375 44.5175 722.029 44.7975 721.824 45.1148C721.619 45.4135 721.516 45.7495 721.516 46.1228ZM739.733 34.4468L739.649 30.8628H743.569L743.485 34.4468L742.645 40.9148H740.573L739.733 34.4468ZM790.1 34.4468L790.016 30.8628H793.936L793.852 34.4468L793.012 40.9148H790.94L790.1 34.4468ZM802.661 30.3028H805.909V35.3988L805.797 37.8068C806.395 37.2468 807.067 36.8081 807.813 36.4908C808.56 36.1548 809.307 35.9868 810.053 35.9868C810.949 35.9868 811.743 36.1548 812.433 36.4908C813.124 36.8081 813.712 37.2748 814.197 37.8908C814.683 38.4881 815.047 39.2161 815.289 40.0748C815.551 40.9335 815.681 41.8948 815.681 42.9588C815.681 44.1348 815.513 45.1895 815.177 46.1228C814.841 47.0375 814.384 47.8121 813.805 48.4468C813.245 49.0815 812.592 49.5668 811.845 49.9028C811.117 50.2388 810.361 50.4068 809.577 50.4068C808.924 50.4068 808.243 50.2481 807.533 49.9308C806.824 49.6135 806.171 49.1561 805.573 48.5588H805.489L805.209 50.0708H802.661V30.3028ZM805.909 46.4868C806.413 46.9535 806.936 47.2801 807.477 47.4668C808.019 47.6535 808.504 47.7468 808.933 47.7468C809.904 47.7468 810.716 47.3548 811.369 46.5708C812.023 45.7681 812.349 44.5828 812.349 43.0148C812.349 41.6335 812.097 40.5601 811.593 39.7948C811.089 39.0295 810.277 38.6468 809.157 38.6468C808.635 38.6468 808.103 38.7775 807.561 39.0388C807.02 39.3001 806.469 39.7201 805.909 40.2988V46.4868ZM823.678 34.4468L823.594 30.8628H827.514L827.43 34.4468L826.59 40.9148H824.518L823.678 34.4468ZM874.045 34.4468L873.961 30.8628H877.881L877.797 34.4468L876.957 40.9148H874.885L874.045 34.4468ZM886.355 43.2108C886.355 42.0721 886.56 41.0548 886.971 40.1588C887.4 39.2628 887.969 38.5068 888.679 37.8908C889.388 37.2748 890.219 36.8081 891.171 36.4908C892.123 36.1548 893.121 35.9868 894.167 35.9868C895.287 35.9868 896.267 36.1735 897.107 36.5468C897.965 36.9201 898.684 37.3775 899.263 37.9188L897.723 39.9348C897.181 39.5055 896.631 39.1788 896.071 38.9548C895.529 38.7308 894.951 38.6188 894.335 38.6188C892.953 38.6188 891.833 39.0388 890.975 39.8788C890.116 40.7001 889.687 41.8108 889.687 43.2108C889.687 43.9015 889.799 44.5268 890.023 45.0868C890.247 45.6468 890.555 46.1321 890.947 46.5428C891.357 46.9348 891.843 47.2428 892.403 47.4668C892.963 47.6721 893.579 47.7748 894.251 47.7748C895.035 47.7748 895.744 47.6255 896.379 47.3268C897.032 47.0281 897.629 46.6735 898.171 46.2628L899.515 48.3348C898.731 49.0255 897.853 49.5481 896.883 49.9028C895.912 50.2388 894.932 50.4068 893.943 50.4068C892.86 50.4068 891.852 50.2481 890.919 49.9308C890.004 49.6135 889.201 49.1468 888.511 48.5308C887.839 47.9148 887.307 47.1588 886.915 46.2628C886.541 45.3668 886.355 44.3495 886.355 43.2108ZM907.624 34.4468L907.54 30.8628H911.46L911.376 34.4468L910.536 40.9148H908.464L907.624 34.4468ZM957.991 34.4468L957.907 30.8628H961.827L961.743 34.4468L960.903 40.9148H958.831L957.991 34.4468ZM969.74 43.2108C969.74 42.0908 969.908 41.0828 970.244 40.1868C970.58 39.2908 971.028 38.5348 971.588 37.9188C972.167 37.3028 972.82 36.8268 973.548 36.4908C974.276 36.1548 975.032 35.9868 975.816 35.9868C976.637 35.9868 977.337 36.1361 977.916 36.4348C978.513 36.7148 979.092 37.1068 979.652 37.6108L979.512 35.2868V30.3028H982.76V50.0708H980.1L979.848 48.4748H979.764C979.223 49.0161 978.588 49.4735 977.86 49.8468C977.151 50.2201 976.404 50.4068 975.62 50.4068C974.743 50.4068 973.94 50.2481 973.212 49.9308C972.484 49.5948 971.859 49.1188 971.336 48.5028C970.832 47.8868 970.44 47.1401 970.16 46.2628C969.88 45.3668 969.74 44.3495 969.74 43.2108ZM973.072 43.1828C973.072 44.6761 973.361 45.8148 973.94 46.5988C974.519 47.3641 975.34 47.7468 976.404 47.7468C977.543 47.7468 978.579 47.1961 979.512 46.0948V39.9068C979.027 39.4401 978.541 39.1135 978.056 38.9268C977.571 38.7401 977.076 38.6468 976.572 38.6468C976.087 38.6468 975.629 38.7495 975.2 38.9548C974.789 39.1601 974.425 39.4588 974.108 39.8508C973.791 40.2241 973.539 40.6908 973.352 41.2508C973.165 41.8108 973.072 42.4548 973.072 43.1828ZM991.569 34.4468L991.485 30.8628H995.405L995.321 34.4468L994.481 40.9148H992.409L991.569 34.4468Z" fill="#B82629"/>
<rect x="336" y="100" width="58" height="52" stroke="black"/>
<path d="M368.273 130.496L367.629 128.256C367.368 127.285 367.097 126.287 366.817 125.26C366.537 124.233 366.267 123.216 366.005 122.208H365.893C365.632 123.235 365.361 124.261 365.081 125.288C364.82 126.296 364.549 127.285 364.269 128.256L363.625 130.496H368.273ZM369.001 133.044H362.897L361.469 138H358.165L364.101 119.688H367.909L373.845 138H370.401L369.001 133.044Z" fill="#B82629"/>
<rect x="394" y="100" width="60" height="52" stroke="black"/>
<path d="M419.209 119.688H424.613C425.547 119.688 426.405 119.772 427.189 119.94C427.992 120.089 428.683 120.341 429.261 120.696C429.84 121.032 430.288 121.489 430.605 122.068C430.941 122.647 431.109 123.356 431.109 124.196C431.109 125.073 430.848 125.885 430.325 126.632C429.803 127.379 429 127.892 427.917 128.172V128.284C429.261 128.508 430.279 128.984 430.969 129.712C431.679 130.421 432.033 131.392 432.033 132.624C432.033 133.539 431.856 134.332 431.501 135.004C431.165 135.676 430.68 136.236 430.045 136.684C429.429 137.132 428.692 137.468 427.833 137.692C426.993 137.897 426.069 138 425.061 138H419.209V119.688ZM424.305 127.276C425.593 127.276 426.517 127.043 427.077 126.576C427.637 126.109 427.917 125.447 427.917 124.588C427.917 123.748 427.619 123.141 427.021 122.768C426.443 122.395 425.565 122.208 424.389 122.208H422.457V127.276H424.305ZM424.725 135.48C426.069 135.48 427.096 135.228 427.805 134.724C428.515 134.22 428.869 133.445 428.869 132.4C428.869 130.533 427.488 129.6 424.725 129.6H422.457V135.48H424.725Z" fill="#B82629"/>
<rect x="454" y="100" width="60" height="52" stroke="black"/>
<path d="M477.285 128.9C477.285 127.407 477.5 126.072 477.929 124.896C478.359 123.701 478.947 122.693 479.693 121.872C480.459 121.051 481.355 120.425 482.381 119.996C483.427 119.567 484.556 119.352 485.769 119.352C486.889 119.352 487.888 119.585 488.765 120.052C489.643 120.519 490.38 121.051 490.977 121.648L489.157 123.664C488.709 123.216 488.205 122.861 487.645 122.6C487.104 122.32 486.479 122.18 485.769 122.18C485.004 122.18 484.304 122.339 483.669 122.656C483.035 122.955 482.493 123.393 482.045 123.972C481.597 124.532 481.243 125.223 480.981 126.044C480.739 126.865 480.617 127.789 480.617 128.816C480.617 129.861 480.739 130.804 480.981 131.644C481.243 132.465 481.597 133.165 482.045 133.744C482.512 134.304 483.063 134.743 483.697 135.06C484.351 135.359 485.069 135.508 485.853 135.508C486.6 135.508 487.263 135.349 487.841 135.032C488.439 134.715 488.999 134.267 489.521 133.688L491.313 135.676C490.567 136.535 489.727 137.197 488.793 137.664C487.86 138.112 486.815 138.336 485.657 138.336C484.481 138.336 483.38 138.131 482.353 137.72C481.345 137.309 480.459 136.703 479.693 135.9C478.947 135.097 478.359 134.108 477.929 132.932C477.5 131.756 477.285 130.412 477.285 128.9Z" fill="#B82629"/>
<rect x="514" y="100" width="58" height="52" stroke="black"/>
<path d="M536.705 119.688H541.437C544.144 119.688 546.253 120.444 547.765 121.956C549.296 123.468 550.061 125.736 550.061 128.76C550.061 130.272 549.865 131.607 549.473 132.764C549.081 133.921 548.521 134.892 547.793 135.676C547.065 136.441 546.179 137.02 545.133 137.412C544.088 137.804 542.912 138 541.605 138H536.705V119.688ZM541.241 135.368C542.996 135.368 544.349 134.836 545.301 133.772C546.253 132.689 546.729 131.019 546.729 128.76C546.729 126.52 546.253 124.887 545.301 123.86C544.349 122.833 542.996 122.32 541.241 122.32H539.953V135.368H541.241Z" fill="#B82629"/>
<path d="M116.389 133.854H125.549L125.166 136H113.436L116.895 116.094H119.479L116.389 133.854ZM130.498 136H128.037L130.607 121.207H133.068L130.498 136ZM132.535 115.807C132.954 115.788 133.301 115.916 133.574 116.189C133.857 116.454 133.998 116.805 133.998 117.242C133.989 117.671 133.848 118.021 133.574 118.295C133.31 118.568 132.964 118.714 132.535 118.732C132.107 118.751 131.756 118.628 131.482 118.363C131.209 118.099 131.077 117.753 131.086 117.324C131.095 116.896 131.232 116.54 131.496 116.258C131.76 115.975 132.107 115.825 132.535 115.807ZM143.705 131.994C143.842 130.973 143.281 130.253 142.023 129.834L139.453 129.082C137.284 128.335 136.236 127.095 136.309 125.363C136.372 124.06 136.965 122.993 138.086 122.164C139.216 121.326 140.542 120.915 142.064 120.934C143.559 120.952 144.771 121.389 145.701 122.246C146.64 123.094 147.091 124.201 147.055 125.568L144.594 125.555C144.612 124.816 144.38 124.215 143.896 123.75C143.413 123.285 142.771 123.044 141.969 123.025C141.112 123.007 140.374 123.217 139.754 123.654C139.18 124.064 138.847 124.602 138.756 125.268C138.637 126.124 139.161 126.749 140.328 127.141L141.572 127.482C143.268 127.92 144.471 128.49 145.182 129.191C145.893 129.893 146.221 130.764 146.166 131.803C146.111 132.723 145.811 133.525 145.264 134.209C144.717 134.893 143.988 135.417 143.076 135.781C142.165 136.137 141.194 136.301 140.164 136.273C138.596 136.255 137.302 135.799 136.281 134.906C135.26 134.004 134.768 132.846 134.805 131.434L137.279 131.447C137.279 132.277 137.544 132.942 138.072 133.443C138.601 133.945 139.326 134.195 140.246 134.195C141.148 134.214 141.928 134.027 142.584 133.635C143.24 133.234 143.614 132.687 143.705 131.994ZM155.217 117.625L154.588 121.207H157.281L156.939 123.162H154.26L152.715 132.363C152.688 132.6 152.683 132.819 152.701 133.02C152.765 133.73 153.152 134.086 153.863 134.086C154.164 134.086 154.565 134.04 155.066 133.949L154.875 136.014C154.283 136.178 153.681 136.26 153.07 136.26C152.086 136.242 151.348 135.882 150.855 135.18C150.363 134.469 150.172 133.516 150.281 132.322L151.785 123.162H149.174L149.516 121.207H152.127L152.756 117.625H155.217ZM171.104 117.625L170.475 121.207H173.168L172.826 123.162H170.146L168.602 132.363C168.574 132.6 168.57 132.819 168.588 133.02C168.652 133.73 169.039 134.086 169.75 134.086C170.051 134.086 170.452 134.04 170.953 133.949L170.762 136.014C170.169 136.178 169.568 136.26 168.957 136.26C167.973 136.242 167.234 135.882 166.742 135.18C166.25 134.469 166.059 133.516 166.168 132.322L167.672 123.162H165.061L165.402 121.207H168.014L168.643 117.625H171.104ZM186.867 132.5L191.584 121.207H194.141L187.4 136H185.391L183.859 124.816L178.527 136H176.518L174.918 121.207H177.283L178.186 132.227L183.436 121.207H185.432L186.867 132.5ZM202.371 120.934C203.611 120.952 204.673 121.289 205.557 121.945C206.441 122.602 207.092 123.508 207.512 124.666C207.94 125.814 208.086 127.072 207.949 128.439L207.922 128.74C207.749 130.18 207.32 131.484 206.637 132.65C205.953 133.808 205.069 134.71 203.984 135.357C202.9 136.005 201.71 136.31 200.416 136.273C199.186 136.255 198.124 135.918 197.23 135.262C196.346 134.605 195.699 133.712 195.289 132.582C194.879 131.452 194.733 130.208 194.852 128.85C194.988 127.318 195.403 125.942 196.096 124.721C196.788 123.499 197.677 122.556 198.762 121.891C199.855 121.216 201.059 120.897 202.371 120.934ZM197.34 128.863C197.276 129.438 197.276 130.035 197.34 130.654C197.431 131.73 197.75 132.587 198.297 133.225C198.853 133.863 199.591 134.195 200.512 134.223C201.332 134.25 202.089 134.049 202.781 133.621C203.474 133.184 204.057 132.527 204.531 131.652C205.005 130.777 205.311 129.807 205.447 128.74C205.52 127.902 205.534 127.195 205.488 126.621C205.379 125.518 205.046 124.648 204.49 124.01C203.934 123.372 203.196 123.035 202.275 122.998C200.999 122.971 199.915 123.472 199.021 124.502C198.128 125.532 197.577 126.881 197.367 128.549L197.34 128.863Z" fill="black"/>
<path d="M676 100H1058V152H676V100Z" fill="#F1F4F8"/>
<path d="M688.806 116.247H696.814V118.011H691.298V138.563H696.814V140.327H688.806V116.247ZM755.29 140.159C757.661 139.207 758.855 137.769 758.874 135.847C758.781 135.865 758.65 135.875 758.482 135.875C757.773 135.875 757.157 135.669 756.634 135.259C756.111 134.829 755.85 134.204 755.85 133.383C755.85 132.599 756.111 131.992 756.634 131.563C757.175 131.115 757.81 130.891 758.538 130.891C759.546 130.891 760.302 131.264 760.806 132.011C761.31 132.757 761.562 133.784 761.562 135.091C761.562 136.808 761.095 138.255 760.162 139.431C759.229 140.625 757.885 141.512 756.13 142.091L755.29 140.159ZM839.235 140.159C841.606 139.207 842.801 137.769 842.819 135.847C842.726 135.865 842.595 135.875 842.427 135.875C841.718 135.875 841.102 135.669 840.579 135.259C840.057 134.829 839.795 134.204 839.795 133.383C839.795 132.599 840.057 131.992 840.579 131.563C841.121 131.115 841.755 130.891 842.483 130.891C843.491 130.891 844.247 131.264 844.751 132.011C845.255 132.757 845.507 133.784 845.507 135.091C845.507 136.808 845.041 138.255 844.107 139.431C843.174 140.625 841.83 141.512 840.075 142.091L839.235 140.159ZM923.181 140.159C925.551 139.207 926.746 137.769 926.765 135.847C926.671 135.865 926.541 135.875 926.373 135.875C925.663 135.875 925.047 135.669 924.525 135.259C924.002 134.829 923.741 134.204 923.741 133.383C923.741 132.599 924.002 131.992 924.525 131.563C925.066 131.115 925.701 130.891 926.429 130.891C927.437 130.891 928.193 131.264 928.697 132.011C929.201 132.757 929.453 133.784 929.453 135.091C929.453 136.808 928.986 138.255 928.053 139.431C927.119 140.625 925.775 141.512 924.021 142.091L923.181 140.159ZM1010.18 138.563V118.011H1004.69V116.247H1012.7V140.327H1004.69V138.563H1010.18Z" fill="#2E383C"/>
<path d="M706.155 120.447L706.071 116.863H709.991L709.907 120.447L709.067 126.915H706.995L706.155 120.447ZM727.088 128.567L726.444 126.327C726.183 125.356 725.912 124.357 725.632 123.331C725.352 122.304 725.081 121.287 724.82 120.279H724.708C724.447 121.305 724.176 122.332 723.896 123.359C723.635 124.367 723.364 125.356 723.084 126.327L722.44 128.567H727.088ZM727.816 131.115H721.712L720.284 136.071H716.98L722.916 117.759H726.724L732.66 136.071H729.216L727.816 131.115ZM739.733 120.447L739.649 116.863H743.569L743.485 120.447L742.645 126.915H740.573L739.733 120.447ZM790.1 120.447L790.016 116.863H793.936L793.852 120.447L793.012 126.915H790.94L790.1 120.447ZM802.969 117.759H808.373C809.307 117.759 810.165 117.843 810.949 118.011C811.752 118.16 812.443 118.412 813.021 118.767C813.6 119.103 814.048 119.56 814.365 120.139C814.701 120.717 814.869 121.427 814.869 122.267C814.869 123.144 814.608 123.956 814.085 124.703C813.563 125.449 812.76 125.963 811.677 126.243V126.355C813.021 126.579 814.039 127.055 814.729 127.783C815.439 128.492 815.793 129.463 815.793 130.695C815.793 131.609 815.616 132.403 815.261 133.075C814.925 133.747 814.44 134.307 813.805 134.755C813.189 135.203 812.452 135.539 811.593 135.763C810.753 135.968 809.829 136.071 808.821 136.071H802.969V117.759ZM808.065 125.347C809.353 125.347 810.277 125.113 810.837 124.647C811.397 124.18 811.677 123.517 811.677 122.659C811.677 121.819 811.379 121.212 810.781 120.839C810.203 120.465 809.325 120.279 808.149 120.279H806.217V125.347H808.065ZM808.485 133.551C809.829 133.551 810.856 133.299 811.565 132.795C812.275 132.291 812.629 131.516 812.629 130.471C812.629 128.604 811.248 127.671 808.485 127.671H806.217V133.551H808.485ZM823.678 120.447L823.594 116.863H827.514L827.43 120.447L826.59 126.915H824.518L823.678 120.447ZM874.045 120.447L873.961 116.863H877.881L877.797 120.447L876.957 126.915H874.885L874.045 120.447ZM885.991 126.971C885.991 125.477 886.205 124.143 886.635 122.967C887.064 121.772 887.652 120.764 888.399 119.943C889.164 119.121 890.06 118.496 891.087 118.067C892.132 117.637 893.261 117.423 894.475 117.423C895.595 117.423 896.593 117.656 897.471 118.123C898.348 118.589 899.085 119.121 899.683 119.719L897.863 121.735C897.415 121.287 896.911 120.932 896.351 120.671C895.809 120.391 895.184 120.251 894.475 120.251C893.709 120.251 893.009 120.409 892.375 120.727C891.74 121.025 891.199 121.464 890.751 122.043C890.303 122.603 889.948 123.293 889.687 124.115C889.444 124.936 889.323 125.86 889.323 126.887C889.323 127.932 889.444 128.875 889.687 129.715C889.948 130.536 890.303 131.236 890.751 131.815C891.217 132.375 891.768 132.813 892.403 133.131C893.056 133.429 893.775 133.579 894.559 133.579C895.305 133.579 895.968 133.42 896.547 133.103C897.144 132.785 897.704 132.337 898.227 131.759L900.019 133.747C899.272 134.605 898.432 135.268 897.499 135.735C896.565 136.183 895.52 136.407 894.363 136.407C893.187 136.407 892.085 136.201 891.059 135.791C890.051 135.38 889.164 134.773 888.399 133.971C887.652 133.168 887.064 132.179 886.635 131.003C886.205 129.827 885.991 128.483 885.991 126.971ZM907.624 120.447L907.54 116.863H911.46L911.376 120.447L910.536 126.915H908.464L907.624 120.447ZM957.991 120.447L957.907 116.863H961.827L961.743 120.447L960.903 126.915H958.831L957.991 120.447ZM970.356 117.759H975.088C977.795 117.759 979.904 118.515 981.416 120.027C982.947 121.539 983.712 123.807 983.712 126.831C983.712 128.343 983.516 129.677 983.124 130.835C982.732 131.992 982.172 132.963 981.444 133.747C980.716 134.512 979.829 135.091 978.784 135.483C977.739 135.875 976.563 136.071 975.256 136.071H970.356V117.759ZM974.892 133.439C976.647 133.439 978 132.907 978.952 131.843C979.904 130.76 980.38 129.089 980.38 126.831C980.38 124.591 979.904 122.957 978.952 121.931C978 120.904 976.647 120.391 974.892 120.391H973.604V133.439H974.892ZM991.569 120.447L991.485 116.863H995.405L995.321 120.447L994.481 126.915H992.409L991.569 120.447Z" fill="#B82629"/>
<path d="M676 186H1058V404H676V186Z" fill="#F1F4F8"/>
<path d="M688.806 196.857H696.814V198.621H691.298V219.173H696.814V220.937H688.806V196.857ZM711.167 255.637C709.282 254.069 707.788 252.221 706.687 250.093C705.604 247.965 705.063 245.567 705.063 242.897C705.063 240.228 705.604 237.829 706.687 235.701C707.788 233.573 709.282 231.725 711.167 230.157L712.959 231.641C711.186 233.247 709.888 234.955 709.067 236.765C708.246 238.576 707.835 240.62 707.835 242.897C707.835 245.175 708.246 247.219 709.067 249.029C709.888 250.84 711.186 252.548 712.959 254.153L711.167 255.637ZM772.079 254.769C774.45 253.817 775.644 252.38 775.663 250.457C775.57 250.476 775.439 250.485 775.271 250.485C774.562 250.485 773.946 250.28 773.423 249.869C772.9 249.44 772.639 248.815 772.639 247.993C772.639 247.209 772.9 246.603 773.423 246.173C773.964 245.725 774.599 245.501 775.327 245.501C776.335 245.501 777.091 245.875 777.595 246.621C778.099 247.368 778.351 248.395 778.351 249.701C778.351 251.419 777.884 252.865 776.951 254.041C776.018 255.236 774.674 256.123 772.919 256.701L772.079 254.769ZM854.204 254.153C855.978 252.548 857.275 250.84 858.096 249.029C858.918 247.219 859.328 245.175 859.328 242.897C859.328 240.62 858.918 238.576 858.096 236.765C857.275 234.955 855.978 233.247 854.204 231.641L855.996 230.157C857.882 231.725 859.366 233.573 860.448 235.701C861.55 237.829 862.1 240.228 862.1 242.897C862.1 245.567 861.55 247.965 860.448 250.093C859.366 252.221 857.882 254.069 855.996 255.637L854.204 254.153ZM872.813 254.769C875.184 253.817 876.379 252.38 876.397 250.457C876.304 250.476 876.173 250.485 876.005 250.485C875.296 250.485 874.68 250.28 874.157 249.869C873.635 249.44 873.373 248.815 873.373 247.993C873.373 247.209 873.635 246.603 874.157 246.173C874.699 245.725 875.333 245.501 876.061 245.501C877.069 245.501 877.825 245.875 878.329 246.621C878.833 247.368 879.085 248.395 879.085 249.701C879.085 251.419 878.619 252.865 877.685 254.041C876.752 255.236 875.408 256.123 873.653 256.701L872.813 254.769ZM711.167 291.637C709.282 290.069 707.788 288.221 706.687 286.093C705.604 283.965 705.063 281.567 705.063 278.897C705.063 276.228 705.604 273.829 706.687 271.701C707.788 269.573 709.282 267.725 711.167 266.157L712.959 267.641C711.186 269.247 709.888 270.955 709.067 272.765C708.246 274.576 707.835 276.62 707.835 278.897C707.835 281.175 708.246 283.219 709.067 285.029C709.888 286.84 711.186 288.548 712.959 290.153L711.167 291.637ZM772.079 290.769C774.45 289.817 775.644 288.38 775.663 286.457C775.57 286.476 775.439 286.485 775.271 286.485C774.562 286.485 773.946 286.28 773.423 285.869C772.9 285.44 772.639 284.815 772.639 283.993C772.639 283.209 772.9 282.603 773.423 282.173C773.964 281.725 774.599 281.501 775.327 281.501C776.335 281.501 777.091 281.875 777.595 282.621C778.099 283.368 778.351 284.395 778.351 285.701C778.351 287.419 777.884 288.865 776.951 290.041C776.018 291.236 774.674 292.123 772.919 292.701L772.079 290.769ZM854.204 290.153C855.978 288.548 857.275 286.84 858.096 285.029C858.918 283.219 859.328 281.175 859.328 278.897C859.328 276.62 858.918 274.576 858.096 272.765C857.275 270.955 855.978 269.247 854.204 267.641L855.996 266.157C857.882 267.725 859.366 269.573 860.448 271.701C861.55 273.829 862.1 276.228 862.1 278.897C862.1 281.567 861.55 283.965 860.448 286.093C859.366 288.221 857.882 290.069 855.996 291.637L854.204 290.153ZM872.813 290.769C875.184 289.817 876.379 288.38 876.397 286.457C876.304 286.476 876.173 286.485 876.005 286.485C875.296 286.485 874.68 286.28 874.157 285.869C873.635 285.44 873.373 284.815 873.373 283.993C873.373 283.209 873.635 282.603 874.157 282.173C874.699 281.725 875.333 281.501 876.061 281.501C877.069 281.501 877.825 281.875 878.329 282.621C878.833 283.368 879.085 284.395 879.085 285.701C879.085 287.419 878.619 288.865 877.685 290.041C876.752 291.236 875.408 292.123 873.653 292.701L872.813 290.769ZM711.167 327.637C709.282 326.069 707.788 324.221 706.687 322.093C705.604 319.965 705.063 317.567 705.063 314.897C705.063 312.228 705.604 309.829 706.687 307.701C707.788 305.573 709.282 303.725 711.167 302.157L712.959 303.641C711.186 305.247 709.888 306.955 709.067 308.765C708.246 310.576 707.835 312.62 707.835 314.897C707.835 317.175 708.246 319.219 709.067 321.029C709.888 322.84 711.186 324.548 712.959 326.153L711.167 327.637ZM772.079 326.769C774.45 325.817 775.644 324.38 775.663 322.457C775.57 322.476 775.439 322.485 775.271 322.485C774.562 322.485 773.946 322.28 773.423 321.869C772.9 321.44 772.639 320.815 772.639 319.993C772.639 319.209 772.9 318.603 773.423 318.173C773.964 317.725 774.599 317.501 775.327 317.501C776.335 317.501 777.091 317.875 777.595 318.621C778.099 319.368 778.351 320.395 778.351 321.701C778.351 323.419 777.884 324.865 776.951 326.041C776.018 327.236 774.674 328.123 772.919 328.701L772.079 326.769ZM854.204 326.153C855.978 324.548 857.275 322.84 858.096 321.029C858.918 319.219 859.328 317.175 859.328 314.897C859.328 312.62 858.918 310.576 858.096 308.765C857.275 306.955 855.978 305.247 854.204 303.641L855.996 302.157C857.882 303.725 859.366 305.573 860.448 307.701C861.55 309.829 862.1 312.228 862.1 314.897C862.1 317.567 861.55 319.965 860.448 322.093C859.366 324.221 857.882 326.069 855.996 327.637L854.204 326.153ZM872.813 326.769C875.184 325.817 876.379 324.38 876.397 322.457C876.304 322.476 876.173 322.485 876.005 322.485C875.296 322.485 874.68 322.28 874.157 321.869C873.635 321.44 873.373 320.815 873.373 319.993C873.373 319.209 873.635 318.603 874.157 318.173C874.699 317.725 875.333 317.501 876.061 317.501C877.069 317.501 877.825 317.875 878.329 318.621C878.833 319.368 879.085 320.395 879.085 321.701C879.085 323.419 878.619 324.865 877.685 326.041C876.752 327.236 875.408 328.123 873.653 328.701L872.813 326.769ZM711.167 361.637C709.282 360.069 707.788 358.221 706.687 356.093C705.604 353.965 705.063 351.567 705.063 348.897C705.063 346.228 705.604 343.829 706.687 341.701C707.788 339.573 709.282 337.725 711.167 336.157L712.959 337.641C711.186 339.247 709.888 340.955 709.067 342.765C708.246 344.576 707.835 346.62 707.835 348.897C707.835 351.175 708.246 353.219 709.067 355.029C709.888 356.84 711.186 358.548 712.959 360.153L711.167 361.637ZM772.079 360.769C774.45 359.817 775.644 358.38 775.663 356.457C775.57 356.476 775.439 356.485 775.271 356.485C774.562 356.485 773.946 356.28 773.423 355.869C772.9 355.44 772.639 354.815 772.639 353.993C772.639 353.209 772.9 352.603 773.423 352.173C773.964 351.725 774.599 351.501 775.327 351.501C776.335 351.501 777.091 351.875 777.595 352.621C778.099 353.368 778.351 354.395 778.351 355.701C778.351 357.419 777.884 358.865 776.951 360.041C776.018 361.236 774.674 362.123 772.919 362.701L772.079 360.769ZM854.204 360.153C855.978 358.548 857.275 356.84 858.096 355.029C858.918 353.219 859.328 351.175 859.328 348.897C859.328 346.62 858.918 344.576 858.096 342.765C857.275 340.955 855.978 339.247 854.204 337.641L855.996 336.157C857.882 337.725 859.366 339.573 860.448 341.701C861.55 343.829 862.1 346.228 862.1 348.897C862.1 351.567 861.55 353.965 860.448 356.093C859.366 358.221 857.882 360.069 855.996 361.637L854.204 360.153ZM691.186 395.173V374.621H685.698V372.857H693.706V396.937H685.698V395.173H691.186Z" fill="#2E383C"/>
<path d="M722.944 235.057L722.86 231.473H726.78L726.696 235.057L725.856 241.525H723.784L722.944 235.057ZM735.197 246.985C735.197 246.22 735.374 245.548 735.729 244.969C736.084 244.372 736.644 243.868 737.409 243.457C738.174 243.047 739.154 242.711 740.349 242.449C741.544 242.188 742.99 242.001 744.689 241.889C744.633 241.105 744.353 240.461 743.849 239.957C743.345 239.453 742.533 239.201 741.413 239.201C740.629 239.201 739.854 239.351 739.089 239.649C738.342 239.929 737.614 240.265 736.905 240.657L735.729 238.501C736.569 238.016 737.53 237.577 738.613 237.185C739.696 236.793 740.825 236.597 742.001 236.597C743.924 236.597 745.389 237.111 746.397 238.137C747.405 239.145 747.909 240.611 747.909 242.533V250.681H745.277L745.025 248.973H744.941C744.213 249.533 743.401 250.019 742.505 250.429C741.628 250.821 740.722 251.017 739.789 251.017C739.117 251.017 738.501 250.915 737.941 250.709C737.381 250.523 736.896 250.252 736.485 249.897C736.074 249.543 735.757 249.123 735.533 248.637C735.309 248.133 735.197 247.583 735.197 246.985ZM738.305 246.733C738.305 247.349 738.538 247.797 739.005 248.077C739.49 248.357 740.078 248.497 740.769 248.497C741.46 248.497 742.122 248.348 742.757 248.049C743.41 247.732 744.054 247.321 744.689 246.817V243.905C743.457 243.999 742.43 244.129 741.609 244.297C740.788 244.447 740.134 244.643 739.649 244.885C739.164 245.128 738.818 245.408 738.613 245.725C738.408 246.024 738.305 246.36 738.305 246.733ZM756.522 235.057L756.438 231.473H760.358L760.274 235.057L759.434 241.525H757.362L756.522 235.057ZM806.889 235.057L806.805 231.473H810.725L810.641 235.057L809.801 241.525H807.729L806.889 235.057ZM827.822 243.177L827.178 240.937C826.917 239.967 826.646 238.968 826.366 237.941C826.086 236.915 825.816 235.897 825.554 234.889H825.442C825.181 235.916 824.91 236.943 824.63 237.969C824.369 238.977 824.098 239.967 823.818 240.937L823.174 243.177H827.822ZM828.55 245.725H822.446L821.018 250.681H817.714L823.65 232.369H827.458L833.394 250.681H829.95L828.55 245.725ZM840.467 235.057L840.383 231.473H844.303L844.219 235.057L843.379 241.525H841.307L840.467 235.057ZM722.944 271.057L722.86 267.473H726.78L726.696 271.057L725.856 277.525H723.784L722.944 271.057ZM735.505 266.913H738.753V272.009L738.641 274.417C739.238 273.857 739.91 273.419 740.657 273.101C741.404 272.765 742.15 272.597 742.897 272.597C743.793 272.597 744.586 272.765 745.277 273.101C745.968 273.419 746.556 273.885 747.041 274.501C747.526 275.099 747.89 275.827 748.133 276.685C748.394 277.544 748.525 278.505 748.525 279.569C748.525 280.745 748.357 281.8 748.021 282.733C747.685 283.648 747.228 284.423 746.649 285.057C746.089 285.692 745.436 286.177 744.689 286.513C743.961 286.849 743.205 287.017 742.421 287.017C741.768 287.017 741.086 286.859 740.377 286.541C739.668 286.224 739.014 285.767 738.417 285.169H738.333L738.053 286.681H735.505V266.913ZM738.753 283.097C739.257 283.564 739.78 283.891 740.321 284.077C740.862 284.264 741.348 284.357 741.777 284.357C742.748 284.357 743.56 283.965 744.213 283.181C744.866 282.379 745.193 281.193 745.193 279.625C745.193 278.244 744.941 277.171 744.437 276.405C743.933 275.64 743.121 275.257 742.001 275.257C741.478 275.257 740.946 275.388 740.405 275.649C739.864 275.911 739.313 276.331 738.753 276.909V283.097ZM756.522 271.057L756.438 267.473H760.358L760.274 271.057L759.434 277.525H757.362L756.522 271.057ZM806.889 271.057L806.805 267.473H810.725L810.641 271.057L809.801 277.525H807.729L806.889 271.057ZM819.758 268.369H825.162C826.096 268.369 826.954 268.453 827.738 268.621C828.541 268.771 829.232 269.023 829.81 269.377C830.389 269.713 830.837 270.171 831.154 270.749C831.49 271.328 831.658 272.037 831.658 272.877C831.658 273.755 831.397 274.567 830.874 275.313C830.352 276.06 829.549 276.573 828.466 276.853V276.965C829.81 277.189 830.828 277.665 831.518 278.393C832.228 279.103 832.582 280.073 832.582 281.305C832.582 282.22 832.405 283.013 832.05 283.685C831.714 284.357 831.229 284.917 830.594 285.365C829.978 285.813 829.241 286.149 828.382 286.373C827.542 286.579 826.618 286.681 825.61 286.681H819.758V268.369ZM824.854 275.957C826.142 275.957 827.066 275.724 827.626 275.257C828.186 274.791 828.466 274.128 828.466 273.269C828.466 272.429 828.168 271.823 827.57 271.449C826.992 271.076 826.114 270.889 824.938 270.889H823.006V275.957H824.854ZM825.274 284.161C826.618 284.161 827.645 283.909 828.354 283.405C829.064 282.901 829.418 282.127 829.418 281.081C829.418 279.215 828.037 278.281 825.274 278.281H823.006V284.161H825.274ZM840.467 271.057L840.383 267.473H844.303L844.219 271.057L843.379 277.525H841.307L840.467 271.057ZM722.944 307.057L722.86 303.473H726.78L726.696 307.057L725.856 313.525H723.784L722.944 307.057ZM735.253 315.821C735.253 314.683 735.458 313.665 735.869 312.769C736.298 311.873 736.868 311.117 737.577 310.501C738.286 309.885 739.117 309.419 740.069 309.101C741.021 308.765 742.02 308.597 743.065 308.597C744.185 308.597 745.165 308.784 746.005 309.157C746.864 309.531 747.582 309.988 748.161 310.529L746.621 312.545C746.08 312.116 745.529 311.789 744.969 311.565C744.428 311.341 743.849 311.229 743.233 311.229C741.852 311.229 740.732 311.649 739.873 312.489C739.014 313.311 738.585 314.421 738.585 315.821C738.585 316.512 738.697 317.137 738.921 317.697C739.145 318.257 739.453 318.743 739.845 319.153C740.256 319.545 740.741 319.853 741.301 320.077C741.861 320.283 742.477 320.385 743.149 320.385C743.933 320.385 744.642 320.236 745.277 319.937C745.93 319.639 746.528 319.284 747.069 318.873L748.413 320.945C747.629 321.636 746.752 322.159 745.781 322.513C744.81 322.849 743.83 323.017 742.841 323.017C741.758 323.017 740.75 322.859 739.817 322.541C738.902 322.224 738.1 321.757 737.409 321.141C736.737 320.525 736.205 319.769 735.813 318.873C735.44 317.977 735.253 316.96 735.253 315.821ZM756.522 307.057L756.438 303.473H760.358L760.274 307.057L759.434 313.525H757.362L756.522 307.057ZM806.889 307.057L806.805 303.473H810.725L810.641 307.057L809.801 313.525H807.729L806.889 307.057ZM818.834 313.581C818.834 312.088 819.049 310.753 819.478 309.577C819.908 308.383 820.496 307.375 821.242 306.553C822.008 305.732 822.904 305.107 823.93 304.677C824.976 304.248 826.105 304.033 827.318 304.033C828.438 304.033 829.437 304.267 830.314 304.733C831.192 305.2 831.929 305.732 832.526 306.329L830.706 308.345C830.258 307.897 829.754 307.543 829.194 307.281C828.653 307.001 828.028 306.861 827.318 306.861C826.553 306.861 825.853 307.02 825.218 307.337C824.584 307.636 824.042 308.075 823.594 308.653C823.146 309.213 822.792 309.904 822.53 310.725C822.288 311.547 822.166 312.471 822.166 313.497C822.166 314.543 822.288 315.485 822.53 316.325C822.792 317.147 823.146 317.847 823.594 318.425C824.061 318.985 824.612 319.424 825.246 319.741C825.9 320.04 826.618 320.189 827.402 320.189C828.149 320.189 828.812 320.031 829.39 319.713C829.988 319.396 830.548 318.948 831.07 318.369L832.862 320.357C832.116 321.216 831.276 321.879 830.342 322.345C829.409 322.793 828.364 323.017 827.206 323.017C826.03 323.017 824.929 322.812 823.902 322.401C822.894 321.991 822.008 321.384 821.242 320.581C820.496 319.779 819.908 318.789 819.478 317.613C819.049 316.437 818.834 315.093 818.834 313.581ZM840.467 307.057L840.383 303.473H844.303L844.219 307.057L843.379 313.525H841.307L840.467 307.057ZM722.944 341.057L722.86 337.473H726.78L726.696 341.057L725.856 347.525H723.784L722.944 341.057ZM734.693 349.821C734.693 348.701 734.861 347.693 735.197 346.797C735.533 345.901 735.981 345.145 736.541 344.529C737.12 343.913 737.773 343.437 738.501 343.101C739.229 342.765 739.985 342.597 740.769 342.597C741.59 342.597 742.29 342.747 742.869 343.045C743.466 343.325 744.045 343.717 744.605 344.221L744.465 341.897V336.913H747.713V356.681H745.053L744.801 355.085H744.717C744.176 355.627 743.541 356.084 742.813 356.457C742.104 356.831 741.357 357.017 740.573 357.017C739.696 357.017 738.893 356.859 738.165 356.541C737.437 356.205 736.812 355.729 736.289 355.113C735.785 354.497 735.393 353.751 735.113 352.873C734.833 351.977 734.693 350.96 734.693 349.821ZM738.025 349.793C738.025 351.287 738.314 352.425 738.893 353.209C739.472 353.975 740.293 354.357 741.357 354.357C742.496 354.357 743.532 353.807 744.465 352.705V346.517C743.98 346.051 743.494 345.724 743.009 345.537C742.524 345.351 742.029 345.257 741.525 345.257C741.04 345.257 740.582 345.36 740.153 345.565C739.742 345.771 739.378 346.069 739.061 346.461C738.744 346.835 738.492 347.301 738.305 347.861C738.118 348.421 738.025 349.065 738.025 349.793ZM756.522 341.057L756.438 337.473H760.358L760.274 341.057L759.434 347.525H757.362L756.522 341.057ZM806.889 341.057L806.805 337.473H810.725L810.641 341.057L809.801 347.525H807.729L806.889 341.057ZM819.254 338.369H823.986C826.693 338.369 828.802 339.125 830.314 340.637C831.845 342.149 832.61 344.417 832.61 347.441C832.61 348.953 832.414 350.288 832.022 351.445C831.63 352.603 831.07 353.573 830.342 354.357C829.614 355.123 828.728 355.701 827.682 356.093C826.637 356.485 825.461 356.681 824.154 356.681H819.254V338.369ZM823.79 354.049C825.545 354.049 826.898 353.517 827.85 352.453C828.802 351.371 829.278 349.7 829.278 347.441C829.278 345.201 828.802 343.568 827.85 342.541C826.898 341.515 825.545 341.001 823.79 341.001H822.502V354.049H823.79ZM840.467 341.057L840.383 337.473H844.303L844.219 341.057L843.379 347.525H841.307L840.467 341.057Z" fill="#B82629"/>
</svg>
