<svg width="740" height="406" viewBox="0 0 740 406" version="1.1" xmlns="http://www.w3.org/2000/svg" xmlns:xlink="http://www.w3.org/1999/xlink">
<title>Frame</title>
<desc>Created using Figma</desc>
<g id="Canvas" transform="matrix(2 0 0 2 50 2178)">
<clipPath id="clip-0" clip-rule="evenodd">
<path d="M -25 -1089L 345 -1089L 345 -886L -25 -886L -25 -1089Z" fill="#FFFFFF"/>
</clipPath>
<g id="Frame" clip-path="url(#clip-0)">
<path d="M -25 -1089L 345 -1089L 345 -886L -25 -886L -25 -1089Z" fill="#FFFFFF"/>
<g id="row 2">
<g id="code">
<g id="Rectangle">
<use xlink:href="#path0_fill" transform="translate(155 -951)" fill="#F1F4F8"/>
</g>
<g id="ndarray[1]">
<use xlink:href="#path1_fill" transform="translate(166 -950)" fill="#2E383C"/>
<use xlink:href="#path2_fill" transform="translate(166 -950)" fill="#197D1C"/>
</g>
</g>
<g id="table">
<g id="Rectangle">
<use xlink:href="#path3_stroke" transform="translate(30 -967)"/>
</g>
<g id="Rectangle">
<use xlink:href="#path3_stroke" transform="translate(30 -945.375)"/>
</g>
<g id="Rectangle">
<use xlink:href="#path3_stroke" transform="translate(30 -923.75)"/>
</g>
<g id="Rectangle">
<use xlink:href="#path3_stroke" transform="translate(52 -967)"/>
</g>
<g id="Rectangle">
<use xlink:href="#path3_stroke" transform="translate(52 -945.375)"/>
</g>
<g id="Rectangle">
<use xlink:href="#path3_stroke" transform="translate(52 -923.75)"/>
</g>
<g id="Rectangle">
<use xlink:href="#path3_stroke" transform="translate(74 -967)"/>
</g>
<g id="Rectangle">
<use xlink:href="#path3_stroke" transform="translate(74 -945.375)"/>
</g>
<g id="Rectangle">
<use xlink:href="#path3_stroke" transform="translate(74 -923.75)"/>
</g>
<g id="Rectangle">
<use xlink:href="#path4_fill" transform="translate(30 -945)" fill="#56CCF2" fill-opacity="0.6"/>
<use xlink:href="#path5_stroke" transform="translate(30 -945)" fill="#56CCF2"/>
</g>
</g>
</g>
<g id="row 1">
<g id="code">
<g id="Rectangle">
<use xlink:href="#path0_fill" transform="translate(155 -1050)" fill="#F1F4F8"/>
</g>
<g id="ndarray[2,0]">
<use xlink:href="#path6_fill" transform="translate(166 -1049)" fill="#2E383C"/>
<use xlink:href="#path7_fill" transform="translate(166 -1049)" fill="#197D1C"/>
</g>
</g>
<g id="table">
<g id="Rectangle">
<use xlink:href="#path3_stroke" transform="translate(30 -1066)"/>
</g>
<g id="Rectangle">
<use xlink:href="#path3_stroke" transform="translate(30 -1044.38)"/>
</g>
<g id="Rectangle">
<use xlink:href="#path3_stroke" transform="translate(30 -1022.75)"/>
</g>
<g id="Rectangle">
<use xlink:href="#path3_stroke" transform="translate(52 -1066)"/>
</g>
<g id="Rectangle">
<use xlink:href="#path3_stroke" transform="translate(52 -1044.38)"/>
</g>
<g id="Rectangle">
<use xlink:href="#path3_stroke" transform="translate(52 -1022.75)"/>
</g>
<g id="Rectangle">
<use xlink:href="#path3_stroke" transform="translate(74 -1066)"/>
</g>
<g id="Rectangle">
<use xlink:href="#path3_stroke" transform="translate(74 -1044.38)"/>
</g>
<g id="Rectangle">
<use xlink:href="#path3_stroke" transform="translate(74 -1022.75)"/>
</g>
<g id="Rectangle">
<use xlink:href="#path8_fill" transform="translate(30 -1023)" fill="#56CCF2" fill-opacity="0.6"/>
<use xlink:href="#path9_stroke" transform="translate(30 -1023)" fill="#56CCF2"/>
</g>
</g>
</g>
<g id="located at row 2, column 0">
<use xlink:href="#path10_fill" transform="translate(155 -1014)"/>
</g>
<g id="located at row 1">
<use xlink:href="#path11_fill" transform="translate(155 -918)"/>
</g>
</g>
</g>
<defs>
<path id="path0_fill" d="M 0 0L 151 0L 151 32L 0 32L 0 0Z"/>
<path id="path1_fill" d="M 0.984 13.108L 2.124 13.108L 2.232 13.996L 2.28 13.996C 2.56 13.716 2.868 13.476 3.204 13.276C 3.548 13.068 3.948 12.964 4.404 12.964C 5.084 12.964 5.584 13.172 5.904 13.588C 6.224 13.996 6.384 14.584 6.384 15.352L 6.384 19L 4.992 19L 4.992 15.532C 4.992 15.052 4.908 14.704 4.74 14.488C 4.58 14.264 4.296 14.152 3.888 14.152C 3.6 14.152 3.344 14.22 3.12 14.356C 2.896 14.492 2.648 14.7 2.376 14.98L 2.376 19L 0.984 19L 0.984 13.108ZM 7.83131 16.06C 7.83131 15.58 7.90331 15.148 8.04731 14.764C 8.19131 14.38 8.38331 14.056 8.62331 13.792C 8.87131 13.528 9.15131 13.324 9.46331 13.18C 9.77531 13.036 10.0993 12.964 10.4353 12.964C 10.7873 12.964 11.0873 13.028 11.3353 13.156C 11.5913 13.276 11.8393 13.444 12.0793 13.66L 12.0193 12.664L 12.0193 10.528L 13.4113 10.528L 13.4113 19L 12.2713 19L 12.1633 18.316L 12.1273 18.316C 11.8953 18.548 11.6233 18.744 11.3113 18.904C 11.0073 19.064 10.6873 19.144 10.3513 19.144C 9.97531 19.144 9.63131 19.076 9.31931 18.94C 9.00731 18.796 8.73931 18.592 8.51531 18.328C 8.29931 18.064 8.13131 17.744 8.01131 17.368C 7.89131 16.984 7.83131 16.548 7.83131 16.06ZM 9.25931 16.048C 9.25931 16.688 9.38331 17.176 9.63131 17.512C 9.87931 17.84 10.2313 18.004 10.6873 18.004C 11.1753 18.004 11.6193 17.768 12.0193 17.296L 12.0193 14.644C 11.8113 14.444 11.6033 14.304 11.3953 14.224C 11.1873 14.144 10.9753 14.104 10.7593 14.104C 10.5513 14.104 10.3553 14.148 10.1713 14.236C 9.99531 14.324 9.83931 14.452 9.70331 14.62C 9.56731 14.78 9.45931 14.98 9.37931 15.22C 9.29931 15.46 9.25931 15.736 9.25931 16.048ZM 15.2426 17.416C 15.2426 17.088 15.3186 16.8 15.4706 16.552C 15.6226 16.296 15.8626 16.08 16.1906 15.904C 16.5186 15.728 16.9386 15.584 17.4506 15.472C 17.9626 15.36 18.5826 15.28 19.3106 15.232C 19.2866 14.896 19.1666 14.62 18.9506 14.404C 18.7346 14.188 18.3866 14.08 17.9066 14.08C 17.5706 14.08 17.2386 14.144 16.9106 14.272C 16.5906 14.392 16.2786 14.536 15.9746 14.704L 15.4706 13.78C 15.8306 13.572 16.2426 13.384 16.7066 13.216C 17.1706 13.048 17.6546 12.964 18.1586 12.964C 18.9826 12.964 19.6106 13.184 20.0426 13.624C 20.4746 14.056 20.6906 14.684 20.6906 15.508L 20.6906 19L 19.5626 19L 19.4546 18.268L 19.4186 18.268C 19.1066 18.508 18.7586 18.716 18.3746 18.892C 17.9986 19.06 17.6106 19.144 17.2106 19.144C 16.9226 19.144 16.6586 19.1 16.4186 19.012C 16.1786 18.932 15.9706 18.816 15.7946 18.664C 15.6186 18.512 15.4826 18.332 15.3866 18.124C 15.2906 17.908 15.2426 17.672 15.2426 17.416ZM 16.5746 17.308C 16.5746 17.572 16.6746 17.764 16.8746 17.884C 17.0826 18.004 17.3346 18.064 17.6306 18.064C 17.9266 18.064 18.2106 18 18.4826 17.872C 18.7626 17.736 19.0386 17.56 19.3106 17.344L 19.3106 16.096C 18.7826 16.136 18.3426 16.192 17.9906 16.264C 17.6386 16.328 17.3586 16.412 17.1506 16.516C 16.9426 16.62 16.7946 16.74 16.7066 16.876C 16.6186 17.004 16.5746 17.148 16.5746 17.308ZM 23.1459 13.108L 24.2859 13.108L 24.4059 14.44L 24.4419 14.44C 24.7459 13.96 25.1099 13.596 25.5339 13.348C 25.9659 13.092 26.4379 12.964 26.9499 12.964C 27.1899 12.964 27.3939 12.984 27.5619 13.024C 27.7379 13.056 27.9139 13.116 28.0899 13.204L 27.8019 14.368C 27.6099 14.304 27.4379 14.26 27.2859 14.236C 27.1419 14.204 26.9579 14.188 26.7339 14.188C 26.3259 14.188 25.9339 14.304 25.5579 14.536C 25.1819 14.768 24.8419 15.172 24.5379 15.748L 24.5379 19L 23.1459 19L 23.1459 13.108ZM 30.3412 13.108L 31.4812 13.108L 31.6012 14.44L 31.6373 14.44C 31.9412 13.96 32.3052 13.596 32.7292 13.348C 33.1612 13.092 33.6332 12.964 34.1452 12.964C 34.3852 12.964 34.5892 12.984 34.7572 13.024C 34.9332 13.056 35.1092 13.116 35.2852 13.204L 34.9973 14.368C 34.8052 14.304 34.6332 14.26 34.4812 14.236C 34.3372 14.204 34.1532 14.188 33.9292 14.188C 33.5212 14.188 33.1292 14.304 32.7533 14.536C 32.3773 14.768 32.0373 15.172 31.7333 15.748L 31.7333 19L 30.3412 19L 30.3412 13.108ZM 36.8286 17.416C 36.8286 17.088 36.9046 16.8 37.0566 16.552C 37.2086 16.296 37.4486 16.08 37.7766 15.904C 38.1046 15.728 38.5246 15.584 39.0366 15.472C 39.5486 15.36 40.1686 15.28 40.8966 15.232C 40.8726 14.896 40.7526 14.62 40.5366 14.404C 40.3206 14.188 39.9726 14.08 39.4926 14.08C 39.1566 14.08 38.8246 14.144 38.4966 14.272C 38.1766 14.392 37.8646 14.536 37.5606 14.704L 37.0566 13.78C 37.4166 13.572 37.8286 13.384 38.2926 13.216C 38.7566 13.048 39.2406 12.964 39.7446 12.964C 40.5686 12.964 41.1966 13.184 41.6286 13.624C 42.0606 14.056 42.2766 14.684 42.2766 15.508L 42.2766 19L 41.1486 19L 41.0406 18.268L 41.0046 18.268C 40.6926 18.508 40.3446 18.716 39.9606 18.892C 39.5846 19.06 39.1966 19.144 38.7966 19.144C 38.5086 19.144 38.2446 19.1 38.0046 19.012C 37.7646 18.932 37.5566 18.816 37.3806 18.664C 37.2046 18.512 37.0686 18.332 36.9726 18.124C 36.8766 17.908 36.8286 17.672 36.8286 17.416ZM 38.1606 17.308C 38.1606 17.572 38.2606 17.764 38.4606 17.884C 38.6686 18.004 38.9206 18.064 39.2166 18.064C 39.5126 18.064 39.7966 18 40.0686 17.872C 40.3486 17.736 40.6246 17.56 40.8966 17.344L 40.8966 16.096C 40.3686 16.136 39.9286 16.192 39.5766 16.264C 39.2246 16.328 38.9446 16.412 38.7366 16.516C 38.5286 16.62 38.3806 16.74 38.2926 16.876C 38.2046 17.004 38.1606 17.148 38.1606 17.308ZM 44.2399 20.224C 44.3199 20.248 44.3999 20.268 44.4799 20.284C 44.5599 20.3 44.6439 20.308 44.7319 20.308C 45.1079 20.308 45.4079 20.212 45.6319 20.02C 45.8559 19.836 46.0279 19.596 46.1479 19.3L 46.2919 18.928L 43.6519 13.108L 45.0319 13.108L 46.2439 16C 46.3559 16.264 46.4639 16.544 46.5679 16.84C 46.6719 17.136 46.7799 17.432 46.8919 17.728L 46.9399 17.728C 47.0279 17.448 47.1239 17.16 47.2279 16.864C 47.3319 16.568 47.4319 16.28 47.5279 16L 48.5959 13.108L 49.9039 13.108L 47.4439 19.264C 47.3159 19.6 47.1719 19.9 47.0119 20.164C 46.8599 20.428 46.6799 20.652 46.4719 20.836C 46.2639 21.028 46.0239 21.172 45.7519 21.268C 45.4799 21.372 45.1679 21.424 44.8159 21.424C 44.6559 21.424 44.5039 21.412 44.3599 21.388C 44.2159 21.372 44.0879 21.344 43.9759 21.304L 44.2399 20.224ZM 52.9232 10.504L 56.3552 10.504L 56.3552 11.26L 53.9912 11.26L 53.9912 20.068L 56.3552 20.068L 56.3552 20.824L 52.9232 20.824L 52.9232 10.504ZM 68.3338 20.068L 68.3338 11.26L 65.9818 11.26L 65.9818 10.504L 69.4138 10.504L 69.4138 20.824L 65.9818 20.824L 65.9818 20.068L 68.3338 20.068Z"/>
<path id="path2_fill" d="M 63.9585 17.872L 63.9585 19L 58.6425 19L 58.6425 17.872L 60.7065 17.872L 60.7065 12.856L 59.1105 12.856L 59.1105 11.992C 59.5425 11.92 59.9105 11.836 60.2145 11.74C 60.5265 11.636 60.8145 11.512 61.0785 11.368L 62.0865 11.368L 62.0865 17.872L 63.9585 17.872Z"/>
<path id="path3_stroke" d="M 0 0L 0 -0.5L -0.5 -0.5L -0.5 0L 0 0ZM 22 0L 22.5 0L 22.5 -0.5L 22 -0.5L 22 0ZM 22 22L 22 22.5L 22.5 22.5L 22.5 22L 22 22ZM 0 22L -0.5 22L -0.5 22.5L 0 22.5L 0 22ZM 0 0.5L 22 0.5L 22 -0.5L 0 -0.5L 0 0.5ZM 21.5 0L 21.5 22L 22.5 22L 22.5 0L 21.5 0ZM 22 21.5L 0 21.5L 0 22.5L 22 22.5L 22 21.5ZM 0.5 22L 0.5 0L -0.5 0L -0.5 22L 0.5 22Z"/>
<path id="path4_fill" d="M 0 0L 66 0L 66 21L 0 21L 0 0Z"/>
<path id="path5_stroke" d="M 0 0L 0 -1L -1 -1L -1 0L 0 0ZM 66 0L 67 0L 67 -1L 66 -1L 66 0ZM 66 21L 66 22L 67 22L 67 21L 66 21ZM 0 21L -1 21L -1 22L 0 22L 0 21ZM 0 1L 66 1L 66 -1L 0 -1L 0 1ZM 65 0L 65 21L 67 21L 67 0L 65 0ZM 66 20L 0 20L 0 22L 66 22L 66 20ZM 1 21L 1 0L -1 0L -1 21L 1 21Z"/>
<path id="path6_fill" d="M 0.984 13.108L 2.124 13.108L 2.232 13.996L 2.28 13.996C 2.56 13.716 2.868 13.476 3.204 13.276C 3.548 13.068 3.948 12.964 4.404 12.964C 5.084 12.964 5.584 13.172 5.904 13.588C 6.224 13.996 6.384 14.584 6.384 15.352L 6.384 19L 4.992 19L 4.992 15.532C 4.992 15.052 4.908 14.704 4.74 14.488C 4.58 14.264 4.296 14.152 3.888 14.152C 3.6 14.152 3.344 14.22 3.12 14.356C 2.896 14.492 2.648 14.7 2.376 14.98L 2.376 19L 0.984 19L 0.984 13.108ZM 7.83131 16.06C 7.83131 15.58 7.90331 15.148 8.04731 14.764C 8.19131 14.38 8.38331 14.056 8.62331 13.792C 8.87131 13.528 9.15131 13.324 9.46331 13.18C 9.77531 13.036 10.0993 12.964 10.4353 12.964C 10.7873 12.964 11.0873 13.028 11.3353 13.156C 11.5913 13.276 11.8393 13.444 12.0793 13.66L 12.0193 12.664L 12.0193 10.528L 13.4113 10.528L 13.4113 19L 12.2713 19L 12.1633 18.316L 12.1273 18.316C 11.8953 18.548 11.6233 18.744 11.3113 18.904C 11.0073 19.064 10.6873 19.144 10.3513 19.144C 9.97531 19.144 9.63131 19.076 9.31931 18.94C 9.00731 18.796 8.73931 18.592 8.51531 18.328C 8.29931 18.064 8.13131 17.744 8.01131 17.368C 7.89131 16.984 7.83131 16.548 7.83131 16.06ZM 9.25931 16.048C 9.25931 16.688 9.38331 17.176 9.63131 17.512C 9.87931 17.84 10.2313 18.004 10.6873 18.004C 11.1753 18.004 11.6193 17.768 12.0193 17.296L 12.0193 14.644C 11.8113 14.444 11.6033 14.304 11.3953 14.224C 11.1873 14.144 10.9753 14.104 10.7593 14.104C 10.5513 14.104 10.3553 14.148 10.1713 14.236C 9.99531 14.324 9.83931 14.452 9.70331 14.62C 9.56731 14.78 9.45931 14.98 9.37931 15.22C 9.29931 15.46 9.25931 15.736 9.25931 16.048ZM 15.2426 17.416C 15.2426 17.088 15.3186 16.8 15.4706 16.552C 15.6226 16.296 15.8626 16.08 16.1906 15.904C 16.5186 15.728 16.9386 15.584 17.4506 15.472C 17.9626 15.36 18.5826 15.28 19.3106 15.232C 19.2866 14.896 19.1666 14.62 18.9506 14.404C 18.7346 14.188 18.3866 14.08 17.9066 14.08C 17.5706 14.08 17.2386 14.144 16.9106 14.272C 16.5906 14.392 16.2786 14.536 15.9746 14.704L 15.4706 13.78C 15.8306 13.572 16.2426 13.384 16.7066 13.216C 17.1706 13.048 17.6546 12.964 18.1586 12.964C 18.9826 12.964 19.6106 13.184 20.0426 13.624C 20.4746 14.056 20.6906 14.684 20.6906 15.508L 20.6906 19L 19.5626 19L 19.4546 18.268L 19.4186 18.268C 19.1066 18.508 18.7586 18.716 18.3746 18.892C 17.9986 19.06 17.6106 19.144 17.2106 19.144C 16.9226 19.144 16.6586 19.1 16.4186 19.012C 16.1786 18.932 15.9706 18.816 15.7946 18.664C 15.6186 18.512 15.4826 18.332 15.3866 18.124C 15.2906 17.908 15.2426 17.672 15.2426 17.416ZM 16.5746 17.308C 16.5746 17.572 16.6746 17.764 16.8746 17.884C 17.0826 18.004 17.3346 18.064 17.6306 18.064C 17.9266 18.064 18.2106 18 18.4826 17.872C 18.7626 17.736 19.0386 17.56 19.3106 17.344L 19.3106 16.096C 18.7826 16.136 18.3426 16.192 17.9906 16.264C 17.6386 16.328 17.3586 16.412 17.1506 16.516C 16.9426 16.62 16.7946 16.74 16.7066 16.876C 16.6186 17.004 16.5746 17.148 16.5746 17.308ZM 23.1459 13.108L 24.2859 13.108L 24.4059 14.44L 24.4419 14.44C 24.7459 13.96 25.1099 13.596 25.5339 13.348C 25.9659 13.092 26.4379 12.964 26.9499 12.964C 27.1899 12.964 27.3939 12.984 27.5619 13.024C 27.7379 13.056 27.9139 13.116 28.0899 13.204L 27.8019 14.368C 27.6099 14.304 27.4379 14.26 27.2859 14.236C 27.1419 14.204 26.9579 14.188 26.7339 14.188C 26.3259 14.188 25.9339 14.304 25.5579 14.536C 25.1819 14.768 24.8419 15.172 24.5379 15.748L 24.5379 19L 23.1459 19L 23.1459 13.108ZM 30.3412 13.108L 31.4812 13.108L 31.6012 14.44L 31.6373 14.44C 31.9412 13.96 32.3052 13.596 32.7292 13.348C 33.1612 13.092 33.6332 12.964 34.1452 12.964C 34.3852 12.964 34.5892 12.984 34.7572 13.024C 34.9332 13.056 35.1092 13.116 35.2852 13.204L 34.9973 14.368C 34.8052 14.304 34.6332 14.26 34.4812 14.236C 34.3372 14.204 34.1532 14.188 33.9292 14.188C 33.5212 14.188 33.1292 14.304 32.7533 14.536C 32.3773 14.768 32.0373 15.172 31.7333 15.748L 31.7333 19L 30.3412 19L 30.3412 13.108ZM 36.8286 17.416C 36.8286 17.088 36.9046 16.8 37.0566 16.552C 37.2086 16.296 37.4486 16.08 37.7766 15.904C 38.1046 15.728 38.5246 15.584 39.0366 15.472C 39.5486 15.36 40.1686 15.28 40.8966 15.232C 40.8726 14.896 40.7526 14.62 40.5366 14.404C 40.3206 14.188 39.9726 14.08 39.4926 14.08C 39.1566 14.08 38.8246 14.144 38.4966 14.272C 38.1766 14.392 37.8646 14.536 37.5606 14.704L 37.0566 13.78C 37.4166 13.572 37.8286 13.384 38.2926 13.216C 38.7566 13.048 39.2406 12.964 39.7446 12.964C 40.5686 12.964 41.1966 13.184 41.6286 13.624C 42.0606 14.056 42.2766 14.684 42.2766 15.508L 42.2766 19L 41.1486 19L 41.0406 18.268L 41.0046 18.268C 40.6926 18.508 40.3446 18.716 39.9606 18.892C 39.5846 19.06 39.1966 19.144 38.7966 19.144C 38.5086 19.144 38.2446 19.1 38.0046 19.012C 37.7646 18.932 37.5566 18.816 37.3806 18.664C 37.2046 18.512 37.0686 18.332 36.9726 18.124C 36.8766 17.908 36.8286 17.672 36.8286 17.416ZM 38.1606 17.308C 38.1606 17.572 38.2606 17.764 38.4606 17.884C 38.6686 18.004 38.9206 18.064 39.2166 18.064C 39.5126 18.064 39.7966 18 40.0686 17.872C 40.3486 17.736 40.6246 17.56 40.8966 17.344L 40.8966 16.096C 40.3686 16.136 39.9286 16.192 39.5766 16.264C 39.2246 16.328 38.9446 16.412 38.7366 16.516C 38.5286 16.62 38.3806 16.74 38.2926 16.876C 38.2046 17.004 38.1606 17.148 38.1606 17.308ZM 44.2399 20.224C 44.3199 20.248 44.3999 20.268 44.4799 20.284C 44.5599 20.3 44.6439 20.308 44.7319 20.308C 45.1079 20.308 45.4079 20.212 45.6319 20.02C 45.8559 19.836 46.0279 19.596 46.1479 19.3L 46.2919 18.928L 43.6519 13.108L 45.0319 13.108L 46.2439 16C 46.3559 16.264 46.4639 16.544 46.5679 16.84C 46.6719 17.136 46.7799 17.432 46.8919 17.728L 46.9399 17.728C 47.0279 17.448 47.1239 17.16 47.2279 16.864C 47.3319 16.568 47.4319 16.28 47.5279 16L 48.5959 13.108L 49.9039 13.108L 47.4439 19.264C 47.3159 19.6 47.1719 19.9 47.0119 20.164C 46.8599 20.428 46.6799 20.652 46.4719 20.836C 46.2639 21.028 46.0239 21.172 45.7519 21.268C 45.4799 21.372 45.1679 21.424 44.8159 21.424C 44.6559 21.424 44.5039 21.412 44.3599 21.388C 44.2159 21.372 44.0879 21.344 43.9759 21.304L 44.2399 20.224ZM 52.9232 10.504L 56.3552 10.504L 56.3552 11.26L 53.9912 11.26L 53.9912 20.068L 56.3552 20.068L 56.3552 20.824L 52.9232 20.824L 52.9232 10.504ZM 67.0258 20.752C 68.0418 20.344 68.5538 19.728 68.5618 18.904C 68.5218 18.912 68.4658 18.916 68.3938 18.916C 68.0898 18.916 67.8258 18.828 67.6018 18.652C 67.3778 18.468 67.2658 18.2 67.2658 17.848C 67.2658 17.512 67.3778 17.252 67.6018 17.068C 67.8338 16.876 68.1058 16.78 68.4178 16.78C 68.8498 16.78 69.1738 16.94 69.3898 17.26C 69.6058 17.58 69.7138 18.02 69.7138 18.58C 69.7138 19.316 69.5138 19.936 69.1138 20.44C 68.7138 20.952 68.1378 21.332 67.3858 21.58L 67.0258 20.752ZM 82.7244 20.068L 82.7244 11.26L 80.3724 11.26L 80.3724 10.504L 83.8044 10.504L 83.8044 20.824L 80.3724 20.824L 80.3724 20.068L 82.7244 20.068Z"/>
<path id="path7_fill" d="M 58.3425 18.196C 58.9425 17.684 59.4785 17.216 59.9505 16.792C 60.4225 16.36 60.8225 15.96 61.1505 15.592C 61.4865 15.224 61.7425 14.88 61.9185 14.56C 62.0945 14.24 62.1825 13.932 62.1825 13.636C 62.1825 13.228 62.0585 12.908 61.8105 12.676C 61.5625 12.436 61.1985 12.316 60.7185 12.316C 60.3825 12.316 60.0745 12.4 59.7945 12.568C 59.5225 12.736 59.2705 12.936 59.0385 13.168L 58.2825 12.4C 58.6505 12.024 59.0385 11.736 59.4465 11.536C 59.8545 11.328 60.3385 11.224 60.8985 11.224C 61.2905 11.224 61.6465 11.28 61.9665 11.392C 62.2865 11.504 62.5585 11.664 62.7825 11.872C 63.0145 12.072 63.1905 12.316 63.3105 12.604C 63.4385 12.892 63.5025 13.212 63.5025 13.564C 63.5025 13.9 63.4185 14.244 63.2505 14.596C 63.0905 14.94 62.8705 15.292 62.5905 15.652C 62.3105 16.004 61.9745 16.368 61.5825 16.744C 61.1985 17.12 60.7865 17.508 60.3465 17.908C 60.5705 17.892 60.8065 17.876 61.0545 17.86C 61.3025 17.836 61.5305 17.824 61.7385 17.824L 63.8985 17.824L 63.8985 19L 58.3425 19L 58.3425 18.196ZM 75.5531 19.144C 74.6811 19.144 73.9891 18.8 73.4771 18.112C 72.9731 17.424 72.7211 16.436 72.7211 15.148C 72.7211 13.852 72.9731 12.876 73.4771 12.22C 73.9891 11.556 74.6811 11.224 75.5531 11.224C 76.4251 11.224 77.1131 11.556 77.6171 12.22C 78.1291 12.876 78.3851 13.852 78.3851 15.148C 78.3851 16.436 78.1291 17.424 77.6171 18.112C 77.1131 18.8 76.4251 19.144 75.5531 19.144ZM 75.5531 12.304C 75.3211 12.304 75.1091 12.356 74.9171 12.46C 74.7251 12.556 74.5571 12.716 74.4131 12.94C 74.2771 13.164 74.1691 13.46 74.0891 13.828C 74.0091 14.188 73.9691 14.628 73.9691 15.148C 73.9691 15.668 74.0091 16.116 74.0891 16.492C 74.1691 16.86 74.2771 17.16 74.4131 17.392C 74.5571 17.624 74.7251 17.796 74.9171 17.908C 75.1091 18.012 75.3211 18.064 75.5531 18.064C 75.7771 18.064 75.9851 18.012 76.1771 17.908C 76.3771 17.796 76.5451 17.624 76.6811 17.392C 76.8251 17.16 76.9371 16.86 77.0171 16.492C 77.0971 16.116 77.1371 15.668 77.1371 15.148C 77.1371 14.628 77.0971 14.188 77.0171 13.828C 76.9371 13.46 76.8251 13.164 76.6811 12.94C 76.5451 12.716 76.3771 12.556 76.1771 12.46C 75.9851 12.356 75.7771 12.304 75.5531 12.304ZM 75.5531 15.952C 75.3211 15.952 75.1251 15.876 74.9651 15.724C 74.8051 15.572 74.7251 15.364 74.7251 15.1C 74.7251 14.836 74.8051 14.628 74.9651 14.476C 75.1251 14.324 75.3211 14.248 75.5531 14.248C 75.7851 14.248 75.9811 14.324 76.1411 14.476C 76.3011 14.628 76.3811 14.836 76.3811 15.1C 76.3811 15.364 76.3011 15.572 76.1411 15.724C 75.9811 15.876 75.7851 15.952 75.5531 15.952Z"/>
<path id="path8_fill" d="M 0 0L 22 0L 22 22L 0 22L 0 0Z"/>
<path id="path9_stroke" d="M 0 0L 0 -1L -1 -1L -1 0L 0 0ZM 22 0L 23 0L 23 -1L 22 -1L 22 0ZM 22 22L 22 23L 23 23L 23 22L 22 22ZM 0 22L -1 22L -1 23L 0 23L 0 22ZM 0 1L 22 1L 22 -1L 0 -1L 0 1ZM 21 0L 21 22L 23 22L 23 0L 21 0ZM 22 21L 0 21L 0 23L 22 23L 22 21ZM 1 22L 1 0L -1 0L -1 22L 1 22Z"/>
<path id="path10_fill" d="M 6.37305 12L 5.31836 12L 6.87695 3L 7.9375 3L 6.37305 12ZM 11.6289 5.54297C 12.1602 5.55078 12.6152 5.69531 12.9941 5.97656C 13.373 6.25781 13.6523 6.64648 13.832 7.14258C 14.0156 7.63477 14.0781 8.17383 14.0195 8.75977L 14.0078 8.88867C 13.9336 9.50586 13.75 10.0645 13.457 10.5645C 13.1641 11.0605 12.7852 11.4473 12.3203 11.7246C 11.8555 12.002 11.3457 12.1328 10.791 12.1172C 10.2637 12.1094 9.80859 11.9648 9.42578 11.6836C 9.04688 11.4023 8.76953 11.0195 8.59375 10.5352C 8.41797 10.0508 8.35547 9.51758 8.40625 8.93555C 8.46484 8.2793 8.64258 7.68945 8.93945 7.16602C 9.23633 6.64258 9.61719 6.23828 10.082 5.95312C 10.5508 5.66406 11.0664 5.52734 11.6289 5.54297ZM 9.47266 8.94141C 9.44531 9.1875 9.44531 9.44336 9.47266 9.70898C 9.51172 10.1699 9.64844 10.5371 9.88281 10.8105C 10.1211 11.084 10.4375 11.2266 10.832 11.2383C 11.1836 11.25 11.5078 11.1641 11.8047 10.9805C 12.1016 10.793 12.3516 10.5117 12.5547 10.1367C 12.7578 9.76172 12.8887 9.3457 12.9473 8.88867C 12.9785 8.5293 12.9844 8.22656 12.9648 7.98047C 12.918 7.50781 12.7754 7.13477 12.5371 6.86133C 12.2988 6.58789 11.9824 6.44336 11.5879 6.42773C 11.041 6.41602 10.5762 6.63086 10.1934 7.07227C 9.81055 7.51367 9.57422 8.0918 9.48438 8.80664L 9.47266 8.94141ZM 17.4883 11.2383C 17.8672 11.2461 18.209 11.1367 18.5137 10.9102C 18.8184 10.6797 19.0176 10.3789 19.1113 10.0078L 20.1133 10.002C 20.0547 10.4004 19.8945 10.7637 19.6328 11.0918C 19.375 11.4199 19.0488 11.6758 18.6543 11.8594C 18.2598 12.043 17.8555 12.1289 17.4414 12.1172C 16.9141 12.1094 16.4668 11.9727 16.0996 11.707C 15.7363 11.4375 15.4688 11.0645 15.2969 10.5879C 15.125 10.1074 15.0664 9.56836 15.1211 8.9707L 15.1504 8.67773C 15.2246 8.06836 15.4023 7.52344 15.6836 7.04297C 15.9648 6.5625 16.332 6.18945 16.7852 5.92383C 17.2383 5.6543 17.7383 5.52734 18.2852 5.54297C 18.9492 5.55859 19.4805 5.78125 19.8789 6.21094C 20.2773 6.64062 20.4766 7.18555 20.4766 7.8457L 19.4863 7.83984C 19.4785 7.42578 19.3633 7.0918 19.1406 6.83789C 18.918 6.58008 18.6172 6.44336 18.2383 6.42773C 17.6875 6.41602 17.2285 6.62109 16.8613 7.04297C 16.498 7.46484 16.2715 8.05469 16.1816 8.8125L 16.1641 8.96484C 16.1406 9.21484 16.1367 9.47266 16.1523 9.73828C 16.1797 10.1953 16.3086 10.5566 16.5391 10.8223C 16.7695 11.0879 17.0859 11.2266 17.4883 11.2383ZM 24.8418 12C 24.8145 11.8867 24.8008 11.7754 24.8008 11.666L 24.8184 11.332C 24.2363 11.8711 23.6191 12.1328 22.9668 12.1172C 22.4082 12.1094 21.9531 11.9336 21.6016 11.5898C 21.2539 11.2422 21.0957 10.8086 21.127 10.2891C 21.166 9.61719 21.459 9.09375 22.0059 8.71875C 22.5566 8.33984 23.2793 8.15039 24.1738 8.15039L 25.2812 8.15625L 25.3516 7.65234C 25.3906 7.27344 25.3164 6.97461 25.1289 6.75586C 24.9453 6.5332 24.668 6.41797 24.2969 6.41016C 23.9336 6.40234 23.6113 6.49219 23.3301 6.67969C 23.0527 6.86328 22.8828 7.10742 22.8203 7.41211L 21.7539 7.41797C 21.7891 7.04688 21.9336 6.71875 22.1875 6.43359C 22.4414 6.14453 22.7676 5.92188 23.166 5.76562C 23.5645 5.60547 23.9766 5.5293 24.4023 5.53711C 25.0625 5.55273 25.5762 5.75391 25.9434 6.14062C 26.3105 6.52344 26.4648 7.0332 26.4062 7.66992L 25.8906 10.8105L 25.8613 11.2617C 25.8535 11.4766 25.877 11.6895 25.9316 11.9004L 25.9199 12L 24.8418 12ZM 23.1777 11.1797C 23.5176 11.1875 23.8379 11.1074 24.1387 10.9395C 24.4434 10.7676 24.7051 10.5312 24.9238 10.2305L 25.1523 8.92383L 24.3496 8.91797C 23.6816 8.91797 23.1699 9.02344 22.8145 9.23438C 22.459 9.44531 22.2578 9.74414 22.2109 10.1309C 22.1758 10.4277 22.2441 10.6758 22.416 10.875C 22.5918 11.0703 22.8457 11.1719 23.1777 11.1797ZM 30.1621 4.125L 29.8926 5.66016L 31.0469 5.66016L 30.9004 6.49805L 29.752 6.49805L 29.0898 10.4414C 29.0781 10.543 29.0762 10.6367 29.084 10.7227C 29.1113 11.0273 29.2773 11.1797 29.582 11.1797C 29.7109 11.1797 29.8828 11.1602 30.0977 11.1211L 30.0156 12.0059C 29.7617 12.0762 29.5039 12.1113 29.2422 12.1113C 28.8203 12.1035 28.5039 11.9492 28.293 11.6484C 28.082 11.3438 28 10.9355 28.0469 10.4238L 28.6914 6.49805L 27.5723 6.49805L 27.7188 5.66016L 28.8379 5.66016L 29.1074 4.125L 30.1621 4.125ZM 33.9707 12.1172C 33.1816 12.1016 32.5645 11.8105 32.1191 11.2441C 31.6738 10.6777 31.4863 9.95312 31.5566 9.07031L 31.5859 8.81836C 31.6523 8.18945 31.8379 7.61523 32.1426 7.0957C 32.4512 6.57617 32.8262 6.18555 33.2676 5.92383C 33.709 5.6582 34.1855 5.53125 34.6973 5.54297C 35.3496 5.55859 35.8613 5.77539 36.2324 6.19336C 36.6035 6.61133 36.8066 7.17773 36.8418 7.89258C 36.8535 8.14648 36.8457 8.40039 36.8184 8.6543L 36.7539 9.14062L 32.6113 9.14062C 32.541 9.71484 32.6348 10.2031 32.8926 10.6055C 33.1543 11.0078 33.543 11.2168 34.0586 11.2324C 34.6836 11.248 35.2617 10.9668 35.793 10.3887L 36.4023 10.9043C 36.1367 11.2871 35.793 11.5879 35.3711 11.8066C 34.9531 12.0215 34.4863 12.125 33.9707 12.1172ZM 34.6445 6.42773C 34.207 6.41602 33.8242 6.56445 33.4961 6.87305C 33.1719 7.18164 32.9141 7.64062 32.7227 8.25L 35.8047 8.25586L 35.8281 8.16211C 35.8906 7.66992 35.8105 7.26172 35.5879 6.9375C 35.3691 6.60938 35.0547 6.43945 34.6445 6.42773ZM 37.7559 8.81836C 37.834 8.17383 38.0117 7.5918 38.2891 7.07227C 38.5664 6.55273 38.9082 6.16406 39.3145 5.90625C 39.7207 5.64844 40.168 5.52539 40.6562 5.53711C 41.3633 5.55273 41.9062 5.81055 42.2852 6.31055L 42.8945 3L 43.9551 3L 42.3965 12L 41.4297 12L 41.541 11.3203C 41.041 11.8672 40.4238 12.1328 39.6895 12.1172C 39.1035 12.1016 38.6367 11.873 38.2891 11.4316C 37.9414 10.9863 37.7539 10.3906 37.7266 9.64453C 37.7148 9.41406 37.7246 9.13867 37.7559 8.81836ZM 38.7754 9.42773C 38.7637 9.98633 38.8633 10.4199 39.0742 10.7285C 39.2852 11.0371 39.5938 11.1953 40 11.2031C 40.6133 11.2305 41.1582 10.9219 41.6348 10.2773L 42.1387 7.34766C 41.9043 6.76953 41.4785 6.47266 40.8613 6.45703C 40.4434 6.44531 40.0742 6.57227 39.7539 6.83789C 39.4375 7.09961 39.1953 7.46875 39.0273 7.94531C 38.8633 8.41797 38.7793 8.91211 38.7754 9.42773ZM 50.8926 12C 50.8652 11.8867 50.8516 11.7754 50.8516 11.666L 50.8691 11.332C 50.2871 11.8711 49.6699 12.1328 49.0176 12.1172C 48.459 12.1094 48.0039 11.9336 47.6523 11.5898C 47.3047 11.2422 47.1465 10.8086 47.1777 10.2891C 47.2168 9.61719 47.5098 9.09375 48.0566 8.71875C 48.6074 8.33984 49.3301 8.15039 50.2246 8.15039L 51.332 8.15625L 51.4023 7.65234C 51.4414 7.27344 51.3672 6.97461 51.1797 6.75586C 50.9961 6.5332 50.7188 6.41797 50.3477 6.41016C 49.9844 6.40234 49.6621 6.49219 49.3809 6.67969C 49.1035 6.86328 48.9336 7.10742 48.8711 7.41211L 47.8047 7.41797C 47.8398 7.04688 47.9844 6.71875 48.2383 6.43359C 48.4922 6.14453 48.8184 5.92188 49.2168 5.76562C 49.6152 5.60547 50.0273 5.5293 50.4531 5.53711C 51.1133 5.55273 51.627 5.75391 51.9941 6.14062C 52.3613 6.52344 52.5156 7.0332 52.457 7.66992L 51.9414 10.8105L 51.9121 11.2617C 51.9043 11.4766 51.9277 11.6895 51.9824 11.9004L 51.9707 12L 50.8926 12ZM 49.2285 11.1797C 49.5684 11.1875 49.8887 11.1074 50.1895 10.9395C 50.4941 10.7676 50.7559 10.5312 50.9746 10.2305L 51.2031 8.92383L 50.4004 8.91797C 49.7324 8.91797 49.2207 9.02344 48.8652 9.23438C 48.5098 9.44531 48.3086 9.74414 48.2617 10.1309C 48.2266 10.4277 48.2949 10.6758 48.4668 10.875C 48.6426 11.0703 48.8965 11.1719 49.2285 11.1797ZM 56.2129 4.125L 55.9434 5.66016L 57.0977 5.66016L 56.9512 6.49805L 55.8027 6.49805L 55.1406 10.4414C 55.1289 10.543 55.127 10.6367 55.1348 10.7227C 55.1621 11.0273 55.3281 11.1797 55.6328 11.1797C 55.7617 11.1797 55.9336 11.1602 56.1484 11.1211L 56.0664 12.0059C 55.8125 12.0762 55.5547 12.1113 55.293 12.1113C 54.8711 12.1035 54.5547 11.9492 54.3438 11.6484C 54.1328 11.3438 54.0508 10.9355 54.0977 10.4238L 54.7422 6.49805L 53.623 6.49805L 53.7695 5.66016L 54.8887 5.66016L 55.1582 4.125L 56.2129 4.125ZM 64.1641 6.62695L 63.666 6.57422C 62.9863 6.57422 62.4512 6.88086 62.0605 7.49414L 61.2812 12L 60.2207 12L 61.3223 5.66016L 62.3477 5.6543L 62.1895 6.39258C 62.6387 5.80273 63.168 5.51562 63.7773 5.53125C 63.9062 5.53125 64.0742 5.56055 64.2812 5.61914L 64.1641 6.62695ZM 67.6211 5.54297C 68.1523 5.55078 68.6074 5.69531 68.9863 5.97656C 69.3652 6.25781 69.6445 6.64648 69.8242 7.14258C 70.0078 7.63477 70.0703 8.17383 70.0117 8.75977L 70 8.88867C 69.9258 9.50586 69.7422 10.0645 69.4492 10.5645C 69.1562 11.0605 68.7773 11.4473 68.3125 11.7246C 67.8477 12.002 67.3379 12.1328 66.7832 12.1172C 66.2559 12.1094 65.8008 11.9648 65.418 11.6836C 65.0391 11.4023 64.7617 11.0195 64.5859 10.5352C 64.4102 10.0508 64.3477 9.51758 64.3984 8.93555C 64.457 8.2793 64.6348 7.68945 64.9316 7.16602C 65.2285 6.64258 65.6094 6.23828 66.0742 5.95312C 66.543 5.66406 67.0586 5.52734 67.6211 5.54297ZM 65.4648 8.94141C 65.4375 9.1875 65.4375 9.44336 65.4648 9.70898C 65.5039 10.1699 65.6406 10.5371 65.875 10.8105C 66.1133 11.084 66.4297 11.2266 66.8242 11.2383C 67.1758 11.25 67.5 11.1641 67.7969 10.9805C 68.0938 10.793 68.3438 10.5117 68.5469 10.1367C 68.75 9.76172 68.8809 9.3457 68.9395 8.88867C 68.9707 8.5293 68.9766 8.22656 68.957 7.98047C 68.9102 7.50781 68.7676 7.13477 68.5293 6.86133C 68.291 6.58789 67.9746 6.44336 67.5801 6.42773C 67.0332 6.41602 66.5684 6.63086 66.1855 7.07227C 65.8027 7.51367 65.5664 8.0918 65.4766 8.80664L 65.4648 8.94141ZM 76.4922 10.5L 78.5137 5.66016L 79.6094 5.66016L 76.7207 12L 75.8594 12L 75.2031 7.20703L 72.918 12L 72.0566 12L 71.3711 5.66016L 72.3848 5.66016L 72.7715 10.3828L 75.0215 5.66016L 75.877 5.66016L 76.4922 10.5ZM 83.155 11.196C 83.755 10.684 84.291 10.216 84.763 9.792C 85.235 9.36 85.635 8.96 85.963 8.592C 86.299 8.224 86.555 7.88 86.731 7.56C 86.907 7.24 86.995 6.932 86.995 6.636C 86.995 6.228 86.871 5.908 86.623 5.676C 86.375 5.436 86.011 5.316 85.531 5.316C 85.195 5.316 84.887 5.4 84.607 5.568C 84.335 5.736 84.083 5.936 83.851 6.168L 83.095 5.4C 83.463 5.024 83.851 4.736 84.259 4.536C 84.667 4.328 85.151 4.224 85.711 4.224C 86.103 4.224 86.459 4.28 86.779 4.392C 87.099 4.504 87.371 4.664 87.595 4.872C 87.827 5.072 88.003 5.316 88.123 5.604C 88.251 5.892 88.315 6.212 88.315 6.564C 88.315 6.9 88.231 7.244 88.063 7.596C 87.903 7.94 87.683 8.292 87.403 8.652C 87.123 9.004 86.787 9.368 86.395 9.744C 86.011 10.12 85.599 10.508 85.159 10.908C 85.383 10.892 85.619 10.876 85.867 10.86C 86.115 10.836 86.343 10.824 86.551 10.824L 88.711 10.824L 88.711 12L 83.155 12L 83.155 11.196ZM 89.5176 13.7051L 88.9082 13.2656C 89.3613 12.707 89.6426 12.1523 89.752 11.6016L 89.9043 10.7168L 90.9414 10.7168L 90.8184 11.5078C 90.6777 12.3984 90.2441 13.1309 89.5176 13.7051ZM 97.7148 11.2383C 98.0938 11.2461 98.4355 11.1367 98.7402 10.9102C 99.0449 10.6797 99.2441 10.3789 99.3379 10.0078L 100.34 10.002C 100.281 10.4004 100.121 10.7637 99.8594 11.0918C 99.6016 11.4199 99.2754 11.6758 98.8809 11.8594C 98.4863 12.043 98.082 12.1289 97.668 12.1172C 97.1406 12.1094 96.6934 11.9727 96.3262 11.707C 95.9629 11.4375 95.6953 11.0645 95.5234 10.5879C 95.3516 10.1074 95.293 9.56836 95.3477 8.9707L 95.377 8.67773C 95.4512 8.06836 95.6289 7.52344 95.9102 7.04297C 96.1914 6.5625 96.5586 6.18945 97.0117 5.92383C 97.4648 5.6543 97.9648 5.52734 98.5117 5.54297C 99.1758 5.55859 99.707 5.78125 100.105 6.21094C 100.504 6.64062 100.703 7.18555 100.703 7.8457L 99.7129 7.83984C 99.7051 7.42578 99.5898 7.0918 99.3672 6.83789C 99.1445 6.58008 98.8438 6.44336 98.4648 6.42773C 97.9141 6.41602 97.4551 6.62109 97.0879 7.04297C 96.7246 7.46484 96.498 8.05469 96.4082 8.8125L 96.3906 8.96484C 96.3672 9.21484 96.3633 9.47266 96.3789 9.73828C 96.4062 10.1953 96.5352 10.5566 96.7656 10.8223C 96.9961 11.0879 97.3125 11.2266 97.7148 11.2383ZM 104.711 5.54297C 105.242 5.55078 105.697 5.69531 106.076 5.97656C 106.455 6.25781 106.734 6.64648 106.914 7.14258C 107.098 7.63477 107.16 8.17383 107.102 8.75977L 107.09 8.88867C 107.016 9.50586 106.832 10.0645 106.539 10.5645C 106.246 11.0605 105.867 11.4473 105.402 11.7246C 104.938 12.002 104.428 12.1328 103.873 12.1172C 103.346 12.1094 102.891 11.9648 102.508 11.6836C 102.129 11.4023 101.852 11.0195 101.676 10.5352C 101.5 10.0508 101.438 9.51758 101.488 8.93555C 101.547 8.2793 101.725 7.68945 102.021 7.16602C 102.318 6.64258 102.699 6.23828 103.164 5.95312C 103.633 5.66406 104.148 5.52734 104.711 5.54297ZM 102.555 8.94141C 102.527 9.1875 102.527 9.44336 102.555 9.70898C 102.594 10.1699 102.73 10.5371 102.965 10.8105C 103.203 11.084 103.52 11.2266 103.914 11.2383C 104.266 11.25 104.59 11.1641 104.887 10.9805C 105.184 10.793 105.434 10.5117 105.637 10.1367C 105.84 9.76172 105.971 9.3457 106.029 8.88867C 106.061 8.5293 106.066 8.22656 106.047 7.98047C 106 7.50781 105.857 7.13477 105.619 6.86133C 105.381 6.58789 105.064 6.44336 104.67 6.42773C 104.123 6.41602 103.658 6.63086 103.275 7.07227C 102.893 7.51367 102.656 8.0918 102.566 8.80664L 102.555 8.94141ZM 109.041 12L 107.986 12L 109.545 3L 110.605 3L 109.041 12ZM 114.801 11.373C 114.305 11.8848 113.674 12.1328 112.908 12.1172C 112.303 12.1016 111.854 11.8848 111.561 11.4668C 111.271 11.0488 111.164 10.4785 111.238 9.75586L 111.918 5.66016L 112.979 5.66016L 112.293 9.77344C 112.273 9.94531 112.27 10.1133 112.281 10.2773C 112.301 10.5586 112.385 10.7793 112.533 10.9395C 112.682 11.0996 112.889 11.1855 113.154 11.1973C 113.912 11.2207 114.498 10.9141 114.912 10.2773L 115.709 5.66016L 116.77 5.66016L 115.668 12L 114.666 12L 114.801 11.373ZM 119.348 5.6543L 119.213 6.36328C 119.744 5.80078 120.387 5.52734 121.141 5.54297C 121.543 5.55078 121.883 5.64258 122.16 5.81836C 122.441 5.99414 122.635 6.24219 122.74 6.5625C 123.334 5.86719 124.035 5.52734 124.844 5.54297C 125.477 5.55859 125.943 5.77148 126.244 6.18164C 126.545 6.5918 126.656 7.14258 126.578 7.83398L 125.881 12L 124.826 12L 125.518 7.82227C 125.541 7.61914 125.541 7.43359 125.518 7.26562C 125.443 6.73438 125.096 6.46289 124.475 6.45117C 124.088 6.44336 123.736 6.56445 123.42 6.81445C 123.107 7.06055 122.906 7.38477 122.816 7.78711L 122.096 12L 121.029 12L 121.732 7.82812C 121.783 7.39453 121.717 7.06055 121.533 6.82617C 121.354 6.5918 121.072 6.4707 120.689 6.46289C 120.029 6.44727 119.504 6.74805 119.113 7.36523L 118.311 12L 117.25 12L 118.352 5.66016L 119.348 5.6543ZM 129.625 5.6543L 129.473 6.45703C 130.043 5.83203 130.691 5.52734 131.418 5.54297C 132.016 5.55859 132.457 5.76562 132.742 6.16406C 133.027 6.5625 133.133 7.12305 133.059 7.8457L 132.367 12L 131.307 12L 132.004 7.82812C 132.027 7.63672 132.029 7.45898 132.01 7.29492C 131.943 6.74805 131.621 6.46875 131.043 6.45703C 130.406 6.44531 129.848 6.78516 129.367 7.47656L 128.582 12L 127.521 12L 128.623 5.66016L 129.625 5.6543ZM 140.362 12.144C 139.49 12.144 138.798 11.8 138.286 11.112C 137.782 10.424 137.53 9.436 137.53 8.148C 137.53 6.852 137.782 5.876 138.286 5.22C 138.798 4.556 139.49 4.224 140.362 4.224C 141.234 4.224 141.922 4.556 142.426 5.22C 142.938 5.876 143.194 6.852 143.194 8.148C 143.194 9.436 142.938 10.424 142.426 11.112C 141.922 11.8 141.234 12.144 140.362 12.144ZM 140.362 5.304C 140.13 5.304 139.918 5.356 139.726 5.46C 139.534 5.556 139.366 5.716 139.222 5.94C 139.086 6.164 138.978 6.46 138.898 6.828C 138.818 7.188 138.778 7.628 138.778 8.148C 138.778 8.668 138.818 9.116 138.898 9.492C 138.978 9.86 139.086 10.16 139.222 10.392C 139.366 10.624 139.534 10.796 139.726 10.908C 139.918 11.012 140.13 11.064 140.362 11.064C 140.586 11.064 140.794 11.012 140.986 10.908C 141.186 10.796 141.354 10.624 141.49 10.392C 141.634 10.16 141.746 9.86 141.826 9.492C 141.906 9.116 141.946 8.668 141.946 8.148C 141.946 7.628 141.906 7.188 141.826 6.828C 141.746 6.46 141.634 6.164 141.49 5.94C 141.354 5.716 141.186 5.556 140.986 5.46C 140.794 5.356 140.586 5.304 140.362 5.304ZM 140.362 8.952C 140.13 8.952 139.934 8.876 139.774 8.724C 139.614 8.572 139.534 8.364 139.534 8.1C 139.534 7.836 139.614 7.628 139.774 7.476C 139.934 7.324 140.13 7.248 140.362 7.248C 140.594 7.248 140.79 7.324 140.95 7.476C 141.11 7.628 141.19 7.836 141.19 8.1C 141.19 8.364 141.11 8.572 140.95 8.724C 140.79 8.876 140.594 8.952 140.362 8.952Z"/>
<path id="path11_fill" d="M 33.5664 12L 32.5117 12L 34.0703 3L 35.1309 3L 33.5664 12ZM 38.8223 5.54297C 39.3535 5.55078 39.8086 5.69531 40.1875 5.97656C 40.5664 6.25781 40.8457 6.64648 41.0254 7.14258C 41.209 7.63477 41.2715 8.17383 41.2129 8.75977L 41.2012 8.88867C 41.127 9.50586 40.9434 10.0645 40.6504 10.5645C 40.3574 11.0605 39.9785 11.4473 39.5137 11.7246C 39.0488 12.002 38.5391 12.1328 37.9844 12.1172C 37.457 12.1094 37.002 11.9648 36.6191 11.6836C 36.2402 11.4023 35.9629 11.0195 35.7871 10.5352C 35.6113 10.0508 35.5488 9.51758 35.5996 8.93555C 35.6582 8.2793 35.8359 7.68945 36.1328 7.16602C 36.4297 6.64258 36.8105 6.23828 37.2754 5.95312C 37.7441 5.66406 38.2598 5.52734 38.8223 5.54297ZM 36.666 8.94141C 36.6387 9.1875 36.6387 9.44336 36.666 9.70898C 36.7051 10.1699 36.8418 10.5371 37.0762 10.8105C 37.3145 11.084 37.6309 11.2266 38.0254 11.2383C 38.377 11.25 38.7012 11.1641 38.998 10.9805C 39.2949 10.793 39.5449 10.5117 39.748 10.1367C 39.9512 9.76172 40.082 9.3457 40.1406 8.88867C 40.1719 8.5293 40.1777 8.22656 40.1582 7.98047C 40.1113 7.50781 39.9688 7.13477 39.7305 6.86133C 39.4922 6.58789 39.1758 6.44336 38.7812 6.42773C 38.2344 6.41602 37.7695 6.63086 37.3867 7.07227C 37.0039 7.51367 36.7676 8.0918 36.6777 8.80664L 36.666 8.94141ZM 44.6816 11.2383C 45.0605 11.2461 45.4023 11.1367 45.707 10.9102C 46.0117 10.6797 46.2109 10.3789 46.3047 10.0078L 47.3066 10.002C 47.248 10.4004 47.0879 10.7637 46.8262 11.0918C 46.5684 11.4199 46.2422 11.6758 45.8477 11.8594C 45.4531 12.043 45.0488 12.1289 44.6348 12.1172C 44.1074 12.1094 43.6602 11.9727 43.293 11.707C 42.9297 11.4375 42.6621 11.0645 42.4902 10.5879C 42.3184 10.1074 42.2598 9.56836 42.3145 8.9707L 42.3438 8.67773C 42.418 8.06836 42.5957 7.52344 42.877 7.04297C 43.1582 6.5625 43.5254 6.18945 43.9785 5.92383C 44.4316 5.6543 44.9316 5.52734 45.4785 5.54297C 46.1426 5.55859 46.6738 5.78125 47.0723 6.21094C 47.4707 6.64062 47.6699 7.18555 47.6699 7.8457L 46.6797 7.83984C 46.6719 7.42578 46.5566 7.0918 46.334 6.83789C 46.1113 6.58008 45.8105 6.44336 45.4316 6.42773C 44.8809 6.41602 44.4219 6.62109 44.0547 7.04297C 43.6914 7.46484 43.4648 8.05469 43.375 8.8125L 43.3574 8.96484C 43.334 9.21484 43.3301 9.47266 43.3457 9.73828C 43.373 10.1953 43.502 10.5566 43.7324 10.8223C 43.9629 11.0879 44.2793 11.2266 44.6816 11.2383ZM 52.0352 12C 52.0078 11.8867 51.9941 11.7754 51.9941 11.666L 52.0117 11.332C 51.4297 11.8711 50.8125 12.1328 50.1602 12.1172C 49.6016 12.1094 49.1465 11.9336 48.7949 11.5898C 48.4473 11.2422 48.2891 10.8086 48.3203 10.2891C 48.3594 9.61719 48.6523 9.09375 49.1992 8.71875C 49.75 8.33984 50.4727 8.15039 51.3672 8.15039L 52.4746 8.15625L 52.5449 7.65234C 52.584 7.27344 52.5098 6.97461 52.3223 6.75586C 52.1387 6.5332 51.8613 6.41797 51.4902 6.41016C 51.127 6.40234 50.8047 6.49219 50.5234 6.67969C 50.2461 6.86328 50.0762 7.10742 50.0137 7.41211L 48.9473 7.41797C 48.9824 7.04688 49.127 6.71875 49.3809 6.43359C 49.6348 6.14453 49.9609 5.92188 50.3594 5.76562C 50.7578 5.60547 51.1699 5.5293 51.5957 5.53711C 52.2559 5.55273 52.7695 5.75391 53.1367 6.14062C 53.5039 6.52344 53.6582 7.0332 53.5996 7.66992L 53.084 10.8105L 53.0547 11.2617C 53.0469 11.4766 53.0703 11.6895 53.125 11.9004L 53.1133 12L 52.0352 12ZM 50.3711 11.1797C 50.7109 11.1875 51.0312 11.1074 51.332 10.9395C 51.6367 10.7676 51.8984 10.5312 52.1172 10.2305L 52.3457 8.92383L 51.543 8.91797C 50.875 8.91797 50.3633 9.02344 50.0078 9.23438C 49.6523 9.44531 49.4512 9.74414 49.4043 10.1309C 49.3691 10.4277 49.4375 10.6758 49.6094 10.875C 49.7852 11.0703 50.0391 11.1719 50.3711 11.1797ZM 57.3555 4.125L 57.0859 5.66016L 58.2402 5.66016L 58.0938 6.49805L 56.9453 6.49805L 56.2832 10.4414C 56.2715 10.543 56.2695 10.6367 56.2773 10.7227C 56.3047 11.0273 56.4707 11.1797 56.7754 11.1797C 56.9043 11.1797 57.0762 11.1602 57.291 11.1211L 57.209 12.0059C 56.9551 12.0762 56.6973 12.1113 56.4355 12.1113C 56.0137 12.1035 55.6973 11.9492 55.4863 11.6484C 55.2754 11.3438 55.1934 10.9355 55.2402 10.4238L 55.8848 6.49805L 54.7656 6.49805L 54.9121 5.66016L 56.0312 5.66016L 56.3008 4.125L 57.3555 4.125ZM 61.1641 12.1172C 60.375 12.1016 59.7578 11.8105 59.3125 11.2441C 58.8672 10.6777 58.6797 9.95312 58.75 9.07031L 58.7793 8.81836C 58.8457 8.18945 59.0312 7.61523 59.3359 7.0957C 59.6445 6.57617 60.0195 6.18555 60.4609 5.92383C 60.9023 5.6582 61.3789 5.53125 61.8906 5.54297C 62.543 5.55859 63.0547 5.77539 63.4258 6.19336C 63.7969 6.61133 64 7.17773 64.0352 7.89258C 64.0469 8.14648 64.0391 8.40039 64.0117 8.6543L 63.9473 9.14062L 59.8047 9.14062C 59.7344 9.71484 59.8281 10.2031 60.0859 10.6055C 60.3477 11.0078 60.7363 11.2168 61.252 11.2324C 61.877 11.248 62.4551 10.9668 62.9863 10.3887L 63.5957 10.9043C 63.3301 11.2871 62.9863 11.5879 62.5645 11.8066C 62.1465 12.0215 61.6797 12.125 61.1641 12.1172ZM 61.8379 6.42773C 61.4004 6.41602 61.0176 6.56445 60.6895 6.87305C 60.3652 7.18164 60.1074 7.64062 59.916 8.25L 62.998 8.25586L 63.0215 8.16211C 63.084 7.66992 63.0039 7.26172 62.7812 6.9375C 62.5625 6.60938 62.248 6.43945 61.8379 6.42773ZM 64.9492 8.81836C 65.0273 8.17383 65.2051 7.5918 65.4824 7.07227C 65.7598 6.55273 66.1016 6.16406 66.5078 5.90625C 66.9141 5.64844 67.3613 5.52539 67.8496 5.53711C 68.5566 5.55273 69.0996 5.81055 69.4785 6.31055L 70.0879 3L 71.1484 3L 69.5898 12L 68.623 12L 68.7344 11.3203C 68.2344 11.8672 67.6172 12.1328 66.8828 12.1172C 66.2969 12.1016 65.8301 11.873 65.4824 11.4316C 65.1348 10.9863 64.9473 10.3906 64.9199 9.64453C 64.9082 9.41406 64.918 9.13867 64.9492 8.81836ZM 65.9688 9.42773C 65.957 9.98633 66.0566 10.4199 66.2676 10.7285C 66.4785 11.0371 66.7871 11.1953 67.1934 11.2031C 67.8066 11.2305 68.3516 10.9219 68.8281 10.2773L 69.332 7.34766C 69.0977 6.76953 68.6719 6.47266 68.0547 6.45703C 67.6367 6.44531 67.2676 6.57227 66.9473 6.83789C 66.6309 7.09961 66.3887 7.46875 66.2207 7.94531C 66.0566 8.41797 65.9727 8.91211 65.9688 9.42773ZM 78.0859 12C 78.0586 11.8867 78.0449 11.7754 78.0449 11.666L 78.0625 11.332C 77.4805 11.8711 76.8633 12.1328 76.2109 12.1172C 75.6523 12.1094 75.1973 11.9336 74.8457 11.5898C 74.498 11.2422 74.3398 10.8086 74.3711 10.2891C 74.4102 9.61719 74.7031 9.09375 75.25 8.71875C 75.8008 8.33984 76.5234 8.15039 77.418 8.15039L 78.5254 8.15625L 78.5957 7.65234C 78.6348 7.27344 78.5605 6.97461 78.373 6.75586C 78.1895 6.5332 77.9121 6.41797 77.541 6.41016C 77.1777 6.40234 76.8555 6.49219 76.5742 6.67969C 76.2969 6.86328 76.127 7.10742 76.0645 7.41211L 74.998 7.41797C 75.0332 7.04688 75.1777 6.71875 75.4316 6.43359C 75.6855 6.14453 76.0117 5.92188 76.4102 5.76562C 76.8086 5.60547 77.2207 5.5293 77.6465 5.53711C 78.3066 5.55273 78.8203 5.75391 79.1875 6.14062C 79.5547 6.52344 79.709 7.0332 79.6504 7.66992L 79.1348 10.8105L 79.1055 11.2617C 79.0977 11.4766 79.1211 11.6895 79.1758 11.9004L 79.1641 12L 78.0859 12ZM 76.4219 11.1797C 76.7617 11.1875 77.082 11.1074 77.3828 10.9395C 77.6875 10.7676 77.9492 10.5312 78.168 10.2305L 78.3965 8.92383L 77.5938 8.91797C 76.9258 8.91797 76.4141 9.02344 76.0586 9.23438C 75.7031 9.44531 75.502 9.74414 75.4551 10.1309C 75.4199 10.4277 75.4883 10.6758 75.6602 10.875C 75.8359 11.0703 76.0898 11.1719 76.4219 11.1797ZM 83.4062 4.125L 83.1367 5.66016L 84.291 5.66016L 84.1445 6.49805L 82.9961 6.49805L 82.334 10.4414C 82.3223 10.543 82.3203 10.6367 82.3281 10.7227C 82.3555 11.0273 82.5215 11.1797 82.8262 11.1797C 82.9551 11.1797 83.127 11.1602 83.3418 11.1211L 83.2598 12.0059C 83.0059 12.0762 82.748 12.1113 82.4863 12.1113C 82.0645 12.1035 81.748 11.9492 81.5371 11.6484C 81.3262 11.3438 81.2441 10.9355 81.291 10.4238L 81.9355 6.49805L 80.8164 6.49805L 80.9629 5.66016L 82.082 5.66016L 82.3516 4.125L 83.4062 4.125ZM 91.3574 6.62695L 90.8594 6.57422C 90.1797 6.57422 89.6445 6.88086 89.2539 7.49414L 88.4746 12L 87.4141 12L 88.5156 5.66016L 89.541 5.6543L 89.3828 6.39258C 89.832 5.80273 90.3613 5.51562 90.9707 5.53125C 91.0996 5.53125 91.2676 5.56055 91.4746 5.61914L 91.3574 6.62695ZM 94.8145 5.54297C 95.3457 5.55078 95.8008 5.69531 96.1797 5.97656C 96.5586 6.25781 96.8379 6.64648 97.0176 7.14258C 97.2012 7.63477 97.2637 8.17383 97.2051 8.75977L 97.1934 8.88867C 97.1191 9.50586 96.9355 10.0645 96.6426 10.5645C 96.3496 11.0605 95.9707 11.4473 95.5059 11.7246C 95.041 12.002 94.5312 12.1328 93.9766 12.1172C 93.4492 12.1094 92.9941 11.9648 92.6113 11.6836C 92.2324 11.4023 91.9551 11.0195 91.7793 10.5352C 91.6035 10.0508 91.541 9.51758 91.5918 8.93555C 91.6504 8.2793 91.8281 7.68945 92.125 7.16602C 92.4219 6.64258 92.8027 6.23828 93.2676 5.95312C 93.7363 5.66406 94.252 5.52734 94.8145 5.54297ZM 92.6582 8.94141C 92.6309 9.1875 92.6309 9.44336 92.6582 9.70898C 92.6973 10.1699 92.834 10.5371 93.0684 10.8105C 93.3066 11.084 93.623 11.2266 94.0176 11.2383C 94.3691 11.25 94.6934 11.1641 94.9902 10.9805C 95.2871 10.793 95.5371 10.5117 95.7402 10.1367C 95.9434 9.76172 96.0742 9.3457 96.1328 8.88867C 96.1641 8.5293 96.1699 8.22656 96.1504 7.98047C 96.1035 7.50781 95.9609 7.13477 95.7227 6.86133C 95.4844 6.58789 95.168 6.44336 94.7734 6.42773C 94.2266 6.41602 93.7617 6.63086 93.3789 7.07227C 92.9961 7.51367 92.7598 8.0918 92.6699 8.80664L 92.6582 8.94141ZM 103.686 10.5L 105.707 5.66016L 106.803 5.66016L 103.914 12L 103.053 12L 102.396 7.20703L 100.111 12L 99.25 12L 98.5645 5.66016L 99.5781 5.66016L 99.9648 10.3828L 102.215 5.66016L 103.07 5.66016L 103.686 10.5ZM 115.964 10.872L 115.964 12L 110.648 12L 110.648 10.872L 112.712 10.872L 112.712 5.856L 111.116 5.856L 111.116 4.992C 111.548 4.92 111.916 4.836 112.22 4.74C 112.532 4.636 112.82 4.512 113.084 4.368L 114.092 4.368L 114.092 10.872L 115.964 10.872Z"/>
</defs>
</svg>
