<svg width="1120" height="330" viewBox="0 0 1120 330" fill="none" xmlns="http://www.w3.org/2000/svg">
<rect width="560" height="165" transform="scale(2)" fill="white"/>
<path d="M134 6H984V258H134V6Z" fill="#F1F4F8"/>
<path d="M151.316 28.931C151.316 27.7923 151.484 26.775 151.82 25.879C152.156 24.983 152.595 24.227 153.136 23.611C153.696 22.9763 154.331 22.491 155.04 22.155C155.749 21.819 156.487 21.651 157.252 21.651C158.055 21.651 158.727 21.791 159.268 22.071C159.809 22.3323 160.323 22.687 160.808 23.135L160.668 20.979V16.247H164.784V35.875H161.424L161.116 34.447H161.032C160.509 34.951 159.912 35.371 159.24 35.707C158.568 36.043 157.877 36.211 157.168 36.211C156.291 36.211 155.488 36.043 154.76 35.707C154.051 35.371 153.435 34.895 152.912 34.279C152.408 33.6443 152.016 32.879 151.736 31.983C151.456 31.087 151.316 30.0697 151.316 28.931ZM155.544 28.875C155.544 30.2563 155.777 31.2643 156.244 31.899C156.711 32.5337 157.373 32.851 158.232 32.851C158.699 32.851 159.128 32.7577 159.52 32.571C159.912 32.3657 160.295 32.0297 160.668 31.563V25.935C160.295 25.599 159.912 25.3657 159.52 25.235C159.147 25.0857 158.755 25.011 158.344 25.011C157.579 25.011 156.916 25.3283 156.356 25.963C155.815 26.5977 155.544 27.5683 155.544 28.875ZM168.329 28.931C168.329 27.7923 168.525 26.775 168.917 25.879C169.328 24.983 169.869 24.227 170.541 23.611C171.213 22.9763 171.978 22.491 172.837 22.155C173.714 21.819 174.62 21.651 175.553 21.651C176.617 21.651 177.56 21.819 178.381 22.155C179.202 22.491 179.884 22.9577 180.425 23.555C180.966 24.1523 181.377 24.8617 181.657 25.683C181.937 26.4857 182.077 27.363 182.077 28.315C182.077 28.6883 182.058 29.043 182.021 29.379C181.984 29.715 181.946 29.967 181.909 30.135H172.557C172.706 31.1803 173.154 31.9363 173.901 32.403C174.666 32.851 175.562 33.075 176.589 33.075C177.224 33.075 177.821 33.0003 178.381 32.851C178.96 32.683 179.557 32.4403 180.173 32.123L181.517 34.587C180.733 35.091 179.856 35.4923 178.885 35.791C177.914 36.071 176.962 36.211 176.029 36.211C174.946 36.211 173.938 36.0523 173.005 35.735C172.072 35.399 171.26 34.923 170.569 34.307C169.878 33.6723 169.328 32.907 168.917 32.011C168.525 31.115 168.329 30.0883 168.329 28.931ZM178.353 27.419C178.353 26.635 178.138 26.0003 177.709 25.515C177.28 25.0297 176.589 24.787 175.637 24.787C174.89 24.787 174.228 25.0017 173.649 25.431C173.07 25.8603 172.688 26.523 172.501 27.419H178.353ZM199.174 19.691C198.259 19.3363 197.289 19.159 196.262 19.159C195.366 19.159 194.703 19.355 194.274 19.747C193.863 20.139 193.658 20.755 193.658 21.595V21.987H198.446V25.207H193.658V35.875H189.542V25.207H185.874V22.155L189.542 21.987V21.623C189.542 20.8203 189.663 20.0737 189.906 19.383C190.149 18.6923 190.522 18.095 191.026 17.591C191.53 17.0683 192.174 16.6577 192.958 16.359C193.742 16.0603 194.675 15.911 195.758 15.911C196.561 15.911 197.307 15.9857 197.998 16.135C198.707 16.2843 199.361 16.4617 199.958 16.667L199.174 19.691ZM220.404 57.987H223.764L224.1 61.011H224.184C224.875 59.8723 225.706 59.0323 226.676 58.491C227.647 57.931 228.692 57.651 229.812 57.651C230.428 57.651 230.923 57.6977 231.296 57.791C231.688 57.8843 232.09 58.0243 232.5 58.211L231.66 61.655C231.231 61.5243 230.839 61.431 230.484 61.375C230.148 61.3003 229.719 61.263 229.196 61.263C228.338 61.263 227.488 61.515 226.648 62.019C225.827 62.523 225.118 63.4003 224.52 64.651V71.875H220.404V57.987ZM235.485 64.931C235.485 63.7923 235.681 62.775 236.073 61.879C236.484 60.983 237.025 60.227 237.697 59.611C238.369 58.9763 239.135 58.491 239.993 58.155C240.871 57.819 241.776 57.651 242.709 57.651C243.773 57.651 244.716 57.819 245.537 58.155C246.359 58.491 247.04 58.9577 247.581 59.555C248.123 60.1523 248.533 60.8617 248.813 61.683C249.093 62.4857 249.233 63.363 249.233 64.315C249.233 64.6883 249.215 65.043 249.177 65.379C249.14 65.715 249.103 65.967 249.065 66.135H239.713C239.863 67.1803 240.311 67.9363 241.057 68.403C241.823 68.851 242.719 69.075 243.745 69.075C244.38 69.075 244.977 69.0003 245.537 68.851C246.116 68.683 246.713 68.4403 247.329 68.123L248.673 70.587C247.889 71.091 247.012 71.4923 246.041 71.791C245.071 72.071 244.119 72.211 243.185 72.211C242.103 72.211 241.095 72.0523 240.161 71.735C239.228 71.399 238.416 70.923 237.725 70.307C237.035 69.6723 236.484 68.907 236.073 68.011C235.681 67.115 235.485 66.0883 235.485 64.931ZM245.509 63.419C245.509 62.635 245.295 62.0003 244.865 61.515C244.436 61.0297 243.745 60.787 242.793 60.787C242.047 60.787 241.384 61.0017 240.805 61.431C240.227 61.8603 239.844 62.523 239.657 63.419H245.509ZM255.606 61.207H252.106V58.155L255.802 57.987L256.334 54.291H259.722V57.987H265.602V61.207H259.722V66.079C259.722 67.143 259.956 67.899 260.422 68.347C260.889 68.7763 261.626 68.991 262.634 68.991C263.176 68.991 263.67 68.9443 264.118 68.851C264.566 68.7577 264.996 68.6363 265.406 68.487L266.134 71.455C265.518 71.6417 264.828 71.8097 264.062 71.959C263.316 72.127 262.494 72.211 261.598 72.211C260.497 72.211 259.564 72.0617 258.798 71.763C258.033 71.4643 257.408 71.0537 256.922 70.531C256.456 69.9897 256.12 69.3457 255.914 68.599C255.709 67.8523 255.606 67.0217 255.606 66.107V61.207ZM282.223 71.875H278.863L278.555 69.887H278.443C277.827 70.5963 277.146 71.1657 276.399 71.595C275.653 72.0057 274.775 72.211 273.767 72.211C272.181 72.211 271.033 71.707 270.323 70.699C269.614 69.691 269.259 68.3097 269.259 66.555V57.987H273.375V66.023C273.375 66.9563 273.515 67.6377 273.795 68.067C274.075 68.4963 274.607 68.711 275.391 68.711C275.914 68.711 276.371 68.599 276.763 68.375C277.174 68.151 277.622 67.731 278.107 67.115V57.987H282.223V71.875ZM287.561 57.987H290.921L291.257 61.011H291.341C292.031 59.8723 292.862 59.0323 293.833 58.491C294.803 57.931 295.849 57.651 296.969 57.651C297.585 57.651 298.079 57.6977 298.452 57.791C298.845 57.8843 299.246 58.0243 299.657 58.211L298.817 61.655C298.387 61.5243 297.995 61.431 297.641 61.375C297.305 61.3003 296.875 61.263 296.353 61.263C295.494 61.263 294.645 61.515 293.805 62.019C292.983 62.523 292.274 63.4003 291.677 64.651V71.875H287.561V57.987ZM303.118 57.987H306.478L306.786 59.835H306.898C307.495 59.2377 308.176 58.7243 308.942 58.295C309.726 57.8657 310.64 57.651 311.686 57.651C313.254 57.651 314.402 58.155 315.13 59.163C315.858 60.171 316.222 61.5523 316.222 63.307V71.875H312.106V63.839C312.106 62.9057 311.956 62.2243 311.658 61.795C311.359 61.3657 310.827 61.151 310.062 61.151C309.502 61.151 309.007 61.2723 308.578 61.515C308.167 61.7577 307.719 62.1217 307.234 62.607V71.875H303.118V57.987ZM151.316 134.931C151.316 133.792 151.484 132.775 151.82 131.879C152.156 130.983 152.595 130.227 153.136 129.611C153.696 128.976 154.331 128.491 155.04 128.155C155.749 127.819 156.487 127.651 157.252 127.651C158.055 127.651 158.727 127.791 159.268 128.071C159.809 128.332 160.323 128.687 160.808 129.135L160.668 126.979V122.247H164.784V141.875H161.424L161.116 140.447H161.032C160.509 140.951 159.912 141.371 159.24 141.707C158.568 142.043 157.877 142.211 157.168 142.211C156.291 142.211 155.488 142.043 154.76 141.707C154.051 141.371 153.435 140.895 152.912 140.279C152.408 139.644 152.016 138.879 151.736 137.983C151.456 137.087 151.316 136.07 151.316 134.931ZM155.544 134.875C155.544 136.256 155.777 137.264 156.244 137.899C156.711 138.534 157.373 138.851 158.232 138.851C158.699 138.851 159.128 138.758 159.52 138.571C159.912 138.366 160.295 138.03 160.668 137.563V131.935C160.295 131.599 159.912 131.366 159.52 131.235C159.147 131.086 158.755 131.011 158.344 131.011C157.579 131.011 156.916 131.328 156.356 131.963C155.815 132.598 155.544 133.568 155.544 134.875ZM168.329 134.931C168.329 133.792 168.525 132.775 168.917 131.879C169.328 130.983 169.869 130.227 170.541 129.611C171.213 128.976 171.978 128.491 172.837 128.155C173.714 127.819 174.62 127.651 175.553 127.651C176.617 127.651 177.56 127.819 178.381 128.155C179.202 128.491 179.884 128.958 180.425 129.555C180.966 130.152 181.377 130.862 181.657 131.683C181.937 132.486 182.077 133.363 182.077 134.315C182.077 134.688 182.058 135.043 182.021 135.379C181.984 135.715 181.946 135.967 181.909 136.135H172.557C172.706 137.18 173.154 137.936 173.901 138.403C174.666 138.851 175.562 139.075 176.589 139.075C177.224 139.075 177.821 139 178.381 138.851C178.96 138.683 179.557 138.44 180.173 138.123L181.517 140.587C180.733 141.091 179.856 141.492 178.885 141.791C177.914 142.071 176.962 142.211 176.029 142.211C174.946 142.211 173.938 142.052 173.005 141.735C172.072 141.399 171.26 140.923 170.569 140.307C169.878 139.672 169.328 138.907 168.917 138.011C168.525 137.115 168.329 136.088 168.329 134.931ZM178.353 133.419C178.353 132.635 178.138 132 177.709 131.515C177.28 131.03 176.589 130.787 175.637 130.787C174.89 130.787 174.228 131.002 173.649 131.431C173.07 131.86 172.688 132.523 172.501 133.419H178.353ZM199.174 125.691C198.259 125.336 197.289 125.159 196.262 125.159C195.366 125.159 194.703 125.355 194.274 125.747C193.863 126.139 193.658 126.755 193.658 127.595V127.987H198.446V131.207H193.658V141.875H189.542V131.207H185.874V128.155L189.542 127.987V127.623C189.542 126.82 189.663 126.074 189.906 125.383C190.149 124.692 190.522 124.095 191.026 123.591C191.53 123.068 192.174 122.658 192.958 122.359C193.742 122.06 194.675 121.911 195.758 121.911C196.561 121.911 197.307 121.986 197.998 122.135C198.707 122.284 199.361 122.462 199.958 122.667L199.174 125.691ZM220.404 161.987H223.764L224.1 165.011H224.184C224.875 163.872 225.706 163.032 226.676 162.491C227.647 161.931 228.692 161.651 229.812 161.651C230.428 161.651 230.923 161.698 231.296 161.791C231.688 161.884 232.09 162.024 232.5 162.211L231.66 165.655C231.231 165.524 230.839 165.431 230.484 165.375C230.148 165.3 229.719 165.263 229.196 165.263C228.338 165.263 227.488 165.515 226.648 166.019C225.827 166.523 225.118 167.4 224.52 168.651V175.875H220.404V161.987ZM235.485 168.931C235.485 167.792 235.681 166.775 236.073 165.879C236.484 164.983 237.025 164.227 237.697 163.611C238.369 162.976 239.135 162.491 239.993 162.155C240.871 161.819 241.776 161.651 242.709 161.651C243.773 161.651 244.716 161.819 245.537 162.155C246.359 162.491 247.04 162.958 247.581 163.555C248.123 164.152 248.533 164.862 248.813 165.683C249.093 166.486 249.233 167.363 249.233 168.315C249.233 168.688 249.215 169.043 249.177 169.379C249.14 169.715 249.103 169.967 249.065 170.135H239.713C239.863 171.18 240.311 171.936 241.057 172.403C241.823 172.851 242.719 173.075 243.745 173.075C244.38 173.075 244.977 173 245.537 172.851C246.116 172.683 246.713 172.44 247.329 172.123L248.673 174.587C247.889 175.091 247.012 175.492 246.041 175.791C245.071 176.071 244.119 176.211 243.185 176.211C242.103 176.211 241.095 176.052 240.161 175.735C239.228 175.399 238.416 174.923 237.725 174.307C237.035 173.672 236.484 172.907 236.073 172.011C235.681 171.115 235.485 170.088 235.485 168.931ZM245.509 167.419C245.509 166.635 245.295 166 244.865 165.515C244.436 165.03 243.745 164.787 242.793 164.787C242.047 164.787 241.384 165.002 240.805 165.431C240.227 165.86 239.844 166.523 239.657 167.419H245.509ZM255.606 165.207H252.106V162.155L255.802 161.987L256.334 158.291H259.722V161.987H265.602V165.207H259.722V170.079C259.722 171.143 259.956 171.899 260.422 172.347C260.889 172.776 261.626 172.991 262.634 172.991C263.176 172.991 263.67 172.944 264.118 172.851C264.566 172.758 264.996 172.636 265.406 172.487L266.134 175.455C265.518 175.642 264.828 175.81 264.062 175.959C263.316 176.127 262.494 176.211 261.598 176.211C260.497 176.211 259.564 176.062 258.798 175.763C258.033 175.464 257.408 175.054 256.922 174.531C256.456 173.99 256.12 173.346 255.914 172.599C255.709 171.852 255.606 171.022 255.606 170.107V165.207ZM282.223 175.875H278.863L278.555 173.887H278.443C277.827 174.596 277.146 175.166 276.399 175.595C275.653 176.006 274.775 176.211 273.767 176.211C272.181 176.211 271.033 175.707 270.323 174.699C269.614 173.691 269.259 172.31 269.259 170.555V161.987H273.375V170.023C273.375 170.956 273.515 171.638 273.795 172.067C274.075 172.496 274.607 172.711 275.391 172.711C275.914 172.711 276.371 172.599 276.763 172.375C277.174 172.151 277.622 171.731 278.107 171.115V161.987H282.223V175.875ZM287.561 161.987H290.921L291.257 165.011H291.341C292.031 163.872 292.862 163.032 293.833 162.491C294.803 161.931 295.849 161.651 296.969 161.651C297.585 161.651 298.079 161.698 298.452 161.791C298.845 161.884 299.246 162.024 299.657 162.211L298.817 165.655C298.387 165.524 297.995 165.431 297.641 165.375C297.305 165.3 296.875 165.263 296.353 165.263C295.494 165.263 294.645 165.515 293.805 166.019C292.983 166.523 292.274 167.4 291.677 168.651V175.875H287.561V161.987ZM303.118 161.987H306.478L306.786 163.835H306.898C307.495 163.238 308.176 162.724 308.942 162.295C309.726 161.866 310.64 161.651 311.686 161.651C313.254 161.651 314.402 162.155 315.13 163.163C315.858 164.171 316.222 165.552 316.222 167.307V175.875H312.106V167.839C312.106 166.906 311.956 166.224 311.658 165.795C311.359 165.366 310.827 165.151 310.062 165.151C309.502 165.151 309.007 165.272 308.578 165.515C308.167 165.758 307.719 166.122 307.234 166.607V175.875H303.118V161.987Z" fill="#0C570A"/>
<path d="M222.7 36.995V41.307H219.452V22.127H222.112L222.364 23.695H222.448C223.046 23.1537 223.727 22.7057 224.492 22.351C225.276 21.9777 226.06 21.791 226.844 21.791C227.74 21.791 228.534 21.959 229.224 22.295C229.934 22.6123 230.522 23.079 230.988 23.695C231.474 24.311 231.838 25.0483 232.08 25.907C232.342 26.7657 232.472 27.727 232.472 28.791C232.472 29.967 232.304 31.0217 231.968 31.955C231.632 32.8697 231.175 33.6443 230.596 34.279C230.036 34.895 229.383 35.371 228.636 35.707C227.908 36.043 227.152 36.211 226.368 36.211C225.734 36.211 225.08 36.071 224.408 35.791C223.755 35.511 223.148 35.1097 222.588 34.587L222.7 36.995ZM222.7 32.291C223.204 32.7577 223.718 33.0843 224.24 33.271C224.782 33.4577 225.267 33.551 225.696 33.551C226.686 33.551 227.507 33.159 228.16 32.375C228.814 31.5723 229.14 30.387 229.14 28.819C229.14 27.4377 228.888 26.3643 228.384 25.599C227.88 24.8337 227.068 24.451 225.948 24.451C225.426 24.451 224.894 24.5817 224.352 24.843C223.811 25.1043 223.26 25.5243 222.7 26.103V32.291ZM235.933 16.107H243.493V31.031C243.493 31.9643 243.727 32.627 244.193 33.019C244.66 33.3923 245.248 33.579 245.957 33.579C246.629 33.579 247.413 33.4017 248.309 33.047L249.065 35.427C248.412 35.651 247.796 35.8377 247.217 35.987C246.657 36.1363 245.976 36.211 245.173 36.211C243.549 36.211 242.327 35.7443 241.505 34.811C240.684 33.8777 240.273 32.5617 240.273 30.863V18.655H235.933V16.107ZM265.154 35.875H262.522L262.27 33.691H262.158C261.505 34.4563 260.786 35.0723 260.002 35.539C259.218 35.987 258.313 36.211 257.286 36.211C255.681 36.211 254.514 35.735 253.786 34.783C253.058 33.8123 252.694 32.431 252.694 30.639V22.127H255.914V30.219C255.914 31.339 256.101 32.1603 256.474 32.683C256.866 33.187 257.538 33.439 258.49 33.439C259.144 33.439 259.722 33.2897 260.226 32.991C260.749 32.6923 261.318 32.1603 261.934 31.395V22.127H265.154V35.875ZM270.771 32.039C271.555 32.5803 272.367 33.0097 273.207 33.327C274.066 33.6257 275.027 33.775 276.091 33.775C277.174 33.775 277.967 33.6257 278.471 33.327C278.975 33.0097 279.227 32.6083 279.227 32.123C279.227 31.6377 278.901 31.2363 278.247 30.919C277.594 30.583 276.567 30.2283 275.167 29.855C274.514 29.687 273.879 29.4817 273.263 29.239C272.647 28.9963 272.106 28.7163 271.639 28.399C271.173 28.0817 270.799 27.7177 270.519 27.307C270.239 26.8963 270.099 26.4297 270.099 25.907C270.099 24.6937 270.622 23.7043 271.667 22.939C272.713 22.1737 274.215 21.791 276.175 21.791C277.295 21.791 278.35 21.9777 279.339 22.351C280.329 22.7243 281.178 23.1443 281.887 23.611L280.403 25.599C279.787 25.1883 279.125 24.8617 278.415 24.619C277.725 24.3577 276.987 24.227 276.203 24.227C275.139 24.227 274.393 24.3763 273.963 24.675C273.534 24.955 273.319 25.3097 273.319 25.739C273.319 25.9817 273.413 26.2057 273.599 26.411C273.805 26.5977 274.075 26.775 274.411 26.943C274.766 27.0923 275.177 27.2417 275.643 27.391C276.11 27.5403 276.623 27.6803 277.183 27.811C277.986 28.0163 278.705 28.2497 279.339 28.511C279.993 28.7537 280.543 29.0337 280.991 29.351C281.458 29.6683 281.813 30.0417 282.055 30.471C282.317 30.9003 282.447 31.395 282.447 31.955C282.447 32.5523 282.307 33.1123 282.027 33.635C281.747 34.139 281.337 34.587 280.795 34.979C280.254 35.3523 279.582 35.651 278.779 35.875C277.977 36.099 277.053 36.211 276.007 36.211C274.719 36.211 273.487 36.0057 272.311 35.595C271.135 35.1843 270.118 34.6803 269.259 34.083L270.771 32.039ZM299.433 37.611V40.131H285.993V37.611H299.433ZM302.586 29.015C302.586 27.8763 302.772 26.859 303.146 25.963C303.538 25.067 304.051 24.311 304.686 23.695C305.32 23.079 306.058 22.6123 306.898 22.295C307.738 21.959 308.606 21.791 309.502 21.791C310.398 21.791 311.266 21.959 312.106 22.295C312.946 22.6123 313.683 23.079 314.318 23.695C314.952 24.311 315.456 25.067 315.83 25.963C316.222 26.859 316.418 27.8763 316.418 29.015C316.418 30.1537 316.222 31.171 315.83 32.067C315.456 32.963 314.952 33.719 314.318 34.335C313.683 34.951 312.946 35.4177 312.106 35.735C311.266 36.0523 310.398 36.211 309.502 36.211C308.606 36.211 307.738 36.0523 306.898 35.735C306.058 35.4177 305.32 34.951 304.686 34.335C304.051 33.719 303.538 32.963 303.146 32.067C302.772 31.171 302.586 30.1537 302.586 29.015ZM305.918 29.015C305.918 30.3963 306.235 31.507 306.87 32.347C307.504 33.1683 308.382 33.579 309.502 33.579C310.622 33.579 311.499 33.1683 312.134 32.347C312.768 31.507 313.086 30.3963 313.086 29.015C313.086 27.615 312.768 26.5043 312.134 25.683C311.499 24.843 310.622 24.423 309.502 24.423C308.382 24.423 307.504 24.843 306.87 25.683C306.235 26.5043 305.918 27.615 305.918 29.015ZM320.187 22.127H322.847L323.099 24.199H323.211C323.864 23.5457 324.583 22.9857 325.367 22.519C326.169 22.0337 327.103 21.791 328.167 21.791C329.753 21.791 330.92 22.2763 331.667 23.247C332.413 24.199 332.787 25.571 332.787 27.363V35.875H329.539V27.783C329.539 26.663 329.343 25.851 328.951 25.347C328.577 24.8243 327.915 24.563 326.963 24.563C326.291 24.563 325.693 24.7217 325.171 25.039C324.648 25.3563 324.069 25.8417 323.435 26.495V35.875H320.187V22.127ZM336.416 29.015C336.416 27.895 336.612 26.887 337.004 25.991C337.414 25.095 337.946 24.339 338.6 23.723C339.253 23.0883 340 22.6123 340.84 22.295C341.698 21.959 342.576 21.791 343.472 21.791C344.498 21.791 345.404 21.959 346.188 22.295C346.99 22.6123 347.662 23.0603 348.204 23.639C348.745 24.199 349.156 24.8803 349.436 25.683C349.716 26.4857 349.856 27.363 349.856 28.315C349.856 28.6323 349.837 28.931 349.8 29.211C349.781 29.491 349.753 29.715 349.716 29.883H339.72C339.832 31.115 340.317 32.067 341.176 32.739C342.034 33.3923 343.089 33.719 344.34 33.719C345.049 33.719 345.712 33.6257 346.328 33.439C346.944 33.2337 347.569 32.9537 348.204 32.599L349.296 34.615C348.549 35.0817 347.718 35.4643 346.804 35.763C345.889 36.0617 344.928 36.211 343.92 36.211C342.874 36.211 341.894 36.0523 340.98 35.735C340.065 35.399 339.272 34.923 338.6 34.307C337.928 33.691 337.396 32.9443 337.004 32.067C336.612 31.171 336.416 30.1537 336.416 29.015ZM346.888 27.699C346.888 26.635 346.608 25.8043 346.048 25.207C345.488 24.591 344.657 24.283 343.556 24.283C342.622 24.283 341.792 24.5723 341.064 25.151C340.336 25.7297 339.878 26.579 339.692 27.699H346.888ZM363.005 40.831C361.119 39.263 359.626 37.415 358.525 35.287C357.442 33.159 356.901 30.7603 356.901 28.091C356.901 25.4217 357.442 23.023 358.525 20.895C359.626 18.767 361.119 16.919 363.005 15.351L364.797 16.835C363.023 18.4403 361.726 20.1483 360.905 21.959C360.083 23.7697 359.673 25.8137 359.673 28.091C359.673 30.3683 360.083 32.4123 360.905 34.223C361.726 36.0337 363.023 37.7417 364.797 39.347L363.005 40.831ZM370.61 22.127H379.794V35.875H376.574V24.675H370.61V22.127ZM377.946 19.719C377.292 19.719 376.742 19.523 376.294 19.131C375.864 18.739 375.65 18.2163 375.65 17.563C375.65 16.9097 375.864 16.387 376.294 15.995C376.742 15.5843 377.292 15.379 377.946 15.379C378.618 15.379 379.168 15.5843 379.598 15.995C380.027 16.387 380.242 16.9097 380.242 17.563C380.242 18.2163 380.027 18.739 379.598 19.131C379.168 19.523 378.618 19.719 377.946 19.719ZM387.343 22.127H390.003L390.255 24.199H390.367C391.02 23.5457 391.739 22.9857 392.523 22.519C393.326 22.0337 394.259 21.791 395.323 21.791C396.91 21.791 398.076 22.2763 398.823 23.247C399.57 24.199 399.943 25.571 399.943 27.363V35.875H396.695V27.783C396.695 26.663 396.499 25.851 396.107 25.347C395.734 24.8243 395.071 24.563 394.119 24.563C393.447 24.563 392.85 24.7217 392.327 25.039C391.804 25.3563 391.226 25.8417 390.591 26.495V35.875H387.343V22.127ZM407.38 36.995V41.307H404.132V22.127H406.792L407.044 23.695H407.128C407.725 23.1537 408.407 22.7057 409.172 22.351C409.956 21.9777 410.74 21.791 411.524 21.791C412.42 21.791 413.213 21.959 413.904 22.295C414.613 22.6123 415.201 23.079 415.668 23.695C416.153 24.311 416.517 25.0483 416.76 25.907C417.021 26.7657 417.152 27.727 417.152 28.791C417.152 29.967 416.984 31.0217 416.648 31.955C416.312 32.8697 415.855 33.6443 415.276 34.279C414.716 34.895 414.063 35.371 413.316 35.707C412.588 36.043 411.832 36.211 411.048 36.211C410.413 36.211 409.76 36.071 409.088 35.791C408.435 35.511 407.828 35.1097 407.268 34.587L407.38 36.995ZM407.38 32.291C407.884 32.7577 408.397 33.0843 408.92 33.271C409.461 33.4577 409.947 33.551 410.376 33.551C411.365 33.551 412.187 33.159 412.84 32.375C413.493 31.5723 413.82 30.387 413.82 28.819C413.82 27.4377 413.568 26.3643 413.064 25.599C412.56 24.8337 411.748 24.451 410.628 24.451C410.105 24.451 409.573 24.5817 409.032 24.843C408.491 25.1043 407.94 25.5243 407.38 26.103V32.291ZM433.045 35.875H430.413L430.161 33.691H430.049C429.396 34.4563 428.677 35.0723 427.893 35.539C427.109 35.987 426.204 36.211 425.177 36.211C423.572 36.211 422.405 35.735 421.677 34.783C420.949 33.8123 420.585 32.431 420.585 30.639V22.127H423.805V30.219C423.805 31.339 423.992 32.1603 424.365 32.683C424.757 33.187 425.429 33.439 426.381 33.439C427.034 33.439 427.613 33.2897 428.117 32.991C428.64 32.6923 429.209 32.1603 429.825 31.395V22.127H433.045V35.875ZM440.734 24.675H437.066V22.267L440.874 22.127L441.294 18.375H443.954V22.127H450.226V24.675H443.954V30.331C443.954 31.4697 444.187 32.3097 444.654 32.851C445.121 33.3737 445.942 33.635 447.118 33.635C447.715 33.635 448.257 33.5883 448.742 33.495C449.227 33.383 449.694 33.243 450.142 33.075L450.758 35.427C450.142 35.6323 449.461 35.8097 448.714 35.959C447.967 36.127 447.174 36.211 446.334 36.211C445.289 36.211 444.411 36.071 443.702 35.791C442.993 35.511 442.414 35.119 441.966 34.615C441.537 34.0923 441.219 33.467 441.014 32.739C440.827 32.011 440.734 31.2083 440.734 30.331V24.675ZM455.675 39.347C457.448 37.7417 458.746 36.0337 459.567 34.223C460.388 32.4123 460.799 30.3683 460.799 28.091C460.799 25.8137 460.388 23.7697 459.567 21.959C458.746 20.1483 457.448 18.4403 455.675 16.835L457.467 15.351C459.352 16.919 460.836 18.767 461.919 20.895C463.02 23.023 463.571 25.4217 463.571 28.091C463.571 30.7603 463.02 33.159 461.919 35.287C460.836 37.415 459.352 39.263 457.467 40.831L455.675 39.347ZM474.62 23.863C474.62 23.0417 474.882 22.3697 475.404 21.847C475.927 21.3057 476.59 21.035 477.392 21.035C478.195 21.035 478.858 21.3057 479.38 21.847C479.903 22.3697 480.164 23.0417 480.164 23.863C480.164 24.6843 479.903 25.3657 479.38 25.907C478.858 26.4297 478.195 26.691 477.392 26.691C476.59 26.691 475.927 26.4297 475.404 25.907C474.882 25.3657 474.62 24.6843 474.62 23.863ZM474.62 33.383C474.62 32.5617 474.882 31.8897 475.404 31.367C475.927 30.8257 476.59 30.555 477.392 30.555C478.195 30.555 478.858 30.8257 479.38 31.367C479.903 31.8897 480.164 32.5617 480.164 33.383C480.164 34.2043 479.903 34.8857 479.38 35.427C478.858 35.9497 478.195 36.211 477.392 36.211C476.59 36.211 475.927 35.9497 475.404 35.427C474.882 34.8857 474.62 34.2043 474.62 33.383ZM337.032 58.127H346.216V71.875H342.996V60.675H337.032V58.127ZM344.368 55.719C343.714 55.719 343.164 55.523 342.716 55.131C342.286 54.739 342.072 54.2163 342.072 53.563C342.072 52.9097 342.286 52.387 342.716 51.995C343.164 51.5843 343.714 51.379 344.368 51.379C345.04 51.379 345.59 51.5843 346.02 51.995C346.449 52.387 346.664 52.9097 346.664 53.563C346.664 54.2163 346.449 54.739 346.02 55.131C345.59 55.523 345.04 55.719 344.368 55.719ZM353.765 58.127H356.425L356.677 60.199H356.789C357.442 59.5457 358.161 58.9857 358.945 58.519C359.747 58.0337 360.681 57.791 361.745 57.791C363.331 57.791 364.498 58.2763 365.245 59.247C365.991 60.199 366.365 61.571 366.365 63.363V71.875H363.117V63.783C363.117 62.663 362.921 61.851 362.529 61.347C362.155 60.8243 361.493 60.563 360.541 60.563C359.869 60.563 359.271 60.7217 358.749 61.039C358.226 61.3563 357.647 61.8417 357.013 62.495V71.875H353.765V58.127ZM373.802 72.995V77.307H370.554V58.127H373.214L373.466 59.695H373.55C374.147 59.1537 374.828 58.7057 375.594 58.351C376.378 57.9777 377.162 57.791 377.946 57.791C378.842 57.791 379.635 57.959 380.326 58.295C381.035 58.6123 381.623 59.079 382.09 59.695C382.575 60.311 382.939 61.0483 383.182 61.907C383.443 62.7657 383.574 63.727 383.574 64.791C383.574 65.967 383.406 67.0217 383.07 67.955C382.734 68.8697 382.276 69.6443 381.698 70.279C381.138 70.895 380.484 71.371 379.738 71.707C379.01 72.043 378.254 72.211 377.47 72.211C376.835 72.211 376.182 72.071 375.51 71.791C374.856 71.511 374.25 71.1097 373.69 70.587L373.802 72.995ZM373.802 68.291C374.306 68.7577 374.819 69.0843 375.342 69.271C375.883 69.4577 376.368 69.551 376.798 69.551C377.787 69.551 378.608 69.159 379.262 68.375C379.915 67.5723 380.242 66.387 380.242 64.819C380.242 63.4377 379.99 62.3643 379.486 61.599C378.982 60.8337 378.17 60.451 377.05 60.451C376.527 60.451 375.995 60.5817 375.454 60.843C374.912 61.1043 374.362 61.5243 373.802 62.103V68.291ZM399.467 71.875H396.835L396.583 69.691H396.471C395.818 70.4563 395.099 71.0723 394.315 71.539C393.531 71.987 392.626 72.211 391.599 72.211C389.994 72.211 388.827 71.735 388.099 70.783C387.371 69.8123 387.007 68.431 387.007 66.639V58.127H390.227V66.219C390.227 67.339 390.414 68.1603 390.787 68.683C391.179 69.187 391.851 69.439 392.803 69.439C393.456 69.439 394.035 69.2897 394.539 68.991C395.062 68.6923 395.631 68.1603 396.247 67.395V58.127H399.467V71.875ZM407.156 60.675H403.488V58.267L407.296 58.127L407.716 54.375H410.376V58.127H416.648V60.675H410.376V66.331C410.376 67.4697 410.609 68.3097 411.076 68.851C411.543 69.3737 412.364 69.635 413.54 69.635C414.137 69.635 414.679 69.5883 415.164 69.495C415.649 69.383 416.116 69.243 416.564 69.075L417.18 71.427C416.564 71.6323 415.883 71.8097 415.136 71.959C414.389 72.127 413.596 72.211 412.756 72.211C411.711 72.211 410.833 72.071 410.124 71.791C409.415 71.511 408.836 71.119 408.388 70.615C407.959 70.0923 407.641 69.467 407.436 68.739C407.249 68.011 407.156 67.2083 407.156 66.331V60.675ZM442.582 63.811H437.598V61.459H442.582V56.167H445.046V61.459H450.03V63.811H445.046V69.103H442.582V63.811ZM483.916 69.243V71.875H471.512V69.243H476.328V57.539H472.604V55.523C473.612 55.355 474.471 55.159 475.18 54.935C475.908 54.6923 476.58 54.403 477.196 54.067H479.548V69.243H483.916ZM220.796 128.127H223.456L223.736 131.235H223.82C224.53 130.115 225.379 129.266 226.368 128.687C227.376 128.09 228.478 127.791 229.672 127.791C230.232 127.791 230.708 127.838 231.1 127.931C231.511 128.006 231.922 128.146 232.332 128.351L231.66 131.067C231.212 130.918 230.811 130.815 230.456 130.759C230.12 130.684 229.691 130.647 229.168 130.647C228.216 130.647 227.302 130.918 226.424 131.459C225.547 132 224.754 132.943 224.044 134.287V141.875H220.796V128.127ZM248.365 141.875H245.733L245.481 139.691H245.369C244.716 140.456 243.997 141.072 243.213 141.539C242.429 141.987 241.524 142.211 240.497 142.211C238.892 142.211 237.725 141.735 236.997 140.783C236.269 139.812 235.905 138.431 235.905 136.639V128.127H239.125V136.219C239.125 137.339 239.312 138.16 239.685 138.683C240.077 139.187 240.749 139.439 241.701 139.439C242.355 139.439 242.933 139.29 243.437 138.991C243.96 138.692 244.529 138.16 245.145 137.395V128.127H248.365V141.875ZM253.03 128.127H255.69L255.942 130.199H256.054C256.708 129.546 257.426 128.986 258.21 128.519C259.013 128.034 259.946 127.791 261.01 127.791C262.597 127.791 263.764 128.276 264.51 129.247C265.257 130.199 265.63 131.571 265.63 133.363V141.875H262.382V133.783C262.382 132.663 262.186 131.851 261.794 131.347C261.421 130.824 260.758 130.563 259.806 130.563C259.134 130.563 258.537 130.722 258.014 131.039C257.492 131.356 256.913 131.842 256.278 132.495V141.875H253.03V128.127ZM282.643 143.611V146.131H269.203V143.611H282.643ZM284.481 128.127H287.673L288.933 135.267C289.045 135.92 289.138 136.574 289.213 137.227C289.306 137.88 289.399 138.543 289.493 139.215H289.605C289.698 138.543 289.801 137.88 289.913 137.227C290.025 136.574 290.155 135.92 290.305 135.267L291.593 129.471H294.001L295.289 135.267C295.438 135.92 295.569 136.574 295.681 137.227C295.811 137.88 295.933 138.543 296.045 139.215H296.157C296.269 138.543 296.362 137.88 296.437 137.227C296.53 136.574 296.623 135.92 296.717 135.267L297.977 128.127H300.945L298.397 141.875H294.617L293.413 136.135C293.301 135.482 293.189 134.828 293.077 134.175C292.983 133.522 292.881 132.84 292.769 132.131H292.657C292.563 132.672 292.47 133.26 292.377 133.895C292.302 134.511 292.19 135.267 292.041 136.163L290.865 141.875H287.141L284.481 128.127ZM303.454 128.127H312.638V141.875H309.418V130.675H303.454V128.127ZM310.79 125.719C310.136 125.719 309.586 125.523 309.138 125.131C308.708 124.739 308.494 124.216 308.494 123.563C308.494 122.91 308.708 122.387 309.138 121.995C309.586 121.584 310.136 121.379 310.79 121.379C311.462 121.379 312.012 121.584 312.442 121.995C312.871 122.387 313.086 122.91 313.086 123.563C313.086 124.216 312.871 124.739 312.442 125.131C312.012 125.523 311.462 125.719 310.79 125.719ZM323.211 130.675H319.543V128.267L323.351 128.127L323.771 124.375H326.431V128.127H332.703V130.675H326.431V136.331C326.431 137.47 326.664 138.31 327.131 138.851C327.597 139.374 328.419 139.635 329.595 139.635C330.192 139.635 330.733 139.588 331.219 139.495C331.704 139.383 332.171 139.243 332.619 139.075L333.235 141.427C332.619 141.632 331.937 141.81 331.191 141.959C330.444 142.127 329.651 142.211 328.811 142.211C327.765 142.211 326.888 142.071 326.179 141.791C325.469 141.511 324.891 141.119 324.443 140.615C324.013 140.092 323.696 139.467 323.491 138.739C323.304 138.011 323.211 137.208 323.211 136.331V130.675ZM336.976 122.107H340.224V127.203L340.028 130.143C340.662 129.508 341.372 128.958 342.156 128.491C342.958 128.024 343.892 127.791 344.956 127.791C346.542 127.791 347.709 128.276 348.456 129.247C349.202 130.199 349.576 131.571 349.576 133.363V141.875H346.328V133.783C346.328 132.663 346.132 131.851 345.74 131.347C345.366 130.824 344.704 130.563 343.752 130.563C343.08 130.563 342.482 130.722 341.96 131.039C341.437 131.356 340.858 131.842 340.224 132.495V141.875H336.976V122.107ZM366.589 143.611V146.131H353.149V143.611H366.589ZM370.246 140.139L378.506 130.675H371.198V128.127H383.042V129.835L374.754 139.299H383.294V141.875H370.246V140.139ZM386.783 135.015C386.783 133.895 386.979 132.887 387.371 131.991C387.782 131.095 388.314 130.339 388.967 129.723C389.62 129.088 390.367 128.612 391.207 128.295C392.066 127.959 392.943 127.791 393.839 127.791C394.866 127.791 395.771 127.959 396.555 128.295C397.358 128.612 398.03 129.06 398.571 129.639C399.112 130.199 399.523 130.88 399.803 131.683C400.083 132.486 400.223 133.363 400.223 134.315C400.223 134.632 400.204 134.931 400.167 135.211C400.148 135.491 400.12 135.715 400.083 135.883H390.087C390.199 137.115 390.684 138.067 391.543 138.739C392.402 139.392 393.456 139.719 394.707 139.719C395.416 139.719 396.079 139.626 396.695 139.439C397.311 139.234 397.936 138.954 398.571 138.599L399.663 140.615C398.916 141.082 398.086 141.464 397.171 141.763C396.256 142.062 395.295 142.211 394.287 142.211C393.242 142.211 392.262 142.052 391.347 141.735C390.432 141.399 389.639 140.923 388.967 140.307C388.295 139.691 387.763 138.944 387.371 138.067C386.979 137.171 386.783 136.154 386.783 135.015ZM397.255 133.699C397.255 132.635 396.975 131.804 396.415 131.207C395.855 130.591 395.024 130.283 393.923 130.283C392.99 130.283 392.159 130.572 391.431 131.151C390.703 131.73 390.246 132.579 390.059 133.699H397.255ZM405.476 128.127H408.136L408.416 131.235H408.5C409.209 130.115 410.059 129.266 411.048 128.687C412.056 128.09 413.157 127.791 414.352 127.791C414.912 127.791 415.388 127.838 415.78 127.931C416.191 128.006 416.601 128.146 417.012 128.351L416.34 131.067C415.892 130.918 415.491 130.815 415.136 130.759C414.8 130.684 414.371 130.647 413.848 130.647C412.896 130.647 411.981 130.918 411.104 131.459C410.227 132 409.433 132.943 408.724 134.287V141.875H405.476V128.127ZM420.109 135.015C420.109 133.876 420.296 132.859 420.669 131.963C421.061 131.067 421.574 130.311 422.209 129.695C422.844 129.079 423.581 128.612 424.421 128.295C425.261 127.959 426.129 127.791 427.025 127.791C427.921 127.791 428.789 127.959 429.629 128.295C430.469 128.612 431.206 129.079 431.841 129.695C432.476 130.311 432.98 131.067 433.353 131.963C433.745 132.859 433.941 133.876 433.941 135.015C433.941 136.154 433.745 137.171 433.353 138.067C432.98 138.963 432.476 139.719 431.841 140.335C431.206 140.951 430.469 141.418 429.629 141.735C428.789 142.052 427.921 142.211 427.025 142.211C426.129 142.211 425.261 142.052 424.421 141.735C423.581 141.418 422.844 140.951 422.209 140.335C421.574 139.719 421.061 138.963 420.669 138.067C420.296 137.171 420.109 136.154 420.109 135.015ZM423.441 135.015C423.441 136.396 423.758 137.507 424.393 138.347C425.028 139.168 425.905 139.579 427.025 139.579C428.145 139.579 429.022 139.168 429.657 138.347C430.292 137.507 430.609 136.396 430.609 135.015C430.609 133.615 430.292 132.504 429.657 131.683C429.022 130.843 428.145 130.423 427.025 130.423C425.905 130.423 425.028 130.843 424.393 131.683C423.758 132.504 423.441 133.615 423.441 135.015ZM446.95 146.831C445.065 145.263 443.571 143.415 442.47 141.287C441.387 139.159 440.846 136.76 440.846 134.091C440.846 131.422 441.387 129.023 442.47 126.895C443.571 124.767 445.065 122.919 446.95 121.351L448.742 122.835C446.969 124.44 445.671 126.148 444.85 127.959C444.029 129.77 443.618 131.814 443.618 134.091C443.618 136.368 444.029 138.412 444.85 140.223C445.671 142.034 446.969 143.742 448.742 145.347L446.95 146.831ZM467.827 124.907C467.323 124.702 466.828 124.552 466.343 124.459C465.876 124.366 465.363 124.319 464.803 124.319C463.739 124.319 462.964 124.58 462.479 125.103C462.012 125.607 461.779 126.344 461.779 127.315V128.127H467.015V130.675H461.779V141.875H458.587V130.675H454.779V128.267L458.587 128.127V127.371C458.587 126.568 458.699 125.822 458.923 125.131C459.147 124.44 459.492 123.852 459.959 123.367C460.444 122.863 461.051 122.471 461.779 122.191C462.526 121.911 463.403 121.771 464.411 121.771C465.158 121.771 465.867 121.836 466.539 121.967C467.23 122.098 467.883 122.284 468.499 122.527L467.827 124.907ZM483.412 141.875H480.78L480.528 139.691H480.416C479.763 140.456 479.044 141.072 478.26 141.539C477.476 141.987 476.571 142.211 475.544 142.211C473.939 142.211 472.772 141.735 472.044 140.783C471.316 139.812 470.952 138.431 470.952 136.639V128.127H474.172V136.219C474.172 137.339 474.359 138.16 474.732 138.683C475.124 139.187 475.796 139.439 476.748 139.439C477.402 139.439 477.98 139.29 478.484 138.991C479.007 138.692 479.576 138.16 480.192 137.395V128.127H483.412V141.875ZM488.077 128.127H490.737L490.989 130.199H491.101C491.755 129.546 492.473 128.986 493.257 128.519C494.06 128.034 494.993 127.791 496.057 127.791C497.644 127.791 498.811 128.276 499.557 129.247C500.304 130.199 500.677 131.571 500.677 133.363V141.875H497.429V133.783C497.429 132.663 497.233 131.851 496.841 131.347C496.468 130.824 495.805 130.563 494.853 130.563C494.181 130.563 493.584 130.722 493.061 131.039C492.539 131.356 491.96 131.842 491.325 132.495V141.875H488.077V128.127ZM504.614 135.015C504.614 133.876 504.82 132.859 505.23 131.963C505.66 131.067 506.229 130.311 506.938 129.695C507.648 129.079 508.478 128.612 509.43 128.295C510.382 127.959 511.381 127.791 512.426 127.791C513.546 127.791 514.526 127.978 515.366 128.351C516.225 128.724 516.944 129.182 517.522 129.723L515.982 131.739C515.441 131.31 514.89 130.983 514.33 130.759C513.789 130.535 513.21 130.423 512.594 130.423C511.213 130.423 510.093 130.843 509.234 131.683C508.376 132.504 507.946 133.615 507.946 135.015C507.946 135.706 508.058 136.331 508.282 136.891C508.506 137.451 508.814 137.936 509.206 138.347C509.617 138.739 510.102 139.047 510.662 139.271C511.222 139.476 511.838 139.579 512.51 139.579C513.294 139.579 514.004 139.43 514.638 139.131C515.292 138.832 515.889 138.478 516.43 138.067L517.774 140.139C516.99 140.83 516.113 141.352 515.142 141.707C514.172 142.043 513.192 142.211 512.202 142.211C511.12 142.211 510.112 142.052 509.178 141.735C508.264 141.418 507.461 140.951 506.77 140.335C506.098 139.719 505.566 138.963 505.174 138.067C504.801 137.171 504.614 136.154 504.614 135.015ZM522.831 145.347C524.605 143.742 525.902 142.034 526.723 140.223C527.545 138.412 527.955 136.368 527.955 134.091C527.955 131.814 527.545 129.77 526.723 127.959C525.902 126.148 524.605 124.44 522.831 122.835L524.623 121.351C526.509 122.919 527.993 124.767 529.075 126.895C530.177 129.023 530.727 131.422 530.727 134.091C530.727 136.76 530.177 139.159 529.075 141.287C527.993 143.415 526.509 145.263 524.623 146.831L522.831 145.347ZM541.776 129.863C541.776 129.042 542.038 128.37 542.56 127.847C543.083 127.306 543.746 127.035 544.548 127.035C545.351 127.035 546.014 127.306 546.536 127.847C547.059 128.37 547.32 129.042 547.32 129.863C547.32 130.684 547.059 131.366 546.536 131.907C546.014 132.43 545.351 132.691 544.548 132.691C543.746 132.691 543.083 132.43 542.56 131.907C542.038 131.366 541.776 130.684 541.776 129.863ZM541.776 139.383C541.776 138.562 542.038 137.89 542.56 137.367C543.083 136.826 543.746 136.555 544.548 136.555C545.351 136.555 546.014 136.826 546.536 137.367C547.059 137.89 547.32 138.562 547.32 139.383C547.32 140.204 547.059 140.886 546.536 141.427C546.014 141.95 545.351 142.211 544.548 142.211C543.746 142.211 543.083 141.95 542.56 141.427C542.038 140.886 541.776 140.204 541.776 139.383ZM350.304 158.907C349.8 158.702 349.305 158.552 348.82 158.459C348.353 158.366 347.84 158.319 347.28 158.319C346.216 158.319 345.441 158.58 344.956 159.103C344.489 159.607 344.256 160.344 344.256 161.315V162.127H349.492V164.675H344.256V175.875H341.064V164.675H337.256V162.267L341.064 162.127V161.371C341.064 160.568 341.176 159.822 341.4 159.131C341.624 158.44 341.969 157.852 342.436 157.367C342.921 156.863 343.528 156.471 344.256 156.191C345.002 155.911 345.88 155.771 346.888 155.771C347.634 155.771 348.344 155.836 349.016 155.967C349.706 156.098 350.36 156.284 350.976 156.527L350.304 158.907ZM365.889 175.875H363.257L363.005 173.691H362.893C362.239 174.456 361.521 175.072 360.737 175.539C359.953 175.987 359.047 176.211 358.021 176.211C356.415 176.211 355.249 175.735 354.521 174.783C353.793 173.812 353.429 172.431 353.429 170.639V162.127H356.649V170.219C356.649 171.339 356.835 172.16 357.209 172.683C357.601 173.187 358.273 173.439 359.225 173.439C359.878 173.439 360.457 173.29 360.961 172.991C361.483 172.692 362.053 172.16 362.669 171.395V162.127H365.889V175.875ZM370.554 162.127H373.214L373.466 164.199H373.578C374.231 163.546 374.95 162.986 375.734 162.519C376.536 162.034 377.47 161.791 378.534 161.791C380.12 161.791 381.287 162.276 382.034 163.247C382.78 164.199 383.154 165.571 383.154 167.363V175.875H379.906V167.783C379.906 166.663 379.71 165.851 379.318 165.347C378.944 164.824 378.282 164.563 377.33 164.563C376.658 164.563 376.06 164.722 375.538 165.039C375.015 165.356 374.436 165.842 373.802 166.495V175.875H370.554V162.127ZM387.091 169.015C387.091 167.876 387.296 166.859 387.707 165.963C388.136 165.067 388.706 164.311 389.415 163.695C390.124 163.079 390.955 162.612 391.907 162.295C392.859 161.959 393.858 161.791 394.903 161.791C396.023 161.791 397.003 161.978 397.843 162.351C398.702 162.724 399.42 163.182 399.999 163.723L398.459 165.739C397.918 165.31 397.367 164.983 396.807 164.759C396.266 164.535 395.687 164.423 395.071 164.423C393.69 164.423 392.57 164.843 391.711 165.683C390.852 166.504 390.423 167.615 390.423 169.015C390.423 169.706 390.535 170.331 390.759 170.891C390.983 171.451 391.291 171.936 391.683 172.347C392.094 172.739 392.579 173.047 393.139 173.271C393.699 173.476 394.315 173.579 394.987 173.579C395.771 173.579 396.48 173.43 397.115 173.131C397.768 172.832 398.366 172.478 398.907 172.067L400.251 174.139C399.467 174.83 398.59 175.352 397.619 175.707C396.648 176.043 395.668 176.211 394.679 176.211C393.596 176.211 392.588 176.052 391.655 175.735C390.74 175.418 389.938 174.951 389.247 174.335C388.575 173.719 388.043 172.963 387.651 172.067C387.278 171.171 387.091 170.154 387.091 169.015ZM413.372 180.831C411.487 179.263 409.993 177.415 408.892 175.287C407.809 173.159 407.268 170.76 407.268 168.091C407.268 165.422 407.809 163.023 408.892 160.895C409.993 158.767 411.487 156.919 413.372 155.351L415.164 156.835C413.391 158.44 412.093 160.148 411.272 161.959C410.451 163.77 410.04 165.814 410.04 168.091C410.04 170.368 410.451 172.412 411.272 174.223C412.093 176.034 413.391 177.742 415.164 179.347L413.372 180.831ZM427.025 176.211C424.99 176.211 423.376 175.408 422.181 173.803C421.005 172.198 420.417 169.892 420.417 166.887C420.417 163.863 421.005 161.586 422.181 160.055C423.376 158.506 424.99 157.731 427.025 157.731C429.06 157.731 430.665 158.506 431.841 160.055C433.036 161.586 433.633 163.863 433.633 166.887C433.633 169.892 433.036 172.198 431.841 173.803C430.665 175.408 429.06 176.211 427.025 176.211ZM427.025 160.251C426.484 160.251 425.989 160.372 425.541 160.615C425.093 160.839 424.701 161.212 424.365 161.735C424.048 162.258 423.796 162.948 423.609 163.807C423.422 164.647 423.329 165.674 423.329 166.887C423.329 168.1 423.422 169.146 423.609 170.023C423.796 170.882 424.048 171.582 424.365 172.123C424.701 172.664 425.093 173.066 425.541 173.327C425.989 173.57 426.484 173.691 427.025 173.691C427.548 173.691 428.033 173.57 428.481 173.327C428.948 173.066 429.34 172.664 429.657 172.123C429.993 171.582 430.254 170.882 430.441 170.023C430.628 169.146 430.721 168.1 430.721 166.887C430.721 165.674 430.628 164.647 430.441 163.807C430.254 162.948 429.993 162.258 429.657 161.735C429.34 161.212 428.948 160.839 428.481 160.615C428.033 160.372 427.548 160.251 427.025 160.251ZM427.025 168.763C426.484 168.763 426.026 168.586 425.653 168.231C425.28 167.876 425.093 167.391 425.093 166.775C425.093 166.159 425.28 165.674 425.653 165.319C426.026 164.964 426.484 164.787 427.025 164.787C427.566 164.787 428.024 164.964 428.397 165.319C428.77 165.674 428.957 166.159 428.957 166.775C428.957 167.391 428.77 167.876 428.397 168.231C428.024 168.586 427.566 168.763 427.025 168.763ZM438.886 179.347C440.659 177.742 441.957 176.034 442.778 174.223C443.599 172.412 444.01 170.368 444.01 168.091C444.01 165.814 443.599 163.77 442.778 161.959C441.957 160.148 440.659 158.44 438.886 156.835L440.678 155.351C442.563 156.919 444.047 158.767 445.13 160.895C446.231 163.023 446.782 165.422 446.782 168.091C446.782 170.76 446.231 173.159 445.13 175.287C444.047 177.415 442.563 179.263 440.678 180.831L438.886 179.347ZM153.64 234.127H156.3L156.58 237.235H156.664C157.373 236.115 158.223 235.266 159.212 234.687C160.22 234.09 161.321 233.791 162.516 233.791C163.076 233.791 163.552 233.838 163.944 233.931C164.355 234.006 164.765 234.146 165.176 234.351L164.504 237.067C164.056 236.918 163.655 236.815 163.3 236.759C162.964 236.684 162.535 236.647 162.012 236.647C161.06 236.647 160.145 236.918 159.268 237.459C158.391 238 157.597 238.943 156.888 240.287V247.875H153.64V234.127ZM181.209 247.875H178.577L178.325 245.691H178.213C177.56 246.456 176.841 247.072 176.057 247.539C175.273 247.987 174.368 248.211 173.341 248.211C171.736 248.211 170.569 247.735 169.841 246.783C169.113 245.812 168.749 244.431 168.749 242.639V234.127H171.969V242.219C171.969 243.339 172.156 244.16 172.529 244.683C172.921 245.187 173.593 245.439 174.545 245.439C175.198 245.439 175.777 245.29 176.281 244.991C176.804 244.692 177.373 244.16 177.989 243.395V234.127H181.209V247.875ZM185.874 234.127H188.534L188.786 236.199H188.898C189.551 235.546 190.27 234.986 191.054 234.519C191.857 234.034 192.79 233.791 193.854 233.791C195.441 233.791 196.607 234.276 197.354 235.247C198.101 236.199 198.474 237.571 198.474 239.363V247.875H195.226V239.783C195.226 238.663 195.03 237.851 194.638 237.347C194.265 236.824 193.602 236.563 192.65 236.563C191.978 236.563 191.381 236.722 190.858 237.039C190.335 237.356 189.757 237.842 189.122 238.495V247.875H185.874V234.127ZM215.487 249.611V252.131H202.047V249.611H215.487ZM217.324 234.127H220.516L221.776 241.267C221.888 241.92 221.982 242.574 222.056 243.227C222.15 243.88 222.243 244.543 222.336 245.215H222.448C222.542 244.543 222.644 243.88 222.756 243.227C222.868 242.574 222.999 241.92 223.148 241.267L224.436 235.471H226.844L228.132 241.267C228.282 241.92 228.412 242.574 228.524 243.227C228.655 243.88 228.776 244.543 228.888 245.215H229C229.112 244.543 229.206 243.88 229.28 243.227C229.374 242.574 229.467 241.92 229.56 241.267L230.82 234.127H233.788L231.24 247.875H227.46L226.256 242.135C226.144 241.482 226.032 240.828 225.92 240.175C225.827 239.522 225.724 238.84 225.612 238.131H225.5C225.407 238.672 225.314 239.26 225.22 239.895C225.146 240.511 225.034 241.267 224.884 242.163L223.708 247.875H219.984L217.324 234.127ZM236.297 234.127H245.481V247.875H242.261V236.675H236.297V234.127ZM243.633 231.719C242.98 231.719 242.429 231.523 241.981 231.131C241.552 230.739 241.337 230.216 241.337 229.563C241.337 228.91 241.552 228.387 241.981 227.995C242.429 227.584 242.98 227.379 243.633 227.379C244.305 227.379 244.856 227.584 245.285 227.995C245.715 228.387 245.929 228.91 245.929 229.563C245.929 230.216 245.715 230.739 245.285 231.131C244.856 231.523 244.305 231.719 243.633 231.719ZM256.054 236.675H252.386V234.267L256.194 234.127L256.614 230.375H259.274V234.127H265.546V236.675H259.274V242.331C259.274 243.47 259.508 244.31 259.974 244.851C260.441 245.374 261.262 245.635 262.438 245.635C263.036 245.635 263.577 245.588 264.062 245.495C264.548 245.383 265.014 245.243 265.462 245.075L266.078 247.427C265.462 247.632 264.781 247.81 264.034 247.959C263.288 248.127 262.494 248.211 261.654 248.211C260.609 248.211 259.732 248.071 259.022 247.791C258.313 247.511 257.734 247.119 257.286 246.615C256.857 246.092 256.54 245.467 256.334 244.739C256.148 244.011 256.054 243.208 256.054 242.331V236.675ZM269.819 228.107H273.067V233.203L272.871 236.143C273.506 235.508 274.215 234.958 274.999 234.491C275.802 234.024 276.735 233.791 277.799 233.791C279.386 233.791 280.553 234.276 281.299 235.247C282.046 236.199 282.419 237.571 282.419 239.363V247.875H279.171V239.783C279.171 238.663 278.975 237.851 278.583 237.347C278.21 236.824 277.547 236.563 276.595 236.563C275.923 236.563 275.326 236.722 274.803 237.039C274.281 237.356 273.702 237.842 273.067 238.495V247.875H269.819V228.107ZM299.433 249.611V252.131H285.993V249.611H299.433ZM303.09 246.139L311.35 236.675H304.042V234.127H315.886V235.835L307.598 245.299H316.138V247.875H303.09V246.139ZM319.627 241.015C319.627 239.895 319.823 238.887 320.215 237.991C320.625 237.095 321.157 236.339 321.811 235.723C322.464 235.088 323.211 234.612 324.051 234.295C324.909 233.959 325.787 233.791 326.683 233.791C327.709 233.791 328.615 233.959 329.399 234.295C330.201 234.612 330.873 235.06 331.415 235.639C331.956 236.199 332.367 236.88 332.647 237.683C332.927 238.486 333.067 239.363 333.067 240.315C333.067 240.632 333.048 240.931 333.011 241.211C332.992 241.491 332.964 241.715 332.927 241.883H322.931C323.043 243.115 323.528 244.067 324.387 244.739C325.245 245.392 326.3 245.719 327.551 245.719C328.26 245.719 328.923 245.626 329.539 245.439C330.155 245.234 330.78 244.954 331.415 244.599L332.507 246.615C331.76 247.082 330.929 247.464 330.015 247.763C329.1 248.062 328.139 248.211 327.131 248.211C326.085 248.211 325.105 248.052 324.191 247.735C323.276 247.399 322.483 246.923 321.811 246.307C321.139 245.691 320.607 244.944 320.215 244.067C319.823 243.171 319.627 242.154 319.627 241.015ZM330.099 239.699C330.099 238.635 329.819 237.804 329.259 237.207C328.699 236.591 327.868 236.283 326.767 236.283C325.833 236.283 325.003 236.572 324.275 237.151C323.547 237.73 323.089 238.579 322.903 239.699H330.099ZM338.32 234.127H340.98L341.26 237.235H341.344C342.053 236.115 342.902 235.266 343.892 234.687C344.9 234.09 346.001 233.791 347.196 233.791C347.756 233.791 348.232 233.838 348.624 233.931C349.034 234.006 349.445 234.146 349.856 234.351L349.184 237.067C348.736 236.918 348.334 236.815 347.98 236.759C347.644 236.684 347.214 236.647 346.692 236.647C345.74 236.647 344.825 236.918 343.948 237.459C343.07 238 342.277 238.943 341.568 240.287V247.875H338.32V234.127ZM352.953 241.015C352.953 239.876 353.139 238.859 353.513 237.963C353.905 237.067 354.418 236.311 355.053 235.695C355.687 235.079 356.425 234.612 357.265 234.295C358.105 233.959 358.973 233.791 359.869 233.791C360.765 233.791 361.633 233.959 362.473 234.295C363.313 234.612 364.05 235.079 364.685 235.695C365.319 236.311 365.823 237.067 366.197 237.963C366.589 238.859 366.785 239.876 366.785 241.015C366.785 242.154 366.589 243.171 366.197 244.067C365.823 244.963 365.319 245.719 364.685 246.335C364.05 246.951 363.313 247.418 362.473 247.735C361.633 248.052 360.765 248.211 359.869 248.211C358.973 248.211 358.105 248.052 357.265 247.735C356.425 247.418 355.687 246.951 355.053 246.335C354.418 245.719 353.905 244.963 353.513 244.067C353.139 243.171 352.953 242.154 352.953 241.015ZM356.285 241.015C356.285 242.396 356.602 243.507 357.237 244.347C357.871 245.168 358.749 245.579 359.869 245.579C360.989 245.579 361.866 245.168 362.501 244.347C363.135 243.507 363.453 242.396 363.453 241.015C363.453 239.615 363.135 238.504 362.501 237.683C361.866 236.843 360.989 236.423 359.869 236.423C358.749 236.423 357.871 236.843 357.237 237.683C356.602 238.504 356.285 239.615 356.285 241.015ZM379.794 252.831C377.908 251.263 376.415 249.415 375.314 247.287C374.231 245.159 373.69 242.76 373.69 240.091C373.69 237.422 374.231 235.023 375.314 232.895C376.415 230.767 377.908 228.919 379.794 227.351L381.586 228.835C379.812 230.44 378.515 232.148 377.694 233.959C376.872 235.77 376.462 237.814 376.462 240.091C376.462 242.368 376.872 244.412 377.694 246.223C378.515 248.034 379.812 249.742 381.586 251.347L379.794 252.831ZM390.591 248.995V253.307H387.343V234.127H390.003L390.255 235.695H390.339C390.936 235.154 391.618 234.706 392.383 234.351C393.167 233.978 393.951 233.791 394.735 233.791C395.631 233.791 396.424 233.959 397.115 234.295C397.824 234.612 398.412 235.079 398.879 235.695C399.364 236.311 399.728 237.048 399.971 237.907C400.232 238.766 400.363 239.727 400.363 240.791C400.363 241.967 400.195 243.022 399.859 243.955C399.523 244.87 399.066 245.644 398.487 246.279C397.927 246.895 397.274 247.371 396.527 247.707C395.799 248.043 395.043 248.211 394.259 248.211C393.624 248.211 392.971 248.071 392.299 247.791C391.646 247.511 391.039 247.11 390.479 246.587L390.591 248.995ZM390.591 244.291C391.095 244.758 391.608 245.084 392.131 245.271C392.672 245.458 393.158 245.551 393.587 245.551C394.576 245.551 395.398 245.159 396.051 244.375C396.704 243.572 397.031 242.387 397.031 240.819C397.031 239.438 396.779 238.364 396.275 237.599C395.771 236.834 394.959 236.451 393.839 236.451C393.316 236.451 392.784 236.582 392.243 236.843C391.702 237.104 391.151 237.524 390.591 238.103V244.291ZM403.824 228.107H411.384V243.031C411.384 243.964 411.617 244.627 412.084 245.019C412.551 245.392 413.139 245.579 413.848 245.579C414.52 245.579 415.304 245.402 416.2 245.047L416.956 247.427C416.303 247.651 415.687 247.838 415.108 247.987C414.548 248.136 413.867 248.211 413.064 248.211C411.44 248.211 410.217 247.744 409.396 246.811C408.575 245.878 408.164 244.562 408.164 242.863V230.655H403.824V228.107ZM433.045 247.875H430.413L430.161 245.691H430.049C429.396 246.456 428.677 247.072 427.893 247.539C427.109 247.987 426.204 248.211 425.177 248.211C423.572 248.211 422.405 247.735 421.677 246.783C420.949 245.812 420.585 244.431 420.585 242.639V234.127H423.805V242.219C423.805 243.339 423.992 244.16 424.365 244.683C424.757 245.187 425.429 245.439 426.381 245.439C427.034 245.439 427.613 245.29 428.117 244.991C428.64 244.692 429.209 244.16 429.825 243.395V234.127H433.045V247.875ZM438.662 244.039C439.446 244.58 440.258 245.01 441.098 245.327C441.957 245.626 442.918 245.775 443.982 245.775C445.065 245.775 445.858 245.626 446.362 245.327C446.866 245.01 447.118 244.608 447.118 244.123C447.118 243.638 446.791 243.236 446.138 242.919C445.485 242.583 444.458 242.228 443.058 241.855C442.405 241.687 441.77 241.482 441.154 241.239C440.538 240.996 439.997 240.716 439.53 240.399C439.063 240.082 438.69 239.718 438.41 239.307C438.13 238.896 437.99 238.43 437.99 237.907C437.99 236.694 438.513 235.704 439.558 234.939C440.603 234.174 442.106 233.791 444.066 233.791C445.186 233.791 446.241 233.978 447.23 234.351C448.219 234.724 449.069 235.144 449.778 235.611L448.294 237.599C447.678 237.188 447.015 236.862 446.306 236.619C445.615 236.358 444.878 236.227 444.094 236.227C443.03 236.227 442.283 236.376 441.854 236.675C441.425 236.955 441.21 237.31 441.21 237.739C441.21 237.982 441.303 238.206 441.49 238.411C441.695 238.598 441.966 238.775 442.302 238.943C442.657 239.092 443.067 239.242 443.534 239.391C444.001 239.54 444.514 239.68 445.074 239.811C445.877 240.016 446.595 240.25 447.23 240.511C447.883 240.754 448.434 241.034 448.882 241.351C449.349 241.668 449.703 242.042 449.946 242.471C450.207 242.9 450.338 243.395 450.338 243.955C450.338 244.552 450.198 245.112 449.918 245.635C449.638 246.139 449.227 246.587 448.686 246.979C448.145 247.352 447.473 247.651 446.67 247.875C445.867 248.099 444.943 248.211 443.898 248.211C442.61 248.211 441.378 248.006 440.202 247.595C439.026 247.184 438.009 246.68 437.15 246.083L438.662 244.039ZM467.323 249.611V252.131H453.883V249.611H467.323ZM470.476 241.015C470.476 239.876 470.663 238.859 471.036 237.963C471.428 237.067 471.942 236.311 472.576 235.695C473.211 235.079 473.948 234.612 474.788 234.295C475.628 233.959 476.496 233.791 477.392 233.791C478.288 233.791 479.156 233.959 479.996 234.295C480.836 234.612 481.574 235.079 482.208 235.695C482.843 236.311 483.347 237.067 483.72 237.963C484.112 238.859 484.308 239.876 484.308 241.015C484.308 242.154 484.112 243.171 483.72 244.067C483.347 244.963 482.843 245.719 482.208 246.335C481.574 246.951 480.836 247.418 479.996 247.735C479.156 248.052 478.288 248.211 477.392 248.211C476.496 248.211 475.628 248.052 474.788 247.735C473.948 247.418 473.211 246.951 472.576 246.335C471.942 245.719 471.428 244.963 471.036 244.067C470.663 243.171 470.476 242.154 470.476 241.015ZM473.808 241.015C473.808 242.396 474.126 243.507 474.76 244.347C475.395 245.168 476.272 245.579 477.392 245.579C478.512 245.579 479.39 245.168 480.024 244.347C480.659 243.507 480.976 242.396 480.976 241.015C480.976 239.615 480.659 238.504 480.024 237.683C479.39 236.843 478.512 236.423 477.392 236.423C476.272 236.423 475.395 236.843 474.76 237.683C474.126 238.504 473.808 239.615 473.808 241.015ZM488.077 234.127H490.737L490.989 236.199H491.101C491.755 235.546 492.473 234.986 493.257 234.519C494.06 234.034 494.993 233.791 496.057 233.791C497.644 233.791 498.811 234.276 499.557 235.247C500.304 236.199 500.677 237.571 500.677 239.363V247.875H497.429V239.783C497.429 238.663 497.233 237.851 496.841 237.347C496.468 236.824 495.805 236.563 494.853 236.563C494.181 236.563 493.584 236.722 493.061 237.039C492.539 237.356 491.96 237.842 491.325 238.495V247.875H488.077V234.127ZM504.306 241.015C504.306 239.895 504.502 238.887 504.894 237.991C505.305 237.095 505.837 236.339 506.49 235.723C507.144 235.088 507.89 234.612 508.73 234.295C509.589 233.959 510.466 233.791 511.362 233.791C512.389 233.791 513.294 233.959 514.078 234.295C514.881 234.612 515.553 235.06 516.094 235.639C516.636 236.199 517.046 236.88 517.326 237.683C517.606 238.486 517.746 239.363 517.746 240.315C517.746 240.632 517.728 240.931 517.69 241.211C517.672 241.491 517.644 241.715 517.606 241.883H507.61C507.722 243.115 508.208 244.067 509.066 244.739C509.925 245.392 510.98 245.719 512.23 245.719C512.94 245.719 513.602 245.626 514.218 245.439C514.834 245.234 515.46 244.954 516.094 244.599L517.186 246.615C516.44 247.082 515.609 247.464 514.694 247.763C513.78 248.062 512.818 248.211 511.81 248.211C510.765 248.211 509.785 248.052 508.87 247.735C507.956 247.399 507.162 246.923 506.49 246.307C505.818 245.691 505.286 244.944 504.894 244.067C504.502 243.171 504.306 242.154 504.306 241.015ZM514.778 239.699C514.778 238.635 514.498 237.804 513.938 237.207C513.378 236.591 512.548 236.283 511.446 236.283C510.513 236.283 509.682 236.572 508.954 237.151C508.226 237.73 507.769 238.579 507.582 239.699H514.778ZM522.831 251.347C524.605 249.742 525.902 248.034 526.723 246.223C527.545 244.412 527.955 242.368 527.955 240.091C527.955 237.814 527.545 235.77 526.723 233.959C525.902 232.148 524.605 230.44 522.831 228.835L524.623 227.351C526.509 228.919 527.993 230.767 529.075 232.895C530.177 235.023 530.727 237.422 530.727 240.091C530.727 242.76 530.177 245.159 529.075 247.287C527.993 249.415 526.509 251.263 524.623 252.831L522.831 251.347Z" fill="#2E383C"/>
<path d="M164.148 300.394V303.026H151.744V300.394H156.56V288.69H152.836V286.674C153.844 286.506 154.703 286.31 155.412 286.086C156.14 285.844 156.812 285.554 157.428 285.218H159.78V300.394H164.148Z" fill="#2E383C"/>
</svg>
