<svg width="1120" height="302" viewBox="0 0 1120 302" fill="none" xmlns="http://www.w3.org/2000/svg">
<rect width="560" height="151" transform="scale(2)" fill="white"/>
<path d="M48 14H700V66H48V14Z" fill="#F1F4F8"/>
<path d="M61.64 36.252H64.3L64.58 39.36H64.664C65.3733 38.24 66.2227 37.3907 67.212 36.812C68.22 36.2147 69.3213 35.916 70.516 35.916C71.076 35.916 71.552 35.9627 71.944 36.056C72.3547 36.1307 72.7653 36.2707 73.176 36.476L72.504 39.192C72.056 39.0427 71.6547 38.94 71.3 38.884C70.964 38.8093 70.5347 38.772 70.012 38.772C69.06 38.772 68.1453 39.0427 67.268 39.584C66.3907 40.1253 65.5973 41.068 64.888 42.412V50H61.64V36.252ZM89.2091 50H86.5771L86.3251 47.816H86.2131C85.5597 48.5813 84.8411 49.1973 84.0571 49.664C83.2731 50.112 82.3677 50.336 81.3411 50.336C79.7357 50.336 78.5691 49.86 77.8411 48.908C77.1131 47.9373 76.7491 46.556 76.7491 44.764V36.252H79.9691V44.344C79.9691 45.464 80.1557 46.2853 80.5291 46.808C80.9211 47.312 81.5931 47.564 82.5451 47.564C83.1984 47.564 83.7771 47.4147 84.2811 47.116C84.8037 46.8173 85.3731 46.2853 85.9891 45.52V36.252H89.2091V50ZM93.8741 36.252H96.5341L96.7861 38.324H96.8981C97.5515 37.6707 98.2701 37.1107 99.0541 36.644C99.8568 36.1587 100.79 35.916 101.854 35.916C103.441 35.916 104.607 36.4013 105.354 37.372C106.101 38.324 106.474 39.696 106.474 41.488V50H103.226V41.908C103.226 40.788 103.03 39.976 102.638 39.472C102.265 38.9493 101.602 38.688 100.65 38.688C99.9781 38.688 99.3808 38.8467 98.8581 39.164C98.3355 39.4813 97.7568 39.9667 97.1221 40.62V50H93.8741V36.252ZM123.487 51.736V54.256H110.047V51.736H123.487ZM125.324 36.252H128.516L129.776 43.392C129.888 44.0453 129.982 44.6987 130.056 45.352C130.15 46.0053 130.243 46.668 130.336 47.34H130.448C130.542 46.668 130.644 46.0053 130.756 45.352C130.868 44.6987 130.999 44.0453 131.148 43.392L132.436 37.596H134.844L136.132 43.392C136.282 44.0453 136.412 44.6987 136.524 45.352C136.655 46.0053 136.776 46.668 136.888 47.34H137C137.112 46.668 137.206 46.0053 137.28 45.352C137.374 44.6987 137.467 44.0453 137.56 43.392L138.82 36.252H141.788L139.24 50H135.46L134.256 44.26C134.144 43.6067 134.032 42.9533 133.92 42.3C133.827 41.6467 133.724 40.9653 133.612 40.256H133.5C133.407 40.7973 133.314 41.3853 133.22 42.02C133.146 42.636 133.034 43.392 132.884 44.288L131.708 50H127.984L125.324 36.252ZM144.297 36.252H153.481V50H150.261V38.8H144.297V36.252ZM151.633 33.844C150.98 33.844 150.429 33.648 149.981 33.256C149.552 32.864 149.337 32.3413 149.337 31.688C149.337 31.0347 149.552 30.512 149.981 30.12C150.429 29.7093 150.98 29.504 151.633 29.504C152.305 29.504 152.856 29.7093 153.285 30.12C153.715 30.512 153.929 31.0347 153.929 31.688C153.929 32.3413 153.715 32.864 153.285 33.256C152.856 33.648 152.305 33.844 151.633 33.844ZM164.054 38.8H160.386V36.392L164.194 36.252L164.614 32.5H167.274V36.252H173.546V38.8H167.274V44.456C167.274 45.5947 167.508 46.4347 167.974 46.976C168.441 47.4987 169.262 47.76 170.438 47.76C171.036 47.76 171.577 47.7133 172.062 47.62C172.548 47.508 173.014 47.368 173.462 47.2L174.078 49.552C173.462 49.7573 172.781 49.9347 172.034 50.084C171.288 50.252 170.494 50.336 169.654 50.336C168.609 50.336 167.732 50.196 167.022 49.916C166.313 49.636 165.734 49.244 165.286 48.74C164.857 48.2173 164.54 47.592 164.334 46.864C164.148 46.136 164.054 45.3333 164.054 44.456V38.8ZM177.819 30.232H181.067V35.328L180.871 38.268C181.506 37.6333 182.215 37.0827 182.999 36.616C183.802 36.1493 184.735 35.916 185.799 35.916C187.386 35.916 188.553 36.4013 189.299 37.372C190.046 38.324 190.419 39.696 190.419 41.488V50H187.171V41.908C187.171 40.788 186.975 39.976 186.583 39.472C186.21 38.9493 185.547 38.688 184.595 38.688C183.923 38.688 183.326 38.8467 182.803 39.164C182.281 39.4813 181.702 39.9667 181.067 40.62V50H177.819V30.232ZM207.433 51.736V54.256H193.993V51.736H207.433ZM211.09 48.264L219.35 38.8H212.042V36.252H223.886V37.96L215.598 47.424H224.138V50H211.09V48.264ZM227.627 43.14C227.627 42.02 227.823 41.012 228.215 40.116C228.625 39.22 229.157 38.464 229.811 37.848C230.464 37.2133 231.211 36.7373 232.051 36.42C232.909 36.084 233.787 35.916 234.683 35.916C235.709 35.916 236.615 36.084 237.399 36.42C238.201 36.7373 238.873 37.1853 239.415 37.764C239.956 38.324 240.367 39.0053 240.647 39.808C240.927 40.6107 241.067 41.488 241.067 42.44C241.067 42.7573 241.048 43.056 241.011 43.336C240.992 43.616 240.964 43.84 240.927 44.008H230.931C231.043 45.24 231.528 46.192 232.387 46.864C233.245 47.5173 234.3 47.844 235.551 47.844C236.26 47.844 236.923 47.7507 237.539 47.564C238.155 47.3587 238.78 47.0787 239.415 46.724L240.507 48.74C239.76 49.2067 238.929 49.5893 238.015 49.888C237.1 50.1867 236.139 50.336 235.131 50.336C234.085 50.336 233.105 50.1773 232.191 49.86C231.276 49.524 230.483 49.048 229.811 48.432C229.139 47.816 228.607 47.0693 228.215 46.192C227.823 45.296 227.627 44.2787 227.627 43.14ZM238.099 41.824C238.099 40.76 237.819 39.9293 237.259 39.332C236.699 38.716 235.868 38.408 234.767 38.408C233.833 38.408 233.003 38.6973 232.275 39.276C231.547 39.8547 231.089 40.704 230.903 41.824H238.099ZM246.32 36.252H248.98L249.26 39.36H249.344C250.053 38.24 250.902 37.3907 251.892 36.812C252.9 36.2147 254.001 35.916 255.196 35.916C255.756 35.916 256.232 35.9627 256.624 36.056C257.034 36.1307 257.445 36.2707 257.856 36.476L257.184 39.192C256.736 39.0427 256.334 38.94 255.98 38.884C255.644 38.8093 255.214 38.772 254.692 38.772C253.74 38.772 252.825 39.0427 251.948 39.584C251.07 40.1253 250.277 41.068 249.568 42.412V50H246.32V36.252ZM260.953 43.14C260.953 42.0013 261.139 40.984 261.513 40.088C261.905 39.192 262.418 38.436 263.053 37.82C263.687 37.204 264.425 36.7373 265.265 36.42C266.105 36.084 266.973 35.916 267.869 35.916C268.765 35.916 269.633 36.084 270.473 36.42C271.313 36.7373 272.05 37.204 272.685 37.82C273.319 38.436 273.823 39.192 274.197 40.088C274.589 40.984 274.785 42.0013 274.785 43.14C274.785 44.2787 274.589 45.296 274.197 46.192C273.823 47.088 273.319 47.844 272.685 48.46C272.05 49.076 271.313 49.5427 270.473 49.86C269.633 50.1773 268.765 50.336 267.869 50.336C266.973 50.336 266.105 50.1773 265.265 49.86C264.425 49.5427 263.687 49.076 263.053 48.46C262.418 47.844 261.905 47.088 261.513 46.192C261.139 45.296 260.953 44.2787 260.953 43.14ZM264.285 43.14C264.285 44.5213 264.602 45.632 265.237 46.472C265.871 47.2933 266.749 47.704 267.869 47.704C268.989 47.704 269.866 47.2933 270.501 46.472C271.135 45.632 271.453 44.5213 271.453 43.14C271.453 41.74 271.135 40.6293 270.501 39.808C269.866 38.968 268.989 38.548 267.869 38.548C266.749 38.548 265.871 38.968 265.237 39.808C264.602 40.6293 264.285 41.74 264.285 43.14ZM287.794 54.956C285.908 53.388 284.415 51.54 283.314 49.412C282.231 47.284 281.69 44.8853 281.69 42.216C281.69 39.5467 282.231 37.148 283.314 35.02C284.415 32.892 285.908 31.044 287.794 29.476L289.586 30.96C287.812 32.5653 286.515 34.2733 285.694 36.084C284.872 37.8947 284.462 39.9387 284.462 42.216C284.462 44.4933 284.872 46.5373 285.694 48.348C286.515 50.1587 287.812 51.8667 289.586 53.472L287.794 54.956ZM412.922 36.252H422.106V50H418.886V38.8H412.922V36.252ZM420.258 33.844C419.605 33.844 419.054 33.648 418.606 33.256C418.177 32.864 417.962 32.3413 417.962 31.688C417.962 31.0347 418.177 30.512 418.606 30.12C419.054 29.7093 419.605 29.504 420.258 29.504C420.93 29.504 421.481 29.7093 421.91 30.12C422.34 30.512 422.554 31.0347 422.554 31.688C422.554 32.3413 422.34 32.864 421.91 33.256C421.481 33.648 420.93 33.844 420.258 33.844ZM429.655 36.252H432.315L432.567 38.324H432.679C433.333 37.6707 434.051 37.1107 434.835 36.644C435.638 36.1587 436.571 35.916 437.635 35.916C439.222 35.916 440.389 36.4013 441.135 37.372C441.882 38.324 442.255 39.696 442.255 41.488V50H439.007V41.908C439.007 40.788 438.811 39.976 438.419 39.472C438.046 38.9493 437.383 38.688 436.431 38.688C435.759 38.688 435.162 38.8467 434.639 39.164C434.117 39.4813 433.538 39.9667 432.903 40.62V50H429.655V36.252ZM449.692 51.12V55.432H446.444V36.252H449.104L449.356 37.82H449.44C450.038 37.2787 450.719 36.8307 451.484 36.476C452.268 36.1027 453.052 35.916 453.836 35.916C454.732 35.916 455.526 36.084 456.216 36.42C456.926 36.7373 457.514 37.204 457.98 37.82C458.466 38.436 458.83 39.1733 459.072 40.032C459.334 40.8907 459.464 41.852 459.464 42.916C459.464 44.092 459.296 45.1467 458.96 46.08C458.624 46.9947 458.167 47.7693 457.588 48.404C457.028 49.02 456.375 49.496 455.628 49.832C454.9 50.168 454.144 50.336 453.36 50.336C452.726 50.336 452.072 50.196 451.4 49.916C450.747 49.636 450.14 49.2347 449.58 48.712L449.692 51.12ZM449.692 46.416C450.196 46.8827 450.71 47.2093 451.232 47.396C451.774 47.5827 452.259 47.676 452.688 47.676C453.678 47.676 454.499 47.284 455.152 46.5C455.806 45.6973 456.132 44.512 456.132 42.944C456.132 41.5627 455.88 40.4893 455.376 39.724C454.872 38.9587 454.06 38.576 452.94 38.576C452.418 38.576 451.886 38.7067 451.344 38.968C450.803 39.2293 450.252 39.6493 449.692 40.228V46.416ZM475.358 50H472.726L472.474 47.816H472.362C471.708 48.5813 470.99 49.1973 470.206 49.664C469.422 50.112 468.516 50.336 467.49 50.336C465.884 50.336 464.718 49.86 463.99 48.908C463.262 47.9373 462.898 46.556 462.898 44.764V36.252H466.118V44.344C466.118 45.464 466.304 46.2853 466.678 46.808C467.07 47.312 467.742 47.564 468.694 47.564C469.347 47.564 469.926 47.4147 470.43 47.116C470.952 46.8173 471.522 46.2853 472.138 45.52V36.252H475.358V50ZM483.047 38.8H479.379V36.392L483.187 36.252L483.607 32.5H486.267V36.252H492.539V38.8H486.267V44.456C486.267 45.5947 486.5 46.4347 486.967 46.976C487.433 47.4987 488.255 47.76 489.431 47.76C490.028 47.76 490.569 47.7133 491.055 47.62C491.54 47.508 492.007 47.368 492.455 47.2L493.071 49.552C492.455 49.7573 491.773 49.9347 491.027 50.084C490.28 50.252 489.487 50.336 488.647 50.336C487.601 50.336 486.724 50.196 486.015 49.916C485.305 49.636 484.727 49.244 484.279 48.74C483.849 48.2173 483.532 47.592 483.327 46.864C483.14 46.136 483.047 45.3333 483.047 44.456V38.8ZM500.144 37.988C500.144 37.1667 500.405 36.4947 500.928 35.972C501.45 35.4307 502.113 35.16 502.916 35.16C503.718 35.16 504.381 35.4307 504.904 35.972C505.426 36.4947 505.688 37.1667 505.688 37.988C505.688 38.8093 505.426 39.4907 504.904 40.032C504.381 40.5547 503.718 40.816 502.916 40.816C502.113 40.816 501.45 40.5547 500.928 40.032C500.405 39.4907 500.144 38.8093 500.144 37.988ZM500.144 47.508C500.144 46.6867 500.405 46.0147 500.928 45.492C501.45 44.9507 502.113 44.68 502.916 44.68C503.718 44.68 504.381 44.9507 504.904 45.492C505.426 46.0147 505.688 46.6867 505.688 47.508C505.688 48.3293 505.426 49.0107 504.904 49.552C504.381 50.0747 503.718 50.336 502.916 50.336C502.113 50.336 501.45 50.0747 500.928 49.552C500.405 49.0107 500.144 48.3293 500.144 47.508ZM530.446 36.252H539.63V50H536.41V38.8H530.446V36.252ZM537.782 33.844C537.128 33.844 536.578 33.648 536.13 33.256C535.7 32.864 535.486 32.3413 535.486 31.688C535.486 31.0347 535.7 30.512 536.13 30.12C536.578 29.7093 537.128 29.504 537.782 29.504C538.454 29.504 539.004 29.7093 539.434 30.12C539.863 30.512 540.078 31.0347 540.078 31.688C540.078 32.3413 539.863 32.864 539.434 33.256C539.004 33.648 538.454 33.844 537.782 33.844ZM547.179 36.252H549.839L550.091 38.324H550.203C550.856 37.6707 551.575 37.1107 552.359 36.644C553.161 36.1587 554.095 35.916 555.159 35.916C556.745 35.916 557.912 36.4013 558.659 37.372C559.405 38.324 559.779 39.696 559.779 41.488V50H556.531V41.908C556.531 40.788 556.335 39.976 555.943 39.472C555.569 38.9493 554.907 38.688 553.955 38.688C553.283 38.688 552.685 38.8467 552.163 39.164C551.64 39.4813 551.061 39.9667 550.427 40.62V50H547.179V36.252ZM567.216 51.12V55.432H563.968V36.252H566.628L566.88 37.82H566.964C567.561 37.2787 568.243 36.8307 569.008 36.476C569.792 36.1027 570.576 35.916 571.36 35.916C572.256 35.916 573.049 36.084 573.74 36.42C574.449 36.7373 575.037 37.204 575.504 37.82C575.989 38.436 576.353 39.1733 576.596 40.032C576.857 40.8907 576.988 41.852 576.988 42.916C576.988 44.092 576.82 45.1467 576.484 46.08C576.148 46.9947 575.691 47.7693 575.112 48.404C574.552 49.02 573.899 49.496 573.152 49.832C572.424 50.168 571.668 50.336 570.884 50.336C570.249 50.336 569.596 50.196 568.924 49.916C568.271 49.636 567.664 49.2347 567.104 48.712L567.216 51.12ZM567.216 46.416C567.72 46.8827 568.233 47.2093 568.756 47.396C569.297 47.5827 569.783 47.676 570.212 47.676C571.201 47.676 572.023 47.284 572.676 46.5C573.329 45.6973 573.656 44.512 573.656 42.944C573.656 41.5627 573.404 40.4893 572.9 39.724C572.396 38.9587 571.584 38.576 570.464 38.576C569.941 38.576 569.409 38.7067 568.868 38.968C568.327 39.2293 567.776 39.6493 567.216 40.228V46.416ZM592.881 50H590.249L589.997 47.816H589.885C589.232 48.5813 588.513 49.1973 587.729 49.664C586.945 50.112 586.04 50.336 585.013 50.336C583.408 50.336 582.241 49.86 581.513 48.908C580.785 47.9373 580.421 46.556 580.421 44.764V36.252H583.641V44.344C583.641 45.464 583.828 46.2853 584.201 46.808C584.593 47.312 585.265 47.564 586.217 47.564C586.87 47.564 587.449 47.4147 587.953 47.116C588.476 46.8173 589.045 46.2853 589.661 45.52V36.252H592.881V50ZM600.57 38.8H596.902V36.392L600.71 36.252L601.13 32.5H603.79V36.252H610.062V38.8H603.79V44.456C603.79 45.5947 604.023 46.4347 604.49 46.976C604.957 47.4987 605.778 47.76 606.954 47.76C607.551 47.76 608.093 47.7133 608.578 47.62C609.063 47.508 609.53 47.368 609.978 47.2L610.594 49.552C609.978 49.7573 609.297 49.9347 608.55 50.084C607.803 50.252 607.01 50.336 606.17 50.336C605.125 50.336 604.247 50.196 603.538 49.916C602.829 49.636 602.25 49.244 601.802 48.74C601.373 48.2173 601.055 47.592 600.85 46.864C600.663 46.136 600.57 45.3333 600.57 44.456V38.8ZM677.33 47.368V50H664.926V47.368H669.742V35.664H666.018V33.648C667.026 33.48 667.885 33.284 668.594 33.06C669.322 32.8173 669.994 32.528 670.61 32.192H672.962V47.368H677.33ZM682.667 53.472C684.441 51.8667 685.738 50.1587 686.559 48.348C687.381 46.5373 687.791 44.4933 687.791 42.216C687.791 39.9387 687.381 37.8947 686.559 36.084C685.738 34.2733 684.441 32.5653 682.667 30.96L684.459 29.476C686.345 31.044 687.829 32.892 688.911 35.02C690.013 37.148 690.563 39.5467 690.563 42.216C690.563 44.8853 690.013 47.284 688.911 49.412C687.829 51.54 686.345 53.388 684.459 54.956L682.667 53.472Z" fill="#2E383C"/>
<path d="M294.783 30.372H302.931V44.736C302.931 45.1653 302.987 45.5293 303.099 45.828C303.23 46.108 303.398 46.3413 303.603 46.528C303.827 46.696 304.07 46.8173 304.331 46.892C304.611 46.9667 304.891 47.004 305.171 47.004C305.488 47.004 305.824 46.976 306.179 46.92C306.534 46.8453 306.926 46.724 307.355 46.556L308.279 49.58C307.906 49.692 307.56 49.7947 307.243 49.888C306.926 49.9813 306.608 50.056 306.291 50.112C305.974 50.1867 305.638 50.2427 305.283 50.28C304.928 50.3173 304.536 50.336 304.107 50.336C302.352 50.336 301.027 49.8227 300.131 48.796C299.254 47.7507 298.815 46.3413 298.815 44.568V33.62H294.783V30.372ZM311.544 46.136C311.544 45.352 311.712 44.6707 312.048 44.092C312.384 43.4947 312.916 42.9907 313.644 42.58C314.391 42.1693 315.343 41.8427 316.5 41.6C317.657 41.3387 319.057 41.1613 320.7 41.068C320.625 40.4333 320.345 39.9387 319.86 39.584C319.393 39.2293 318.684 39.052 317.732 39.052C317.06 39.052 316.379 39.1733 315.688 39.416C315.016 39.64 314.288 39.948 313.504 40.34L312.048 37.652C313 37.1107 314.017 36.6627 315.1 36.308C316.201 35.9533 317.349 35.776 318.544 35.776C320.485 35.776 322.016 36.2893 323.136 37.316C324.256 38.3427 324.816 39.92 324.816 42.048V50H321.456L321.148 48.432H321.036C320.327 48.9733 319.552 49.4307 318.712 49.804C317.872 50.1587 317.004 50.336 316.108 50.336C315.399 50.336 314.764 50.224 314.204 50C313.644 49.7947 313.168 49.5053 312.776 49.132C312.384 48.74 312.076 48.292 311.852 47.788C311.647 47.284 311.544 46.7333 311.544 46.136ZM315.492 45.828C315.492 46.276 315.66 46.612 315.996 46.836C316.351 47.0413 316.827 47.144 317.424 47.144C318.04 47.144 318.619 47.0227 319.16 46.78C319.701 46.5187 320.215 46.2013 320.7 45.828V43.532C319.673 43.588 318.824 43.6813 318.152 43.812C317.48 43.9427 316.948 44.1107 316.556 44.316C316.164 44.5027 315.884 44.7267 315.716 44.988C315.567 45.2493 315.492 45.5293 315.492 45.828ZM327.633 36.112H330.713L331.021 37.848H331.133C331.394 37.2693 331.749 36.784 332.197 36.392C332.664 35.9813 333.298 35.776 334.101 35.776C334.717 35.776 335.23 35.972 335.641 36.364C336.07 36.7373 336.369 37.2973 336.537 38.044C336.798 37.4093 337.172 36.8773 337.657 36.448C338.161 36 338.805 35.776 339.589 35.776C340.56 35.776 341.316 36.1773 341.857 36.98C342.398 37.764 342.669 38.856 342.669 40.256V50H338.805V40.564C338.805 39.7053 338.544 39.276 338.021 39.276C337.517 39.276 337.088 39.724 336.733 40.62V50H333.569V40.564C333.569 39.7053 333.298 39.276 332.757 39.276C332.496 39.276 332.272 39.388 332.085 39.612C331.898 39.836 331.702 40.172 331.497 40.62V50H327.633V36.112ZM345.43 30.372H349.546V35.188L349.434 37.372C349.975 36.868 350.582 36.476 351.254 36.196C351.945 35.916 352.626 35.776 353.298 35.776C354.157 35.776 354.931 35.944 355.622 36.28C356.331 36.616 356.919 37.092 357.386 37.708C357.871 38.3053 358.245 39.0427 358.506 39.92C358.767 40.7787 358.898 41.74 358.898 42.804C358.898 43.9987 358.73 45.0627 358.394 45.996C358.058 46.9293 357.61 47.7227 357.05 48.376C356.49 49.0107 355.846 49.496 355.118 49.832C354.409 50.168 353.662 50.336 352.878 50.336C352.225 50.336 351.571 50.1773 350.918 49.86C350.283 49.5427 349.677 49.0853 349.098 48.488H348.986L348.65 50H345.43V30.372ZM349.546 46.052C349.938 46.388 350.339 46.6307 350.75 46.78C351.179 46.9107 351.581 46.976 351.954 46.976C352.719 46.976 353.363 46.6587 353.886 46.024C354.409 45.3707 354.67 44.3253 354.67 42.888C354.67 40.3867 353.821 39.136 352.122 39.136C351.245 39.136 350.386 39.5653 349.546 40.424V46.052ZM361.519 43.056C361.519 41.9173 361.687 40.9 362.023 40.004C362.359 39.108 362.798 38.352 363.339 37.736C363.899 37.1013 364.534 36.616 365.243 36.28C365.952 35.944 366.69 35.776 367.455 35.776C368.258 35.776 368.93 35.916 369.471 36.196C370.012 36.4573 370.526 36.812 371.011 37.26L370.871 35.104V30.372H374.987V50H371.627L371.319 48.572H371.235C370.712 49.076 370.115 49.496 369.443 49.832C368.771 50.168 368.08 50.336 367.371 50.336C366.494 50.336 365.691 50.168 364.963 49.832C364.254 49.496 363.638 49.02 363.115 48.404C362.611 47.7693 362.219 47.004 361.939 46.108C361.659 45.212 361.519 44.1947 361.519 43.056ZM365.747 43C365.747 44.3813 365.98 45.3893 366.447 46.024C366.914 46.6587 367.576 46.976 368.435 46.976C368.902 46.976 369.331 46.8827 369.723 46.696C370.115 46.4907 370.498 46.1547 370.871 45.688V40.06C370.498 39.724 370.115 39.4907 369.723 39.36C369.35 39.2107 368.958 39.136 368.547 39.136C367.782 39.136 367.119 39.4533 366.559 40.088C366.018 40.7227 365.747 41.6933 365.747 43ZM378.7 46.136C378.7 45.352 378.868 44.6707 379.204 44.092C379.54 43.4947 380.072 42.9907 380.8 42.58C381.547 42.1693 382.499 41.8427 383.656 41.6C384.814 41.3387 386.214 41.1613 387.856 41.068C387.782 40.4333 387.502 39.9387 387.016 39.584C386.55 39.2293 385.84 39.052 384.888 39.052C384.216 39.052 383.535 39.1733 382.844 39.416C382.172 39.64 381.444 39.948 380.66 40.34L379.204 37.652C380.156 37.1107 381.174 36.6627 382.256 36.308C383.358 35.9533 384.506 35.776 385.7 35.776C387.642 35.776 389.172 36.2893 390.292 37.316C391.412 38.3427 391.972 39.92 391.972 42.048V50H388.612L388.304 48.432H388.192C387.483 48.9733 386.708 49.4307 385.868 49.804C385.028 50.1587 384.16 50.336 383.264 50.336C382.555 50.336 381.92 50.224 381.36 50C380.8 49.7947 380.324 49.5053 379.932 49.132C379.54 48.74 379.232 48.292 379.008 47.788C378.803 47.284 378.7 46.7333 378.7 46.136ZM382.648 45.828C382.648 46.276 382.816 46.612 383.152 46.836C383.507 47.0413 383.983 47.144 384.58 47.144C385.196 47.144 385.775 47.0227 386.316 46.78C386.858 46.5187 387.371 46.2013 387.856 45.828V43.532C386.83 43.588 385.98 43.6813 385.308 43.812C384.636 43.9427 384.104 44.1107 383.712 44.316C383.32 44.5027 383.04 44.7267 382.872 44.988C382.723 45.2493 382.648 45.5293 382.648 45.828Z" fill="#0C570A"/>
<path d="M635.996 41.936H631.012V39.584H635.996V34.292H638.46V39.584H643.444V41.936H638.46V47.228H635.996V41.936Z" fill="#A541F8"/>
<path d="M48 188H700V240H48V188Z" fill="#F1F4F8"/>
<path d="M63.3176 210.323H65.9776L66.2576 213.431H66.3416C67.0509 212.311 67.9003 211.461 68.8896 210.883C69.8976 210.285 70.9989 209.987 72.1936 209.987C72.7536 209.987 73.2296 210.033 73.6216 210.127C74.0323 210.201 74.4429 210.341 74.8536 210.547L74.1816 213.263C73.7336 213.113 73.3323 213.011 72.9776 212.955C72.6416 212.88 72.2123 212.843 71.6896 212.843C70.7376 212.843 69.8229 213.113 68.9456 213.655C68.0683 214.196 67.2749 215.139 66.5656 216.483V224.071H63.3176V210.323ZM90.8867 224.071H88.2547L88.0027 221.887H87.8907C87.2373 222.652 86.5187 223.268 85.7347 223.735C84.9507 224.183 84.0453 224.407 83.0187 224.407C81.4133 224.407 80.2467 223.931 79.5187 222.979C78.7907 222.008 78.4267 220.627 78.4267 218.835V210.323H81.6467V218.415C81.6467 219.535 81.8333 220.356 82.2067 220.879C82.5987 221.383 83.2707 221.635 84.2227 221.635C84.876 221.635 85.4547 221.485 85.9587 221.187C86.4813 220.888 87.0507 220.356 87.6667 219.591V210.323H90.8867V224.071ZM95.5517 210.323H98.2117L98.4637 212.395H98.5757C99.2291 211.741 99.9477 211.181 100.732 210.715C101.534 210.229 102.468 209.987 103.532 209.987C105.118 209.987 106.285 210.472 107.032 211.443C107.778 212.395 108.152 213.767 108.152 215.559V224.071H104.904V215.979C104.904 214.859 104.708 214.047 104.316 213.543C103.942 213.02 103.28 212.759 102.328 212.759C101.656 212.759 101.058 212.917 100.536 213.235C100.013 213.552 99.4344 214.037 98.7997 214.691V224.071H95.5517V210.323ZM125.165 225.807V228.327H111.725V225.807H125.165ZM127.002 210.323H130.194L131.454 217.463C131.566 218.116 131.659 218.769 131.734 219.423C131.827 220.076 131.921 220.739 132.014 221.411H132.126C132.219 220.739 132.322 220.076 132.434 219.423C132.546 218.769 132.677 218.116 132.826 217.463L134.114 211.667H136.522L137.81 217.463C137.959 218.116 138.09 218.769 138.202 219.423C138.333 220.076 138.454 220.739 138.566 221.411H138.678C138.79 220.739 138.883 220.076 138.958 219.423C139.051 218.769 139.145 218.116 139.238 217.463L140.498 210.323H143.466L140.918 224.071H137.138L135.934 218.331C135.822 217.677 135.71 217.024 135.598 216.371C135.505 215.717 135.402 215.036 135.29 214.327H135.178C135.085 214.868 134.991 215.456 134.898 216.091C134.823 216.707 134.711 217.463 134.562 218.359L133.386 224.071H129.662L127.002 210.323ZM145.975 210.323H155.159V224.071H151.939V212.871H145.975V210.323ZM153.311 207.915C152.658 207.915 152.107 207.719 151.659 207.327C151.23 206.935 151.015 206.412 151.015 205.759C151.015 205.105 151.23 204.583 151.659 204.191C152.107 203.78 152.658 203.575 153.311 203.575C153.983 203.575 154.534 203.78 154.963 204.191C155.392 204.583 155.607 205.105 155.607 205.759C155.607 206.412 155.392 206.935 154.963 207.327C154.534 207.719 153.983 207.915 153.311 207.915ZM165.732 212.871H162.064V210.463L165.872 210.323L166.292 206.571H168.952V210.323H175.224V212.871H168.952V218.527C168.952 219.665 169.185 220.505 169.652 221.047C170.119 221.569 170.94 221.831 172.116 221.831C172.713 221.831 173.255 221.784 173.74 221.691C174.225 221.579 174.692 221.439 175.14 221.271L175.756 223.623C175.14 223.828 174.459 224.005 173.712 224.155C172.965 224.323 172.172 224.407 171.332 224.407C170.287 224.407 169.409 224.267 168.7 223.987C167.991 223.707 167.412 223.315 166.964 222.811C166.535 222.288 166.217 221.663 166.012 220.935C165.825 220.207 165.732 219.404 165.732 218.527V212.871ZM179.497 204.303H182.745V209.399L182.549 212.339C183.184 211.704 183.893 211.153 184.677 210.687C185.48 210.22 186.413 209.987 187.477 209.987C189.064 209.987 190.23 210.472 190.977 211.443C191.724 212.395 192.097 213.767 192.097 215.559V224.071H188.849V215.979C188.849 214.859 188.653 214.047 188.261 213.543C187.888 213.02 187.225 212.759 186.273 212.759C185.601 212.759 185.004 212.917 184.481 213.235C183.958 213.552 183.38 214.037 182.745 214.691V224.071H179.497V204.303ZM209.11 225.807V228.327H195.67V225.807H209.11ZM212.767 222.335L221.027 212.871H213.719V210.323H225.563V212.031L217.275 221.495H225.815V224.071H212.767V222.335ZM229.304 217.211C229.304 216.091 229.5 215.083 229.892 214.187C230.303 213.291 230.835 212.535 231.488 211.919C232.142 211.284 232.888 210.808 233.728 210.491C234.587 210.155 235.464 209.987 236.36 209.987C237.387 209.987 238.292 210.155 239.076 210.491C239.879 210.808 240.551 211.256 241.092 211.835C241.634 212.395 242.044 213.076 242.324 213.879C242.604 214.681 242.744 215.559 242.744 216.511C242.744 216.828 242.726 217.127 242.688 217.407C242.67 217.687 242.642 217.911 242.604 218.079H232.608C232.72 219.311 233.206 220.263 234.064 220.935C234.923 221.588 235.978 221.915 237.228 221.915C237.938 221.915 238.6 221.821 239.216 221.635C239.832 221.429 240.458 221.149 241.092 220.795L242.184 222.811C241.438 223.277 240.607 223.66 239.692 223.959C238.778 224.257 237.816 224.407 236.808 224.407C235.763 224.407 234.783 224.248 233.868 223.931C232.954 223.595 232.16 223.119 231.488 222.503C230.816 221.887 230.284 221.14 229.892 220.263C229.5 219.367 229.304 218.349 229.304 217.211ZM239.776 215.895C239.776 214.831 239.496 214 238.936 213.403C238.376 212.787 237.546 212.479 236.444 212.479C235.511 212.479 234.68 212.768 233.952 213.347C233.224 213.925 232.767 214.775 232.58 215.895H239.776ZM247.997 210.323H250.657L250.937 213.431H251.021C251.731 212.311 252.58 211.461 253.569 210.883C254.577 210.285 255.679 209.987 256.873 209.987C257.433 209.987 257.909 210.033 258.301 210.127C258.712 210.201 259.123 210.341 259.533 210.547L258.861 213.263C258.413 213.113 258.012 213.011 257.657 212.955C257.321 212.88 256.892 212.843 256.369 212.843C255.417 212.843 254.503 213.113 253.625 213.655C252.748 214.196 251.955 215.139 251.245 216.483V224.071H247.997V210.323ZM262.63 217.211C262.63 216.072 262.817 215.055 263.19 214.159C263.582 213.263 264.096 212.507 264.73 211.891C265.365 211.275 266.102 210.808 266.942 210.491C267.782 210.155 268.65 209.987 269.546 209.987C270.442 209.987 271.31 210.155 272.15 210.491C272.99 210.808 273.728 211.275 274.362 211.891C274.997 212.507 275.501 213.263 275.874 214.159C276.266 215.055 276.462 216.072 276.462 217.211C276.462 218.349 276.266 219.367 275.874 220.263C275.501 221.159 274.997 221.915 274.362 222.531C273.728 223.147 272.99 223.613 272.15 223.931C271.31 224.248 270.442 224.407 269.546 224.407C268.65 224.407 267.782 224.248 266.942 223.931C266.102 223.613 265.365 223.147 264.73 222.531C264.096 221.915 263.582 221.159 263.19 220.263C262.817 219.367 262.63 218.349 262.63 217.211ZM265.962 217.211C265.962 218.592 266.28 219.703 266.914 220.543C267.549 221.364 268.426 221.775 269.546 221.775C270.666 221.775 271.544 221.364 272.178 220.543C272.813 219.703 273.13 218.592 273.13 217.211C273.13 215.811 272.813 214.7 272.178 213.879C271.544 213.039 270.666 212.619 269.546 212.619C268.426 212.619 267.549 213.039 266.914 213.879C266.28 214.7 265.962 215.811 265.962 217.211ZM289.471 229.027C287.586 227.459 286.093 225.611 284.991 223.483C283.909 221.355 283.367 218.956 283.367 216.287C283.367 213.617 283.909 211.219 284.991 209.091C286.093 206.963 287.586 205.115 289.471 203.547L291.263 205.031C289.49 206.636 288.193 208.344 287.371 210.155C286.55 211.965 286.139 214.009 286.139 216.287C286.139 218.564 286.55 220.608 287.371 222.419C288.193 224.229 289.49 225.937 291.263 227.543L289.471 229.027ZM566.821 227.543C568.595 225.937 569.892 224.229 570.713 222.419C571.535 220.608 571.945 218.564 571.945 216.287C571.945 214.009 571.535 211.965 570.713 210.155C569.892 208.344 568.595 206.636 566.821 205.031L568.613 203.547C570.499 205.115 571.983 206.963 573.065 209.091C574.167 211.219 574.717 213.617 574.717 216.287C574.717 218.956 574.167 221.355 573.065 223.483C571.983 225.611 570.499 227.459 568.613 229.027L566.821 227.543Z" fill="#2E383C"/>
<path d="M301.556 224.463C301.556 223.959 301.566 223.501 301.584 223.091C301.622 222.661 301.659 222.251 301.696 221.859C301.734 221.467 301.762 221.075 301.78 220.683C301.818 220.272 301.836 219.833 301.836 219.367C301.836 219.124 301.78 218.881 301.668 218.639C301.556 218.377 301.351 218.153 301.052 217.967C300.754 217.761 300.343 217.593 299.82 217.463C299.316 217.332 298.672 217.267 297.888 217.267V215.307C298.672 215.307 299.316 215.241 299.82 215.111C300.343 214.98 300.754 214.821 301.052 214.635C301.351 214.429 301.556 214.205 301.668 213.963C301.78 213.72 301.836 213.468 301.836 213.207C301.836 212.329 301.79 211.508 301.696 210.743C301.603 209.959 301.556 209.081 301.556 208.111C301.556 207.364 301.659 206.748 301.864 206.263C302.07 205.759 302.387 205.357 302.816 205.059C303.246 204.76 303.787 204.555 304.44 204.443C305.094 204.312 305.868 204.247 306.764 204.247H308.696V206.011H307.408C306.755 206.011 306.223 206.048 305.812 206.123C305.402 206.197 305.075 206.328 304.832 206.515C304.608 206.683 304.45 206.916 304.356 207.215C304.282 207.495 304.244 207.84 304.244 208.251C304.244 209.035 304.263 209.819 304.3 210.603C304.356 211.387 304.384 212.208 304.384 213.067C304.384 214.056 304.188 214.793 303.796 215.279C303.404 215.745 302.714 216.063 301.724 216.231V216.343C302.714 216.511 303.404 216.837 303.796 217.323C304.188 217.789 304.384 218.517 304.384 219.507C304.384 220.403 304.356 221.224 304.3 221.971C304.263 222.717 304.244 223.501 304.244 224.323C304.244 224.752 304.282 225.107 304.356 225.387C304.45 225.667 304.608 225.891 304.832 226.059C305.075 226.245 305.402 226.376 305.812 226.451C306.223 226.525 306.755 226.563 307.408 226.563H308.696V228.327H306.764C305.868 228.327 305.094 228.261 304.44 228.131C303.787 228.019 303.246 227.813 302.816 227.515C302.387 227.216 302.07 226.815 301.864 226.311C301.659 225.825 301.556 225.209 301.556 224.463ZM325.934 224.071H323.302L323.05 221.887H322.938C322.284 222.652 321.566 223.268 320.782 223.735C319.998 224.183 319.092 224.407 318.066 224.407C316.46 224.407 315.294 223.931 314.566 222.979C313.838 222.008 313.474 220.627 313.474 218.835V210.323H316.694V218.415C316.694 219.535 316.88 220.356 317.254 220.879C317.646 221.383 318.318 221.635 319.27 221.635C319.923 221.635 320.502 221.485 321.006 221.187C321.528 220.888 322.098 220.356 322.714 219.591V210.323H325.934V224.071ZM330.599 210.323H333.259L333.511 212.395H333.623C334.276 211.741 334.995 211.181 335.779 210.715C336.581 210.229 337.515 209.987 338.579 209.987C340.165 209.987 341.332 210.472 342.079 211.443C342.825 212.395 343.199 213.767 343.199 215.559V224.071H339.951V215.979C339.951 214.859 339.755 214.047 339.363 213.543C338.989 213.02 338.327 212.759 337.375 212.759C336.703 212.759 336.105 212.917 335.583 213.235C335.06 213.552 334.481 214.037 333.847 214.691V224.071H330.599V210.323ZM347.388 210.323H350.048L350.3 212.395H350.412C351.065 211.741 351.784 211.181 352.568 210.715C353.37 210.229 354.304 209.987 355.368 209.987C356.954 209.987 358.121 210.472 358.868 211.443C359.614 212.395 359.988 213.767 359.988 215.559V224.071H356.74V215.979C356.74 214.859 356.544 214.047 356.152 213.543C355.778 213.02 355.116 212.759 354.164 212.759C353.492 212.759 352.894 212.917 352.372 213.235C351.849 213.552 351.27 214.037 350.636 214.691V224.071H347.388V210.323ZM363.869 220.375C363.869 219.609 364.046 218.937 364.401 218.359C364.755 217.761 365.315 217.257 366.081 216.847C366.846 216.436 367.826 216.1 369.021 215.839C370.215 215.577 371.662 215.391 373.361 215.279C373.305 214.495 373.025 213.851 372.521 213.347C372.017 212.843 371.205 212.591 370.085 212.591C369.301 212.591 368.526 212.74 367.761 213.039C367.014 213.319 366.286 213.655 365.577 214.047L364.401 211.891C365.241 211.405 366.202 210.967 367.285 210.575C368.367 210.183 369.497 209.987 370.673 209.987C372.595 209.987 374.061 210.5 375.069 211.527C376.077 212.535 376.581 214 376.581 215.923V224.071H373.949L373.697 222.363H373.613C372.885 222.923 372.073 223.408 371.177 223.819C370.299 224.211 369.394 224.407 368.461 224.407C367.789 224.407 367.173 224.304 366.613 224.099C366.053 223.912 365.567 223.641 365.157 223.287C364.746 222.932 364.429 222.512 364.205 222.027C363.981 221.523 363.869 220.972 363.869 220.375ZM366.977 220.123C366.977 220.739 367.21 221.187 367.677 221.467C368.162 221.747 368.75 221.887 369.441 221.887C370.131 221.887 370.794 221.737 371.429 221.439C372.082 221.121 372.726 220.711 373.361 220.207V217.295C372.129 217.388 371.102 217.519 370.281 217.687C369.459 217.836 368.806 218.032 368.321 218.275C367.835 218.517 367.49 218.797 367.285 219.115C367.079 219.413 366.977 219.749 366.977 220.123ZM380.014 210.323H382.45L382.702 212.087H382.786C383.103 211.489 383.486 210.995 383.934 210.603C384.4 210.192 385.026 209.987 385.81 209.987C387.154 209.987 387.994 210.752 388.33 212.283C388.647 211.629 389.048 211.088 389.534 210.659C390.038 210.211 390.672 209.987 391.438 209.987C392.408 209.987 393.155 210.369 393.678 211.135C394.219 211.881 394.49 212.945 394.49 214.327V224.071H391.438V214.579C391.438 213.365 391.055 212.759 390.29 212.759C389.916 212.759 389.59 212.899 389.31 213.179C389.03 213.459 388.759 213.888 388.498 214.467V224.071H385.978V214.579C385.978 213.365 385.586 212.759 384.802 212.759C384.428 212.759 384.111 212.899 383.85 213.179C383.588 213.459 383.327 213.888 383.066 214.467V224.071H380.014V210.323ZM397.195 217.211C397.195 216.091 397.391 215.083 397.783 214.187C398.194 213.291 398.726 212.535 399.379 211.919C400.032 211.284 400.779 210.808 401.619 210.491C402.478 210.155 403.355 209.987 404.251 209.987C405.278 209.987 406.183 210.155 406.967 210.491C407.77 210.808 408.442 211.256 408.983 211.835C409.524 212.395 409.935 213.076 410.215 213.879C410.495 214.681 410.635 215.559 410.635 216.511C410.635 216.828 410.616 217.127 410.579 217.407C410.56 217.687 410.532 217.911 410.495 218.079H400.499C400.611 219.311 401.096 220.263 401.955 220.935C402.814 221.588 403.868 221.915 405.119 221.915C405.828 221.915 406.491 221.821 407.107 221.635C407.723 221.429 408.348 221.149 408.983 220.795L410.075 222.811C409.328 223.277 408.498 223.66 407.583 223.959C406.668 224.257 405.707 224.407 404.699 224.407C403.654 224.407 402.674 224.248 401.759 223.931C400.844 223.595 400.051 223.119 399.379 222.503C398.707 221.887 398.175 221.14 397.783 220.263C397.391 219.367 397.195 218.349 397.195 217.211ZM407.667 215.895C407.667 214.831 407.387 214 406.827 213.403C406.267 212.787 405.436 212.479 404.335 212.479C403.402 212.479 402.571 212.768 401.843 213.347C401.115 213.925 400.658 214.775 400.471 215.895H407.667ZM413.732 217.211C413.732 216.091 413.9 215.083 414.236 214.187C414.572 213.291 415.02 212.535 415.58 211.919C416.159 211.303 416.812 210.827 417.54 210.491C418.268 210.155 419.024 209.987 419.808 209.987C420.629 209.987 421.329 210.136 421.908 210.435C422.505 210.715 423.084 211.107 423.644 211.611L423.504 209.287V204.303H426.752V224.071H424.092L423.84 222.475H423.756C423.215 223.016 422.58 223.473 421.852 223.847C421.143 224.22 420.396 224.407 419.612 224.407C418.735 224.407 417.932 224.248 417.204 223.931C416.476 223.595 415.851 223.119 415.328 222.503C414.824 221.887 414.432 221.14 414.152 220.263C413.872 219.367 413.732 218.349 413.732 217.211ZM417.064 217.183C417.064 218.676 417.353 219.815 417.932 220.599C418.511 221.364 419.332 221.747 420.396 221.747C421.535 221.747 422.571 221.196 423.504 220.095V213.907C423.019 213.44 422.533 213.113 422.048 212.927C421.563 212.74 421.068 212.647 420.564 212.647C420.079 212.647 419.621 212.749 419.192 212.955C418.781 213.16 418.417 213.459 418.1 213.851C417.783 214.224 417.531 214.691 417.344 215.251C417.157 215.811 417.064 216.455 417.064 217.183ZM447.814 204.303H455.374V219.227C455.374 220.16 455.607 220.823 456.074 221.215C456.541 221.588 457.129 221.775 457.838 221.775C458.51 221.775 459.294 221.597 460.19 221.243L460.946 223.623C460.293 223.847 459.677 224.033 459.098 224.183C458.538 224.332 457.857 224.407 457.054 224.407C455.43 224.407 454.207 223.94 453.386 223.007C452.565 222.073 452.154 220.757 452.154 219.059V206.851H447.814V204.303ZM464.603 220.375C464.603 219.609 464.78 218.937 465.135 218.359C465.49 217.761 466.05 217.257 466.815 216.847C467.58 216.436 468.56 216.1 469.755 215.839C470.95 215.577 472.396 215.391 474.095 215.279C474.039 214.495 473.759 213.851 473.255 213.347C472.751 212.843 471.939 212.591 470.819 212.591C470.035 212.591 469.26 212.74 468.495 213.039C467.748 213.319 467.02 213.655 466.311 214.047L465.135 211.891C465.975 211.405 466.936 210.967 468.019 210.575C469.102 210.183 470.231 209.987 471.407 209.987C473.33 209.987 474.795 210.5 475.803 211.527C476.811 212.535 477.315 214 477.315 215.923V224.071H474.683L474.431 222.363H474.347C473.619 222.923 472.807 223.408 471.911 223.819C471.034 224.211 470.128 224.407 469.195 224.407C468.523 224.407 467.907 224.304 467.347 224.099C466.787 223.912 466.302 223.641 465.891 223.287C465.48 222.932 465.163 222.512 464.939 222.027C464.715 221.523 464.603 220.972 464.603 220.375ZM467.711 220.123C467.711 220.739 467.944 221.187 468.411 221.467C468.896 221.747 469.484 221.887 470.175 221.887C470.866 221.887 471.528 221.737 472.163 221.439C472.816 221.121 473.46 220.711 474.095 220.207V217.295C472.863 217.388 471.836 217.519 471.015 217.687C470.194 217.836 469.54 218.032 469.055 218.275C468.57 218.517 468.224 218.797 468.019 219.115C467.814 219.413 467.711 219.749 467.711 220.123ZM480.748 210.323H483.184L483.436 212.087H483.52C483.838 211.489 484.22 210.995 484.668 210.603C485.135 210.192 485.76 209.987 486.544 209.987C487.888 209.987 488.728 210.752 489.064 212.283C489.382 211.629 489.783 211.088 490.268 210.659C490.772 210.211 491.407 209.987 492.172 209.987C493.143 209.987 493.89 210.369 494.412 211.135C494.954 211.881 495.224 212.945 495.224 214.327V224.071H492.172V214.579C492.172 213.365 491.79 212.759 491.024 212.759C490.651 212.759 490.324 212.899 490.044 213.179C489.764 213.459 489.494 213.888 489.232 214.467V224.071H486.712V214.579C486.712 213.365 486.32 212.759 485.536 212.759C485.163 212.759 484.846 212.899 484.584 213.179C484.323 213.459 484.062 213.888 483.8 214.467V224.071H480.748V210.323ZM498.489 204.303H501.737V209.399L501.625 211.807C502.223 211.247 502.895 210.808 503.641 210.491C504.388 210.155 505.135 209.987 505.881 209.987C506.777 209.987 507.571 210.155 508.261 210.491C508.952 210.808 509.54 211.275 510.025 211.891C510.511 212.488 510.875 213.216 511.117 214.075C511.379 214.933 511.509 215.895 511.509 216.959C511.509 218.135 511.341 219.189 511.005 220.123C510.669 221.037 510.212 221.812 509.633 222.447C509.073 223.081 508.42 223.567 507.673 223.903C506.945 224.239 506.189 224.407 505.405 224.407C504.752 224.407 504.071 224.248 503.361 223.931C502.652 223.613 501.999 223.156 501.401 222.559H501.317L501.037 224.071H498.489V204.303ZM501.737 220.487C502.241 220.953 502.764 221.28 503.305 221.467C503.847 221.653 504.332 221.747 504.761 221.747C505.732 221.747 506.544 221.355 507.197 220.571C507.851 219.768 508.177 218.583 508.177 217.015C508.177 215.633 507.925 214.56 507.421 213.795C506.917 213.029 506.105 212.647 504.985 212.647C504.463 212.647 503.931 212.777 503.389 213.039C502.848 213.3 502.297 213.72 501.737 214.299V220.487ZM514.466 217.211C514.466 216.091 514.634 215.083 514.97 214.187C515.306 213.291 515.754 212.535 516.314 211.919C516.893 211.303 517.546 210.827 518.274 210.491C519.002 210.155 519.758 209.987 520.542 209.987C521.364 209.987 522.064 210.136 522.642 210.435C523.24 210.715 523.818 211.107 524.378 211.611L524.238 209.287V204.303H527.486V224.071H524.826L524.574 222.475H524.49C523.949 223.016 523.314 223.473 522.586 223.847C521.877 224.22 521.13 224.407 520.346 224.407C519.469 224.407 518.666 224.248 517.938 223.931C517.21 223.595 516.585 223.119 516.062 222.503C515.558 221.887 515.166 221.14 514.886 220.263C514.606 219.367 514.466 218.349 514.466 217.211ZM517.798 217.183C517.798 218.676 518.088 219.815 518.666 220.599C519.245 221.364 520.066 221.747 521.13 221.747C522.269 221.747 523.305 221.196 524.238 220.095V213.907C523.753 213.44 523.268 213.113 522.782 212.927C522.297 212.74 521.802 212.647 521.298 212.647C520.813 212.647 520.356 212.749 519.926 212.955C519.516 213.16 519.152 213.459 518.834 213.851C518.517 214.224 518.265 214.691 518.078 215.251C517.892 215.811 517.798 216.455 517.798 217.183ZM531.759 220.375C531.759 219.609 531.937 218.937 532.291 218.359C532.646 217.761 533.206 217.257 533.971 216.847C534.737 216.436 535.717 216.1 536.911 215.839C538.106 215.577 539.553 215.391 541.251 215.279C541.195 214.495 540.915 213.851 540.411 213.347C539.907 212.843 539.095 212.591 537.975 212.591C537.191 212.591 536.417 212.74 535.651 213.039C534.905 213.319 534.177 213.655 533.467 214.047L532.291 211.891C533.131 211.405 534.093 210.967 535.175 210.575C536.258 210.183 537.387 209.987 538.563 209.987C540.486 209.987 541.951 210.5 542.959 211.527C543.967 212.535 544.471 214 544.471 215.923V224.071H541.839L541.587 222.363H541.503C540.775 222.923 539.963 223.408 539.067 223.819C538.19 224.211 537.285 224.407 536.351 224.407C535.679 224.407 535.063 224.304 534.503 224.099C533.943 223.912 533.458 223.641 533.047 223.287C532.637 222.932 532.319 222.512 532.095 222.027C531.871 221.523 531.759 220.972 531.759 220.375ZM534.867 220.123C534.867 220.739 535.101 221.187 535.567 221.467C536.053 221.747 536.641 221.887 537.331 221.887C538.022 221.887 538.685 221.737 539.319 221.439C539.973 221.121 540.617 220.711 541.251 220.207V217.295C540.019 217.388 538.993 217.519 538.171 217.687C537.35 217.836 536.697 218.032 536.211 218.275C535.726 218.517 535.381 218.797 535.175 219.115C534.97 219.413 534.867 219.749 534.867 220.123ZM550.704 226.563C551.339 226.563 551.862 226.525 552.272 226.451C552.683 226.376 553.01 226.245 553.252 226.059C553.495 225.891 553.654 225.667 553.728 225.387C553.822 225.107 553.868 224.752 553.868 224.323C553.868 223.501 553.84 222.717 553.784 221.971C553.747 221.224 553.728 220.403 553.728 219.507C553.728 218.517 553.915 217.789 554.288 217.323C554.68 216.837 555.38 216.511 556.388 216.343V216.231C555.38 216.063 554.68 215.745 554.288 215.279C553.915 214.793 553.728 214.056 553.728 213.067C553.728 212.208 553.747 211.387 553.784 210.603C553.84 209.819 553.868 209.035 553.868 208.251C553.868 207.84 553.822 207.495 553.728 207.215C553.654 206.916 553.495 206.683 553.252 206.515C553.01 206.328 552.683 206.197 552.272 206.123C551.862 206.048 551.339 206.011 550.704 206.011H549.416V204.247H551.348C552.244 204.247 553.01 204.312 553.644 204.443C554.298 204.555 554.839 204.76 555.268 205.059C555.698 205.357 556.015 205.759 556.22 206.263C556.426 206.748 556.528 207.364 556.528 208.111C556.528 209.081 556.482 209.959 556.388 210.743C556.295 211.508 556.248 212.329 556.248 213.207C556.248 213.468 556.304 213.72 556.416 213.963C556.528 214.205 556.734 214.429 557.032 214.635C557.331 214.821 557.732 214.98 558.236 215.111C558.759 215.241 559.412 215.307 560.196 215.307V217.267C559.412 217.267 558.759 217.332 558.236 217.463C557.732 217.593 557.331 217.761 557.032 217.967C556.734 218.153 556.528 218.377 556.416 218.639C556.304 218.881 556.248 219.124 556.248 219.367C556.248 219.833 556.258 220.272 556.276 220.683C556.314 221.075 556.351 221.467 556.388 221.859C556.426 222.251 556.454 222.661 556.472 223.091C556.51 223.501 556.528 223.959 556.528 224.463C556.528 225.209 556.426 225.825 556.22 226.311C556.015 226.815 555.698 227.216 555.268 227.515C554.839 227.813 554.298 228.019 553.644 228.131C553.01 228.261 552.244 228.327 551.348 228.327H549.416V226.563H550.704Z" fill="#56CCF2"/>
<path d="M737.555 50H734.998L738.457 30.0938H741.014L737.555 50ZM746.852 35.1934L746.496 37.0664C747.827 35.6081 749.34 34.8971 751.035 34.9336C752.43 34.9701 753.46 35.4531 754.125 36.3828C754.79 37.3125 755.036 38.6204 754.863 40.3066L753.25 50H750.775L752.402 40.2656C752.457 39.819 752.462 39.4043 752.416 39.0215C752.261 37.7454 751.509 37.0938 750.16 37.0664C748.674 37.0391 747.371 37.832 746.25 39.4453L744.418 50H741.943L744.514 35.207L746.852 35.1934ZM759.744 50H757.283L759.854 35.207H762.314L759.744 50ZM761.781 29.8066C762.201 29.7884 762.547 29.916 762.82 30.1895C763.103 30.4538 763.244 30.8047 763.244 31.2422C763.235 31.6706 763.094 32.0215 762.82 32.2949C762.556 32.5684 762.21 32.7142 761.781 32.7324C761.353 32.7507 761.002 32.6276 760.729 32.3633C760.455 32.099 760.323 31.7526 760.332 31.3242C760.341 30.8958 760.478 30.5404 760.742 30.2578C761.007 29.9753 761.353 29.8249 761.781 29.8066ZM770.326 31.625L769.697 35.207H772.391L772.049 37.1621H769.369L767.824 46.3633C767.797 46.6003 767.792 46.819 767.811 47.0195C767.874 47.7305 768.262 48.0859 768.973 48.0859C769.273 48.0859 769.674 48.0404 770.176 47.9492L769.984 50.0137C769.392 50.1777 768.79 50.2598 768.18 50.2598C767.195 50.2415 766.457 49.8815 765.965 49.1797C765.473 48.4688 765.281 47.5163 765.391 46.3223L766.895 37.1621H764.283L764.625 35.207H767.236L767.865 31.625H770.326ZM775.494 50H773.033L775.604 35.207H778.064L775.494 50ZM777.531 29.8066C777.951 29.7884 778.297 29.916 778.57 30.1895C778.853 30.4538 778.994 30.8047 778.994 31.2422C778.985 31.6706 778.844 32.0215 778.57 32.2949C778.306 32.5684 777.96 32.7142 777.531 32.7324C777.103 32.7507 776.752 32.6276 776.479 32.3633C776.205 32.099 776.073 31.7526 776.082 31.3242C776.091 30.8958 776.228 30.5404 776.492 30.2578C776.757 29.9753 777.103 29.8249 777.531 29.8066ZM788.592 50C788.528 49.7357 788.496 49.4759 788.496 49.2207L788.537 48.4414C787.179 49.6992 785.739 50.3099 784.217 50.2734C782.913 50.2552 781.852 49.8451 781.031 49.043C780.22 48.2318 779.851 47.2201 779.924 46.0078C780.015 44.4401 780.699 43.2188 781.975 42.3438C783.26 41.4596 784.946 41.0176 787.033 41.0176L789.617 41.0312L789.781 39.8555C789.872 38.9714 789.699 38.2741 789.262 37.7637C788.833 37.2441 788.186 36.9753 787.32 36.957C786.473 36.9388 785.721 37.1484 785.064 37.5859C784.417 38.0143 784.021 38.584 783.875 39.2949L781.387 39.3086C781.469 38.4427 781.806 37.6771 782.398 37.0117C782.991 36.3372 783.752 35.8177 784.682 35.4531C785.611 35.0794 786.573 34.9017 787.566 34.9199C789.107 34.9564 790.305 35.4258 791.162 36.3281C792.019 37.2214 792.379 38.4108 792.242 39.8965L791.039 47.2246L790.971 48.2773C790.952 48.7786 791.007 49.2754 791.135 49.7676L791.107 50H788.592ZM784.709 48.0859C785.502 48.1042 786.249 47.9173 786.951 47.5254C787.662 47.1243 788.273 46.5729 788.783 45.8711L789.316 42.8223L787.443 42.8086C785.885 42.8086 784.691 43.0547 783.861 43.5469C783.032 44.0391 782.562 44.7363 782.453 45.6387C782.371 46.3314 782.531 46.9102 782.932 47.375C783.342 47.8307 783.934 48.0677 784.709 48.0859ZM797.15 50H794.689L798.326 29H800.801L797.15 50ZM814.309 48.2227C815.193 48.2409 815.99 47.9857 816.701 47.457C817.412 46.9193 817.877 46.2174 818.096 45.3516L820.434 45.3379C820.297 46.2676 819.923 47.1152 819.312 47.8809C818.711 48.6465 817.95 49.2435 817.029 49.6719C816.109 50.1003 815.165 50.3008 814.199 50.2734C812.969 50.2552 811.925 49.9362 811.068 49.3164C810.221 48.6875 809.596 47.8171 809.195 46.7051C808.794 45.584 808.658 44.3262 808.785 42.9316L808.854 42.248C809.027 40.8262 809.441 39.5547 810.098 38.4336C810.754 37.3125 811.611 36.4421 812.668 35.8223C813.725 35.1934 814.892 34.8971 816.168 34.9336C817.717 34.9701 818.957 35.4896 819.887 36.4922C820.816 37.4948 821.281 38.7663 821.281 40.3066L818.971 40.293C818.952 39.3268 818.684 38.5475 818.164 37.9551C817.645 37.3535 816.943 37.0345 816.059 36.998C814.773 36.9707 813.702 37.4492 812.846 38.4336C811.998 39.418 811.469 40.7943 811.26 42.5625L811.219 42.918C811.164 43.5013 811.155 44.1029 811.191 44.7227C811.255 45.7891 811.556 46.6322 812.094 47.252C812.632 47.8717 813.37 48.1953 814.309 48.2227ZM830.633 34.9336C831.872 34.9518 832.934 35.2891 833.818 35.9453C834.702 36.6016 835.354 37.5085 835.773 38.666C836.202 39.8145 836.348 41.0723 836.211 42.4395L836.184 42.7402C836.01 44.1803 835.582 45.4837 834.898 46.6504C834.215 47.8079 833.331 48.7103 832.246 49.3574C831.161 50.0046 829.972 50.3099 828.678 50.2734C827.447 50.2552 826.385 49.918 825.492 49.2617C824.608 48.6055 823.961 47.7122 823.551 46.582C823.141 45.4518 822.995 44.2077 823.113 42.8496C823.25 41.3184 823.665 39.9421 824.357 38.7207C825.05 37.4993 825.939 36.556 827.023 35.8906C828.117 35.2161 829.32 34.8971 830.633 34.9336ZM825.602 42.8633C825.538 43.4375 825.538 44.0345 825.602 44.6543C825.693 45.7298 826.012 46.5866 826.559 47.2246C827.115 47.8626 827.853 48.1953 828.773 48.2227C829.594 48.25 830.35 48.0495 831.043 47.6211C831.736 47.1836 832.319 46.5273 832.793 45.6523C833.267 44.7773 833.572 43.8066 833.709 42.7402C833.782 41.9017 833.796 41.1953 833.75 40.6211C833.641 39.5182 833.308 38.6478 832.752 38.0098C832.196 37.3717 831.458 37.0345 830.537 36.998C829.261 36.9707 828.176 37.472 827.283 38.502C826.39 39.5319 825.839 40.8809 825.629 42.5488L825.602 42.8633ZM838.768 42.5762C838.95 41.0723 839.365 39.7142 840.012 38.502C840.659 37.2897 841.456 36.3828 842.404 35.7812C843.352 35.1797 844.396 34.8926 845.535 34.9199C847.185 34.9564 848.452 35.5579 849.336 36.7246L850.758 29H853.232L849.596 50H847.34L847.6 48.4141C846.433 49.6901 844.993 50.3099 843.279 50.2734C841.912 50.237 840.823 49.7038 840.012 48.6738C839.201 47.6348 838.763 46.2448 838.699 44.5039C838.672 43.9661 838.695 43.3236 838.768 42.5762ZM841.146 43.998C841.119 45.3014 841.352 46.3132 841.844 47.0332C842.336 47.7533 843.056 48.1224 844.004 48.1406C845.435 48.2044 846.706 47.4844 847.818 45.9805L848.994 39.1445C848.447 37.7956 847.454 37.1029 846.014 37.0664C845.038 37.0391 844.177 37.3353 843.43 37.9551C842.691 38.5658 842.126 39.4271 841.734 40.5391C841.352 41.6419 841.156 42.7949 841.146 43.998ZM859.904 50.2734C858.063 50.237 856.623 49.5579 855.584 48.2363C854.545 46.9147 854.107 45.224 854.271 43.1641L854.34 42.5762C854.495 41.1087 854.928 39.7689 855.639 38.5566C856.359 37.3444 857.234 36.4329 858.264 35.8223C859.294 35.2025 860.406 34.9062 861.6 34.9336C863.122 34.9701 864.316 35.4759 865.182 36.4512C866.048 37.4264 866.521 38.748 866.604 40.416C866.631 41.0085 866.613 41.6009 866.549 42.1934L866.398 43.3281H856.732C856.568 44.668 856.787 45.8073 857.389 46.7461C857.999 47.6849 858.906 48.1725 860.109 48.209C861.568 48.2454 862.917 47.5892 864.156 46.2402L865.578 47.4434C864.958 48.3366 864.156 49.0384 863.172 49.5488C862.197 50.0501 861.107 50.2917 859.904 50.2734ZM861.477 36.998C860.456 36.9707 859.562 37.3171 858.797 38.0371C858.04 38.7572 857.439 39.8281 856.992 41.25L864.184 41.2637L864.238 41.0449C864.384 39.8965 864.197 38.944 863.678 38.1875C863.167 37.4219 862.434 37.0254 861.477 36.998Z" fill="black"/>
<path d="M751.24 162.254H745.047L741.971 180H739.414L742.49 162.254H736.297L736.68 160.094H751.623L751.24 162.254ZM755.396 167.012C756.691 165.599 758.181 164.911 759.867 164.947C761.253 164.965 762.278 165.444 762.943 166.383C763.618 167.312 763.868 168.62 763.695 170.307L762.082 180H759.607L761.234 170.266C761.289 169.819 761.294 169.404 761.248 169.021C761.093 167.745 760.341 167.094 758.992 167.066C757.479 167.03 756.176 167.823 755.082 169.445L753.25 180H750.775L754.426 159H756.9L755.396 167.012ZM772.268 180.273C770.426 180.237 768.986 179.558 767.947 178.236C766.908 176.915 766.471 175.224 766.635 173.164L766.703 172.576C766.858 171.109 767.291 169.769 768.002 168.557C768.722 167.344 769.597 166.433 770.627 165.822C771.657 165.202 772.769 164.906 773.963 164.934C775.485 164.97 776.679 165.476 777.545 166.451C778.411 167.426 778.885 168.748 778.967 170.416C778.994 171.008 778.976 171.601 778.912 172.193L778.762 173.328H769.096C768.932 174.668 769.15 175.807 769.752 176.746C770.363 177.685 771.27 178.173 772.473 178.209C773.931 178.245 775.28 177.589 776.52 176.24L777.941 177.443C777.322 178.337 776.52 179.038 775.535 179.549C774.56 180.05 773.471 180.292 772.268 180.273ZM773.84 166.998C772.819 166.971 771.926 167.317 771.16 168.037C770.404 168.757 769.802 169.828 769.355 171.25L776.547 171.264L776.602 171.045C776.747 169.896 776.561 168.944 776.041 168.188C775.531 167.422 774.797 167.025 773.84 166.998ZM789.932 180H787.471L791.107 159H793.582L789.932 180ZM803.029 180C802.965 179.736 802.934 179.476 802.934 179.221L802.975 178.441C801.617 179.699 800.176 180.31 798.654 180.273C797.351 180.255 796.289 179.845 795.469 179.043C794.658 178.232 794.288 177.22 794.361 176.008C794.452 174.44 795.136 173.219 796.412 172.344C797.697 171.46 799.383 171.018 801.471 171.018L804.055 171.031L804.219 169.855C804.31 168.971 804.137 168.274 803.699 167.764C803.271 167.244 802.624 166.975 801.758 166.957C800.91 166.939 800.158 167.148 799.502 167.586C798.855 168.014 798.458 168.584 798.312 169.295L795.824 169.309C795.906 168.443 796.243 167.677 796.836 167.012C797.428 166.337 798.189 165.818 799.119 165.453C800.049 165.079 801.01 164.902 802.004 164.92C803.544 164.956 804.743 165.426 805.6 166.328C806.456 167.221 806.816 168.411 806.68 169.896L805.477 177.225L805.408 178.277C805.39 178.779 805.445 179.275 805.572 179.768L805.545 180H803.029ZM799.146 178.086C799.939 178.104 800.687 177.917 801.389 177.525C802.1 177.124 802.71 176.573 803.221 175.871L803.754 172.822L801.881 172.809C800.322 172.809 799.128 173.055 798.299 173.547C797.469 174.039 797 174.736 796.891 175.639C796.809 176.331 796.968 176.91 797.369 177.375C797.779 177.831 798.372 178.068 799.146 178.086ZM813.789 165.193L813.475 166.848C814.714 165.535 816.214 164.897 817.973 164.934C818.911 164.952 819.704 165.166 820.352 165.576C821.008 165.986 821.459 166.565 821.705 167.312C823.09 165.69 824.727 164.897 826.613 164.934C828.09 164.97 829.179 165.467 829.881 166.424C830.583 167.381 830.842 168.666 830.66 170.279L829.033 180H826.572L828.186 170.252C828.24 169.778 828.24 169.345 828.186 168.953C828.012 167.714 827.201 167.08 825.752 167.053C824.85 167.035 824.029 167.317 823.291 167.9C822.562 168.475 822.092 169.231 821.883 170.17L820.201 180H817.713L819.354 170.266C819.472 169.254 819.317 168.475 818.889 167.928C818.469 167.381 817.813 167.098 816.92 167.08C815.38 167.044 814.154 167.745 813.242 169.186L811.369 180H808.895L811.465 165.207L813.789 165.193ZM846.287 172.672C846.105 174.185 845.69 175.548 845.043 176.76C844.396 177.972 843.612 178.87 842.691 179.453C841.771 180.036 840.75 180.314 839.629 180.287C837.842 180.251 836.516 179.581 835.65 178.277L835.145 180H832.861L836.512 159H838.986L837.496 166.848C838.681 165.535 840.121 164.897 841.816 164.934C843.238 164.97 844.346 165.494 845.139 166.506C845.932 167.518 846.351 168.912 846.396 170.689C846.406 171.273 846.378 171.838 846.314 172.385L846.287 172.672ZM843.936 171.236C843.963 169.906 843.74 168.889 843.266 168.188C842.792 167.477 842.067 167.103 841.092 167.066C839.551 167.03 838.248 167.805 837.182 169.391L836.074 175.83C836.621 177.334 837.646 178.104 839.15 178.141C840.117 178.177 840.96 177.89 841.68 177.279C842.409 176.669 842.96 175.816 843.334 174.723C843.708 173.62 843.908 172.458 843.936 171.236ZM848.967 172.576C849.149 171.072 849.564 169.714 850.211 168.502C850.858 167.29 851.656 166.383 852.604 165.781C853.551 165.18 854.595 164.893 855.734 164.92C857.384 164.956 858.651 165.558 859.535 166.725L860.957 159H863.432L859.795 180H857.539L857.799 178.414C856.632 179.69 855.192 180.31 853.479 180.273C852.111 180.237 851.022 179.704 850.211 178.674C849.4 177.635 848.962 176.245 848.898 174.504C848.871 173.966 848.894 173.324 848.967 172.576ZM851.346 173.998C851.318 175.301 851.551 176.313 852.043 177.033C852.535 177.753 853.255 178.122 854.203 178.141C855.634 178.204 856.906 177.484 858.018 175.98L859.193 169.145C858.646 167.796 857.653 167.103 856.213 167.066C855.238 167.039 854.376 167.335 853.629 167.955C852.891 168.566 852.326 169.427 851.934 170.539C851.551 171.642 851.355 172.795 851.346 173.998ZM872.756 180C872.692 179.736 872.66 179.476 872.66 179.221L872.701 178.441C871.343 179.699 869.903 180.31 868.381 180.273C867.077 180.255 866.016 179.845 865.195 179.043C864.384 178.232 864.015 177.22 864.088 176.008C864.179 174.44 864.863 173.219 866.139 172.344C867.424 171.46 869.11 171.018 871.197 171.018L873.781 171.031L873.945 169.855C874.036 168.971 873.863 168.274 873.426 167.764C872.997 167.244 872.35 166.975 871.484 166.957C870.637 166.939 869.885 167.148 869.229 167.586C868.581 168.014 868.185 168.584 868.039 169.295L865.551 169.309C865.633 168.443 865.97 167.677 866.562 167.012C867.155 166.337 867.916 165.818 868.846 165.453C869.775 165.079 870.737 164.902 871.73 164.92C873.271 164.956 874.469 165.426 875.326 166.328C876.183 167.221 876.543 168.411 876.406 169.896L875.203 177.225L875.135 178.277C875.117 178.779 875.171 179.275 875.299 179.768L875.271 180H872.756ZM868.873 178.086C869.666 178.104 870.413 177.917 871.115 177.525C871.826 177.124 872.437 176.573 872.947 175.871L873.48 172.822L871.607 172.809C870.049 172.809 868.855 173.055 868.025 173.547C867.196 174.039 866.727 174.736 866.617 175.639C866.535 176.331 866.695 176.91 867.096 177.375C867.506 177.831 868.098 178.068 868.873 178.086ZM886.701 180L888.943 167.162H886.66L887.002 165.207H889.271L889.518 163.457C889.755 161.971 890.329 160.809 891.24 159.971C892.197 159.096 893.419 158.667 894.904 158.686C895.369 158.686 895.957 158.763 896.668 158.918L896.367 160.982C895.93 160.891 895.488 160.837 895.041 160.818C894.184 160.818 893.487 161.087 892.949 161.625C892.421 162.154 892.092 162.86 891.965 163.744L891.746 165.207H894.809L894.467 167.162H891.404L889.176 180H886.701ZM904.461 178.537C903.303 179.731 901.831 180.31 900.045 180.273C898.632 180.237 897.584 179.731 896.9 178.756C896.226 177.781 895.975 176.45 896.148 174.764L897.734 165.207H900.209L898.609 174.805C898.564 175.206 898.555 175.598 898.582 175.98C898.628 176.637 898.824 177.152 899.17 177.525C899.516 177.899 899.999 178.1 900.619 178.127C902.387 178.182 903.755 177.466 904.721 175.98L906.58 165.207H909.055L906.484 180H904.146L904.461 178.537ZM915.098 165.193L914.742 167.066C916.073 165.608 917.586 164.897 919.281 164.934C920.676 164.97 921.706 165.453 922.371 166.383C923.036 167.312 923.283 168.62 923.109 170.307L921.496 180H919.021L920.648 170.266C920.703 169.819 920.708 169.404 920.662 169.021C920.507 167.745 919.755 167.094 918.406 167.066C916.921 167.039 915.617 167.832 914.496 169.445L912.664 180H910.189L912.76 165.207L915.098 165.193ZM931.559 178.223C932.443 178.241 933.24 177.986 933.951 177.457C934.662 176.919 935.127 176.217 935.346 175.352L937.684 175.338C937.547 176.268 937.173 177.115 936.562 177.881C935.961 178.646 935.2 179.243 934.279 179.672C933.359 180.1 932.415 180.301 931.449 180.273C930.219 180.255 929.175 179.936 928.318 179.316C927.471 178.688 926.846 177.817 926.445 176.705C926.044 175.584 925.908 174.326 926.035 172.932L926.104 172.248C926.277 170.826 926.691 169.555 927.348 168.434C928.004 167.312 928.861 166.442 929.918 165.822C930.975 165.193 932.142 164.897 933.418 164.934C934.967 164.97 936.207 165.49 937.137 166.492C938.066 167.495 938.531 168.766 938.531 170.307L936.221 170.293C936.202 169.327 935.934 168.548 935.414 167.955C934.895 167.354 934.193 167.035 933.309 166.998C932.023 166.971 930.952 167.449 930.096 168.434C929.248 169.418 928.719 170.794 928.51 172.562L928.469 172.918C928.414 173.501 928.405 174.103 928.441 174.723C928.505 175.789 928.806 176.632 929.344 177.252C929.882 177.872 930.62 178.195 931.559 178.223ZM946.201 161.625L945.572 165.207H948.266L947.924 167.162H945.244L943.699 176.363C943.672 176.6 943.667 176.819 943.686 177.02C943.749 177.73 944.137 178.086 944.848 178.086C945.148 178.086 945.549 178.04 946.051 177.949L945.859 180.014C945.267 180.178 944.665 180.26 944.055 180.26C943.07 180.242 942.332 179.882 941.84 179.18C941.348 178.469 941.156 177.516 941.266 176.322L942.77 167.162H940.158L940.5 165.207H943.111L943.74 161.625H946.201ZM951.369 180H948.908L951.479 165.207H953.939L951.369 180ZM953.406 159.807C953.826 159.788 954.172 159.916 954.445 160.189C954.728 160.454 954.869 160.805 954.869 161.242C954.86 161.671 954.719 162.021 954.445 162.295C954.181 162.568 953.835 162.714 953.406 162.732C952.978 162.751 952.627 162.628 952.354 162.363C952.08 162.099 951.948 161.753 951.957 161.324C951.966 160.896 952.103 160.54 952.367 160.258C952.632 159.975 952.978 159.825 953.406 159.807ZM963.633 164.934C964.872 164.952 965.934 165.289 966.818 165.945C967.702 166.602 968.354 167.508 968.773 168.666C969.202 169.814 969.348 171.072 969.211 172.439L969.184 172.74C969.01 174.18 968.582 175.484 967.898 176.65C967.215 177.808 966.331 178.71 965.246 179.357C964.161 180.005 962.972 180.31 961.678 180.273C960.447 180.255 959.385 179.918 958.492 179.262C957.608 178.605 956.961 177.712 956.551 176.582C956.141 175.452 955.995 174.208 956.113 172.85C956.25 171.318 956.665 169.942 957.357 168.721C958.05 167.499 958.939 166.556 960.023 165.891C961.117 165.216 962.32 164.897 963.633 164.934ZM958.602 172.863C958.538 173.438 958.538 174.035 958.602 174.654C958.693 175.73 959.012 176.587 959.559 177.225C960.115 177.863 960.853 178.195 961.773 178.223C962.594 178.25 963.35 178.049 964.043 177.621C964.736 177.184 965.319 176.527 965.793 175.652C966.267 174.777 966.572 173.807 966.709 172.74C966.782 171.902 966.796 171.195 966.75 170.621C966.641 169.518 966.308 168.648 965.752 168.01C965.196 167.372 964.458 167.035 963.537 166.998C962.261 166.971 961.176 167.472 960.283 168.502C959.39 169.532 958.839 170.881 958.629 172.549L958.602 172.863ZM975.965 165.193L975.609 167.066C976.94 165.608 978.453 164.897 980.148 164.934C981.543 164.97 982.573 165.453 983.238 166.383C983.904 167.312 984.15 168.62 983.977 170.307L982.363 180H979.889L981.516 170.266C981.57 169.819 981.575 169.404 981.529 169.021C981.374 167.745 980.622 167.094 979.273 167.066C977.788 167.039 976.484 167.832 975.363 169.445L973.531 180H971.057L973.627 165.207L975.965 165.193ZM995.721 180H993.26L995.83 165.207H998.291L995.721 180ZM997.758 159.807C998.177 159.788 998.523 159.916 998.797 160.189C999.079 160.454 999.221 160.805 999.221 161.242C999.212 161.671 999.07 162.021 998.797 162.295C998.533 162.568 998.186 162.714 997.758 162.732C997.329 162.751 996.979 162.628 996.705 162.363C996.432 162.099 996.299 161.753 996.309 161.324C996.318 160.896 996.454 160.54 996.719 160.258C996.983 159.975 997.329 159.825 997.758 159.807ZM1008.93 175.994C1009.06 174.973 1008.5 174.253 1007.25 173.834L1004.68 173.082C1002.51 172.335 1001.46 171.095 1001.53 169.363C1001.6 168.06 1002.19 166.993 1003.31 166.164C1004.44 165.326 1005.76 164.915 1007.29 164.934C1008.78 164.952 1009.99 165.389 1010.92 166.246C1011.86 167.094 1012.31 168.201 1012.28 169.568L1009.82 169.555C1009.83 168.816 1009.6 168.215 1009.12 167.75C1008.64 167.285 1007.99 167.044 1007.19 167.025C1006.33 167.007 1005.6 167.217 1004.98 167.654C1004.4 168.064 1004.07 168.602 1003.98 169.268C1003.86 170.124 1004.38 170.749 1005.55 171.141L1006.79 171.482C1008.49 171.92 1009.69 172.49 1010.4 173.191C1011.12 173.893 1011.44 174.764 1011.39 175.803C1011.33 176.723 1011.03 177.525 1010.49 178.209C1009.94 178.893 1009.21 179.417 1008.3 179.781C1007.39 180.137 1006.42 180.301 1005.39 180.273C1003.82 180.255 1002.52 179.799 1001.5 178.906C1000.48 178.004 999.991 176.846 1000.03 175.434L1002.5 175.447C1002.5 176.277 1002.77 176.942 1003.29 177.443C1003.82 177.945 1004.55 178.195 1005.47 178.195C1006.37 178.214 1007.15 178.027 1007.81 177.635C1008.46 177.234 1008.84 176.687 1008.93 175.994ZM740.672 210.223C741.556 210.241 742.354 209.986 743.064 209.457C743.775 208.919 744.24 208.217 744.459 207.352L746.797 207.338C746.66 208.268 746.286 209.115 745.676 209.881C745.074 210.646 744.313 211.243 743.393 211.672C742.472 212.1 741.529 212.301 740.562 212.273C739.332 212.255 738.288 211.936 737.432 211.316C736.584 210.688 735.96 209.817 735.559 208.705C735.158 207.584 735.021 206.326 735.148 204.932L735.217 204.248C735.39 202.826 735.805 201.555 736.461 200.434C737.117 199.312 737.974 198.442 739.031 197.822C740.089 197.193 741.255 196.897 742.531 196.934C744.081 196.97 745.32 197.49 746.25 198.492C747.18 199.495 747.645 200.766 747.645 202.307L745.334 202.293C745.316 201.327 745.047 200.548 744.527 199.955C744.008 199.354 743.306 199.035 742.422 198.998C741.137 198.971 740.066 199.449 739.209 200.434C738.361 201.418 737.833 202.794 737.623 204.562L737.582 204.918C737.527 205.501 737.518 206.103 737.555 206.723C737.618 207.789 737.919 208.632 738.457 209.252C738.995 209.872 739.733 210.195 740.672 210.223ZM757.98 199.463L756.818 199.34C755.232 199.34 753.984 200.055 753.072 201.486L751.254 212H748.779L751.35 197.207L753.742 197.193L753.373 198.916C754.421 197.54 755.656 196.87 757.078 196.906C757.379 196.906 757.771 196.975 758.254 197.111L757.98 199.463ZM764.229 212.273C762.387 212.237 760.947 211.558 759.908 210.236C758.869 208.915 758.432 207.224 758.596 205.164L758.664 204.576C758.819 203.109 759.252 201.769 759.963 200.557C760.683 199.344 761.558 198.433 762.588 197.822C763.618 197.202 764.73 196.906 765.924 196.934C767.446 196.97 768.64 197.476 769.506 198.451C770.372 199.426 770.846 200.748 770.928 202.416C770.955 203.008 770.937 203.601 770.873 204.193L770.723 205.328H761.057C760.893 206.668 761.111 207.807 761.713 208.746C762.324 209.685 763.23 210.173 764.434 210.209C765.892 210.245 767.241 209.589 768.48 208.24L769.902 209.443C769.283 210.337 768.48 211.038 767.496 211.549C766.521 212.05 765.432 212.292 764.229 212.273ZM765.801 198.998C764.78 198.971 763.887 199.317 763.121 200.037C762.365 200.757 761.763 201.828 761.316 203.25L768.508 203.264L768.562 203.045C768.708 201.896 768.521 200.944 768.002 200.188C767.492 199.422 766.758 199.025 765.801 198.998ZM781.4 212C781.337 211.736 781.305 211.476 781.305 211.221L781.346 210.441C779.988 211.699 778.548 212.31 777.025 212.273C775.722 212.255 774.66 211.845 773.84 211.043C773.029 210.232 772.66 209.22 772.732 208.008C772.824 206.44 773.507 205.219 774.783 204.344C776.068 203.46 777.755 203.018 779.842 203.018L782.426 203.031L782.59 201.855C782.681 200.971 782.508 200.274 782.07 199.764C781.642 199.244 780.995 198.975 780.129 198.957C779.281 198.939 778.529 199.148 777.873 199.586C777.226 200.014 776.829 200.584 776.684 201.295L774.195 201.309C774.277 200.443 774.615 199.677 775.207 199.012C775.799 198.337 776.561 197.818 777.49 197.453C778.42 197.079 779.382 196.902 780.375 196.92C781.915 196.956 783.114 197.426 783.971 198.328C784.827 199.221 785.188 200.411 785.051 201.896L783.848 209.225L783.779 210.277C783.761 210.779 783.816 211.275 783.943 211.768L783.916 212H781.4ZM777.518 210.086C778.311 210.104 779.058 209.917 779.76 209.525C780.471 209.124 781.081 208.573 781.592 207.871L782.125 204.822L780.252 204.809C778.693 204.809 777.499 205.055 776.67 205.547C775.84 206.039 775.371 206.736 775.262 207.639C775.18 208.331 775.339 208.91 775.74 209.375C776.15 209.831 776.743 210.068 777.518 210.086ZM793.814 193.625L793.186 197.207H795.879L795.537 199.162H792.857L791.312 208.363C791.285 208.6 791.281 208.819 791.299 209.02C791.363 209.73 791.75 210.086 792.461 210.086C792.762 210.086 793.163 210.04 793.664 209.949L793.473 212.014C792.88 212.178 792.279 212.26 791.668 212.26C790.684 212.242 789.945 211.882 789.453 211.18C788.961 210.469 788.77 209.516 788.879 208.322L790.383 199.162H787.771L788.113 197.207H790.725L791.354 193.625H793.814ZM802.701 212.273C800.86 212.237 799.42 211.558 798.381 210.236C797.342 208.915 796.904 207.224 797.068 205.164L797.137 204.576C797.292 203.109 797.725 201.769 798.436 200.557C799.156 199.344 800.031 198.433 801.061 197.822C802.09 197.202 803.202 196.906 804.396 196.934C805.919 196.97 807.113 197.476 807.979 198.451C808.844 199.426 809.318 200.748 809.4 202.416C809.428 203.008 809.41 203.601 809.346 204.193L809.195 205.328H799.529C799.365 206.668 799.584 207.807 800.186 208.746C800.796 209.685 801.703 210.173 802.906 210.209C804.365 210.245 805.714 209.589 806.953 208.24L808.375 209.443C807.755 210.337 806.953 211.038 805.969 211.549C804.993 212.05 803.904 212.292 802.701 212.273ZM804.273 198.998C803.253 198.971 802.359 199.317 801.594 200.037C800.837 200.757 800.236 201.828 799.789 203.25L806.98 203.264L807.035 203.045C807.181 201.896 806.994 200.944 806.475 200.188C805.964 199.422 805.23 199.025 804.273 198.998ZM811.533 204.576C811.715 203.072 812.13 201.714 812.777 200.502C813.424 199.29 814.222 198.383 815.17 197.781C816.118 197.18 817.161 196.893 818.301 196.92C819.951 196.956 821.217 197.558 822.102 198.725L823.523 191H825.998L822.361 212H820.105L820.365 210.414C819.199 211.69 817.758 212.31 816.045 212.273C814.678 212.237 813.589 211.704 812.777 210.674C811.966 209.635 811.529 208.245 811.465 206.504C811.438 205.966 811.46 205.324 811.533 204.576ZM813.912 205.998C813.885 207.301 814.117 208.313 814.609 209.033C815.102 209.753 815.822 210.122 816.77 210.141C818.201 210.204 819.472 209.484 820.584 207.98L821.76 201.145C821.213 199.796 820.219 199.103 818.779 199.066C817.804 199.039 816.943 199.335 816.195 199.955C815.457 200.566 814.892 201.427 814.5 202.539C814.117 203.642 813.921 204.795 813.912 205.998ZM842.186 212C842.122 211.736 842.09 211.476 842.09 211.221L842.131 210.441C840.773 211.699 839.333 212.31 837.811 212.273C836.507 212.255 835.445 211.845 834.625 211.043C833.814 210.232 833.445 209.22 833.518 208.008C833.609 206.44 834.292 205.219 835.568 204.344C836.854 203.46 838.54 203.018 840.627 203.018L843.211 203.031L843.375 201.855C843.466 200.971 843.293 200.274 842.855 199.764C842.427 199.244 841.78 198.975 840.914 198.957C840.066 198.939 839.314 199.148 838.658 199.586C838.011 200.014 837.615 200.584 837.469 201.295L834.98 201.309C835.062 200.443 835.4 199.677 835.992 199.012C836.585 198.337 837.346 197.818 838.275 197.453C839.205 197.079 840.167 196.902 841.16 196.92C842.701 196.956 843.899 197.426 844.756 198.328C845.613 199.221 845.973 200.411 845.836 201.896L844.633 209.225L844.564 210.277C844.546 210.779 844.601 211.275 844.729 211.768L844.701 212H842.186ZM838.303 210.086C839.096 210.104 839.843 209.917 840.545 209.525C841.256 209.124 841.867 208.573 842.377 207.871L842.91 204.822L841.037 204.809C839.479 204.809 838.285 205.055 837.455 205.547C836.626 206.039 836.156 206.736 836.047 207.639C835.965 208.331 836.124 208.91 836.525 209.375C836.936 209.831 837.528 210.068 838.303 210.086ZM852.973 197.193L852.617 199.066C853.948 197.608 855.461 196.897 857.156 196.934C858.551 196.97 859.581 197.453 860.246 198.383C860.911 199.312 861.158 200.62 860.984 202.307L859.371 212H856.896L858.523 202.266C858.578 201.819 858.583 201.404 858.537 201.021C858.382 199.745 857.63 199.094 856.281 199.066C854.796 199.039 853.492 199.832 852.371 201.445L850.539 212H848.064L850.635 197.207L852.973 197.193ZM863.896 204.576C864.079 203.072 864.493 201.714 865.141 200.502C865.788 199.29 866.585 198.383 867.533 197.781C868.481 197.18 869.525 196.893 870.664 196.92C872.314 196.956 873.581 197.558 874.465 198.725L875.887 191H878.361L874.725 212H872.469L872.729 210.414C871.562 211.69 870.122 212.31 868.408 212.273C867.041 212.237 865.952 211.704 865.141 210.674C864.329 209.635 863.892 208.245 863.828 206.504C863.801 205.966 863.824 205.324 863.896 204.576ZM866.275 205.998C866.248 207.301 866.48 208.313 866.973 209.033C867.465 209.753 868.185 210.122 869.133 210.141C870.564 210.204 871.835 209.484 872.947 207.98L874.123 201.145C873.576 199.796 872.583 199.103 871.143 199.066C870.167 199.039 869.306 199.335 868.559 199.955C867.82 200.566 867.255 201.427 866.863 202.539C866.48 203.642 866.285 204.795 866.275 205.998ZM898.896 204.672C898.714 206.176 898.309 207.529 897.68 208.732C897.051 209.936 896.271 210.838 895.342 211.439C894.412 212.032 893.382 212.314 892.252 212.287C890.538 212.251 889.226 211.672 888.314 210.551L886.988 217.688H884.514L888.068 197.207L890.311 197.193L890.037 198.848C891.258 197.535 892.721 196.897 894.426 196.934C895.848 196.97 896.955 197.494 897.748 198.506C898.541 199.518 898.96 200.912 899.006 202.689C899.015 203.273 898.992 203.838 898.938 204.385L898.896 204.672ZM896.463 204.385L896.531 203.236C896.531 201.906 896.276 200.889 895.766 200.188C895.264 199.477 894.535 199.103 893.578 199.066C892.147 199.03 890.912 199.709 889.873 201.104L888.629 208.199C889.185 209.512 890.183 210.186 891.623 210.223C892.854 210.25 893.897 209.771 894.754 208.787C895.62 207.794 896.189 206.326 896.463 204.385ZM909.943 212C909.88 211.736 909.848 211.476 909.848 211.221L909.889 210.441C908.531 211.699 907.09 212.31 905.568 212.273C904.265 212.255 903.203 211.845 902.383 211.043C901.572 210.232 901.202 209.22 901.275 208.008C901.367 206.44 902.05 205.219 903.326 204.344C904.611 203.46 906.298 203.018 908.385 203.018L910.969 203.031L911.133 201.855C911.224 200.971 911.051 200.274 910.613 199.764C910.185 199.244 909.538 198.975 908.672 198.957C907.824 198.939 907.072 199.148 906.416 199.586C905.769 200.014 905.372 200.584 905.227 201.295L902.738 201.309C902.82 200.443 903.158 199.677 903.75 199.012C904.342 198.337 905.104 197.818 906.033 197.453C906.963 197.079 907.924 196.902 908.918 196.92C910.458 196.956 911.657 197.426 912.514 198.328C913.37 199.221 913.73 200.411 913.594 201.896L912.391 209.225L912.322 210.277C912.304 210.779 912.359 211.275 912.486 211.768L912.459 212H909.943ZM906.061 210.086C906.854 210.104 907.601 209.917 908.303 209.525C909.014 209.124 909.624 208.573 910.135 207.871L910.668 204.822L908.795 204.809C907.236 204.809 906.042 205.055 905.213 205.547C904.383 206.039 903.914 206.736 903.805 207.639C903.723 208.331 903.882 208.91 904.283 209.375C904.693 209.831 905.286 210.068 906.061 210.086ZM924.982 207.994C925.119 206.973 924.559 206.253 923.301 205.834L920.73 205.082C918.561 204.335 917.513 203.095 917.586 201.363C917.65 200.06 918.242 198.993 919.363 198.164C920.493 197.326 921.82 196.915 923.342 196.934C924.837 196.952 926.049 197.389 926.979 198.246C927.917 199.094 928.368 200.201 928.332 201.568L925.871 201.555C925.889 200.816 925.657 200.215 925.174 199.75C924.691 199.285 924.048 199.044 923.246 199.025C922.389 199.007 921.651 199.217 921.031 199.654C920.457 200.064 920.124 200.602 920.033 201.268C919.915 202.124 920.439 202.749 921.605 203.141L922.85 203.482C924.545 203.92 925.748 204.49 926.459 205.191C927.17 205.893 927.498 206.764 927.443 207.803C927.389 208.723 927.088 209.525 926.541 210.209C925.994 210.893 925.265 211.417 924.354 211.781C923.442 212.137 922.471 212.301 921.441 212.273C919.874 212.255 918.579 211.799 917.559 210.906C916.538 210.004 916.046 208.846 916.082 207.434L918.557 207.447C918.557 208.277 918.821 208.942 919.35 209.443C919.878 209.945 920.603 210.195 921.523 210.195C922.426 210.214 923.205 210.027 923.861 209.635C924.518 209.234 924.891 208.687 924.982 207.994ZM939.119 207.994C939.256 206.973 938.695 206.253 937.438 205.834L934.867 205.082C932.698 204.335 931.65 203.095 931.723 201.363C931.786 200.06 932.379 198.993 933.5 198.164C934.63 197.326 935.956 196.915 937.479 196.934C938.973 196.952 940.186 197.389 941.115 198.246C942.054 199.094 942.505 200.201 942.469 201.568L940.008 201.555C940.026 200.816 939.794 200.215 939.311 199.75C938.827 199.285 938.185 199.044 937.383 199.025C936.526 199.007 935.788 199.217 935.168 199.654C934.594 200.064 934.261 200.602 934.17 201.268C934.051 202.124 934.576 202.749 935.742 203.141L936.986 203.482C938.682 203.92 939.885 204.49 940.596 205.191C941.307 205.893 941.635 206.764 941.58 207.803C941.525 208.723 941.225 209.525 940.678 210.209C940.131 210.893 939.402 211.417 938.49 211.781C937.579 212.137 936.608 212.301 935.578 212.273C934.01 212.255 932.716 211.799 931.695 210.906C930.674 210.004 930.182 208.846 930.219 207.434L932.693 207.447C932.693 208.277 932.958 208.942 933.486 209.443C934.015 209.945 934.74 210.195 935.66 210.195C936.562 210.214 937.342 210.027 937.998 209.635C938.654 209.234 939.028 208.687 939.119 207.994ZM950.494 212.273C948.653 212.237 947.213 211.558 946.174 210.236C945.135 208.915 944.697 207.224 944.861 205.164L944.93 204.576C945.085 203.109 945.518 201.769 946.229 200.557C946.949 199.344 947.824 198.433 948.854 197.822C949.883 197.202 950.995 196.906 952.189 196.934C953.712 196.97 954.906 197.476 955.771 198.451C956.637 199.426 957.111 200.748 957.193 202.416C957.221 203.008 957.202 203.601 957.139 204.193L956.988 205.328H947.322C947.158 206.668 947.377 207.807 947.979 208.746C948.589 209.685 949.496 210.173 950.699 210.209C952.158 210.245 953.507 209.589 954.746 208.24L956.168 209.443C955.548 210.337 954.746 211.038 953.762 211.549C952.786 212.05 951.697 212.292 950.494 212.273ZM952.066 198.998C951.046 198.971 950.152 199.317 949.387 200.037C948.63 200.757 948.029 201.828 947.582 203.25L954.773 203.264L954.828 203.045C954.974 201.896 954.787 200.944 954.268 200.188C953.757 199.422 953.023 199.025 952.066 198.998ZM959.326 204.576C959.508 203.072 959.923 201.714 960.57 200.502C961.217 199.29 962.015 198.383 962.963 197.781C963.911 197.18 964.954 196.893 966.094 196.92C967.743 196.956 969.01 197.558 969.895 198.725L971.316 191H973.791L970.154 212H967.898L968.158 210.414C966.992 211.69 965.551 212.31 963.838 212.273C962.471 212.237 961.382 211.704 960.57 210.674C959.759 209.635 959.322 208.245 959.258 206.504C959.23 205.966 959.253 205.324 959.326 204.576ZM961.705 205.998C961.678 207.301 961.91 208.313 962.402 209.033C962.895 209.753 963.615 210.122 964.562 210.141C965.993 210.204 967.265 209.484 968.377 207.98L969.553 201.145C969.006 199.796 968.012 199.103 966.572 199.066C965.597 199.039 964.736 199.335 963.988 199.955C963.25 200.566 962.685 201.427 962.293 202.539C961.91 203.642 961.714 204.795 961.705 205.998ZM989.979 212C989.915 211.736 989.883 211.476 989.883 211.221L989.924 210.441C988.566 211.699 987.126 212.31 985.604 212.273C984.3 212.255 983.238 211.845 982.418 211.043C981.607 210.232 981.238 209.22 981.311 208.008C981.402 206.44 982.085 205.219 983.361 204.344C984.646 203.46 986.333 203.018 988.42 203.018L991.004 203.031L991.168 201.855C991.259 200.971 991.086 200.274 990.648 199.764C990.22 199.244 989.573 198.975 988.707 198.957C987.859 198.939 987.107 199.148 986.451 199.586C985.804 200.014 985.408 200.584 985.262 201.295L982.773 201.309C982.855 200.443 983.193 199.677 983.785 199.012C984.378 198.337 985.139 197.818 986.068 197.453C986.998 197.079 987.96 196.902 988.953 196.92C990.493 196.956 991.692 197.426 992.549 198.328C993.406 199.221 993.766 200.411 993.629 201.896L992.426 209.225L992.357 210.277C992.339 210.779 992.394 211.275 992.521 211.768L992.494 212H989.979ZM986.096 210.086C986.889 210.104 987.636 209.917 988.338 209.525C989.049 209.124 989.66 208.573 990.17 207.871L990.703 204.822L988.83 204.809C987.271 204.809 986.077 205.055 985.248 205.547C984.419 206.039 983.949 206.736 983.84 207.639C983.758 208.331 983.917 208.91 984.318 209.375C984.729 209.831 985.321 210.068 986.096 210.086ZM1005.02 207.994C1005.15 206.973 1004.59 206.253 1003.34 205.834L1000.77 205.082C998.596 204.335 997.548 203.095 997.621 201.363C997.685 200.06 998.277 198.993 999.398 198.164C1000.53 197.326 1001.85 196.915 1003.38 196.934C1004.87 196.952 1006.08 197.389 1007.01 198.246C1007.95 199.094 1008.4 200.201 1008.37 201.568L1005.91 201.555C1005.92 200.816 1005.69 200.215 1005.21 199.75C1004.73 199.285 1004.08 199.044 1003.28 199.025C1002.42 199.007 1001.69 199.217 1001.07 199.654C1000.49 200.064 1000.16 200.602 1000.07 201.268C999.95 202.124 1000.47 202.749 1001.64 203.141L1002.88 203.482C1004.58 203.92 1005.78 204.49 1006.49 205.191C1007.21 205.893 1007.53 206.764 1007.48 207.803C1007.42 208.723 1007.12 209.525 1006.58 210.209C1006.03 210.893 1005.3 211.417 1004.39 211.781C1003.48 212.137 1002.51 212.301 1001.48 212.273C999.909 212.255 998.615 211.799 997.594 210.906C996.573 210.004 996.081 208.846 996.117 207.434L998.592 207.447C998.592 208.277 998.856 208.942 999.385 209.443C999.913 209.945 1000.64 210.195 1001.56 210.195C1002.46 210.214 1003.24 210.027 1003.9 209.635C1004.55 209.234 1004.93 208.687 1005.02 207.994ZM1023.39 193.625L1022.76 197.207H1025.46L1025.12 199.162H1022.44L1020.89 208.363C1020.86 208.6 1020.86 208.819 1020.88 209.02C1020.94 209.73 1021.33 210.086 1022.04 210.086C1022.34 210.086 1022.74 210.04 1023.24 209.949L1023.05 212.014C1022.46 212.178 1021.86 212.26 1021.25 212.26C1020.26 212.242 1019.52 211.882 1019.03 211.18C1018.54 210.469 1018.35 209.516 1018.46 208.322L1019.96 199.162H1017.35L1017.69 197.207H1020.3L1020.93 193.625H1023.39ZM1030.5 199.012C1031.8 197.599 1033.29 196.911 1034.97 196.947C1036.36 196.965 1037.38 197.444 1038.05 198.383C1038.72 199.312 1038.97 200.62 1038.8 202.307L1037.19 212H1034.71L1036.34 202.266C1036.39 201.819 1036.4 201.404 1036.35 201.021C1036.2 199.745 1035.45 199.094 1034.1 199.066C1032.58 199.03 1031.28 199.823 1030.19 201.445L1028.36 212H1025.88L1029.53 191H1032.01L1030.5 199.012ZM1047.37 212.273C1045.53 212.237 1044.09 211.558 1043.05 210.236C1042.01 208.915 1041.58 207.224 1041.74 205.164L1041.81 204.576C1041.96 203.109 1042.4 201.769 1043.11 200.557C1043.83 199.344 1044.7 198.433 1045.73 197.822C1046.76 197.202 1047.87 196.906 1049.07 196.934C1050.59 196.97 1051.78 197.476 1052.65 198.451C1053.52 199.426 1053.99 200.748 1054.07 202.416C1054.1 203.008 1054.08 203.601 1054.02 204.193L1053.87 205.328H1044.2C1044.04 206.668 1044.26 207.807 1044.86 208.746C1045.47 209.685 1046.38 210.173 1047.58 210.209C1049.04 210.245 1050.39 209.589 1051.62 208.24L1053.05 209.443C1052.43 210.337 1051.62 211.038 1050.64 211.549C1049.67 212.05 1048.58 212.292 1047.37 212.273ZM1048.95 198.998C1047.92 198.971 1047.03 199.317 1046.27 200.037C1045.51 200.757 1044.91 201.828 1044.46 203.25L1051.65 203.264L1051.71 203.045C1051.85 201.896 1051.67 200.944 1051.15 200.188C1050.64 199.422 1049.9 199.025 1048.95 198.998ZM743.475 246C743.411 245.736 743.379 245.476 743.379 245.221L743.42 244.441C742.062 245.699 740.622 246.31 739.1 246.273C737.796 246.255 736.734 245.845 735.914 245.043C735.103 244.232 734.734 243.22 734.807 242.008C734.898 240.44 735.581 239.219 736.857 238.344C738.143 237.46 739.829 237.018 741.916 237.018L744.5 237.031L744.664 235.855C744.755 234.971 744.582 234.274 744.145 233.764C743.716 233.244 743.069 232.975 742.203 232.957C741.355 232.939 740.604 233.148 739.947 233.586C739.3 234.014 738.904 234.584 738.758 235.295L736.27 235.309C736.352 234.443 736.689 233.677 737.281 233.012C737.874 232.337 738.635 231.818 739.564 231.453C740.494 231.079 741.456 230.902 742.449 230.92C743.99 230.956 745.188 231.426 746.045 232.328C746.902 233.221 747.262 234.411 747.125 235.896L745.922 243.225L745.854 244.277C745.835 244.779 745.89 245.275 746.018 245.768L745.99 246H743.475ZM739.592 244.086C740.385 244.104 741.132 243.917 741.834 243.525C742.545 243.124 743.156 242.573 743.666 241.871L744.199 238.822L742.326 238.809C740.768 238.809 739.574 239.055 738.744 239.547C737.915 240.039 737.445 240.736 737.336 241.639C737.254 242.331 737.413 242.91 737.814 243.375C738.225 243.831 738.817 244.068 739.592 244.086ZM758.555 233.463L757.393 233.34C755.807 233.34 754.558 234.055 753.646 235.486L751.828 246H749.354L751.924 231.207L754.316 231.193L753.947 232.916C754.995 231.54 756.23 230.87 757.652 230.906C757.953 230.906 758.345 230.975 758.828 231.111L758.555 233.463ZM759.129 238.576C759.348 236.963 759.781 235.564 760.428 234.379C761.084 233.185 761.877 232.305 762.807 231.74C763.745 231.166 764.771 230.893 765.883 230.92C767.596 230.956 768.891 231.604 769.766 232.861L770.258 231.207H772.527L770.066 245.686C769.802 247.572 769.036 249.081 767.77 250.211C766.503 251.35 764.939 251.893 763.08 251.838C762.077 251.82 761.116 251.583 760.195 251.127C759.284 250.671 758.564 250.047 758.035 249.254L759.443 247.736C760.337 249.058 761.517 249.737 762.984 249.773C764.16 249.81 765.154 249.482 765.965 248.789C766.785 248.096 767.327 247.112 767.592 245.836L767.865 244.523C766.662 245.727 765.254 246.31 763.641 246.273C762.72 246.246 761.918 246 761.234 245.535C760.56 245.061 760.036 244.382 759.662 243.498C759.288 242.605 759.083 241.611 759.047 240.518C759.029 239.98 759.056 239.333 759.129 238.576ZM761.521 239.984C761.494 241.288 761.717 242.299 762.191 243.02C762.674 243.73 763.399 244.104 764.365 244.141C765.842 244.177 767.113 243.452 768.18 241.967L769.342 235.172C768.795 233.823 767.806 233.121 766.375 233.066C765.035 233.03 763.932 233.577 763.066 234.707C762.21 235.837 761.704 237.364 761.549 239.287L761.521 239.984ZM783.191 244.537C782.034 245.731 780.562 246.31 778.775 246.273C777.363 246.237 776.314 245.731 775.631 244.756C774.956 243.781 774.706 242.45 774.879 240.764L776.465 231.207H778.939L777.34 240.805C777.294 241.206 777.285 241.598 777.312 241.98C777.358 242.637 777.554 243.152 777.9 243.525C778.247 243.899 778.73 244.1 779.35 244.127C781.118 244.182 782.485 243.466 783.451 241.98L785.311 231.207H787.785L785.215 246H782.877L783.191 244.537ZM793.801 231.193L793.486 232.848C794.726 231.535 796.225 230.897 797.984 230.934C798.923 230.952 799.716 231.166 800.363 231.576C801.02 231.986 801.471 232.565 801.717 233.312C803.102 231.69 804.738 230.897 806.625 230.934C808.102 230.97 809.191 231.467 809.893 232.424C810.594 233.381 810.854 234.666 810.672 236.279L809.045 246H806.584L808.197 236.252C808.252 235.778 808.252 235.345 808.197 234.953C808.024 233.714 807.213 233.08 805.764 233.053C804.861 233.035 804.041 233.317 803.303 233.9C802.574 234.475 802.104 235.231 801.895 236.17L800.213 246H797.725L799.365 236.266C799.484 235.254 799.329 234.475 798.9 233.928C798.481 233.381 797.825 233.098 796.932 233.08C795.391 233.044 794.165 233.745 793.254 235.186L791.381 246H788.906L791.477 231.207L793.801 231.193ZM819.271 246.273C817.43 246.237 815.99 245.558 814.951 244.236C813.912 242.915 813.475 241.224 813.639 239.164L813.707 238.576C813.862 237.109 814.295 235.769 815.006 234.557C815.726 233.344 816.601 232.433 817.631 231.822C818.661 231.202 819.773 230.906 820.967 230.934C822.489 230.97 823.683 231.476 824.549 232.451C825.415 233.426 825.889 234.748 825.971 236.416C825.998 237.008 825.98 237.601 825.916 238.193L825.766 239.328H816.1C815.936 240.668 816.154 241.807 816.756 242.746C817.367 243.685 818.273 244.173 819.477 244.209C820.935 244.245 822.284 243.589 823.523 242.24L824.945 243.443C824.326 244.337 823.523 245.038 822.539 245.549C821.564 246.05 820.475 246.292 819.271 246.273ZM820.844 232.998C819.823 232.971 818.93 233.317 818.164 234.037C817.408 234.757 816.806 235.828 816.359 237.25L823.551 237.264L823.605 237.045C823.751 235.896 823.564 234.944 823.045 234.188C822.535 233.422 821.801 233.025 820.844 232.998ZM832.301 231.193L831.945 233.066C833.276 231.608 834.789 230.897 836.484 230.934C837.879 230.97 838.909 231.453 839.574 232.383C840.24 233.312 840.486 234.62 840.312 236.307L838.699 246H836.225L837.852 236.266C837.906 235.819 837.911 235.404 837.865 235.021C837.71 233.745 836.958 233.094 835.609 233.066C834.124 233.039 832.82 233.832 831.699 235.445L829.867 246H827.393L829.963 231.207L832.301 231.193ZM849.049 227.625L848.42 231.207H851.113L850.771 233.162H848.092L846.547 242.363C846.52 242.6 846.515 242.819 846.533 243.02C846.597 243.73 846.984 244.086 847.695 244.086C847.996 244.086 848.397 244.04 848.898 243.949L848.707 246.014C848.115 246.178 847.513 246.26 846.902 246.26C845.918 246.242 845.18 245.882 844.688 245.18C844.195 244.469 844.004 243.516 844.113 242.322L845.617 233.162H843.006L843.348 231.207H845.959L846.588 227.625H849.049ZM864.936 227.625L864.307 231.207H867L866.658 233.162H863.979L862.434 242.363C862.406 242.6 862.402 242.819 862.42 243.02C862.484 243.73 862.871 244.086 863.582 244.086C863.883 244.086 864.284 244.04 864.785 243.949L864.594 246.014C864.001 246.178 863.4 246.26 862.789 246.26C861.805 246.242 861.066 245.882 860.574 245.18C860.082 244.469 859.891 243.516 860 242.322L861.504 233.162H858.893L859.234 231.207H861.846L862.475 227.625H864.936ZM875.367 230.934C876.607 230.952 877.669 231.289 878.553 231.945C879.437 232.602 880.089 233.508 880.508 234.666C880.936 235.814 881.082 237.072 880.945 238.439L880.918 238.74C880.745 240.18 880.316 241.484 879.633 242.65C878.949 243.808 878.065 244.71 876.98 245.357C875.896 246.005 874.706 246.31 873.412 246.273C872.182 246.255 871.12 245.918 870.227 245.262C869.342 244.605 868.695 243.712 868.285 242.582C867.875 241.452 867.729 240.208 867.848 238.85C867.984 237.318 868.399 235.942 869.092 234.721C869.785 233.499 870.673 232.556 871.758 231.891C872.852 231.216 874.055 230.897 875.367 230.934ZM870.336 238.863C870.272 239.438 870.272 240.035 870.336 240.654C870.427 241.73 870.746 242.587 871.293 243.225C871.849 243.863 872.587 244.195 873.508 244.223C874.328 244.25 875.085 244.049 875.777 243.621C876.47 243.184 877.053 242.527 877.527 241.652C878.001 240.777 878.307 239.807 878.443 238.74C878.516 237.902 878.53 237.195 878.484 236.621C878.375 235.518 878.042 234.648 877.486 234.01C876.93 233.372 876.192 233.035 875.271 232.998C873.995 232.971 872.911 233.472 872.018 234.502C871.124 235.532 870.573 236.881 870.363 238.549L870.336 238.863ZM738.088 266.392H739.992L740.188 269.612H740.272C740.981 268.511 741.849 267.643 742.876 267.008C743.921 266.373 745.079 266.056 746.348 266.056C746.852 266.056 747.319 266.103 747.748 266.196C748.177 266.271 748.607 266.411 749.036 266.616L748.504 268.604C748.019 268.436 747.608 268.315 747.272 268.24C746.955 268.165 746.525 268.128 745.984 268.128C744.957 268.128 743.968 268.427 743.016 269.024C742.083 269.603 741.205 270.601 740.384 272.02V280H738.088V266.392ZM764.929 280H763.053L762.857 277.62H762.745C762.054 278.423 761.298 279.076 760.477 279.58C759.674 280.084 758.741 280.336 757.677 280.336C756.034 280.336 754.83 279.879 754.065 278.964C753.318 278.031 752.945 276.659 752.945 274.848V266.392H755.269V274.54C755.269 275.828 755.502 276.789 755.969 277.424C756.454 278.04 757.266 278.348 758.405 278.348C759.189 278.348 759.898 278.152 760.533 277.76C761.168 277.349 761.868 276.705 762.633 275.828V266.392H764.929V280ZM770.182 266.392H772.086L772.282 268.716H772.394C773.103 267.951 773.869 267.316 774.69 266.812C775.511 266.308 776.454 266.056 777.518 266.056C779.142 266.056 780.327 266.523 781.074 267.456C781.839 268.371 782.222 269.733 782.222 271.544V280H779.926V271.852C779.926 270.564 779.683 269.612 779.198 268.996C778.713 268.361 777.91 268.044 776.79 268.044C776.379 268.044 775.997 268.1 775.642 268.212C775.306 268.305 774.97 268.455 774.634 268.66C774.298 268.865 773.953 269.127 773.598 269.444C773.243 269.743 772.87 270.097 772.478 270.508V280H770.182V266.392ZM799.487 281.932V283.92H786.047V281.932H799.487ZM801.38 266.392H803.732L805.384 274.26C805.515 274.913 805.636 275.548 805.748 276.164C805.86 276.78 805.963 277.405 806.056 278.04H806.168C806.299 277.405 806.43 276.78 806.56 276.164C806.691 275.529 806.831 274.895 806.98 274.26L808.632 267.204H810.592L812.272 274.26C812.422 274.913 812.562 275.548 812.692 276.164C812.823 276.78 812.963 277.405 813.112 278.04H813.224C813.355 277.405 813.467 276.78 813.56 276.164C813.672 275.548 813.784 274.913 813.896 274.26L815.548 266.392H817.732L814.764 280H811.992L810.368 273.112C810.238 272.459 810.116 271.815 810.004 271.18C809.892 270.527 809.762 269.855 809.612 269.164H809.5C809.388 269.761 809.276 270.377 809.164 271.012C809.052 271.647 808.912 272.356 808.744 273.14L807.176 280H804.432L801.38 266.392ZM820.465 266.392H829.089V280H826.793V268.268H820.465V266.392ZM827.689 263.592C827.148 263.592 826.7 263.433 826.345 263.116C826.009 262.799 825.841 262.369 825.841 261.828C825.841 261.287 826.009 260.857 826.345 260.54C826.7 260.204 827.148 260.036 827.689 260.036C828.212 260.036 828.651 260.204 829.005 260.54C829.36 260.857 829.537 261.287 829.537 261.828C829.537 262.369 829.36 262.799 829.005 263.116C828.651 263.433 828.212 263.592 827.689 263.592ZM840.502 268.268H836.666V266.532L840.586 266.392L840.894 262.584H842.798V266.392H849.49V268.268H842.798V274.736C842.798 275.352 842.854 275.893 842.966 276.36C843.078 276.808 843.265 277.191 843.526 277.508C843.788 277.825 844.142 278.068 844.59 278.236C845.038 278.385 845.589 278.46 846.242 278.46C846.896 278.46 847.484 278.404 848.006 278.292C848.529 278.18 849.033 278.031 849.518 277.844L850.022 279.524C849.406 279.748 848.725 279.935 847.978 280.084C847.232 280.252 846.485 280.336 845.738 280.336C844.749 280.336 843.918 280.205 843.246 279.944C842.574 279.664 842.033 279.281 841.622 278.796C841.23 278.292 840.941 277.695 840.754 277.004C840.586 276.313 840.502 275.548 840.502 274.708V268.268ZM854.127 260.064H856.423V265.496L856.311 268.716C857.039 267.951 857.814 267.316 858.635 266.812C859.457 266.308 860.399 266.056 861.463 266.056C863.087 266.056 864.273 266.523 865.019 267.456C865.785 268.371 866.167 269.733 866.167 271.544V280H863.871V271.852C863.871 270.564 863.629 269.612 863.143 268.996C862.658 268.361 861.855 268.044 860.735 268.044C860.325 268.044 859.942 268.1 859.587 268.212C859.251 268.305 858.915 268.455 858.579 268.66C858.243 268.865 857.898 269.127 857.543 269.444C857.189 269.743 856.815 270.097 856.423 270.508V280H854.127V260.064ZM883.433 281.932V283.92H869.993V281.932H883.433ZM887.09 278.768L896.414 268.268H888.126V266.392H899.718V267.624L890.366 278.124H899.998V280H887.09V278.768ZM903.823 273.224C903.823 272.104 904.019 271.105 904.411 270.228C904.803 269.332 905.316 268.576 905.951 267.96C906.604 267.344 907.341 266.877 908.163 266.56C909.003 266.224 909.861 266.056 910.739 266.056C911.709 266.056 912.577 266.215 913.343 266.532C914.108 266.831 914.752 267.26 915.275 267.82C915.816 268.38 916.227 269.052 916.507 269.836C916.787 270.62 916.927 271.488 916.927 272.44C916.927 272.683 916.917 272.925 916.899 273.168C916.899 273.392 916.88 273.588 916.843 273.756H906.203C906.221 274.484 906.361 275.137 906.623 275.716C906.903 276.295 907.267 276.789 907.715 277.2C908.181 277.611 908.723 277.928 909.339 278.152C909.973 278.376 910.664 278.488 911.411 278.488C912.213 278.488 912.941 278.376 913.595 278.152C914.267 277.928 914.92 277.62 915.555 277.228L916.367 278.74C915.695 279.169 914.929 279.543 914.071 279.86C913.212 280.177 912.232 280.336 911.131 280.336C910.123 280.336 909.171 280.177 908.275 279.86C907.397 279.524 906.623 279.057 905.951 278.46C905.297 277.844 904.775 277.097 904.383 276.22C904.009 275.343 903.823 274.344 903.823 273.224ZM914.799 272.104C914.799 270.741 914.444 269.696 913.735 268.968C913.025 268.24 912.036 267.876 910.767 267.876C910.207 267.876 909.665 267.969 909.143 268.156C908.639 268.343 908.181 268.623 907.771 268.996C907.36 269.351 907.015 269.789 906.735 270.312C906.455 270.835 906.268 271.432 906.175 272.104H914.799ZM922.768 266.392H924.672L924.868 269.612H924.952C925.661 268.511 926.529 267.643 927.556 267.008C928.601 266.373 929.758 266.056 931.028 266.056C931.532 266.056 931.998 266.103 932.428 266.196C932.857 266.271 933.286 266.411 933.716 266.616L933.184 268.604C932.698 268.436 932.288 268.315 931.952 268.24C931.634 268.165 931.205 268.128 930.664 268.128C929.637 268.128 928.648 268.427 927.696 269.024C926.762 269.603 925.885 270.601 925.064 272.02V280H922.768V266.392ZM937.149 273.224C937.149 272.085 937.326 271.077 937.681 270.2C938.054 269.304 938.549 268.548 939.165 267.932C939.781 267.316 940.49 266.849 941.293 266.532C942.114 266.215 942.973 266.056 943.869 266.056C944.765 266.056 945.614 266.215 946.417 266.532C947.238 266.849 947.957 267.316 948.573 267.932C949.189 268.548 949.674 269.304 950.029 270.2C950.402 271.077 950.589 272.085 950.589 273.224C950.589 274.344 950.402 275.352 950.029 276.248C949.674 277.125 949.189 277.872 948.573 278.488C947.957 279.085 947.238 279.543 946.417 279.86C945.614 280.177 944.765 280.336 943.869 280.336C942.973 280.336 942.114 280.177 941.293 279.86C940.49 279.543 939.781 279.085 939.165 278.488C938.549 277.872 938.054 277.125 937.681 276.248C937.326 275.352 937.149 274.344 937.149 273.224ZM939.529 273.224C939.529 274.008 939.631 274.717 939.837 275.352C940.042 275.987 940.331 276.537 940.705 277.004C941.097 277.452 941.554 277.807 942.077 278.068C942.618 278.311 943.215 278.432 943.869 278.432C944.522 278.432 945.11 278.311 945.633 278.068C946.174 277.807 946.631 277.452 947.005 277.004C947.397 276.537 947.695 275.987 947.901 275.352C948.106 274.717 948.209 274.008 948.209 273.224C948.209 272.44 948.106 271.731 947.901 271.096C947.695 270.443 947.397 269.883 947.005 269.416C946.631 268.949 946.174 268.595 945.633 268.352C945.11 268.091 944.522 267.96 943.869 267.96C943.215 267.96 942.618 268.091 942.077 268.352C941.554 268.595 941.097 268.949 940.705 269.416C940.331 269.883 940.042 270.443 939.837 271.096C939.631 271.731 939.529 272.44 939.529 273.224ZM964.382 284.928C962.44 283.416 960.9 281.596 959.762 279.468C958.642 277.34 958.082 274.923 958.082 272.216C958.082 269.509 958.642 267.092 959.762 264.964C960.9 262.836 962.44 261.016 964.382 259.504L965.642 260.68C963.756 262.267 962.366 263.993 961.47 265.86C960.592 267.727 960.154 269.845 960.154 272.216C960.154 274.587 960.592 276.705 961.47 278.572C962.366 280.439 963.756 282.165 965.642 283.752L964.382 284.928ZM972.463 283.752C974.348 282.165 975.73 280.439 976.607 278.572C977.503 276.705 977.951 274.587 977.951 272.216C977.951 269.845 977.503 267.727 976.607 265.86C975.73 263.993 974.348 262.267 972.463 260.68L973.723 259.504C975.664 261.016 977.195 262.836 978.315 264.964C979.454 267.092 980.023 269.509 980.023 272.216C980.023 274.923 979.454 277.34 978.315 279.468C977.195 281.596 975.664 283.416 973.723 284.928L972.463 283.752Z" fill="black"/>
<line y1="-1" x2="194.001" y2="-1" transform="matrix(-1.99999 -0.00746978 9.25136e-07 2 682 68.378)" stroke="#56B4E9" stroke-width="2"/>
<path d="M435.181 175.414C435.962 176.195 437.228 176.195 438.009 175.414L450.737 162.686C451.518 161.905 451.518 160.639 450.737 159.858C449.956 159.077 448.69 159.077 447.909 159.858L436.595 171.171L425.282 159.858C424.5 159.077 423.234 159.077 422.453 159.858C421.672 160.639 421.672 161.905 422.453 162.686L435.181 175.414ZM434.595 63.9999L434.595 174L438.595 174L438.595 63.9999L434.595 63.9999Z" fill="#56B4E9"/>
</svg>
