<svg width="1120" height="352" viewBox="0 0 1120 352" fill="none" xmlns="http://www.w3.org/2000/svg">
<rect width="560" height="176" transform="scale(2)" fill="white"/>
<rect x="396" y="126" width="60" height="52" stroke="black"/>
<path d="M426.005 164.336C423.971 164.336 422.356 163.533 421.161 161.928C419.985 160.323 419.397 158.017 419.397 155.012C419.397 151.988 419.985 149.711 421.161 148.18C422.356 146.631 423.971 145.856 426.005 145.856C428.04 145.856 429.645 146.631 430.821 148.18C432.016 149.711 432.613 151.988 432.613 155.012C432.613 158.017 432.016 160.323 430.821 161.928C429.645 163.533 428.04 164.336 426.005 164.336ZM426.005 148.376C425.464 148.376 424.969 148.497 424.521 148.74C424.073 148.964 423.681 149.337 423.345 149.86C423.028 150.383 422.776 151.073 422.589 151.932C422.403 152.772 422.309 153.799 422.309 155.012C422.309 156.225 422.403 157.271 422.589 158.148C422.776 159.007 423.028 159.707 423.345 160.248C423.681 160.789 424.073 161.191 424.521 161.452C424.969 161.695 425.464 161.816 426.005 161.816C426.528 161.816 427.013 161.695 427.461 161.452C427.928 161.191 428.32 160.789 428.637 160.248C428.973 159.707 429.235 159.007 429.421 158.148C429.608 157.271 429.701 156.225 429.701 155.012C429.701 153.799 429.608 152.772 429.421 151.932C429.235 151.073 428.973 150.383 428.637 149.86C428.32 149.337 427.928 148.964 427.461 148.74C427.013 148.497 426.528 148.376 426.005 148.376ZM426.005 156.888C425.464 156.888 425.007 156.711 424.633 156.356C424.26 156.001 424.073 155.516 424.073 154.9C424.073 154.284 424.26 153.799 424.633 153.444C425.007 153.089 425.464 152.912 426.005 152.912C426.547 152.912 427.004 153.089 427.377 153.444C427.751 153.799 427.937 154.284 427.937 154.9C427.937 155.516 427.751 156.001 427.377 156.356C427.004 156.711 426.547 156.888 426.005 156.888Z" fill="#0C570A"/>
<rect x="396" y="178" width="60" height="54" stroke="black"/>
<path d="M432.529 215.368V218H420.125V215.368H424.941V203.664H421.217V201.648C422.225 201.48 423.084 201.284 423.793 201.06C424.521 200.817 425.193 200.528 425.809 200.192H428.161V215.368H432.529Z" fill="#0C570A"/>
<rect x="396" y="232" width="60" height="52" stroke="black"/>
<path d="M419.425 268.124C420.825 266.929 422.076 265.837 423.177 264.848C424.279 263.84 425.212 262.907 425.977 262.048C426.761 261.189 427.359 260.387 427.769 259.64C428.18 258.893 428.385 258.175 428.385 257.484C428.385 256.532 428.096 255.785 427.517 255.244C426.939 254.684 426.089 254.404 424.969 254.404C424.185 254.404 423.467 254.6 422.813 254.992C422.179 255.384 421.591 255.851 421.049 256.392L419.285 254.6C420.144 253.723 421.049 253.051 422.001 252.584C422.953 252.099 424.083 251.856 425.389 251.856C426.304 251.856 427.135 251.987 427.881 252.248C428.628 252.509 429.263 252.883 429.785 253.368C430.327 253.835 430.737 254.404 431.017 255.076C431.316 255.748 431.465 256.495 431.465 257.316C431.465 258.1 431.269 258.903 430.877 259.724C430.504 260.527 429.991 261.348 429.337 262.188C428.684 263.009 427.9 263.859 426.985 264.736C426.089 265.613 425.128 266.519 424.101 267.452C424.624 267.415 425.175 267.377 425.753 267.34C426.332 267.284 426.864 267.256 427.349 267.256H432.389V270H419.425V268.124Z" fill="#0C570A"/>
<rect x="396" y="284" width="60" height="54" stroke="black"/>
<path d="M420.517 319.744C421.115 320.285 421.805 320.752 422.589 321.144C423.392 321.517 424.279 321.704 425.249 321.704C426.351 321.704 427.256 321.471 427.965 321.004C428.693 320.519 429.057 319.856 429.057 319.016C429.057 318.549 428.955 318.129 428.749 317.756C428.544 317.383 428.208 317.065 427.741 316.804C427.293 316.543 426.687 316.347 425.921 316.216C425.175 316.067 424.251 315.992 423.149 315.992V313.64C424.101 313.64 424.913 313.575 425.585 313.444C426.257 313.295 426.799 313.099 427.209 312.856C427.639 312.595 427.947 312.287 428.133 311.932C428.339 311.577 428.441 311.195 428.441 310.784C428.441 310.037 428.152 309.459 427.573 309.048C427.013 308.619 426.257 308.404 425.305 308.404C424.521 308.404 423.793 308.563 423.121 308.88C422.468 309.179 421.843 309.58 421.245 310.084L419.565 308.096C420.387 307.424 421.283 306.883 422.253 306.472C423.224 306.061 424.288 305.856 425.445 305.856C426.36 305.856 427.2 305.959 427.965 306.164C428.731 306.369 429.384 306.677 429.925 307.088C430.485 307.48 430.915 307.975 431.213 308.572C431.531 309.151 431.689 309.813 431.689 310.56C431.689 311.568 431.363 312.408 430.709 313.08C430.056 313.752 429.179 314.275 428.077 314.648V314.76C428.656 314.909 429.197 315.115 429.701 315.376C430.224 315.619 430.672 315.927 431.045 316.3C431.437 316.673 431.745 317.103 431.969 317.588C432.193 318.073 432.305 318.605 432.305 319.184C432.305 320.005 432.119 320.733 431.745 321.368C431.391 322.003 430.905 322.544 430.289 322.992C429.673 323.421 428.955 323.757 428.133 324C427.312 324.224 426.444 324.336 425.529 324.336C423.999 324.336 422.692 324.093 421.609 323.608C420.527 323.123 419.659 322.525 419.005 321.816L420.517 319.744Z" fill="#0C570A"/>
<rect x="456" y="126" width="58" height="52" stroke="black"/>
<path d="M478.593 160.304C478.593 159.539 478.771 158.867 479.125 158.288C479.48 157.691 480.04 157.187 480.805 156.776C481.571 156.365 482.551 156.029 483.745 155.768C484.94 155.507 486.387 155.32 488.085 155.208C488.029 154.424 487.749 153.78 487.245 153.276C486.741 152.772 485.929 152.52 484.809 152.52C484.025 152.52 483.251 152.669 482.485 152.968C481.739 153.248 481.011 153.584 480.301 153.976L479.125 151.82C479.965 151.335 480.927 150.896 482.009 150.504C483.092 150.112 484.221 149.916 485.397 149.916C487.32 149.916 488.785 150.429 489.793 151.456C490.801 152.464 491.305 153.929 491.305 155.852V164H488.673L488.421 162.292H488.337C487.609 162.852 486.797 163.337 485.901 163.748C485.024 164.14 484.119 164.336 483.185 164.336C482.513 164.336 481.897 164.233 481.337 164.028C480.777 163.841 480.292 163.571 479.881 163.216C479.471 162.861 479.153 162.441 478.929 161.956C478.705 161.452 478.593 160.901 478.593 160.304ZM481.701 160.052C481.701 160.668 481.935 161.116 482.401 161.396C482.887 161.676 483.475 161.816 484.165 161.816C484.856 161.816 485.519 161.667 486.153 161.368C486.807 161.051 487.451 160.64 488.085 160.136V157.224C486.853 157.317 485.827 157.448 485.005 157.616C484.184 157.765 483.531 157.961 483.045 158.204C482.56 158.447 482.215 158.727 482.009 159.044C481.804 159.343 481.701 159.679 481.701 160.052Z" fill="#B82629"/>
<rect x="338" y="16" width="58" height="52" stroke="black"/>
<path d="M361.593 50.304C361.593 49.5387 361.771 48.8667 362.125 48.288C362.48 47.6907 363.04 47.1867 363.805 46.776C364.571 46.3653 365.551 46.0293 366.745 45.768C367.94 45.5067 369.387 45.32 371.085 45.208C371.029 44.424 370.749 43.78 370.245 43.276C369.741 42.772 368.929 42.52 367.809 42.52C367.025 42.52 366.251 42.6693 365.485 42.968C364.739 43.248 364.011 43.584 363.301 43.976L362.125 41.82C362.965 41.3347 363.927 40.896 365.009 40.504C366.092 40.112 367.221 39.916 368.397 39.916C370.32 39.916 371.785 40.4293 372.793 41.456C373.801 42.464 374.305 43.9293 374.305 45.852V54H371.673L371.421 52.292H371.337C370.609 52.852 369.797 53.3373 368.901 53.748C368.024 54.14 367.119 54.336 366.185 54.336C365.513 54.336 364.897 54.2333 364.337 54.028C363.777 53.8413 363.292 53.5707 362.881 53.216C362.471 52.8613 362.153 52.4413 361.929 51.956C361.705 51.452 361.593 50.9013 361.593 50.304ZM364.701 50.052C364.701 50.668 364.935 51.116 365.401 51.396C365.887 51.676 366.475 51.816 367.165 51.816C367.856 51.816 368.519 51.6667 369.153 51.368C369.807 51.0507 370.451 50.64 371.085 50.136V47.224C369.853 47.3173 368.827 47.448 368.005 47.616C367.184 47.7653 366.531 47.9613 366.045 48.204C365.56 48.4467 365.215 48.7267 365.009 49.044C364.804 49.3427 364.701 49.6787 364.701 50.052Z" fill="#B82629"/>
<rect x="396" y="16" width="60" height="52" stroke="black"/>
<path d="M420.901 34.232H424.149V39.328L424.037 41.736C424.635 41.176 425.307 40.7373 426.053 40.42C426.8 40.084 427.547 39.916 428.293 39.916C429.189 39.916 429.983 40.084 430.673 40.42C431.364 40.7373 431.952 41.204 432.437 41.82C432.923 42.4173 433.287 43.1453 433.529 44.004C433.791 44.8627 433.921 45.824 433.921 46.888C433.921 48.064 433.753 49.1187 433.417 50.052C433.081 50.9667 432.624 51.7413 432.045 52.376C431.485 53.0107 430.832 53.496 430.085 53.832C429.357 54.168 428.601 54.336 427.817 54.336C427.164 54.336 426.483 54.1773 425.773 53.86C425.064 53.5427 424.411 53.0853 423.813 52.488H423.729L423.449 54H420.901V34.232ZM424.149 50.416C424.653 50.8827 425.176 51.2093 425.717 51.396C426.259 51.5827 426.744 51.676 427.173 51.676C428.144 51.676 428.956 51.284 429.609 50.5C430.263 49.6973 430.589 48.512 430.589 46.944C430.589 45.5627 430.337 44.4893 429.833 43.724C429.329 42.9587 428.517 42.576 427.397 42.576C426.875 42.576 426.343 42.7067 425.801 42.968C425.26 43.2293 424.709 43.6493 424.149 44.228V50.416Z" fill="#B82629"/>
<rect x="456" y="16" width="60" height="52" stroke="black"/>
<path d="M479.649 47.14C479.649 46.0013 479.855 44.984 480.265 44.088C480.695 43.192 481.264 42.436 481.973 41.82C482.683 41.204 483.513 40.7373 484.465 40.42C485.417 40.084 486.416 39.916 487.461 39.916C488.581 39.916 489.561 40.1027 490.401 40.476C491.26 40.8493 491.979 41.3067 492.557 41.848L491.017 43.864C490.476 43.4347 489.925 43.108 489.365 42.884C488.824 42.66 488.245 42.548 487.629 42.548C486.248 42.548 485.128 42.968 484.269 43.808C483.411 44.6293 482.981 45.74 482.981 47.14C482.981 47.8307 483.093 48.456 483.317 49.016C483.541 49.576 483.849 50.0613 484.241 50.472C484.652 50.864 485.137 51.172 485.697 51.396C486.257 51.6013 486.873 51.704 487.545 51.704C488.329 51.704 489.039 51.5547 489.673 51.256C490.327 50.9573 490.924 50.6027 491.465 50.192L492.809 52.264C492.025 52.9547 491.148 53.4773 490.177 53.832C489.207 54.168 488.227 54.336 487.237 54.336C486.155 54.336 485.147 54.1773 484.213 53.86C483.299 53.5427 482.496 53.076 481.805 52.46C481.133 51.844 480.601 51.088 480.209 50.192C479.836 49.296 479.649 48.2787 479.649 47.14Z" fill="#B82629"/>
<rect x="516" y="16" width="58" height="52" stroke="black"/>
<path d="M538.089 47.14C538.089 46.02 538.257 45.012 538.593 44.116C538.929 43.22 539.377 42.464 539.937 41.848C540.516 41.232 541.169 40.756 541.897 40.42C542.625 40.084 543.381 39.916 544.165 39.916C544.987 39.916 545.687 40.0653 546.265 40.364C546.863 40.644 547.441 41.036 548.001 41.54L547.861 39.216V34.232H551.109V54H548.449L548.197 52.404H548.113C547.572 52.9453 546.937 53.4027 546.209 53.776C545.5 54.1493 544.753 54.336 543.969 54.336C543.092 54.336 542.289 54.1773 541.561 53.86C540.833 53.524 540.208 53.048 539.685 52.432C539.181 51.816 538.789 51.0693 538.509 50.192C538.229 49.296 538.089 48.2787 538.089 47.14ZM541.421 47.112C541.421 48.6053 541.711 49.744 542.289 50.528C542.868 51.2933 543.689 51.676 544.753 51.676C545.892 51.676 546.928 51.1253 547.861 50.024V43.836C547.376 43.3693 546.891 43.0427 546.405 42.856C545.92 42.6693 545.425 42.576 544.921 42.576C544.436 42.576 543.979 42.6787 543.549 42.884C543.139 43.0893 542.775 43.388 542.457 43.78C542.14 44.1533 541.888 44.62 541.701 45.18C541.515 45.74 541.421 46.384 541.421 47.112Z" fill="#B82629"/>
<rect x="456" y="178" width="58" height="54" stroke="black"/>
<path d="M478.901 198.232H482.149V203.328L482.037 205.736C482.635 205.176 483.307 204.737 484.053 204.42C484.8 204.084 485.547 203.916 486.293 203.916C487.189 203.916 487.983 204.084 488.673 204.42C489.364 204.737 489.952 205.204 490.437 205.82C490.923 206.417 491.287 207.145 491.529 208.004C491.791 208.863 491.921 209.824 491.921 210.888C491.921 212.064 491.753 213.119 491.417 214.052C491.081 214.967 490.624 215.741 490.045 216.376C489.485 217.011 488.832 217.496 488.085 217.832C487.357 218.168 486.601 218.336 485.817 218.336C485.164 218.336 484.483 218.177 483.773 217.86C483.064 217.543 482.411 217.085 481.813 216.488H481.729L481.449 218H478.901V198.232ZM482.149 214.416C482.653 214.883 483.176 215.209 483.717 215.396C484.259 215.583 484.744 215.676 485.173 215.676C486.144 215.676 486.956 215.284 487.609 214.5C488.263 213.697 488.589 212.512 488.589 210.944C488.589 209.563 488.337 208.489 487.833 207.724C487.329 206.959 486.517 206.576 485.397 206.576C484.875 206.576 484.343 206.707 483.801 206.968C483.26 207.229 482.709 207.649 482.149 208.228V214.416Z" fill="#B82629"/>
<rect x="456" y="232" width="58" height="52" stroke="black"/>
<path d="M478.649 263.14C478.649 262.001 478.855 260.984 479.265 260.088C479.695 259.192 480.264 258.436 480.973 257.82C481.683 257.204 482.513 256.737 483.465 256.42C484.417 256.084 485.416 255.916 486.461 255.916C487.581 255.916 488.561 256.103 489.401 256.476C490.26 256.849 490.979 257.307 491.557 257.848L490.017 259.864C489.476 259.435 488.925 259.108 488.365 258.884C487.824 258.66 487.245 258.548 486.629 258.548C485.248 258.548 484.128 258.968 483.269 259.808C482.411 260.629 481.981 261.74 481.981 263.14C481.981 263.831 482.093 264.456 482.317 265.016C482.541 265.576 482.849 266.061 483.241 266.472C483.652 266.864 484.137 267.172 484.697 267.396C485.257 267.601 485.873 267.704 486.545 267.704C487.329 267.704 488.039 267.555 488.673 267.256C489.327 266.957 489.924 266.603 490.465 266.192L491.809 268.264C491.025 268.955 490.148 269.477 489.177 269.832C488.207 270.168 487.227 270.336 486.237 270.336C485.155 270.336 484.147 270.177 483.213 269.86C482.299 269.543 481.496 269.076 480.805 268.46C480.133 267.844 479.601 267.088 479.209 266.192C478.836 265.296 478.649 264.279 478.649 263.14Z" fill="#B82629"/>
<rect x="456" y="284" width="58" height="54" stroke="black"/>
<path d="M478.089 317.14C478.089 316.02 478.257 315.012 478.593 314.116C478.929 313.22 479.377 312.464 479.937 311.848C480.516 311.232 481.169 310.756 481.897 310.42C482.625 310.084 483.381 309.916 484.165 309.916C484.987 309.916 485.687 310.065 486.265 310.364C486.863 310.644 487.441 311.036 488.001 311.54L487.861 309.216V304.232H491.109V324H488.449L488.197 322.404H488.113C487.572 322.945 486.937 323.403 486.209 323.776C485.5 324.149 484.753 324.336 483.969 324.336C483.092 324.336 482.289 324.177 481.561 323.86C480.833 323.524 480.208 323.048 479.685 322.432C479.181 321.816 478.789 321.069 478.509 320.192C478.229 319.296 478.089 318.279 478.089 317.14ZM481.421 317.112C481.421 318.605 481.711 319.744 482.289 320.528C482.868 321.293 483.689 321.676 484.753 321.676C485.892 321.676 486.928 321.125 487.861 320.024V313.836C487.376 313.369 486.891 313.043 486.405 312.856C485.92 312.669 485.425 312.576 484.921 312.576C484.436 312.576 483.979 312.679 483.549 312.884C483.139 313.089 482.775 313.388 482.457 313.78C482.14 314.153 481.888 314.62 481.701 315.18C481.515 315.74 481.421 316.384 481.421 317.112Z" fill="#B82629"/>
<path d="M98.4688 52.2734C97.2018 52.2461 96.099 51.9408 95.1602 51.3574C94.2305 50.7741 93.4967 49.9173 92.959 48.7871C92.4212 47.6478 92.125 46.3717 92.0703 44.959C92.0156 43.8561 92.1387 42.4935 92.4395 40.8711C92.7402 39.2487 93.2598 37.7858 93.998 36.4824C94.7363 35.179 95.6341 34.1354 96.6914 33.3516C98.1224 32.2943 99.7539 31.7839 101.586 31.8203C103.527 31.8568 105.059 32.5312 106.18 33.8438C107.301 35.1471 107.902 36.9154 107.984 39.1484C108.021 40.1055 107.921 41.3223 107.684 42.7988C107.456 44.2754 107.041 45.6471 106.439 46.9141C105.847 48.181 105.09 49.2428 104.17 50.0996C102.566 51.5944 100.665 52.319 98.4688 52.2734ZM105.455 39.7773C105.51 37.9818 105.195 36.5918 104.512 35.6074C103.828 34.6139 102.812 34.099 101.463 34.0625C100.242 34.026 99.1478 34.3542 98.1816 35.0469C97.2246 35.7396 96.4362 36.7786 95.8164 38.1641C95.2057 39.5404 94.8184 41.2858 94.6543 43.4004L94.6133 44.2891C94.5586 46.0755 94.8776 47.4746 95.5703 48.4863C96.263 49.498 97.2702 50.0221 98.5918 50.0586C100.314 50.1042 101.741 49.4844 102.871 48.1992C104.01 46.9049 104.767 45.0911 105.141 42.7578C105.323 41.6094 105.428 40.6159 105.455 39.7773ZM118.799 39.4629L117.637 39.3398C116.051 39.3398 114.802 40.0553 113.891 41.4863L112.072 52H109.598L112.168 37.207L114.561 37.1934L114.191 38.916C115.24 37.5397 116.475 36.8698 117.896 36.9062C118.197 36.9062 118.589 36.9746 119.072 37.1113L118.799 39.4629ZM121.602 52H119.141L121.711 37.207H124.172L121.602 52ZM123.639 31.8066C124.058 31.7884 124.404 31.916 124.678 32.1895C124.96 32.4538 125.102 32.8047 125.102 33.2422C125.092 33.6706 124.951 34.0215 124.678 34.2949C124.413 34.5684 124.067 34.7142 123.639 34.7324C123.21 34.7507 122.859 34.6276 122.586 34.3633C122.312 34.099 122.18 33.7526 122.189 33.3242C122.199 32.8958 122.335 32.5404 122.6 32.2578C122.864 31.9753 123.21 31.8249 123.639 31.8066ZM126.373 44.5762C126.592 42.9629 127.025 41.5638 127.672 40.3789C128.328 39.1849 129.121 38.3053 130.051 37.7402C130.99 37.166 132.015 36.8926 133.127 36.9199C134.84 36.9564 136.135 37.6035 137.01 38.8613L137.502 37.207H139.771L137.311 51.6855C137.046 53.5723 136.281 55.0807 135.014 56.2109C133.747 57.3503 132.184 57.8926 130.324 57.8379C129.322 57.8197 128.36 57.5827 127.439 57.127C126.528 56.6712 125.808 56.0469 125.279 55.2539L126.688 53.7363C127.581 55.0579 128.761 55.737 130.229 55.7734C131.404 55.8099 132.398 55.4818 133.209 54.7891C134.029 54.0964 134.572 53.112 134.836 51.8359L135.109 50.5234C133.906 51.7266 132.498 52.3099 130.885 52.2734C129.964 52.2461 129.162 52 128.479 51.5352C127.804 51.0612 127.28 50.3822 126.906 49.498C126.533 48.6048 126.327 47.6113 126.291 46.5176C126.273 45.9798 126.3 45.3327 126.373 44.5762ZM128.766 45.9844C128.738 47.2878 128.962 48.2995 129.436 49.0195C129.919 49.7305 130.643 50.1042 131.609 50.1406C133.086 50.1771 134.357 49.4525 135.424 47.9668L136.586 41.1719C136.039 39.8229 135.05 39.1211 133.619 39.0664C132.279 39.0299 131.176 39.5768 130.311 40.707C129.454 41.8372 128.948 43.3639 128.793 45.2871L128.766 45.9844ZM143.723 52H141.262L143.832 37.207H146.293L143.723 52ZM145.76 31.8066C146.179 31.7884 146.525 31.916 146.799 32.1895C147.081 32.4538 147.223 32.8047 147.223 33.2422C147.214 33.6706 147.072 34.0215 146.799 34.2949C146.535 34.5684 146.188 34.7142 145.76 34.7324C145.331 34.7507 144.98 34.6276 144.707 34.3633C144.434 34.099 144.301 33.7526 144.311 33.3242C144.32 32.8958 144.456 32.5404 144.721 32.2578C144.985 31.9753 145.331 31.8249 145.76 31.8066ZM152.678 37.1934L152.322 39.0664C153.653 37.6081 155.166 36.8971 156.861 36.9336C158.256 36.9701 159.286 37.4531 159.951 38.3828C160.617 39.3125 160.863 40.6204 160.689 42.3066L159.076 52H156.602L158.229 42.2656C158.283 41.819 158.288 41.4043 158.242 41.0215C158.087 39.7454 157.335 39.0938 155.986 39.0664C154.501 39.0391 153.197 39.832 152.076 41.4453L150.244 52H147.77L150.34 37.207L152.678 37.1934ZM171.941 52C171.878 51.7357 171.846 51.4759 171.846 51.2207L171.887 50.4414C170.529 51.6992 169.089 52.3099 167.566 52.2734C166.263 52.2552 165.201 51.8451 164.381 51.043C163.57 50.2318 163.201 49.2201 163.273 48.0078C163.365 46.4401 164.048 45.2188 165.324 44.3438C166.609 43.4596 168.296 43.0176 170.383 43.0176L172.967 43.0312L173.131 41.8555C173.222 40.9714 173.049 40.2741 172.611 39.7637C172.183 39.2441 171.536 38.9753 170.67 38.957C169.822 38.9388 169.07 39.1484 168.414 39.5859C167.767 40.0143 167.37 40.584 167.225 41.2949L164.736 41.3086C164.818 40.4427 165.156 39.6771 165.748 39.0117C166.34 38.3372 167.102 37.8177 168.031 37.4531C168.961 37.0794 169.923 36.9017 170.916 36.9199C172.456 36.9564 173.655 37.4258 174.512 38.3281C175.368 39.2214 175.729 40.4108 175.592 41.8965L174.389 49.2246L174.32 50.2773C174.302 50.7786 174.357 51.2754 174.484 51.7676L174.457 52H171.941ZM168.059 50.0859C168.852 50.1042 169.599 49.9173 170.301 49.5254C171.012 49.1243 171.622 48.5729 172.133 47.8711L172.666 44.8223L170.793 44.8086C169.234 44.8086 168.04 45.0547 167.211 45.5469C166.382 46.0391 165.912 46.7363 165.803 47.6387C165.721 48.3314 165.88 48.9102 166.281 49.375C166.691 49.8307 167.284 50.0677 168.059 50.0859ZM180.5 52H178.039L181.676 31H184.15L180.5 52ZM194.746 49.8535H203.906L203.523 52H191.793L195.252 32.0938H197.836L194.746 49.8535ZM208.855 52H206.395L208.965 37.207H211.426L208.855 52ZM210.893 31.8066C211.312 31.7884 211.658 31.916 211.932 32.1895C212.214 32.4538 212.355 32.8047 212.355 33.2422C212.346 33.6706 212.205 34.0215 211.932 34.2949C211.667 34.5684 211.321 34.7142 210.893 34.7324C210.464 34.7507 210.113 34.6276 209.84 34.3633C209.566 34.099 209.434 33.7526 209.443 33.3242C209.452 32.8958 209.589 32.5404 209.854 32.2578C210.118 31.9753 210.464 31.8249 210.893 31.8066ZM222.062 47.9941C222.199 46.9733 221.639 46.2533 220.381 45.834L217.811 45.082C215.641 44.3346 214.593 43.0951 214.666 41.3633C214.73 40.0599 215.322 38.9935 216.443 38.1641C217.574 37.3255 218.9 36.9154 220.422 36.9336C221.917 36.9518 223.129 37.3893 224.059 38.2461C224.997 39.0938 225.449 40.2012 225.412 41.5684L222.951 41.5547C222.969 40.8164 222.737 40.2148 222.254 39.75C221.771 39.2852 221.128 39.0436 220.326 39.0254C219.469 39.0072 218.731 39.2168 218.111 39.6543C217.537 40.0645 217.204 40.6022 217.113 41.2676C216.995 42.1243 217.519 42.7487 218.686 43.1406L219.93 43.4824C221.625 43.9199 222.828 44.4896 223.539 45.1914C224.25 45.8932 224.578 46.7637 224.523 47.8027C224.469 48.7233 224.168 49.5254 223.621 50.209C223.074 50.8926 222.345 51.4167 221.434 51.7812C220.522 52.1367 219.551 52.3008 218.521 52.2734C216.954 52.2552 215.66 51.7995 214.639 50.9062C213.618 50.0039 213.126 48.8464 213.162 47.4336L215.637 47.4473C215.637 48.2767 215.901 48.9421 216.43 49.4434C216.958 49.9447 217.683 50.1953 218.604 50.1953C219.506 50.2135 220.285 50.0267 220.941 49.6348C221.598 49.2337 221.971 48.6868 222.062 47.9941ZM233.574 33.625L232.945 37.207H235.639L235.297 39.1621H232.617L231.072 48.3633C231.045 48.6003 231.04 48.819 231.059 49.0195C231.122 49.7305 231.51 50.0859 232.221 50.0859C232.521 50.0859 232.923 50.0404 233.424 49.9492L233.232 52.0137C232.64 52.1777 232.038 52.2598 231.428 52.2598C230.443 52.2415 229.705 51.8815 229.213 51.1797C228.721 50.4688 228.529 49.5163 228.639 48.3223L230.143 39.1621H227.531L227.873 37.207H230.484L231.113 33.625H233.574Z" fill="black"/>
<path d="M76.0859 234.799H67.7188L66.4883 241.854H76.2227L75.8398 244H63.5488L67.0078 224.094H79.1621L78.7793 226.254H69.1953L68.0879 232.652H76.4551L76.0859 234.799ZM83.6602 229.193L83.3047 231.066C84.6354 229.608 86.1484 228.897 87.8438 228.934C89.2383 228.97 90.2682 229.453 90.9336 230.383C91.599 231.312 91.8451 232.62 91.6719 234.307L90.0586 244H87.584L89.2109 234.266C89.2656 233.819 89.2702 233.404 89.2246 233.021C89.0697 231.745 88.3177 231.094 86.9688 231.066C85.4831 231.039 84.1797 231.832 83.0586 233.445L81.2266 244H78.752L81.3223 229.207L83.6602 229.193ZM103.266 242.537C102.108 243.731 100.636 244.31 98.8496 244.273C97.4368 244.237 96.3887 243.731 95.7051 242.756C95.0306 241.781 94.7799 240.45 94.9531 238.764L96.5391 229.207H99.0137L97.4141 238.805C97.3685 239.206 97.3594 239.598 97.3867 239.98C97.4323 240.637 97.6283 241.152 97.9746 241.525C98.321 241.899 98.804 242.1 99.4238 242.127C101.192 242.182 102.559 241.466 103.525 239.98L105.385 229.207H107.859L105.289 244H102.951L103.266 242.537ZM113.875 229.193L113.561 230.848C114.8 229.535 116.299 228.897 118.059 228.934C118.997 228.952 119.79 229.166 120.438 229.576C121.094 229.986 121.545 230.565 121.791 231.312C123.176 229.69 124.812 228.897 126.699 228.934C128.176 228.97 129.265 229.467 129.967 230.424C130.669 231.381 130.928 232.666 130.746 234.279L129.119 244H126.658L128.271 234.252C128.326 233.778 128.326 233.345 128.271 232.953C128.098 231.714 127.287 231.08 125.838 231.053C124.936 231.035 124.115 231.317 123.377 231.9C122.648 232.475 122.178 233.231 121.969 234.17L120.287 244H117.799L119.439 234.266C119.558 233.254 119.403 232.475 118.975 231.928C118.555 231.381 117.899 231.098 117.006 231.08C115.465 231.044 114.24 231.745 113.328 233.186L111.455 244H108.98L111.551 229.207L113.875 229.193ZM139.346 244.273C137.505 244.237 136.064 243.558 135.025 242.236C133.986 240.915 133.549 239.224 133.713 237.164L133.781 236.576C133.936 235.109 134.369 233.769 135.08 232.557C135.8 231.344 136.675 230.433 137.705 229.822C138.735 229.202 139.847 228.906 141.041 228.934C142.563 228.97 143.757 229.476 144.623 230.451C145.489 231.426 145.963 232.748 146.045 234.416C146.072 235.008 146.054 235.601 145.99 236.193L145.84 237.328H136.174C136.01 238.668 136.229 239.807 136.83 240.746C137.441 241.685 138.348 242.173 139.551 242.209C141.009 242.245 142.358 241.589 143.598 240.24L145.02 241.443C144.4 242.337 143.598 243.038 142.613 243.549C141.638 244.05 140.549 244.292 139.346 244.273ZM140.918 230.998C139.897 230.971 139.004 231.317 138.238 232.037C137.482 232.757 136.88 233.828 136.434 235.25L143.625 235.264L143.68 235.045C143.826 233.896 143.639 232.944 143.119 232.188C142.609 231.422 141.875 231.025 140.918 230.998ZM156.668 231.463L155.506 231.34C153.92 231.34 152.671 232.055 151.76 233.486L149.941 244H147.467L150.037 229.207L152.43 229.193L152.061 230.916C153.109 229.54 154.344 228.87 155.766 228.906C156.066 228.906 156.458 228.975 156.941 229.111L156.668 231.463ZM165.295 244C165.231 243.736 165.199 243.476 165.199 243.221L165.24 242.441C163.882 243.699 162.442 244.31 160.92 244.273C159.617 244.255 158.555 243.845 157.734 243.043C156.923 242.232 156.554 241.22 156.627 240.008C156.718 238.44 157.402 237.219 158.678 236.344C159.963 235.46 161.649 235.018 163.736 235.018L166.32 235.031L166.484 233.855C166.576 232.971 166.402 232.274 165.965 231.764C165.536 231.244 164.889 230.975 164.023 230.957C163.176 230.939 162.424 231.148 161.768 231.586C161.12 232.014 160.724 232.584 160.578 233.295L158.09 233.309C158.172 232.443 158.509 231.677 159.102 231.012C159.694 230.337 160.455 229.818 161.385 229.453C162.314 229.079 163.276 228.902 164.27 228.92C165.81 228.956 167.008 229.426 167.865 230.328C168.722 231.221 169.082 232.411 168.945 233.896L167.742 241.225L167.674 242.277C167.656 242.779 167.71 243.275 167.838 243.768L167.811 244H165.295ZM161.412 242.086C162.205 242.104 162.952 241.917 163.654 241.525C164.365 241.124 164.976 240.573 165.486 239.871L166.02 236.822L164.146 236.809C162.588 236.809 161.394 237.055 160.564 237.547C159.735 238.039 159.266 238.736 159.156 239.639C159.074 240.331 159.234 240.91 159.635 241.375C160.045 241.831 160.637 242.068 161.412 242.086ZM177.709 225.625L177.08 229.207H179.773L179.432 231.162H176.752L175.207 240.363C175.18 240.6 175.175 240.819 175.193 241.02C175.257 241.73 175.645 242.086 176.355 242.086C176.656 242.086 177.057 242.04 177.559 241.949L177.367 244.014C176.775 244.178 176.173 244.26 175.562 244.26C174.578 244.242 173.84 243.882 173.348 243.18C172.855 242.469 172.664 241.516 172.773 240.322L174.277 231.162H171.666L172.008 229.207H174.619L175.248 225.625H177.709ZM186.596 244.273C184.755 244.237 183.314 243.558 182.275 242.236C181.236 240.915 180.799 239.224 180.963 237.164L181.031 236.576C181.186 235.109 181.619 233.769 182.33 232.557C183.05 231.344 183.925 230.433 184.955 229.822C185.985 229.202 187.097 228.906 188.291 228.934C189.813 228.97 191.007 229.476 191.873 230.451C192.739 231.426 193.213 232.748 193.295 234.416C193.322 235.008 193.304 235.601 193.24 236.193L193.09 237.328H183.424C183.26 238.668 183.479 239.807 184.08 240.746C184.691 241.685 185.598 242.173 186.801 242.209C188.259 242.245 189.608 241.589 190.848 240.24L192.27 241.443C191.65 242.337 190.848 243.038 189.863 243.549C188.888 244.05 187.799 244.292 186.596 244.273ZM188.168 230.998C187.147 230.971 186.254 231.317 185.488 232.037C184.732 232.757 184.13 233.828 183.684 235.25L190.875 235.264L190.93 235.045C191.076 233.896 190.889 232.944 190.369 232.188C189.859 231.422 189.125 231.025 188.168 230.998ZM195.428 236.576C195.61 235.072 196.025 233.714 196.672 232.502C197.319 231.29 198.117 230.383 199.064 229.781C200.012 229.18 201.056 228.893 202.195 228.92C203.845 228.956 205.112 229.558 205.996 230.725L207.418 223H209.893L206.256 244H204L204.26 242.414C203.093 243.69 201.653 244.31 199.939 244.273C198.572 244.237 197.483 243.704 196.672 242.674C195.861 241.635 195.423 240.245 195.359 238.504C195.332 237.966 195.355 237.324 195.428 236.576ZM197.807 237.998C197.779 239.301 198.012 240.313 198.504 241.033C198.996 241.753 199.716 242.122 200.664 242.141C202.095 242.204 203.367 241.484 204.479 239.98L205.654 233.145C205.107 231.796 204.114 231.103 202.674 231.066C201.699 231.039 200.837 231.335 200.09 231.955C199.352 232.566 198.786 233.427 198.395 234.539C198.012 235.642 197.816 236.795 197.807 237.998ZM220.365 241.854H229.525L229.143 244H217.412L220.871 224.094H223.455L220.365 241.854ZM234.475 244H232.014L234.584 229.207H237.045L234.475 244ZM236.512 223.807C236.931 223.788 237.277 223.916 237.551 224.189C237.833 224.454 237.975 224.805 237.975 225.242C237.965 225.671 237.824 226.021 237.551 226.295C237.286 226.568 236.94 226.714 236.512 226.732C236.083 226.751 235.732 226.628 235.459 226.363C235.186 226.099 235.053 225.753 235.062 225.324C235.072 224.896 235.208 224.54 235.473 224.258C235.737 223.975 236.083 223.825 236.512 223.807ZM247.682 239.994C247.818 238.973 247.258 238.253 246 237.834L243.43 237.082C241.26 236.335 240.212 235.095 240.285 233.363C240.349 232.06 240.941 230.993 242.062 230.164C243.193 229.326 244.519 228.915 246.041 228.934C247.536 228.952 248.748 229.389 249.678 230.246C250.617 231.094 251.068 232.201 251.031 233.568L248.57 233.555C248.589 232.816 248.356 232.215 247.873 231.75C247.39 231.285 246.747 231.044 245.945 231.025C245.089 231.007 244.35 231.217 243.73 231.654C243.156 232.064 242.824 232.602 242.732 233.268C242.614 234.124 243.138 234.749 244.305 235.141L245.549 235.482C247.244 235.92 248.447 236.49 249.158 237.191C249.869 237.893 250.197 238.764 250.143 239.803C250.088 240.723 249.787 241.525 249.24 242.209C248.693 242.893 247.964 243.417 247.053 243.781C246.141 244.137 245.171 244.301 244.141 244.273C242.573 244.255 241.279 243.799 240.258 242.906C239.237 242.004 238.745 240.846 238.781 239.434L241.256 239.447C241.256 240.277 241.52 240.942 242.049 241.443C242.577 241.945 243.302 242.195 244.223 242.195C245.125 242.214 245.904 242.027 246.561 241.635C247.217 241.234 247.59 240.687 247.682 239.994ZM259.193 225.625L258.564 229.207H261.258L260.916 231.162H258.236L256.691 240.363C256.664 240.6 256.66 240.819 256.678 241.02C256.742 241.73 257.129 242.086 257.84 242.086C258.141 242.086 258.542 242.04 259.043 241.949L258.852 244.014C258.259 244.178 257.658 244.26 257.047 244.26C256.062 244.242 255.324 243.882 254.832 243.18C254.34 242.469 254.148 241.516 254.258 240.322L255.762 231.162H253.15L253.492 229.207H256.104L256.732 225.625H259.193Z" fill="black"/>
<path d="M678 16H1060V68H678V16Z" fill="#F1F4F8"/>
<path d="M690.806 32.2468H698.814V34.0108H693.298V54.5628H698.814V56.3268H690.806V32.2468ZM757.29 56.1588C759.661 55.2068 760.855 53.7695 760.874 51.8468C760.781 51.8655 760.65 51.8748 760.482 51.8748C759.773 51.8748 759.157 51.6695 758.634 51.2588C758.111 50.8295 757.85 50.2041 757.85 49.3828C757.85 48.5988 758.111 47.9921 758.634 47.5628C759.175 47.1148 759.81 46.8908 760.538 46.8908C761.546 46.8908 762.302 47.2641 762.806 48.0108C763.31 48.7575 763.562 49.7841 763.562 51.0908C763.562 52.8081 763.095 54.2548 762.162 55.4308C761.229 56.6255 759.885 57.5121 758.13 58.0908L757.29 56.1588ZM841.235 56.1588C843.606 55.2068 844.801 53.7695 844.819 51.8468C844.726 51.8655 844.595 51.8748 844.427 51.8748C843.718 51.8748 843.102 51.6695 842.579 51.2588C842.057 50.8295 841.795 50.2041 841.795 49.3828C841.795 48.5988 842.057 47.9921 842.579 47.5628C843.121 47.1148 843.755 46.8908 844.483 46.8908C845.491 46.8908 846.247 47.2641 846.751 48.0108C847.255 48.7575 847.507 49.7841 847.507 51.0908C847.507 52.8081 847.041 54.2548 846.107 55.4308C845.174 56.6255 843.83 57.5121 842.075 58.0908L841.235 56.1588ZM925.181 56.1588C927.551 55.2068 928.746 53.7695 928.765 51.8468C928.671 51.8655 928.541 51.8748 928.373 51.8748C927.663 51.8748 927.047 51.6695 926.525 51.2588C926.002 50.8295 925.741 50.2041 925.741 49.3828C925.741 48.5988 926.002 47.9921 926.525 47.5628C927.066 47.1148 927.701 46.8908 928.429 46.8908C929.437 46.8908 930.193 47.2641 930.697 48.0108C931.201 48.7575 931.453 49.7841 931.453 51.0908C931.453 52.8081 930.986 54.2548 930.053 55.4308C929.119 56.6255 927.775 57.5121 926.021 58.0908L925.181 56.1588ZM1012.18 54.5628V34.0108H1006.69V32.2468H1014.7V56.3268H1006.69V54.5628H1012.18Z" fill="#2E383C"/>
<path d="M708.155 36.4468L708.071 32.8628H711.991L711.907 36.4468L711.067 42.9148H708.995L708.155 36.4468ZM720.408 48.3748C720.408 47.6095 720.585 46.9375 720.94 46.3588C721.295 45.7615 721.855 45.2575 722.62 44.8468C723.385 44.4361 724.365 44.1001 725.56 43.8388C726.755 43.5775 728.201 43.3908 729.9 43.2788C729.844 42.4948 729.564 41.8508 729.06 41.3468C728.556 40.8428 727.744 40.5908 726.624 40.5908C725.84 40.5908 725.065 40.7401 724.3 41.0388C723.553 41.3188 722.825 41.6548 722.116 42.0468L720.94 39.8908C721.78 39.4055 722.741 38.9668 723.824 38.5748C724.907 38.1828 726.036 37.9868 727.212 37.9868C729.135 37.9868 730.6 38.5001 731.608 39.5268C732.616 40.5348 733.12 42.0001 733.12 43.9228V52.0708H730.488L730.236 50.3628H730.152C729.424 50.9228 728.612 51.4081 727.716 51.8188C726.839 52.2108 725.933 52.4068 725 52.4068C724.328 52.4068 723.712 52.3041 723.152 52.0988C722.592 51.9121 722.107 51.6415 721.696 51.2868C721.285 50.9321 720.968 50.5121 720.744 50.0268C720.52 49.5228 720.408 48.9721 720.408 48.3748ZM723.516 48.1228C723.516 48.7388 723.749 49.1868 724.216 49.4668C724.701 49.7468 725.289 49.8868 725.98 49.8868C726.671 49.8868 727.333 49.7375 727.968 49.4388C728.621 49.1215 729.265 48.7108 729.9 48.2068V45.2948C728.668 45.3881 727.641 45.5188 726.82 45.6868C725.999 45.8361 725.345 46.0321 724.86 46.2748C724.375 46.5175 724.029 46.7975 723.824 47.1148C723.619 47.4135 723.516 47.7495 723.516 48.1228ZM741.733 36.4468L741.649 32.8628H745.569L745.485 36.4468L744.645 42.9148H742.573L741.733 36.4468ZM792.1 36.4468L792.016 32.8628H795.936L795.852 36.4468L795.012 42.9148H792.94L792.1 36.4468ZM804.661 32.3028H807.909V37.3988L807.797 39.8068C808.395 39.2468 809.067 38.8081 809.813 38.4908C810.56 38.1548 811.307 37.9868 812.053 37.9868C812.949 37.9868 813.743 38.1548 814.433 38.4908C815.124 38.8081 815.712 39.2748 816.197 39.8908C816.683 40.4881 817.047 41.2161 817.289 42.0748C817.551 42.9335 817.681 43.8948 817.681 44.9588C817.681 46.1348 817.513 47.1895 817.177 48.1228C816.841 49.0375 816.384 49.8121 815.805 50.4468C815.245 51.0815 814.592 51.5668 813.845 51.9028C813.117 52.2388 812.361 52.4068 811.577 52.4068C810.924 52.4068 810.243 52.2481 809.533 51.9308C808.824 51.6135 808.171 51.1561 807.573 50.5588H807.489L807.209 52.0708H804.661V32.3028ZM807.909 48.4868C808.413 48.9535 808.936 49.2801 809.477 49.4668C810.019 49.6535 810.504 49.7468 810.933 49.7468C811.904 49.7468 812.716 49.3548 813.369 48.5708C814.023 47.7681 814.349 46.5828 814.349 45.0148C814.349 43.6335 814.097 42.5601 813.593 41.7948C813.089 41.0295 812.277 40.6468 811.157 40.6468C810.635 40.6468 810.103 40.7775 809.561 41.0388C809.02 41.3001 808.469 41.7201 807.909 42.2988V48.4868ZM825.678 36.4468L825.594 32.8628H829.514L829.43 36.4468L828.59 42.9148H826.518L825.678 36.4468ZM876.045 36.4468L875.961 32.8628H879.881L879.797 36.4468L878.957 42.9148H876.885L876.045 36.4468ZM888.355 45.2108C888.355 44.0721 888.56 43.0548 888.971 42.1588C889.4 41.2628 889.969 40.5068 890.679 39.8908C891.388 39.2748 892.219 38.8081 893.171 38.4908C894.123 38.1548 895.121 37.9868 896.167 37.9868C897.287 37.9868 898.267 38.1735 899.107 38.5468C899.965 38.9201 900.684 39.3775 901.263 39.9188L899.723 41.9348C899.181 41.5055 898.631 41.1788 898.071 40.9548C897.529 40.7308 896.951 40.6188 896.335 40.6188C894.953 40.6188 893.833 41.0388 892.975 41.8788C892.116 42.7001 891.687 43.8108 891.687 45.2108C891.687 45.9015 891.799 46.5268 892.023 47.0868C892.247 47.6468 892.555 48.1321 892.947 48.5428C893.357 48.9348 893.843 49.2428 894.403 49.4668C894.963 49.6721 895.579 49.7748 896.251 49.7748C897.035 49.7748 897.744 49.6255 898.379 49.3268C899.032 49.0281 899.629 48.6735 900.171 48.2628L901.515 50.3348C900.731 51.0255 899.853 51.5481 898.883 51.9028C897.912 52.2388 896.932 52.4068 895.943 52.4068C894.86 52.4068 893.852 52.2481 892.919 51.9308C892.004 51.6135 891.201 51.1468 890.511 50.5308C889.839 49.9148 889.307 49.1588 888.915 48.2628C888.541 47.3668 888.355 46.3495 888.355 45.2108ZM909.624 36.4468L909.54 32.8628H913.46L913.376 36.4468L912.536 42.9148H910.464L909.624 36.4468ZM959.991 36.4468L959.907 32.8628H963.827L963.743 36.4468L962.903 42.9148H960.831L959.991 36.4468ZM971.74 45.2108C971.74 44.0908 971.908 43.0828 972.244 42.1868C972.58 41.2908 973.028 40.5348 973.588 39.9188C974.167 39.3028 974.82 38.8268 975.548 38.4908C976.276 38.1548 977.032 37.9868 977.816 37.9868C978.637 37.9868 979.337 38.1361 979.916 38.4348C980.513 38.7148 981.092 39.1068 981.652 39.6108L981.512 37.2868V32.3028H984.76V52.0708H982.1L981.848 50.4748H981.764C981.223 51.0161 980.588 51.4735 979.86 51.8468C979.151 52.2201 978.404 52.4068 977.62 52.4068C976.743 52.4068 975.94 52.2481 975.212 51.9308C974.484 51.5948 973.859 51.1188 973.336 50.5028C972.832 49.8868 972.44 49.1401 972.16 48.2628C971.88 47.3668 971.74 46.3495 971.74 45.2108ZM975.072 45.1828C975.072 46.6761 975.361 47.8148 975.94 48.5988C976.519 49.3641 977.34 49.7468 978.404 49.7468C979.543 49.7468 980.579 49.1961 981.512 48.0948V41.9068C981.027 41.4401 980.541 41.1135 980.056 40.9268C979.571 40.7401 979.076 40.6468 978.572 40.6468C978.087 40.6468 977.629 40.7495 977.2 40.9548C976.789 41.1601 976.425 41.4588 976.108 41.8508C975.791 42.2241 975.539 42.6908 975.352 43.2508C975.165 43.8108 975.072 44.4548 975.072 45.1828ZM993.569 36.4468L993.485 32.8628H997.405L997.321 36.4468L996.481 42.9148H994.409L993.569 36.4468Z" fill="#B82629"/>
<path d="M668 120H1050V338H668V120Z" fill="#F1F4F8"/>
<path d="M680.806 130.857H688.814V132.621H683.298V153.173H688.814V154.937H680.806V130.857ZM703.167 189.637C701.282 188.069 699.788 186.221 698.687 184.093C697.604 181.965 697.063 179.567 697.063 176.897C697.063 174.228 697.604 171.829 698.687 169.701C699.788 167.573 701.282 165.725 703.167 164.157L704.959 165.641C703.186 167.247 701.888 168.955 701.067 170.765C700.246 172.576 699.835 174.62 699.835 176.897C699.835 179.175 700.246 181.219 701.067 183.029C701.888 184.84 703.186 186.548 704.959 188.153L703.167 189.637ZM730.501 188.769C732.872 187.817 734.066 186.38 734.085 184.457C733.992 184.476 733.861 184.485 733.693 184.485C732.984 184.485 732.368 184.28 731.845 183.869C731.322 183.44 731.061 182.815 731.061 181.993C731.061 181.209 731.322 180.603 731.845 180.173C732.386 179.725 733.021 179.501 733.749 179.501C734.757 179.501 735.513 179.875 736.017 180.621C736.521 181.368 736.773 182.395 736.773 183.701C736.773 185.419 736.306 186.865 735.373 188.041C734.44 189.236 733.096 190.123 731.341 190.701L730.501 188.769ZM812.626 188.153C814.4 186.548 815.697 184.84 816.518 183.029C817.34 181.219 817.75 179.175 817.75 176.897C817.75 174.62 817.34 172.576 816.518 170.765C815.697 168.955 814.4 167.247 812.626 165.641L814.418 164.157C816.304 165.725 817.788 167.573 818.87 169.701C819.972 171.829 820.522 174.228 820.522 176.897C820.522 179.567 819.972 181.965 818.87 184.093C817.788 186.221 816.304 188.069 814.418 189.637L812.626 188.153ZM831.235 188.769C833.606 187.817 834.801 186.38 834.819 184.457C834.726 184.476 834.595 184.485 834.427 184.485C833.718 184.485 833.102 184.28 832.579 183.869C832.057 183.44 831.795 182.815 831.795 181.993C831.795 181.209 832.057 180.603 832.579 180.173C833.121 179.725 833.755 179.501 834.483 179.501C835.491 179.501 836.247 179.875 836.751 180.621C837.255 181.368 837.507 182.395 837.507 183.701C837.507 185.419 837.041 186.865 836.107 188.041C835.174 189.236 833.83 190.123 832.075 190.701L831.235 188.769ZM703.167 225.637C701.282 224.069 699.788 222.221 698.687 220.093C697.604 217.965 697.063 215.567 697.063 212.897C697.063 210.228 697.604 207.829 698.687 205.701C699.788 203.573 701.282 201.725 703.167 200.157L704.959 201.641C703.186 203.247 701.888 204.955 701.067 206.765C700.246 208.576 699.835 210.62 699.835 212.897C699.835 215.175 700.246 217.219 701.067 219.029C701.888 220.84 703.186 222.548 704.959 224.153L703.167 225.637ZM730.501 224.769C732.872 223.817 734.066 222.38 734.085 220.457C733.992 220.476 733.861 220.485 733.693 220.485C732.984 220.485 732.368 220.28 731.845 219.869C731.322 219.44 731.061 218.815 731.061 217.993C731.061 217.209 731.322 216.603 731.845 216.173C732.386 215.725 733.021 215.501 733.749 215.501C734.757 215.501 735.513 215.875 736.017 216.621C736.521 217.368 736.773 218.395 736.773 219.701C736.773 221.419 736.306 222.865 735.373 224.041C734.44 225.236 733.096 226.123 731.341 226.701L730.501 224.769ZM812.626 224.153C814.4 222.548 815.697 220.84 816.518 219.029C817.34 217.219 817.75 215.175 817.75 212.897C817.75 210.62 817.34 208.576 816.518 206.765C815.697 204.955 814.4 203.247 812.626 201.641L814.418 200.157C816.304 201.725 817.788 203.573 818.87 205.701C819.972 207.829 820.522 210.228 820.522 212.897C820.522 215.567 819.972 217.965 818.87 220.093C817.788 222.221 816.304 224.069 814.418 225.637L812.626 224.153ZM831.235 224.769C833.606 223.817 834.801 222.38 834.819 220.457C834.726 220.476 834.595 220.485 834.427 220.485C833.718 220.485 833.102 220.28 832.579 219.869C832.057 219.44 831.795 218.815 831.795 217.993C831.795 217.209 832.057 216.603 832.579 216.173C833.121 215.725 833.755 215.501 834.483 215.501C835.491 215.501 836.247 215.875 836.751 216.621C837.255 217.368 837.507 218.395 837.507 219.701C837.507 221.419 837.041 222.865 836.107 224.041C835.174 225.236 833.83 226.123 832.075 226.701L831.235 224.769ZM703.167 261.637C701.282 260.069 699.788 258.221 698.687 256.093C697.604 253.965 697.063 251.567 697.063 248.897C697.063 246.228 697.604 243.829 698.687 241.701C699.788 239.573 701.282 237.725 703.167 236.157L704.959 237.641C703.186 239.247 701.888 240.955 701.067 242.765C700.246 244.576 699.835 246.62 699.835 248.897C699.835 251.175 700.246 253.219 701.067 255.029C701.888 256.84 703.186 258.548 704.959 260.153L703.167 261.637ZM730.501 260.769C732.872 259.817 734.066 258.38 734.085 256.457C733.992 256.476 733.861 256.485 733.693 256.485C732.984 256.485 732.368 256.28 731.845 255.869C731.322 255.44 731.061 254.815 731.061 253.993C731.061 253.209 731.322 252.603 731.845 252.173C732.386 251.725 733.021 251.501 733.749 251.501C734.757 251.501 735.513 251.875 736.017 252.621C736.521 253.368 736.773 254.395 736.773 255.701C736.773 257.419 736.306 258.865 735.373 260.041C734.44 261.236 733.096 262.123 731.341 262.701L730.501 260.769ZM812.626 260.153C814.4 258.548 815.697 256.84 816.518 255.029C817.34 253.219 817.75 251.175 817.75 248.897C817.75 246.62 817.34 244.576 816.518 242.765C815.697 240.955 814.4 239.247 812.626 237.641L814.418 236.157C816.304 237.725 817.788 239.573 818.87 241.701C819.972 243.829 820.522 246.228 820.522 248.897C820.522 251.567 819.972 253.965 818.87 256.093C817.788 258.221 816.304 260.069 814.418 261.637L812.626 260.153ZM831.235 260.769C833.606 259.817 834.801 258.38 834.819 256.457C834.726 256.476 834.595 256.485 834.427 256.485C833.718 256.485 833.102 256.28 832.579 255.869C832.057 255.44 831.795 254.815 831.795 253.993C831.795 253.209 832.057 252.603 832.579 252.173C833.121 251.725 833.755 251.501 834.483 251.501C835.491 251.501 836.247 251.875 836.751 252.621C837.255 253.368 837.507 254.395 837.507 255.701C837.507 257.419 837.041 258.865 836.107 260.041C835.174 261.236 833.83 262.123 832.075 262.701L831.235 260.769ZM703.167 295.637C701.282 294.069 699.788 292.221 698.687 290.093C697.604 287.965 697.063 285.567 697.063 282.897C697.063 280.228 697.604 277.829 698.687 275.701C699.788 273.573 701.282 271.725 703.167 270.157L704.959 271.641C703.186 273.247 701.888 274.955 701.067 276.765C700.246 278.576 699.835 280.62 699.835 282.897C699.835 285.175 700.246 287.219 701.067 289.029C701.888 290.84 703.186 292.548 704.959 294.153L703.167 295.637ZM730.501 294.769C732.872 293.817 734.066 292.38 734.085 290.457C733.992 290.476 733.861 290.485 733.693 290.485C732.984 290.485 732.368 290.28 731.845 289.869C731.322 289.44 731.061 288.815 731.061 287.993C731.061 287.209 731.322 286.603 731.845 286.173C732.386 285.725 733.021 285.501 733.749 285.501C734.757 285.501 735.513 285.875 736.017 286.621C736.521 287.368 736.773 288.395 736.773 289.701C736.773 291.419 736.306 292.865 735.373 294.041C734.44 295.236 733.096 296.123 731.341 296.701L730.501 294.769ZM812.626 294.153C814.4 292.548 815.697 290.84 816.518 289.029C817.34 287.219 817.75 285.175 817.75 282.897C817.75 280.62 817.34 278.576 816.518 276.765C815.697 274.955 814.4 273.247 812.626 271.641L814.418 270.157C816.304 271.725 817.788 273.573 818.87 275.701C819.972 277.829 820.522 280.228 820.522 282.897C820.522 285.567 819.972 287.965 818.87 290.093C817.788 292.221 816.304 294.069 814.418 295.637L812.626 294.153ZM683.186 329.173V308.621H677.698V306.857H685.706V330.937H677.698V329.173H683.186Z" fill="#2E383C"/>
<path d="M716.82 185.017C714.785 185.017 713.171 184.215 711.976 182.609C710.8 181.004 710.212 178.699 710.212 175.693C710.212 172.669 710.8 170.392 711.976 168.861C713.171 167.312 714.785 166.537 716.82 166.537C718.855 166.537 720.46 167.312 721.636 168.861C722.831 170.392 723.428 172.669 723.428 175.693C723.428 178.699 722.831 181.004 721.636 182.609C720.46 184.215 718.855 185.017 716.82 185.017ZM716.82 169.057C716.279 169.057 715.784 169.179 715.336 169.421C714.888 169.645 714.496 170.019 714.16 170.541C713.843 171.064 713.591 171.755 713.404 172.613C713.217 173.453 713.124 174.48 713.124 175.693C713.124 176.907 713.217 177.952 713.404 178.829C713.591 179.688 713.843 180.388 714.16 180.929C714.496 181.471 714.888 181.872 715.336 182.133C715.784 182.376 716.279 182.497 716.82 182.497C717.343 182.497 717.828 182.376 718.276 182.133C718.743 181.872 719.135 181.471 719.452 180.929C719.788 180.388 720.049 179.688 720.236 178.829C720.423 177.952 720.516 176.907 720.516 175.693C720.516 174.48 720.423 173.453 720.236 172.613C720.049 171.755 719.788 171.064 719.452 170.541C719.135 170.019 718.743 169.645 718.276 169.421C717.828 169.179 717.343 169.057 716.82 169.057ZM716.82 177.569C716.279 177.569 715.821 177.392 715.448 177.037C715.075 176.683 714.888 176.197 714.888 175.581C714.888 174.965 715.075 174.48 715.448 174.125C715.821 173.771 716.279 173.593 716.82 173.593C717.361 173.593 717.819 173.771 718.192 174.125C718.565 174.48 718.752 174.965 718.752 175.581C718.752 176.197 718.565 176.683 718.192 177.037C717.819 177.392 717.361 177.569 716.82 177.569ZM723.344 218.049V220.681H710.94V218.049H715.756V206.345H712.032V204.329C713.04 204.161 713.899 203.965 714.608 203.741C715.336 203.499 716.008 203.209 716.624 202.873H718.976V218.049H723.344ZM710.24 254.805C711.64 253.611 712.891 252.519 713.992 251.529C715.093 250.521 716.027 249.588 716.792 248.729C717.576 247.871 718.173 247.068 718.584 246.321C718.995 245.575 719.2 244.856 719.2 244.165C719.2 243.213 718.911 242.467 718.332 241.925C717.753 241.365 716.904 241.085 715.784 241.085C715 241.085 714.281 241.281 713.628 241.673C712.993 242.065 712.405 242.532 711.864 243.073L710.1 241.281C710.959 240.404 711.864 239.732 712.816 239.265C713.768 238.78 714.897 238.537 716.204 238.537C717.119 238.537 717.949 238.668 718.696 238.929C719.443 239.191 720.077 239.564 720.6 240.049C721.141 240.516 721.552 241.085 721.832 241.757C722.131 242.429 722.28 243.176 722.28 243.997C722.28 244.781 722.084 245.584 721.692 246.405C721.319 247.208 720.805 248.029 720.152 248.869C719.499 249.691 718.715 250.54 717.8 251.417C716.904 252.295 715.943 253.2 714.916 254.133C715.439 254.096 715.989 254.059 716.568 254.021C717.147 253.965 717.679 253.937 718.164 253.937H723.204V256.681H710.24V254.805ZM711.332 286.425C711.929 286.967 712.62 287.433 713.404 287.825C714.207 288.199 715.093 288.385 716.064 288.385C717.165 288.385 718.071 288.152 718.78 287.685C719.508 287.2 719.872 286.537 719.872 285.697C719.872 285.231 719.769 284.811 719.564 284.437C719.359 284.064 719.023 283.747 718.556 283.485C718.108 283.224 717.501 283.028 716.736 282.897C715.989 282.748 715.065 282.673 713.964 282.673V280.321C714.916 280.321 715.728 280.256 716.4 280.125C717.072 279.976 717.613 279.78 718.024 279.537C718.453 279.276 718.761 278.968 718.948 278.613C719.153 278.259 719.256 277.876 719.256 277.465C719.256 276.719 718.967 276.14 718.388 275.729C717.828 275.3 717.072 275.085 716.12 275.085C715.336 275.085 714.608 275.244 713.936 275.561C713.283 275.86 712.657 276.261 712.06 276.765L710.38 274.777C711.201 274.105 712.097 273.564 713.068 273.153C714.039 272.743 715.103 272.537 716.26 272.537C717.175 272.537 718.015 272.64 718.78 272.845C719.545 273.051 720.199 273.359 720.74 273.769C721.3 274.161 721.729 274.656 722.028 275.253C722.345 275.832 722.504 276.495 722.504 277.241C722.504 278.249 722.177 279.089 721.524 279.761C720.871 280.433 719.993 280.956 718.892 281.329V281.441C719.471 281.591 720.012 281.796 720.516 282.057C721.039 282.3 721.487 282.608 721.86 282.981C722.252 283.355 722.56 283.784 722.784 284.269C723.008 284.755 723.12 285.287 723.12 285.865C723.12 286.687 722.933 287.415 722.56 288.049C722.205 288.684 721.72 289.225 721.104 289.673C720.488 290.103 719.769 290.439 718.948 290.681C718.127 290.905 717.259 291.017 716.344 291.017C714.813 291.017 713.507 290.775 712.424 290.289C711.341 289.804 710.473 289.207 709.82 288.497L711.332 286.425Z" fill="#0C570A"/>
<path d="M765.311 169.057L765.227 165.473H769.147L769.063 169.057L768.223 175.525H766.151L765.311 169.057ZM777.564 180.985C777.564 180.22 777.742 179.548 778.096 178.969C778.451 178.372 779.011 177.868 779.776 177.457C780.542 177.047 781.522 176.711 782.716 176.449C783.911 176.188 785.358 176.001 787.056 175.889C787 175.105 786.72 174.461 786.216 173.957C785.712 173.453 784.9 173.201 783.78 173.201C782.996 173.201 782.222 173.351 781.456 173.649C780.71 173.929 779.982 174.265 779.272 174.657L778.096 172.501C778.936 172.016 779.898 171.577 780.98 171.185C782.063 170.793 783.192 170.597 784.368 170.597C786.291 170.597 787.756 171.111 788.764 172.137C789.772 173.145 790.276 174.611 790.276 176.533V184.681H787.644L787.392 182.973H787.308C786.58 183.533 785.768 184.019 784.872 184.429C783.995 184.821 783.09 185.017 782.156 185.017C781.484 185.017 780.868 184.915 780.308 184.709C779.748 184.523 779.263 184.252 778.852 183.897C778.442 183.543 778.124 183.123 777.9 182.637C777.676 182.133 777.564 181.583 777.564 180.985ZM780.672 180.733C780.672 181.349 780.906 181.797 781.372 182.077C781.858 182.357 782.446 182.497 783.136 182.497C783.827 182.497 784.49 182.348 785.124 182.049C785.778 181.732 786.422 181.321 787.056 180.817V177.905C785.824 177.999 784.798 178.129 783.976 178.297C783.155 178.447 782.502 178.643 782.016 178.885C781.531 179.128 781.186 179.408 780.98 179.725C780.775 180.024 780.672 180.36 780.672 180.733ZM798.889 169.057L798.805 165.473H802.725L802.641 169.057L801.801 175.525H799.729L798.889 169.057ZM765.311 205.057L765.227 201.473H769.147L769.063 205.057L768.223 211.525H766.151L765.311 205.057ZM777.872 200.913H781.12V206.009L781.008 208.417C781.606 207.857 782.278 207.419 783.024 207.101C783.771 206.765 784.518 206.597 785.264 206.597C786.16 206.597 786.954 206.765 787.644 207.101C788.335 207.419 788.923 207.885 789.408 208.501C789.894 209.099 790.258 209.827 790.5 210.685C790.762 211.544 790.892 212.505 790.892 213.569C790.892 214.745 790.724 215.8 790.388 216.733C790.052 217.648 789.595 218.423 789.016 219.057C788.456 219.692 787.803 220.177 787.056 220.513C786.328 220.849 785.572 221.017 784.788 221.017C784.135 221.017 783.454 220.859 782.744 220.541C782.035 220.224 781.382 219.767 780.784 219.169H780.7L780.42 220.681H777.872V200.913ZM781.12 217.097C781.624 217.564 782.147 217.891 782.688 218.077C783.23 218.264 783.715 218.357 784.144 218.357C785.115 218.357 785.927 217.965 786.58 217.181C787.234 216.379 787.56 215.193 787.56 213.625C787.56 212.244 787.308 211.171 786.804 210.405C786.3 209.64 785.488 209.257 784.368 209.257C783.846 209.257 783.314 209.388 782.772 209.649C782.231 209.911 781.68 210.331 781.12 210.909V217.097ZM798.889 205.057L798.805 201.473H802.725L802.641 205.057L801.801 211.525H799.729L798.889 205.057ZM765.311 241.057L765.227 237.473H769.147L769.063 241.057L768.223 247.525H766.151L765.311 241.057ZM777.62 249.821C777.62 248.683 777.826 247.665 778.236 246.769C778.666 245.873 779.235 245.117 779.944 244.501C780.654 243.885 781.484 243.419 782.436 243.101C783.388 242.765 784.387 242.597 785.432 242.597C786.552 242.597 787.532 242.784 788.372 243.157C789.231 243.531 789.95 243.988 790.528 244.529L788.988 246.545C788.447 246.116 787.896 245.789 787.336 245.565C786.795 245.341 786.216 245.229 785.6 245.229C784.219 245.229 783.099 245.649 782.24 246.489C781.382 247.311 780.952 248.421 780.952 249.821C780.952 250.512 781.064 251.137 781.288 251.697C781.512 252.257 781.82 252.743 782.212 253.153C782.623 253.545 783.108 253.853 783.668 254.077C784.228 254.283 784.844 254.385 785.516 254.385C786.3 254.385 787.01 254.236 787.644 253.937C788.298 253.639 788.895 253.284 789.436 252.873L790.78 254.945C789.996 255.636 789.119 256.159 788.148 256.513C787.178 256.849 786.198 257.017 785.208 257.017C784.126 257.017 783.118 256.859 782.184 256.541C781.27 256.224 780.467 255.757 779.776 255.141C779.104 254.525 778.572 253.769 778.18 252.873C777.807 251.977 777.62 250.96 777.62 249.821ZM798.889 241.057L798.805 237.473H802.725L802.641 241.057L801.801 247.525H799.729L798.889 241.057ZM765.311 275.057L765.227 271.473H769.147L769.063 275.057L768.223 281.525H766.151L765.311 275.057ZM777.06 283.821C777.06 282.701 777.228 281.693 777.564 280.797C777.9 279.901 778.348 279.145 778.908 278.529C779.487 277.913 780.14 277.437 780.868 277.101C781.596 276.765 782.352 276.597 783.136 276.597C783.958 276.597 784.658 276.747 785.236 277.045C785.834 277.325 786.412 277.717 786.972 278.221L786.832 275.897V270.913H790.08V290.681H787.42L787.168 289.085H787.084C786.543 289.627 785.908 290.084 785.18 290.457C784.471 290.831 783.724 291.017 782.94 291.017C782.063 291.017 781.26 290.859 780.532 290.541C779.804 290.205 779.179 289.729 778.656 289.113C778.152 288.497 777.76 287.751 777.48 286.873C777.2 285.977 777.06 284.96 777.06 283.821ZM780.392 283.793C780.392 285.287 780.682 286.425 781.26 287.209C781.839 287.975 782.66 288.357 783.724 288.357C784.863 288.357 785.899 287.807 786.832 286.705V280.517C786.347 280.051 785.862 279.724 785.376 279.537C784.891 279.351 784.396 279.257 783.892 279.257C783.407 279.257 782.95 279.36 782.52 279.565C782.11 279.771 781.746 280.069 781.428 280.461C781.111 280.835 780.859 281.301 780.672 281.861C780.486 282.421 780.392 283.065 780.392 283.793ZM798.889 275.057L798.805 271.473H802.725L802.641 275.057L801.801 281.525H799.729L798.889 275.057Z" fill="#B82629"/>
</svg>
