<svg width="1120" height="234" viewBox="0 0 1120 234" fill="none" xmlns="http://www.w3.org/2000/svg">
<g id="Frame">
<rect width="560" height="117" transform="scale(2)" fill="white"/>
<rect id="Rectangle" x="16" y="58" width="130" height="20" stroke="#4F4F4F"/>
<path id="pedestrians" d="M30.6797 37.8008C30.6797 39.7305 30.2383 41.2852 29.3555 42.4648C28.4727 43.6445 27.2773 44.2344 25.7695 44.2344C24.2305 44.2344 23.0195 43.7461 22.1367 42.7695V48.875H19.9688V31.3203H21.9492L22.0547 32.7266C22.9375 31.6328 24.1641 31.0859 25.7344 31.0859C27.2578 31.0859 28.4609 31.6602 29.3438 32.8086C30.2344 33.957 30.6797 35.5547 30.6797 37.6016V37.8008ZM28.5117 37.5547C28.5117 36.125 28.207 34.9961 27.5977 34.168C26.9883 33.3398 26.1523 32.9258 25.0898 32.9258C23.7773 32.9258 22.793 33.5078 22.1367 34.6719V40.7305C22.7852 41.8867 23.7773 42.4648 25.1133 42.4648C26.1523 42.4648 26.9766 42.0547 27.5859 41.2344C28.2031 40.4062 28.5117 39.1797 28.5117 37.5547ZM38.707 44.2344C36.9883 44.2344 35.5898 43.6719 34.5117 42.5469C33.4336 41.4141 32.8945 39.9023 32.8945 38.0117V37.6133C32.8945 36.3555 33.1328 35.2344 33.6094 34.25C34.0938 33.2578 34.7656 32.4844 35.625 31.9297C36.4922 31.3672 37.4297 31.0859 38.4375 31.0859C40.0859 31.0859 41.3672 31.6289 42.2812 32.7148C43.1953 33.8008 43.6523 35.3555 43.6523 37.3789V38.2812H35.0625C35.0938 39.5312 35.457 40.543 36.1523 41.3164C36.8555 42.082 37.7461 42.4648 38.8242 42.4648C39.5898 42.4648 40.2383 42.3086 40.7695 41.9961C41.3008 41.6836 41.7656 41.2695 42.1641 40.7539L43.4883 41.7852C42.4258 43.418 40.832 44.2344 38.707 44.2344ZM38.4375 32.8672C37.5625 32.8672 36.8281 33.1875 36.2344 33.8281C35.6406 34.4609 35.2734 35.3516 35.1328 36.5H41.4844V36.3359C41.4219 35.2344 41.125 34.3828 40.5938 33.7812C40.0625 33.1719 39.3438 32.8672 38.4375 32.8672ZM45.6445 37.5547C45.6445 35.6094 46.1055 34.0469 47.0273 32.8672C47.9492 31.6797 49.1562 31.0859 50.6484 31.0859C52.1328 31.0859 53.3086 31.5938 54.1758 32.6094V26H56.3438V44H54.3516L54.2461 42.6406C53.3789 43.7031 52.1719 44.2344 50.625 44.2344C49.1562 44.2344 47.957 43.6328 47.0273 42.4297C46.1055 41.2266 45.6445 39.6562 45.6445 37.7188V37.5547ZM47.8125 37.8008C47.8125 39.2383 48.1094 40.3633 48.7031 41.1758C49.2969 41.9883 50.1172 42.3945 51.1641 42.3945C52.5391 42.3945 53.543 41.7773 54.1758 40.543V34.7188C53.5273 33.5234 52.5312 32.9258 51.1875 32.9258C50.125 32.9258 49.2969 33.3359 48.7031 34.1562C48.1094 34.9766 47.8125 36.1914 47.8125 37.8008ZM64.9805 44.2344C63.2617 44.2344 61.8633 43.6719 60.7852 42.5469C59.707 41.4141 59.168 39.9023 59.168 38.0117V37.6133C59.168 36.3555 59.4062 35.2344 59.8828 34.25C60.3672 33.2578 61.0391 32.4844 61.8984 31.9297C62.7656 31.3672 63.7031 31.0859 64.7109 31.0859C66.3594 31.0859 67.6406 31.6289 68.5547 32.7148C69.4688 33.8008 69.9258 35.3555 69.9258 37.3789V38.2812H61.3359C61.3672 39.5312 61.7305 40.543 62.4258 41.3164C63.1289 42.082 64.0195 42.4648 65.0977 42.4648C65.8633 42.4648 66.5117 42.3086 67.043 41.9961C67.5742 41.6836 68.0391 41.2695 68.4375 40.7539L69.7617 41.7852C68.6992 43.418 67.1055 44.2344 64.9805 44.2344ZM64.7109 32.8672C63.8359 32.8672 63.1016 33.1875 62.5078 33.8281C61.9141 34.4609 61.5469 35.3516 61.4062 36.5H67.7578V36.3359C67.6953 35.2344 67.3984 34.3828 66.8672 33.7812C66.3359 33.1719 65.6172 32.8672 64.7109 32.8672ZM79.8281 40.6367C79.8281 40.0508 79.6055 39.5977 79.1602 39.2773C78.7227 38.9492 77.9531 38.668 76.8516 38.4336C75.7578 38.1992 74.8867 37.918 74.2383 37.5898C73.5977 37.2617 73.1211 36.8711 72.8086 36.418C72.5039 35.9648 72.3516 35.4258 72.3516 34.8008C72.3516 33.7617 72.7891 32.8828 73.6641 32.1641C74.5469 31.4453 75.6719 31.0859 77.0391 31.0859C78.4766 31.0859 79.6406 31.457 80.5312 32.1992C81.4297 32.9414 81.8789 33.8906 81.8789 35.0469H79.6992C79.6992 34.4531 79.4453 33.9414 78.9375 33.5117C78.4375 33.082 77.8047 32.8672 77.0391 32.8672C76.25 32.8672 75.6328 33.0391 75.1875 33.3828C74.7422 33.7266 74.5195 34.1758 74.5195 34.7305C74.5195 35.2539 74.7266 35.6484 75.1406 35.9141C75.5547 36.1797 76.3008 36.4336 77.3789 36.6758C78.4648 36.918 79.3438 37.207 80.0156 37.543C80.6875 37.8789 81.1836 38.2852 81.5039 38.7617C81.832 39.2305 81.9961 39.8047 81.9961 40.4844C81.9961 41.6172 81.543 42.5273 80.6367 43.2148C79.7305 43.8945 78.5547 44.2344 77.1094 44.2344C76.0938 44.2344 75.1953 44.0547 74.4141 43.6953C73.6328 43.3359 73.0195 42.8359 72.5742 42.1953C72.1367 41.5469 71.918 40.8477 71.918 40.0977H74.0859C74.125 40.8242 74.4141 41.4023 74.9531 41.832C75.5 42.2539 76.2188 42.4648 77.1094 42.4648C77.9297 42.4648 78.5859 42.3008 79.0781 41.9727C79.5781 41.6367 79.8281 41.1914 79.8281 40.6367ZM87.7617 28.25V31.3203H90.1289V32.9961H87.7617V40.8594C87.7617 41.3672 87.8672 41.75 88.0781 42.0078C88.2891 42.2578 88.6484 42.3828 89.1562 42.3828C89.4062 42.3828 89.75 42.3359 90.1875 42.2422V44C89.6172 44.1562 89.0625 44.2344 88.5234 44.2344C87.5547 44.2344 86.8242 43.9414 86.332 43.3555C85.8398 42.7695 85.5938 41.9375 85.5938 40.8594V32.9961H83.2852V31.3203H85.5938V28.25H87.7617ZM98.8008 33.2656C98.4727 33.2109 98.1172 33.1836 97.7344 33.1836C96.3125 33.1836 95.3477 33.7891 94.8398 35V44H92.6719V31.3203H94.7812L94.8164 32.7852C95.5273 31.6523 96.5352 31.0859 97.8398 31.0859C98.2617 31.0859 98.582 31.1406 98.8008 31.25V33.2656ZM103.16 44H100.992V31.3203H103.16V44ZM100.816 27.957C100.816 27.6055 100.922 27.3086 101.133 27.0664C101.352 26.8242 101.672 26.7031 102.094 26.7031C102.516 26.7031 102.836 26.8242 103.055 27.0664C103.273 27.3086 103.383 27.6055 103.383 27.957C103.383 28.3086 103.273 28.6016 103.055 28.8359C102.836 29.0703 102.516 29.1875 102.094 29.1875C101.672 29.1875 101.352 29.0703 101.133 28.8359C100.922 28.6016 100.816 28.3086 100.816 27.957ZM114.469 44C114.344 43.75 114.242 43.3047 114.164 42.6641C113.156 43.7109 111.953 44.2344 110.555 44.2344C109.305 44.2344 108.277 43.8828 107.473 43.1797C106.676 42.4688 106.277 41.5703 106.277 40.4844C106.277 39.1641 106.777 38.1406 107.777 37.4141C108.785 36.6797 110.199 36.3125 112.02 36.3125H114.129V35.3164C114.129 34.5586 113.902 33.957 113.449 33.5117C112.996 33.0586 112.328 32.832 111.445 32.832C110.672 32.832 110.023 33.0273 109.5 33.418C108.977 33.8086 108.715 34.2812 108.715 34.8359H106.535C106.535 34.2031 106.758 33.5938 107.203 33.0078C107.656 32.4141 108.266 31.9453 109.031 31.6016C109.805 31.2578 110.652 31.0859 111.574 31.0859C113.035 31.0859 114.18 31.4531 115.008 32.1875C115.836 32.9141 116.266 33.918 116.297 35.1992V41.0352C116.297 42.1992 116.445 43.125 116.742 43.8125V44H114.469ZM110.871 42.3477C111.551 42.3477 112.195 42.1719 112.805 41.8203C113.414 41.4688 113.855 41.0117 114.129 40.4492V37.8477H112.43C109.773 37.8477 108.445 38.625 108.445 40.1797C108.445 40.8594 108.672 41.3906 109.125 41.7734C109.578 42.1562 110.16 42.3477 110.871 42.3477ZM121.746 31.3203L121.816 32.9141C122.785 31.6953 124.051 31.0859 125.613 31.0859C128.293 31.0859 129.645 32.5977 129.668 35.6211V44H127.5V35.6094C127.492 34.6953 127.281 34.0195 126.867 33.582C126.461 33.1445 125.824 32.9258 124.957 32.9258C124.254 32.9258 123.637 33.1133 123.105 33.4883C122.574 33.8633 122.16 34.3555 121.863 34.9648V44H119.695V31.3203H121.746ZM140.32 40.6367C140.32 40.0508 140.098 39.5977 139.652 39.2773C139.215 38.9492 138.445 38.668 137.344 38.4336C136.25 38.1992 135.379 37.918 134.73 37.5898C134.09 37.2617 133.613 36.8711 133.301 36.418C132.996 35.9648 132.844 35.4258 132.844 34.8008C132.844 33.7617 133.281 32.8828 134.156 32.1641C135.039 31.4453 136.164 31.0859 137.531 31.0859C138.969 31.0859 140.133 31.457 141.023 32.1992C141.922 32.9414 142.371 33.8906 142.371 35.0469H140.191C140.191 34.4531 139.938 33.9414 139.43 33.5117C138.93 33.082 138.297 32.8672 137.531 32.8672C136.742 32.8672 136.125 33.0391 135.68 33.3828C135.234 33.7266 135.012 34.1758 135.012 34.7305C135.012 35.2539 135.219 35.6484 135.633 35.9141C136.047 36.1797 136.793 36.4336 137.871 36.6758C138.957 36.918 139.836 37.207 140.508 37.543C141.18 37.8789 141.676 38.2852 141.996 38.7617C142.324 39.2305 142.488 39.8047 142.488 40.4844C142.488 41.6172 142.035 42.5273 141.129 43.2148C140.223 43.8945 139.047 44.2344 137.602 44.2344C136.586 44.2344 135.688 44.0547 134.906 43.6953C134.125 43.3359 133.512 42.8359 133.066 42.1953C132.629 41.5469 132.41 40.8477 132.41 40.0977H134.578C134.617 40.8242 134.906 41.4023 135.445 41.832C135.992 42.2539 136.711 42.4648 137.602 42.4648C138.422 42.4648 139.078 42.3008 139.57 41.9727C140.07 41.6367 140.32 41.1914 140.32 40.6367Z" fill="black"/>
<rect id="Rectangle_2" x="146" y="58" width="90" height="20" stroke="#4F4F4F"/>
<path id="cyclist" d="M163.613 42.4648C164.387 42.4648 165.062 42.2305 165.641 41.7617C166.219 41.293 166.539 40.707 166.602 40.0039H168.652C168.613 40.7305 168.363 41.4219 167.902 42.0781C167.441 42.7344 166.824 43.2578 166.051 43.6484C165.285 44.0391 164.473 44.2344 163.613 44.2344C161.887 44.2344 160.512 43.6602 159.488 42.5117C158.473 41.3555 157.965 39.7773 157.965 37.7773V37.4141C157.965 36.1797 158.191 35.082 158.645 34.1211C159.098 33.1602 159.746 32.4141 160.59 31.8828C161.441 31.3516 162.445 31.0859 163.602 31.0859C165.023 31.0859 166.203 31.5117 167.141 32.3633C168.086 33.2148 168.59 34.3203 168.652 35.6797H166.602C166.539 34.8594 166.227 34.1875 165.664 33.6641C165.109 33.1328 164.422 32.8672 163.602 32.8672C162.5 32.8672 161.645 33.2656 161.035 34.0625C160.434 34.8516 160.133 35.9961 160.133 37.4961V37.9062C160.133 39.3672 160.434 40.4922 161.035 41.2812C161.637 42.0703 162.496 42.4648 163.613 42.4648ZM175.238 40.8242L178.191 31.3203H180.512L175.414 45.957C174.625 48.0664 173.371 49.1211 171.652 49.1211L171.242 49.0859L170.434 48.9336V47.1758L171.02 47.2227C171.754 47.2227 172.324 47.0742 172.73 46.7773C173.145 46.4805 173.484 45.9375 173.75 45.1484L174.23 43.8594L169.707 31.3203H172.074L175.238 40.8242ZM187.379 42.4648C188.152 42.4648 188.828 42.2305 189.406 41.7617C189.984 41.293 190.305 40.707 190.367 40.0039H192.418C192.379 40.7305 192.129 41.4219 191.668 42.0781C191.207 42.7344 190.59 43.2578 189.816 43.6484C189.051 44.0391 188.238 44.2344 187.379 44.2344C185.652 44.2344 184.277 43.6602 183.254 42.5117C182.238 41.3555 181.73 39.7773 181.73 37.7773V37.4141C181.73 36.1797 181.957 35.082 182.41 34.1211C182.863 33.1602 183.512 32.4141 184.355 31.8828C185.207 31.3516 186.211 31.0859 187.367 31.0859C188.789 31.0859 189.969 31.5117 190.906 32.3633C191.852 33.2148 192.355 34.3203 192.418 35.6797H190.367C190.305 34.8594 189.992 34.1875 189.43 33.6641C188.875 33.1328 188.188 32.8672 187.367 32.8672C186.266 32.8672 185.41 33.2656 184.801 34.0625C184.199 34.8516 183.898 35.9961 183.898 37.4961V37.9062C183.898 39.3672 184.199 40.4922 184.801 41.2812C185.402 42.0703 186.262 42.4648 187.379 42.4648ZM197.211 44H195.043V26H197.211V44ZM203.047 44H200.879V31.3203H203.047V44ZM200.703 27.957C200.703 27.6055 200.809 27.3086 201.02 27.0664C201.238 26.8242 201.559 26.7031 201.98 26.7031C202.402 26.7031 202.723 26.8242 202.941 27.0664C203.16 27.3086 203.27 27.6055 203.27 27.957C203.27 28.3086 203.16 28.6016 202.941 28.8359C202.723 29.0703 202.402 29.1875 201.98 29.1875C201.559 29.1875 201.238 29.0703 201.02 28.8359C200.809 28.6016 200.703 28.3086 200.703 27.957ZM213.91 40.6367C213.91 40.0508 213.688 39.5977 213.242 39.2773C212.805 38.9492 212.035 38.668 210.934 38.4336C209.84 38.1992 208.969 37.918 208.32 37.5898C207.68 37.2617 207.203 36.8711 206.891 36.418C206.586 35.9648 206.434 35.4258 206.434 34.8008C206.434 33.7617 206.871 32.8828 207.746 32.1641C208.629 31.4453 209.754 31.0859 211.121 31.0859C212.559 31.0859 213.723 31.457 214.613 32.1992C215.512 32.9414 215.961 33.8906 215.961 35.0469H213.781C213.781 34.4531 213.527 33.9414 213.02 33.5117C212.52 33.082 211.887 32.8672 211.121 32.8672C210.332 32.8672 209.715 33.0391 209.27 33.3828C208.824 33.7266 208.602 34.1758 208.602 34.7305C208.602 35.2539 208.809 35.6484 209.223 35.9141C209.637 36.1797 210.383 36.4336 211.461 36.6758C212.547 36.918 213.426 37.207 214.098 37.543C214.77 37.8789 215.266 38.2852 215.586 38.7617C215.914 39.2305 216.078 39.8047 216.078 40.4844C216.078 41.6172 215.625 42.5273 214.719 43.2148C213.812 43.8945 212.637 44.2344 211.191 44.2344C210.176 44.2344 209.277 44.0547 208.496 43.6953C207.715 43.3359 207.102 42.8359 206.656 42.1953C206.219 41.5469 206 40.8477 206 40.0977H208.168C208.207 40.8242 208.496 41.4023 209.035 41.832C209.582 42.2539 210.301 42.4648 211.191 42.4648C212.012 42.4648 212.668 42.3008 213.16 41.9727C213.66 41.6367 213.91 41.1914 213.91 40.6367ZM221.844 28.25V31.3203H224.211V32.9961H221.844V40.8594C221.844 41.3672 221.949 41.75 222.16 42.0078C222.371 42.2578 222.73 42.3828 223.238 42.3828C223.488 42.3828 223.832 42.3359 224.27 42.2422V44C223.699 44.1562 223.145 44.2344 222.605 44.2344C221.637 44.2344 220.906 43.9414 220.414 43.3555C219.922 42.7695 219.676 41.9375 219.676 40.8594V32.9961H217.367V31.3203H219.676V28.25H221.844Z" fill="black"/>
<rect id="Rectangle_3" x="236" y="58" width="112" height="20" stroke="#4F4F4F"/>
<path id="motorist" d="M250.562 31.3203L250.621 32.7266C251.551 31.6328 252.805 31.0859 254.383 31.0859C256.156 31.0859 257.363 31.7656 258.004 33.125C258.426 32.5156 258.973 32.0234 259.645 31.6484C260.324 31.2734 261.125 31.0859 262.047 31.0859C264.828 31.0859 266.242 32.5586 266.289 35.5039V44H264.121V35.6328C264.121 34.7266 263.914 34.0508 263.5 33.6055C263.086 33.1523 262.391 32.9258 261.414 32.9258C260.609 32.9258 259.941 33.168 259.41 33.6523C258.879 34.1289 258.57 34.7734 258.484 35.5859V44H256.305V35.6914C256.305 33.8477 255.402 32.9258 253.598 32.9258C252.176 32.9258 251.203 33.5312 250.68 34.7422V44H248.512V31.3203H250.562ZM268.996 37.543C268.996 36.3008 269.238 35.1836 269.723 34.1914C270.215 33.1992 270.895 32.4336 271.762 31.8945C272.637 31.3555 273.633 31.0859 274.75 31.0859C276.477 31.0859 277.871 31.6836 278.934 32.8789C280.004 34.0742 280.539 35.6641 280.539 37.6484V37.8008C280.539 39.0352 280.301 40.1445 279.824 41.1289C279.355 42.1055 278.68 42.8672 277.797 43.4141C276.922 43.9609 275.914 44.2344 274.773 44.2344C273.055 44.2344 271.66 43.6367 270.59 42.4414C269.527 41.2461 268.996 39.6641 268.996 37.6953V37.543ZM271.176 37.8008C271.176 39.207 271.5 40.3359 272.148 41.1875C272.805 42.0391 273.68 42.4648 274.773 42.4648C275.875 42.4648 276.75 42.0352 277.398 41.1758C278.047 40.3086 278.371 39.0977 278.371 37.543C278.371 36.1523 278.039 35.0273 277.375 34.168C276.719 33.3008 275.844 32.8672 274.75 32.8672C273.68 32.8672 272.816 33.293 272.16 34.1445C271.504 34.9961 271.176 36.2148 271.176 37.8008ZM286.199 28.25V31.3203H288.566V32.9961H286.199V40.8594C286.199 41.3672 286.305 41.75 286.516 42.0078C286.727 42.2578 287.086 42.3828 287.594 42.3828C287.844 42.3828 288.188 42.3359 288.625 42.2422V44C288.055 44.1562 287.5 44.2344 286.961 44.2344C285.992 44.2344 285.262 43.9414 284.77 43.3555C284.277 42.7695 284.031 41.9375 284.031 40.8594V32.9961H281.723V31.3203H284.031V28.25H286.199ZM290.301 37.543C290.301 36.3008 290.543 35.1836 291.027 34.1914C291.52 33.1992 292.199 32.4336 293.066 31.8945C293.941 31.3555 294.938 31.0859 296.055 31.0859C297.781 31.0859 299.176 31.6836 300.238 32.8789C301.309 34.0742 301.844 35.6641 301.844 37.6484V37.8008C301.844 39.0352 301.605 40.1445 301.129 41.1289C300.66 42.1055 299.984 42.8672 299.102 43.4141C298.227 43.9609 297.219 44.2344 296.078 44.2344C294.359 44.2344 292.965 43.6367 291.895 42.4414C290.832 41.2461 290.301 39.6641 290.301 37.6953V37.543ZM292.48 37.8008C292.48 39.207 292.805 40.3359 293.453 41.1875C294.109 42.0391 294.984 42.4648 296.078 42.4648C297.18 42.4648 298.055 42.0352 298.703 41.1758C299.352 40.3086 299.676 39.0977 299.676 37.543C299.676 36.1523 299.344 35.0273 298.68 34.168C298.023 33.3008 297.148 32.8672 296.055 32.8672C294.984 32.8672 294.121 33.293 293.465 34.1445C292.809 34.9961 292.48 36.2148 292.48 37.8008ZM310.691 33.2656C310.363 33.2109 310.008 33.1836 309.625 33.1836C308.203 33.1836 307.238 33.7891 306.73 35V44H304.562V31.3203H306.672L306.707 32.7852C307.418 31.6523 308.426 31.0859 309.73 31.0859C310.152 31.0859 310.473 31.1406 310.691 31.25V33.2656ZM315.051 44H312.883V31.3203H315.051V44ZM312.707 27.957C312.707 27.6055 312.812 27.3086 313.023 27.0664C313.242 26.8242 313.562 26.7031 313.984 26.7031C314.406 26.7031 314.727 26.8242 314.945 27.0664C315.164 27.3086 315.273 27.6055 315.273 27.957C315.273 28.3086 315.164 28.6016 314.945 28.8359C314.727 29.0703 314.406 29.1875 313.984 29.1875C313.562 29.1875 313.242 29.0703 313.023 28.8359C312.812 28.6016 312.707 28.3086 312.707 27.957ZM325.914 40.6367C325.914 40.0508 325.691 39.5977 325.246 39.2773C324.809 38.9492 324.039 38.668 322.938 38.4336C321.844 38.1992 320.973 37.918 320.324 37.5898C319.684 37.2617 319.207 36.8711 318.895 36.418C318.59 35.9648 318.438 35.4258 318.438 34.8008C318.438 33.7617 318.875 32.8828 319.75 32.1641C320.633 31.4453 321.758 31.0859 323.125 31.0859C324.562 31.0859 325.727 31.457 326.617 32.1992C327.516 32.9414 327.965 33.8906 327.965 35.0469H325.785C325.785 34.4531 325.531 33.9414 325.023 33.5117C324.523 33.082 323.891 32.8672 323.125 32.8672C322.336 32.8672 321.719 33.0391 321.273 33.3828C320.828 33.7266 320.605 34.1758 320.605 34.7305C320.605 35.2539 320.812 35.6484 321.227 35.9141C321.641 36.1797 322.387 36.4336 323.465 36.6758C324.551 36.918 325.43 37.207 326.102 37.543C326.773 37.8789 327.27 38.2852 327.59 38.7617C327.918 39.2305 328.082 39.8047 328.082 40.4844C328.082 41.6172 327.629 42.5273 326.723 43.2148C325.816 43.8945 324.641 44.2344 323.195 44.2344C322.18 44.2344 321.281 44.0547 320.5 43.6953C319.719 43.3359 319.105 42.8359 318.66 42.1953C318.223 41.5469 318.004 40.8477 318.004 40.0977H320.172C320.211 40.8242 320.5 41.4023 321.039 41.832C321.586 42.2539 322.305 42.4648 323.195 42.4648C324.016 42.4648 324.672 42.3008 325.164 41.9727C325.664 41.6367 325.914 41.1914 325.914 40.6367ZM333.848 28.25V31.3203H336.215V32.9961H333.848V40.8594C333.848 41.3672 333.953 41.75 334.164 42.0078C334.375 42.2578 334.734 42.3828 335.242 42.3828C335.492 42.3828 335.836 42.3359 336.273 42.2422V44C335.703 44.1562 335.148 44.2344 334.609 44.2344C333.641 44.2344 332.91 43.9414 332.418 43.3555C331.926 42.7695 331.68 41.9375 331.68 40.8594V32.9961H329.371V31.3203H331.68V28.25H333.848Z" fill="black"/>
<rect id="Rectangle_4" x="348" y="58" width="76" height="20" stroke="#4F4F4F"/>
<rect id="Rectangle_5" x="16" y="78" width="130" height="20" stroke="#4F4F4F"/>
<rect id="Rectangle_6" x="146" y="78" width="90" height="20" stroke="#4F4F4F"/>
<rect id="Rectangle_7" x="236" y="78" width="112" height="20" stroke="#4F4F4F"/>
<rect id="Rectangle_8" x="348" y="78" width="76" height="20" stroke="#4F4F4F"/>
<rect id="Rectangle_9" x="16" y="98" width="130" height="20" stroke="#4F4F4F"/>
<rect id="Rectangle_10" x="146" y="98" width="90" height="20" stroke="#4F4F4F"/>
<rect id="Rectangle_11" x="236" y="98" width="112" height="20" stroke="#4F4F4F"/>
<rect id="Rectangle_12" x="348" y="98" width="76" height="20" stroke="#4F4F4F"/>
<rect id="Rectangle_13" x="16" y="118" width="130" height="20" stroke="#4F4F4F"/>
<rect id="Rectangle_14" x="146" y="118" width="90" height="20" stroke="#4F4F4F"/>
<rect id="Rectangle_15" x="236" y="118" width="112" height="20" stroke="#4F4F4F"/>
<rect id="Rectangle_16" x="348" y="118" width="76" height="20" stroke="#4F4F4F"/>
<rect id="Rectangle_17" x="16" y="138" width="130" height="20" stroke="#4F4F4F"/>
<rect id="Rectangle_18" x="146" y="138" width="90" height="20" stroke="#4F4F4F"/>
<rect id="Rectangle_19" x="236" y="138" width="112" height="20" stroke="#4F4F4F"/>
<rect id="Rectangle_20" x="348" y="138" width="76" height="20" stroke="#4F4F4F"/>
<rect id="Rectangle_21" x="16" y="158" width="130" height="20" stroke="#4F4F4F"/>
<rect id="Rectangle_22" x="146" y="158" width="90" height="20" stroke="#4F4F4F"/>
<rect id="Rectangle_23" x="236" y="158" width="112" height="20" stroke="#4F4F4F"/>
<rect id="Rectangle_24" x="348" y="158" width="76" height="20" stroke="#4F4F4F"/>
<rect id="Rectangle_25" x="16" y="178" width="130" height="20" stroke="#4F4F4F"/>
<rect id="Rectangle_26" x="146" y="178" width="90" height="20" stroke="#4F4F4F"/>
<rect id="Rectangle_27" x="236" y="178" width="112" height="20" stroke="#4F4F4F"/>
<rect id="Rectangle_28" x="348" y="178" width="76" height="20" stroke="#4F4F4F"/>
<rect id="Rectangle_29" x="16" y="198" width="130" height="20" stroke="#4F4F4F"/>
<rect id="Rectangle_30" x="146" y="198" width="90" height="20" stroke="#4F4F4F"/>
<rect id="Rectangle_31" x="236" y="198" width="112" height="20" stroke="#4F4F4F"/>
<rect id="Rectangle_32" x="348" y="198" width="76" height="20" stroke="#4F4F4F"/>
<path id="total" d="M366.559 28.25V31.3203H368.926V32.9961H366.559V40.8594C366.559 41.3672 366.664 41.75 366.875 42.0078C367.086 42.2578 367.445 42.3828 367.953 42.3828C368.203 42.3828 368.547 42.3359 368.984 42.2422V44C368.414 44.1562 367.859 44.2344 367.32 44.2344C366.352 44.2344 365.621 43.9414 365.129 43.3555C364.637 42.7695 364.391 41.9375 364.391 40.8594V32.9961H362.082V31.3203H364.391V28.25H366.559ZM370.66 37.543C370.66 36.3008 370.902 35.1836 371.387 34.1914C371.879 33.1992 372.559 32.4336 373.426 31.8945C374.301 31.3555 375.297 31.0859 376.414 31.0859C378.141 31.0859 379.535 31.6836 380.598 32.8789C381.668 34.0742 382.203 35.6641 382.203 37.6484V37.8008C382.203 39.0352 381.965 40.1445 381.488 41.1289C381.02 42.1055 380.344 42.8672 379.461 43.4141C378.586 43.9609 377.578 44.2344 376.438 44.2344C374.719 44.2344 373.324 43.6367 372.254 42.4414C371.191 41.2461 370.66 39.6641 370.66 37.6953V37.543ZM372.84 37.8008C372.84 39.207 373.164 40.3359 373.812 41.1875C374.469 42.0391 375.344 42.4648 376.438 42.4648C377.539 42.4648 378.414 42.0352 379.062 41.1758C379.711 40.3086 380.035 39.0977 380.035 37.543C380.035 36.1523 379.703 35.0273 379.039 34.168C378.383 33.3008 377.508 32.8672 376.414 32.8672C375.344 32.8672 374.48 33.293 373.824 34.1445C373.168 34.9961 372.84 36.2148 372.84 37.8008ZM387.863 28.25V31.3203H390.23V32.9961H387.863V40.8594C387.863 41.3672 387.969 41.75 388.18 42.0078C388.391 42.2578 388.75 42.3828 389.258 42.3828C389.508 42.3828 389.852 42.3359 390.289 42.2422V44C389.719 44.1562 389.164 44.2344 388.625 44.2344C387.656 44.2344 386.926 43.9414 386.434 43.3555C385.941 42.7695 385.695 41.9375 385.695 40.8594V32.9961H383.387V31.3203H385.695V28.25H387.863ZM400.602 44C400.477 43.75 400.375 43.3047 400.297 42.6641C399.289 43.7109 398.086 44.2344 396.688 44.2344C395.438 44.2344 394.41 43.8828 393.605 43.1797C392.809 42.4688 392.41 41.5703 392.41 40.4844C392.41 39.1641 392.91 38.1406 393.91 37.4141C394.918 36.6797 396.332 36.3125 398.152 36.3125H400.262V35.3164C400.262 34.5586 400.035 33.957 399.582 33.5117C399.129 33.0586 398.461 32.832 397.578 32.832C396.805 32.832 396.156 33.0273 395.633 33.418C395.109 33.8086 394.848 34.2812 394.848 34.8359H392.668C392.668 34.2031 392.891 33.5938 393.336 33.0078C393.789 32.4141 394.398 31.9453 395.164 31.6016C395.938 31.2578 396.785 31.0859 397.707 31.0859C399.168 31.0859 400.312 31.4531 401.141 32.1875C401.969 32.9141 402.398 33.918 402.43 35.1992V41.0352C402.43 42.1992 402.578 43.125 402.875 43.8125V44H400.602ZM397.004 42.3477C397.684 42.3477 398.328 42.1719 398.938 41.8203C399.547 41.4688 399.988 41.0117 400.262 40.4492V37.8477H398.562C395.906 37.8477 394.578 38.625 394.578 40.1797C394.578 40.8594 394.805 41.3906 395.258 41.7734C395.711 42.1562 396.293 42.3477 397.004 42.3477ZM408.184 44H406.016V26H408.184V44Z" fill="black"/>
<rect id="Rectangle_33" x="688" y="58" width="130" height="20" stroke="#4F4F4F"/>
<path id="pedestrians_2" d="M702.68 37.8008C702.68 39.7305 702.238 41.2852 701.355 42.4648C700.473 43.6445 699.277 44.2344 697.77 44.2344C696.23 44.2344 695.02 43.7461 694.137 42.7695V48.875H691.969V31.3203H693.949L694.055 32.7266C694.938 31.6328 696.164 31.0859 697.734 31.0859C699.258 31.0859 700.461 31.6602 701.344 32.8086C702.234 33.957 702.68 35.5547 702.68 37.6016V37.8008ZM700.512 37.5547C700.512 36.125 700.207 34.9961 699.598 34.168C698.988 33.3398 698.152 32.9258 697.09 32.9258C695.777 32.9258 694.793 33.5078 694.137 34.6719V40.7305C694.785 41.8867 695.777 42.4648 697.113 42.4648C698.152 42.4648 698.977 42.0547 699.586 41.2344C700.203 40.4062 700.512 39.1797 700.512 37.5547ZM710.707 44.2344C708.988 44.2344 707.59 43.6719 706.512 42.5469C705.434 41.4141 704.895 39.9023 704.895 38.0117V37.6133C704.895 36.3555 705.133 35.2344 705.609 34.25C706.094 33.2578 706.766 32.4844 707.625 31.9297C708.492 31.3672 709.43 31.0859 710.438 31.0859C712.086 31.0859 713.367 31.6289 714.281 32.7148C715.195 33.8008 715.652 35.3555 715.652 37.3789V38.2812H707.062C707.094 39.5312 707.457 40.543 708.152 41.3164C708.855 42.082 709.746 42.4648 710.824 42.4648C711.59 42.4648 712.238 42.3086 712.77 41.9961C713.301 41.6836 713.766 41.2695 714.164 40.7539L715.488 41.7852C714.426 43.418 712.832 44.2344 710.707 44.2344ZM710.438 32.8672C709.562 32.8672 708.828 33.1875 708.234 33.8281C707.641 34.4609 707.273 35.3516 707.133 36.5H713.484V36.3359C713.422 35.2344 713.125 34.3828 712.594 33.7812C712.062 33.1719 711.344 32.8672 710.438 32.8672ZM717.645 37.5547C717.645 35.6094 718.105 34.0469 719.027 32.8672C719.949 31.6797 721.156 31.0859 722.648 31.0859C724.133 31.0859 725.309 31.5938 726.176 32.6094V26H728.344V44H726.352L726.246 42.6406C725.379 43.7031 724.172 44.2344 722.625 44.2344C721.156 44.2344 719.957 43.6328 719.027 42.4297C718.105 41.2266 717.645 39.6562 717.645 37.7188V37.5547ZM719.812 37.8008C719.812 39.2383 720.109 40.3633 720.703 41.1758C721.297 41.9883 722.117 42.3945 723.164 42.3945C724.539 42.3945 725.543 41.7773 726.176 40.543V34.7188C725.527 33.5234 724.531 32.9258 723.188 32.9258C722.125 32.9258 721.297 33.3359 720.703 34.1562C720.109 34.9766 719.812 36.1914 719.812 37.8008ZM736.98 44.2344C735.262 44.2344 733.863 43.6719 732.785 42.5469C731.707 41.4141 731.168 39.9023 731.168 38.0117V37.6133C731.168 36.3555 731.406 35.2344 731.883 34.25C732.367 33.2578 733.039 32.4844 733.898 31.9297C734.766 31.3672 735.703 31.0859 736.711 31.0859C738.359 31.0859 739.641 31.6289 740.555 32.7148C741.469 33.8008 741.926 35.3555 741.926 37.3789V38.2812H733.336C733.367 39.5312 733.73 40.543 734.426 41.3164C735.129 42.082 736.02 42.4648 737.098 42.4648C737.863 42.4648 738.512 42.3086 739.043 41.9961C739.574 41.6836 740.039 41.2695 740.438 40.7539L741.762 41.7852C740.699 43.418 739.105 44.2344 736.98 44.2344ZM736.711 32.8672C735.836 32.8672 735.102 33.1875 734.508 33.8281C733.914 34.4609 733.547 35.3516 733.406 36.5H739.758V36.3359C739.695 35.2344 739.398 34.3828 738.867 33.7812C738.336 33.1719 737.617 32.8672 736.711 32.8672ZM751.828 40.6367C751.828 40.0508 751.605 39.5977 751.16 39.2773C750.723 38.9492 749.953 38.668 748.852 38.4336C747.758 38.1992 746.887 37.918 746.238 37.5898C745.598 37.2617 745.121 36.8711 744.809 36.418C744.504 35.9648 744.352 35.4258 744.352 34.8008C744.352 33.7617 744.789 32.8828 745.664 32.1641C746.547 31.4453 747.672 31.0859 749.039 31.0859C750.477 31.0859 751.641 31.457 752.531 32.1992C753.43 32.9414 753.879 33.8906 753.879 35.0469H751.699C751.699 34.4531 751.445 33.9414 750.938 33.5117C750.438 33.082 749.805 32.8672 749.039 32.8672C748.25 32.8672 747.633 33.0391 747.188 33.3828C746.742 33.7266 746.52 34.1758 746.52 34.7305C746.52 35.2539 746.727 35.6484 747.141 35.9141C747.555 36.1797 748.301 36.4336 749.379 36.6758C750.465 36.918 751.344 37.207 752.016 37.543C752.688 37.8789 753.184 38.2852 753.504 38.7617C753.832 39.2305 753.996 39.8047 753.996 40.4844C753.996 41.6172 753.543 42.5273 752.637 43.2148C751.73 43.8945 750.555 44.2344 749.109 44.2344C748.094 44.2344 747.195 44.0547 746.414 43.6953C745.633 43.3359 745.02 42.8359 744.574 42.1953C744.137 41.5469 743.918 40.8477 743.918 40.0977H746.086C746.125 40.8242 746.414 41.4023 746.953 41.832C747.5 42.2539 748.219 42.4648 749.109 42.4648C749.93 42.4648 750.586 42.3008 751.078 41.9727C751.578 41.6367 751.828 41.1914 751.828 40.6367ZM759.762 28.25V31.3203H762.129V32.9961H759.762V40.8594C759.762 41.3672 759.867 41.75 760.078 42.0078C760.289 42.2578 760.648 42.3828 761.156 42.3828C761.406 42.3828 761.75 42.3359 762.188 42.2422V44C761.617 44.1562 761.062 44.2344 760.523 44.2344C759.555 44.2344 758.824 43.9414 758.332 43.3555C757.84 42.7695 757.594 41.9375 757.594 40.8594V32.9961H755.285V31.3203H757.594V28.25H759.762ZM770.801 33.2656C770.473 33.2109 770.117 33.1836 769.734 33.1836C768.312 33.1836 767.348 33.7891 766.84 35V44H764.672V31.3203H766.781L766.816 32.7852C767.527 31.6523 768.535 31.0859 769.84 31.0859C770.262 31.0859 770.582 31.1406 770.801 31.25V33.2656ZM775.16 44H772.992V31.3203H775.16V44ZM772.816 27.957C772.816 27.6055 772.922 27.3086 773.133 27.0664C773.352 26.8242 773.672 26.7031 774.094 26.7031C774.516 26.7031 774.836 26.8242 775.055 27.0664C775.273 27.3086 775.383 27.6055 775.383 27.957C775.383 28.3086 775.273 28.6016 775.055 28.8359C774.836 29.0703 774.516 29.1875 774.094 29.1875C773.672 29.1875 773.352 29.0703 773.133 28.8359C772.922 28.6016 772.816 28.3086 772.816 27.957ZM786.469 44C786.344 43.75 786.242 43.3047 786.164 42.6641C785.156 43.7109 783.953 44.2344 782.555 44.2344C781.305 44.2344 780.277 43.8828 779.473 43.1797C778.676 42.4688 778.277 41.5703 778.277 40.4844C778.277 39.1641 778.777 38.1406 779.777 37.4141C780.785 36.6797 782.199 36.3125 784.02 36.3125H786.129V35.3164C786.129 34.5586 785.902 33.957 785.449 33.5117C784.996 33.0586 784.328 32.832 783.445 32.832C782.672 32.832 782.023 33.0273 781.5 33.418C780.977 33.8086 780.715 34.2812 780.715 34.8359H778.535C778.535 34.2031 778.758 33.5938 779.203 33.0078C779.656 32.4141 780.266 31.9453 781.031 31.6016C781.805 31.2578 782.652 31.0859 783.574 31.0859C785.035 31.0859 786.18 31.4531 787.008 32.1875C787.836 32.9141 788.266 33.918 788.297 35.1992V41.0352C788.297 42.1992 788.445 43.125 788.742 43.8125V44H786.469ZM782.871 42.3477C783.551 42.3477 784.195 42.1719 784.805 41.8203C785.414 41.4688 785.855 41.0117 786.129 40.4492V37.8477H784.43C781.773 37.8477 780.445 38.625 780.445 40.1797C780.445 40.8594 780.672 41.3906 781.125 41.7734C781.578 42.1562 782.16 42.3477 782.871 42.3477ZM793.746 31.3203L793.816 32.9141C794.785 31.6953 796.051 31.0859 797.613 31.0859C800.293 31.0859 801.645 32.5977 801.668 35.6211V44H799.5V35.6094C799.492 34.6953 799.281 34.0195 798.867 33.582C798.461 33.1445 797.824 32.9258 796.957 32.9258C796.254 32.9258 795.637 33.1133 795.105 33.4883C794.574 33.8633 794.16 34.3555 793.863 34.9648V44H791.695V31.3203H793.746ZM812.32 40.6367C812.32 40.0508 812.098 39.5977 811.652 39.2773C811.215 38.9492 810.445 38.668 809.344 38.4336C808.25 38.1992 807.379 37.918 806.73 37.5898C806.09 37.2617 805.613 36.8711 805.301 36.418C804.996 35.9648 804.844 35.4258 804.844 34.8008C804.844 33.7617 805.281 32.8828 806.156 32.1641C807.039 31.4453 808.164 31.0859 809.531 31.0859C810.969 31.0859 812.133 31.457 813.023 32.1992C813.922 32.9414 814.371 33.8906 814.371 35.0469H812.191C812.191 34.4531 811.938 33.9414 811.43 33.5117C810.93 33.082 810.297 32.8672 809.531 32.8672C808.742 32.8672 808.125 33.0391 807.68 33.3828C807.234 33.7266 807.012 34.1758 807.012 34.7305C807.012 35.2539 807.219 35.6484 807.633 35.9141C808.047 36.1797 808.793 36.4336 809.871 36.6758C810.957 36.918 811.836 37.207 812.508 37.543C813.18 37.8789 813.676 38.2852 813.996 38.7617C814.324 39.2305 814.488 39.8047 814.488 40.4844C814.488 41.6172 814.035 42.5273 813.129 43.2148C812.223 43.8945 811.047 44.2344 809.602 44.2344C808.586 44.2344 807.688 44.0547 806.906 43.6953C806.125 43.3359 805.512 42.8359 805.066 42.1953C804.629 41.5469 804.41 40.8477 804.41 40.0977H806.578C806.617 40.8242 806.906 41.4023 807.445 41.832C807.992 42.2539 808.711 42.4648 809.602 42.4648C810.422 42.4648 811.078 42.3008 811.57 41.9727C812.07 41.6367 812.32 41.1914 812.32 40.6367Z" fill="black"/>
<rect id="Rectangle_34" x="818" y="58" width="90" height="20" stroke="#4F4F4F"/>
<path id="cyclist_2" d="M835.613 42.4648C836.387 42.4648 837.062 42.2305 837.641 41.7617C838.219 41.293 838.539 40.707 838.602 40.0039H840.652C840.613 40.7305 840.363 41.4219 839.902 42.0781C839.441 42.7344 838.824 43.2578 838.051 43.6484C837.285 44.0391 836.473 44.2344 835.613 44.2344C833.887 44.2344 832.512 43.6602 831.488 42.5117C830.473 41.3555 829.965 39.7773 829.965 37.7773V37.4141C829.965 36.1797 830.191 35.082 830.645 34.1211C831.098 33.1602 831.746 32.4141 832.59 31.8828C833.441 31.3516 834.445 31.0859 835.602 31.0859C837.023 31.0859 838.203 31.5117 839.141 32.3633C840.086 33.2148 840.59 34.3203 840.652 35.6797H838.602C838.539 34.8594 838.227 34.1875 837.664 33.6641C837.109 33.1328 836.422 32.8672 835.602 32.8672C834.5 32.8672 833.645 33.2656 833.035 34.0625C832.434 34.8516 832.133 35.9961 832.133 37.4961V37.9062C832.133 39.3672 832.434 40.4922 833.035 41.2812C833.637 42.0703 834.496 42.4648 835.613 42.4648ZM847.238 40.8242L850.191 31.3203H852.512L847.414 45.957C846.625 48.0664 845.371 49.1211 843.652 49.1211L843.242 49.0859L842.434 48.9336V47.1758L843.02 47.2227C843.754 47.2227 844.324 47.0742 844.73 46.7773C845.145 46.4805 845.484 45.9375 845.75 45.1484L846.23 43.8594L841.707 31.3203H844.074L847.238 40.8242ZM859.379 42.4648C860.152 42.4648 860.828 42.2305 861.406 41.7617C861.984 41.293 862.305 40.707 862.367 40.0039H864.418C864.379 40.7305 864.129 41.4219 863.668 42.0781C863.207 42.7344 862.59 43.2578 861.816 43.6484C861.051 44.0391 860.238 44.2344 859.379 44.2344C857.652 44.2344 856.277 43.6602 855.254 42.5117C854.238 41.3555 853.73 39.7773 853.73 37.7773V37.4141C853.73 36.1797 853.957 35.082 854.41 34.1211C854.863 33.1602 855.512 32.4141 856.355 31.8828C857.207 31.3516 858.211 31.0859 859.367 31.0859C860.789 31.0859 861.969 31.5117 862.906 32.3633C863.852 33.2148 864.355 34.3203 864.418 35.6797H862.367C862.305 34.8594 861.992 34.1875 861.43 33.6641C860.875 33.1328 860.188 32.8672 859.367 32.8672C858.266 32.8672 857.41 33.2656 856.801 34.0625C856.199 34.8516 855.898 35.9961 855.898 37.4961V37.9062C855.898 39.3672 856.199 40.4922 856.801 41.2812C857.402 42.0703 858.262 42.4648 859.379 42.4648ZM869.211 44H867.043V26H869.211V44ZM875.047 44H872.879V31.3203H875.047V44ZM872.703 27.957C872.703 27.6055 872.809 27.3086 873.02 27.0664C873.238 26.8242 873.559 26.7031 873.98 26.7031C874.402 26.7031 874.723 26.8242 874.941 27.0664C875.16 27.3086 875.27 27.6055 875.27 27.957C875.27 28.3086 875.16 28.6016 874.941 28.8359C874.723 29.0703 874.402 29.1875 873.98 29.1875C873.559 29.1875 873.238 29.0703 873.02 28.8359C872.809 28.6016 872.703 28.3086 872.703 27.957ZM885.91 40.6367C885.91 40.0508 885.688 39.5977 885.242 39.2773C884.805 38.9492 884.035 38.668 882.934 38.4336C881.84 38.1992 880.969 37.918 880.32 37.5898C879.68 37.2617 879.203 36.8711 878.891 36.418C878.586 35.9648 878.434 35.4258 878.434 34.8008C878.434 33.7617 878.871 32.8828 879.746 32.1641C880.629 31.4453 881.754 31.0859 883.121 31.0859C884.559 31.0859 885.723 31.457 886.613 32.1992C887.512 32.9414 887.961 33.8906 887.961 35.0469H885.781C885.781 34.4531 885.527 33.9414 885.02 33.5117C884.52 33.082 883.887 32.8672 883.121 32.8672C882.332 32.8672 881.715 33.0391 881.27 33.3828C880.824 33.7266 880.602 34.1758 880.602 34.7305C880.602 35.2539 880.809 35.6484 881.223 35.9141C881.637 36.1797 882.383 36.4336 883.461 36.6758C884.547 36.918 885.426 37.207 886.098 37.543C886.77 37.8789 887.266 38.2852 887.586 38.7617C887.914 39.2305 888.078 39.8047 888.078 40.4844C888.078 41.6172 887.625 42.5273 886.719 43.2148C885.812 43.8945 884.637 44.2344 883.191 44.2344C882.176 44.2344 881.277 44.0547 880.496 43.6953C879.715 43.3359 879.102 42.8359 878.656 42.1953C878.219 41.5469 878 40.8477 878 40.0977H880.168C880.207 40.8242 880.496 41.4023 881.035 41.832C881.582 42.2539 882.301 42.4648 883.191 42.4648C884.012 42.4648 884.668 42.3008 885.16 41.9727C885.66 41.6367 885.91 41.1914 885.91 40.6367ZM893.844 28.25V31.3203H896.211V32.9961H893.844V40.8594C893.844 41.3672 893.949 41.75 894.16 42.0078C894.371 42.2578 894.73 42.3828 895.238 42.3828C895.488 42.3828 895.832 42.3359 896.27 42.2422V44C895.699 44.1562 895.145 44.2344 894.605 44.2344C893.637 44.2344 892.906 43.9414 892.414 43.3555C891.922 42.7695 891.676 41.9375 891.676 40.8594V32.9961H889.367V31.3203H891.676V28.25H893.844Z" fill="black"/>
<rect id="Rectangle_35" x="908" y="58" width="112" height="20" stroke="#4F4F4F"/>
<path id="motorist_2" d="M922.562 31.3203L922.621 32.7266C923.551 31.6328 924.805 31.0859 926.383 31.0859C928.156 31.0859 929.363 31.7656 930.004 33.125C930.426 32.5156 930.973 32.0234 931.645 31.6484C932.324 31.2734 933.125 31.0859 934.047 31.0859C936.828 31.0859 938.242 32.5586 938.289 35.5039V44H936.121V35.6328C936.121 34.7266 935.914 34.0508 935.5 33.6055C935.086 33.1523 934.391 32.9258 933.414 32.9258C932.609 32.9258 931.941 33.168 931.41 33.6523C930.879 34.1289 930.57 34.7734 930.484 35.5859V44H928.305V35.6914C928.305 33.8477 927.402 32.9258 925.598 32.9258C924.176 32.9258 923.203 33.5312 922.68 34.7422V44H920.512V31.3203H922.562ZM940.996 37.543C940.996 36.3008 941.238 35.1836 941.723 34.1914C942.215 33.1992 942.895 32.4336 943.762 31.8945C944.637 31.3555 945.633 31.0859 946.75 31.0859C948.477 31.0859 949.871 31.6836 950.934 32.8789C952.004 34.0742 952.539 35.6641 952.539 37.6484V37.8008C952.539 39.0352 952.301 40.1445 951.824 41.1289C951.355 42.1055 950.68 42.8672 949.797 43.4141C948.922 43.9609 947.914 44.2344 946.773 44.2344C945.055 44.2344 943.66 43.6367 942.59 42.4414C941.527 41.2461 940.996 39.6641 940.996 37.6953V37.543ZM943.176 37.8008C943.176 39.207 943.5 40.3359 944.148 41.1875C944.805 42.0391 945.68 42.4648 946.773 42.4648C947.875 42.4648 948.75 42.0352 949.398 41.1758C950.047 40.3086 950.371 39.0977 950.371 37.543C950.371 36.1523 950.039 35.0273 949.375 34.168C948.719 33.3008 947.844 32.8672 946.75 32.8672C945.68 32.8672 944.816 33.293 944.16 34.1445C943.504 34.9961 943.176 36.2148 943.176 37.8008ZM958.199 28.25V31.3203H960.566V32.9961H958.199V40.8594C958.199 41.3672 958.305 41.75 958.516 42.0078C958.727 42.2578 959.086 42.3828 959.594 42.3828C959.844 42.3828 960.188 42.3359 960.625 42.2422V44C960.055 44.1562 959.5 44.2344 958.961 44.2344C957.992 44.2344 957.262 43.9414 956.77 43.3555C956.277 42.7695 956.031 41.9375 956.031 40.8594V32.9961H953.723V31.3203H956.031V28.25H958.199ZM962.301 37.543C962.301 36.3008 962.543 35.1836 963.027 34.1914C963.52 33.1992 964.199 32.4336 965.066 31.8945C965.941 31.3555 966.938 31.0859 968.055 31.0859C969.781 31.0859 971.176 31.6836 972.238 32.8789C973.309 34.0742 973.844 35.6641 973.844 37.6484V37.8008C973.844 39.0352 973.605 40.1445 973.129 41.1289C972.66 42.1055 971.984 42.8672 971.102 43.4141C970.227 43.9609 969.219 44.2344 968.078 44.2344C966.359 44.2344 964.965 43.6367 963.895 42.4414C962.832 41.2461 962.301 39.6641 962.301 37.6953V37.543ZM964.48 37.8008C964.48 39.207 964.805 40.3359 965.453 41.1875C966.109 42.0391 966.984 42.4648 968.078 42.4648C969.18 42.4648 970.055 42.0352 970.703 41.1758C971.352 40.3086 971.676 39.0977 971.676 37.543C971.676 36.1523 971.344 35.0273 970.68 34.168C970.023 33.3008 969.148 32.8672 968.055 32.8672C966.984 32.8672 966.121 33.293 965.465 34.1445C964.809 34.9961 964.48 36.2148 964.48 37.8008ZM982.691 33.2656C982.363 33.2109 982.008 33.1836 981.625 33.1836C980.203 33.1836 979.238 33.7891 978.73 35V44H976.562V31.3203H978.672L978.707 32.7852C979.418 31.6523 980.426 31.0859 981.73 31.0859C982.152 31.0859 982.473 31.1406 982.691 31.25V33.2656ZM987.051 44H984.883V31.3203H987.051V44ZM984.707 27.957C984.707 27.6055 984.812 27.3086 985.023 27.0664C985.242 26.8242 985.562 26.7031 985.984 26.7031C986.406 26.7031 986.727 26.8242 986.945 27.0664C987.164 27.3086 987.273 27.6055 987.273 27.957C987.273 28.3086 987.164 28.6016 986.945 28.8359C986.727 29.0703 986.406 29.1875 985.984 29.1875C985.562 29.1875 985.242 29.0703 985.023 28.8359C984.812 28.6016 984.707 28.3086 984.707 27.957ZM997.914 40.6367C997.914 40.0508 997.691 39.5977 997.246 39.2773C996.809 38.9492 996.039 38.668 994.938 38.4336C993.844 38.1992 992.973 37.918 992.324 37.5898C991.684 37.2617 991.207 36.8711 990.895 36.418C990.59 35.9648 990.438 35.4258 990.438 34.8008C990.438 33.7617 990.875 32.8828 991.75 32.1641C992.633 31.4453 993.758 31.0859 995.125 31.0859C996.562 31.0859 997.727 31.457 998.617 32.1992C999.516 32.9414 999.965 33.8906 999.965 35.0469H997.785C997.785 34.4531 997.531 33.9414 997.023 33.5117C996.523 33.082 995.891 32.8672 995.125 32.8672C994.336 32.8672 993.719 33.0391 993.273 33.3828C992.828 33.7266 992.605 34.1758 992.605 34.7305C992.605 35.2539 992.812 35.6484 993.227 35.9141C993.641 36.1797 994.387 36.4336 995.465 36.6758C996.551 36.918 997.43 37.207 998.102 37.543C998.773 37.8789 999.27 38.2852 999.59 38.7617C999.918 39.2305 1000.08 39.8047 1000.08 40.4844C1000.08 41.6172 999.629 42.5273 998.723 43.2148C997.816 43.8945 996.641 44.2344 995.195 44.2344C994.18 44.2344 993.281 44.0547 992.5 43.6953C991.719 43.3359 991.105 42.8359 990.66 42.1953C990.223 41.5469 990.004 40.8477 990.004 40.0977H992.172C992.211 40.8242 992.5 41.4023 993.039 41.832C993.586 42.2539 994.305 42.4648 995.195 42.4648C996.016 42.4648 996.672 42.3008 997.164 41.9727C997.664 41.6367 997.914 41.1914 997.914 40.6367ZM1005.85 28.25V31.3203H1008.21V32.9961H1005.85V40.8594C1005.85 41.3672 1005.95 41.75 1006.16 42.0078C1006.38 42.2578 1006.73 42.3828 1007.24 42.3828C1007.49 42.3828 1007.84 42.3359 1008.27 42.2422V44C1007.7 44.1562 1007.15 44.2344 1006.61 44.2344C1005.64 44.2344 1004.91 43.9414 1004.42 43.3555C1003.93 42.7695 1003.68 41.9375 1003.68 40.8594V32.9961H1001.37V31.3203H1003.68V28.25H1005.85Z" fill="black"/>
<rect id="Rectangle_36" x="1020" y="58" width="76" height="20" stroke="#4F4F4F"/>
<rect id="Rectangle_37" x="688" y="78" width="130" height="20" stroke="#4F4F4F"/>
<rect id="Rectangle_38" x="818" y="78" width="90" height="20" stroke="#4F4F4F"/>
<rect id="Rectangle_39" x="908" y="78" width="112" height="20" stroke="#4F4F4F"/>
<rect id="Rectangle_40" x="1020" y="78" width="76" height="20" stroke="#4F4F4F"/>
<rect id="Rectangle_41" x="688" y="98" width="130" height="20" stroke="#4F4F4F"/>
<rect id="Rectangle_42" x="818" y="98" width="90" height="20" stroke="#4F4F4F"/>
<rect id="Rectangle_43" x="908" y="98" width="112" height="20" stroke="#4F4F4F"/>
<rect id="Rectangle_44" x="1020" y="98" width="76" height="20" stroke="#4F4F4F"/>
<rect id="Rectangle_45" x="688" y="118" width="130" height="20" stroke="#4F4F4F"/>
<rect id="Rectangle_46" x="818" y="118" width="90" height="20" stroke="#4F4F4F"/>
<rect id="Rectangle_47" x="908" y="118" width="112" height="20" stroke="#4F4F4F"/>
<rect id="Rectangle_48" x="1020" y="118" width="76" height="20" stroke="#4F4F4F"/>
<path id="total_2" d="M1038.56 28.25V31.3203H1040.93V32.9961H1038.56V40.8594C1038.56 41.3672 1038.66 41.75 1038.88 42.0078C1039.09 42.2578 1039.45 42.3828 1039.95 42.3828C1040.2 42.3828 1040.55 42.3359 1040.98 42.2422V44C1040.41 44.1562 1039.86 44.2344 1039.32 44.2344C1038.35 44.2344 1037.62 43.9414 1037.13 43.3555C1036.64 42.7695 1036.39 41.9375 1036.39 40.8594V32.9961H1034.08V31.3203H1036.39V28.25H1038.56ZM1042.66 37.543C1042.66 36.3008 1042.9 35.1836 1043.39 34.1914C1043.88 33.1992 1044.56 32.4336 1045.43 31.8945C1046.3 31.3555 1047.3 31.0859 1048.41 31.0859C1050.14 31.0859 1051.54 31.6836 1052.6 32.8789C1053.67 34.0742 1054.2 35.6641 1054.2 37.6484V37.8008C1054.2 39.0352 1053.96 40.1445 1053.49 41.1289C1053.02 42.1055 1052.34 42.8672 1051.46 43.4141C1050.59 43.9609 1049.58 44.2344 1048.44 44.2344C1046.72 44.2344 1045.32 43.6367 1044.25 42.4414C1043.19 41.2461 1042.66 39.6641 1042.66 37.6953V37.543ZM1044.84 37.8008C1044.84 39.207 1045.16 40.3359 1045.81 41.1875C1046.47 42.0391 1047.34 42.4648 1048.44 42.4648C1049.54 42.4648 1050.41 42.0352 1051.06 41.1758C1051.71 40.3086 1052.04 39.0977 1052.04 37.543C1052.04 36.1523 1051.7 35.0273 1051.04 34.168C1050.38 33.3008 1049.51 32.8672 1048.41 32.8672C1047.34 32.8672 1046.48 33.293 1045.82 34.1445C1045.17 34.9961 1044.84 36.2148 1044.84 37.8008ZM1059.86 28.25V31.3203H1062.23V32.9961H1059.86V40.8594C1059.86 41.3672 1059.97 41.75 1060.18 42.0078C1060.39 42.2578 1060.75 42.3828 1061.26 42.3828C1061.51 42.3828 1061.85 42.3359 1062.29 42.2422V44C1061.72 44.1562 1061.16 44.2344 1060.62 44.2344C1059.66 44.2344 1058.93 43.9414 1058.43 43.3555C1057.94 42.7695 1057.7 41.9375 1057.7 40.8594V32.9961H1055.39V31.3203H1057.7V28.25H1059.86ZM1072.6 44C1072.48 43.75 1072.38 43.3047 1072.3 42.6641C1071.29 43.7109 1070.09 44.2344 1068.69 44.2344C1067.44 44.2344 1066.41 43.8828 1065.61 43.1797C1064.81 42.4688 1064.41 41.5703 1064.41 40.4844C1064.41 39.1641 1064.91 38.1406 1065.91 37.4141C1066.92 36.6797 1068.33 36.3125 1070.15 36.3125H1072.26V35.3164C1072.26 34.5586 1072.04 33.957 1071.58 33.5117C1071.13 33.0586 1070.46 32.832 1069.58 32.832C1068.8 32.832 1068.16 33.0273 1067.63 33.418C1067.11 33.8086 1066.85 34.2812 1066.85 34.8359H1064.67C1064.67 34.2031 1064.89 33.5938 1065.34 33.0078C1065.79 32.4141 1066.4 31.9453 1067.16 31.6016C1067.94 31.2578 1068.79 31.0859 1069.71 31.0859C1071.17 31.0859 1072.31 31.4531 1073.14 32.1875C1073.97 32.9141 1074.4 33.918 1074.43 35.1992V41.0352C1074.43 42.1992 1074.58 43.125 1074.88 43.8125V44H1072.6ZM1069 42.3477C1069.68 42.3477 1070.33 42.1719 1070.94 41.8203C1071.55 41.4688 1071.99 41.0117 1072.26 40.4492V37.8477H1070.56C1067.91 37.8477 1066.58 38.625 1066.58 40.1797C1066.58 40.8594 1066.8 41.3906 1067.26 41.7734C1067.71 42.1562 1068.29 42.3477 1069 42.3477ZM1080.18 44H1078.02V26H1080.18V44Z" fill="black"/>
<rect id="Rectangle_49" x="514" y="58" width="84" height="20" stroke="#A541F8"/>
<path id="mask" d="M530.359 31.3203L530.418 32.7266C531.348 31.6328 532.602 31.0859 534.18 31.0859C535.953 31.0859 537.16 31.7656 537.801 33.125C538.223 32.5156 538.77 32.0234 539.441 31.6484C540.121 31.2734 540.922 31.0859 541.844 31.0859C544.625 31.0859 546.039 32.5586 546.086 35.5039V44H543.918V35.6328C543.918 34.7266 543.711 34.0508 543.297 33.6055C542.883 33.1523 542.188 32.9258 541.211 32.9258C540.406 32.9258 539.738 33.168 539.207 33.6523C538.676 34.1289 538.367 34.7734 538.281 35.5859V44H536.102V35.6914C536.102 33.8477 535.199 32.9258 533.395 32.9258C531.973 32.9258 531 33.5312 530.477 34.7422V44H528.309V31.3203H530.359ZM557.195 44C557.07 43.75 556.969 43.3047 556.891 42.6641C555.883 43.7109 554.68 44.2344 553.281 44.2344C552.031 44.2344 551.004 43.8828 550.199 43.1797C549.402 42.4688 549.004 41.5703 549.004 40.4844C549.004 39.1641 549.504 38.1406 550.504 37.4141C551.512 36.6797 552.926 36.3125 554.746 36.3125H556.855V35.3164C556.855 34.5586 556.629 33.957 556.176 33.5117C555.723 33.0586 555.055 32.832 554.172 32.832C553.398 32.832 552.75 33.0273 552.227 33.418C551.703 33.8086 551.441 34.2812 551.441 34.8359H549.262C549.262 34.2031 549.484 33.5938 549.93 33.0078C550.383 32.4141 550.992 31.9453 551.758 31.6016C552.531 31.2578 553.379 31.0859 554.301 31.0859C555.762 31.0859 556.906 31.4531 557.734 32.1875C558.562 32.9141 558.992 33.918 559.023 35.1992V41.0352C559.023 42.1992 559.172 43.125 559.469 43.8125V44H557.195ZM553.598 42.3477C554.277 42.3477 554.922 42.1719 555.531 41.8203C556.141 41.4688 556.582 41.0117 556.855 40.4492V37.8477H555.156C552.5 37.8477 551.172 38.625 551.172 40.1797C551.172 40.8594 551.398 41.3906 551.852 41.7734C552.305 42.1562 552.887 42.3477 553.598 42.3477ZM569.805 40.6367C569.805 40.0508 569.582 39.5977 569.137 39.2773C568.699 38.9492 567.93 38.668 566.828 38.4336C565.734 38.1992 564.863 37.918 564.215 37.5898C563.574 37.2617 563.098 36.8711 562.785 36.418C562.48 35.9648 562.328 35.4258 562.328 34.8008C562.328 33.7617 562.766 32.8828 563.641 32.1641C564.523 31.4453 565.648 31.0859 567.016 31.0859C568.453 31.0859 569.617 31.457 570.508 32.1992C571.406 32.9414 571.855 33.8906 571.855 35.0469H569.676C569.676 34.4531 569.422 33.9414 568.914 33.5117C568.414 33.082 567.781 32.8672 567.016 32.8672C566.227 32.8672 565.609 33.0391 565.164 33.3828C564.719 33.7266 564.496 34.1758 564.496 34.7305C564.496 35.2539 564.703 35.6484 565.117 35.9141C565.531 36.1797 566.277 36.4336 567.355 36.6758C568.441 36.918 569.32 37.207 569.992 37.543C570.664 37.8789 571.16 38.2852 571.48 38.7617C571.809 39.2305 571.973 39.8047 571.973 40.4844C571.973 41.6172 571.52 42.5273 570.613 43.2148C569.707 43.8945 568.531 44.2344 567.086 44.2344C566.07 44.2344 565.172 44.0547 564.391 43.6953C563.609 43.3359 562.996 42.8359 562.551 42.1953C562.113 41.5469 561.895 40.8477 561.895 40.0977H564.062C564.102 40.8242 564.391 41.4023 564.93 41.832C565.477 42.2539 566.195 42.4648 567.086 42.4648C567.906 42.4648 568.562 42.3008 569.055 41.9727C569.555 41.6367 569.805 41.1914 569.805 40.6367ZM578.336 38.1289L576.977 39.5469V44H574.809V26H576.977V36.8867L578.137 35.4922L582.086 31.3203H584.723L579.789 36.6172L585.297 44H582.754L578.336 38.1289Z" fill="#9B51E0"/>
<rect id="Rectangle_50" x="514" y="78" width="84" height="20" stroke="#A541F8"/>
<rect id="Rectangle_51" x="514" y="98" width="84" height="20" stroke="#A541F8"/>
<rect id="Rectangle_52" x="514" y="118" width="84" height="20" stroke="#A541F8"/>
<rect id="Rectangle_53" x="514" y="138" width="84" height="20" stroke="#A541F8"/>
<rect id="Rectangle_54" x="514" y="158" width="84" height="20" stroke="#A541F8"/>
<rect id="Rectangle_55" x="514" y="178" width="84" height="20" stroke="#A541F8"/>
<rect id="Rectangle_56" x="514" y="198" width="84" height="20" stroke="#A541F8"/>
<path id="Arrow" d="M505.414 139.414C506.195 138.633 506.195 137.367 505.414 136.586L492.686 123.858C491.905 123.077 490.639 123.077 489.858 123.858C489.077 124.639 489.077 125.905 489.858 126.686L501.172 138L489.858 149.314C489.077 150.095 489.077 151.361 489.858 152.142C490.639 152.923 491.905 152.923 492.686 152.142L505.414 139.414ZM434 140H504V136H434V140Z" fill="black"/>
<path id="Arrow_2" d="M677.414 99.4142C678.195 98.6332 678.195 97.3668 677.414 96.5858L664.686 83.8579C663.905 83.0768 662.639 83.0768 661.858 83.8579C661.077 84.6389 661.077 85.9052 661.858 86.6863L673.172 98L661.858 109.314C661.077 110.095 661.077 111.361 661.858 112.142C662.639 112.923 663.905 112.923 664.686 112.142L677.414 99.4142ZM606 100H676V96H606V100Z" fill="black"/>
</g>
</svg>
