<svg width="1120" height="234" viewBox="0 0 1120 234" fill="none" xmlns="http://www.w3.org/2000/svg">
<g id="Frame">
<rect width="560" height="117" transform="scale(2)" fill="white"/>
<rect id="Rectangle" x="306" y="56" width="76" height="20" stroke="#4F4F4F"/>
<path id="total" d="M324.559 26.25V29.3203H326.926V30.9961H324.559V38.8594C324.559 39.3672 324.664 39.75 324.875 40.0078C325.086 40.2578 325.445 40.3828 325.953 40.3828C326.203 40.3828 326.547 40.3359 326.984 40.2422V42C326.414 42.1562 325.859 42.2344 325.32 42.2344C324.352 42.2344 323.621 41.9414 323.129 41.3555C322.637 40.7695 322.391 39.9375 322.391 38.8594V30.9961H320.082V29.3203H322.391V26.25H324.559ZM328.66 35.543C328.66 34.3008 328.902 33.1836 329.387 32.1914C329.879 31.1992 330.559 30.4336 331.426 29.8945C332.301 29.3555 333.297 29.0859 334.414 29.0859C336.141 29.0859 337.535 29.6836 338.598 30.8789C339.668 32.0742 340.203 33.6641 340.203 35.6484V35.8008C340.203 37.0352 339.965 38.1445 339.488 39.1289C339.02 40.1055 338.344 40.8672 337.461 41.4141C336.586 41.9609 335.578 42.2344 334.438 42.2344C332.719 42.2344 331.324 41.6367 330.254 40.4414C329.191 39.2461 328.66 37.6641 328.66 35.6953V35.543ZM330.84 35.8008C330.84 37.207 331.164 38.3359 331.812 39.1875C332.469 40.0391 333.344 40.4648 334.438 40.4648C335.539 40.4648 336.414 40.0352 337.062 39.1758C337.711 38.3086 338.035 37.0977 338.035 35.543C338.035 34.1523 337.703 33.0273 337.039 32.168C336.383 31.3008 335.508 30.8672 334.414 30.8672C333.344 30.8672 332.48 31.293 331.824 32.1445C331.168 32.9961 330.84 34.2148 330.84 35.8008ZM345.863 26.25V29.3203H348.23V30.9961H345.863V38.8594C345.863 39.3672 345.969 39.75 346.18 40.0078C346.391 40.2578 346.75 40.3828 347.258 40.3828C347.508 40.3828 347.852 40.3359 348.289 40.2422V42C347.719 42.1562 347.164 42.2344 346.625 42.2344C345.656 42.2344 344.926 41.9414 344.434 41.3555C343.941 40.7695 343.695 39.9375 343.695 38.8594V30.9961H341.387V29.3203H343.695V26.25H345.863ZM358.602 42C358.477 41.75 358.375 41.3047 358.297 40.6641C357.289 41.7109 356.086 42.2344 354.688 42.2344C353.438 42.2344 352.41 41.8828 351.605 41.1797C350.809 40.4688 350.41 39.5703 350.41 38.4844C350.41 37.1641 350.91 36.1406 351.91 35.4141C352.918 34.6797 354.332 34.3125 356.152 34.3125H358.262V33.3164C358.262 32.5586 358.035 31.957 357.582 31.5117C357.129 31.0586 356.461 30.832 355.578 30.832C354.805 30.832 354.156 31.0273 353.633 31.418C353.109 31.8086 352.848 32.2812 352.848 32.8359H350.668C350.668 32.2031 350.891 31.5938 351.336 31.0078C351.789 30.4141 352.398 29.9453 353.164 29.6016C353.938 29.2578 354.785 29.0859 355.707 29.0859C357.168 29.0859 358.312 29.4531 359.141 30.1875C359.969 30.9141 360.398 31.918 360.43 33.1992V39.0352C360.43 40.1992 360.578 41.125 360.875 41.8125V42H358.602ZM355.004 40.3477C355.684 40.3477 356.328 40.1719 356.938 39.8203C357.547 39.4688 357.988 39.0117 358.262 38.4492V35.8477H356.562C353.906 35.8477 352.578 36.625 352.578 38.1797C352.578 38.8594 352.805 39.3906 353.258 39.7734C353.711 40.1562 354.293 40.3477 355.004 40.3477ZM366.184 42H364.016V24H366.184V42Z" fill="black"/>
<rect id="Rectangle_2" x="306" y="76" width="76" height="20" stroke="#4F4F4F"/>
<rect id="Rectangle_3" x="306" y="96" width="76" height="20" stroke="#4F4F4F"/>
<rect id="Rectangle_4" x="306" y="116" width="76" height="20" stroke="#4F4F4F"/>
<rect id="Rectangle_5" x="306" y="136" width="76" height="20" stroke="#4F4F4F"/>
<rect id="Rectangle_6" x="306" y="156" width="76" height="20" stroke="#4F4F4F"/>
<rect id="Rectangle_7" x="306" y="176" width="76" height="20" stroke="#4F4F4F"/>
<rect id="Rectangle_8" x="306" y="196" width="76" height="20" stroke="#4F4F4F"/>
<rect id="Rectangle_9" x="490" y="54" width="152" height="20" stroke="#0072B2"/>
<path id="manual_sum" d="M501.195 27.3203L501.254 28.7266C502.184 27.6328 503.438 27.0859 505.016 27.0859C506.789 27.0859 507.996 27.7656 508.637 29.125C509.059 28.5156 509.605 28.0234 510.277 27.6484C510.957 27.2734 511.758 27.0859 512.68 27.0859C515.461 27.0859 516.875 28.5586 516.922 31.5039V40H514.754V31.6328C514.754 30.7266 514.547 30.0508 514.133 29.6055C513.719 29.1523 513.023 28.9258 512.047 28.9258C511.242 28.9258 510.574 29.168 510.043 29.6523C509.512 30.1289 509.203 30.7734 509.117 31.5859V40H506.938V31.6914C506.938 29.8477 506.035 28.9258 504.23 28.9258C502.809 28.9258 501.836 29.5312 501.312 30.7422V40H499.145V27.3203H501.195ZM528.031 40C527.906 39.75 527.805 39.3047 527.727 38.6641C526.719 39.7109 525.516 40.2344 524.117 40.2344C522.867 40.2344 521.84 39.8828 521.035 39.1797C520.238 38.4688 519.84 37.5703 519.84 36.4844C519.84 35.1641 520.34 34.1406 521.34 33.4141C522.348 32.6797 523.762 32.3125 525.582 32.3125H527.691V31.3164C527.691 30.5586 527.465 29.957 527.012 29.5117C526.559 29.0586 525.891 28.832 525.008 28.832C524.234 28.832 523.586 29.0273 523.062 29.418C522.539 29.8086 522.277 30.2812 522.277 30.8359H520.098C520.098 30.2031 520.32 29.5938 520.766 29.0078C521.219 28.4141 521.828 27.9453 522.594 27.6016C523.367 27.2578 524.215 27.0859 525.137 27.0859C526.598 27.0859 527.742 27.4531 528.57 28.1875C529.398 28.9141 529.828 29.918 529.859 31.1992V37.0352C529.859 38.1992 530.008 39.125 530.305 39.8125V40H528.031ZM524.434 38.3477C525.113 38.3477 525.758 38.1719 526.367 37.8203C526.977 37.4688 527.418 37.0117 527.691 36.4492V33.8477H525.992C523.336 33.8477 522.008 34.625 522.008 36.1797C522.008 36.8594 522.234 37.3906 522.688 37.7734C523.141 38.1562 523.723 38.3477 524.434 38.3477ZM535.309 27.3203L535.379 28.9141C536.348 27.6953 537.613 27.0859 539.176 27.0859C541.855 27.0859 543.207 28.5977 543.23 31.6211V40H541.062V31.6094C541.055 30.6953 540.844 30.0195 540.43 29.582C540.023 29.1445 539.387 28.9258 538.52 28.9258C537.816 28.9258 537.199 29.1133 536.668 29.4883C536.137 29.8633 535.723 30.3555 535.426 30.9648V40H533.258V27.3203H535.309ZM554.328 38.7461C553.484 39.7383 552.246 40.2344 550.613 40.2344C549.262 40.2344 548.23 39.8438 547.52 39.0625C546.816 38.2734 546.461 37.1094 546.453 35.5703V27.3203H548.621V35.5117C548.621 37.4336 549.402 38.3945 550.965 38.3945C552.621 38.3945 553.723 37.7773 554.27 36.543V27.3203H556.438V40H554.375L554.328 38.7461ZM567.57 40C567.445 39.75 567.344 39.3047 567.266 38.6641C566.258 39.7109 565.055 40.2344 563.656 40.2344C562.406 40.2344 561.379 39.8828 560.574 39.1797C559.777 38.4688 559.379 37.5703 559.379 36.4844C559.379 35.1641 559.879 34.1406 560.879 33.4141C561.887 32.6797 563.301 32.3125 565.121 32.3125H567.23V31.3164C567.23 30.5586 567.004 29.957 566.551 29.5117C566.098 29.0586 565.43 28.832 564.547 28.832C563.773 28.832 563.125 29.0273 562.602 29.418C562.078 29.8086 561.816 30.2812 561.816 30.8359H559.637C559.637 30.2031 559.859 29.5938 560.305 29.0078C560.758 28.4141 561.367 27.9453 562.133 27.6016C562.906 27.2578 563.754 27.0859 564.676 27.0859C566.137 27.0859 567.281 27.4531 568.109 28.1875C568.938 28.9141 569.367 29.918 569.398 31.1992V37.0352C569.398 38.1992 569.547 39.125 569.844 39.8125V40H567.57ZM563.973 38.3477C564.652 38.3477 565.297 38.1719 565.906 37.8203C566.516 37.4688 566.957 37.0117 567.23 36.4492V33.8477H565.531C562.875 33.8477 561.547 34.625 561.547 36.1797C561.547 36.8594 561.773 37.3906 562.227 37.7734C562.68 38.1562 563.262 38.3477 563.973 38.3477ZM575.152 40H572.984V22H575.152V40ZM587.773 41.7695H577.039V40H587.773V41.7695ZM596.844 36.6367C596.844 36.0508 596.621 35.5977 596.176 35.2773C595.738 34.9492 594.969 34.668 593.867 34.4336C592.773 34.1992 591.902 33.918 591.254 33.5898C590.613 33.2617 590.137 32.8711 589.824 32.418C589.52 31.9648 589.367 31.4258 589.367 30.8008C589.367 29.7617 589.805 28.8828 590.68 28.1641C591.562 27.4453 592.688 27.0859 594.055 27.0859C595.492 27.0859 596.656 27.457 597.547 28.1992C598.445 28.9414 598.895 29.8906 598.895 31.0469H596.715C596.715 30.4531 596.461 29.9414 595.953 29.5117C595.453 29.082 594.82 28.8672 594.055 28.8672C593.266 28.8672 592.648 29.0391 592.203 29.3828C591.758 29.7266 591.535 30.1758 591.535 30.7305C591.535 31.2539 591.742 31.6484 592.156 31.9141C592.57 32.1797 593.316 32.4336 594.395 32.6758C595.48 32.918 596.359 33.207 597.031 33.543C597.703 33.8789 598.199 34.2852 598.52 34.7617C598.848 35.2305 599.012 35.8047 599.012 36.4844C599.012 37.6172 598.559 38.5273 597.652 39.2148C596.746 39.8945 595.57 40.2344 594.125 40.2344C593.109 40.2344 592.211 40.0547 591.43 39.6953C590.648 39.3359 590.035 38.8359 589.59 38.1953C589.152 37.5469 588.934 36.8477 588.934 36.0977H591.102C591.141 36.8242 591.43 37.4023 591.969 37.832C592.516 38.2539 593.234 38.4648 594.125 38.4648C594.945 38.4648 595.602 38.3008 596.094 37.9727C596.594 37.6367 596.844 37.1914 596.844 36.6367ZM609.664 38.7461C608.82 39.7383 607.582 40.2344 605.949 40.2344C604.598 40.2344 603.566 39.8438 602.855 39.0625C602.152 38.2734 601.797 37.1094 601.789 35.5703V27.3203H603.957V35.5117C603.957 37.4336 604.738 38.3945 606.301 38.3945C607.957 38.3945 609.059 37.7773 609.605 36.543V27.3203H611.773V40H609.711L609.664 38.7461ZM617.117 27.3203L617.176 28.7266C618.105 27.6328 619.359 27.0859 620.938 27.0859C622.711 27.0859 623.918 27.7656 624.559 29.125C624.98 28.5156 625.527 28.0234 626.199 27.6484C626.879 27.2734 627.68 27.0859 628.602 27.0859C631.383 27.0859 632.797 28.5586 632.844 31.5039V40H630.676V31.6328C630.676 30.7266 630.469 30.0508 630.055 29.6055C629.641 29.1523 628.945 28.9258 627.969 28.9258C627.164 28.9258 626.496 29.168 625.965 29.6523C625.434 30.1289 625.125 30.7734 625.039 31.5859V40H622.859V31.6914C622.859 29.8477 621.957 28.9258 620.152 28.9258C618.73 28.9258 617.758 29.5312 617.234 30.7422V40H615.066V27.3203H617.117Z" fill="#0072B2"/>
<rect id="Rectangle_10" x="490" y="74" width="152" height="20" stroke="#0072B2"/>
<rect id="Rectangle_11" x="490" y="94" width="152" height="20" stroke="#0072B2"/>
<rect id="Rectangle_12" x="490" y="114" width="152" height="20" stroke="#0072B2"/>
<rect id="Rectangle_13" x="490" y="134" width="152" height="20" stroke="#0072B2"/>
<rect id="Rectangle_14" x="490" y="154" width="152" height="20" stroke="#0072B2"/>
<rect id="Rectangle_15" x="490" y="174" width="152" height="20" stroke="#0072B2"/>
<rect id="Rectangle_16" x="490" y="194" width="152" height="20" stroke="#0072B2"/>
<rect id="Rectangle_17" x="730" y="54" width="84" height="20" stroke="#A541F8"/>
<path id="mask" d="M746.359 27.3203L746.418 28.7266C747.348 27.6328 748.602 27.0859 750.18 27.0859C751.953 27.0859 753.16 27.7656 753.801 29.125C754.223 28.5156 754.77 28.0234 755.441 27.6484C756.121 27.2734 756.922 27.0859 757.844 27.0859C760.625 27.0859 762.039 28.5586 762.086 31.5039V40H759.918V31.6328C759.918 30.7266 759.711 30.0508 759.297 29.6055C758.883 29.1523 758.188 28.9258 757.211 28.9258C756.406 28.9258 755.738 29.168 755.207 29.6523C754.676 30.1289 754.367 30.7734 754.281 31.5859V40H752.102V31.6914C752.102 29.8477 751.199 28.9258 749.395 28.9258C747.973 28.9258 747 29.5312 746.477 30.7422V40H744.309V27.3203H746.359ZM773.195 40C773.07 39.75 772.969 39.3047 772.891 38.6641C771.883 39.7109 770.68 40.2344 769.281 40.2344C768.031 40.2344 767.004 39.8828 766.199 39.1797C765.402 38.4688 765.004 37.5703 765.004 36.4844C765.004 35.1641 765.504 34.1406 766.504 33.4141C767.512 32.6797 768.926 32.3125 770.746 32.3125H772.855V31.3164C772.855 30.5586 772.629 29.957 772.176 29.5117C771.723 29.0586 771.055 28.832 770.172 28.832C769.398 28.832 768.75 29.0273 768.227 29.418C767.703 29.8086 767.441 30.2812 767.441 30.8359H765.262C765.262 30.2031 765.484 29.5938 765.93 29.0078C766.383 28.4141 766.992 27.9453 767.758 27.6016C768.531 27.2578 769.379 27.0859 770.301 27.0859C771.762 27.0859 772.906 27.4531 773.734 28.1875C774.562 28.9141 774.992 29.918 775.023 31.1992V37.0352C775.023 38.1992 775.172 39.125 775.469 39.8125V40H773.195ZM769.598 38.3477C770.277 38.3477 770.922 38.1719 771.531 37.8203C772.141 37.4688 772.582 37.0117 772.855 36.4492V33.8477H771.156C768.5 33.8477 767.172 34.625 767.172 36.1797C767.172 36.8594 767.398 37.3906 767.852 37.7734C768.305 38.1562 768.887 38.3477 769.598 38.3477ZM785.805 36.6367C785.805 36.0508 785.582 35.5977 785.137 35.2773C784.699 34.9492 783.93 34.668 782.828 34.4336C781.734 34.1992 780.863 33.918 780.215 33.5898C779.574 33.2617 779.098 32.8711 778.785 32.418C778.48 31.9648 778.328 31.4258 778.328 30.8008C778.328 29.7617 778.766 28.8828 779.641 28.1641C780.523 27.4453 781.648 27.0859 783.016 27.0859C784.453 27.0859 785.617 27.457 786.508 28.1992C787.406 28.9414 787.855 29.8906 787.855 31.0469H785.676C785.676 30.4531 785.422 29.9414 784.914 29.5117C784.414 29.082 783.781 28.8672 783.016 28.8672C782.227 28.8672 781.609 29.0391 781.164 29.3828C780.719 29.7266 780.496 30.1758 780.496 30.7305C780.496 31.2539 780.703 31.6484 781.117 31.9141C781.531 32.1797 782.277 32.4336 783.355 32.6758C784.441 32.918 785.32 33.207 785.992 33.543C786.664 33.8789 787.16 34.2852 787.48 34.7617C787.809 35.2305 787.973 35.8047 787.973 36.4844C787.973 37.6172 787.52 38.5273 786.613 39.2148C785.707 39.8945 784.531 40.2344 783.086 40.2344C782.07 40.2344 781.172 40.0547 780.391 39.6953C779.609 39.3359 778.996 38.8359 778.551 38.1953C778.113 37.5469 777.895 36.8477 777.895 36.0977H780.062C780.102 36.8242 780.391 37.4023 780.93 37.832C781.477 38.2539 782.195 38.4648 783.086 38.4648C783.906 38.4648 784.562 38.3008 785.055 37.9727C785.555 37.6367 785.805 37.1914 785.805 36.6367ZM794.336 34.1289L792.977 35.5469V40H790.809V22H792.977V32.8867L794.137 31.4922L798.086 27.3203H800.723L795.789 32.6172L801.297 40H798.754L794.336 34.1289Z" fill="#9B51E0"/>
<rect id="Rectangle_18" x="730" y="74" width="84" height="20" stroke="#A541F8"/>
<rect id="Rectangle_19" x="730" y="94" width="84" height="20" stroke="#A541F8"/>
<rect id="Rectangle_20" x="730" y="114" width="84" height="20" stroke="#A541F8"/>
<rect id="Rectangle_21" x="730" y="134" width="84" height="20" stroke="#A541F8"/>
<rect id="Rectangle_22" x="730" y="154" width="84" height="20" stroke="#A541F8"/>
<rect id="Rectangle_23" x="730" y="174" width="84" height="20" stroke="#A541F8"/>
<rect id="Rectangle_24" x="730" y="194" width="84" height="20" stroke="#A541F8"/>
<path id="Arrow" d="M469.414 137.414C470.195 136.633 470.195 135.367 469.414 134.586L456.686 121.858C455.905 121.077 454.639 121.077 453.858 121.858C453.077 122.639 453.077 123.905 453.858 124.686L465.172 136L453.858 147.314C453.077 148.095 453.077 149.361 453.858 150.142C454.639 150.923 455.905 150.923 456.686 150.142L469.414 137.414ZM398 138H468V134H398V138Z" fill="black"/>
<path id="Arrow_2" d="M721.414 135.414C722.195 134.633 722.195 133.367 721.414 132.586L708.686 119.858C707.905 119.077 706.639 119.077 705.858 119.858C705.077 120.639 705.077 121.905 705.858 122.686L717.172 134L705.858 145.314C705.077 146.095 705.077 147.361 705.858 148.142C706.639 148.923 707.905 148.923 708.686 148.142L721.414 135.414ZM650 136H720V132H650V136Z" fill="black"/>
<path id="!=" d="M420.705 106.416L420.633 103.92H422.985L422.913 106.416L422.601 114.288H421.017L420.705 106.416ZM419.889 118.272C419.889 117.664 420.073 117.184 420.441 116.832C420.825 116.464 421.281 116.28 421.809 116.28C422.337 116.28 422.785 116.464 423.153 116.832C423.537 117.184 423.729 117.664 423.729 118.272C423.729 118.88 423.537 119.368 423.153 119.736C422.785 120.104 422.337 120.288 421.809 120.288C421.281 120.288 420.825 120.104 420.441 119.736C420.073 119.368 419.889 118.88 419.889 118.272ZM430.944 108.576H441.456V110.304H430.944V108.576ZM430.944 113.832H441.456V115.56H430.944V113.832Z" fill="black"/>
</g>
</svg>
