<svg width="1120" height="234" viewBox="0 0 1120 234" fill="none" xmlns="http://www.w3.org/2000/svg">
<g id="Frame">
<rect width="560" height="117" transform="scale(2)" fill="white"/>
<rect id="Rectangle" x="250" y="54" width="130" height="20" stroke="#4F4F4F"/>
<path id="pedestrians" d="M264.68 33.8008C264.68 35.7305 264.238 37.2852 263.355 38.4648C262.473 39.6445 261.277 40.2344 259.77 40.2344C258.23 40.2344 257.02 39.7461 256.137 38.7695V44.875H253.969V27.3203H255.949L256.055 28.7266C256.938 27.6328 258.164 27.0859 259.734 27.0859C261.258 27.0859 262.461 27.6602 263.344 28.8086C264.234 29.957 264.68 31.5547 264.68 33.6016V33.8008ZM262.512 33.5547C262.512 32.125 262.207 30.9961 261.598 30.168C260.988 29.3398 260.152 28.9258 259.09 28.9258C257.777 28.9258 256.793 29.5078 256.137 30.6719V36.7305C256.785 37.8867 257.777 38.4648 259.113 38.4648C260.152 38.4648 260.977 38.0547 261.586 37.2344C262.203 36.4062 262.512 35.1797 262.512 33.5547ZM272.707 40.2344C270.988 40.2344 269.59 39.6719 268.512 38.5469C267.434 37.4141 266.895 35.9023 266.895 34.0117V33.6133C266.895 32.3555 267.133 31.2344 267.609 30.25C268.094 29.2578 268.766 28.4844 269.625 27.9297C270.492 27.3672 271.43 27.0859 272.438 27.0859C274.086 27.0859 275.367 27.6289 276.281 28.7148C277.195 29.8008 277.652 31.3555 277.652 33.3789V34.2812H269.062C269.094 35.5312 269.457 36.543 270.152 37.3164C270.855 38.082 271.746 38.4648 272.824 38.4648C273.59 38.4648 274.238 38.3086 274.77 37.9961C275.301 37.6836 275.766 37.2695 276.164 36.7539L277.488 37.7852C276.426 39.418 274.832 40.2344 272.707 40.2344ZM272.438 28.8672C271.562 28.8672 270.828 29.1875 270.234 29.8281C269.641 30.4609 269.273 31.3516 269.133 32.5H275.484V32.3359C275.422 31.2344 275.125 30.3828 274.594 29.7812C274.062 29.1719 273.344 28.8672 272.438 28.8672ZM279.645 33.5547C279.645 31.6094 280.105 30.0469 281.027 28.8672C281.949 27.6797 283.156 27.0859 284.648 27.0859C286.133 27.0859 287.309 27.5938 288.176 28.6094V22H290.344V40H288.352L288.246 38.6406C287.379 39.7031 286.172 40.2344 284.625 40.2344C283.156 40.2344 281.957 39.6328 281.027 38.4297C280.105 37.2266 279.645 35.6562 279.645 33.7188V33.5547ZM281.812 33.8008C281.812 35.2383 282.109 36.3633 282.703 37.1758C283.297 37.9883 284.117 38.3945 285.164 38.3945C286.539 38.3945 287.543 37.7773 288.176 36.543V30.7188C287.527 29.5234 286.531 28.9258 285.188 28.9258C284.125 28.9258 283.297 29.3359 282.703 30.1562C282.109 30.9766 281.812 32.1914 281.812 33.8008ZM298.98 40.2344C297.262 40.2344 295.863 39.6719 294.785 38.5469C293.707 37.4141 293.168 35.9023 293.168 34.0117V33.6133C293.168 32.3555 293.406 31.2344 293.883 30.25C294.367 29.2578 295.039 28.4844 295.898 27.9297C296.766 27.3672 297.703 27.0859 298.711 27.0859C300.359 27.0859 301.641 27.6289 302.555 28.7148C303.469 29.8008 303.926 31.3555 303.926 33.3789V34.2812H295.336C295.367 35.5312 295.73 36.543 296.426 37.3164C297.129 38.082 298.02 38.4648 299.098 38.4648C299.863 38.4648 300.512 38.3086 301.043 37.9961C301.574 37.6836 302.039 37.2695 302.438 36.7539L303.762 37.7852C302.699 39.418 301.105 40.2344 298.98 40.2344ZM298.711 28.8672C297.836 28.8672 297.102 29.1875 296.508 29.8281C295.914 30.4609 295.547 31.3516 295.406 32.5H301.758V32.3359C301.695 31.2344 301.398 30.3828 300.867 29.7812C300.336 29.1719 299.617 28.8672 298.711 28.8672ZM313.828 36.6367C313.828 36.0508 313.605 35.5977 313.16 35.2773C312.723 34.9492 311.953 34.668 310.852 34.4336C309.758 34.1992 308.887 33.918 308.238 33.5898C307.598 33.2617 307.121 32.8711 306.809 32.418C306.504 31.9648 306.352 31.4258 306.352 30.8008C306.352 29.7617 306.789 28.8828 307.664 28.1641C308.547 27.4453 309.672 27.0859 311.039 27.0859C312.477 27.0859 313.641 27.457 314.531 28.1992C315.43 28.9414 315.879 29.8906 315.879 31.0469H313.699C313.699 30.4531 313.445 29.9414 312.938 29.5117C312.438 29.082 311.805 28.8672 311.039 28.8672C310.25 28.8672 309.633 29.0391 309.188 29.3828C308.742 29.7266 308.52 30.1758 308.52 30.7305C308.52 31.2539 308.727 31.6484 309.141 31.9141C309.555 32.1797 310.301 32.4336 311.379 32.6758C312.465 32.918 313.344 33.207 314.016 33.543C314.688 33.8789 315.184 34.2852 315.504 34.7617C315.832 35.2305 315.996 35.8047 315.996 36.4844C315.996 37.6172 315.543 38.5273 314.637 39.2148C313.73 39.8945 312.555 40.2344 311.109 40.2344C310.094 40.2344 309.195 40.0547 308.414 39.6953C307.633 39.3359 307.02 38.8359 306.574 38.1953C306.137 37.5469 305.918 36.8477 305.918 36.0977H308.086C308.125 36.8242 308.414 37.4023 308.953 37.832C309.5 38.2539 310.219 38.4648 311.109 38.4648C311.93 38.4648 312.586 38.3008 313.078 37.9727C313.578 37.6367 313.828 37.1914 313.828 36.6367ZM321.762 24.25V27.3203H324.129V28.9961H321.762V36.8594C321.762 37.3672 321.867 37.75 322.078 38.0078C322.289 38.2578 322.648 38.3828 323.156 38.3828C323.406 38.3828 323.75 38.3359 324.188 38.2422V40C323.617 40.1562 323.062 40.2344 322.523 40.2344C321.555 40.2344 320.824 39.9414 320.332 39.3555C319.84 38.7695 319.594 37.9375 319.594 36.8594V28.9961H317.285V27.3203H319.594V24.25H321.762ZM332.801 29.2656C332.473 29.2109 332.117 29.1836 331.734 29.1836C330.312 29.1836 329.348 29.7891 328.84 31V40H326.672V27.3203H328.781L328.816 28.7852C329.527 27.6523 330.535 27.0859 331.84 27.0859C332.262 27.0859 332.582 27.1406 332.801 27.25V29.2656ZM337.16 40H334.992V27.3203H337.16V40ZM334.816 23.957C334.816 23.6055 334.922 23.3086 335.133 23.0664C335.352 22.8242 335.672 22.7031 336.094 22.7031C336.516 22.7031 336.836 22.8242 337.055 23.0664C337.273 23.3086 337.383 23.6055 337.383 23.957C337.383 24.3086 337.273 24.6016 337.055 24.8359C336.836 25.0703 336.516 25.1875 336.094 25.1875C335.672 25.1875 335.352 25.0703 335.133 24.8359C334.922 24.6016 334.816 24.3086 334.816 23.957ZM348.469 40C348.344 39.75 348.242 39.3047 348.164 38.6641C347.156 39.7109 345.953 40.2344 344.555 40.2344C343.305 40.2344 342.277 39.8828 341.473 39.1797C340.676 38.4688 340.277 37.5703 340.277 36.4844C340.277 35.1641 340.777 34.1406 341.777 33.4141C342.785 32.6797 344.199 32.3125 346.02 32.3125H348.129V31.3164C348.129 30.5586 347.902 29.957 347.449 29.5117C346.996 29.0586 346.328 28.832 345.445 28.832C344.672 28.832 344.023 29.0273 343.5 29.418C342.977 29.8086 342.715 30.2812 342.715 30.8359H340.535C340.535 30.2031 340.758 29.5938 341.203 29.0078C341.656 28.4141 342.266 27.9453 343.031 27.6016C343.805 27.2578 344.652 27.0859 345.574 27.0859C347.035 27.0859 348.18 27.4531 349.008 28.1875C349.836 28.9141 350.266 29.918 350.297 31.1992V37.0352C350.297 38.1992 350.445 39.125 350.742 39.8125V40H348.469ZM344.871 38.3477C345.551 38.3477 346.195 38.1719 346.805 37.8203C347.414 37.4688 347.855 37.0117 348.129 36.4492V33.8477H346.43C343.773 33.8477 342.445 34.625 342.445 36.1797C342.445 36.8594 342.672 37.3906 343.125 37.7734C343.578 38.1562 344.16 38.3477 344.871 38.3477ZM355.746 27.3203L355.816 28.9141C356.785 27.6953 358.051 27.0859 359.613 27.0859C362.293 27.0859 363.645 28.5977 363.668 31.6211V40H361.5V31.6094C361.492 30.6953 361.281 30.0195 360.867 29.582C360.461 29.1445 359.824 28.9258 358.957 28.9258C358.254 28.9258 357.637 29.1133 357.105 29.4883C356.574 29.8633 356.16 30.3555 355.863 30.9648V40H353.695V27.3203H355.746ZM374.32 36.6367C374.32 36.0508 374.098 35.5977 373.652 35.2773C373.215 34.9492 372.445 34.668 371.344 34.4336C370.25 34.1992 369.379 33.918 368.73 33.5898C368.09 33.2617 367.613 32.8711 367.301 32.418C366.996 31.9648 366.844 31.4258 366.844 30.8008C366.844 29.7617 367.281 28.8828 368.156 28.1641C369.039 27.4453 370.164 27.0859 371.531 27.0859C372.969 27.0859 374.133 27.457 375.023 28.1992C375.922 28.9414 376.371 29.8906 376.371 31.0469H374.191C374.191 30.4531 373.938 29.9414 373.43 29.5117C372.93 29.082 372.297 28.8672 371.531 28.8672C370.742 28.8672 370.125 29.0391 369.68 29.3828C369.234 29.7266 369.012 30.1758 369.012 30.7305C369.012 31.2539 369.219 31.6484 369.633 31.9141C370.047 32.1797 370.793 32.4336 371.871 32.6758C372.957 32.918 373.836 33.207 374.508 33.543C375.18 33.8789 375.676 34.2852 375.996 34.7617C376.324 35.2305 376.488 35.8047 376.488 36.4844C376.488 37.6172 376.035 38.5273 375.129 39.2148C374.223 39.8945 373.047 40.2344 371.602 40.2344C370.586 40.2344 369.688 40.0547 368.906 39.6953C368.125 39.3359 367.512 38.8359 367.066 38.1953C366.629 37.5469 366.41 36.8477 366.41 36.0977H368.578C368.617 36.8242 368.906 37.4023 369.445 37.832C369.992 38.2539 370.711 38.4648 371.602 38.4648C372.422 38.4648 373.078 38.3008 373.57 37.9727C374.07 37.6367 374.32 37.1914 374.32 36.6367Z" fill="black"/>
<rect id="Rectangle_2" x="380" y="54" width="90" height="20" stroke="#4F4F4F"/>
<path id="cyclist" d="M397.613 38.4648C398.387 38.4648 399.062 38.2305 399.641 37.7617C400.219 37.293 400.539 36.707 400.602 36.0039H402.652C402.613 36.7305 402.363 37.4219 401.902 38.0781C401.441 38.7344 400.824 39.2578 400.051 39.6484C399.285 40.0391 398.473 40.2344 397.613 40.2344C395.887 40.2344 394.512 39.6602 393.488 38.5117C392.473 37.3555 391.965 35.7773 391.965 33.7773V33.4141C391.965 32.1797 392.191 31.082 392.645 30.1211C393.098 29.1602 393.746 28.4141 394.59 27.8828C395.441 27.3516 396.445 27.0859 397.602 27.0859C399.023 27.0859 400.203 27.5117 401.141 28.3633C402.086 29.2148 402.59 30.3203 402.652 31.6797H400.602C400.539 30.8594 400.227 30.1875 399.664 29.6641C399.109 29.1328 398.422 28.8672 397.602 28.8672C396.5 28.8672 395.645 29.2656 395.035 30.0625C394.434 30.8516 394.133 31.9961 394.133 33.4961V33.9062C394.133 35.3672 394.434 36.4922 395.035 37.2812C395.637 38.0703 396.496 38.4648 397.613 38.4648ZM409.238 36.8242L412.191 27.3203H414.512L409.414 41.957C408.625 44.0664 407.371 45.1211 405.652 45.1211L405.242 45.0859L404.434 44.9336V43.1758L405.02 43.2227C405.754 43.2227 406.324 43.0742 406.73 42.7773C407.145 42.4805 407.484 41.9375 407.75 41.1484L408.23 39.8594L403.707 27.3203H406.074L409.238 36.8242ZM421.379 38.4648C422.152 38.4648 422.828 38.2305 423.406 37.7617C423.984 37.293 424.305 36.707 424.367 36.0039H426.418C426.379 36.7305 426.129 37.4219 425.668 38.0781C425.207 38.7344 424.59 39.2578 423.816 39.6484C423.051 40.0391 422.238 40.2344 421.379 40.2344C419.652 40.2344 418.277 39.6602 417.254 38.5117C416.238 37.3555 415.73 35.7773 415.73 33.7773V33.4141C415.73 32.1797 415.957 31.082 416.41 30.1211C416.863 29.1602 417.512 28.4141 418.355 27.8828C419.207 27.3516 420.211 27.0859 421.367 27.0859C422.789 27.0859 423.969 27.5117 424.906 28.3633C425.852 29.2148 426.355 30.3203 426.418 31.6797H424.367C424.305 30.8594 423.992 30.1875 423.43 29.6641C422.875 29.1328 422.188 28.8672 421.367 28.8672C420.266 28.8672 419.41 29.2656 418.801 30.0625C418.199 30.8516 417.898 31.9961 417.898 33.4961V33.9062C417.898 35.3672 418.199 36.4922 418.801 37.2812C419.402 38.0703 420.262 38.4648 421.379 38.4648ZM431.211 40H429.043V22H431.211V40ZM437.047 40H434.879V27.3203H437.047V40ZM434.703 23.957C434.703 23.6055 434.809 23.3086 435.02 23.0664C435.238 22.8242 435.559 22.7031 435.98 22.7031C436.402 22.7031 436.723 22.8242 436.941 23.0664C437.16 23.3086 437.27 23.6055 437.27 23.957C437.27 24.3086 437.16 24.6016 436.941 24.8359C436.723 25.0703 436.402 25.1875 435.98 25.1875C435.559 25.1875 435.238 25.0703 435.02 24.8359C434.809 24.6016 434.703 24.3086 434.703 23.957ZM447.91 36.6367C447.91 36.0508 447.688 35.5977 447.242 35.2773C446.805 34.9492 446.035 34.668 444.934 34.4336C443.84 34.1992 442.969 33.918 442.32 33.5898C441.68 33.2617 441.203 32.8711 440.891 32.418C440.586 31.9648 440.434 31.4258 440.434 30.8008C440.434 29.7617 440.871 28.8828 441.746 28.1641C442.629 27.4453 443.754 27.0859 445.121 27.0859C446.559 27.0859 447.723 27.457 448.613 28.1992C449.512 28.9414 449.961 29.8906 449.961 31.0469H447.781C447.781 30.4531 447.527 29.9414 447.02 29.5117C446.52 29.082 445.887 28.8672 445.121 28.8672C444.332 28.8672 443.715 29.0391 443.27 29.3828C442.824 29.7266 442.602 30.1758 442.602 30.7305C442.602 31.2539 442.809 31.6484 443.223 31.9141C443.637 32.1797 444.383 32.4336 445.461 32.6758C446.547 32.918 447.426 33.207 448.098 33.543C448.77 33.8789 449.266 34.2852 449.586 34.7617C449.914 35.2305 450.078 35.8047 450.078 36.4844C450.078 37.6172 449.625 38.5273 448.719 39.2148C447.812 39.8945 446.637 40.2344 445.191 40.2344C444.176 40.2344 443.277 40.0547 442.496 39.6953C441.715 39.3359 441.102 38.8359 440.656 38.1953C440.219 37.5469 440 36.8477 440 36.0977H442.168C442.207 36.8242 442.496 37.4023 443.035 37.832C443.582 38.2539 444.301 38.4648 445.191 38.4648C446.012 38.4648 446.668 38.3008 447.16 37.9727C447.66 37.6367 447.91 37.1914 447.91 36.6367ZM455.844 24.25V27.3203H458.211V28.9961H455.844V36.8594C455.844 37.3672 455.949 37.75 456.16 38.0078C456.371 38.2578 456.73 38.3828 457.238 38.3828C457.488 38.3828 457.832 38.3359 458.27 38.2422V40C457.699 40.1562 457.145 40.2344 456.605 40.2344C455.637 40.2344 454.906 39.9414 454.414 39.3555C453.922 38.7695 453.676 37.9375 453.676 36.8594V28.9961H451.367V27.3203H453.676V24.25H455.844Z" fill="black"/>
<rect id="Rectangle_3" x="470" y="54" width="112" height="20" stroke="#4F4F4F"/>
<path id="motorist" d="M484.562 27.3203L484.621 28.7266C485.551 27.6328 486.805 27.0859 488.383 27.0859C490.156 27.0859 491.363 27.7656 492.004 29.125C492.426 28.5156 492.973 28.0234 493.645 27.6484C494.324 27.2734 495.125 27.0859 496.047 27.0859C498.828 27.0859 500.242 28.5586 500.289 31.5039V40H498.121V31.6328C498.121 30.7266 497.914 30.0508 497.5 29.6055C497.086 29.1523 496.391 28.9258 495.414 28.9258C494.609 28.9258 493.941 29.168 493.41 29.6523C492.879 30.1289 492.57 30.7734 492.484 31.5859V40H490.305V31.6914C490.305 29.8477 489.402 28.9258 487.598 28.9258C486.176 28.9258 485.203 29.5312 484.68 30.7422V40H482.512V27.3203H484.562ZM502.996 33.543C502.996 32.3008 503.238 31.1836 503.723 30.1914C504.215 29.1992 504.895 28.4336 505.762 27.8945C506.637 27.3555 507.633 27.0859 508.75 27.0859C510.477 27.0859 511.871 27.6836 512.934 28.8789C514.004 30.0742 514.539 31.6641 514.539 33.6484V33.8008C514.539 35.0352 514.301 36.1445 513.824 37.1289C513.355 38.1055 512.68 38.8672 511.797 39.4141C510.922 39.9609 509.914 40.2344 508.773 40.2344C507.055 40.2344 505.66 39.6367 504.59 38.4414C503.527 37.2461 502.996 35.6641 502.996 33.6953V33.543ZM505.176 33.8008C505.176 35.207 505.5 36.3359 506.148 37.1875C506.805 38.0391 507.68 38.4648 508.773 38.4648C509.875 38.4648 510.75 38.0352 511.398 37.1758C512.047 36.3086 512.371 35.0977 512.371 33.543C512.371 32.1523 512.039 31.0273 511.375 30.168C510.719 29.3008 509.844 28.8672 508.75 28.8672C507.68 28.8672 506.816 29.293 506.16 30.1445C505.504 30.9961 505.176 32.2148 505.176 33.8008ZM520.199 24.25V27.3203H522.566V28.9961H520.199V36.8594C520.199 37.3672 520.305 37.75 520.516 38.0078C520.727 38.2578 521.086 38.3828 521.594 38.3828C521.844 38.3828 522.188 38.3359 522.625 38.2422V40C522.055 40.1562 521.5 40.2344 520.961 40.2344C519.992 40.2344 519.262 39.9414 518.77 39.3555C518.277 38.7695 518.031 37.9375 518.031 36.8594V28.9961H515.723V27.3203H518.031V24.25H520.199ZM524.301 33.543C524.301 32.3008 524.543 31.1836 525.027 30.1914C525.52 29.1992 526.199 28.4336 527.066 27.8945C527.941 27.3555 528.938 27.0859 530.055 27.0859C531.781 27.0859 533.176 27.6836 534.238 28.8789C535.309 30.0742 535.844 31.6641 535.844 33.6484V33.8008C535.844 35.0352 535.605 36.1445 535.129 37.1289C534.66 38.1055 533.984 38.8672 533.102 39.4141C532.227 39.9609 531.219 40.2344 530.078 40.2344C528.359 40.2344 526.965 39.6367 525.895 38.4414C524.832 37.2461 524.301 35.6641 524.301 33.6953V33.543ZM526.48 33.8008C526.48 35.207 526.805 36.3359 527.453 37.1875C528.109 38.0391 528.984 38.4648 530.078 38.4648C531.18 38.4648 532.055 38.0352 532.703 37.1758C533.352 36.3086 533.676 35.0977 533.676 33.543C533.676 32.1523 533.344 31.0273 532.68 30.168C532.023 29.3008 531.148 28.8672 530.055 28.8672C528.984 28.8672 528.121 29.293 527.465 30.1445C526.809 30.9961 526.48 32.2148 526.48 33.8008ZM544.691 29.2656C544.363 29.2109 544.008 29.1836 543.625 29.1836C542.203 29.1836 541.238 29.7891 540.73 31V40H538.562V27.3203H540.672L540.707 28.7852C541.418 27.6523 542.426 27.0859 543.73 27.0859C544.152 27.0859 544.473 27.1406 544.691 27.25V29.2656ZM549.051 40H546.883V27.3203H549.051V40ZM546.707 23.957C546.707 23.6055 546.812 23.3086 547.023 23.0664C547.242 22.8242 547.562 22.7031 547.984 22.7031C548.406 22.7031 548.727 22.8242 548.945 23.0664C549.164 23.3086 549.273 23.6055 549.273 23.957C549.273 24.3086 549.164 24.6016 548.945 24.8359C548.727 25.0703 548.406 25.1875 547.984 25.1875C547.562 25.1875 547.242 25.0703 547.023 24.8359C546.812 24.6016 546.707 24.3086 546.707 23.957ZM559.914 36.6367C559.914 36.0508 559.691 35.5977 559.246 35.2773C558.809 34.9492 558.039 34.668 556.938 34.4336C555.844 34.1992 554.973 33.918 554.324 33.5898C553.684 33.2617 553.207 32.8711 552.895 32.418C552.59 31.9648 552.438 31.4258 552.438 30.8008C552.438 29.7617 552.875 28.8828 553.75 28.1641C554.633 27.4453 555.758 27.0859 557.125 27.0859C558.562 27.0859 559.727 27.457 560.617 28.1992C561.516 28.9414 561.965 29.8906 561.965 31.0469H559.785C559.785 30.4531 559.531 29.9414 559.023 29.5117C558.523 29.082 557.891 28.8672 557.125 28.8672C556.336 28.8672 555.719 29.0391 555.273 29.3828C554.828 29.7266 554.605 30.1758 554.605 30.7305C554.605 31.2539 554.812 31.6484 555.227 31.9141C555.641 32.1797 556.387 32.4336 557.465 32.6758C558.551 32.918 559.43 33.207 560.102 33.543C560.773 33.8789 561.27 34.2852 561.59 34.7617C561.918 35.2305 562.082 35.8047 562.082 36.4844C562.082 37.6172 561.629 38.5273 560.723 39.2148C559.816 39.8945 558.641 40.2344 557.195 40.2344C556.18 40.2344 555.281 40.0547 554.5 39.6953C553.719 39.3359 553.105 38.8359 552.66 38.1953C552.223 37.5469 552.004 36.8477 552.004 36.0977H554.172C554.211 36.8242 554.5 37.4023 555.039 37.832C555.586 38.2539 556.305 38.4648 557.195 38.4648C558.016 38.4648 558.672 38.3008 559.164 37.9727C559.664 37.6367 559.914 37.1914 559.914 36.6367ZM567.848 24.25V27.3203H570.215V28.9961H567.848V36.8594C567.848 37.3672 567.953 37.75 568.164 38.0078C568.375 38.2578 568.734 38.3828 569.242 38.3828C569.492 38.3828 569.836 38.3359 570.273 38.2422V40C569.703 40.1562 569.148 40.2344 568.609 40.2344C567.641 40.2344 566.91 39.9414 566.418 39.3555C565.926 38.7695 565.68 37.9375 565.68 36.8594V28.9961H563.371V27.3203H565.68V24.25H567.848Z" fill="black"/>
<rect id="Rectangle_4" x="250" y="74" width="130" height="20" stroke="#4F4F4F"/>
<rect id="Rectangle_5" x="380" y="74" width="90" height="20" stroke="#4F4F4F"/>
<rect id="Rectangle_6" x="470" y="74" width="112" height="20" stroke="#4F4F4F"/>
<rect id="Rectangle_7" x="250" y="94" width="130" height="20" stroke="#4F4F4F"/>
<rect id="Rectangle_8" x="380" y="94" width="90" height="20" stroke="#4F4F4F"/>
<rect id="Rectangle_9" x="470" y="94" width="112" height="20" stroke="#4F4F4F"/>
<rect id="Rectangle_10" x="250" y="114" width="130" height="20" stroke="#4F4F4F"/>
<rect id="Rectangle_11" x="380" y="114" width="90" height="20" stroke="#4F4F4F"/>
<rect id="Rectangle_12" x="470" y="114" width="112" height="20" stroke="#4F4F4F"/>
<rect id="Rectangle_13" x="250" y="134" width="130" height="20" stroke="#4F4F4F"/>
<rect id="Rectangle_14" x="380" y="134" width="90" height="20" stroke="#4F4F4F"/>
<rect id="Rectangle_15" x="470" y="134" width="112" height="20" stroke="#4F4F4F"/>
<rect id="Rectangle_16" x="250" y="154" width="130" height="20" stroke="#4F4F4F"/>
<rect id="Rectangle_17" x="380" y="154" width="90" height="20" stroke="#4F4F4F"/>
<rect id="Rectangle_18" x="470" y="154" width="112" height="20" stroke="#4F4F4F"/>
<rect id="Rectangle_19" x="250" y="174" width="130" height="20" stroke="#4F4F4F"/>
<rect id="Rectangle_20" x="380" y="174" width="90" height="20" stroke="#4F4F4F"/>
<rect id="Rectangle_21" x="470" y="174" width="112" height="20" stroke="#4F4F4F"/>
<rect id="Rectangle_22" x="250" y="194" width="130" height="20" stroke="#4F4F4F"/>
<rect id="Rectangle_23" x="380" y="194" width="90" height="20" stroke="#4F4F4F"/>
<rect id="Rectangle_24" x="470" y="194" width="112" height="20" stroke="#4F4F4F"/>
<rect id="Rectangle_25" x="718" y="54" width="152" height="20" stroke="#0072B2"/>
<path id="manual_sum" d="M729.195 27.3203L729.254 28.7266C730.184 27.6328 731.438 27.0859 733.016 27.0859C734.789 27.0859 735.996 27.7656 736.637 29.125C737.059 28.5156 737.605 28.0234 738.277 27.6484C738.957 27.2734 739.758 27.0859 740.68 27.0859C743.461 27.0859 744.875 28.5586 744.922 31.5039V40H742.754V31.6328C742.754 30.7266 742.547 30.0508 742.133 29.6055C741.719 29.1523 741.023 28.9258 740.047 28.9258C739.242 28.9258 738.574 29.168 738.043 29.6523C737.512 30.1289 737.203 30.7734 737.117 31.5859V40H734.938V31.6914C734.938 29.8477 734.035 28.9258 732.23 28.9258C730.809 28.9258 729.836 29.5312 729.312 30.7422V40H727.145V27.3203H729.195ZM756.031 40C755.906 39.75 755.805 39.3047 755.727 38.6641C754.719 39.7109 753.516 40.2344 752.117 40.2344C750.867 40.2344 749.84 39.8828 749.035 39.1797C748.238 38.4688 747.84 37.5703 747.84 36.4844C747.84 35.1641 748.34 34.1406 749.34 33.4141C750.348 32.6797 751.762 32.3125 753.582 32.3125H755.691V31.3164C755.691 30.5586 755.465 29.957 755.012 29.5117C754.559 29.0586 753.891 28.832 753.008 28.832C752.234 28.832 751.586 29.0273 751.062 29.418C750.539 29.8086 750.277 30.2812 750.277 30.8359H748.098C748.098 30.2031 748.32 29.5938 748.766 29.0078C749.219 28.4141 749.828 27.9453 750.594 27.6016C751.367 27.2578 752.215 27.0859 753.137 27.0859C754.598 27.0859 755.742 27.4531 756.57 28.1875C757.398 28.9141 757.828 29.918 757.859 31.1992V37.0352C757.859 38.1992 758.008 39.125 758.305 39.8125V40H756.031ZM752.434 38.3477C753.113 38.3477 753.758 38.1719 754.367 37.8203C754.977 37.4688 755.418 37.0117 755.691 36.4492V33.8477H753.992C751.336 33.8477 750.008 34.625 750.008 36.1797C750.008 36.8594 750.234 37.3906 750.688 37.7734C751.141 38.1562 751.723 38.3477 752.434 38.3477ZM763.309 27.3203L763.379 28.9141C764.348 27.6953 765.613 27.0859 767.176 27.0859C769.855 27.0859 771.207 28.5977 771.23 31.6211V40H769.062V31.6094C769.055 30.6953 768.844 30.0195 768.43 29.582C768.023 29.1445 767.387 28.9258 766.52 28.9258C765.816 28.9258 765.199 29.1133 764.668 29.4883C764.137 29.8633 763.723 30.3555 763.426 30.9648V40H761.258V27.3203H763.309ZM782.328 38.7461C781.484 39.7383 780.246 40.2344 778.613 40.2344C777.262 40.2344 776.23 39.8438 775.52 39.0625C774.816 38.2734 774.461 37.1094 774.453 35.5703V27.3203H776.621V35.5117C776.621 37.4336 777.402 38.3945 778.965 38.3945C780.621 38.3945 781.723 37.7773 782.27 36.543V27.3203H784.438V40H782.375L782.328 38.7461ZM795.57 40C795.445 39.75 795.344 39.3047 795.266 38.6641C794.258 39.7109 793.055 40.2344 791.656 40.2344C790.406 40.2344 789.379 39.8828 788.574 39.1797C787.777 38.4688 787.379 37.5703 787.379 36.4844C787.379 35.1641 787.879 34.1406 788.879 33.4141C789.887 32.6797 791.301 32.3125 793.121 32.3125H795.23V31.3164C795.23 30.5586 795.004 29.957 794.551 29.5117C794.098 29.0586 793.43 28.832 792.547 28.832C791.773 28.832 791.125 29.0273 790.602 29.418C790.078 29.8086 789.816 30.2812 789.816 30.8359H787.637C787.637 30.2031 787.859 29.5938 788.305 29.0078C788.758 28.4141 789.367 27.9453 790.133 27.6016C790.906 27.2578 791.754 27.0859 792.676 27.0859C794.137 27.0859 795.281 27.4531 796.109 28.1875C796.938 28.9141 797.367 29.918 797.398 31.1992V37.0352C797.398 38.1992 797.547 39.125 797.844 39.8125V40H795.57ZM791.973 38.3477C792.652 38.3477 793.297 38.1719 793.906 37.8203C794.516 37.4688 794.957 37.0117 795.23 36.4492V33.8477H793.531C790.875 33.8477 789.547 34.625 789.547 36.1797C789.547 36.8594 789.773 37.3906 790.227 37.7734C790.68 38.1562 791.262 38.3477 791.973 38.3477ZM803.152 40H800.984V22H803.152V40ZM815.773 41.7695H805.039V40H815.773V41.7695ZM824.844 36.6367C824.844 36.0508 824.621 35.5977 824.176 35.2773C823.738 34.9492 822.969 34.668 821.867 34.4336C820.773 34.1992 819.902 33.918 819.254 33.5898C818.613 33.2617 818.137 32.8711 817.824 32.418C817.52 31.9648 817.367 31.4258 817.367 30.8008C817.367 29.7617 817.805 28.8828 818.68 28.1641C819.562 27.4453 820.688 27.0859 822.055 27.0859C823.492 27.0859 824.656 27.457 825.547 28.1992C826.445 28.9414 826.895 29.8906 826.895 31.0469H824.715C824.715 30.4531 824.461 29.9414 823.953 29.5117C823.453 29.082 822.82 28.8672 822.055 28.8672C821.266 28.8672 820.648 29.0391 820.203 29.3828C819.758 29.7266 819.535 30.1758 819.535 30.7305C819.535 31.2539 819.742 31.6484 820.156 31.9141C820.57 32.1797 821.316 32.4336 822.395 32.6758C823.48 32.918 824.359 33.207 825.031 33.543C825.703 33.8789 826.199 34.2852 826.52 34.7617C826.848 35.2305 827.012 35.8047 827.012 36.4844C827.012 37.6172 826.559 38.5273 825.652 39.2148C824.746 39.8945 823.57 40.2344 822.125 40.2344C821.109 40.2344 820.211 40.0547 819.43 39.6953C818.648 39.3359 818.035 38.8359 817.59 38.1953C817.152 37.5469 816.934 36.8477 816.934 36.0977H819.102C819.141 36.8242 819.43 37.4023 819.969 37.832C820.516 38.2539 821.234 38.4648 822.125 38.4648C822.945 38.4648 823.602 38.3008 824.094 37.9727C824.594 37.6367 824.844 37.1914 824.844 36.6367ZM837.664 38.7461C836.82 39.7383 835.582 40.2344 833.949 40.2344C832.598 40.2344 831.566 39.8438 830.855 39.0625C830.152 38.2734 829.797 37.1094 829.789 35.5703V27.3203H831.957V35.5117C831.957 37.4336 832.738 38.3945 834.301 38.3945C835.957 38.3945 837.059 37.7773 837.605 36.543V27.3203H839.773V40H837.711L837.664 38.7461ZM845.117 27.3203L845.176 28.7266C846.105 27.6328 847.359 27.0859 848.938 27.0859C850.711 27.0859 851.918 27.7656 852.559 29.125C852.98 28.5156 853.527 28.0234 854.199 27.6484C854.879 27.2734 855.68 27.0859 856.602 27.0859C859.383 27.0859 860.797 28.5586 860.844 31.5039V40H858.676V31.6328C858.676 30.7266 858.469 30.0508 858.055 29.6055C857.641 29.1523 856.945 28.9258 855.969 28.9258C855.164 28.9258 854.496 29.168 853.965 29.6523C853.434 30.1289 853.125 30.7734 853.039 31.5859V40H850.859V31.6914C850.859 29.8477 849.957 28.9258 848.152 28.9258C846.73 28.9258 845.758 29.5312 845.234 30.7422V40H843.066V27.3203H845.117Z" fill="#0072B2"/>
<rect id="Rectangle_26" x="718" y="74" width="152" height="20" stroke="#0072B2"/>
<rect id="Rectangle_27" x="718" y="94" width="152" height="20" stroke="#0072B2"/>
<rect id="Rectangle_28" x="718" y="114" width="152" height="20" stroke="#0072B2"/>
<rect id="Rectangle_29" x="718" y="134" width="152" height="20" stroke="#0072B2"/>
<rect id="Rectangle_30" x="718" y="154" width="152" height="20" stroke="#0072B2"/>
<rect id="Rectangle_31" x="718" y="174" width="152" height="20" stroke="#0072B2"/>
<rect id="Rectangle_32" x="718" y="194" width="152" height="20" stroke="#0072B2"/>
<path id="Arrow" d="M697.414 135.414C698.195 134.633 698.195 133.367 697.414 132.586L684.686 119.858C683.905 119.077 682.639 119.077 681.858 119.858C681.077 120.639 681.077 121.905 681.858 122.686L693.172 134L681.858 145.314C681.077 146.095 681.077 147.361 681.858 148.142C682.639 148.923 683.905 148.923 684.686 148.142L697.414 135.414ZM604 136H696V132H604V136Z" fill="black"/>
<path id="sum()" d="M616.759 114.928C617.431 115.392 618.135 115.768 618.871 116.056C619.607 116.328 620.463 116.464 621.439 116.464C622.447 116.464 623.183 116.312 623.647 116.008C624.111 115.704 624.343 115.32 624.343 114.856C624.343 114.424 624.063 114.048 623.503 113.728C622.943 113.408 622.015 113.088 620.719 112.768C620.143 112.624 619.583 112.448 619.039 112.24C618.511 112.032 618.047 111.792 617.647 111.52C617.247 111.232 616.927 110.92 616.687 110.584C616.447 110.232 616.327 109.84 616.327 109.408C616.327 108.912 616.431 108.456 616.639 108.04C616.863 107.624 617.191 107.264 617.623 106.96C618.055 106.656 618.583 106.416 619.207 106.24C619.831 106.064 620.551 105.976 621.367 105.976C622.295 105.976 623.175 106.136 624.007 106.456C624.855 106.76 625.575 107.112 626.167 107.512L625.063 109C624.535 108.648 623.967 108.36 623.359 108.136C622.751 107.912 622.095 107.8 621.391 107.8C620.399 107.8 619.703 107.944 619.303 108.232C618.919 108.52 618.727 108.872 618.727 109.288C618.727 109.736 619.047 110.104 619.687 110.392C620.327 110.68 621.151 110.952 622.159 111.208C623.631 111.576 624.759 112.024 625.543 112.552C626.343 113.064 626.743 113.784 626.743 114.712C626.743 115.208 626.623 115.672 626.383 116.104C626.143 116.536 625.791 116.92 625.327 117.256C624.879 117.576 624.319 117.824 623.647 118C622.991 118.192 622.231 118.288 621.367 118.288C620.247 118.288 619.191 118.112 618.199 117.76C617.207 117.392 616.351 116.96 615.631 116.464L616.759 114.928ZM640.654 118H638.71L638.518 116.056H638.422C637.846 116.728 637.214 117.272 636.526 117.688C635.854 118.088 635.07 118.288 634.174 118.288C632.782 118.288 631.766 117.888 631.126 117.088C630.486 116.272 630.166 115.088 630.166 113.536V106.264H632.542V113.224C632.542 114.264 632.726 115.032 633.094 115.528C633.462 116.008 634.094 116.248 634.99 116.248C635.598 116.248 636.15 116.104 636.646 115.816C637.158 115.512 637.702 115.008 638.278 114.304V106.264H640.654V118ZM644.101 106.264H645.925L646.117 107.8H646.189C646.461 107.272 646.789 106.84 647.173 106.504C647.573 106.152 648.109 105.976 648.781 105.976C649.949 105.976 650.677 106.64 650.965 107.968C651.285 107.376 651.653 106.896 652.069 106.528C652.485 106.16 653.021 105.976 653.677 105.976C654.493 105.976 655.125 106.296 655.573 106.936C656.021 107.56 656.245 108.464 656.245 109.648V118H653.989V109.84C653.989 108.64 653.621 108.04 652.885 108.04C652.517 108.04 652.197 108.176 651.925 108.448C651.653 108.704 651.381 109.104 651.109 109.648V118H649.237V109.84C649.237 108.64 648.853 108.04 648.085 108.04C647.717 108.04 647.405 108.176 647.149 108.448C646.893 108.704 646.629 109.104 646.357 109.648V118H644.101V106.264ZM667.323 122.224C665.675 120.912 664.379 119.352 663.435 117.544C662.491 115.72 662.019 113.648 662.019 111.328C662.019 109.008 662.491 106.944 663.435 105.136C664.379 103.312 665.675 101.744 667.323 100.432L668.643 101.56C667.075 102.936 665.923 104.416 665.187 106C664.451 107.568 664.083 109.344 664.083 111.328C664.083 113.312 664.451 115.096 665.187 116.68C665.923 118.264 667.075 119.736 668.643 121.096L667.323 122.224ZM674.538 121.096C676.09 119.736 677.234 118.264 677.97 116.68C678.722 115.096 679.098 113.312 679.098 111.328C679.098 109.344 678.722 107.568 677.97 106C677.234 104.416 676.09 102.936 674.538 101.56L675.858 100.432C677.506 101.744 678.802 103.312 679.746 105.136C680.69 106.944 681.162 109.008 681.162 111.328C681.162 113.648 680.69 115.72 679.746 117.544C678.802 119.352 677.506 120.912 675.858 122.224L674.538 121.096Z" fill="black"/>
</g>
</svg>
