<svg width="800" height="268" viewBox="0 0 800 268" version="1.1" xmlns="http://www.w3.org/2000/svg" xmlns:xlink="http://www.w3.org/1999/xlink">
<title>Frame</title>
<desc>Created using Figma</desc>
<g id="Canvas" transform="matrix(2 0 0 2 50 346)">
<clipPath id="clip-0" clip-rule="evenodd">
<path d="M -25 -173L 375 -173L 375 -39L -25 -39L -25 -173Z" fill="#FFFFFF"/>
</clipPath>
<g id="Frame" clip-path="url(#clip-0)">
<path d="M -25 -173L 375 -173L 375 -39L -25 -39L -25 -173Z" fill="#FFFFFF"/>
<g id="Rectangle">
<use xlink:href="#path0_stroke" transform="translate(263 -157)"/>
</g>
<g id="Rectangle">
<use xlink:href="#path0_stroke" transform="translate(263 -135.3)"/>
</g>
<g id="Rectangle">
<use xlink:href="#path0_stroke" transform="translate(263 -113.601)"/>
</g>
<g id="0">
<use xlink:href="#path1_fill" transform="translate(253 -152)" fill="#828282"/>
</g>
<g id="0">
<use xlink:href="#path2_fill" transform="translate(267 -152)" fill="#333333"/>
</g>
<g id="0">
<use xlink:href="#path2_fill" transform="translate(267 -131)" fill="#333333"/>
</g>
<g id="0">
<use xlink:href="#path2_fill" transform="translate(267 -109)" fill="#333333"/>
</g>
<g id="0">
<use xlink:href="#path3_fill" transform="translate(267 -88)" fill="#333333"/>
</g>
<g id="0">
<use xlink:href="#path2_fill" transform="translate(267 -66)" fill="#333333"/>
</g>
<g id="1">
<use xlink:href="#path4_fill" transform="translate(253 -131)" fill="#828282"/>
</g>
<g id="2">
<use xlink:href="#path5_fill" transform="translate(253 -109)" fill="#828282"/>
</g>
<g id="Rectangle">
<use xlink:href="#path0_stroke" transform="translate(263 -91.7756)"/>
</g>
<g id="Rectangle">
<use xlink:href="#path0_stroke" transform="translate(263 -70.0759)"/>
</g>
<g id="3">
<use xlink:href="#path6_fill" transform="translate(253 -87.625)" fill="#828282"/>
</g>
<g id="4">
<use xlink:href="#path7_fill" transform="translate(253 -65.625)" fill="#828282"/>
</g>
<g id="code">
<g id="Rectangle">
<use xlink:href="#path8_fill" transform="translate(-22 -137)" fill="#F1F4F8"/>
</g>
<g id="(laptops[&#34;gpu&#34;] .head() .str.split(n=1, expand=True) .iloc[:, 0] )">
<use xlink:href="#path9_fill" transform="translate(-17.8367 -134.844)" fill="#2E383C"/>
<use xlink:href="#path10_fill" transform="translate(-17.8367 -134.844)" fill="#B82629"/>
<use xlink:href="#path11_fill" transform="translate(-17.8367 -134.844)" fill="#0C570A"/>
<use xlink:href="#path12_fill" transform="translate(-17.8367 -134.844)" fill="#333333"/>
</g>
</g>
</g>
</g>
<defs>
<path id="path0_stroke" d="M 0 0L 0 -0.5L -0.5 -0.5L -0.5 0L 0 0ZM 33 0L 33.5 0L 33.5 -0.5L 33 -0.5L 33 0ZM 33 22.0759L 33 22.5759L 33.5 22.5759L 33.5 22.0759L 33 22.0759ZM 0 22.0759L -0.5 22.0759L -0.5 22.5759L 0 22.5759L 0 22.0759ZM 0 0.5L 33 0.5L 33 -0.5L 0 -0.5L 0 0.5ZM 32.5 0L 32.5 22.0759L 33.5 22.0759L 33.5 0L 32.5 0ZM 33 21.5759L 0 21.5759L 0 22.5759L 33 22.5759L 33 21.5759ZM 0.5 22.0759L 0.5 0L -0.5 0L -0.5 22.0759L 0.5 22.0759Z"/>
<path id="path1_fill" d="M 6.05859 7.36133C 6.05859 8.63086 5.8418 9.57422 5.4082 10.1914C 4.97461 10.8086 4.29688 11.1172 3.375 11.1172C 2.46484 11.1172 1.79102 10.8164 1.35352 10.2148C 0.916016 9.60938 0.689453 8.70703 0.673828 7.50781L 0.673828 6.06055C 0.673828 4.80664 0.890625 3.875 1.32422 3.26562C 1.75781 2.65625 2.4375 2.35156 3.36328 2.35156C 4.28125 2.35156 4.95703 2.64648 5.39062 3.23633C 5.82422 3.82227 6.04688 4.72852 6.05859 5.95508L 6.05859 7.36133ZM 4.97461 5.87891C 4.97461 4.96094 4.8457 4.29297 4.58789 3.875C 4.33008 3.45312 3.92188 3.24219 3.36328 3.24219C 2.80859 3.24219 2.4043 3.45117 2.15039 3.86914C 1.89648 4.28711 1.76562 4.92969 1.75781 5.79688L 1.75781 7.53125C 1.75781 8.45312 1.89062 9.13477 2.15625 9.57617C 2.42578 10.0137 2.83203 10.2324 3.375 10.2324C 3.91016 10.2324 4.30664 10.0254 4.56445 9.61133C 4.82617 9.19727 4.96289 8.54492 4.97461 7.6543L 4.97461 5.87891Z"/>
<path id="path2_fill" d="M 2.19727 11L 1.07227 11L 1.07227 2.46875L 2.19727 2.46875L 2.19727 11ZM 5.11523 4.66016L 5.15039 5.45703C 5.63477 4.84766 6.26758 4.54297 7.04883 4.54297C 8.38867 4.54297 9.06445 5.29883 9.07617 6.81055L 9.07617 11L 7.99219 11L 7.99219 6.80469C 7.98828 6.34766 7.88281 6.00977 7.67578 5.79102C 7.47266 5.57227 7.1543 5.46289 6.7207 5.46289C 6.36914 5.46289 6.06055 5.55664 5.79492 5.74414C 5.5293 5.93164 5.32227 6.17773 5.17383 6.48242L 5.17383 11L 4.08984 11L 4.08984 4.66016L 5.11523 4.66016ZM 12.1816 3.125L 12.1816 4.66016L 13.3652 4.66016L 13.3652 5.49805L 12.1816 5.49805L 12.1816 9.42969C 12.1816 9.68359 12.2344 9.875 12.3398 10.0039C 12.4453 10.1289 12.625 10.1914 12.8789 10.1914C 13.0039 10.1914 13.1758 10.168 13.3945 10.1211L 13.3945 11C 13.1094 11.0781 12.832 11.1172 12.5625 11.1172C 12.0781 11.1172 11.7129 10.9707 11.4668 10.6777C 11.2207 10.3848 11.0977 9.96875 11.0977 9.42969L 11.0977 5.49805L 9.94336 5.49805L 9.94336 4.66016L 11.0977 4.66016L 11.0977 3.125L 12.1816 3.125ZM 17.2676 11.1172C 16.4082 11.1172 15.709 10.8359 15.1699 10.2734C 14.6309 9.70703 14.3613 8.95117 14.3613 8.00586L 14.3613 7.80664C 14.3613 7.17773 14.4805 6.61719 14.7188 6.125C 14.9609 5.62891 15.2969 5.24219 15.7266 4.96484C 16.1602 4.68359 16.6289 4.54297 17.1328 4.54297C 17.957 4.54297 18.5977 4.81445 19.0547 5.35742C 19.5117 5.90039 19.7402 6.67773 19.7402 7.68945L 19.7402 8.14062L 15.4453 8.14062C 15.4609 8.76562 15.6426 9.27148 15.9902 9.6582C 16.3418 10.041 16.7871 10.2324 17.3262 10.2324C 17.709 10.2324 18.0332 10.1543 18.2988 9.99805C 18.5645 9.8418 18.7969 9.63477 18.9961 9.37695L 19.6582 9.89258C 19.127 10.709 18.3301 11.1172 17.2676 11.1172ZM 17.1328 5.43359C 16.6953 5.43359 16.3281 5.59375 16.0312 5.91406C 15.7344 6.23047 15.5508 6.67578 15.4805 7.25L 18.6562 7.25L 18.6562 7.16797C 18.625 6.61719 18.4766 6.19141 18.2109 5.89062C 17.9453 5.58594 17.5859 5.43359 17.1328 5.43359ZM 22.1777 11L 21.0938 11L 21.0938 2L 22.1777 2L 22.1777 11Z"/>
<path id="path3_fill" d="M 5.70117 8.77344L 2.12695 8.77344L 1.32422 11L 0.164062 11L 3.42188 2.46875L 4.40625 2.46875L 7.66992 11L 6.51562 11L 5.70117 8.77344ZM 2.4668 7.84766L 5.36719 7.84766L 3.91406 3.85742L 2.4668 7.84766ZM 10.2715 2.46875L 13.0605 9.42969L 15.8496 2.46875L 17.3086 2.46875L 17.3086 11L 16.1836 11L 16.1836 7.67773L 16.2891 4.0918L 13.4883 11L 12.627 11L 9.83203 4.10938L 9.94336 7.67773L 9.94336 11L 8.81836 11L 8.81836 2.46875L 10.2715 2.46875ZM 19.2949 11L 19.2949 2.46875L 21.7031 2.46875C 22.4453 2.46875 23.1016 2.63281 23.6719 2.96094C 24.2422 3.28906 24.6816 3.75586 24.9902 4.36133C 25.3027 4.9668 25.4609 5.66211 25.4648 6.44727L 25.4648 6.99219C 25.4648 7.79688 25.3086 8.50195 24.9961 9.10742C 24.6875 9.71289 24.2441 10.1777 23.666 10.502C 23.0918 10.8262 22.4219 10.9922 21.6562 11L 19.2949 11ZM 20.4199 3.39453L 20.4199 10.0801L 21.6035 10.0801C 22.4707 10.0801 23.1445 9.81055 23.625 9.27148C 24.1094 8.73242 24.3516 7.96484 24.3516 6.96875L 24.3516 6.4707C 24.3516 5.50195 24.123 4.75 23.666 4.21484C 23.2129 3.67578 22.5684 3.40234 21.7324 3.39453L 20.4199 3.39453Z"/>
<path id="path4_fill" d="M 4.27148 11L 3.18164 11L 3.18164 3.77539L 0.996094 4.57812L 0.996094 3.59375L 4.10156 2.42773L 4.27148 2.42773L 4.27148 11Z"/>
<path id="path5_fill" d="M 6.29883 11L 0.708984 11L 0.708984 10.2207L 3.66211 6.93945C 4.09961 6.44336 4.40039 6.04102 4.56445 5.73242C 4.73242 5.41992 4.81641 5.09766 4.81641 4.76562C 4.81641 4.32031 4.68164 3.95508 4.41211 3.66992C 4.14258 3.38477 3.7832 3.24219 3.33398 3.24219C 2.79492 3.24219 2.375 3.39648 2.07422 3.70508C 1.77734 4.00977 1.62891 4.43555 1.62891 4.98242L 0.544922 4.98242C 0.544922 4.19727 0.796875 3.5625 1.30078 3.07812C 1.80859 2.59375 2.48633 2.35156 3.33398 2.35156C 4.12695 2.35156 4.75391 2.56055 5.21484 2.97852C 5.67578 3.39258 5.90625 3.94531 5.90625 4.63672C 5.90625 5.47656 5.37109 6.47656 4.30078 7.63672L 2.01562 10.1152L 6.29883 10.1152L 6.29883 11Z"/>
<path id="path6_fill" d="M 2.28516 6.20703L 3.09961 6.20703C 3.61133 6.19922 4.01367 6.06445 4.30664 5.80273C 4.59961 5.54102 4.74609 5.1875 4.74609 4.74219C 4.74609 3.74219 4.24805 3.24219 3.25195 3.24219C 2.7832 3.24219 2.4082 3.37695 2.12695 3.64648C 1.84961 3.91211 1.71094 4.26562 1.71094 4.70703L 0.626953 4.70703C 0.626953 4.03125 0.873047 3.4707 1.36523 3.02539C 1.86133 2.57617 2.49023 2.35156 3.25195 2.35156C 4.05664 2.35156 4.6875 2.56445 5.14453 2.99023C 5.60156 3.41602 5.83008 4.00781 5.83008 4.76562C 5.83008 5.13672 5.70898 5.49609 5.4668 5.84375C 5.22852 6.19141 4.90234 6.45117 4.48828 6.62305C 4.95703 6.77148 5.31836 7.01758 5.57227 7.36133C 5.83008 7.70508 5.95898 8.125 5.95898 8.62109C 5.95898 9.38672 5.70898 9.99414 5.20898 10.4434C 4.70898 10.8926 4.05859 11.1172 3.25781 11.1172C 2.45703 11.1172 1.80469 10.9004 1.30078 10.4668C 0.800781 10.0332 0.550781 9.46094 0.550781 8.75L 1.64062 8.75C 1.64062 9.19922 1.78711 9.55859 2.08008 9.82812C 2.37305 10.0977 2.76562 10.2324 3.25781 10.2324C 3.78125 10.2324 4.18164 10.0957 4.45898 9.82227C 4.73633 9.54883 4.875 9.15625 4.875 8.64453C 4.875 8.14844 4.72266 7.76758 4.41797 7.50195C 4.11328 7.23633 3.67383 7.09961 3.09961 7.0918L 2.28516 7.0918L 2.28516 6.20703Z"/>
<path id="path7_fill" d="M 5.28516 8.13477L 6.46875 8.13477L 6.46875 9.01953L 5.28516 9.01953L 5.28516 11L 4.19531 11L 4.19531 9.01953L 0.310547 9.01953L 0.310547 8.38086L 4.13086 2.46875L 5.28516 2.46875L 5.28516 8.13477ZM 1.54102 8.13477L 4.19531 8.13477L 4.19531 3.95117L 4.06641 4.18555L 1.54102 8.13477Z"/>
<path id="path8_fill" d="M 0 0L 204 0L 204 69L 0 69L 0 0Z"/>
<path id="path9_fill" d="M 4.12 12.77C 3.44667 12.21 2.91333 11.55 2.52 10.79C 2.13333 10.03 1.94 9.17333 1.94 8.22C 1.94 7.26667 2.13333 6.41 2.52 5.65C 2.91333 4.89 3.44667 4.23 4.12 3.67L 4.76 4.2C 4.12667 4.77333 3.66333 5.38333 3.37 6.03C 3.07667 6.67667 2.93 7.40667 2.93 8.22C 2.93 9.03333 3.07667 9.76333 3.37 10.41C 3.66333 11.0567 4.12667 11.6667 4.76 12.24L 4.12 12.77ZM 6.70609 3.94L 9.40609 3.94L 9.40609 9.27C 9.40609 9.60333 9.48943 9.84 9.65609 9.98C 9.82276 10.1133 10.0328 10.18 10.2861 10.18C 10.5261 10.18 10.8061 10.1167 11.1261 9.99L 11.3961 10.84C 11.1628 10.92 10.9428 10.9867 10.7361 11.04C 10.5361 11.0933 10.2928 11.12 10.0061 11.12C 9.42609 11.12 8.98943 10.9533 8.69609 10.62C 8.40276 10.2867 8.25609 9.81667 8.25609 9.21L 8.25609 4.85L 6.70609 4.85L 6.70609 3.94ZM 12.7022 9.68C 12.7022 9.40667 12.7655 9.16667 12.8922 8.96C 13.0189 8.74667 13.2189 8.56667 13.4922 8.42C 13.7655 8.27333 14.1155 8.15333 14.5422 8.06C 14.9689 7.96667 15.4855 7.9 16.0922 7.86C 16.0722 7.58 15.9722 7.35 15.7922 7.17C 15.6122 6.99 15.3222 6.9 14.9222 6.9C 14.6422 6.9 14.3655 6.95333 14.0922 7.06C 13.8255 7.16 13.5655 7.28 13.3122 7.42L 12.8922 6.65C 13.1922 6.47667 13.5355 6.32 13.9222 6.18C 14.3089 6.04 14.7122 5.97 15.1322 5.97C 15.8189 5.97 16.3422 6.15333 16.7022 6.52C 17.0622 6.88 17.2422 7.40333 17.2422 8.09L 17.2422 11L 16.3022 11L 16.2122 10.39L 16.1822 10.39C 15.9222 10.59 15.6322 10.7633 15.3122 10.91C 14.9989 11.05 14.6755 11.12 14.3422 11.12C 14.1022 11.12 13.8822 11.0833 13.6822 11.01C 13.4822 10.9433 13.3089 10.8467 13.1622 10.72C 13.0155 10.5933 12.9022 10.4433 12.8222 10.27C 12.7422 10.09 12.7022 9.89333 12.7022 9.68ZM 13.8122 9.59C 13.8122 9.81 13.8955 9.97 14.0622 10.07C 14.2355 10.17 14.4455 10.22 14.6922 10.22C 14.9389 10.22 15.1755 10.1667 15.4022 10.06C 15.6355 9.94667 15.8655 9.8 16.0922 9.62L 16.0922 8.58C 15.6522 8.61333 15.2855 8.66 14.9922 8.72C 14.6989 8.77333 14.4655 8.84333 14.2922 8.93C 14.1189 9.01667 13.9955 9.11667 13.9222 9.23C 13.8489 9.33667 13.8122 9.45667 13.8122 9.59ZM 19.9683 11.4L 19.9683 12.94L 18.8083 12.94L 18.8083 6.09L 19.7583 6.09L 19.8483 6.65L 19.8783 6.65C 20.0916 6.45667 20.3349 6.29667 20.6083 6.17C 20.8883 6.03667 21.1683 5.97 21.4483 5.97C 21.7683 5.97 22.0516 6.03 22.2983 6.15C 22.5516 6.26333 22.7616 6.43 22.9283 6.65C 23.1016 6.87 23.2316 7.13333 23.3183 7.44C 23.4116 7.74667 23.4583 8.09 23.4583 8.47C 23.4583 8.89 23.3983 9.26667 23.2783 9.6C 23.1583 9.92667 22.9949 10.2033 22.7883 10.43C 22.5883 10.65 22.3549 10.82 22.0883 10.94C 21.8283 11.06 21.5583 11.12 21.2783 11.12C 21.0516 11.12 20.8183 11.07 20.5783 10.97C 20.3449 10.87 20.1283 10.7267 19.9283 10.54L 19.9683 11.4ZM 19.9683 9.72C 20.1483 9.88667 20.3316 10.0033 20.5183 10.07C 20.7116 10.1367 20.8849 10.17 21.0383 10.17C 21.3916 10.17 21.6849 10.03 21.9183 9.75C 22.1516 9.46333 22.2683 9.04 22.2683 8.48C 22.2683 7.98667 22.1783 7.60333 21.9983 7.33C 21.8183 7.05667 21.5283 6.92 21.1283 6.92C 20.9416 6.92 20.7516 6.96667 20.5583 7.06C 20.3649 7.15333 20.1683 7.30333 19.9683 7.51L 19.9683 9.72ZM 25.8844 7L 24.5744 7L 24.5744 6.14L 25.9344 6.09L 26.0844 4.75L 27.0344 4.75L 27.0344 6.09L 29.2744 6.09L 29.2744 7L 27.0344 7L 27.0344 9.02C 27.0344 9.42667 27.1177 9.72667 27.2844 9.92C 27.451 10.1067 27.7444 10.2 28.1644 10.2C 28.3777 10.2 28.571 10.1833 28.7444 10.15C 28.9177 10.11 29.0844 10.06 29.2444 10L 29.4644 10.84C 29.2444 10.9133 29.001 10.9767 28.7344 11.03C 28.4677 11.09 28.1844 11.12 27.8844 11.12C 27.511 11.12 27.1977 11.07 26.9444 10.97C 26.691 10.87 26.4844 10.73 26.3244 10.55C 26.171 10.3633 26.0577 10.14 25.9844 9.88C 25.9177 9.62 25.8844 9.33333 25.8844 9.02L 25.8844 7ZM 30.5105 8.55C 30.5105 8.14333 30.5771 7.78 30.7105 7.46C 30.8505 7.14 31.0338 6.87 31.2605 6.65C 31.4871 6.43 31.7505 6.26333 32.0505 6.15C 32.3505 6.03 32.6605 5.97 32.9805 5.97C 33.3005 5.97 33.6105 6.03 33.9105 6.15C 34.2105 6.26333 34.4738 6.43 34.7005 6.65C 34.9271 6.87 35.1071 7.14 35.2405 7.46C 35.3805 7.78 35.4505 8.14333 35.4505 8.55C 35.4505 8.95667 35.3805 9.32 35.2405 9.64C 35.1071 9.96 34.9271 10.23 34.7005 10.45C 34.4738 10.67 34.2105 10.8367 33.9105 10.95C 33.6105 11.0633 33.3005 11.12 32.9805 11.12C 32.6605 11.12 32.3505 11.0633 32.0505 10.95C 31.7505 10.8367 31.4871 10.67 31.2605 10.45C 31.0338 10.23 30.8505 9.96 30.7105 9.64C 30.5771 9.32 30.5105 8.95667 30.5105 8.55ZM 31.7005 8.55C 31.7005 9.04333 31.8138 9.44 32.0405 9.74C 32.2671 10.0333 32.5805 10.18 32.9805 10.18C 33.3805 10.18 33.6938 10.0333 33.9205 9.74C 34.1471 9.44 34.2605 9.04333 34.2605 8.55C 34.2605 8.05 34.1471 7.65333 33.9205 7.36C 33.6938 7.06 33.3805 6.91 32.9805 6.91C 32.5805 6.91 32.2671 7.06 32.0405 7.36C 31.8138 7.65333 31.7005 8.05 31.7005 8.55ZM 37.9566 11.4L 37.9566 12.94L 36.7966 12.94L 36.7966 6.09L 37.7466 6.09L 37.8366 6.65L 37.8666 6.65C 38.0799 6.45667 38.3232 6.29667 38.5966 6.17C 38.8766 6.03667 39.1566 5.97 39.4366 5.97C 39.7566 5.97 40.0399 6.03 40.2866 6.15C 40.5399 6.26333 40.7499 6.43 40.9166 6.65C 41.0899 6.87 41.2199 7.13333 41.3066 7.44C 41.3999 7.74667 41.4466 8.09 41.4466 8.47C 41.4466 8.89 41.3866 9.26667 41.2666 9.6C 41.1466 9.92667 40.9832 10.2033 40.7766 10.43C 40.5766 10.65 40.3432 10.82 40.0766 10.94C 39.8166 11.06 39.5466 11.12 39.2666 11.12C 39.0399 11.12 38.8066 11.07 38.5666 10.97C 38.3332 10.87 38.1166 10.7267 37.9166 10.54L 37.9566 11.4ZM 37.9566 9.72C 38.1366 9.88667 38.3199 10.0033 38.5066 10.07C 38.6999 10.1367 38.8732 10.17 39.0266 10.17C 39.3799 10.17 39.6732 10.03 39.9066 9.75C 40.1399 9.46333 40.2566 9.04 40.2566 8.48C 40.2566 7.98667 40.1666 7.60333 39.9866 7.33C 39.8066 7.05667 39.5166 6.92 39.1166 6.92C 38.9299 6.92 38.7399 6.96667 38.5466 7.06C 38.3532 7.15333 38.1566 7.30333 37.9566 7.51L 37.9566 9.72ZM 43.1327 9.63C 43.4127 9.82333 43.7027 9.97667 44.0027 10.09C 44.3093 10.1967 44.6527 10.25 45.0327 10.25C 45.4193 10.25 45.7027 10.1967 45.8827 10.09C 46.0627 9.97667 46.1527 9.83333 46.1527 9.66C 46.1527 9.48667 46.036 9.34333 45.8027 9.23C 45.5693 9.11 45.2027 8.98333 44.7027 8.85C 44.4693 8.79 44.2427 8.71667 44.0227 8.63C 43.8027 8.54333 43.6093 8.44333 43.4427 8.33C 43.276 8.21667 43.1427 8.08667 43.0427 7.94C 42.9427 7.79333 42.8927 7.62667 42.8927 7.44C 42.8927 7.00667 43.0793 6.65333 43.4527 6.38C 43.826 6.10667 44.3627 5.97 45.0627 5.97C 45.4627 5.97 45.8393 6.03667 46.1927 6.17C 46.546 6.30333 46.8493 6.45333 47.1027 6.62L 46.5727 7.33C 46.3527 7.18333 46.116 7.06667 45.8627 6.98C 45.616 6.88667 45.3527 6.84 45.0727 6.84C 44.6927 6.84 44.426 6.89333 44.2727 7C 44.1193 7.1 44.0427 7.22667 44.0427 7.38C 44.0427 7.46667 44.076 7.54667 44.1427 7.62C 44.216 7.68667 44.3127 7.75 44.4327 7.81C 44.5593 7.86333 44.706 7.91667 44.8727 7.97C 45.0393 8.02333 45.2227 8.07333 45.4227 8.12C 45.7093 8.19333 45.966 8.27667 46.1927 8.37C 46.426 8.45667 46.6227 8.55667 46.7827 8.67C 46.9493 8.78333 47.076 8.91667 47.1627 9.07C 47.256 9.22333 47.3027 9.4 47.3027 9.6C 47.3027 9.81333 47.2527 10.0133 47.1527 10.2C 47.0527 10.38 46.906 10.54 46.7127 10.68C 46.5193 10.8133 46.2793 10.92 45.9927 11C 45.706 11.08 45.376 11.12 45.0027 11.12C 44.5427 11.12 44.1027 11.0467 43.6827 10.9C 43.2627 10.7533 42.8993 10.5733 42.5927 10.36L 43.1327 9.63ZM 50.0987 3.92L 52.9588 3.92L 52.9588 4.55L 50.9887 4.55L 50.9887 11.89L 52.9588 11.89L 52.9588 12.52L 50.0987 12.52L 50.0987 3.92ZM 86.9253 11.89L 86.9253 4.55L 84.9653 4.55L 84.9653 3.92L 87.8253 3.92L 87.8253 12.52L 84.9653 12.52L 84.9653 11.89L 86.9253 11.89ZM 25.9944 22.11C 25.9944 21.8167 26.0877 21.5767 26.2744 21.39C 26.461 21.1967 26.6977 21.1 26.9844 21.1C 27.271 21.1 27.5077 21.1967 27.6944 21.39C 27.881 21.5767 27.9744 21.8167 27.9744 22.11C 27.9744 22.4033 27.881 22.6467 27.6944 22.84C 27.5077 23.0267 27.271 23.12 26.9844 23.12C 26.6977 23.12 26.461 23.0267 26.2744 22.84C 26.0877 22.6467 25.9944 22.4033 25.9944 22.11ZM 30.8005 15.94L 31.9605 15.94L 31.9605 17.76L 31.8905 18.81C 32.1171 18.5833 32.3705 18.3867 32.6505 18.22C 32.9371 18.0533 33.2705 17.97 33.6505 17.97C 34.2171 17.97 34.6338 18.1433 34.9005 18.49C 35.1671 18.83 35.3005 19.32 35.3005 19.96L 35.3005 23L 34.1405 23L 34.1405 20.11C 34.1405 19.71 34.0705 19.42 33.9305 19.24C 33.7971 19.0533 33.5605 18.96 33.2205 18.96C 32.9805 18.96 32.7671 19.0167 32.5805 19.13C 32.3938 19.2433 32.1871 19.4167 31.9605 19.65L 31.9605 23L 30.8005 23L 30.8005 15.94ZM 36.5966 20.55C 36.5966 20.15 36.6666 19.79 36.8066 19.47C 36.9532 19.15 37.1432 18.88 37.3766 18.66C 37.6099 18.4333 37.8766 18.2633 38.1766 18.15C 38.4832 18.03 38.7966 17.97 39.1166 17.97C 39.4832 17.97 39.8066 18.03 40.0866 18.15C 40.3732 18.2633 40.6132 18.4233 40.8066 18.63C 40.9999 18.83 41.1466 19.0733 41.2466 19.36C 41.3466 19.6467 41.3966 19.96 41.3966 20.3C 41.3966 20.4133 41.3899 20.52 41.3766 20.62C 41.3699 20.72 41.3599 20.8 41.3466 20.86L 37.7766 20.86C 37.8166 21.3 37.9899 21.64 38.2966 21.88C 38.6032 22.1133 38.9799 22.23 39.4266 22.23C 39.6799 22.23 39.9166 22.1967 40.1366 22.13C 40.3566 22.0567 40.5799 21.9567 40.8066 21.83L 41.1966 22.55C 40.9299 22.7167 40.6332 22.8533 40.3066 22.96C 39.9799 23.0667 39.6366 23.12 39.2766 23.12C 38.9032 23.12 38.5532 23.0633 38.2266 22.95C 37.8999 22.83 37.6166 22.66 37.3766 22.44C 37.1366 22.22 36.9466 21.9533 36.8066 21.64C 36.6666 21.32 36.5966 20.9567 36.5966 20.55ZM 40.3366 20.08C 40.3366 19.7 40.2366 19.4033 40.0366 19.19C 39.8366 18.97 39.5399 18.86 39.1466 18.86C 38.8132 18.86 38.5166 18.9633 38.2566 19.17C 37.9966 19.3767 37.8332 19.68 37.7666 20.08L 40.3366 20.08ZM 42.6827 21.68C 42.6827 21.4067 42.746 21.1667 42.8727 20.96C 42.9993 20.7467 43.1993 20.5667 43.4727 20.42C 43.746 20.2733 44.096 20.1533 44.5227 20.06C 44.9493 19.9667 45.466 19.9 46.0727 19.86C 46.0527 19.58 45.9527 19.35 45.7727 19.17C 45.5927 18.99 45.3027 18.9 44.9027 18.9C 44.6227 18.9 44.346 18.9533 44.0727 19.06C 43.806 19.16 43.546 19.28 43.2927 19.42L 42.8727 18.65C 43.1727 18.4767 43.516 18.32 43.9027 18.18C 44.2893 18.04 44.6927 17.97 45.1127 17.97C 45.7993 17.97 46.3227 18.1533 46.6827 18.52C 47.0427 18.88 47.2227 19.4033 47.2227 20.09L 47.2227 23L 46.2827 23L 46.1927 22.39L 46.1627 22.39C 45.9027 22.59 45.6127 22.7633 45.2927 22.91C 44.9793 23.05 44.656 23.12 44.3227 23.12C 44.0827 23.12 43.8627 23.0833 43.6627 23.01C 43.4627 22.9433 43.2893 22.8467 43.1427 22.72C 42.996 22.5933 42.8827 22.4433 42.8027 22.27C 42.7227 22.09 42.6827 21.8933 42.6827 21.68ZM 43.7927 21.59C 43.7927 21.81 43.876 21.97 44.0427 22.07C 44.216 22.17 44.426 22.22 44.6727 22.22C 44.9193 22.22 45.156 22.1667 45.3827 22.06C 45.616 21.9467 45.846 21.8 46.0727 21.62L 46.0727 20.58C 45.6327 20.6133 45.266 20.66 44.9727 20.72C 44.6793 20.7733 44.446 20.8433 44.2727 20.93C 44.0993 21.0167 43.976 21.1167 43.9027 21.23C 43.8293 21.3367 43.7927 21.4567 43.7927 21.59ZM 48.4987 20.55C 48.4987 20.15 48.5588 19.79 48.6788 19.47C 48.7988 19.15 48.9588 18.88 49.1588 18.66C 49.3654 18.44 49.5988 18.27 49.8587 18.15C 50.1187 18.03 50.3888 17.97 50.6688 17.97C 50.9621 17.97 51.2121 18.0233 51.4187 18.13C 51.6321 18.23 51.8388 18.37 52.0388 18.55L 51.9888 17.72L 51.9888 15.94L 53.1488 15.94L 53.1488 23L 52.1988 23L 52.1088 22.43L 52.0788 22.43C 51.8854 22.6233 51.6587 22.7867 51.3987 22.92C 51.1454 23.0533 50.8788 23.12 50.5988 23.12C 50.2854 23.12 49.9988 23.0633 49.7388 22.95C 49.4787 22.83 49.2554 22.66 49.0687 22.44C 48.8887 22.22 48.7487 21.9533 48.6488 21.64C 48.5488 21.32 48.4987 20.9567 48.4987 20.55ZM 49.6888 20.54C 49.6888 21.0733 49.7921 21.48 49.9987 21.76C 50.2054 22.0333 50.4988 22.17 50.8788 22.17C 51.2854 22.17 51.6554 21.9733 51.9888 21.58L 51.9888 19.37C 51.8154 19.2033 51.6421 19.0867 51.4687 19.02C 51.2954 18.9533 51.1187 18.92 50.9387 18.92C 50.7654 18.92 50.6021 18.9567 50.4487 19.03C 50.3021 19.1033 50.1721 19.21 50.0588 19.35C 49.9454 19.4833 49.8554 19.65 49.7887 19.85C 49.7221 20.05 49.6888 20.28 49.6888 20.54ZM 58.0848 24.77C 57.4115 24.21 56.8782 23.55 56.4848 22.79C 56.0982 22.03 55.9048 21.1733 55.9048 20.22C 55.9048 19.2667 56.0982 18.41 56.4848 17.65C 56.8782 16.89 57.4115 16.23 58.0848 15.67L 58.7248 16.2C 58.0915 16.7733 57.6282 17.3833 57.3348 18.03C 57.0415 18.6767 56.8948 19.4067 56.8948 20.22C 56.8948 21.0333 57.0415 21.7633 57.3348 22.41C 57.6282 23.0567 58.0915 23.6667 58.7248 24.24L 58.0848 24.77ZM 61.2009 24.24C 61.8343 23.6667 62.2976 23.0567 62.5909 22.41C 62.8843 21.7633 63.0309 21.0333 63.0309 20.22C 63.0309 19.4067 62.8843 18.6767 62.5909 18.03C 62.2976 17.3833 61.8343 16.7733 61.2009 16.2L 61.8409 15.67C 62.5143 16.23 63.0443 16.89 63.4309 17.65C 63.8243 18.41 64.0209 19.2667 64.0209 20.22C 64.0209 21.1733 63.8243 22.03 63.4309 22.79C 63.0443 23.55 62.5143 24.21 61.8409 24.77L 61.2009 24.24ZM 25.9944 35.11C 25.9944 34.8167 26.0877 34.5767 26.2744 34.39C 26.461 34.1967 26.6977 34.1 26.9844 34.1C 27.271 34.1 27.5077 34.1967 27.6944 34.39C 27.881 34.5767 27.9744 34.8167 27.9744 35.11C 27.9744 35.4033 27.881 35.6467 27.6944 35.84C 27.5077 36.0267 27.271 36.12 26.9844 36.12C 26.6977 36.12 26.461 36.0267 26.2744 35.84C 26.0877 35.6467 25.9944 35.4033 25.9944 35.11ZM 31.1405 34.63C 31.4205 34.8233 31.7105 34.9767 32.0105 35.09C 32.3171 35.1967 32.6605 35.25 33.0405 35.25C 33.4271 35.25 33.7105 35.1967 33.8905 35.09C 34.0705 34.9767 34.1605 34.8333 34.1605 34.66C 34.1605 34.4867 34.0438 34.3433 33.8105 34.23C 33.5771 34.11 33.2105 33.9833 32.7105 33.85C 32.4771 33.79 32.2505 33.7167 32.0305 33.63C 31.8105 33.5433 31.6171 33.4433 31.4505 33.33C 31.2838 33.2167 31.1505 33.0867 31.0505 32.94C 30.9505 32.7933 30.9005 32.6267 30.9005 32.44C 30.9005 32.0067 31.0871 31.6533 31.4605 31.38C 31.8338 31.1067 32.3705 30.97 33.0705 30.97C 33.4705 30.97 33.8471 31.0367 34.2005 31.17C 34.5538 31.3033 34.8571 31.4533 35.1105 31.62L 34.5805 32.33C 34.3605 32.1833 34.1238 32.0667 33.8705 31.98C 33.6238 31.8867 33.3605 31.84 33.0805 31.84C 32.7005 31.84 32.4338 31.8933 32.2805 32C 32.1271 32.1 32.0505 32.2267 32.0505 32.38C 32.0505 32.4667 32.0838 32.5467 32.1505 32.62C 32.2238 32.6867 32.3205 32.75 32.4405 32.81C 32.5671 32.8633 32.7138 32.9167 32.8805 32.97C 33.0471 33.0233 33.2305 33.0733 33.4305 33.12C 33.7171 33.1933 33.9738 33.2767 34.2005 33.37C 34.4338 33.4567 34.6305 33.5567 34.7905 33.67C 34.9571 33.7833 35.0838 33.9167 35.1705 34.07C 35.2638 34.2233 35.3105 34.4 35.3105 34.6C 35.3105 34.8133 35.2605 35.0133 35.1605 35.2C 35.0605 35.38 34.9138 35.54 34.7205 35.68C 34.5271 35.8133 34.2871 35.92 34.0005 36C 33.7138 36.08 33.3838 36.12 33.0105 36.12C 32.5505 36.12 32.1105 36.0467 31.6905 35.9C 31.2705 35.7533 30.9071 35.5733 30.6005 35.36L 31.1405 34.63ZM 37.8766 32L 36.5666 32L 36.5666 31.14L 37.9266 31.09L 38.0766 29.75L 39.0266 29.75L 39.0266 31.09L 41.2666 31.09L 41.2666 32L 39.0266 32L 39.0266 34.02C 39.0266 34.4267 39.1099 34.7267 39.2766 34.92C 39.4432 35.1067 39.7366 35.2 40.1566 35.2C 40.3699 35.2 40.5632 35.1833 40.7366 35.15C 40.9099 35.11 41.0766 35.06 41.2366 35L 41.4566 35.84C 41.2366 35.9133 40.9932 35.9767 40.7266 36.03C 40.4599 36.09 40.1766 36.12 39.8766 36.12C 39.5032 36.12 39.1899 36.07 38.9366 35.97C 38.6832 35.87 38.4766 35.73 38.3166 35.55C 38.1632 35.3633 38.0499 35.14 37.9766 34.88C 37.9099 34.62 37.8766 34.3333 37.8766 34.02L 37.8766 32ZM 43.2727 31.09L 44.2227 31.09L 44.3227 32.2L 44.3527 32.2C 44.606 31.8 44.9093 31.4967 45.2627 31.29C 45.6227 31.0767 46.016 30.97 46.4427 30.97C 46.6427 30.97 46.8127 30.9867 46.9527 31.02C 47.0993 31.0467 47.246 31.0967 47.3927 31.17L 47.1527 32.14C 46.9927 32.0867 46.8493 32.05 46.7227 32.03C 46.6027 32.0033 46.4493 31.99 46.2627 31.99C 45.9227 31.99 45.596 32.0867 45.2827 32.28C 44.9693 32.4733 44.686 32.81 44.4327 33.29L 44.4327 36L 43.2727 36L 43.2727 31.09ZM 49.9788 35.11C 49.9788 34.8167 50.0721 34.5767 50.2588 34.39C 50.4454 34.1967 50.6821 34.1 50.9688 34.1C 51.2554 34.1 51.4921 34.1967 51.6787 34.39C 51.8654 34.5767 51.9587 34.8167 51.9587 35.11C 51.9587 35.4033 51.8654 35.6467 51.6787 35.84C 51.4921 36.0267 51.2554 36.12 50.9688 36.12C 50.6821 36.12 50.4454 36.0267 50.2588 35.84C 50.0721 35.6467 49.9788 35.4033 49.9788 35.11ZM 55.1248 34.63C 55.4048 34.8233 55.6948 34.9767 55.9948 35.09C 56.3015 35.1967 56.6448 35.25 57.0248 35.25C 57.4115 35.25 57.6948 35.1967 57.8748 35.09C 58.0548 34.9767 58.1448 34.8333 58.1448 34.66C 58.1448 34.4867 58.0282 34.3433 57.7948 34.23C 57.5615 34.11 57.1948 33.9833 56.6948 33.85C 56.4615 33.79 56.2348 33.7167 56.0148 33.63C 55.7948 33.5433 55.6015 33.4433 55.4348 33.33C 55.2682 33.2167 55.1348 33.0867 55.0348 32.94C 54.9348 32.7933 54.8848 32.6267 54.8848 32.44C 54.8848 32.0067 55.0715 31.6533 55.4448 31.38C 55.8182 31.1067 56.3548 30.97 57.0548 30.97C 57.4548 30.97 57.8315 31.0367 58.1848 31.17C 58.5382 31.3033 58.8415 31.4533 59.0948 31.62L 58.5648 32.33C 58.3448 32.1833 58.1082 32.0667 57.8548 31.98C 57.6082 31.8867 57.3448 31.84 57.0648 31.84C 56.6848 31.84 56.4182 31.8933 56.2648 32C 56.1115 32.1 56.0348 32.2267 56.0348 32.38C 56.0348 32.4667 56.0682 32.5467 56.1348 32.62C 56.2082 32.6867 56.3048 32.75 56.4248 32.81C 56.5515 32.8633 56.6982 32.9167 56.8648 32.97C 57.0315 33.0233 57.2148 33.0733 57.4148 33.12C 57.7015 33.1933 57.9582 33.2767 58.1848 33.37C 58.4182 33.4567 58.6148 33.5567 58.7748 33.67C 58.9415 33.7833 59.0682 33.9167 59.1548 34.07C 59.2482 34.2233 59.2948 34.4 59.2948 34.6C 59.2948 34.8133 59.2448 35.0133 59.1448 35.2C 59.0448 35.38 58.8982 35.54 58.7048 35.68C 58.5115 35.8133 58.2715 35.92 57.9848 36C 57.6982 36.08 57.3682 36.12 56.9948 36.12C 56.5348 36.12 56.0948 36.0467 55.6748 35.9C 55.2548 35.7533 54.8915 35.5733 54.5848 35.36L 55.1248 34.63ZM 61.9409 36.4L 61.9409 37.94L 60.7809 37.94L 60.7809 31.09L 61.7309 31.09L 61.8209 31.65L 61.8509 31.65C 62.0643 31.4567 62.3076 31.2967 62.5809 31.17C 62.8609 31.0367 63.1409 30.97 63.4209 30.97C 63.7409 30.97 64.0243 31.03 64.2709 31.15C 64.5243 31.2633 64.7343 31.43 64.9009 31.65C 65.0743 31.87 65.2043 32.1333 65.2909 32.44C 65.3843 32.7467 65.4309 33.09 65.4309 33.47C 65.4309 33.89 65.3709 34.2667 65.2509 34.6C 65.1309 34.9267 64.9676 35.2033 64.7609 35.43C 64.5609 35.65 64.3276 35.82 64.0609 35.94C 63.8009 36.06 63.5309 36.12 63.2509 36.12C 63.0243 36.12 62.7909 36.07 62.5509 35.97C 62.3176 35.87 62.1009 35.7267 61.9009 35.54L 61.9409 36.4ZM 61.9409 34.72C 62.1209 34.8867 62.3043 35.0033 62.4909 35.07C 62.6843 35.1367 62.8576 35.17 63.0109 35.17C 63.3643 35.17 63.6576 35.03 63.8909 34.75C 64.1243 34.4633 64.2409 34.04 64.2409 33.48C 64.2409 32.9867 64.1509 32.6033 63.9709 32.33C 63.7909 32.0567 63.5009 31.92 63.1009 31.92C 62.9143 31.92 62.7243 31.9667 62.5309 32.06C 62.3376 32.1533 62.1409 32.3033 61.9409 32.51L 61.9409 34.72ZM 66.667 28.94L 69.367 28.94L 69.367 34.27C 69.367 34.6033 69.4504 34.84 69.617 34.98C 69.7837 35.1133 69.9937 35.18 70.247 35.18C 70.487 35.18 70.767 35.1167 71.087 34.99L 71.357 35.84C 71.1237 35.92 70.9037 35.9867 70.697 36.04C 70.497 36.0933 70.2537 36.12 69.967 36.12C 69.387 36.12 68.9504 35.9533 68.657 35.62C 68.3637 35.2867 68.217 34.8167 68.217 34.21L 68.217 29.85L 66.667 29.85L 66.667 28.94ZM 72.7931 31.09L 76.0731 31.09L 76.0731 36L 74.9231 36L 74.9231 32L 72.7931 32L 72.7931 31.09ZM 75.4131 30.23C 75.1798 30.23 74.9831 30.16 74.8231 30.02C 74.6698 29.88 74.5931 29.6933 74.5931 29.46C 74.5931 29.2267 74.6698 29.04 74.8231 28.9C 74.9831 28.7533 75.1798 28.68 75.4131 28.68C 75.6531 28.68 75.8498 28.7533 76.0031 28.9C 76.1565 29.04 76.2331 29.2267 76.2331 29.46C 76.2331 29.6933 76.1565 29.88 76.0031 30.02C 75.8498 30.16 75.6531 30.23 75.4131 30.23ZM 79.8492 32L 78.5392 32L 78.5392 31.14L 79.8992 31.09L 80.0492 29.75L 80.9992 29.75L 80.9992 31.09L 83.2392 31.09L 83.2392 32L 80.9992 32L 80.9992 34.02C 80.9992 34.4267 81.0826 34.7267 81.2492 34.92C 81.4159 35.1067 81.7092 35.2 82.1292 35.2C 82.3426 35.2 82.5359 35.1833 82.7092 35.15C 82.8826 35.11 83.0492 35.06 83.2092 35L 83.4292 35.84C 83.2092 35.9133 82.9659 35.9767 82.6992 36.03C 82.4326 36.09 82.1492 36.12 81.8492 36.12C 81.4759 36.12 81.1626 36.07 80.9092 35.97C 80.6559 35.87 80.4492 35.73 80.2892 35.55C 80.1359 35.3633 80.0226 35.14 79.9492 34.88C 79.8826 34.62 79.8492 34.3333 79.8492 34.02L 79.8492 32ZM 88.0653 37.77C 87.392 37.21 86.8586 36.55 86.4653 35.79C 86.0786 35.03 85.8853 34.1733 85.8853 33.22C 85.8853 32.2667 86.0786 31.41 86.4653 30.65C 86.8586 29.89 87.392 29.23 88.0653 28.67L 88.7053 29.2C 88.072 29.7733 87.6086 30.3833 87.3153 31.03C 87.022 31.6767 86.8753 32.4067 86.8753 33.22C 86.8753 34.0333 87.022 34.7633 87.3153 35.41C 87.6086 36.0567 88.072 36.6667 88.7053 37.24L 88.0653 37.77ZM 90.7614 31.09L 91.7114 31.09L 91.8014 31.83L 91.8414 31.83C 92.0747 31.5967 92.3314 31.3967 92.6114 31.23C 92.8981 31.0567 93.2314 30.97 93.6114 30.97C 94.1781 30.97 94.5947 31.1433 94.8614 31.49C 95.1281 31.83 95.2614 32.32 95.2614 32.96L 95.2614 36L 94.1014 36L 94.1014 33.11C 94.1014 32.71 94.0314 32.42 93.8914 32.24C 93.7581 32.0533 93.5214 31.96 93.1814 31.96C 92.9414 31.96 92.7281 32.0167 92.5414 32.13C 92.3547 32.2433 92.1481 32.4167 91.9214 32.65L 91.9214 36L 90.7614 36L 90.7614 31.09ZM 96.7175 31.16L 101.158 31.16L 101.158 32L 96.7175 32L 96.7175 31.16ZM 96.7175 33.39L 101.158 33.39L 101.158 34.23L 96.7175 34.23L 96.7175 33.39ZM 187.119 37.24C 187.752 36.6667 188.216 36.0567 188.509 35.41C 188.802 34.7633 188.949 34.0333 188.949 33.22C 188.949 32.4067 188.802 31.6767 188.509 31.03C 188.216 30.3833 187.752 29.7733 187.119 29.2L 187.759 28.67C 188.432 29.23 188.962 29.89 189.349 30.65C 189.742 31.41 189.939 32.2667 189.939 33.22C 189.939 34.1733 189.742 35.03 189.349 35.79C 188.962 36.55 188.432 37.21 187.759 37.77L 187.119 37.24ZM 25.9944 47.11C 25.9944 46.8167 26.0877 46.5767 26.2744 46.39C 26.461 46.1967 26.6977 46.1 26.9844 46.1C 27.271 46.1 27.5077 46.1967 27.6944 46.39C 27.881 46.5767 27.9744 46.8167 27.9744 47.11C 27.9744 47.4033 27.881 47.6467 27.6944 47.84C 27.5077 48.0267 27.271 48.12 26.9844 48.12C 26.6977 48.12 26.461 48.0267 26.2744 47.84C 26.0877 47.6467 25.9944 47.4033 25.9944 47.11ZM 30.8205 43.09L 34.1005 43.09L 34.1005 48L 32.9505 48L 32.9505 44L 30.8205 44L 30.8205 43.09ZM 33.4405 42.23C 33.2071 42.23 33.0105 42.16 32.8505 42.02C 32.6971 41.88 32.6205 41.6933 32.6205 41.46C 32.6205 41.2267 32.6971 41.04 32.8505 40.9C 33.0105 40.7533 33.2071 40.68 33.4405 40.68C 33.6805 40.68 33.8771 40.7533 34.0305 40.9C 34.1838 41.04 34.2605 41.2267 34.2605 41.46C 34.2605 41.6933 34.1838 41.88 34.0305 42.02C 33.8771 42.16 33.6805 42.23 33.4405 42.23ZM 36.6866 40.94L 39.3866 40.94L 39.3866 46.27C 39.3866 46.6033 39.4699 46.84 39.6366 46.98C 39.8032 47.1133 40.0132 47.18 40.2666 47.18C 40.5066 47.18 40.7866 47.1167 41.1066 46.99L 41.3766 47.84C 41.1432 47.92 40.9232 47.9867 40.7166 48.04C 40.5166 48.0933 40.2732 48.12 39.9866 48.12C 39.4066 48.12 38.9699 47.9533 38.6766 47.62C 38.3832 47.2867 38.2366 46.8167 38.2366 46.21L 38.2366 41.85L 36.6866 41.85L 36.6866 40.94ZM 42.5027 45.55C 42.5027 45.1433 42.5693 44.78 42.7027 44.46C 42.8427 44.14 43.026 43.87 43.2527 43.65C 43.4793 43.43 43.7427 43.2633 44.0427 43.15C 44.3427 43.03 44.6527 42.97 44.9727 42.97C 45.2927 42.97 45.6027 43.03 45.9027 43.15C 46.2027 43.2633 46.466 43.43 46.6927 43.65C 46.9193 43.87 47.0993 44.14 47.2327 44.46C 47.3727 44.78 47.4427 45.1433 47.4427 45.55C 47.4427 45.9567 47.3727 46.32 47.2327 46.64C 47.0993 46.96 46.9193 47.23 46.6927 47.45C 46.466 47.67 46.2027 47.8367 45.9027 47.95C 45.6027 48.0633 45.2927 48.12 44.9727 48.12C 44.6527 48.12 44.3427 48.0633 44.0427 47.95C 43.7427 47.8367 43.4793 47.67 43.2527 47.45C 43.026 47.23 42.8427 46.96 42.7027 46.64C 42.5693 46.32 42.5027 45.9567 42.5027 45.55ZM 43.6927 45.55C 43.6927 46.0433 43.806 46.44 44.0327 46.74C 44.2593 47.0333 44.5727 47.18 44.9727 47.18C 45.3727 47.18 45.686 47.0333 45.9127 46.74C 46.1393 46.44 46.2527 46.0433 46.2527 45.55C 46.2527 45.05 46.1393 44.6533 45.9127 44.36C 45.686 44.06 45.3727 43.91 44.9727 43.91C 44.5727 43.91 44.2593 44.06 44.0327 44.36C 43.806 44.6533 43.6927 45.05 43.6927 45.55ZM 48.6987 45.55C 48.6987 45.1433 48.7721 44.78 48.9187 44.46C 49.0721 44.14 49.2754 43.87 49.5288 43.65C 49.7821 43.43 50.0788 43.2633 50.4188 43.15C 50.7588 43.03 51.1154 42.97 51.4887 42.97C 51.8887 42.97 52.2387 43.0367 52.5387 43.17C 52.8454 43.3033 53.1021 43.4667 53.3087 43.66L 52.7588 44.38C 52.5654 44.2267 52.3687 44.11 52.1687 44.03C 51.9754 43.95 51.7688 43.91 51.5488 43.91C 51.0554 43.91 50.6554 44.06 50.3488 44.36C 50.0421 44.6533 49.8888 45.05 49.8888 45.55C 49.8888 45.7967 49.9287 46.02 50.0087 46.22C 50.0888 46.42 50.1988 46.5933 50.3388 46.74C 50.4854 46.88 50.6588 46.99 50.8588 47.07C 51.0588 47.1433 51.2788 47.18 51.5187 47.18C 51.7988 47.18 52.0521 47.1267 52.2787 47.02C 52.5121 46.9133 52.7254 46.7867 52.9188 46.64L 53.3987 47.38C 53.1187 47.6267 52.8054 47.8133 52.4588 47.94C 52.1121 48.06 51.7621 48.12 51.4088 48.12C 51.0221 48.12 50.6621 48.0633 50.3288 47.95C 50.0021 47.8367 49.7154 47.67 49.4688 47.45C 49.2288 47.23 49.0388 46.96 48.8988 46.64C 48.7654 46.32 48.6987 45.9567 48.6987 45.55ZM 56.0948 40.92L 58.9548 40.92L 58.9548 41.55L 56.9848 41.55L 56.9848 48.89L 58.9548 48.89L 58.9548 49.52L 56.0948 49.52L 56.0948 40.92ZM 61.9709 43.71C 61.9709 43.4167 62.0643 43.1767 62.2509 42.99C 62.4376 42.7967 62.6743 42.7 62.9609 42.7C 63.2476 42.7 63.4843 42.7967 63.6709 42.99C 63.8576 43.1767 63.9509 43.4167 63.9509 43.71C 63.9509 44.0033 63.8576 44.2467 63.6709 44.44C 63.4843 44.6267 63.2476 44.72 62.9609 44.72C 62.6743 44.72 62.4376 44.6267 62.2509 44.44C 62.0643 44.2467 61.9709 44.0033 61.9709 43.71ZM 61.9709 47.11C 61.9709 46.8167 62.0643 46.5767 62.2509 46.39C 62.4376 46.1967 62.6743 46.1 62.9609 46.1C 63.2476 46.1 63.4843 46.1967 63.6709 46.39C 63.8576 46.5767 63.9509 46.8167 63.9509 47.11C 63.9509 47.4033 63.8576 47.6467 63.6709 47.84C 63.4843 48.0267 63.2476 48.12 62.9609 48.12C 62.6743 48.12 62.4376 48.0267 62.2509 47.84C 62.0643 47.6467 61.9709 47.4033 61.9709 47.11ZM 67.847 49.46C 68.6937 49.12 69.1204 48.6067 69.127 47.92C 69.0937 47.9267 69.047 47.93 68.987 47.93C 68.7337 47.93 68.5137 47.8567 68.327 47.71C 68.1404 47.5567 68.047 47.3333 68.047 47.04C 68.047 46.76 68.1404 46.5433 68.327 46.39C 68.5204 46.23 68.747 46.15 69.007 46.15C 69.367 46.15 69.637 46.2833 69.817 46.55C 69.997 46.8167 70.087 47.1833 70.087 47.65C 70.087 48.2633 69.9204 48.78 69.587 49.2C 69.2537 49.6267 68.7737 49.9433 68.147 50.15L 67.847 49.46ZM 86.9253 48.89L 86.9253 41.55L 84.9653 41.55L 84.9653 40.92L 87.8253 40.92L 87.8253 49.52L 84.9653 49.52L 84.9653 48.89L 86.9253 48.89ZM 1.24 62.24C 1.87333 61.6667 2.33667 61.0567 2.63 60.41C 2.92333 59.7633 3.07 59.0333 3.07 58.22C 3.07 57.4067 2.92333 56.6767 2.63 56.03C 2.33667 55.3833 1.87333 54.7733 1.24 54.2L 1.88 53.67C 2.55333 54.23 3.08333 54.89 3.47 55.65C 3.86333 56.41 4.06 57.2667 4.06 58.22C 4.06 59.1733 3.86333 60.03 3.47 60.79C 3.08333 61.55 2.55333 62.21 1.88 62.77L 1.24 62.24Z"/>
<path id="path10_fill" d="M 55.0648 5.42L 55.0348 4.14L 56.4348 4.14L 56.4048 5.42L 56.1048 7.73L 55.3648 7.73L 55.0648 5.42ZM 57.5348 5.42L 57.5048 4.14L 58.9048 4.14L 58.8748 5.42L 58.5748 7.73L 57.8348 7.73L 57.5348 5.42ZM 61.5409 11.71C 61.5409 11.93 61.6609 12.1033 61.9009 12.23C 62.1476 12.3567 62.5009 12.42 62.9609 12.42C 63.2009 12.42 63.4176 12.3967 63.6109 12.35C 63.8043 12.31 63.9709 12.2533 64.1109 12.18C 64.2509 12.1067 64.3576 12.02 64.4309 11.92C 64.5043 11.8267 64.5409 11.7267 64.5409 11.62C 64.5409 11.4267 64.4576 11.2967 64.2909 11.23C 64.1243 11.17 63.8776 11.14 63.5509 11.14L 62.7709 11.14C 62.6109 11.14 62.4676 11.1333 62.3409 11.12C 62.2209 11.1133 62.1143 11.0933 62.0209 11.06C 61.8476 11.1667 61.7243 11.2733 61.6509 11.38C 61.5776 11.4867 61.5409 11.5967 61.5409 11.71ZM 60.5809 11.86C 60.5809 11.6667 60.6476 11.48 60.7809 11.3C 60.9143 11.12 61.1076 10.9633 61.3609 10.83L 61.3609 10.79C 61.2276 10.7167 61.1109 10.6133 61.0109 10.48C 60.9109 10.3467 60.8609 10.1767 60.8609 9.97C 60.8609 9.80333 60.9143 9.64 61.0209 9.48C 61.1276 9.31333 61.2709 9.16667 61.4509 9.04L 61.4509 9C 61.2776 8.88 61.1276 8.71333 61.0009 8.5C 60.8809 8.28667 60.8209 8.03333 60.8209 7.74C 60.8209 7.46 60.8743 7.21 60.9809 6.99C 61.0943 6.77 61.2409 6.58667 61.4209 6.44C 61.6076 6.28667 61.8209 6.17 62.0609 6.09C 62.3076 6.01 62.5676 5.97 62.8409 5.97C 63.1343 5.97 63.3909 6.01 63.6109 6.09L 65.6209 6.09L 65.6209 6.94L 64.4709 6.94C 64.5576 7.04 64.6343 7.16333 64.7009 7.31C 64.7676 7.45 64.8009 7.60667 64.8009 7.78C 64.8009 8.05333 64.7509 8.29333 64.6509 8.5C 64.5509 8.70667 64.4109 8.88 64.2309 9.02C 64.0576 9.16 63.8509 9.26667 63.6109 9.34C 63.3709 9.40667 63.1143 9.44 62.8409 9.44C 62.5943 9.44 62.3443 9.39667 62.0909 9.31C 61.8909 9.43667 61.7909 9.58667 61.7909 9.76C 61.7909 10.0733 62.1009 10.23 62.7209 10.23L 63.7209 10.23C 64.3609 10.23 64.8409 10.3233 65.1609 10.51C 65.4876 10.6967 65.6509 11.0033 65.6509 11.43C 65.6509 11.67 65.5843 11.8967 65.4509 12.11C 65.3176 12.3233 65.1276 12.5067 64.8809 12.66C 64.6409 12.82 64.3443 12.9433 63.9909 13.03C 63.6443 13.1233 63.2543 13.17 62.8209 13.17C 62.4809 13.17 62.1743 13.1433 61.9009 13.09C 61.6276 13.0367 61.3909 12.9533 61.1909 12.84C 60.9976 12.7333 60.8476 12.5967 60.7409 12.43C 60.6343 12.27 60.5809 12.08 60.5809 11.86ZM 62.8409 8.72C 63.0943 8.72 63.3143 8.63667 63.5009 8.47C 63.6876 8.29667 63.7809 8.05333 63.7809 7.74C 63.7809 7.44 63.6876 7.20333 63.5009 7.03C 63.3143 6.85 63.0943 6.76 62.8409 6.76C 62.5876 6.76 62.3676 6.85 62.1809 7.03C 62.0009 7.20333 61.9109 7.44 61.9109 7.74C 61.9109 8.05333 62.0009 8.29667 62.1809 8.47C 62.3676 8.63667 62.5876 8.72 62.8409 8.72ZM 67.937 11.4L 67.937 12.94L 66.777 12.94L 66.777 6.09L 67.727 6.09L 67.817 6.65L 67.847 6.65C 68.0604 6.45667 68.3037 6.29667 68.577 6.17C 68.857 6.03667 69.137 5.97 69.417 5.97C 69.737 5.97 70.0204 6.03 70.267 6.15C 70.5204 6.26333 70.7304 6.43 70.897 6.65C 71.0704 6.87 71.2004 7.13333 71.287 7.44C 71.3804 7.74667 71.427 8.09 71.427 8.47C 71.427 8.89 71.367 9.26667 71.247 9.6C 71.127 9.92667 70.9637 10.2033 70.757 10.43C 70.557 10.65 70.3237 10.82 70.057 10.94C 69.797 11.06 69.527 11.12 69.247 11.12C 69.0204 11.12 68.787 11.07 68.547 10.97C 68.3137 10.87 68.097 10.7267 67.897 10.54L 67.937 11.4ZM 67.937 9.72C 68.117 9.88667 68.3004 10.0033 68.487 10.07C 68.6804 10.1367 68.8537 10.17 69.007 10.17C 69.3604 10.17 69.6537 10.03 69.887 9.75C 70.1204 9.46333 70.237 9.04 70.237 8.48C 70.237 7.98667 70.147 7.60333 69.967 7.33C 69.787 7.05667 69.497 6.92 69.097 6.92C 68.9104 6.92 68.7204 6.96667 68.527 7.06C 68.3337 7.15333 68.137 7.30333 67.937 7.51L 67.937 9.72ZM 77.1031 11L 76.1631 11L 76.0731 10.22L 76.0331 10.22C 75.7998 10.4933 75.5431 10.7133 75.2631 10.88C 74.9831 11.04 74.6598 11.12 74.2931 11.12C 73.7198 11.12 73.3031 10.95 73.0431 10.61C 72.7831 10.2633 72.6531 9.77 72.6531 9.13L 72.6531 6.09L 73.8031 6.09L 73.8031 8.98C 73.8031 9.38 73.8698 9.67333 74.0031 9.86C 74.1431 10.04 74.3831 10.13 74.7231 10.13C 74.9565 10.13 75.1631 10.0767 75.3431 9.97C 75.5298 9.86333 75.7331 9.67333 75.9531 9.4L 75.9531 6.09L 77.1031 6.09L 77.1031 11ZM 79.0492 5.42L 79.0192 4.14L 80.4192 4.14L 80.3892 5.42L 80.0892 7.73L 79.3492 7.73L 79.0492 5.42ZM 81.5192 5.42L 81.4892 4.14L 82.8892 4.14L 82.8592 5.42L 82.5592 7.73L 81.8192 7.73L 81.5192 5.42Z"/>
<path id="path11_fill" d="M 107.264 35.06L 107.264 36L 102.834 36L 102.834 35.06L 104.554 35.06L 104.554 30.88L 103.224 30.88L 103.224 30.16C 103.584 30.1 103.89 30.03 104.144 29.95C 104.404 29.8633 104.644 29.76 104.864 29.64L 105.704 29.64L 105.704 35.06L 107.264 35.06ZM 109.82 37.46C 110.666 37.12 111.093 36.6067 111.1 35.92C 111.066 35.9267 111.02 35.93 110.96 35.93C 110.706 35.93 110.486 35.8567 110.3 35.71C 110.113 35.5567 110.02 35.3333 110.02 35.04C 110.02 34.76 110.113 34.5433 110.3 34.39C 110.493 34.23 110.72 34.15 110.98 34.15C 111.34 34.15 111.61 34.2833 111.79 34.55C 111.97 34.8167 112.06 35.1833 112.06 35.65C 112.06 36.2633 111.893 36.78 111.56 37.2C 111.226 37.6267 110.746 37.9433 110.12 38.15L 109.82 37.46ZM 164.315 30.44L 162.255 30.44L 162.255 29.46L 167.535 29.46L 167.535 30.44L 165.475 30.44L 165.475 36L 164.315 36L 164.315 30.44ZM 169.191 31.09L 170.141 31.09L 170.241 32.2L 170.271 32.2C 170.524 31.8 170.827 31.4967 171.181 31.29C 171.541 31.0767 171.934 30.97 172.361 30.97C 172.561 30.97 172.731 30.9867 172.871 31.02C 173.017 31.0467 173.164 31.0967 173.311 31.17L 173.071 32.14C 172.911 32.0867 172.767 32.05 172.641 32.03C 172.521 32.0033 172.367 31.99 172.181 31.99C 171.841 31.99 171.514 32.0867 171.201 32.28C 170.887 32.4733 170.604 32.81 170.351 33.29L 170.351 36L 169.191 36L 169.191 31.09ZM 179.037 36L 178.097 36L 178.007 35.22L 177.967 35.22C 177.733 35.4933 177.477 35.7133 177.197 35.88C 176.917 36.04 176.593 36.12 176.227 36.12C 175.653 36.12 175.237 35.95 174.977 35.61C 174.717 35.2633 174.587 34.77 174.587 34.13L 174.587 31.09L 175.737 31.09L 175.737 33.98C 175.737 34.38 175.803 34.6733 175.937 34.86C 176.077 35.04 176.317 35.13 176.657 35.13C 176.89 35.13 177.097 35.0767 177.277 34.97C 177.463 34.8633 177.667 34.6733 177.887 34.4L 177.887 31.09L 179.037 31.09L 179.037 36ZM 180.503 33.55C 180.503 33.15 180.573 32.79 180.713 32.47C 180.859 32.15 181.049 31.88 181.283 31.66C 181.516 31.4333 181.783 31.2633 182.083 31.15C 182.389 31.03 182.703 30.97 183.023 30.97C 183.389 30.97 183.713 31.03 183.993 31.15C 184.279 31.2633 184.519 31.4233 184.713 31.63C 184.906 31.83 185.053 32.0733 185.153 32.36C 185.253 32.6467 185.303 32.96 185.303 33.3C 185.303 33.4133 185.296 33.52 185.283 33.62C 185.276 33.72 185.266 33.8 185.253 33.86L 181.683 33.86C 181.723 34.3 181.896 34.64 182.203 34.88C 182.509 35.1133 182.886 35.23 183.333 35.23C 183.586 35.23 183.823 35.1967 184.043 35.13C 184.263 35.0567 184.486 34.9567 184.713 34.83L 185.103 35.55C 184.836 35.7167 184.539 35.8533 184.213 35.96C 183.886 36.0667 183.543 36.12 183.183 36.12C 182.809 36.12 182.459 36.0633 182.133 35.95C 181.806 35.83 181.523 35.66 181.283 35.44C 181.043 35.22 180.853 34.9533 180.713 34.64C 180.573 34.32 180.503 33.9567 180.503 33.55ZM 184.243 33.08C 184.243 32.7 184.143 32.4033 183.943 32.19C 183.743 31.97 183.446 31.86 183.053 31.86C 182.719 31.86 182.423 31.9633 182.163 32.17C 181.903 32.3767 181.739 32.68 181.673 33.08L 184.243 33.08ZM 80.9492 48.12C 80.2226 48.12 79.6459 47.8333 79.2192 47.26C 78.7992 46.6867 78.5892 45.8633 78.5892 44.79C 78.5892 43.71 78.7992 42.8967 79.2192 42.35C 79.6459 41.7967 80.2226 41.52 80.9492 41.52C 81.6759 41.52 82.2492 41.7967 82.6692 42.35C 83.0959 42.8967 83.3092 43.71 83.3092 44.79C 83.3092 45.8633 83.0959 46.6867 82.6692 47.26C 82.2492 47.8333 81.6759 48.12 80.9492 48.12ZM 80.9492 42.42C 80.7559 42.42 80.5792 42.4633 80.4192 42.55C 80.2592 42.63 80.1192 42.7633 79.9992 42.95C 79.8859 43.1367 79.7959 43.3833 79.7292 43.69C 79.6626 43.99 79.6292 44.3567 79.6292 44.79C 79.6292 45.2233 79.6626 45.5967 79.7292 45.91C 79.7959 46.2167 79.8859 46.4667 79.9992 46.66C 80.1192 46.8533 80.2592 46.9967 80.4192 47.09C 80.5792 47.1767 80.7559 47.22 80.9492 47.22C 81.1359 47.22 81.3092 47.1767 81.4692 47.09C 81.6359 46.9967 81.7759 46.8533 81.8892 46.66C 82.0092 46.4667 82.1026 46.2167 82.1692 45.91C 82.2359 45.5967 82.2692 45.2233 82.2692 44.79C 82.2692 44.3567 82.2359 43.99 82.1692 43.69C 82.1026 43.3833 82.0092 43.1367 81.8892 42.95C 81.7759 42.7633 81.6359 42.63 81.4692 42.55C 81.3092 42.4633 81.1359 42.42 80.9492 42.42ZM 80.9492 45.46C 80.7559 45.46 80.5926 45.3967 80.4592 45.27C 80.3259 45.1433 80.2592 44.97 80.2592 44.75C 80.2592 44.53 80.3259 44.3567 80.4592 44.23C 80.5926 44.1033 80.7559 44.04 80.9492 44.04C 81.1426 44.04 81.3059 44.1033 81.4392 44.23C 81.5726 44.3567 81.6392 44.53 81.6392 44.75C 81.6392 44.97 81.5726 45.1433 81.4392 45.27C 81.3059 45.3967 81.1426 45.46 80.9492 45.46Z"/>
<path id="path12_fill" d="M 120.542 33.55C 120.542 33.15 120.612 32.79 120.752 32.47C 120.899 32.15 121.089 31.88 121.322 31.66C 121.555 31.4333 121.822 31.2633 122.122 31.15C 122.429 31.03 122.742 30.97 123.062 30.97C 123.429 30.97 123.752 31.03 124.032 31.15C 124.319 31.2633 124.559 31.4233 124.752 31.63C 124.945 31.83 125.092 32.0733 125.192 32.36C 125.292 32.6467 125.342 32.96 125.342 33.3C 125.342 33.4133 125.335 33.52 125.322 33.62C 125.315 33.72 125.305 33.8 125.292 33.86L 121.722 33.86C 121.762 34.3 121.935 34.64 122.242 34.88C 122.549 35.1133 122.925 35.23 123.372 35.23C 123.625 35.23 123.862 35.1967 124.082 35.13C 124.302 35.0567 124.525 34.9567 124.752 34.83L 125.142 35.55C 124.875 35.7167 124.579 35.8533 124.252 35.96C 123.925 36.0667 123.582 36.12 123.222 36.12C 122.849 36.12 122.499 36.0633 122.172 35.95C 121.845 35.83 121.562 35.66 121.322 35.44C 121.082 35.22 120.892 34.9533 120.752 34.64C 120.612 34.32 120.542 33.9567 120.542 33.55ZM 124.282 33.08C 124.282 32.7 124.182 32.4033 123.982 32.19C 123.782 31.97 123.485 31.86 123.092 31.86C 122.759 31.86 122.462 31.9633 122.202 32.17C 121.942 32.3767 121.779 32.68 121.712 33.08L 124.282 33.08ZM 128.208 33.45L 126.548 31.09L 127.798 31.09L 128.438 32.02C 128.518 32.1533 128.605 32.2933 128.698 32.44C 128.791 32.58 128.885 32.72 128.978 32.86L 129.018 32.86C 129.091 32.72 129.171 32.5767 129.258 32.43C 129.345 32.2833 129.425 32.1433 129.498 32.01L 130.078 31.09L 131.288 31.09L 129.618 33.57L 131.408 36L 130.158 36L 129.448 35.03C 129.355 34.8967 129.255 34.7533 129.148 34.6C 129.048 34.4467 128.948 34.3 128.848 34.16L 128.808 34.16C 128.715 34.3067 128.625 34.4533 128.538 34.6C 128.458 34.74 128.371 34.8867 128.278 35.04L 127.638 36L 126.428 36L 128.208 33.45ZM 133.894 36.4L 133.894 37.94L 132.734 37.94L 132.734 31.09L 133.684 31.09L 133.774 31.65L 133.804 31.65C 134.017 31.4567 134.261 31.2967 134.534 31.17C 134.814 31.0367 135.094 30.97 135.374 30.97C 135.694 30.97 135.977 31.03 136.224 31.15C 136.477 31.2633 136.687 31.43 136.854 31.65C 137.027 31.87 137.157 32.1333 137.244 32.44C 137.337 32.7467 137.384 33.09 137.384 33.47C 137.384 33.89 137.324 34.2667 137.204 34.6C 137.084 34.9267 136.921 35.2033 136.714 35.43C 136.514 35.65 136.281 35.82 136.014 35.94C 135.754 36.06 135.484 36.12 135.204 36.12C 134.977 36.12 134.744 36.07 134.504 35.97C 134.271 35.87 134.054 35.7267 133.854 35.54L 133.894 36.4ZM 133.894 34.72C 134.074 34.8867 134.257 35.0033 134.444 35.07C 134.637 35.1367 134.811 35.17 134.964 35.17C 135.317 35.17 135.611 35.03 135.844 34.75C 136.077 34.4633 136.194 34.04 136.194 33.48C 136.194 32.9867 136.104 32.6033 135.924 32.33C 135.744 32.0567 135.454 31.92 135.054 31.92C 134.867 31.92 134.677 31.9667 134.484 32.06C 134.291 32.1533 134.094 32.3033 133.894 32.51L 133.894 34.72ZM 138.62 34.68C 138.62 34.4067 138.683 34.1667 138.81 33.96C 138.937 33.7467 139.137 33.5667 139.41 33.42C 139.683 33.2733 140.033 33.1533 140.46 33.06C 140.887 32.9667 141.403 32.9 142.01 32.86C 141.99 32.58 141.89 32.35 141.71 32.17C 141.53 31.99 141.24 31.9 140.84 31.9C 140.56 31.9 140.283 31.9533 140.01 32.06C 139.743 32.16 139.483 32.28 139.23 32.42L 138.81 31.65C 139.11 31.4767 139.453 31.32 139.84 31.18C 140.227 31.04 140.63 30.97 141.05 30.97C 141.737 30.97 142.26 31.1533 142.62 31.52C 142.98 31.88 143.16 32.4033 143.16 33.09L 143.16 36L 142.22 36L 142.13 35.39L 142.1 35.39C 141.84 35.59 141.55 35.7633 141.23 35.91C 140.917 36.05 140.593 36.12 140.26 36.12C 140.02 36.12 139.8 36.0833 139.6 36.01C 139.4 35.9433 139.227 35.8467 139.08 35.72C 138.933 35.5933 138.82 35.4433 138.74 35.27C 138.66 35.09 138.62 34.8933 138.62 34.68ZM 139.73 34.59C 139.73 34.81 139.813 34.97 139.98 35.07C 140.153 35.17 140.363 35.22 140.61 35.22C 140.857 35.22 141.093 35.1667 141.32 35.06C 141.553 34.9467 141.783 34.8 142.01 34.62L 142.01 33.58C 141.57 33.6133 141.203 33.66 140.91 33.72C 140.617 33.7733 140.383 33.8433 140.21 33.93C 140.037 34.0167 139.913 34.1167 139.84 34.23C 139.767 34.3367 139.73 34.4567 139.73 34.59ZM 144.726 31.09L 145.676 31.09L 145.766 31.83L 145.806 31.83C 146.04 31.5967 146.296 31.3967 146.576 31.23C 146.863 31.0567 147.196 30.97 147.576 30.97C 148.143 30.97 148.56 31.1433 148.826 31.49C 149.093 31.83 149.226 32.32 149.226 32.96L 149.226 36L 148.066 36L 148.066 33.11C 148.066 32.71 147.996 32.42 147.856 32.24C 147.723 32.0533 147.486 31.96 147.146 31.96C 146.906 31.96 146.693 32.0167 146.506 32.13C 146.32 32.2433 146.113 32.4167 145.886 32.65L 145.886 36L 144.726 36L 144.726 31.09ZM 150.432 33.55C 150.432 33.15 150.492 32.79 150.612 32.47C 150.732 32.15 150.892 31.88 151.092 31.66C 151.299 31.44 151.532 31.27 151.792 31.15C 152.052 31.03 152.322 30.97 152.602 30.97C 152.896 30.97 153.146 31.0233 153.352 31.13C 153.566 31.23 153.772 31.37 153.972 31.55L 153.922 30.72L 153.922 28.94L 155.082 28.94L 155.082 36L 154.132 36L 154.042 35.43L 154.012 35.43C 153.819 35.6233 153.592 35.7867 153.332 35.92C 153.079 36.0533 152.812 36.12 152.532 36.12C 152.219 36.12 151.932 36.0633 151.672 35.95C 151.412 35.83 151.189 35.66 151.002 35.44C 150.822 35.22 150.682 34.9533 150.582 34.64C 150.482 34.32 150.432 33.9567 150.432 33.55ZM 151.622 33.54C 151.622 34.0733 151.726 34.48 151.932 34.76C 152.139 35.0333 152.432 35.17 152.812 35.17C 153.219 35.17 153.589 34.9733 153.922 34.58L 153.922 32.37C 153.749 32.2033 153.576 32.0867 153.402 32.02C 153.229 31.9533 153.052 31.92 152.872 31.92C 152.699 31.92 152.536 31.9567 152.382 32.03C 152.236 32.1033 152.106 32.21 151.992 32.35C 151.879 32.4833 151.789 32.65 151.722 32.85C 151.656 33.05 151.622 33.28 151.622 33.54ZM 156.678 31.16L 161.118 31.16L 161.118 32L 156.678 32L 156.678 31.16ZM 156.678 33.39L 161.118 33.39L 161.118 34.23L 156.678 34.23L 156.678 33.39Z"/>
</defs>
</svg>
