<svg width="800" height="268" viewBox="0 0 800 268" version="1.1" xmlns="http://www.w3.org/2000/svg" xmlns:xlink="http://www.w3.org/1999/xlink">
<title>Frame</title>
<desc>Created using Figma</desc>
<g id="Canvas" transform="matrix(2 0 0 2 50 666)">
<clipPath id="clip-0" clip-rule="evenodd">
<path d="M -25 -333L 375 -333L 375 -199L -25 -199L -25 -333Z" fill="#FFFFFF"/>
</clipPath>
<g id="Frame" clip-path="url(#clip-0)">
<path d="M -25 -333L 375 -333L 375 -199L -25 -199L -25 -333Z" fill="#FFFFFF"/>
<g id="Rectangle">
<use xlink:href="#path0_stroke" transform="translate(215 -314)"/>
</g>
<g id="Rectangle">
<use xlink:href="#path0_stroke" transform="translate(215 -292.3)"/>
</g>
<g id="Rectangle">
<use xlink:href="#path0_stroke" transform="translate(215 -270.601)"/>
</g>
<g id="0">
<use xlink:href="#path1_fill" transform="translate(205 -309)" fill="#828282"/>
</g>
<g id="0">
<use xlink:href="#path1_fill" transform="translate(228 -330)" fill="#828282"/>
</g>
<g id="0">
<use xlink:href="#path2_fill" transform="translate(303 -330)" fill="#828282"/>
</g>
<g id="0">
<use xlink:href="#path3_fill" transform="translate(219 -309)" fill="#333333"/>
</g>
<g id="0">
<use xlink:href="#path3_fill" transform="translate(219 -288)" fill="#333333"/>
</g>
<g id="0">
<use xlink:href="#path3_fill" transform="translate(219 -266)" fill="#333333"/>
</g>
<g id="0">
<use xlink:href="#path4_fill" transform="translate(219 -245)" fill="#333333"/>
</g>
<g id="0">
<use xlink:href="#path3_fill" transform="translate(219 -223)" fill="#333333"/>
</g>
<g id="1">
<use xlink:href="#path2_fill" transform="translate(205 -288)" fill="#828282"/>
</g>
<g id="2">
<use xlink:href="#path5_fill" transform="translate(205 -266)" fill="#828282"/>
</g>
<g id="Rectangle">
<use xlink:href="#path0_stroke" transform="translate(215 -248.776)"/>
</g>
<g id="Rectangle">
<use xlink:href="#path0_stroke" transform="translate(215 -227.076)"/>
</g>
<g id="3">
<use xlink:href="#path6_fill" transform="translate(205 -244.625)" fill="#828282"/>
</g>
<g id="4">
<use xlink:href="#path7_fill" transform="translate(205 -222.625)" fill="#828282"/>
</g>
<g id="Rectangle">
<use xlink:href="#path8_stroke" transform="translate(248 -314)"/>
</g>
<g id="Rectangle">
<use xlink:href="#path9_stroke" transform="translate(248 -292)"/>
</g>
<g id="Rectangle">
<use xlink:href="#path9_stroke" transform="translate(248 -270.375)"/>
</g>
<g id="0">
<use xlink:href="#path10_fill" transform="translate(250.21 -309)" fill="#333333"/>
</g>
<g id="0">
<use xlink:href="#path11_fill" transform="translate(250.21 -288)" fill="#333333"/>
</g>
<g id="0">
<use xlink:href="#path12_fill" transform="translate(250.21 -266)" fill="#333333"/>
</g>
<g id="0">
<use xlink:href="#path13_fill" transform="translate(250.21 -245)" fill="#333333"/>
</g>
<g id="0">
<use xlink:href="#path14_fill" transform="translate(250.21 -223)" fill="#333333"/>
</g>
<g id="Rectangle">
<use xlink:href="#path9_stroke" transform="translate(248 -248.625)"/>
</g>
<g id="Rectangle">
<use xlink:href="#path9_stroke" transform="translate(248 -227)"/>
</g>
<g id="code">
<g id="Rectangle">
<use xlink:href="#path15_fill" transform="translate(-21 -287)" fill="#F1F4F8"/>
</g>
<g id="(laptops[&#34;gpu&#34;] .head() .str.split(n=1, expand=True) )">
<use xlink:href="#path16_fill" transform="translate(-16.8367 -285.219)" fill="#2E383C"/>
<use xlink:href="#path17_fill" transform="translate(-16.8367 -285.219)" fill="#B82629"/>
<use xlink:href="#path18_fill" transform="translate(-16.8367 -285.219)" fill="#0C570A"/>
<use xlink:href="#path19_fill" transform="translate(-16.8367 -285.219)" fill="#333333"/>
</g>
</g>
</g>
</g>
<defs>
<path id="path0_stroke" d="M 0 0L 0 -0.5L -0.5 -0.5L -0.5 0L 0 0ZM 33 0L 33.5 0L 33.5 -0.5L 33 -0.5L 33 0ZM 33 22.0759L 33 22.5759L 33.5 22.5759L 33.5 22.0759L 33 22.0759ZM 0 22.0759L -0.5 22.0759L -0.5 22.5759L 0 22.5759L 0 22.0759ZM 0 0.5L 33 0.5L 33 -0.5L 0 -0.5L 0 0.5ZM 32.5 0L 32.5 22.0759L 33.5 22.0759L 33.5 0L 32.5 0ZM 33 21.5759L 0 21.5759L 0 22.5759L 33 22.5759L 33 21.5759ZM 0.5 22.0759L 0.5 0L -0.5 0L -0.5 22.0759L 0.5 22.0759Z"/>
<path id="path1_fill" d="M 6.05859 7.36133C 6.05859 8.63086 5.8418 9.57422 5.4082 10.1914C 4.97461 10.8086 4.29688 11.1172 3.375 11.1172C 2.46484 11.1172 1.79102 10.8164 1.35352 10.2148C 0.916016 9.60938 0.689453 8.70703 0.673828 7.50781L 0.673828 6.06055C 0.673828 4.80664 0.890625 3.875 1.32422 3.26562C 1.75781 2.65625 2.4375 2.35156 3.36328 2.35156C 4.28125 2.35156 4.95703 2.64648 5.39062 3.23633C 5.82422 3.82227 6.04688 4.72852 6.05859 5.95508L 6.05859 7.36133ZM 4.97461 5.87891C 4.97461 4.96094 4.8457 4.29297 4.58789 3.875C 4.33008 3.45312 3.92188 3.24219 3.36328 3.24219C 2.80859 3.24219 2.4043 3.45117 2.15039 3.86914C 1.89648 4.28711 1.76562 4.92969 1.75781 5.79688L 1.75781 7.53125C 1.75781 8.45312 1.89062 9.13477 2.15625 9.57617C 2.42578 10.0137 2.83203 10.2324 3.375 10.2324C 3.91016 10.2324 4.30664 10.0254 4.56445 9.61133C 4.82617 9.19727 4.96289 8.54492 4.97461 7.6543L 4.97461 5.87891Z"/>
<path id="path2_fill" d="M 4.27148 11L 3.18164 11L 3.18164 3.77539L 0.996094 4.57812L 0.996094 3.59375L 4.10156 2.42773L 4.27148 2.42773L 4.27148 11Z"/>
<path id="path3_fill" d="M 2.19727 11L 1.07227 11L 1.07227 2.46875L 2.19727 2.46875L 2.19727 11ZM 5.11523 4.66016L 5.15039 5.45703C 5.63477 4.84766 6.26758 4.54297 7.04883 4.54297C 8.38867 4.54297 9.06445 5.29883 9.07617 6.81055L 9.07617 11L 7.99219 11L 7.99219 6.80469C 7.98828 6.34766 7.88281 6.00977 7.67578 5.79102C 7.47266 5.57227 7.1543 5.46289 6.7207 5.46289C 6.36914 5.46289 6.06055 5.55664 5.79492 5.74414C 5.5293 5.93164 5.32227 6.17773 5.17383 6.48242L 5.17383 11L 4.08984 11L 4.08984 4.66016L 5.11523 4.66016ZM 12.1816 3.125L 12.1816 4.66016L 13.3652 4.66016L 13.3652 5.49805L 12.1816 5.49805L 12.1816 9.42969C 12.1816 9.68359 12.2344 9.875 12.3398 10.0039C 12.4453 10.1289 12.625 10.1914 12.8789 10.1914C 13.0039 10.1914 13.1758 10.168 13.3945 10.1211L 13.3945 11C 13.1094 11.0781 12.832 11.1172 12.5625 11.1172C 12.0781 11.1172 11.7129 10.9707 11.4668 10.6777C 11.2207 10.3848 11.0977 9.96875 11.0977 9.42969L 11.0977 5.49805L 9.94336 5.49805L 9.94336 4.66016L 11.0977 4.66016L 11.0977 3.125L 12.1816 3.125ZM 17.2676 11.1172C 16.4082 11.1172 15.709 10.8359 15.1699 10.2734C 14.6309 9.70703 14.3613 8.95117 14.3613 8.00586L 14.3613 7.80664C 14.3613 7.17773 14.4805 6.61719 14.7188 6.125C 14.9609 5.62891 15.2969 5.24219 15.7266 4.96484C 16.1602 4.68359 16.6289 4.54297 17.1328 4.54297C 17.957 4.54297 18.5977 4.81445 19.0547 5.35742C 19.5117 5.90039 19.7402 6.67773 19.7402 7.68945L 19.7402 8.14062L 15.4453 8.14062C 15.4609 8.76562 15.6426 9.27148 15.9902 9.6582C 16.3418 10.041 16.7871 10.2324 17.3262 10.2324C 17.709 10.2324 18.0332 10.1543 18.2988 9.99805C 18.5645 9.8418 18.7969 9.63477 18.9961 9.37695L 19.6582 9.89258C 19.127 10.709 18.3301 11.1172 17.2676 11.1172ZM 17.1328 5.43359C 16.6953 5.43359 16.3281 5.59375 16.0312 5.91406C 15.7344 6.23047 15.5508 6.67578 15.4805 7.25L 18.6562 7.25L 18.6562 7.16797C 18.625 6.61719 18.4766 6.19141 18.2109 5.89062C 17.9453 5.58594 17.5859 5.43359 17.1328 5.43359ZM 22.1777 11L 21.0938 11L 21.0938 2L 22.1777 2L 22.1777 11Z"/>
<path id="path4_fill" d="M 5.70117 8.77344L 2.12695 8.77344L 1.32422 11L 0.164062 11L 3.42188 2.46875L 4.40625 2.46875L 7.66992 11L 6.51562 11L 5.70117 8.77344ZM 2.4668 7.84766L 5.36719 7.84766L 3.91406 3.85742L 2.4668 7.84766ZM 10.2715 2.46875L 13.0605 9.42969L 15.8496 2.46875L 17.3086 2.46875L 17.3086 11L 16.1836 11L 16.1836 7.67773L 16.2891 4.0918L 13.4883 11L 12.627 11L 9.83203 4.10938L 9.94336 7.67773L 9.94336 11L 8.81836 11L 8.81836 2.46875L 10.2715 2.46875ZM 19.2949 11L 19.2949 2.46875L 21.7031 2.46875C 22.4453 2.46875 23.1016 2.63281 23.6719 2.96094C 24.2422 3.28906 24.6816 3.75586 24.9902 4.36133C 25.3027 4.9668 25.4609 5.66211 25.4648 6.44727L 25.4648 6.99219C 25.4648 7.79688 25.3086 8.50195 24.9961 9.10742C 24.6875 9.71289 24.2441 10.1777 23.666 10.502C 23.0918 10.8262 22.4219 10.9922 21.6562 11L 19.2949 11ZM 20.4199 3.39453L 20.4199 10.0801L 21.6035 10.0801C 22.4707 10.0801 23.1445 9.81055 23.625 9.27148C 24.1094 8.73242 24.3516 7.96484 24.3516 6.96875L 24.3516 6.4707C 24.3516 5.50195 24.123 4.75 23.666 4.21484C 23.2129 3.67578 22.5684 3.40234 21.7324 3.39453L 20.4199 3.39453Z"/>
<path id="path5_fill" d="M 6.29883 11L 0.708984 11L 0.708984 10.2207L 3.66211 6.93945C 4.09961 6.44336 4.40039 6.04102 4.56445 5.73242C 4.73242 5.41992 4.81641 5.09766 4.81641 4.76562C 4.81641 4.32031 4.68164 3.95508 4.41211 3.66992C 4.14258 3.38477 3.7832 3.24219 3.33398 3.24219C 2.79492 3.24219 2.375 3.39648 2.07422 3.70508C 1.77734 4.00977 1.62891 4.43555 1.62891 4.98242L 0.544922 4.98242C 0.544922 4.19727 0.796875 3.5625 1.30078 3.07812C 1.80859 2.59375 2.48633 2.35156 3.33398 2.35156C 4.12695 2.35156 4.75391 2.56055 5.21484 2.97852C 5.67578 3.39258 5.90625 3.94531 5.90625 4.63672C 5.90625 5.47656 5.37109 6.47656 4.30078 7.63672L 2.01562 10.1152L 6.29883 10.1152L 6.29883 11Z"/>
<path id="path6_fill" d="M 2.28516 6.20703L 3.09961 6.20703C 3.61133 6.19922 4.01367 6.06445 4.30664 5.80273C 4.59961 5.54102 4.74609 5.1875 4.74609 4.74219C 4.74609 3.74219 4.24805 3.24219 3.25195 3.24219C 2.7832 3.24219 2.4082 3.37695 2.12695 3.64648C 1.84961 3.91211 1.71094 4.26562 1.71094 4.70703L 0.626953 4.70703C 0.626953 4.03125 0.873047 3.4707 1.36523 3.02539C 1.86133 2.57617 2.49023 2.35156 3.25195 2.35156C 4.05664 2.35156 4.6875 2.56445 5.14453 2.99023C 5.60156 3.41602 5.83008 4.00781 5.83008 4.76562C 5.83008 5.13672 5.70898 5.49609 5.4668 5.84375C 5.22852 6.19141 4.90234 6.45117 4.48828 6.62305C 4.95703 6.77148 5.31836 7.01758 5.57227 7.36133C 5.83008 7.70508 5.95898 8.125 5.95898 8.62109C 5.95898 9.38672 5.70898 9.99414 5.20898 10.4434C 4.70898 10.8926 4.05859 11.1172 3.25781 11.1172C 2.45703 11.1172 1.80469 10.9004 1.30078 10.4668C 0.800781 10.0332 0.550781 9.46094 0.550781 8.75L 1.64062 8.75C 1.64062 9.19922 1.78711 9.55859 2.08008 9.82812C 2.37305 10.0977 2.76562 10.2324 3.25781 10.2324C 3.78125 10.2324 4.18164 10.0957 4.45898 9.82227C 4.73633 9.54883 4.875 9.15625 4.875 8.64453C 4.875 8.14844 4.72266 7.76758 4.41797 7.50195C 4.11328 7.23633 3.67383 7.09961 3.09961 7.0918L 2.28516 7.0918L 2.28516 6.20703Z"/>
<path id="path7_fill" d="M 5.28516 8.13477L 6.46875 8.13477L 6.46875 9.01953L 5.28516 9.01953L 5.28516 11L 4.19531 11L 4.19531 9.01953L 0.310547 9.01953L 0.310547 8.38086L 4.13086 2.46875L 5.28516 2.46875L 5.28516 8.13477ZM 1.54102 8.13477L 4.19531 8.13477L 4.19531 3.95117L 4.06641 4.18555L 1.54102 8.13477Z"/>
<path id="path8_stroke" d="M 0 0L 0 -0.5L -0.5 -0.5L -0.5 0L 0 0ZM 123 0L 123.5 0L 123.5 -0.5L 123 -0.5L 123 0ZM 123 22.0759L 123 22.5759L 123.5 22.5759L 123.5 22.0759L 123 22.0759ZM 0 22.0759L -0.5 22.0759L -0.5 22.5759L 0 22.5759L 0 22.0759ZM 0 0.5L 123 0.5L 123 -0.5L 0 -0.5L 0 0.5ZM 122.5 0L 122.5 22.0759L 123.5 22.0759L 123.5 0L 122.5 0ZM 123 21.5759L 0 21.5759L 0 22.5759L 123 22.5759L 123 21.5759ZM 0.5 22.0759L 0.5 0L -0.5 0L -0.5 22.0759L 0.5 22.0759Z"/>
<path id="path9_stroke" d="M 0 0L 0 -0.5L -0.5 -0.5L -0.5 0L 0 0ZM 123 0L 123.5 0L 123.5 -0.5L 123 -0.5L 123 0ZM 123 22L 123 22.5L 123.5 22.5L 123.5 22L 123 22ZM 0 22L -0.5 22L -0.5 22.5L 0 22.5L 0 22ZM 0 0.5L 123 0.5L 123 -0.5L 0 -0.5L 0 0.5ZM 122.5 0L 122.5 22L 123.5 22L 123.5 0L 122.5 0ZM 123 21.5L 0 21.5L 0 22.5L 123 22.5L 123 21.5ZM 0.5 22L 0.5 0L -0.5 0L -0.5 22L 0.5 22Z"/>
<path id="path10_fill" d="M 2.19727 11L 1.07227 11L 1.07227 2.46875L 2.19727 2.46875L 2.19727 11ZM 7.1543 5.63281C 6.99023 5.60547 6.8125 5.5918 6.62109 5.5918C 5.91016 5.5918 5.42773 5.89453 5.17383 6.5L 5.17383 11L 4.08984 11L 4.08984 4.66016L 5.14453 4.66016L 5.16211 5.39258C 5.51758 4.82617 6.02148 4.54297 6.67383 4.54297C 6.88477 4.54297 7.04492 4.57031 7.1543 4.625L 7.1543 5.63281ZM 9.33398 11L 8.25 11L 8.25 4.66016L 9.33398 4.66016L 9.33398 11ZM 8.16211 2.97852C 8.16211 2.80273 8.21484 2.6543 8.32031 2.5332C 8.42969 2.41211 8.58984 2.35156 8.80078 2.35156C 9.01172 2.35156 9.17188 2.41211 9.28125 2.5332C 9.39062 2.6543 9.44531 2.80273 9.44531 2.97852C 9.44531 3.1543 9.39062 3.30078 9.28125 3.41797C 9.17188 3.53516 9.01172 3.59375 8.80078 3.59375C 8.58984 3.59375 8.42969 3.53516 8.32031 3.41797C 8.21484 3.30078 8.16211 3.1543 8.16211 2.97852ZM 14.7656 9.31836C 14.7656 9.02539 14.6543 8.79883 14.4316 8.63867C 14.2129 8.47461 13.8281 8.33398 13.2773 8.2168C 12.7305 8.09961 12.2949 7.95898 11.9707 7.79492C 11.6504 7.63086 11.4121 7.43555 11.2559 7.20898C 11.1035 6.98242 11.0273 6.71289 11.0273 6.40039C 11.0273 5.88086 11.2461 5.44141 11.6836 5.08203C 12.125 4.72266 12.6875 4.54297 13.3711 4.54297C 14.0898 4.54297 14.6719 4.72852 15.1172 5.09961C 15.5664 5.4707 15.791 5.94531 15.791 6.52344L 14.7012 6.52344C 14.7012 6.22656 14.5742 5.9707 14.3203 5.75586C 14.0703 5.54102 13.7539 5.43359 13.3711 5.43359C 12.9766 5.43359 12.668 5.51953 12.4453 5.69141C 12.2227 5.86328 12.1113 6.08789 12.1113 6.36523C 12.1113 6.62695 12.2148 6.82422 12.4219 6.95703C 12.6289 7.08984 13.002 7.2168 13.541 7.33789C 14.084 7.45898 14.5234 7.60352 14.8594 7.77148C 15.1953 7.93945 15.4434 8.14258 15.6035 8.38086C 15.7676 8.61523 15.8496 8.90234 15.8496 9.24219C 15.8496 9.80859 15.623 10.2637 15.1699 10.6074C 14.7168 10.9473 14.1289 11.1172 13.4062 11.1172C 12.8984 11.1172 12.4492 11.0273 12.0586 10.8477C 11.668 10.668 11.3613 10.418 11.1387 10.0977C 10.9199 9.77344 10.8105 9.42383 10.8105 9.04883L 11.8945 9.04883C 11.9141 9.41211 12.0586 9.70117 12.3281 9.91602C 12.6016 10.127 12.9609 10.2324 13.4062 10.2324C 13.8164 10.2324 14.1445 10.1504 14.3906 9.98633C 14.6406 9.81836 14.7656 9.5957 14.7656 9.31836ZM 21.5332 7.66016L 21.5332 11L 20.4082 11L 20.4082 2.46875L 23.5547 2.46875C 24.4883 2.46875 25.2188 2.70703 25.7461 3.18359C 26.2773 3.66016 26.543 4.29102 26.543 5.07617C 26.543 5.9043 26.2832 6.54297 25.7637 6.99219C 25.248 7.4375 24.5078 7.66016 23.543 7.66016L 21.5332 7.66016ZM 21.5332 6.74023L 23.5547 6.74023C 24.1562 6.74023 24.6172 6.59961 24.9375 6.31836C 25.2578 6.0332 25.418 5.62305 25.418 5.08789C 25.418 4.58008 25.2578 4.17383 24.9375 3.86914C 24.6172 3.56445 24.1777 3.40625 23.6191 3.39453L 21.5332 3.39453L 21.5332 6.74023ZM 28.9863 11L 27.9023 11L 27.9023 2L 28.9863 2L 28.9863 11ZM 34.6406 10.373C 34.2188 10.8691 33.5996 11.1172 32.7832 11.1172C 32.1074 11.1172 31.5918 10.9219 31.2363 10.5312C 30.8848 10.1367 30.707 9.55469 30.7031 8.78516L 30.7031 4.66016L 31.7871 4.66016L 31.7871 8.75586C 31.7871 9.7168 32.1777 10.1973 32.959 10.1973C 33.7871 10.1973 34.3379 9.88867 34.6113 9.27148L 34.6113 4.66016L 35.6953 4.66016L 35.6953 11L 34.6641 11L 34.6406 10.373ZM 41.0391 9.31836C 41.0391 9.02539 40.9277 8.79883 40.7051 8.63867C 40.4863 8.47461 40.1016 8.33398 39.5508 8.2168C 39.0039 8.09961 38.5684 7.95898 38.2441 7.79492C 37.9238 7.63086 37.6855 7.43555 37.5293 7.20898C 37.377 6.98242 37.3008 6.71289 37.3008 6.40039C 37.3008 5.88086 37.5195 5.44141 37.957 5.08203C 38.3984 4.72266 38.9609 4.54297 39.6445 4.54297C 40.3633 4.54297 40.9453 4.72852 41.3906 5.09961C 41.8398 5.4707 42.0645 5.94531 42.0645 6.52344L 40.9746 6.52344C 40.9746 6.22656 40.8477 5.9707 40.5938 5.75586C 40.3438 5.54102 40.0273 5.43359 39.6445 5.43359C 39.25 5.43359 38.9414 5.51953 38.7188 5.69141C 38.4961 5.86328 38.3848 6.08789 38.3848 6.36523C 38.3848 6.62695 38.4883 6.82422 38.6953 6.95703C 38.9023 7.08984 39.2754 7.2168 39.8145 7.33789C 40.3574 7.45898 40.7969 7.60352 41.1328 7.77148C 41.4688 7.93945 41.7168 8.14258 41.877 8.38086C 42.041 8.61523 42.123 8.90234 42.123 9.24219C 42.123 9.80859 41.8965 10.2637 41.4434 10.6074C 40.9902 10.9473 40.4023 11.1172 39.6797 11.1172C 39.1719 11.1172 38.7227 11.0273 38.332 10.8477C 37.9414 10.668 37.6348 10.418 37.4121 10.0977C 37.1934 9.77344 37.084 9.42383 37.084 9.04883L 38.168 9.04883C 38.1875 9.41211 38.332 9.70117 38.6016 9.91602C 38.875 10.127 39.2344 10.2324 39.6797 10.2324C 40.0898 10.2324 40.418 10.1504 40.6641 9.98633C 40.9141 9.81836 41.0391 9.5957 41.0391 9.31836ZM 52.9805 9.88086C 52.6914 10.2949 52.2871 10.6055 51.7676 10.8125C 51.252 11.0156 50.6504 11.1172 49.9629 11.1172C 49.2676 11.1172 48.6504 10.9551 48.1113 10.6309C 47.5723 10.3027 47.1543 9.83789 46.8574 9.23633C 46.5645 8.63477 46.4141 7.9375 46.4062 7.14453L 46.4062 6.40039C 46.4062 5.11523 46.7051 4.11914 47.3027 3.41211C 47.9043 2.70508 48.748 2.35156 49.834 2.35156C 50.7246 2.35156 51.4414 2.58008 51.9844 3.03711C 52.5273 3.49023 52.8594 4.13477 52.9805 4.9707L 51.8555 4.9707C 51.6445 3.8418 50.9727 3.27734 49.8398 3.27734C 49.0859 3.27734 48.5137 3.54297 48.123 4.07422C 47.7363 4.60156 47.541 5.36719 47.5371 6.37109L 47.5371 7.06836C 47.5371 8.02539 47.7559 8.78711 48.1934 9.35352C 48.6309 9.91602 49.2227 10.1973 49.9688 10.1973C 50.3906 10.1973 50.7598 10.1504 51.0762 10.0566C 51.3926 9.96289 51.6543 9.80469 51.8613 9.58203L 51.8613 7.66602L 49.8867 7.66602L 49.8867 6.75195L 52.9805 6.75195L 52.9805 9.88086ZM 57.7559 5.63281C 57.5918 5.60547 57.4141 5.5918 57.2227 5.5918C 56.5117 5.5918 56.0293 5.89453 55.7754 6.5L 55.7754 11L 54.6914 11L 54.6914 4.66016L 55.7461 4.66016L 55.7637 5.39258C 56.1191 4.82617 56.623 4.54297 57.2754 4.54297C 57.4863 4.54297 57.6465 4.57031 57.7559 4.625L 57.7559 5.63281ZM 62.4375 11C 62.375 10.875 62.3242 10.6523 62.2852 10.332C 61.7812 10.8555 61.1797 11.1172 60.4805 11.1172C 59.8555 11.1172 59.3418 10.9414 58.9395 10.5898C 58.541 10.2344 58.3418 9.78516 58.3418 9.24219C 58.3418 8.58203 58.5918 8.07031 59.0918 7.70703C 59.5957 7.33984 60.3027 7.15625 61.2129 7.15625L 62.2676 7.15625L 62.2676 6.6582C 62.2676 6.2793 62.1543 5.97852 61.9277 5.75586C 61.7012 5.5293 61.3672 5.41602 60.9258 5.41602C 60.5391 5.41602 60.2148 5.51367 59.9531 5.70898C 59.6914 5.9043 59.5605 6.14062 59.5605 6.41797L 58.4707 6.41797C 58.4707 6.10156 58.582 5.79688 58.8047 5.50391C 59.0312 5.20703 59.3359 4.97266 59.7188 4.80078C 60.1055 4.62891 60.5293 4.54297 60.9902 4.54297C 61.7207 4.54297 62.293 4.72656 62.707 5.09375C 63.1211 5.45703 63.3359 5.95898 63.3516 6.59961L 63.3516 9.51758C 63.3516 10.0996 63.4258 10.5625 63.5742 10.9062L 63.5742 11L 62.4375 11ZM 60.6387 10.1738C 60.9785 10.1738 61.3008 10.0859 61.6055 9.91016C 61.9102 9.73438 62.1309 9.50586 62.2676 9.22461L 62.2676 7.92383L 61.418 7.92383C 60.0898 7.92383 59.4258 8.3125 59.4258 9.08984C 59.4258 9.42969 59.5391 9.69531 59.7656 9.88672C 59.9922 10.0781 60.2832 10.1738 60.6387 10.1738ZM 70.4062 7.90039C 70.4062 8.86523 70.1855 9.64258 69.7441 10.2324C 69.3027 10.8223 68.7051 11.1172 67.9512 11.1172C 67.1816 11.1172 66.5762 10.873 66.1348 10.3848L 66.1348 13.4375L 65.0508 13.4375L 65.0508 4.66016L 66.041 4.66016L 66.0938 5.36328C 66.5352 4.81641 67.1484 4.54297 67.9336 4.54297C 68.6953 4.54297 69.2969 4.83008 69.7383 5.4043C 70.1836 5.97852 70.4062 6.77734 70.4062 7.80078L 70.4062 7.90039ZM 69.3223 7.77734C 69.3223 7.0625 69.1699 6.49805 68.8652 6.08398C 68.5605 5.66992 68.1426 5.46289 67.6113 5.46289C 66.9551 5.46289 66.4629 5.75391 66.1348 6.33594L 66.1348 9.36523C 66.459 9.94336 66.9551 10.2324 67.623 10.2324C 68.1426 10.2324 68.5547 10.0273 68.8594 9.61719C 69.168 9.20312 69.3223 8.58984 69.3223 7.77734ZM 72.873 5.42773C 73.3535 4.83789 73.9785 4.54297 74.748 4.54297C 76.0879 4.54297 76.7637 5.29883 76.7754 6.81055L 76.7754 11L 75.6914 11L 75.6914 6.80469C 75.6875 6.34766 75.582 6.00977 75.375 5.79102C 75.1719 5.57227 74.8535 5.46289 74.4199 5.46289C 74.0684 5.46289 73.7598 5.55664 73.4941 5.74414C 73.2285 5.93164 73.0215 6.17773 72.873 6.48242L 72.873 11L 71.7891 11L 71.7891 2L 72.873 2L 72.873 5.42773ZM 79.5762 11L 78.4922 11L 78.4922 4.66016L 79.5762 4.66016L 79.5762 11ZM 78.4043 2.97852C 78.4043 2.80273 78.457 2.6543 78.5625 2.5332C 78.6719 2.41211 78.832 2.35156 79.043 2.35156C 79.2539 2.35156 79.4141 2.41211 79.5234 2.5332C 79.6328 2.6543 79.6875 2.80273 79.6875 2.97852C 79.6875 3.1543 79.6328 3.30078 79.5234 3.41797C 79.4141 3.53516 79.2539 3.59375 79.043 3.59375C 78.832 3.59375 78.6719 3.53516 78.5625 3.41797C 78.457 3.30078 78.4043 3.1543 78.4043 2.97852ZM 83.8594 10.2324C 84.2461 10.2324 84.584 10.1152 84.873 9.88086C 85.1621 9.64648 85.3223 9.35352 85.3535 9.00195L 86.3789 9.00195C 86.3594 9.36523 86.2344 9.71094 86.0039 10.0391C 85.7734 10.3672 85.4648 10.6289 85.0781 10.8242C 84.6953 11.0195 84.2891 11.1172 83.8594 11.1172C 82.9961 11.1172 82.3086 10.8301 81.7969 10.2559C 81.2891 9.67773 81.0352 8.88867 81.0352 7.88867L 81.0352 7.70703C 81.0352 7.08984 81.1484 6.54102 81.375 6.06055C 81.6016 5.58008 81.9258 5.20703 82.3477 4.94141C 82.7734 4.67578 83.2754 4.54297 83.8535 4.54297C 84.5645 4.54297 85.1543 4.75586 85.623 5.18164C 86.0957 5.60742 86.3477 6.16016 86.3789 6.83984L 85.3535 6.83984C 85.3223 6.42969 85.166 6.09375 84.8848 5.83203C 84.6074 5.56641 84.2637 5.43359 83.8535 5.43359C 83.3027 5.43359 82.875 5.63281 82.5703 6.03125C 82.2695 6.42578 82.1191 6.99805 82.1191 7.74805L 82.1191 7.95312C 82.1191 8.68359 82.2695 9.24609 82.5703 9.64062C 82.8711 10.0352 83.3008 10.2324 83.8594 10.2324ZM 91.2891 9.31836C 91.2891 9.02539 91.1777 8.79883 90.9551 8.63867C 90.7363 8.47461 90.3516 8.33398 89.8008 8.2168C 89.2539 8.09961 88.8184 7.95898 88.4941 7.79492C 88.1738 7.63086 87.9355 7.43555 87.7793 7.20898C 87.627 6.98242 87.5508 6.71289 87.5508 6.40039C 87.5508 5.88086 87.7695 5.44141 88.207 5.08203C 88.6484 4.72266 89.2109 4.54297 89.8945 4.54297C 90.6133 4.54297 91.1953 4.72852 91.6406 5.09961C 92.0898 5.4707 92.3145 5.94531 92.3145 6.52344L 91.2246 6.52344C 91.2246 6.22656 91.0977 5.9707 90.8438 5.75586C 90.5938 5.54102 90.2773 5.43359 89.8945 5.43359C 89.5 5.43359 89.1914 5.51953 88.9688 5.69141C 88.7461 5.86328 88.6348 6.08789 88.6348 6.36523C 88.6348 6.62695 88.7383 6.82422 88.9453 6.95703C 89.1523 7.08984 89.5254 7.2168 90.0645 7.33789C 90.6074 7.45898 91.0469 7.60352 91.3828 7.77148C 91.7188 7.93945 91.9668 8.14258 92.127 8.38086C 92.291 8.61523 92.373 8.90234 92.373 9.24219C 92.373 9.80859 92.1465 10.2637 91.6934 10.6074C 91.2402 10.9473 90.6523 11.1172 89.9297 11.1172C 89.4219 11.1172 88.9727 11.0273 88.582 10.8477C 88.1914 10.668 87.8848 10.418 87.6621 10.0977C 87.4434 9.77344 87.334 9.42383 87.334 9.04883L 88.418 9.04883C 88.4375 9.41211 88.582 9.70117 88.8516 9.91602C 89.125 10.127 89.4844 10.2324 89.9297 10.2324C 90.3398 10.2324 90.668 10.1504 90.9141 9.98633C 91.1641 9.81836 91.2891 9.5957 91.2891 9.31836ZM 100.904 2.46289L 100.904 3.38281L 100.705 3.38281C 99.8613 3.39844 99.1895 3.64844 98.6895 4.13281C 98.1895 4.61719 97.9004 5.29883 97.8223 6.17773C 98.2715 5.66211 98.8848 5.4043 99.6621 5.4043C 100.404 5.4043 100.996 5.66602 101.438 6.18945C 101.883 6.71289 102.105 7.38867 102.105 8.2168C 102.105 9.0957 101.865 9.79883 101.385 10.3262C 100.908 10.8535 100.268 11.1172 99.4629 11.1172C 98.6465 11.1172 97.9844 10.8047 97.4766 10.1797C 96.9688 9.55078 96.7148 8.74219 96.7148 7.75391L 96.7148 7.33789C 96.7148 5.76758 97.0488 4.56836 97.7168 3.74023C 98.3887 2.9082 99.3867 2.48242 100.711 2.46289L 100.904 2.46289ZM 99.4805 6.30664C 99.1094 6.30664 98.7676 6.41797 98.4551 6.64062C 98.1426 6.86328 97.9258 7.14258 97.8047 7.47852L 97.8047 7.87695C 97.8047 8.58008 97.9629 9.14648 98.2793 9.57617C 98.5957 10.0059 98.9902 10.2207 99.4629 10.2207C 99.9512 10.2207 100.334 10.041 100.611 9.68164C 100.893 9.32227 101.033 8.85156 101.033 8.26953C 101.033 7.68359 100.891 7.21094 100.605 6.85156C 100.324 6.48828 99.9492 6.30664 99.4805 6.30664ZM 107.965 8.13477L 109.148 8.13477L 109.148 9.01953L 107.965 9.01953L 107.965 11L 106.875 11L 106.875 9.01953L 102.99 9.01953L 102.99 8.38086L 106.811 2.46875L 107.965 2.46875L 107.965 8.13477ZM 104.221 8.13477L 106.875 8.13477L 106.875 3.95117L 106.746 4.18555L 104.221 8.13477ZM 115.477 7.36133C 115.477 8.63086 115.26 9.57422 114.826 10.1914C 114.393 10.8086 113.715 11.1172 112.793 11.1172C 111.883 11.1172 111.209 10.8164 110.771 10.2148C 110.334 9.60938 110.107 8.70703 110.092 7.50781L 110.092 6.06055C 110.092 4.80664 110.309 3.875 110.742 3.26562C 111.176 2.65625 111.855 2.35156 112.781 2.35156C 113.699 2.35156 114.375 2.64648 114.809 3.23633C 115.242 3.82227 115.465 4.72852 115.477 5.95508L 115.477 7.36133ZM 114.393 5.87891C 114.393 4.96094 114.264 4.29297 114.006 3.875C 113.748 3.45312 113.34 3.24219 112.781 3.24219C 112.227 3.24219 111.822 3.45117 111.568 3.86914C 111.314 4.28711 111.184 4.92969 111.176 5.79688L 111.176 7.53125C 111.176 8.45312 111.309 9.13477 111.574 9.57617C 111.844 10.0137 112.25 10.2324 112.793 10.2324C 113.328 10.2324 113.725 10.0254 113.982 9.61133C 114.244 9.19727 114.381 8.54492 114.393 7.6543L 114.393 5.87891Z"/>
<path id="path11_fill" d="M 7.54688 12L 6.41602 12L 6.41602 8.05664L 2.11523 8.05664L 2.11523 12L 0.990234 12L 0.990234 3.46875L 2.11523 3.46875L 2.11523 7.13672L 6.41602 7.13672L 6.41602 3.46875L 7.54688 3.46875L 7.54688 12ZM 9.54492 12L 9.54492 3.46875L 11.9531 3.46875C 12.6953 3.46875 13.3516 3.63281 13.9219 3.96094C 14.4922 4.28906 14.9316 4.75586 15.2402 5.36133C 15.5527 5.9668 15.7109 6.66211 15.7148 7.44727L 15.7148 7.99219C 15.7148 8.79688 15.5586 9.50195 15.2461 10.1074C 14.9375 10.7129 14.4941 11.1777 13.916 11.502C 13.3418 11.8262 12.6719 11.9922 11.9062 12L 9.54492 12ZM 10.6699 4.39453L 10.6699 11.0801L 11.8535 11.0801C 12.7207 11.0801 13.3945 10.8105 13.875 10.2715C 14.3594 9.73242 14.6016 8.96484 14.6016 7.96875L 14.6016 7.4707C 14.6016 6.50195 14.373 5.75 13.916 5.21484C 13.4629 4.67578 12.8184 4.40234 11.9824 4.39453L 10.6699 4.39453ZM 26.6953 10.8809C 26.4062 11.2949 26.002 11.6055 25.4824 11.8125C 24.9668 12.0156 24.3652 12.1172 23.6777 12.1172C 22.9824 12.1172 22.3652 11.9551 21.8262 11.6309C 21.2871 11.3027 20.8691 10.8379 20.5723 10.2363C 20.2793 9.63477 20.1289 8.9375 20.1211 8.14453L 20.1211 7.40039C 20.1211 6.11523 20.4199 5.11914 21.0176 4.41211C 21.6191 3.70508 22.4629 3.35156 23.5488 3.35156C 24.4395 3.35156 25.1562 3.58008 25.6992 4.03711C 26.2422 4.49023 26.5742 5.13477 26.6953 5.9707L 25.5703 5.9707C 25.3594 4.8418 24.6875 4.27734 23.5547 4.27734C 22.8008 4.27734 22.2285 4.54297 21.8379 5.07422C 21.4512 5.60156 21.2559 6.36719 21.252 7.37109L 21.252 8.06836C 21.252 9.02539 21.4707 9.78711 21.9082 10.3535C 22.3457 10.916 22.9375 11.1973 23.6836 11.1973C 24.1055 11.1973 24.4746 11.1504 24.791 11.0566C 25.1074 10.9629 25.3691 10.8047 25.5762 10.582L 25.5762 8.66602L 23.6016 8.66602L 23.6016 7.75195L 26.6953 7.75195L 26.6953 10.8809ZM 31.4707 6.63281C 31.3066 6.60547 31.1289 6.5918 30.9375 6.5918C 30.2266 6.5918 29.7441 6.89453 29.4902 7.5L 29.4902 12L 28.4062 12L 28.4062 5.66016L 29.4609 5.66016L 29.4785 6.39258C 29.834 5.82617 30.3379 5.54297 30.9902 5.54297C 31.2012 5.54297 31.3613 5.57031 31.4707 5.625L 31.4707 6.63281ZM 36.1523 12C 36.0898 11.875 36.0391 11.6523 36 11.332C 35.4961 11.8555 34.8945 12.1172 34.1953 12.1172C 33.5703 12.1172 33.0566 11.9414 32.6543 11.5898C 32.2559 11.2344 32.0566 10.7852 32.0566 10.2422C 32.0566 9.58203 32.3066 9.07031 32.8066 8.70703C 33.3105 8.33984 34.0176 8.15625 34.9277 8.15625L 35.9824 8.15625L 35.9824 7.6582C 35.9824 7.2793 35.8691 6.97852 35.6426 6.75586C 35.416 6.5293 35.082 6.41602 34.6406 6.41602C 34.2539 6.41602 33.9297 6.51367 33.668 6.70898C 33.4062 6.9043 33.2754 7.14062 33.2754 7.41797L 32.1855 7.41797C 32.1855 7.10156 32.2969 6.79688 32.5195 6.50391C 32.7461 6.20703 33.0508 5.97266 33.4336 5.80078C 33.8203 5.62891 34.2441 5.54297 34.7051 5.54297C 35.4355 5.54297 36.0078 5.72656 36.4219 6.09375C 36.8359 6.45703 37.0508 6.95898 37.0664 7.59961L 37.0664 10.5176C 37.0664 11.0996 37.1406 11.5625 37.2891 11.9062L 37.2891 12L 36.1523 12ZM 34.3535 11.1738C 34.6934 11.1738 35.0156 11.0859 35.3203 10.9102C 35.625 10.7344 35.8457 10.5059 35.9824 10.2246L 35.9824 8.92383L 35.1328 8.92383C 33.8047 8.92383 33.1406 9.3125 33.1406 10.0898C 33.1406 10.4297 33.2539 10.6953 33.4805 10.8867C 33.707 11.0781 33.998 11.1738 34.3535 11.1738ZM 44.1211 8.90039C 44.1211 9.86523 43.9004 10.6426 43.459 11.2324C 43.0176 11.8223 42.4199 12.1172 41.666 12.1172C 40.8965 12.1172 40.291 11.873 39.8496 11.3848L 39.8496 14.4375L 38.7656 14.4375L 38.7656 5.66016L 39.7559 5.66016L 39.8086 6.36328C 40.25 5.81641 40.8633 5.54297 41.6484 5.54297C 42.4102 5.54297 43.0117 5.83008 43.4531 6.4043C 43.8984 6.97852 44.1211 7.77734 44.1211 8.80078L 44.1211 8.90039ZM 43.0371 8.77734C 43.0371 8.0625 42.8848 7.49805 42.5801 7.08398C 42.2754 6.66992 41.8574 6.46289 41.3262 6.46289C 40.6699 6.46289 40.1777 6.75391 39.8496 7.33594L 39.8496 10.3652C 40.1738 10.9434 40.6699 11.2324 41.3379 11.2324C 41.8574 11.2324 42.2695 11.0273 42.5742 10.6172C 42.8828 10.2031 43.0371 9.58984 43.0371 8.77734ZM 46.5879 6.42773C 47.0684 5.83789 47.6934 5.54297 48.4629 5.54297C 49.8027 5.54297 50.4785 6.29883 50.4902 7.81055L 50.4902 12L 49.4062 12L 49.4062 7.80469C 49.4023 7.34766 49.2969 7.00977 49.0898 6.79102C 48.8867 6.57227 48.5684 6.46289 48.1348 6.46289C 47.7832 6.46289 47.4746 6.55664 47.209 6.74414C 46.9434 6.93164 46.7363 7.17773 46.5879 7.48242L 46.5879 12L 45.5039 12L 45.5039 3L 46.5879 3L 46.5879 6.42773ZM 53.291 12L 52.207 12L 52.207 5.66016L 53.291 5.66016L 53.291 12ZM 52.1191 3.97852C 52.1191 3.80273 52.1719 3.6543 52.2773 3.5332C 52.3867 3.41211 52.5469 3.35156 52.7578 3.35156C 52.9688 3.35156 53.1289 3.41211 53.2383 3.5332C 53.3477 3.6543 53.4023 3.80273 53.4023 3.97852C 53.4023 4.1543 53.3477 4.30078 53.2383 4.41797C 53.1289 4.53516 52.9688 4.59375 52.7578 4.59375C 52.5469 4.59375 52.3867 4.53516 52.2773 4.41797C 52.1719 4.30078 52.1191 4.1543 52.1191 3.97852ZM 57.5742 11.2324C 57.9609 11.2324 58.2988 11.1152 58.5879 10.8809C 58.877 10.6465 59.0371 10.3535 59.0684 10.002L 60.0938 10.002C 60.0742 10.3652 59.9492 10.7109 59.7188 11.0391C 59.4883 11.3672 59.1797 11.6289 58.793 11.8242C 58.4102 12.0195 58.0039 12.1172 57.5742 12.1172C 56.7109 12.1172 56.0234 11.8301 55.5117 11.2559C 55.0039 10.6777 54.75 9.88867 54.75 8.88867L 54.75 8.70703C 54.75 8.08984 54.8633 7.54102 55.0898 7.06055C 55.3164 6.58008 55.6406 6.20703 56.0625 5.94141C 56.4883 5.67578 56.9902 5.54297 57.5684 5.54297C 58.2793 5.54297 58.8691 5.75586 59.3379 6.18164C 59.8105 6.60742 60.0625 7.16016 60.0938 7.83984L 59.0684 7.83984C 59.0371 7.42969 58.8809 7.09375 58.5996 6.83203C 58.3223 6.56641 57.9785 6.43359 57.5684 6.43359C 57.0176 6.43359 56.5898 6.63281 56.2852 7.03125C 55.9844 7.42578 55.834 7.99805 55.834 8.74805L 55.834 8.95312C 55.834 9.68359 55.9844 10.2461 56.2852 10.6406C 56.5859 11.0352 57.0156 11.2324 57.5742 11.2324ZM 65.0039 10.3184C 65.0039 10.0254 64.8926 9.79883 64.6699 9.63867C 64.4512 9.47461 64.0664 9.33398 63.5156 9.2168C 62.9688 9.09961 62.5332 8.95898 62.209 8.79492C 61.8887 8.63086 61.6504 8.43555 61.4941 8.20898C 61.3418 7.98242 61.2656 7.71289 61.2656 7.40039C 61.2656 6.88086 61.4844 6.44141 61.9219 6.08203C 62.3633 5.72266 62.9258 5.54297 63.6094 5.54297C 64.3281 5.54297 64.9102 5.72852 65.3555 6.09961C 65.8047 6.4707 66.0293 6.94531 66.0293 7.52344L 64.9395 7.52344C 64.9395 7.22656 64.8125 6.9707 64.5586 6.75586C 64.3086 6.54102 63.9922 6.43359 63.6094 6.43359C 63.2148 6.43359 62.9062 6.51953 62.6836 6.69141C 62.4609 6.86328 62.3496 7.08789 62.3496 7.36523C 62.3496 7.62695 62.4531 7.82422 62.6602 7.95703C 62.8672 8.08984 63.2402 8.2168 63.7793 8.33789C 64.3223 8.45898 64.7617 8.60352 65.0977 8.77148C 65.4336 8.93945 65.6816 9.14258 65.8418 9.38086C 66.0059 9.61523 66.0879 9.90234 66.0879 10.2422C 66.0879 10.8086 65.8613 11.2637 65.4082 11.6074C 64.9551 11.9473 64.3672 12.1172 63.6445 12.1172C 63.1367 12.1172 62.6875 12.0273 62.2969 11.8477C 61.9062 11.668 61.5996 11.418 61.377 11.0977C 61.1582 10.7734 61.0488 10.4238 61.0488 10.0488L 62.1328 10.0488C 62.1523 10.4121 62.2969 10.7012 62.5664 10.916C 62.8398 11.127 63.1992 11.2324 63.6445 11.2324C 64.0547 11.2324 64.3828 11.1504 64.6289 10.9863C 64.8789 10.8184 65.0039 10.5957 65.0039 10.3184ZM 74.6191 3.46289L 74.6191 4.38281L 74.4199 4.38281C 73.5762 4.39844 72.9043 4.64844 72.4043 5.13281C 71.9043 5.61719 71.6152 6.29883 71.5371 7.17773C 71.9863 6.66211 72.5996 6.4043 73.377 6.4043C 74.1191 6.4043 74.7109 6.66602 75.1523 7.18945C 75.5977 7.71289 75.8203 8.38867 75.8203 9.2168C 75.8203 10.0957 75.5801 10.7988 75.0996 11.3262C 74.623 11.8535 73.9824 12.1172 73.1777 12.1172C 72.3613 12.1172 71.6992 11.8047 71.1914 11.1797C 70.6836 10.5508 70.4297 9.74219 70.4297 8.75391L 70.4297 8.33789C 70.4297 6.76758 70.7637 5.56836 71.4316 4.74023C 72.1035 3.9082 73.1016 3.48242 74.4258 3.46289L 74.6191 3.46289ZM 73.1953 7.30664C 72.8242 7.30664 72.4824 7.41797 72.1699 7.64062C 71.8574 7.86328 71.6406 8.14258 71.5195 8.47852L 71.5195 8.87695C 71.5195 9.58008 71.6777 10.1465 71.9941 10.5762C 72.3105 11.0059 72.7051 11.2207 73.1777 11.2207C 73.666 11.2207 74.0488 11.041 74.3262 10.6816C 74.6074 10.3223 74.748 9.85156 74.748 9.26953C 74.748 8.68359 74.6055 8.21094 74.3203 7.85156C 74.0391 7.48828 73.6641 7.30664 73.1953 7.30664ZM 82.4531 8.36133C 82.4531 9.63086 82.2363 10.5742 81.8027 11.1914C 81.3691 11.8086 80.6914 12.1172 79.7695 12.1172C 78.8594 12.1172 78.1855 11.8164 77.748 11.2148C 77.3105 10.6094 77.084 9.70703 77.0684 8.50781L 77.0684 7.06055C 77.0684 5.80664 77.2852 4.875 77.7188 4.26562C 78.1523 3.65625 78.832 3.35156 79.7578 3.35156C 80.6758 3.35156 81.3516 3.64648 81.7852 4.23633C 82.2188 4.82227 82.4414 5.72852 82.4531 6.95508L 82.4531 8.36133ZM 81.3691 6.87891C 81.3691 5.96094 81.2402 5.29297 80.9824 4.875C 80.7246 4.45312 80.3164 4.24219 79.7578 4.24219C 79.2031 4.24219 78.7988 4.45117 78.5449 4.86914C 78.291 5.28711 78.1602 5.92969 78.1523 6.79688L 78.1523 8.53125C 78.1523 9.45312 78.2852 10.1348 78.5508 10.5762C 78.8203 11.0137 79.2266 11.2324 79.7695 11.2324C 80.3047 11.2324 80.7012 11.0254 80.959 10.6113C 81.2207 10.1973 81.3574 9.54492 81.3691 8.6543L 81.3691 6.87891ZM 89.1914 8.36133C 89.1914 9.63086 88.9746 10.5742 88.541 11.1914C 88.1074 11.8086 87.4297 12.1172 86.5078 12.1172C 85.5977 12.1172 84.9238 11.8164 84.4863 11.2148C 84.0488 10.6094 83.8223 9.70703 83.8066 8.50781L 83.8066 7.06055C 83.8066 5.80664 84.0234 4.875 84.457 4.26562C 84.8906 3.65625 85.5703 3.35156 86.4961 3.35156C 87.4141 3.35156 88.0898 3.64648 88.5234 4.23633C 88.957 4.82227 89.1797 5.72852 89.1914 6.95508L 89.1914 8.36133ZM 88.1074 6.87891C 88.1074 5.96094 87.9785 5.29297 87.7207 4.875C 87.4629 4.45312 87.0547 4.24219 86.4961 4.24219C 85.9414 4.24219 85.5371 4.45117 85.2832 4.86914C 85.0293 5.28711 84.8984 5.92969 84.8906 6.79688L 84.8906 8.53125C 84.8906 9.45312 85.0234 10.1348 85.2891 10.5762C 85.5586 11.0137 85.9648 11.2324 86.5078 11.2324C 87.043 11.2324 87.4395 11.0254 87.6973 10.6113C 87.959 10.1973 88.0957 9.54492 88.1074 8.6543L 88.1074 6.87891ZM 95.9297 8.36133C 95.9297 9.63086 95.7129 10.5742 95.2793 11.1914C 94.8457 11.8086 94.168 12.1172 93.2461 12.1172C 92.3359 12.1172 91.6621 11.8164 91.2246 11.2148C 90.7871 10.6094 90.5605 9.70703 90.5449 8.50781L 90.5449 7.06055C 90.5449 5.80664 90.7617 4.875 91.1953 4.26562C 91.6289 3.65625 92.3086 3.35156 93.2344 3.35156C 94.1523 3.35156 94.8281 3.64648 95.2617 4.23633C 95.6953 4.82227 95.918 5.72852 95.9297 6.95508L 95.9297 8.36133ZM 94.8457 6.87891C 94.8457 5.96094 94.7168 5.29297 94.459 4.875C 94.2012 4.45312 93.793 4.24219 93.2344 4.24219C 92.6797 4.24219 92.2754 4.45117 92.0215 4.86914C 91.7676 5.28711 91.6367 5.92969 91.6289 6.79688L 91.6289 8.53125C 91.6289 9.45312 91.7617 10.1348 92.0273 10.5762C 92.2969 11.0137 92.7031 11.2324 93.2461 11.2324C 93.7812 11.2324 94.1777 11.0254 94.4355 10.6113C 94.6973 10.1973 94.834 9.54492 94.8457 8.6543L 94.8457 6.87891Z"/>
<path id="path12_fill" d="M 7.54688 12L 6.41602 12L 6.41602 8.05664L 2.11523 8.05664L 2.11523 12L 0.990234 12L 0.990234 3.46875L 2.11523 3.46875L 2.11523 7.13672L 6.41602 7.13672L 6.41602 3.46875L 7.54688 3.46875L 7.54688 12ZM 9.54492 12L 9.54492 3.46875L 11.9531 3.46875C 12.6953 3.46875 13.3516 3.63281 13.9219 3.96094C 14.4922 4.28906 14.9316 4.75586 15.2402 5.36133C 15.5527 5.9668 15.7109 6.66211 15.7148 7.44727L 15.7148 7.99219C 15.7148 8.79688 15.5586 9.50195 15.2461 10.1074C 14.9375 10.7129 14.4941 11.1777 13.916 11.502C 13.3418 11.8262 12.6719 11.9922 11.9062 12L 9.54492 12ZM 10.6699 4.39453L 10.6699 11.0801L 11.8535 11.0801C 12.7207 11.0801 13.3945 10.8105 13.875 10.2715C 14.3594 9.73242 14.6016 8.96484 14.6016 7.96875L 14.6016 7.4707C 14.6016 6.50195 14.373 5.75 13.916 5.21484C 13.4629 4.67578 12.8184 4.40234 11.9824 4.39453L 10.6699 4.39453ZM 26.6953 10.8809C 26.4062 11.2949 26.002 11.6055 25.4824 11.8125C 24.9668 12.0156 24.3652 12.1172 23.6777 12.1172C 22.9824 12.1172 22.3652 11.9551 21.8262 11.6309C 21.2871 11.3027 20.8691 10.8379 20.5723 10.2363C 20.2793 9.63477 20.1289 8.9375 20.1211 8.14453L 20.1211 7.40039C 20.1211 6.11523 20.4199 5.11914 21.0176 4.41211C 21.6191 3.70508 22.4629 3.35156 23.5488 3.35156C 24.4395 3.35156 25.1562 3.58008 25.6992 4.03711C 26.2422 4.49023 26.5742 5.13477 26.6953 5.9707L 25.5703 5.9707C 25.3594 4.8418 24.6875 4.27734 23.5547 4.27734C 22.8008 4.27734 22.2285 4.54297 21.8379 5.07422C 21.4512 5.60156 21.2559 6.36719 21.252 7.37109L 21.252 8.06836C 21.252 9.02539 21.4707 9.78711 21.9082 10.3535C 22.3457 10.916 22.9375 11.1973 23.6836 11.1973C 24.1055 11.1973 24.4746 11.1504 24.791 11.0566C 25.1074 10.9629 25.3691 10.8047 25.5762 10.582L 25.5762 8.66602L 23.6016 8.66602L 23.6016 7.75195L 26.6953 7.75195L 26.6953 10.8809ZM 31.4707 6.63281C 31.3066 6.60547 31.1289 6.5918 30.9375 6.5918C 30.2266 6.5918 29.7441 6.89453 29.4902 7.5L 29.4902 12L 28.4062 12L 28.4062 5.66016L 29.4609 5.66016L 29.4785 6.39258C 29.834 5.82617 30.3379 5.54297 30.9902 5.54297C 31.2012 5.54297 31.3613 5.57031 31.4707 5.625L 31.4707 6.63281ZM 36.1523 12C 36.0898 11.875 36.0391 11.6523 36 11.332C 35.4961 11.8555 34.8945 12.1172 34.1953 12.1172C 33.5703 12.1172 33.0566 11.9414 32.6543 11.5898C 32.2559 11.2344 32.0566 10.7852 32.0566 10.2422C 32.0566 9.58203 32.3066 9.07031 32.8066 8.70703C 33.3105 8.33984 34.0176 8.15625 34.9277 8.15625L 35.9824 8.15625L 35.9824 7.6582C 35.9824 7.2793 35.8691 6.97852 35.6426 6.75586C 35.416 6.5293 35.082 6.41602 34.6406 6.41602C 34.2539 6.41602 33.9297 6.51367 33.668 6.70898C 33.4062 6.9043 33.2754 7.14062 33.2754 7.41797L 32.1855 7.41797C 32.1855 7.10156 32.2969 6.79688 32.5195 6.50391C 32.7461 6.20703 33.0508 5.97266 33.4336 5.80078C 33.8203 5.62891 34.2441 5.54297 34.7051 5.54297C 35.4355 5.54297 36.0078 5.72656 36.4219 6.09375C 36.8359 6.45703 37.0508 6.95898 37.0664 7.59961L 37.0664 10.5176C 37.0664 11.0996 37.1406 11.5625 37.2891 11.9062L 37.2891 12L 36.1523 12ZM 34.3535 11.1738C 34.6934 11.1738 35.0156 11.0859 35.3203 10.9102C 35.625 10.7344 35.8457 10.5059 35.9824 10.2246L 35.9824 8.92383L 35.1328 8.92383C 33.8047 8.92383 33.1406 9.3125 33.1406 10.0898C 33.1406 10.4297 33.2539 10.6953 33.4805 10.8867C 33.707 11.0781 33.998 11.1738 34.3535 11.1738ZM 44.1211 8.90039C 44.1211 9.86523 43.9004 10.6426 43.459 11.2324C 43.0176 11.8223 42.4199 12.1172 41.666 12.1172C 40.8965 12.1172 40.291 11.873 39.8496 11.3848L 39.8496 14.4375L 38.7656 14.4375L 38.7656 5.66016L 39.7559 5.66016L 39.8086 6.36328C 40.25 5.81641 40.8633 5.54297 41.6484 5.54297C 42.4102 5.54297 43.0117 5.83008 43.4531 6.4043C 43.8984 6.97852 44.1211 7.77734 44.1211 8.80078L 44.1211 8.90039ZM 43.0371 8.77734C 43.0371 8.0625 42.8848 7.49805 42.5801 7.08398C 42.2754 6.66992 41.8574 6.46289 41.3262 6.46289C 40.6699 6.46289 40.1777 6.75391 39.8496 7.33594L 39.8496 10.3652C 40.1738 10.9434 40.6699 11.2324 41.3379 11.2324C 41.8574 11.2324 42.2695 11.0273 42.5742 10.6172C 42.8828 10.2031 43.0371 9.58984 43.0371 8.77734ZM 46.5879 6.42773C 47.0684 5.83789 47.6934 5.54297 48.4629 5.54297C 49.8027 5.54297 50.4785 6.29883 50.4902 7.81055L 50.4902 12L 49.4062 12L 49.4062 7.80469C 49.4023 7.34766 49.2969 7.00977 49.0898 6.79102C 48.8867 6.57227 48.5684 6.46289 48.1348 6.46289C 47.7832 6.46289 47.4746 6.55664 47.209 6.74414C 46.9434 6.93164 46.7363 7.17773 46.5879 7.48242L 46.5879 12L 45.5039 12L 45.5039 3L 46.5879 3L 46.5879 6.42773ZM 53.291 12L 52.207 12L 52.207 5.66016L 53.291 5.66016L 53.291 12ZM 52.1191 3.97852C 52.1191 3.80273 52.1719 3.6543 52.2773 3.5332C 52.3867 3.41211 52.5469 3.35156 52.7578 3.35156C 52.9688 3.35156 53.1289 3.41211 53.2383 3.5332C 53.3477 3.6543 53.4023 3.80273 53.4023 3.97852C 53.4023 4.1543 53.3477 4.30078 53.2383 4.41797C 53.1289 4.53516 52.9688 4.59375 52.7578 4.59375C 52.5469 4.59375 52.3867 4.53516 52.2773 4.41797C 52.1719 4.30078 52.1191 4.1543 52.1191 3.97852ZM 57.5742 11.2324C 57.9609 11.2324 58.2988 11.1152 58.5879 10.8809C 58.877 10.6465 59.0371 10.3535 59.0684 10.002L 60.0938 10.002C 60.0742 10.3652 59.9492 10.7109 59.7188 11.0391C 59.4883 11.3672 59.1797 11.6289 58.793 11.8242C 58.4102 12.0195 58.0039 12.1172 57.5742 12.1172C 56.7109 12.1172 56.0234 11.8301 55.5117 11.2559C 55.0039 10.6777 54.75 9.88867 54.75 8.88867L 54.75 8.70703C 54.75 8.08984 54.8633 7.54102 55.0898 7.06055C 55.3164 6.58008 55.6406 6.20703 56.0625 5.94141C 56.4883 5.67578 56.9902 5.54297 57.5684 5.54297C 58.2793 5.54297 58.8691 5.75586 59.3379 6.18164C 59.8105 6.60742 60.0625 7.16016 60.0938 7.83984L 59.0684 7.83984C 59.0371 7.42969 58.8809 7.09375 58.5996 6.83203C 58.3223 6.56641 57.9785 6.43359 57.5684 6.43359C 57.0176 6.43359 56.5898 6.63281 56.2852 7.03125C 55.9844 7.42578 55.834 7.99805 55.834 8.74805L 55.834 8.95312C 55.834 9.68359 55.9844 10.2461 56.2852 10.6406C 56.5859 11.0352 57.0156 11.2324 57.5742 11.2324ZM 65.0039 10.3184C 65.0039 10.0254 64.8926 9.79883 64.6699 9.63867C 64.4512 9.47461 64.0664 9.33398 63.5156 9.2168C 62.9688 9.09961 62.5332 8.95898 62.209 8.79492C 61.8887 8.63086 61.6504 8.43555 61.4941 8.20898C 61.3418 7.98242 61.2656 7.71289 61.2656 7.40039C 61.2656 6.88086 61.4844 6.44141 61.9219 6.08203C 62.3633 5.72266 62.9258 5.54297 63.6094 5.54297C 64.3281 5.54297 64.9102 5.72852 65.3555 6.09961C 65.8047 6.4707 66.0293 6.94531 66.0293 7.52344L 64.9395 7.52344C 64.9395 7.22656 64.8125 6.9707 64.5586 6.75586C 64.3086 6.54102 63.9922 6.43359 63.6094 6.43359C 63.2148 6.43359 62.9062 6.51953 62.6836 6.69141C 62.4609 6.86328 62.3496 7.08789 62.3496 7.36523C 62.3496 7.62695 62.4531 7.82422 62.6602 7.95703C 62.8672 8.08984 63.2402 8.2168 63.7793 8.33789C 64.3223 8.45898 64.7617 8.60352 65.0977 8.77148C 65.4336 8.93945 65.6816 9.14258 65.8418 9.38086C 66.0059 9.61523 66.0879 9.90234 66.0879 10.2422C 66.0879 10.8086 65.8613 11.2637 65.4082 11.6074C 64.9551 11.9473 64.3672 12.1172 63.6445 12.1172C 63.1367 12.1172 62.6875 12.0273 62.2969 11.8477C 61.9062 11.668 61.5996 11.418 61.377 11.0977C 61.1582 10.7734 61.0488 10.4238 61.0488 10.0488L 62.1328 10.0488C 62.1523 10.4121 62.2969 10.7012 62.5664 10.916C 62.8398 11.127 63.1992 11.2324 63.6445 11.2324C 64.0547 11.2324 64.3828 11.1504 64.6289 10.9863C 64.8789 10.8184 65.0039 10.5957 65.0039 10.3184ZM 74.6191 3.46289L 74.6191 4.38281L 74.4199 4.38281C 73.5762 4.39844 72.9043 4.64844 72.4043 5.13281C 71.9043 5.61719 71.6152 6.29883 71.5371 7.17773C 71.9863 6.66211 72.5996 6.4043 73.377 6.4043C 74.1191 6.4043 74.7109 6.66602 75.1523 7.18945C 75.5977 7.71289 75.8203 8.38867 75.8203 9.2168C 75.8203 10.0957 75.5801 10.7988 75.0996 11.3262C 74.623 11.8535 73.9824 12.1172 73.1777 12.1172C 72.3613 12.1172 71.6992 11.8047 71.1914 11.1797C 70.6836 10.5508 70.4297 9.74219 70.4297 8.75391L 70.4297 8.33789C 70.4297 6.76758 70.7637 5.56836 71.4316 4.74023C 72.1035 3.9082 73.1016 3.48242 74.4258 3.46289L 74.6191 3.46289ZM 73.1953 7.30664C 72.8242 7.30664 72.4824 7.41797 72.1699 7.64062C 71.8574 7.86328 71.6406 8.14258 71.5195 8.47852L 71.5195 8.87695C 71.5195 9.58008 71.6777 10.1465 71.9941 10.5762C 72.3105 11.0059 72.7051 11.2207 73.1777 11.2207C 73.666 11.2207 74.0488 11.041 74.3262 10.6816C 74.6074 10.3223 74.748 9.85156 74.748 9.26953C 74.748 8.68359 74.6055 8.21094 74.3203 7.85156C 74.0391 7.48828 73.6641 7.30664 73.1953 7.30664ZM 82.6934 12L 77.1035 12L 77.1035 11.2207L 80.0566 7.93945C 80.4941 7.44336 80.7949 7.04102 80.959 6.73242C 81.127 6.41992 81.2109 6.09766 81.2109 5.76562C 81.2109 5.32031 81.0762 4.95508 80.8066 4.66992C 80.5371 4.38477 80.1777 4.24219 79.7285 4.24219C 79.1895 4.24219 78.7695 4.39648 78.4688 4.70508C 78.1719 5.00977 78.0234 5.43555 78.0234 5.98242L 76.9395 5.98242C 76.9395 5.19727 77.1914 4.5625 77.6953 4.07812C 78.2031 3.59375 78.8809 3.35156 79.7285 3.35156C 80.5215 3.35156 81.1484 3.56055 81.6094 3.97852C 82.0703 4.39258 82.3008 4.94531 82.3008 5.63672C 82.3008 6.47656 81.7656 7.47656 80.6953 8.63672L 78.4102 11.1152L 82.6934 11.1152L 82.6934 12ZM 89.1914 8.36133C 89.1914 9.63086 88.9746 10.5742 88.541 11.1914C 88.1074 11.8086 87.4297 12.1172 86.5078 12.1172C 85.5977 12.1172 84.9238 11.8164 84.4863 11.2148C 84.0488 10.6094 83.8223 9.70703 83.8066 8.50781L 83.8066 7.06055C 83.8066 5.80664 84.0234 4.875 84.457 4.26562C 84.8906 3.65625 85.5703 3.35156 86.4961 3.35156C 87.4141 3.35156 88.0898 3.64648 88.5234 4.23633C 88.957 4.82227 89.1797 5.72852 89.1914 6.95508L 89.1914 8.36133ZM 88.1074 6.87891C 88.1074 5.96094 87.9785 5.29297 87.7207 4.875C 87.4629 4.45312 87.0547 4.24219 86.4961 4.24219C 85.9414 4.24219 85.5371 4.45117 85.2832 4.86914C 85.0293 5.28711 84.8984 5.92969 84.8906 6.79688L 84.8906 8.53125C 84.8906 9.45312 85.0234 10.1348 85.2891 10.5762C 85.5586 11.0137 85.9648 11.2324 86.5078 11.2324C 87.043 11.2324 87.4395 11.0254 87.6973 10.6113C 87.959 10.1973 88.0957 9.54492 88.1074 8.6543L 88.1074 6.87891Z"/>
<path id="path13_fill" d="M 4.11914 8.54883L 2.11523 8.54883L 2.11523 12L 0.984375 12L 0.984375 3.46875L 3.80859 3.46875C 4.76953 3.46875 5.50781 3.6875 6.02344 4.125C 6.54297 4.5625 6.80273 5.19922 6.80273 6.03516C 6.80273 6.56641 6.6582 7.0293 6.36914 7.42383C 6.08398 7.81836 5.68555 8.11328 5.17383 8.30859L 7.17773 11.9297L 7.17773 12L 5.9707 12L 4.11914 8.54883ZM 2.11523 7.62891L 3.84375 7.62891C 4.40234 7.62891 4.8457 7.48438 5.17383 7.19531C 5.50586 6.90625 5.67188 6.51953 5.67188 6.03516C 5.67188 5.50781 5.51367 5.10352 5.19727 4.82227C 4.88477 4.54102 4.43164 4.39844 3.83789 4.39453L 2.11523 4.39453L 2.11523 7.62891ZM 12.1289 12C 12.0664 11.875 12.0156 11.6523 11.9766 11.332C 11.4727 11.8555 10.8711 12.1172 10.1719 12.1172C 9.54688 12.1172 9.0332 11.9414 8.63086 11.5898C 8.23242 11.2344 8.0332 10.7852 8.0332 10.2422C 8.0332 9.58203 8.2832 9.07031 8.7832 8.70703C 9.28711 8.33984 9.99414 8.15625 10.9043 8.15625L 11.959 8.15625L 11.959 7.6582C 11.959 7.2793 11.8457 6.97852 11.6191 6.75586C 11.3926 6.5293 11.0586 6.41602 10.6172 6.41602C 10.2305 6.41602 9.90625 6.51367 9.64453 6.70898C 9.38281 6.9043 9.25195 7.14062 9.25195 7.41797L 8.16211 7.41797C 8.16211 7.10156 8.27344 6.79688 8.49609 6.50391C 8.72266 6.20703 9.02734 5.97266 9.41016 5.80078C 9.79688 5.62891 10.2207 5.54297 10.6816 5.54297C 11.4121 5.54297 11.9844 5.72656 12.3984 6.09375C 12.8125 6.45703 13.0273 6.95898 13.043 7.59961L 13.043 10.5176C 13.043 11.0996 13.1172 11.5625 13.2656 11.9062L 13.2656 12L 12.1289 12ZM 10.3301 11.1738C 10.6699 11.1738 10.9922 11.0859 11.2969 10.9102C 11.6016 10.7344 11.8223 10.5059 11.959 10.2246L 11.959 8.92383L 11.1094 8.92383C 9.78125 8.92383 9.11719 9.3125 9.11719 10.0898C 9.11719 10.4297 9.23047 10.6953 9.45703 10.8867C 9.68359 11.0781 9.97461 11.1738 10.3301 11.1738ZM 14.4785 8.77734C 14.4785 7.80469 14.709 7.02344 15.1699 6.43359C 15.6309 5.83984 16.2344 5.54297 16.9805 5.54297C 17.7227 5.54297 18.3105 5.79688 18.7441 6.30469L 18.7441 3L 19.8281 3L 19.8281 12L 18.832 12L 18.7793 11.3203C 18.3457 11.8516 17.7422 12.1172 16.9688 12.1172C 16.2344 12.1172 15.6348 11.8164 15.1699 11.2148C 14.709 10.6133 14.4785 9.82812 14.4785 8.85938L 14.4785 8.77734ZM 15.5625 8.90039C 15.5625 9.61914 15.7109 10.1816 16.0078 10.5879C 16.3047 10.9941 16.7148 11.1973 17.2383 11.1973C 17.9258 11.1973 18.4277 10.8887 18.7441 10.2715L 18.7441 7.35938C 18.4199 6.76172 17.9219 6.46289 17.25 6.46289C 16.7188 6.46289 16.3047 6.66797 16.0078 7.07812C 15.7109 7.48828 15.5625 8.0957 15.5625 8.90039ZM 24.1465 12.1172C 23.2871 12.1172 22.5879 11.8359 22.0488 11.2734C 21.5098 10.707 21.2402 9.95117 21.2402 9.00586L 21.2402 8.80664C 21.2402 8.17773 21.3594 7.61719 21.5977 7.125C 21.8398 6.62891 22.1758 6.24219 22.6055 5.96484C 23.0391 5.68359 23.5078 5.54297 24.0117 5.54297C 24.8359 5.54297 25.4766 5.81445 25.9336 6.35742C 26.3906 6.90039 26.6191 7.67773 26.6191 8.68945L 26.6191 9.14062L 22.3242 9.14062C 22.3398 9.76562 22.5215 10.2715 22.8691 10.6582C 23.2207 11.041 23.666 11.2324 24.2051 11.2324C 24.5879 11.2324 24.9121 11.1543 25.1777 10.998C 25.4434 10.8418 25.6758 10.6348 25.875 10.377L 26.5371 10.8926C 26.0059 11.709 25.209 12.1172 24.1465 12.1172ZM 24.0117 6.43359C 23.5742 6.43359 23.207 6.59375 22.9102 6.91406C 22.6133 7.23047 22.4297 7.67578 22.3594 8.25L 25.5352 8.25L 25.5352 8.16797C 25.5039 7.61719 25.3555 7.19141 25.0898 6.89062C 24.8242 6.58594 24.4648 6.43359 24.0117 6.43359ZM 27.5918 8.77148C 27.5918 8.15039 27.7129 7.5918 27.9551 7.0957C 28.2012 6.59961 28.541 6.2168 28.9746 5.94727C 29.4121 5.67773 29.9102 5.54297 30.4688 5.54297C 31.332 5.54297 32.0293 5.8418 32.5605 6.43945C 33.0957 7.03711 33.3633 7.83203 33.3633 8.82422L 33.3633 8.90039C 33.3633 9.51758 33.2441 10.0723 33.0059 10.5645C 32.7715 11.0527 32.4336 11.4336 31.9922 11.707C 31.5547 11.9805 31.0508 12.1172 30.4805 12.1172C 29.6211 12.1172 28.9238 11.8184 28.3887 11.2207C 27.8574 10.623 27.5918 9.83203 27.5918 8.84766L 27.5918 8.77148ZM 28.6816 8.90039C 28.6816 9.60352 28.8438 10.168 29.168 10.5938C 29.4961 11.0195 29.9336 11.2324 30.4805 11.2324C 31.0312 11.2324 31.4688 11.0176 31.793 10.5879C 32.1172 10.1543 32.2793 9.54883 32.2793 8.77148C 32.2793 8.07617 32.1133 7.51367 31.7812 7.08398C 31.4531 6.65039 31.0156 6.43359 30.4688 6.43359C 29.9336 6.43359 29.502 6.64648 29.1738 7.07227C 28.8457 7.49805 28.6816 8.10742 28.6816 8.90039ZM 35.748 5.66016L 35.7832 6.45703C 36.2676 5.84766 36.9004 5.54297 37.6816 5.54297C 39.0215 5.54297 39.6973 6.29883 39.709 7.81055L 39.709 12L 38.625 12L 38.625 7.80469C 38.6211 7.34766 38.5156 7.00977 38.3086 6.79102C 38.1055 6.57227 37.7871 6.46289 37.3535 6.46289C 37.002 6.46289 36.6934 6.55664 36.4277 6.74414C 36.1621 6.93164 35.9551 7.17773 35.8066 7.48242L 35.8066 12L 34.7227 12L 34.7227 5.66016L 35.748 5.66016ZM 45.6152 8.66016L 45.6152 12L 44.4902 12L 44.4902 3.46875L 47.6367 3.46875C 48.5703 3.46875 49.3008 3.70703 49.8281 4.18359C 50.3594 4.66016 50.625 5.29102 50.625 6.07617C 50.625 6.9043 50.3652 7.54297 49.8457 7.99219C 49.3301 8.4375 48.5898 8.66016 47.625 8.66016L 45.6152 8.66016ZM 45.6152 7.74023L 47.6367 7.74023C 48.2383 7.74023 48.6992 7.59961 49.0195 7.31836C 49.3398 7.0332 49.5 6.62305 49.5 6.08789C 49.5 5.58008 49.3398 5.17383 49.0195 4.86914C 48.6992 4.56445 48.2598 4.40625 47.7012 4.39453L 45.6152 4.39453L 45.6152 7.74023ZM 54.9551 6.63281C 54.791 6.60547 54.6133 6.5918 54.4219 6.5918C 53.7109 6.5918 53.2285 6.89453 52.9746 7.5L 52.9746 12L 51.8906 12L 51.8906 5.66016L 52.9453 5.66016L 52.9629 6.39258C 53.3184 5.82617 53.8223 5.54297 54.4746 5.54297C 54.6855 5.54297 54.8457 5.57031 54.9551 5.625L 54.9551 6.63281ZM 55.5527 8.77148C 55.5527 8.15039 55.6738 7.5918 55.916 7.0957C 56.1621 6.59961 56.502 6.2168 56.9355 5.94727C 57.373 5.67773 57.8711 5.54297 58.4297 5.54297C 59.293 5.54297 59.9902 5.8418 60.5215 6.43945C 61.0566 7.03711 61.3242 7.83203 61.3242 8.82422L 61.3242 8.90039C 61.3242 9.51758 61.2051 10.0723 60.9668 10.5645C 60.7324 11.0527 60.3945 11.4336 59.9531 11.707C 59.5156 11.9805 59.0117 12.1172 58.4414 12.1172C 57.582 12.1172 56.8848 11.8184 56.3496 11.2207C 55.8184 10.623 55.5527 9.83203 55.5527 8.84766L 55.5527 8.77148ZM 56.6426 8.90039C 56.6426 9.60352 56.8047 10.168 57.1289 10.5938C 57.457 11.0195 57.8945 11.2324 58.4414 11.2324C 58.9922 11.2324 59.4297 11.0176 59.7539 10.5879C 60.0781 10.1543 60.2402 9.54883 60.2402 8.77148C 60.2402 8.07617 60.0742 7.51367 59.7422 7.08398C 59.4141 6.65039 58.9766 6.43359 58.4297 6.43359C 57.8945 6.43359 57.4629 6.64648 57.1348 7.07227C 56.8066 7.49805 56.6426 8.10742 56.6426 8.90039ZM 70.125 9.13477L 71.3086 9.13477L 71.3086 10.0195L 70.125 10.0195L 70.125 12L 69.0352 12L 69.0352 10.0195L 65.1504 10.0195L 65.1504 9.38086L 68.9707 3.46875L 70.125 3.46875L 70.125 9.13477ZM 66.3809 9.13477L 69.0352 9.13477L 69.0352 4.95117L 68.9062 5.18555L 66.3809 9.13477ZM 72.7852 7.72266L 73.2188 3.46875L 77.5898 3.46875L 77.5898 4.4707L 74.1387 4.4707L 73.8809 6.79688C 74.2988 6.55078 74.7734 6.42773 75.3047 6.42773C 76.082 6.42773 76.6992 6.68555 77.1562 7.20117C 77.6133 7.71289 77.8418 8.40625 77.8418 9.28125C 77.8418 10.1602 77.6035 10.8535 77.127 11.3613C 76.6543 11.8652 75.9922 12.1172 75.1406 12.1172C 74.3867 12.1172 73.7715 11.9082 73.2949 11.4902C 72.8184 11.0723 72.5469 10.4941 72.4805 9.75586L 73.5059 9.75586C 73.5723 10.2441 73.7461 10.6133 74.0273 10.8633C 74.3086 11.1094 74.6797 11.2324 75.1406 11.2324C 75.6445 11.2324 76.0391 11.0605 76.3242 10.7168C 76.6133 10.373 76.7578 9.89844 76.7578 9.29297C 76.7578 8.72266 76.6016 8.26562 76.2891 7.92188C 75.9805 7.57422 75.5684 7.40039 75.0527 7.40039C 74.5801 7.40039 74.209 7.50391 73.9395 7.71094L 73.6523 7.94531L 72.7852 7.72266ZM 79.5234 7.72266L 79.957 3.46875L 84.3281 3.46875L 84.3281 4.4707L 80.877 4.4707L 80.6191 6.79688C 81.0371 6.55078 81.5117 6.42773 82.043 6.42773C 82.8203 6.42773 83.4375 6.68555 83.8945 7.20117C 84.3516 7.71289 84.5801 8.40625 84.5801 9.28125C 84.5801 10.1602 84.3418 10.8535 83.8652 11.3613C 83.3926 11.8652 82.7305 12.1172 81.8789 12.1172C 81.125 12.1172 80.5098 11.9082 80.0332 11.4902C 79.5566 11.0723 79.2852 10.4941 79.2188 9.75586L 80.2441 9.75586C 80.3105 10.2441 80.4844 10.6133 80.7656 10.8633C 81.0469 11.1094 81.418 11.2324 81.8789 11.2324C 82.3828 11.2324 82.7773 11.0605 83.0625 10.7168C 83.3516 10.373 83.4961 9.89844 83.4961 9.29297C 83.4961 8.72266 83.3398 8.26562 83.0273 7.92188C 82.7188 7.57422 82.3066 7.40039 81.791 7.40039C 81.3184 7.40039 80.9473 7.50391 80.6777 7.71094L 80.3906 7.94531L 79.5234 7.72266Z"/>
<path id="path14_fill" d="M 5.0918 8.66016L 5.0918 12L 3.9668 12L 3.9668 3.46875L 7.11328 3.46875C 8.04688 3.46875 8.77734 3.70703 9.30469 4.18359C 9.83594 4.66016 10.1016 5.29102 10.1016 6.07617C 10.1016 6.9043 9.8418 7.54297 9.32227 7.99219C 8.80664 8.4375 8.06641 8.66016 7.10156 8.66016L 5.0918 8.66016ZM 5.0918 7.74023L 7.11328 7.74023C 7.71484 7.74023 8.17578 7.59961 8.49609 7.31836C 8.81641 7.0332 8.97656 6.62305 8.97656 6.08789C 8.97656 5.58008 8.81641 5.17383 8.49609 4.86914C 8.17578 4.56445 7.73633 4.40625 7.17773 4.39453L 5.0918 4.39453L 5.0918 7.74023ZM 12.5449 12L 11.4609 12L 11.4609 3L 12.5449 3L 12.5449 12ZM 18.1992 11.373C 17.7773 11.8691 17.1582 12.1172 16.3418 12.1172C 15.666 12.1172 15.1504 11.9219 14.7949 11.5312C 14.4434 11.1367 14.2656 10.5547 14.2617 9.78516L 14.2617 5.66016L 15.3457 5.66016L 15.3457 9.75586C 15.3457 10.7168 15.7363 11.1973 16.5176 11.1973C 17.3457 11.1973 17.8965 10.8887 18.1699 10.2715L 18.1699 5.66016L 19.2539 5.66016L 19.2539 12L 18.2227 12L 18.1992 11.373ZM 24.5977 10.3184C 24.5977 10.0254 24.4863 9.79883 24.2637 9.63867C 24.0449 9.47461 23.6602 9.33398 23.1094 9.2168C 22.5625 9.09961 22.127 8.95898 21.8027 8.79492C 21.4824 8.63086 21.2441 8.43555 21.0879 8.20898C 20.9355 7.98242 20.8594 7.71289 20.8594 7.40039C 20.8594 6.88086 21.0781 6.44141 21.5156 6.08203C 21.957 5.72266 22.5195 5.54297 23.2031 5.54297C 23.9219 5.54297 24.5039 5.72852 24.9492 6.09961C 25.3984 6.4707 25.623 6.94531 25.623 7.52344L 24.5332 7.52344C 24.5332 7.22656 24.4062 6.9707 24.1523 6.75586C 23.9023 6.54102 23.5859 6.43359 23.2031 6.43359C 22.8086 6.43359 22.5 6.51953 22.2773 6.69141C 22.0547 6.86328 21.9434 7.08789 21.9434 7.36523C 21.9434 7.62695 22.0469 7.82422 22.2539 7.95703C 22.4609 8.08984 22.834 8.2168 23.373 8.33789C 23.916 8.45898 24.3555 8.60352 24.6914 8.77148C 25.0273 8.93945 25.2754 9.14258 25.4355 9.38086C 25.5996 9.61523 25.6816 9.90234 25.6816 10.2422C 25.6816 10.8086 25.4551 11.2637 25.002 11.6074C 24.5488 11.9473 23.9609 12.1172 23.2383 12.1172C 22.7305 12.1172 22.2812 12.0273 21.8906 11.8477C 21.5 11.668 21.1934 11.418 20.9707 11.0977C 20.752 10.7734 20.6426 10.4238 20.6426 10.0488L 21.7266 10.0488C 21.7461 10.4121 21.8906 10.7012 22.1602 10.916C 22.4336 11.127 22.793 11.2324 23.2383 11.2324C 23.6484 11.2324 23.9766 11.1504 24.2227 10.9863C 24.4727 10.8184 24.5977 10.5957 24.5977 10.3184ZM 36.5391 10.8809C 36.25 11.2949 35.8457 11.6055 35.3262 11.8125C 34.8105 12.0156 34.209 12.1172 33.5215 12.1172C 32.8262 12.1172 32.209 11.9551 31.6699 11.6309C 31.1309 11.3027 30.7129 10.8379 30.416 10.2363C 30.123 9.63477 29.9727 8.9375 29.9648 8.14453L 29.9648 7.40039C 29.9648 6.11523 30.2637 5.11914 30.8613 4.41211C 31.4629 3.70508 32.3066 3.35156 33.3926 3.35156C 34.2832 3.35156 35 3.58008 35.543 4.03711C 36.0859 4.49023 36.418 5.13477 36.5391 5.9707L 35.4141 5.9707C 35.2031 4.8418 34.5312 4.27734 33.3984 4.27734C 32.6445 4.27734 32.0723 4.54297 31.6816 5.07422C 31.2949 5.60156 31.0996 6.36719 31.0957 7.37109L 31.0957 8.06836C 31.0957 9.02539 31.3145 9.78711 31.752 10.3535C 32.1895 10.916 32.7812 11.1973 33.5273 11.1973C 33.9492 11.1973 34.3184 11.1504 34.6348 11.0566C 34.9512 10.9629 35.2129 10.8047 35.4199 10.582L 35.4199 8.66602L 33.4453 8.66602L 33.4453 7.75195L 36.5391 7.75195L 36.5391 10.8809ZM 41.3145 6.63281C 41.1504 6.60547 40.9727 6.5918 40.7812 6.5918C 40.0703 6.5918 39.5879 6.89453 39.334 7.5L 39.334 12L 38.25 12L 38.25 5.66016L 39.3047 5.66016L 39.3223 6.39258C 39.6777 5.82617 40.1816 5.54297 40.834 5.54297C 41.0449 5.54297 41.2051 5.57031 41.3145 5.625L 41.3145 6.63281ZM 45.9961 12C 45.9336 11.875 45.8828 11.6523 45.8438 11.332C 45.3398 11.8555 44.7383 12.1172 44.0391 12.1172C 43.4141 12.1172 42.9004 11.9414 42.498 11.5898C 42.0996 11.2344 41.9004 10.7852 41.9004 10.2422C 41.9004 9.58203 42.1504 9.07031 42.6504 8.70703C 43.1543 8.33984 43.8613 8.15625 44.7715 8.15625L 45.8262 8.15625L 45.8262 7.6582C 45.8262 7.2793 45.7129 6.97852 45.4863 6.75586C 45.2598 6.5293 44.9258 6.41602 44.4844 6.41602C 44.0977 6.41602 43.7734 6.51367 43.5117 6.70898C 43.25 6.9043 43.1191 7.14062 43.1191 7.41797L 42.0293 7.41797C 42.0293 7.10156 42.1406 6.79688 42.3633 6.50391C 42.5898 6.20703 42.8945 5.97266 43.2773 5.80078C 43.6641 5.62891 44.0879 5.54297 44.5488 5.54297C 45.2793 5.54297 45.8516 5.72656 46.2656 6.09375C 46.6797 6.45703 46.8945 6.95898 46.9102 7.59961L 46.9102 10.5176C 46.9102 11.0996 46.9844 11.5625 47.1328 11.9062L 47.1328 12L 45.9961 12ZM 44.1973 11.1738C 44.5371 11.1738 44.8594 11.0859 45.1641 10.9102C 45.4688 10.7344 45.6895 10.5059 45.8262 10.2246L 45.8262 8.92383L 44.9766 8.92383C 43.6484 8.92383 42.9844 9.3125 42.9844 10.0898C 42.9844 10.4297 43.0977 10.6953 43.3242 10.8867C 43.5508 11.0781 43.8418 11.1738 44.1973 11.1738ZM 53.9648 8.90039C 53.9648 9.86523 53.7441 10.6426 53.3027 11.2324C 52.8613 11.8223 52.2637 12.1172 51.5098 12.1172C 50.7402 12.1172 50.1348 11.873 49.6934 11.3848L 49.6934 14.4375L 48.6094 14.4375L 48.6094 5.66016L 49.5996 5.66016L 49.6523 6.36328C 50.0938 5.81641 50.707 5.54297 51.4922 5.54297C 52.2539 5.54297 52.8555 5.83008 53.2969 6.4043C 53.7422 6.97852 53.9648 7.77734 53.9648 8.80078L 53.9648 8.90039ZM 52.8809 8.77734C 52.8809 8.0625 52.7285 7.49805 52.4238 7.08398C 52.1191 6.66992 51.7012 6.46289 51.1699 6.46289C 50.5137 6.46289 50.0215 6.75391 49.6934 7.33594L 49.6934 10.3652C 50.0176 10.9434 50.5137 11.2324 51.1816 11.2324C 51.7012 11.2324 52.1133 11.0273 52.418 10.6172C 52.7266 10.2031 52.8809 9.58984 52.8809 8.77734ZM 56.4316 6.42773C 56.9121 5.83789 57.5371 5.54297 58.3066 5.54297C 59.6465 5.54297 60.3223 6.29883 60.334 7.81055L 60.334 12L 59.25 12L 59.25 7.80469C 59.2461 7.34766 59.1406 7.00977 58.9336 6.79102C 58.7305 6.57227 58.4121 6.46289 57.9785 6.46289C 57.627 6.46289 57.3184 6.55664 57.0527 6.74414C 56.7871 6.93164 56.5801 7.17773 56.4316 7.48242L 56.4316 12L 55.3477 12L 55.3477 3L 56.4316 3L 56.4316 6.42773ZM 63.1348 12L 62.0508 12L 62.0508 5.66016L 63.1348 5.66016L 63.1348 12ZM 61.9629 3.97852C 61.9629 3.80273 62.0156 3.6543 62.1211 3.5332C 62.2305 3.41211 62.3906 3.35156 62.6016 3.35156C 62.8125 3.35156 62.9727 3.41211 63.082 3.5332C 63.1914 3.6543 63.2461 3.80273 63.2461 3.97852C 63.2461 4.1543 63.1914 4.30078 63.082 4.41797C 62.9727 4.53516 62.8125 4.59375 62.6016 4.59375C 62.3906 4.59375 62.2305 4.53516 62.1211 4.41797C 62.0156 4.30078 61.9629 4.1543 61.9629 3.97852ZM 67.418 11.2324C 67.8047 11.2324 68.1426 11.1152 68.4316 10.8809C 68.7207 10.6465 68.8809 10.3535 68.9121 10.002L 69.9375 10.002C 69.918 10.3652 69.793 10.7109 69.5625 11.0391C 69.332 11.3672 69.0234 11.6289 68.6367 11.8242C 68.2539 12.0195 67.8477 12.1172 67.418 12.1172C 66.5547 12.1172 65.8672 11.8301 65.3555 11.2559C 64.8477 10.6777 64.5938 9.88867 64.5938 8.88867L 64.5938 8.70703C 64.5938 8.08984 64.707 7.54102 64.9336 7.06055C 65.1602 6.58008 65.4844 6.20703 65.9062 5.94141C 66.332 5.67578 66.834 5.54297 67.4121 5.54297C 68.123 5.54297 68.7129 5.75586 69.1816 6.18164C 69.6543 6.60742 69.9062 7.16016 69.9375 7.83984L 68.9121 7.83984C 68.8809 7.42969 68.7246 7.09375 68.4434 6.83203C 68.166 6.56641 67.8223 6.43359 67.4121 6.43359C 66.8613 6.43359 66.4336 6.63281 66.1289 7.03125C 65.8281 7.42578 65.6777 7.99805 65.6777 8.74805L 65.6777 8.95312C 65.6777 9.68359 65.8281 10.2461 66.1289 10.6406C 66.4297 11.0352 66.8594 11.2324 67.418 11.2324ZM 74.8477 10.3184C 74.8477 10.0254 74.7363 9.79883 74.5137 9.63867C 74.2949 9.47461 73.9102 9.33398 73.3594 9.2168C 72.8125 9.09961 72.377 8.95898 72.0527 8.79492C 71.7324 8.63086 71.4941 8.43555 71.3379 8.20898C 71.1855 7.98242 71.1094 7.71289 71.1094 7.40039C 71.1094 6.88086 71.3281 6.44141 71.7656 6.08203C 72.207 5.72266 72.7695 5.54297 73.4531 5.54297C 74.1719 5.54297 74.7539 5.72852 75.1992 6.09961C 75.6484 6.4707 75.873 6.94531 75.873 7.52344L 74.7832 7.52344C 74.7832 7.22656 74.6562 6.9707 74.4023 6.75586C 74.1523 6.54102 73.8359 6.43359 73.4531 6.43359C 73.0586 6.43359 72.75 6.51953 72.5273 6.69141C 72.3047 6.86328 72.1934 7.08789 72.1934 7.36523C 72.1934 7.62695 72.2969 7.82422 72.5039 7.95703C 72.7109 8.08984 73.084 8.2168 73.623 8.33789C 74.166 8.45898 74.6055 8.60352 74.9414 8.77148C 75.2773 8.93945 75.5254 9.14258 75.6855 9.38086C 75.8496 9.61523 75.9316 9.90234 75.9316 10.2422C 75.9316 10.8086 75.7051 11.2637 75.252 11.6074C 74.7988 11.9473 74.2109 12.1172 73.4883 12.1172C 72.9805 12.1172 72.5312 12.0273 72.1406 11.8477C 71.75 11.668 71.4434 11.418 71.2207 11.0977C 71.002 10.7734 70.8926 10.4238 70.8926 10.0488L 71.9766 10.0488C 71.9961 10.4121 72.1406 10.7012 72.4102 10.916C 72.6836 11.127 73.043 11.2324 73.4883 11.2324C 73.8984 11.2324 74.2266 11.1504 74.4727 10.9863C 74.7227 10.8184 74.8477 10.5957 74.8477 10.3184ZM 84.4629 3.46289L 84.4629 4.38281L 84.2637 4.38281C 83.4199 4.39844 82.748 4.64844 82.248 5.13281C 81.748 5.61719 81.459 6.29883 81.3809 7.17773C 81.8301 6.66211 82.4434 6.4043 83.2207 6.4043C 83.9629 6.4043 84.5547 6.66602 84.9961 7.18945C 85.4414 7.71289 85.6641 8.38867 85.6641 9.2168C 85.6641 10.0957 85.4238 10.7988 84.9434 11.3262C 84.4668 11.8535 83.8262 12.1172 83.0215 12.1172C 82.2051 12.1172 81.543 11.8047 81.0352 11.1797C 80.5273 10.5508 80.2734 9.74219 80.2734 8.75391L 80.2734 8.33789C 80.2734 6.76758 80.6074 5.56836 81.2754 4.74023C 81.9473 3.9082 82.9453 3.48242 84.2695 3.46289L 84.4629 3.46289ZM 83.0391 7.30664C 82.668 7.30664 82.3262 7.41797 82.0137 7.64062C 81.7012 7.86328 81.4844 8.14258 81.3633 8.47852L 81.3633 8.87695C 81.3633 9.58008 81.5215 10.1465 81.8379 10.5762C 82.1543 11.0059 82.5488 11.2207 83.0215 11.2207C 83.5098 11.2207 83.8926 11.041 84.1699 10.6816C 84.4512 10.3223 84.5918 9.85156 84.5918 9.26953C 84.5918 8.68359 84.4492 8.21094 84.1641 7.85156C 83.8828 7.48828 83.5078 7.30664 83.0391 7.30664ZM 87.4453 7.72266L 87.8789 3.46875L 92.25 3.46875L 92.25 4.4707L 88.7988 4.4707L 88.541 6.79688C 88.959 6.55078 89.4336 6.42773 89.9648 6.42773C 90.7422 6.42773 91.3594 6.68555 91.8164 7.20117C 92.2734 7.71289 92.502 8.40625 92.502 9.28125C 92.502 10.1602 92.2637 10.8535 91.7871 11.3613C 91.3145 11.8652 90.6523 12.1172 89.8008 12.1172C 89.0469 12.1172 88.4316 11.9082 87.9551 11.4902C 87.4785 11.0723 87.207 10.4941 87.1406 9.75586L 88.166 9.75586C 88.2324 10.2441 88.4062 10.6133 88.6875 10.8633C 88.9688 11.1094 89.3398 11.2324 89.8008 11.2324C 90.3047 11.2324 90.6992 11.0605 90.9844 10.7168C 91.2734 10.373 91.418 9.89844 91.418 9.29297C 91.418 8.72266 91.2617 8.26562 90.9492 7.92188C 90.6406 7.57422 90.2285 7.40039 89.7129 7.40039C 89.2402 7.40039 88.8691 7.50391 88.5996 7.71094L 88.3125 7.94531L 87.4453 7.72266ZM 99.0352 8.36133C 99.0352 9.63086 98.8184 10.5742 98.3848 11.1914C 97.9512 11.8086 97.2734 12.1172 96.3516 12.1172C 95.4414 12.1172 94.7676 11.8164 94.3301 11.2148C 93.8926 10.6094 93.666 9.70703 93.6504 8.50781L 93.6504 7.06055C 93.6504 5.80664 93.8672 4.875 94.3008 4.26562C 94.7344 3.65625 95.4141 3.35156 96.3398 3.35156C 97.2578 3.35156 97.9336 3.64648 98.3672 4.23633C 98.8008 4.82227 99.0234 5.72852 99.0352 6.95508L 99.0352 8.36133ZM 97.9512 6.87891C 97.9512 5.96094 97.8223 5.29297 97.5645 4.875C 97.3066 4.45312 96.8984 4.24219 96.3398 4.24219C 95.7852 4.24219 95.3809 4.45117 95.127 4.86914C 94.873 5.28711 94.7422 5.92969 94.7344 6.79688L 94.7344 8.53125C 94.7344 9.45312 94.8672 10.1348 95.1328 10.5762C 95.4023 11.0137 95.8086 11.2324 96.3516 11.2324C 96.8867 11.2324 97.2832 11.0254 97.541 10.6113C 97.8027 10.1973 97.9395 9.54492 97.9512 8.6543L 97.9512 6.87891Z"/>
<path id="path15_fill" d="M 0 0L 204 0L 204 57L 0 57L 0 0Z"/>
<path id="path16_fill" d="M 4.12 12.77C 3.44667 12.21 2.91333 11.55 2.52 10.79C 2.13333 10.03 1.94 9.17333 1.94 8.22C 1.94 7.26667 2.13333 6.41 2.52 5.65C 2.91333 4.89 3.44667 4.23 4.12 3.67L 4.76 4.2C 4.12667 4.77333 3.66333 5.38333 3.37 6.03C 3.07667 6.67667 2.93 7.40667 2.93 8.22C 2.93 9.03333 3.07667 9.76333 3.37 10.41C 3.66333 11.0567 4.12667 11.6667 4.76 12.24L 4.12 12.77ZM 6.70609 3.94L 9.40609 3.94L 9.40609 9.27C 9.40609 9.60333 9.48943 9.84 9.65609 9.98C 9.82276 10.1133 10.0328 10.18 10.2861 10.18C 10.5261 10.18 10.8061 10.1167 11.1261 9.99L 11.3961 10.84C 11.1628 10.92 10.9428 10.9867 10.7361 11.04C 10.5361 11.0933 10.2928 11.12 10.0061 11.12C 9.42609 11.12 8.98943 10.9533 8.69609 10.62C 8.40276 10.2867 8.25609 9.81667 8.25609 9.21L 8.25609 4.85L 6.70609 4.85L 6.70609 3.94ZM 12.7022 9.68C 12.7022 9.40667 12.7655 9.16667 12.8922 8.96C 13.0189 8.74667 13.2189 8.56667 13.4922 8.42C 13.7655 8.27333 14.1155 8.15333 14.5422 8.06C 14.9689 7.96667 15.4855 7.9 16.0922 7.86C 16.0722 7.58 15.9722 7.35 15.7922 7.17C 15.6122 6.99 15.3222 6.9 14.9222 6.9C 14.6422 6.9 14.3655 6.95333 14.0922 7.06C 13.8255 7.16 13.5655 7.28 13.3122 7.42L 12.8922 6.65C 13.1922 6.47667 13.5355 6.32 13.9222 6.18C 14.3089 6.04 14.7122 5.97 15.1322 5.97C 15.8189 5.97 16.3422 6.15333 16.7022 6.52C 17.0622 6.88 17.2422 7.40333 17.2422 8.09L 17.2422 11L 16.3022 11L 16.2122 10.39L 16.1822 10.39C 15.9222 10.59 15.6322 10.7633 15.3122 10.91C 14.9989 11.05 14.6755 11.12 14.3422 11.12C 14.1022 11.12 13.8822 11.0833 13.6822 11.01C 13.4822 10.9433 13.3089 10.8467 13.1622 10.72C 13.0155 10.5933 12.9022 10.4433 12.8222 10.27C 12.7422 10.09 12.7022 9.89333 12.7022 9.68ZM 13.8122 9.59C 13.8122 9.81 13.8955 9.97 14.0622 10.07C 14.2355 10.17 14.4455 10.22 14.6922 10.22C 14.9389 10.22 15.1755 10.1667 15.4022 10.06C 15.6355 9.94667 15.8655 9.8 16.0922 9.62L 16.0922 8.58C 15.6522 8.61333 15.2855 8.66 14.9922 8.72C 14.6989 8.77333 14.4655 8.84333 14.2922 8.93C 14.1189 9.01667 13.9955 9.11667 13.9222 9.23C 13.8489 9.33667 13.8122 9.45667 13.8122 9.59ZM 19.9683 11.4L 19.9683 12.94L 18.8083 12.94L 18.8083 6.09L 19.7583 6.09L 19.8483 6.65L 19.8783 6.65C 20.0916 6.45667 20.3349 6.29667 20.6083 6.17C 20.8883 6.03667 21.1683 5.97 21.4483 5.97C 21.7683 5.97 22.0516 6.03 22.2983 6.15C 22.5516 6.26333 22.7616 6.43 22.9283 6.65C 23.1016 6.87 23.2316 7.13333 23.3183 7.44C 23.4116 7.74667 23.4583 8.09 23.4583 8.47C 23.4583 8.89 23.3983 9.26667 23.2783 9.6C 23.1583 9.92667 22.9949 10.2033 22.7883 10.43C 22.5883 10.65 22.3549 10.82 22.0883 10.94C 21.8283 11.06 21.5583 11.12 21.2783 11.12C 21.0516 11.12 20.8183 11.07 20.5783 10.97C 20.3449 10.87 20.1283 10.7267 19.9283 10.54L 19.9683 11.4ZM 19.9683 9.72C 20.1483 9.88667 20.3316 10.0033 20.5183 10.07C 20.7116 10.1367 20.8849 10.17 21.0383 10.17C 21.3916 10.17 21.6849 10.03 21.9183 9.75C 22.1516 9.46333 22.2683 9.04 22.2683 8.48C 22.2683 7.98667 22.1783 7.60333 21.9983 7.33C 21.8183 7.05667 21.5283 6.92 21.1283 6.92C 20.9416 6.92 20.7516 6.96667 20.5583 7.06C 20.3649 7.15333 20.1683 7.30333 19.9683 7.51L 19.9683 9.72ZM 25.8844 7L 24.5744 7L 24.5744 6.14L 25.9344 6.09L 26.0844 4.75L 27.0344 4.75L 27.0344 6.09L 29.2744 6.09L 29.2744 7L 27.0344 7L 27.0344 9.02C 27.0344 9.42667 27.1177 9.72667 27.2844 9.92C 27.451 10.1067 27.7444 10.2 28.1644 10.2C 28.3777 10.2 28.571 10.1833 28.7444 10.15C 28.9177 10.11 29.0844 10.06 29.2444 10L 29.4644 10.84C 29.2444 10.9133 29.001 10.9767 28.7344 11.03C 28.4677 11.09 28.1844 11.12 27.8844 11.12C 27.511 11.12 27.1977 11.07 26.9444 10.97C 26.691 10.87 26.4844 10.73 26.3244 10.55C 26.171 10.3633 26.0577 10.14 25.9844 9.88C 25.9177 9.62 25.8844 9.33333 25.8844 9.02L 25.8844 7ZM 30.5105 8.55C 30.5105 8.14333 30.5771 7.78 30.7105 7.46C 30.8505 7.14 31.0338 6.87 31.2605 6.65C 31.4871 6.43 31.7505 6.26333 32.0505 6.15C 32.3505 6.03 32.6605 5.97 32.9805 5.97C 33.3005 5.97 33.6105 6.03 33.9105 6.15C 34.2105 6.26333 34.4738 6.43 34.7005 6.65C 34.9271 6.87 35.1071 7.14 35.2405 7.46C 35.3805 7.78 35.4505 8.14333 35.4505 8.55C 35.4505 8.95667 35.3805 9.32 35.2405 9.64C 35.1071 9.96 34.9271 10.23 34.7005 10.45C 34.4738 10.67 34.2105 10.8367 33.9105 10.95C 33.6105 11.0633 33.3005 11.12 32.9805 11.12C 32.6605 11.12 32.3505 11.0633 32.0505 10.95C 31.7505 10.8367 31.4871 10.67 31.2605 10.45C 31.0338 10.23 30.8505 9.96 30.7105 9.64C 30.5771 9.32 30.5105 8.95667 30.5105 8.55ZM 31.7005 8.55C 31.7005 9.04333 31.8138 9.44 32.0405 9.74C 32.2671 10.0333 32.5805 10.18 32.9805 10.18C 33.3805 10.18 33.6938 10.0333 33.9205 9.74C 34.1471 9.44 34.2605 9.04333 34.2605 8.55C 34.2605 8.05 34.1471 7.65333 33.9205 7.36C 33.6938 7.06 33.3805 6.91 32.9805 6.91C 32.5805 6.91 32.2671 7.06 32.0405 7.36C 31.8138 7.65333 31.7005 8.05 31.7005 8.55ZM 37.9566 11.4L 37.9566 12.94L 36.7966 12.94L 36.7966 6.09L 37.7466 6.09L 37.8366 6.65L 37.8666 6.65C 38.0799 6.45667 38.3232 6.29667 38.5966 6.17C 38.8766 6.03667 39.1566 5.97 39.4366 5.97C 39.7566 5.97 40.0399 6.03 40.2866 6.15C 40.5399 6.26333 40.7499 6.43 40.9166 6.65C 41.0899 6.87 41.2199 7.13333 41.3066 7.44C 41.3999 7.74667 41.4466 8.09 41.4466 8.47C 41.4466 8.89 41.3866 9.26667 41.2666 9.6C 41.1466 9.92667 40.9832 10.2033 40.7766 10.43C 40.5766 10.65 40.3432 10.82 40.0766 10.94C 39.8166 11.06 39.5466 11.12 39.2666 11.12C 39.0399 11.12 38.8066 11.07 38.5666 10.97C 38.3332 10.87 38.1166 10.7267 37.9166 10.54L 37.9566 11.4ZM 37.9566 9.72C 38.1366 9.88667 38.3199 10.0033 38.5066 10.07C 38.6999 10.1367 38.8732 10.17 39.0266 10.17C 39.3799 10.17 39.6732 10.03 39.9066 9.75C 40.1399 9.46333 40.2566 9.04 40.2566 8.48C 40.2566 7.98667 40.1666 7.60333 39.9866 7.33C 39.8066 7.05667 39.5166 6.92 39.1166 6.92C 38.9299 6.92 38.7399 6.96667 38.5466 7.06C 38.3532 7.15333 38.1566 7.30333 37.9566 7.51L 37.9566 9.72ZM 43.1327 9.63C 43.4127 9.82333 43.7027 9.97667 44.0027 10.09C 44.3093 10.1967 44.6527 10.25 45.0327 10.25C 45.4193 10.25 45.7027 10.1967 45.8827 10.09C 46.0627 9.97667 46.1527 9.83333 46.1527 9.66C 46.1527 9.48667 46.036 9.34333 45.8027 9.23C 45.5693 9.11 45.2027 8.98333 44.7027 8.85C 44.4693 8.79 44.2427 8.71667 44.0227 8.63C 43.8027 8.54333 43.6093 8.44333 43.4427 8.33C 43.276 8.21667 43.1427 8.08667 43.0427 7.94C 42.9427 7.79333 42.8927 7.62667 42.8927 7.44C 42.8927 7.00667 43.0793 6.65333 43.4527 6.38C 43.826 6.10667 44.3627 5.97 45.0627 5.97C 45.4627 5.97 45.8393 6.03667 46.1927 6.17C 46.546 6.30333 46.8493 6.45333 47.1027 6.62L 46.5727 7.33C 46.3527 7.18333 46.116 7.06667 45.8627 6.98C 45.616 6.88667 45.3527 6.84 45.0727 6.84C 44.6927 6.84 44.426 6.89333 44.2727 7C 44.1193 7.1 44.0427 7.22667 44.0427 7.38C 44.0427 7.46667 44.076 7.54667 44.1427 7.62C 44.216 7.68667 44.3127 7.75 44.4327 7.81C 44.5593 7.86333 44.706 7.91667 44.8727 7.97C 45.0393 8.02333 45.2227 8.07333 45.4227 8.12C 45.7093 8.19333 45.966 8.27667 46.1927 8.37C 46.426 8.45667 46.6227 8.55667 46.7827 8.67C 46.9493 8.78333 47.076 8.91667 47.1627 9.07C 47.256 9.22333 47.3027 9.4 47.3027 9.6C 47.3027 9.81333 47.2527 10.0133 47.1527 10.2C 47.0527 10.38 46.906 10.54 46.7127 10.68C 46.5193 10.8133 46.2793 10.92 45.9927 11C 45.706 11.08 45.376 11.12 45.0027 11.12C 44.5427 11.12 44.1027 11.0467 43.6827 10.9C 43.2627 10.7533 42.8993 10.5733 42.5927 10.36L 43.1327 9.63ZM 50.0987 3.92L 52.9588 3.92L 52.9588 4.55L 50.9887 4.55L 50.9887 11.89L 52.9588 11.89L 52.9588 12.52L 50.0987 12.52L 50.0987 3.92ZM 86.9253 11.89L 86.9253 4.55L 84.9653 4.55L 84.9653 3.92L 87.8253 3.92L 87.8253 12.52L 84.9653 12.52L 84.9653 11.89L 86.9253 11.89ZM 25.9944 23.11C 25.9944 22.8167 26.0877 22.5767 26.2744 22.39C 26.461 22.1967 26.6977 22.1 26.9844 22.1C 27.271 22.1 27.5077 22.1967 27.6944 22.39C 27.881 22.5767 27.9744 22.8167 27.9744 23.11C 27.9744 23.4033 27.881 23.6467 27.6944 23.84C 27.5077 24.0267 27.271 24.12 26.9844 24.12C 26.6977 24.12 26.461 24.0267 26.2744 23.84C 26.0877 23.6467 25.9944 23.4033 25.9944 23.11ZM 30.8005 16.94L 31.9605 16.94L 31.9605 18.76L 31.8905 19.81C 32.1171 19.5833 32.3705 19.3867 32.6505 19.22C 32.9371 19.0533 33.2705 18.97 33.6505 18.97C 34.2171 18.97 34.6338 19.1433 34.9005 19.49C 35.1671 19.83 35.3005 20.32 35.3005 20.96L 35.3005 24L 34.1405 24L 34.1405 21.11C 34.1405 20.71 34.0705 20.42 33.9305 20.24C 33.7971 20.0533 33.5605 19.96 33.2205 19.96C 32.9805 19.96 32.7671 20.0167 32.5805 20.13C 32.3938 20.2433 32.1871 20.4167 31.9605 20.65L 31.9605 24L 30.8005 24L 30.8005 16.94ZM 36.5966 21.55C 36.5966 21.15 36.6666 20.79 36.8066 20.47C 36.9532 20.15 37.1432 19.88 37.3766 19.66C 37.6099 19.4333 37.8766 19.2633 38.1766 19.15C 38.4832 19.03 38.7966 18.97 39.1166 18.97C 39.4832 18.97 39.8066 19.03 40.0866 19.15C 40.3732 19.2633 40.6132 19.4233 40.8066 19.63C 40.9999 19.83 41.1466 20.0733 41.2466 20.36C 41.3466 20.6467 41.3966 20.96 41.3966 21.3C 41.3966 21.4133 41.3899 21.52 41.3766 21.62C 41.3699 21.72 41.3599 21.8 41.3466 21.86L 37.7766 21.86C 37.8166 22.3 37.9899 22.64 38.2966 22.88C 38.6032 23.1133 38.9799 23.23 39.4266 23.23C 39.6799 23.23 39.9166 23.1967 40.1366 23.13C 40.3566 23.0567 40.5799 22.9567 40.8066 22.83L 41.1966 23.55C 40.9299 23.7167 40.6332 23.8533 40.3066 23.96C 39.9799 24.0667 39.6366 24.12 39.2766 24.12C 38.9032 24.12 38.5532 24.0633 38.2266 23.95C 37.8999 23.83 37.6166 23.66 37.3766 23.44C 37.1366 23.22 36.9466 22.9533 36.8066 22.64C 36.6666 22.32 36.5966 21.9567 36.5966 21.55ZM 40.3366 21.08C 40.3366 20.7 40.2366 20.4033 40.0366 20.19C 39.8366 19.97 39.5399 19.86 39.1466 19.86C 38.8132 19.86 38.5166 19.9633 38.2566 20.17C 37.9966 20.3767 37.8332 20.68 37.7666 21.08L 40.3366 21.08ZM 42.6827 22.68C 42.6827 22.4067 42.746 22.1667 42.8727 21.96C 42.9993 21.7467 43.1993 21.5667 43.4727 21.42C 43.746 21.2733 44.096 21.1533 44.5227 21.06C 44.9493 20.9667 45.466 20.9 46.0727 20.86C 46.0527 20.58 45.9527 20.35 45.7727 20.17C 45.5927 19.99 45.3027 19.9 44.9027 19.9C 44.6227 19.9 44.346 19.9533 44.0727 20.06C 43.806 20.16 43.546 20.28 43.2927 20.42L 42.8727 19.65C 43.1727 19.4767 43.516 19.32 43.9027 19.18C 44.2893 19.04 44.6927 18.97 45.1127 18.97C 45.7993 18.97 46.3227 19.1533 46.6827 19.52C 47.0427 19.88 47.2227 20.4033 47.2227 21.09L 47.2227 24L 46.2827 24L 46.1927 23.39L 46.1627 23.39C 45.9027 23.59 45.6127 23.7633 45.2927 23.91C 44.9793 24.05 44.656 24.12 44.3227 24.12C 44.0827 24.12 43.8627 24.0833 43.6627 24.01C 43.4627 23.9433 43.2893 23.8467 43.1427 23.72C 42.996 23.5933 42.8827 23.4433 42.8027 23.27C 42.7227 23.09 42.6827 22.8933 42.6827 22.68ZM 43.7927 22.59C 43.7927 22.81 43.876 22.97 44.0427 23.07C 44.216 23.17 44.426 23.22 44.6727 23.22C 44.9193 23.22 45.156 23.1667 45.3827 23.06C 45.616 22.9467 45.846 22.8 46.0727 22.62L 46.0727 21.58C 45.6327 21.6133 45.266 21.66 44.9727 21.72C 44.6793 21.7733 44.446 21.8433 44.2727 21.93C 44.0993 22.0167 43.976 22.1167 43.9027 22.23C 43.8293 22.3367 43.7927 22.4567 43.7927 22.59ZM 48.4987 21.55C 48.4987 21.15 48.5588 20.79 48.6788 20.47C 48.7988 20.15 48.9588 19.88 49.1588 19.66C 49.3654 19.44 49.5988 19.27 49.8587 19.15C 50.1187 19.03 50.3888 18.97 50.6688 18.97C 50.9621 18.97 51.2121 19.0233 51.4187 19.13C 51.6321 19.23 51.8388 19.37 52.0388 19.55L 51.9888 18.72L 51.9888 16.94L 53.1488 16.94L 53.1488 24L 52.1988 24L 52.1088 23.43L 52.0788 23.43C 51.8854 23.6233 51.6587 23.7867 51.3987 23.92C 51.1454 24.0533 50.8788 24.12 50.5988 24.12C 50.2854 24.12 49.9988 24.0633 49.7388 23.95C 49.4787 23.83 49.2554 23.66 49.0687 23.44C 48.8887 23.22 48.7487 22.9533 48.6488 22.64C 48.5488 22.32 48.4987 21.9567 48.4987 21.55ZM 49.6888 21.54C 49.6888 22.0733 49.7921 22.48 49.9987 22.76C 50.2054 23.0333 50.4988 23.17 50.8788 23.17C 51.2854 23.17 51.6554 22.9733 51.9888 22.58L 51.9888 20.37C 51.8154 20.2033 51.6421 20.0867 51.4687 20.02C 51.2954 19.9533 51.1187 19.92 50.9387 19.92C 50.7654 19.92 50.6021 19.9567 50.4487 20.03C 50.3021 20.1033 50.1721 20.21 50.0588 20.35C 49.9454 20.4833 49.8554 20.65 49.7887 20.85C 49.7221 21.05 49.6888 21.28 49.6888 21.54ZM 58.0848 25.77C 57.4115 25.21 56.8782 24.55 56.4848 23.79C 56.0982 23.03 55.9048 22.1733 55.9048 21.22C 55.9048 20.2667 56.0982 19.41 56.4848 18.65C 56.8782 17.89 57.4115 17.23 58.0848 16.67L 58.7248 17.2C 58.0915 17.7733 57.6282 18.3833 57.3348 19.03C 57.0415 19.6767 56.8948 20.4067 56.8948 21.22C 56.8948 22.0333 57.0415 22.7633 57.3348 23.41C 57.6282 24.0567 58.0915 24.6667 58.7248 25.24L 58.0848 25.77ZM 61.2009 25.24C 61.8343 24.6667 62.2976 24.0567 62.5909 23.41C 62.8843 22.7633 63.0309 22.0333 63.0309 21.22C 63.0309 20.4067 62.8843 19.6767 62.5909 19.03C 62.2976 18.3833 61.8343 17.7733 61.2009 17.2L 61.8409 16.67C 62.5143 17.23 63.0443 17.89 63.4309 18.65C 63.8243 19.41 64.0209 20.2667 64.0209 21.22C 64.0209 22.1733 63.8243 23.03 63.4309 23.79C 63.0443 24.55 62.5143 25.21 61.8409 25.77L 61.2009 25.24ZM 25.9944 36.11C 25.9944 35.8167 26.0877 35.5767 26.2744 35.39C 26.461 35.1967 26.6977 35.1 26.9844 35.1C 27.271 35.1 27.5077 35.1967 27.6944 35.39C 27.881 35.5767 27.9744 35.8167 27.9744 36.11C 27.9744 36.4033 27.881 36.6467 27.6944 36.84C 27.5077 37.0267 27.271 37.12 26.9844 37.12C 26.6977 37.12 26.461 37.0267 26.2744 36.84C 26.0877 36.6467 25.9944 36.4033 25.9944 36.11ZM 31.1405 35.63C 31.4205 35.8233 31.7105 35.9767 32.0105 36.09C 32.3171 36.1967 32.6605 36.25 33.0405 36.25C 33.4271 36.25 33.7105 36.1967 33.8905 36.09C 34.0705 35.9767 34.1605 35.8333 34.1605 35.66C 34.1605 35.4867 34.0438 35.3433 33.8105 35.23C 33.5771 35.11 33.2105 34.9833 32.7105 34.85C 32.4771 34.79 32.2505 34.7167 32.0305 34.63C 31.8105 34.5433 31.6171 34.4433 31.4505 34.33C 31.2838 34.2167 31.1505 34.0867 31.0505 33.94C 30.9505 33.7933 30.9005 33.6267 30.9005 33.44C 30.9005 33.0067 31.0871 32.6533 31.4605 32.38C 31.8338 32.1067 32.3705 31.97 33.0705 31.97C 33.4705 31.97 33.8471 32.0367 34.2005 32.17C 34.5538 32.3033 34.8571 32.4533 35.1105 32.62L 34.5805 33.33C 34.3605 33.1833 34.1238 33.0667 33.8705 32.98C 33.6238 32.8867 33.3605 32.84 33.0805 32.84C 32.7005 32.84 32.4338 32.8933 32.2805 33C 32.1271 33.1 32.0505 33.2267 32.0505 33.38C 32.0505 33.4667 32.0838 33.5467 32.1505 33.62C 32.2238 33.6867 32.3205 33.75 32.4405 33.81C 32.5671 33.8633 32.7138 33.9167 32.8805 33.97C 33.0471 34.0233 33.2305 34.0733 33.4305 34.12C 33.7171 34.1933 33.9738 34.2767 34.2005 34.37C 34.4338 34.4567 34.6305 34.5567 34.7905 34.67C 34.9571 34.7833 35.0838 34.9167 35.1705 35.07C 35.2638 35.2233 35.3105 35.4 35.3105 35.6C 35.3105 35.8133 35.2605 36.0133 35.1605 36.2C 35.0605 36.38 34.9138 36.54 34.7205 36.68C 34.5271 36.8133 34.2871 36.92 34.0005 37C 33.7138 37.08 33.3838 37.12 33.0105 37.12C 32.5505 37.12 32.1105 37.0467 31.6905 36.9C 31.2705 36.7533 30.9071 36.5733 30.6005 36.36L 31.1405 35.63ZM 37.8766 33L 36.5666 33L 36.5666 32.14L 37.9266 32.09L 38.0766 30.75L 39.0266 30.75L 39.0266 32.09L 41.2666 32.09L 41.2666 33L 39.0266 33L 39.0266 35.02C 39.0266 35.4267 39.1099 35.7267 39.2766 35.92C 39.4432 36.1067 39.7366 36.2 40.1566 36.2C 40.3699 36.2 40.5632 36.1833 40.7366 36.15C 40.9099 36.11 41.0766 36.06 41.2366 36L 41.4566 36.84C 41.2366 36.9133 40.9932 36.9767 40.7266 37.03C 40.4599 37.09 40.1766 37.12 39.8766 37.12C 39.5032 37.12 39.1899 37.07 38.9366 36.97C 38.6832 36.87 38.4766 36.73 38.3166 36.55C 38.1632 36.3633 38.0499 36.14 37.9766 35.88C 37.9099 35.62 37.8766 35.3333 37.8766 35.02L 37.8766 33ZM 43.2727 32.09L 44.2227 32.09L 44.3227 33.2L 44.3527 33.2C 44.606 32.8 44.9093 32.4967 45.2627 32.29C 45.6227 32.0767 46.016 31.97 46.4427 31.97C 46.6427 31.97 46.8127 31.9867 46.9527 32.02C 47.0993 32.0467 47.246 32.0967 47.3927 32.17L 47.1527 33.14C 46.9927 33.0867 46.8493 33.05 46.7227 33.03C 46.6027 33.0033 46.4493 32.99 46.2627 32.99C 45.9227 32.99 45.596 33.0867 45.2827 33.28C 44.9693 33.4733 44.686 33.81 44.4327 34.29L 44.4327 37L 43.2727 37L 43.2727 32.09ZM 49.9788 36.11C 49.9788 35.8167 50.0721 35.5767 50.2588 35.39C 50.4454 35.1967 50.6821 35.1 50.9688 35.1C 51.2554 35.1 51.4921 35.1967 51.6787 35.39C 51.8654 35.5767 51.9587 35.8167 51.9587 36.11C 51.9587 36.4033 51.8654 36.6467 51.6787 36.84C 51.4921 37.0267 51.2554 37.12 50.9688 37.12C 50.6821 37.12 50.4454 37.0267 50.2588 36.84C 50.0721 36.6467 49.9788 36.4033 49.9788 36.11ZM 55.1248 35.63C 55.4048 35.8233 55.6948 35.9767 55.9948 36.09C 56.3015 36.1967 56.6448 36.25 57.0248 36.25C 57.4115 36.25 57.6948 36.1967 57.8748 36.09C 58.0548 35.9767 58.1448 35.8333 58.1448 35.66C 58.1448 35.4867 58.0282 35.3433 57.7948 35.23C 57.5615 35.11 57.1948 34.9833 56.6948 34.85C 56.4615 34.79 56.2348 34.7167 56.0148 34.63C 55.7948 34.5433 55.6015 34.4433 55.4348 34.33C 55.2682 34.2167 55.1348 34.0867 55.0348 33.94C 54.9348 33.7933 54.8848 33.6267 54.8848 33.44C 54.8848 33.0067 55.0715 32.6533 55.4448 32.38C 55.8182 32.1067 56.3548 31.97 57.0548 31.97C 57.4548 31.97 57.8315 32.0367 58.1848 32.17C 58.5382 32.3033 58.8415 32.4533 59.0948 32.62L 58.5648 33.33C 58.3448 33.1833 58.1082 33.0667 57.8548 32.98C 57.6082 32.8867 57.3448 32.84 57.0648 32.84C 56.6848 32.84 56.4182 32.8933 56.2648 33C 56.1115 33.1 56.0348 33.2267 56.0348 33.38C 56.0348 33.4667 56.0682 33.5467 56.1348 33.62C 56.2082 33.6867 56.3048 33.75 56.4248 33.81C 56.5515 33.8633 56.6982 33.9167 56.8648 33.97C 57.0315 34.0233 57.2148 34.0733 57.4148 34.12C 57.7015 34.1933 57.9582 34.2767 58.1848 34.37C 58.4182 34.4567 58.6148 34.5567 58.7748 34.67C 58.9415 34.7833 59.0682 34.9167 59.1548 35.07C 59.2482 35.2233 59.2948 35.4 59.2948 35.6C 59.2948 35.8133 59.2448 36.0133 59.1448 36.2C 59.0448 36.38 58.8982 36.54 58.7048 36.68C 58.5115 36.8133 58.2715 36.92 57.9848 37C 57.6982 37.08 57.3682 37.12 56.9948 37.12C 56.5348 37.12 56.0948 37.0467 55.6748 36.9C 55.2548 36.7533 54.8915 36.5733 54.5848 36.36L 55.1248 35.63ZM 61.9409 37.4L 61.9409 38.94L 60.7809 38.94L 60.7809 32.09L 61.7309 32.09L 61.8209 32.65L 61.8509 32.65C 62.0643 32.4567 62.3076 32.2967 62.5809 32.17C 62.8609 32.0367 63.1409 31.97 63.4209 31.97C 63.7409 31.97 64.0243 32.03 64.2709 32.15C 64.5243 32.2633 64.7343 32.43 64.9009 32.65C 65.0743 32.87 65.2043 33.1333 65.2909 33.44C 65.3843 33.7467 65.4309 34.09 65.4309 34.47C 65.4309 34.89 65.3709 35.2667 65.2509 35.6C 65.1309 35.9267 64.9676 36.2033 64.7609 36.43C 64.5609 36.65 64.3276 36.82 64.0609 36.94C 63.8009 37.06 63.5309 37.12 63.2509 37.12C 63.0243 37.12 62.7909 37.07 62.5509 36.97C 62.3176 36.87 62.1009 36.7267 61.9009 36.54L 61.9409 37.4ZM 61.9409 35.72C 62.1209 35.8867 62.3043 36.0033 62.4909 36.07C 62.6843 36.1367 62.8576 36.17 63.0109 36.17C 63.3643 36.17 63.6576 36.03 63.8909 35.75C 64.1243 35.4633 64.2409 35.04 64.2409 34.48C 64.2409 33.9867 64.1509 33.6033 63.9709 33.33C 63.7909 33.0567 63.5009 32.92 63.1009 32.92C 62.9143 32.92 62.7243 32.9667 62.5309 33.06C 62.3376 33.1533 62.1409 33.3033 61.9409 33.51L 61.9409 35.72ZM 66.667 29.94L 69.367 29.94L 69.367 35.27C 69.367 35.6033 69.4504 35.84 69.617 35.98C 69.7837 36.1133 69.9937 36.18 70.247 36.18C 70.487 36.18 70.767 36.1167 71.087 35.99L 71.357 36.84C 71.1237 36.92 70.9037 36.9867 70.697 37.04C 70.497 37.0933 70.2537 37.12 69.967 37.12C 69.387 37.12 68.9504 36.9533 68.657 36.62C 68.3637 36.2867 68.217 35.8167 68.217 35.21L 68.217 30.85L 66.667 30.85L 66.667 29.94ZM 72.7931 32.09L 76.0731 32.09L 76.0731 37L 74.9231 37L 74.9231 33L 72.7931 33L 72.7931 32.09ZM 75.4131 31.23C 75.1798 31.23 74.9831 31.16 74.8231 31.02C 74.6698 30.88 74.5931 30.6933 74.5931 30.46C 74.5931 30.2267 74.6698 30.04 74.8231 29.9C 74.9831 29.7533 75.1798 29.68 75.4131 29.68C 75.6531 29.68 75.8498 29.7533 76.0031 29.9C 76.1565 30.04 76.2331 30.2267 76.2331 30.46C 76.2331 30.6933 76.1565 30.88 76.0031 31.02C 75.8498 31.16 75.6531 31.23 75.4131 31.23ZM 79.8492 33L 78.5392 33L 78.5392 32.14L 79.8992 32.09L 80.0492 30.75L 80.9992 30.75L 80.9992 32.09L 83.2392 32.09L 83.2392 33L 80.9992 33L 80.9992 35.02C 80.9992 35.4267 81.0826 35.7267 81.2492 35.92C 81.4159 36.1067 81.7092 36.2 82.1292 36.2C 82.3426 36.2 82.5359 36.1833 82.7092 36.15C 82.8826 36.11 83.0492 36.06 83.2092 36L 83.4292 36.84C 83.2092 36.9133 82.9659 36.9767 82.6992 37.03C 82.4326 37.09 82.1492 37.12 81.8492 37.12C 81.4759 37.12 81.1626 37.07 80.9092 36.97C 80.6559 36.87 80.4492 36.73 80.2892 36.55C 80.1359 36.3633 80.0226 36.14 79.9492 35.88C 79.8826 35.62 79.8492 35.3333 79.8492 35.02L 79.8492 33ZM 88.0653 38.77C 87.392 38.21 86.8586 37.55 86.4653 36.79C 86.0786 36.03 85.8853 35.1733 85.8853 34.22C 85.8853 33.2667 86.0786 32.41 86.4653 31.65C 86.8586 30.89 87.392 30.23 88.0653 29.67L 88.7053 30.2C 88.072 30.7733 87.6086 31.3833 87.3153 32.03C 87.022 32.6767 86.8753 33.4067 86.8753 34.22C 86.8753 35.0333 87.022 35.7633 87.3153 36.41C 87.6086 37.0567 88.072 37.6667 88.7053 38.24L 88.0653 38.77ZM 90.7614 32.09L 91.7114 32.09L 91.8014 32.83L 91.8414 32.83C 92.0747 32.5967 92.3314 32.3967 92.6114 32.23C 92.8981 32.0567 93.2314 31.97 93.6114 31.97C 94.1781 31.97 94.5947 32.1433 94.8614 32.49C 95.1281 32.83 95.2614 33.32 95.2614 33.96L 95.2614 37L 94.1014 37L 94.1014 34.11C 94.1014 33.71 94.0314 33.42 93.8914 33.24C 93.7581 33.0533 93.5214 32.96 93.1814 32.96C 92.9414 32.96 92.7281 33.0167 92.5414 33.13C 92.3547 33.2433 92.1481 33.4167 91.9214 33.65L 91.9214 37L 90.7614 37L 90.7614 32.09ZM 96.7175 32.16L 101.158 32.16L 101.158 33L 96.7175 33L 96.7175 32.16ZM 96.7175 34.39L 101.158 34.39L 101.158 35.23L 96.7175 35.23L 96.7175 34.39ZM 187.119 38.24C 187.752 37.6667 188.216 37.0567 188.509 36.41C 188.802 35.7633 188.949 35.0333 188.949 34.22C 188.949 33.4067 188.802 32.6767 188.509 32.03C 188.216 31.3833 187.752 30.7733 187.119 30.2L 187.759 29.67C 188.432 30.23 188.962 30.89 189.349 31.65C 189.742 32.41 189.939 33.2667 189.939 34.22C 189.939 35.1733 189.742 36.03 189.349 36.79C 188.962 37.55 188.432 38.21 187.759 38.77L 187.119 38.24ZM 1.24 50.24C 1.87333 49.6667 2.33667 49.0567 2.63 48.41C 2.92333 47.7633 3.07 47.0333 3.07 46.22C 3.07 45.4067 2.92333 44.6767 2.63 44.03C 2.33667 43.3833 1.87333 42.7733 1.24 42.2L 1.88 41.67C 2.55333 42.23 3.08333 42.89 3.47 43.65C 3.86333 44.41 4.06 45.2667 4.06 46.22C 4.06 47.1733 3.86333 48.03 3.47 48.79C 3.08333 49.55 2.55333 50.21 1.88 50.77L 1.24 50.24Z"/>
<path id="path17_fill" d="M 55.0648 5.42L 55.0348 4.14L 56.4348 4.14L 56.4048 5.42L 56.1048 7.73L 55.3648 7.73L 55.0648 5.42ZM 57.5348 5.42L 57.5048 4.14L 58.9048 4.14L 58.8748 5.42L 58.5748 7.73L 57.8348 7.73L 57.5348 5.42ZM 61.5409 11.71C 61.5409 11.93 61.6609 12.1033 61.9009 12.23C 62.1476 12.3567 62.5009 12.42 62.9609 12.42C 63.2009 12.42 63.4176 12.3967 63.6109 12.35C 63.8043 12.31 63.9709 12.2533 64.1109 12.18C 64.2509 12.1067 64.3576 12.02 64.4309 11.92C 64.5043 11.8267 64.5409 11.7267 64.5409 11.62C 64.5409 11.4267 64.4576 11.2967 64.2909 11.23C 64.1243 11.17 63.8776 11.14 63.5509 11.14L 62.7709 11.14C 62.6109 11.14 62.4676 11.1333 62.3409 11.12C 62.2209 11.1133 62.1143 11.0933 62.0209 11.06C 61.8476 11.1667 61.7243 11.2733 61.6509 11.38C 61.5776 11.4867 61.5409 11.5967 61.5409 11.71ZM 60.5809 11.86C 60.5809 11.6667 60.6476 11.48 60.7809 11.3C 60.9143 11.12 61.1076 10.9633 61.3609 10.83L 61.3609 10.79C 61.2276 10.7167 61.1109 10.6133 61.0109 10.48C 60.9109 10.3467 60.8609 10.1767 60.8609 9.97C 60.8609 9.80333 60.9143 9.64 61.0209 9.48C 61.1276 9.31333 61.2709 9.16667 61.4509 9.04L 61.4509 9C 61.2776 8.88 61.1276 8.71333 61.0009 8.5C 60.8809 8.28667 60.8209 8.03333 60.8209 7.74C 60.8209 7.46 60.8743 7.21 60.9809 6.99C 61.0943 6.77 61.2409 6.58667 61.4209 6.44C 61.6076 6.28667 61.8209 6.17 62.0609 6.09C 62.3076 6.01 62.5676 5.97 62.8409 5.97C 63.1343 5.97 63.3909 6.01 63.6109 6.09L 65.6209 6.09L 65.6209 6.94L 64.4709 6.94C 64.5576 7.04 64.6343 7.16333 64.7009 7.31C 64.7676 7.45 64.8009 7.60667 64.8009 7.78C 64.8009 8.05333 64.7509 8.29333 64.6509 8.5C 64.5509 8.70667 64.4109 8.88 64.2309 9.02C 64.0576 9.16 63.8509 9.26667 63.6109 9.34C 63.3709 9.40667 63.1143 9.44 62.8409 9.44C 62.5943 9.44 62.3443 9.39667 62.0909 9.31C 61.8909 9.43667 61.7909 9.58667 61.7909 9.76C 61.7909 10.0733 62.1009 10.23 62.7209 10.23L 63.7209 10.23C 64.3609 10.23 64.8409 10.3233 65.1609 10.51C 65.4876 10.6967 65.6509 11.0033 65.6509 11.43C 65.6509 11.67 65.5843 11.8967 65.4509 12.11C 65.3176 12.3233 65.1276 12.5067 64.8809 12.66C 64.6409 12.82 64.3443 12.9433 63.9909 13.03C 63.6443 13.1233 63.2543 13.17 62.8209 13.17C 62.4809 13.17 62.1743 13.1433 61.9009 13.09C 61.6276 13.0367 61.3909 12.9533 61.1909 12.84C 60.9976 12.7333 60.8476 12.5967 60.7409 12.43C 60.6343 12.27 60.5809 12.08 60.5809 11.86ZM 62.8409 8.72C 63.0943 8.72 63.3143 8.63667 63.5009 8.47C 63.6876 8.29667 63.7809 8.05333 63.7809 7.74C 63.7809 7.44 63.6876 7.20333 63.5009 7.03C 63.3143 6.85 63.0943 6.76 62.8409 6.76C 62.5876 6.76 62.3676 6.85 62.1809 7.03C 62.0009 7.20333 61.9109 7.44 61.9109 7.74C 61.9109 8.05333 62.0009 8.29667 62.1809 8.47C 62.3676 8.63667 62.5876 8.72 62.8409 8.72ZM 67.937 11.4L 67.937 12.94L 66.777 12.94L 66.777 6.09L 67.727 6.09L 67.817 6.65L 67.847 6.65C 68.0604 6.45667 68.3037 6.29667 68.577 6.17C 68.857 6.03667 69.137 5.97 69.417 5.97C 69.737 5.97 70.0204 6.03 70.267 6.15C 70.5204 6.26333 70.7304 6.43 70.897 6.65C 71.0704 6.87 71.2004 7.13333 71.287 7.44C 71.3804 7.74667 71.427 8.09 71.427 8.47C 71.427 8.89 71.367 9.26667 71.247 9.6C 71.127 9.92667 70.9637 10.2033 70.757 10.43C 70.557 10.65 70.3237 10.82 70.057 10.94C 69.797 11.06 69.527 11.12 69.247 11.12C 69.0204 11.12 68.787 11.07 68.547 10.97C 68.3137 10.87 68.097 10.7267 67.897 10.54L 67.937 11.4ZM 67.937 9.72C 68.117 9.88667 68.3004 10.0033 68.487 10.07C 68.6804 10.1367 68.8537 10.17 69.007 10.17C 69.3604 10.17 69.6537 10.03 69.887 9.75C 70.1204 9.46333 70.237 9.04 70.237 8.48C 70.237 7.98667 70.147 7.60333 69.967 7.33C 69.787 7.05667 69.497 6.92 69.097 6.92C 68.9104 6.92 68.7204 6.96667 68.527 7.06C 68.3337 7.15333 68.137 7.30333 67.937 7.51L 67.937 9.72ZM 77.1031 11L 76.1631 11L 76.0731 10.22L 76.0331 10.22C 75.7998 10.4933 75.5431 10.7133 75.2631 10.88C 74.9831 11.04 74.6598 11.12 74.2931 11.12C 73.7198 11.12 73.3031 10.95 73.0431 10.61C 72.7831 10.2633 72.6531 9.77 72.6531 9.13L 72.6531 6.09L 73.8031 6.09L 73.8031 8.98C 73.8031 9.38 73.8698 9.67333 74.0031 9.86C 74.1431 10.04 74.3831 10.13 74.7231 10.13C 74.9565 10.13 75.1631 10.0767 75.3431 9.97C 75.5298 9.86333 75.7331 9.67333 75.9531 9.4L 75.9531 6.09L 77.1031 6.09L 77.1031 11ZM 79.0492 5.42L 79.0192 4.14L 80.4192 4.14L 80.3892 5.42L 80.0892 7.73L 79.3492 7.73L 79.0492 5.42ZM 81.5192 5.42L 81.4892 4.14L 82.8892 4.14L 82.8592 5.42L 82.5592 7.73L 81.8192 7.73L 81.5192 5.42Z"/>
<path id="path18_fill" d="M 107.264 36.06L 107.264 37L 102.834 37L 102.834 36.06L 104.554 36.06L 104.554 31.88L 103.224 31.88L 103.224 31.16C 103.584 31.1 103.89 31.03 104.144 30.95C 104.404 30.8633 104.644 30.76 104.864 30.64L 105.704 30.64L 105.704 36.06L 107.264 36.06ZM 109.82 38.46C 110.666 38.12 111.093 37.6067 111.1 36.92C 111.066 36.9267 111.02 36.93 110.96 36.93C 110.706 36.93 110.486 36.8567 110.3 36.71C 110.113 36.5567 110.02 36.3333 110.02 36.04C 110.02 35.76 110.113 35.5433 110.3 35.39C 110.493 35.23 110.72 35.15 110.98 35.15C 111.34 35.15 111.61 35.2833 111.79 35.55C 111.97 35.8167 112.06 36.1833 112.06 36.65C 112.06 37.2633 111.893 37.78 111.56 38.2C 111.226 38.6267 110.746 38.9433 110.12 39.15L 109.82 38.46ZM 164.315 31.44L 162.255 31.44L 162.255 30.46L 167.535 30.46L 167.535 31.44L 165.475 31.44L 165.475 37L 164.315 37L 164.315 31.44ZM 169.191 32.09L 170.141 32.09L 170.241 33.2L 170.271 33.2C 170.524 32.8 170.827 32.4967 171.181 32.29C 171.541 32.0767 171.934 31.97 172.361 31.97C 172.561 31.97 172.731 31.9867 172.871 32.02C 173.017 32.0467 173.164 32.0967 173.311 32.17L 173.071 33.14C 172.911 33.0867 172.767 33.05 172.641 33.03C 172.521 33.0033 172.367 32.99 172.181 32.99C 171.841 32.99 171.514 33.0867 171.201 33.28C 170.887 33.4733 170.604 33.81 170.351 34.29L 170.351 37L 169.191 37L 169.191 32.09ZM 179.037 37L 178.097 37L 178.007 36.22L 177.967 36.22C 177.733 36.4933 177.477 36.7133 177.197 36.88C 176.917 37.04 176.593 37.12 176.227 37.12C 175.653 37.12 175.237 36.95 174.977 36.61C 174.717 36.2633 174.587 35.77 174.587 35.13L 174.587 32.09L 175.737 32.09L 175.737 34.98C 175.737 35.38 175.803 35.6733 175.937 35.86C 176.077 36.04 176.317 36.13 176.657 36.13C 176.89 36.13 177.097 36.0767 177.277 35.97C 177.463 35.8633 177.667 35.6733 177.887 35.4L 177.887 32.09L 179.037 32.09L 179.037 37ZM 180.503 34.55C 180.503 34.15 180.573 33.79 180.713 33.47C 180.859 33.15 181.049 32.88 181.283 32.66C 181.516 32.4333 181.783 32.2633 182.083 32.15C 182.389 32.03 182.703 31.97 183.023 31.97C 183.389 31.97 183.713 32.03 183.993 32.15C 184.279 32.2633 184.519 32.4233 184.713 32.63C 184.906 32.83 185.053 33.0733 185.153 33.36C 185.253 33.6467 185.303 33.96 185.303 34.3C 185.303 34.4133 185.296 34.52 185.283 34.62C 185.276 34.72 185.266 34.8 185.253 34.86L 181.683 34.86C 181.723 35.3 181.896 35.64 182.203 35.88C 182.509 36.1133 182.886 36.23 183.333 36.23C 183.586 36.23 183.823 36.1967 184.043 36.13C 184.263 36.0567 184.486 35.9567 184.713 35.83L 185.103 36.55C 184.836 36.7167 184.539 36.8533 184.213 36.96C 183.886 37.0667 183.543 37.12 183.183 37.12C 182.809 37.12 182.459 37.0633 182.133 36.95C 181.806 36.83 181.523 36.66 181.283 36.44C 181.043 36.22 180.853 35.9533 180.713 35.64C 180.573 35.32 180.503 34.9567 180.503 34.55ZM 184.243 34.08C 184.243 33.7 184.143 33.4033 183.943 33.19C 183.743 32.97 183.446 32.86 183.053 32.86C 182.719 32.86 182.423 32.9633 182.163 33.17C 181.903 33.3767 181.739 33.68 181.673 34.08L 184.243 34.08Z"/>
<path id="path19_fill" d="M 120.542 34.55C 120.542 34.15 120.612 33.79 120.752 33.47C 120.899 33.15 121.089 32.88 121.322 32.66C 121.555 32.4333 121.822 32.2633 122.122 32.15C 122.429 32.03 122.742 31.97 123.062 31.97C 123.429 31.97 123.752 32.03 124.032 32.15C 124.319 32.2633 124.559 32.4233 124.752 32.63C 124.945 32.83 125.092 33.0733 125.192 33.36C 125.292 33.6467 125.342 33.96 125.342 34.3C 125.342 34.4133 125.335 34.52 125.322 34.62C 125.315 34.72 125.305 34.8 125.292 34.86L 121.722 34.86C 121.762 35.3 121.935 35.64 122.242 35.88C 122.549 36.1133 122.925 36.23 123.372 36.23C 123.625 36.23 123.862 36.1967 124.082 36.13C 124.302 36.0567 124.525 35.9567 124.752 35.83L 125.142 36.55C 124.875 36.7167 124.579 36.8533 124.252 36.96C 123.925 37.0667 123.582 37.12 123.222 37.12C 122.849 37.12 122.499 37.0633 122.172 36.95C 121.845 36.83 121.562 36.66 121.322 36.44C 121.082 36.22 120.892 35.9533 120.752 35.64C 120.612 35.32 120.542 34.9567 120.542 34.55ZM 124.282 34.08C 124.282 33.7 124.182 33.4033 123.982 33.19C 123.782 32.97 123.485 32.86 123.092 32.86C 122.759 32.86 122.462 32.9633 122.202 33.17C 121.942 33.3767 121.779 33.68 121.712 34.08L 124.282 34.08ZM 128.208 34.45L 126.548 32.09L 127.798 32.09L 128.438 33.02C 128.518 33.1533 128.605 33.2933 128.698 33.44C 128.791 33.58 128.885 33.72 128.978 33.86L 129.018 33.86C 129.091 33.72 129.171 33.5767 129.258 33.43C 129.345 33.2833 129.425 33.1433 129.498 33.01L 130.078 32.09L 131.288 32.09L 129.618 34.57L 131.408 37L 130.158 37L 129.448 36.03C 129.355 35.8967 129.255 35.7533 129.148 35.6C 129.048 35.4467 128.948 35.3 128.848 35.16L 128.808 35.16C 128.715 35.3067 128.625 35.4533 128.538 35.6C 128.458 35.74 128.371 35.8867 128.278 36.04L 127.638 37L 126.428 37L 128.208 34.45ZM 133.894 37.4L 133.894 38.94L 132.734 38.94L 132.734 32.09L 133.684 32.09L 133.774 32.65L 133.804 32.65C 134.017 32.4567 134.261 32.2967 134.534 32.17C 134.814 32.0367 135.094 31.97 135.374 31.97C 135.694 31.97 135.977 32.03 136.224 32.15C 136.477 32.2633 136.687 32.43 136.854 32.65C 137.027 32.87 137.157 33.1333 137.244 33.44C 137.337 33.7467 137.384 34.09 137.384 34.47C 137.384 34.89 137.324 35.2667 137.204 35.6C 137.084 35.9267 136.921 36.2033 136.714 36.43C 136.514 36.65 136.281 36.82 136.014 36.94C 135.754 37.06 135.484 37.12 135.204 37.12C 134.977 37.12 134.744 37.07 134.504 36.97C 134.271 36.87 134.054 36.7267 133.854 36.54L 133.894 37.4ZM 133.894 35.72C 134.074 35.8867 134.257 36.0033 134.444 36.07C 134.637 36.1367 134.811 36.17 134.964 36.17C 135.317 36.17 135.611 36.03 135.844 35.75C 136.077 35.4633 136.194 35.04 136.194 34.48C 136.194 33.9867 136.104 33.6033 135.924 33.33C 135.744 33.0567 135.454 32.92 135.054 32.92C 134.867 32.92 134.677 32.9667 134.484 33.06C 134.291 33.1533 134.094 33.3033 133.894 33.51L 133.894 35.72ZM 138.62 35.68C 138.62 35.4067 138.683 35.1667 138.81 34.96C 138.937 34.7467 139.137 34.5667 139.41 34.42C 139.683 34.2733 140.033 34.1533 140.46 34.06C 140.887 33.9667 141.403 33.9 142.01 33.86C 141.99 33.58 141.89 33.35 141.71 33.17C 141.53 32.99 141.24 32.9 140.84 32.9C 140.56 32.9 140.283 32.9533 140.01 33.06C 139.743 33.16 139.483 33.28 139.23 33.42L 138.81 32.65C 139.11 32.4767 139.453 32.32 139.84 32.18C 140.227 32.04 140.63 31.97 141.05 31.97C 141.737 31.97 142.26 32.1533 142.62 32.52C 142.98 32.88 143.16 33.4033 143.16 34.09L 143.16 37L 142.22 37L 142.13 36.39L 142.1 36.39C 141.84 36.59 141.55 36.7633 141.23 36.91C 140.917 37.05 140.593 37.12 140.26 37.12C 140.02 37.12 139.8 37.0833 139.6 37.01C 139.4 36.9433 139.227 36.8467 139.08 36.72C 138.933 36.5933 138.82 36.4433 138.74 36.27C 138.66 36.09 138.62 35.8933 138.62 35.68ZM 139.73 35.59C 139.73 35.81 139.813 35.97 139.98 36.07C 140.153 36.17 140.363 36.22 140.61 36.22C 140.857 36.22 141.093 36.1667 141.32 36.06C 141.553 35.9467 141.783 35.8 142.01 35.62L 142.01 34.58C 141.57 34.6133 141.203 34.66 140.91 34.72C 140.617 34.7733 140.383 34.8433 140.21 34.93C 140.037 35.0167 139.913 35.1167 139.84 35.23C 139.767 35.3367 139.73 35.4567 139.73 35.59ZM 144.726 32.09L 145.676 32.09L 145.766 32.83L 145.806 32.83C 146.04 32.5967 146.296 32.3967 146.576 32.23C 146.863 32.0567 147.196 31.97 147.576 31.97C 148.143 31.97 148.56 32.1433 148.826 32.49C 149.093 32.83 149.226 33.32 149.226 33.96L 149.226 37L 148.066 37L 148.066 34.11C 148.066 33.71 147.996 33.42 147.856 33.24C 147.723 33.0533 147.486 32.96 147.146 32.96C 146.906 32.96 146.693 33.0167 146.506 33.13C 146.32 33.2433 146.113 33.4167 145.886 33.65L 145.886 37L 144.726 37L 144.726 32.09ZM 150.432 34.55C 150.432 34.15 150.492 33.79 150.612 33.47C 150.732 33.15 150.892 32.88 151.092 32.66C 151.299 32.44 151.532 32.27 151.792 32.15C 152.052 32.03 152.322 31.97 152.602 31.97C 152.896 31.97 153.146 32.0233 153.352 32.13C 153.566 32.23 153.772 32.37 153.972 32.55L 153.922 31.72L 153.922 29.94L 155.082 29.94L 155.082 37L 154.132 37L 154.042 36.43L 154.012 36.43C 153.819 36.6233 153.592 36.7867 153.332 36.92C 153.079 37.0533 152.812 37.12 152.532 37.12C 152.219 37.12 151.932 37.0633 151.672 36.95C 151.412 36.83 151.189 36.66 151.002 36.44C 150.822 36.22 150.682 35.9533 150.582 35.64C 150.482 35.32 150.432 34.9567 150.432 34.55ZM 151.622 34.54C 151.622 35.0733 151.726 35.48 151.932 35.76C 152.139 36.0333 152.432 36.17 152.812 36.17C 153.219 36.17 153.589 35.9733 153.922 35.58L 153.922 33.37C 153.749 33.2033 153.576 33.0867 153.402 33.02C 153.229 32.9533 153.052 32.92 152.872 32.92C 152.699 32.92 152.536 32.9567 152.382 33.03C 152.236 33.1033 152.106 33.21 151.992 33.35C 151.879 33.4833 151.789 33.65 151.722 33.85C 151.656 34.05 151.622 34.28 151.622 34.54ZM 156.678 32.16L 161.118 32.16L 161.118 33L 156.678 33L 156.678 32.16ZM 156.678 34.39L 161.118 34.39L 161.118 35.23L 156.678 35.23L 156.678 34.39Z"/>
</defs>
</svg>
