<svg width="800" height="268" viewBox="0 0 800 268" version="1.1" xmlns="http://www.w3.org/2000/svg" xmlns:xlink="http://www.w3.org/1999/xlink">
<title>Frame</title>
<desc>Created using Figma</desc>
<g id="Canvas" transform="matrix(2 0 0 2 50 1698)">
<clipPath id="clip-0" clip-rule="evenodd">
<path d="M -25 -849L 375 -849L 375 -715L -25 -715L -25 -849Z" fill="#FFFFFF"/>
</clipPath>
<g id="Frame" clip-path="url(#clip-0)">
<path d="M -25 -849L 375 -849L 375 -715L -25 -715L -25 -849Z" fill="#FFFFFF"/>
<g id="code">
<g id="Rectangle">
<use xlink:href="#path0_fill" transform="translate(-22 -795)" fill="#F1F4F8"/>
</g>
<g id="laptops[&#34;gpu&#34;].head()">
<use xlink:href="#path1_fill" transform="translate(-17.9796 -794)" fill="#2E383C"/>
<use xlink:href="#path2_fill" transform="translate(-17.9796 -794)" fill="#B82629"/>
</g>
</g>
<g id="Rectangle">
<use xlink:href="#path3_stroke" transform="translate(202 -833)"/>
</g>
<g id="Rectangle">
<use xlink:href="#path4_stroke" transform="translate(202 -811)"/>
</g>
<g id="Rectangle">
<use xlink:href="#path4_stroke" transform="translate(202 -789.375)"/>
</g>
<g id="0">
<use xlink:href="#path5_fill" transform="translate(192 -828)" fill="#828282"/>
</g>
<g id="0">
<use xlink:href="#path6_fill" transform="translate(205 -828)" fill="#333333"/>
</g>
<g id="0">
<use xlink:href="#path7_fill" transform="translate(205 -807)" fill="#333333"/>
</g>
<g id="0">
<use xlink:href="#path8_fill" transform="translate(205 -785)" fill="#333333"/>
</g>
<g id="0">
<use xlink:href="#path9_fill" transform="translate(205 -764)" fill="#333333"/>
</g>
<g id="0">
<use xlink:href="#path10_fill" transform="translate(205 -742)" fill="#333333"/>
</g>
<g id="1">
<use xlink:href="#path11_fill" transform="translate(192 -807)" fill="#828282"/>
</g>
<g id="2">
<use xlink:href="#path12_fill" transform="translate(192 -785)" fill="#828282"/>
</g>
<g id="Rectangle">
<use xlink:href="#path4_stroke" transform="translate(202 -767.625)"/>
</g>
<g id="Rectangle">
<use xlink:href="#path4_stroke" transform="translate(202 -746)"/>
</g>
<g id="3">
<use xlink:href="#path13_fill" transform="translate(192 -763.625)" fill="#828282"/>
</g>
<g id="4">
<use xlink:href="#path14_fill" transform="translate(192 -741.625)" fill="#828282"/>
</g>
</g>
</g>
<defs>
<path id="path0_fill" d="M 0 0L 197 0L 197 32L 0 32L 0 0Z"/>
<path id="path1_fill" d="M 0.71 11.94L 3.41 11.94L 3.41 17.27C 3.41 17.6033 3.49333 17.84 3.66 17.98C 3.82667 18.1133 4.03667 18.18 4.29 18.18C 4.53 18.18 4.81 18.1167 5.13 17.99L 5.4 18.84C 5.16667 18.92 4.94667 18.9867 4.74 19.04C 4.54 19.0933 4.29667 19.12 4.01 19.12C 3.43 19.12 2.99333 18.9533 2.7 18.62C 2.40667 18.2867 2.26 17.8167 2.26 17.21L 2.26 12.85L 0.71 12.85L 0.71 11.94ZM 6.70609 17.68C 6.70609 17.4067 6.76943 17.1667 6.89609 16.96C 7.02276 16.7467 7.22276 16.5667 7.49609 16.42C 7.76943 16.2733 8.11943 16.1533 8.54609 16.06C 8.97276 15.9667 9.48943 15.9 10.0961 15.86C 10.0761 15.58 9.97609 15.35 9.79609 15.17C 9.61609 14.99 9.32609 14.9 8.92609 14.9C 8.64609 14.9 8.36943 14.9533 8.09609 15.06C 7.82943 15.16 7.56943 15.28 7.31609 15.42L 6.89609 14.65C 7.19609 14.4767 7.53943 14.32 7.92609 14.18C 8.31276 14.04 8.71609 13.97 9.13609 13.97C 9.82276 13.97 10.3461 14.1533 10.7061 14.52C 11.0661 14.88 11.2461 15.4033 11.2461 16.09L 11.2461 19L 10.3061 19L 10.2161 18.39L 10.1861 18.39C 9.92609 18.59 9.63609 18.7633 9.31609 18.91C 9.00276 19.05 8.67943 19.12 8.34609 19.12C 8.10609 19.12 7.88609 19.0833 7.68609 19.01C 7.48609 18.9433 7.31276 18.8467 7.16609 18.72C 7.01943 18.5933 6.90609 18.4433 6.82609 18.27C 6.74609 18.09 6.70609 17.8933 6.70609 17.68ZM 7.81609 17.59C 7.81609 17.81 7.89943 17.97 8.06609 18.07C 8.23943 18.17 8.44943 18.22 8.69609 18.22C 8.94276 18.22 9.17943 18.1667 9.40609 18.06C 9.63943 17.9467 9.86943 17.8 10.0961 17.62L 10.0961 16.58C 9.65609 16.6133 9.28943 16.66 8.99609 16.72C 8.70276 16.7733 8.46943 16.8433 8.29609 16.93C 8.12276 17.0167 7.99943 17.1167 7.92609 17.23C 7.85276 17.3367 7.81609 17.4567 7.81609 17.59ZM 13.9722 19.4L 13.9722 20.94L 12.8122 20.94L 12.8122 14.09L 13.7622 14.09L 13.8522 14.65L 13.8822 14.65C 14.0955 14.4567 14.3389 14.2967 14.6122 14.17C 14.8922 14.0367 15.1722 13.97 15.4522 13.97C 15.7722 13.97 16.0555 14.03 16.3022 14.15C 16.5555 14.2633 16.7655 14.43 16.9322 14.65C 17.1055 14.87 17.2355 15.1333 17.3222 15.44C 17.4155 15.7467 17.4622 16.09 17.4622 16.47C 17.4622 16.89 17.4022 17.2667 17.2822 17.6C 17.1622 17.9267 16.9989 18.2033 16.7922 18.43C 16.5922 18.65 16.3589 18.82 16.0922 18.94C 15.8322 19.06 15.5622 19.12 15.2822 19.12C 15.0555 19.12 14.8222 19.07 14.5822 18.97C 14.3489 18.87 14.1322 18.7267 13.9322 18.54L 13.9722 19.4ZM 13.9722 17.72C 14.1522 17.8867 14.3355 18.0033 14.5222 18.07C 14.7155 18.1367 14.8889 18.17 15.0422 18.17C 15.3955 18.17 15.6889 18.03 15.9222 17.75C 16.1555 17.4633 16.2722 17.04 16.2722 16.48C 16.2722 15.9867 16.1822 15.6033 16.0022 15.33C 15.8222 15.0567 15.5322 14.92 15.1322 14.92C 14.9455 14.92 14.7555 14.9667 14.5622 15.06C 14.3689 15.1533 14.1722 15.3033 13.9722 15.51L 13.9722 17.72ZM 19.8883 15L 18.5783 15L 18.5783 14.14L 19.9383 14.09L 20.0883 12.75L 21.0383 12.75L 21.0383 14.09L 23.2783 14.09L 23.2783 15L 21.0383 15L 21.0383 17.02C 21.0383 17.4267 21.1216 17.7267 21.2883 17.92C 21.4549 18.1067 21.7483 18.2 22.1683 18.2C 22.3816 18.2 22.5749 18.1833 22.7483 18.15C 22.9216 18.11 23.0883 18.06 23.2483 18L 23.4683 18.84C 23.2483 18.9133 23.0049 18.9767 22.7383 19.03C 22.4716 19.09 22.1883 19.12 21.8883 19.12C 21.5149 19.12 21.2016 19.07 20.9483 18.97C 20.6949 18.87 20.4883 18.73 20.3283 18.55C 20.1749 18.3633 20.0616 18.14 19.9883 17.88C 19.9216 17.62 19.8883 17.3333 19.8883 17.02L 19.8883 15ZM 24.5144 16.55C 24.5144 16.1433 24.581 15.78 24.7144 15.46C 24.8544 15.14 25.0377 14.87 25.2644 14.65C 25.491 14.43 25.7544 14.2633 26.0544 14.15C 26.3544 14.03 26.6644 13.97 26.9844 13.97C 27.3044 13.97 27.6144 14.03 27.9144 14.15C 28.2144 14.2633 28.4777 14.43 28.7044 14.65C 28.931 14.87 29.111 15.14 29.2444 15.46C 29.3844 15.78 29.4544 16.1433 29.4544 16.55C 29.4544 16.9567 29.3844 17.32 29.2444 17.64C 29.111 17.96 28.931 18.23 28.7044 18.45C 28.4777 18.67 28.2144 18.8367 27.9144 18.95C 27.6144 19.0633 27.3044 19.12 26.9844 19.12C 26.6644 19.12 26.3544 19.0633 26.0544 18.95C 25.7544 18.8367 25.491 18.67 25.2644 18.45C 25.0377 18.23 24.8544 17.96 24.7144 17.64C 24.581 17.32 24.5144 16.9567 24.5144 16.55ZM 25.7044 16.55C 25.7044 17.0433 25.8177 17.44 26.0444 17.74C 26.271 18.0333 26.5844 18.18 26.9844 18.18C 27.3844 18.18 27.6977 18.0333 27.9244 17.74C 28.151 17.44 28.2644 17.0433 28.2644 16.55C 28.2644 16.05 28.151 15.6533 27.9244 15.36C 27.6977 15.06 27.3844 14.91 26.9844 14.91C 26.5844 14.91 26.271 15.06 26.0444 15.36C 25.8177 15.6533 25.7044 16.05 25.7044 16.55ZM 31.9605 19.4L 31.9605 20.94L 30.8005 20.94L 30.8005 14.09L 31.7505 14.09L 31.8405 14.65L 31.8705 14.65C 32.0838 14.4567 32.3271 14.2967 32.6005 14.17C 32.8805 14.0367 33.1605 13.97 33.4405 13.97C 33.7605 13.97 34.0438 14.03 34.2905 14.15C 34.5438 14.2633 34.7538 14.43 34.9205 14.65C 35.0938 14.87 35.2238 15.1333 35.3105 15.44C 35.4038 15.7467 35.4505 16.09 35.4505 16.47C 35.4505 16.89 35.3905 17.2667 35.2705 17.6C 35.1505 17.9267 34.9871 18.2033 34.7805 18.43C 34.5805 18.65 34.3471 18.82 34.0805 18.94C 33.8205 19.06 33.5505 19.12 33.2705 19.12C 33.0438 19.12 32.8105 19.07 32.5705 18.97C 32.3371 18.87 32.1205 18.7267 31.9205 18.54L 31.9605 19.4ZM 31.9605 17.72C 32.1405 17.8867 32.3238 18.0033 32.5105 18.07C 32.7038 18.1367 32.8771 18.17 33.0305 18.17C 33.3838 18.17 33.6771 18.03 33.9105 17.75C 34.1438 17.4633 34.2605 17.04 34.2605 16.48C 34.2605 15.9867 34.1705 15.6033 33.9905 15.33C 33.8105 15.0567 33.5205 14.92 33.1205 14.92C 32.9338 14.92 32.7438 14.9667 32.5505 15.06C 32.3571 15.1533 32.1605 15.3033 31.9605 15.51L 31.9605 17.72ZM 37.1366 17.63C 37.4166 17.8233 37.7066 17.9767 38.0066 18.09C 38.3132 18.1967 38.6566 18.25 39.0366 18.25C 39.4232 18.25 39.7066 18.1967 39.8866 18.09C 40.0666 17.9767 40.1566 17.8333 40.1566 17.66C 40.1566 17.4867 40.0399 17.3433 39.8066 17.23C 39.5732 17.11 39.2066 16.9833 38.7066 16.85C 38.4732 16.79 38.2466 16.7167 38.0266 16.63C 37.8066 16.5433 37.6132 16.4433 37.4466 16.33C 37.2799 16.2167 37.1466 16.0867 37.0466 15.94C 36.9466 15.7933 36.8966 15.6267 36.8966 15.44C 36.8966 15.0067 37.0832 14.6533 37.4566 14.38C 37.8299 14.1067 38.3666 13.97 39.0666 13.97C 39.4666 13.97 39.8432 14.0367 40.1966 14.17C 40.5499 14.3033 40.8532 14.4533 41.1066 14.62L 40.5766 15.33C 40.3566 15.1833 40.1199 15.0667 39.8666 14.98C 39.6199 14.8867 39.3566 14.84 39.0766 14.84C 38.6966 14.84 38.4299 14.8933 38.2766 15C 38.1232 15.1 38.0466 15.2267 38.0466 15.38C 38.0466 15.4667 38.0799 15.5467 38.1466 15.62C 38.2199 15.6867 38.3166 15.75 38.4366 15.81C 38.5632 15.8633 38.7099 15.9167 38.8766 15.97C 39.0432 16.0233 39.2266 16.0733 39.4266 16.12C 39.7132 16.1933 39.9699 16.2767 40.1966 16.37C 40.4299 16.4567 40.6266 16.5567 40.7866 16.67C 40.9532 16.7833 41.0799 16.9167 41.1666 17.07C 41.2599 17.2233 41.3066 17.4 41.3066 17.6C 41.3066 17.8133 41.2566 18.0133 41.1566 18.2C 41.0566 18.38 40.9099 18.54 40.7166 18.68C 40.5232 18.8133 40.2832 18.92 39.9966 19C 39.7099 19.08 39.3799 19.12 39.0066 19.12C 38.5466 19.12 38.1066 19.0467 37.6866 18.9C 37.2666 18.7533 36.9032 18.5733 36.5966 18.36L 37.1366 17.63ZM 44.1027 11.92L 46.9627 11.92L 46.9627 12.55L 44.9927 12.55L 44.9927 19.89L 46.9627 19.89L 46.9627 20.52L 44.1027 20.52L 44.1027 11.92ZM 80.9292 19.89L 80.9292 12.55L 78.9692 12.55L 78.9692 11.92L 81.8292 11.92L 81.8292 20.52L 78.9692 20.52L 78.9692 19.89L 80.9292 19.89ZM 85.9553 18.11C 85.9553 17.8167 86.0486 17.5767 86.2353 17.39C 86.422 17.1967 86.6586 17.1 86.9453 17.1C 87.232 17.1 87.4686 17.1967 87.6553 17.39C 87.842 17.5767 87.9353 17.8167 87.9353 18.11C 87.9353 18.4033 87.842 18.6467 87.6553 18.84C 87.4686 19.0267 87.232 19.12 86.9453 19.12C 86.6586 19.12 86.422 19.0267 86.2353 18.84C 86.0486 18.6467 85.9553 18.4033 85.9553 18.11ZM 90.7614 11.94L 91.9214 11.94L 91.9214 13.76L 91.8514 14.81C 92.0781 14.5833 92.3314 14.3867 92.6114 14.22C 92.8981 14.0533 93.2314 13.97 93.6114 13.97C 94.1781 13.97 94.5947 14.1433 94.8614 14.49C 95.1281 14.83 95.2614 15.32 95.2614 15.96L 95.2614 19L 94.1014 19L 94.1014 16.11C 94.1014 15.71 94.0314 15.42 93.8914 15.24C 93.7581 15.0533 93.5214 14.96 93.1814 14.96C 92.9414 14.96 92.7281 15.0167 92.5414 15.13C 92.3547 15.2433 92.1481 15.4167 91.9214 15.65L 91.9214 19L 90.7614 19L 90.7614 11.94ZM 96.5575 16.55C 96.5575 16.15 96.6275 15.79 96.7675 15.47C 96.9142 15.15 97.1042 14.88 97.3375 14.66C 97.5708 14.4333 97.8375 14.2633 98.1375 14.15C 98.4442 14.03 98.7575 13.97 99.0775 13.97C 99.4442 13.97 99.7675 14.03 100.048 14.15C 100.334 14.2633 100.574 14.4233 100.768 14.63C 100.961 14.83 101.108 15.0733 101.208 15.36C 101.308 15.6467 101.357 15.96 101.357 16.3C 101.357 16.4133 101.351 16.52 101.338 16.62C 101.331 16.72 101.321 16.8 101.308 16.86L 97.7375 16.86C 97.7775 17.3 97.9508 17.64 98.2575 17.88C 98.5642 18.1133 98.9408 18.23 99.3875 18.23C 99.6408 18.23 99.8775 18.1967 100.098 18.13C 100.318 18.0567 100.541 17.9567 100.768 17.83L 101.158 18.55C 100.891 18.7167 100.594 18.8533 100.267 18.96C 99.9408 19.0667 99.5975 19.12 99.2375 19.12C 98.8642 19.12 98.5142 19.0633 98.1875 18.95C 97.8608 18.83 97.5775 18.66 97.3375 18.44C 97.0975 18.22 96.9075 17.9533 96.7675 17.64C 96.6275 17.32 96.5575 16.9567 96.5575 16.55ZM 100.297 16.08C 100.297 15.7 100.197 15.4033 99.9975 15.19C 99.7975 14.97 99.5008 14.86 99.1075 14.86C 98.7742 14.86 98.4775 14.9633 98.2175 15.17C 97.9575 15.3767 97.7942 15.68 97.7275 16.08L 100.297 16.08ZM 102.644 17.68C 102.644 17.4067 102.707 17.1667 102.834 16.96C 102.96 16.7467 103.16 16.5667 103.434 16.42C 103.707 16.2733 104.057 16.1533 104.484 16.06C 104.91 15.9667 105.427 15.9 106.034 15.86C 106.014 15.58 105.914 15.35 105.734 15.17C 105.554 14.99 105.264 14.9 104.864 14.9C 104.584 14.9 104.307 14.9533 104.034 15.06C 103.767 15.16 103.507 15.28 103.254 15.42L 102.834 14.65C 103.134 14.4767 103.477 14.32 103.864 14.18C 104.25 14.04 104.654 13.97 105.074 13.97C 105.76 13.97 106.284 14.1533 106.644 14.52C 107.004 14.88 107.184 15.4033 107.184 16.09L 107.184 19L 106.244 19L 106.154 18.39L 106.124 18.39C 105.864 18.59 105.574 18.7633 105.254 18.91C 104.94 19.05 104.617 19.12 104.284 19.12C 104.044 19.12 103.824 19.0833 103.624 19.01C 103.424 18.9433 103.25 18.8467 103.104 18.72C 102.957 18.5933 102.844 18.4433 102.764 18.27C 102.684 18.09 102.644 17.8933 102.644 17.68ZM 103.754 17.59C 103.754 17.81 103.837 17.97 104.004 18.07C 104.177 18.17 104.387 18.22 104.634 18.22C 104.88 18.22 105.117 18.1667 105.344 18.06C 105.577 17.9467 105.807 17.8 106.034 17.62L 106.034 16.58C 105.594 16.6133 105.227 16.66 104.934 16.72C 104.64 16.7733 104.407 16.8433 104.234 16.93C 104.06 17.0167 103.937 17.1167 103.864 17.23C 103.79 17.3367 103.754 17.4567 103.754 17.59ZM 108.46 16.55C 108.46 16.15 108.52 15.79 108.64 15.47C 108.76 15.15 108.92 14.88 109.12 14.66C 109.326 14.44 109.56 14.27 109.82 14.15C 110.08 14.03 110.35 13.97 110.63 13.97C 110.923 13.97 111.173 14.0233 111.38 14.13C 111.593 14.23 111.8 14.37 112 14.55L 111.95 13.72L 111.95 11.94L 113.11 11.94L 113.11 19L 112.16 19L 112.07 18.43L 112.04 18.43C 111.846 18.6233 111.62 18.7867 111.36 18.92C 111.106 19.0533 110.84 19.12 110.56 19.12C 110.246 19.12 109.96 19.0633 109.7 18.95C 109.44 18.83 109.216 18.66 109.03 18.44C 108.85 18.22 108.71 17.9533 108.61 17.64C 108.51 17.32 108.46 16.9567 108.46 16.55ZM 109.65 16.54C 109.65 17.0733 109.753 17.48 109.96 17.76C 110.166 18.0333 110.46 18.17 110.84 18.17C 111.246 18.17 111.616 17.9733 111.95 17.58L 111.95 15.37C 111.776 15.2033 111.603 15.0867 111.43 15.02C 111.256 14.9533 111.08 14.92 110.9 14.92C 110.726 14.92 110.563 14.9567 110.41 15.03C 110.263 15.1033 110.133 15.21 110.02 15.35C 109.906 15.4833 109.816 15.65 109.75 15.85C 109.683 16.05 109.65 16.28 109.65 16.54ZM 118.046 20.77C 117.372 20.21 116.839 19.55 116.446 18.79C 116.059 18.03 115.866 17.1733 115.866 16.22C 115.866 15.2667 116.059 14.41 116.446 13.65C 116.839 12.89 117.372 12.23 118.046 11.67L 118.686 12.2C 118.052 12.7733 117.589 13.3833 117.296 14.03C 117.002 14.6767 116.856 15.4067 116.856 16.22C 116.856 17.0333 117.002 17.7633 117.296 18.41C 117.589 19.0567 118.052 19.6667 118.686 20.24L 118.046 20.77ZM 121.162 20.24C 121.795 19.6667 122.259 19.0567 122.552 18.41C 122.845 17.7633 122.992 17.0333 122.992 16.22C 122.992 15.4067 122.845 14.6767 122.552 14.03C 122.259 13.3833 121.795 12.7733 121.162 12.2L 121.802 11.67C 122.475 12.23 123.005 12.89 123.392 13.65C 123.785 14.41 123.982 15.2667 123.982 16.22C 123.982 17.1733 123.785 18.03 123.392 18.79C 123.005 19.55 122.475 20.21 121.802 20.77L 121.162 20.24Z"/>
<path id="path2_fill" d="M 49.0687 13.42L 49.0388 12.14L 50.4387 12.14L 50.4088 13.42L 50.1088 15.73L 49.3688 15.73L 49.0687 13.42ZM 51.5387 13.42L 51.5088 12.14L 52.9087 12.14L 52.8787 13.42L 52.5787 15.73L 51.8387 15.73L 51.5387 13.42ZM 55.5448 19.71C 55.5448 19.93 55.6648 20.1033 55.9048 20.23C 56.1515 20.3567 56.5048 20.42 56.9648 20.42C 57.2048 20.42 57.4215 20.3967 57.6148 20.35C 57.8082 20.31 57.9748 20.2533 58.1148 20.18C 58.2548 20.1067 58.3615 20.02 58.4348 19.92C 58.5082 19.8267 58.5448 19.7267 58.5448 19.62C 58.5448 19.4267 58.4615 19.2967 58.2948 19.23C 58.1282 19.17 57.8815 19.14 57.5548 19.14L 56.7748 19.14C 56.6148 19.14 56.4715 19.1333 56.3448 19.12C 56.2248 19.1133 56.1182 19.0933 56.0248 19.06C 55.8515 19.1667 55.7282 19.2733 55.6548 19.38C 55.5815 19.4867 55.5448 19.5967 55.5448 19.71ZM 54.5848 19.86C 54.5848 19.6667 54.6515 19.48 54.7848 19.3C 54.9182 19.12 55.1115 18.9633 55.3648 18.83L 55.3648 18.79C 55.2315 18.7167 55.1148 18.6133 55.0148 18.48C 54.9148 18.3467 54.8648 18.1767 54.8648 17.97C 54.8648 17.8033 54.9182 17.64 55.0248 17.48C 55.1315 17.3133 55.2748 17.1667 55.4548 17.04L 55.4548 17C 55.2815 16.88 55.1315 16.7133 55.0048 16.5C 54.8848 16.2867 54.8248 16.0333 54.8248 15.74C 54.8248 15.46 54.8782 15.21 54.9848 14.99C 55.0982 14.77 55.2448 14.5867 55.4248 14.44C 55.6115 14.2867 55.8248 14.17 56.0648 14.09C 56.3115 14.01 56.5715 13.97 56.8448 13.97C 57.1382 13.97 57.3948 14.01 57.6148 14.09L 59.6248 14.09L 59.6248 14.94L 58.4748 14.94C 58.5615 15.04 58.6382 15.1633 58.7048 15.31C 58.7715 15.45 58.8048 15.6067 58.8048 15.78C 58.8048 16.0533 58.7548 16.2933 58.6548 16.5C 58.5548 16.7067 58.4148 16.88 58.2348 17.02C 58.0615 17.16 57.8548 17.2667 57.6148 17.34C 57.3748 17.4067 57.1182 17.44 56.8448 17.44C 56.5982 17.44 56.3482 17.3967 56.0948 17.31C 55.8948 17.4367 55.7948 17.5867 55.7948 17.76C 55.7948 18.0733 56.1048 18.23 56.7248 18.23L 57.7248 18.23C 58.3648 18.23 58.8448 18.3233 59.1648 18.51C 59.4915 18.6967 59.6548 19.0033 59.6548 19.43C 59.6548 19.67 59.5882 19.8967 59.4548 20.11C 59.3215 20.3233 59.1315 20.5067 58.8848 20.66C 58.6448 20.82 58.3482 20.9433 57.9948 21.03C 57.6482 21.1233 57.2582 21.17 56.8248 21.17C 56.4848 21.17 56.1782 21.1433 55.9048 21.09C 55.6315 21.0367 55.3948 20.9533 55.1948 20.84C 55.0015 20.7333 54.8515 20.5967 54.7448 20.43C 54.6382 20.27 54.5848 20.08 54.5848 19.86ZM 56.8448 16.72C 57.0982 16.72 57.3182 16.6367 57.5048 16.47C 57.6915 16.2967 57.7848 16.0533 57.7848 15.74C 57.7848 15.44 57.6915 15.2033 57.5048 15.03C 57.3182 14.85 57.0982 14.76 56.8448 14.76C 56.5915 14.76 56.3715 14.85 56.1848 15.03C 56.0048 15.2033 55.9148 15.44 55.9148 15.74C 55.9148 16.0533 56.0048 16.2967 56.1848 16.47C 56.3715 16.6367 56.5915 16.72 56.8448 16.72ZM 61.9409 19.4L 61.9409 20.94L 60.7809 20.94L 60.7809 14.09L 61.7309 14.09L 61.8209 14.65L 61.8509 14.65C 62.0643 14.4567 62.3076 14.2967 62.5809 14.17C 62.8609 14.0367 63.1409 13.97 63.4209 13.97C 63.7409 13.97 64.0243 14.03 64.2709 14.15C 64.5243 14.2633 64.7343 14.43 64.9009 14.65C 65.0743 14.87 65.2043 15.1333 65.2909 15.44C 65.3843 15.7467 65.4309 16.09 65.4309 16.47C 65.4309 16.89 65.3709 17.2667 65.2509 17.6C 65.1309 17.9267 64.9676 18.2033 64.7609 18.43C 64.5609 18.65 64.3276 18.82 64.0609 18.94C 63.8009 19.06 63.5309 19.12 63.2509 19.12C 63.0243 19.12 62.7909 19.07 62.5509 18.97C 62.3176 18.87 62.1009 18.7267 61.9009 18.54L 61.9409 19.4ZM 61.9409 17.72C 62.1209 17.8867 62.3043 18.0033 62.4909 18.07C 62.6843 18.1367 62.8576 18.17 63.0109 18.17C 63.3643 18.17 63.6576 18.03 63.8909 17.75C 64.1243 17.4633 64.2409 17.04 64.2409 16.48C 64.2409 15.9867 64.1509 15.6033 63.9709 15.33C 63.7909 15.0567 63.5009 14.92 63.1009 14.92C 62.9143 14.92 62.7243 14.9667 62.5309 15.06C 62.3376 15.1533 62.1409 15.3033 61.9409 15.51L 61.9409 17.72ZM 71.107 19L 70.167 19L 70.077 18.22L 70.037 18.22C 69.8037 18.4933 69.547 18.7133 69.267 18.88C 68.987 19.04 68.6637 19.12 68.297 19.12C 67.7237 19.12 67.307 18.95 67.047 18.61C 66.787 18.2633 66.657 17.77 66.657 17.13L 66.657 14.09L 67.807 14.09L 67.807 16.98C 67.807 17.38 67.8737 17.6733 68.007 17.86C 68.147 18.04 68.387 18.13 68.727 18.13C 68.9604 18.13 69.167 18.0767 69.347 17.97C 69.5337 17.8633 69.737 17.6733 69.957 17.4L 69.957 14.09L 71.107 14.09L 71.107 19ZM 73.0531 13.42L 73.0231 12.14L 74.4231 12.14L 74.3931 13.42L 74.0931 15.73L 73.3531 15.73L 73.0531 13.42ZM 75.5231 13.42L 75.4931 12.14L 76.8931 12.14L 76.8631 13.42L 76.5631 15.73L 75.8231 15.73L 75.5231 13.42Z"/>
<path id="path3_stroke" d="M 0 0L 0 -0.5L -0.5 -0.5L -0.5 0L 0 0ZM 167 0L 167.5 0L 167.5 -0.5L 167 -0.5L 167 0ZM 167 22.0759L 167 22.5759L 167.5 22.5759L 167.5 22.0759L 167 22.0759ZM 0 22.0759L -0.5 22.0759L -0.5 22.5759L 0 22.5759L 0 22.0759ZM 0 0.5L 167 0.5L 167 -0.5L 0 -0.5L 0 0.5ZM 166.5 0L 166.5 22.0759L 167.5 22.0759L 167.5 0L 166.5 0ZM 167 21.5759L 0 21.5759L 0 22.5759L 167 22.5759L 167 21.5759ZM 0.5 22.0759L 0.5 0L -0.5 0L -0.5 22.0759L 0.5 22.0759Z"/>
<path id="path4_stroke" d="M 0 0L 0 -0.5L -0.5 -0.5L -0.5 0L 0 0ZM 167 0L 167.5 0L 167.5 -0.5L 167 -0.5L 167 0ZM 167 22L 167 22.5L 167.5 22.5L 167.5 22L 167 22ZM 0 22L -0.5 22L -0.5 22.5L 0 22.5L 0 22ZM 0 0.5L 167 0.5L 167 -0.5L 0 -0.5L 0 0.5ZM 166.5 0L 166.5 22L 167.5 22L 167.5 0L 166.5 0ZM 167 21.5L 0 21.5L 0 22.5L 167 22.5L 167 21.5ZM 0.5 22L 0.5 0L -0.5 0L -0.5 22L 0.5 22Z"/>
<path id="path5_fill" d="M 6.05859 7.36133C 6.05859 8.63086 5.8418 9.57422 5.4082 10.1914C 4.97461 10.8086 4.29688 11.1172 3.375 11.1172C 2.46484 11.1172 1.79102 10.8164 1.35352 10.2148C 0.916016 9.60938 0.689453 8.70703 0.673828 7.50781L 0.673828 6.06055C 0.673828 4.80664 0.890625 3.875 1.32422 3.26562C 1.75781 2.65625 2.4375 2.35156 3.36328 2.35156C 4.28125 2.35156 4.95703 2.64648 5.39062 3.23633C 5.82422 3.82227 6.04688 4.72852 6.05859 5.95508L 6.05859 7.36133ZM 4.97461 5.87891C 4.97461 4.96094 4.8457 4.29297 4.58789 3.875C 4.33008 3.45312 3.92188 3.24219 3.36328 3.24219C 2.80859 3.24219 2.4043 3.45117 2.15039 3.86914C 1.89648 4.28711 1.76562 4.92969 1.75781 5.79688L 1.75781 7.53125C 1.75781 8.45312 1.89062 9.13477 2.15625 9.57617C 2.42578 10.0137 2.83203 10.2324 3.375 10.2324C 3.91016 10.2324 4.30664 10.0254 4.56445 9.61133C 4.82617 9.19727 4.96289 8.54492 4.97461 7.6543L 4.97461 5.87891Z"/>
<path id="path6_fill" d="M 2.19727 11L 1.07227 11L 1.07227 2.46875L 2.19727 2.46875L 2.19727 11ZM 5.11523 4.66016L 5.15039 5.45703C 5.63477 4.84766 6.26758 4.54297 7.04883 4.54297C 8.38867 4.54297 9.06445 5.29883 9.07617 6.81055L 9.07617 11L 7.99219 11L 7.99219 6.80469C 7.98828 6.34766 7.88281 6.00977 7.67578 5.79102C 7.47266 5.57227 7.1543 5.46289 6.7207 5.46289C 6.36914 5.46289 6.06055 5.55664 5.79492 5.74414C 5.5293 5.93164 5.32227 6.17773 5.17383 6.48242L 5.17383 11L 4.08984 11L 4.08984 4.66016L 5.11523 4.66016ZM 12.1816 3.125L 12.1816 4.66016L 13.3652 4.66016L 13.3652 5.49805L 12.1816 5.49805L 12.1816 9.42969C 12.1816 9.68359 12.2344 9.875 12.3398 10.0039C 12.4453 10.1289 12.625 10.1914 12.8789 10.1914C 13.0039 10.1914 13.1758 10.168 13.3945 10.1211L 13.3945 11C 13.1094 11.0781 12.832 11.1172 12.5625 11.1172C 12.0781 11.1172 11.7129 10.9707 11.4668 10.6777C 11.2207 10.3848 11.0977 9.96875 11.0977 9.42969L 11.0977 5.49805L 9.94336 5.49805L 9.94336 4.66016L 11.0977 4.66016L 11.0977 3.125L 12.1816 3.125ZM 17.2676 11.1172C 16.4082 11.1172 15.709 10.8359 15.1699 10.2734C 14.6309 9.70703 14.3613 8.95117 14.3613 8.00586L 14.3613 7.80664C 14.3613 7.17773 14.4805 6.61719 14.7188 6.125C 14.9609 5.62891 15.2969 5.24219 15.7266 4.96484C 16.1602 4.68359 16.6289 4.54297 17.1328 4.54297C 17.957 4.54297 18.5977 4.81445 19.0547 5.35742C 19.5117 5.90039 19.7402 6.67773 19.7402 7.68945L 19.7402 8.14062L 15.4453 8.14062C 15.4609 8.76562 15.6426 9.27148 15.9902 9.6582C 16.3418 10.041 16.7871 10.2324 17.3262 10.2324C 17.709 10.2324 18.0332 10.1543 18.2988 9.99805C 18.5645 9.8418 18.7969 9.63477 18.9961 9.37695L 19.6582 9.89258C 19.127 10.709 18.3301 11.1172 17.2676 11.1172ZM 17.1328 5.43359C 16.6953 5.43359 16.3281 5.59375 16.0312 5.91406C 15.7344 6.23047 15.5508 6.67578 15.4805 7.25L 18.6562 7.25L 18.6562 7.16797C 18.625 6.61719 18.4766 6.19141 18.2109 5.89062C 17.9453 5.58594 17.5859 5.43359 17.1328 5.43359ZM 22.1777 11L 21.0938 11L 21.0938 2L 22.1777 2L 22.1777 11ZM 28.2715 11L 27.1465 11L 27.1465 2.46875L 28.2715 2.46875L 28.2715 11ZM 33.2285 5.63281C 33.0645 5.60547 32.8867 5.5918 32.6953 5.5918C 31.9844 5.5918 31.502 5.89453 31.248 6.5L 31.248 11L 30.1641 11L 30.1641 4.66016L 31.2188 4.66016L 31.2363 5.39258C 31.5918 4.82617 32.0957 4.54297 32.748 4.54297C 32.959 4.54297 33.1191 4.57031 33.2285 4.625L 33.2285 5.63281ZM 35.4082 11L 34.3242 11L 34.3242 4.66016L 35.4082 4.66016L 35.4082 11ZM 34.2363 2.97852C 34.2363 2.80273 34.2891 2.6543 34.3945 2.5332C 34.5039 2.41211 34.6641 2.35156 34.875 2.35156C 35.0859 2.35156 35.2461 2.41211 35.3555 2.5332C 35.4648 2.6543 35.5195 2.80273 35.5195 2.97852C 35.5195 3.1543 35.4648 3.30078 35.3555 3.41797C 35.2461 3.53516 35.0859 3.59375 34.875 3.59375C 34.6641 3.59375 34.5039 3.53516 34.3945 3.41797C 34.2891 3.30078 34.2363 3.1543 34.2363 2.97852ZM 40.8398 9.31836C 40.8398 9.02539 40.7285 8.79883 40.5059 8.63867C 40.2871 8.47461 39.9023 8.33398 39.3516 8.2168C 38.8047 8.09961 38.3691 7.95898 38.0449 7.79492C 37.7246 7.63086 37.4863 7.43555 37.3301 7.20898C 37.1777 6.98242 37.1016 6.71289 37.1016 6.40039C 37.1016 5.88086 37.3203 5.44141 37.7578 5.08203C 38.1992 4.72266 38.7617 4.54297 39.4453 4.54297C 40.1641 4.54297 40.7461 4.72852 41.1914 5.09961C 41.6406 5.4707 41.8652 5.94531 41.8652 6.52344L 40.7754 6.52344C 40.7754 6.22656 40.6484 5.9707 40.3945 5.75586C 40.1445 5.54102 39.8281 5.43359 39.4453 5.43359C 39.0508 5.43359 38.7422 5.51953 38.5195 5.69141C 38.2969 5.86328 38.1855 6.08789 38.1855 6.36523C 38.1855 6.62695 38.2891 6.82422 38.4961 6.95703C 38.7031 7.08984 39.0762 7.2168 39.6152 7.33789C 40.1582 7.45898 40.5977 7.60352 40.9336 7.77148C 41.2695 7.93945 41.5176 8.14258 41.6777 8.38086C 41.8418 8.61523 41.9238 8.90234 41.9238 9.24219C 41.9238 9.80859 41.6973 10.2637 41.2441 10.6074C 40.791 10.9473 40.2031 11.1172 39.4805 11.1172C 38.9727 11.1172 38.5234 11.0273 38.1328 10.8477C 37.7422 10.668 37.4355 10.418 37.2129 10.0977C 36.9941 9.77344 36.8848 9.42383 36.8848 9.04883L 37.9688 9.04883C 37.9883 9.41211 38.1328 9.70117 38.4023 9.91602C 38.6758 10.127 39.0352 10.2324 39.4805 10.2324C 39.8906 10.2324 40.2188 10.1504 40.4648 9.98633C 40.7148 9.81836 40.8398 9.5957 40.8398 9.31836ZM 47.6074 7.66016L 47.6074 11L 46.4824 11L 46.4824 2.46875L 49.6289 2.46875C 50.5625 2.46875 51.293 2.70703 51.8203 3.18359C 52.3516 3.66016 52.6172 4.29102 52.6172 5.07617C 52.6172 5.9043 52.3574 6.54297 51.8379 6.99219C 51.3223 7.4375 50.582 7.66016 49.6172 7.66016L 47.6074 7.66016ZM 47.6074 6.74023L 49.6289 6.74023C 50.2305 6.74023 50.6914 6.59961 51.0117 6.31836C 51.332 6.0332 51.4922 5.62305 51.4922 5.08789C 51.4922 4.58008 51.332 4.17383 51.0117 3.86914C 50.6914 3.56445 50.252 3.40625 49.6934 3.39453L 47.6074 3.39453L 47.6074 6.74023ZM 55.0605 11L 53.9766 11L 53.9766 2L 55.0605 2L 55.0605 11ZM 60.7148 10.373C 60.293 10.8691 59.6738 11.1172 58.8574 11.1172C 58.1816 11.1172 57.666 10.9219 57.3105 10.5312C 56.959 10.1367 56.7812 9.55469 56.7773 8.78516L 56.7773 4.66016L 57.8613 4.66016L 57.8613 8.75586C 57.8613 9.7168 58.252 10.1973 59.0332 10.1973C 59.8613 10.1973 60.4121 9.88867 60.6855 9.27148L 60.6855 4.66016L 61.7695 4.66016L 61.7695 11L 60.7383 11L 60.7148 10.373ZM 67.1133 9.31836C 67.1133 9.02539 67.002 8.79883 66.7793 8.63867C 66.5605 8.47461 66.1758 8.33398 65.625 8.2168C 65.0781 8.09961 64.6426 7.95898 64.3184 7.79492C 63.998 7.63086 63.7598 7.43555 63.6035 7.20898C 63.4512 6.98242 63.375 6.71289 63.375 6.40039C 63.375 5.88086 63.5938 5.44141 64.0312 5.08203C 64.4727 4.72266 65.0352 4.54297 65.7188 4.54297C 66.4375 4.54297 67.0195 4.72852 67.4648 5.09961C 67.9141 5.4707 68.1387 5.94531 68.1387 6.52344L 67.0488 6.52344C 67.0488 6.22656 66.9219 5.9707 66.668 5.75586C 66.418 5.54102 66.1016 5.43359 65.7188 5.43359C 65.3242 5.43359 65.0156 5.51953 64.793 5.69141C 64.5703 5.86328 64.459 6.08789 64.459 6.36523C 64.459 6.62695 64.5625 6.82422 64.7695 6.95703C 64.9766 7.08984 65.3496 7.2168 65.8887 7.33789C 66.4316 7.45898 66.8711 7.60352 67.207 7.77148C 67.543 7.93945 67.791 8.14258 67.9512 8.38086C 68.1152 8.61523 68.1973 8.90234 68.1973 9.24219C 68.1973 9.80859 67.9707 10.2637 67.5176 10.6074C 67.0645 10.9473 66.4766 11.1172 65.7539 11.1172C 65.2461 11.1172 64.7969 11.0273 64.4062 10.8477C 64.0156 10.668 63.709 10.418 63.4863 10.0977C 63.2676 9.77344 63.1582 9.42383 63.1582 9.04883L 64.2422 9.04883C 64.2617 9.41211 64.4062 9.70117 64.6758 9.91602C 64.9492 10.127 65.3086 10.2324 65.7539 10.2324C 66.1641 10.2324 66.4922 10.1504 66.7383 9.98633C 66.9883 9.81836 67.1133 9.5957 67.1133 9.31836ZM 79.0547 9.88086C 78.7656 10.2949 78.3613 10.6055 77.8418 10.8125C 77.3262 11.0156 76.7246 11.1172 76.0371 11.1172C 75.3418 11.1172 74.7246 10.9551 74.1855 10.6309C 73.6465 10.3027 73.2285 9.83789 72.9316 9.23633C 72.6387 8.63477 72.4883 7.9375 72.4805 7.14453L 72.4805 6.40039C 72.4805 5.11523 72.7793 4.11914 73.377 3.41211C 73.9785 2.70508 74.8223 2.35156 75.9082 2.35156C 76.7988 2.35156 77.5156 2.58008 78.0586 3.03711C 78.6016 3.49023 78.9336 4.13477 79.0547 4.9707L 77.9297 4.9707C 77.7188 3.8418 77.0469 3.27734 75.9141 3.27734C 75.1602 3.27734 74.5879 3.54297 74.1973 4.07422C 73.8105 4.60156 73.6152 5.36719 73.6113 6.37109L 73.6113 7.06836C 73.6113 8.02539 73.8301 8.78711 74.2676 9.35352C 74.7051 9.91602 75.2969 10.1973 76.043 10.1973C 76.4648 10.1973 76.834 10.1504 77.1504 10.0566C 77.4668 9.96289 77.7285 9.80469 77.9355 9.58203L 77.9355 7.66602L 75.9609 7.66602L 75.9609 6.75195L 79.0547 6.75195L 79.0547 9.88086ZM 83.8301 5.63281C 83.666 5.60547 83.4883 5.5918 83.2969 5.5918C 82.5859 5.5918 82.1035 5.89453 81.8496 6.5L 81.8496 11L 80.7656 11L 80.7656 4.66016L 81.8203 4.66016L 81.8379 5.39258C 82.1934 4.82617 82.6973 4.54297 83.3496 4.54297C 83.5605 4.54297 83.7207 4.57031 83.8301 4.625L 83.8301 5.63281ZM 88.5117 11C 88.4492 10.875 88.3984 10.6523 88.3594 10.332C 87.8555 10.8555 87.2539 11.1172 86.5547 11.1172C 85.9297 11.1172 85.416 10.9414 85.0137 10.5898C 84.6152 10.2344 84.416 9.78516 84.416 9.24219C 84.416 8.58203 84.666 8.07031 85.166 7.70703C 85.6699 7.33984 86.377 7.15625 87.2871 7.15625L 88.3418 7.15625L 88.3418 6.6582C 88.3418 6.2793 88.2285 5.97852 88.002 5.75586C 87.7754 5.5293 87.4414 5.41602 87 5.41602C 86.6133 5.41602 86.2891 5.51367 86.0273 5.70898C 85.7656 5.9043 85.6348 6.14062 85.6348 6.41797L 84.5449 6.41797C 84.5449 6.10156 84.6562 5.79688 84.8789 5.50391C 85.1055 5.20703 85.4102 4.97266 85.793 4.80078C 86.1797 4.62891 86.6035 4.54297 87.0645 4.54297C 87.7949 4.54297 88.3672 4.72656 88.7812 5.09375C 89.1953 5.45703 89.4102 5.95898 89.4258 6.59961L 89.4258 9.51758C 89.4258 10.0996 89.5 10.5625 89.6484 10.9062L 89.6484 11L 88.5117 11ZM 86.7129 10.1738C 87.0527 10.1738 87.375 10.0859 87.6797 9.91016C 87.9844 9.73438 88.2051 9.50586 88.3418 9.22461L 88.3418 7.92383L 87.4922 7.92383C 86.1641 7.92383 85.5 8.3125 85.5 9.08984C 85.5 9.42969 85.6133 9.69531 85.8398 9.88672C 86.0664 10.0781 86.3574 10.1738 86.7129 10.1738ZM 96.4805 7.90039C 96.4805 8.86523 96.2598 9.64258 95.8184 10.2324C 95.377 10.8223 94.7793 11.1172 94.0254 11.1172C 93.2559 11.1172 92.6504 10.873 92.209 10.3848L 92.209 13.4375L 91.125 13.4375L 91.125 4.66016L 92.1152 4.66016L 92.168 5.36328C 92.6094 4.81641 93.2227 4.54297 94.0078 4.54297C 94.7695 4.54297 95.3711 4.83008 95.8125 5.4043C 96.2578 5.97852 96.4805 6.77734 96.4805 7.80078L 96.4805 7.90039ZM 95.3965 7.77734C 95.3965 7.0625 95.2441 6.49805 94.9395 6.08398C 94.6348 5.66992 94.2168 5.46289 93.6855 5.46289C 93.0293 5.46289 92.5371 5.75391 92.209 6.33594L 92.209 9.36523C 92.5332 9.94336 93.0293 10.2324 93.6973 10.2324C 94.2168 10.2324 94.6289 10.0273 94.9336 9.61719C 95.2422 9.20312 95.3965 8.58984 95.3965 7.77734ZM 98.9473 5.42773C 99.4277 4.83789 100.053 4.54297 100.822 4.54297C 102.162 4.54297 102.838 5.29883 102.85 6.81055L 102.85 11L 101.766 11L 101.766 6.80469C 101.762 6.34766 101.656 6.00977 101.449 5.79102C 101.246 5.57227 100.928 5.46289 100.494 5.46289C 100.143 5.46289 99.834 5.55664 99.5684 5.74414C 99.3027 5.93164 99.0957 6.17773 98.9473 6.48242L 98.9473 11L 97.8633 11L 97.8633 2L 98.9473 2L 98.9473 5.42773ZM 105.65 11L 104.566 11L 104.566 4.66016L 105.65 4.66016L 105.65 11ZM 104.479 2.97852C 104.479 2.80273 104.531 2.6543 104.637 2.5332C 104.746 2.41211 104.906 2.35156 105.117 2.35156C 105.328 2.35156 105.488 2.41211 105.598 2.5332C 105.707 2.6543 105.762 2.80273 105.762 2.97852C 105.762 3.1543 105.707 3.30078 105.598 3.41797C 105.488 3.53516 105.328 3.59375 105.117 3.59375C 104.906 3.59375 104.746 3.53516 104.637 3.41797C 104.531 3.30078 104.479 3.1543 104.479 2.97852ZM 109.934 10.2324C 110.32 10.2324 110.658 10.1152 110.947 9.88086C 111.236 9.64648 111.396 9.35352 111.428 9.00195L 112.453 9.00195C 112.434 9.36523 112.309 9.71094 112.078 10.0391C 111.848 10.3672 111.539 10.6289 111.152 10.8242C 110.77 11.0195 110.363 11.1172 109.934 11.1172C 109.07 11.1172 108.383 10.8301 107.871 10.2559C 107.363 9.67773 107.109 8.88867 107.109 7.88867L 107.109 7.70703C 107.109 7.08984 107.223 6.54102 107.449 6.06055C 107.676 5.58008 108 5.20703 108.422 4.94141C 108.848 4.67578 109.35 4.54297 109.928 4.54297C 110.639 4.54297 111.229 4.75586 111.697 5.18164C 112.17 5.60742 112.422 6.16016 112.453 6.83984L 111.428 6.83984C 111.396 6.42969 111.24 6.09375 110.959 5.83203C 110.682 5.56641 110.338 5.43359 109.928 5.43359C 109.377 5.43359 108.949 5.63281 108.645 6.03125C 108.344 6.42578 108.193 6.99805 108.193 7.74805L 108.193 7.95312C 108.193 8.68359 108.344 9.24609 108.645 9.64062C 108.945 10.0352 109.375 10.2324 109.934 10.2324ZM 117.363 9.31836C 117.363 9.02539 117.252 8.79883 117.029 8.63867C 116.811 8.47461 116.426 8.33398 115.875 8.2168C 115.328 8.09961 114.893 7.95898 114.568 7.79492C 114.248 7.63086 114.01 7.43555 113.854 7.20898C 113.701 6.98242 113.625 6.71289 113.625 6.40039C 113.625 5.88086 113.844 5.44141 114.281 5.08203C 114.723 4.72266 115.285 4.54297 115.969 4.54297C 116.688 4.54297 117.27 4.72852 117.715 5.09961C 118.164 5.4707 118.389 5.94531 118.389 6.52344L 117.299 6.52344C 117.299 6.22656 117.172 5.9707 116.918 5.75586C 116.668 5.54102 116.352 5.43359 115.969 5.43359C 115.574 5.43359 115.266 5.51953 115.043 5.69141C 114.82 5.86328 114.709 6.08789 114.709 6.36523C 114.709 6.62695 114.812 6.82422 115.02 6.95703C 115.227 7.08984 115.6 7.2168 116.139 7.33789C 116.682 7.45898 117.121 7.60352 117.457 7.77148C 117.793 7.93945 118.041 8.14258 118.201 8.38086C 118.365 8.61523 118.447 8.90234 118.447 9.24219C 118.447 9.80859 118.221 10.2637 117.768 10.6074C 117.314 10.9473 116.727 11.1172 116.004 11.1172C 115.496 11.1172 115.047 11.0273 114.656 10.8477C 114.266 10.668 113.959 10.418 113.736 10.0977C 113.518 9.77344 113.408 9.42383 113.408 9.04883L 114.492 9.04883C 114.512 9.41211 114.656 9.70117 114.926 9.91602C 115.199 10.127 115.559 10.2324 116.004 10.2324C 116.414 10.2324 116.742 10.1504 116.988 9.98633C 117.238 9.81836 117.363 9.5957 117.363 9.31836ZM 126.979 2.46289L 126.979 3.38281L 126.779 3.38281C 125.936 3.39844 125.264 3.64844 124.764 4.13281C 124.264 4.61719 123.975 5.29883 123.896 6.17773C 124.346 5.66211 124.959 5.4043 125.736 5.4043C 126.479 5.4043 127.07 5.66602 127.512 6.18945C 127.957 6.71289 128.18 7.38867 128.18 8.2168C 128.18 9.0957 127.939 9.79883 127.459 10.3262C 126.982 10.8535 126.342 11.1172 125.537 11.1172C 124.721 11.1172 124.059 10.8047 123.551 10.1797C 123.043 9.55078 122.789 8.74219 122.789 7.75391L 122.789 7.33789C 122.789 5.76758 123.123 4.56836 123.791 3.74023C 124.463 2.9082 125.461 2.48242 126.785 2.46289L 126.979 2.46289ZM 125.555 6.30664C 125.184 6.30664 124.842 6.41797 124.529 6.64062C 124.217 6.86328 124 7.14258 123.879 7.47852L 123.879 7.87695C 123.879 8.58008 124.037 9.14648 124.354 9.57617C 124.67 10.0059 125.064 10.2207 125.537 10.2207C 126.025 10.2207 126.408 10.041 126.686 9.68164C 126.967 9.32227 127.107 8.85156 127.107 8.26953C 127.107 7.68359 126.965 7.21094 126.68 6.85156C 126.398 6.48828 126.023 6.30664 125.555 6.30664ZM 134.039 8.13477L 135.223 8.13477L 135.223 9.01953L 134.039 9.01953L 134.039 11L 132.949 11L 132.949 9.01953L 129.064 9.01953L 129.064 8.38086L 132.885 2.46875L 134.039 2.46875L 134.039 8.13477ZM 130.295 8.13477L 132.949 8.13477L 132.949 3.95117L 132.82 4.18555L 130.295 8.13477ZM 141.551 7.36133C 141.551 8.63086 141.334 9.57422 140.9 10.1914C 140.467 10.8086 139.789 11.1172 138.867 11.1172C 137.957 11.1172 137.283 10.8164 136.846 10.2148C 136.408 9.60938 136.182 8.70703 136.166 7.50781L 136.166 6.06055C 136.166 4.80664 136.383 3.875 136.816 3.26562C 137.25 2.65625 137.93 2.35156 138.855 2.35156C 139.773 2.35156 140.449 2.64648 140.883 3.23633C 141.316 3.82227 141.539 4.72852 141.551 5.95508L 141.551 7.36133ZM 140.467 5.87891C 140.467 4.96094 140.338 4.29297 140.08 3.875C 139.822 3.45312 139.414 3.24219 138.855 3.24219C 138.301 3.24219 137.896 3.45117 137.643 3.86914C 137.389 4.28711 137.258 4.92969 137.25 5.79688L 137.25 7.53125C 137.25 8.45312 137.383 9.13477 137.648 9.57617C 137.918 10.0137 138.324 10.2324 138.867 10.2324C 139.402 10.2324 139.799 10.0254 140.057 9.61133C 140.318 9.19727 140.455 8.54492 140.467 7.6543L 140.467 5.87891Z"/>
<path id="path7_fill" d="M 2.19727 12L 1.07227 12L 1.07227 3.46875L 2.19727 3.46875L 2.19727 12ZM 5.11523 5.66016L 5.15039 6.45703C 5.63477 5.84766 6.26758 5.54297 7.04883 5.54297C 8.38867 5.54297 9.06445 6.29883 9.07617 7.81055L 9.07617 12L 7.99219 12L 7.99219 7.80469C 7.98828 7.34766 7.88281 7.00977 7.67578 6.79102C 7.47266 6.57227 7.1543 6.46289 6.7207 6.46289C 6.36914 6.46289 6.06055 6.55664 5.79492 6.74414C 5.5293 6.93164 5.32227 7.17773 5.17383 7.48242L 5.17383 12L 4.08984 12L 4.08984 5.66016L 5.11523 5.66016ZM 12.1816 4.125L 12.1816 5.66016L 13.3652 5.66016L 13.3652 6.49805L 12.1816 6.49805L 12.1816 10.4297C 12.1816 10.6836 12.2344 10.875 12.3398 11.0039C 12.4453 11.1289 12.625 11.1914 12.8789 11.1914C 13.0039 11.1914 13.1758 11.168 13.3945 11.1211L 13.3945 12C 13.1094 12.0781 12.832 12.1172 12.5625 12.1172C 12.0781 12.1172 11.7129 11.9707 11.4668 11.6777C 11.2207 11.3848 11.0977 10.9688 11.0977 10.4297L 11.0977 6.49805L 9.94336 6.49805L 9.94336 5.66016L 11.0977 5.66016L 11.0977 4.125L 12.1816 4.125ZM 17.2676 12.1172C 16.4082 12.1172 15.709 11.8359 15.1699 11.2734C 14.6309 10.707 14.3613 9.95117 14.3613 9.00586L 14.3613 8.80664C 14.3613 8.17773 14.4805 7.61719 14.7188 7.125C 14.9609 6.62891 15.2969 6.24219 15.7266 5.96484C 16.1602 5.68359 16.6289 5.54297 17.1328 5.54297C 17.957 5.54297 18.5977 5.81445 19.0547 6.35742C 19.5117 6.90039 19.7402 7.67773 19.7402 8.68945L 19.7402 9.14062L 15.4453 9.14062C 15.4609 9.76562 15.6426 10.2715 15.9902 10.6582C 16.3418 11.041 16.7871 11.2324 17.3262 11.2324C 17.709 11.2324 18.0332 11.1543 18.2988 10.998C 18.5645 10.8418 18.7969 10.6348 18.9961 10.377L 19.6582 10.8926C 19.127 11.709 18.3301 12.1172 17.2676 12.1172ZM 17.1328 6.43359C 16.6953 6.43359 16.3281 6.59375 16.0312 6.91406C 15.7344 7.23047 15.5508 7.67578 15.4805 8.25L 18.6562 8.25L 18.6562 8.16797C 18.625 7.61719 18.4766 7.19141 18.2109 6.89062C 17.9453 6.58594 17.5859 6.43359 17.1328 6.43359ZM 22.1777 12L 21.0938 12L 21.0938 3L 22.1777 3L 22.1777 12ZM 33.6211 12L 32.4902 12L 32.4902 8.05664L 28.1895 8.05664L 28.1895 12L 27.0645 12L 27.0645 3.46875L 28.1895 3.46875L 28.1895 7.13672L 32.4902 7.13672L 32.4902 3.46875L 33.6211 3.46875L 33.6211 12ZM 35.6191 12L 35.6191 3.46875L 38.0273 3.46875C 38.7695 3.46875 39.4258 3.63281 39.9961 3.96094C 40.5664 4.28906 41.0059 4.75586 41.3145 5.36133C 41.627 5.9668 41.7852 6.66211 41.7891 7.44727L 41.7891 7.99219C 41.7891 8.79688 41.6328 9.50195 41.3203 10.1074C 41.0117 10.7129 40.5684 11.1777 39.9902 11.502C 39.416 11.8262 38.7461 11.9922 37.9805 12L 35.6191 12ZM 36.7441 4.39453L 36.7441 11.0801L 37.9277 11.0801C 38.7949 11.0801 39.4688 10.8105 39.9492 10.2715C 40.4336 9.73242 40.6758 8.96484 40.6758 7.96875L 40.6758 7.4707C 40.6758 6.50195 40.4473 5.75 39.9902 5.21484C 39.5371 4.67578 38.8926 4.40234 38.0566 4.39453L 36.7441 4.39453ZM 52.7695 10.8809C 52.4805 11.2949 52.0762 11.6055 51.5566 11.8125C 51.041 12.0156 50.4395 12.1172 49.752 12.1172C 49.0566 12.1172 48.4395 11.9551 47.9004 11.6309C 47.3613 11.3027 46.9434 10.8379 46.6465 10.2363C 46.3535 9.63477 46.2031 8.9375 46.1953 8.14453L 46.1953 7.40039C 46.1953 6.11523 46.4941 5.11914 47.0918 4.41211C 47.6934 3.70508 48.5371 3.35156 49.623 3.35156C 50.5137 3.35156 51.2305 3.58008 51.7734 4.03711C 52.3164 4.49023 52.6484 5.13477 52.7695 5.9707L 51.6445 5.9707C 51.4336 4.8418 50.7617 4.27734 49.6289 4.27734C 48.875 4.27734 48.3027 4.54297 47.9121 5.07422C 47.5254 5.60156 47.3301 6.36719 47.3262 7.37109L 47.3262 8.06836C 47.3262 9.02539 47.5449 9.78711 47.9824 10.3535C 48.4199 10.916 49.0117 11.1973 49.7578 11.1973C 50.1797 11.1973 50.5488 11.1504 50.8652 11.0566C 51.1816 10.9629 51.4434 10.8047 51.6504 10.582L 51.6504 8.66602L 49.6758 8.66602L 49.6758 7.75195L 52.7695 7.75195L 52.7695 10.8809ZM 57.5449 6.63281C 57.3809 6.60547 57.2031 6.5918 57.0117 6.5918C 56.3008 6.5918 55.8184 6.89453 55.5645 7.5L 55.5645 12L 54.4805 12L 54.4805 5.66016L 55.5352 5.66016L 55.5527 6.39258C 55.9082 5.82617 56.4121 5.54297 57.0645 5.54297C 57.2754 5.54297 57.4355 5.57031 57.5449 5.625L 57.5449 6.63281ZM 62.2266 12C 62.1641 11.875 62.1133 11.6523 62.0742 11.332C 61.5703 11.8555 60.9688 12.1172 60.2695 12.1172C 59.6445 12.1172 59.1309 11.9414 58.7285 11.5898C 58.3301 11.2344 58.1309 10.7852 58.1309 10.2422C 58.1309 9.58203 58.3809 9.07031 58.8809 8.70703C 59.3848 8.33984 60.0918 8.15625 61.002 8.15625L 62.0566 8.15625L 62.0566 7.6582C 62.0566 7.2793 61.9434 6.97852 61.7168 6.75586C 61.4902 6.5293 61.1562 6.41602 60.7148 6.41602C 60.3281 6.41602 60.0039 6.51367 59.7422 6.70898C 59.4805 6.9043 59.3496 7.14062 59.3496 7.41797L 58.2598 7.41797C 58.2598 7.10156 58.3711 6.79688 58.5938 6.50391C 58.8203 6.20703 59.125 5.97266 59.5078 5.80078C 59.8945 5.62891 60.3184 5.54297 60.7793 5.54297C 61.5098 5.54297 62.082 5.72656 62.4961 6.09375C 62.9102 6.45703 63.125 6.95898 63.1406 7.59961L 63.1406 10.5176C 63.1406 11.0996 63.2148 11.5625 63.3633 11.9062L 63.3633 12L 62.2266 12ZM 60.4277 11.1738C 60.7676 11.1738 61.0898 11.0859 61.3945 10.9102C 61.6992 10.7344 61.9199 10.5059 62.0566 10.2246L 62.0566 8.92383L 61.207 8.92383C 59.8789 8.92383 59.2148 9.3125 59.2148 10.0898C 59.2148 10.4297 59.3281 10.6953 59.5547 10.8867C 59.7812 11.0781 60.0723 11.1738 60.4277 11.1738ZM 70.1953 8.90039C 70.1953 9.86523 69.9746 10.6426 69.5332 11.2324C 69.0918 11.8223 68.4941 12.1172 67.7402 12.1172C 66.9707 12.1172 66.3652 11.873 65.9238 11.3848L 65.9238 14.4375L 64.8398 14.4375L 64.8398 5.66016L 65.8301 5.66016L 65.8828 6.36328C 66.3242 5.81641 66.9375 5.54297 67.7227 5.54297C 68.4844 5.54297 69.0859 5.83008 69.5273 6.4043C 69.9727 6.97852 70.1953 7.77734 70.1953 8.80078L 70.1953 8.90039ZM 69.1113 8.77734C 69.1113 8.0625 68.959 7.49805 68.6543 7.08398C 68.3496 6.66992 67.9316 6.46289 67.4004 6.46289C 66.7441 6.46289 66.252 6.75391 65.9238 7.33594L 65.9238 10.3652C 66.248 10.9434 66.7441 11.2324 67.4121 11.2324C 67.9316 11.2324 68.3438 11.0273 68.6484 10.6172C 68.957 10.2031 69.1113 9.58984 69.1113 8.77734ZM 72.6621 6.42773C 73.1426 5.83789 73.7676 5.54297 74.5371 5.54297C 75.877 5.54297 76.5527 6.29883 76.5645 7.81055L 76.5645 12L 75.4805 12L 75.4805 7.80469C 75.4766 7.34766 75.3711 7.00977 75.1641 6.79102C 74.9609 6.57227 74.6426 6.46289 74.209 6.46289C 73.8574 6.46289 73.5488 6.55664 73.2832 6.74414C 73.0176 6.93164 72.8105 7.17773 72.6621 7.48242L 72.6621 12L 71.5781 12L 71.5781 3L 72.6621 3L 72.6621 6.42773ZM 79.3652 12L 78.2812 12L 78.2812 5.66016L 79.3652 5.66016L 79.3652 12ZM 78.1934 3.97852C 78.1934 3.80273 78.2461 3.6543 78.3516 3.5332C 78.4609 3.41211 78.6211 3.35156 78.832 3.35156C 79.043 3.35156 79.2031 3.41211 79.3125 3.5332C 79.4219 3.6543 79.4766 3.80273 79.4766 3.97852C 79.4766 4.1543 79.4219 4.30078 79.3125 4.41797C 79.2031 4.53516 79.043 4.59375 78.832 4.59375C 78.6211 4.59375 78.4609 4.53516 78.3516 4.41797C 78.2461 4.30078 78.1934 4.1543 78.1934 3.97852ZM 83.6484 11.2324C 84.0352 11.2324 84.373 11.1152 84.6621 10.8809C 84.9512 10.6465 85.1113 10.3535 85.1426 10.002L 86.168 10.002C 86.1484 10.3652 86.0234 10.7109 85.793 11.0391C 85.5625 11.3672 85.2539 11.6289 84.8672 11.8242C 84.4844 12.0195 84.0781 12.1172 83.6484 12.1172C 82.7852 12.1172 82.0977 11.8301 81.5859 11.2559C 81.0781 10.6777 80.8242 9.88867 80.8242 8.88867L 80.8242 8.70703C 80.8242 8.08984 80.9375 7.54102 81.1641 7.06055C 81.3906 6.58008 81.7148 6.20703 82.1367 5.94141C 82.5625 5.67578 83.0645 5.54297 83.6426 5.54297C 84.3535 5.54297 84.9434 5.75586 85.4121 6.18164C 85.8848 6.60742 86.1367 7.16016 86.168 7.83984L 85.1426 7.83984C 85.1113 7.42969 84.9551 7.09375 84.6738 6.83203C 84.3965 6.56641 84.0527 6.43359 83.6426 6.43359C 83.0918 6.43359 82.6641 6.63281 82.3594 7.03125C 82.0586 7.42578 81.9082 7.99805 81.9082 8.74805L 81.9082 8.95312C 81.9082 9.68359 82.0586 10.2461 82.3594 10.6406C 82.6602 11.0352 83.0898 11.2324 83.6484 11.2324ZM 91.0781 10.3184C 91.0781 10.0254 90.9668 9.79883 90.7441 9.63867C 90.5254 9.47461 90.1406 9.33398 89.5898 9.2168C 89.043 9.09961 88.6074 8.95898 88.2832 8.79492C 87.9629 8.63086 87.7246 8.43555 87.5684 8.20898C 87.416 7.98242 87.3398 7.71289 87.3398 7.40039C 87.3398 6.88086 87.5586 6.44141 87.9961 6.08203C 88.4375 5.72266 89 5.54297 89.6836 5.54297C 90.4023 5.54297 90.9844 5.72852 91.4297 6.09961C 91.8789 6.4707 92.1035 6.94531 92.1035 7.52344L 91.0137 7.52344C 91.0137 7.22656 90.8867 6.9707 90.6328 6.75586C 90.3828 6.54102 90.0664 6.43359 89.6836 6.43359C 89.2891 6.43359 88.9805 6.51953 88.7578 6.69141C 88.5352 6.86328 88.4238 7.08789 88.4238 7.36523C 88.4238 7.62695 88.5273 7.82422 88.7344 7.95703C 88.9414 8.08984 89.3145 8.2168 89.8535 8.33789C 90.3965 8.45898 90.8359 8.60352 91.1719 8.77148C 91.5078 8.93945 91.7559 9.14258 91.916 9.38086C 92.0801 9.61523 92.1621 9.90234 92.1621 10.2422C 92.1621 10.8086 91.9355 11.2637 91.4824 11.6074C 91.0293 11.9473 90.4414 12.1172 89.7188 12.1172C 89.2109 12.1172 88.7617 12.0273 88.3711 11.8477C 87.9805 11.668 87.6738 11.418 87.4512 11.0977C 87.2324 10.7734 87.123 10.4238 87.123 10.0488L 88.207 10.0488C 88.2266 10.4121 88.3711 10.7012 88.6406 10.916C 88.9141 11.127 89.2734 11.2324 89.7188 11.2324C 90.1289 11.2324 90.457 11.1504 90.7031 10.9863C 90.9531 10.8184 91.0781 10.5957 91.0781 10.3184ZM 100.693 3.46289L 100.693 4.38281L 100.494 4.38281C 99.6504 4.39844 98.9785 4.64844 98.4785 5.13281C 97.9785 5.61719 97.6895 6.29883 97.6113 7.17773C 98.0605 6.66211 98.6738 6.4043 99.4512 6.4043C 100.193 6.4043 100.785 6.66602 101.227 7.18945C 101.672 7.71289 101.895 8.38867 101.895 9.2168C 101.895 10.0957 101.654 10.7988 101.174 11.3262C 100.697 11.8535 100.057 12.1172 99.252 12.1172C 98.4355 12.1172 97.7734 11.8047 97.2656 11.1797C 96.7578 10.5508 96.5039 9.74219 96.5039 8.75391L 96.5039 8.33789C 96.5039 6.76758 96.8379 5.56836 97.5059 4.74023C 98.1777 3.9082 99.1758 3.48242 100.5 3.46289L 100.693 3.46289ZM 99.2695 7.30664C 98.8984 7.30664 98.5566 7.41797 98.2441 7.64062C 97.9316 7.86328 97.7148 8.14258 97.5938 8.47852L 97.5938 8.87695C 97.5938 9.58008 97.752 10.1465 98.0684 10.5762C 98.3848 11.0059 98.7793 11.2207 99.252 11.2207C 99.7402 11.2207 100.123 11.041 100.4 10.6816C 100.682 10.3223 100.822 9.85156 100.822 9.26953C 100.822 8.68359 100.68 8.21094 100.395 7.85156C 100.113 7.48828 99.7383 7.30664 99.2695 7.30664ZM 108.527 8.36133C 108.527 9.63086 108.311 10.5742 107.877 11.1914C 107.443 11.8086 106.766 12.1172 105.844 12.1172C 104.934 12.1172 104.26 11.8164 103.822 11.2148C 103.385 10.6094 103.158 9.70703 103.143 8.50781L 103.143 7.06055C 103.143 5.80664 103.359 4.875 103.793 4.26562C 104.227 3.65625 104.906 3.35156 105.832 3.35156C 106.75 3.35156 107.426 3.64648 107.859 4.23633C 108.293 4.82227 108.516 5.72852 108.527 6.95508L 108.527 8.36133ZM 107.443 6.87891C 107.443 5.96094 107.314 5.29297 107.057 4.875C 106.799 4.45312 106.391 4.24219 105.832 4.24219C 105.277 4.24219 104.873 4.45117 104.619 4.86914C 104.365 5.28711 104.234 5.92969 104.227 6.79688L 104.227 8.53125C 104.227 9.45312 104.359 10.1348 104.625 10.5762C 104.895 11.0137 105.301 11.2324 105.844 11.2324C 106.379 11.2324 106.775 11.0254 107.033 10.6113C 107.295 10.1973 107.432 9.54492 107.443 8.6543L 107.443 6.87891ZM 115.266 8.36133C 115.266 9.63086 115.049 10.5742 114.615 11.1914C 114.182 11.8086 113.504 12.1172 112.582 12.1172C 111.672 12.1172 110.998 11.8164 110.561 11.2148C 110.123 10.6094 109.896 9.70703 109.881 8.50781L 109.881 7.06055C 109.881 5.80664 110.098 4.875 110.531 4.26562C 110.965 3.65625 111.645 3.35156 112.57 3.35156C 113.488 3.35156 114.164 3.64648 114.598 4.23633C 115.031 4.82227 115.254 5.72852 115.266 6.95508L 115.266 8.36133ZM 114.182 6.87891C 114.182 5.96094 114.053 5.29297 113.795 4.875C 113.537 4.45312 113.129 4.24219 112.57 4.24219C 112.016 4.24219 111.611 4.45117 111.357 4.86914C 111.104 5.28711 110.973 5.92969 110.965 6.79688L 110.965 8.53125C 110.965 9.45312 111.098 10.1348 111.363 10.5762C 111.633 11.0137 112.039 11.2324 112.582 11.2324C 113.117 11.2324 113.514 11.0254 113.771 10.6113C 114.033 10.1973 114.17 9.54492 114.182 8.6543L 114.182 6.87891ZM 122.004 8.36133C 122.004 9.63086 121.787 10.5742 121.354 11.1914C 120.92 11.8086 120.242 12.1172 119.32 12.1172C 118.41 12.1172 117.736 11.8164 117.299 11.2148C 116.861 10.6094 116.635 9.70703 116.619 8.50781L 116.619 7.06055C 116.619 5.80664 116.836 4.875 117.27 4.26562C 117.703 3.65625 118.383 3.35156 119.309 3.35156C 120.227 3.35156 120.902 3.64648 121.336 4.23633C 121.77 4.82227 121.992 5.72852 122.004 6.95508L 122.004 8.36133ZM 120.92 6.87891C 120.92 5.96094 120.791 5.29297 120.533 4.875C 120.275 4.45312 119.867 4.24219 119.309 4.24219C 118.754 4.24219 118.35 4.45117 118.096 4.86914C 117.842 5.28711 117.711 5.92969 117.703 6.79688L 117.703 8.53125C 117.703 9.45312 117.836 10.1348 118.102 10.5762C 118.371 11.0137 118.777 11.2324 119.32 11.2324C 119.855 11.2324 120.252 11.0254 120.51 10.6113C 120.771 10.1973 120.908 9.54492 120.92 8.6543L 120.92 6.87891Z"/>
<path id="path8_fill" d="M 2.19727 12L 1.07227 12L 1.07227 3.46875L 2.19727 3.46875L 2.19727 12ZM 5.11523 5.66016L 5.15039 6.45703C 5.63477 5.84766 6.26758 5.54297 7.04883 5.54297C 8.38867 5.54297 9.06445 6.29883 9.07617 7.81055L 9.07617 12L 7.99219 12L 7.99219 7.80469C 7.98828 7.34766 7.88281 7.00977 7.67578 6.79102C 7.47266 6.57227 7.1543 6.46289 6.7207 6.46289C 6.36914 6.46289 6.06055 6.55664 5.79492 6.74414C 5.5293 6.93164 5.32227 7.17773 5.17383 7.48242L 5.17383 12L 4.08984 12L 4.08984 5.66016L 5.11523 5.66016ZM 12.1816 4.125L 12.1816 5.66016L 13.3652 5.66016L 13.3652 6.49805L 12.1816 6.49805L 12.1816 10.4297C 12.1816 10.6836 12.2344 10.875 12.3398 11.0039C 12.4453 11.1289 12.625 11.1914 12.8789 11.1914C 13.0039 11.1914 13.1758 11.168 13.3945 11.1211L 13.3945 12C 13.1094 12.0781 12.832 12.1172 12.5625 12.1172C 12.0781 12.1172 11.7129 11.9707 11.4668 11.6777C 11.2207 11.3848 11.0977 10.9688 11.0977 10.4297L 11.0977 6.49805L 9.94336 6.49805L 9.94336 5.66016L 11.0977 5.66016L 11.0977 4.125L 12.1816 4.125ZM 17.2676 12.1172C 16.4082 12.1172 15.709 11.8359 15.1699 11.2734C 14.6309 10.707 14.3613 9.95117 14.3613 9.00586L 14.3613 8.80664C 14.3613 8.17773 14.4805 7.61719 14.7188 7.125C 14.9609 6.62891 15.2969 6.24219 15.7266 5.96484C 16.1602 5.68359 16.6289 5.54297 17.1328 5.54297C 17.957 5.54297 18.5977 5.81445 19.0547 6.35742C 19.5117 6.90039 19.7402 7.67773 19.7402 8.68945L 19.7402 9.14062L 15.4453 9.14062C 15.4609 9.76562 15.6426 10.2715 15.9902 10.6582C 16.3418 11.041 16.7871 11.2324 17.3262 11.2324C 17.709 11.2324 18.0332 11.1543 18.2988 10.998C 18.5645 10.8418 18.7969 10.6348 18.9961 10.377L 19.6582 10.8926C 19.127 11.709 18.3301 12.1172 17.2676 12.1172ZM 17.1328 6.43359C 16.6953 6.43359 16.3281 6.59375 16.0312 6.91406C 15.7344 7.23047 15.5508 7.67578 15.4805 8.25L 18.6562 8.25L 18.6562 8.16797C 18.625 7.61719 18.4766 7.19141 18.2109 6.89062C 17.9453 6.58594 17.5859 6.43359 17.1328 6.43359ZM 22.1777 12L 21.0938 12L 21.0938 3L 22.1777 3L 22.1777 12ZM 33.6211 12L 32.4902 12L 32.4902 8.05664L 28.1895 8.05664L 28.1895 12L 27.0645 12L 27.0645 3.46875L 28.1895 3.46875L 28.1895 7.13672L 32.4902 7.13672L 32.4902 3.46875L 33.6211 3.46875L 33.6211 12ZM 35.6191 12L 35.6191 3.46875L 38.0273 3.46875C 38.7695 3.46875 39.4258 3.63281 39.9961 3.96094C 40.5664 4.28906 41.0059 4.75586 41.3145 5.36133C 41.627 5.9668 41.7852 6.66211 41.7891 7.44727L 41.7891 7.99219C 41.7891 8.79688 41.6328 9.50195 41.3203 10.1074C 41.0117 10.7129 40.5684 11.1777 39.9902 11.502C 39.416 11.8262 38.7461 11.9922 37.9805 12L 35.6191 12ZM 36.7441 4.39453L 36.7441 11.0801L 37.9277 11.0801C 38.7949 11.0801 39.4688 10.8105 39.9492 10.2715C 40.4336 9.73242 40.6758 8.96484 40.6758 7.96875L 40.6758 7.4707C 40.6758 6.50195 40.4473 5.75 39.9902 5.21484C 39.5371 4.67578 38.8926 4.40234 38.0566 4.39453L 36.7441 4.39453ZM 52.7695 10.8809C 52.4805 11.2949 52.0762 11.6055 51.5566 11.8125C 51.041 12.0156 50.4395 12.1172 49.752 12.1172C 49.0566 12.1172 48.4395 11.9551 47.9004 11.6309C 47.3613 11.3027 46.9434 10.8379 46.6465 10.2363C 46.3535 9.63477 46.2031 8.9375 46.1953 8.14453L 46.1953 7.40039C 46.1953 6.11523 46.4941 5.11914 47.0918 4.41211C 47.6934 3.70508 48.5371 3.35156 49.623 3.35156C 50.5137 3.35156 51.2305 3.58008 51.7734 4.03711C 52.3164 4.49023 52.6484 5.13477 52.7695 5.9707L 51.6445 5.9707C 51.4336 4.8418 50.7617 4.27734 49.6289 4.27734C 48.875 4.27734 48.3027 4.54297 47.9121 5.07422C 47.5254 5.60156 47.3301 6.36719 47.3262 7.37109L 47.3262 8.06836C 47.3262 9.02539 47.5449 9.78711 47.9824 10.3535C 48.4199 10.916 49.0117 11.1973 49.7578 11.1973C 50.1797 11.1973 50.5488 11.1504 50.8652 11.0566C 51.1816 10.9629 51.4434 10.8047 51.6504 10.582L 51.6504 8.66602L 49.6758 8.66602L 49.6758 7.75195L 52.7695 7.75195L 52.7695 10.8809ZM 57.5449 6.63281C 57.3809 6.60547 57.2031 6.5918 57.0117 6.5918C 56.3008 6.5918 55.8184 6.89453 55.5645 7.5L 55.5645 12L 54.4805 12L 54.4805 5.66016L 55.5352 5.66016L 55.5527 6.39258C 55.9082 5.82617 56.4121 5.54297 57.0645 5.54297C 57.2754 5.54297 57.4355 5.57031 57.5449 5.625L 57.5449 6.63281ZM 62.2266 12C 62.1641 11.875 62.1133 11.6523 62.0742 11.332C 61.5703 11.8555 60.9688 12.1172 60.2695 12.1172C 59.6445 12.1172 59.1309 11.9414 58.7285 11.5898C 58.3301 11.2344 58.1309 10.7852 58.1309 10.2422C 58.1309 9.58203 58.3809 9.07031 58.8809 8.70703C 59.3848 8.33984 60.0918 8.15625 61.002 8.15625L 62.0566 8.15625L 62.0566 7.6582C 62.0566 7.2793 61.9434 6.97852 61.7168 6.75586C 61.4902 6.5293 61.1562 6.41602 60.7148 6.41602C 60.3281 6.41602 60.0039 6.51367 59.7422 6.70898C 59.4805 6.9043 59.3496 7.14062 59.3496 7.41797L 58.2598 7.41797C 58.2598 7.10156 58.3711 6.79688 58.5938 6.50391C 58.8203 6.20703 59.125 5.97266 59.5078 5.80078C 59.8945 5.62891 60.3184 5.54297 60.7793 5.54297C 61.5098 5.54297 62.082 5.72656 62.4961 6.09375C 62.9102 6.45703 63.125 6.95898 63.1406 7.59961L 63.1406 10.5176C 63.1406 11.0996 63.2148 11.5625 63.3633 11.9062L 63.3633 12L 62.2266 12ZM 60.4277 11.1738C 60.7676 11.1738 61.0898 11.0859 61.3945 10.9102C 61.6992 10.7344 61.9199 10.5059 62.0566 10.2246L 62.0566 8.92383L 61.207 8.92383C 59.8789 8.92383 59.2148 9.3125 59.2148 10.0898C 59.2148 10.4297 59.3281 10.6953 59.5547 10.8867C 59.7812 11.0781 60.0723 11.1738 60.4277 11.1738ZM 70.1953 8.90039C 70.1953 9.86523 69.9746 10.6426 69.5332 11.2324C 69.0918 11.8223 68.4941 12.1172 67.7402 12.1172C 66.9707 12.1172 66.3652 11.873 65.9238 11.3848L 65.9238 14.4375L 64.8398 14.4375L 64.8398 5.66016L 65.8301 5.66016L 65.8828 6.36328C 66.3242 5.81641 66.9375 5.54297 67.7227 5.54297C 68.4844 5.54297 69.0859 5.83008 69.5273 6.4043C 69.9727 6.97852 70.1953 7.77734 70.1953 8.80078L 70.1953 8.90039ZM 69.1113 8.77734C 69.1113 8.0625 68.959 7.49805 68.6543 7.08398C 68.3496 6.66992 67.9316 6.46289 67.4004 6.46289C 66.7441 6.46289 66.252 6.75391 65.9238 7.33594L 65.9238 10.3652C 66.248 10.9434 66.7441 11.2324 67.4121 11.2324C 67.9316 11.2324 68.3438 11.0273 68.6484 10.6172C 68.957 10.2031 69.1113 9.58984 69.1113 8.77734ZM 72.6621 6.42773C 73.1426 5.83789 73.7676 5.54297 74.5371 5.54297C 75.877 5.54297 76.5527 6.29883 76.5645 7.81055L 76.5645 12L 75.4805 12L 75.4805 7.80469C 75.4766 7.34766 75.3711 7.00977 75.1641 6.79102C 74.9609 6.57227 74.6426 6.46289 74.209 6.46289C 73.8574 6.46289 73.5488 6.55664 73.2832 6.74414C 73.0176 6.93164 72.8105 7.17773 72.6621 7.48242L 72.6621 12L 71.5781 12L 71.5781 3L 72.6621 3L 72.6621 6.42773ZM 79.3652 12L 78.2812 12L 78.2812 5.66016L 79.3652 5.66016L 79.3652 12ZM 78.1934 3.97852C 78.1934 3.80273 78.2461 3.6543 78.3516 3.5332C 78.4609 3.41211 78.6211 3.35156 78.832 3.35156C 79.043 3.35156 79.2031 3.41211 79.3125 3.5332C 79.4219 3.6543 79.4766 3.80273 79.4766 3.97852C 79.4766 4.1543 79.4219 4.30078 79.3125 4.41797C 79.2031 4.53516 79.043 4.59375 78.832 4.59375C 78.6211 4.59375 78.4609 4.53516 78.3516 4.41797C 78.2461 4.30078 78.1934 4.1543 78.1934 3.97852ZM 83.6484 11.2324C 84.0352 11.2324 84.373 11.1152 84.6621 10.8809C 84.9512 10.6465 85.1113 10.3535 85.1426 10.002L 86.168 10.002C 86.1484 10.3652 86.0234 10.7109 85.793 11.0391C 85.5625 11.3672 85.2539 11.6289 84.8672 11.8242C 84.4844 12.0195 84.0781 12.1172 83.6484 12.1172C 82.7852 12.1172 82.0977 11.8301 81.5859 11.2559C 81.0781 10.6777 80.8242 9.88867 80.8242 8.88867L 80.8242 8.70703C 80.8242 8.08984 80.9375 7.54102 81.1641 7.06055C 81.3906 6.58008 81.7148 6.20703 82.1367 5.94141C 82.5625 5.67578 83.0645 5.54297 83.6426 5.54297C 84.3535 5.54297 84.9434 5.75586 85.4121 6.18164C 85.8848 6.60742 86.1367 7.16016 86.168 7.83984L 85.1426 7.83984C 85.1113 7.42969 84.9551 7.09375 84.6738 6.83203C 84.3965 6.56641 84.0527 6.43359 83.6426 6.43359C 83.0918 6.43359 82.6641 6.63281 82.3594 7.03125C 82.0586 7.42578 81.9082 7.99805 81.9082 8.74805L 81.9082 8.95312C 81.9082 9.68359 82.0586 10.2461 82.3594 10.6406C 82.6602 11.0352 83.0898 11.2324 83.6484 11.2324ZM 91.0781 10.3184C 91.0781 10.0254 90.9668 9.79883 90.7441 9.63867C 90.5254 9.47461 90.1406 9.33398 89.5898 9.2168C 89.043 9.09961 88.6074 8.95898 88.2832 8.79492C 87.9629 8.63086 87.7246 8.43555 87.5684 8.20898C 87.416 7.98242 87.3398 7.71289 87.3398 7.40039C 87.3398 6.88086 87.5586 6.44141 87.9961 6.08203C 88.4375 5.72266 89 5.54297 89.6836 5.54297C 90.4023 5.54297 90.9844 5.72852 91.4297 6.09961C 91.8789 6.4707 92.1035 6.94531 92.1035 7.52344L 91.0137 7.52344C 91.0137 7.22656 90.8867 6.9707 90.6328 6.75586C 90.3828 6.54102 90.0664 6.43359 89.6836 6.43359C 89.2891 6.43359 88.9805 6.51953 88.7578 6.69141C 88.5352 6.86328 88.4238 7.08789 88.4238 7.36523C 88.4238 7.62695 88.5273 7.82422 88.7344 7.95703C 88.9414 8.08984 89.3145 8.2168 89.8535 8.33789C 90.3965 8.45898 90.8359 8.60352 91.1719 8.77148C 91.5078 8.93945 91.7559 9.14258 91.916 9.38086C 92.0801 9.61523 92.1621 9.90234 92.1621 10.2422C 92.1621 10.8086 91.9355 11.2637 91.4824 11.6074C 91.0293 11.9473 90.4414 12.1172 89.7188 12.1172C 89.2109 12.1172 88.7617 12.0273 88.3711 11.8477C 87.9805 11.668 87.6738 11.418 87.4512 11.0977C 87.2324 10.7734 87.123 10.4238 87.123 10.0488L 88.207 10.0488C 88.2266 10.4121 88.3711 10.7012 88.6406 10.916C 88.9141 11.127 89.2734 11.2324 89.7188 11.2324C 90.1289 11.2324 90.457 11.1504 90.7031 10.9863C 90.9531 10.8184 91.0781 10.5957 91.0781 10.3184ZM 100.693 3.46289L 100.693 4.38281L 100.494 4.38281C 99.6504 4.39844 98.9785 4.64844 98.4785 5.13281C 97.9785 5.61719 97.6895 6.29883 97.6113 7.17773C 98.0605 6.66211 98.6738 6.4043 99.4512 6.4043C 100.193 6.4043 100.785 6.66602 101.227 7.18945C 101.672 7.71289 101.895 8.38867 101.895 9.2168C 101.895 10.0957 101.654 10.7988 101.174 11.3262C 100.697 11.8535 100.057 12.1172 99.252 12.1172C 98.4355 12.1172 97.7734 11.8047 97.2656 11.1797C 96.7578 10.5508 96.5039 9.74219 96.5039 8.75391L 96.5039 8.33789C 96.5039 6.76758 96.8379 5.56836 97.5059 4.74023C 98.1777 3.9082 99.1758 3.48242 100.5 3.46289L 100.693 3.46289ZM 99.2695 7.30664C 98.8984 7.30664 98.5566 7.41797 98.2441 7.64062C 97.9316 7.86328 97.7148 8.14258 97.5938 8.47852L 97.5938 8.87695C 97.5938 9.58008 97.752 10.1465 98.0684 10.5762C 98.3848 11.0059 98.7793 11.2207 99.252 11.2207C 99.7402 11.2207 100.123 11.041 100.4 10.6816C 100.682 10.3223 100.822 9.85156 100.822 9.26953C 100.822 8.68359 100.68 8.21094 100.395 7.85156C 100.113 7.48828 99.7383 7.30664 99.2695 7.30664ZM 108.768 12L 103.178 12L 103.178 11.2207L 106.131 7.93945C 106.568 7.44336 106.869 7.04102 107.033 6.73242C 107.201 6.41992 107.285 6.09766 107.285 5.76562C 107.285 5.32031 107.15 4.95508 106.881 4.66992C 106.611 4.38477 106.252 4.24219 105.803 4.24219C 105.264 4.24219 104.844 4.39648 104.543 4.70508C 104.246 5.00977 104.098 5.43555 104.098 5.98242L 103.014 5.98242C 103.014 5.19727 103.266 4.5625 103.77 4.07812C 104.277 3.59375 104.955 3.35156 105.803 3.35156C 106.596 3.35156 107.223 3.56055 107.684 3.97852C 108.145 4.39258 108.375 4.94531 108.375 5.63672C 108.375 6.47656 107.84 7.47656 106.77 8.63672L 104.484 11.1152L 108.768 11.1152L 108.768 12ZM 115.266 8.36133C 115.266 9.63086 115.049 10.5742 114.615 11.1914C 114.182 11.8086 113.504 12.1172 112.582 12.1172C 111.672 12.1172 110.998 11.8164 110.561 11.2148C 110.123 10.6094 109.896 9.70703 109.881 8.50781L 109.881 7.06055C 109.881 5.80664 110.098 4.875 110.531 4.26562C 110.965 3.65625 111.645 3.35156 112.57 3.35156C 113.488 3.35156 114.164 3.64648 114.598 4.23633C 115.031 4.82227 115.254 5.72852 115.266 6.95508L 115.266 8.36133ZM 114.182 6.87891C 114.182 5.96094 114.053 5.29297 113.795 4.875C 113.537 4.45312 113.129 4.24219 112.57 4.24219C 112.016 4.24219 111.611 4.45117 111.357 4.86914C 111.104 5.28711 110.973 5.92969 110.965 6.79688L 110.965 8.53125C 110.965 9.45312 111.098 10.1348 111.363 10.5762C 111.633 11.0137 112.039 11.2324 112.582 11.2324C 113.117 11.2324 113.514 11.0254 113.771 10.6113C 114.033 10.1973 114.17 9.54492 114.182 8.6543L 114.182 6.87891Z"/>
<path id="path9_fill" d="M 5.70117 9.77344L 2.12695 9.77344L 1.32422 12L 0.164062 12L 3.42188 3.46875L 4.40625 3.46875L 7.66992 12L 6.51562 12L 5.70117 9.77344ZM 2.4668 8.84766L 5.36719 8.84766L 3.91406 4.85742L 2.4668 8.84766ZM 10.2715 3.46875L 13.0605 10.4297L 15.8496 3.46875L 17.3086 3.46875L 17.3086 12L 16.1836 12L 16.1836 8.67773L 16.2891 5.0918L 13.4883 12L 12.627 12L 9.83203 5.10938L 9.94336 8.67773L 9.94336 12L 8.81836 12L 8.81836 3.46875L 10.2715 3.46875ZM 19.2949 12L 19.2949 3.46875L 21.7031 3.46875C 22.4453 3.46875 23.1016 3.63281 23.6719 3.96094C 24.2422 4.28906 24.6816 4.75586 24.9902 5.36133C 25.3027 5.9668 25.4609 6.66211 25.4648 7.44727L 25.4648 7.99219C 25.4648 8.79688 25.3086 9.50195 24.9961 10.1074C 24.6875 10.7129 24.2441 11.1777 23.666 11.502C 23.0918 11.8262 22.4219 11.9922 21.6562 12L 19.2949 12ZM 20.4199 4.39453L 20.4199 11.0801L 21.6035 11.0801C 22.4707 11.0801 23.1445 10.8105 23.625 10.2715C 24.1094 9.73242 24.3516 8.96484 24.3516 7.96875L 24.3516 7.4707C 24.3516 6.50195 24.123 5.75 23.666 5.21484C 23.2129 4.67578 22.5684 4.40234 21.7324 4.39453L 20.4199 4.39453ZM 33.2754 8.54883L 31.2715 8.54883L 31.2715 12L 30.1406 12L 30.1406 3.46875L 32.9648 3.46875C 33.9258 3.46875 34.6641 3.6875 35.1797 4.125C 35.6992 4.5625 35.959 5.19922 35.959 6.03516C 35.959 6.56641 35.8145 7.0293 35.5254 7.42383C 35.2402 7.81836 34.8418 8.11328 34.3301 8.30859L 36.334 11.9297L 36.334 12L 35.127 12L 33.2754 8.54883ZM 31.2715 7.62891L 33 7.62891C 33.5586 7.62891 34.002 7.48438 34.3301 7.19531C 34.6621 6.90625 34.8281 6.51953 34.8281 6.03516C 34.8281 5.50781 34.6699 5.10352 34.3535 4.82227C 34.041 4.54102 33.5879 4.39844 32.9941 4.39453L 31.2715 4.39453L 31.2715 7.62891ZM 41.2852 12C 41.2227 11.875 41.1719 11.6523 41.1328 11.332C 40.6289 11.8555 40.0273 12.1172 39.3281 12.1172C 38.7031 12.1172 38.1895 11.9414 37.7871 11.5898C 37.3887 11.2344 37.1895 10.7852 37.1895 10.2422C 37.1895 9.58203 37.4395 9.07031 37.9395 8.70703C 38.4434 8.33984 39.1504 8.15625 40.0605 8.15625L 41.1152 8.15625L 41.1152 7.6582C 41.1152 7.2793 41.002 6.97852 40.7754 6.75586C 40.5488 6.5293 40.2148 6.41602 39.7734 6.41602C 39.3867 6.41602 39.0625 6.51367 38.8008 6.70898C 38.5391 6.9043 38.4082 7.14062 38.4082 7.41797L 37.3184 7.41797C 37.3184 7.10156 37.4297 6.79688 37.6523 6.50391C 37.8789 6.20703 38.1836 5.97266 38.5664 5.80078C 38.9531 5.62891 39.377 5.54297 39.8379 5.54297C 40.5684 5.54297 41.1406 5.72656 41.5547 6.09375C 41.9688 6.45703 42.1836 6.95898 42.1992 7.59961L 42.1992 10.5176C 42.1992 11.0996 42.2734 11.5625 42.4219 11.9062L 42.4219 12L 41.2852 12ZM 39.4863 11.1738C 39.8262 11.1738 40.1484 11.0859 40.4531 10.9102C 40.7578 10.7344 40.9785 10.5059 41.1152 10.2246L 41.1152 8.92383L 40.2656 8.92383C 38.9375 8.92383 38.2734 9.3125 38.2734 10.0898C 38.2734 10.4297 38.3867 10.6953 38.6133 10.8867C 38.8398 11.0781 39.1309 11.1738 39.4863 11.1738ZM 43.6348 8.77734C 43.6348 7.80469 43.8652 7.02344 44.3262 6.43359C 44.7871 5.83984 45.3906 5.54297 46.1367 5.54297C 46.8789 5.54297 47.4668 5.79688 47.9004 6.30469L 47.9004 3L 48.9844 3L 48.9844 12L 47.9883 12L 47.9355 11.3203C 47.502 11.8516 46.8984 12.1172 46.125 12.1172C 45.3906 12.1172 44.791 11.8164 44.3262 11.2148C 43.8652 10.6133 43.6348 9.82812 43.6348 8.85938L 43.6348 8.77734ZM 44.7188 8.90039C 44.7188 9.61914 44.8672 10.1816 45.1641 10.5879C 45.4609 10.9941 45.8711 11.1973 46.3945 11.1973C 47.082 11.1973 47.584 10.8887 47.9004 10.2715L 47.9004 7.35938C 47.5762 6.76172 47.0781 6.46289 46.4062 6.46289C 45.875 6.46289 45.4609 6.66797 45.1641 7.07812C 44.8672 7.48828 44.7188 8.0957 44.7188 8.90039ZM 53.3027 12.1172C 52.4434 12.1172 51.7441 11.8359 51.2051 11.2734C 50.666 10.707 50.3965 9.95117 50.3965 9.00586L 50.3965 8.80664C 50.3965 8.17773 50.5156 7.61719 50.7539 7.125C 50.9961 6.62891 51.332 6.24219 51.7617 5.96484C 52.1953 5.68359 52.6641 5.54297 53.168 5.54297C 53.9922 5.54297 54.6328 5.81445 55.0898 6.35742C 55.5469 6.90039 55.7754 7.67773 55.7754 8.68945L 55.7754 9.14062L 51.4805 9.14062C 51.4961 9.76562 51.6777 10.2715 52.0254 10.6582C 52.377 11.041 52.8223 11.2324 53.3613 11.2324C 53.7441 11.2324 54.0684 11.1543 54.334 10.998C 54.5996 10.8418 54.832 10.6348 55.0312 10.377L 55.6934 10.8926C 55.1621 11.709 54.3652 12.1172 53.3027 12.1172ZM 53.168 6.43359C 52.7305 6.43359 52.3633 6.59375 52.0664 6.91406C 51.7695 7.23047 51.5859 7.67578 51.5156 8.25L 54.6914 8.25L 54.6914 8.16797C 54.6602 7.61719 54.5117 7.19141 54.2461 6.89062C 53.9805 6.58594 53.6211 6.43359 53.168 6.43359ZM 56.748 8.77148C 56.748 8.15039 56.8691 7.5918 57.1113 7.0957C 57.3574 6.59961 57.6973 6.2168 58.1309 5.94727C 58.5684 5.67773 59.0664 5.54297 59.625 5.54297C 60.4883 5.54297 61.1855 5.8418 61.7168 6.43945C 62.252 7.03711 62.5195 7.83203 62.5195 8.82422L 62.5195 8.90039C 62.5195 9.51758 62.4004 10.0723 62.1621 10.5645C 61.9277 11.0527 61.5898 11.4336 61.1484 11.707C 60.7109 11.9805 60.207 12.1172 59.6367 12.1172C 58.7773 12.1172 58.0801 11.8184 57.5449 11.2207C 57.0137 10.623 56.748 9.83203 56.748 8.84766L 56.748 8.77148ZM 57.8379 8.90039C 57.8379 9.60352 58 10.168 58.3242 10.5938C 58.6523 11.0195 59.0898 11.2324 59.6367 11.2324C 60.1875 11.2324 60.625 11.0176 60.9492 10.5879C 61.2734 10.1543 61.4355 9.54883 61.4355 8.77148C 61.4355 8.07617 61.2695 7.51367 60.9375 7.08398C 60.6094 6.65039 60.1719 6.43359 59.625 6.43359C 59.0898 6.43359 58.6582 6.64648 58.3301 7.07227C 58.002 7.49805 57.8379 8.10742 57.8379 8.90039ZM 64.9043 5.66016L 64.9395 6.45703C 65.4238 5.84766 66.0566 5.54297 66.8379 5.54297C 68.1777 5.54297 68.8535 6.29883 68.8652 7.81055L 68.8652 12L 67.7812 12L 67.7812 7.80469C 67.7773 7.34766 67.6719 7.00977 67.4648 6.79102C 67.2617 6.57227 66.9434 6.46289 66.5098 6.46289C 66.1582 6.46289 65.8496 6.55664 65.584 6.74414C 65.3184 6.93164 65.1113 7.17773 64.9629 7.48242L 64.9629 12L 63.8789 12L 63.8789 5.66016L 64.9043 5.66016ZM 74.7715 8.66016L 74.7715 12L 73.6465 12L 73.6465 3.46875L 76.793 3.46875C 77.7266 3.46875 78.457 3.70703 78.9844 4.18359C 79.5156 4.66016 79.7812 5.29102 79.7812 6.07617C 79.7812 6.9043 79.5215 7.54297 79.002 7.99219C 78.4863 8.4375 77.7461 8.66016 76.7812 8.66016L 74.7715 8.66016ZM 74.7715 7.74023L 76.793 7.74023C 77.3945 7.74023 77.8555 7.59961 78.1758 7.31836C 78.4961 7.0332 78.6562 6.62305 78.6562 6.08789C 78.6562 5.58008 78.4961 5.17383 78.1758 4.86914C 77.8555 4.56445 77.416 4.40625 76.8574 4.39453L 74.7715 4.39453L 74.7715 7.74023ZM 84.1113 6.63281C 83.9473 6.60547 83.7695 6.5918 83.5781 6.5918C 82.8672 6.5918 82.3848 6.89453 82.1309 7.5L 82.1309 12L 81.0469 12L 81.0469 5.66016L 82.1016 5.66016L 82.1191 6.39258C 82.4746 5.82617 82.9785 5.54297 83.6309 5.54297C 83.8418 5.54297 84.002 5.57031 84.1113 5.625L 84.1113 6.63281ZM 84.709 8.77148C 84.709 8.15039 84.8301 7.5918 85.0723 7.0957C 85.3184 6.59961 85.6582 6.2168 86.0918 5.94727C 86.5293 5.67773 87.0273 5.54297 87.5859 5.54297C 88.4492 5.54297 89.1465 5.8418 89.6777 6.43945C 90.2129 7.03711 90.4805 7.83203 90.4805 8.82422L 90.4805 8.90039C 90.4805 9.51758 90.3613 10.0723 90.123 10.5645C 89.8887 11.0527 89.5508 11.4336 89.1094 11.707C 88.6719 11.9805 88.168 12.1172 87.5977 12.1172C 86.7383 12.1172 86.041 11.8184 85.5059 11.2207C 84.9746 10.623 84.709 9.83203 84.709 8.84766L 84.709 8.77148ZM 85.7988 8.90039C 85.7988 9.60352 85.9609 10.168 86.2852 10.5938C 86.6133 11.0195 87.0508 11.2324 87.5977 11.2324C 88.1484 11.2324 88.5859 11.0176 88.9102 10.5879C 89.2344 10.1543 89.3965 9.54883 89.3965 8.77148C 89.3965 8.07617 89.2305 7.51367 88.8984 7.08398C 88.5703 6.65039 88.1328 6.43359 87.5859 6.43359C 87.0508 6.43359 86.6191 6.64648 86.291 7.07227C 85.9629 7.49805 85.7988 8.10742 85.7988 8.90039ZM 99.2812 9.13477L 100.465 9.13477L 100.465 10.0195L 99.2812 10.0195L 99.2812 12L 98.1914 12L 98.1914 10.0195L 94.3066 10.0195L 94.3066 9.38086L 98.127 3.46875L 99.2812 3.46875L 99.2812 9.13477ZM 95.5371 9.13477L 98.1914 9.13477L 98.1914 4.95117L 98.0625 5.18555L 95.5371 9.13477ZM 101.941 7.72266L 102.375 3.46875L 106.746 3.46875L 106.746 4.4707L 103.295 4.4707L 103.037 6.79688C 103.455 6.55078 103.93 6.42773 104.461 6.42773C 105.238 6.42773 105.855 6.68555 106.312 7.20117C 106.77 7.71289 106.998 8.40625 106.998 9.28125C 106.998 10.1602 106.76 10.8535 106.283 11.3613C 105.811 11.8652 105.148 12.1172 104.297 12.1172C 103.543 12.1172 102.928 11.9082 102.451 11.4902C 101.975 11.0723 101.703 10.4941 101.637 9.75586L 102.662 9.75586C 102.729 10.2441 102.902 10.6133 103.184 10.8633C 103.465 11.1094 103.836 11.2324 104.297 11.2324C 104.801 11.2324 105.195 11.0605 105.48 10.7168C 105.77 10.373 105.914 9.89844 105.914 9.29297C 105.914 8.72266 105.758 8.26562 105.445 7.92188C 105.137 7.57422 104.725 7.40039 104.209 7.40039C 103.736 7.40039 103.365 7.50391 103.096 7.71094L 102.809 7.94531L 101.941 7.72266ZM 108.68 7.72266L 109.113 3.46875L 113.484 3.46875L 113.484 4.4707L 110.033 4.4707L 109.775 6.79688C 110.193 6.55078 110.668 6.42773 111.199 6.42773C 111.977 6.42773 112.594 6.68555 113.051 7.20117C 113.508 7.71289 113.736 8.40625 113.736 9.28125C 113.736 10.1602 113.498 10.8535 113.021 11.3613C 112.549 11.8652 111.887 12.1172 111.035 12.1172C 110.281 12.1172 109.666 11.9082 109.189 11.4902C 108.713 11.0723 108.441 10.4941 108.375 9.75586L 109.4 9.75586C 109.467 10.2441 109.641 10.6133 109.922 10.8633C 110.203 11.1094 110.574 11.2324 111.035 11.2324C 111.539 11.2324 111.934 11.0605 112.219 10.7168C 112.508 10.373 112.652 9.89844 112.652 9.29297C 112.652 8.72266 112.496 8.26562 112.184 7.92188C 111.875 7.57422 111.463 7.40039 110.947 7.40039C 110.475 7.40039 110.104 7.50391 109.834 7.71094L 109.547 7.94531L 108.68 7.72266Z"/>
<path id="path10_fill" d="M 2.19727 12L 1.07227 12L 1.07227 3.46875L 2.19727 3.46875L 2.19727 12ZM 5.11523 5.66016L 5.15039 6.45703C 5.63477 5.84766 6.26758 5.54297 7.04883 5.54297C 8.38867 5.54297 9.06445 6.29883 9.07617 7.81055L 9.07617 12L 7.99219 12L 7.99219 7.80469C 7.98828 7.34766 7.88281 7.00977 7.67578 6.79102C 7.47266 6.57227 7.1543 6.46289 6.7207 6.46289C 6.36914 6.46289 6.06055 6.55664 5.79492 6.74414C 5.5293 6.93164 5.32227 7.17773 5.17383 7.48242L 5.17383 12L 4.08984 12L 4.08984 5.66016L 5.11523 5.66016ZM 12.1816 4.125L 12.1816 5.66016L 13.3652 5.66016L 13.3652 6.49805L 12.1816 6.49805L 12.1816 10.4297C 12.1816 10.6836 12.2344 10.875 12.3398 11.0039C 12.4453 11.1289 12.625 11.1914 12.8789 11.1914C 13.0039 11.1914 13.1758 11.168 13.3945 11.1211L 13.3945 12C 13.1094 12.0781 12.832 12.1172 12.5625 12.1172C 12.0781 12.1172 11.7129 11.9707 11.4668 11.6777C 11.2207 11.3848 11.0977 10.9688 11.0977 10.4297L 11.0977 6.49805L 9.94336 6.49805L 9.94336 5.66016L 11.0977 5.66016L 11.0977 4.125L 12.1816 4.125ZM 17.2676 12.1172C 16.4082 12.1172 15.709 11.8359 15.1699 11.2734C 14.6309 10.707 14.3613 9.95117 14.3613 9.00586L 14.3613 8.80664C 14.3613 8.17773 14.4805 7.61719 14.7188 7.125C 14.9609 6.62891 15.2969 6.24219 15.7266 5.96484C 16.1602 5.68359 16.6289 5.54297 17.1328 5.54297C 17.957 5.54297 18.5977 5.81445 19.0547 6.35742C 19.5117 6.90039 19.7402 7.67773 19.7402 8.68945L 19.7402 9.14062L 15.4453 9.14062C 15.4609 9.76562 15.6426 10.2715 15.9902 10.6582C 16.3418 11.041 16.7871 11.2324 17.3262 11.2324C 17.709 11.2324 18.0332 11.1543 18.2988 10.998C 18.5645 10.8418 18.7969 10.6348 18.9961 10.377L 19.6582 10.8926C 19.127 11.709 18.3301 12.1172 17.2676 12.1172ZM 17.1328 6.43359C 16.6953 6.43359 16.3281 6.59375 16.0312 6.91406C 15.7344 7.23047 15.5508 7.67578 15.4805 8.25L 18.6562 8.25L 18.6562 8.16797C 18.625 7.61719 18.4766 7.19141 18.2109 6.89062C 17.9453 6.58594 17.5859 6.43359 17.1328 6.43359ZM 22.1777 12L 21.0938 12L 21.0938 3L 22.1777 3L 22.1777 12ZM 28.2715 12L 27.1465 12L 27.1465 3.46875L 28.2715 3.46875L 28.2715 12ZM 33.2285 6.63281C 33.0645 6.60547 32.8867 6.5918 32.6953 6.5918C 31.9844 6.5918 31.502 6.89453 31.248 7.5L 31.248 12L 30.1641 12L 30.1641 5.66016L 31.2188 5.66016L 31.2363 6.39258C 31.5918 5.82617 32.0957 5.54297 32.748 5.54297C 32.959 5.54297 33.1191 5.57031 33.2285 5.625L 33.2285 6.63281ZM 35.4082 12L 34.3242 12L 34.3242 5.66016L 35.4082 5.66016L 35.4082 12ZM 34.2363 3.97852C 34.2363 3.80273 34.2891 3.6543 34.3945 3.5332C 34.5039 3.41211 34.6641 3.35156 34.875 3.35156C 35.0859 3.35156 35.2461 3.41211 35.3555 3.5332C 35.4648 3.6543 35.5195 3.80273 35.5195 3.97852C 35.5195 4.1543 35.4648 4.30078 35.3555 4.41797C 35.2461 4.53516 35.0859 4.59375 34.875 4.59375C 34.6641 4.59375 34.5039 4.53516 34.3945 4.41797C 34.2891 4.30078 34.2363 4.1543 34.2363 3.97852ZM 40.8398 10.3184C 40.8398 10.0254 40.7285 9.79883 40.5059 9.63867C 40.2871 9.47461 39.9023 9.33398 39.3516 9.2168C 38.8047 9.09961 38.3691 8.95898 38.0449 8.79492C 37.7246 8.63086 37.4863 8.43555 37.3301 8.20898C 37.1777 7.98242 37.1016 7.71289 37.1016 7.40039C 37.1016 6.88086 37.3203 6.44141 37.7578 6.08203C 38.1992 5.72266 38.7617 5.54297 39.4453 5.54297C 40.1641 5.54297 40.7461 5.72852 41.1914 6.09961C 41.6406 6.4707 41.8652 6.94531 41.8652 7.52344L 40.7754 7.52344C 40.7754 7.22656 40.6484 6.9707 40.3945 6.75586C 40.1445 6.54102 39.8281 6.43359 39.4453 6.43359C 39.0508 6.43359 38.7422 6.51953 38.5195 6.69141C 38.2969 6.86328 38.1855 7.08789 38.1855 7.36523C 38.1855 7.62695 38.2891 7.82422 38.4961 7.95703C 38.7031 8.08984 39.0762 8.2168 39.6152 8.33789C 40.1582 8.45898 40.5977 8.60352 40.9336 8.77148C 41.2695 8.93945 41.5176 9.14258 41.6777 9.38086C 41.8418 9.61523 41.9238 9.90234 41.9238 10.2422C 41.9238 10.8086 41.6973 11.2637 41.2441 11.6074C 40.791 11.9473 40.2031 12.1172 39.4805 12.1172C 38.9727 12.1172 38.5234 12.0273 38.1328 11.8477C 37.7422 11.668 37.4355 11.418 37.2129 11.0977C 36.9941 10.7734 36.8848 10.4238 36.8848 10.0488L 37.9688 10.0488C 37.9883 10.4121 38.1328 10.7012 38.4023 10.916C 38.6758 11.127 39.0352 11.2324 39.4805 11.2324C 39.8906 11.2324 40.2188 11.1504 40.4648 10.9863C 40.7148 10.8184 40.8398 10.5957 40.8398 10.3184ZM 47.6074 8.66016L 47.6074 12L 46.4824 12L 46.4824 3.46875L 49.6289 3.46875C 50.5625 3.46875 51.293 3.70703 51.8203 4.18359C 52.3516 4.66016 52.6172 5.29102 52.6172 6.07617C 52.6172 6.9043 52.3574 7.54297 51.8379 7.99219C 51.3223 8.4375 50.582 8.66016 49.6172 8.66016L 47.6074 8.66016ZM 47.6074 7.74023L 49.6289 7.74023C 50.2305 7.74023 50.6914 7.59961 51.0117 7.31836C 51.332 7.0332 51.4922 6.62305 51.4922 6.08789C 51.4922 5.58008 51.332 5.17383 51.0117 4.86914C 50.6914 4.56445 50.252 4.40625 49.6934 4.39453L 47.6074 4.39453L 47.6074 7.74023ZM 55.0605 12L 53.9766 12L 53.9766 3L 55.0605 3L 55.0605 12ZM 60.7148 11.373C 60.293 11.8691 59.6738 12.1172 58.8574 12.1172C 58.1816 12.1172 57.666 11.9219 57.3105 11.5312C 56.959 11.1367 56.7812 10.5547 56.7773 9.78516L 56.7773 5.66016L 57.8613 5.66016L 57.8613 9.75586C 57.8613 10.7168 58.252 11.1973 59.0332 11.1973C 59.8613 11.1973 60.4121 10.8887 60.6855 10.2715L 60.6855 5.66016L 61.7695 5.66016L 61.7695 12L 60.7383 12L 60.7148 11.373ZM 67.1133 10.3184C 67.1133 10.0254 67.002 9.79883 66.7793 9.63867C 66.5605 9.47461 66.1758 9.33398 65.625 9.2168C 65.0781 9.09961 64.6426 8.95898 64.3184 8.79492C 63.998 8.63086 63.7598 8.43555 63.6035 8.20898C 63.4512 7.98242 63.375 7.71289 63.375 7.40039C 63.375 6.88086 63.5938 6.44141 64.0312 6.08203C 64.4727 5.72266 65.0352 5.54297 65.7188 5.54297C 66.4375 5.54297 67.0195 5.72852 67.4648 6.09961C 67.9141 6.4707 68.1387 6.94531 68.1387 7.52344L 67.0488 7.52344C 67.0488 7.22656 66.9219 6.9707 66.668 6.75586C 66.418 6.54102 66.1016 6.43359 65.7188 6.43359C 65.3242 6.43359 65.0156 6.51953 64.793 6.69141C 64.5703 6.86328 64.459 7.08789 64.459 7.36523C 64.459 7.62695 64.5625 7.82422 64.7695 7.95703C 64.9766 8.08984 65.3496 8.2168 65.8887 8.33789C 66.4316 8.45898 66.8711 8.60352 67.207 8.77148C 67.543 8.93945 67.791 9.14258 67.9512 9.38086C 68.1152 9.61523 68.1973 9.90234 68.1973 10.2422C 68.1973 10.8086 67.9707 11.2637 67.5176 11.6074C 67.0645 11.9473 66.4766 12.1172 65.7539 12.1172C 65.2461 12.1172 64.7969 12.0273 64.4062 11.8477C 64.0156 11.668 63.709 11.418 63.4863 11.0977C 63.2676 10.7734 63.1582 10.4238 63.1582 10.0488L 64.2422 10.0488C 64.2617 10.4121 64.4062 10.7012 64.6758 10.916C 64.9492 11.127 65.3086 11.2324 65.7539 11.2324C 66.1641 11.2324 66.4922 11.1504 66.7383 10.9863C 66.9883 10.8184 67.1133 10.5957 67.1133 10.3184ZM 79.0547 10.8809C 78.7656 11.2949 78.3613 11.6055 77.8418 11.8125C 77.3262 12.0156 76.7246 12.1172 76.0371 12.1172C 75.3418 12.1172 74.7246 11.9551 74.1855 11.6309C 73.6465 11.3027 73.2285 10.8379 72.9316 10.2363C 72.6387 9.63477 72.4883 8.9375 72.4805 8.14453L 72.4805 7.40039C 72.4805 6.11523 72.7793 5.11914 73.377 4.41211C 73.9785 3.70508 74.8223 3.35156 75.9082 3.35156C 76.7988 3.35156 77.5156 3.58008 78.0586 4.03711C 78.6016 4.49023 78.9336 5.13477 79.0547 5.9707L 77.9297 5.9707C 77.7188 4.8418 77.0469 4.27734 75.9141 4.27734C 75.1602 4.27734 74.5879 4.54297 74.1973 5.07422C 73.8105 5.60156 73.6152 6.36719 73.6113 7.37109L 73.6113 8.06836C 73.6113 9.02539 73.8301 9.78711 74.2676 10.3535C 74.7051 10.916 75.2969 11.1973 76.043 11.1973C 76.4648 11.1973 76.834 11.1504 77.1504 11.0566C 77.4668 10.9629 77.7285 10.8047 77.9355 10.582L 77.9355 8.66602L 75.9609 8.66602L 75.9609 7.75195L 79.0547 7.75195L 79.0547 10.8809ZM 83.8301 6.63281C 83.666 6.60547 83.4883 6.5918 83.2969 6.5918C 82.5859 6.5918 82.1035 6.89453 81.8496 7.5L 81.8496 12L 80.7656 12L 80.7656 5.66016L 81.8203 5.66016L 81.8379 6.39258C 82.1934 5.82617 82.6973 5.54297 83.3496 5.54297C 83.5605 5.54297 83.7207 5.57031 83.8301 5.625L 83.8301 6.63281ZM 88.5117 12C 88.4492 11.875 88.3984 11.6523 88.3594 11.332C 87.8555 11.8555 87.2539 12.1172 86.5547 12.1172C 85.9297 12.1172 85.416 11.9414 85.0137 11.5898C 84.6152 11.2344 84.416 10.7852 84.416 10.2422C 84.416 9.58203 84.666 9.07031 85.166 8.70703C 85.6699 8.33984 86.377 8.15625 87.2871 8.15625L 88.3418 8.15625L 88.3418 7.6582C 88.3418 7.2793 88.2285 6.97852 88.002 6.75586C 87.7754 6.5293 87.4414 6.41602 87 6.41602C 86.6133 6.41602 86.2891 6.51367 86.0273 6.70898C 85.7656 6.9043 85.6348 7.14062 85.6348 7.41797L 84.5449 7.41797C 84.5449 7.10156 84.6562 6.79688 84.8789 6.50391C 85.1055 6.20703 85.4102 5.97266 85.793 5.80078C 86.1797 5.62891 86.6035 5.54297 87.0645 5.54297C 87.7949 5.54297 88.3672 5.72656 88.7812 6.09375C 89.1953 6.45703 89.4102 6.95898 89.4258 7.59961L 89.4258 10.5176C 89.4258 11.0996 89.5 11.5625 89.6484 11.9062L 89.6484 12L 88.5117 12ZM 86.7129 11.1738C 87.0527 11.1738 87.375 11.0859 87.6797 10.9102C 87.9844 10.7344 88.2051 10.5059 88.3418 10.2246L 88.3418 8.92383L 87.4922 8.92383C 86.1641 8.92383 85.5 9.3125 85.5 10.0898C 85.5 10.4297 85.6133 10.6953 85.8398 10.8867C 86.0664 11.0781 86.3574 11.1738 86.7129 11.1738ZM 96.4805 8.90039C 96.4805 9.86523 96.2598 10.6426 95.8184 11.2324C 95.377 11.8223 94.7793 12.1172 94.0254 12.1172C 93.2559 12.1172 92.6504 11.873 92.209 11.3848L 92.209 14.4375L 91.125 14.4375L 91.125 5.66016L 92.1152 5.66016L 92.168 6.36328C 92.6094 5.81641 93.2227 5.54297 94.0078 5.54297C 94.7695 5.54297 95.3711 5.83008 95.8125 6.4043C 96.2578 6.97852 96.4805 7.77734 96.4805 8.80078L 96.4805 8.90039ZM 95.3965 8.77734C 95.3965 8.0625 95.2441 7.49805 94.9395 7.08398C 94.6348 6.66992 94.2168 6.46289 93.6855 6.46289C 93.0293 6.46289 92.5371 6.75391 92.209 7.33594L 92.209 10.3652C 92.5332 10.9434 93.0293 11.2324 93.6973 11.2324C 94.2168 11.2324 94.6289 11.0273 94.9336 10.6172C 95.2422 10.2031 95.3965 9.58984 95.3965 8.77734ZM 98.9473 6.42773C 99.4277 5.83789 100.053 5.54297 100.822 5.54297C 102.162 5.54297 102.838 6.29883 102.85 7.81055L 102.85 12L 101.766 12L 101.766 7.80469C 101.762 7.34766 101.656 7.00977 101.449 6.79102C 101.246 6.57227 100.928 6.46289 100.494 6.46289C 100.143 6.46289 99.834 6.55664 99.5684 6.74414C 99.3027 6.93164 99.0957 7.17773 98.9473 7.48242L 98.9473 12L 97.8633 12L 97.8633 3L 98.9473 3L 98.9473 6.42773ZM 105.65 12L 104.566 12L 104.566 5.66016L 105.65 5.66016L 105.65 12ZM 104.479 3.97852C 104.479 3.80273 104.531 3.6543 104.637 3.5332C 104.746 3.41211 104.906 3.35156 105.117 3.35156C 105.328 3.35156 105.488 3.41211 105.598 3.5332C 105.707 3.6543 105.762 3.80273 105.762 3.97852C 105.762 4.1543 105.707 4.30078 105.598 4.41797C 105.488 4.53516 105.328 4.59375 105.117 4.59375C 104.906 4.59375 104.746 4.53516 104.637 4.41797C 104.531 4.30078 104.479 4.1543 104.479 3.97852ZM 109.934 11.2324C 110.32 11.2324 110.658 11.1152 110.947 10.8809C 111.236 10.6465 111.396 10.3535 111.428 10.002L 112.453 10.002C 112.434 10.3652 112.309 10.7109 112.078 11.0391C 111.848 11.3672 111.539 11.6289 111.152 11.8242C 110.77 12.0195 110.363 12.1172 109.934 12.1172C 109.07 12.1172 108.383 11.8301 107.871 11.2559C 107.363 10.6777 107.109 9.88867 107.109 8.88867L 107.109 8.70703C 107.109 8.08984 107.223 7.54102 107.449 7.06055C 107.676 6.58008 108 6.20703 108.422 5.94141C 108.848 5.67578 109.35 5.54297 109.928 5.54297C 110.639 5.54297 111.229 5.75586 111.697 6.18164C 112.17 6.60742 112.422 7.16016 112.453 7.83984L 111.428 7.83984C 111.396 7.42969 111.24 7.09375 110.959 6.83203C 110.682 6.56641 110.338 6.43359 109.928 6.43359C 109.377 6.43359 108.949 6.63281 108.645 7.03125C 108.344 7.42578 108.193 7.99805 108.193 8.74805L 108.193 8.95312C 108.193 9.68359 108.344 10.2461 108.645 10.6406C 108.945 11.0352 109.375 11.2324 109.934 11.2324ZM 117.363 10.3184C 117.363 10.0254 117.252 9.79883 117.029 9.63867C 116.811 9.47461 116.426 9.33398 115.875 9.2168C 115.328 9.09961 114.893 8.95898 114.568 8.79492C 114.248 8.63086 114.01 8.43555 113.854 8.20898C 113.701 7.98242 113.625 7.71289 113.625 7.40039C 113.625 6.88086 113.844 6.44141 114.281 6.08203C 114.723 5.72266 115.285 5.54297 115.969 5.54297C 116.688 5.54297 117.27 5.72852 117.715 6.09961C 118.164 6.4707 118.389 6.94531 118.389 7.52344L 117.299 7.52344C 117.299 7.22656 117.172 6.9707 116.918 6.75586C 116.668 6.54102 116.352 6.43359 115.969 6.43359C 115.574 6.43359 115.266 6.51953 115.043 6.69141C 114.82 6.86328 114.709 7.08789 114.709 7.36523C 114.709 7.62695 114.812 7.82422 115.02 7.95703C 115.227 8.08984 115.6 8.2168 116.139 8.33789C 116.682 8.45898 117.121 8.60352 117.457 8.77148C 117.793 8.93945 118.041 9.14258 118.201 9.38086C 118.365 9.61523 118.447 9.90234 118.447 10.2422C 118.447 10.8086 118.221 11.2637 117.768 11.6074C 117.314 11.9473 116.727 12.1172 116.004 12.1172C 115.496 12.1172 115.047 12.0273 114.656 11.8477C 114.266 11.668 113.959 11.418 113.736 11.0977C 113.518 10.7734 113.408 10.4238 113.408 10.0488L 114.492 10.0488C 114.512 10.4121 114.656 10.7012 114.926 10.916C 115.199 11.127 115.559 11.2324 116.004 11.2324C 116.414 11.2324 116.742 11.1504 116.988 10.9863C 117.238 10.8184 117.363 10.5957 117.363 10.3184ZM 126.979 3.46289L 126.979 4.38281L 126.779 4.38281C 125.936 4.39844 125.264 4.64844 124.764 5.13281C 124.264 5.61719 123.975 6.29883 123.896 7.17773C 124.346 6.66211 124.959 6.4043 125.736 6.4043C 126.479 6.4043 127.07 6.66602 127.512 7.18945C 127.957 7.71289 128.18 8.38867 128.18 9.2168C 128.18 10.0957 127.939 10.7988 127.459 11.3262C 126.982 11.8535 126.342 12.1172 125.537 12.1172C 124.721 12.1172 124.059 11.8047 123.551 11.1797C 123.043 10.5508 122.789 9.74219 122.789 8.75391L 122.789 8.33789C 122.789 6.76758 123.123 5.56836 123.791 4.74023C 124.463 3.9082 125.461 3.48242 126.785 3.46289L 126.979 3.46289ZM 125.555 7.30664C 125.184 7.30664 124.842 7.41797 124.529 7.64062C 124.217 7.86328 124 8.14258 123.879 8.47852L 123.879 8.87695C 123.879 9.58008 124.037 10.1465 124.354 10.5762C 124.67 11.0059 125.064 11.2207 125.537 11.2207C 126.025 11.2207 126.408 11.041 126.686 10.6816C 126.967 10.3223 127.107 9.85156 127.107 9.26953C 127.107 8.68359 126.965 8.21094 126.68 7.85156C 126.398 7.48828 126.023 7.30664 125.555 7.30664ZM 129.961 7.72266L 130.395 3.46875L 134.766 3.46875L 134.766 4.4707L 131.314 4.4707L 131.057 6.79688C 131.475 6.55078 131.949 6.42773 132.48 6.42773C 133.258 6.42773 133.875 6.68555 134.332 7.20117C 134.789 7.71289 135.018 8.40625 135.018 9.28125C 135.018 10.1602 134.779 10.8535 134.303 11.3613C 133.83 11.8652 133.168 12.1172 132.316 12.1172C 131.562 12.1172 130.947 11.9082 130.471 11.4902C 129.994 11.0723 129.723 10.4941 129.656 9.75586L 130.682 9.75586C 130.748 10.2441 130.922 10.6133 131.203 10.8633C 131.484 11.1094 131.855 11.2324 132.316 11.2324C 132.82 11.2324 133.215 11.0605 133.5 10.7168C 133.789 10.373 133.934 9.89844 133.934 9.29297C 133.934 8.72266 133.777 8.26562 133.465 7.92188C 133.156 7.57422 132.744 7.40039 132.229 7.40039C 131.756 7.40039 131.385 7.50391 131.115 7.71094L 130.828 7.94531L 129.961 7.72266ZM 141.551 8.36133C 141.551 9.63086 141.334 10.5742 140.9 11.1914C 140.467 11.8086 139.789 12.1172 138.867 12.1172C 137.957 12.1172 137.283 11.8164 136.846 11.2148C 136.408 10.6094 136.182 9.70703 136.166 8.50781L 136.166 7.06055C 136.166 5.80664 136.383 4.875 136.816 4.26562C 137.25 3.65625 137.93 3.35156 138.855 3.35156C 139.773 3.35156 140.449 3.64648 140.883 4.23633C 141.316 4.82227 141.539 5.72852 141.551 6.95508L 141.551 8.36133ZM 140.467 6.87891C 140.467 5.96094 140.338 5.29297 140.08 4.875C 139.822 4.45312 139.414 4.24219 138.855 4.24219C 138.301 4.24219 137.896 4.45117 137.643 4.86914C 137.389 5.28711 137.258 5.92969 137.25 6.79688L 137.25 8.53125C 137.25 9.45312 137.383 10.1348 137.648 10.5762C 137.918 11.0137 138.324 11.2324 138.867 11.2324C 139.402 11.2324 139.799 11.0254 140.057 10.6113C 140.318 10.1973 140.455 9.54492 140.467 8.6543L 140.467 6.87891Z"/>
<path id="path11_fill" d="M 4.27148 11L 3.18164 11L 3.18164 3.77539L 0.996094 4.57812L 0.996094 3.59375L 4.10156 2.42773L 4.27148 2.42773L 4.27148 11Z"/>
<path id="path12_fill" d="M 6.29883 11L 0.708984 11L 0.708984 10.2207L 3.66211 6.93945C 4.09961 6.44336 4.40039 6.04102 4.56445 5.73242C 4.73242 5.41992 4.81641 5.09766 4.81641 4.76562C 4.81641 4.32031 4.68164 3.95508 4.41211 3.66992C 4.14258 3.38477 3.7832 3.24219 3.33398 3.24219C 2.79492 3.24219 2.375 3.39648 2.07422 3.70508C 1.77734 4.00977 1.62891 4.43555 1.62891 4.98242L 0.544922 4.98242C 0.544922 4.19727 0.796875 3.5625 1.30078 3.07812C 1.80859 2.59375 2.48633 2.35156 3.33398 2.35156C 4.12695 2.35156 4.75391 2.56055 5.21484 2.97852C 5.67578 3.39258 5.90625 3.94531 5.90625 4.63672C 5.90625 5.47656 5.37109 6.47656 4.30078 7.63672L 2.01562 10.1152L 6.29883 10.1152L 6.29883 11Z"/>
<path id="path13_fill" d="M 2.28516 6.20703L 3.09961 6.20703C 3.61133 6.19922 4.01367 6.06445 4.30664 5.80273C 4.59961 5.54102 4.74609 5.1875 4.74609 4.74219C 4.74609 3.74219 4.24805 3.24219 3.25195 3.24219C 2.7832 3.24219 2.4082 3.37695 2.12695 3.64648C 1.84961 3.91211 1.71094 4.26562 1.71094 4.70703L 0.626953 4.70703C 0.626953 4.03125 0.873047 3.4707 1.36523 3.02539C 1.86133 2.57617 2.49023 2.35156 3.25195 2.35156C 4.05664 2.35156 4.6875 2.56445 5.14453 2.99023C 5.60156 3.41602 5.83008 4.00781 5.83008 4.76562C 5.83008 5.13672 5.70898 5.49609 5.4668 5.84375C 5.22852 6.19141 4.90234 6.45117 4.48828 6.62305C 4.95703 6.77148 5.31836 7.01758 5.57227 7.36133C 5.83008 7.70508 5.95898 8.125 5.95898 8.62109C 5.95898 9.38672 5.70898 9.99414 5.20898 10.4434C 4.70898 10.8926 4.05859 11.1172 3.25781 11.1172C 2.45703 11.1172 1.80469 10.9004 1.30078 10.4668C 0.800781 10.0332 0.550781 9.46094 0.550781 8.75L 1.64062 8.75C 1.64062 9.19922 1.78711 9.55859 2.08008 9.82812C 2.37305 10.0977 2.76562 10.2324 3.25781 10.2324C 3.78125 10.2324 4.18164 10.0957 4.45898 9.82227C 4.73633 9.54883 4.875 9.15625 4.875 8.64453C 4.875 8.14844 4.72266 7.76758 4.41797 7.50195C 4.11328 7.23633 3.67383 7.09961 3.09961 7.0918L 2.28516 7.0918L 2.28516 6.20703Z"/>
<path id="path14_fill" d="M 5.28516 8.13477L 6.46875 8.13477L 6.46875 9.01953L 5.28516 9.01953L 5.28516 11L 4.19531 11L 4.19531 9.01953L 0.310547 9.01953L 0.310547 8.38086L 4.13086 2.46875L 5.28516 2.46875L 5.28516 8.13477ZM 1.54102 8.13477L 4.19531 8.13477L 4.19531 3.95117L 4.06641 4.18555L 1.54102 8.13477Z"/>
</defs>
</svg>
