<svg width="340" height="225" viewBox="0 0 340 225" fill="none" xmlns="http://www.w3.org/2000/svg">
<rect width="340" height="225" fill="white"/>
<path d="M0 140L4.03314 139.38C26.6329 135.903 46.6647 122.921 59.0705 103.714L110.25 24.473C113.749 19.0567 118.504 14.5396 124.088 11.3155V11.3155C136.244 4.29666 151.21 4.04507 163.574 10.6915V10.6915C170.307 14.3111 175.879 19.7619 179.646 26.414L220.855 99.1903C233.236 121.054 255.169 135.832 280.082 139.094L287 140" transform="translate(13 13)" stroke="#0072B2" stroke-width="2"/>
<line y1="-0.5" x2="314" y2="-0.5" transform="translate(0 163)" stroke="black"/>
<line y1="-0.5" x2="11" y2="-0.5" transform="translate(158 169) rotate(-90)" stroke="black"/>
<line y1="-0.5" x2="11" y2="-0.5" transform="translate(123 169) rotate(-90)" stroke="black"/>
<line y1="-0.5" x2="11" y2="-0.5" transform="translate(88 169) rotate(-90)" stroke="black"/>
<line y1="-0.5" x2="11" y2="-0.5" transform="translate(53 169) rotate(-90)" stroke="black"/>
<line y1="-0.5" x2="11" y2="-0.5" transform="translate(53 212) rotate(-90)" stroke="black"/>
<line y1="-0.5" x2="11" y2="-0.5" transform="translate(263 169) rotate(-90)" stroke="black"/>
<line y1="-0.5" x2="11" y2="-0.5" transform="translate(193 169) rotate(-90)" stroke="black"/>
<line y1="-0.5" x2="11" y2="-0.5" transform="translate(228 169) rotate(-90)" stroke="black"/>
<line y1="-0.5" x2="137" y2="-0.5" transform="translate(157 21) rotate(90)" stroke="black" stroke-dasharray="1 1"/>
<line y1="-0.5" x2="116" y2="-0.5" transform="translate(193 159) rotate(-90)" stroke="black" stroke-dasharray="1 1"/>
<line y1="-0.5" x2="116" y2="-0.5" transform="translate(123 159) rotate(-90)" stroke="black" stroke-dasharray="1 1"/>
<line y1="-0.5" x2="63" y2="-0.5" transform="translate(88 159) rotate(-90)" stroke="black" stroke-dasharray="1 1"/>
<line y1="-0.5" x2="17" y2="-0.5" transform="translate(53 157) rotate(-90)" stroke="black" stroke-dasharray="1 1"/>
<line y1="-0.5" x2="63" y2="-0.5" transform="translate(228 167) rotate(-90)" stroke="black" stroke-dasharray="1 1"/>
<line y1="-0.5" x2="18" y2="-0.5" transform="translate(263 162) rotate(-90)" stroke="black" stroke-dasharray="1 1"/>
<path d="M5.08447 12H3.25V4.92871L1.06006 5.60791V4.11621L4.8877 2.74512H5.08447V12ZM14.1172 5.21436C14.1172 5.66292 14.005 6.06071 13.7808 6.40771C13.5565 6.75472 13.2476 7.0319 12.854 7.23926C13.3026 7.45508 13.658 7.75342 13.9204 8.13428C14.1828 8.5109 14.314 8.95524 14.314 9.46729C14.314 10.2882 14.0347 10.9378 13.4761 11.416C12.9175 11.89 12.1579 12.127 11.1973 12.127C10.2367 12.127 9.47493 11.8879 8.91211 11.4097C8.34928 10.9315 8.06787 10.284 8.06787 9.46729C8.06787 8.95524 8.19906 8.50879 8.46143 8.12793C8.7238 7.74707 9.07715 7.45085 9.52148 7.23926C9.12793 7.0319 8.81901 6.75472 8.59473 6.40771C8.37467 6.06071 8.26465 5.66292 8.26465 5.21436C8.26465 4.42725 8.52702 3.80094 9.05176 3.33545C9.5765 2.86572 10.2896 2.63086 11.1909 2.63086C12.0881 2.63086 12.799 2.86361 13.3237 3.3291C13.8527 3.79036 14.1172 4.41878 14.1172 5.21436ZM12.4731 9.33398C12.4731 8.93197 12.3568 8.61035 12.124 8.36914C11.8913 8.12793 11.5781 8.00732 11.1846 8.00732C10.7952 8.00732 10.4842 8.12793 10.2515 8.36914C10.0187 8.60612 9.90234 8.92773 9.90234 9.33398C9.90234 9.72754 10.0166 10.0449 10.2451 10.2861C10.4736 10.5273 10.791 10.6479 11.1973 10.6479C11.5951 10.6479 11.9061 10.5316 12.1304 10.2988C12.3589 10.0661 12.4731 9.74447 12.4731 9.33398ZM12.2827 5.30322C12.2827 4.94352 12.1875 4.65576 11.9971 4.43994C11.8066 4.21989 11.5379 4.10986 11.1909 4.10986C10.8481 4.10986 10.5815 4.21566 10.3911 4.42725C10.2007 4.63883 10.1055 4.93083 10.1055 5.30322C10.1055 5.67139 10.2007 5.96761 10.3911 6.19189C10.5815 6.41618 10.8503 6.52832 11.1973 6.52832C11.5443 6.52832 11.8109 6.41618 11.9971 6.19189C12.1875 5.96761 12.2827 5.67139 12.2827 5.30322ZM21.7788 8.17871C21.7788 9.45671 21.5143 10.4342 20.9854 11.1113C20.4564 11.7884 19.682 12.127 18.6621 12.127C17.6549 12.127 16.8848 11.7948 16.3516 11.1304C15.8184 10.466 15.5454 9.51383 15.5327 8.27393V6.57275C15.5327 5.28206 15.7993 4.30241 16.3325 3.63379C16.87 2.96517 17.6423 2.63086 18.6494 2.63086C19.6566 2.63086 20.4268 2.96305 20.96 3.62744C21.4932 4.2876 21.7661 5.23763 21.7788 6.47754V8.17871ZM19.9443 6.3125C19.9443 5.54655 19.8385 4.99007 19.627 4.64307C19.4196 4.29183 19.0938 4.11621 18.6494 4.11621C18.2178 4.11621 17.8983 4.28337 17.6909 4.61768C17.4878 4.94775 17.3799 5.46615 17.3672 6.17285V8.41992C17.3672 9.17318 17.4688 9.73389 17.6719 10.1021C17.8792 10.466 18.2093 10.6479 18.6621 10.6479C19.1107 10.6479 19.4344 10.4723 19.6333 10.1211C19.8322 9.76986 19.9359 9.23242 19.9443 8.50879V6.3125ZM25.5938 9.24512L24.9336 9.90527V12H23.0991V2.25H24.9336V7.65186L25.2891 7.19482L27.0474 5.13184H29.25L26.7681 7.99463L29.4658 12H27.3584L25.5938 9.24512Z" transform="translate(143 173)" fill="black"/>
<path d="M4.62744 12H3.44678V4.17334L1.0791 5.04297V3.97656L4.44336 2.71338H4.62744V12ZM12.5684 7.9375C12.3229 8.22949 12.0288 8.46436 11.686 8.64209C11.3475 8.81982 10.9751 8.90869 10.5688 8.90869C10.0356 8.90869 9.57015 8.77751 9.17236 8.51514C8.77881 8.25277 8.47412 7.8846 8.2583 7.41064C8.04248 6.93245 7.93457 6.4056 7.93457 5.83008C7.93457 5.21224 8.05094 4.65576 8.28369 4.16064C8.52067 3.66553 8.85498 3.28678 9.28662 3.02441C9.71826 2.76204 10.2218 2.63086 10.7974 2.63086C11.7114 2.63086 12.4308 2.97363 12.9556 3.65918C13.4845 4.34049 13.749 5.27148 13.749 6.45215V6.79492C13.749 8.59342 13.3936 9.90739 12.6826 10.7368C11.9717 11.562 10.8989 11.9852 9.46436 12.0063H9.23584V11.0161H9.4834C10.4525 10.9992 11.1973 10.7474 11.7178 10.2607C12.2383 9.76986 12.5218 8.99544 12.5684 7.9375ZM10.7593 7.9375C11.1528 7.9375 11.5146 7.81689 11.8447 7.57568C12.179 7.33447 12.4224 7.03613 12.5747 6.68066V6.21094C12.5747 5.44076 12.4076 4.81445 12.0732 4.33203C11.7389 3.84961 11.3158 3.6084 10.8037 3.6084C10.2874 3.6084 9.87272 3.80729 9.55957 4.20508C9.24642 4.59863 9.08984 5.11914 9.08984 5.7666C9.08984 6.39714 9.24007 6.91764 9.54053 7.32812C9.84521 7.73438 10.2515 7.9375 10.7593 7.9375ZM21.1631 8.05811C21.1631 9.43343 20.9282 10.4554 20.4585 11.124C19.9888 11.7926 19.2546 12.127 18.2559 12.127C17.2699 12.127 16.5399 11.8011 16.0659 11.1494C15.592 10.4935 15.3465 9.51595 15.3296 8.2168V6.64893C15.3296 5.29053 15.5645 4.28125 16.0342 3.62109C16.5039 2.96094 17.2402 2.63086 18.2432 2.63086C19.2376 2.63086 19.9697 2.95036 20.4395 3.58936C20.9092 4.22412 21.1504 5.20589 21.1631 6.53467V8.05811ZM19.9888 6.45215C19.9888 5.45768 19.8491 4.73405 19.5698 4.28125C19.2905 3.82422 18.8483 3.5957 18.2432 3.5957C17.6423 3.5957 17.2043 3.8221 16.9292 4.2749C16.6541 4.7277 16.5124 5.42383 16.5039 6.36328V8.24219C16.5039 9.24089 16.6478 9.97933 16.9355 10.4575C17.2275 10.9315 17.6676 11.1685 18.2559 11.1685C18.8356 11.1685 19.2651 10.9442 19.5444 10.4956C19.828 10.047 19.9761 9.34033 19.9888 8.37549V6.45215ZM24.7051 8.81982L23.9688 9.58789V12H22.7944V2.25H23.9688V8.14697L24.5972 7.3916L26.7363 5.13184H28.1646L25.4922 8.00098L28.4756 12H27.0981L24.7051 8.81982Z" transform="translate(179 173)" fill="black"/>
<path d="M6.82373 12H0.768066V11.1558L3.96729 7.60107C4.44124 7.06364 4.76709 6.62777 4.94482 6.29346C5.12679 5.95492 5.21777 5.60579 5.21777 5.24609C5.21777 4.76367 5.07178 4.368 4.77979 4.05908C4.48779 3.75016 4.09847 3.5957 3.61182 3.5957C3.02783 3.5957 2.57292 3.76286 2.24707 4.09717C1.92546 4.42725 1.76465 4.88851 1.76465 5.48096H0.590332C0.590332 4.63037 0.863281 3.94271 1.40918 3.41797C1.95931 2.89323 2.69352 2.63086 3.61182 2.63086C4.47087 2.63086 5.15007 2.85726 5.64941 3.31006C6.14876 3.75863 6.39844 4.35742 6.39844 5.10645C6.39844 6.01628 5.81868 7.09961 4.65918 8.35645L2.18359 11.0415H6.82373V12ZM13.8633 8.05811C13.8633 9.43343 13.6284 10.4554 13.1587 11.124C12.689 11.7926 11.9548 12.127 10.9561 12.127C9.97005 12.127 9.24007 11.8011 8.76611 11.1494C8.29215 10.4935 8.04671 9.51595 8.02979 8.2168V6.64893C8.02979 5.29053 8.26465 4.28125 8.73438 3.62109C9.2041 2.96094 9.94043 2.63086 10.9434 2.63086C11.9378 2.63086 12.6699 2.95036 13.1396 3.58936C13.6094 4.22412 13.8506 5.20589 13.8633 6.53467V8.05811ZM12.689 6.45215C12.689 5.45768 12.5493 4.73405 12.27 4.28125C11.9907 3.82422 11.5485 3.5957 10.9434 3.5957C10.3424 3.5957 9.90446 3.8221 9.62939 4.2749C9.35433 4.7277 9.21257 5.42383 9.2041 6.36328V8.24219C9.2041 9.24089 9.34798 9.97933 9.63574 10.4575C9.92773 10.9315 10.3678 11.1685 10.9561 11.1685C11.5358 11.1685 11.9653 10.9442 12.2446 10.4956C12.5282 10.047 12.6763 9.34033 12.689 8.37549V6.45215ZM21.1631 8.05811C21.1631 9.43343 20.9282 10.4554 20.4585 11.124C19.9888 11.7926 19.2546 12.127 18.2559 12.127C17.2699 12.127 16.5399 11.8011 16.0659 11.1494C15.592 10.4935 15.3465 9.51595 15.3296 8.2168V6.64893C15.3296 5.29053 15.5645 4.28125 16.0342 3.62109C16.5039 2.96094 17.2402 2.63086 18.2432 2.63086C19.2376 2.63086 19.9697 2.95036 20.4395 3.58936C20.9092 4.22412 21.1504 5.20589 21.1631 6.53467V8.05811ZM19.9888 6.45215C19.9888 5.45768 19.8491 4.73405 19.5698 4.28125C19.2905 3.82422 18.8483 3.5957 18.2432 3.5957C17.6423 3.5957 17.2043 3.8221 16.9292 4.2749C16.6541 4.7277 16.5124 5.42383 16.5039 6.36328V8.24219C16.5039 9.24089 16.6478 9.97933 16.9355 10.4575C17.2275 10.9315 17.6676 11.1685 18.2559 11.1685C18.8356 11.1685 19.2651 10.9442 19.5444 10.4956C19.828 10.047 19.9761 9.34033 19.9888 8.37549V6.45215ZM24.7051 8.81982L23.9688 9.58789V12H22.7944V2.25H23.9688V8.14697L24.5972 7.3916L26.7363 5.13184H28.1646L25.4922 8.00098L28.4756 12H27.0981L24.7051 8.81982Z" transform="translate(216 173)" fill="black"/>
<path d="M6.82373 12H0.768066V11.1558L3.96729 7.60107C4.44124 7.06364 4.76709 6.62777 4.94482 6.29346C5.12679 5.95492 5.21777 5.60579 5.21777 5.24609C5.21777 4.76367 5.07178 4.368 4.77979 4.05908C4.48779 3.75016 4.09847 3.5957 3.61182 3.5957C3.02783 3.5957 2.57292 3.76286 2.24707 4.09717C1.92546 4.42725 1.76465 4.88851 1.76465 5.48096H0.590332C0.590332 4.63037 0.863281 3.94271 1.40918 3.41797C1.95931 2.89323 2.69352 2.63086 3.61182 2.63086C4.47087 2.63086 5.15007 2.85726 5.64941 3.31006C6.14876 3.75863 6.39844 4.35742 6.39844 5.10645C6.39844 6.01628 5.81868 7.09961 4.65918 8.35645L2.18359 11.0415H6.82373V12ZM11.9272 12H10.7466V4.17334L8.37891 5.04297V3.97656L11.7432 2.71338H11.9272V12ZM21.1631 8.05811C21.1631 9.43343 20.9282 10.4554 20.4585 11.124C19.9888 11.7926 19.2546 12.127 18.2559 12.127C17.2699 12.127 16.5399 11.8011 16.0659 11.1494C15.592 10.4935 15.3465 9.51595 15.3296 8.2168V6.64893C15.3296 5.29053 15.5645 4.28125 16.0342 3.62109C16.5039 2.96094 17.2402 2.63086 18.2432 2.63086C19.2376 2.63086 19.9697 2.95036 20.4395 3.58936C20.9092 4.22412 21.1504 5.20589 21.1631 6.53467V8.05811ZM19.9888 6.45215C19.9888 5.45768 19.8491 4.73405 19.5698 4.28125C19.2905 3.82422 18.8483 3.5957 18.2432 3.5957C17.6423 3.5957 17.2043 3.8221 16.9292 4.2749C16.6541 4.7277 16.5124 5.42383 16.5039 6.36328V8.24219C16.5039 9.24089 16.6478 9.97933 16.9355 10.4575C17.2275 10.9315 17.6676 11.1685 18.2559 11.1685C18.8356 11.1685 19.2651 10.9442 19.5444 10.4956C19.828 10.047 19.9761 9.34033 19.9888 8.37549V6.45215ZM24.7051 8.81982L23.9688 9.58789V12H22.7944V2.25H23.9688V8.14697L24.5972 7.3916L26.7363 5.13184H28.1646L25.4922 8.00098L28.4756 12H27.0981L24.7051 8.81982Z" transform="translate(252 173)" fill="black"/>
<path d="M4.62744 12H3.44678V4.17334L1.0791 5.04297V3.97656L4.44336 2.71338H4.62744V12ZM12.6763 2.75146V3.74805H12.4604C11.5464 3.76497 10.8185 4.03581 10.2769 4.56055C9.73519 5.08529 9.42204 5.82373 9.3374 6.77588C9.82406 6.21729 10.4884 5.93799 11.3306 5.93799C12.1346 5.93799 12.7757 6.22152 13.2539 6.78857C13.7363 7.35563 13.9775 8.08773 13.9775 8.98486C13.9775 9.93701 13.7173 10.6987 13.1968 11.27C12.6805 11.8413 11.9865 12.127 11.1147 12.127C10.2303 12.127 9.51302 11.7884 8.96289 11.1113C8.41276 10.43 8.1377 9.55404 8.1377 8.4834V8.03271C8.1377 6.33154 8.49951 5.03239 9.22314 4.13525C9.95101 3.23389 11.0322 2.77262 12.4668 2.75146H12.6763ZM11.1338 6.91553C10.7318 6.91553 10.3615 7.03613 10.0229 7.27734C9.68441 7.51855 9.44954 7.82113 9.31836 8.18506V8.6167C9.31836 9.37842 9.48975 9.99202 9.83252 10.4575C10.1753 10.923 10.6027 11.1558 11.1147 11.1558C11.6437 11.1558 12.0584 10.9611 12.3589 10.5718C12.6636 10.1825 12.8159 9.67253 12.8159 9.04199C12.8159 8.40723 12.6615 7.89518 12.3525 7.50586C12.0479 7.1123 11.6416 6.91553 11.1338 6.91553ZM21.1631 8.05811C21.1631 9.43343 20.9282 10.4554 20.4585 11.124C19.9888 11.7926 19.2546 12.127 18.2559 12.127C17.2699 12.127 16.5399 11.8011 16.0659 11.1494C15.592 10.4935 15.3465 9.51595 15.3296 8.2168V6.64893C15.3296 5.29053 15.5645 4.28125 16.0342 3.62109C16.5039 2.96094 17.2402 2.63086 18.2432 2.63086C19.2376 2.63086 19.9697 2.95036 20.4395 3.58936C20.9092 4.22412 21.1504 5.20589 21.1631 6.53467V8.05811ZM19.9888 6.45215C19.9888 5.45768 19.8491 4.73405 19.5698 4.28125C19.2905 3.82422 18.8483 3.5957 18.2432 3.5957C17.6423 3.5957 17.2043 3.8221 16.9292 4.2749C16.6541 4.7277 16.5124 5.42383 16.5039 6.36328V8.24219C16.5039 9.24089 16.6478 9.97933 16.9355 10.4575C17.2275 10.9315 17.6676 11.1685 18.2559 11.1685C18.8356 11.1685 19.2651 10.9442 19.5444 10.4956C19.828 10.047 19.9761 9.34033 19.9888 8.37549V6.45215ZM24.7051 8.81982L23.9688 9.58789V12H22.7944V2.25H23.9688V8.14697L24.5972 7.3916L26.7363 5.13184H28.1646L25.4922 8.00098L28.4756 12H27.0981L24.7051 8.81982Z" transform="translate(73 173)" fill="black"/>
<path d="M4.62744 12H3.44678V4.17334L1.0791 5.04297V3.97656L4.44336 2.71338H4.62744V12ZM8.60742 7.36621L9.07715 2.75781H13.8125V3.84326H10.0737L9.79443 6.36328C10.2472 6.09668 10.7614 5.96338 11.3369 5.96338C12.179 5.96338 12.8477 6.24268 13.3428 6.80127C13.8379 7.35563 14.0854 8.10677 14.0854 9.05469C14.0854 10.0068 13.8273 10.758 13.311 11.3081C12.799 11.854 12.0817 12.127 11.1592 12.127C10.3424 12.127 9.67594 11.9006 9.15967 11.4478C8.64339 10.995 8.34928 10.3687 8.27734 9.56885H9.38818C9.46012 10.0978 9.64844 10.4977 9.95312 10.7686C10.2578 11.0352 10.6598 11.1685 11.1592 11.1685C11.7051 11.1685 12.1325 10.9823 12.4414 10.6099C12.7546 10.2375 12.9111 9.72331 12.9111 9.06738C12.9111 8.44954 12.7419 7.95443 12.4033 7.58203C12.069 7.2054 11.6226 7.01709 11.064 7.01709C10.5519 7.01709 10.1499 7.12923 9.85791 7.35352L9.54688 7.60742L8.60742 7.36621ZM21.1631 8.05811C21.1631 9.43343 20.9282 10.4554 20.4585 11.124C19.9888 11.7926 19.2546 12.127 18.2559 12.127C17.2699 12.127 16.5399 11.8011 16.0659 11.1494C15.592 10.4935 15.3465 9.51595 15.3296 8.2168V6.64893C15.3296 5.29053 15.5645 4.28125 16.0342 3.62109C16.5039 2.96094 17.2402 2.63086 18.2432 2.63086C19.2376 2.63086 19.9697 2.95036 20.4395 3.58936C20.9092 4.22412 21.1504 5.20589 21.1631 6.53467V8.05811ZM19.9888 6.45215C19.9888 5.45768 19.8491 4.73405 19.5698 4.28125C19.2905 3.82422 18.8483 3.5957 18.2432 3.5957C17.6423 3.5957 17.2043 3.8221 16.9292 4.2749C16.6541 4.7277 16.5124 5.42383 16.5039 6.36328V8.24219C16.5039 9.24089 16.6478 9.97933 16.9355 10.4575C17.2275 10.9315 17.6676 11.1685 18.2559 11.1685C18.8356 11.1685 19.2651 10.9442 19.5444 10.4956C19.828 10.047 19.9761 9.34033 19.9888 8.37549V6.45215ZM24.7051 8.81982L23.9688 9.58789V12H22.7944V2.25H23.9688V8.14697L24.5972 7.3916L26.7363 5.13184H28.1646L25.4922 8.00098L28.4756 12H27.0981L24.7051 8.81982Z" transform="translate(39 173)" fill="black"/>
<path d="M4.62744 12H3.44678V4.17334L1.0791 5.04297V3.97656L4.44336 2.71338H4.62744V12ZM14.0347 3.41797L10.207 12H8.97559L12.7905 3.72266H7.78857V2.75781H14.0347V3.41797ZM21.1631 8.05811C21.1631 9.43343 20.9282 10.4554 20.4585 11.124C19.9888 11.7926 19.2546 12.127 18.2559 12.127C17.2699 12.127 16.5399 11.8011 16.0659 11.1494C15.592 10.4935 15.3465 9.51595 15.3296 8.2168V6.64893C15.3296 5.29053 15.5645 4.28125 16.0342 3.62109C16.5039 2.96094 17.2402 2.63086 18.2432 2.63086C19.2376 2.63086 19.9697 2.95036 20.4395 3.58936C20.9092 4.22412 21.1504 5.20589 21.1631 6.53467V8.05811ZM19.9888 6.45215C19.9888 5.45768 19.8491 4.73405 19.5698 4.28125C19.2905 3.82422 18.8483 3.5957 18.2432 3.5957C17.6423 3.5957 17.2043 3.8221 16.9292 4.2749C16.6541 4.7277 16.5124 5.42383 16.5039 6.36328V8.24219C16.5039 9.24089 16.6478 9.97933 16.9355 10.4575C17.2275 10.9315 17.6676 11.1685 18.2559 11.1685C18.8356 11.1685 19.2651 10.9442 19.5444 10.4956C19.828 10.047 19.9761 9.34033 19.9888 8.37549V6.45215ZM24.7051 8.81982L23.9688 9.58789V12H22.7944V2.25H23.9688V8.14697L24.5972 7.3916L26.7363 5.13184H28.1646L25.4922 8.00098L28.4756 12H27.0981L24.7051 8.81982Z" transform="translate(108 173)" fill="black"/>
<line y1="-0.5" x2="314" y2="-0.5" transform="translate(0 206)" stroke="black"/>
<line y1="-0.5" x2="11" y2="-0.5" transform="translate(158 212) rotate(-90)" stroke="black"/>
<line y1="-0.5" x2="11" y2="-0.5" transform="translate(123 212) rotate(-90)" stroke="black"/>
<line y1="-0.5" x2="11" y2="-0.5" transform="translate(88 212) rotate(-90)" stroke="black"/>
<line y1="-0.5" x2="11" y2="-0.5" transform="translate(193 212) rotate(-90)" stroke="black"/>
<line y1="-0.5" x2="11" y2="-0.5" transform="translate(228 212) rotate(-90)" stroke="black"/>
<line y1="-0.5" x2="11" y2="-0.5" transform="translate(263 212) rotate(-90)" stroke="black"/>
<path d="M6.84912 8.17871C6.84912 9.45671 6.58464 10.4342 6.05566 11.1113C5.52669 11.7884 4.75228 12.127 3.73242 12.127C2.72526 12.127 1.95508 11.7948 1.42188 11.1304C0.888672 10.466 0.615723 9.51383 0.603027 8.27393V6.57275C0.603027 5.28206 0.869629 4.30241 1.40283 3.63379C1.94027 2.96517 2.71257 2.63086 3.71973 2.63086C4.72689 2.63086 5.49707 2.96305 6.03027 3.62744C6.56348 4.2876 6.83643 5.23763 6.84912 6.47754V8.17871ZM5.01465 6.3125C5.01465 5.54655 4.90885 4.99007 4.69727 4.64307C4.48991 4.29183 4.16406 4.11621 3.71973 4.11621C3.28809 4.11621 2.96859 4.28337 2.76123 4.61768C2.55811 4.94775 2.4502 5.46615 2.4375 6.17285V8.41992C2.4375 9.17318 2.53906 9.73389 2.74219 10.1021C2.94954 10.466 3.27962 10.6479 3.73242 10.6479C4.18099 10.6479 4.50472 10.4723 4.70361 10.1211C4.90251 9.76986 5.00618 9.23242 5.01465 8.50879V6.3125Z" transform="translate(154 212)" fill="black"/>
<path d="M4.25293 7.04248H6.83008V8.15332H4.25293V11.0732H3.07227V8.15332H0.495117V7.04248H3.07227V4.34473H4.25293V7.04248ZM12.0034 12H10.8228V4.17334L8.45508 5.04297V3.97656L11.8193 2.71338H12.0034V12Z" transform="translate(184 212)" fill="black"/>
<path d="M4.25293 7.04248H6.83008V8.15332H4.25293V11.0732H3.07227V8.15332H0.495117V7.04248H3.07227V4.34473H4.25293V7.04248ZM14.1997 12H8.14404V11.1558L11.3433 7.60107C11.8172 7.06364 12.1431 6.62777 12.3208 6.29346C12.5028 5.95492 12.5938 5.60579 12.5938 5.24609C12.5938 4.76367 12.4478 4.368 12.1558 4.05908C11.8638 3.75016 11.4744 3.5957 10.9878 3.5957C10.4038 3.5957 9.94889 3.76286 9.62305 4.09717C9.30143 4.42725 9.14062 4.88851 9.14062 5.48096H7.96631C7.96631 4.63037 8.23926 3.94271 8.78516 3.41797C9.33529 2.89323 10.0695 2.63086 10.9878 2.63086C11.8468 2.63086 12.526 2.85726 13.0254 3.31006C13.5247 3.75863 13.7744 4.35742 13.7744 5.10645C13.7744 6.01628 13.1947 7.09961 12.0352 8.35645L9.55957 11.0415H14.1997V12Z" transform="translate(221 212)" fill="black"/>
<path d="M4.25293 7.04248H6.83008V8.15332H4.25293V11.0732H3.07227V8.15332H0.495117V7.04248H3.07227V4.34473H4.25293V7.04248ZM9.85156 6.80762H10.7339C11.2882 6.79915 11.7241 6.65316 12.0415 6.36963C12.3589 6.0861 12.5176 5.70312 12.5176 5.2207C12.5176 4.13737 11.978 3.5957 10.8989 3.5957C10.3911 3.5957 9.98486 3.7417 9.68018 4.03369C9.37972 4.32145 9.22949 4.70443 9.22949 5.18262H8.05518C8.05518 4.45052 8.32178 3.84326 8.85498 3.36084C9.39242 2.87419 10.0737 2.63086 10.8989 2.63086C11.7707 2.63086 12.4541 2.86149 12.9492 3.32275C13.4443 3.78402 13.6919 4.42513 13.6919 5.24609C13.6919 5.64811 13.5607 6.03743 13.2983 6.41406C13.0402 6.79069 12.6868 7.0721 12.2383 7.2583C12.7461 7.41911 13.1375 7.68571 13.4126 8.05811C13.6919 8.4305 13.8315 8.88542 13.8315 9.42285C13.8315 10.2523 13.5607 10.9103 13.019 11.397C12.4774 11.8836 11.7728 12.127 10.9053 12.127C10.0378 12.127 9.33105 11.8921 8.78516 11.4224C8.24349 10.9526 7.97266 10.3327 7.97266 9.5625H9.15332C9.15332 10.0492 9.31201 10.4385 9.62939 10.7305C9.94678 11.0225 10.3721 11.1685 10.9053 11.1685C11.4723 11.1685 11.9061 11.0203 12.2065 10.7241C12.507 10.4279 12.6572 10.0026 12.6572 9.44824C12.6572 8.91081 12.4922 8.49821 12.1621 8.21045C11.832 7.92269 11.356 7.77458 10.7339 7.76611H9.85156V6.80762Z" transform="translate(256 212)" fill="black"/>
<path d="M3.33252 8.55322H0.234863V7.59473H3.33252V8.55322ZM10.4165 12H4.36084V11.1558L7.56006 7.60107C8.03402 7.06364 8.35986 6.62777 8.5376 6.29346C8.71956 5.95492 8.81055 5.60579 8.81055 5.24609C8.81055 4.76367 8.66455 4.368 8.37256 4.05908C8.08057 3.75016 7.69124 3.5957 7.20459 3.5957C6.62061 3.5957 6.16569 3.76286 5.83984 4.09717C5.51823 4.42725 5.35742 4.88851 5.35742 5.48096H4.18311C4.18311 4.63037 4.45605 3.94271 5.00195 3.41797C5.55208 2.89323 6.2863 2.63086 7.20459 2.63086C8.06364 2.63086 8.74284 2.85726 9.24219 3.31006C9.74154 3.75863 9.99121 4.35742 9.99121 5.10645C9.99121 6.01628 9.41146 7.09961 8.25195 8.35645L5.77637 11.0415H10.4165V12Z" transform="translate(79 212)" fill="black"/>
<path d="M3.33252 8.55322H0.234863V7.59473H3.33252V8.55322ZM6.06836 6.80762H6.95068C7.50505 6.79915 7.94092 6.65316 8.2583 6.36963C8.57568 6.0861 8.73438 5.70312 8.73438 5.2207C8.73438 4.13737 8.19482 3.5957 7.11572 3.5957C6.60791 3.5957 6.20166 3.7417 5.89697 4.03369C5.59652 4.32145 5.44629 4.70443 5.44629 5.18262H4.27197C4.27197 4.45052 4.53857 3.84326 5.07178 3.36084C5.60921 2.87419 6.29053 2.63086 7.11572 2.63086C7.98747 2.63086 8.6709 2.86149 9.16602 3.32275C9.66113 3.78402 9.90869 4.42513 9.90869 5.24609C9.90869 5.64811 9.77751 6.03743 9.51514 6.41406C9.257 6.79069 8.90365 7.0721 8.45508 7.2583C8.96289 7.41911 9.35433 7.68571 9.62939 8.05811C9.90869 8.4305 10.0483 8.88542 10.0483 9.42285C10.0483 10.2523 9.77751 10.9103 9.23584 11.397C8.69417 11.8836 7.98958 12.127 7.12207 12.127C6.25456 12.127 5.54785 11.8921 5.00195 11.4224C4.46029 10.9526 4.18945 10.3327 4.18945 9.5625H5.37012C5.37012 10.0492 5.52881 10.4385 5.84619 10.7305C6.16357 11.0225 6.58887 11.1685 7.12207 11.1685C7.68913 11.1685 8.12288 11.0203 8.42334 10.7241C8.7238 10.4279 8.87402 10.0026 8.87402 9.44824C8.87402 8.91081 8.70898 8.49821 8.37891 8.21045C8.04883 7.92269 7.57275 7.77458 6.95068 7.76611H6.06836V6.80762Z" transform="translate(46 212)" fill="black"/>
<path d="M3.33252 8.55322H0.234863V7.59473H3.33252V8.55322ZM8.22021 12H7.03955V4.17334L4.67188 5.04297V3.97656L8.03613 2.71338H8.22021V12Z" transform="translate(116 212)" fill="black"/>
<path d="M33.3536 0.353553C33.5488 0.158291 33.5488 -0.158291 33.3536 -0.353553L30.1716 -3.53553C29.9763 -3.7308 29.6597 -3.7308 29.4645 -3.53553C29.2692 -3.34027 29.2692 -3.02369 29.4645 -2.82843L32.2929 0L29.4645 2.82843C29.2692 3.02369 29.2692 3.34027 29.4645 3.53553C29.6597 3.7308 29.9763 3.7308 30.1716 3.53553L33.3536 0.353553ZM0 0.5H33V-0.5H0V0.5Z" transform="translate(158 44)" fill="black"/>
<path d="M7.86133 7.20312H6.125C6.92253 7.85026 7.32129 8.66829 7.32129 9.65723C7.32129 10.6963 7.01367 11.5371 6.39844 12.1797C5.7832 12.8177 4.96517 13.1367 3.94434 13.1367C2.88704 13.1367 2.03939 12.7972 1.40137 12.1182C0.767904 11.4391 0.451172 10.5072 0.451172 9.32227V9.2334C0.451172 8.14421 0.763346 7.26693 1.3877 6.60156C2.0166 5.9362 2.87337 5.60352 3.95801 5.60352H7.86133V7.20312ZM2.42676 9.37695C2.42676 10.0879 2.55664 10.6279 2.81641 10.9971C3.08073 11.3662 3.45671 11.5508 3.94434 11.5508C4.39095 11.5508 4.73503 11.3662 4.97656 10.9971C5.22266 10.6279 5.3457 10.04 5.3457 9.2334C5.3457 8.58626 5.22266 8.08724 4.97656 7.73633C4.73047 7.38086 4.38184 7.20312 3.93066 7.20312C3.45671 7.20312 3.08757 7.3763 2.82324 7.72266C2.55892 8.06901 2.42676 8.62044 2.42676 9.37695ZM18.5391 7.90039H12.4277V6.28711H18.5391V7.90039ZM18.5391 10.8604H12.4277V9.24707H18.5391V10.8604ZM28.4717 13H26.4961V5.38477L24.1377 6.11621V4.50977L28.2598 3.0332H28.4717V13ZM38.4111 8.88477C38.4111 10.2611 38.1263 11.3138 37.5566 12.043C36.987 12.7721 36.153 13.1367 35.0547 13.1367C33.9701 13.1367 33.1406 12.779 32.5664 12.0635C31.9922 11.348 31.6982 10.3226 31.6846 8.9873V7.15527C31.6846 5.7653 31.9717 4.71029 32.5459 3.99023C33.1247 3.27018 33.9564 2.91016 35.041 2.91016C36.1257 2.91016 36.9551 3.2679 37.5293 3.9834C38.1035 4.69434 38.3975 5.71745 38.4111 7.05273V8.88477ZM36.4355 6.875C36.4355 6.05013 36.3216 5.45085 36.0938 5.07715C35.8704 4.69889 35.5195 4.50977 35.041 4.50977C34.5762 4.50977 34.2321 4.68978 34.0088 5.0498C33.79 5.40527 33.6738 5.96354 33.6602 6.72461V9.14453C33.6602 9.95573 33.7695 10.5596 33.9883 10.9561C34.2116 11.348 34.5671 11.5439 35.0547 11.5439C35.5378 11.5439 35.8864 11.3548 36.1006 10.9766C36.3148 10.5983 36.4264 10.0195 36.4355 9.24023V6.875ZM46.4502 8.88477C46.4502 10.2611 46.1654 11.3138 45.5957 12.043C45.026 12.7721 44.1921 13.1367 43.0938 13.1367C42.0091 13.1367 41.1797 12.779 40.6055 12.0635C40.0312 11.348 39.7373 10.3226 39.7236 8.9873V7.15527C39.7236 5.7653 40.0107 4.71029 40.585 3.99023C41.1637 3.27018 41.9954 2.91016 43.0801 2.91016C44.1647 2.91016 44.9941 3.2679 45.5684 3.9834C46.1426 4.69434 46.4365 5.71745 46.4502 7.05273V8.88477ZM44.4746 6.875C44.4746 6.05013 44.3607 5.45085 44.1328 5.07715C43.9095 4.69889 43.5586 4.50977 43.0801 4.50977C42.6152 4.50977 42.2712 4.68978 42.0479 5.0498C41.8291 5.40527 41.7129 5.96354 41.6992 6.72461V9.14453C41.6992 9.95573 41.8086 10.5596 42.0273 10.9561C42.2507 11.348 42.6061 11.5439 43.0938 11.5439C43.5768 11.5439 43.9255 11.3548 44.1396 10.9766C44.3538 10.5983 44.4655 10.0195 44.4746 9.24023V6.875ZM54.4893 8.88477C54.4893 10.2611 54.2044 11.3138 53.6348 12.043C53.0651 12.7721 52.2311 13.1367 51.1328 13.1367C50.0482 13.1367 49.2188 12.779 48.6445 12.0635C48.0703 11.348 47.7764 10.3226 47.7627 8.9873V7.15527C47.7627 5.7653 48.0498 4.71029 48.624 3.99023C49.2028 3.27018 50.0345 2.91016 51.1191 2.91016C52.2038 2.91016 53.0332 3.2679 53.6074 3.9834C54.1816 4.69434 54.4756 5.71745 54.4893 7.05273V8.88477ZM52.5137 6.875C52.5137 6.05013 52.3997 5.45085 52.1719 5.07715C51.9486 4.69889 51.5977 4.50977 51.1191 4.50977C50.6543 4.50977 50.3102 4.68978 50.0869 5.0498C49.8682 5.40527 49.752 5.96354 49.7383 6.72461V9.14453C49.7383 9.95573 49.8477 10.5596 50.0664 10.9561C50.2897 11.348 50.6452 11.5439 51.1328 11.5439C51.6159 11.5439 51.9645 11.3548 52.1787 10.9766C52.3929 10.5983 52.5046 10.0195 52.5137 9.24023V6.875ZM62.5283 8.88477C62.5283 10.2611 62.2435 11.3138 61.6738 12.043C61.1042 12.7721 60.2702 13.1367 59.1719 13.1367C58.0872 13.1367 57.2578 12.779 56.6836 12.0635C56.1094 11.348 55.8154 10.3226 55.8018 8.9873V7.15527C55.8018 5.7653 56.0889 4.71029 56.6631 3.99023C57.2419 3.27018 58.0736 2.91016 59.1582 2.91016C60.2428 2.91016 61.0723 3.2679 61.6465 3.9834C62.2207 4.69434 62.5146 5.71745 62.5283 7.05273V8.88477ZM60.5527 6.875C60.5527 6.05013 60.4388 5.45085 60.2109 5.07715C59.9876 4.69889 59.6367 4.50977 59.1582 4.50977C58.6934 4.50977 58.3493 4.68978 58.126 5.0498C57.9072 5.40527 57.791 5.96354 57.7773 6.72461V9.14453C57.7773 9.95573 57.8867 10.5596 58.1055 10.9561C58.3288 11.348 58.6842 11.5439 59.1719 11.5439C59.6549 11.5439 60.0036 11.3548 60.2178 10.9766C60.432 10.5983 60.5436 10.0195 60.5527 9.24023V6.875Z" transform="translate(0 54)" fill="black"/>
<path d="M8.98438 8.375H7C7.91146 9.11458 8.36719 10.0495 8.36719 11.1797C8.36719 12.3672 8.01562 13.3281 7.3125 14.0625C6.60938 14.7917 5.67448 15.1562 4.50781 15.1562C3.29948 15.1562 2.33073 14.7682 1.60156 13.9922C0.877604 13.2161 0.515625 12.151 0.515625 10.7969V10.6953C0.515625 9.45052 0.872396 8.44792 1.58594 7.6875C2.30469 6.92708 3.28385 6.54688 4.52344 6.54688H8.98438V8.375ZM2.77344 10.8594C2.77344 11.6719 2.92188 12.2891 3.21875 12.7109C3.52083 13.1328 3.95052 13.3438 4.50781 13.3438C5.01823 13.3438 5.41146 13.1328 5.6875 12.7109C5.96875 12.2891 6.10938 11.6172 6.10938 10.6953C6.10938 9.95573 5.96875 9.38542 5.6875 8.98438C5.40625 8.57812 5.00781 8.375 4.49219 8.375C3.95052 8.375 3.52865 8.57292 3.22656 8.96875C2.92448 9.36458 2.77344 9.99479 2.77344 10.8594Z" transform="translate(168 27)" fill="black"/>
<path d="M8.98438 8.375H7C7.91146 9.11458 8.36719 10.0495 8.36719 11.1797C8.36719 12.3672 8.01562 13.3281 7.3125 14.0625C6.60938 14.7917 5.67448 15.1562 4.50781 15.1562C3.29948 15.1562 2.33073 14.7682 1.60156 13.9922C0.877604 13.2161 0.515625 12.151 0.515625 10.7969V10.6953C0.515625 9.45052 0.872396 8.44792 1.58594 7.6875C2.30469 6.92708 3.28385 6.54688 4.52344 6.54688H8.98438V8.375ZM2.77344 10.8594C2.77344 11.6719 2.92188 12.2891 3.21875 12.7109C3.52083 13.1328 3.95052 13.3438 4.50781 13.3438C5.01823 13.3438 5.41146 13.1328 5.6875 12.7109C5.96875 12.2891 6.10938 11.6172 6.10938 10.6953C6.10938 9.95573 5.96875 9.38542 5.6875 8.98438C5.40625 8.57812 5.00781 8.375 4.49219 8.375C3.95052 8.375 3.52865 8.57292 3.22656 8.96875C2.92448 9.36458 2.77344 9.99479 2.77344 10.8594Z" transform="translate(138 27)" fill="black"/>
<path d="M33.3536 0.353553C33.5488 0.158291 33.5488 -0.158291 33.3536 -0.353553L30.1716 -3.53553C29.9763 -3.7308 29.6597 -3.7308 29.4645 -3.53553C29.2692 -3.34027 29.2692 -3.02369 29.4645 -2.82843L32.2929 0L29.4645 2.82843C29.2692 3.02369 29.2692 3.34027 29.4645 3.53553C29.6597 3.7308 29.9763 3.7308 30.1716 3.53553L33.3536 0.353553ZM0 0.5H33V-0.5H0V0.5Z" transform="translate(157 44) rotate(180)" fill="black"/>
<path d="M2.81201 10.521H6.16992V12H0.469727V10.8828L3.70068 6.61719H0.564941V5.13184H6.06836V6.21729L2.81201 10.521ZM10.8862 8.78174H7.3125V7.30273H10.8862V8.78174ZM16.0786 10.1021C16.0786 9.87777 15.9665 9.70215 15.7422 9.5752C15.5221 9.44401 15.1667 9.32764 14.6758 9.22607C13.0423 8.8833 12.2256 8.18929 12.2256 7.14404C12.2256 6.53467 12.4774 6.02686 12.981 5.62061C13.4888 5.21012 14.151 5.00488 14.9678 5.00488C15.8395 5.00488 16.5356 5.21012 17.0562 5.62061C17.5809 6.03109 17.8433 6.56429 17.8433 7.22021H16.0088C16.0088 6.95785 15.9242 6.74202 15.7549 6.57275C15.5856 6.39925 15.3211 6.3125 14.9614 6.3125C14.6525 6.3125 14.4134 6.38232 14.2441 6.52197C14.0749 6.66162 13.9902 6.83936 13.9902 7.05518C13.9902 7.2583 14.0854 7.42334 14.2759 7.55029C14.4705 7.67301 14.7964 7.78092 15.2534 7.87402C15.7104 7.96289 16.0955 8.06445 16.4087 8.17871C17.3778 8.53418 17.8623 9.1499 17.8623 10.0259C17.8623 10.6522 17.5936 11.16 17.0562 11.5493C16.5187 11.9344 15.8247 12.127 14.9741 12.127C14.3986 12.127 13.8866 12.0254 13.438 11.8223C12.9937 11.6149 12.6445 11.3335 12.3906 10.978C12.1367 10.6183 12.0098 10.2311 12.0098 9.81641H13.749C13.766 10.1423 13.8866 10.3919 14.1108 10.5654C14.3351 10.7389 14.6356 10.8257 15.0122 10.8257C15.3634 10.8257 15.6279 10.7601 15.8057 10.6289C15.9876 10.4935 16.0786 10.3179 16.0786 10.1021ZM21.9058 10.6479C22.2443 10.6479 22.5194 10.5549 22.731 10.3687C22.9425 10.1825 23.0526 9.9349 23.061 9.62598H24.7812C24.777 10.0915 24.6501 10.5189 24.4004 10.9082C24.1507 11.2933 23.8079 11.5938 23.3721 11.8096C22.9404 12.0212 22.4622 12.127 21.9375 12.127C20.9557 12.127 20.1813 11.8159 19.6143 11.1938C19.0472 10.5675 18.7637 9.70426 18.7637 8.604V8.4834C18.7637 7.42546 19.0451 6.58122 19.6079 5.95068C20.1707 5.32015 20.943 5.00488 21.9248 5.00488C22.7839 5.00488 23.4715 5.25033 23.9878 5.74121C24.5083 6.22786 24.7728 6.87744 24.7812 7.68994H23.061C23.0526 7.33447 22.9425 7.04671 22.731 6.82666C22.5194 6.60238 22.2401 6.49023 21.8931 6.49023C21.4657 6.49023 21.1419 6.64681 20.9219 6.95996C20.7061 7.26888 20.5981 7.77246 20.5981 8.4707V8.66113C20.5981 9.36784 20.7061 9.87565 20.9219 10.1846C21.1377 10.4935 21.4657 10.6479 21.9058 10.6479ZM25.543 8.50244C25.543 7.82113 25.6742 7.21387 25.9365 6.68066C26.1989 6.14746 26.5755 5.73486 27.0664 5.44287C27.5615 5.15088 28.1349 5.00488 28.7866 5.00488C29.7134 5.00488 30.4688 5.28841 31.0527 5.85547C31.641 6.42253 31.9689 7.19271 32.0366 8.16602L32.0493 8.63574C32.0493 9.68945 31.7552 10.5358 31.167 11.1748C30.5788 11.8096 29.7896 12.127 28.7993 12.127C27.8091 12.127 27.0177 11.8096 26.4253 11.1748C25.8371 10.54 25.543 9.67676 25.543 8.58496V8.50244ZM27.3774 8.63574C27.3774 9.28743 27.5002 9.78678 27.7456 10.1338C27.991 10.4766 28.3423 10.6479 28.7993 10.6479C29.2437 10.6479 29.5907 10.4787 29.8403 10.1401C30.09 9.79736 30.2148 9.25146 30.2148 8.50244C30.2148 7.86344 30.09 7.36833 29.8403 7.01709C29.5907 6.66585 29.2394 6.49023 28.7866 6.49023C28.3381 6.49023 27.991 6.66585 27.7456 7.01709C27.5002 7.3641 27.3774 7.90365 27.3774 8.63574ZM37.0386 6.85205C36.7889 6.8182 36.5688 6.80127 36.3784 6.80127C35.6844 6.80127 35.2295 7.03613 35.0137 7.50586V12H33.1792V5.13184H34.9121L34.9629 5.95068C35.3311 5.32015 35.841 5.00488 36.4927 5.00488C36.6958 5.00488 36.8862 5.03239 37.064 5.0874L37.0386 6.85205ZM40.9614 12.127C39.9543 12.127 39.1333 11.818 38.4985 11.2002C37.868 10.5824 37.5527 9.75928 37.5527 8.73096V8.55322C37.5527 7.86344 37.686 7.24772 37.9526 6.70605C38.2192 6.16016 38.5959 5.74121 39.0825 5.44922C39.5734 5.15299 40.132 5.00488 40.7583 5.00488C41.6978 5.00488 42.4362 5.30111 42.9736 5.89355C43.5153 6.486 43.7861 7.32601 43.7861 8.41357V9.1626H39.4126C39.4718 9.61117 39.6496 9.97087 39.9458 10.2417C40.2463 10.5125 40.625 10.6479 41.082 10.6479C41.7887 10.6479 42.341 10.3919 42.7388 9.87988L43.6401 10.8892C43.3651 11.2785 42.9927 11.5832 42.5229 11.8032C42.0532 12.019 41.5327 12.127 40.9614 12.127ZM40.752 6.49023C40.388 6.49023 40.0918 6.61296 39.8633 6.8584C39.639 7.10384 39.4951 7.45508 39.4316 7.91211H41.9834V7.76611C41.9749 7.35986 41.8649 7.04671 41.6533 6.82666C41.4417 6.60238 41.1413 6.49023 40.752 6.49023ZM48.5532 10.1021C48.5532 9.87777 48.4411 9.70215 48.2168 9.5752C47.9967 9.44401 47.6413 9.32764 47.1504 9.22607C45.5169 8.8833 44.7002 8.18929 44.7002 7.14404C44.7002 6.53467 44.952 6.02686 45.4556 5.62061C45.9634 5.21012 46.6257 5.00488 47.4424 5.00488C48.3141 5.00488 49.0103 5.21012 49.5308 5.62061C50.0555 6.03109 50.3179 6.56429 50.3179 7.22021H48.4834C48.4834 6.95785 48.3988 6.74202 48.2295 6.57275C48.0602 6.39925 47.7957 6.3125 47.436 6.3125C47.1271 6.3125 46.888 6.38232 46.7188 6.52197C46.5495 6.66162 46.4648 6.83936 46.4648 7.05518C46.4648 7.2583 46.5601 7.42334 46.7505 7.55029C46.9451 7.67301 47.271 7.78092 47.728 7.87402C48.1851 7.96289 48.5701 8.06445 48.8833 8.17871C49.8524 8.53418 50.3369 9.1499 50.3369 10.0259C50.3369 10.6522 50.0682 11.16 49.5308 11.5493C48.9933 11.9344 48.2993 12.127 47.4487 12.127C46.8732 12.127 46.3612 12.0254 45.9126 11.8223C45.4683 11.6149 45.1191 11.3335 44.8652 10.978C44.6113 10.6183 44.4844 10.2311 44.4844 9.81641H46.2236C46.2406 10.1423 46.3612 10.3919 46.5854 10.5654C46.8097 10.7389 47.1102 10.8257 47.4868 10.8257C47.8381 10.8257 48.1025 10.7601 48.2803 10.6289C48.4622 10.4935 48.5532 10.3179 48.5532 10.1021Z" transform="translate(289 204)" fill="black"/>
<path d="M6.88721 8.62939C6.88721 9.68734 6.646 10.5358 6.16357 11.1748C5.68538 11.8096 5.03792 12.127 4.22119 12.127C3.52718 12.127 2.96647 11.8857 2.53906 11.4033V14.6406H0.70459V5.13184H2.40576L2.46924 5.80469C2.91357 5.27148 3.49333 5.00488 4.2085 5.00488C5.05485 5.00488 5.71289 5.31803 6.18262 5.94434C6.65234 6.57064 6.88721 7.43392 6.88721 8.53418V8.62939ZM5.05273 8.49609C5.05273 7.8571 4.93848 7.3641 4.70996 7.01709C4.48568 6.67008 4.15771 6.49658 3.72607 6.49658C3.15055 6.49658 2.75488 6.71663 2.53906 7.15674V9.96875C2.76335 10.4215 3.16325 10.6479 3.73877 10.6479C4.61475 10.6479 5.05273 9.93066 5.05273 8.49609ZM11.8892 6.85205C11.6395 6.8182 11.4194 6.80127 11.229 6.80127C10.535 6.80127 10.0801 7.03613 9.86426 7.50586V12H8.02979V5.13184H9.7627L9.81348 5.95068C10.1816 5.32015 10.6916 5.00488 11.3433 5.00488C11.5464 5.00488 11.7368 5.03239 11.9146 5.0874L11.8892 6.85205ZM14.7139 12H12.873V5.13184H14.7139V12ZM12.7651 3.35449C12.7651 3.07943 12.8561 2.85303 13.0381 2.67529C13.2243 2.49756 13.4761 2.40869 13.7935 2.40869C14.1066 2.40869 14.3563 2.49756 14.5425 2.67529C14.7287 2.85303 14.8218 3.07943 14.8218 3.35449C14.8218 3.63379 14.7266 3.8623 14.5361 4.04004C14.3499 4.21777 14.1024 4.30664 13.7935 4.30664C13.4845 4.30664 13.2349 4.21777 13.0444 4.04004C12.8582 3.8623 12.7651 3.63379 12.7651 3.35449ZM19.0874 10.6479C19.4259 10.6479 19.701 10.5549 19.9126 10.3687C20.1242 10.1825 20.2342 9.9349 20.2427 9.62598H21.9629C21.9587 10.0915 21.8317 10.5189 21.582 10.9082C21.3324 11.2933 20.9896 11.5938 20.5537 11.8096C20.1221 12.0212 19.6439 12.127 19.1191 12.127C18.1374 12.127 17.363 11.8159 16.7959 11.1938C16.2288 10.5675 15.9453 9.70426 15.9453 8.604V8.4834C15.9453 7.42546 16.2267 6.58122 16.7896 5.95068C17.3524 5.32015 18.1247 5.00488 19.1064 5.00488C19.9655 5.00488 20.6532 5.25033 21.1694 5.74121C21.6899 6.22786 21.9544 6.87744 21.9629 7.68994H20.2427C20.2342 7.33447 20.1242 7.04671 19.9126 6.82666C19.701 6.60238 19.4217 6.49023 19.0747 6.49023C18.6473 6.49023 18.3236 6.64681 18.1035 6.95996C17.8877 7.26888 17.7798 7.77246 17.7798 8.4707V8.66113C17.7798 9.36784 17.8877 9.87565 18.1035 10.1846C18.3193 10.4935 18.6473 10.6479 19.0874 10.6479ZM26.1714 12.127C25.1642 12.127 24.3433 11.818 23.7085 11.2002C23.078 10.5824 22.7627 9.75928 22.7627 8.73096V8.55322C22.7627 7.86344 22.896 7.24772 23.1626 6.70605C23.4292 6.16016 23.8058 5.74121 24.2925 5.44922C24.7834 5.15299 25.342 5.00488 25.9683 5.00488C26.9077 5.00488 27.6462 5.30111 28.1836 5.89355C28.7253 6.486 28.9961 7.32601 28.9961 8.41357V9.1626H24.6226C24.6818 9.61117 24.8595 9.97087 25.1558 10.2417C25.4562 10.5125 25.835 10.6479 26.292 10.6479C26.9987 10.6479 27.5509 10.3919 27.9487 9.87988L28.8501 10.8892C28.575 11.2785 28.2026 11.5832 27.7329 11.8032C27.2632 12.019 26.7427 12.127 26.1714 12.127ZM25.9619 6.49023C25.598 6.49023 25.3018 6.61296 25.0732 6.8584C24.849 7.10384 24.7051 7.45508 24.6416 7.91211H27.1934V7.76611C27.1849 7.35986 27.0749 7.04671 26.8633 6.82666C26.6517 6.60238 26.3512 6.49023 25.9619 6.49023ZM33.7632 10.1021C33.7632 9.87777 33.651 9.70215 33.4268 9.5752C33.2067 9.44401 32.8512 9.32764 32.3604 9.22607C30.7269 8.8833 29.9102 8.18929 29.9102 7.14404C29.9102 6.53467 30.1619 6.02686 30.6655 5.62061C31.1733 5.21012 31.8356 5.00488 32.6523 5.00488C33.5241 5.00488 34.2202 5.21012 34.7407 5.62061C35.2655 6.03109 35.5278 6.56429 35.5278 7.22021H33.6934C33.6934 6.95785 33.6087 6.74202 33.4395 6.57275C33.2702 6.39925 33.0057 6.3125 32.646 6.3125C32.3371 6.3125 32.098 6.38232 31.9287 6.52197C31.7594 6.66162 31.6748 6.83936 31.6748 7.05518C31.6748 7.2583 31.77 7.42334 31.9604 7.55029C32.1551 7.67301 32.481 7.78092 32.938 7.87402C33.395 7.96289 33.7801 8.06445 34.0933 8.17871C35.0623 8.53418 35.5469 9.1499 35.5469 10.0259C35.5469 10.6522 35.2782 11.16 34.7407 11.5493C34.2033 11.9344 33.5093 12.127 32.6587 12.127C32.0832 12.127 31.5711 12.0254 31.1226 11.8223C30.6782 11.6149 30.3291 11.3335 30.0752 10.978C29.8213 10.6183 29.6943 10.2311 29.6943 9.81641H31.4336C31.4505 10.1423 31.5711 10.3919 31.7954 10.5654C32.0197 10.7389 32.3201 10.8257 32.6968 10.8257C33.048 10.8257 33.3125 10.7601 33.4902 10.6289C33.6722 10.4935 33.7632 10.3179 33.7632 10.1021Z" transform="translate(296 162)" fill="black"/>
<path d="M7.40625 6.54688V11.4141C7.40625 12.0703 7.51042 12.5547 7.71875 12.8672C7.93229 13.1745 8.29688 13.3281 8.8125 13.3281C9.58854 13.3281 10.1224 13.0547 10.4141 12.5078V6.54688H12.6719V15H10.5703L10.5234 14.4688C10.0599 14.9323 9.47396 15.1641 8.76562 15.1641C8.23438 15.1641 7.78125 15.0469 7.40625 14.8125V18.25H5.14844V6.54688H7.40625Z" transform="translate(150 -6)" fill="black"/>
</svg>
