<svg width="400" height="168" viewBox="0 0 400 168" fill="none" xmlns="http://www.w3.org/2000/svg">
<rect width="400" height="168" fill="white"/>
<rect x="113.5" y="30.5" width="174" height="125" stroke="black"/>
<path d="M191.897 12.6035L191.959 13.4307C192.483 12.7881 193.192 12.4668 194.085 12.4668C195.037 12.4668 195.691 12.8428 196.047 13.5947C196.566 12.8428 197.307 12.4668 198.269 12.4668C199.071 12.4668 199.668 12.7015 200.06 13.1709C200.451 13.6357 200.647 14.3376 200.647 15.2764V20H198.665V15.2832C198.665 14.8639 198.583 14.5586 198.419 14.3672C198.255 14.1712 197.965 14.0732 197.551 14.0732C196.958 14.0732 196.548 14.3558 196.32 14.9209L196.327 20H194.352V15.29C194.352 14.8617 194.267 14.5518 194.099 14.3604C193.93 14.1689 193.643 14.0732 193.237 14.0732C192.677 14.0732 192.271 14.3057 192.021 14.7705V20H190.045V12.6035H191.897ZM205.248 18.5439C205.613 18.5439 205.909 18.4437 206.137 18.2432C206.365 18.0426 206.483 17.776 206.492 17.4434H208.345C208.34 17.9447 208.203 18.4049 207.935 18.8242C207.666 19.2389 207.297 19.5625 206.827 19.7949C206.362 20.0228 205.847 20.1367 205.282 20.1367C204.225 20.1367 203.391 19.8018 202.78 19.1318C202.17 18.4574 201.864 17.5277 201.864 16.3428V16.2129C201.864 15.0736 202.167 14.1644 202.773 13.4854C203.38 12.8063 204.211 12.4668 205.269 12.4668C206.194 12.4668 206.934 12.7311 207.49 13.2598C208.051 13.7839 208.336 14.4834 208.345 15.3584H206.492C206.483 14.9756 206.365 14.6657 206.137 14.4287C205.909 14.1872 205.608 14.0664 205.234 14.0664C204.774 14.0664 204.425 14.235 204.188 14.5723C203.956 14.9049 203.84 15.4473 203.84 16.1992V16.4043C203.84 17.1654 203.956 17.7122 204.188 18.0449C204.421 18.3776 204.774 18.5439 205.248 18.5439Z" fill="black"/>
<path d="M170.1 62.3838C170.1 63.5094 169.842 64.4163 169.327 65.1045C168.812 65.7926 168.115 66.1367 167.235 66.1367C166.338 66.1367 165.631 65.8519 165.116 65.2822V68.8438H163.852V58.6035H165.007L165.068 59.4238C165.583 58.7858 166.299 58.4668 167.215 58.4668C168.104 58.4668 168.805 58.8018 169.32 59.4717C169.84 60.1416 170.1 61.0736 170.1 62.2676V62.3838ZM168.835 62.2402C168.835 61.4062 168.657 60.7477 168.302 60.2646C167.946 59.7816 167.459 59.54 166.839 59.54C166.073 59.54 165.499 59.8796 165.116 60.5586V64.0928C165.494 64.7673 166.073 65.1045 166.853 65.1045C167.459 65.1045 167.939 64.8652 168.295 64.3867C168.655 63.9036 168.835 63.1882 168.835 62.2402ZM175.288 59.7383C175.097 59.7064 174.889 59.6904 174.666 59.6904C173.837 59.6904 173.274 60.0436 172.978 60.75V66H171.713V58.6035H172.943L172.964 59.458C173.379 58.7972 173.966 58.4668 174.728 58.4668C174.974 58.4668 175.16 58.4987 175.288 58.5625V59.7383ZM177.831 66H176.566V58.6035H177.831V66ZM176.464 56.6416C176.464 56.4365 176.525 56.2633 176.648 56.1221C176.776 55.9808 176.963 55.9102 177.209 55.9102C177.455 55.9102 177.642 55.9808 177.77 56.1221C177.897 56.2633 177.961 56.4365 177.961 56.6416C177.961 56.8467 177.897 57.0176 177.77 57.1543C177.642 57.291 177.455 57.3594 177.209 57.3594C176.963 57.3594 176.776 57.291 176.648 57.1543C176.525 57.0176 176.464 56.8467 176.464 56.6416ZM181.058 58.6035L181.099 59.5332C181.664 58.8223 182.402 58.4668 183.313 58.4668C184.877 58.4668 185.665 59.3486 185.679 61.1123V66H184.414V61.1055C184.41 60.5723 184.286 60.1781 184.045 59.9229C183.808 59.6676 183.437 59.54 182.931 59.54C182.521 59.54 182.16 59.6494 181.851 59.8682C181.541 60.0869 181.299 60.374 181.126 60.7295V66H179.861V58.6035H181.058ZM189.302 56.8125V58.6035H190.683V59.5811H189.302V64.168C189.302 64.4642 189.363 64.6875 189.486 64.8379C189.609 64.9837 189.819 65.0566 190.115 65.0566C190.261 65.0566 190.462 65.0293 190.717 64.9746V66C190.384 66.0911 190.061 66.1367 189.746 66.1367C189.181 66.1367 188.755 65.9658 188.468 65.624C188.181 65.2822 188.037 64.7969 188.037 64.168V59.5811H186.69V58.6035H188.037V56.8125H189.302ZM197.498 67.0322H191.236V66H197.498V67.0322ZM199.747 59.499C200.308 58.8109 201.037 58.4668 201.935 58.4668C203.498 58.4668 204.286 59.3486 204.3 61.1123V66H203.035V61.1055C203.031 60.5723 202.908 60.1781 202.666 59.9229C202.429 59.6676 202.058 59.54 201.552 59.54C201.142 59.54 200.782 59.6494 200.472 59.8682C200.162 60.0869 199.92 60.374 199.747 60.7295V66H198.482V55.5H199.747V59.499ZM209.263 66.1367C208.26 66.1367 207.444 65.8086 206.815 65.1523C206.187 64.4915 205.872 63.6097 205.872 62.5068V62.2744C205.872 61.5407 206.011 60.8867 206.289 60.3125C206.572 59.7337 206.964 59.2826 207.465 58.959C207.971 58.6309 208.518 58.4668 209.105 58.4668C210.067 58.4668 210.814 58.7835 211.348 59.417C211.881 60.0505 212.147 60.9574 212.147 62.1377V62.6641H207.137C207.155 63.3932 207.367 63.9834 207.772 64.4346C208.183 64.8812 208.702 65.1045 209.331 65.1045C209.778 65.1045 210.156 65.0133 210.466 64.8311C210.776 64.6488 211.047 64.4072 211.279 64.1064L212.052 64.708C211.432 65.6605 210.502 66.1367 209.263 66.1367ZM209.105 59.5059C208.595 59.5059 208.167 59.6927 207.82 60.0664C207.474 60.4355 207.26 60.9551 207.178 61.625H210.883V61.5293C210.846 60.8867 210.673 60.39 210.363 60.0391C210.053 59.6836 209.634 59.5059 209.105 59.5059ZM214.991 66H213.727V55.5H214.991V66ZM218.396 66H217.131V55.5H218.396V66ZM220.091 62.2334C220.091 61.5088 220.232 60.8571 220.515 60.2783C220.802 59.6995 221.198 59.2529 221.704 58.9385C222.215 58.624 222.796 58.4668 223.447 58.4668C224.454 58.4668 225.268 58.8154 225.888 59.5127C226.512 60.21 226.824 61.1374 226.824 62.2949V62.3838C226.824 63.1038 226.685 63.751 226.407 64.3252C226.134 64.8949 225.74 65.3392 225.225 65.6582C224.714 65.9772 224.126 66.1367 223.461 66.1367C222.458 66.1367 221.645 65.7881 221.021 65.0908C220.401 64.3936 220.091 63.4707 220.091 62.3223V62.2334ZM221.362 62.3838C221.362 63.2041 221.551 63.8626 221.93 64.3594C222.312 64.8561 222.823 65.1045 223.461 65.1045C224.104 65.1045 224.614 64.8538 224.992 64.3525C225.37 63.8467 225.56 63.1403 225.56 62.2334C225.56 61.4222 225.366 60.766 224.979 60.2646C224.596 59.7588 224.085 59.5059 223.447 59.5059C222.823 59.5059 222.319 59.7542 221.937 60.251C221.554 60.7477 221.362 61.4587 221.362 62.3838ZM228.362 61.96C228.362 60.93 228.499 59.9411 228.772 58.9932C229.05 58.0452 229.463 57.1839 230.01 56.4092C230.557 55.6344 231.124 55.0876 231.712 54.7686L231.972 55.6025C231.306 56.113 230.759 56.8923 230.331 57.9404C229.907 58.9886 229.675 60.1621 229.634 61.4609L229.627 62.042C229.627 63.8011 229.948 65.3278 230.591 66.6221C230.978 67.3968 231.438 68.0029 231.972 68.4404L231.712 69.2129C231.106 68.8757 230.527 68.3105 229.976 67.5176C228.9 65.9681 228.362 64.1156 228.362 61.96ZM236.114 62.0283C236.114 63.0446 235.98 64.0199 235.711 64.9541C235.447 65.8838 235.039 66.7428 234.487 67.5312C233.94 68.3197 233.366 68.8802 232.765 69.2129L232.498 68.4404C233.2 67.9027 233.763 67.0687 234.187 65.9385C234.615 64.8037 234.834 63.5459 234.843 62.165V61.9463C234.843 60.9893 234.743 60.1006 234.542 59.2803C234.341 58.4554 234.061 57.7171 233.701 57.0654C233.346 56.4137 232.945 55.9056 232.498 55.541L232.765 54.7686C233.366 55.1012 233.938 55.6572 234.48 56.4365C235.027 57.2158 235.435 58.0749 235.704 59.0137C235.978 59.9525 236.114 60.9574 236.114 62.0283Z" fill="black"/>
<path d="M141 74H259V141H141V74Z" fill="#F1F4F8"/>
<path d="M150.376 102.48V104.328H148.984V96.108H150.124L150.232 96.78H150.268C150.524 96.548 150.816 96.356 151.144 96.204C151.48 96.044 151.816 95.964 152.152 95.964C152.536 95.964 152.876 96.036 153.172 96.18C153.476 96.316 153.728 96.516 153.928 96.78C154.136 97.044 154.292 97.36 154.396 97.728C154.508 98.096 154.564 98.508 154.564 98.964C154.564 99.468 154.492 99.92 154.348 100.32C154.204 100.712 154.008 101.044 153.76 101.316C153.52 101.58 153.24 101.784 152.92 101.928C152.608 102.072 152.284 102.144 151.948 102.144C151.676 102.144 151.396 102.084 151.108 101.964C150.828 101.844 150.568 101.672 150.328 101.448L150.376 102.48ZM150.376 100.464C150.592 100.664 150.812 100.804 151.036 100.884C151.268 100.964 151.476 101.004 151.66 101.004C152.084 101.004 152.436 100.836 152.716 100.5C152.996 100.156 153.136 99.648 153.136 98.976C153.136 98.384 153.028 97.924 152.812 97.596C152.596 97.268 152.248 97.104 151.768 97.104C151.544 97.104 151.316 97.16 151.084 97.272C150.852 97.384 150.616 97.564 150.376 97.812V100.464ZM156.755 96.108H157.895L158.015 97.44H158.051C158.355 96.96 158.719 96.596 159.143 96.348C159.575 96.092 160.047 95.964 160.559 95.964C160.799 95.964 161.003 95.984 161.171 96.024C161.347 96.056 161.523 96.116 161.699 96.204L161.411 97.368C161.219 97.304 161.047 97.26 160.895 97.236C160.751 97.204 160.567 97.188 160.343 97.188C159.935 97.188 159.543 97.304 159.167 97.536C158.791 97.768 158.451 98.172 158.147 98.748V102H156.755V96.108ZM163.399 96.108H167.335V102H165.955V97.2H163.399V96.108ZM166.543 95.076C166.263 95.076 166.027 94.992 165.835 94.824C165.651 94.656 165.559 94.432 165.559 94.152C165.559 93.872 165.651 93.648 165.835 93.48C166.027 93.304 166.263 93.216 166.543 93.216C166.831 93.216 167.067 93.304 167.251 93.48C167.435 93.648 167.527 93.872 167.527 94.152C167.527 94.432 167.435 94.656 167.251 94.824C167.067 94.992 166.831 95.076 166.543 95.076ZM170.57 96.108H171.71L171.818 96.996H171.866C172.146 96.716 172.454 96.476 172.79 96.276C173.134 96.068 173.534 95.964 173.99 95.964C174.67 95.964 175.17 96.172 175.49 96.588C175.81 96.996 175.97 97.584 175.97 98.352V102H174.578V98.532C174.578 98.052 174.494 97.704 174.326 97.488C174.166 97.264 173.882 97.152 173.474 97.152C173.186 97.152 172.93 97.22 172.706 97.356C172.482 97.492 172.234 97.7 171.962 97.98V102H170.57V96.108ZM179.061 97.2H177.489V96.168L179.121 96.108L179.301 94.5H180.441V96.108H183.129V97.2H180.441V99.624C180.441 100.112 180.541 100.472 180.741 100.704C180.941 100.928 181.293 101.04 181.797 101.04C182.053 101.04 182.285 101.02 182.493 100.98C182.701 100.932 182.901 100.872 183.093 100.8L183.357 101.808C183.093 101.896 182.801 101.972 182.481 102.036C182.161 102.108 181.821 102.144 181.461 102.144C181.013 102.144 180.637 102.084 180.333 101.964C180.029 101.844 179.781 101.676 179.589 101.46C179.405 101.236 179.269 100.968 179.181 100.656C179.101 100.344 179.061 100 179.061 99.624V97.2ZM188.921 104.124C188.113 103.452 187.473 102.66 187.001 101.748C186.537 100.836 186.305 99.808 186.305 98.664C186.305 97.52 186.537 96.492 187.001 95.58C187.473 94.668 188.113 93.876 188.921 93.204L189.689 93.84C188.929 94.528 188.373 95.26 188.021 96.036C187.669 96.812 187.493 97.688 187.493 98.664C187.493 99.64 187.669 100.516 188.021 101.292C188.373 102.068 188.929 102.8 189.689 103.488L188.921 104.124ZM243.027 103.488C243.787 102.8 244.343 102.068 244.695 101.292C245.047 100.516 245.223 99.64 245.223 98.664C245.223 97.688 245.047 96.812 244.695 96.036C244.343 95.26 243.787 94.528 243.027 93.84L243.795 93.204C244.603 93.876 245.239 94.668 245.703 95.58C246.175 96.492 246.411 97.52 246.411 98.664C246.411 99.808 246.175 100.836 245.703 101.748C245.239 102.66 244.603 103.452 243.795 104.124L243.027 103.488Z" fill="#2E383C"/>
<path d="M192.492 95.304L192.456 93.768H194.136L194.1 95.304L193.74 98.076H192.852L192.492 95.304ZM195.456 95.304L195.42 93.768H197.1L197.064 95.304L196.704 98.076H195.816L195.456 95.304ZM199.351 93.528H200.743V95.712L200.659 96.972C200.931 96.7 201.235 96.464 201.571 96.264C201.915 96.064 202.315 95.964 202.771 95.964C203.451 95.964 203.951 96.172 204.271 96.588C204.591 96.996 204.751 97.584 204.751 98.352V102H203.359V98.532C203.359 98.052 203.275 97.704 203.107 97.488C202.947 97.264 202.663 97.152 202.255 97.152C201.967 97.152 201.711 97.22 201.487 97.356C201.263 97.492 201.015 97.7 200.743 97.98V102H199.351V93.528ZM206.307 99.06C206.307 98.58 206.391 98.148 206.559 97.764C206.735 97.38 206.963 97.056 207.243 96.792C207.523 96.52 207.843 96.316 208.203 96.18C208.571 96.036 208.947 95.964 209.331 95.964C209.771 95.964 210.159 96.036 210.495 96.18C210.839 96.316 211.127 96.508 211.359 96.756C211.591 96.996 211.767 97.288 211.887 97.632C212.007 97.976 212.067 98.352 212.067 98.76C212.067 98.896 212.059 99.024 212.043 99.144C212.035 99.264 212.023 99.36 212.007 99.432H207.723C207.771 99.96 207.979 100.368 208.347 100.656C208.715 100.936 209.167 101.076 209.703 101.076C210.007 101.076 210.291 101.036 210.555 100.956C210.819 100.868 211.087 100.748 211.359 100.596L211.827 101.46C211.507 101.66 211.151 101.824 210.759 101.952C210.367 102.08 209.955 102.144 209.523 102.144C209.075 102.144 208.655 102.076 208.263 101.94C207.871 101.796 207.531 101.592 207.243 101.328C206.955 101.064 206.727 100.744 206.559 100.368C206.391 99.984 206.307 99.548 206.307 99.06ZM210.795 98.496C210.795 98.04 210.675 97.684 210.435 97.428C210.195 97.164 209.839 97.032 209.367 97.032C208.967 97.032 208.611 97.156 208.299 97.404C207.987 97.652 207.791 98.016 207.711 98.496H210.795ZM213.61 93.528H216.85V99.924C216.85 100.324 216.95 100.608 217.15 100.776C217.35 100.936 217.602 101.016 217.906 101.016C218.194 101.016 218.53 100.94 218.914 100.788L219.238 101.808C218.958 101.904 218.694 101.984 218.446 102.048C218.206 102.112 217.914 102.144 217.57 102.144C216.874 102.144 216.35 101.944 215.998 101.544C215.646 101.144 215.47 100.58 215.47 99.852V94.62H213.61V93.528ZM220.805 93.528H224.045V99.924C224.045 100.324 224.145 100.608 224.345 100.776C224.545 100.936 224.797 101.016 225.101 101.016C225.389 101.016 225.725 100.94 226.109 100.788L226.433 101.808C226.153 101.904 225.889 101.984 225.641 102.048C225.401 102.112 225.109 102.144 224.765 102.144C224.069 102.144 223.545 101.944 223.193 101.544C222.841 101.144 222.665 100.58 222.665 99.852V94.62H220.805V93.528ZM227.784 99.06C227.784 98.572 227.864 98.136 228.024 97.752C228.192 97.368 228.412 97.044 228.684 96.78C228.956 96.516 229.272 96.316 229.632 96.18C229.992 96.036 230.364 95.964 230.748 95.964C231.132 95.964 231.504 96.036 231.864 96.18C232.224 96.316 232.54 96.516 232.812 96.78C233.084 97.044 233.3 97.368 233.46 97.752C233.628 98.136 233.712 98.572 233.712 99.06C233.712 99.548 233.628 99.984 233.46 100.368C233.3 100.752 233.084 101.076 232.812 101.34C232.54 101.604 232.224 101.804 231.864 101.94C231.504 102.076 231.132 102.144 230.748 102.144C230.364 102.144 229.992 102.076 229.632 101.94C229.272 101.804 228.956 101.604 228.684 101.34C228.412 101.076 228.192 100.752 228.024 100.368C227.864 99.984 227.784 99.548 227.784 99.06ZM229.212 99.06C229.212 99.652 229.348 100.128 229.62 100.488C229.892 100.84 230.268 101.016 230.748 101.016C231.228 101.016 231.604 100.84 231.876 100.488C232.148 100.128 232.284 99.652 232.284 99.06C232.284 98.46 232.148 97.984 231.876 97.632C231.604 97.272 231.228 97.092 230.748 97.092C230.268 97.092 229.892 97.272 229.62 97.632C229.348 97.984 229.212 98.46 229.212 99.06ZM235.664 95.304L235.628 93.768H237.308L237.272 95.304L236.912 98.076H236.024L235.664 95.304ZM238.628 95.304L238.592 93.768H240.272L240.236 95.304L239.876 98.076H238.988L238.628 95.304Z" fill="#B82629"/>
<rect x="141.5" y="74.6964" width="117" height="65.8036" stroke="black"/>
</svg>
