<svg width="400" height="177" viewBox="0 0 400 177" fill="none" xmlns="http://www.w3.org/2000/svg">
<rect width="400" height="177" fill="white"/>
<path d="M195.96 113.06C196.557 113.646 197.507 113.646 198.081 113.06L207.44 103.516C208.015 102.931 207.996 101.981 207.399 101.395C206.801 100.81 205.852 100.81 205.277 101.395L196.958 109.879L188.307 101.395C187.71 100.81 186.76 100.81 186.185 101.395C185.611 101.981 185.63 102.931 186.227 103.516L195.96 113.06ZM194.5 61L195.5 112L198.5 112L197.5 61L194.5 61Z" fill="#0072B2"/>
<path d="M109 10H289V51H109V10Z" fill="#F1F4F8"/>
<path d="M114.627 26.108H115.671L115.779 26.864H115.815C115.951 26.608 116.115 26.396 116.307 26.228C116.507 26.052 116.775 25.964 117.111 25.964C117.687 25.964 118.047 26.292 118.191 26.948C118.327 26.668 118.499 26.436 118.707 26.252C118.923 26.06 119.195 25.964 119.523 25.964C119.939 25.964 120.259 26.128 120.483 26.456C120.715 26.776 120.831 27.232 120.831 27.824V32H119.523V27.932C119.523 27.412 119.359 27.152 119.031 27.152C118.871 27.152 118.731 27.212 118.611 27.332C118.491 27.452 118.375 27.636 118.263 27.884V32H117.183V27.932C117.183 27.412 117.015 27.152 116.679 27.152C116.519 27.152 116.383 27.212 116.271 27.332C116.159 27.452 116.047 27.636 115.935 27.884V32H114.627V26.108ZM122.122 29.06C122.122 28.572 122.21 28.136 122.386 27.752C122.57 27.368 122.814 27.044 123.118 26.78C123.422 26.516 123.778 26.316 124.186 26.18C124.594 26.036 125.022 25.964 125.47 25.964C125.95 25.964 126.37 26.044 126.73 26.204C127.098 26.364 127.406 26.56 127.654 26.792L126.994 27.656C126.762 27.472 126.526 27.332 126.286 27.236C126.054 27.14 125.806 27.092 125.542 27.092C124.95 27.092 124.47 27.272 124.102 27.632C123.734 27.984 123.55 28.46 123.55 29.06C123.55 29.356 123.598 29.624 123.694 29.864C123.79 30.104 123.922 30.312 124.09 30.488C124.266 30.656 124.474 30.788 124.714 30.884C124.954 30.972 125.218 31.016 125.506 31.016C125.842 31.016 126.146 30.952 126.418 30.824C126.698 30.696 126.954 30.544 127.186 30.368L127.762 31.256C127.426 31.552 127.05 31.776 126.634 31.928C126.218 32.072 125.798 32.144 125.374 32.144C124.91 32.144 124.478 32.076 124.078 31.94C123.686 31.804 123.342 31.604 123.046 31.34C122.758 31.076 122.53 30.752 122.362 30.368C122.202 29.984 122.122 29.548 122.122 29.06ZM130.853 30.932C130.853 30.58 130.965 30.292 131.189 30.068C131.413 29.836 131.697 29.72 132.041 29.72C132.385 29.72 132.669 29.836 132.893 30.068C133.117 30.292 133.229 30.58 133.229 30.932C133.229 31.284 133.117 31.576 132.893 31.808C132.669 32.032 132.385 32.144 132.041 32.144C131.697 32.144 131.413 32.032 131.189 31.808C130.965 31.576 130.853 31.284 130.853 30.932ZM138.013 32.48V34.328H136.621V26.108H137.761L137.869 26.78H137.905C138.161 26.548 138.453 26.356 138.781 26.204C139.117 26.044 139.453 25.964 139.789 25.964C140.173 25.964 140.513 26.036 140.809 26.18C141.113 26.316 141.365 26.516 141.565 26.78C141.773 27.044 141.929 27.36 142.033 27.728C142.145 28.096 142.201 28.508 142.201 28.964C142.201 29.468 142.129 29.92 141.985 30.32C141.841 30.712 141.645 31.044 141.397 31.316C141.157 31.58 140.877 31.784 140.557 31.928C140.245 32.072 139.921 32.144 139.585 32.144C139.313 32.144 139.033 32.084 138.745 31.964C138.465 31.844 138.205 31.672 137.965 31.448L138.013 32.48ZM138.013 30.464C138.229 30.664 138.449 30.804 138.673 30.884C138.905 30.964 139.113 31.004 139.297 31.004C139.721 31.004 140.073 30.836 140.353 30.5C140.633 30.156 140.773 29.648 140.773 28.976C140.773 28.384 140.665 27.924 140.449 27.596C140.233 27.268 139.885 27.104 139.405 27.104C139.181 27.104 138.953 27.16 138.721 27.272C138.489 27.384 138.253 27.564 138.013 27.812V30.464ZM144.392 26.108H145.532L145.652 27.44H145.688C145.992 26.96 146.356 26.596 146.78 26.348C147.212 26.092 147.684 25.964 148.196 25.964C148.436 25.964 148.64 25.984 148.808 26.024C148.984 26.056 149.16 26.116 149.336 26.204L149.048 27.368C148.856 27.304 148.684 27.26 148.532 27.236C148.388 27.204 148.204 27.188 147.98 27.188C147.572 27.188 147.18 27.304 146.804 27.536C146.428 27.768 146.088 28.172 145.784 28.748V32H144.392V26.108ZM151.035 26.108H154.971V32H153.591V27.2H151.035V26.108ZM154.179 25.076C153.899 25.076 153.663 24.992 153.471 24.824C153.287 24.656 153.195 24.432 153.195 24.152C153.195 23.872 153.287 23.648 153.471 23.48C153.663 23.304 153.899 23.216 154.179 23.216C154.467 23.216 154.703 23.304 154.887 23.48C155.071 23.648 155.163 23.872 155.163 24.152C155.163 24.432 155.071 24.656 154.887 24.824C154.703 24.992 154.467 25.076 154.179 25.076ZM158.207 26.108H159.347L159.455 26.996H159.503C159.783 26.716 160.091 26.476 160.427 26.276C160.771 26.068 161.171 25.964 161.627 25.964C162.307 25.964 162.807 26.172 163.127 26.588C163.447 26.996 163.607 27.584 163.607 28.352V32H162.215V28.532C162.215 28.052 162.131 27.704 161.963 27.488C161.803 27.264 161.519 27.152 161.111 27.152C160.823 27.152 160.567 27.22 160.343 27.356C160.119 27.492 159.871 27.7 159.599 27.98V32H158.207V26.108ZM166.698 27.2H165.126V26.168L166.758 26.108L166.938 24.5H168.078V26.108H170.766V27.2H168.078V29.624C168.078 30.112 168.178 30.472 168.378 30.704C168.578 30.928 168.93 31.04 169.434 31.04C169.69 31.04 169.922 31.02 170.13 30.98C170.338 30.932 170.538 30.872 170.73 30.8L170.994 31.808C170.73 31.896 170.438 31.972 170.118 32.036C169.798 32.108 169.458 32.144 169.098 32.144C168.65 32.144 168.274 32.084 167.97 31.964C167.666 31.844 167.418 31.676 167.226 31.46C167.042 31.236 166.906 30.968 166.818 30.656C166.738 30.344 166.698 30 166.698 29.624V27.2ZM178.093 32.744V33.824H172.333V32.744H178.093ZM179.793 23.528H181.185V25.712L181.101 26.972C181.373 26.7 181.677 26.464 182.013 26.264C182.357 26.064 182.757 25.964 183.213 25.964C183.893 25.964 184.393 26.172 184.713 26.588C185.033 26.996 185.193 27.584 185.193 28.352V32H183.801V28.532C183.801 28.052 183.717 27.704 183.549 27.488C183.389 27.264 183.105 27.152 182.697 27.152C182.409 27.152 182.153 27.22 181.929 27.356C181.705 27.492 181.457 27.7 181.185 27.98V32H179.793V23.528ZM186.748 29.06C186.748 28.58 186.832 28.148 187 27.764C187.176 27.38 187.404 27.056 187.684 26.792C187.964 26.52 188.284 26.316 188.644 26.18C189.012 26.036 189.388 25.964 189.772 25.964C190.212 25.964 190.6 26.036 190.936 26.18C191.28 26.316 191.568 26.508 191.8 26.756C192.032 26.996 192.208 27.288 192.328 27.632C192.448 27.976 192.508 28.352 192.508 28.76C192.508 28.896 192.5 29.024 192.484 29.144C192.476 29.264 192.464 29.36 192.448 29.432H188.164C188.212 29.96 188.42 30.368 188.788 30.656C189.156 30.936 189.608 31.076 190.144 31.076C190.448 31.076 190.732 31.036 190.996 30.956C191.26 30.868 191.528 30.748 191.8 30.596L192.268 31.46C191.948 31.66 191.592 31.824 191.2 31.952C190.808 32.08 190.396 32.144 189.964 32.144C189.516 32.144 189.096 32.076 188.704 31.94C188.312 31.796 187.972 31.592 187.684 31.328C187.396 31.064 187.168 30.744 187 30.368C186.832 29.984 186.748 29.548 186.748 29.06ZM191.236 28.496C191.236 28.04 191.116 27.684 190.876 27.428C190.636 27.164 190.28 27.032 189.808 27.032C189.408 27.032 189.052 27.156 188.74 27.404C188.428 27.652 188.232 28.016 188.152 28.496H191.236ZM194.051 23.528H197.291V29.924C197.291 30.324 197.391 30.608 197.591 30.776C197.791 30.936 198.043 31.016 198.347 31.016C198.635 31.016 198.971 30.94 199.355 30.788L199.679 31.808C199.399 31.904 199.135 31.984 198.887 32.048C198.647 32.112 198.355 32.144 198.011 32.144C197.315 32.144 196.791 31.944 196.439 31.544C196.087 31.144 195.911 30.58 195.911 29.852V24.62H194.051V23.528ZM201.247 23.528H204.487V29.924C204.487 30.324 204.587 30.608 204.787 30.776C204.987 30.936 205.239 31.016 205.543 31.016C205.831 31.016 206.167 30.94 206.551 30.788L206.875 31.808C206.595 31.904 206.331 31.984 206.083 32.048C205.843 32.112 205.551 32.144 205.207 32.144C204.511 32.144 203.987 31.944 203.635 31.544C203.283 31.144 203.107 30.58 203.107 29.852V24.62H201.247V23.528ZM208.226 29.06C208.226 28.572 208.306 28.136 208.466 27.752C208.634 27.368 208.854 27.044 209.126 26.78C209.398 26.516 209.714 26.316 210.074 26.18C210.434 26.036 210.806 25.964 211.19 25.964C211.574 25.964 211.946 26.036 212.306 26.18C212.666 26.316 212.982 26.516 213.254 26.78C213.526 27.044 213.742 27.368 213.902 27.752C214.07 28.136 214.154 28.572 214.154 29.06C214.154 29.548 214.07 29.984 213.902 30.368C213.742 30.752 213.526 31.076 213.254 31.34C212.982 31.604 212.666 31.804 212.306 31.94C211.946 32.076 211.574 32.144 211.19 32.144C210.806 32.144 210.434 32.076 210.074 31.94C209.714 31.804 209.398 31.604 209.126 31.34C208.854 31.076 208.634 30.752 208.466 30.368C208.306 29.984 208.226 29.548 208.226 29.06ZM209.654 29.06C209.654 29.652 209.79 30.128 210.062 30.488C210.334 30.84 210.71 31.016 211.19 31.016C211.67 31.016 212.046 30.84 212.318 30.488C212.59 30.128 212.726 29.652 212.726 29.06C212.726 28.46 212.59 27.984 212.318 27.632C212.046 27.272 211.67 27.092 211.19 27.092C210.71 27.092 210.334 27.272 210.062 27.632C209.79 27.984 209.654 28.46 209.654 29.06ZM219.729 34.124C218.921 33.452 218.281 32.66 217.809 31.748C217.345 30.836 217.113 29.808 217.113 28.664C217.113 27.52 217.345 26.492 217.809 25.58C218.281 24.668 218.921 23.876 219.729 23.204L220.497 23.84C219.737 24.528 219.181 25.26 218.829 26.036C218.477 26.812 218.301 27.688 218.301 28.664C218.301 29.64 218.477 30.516 218.829 31.292C219.181 32.068 219.737 32.8 220.497 33.488L219.729 34.124ZM223.469 33.488C224.229 32.8 224.785 32.068 225.137 31.292C225.489 30.516 225.665 29.64 225.665 28.664C225.665 27.688 225.489 26.812 225.137 26.036C224.785 25.26 224.229 24.528 223.469 23.84L224.237 23.204C225.045 23.876 225.681 24.668 226.145 25.58C226.617 26.492 226.853 27.52 226.853 28.664C226.853 29.808 226.617 30.836 226.145 31.748C225.681 32.66 225.045 33.452 224.237 34.124L223.469 33.488Z" fill="#2E383C"/>
<path d="M109 126H289V167H109V126Z" fill="#F1F4F8"/>
<path d="M114.876 139.152H116.316L117.264 142.2L117.6 143.388H117.636L117.96 142.2L118.884 139.152H120.324V147H119.184V143.52C119.184 143.336 119.188 143.112 119.196 142.848C119.212 142.584 119.228 142.312 119.244 142.032C119.26 141.744 119.276 141.468 119.292 141.204C119.316 140.94 119.336 140.716 119.352 140.532H119.316L118.752 142.452L117.924 144.888H117.252L116.412 142.452L115.86 140.532H115.824C115.84 140.716 115.856 140.94 115.872 141.204C115.896 141.468 115.916 141.744 115.932 142.032C115.956 142.312 115.972 142.584 115.98 142.848C115.996 143.112 116.004 143.336 116.004 143.52V147H114.876V139.152ZM122.263 148.224C122.343 148.248 122.423 148.268 122.503 148.284C122.583 148.3 122.667 148.308 122.755 148.308C123.131 148.308 123.431 148.212 123.655 148.02C123.879 147.836 124.051 147.596 124.171 147.3L124.315 146.928L121.675 141.108H123.055L124.267 144C124.379 144.264 124.487 144.544 124.591 144.84C124.695 145.136 124.803 145.432 124.915 145.728H124.963C125.051 145.448 125.147 145.16 125.251 144.864C125.355 144.568 125.455 144.28 125.551 144L126.619 141.108H127.927L125.467 147.264C125.339 147.6 125.195 147.9 125.035 148.164C124.883 148.428 124.703 148.652 124.495 148.836C124.287 149.028 124.047 149.172 123.775 149.268C123.503 149.372 123.191 149.424 122.839 149.424C122.679 149.424 122.527 149.412 122.383 149.388C122.239 149.372 122.111 149.344 121.999 149.304L122.263 148.224ZM129.111 143.1C129.111 142.46 129.203 141.888 129.387 141.384C129.571 140.872 129.823 140.44 130.143 140.088C130.471 139.736 130.855 139.468 131.295 139.284C131.743 139.1 132.227 139.008 132.747 139.008C133.227 139.008 133.655 139.108 134.031 139.308C134.407 139.508 134.723 139.736 134.979 139.992L134.199 140.856C134.007 140.664 133.791 140.512 133.551 140.4C133.319 140.28 133.051 140.22 132.747 140.22C132.419 140.22 132.119 140.288 131.847 140.424C131.575 140.552 131.343 140.74 131.151 140.988C130.959 141.228 130.807 141.524 130.695 141.876C130.591 142.228 130.539 142.624 130.539 143.064C130.539 143.512 130.591 143.916 130.695 144.276C130.807 144.628 130.959 144.928 131.151 145.176C131.351 145.416 131.587 145.604 131.859 145.74C132.139 145.868 132.447 145.932 132.783 145.932C133.103 145.932 133.387 145.864 133.635 145.728C133.891 145.592 134.131 145.4 134.355 145.152L135.123 146.004C134.803 146.372 134.443 146.656 134.043 146.856C133.643 147.048 133.195 147.144 132.699 147.144C132.195 147.144 131.723 147.056 131.283 146.88C130.851 146.704 130.471 146.444 130.143 146.1C129.823 145.756 129.571 145.332 129.387 144.828C129.203 144.324 129.111 143.748 129.111 143.1ZM136.438 138.528H139.678V144.924C139.678 145.324 139.778 145.608 139.978 145.776C140.178 145.936 140.43 146.016 140.734 146.016C141.022 146.016 141.358 145.94 141.742 145.788L142.066 146.808C141.786 146.904 141.522 146.984 141.274 147.048C141.034 147.112 140.742 147.144 140.398 147.144C139.702 147.144 139.178 146.944 138.826 146.544C138.474 146.144 138.298 145.58 138.298 144.852V139.62H136.438V138.528ZM143.633 145.416C143.633 145.088 143.709 144.8 143.861 144.552C144.013 144.296 144.253 144.08 144.581 143.904C144.909 143.728 145.329 143.584 145.841 143.472C146.353 143.36 146.973 143.28 147.701 143.232C147.677 142.896 147.557 142.62 147.341 142.404C147.125 142.188 146.777 142.08 146.297 142.08C145.961 142.08 145.629 142.144 145.301 142.272C144.981 142.392 144.669 142.536 144.365 142.704L143.861 141.78C144.221 141.572 144.633 141.384 145.097 141.216C145.561 141.048 146.045 140.964 146.549 140.964C147.373 140.964 148.001 141.184 148.433 141.624C148.865 142.056 149.081 142.684 149.081 143.508V147H147.953L147.845 146.268H147.809C147.497 146.508 147.149 146.716 146.765 146.892C146.389 147.06 146.001 147.144 145.601 147.144C145.313 147.144 145.049 147.1 144.809 147.012C144.569 146.932 144.361 146.816 144.185 146.664C144.009 146.512 143.873 146.332 143.777 146.124C143.681 145.908 143.633 145.672 143.633 145.416ZM144.965 145.308C144.965 145.572 145.065 145.764 145.265 145.884C145.473 146.004 145.725 146.064 146.021 146.064C146.317 146.064 146.601 146 146.873 145.872C147.153 145.736 147.429 145.56 147.701 145.344V144.096C147.173 144.136 146.733 144.192 146.381 144.264C146.029 144.328 145.749 144.412 145.541 144.516C145.333 144.62 145.185 144.74 145.097 144.876C145.009 145.004 144.965 145.148 144.965 145.308ZM151.369 145.356C151.705 145.588 152.053 145.772 152.413 145.908C152.781 146.036 153.193 146.1 153.649 146.1C154.113 146.1 154.453 146.036 154.669 145.908C154.885 145.772 154.993 145.6 154.993 145.392C154.993 145.184 154.853 145.012 154.573 144.876C154.293 144.732 153.853 144.58 153.253 144.42C152.973 144.348 152.701 144.26 152.437 144.156C152.173 144.052 151.941 143.932 151.741 143.796C151.541 143.66 151.381 143.504 151.261 143.328C151.141 143.152 151.081 142.952 151.081 142.728C151.081 142.208 151.305 141.784 151.753 141.456C152.201 141.128 152.845 140.964 153.685 140.964C154.165 140.964 154.617 141.044 155.041 141.204C155.465 141.364 155.829 141.544 156.133 141.744L155.497 142.596C155.233 142.42 154.949 142.28 154.645 142.176C154.349 142.064 154.033 142.008 153.697 142.008C153.241 142.008 152.921 142.072 152.737 142.2C152.553 142.32 152.461 142.472 152.461 142.656C152.461 142.76 152.501 142.856 152.581 142.944C152.669 143.024 152.785 143.1 152.929 143.172C153.081 143.236 153.257 143.3 153.457 143.364C153.657 143.428 153.877 143.488 154.117 143.544C154.461 143.632 154.769 143.732 155.041 143.844C155.321 143.948 155.557 144.068 155.749 144.204C155.949 144.34 156.101 144.5 156.205 144.684C156.317 144.868 156.373 145.08 156.373 145.32C156.373 145.576 156.313 145.816 156.193 146.04C156.073 146.256 155.897 146.448 155.665 146.616C155.433 146.776 155.145 146.904 154.801 147C154.457 147.096 154.061 147.144 153.613 147.144C153.061 147.144 152.533 147.056 152.029 146.88C151.525 146.704 151.089 146.488 150.721 146.232L151.369 145.356ZM158.564 145.356C158.9 145.588 159.248 145.772 159.608 145.908C159.976 146.036 160.388 146.1 160.844 146.1C161.308 146.1 161.648 146.036 161.864 145.908C162.08 145.772 162.188 145.6 162.188 145.392C162.188 145.184 162.048 145.012 161.768 144.876C161.488 144.732 161.048 144.58 160.448 144.42C160.168 144.348 159.896 144.26 159.632 144.156C159.368 144.052 159.136 143.932 158.936 143.796C158.736 143.66 158.576 143.504 158.456 143.328C158.336 143.152 158.276 142.952 158.276 142.728C158.276 142.208 158.5 141.784 158.948 141.456C159.396 141.128 160.04 140.964 160.88 140.964C161.36 140.964 161.812 141.044 162.236 141.204C162.66 141.364 163.024 141.544 163.328 141.744L162.692 142.596C162.428 142.42 162.144 142.28 161.84 142.176C161.544 142.064 161.228 142.008 160.892 142.008C160.436 142.008 160.116 142.072 159.932 142.2C159.748 142.32 159.656 142.472 159.656 142.656C159.656 142.76 159.696 142.856 159.776 142.944C159.864 143.024 159.98 143.1 160.124 143.172C160.276 143.236 160.452 143.3 160.652 143.364C160.852 143.428 161.072 143.488 161.312 143.544C161.656 143.632 161.964 143.732 162.236 143.844C162.516 143.948 162.752 144.068 162.944 144.204C163.144 144.34 163.296 144.5 163.4 144.684C163.512 144.868 163.568 145.08 163.568 145.32C163.568 145.576 163.508 145.816 163.388 146.04C163.268 146.256 163.092 146.448 162.86 146.616C162.628 146.776 162.34 146.904 161.996 147C161.652 147.096 161.256 147.144 160.808 147.144C160.256 147.144 159.728 147.056 159.224 146.88C158.72 146.704 158.284 146.488 157.916 146.232L158.564 145.356ZM166.779 145.932C166.779 145.58 166.891 145.292 167.115 145.068C167.339 144.836 167.623 144.72 167.967 144.72C168.311 144.72 168.595 144.836 168.819 145.068C169.043 145.292 169.155 145.58 169.155 145.932C169.155 146.284 169.043 146.576 168.819 146.808C168.595 147.032 168.311 147.144 167.967 147.144C167.623 147.144 167.339 147.032 167.115 146.808C166.891 146.576 166.779 146.284 166.779 145.932ZM173.939 147.48V149.328H172.547V141.108H173.687L173.795 141.78H173.831C174.087 141.548 174.379 141.356 174.707 141.204C175.043 141.044 175.379 140.964 175.715 140.964C176.099 140.964 176.439 141.036 176.735 141.18C177.039 141.316 177.291 141.516 177.491 141.78C177.699 142.044 177.855 142.36 177.959 142.728C178.071 143.096 178.127 143.508 178.127 143.964C178.127 144.468 178.055 144.92 177.911 145.32C177.767 145.712 177.571 146.044 177.323 146.316C177.083 146.58 176.803 146.784 176.483 146.928C176.171 147.072 175.847 147.144 175.511 147.144C175.239 147.144 174.959 147.084 174.671 146.964C174.391 146.844 174.131 146.672 173.891 146.448L173.939 147.48ZM173.939 145.464C174.155 145.664 174.375 145.804 174.599 145.884C174.831 145.964 175.039 146.004 175.223 146.004C175.647 146.004 175.999 145.836 176.279 145.5C176.559 145.156 176.699 144.648 176.699 143.976C176.699 143.384 176.591 142.924 176.375 142.596C176.159 142.268 175.811 142.104 175.331 142.104C175.107 142.104 174.879 142.16 174.646 142.272C174.415 142.384 174.179 142.564 173.939 142.812V145.464ZM180.318 141.108H181.458L181.578 142.44H181.614C181.918 141.96 182.282 141.596 182.706 141.348C183.138 141.092 183.61 140.964 184.122 140.964C184.362 140.964 184.566 140.984 184.734 141.024C184.91 141.056 185.086 141.116 185.262 141.204L184.974 142.368C184.782 142.304 184.61 142.26 184.458 142.236C184.314 142.204 184.13 142.188 183.906 142.188C183.498 142.188 183.106 142.304 182.73 142.536C182.354 142.768 182.014 143.172 181.71 143.748V147H180.318V141.108ZM186.961 141.108H190.897V147H189.517V142.2H186.961V141.108ZM190.105 140.076C189.825 140.076 189.589 139.992 189.397 139.824C189.213 139.656 189.121 139.432 189.121 139.152C189.121 138.872 189.213 138.648 189.397 138.48C189.589 138.304 189.825 138.216 190.105 138.216C190.393 138.216 190.629 138.304 190.813 138.48C190.997 138.648 191.089 138.872 191.089 139.152C191.089 139.432 190.997 139.656 190.813 139.824C190.629 139.992 190.393 140.076 190.105 140.076ZM194.132 141.108H195.272L195.38 141.996H195.428C195.708 141.716 196.016 141.476 196.352 141.276C196.696 141.068 197.096 140.964 197.552 140.964C198.232 140.964 198.732 141.172 199.052 141.588C199.372 141.996 199.532 142.584 199.532 143.352V147H198.14V143.532C198.14 143.052 198.056 142.704 197.888 142.488C197.728 142.264 197.444 142.152 197.036 142.152C196.748 142.152 196.492 142.22 196.268 142.356C196.044 142.492 195.796 142.7 195.524 142.98V147H194.132V141.108ZM202.624 142.2H201.052V141.168L202.684 141.108L202.864 139.5H204.004V141.108H206.692V142.2H204.004V144.624C204.004 145.112 204.104 145.472 204.304 145.704C204.504 145.928 204.856 146.04 205.36 146.04C205.616 146.04 205.848 146.02 206.056 145.98C206.264 145.932 206.464 145.872 206.656 145.8L206.92 146.808C206.656 146.896 206.364 146.972 206.044 147.036C205.724 147.108 205.384 147.144 205.024 147.144C204.576 147.144 204.2 147.084 203.896 146.964C203.592 146.844 203.344 146.676 203.152 146.46C202.968 146.236 202.832 145.968 202.744 145.656C202.664 145.344 202.624 145 202.624 144.624V142.2ZM214.019 147.744V148.824H208.259V147.744H214.019ZM215.718 138.528H217.11V140.712L217.026 141.972C217.298 141.7 217.602 141.464 217.938 141.264C218.282 141.064 218.682 140.964 219.138 140.964C219.818 140.964 220.318 141.172 220.638 141.588C220.958 141.996 221.118 142.584 221.118 143.352V147H219.726V143.532C219.726 143.052 219.642 142.704 219.474 142.488C219.314 142.264 219.03 142.152 218.622 142.152C218.334 142.152 218.078 142.22 217.854 142.356C217.63 142.492 217.382 142.7 217.11 142.98V147H215.718V138.528ZM222.674 144.06C222.674 143.58 222.758 143.148 222.926 142.764C223.102 142.38 223.33 142.056 223.61 141.792C223.89 141.52 224.21 141.316 224.57 141.18C224.938 141.036 225.314 140.964 225.698 140.964C226.138 140.964 226.526 141.036 226.862 141.18C227.206 141.316 227.494 141.508 227.726 141.756C227.958 141.996 228.134 142.288 228.254 142.632C228.374 142.976 228.434 143.352 228.434 143.76C228.434 143.896 228.426 144.024 228.41 144.144C228.402 144.264 228.39 144.36 228.374 144.432H224.09C224.138 144.96 224.346 145.368 224.714 145.656C225.082 145.936 225.534 146.076 226.07 146.076C226.374 146.076 226.658 146.036 226.922 145.956C227.186 145.868 227.454 145.748 227.726 145.596L228.194 146.46C227.874 146.66 227.518 146.824 227.126 146.952C226.734 147.08 226.322 147.144 225.89 147.144C225.442 147.144 225.022 147.076 224.63 146.94C224.238 146.796 223.898 146.592 223.61 146.328C223.322 146.064 223.094 145.744 222.926 145.368C222.758 144.984 222.674 144.548 222.674 144.06ZM227.162 143.496C227.162 143.04 227.042 142.684 226.802 142.428C226.562 142.164 226.206 142.032 225.734 142.032C225.334 142.032 224.978 142.156 224.666 142.404C224.354 142.652 224.158 143.016 224.078 143.496H227.162ZM229.977 138.528H233.217V144.924C233.217 145.324 233.317 145.608 233.517 145.776C233.717 145.936 233.969 146.016 234.273 146.016C234.561 146.016 234.897 145.94 235.281 145.788L235.605 146.808C235.325 146.904 235.061 146.984 234.813 147.048C234.573 147.112 234.281 147.144 233.937 147.144C233.241 147.144 232.717 146.944 232.365 146.544C232.013 146.144 231.837 145.58 231.837 144.852V139.62H229.977V138.528ZM237.172 138.528H240.412V144.924C240.412 145.324 240.512 145.608 240.712 145.776C240.912 145.936 241.164 146.016 241.468 146.016C241.756 146.016 242.092 145.94 242.476 145.788L242.8 146.808C242.52 146.904 242.256 146.984 242.008 147.048C241.768 147.112 241.476 147.144 241.132 147.144C240.436 147.144 239.912 146.944 239.56 146.544C239.208 146.144 239.032 145.58 239.032 144.852V139.62H237.172V138.528ZM244.152 144.06C244.152 143.572 244.232 143.136 244.392 142.752C244.56 142.368 244.78 142.044 245.052 141.78C245.324 141.516 245.64 141.316 246 141.18C246.36 141.036 246.732 140.964 247.116 140.964C247.5 140.964 247.872 141.036 248.232 141.18C248.592 141.316 248.908 141.516 249.18 141.78C249.452 142.044 249.668 142.368 249.828 142.752C249.996 143.136 250.08 143.572 250.08 144.06C250.08 144.548 249.996 144.984 249.828 145.368C249.668 145.752 249.452 146.076 249.18 146.34C248.908 146.604 248.592 146.804 248.232 146.94C247.872 147.076 247.5 147.144 247.116 147.144C246.732 147.144 246.36 147.076 246 146.94C245.64 146.804 245.324 146.604 245.052 146.34C244.78 146.076 244.56 145.752 244.392 145.368C244.232 144.984 244.152 144.548 244.152 144.06ZM245.58 144.06C245.58 144.652 245.716 145.128 245.988 145.488C246.26 145.84 246.636 146.016 247.116 146.016C247.596 146.016 247.972 145.84 248.244 145.488C248.516 145.128 248.652 144.652 248.652 144.06C248.652 143.46 248.516 142.984 248.244 142.632C247.972 142.272 247.596 142.092 247.116 142.092C246.636 142.092 246.26 142.272 245.988 142.632C245.716 142.984 245.58 143.46 245.58 144.06ZM255.655 149.124C254.847 148.452 254.207 147.66 253.735 146.748C253.271 145.836 253.039 144.808 253.039 143.664C253.039 142.52 253.271 141.492 253.735 140.58C254.207 139.668 254.847 138.876 255.655 138.204L256.423 138.84C255.663 139.528 255.107 140.26 254.755 141.036C254.403 141.812 254.227 142.688 254.227 143.664C254.227 144.64 254.403 145.516 254.755 146.292C255.107 147.068 255.663 147.8 256.423 148.488L255.655 149.124ZM258.482 141.108H259.526L259.634 141.864H259.67C259.806 141.608 259.97 141.396 260.162 141.228C260.362 141.052 260.63 140.964 260.966 140.964C261.542 140.964 261.902 141.292 262.046 141.948C262.182 141.668 262.354 141.436 262.562 141.252C262.778 141.06 263.05 140.964 263.378 140.964C263.794 140.964 264.114 141.128 264.338 141.456C264.57 141.776 264.686 142.232 264.686 142.824V147H263.378V142.932C263.378 142.412 263.214 142.152 262.886 142.152C262.726 142.152 262.586 142.212 262.466 142.332C262.346 142.452 262.23 142.636 262.118 142.884V147H261.038V142.932C261.038 142.412 260.87 142.152 260.534 142.152C260.374 142.152 260.238 142.212 260.126 142.332C260.014 142.452 259.902 142.636 259.79 142.884V147H258.482V141.108ZM265.978 144.06C265.978 143.572 266.066 143.136 266.242 142.752C266.426 142.368 266.67 142.044 266.974 141.78C267.278 141.516 267.634 141.316 268.042 141.18C268.45 141.036 268.878 140.964 269.326 140.964C269.806 140.964 270.226 141.044 270.586 141.204C270.954 141.364 271.262 141.56 271.51 141.792L270.85 142.656C270.618 142.472 270.382 142.332 270.142 142.236C269.91 142.14 269.662 142.092 269.398 142.092C268.806 142.092 268.326 142.272 267.958 142.632C267.59 142.984 267.406 143.46 267.406 144.06C267.406 144.356 267.454 144.624 267.55 144.864C267.646 145.104 267.778 145.312 267.946 145.488C268.122 145.656 268.33 145.788 268.57 145.884C268.81 145.972 269.074 146.016 269.362 146.016C269.698 146.016 270.002 145.952 270.274 145.824C270.554 145.696 270.81 145.544 271.042 145.368L271.618 146.256C271.282 146.552 270.906 146.776 270.49 146.928C270.074 147.072 269.654 147.144 269.23 147.144C268.766 147.144 268.334 147.076 267.934 146.94C267.542 146.804 267.198 146.604 266.902 146.34C266.614 146.076 266.386 145.752 266.218 145.368C266.058 144.984 265.978 144.548 265.978 144.06ZM273.785 148.488C274.545 147.8 275.101 147.068 275.453 146.292C275.805 145.516 275.981 144.64 275.981 143.664C275.981 142.688 275.805 141.812 275.453 141.036C275.101 140.26 274.545 139.528 273.785 138.84L274.553 138.204C275.361 138.876 275.997 139.668 276.461 140.58C276.933 141.492 277.169 142.52 277.169 143.664C277.169 144.808 276.933 145.836 276.461 146.748C275.997 147.66 275.361 148.452 274.553 149.124L273.785 148.488Z" fill="#2E383C"/>
</svg>
