<svg width="530" height="339" viewBox="0 0 530 339" fill="none" xmlns="http://www.w3.org/2000/svg">
<rect width="530" height="339" fill="white"/>
<line y1="-0.5" x2="242" y2="-0.5" transform="translate(109.875 296) rotate(-90)" stroke="black"/>
<line y1="-0.5" x2="198" y2="-0.5" transform="translate(0 94)" stroke="black"/>
<line y1="-0.5" x2="127" y2="-0.5" transform="translate(47 35)" stroke="black"/>
<path d="M7.91797 11.2568L10.7617 3.04688H12.1973L8.50586 13H7.34375L3.65918 3.04688H5.08789L7.91797 11.2568ZM17.5908 13C17.5179 12.8542 17.4587 12.5944 17.4131 12.2207C16.8252 12.8314 16.1234 13.1367 15.3076 13.1367C14.5785 13.1367 13.9792 12.9316 13.5098 12.5215C13.0449 12.1068 12.8125 11.5827 12.8125 10.9492C12.8125 10.179 13.1042 9.58203 13.6875 9.1582C14.2754 8.72982 15.1003 8.51562 16.1621 8.51562H17.3926V7.93457C17.3926 7.49251 17.2604 7.1416 16.9961 6.88184C16.7318 6.61751 16.3421 6.48535 15.8271 6.48535C15.376 6.48535 14.9977 6.59928 14.6924 6.82715C14.387 7.05501 14.2344 7.33073 14.2344 7.6543H12.9629C12.9629 7.28516 13.0928 6.92969 13.3525 6.58789C13.6169 6.24154 13.9723 5.9681 14.4189 5.76758C14.8701 5.56706 15.3646 5.4668 15.9023 5.4668C16.7546 5.4668 17.4222 5.68099 17.9053 6.10938C18.3883 6.5332 18.639 7.11882 18.6572 7.86621V11.2705C18.6572 11.9495 18.7438 12.4896 18.917 12.8906V13H17.5908ZM15.4922 12.0361C15.8887 12.0361 16.2646 11.9336 16.6201 11.7285C16.9756 11.5234 17.2331 11.2568 17.3926 10.9287V9.41113H16.4014C14.8519 9.41113 14.0771 9.86458 14.0771 10.7715C14.0771 11.168 14.2093 11.4779 14.4736 11.7012C14.738 11.9245 15.0775 12.0361 15.4922 12.0361ZM22.0137 13H20.749V2.5H22.0137V13ZM28.6104 12.2686C28.1182 12.8473 27.3958 13.1367 26.4434 13.1367C25.6549 13.1367 25.0534 12.9089 24.6387 12.4531C24.2285 11.9928 24.0212 11.3138 24.0166 10.416V5.60352H25.2812V10.3818C25.2812 11.5029 25.737 12.0635 26.6484 12.0635C27.6146 12.0635 28.2572 11.7035 28.5762 10.9834V5.60352H29.8408V13H28.6377L28.6104 12.2686ZM34.8379 13.1367C33.8353 13.1367 33.0195 12.8086 32.3906 12.1523C31.7617 11.4915 31.4473 10.6097 31.4473 9.50684V9.27441C31.4473 8.54069 31.5863 7.88672 31.8643 7.3125C32.1468 6.73372 32.5387 6.28255 33.04 5.95898C33.5459 5.63086 34.0928 5.4668 34.6807 5.4668C35.6423 5.4668 36.3896 5.78353 36.9229 6.41699C37.4561 7.05046 37.7227 7.95736 37.7227 9.1377V9.66406H32.7119C32.7301 10.3932 32.9421 10.9834 33.3477 11.4346C33.7578 11.8812 34.2773 12.1045 34.9062 12.1045C35.3529 12.1045 35.7311 12.0133 36.041 11.8311C36.3509 11.6488 36.6221 11.4072 36.8545 11.1064L37.627 11.708C37.0072 12.6605 36.0775 13.1367 34.8379 13.1367ZM34.6807 6.50586C34.1702 6.50586 33.7419 6.69271 33.3955 7.06641C33.0492 7.43555 32.835 7.95508 32.7529 8.625H36.458V8.5293C36.4215 7.88672 36.2484 7.38997 35.9385 7.03906C35.6286 6.68359 35.2093 6.50586 34.6807 6.50586ZM43.499 11.0381C43.499 10.6963 43.3691 10.432 43.1094 10.2451C42.8542 10.0537 42.4053 9.88965 41.7627 9.75293C41.1247 9.61621 40.6165 9.45215 40.2383 9.26074C39.8646 9.06934 39.5866 8.84147 39.4043 8.57715C39.2266 8.31283 39.1377 7.99837 39.1377 7.63379C39.1377 7.02767 39.3929 6.51497 39.9033 6.0957C40.4183 5.67643 41.0745 5.4668 41.8721 5.4668C42.7106 5.4668 43.3896 5.68327 43.9092 6.11621C44.4333 6.54915 44.6953 7.10286 44.6953 7.77734H43.4238C43.4238 7.43099 43.2757 7.13249 42.9795 6.88184C42.6878 6.63118 42.3187 6.50586 41.8721 6.50586C41.4118 6.50586 41.0518 6.60612 40.792 6.80664C40.5322 7.00716 40.4023 7.26921 40.4023 7.59277C40.4023 7.89811 40.5231 8.12826 40.7646 8.2832C41.0062 8.43815 41.4414 8.58626 42.0703 8.72754C42.7038 8.86882 43.2165 9.03743 43.6084 9.2334C44.0003 9.42936 44.2897 9.66634 44.4766 9.94434C44.668 10.2178 44.7637 10.5527 44.7637 10.9492C44.7637 11.61 44.4993 12.141 43.9707 12.542C43.4421 12.9385 42.7562 13.1367 41.9131 13.1367C41.3206 13.1367 40.7965 13.0319 40.3408 12.8223C39.8851 12.6126 39.5273 12.321 39.2676 11.9473C39.0124 11.569 38.8848 11.1611 38.8848 10.7236H40.1494C40.1722 11.1475 40.3408 11.4847 40.6553 11.7354C40.9743 11.9814 41.3936 12.1045 41.9131 12.1045C42.3916 12.1045 42.7744 12.0088 43.0615 11.8174C43.3532 11.6214 43.499 11.3617 43.499 11.0381ZM51.5996 3.8125V5.60352H52.9805V6.58105H51.5996V11.168C51.5996 11.4642 51.6611 11.6875 51.7842 11.8379C51.9072 11.9837 52.1169 12.0566 52.4131 12.0566C52.5589 12.0566 52.7594 12.0293 53.0146 11.9746V13C52.682 13.0911 52.3584 13.1367 52.0439 13.1367C51.4788 13.1367 51.0527 12.9658 50.7656 12.624C50.4785 12.2822 50.335 11.7969 50.335 11.168V6.58105H48.9883V5.60352H50.335V3.8125H51.5996ZM55.7285 6.49902C56.2891 5.81087 57.0182 5.4668 57.916 5.4668C59.4792 5.4668 60.2676 6.34863 60.2812 8.1123V13H59.0166V8.10547C59.012 7.57227 58.889 7.17806 58.6475 6.92285C58.4105 6.66764 58.0391 6.54004 57.5332 6.54004C57.123 6.54004 56.763 6.64941 56.4531 6.86816C56.1432 7.08691 55.9017 7.37402 55.7285 7.72949V13H54.4639V2.5H55.7285V6.49902ZM66.7412 13C66.6683 12.8542 66.609 12.5944 66.5635 12.2207C65.9756 12.8314 65.2738 13.1367 64.458 13.1367C63.7288 13.1367 63.1296 12.9316 62.6602 12.5215C62.1953 12.1068 61.9629 11.5827 61.9629 10.9492C61.9629 10.179 62.2546 9.58203 62.8379 9.1582C63.4258 8.72982 64.2507 8.51562 65.3125 8.51562H66.543V7.93457C66.543 7.49251 66.4108 7.1416 66.1465 6.88184C65.8822 6.61751 65.4925 6.48535 64.9775 6.48535C64.5264 6.48535 64.1481 6.59928 63.8428 6.82715C63.5374 7.05501 63.3848 7.33073 63.3848 7.6543H62.1133C62.1133 7.28516 62.2432 6.92969 62.5029 6.58789C62.7673 6.24154 63.1227 5.9681 63.5693 5.76758C64.0205 5.56706 64.515 5.4668 65.0527 5.4668C65.9049 5.4668 66.5726 5.68099 67.0557 6.10938C67.5387 6.5332 67.7894 7.11882 67.8076 7.86621V11.2705C67.8076 11.9495 67.8942 12.4896 68.0674 12.8906V13H66.7412ZM64.6426 12.0361C65.0391 12.0361 65.415 11.9336 65.7705 11.7285C66.126 11.5234 66.3835 11.2568 66.543 10.9287V9.41113H65.5518C64.0023 9.41113 63.2275 9.86458 63.2275 10.7715C63.2275 11.168 63.3597 11.4779 63.624 11.7012C63.8883 11.9245 64.2279 12.0361 64.6426 12.0361ZM71.5059 3.8125V5.60352H72.8867V6.58105H71.5059V11.168C71.5059 11.4642 71.5674 11.6875 71.6904 11.8379C71.8135 11.9837 72.0231 12.0566 72.3193 12.0566C72.4652 12.0566 72.6657 12.0293 72.9209 11.9746V13C72.5882 13.0911 72.2646 13.1367 71.9502 13.1367C71.3851 13.1367 70.959 12.9658 70.6719 12.624C70.3848 12.2822 70.2412 11.7969 70.2412 11.168V6.58105H68.8945V5.60352H70.2412V3.8125H71.5059ZM82.4092 13C82.3363 12.8542 82.277 12.5944 82.2314 12.2207C81.6436 12.8314 80.9417 13.1367 80.126 13.1367C79.3968 13.1367 78.7975 12.9316 78.3281 12.5215C77.8633 12.1068 77.6309 11.5827 77.6309 10.9492C77.6309 10.179 77.9225 9.58203 78.5059 9.1582C79.0938 8.72982 79.9186 8.51562 80.9805 8.51562H82.2109V7.93457C82.2109 7.49251 82.0788 7.1416 81.8145 6.88184C81.5501 6.61751 81.1605 6.48535 80.6455 6.48535C80.1943 6.48535 79.8161 6.59928 79.5107 6.82715C79.2054 7.05501 79.0527 7.33073 79.0527 7.6543H77.7812C77.7812 7.28516 77.9111 6.92969 78.1709 6.58789C78.4352 6.24154 78.7907 5.9681 79.2373 5.76758C79.6885 5.56706 80.1829 5.4668 80.7207 5.4668C81.5729 5.4668 82.2406 5.68099 82.7236 6.10938C83.2067 6.5332 83.4574 7.11882 83.4756 7.86621V11.2705C83.4756 11.9495 83.5622 12.4896 83.7354 12.8906V13H82.4092ZM80.3105 12.0361C80.707 12.0361 81.083 11.9336 81.4385 11.7285C81.7939 11.5234 82.0514 11.2568 82.2109 10.9287V9.41113H81.2197C79.6702 9.41113 78.8955 9.86458 78.8955 10.7715C78.8955 11.168 79.0277 11.4779 79.292 11.7012C79.5563 11.9245 79.8958 12.0361 80.3105 12.0361ZM89.0332 6.73828C88.8418 6.70638 88.6344 6.69043 88.4111 6.69043C87.5817 6.69043 87.0189 7.04362 86.7227 7.75V13H85.458V5.60352H86.6885L86.709 6.45801C87.1237 5.7972 87.7116 5.4668 88.4727 5.4668C88.7188 5.4668 88.9056 5.4987 89.0332 5.5625V6.73828ZM93.1348 13.1367C92.1322 13.1367 91.3164 12.8086 90.6875 12.1523C90.0586 11.4915 89.7441 10.6097 89.7441 9.50684V9.27441C89.7441 8.54069 89.8831 7.88672 90.1611 7.3125C90.4437 6.73372 90.8356 6.28255 91.3369 5.95898C91.8428 5.63086 92.3896 5.4668 92.9775 5.4668C93.9391 5.4668 94.6865 5.78353 95.2197 6.41699C95.7529 7.05046 96.0195 7.95736 96.0195 9.1377V9.66406H91.0088C91.027 10.3932 91.2389 10.9834 91.6445 11.4346C92.0547 11.8812 92.5742 12.1045 93.2031 12.1045C93.6497 12.1045 94.028 12.0133 94.3379 11.8311C94.6478 11.6488 94.9189 11.4072 95.1514 11.1064L95.9238 11.708C95.304 12.6605 94.3743 13.1367 93.1348 13.1367ZM92.9775 6.50586C92.4671 6.50586 92.0387 6.69271 91.6924 7.06641C91.346 7.43555 91.1318 7.95508 91.0498 8.625H94.7549V8.5293C94.7184 7.88672 94.5452 7.38997 94.2354 7.03906C93.9255 6.68359 93.5062 6.50586 92.9775 6.50586ZM7.87695 25.3701C7.87695 26.555 7.62402 27.4801 7.11816 28.1455C6.6123 28.8063 5.90592 29.1367 4.99902 29.1367C4.19694 29.1367 3.55664 28.8291 3.07812 28.2139L2.98926 29H1.21191V18.5H3.1875V22.2666C3.64323 21.7334 4.24251 21.4668 4.98535 21.4668C5.8877 21.4668 6.59408 21.7995 7.10449 22.4648C7.61947 23.1257 7.87695 24.0576 7.87695 25.2607V25.3701ZM5.90137 25.2266C5.90137 24.4792 5.78288 23.9346 5.5459 23.5928C5.30892 23.2464 4.95573 23.0732 4.48633 23.0732C3.85742 23.0732 3.42448 23.3307 3.1875 23.8457V26.7646C3.42904 27.2842 3.86654 27.5439 4.5 27.5439C5.13802 27.5439 5.55729 27.2295 5.75781 26.6006C5.85352 26.2998 5.90137 25.8418 5.90137 25.2266ZM12.5049 29.1367C11.4202 29.1367 10.5361 28.804 9.85254 28.1387C9.1735 27.4733 8.83398 26.5869 8.83398 25.4795V25.2881C8.83398 24.5452 8.97754 23.8822 9.26465 23.2988C9.55176 22.7109 9.95736 22.2598 10.4814 21.9453C11.0101 21.6263 11.6117 21.4668 12.2861 21.4668C13.2979 21.4668 14.0931 21.7858 14.6719 22.4238C15.2552 23.0618 15.5469 23.9665 15.5469 25.1377V25.9443H10.8369C10.9007 26.4274 11.0921 26.8148 11.4111 27.1064C11.7347 27.3981 12.1426 27.5439 12.6348 27.5439C13.3958 27.5439 13.9906 27.2682 14.4189 26.7168L15.3896 27.8037C15.0934 28.223 14.6924 28.5511 14.1865 28.7881C13.6807 29.0205 13.1201 29.1367 12.5049 29.1367ZM12.2793 23.0664C11.8874 23.0664 11.5684 23.1986 11.3223 23.4629C11.0807 23.7272 10.9258 24.1055 10.8574 24.5977H13.6055V24.4404C13.5964 24.0029 13.4779 23.6657 13.25 23.4287C13.0221 23.1872 12.6986 23.0664 12.2793 23.0664ZM18.7598 29H16.7773V18.5H18.7598V29ZM20.0859 25.2334C20.0859 24.4997 20.2272 23.8457 20.5098 23.2715C20.7923 22.6973 21.1979 22.2529 21.7266 21.9385C22.2598 21.624 22.8773 21.4668 23.5791 21.4668C24.5771 21.4668 25.3906 21.7721 26.0195 22.3828C26.653 22.9935 27.0062 23.8229 27.0791 24.8711L27.0928 25.377C27.0928 26.5117 26.776 27.4232 26.1426 28.1113C25.5091 28.7949 24.6592 29.1367 23.5928 29.1367C22.5264 29.1367 21.6742 28.7949 21.0361 28.1113C20.4027 27.4277 20.0859 26.498 20.0859 25.3223V25.2334ZM22.0615 25.377C22.0615 26.0788 22.1937 26.6165 22.458 26.9902C22.7223 27.3594 23.1006 27.5439 23.5928 27.5439C24.0713 27.5439 24.445 27.3617 24.7139 26.9971C24.9827 26.6279 25.1172 26.04 25.1172 25.2334C25.1172 24.5452 24.9827 24.012 24.7139 23.6338C24.445 23.2555 24.0667 23.0664 23.5791 23.0664C23.096 23.0664 22.7223 23.2555 22.458 23.6338C22.1937 24.0075 22.0615 24.5885 22.0615 25.377ZM34.7422 26.3135L35.7129 21.6035H37.6201L35.7334 29H34.0791L32.6777 24.3447L31.2764 29H29.6289L27.7422 21.6035H29.6494L30.6133 26.3066L31.9668 21.6035H33.3955L34.7422 26.3135ZM43.9912 19.8125V21.6035H45.3721V22.5811H43.9912V27.168C43.9912 27.4642 44.0527 27.6875 44.1758 27.8379C44.2988 27.9837 44.5085 28.0566 44.8047 28.0566C44.9505 28.0566 45.151 28.0293 45.4062 27.9746V29C45.0736 29.0911 44.75 29.1367 44.4355 29.1367C43.8704 29.1367 43.4443 28.9658 43.1572 28.624C42.8701 28.2822 42.7266 27.7969 42.7266 27.168V22.5811H41.3799V21.6035H42.7266V19.8125H43.9912ZM48.1201 22.499C48.6807 21.8109 49.4098 21.4668 50.3076 21.4668C51.8708 21.4668 52.6592 22.3486 52.6729 24.1123V29H51.4082V24.1055C51.4036 23.5723 51.2806 23.1781 51.0391 22.9229C50.8021 22.6676 50.4307 22.54 49.9248 22.54C49.5146 22.54 49.1546 22.6494 48.8447 22.8682C48.5348 23.0869 48.2933 23.374 48.1201 23.7295V29H46.8555V18.5H48.1201V22.499ZM57.6357 29.1367C56.6331 29.1367 55.8174 28.8086 55.1885 28.1523C54.5596 27.4915 54.2451 26.6097 54.2451 25.5068V25.2744C54.2451 24.5407 54.3841 23.8867 54.6621 23.3125C54.9447 22.7337 55.3366 22.2826 55.8379 21.959C56.3438 21.6309 56.8906 21.4668 57.4785 21.4668C58.4401 21.4668 59.1875 21.7835 59.7207 22.417C60.2539 23.0505 60.5205 23.9574 60.5205 25.1377V25.6641H55.5098C55.528 26.3932 55.7399 26.9834 56.1455 27.4346C56.5557 27.8812 57.0752 28.1045 57.7041 28.1045C58.1507 28.1045 58.529 28.0133 58.8389 27.8311C59.1488 27.6488 59.4199 27.4072 59.6523 27.1064L60.4248 27.708C59.805 28.6605 58.8753 29.1367 57.6357 29.1367ZM57.4785 22.5059C56.9681 22.5059 56.5397 22.6927 56.1934 23.0664C55.847 23.4355 55.6328 23.9551 55.5508 24.625H59.2559V24.5293C59.2194 23.8867 59.0462 23.39 58.7363 23.0391C58.4264 22.6836 58.0072 22.5059 57.4785 22.5059ZM66.6523 21.6035L66.6865 22.4238C67.2288 21.7858 67.9603 21.4668 68.8809 21.4668C69.9154 21.4668 70.6195 21.8633 70.9932 22.6562C71.2393 22.3008 71.5583 22.0137 71.9502 21.7949C72.3467 21.5762 72.8138 21.4668 73.3516 21.4668C74.974 21.4668 75.7988 22.3258 75.8262 24.0439V29H74.5615V24.1191C74.5615 23.5905 74.4408 23.1963 74.1992 22.9365C73.9577 22.6722 73.5521 22.54 72.9824 22.54C72.513 22.54 72.1234 22.6813 71.8135 22.9639C71.5036 23.2419 71.3236 23.6178 71.2734 24.0918V29H70.002V24.1533C70.002 23.0778 69.4756 22.54 68.4229 22.54C67.5934 22.54 67.026 22.8932 66.7207 23.5996V29H65.4561V21.6035H66.6523ZM80.8096 29.1367C79.807 29.1367 78.9912 28.8086 78.3623 28.1523C77.7334 27.4915 77.4189 26.6097 77.4189 25.5068V25.2744C77.4189 24.5407 77.5579 23.8867 77.8359 23.3125C78.1185 22.7337 78.5104 22.2826 79.0117 21.959C79.5176 21.6309 80.0645 21.4668 80.6523 21.4668C81.6139 21.4668 82.3613 21.7835 82.8945 22.417C83.4277 23.0505 83.6943 23.9574 83.6943 25.1377V25.6641H78.6836C78.7018 26.3932 78.9137 26.9834 79.3193 27.4346C79.7295 27.8812 80.249 28.1045 80.8779 28.1045C81.3245 28.1045 81.7028 28.0133 82.0127 27.8311C82.3226 27.6488 82.5938 27.4072 82.8262 27.1064L83.5986 27.708C82.9788 28.6605 82.0492 29.1367 80.8096 29.1367ZM80.6523 22.5059C80.1419 22.5059 79.7135 22.6927 79.3672 23.0664C79.0208 23.4355 78.8066 23.9551 78.7246 24.625H82.4297V24.5293C82.3932 23.8867 82.2201 23.39 81.9102 23.0391C81.6003 22.6836 81.181 22.5059 80.6523 22.5059ZM89.7305 29C89.6576 28.8542 89.5983 28.5944 89.5527 28.2207C88.9648 28.8314 88.263 29.1367 87.4473 29.1367C86.7181 29.1367 86.1188 28.9316 85.6494 28.5215C85.1846 28.1068 84.9521 27.5827 84.9521 26.9492C84.9521 26.179 85.2438 25.582 85.8271 25.1582C86.415 24.7298 87.2399 24.5156 88.3018 24.5156H89.5322V23.9346C89.5322 23.4925 89.4001 23.1416 89.1357 22.8818C88.8714 22.6175 88.4818 22.4854 87.9668 22.4854C87.5156 22.4854 87.1374 22.5993 86.832 22.8271C86.5267 23.055 86.374 23.3307 86.374 23.6543H85.1025C85.1025 23.2852 85.2324 22.9297 85.4922 22.5879C85.7565 22.2415 86.112 21.9681 86.5586 21.7676C87.0098 21.5671 87.5042 21.4668 88.042 21.4668C88.8942 21.4668 89.5618 21.681 90.0449 22.1094C90.528 22.5332 90.7786 23.1188 90.7969 23.8662V27.2705C90.7969 27.9495 90.8835 28.4896 91.0566 28.8906V29H89.7305ZM87.6318 28.0361C88.0283 28.0361 88.4043 27.9336 88.7598 27.7285C89.1152 27.5234 89.3727 27.2568 89.5322 26.9287V25.4111H88.541C86.9915 25.4111 86.2168 25.8646 86.2168 26.7715C86.2168 27.168 86.349 27.4779 86.6133 27.7012C86.8776 27.9245 87.2171 28.0361 87.6318 28.0361ZM93.9756 21.6035L94.0166 22.5332C94.5817 21.8223 95.32 21.4668 96.2314 21.4668C97.7946 21.4668 98.583 22.3486 98.5967 24.1123V29H97.332V24.1055C97.3275 23.5723 97.2044 23.1781 96.9629 22.9229C96.7259 22.6676 96.3545 22.54 95.8486 22.54C95.4385 22.54 95.0785 22.6494 94.7686 22.8682C94.4587 23.0869 94.2171 23.374 94.0439 23.7295V29H92.7793V21.6035H93.9756Z" transform="translate(58 -2)" fill="black"/>
<line y1="-0.5" x2="127" y2="-0.5" transform="translate(374 35)" stroke="black"/>
<path d="M7.91797 11.2568L10.7617 3.04688H12.1973L8.50586 13H7.34375L3.65918 3.04688H5.08789L7.91797 11.2568ZM17.5908 13C17.5179 12.8542 17.4587 12.5944 17.4131 12.2207C16.8252 12.8314 16.1234 13.1367 15.3076 13.1367C14.5785 13.1367 13.9792 12.9316 13.5098 12.5215C13.0449 12.1068 12.8125 11.5827 12.8125 10.9492C12.8125 10.179 13.1042 9.58203 13.6875 9.1582C14.2754 8.72982 15.1003 8.51562 16.1621 8.51562H17.3926V7.93457C17.3926 7.49251 17.2604 7.1416 16.9961 6.88184C16.7318 6.61751 16.3421 6.48535 15.8271 6.48535C15.376 6.48535 14.9977 6.59928 14.6924 6.82715C14.387 7.05501 14.2344 7.33073 14.2344 7.6543H12.9629C12.9629 7.28516 13.0928 6.92969 13.3525 6.58789C13.6169 6.24154 13.9723 5.9681 14.4189 5.76758C14.8701 5.56706 15.3646 5.4668 15.9023 5.4668C16.7546 5.4668 17.4222 5.68099 17.9053 6.10938C18.3883 6.5332 18.639 7.11882 18.6572 7.86621V11.2705C18.6572 11.9495 18.7438 12.4896 18.917 12.8906V13H17.5908ZM15.4922 12.0361C15.8887 12.0361 16.2646 11.9336 16.6201 11.7285C16.9756 11.5234 17.2331 11.2568 17.3926 10.9287V9.41113H16.4014C14.8519 9.41113 14.0771 9.86458 14.0771 10.7715C14.0771 11.168 14.2093 11.4779 14.4736 11.7012C14.738 11.9245 15.0775 12.0361 15.4922 12.0361ZM22.0137 13H20.749V2.5H22.0137V13ZM28.6104 12.2686C28.1182 12.8473 27.3958 13.1367 26.4434 13.1367C25.6549 13.1367 25.0534 12.9089 24.6387 12.4531C24.2285 11.9928 24.0212 11.3138 24.0166 10.416V5.60352H25.2812V10.3818C25.2812 11.5029 25.737 12.0635 26.6484 12.0635C27.6146 12.0635 28.2572 11.7035 28.5762 10.9834V5.60352H29.8408V13H28.6377L28.6104 12.2686ZM34.8379 13.1367C33.8353 13.1367 33.0195 12.8086 32.3906 12.1523C31.7617 11.4915 31.4473 10.6097 31.4473 9.50684V9.27441C31.4473 8.54069 31.5863 7.88672 31.8643 7.3125C32.1468 6.73372 32.5387 6.28255 33.04 5.95898C33.5459 5.63086 34.0928 5.4668 34.6807 5.4668C35.6423 5.4668 36.3896 5.78353 36.9229 6.41699C37.4561 7.05046 37.7227 7.95736 37.7227 9.1377V9.66406H32.7119C32.7301 10.3932 32.9421 10.9834 33.3477 11.4346C33.7578 11.8812 34.2773 12.1045 34.9062 12.1045C35.3529 12.1045 35.7311 12.0133 36.041 11.8311C36.3509 11.6488 36.6221 11.4072 36.8545 11.1064L37.627 11.708C37.0072 12.6605 36.0775 13.1367 34.8379 13.1367ZM34.6807 6.50586C34.1702 6.50586 33.7419 6.69271 33.3955 7.06641C33.0492 7.43555 32.835 7.95508 32.7529 8.625H36.458V8.5293C36.4215 7.88672 36.2484 7.38997 35.9385 7.03906C35.6286 6.68359 35.2093 6.50586 34.6807 6.50586ZM43.499 11.0381C43.499 10.6963 43.3691 10.432 43.1094 10.2451C42.8542 10.0537 42.4053 9.88965 41.7627 9.75293C41.1247 9.61621 40.6165 9.45215 40.2383 9.26074C39.8646 9.06934 39.5866 8.84147 39.4043 8.57715C39.2266 8.31283 39.1377 7.99837 39.1377 7.63379C39.1377 7.02767 39.3929 6.51497 39.9033 6.0957C40.4183 5.67643 41.0745 5.4668 41.8721 5.4668C42.7106 5.4668 43.3896 5.68327 43.9092 6.11621C44.4333 6.54915 44.6953 7.10286 44.6953 7.77734H43.4238C43.4238 7.43099 43.2757 7.13249 42.9795 6.88184C42.6878 6.63118 42.3187 6.50586 41.8721 6.50586C41.4118 6.50586 41.0518 6.60612 40.792 6.80664C40.5322 7.00716 40.4023 7.26921 40.4023 7.59277C40.4023 7.89811 40.5231 8.12826 40.7646 8.2832C41.0062 8.43815 41.4414 8.58626 42.0703 8.72754C42.7038 8.86882 43.2165 9.03743 43.6084 9.2334C44.0003 9.42936 44.2897 9.66634 44.4766 9.94434C44.668 10.2178 44.7637 10.5527 44.7637 10.9492C44.7637 11.61 44.4993 12.141 43.9707 12.542C43.4421 12.9385 42.7562 13.1367 41.9131 13.1367C41.3206 13.1367 40.7965 13.0319 40.3408 12.8223C39.8851 12.6126 39.5273 12.321 39.2676 11.9473C39.0124 11.569 38.8848 11.1611 38.8848 10.7236H40.1494C40.1722 11.1475 40.3408 11.4847 40.6553 11.7354C40.9743 11.9814 41.3936 12.1045 41.9131 12.1045C42.3916 12.1045 42.7744 12.0088 43.0615 11.8174C43.3532 11.6214 43.499 11.3617 43.499 11.0381ZM51.5996 3.8125V5.60352H52.9805V6.58105H51.5996V11.168C51.5996 11.4642 51.6611 11.6875 51.7842 11.8379C51.9072 11.9837 52.1169 12.0566 52.4131 12.0566C52.5589 12.0566 52.7594 12.0293 53.0146 11.9746V13C52.682 13.0911 52.3584 13.1367 52.0439 13.1367C51.4788 13.1367 51.0527 12.9658 50.7656 12.624C50.4785 12.2822 50.335 11.7969 50.335 11.168V6.58105H48.9883V5.60352H50.335V3.8125H51.5996ZM55.7285 6.49902C56.2891 5.81087 57.0182 5.4668 57.916 5.4668C59.4792 5.4668 60.2676 6.34863 60.2812 8.1123V13H59.0166V8.10547C59.012 7.57227 58.889 7.17806 58.6475 6.92285C58.4105 6.66764 58.0391 6.54004 57.5332 6.54004C57.123 6.54004 56.763 6.64941 56.4531 6.86816C56.1432 7.08691 55.9017 7.37402 55.7285 7.72949V13H54.4639V2.5H55.7285V6.49902ZM66.7412 13C66.6683 12.8542 66.609 12.5944 66.5635 12.2207C65.9756 12.8314 65.2738 13.1367 64.458 13.1367C63.7288 13.1367 63.1296 12.9316 62.6602 12.5215C62.1953 12.1068 61.9629 11.5827 61.9629 10.9492C61.9629 10.179 62.2546 9.58203 62.8379 9.1582C63.4258 8.72982 64.2507 8.51562 65.3125 8.51562H66.543V7.93457C66.543 7.49251 66.4108 7.1416 66.1465 6.88184C65.8822 6.61751 65.4925 6.48535 64.9775 6.48535C64.5264 6.48535 64.1481 6.59928 63.8428 6.82715C63.5374 7.05501 63.3848 7.33073 63.3848 7.6543H62.1133C62.1133 7.28516 62.2432 6.92969 62.5029 6.58789C62.7673 6.24154 63.1227 5.9681 63.5693 5.76758C64.0205 5.56706 64.515 5.4668 65.0527 5.4668C65.9049 5.4668 66.5726 5.68099 67.0557 6.10938C67.5387 6.5332 67.7894 7.11882 67.8076 7.86621V11.2705C67.8076 11.9495 67.8942 12.4896 68.0674 12.8906V13H66.7412ZM64.6426 12.0361C65.0391 12.0361 65.415 11.9336 65.7705 11.7285C66.126 11.5234 66.3835 11.2568 66.543 10.9287V9.41113H65.5518C64.0023 9.41113 63.2275 9.86458 63.2275 10.7715C63.2275 11.168 63.3597 11.4779 63.624 11.7012C63.8883 11.9245 64.2279 12.0361 64.6426 12.0361ZM71.5059 3.8125V5.60352H72.8867V6.58105H71.5059V11.168C71.5059 11.4642 71.5674 11.6875 71.6904 11.8379C71.8135 11.9837 72.0231 12.0566 72.3193 12.0566C72.4652 12.0566 72.6657 12.0293 72.9209 11.9746V13C72.5882 13.0911 72.2646 13.1367 71.9502 13.1367C71.3851 13.1367 70.959 12.9658 70.6719 12.624C70.3848 12.2822 70.2412 11.7969 70.2412 11.168V6.58105H68.8945V5.60352H70.2412V3.8125H71.5059ZM82.4092 13C82.3363 12.8542 82.277 12.5944 82.2314 12.2207C81.6436 12.8314 80.9417 13.1367 80.126 13.1367C79.3968 13.1367 78.7975 12.9316 78.3281 12.5215C77.8633 12.1068 77.6309 11.5827 77.6309 10.9492C77.6309 10.179 77.9225 9.58203 78.5059 9.1582C79.0938 8.72982 79.9186 8.51562 80.9805 8.51562H82.2109V7.93457C82.2109 7.49251 82.0788 7.1416 81.8145 6.88184C81.5501 6.61751 81.1605 6.48535 80.6455 6.48535C80.1943 6.48535 79.8161 6.59928 79.5107 6.82715C79.2054 7.05501 79.0527 7.33073 79.0527 7.6543H77.7812C77.7812 7.28516 77.9111 6.92969 78.1709 6.58789C78.4352 6.24154 78.7907 5.9681 79.2373 5.76758C79.6885 5.56706 80.1829 5.4668 80.7207 5.4668C81.5729 5.4668 82.2406 5.68099 82.7236 6.10938C83.2067 6.5332 83.4574 7.11882 83.4756 7.86621V11.2705C83.4756 11.9495 83.5622 12.4896 83.7354 12.8906V13H82.4092ZM80.3105 12.0361C80.707 12.0361 81.083 11.9336 81.4385 11.7285C81.7939 11.5234 82.0514 11.2568 82.2109 10.9287V9.41113H81.2197C79.6702 9.41113 78.8955 9.86458 78.8955 10.7715C78.8955 11.168 79.0277 11.4779 79.292 11.7012C79.5563 11.9245 79.8958 12.0361 80.3105 12.0361ZM89.0332 6.73828C88.8418 6.70638 88.6344 6.69043 88.4111 6.69043C87.5817 6.69043 87.0189 7.04362 86.7227 7.75V13H85.458V5.60352H86.6885L86.709 6.45801C87.1237 5.7972 87.7116 5.4668 88.4727 5.4668C88.7188 5.4668 88.9056 5.4987 89.0332 5.5625V6.73828ZM93.1348 13.1367C92.1322 13.1367 91.3164 12.8086 90.6875 12.1523C90.0586 11.4915 89.7441 10.6097 89.7441 9.50684V9.27441C89.7441 8.54069 89.8831 7.88672 90.1611 7.3125C90.4437 6.73372 90.8356 6.28255 91.3369 5.95898C91.8428 5.63086 92.3896 5.4668 92.9775 5.4668C93.9391 5.4668 94.6865 5.78353 95.2197 6.41699C95.7529 7.05046 96.0195 7.95736 96.0195 9.1377V9.66406H91.0088C91.027 10.3932 91.2389 10.9834 91.6445 11.4346C92.0547 11.8812 92.5742 12.1045 93.2031 12.1045C93.6497 12.1045 94.028 12.0133 94.3379 11.8311C94.6478 11.6488 94.9189 11.4072 95.1514 11.1064L95.9238 11.708C95.304 12.6605 94.3743 13.1367 93.1348 13.1367ZM92.9775 6.50586C92.4671 6.50586 92.0387 6.69271 91.6924 7.06641C91.346 7.43555 91.1318 7.95508 91.0498 8.625H94.7549V8.5293C94.7184 7.88672 94.5452 7.38997 94.2354 7.03906C93.9255 6.68359 93.5062 6.50586 92.9775 6.50586ZM5.31348 29C5.22233 28.8223 5.15625 28.6012 5.11523 28.3369C4.63672 28.8701 4.01465 29.1367 3.24902 29.1367C2.52441 29.1367 1.92285 28.9271 1.44434 28.5078C0.970378 28.0885 0.733398 27.5599 0.733398 26.9219C0.733398 26.138 1.02279 25.5365 1.60156 25.1172C2.1849 24.6979 3.02572 24.486 4.12402 24.4814H5.0332V24.0576C5.0332 23.7158 4.94434 23.4424 4.7666 23.2373C4.59342 23.0322 4.31771 22.9297 3.93945 22.9297C3.60677 22.9297 3.34473 23.0094 3.15332 23.1689C2.96647 23.3285 2.87305 23.5472 2.87305 23.8252H0.897461C0.897461 23.3968 1.02962 23.0003 1.29395 22.6357C1.55827 22.2712 1.93197 21.9863 2.41504 21.7812C2.89811 21.5716 3.44043 21.4668 4.04199 21.4668C4.95345 21.4668 5.67578 21.6969 6.20898 22.1572C6.74674 22.613 7.01562 23.2555 7.01562 24.085V27.291C7.02018 27.9928 7.11816 28.5238 7.30957 28.8838V29H5.31348ZM3.67969 27.626C3.97135 27.626 4.24023 27.5622 4.48633 27.4346C4.73242 27.3024 4.91471 27.127 5.0332 26.9082V25.6367H4.29492C3.30599 25.6367 2.77962 25.9785 2.71582 26.6621L2.70898 26.7783C2.70898 27.0244 2.79557 27.2272 2.96875 27.3867C3.14193 27.5462 3.37891 27.626 3.67969 27.626ZM15.1982 25.3701C15.1982 26.555 14.9453 27.4801 14.4395 28.1455C13.9336 28.8063 13.2272 29.1367 12.3203 29.1367C11.5182 29.1367 10.8779 28.8291 10.3994 28.2139L10.3105 29H8.5332V18.5H10.5088V22.2666C10.9645 21.7334 11.5638 21.4668 12.3066 21.4668C13.209 21.4668 13.9154 21.7995 14.4258 22.4648C14.9408 23.1257 15.1982 24.0576 15.1982 25.2607V25.3701ZM13.2227 25.2266C13.2227 24.4792 13.1042 23.9346 12.8672 23.5928C12.6302 23.2464 12.277 23.0732 11.8076 23.0732C11.1787 23.0732 10.7458 23.3307 10.5088 23.8457V26.7646C10.7503 27.2842 11.1878 27.5439 11.8213 27.5439C12.4593 27.5439 12.8786 27.2295 13.0791 26.6006C13.1748 26.2998 13.2227 25.8418 13.2227 25.2266ZM16.1143 25.2334C16.1143 24.4997 16.2555 23.8457 16.5381 23.2715C16.8206 22.6973 17.2262 22.2529 17.7549 21.9385C18.2881 21.624 18.9056 21.4668 19.6074 21.4668C20.6055 21.4668 21.4189 21.7721 22.0479 22.3828C22.6813 22.9935 23.0345 23.8229 23.1074 24.8711L23.1211 25.377C23.1211 26.5117 22.8044 27.4232 22.1709 28.1113C21.5374 28.7949 20.6875 29.1367 19.6211 29.1367C18.5547 29.1367 17.7025 28.7949 17.0645 28.1113C16.431 27.4277 16.1143 26.498 16.1143 25.3223V25.2334ZM18.0898 25.377C18.0898 26.0788 18.222 26.6165 18.4863 26.9902C18.7507 27.3594 19.1289 27.5439 19.6211 27.5439C20.0996 27.5439 20.4733 27.3617 20.7422 26.9971C21.0111 26.6279 21.1455 26.04 21.1455 25.2334C21.1455 24.5452 21.0111 24.012 20.7422 23.6338C20.4733 23.2555 20.0951 23.0664 19.6074 23.0664C19.1243 23.0664 18.7507 23.2555 18.4863 23.6338C18.222 24.0075 18.0898 24.5885 18.0898 25.377ZM26.9971 26.5869L28.3711 21.6035H30.4355L27.9404 29H26.0537L23.5586 21.6035H25.623L26.9971 26.5869ZM34.6191 29.1367C33.5345 29.1367 32.6504 28.804 31.9668 28.1387C31.2878 27.4733 30.9482 26.5869 30.9482 25.4795V25.2881C30.9482 24.5452 31.0918 23.8822 31.3789 23.2988C31.666 22.7109 32.0716 22.2598 32.5957 21.9453C33.1243 21.6263 33.7259 21.4668 34.4004 21.4668C35.4121 21.4668 36.2074 21.7858 36.7861 22.4238C37.3695 23.0618 37.6611 23.9665 37.6611 25.1377V25.9443H32.9512C33.015 26.4274 33.2064 26.8148 33.5254 27.1064C33.849 27.3981 34.2568 27.5439 34.749 27.5439C35.5101 27.5439 36.1048 27.2682 36.5332 26.7168L37.5039 27.8037C37.2077 28.223 36.8066 28.5511 36.3008 28.7881C35.7949 29.0205 35.2344 29.1367 34.6191 29.1367ZM34.3936 23.0664C34.0016 23.0664 33.6826 23.1986 33.4365 23.4629C33.195 23.7272 33.04 24.1055 32.9717 24.5977H35.7197V24.4404C35.7106 24.0029 35.5921 23.6657 35.3643 23.4287C35.1364 23.1872 34.8128 23.0664 34.3936 23.0664ZM44.1758 19.8125V21.6035H45.5566V22.5811H44.1758V27.168C44.1758 27.4642 44.2373 27.6875 44.3604 27.8379C44.4834 27.9837 44.693 28.0566 44.9893 28.0566C45.1351 28.0566 45.3356 28.0293 45.5908 27.9746V29C45.2581 29.0911 44.9346 29.1367 44.6201 29.1367C44.055 29.1367 43.6289 28.9658 43.3418 28.624C43.0547 28.2822 42.9111 27.7969 42.9111 27.168V22.5811H41.5645V21.6035H42.9111V19.8125H44.1758ZM48.3047 22.499C48.8652 21.8109 49.5944 21.4668 50.4922 21.4668C52.0553 21.4668 52.8438 22.3486 52.8574 24.1123V29H51.5928V24.1055C51.5882 23.5723 51.4652 23.1781 51.2236 22.9229C50.9867 22.6676 50.6152 22.54 50.1094 22.54C49.6992 22.54 49.3392 22.6494 49.0293 22.8682C48.7194 23.0869 48.4779 23.374 48.3047 23.7295V29H47.04V18.5H48.3047V22.499ZM57.8203 29.1367C56.8177 29.1367 56.002 28.8086 55.373 28.1523C54.7441 27.4915 54.4297 26.6097 54.4297 25.5068V25.2744C54.4297 24.5407 54.5687 23.8867 54.8467 23.3125C55.1292 22.7337 55.5212 22.2826 56.0225 21.959C56.5283 21.6309 57.0752 21.4668 57.6631 21.4668C58.6247 21.4668 59.3721 21.7835 59.9053 22.417C60.4385 23.0505 60.7051 23.9574 60.7051 25.1377V25.6641H55.6943C55.7126 26.3932 55.9245 26.9834 56.3301 27.4346C56.7402 27.8812 57.2598 28.1045 57.8887 28.1045C58.3353 28.1045 58.7135 28.0133 59.0234 27.8311C59.3333 27.6488 59.6045 27.4072 59.8369 27.1064L60.6094 27.708C59.9896 28.6605 59.0599 29.1367 57.8203 29.1367ZM57.6631 22.5059C57.1527 22.5059 56.7243 22.6927 56.3779 23.0664C56.0316 23.4355 55.8174 23.9551 55.7354 24.625H59.4404V24.5293C59.404 23.8867 59.2308 23.39 58.9209 23.0391C58.611 22.6836 58.1917 22.5059 57.6631 22.5059ZM66.8369 21.6035L66.8711 22.4238C67.4134 21.7858 68.1449 21.4668 69.0654 21.4668C70.0999 21.4668 70.804 21.8633 71.1777 22.6562C71.4238 22.3008 71.7428 22.0137 72.1348 21.7949C72.5312 21.5762 72.9984 21.4668 73.5361 21.4668C75.1585 21.4668 75.9834 22.3258 76.0107 24.0439V29H74.7461V24.1191C74.7461 23.5905 74.6253 23.1963 74.3838 22.9365C74.1423 22.6722 73.7367 22.54 73.167 22.54C72.6976 22.54 72.3079 22.6813 71.998 22.9639C71.6882 23.2419 71.5081 23.6178 71.458 24.0918V29H70.1865V24.1533C70.1865 23.0778 69.6602 22.54 68.6074 22.54C67.778 22.54 67.2106 22.8932 66.9053 23.5996V29H65.6406V21.6035H66.8369ZM80.9941 29.1367C79.9915 29.1367 79.1758 28.8086 78.5469 28.1523C77.918 27.4915 77.6035 26.6097 77.6035 25.5068V25.2744C77.6035 24.5407 77.7425 23.8867 78.0205 23.3125C78.3031 22.7337 78.695 22.2826 79.1963 21.959C79.7021 21.6309 80.249 21.4668 80.8369 21.4668C81.7985 21.4668 82.5459 21.7835 83.0791 22.417C83.6123 23.0505 83.8789 23.9574 83.8789 25.1377V25.6641H78.8682C78.8864 26.3932 79.0983 26.9834 79.5039 27.4346C79.9141 27.8812 80.4336 28.1045 81.0625 28.1045C81.5091 28.1045 81.8874 28.0133 82.1973 27.8311C82.5072 27.6488 82.7783 27.4072 83.0107 27.1064L83.7832 27.708C83.1634 28.6605 82.2337 29.1367 80.9941 29.1367ZM80.8369 22.5059C80.3265 22.5059 79.8981 22.6927 79.5518 23.0664C79.2054 23.4355 78.9912 23.9551 78.9092 24.625H82.6143V24.5293C82.5778 23.8867 82.4046 23.39 82.0947 23.0391C81.7848 22.6836 81.3656 22.5059 80.8369 22.5059ZM89.915 29C89.8421 28.8542 89.7829 28.5944 89.7373 28.2207C89.1494 28.8314 88.4476 29.1367 87.6318 29.1367C86.9027 29.1367 86.3034 28.9316 85.834 28.5215C85.3691 28.1068 85.1367 27.5827 85.1367 26.9492C85.1367 26.179 85.4284 25.582 86.0117 25.1582C86.5996 24.7298 87.4245 24.5156 88.4863 24.5156H89.7168V23.9346C89.7168 23.4925 89.5846 23.1416 89.3203 22.8818C89.056 22.6175 88.6663 22.4854 88.1514 22.4854C87.7002 22.4854 87.3219 22.5993 87.0166 22.8271C86.7113 23.055 86.5586 23.3307 86.5586 23.6543H85.2871C85.2871 23.2852 85.417 22.9297 85.6768 22.5879C85.9411 22.2415 86.2965 21.9681 86.7432 21.7676C87.1943 21.5671 87.6888 21.4668 88.2266 21.4668C89.0788 21.4668 89.7464 21.681 90.2295 22.1094C90.7126 22.5332 90.9632 23.1188 90.9814 23.8662V27.2705C90.9814 27.9495 91.068 28.4896 91.2412 28.8906V29H89.915ZM87.8164 28.0361C88.2129 28.0361 88.5889 27.9336 88.9443 27.7285C89.2998 27.5234 89.5573 27.2568 89.7168 26.9287V25.4111H88.7256C87.1761 25.4111 86.4014 25.8646 86.4014 26.7715C86.4014 27.168 86.5335 27.4779 86.7979 27.7012C87.0622 27.9245 87.4017 28.0361 87.8164 28.0361ZM94.1602 21.6035L94.2012 22.5332C94.7663 21.8223 95.5046 21.4668 96.416 21.4668C97.9792 21.4668 98.7676 22.3486 98.7812 24.1123V29H97.5166V24.1055C97.512 23.5723 97.389 23.1781 97.1475 22.9229C96.9105 22.6676 96.5391 22.54 96.0332 22.54C95.623 22.54 95.263 22.6494 94.9531 22.8682C94.6432 23.0869 94.4017 23.374 94.2285 23.7295V29H92.9639V21.6035H94.1602Z" transform="translate(385 -2)" fill="black"/>
<path d="M1.41406 13V3.04688H4.22363C5.08952 3.04688 5.85514 3.23828 6.52051 3.62109C7.18587 4.00391 7.69857 4.5485 8.05859 5.25488C8.42318 5.96126 8.60775 6.77246 8.6123 7.68848V8.32422C8.6123 9.26302 8.43001 10.0856 8.06543 10.792C7.7054 11.4984 7.18815 12.0407 6.51367 12.4189C5.84375 12.7972 5.06217 12.9909 4.16895 13H1.41406ZM2.72656 4.12695V11.9268H4.10742C5.11914 11.9268 5.90527 11.6123 6.46582 10.9834C7.03092 10.3545 7.31348 9.45898 7.31348 8.29688V7.71582C7.31348 6.58561 7.04688 5.70833 6.51367 5.08398C5.98503 4.45508 5.23307 4.13607 4.25781 4.12695H2.72656ZM11.7773 13H10.5127V5.60352H11.7773V13ZM10.4102 3.6416C10.4102 3.43652 10.4717 3.26335 10.5947 3.12207C10.7223 2.98079 10.9092 2.91016 11.1553 2.91016C11.4014 2.91016 11.5882 2.98079 11.7158 3.12207C11.8434 3.26335 11.9072 3.43652 11.9072 3.6416C11.9072 3.84668 11.8434 4.01758 11.7158 4.1543C11.5882 4.29102 11.4014 4.35938 11.1553 4.35938C10.9092 4.35938 10.7223 4.29102 10.5947 4.1543C10.4717 4.01758 10.4102 3.84668 10.4102 3.6416ZM18.1143 11.0381C18.1143 10.6963 17.9844 10.432 17.7246 10.2451C17.4694 10.0537 17.0205 9.88965 16.3779 9.75293C15.7399 9.61621 15.2318 9.45215 14.8535 9.26074C14.4798 9.06934 14.2018 8.84147 14.0195 8.57715C13.8418 8.31283 13.7529 7.99837 13.7529 7.63379C13.7529 7.02767 14.0081 6.51497 14.5186 6.0957C15.0335 5.67643 15.6898 5.4668 16.4873 5.4668C17.3258 5.4668 18.0049 5.68327 18.5244 6.11621C19.0485 6.54915 19.3105 7.10286 19.3105 7.77734H18.0391C18.0391 7.43099 17.891 7.13249 17.5947 6.88184C17.3031 6.63118 16.9339 6.50586 16.4873 6.50586C16.027 6.50586 15.667 6.60612 15.4072 6.80664C15.1475 7.00716 15.0176 7.26921 15.0176 7.59277C15.0176 7.89811 15.1383 8.12826 15.3799 8.2832C15.6214 8.43815 16.0566 8.58626 16.6855 8.72754C17.319 8.86882 17.8317 9.03743 18.2236 9.2334C18.6156 9.42936 18.9049 9.66634 19.0918 9.94434C19.2832 10.2178 19.3789 10.5527 19.3789 10.9492C19.3789 11.61 19.1146 12.141 18.5859 12.542C18.0573 12.9385 17.3714 13.1367 16.5283 13.1367C15.9359 13.1367 15.4118 13.0319 14.9561 12.8223C14.5003 12.6126 14.1426 12.321 13.8828 11.9473C13.6276 11.569 13.5 11.1611 13.5 10.7236H14.7646C14.7874 11.1475 14.9561 11.4847 15.2705 11.7354C15.5895 11.9814 16.0088 12.1045 16.5283 12.1045C17.0068 12.1045 17.3896 12.0088 17.6768 11.8174C17.9684 11.6214 18.1143 11.3617 18.1143 11.0381ZM22.7422 3.8125V5.60352H24.123V6.58105H22.7422V11.168C22.7422 11.4642 22.8037 11.6875 22.9268 11.8379C23.0498 11.9837 23.2594 12.0566 23.5557 12.0566C23.7015 12.0566 23.902 12.0293 24.1572 11.9746V13C23.8245 13.0911 23.501 13.1367 23.1865 13.1367C22.6214 13.1367 22.1953 12.9658 21.9082 12.624C21.6211 12.2822 21.4775 11.7969 21.4775 11.168V6.58105H20.1309V5.60352H21.4775V3.8125H22.7422ZM30.1729 13C30.0999 12.8542 30.0407 12.5944 29.9951 12.2207C29.4072 12.8314 28.7054 13.1367 27.8896 13.1367C27.1605 13.1367 26.5612 12.9316 26.0918 12.5215C25.627 12.1068 25.3945 11.5827 25.3945 10.9492C25.3945 10.179 25.6862 9.58203 26.2695 9.1582C26.8574 8.72982 27.6823 8.51562 28.7441 8.51562H29.9746V7.93457C29.9746 7.49251 29.8424 7.1416 29.5781 6.88184C29.3138 6.61751 28.9242 6.48535 28.4092 6.48535C27.958 6.48535 27.5798 6.59928 27.2744 6.82715C26.9691 7.05501 26.8164 7.33073 26.8164 7.6543H25.5449C25.5449 7.28516 25.6748 6.92969 25.9346 6.58789C26.1989 6.24154 26.5544 5.9681 27.001 5.76758C27.4521 5.56706 27.9466 5.4668 28.4844 5.4668C29.3366 5.4668 30.0042 5.68099 30.4873 6.10938C30.9704 6.5332 31.221 7.11882 31.2393 7.86621V11.2705C31.2393 11.9495 31.3258 12.4896 31.499 12.8906V13H30.1729ZM28.0742 12.0361C28.4707 12.0361 28.8467 11.9336 29.2021 11.7285C29.5576 11.5234 29.8151 11.2568 29.9746 10.9287V9.41113H28.9834C27.4339 9.41113 26.6592 9.86458 26.6592 10.7715C26.6592 11.168 26.7913 11.4779 27.0557 11.7012C27.32 11.9245 27.6595 12.0361 28.0742 12.0361ZM34.418 5.60352L34.459 6.5332C35.0241 5.82227 35.7624 5.4668 36.6738 5.4668C38.237 5.4668 39.0254 6.34863 39.0391 8.1123V13H37.7744V8.10547C37.7699 7.57227 37.6468 7.17806 37.4053 6.92285C37.1683 6.66764 36.7969 6.54004 36.291 6.54004C35.8809 6.54004 35.5208 6.64941 35.2109 6.86816C34.901 7.08691 34.6595 7.37402 34.4863 7.72949V13H33.2217V5.60352H34.418ZM43.9131 12.1045C44.3643 12.1045 44.7585 11.9678 45.0957 11.6943C45.4329 11.4209 45.6198 11.0791 45.6562 10.6689H46.8525C46.8298 11.0928 46.6839 11.4961 46.415 11.8789C46.1462 12.2617 45.7861 12.5671 45.335 12.7949C44.8883 13.0228 44.4144 13.1367 43.9131 13.1367C42.9059 13.1367 42.1038 12.8018 41.5068 12.1318C40.9144 11.4574 40.6182 10.5368 40.6182 9.37012V9.1582C40.6182 8.43815 40.7503 7.79785 41.0146 7.2373C41.279 6.67676 41.6572 6.24154 42.1494 5.93164C42.6462 5.62174 43.2318 5.4668 43.9062 5.4668C44.7357 5.4668 45.4238 5.71517 45.9707 6.21191C46.5221 6.70866 46.8161 7.35352 46.8525 8.14648H45.6562C45.6198 7.66797 45.4375 7.27604 45.1094 6.9707C44.7858 6.66081 44.3848 6.50586 43.9062 6.50586C43.2637 6.50586 42.7646 6.73828 42.4092 7.20312C42.0583 7.66341 41.8828 8.33105 41.8828 9.20605V9.44531C41.8828 10.2975 42.0583 10.9538 42.4092 11.4141C42.7601 11.8743 43.2614 12.1045 43.9131 12.1045ZM51.3438 13.1367C50.3411 13.1367 49.5254 12.8086 48.8965 12.1523C48.2676 11.4915 47.9531 10.6097 47.9531 9.50684V9.27441C47.9531 8.54069 48.0921 7.88672 48.3701 7.3125C48.6527 6.73372 49.0446 6.28255 49.5459 5.95898C50.0518 5.63086 50.5986 5.4668 51.1865 5.4668C52.1481 5.4668 52.8955 5.78353 53.4287 6.41699C53.9619 7.05046 54.2285 7.95736 54.2285 9.1377V9.66406H49.2178C49.236 10.3932 49.4479 10.9834 49.8535 11.4346C50.2637 11.8812 50.7832 12.1045 51.4121 12.1045C51.8587 12.1045 52.237 12.0133 52.5469 11.8311C52.8568 11.6488 53.1279 11.4072 53.3604 11.1064L54.1328 11.708C53.513 12.6605 52.5833 13.1367 51.3438 13.1367ZM51.1865 6.50586C50.6761 6.50586 50.2477 6.69271 49.9014 7.06641C49.555 7.43555 49.3408 7.95508 49.2588 8.625H52.9639V8.5293C52.9274 7.88672 52.7542 7.38997 52.4443 7.03906C52.1344 6.68359 51.7152 6.50586 51.1865 6.50586Z" transform="translate(127 62)" fill="black"/>
<path d="M9.03125 15H7.57812V5.36719L4.66406 6.4375V5.125L8.80469 3.57031H9.03125V15ZM20.3906 10.7578H16.5781V9.57812H20.3906V10.7578ZM27.7266 8.60938H28.8125C29.4948 8.59896 30.0312 8.41927 30.4219 8.07031C30.8125 7.72135 31.0078 7.25 31.0078 6.65625C31.0078 5.32292 30.3438 4.65625 29.0156 4.65625C28.3906 4.65625 27.8906 4.83594 27.5156 5.19531C27.1458 5.54948 26.9609 6.02083 26.9609 6.60938H25.5156C25.5156 5.70833 25.8438 4.96094 26.5 4.36719C27.1615 3.76823 28 3.46875 29.0156 3.46875C30.0885 3.46875 30.9297 3.7526 31.5391 4.32031C32.1484 4.88802 32.4531 5.67708 32.4531 6.6875C32.4531 7.18229 32.2917 7.66146 31.9688 8.125C31.651 8.58854 31.2161 8.9349 30.6641 9.16406C31.2891 9.36198 31.7708 9.6901 32.1094 10.1484C32.4531 10.6068 32.625 11.1667 32.625 11.8281C32.625 12.849 32.2917 13.6589 31.625 14.2578C30.9583 14.8568 30.0911 15.1562 29.0234 15.1562C27.9557 15.1562 27.0859 14.8672 26.4141 14.2891C25.7474 13.7109 25.4141 12.9479 25.4141 12H26.8672C26.8672 12.599 27.0625 13.0781 27.4531 13.4375C27.8438 13.7969 28.3672 13.9766 29.0234 13.9766C29.7214 13.9766 30.2552 13.7943 30.625 13.4297C30.9948 13.0651 31.1797 12.5417 31.1797 11.8594C31.1797 11.1979 30.9766 10.6901 30.5703 10.3359C30.1641 9.98177 29.5781 9.79948 28.8125 9.78906H27.7266V8.60938Z" transform="translate(31 99)" fill="black"/>
<path d="M9.03125 15H7.57812V5.36719L4.66406 6.4375V5.125L8.80469 3.57031H9.03125V15ZM20.3906 10.7578H16.5781V9.57812H20.3906V10.7578ZM27.7266 8.60938H28.8125C29.4948 8.59896 30.0312 8.41927 30.4219 8.07031C30.8125 7.72135 31.0078 7.25 31.0078 6.65625C31.0078 5.32292 30.3438 4.65625 29.0156 4.65625C28.3906 4.65625 27.8906 4.83594 27.5156 5.19531C27.1458 5.54948 26.9609 6.02083 26.9609 6.60938H25.5156C25.5156 5.70833 25.8438 4.96094 26.5 4.36719C27.1615 3.76823 28 3.46875 29.0156 3.46875C30.0885 3.46875 30.9297 3.7526 31.5391 4.32031C32.1484 4.88802 32.4531 5.67708 32.4531 6.6875C32.4531 7.18229 32.2917 7.66146 31.9688 8.125C31.651 8.58854 31.2161 8.9349 30.6641 9.16406C31.2891 9.36198 31.7708 9.6901 32.1094 10.1484C32.4531 10.6068 32.625 11.1667 32.625 11.8281C32.625 12.849 32.2917 13.6589 31.625 14.2578C30.9583 14.8568 30.0911 15.1562 29.0234 15.1562C27.9557 15.1562 27.0859 14.8672 26.4141 14.2891C25.7474 13.7109 25.4141 12.9479 25.4141 12H26.8672C26.8672 12.599 27.0625 13.0781 27.4531 13.4375C27.8438 13.7969 28.3672 13.9766 29.0234 13.9766C29.7214 13.9766 30.2552 13.7943 30.625 13.4297C30.9948 13.0651 31.1797 12.5417 31.1797 11.8594C31.1797 11.1979 30.9766 10.6901 30.5703 10.3359C30.1641 9.98177 29.5781 9.79948 28.8125 9.78906H27.7266V8.60938Z" transform="translate(31 122)" fill="black"/>
<path d="M9.03125 15H7.57812V5.36719L4.66406 6.4375V5.125L8.80469 3.57031H9.03125V15ZM20.3906 10.7578H16.5781V9.57812H20.3906V10.7578ZM27.7266 8.60938H28.8125C29.4948 8.59896 30.0312 8.41927 30.4219 8.07031C30.8125 7.72135 31.0078 7.25 31.0078 6.65625C31.0078 5.32292 30.3438 4.65625 29.0156 4.65625C28.3906 4.65625 27.8906 4.83594 27.5156 5.19531C27.1458 5.54948 26.9609 6.02083 26.9609 6.60938H25.5156C25.5156 5.70833 25.8438 4.96094 26.5 4.36719C27.1615 3.76823 28 3.46875 29.0156 3.46875C30.0885 3.46875 30.9297 3.7526 31.5391 4.32031C32.1484 4.88802 32.4531 5.67708 32.4531 6.6875C32.4531 7.18229 32.2917 7.66146 31.9688 8.125C31.651 8.58854 31.2161 8.9349 30.6641 9.16406C31.2891 9.36198 31.7708 9.6901 32.1094 10.1484C32.4531 10.6068 32.625 11.1667 32.625 11.8281C32.625 12.849 32.2917 13.6589 31.625 14.2578C30.9583 14.8568 30.0911 15.1562 29.0234 15.1562C27.9557 15.1562 27.0859 14.8672 26.4141 14.2891C25.7474 13.7109 25.4141 12.9479 25.4141 12H26.8672C26.8672 12.599 27.0625 13.0781 27.4531 13.4375C27.8438 13.7969 28.3672 13.9766 29.0234 13.9766C29.7214 13.9766 30.2552 13.7943 30.625 13.4297C30.9948 13.0651 31.1797 12.5417 31.1797 11.8594C31.1797 11.1979 30.9766 10.6901 30.5703 10.3359C30.1641 9.98177 29.5781 9.79948 28.8125 9.78906H27.7266V8.60938Z" transform="translate(31 145)" fill="black"/>
<path d="M9.03125 15H7.57812V5.36719L4.66406 6.4375V5.125L8.80469 3.57031H9.03125V15ZM20.3906 10.7578H16.5781V9.57812H20.3906V10.7578ZM27.7266 8.60938H28.8125C29.4948 8.59896 30.0312 8.41927 30.4219 8.07031C30.8125 7.72135 31.0078 7.25 31.0078 6.65625C31.0078 5.32292 30.3438 4.65625 29.0156 4.65625C28.3906 4.65625 27.8906 4.83594 27.5156 5.19531C27.1458 5.54948 26.9609 6.02083 26.9609 6.60938H25.5156C25.5156 5.70833 25.8438 4.96094 26.5 4.36719C27.1615 3.76823 28 3.46875 29.0156 3.46875C30.0885 3.46875 30.9297 3.7526 31.5391 4.32031C32.1484 4.88802 32.4531 5.67708 32.4531 6.6875C32.4531 7.18229 32.2917 7.66146 31.9688 8.125C31.651 8.58854 31.2161 8.9349 30.6641 9.16406C31.2891 9.36198 31.7708 9.6901 32.1094 10.1484C32.4531 10.6068 32.625 11.1667 32.625 11.8281C32.625 12.849 32.2917 13.6589 31.625 14.2578C30.9583 14.8568 30.0911 15.1562 29.0234 15.1562C27.9557 15.1562 27.0859 14.8672 26.4141 14.2891C25.7474 13.7109 25.4141 12.9479 25.4141 12H26.8672C26.8672 12.599 27.0625 13.0781 27.4531 13.4375C27.8438 13.7969 28.3672 13.9766 29.0234 13.9766C29.7214 13.9766 30.2552 13.7943 30.625 13.4297C30.9948 13.0651 31.1797 12.5417 31.1797 11.8594C31.1797 11.1979 30.9766 10.6901 30.5703 10.3359C30.1641 9.98177 29.5781 9.79948 28.8125 9.78906H27.7266V8.60938Z" transform="translate(31 165)" fill="black"/>
<path d="M9.03125 15H7.57812V5.36719L4.66406 6.4375V5.125L8.80469 3.57031H9.03125V15ZM20.3906 10.7578H16.5781V9.57812H20.3906V10.7578ZM27.7266 8.60938H28.8125C29.4948 8.59896 30.0312 8.41927 30.4219 8.07031C30.8125 7.72135 31.0078 7.25 31.0078 6.65625C31.0078 5.32292 30.3438 4.65625 29.0156 4.65625C28.3906 4.65625 27.8906 4.83594 27.5156 5.19531C27.1458 5.54948 26.9609 6.02083 26.9609 6.60938H25.5156C25.5156 5.70833 25.8438 4.96094 26.5 4.36719C27.1615 3.76823 28 3.46875 29.0156 3.46875C30.0885 3.46875 30.9297 3.7526 31.5391 4.32031C32.1484 4.88802 32.4531 5.67708 32.4531 6.6875C32.4531 7.18229 32.2917 7.66146 31.9688 8.125C31.651 8.58854 31.2161 8.9349 30.6641 9.16406C31.2891 9.36198 31.7708 9.6901 32.1094 10.1484C32.4531 10.6068 32.625 11.1667 32.625 11.8281C32.625 12.849 32.2917 13.6589 31.625 14.2578C30.9583 14.8568 30.0911 15.1562 29.0234 15.1562C27.9557 15.1562 27.0859 14.8672 26.4141 14.2891C25.7474 13.7109 25.4141 12.9479 25.4141 12H26.8672C26.8672 12.599 27.0625 13.0781 27.4531 13.4375C27.8438 13.7969 28.3672 13.9766 29.0234 13.9766C29.7214 13.9766 30.2552 13.7943 30.625 13.4297C30.9948 13.0651 31.1797 12.5417 31.1797 11.8594C31.1797 11.1979 30.9766 10.6901 30.5703 10.3359C30.1641 9.98177 29.5781 9.79948 28.8125 9.78906H27.7266V8.60938Z" transform="translate(31 188)" fill="black"/>
<path d="M9.03125 15H7.57812V5.36719L4.66406 6.4375V5.125L8.80469 3.57031H9.03125V15ZM20.3906 10.7578H16.5781V9.57812H20.3906V10.7578ZM27.7266 8.60938H28.8125C29.4948 8.59896 30.0312 8.41927 30.4219 8.07031C30.8125 7.72135 31.0078 7.25 31.0078 6.65625C31.0078 5.32292 30.3438 4.65625 29.0156 4.65625C28.3906 4.65625 27.8906 4.83594 27.5156 5.19531C27.1458 5.54948 26.9609 6.02083 26.9609 6.60938H25.5156C25.5156 5.70833 25.8438 4.96094 26.5 4.36719C27.1615 3.76823 28 3.46875 29.0156 3.46875C30.0885 3.46875 30.9297 3.7526 31.5391 4.32031C32.1484 4.88802 32.4531 5.67708 32.4531 6.6875C32.4531 7.18229 32.2917 7.66146 31.9688 8.125C31.651 8.58854 31.2161 8.9349 30.6641 9.16406C31.2891 9.36198 31.7708 9.6901 32.1094 10.1484C32.4531 10.6068 32.625 11.1667 32.625 11.8281C32.625 12.849 32.2917 13.6589 31.625 14.2578C30.9583 14.8568 30.0911 15.1562 29.0234 15.1562C27.9557 15.1562 27.0859 14.8672 26.4141 14.2891C25.7474 13.7109 25.4141 12.9479 25.4141 12H26.8672C26.8672 12.599 27.0625 13.0781 27.4531 13.4375C27.8438 13.7969 28.3672 13.9766 29.0234 13.9766C29.7214 13.9766 30.2552 13.7943 30.625 13.4297C30.9948 13.0651 31.1797 12.5417 31.1797 11.8594C31.1797 11.1979 30.9766 10.6901 30.5703 10.3359C30.1641 9.98177 29.5781 9.79948 28.8125 9.78906H27.7266V8.60938Z" transform="translate(31 211)" fill="black"/>
<path d="M9.03125 15H7.57812V5.36719L4.66406 6.4375V5.125L8.80469 3.57031H9.03125V15ZM20.3906 10.7578H16.5781V9.57812H20.3906V10.7578ZM27.7266 8.60938H28.8125C29.4948 8.59896 30.0312 8.41927 30.4219 8.07031C30.8125 7.72135 31.0078 7.25 31.0078 6.65625C31.0078 5.32292 30.3438 4.65625 29.0156 4.65625C28.3906 4.65625 27.8906 4.83594 27.5156 5.19531C27.1458 5.54948 26.9609 6.02083 26.9609 6.60938H25.5156C25.5156 5.70833 25.8438 4.96094 26.5 4.36719C27.1615 3.76823 28 3.46875 29.0156 3.46875C30.0885 3.46875 30.9297 3.7526 31.5391 4.32031C32.1484 4.88802 32.4531 5.67708 32.4531 6.6875C32.4531 7.18229 32.2917 7.66146 31.9688 8.125C31.651 8.58854 31.2161 8.9349 30.6641 9.16406C31.2891 9.36198 31.7708 9.6901 32.1094 10.1484C32.4531 10.6068 32.625 11.1667 32.625 11.8281C32.625 12.849 32.2917 13.6589 31.625 14.2578C30.9583 14.8568 30.0911 15.1562 29.0234 15.1562C27.9557 15.1562 27.0859 14.8672 26.4141 14.2891C25.7474 13.7109 25.4141 12.9479 25.4141 12H26.8672C26.8672 12.599 27.0625 13.0781 27.4531 13.4375C27.8438 13.7969 28.3672 13.9766 29.0234 13.9766C29.7214 13.9766 30.2552 13.7943 30.625 13.4297C30.9948 13.0651 31.1797 12.5417 31.1797 11.8594C31.1797 11.1979 30.9766 10.6901 30.5703 10.3359C30.1641 9.98177 29.5781 9.79948 28.8125 9.78906H27.7266V8.60938Z" transform="translate(31 231)" fill="black"/>
<path d="M9.03125 15H7.57812V5.36719L4.66406 6.4375V5.125L8.80469 3.57031H9.03125V15ZM20.3906 10.7578H16.5781V9.57812H20.3906V10.7578ZM27.7266 8.60938H28.8125C29.4948 8.59896 30.0312 8.41927 30.4219 8.07031C30.8125 7.72135 31.0078 7.25 31.0078 6.65625C31.0078 5.32292 30.3438 4.65625 29.0156 4.65625C28.3906 4.65625 27.8906 4.83594 27.5156 5.19531C27.1458 5.54948 26.9609 6.02083 26.9609 6.60938H25.5156C25.5156 5.70833 25.8438 4.96094 26.5 4.36719C27.1615 3.76823 28 3.46875 29.0156 3.46875C30.0885 3.46875 30.9297 3.7526 31.5391 4.32031C32.1484 4.88802 32.4531 5.67708 32.4531 6.6875C32.4531 7.18229 32.2917 7.66146 31.9688 8.125C31.651 8.58854 31.2161 8.9349 30.6641 9.16406C31.2891 9.36198 31.7708 9.6901 32.1094 10.1484C32.4531 10.6068 32.625 11.1667 32.625 11.8281C32.625 12.849 32.2917 13.6589 31.625 14.2578C30.9583 14.8568 30.0911 15.1562 29.0234 15.1562C27.9557 15.1562 27.0859 14.8672 26.4141 14.2891C25.7474 13.7109 25.4141 12.9479 25.4141 12H26.8672C26.8672 12.599 27.0625 13.0781 27.4531 13.4375C27.8438 13.7969 28.3672 13.9766 29.0234 13.9766C29.7214 13.9766 30.2552 13.7943 30.625 13.4297C30.9948 13.0651 31.1797 12.5417 31.1797 11.8594C31.1797 11.1979 30.9766 10.6901 30.5703 10.3359C30.1641 9.98177 29.5781 9.79948 28.8125 9.78906H27.7266V8.60938Z" transform="translate(31 254)" fill="black"/>
<path d="M9.03125 15H7.57812V5.36719L4.66406 6.4375V5.125L8.80469 3.57031H9.03125V15ZM20.3906 10.7578H16.5781V9.57812H20.3906V10.7578ZM27.7266 8.60938H28.8125C29.4948 8.59896 30.0312 8.41927 30.4219 8.07031C30.8125 7.72135 31.0078 7.25 31.0078 6.65625C31.0078 5.32292 30.3438 4.65625 29.0156 4.65625C28.3906 4.65625 27.8906 4.83594 27.5156 5.19531C27.1458 5.54948 26.9609 6.02083 26.9609 6.60938H25.5156C25.5156 5.70833 25.8438 4.96094 26.5 4.36719C27.1615 3.76823 28 3.46875 29.0156 3.46875C30.0885 3.46875 30.9297 3.7526 31.5391 4.32031C32.1484 4.88802 32.4531 5.67708 32.4531 6.6875C32.4531 7.18229 32.2917 7.66146 31.9688 8.125C31.651 8.58854 31.2161 8.9349 30.6641 9.16406C31.2891 9.36198 31.7708 9.6901 32.1094 10.1484C32.4531 10.6068 32.625 11.1667 32.625 11.8281C32.625 12.849 32.2917 13.6589 31.625 14.2578C30.9583 14.8568 30.0911 15.1562 29.0234 15.1562C27.9557 15.1562 27.0859 14.8672 26.4141 14.2891C25.7474 13.7109 25.4141 12.9479 25.4141 12H26.8672C26.8672 12.599 27.0625 13.0781 27.4531 13.4375C27.8438 13.7969 28.3672 13.9766 29.0234 13.9766C29.7214 13.9766 30.2552 13.7943 30.625 13.4297C30.9948 13.0651 31.1797 12.5417 31.1797 11.8594C31.1797 11.1979 30.9766 10.6901 30.5703 10.3359C30.1641 9.98177 29.5781 9.79948 28.8125 9.78906H27.7266V8.60938Z" transform="translate(31 277)" fill="black"/>
<path d="M10.1797 4.85938H6.64062L4.88281 15H3.42188L5.17969 4.85938H1.64062L1.85938 3.625H10.3984L10.1797 4.85938ZM13.8281 6.39062C14.5365 6.40104 15.1432 6.59375 15.6484 6.96875C16.1536 7.34375 16.526 7.86198 16.7656 8.52344C17.0104 9.17969 17.0938 9.89844 17.0156 10.6797L17 10.8516C16.901 11.6745 16.6562 12.4193 16.2656 13.0859C15.875 13.7474 15.3698 14.263 14.75 14.6328C14.1302 15.0026 13.4505 15.1771 12.7109 15.1562C12.0078 15.1458 11.401 14.9531 10.8906 14.5781C10.3854 14.2031 10.0156 13.6927 9.78125 13.0469C9.54688 12.401 9.46354 11.6901 9.53125 10.9141C9.60938 10.0391 9.84635 9.2526 10.2422 8.55469C10.638 7.85677 11.1458 7.31771 11.7656 6.9375C12.3906 6.55208 13.0781 6.36979 13.8281 6.39062ZM10.9531 10.9219C10.9167 11.25 10.9167 11.5911 10.9531 11.9453C11.0052 12.5599 11.1875 13.0495 11.5 13.4141C11.8177 13.7786 12.2396 13.9688 12.7656 13.9844C13.2344 14 13.6667 13.8854 14.0625 13.6406C14.4583 13.3906 14.7917 13.0156 15.0625 12.5156C15.3333 12.0156 15.5078 11.4609 15.5859 10.8516C15.6276 10.3724 15.6354 9.96875 15.6094 9.64062C15.5469 9.01042 15.3568 8.51302 15.0391 8.14844C14.7214 7.78385 14.2995 7.59115 13.7734 7.57031C13.0443 7.55469 12.4245 7.84115 11.9141 8.42969C11.4036 9.01823 11.0885 9.78906 10.9688 10.7422L10.9531 10.9219ZM21.8047 4.5L21.4453 6.54688H22.9844L22.7891 7.66406H21.2578L20.375 12.9219C20.3594 13.0573 20.3568 13.1823 20.3672 13.2969C20.4036 13.7031 20.625 13.9062 21.0312 13.9062C21.2031 13.9062 21.4323 13.8802 21.7188 13.8281L21.6094 15.0078C21.2708 15.1016 20.9271 15.1484 20.5781 15.1484C20.0156 15.138 19.5938 14.9323 19.3125 14.5312C19.0312 14.125 18.9219 13.5807 18.9844 12.8984L19.8438 7.66406H18.3516L18.5469 6.54688H20.0391L20.3984 4.5H21.8047ZM28.3984 15C28.362 14.849 28.3438 14.7005 28.3438 14.5547L28.3672 14.1094C27.5911 14.8281 26.7682 15.1771 25.8984 15.1562C25.1536 15.1458 24.5469 14.9115 24.0781 14.4531C23.6146 13.9896 23.4036 13.4115 23.4453 12.7188C23.4974 11.8229 23.888 11.125 24.6172 10.625C25.3516 10.1198 26.3151 9.86719 27.5078 9.86719L28.9844 9.875L29.0781 9.20312C29.1302 8.69792 29.0312 8.29948 28.7812 8.00781C28.5365 7.71094 28.1667 7.55729 27.6719 7.54688C27.1875 7.53646 26.7578 7.65625 26.3828 7.90625C26.013 8.15104 25.7865 8.47656 25.7031 8.88281L24.2812 8.89062C24.3281 8.39583 24.5208 7.95833 24.8594 7.57812C25.1979 7.19271 25.6328 6.89583 26.1641 6.6875C26.6953 6.47396 27.2448 6.3724 27.8125 6.38281C28.6927 6.40365 29.3776 6.67188 29.8672 7.1875C30.3568 7.69792 30.5625 8.3776 30.4844 9.22656L29.7969 13.4141L29.7578 14.0156C29.7474 14.3021 29.7786 14.5859 29.8516 14.8672L29.8359 15H28.3984ZM26.1797 13.9062C26.6328 13.9167 27.0599 13.8099 27.4609 13.5859C27.8672 13.3568 28.2161 13.0417 28.5078 12.6406L28.8125 10.8984L27.7422 10.8906C26.8516 10.8906 26.1693 11.0312 25.6953 11.3125C25.2214 11.5938 24.9531 11.9922 24.8906 12.5078C24.8438 12.9036 24.9349 13.2344 25.1641 13.5C25.3984 13.7604 25.737 13.8958 26.1797 13.9062ZM33.2891 15H31.8828L33.9609 3H35.375L33.2891 15ZM47.0469 8.64062H40.7188L40.9375 7.38281H47.2734L47.0469 8.64062ZM46.4844 11.8828H40.1562L40.375 10.6328H46.7109L46.4844 11.8828ZM55.7031 10.7578H51.9922L52.2031 9.57812H55.9141L55.7031 10.7578ZM64.7969 15H63.375L65.0469 5.40625L62.0234 6.46875L62.2656 5.09375L66.4844 3.57031H66.7344L64.7969 15ZM77.1875 6.52344C77.1406 7.09115 76.9375 7.60417 76.5781 8.0625C76.224 8.51562 75.7396 8.89062 75.125 9.1875C75.6146 9.46875 75.9766 9.84635 76.2109 10.3203C76.4505 10.7891 76.5495 11.3021 76.5078 11.8594C76.4297 12.8646 76.0182 13.6719 75.2734 14.2812C74.5286 14.8854 73.6302 15.1771 72.5781 15.1562C71.5938 15.1354 70.8151 14.8307 70.2422 14.2422C69.6693 13.6536 69.4219 12.9036 69.5 11.9922C69.5573 11.3411 69.7865 10.7734 70.1875 10.2891C70.5885 9.79948 71.1354 9.40365 71.8281 9.10156C71.4219 8.82031 71.1198 8.46615 70.9219 8.03906C70.7292 7.61198 70.6536 7.15365 70.6953 6.66406C70.7682 5.70052 71.1458 4.92188 71.8281 4.32812C72.5104 3.73438 73.349 3.44792 74.3438 3.46875C75.25 3.48958 75.9688 3.78385 76.5 4.35156C77.0312 4.91927 77.2604 5.64323 77.1875 6.52344ZM75.1094 11.8281C75.1719 11.2396 75.0469 10.75 74.7344 10.3594C74.4219 9.96354 73.9688 9.75521 73.375 9.73438C72.7292 9.72396 72.1771 9.92969 71.7188 10.3516C71.2604 10.7682 70.9948 11.3073 70.9219 11.9688C70.8594 12.5729 70.9844 13.0573 71.2969 13.4219C71.6146 13.7865 72.0625 13.974 72.6406 13.9844C73.2969 14.0052 73.8542 13.8151 74.3125 13.4141C74.7708 13.0078 75.0365 12.4792 75.1094 11.8281ZM75.7656 6.54688C75.8229 6.02083 75.7135 5.57812 75.4375 5.21875C75.1667 4.85938 74.7786 4.66927 74.2734 4.64844C73.6901 4.63802 73.1979 4.82552 72.7969 5.21094C72.3958 5.59115 72.1615 6.08333 72.0938 6.6875C72.0365 7.22917 72.1458 7.67448 72.4219 8.02344C72.7031 8.3724 73.0964 8.55208 73.6016 8.5625C74.1693 8.57292 74.6536 8.39062 75.0547 8.01562C75.4609 7.63542 75.6979 7.14583 75.7656 6.54688Z" transform="translate(119 323)" fill="black"/>
<line y1="-0.5" x2="88.0227" y2="-0.5" transform="translate(114 318)" stroke="black"/>
<path d="M9.92188 4.85938H6.38281L4.625 15H3.16406L4.92188 4.85938H1.38281L1.60156 3.625H10.1406L9.92188 4.85938ZM13.5703 6.39062C14.2786 6.40104 14.8854 6.59375 15.3906 6.96875C15.8958 7.34375 16.2682 7.86198 16.5078 8.52344C16.7526 9.17969 16.8359 9.89844 16.7578 10.6797L16.7422 10.8516C16.6432 11.6745 16.3984 12.4193 16.0078 13.0859C15.6172 13.7474 15.112 14.263 14.4922 14.6328C13.8724 15.0026 13.1927 15.1771 12.4531 15.1562C11.75 15.1458 11.1432 14.9531 10.6328 14.5781C10.1276 14.2031 9.75781 13.6927 9.52344 13.0469C9.28906 12.401 9.20573 11.6901 9.27344 10.9141C9.35156 10.0391 9.58854 9.2526 9.98438 8.55469C10.3802 7.85677 10.888 7.31771 11.5078 6.9375C12.1328 6.55208 12.8203 6.36979 13.5703 6.39062ZM10.6953 10.9219C10.6589 11.25 10.6589 11.5911 10.6953 11.9453C10.7474 12.5599 10.9297 13.0495 11.2422 13.4141C11.5599 13.7786 11.9818 13.9688 12.5078 13.9844C12.9766 14 13.4089 13.8854 13.8047 13.6406C14.2005 13.3906 14.5339 13.0156 14.8047 12.5156C15.0755 12.0156 15.25 11.4609 15.3281 10.8516C15.3698 10.3724 15.3776 9.96875 15.3516 9.64062C15.2891 9.01042 15.099 8.51302 14.7812 8.14844C14.4635 7.78385 14.0417 7.59115 13.5156 7.57031C12.7865 7.55469 12.1667 7.84115 11.6562 8.42969C11.1458 9.01823 10.8307 9.78906 10.7109 10.7422L10.6953 10.9219ZM21.5469 4.5L21.1875 6.54688H22.7266L22.5312 7.66406H21L20.1172 12.9219C20.1016 13.0573 20.099 13.1823 20.1094 13.2969C20.1458 13.7031 20.3672 13.9062 20.7734 13.9062C20.9453 13.9062 21.1745 13.8802 21.4609 13.8281L21.3516 15.0078C21.013 15.1016 20.6693 15.1484 20.3203 15.1484C19.7578 15.138 19.3359 14.9323 19.0547 14.5312C18.7734 14.125 18.6641 13.5807 18.7266 12.8984L19.5859 7.66406H18.0938L18.2891 6.54688H19.7812L20.1406 4.5H21.5469ZM28.1406 15C28.1042 14.849 28.0859 14.7005 28.0859 14.5547L28.1094 14.1094C27.3333 14.8281 26.5104 15.1771 25.6406 15.1562C24.8958 15.1458 24.2891 14.9115 23.8203 14.4531C23.3568 13.9896 23.1458 13.4115 23.1875 12.7188C23.2396 11.8229 23.6302 11.125 24.3594 10.625C25.0938 10.1198 26.0573 9.86719 27.25 9.86719L28.7266 9.875L28.8203 9.20312C28.8724 8.69792 28.7734 8.29948 28.5234 8.00781C28.2786 7.71094 27.9089 7.55729 27.4141 7.54688C26.9297 7.53646 26.5 7.65625 26.125 7.90625C25.7552 8.15104 25.5286 8.47656 25.4453 8.88281L24.0234 8.89062C24.0703 8.39583 24.263 7.95833 24.6016 7.57812C24.9401 7.19271 25.375 6.89583 25.9062 6.6875C26.4375 6.47396 26.987 6.3724 27.5547 6.38281C28.4349 6.40365 29.1198 6.67188 29.6094 7.1875C30.099 7.69792 30.3047 8.3776 30.2266 9.22656L29.5391 13.4141L29.5 14.0156C29.4896 14.3021 29.5208 14.5859 29.5938 14.8672L29.5781 15H28.1406ZM25.9219 13.9062C26.375 13.9167 26.8021 13.8099 27.2031 13.5859C27.6094 13.3568 27.9583 13.0417 28.25 12.6406L28.5547 10.8984L27.4844 10.8906C26.5938 10.8906 25.9115 11.0312 25.4375 11.3125C24.9635 11.5938 24.6953 11.9922 24.6328 12.5078C24.5859 12.9036 24.6771 13.2344 24.9062 13.5C25.1406 13.7604 25.4792 13.8958 25.9219 13.9062ZM33.0312 15H31.625L33.7031 3H35.1172L33.0312 15ZM46.7891 8.64062H40.4609L40.6797 7.38281H47.0156L46.7891 8.64062ZM46.2266 11.8828H39.8984L40.1172 10.6328H46.4531L46.2266 11.8828ZM56.8672 8.89844H59.9453L59.7031 10.2656H56.6328L56.0078 13.8594H54.5859L55.2109 10.2656H52.1328L52.375 8.89844H55.4453L56.0234 5.57812H57.4453L56.8672 8.89844ZM69.0547 15H67.6328L69.3047 5.40625L66.2812 6.46875L66.5234 5.09375L70.7422 3.57031H70.9922L69.0547 15ZM81.4453 6.52344C81.3984 7.09115 81.1953 7.60417 80.8359 8.0625C80.4818 8.51562 79.9974 8.89062 79.3828 9.1875C79.8724 9.46875 80.2344 9.84635 80.4688 10.3203C80.7083 10.7891 80.8073 11.3021 80.7656 11.8594C80.6875 12.8646 80.276 13.6719 79.5312 14.2812C78.7865 14.8854 77.888 15.1771 76.8359 15.1562C75.8516 15.1354 75.0729 14.8307 74.5 14.2422C73.9271 13.6536 73.6797 12.9036 73.7578 11.9922C73.8151 11.3411 74.0443 10.7734 74.4453 10.2891C74.8464 9.79948 75.3932 9.40365 76.0859 9.10156C75.6797 8.82031 75.3776 8.46615 75.1797 8.03906C74.987 7.61198 74.9115 7.15365 74.9531 6.66406C75.026 5.70052 75.4036 4.92188 76.0859 4.32812C76.7682 3.73438 77.6068 3.44792 78.6016 3.46875C79.5078 3.48958 80.2266 3.78385 80.7578 4.35156C81.2891 4.91927 81.5182 5.64323 81.4453 6.52344ZM79.3672 11.8281C79.4297 11.2396 79.3047 10.75 78.9922 10.3594C78.6797 9.96354 78.2266 9.75521 77.6328 9.73438C76.987 9.72396 76.4349 9.92969 75.9766 10.3516C75.5182 10.7682 75.2526 11.3073 75.1797 11.9688C75.1172 12.5729 75.2422 13.0573 75.5547 13.4219C75.8724 13.7865 76.3203 13.974 76.8984 13.9844C77.5547 14.0052 78.112 13.8151 78.5703 13.4141C79.0286 13.0078 79.2943 12.4792 79.3672 11.8281ZM80.0234 6.54688C80.0807 6.02083 79.9714 5.57812 79.6953 5.21875C79.4245 4.85938 79.0365 4.66927 78.5312 4.64844C77.9479 4.63802 77.4557 4.82552 77.0547 5.21094C76.6536 5.59115 76.4193 6.08333 76.3516 6.6875C76.2943 7.22917 76.4036 7.67448 76.6797 8.02344C76.9609 8.3724 77.3542 8.55208 77.8594 8.5625C78.4271 8.57292 78.9115 8.39062 79.3125 8.01562C79.7188 7.63542 79.9557 7.14583 80.0234 6.54688Z" transform="translate(444 142)" fill="black"/>
<line y1="-0.5" x2="88.0227" y2="-0.5" transform="translate(441 137)" stroke="black"/>
<path d="M5.97656 13.9375L9.42188 9.32031H12.0234L6.9375 15.6953L10.0312 22H7.72266L5.625 17.2656L2.05078 22H-0.539062L4.69922 15.4844L1.69922 9.32031H4.01953L5.97656 13.9375Z" transform="translate(29 55)" fill="black"/>
<path d="M1.38867 11H0.333984L1.43555 4.66016H2.49023L1.38867 11ZM2.26172 2.3457C2.44141 2.33789 2.58984 2.39258 2.70703 2.50977C2.82812 2.62305 2.88867 2.77344 2.88867 2.96094C2.88477 3.14453 2.82422 3.29492 2.70703 3.41211C2.59375 3.5293 2.44531 3.5918 2.26172 3.59961C2.07812 3.60742 1.92773 3.55469 1.81055 3.44141C1.69336 3.32813 1.63672 3.17969 1.64062 2.99609C1.64453 2.8125 1.70312 2.66016 1.81641 2.53906C1.92969 2.41797 2.07812 2.35352 2.26172 2.3457Z" transform="translate(40 70)" fill="black"/>
<path d="M5.99219 15.6367H0.425781L0.742188 13.8672H6.30859L5.99219 15.6367ZM17.4062 9.32031L16.1992 16.6328C16.1211 17.2891 16.0938 17.8438 16.1172 18.2969C16.1953 19.7266 16.8047 20.4531 17.9453 20.4766C19.375 20.5234 20.4688 19.9336 21.2266 18.707L22.8555 9.32031H24.9883L22.7852 22H20.8867L21.1094 20.6523C20.2422 21.7305 19.1758 22.2617 17.9102 22.2461C16.8555 22.2461 16.0156 21.9531 15.3906 21.3672L14.3477 26.875H12.2383L15.2852 9.32031H17.4062Z" transform="translate(49 55)" fill="black"/>
<path d="M4.41406 10.7578H0.601562V9.57812H4.41406V10.7578ZM17.1016 15H9.64844V13.9609L13.5859 9.58594C14.1693 8.92448 14.5703 8.38802 14.7891 7.97656C15.013 7.5599 15.125 7.13021 15.125 6.6875C15.125 6.09375 14.9453 5.60677 14.5859 5.22656C14.2266 4.84635 13.7474 4.65625 13.1484 4.65625C12.4297 4.65625 11.8698 4.86198 11.4688 5.27344C11.0729 5.67969 10.875 6.2474 10.875 6.97656H9.42969C9.42969 5.92969 9.76562 5.08333 10.4375 4.4375C11.1146 3.79167 12.0182 3.46875 13.1484 3.46875C14.2057 3.46875 15.0417 3.7474 15.6562 4.30469C16.2708 4.85677 16.5781 5.59375 16.5781 6.51562C16.5781 7.63542 15.8646 8.96875 14.4375 10.5156L11.3906 13.8203H17.1016V15Z" transform="translate(142 99)" fill="black"/>
<path d="M4.41406 10.7578H0.601562V9.57812H4.41406V10.7578ZM17.1016 15H9.64844V13.9609L13.5859 9.58594C14.1693 8.92448 14.5703 8.38802 14.7891 7.97656C15.013 7.5599 15.125 7.13021 15.125 6.6875C15.125 6.09375 14.9453 5.60677 14.5859 5.22656C14.2266 4.84635 13.7474 4.65625 13.1484 4.65625C12.4297 4.65625 11.8698 4.86198 11.4688 5.27344C11.0729 5.67969 10.875 6.2474 10.875 6.97656H9.42969C9.42969 5.92969 9.76562 5.08333 10.4375 4.4375C11.1146 3.79167 12.0182 3.46875 13.1484 3.46875C14.2057 3.46875 15.0417 3.7474 15.6562 4.30469C16.2708 4.85677 16.5781 5.59375 16.5781 6.51562C16.5781 7.63542 15.8646 8.96875 14.4375 10.5156L11.3906 13.8203H17.1016V15Z" transform="translate(142 122)" fill="black"/>
<path d="M4.41406 10.7578H0.601562V9.57812H4.41406V10.7578ZM17.1016 15H9.64844V13.9609L13.5859 9.58594C14.1693 8.92448 14.5703 8.38802 14.7891 7.97656C15.013 7.5599 15.125 7.13021 15.125 6.6875C15.125 6.09375 14.9453 5.60677 14.5859 5.22656C14.2266 4.84635 13.7474 4.65625 13.1484 4.65625C12.4297 4.65625 11.8698 4.86198 11.4688 5.27344C11.0729 5.67969 10.875 6.2474 10.875 6.97656H9.42969C9.42969 5.92969 9.76562 5.08333 10.4375 4.4375C11.1146 3.79167 12.0182 3.46875 13.1484 3.46875C14.2057 3.46875 15.0417 3.7474 15.6562 4.30469C16.2708 4.85677 16.5781 5.59375 16.5781 6.51562C16.5781 7.63542 15.8646 8.96875 14.4375 10.5156L11.3906 13.8203H17.1016V15Z" transform="translate(142 145)" fill="black"/>
<path d="M4.41406 10.7578H0.601562V9.57812H4.41406V10.7578ZM17.1016 15H9.64844V13.9609L13.5859 9.58594C14.1693 8.92448 14.5703 8.38802 14.7891 7.97656C15.013 7.5599 15.125 7.13021 15.125 6.6875C15.125 6.09375 14.9453 5.60677 14.5859 5.22656C14.2266 4.84635 13.7474 4.65625 13.1484 4.65625C12.4297 4.65625 11.8698 4.86198 11.4688 5.27344C11.0729 5.67969 10.875 6.2474 10.875 6.97656H9.42969C9.42969 5.92969 9.76562 5.08333 10.4375 4.4375C11.1146 3.79167 12.0182 3.46875 13.1484 3.46875C14.2057 3.46875 15.0417 3.7474 15.6562 4.30469C16.2708 4.85677 16.5781 5.59375 16.5781 6.51562C16.5781 7.63542 15.8646 8.96875 14.4375 10.5156L11.3906 13.8203H17.1016V15Z" transform="translate(142 166)" fill="black"/>
<path d="M4.41406 10.7578H0.601562V9.57812H4.41406V10.7578ZM17.1016 15H9.64844V13.9609L13.5859 9.58594C14.1693 8.92448 14.5703 8.38802 14.7891 7.97656C15.013 7.5599 15.125 7.13021 15.125 6.6875C15.125 6.09375 14.9453 5.60677 14.5859 5.22656C14.2266 4.84635 13.7474 4.65625 13.1484 4.65625C12.4297 4.65625 11.8698 4.86198 11.4688 5.27344C11.0729 5.67969 10.875 6.2474 10.875 6.97656H9.42969C9.42969 5.92969 9.76562 5.08333 10.4375 4.4375C11.1146 3.79167 12.0182 3.46875 13.1484 3.46875C14.2057 3.46875 15.0417 3.7474 15.6562 4.30469C16.2708 4.85677 16.5781 5.59375 16.5781 6.51562C16.5781 7.63542 15.8646 8.96875 14.4375 10.5156L11.3906 13.8203H17.1016V15Z" transform="translate(142 189)" fill="black"/>
<path d="M4.41406 10.7578H0.601562V9.57812H4.41406V10.7578ZM17.1016 15H9.64844V13.9609L13.5859 9.58594C14.1693 8.92448 14.5703 8.38802 14.7891 7.97656C15.013 7.5599 15.125 7.13021 15.125 6.6875C15.125 6.09375 14.9453 5.60677 14.5859 5.22656C14.2266 4.84635 13.7474 4.65625 13.1484 4.65625C12.4297 4.65625 11.8698 4.86198 11.4688 5.27344C11.0729 5.67969 10.875 6.2474 10.875 6.97656H9.42969C9.42969 5.92969 9.76562 5.08333 10.4375 4.4375C11.1146 3.79167 12.0182 3.46875 13.1484 3.46875C14.2057 3.46875 15.0417 3.7474 15.6562 4.30469C16.2708 4.85677 16.5781 5.59375 16.5781 6.51562C16.5781 7.63542 15.8646 8.96875 14.4375 10.5156L11.3906 13.8203H17.1016V15Z" transform="translate(142 212)" fill="black"/>
<path d="M4.41406 10.7578H0.601562V9.57812H4.41406V10.7578ZM17.1016 15H9.64844V13.9609L13.5859 9.58594C14.1693 8.92448 14.5703 8.38802 14.7891 7.97656C15.013 7.5599 15.125 7.13021 15.125 6.6875C15.125 6.09375 14.9453 5.60677 14.5859 5.22656C14.2266 4.84635 13.7474 4.65625 13.1484 4.65625C12.4297 4.65625 11.8698 4.86198 11.4688 5.27344C11.0729 5.67969 10.875 6.2474 10.875 6.97656H9.42969C9.42969 5.92969 9.76562 5.08333 10.4375 4.4375C11.1146 3.79167 12.0182 3.46875 13.1484 3.46875C14.2057 3.46875 15.0417 3.7474 15.6562 4.30469C16.2708 4.85677 16.5781 5.59375 16.5781 6.51562C16.5781 7.63542 15.8646 8.96875 14.4375 10.5156L11.3906 13.8203H17.1016V15Z" transform="translate(142 231)" fill="black"/>
<path d="M4.41406 10.7578H0.601562V9.57812H4.41406V10.7578ZM17.1016 15H9.64844V13.9609L13.5859 9.58594C14.1693 8.92448 14.5703 8.38802 14.7891 7.97656C15.013 7.5599 15.125 7.13021 15.125 6.6875C15.125 6.09375 14.9453 5.60677 14.5859 5.22656C14.2266 4.84635 13.7474 4.65625 13.1484 4.65625C12.4297 4.65625 11.8698 4.86198 11.4688 5.27344C11.0729 5.67969 10.875 6.2474 10.875 6.97656H9.42969C9.42969 5.92969 9.76562 5.08333 10.4375 4.4375C11.1146 3.79167 12.0182 3.46875 13.1484 3.46875C14.2057 3.46875 15.0417 3.7474 15.6562 4.30469C16.2708 4.85677 16.5781 5.59375 16.5781 6.51562C16.5781 7.63542 15.8646 8.96875 14.4375 10.5156L11.3906 13.8203H17.1016V15Z" transform="translate(142 254)" fill="black"/>
<path d="M4.41406 10.7578H0.601562V9.57812H4.41406V10.7578ZM17.1016 15H9.64844V13.9609L13.5859 9.58594C14.1693 8.92448 14.5703 8.38802 14.7891 7.97656C15.013 7.5599 15.125 7.13021 15.125 6.6875C15.125 6.09375 14.9453 5.60677 14.5859 5.22656C14.2266 4.84635 13.7474 4.65625 13.1484 4.65625C12.4297 4.65625 11.8698 4.86198 11.4688 5.27344C11.0729 5.67969 10.875 6.2474 10.875 6.97656H9.42969C9.42969 5.92969 9.76562 5.08333 10.4375 4.4375C11.1146 3.79167 12.0182 3.46875 13.1484 3.46875C14.2057 3.46875 15.0417 3.7474 15.6562 4.30469C16.2708 4.85677 16.5781 5.59375 16.5781 6.51562C16.5781 7.63542 15.8646 8.96875 14.4375 10.5156L11.3906 13.8203H17.1016V15Z" transform="translate(142 277)" fill="black"/>
<line y1="-0.5" x2="68.0059" y2="-0.5" transform="translate(434.719 122.001) rotate(-90)" stroke="black"/>
<line y1="-0.5" x2="198" y2="-0.5" transform="translate(324 93.9998)" stroke="black"/>
<path d="M1.41406 13V3.04688H4.22363C5.08952 3.04688 5.85514 3.23828 6.52051 3.62109C7.18587 4.00391 7.69857 4.5485 8.05859 5.25488C8.42318 5.96126 8.60775 6.77246 8.6123 7.68848V8.32422C8.6123 9.26302 8.43001 10.0856 8.06543 10.792C7.7054 11.4984 7.18815 12.0407 6.51367 12.4189C5.84375 12.7972 5.06217 12.9909 4.16895 13H1.41406ZM2.72656 4.12695V11.9268H4.10742C5.11914 11.9268 5.90527 11.6123 6.46582 10.9834C7.03092 10.3545 7.31348 9.45898 7.31348 8.29688V7.71582C7.31348 6.58561 7.04688 5.70833 6.51367 5.08398C5.98503 4.45508 5.23307 4.13607 4.25781 4.12695H2.72656ZM11.7773 13H10.5127V5.60352H11.7773V13ZM10.4102 3.6416C10.4102 3.43652 10.4717 3.26335 10.5947 3.12207C10.7223 2.98079 10.9092 2.91016 11.1553 2.91016C11.4014 2.91016 11.5882 2.98079 11.7158 3.12207C11.8434 3.26335 11.9072 3.43652 11.9072 3.6416C11.9072 3.84668 11.8434 4.01758 11.7158 4.1543C11.5882 4.29102 11.4014 4.35938 11.1553 4.35938C10.9092 4.35938 10.7223 4.29102 10.5947 4.1543C10.4717 4.01758 10.4102 3.84668 10.4102 3.6416ZM18.1143 11.0381C18.1143 10.6963 17.9844 10.432 17.7246 10.2451C17.4694 10.0537 17.0205 9.88965 16.3779 9.75293C15.7399 9.61621 15.2318 9.45215 14.8535 9.26074C14.4798 9.06934 14.2018 8.84147 14.0195 8.57715C13.8418 8.31283 13.7529 7.99837 13.7529 7.63379C13.7529 7.02767 14.0081 6.51497 14.5186 6.0957C15.0335 5.67643 15.6898 5.4668 16.4873 5.4668C17.3258 5.4668 18.0049 5.68327 18.5244 6.11621C19.0485 6.54915 19.3105 7.10286 19.3105 7.77734H18.0391C18.0391 7.43099 17.891 7.13249 17.5947 6.88184C17.3031 6.63118 16.9339 6.50586 16.4873 6.50586C16.027 6.50586 15.667 6.60612 15.4072 6.80664C15.1475 7.00716 15.0176 7.26921 15.0176 7.59277C15.0176 7.89811 15.1383 8.12826 15.3799 8.2832C15.6214 8.43815 16.0566 8.58626 16.6855 8.72754C17.319 8.86882 17.8317 9.03743 18.2236 9.2334C18.6156 9.42936 18.9049 9.66634 19.0918 9.94434C19.2832 10.2178 19.3789 10.5527 19.3789 10.9492C19.3789 11.61 19.1146 12.141 18.5859 12.542C18.0573 12.9385 17.3714 13.1367 16.5283 13.1367C15.9359 13.1367 15.4118 13.0319 14.9561 12.8223C14.5003 12.6126 14.1426 12.321 13.8828 11.9473C13.6276 11.569 13.5 11.1611 13.5 10.7236H14.7646C14.7874 11.1475 14.9561 11.4847 15.2705 11.7354C15.5895 11.9814 16.0088 12.1045 16.5283 12.1045C17.0068 12.1045 17.3896 12.0088 17.6768 11.8174C17.9684 11.6214 18.1143 11.3617 18.1143 11.0381ZM22.7422 3.8125V5.60352H24.123V6.58105H22.7422V11.168C22.7422 11.4642 22.8037 11.6875 22.9268 11.8379C23.0498 11.9837 23.2594 12.0566 23.5557 12.0566C23.7015 12.0566 23.902 12.0293 24.1572 11.9746V13C23.8245 13.0911 23.501 13.1367 23.1865 13.1367C22.6214 13.1367 22.1953 12.9658 21.9082 12.624C21.6211 12.2822 21.4775 11.7969 21.4775 11.168V6.58105H20.1309V5.60352H21.4775V3.8125H22.7422ZM30.1729 13C30.0999 12.8542 30.0407 12.5944 29.9951 12.2207C29.4072 12.8314 28.7054 13.1367 27.8896 13.1367C27.1605 13.1367 26.5612 12.9316 26.0918 12.5215C25.627 12.1068 25.3945 11.5827 25.3945 10.9492C25.3945 10.179 25.6862 9.58203 26.2695 9.1582C26.8574 8.72982 27.6823 8.51562 28.7441 8.51562H29.9746V7.93457C29.9746 7.49251 29.8424 7.1416 29.5781 6.88184C29.3138 6.61751 28.9242 6.48535 28.4092 6.48535C27.958 6.48535 27.5798 6.59928 27.2744 6.82715C26.9691 7.05501 26.8164 7.33073 26.8164 7.6543H25.5449C25.5449 7.28516 25.6748 6.92969 25.9346 6.58789C26.1989 6.24154 26.5544 5.9681 27.001 5.76758C27.4521 5.56706 27.9466 5.4668 28.4844 5.4668C29.3366 5.4668 30.0042 5.68099 30.4873 6.10938C30.9704 6.5332 31.221 7.11882 31.2393 7.86621V11.2705C31.2393 11.9495 31.3258 12.4896 31.499 12.8906V13H30.1729ZM28.0742 12.0361C28.4707 12.0361 28.8467 11.9336 29.2021 11.7285C29.5576 11.5234 29.8151 11.2568 29.9746 10.9287V9.41113H28.9834C27.4339 9.41113 26.6592 9.86458 26.6592 10.7715C26.6592 11.168 26.7913 11.4779 27.0557 11.7012C27.32 11.9245 27.6595 12.0361 28.0742 12.0361ZM34.418 5.60352L34.459 6.5332C35.0241 5.82227 35.7624 5.4668 36.6738 5.4668C38.237 5.4668 39.0254 6.34863 39.0391 8.1123V13H37.7744V8.10547C37.7699 7.57227 37.6468 7.17806 37.4053 6.92285C37.1683 6.66764 36.7969 6.54004 36.291 6.54004C35.8809 6.54004 35.5208 6.64941 35.2109 6.86816C34.901 7.08691 34.6595 7.37402 34.4863 7.72949V13H33.2217V5.60352H34.418ZM43.9131 12.1045C44.3643 12.1045 44.7585 11.9678 45.0957 11.6943C45.4329 11.4209 45.6198 11.0791 45.6562 10.6689H46.8525C46.8298 11.0928 46.6839 11.4961 46.415 11.8789C46.1462 12.2617 45.7861 12.5671 45.335 12.7949C44.8883 13.0228 44.4144 13.1367 43.9131 13.1367C42.9059 13.1367 42.1038 12.8018 41.5068 12.1318C40.9144 11.4574 40.6182 10.5368 40.6182 9.37012V9.1582C40.6182 8.43815 40.7503 7.79785 41.0146 7.2373C41.279 6.67676 41.6572 6.24154 42.1494 5.93164C42.6462 5.62174 43.2318 5.4668 43.9062 5.4668C44.7357 5.4668 45.4238 5.71517 45.9707 6.21191C46.5221 6.70866 46.8161 7.35352 46.8525 8.14648H45.6562C45.6198 7.66797 45.4375 7.27604 45.1094 6.9707C44.7858 6.66081 44.3848 6.50586 43.9062 6.50586C43.2637 6.50586 42.7646 6.73828 42.4092 7.20312C42.0583 7.66341 41.8828 8.33105 41.8828 9.20605V9.44531C41.8828 10.2975 42.0583 10.9538 42.4092 11.4141C42.7601 11.8743 43.2614 12.1045 43.9131 12.1045ZM51.3438 13.1367C50.3411 13.1367 49.5254 12.8086 48.8965 12.1523C48.2676 11.4915 47.9531 10.6097 47.9531 9.50684V9.27441C47.9531 8.54069 48.0921 7.88672 48.3701 7.3125C48.6527 6.73372 49.0446 6.28255 49.5459 5.95898C50.0518 5.63086 50.5986 5.4668 51.1865 5.4668C52.1481 5.4668 52.8955 5.78353 53.4287 6.41699C53.9619 7.05046 54.2285 7.95736 54.2285 9.1377V9.66406H49.2178C49.236 10.3932 49.4479 10.9834 49.8535 11.4346C50.2637 11.8812 50.7832 12.1045 51.4121 12.1045C51.8587 12.1045 52.237 12.0133 52.5469 11.8311C52.8568 11.6488 53.1279 11.4072 53.3604 11.1064L54.1328 11.708C53.513 12.6605 52.5833 13.1367 51.3438 13.1367ZM51.1865 6.50586C50.6761 6.50586 50.2477 6.69271 49.9014 7.06641C49.555 7.43555 49.3408 7.95508 49.2588 8.625H52.9639V8.5293C52.9274 7.88672 52.7542 7.38997 52.4443 7.03906C52.1344 6.68359 51.7152 6.50586 51.1865 6.50586Z" transform="translate(451 61.9998)" fill="black"/>
<path d="M10.7422 15H3.28906V13.9609L7.22656 9.58594C7.8099 8.92448 8.21094 8.38802 8.42969 7.97656C8.65365 7.5599 8.76562 7.13021 8.76562 6.6875C8.76562 6.09375 8.58594 5.60677 8.22656 5.22656C7.86719 4.84635 7.38802 4.65625 6.78906 4.65625C6.07031 4.65625 5.51042 4.86198 5.10938 5.27344C4.71354 5.67969 4.51562 6.2474 4.51562 6.97656H3.07031C3.07031 5.92969 3.40625 5.08333 4.07812 4.4375C4.75521 3.79167 5.65885 3.46875 6.78906 3.46875C7.84635 3.46875 8.68229 3.7474 9.29688 4.30469C9.91146 4.85677 10.2188 5.59375 10.2188 6.51562C10.2188 7.63542 9.50521 8.96875 8.07812 10.5156L5.03125 13.8203H10.7422V15ZM17.0234 15H15.5703V5.36719L12.6562 6.4375V5.125L16.7969 3.57031H17.0234V15ZM28.3828 10.7578H24.5703V9.57812H28.3828V10.7578ZM35.7188 8.60938H36.8047C37.487 8.59896 38.0234 8.41927 38.4141 8.07031C38.8047 7.72135 39 7.25 39 6.65625C39 5.32292 38.3359 4.65625 37.0078 4.65625C36.3828 4.65625 35.8828 4.83594 35.5078 5.19531C35.138 5.54948 34.9531 6.02083 34.9531 6.60938H33.5078C33.5078 5.70833 33.8359 4.96094 34.4922 4.36719C35.1536 3.76823 35.9922 3.46875 37.0078 3.46875C38.0807 3.46875 38.9219 3.7526 39.5312 4.32031C40.1406 4.88802 40.4453 5.67708 40.4453 6.6875C40.4453 7.18229 40.2839 7.66146 39.9609 8.125C39.6432 8.58854 39.2083 8.9349 38.6562 9.16406C39.2812 9.36198 39.763 9.6901 40.1016 10.1484C40.4453 10.6068 40.6172 11.1667 40.6172 11.8281C40.6172 12.849 40.2839 13.6589 39.6172 14.2578C38.9505 14.8568 38.0833 15.1562 37.0156 15.1562C35.9479 15.1562 35.0781 14.8672 34.4062 14.2891C33.7396 13.7109 33.4062 12.9479 33.4062 12H34.8594C34.8594 12.599 35.0547 13.0781 35.4453 13.4375C35.8359 13.7969 36.3594 13.9766 37.0156 13.9766C37.7135 13.9766 38.2474 13.7943 38.6172 13.4297C38.987 13.0651 39.1719 12.5417 39.1719 11.8594C39.1719 11.1979 38.9688 10.6901 38.5625 10.3359C38.1562 9.98177 37.5703 9.79948 36.8047 9.78906H35.7188V8.60938Z" transform="translate(351 99)" fill="black"/>
<path d="M5.97656 13.9375L9.42188 9.32031H12.0234L6.9375 15.6953L10.0312 22H7.72266L5.625 17.2656L2.05078 22H-0.539062L4.69922 15.4844L1.69922 9.32031H4.01953L5.97656 13.9375Z" transform="translate(353 54.9998)" fill="black"/>
<path d="M1.38867 11H0.333984L1.43555 4.66016H2.49023L1.38867 11ZM2.26172 2.3457C2.44141 2.33789 2.58984 2.39258 2.70703 2.50977C2.82812 2.62305 2.88867 2.77344 2.88867 2.96094C2.88477 3.14453 2.82422 3.29492 2.70703 3.41211C2.59375 3.5293 2.44531 3.5918 2.26172 3.59961C2.07812 3.60742 1.92773 3.55469 1.81055 3.44141C1.69336 3.32813 1.63672 3.17969 1.64062 2.99609C1.64453 2.8125 1.70312 2.66016 1.81641 2.53906C1.92969 2.41797 2.07812 2.35352 2.26172 2.3457Z" transform="translate(364 69.9998)" fill="black"/>
<path d="M5.99219 15.6367H0.425781L0.742188 13.8672H6.30859L5.99219 15.6367ZM17.4062 9.32031L16.1992 16.6328C16.1211 17.2891 16.0938 17.8438 16.1172 18.2969C16.1953 19.7266 16.8047 20.4531 17.9453 20.4766C19.375 20.5234 20.4688 19.9336 21.2266 18.707L22.8555 9.32031H24.9883L22.7852 22H20.8867L21.1094 20.6523C20.2422 21.7305 19.1758 22.2617 17.9102 22.2461C16.8555 22.2461 16.0156 21.9531 15.3906 21.3672L14.3477 26.875H12.2383L15.2852 9.32031H17.4062Z" transform="translate(373 54.9998)" fill="black"/>
<path d="M5.72656 8.89844H8.89844V10.2656H5.72656V13.8594H4.27344V10.2656H1.10156V8.89844H4.27344V5.57812H5.72656V8.89844ZM19.2344 15H17.7812V5.36719L14.8672 6.4375V5.125L19.0078 3.57031H19.2344V15ZM30.3672 6.59375C30.3672 7.16146 30.2161 7.66667 29.9141 8.10938C29.6172 8.55208 29.2135 8.89844 28.7031 9.14844C29.2969 9.40365 29.7656 9.77604 30.1094 10.2656C30.4583 10.7552 30.6328 11.3099 30.6328 11.9297C30.6328 12.9141 30.2995 13.6979 29.6328 14.2812C28.9714 14.8646 28.099 15.1562 27.0156 15.1562C25.9219 15.1562 25.0443 14.8646 24.3828 14.2812C23.7266 13.6927 23.3984 12.9089 23.3984 11.9297C23.3984 11.3151 23.5651 10.7604 23.8984 10.2656C24.237 9.77083 24.7031 9.39583 25.2969 9.14062C24.7917 8.89062 24.3932 8.54427 24.1016 8.10156C23.8099 7.65885 23.6641 7.15625 23.6641 6.59375C23.6641 5.63542 23.9714 4.875 24.5859 4.3125C25.2005 3.75 26.0104 3.46875 27.0156 3.46875C28.0156 3.46875 28.8229 3.75 29.4375 4.3125C30.0573 4.875 30.3672 5.63542 30.3672 6.59375ZM29.1875 11.8984C29.1875 11.263 28.9844 10.7448 28.5781 10.3438C28.1771 9.94271 27.651 9.74219 27 9.74219C26.349 9.74219 25.8255 9.9401 25.4297 10.3359C25.0391 10.7318 24.8438 11.2526 24.8438 11.8984C24.8438 12.5443 25.0339 13.0521 25.4141 13.4219C25.7995 13.7917 26.3333 13.9766 27.0156 13.9766C27.6927 13.9766 28.224 13.7917 28.6094 13.4219C28.9948 13.0469 29.1875 12.5391 29.1875 11.8984ZM27.0156 4.65625C26.4479 4.65625 25.987 4.83333 25.6328 5.1875C25.2839 5.53646 25.1094 6.01302 25.1094 6.61719C25.1094 7.19531 25.2812 7.66406 25.625 8.02344C25.974 8.3776 26.4375 8.55469 27.0156 8.55469C27.5938 8.55469 28.0547 8.3776 28.3984 8.02344C28.7474 7.66406 28.9219 7.19531 28.9219 6.61719C28.9219 6.03906 28.7422 5.56771 28.3828 5.20312C28.0234 4.83854 27.5677 4.65625 27.0156 4.65625Z" transform="translate(459 98.9998)" fill="black"/>
</svg>
