<svg width="1120" height="224" viewBox="0 0 1120 224" fill="none" xmlns="http://www.w3.org/2000/svg">
<g id="Frame">
<rect width="560" height="112" transform="scale(2)" fill="white"/>
<g id="Group">
<rect id="Rectangle" x="810" y="20" width="106" height="53" stroke="black"/>
<path id="Apple" d="M841.221 51.4047H832.882L831.009 56.6H828.302L835.903 36.6937H838.2L845.815 56.6H843.122L841.221 51.4047ZM833.675 49.2445H840.442L837.052 39.934L833.675 49.2445ZM860.594 49.3676C860.594 51.6189 860.08 53.4327 859.05 54.809C858.02 56.1853 856.625 56.8734 854.866 56.8734C853.07 56.8734 851.658 56.3038 850.628 55.1644V62.2875H848.098V41.807H850.409L850.532 43.4476C851.562 42.1716 852.993 41.5336 854.825 41.5336C856.602 41.5336 858.006 42.2035 859.036 43.5433C860.075 44.8832 860.594 46.7471 860.594 49.1351V49.3676ZM858.065 49.0804C858.065 47.4125 857.71 46.0954 856.999 45.1293C856.288 44.1631 855.313 43.6801 854.073 43.6801C852.542 43.6801 851.393 44.3591 850.628 45.7172V52.7855C851.384 54.1345 852.542 54.809 854.1 54.809C855.313 54.809 856.274 54.3304 856.985 53.3734C857.705 52.4073 858.065 50.9763 858.065 49.0804ZM876.317 49.3676C876.317 51.6189 875.802 53.4327 874.772 54.809C873.742 56.1853 872.348 56.8734 870.589 56.8734C868.793 56.8734 867.38 56.3038 866.35 55.1644V62.2875H863.821V41.807H866.132L866.255 43.4476C867.285 42.1716 868.716 41.5336 870.548 41.5336C872.325 41.5336 873.729 42.2035 874.759 43.5433C875.798 44.8832 876.317 46.7471 876.317 49.1351V49.3676ZM873.788 49.0804C873.788 47.4125 873.432 46.0954 872.721 45.1293C872.011 44.1631 871.035 43.6801 869.796 43.6801C868.264 43.6801 867.116 44.3591 866.35 45.7172V52.7855C867.107 54.1345 868.264 54.809 869.823 54.809C871.035 54.809 871.997 54.3304 872.708 53.3734C873.428 52.4073 873.788 50.9763 873.788 49.0804ZM882.292 56.6H879.762V35.6H882.292V56.6ZM892.491 56.8734C890.486 56.8734 888.854 56.2172 887.596 54.9047C886.339 53.583 885.71 51.8194 885.71 49.6136V49.1488C885.71 47.6814 885.988 46.3734 886.544 45.225C887.109 44.0674 887.893 43.1651 888.895 42.5179C889.907 41.8617 891.001 41.5336 892.177 41.5336C894.1 41.5336 895.594 42.167 896.661 43.434C897.727 44.7009 898.26 46.5147 898.26 48.8754V49.9281H888.239C888.275 51.3864 888.699 52.5668 889.51 53.4691C890.331 54.3623 891.37 54.809 892.628 54.809C893.521 54.809 894.277 54.6267 894.897 54.2621C895.517 53.8975 896.059 53.4144 896.524 52.8129L898.069 54.016C896.83 55.9209 894.97 56.8734 892.491 56.8734ZM892.177 43.6117C891.156 43.6117 890.299 43.9854 889.606 44.7328C888.913 45.4711 888.485 46.5101 888.321 47.85H895.731V47.6586C895.658 46.3734 895.312 45.3799 894.692 44.6781C894.072 43.9672 893.234 43.6117 892.177 43.6117Z" fill="black"/>
<rect id="Rectangle_2" x="810" y="73" width="106" height="53" stroke="black"/>
<path id="Banana" d="M818.895 109.6V89.6937H825.403C827.563 89.6937 829.186 90.1403 830.27 91.0336C831.364 91.9268 831.911 93.2484 831.911 94.9984C831.911 95.9281 831.647 96.753 831.118 97.473C830.589 98.184 829.869 98.7354 828.958 99.1273C830.033 99.4281 830.881 100.002 831.501 100.85C832.13 101.689 832.444 102.691 832.444 103.858C832.444 105.644 831.865 107.048 830.708 108.069C829.55 109.09 827.914 109.6 825.8 109.6H818.895ZM821.52 100.289V107.453H825.854C827.076 107.453 828.037 107.139 828.739 106.51C829.45 105.872 829.805 104.997 829.805 103.885C829.805 101.488 828.502 100.289 825.895 100.289H821.52ZM821.52 98.184H825.485C826.634 98.184 827.55 97.8969 828.233 97.3226C828.926 96.7484 829.272 95.9691 829.272 94.9847C829.272 93.891 828.953 93.098 828.315 92.6058C827.677 92.1045 826.706 91.8539 825.403 91.8539H821.52V98.184ZM845.077 109.6C844.931 109.308 844.813 108.789 844.721 108.041C843.546 109.263 842.142 109.873 840.511 109.873C839.052 109.873 837.854 109.463 836.915 108.643C835.985 107.814 835.52 106.765 835.52 105.498C835.52 103.958 836.104 102.764 837.27 101.916C838.446 101.06 840.096 100.631 842.219 100.631H844.68V99.4691C844.68 98.585 844.416 97.8832 843.887 97.3636C843.359 96.835 842.58 96.5707 841.55 96.5707C840.647 96.5707 839.891 96.7985 839.28 97.2543C838.669 97.71 838.364 98.2614 838.364 98.9086H835.821C835.821 98.1703 836.081 97.4594 836.6 96.7758C837.129 96.083 837.84 95.5362 838.733 95.1351C839.636 94.7341 840.624 94.5336 841.7 94.5336C843.404 94.5336 844.74 94.962 845.706 95.8187C846.672 96.6664 847.173 97.8376 847.21 99.3324V106.141C847.21 107.499 847.383 108.579 847.729 109.381V109.6H845.077ZM840.88 107.672C841.673 107.672 842.425 107.467 843.136 107.057C843.846 106.647 844.361 106.114 844.68 105.457V102.422H842.698C839.599 102.422 838.05 103.329 838.05 105.143C838.05 105.936 838.314 106.556 838.843 107.002C839.371 107.449 840.05 107.672 840.88 107.672ZM853.567 94.807L853.649 96.6664C854.779 95.2445 856.256 94.5336 858.079 94.5336C861.205 94.5336 862.782 96.2972 862.809 99.8246V109.6H860.28V99.8109C860.271 98.7445 860.025 97.9561 859.542 97.4457C859.068 96.9353 858.325 96.6801 857.313 96.6801C856.493 96.6801 855.773 96.8988 855.153 97.3363C854.533 97.7738 854.05 98.348 853.704 99.059V109.6H851.175V94.807H853.567ZM875.757 109.6C875.611 109.308 875.492 108.789 875.401 108.041C874.225 109.263 872.822 109.873 871.19 109.873C869.732 109.873 868.533 109.463 867.594 108.643C866.665 107.814 866.2 106.765 866.2 105.498C866.2 103.958 866.783 102.764 867.95 101.916C869.126 101.06 870.775 100.631 872.899 100.631H875.36V99.4691C875.36 98.585 875.096 97.8832 874.567 97.3636C874.038 96.835 873.259 96.5707 872.229 96.5707C871.327 96.5707 870.57 96.7985 869.96 97.2543C869.349 97.71 869.044 98.2614 869.044 98.9086H866.501C866.501 98.1703 866.761 97.4594 867.28 96.7758C867.809 96.083 868.52 95.5362 869.413 95.1351C870.315 94.7341 871.304 94.5336 872.38 94.5336C874.084 94.5336 875.419 94.962 876.386 95.8187C877.352 96.6664 877.853 97.8376 877.889 99.3324V106.141C877.889 107.499 878.063 108.579 878.409 109.381V109.6H875.757ZM871.559 107.672C872.352 107.672 873.104 107.467 873.815 107.057C874.526 106.647 875.041 106.114 875.36 105.457V102.422H873.378C870.279 102.422 868.729 103.329 868.729 105.143C868.729 105.936 868.994 106.556 869.522 107.002C870.051 107.449 870.73 107.672 871.559 107.672ZM884.247 94.807L884.329 96.6664C885.459 95.2445 886.936 94.5336 888.759 94.5336C891.885 94.5336 893.462 96.2972 893.489 99.8246V109.6H890.96V99.8109C890.951 98.7445 890.705 97.9561 890.221 97.4457C889.747 96.9353 889.005 96.6801 887.993 96.6801C887.173 96.6801 886.453 96.8988 885.833 97.3363C885.213 97.7738 884.73 98.348 884.384 99.059V109.6H881.854V94.807H884.247ZM906.436 109.6C906.29 109.308 906.172 108.789 906.081 108.041C904.905 109.263 903.501 109.873 901.87 109.873C900.412 109.873 899.213 109.463 898.274 108.643C897.344 107.814 896.88 106.765 896.88 105.498C896.88 103.958 897.463 102.764 898.63 101.916C899.805 101.06 901.455 100.631 903.579 100.631H906.04V99.4691C906.04 98.585 905.775 97.8832 905.247 97.3636C904.718 96.835 903.939 96.5707 902.909 96.5707C902.007 96.5707 901.25 96.7985 900.639 97.2543C900.029 97.71 899.723 98.2614 899.723 98.9086H897.18C897.18 98.1703 897.44 97.4594 897.96 96.7758C898.488 96.083 899.199 95.5362 900.093 95.1351C900.995 94.7341 901.984 94.5336 903.059 94.5336C904.764 94.5336 906.099 94.962 907.065 95.8187C908.031 96.6664 908.533 97.8376 908.569 99.3324V106.141C908.569 107.499 908.742 108.579 909.089 109.381V109.6H906.436ZM902.239 107.672C903.032 107.672 903.784 107.467 904.495 107.057C905.206 106.647 905.721 106.114 906.04 105.457V102.422H904.057C900.958 102.422 899.409 103.329 899.409 105.143C899.409 105.936 899.673 106.556 900.202 107.002C900.731 107.449 901.41 107.672 902.239 107.672Z" fill="black"/>
<rect id="Rectangle_3" x="810" y="126" width="106" height="53" stroke="black"/>
<path id="Banana_2" d="M818.895 162.6V142.694H825.403C827.563 142.694 829.186 143.14 830.27 144.034C831.364 144.927 831.911 146.249 831.911 147.999C831.911 148.928 831.647 149.753 831.118 150.473C830.589 151.184 829.869 151.736 828.958 152.127C830.033 152.428 830.881 153.002 831.501 153.85C832.13 154.689 832.444 155.691 832.444 156.858C832.444 158.644 831.865 160.048 830.708 161.069C829.55 162.09 827.914 162.6 825.8 162.6H818.895ZM821.52 153.29V160.454H825.854C827.076 160.454 828.037 160.139 828.739 159.51C829.45 158.872 829.805 157.997 829.805 156.885C829.805 154.488 828.502 153.29 825.895 153.29H821.52ZM821.52 151.184H825.485C826.634 151.184 827.55 150.897 828.233 150.323C828.926 149.749 829.272 148.969 829.272 147.985C829.272 146.891 828.953 146.098 828.315 145.606C827.677 145.105 826.706 144.854 825.403 144.854H821.52V151.184ZM845.077 162.6C844.931 162.308 844.813 161.789 844.721 161.042C843.546 162.263 842.142 162.874 840.511 162.874C839.052 162.874 837.854 162.463 836.915 161.643C835.985 160.814 835.52 159.765 835.52 158.499C835.52 156.958 836.104 155.764 837.27 154.917C838.446 154.06 840.096 153.631 842.219 153.631H844.68V152.469C844.68 151.585 844.416 150.883 843.887 150.364C843.359 149.835 842.58 149.571 841.55 149.571C840.647 149.571 839.891 149.799 839.28 150.254C838.669 150.71 838.364 151.262 838.364 151.909H835.821C835.821 151.17 836.081 150.459 836.6 149.776C837.129 149.083 837.84 148.536 838.733 148.135C839.636 147.734 840.624 147.534 841.7 147.534C843.404 147.534 844.74 147.962 845.706 148.819C846.672 149.667 847.173 150.838 847.21 152.333V159.141C847.21 160.499 847.383 161.579 847.729 162.381V162.6H845.077ZM840.88 160.672C841.673 160.672 842.425 160.467 843.136 160.057C843.846 159.647 844.361 159.114 844.68 158.458V155.422H842.698C839.599 155.422 838.05 156.329 838.05 158.143C838.05 158.936 838.314 159.556 838.843 160.002C839.371 160.449 840.05 160.672 840.88 160.672ZM853.567 147.807L853.649 149.667C854.779 148.245 856.256 147.534 858.079 147.534C861.205 147.534 862.782 149.297 862.809 152.825V162.6H860.28V152.811C860.271 151.745 860.025 150.956 859.542 150.446C859.068 149.935 858.325 149.68 857.313 149.68C856.493 149.68 855.773 149.899 855.153 150.336C854.533 150.774 854.05 151.348 853.704 152.059V162.6H851.175V147.807H853.567ZM875.757 162.6C875.611 162.308 875.492 161.789 875.401 161.042C874.225 162.263 872.822 162.874 871.19 162.874C869.732 162.874 868.533 162.463 867.594 161.643C866.665 160.814 866.2 159.765 866.2 158.499C866.2 156.958 866.783 155.764 867.95 154.917C869.126 154.06 870.775 153.631 872.899 153.631H875.36V152.469C875.36 151.585 875.096 150.883 874.567 150.364C874.038 149.835 873.259 149.571 872.229 149.571C871.327 149.571 870.57 149.799 869.96 150.254C869.349 150.71 869.044 151.262 869.044 151.909H866.501C866.501 151.17 866.761 150.459 867.28 149.776C867.809 149.083 868.52 148.536 869.413 148.135C870.315 147.734 871.304 147.534 872.38 147.534C874.084 147.534 875.419 147.962 876.386 148.819C877.352 149.667 877.853 150.838 877.889 152.333V159.141C877.889 160.499 878.063 161.579 878.409 162.381V162.6H875.757ZM871.559 160.672C872.352 160.672 873.104 160.467 873.815 160.057C874.526 159.647 875.041 159.114 875.36 158.458V155.422H873.378C870.279 155.422 868.729 156.329 868.729 158.143C868.729 158.936 868.994 159.556 869.522 160.002C870.051 160.449 870.73 160.672 871.559 160.672ZM884.247 147.807L884.329 149.667C885.459 148.245 886.936 147.534 888.759 147.534C891.885 147.534 893.462 149.297 893.489 152.825V162.6H890.96V152.811C890.951 151.745 890.705 150.956 890.221 150.446C889.747 149.935 889.005 149.68 887.993 149.68C887.173 149.68 886.453 149.899 885.833 150.336C885.213 150.774 884.73 151.348 884.384 152.059V162.6H881.854V147.807H884.247ZM906.436 162.6C906.29 162.308 906.172 161.789 906.081 161.042C904.905 162.263 903.501 162.874 901.87 162.874C900.412 162.874 899.213 162.463 898.274 161.643C897.344 160.814 896.88 159.765 896.88 158.499C896.88 156.958 897.463 155.764 898.63 154.917C899.805 154.06 901.455 153.631 903.579 153.631H906.04V152.469C906.04 151.585 905.775 150.883 905.247 150.364C904.718 149.835 903.939 149.571 902.909 149.571C902.007 149.571 901.25 149.799 900.639 150.254C900.029 150.71 899.723 151.262 899.723 151.909H897.18C897.18 151.17 897.44 150.459 897.96 149.776C898.488 149.083 899.199 148.536 900.093 148.135C900.995 147.734 901.984 147.534 903.059 147.534C904.764 147.534 906.099 147.962 907.065 148.819C908.031 149.667 908.533 150.838 908.569 152.333V159.141C908.569 160.499 908.742 161.579 909.089 162.381V162.6H906.436ZM902.239 160.672C903.032 160.672 903.784 160.467 904.495 160.057C905.206 159.647 905.721 159.114 906.04 158.458V155.422H904.057C900.958 155.422 899.409 156.329 899.409 158.143C899.409 158.936 899.673 159.556 900.202 160.002C900.731 160.449 901.41 160.672 902.239 160.672Z" fill="black"/>
<path id="0" d="M797.275 44.5098C797.275 47.472 796.77 49.6732 795.758 51.1133C794.746 52.5534 793.165 53.2734 791.014 53.2734C788.89 53.2734 787.318 52.5716 786.297 51.168C785.276 49.7552 784.747 47.6497 784.711 44.8516V41.4746C784.711 38.5488 785.217 36.375 786.229 34.9531C787.24 33.5312 788.826 32.8203 790.986 32.8203C793.128 32.8203 794.705 33.5085 795.717 34.8848C796.729 36.252 797.248 38.3665 797.275 41.2285V44.5098ZM794.746 41.0508C794.746 38.9089 794.445 37.3503 793.844 36.375C793.242 35.3906 792.29 34.8984 790.986 34.8984C789.692 34.8984 788.749 35.3861 788.156 36.3613C787.564 37.3366 787.258 38.8359 787.24 40.8594V44.9062C787.24 47.0573 787.55 48.6478 788.17 49.6777C788.799 50.6986 789.747 51.209 791.014 51.209C792.262 51.209 793.188 50.7259 793.789 49.7598C794.4 48.7936 794.719 47.2715 794.746 45.1934V41.0508Z" fill="#828282"/>
<path id="1" d="M793.105 107H790.562V90.1426L785.463 92.0156V89.7188L792.709 86.998H793.105V107Z" fill="#828282"/>
<path id="2" d="M797.836 159H784.793V157.182L791.684 149.525C792.704 148.368 793.406 147.429 793.789 146.709C794.181 145.98 794.377 145.228 794.377 144.453C794.377 143.414 794.062 142.562 793.434 141.896C792.805 141.231 791.966 140.898 790.918 140.898C789.66 140.898 788.68 141.258 787.979 141.979C787.286 142.689 786.939 143.683 786.939 144.959H784.41C784.41 143.127 784.998 141.646 786.174 140.516C787.359 139.385 788.94 138.82 790.918 138.82C792.768 138.82 794.231 139.308 795.307 140.283C796.382 141.249 796.92 142.539 796.92 144.152C796.92 146.112 795.671 148.445 793.174 151.152L787.842 156.936H797.836V159Z" fill="#828282"/>
</g>
<path id="fruits" d="M829.229 190.816C828.314 190.461 827.343 190.284 826.317 190.284C825.421 190.284 824.758 190.48 824.329 190.872C823.918 191.264 823.713 191.88 823.713 192.72V193.112H828.501V196.332H823.713V207H819.597V196.332H815.929V193.28L819.597 193.112V192.748C819.597 191.945 819.718 191.199 819.961 190.508C820.203 189.817 820.577 189.22 821.081 188.716C821.585 188.193 822.229 187.783 823.013 187.484C823.797 187.185 824.73 187.036 825.813 187.036C826.615 187.036 827.362 187.111 828.053 187.26C828.762 187.409 829.415 187.587 830.013 187.792L829.229 190.816ZM833.67 193.112H837.03L837.366 196.136H837.45C838.141 194.997 838.971 194.157 839.942 193.616C840.913 193.056 841.958 192.776 843.078 192.776C843.694 192.776 844.189 192.823 844.562 192.916C844.954 193.009 845.355 193.149 845.766 193.336L844.926 196.78C844.497 196.649 844.105 196.556 843.75 196.5C843.414 196.425 842.985 196.388 842.462 196.388C841.603 196.388 840.754 196.64 839.914 197.144C839.093 197.648 838.383 198.525 837.786 199.776V207H833.67V193.112ZM861.911 207H858.551L858.243 205.012H858.131C857.515 205.721 856.834 206.291 856.087 206.72C855.34 207.131 854.463 207.336 853.455 207.336C851.868 207.336 850.72 206.832 850.011 205.824C849.302 204.816 848.947 203.435 848.947 201.68V193.112H853.063V201.148C853.063 202.081 853.203 202.763 853.483 203.192C853.763 203.621 854.295 203.836 855.079 203.836C855.602 203.836 856.059 203.724 856.451 203.5C856.862 203.276 857.31 202.856 857.795 202.24V193.112H861.911V207ZM866.212 193.112H875.9V207H871.784V196.332H866.212V193.112ZM873.66 191.068C872.857 191.068 872.195 190.844 871.672 190.396C871.168 189.948 870.916 189.341 870.916 188.576C870.916 187.811 871.168 187.195 871.672 186.728C872.195 186.243 872.857 186 873.66 186C874.463 186 875.116 186.243 875.62 186.728C876.143 187.195 876.404 187.811 876.404 188.576C876.404 189.341 876.143 189.948 875.62 190.396C875.116 190.844 874.463 191.068 873.66 191.068ZM885.661 196.332H882.161V193.28L885.857 193.112L886.389 189.416H889.777V193.112H895.657V196.332H889.777V201.204C889.777 202.268 890.01 203.024 890.477 203.472C890.944 203.901 891.681 204.116 892.689 204.116C893.23 204.116 893.725 204.069 894.173 203.976C894.621 203.883 895.05 203.761 895.461 203.612L896.189 206.58C895.573 206.767 894.882 206.935 894.117 207.084C893.37 207.252 892.549 207.336 891.653 207.336C890.552 207.336 889.618 207.187 888.853 206.888C888.088 206.589 887.462 206.179 886.977 205.656C886.51 205.115 886.174 204.471 885.969 203.724C885.764 202.977 885.661 202.147 885.661 201.232V196.332ZM900.91 202.632C901.713 203.136 902.515 203.537 903.318 203.836C904.139 204.135 905.017 204.284 905.95 204.284C906.902 204.284 907.583 204.181 907.994 203.976C908.405 203.771 908.61 203.481 908.61 203.108C908.61 202.679 908.265 202.333 907.574 202.072C906.902 201.792 906.006 201.493 904.886 201.176C904.27 201.008 903.663 200.812 903.066 200.588C902.487 200.345 901.965 200.065 901.498 199.748C901.031 199.412 900.649 199.029 900.35 198.6C900.07 198.171 899.93 197.676 899.93 197.116C899.93 196.481 900.079 195.893 900.378 195.352C900.677 194.811 901.097 194.353 901.638 193.98C902.198 193.607 902.87 193.317 903.654 193.112C904.457 192.888 905.353 192.776 906.342 192.776C907.574 192.776 908.694 192.981 909.702 193.392C910.729 193.784 911.606 194.213 912.334 194.68L910.486 197.144C909.851 196.771 909.198 196.463 908.526 196.22C907.854 195.959 907.154 195.828 906.426 195.828C905.549 195.828 904.923 195.921 904.55 196.108C904.195 196.295 904.018 196.565 904.018 196.92C904.018 197.125 904.111 197.312 904.298 197.48C904.485 197.648 904.737 197.797 905.054 197.928C905.371 198.059 905.745 198.189 906.174 198.32C906.622 198.432 907.089 198.553 907.574 198.684C908.265 198.871 908.918 199.085 909.534 199.328C910.15 199.552 910.691 199.823 911.158 200.14C911.625 200.457 911.998 200.84 912.278 201.288C912.558 201.736 912.698 202.259 912.698 202.856C912.698 203.491 912.549 204.079 912.25 204.62C911.951 205.161 911.513 205.637 910.934 206.048C910.374 206.44 909.665 206.757 908.806 207C907.966 207.224 906.986 207.336 905.866 207.336C904.615 207.336 903.393 207.131 902.198 206.72C901.003 206.309 899.958 205.805 899.062 205.208L900.91 202.632Z" fill="#4F4F4F"/>
<g id="Group_2">
<path id="Rectangle_4" d="M20 54H598V168H20V54Z" fill="#F1F4F8"/>
<g id="fruits = pd.Series([&#39;Apple&#39;, &#39;Banana&#39;, &#39;Banana&#39;])">
<path d="M45.624 67.7462C45.12 67.5409 44.6253 67.3916 44.14 67.2982C43.6733 67.2049 43.16 67.1582 42.6 67.1582C41.536 67.1582 40.7613 67.4196 40.276 67.9422C39.8093 68.4462 39.576 69.1836 39.576 70.1542V70.9662H44.812V73.5142H39.576V84.7142H36.384V73.5142H32.576V71.1062L36.384 70.9662V70.2102C36.384 69.4076 36.496 68.6609 36.72 67.9702C36.944 67.2796 37.2893 66.6916 37.756 66.2062C38.2413 65.7022 38.848 65.3102 39.576 65.0302C40.3227 64.7502 41.2 64.6102 42.208 64.6102C42.9547 64.6102 43.664 64.6756 44.336 64.8062C45.0267 64.9369 45.68 65.1236 46.296 65.3662L45.624 67.7462ZM50.4291 70.9662H53.0891L53.3691 74.0742H53.4531C54.1624 72.9542 55.0117 72.1049 56.0011 71.5262C57.0091 70.9289 58.1104 70.6302 59.3051 70.6302C59.8651 70.6302 60.3411 70.6769 60.7331 70.7702C61.1437 70.8449 61.5544 70.9849 61.9651 71.1902L61.2931 73.9062C60.8451 73.7569 60.4437 73.6542 60.0891 73.5982C59.7531 73.5236 59.3237 73.4862 58.8011 73.4862C57.8491 73.4862 56.9344 73.7569 56.0571 74.2982C55.1797 74.8396 54.3864 75.7822 53.6771 77.1262V84.7142H50.4291V70.9662ZM77.9981 84.7142H75.3661L75.1141 82.5302H75.0021C74.3488 83.2956 73.6301 83.9116 72.8461 84.3782C72.0621 84.8262 71.1568 85.0502 70.1301 85.0502C68.5248 85.0502 67.3581 84.5742 66.6301 83.6222C65.9021 82.6516 65.5381 81.2702 65.5381 79.4782V70.9662H68.7581V79.0582C68.7581 80.1782 68.9448 80.9996 69.3181 81.5222C69.7101 82.0262 70.3821 82.2782 71.3341 82.2782C71.9875 82.2782 72.5661 82.1289 73.0701 81.8302C73.5928 81.5316 74.1621 80.9996 74.7781 80.2342V70.9662H77.9981V84.7142ZM82.7192 70.9662H91.9032V84.7142H88.6832V73.5142H82.7192V70.9662ZM90.0552 68.5582C89.4019 68.5582 88.8512 68.3622 88.4032 67.9702C87.9739 67.5782 87.7592 67.0556 87.7592 66.4022C87.7592 65.7489 87.9739 65.2262 88.4032 64.8342C88.8512 64.4236 89.4019 64.2182 90.0552 64.2182C90.7272 64.2182 91.2779 64.4236 91.7072 64.8342C92.1365 65.2262 92.3512 65.7489 92.3512 66.4022C92.3512 67.0556 92.1365 67.5782 91.7072 67.9702C91.2779 68.3622 90.7272 68.5582 90.0552 68.5582ZM102.476 73.5142H98.8083V71.1062L102.616 70.9662L103.036 67.2142H105.696V70.9662H111.968V73.5142H105.696V79.1702C105.696 80.3089 105.93 81.1489 106.396 81.6902C106.863 82.2129 107.684 82.4742 108.86 82.4742C109.458 82.4742 109.999 82.4276 110.484 82.3342C110.97 82.2222 111.436 82.0822 111.884 81.9142L112.5 84.2662C111.884 84.4716 111.203 84.6489 110.456 84.7982C109.71 84.9662 108.916 85.0502 108.076 85.0502C107.031 85.0502 106.154 84.9102 105.444 84.6302C104.735 84.3502 104.156 83.9582 103.708 83.4542C103.279 82.9316 102.962 82.3062 102.756 81.5782C102.57 80.8502 102.476 80.0476 102.476 79.1702V73.5142ZM117.193 80.8782C117.977 81.4196 118.789 81.8489 119.629 82.1662C120.488 82.4649 121.449 82.6142 122.513 82.6142C123.596 82.6142 124.389 82.4649 124.893 82.1662C125.397 81.8489 125.649 81.4476 125.649 80.9622C125.649 80.4769 125.323 80.0756 124.669 79.7582C124.016 79.4222 122.989 79.0676 121.589 78.6942C120.936 78.5262 120.301 78.3209 119.685 78.0782C119.069 77.8356 118.528 77.5556 118.061 77.2382C117.595 76.9209 117.221 76.5569 116.941 76.1462C116.661 75.7356 116.521 75.2689 116.521 74.7462C116.521 73.5329 117.044 72.5436 118.089 71.7782C119.135 71.0129 120.637 70.6302 122.597 70.6302C123.717 70.6302 124.772 70.8169 125.761 71.1902C126.751 71.5636 127.6 71.9836 128.309 72.4502L126.825 74.4382C126.209 74.0276 125.547 73.7009 124.837 73.4582C124.147 73.1969 123.409 73.0662 122.625 73.0662C121.561 73.0662 120.815 73.2156 120.385 73.5142C119.956 73.7942 119.741 74.1489 119.741 74.5782C119.741 74.8209 119.835 75.0449 120.021 75.2502C120.227 75.4369 120.497 75.6142 120.833 75.7822C121.188 75.9316 121.599 76.0809 122.065 76.2302C122.532 76.3796 123.045 76.5196 123.605 76.6502C124.408 76.8556 125.127 77.0889 125.761 77.3502C126.415 77.5929 126.965 77.8729 127.413 78.1902C127.88 78.5076 128.235 78.8809 128.477 79.3102C128.739 79.7396 128.869 80.2342 128.869 80.7942C128.869 81.3916 128.729 81.9516 128.449 82.4742C128.169 82.9782 127.759 83.4262 127.217 83.8182C126.676 84.1916 126.004 84.4902 125.201 84.7142C124.399 84.9382 123.475 85.0502 122.429 85.0502C121.141 85.0502 119.909 84.8449 118.733 84.4342C117.557 84.0236 116.54 83.5196 115.681 82.9222L117.193 80.8782ZM149.707 71.1622H162.139V73.5142H149.707V71.1622ZM149.707 77.4062H162.139V79.7582H149.707V77.4062ZM186.646 85.8342V90.1462H183.398V70.9662H186.058L186.31 72.5342H186.394C186.991 71.9929 187.672 71.5449 188.438 71.1902C189.222 70.8169 190.006 70.6302 190.79 70.6302C191.686 70.6302 192.479 70.7982 193.17 71.1342C193.879 71.4516 194.467 71.9182 194.934 72.5342C195.419 73.1502 195.783 73.8876 196.026 74.7462C196.287 75.6049 196.418 76.5662 196.418 77.6302C196.418 78.8062 196.25 79.8609 195.914 80.7942C195.578 81.7089 195.12 82.4836 194.542 83.1182C193.982 83.7342 193.328 84.2102 192.582 84.5462C191.854 84.8822 191.098 85.0502 190.314 85.0502C189.679 85.0502 189.026 84.9102 188.354 84.6302C187.7 84.3502 187.094 83.9489 186.534 83.4262L186.646 85.8342ZM186.646 81.1302C187.15 81.5969 187.663 81.9236 188.186 82.1102C188.727 82.2969 189.212 82.3902 189.642 82.3902C190.631 82.3902 191.452 81.9982 192.106 81.2142C192.759 80.4116 193.086 79.2262 193.086 77.6582C193.086 76.2769 192.834 75.2036 192.33 74.4382C191.826 73.6729 191.014 73.2902 189.894 73.2902C189.371 73.2902 188.839 73.4209 188.298 73.6822C187.756 73.9436 187.206 74.3636 186.646 74.9422V81.1302ZM199.375 77.8542C199.375 76.7342 199.543 75.7262 199.879 74.8302C200.215 73.9342 200.663 73.1782 201.223 72.5622C201.801 71.9462 202.455 71.4702 203.183 71.1342C203.911 70.7982 204.667 70.6302 205.451 70.6302C206.272 70.6302 206.972 70.7796 207.551 71.0782C208.148 71.3582 208.727 71.7502 209.287 72.2542L209.147 69.9302V64.9462H212.395V84.7142H209.735L209.483 83.1182H209.399C208.857 83.6596 208.223 84.1169 207.495 84.4902C206.785 84.8636 206.039 85.0502 205.255 85.0502C204.377 85.0502 203.575 84.8916 202.847 84.5742C202.119 84.2382 201.493 83.7622 200.971 83.1462C200.467 82.5302 200.075 81.7836 199.795 80.9062C199.515 80.0102 199.375 78.9929 199.375 77.8542ZM202.707 77.8262C202.707 79.3196 202.996 80.4582 203.575 81.2422C204.153 82.0076 204.975 82.3902 206.039 82.3902C207.177 82.3902 208.213 81.8396 209.147 80.7382V74.5502C208.661 74.0836 208.176 73.7569 207.691 73.5702C207.205 73.3836 206.711 73.2902 206.207 73.2902C205.721 73.2902 205.264 73.3929 204.835 73.5982C204.424 73.8036 204.06 74.1022 203.743 74.4942C203.425 74.8676 203.173 75.3342 202.987 75.8942C202.8 76.4542 202.707 77.0982 202.707 77.8262ZM220.308 82.2222C220.308 81.4009 220.569 80.7289 221.092 80.2062C221.614 79.6649 222.277 79.3942 223.08 79.3942C223.882 79.3942 224.545 79.6649 225.068 80.2062C225.59 80.7289 225.852 81.4009 225.852 82.2222C225.852 83.0436 225.59 83.7249 225.068 84.2662C224.545 84.7889 223.882 85.0502 223.08 85.0502C222.277 85.0502 221.614 84.7889 221.092 84.2662C220.569 83.7249 220.308 83.0436 220.308 82.2222ZM234.997 80.1502C235.687 80.7662 236.462 81.2702 237.321 81.6622C238.198 82.0356 239.085 82.2222 239.981 82.2222C241.101 82.2222 241.95 82.0076 242.529 81.5782C243.107 81.1489 243.397 80.5796 243.397 79.8702C243.397 79.4969 243.322 79.1796 243.173 78.9182C243.023 78.6569 242.809 78.4329 242.529 78.2462C242.267 78.0409 241.941 77.8542 241.549 77.6862C241.175 77.5182 240.765 77.3502 240.317 77.1822L237.825 76.0902C237.339 75.9036 236.863 75.6702 236.397 75.3902C235.93 75.1102 235.51 74.7742 235.137 74.3822C234.763 73.9902 234.465 73.5329 234.241 73.0102C234.017 72.4876 233.905 71.8902 233.905 71.2182C233.905 70.4902 234.063 69.8182 234.381 69.2022C234.698 68.5676 235.137 68.0169 235.697 67.5502C236.257 67.0836 236.919 66.7196 237.685 66.4582C238.469 66.1969 239.327 66.0662 240.261 66.0662C241.381 66.0662 242.445 66.2809 243.453 66.7102C244.479 67.1209 245.375 67.6809 246.141 68.3902L244.461 70.4622C243.845 69.9769 243.201 69.5942 242.529 69.3142C241.857 69.0342 241.101 68.8942 240.261 68.8942C239.309 68.8942 238.553 69.0902 237.993 69.4822C237.451 69.8556 237.181 70.3782 237.181 71.0502C237.181 71.4049 237.265 71.7129 237.433 71.9742C237.601 72.2169 237.825 72.4409 238.105 72.6462C238.403 72.8329 238.739 73.0009 239.113 73.1502C239.505 73.2996 239.906 73.4582 240.317 73.6262L242.725 74.6622C243.303 74.8862 243.835 75.1476 244.321 75.4462C244.806 75.7449 245.226 76.0902 245.581 76.4822C245.935 76.8742 246.206 77.3316 246.393 77.8542C246.598 78.3582 246.701 78.9462 246.701 79.6182C246.701 80.3649 246.542 81.0649 246.225 81.7182C245.926 82.3716 245.487 82.9502 244.909 83.4542C244.33 83.9396 243.621 84.3316 242.781 84.6302C241.941 84.9102 240.989 85.0502 239.925 85.0502C238.637 85.0502 237.405 84.8169 236.229 84.3502C235.053 83.8836 234.007 83.2209 233.093 82.3622L234.997 80.1502ZM249.994 77.8542C249.994 76.7342 250.19 75.7262 250.582 74.8302C250.992 73.9342 251.524 73.1782 252.178 72.5622C252.831 71.9276 253.578 71.4516 254.418 71.1342C255.276 70.7982 256.154 70.6302 257.05 70.6302C258.076 70.6302 258.982 70.7982 259.766 71.1342C260.568 71.4516 261.24 71.8996 261.782 72.4782C262.323 73.0382 262.734 73.7196 263.014 74.5222C263.294 75.3249 263.434 76.2022 263.434 77.1542C263.434 77.4716 263.415 77.7702 263.378 78.0502C263.359 78.3302 263.331 78.5542 263.294 78.7222H253.298C253.41 79.9542 253.895 80.9062 254.754 81.5782C255.612 82.2316 256.667 82.5582 257.918 82.5582C258.627 82.5582 259.29 82.4649 259.906 82.2782C260.522 82.0729 261.147 81.7929 261.782 81.4382L262.874 83.4542C262.127 83.9209 261.296 84.3036 260.382 84.6022C259.467 84.9009 258.506 85.0502 257.498 85.0502C256.452 85.0502 255.472 84.8916 254.558 84.5742C253.643 84.2382 252.85 83.7622 252.178 83.1462C251.506 82.5302 250.974 81.7836 250.582 80.9062C250.19 80.0102 249.994 78.9929 249.994 77.8542ZM260.466 76.5382C260.466 75.4742 260.186 74.6436 259.626 74.0462C259.066 73.4302 258.235 73.1222 257.134 73.1222C256.2 73.1222 255.37 73.4116 254.642 73.9902C253.914 74.5689 253.456 75.4182 253.27 76.5382H260.466ZM268.687 70.9662H271.347L271.627 74.0742H271.711C272.42 72.9542 273.27 72.1049 274.259 71.5262C275.267 70.9289 276.368 70.6302 277.563 70.6302C278.123 70.6302 278.599 70.6769 278.991 70.7702C279.402 70.8449 279.812 70.9849 280.223 71.1902L279.551 73.9062C279.103 73.7569 278.702 73.6542 278.347 73.5982C278.011 73.5236 277.582 73.4862 277.059 73.4862C276.107 73.4862 275.192 73.7569 274.315 74.2982C273.438 74.8396 272.644 75.7822 271.935 77.1262V84.7142H268.687V70.9662ZM284.188 70.9662H293.372V84.7142H290.152V73.5142H284.188V70.9662ZM291.524 68.5582C290.871 68.5582 290.32 68.3622 289.872 67.9702C289.443 67.5782 289.228 67.0556 289.228 66.4022C289.228 65.7489 289.443 65.2262 289.872 64.8342C290.32 64.4236 290.871 64.2182 291.524 64.2182C292.196 64.2182 292.747 64.4236 293.176 64.8342C293.605 65.2262 293.82 65.7489 293.82 66.4022C293.82 67.0556 293.605 67.5782 293.176 67.9702C292.747 68.3622 292.196 68.5582 291.524 68.5582ZM300.361 77.8542C300.361 76.7342 300.557 75.7262 300.949 74.8302C301.36 73.9342 301.892 73.1782 302.545 72.5622C303.198 71.9276 303.945 71.4516 304.785 71.1342C305.644 70.7982 306.521 70.6302 307.417 70.6302C308.444 70.6302 309.349 70.7982 310.133 71.1342C310.936 71.4516 311.608 71.8996 312.149 72.4782C312.69 73.0382 313.101 73.7196 313.381 74.5222C313.661 75.3249 313.801 76.2022 313.801 77.1542C313.801 77.4716 313.782 77.7702 313.745 78.0502C313.726 78.3302 313.698 78.5542 313.661 78.7222H303.665C303.777 79.9542 304.262 80.9062 305.121 81.5782C305.98 82.2316 307.034 82.5582 308.285 82.5582C308.994 82.5582 309.657 82.4649 310.273 82.2782C310.889 82.0729 311.514 81.7929 312.149 81.4382L313.241 83.4542C312.494 83.9209 311.664 84.3036 310.749 84.6022C309.834 84.9009 308.873 85.0502 307.865 85.0502C306.82 85.0502 305.84 84.8916 304.925 84.5742C304.01 84.2382 303.217 83.7622 302.545 83.1462C301.873 82.5302 301.341 81.7836 300.949 80.9062C300.557 80.0102 300.361 78.9929 300.361 77.8542ZM310.833 76.5382C310.833 75.4742 310.553 74.6436 309.993 74.0462C309.433 73.4302 308.602 73.1222 307.501 73.1222C306.568 73.1222 305.737 73.4116 305.009 73.9902C304.281 74.5689 303.824 75.4182 303.637 76.5382H310.833ZM318.662 80.8782C319.446 81.4196 320.258 81.8489 321.098 82.1662C321.957 82.4649 322.918 82.6142 323.982 82.6142C325.065 82.6142 325.858 82.4649 326.362 82.1662C326.866 81.8489 327.118 81.4476 327.118 80.9622C327.118 80.4769 326.791 80.0756 326.138 79.7582C325.485 79.4222 324.458 79.0676 323.058 78.6942C322.405 78.5262 321.77 78.3209 321.154 78.0782C320.538 77.8356 319.997 77.5556 319.53 77.2382C319.063 76.9209 318.69 76.5569 318.41 76.1462C318.13 75.7356 317.99 75.2689 317.99 74.7462C317.99 73.5329 318.513 72.5436 319.558 71.7782C320.603 71.0129 322.106 70.6302 324.066 70.6302C325.186 70.6302 326.241 70.8169 327.23 71.1902C328.219 71.5636 329.069 71.9836 329.778 72.4502L328.294 74.4382C327.678 74.0276 327.015 73.7009 326.306 73.4582C325.615 73.1969 324.878 73.0662 324.094 73.0662C323.03 73.0662 322.283 73.2156 321.854 73.5142C321.425 73.7942 321.21 74.1489 321.21 74.5782C321.21 74.8209 321.303 75.0449 321.49 75.2502C321.695 75.4369 321.966 75.6142 322.302 75.7822C322.657 75.9316 323.067 76.0809 323.534 76.2302C324.001 76.3796 324.514 76.5196 325.074 76.6502C325.877 76.8556 326.595 77.0889 327.23 77.3502C327.883 77.5929 328.434 77.8729 328.882 78.1902C329.349 78.5076 329.703 78.8809 329.946 79.3102C330.207 79.7396 330.338 80.2342 330.338 80.7942C330.338 81.3916 330.198 81.9516 329.918 82.4742C329.638 82.9782 329.227 83.4262 328.686 83.8182C328.145 84.1916 327.473 84.4902 326.67 84.7142C325.867 84.9382 324.943 85.0502 323.898 85.0502C322.61 85.0502 321.378 84.8449 320.202 84.4342C319.026 84.0236 318.009 83.5196 317.15 82.9222L318.662 80.8782ZM343.739 89.6702C341.854 88.1022 340.36 86.2542 339.259 84.1262C338.176 81.9982 337.635 79.5996 337.635 76.9302C337.635 74.2609 338.176 71.8622 339.259 69.7342C340.36 67.6062 341.854 65.7582 343.739 64.1902L345.531 65.6742C343.758 67.2796 342.46 68.9876 341.639 70.7982C340.818 72.6089 340.407 74.6529 340.407 76.9302C340.407 79.2076 340.818 81.2516 341.639 83.0622C342.46 84.8729 343.758 86.5809 345.531 88.1862L343.739 89.6702ZM354.956 64.8902H362.964V66.6542H357.448V87.2062H362.964V88.9702H354.956V64.8902ZM488.597 88.8022C490.967 87.8502 492.162 86.4129 492.181 84.4902C492.087 84.5089 491.957 84.5182 491.789 84.5182C491.079 84.5182 490.463 84.3129 489.941 83.9022C489.418 83.4729 489.157 82.8476 489.157 82.0262C489.157 81.2422 489.418 80.6356 489.941 80.2062C490.482 79.7582 491.117 79.5342 491.845 79.5342C492.853 79.5342 493.609 79.9076 494.113 80.6542C494.617 81.4009 494.869 82.4276 494.869 83.7342C494.869 85.4516 494.402 86.8982 493.469 88.0742C492.535 89.2689 491.191 90.1556 489.437 90.7342L488.597 88.8022ZM505.386 122.802C507.756 121.85 508.951 120.413 508.97 118.49C508.876 118.509 508.746 118.518 508.578 118.518C507.868 118.518 507.252 118.313 506.73 117.902C506.207 117.473 505.946 116.848 505.946 116.026C505.946 115.242 506.207 114.636 506.73 114.206C507.271 113.758 507.906 113.534 508.634 113.534C509.642 113.534 510.398 113.908 510.902 114.654C511.406 115.401 511.658 116.428 511.658 117.734C511.658 119.452 511.191 120.898 510.258 122.074C509.324 123.269 507.98 124.156 506.226 124.734L505.386 122.802ZM508.438 157.206V136.654H502.95V134.89H510.958V158.97H502.95V157.206H508.438ZM520.355 158.186C522.128 156.581 523.425 154.873 524.247 153.062C525.068 151.252 525.479 149.208 525.479 146.93C525.479 144.653 525.068 142.609 524.247 140.798C523.425 138.988 522.128 137.28 520.355 135.674L522.147 134.19C524.032 135.758 525.516 137.606 526.599 139.734C527.7 141.862 528.251 144.261 528.251 146.93C528.251 149.6 527.7 151.998 526.599 154.126C525.516 156.254 524.032 158.102 522.147 159.67L520.355 158.186Z" fill="#2E383C"/>
<path d="M372.305 69.0902L372.221 65.5062H376.141L376.057 69.0902L375.217 75.5582H373.145L372.305 69.0902ZM393.238 77.2102L392.594 74.9702C392.333 73.9996 392.062 73.0009 391.782 71.9742C391.502 70.9476 391.232 69.9302 390.97 68.9222H390.858C390.597 69.9489 390.326 70.9756 390.046 72.0022C389.785 73.0102 389.514 73.9996 389.234 74.9702L388.59 77.2102H393.238ZM393.966 79.7582H387.862L386.434 84.7142H383.13L389.066 66.4022H392.874L398.81 84.7142H395.366L393.966 79.7582ZM404.903 85.8342V90.1462H401.655V70.9662H404.315L404.567 72.5342H404.651C405.249 71.9929 405.93 71.5449 406.695 71.1902C407.479 70.8169 408.263 70.6302 409.047 70.6302C409.943 70.6302 410.737 70.7982 411.427 71.1342C412.137 71.4516 412.725 71.9182 413.191 72.5342C413.677 73.1502 414.041 73.8876 414.283 74.7462C414.545 75.6049 414.675 76.5662 414.675 77.6302C414.675 78.8062 414.507 79.8609 414.171 80.7942C413.835 81.7089 413.378 82.4836 412.799 83.1182C412.239 83.7342 411.586 84.2102 410.839 84.5462C410.111 84.8822 409.355 85.0502 408.571 85.0502C407.937 85.0502 407.283 84.9102 406.611 84.6302C405.958 84.3502 405.351 83.9489 404.791 83.4262L404.903 85.8342ZM404.903 81.1302C405.407 81.5969 405.921 81.9236 406.443 82.1102C406.985 82.2969 407.47 82.3902 407.899 82.3902C408.889 82.3902 409.71 81.9982 410.363 81.2142C411.017 80.4116 411.343 79.2262 411.343 77.6582C411.343 76.2769 411.091 75.2036 410.587 74.4382C410.083 73.6729 409.271 73.2902 408.151 73.2902C407.629 73.2902 407.097 73.4209 406.555 73.6822C406.014 73.9436 405.463 74.3636 404.903 74.9422V81.1302ZM421.692 85.8342V90.1462H418.444V70.9662H421.104L421.356 72.5342H421.44C422.038 71.9929 422.719 71.5449 423.484 71.1902C424.268 70.8169 425.052 70.6302 425.836 70.6302C426.732 70.6302 427.526 70.7982 428.216 71.1342C428.926 71.4516 429.514 71.9182 429.98 72.5342C430.466 73.1502 430.83 73.8876 431.072 74.7462C431.334 75.6049 431.464 76.5662 431.464 77.6302C431.464 78.8062 431.296 79.8609 430.96 80.7942C430.624 81.7089 430.167 82.4836 429.588 83.1182C429.028 83.7342 428.375 84.2102 427.628 84.5462C426.9 84.8822 426.144 85.0502 425.36 85.0502C424.726 85.0502 424.072 84.9102 423.4 84.6302C422.747 84.3502 422.14 83.9489 421.58 83.4262L421.692 85.8342ZM421.692 81.1302C422.196 81.5969 422.71 81.9236 423.232 82.1102C423.774 82.2969 424.259 82.3902 424.688 82.3902C425.678 82.3902 426.499 81.9982 427.152 81.2142C427.806 80.4116 428.132 79.2262 428.132 77.6582C428.132 76.2769 427.88 75.2036 427.376 74.4382C426.872 73.6729 426.06 73.2902 424.94 73.2902C424.418 73.2902 423.886 73.4209 423.344 73.6822C422.803 73.9436 422.252 74.3636 421.692 74.9422V81.1302ZM434.926 64.9462H442.486V79.8702C442.486 80.8036 442.719 81.4662 443.186 81.8582C443.652 82.2316 444.24 82.4182 444.95 82.4182C445.622 82.4182 446.406 82.2409 447.302 81.8862L448.058 84.2662C447.404 84.4902 446.788 84.6769 446.21 84.8262C445.65 84.9756 444.968 85.0502 444.166 85.0502C442.542 85.0502 441.319 84.5836 440.498 83.6502C439.676 82.7169 439.266 81.4009 439.266 79.7022V67.4942H434.926V64.9462ZM451.463 77.8542C451.463 76.7342 451.659 75.7262 452.051 74.8302C452.461 73.9342 452.993 73.1782 453.647 72.5622C454.3 71.9276 455.047 71.4516 455.887 71.1342C456.745 70.7982 457.623 70.6302 458.519 70.6302C459.545 70.6302 460.451 70.7982 461.235 71.1342C462.037 71.4516 462.709 71.8996 463.251 72.4782C463.792 73.0382 464.203 73.7196 464.483 74.5222C464.763 75.3249 464.903 76.2022 464.903 77.1542C464.903 77.4716 464.884 77.7702 464.847 78.0502C464.828 78.3302 464.8 78.5542 464.763 78.7222H454.767C454.879 79.9542 455.364 80.9062 456.223 81.5782C457.081 82.2316 458.136 82.5582 459.387 82.5582C460.096 82.5582 460.759 82.4649 461.375 82.2782C461.991 82.0729 462.616 81.7929 463.251 81.4382L464.343 83.4542C463.596 83.9209 462.765 84.3036 461.851 84.6022C460.936 84.9009 459.975 85.0502 458.967 85.0502C457.921 85.0502 456.941 84.8916 456.027 84.5742C455.112 84.2382 454.319 83.7622 453.647 83.1462C452.975 82.5302 452.443 81.7836 452.051 80.9062C451.659 80.0102 451.463 78.9929 451.463 77.8542ZM461.935 76.5382C461.935 75.4742 461.655 74.6436 461.095 74.0462C460.535 73.4302 459.704 73.1222 458.603 73.1222C457.669 73.1222 456.839 73.4116 456.111 73.9902C455.383 74.5689 454.925 75.4182 454.739 76.5382H461.935ZM473.04 69.0902L472.956 65.5062H476.876L476.792 69.0902L475.952 75.5582H473.88L473.04 69.0902ZM372.305 103.09L372.221 99.5062H376.141L376.057 103.09L375.217 109.558H373.145L372.305 103.09ZM385.174 100.402H390.578C391.512 100.402 392.37 100.486 393.154 100.654C393.957 100.804 394.648 101.056 395.226 101.41C395.805 101.746 396.253 102.204 396.57 102.782C396.906 103.361 397.074 104.07 397.074 104.91C397.074 105.788 396.813 106.6 396.29 107.346C395.768 108.093 394.965 108.606 393.882 108.886V108.998C395.226 109.222 396.244 109.698 396.934 110.426C397.644 111.136 397.998 112.106 397.998 113.338C397.998 114.253 397.821 115.046 397.466 115.718C397.13 116.39 396.645 116.95 396.01 117.398C395.394 117.846 394.657 118.182 393.798 118.406C392.958 118.612 392.034 118.714 391.026 118.714H385.174V100.402ZM390.27 107.99C391.558 107.99 392.482 107.757 393.042 107.29C393.602 106.824 393.882 106.161 393.882 105.302C393.882 104.462 393.584 103.856 392.986 103.482C392.408 103.109 391.53 102.922 390.354 102.922H388.422V107.99H390.27ZM390.69 116.194C392.034 116.194 393.061 115.942 393.77 115.438C394.48 114.934 394.834 114.16 394.834 113.114C394.834 111.248 393.453 110.314 390.69 110.314H388.422V116.194H390.69ZM401.347 115.018C401.347 114.253 401.525 113.581 401.879 113.002C402.234 112.405 402.794 111.901 403.559 111.49C404.325 111.08 405.305 110.744 406.499 110.482C407.694 110.221 409.141 110.034 410.839 109.922C410.783 109.138 410.503 108.494 409.999 107.99C409.495 107.486 408.683 107.234 407.563 107.234C406.779 107.234 406.005 107.384 405.239 107.682C404.493 107.962 403.765 108.298 403.055 108.69L401.879 106.534C402.719 106.049 403.681 105.61 404.763 105.218C405.846 104.826 406.975 104.63 408.151 104.63C410.074 104.63 411.539 105.144 412.547 106.17C413.555 107.178 414.059 108.644 414.059 110.566V118.714H411.427L411.175 117.006H411.091C410.363 117.566 409.551 118.052 408.655 118.462C407.778 118.854 406.873 119.05 405.939 119.05C405.267 119.05 404.651 118.948 404.091 118.742C403.531 118.556 403.046 118.285 402.635 117.93C402.225 117.576 401.907 117.156 401.683 116.67C401.459 116.166 401.347 115.616 401.347 115.018ZM404.455 114.766C404.455 115.382 404.689 115.83 405.155 116.11C405.641 116.39 406.229 116.53 406.919 116.53C407.61 116.53 408.273 116.381 408.907 116.082C409.561 115.765 410.205 115.354 410.839 114.85V111.938C409.607 112.032 408.581 112.162 407.759 112.33C406.938 112.48 406.285 112.676 405.799 112.918C405.314 113.161 404.969 113.441 404.763 113.758C404.558 114.057 404.455 114.393 404.455 114.766ZM418.444 104.966H421.104L421.356 107.038H421.468C422.122 106.385 422.84 105.825 423.624 105.358C424.427 104.873 425.36 104.63 426.424 104.63C428.011 104.63 429.178 105.116 429.924 106.086C430.671 107.038 431.044 108.41 431.044 110.202V118.714H427.796V110.622C427.796 109.502 427.6 108.69 427.208 108.186C426.835 107.664 426.172 107.402 425.22 107.402C424.548 107.402 423.951 107.561 423.428 107.878C422.906 108.196 422.327 108.681 421.692 109.334V118.714H418.444V104.966ZM434.926 115.018C434.926 114.253 435.103 113.581 435.458 113.002C435.812 112.405 436.372 111.901 437.138 111.49C437.903 111.08 438.883 110.744 440.078 110.482C441.272 110.221 442.719 110.034 444.418 109.922C444.362 109.138 444.082 108.494 443.578 107.99C443.074 107.486 442.262 107.234 441.142 107.234C440.358 107.234 439.583 107.384 438.818 107.682C438.071 107.962 437.343 108.298 436.633 108.69L435.458 106.534C436.298 106.049 437.259 105.61 438.342 105.218C439.424 104.826 440.554 104.63 441.73 104.63C443.652 104.63 445.118 105.144 446.126 106.17C447.134 107.178 447.638 108.644 447.638 110.566V118.714H445.006L444.754 117.006H444.67C443.942 117.566 443.13 118.052 442.234 118.462C441.356 118.854 440.451 119.05 439.518 119.05C438.846 119.05 438.23 118.948 437.67 118.742C437.11 118.556 436.624 118.285 436.214 117.93C435.803 117.576 435.486 117.156 435.262 116.67C435.038 116.166 434.926 115.616 434.926 115.018ZM438.034 114.766C438.034 115.382 438.267 115.83 438.734 116.11C439.219 116.39 439.807 116.53 440.498 116.53C441.188 116.53 441.851 116.381 442.486 116.082C443.139 115.765 443.783 115.354 444.418 114.85V111.938C443.186 112.032 442.159 112.162 441.338 112.33C440.516 112.48 439.863 112.676 439.378 112.918C438.892 113.161 438.547 113.441 438.342 113.758C438.136 114.057 438.034 114.393 438.034 114.766ZM452.023 104.966H454.683L454.935 107.038H455.047C455.7 106.385 456.419 105.825 457.203 105.358C458.005 104.873 458.939 104.63 460.003 104.63C461.589 104.63 462.756 105.116 463.503 106.086C464.249 107.038 464.623 108.41 464.623 110.202V118.714H461.375V110.622C461.375 109.502 461.179 108.69 460.787 108.186C460.413 107.664 459.751 107.402 458.799 107.402C458.127 107.402 457.529 107.561 457.007 107.878C456.484 108.196 455.905 108.681 455.271 109.334V118.714H452.023V104.966ZM468.504 115.018C468.504 114.253 468.681 113.581 469.036 113.002C469.39 112.405 469.95 111.901 470.716 111.49C471.481 111.08 472.461 110.744 473.656 110.482C474.85 110.221 476.297 110.034 477.996 109.922C477.94 109.138 477.66 108.494 477.156 107.99C476.652 107.486 475.84 107.234 474.72 107.234C473.936 107.234 473.161 107.384 472.396 107.682C471.649 107.962 470.921 108.298 470.212 108.69L469.036 106.534C469.876 106.049 470.837 105.61 471.92 105.218C473.002 104.826 474.132 104.63 475.308 104.63C477.23 104.63 478.696 105.144 479.704 106.17C480.712 107.178 481.216 108.644 481.216 110.566V118.714H478.584L478.332 117.006H478.248C477.52 117.566 476.708 118.052 475.812 118.462C474.934 118.854 474.029 119.05 473.096 119.05C472.424 119.05 471.808 118.948 471.248 118.742C470.688 118.556 470.202 118.285 469.792 117.93C469.381 117.576 469.064 117.156 468.84 116.67C468.616 116.166 468.504 115.616 468.504 115.018ZM471.612 114.766C471.612 115.382 471.845 115.83 472.312 116.11C472.797 116.39 473.385 116.53 474.076 116.53C474.766 116.53 475.429 116.381 476.064 116.082C476.717 115.765 477.361 115.354 477.996 114.85V111.938C476.764 112.032 475.737 112.162 474.916 112.33C474.094 112.48 473.441 112.676 472.956 112.918C472.47 113.161 472.125 113.441 471.92 113.758C471.714 114.057 471.612 114.393 471.612 114.766ZM489.829 103.09L489.745 99.5062H493.665L493.581 103.09L492.741 109.558H490.669L489.829 103.09ZM372.305 139.09L372.221 135.506H376.141L376.057 139.09L375.217 145.558H373.145L372.305 139.09ZM385.174 136.402H390.578C391.512 136.402 392.37 136.486 393.154 136.654C393.957 136.804 394.648 137.056 395.226 137.41C395.805 137.746 396.253 138.204 396.57 138.782C396.906 139.361 397.074 140.07 397.074 140.91C397.074 141.788 396.813 142.6 396.29 143.346C395.768 144.093 394.965 144.606 393.882 144.886V144.998C395.226 145.222 396.244 145.698 396.934 146.426C397.644 147.136 397.998 148.106 397.998 149.338C397.998 150.253 397.821 151.046 397.466 151.718C397.13 152.39 396.645 152.95 396.01 153.398C395.394 153.846 394.657 154.182 393.798 154.406C392.958 154.612 392.034 154.714 391.026 154.714H385.174V136.402ZM390.27 143.99C391.558 143.99 392.482 143.757 393.042 143.29C393.602 142.824 393.882 142.161 393.882 141.302C393.882 140.462 393.584 139.856 392.986 139.482C392.408 139.109 391.53 138.922 390.354 138.922H388.422V143.99H390.27ZM390.69 152.194C392.034 152.194 393.061 151.942 393.77 151.438C394.48 150.934 394.834 150.16 394.834 149.114C394.834 147.248 393.453 146.314 390.69 146.314H388.422V152.194H390.69ZM401.347 151.018C401.347 150.253 401.525 149.581 401.879 149.002C402.234 148.405 402.794 147.901 403.559 147.49C404.325 147.08 405.305 146.744 406.499 146.482C407.694 146.221 409.141 146.034 410.839 145.922C410.783 145.138 410.503 144.494 409.999 143.99C409.495 143.486 408.683 143.234 407.563 143.234C406.779 143.234 406.005 143.384 405.239 143.682C404.493 143.962 403.765 144.298 403.055 144.69L401.879 142.534C402.719 142.049 403.681 141.61 404.763 141.218C405.846 140.826 406.975 140.63 408.151 140.63C410.074 140.63 411.539 141.144 412.547 142.17C413.555 143.178 414.059 144.644 414.059 146.566V154.714H411.427L411.175 153.006H411.091C410.363 153.566 409.551 154.052 408.655 154.462C407.778 154.854 406.873 155.05 405.939 155.05C405.267 155.05 404.651 154.948 404.091 154.742C403.531 154.556 403.046 154.285 402.635 153.93C402.225 153.576 401.907 153.156 401.683 152.67C401.459 152.166 401.347 151.616 401.347 151.018ZM404.455 150.766C404.455 151.382 404.689 151.83 405.155 152.11C405.641 152.39 406.229 152.53 406.919 152.53C407.61 152.53 408.273 152.381 408.907 152.082C409.561 151.765 410.205 151.354 410.839 150.85V147.938C409.607 148.032 408.581 148.162 407.759 148.33C406.938 148.48 406.285 148.676 405.799 148.918C405.314 149.161 404.969 149.441 404.763 149.758C404.558 150.057 404.455 150.393 404.455 150.766ZM418.444 140.966H421.104L421.356 143.038H421.468C422.122 142.385 422.84 141.825 423.624 141.358C424.427 140.873 425.36 140.63 426.424 140.63C428.011 140.63 429.178 141.116 429.924 142.086C430.671 143.038 431.044 144.41 431.044 146.202V154.714H427.796V146.622C427.796 145.502 427.6 144.69 427.208 144.186C426.835 143.664 426.172 143.402 425.22 143.402C424.548 143.402 423.951 143.561 423.428 143.878C422.906 144.196 422.327 144.681 421.692 145.334V154.714H418.444V140.966ZM434.926 151.018C434.926 150.253 435.103 149.581 435.458 149.002C435.812 148.405 436.372 147.901 437.138 147.49C437.903 147.08 438.883 146.744 440.078 146.482C441.272 146.221 442.719 146.034 444.418 145.922C444.362 145.138 444.082 144.494 443.578 143.99C443.074 143.486 442.262 143.234 441.142 143.234C440.358 143.234 439.583 143.384 438.818 143.682C438.071 143.962 437.343 144.298 436.633 144.69L435.458 142.534C436.298 142.049 437.259 141.61 438.342 141.218C439.424 140.826 440.554 140.63 441.73 140.63C443.652 140.63 445.118 141.144 446.126 142.17C447.134 143.178 447.638 144.644 447.638 146.566V154.714H445.006L444.754 153.006H444.67C443.942 153.566 443.13 154.052 442.234 154.462C441.356 154.854 440.451 155.05 439.518 155.05C438.846 155.05 438.23 154.948 437.67 154.742C437.11 154.556 436.624 154.285 436.214 153.93C435.803 153.576 435.486 153.156 435.262 152.67C435.038 152.166 434.926 151.616 434.926 151.018ZM438.034 150.766C438.034 151.382 438.267 151.83 438.734 152.11C439.219 152.39 439.807 152.53 440.498 152.53C441.188 152.53 441.851 152.381 442.486 152.082C443.139 151.765 443.783 151.354 444.418 150.85V147.938C443.186 148.032 442.159 148.162 441.338 148.33C440.516 148.48 439.863 148.676 439.378 148.918C438.892 149.161 438.547 149.441 438.342 149.758C438.136 150.057 438.034 150.393 438.034 150.766ZM452.023 140.966H454.683L454.935 143.038H455.047C455.7 142.385 456.419 141.825 457.203 141.358C458.005 140.873 458.939 140.63 460.003 140.63C461.589 140.63 462.756 141.116 463.503 142.086C464.249 143.038 464.623 144.41 464.623 146.202V154.714H461.375V146.622C461.375 145.502 461.179 144.69 460.787 144.186C460.413 143.664 459.751 143.402 458.799 143.402C458.127 143.402 457.529 143.561 457.007 143.878C456.484 144.196 455.905 144.681 455.271 145.334V154.714H452.023V140.966ZM468.504 151.018C468.504 150.253 468.681 149.581 469.036 149.002C469.39 148.405 469.95 147.901 470.716 147.49C471.481 147.08 472.461 146.744 473.656 146.482C474.85 146.221 476.297 146.034 477.996 145.922C477.94 145.138 477.66 144.494 477.156 143.99C476.652 143.486 475.84 143.234 474.72 143.234C473.936 143.234 473.161 143.384 472.396 143.682C471.649 143.962 470.921 144.298 470.212 144.69L469.036 142.534C469.876 142.049 470.837 141.61 471.92 141.218C473.002 140.826 474.132 140.63 475.308 140.63C477.23 140.63 478.696 141.144 479.704 142.17C480.712 143.178 481.216 144.644 481.216 146.566V154.714H478.584L478.332 153.006H478.248C477.52 153.566 476.708 154.052 475.812 154.462C474.934 154.854 474.029 155.05 473.096 155.05C472.424 155.05 471.808 154.948 471.248 154.742C470.688 154.556 470.202 154.285 469.792 153.93C469.381 153.576 469.064 153.156 468.84 152.67C468.616 152.166 468.504 151.616 468.504 151.018ZM471.612 150.766C471.612 151.382 471.845 151.83 472.312 152.11C472.797 152.39 473.385 152.53 474.076 152.53C474.766 152.53 475.429 152.381 476.064 152.082C476.717 151.765 477.361 151.354 477.996 150.85V147.938C476.764 148.032 475.737 148.162 474.916 148.33C474.094 148.48 473.441 148.676 472.956 148.918C472.47 149.161 472.125 149.441 471.92 149.758C471.714 150.057 471.612 150.393 471.612 150.766ZM489.829 139.09L489.745 135.506H493.665L493.581 139.09L492.741 145.558H490.669L489.829 139.09Z" fill="#B82629"/>
</g>
</g>
</g>
</svg>
