<svg width="1120" height="218" viewBox="0 0 1120 218" fill="none" xmlns="http://www.w3.org/2000/svg">
<g id="Frame">
<rect width="560" height="109" transform="scale(2)" fill="white"/>
<g id="Group">
<path id="Rectangle" d="M16 64H594V114H16V64Z" fill="#F1F4F8"/>
<g id="bool = fruits == &#39;Banana&#39;">
<path d="M27.8198 73.7471H31.0678V78.8431L30.9558 81.2511C31.5532 80.6911 32.2252 80.2525 32.9718 79.9351C33.7185 79.5991 34.4652 79.4311 35.2118 79.4311C36.1078 79.4311 36.9012 79.5991 37.5918 79.9351C38.2825 80.2525 38.8705 80.7191 39.3558 81.3351C39.8412 81.9325 40.2052 82.6605 40.4478 83.5191C40.7092 84.3778 40.8398 85.3391 40.8398 86.4031C40.8398 87.5791 40.6718 88.6338 40.3358 89.5671C39.9998 90.4818 39.5425 91.2565 38.9638 91.8911C38.4038 92.5258 37.7505 93.0111 37.0038 93.3471C36.2758 93.6831 35.5198 93.8511 34.7358 93.8511C34.0825 93.8511 33.4012 93.6925 32.6918 93.3751C31.9825 93.0578 31.3292 92.6005 30.7318 92.0031H30.6478L30.3678 93.5151H27.8198V73.7471ZM31.0678 89.9311C31.5718 90.3978 32.0945 90.7245 32.6358 90.9111C33.1772 91.0978 33.6625 91.1911 34.0918 91.1911C35.0625 91.1911 35.8745 90.7991 36.5278 90.0151C37.1812 89.2125 37.5078 88.0271 37.5078 86.4591C37.5078 85.0778 37.2558 84.0045 36.7518 83.2391C36.2478 82.4738 35.4358 82.0911 34.3158 82.0911C33.7932 82.0911 33.2612 82.2218 32.7198 82.4831C32.1785 82.7445 31.6278 83.1645 31.0678 83.7431V89.9311ZM43.7969 86.6551C43.7969 85.5165 43.9836 84.4991 44.3569 83.6031C44.7489 82.7071 45.2622 81.9511 45.8969 81.3351C46.5316 80.7191 47.2689 80.2525 48.1089 79.9351C48.9489 79.5991 49.8169 79.4311 50.7129 79.4311C51.6089 79.4311 52.4769 79.5991 53.3169 79.9351C54.1569 80.2525 54.8942 80.7191 55.5289 81.3351C56.1636 81.9511 56.6676 82.7071 57.0409 83.6031C57.4329 84.4991 57.6289 85.5165 57.6289 86.6551C57.6289 87.7938 57.4329 88.8111 57.0409 89.7071C56.6676 90.6031 56.1636 91.3591 55.5289 91.9751C54.8942 92.5911 54.1569 93.0578 53.3169 93.3751C52.4769 93.6925 51.6089 93.8511 50.7129 93.8511C49.8169 93.8511 48.9489 93.6925 48.1089 93.3751C47.2689 93.0578 46.5316 92.5911 45.8969 91.9751C45.2622 91.3591 44.7489 90.6031 44.3569 89.7071C43.9836 88.8111 43.7969 87.7938 43.7969 86.6551ZM47.1289 86.6551C47.1289 88.0365 47.4462 89.1471 48.0809 89.9871C48.7156 90.8085 49.5929 91.2191 50.7129 91.2191C51.8329 91.2191 52.7102 90.8085 53.3449 89.9871C53.9796 89.1471 54.2969 88.0365 54.2969 86.6551C54.2969 85.2551 53.9796 84.1445 53.3449 83.3231C52.7102 82.4831 51.8329 82.0631 50.7129 82.0631C49.5929 82.0631 48.7156 82.4831 48.0809 83.3231C47.4462 84.1445 47.1289 85.2551 47.1289 86.6551ZM60.586 86.6551C60.586 85.5165 60.7726 84.4991 61.146 83.6031C61.538 82.7071 62.0513 81.9511 62.686 81.3351C63.3206 80.7191 64.058 80.2525 64.898 79.9351C65.738 79.5991 66.606 79.4311 67.502 79.4311C68.398 79.4311 69.266 79.5991 70.106 79.9351C70.946 80.2525 71.6833 80.7191 72.318 81.3351C72.9526 81.9511 73.4566 82.7071 73.83 83.6031C74.222 84.4991 74.418 85.5165 74.418 86.6551C74.418 87.7938 74.222 88.8111 73.83 89.7071C73.4566 90.6031 72.9526 91.3591 72.318 91.9751C71.6833 92.5911 70.946 93.0578 70.106 93.3751C69.266 93.6925 68.398 93.8511 67.502 93.8511C66.606 93.8511 65.738 93.6925 64.898 93.3751C64.058 93.0578 63.3206 92.5911 62.686 91.9751C62.0513 91.3591 61.538 90.6031 61.146 89.7071C60.7726 88.8111 60.586 87.7938 60.586 86.6551ZM63.918 86.6551C63.918 88.0365 64.2353 89.1471 64.87 89.9871C65.5046 90.8085 66.382 91.2191 67.502 91.2191C68.622 91.2191 69.4993 90.8085 70.134 89.9871C70.7686 89.1471 71.086 88.0365 71.086 86.6551C71.086 85.2551 70.7686 84.1445 70.134 83.3231C69.4993 82.4831 68.622 82.0631 67.502 82.0631C66.382 82.0631 65.5046 82.4831 64.87 83.3231C64.2353 84.1445 63.918 85.2551 63.918 86.6551ZM77.879 73.7471H85.439V88.6711C85.439 89.6045 85.6724 90.2671 86.139 90.6591C86.6057 91.0325 87.1937 91.2191 87.903 91.2191C88.575 91.2191 89.359 91.0418 90.255 90.6871L91.011 93.0671C90.3577 93.2911 89.7417 93.4778 89.163 93.6271C88.603 93.7765 87.9217 93.8511 87.119 93.8511C85.495 93.8511 84.2724 93.3845 83.451 92.4511C82.6297 91.5178 82.219 90.2018 82.219 88.5031V76.2951H77.879V73.7471ZM111.653 79.9631H124.085V82.3151H111.653V79.9631ZM111.653 86.2071H124.085V88.5591H111.653V86.2071ZM158.671 76.5471C158.167 76.3418 157.673 76.1925 157.187 76.0991C156.721 76.0058 156.207 75.9591 155.647 75.9591C154.583 75.9591 153.809 76.2205 153.323 76.7431C152.857 77.2471 152.623 77.9845 152.623 78.9551V79.7671H157.859V82.3151H152.623V93.5151H149.431V82.3151H145.623V79.9071L149.431 79.7671V79.0111C149.431 78.2085 149.543 77.4618 149.767 76.7711C149.991 76.0805 150.337 75.4925 150.803 75.0071C151.289 74.5031 151.895 74.1111 152.623 73.8311C153.37 73.5511 154.247 73.4111 155.255 73.4111C156.002 73.4111 156.711 73.4765 157.383 73.6071C158.074 73.7378 158.727 73.9245 159.343 74.1671L158.671 76.5471ZM163.476 79.7671H166.136L166.416 82.8751H166.5C167.21 81.7551 168.059 80.9058 169.048 80.3271C170.056 79.7298 171.158 79.4311 172.352 79.4311C172.912 79.4311 173.388 79.4778 173.78 79.5711C174.191 79.6458 174.602 79.7858 175.012 79.9911L174.34 82.7071C173.892 82.5578 173.491 82.4551 173.136 82.3991C172.8 82.3245 172.371 82.2871 171.848 82.2871C170.896 82.2871 169.982 82.5578 169.104 83.0991C168.227 83.6405 167.434 84.5831 166.724 85.9271V93.5151H163.476V79.7671ZM191.045 93.5151H188.413L188.161 91.3311H188.049C187.396 92.0965 186.677 92.7125 185.893 93.1791C185.109 93.6271 184.204 93.8511 183.177 93.8511C181.572 93.8511 180.405 93.3751 179.677 92.4231C178.949 91.4525 178.585 90.0711 178.585 88.2791V79.7671H181.805V87.8591C181.805 88.9791 181.992 89.8005 182.365 90.3231C182.757 90.8271 183.429 91.0791 184.381 91.0791C185.035 91.0791 185.613 90.9298 186.117 90.6311C186.64 90.3325 187.209 89.8005 187.825 89.0351V79.7671H191.045V93.5151ZM195.766 79.7671H204.95V93.5151H201.73V82.3151H195.766V79.7671ZM203.102 77.3591C202.449 77.3591 201.898 77.1631 201.45 76.7711C201.021 76.3791 200.806 75.8565 200.806 75.2031C200.806 74.5498 201.021 74.0271 201.45 73.6351C201.898 73.2245 202.449 73.0191 203.102 73.0191C203.774 73.0191 204.325 73.2245 204.754 73.6351C205.184 74.0271 205.398 74.5498 205.398 75.2031C205.398 75.8565 205.184 76.3791 204.754 76.7711C204.325 77.1631 203.774 77.3591 203.102 77.3591ZM215.524 82.3151H211.856V79.9071L215.664 79.7671L216.084 76.0151H218.744V79.7671H225.016V82.3151H218.744V87.9711C218.744 89.1098 218.977 89.9498 219.444 90.4911C219.91 91.0138 220.732 91.2751 221.908 91.2751C222.505 91.2751 223.046 91.2285 223.532 91.1351C224.017 91.0231 224.484 90.8831 224.932 90.7151L225.548 93.0671C224.932 93.2725 224.25 93.4498 223.504 93.5991C222.757 93.7671 221.964 93.8511 221.124 93.8511C220.078 93.8511 219.201 93.7111 218.492 93.4311C217.782 93.1511 217.204 92.7591 216.756 92.2551C216.326 91.7325 216.009 91.1071 215.804 90.3791C215.617 89.6511 215.524 88.8485 215.524 87.9711V82.3151ZM230.241 89.6791C231.025 90.2205 231.837 90.6498 232.677 90.9671C233.535 91.2658 234.497 91.4151 235.561 91.4151C236.643 91.4151 237.437 91.2658 237.941 90.9671C238.445 90.6498 238.697 90.2485 238.697 89.7631C238.697 89.2778 238.37 88.8765 237.717 88.5591C237.063 88.2231 236.037 87.8685 234.637 87.4951C233.983 87.3271 233.349 87.1218 232.733 86.8791C232.117 86.6365 231.575 86.3565 231.109 86.0391C230.642 85.7218 230.269 85.3578 229.989 84.9471C229.709 84.5365 229.569 84.0698 229.569 83.5471C229.569 82.3338 230.091 81.3445 231.137 80.5791C232.182 79.8138 233.685 79.4311 235.645 79.4311C236.765 79.4311 237.819 79.6178 238.809 79.9911C239.798 80.3645 240.647 80.7845 241.357 81.2511L239.873 83.2391C239.257 82.8285 238.594 82.5018 237.885 82.2591C237.194 81.9978 236.457 81.8671 235.673 81.8671C234.609 81.8671 233.862 82.0165 233.433 82.3151C233.003 82.5951 232.789 82.9498 232.789 83.3791C232.789 83.6218 232.882 83.8458 233.069 84.0511C233.274 84.2378 233.545 84.4151 233.881 84.5831C234.235 84.7325 234.646 84.8818 235.113 85.0311C235.579 85.1805 236.093 85.3205 236.653 85.4511C237.455 85.6565 238.174 85.8898 238.809 86.1511C239.462 86.3938 240.013 86.6738 240.461 86.9911C240.927 87.3085 241.282 87.6818 241.525 88.1111C241.786 88.5405 241.917 89.0351 241.917 89.5951C241.917 90.1925 241.777 90.7525 241.497 91.2751C241.217 91.7791 240.806 92.2271 240.265 92.6191C239.723 92.9925 239.051 93.2911 238.249 93.5151C237.446 93.7391 236.522 93.8511 235.477 93.8511C234.189 93.8511 232.957 93.6458 231.781 93.2351C230.605 92.8245 229.587 92.3205 228.729 91.7231L230.241 89.6791ZM262.755 79.9631H275.187V82.3151H262.755V79.9631ZM262.755 86.2071H275.187V88.5591H262.755V86.2071ZM279.544 79.9631H291.976V82.3151H279.544V79.9631ZM279.544 86.2071H291.976V88.5591H279.544V86.2071Z" fill="#2E383C"/>
<path d="M317.462 77.8911L317.378 74.3071H321.298L321.214 77.8911L320.374 84.3591H318.302L317.462 77.8911ZM330.331 75.2031H335.735C336.668 75.2031 337.527 75.2871 338.311 75.4551C339.114 75.6045 339.804 75.8565 340.383 76.2111C340.962 76.5471 341.41 77.0045 341.727 77.5831C342.063 78.1618 342.231 78.8711 342.231 79.7111C342.231 80.5885 341.97 81.4005 341.447 82.1471C340.924 82.8938 340.122 83.4071 339.039 83.6871V83.7991C340.383 84.0231 341.4 84.4991 342.091 85.2271C342.8 85.9365 343.155 86.9071 343.155 88.1391C343.155 89.0538 342.978 89.8471 342.623 90.5191C342.287 91.1911 341.802 91.7511 341.167 92.1991C340.551 92.6471 339.814 92.9831 338.955 93.2071C338.115 93.4125 337.191 93.5151 336.183 93.5151H330.331V75.2031ZM335.427 82.7911C336.715 82.7911 337.639 82.5578 338.199 82.0911C338.759 81.6245 339.039 80.9618 339.039 80.1031C339.039 79.2631 338.74 78.6565 338.143 78.2831C337.564 77.9098 336.687 77.7231 335.511 77.7231H333.579V82.7911H335.427ZM335.847 90.9951C337.191 90.9951 338.218 90.7431 338.927 90.2391C339.636 89.7351 339.991 88.9605 339.991 87.9151C339.991 86.0485 338.61 85.1151 335.847 85.1151H333.579V90.9951H335.847ZM346.504 89.8191C346.504 89.0538 346.681 88.3818 347.036 87.8031C347.391 87.2058 347.951 86.7018 348.716 86.2911C349.481 85.8805 350.461 85.5445 351.656 85.2831C352.851 85.0218 354.297 84.8351 355.996 84.7231C355.94 83.9391 355.66 83.2951 355.156 82.7911C354.652 82.2871 353.84 82.0351 352.72 82.0351C351.936 82.0351 351.161 82.1845 350.396 82.4831C349.649 82.7631 348.921 83.0991 348.212 83.4911L347.036 81.3351C347.876 80.8498 348.837 80.4111 349.92 80.0191C351.003 79.6271 352.132 79.4311 353.308 79.4311C355.231 79.4311 356.696 79.9445 357.704 80.9711C358.712 81.9791 359.216 83.4445 359.216 85.3671V93.5151H356.584L356.332 91.8071H356.248C355.52 92.3671 354.708 92.8525 353.812 93.2631C352.935 93.6551 352.029 93.8511 351.096 93.8511C350.424 93.8511 349.808 93.7485 349.248 93.5431C348.688 93.3565 348.203 93.0858 347.792 92.7311C347.381 92.3765 347.064 91.9565 346.84 91.4711C346.616 90.9671 346.504 90.4165 346.504 89.8191ZM349.612 89.5671C349.612 90.1831 349.845 90.6311 350.312 90.9111C350.797 91.1911 351.385 91.3311 352.076 91.3311C352.767 91.3311 353.429 91.1818 354.064 90.8831C354.717 90.5658 355.361 90.1551 355.996 89.6511V86.7391C354.764 86.8325 353.737 86.9631 352.916 87.1311C352.095 87.2805 351.441 87.4765 350.956 87.7191C350.471 87.9618 350.125 88.2418 349.92 88.5591C349.715 88.8578 349.612 89.1938 349.612 89.5671ZM363.601 79.7671H366.261L366.513 81.8391H366.625C367.278 81.1858 367.997 80.6258 368.781 80.1591C369.584 79.6738 370.517 79.4311 371.581 79.4311C373.168 79.4311 374.334 79.9165 375.081 80.8871C375.828 81.8391 376.201 83.2111 376.201 85.0031V93.5151H372.953V85.4231C372.953 84.3031 372.757 83.4911 372.365 82.9871C371.992 82.4645 371.329 82.2031 370.377 82.2031C369.705 82.2031 369.108 82.3618 368.585 82.6791C368.062 82.9965 367.484 83.4818 366.849 84.1351V93.5151H363.601V79.7671ZM380.082 89.8191C380.082 89.0538 380.259 88.3818 380.614 87.8031C380.969 87.2058 381.529 86.7018 382.294 86.2911C383.059 85.8805 384.039 85.5445 385.234 85.2831C386.429 85.0218 387.875 84.8351 389.574 84.7231C389.518 83.9391 389.238 83.2951 388.734 82.7911C388.23 82.2871 387.418 82.0351 386.298 82.0351C385.514 82.0351 384.739 82.1845 383.974 82.4831C383.227 82.7631 382.499 83.0991 381.79 83.4911L380.614 81.3351C381.454 80.8498 382.415 80.4111 383.498 80.0191C384.581 79.6271 385.71 79.4311 386.886 79.4311C388.809 79.4311 390.274 79.9445 391.282 80.9711C392.29 81.9791 392.794 83.4445 392.794 85.3671V93.5151H390.162L389.91 91.8071H389.826C389.098 92.3671 388.286 92.8525 387.39 93.2631C386.513 93.6551 385.607 93.8511 384.674 93.8511C384.002 93.8511 383.386 93.7485 382.826 93.5431C382.266 93.3565 381.781 93.0858 381.37 92.7311C380.959 92.3765 380.642 91.9565 380.418 91.4711C380.194 90.9671 380.082 90.4165 380.082 89.8191ZM383.19 89.5671C383.19 90.1831 383.423 90.6311 383.89 90.9111C384.375 91.1911 384.963 91.3311 385.654 91.3311C386.345 91.3311 387.007 91.1818 387.642 90.8831C388.295 90.5658 388.939 90.1551 389.574 89.6511V86.7391C388.342 86.8325 387.315 86.9631 386.494 87.1311C385.673 87.2805 385.019 87.4765 384.534 87.7191C384.049 87.9618 383.703 88.2418 383.498 88.5591C383.293 88.8578 383.19 89.1938 383.19 89.5671ZM397.179 79.7671H399.839L400.091 81.8391H400.203C400.857 81.1858 401.575 80.6258 402.359 80.1591C403.162 79.6738 404.095 79.4311 405.159 79.4311C406.746 79.4311 407.913 79.9165 408.659 80.8871C409.406 81.8391 409.779 83.2111 409.779 85.0031V93.5151H406.531V85.4231C406.531 84.3031 406.335 83.4911 405.943 82.9871C405.57 82.4645 404.907 82.2031 403.955 82.2031C403.283 82.2031 402.686 82.3618 402.163 82.6791C401.641 82.9965 401.062 83.4818 400.427 84.1351V93.5151H397.179V79.7671ZM413.66 89.8191C413.66 89.0538 413.838 88.3818 414.192 87.8031C414.547 87.2058 415.107 86.7018 415.872 86.2911C416.638 85.8805 417.618 85.5445 418.812 85.2831C420.007 85.0218 421.454 84.8351 423.152 84.7231C423.096 83.9391 422.816 83.2951 422.312 82.7911C421.808 82.2871 420.996 82.0351 419.876 82.0351C419.092 82.0351 418.318 82.1845 417.552 82.4831C416.806 82.7631 416.078 83.0991 415.368 83.4911L414.192 81.3351C415.032 80.8498 415.994 80.4111 417.076 80.0191C418.159 79.6271 419.288 79.4311 420.464 79.4311C422.387 79.4311 423.852 79.9445 424.86 80.9711C425.868 81.9791 426.372 83.4445 426.372 85.3671V93.5151H423.74L423.488 91.8071H423.404C422.676 92.3671 421.864 92.8525 420.968 93.2631C420.091 93.6551 419.186 93.8511 418.252 93.8511C417.58 93.8511 416.964 93.7485 416.404 93.5431C415.844 93.3565 415.359 93.0858 414.948 92.7311C414.538 92.3765 414.22 91.9565 413.996 91.4711C413.772 90.9671 413.66 90.4165 413.66 89.8191ZM416.768 89.5671C416.768 90.1831 417.002 90.6311 417.468 90.9111C417.954 91.1911 418.542 91.3311 419.232 91.3311C419.923 91.3311 420.586 91.1818 421.22 90.8831C421.874 90.5658 422.518 90.1551 423.152 89.6511V86.7391C421.92 86.8325 420.894 86.9631 420.072 87.1311C419.251 87.2805 418.598 87.4765 418.112 87.7191C417.627 87.9618 417.282 88.2418 417.076 88.5591C416.871 88.8578 416.768 89.1938 416.768 89.5671ZM434.985 77.8911L434.901 74.3071H438.821L438.737 77.8911L437.897 84.3591H435.825L434.985 77.8911Z" fill="#B82629"/>
</g>
</g>
<g id="Group_2">
<rect id="Rectangle_2" x="810" y="14" width="106" height="53" stroke="black"/>
<path id="False" d="M843.723 41.809H835.37V50.6H832.745V30.6937H845.077V32.8539H835.37V39.6625H843.723V41.809ZM856.493 50.6C856.347 50.3083 856.229 49.7888 856.137 49.0414C854.962 50.2627 853.558 50.8734 851.927 50.8734C850.468 50.8734 849.27 50.4633 848.331 49.6429C847.401 48.8135 846.936 47.7653 846.936 46.4984C846.936 44.958 847.52 43.764 848.686 42.9164C849.862 42.0596 851.512 41.6312 853.636 41.6312H856.096V40.4691C856.096 39.585 855.832 38.8832 855.303 38.3636C854.775 37.835 853.996 37.5707 852.966 37.5707C852.063 37.5707 851.307 37.7985 850.696 38.2543C850.085 38.71 849.78 39.2614 849.78 39.9086H847.237C847.237 39.1703 847.497 38.4594 848.016 37.7758C848.545 37.083 849.256 36.5362 850.149 36.1351C851.052 35.7341 852.04 35.5336 853.116 35.5336C854.82 35.5336 856.156 35.962 857.122 36.8187C858.088 37.6664 858.589 38.8376 858.626 40.3324V47.141C858.626 48.4991 858.799 49.5791 859.145 50.3812V50.6H856.493ZM852.296 48.6722C853.089 48.6722 853.841 48.4672 854.552 48.057C855.262 47.6469 855.777 47.1136 856.096 46.4574V43.4222H854.114C851.015 43.4222 849.466 44.3291 849.466 46.1429C849.466 46.9359 849.73 47.5557 850.259 48.0023C850.787 48.4489 851.466 48.6722 852.296 48.6722ZM865.339 50.6H862.809V29.6H865.339V50.6ZM878.012 46.6761C878.012 45.9926 877.753 45.4639 877.233 45.0902C876.723 44.7074 875.825 44.3793 874.54 44.1058C873.264 43.8324 872.247 43.5043 871.491 43.1215C870.744 42.7386 870.188 42.2829 869.823 41.7543C869.468 41.2256 869.29 40.5967 869.29 39.8676C869.29 38.6553 869.8 37.6299 870.821 36.7914C871.851 35.9528 873.163 35.5336 874.759 35.5336C876.436 35.5336 877.794 35.9665 878.833 36.8324C879.881 37.6983 880.405 38.8057 880.405 40.1547H877.862C877.862 39.462 877.566 38.8649 876.973 38.3636C876.39 37.8623 875.652 37.6117 874.759 37.6117C873.838 37.6117 873.118 37.8122 872.598 38.2133C872.079 38.6143 871.819 39.1384 871.819 39.7855C871.819 40.3962 872.061 40.8565 872.544 41.1664C873.027 41.4763 873.897 41.7725 875.155 42.0551C876.422 42.3376 877.447 42.6748 878.231 43.0668C879.015 43.4587 879.594 43.9327 879.968 44.4886C880.35 45.0355 880.542 45.7054 880.542 46.4984C880.542 47.82 880.013 48.8819 878.956 49.684C877.899 50.4769 876.527 50.8734 874.841 50.8734C873.656 50.8734 872.608 50.6638 871.696 50.2445C870.785 49.8252 870.069 49.2419 869.55 48.4945C869.039 47.738 868.784 46.9222 868.784 46.0472H871.313C871.359 46.8949 871.696 47.5694 872.325 48.0707C872.963 48.5629 873.802 48.809 874.841 48.809C875.798 48.809 876.563 48.6176 877.137 48.2347C877.721 47.8428 878.012 47.3233 878.012 46.6761ZM889.975 50.8734C887.97 50.8734 886.339 50.2172 885.081 48.9047C883.823 47.583 883.194 45.8194 883.194 43.6136V43.1488C883.194 41.6814 883.472 40.3734 884.028 39.225C884.593 38.0674 885.377 37.1651 886.38 36.5179C887.391 35.8617 888.485 35.5336 889.661 35.5336C891.584 35.5336 893.079 36.167 894.145 37.434C895.212 38.7009 895.745 40.5147 895.745 42.8754V43.9281H885.723C885.76 45.3864 886.184 46.5668 886.995 47.4691C887.815 48.3623 888.854 48.809 890.112 48.809C891.005 48.809 891.762 48.6267 892.382 48.2621C893.001 47.8975 893.544 47.4144 894.009 46.8129L895.553 48.016C894.314 49.9209 892.455 50.8734 889.975 50.8734ZM889.661 37.6117C888.64 37.6117 887.783 37.9854 887.091 38.7328C886.398 39.4711 885.969 40.5101 885.805 41.85H893.216V41.6586C893.143 40.3734 892.796 39.3799 892.177 38.6781C891.557 37.9672 890.718 37.6117 889.661 37.6117Z" fill="#EB5757"/>
<rect id="Rectangle_3" x="810" y="67" width="106" height="53" stroke="black"/>
<path id="True" d="M851.94 85.8539H845.542V103.6H842.93V85.8539H836.546V83.6937H851.94V85.8539ZM860.608 91.0765C860.225 91.0127 859.811 90.9808 859.364 90.9808C857.705 90.9808 856.58 91.6872 855.987 93.1V103.6H853.458V88.807H855.919L855.96 90.516C856.789 89.1944 857.965 88.5336 859.487 88.5336C859.979 88.5336 860.353 88.5974 860.608 88.725V91.0765ZM872.079 102.137C871.094 103.295 869.65 103.873 867.745 103.873C866.168 103.873 864.965 103.418 864.136 102.506C863.315 101.586 862.9 100.228 862.891 98.432V88.807H865.421V98.3636C865.421 100.606 866.332 101.727 868.155 101.727C870.087 101.727 871.372 101.007 872.011 99.5668V88.807H874.54V103.6H872.134L872.079 102.137ZM884.534 103.873C882.529 103.873 880.897 103.217 879.639 101.905C878.382 100.583 877.753 98.8194 877.753 96.6136V96.1488C877.753 94.6814 878.031 93.3734 878.587 92.225C879.152 91.0674 879.936 90.1651 880.938 89.5179C881.95 88.8617 883.044 88.5336 884.219 88.5336C886.143 88.5336 887.637 89.167 888.704 90.434C889.77 91.7009 890.303 93.5147 890.303 95.8754V96.9281H880.282C880.318 98.3864 880.742 99.5668 881.553 100.469C882.374 101.362 883.413 101.809 884.671 101.809C885.564 101.809 886.32 101.627 886.94 101.262C887.56 100.898 888.102 100.414 888.567 99.8129L890.112 101.016C888.872 102.921 887.013 103.873 884.534 103.873ZM884.219 90.6117C883.199 90.6117 882.342 90.9854 881.649 91.7328C880.956 92.4711 880.528 93.5101 880.364 94.85H887.774V94.6586C887.701 93.3734 887.355 92.3799 886.735 91.6781C886.115 90.9672 885.277 90.6117 884.219 90.6117Z" fill="#27AE60"/>
<rect id="Rectangle_4" x="810" y="120" width="106" height="53" stroke="black"/>
<path id="True_2" d="M851.94 138.854H845.542V156.6H842.93V138.854H836.546V136.694H851.94V138.854ZM860.608 144.077C860.225 144.013 859.811 143.981 859.364 143.981C857.705 143.981 856.58 144.687 855.987 146.1V156.6H853.458V141.807H855.919L855.96 143.516C856.789 142.194 857.965 141.534 859.487 141.534C859.979 141.534 860.353 141.597 860.608 141.725V144.077ZM872.079 155.137C871.094 156.295 869.65 156.874 867.745 156.874C866.168 156.874 864.965 156.418 864.136 155.506C863.315 154.586 862.9 153.228 862.891 151.432V141.807H865.421V151.364C865.421 153.606 866.332 154.727 868.155 154.727C870.087 154.727 871.372 154.007 872.011 152.567V141.807H874.54V156.6H872.134L872.079 155.137ZM884.534 156.874C882.529 156.874 880.897 156.217 879.639 154.905C878.382 153.583 877.753 151.819 877.753 149.614V149.149C877.753 147.681 878.031 146.374 878.587 145.225C879.152 144.068 879.936 143.165 880.938 142.518C881.95 141.862 883.044 141.534 884.219 141.534C886.143 141.534 887.637 142.167 888.704 143.434C889.77 144.701 890.303 146.515 890.303 148.875V149.928H880.282C880.318 151.387 880.742 152.567 881.553 153.469C882.374 154.362 883.413 154.809 884.671 154.809C885.564 154.809 886.32 154.627 886.94 154.262C887.56 153.898 888.102 153.415 888.567 152.813L890.112 154.016C888.872 155.921 887.013 156.874 884.534 156.874ZM884.219 143.612C883.199 143.612 882.342 143.986 881.649 144.733C880.956 145.471 880.528 146.51 880.364 147.85H887.774V147.659C887.701 146.374 887.355 145.38 886.735 144.678C886.115 143.967 885.277 143.612 884.219 143.612Z" fill="#27AE60"/>
<path id="0" d="M797.275 38.5098C797.275 41.472 796.77 43.6732 795.758 45.1133C794.746 46.5534 793.165 47.2734 791.014 47.2734C788.89 47.2734 787.318 46.5716 786.297 45.168C785.276 43.7552 784.747 41.6497 784.711 38.8516V35.4746C784.711 32.5488 785.217 30.375 786.229 28.9531C787.24 27.5312 788.826 26.8203 790.986 26.8203C793.128 26.8203 794.705 27.5085 795.717 28.8848C796.729 30.252 797.248 32.3665 797.275 35.2285V38.5098ZM794.746 35.0508C794.746 32.9089 794.445 31.3503 793.844 30.375C793.242 29.3906 792.29 28.8984 790.986 28.8984C789.692 28.8984 788.749 29.3861 788.156 30.3613C787.564 31.3366 787.258 32.8359 787.24 34.8594V38.9062C787.24 41.0573 787.55 42.6478 788.17 43.6777C788.799 44.6986 789.747 45.209 791.014 45.209C792.262 45.209 793.188 44.7259 793.789 43.7598C794.4 42.7936 794.719 41.2715 794.746 39.1934V35.0508Z" fill="#828282"/>
<path id="1" d="M793.105 101H790.562V84.1426L785.463 86.0156V83.7188L792.709 80.998H793.105V101Z" fill="#828282"/>
<path id="2" d="M797.836 153H784.793V151.182L791.684 143.525C792.704 142.368 793.406 141.429 793.789 140.709C794.181 139.98 794.377 139.228 794.377 138.453C794.377 137.414 794.062 136.562 793.434 135.896C792.805 135.231 791.966 134.898 790.918 134.898C789.66 134.898 788.68 135.258 787.979 135.979C787.286 136.689 786.939 137.683 786.939 138.959H784.41C784.41 137.127 784.998 135.646 786.174 134.516C787.359 133.385 788.94 132.82 790.918 132.82C792.768 132.82 794.231 133.308 795.307 134.283C796.382 135.249 796.92 136.539 796.92 138.152C796.92 140.112 795.671 142.445 793.174 145.152L787.842 150.936H797.836V153Z" fill="#828282"/>
</g>
<path id="bool" d="M832.438 181.372H836.554V186.188L836.442 188.372C836.983 187.868 837.59 187.476 838.262 187.196C838.953 186.916 839.634 186.776 840.306 186.776C841.165 186.776 841.939 186.944 842.63 187.28C843.339 187.616 843.927 188.092 844.394 188.708C844.879 189.305 845.253 190.043 845.514 190.92C845.775 191.779 845.906 192.74 845.906 193.804C845.906 194.999 845.738 196.063 845.402 196.996C845.066 197.929 844.618 198.723 844.058 199.376C843.498 200.011 842.854 200.496 842.126 200.832C841.417 201.168 840.67 201.336 839.886 201.336C839.233 201.336 838.579 201.177 837.926 200.86C837.291 200.543 836.685 200.085 836.106 199.488H835.994L835.658 201H832.438V181.372ZM836.554 197.052C836.946 197.388 837.347 197.631 837.758 197.78C838.187 197.911 838.589 197.976 838.962 197.976C839.727 197.976 840.371 197.659 840.894 197.024C841.417 196.371 841.678 195.325 841.678 193.888C841.678 191.387 840.829 190.136 839.13 190.136C838.253 190.136 837.394 190.565 836.554 191.424V197.052ZM848.527 194.056C848.527 192.899 848.723 191.872 849.115 190.976C849.507 190.061 850.03 189.296 850.683 188.68C851.355 188.064 852.111 187.597 852.951 187.28C853.81 186.944 854.696 186.776 855.611 186.776C856.526 186.776 857.403 186.944 858.243 187.28C859.102 187.597 859.858 188.064 860.511 188.68C861.183 189.296 861.715 190.061 862.107 190.976C862.499 191.872 862.695 192.899 862.695 194.056C862.695 195.213 862.499 196.249 862.107 197.164C861.715 198.06 861.183 198.816 860.511 199.432C859.858 200.048 859.102 200.524 858.243 200.86C857.403 201.177 856.526 201.336 855.611 201.336C854.696 201.336 853.81 201.177 852.951 200.86C852.111 200.524 851.355 200.048 850.683 199.432C850.03 198.816 849.507 198.06 849.115 197.164C848.723 196.249 848.527 195.213 848.527 194.056ZM852.755 194.056C852.755 195.269 852.988 196.231 853.455 196.94C853.94 197.649 854.659 198.004 855.611 198.004C856.563 198.004 857.272 197.649 857.739 196.94C858.224 196.231 858.467 195.269 858.467 194.056C858.467 192.843 858.224 191.881 857.739 191.172C857.272 190.463 856.563 190.108 855.611 190.108C854.659 190.108 853.94 190.463 853.455 191.172C852.988 191.881 852.755 192.843 852.755 194.056ZM865.316 194.056C865.316 192.899 865.512 191.872 865.904 190.976C866.296 190.061 866.819 189.296 867.472 188.68C868.144 188.064 868.9 187.597 869.74 187.28C870.599 186.944 871.485 186.776 872.4 186.776C873.315 186.776 874.192 186.944 875.032 187.28C875.891 187.597 876.647 188.064 877.3 188.68C877.972 189.296 878.504 190.061 878.896 190.976C879.288 191.872 879.484 192.899 879.484 194.056C879.484 195.213 879.288 196.249 878.896 197.164C878.504 198.06 877.972 198.816 877.3 199.432C876.647 200.048 875.891 200.524 875.032 200.86C874.192 201.177 873.315 201.336 872.4 201.336C871.485 201.336 870.599 201.177 869.74 200.86C868.9 200.524 868.144 200.048 867.472 199.432C866.819 198.816 866.296 198.06 865.904 197.164C865.512 196.249 865.316 195.213 865.316 194.056ZM869.544 194.056C869.544 195.269 869.777 196.231 870.244 196.94C870.729 197.649 871.448 198.004 872.4 198.004C873.352 198.004 874.061 197.649 874.528 196.94C875.013 196.231 875.256 195.269 875.256 194.056C875.256 192.843 875.013 191.881 874.528 191.172C874.061 190.463 873.352 190.108 872.4 190.108C871.448 190.108 870.729 190.463 870.244 191.172C869.777 191.881 869.544 192.843 869.544 194.056ZM882.525 181.372H890.673V195.736C890.673 196.165 890.729 196.529 890.841 196.828C890.972 197.108 891.14 197.341 891.345 197.528C891.569 197.696 891.812 197.817 892.073 197.892C892.353 197.967 892.633 198.004 892.913 198.004C893.23 198.004 893.566 197.976 893.921 197.92C894.276 197.845 894.668 197.724 895.097 197.556L896.021 200.58C895.648 200.692 895.302 200.795 894.985 200.888C894.668 200.981 894.35 201.056 894.033 201.112C893.716 201.187 893.38 201.243 893.025 201.28C892.67 201.317 892.278 201.336 891.849 201.336C890.094 201.336 888.769 200.823 887.873 199.796C886.996 198.751 886.557 197.341 886.557 195.568V184.62H882.525V181.372Z" fill="#4F4F4F"/>
</g>
</svg>
