<svg width="1120" height="222" viewBox="0 0 1120 222" fill="none" xmlns="http://www.w3.org/2000/svg">
<g id="Frame" clip-path="url(#clip0)">
<rect width="560" height="111" transform="scale(2)" fill="white"/>
<path id="Vector" d="M1106 124V72H740V124H1106Z" fill="#27AE60" fill-opacity="0.4"/>
<path id="result" d="M1004.88 188.112H1008.24L1008.58 191.136H1008.66C1009.35 189.997 1010.18 189.157 1011.15 188.616C1012.12 188.056 1013.17 187.776 1014.29 187.776C1014.9 187.776 1015.4 187.823 1015.77 187.916C1016.16 188.009 1016.57 188.149 1016.98 188.336L1016.14 191.78C1015.71 191.649 1015.32 191.556 1014.96 191.5C1014.62 191.425 1014.2 191.388 1013.67 191.388C1012.81 191.388 1011.96 191.64 1011.12 192.144C1010.3 192.648 1009.59 193.525 1009 194.776V202H1004.88V188.112ZM1019.96 195.056C1019.96 193.917 1020.16 192.9 1020.55 192.004C1020.96 191.108 1021.5 190.352 1022.17 189.736C1022.85 189.101 1023.61 188.616 1024.47 188.28C1025.35 187.944 1026.25 187.776 1027.19 187.776C1028.25 187.776 1029.19 187.944 1030.01 188.28C1030.84 188.616 1031.52 189.083 1032.06 189.68C1032.6 190.277 1033.01 190.987 1033.29 191.808C1033.57 192.611 1033.71 193.488 1033.71 194.44C1033.71 194.813 1033.69 195.168 1033.65 195.504C1033.62 195.84 1033.58 196.092 1033.54 196.26H1024.19C1024.34 197.305 1024.79 198.061 1025.53 198.528C1026.3 198.976 1027.2 199.2 1028.22 199.2C1028.86 199.2 1029.45 199.125 1030.01 198.976C1030.59 198.808 1031.19 198.565 1031.81 198.248L1033.15 200.712C1032.37 201.216 1031.49 201.617 1030.52 201.916C1029.55 202.196 1028.6 202.336 1027.66 202.336C1026.58 202.336 1025.57 202.177 1024.64 201.86C1023.7 201.524 1022.89 201.048 1022.2 200.432C1021.51 199.797 1020.96 199.032 1020.55 198.136C1020.16 197.24 1019.96 196.213 1019.96 195.056ZM1029.99 193.544C1029.99 192.76 1029.77 192.125 1029.34 191.64C1028.91 191.155 1028.22 190.912 1027.27 190.912C1026.52 190.912 1025.86 191.127 1025.28 191.556C1024.7 191.985 1024.32 192.648 1024.13 193.544H1029.99ZM1038.54 197.632C1039.35 198.136 1040.15 198.537 1040.95 198.836C1041.77 199.135 1042.65 199.284 1043.58 199.284C1044.53 199.284 1045.22 199.181 1045.63 198.976C1046.04 198.771 1046.24 198.481 1046.24 198.108C1046.24 197.679 1045.9 197.333 1045.21 197.072C1044.53 196.792 1043.64 196.493 1042.52 196.176C1041.9 196.008 1041.3 195.812 1040.7 195.588C1040.12 195.345 1039.6 195.065 1039.13 194.748C1038.66 194.412 1038.28 194.029 1037.98 193.6C1037.7 193.171 1037.56 192.676 1037.56 192.116C1037.56 191.481 1037.71 190.893 1038.01 190.352C1038.31 189.811 1038.73 189.353 1039.27 188.98C1039.83 188.607 1040.5 188.317 1041.29 188.112C1042.09 187.888 1042.99 187.776 1043.97 187.776C1045.21 187.776 1046.33 187.981 1047.33 188.392C1048.36 188.784 1049.24 189.213 1049.97 189.68L1048.12 192.144C1047.48 191.771 1046.83 191.463 1046.16 191.22C1045.49 190.959 1044.79 190.828 1044.06 190.828C1043.18 190.828 1042.56 190.921 1042.18 191.108C1041.83 191.295 1041.65 191.565 1041.65 191.92C1041.65 192.125 1041.74 192.312 1041.93 192.48C1042.12 192.648 1042.37 192.797 1042.69 192.928C1043 193.059 1043.38 193.189 1043.81 193.32C1044.25 193.432 1044.72 193.553 1045.21 193.684C1045.9 193.871 1046.55 194.085 1047.17 194.328C1047.78 194.552 1048.32 194.823 1048.79 195.14C1049.26 195.457 1049.63 195.84 1049.91 196.288C1050.19 196.736 1050.33 197.259 1050.33 197.856C1050.33 198.491 1050.18 199.079 1049.88 199.62C1049.58 200.161 1049.15 200.637 1048.57 201.048C1048.01 201.44 1047.3 201.757 1046.44 202C1045.6 202.224 1044.62 202.336 1043.5 202.336C1042.25 202.336 1041.03 202.131 1039.83 201.72C1038.64 201.309 1037.59 200.805 1036.69 200.208L1038.54 197.632ZM1066.7 202H1063.34L1063.03 200.012H1062.92C1062.3 200.721 1061.62 201.291 1060.88 201.72C1060.13 202.131 1059.25 202.336 1058.24 202.336C1056.66 202.336 1055.51 201.832 1054.8 200.824C1054.09 199.816 1053.74 198.435 1053.74 196.68V188.112H1057.85V196.148C1057.85 197.081 1057.99 197.763 1058.27 198.192C1058.55 198.621 1059.08 198.836 1059.87 198.836C1060.39 198.836 1060.85 198.724 1061.24 198.5C1061.65 198.276 1062.1 197.856 1062.58 197.24V188.112H1066.7V202ZM1070.53 182.372H1078.67V196.736C1078.67 197.165 1078.73 197.529 1078.84 197.828C1078.97 198.108 1079.14 198.341 1079.35 198.528C1079.57 198.696 1079.81 198.817 1080.07 198.892C1080.35 198.967 1080.63 199.004 1080.91 199.004C1081.23 199.004 1081.57 198.976 1081.92 198.92C1082.28 198.845 1082.67 198.724 1083.1 198.556L1084.02 201.58C1083.65 201.692 1083.3 201.795 1082.99 201.888C1082.67 201.981 1082.35 202.056 1082.03 202.112C1081.72 202.187 1081.38 202.243 1081.03 202.28C1080.67 202.317 1080.28 202.336 1079.85 202.336C1078.09 202.336 1076.77 201.823 1075.87 200.796C1075 199.751 1074.56 198.341 1074.56 196.568V185.62H1070.53V182.372ZM1090.45 191.332H1086.95V188.28L1090.65 188.112L1091.18 184.416H1094.57V188.112H1100.45V191.332H1094.57V196.204C1094.57 197.268 1094.8 198.024 1095.27 198.472C1095.73 198.901 1096.47 199.116 1097.48 199.116C1098.02 199.116 1098.51 199.069 1098.96 198.976C1099.41 198.883 1099.84 198.761 1100.25 198.612L1100.98 201.58C1100.36 201.767 1099.67 201.935 1098.91 202.084C1098.16 202.252 1097.34 202.336 1096.44 202.336C1095.34 202.336 1094.41 202.187 1093.64 201.888C1092.88 201.589 1092.25 201.179 1091.77 200.656C1091.3 200.115 1090.96 199.471 1090.76 198.724C1090.55 197.977 1090.45 197.147 1090.45 196.232V191.332Z" fill="#4F4F4F"/>
<path id="Arrow" d="M773.414 99.4142C774.195 98.6332 774.195 97.3668 773.414 96.5858L760.686 83.8579C759.905 83.0768 758.639 83.0768 757.858 83.8579C757.077 84.6389 757.077 85.9052 757.858 86.6863L769.172 98L757.858 109.314C757.077 110.095 757.077 111.361 757.858 112.142C758.639 112.923 759.905 112.923 760.686 112.142L773.414 99.4142ZM748 100H772V96H748V100Z" fill="white"/>
<path id="Arrow_2" d="M965.414 97.4142C966.195 96.6332 966.195 95.3668 965.414 94.5858L952.686 81.8579C951.905 81.0768 950.639 81.0768 949.858 81.8579C949.077 82.6389 949.077 83.9052 949.858 84.6863L961.172 96L949.858 107.314C949.077 108.095 949.077 109.361 949.858 110.142C950.639 110.923 951.905 110.923 952.686 110.142L965.414 97.4142ZM932 98H964V94H932V98Z" fill="white"/>
<path id="Vector_2" d="M1106 176V124H740V176H1106Z" fill="#27AE60" fill-opacity="0.4"/>
<path id="Arrow_3" d="M773.414 151.414C774.195 150.633 774.195 149.367 773.414 148.586L760.686 135.858C759.905 135.077 758.639 135.077 757.858 135.858C757.077 136.639 757.077 137.905 757.858 138.686L769.172 150L757.858 161.314C757.077 162.095 757.077 163.361 757.858 164.142C758.639 164.923 759.905 164.923 760.686 164.142L773.414 151.414ZM748 152H772V148H748V152Z" fill="white"/>
<path id="Arrow_4" d="M965.414 149.414C966.195 148.633 966.195 147.367 965.414 146.586L952.686 133.858C951.905 133.077 950.639 133.077 949.858 133.858C949.077 134.639 949.077 135.905 949.858 136.686L961.172 148L949.858 159.314C949.077 160.095 949.077 161.361 949.858 162.142C950.639 162.923 951.905 162.923 952.686 162.142L965.414 149.414ZM932 150H964V146H932V150Z" fill="white"/>
<path id="Rectangle" d="M8 74H594V120H8V74Z" fill="#F1F4F8"/>
<path id="result = fruits.mask(bool, nums)" d="M19.64 90.252H22.3L22.58 93.36H22.664C23.3733 92.24 24.2227 91.3907 25.212 90.812C26.22 90.2147 27.3213 89.916 28.516 89.916C29.076 89.916 29.552 89.9627 29.944 90.056C30.3547 90.1307 30.7653 90.2707 31.176 90.476L30.504 93.192C30.056 93.0427 29.6547 92.94 29.3 92.884C28.964 92.8093 28.5347 92.772 28.012 92.772C27.06 92.772 26.1453 93.0427 25.268 93.584C24.3907 94.1253 23.5973 95.068 22.888 96.412V104H19.64V90.252ZM34.5251 97.14C34.5251 96.02 34.7211 95.012 35.1131 94.116C35.5237 93.22 36.0557 92.464 36.7091 91.848C37.3624 91.2133 38.1091 90.7373 38.9491 90.42C39.8077 90.084 40.6851 89.916 41.5811 89.916C42.6077 89.916 43.5131 90.084 44.2971 90.42C45.0997 90.7373 45.7717 91.1853 46.3131 91.764C46.8544 92.324 47.2651 93.0053 47.5451 93.808C47.8251 94.6107 47.9651 95.488 47.9651 96.44C47.9651 96.7573 47.9464 97.056 47.9091 97.336C47.8904 97.616 47.8624 97.84 47.8251 98.008H37.8291C37.9411 99.24 38.4264 100.192 39.2851 100.864C40.1437 101.517 41.1984 101.844 42.4491 101.844C43.1584 101.844 43.8211 101.751 44.4371 101.564C45.0531 101.359 45.6784 101.079 46.3131 100.724L47.4051 102.74C46.6584 103.207 45.8277 103.589 44.9131 103.888C43.9984 104.187 43.0371 104.336 42.0291 104.336C40.9837 104.336 40.0037 104.177 39.0891 103.86C38.1744 103.524 37.3811 103.048 36.7091 102.432C36.0371 101.816 35.5051 101.069 35.1131 100.192C34.7211 99.296 34.5251 98.2787 34.5251 97.14ZM44.9971 95.824C44.9971 94.76 44.7171 93.9293 44.1571 93.332C43.5971 92.716 42.7664 92.408 41.6651 92.408C40.7317 92.408 39.9011 92.6973 39.1731 93.276C38.4451 93.8547 37.9877 94.704 37.8011 95.824H44.9971ZM52.8261 100.164C53.6101 100.705 54.4221 101.135 55.2621 101.452C56.1208 101.751 57.0821 101.9 58.1461 101.9C59.2288 101.9 60.0221 101.751 60.5261 101.452C61.0301 101.135 61.2821 100.733 61.2821 100.248C61.2821 99.7627 60.9555 99.3613 60.3021 99.044C59.6488 98.708 58.6221 98.3533 57.2221 97.98C56.5688 97.812 55.9341 97.6067 55.3181 97.364C54.7021 97.1213 54.1608 96.8413 53.6941 96.524C53.2275 96.2067 52.8541 95.8427 52.5741 95.432C52.2941 95.0213 52.1541 94.5547 52.1541 94.032C52.1541 92.8187 52.6768 91.8293 53.7221 91.064C54.7675 90.2987 56.2701 89.916 58.2301 89.916C59.3501 89.916 60.4048 90.1027 61.3941 90.476C62.3835 90.8493 63.2328 91.2693 63.9421 91.736L62.4581 93.724C61.8421 93.3133 61.1795 92.9867 60.4701 92.744C59.7795 92.4827 59.0421 92.352 58.2581 92.352C57.1941 92.352 56.4475 92.5013 56.0181 92.8C55.5888 93.08 55.3741 93.4347 55.3741 93.864C55.3741 94.1067 55.4675 94.3307 55.6541 94.536C55.8595 94.7227 56.1301 94.9 56.4661 95.068C56.8208 95.2173 57.2315 95.3667 57.6981 95.516C58.1648 95.6653 58.6781 95.8053 59.2381 95.936C60.0408 96.1413 60.7595 96.3747 61.3941 96.636C62.0475 96.8787 62.5981 97.1587 63.0461 97.476C63.5128 97.7933 63.8675 98.1667 64.1101 98.596C64.3715 99.0253 64.5021 99.52 64.5021 100.08C64.5021 100.677 64.3621 101.237 64.0821 101.76C63.8021 102.264 63.3915 102.712 62.8501 103.104C62.3088 103.477 61.6368 103.776 60.8341 104C60.0315 104.224 59.1075 104.336 58.0621 104.336C56.7741 104.336 55.5421 104.131 54.3661 103.72C53.1901 103.309 52.1728 102.805 51.3141 102.208L52.8261 100.164ZM80.7872 104H78.1552L77.9032 101.816H77.7912C77.1379 102.581 76.4192 103.197 75.6352 103.664C74.8512 104.112 73.9459 104.336 72.9192 104.336C71.3139 104.336 70.1472 103.86 69.4192 102.908C68.6912 101.937 68.3272 100.556 68.3272 98.764V90.252H71.5472V98.344C71.5472 99.464 71.7339 100.285 72.1072 100.808C72.4992 101.312 73.1712 101.564 74.1232 101.564C74.7765 101.564 75.3552 101.415 75.8592 101.116C76.3819 100.817 76.9512 100.285 77.5672 99.52V90.252H80.7872V104ZM85.1443 84.232H92.7043V99.156C92.7043 100.089 92.9376 100.752 93.4043 101.144C93.8709 101.517 94.4589 101.704 95.1683 101.704C95.8403 101.704 96.6243 101.527 97.5203 101.172L98.2763 103.552C97.6229 103.776 97.0069 103.963 96.4283 104.112C95.8683 104.261 95.1869 104.336 94.3843 104.336C92.7603 104.336 91.5376 103.869 90.7163 102.936C89.8949 102.003 89.4843 100.687 89.4843 98.988V86.78H85.1443V84.232ZM105.265 92.8H101.597V90.392L105.405 90.252L105.825 86.5H108.485V90.252H114.757V92.8H108.485V98.456C108.485 99.5947 108.719 100.435 109.185 100.976C109.652 101.499 110.473 101.76 111.649 101.76C112.247 101.76 112.788 101.713 113.273 101.62C113.759 101.508 114.225 101.368 114.673 101.2L115.289 103.552C114.673 103.757 113.992 103.935 113.245 104.084C112.499 104.252 111.705 104.336 110.865 104.336C109.82 104.336 108.943 104.196 108.233 103.916C107.524 103.636 106.945 103.244 106.497 102.74C106.068 102.217 105.751 101.592 105.545 100.864C105.359 100.136 105.265 99.3333 105.265 98.456V92.8ZM135.707 90.448H148.139V92.8H135.707V90.448ZM135.707 96.692H148.139V99.044H135.707V96.692ZM182.726 87.032C182.222 86.8267 181.727 86.6773 181.242 86.584C180.775 86.4907 180.262 86.444 179.702 86.444C178.638 86.444 177.863 86.7053 177.378 87.228C176.911 87.732 176.678 88.4693 176.678 89.44V90.252H181.914V92.8H176.678V104H173.486V92.8H169.678V90.392L173.486 90.252V89.496C173.486 88.6933 173.598 87.9467 173.822 87.256C174.046 86.5653 174.391 85.9773 174.858 85.492C175.343 84.988 175.95 84.596 176.678 84.316C177.424 84.036 178.302 83.896 179.31 83.896C180.056 83.896 180.766 83.9613 181.438 84.092C182.128 84.2227 182.782 84.4093 183.398 84.652L182.726 87.032ZM187.531 90.252H190.191L190.471 93.36H190.555C191.264 92.24 192.113 91.3907 193.103 90.812C194.111 90.2147 195.212 89.916 196.407 89.916C196.967 89.916 197.443 89.9627 197.835 90.056C198.245 90.1307 198.656 90.2707 199.067 90.476L198.395 93.192C197.947 93.0427 197.545 92.94 197.191 92.884C196.855 92.8093 196.425 92.772 195.903 92.772C194.951 92.772 194.036 93.0427 193.159 93.584C192.281 94.1253 191.488 95.068 190.779 96.412V104H187.531V90.252ZM215.1 104H212.468L212.216 101.816H212.104C211.45 102.581 210.732 103.197 209.948 103.664C209.164 104.112 208.258 104.336 207.232 104.336C205.626 104.336 204.46 103.86 203.732 102.908C203.004 101.937 202.64 100.556 202.64 98.764V90.252H205.86V98.344C205.86 99.464 206.046 100.285 206.42 100.808C206.812 101.312 207.484 101.564 208.436 101.564C209.089 101.564 209.668 101.415 210.172 101.116C210.694 100.817 211.264 100.285 211.88 99.52V90.252H215.1V104ZM219.821 90.252H229.005V104H225.785V92.8H219.821V90.252ZM227.157 87.844C226.503 87.844 225.953 87.648 225.505 87.256C225.075 86.864 224.861 86.3413 224.861 85.688C224.861 85.0347 225.075 84.512 225.505 84.12C225.953 83.7093 226.503 83.504 227.157 83.504C227.829 83.504 228.379 83.7093 228.809 84.12C229.238 84.512 229.453 85.0347 229.453 85.688C229.453 86.3413 229.238 86.864 228.809 87.256C228.379 87.648 227.829 87.844 227.157 87.844ZM239.578 92.8H235.91V90.392L239.718 90.252L240.138 86.5H242.798V90.252H249.07V92.8H242.798V98.456C242.798 99.5947 243.031 100.435 243.498 100.976C243.964 101.499 244.786 101.76 245.962 101.76C246.559 101.76 247.1 101.713 247.586 101.62C248.071 101.508 248.538 101.368 248.986 101.2L249.602 103.552C248.986 103.757 248.304 103.935 247.558 104.084C246.811 104.252 246.018 104.336 245.178 104.336C244.132 104.336 243.255 104.196 242.546 103.916C241.836 103.636 241.258 103.244 240.81 102.74C240.38 102.217 240.063 101.592 239.858 100.864C239.671 100.136 239.578 99.3333 239.578 98.456V92.8ZM254.295 100.164C255.079 100.705 255.891 101.135 256.731 101.452C257.59 101.751 258.551 101.9 259.615 101.9C260.698 101.9 261.491 101.751 261.995 101.452C262.499 101.135 262.751 100.733 262.751 100.248C262.751 99.7627 262.424 99.3613 261.771 99.044C261.118 98.708 260.091 98.3533 258.691 97.98C258.038 97.812 257.403 97.6067 256.787 97.364C256.171 97.1213 255.63 96.8413 255.163 96.524C254.696 96.2067 254.323 95.8427 254.043 95.432C253.763 95.0213 253.623 94.5547 253.623 94.032C253.623 92.8187 254.146 91.8293 255.191 91.064C256.236 90.2987 257.739 89.916 259.699 89.916C260.819 89.916 261.874 90.1027 262.863 90.476C263.852 90.8493 264.702 91.2693 265.411 91.736L263.927 93.724C263.311 93.3133 262.648 92.9867 261.939 92.744C261.248 92.4827 260.511 92.352 259.727 92.352C258.663 92.352 257.916 92.5013 257.487 92.8C257.058 93.08 256.843 93.4347 256.843 93.864C256.843 94.1067 256.936 94.3307 257.123 94.536C257.328 94.7227 257.599 94.9 257.935 95.068C258.29 95.2173 258.7 95.3667 259.167 95.516C259.634 95.6653 260.147 95.8053 260.707 95.936C261.51 96.1413 262.228 96.3747 262.863 96.636C263.516 96.8787 264.067 97.1587 264.515 97.476C264.982 97.7933 265.336 98.1667 265.579 98.596C265.84 99.0253 265.971 99.52 265.971 100.08C265.971 100.677 265.831 101.237 265.551 101.76C265.271 102.264 264.86 102.712 264.319 103.104C263.778 103.477 263.106 103.776 262.303 104C261.5 104.224 260.576 104.336 259.531 104.336C258.243 104.336 257.011 104.131 255.835 103.72C254.659 103.309 253.642 102.805 252.783 102.208L254.295 100.164ZM273.464 101.508C273.464 100.687 273.725 100.015 274.248 99.492C274.771 98.9507 275.433 98.68 276.236 98.68C277.039 98.68 277.701 98.9507 278.224 99.492C278.747 100.015 279.008 100.687 279.008 101.508C279.008 102.329 278.747 103.011 278.224 103.552C277.701 104.075 277.039 104.336 276.236 104.336C275.433 104.336 274.771 104.075 274.248 103.552C273.725 103.011 273.464 102.329 273.464 101.508ZM285.969 90.252H288.405L288.657 92.016H288.741C289.058 91.4187 289.441 90.924 289.889 90.532C290.356 90.1213 290.981 89.916 291.765 89.916C293.109 89.916 293.949 90.6813 294.285 92.212C294.602 91.5587 295.004 91.0173 295.489 90.588C295.993 90.14 296.628 89.916 297.393 89.916C298.364 89.916 299.11 90.2987 299.633 91.064C300.174 91.8107 300.445 92.8747 300.445 94.256V104H297.393V94.508C297.393 93.2947 297.01 92.688 296.245 92.688C295.872 92.688 295.545 92.828 295.265 93.108C294.985 93.388 294.714 93.8173 294.453 94.396V104H291.933V94.508C291.933 93.2947 291.541 92.688 290.757 92.688C290.384 92.688 290.066 92.828 289.805 93.108C289.544 93.388 289.282 93.8173 289.021 94.396V104H285.969V90.252ZM303.402 100.304C303.402 99.5387 303.579 98.8667 303.934 98.288C304.289 97.6907 304.849 97.1867 305.614 96.776C306.379 96.3653 307.359 96.0293 308.554 95.768C309.749 95.5067 311.195 95.32 312.894 95.208C312.838 94.424 312.558 93.78 312.054 93.276C311.55 92.772 310.738 92.52 309.618 92.52C308.834 92.52 308.059 92.6693 307.294 92.968C306.547 93.248 305.819 93.584 305.11 93.976L303.934 91.82C304.774 91.3347 305.735 90.896 306.818 90.504C307.901 90.112 309.03 89.916 310.206 89.916C312.129 89.916 313.594 90.4293 314.602 91.456C315.61 92.464 316.114 93.9293 316.114 95.852V104H313.482L313.23 102.292H313.146C312.418 102.852 311.606 103.337 310.71 103.748C309.833 104.14 308.927 104.336 307.994 104.336C307.322 104.336 306.706 104.233 306.146 104.028C305.586 103.841 305.101 103.571 304.69 103.216C304.279 102.861 303.962 102.441 303.738 101.956C303.514 101.452 303.402 100.901 303.402 100.304ZM306.51 100.052C306.51 100.668 306.743 101.116 307.21 101.396C307.695 101.676 308.283 101.816 308.974 101.816C309.665 101.816 310.327 101.667 310.962 101.368C311.615 101.051 312.259 100.64 312.894 100.136V97.224C311.662 97.3173 310.635 97.448 309.814 97.616C308.993 97.7653 308.339 97.9613 307.854 98.204C307.369 98.4467 307.023 98.7267 306.818 99.044C306.613 99.3427 306.51 99.6787 306.51 100.052ZM321.451 100.164C322.235 100.705 323.047 101.135 323.887 101.452C324.746 101.751 325.707 101.9 326.771 101.9C327.854 101.9 328.647 101.751 329.151 101.452C329.655 101.135 329.907 100.733 329.907 100.248C329.907 99.7627 329.58 99.3613 328.927 99.044C328.274 98.708 327.247 98.3533 325.847 97.98C325.194 97.812 324.559 97.6067 323.943 97.364C323.327 97.1213 322.786 96.8413 322.319 96.524C321.852 96.2067 321.479 95.8427 321.199 95.432C320.919 95.0213 320.779 94.5547 320.779 94.032C320.779 92.8187 321.302 91.8293 322.347 91.064C323.392 90.2987 324.895 89.916 326.855 89.916C327.975 89.916 329.03 90.1027 330.019 90.476C331.008 90.8493 331.858 91.2693 332.567 91.736L331.083 93.724C330.467 93.3133 329.804 92.9867 329.095 92.744C328.404 92.4827 327.667 92.352 326.883 92.352C325.819 92.352 325.072 92.5013 324.643 92.8C324.214 93.08 323.999 93.4347 323.999 93.864C323.999 94.1067 324.092 94.3307 324.279 94.536C324.484 94.7227 324.755 94.9 325.091 95.068C325.446 95.2173 325.856 95.3667 326.323 95.516C326.79 95.6653 327.303 95.8053 327.863 95.936C328.666 96.1413 329.384 96.3747 330.019 96.636C330.672 96.8787 331.223 97.1587 331.671 97.476C332.138 97.7933 332.492 98.1667 332.735 98.596C332.996 99.0253 333.127 99.52 333.127 100.08C333.127 100.677 332.987 101.237 332.707 101.76C332.427 102.264 332.016 102.712 331.475 103.104C330.934 103.477 330.262 103.776 329.459 104C328.656 104.224 327.732 104.336 326.687 104.336C325.399 104.336 324.167 104.131 322.991 103.72C321.815 103.309 320.798 102.805 319.939 102.208L321.451 100.164ZM337.512 84.232H340.76V96.608H340.872L347.06 90.252H350.644L345.324 95.796L351.232 104H347.704L343.392 97.784L340.76 100.416V104H337.512V84.232ZM363.317 108.956C361.432 107.388 359.939 105.54 358.837 103.412C357.755 101.284 357.213 98.8853 357.213 96.216C357.213 93.5467 357.755 91.148 358.837 89.02C359.939 86.892 361.432 85.044 363.317 83.476L365.109 84.96C363.336 86.5653 362.039 88.2733 361.217 90.084C360.396 91.8947 359.985 93.9387 359.985 96.216C359.985 98.4933 360.396 100.537 361.217 102.348C362.039 104.159 363.336 105.867 365.109 107.472L363.317 108.956ZM370.866 84.232H374.114V89.328L374.002 91.736C374.6 91.176 375.272 90.7373 376.018 90.42C376.765 90.084 377.512 89.916 378.258 89.916C379.154 89.916 379.948 90.084 380.638 90.42C381.329 90.7373 381.917 91.204 382.402 91.82C382.888 92.4173 383.252 93.1453 383.494 94.004C383.756 94.8627 383.886 95.824 383.886 96.888C383.886 98.064 383.718 99.1187 383.382 100.052C383.046 100.967 382.589 101.741 382.01 102.376C381.45 103.011 380.797 103.496 380.05 103.832C379.322 104.168 378.566 104.336 377.782 104.336C377.129 104.336 376.448 104.177 375.738 103.86C375.029 103.543 374.376 103.085 373.778 102.488H373.694L373.414 104H370.866V84.232ZM374.114 100.416C374.618 100.883 375.141 101.209 375.682 101.396C376.224 101.583 376.709 101.676 377.138 101.676C378.109 101.676 378.921 101.284 379.574 100.5C380.228 99.6973 380.554 98.512 380.554 96.944C380.554 95.5627 380.302 94.4893 379.798 93.724C379.294 92.9587 378.482 92.576 377.362 92.576C376.84 92.576 376.308 92.7067 375.766 92.968C375.225 93.2293 374.674 93.6493 374.114 94.228V100.416ZM386.843 97.14C386.843 96.0013 387.03 94.984 387.403 94.088C387.795 93.192 388.309 92.436 388.943 91.82C389.578 91.204 390.315 90.7373 391.155 90.42C391.995 90.084 392.863 89.916 393.759 89.916C394.655 89.916 395.523 90.084 396.363 90.42C397.203 90.7373 397.941 91.204 398.575 91.82C399.21 92.436 399.714 93.192 400.087 94.088C400.479 94.984 400.675 96.0013 400.675 97.14C400.675 98.2787 400.479 99.296 400.087 100.192C399.714 101.088 399.21 101.844 398.575 102.46C397.941 103.076 397.203 103.543 396.363 103.86C395.523 104.177 394.655 104.336 393.759 104.336C392.863 104.336 391.995 104.177 391.155 103.86C390.315 103.543 389.578 103.076 388.943 102.46C388.309 101.844 387.795 101.088 387.403 100.192C387.03 99.296 386.843 98.2787 386.843 97.14ZM390.175 97.14C390.175 98.5213 390.493 99.632 391.127 100.472C391.762 101.293 392.639 101.704 393.759 101.704C394.879 101.704 395.757 101.293 396.391 100.472C397.026 99.632 397.343 98.5213 397.343 97.14C397.343 95.74 397.026 94.6293 396.391 93.808C395.757 92.968 394.879 92.548 393.759 92.548C392.639 92.548 391.762 92.968 391.127 93.808C390.493 94.6293 390.175 95.74 390.175 97.14ZM403.632 97.14C403.632 96.0013 403.819 94.984 404.192 94.088C404.584 93.192 405.098 92.436 405.732 91.82C406.367 91.204 407.104 90.7373 407.944 90.42C408.784 90.084 409.652 89.916 410.548 89.916C411.444 89.916 412.312 90.084 413.152 90.42C413.992 90.7373 414.73 91.204 415.364 91.82C415.999 92.436 416.503 93.192 416.876 94.088C417.268 94.984 417.464 96.0013 417.464 97.14C417.464 98.2787 417.268 99.296 416.876 100.192C416.503 101.088 415.999 101.844 415.364 102.46C414.73 103.076 413.992 103.543 413.152 103.86C412.312 104.177 411.444 104.336 410.548 104.336C409.652 104.336 408.784 104.177 407.944 103.86C407.104 103.543 406.367 103.076 405.732 102.46C405.098 101.844 404.584 101.088 404.192 100.192C403.819 99.296 403.632 98.2787 403.632 97.14ZM406.964 97.14C406.964 98.5213 407.282 99.632 407.916 100.472C408.551 101.293 409.428 101.704 410.548 101.704C411.668 101.704 412.546 101.293 413.18 100.472C413.815 99.632 414.132 98.5213 414.132 97.14C414.132 95.74 413.815 94.6293 413.18 93.808C412.546 92.968 411.668 92.548 410.548 92.548C409.428 92.548 408.551 92.968 407.916 93.808C407.282 94.6293 406.964 95.74 406.964 97.14ZM420.926 84.232H428.486V99.156C428.486 100.089 428.719 100.752 429.186 101.144C429.652 101.517 430.24 101.704 430.95 101.704C431.622 101.704 432.406 101.527 433.302 101.172L434.058 103.552C433.404 103.776 432.788 103.963 432.21 104.112C431.65 104.261 430.968 104.336 430.166 104.336C428.542 104.336 427.319 103.869 426.498 102.936C425.676 102.003 425.266 100.687 425.266 98.988V86.78H420.926V84.232ZM441.019 108.088C443.389 107.136 444.584 105.699 444.603 103.776C444.509 103.795 444.379 103.804 444.211 103.804C443.501 103.804 442.885 103.599 442.363 103.188C441.84 102.759 441.579 102.133 441.579 101.312C441.579 100.528 441.84 99.9213 442.363 99.492C442.904 99.044 443.539 98.82 444.267 98.82C445.275 98.82 446.031 99.1933 446.535 99.94C447.039 100.687 447.291 101.713 447.291 103.02C447.291 104.737 446.824 106.184 445.891 107.36C444.957 108.555 443.613 109.441 441.859 110.02L441.019 108.088ZM471.601 90.252H474.261L474.513 92.324H474.625C475.278 91.6707 475.997 91.1107 476.781 90.644C477.583 90.1587 478.517 89.916 479.581 89.916C481.167 89.916 482.334 90.4013 483.081 91.372C483.827 92.324 484.201 93.696 484.201 95.488V104H480.953V95.908C480.953 94.788 480.757 93.976 480.365 93.472C479.991 92.9493 479.329 92.688 478.377 92.688C477.705 92.688 477.107 92.8467 476.585 93.164C476.062 93.4813 475.483 93.9667 474.849 94.62V104H471.601V90.252ZM500.514 104H497.882L497.63 101.816H497.518C496.864 102.581 496.146 103.197 495.362 103.664C494.578 104.112 493.672 104.336 492.646 104.336C491.04 104.336 489.874 103.86 489.146 102.908C488.418 101.937 488.054 100.556 488.054 98.764V90.252H491.274V98.344C491.274 99.464 491.46 100.285 491.834 100.808C492.226 101.312 492.898 101.564 493.85 101.564C494.503 101.564 495.082 101.415 495.586 101.116C496.108 100.817 496.678 100.285 497.294 99.52V90.252H500.514V104ZM504.227 90.252H506.663L506.915 92.016H506.999C507.316 91.4187 507.699 90.924 508.147 90.532C508.613 90.1213 509.239 89.916 510.023 89.916C511.367 89.916 512.207 90.6813 512.543 92.212C512.86 91.5587 513.261 91.0173 513.747 90.588C514.251 90.14 514.885 89.916 515.651 89.916C516.621 89.916 517.368 90.2987 517.891 91.064C518.432 91.8107 518.703 92.8747 518.703 94.256V104H515.651V94.508C515.651 93.2947 515.268 92.688 514.503 92.688C514.129 92.688 513.803 92.828 513.523 93.108C513.243 93.388 512.972 93.8173 512.711 94.396V104H510.191V94.508C510.191 93.2947 509.799 92.688 509.015 92.688C508.641 92.688 508.324 92.828 508.063 93.108C507.801 93.388 507.54 93.8173 507.279 94.396V104H504.227V90.252ZM522.92 100.164C523.704 100.705 524.516 101.135 525.356 101.452C526.215 101.751 527.176 101.9 528.24 101.9C529.323 101.9 530.116 101.751 530.62 101.452C531.124 101.135 531.376 100.733 531.376 100.248C531.376 99.7627 531.049 99.3613 530.396 99.044C529.743 98.708 528.716 98.3533 527.316 97.98C526.663 97.812 526.028 97.6067 525.412 97.364C524.796 97.1213 524.255 96.8413 523.788 96.524C523.321 96.2067 522.948 95.8427 522.668 95.432C522.388 95.0213 522.248 94.5547 522.248 94.032C522.248 92.8187 522.771 91.8293 523.816 91.064C524.861 90.2987 526.364 89.916 528.324 89.916C529.444 89.916 530.499 90.1027 531.488 90.476C532.477 90.8493 533.327 91.2693 534.036 91.736L532.552 93.724C531.936 93.3133 531.273 92.9867 530.564 92.744C529.873 92.4827 529.136 92.352 528.352 92.352C527.288 92.352 526.541 92.5013 526.112 92.8C525.683 93.08 525.468 93.4347 525.468 93.864C525.468 94.1067 525.561 94.3307 525.748 94.536C525.953 94.7227 526.224 94.9 526.56 95.068C526.915 95.2173 527.325 95.3667 527.792 95.516C528.259 95.6653 528.772 95.8053 529.332 95.936C530.135 96.1413 530.853 96.3747 531.488 96.636C532.141 96.8787 532.692 97.1587 533.14 97.476C533.607 97.7933 533.961 98.1667 534.204 98.596C534.465 99.0253 534.596 99.52 534.596 100.08C534.596 100.677 534.456 101.237 534.176 101.76C533.896 102.264 533.485 102.712 532.944 103.104C532.403 103.477 531.731 103.776 530.928 104C530.125 104.224 529.201 104.336 528.156 104.336C526.868 104.336 525.636 104.131 524.46 103.72C523.284 103.309 522.267 102.805 521.408 102.208L522.92 100.164ZM539.933 107.472C541.706 105.867 543.004 104.159 543.825 102.348C544.646 100.537 545.057 98.4933 545.057 96.216C545.057 93.9387 544.646 91.8947 543.825 90.084C543.004 88.2733 541.706 86.5653 539.933 84.96L541.725 83.476C543.61 85.044 545.094 86.892 546.177 89.02C547.278 91.148 547.829 93.5467 547.829 96.216C547.829 98.8853 547.278 101.284 546.177 103.412C545.094 105.54 543.61 107.388 541.725 108.956L539.933 107.472Z" fill="#2E383C"/>
<g id="Group">
<rect id="Rectangle_2" x="634" y="18" width="106" height="53" stroke="black"/>
<path id="False" d="M667.723 45.809H659.37V54.6H656.745V34.6937H669.077V36.8539H659.37V43.6625H667.723V45.809ZM680.493 54.6C680.347 54.3083 680.229 53.7888 680.137 53.0414C678.962 54.2627 677.558 54.8734 675.927 54.8734C674.468 54.8734 673.27 54.4633 672.331 53.6429C671.401 52.8135 670.936 51.7653 670.936 50.4984C670.936 48.958 671.52 47.764 672.686 46.9164C673.862 46.0596 675.512 45.6312 677.636 45.6312H680.096V44.4691C680.096 43.585 679.832 42.8832 679.303 42.3636C678.775 41.835 677.996 41.5707 676.966 41.5707C676.063 41.5707 675.307 41.7985 674.696 42.2543C674.085 42.71 673.78 43.2614 673.78 43.9086H671.237C671.237 43.1703 671.497 42.4594 672.016 41.7758C672.545 41.083 673.256 40.5362 674.149 40.1351C675.052 39.7341 676.04 39.5336 677.116 39.5336C678.82 39.5336 680.156 39.962 681.122 40.8187C682.088 41.6664 682.589 42.8376 682.626 44.3324V51.141C682.626 52.4991 682.799 53.5791 683.145 54.3812V54.6H680.493ZM676.296 52.6722C677.089 52.6722 677.841 52.4672 678.552 52.057C679.262 51.6469 679.777 51.1136 680.096 50.4574V47.4222H678.114C675.015 47.4222 673.466 48.3291 673.466 50.1429C673.466 50.9359 673.73 51.5557 674.259 52.0023C674.787 52.4489 675.466 52.6722 676.296 52.6722ZM689.339 54.6H686.809V33.6H689.339V54.6ZM702.012 50.6761C702.012 49.9926 701.753 49.4639 701.233 49.0902C700.723 48.7074 699.825 48.3793 698.54 48.1058C697.264 47.8324 696.247 47.5043 695.491 47.1215C694.744 46.7386 694.188 46.2829 693.823 45.7543C693.468 45.2256 693.29 44.5967 693.29 43.8676C693.29 42.6553 693.8 41.6299 694.821 40.7914C695.851 39.9528 697.163 39.5336 698.759 39.5336C700.436 39.5336 701.794 39.9665 702.833 40.8324C703.881 41.6983 704.405 42.8057 704.405 44.1547H701.862C701.862 43.462 701.566 42.8649 700.973 42.3636C700.39 41.8623 699.652 41.6117 698.759 41.6117C697.838 41.6117 697.118 41.8122 696.598 42.2133C696.079 42.6143 695.819 43.1384 695.819 43.7855C695.819 44.3962 696.061 44.8565 696.544 45.1664C697.027 45.4763 697.897 45.7725 699.155 46.0551C700.422 46.3376 701.447 46.6748 702.231 47.0668C703.015 47.4587 703.594 47.9327 703.968 48.4886C704.35 49.0355 704.542 49.7054 704.542 50.4984C704.542 51.82 704.013 52.8819 702.956 53.684C701.899 54.4769 700.527 54.8734 698.841 54.8734C697.656 54.8734 696.608 54.6638 695.696 54.2445C694.785 53.8252 694.069 53.2419 693.55 52.4945C693.039 51.738 692.784 50.9222 692.784 50.0472H695.313C695.359 50.8949 695.696 51.5694 696.325 52.0707C696.963 52.5629 697.802 52.809 698.841 52.809C699.798 52.809 700.563 52.6176 701.137 52.2347C701.721 51.8428 702.012 51.3233 702.012 50.6761ZM713.975 54.8734C711.97 54.8734 710.339 54.2172 709.081 52.9047C707.823 51.583 707.194 49.8194 707.194 47.6136V47.1488C707.194 45.6814 707.472 44.3734 708.028 43.225C708.593 42.0674 709.377 41.1651 710.38 40.5179C711.391 39.8617 712.485 39.5336 713.661 39.5336C715.584 39.5336 717.079 40.167 718.145 41.434C719.212 42.7009 719.745 44.5147 719.745 46.8754V47.9281H709.723C709.76 49.3864 710.184 50.5668 710.995 51.4691C711.815 52.3623 712.854 52.809 714.112 52.809C715.005 52.809 715.762 52.6267 716.382 52.2621C717.001 51.8975 717.544 51.4144 718.009 50.8129L719.553 52.016C718.314 53.9209 716.455 54.8734 713.975 54.8734ZM713.661 41.6117C712.64 41.6117 711.783 41.9854 711.091 42.7328C710.398 43.4711 709.969 44.5101 709.805 45.85H717.216V45.6586C717.143 44.3734 716.796 43.3799 716.177 42.6781C715.557 41.9672 714.718 41.6117 713.661 41.6117Z" fill="#EB5757"/>
<rect id="Rectangle_3" x="634" y="71" width="106" height="53" stroke="black"/>
<path id="True" d="M675.94 89.8539H669.542V107.6H666.93V89.8539H660.546V87.6937H675.94V89.8539ZM684.608 95.0765C684.225 95.0127 683.811 94.9808 683.364 94.9808C681.705 94.9808 680.58 95.6872 679.987 97.1V107.6H677.458V92.807H679.919L679.96 94.516C680.789 93.1944 681.965 92.5336 683.487 92.5336C683.979 92.5336 684.353 92.5974 684.608 92.725V95.0765ZM696.079 106.137C695.094 107.295 693.65 107.873 691.745 107.873C690.168 107.873 688.965 107.418 688.136 106.506C687.315 105.586 686.9 104.228 686.891 102.432V92.807H689.421V102.364C689.421 104.606 690.332 105.727 692.155 105.727C694.087 105.727 695.372 105.007 696.011 103.567V92.807H698.54V107.6H696.134L696.079 106.137ZM708.534 107.873C706.529 107.873 704.897 107.217 703.639 105.905C702.382 104.583 701.753 102.819 701.753 100.614V100.149C701.753 98.6814 702.031 97.3734 702.587 96.225C703.152 95.0674 703.936 94.1651 704.938 93.5179C705.95 92.8617 707.044 92.5336 708.219 92.5336C710.143 92.5336 711.637 93.167 712.704 94.434C713.77 95.7009 714.303 97.5147 714.303 99.8754V100.928H704.282C704.318 102.386 704.742 103.567 705.553 104.469C706.374 105.362 707.413 105.809 708.671 105.809C709.564 105.809 710.32 105.627 710.94 105.262C711.56 104.898 712.102 104.414 712.567 103.813L714.112 105.016C712.872 106.921 711.013 107.873 708.534 107.873ZM708.219 94.6117C707.199 94.6117 706.342 94.9854 705.649 95.7328C704.956 96.4711 704.528 97.5101 704.364 98.85H711.774V98.6586C711.701 97.3734 711.355 96.3799 710.735 95.6781C710.115 94.9672 709.277 94.6117 708.219 94.6117Z" fill="#27AE60"/>
<rect id="Rectangle_4" x="634" y="124" width="106" height="53" stroke="black"/>
<path id="True_2" d="M675.94 142.854H669.542V160.6H666.93V142.854H660.546V140.694H675.94V142.854ZM684.608 148.077C684.225 148.013 683.811 147.981 683.364 147.981C681.705 147.981 680.58 148.687 679.987 150.1V160.6H677.458V145.807H679.919L679.96 147.516C680.789 146.194 681.965 145.534 683.487 145.534C683.979 145.534 684.353 145.597 684.608 145.725V148.077ZM696.079 159.137C695.094 160.295 693.65 160.874 691.745 160.874C690.168 160.874 688.965 160.418 688.136 159.506C687.315 158.586 686.9 157.228 686.891 155.432V145.807H689.421V155.364C689.421 157.606 690.332 158.727 692.155 158.727C694.087 158.727 695.372 158.007 696.011 156.567V145.807H698.54V160.6H696.134L696.079 159.137ZM708.534 160.874C706.529 160.874 704.897 160.217 703.639 158.905C702.382 157.583 701.753 155.819 701.753 153.614V153.149C701.753 151.681 702.031 150.374 702.587 149.225C703.152 148.068 703.936 147.165 704.938 146.518C705.95 145.862 707.044 145.534 708.219 145.534C710.143 145.534 711.637 146.167 712.704 147.434C713.77 148.701 714.303 150.515 714.303 152.875V153.928H704.282C704.318 155.387 704.742 156.567 705.553 157.469C706.374 158.362 707.413 158.809 708.671 158.809C709.564 158.809 710.32 158.627 710.94 158.262C711.56 157.898 712.102 157.415 712.567 156.813L714.112 158.016C712.872 159.921 711.013 160.874 708.534 160.874ZM708.219 147.612C707.199 147.612 706.342 147.986 705.649 148.733C704.956 149.471 704.528 150.51 704.364 151.85H711.774V151.659C711.701 150.374 711.355 149.38 710.735 148.678C710.115 147.967 709.277 147.612 708.219 147.612Z" fill="#27AE60"/>
<path id="0" d="M621.275 42.5098C621.275 45.472 620.77 47.6732 619.758 49.1133C618.746 50.5534 617.165 51.2734 615.014 51.2734C612.89 51.2734 611.318 50.5716 610.297 49.168C609.276 47.7552 608.747 45.6497 608.711 42.8516V39.4746C608.711 36.5488 609.217 34.375 610.229 32.9531C611.24 31.5312 612.826 30.8203 614.986 30.8203C617.128 30.8203 618.705 31.5085 619.717 32.8848C620.729 34.252 621.248 36.3665 621.275 39.2285V42.5098ZM618.746 39.0508C618.746 36.9089 618.445 35.3503 617.844 34.375C617.242 33.3906 616.29 32.8984 614.986 32.8984C613.692 32.8984 612.749 33.3861 612.156 34.3613C611.564 35.3366 611.258 36.8359 611.24 38.8594V42.9062C611.24 45.0573 611.55 46.6478 612.17 47.6777C612.799 48.6986 613.747 49.209 615.014 49.209C616.262 49.209 617.188 48.7259 617.789 47.7598C618.4 46.7936 618.719 45.2715 618.746 43.1934V39.0508Z" fill="#828282"/>
<path id="1" d="M617.105 105H614.562V88.1426L609.463 90.0156V87.7188L616.709 84.998H617.105V105Z" fill="#828282"/>
<path id="2" d="M621.836 157H608.793V155.182L615.684 147.525C616.704 146.368 617.406 145.429 617.789 144.709C618.181 143.98 618.377 143.228 618.377 142.453C618.377 141.414 618.062 140.562 617.434 139.896C616.805 139.231 615.966 138.898 614.918 138.898C613.66 138.898 612.68 139.258 611.979 139.979C611.286 140.689 610.939 141.683 610.939 142.959H608.41C608.41 141.127 608.998 139.646 610.174 138.516C611.359 137.385 612.94 136.82 614.918 136.82C616.768 136.82 618.231 137.308 619.307 138.283C620.382 139.249 620.92 140.539 620.92 142.152C620.92 144.112 619.671 146.445 617.174 149.152L611.842 154.936H621.836V157Z" fill="#828282"/>
</g>
<g id="Group_2">
<rect id="Rectangle_5" x="812" y="18" width="106" height="53" stroke="black"/>
<path id="Apple" d="M843.221 49.4047H834.882L833.009 54.6H830.302L837.903 34.6937H840.2L847.815 54.6H845.122L843.221 49.4047ZM835.675 47.2445H842.442L839.052 37.934L835.675 47.2445ZM862.594 47.3676C862.594 49.6189 862.08 51.4327 861.05 52.809C860.02 54.1853 858.625 54.8734 856.866 54.8734C855.07 54.8734 853.658 54.3038 852.628 53.1644V60.2875H850.098V39.807H852.409L852.532 41.4476C853.562 40.1716 854.993 39.5336 856.825 39.5336C858.602 39.5336 860.006 40.2035 861.036 41.5433C862.075 42.8832 862.594 44.7471 862.594 47.1351V47.3676ZM860.065 47.0804C860.065 45.4125 859.71 44.0954 858.999 43.1293C858.288 42.1631 857.313 41.6801 856.073 41.6801C854.542 41.6801 853.393 42.3591 852.628 43.7172V50.7855C853.384 52.1345 854.542 52.809 856.1 52.809C857.313 52.809 858.274 52.3304 858.985 51.3734C859.705 50.4073 860.065 48.9763 860.065 47.0804ZM878.317 47.3676C878.317 49.6189 877.802 51.4327 876.772 52.809C875.742 54.1853 874.348 54.8734 872.589 54.8734C870.793 54.8734 869.38 54.3038 868.35 53.1644V60.2875H865.821V39.807H868.132L868.255 41.4476C869.285 40.1716 870.716 39.5336 872.548 39.5336C874.325 39.5336 875.729 40.2035 876.759 41.5433C877.798 42.8832 878.317 44.7471 878.317 47.1351V47.3676ZM875.788 47.0804C875.788 45.4125 875.432 44.0954 874.721 43.1293C874.011 42.1631 873.035 41.6801 871.796 41.6801C870.264 41.6801 869.116 42.3591 868.35 43.7172V50.7855C869.107 52.1345 870.264 52.809 871.823 52.809C873.035 52.809 873.997 52.3304 874.708 51.3734C875.428 50.4073 875.788 48.9763 875.788 47.0804ZM884.292 54.6H881.762V33.6H884.292V54.6ZM894.491 54.8734C892.486 54.8734 890.854 54.2172 889.596 52.9047C888.339 51.583 887.71 49.8194 887.71 47.6136V47.1488C887.71 45.6814 887.988 44.3734 888.544 43.225C889.109 42.0674 889.893 41.1651 890.895 40.5179C891.907 39.8617 893.001 39.5336 894.177 39.5336C896.1 39.5336 897.594 40.167 898.661 41.434C899.727 42.7009 900.26 44.5147 900.26 46.8754V47.9281H890.239C890.275 49.3864 890.699 50.5668 891.51 51.4691C892.331 52.3623 893.37 52.809 894.628 52.809C895.521 52.809 896.277 52.6267 896.897 52.2621C897.517 51.8975 898.059 51.4144 898.524 50.8129L900.069 52.016C898.83 53.9209 896.97 54.8734 894.491 54.8734ZM894.177 41.6117C893.156 41.6117 892.299 41.9854 891.606 42.7328C890.913 43.4711 890.485 44.5101 890.321 45.85H897.731V45.6586C897.658 44.3734 897.312 43.3799 896.692 42.6781C896.072 41.9672 895.234 41.6117 894.177 41.6117Z" fill="black"/>
<rect id="Rectangle_6" x="812" y="71" width="106" height="53" stroke="black"/>
<path id="Banana" d="M820.895 107.6V87.6937H827.403C829.563 87.6937 831.186 88.1403 832.27 89.0336C833.364 89.9268 833.911 91.2484 833.911 92.9984C833.911 93.9281 833.647 94.753 833.118 95.473C832.589 96.184 831.869 96.7354 830.958 97.1273C832.033 97.4281 832.881 98.0023 833.501 98.85C834.13 99.6885 834.444 100.691 834.444 101.858C834.444 103.644 833.865 105.048 832.708 106.069C831.55 107.09 829.914 107.6 827.8 107.6H820.895ZM823.52 98.2894V105.453H827.854C829.076 105.453 830.037 105.139 830.739 104.51C831.45 103.872 831.805 102.997 831.805 101.885C831.805 99.488 830.502 98.2894 827.895 98.2894H823.52ZM823.52 96.184H827.485C828.634 96.184 829.55 95.8969 830.233 95.3226C830.926 94.7484 831.272 93.9691 831.272 92.9847C831.272 91.891 830.953 91.098 830.315 90.6058C829.677 90.1045 828.706 89.8539 827.403 89.8539H823.52V96.184ZM847.077 107.6C846.931 107.308 846.813 106.789 846.721 106.041C845.546 107.263 844.142 107.873 842.511 107.873C841.052 107.873 839.854 107.463 838.915 106.643C837.985 105.814 837.52 104.765 837.52 103.498C837.52 101.958 838.104 100.764 839.27 99.9164C840.446 99.0596 842.096 98.6312 844.219 98.6312H846.68V97.4691C846.68 96.585 846.416 95.8832 845.887 95.3636C845.359 94.835 844.58 94.5707 843.55 94.5707C842.647 94.5707 841.891 94.7985 841.28 95.2543C840.669 95.71 840.364 96.2614 840.364 96.9086H837.821C837.821 96.1703 838.081 95.4594 838.6 94.7758C839.129 94.083 839.84 93.5362 840.733 93.1351C841.636 92.7341 842.624 92.5336 843.7 92.5336C845.404 92.5336 846.74 92.962 847.706 93.8187C848.672 94.6664 849.173 95.8376 849.21 97.3324V104.141C849.21 105.499 849.383 106.579 849.729 107.381V107.6H847.077ZM842.88 105.672C843.673 105.672 844.425 105.467 845.136 105.057C845.846 104.647 846.361 104.114 846.68 103.457V100.422H844.698C841.599 100.422 840.05 101.329 840.05 103.143C840.05 103.936 840.314 104.556 840.843 105.002C841.371 105.449 842.05 105.672 842.88 105.672ZM855.567 92.807L855.649 94.6664C856.779 93.2445 858.256 92.5336 860.079 92.5336C863.205 92.5336 864.782 94.2972 864.809 97.8246V107.6H862.28V97.8109C862.271 96.7445 862.025 95.9561 861.542 95.4457C861.068 94.9353 860.325 94.6801 859.313 94.6801C858.493 94.6801 857.773 94.8988 857.153 95.3363C856.533 95.7738 856.05 96.348 855.704 97.059V107.6H853.175V92.807H855.567ZM877.757 107.6C877.611 107.308 877.492 106.789 877.401 106.041C876.225 107.263 874.822 107.873 873.19 107.873C871.732 107.873 870.533 107.463 869.594 106.643C868.665 105.814 868.2 104.765 868.2 103.498C868.2 101.958 868.783 100.764 869.95 99.9164C871.126 99.0596 872.775 98.6312 874.899 98.6312H877.36V97.4691C877.36 96.585 877.096 95.8832 876.567 95.3636C876.038 94.835 875.259 94.5707 874.229 94.5707C873.327 94.5707 872.57 94.7985 871.96 95.2543C871.349 95.71 871.044 96.2614 871.044 96.9086H868.501C868.501 96.1703 868.761 95.4594 869.28 94.7758C869.809 94.083 870.52 93.5362 871.413 93.1351C872.315 92.7341 873.304 92.5336 874.38 92.5336C876.084 92.5336 877.419 92.962 878.386 93.8187C879.352 94.6664 879.853 95.8376 879.889 97.3324V104.141C879.889 105.499 880.063 106.579 880.409 107.381V107.6H877.757ZM873.559 105.672C874.352 105.672 875.104 105.467 875.815 105.057C876.526 104.647 877.041 104.114 877.36 103.457V100.422H875.378C872.279 100.422 870.729 101.329 870.729 103.143C870.729 103.936 870.994 104.556 871.522 105.002C872.051 105.449 872.73 105.672 873.559 105.672ZM886.247 92.807L886.329 94.6664C887.459 93.2445 888.936 92.5336 890.759 92.5336C893.885 92.5336 895.462 94.2972 895.489 97.8246V107.6H892.96V97.8109C892.951 96.7445 892.705 95.9561 892.221 95.4457C891.747 94.9353 891.005 94.6801 889.993 94.6801C889.173 94.6801 888.453 94.8988 887.833 95.3363C887.213 95.7738 886.73 96.348 886.384 97.059V107.6H883.854V92.807H886.247ZM908.436 107.6C908.29 107.308 908.172 106.789 908.081 106.041C906.905 107.263 905.501 107.873 903.87 107.873C902.412 107.873 901.213 107.463 900.274 106.643C899.344 105.814 898.88 104.765 898.88 103.498C898.88 101.958 899.463 100.764 900.63 99.9164C901.805 99.0596 903.455 98.6312 905.579 98.6312H908.04V97.4691C908.04 96.585 907.775 95.8832 907.247 95.3636C906.718 94.835 905.939 94.5707 904.909 94.5707C904.007 94.5707 903.25 94.7985 902.639 95.2543C902.029 95.71 901.723 96.2614 901.723 96.9086H899.18C899.18 96.1703 899.44 95.4594 899.96 94.7758C900.488 94.083 901.199 93.5362 902.093 93.1351C902.995 92.7341 903.984 92.5336 905.059 92.5336C906.764 92.5336 908.099 92.962 909.065 93.8187C910.031 94.6664 910.533 95.8376 910.569 97.3324V104.141C910.569 105.499 910.742 106.579 911.089 107.381V107.6H908.436ZM904.239 105.672C905.032 105.672 905.784 105.467 906.495 105.057C907.206 104.647 907.721 104.114 908.04 103.457V100.422H906.057C902.958 100.422 901.409 101.329 901.409 103.143C901.409 103.936 901.673 104.556 902.202 105.002C902.731 105.449 903.41 105.672 904.239 105.672Z" fill="black"/>
<rect id="Rectangle_7" x="812" y="124" width="106" height="53" stroke="black"/>
<path id="Banana_2" d="M820.895 160.6V140.694H827.403C829.563 140.694 831.186 141.14 832.27 142.034C833.364 142.927 833.911 144.249 833.911 145.999C833.911 146.928 833.647 147.753 833.118 148.473C832.589 149.184 831.869 149.736 830.958 150.127C832.033 150.428 832.881 151.002 833.501 151.85C834.13 152.689 834.444 153.691 834.444 154.858C834.444 156.644 833.865 158.048 832.708 159.069C831.55 160.09 829.914 160.6 827.8 160.6H820.895ZM823.52 151.29V158.454H827.854C829.076 158.454 830.037 158.139 830.739 157.51C831.45 156.872 831.805 155.997 831.805 154.885C831.805 152.488 830.502 151.29 827.895 151.29H823.52ZM823.52 149.184H827.485C828.634 149.184 829.55 148.897 830.233 148.323C830.926 147.749 831.272 146.969 831.272 145.985C831.272 144.891 830.953 144.098 830.315 143.606C829.677 143.105 828.706 142.854 827.403 142.854H823.52V149.184ZM847.077 160.6C846.931 160.308 846.813 159.789 846.721 159.042C845.546 160.263 844.142 160.874 842.511 160.874C841.052 160.874 839.854 160.463 838.915 159.643C837.985 158.814 837.52 157.765 837.52 156.499C837.52 154.958 838.104 153.764 839.27 152.917C840.446 152.06 842.096 151.631 844.219 151.631H846.68V150.469C846.68 149.585 846.416 148.883 845.887 148.364C845.359 147.835 844.58 147.571 843.55 147.571C842.647 147.571 841.891 147.799 841.28 148.254C840.669 148.71 840.364 149.262 840.364 149.909H837.821C837.821 149.17 838.081 148.459 838.6 147.776C839.129 147.083 839.84 146.536 840.733 146.135C841.636 145.734 842.624 145.534 843.7 145.534C845.404 145.534 846.74 145.962 847.706 146.819C848.672 147.667 849.173 148.838 849.21 150.333V157.141C849.21 158.499 849.383 159.579 849.729 160.381V160.6H847.077ZM842.88 158.672C843.673 158.672 844.425 158.467 845.136 158.057C845.846 157.647 846.361 157.114 846.68 156.458V153.422H844.698C841.599 153.422 840.05 154.329 840.05 156.143C840.05 156.936 840.314 157.556 840.843 158.002C841.371 158.449 842.05 158.672 842.88 158.672ZM855.567 145.807L855.649 147.667C856.779 146.245 858.256 145.534 860.079 145.534C863.205 145.534 864.782 147.297 864.809 150.825V160.6H862.28V150.811C862.271 149.745 862.025 148.956 861.542 148.446C861.068 147.935 860.325 147.68 859.313 147.68C858.493 147.68 857.773 147.899 857.153 148.336C856.533 148.774 856.05 149.348 855.704 150.059V160.6H853.175V145.807H855.567ZM877.757 160.6C877.611 160.308 877.492 159.789 877.401 159.042C876.225 160.263 874.822 160.874 873.19 160.874C871.732 160.874 870.533 160.463 869.594 159.643C868.665 158.814 868.2 157.765 868.2 156.499C868.2 154.958 868.783 153.764 869.95 152.917C871.126 152.06 872.775 151.631 874.899 151.631H877.36V150.469C877.36 149.585 877.096 148.883 876.567 148.364C876.038 147.835 875.259 147.571 874.229 147.571C873.327 147.571 872.57 147.799 871.96 148.254C871.349 148.71 871.044 149.262 871.044 149.909H868.501C868.501 149.17 868.761 148.459 869.28 147.776C869.809 147.083 870.52 146.536 871.413 146.135C872.315 145.734 873.304 145.534 874.38 145.534C876.084 145.534 877.419 145.962 878.386 146.819C879.352 147.667 879.853 148.838 879.889 150.333V157.141C879.889 158.499 880.063 159.579 880.409 160.381V160.6H877.757ZM873.559 158.672C874.352 158.672 875.104 158.467 875.815 158.057C876.526 157.647 877.041 157.114 877.36 156.458V153.422H875.378C872.279 153.422 870.729 154.329 870.729 156.143C870.729 156.936 870.994 157.556 871.522 158.002C872.051 158.449 872.73 158.672 873.559 158.672ZM886.247 145.807L886.329 147.667C887.459 146.245 888.936 145.534 890.759 145.534C893.885 145.534 895.462 147.297 895.489 150.825V160.6H892.96V150.811C892.951 149.745 892.705 148.956 892.221 148.446C891.747 147.935 891.005 147.68 889.993 147.68C889.173 147.68 888.453 147.899 887.833 148.336C887.213 148.774 886.73 149.348 886.384 150.059V160.6H883.854V145.807H886.247ZM908.436 160.6C908.29 160.308 908.172 159.789 908.081 159.042C906.905 160.263 905.501 160.874 903.87 160.874C902.412 160.874 901.213 160.463 900.274 159.643C899.344 158.814 898.88 157.765 898.88 156.499C898.88 154.958 899.463 153.764 900.63 152.917C901.805 152.06 903.455 151.631 905.579 151.631H908.04V150.469C908.04 149.585 907.775 148.883 907.247 148.364C906.718 147.835 905.939 147.571 904.909 147.571C904.007 147.571 903.25 147.799 902.639 148.254C902.029 148.71 901.723 149.262 901.723 149.909H899.18C899.18 149.17 899.44 148.459 899.96 147.776C900.488 147.083 901.199 146.536 902.093 146.135C902.995 145.734 903.984 145.534 905.059 145.534C906.764 145.534 908.099 145.962 909.065 146.819C910.031 147.667 910.533 148.838 910.569 150.333V157.141C910.569 158.499 910.742 159.579 911.089 160.381V160.6H908.436ZM904.239 158.672C905.032 158.672 905.784 158.467 906.495 158.057C907.206 157.647 907.721 157.114 908.04 156.458V153.422H906.057C902.958 153.422 901.409 154.329 901.409 156.143C901.409 156.936 901.673 157.556 902.202 158.002C902.731 158.449 903.41 158.672 904.239 158.672Z" fill="black"/>
<path id="0_2" d="M799.275 42.5098C799.275 45.472 798.77 47.6732 797.758 49.1133C796.746 50.5534 795.165 51.2734 793.014 51.2734C790.89 51.2734 789.318 50.5716 788.297 49.168C787.276 47.7552 786.747 45.6497 786.711 42.8516V39.4746C786.711 36.5488 787.217 34.375 788.229 32.9531C789.24 31.5312 790.826 30.8203 792.986 30.8203C795.128 30.8203 796.705 31.5085 797.717 32.8848C798.729 34.252 799.248 36.3665 799.275 39.2285V42.5098ZM796.746 39.0508C796.746 36.9089 796.445 35.3503 795.844 34.375C795.242 33.3906 794.29 32.8984 792.986 32.8984C791.692 32.8984 790.749 33.3861 790.156 34.3613C789.564 35.3366 789.258 36.8359 789.24 38.8594V42.9062C789.24 45.0573 789.55 46.6478 790.17 47.6777C790.799 48.6986 791.747 49.209 793.014 49.209C794.262 49.209 795.188 48.7259 795.789 47.7598C796.4 46.7936 796.719 45.2715 796.746 43.1934V39.0508Z" fill="#828282"/>
<path id="1_2" d="M795.105 105H792.562V88.1426L787.463 90.0156V87.7188L794.709 84.998H795.105V105Z" fill="#828282"/>
<path id="2_2" d="M799.836 157H786.793V155.182L793.684 147.525C794.704 146.368 795.406 145.429 795.789 144.709C796.181 143.98 796.377 143.228 796.377 142.453C796.377 141.414 796.062 140.562 795.434 139.896C794.805 139.231 793.966 138.898 792.918 138.898C791.66 138.898 790.68 139.258 789.979 139.979C789.286 140.689 788.939 141.683 788.939 142.959H786.41C786.41 141.127 786.998 139.646 788.174 138.516C789.359 137.385 790.94 136.82 792.918 136.82C794.768 136.82 796.231 137.308 797.307 138.283C798.382 139.249 798.92 140.539 798.92 142.152C798.92 144.112 797.671 146.445 795.174 149.152L789.842 154.936H799.836V157Z" fill="#828282"/>
</g>
<g id="Group_3">
<rect id="Rectangle_8" x="1000" y="18" width="106" height="53" stroke="black"/>
<path id="Apple_2" d="M1031.22 49.4047H1022.88L1021.01 54.6H1018.3L1025.9 34.6937H1028.2L1035.82 54.6H1033.12L1031.22 49.4047ZM1023.67 47.2445H1030.44L1027.05 37.934L1023.67 47.2445ZM1050.59 47.3676C1050.59 49.6189 1050.08 51.4327 1049.05 52.809C1048.02 54.1853 1046.63 54.8734 1044.87 54.8734C1043.07 54.8734 1041.66 54.3038 1040.63 53.1644V60.2875H1038.1V39.807H1040.41L1040.53 41.4476C1041.56 40.1716 1042.99 39.5336 1044.82 39.5336C1046.6 39.5336 1048.01 40.2035 1049.04 41.5433C1050.07 42.8832 1050.59 44.7471 1050.59 47.1351V47.3676ZM1048.07 47.0804C1048.07 45.4125 1047.71 44.0954 1047 43.1293C1046.29 42.1631 1045.31 41.6801 1044.07 41.6801C1042.54 41.6801 1041.39 42.3591 1040.63 43.7172V50.7855C1041.38 52.1345 1042.54 52.809 1044.1 52.809C1045.31 52.809 1046.27 52.3304 1046.99 51.3734C1047.71 50.4073 1048.07 48.9763 1048.07 47.0804ZM1066.32 47.3676C1066.32 49.6189 1065.8 51.4327 1064.77 52.809C1063.74 54.1853 1062.35 54.8734 1060.59 54.8734C1058.79 54.8734 1057.38 54.3038 1056.35 53.1644V60.2875H1053.82V39.807H1056.13L1056.25 41.4476C1057.28 40.1716 1058.72 39.5336 1060.55 39.5336C1062.32 39.5336 1063.73 40.2035 1064.76 41.5433C1065.8 42.8832 1066.32 44.7471 1066.32 47.1351V47.3676ZM1063.79 47.0804C1063.79 45.4125 1063.43 44.0954 1062.72 43.1293C1062.01 42.1631 1061.04 41.6801 1059.8 41.6801C1058.26 41.6801 1057.12 42.3591 1056.35 43.7172V50.7855C1057.11 52.1345 1058.26 52.809 1059.82 52.809C1061.04 52.809 1062 52.3304 1062.71 51.3734C1063.43 50.4073 1063.79 48.9763 1063.79 47.0804ZM1072.29 54.6H1069.76V33.6H1072.29V54.6ZM1082.49 54.8734C1080.49 54.8734 1078.85 54.2172 1077.6 52.9047C1076.34 51.583 1075.71 49.8194 1075.71 47.6136V47.1488C1075.71 45.6814 1075.99 44.3734 1076.54 43.225C1077.11 42.0674 1077.89 41.1651 1078.9 40.5179C1079.91 39.8617 1081 39.5336 1082.18 39.5336C1084.1 39.5336 1085.59 40.167 1086.66 41.434C1087.73 42.7009 1088.26 44.5147 1088.26 46.8754V47.9281H1078.24C1078.28 49.3864 1078.7 50.5668 1079.51 51.4691C1080.33 52.3623 1081.37 52.809 1082.63 52.809C1083.52 52.809 1084.28 52.6267 1084.9 52.2621C1085.52 51.8975 1086.06 51.4144 1086.52 50.8129L1088.07 52.016C1086.83 53.9209 1084.97 54.8734 1082.49 54.8734ZM1082.18 41.6117C1081.16 41.6117 1080.3 41.9854 1079.61 42.7328C1078.91 43.4711 1078.49 44.5101 1078.32 45.85H1085.73V45.6586C1085.66 44.3734 1085.31 43.3799 1084.69 42.6781C1084.07 41.9672 1083.23 41.6117 1082.18 41.6117Z" fill="black"/>
<rect id="Rectangle_9" x="1000" y="71" width="106" height="53" stroke="black"/>
<path id="two" d="M1035.86 89.225V92.807H1038.62V94.7621H1035.86V103.936C1035.86 104.528 1035.98 104.975 1036.23 105.276C1036.47 105.567 1036.89 105.713 1037.48 105.713C1037.77 105.713 1038.18 105.659 1038.69 105.549V107.6C1038.02 107.782 1037.37 107.873 1036.74 107.873C1035.61 107.873 1034.76 107.532 1034.19 106.848C1033.61 106.164 1033.33 105.194 1033.33 103.936V94.7621H1030.63V92.807H1033.33V89.225H1035.86ZM1054.68 104.114L1057.53 92.807H1060.06L1055.75 107.6H1053.7L1050.1 96.389L1046.6 107.6H1044.55L1040.26 92.807H1042.77L1045.69 103.881L1049.13 92.807H1051.17L1054.68 104.114ZM1061.97 100.067C1061.97 98.6176 1062.25 97.3142 1062.82 96.1566C1063.39 94.9991 1064.18 94.1058 1065.2 93.4769C1066.22 92.848 1067.38 92.5336 1068.68 92.5336C1070.7 92.5336 1072.32 93.2308 1073.56 94.6254C1074.81 96.0199 1075.44 97.8747 1075.44 100.19V100.368C1075.44 101.808 1075.16 103.102 1074.6 104.25C1074.06 105.39 1073.27 106.278 1072.24 106.916C1071.22 107.554 1070.04 107.873 1068.71 107.873C1066.7 107.873 1065.08 107.176 1063.83 105.782C1062.59 104.387 1061.97 102.541 1061.97 100.245V100.067ZM1064.51 100.368C1064.51 102.008 1064.89 103.325 1065.65 104.319C1066.41 105.312 1067.43 105.809 1068.71 105.809C1069.99 105.809 1071.02 105.308 1071.77 104.305C1072.53 103.293 1072.91 101.881 1072.91 100.067C1072.91 98.4444 1072.52 97.1319 1071.74 96.1293C1070.98 95.1176 1069.96 94.6117 1068.68 94.6117C1067.43 94.6117 1066.43 95.1084 1065.66 96.1019C1064.9 97.0954 1064.51 98.5173 1064.51 100.368Z" fill="black"/>
<rect id="Rectangle_10" x="1000" y="124" width="106" height="53" stroke="black"/>
<path id="three" d="M1026.79 141.625V145.207H1029.55V147.162H1026.79V156.336C1026.79 156.928 1026.92 157.375 1027.16 157.676C1027.41 157.967 1027.83 158.113 1028.42 158.113C1028.71 158.113 1029.11 158.059 1029.62 157.949V160C1028.96 160.182 1028.31 160.273 1027.68 160.273C1026.55 160.273 1025.7 159.932 1025.12 159.248C1024.55 158.564 1024.26 157.594 1024.26 156.336V147.162H1021.57V145.207H1024.26V141.625H1026.79ZM1035.05 146.998C1036.17 145.622 1037.63 144.934 1039.43 144.934C1042.55 144.934 1044.13 146.697 1044.16 150.225V160H1041.63V150.211C1041.62 149.145 1041.37 148.356 1040.89 147.846C1040.41 147.335 1039.67 147.08 1038.66 147.08C1037.84 147.08 1037.12 147.299 1036.5 147.736C1035.88 148.174 1035.4 148.748 1035.05 149.459V160H1032.52V139H1035.05V146.998ZM1055.09 147.477C1054.71 147.413 1054.3 147.381 1053.85 147.381C1052.19 147.381 1051.06 148.087 1050.47 149.5V160H1047.94V145.207H1050.4L1050.45 146.916C1051.27 145.594 1052.45 144.934 1053.97 144.934C1054.46 144.934 1054.84 144.997 1055.09 145.125V147.477ZM1063.3 160.273C1061.29 160.273 1059.66 159.617 1058.4 158.305C1057.14 156.983 1056.52 155.219 1056.52 153.014V152.549C1056.52 151.081 1056.79 149.773 1057.35 148.625C1057.91 147.467 1058.7 146.565 1059.7 145.918C1060.71 145.262 1061.81 144.934 1062.98 144.934C1064.91 144.934 1066.4 145.567 1067.47 146.834C1068.53 148.101 1069.07 149.915 1069.07 152.275V153.328H1059.04C1059.08 154.786 1059.51 155.967 1060.32 156.869C1061.14 157.762 1062.18 158.209 1063.43 158.209C1064.33 158.209 1065.08 158.027 1065.7 157.662C1066.32 157.298 1066.87 156.814 1067.33 156.213L1068.87 157.416C1067.64 159.321 1065.78 160.273 1063.3 160.273ZM1062.98 147.012C1061.96 147.012 1061.1 147.385 1060.41 148.133C1059.72 148.871 1059.29 149.91 1059.13 151.25H1066.54V151.059C1066.46 149.773 1066.12 148.78 1065.5 148.078C1064.88 147.367 1064.04 147.012 1062.98 147.012ZM1078.14 160.273C1076.14 160.273 1074.51 159.617 1073.25 158.305C1071.99 156.983 1071.36 155.219 1071.36 153.014V152.549C1071.36 151.081 1071.64 149.773 1072.2 148.625C1072.76 147.467 1073.55 146.565 1074.55 145.918C1075.56 145.262 1076.65 144.934 1077.83 144.934C1079.75 144.934 1081.25 145.567 1082.31 146.834C1083.38 148.101 1083.91 149.915 1083.91 152.275V153.328H1073.89C1073.93 154.786 1074.35 155.967 1075.16 156.869C1075.98 157.762 1077.02 158.209 1078.28 158.209C1079.17 158.209 1079.93 158.027 1080.55 157.662C1081.17 157.298 1081.71 156.814 1082.18 156.213L1083.72 157.416C1082.48 159.321 1080.62 160.273 1078.14 160.273ZM1077.83 147.012C1076.81 147.012 1075.95 147.385 1075.26 148.133C1074.57 148.871 1074.14 149.91 1073.97 151.25H1081.38V151.059C1081.31 149.773 1080.97 148.78 1080.35 148.078C1079.73 147.367 1078.89 147.012 1077.83 147.012Z" fill="black"/>
<path id="0_3" d="M987.275 42.5098C987.275 45.472 986.77 47.6732 985.758 49.1133C984.746 50.5534 983.165 51.2734 981.014 51.2734C978.89 51.2734 977.318 50.5716 976.297 49.168C975.276 47.7552 974.747 45.6497 974.711 42.8516V39.4746C974.711 36.5488 975.217 34.375 976.229 32.9531C977.24 31.5312 978.826 30.8203 980.986 30.8203C983.128 30.8203 984.705 31.5085 985.717 32.8848C986.729 34.252 987.248 36.3665 987.275 39.2285V42.5098ZM984.746 39.0508C984.746 36.9089 984.445 35.3503 983.844 34.375C983.242 33.3906 982.29 32.8984 980.986 32.8984C979.692 32.8984 978.749 33.3861 978.156 34.3613C977.564 35.3366 977.258 36.8359 977.24 38.8594V42.9062C977.24 45.0573 977.55 46.6478 978.17 47.6777C978.799 48.6986 979.747 49.209 981.014 49.209C982.262 49.209 983.188 48.7259 983.789 47.7598C984.4 46.7936 984.719 45.2715 984.746 43.1934V39.0508Z" fill="#828282"/>
<path id="1_3" d="M983.105 105H980.562V88.1426L975.463 90.0156V87.7188L982.709 84.998H983.105V105Z" fill="#828282"/>
<path id="2_3" d="M987.836 157H974.793V155.182L981.684 147.525C982.704 146.368 983.406 145.429 983.789 144.709C984.181 143.98 984.377 143.228 984.377 142.453C984.377 141.414 984.062 140.562 983.434 139.896C982.805 139.231 981.966 138.898 980.918 138.898C979.66 138.898 978.68 139.258 977.979 139.979C977.286 140.689 976.939 141.683 976.939 142.959H974.41C974.41 141.127 974.998 139.646 976.174 138.516C977.359 137.385 978.94 136.82 980.918 136.82C982.768 136.82 984.231 137.308 985.307 138.283C986.382 139.249 986.92 140.539 986.92 142.152C986.92 144.112 985.671 146.445 983.174 149.152L977.842 154.936H987.836V157Z" fill="#828282"/>
</g>
</g>
<defs>
<clipPath id="clip0">
<rect width="560" height="111" fill="white" transform="scale(2)"/>
</clipPath>
</defs>
</svg>
